<?xml version="1.0" encoding="iso-8859-1"?>
<!-- Generator: Adobe Illustrator 16.0.0, SVG Export Plug-In . SVG Version: 6.00 Build 0)  -->
<!DOCTYPE svg PUBLIC "-//W3C//DTD SVG 1.1//EN" "http://www.w3.org/Graphics/SVG/1.1/DTD/svg11.dtd">
<svg version="1.1" id="Capa_1" xmlns="http://www.w3.org/2000/svg" xmlns:xlink="http://www.w3.org/1999/xlink" x="0px" y="0px"
	 width="76.282px" height="76.282px" viewBox="0 0 76.282 76.282" style="enable-background:new 0 0 76.282 76.282;"
	 xml:space="preserve">
<g>
	<g>
		<path d="M2.483,39.111c0.527,0,1.054-0.201,1.454-0.603l26.224-26.222l14.226,14.224c0.803,0.803,2.104,0.803,2.904,0
			c0.805-0.803,0.805-2.104,0-2.907l-1.818-1.818v-9.112c0-1.136-0.92-2.056-2.057-2.056c-1.135,0-2.055,0.92-2.055,2.056v5.001
			l-9.75-9.747c-0.802-0.803-2.104-0.803-2.906,0L1.03,35.602c-0.803,0.804-0.803,2.104,0,2.907
			C1.432,38.91,1.958,39.111,2.483,39.111z"/>
		<path d="M59.58,24.389c-9.211,0-16.701,7.491-16.701,16.701c0,4.463,1.736,8.654,4.891,11.812c0.806,0.802,2.105,0.802,2.908,0
			c0.803-0.804,0.803-2.104,0-2.907c-2.379-2.378-3.688-5.539-3.688-8.899c0-6.944,5.646-12.593,12.59-12.593
			c6.939,0,12.59,5.647,12.59,12.593c0,3.36-1.312,6.521-3.688,8.899c-0.803,0.804-0.803,2.104,0,2.907
			c0.4,0.399,0.929,0.602,1.453,0.602c0.525,0,1.052-0.197,1.453-0.602c3.152-3.154,4.894-7.349,4.894-11.812
			C76.282,31.881,68.787,24.389,59.58,24.389z"/>
		<path d="M57.838,54.137h-3.457v-0.029l2.629-1.654c1.293-0.812,1.902-1.686,1.902-2.901c0-1.613-1.074-3.3-4.168-3.3
			c-2.584,0-3.949,1.48-3.949,2.876c0,0.827,0.377,1.407,1.424,1.407c1.641,0,0.783-2.02,2.438-2.02
			c0.784,0,1.267,0.465,1.267,1.179c0,0.595-0.263,1.001-0.976,1.493l-1.38,0.959c-2.672,1.857-2.891,2.324-2.891,3.225
			c0,0.625,0.465,1.205,1.234,1.205h5.924c0.871,0,1.234-0.449,1.234-1.221C59.071,54.585,58.709,54.137,57.838,54.137z"/>
		<path d="M66.797,52.231v-4.53c0-0.941-0.609-1.539-1.699-1.539c-0.756,0-1.178,0.335-2.004,1.321l-3.035,3.66
			c-0.641,0.77-0.871,1.263-0.871,1.801c0,0.871,0.377,1.554,1.365,1.554h3.426v0.697c0,0.958,0.466,1.567,1.41,1.567
			c0.943,0,1.408-0.609,1.408-1.567v-0.697c0.854,0,1.395-0.247,1.395-1.133C68.189,52.493,67.655,52.231,66.797,52.231z
			 M63.979,52.231h-2.409l2.383-3.121h0.026V52.231z"/>
		<path d="M59.579,42.254h0.002c0.123,0,0.248-0.016,0.371-0.041c0.035-0.008,0.069-0.021,0.106-0.031
			c0.084-0.021,0.166-0.049,0.248-0.084c0.043-0.021,0.082-0.043,0.123-0.063c0.07-0.038,0.14-0.079,0.205-0.128
			c0.041-0.03,0.08-0.062,0.119-0.098c0.025-0.021,0.055-0.039,0.078-0.062c0.037-0.034,0.062-0.075,0.098-0.111
			c0.021-0.025,0.049-0.045,0.068-0.07l5.332-6.842c0.609-0.783,0.471-1.913-0.312-2.524c-0.782-0.609-1.912-0.471-2.522,0.313
			l-4.062,5.213l-1.89-1.939c-0.69-0.713-1.832-0.729-2.543-0.036c-0.713,0.692-0.729,1.831-0.034,2.543l3.323,3.421
			c0.029,0.03,0.062,0.052,0.095,0.078c0.03,0.028,0.059,0.062,0.094,0.088c0.02,0.017,0.037,0.024,0.059,0.038
			c0.037,0.024,0.07,0.051,0.109,0.072c0.062,0.036,0.121,0.069,0.186,0.099c0.039,0.019,0.076,0.035,0.113,0.05
			c0.07,0.026,0.145,0.049,0.217,0.065c0.032,0.008,0.064,0.019,0.1,0.023C59.364,42.241,59.471,42.254,59.579,42.254z"/>
		<path d="M40.155,41.364c0-3.744,1.332-7.379,3.754-10.236c0.69-0.815,0.644-2.025-0.115-2.782l-12.18-12.181
			c-0.385-0.385-0.908-0.602-1.452-0.602c-0.546,0-1.069,0.217-1.453,0.602L6.912,37.961c-0.291,0.29-0.488,0.662-0.564,1.065
			c-0.062,0.314-0.092,0.631-0.092,0.941v8.584c1.562,2.092,5.631,4.938,16.218,5.084l0.319,0.002c0.511,0,1.058-0.017,1.672-0.047
			v-1.072c0-1.404,0.834-2.672,2.125-3.229c0.079-0.031,0.16-0.062,0.24-0.09v-6.41c0-1.896,1.453-3.479,3.331-3.656
			c1.877,0.178,3.329,1.762,3.329,3.656v7.812c0,1.252,0.471,2.449,1.324,3.373c0.939,1.015,2.268,1.597,3.645,1.597h4.405
			c0.815,0,1.557-0.48,1.883-1.23c0.328-0.748,0.183-1.619-0.375-2.222C41.653,49.185,40.155,45.364,40.155,41.364z"/>
		<path d="M29.391,51.029c-0.596-0.566-1.471-0.722-2.226-0.396c-0.754,0.323-1.243,1.065-1.243,1.889v2.435
			c-1.19,0.096-2.352,0.156-3.469,0.143c-17.5-0.24-18.38-7.74-18.531-8.055c-0.405-0.876-1.361-1.354-2.308-1.146
			C0.672,46.107,0,46.941,0,47.907c0,14.59,18.641,16.794,25.922,17.097v1.896c0,0.82,0.489,1.562,1.243,1.89
			c0.262,0.11,0.538,0.167,0.812,0.167c0.518,0,1.025-0.192,1.414-0.562l7.582-7.188c0.409-0.391,0.641-0.929,0.641-1.492
			c0-0.562-0.231-1.103-0.641-1.489L29.391,51.029z"/>
		<circle cx="58.576" cy="31.857" r="1.507"/>
		<circle cx="49.008" cy="40.552" r="1.508"/>
		<circle cx="68.073" cy="40.55" r="1.507"/>
	</g>
</g>
<g>
</g>
<g>
</g>
<g>
</g>
<g>
</g>
<g>
</g>
<g>
</g>
<g>
</g>
<g>
</g>
<g>
</g>
<g>
</g>
<g>
</g>
<g>
</g>
<g>
</g>
<g>
</g>
<g>
</g>
</svg>
