<?xml version="1.0" encoding="UTF-8"?>
<svg width="23px" height="22px" viewBox="0 0 23 22" version="1.1" xmlns="http://www.w3.org/2000/svg" xmlns:xlink="http://www.w3.org/1999/xlink">
    <!-- Generator: sketchtool 40 (33762) - http://www.bohemiancoding.com/sketch -->
    <title>BF07CEAF-963A-43D1-BE91-9AD4BCD86CFC</title>
    <desc>Created with sketchtool.</desc>
    <defs></defs>
    <g id="Page-1" stroke="none" stroke-width="1" fill="none" fill-rule="evenodd">
        <g id="Home-&gt;--Dropdown-menu" transform="translate(-639.000000, -119.000000)" fill="#23333B">
            <g id="menu/-search-filter-" transform="translate(615.000000, 56.000000)">
                <g id="Group-15" transform="translate(23.000000, 21.000000)">
                    <g id="~-NIghtlife-Copy" transform="translate(1.000000, 42.142857)">
                        <g id="bright_moon_filled">
                            <g id="Слой_1">
                                <path d="M6.05263158,3.6 C5.71852632,3.6 5.44736842,3.3312 5.44736842,3 L5.44736842,0.6 C5.44736842,0.2688 5.71852632,0 6.05263158,0 C6.38673684,0 6.65789474,0.2688 6.65789474,0.6 L6.65789474,3 C6.65789474,3.3312 6.38673684,3.6 6.05263158,3.6 L6.05263158,3.6 Z" id="Shape"></path>
                                <path d="M7.26315789,2.4 L4.84210526,2.4 C4.508,2.4 4.23684211,2.1312 4.23684211,1.8 C4.23684211,1.4688 4.508,1.2 4.84210526,1.2 L7.26315789,1.2 C7.59726316,1.2 7.86842105,1.4688 7.86842105,1.8 C7.86842105,2.1312 7.59726316,2.4 7.26315789,2.4 L7.26315789,2.4 Z" id="Shape"></path>
                                <path d="M1.21052632,9.6 C0.876421053,9.6 0.605263158,9.3312 0.605263158,9 L0.605263158,7.8 C0.605263158,7.4688 0.876421053,7.2 1.21052632,7.2 C1.54463158,7.2 1.81578947,7.4688 1.81578947,7.8 L1.81578947,9 C1.81578947,9.3312 1.54463158,9.6 1.21052632,9.6 L1.21052632,9.6 Z" id="Shape"></path>
                                <path d="M1.81578947,9 L0.605263158,9 C0.271157895,9 0,8.7312 0,8.4 C0,8.0688 0.271157895,7.8 0.605263158,7.8 L1.81578947,7.8 C2.14989474,7.8 2.42105263,8.0688 2.42105263,8.4 C2.42105263,8.7312 2.14989474,9 1.81578947,9 L1.81578947,9 Z" id="Shape"></path>
                                <path d="M5.44736842,12.6 C5.44736842,8.4522 8.57113158,4.8816 12.7135526,4.2942 L13.5112895,4.1808 L13.3981053,4.9722 C13.3418158,5.367 13.3157895,5.694 13.3157895,6 C13.3157895,9.9702 16.5739211,13.2 20.5789474,13.2 C20.8876316,13.2 21.2175,13.1742 21.6163684,13.1178 L22.4141053,13.0056 L22.3003158,13.7964 C21.7065526,17.9034 18.1040263,21 13.9210526,21 C9.24842105,21 5.44736842,17.232 5.44736842,12.6 Z" id="Shape"></path>
                            </g>
                        </g>
                    </g>
                </g>
            </g>
        </g>
    </g>
</svg>