<?xml version="1.0" encoding="iso-8859-1"?>
<!-- Generator: Adobe Illustrator 19.0.0, SVG Export Plug-In . SVG Version: 6.00 Build 0)  -->
<svg version="1.1" id="Layer_1" xmlns="http://www.w3.org/2000/svg" xmlns:xlink="http://www.w3.org/1999/xlink" x="0px" y="0px"
	 viewBox="0 0 512.001 512.001" style="enable-background:new 0 0 512.001 512.001;" xml:space="preserve">
<g>
	<g>
		<path d="M309.322,273.422l-27.309,27.309l11.619,140.68c0.394,4.772-0.906,9.531-3.672,13.44l-26.511,37.461
			c-1.71,2.417-4.487,3.854-7.448,3.854s-5.738-1.437-7.448-3.854l-26.511-37.461c-2.767-3.909-4.067-8.667-3.672-13.44
			l11.619-140.68l-27.309-27.309C102.29,297.506,27.449,388.01,27.449,495.678c0,9.015,7.308,16.323,16.323,16.323H468.23
			c9.015,0,16.323-7.308,16.323-16.323C484.551,388.01,409.71,297.506,309.322,273.422z"/>
	</g>
</g>
<g>
	<g>
		<path d="M256.653,0.008C256.519,0.007,256.388,0,256.256,0c-0.033,0-0.064,0.002-0.096,0.002c-0.053,0-0.105-0.002-0.158-0.002
			c-68.8,0-124.773,55.973-124.773,124.773S187.2,249.547,256,249.547c0.053,0,0.105-0.002,0.158-0.002
			c0.033,0,0.064,0.002,0.096,0.002c0.132,0,0.265-0.007,0.397-0.008c68.501-0.353,124.122-56.183,124.122-124.765
			S325.153,0.361,256.653,0.008z M165.28,140.708c0,0,18.35,0,18.35,0c1.356,18.982,5.128,36.979,11.029,52.727
			C179.547,179.92,168.923,161.503,165.28,140.708z M183.681,108.063h-18.262c3.768-20.478,14.315-38.605,29.24-51.952
			C188.839,71.646,185.084,89.365,183.681,108.063z M239.678,207.662c-11.23-12.502-20.764-36.765-23.308-66.954h23.308V207.662z
			 M239.678,108.063h-23.239c2.641-29.828,12.106-53.783,23.239-66.178V108.063z M346.582,108.063H328.83
			c-1.382-18.427-5.049-35.902-10.726-51.275C332.629,70.068,342.877,87.933,346.582,108.063z M272.323,41.314
			c11.354,12.224,21.068,36.466,23.748,66.75h-23.748V41.314z M272.323,208.234v-67.526h23.818
			C293.558,171.353,283.773,195.906,272.323,208.234z M318.103,192.759c5.757-15.587,9.44-33.341,10.777-52.051h17.84
			C343.139,161.154,332.816,179.308,318.103,192.759z"/>
	</g>
</g>
<g>
</g>
<g>
</g>
<g>
</g>
<g>
</g>
<g>
</g>
<g>
</g>
<g>
</g>
<g>
</g>
<g>
</g>
<g>
</g>
<g>
</g>
<g>
</g>
<g>
</g>
<g>
</g>
<g>
</g>
</svg>
