<?xml version="1.0" encoding="iso-8859-1"?>
<!-- Generator: Adobe Illustrator 19.1.0, SVG Export Plug-In . SVG Version: 6.00 Build 0)  -->
<svg version="1.1" id="Capa_1" xmlns="http://www.w3.org/2000/svg" xmlns:xlink="http://www.w3.org/1999/xlink" x="0px" y="0px"
	 viewBox="0 0 481.135 481.135" style="enable-background:new 0 0 481.135 481.135;" xml:space="preserve">
<g>
	<g>
		<path d="M285.248,354.109c-12.2-12.1-27.5-12.1-39.7,0c-9.3,9.2-18.6,18.4-27.7,27.8c-2.5,2.6-4.6,3.1-7.7,1.4
			c-6-3.3-12.4-5.9-18.2-9.5c-26.9-16.9-49.5-38.7-69.5-63.3c-9.9-12.2-18.8-25.2-24.9-39.9c-1.2-3-1.1-4.9,1.4-7.3
			c9.3-9,18.4-18.2,27.5-27.4c12.7-12.8,12.7-27.8-0.1-40.7c-7.2-7.3-14.5-14.6-21.8-21.8c-7.5-7.5-14.9-15-22.5-22.5
			c-12.3-12-27.5-12.1-39.8,0c-9.3,9.2-18.4,18.7-27.8,27.7c-8.8,8.4-13.3,18.6-14.2,30.6c-1.4,19.4,3.3,37.8,10,55.7
			c13.8,37,34.7,69.8,60,100c34.2,40.8,75.2,73,123.1,96.3c21.5,10.5,43.9,18.5,68.2,19.8c16.7,0.9,31.3-3.3,42.9-16.3
			c8-8.9,16.9-17,25.4-25.5c12.5-12.6,12.6-27.9,0.2-40.4C315.048,383.809,300.148,369.009,285.248,354.109z"/>
		<path d="M436.748,44.409c-59.2-59.2-155.1-59.2-214.3,0c-57,57-59.1,148-6.4,207.5l1.5,1.3c-5.7,12.4-15.6,27.6-31.2,35.3
			c-5.2,2.5-4,10.2,1.7,11.1c17.1,2.7,41.6-0.3,64.4-17.6l0.3,0.3c58.1,34.2,134,26.3,183.9-23.6
			C495.948,199.509,495.948,103.609,436.748,44.409z M336.048,58.009c13.6,0.1,24.5,11.2,24.4,25c-0.1,13.7-11.2,24.8-24.5,24.7
			c-13.8-0.1-24.9-11.4-24.8-25.1S322.348,57.909,336.048,58.009z M371.148,224.509c-0.5,2.1-1.9,4.3-3.4,5.9
			c-9,9.1-19.7,14.5-32.6,14.7c-6,0.1-12.1-0.1-18-1c-9.9-1.4-22.4-13.6-20.6-26.7c1.2-8.9,2.6-17.8,4.1-26.7
			c2.6-15.4,5.4-30.9,8.1-46.3c0.2-1,0.2-2,0.2-3c0-6.5-2-8.7-8.4-9.6c-2.7-0.4-5.6-0.6-8.1-1.5c-3.2-1.1-4.6-3.6-4.3-6.2
			c0.3-2.7,2-4.4,5.5-5.1c1.8-0.4,3.7-0.4,5.6-0.4c7.6,0,15.1,0,22.7,0c8,0,16,0,24.1,0c5.8,0,9.2,2.7,9.4,8.5
			c0.1,4.8-0.7,9.6-1.6,14.4c-3.1,17.6-6.4,35.2-9.6,52.9c-1.1,5.8-2.3,11.7-2.9,17.5c-0.3,2.8,0.1,5.8,0.8,8.5
			c0.9,3.7,3.7,5.7,7.4,5.3c3.1-0.4,6.2-1.5,9.2-2.6c2.4-0.9,4.5-2.6,7-3.5C369.048,218.309,372.048,220.809,371.148,224.509z"/>
	</g>
</g>
<g>
</g>
<g>
</g>
<g>
</g>
<g>
</g>
<g>
</g>
<g>
</g>
<g>
</g>
<g>
</g>
<g>
</g>
<g>
</g>
<g>
</g>
<g>
</g>
<g>
</g>
<g>
</g>
<g>
</g>
</svg>
