<?xml version="1.0" encoding="iso-8859-1"?>
<!-- Generator: Adobe Illustrator 19.0.0, SVG Export Plug-In . SVG Version: 6.00 Build 0)  -->
<svg version="1.1" id="Layer_1" xmlns="http://www.w3.org/2000/svg" xmlns:xlink="http://www.w3.org/1999/xlink" x="0px" y="0px"
	 viewBox="0 0 512 512" style="enable-background:new 0 0 512 512;" xml:space="preserve">
<g>
	<g>
		<path d="M465.634,385.735c-3.831-6.397-11.112-9.886-18.496-8.869c-88.763,12.251-174.654-31.21-218.756-104.883
			c-45.371-75.791-41.098-170.921,10.885-242.356c4.386-6.029,4.748-14.094,0.918-20.49s-11.112-9.888-18.495-8.869
			c-34.287,4.731-66.841,16.21-96.758,34.119C3.349,107.175-36.352,265.307,36.434,386.892
			c73.008,121.957,230.937,161.275,352.503,88.5c29.915-17.908,55.41-41.18,75.777-69.167
			C469.101,400.198,469.463,392.133,465.634,385.735z"/>
	</g>
</g>
<g>
	<g>
		<path d="M348.474,109.822l-12.093-18.29l6.383-20.976c1.268-4.168-3.377-7.633-7.012-5.231l-18.29,12.092l-20.976-6.383
			c-4.168-1.268-7.633,3.377-5.231,7.012l12.092,18.29l-6.383,20.976c-1.266,4.167,3.38,7.633,7.013,5.231l18.29-12.092
			l20.976,6.383C347.41,118.102,350.876,113.456,348.474,109.822z"/>
	</g>
</g>
<g>
	<g>
		<path d="M478.559,245.111l-11.233-4.044l-4.044-11.233c-1.476-4.098-7.272-4.098-8.748,0l-4.044,11.233l-11.233,4.044
			c-4.099,1.476-4.099,7.272,0,8.748l11.233,4.044l4.044,11.233c1.476,4.099,7.272,4.099,8.748,0l4.044-11.233l11.233-4.044
			C482.658,252.383,482.658,246.587,478.559,245.111z"/>
	</g>
</g>
<g>
	<g>
		<path d="M508.926,39.361l-5.946-2.141l-2.141-5.946c-1.476-4.099-7.272-4.099-8.748,0l-2.141,5.946l-5.946,2.141
			c-4.099,1.476-4.099,7.272,0,8.748l5.946,2.141l2.141,5.946c1.476,4.099,7.272,4.099,8.748,0l2.141-5.946l5.946-2.141
			C513.025,46.633,513.025,40.837,508.926,39.361z"/>
	</g>
</g>
<g>
</g>
<g>
</g>
<g>
</g>
<g>
</g>
<g>
</g>
<g>
</g>
<g>
</g>
<g>
</g>
<g>
</g>
<g>
</g>
<g>
</g>
<g>
</g>
<g>
</g>
<g>
</g>
<g>
</g>
</svg>
