<?xml version="1.0" encoding="iso-8859-1"?>
<!-- Generator: Adobe Illustrator 18.0.0, SVG Export Plug-In . SVG Version: 6.00 Build 0)  -->
<!DOCTYPE svg PUBLIC "-//W3C//DTD SVG 1.1//EN" "http://www.w3.org/Graphics/SVG/1.1/DTD/svg11.dtd">
<svg version="1.1" id="Capa_1" xmlns="http://www.w3.org/2000/svg" xmlns:xlink="http://www.w3.org/1999/xlink" x="0px" y="0px"
	 viewBox="0 0 458.327 458.327" style="enable-background:new 0 0 458.327 458.327;" xml:space="preserve">
<g id="XMLID_13_">
	<path id="XMLID_14_" d="M160.417,223.248l-43.11-4.605c-6.823-0.729-12.921-3.524-17.75-7.69
		c-7.446,1.699-14.689-2.835-16.627-9.974l-16.575-61.065l0.009,291.841c0,11.77,9.54,21.31,21.31,21.31s21.31-9.54,21.31-21.31
		c0-4.527,0-138.803,0-165.705c0-2.556,2.072-4.628,4.627-4.628c2.527,0,4.574,2.047,4.574,4.574c0,27.171,0,163.23,0,165.759
		c0,11.77,9.54,21.31,21.31,21.31s21.31-9.54,21.31-21.31L160.417,223.248z"/>
	<path id="XMLID_1080_" d="M124.211,154.01l11.157,1.192l-11.692-43.075l-46.902,12.73l13.57,49.996
		C95.437,161.327,109.172,152.404,124.211,154.01z"/>
	<path id="XMLID_1081_" d="M203.091,133.053c0,0,0-0.001,0-0.002c-0.117-23.055-18.967-41.811-42.023-41.811l-80.766,0.34
		L46.723,78.852l30.103-38.097c-0.034,0.646-0.052,1.295-0.052,1.949c0,20.326,16.478,36.804,36.805,36.804
		c20.326,0,36.804-16.478,36.804-36.804S133.905,5.899,113.579,5.899c-12.349,0-23.269,6.088-29.945,15.42
		c-0.882-3.777-2.99-7.296-6.27-9.888c-7.693-6.08-18.862-4.771-24.943,2.924l-48.596,61.5c-3.509,4.441-4.691,10.289-3.182,15.744
		c1.509,5.456,5.528,9.865,10.821,11.871l51.442,19.499c0.786-5.773,4.983-10.207,10.2-11.623
		c22.218-6.031,25.384-6.89,46.902-12.73c6.961-1.889,14.96,1.671,17.324,10.382l12.974,47.8l10.11,1.08V133.25
		c0-1.973,1.597-3.574,3.569-3.579c1.973-0.005,3.579,1.587,3.589,3.56v0.002c0.03,5.991,0.202,40.257,0.202,40.257l-45.133-4.821
		c-9.755-1.043-18.502,6.021-19.544,15.772c-1.041,9.752,6.02,18.502,15.772,19.544l64.877,6.93
		c5.014,0.536,10.034-1.086,13.79-4.481c3.75-3.388,5.879-8.213,5.854-13.267L203.091,133.053z"/>
	<path id="XMLID_1089_" d="M447.474,97.197c5.44-2.007,9.439-6.708,10.547-12.4s-0.837-11.551-5.129-15.45L387.11,9.575
		c-6.782-6.163-17.278-5.659-23.44,1.122c-3.031,3.335-4.441,7.568-4.294,11.742c-6.915-9.604-18.184-15.862-30.921-15.862
		c-13.575,0-25.484,7.108-32.229,17.8c0.619-4.675-0.74-9.582-4.16-13.346c-6.163-6.783-16.659-7.286-23.44-1.122L202.842,69.68
		c-4.292,3.899-6.236,9.758-5.129,15.45s5.106,10.394,10.548,12.4l71.523,26.372l-0.196,306.64c0,12.18,9.873,22.053,22.053,22.053
		s22.053-9.873,22.053-22.053V259.034c0-2.629,2.131-4.761,4.761-4.761c2.629,0,4.761,2.131,4.761,4.761v171.508
		c0,12.18,9.873,22.053,22.053,22.053s22.053-9.873,22.053-22.053l-0.196-307.406L447.474,97.197z M356.735,95.282l-12.303,32.141
		l-8.806,23.007l4.935-23.246c0.346-1.633,0.095-3.335-0.709-4.797l-6.777-12.325l6.025-10.958c0.418-0.76,0.403-1.684-0.038-2.43
		s-1.244-1.204-2.111-1.204h-16.535c-0.867,0-1.67,0.458-2.111,1.204s-0.456,1.67-0.038,2.43l6.025,10.958l-6.802,12.371
		c-0.789,1.435-1.047,3.102-0.728,4.707l4.315,23.291l-8.595-23.601L300.53,96.18l-55.128-20.327l45.543-41.381
		c0.403-0.367,0.781-0.75,1.14-1.146c-1.115,3.582-1.717,7.39-1.717,11.338c0,21.035,17.052,38.087,38.087,38.087
		s38.087-17.052,38.087-38.087c0-3.535-0.492-6.954-1.393-10.202l45.186,41.057L356.735,95.282z"/>
</g>
<g>
</g>
<g>
</g>
<g>
</g>
<g>
</g>
<g>
</g>
<g>
</g>
<g>
</g>
<g>
</g>
<g>
</g>
<g>
</g>
<g>
</g>
<g>
</g>
<g>
</g>
<g>
</g>
<g>
</g>
</svg>
