<?xml version="1.0" encoding="iso-8859-1"?>
<!-- Generator: Adobe Illustrator 17.1.0, SVG Export Plug-In . SVG Version: 6.00 Build 0)  -->
<!DOCTYPE svg PUBLIC "-//W3C//DTD SVG 1.1//EN" "http://www.w3.org/Graphics/SVG/1.1/DTD/svg11.dtd">
<svg version="1.1" id="Capa_1" xmlns="http://www.w3.org/2000/svg" xmlns:xlink="http://www.w3.org/1999/xlink" x="0px" y="0px"
	 viewBox="0 0 460.873 460.873" style="enable-background:new 0 0 460.873 460.873;" xml:space="preserve">
<g>
	<path d="M216.5,80.169c22.102,0,40.084-17.982,40.084-40.084C256.584,17.982,238.602,0,216.5,0
		c-22.097,0-40.074,17.982-40.074,40.084C176.426,62.187,194.403,80.169,216.5,80.169z"/>
	<path d="M386.039,180.178l-28.902-28.9c-1.649-1.649-3.849-2.558-6.193-2.558c-2.345,0-4.544,0.909-6.193,2.558l-8.463,8.462
		c-0.348-0.406-0.694-0.811-1.076-1.193c-3.623-3.625-8.435-5.703-13.635-5.961c-0.309-0.535-0.643-1.06-1.017-1.569l-13.768-18.771
		c-3.971-5.414-11.031-12.517-16.425-16.521l-36.486-27.085c-1.164-0.858-5.064-3.34-9.269-3.34c0,0-51.336,0.012-51.436,0.015
		c-5.96,0.129-10.318,3.365-13.304,9.898l-15.724,34.394c-0.333,0.422-1.266,1.188-1.744,1.432l-32.047,7.624
		c-4.408,1.049-8.144,3.751-10.519,7.609c-2.375,3.858-3.105,8.411-2.057,12.818c1.826,7.678,8.606,13.04,16.488,13.04
		c1.317,0,2.643-0.156,3.939-0.464l32.354-7.697c10.027-2.385,20.022-10.598,24.307-19.971l1.338-2.926l8.72,34.247l-22.551,19.587
		c-8.741,7.591-13.23,20.817-10.916,32.163l10.453,51.215c1.693,8.293,9.056,14.312,17.507,14.311c1.199,0,2.408-0.123,3.594-0.364
		c9.662-1.973,15.918-11.438,13.946-21.1l-10.209-50.018l23.322-20.257c0.619-0.538,1.174-1.119,1.701-1.719h17.158l11.561,43.137
		c1.673,6.241,5.252,15.227,8.325,20.902l25.384,46.884c3.132,5.781,9.164,9.373,15.743,9.373c0.322,0,0.646-0.009,0.968-0.026
		c2.647-0.145,5.183-0.862,7.531-2.134c8.672-4.695,11.908-15.57,7.214-24.243l-25.387-46.886c-1.771-3.272-4.264-9.531-5.231-13.14
		l-24.252-89.539c2.739,2.196,6.808,6.338,8.645,8.844l13.767,18.771c1.191,1.623,2.651,3.002,4.297,4.091
		c-0.101,5.763,2.01,11.112,5.993,15.095c0.381,0.381,0.785,0.731,1.191,1.078l-8.461,8.46c-3.415,3.415-3.415,8.973,0,12.388
		l28.9,28.9c1.65,1.649,3.849,2.558,6.193,2.558h0.001c2.343,0,4.542-0.909,6.192-2.558l48.529-48.527
		C389.454,189.15,389.454,183.593,386.039,180.178z M310.851,182.906c-1.358-1.358-2.266-3.061-2.688-4.944
		c3.16-0.234,6.162-1.339,8.748-3.235c3.834-2.811,6.133-6.943,6.748-11.316c1.587,0.482,3.021,1.326,4.191,2.496
		c0.384,0.384,0.721,0.802,1.033,1.236l-16.797,16.797C311.652,183.627,311.234,183.289,310.851,182.906z"/>
	<path d="M140.952,260.554H82.567c-5.677,0-10.295,4.618-10.295,10.294v179.73c0,5.676,4.618,10.294,10.295,10.294h58.385
		c5.677,0,10.295-4.618,10.295-10.294v-179.73C151.247,265.172,146.629,260.554,140.952,260.554z"/>
	<path d="M233.718,299.512h-58.385c-5.677,0-10.295,4.618-10.295,10.294v140.772c0,5.676,4.618,10.294,10.295,10.294h58.385
		c5.677,0,10.295-4.618,10.295-10.294V309.806C244.013,304.13,239.394,299.512,233.718,299.512z"/>
	<path d="M326.48,325.506h-58.382c-5.677,0-10.295,4.618-10.295,10.294v114.778c0,5.676,4.618,10.294,10.295,10.294h58.382
		c5.677,0,10.296-4.618,10.296-10.294V335.8C336.776,330.124,332.157,325.506,326.48,325.506z"/>
</g>
<g>
</g>
<g>
</g>
<g>
</g>
<g>
</g>
<g>
</g>
<g>
</g>
<g>
</g>
<g>
</g>
<g>
</g>
<g>
</g>
<g>
</g>
<g>
</g>
<g>
</g>
<g>
</g>
<g>
</g>
</svg>
