<?xml version="1.0" encoding="iso-8859-1"?>
<!-- Generator: Adobe Illustrator 17.1.0, SVG Export Plug-In . SVG Version: 6.00 Build 0)  -->
<!DOCTYPE svg PUBLIC "-//W3C//DTD SVG 1.1//EN" "http://www.w3.org/Graphics/SVG/1.1/DTD/svg11.dtd">
<svg version="1.1" id="Capa_1" xmlns="http://www.w3.org/2000/svg" xmlns:xlink="http://www.w3.org/1999/xlink" x="0px" y="0px"
	 viewBox="0 0 239.24 239.24" style="enable-background:new 0 0 239.24 239.24;" xml:space="preserve">
<g>
	<path d="M228.965,131.859l-4.429-0.032c-4.024-0.028-9.105-3.01-11.092-6.511l-21.43-37.733c-2.639-4.647-8.893-8.288-14.237-8.288
		h-6.119V67.718h1.852c6.327,0,11.475-5.147,11.475-11.475v-26.77c0-6.327-5.148-11.475-11.475-11.475H91.65
		c-6.327,0-11.475,5.147-11.475,11.475v26.77c0,6.327,5.147,11.475,11.475,11.475h1.853v11.576H83.215
		c-5.307,0-11.717,3.492-14.595,7.951l-25.167,39.001c-2.275,3.525-7.648,7.303-11.735,8.249l-22.056,5.113
		C4.334,140.842,0,146.296,0,151.765v38.446c0,5.674,4.616,10.29,10.29,10.29h16.438c3.486,11.968,14.546,20.74,27.623,20.74
		c13.077,0,24.138-8.772,27.625-20.74h62.133c3.486,11.968,14.547,20.74,27.624,20.74c13.077,0,24.137-8.772,27.624-20.74h29.594
		c5.674,0,10.29-4.616,10.29-10.29V142.21C239.24,136.542,234.631,131.899,228.965,131.859z M155.189,31.356
		c0-0.689,0.559-1.248,1.248-1.248h17.437c0.688,0,1.249,0.56,1.249,1.248v3.056c0,0.689-0.561,1.248-1.249,1.248h-5.12
		c-0.229,0-0.417,0.187-0.417,0.416v18.469c0,0.688-0.56,1.248-1.248,1.248h-3.977c-0.688,0-1.249-0.56-1.249-1.248V36.076
		c0-0.226-0.19-0.416-0.416-0.416h-5.01c-0.688,0-1.248-0.56-1.248-1.248V31.356z M131.615,31.356c0-0.689,0.561-1.248,1.249-1.248
		h4.897c0.602,0,1.307,0.41,1.604,0.934l4.34,7.661c0.229,0.403,0.589,1.068,0.801,1.479c0.015,0.027,1.697,3.13,2.847,5.782
		c-0.124-1.962-0.329-5.587-0.329-8.176v-6.433c0-0.689,0.561-1.248,1.249-1.248h3.497c0.689,0,1.249,0.56,1.249,1.248v23.188
		c0,0.688-0.561,1.248-1.249,1.248h-4.233c-0.604,0-1.306-0.414-1.599-0.942l-4.505-8.129c-0.223-0.404-0.581-1.065-0.797-1.472
		c-0.019-0.035-1.931-3.534-3.192-6.348c0.056,1.893,0.163,5.982,0.163,8.99v6.652c0,0.688-0.561,1.248-1.249,1.248h-3.494
		c-0.689,0-1.249-0.56-1.249-1.248V31.356z M111.916,31.356c0-0.689,0.561-1.248,1.249-1.248h13.674c0.688,0,1.248,0.56,1.248,1.248
		v2.946c0,0.688-0.56,1.249-1.248,1.249h-8.032c-0.229,0-0.416,0.187-0.416,0.416v3.496c0,0.229,0.187,0.417,0.416,0.417h7.477
		c0.688,0,1.249,0.56,1.249,1.248v2.908c0,0.689-0.561,1.248-1.249,1.248h-7.477c-0.229,0-0.416,0.188-0.416,0.417v4.233
		c0,0.229,0.187,0.417,0.416,0.417h8.549c0.688,0,1.248,0.561,1.248,1.249v2.943c0,0.688-0.56,1.248-1.248,1.248h-14.19
		c-0.688,0-1.249-0.56-1.249-1.248V31.356z M91.287,55.792c-0.688,0-1.248-0.56-1.248-1.248V32.241c0-0.821,0.366-1.84,2.109-2.028
		c1.772-0.188,3.774-0.287,5.79-0.287c3.953,0,6.513,0.63,8.298,2.043c1.621,1.299,2.441,3.157,2.441,5.527
		c0,3.064-1.981,5.289-4.105,6.28c0.06,0.057,0.129,0.118,0.203,0.185c0.088,0.077,2.165,1.921,2.818,4.302
		c0.212,0.769,0.425,1.57,0.632,2.35c0.295,1.112,0.577,2.177,0.829,3.029c0.125,0.427,0.334,1.14-0.049,1.65
		c-0.252,0.338-0.682,0.501-1.313,0.501h-3.391c-0.631,0-1.294-0.464-1.509-1.057c-0.028-0.079-0.728-2.002-1.46-5.05
		c-0.66-3.077-1.693-3.633-3.622-3.666h-0.857c-0.226,0-0.417,0.191-0.417,0.417v8.107c0,0.688-0.56,1.248-1.247,1.248H91.287z
		 M104.161,67.718H161v11.576h-56.839V67.718z M54.351,206.76c-7.894,0-14.292-6.4-14.292-14.293
		c0-7.895,6.398-14.294,14.292-14.294c7.894,0,14.293,6.399,14.293,14.294C68.644,200.36,62.245,206.76,54.351,206.76z
		 M123.673,134.508H63.8c-3.76,0-5.232-2.625-3.273-5.834l18.235-29.867c1.96-3.209,6.639-5.834,10.398-5.834h34.513V134.508z
		 M171.732,206.76c-7.894,0-14.294-6.4-14.294-14.293c0-7.895,6.4-14.294,14.294-14.294c7.893,0,14.292,6.399,14.292,14.294
		C186.024,200.36,179.625,206.76,171.732,206.76z M192.575,134.508H140.12V92.973h30.073c3.76,0,8.295,2.708,10.079,6.018
		l15.896,29.5C197.952,131.8,196.335,134.508,192.575,134.508z"/>
	<path d="M96.854,41.136h0.548c0.415,0,1.103-0.106,1.503-0.231c0.938-0.296,3.374-1.401,3.374-2.933
		c0-2.476-2.021-3.024-3.717-3.049c-1.281,0-1.642,0.049-1.656,0.052c-0.249,0.038-0.469,0.294-0.469,0.548v5.196
		C96.437,40.945,96.628,41.136,96.854,41.136z"/>
</g>
<g>
</g>
<g>
</g>
<g>
</g>
<g>
</g>
<g>
</g>
<g>
</g>
<g>
</g>
<g>
</g>
<g>
</g>
<g>
</g>
<g>
</g>
<g>
</g>
<g>
</g>
<g>
</g>
<g>
</g>
</svg>
