<?xml version="1.0" encoding="iso-8859-1"?>
<!-- Generator: Adobe Illustrator 18.1.1, SVG Export Plug-In . SVG Version: 6.00 Build 0)  -->
<svg version="1.1" id="Capa_1" xmlns="http://www.w3.org/2000/svg" xmlns:xlink="http://www.w3.org/1999/xlink" x="0px" y="0px"
	 viewBox="0 0 302.6 302.6" style="enable-background:new 0 0 302.6 302.6;" xml:space="preserve">
<g>
	<path d="M129.887,104.13c-3.09-3.999-4.937-9.009-4.937-14.442V51.704c0-0.943,0.062-1.871,0.171-2.786H43.278V16.405h102.465
		v11.809c0.945-0.115,1.905-0.182,2.881-0.182h13.525V13.671C162.149,6.133,156.015,0,148.477,0H40.543
		c-7.538,0-13.672,6.133-13.672,13.671v37.983c0,5.073,2.785,9.501,6.9,11.859C7.837,123.301-1.727,178.819,4.582,232.557
		c1.863,15.875,15.324,27.85,31.311,27.85h65.743C97.779,210.415,107.071,158.939,129.887,104.13z M43.196,232.55
		c-0.5,0.117-1,0.174-1.493,0.174c-2.948,0-5.617-2.02-6.321-5.014c-1.833-7.793-3.105-15.83-3.785-23.885
		c-0.301-3.577,2.354-6.722,5.932-7.023c3.57-0.304,6.722,2.354,7.022,5.932c0.626,7.423,1.799,14.825,3.484,22.001
		C48.858,228.23,46.691,231.729,43.196,232.55z M58.069,116.534c-7.065,19.6-11.518,38.408-13.234,55.903
		c-0.329,3.356-3.157,5.865-6.461,5.865c-0.213,0-0.427-0.01-0.642-0.031c-3.572-0.351-6.185-3.531-5.834-7.104
		c1.821-18.566,6.512-38.431,13.941-59.042c1.218-3.379,4.946-5.129,8.319-3.911C57.534,109.433,59.285,113.157,58.069,116.534z"/>
	<path d="M268.827,105.707c4.116-2.358,6.901-6.786,6.901-11.859V55.864c0-7.538-6.133-13.671-13.672-13.671H154.123
		c-7.54,0-13.673,6.133-13.673,13.671v37.983c0,5.073,2.786,9.501,6.901,11.859c-25.937,59.787-35.504,115.307-29.19,169.043
		c1.861,15.875,15.322,27.85,31.306,27.85h117.239c15.986,0,29.449-11.975,31.31-27.85
		C304.327,221.015,294.763,165.497,268.827,105.707z M274.82,257.728c-1.276-1.438-3.135-2.349-5.212-2.349
		c-3.848,0-6.972,3.12-6.972,6.973c0,3.853,3.124,6.974,6.972,6.974c1.675,0,3.21-0.591,4.411-1.573
		c-0.139,1.378-0.279,2.755-0.44,4.13c-0.408,3.482-3.363,6.107-6.871,6.107H149.468c-3.505,0-6.456-2.625-6.864-6.113
		c-0.161-1.371-0.302-2.746-0.439-4.12c1.199,0.979,2.732,1.569,4.401,1.569c3.855,0,6.974-3.121,6.974-6.974
		c0-3.853-3.119-6.973-6.974-6.973c-2.072,0-3.928,0.91-5.204,2.347c-0.776-12.933-0.561-26.018,0.673-39.3
		c1.22,1.045,2.8,1.681,4.531,1.681c3.855,0,6.974-3.119,6.974-6.971c0-3.852-3.119-6.973-6.974-6.973
		c-1.16,0-2.253,0.288-3.217,0.79c4.306-31.8,14.314-64.766,30.132-99.437h69.217c15.815,34.667,25.824,67.633,30.13,99.437
		c-0.964-0.502-2.057-0.79-3.22-0.79c-3.848,0-6.972,3.121-6.972,6.973c0,3.852,3.124,6.971,6.972,6.971
		c1.734,0,3.316-0.635,4.535-1.681C275.377,231.709,275.594,244.795,274.82,257.728z"/>
	<path d="M158.871,195.5c3.855,0,6.973-3.122,6.973-6.971c0-3.852-3.117-6.973-6.973-6.973c-3.85,0-6.974,3.121-6.974,6.973
		C151.898,192.378,155.022,195.5,158.871,195.5z"/>
	<path d="M183.482,195.5c3.85,0,6.974-3.122,6.974-6.971c0-3.852-3.124-6.973-6.974-6.973c-3.854,0-6.972,3.121-6.972,6.973
		C176.51,192.378,179.627,195.5,183.482,195.5z"/>
	<circle cx="208.088" cy="188.528" r="6.972"/>
	<circle cx="232.698" cy="188.528" r="6.972"/>
	<path d="M257.305,195.5c3.853,0,6.971-3.122,6.971-6.971c0-3.852-3.117-6.973-6.971-6.973c-3.852,0-6.971,3.121-6.971,6.973
		C250.334,192.378,253.453,195.5,257.305,195.5z"/>
	<circle cx="171.178" cy="213.136" r="6.972"/>
	<path d="M195.787,220.107c3.85,0,6.969-3.119,6.969-6.971c0-3.852-3.119-6.973-6.969-6.973c-3.856,0-6.974,3.121-6.974,6.973
		C188.814,216.988,191.932,220.107,195.787,220.107z"/>
	<circle cx="220.393" cy="213.136" r="6.972"/>
	<path d="M245.004,220.107c3.848,0,6.971-3.119,6.971-6.971c0-3.852-3.123-6.973-6.971-6.973c-3.855,0-6.975,3.121-6.975,6.973
		C238.03,216.988,241.149,220.107,245.004,220.107z"/>
	<path d="M171.178,255.38c-3.85,0-6.975,3.12-6.975,6.973c0,3.853,3.125,6.974,6.975,6.974c3.848,0,6.972-3.121,6.972-6.974
		C178.15,258.5,175.026,255.38,171.178,255.38z"/>
	<path d="M195.787,255.38c-3.856,0-6.974,3.12-6.974,6.973c0,3.853,3.118,6.974,6.974,6.974c3.85,0,6.969-3.121,6.969-6.974
		C202.756,258.5,199.637,255.38,195.787,255.38z"/>
	<circle cx="220.393" cy="262.353" r="6.973"/>
	<path d="M245.004,255.38c-3.855,0-6.975,3.12-6.975,6.973c0,3.853,3.119,6.974,6.975,6.974c3.848,0,6.971-3.121,6.971-6.974
		C251.975,258.5,248.852,255.38,245.004,255.38z"/>
	<path d="M158.871,230.771c-3.85,0-6.974,3.121-6.974,6.974c0,3.853,3.124,6.972,6.974,6.972c3.855,0,6.973-3.119,6.973-6.972
		C165.844,233.893,162.727,230.771,158.871,230.771z"/>
	<path d="M183.482,230.771c-3.854,0-6.972,3.121-6.972,6.974c0,3.853,3.117,6.972,6.972,6.972c3.85,0,6.974-3.119,6.974-6.972
		C190.455,233.893,187.331,230.771,183.482,230.771z"/>
	<circle cx="208.088" cy="237.744" r="6.973"/>
	<circle cx="232.698" cy="237.744" r="6.973"/>
	<path d="M257.305,230.771c-3.852,0-6.971,3.121-6.971,6.974c0,3.853,3.119,6.972,6.971,6.972c3.853,0,6.971-3.119,6.971-6.972
		C264.276,233.893,261.158,230.771,257.305,230.771z"/>
</g>
<g>
</g>
<g>
</g>
<g>
</g>
<g>
</g>
<g>
</g>
<g>
</g>
<g>
</g>
<g>
</g>
<g>
</g>
<g>
</g>
<g>
</g>
<g>
</g>
<g>
</g>
<g>
</g>
<g>
</g>
</svg>
