<?xml version="1.0" encoding="UTF-8"?>
<svg width="24px" height="21px" viewBox="0 0 24 21" version="1.1" xmlns="http://www.w3.org/2000/svg" xmlns:xlink="http://www.w3.org/1999/xlink">
    <!-- Generator: sketchtool 40 (33762) - http://www.bohemiancoding.com/sketch -->
    <title>2A6483A0-D202-4647-9516-748D9DA40301</title>
    <desc>Created with sketchtool.</desc>
    <defs></defs>
    <g id="Page-1" stroke="none" stroke-width="1" fill="none" fill-rule="evenodd">
        <g id="Home-&gt;--Dropdown-menu" transform="translate(-638.000000, -245.000000)" fill="#23333B">
            <g id="menu/-search-filter-" transform="translate(615.000000, 56.000000)">
                <g id="Group-15" transform="translate(23.000000, 21.000000)">
                    <g id="~-beauty-copy" transform="translate(0.000000, 167.571429)">
                        <g id="travel-24px-glyph_spa">
                            <g id="Group">
                                <path d="M2,13.1 C2,10.5 3.6,7.5 5.5,5 C3.8,4.4 2.5,4 2.5,4 L1.5,3.7 L1.2,4.7 C1,5.6 -1.1,13.6 0.9,17.1 C1.9,18.8 3.4,20 5.2,20.4 C3.3,18.7 2,16.2 2,13.1 L2,13.1 Z" id="Shape"></path>
                                <path d="M22.8,4.7 L22.5,3.7 L21.5,4 C21.4,4 20.1,4.4 18.5,5 C20.3,7.5 22,10.5 22,13.1 C22,16.2 20.7,18.7 18.8,20.4 C20.6,20 22.1,18.8 23.1,17.1 C25.1,13.6 23.1,5.6 22.8,4.7 L22.8,4.7 Z" id="Shape"></path>
                                <path d="M12.7,1.3 L12,0.6 L11.3,1.3 C10.5,2 4,8.7 4,13.1 C4,18 8.1,21 12,21 C15.9,21 20,18.1 20,13.1 C20,8.7 13.5,2 12.7,1.3 L12.7,1.3 Z" id="Shape"></path>
                            </g>
                        </g>
                    </g>
                </g>
            </g>
        </g>
    </g>
</svg>