<?xml version="1.0" encoding="iso-8859-1"?>
<!-- Generator: Adobe Illustrator 16.0.0, SVG Export Plug-In . SVG Version: 6.00 Build 0)  -->
<!DOCTYPE svg PUBLIC "-//W3C//DTD SVG 1.1//EN" "http://www.w3.org/Graphics/SVG/1.1/DTD/svg11.dtd">
<svg version="1.1" id="Capa_1" xmlns="http://www.w3.org/2000/svg" xmlns:xlink="http://www.w3.org/1999/xlink" x="0px" y="0px"
	 width="163.537px" height="163.538px" viewBox="0 0 163.537 163.538" style="enable-background:new 0 0 163.537 163.538;"
	 xml:space="preserve">
<g>
	<g>
		<path d="M98.088,78.332l-6.531,12.785v0.189h10.45V78.893c0-3.269,0.385-6.809,0.656-9.983h-0.378
			C100.89,72.261,99.679,74.968,98.088,78.332z"/>
		<path d="M163.225,47.874C158.443,1.527,106.7,2.243,81.769,24.615C56.837,2.243,5.118,1.527,0.312,47.874
			c-6.186,59.669,81.456,105.897,81.456,105.897S169.407,107.542,163.225,47.874z M21.248,41.295c-4.043,0-7.317-3.275-7.317-7.312
			s3.274-7.312,7.317-7.312c4.037,0,7.312,3.274,7.312,7.312C28.56,38.014,25.285,41.295,21.248,41.295z M38.141,27.924
			c0-4.037,3.275-7.312,7.318-7.312c4.037,0,7.312,3.275,7.312,7.312c0,4.037-3.274,7.312-7.312,7.312
			C41.416,35.242,38.141,31.961,38.141,27.924z M69.282,115.563H57.153V66.386h-0.189L46.7,71.706l-2.057-9.611l13.914-7.188h10.725
			V115.563z M118.9,101.094h-6.064v14.469h-10.829v-14.469H81.198v-8.394l19.875-37.799h11.757v36.398h6.063v9.795H118.9z
			 M118.09,35.242c-4.043,0-7.317-3.275-7.317-7.312c0-4.037,3.274-7.312,7.317-7.312c4.037,0,7.312,3.275,7.312,7.312
			C125.401,31.961,122.127,35.242,118.09,35.242z M142.301,41.295c-4.043,0-7.317-3.275-7.317-7.312s3.274-7.312,7.317-7.312
			c4.037,0,7.312,3.274,7.312,7.312C149.612,38.014,146.338,41.295,142.301,41.295z"/>
	</g>
</g>
<g>
</g>
<g>
</g>
<g>
</g>
<g>
</g>
<g>
</g>
<g>
</g>
<g>
</g>
<g>
</g>
<g>
</g>
<g>
</g>
<g>
</g>
<g>
</g>
<g>
</g>
<g>
</g>
<g>
</g>
</svg>
