<?xml version="1.0" ?>
<!DOCTYPE svg
  PUBLIC '-//W3C//DTD SVG 1.1//EN'
  'http://www.w3.org/Graphics/SVG/1.1/DTD/svg11.dtd'>
<svg enable_background="new 0 0 1000 743" height="743px" pretty_print="True" style="stroke-linejoin: round; stroke:#000; fill: none;" version="1.1" viewBox="0 0 1000 743" width="1000px" xmlns="http://www.w3.org/2000/svg" xmlns:xlink="http://www.w3.org/1999/xlink">
utf-8<defs>
utf-8utf-8<style type="text/css">
<![CDATA[path { fill-rule: evenodd; }]]>utf-8utf-8</style>
utf-8</defs>
utf-8<metadata>
utf-8utf-8<views>
utf-8utf-8utf-8<view h="743.187721646" padding="0" w="1000">
utf-8utf-8utf-8utf-8<proj flip="auto" id="robinson" lon0="1.5093259138"/>
utf-8utf-8utf-8utf-8<bbox h="3.58" w="4.83" x="18.94" y="-715.26"/>
utf-8utf-8utf-8</view>
utf-8utf-8</views>
utf-8</metadata>
utf-8<g class="" id="provinces">
utf-8utf-8<path d="M282.5,525.9L315.6,508.4L338.1,473.5L354.5,446.0L368.9,428.5L399.8,401.0L418.2,373.5L383.0,373.5L349.9,386.0L310.6,393.5L269.3,418.5L226.0,441.0L230.3,471.0L232.5,490.9L243.1,523.4L259.8,538.4L282.5,525.9Z " data-id="AD.AN" data-name="Andorra la Vella" id="AD.AN"/>
utf-8utf-8<path d="M388.6,288.6L351.3,283.6L303.5,273.6L264.1,263.7L239.1,241.2L222.2,198.7L207.6,181.2L178.5,176.3L147.5,176.3L124.3,158.8L62.9,181.2L50.6,201.4L35.3,235.4L32.0,267.0L55.5,281.1L55.3,294.0L9.6,365.2L0.7,403.3L63.4,395.9L112.7,434.8L122.5,487.9L149.5,468.5L186.6,451.0L226.0,441.0L269.3,418.5L310.6,393.5L349.9,386.0L383.0,373.5L418.2,373.5L417.9,326.1L415.6,291.1L388.6,288.6Z " data-id="AD.MA" data-name="La Massana" id="AD.MA"/>
utf-8utf-8<path d="M124.3,158.8L147.5,176.3L178.5,176.3L207.6,181.2L222.2,198.7L239.1,241.2L264.1,263.7L303.5,273.6L351.3,283.6L388.6,288.6L415.6,291.1L421.5,251.2L439.9,218.7L468.7,193.7L506.0,183.7L534.9,173.8L534.7,143.8L530.4,92.1L378.6,0.0L336.0,2.8L254.4,30.6L166.3,26.5L124.3,158.8Z " data-id="AD.OR" data-name="Ordino" id="AD.OR"/>
utf-8utf-8<path d="M530.4,92.1L534.7,143.8L534.9,173.8L506.0,183.7L468.7,193.7L439.9,218.7L421.5,251.2L415.6,291.1L459.1,286.1L552.3,286.1L618.5,273.6L676.5,266.2L730.4,266.2L769.6,251.2L780.2,281.1L790.9,323.6L820.0,336.1L847.1,351.1L866.2,367.6L878.8,338.6L929.4,294.5L999.3,288.7L964.4,244.0L899.5,226.2L854.3,200.8L878.0,132.6L561.0,104.9L530.4,92.1Z " data-id="AD.CA" data-name="Canillo" id="AD.CA"/>
utf-8utf-8<path d="M415.6,291.1L417.9,326.1L418.2,373.5L453.5,371.0L474.3,381.0L482.8,411.0L520.2,428.5L563.7,421.0L621.8,426.0L655.0,441.0L690.5,468.5L699.8,509.5L707.6,512.3L714.9,522.7L748.1,533.4L781.8,533.1L812.8,520.2L839.1,492.2L848.5,408.4L866.2,367.6L847.1,351.1L820.0,336.1L790.9,323.6L780.2,281.1L769.6,251.2L730.4,266.2L676.5,266.2L618.5,273.6L552.3,286.1L459.1,286.1L415.6,291.1Z " data-id="AD.EN" data-name="Encamp" id="AD.EN"/>
utf-8utf-8<path d="M418.2,373.5L399.8,401.0L368.9,428.5L354.5,446.0L338.1,473.5L315.6,508.4L282.5,525.9L259.8,538.4L307.6,548.4L345.0,560.9L396.7,553.4L442.3,548.4L471.4,553.4L452.9,583.4L457.3,618.4L465.8,659.2L562.8,647.9L651.9,614.3L681.4,523.7L691.4,513.2L699.8,509.5L690.5,468.5L655.0,441.0L621.8,426.0L563.7,421.0L520.2,428.5L482.8,411.0L474.3,381.0L453.5,371.0L418.2,373.5Z " data-id="AD.EE" data-name="Escaldes-Engordany" id="AD.EE"/>
utf-8utf-8<path d="M465.8,659.2L457.3,618.4L452.9,583.4L471.4,553.4L442.3,548.4L396.7,553.4L345.0,560.9L307.6,548.4L259.8,538.4L243.1,523.4L232.5,490.9L230.3,471.0L226.0,441.0L186.6,451.0L149.5,468.5L122.5,487.9L67.7,523.2L51.9,526.8L4.8,546.0L85.9,657.8L86.2,699.9L118.3,721.1L287.4,741.2L310.1,738.4L342.3,722.5L359.7,703.4L371.7,684.1L387.2,668.3L465.8,659.2Z " data-id="AD.JL" data-name="Sant Julià de Lòria" id="AD.JL"/>
utf-8</g>
</svg>
