<?xml version="1.0" ?>
<!DOCTYPE svg
  PUBLIC '-//W3C//DTD SVG 1.1//EN'
  'http://www.w3.org/Graphics/SVG/1.1/DTD/svg11.dtd'>
<svg enable_background="new 0 0 1000 862" height="862px" pretty_print="True" style="stroke-linejoin: round; stroke:#000; fill: none;" version="1.1" viewBox="0 0 1000 862" width="1000px" xmlns="http://www.w3.org/2000/svg" xmlns:xlink="http://www.w3.org/1999/xlink">
utf-8<defs>
utf-8utf-8<style type="text/css">
<![CDATA[path { fill-rule: evenodd; }]]>utf-8utf-8</style>
utf-8</defs>
utf-8<metadata>
utf-8utf-8<views>
utf-8utf-8utf-8<view h="862.513913444" padding="0" w="1000">
utf-8utf-8utf-8utf-8<proj flip="auto" id="robinson" lon0="55.9739317834"/>
utf-8utf-8utf-8utf-8<bbox h="57.95" w="67.26" x="744.34" y="-437.26"/>
utf-8utf-8utf-8</view>
utf-8utf-8</views>
utf-8</metadata>
utf-8<g class="" id="provinces">
utf-8utf-8<path d="M923.8,211.8L921.9,215.3L919.0,217.8L917.5,221.3L919.0,225.0L922.1,228.2L924.4,232.7L923.4,234.9L920.0,247.0L920.9,257.1L921.9,259.6L926.4,267.1L928.3,272.4L928.3,274.9L928.9,275.0L935.1,278.8L938.3,286.2L941.3,297.2L947.2,301.3L960.1,312.7L974.0,311.8L974.1,311.8L977.1,310.2L985.0,309.2L988.7,307.2L995.0,299.8L994.9,299.7L993.7,297.0L989.7,294.1L979.1,292.7L977.0,291.9L975.0,290.0L973.6,287.2L973.4,282.2L974.1,276.2L973.0,273.2L969.4,266.3L964.4,259.0L964.2,256.1L966.5,254.6L965.2,251.1L963.0,245.3L962.9,242.4L963.7,226.6L963.0,221.0L961.3,215.8L961.3,214.1L962.4,213.2L968.4,212.5L970.9,211.4L970.7,210.5L970.5,204.3L975.9,201.3L977.7,198.6L975.2,194.1L974.4,190.0L968.5,191.2L965.7,186.5L958.6,184.5L954.6,186.4L952.0,189.6L952.6,191.3L956.0,191.6L959.9,194.0L962.8,193.8L960.1,199.4L957.0,201.9L956.1,205.4L956.3,209.1L952.4,213.2L950.2,213.6L943.7,212.1L941.6,212.1L935.2,213.3L931.9,212.3L923.8,211.8Z M860.5,102.8L866.5,108.1L872.1,109.9L873.4,111.8L881.4,131.9L884.9,146.8L886.8,149.9L895.8,159.1L897.4,161.4L897.6,163.9L896.1,167.7L896.6,169.8L902.9,175.4L908.1,181.3L912.1,186.7L914.3,180.1L915.1,172.1L918.0,170.8L922.8,173.0L924.6,174.4L927.8,178.3L929.3,179.1L940.1,182.4L942.4,182.7L947.0,180.1L948.3,178.2L951.5,177.0L952.0,175.1L951.0,170.0L949.9,168.4L944.0,167.8L941.1,163.9L941.2,163.3L946.2,156.2L947.5,151.8L946.0,148.3L942.8,144.3L939.7,142.8L935.7,145.6L921.4,146.9L916.2,145.1L911.7,131.2L911.5,129.3L909.8,124.2L911.8,119.2L918.9,118.6L921.1,117.2L925.6,111.2L930.0,107.9L931.4,108.5L936.2,108.6L944.8,106.0L947.5,103.9L947.1,103.7L945.5,100.7L943.3,89.6L943.0,85.3L945.0,82.7L947.5,80.4L948.6,77.2L947.3,74.1L941.5,67.0L940.1,62.8L940.7,59.1L944.1,52.9L945.1,49.4L943.5,27.0L944.0,19.6L944.0,15.0L942.3,9.9L937.8,0.3L935.3,0.0L924.9,3.0L920.0,3.4L919.3,5.6L917.3,21.4L913.9,32.0L909.5,41.9L911.4,41.0L914.4,35.2L915.9,35.2L915.5,39.8L911.7,48.8L903.8,57.8L902.7,60.0L902.7,64.7L901.5,71.7L901.5,75.5L898.1,74.3L899.8,70.0L900.6,64.9L901.6,62.6L896.4,67.9L886.5,83.5L879.6,90.0L869.5,95.4L865.0,96.6L862.9,98.5L860.5,102.8Z " data-id="AE.RK" data-name="Ras Al Khaymah" id="AE.RK"/>
utf-8utf-8<path d="M902.9,175.4L896.6,169.8L896.1,167.7L897.6,163.9L897.4,161.4L895.8,159.1L886.8,149.9L884.9,146.8L881.4,131.9L873.4,111.8L872.1,109.9L866.5,108.1L860.5,102.8L858.3,106.7L851.3,109.7L848.2,112.5L843.2,118.9L841.7,122.6L839.5,132.3L838.4,134.2L833.9,135.1L829.5,136.6L825.3,137.4L821.9,135.9L820.2,132.7L821.3,129.6L823.2,126.3L824.6,122.2L821.1,123.7L818.3,127.7L816.5,132.7L816.0,136.9L815.2,140.0L830.9,149.5L838.0,155.3L840.8,157.2L856.6,163.6L860.9,166.6L871.9,176.0L874.9,179.2L876.9,182.2L879.0,188.7L881.8,194.0L885.3,197.9L887.4,198.7L893.2,198.8L896.0,198.1L899.9,196.1L902.9,195.1L905.4,193.4L906.0,192.0L904.7,185.8L903.3,182.6L904.1,181.2L908.1,181.3L902.9,175.4Z " data-id="AE.UQ" data-name="Umm Al Qaywayn" id="AE.UQ"/>
utf-8utf-8<path d="M994.0,289.4L990.5,289.1L989.7,294.1L993.7,297.0L994.9,299.7L995.0,299.8L996.0,298.6L1000.0,295.3L1000.0,290.6L994.0,289.4Z M999.3,201.5L993.7,204.8L988.9,206.6L986.7,208.9L980.9,213.7L977.6,215.3L974.1,214.3L971.3,212.9L970.9,211.4L968.4,212.5L962.4,213.2L961.3,214.1L961.3,215.8L963.0,221.0L963.7,226.6L962.9,242.4L963.0,245.3L965.2,251.1L966.5,254.6L969.2,255.3L970.6,256.4L987.7,273.7L992.3,283.1L994.5,280.0L995.5,273.1L997.6,270.0L997.7,262.8L995.5,259.0L991.8,249.4L991.8,248.4L1000.0,249.0L1000.0,193.9L999.6,194.6L999.3,201.5Z M947.5,103.9L944.8,106.0L936.2,108.6L931.4,108.5L930.0,107.9L925.6,111.2L921.1,117.2L918.9,118.6L911.8,119.2L909.8,124.2L911.5,129.3L911.7,131.2L916.2,145.1L921.4,146.9L935.7,145.6L939.7,142.8L942.8,144.3L946.0,148.3L947.5,151.8L946.2,156.2L941.2,163.3L941.1,163.9L944.0,167.8L949.9,168.4L951.0,170.0L952.0,175.1L951.5,177.0L948.3,178.2L947.0,180.1L942.4,182.7L940.1,182.4L929.3,179.1L927.8,178.3L924.6,174.4L922.8,173.0L920.3,185.2L923.4,186.8L924.7,187.7L925.2,188.4L925.3,192.8L920.4,197.6L923.6,205.1L923.8,206.5L923.8,211.8L931.9,212.3L935.2,213.3L941.6,212.1L943.7,212.1L950.2,213.6L952.4,213.2L956.3,209.1L956.1,205.4L957.0,201.9L960.1,199.4L962.8,193.8L959.9,194.0L956.0,191.6L952.6,191.3L952.0,189.6L954.6,186.4L958.6,184.5L965.7,186.5L968.5,191.2L974.4,190.0L979.6,185.4L981.4,178.4L983.4,176.4L990.8,171.3L998.5,162.9L999.4,162.4L998.9,159.9L997.6,136.9L991.1,120.1L989.0,117.2L985.4,116.4L980.2,114.3L966.8,114.2L963.5,114.9L960.0,113.9L958.3,112.1L955.6,107.0L953.5,105.4L948.4,104.4L947.5,103.9Z " data-id="AE.FU" data-name="Fujayrah" id="AE.FU"/>
utf-8utf-8<path d="M920.3,185.2L918.7,186.5L917.0,190.1L917.0,191.5L920.4,197.6L925.3,192.8L925.2,188.4L924.7,187.7L923.4,186.8L920.3,185.2Z M810.8,155.8L808.9,165.0L807.2,163.3L806.6,166.4L805.5,168.3L804.3,168.1L803.0,165.0L801.7,165.0L799.1,169.6L804.4,173.0L811.2,175.5L818.8,177.3L837.0,178.3L839.5,176.9L841.1,173.3L843.0,164.9L839.6,162.8L826.5,160.3L824.0,159.3L818.2,156.0L814.7,155.2L811.8,153.2L810.8,155.8Z " data-id="AE.AJ" data-name="Ajman" id="AE.AJ"/>
utf-8utf-8<path d="M992.3,283.1L987.7,273.7L970.6,256.4L969.2,255.3L966.5,254.6L964.2,256.1L964.4,259.0L969.4,266.3L973.0,273.2L974.1,276.2L973.4,282.2L973.6,287.2L975.0,290.0L977.0,291.9L979.1,292.7L989.7,294.1L990.5,289.1L994.0,289.4L992.8,285.4L992.3,283.1Z M998.0,284.1L1000.0,284.9L1000.0,249.0L991.8,248.4L991.8,249.4L995.5,259.0L997.7,262.8L997.6,270.0L995.5,273.1L994.5,280.0L998.0,284.1Z M986.5,204.2L987.2,200.1L983.8,197.8L981.9,197.8L980.9,199.1L982.4,205.8L986.5,204.2Z M999.4,162.4L998.5,162.9L990.8,171.3L983.4,176.4L981.4,178.4L979.6,185.4L986.2,186.3L990.9,192.8L999.6,194.6L1000.0,193.9L1000.0,176.5L1000.0,172.9L1000.0,165.1L999.4,162.4L999.4,162.4Z M815.0,141.1L812.7,145.0L811.6,148.1L814.5,149.6L812.4,151.7L811.8,153.2L814.7,155.2L818.2,156.0L824.0,159.3L826.5,160.3L839.6,162.8L843.0,164.9L841.1,173.3L839.5,176.9L837.0,178.3L818.8,177.3L811.2,175.5L804.4,173.0L799.1,169.6L796.0,175.0L792.1,178.9L789.7,177.0L787.4,178.5L786.4,181.0L786.6,184.0L787.9,187.2L784.6,187.0L782.9,187.8L780.1,191.4L780.6,191.8L791.9,195.0L797.9,194.6L804.8,191.9L806.7,191.5L810.7,196.2L812.7,198.0L820.1,202.2L825.6,207.1L842.0,218.0L845.8,221.8L848.9,226.9L858.1,254.3L858.3,255.9L856.3,260.4L852.4,265.2L853.7,273.8L858.2,281.9L861.4,289.0L865.1,307.2L868.6,317.6L870.5,325.4L871.0,329.7L870.8,337.6L869.9,340.5L887.1,345.0L895.8,344.9L897.9,344.4L898.0,344.4L896.6,341.7L895.6,337.1L895.6,327.8L895.1,323.2L891.3,304.0L892.8,296.3L898.3,287.6L904.6,280.8L911.6,275.8L919.5,273.5L928.3,274.9L928.3,272.4L926.4,267.1L921.9,259.6L920.9,257.1L920.0,247.0L923.4,234.9L924.4,232.7L922.1,228.2L919.0,225.0L917.5,221.3L919.0,217.8L921.9,215.3L923.8,211.8L923.8,206.5L923.6,205.1L920.4,197.6L917.0,191.5L917.0,190.1L918.7,186.5L920.3,185.2L922.8,173.0L918.0,170.8L915.1,172.1L914.3,180.1L912.1,186.7L908.1,181.3L904.1,181.2L903.3,182.6L904.7,185.8L906.0,192.0L905.4,193.4L902.9,195.1L899.9,196.1L896.0,198.1L893.2,198.8L887.4,198.7L885.3,197.9L881.8,194.0L879.0,188.7L876.9,182.2L874.9,179.2L871.9,176.0L860.9,166.6L856.6,163.6L840.8,157.2L838.0,155.3L830.9,149.5L815.2,140.0L815.0,141.1Z " data-id="AE.SH" data-name="Sharjah" id="AE.SH"/>
utf-8utf-8<path d="M99.1,462.2L100.2,458.6L100.1,455.9L97.9,452.9L95.5,454.1L94.6,458.1L94.8,460.7L94.0,462.5L97.1,464.6L99.1,462.2Z M494.3,458.6L493.2,457.5L490.1,448.6L488.6,451.2L486.3,452.7L480.7,455.4L476.0,459.8L474.6,460.5L469.7,458.7L465.2,459.5L461.8,461.7L458.1,465.6L450.9,468.9L448.3,470.7L445.3,474.3L445.6,476.2L448.1,477.1L457.8,478.0L464.0,481.0L470.6,483.8L477.8,484.7L484.7,483.2L490.1,479.2L488.4,477.6L490.2,472.9L492.8,473.7L494.8,476.9L494.5,479.2L501.1,481.9L508.9,482.3L515.2,479.8L517.6,474.1L514.7,467.0L508.5,464.4L501.0,462.8L494.3,458.6Z M565.8,454.0L563.0,448.0L553.9,438.4L550.8,435.7L546.3,437.7L546.9,449.4L551.8,452.2L557.4,453.9L562.2,456.0L564.7,460.5L565.8,454.0Z M575.6,446.5L580.6,441.6L575.3,435.7L572.8,432.2L570.5,428.0L567.4,427.9L564.5,429.0L562.1,430.8L560.7,433.1L560.0,437.0L561.0,438.6L566.0,441.6L570.1,446.2L575.6,446.5Z M224.6,450.3L228.2,446.4L232.2,440.0L232.3,436.1L230.5,429.7L227.8,425.8L222.6,424.1L217.8,427.3L215.5,431.4L212.4,435.7L212.4,440.6L215.6,446.6L218.3,450.8L221.4,454.0L224.6,450.3Z M592.4,426.4L590.2,424.2L585.3,420.9L582.6,421.3L583.5,423.6L586.9,426.1L587.6,427.4L580.3,426.3L581.0,428.0L588.0,438.9L591.3,437.1L592.9,429.8L592.4,426.4Z M398.7,435.2L401.2,432.1L394.4,414.2L390.9,417.1L385.6,432.2L385.9,437.6L384.1,438.6L381.9,437.3L379.4,433.4L377.5,433.4L367.0,438.3L364.9,440.3L359.6,442.9L357.5,443.5L349.3,441.6L347.6,445.6L347.6,447.0L349.6,448.1L354.0,447.1L365.4,448.9L367.2,445.2L371.3,447.4L374.4,447.7L377.8,451.6L379.3,447.9L379.1,445.2L381.9,442.8L387.0,442.0L390.7,439.3L398.7,435.2Z M619.9,411.2L619.4,408.4L615.1,404.2L606.7,399.8L602.6,396.6L600.6,392.1L601.6,386.9L600.1,386.9L597.6,391.6L590.1,404.2L611.3,411.1L617.0,412.3L619.9,411.2Z M159.1,397.3L161.4,392.1L159.4,386.2L154.1,382.7L151.9,384.2L148.9,389.9L149.5,393.3L153.3,396.8L156.6,398.6L159.1,397.3Z M29.7,367.7L24.5,367.1L25.0,369.5L26.9,369.0L28.0,370.4L27.6,371.9L28.2,375.3L29.4,376.3L30.8,369.9L29.7,367.7Z M311.6,299.4L310.4,295.1L306.4,294.5L306.0,296.3L307.4,299.5L311.3,304.4L311.6,299.4Z M898.0,344.4L897.9,344.4L895.8,344.9L887.1,345.0L869.9,340.5L865.3,343.9L842.8,354.2L829.3,363.0L823.1,365.5L817.2,366.9L772.1,368.8L767.6,368.3L763.3,366.9L760.3,363.2L757.6,358.4L722.9,278.0L718.1,276.4L713.0,278.2L709.0,281.3L703.2,287.6L693.5,295.7L671.7,310.2L675.1,314.1L674.3,317.4L671.5,319.7L661.1,316.8L658.3,322.2L650.6,328.2L648.8,330.6L648.6,334.6L652.1,337.4L651.2,339.2L654.6,348.1L656.6,349.6L656.8,351.1L653.0,353.1L652.1,356.6L651.8,360.0L649.7,361.5L646.2,362.3L645.6,364.3L647.4,366.5L651.1,368.2L644.8,385.3L639.8,390.3L635.1,388.7L632.6,388.6L637.4,392.1L632.4,392.9L626.7,388.7L621.9,382.0L619.5,375.1L618.1,375.1L615.7,379.0L615.2,381.2L616.0,383.8L614.1,382.1L612.6,378.4L610.7,381.1L608.3,383.0L605.8,383.8L605.9,385.3L611.0,386.6L624.5,395.5L630.4,396.8L636.1,397.1L640.3,399.2L641.6,405.7L640.3,405.7L638.0,403.1L627.9,398.9L628.9,401.9L633.0,406.2L634.6,409.3L631.5,408.7L625.9,406.1L622.6,405.7L625.9,409.3L622.6,411.2L622.2,414.1L624.0,420.3L617.3,438.3L613.9,444.3L606.5,450.9L605.2,453.7L596.1,449.9L592.0,449.7L590.6,452.8L588.7,453.1L578.2,462.0L564.5,466.4L562.5,468.2L561.4,472.0L558.3,475.9L552.1,481.0L549.9,481.8L543.5,482.7L538.1,485.6L533.7,486.5L529.6,488.9L516.3,491.2L503.9,498.8L501.7,500.9L496.4,501.6L470.3,501.5L463.8,499.5L460.8,501.6L454.5,505.0L448.4,502.9L444.9,504.9L438.3,505.0L436.7,503.5L433.5,499.0L428.0,496.1L423.9,493.0L421.5,494.3L418.4,494.5L415.2,493.7L412.8,492.1L409.6,488.6L407.6,487.2L405.7,487.2L378.8,493.2L366.9,492.5L365.0,491.1L361.6,486.0L357.7,481.8L352.1,477.4L346.2,474.7L341.4,475.8L342.7,481.8L343.8,484.1L346.9,486.0L343.3,486.9L339.1,484.5L334.5,482.7L326.3,486.7L322.2,484.7L315.4,479.2L310.8,475.8L309.5,479.2L302.2,482.3L300.2,482.7L281.8,481.0L276.7,479.2L272.0,479.9L267.6,482.2L265.0,482.7L260.2,482.1L251.2,479.3L246.3,479.2L243.1,482.0L240.6,481.0L231.9,469.8L228.2,466.3L224.2,464.9L220.2,467.4L219.9,470.4L220.3,475.0L220.0,479.2L217.8,481.0L215.0,481.9L211.4,484.2L208.0,487.2L205.4,490.3L202.5,493.0L196.3,496.0L194.1,501.5L190.9,504.0L186.9,505.8L180.5,507.6L173.3,515.2L170.5,516.1L163.7,516.2L160.1,516.7L152.4,522.2L149.0,523.6L137.6,523.7L134.4,525.4L132.1,524.1L130.1,525.4L126.2,524.3L117.3,526.1L115.6,526.2L108.6,522.8L105.7,520.1L102.7,520.1L90.4,519.3L85.8,520.1L86.5,522.8L87.9,524.8L85.8,525.9L83.7,524.5L79.7,520.7L75.1,518.6L64.6,518.3L59.4,516.9L56.8,512.5L56.1,510.1L53.7,505.0L53.0,502.3L52.4,493.9L51.9,491.2L48.2,478.9L47.4,473.2L48.1,457.2L47.0,451.8L41.9,444.7L38.2,447.9L35.1,458.6L34.8,461.5L33.0,462.0L28.3,458.6L25.4,450.9L23.7,447.8L22.7,459.1L20.0,462.6L16.7,460.6L14.5,451.8L13.2,437.4L11.8,432.6L6.6,425.4L4.3,421.2L0.6,426.3L5.2,435.2L6.0,446.2L2.1,453.3L4.3,462.8L5.8,485.2L7.6,491.7L11.3,497.6L100.5,607.1L150.8,668.9L238.9,777.4L243.5,781.4L249.0,783.3L344.4,796.7L495.8,818.0L677.4,843.6L798.0,860.5L801.2,859.9L813.7,839.9L812.8,803.6L808.2,759.9L812.7,735.9L829.7,697.6L833.0,682.4L835.2,657.6L836.8,649.3L847.4,633.4L849.9,628.6L854.1,597.7L855.6,593.5L864.1,577.7L864.7,574.4L862.2,555.5L860.5,548.3L856.6,542.8L848.3,537.9L844.4,534.4L842.1,529.9L842.6,526.3L851.6,524.4L860.4,520.7L870.2,514.6L875.9,512.1L881.8,510.9L889.0,511.0L896.1,512.3L899.4,512.2L902.8,510.8L906.6,510.1L912.6,514.7L916.6,515.2L940.5,504.3L953.8,500.8L955.7,496.8L946.3,481.6L942.7,471.0L938.4,462.1L931.7,459.2L920.2,464.4L916.6,464.2L902.8,461.1L900.1,459.7L899.4,455.9L900.7,451.6L907.5,435.8L908.5,432.2L908.0,420.1L907.3,418.0L905.5,415.8L900.9,412.7L899.3,411.0L898.2,407.2L893.6,383.2L892.8,377.9L894.6,374.5L897.3,371.0L897.7,362.7L903.1,356.8L901.9,352.0L898.0,344.4Z M262.3,230.4L259.7,228.0L260.4,232.7L263.1,234.4L262.3,230.4Z M547.9,207.2L543.4,205.8L541.1,210.1L545.0,214.5L547.8,214.5L550.7,215.9L547.9,207.2Z " data-id="AE.AZ" data-name="Abu Dhabi" id="AE.AZ"/>
utf-8utf-8<path d="M974.1,311.8L974.0,311.8L960.1,312.7L956.4,324.8L955.5,329.8L956.5,335.3L961.1,335.1L965.0,333.9L966.7,331.3L967.5,327.0L971.5,321.1L974.0,311.8L974.1,311.8Z M731.1,257.3L731.4,258.1L728.0,261.2L728.1,262.1L732.0,259.3L731.1,257.3Z M743.5,244.5L743.7,245.2L746.6,244.9L743.5,244.5Z M750.6,240.9L750.6,240.2L749.8,241.6L750.6,240.9Z M745.0,238.9L743.2,242.4L745.2,240.1L745.4,243.3L747.7,242.6L749.2,243.8L750.1,243.1L748.5,239.4L745.0,238.9Z M750.0,239.8L749.3,236.3L748.7,235.5L750.0,239.8Z M747.3,234.6L743.1,234.9L743.3,235.6L747.3,234.6Z M752.2,220.6L751.8,220.4L751.7,220.6L752.2,220.6Z M752.4,222.3L754.9,220.7L752.8,221.9L752.4,222.3Z M753.5,220.8L753.8,220.8L753.6,220.4L753.5,220.8Z M753.0,221.2L753.5,219.8L753.1,219.7L753.0,221.2Z M750.8,219.7L750.7,219.3L750.4,219.5L750.8,219.7Z M747.3,219.4L746.9,219.1L747.0,219.4L747.3,219.4Z M751.3,219.6L751.2,219.3L750.9,219.0L751.3,219.6Z M748.0,219.2L747.8,219.0L747.5,219.0L748.0,219.2Z M746.6,219.4L746.0,218.9L745.9,218.9L746.6,219.4Z M751.3,219.0L751.1,218.8L751.0,218.9L751.3,219.0Z M745.8,218.9L745.7,218.8L745.2,218.7L745.8,218.9Z M749.4,219.0L749.2,218.6L749.1,218.8L749.4,219.0Z M750.5,218.8L750.8,218.5L750.3,218.4L750.5,218.8Z M750.0,218.6L750.1,218.6L749.7,218.1L750.0,218.6Z M751.1,218.4L750.9,218.0L750.8,218.0L751.1,218.4Z M745.5,218.4L745.7,217.9L745.5,217.9L745.5,218.4Z M749.0,218.5L749.1,218.1L749.0,217.9L749.0,218.5Z M748.4,218.1L748.5,217.7L748.3,217.9L748.4,218.1Z M749.4,218.1L749.6,217.7L749.3,218.1L749.4,218.1Z M748.9,217.6L748.8,217.4L748.7,217.6L748.9,217.6Z M749.9,217.8L750.2,217.6L750.0,217.4L749.9,217.8Z M750.7,217.7L750.4,217.1L750.3,217.4L750.7,217.7Z M746.2,217.4L746.2,217.2L746.0,217.1L746.2,217.4Z M747.4,217.8L747.5,217.7L747.2,217.5L747.4,217.8Z M746.6,217.2L746.7,217.1L746.3,217.0L746.6,217.2Z M745.4,217.3L745.4,216.8L745.3,216.8L745.4,217.3Z M747.4,216.8L747.0,216.7L747.0,216.8L747.4,216.8Z M744.9,216.6L744.8,216.3L744.4,216.3L744.9,216.6Z M750.9,216.3L750.7,216.0L750.6,216.2L750.9,216.3Z M746.9,215.9L746.4,215.8L746.9,216.2L746.9,215.9Z M752.6,216.1L752.3,216.0L752.9,216.5L752.6,216.1Z M745.6,216.1L745.8,215.7L745.6,215.8L745.6,216.1Z M752.1,215.9L751.6,215.7L751.5,215.9L752.1,215.9Z M753.4,216.1L753.2,215.7L753.1,216.0L753.4,216.1Z M750.4,215.9L750.5,215.6L750.1,215.7L750.4,215.9Z M751.3,215.9L751.3,215.6L750.9,215.8L751.3,215.9Z M745.8,215.5L745.6,215.3L745.5,215.4L745.8,215.5Z M745.2,215.7L745.2,215.2L744.8,215.5L745.2,215.7Z M744.7,215.4L744.3,215.2L744.3,215.4L744.7,215.4Z M749.9,215.8L749.7,215.1L749.5,215.3L749.9,215.8Z M752.5,215.4L752.4,215.0L752.0,215.2L752.5,215.4Z M750.5,215.0L750.2,215.2L750.9,215.1L750.5,215.0Z M752.8,214.8L752.5,214.7L752.5,214.8L752.8,214.8Z M750.0,215.0L750.2,215.0L750.1,214.6L750.0,215.0Z M755.9,215.7L756.2,214.7L756.0,215.0L755.9,215.7Z M749.3,214.7L749.1,214.3L748.9,214.4L749.3,214.7Z M753.9,214.9L753.7,214.3L753.5,214.6L753.9,214.9Z M750.8,214.5L750.6,214.2L750.6,214.4L750.8,214.5Z M744.3,214.6L744.5,214.1L744.3,214.2L744.3,214.6Z M752.4,214.3L752.1,214.2L752.2,214.4L752.4,214.3Z M751.3,214.5L751.1,214.1L751.1,214.3L751.3,214.5Z M748.3,214.2L747.9,214.1L748.1,214.3L748.3,214.2Z M746.5,214.3L746.4,213.8L746.2,213.9L746.5,214.3Z M745.1,214.1L744.8,213.8L744.7,213.9L745.1,214.1Z M749.3,214.1L749.1,213.7L748.8,213.8L749.3,214.1Z M751.0,214.1L750.9,213.8L750.8,214.0L751.0,214.1Z M750.0,213.8L749.9,213.5L749.8,213.5L750.0,213.8Z M744.4,213.7L744.5,213.4L744.1,213.5L744.4,213.7Z M753.4,213.6L753.1,213.3L753.0,213.4L753.4,213.6Z M744.2,217.3L742.8,213.2L742.7,215.5L744.2,217.3Z M745.6,213.5L745.7,213.2L745.5,213.2L745.6,213.5Z M753.8,213.4L753.6,213.1L753.5,213.2L753.8,213.4Z M749.4,213.3L749.2,213.1L749.1,213.3L749.4,213.3Z M750.8,213.3L750.7,213.0L750.5,213.0L750.8,213.3Z M751.9,213.3L752.0,213.0L751.9,213.0L751.9,213.3Z M751.1,213.3L751.2,213.0L751.0,213.0L751.1,213.3Z M750.4,213.2L750.2,212.9L750.3,213.2L750.4,213.2Z M748.6,213.2L748.7,212.7L748.5,212.7L748.6,213.2Z M756.1,218.8L757.2,216.7L757.2,216.1L756.1,218.8Z M744.2,213.0L744.1,212.6L743.9,213.0L744.2,213.0Z M750.9,212.7L750.7,212.4L750.6,212.5L750.9,212.7Z M752.0,212.5L751.3,212.5L751.1,212.5L752.0,212.5Z M749.4,212.1L749.2,212.0L749.4,212.3L749.4,212.1Z M747.9,212.7L747.6,212.0L747.6,212.4L747.9,212.7Z M750.0,212.4L750.0,212.0L749.8,212.0L750.0,212.4Z M753.1,212.4L753.1,212.1L753.0,212.0L753.1,212.4Z M744.4,212.1L744.4,211.8L744.2,211.8L744.4,212.1Z M751.1,212.1L750.8,211.9L750.7,212.0L751.1,212.1Z M753.9,212.1L754.0,211.8L753.7,211.9L753.9,212.1Z M743.6,212.2L743.8,211.8L743.7,211.7L743.6,212.2Z M751.8,211.9L751.5,211.6L751.6,212.1L751.8,211.9Z M752.6,211.9L752.3,211.8L752.6,212.0L752.6,211.9Z M748.2,211.5L748.2,211.3L748.0,211.3L748.2,211.5Z M744.6,211.6L744.7,211.3L744.3,211.4L744.6,211.6Z M751.0,211.5L750.7,211.2L750.7,211.4L751.0,211.5Z M747.7,211.4L747.4,211.3L747.4,211.5L747.7,211.4Z M750.3,211.4L750.2,211.0L750.1,211.0L750.3,211.4Z M752.0,211.3L752.2,211.2L751.7,211.0L752.0,211.3Z M752.7,211.1L752.6,210.9L752.3,211.0L752.7,211.1Z M749.9,210.8L750.0,210.5L749.5,210.7L749.9,210.8Z M752.9,210.6L752.5,210.4L752.5,210.6L752.9,210.6Z M750.7,210.7L750.9,210.5L750.4,210.5L750.7,210.7Z M752.3,210.6L752.2,210.3L752.0,210.7L752.3,210.6Z M749.5,210.6L749.2,210.2L749.1,210.3L749.5,210.6Z M751.3,210.5L751.7,210.3L751.1,210.3L751.3,210.5Z M753.4,210.5L753.2,210.2L753.1,210.5L753.4,210.5Z M748.6,211.1L749.0,210.2L748.5,210.2L748.6,211.1Z M748.1,210.3L748.1,210.2L747.9,210.1L748.1,210.3Z M753.0,210.0L752.5,210.0L752.5,210.1L753.0,210.0Z M749.7,210.0L750.1,210.3L750.2,210.1L749.7,210.0Z M752.9,209.7L752.5,209.7L753.0,209.8L752.9,209.7Z M753.6,209.7L753.3,209.5L753.3,209.6L753.6,209.7Z M750.0,209.5L750.0,209.6L751.0,210.1L750.0,209.5Z M749.2,209.9L749.3,209.4L749.1,209.8L749.2,209.9Z M752.2,209.9L752.1,209.3L751.9,209.2L752.2,209.9Z M750.9,209.4L751.1,209.2L750.9,209.1L750.9,209.4Z M747.6,210.0L747.6,209.1L747.4,209.6L747.6,210.0Z M751.9,209.0L751.6,208.9L751.4,209.0L751.9,209.0Z M750.3,209.0L750.0,208.8L750.0,209.0L750.3,209.0Z M751.0,208.8L750.6,208.8L750.9,208.9L751.0,208.8Z M748.8,208.8L748.6,208.5L748.5,208.6L748.8,208.8Z M750.1,208.5L750.0,208.2L749.8,208.3L750.1,208.5Z M751.0,208.4L751.1,208.2L750.8,208.3L751.0,208.4Z M752.2,208.3L751.9,208.1L751.7,208.3L752.2,208.3Z M753.1,208.7L753.2,208.3L752.9,208.0L753.1,208.7Z M748.2,208.6L747.8,207.9L747.7,208.7L748.2,208.6Z M752.5,207.9L752.1,207.6L752.3,208.0L752.5,207.9Z M755.3,207.8L755.1,208.5L755.3,208.5L755.3,207.8Z M751.4,207.7L751.1,207.5L751.1,207.7L751.4,207.7Z M749.7,207.9L748.7,208.1L748.8,208.4L749.7,207.9Z M750.7,207.7L750.7,207.5L750.6,207.8L750.7,207.7Z M752.5,207.5L752.3,207.3L752.2,207.3L752.5,207.5Z M750.9,207.2L750.4,207.0L750.5,207.1L750.9,207.2Z M752.2,207.2L752.3,206.9L752.0,206.9L752.2,207.2Z M743.3,221.7L741.1,217.5L741.0,217.4L743.3,221.7Z M757.7,212.3L757.7,210.9L756.6,207.8L757.7,212.3Z M749.8,206.5L749.2,206.1L749.1,206.5L749.8,206.5Z M750.7,203.7L747.7,204.5L750.1,203.8L750.7,203.7Z M777.2,195.2L776.3,197.4L777.1,199.4L782.3,207.8L784.5,213.3L783.8,217.7L778.1,219.7L780.4,215.1L780.9,211.8L779.5,208.4L775.8,203.5L772.3,203.0L768.6,206.9L769.2,210.3L768.5,214.3L749.8,243.8L735.9,263.7L734.8,262.9L727.9,264.5L729.6,269.6L723.8,270.7L724.0,264.0L721.2,261.3L718.0,260.5L720.5,261.8L723.2,264.4L723.7,269.4L723.0,272.6L721.7,274.6L718.4,268.3L718.8,265.5L717.6,265.4L718.9,263.9L717.6,263.1L713.2,264.9L715.8,266.4L712.4,268.0L715.6,267.7L715.1,270.3L717.1,271.1L717.6,269.5L721.1,274.9L719.1,275.9L713.7,273.6L710.8,270.3L710.5,267.5L711.4,264.6L716.2,261.2L713.9,260.5L712.0,261.9L709.7,267.4L711.0,271.7L710.5,272.3L713.6,275.0L715.1,274.9L718.1,276.3L718.1,276.4L722.9,278.0L757.6,358.4L760.3,363.2L763.3,366.9L767.6,368.3L772.1,368.8L817.2,366.9L823.1,365.5L829.3,363.0L842.8,354.2L865.3,343.9L869.9,340.5L870.8,337.6L871.0,329.7L870.5,325.4L868.6,317.6L865.1,307.2L861.4,289.0L858.2,281.9L853.7,273.8L852.4,265.2L856.3,260.4L858.3,255.9L858.1,254.3L848.9,226.9L845.8,221.8L842.0,218.0L825.6,207.1L820.1,202.2L812.7,198.0L810.7,196.2L806.7,191.5L804.8,191.9L797.9,194.6L791.9,195.0L780.6,191.8L780.1,191.4L777.2,195.2Z " data-id="AE.DU" data-name="Dubay" id="AE.DU"/>
utf-8</g>
</svg>
