<?xml version="1.0" ?>
<!DOCTYPE svg
  PUBLIC '-//W3C//DTD SVG 1.1//EN'
  'http://www.w3.org/Graphics/SVG/1.1/DTD/svg11.dtd'>
<svg enable_background="new 0 0 1000 815" height="815px" pretty_print="True" style="stroke-linejoin: round; stroke:#000; fill: none;" version="1.1" viewBox="0 0 1000 815" width="1000px" xmlns="http://www.w3.org/2000/svg" xmlns:xlink="http://www.w3.org/1999/xlink">
utf-8<defs>
utf-8utf-8<style type="text/css">
<![CDATA[path { fill-rule: evenodd; }]]>utf-8utf-8</style>
utf-8</defs>
utf-8<metadata>
utf-8utf-8<views>
utf-8utf-8utf-8<view h="815.334994813" padding="0" w="1000">
utf-8utf-8utf-8utf-8<proj flip="auto" id="robinson" lon0="63.6032226687"/>
utf-8utf-8utf-8utf-8<bbox h="153.34" w="188.3" x="847.62" y="-646.13"/>
utf-8utf-8utf-8</view>
utf-8utf-8</views>
utf-8</metadata>
utf-8<g class="" id="provinces">
utf-8utf-8<path d="M294.1,295.4L286.6,296.2L278.8,295.2L271.2,292.9L268.9,283.9L269.0,281.2L268.3,277.1L267.6,276.5L258.4,278.0L255.4,276.4L254.1,272.0L249.4,271.1L237.5,270.3L235.4,268.9L234.9,265.6L233.2,259.2L230.2,254.2L229.0,253.0L222.9,249.9L222.6,249.2L223.1,232.5L221.7,225.0L220.3,222.3L217.8,221.0L216.6,221.2L214.6,221.9L208.6,225.9L205.8,226.7L196.8,227.3L195.4,227.6L191.2,232.8L185.9,235.5L179.7,236.9L163.6,236.5L161.2,238.1L161.2,239.6L164.4,244.7L170.8,249.9L172.8,250.6L173.1,252.5L171.4,254.1L166.1,255.9L164.6,257.8L166.4,264.9L168.3,266.8L168.5,274.8L167.7,275.8L161.9,276.8L157.4,279.2L151.9,284.5L151.6,284.7L151.7,285.4L150.6,293.7L146.6,304.1L145.8,310.4L145.9,313.6L147.7,325.7L149.6,328.5L156.4,330.4L159.5,332.9L163.2,335.1L165.5,335.7L171.1,338.8L176.1,339.1L179.4,343.3L179.8,345.8L186.0,347.0L191.1,349.2L192.2,348.9L195.7,346.1L204.5,347.0L210.3,349.0L218.6,353.7L224.5,354.8L227.5,354.0L233.5,355.6L238.4,358.3L239.8,358.1L254.2,353.5L260.7,349.0L262.7,345.1L266.7,342.9L274.0,343.0L278.5,344.3L286.6,343.7L286.6,342.8L289.7,340.2L298.9,340.5L304.2,341.4L308.6,338.9L321.0,335.3L324.1,332.8L324.5,331.1L323.7,323.6L323.8,320.5L322.6,317.6L317.2,310.6L311.2,306.8L308.8,304.1L302.0,301.2L297.0,298.1L294.9,295.0L294.1,295.4Z " data-id="AF.BG" data-name="Badghis" id="AF.BG"/>
utf-8utf-8<path d="M43.3,447.4L47.6,447.9L52.2,449.7L62.5,451.9L67.6,452.3L80.4,451.4L82.1,452.1L85.8,451.4L88.7,447.4L93.7,447.2L102.3,449.0L107.9,449.5L113.1,450.6L114.0,454.6L113.2,455.6L113.7,461.2L113.4,463.1L109.7,468.0L118.3,478.2L117.9,480.1L111.5,487.8L111.1,489.3L108.4,491.9L108.3,493.3L109.4,500.8L112.4,502.8L116.9,503.0L123.3,508.4L125.6,509.2L128.8,505.4L133.7,502.0L134.7,502.5L136.8,509.0L139.4,512.2L141.0,512.4L145.5,509.3L149.1,508.0L155.1,507.3L161.3,503.8L162.3,500.1L161.7,494.4L165.1,490.9L170.7,487.5L176.3,488.9L180.0,488.2L186.0,482.2L191.0,482.1L196.8,479.9L205.8,479.3L207.4,477.3L208.2,469.7L208.7,468.0L211.1,465.6L212.2,464.6L211.4,463.0L208.7,455.2L206.7,453.1L204.6,447.8L203.7,447.2L204.3,444.5L206.9,442.2L211.8,440.2L214.4,437.9L222.3,435.6L229.3,434.9L232.7,433.0L233.0,429.2L231.3,426.2L232.3,423.7L236.2,422.2L235.2,419.5L230.3,412.9L226.5,408.7L223.1,406.1L221.6,403.3L217.0,397.3L216.8,395.4L219.8,388.9L221.1,385.0L221.2,379.9L233.2,379.3L243.2,381.0L247.3,383.8L248.6,384.2L258.1,384.4L260.0,381.9L263.7,383.7L269.6,382.8L270.4,381.6L273.8,379.6L274.0,378.2L269.8,364.2L270.2,361.5L271.1,361.1L275.4,361.5L277.3,361.1L279.6,359.4L281.2,359.3L285.1,357.6L286.1,358.9L289.7,360.3L290.4,359.8L287.5,353.8L287.0,351.4L286.6,343.7L278.5,344.3L274.0,343.0L266.7,342.9L262.7,345.1L260.7,349.0L254.2,353.5L239.8,358.1L238.4,358.3L233.5,355.6L227.5,354.0L224.5,354.8L218.6,353.7L210.3,349.0L204.5,347.0L195.7,346.1L192.2,348.9L191.1,349.2L186.0,347.0L179.8,345.8L179.4,343.3L176.1,339.1L171.1,338.8L165.5,335.7L163.2,335.1L159.5,332.9L156.4,330.4L149.6,328.5L147.7,325.7L145.9,313.6L145.8,310.4L146.6,304.1L150.6,293.7L151.7,285.4L151.6,284.7L147.4,286.9L143.5,291.8L138.6,294.1L136.8,294.3L134.4,293.4L125.5,288.8L123.5,288.9L121.6,291.1L116.4,300.9L115.4,301.5L111.6,296.0L111.0,292.3L108.6,287.7L107.3,286.6L100.5,283.4L91.4,276.0L86.7,273.5L82.4,273.5L74.1,276.6L69.8,276.9L59.5,275.4L54.2,273.4L50.0,269.6L44.3,265.2L41.6,264.3L37.5,259.4L37.1,257.6L31.2,258.4L34.0,264.8L34.0,266.6L31.3,275.9L30.2,278.0L30.0,280.9L31.3,285.5L31.1,287.1L26.5,288.3L25.6,291.1L27.4,296.0L26.9,297.7L30.8,304.2L31.8,305.0L30.6,312.5L29.5,321.3L30.7,324.7L31.0,330.9L28.9,331.6L27.8,335.7L24.8,339.1L26.0,345.7L25.5,346.7L21.8,347.6L18.6,352.8L17.3,353.7L11.6,354.8L10.0,355.8L9.3,357.6L11.4,358.7L15.2,362.3L18.8,366.5L25.8,373.7L27.0,375.3L8.9,376.4L9.7,378.4L8.8,379.6L5.7,381.5L1.9,387.2L0.6,391.4L3.7,404.4L8.5,418.0L9.0,421.5L7.7,426.7L7.7,429.6L10.8,436.2L16.3,440.7L22.8,443.2L28.8,443.6L34.2,443.3L39.7,444.2L43.4,447.2L43.3,447.4Z " data-id="AF.HR" data-name="Hirat" id="AF.HR"/>
utf-8utf-8<path d="M532.1,274.0L517.6,272.8L513.9,274.1L501.9,271.8L495.7,272.8L488.4,276.1L485.3,275.2L480.9,274.8L474.6,277.5L469.2,279.0L463.2,281.9L461.3,282.4L453.8,282.4L451.7,282.0L447.3,280.4L445.4,280.8L442.1,286.0L438.6,295.9L437.1,296.0L430.8,298.6L429.3,298.7L418.4,297.5L416.2,298.7L415.6,303.9L417.8,307.0L418.4,318.0L421.0,321.6L421.7,321.9L425.3,322.6L427.5,323.6L434.7,328.2L439.5,332.3L441.8,336.5L446.7,340.5L446.4,341.2L451.9,342.8L454.8,344.4L457.3,346.8L458.1,348.8L456.8,351.5L455.0,353.5L456.1,358.1L457.8,360.3L452.7,365.1L450.2,364.4L445.1,365.9L441.3,369.0L440.3,370.9L442.0,373.6L444.7,373.7L449.9,377.0L447.5,379.1L447.0,380.5L449.9,388.2L448.9,392.1L451.1,399.8L456.3,403.9L461.0,406.2L470.8,403.5L484.5,406.2L487.0,408.2L491.1,409.3L494.7,406.7L498.2,406.4L499.6,407.8L501.1,405.6L511.3,401.9L512.0,400.6L512.6,397.0L512.8,396.4L513.1,395.0L513.8,393.8L516.3,391.5L514.7,390.3L514.8,385.5L520.3,383.2L521.9,378.5L520.8,377.8L511.8,374.3L511.3,369.6L509.4,367.3L499.4,366.7L496.7,362.0L497.7,359.6L501.1,358.6L502.2,357.6L501.8,354.4L497.6,350.8L497.9,346.4L501.9,345.9L508.5,344.4L510.3,343.1L514.3,343.8L515.9,345.1L523.8,346.2L528.3,346.1L542.9,350.0L547.5,350.5L548.7,345.4L551.0,342.1L558.7,336.6L566.3,332.2L565.2,331.4L563.1,329.9L562.9,327.1L561.1,320.2L559.5,317.5L554.7,313.3L554.2,313.5L553.2,313.5L550.1,311.3L546.8,311.3L542.2,309.8L541.1,308.4L538.7,301.2L539.8,296.4L542.0,291.7L542.4,286.4L541.1,282.2L541.4,281.0L538.6,274.9L538.3,272.6L532.1,274.0Z " data-id="AF.BM" data-name="Bamyan" id="AF.BM"/>
utf-8utf-8<path d="M362.6,100.6L363.6,105.2L365.5,106.5L370.3,107.7L375.9,110.0L381.2,117.8L385.5,121.5L386.5,123.0L386.0,129.4L386.1,134.1L386.8,135.7L394.4,144.1L394.5,145.2L398.0,151.5L395.2,154.1L391.3,153.7L389.0,154.8L392.2,160.0L393.6,164.8L397.4,169.2L399.5,170.6L407.8,172.2L411.6,174.4L411.2,177.8L407.3,184.6L406.5,186.9L406.5,190.5L405.6,194.3L402.4,202.7L405.3,205.4L410.6,208.3L413.9,209.1L416.0,218.0L415.6,218.7L418.1,224.6L421.5,233.6L421.9,237.9L420.7,243.7L417.2,248.5L416.7,253.2L418.1,253.7L428.2,251.7L430.7,254.0L438.6,253.3L442.3,251.6L445.5,249.4L445.2,248.4L445.9,243.8L450.6,240.0L455.2,231.7L456.3,231.0L456.8,227.1L450.3,218.1L451.4,216.6L457.2,211.3L462.2,210.3L466.9,204.7L466.0,201.6L467.6,199.0L467.9,194.4L467.0,190.3L467.1,179.5L462.2,173.2L463.5,171.2L468.5,168.7L468.9,166.2L469.9,165.9L478.5,166.6L483.6,165.2L489.4,167.5L493.6,169.9L495.4,170.4L514.3,172.9L516.2,172.5L521.6,170.1L520.5,168.0L511.9,159.4L503.9,143.9L502.3,140.0L501.9,140.0L488.4,127.4L484.9,126.6L479.7,123.3L478.5,116.1L477.8,114.4L473.5,112.1L470.9,112.2L466.3,110.2L463.4,110.8L461.8,113.3L460.3,112.3L458.0,108.5L454.7,108.1L449.3,113.3L444.3,114.3L441.9,116.1L438.6,115.8L435.3,111.2L433.5,109.8L427.2,106.3L425.1,102.4L417.4,98.4L413.8,98.3L407.5,99.9L398.0,100.3L395.4,102.1L387.2,99.8L385.3,99.6L381.2,101.0L378.1,104.0L373.0,101.8L368.4,103.4L363.1,100.9L362.6,100.6Z " data-id="AF.BK" data-name="Balkh" id="AF.BK"/>
utf-8utf-8<path d="M349.7,224.4L348.8,227.0L342.4,230.2L340.4,228.6L336.5,231.3L331.6,232.1L328.0,231.6L322.4,229.6L320.6,230.1L319.5,228.6L312.5,230.0L308.1,227.3L307.2,224.4L311.4,220.1L309.7,214.8L312.1,210.0L309.7,201.7L310.0,193.1L312.2,191.1L324.3,190.7L327.0,188.9L322.7,181.2L320.6,177.9L320.2,171.4L315.2,167.4L316.5,164.9L312.1,150.3L310.4,146.5L305.4,141.7L304.2,139.0L303.4,133.6L303.9,126.9L309.2,111.3L278.2,112.1L273.2,113.9L261.5,121.0L259.8,122.5L258.9,124.8L259.4,128.4L262.4,135.3L263.5,138.8L263.2,141.9L257.1,161.1L256.4,167.6L257.8,173.1L259.6,176.6L260.6,185.4L260.0,188.6L256.2,197.5L253.1,201.2L245.7,203.4L242.9,205.8L242.5,209.5L236.5,208.8L233.9,209.4L231.5,210.6L227.5,214.3L226.5,217.0L228.7,224.0L221.1,221.3L218.9,220.8L217.8,221.0L220.3,222.3L221.7,225.0L223.1,232.5L222.6,249.2L222.9,249.9L229.0,253.0L230.2,254.2L233.2,259.2L234.9,265.6L235.4,268.9L237.5,270.3L249.4,271.1L254.1,272.0L255.4,276.4L258.4,278.0L267.6,276.5L268.3,277.1L269.0,281.2L268.9,283.9L271.2,292.9L278.8,295.2L286.6,296.2L294.1,295.4L294.9,295.0L300.1,293.0L304.9,292.9L306.9,294.6L308.9,294.9L315.0,292.7L318.7,293.7L323.1,291.1L329.7,294.0L332.0,292.6L340.0,297.2L345.4,293.1L347.4,291.3L345.4,289.3L342.5,283.9L340.8,273.2L341.7,272.5L343.9,264.3L342.0,259.9L341.7,255.9L344.1,253.1L347.7,253.0L350.1,253.7L351.7,253.2L354.4,246.8L354.1,242.9L360.7,243.0L361.8,242.6L362.7,238.9L359.0,233.0L355.0,228.2L352.3,222.0L351.2,222.3L349.7,223.8L349.7,224.4Z " data-id="AF.FB" data-name="Faryab" id="AF.FB"/>
utf-8utf-8<path d="M361.8,100.3L354.1,98.3L348.3,93.3L330.4,87.2L327.3,84.7L325.4,82.0L322.0,80.8L321.4,85.3L318.4,85.3L315.9,87.0L315.0,90.3L314.9,94.2L316.9,100.1L312.4,109.9L310.1,111.3L309.2,111.3L303.9,126.9L303.4,133.6L304.2,139.0L305.4,141.7L310.4,146.5L312.1,150.3L316.5,164.9L315.2,167.4L320.2,171.4L320.6,177.9L322.7,181.2L327.0,188.9L324.3,190.7L312.2,191.1L310.0,193.1L309.7,201.7L312.1,210.0L309.7,214.8L311.4,220.1L307.2,224.4L308.1,227.3L312.5,230.0L319.5,228.6L320.6,230.1L322.4,229.6L328.0,231.6L331.6,232.1L336.5,231.3L340.4,228.6L342.4,230.2L348.8,227.0L349.7,224.4L349.7,223.8L349.2,224.3L348.1,224.8L339.0,226.2L337.8,223.4L338.1,221.2L333.3,215.1L331.3,200.5L330.0,196.8L329.8,194.3L331.0,193.1L334.9,193.1L342.8,192.0L345.8,190.2L348.7,186.4L352.3,183.1L354.2,182.2L361.2,180.4L362.7,177.8L365.4,175.8L368.9,174.9L372.1,175.8L379.0,175.4L387.3,173.9L392.4,172.4L397.0,172.0L399.5,170.6L397.4,169.2L393.6,164.8L392.2,160.0L389.0,154.8L391.3,153.7L395.2,154.1L398.0,151.5L394.5,145.2L394.4,144.1L386.8,135.7L386.1,134.1L386.0,129.4L386.5,123.0L385.5,121.5L381.2,117.8L375.9,110.0L370.3,107.7L365.5,106.5L363.6,105.2L362.6,100.6L361.8,100.3Z " data-id="AF.JW" data-name="Jawzjan" id="AF.JW"/>
utf-8utf-8<path d="M420.4,322.5L416.0,322.6L413.3,321.4L412.3,322.4L412.5,324.9L410.9,327.1L409.0,327.7L409.4,329.1L408.0,329.9L404.9,333.4L404.5,329.6L400.7,322.2L397.1,318.1L397.5,317.0L395.2,315.0L396.3,312.9L395.3,309.4L394.1,308.3L384.8,307.4L376.5,304.7L373.7,302.5L372.3,300.6L371.1,296.8L368.8,296.9L362.1,292.4L360.9,289.9L356.9,292.0L353.6,292.9L348.5,292.6L347.4,291.3L345.4,293.1L340.0,297.2L332.0,292.6L329.7,294.0L323.1,291.1L318.7,293.7L315.0,292.7L308.9,294.9L306.9,294.6L304.9,292.9L300.1,293.0L294.9,295.0L297.0,298.1L302.0,301.2L308.8,304.1L311.2,306.8L317.2,310.6L322.6,317.6L323.8,320.5L323.7,323.6L324.5,331.1L324.1,332.8L321.0,335.3L308.6,338.9L304.2,341.4L298.9,340.5L289.7,340.2L286.6,342.8L286.6,343.7L287.0,351.4L287.5,353.8L290.4,359.8L289.7,360.3L286.1,358.9L285.1,357.6L281.2,359.3L279.6,359.4L277.3,361.1L275.4,361.5L271.1,361.1L270.2,361.5L269.8,364.2L274.0,378.2L273.8,379.6L270.4,381.6L269.6,382.8L263.7,383.7L260.0,381.9L258.1,384.4L248.6,384.2L247.3,383.8L243.2,381.0L233.2,379.3L221.2,379.9L221.1,385.0L219.8,388.9L216.8,395.4L217.0,397.3L221.6,403.3L223.1,406.1L226.5,408.7L230.3,412.9L235.2,419.5L236.2,422.2L232.3,423.7L231.3,426.2L233.0,429.2L232.7,433.0L229.3,434.9L222.3,435.6L214.4,437.9L211.8,440.2L206.9,442.2L204.3,444.5L203.7,447.2L204.6,447.8L206.7,453.1L208.7,455.2L211.4,463.0L212.2,464.6L214.9,465.6L223.7,463.8L238.7,463.1L242.4,462.4L245.2,461.2L251.1,457.0L260.9,454.5L261.7,452.6L264.8,448.8L267.9,447.2L269.7,447.0L274.2,449.6L279.8,456.6L283.8,464.1L285.4,468.6L291.2,472.4L295.8,478.4L304.2,482.0L309.1,479.1L307.0,476.6L309.6,475.7L314.0,471.9L315.5,465.4L318.2,464.4L320.6,466.9L326.4,467.8L329.4,471.0L332.1,472.7L335.1,471.1L337.1,474.1L339.4,474.9L343.9,470.3L348.7,470.8L351.3,468.2L357.2,465.2L359.1,462.8L361.9,460.7L363.6,460.4L366.4,460.7L368.1,459.1L369.1,458.3L373.9,456.8L376.6,455.2L375.6,452.3L380.9,447.2L384.6,442.3L388.5,439.5L383.1,434.0L382.1,432.6L378.8,424.1L375.4,421.7L371.5,418.2L370.8,414.2L374.7,412.4L375.5,409.5L377.4,406.3L377.4,404.1L375.7,400.8L373.9,400.4L371.6,397.2L371.1,389.5L371.6,387.7L370.3,381.4L371.1,372.6L378.0,372.4L386.6,373.6L396.6,374.3L401.6,375.2L404.4,374.3L407.0,371.7L416.5,371.9L418.4,371.0L421.4,367.5L430.4,369.8L439.4,368.4L441.3,369.0L445.1,365.9L450.2,364.4L452.7,365.1L457.8,360.3L456.1,358.1L455.0,353.5L456.8,351.5L458.1,348.8L457.3,346.8L454.8,344.4L451.9,342.8L446.4,341.2L446.7,340.5L441.8,336.5L439.5,332.3L434.7,328.2L427.5,323.6L425.3,322.6L421.7,321.9L420.4,322.5Z " data-id="AF.GR" data-name="Ghor" id="AF.GR"/>
utf-8utf-8<path d="M442.3,251.6L438.6,253.3L430.7,254.0L428.2,251.7L418.1,253.7L416.7,253.2L417.2,248.5L420.7,243.7L421.9,237.9L421.5,233.6L418.1,224.6L415.6,218.7L416.0,218.0L413.9,209.1L410.6,208.3L405.3,205.4L402.4,202.7L405.6,194.3L406.5,190.5L406.5,186.9L407.3,184.6L411.2,177.8L411.6,174.4L407.8,172.2L399.5,170.6L397.0,172.0L392.4,172.4L387.3,173.9L379.0,175.4L372.1,175.8L368.9,174.9L365.4,175.8L362.7,177.8L361.2,180.4L354.2,182.2L352.3,183.1L348.7,186.4L345.8,190.2L342.8,192.0L334.9,193.1L331.0,193.1L329.8,194.3L330.0,196.8L331.3,200.5L333.3,215.1L338.1,221.2L337.8,223.4L339.0,226.2L348.1,224.8L349.2,224.3L349.7,223.8L351.2,222.3L352.3,222.0L355.0,228.2L359.0,233.0L362.7,238.9L361.8,242.6L360.7,243.0L354.1,242.9L354.4,246.8L351.7,253.2L350.1,253.7L347.7,253.0L344.1,253.1L341.7,255.9L342.0,259.9L343.9,264.3L341.7,272.5L340.8,273.2L342.5,283.9L345.4,289.3L347.4,291.3L348.5,292.6L353.6,292.9L356.9,292.0L360.9,289.9L362.1,292.4L368.8,296.9L371.1,296.8L372.3,300.6L373.7,302.5L376.5,304.7L384.8,307.4L394.1,308.3L395.3,309.4L396.3,312.9L395.2,315.0L397.5,317.0L397.1,318.1L400.7,322.2L404.5,329.6L404.9,333.4L408.0,329.9L409.4,329.1L409.0,327.7L410.9,327.1L412.5,324.9L412.3,322.4L413.3,321.4L416.0,322.6L420.4,322.5L421.7,321.9L421.0,321.6L418.4,318.0L417.8,307.0L415.6,303.9L416.2,298.7L418.4,297.5L429.3,298.7L430.8,298.6L437.1,296.0L438.6,295.9L442.1,286.0L445.4,280.8L447.3,280.4L448.0,279.5L453.3,275.8L456.0,272.3L456.2,267.1L455.2,264.8L455.6,260.2L453.8,259.3L455.2,257.1L453.2,252.7L445.5,249.4L442.3,251.6Z " data-id="AF.SP" data-name="Sari Pul" id="AF.SP"/>
utf-8utf-8<path d="M329.4,471.0L326.4,467.8L320.6,466.9L318.2,464.4L315.5,465.4L314.0,471.9L309.6,475.7L307.0,476.6L309.1,479.1L304.2,482.0L295.8,478.4L291.2,472.4L285.4,468.6L283.8,464.1L279.8,456.6L274.2,449.6L269.7,447.0L267.9,447.2L264.8,448.8L261.7,452.6L260.9,454.5L251.1,457.0L245.2,461.2L242.4,462.4L238.7,463.1L223.7,463.8L214.9,465.6L212.2,464.6L211.1,465.6L208.7,468.0L208.2,469.7L207.4,477.3L205.8,479.3L196.8,479.9L191.0,482.1L186.0,482.2L180.0,488.2L176.3,488.9L170.7,487.5L165.1,490.9L161.7,494.4L162.3,500.1L161.3,503.8L155.1,507.3L149.1,508.0L145.5,509.3L141.0,512.4L139.4,512.2L136.8,509.0L134.7,502.5L133.7,502.0L128.8,505.4L125.6,509.2L123.3,508.4L116.9,503.0L112.4,502.8L109.4,500.8L108.3,493.3L108.4,491.9L111.1,489.3L111.5,487.8L117.9,480.1L118.3,478.2L109.7,468.0L113.4,463.1L113.7,461.2L113.2,455.6L114.0,454.6L113.1,450.6L107.9,449.5L102.3,449.0L93.7,447.2L88.7,447.4L85.8,451.4L82.1,452.1L80.4,451.4L67.6,452.3L62.5,451.9L52.2,449.7L47.6,447.9L43.3,447.4L43.0,448.4L38.5,449.0L37.3,449.9L38.3,454.2L38.3,456.0L33.7,460.4L23.3,479.5L23.1,480.8L24.5,487.8L26.7,493.5L48.1,537.9L58.0,559.7L59.2,566.9L57.5,579.3L59.0,580.8L58.8,582.7L61.9,597.1L64.5,605.3L64.7,611.9L67.1,618.2L69.5,626.5L72.2,627.6L121.2,634.6L130.1,635.9L130.6,633.3L130.6,629.1L129.7,628.0L132.7,624.6L131.1,619.7L131.9,617.2L134.0,617.4L137.3,613.4L139.5,606.9L144.5,600.0L144.9,599.0L143.2,594.2L143.2,592.1L148.4,588.2L149.3,585.8L147.4,580.9L147.8,579.9L178.5,577.9L188.9,575.4L193.8,576.9L204.6,587.0L208.3,586.6L224.5,582.1L228.8,577.6L229.6,573.6L228.5,566.0L229.6,561.9L233.1,559.3L236.8,560.3L244.5,560.7L259.2,564.1L260.9,564.0L262.4,562.5L269.6,558.1L272.9,553.8L277.5,552.6L281.4,552.9L281.9,550.2L286.4,545.9L289.1,546.3L293.3,541.8L291.9,538.0L291.0,537.2L290.1,531.7L299.1,531.2L305.8,529.2L310.6,525.9L310.5,523.3L307.1,521.0L307.0,517.9L311.2,513.6L311.3,511.5L313.0,508.5L317.2,505.4L326.1,501.5L325.8,499.5L323.6,498.6L324.9,493.4L324.1,491.2L327.4,486.3L333.1,481.1L331.7,480.5L332.8,473.6L332.1,472.7L329.4,471.0Z " data-id="AF.FH" data-name="Farah" id="AF.FH"/>
utf-8utf-8<path d="M376.2,797.0L376.1,796.5L376.0,739.1L375.2,722.1L371.1,693.5L364.4,632.7L364.5,627.7L365.1,619.1L365.5,608.0L365.9,606.9L363.2,603.5L363.1,596.0L368.9,587.6L369.0,578.8L373.9,575.2L380.0,576.9L381.9,575.6L382.5,569.6L381.5,568.2L382.4,567.4L382.9,561.3L386.1,557.6L386.4,553.0L386.3,548.1L387.1,541.9L386.3,538.8L386.6,532.9L386.2,531.0L383.2,524.4L379.9,522.2L378.1,522.4L375.7,521.0L376.4,518.0L375.0,505.6L372.4,501.8L375.2,493.8L377.5,490.6L379.6,484.6L381.0,484.8L380.8,483.5L379.7,473.4L373.4,466.5L368.3,462.4L366.4,460.7L363.6,460.4L361.9,460.7L359.1,462.8L357.2,465.2L351.3,468.2L348.7,470.8L343.9,470.3L339.4,474.9L337.1,474.1L335.1,471.1L332.1,472.7L332.8,473.6L331.7,480.5L333.1,481.1L327.4,486.3L324.1,491.2L324.9,493.4L323.6,498.6L325.8,499.5L326.1,501.5L317.2,505.4L313.0,508.5L311.3,511.5L311.2,513.6L307.0,517.9L307.1,521.0L310.5,523.3L310.6,525.9L305.8,529.2L299.1,531.2L290.1,531.7L291.0,537.2L291.9,538.0L293.3,541.8L289.1,546.3L286.4,545.9L281.9,550.2L281.4,552.9L277.5,552.6L272.9,553.8L269.6,558.1L262.4,562.5L260.9,564.0L261.8,567.1L265.8,575.4L264.1,579.1L265.0,581.1L264.9,583.3L263.3,589.0L259.1,594.1L258.4,599.0L259.8,627.8L261.4,637.1L259.6,640.8L259.6,642.3L261.3,645.6L264.7,659.2L263.7,660.9L261.1,662.9L258.7,670.8L256.2,673.5L253.5,674.8L252.8,676.0L254.7,685.3L256.2,691.0L253.2,693.6L250.4,699.2L253.1,702.2L251.8,705.0L253.1,707.8L255.7,712.0L254.6,714.2L251.1,717.2L248.1,726.5L245.8,731.5L241.5,737.5L235.8,741.7L236.7,746.1L236.9,754.8L235.4,757.6L236.9,767.2L235.1,810.5L237.3,810.3L307.0,803.5L338.4,809.5L347.7,813.3L349.6,812.5L351.4,807.0L352.8,804.7L355.2,803.3L374.5,797.0L376.2,797.0Z " data-id="AF.HM" data-name="Hilmand" id="AF.HM"/>
utf-8utf-8<path d="M259.2,564.1L244.5,560.7L236.8,560.3L233.1,559.3L229.6,561.9L228.5,566.0L229.6,573.6L228.8,577.6L224.5,582.1L208.3,586.6L204.6,587.0L193.8,576.9L188.9,575.4L178.5,577.9L147.8,579.9L147.4,580.9L149.3,585.8L148.4,588.2L143.2,592.1L143.2,594.2L144.9,599.0L144.5,600.0L139.5,606.9L137.3,613.4L134.0,617.4L131.9,617.2L131.1,619.7L132.7,624.6L129.7,628.0L130.6,629.1L130.6,633.3L130.1,635.9L134.3,636.5L141.4,641.9L142.2,643.6L143.7,650.9L146.4,654.3L148.3,659.8L150.1,662.6L152.5,669.0L151.4,673.7L153.2,680.8L153.3,683.9L152.3,685.3L104.1,759.4L96.0,771.5L124.1,780.6L217.8,809.9L225.8,811.5L235.1,810.5L236.9,767.2L235.4,757.6L236.9,754.8L236.7,746.1L235.8,741.7L241.5,737.5L245.8,731.5L248.1,726.5L251.1,717.2L254.6,714.2L255.7,712.0L253.1,707.8L251.8,705.0L253.1,702.2L250.4,699.2L253.2,693.6L256.2,691.0L254.7,685.3L252.8,676.0L253.5,674.8L256.2,673.5L258.7,670.8L261.1,662.9L263.7,660.9L264.7,659.2L261.3,645.6L259.6,642.3L259.6,640.8L261.4,637.1L259.8,627.8L258.4,599.0L259.1,594.1L263.3,589.0L264.9,583.3L265.0,581.1L264.1,579.1L265.8,575.4L261.8,567.1L260.9,564.0L259.2,564.1Z " data-id="AF.NM" data-name="Nimroz" id="AF.NM"/>
utf-8utf-8<path d="M485.7,468.8L482.6,468.2L480.3,464.9L479.1,466.7L476.6,468.3L473.2,469.0L468.5,471.9L461.5,465.0L460.4,464.6L455.5,466.3L452.9,466.4L451.0,465.5L447.9,466.5L440.3,473.3L435.1,475.9L434.0,478.5L433.9,482.6L434.6,486.0L432.8,487.6L420.6,485.0L418.5,483.9L415.1,481.0L413.1,480.5L410.8,483.3L408.2,482.8L403.5,483.5L398.5,480.6L396.1,479.9L390.0,479.6L391.8,485.1L387.7,485.1L386.6,487.0L383.4,485.3L381.0,484.8L379.6,484.6L377.5,490.6L375.2,493.8L372.4,501.8L375.0,505.6L376.4,518.0L375.7,521.0L378.1,522.4L379.9,522.2L383.2,524.4L386.2,531.0L386.6,532.9L386.3,538.8L387.1,541.9L386.3,548.1L386.4,553.0L387.2,553.2L390.1,555.1L394.1,554.9L400.7,557.5L402.7,556.8L400.8,553.7L402.4,549.8L401.2,544.4L401.5,543.5L404.8,541.0L405.9,535.0L407.8,531.6L409.7,530.7L415.4,531.8L418.1,531.7L418.0,534.2L420.7,542.7L421.8,542.4L426.9,538.6L429.5,539.4L441.0,540.5L442.1,540.8L444.4,543.7L451.8,544.5L454.5,543.7L454.6,540.2L462.4,540.1L463.5,539.3L465.0,538.2L464.1,537.1L463.9,532.5L466.8,525.4L468.6,522.0L471.8,520.2L475.3,519.7L476.3,518.6L477.7,514.3L480.9,514.0L482.6,515.9L482.0,521.6L482.9,522.8L486.1,521.7L487.0,519.9L487.6,516.0L489.6,513.8L496.0,509.5L500.1,509.4L502.1,508.0L506.3,509.0L509.0,504.7L508.2,499.5L507.3,499.1L503.5,498.3L500.9,496.3L500.1,494.9L497.3,484.0L497.3,480.9L501.0,476.4L502.1,475.8L501.8,472.7L499.3,470.8L491.7,471.2L489.7,470.8L488.0,468.0L485.7,468.8Z " data-id="AF.OZ" data-name="Uruzgan" id="AF.OZ"/>
utf-8utf-8<path d="M439.4,368.4L430.4,369.8L421.4,367.5L418.4,371.0L416.5,371.9L407.0,371.7L404.4,374.3L401.6,375.2L396.6,374.3L386.6,373.6L378.0,372.4L371.1,372.6L370.3,381.4L371.6,387.7L371.1,389.5L371.6,397.2L373.9,400.4L375.7,400.8L377.4,404.1L377.4,406.3L375.5,409.5L374.7,412.4L370.8,414.2L371.5,418.2L375.4,421.7L378.8,424.1L382.1,432.6L383.1,434.0L388.5,439.5L384.6,442.3L380.9,447.2L375.6,452.3L376.6,455.2L373.9,456.8L369.1,458.3L368.1,459.1L366.4,460.7L368.3,462.4L373.4,466.5L379.7,473.4L380.8,483.5L381.0,484.8L383.4,485.3L386.6,487.0L387.7,485.1L391.8,485.1L390.0,479.6L396.1,479.9L398.5,480.6L403.5,483.5L408.2,482.8L410.8,483.3L413.1,480.5L415.1,481.0L418.5,483.9L420.6,485.0L432.8,487.6L434.6,486.0L433.9,482.6L434.0,478.5L435.1,475.9L440.3,473.3L447.9,466.5L451.0,465.5L452.9,466.4L455.5,466.3L460.4,464.6L461.5,465.0L468.5,471.9L473.2,469.0L476.6,468.3L479.1,466.7L480.3,464.9L482.6,468.2L485.7,468.8L488.0,468.0L487.7,463.9L487.0,452.6L483.4,446.1L483.0,444.0L483.5,441.3L485.0,439.7L491.1,437.0L497.3,436.1L503.9,434.0L506.6,432.1L508.8,427.3L513.9,421.8L516.5,417.2L517.9,416.4L516.2,412.1L512.3,408.1L513.8,403.7L513.7,401.7L512.0,400.6L511.3,401.9L501.1,405.6L499.6,407.8L498.2,406.4L494.7,406.7L491.1,409.3L487.0,408.2L484.5,406.2L470.8,403.5L461.0,406.2L456.3,403.9L451.1,399.8L448.9,392.1L449.9,388.2L447.0,380.5L447.5,379.1L449.9,377.0L444.7,373.7L442.0,373.6L440.3,370.9L441.3,369.0L439.4,368.4Z " data-id="AF.OZ" data-name="Uruzgan" id="AF.OZ"/>
utf-8utf-8<path d="M463.5,539.3L462.4,540.1L454.6,540.2L454.5,543.7L451.8,544.5L444.4,543.7L442.1,540.8L441.0,540.5L429.5,539.4L426.9,538.6L421.8,542.4L420.7,542.7L418.0,534.2L418.1,531.7L415.4,531.8L409.7,530.7L407.8,531.6L405.9,535.0L404.8,541.0L401.5,543.5L401.2,544.4L402.4,549.8L400.8,553.7L402.7,556.8L400.7,557.5L394.1,554.9L390.1,555.1L387.2,553.2L386.4,553.0L386.1,557.6L382.9,561.3L382.4,567.4L381.5,568.2L382.5,569.6L381.9,575.6L380.0,576.9L373.9,575.2L369.0,578.8L368.9,587.6L363.1,596.0L363.2,603.5L365.9,606.9L365.5,608.0L365.1,619.1L364.5,627.7L364.4,632.7L371.1,693.5L375.2,722.1L376.0,739.1L376.1,796.5L376.2,797.0L390.1,797.2L400.5,797.2L413.4,799.6L417.2,799.7L500.2,773.5L505.4,769.1L508.0,763.7L509.2,762.8L502.1,756.9L499.1,755.0L498.9,749.0L501.9,738.9L501.9,737.2L500.8,731.9L500.0,720.2L498.0,715.4L495.7,713.0L493.8,709.5L493.3,705.6L495.4,677.2L496.9,675.2L506.7,673.1L508.3,672.4L513.9,665.0L515.0,663.0L515.6,653.0L517.2,651.7L520.0,651.3L524.8,645.8L529.4,643.3L532.1,642.5L536.5,642.4L538.4,644.2L538.7,648.7L542.1,649.8L549.4,649.4L552.5,651.0L564.2,651.9L570.3,649.4L574.6,648.8L577.1,647.6L582.3,646.3L589.3,641.2L592.4,641.3L593.9,639.1L592.8,635.4L589.9,634.5L583.8,635.3L579.2,632.6L578.1,629.2L574.6,625.0L575.3,623.4L577.6,623.4L582.7,624.4L587.1,623.3L588.5,622.1L583.6,620.1L579.1,619.8L573.1,621.7L567.5,621.5L565.2,622.1L562.8,617.5L560.6,614.6L555.6,612.3L554.6,614.3L551.4,612.5L549.9,610.2L546.8,609.0L545.4,606.3L542.7,602.9L538.3,605.1L533.4,606.6L526.1,605.6L521.0,603.3L517.9,601.0L510.3,598.0L504.8,593.8L502.4,593.7L494.5,601.7L489.4,602.8L486.1,602.6L482.7,604.9L478.7,608.9L470.8,602.4L468.0,600.8L465.9,596.4L470.4,592.3L473.0,591.5L475.3,587.9L475.3,582.9L473.3,573.5L471.2,567.4L470.6,562.1L473.6,558.8L475.3,554.9L475.7,552.1L479.2,549.5L481.2,545.1L481.3,541.1L480.4,536.3L474.6,532.5L471.6,534.0L471.2,536.1L467.6,539.1L465.0,538.2L463.5,539.3Z " data-id="AF.KD" data-name="Kandahar" id="AF.KD"/>
utf-8utf-8<path d="M598.7,575.0L593.4,575.4L582.8,569.8L577.4,568.9L575.1,567.4L574.5,562.7L572.8,560.1L567.1,559.4L566.4,556.8L568.1,554.0L571.0,554.4L572.8,553.3L575.7,550.1L575.4,547.6L571.2,545.1L568.2,544.6L566.5,541.2L565.0,539.7L559.5,536.2L563.4,530.5L559.6,528.4L545.8,517.0L542.7,513.7L539.7,507.3L541.5,505.8L540.1,504.5L536.2,502.4L536.4,501.2L539.8,498.2L537.7,494.7L537.8,492.4L535.7,492.7L532.2,497.6L529.9,497.5L525.8,495.7L523.8,494.0L521.6,494.3L518.4,490.7L517.9,489.0L514.0,487.2L512.0,487.4L511.5,490.7L512.8,492.3L512.9,494.5L510.5,499.5L508.2,499.5L509.0,504.7L506.3,509.0L502.1,508.0L500.1,509.4L496.0,509.5L489.6,513.8L487.6,516.0L487.0,519.9L486.1,521.7L482.9,522.8L482.0,521.6L482.6,515.9L480.9,514.0L477.7,514.3L476.3,518.6L475.3,519.7L471.8,520.2L468.6,522.0L466.8,525.4L463.9,532.5L464.1,537.1L465.0,538.2L467.6,539.1L471.2,536.1L471.6,534.0L474.6,532.5L480.4,536.3L481.3,541.1L481.2,545.1L479.2,549.5L475.7,552.1L475.3,554.9L473.6,558.8L470.6,562.1L471.2,567.4L473.3,573.5L475.3,582.9L475.3,587.9L473.0,591.5L470.4,592.3L465.9,596.4L468.0,600.8L470.8,602.4L478.7,608.9L482.7,604.9L486.1,602.6L489.4,602.8L494.5,601.7L502.4,593.7L504.8,593.8L510.3,598.0L517.9,601.0L521.0,603.3L526.1,605.6L533.4,606.6L538.3,605.1L542.7,602.9L545.4,606.3L546.8,609.0L549.9,610.2L551.4,612.5L554.6,614.3L555.6,612.3L560.6,614.6L562.8,617.5L565.2,622.1L567.5,621.5L573.1,621.7L579.1,619.8L583.6,620.1L588.5,622.1L590.6,620.4L594.2,615.1L602.4,614.3L604.8,611.6L608.3,609.4L608.7,606.1L610.7,603.8L610.9,603.1L607.2,601.0L604.4,598.6L603.1,596.1L602.2,591.2L603.7,587.8L604.7,580.5L603.4,577.2L601.3,573.0L598.7,575.0Z " data-id="AF.ZB" data-name="Zabul" id="AF.ZB"/>
utf-8utf-8<path d="M617.0,424.4L614.3,428.7L608.8,432.4L606.3,432.8L601.3,431.2L600.7,430.2L600.6,424.9L599.5,422.9L595.0,422.6L585.5,414.3L581.4,412.0L579.9,410.4L573.0,407.8L572.1,406.3L566.8,390.7L562.7,386.8L559.7,385.7L555.0,389.1L548.6,391.0L545.1,390.7L538.2,386.7L532.9,385.2L531.0,385.3L525.1,386.9L523.7,390.6L519.9,392.0L516.3,391.5L513.8,393.8L513.1,395.0L512.8,396.4L512.6,397.0L512.0,400.6L513.7,401.7L513.8,403.7L512.3,408.1L516.2,412.1L517.9,416.4L516.5,417.2L513.9,421.8L508.8,427.3L506.6,432.1L503.9,434.0L497.3,436.1L491.1,437.0L485.0,439.7L483.5,441.3L483.0,444.0L483.4,446.1L487.0,452.6L487.7,463.9L488.0,468.0L489.7,470.8L491.7,471.2L499.3,470.8L501.8,472.7L502.1,475.8L501.0,476.4L497.3,480.9L497.3,484.0L500.1,494.9L500.9,496.3L503.5,498.3L507.3,499.1L508.2,499.5L510.5,499.5L512.9,494.5L512.8,492.3L511.5,490.7L512.0,487.4L514.0,487.2L517.9,489.0L518.4,490.7L521.6,494.3L523.8,494.0L525.8,495.7L529.9,497.5L532.2,497.6L535.7,492.7L537.8,492.4L537.7,494.7L539.8,498.2L536.4,501.2L536.2,502.4L540.1,504.5L541.5,505.8L539.7,507.3L542.7,513.7L545.8,517.0L559.6,528.4L563.4,530.5L559.5,536.2L565.0,539.7L566.5,541.2L568.2,544.6L571.2,545.1L575.4,547.6L575.7,550.1L572.8,553.3L571.0,554.4L568.1,554.0L566.4,556.8L567.1,559.4L572.8,560.1L574.5,562.7L575.1,567.4L577.4,568.9L582.8,569.8L593.4,575.4L598.7,575.0L601.3,573.0L602.3,568.4L602.3,565.9L598.4,548.5L598.7,546.9L596.7,541.8L594.3,537.2L587.1,531.9L584.6,530.5L582.7,527.4L574.6,522.2L572.7,520.4L572.6,519.0L574.5,513.6L577.3,509.3L585.0,515.6L588.5,517.6L597.2,516.9L602.4,513.2L603.9,511.2L605.5,506.1L609.6,501.1L612.8,495.2L614.0,484.9L615.0,482.7L620.8,477.4L624.8,471.0L626.1,462.8L630.3,458.1L630.5,458.0L630.6,456.5L631.5,452.5L628.8,447.5L626.9,441.7L626.4,438.4L626.4,438.4L623.2,431.0L624.6,429.8L620.9,423.7L618.4,422.6L617.0,424.4Z " data-id="AF.GZ" data-name="Ghazni" id="AF.GZ"/>
utf-8utf-8<path d="M691.2,490.5L692.6,488.0L694.7,486.3L701.5,485.5L705.0,485.8L707.9,483.3L710.7,482.8L716.2,485.3L719.3,485.1L727.9,481.3L729.7,475.7L735.4,475.3L745.7,464.6L745.5,461.7L743.7,458.9L732.5,449.5L730.6,444.5L730.9,438.9L729.3,435.7L728.0,435.1L726.0,432.7L724.6,429.2L723.6,428.2L720.6,428.8L716.2,427.1L715.0,426.9L715.0,429.5L714.1,430.9L704.4,436.2L702.9,439.6L701.1,438.6L696.1,439.1L689.9,441.7L688.0,443.6L687.0,448.1L688.9,450.5L688.4,456.2L687.4,459.0L685.9,460.0L682.7,463.6L682.3,466.3L680.5,469.4L680.5,471.2L680.4,474.7L682.5,479.6L681.1,484.4L679.4,487.0L680.3,489.2L683.2,489.4L690.8,492.0L691.2,490.5Z " data-id="AF.KT" data-name="Khost" id="AF.KT"/>
utf-8utf-8<path d="M678.9,470.8L676.8,470.4L673.7,471.6L670.8,471.5L665.2,468.9L665.7,470.6L652.6,479.3L652.1,478.7L648.8,468.8L647.7,462.8L646.9,460.8L643.4,457.0L641.5,456.2L635.5,456.0L630.5,458.0L630.3,458.1L626.1,462.8L624.8,471.0L620.8,477.4L615.0,482.7L614.0,484.9L612.8,495.2L609.6,501.1L605.5,506.1L603.9,511.2L602.4,513.2L597.2,516.9L588.5,517.6L585.0,515.6L577.3,509.3L574.5,513.6L572.6,519.0L572.7,520.4L574.6,522.2L582.7,527.4L584.6,530.5L587.1,531.9L594.3,537.2L596.7,541.8L598.7,546.9L598.4,548.5L602.3,565.9L602.3,568.4L601.3,573.0L603.4,577.2L604.7,580.5L603.7,587.8L602.2,591.2L603.1,596.1L604.4,598.6L607.2,601.0L610.9,603.1L611.2,602.2L612.8,597.3L618.2,598.8L622.5,602.5L630.2,602.8L638.6,605.6L641.5,606.1L644.9,603.6L638.1,602.7L634.5,601.0L635.7,599.8L641.9,597.4L649.6,600.9L655.7,603.3L656.7,606.9L664.4,615.5L666.6,617.0L669.6,616.6L673.8,614.2L676.2,613.3L679.0,613.5L683.1,610.7L687.5,605.0L693.1,592.2L694.6,590.0L697.7,587.3L697.5,585.3L693.7,578.6L690.5,570.2L690.0,564.5L687.9,553.2L685.0,548.2L683.4,544.4L682.9,540.7L683.6,537.4L685.3,534.5L689.5,532.4L690.5,531.3L693.7,522.6L691.5,517.4L688.8,515.7L688.3,512.1L690.5,510.2L693.9,503.1L690.4,493.5L690.8,492.0L683.2,489.4L680.3,489.2L679.4,487.0L681.1,484.4L682.5,479.6L680.4,474.7L680.5,471.2L678.9,470.8Z " data-id="AF.PK" data-name="Paktika" id="AF.PK"/>
utf-8utf-8<path d="M633.4,83.3L633.4,85.1L637.3,97.2L639.0,97.6L639.7,108.2L640.5,110.6L643.3,115.0L646.6,122.9L649.8,125.0L653.9,129.4L652.1,134.3L650.3,135.1L647.9,140.3L653.2,160.8L653.8,164.8L659.6,178.1L660.2,181.3L669.3,187.2L677.3,194.2L682.7,194.8L687.9,196.3L696.5,198.2L699.2,207.7L699.7,210.3L698.9,216.7L699.8,222.5L701.9,224.8L702.4,227.1L699.1,229.0L697.2,231.8L694.5,233.9L692.0,236.8L691.4,237.4L690.9,241.5L691.6,245.5L692.4,252.5L692.2,253.7L697.0,254.6L702.0,251.3L710.6,254.0L712.3,256.8L718.3,263.1L718.7,265.1L718.4,269.2L720.1,274.0L722.6,274.3L727.5,266.5L729.3,266.1L731.3,268.1L735.0,270.1L737.5,269.7L741.5,270.6L743.6,268.7L743.4,267.0L740.9,257.7L744.2,257.4L746.6,256.2L747.4,253.7L747.5,249.0L745.6,248.0L746.3,242.9L747.2,242.4L749.5,237.0L749.5,228.4L750.2,227.7L753.5,221.1L752.9,219.7L755.1,215.9L755.4,212.5L760.6,208.2L760.8,205.7L765.0,204.1L766.2,202.9L770.3,196.6L775.5,194.2L773.7,190.2L775.1,188.4L775.9,183.2L776.4,182.4L784.3,185.7L787.1,188.0L790.5,187.9L791.1,186.9L788.7,183.2L787.9,180.4L789.2,179.4L794.9,178.7L797.1,176.1L805.2,171.3L806.1,170.1L805.6,167.0L812.1,165.4L813.2,164.6L810.8,161.4L810.8,160.2L814.6,158.0L820.8,156.6L824.0,156.4L826.7,155.4L831.6,155.2L835.2,151.3L838.3,149.5L842.7,148.4L847.5,148.0L853.9,148.9L860.3,148.6L865.5,146.6L868.0,147.6L872.4,145.5L883.0,144.4L889.9,145.2L893.2,143.9L896.8,144.2L901.5,143.5L906.3,144.2L915.5,142.6L925.4,143.0L930.1,143.9L932.6,144.8L939.6,148.6L946.5,150.0L950.4,148.5L950.4,144.5L952.6,142.1L957.5,142.7L959.1,142.1L962.0,139.2L967.1,135.3L968.6,133.8L972.9,132.8L974.5,133.3L978.8,137.0L979.9,136.7L978.8,131.3L976.9,130.5L972.5,125.7L967.3,123.5L964.5,121.8L962.8,119.8L963.4,117.6L968.7,117.2L970.6,112.2L975.9,111.3L979.1,112.5L981.0,109.7L982.4,109.6L987.1,107.1L991.7,113.3L999.4,112.3L996.9,111.1L992.0,105.4L989.3,103.2L978.4,97.5L976.6,98.7L969.3,99.2L963.3,97.6L960.8,98.0L956.9,97.3L955.4,95.5L953.0,95.7L952.1,97.0L946.2,96.7L945.3,97.9L946.0,101.0L943.5,103.3L935.8,104.9L929.3,107.2L925.7,109.2L921.3,110.0L919.2,112.5L914.6,112.6L912.9,113.6L910.2,111.3L905.8,112.1L904.5,111.4L903.6,109.5L906.7,105.9L909.4,105.6L912.2,102.6L912.3,101.3L911.1,94.4L905.2,94.2L899.8,92.8L890.1,89.7L886.9,89.8L883.0,92.2L878.4,90.9L874.4,92.5L866.6,98.4L863.5,104.7L858.4,105.2L854.0,108.3L852.8,110.2L847.9,111.5L845.5,113.3L844.0,116.2L842.5,123.3L840.6,128.0L840.2,130.6L829.7,132.2L827.5,133.5L822.2,132.5L819.1,133.2L812.4,136.2L810.0,138.2L808.4,141.3L806.2,142.7L804.9,144.8L787.5,160.5L785.0,161.7L781.5,162.4L778.0,162.4L774.3,161.6L770.8,160.0L767.7,157.4L764.0,152.3L762.5,148.1L761.3,146.3L755.4,139.6L749.3,127.2L748.0,121.7L748.0,115.8L747.2,113.6L748.7,109.0L746.8,99.6L745.4,96.2L745.3,89.2L742.4,81.9L742.2,69.0L740.3,62.7L742.6,61.0L741.5,52.5L741.8,51.9L738.9,49.2L736.3,47.7L733.6,47.6L725.5,50.6L723.2,52.4L715.8,48.2L715.7,42.9L716.8,38.9L716.8,35.2L717.5,32.6L717.3,24.0L715.8,20.0L713.4,17.4L710.4,15.8L703.7,13.3L698.0,8.8L689.5,5.9L683.4,0.2L682.4,0.0L680.6,3.7L675.3,1.8L667.5,2.7L666.7,4.9L662.6,5.3L663.1,8.9L658.0,12.2L658.8,14.8L658.6,17.9L656.3,19.0L653.5,32.6L651.3,33.6L643.9,43.5L643.1,48.2L641.6,48.8L636.4,47.6L636.2,49.9L639.0,55.3L644.2,58.3L648.0,63.1L647.9,64.2L650.3,72.1L649.2,77.3L647.4,77.3L647.0,80.0L644.9,84.2L643.0,85.0L636.2,83.5L633.7,83.5L633.4,83.3Z " data-id="AF.BD" data-name="Badakhshan" id="AF.BD"/>
utf-8utf-8<path d="M796.7,271.7L795.8,269.7L795.4,264.6L794.4,263.3L786.7,259.2L785.6,257.7L787.0,252.5L786.3,250.9L781.9,246.3L781.3,243.8L775.6,236.7L771.6,234.3L769.5,229.9L761.3,226.5L753.7,221.4L753.5,221.1L750.2,227.7L749.5,228.4L749.5,237.0L747.2,242.4L746.3,242.9L745.6,248.0L747.5,249.0L747.4,253.7L746.6,256.2L744.2,257.4L740.9,257.7L743.4,267.0L743.6,268.7L741.5,270.6L737.5,269.7L735.0,270.1L731.3,268.1L729.3,266.1L727.5,266.5L722.6,274.3L720.1,274.0L718.4,269.2L718.7,265.1L718.3,263.1L712.3,256.8L710.6,254.0L702.0,251.3L697.0,254.6L692.2,253.7L691.8,255.9L692.5,261.4L690.1,264.0L691.4,267.0L690.2,270.1L686.6,271.6L684.9,271.3L682.9,276.7L678.1,279.6L676.0,282.1L676.2,283.3L679.8,285.9L681.4,288.2L682.3,293.0L683.1,294.5L687.0,299.5L688.0,303.0L692.4,305.0L698.6,306.0L701.0,307.9L702.9,311.7L707.5,316.1L714.3,320.5L720.4,322.8L724.0,321.7L731.1,316.6L732.0,314.7L734.1,308.6L734.9,302.3L743.1,306.0L746.6,306.6L751.1,308.0L764.4,307.4L766.5,303.8L769.5,304.9L770.1,304.3L770.4,298.6L771.9,294.9L771.2,291.7L772.4,287.2L774.0,285.8L782.0,282.5L785.7,283.6L789.8,279.2L791.3,278.4L797.3,272.3L796.7,271.7Z " data-id="AF.NR" data-name="Nuristan" id="AF.NR"/>
utf-8utf-8<path d="M797.3,272.3L791.3,278.4L789.8,279.2L785.7,283.6L782.0,282.5L774.0,285.8L772.4,287.2L771.2,291.7L771.9,294.9L770.4,298.6L770.1,304.3L769.5,304.9L766.5,303.8L764.4,307.4L751.1,308.0L746.6,306.6L743.1,306.0L734.9,302.3L734.1,308.6L732.0,314.7L733.2,315.9L733.8,317.0L738.0,325.8L738.8,329.3L739.2,332.2L741.4,333.3L744.1,336.7L744.4,344.4L745.5,347.5L748.6,350.5L753.7,350.8L753.5,353.2L754.2,356.3L756.3,356.1L759.8,354.4L762.7,354.8L771.6,354.2L771.8,354.1L776.5,354.5L777.8,349.9L775.8,344.6L776.4,343.6L780.6,339.3L783.8,336.8L786.4,331.3L787.5,325.4L789.7,323.4L799.3,318.7L799.7,315.7L800.8,314.1L799.6,307.7L800.9,305.3L805.2,301.8L806.0,295.9L803.3,294.1L798.0,289.4L796.2,287.1L795.7,284.6L797.3,281.7L800.1,278.5L800.5,277.2L798.0,273.1L797.3,272.3Z " data-id="AF.KR" data-name="Kunar" id="AF.KR"/>
utf-8utf-8<path d="M590.7,123.0L588.0,123.8L576.7,117.2L574.6,113.9L569.2,110.4L567.3,107.1L562.3,103.4L557.0,104.0L559.4,105.8L557.9,107.7L554.5,103.8L552.8,103.4L551.3,105.0L552.9,107.7L552.6,110.4L549.4,108.7L541.7,108.0L541.1,109.0L542.6,110.8L541.0,111.1L540.3,114.5L536.4,115.6L529.6,119.2L525.1,119.5L526.7,121.6L525.3,123.7L523.4,123.9L518.9,122.9L517.7,123.9L519.5,131.0L519.0,132.3L514.0,131.3L508.1,135.0L504.3,139.2L502.9,140.0L502.3,140.0L503.9,143.9L511.9,159.4L520.5,168.0L521.6,170.1L523.2,171.4L525.8,172.1L529.6,172.9L536.3,174.0L548.5,174.8L555.1,176.6L562.2,175.5L563.6,177.5L569.6,183.3L576.0,186.1L577.8,184.9L584.1,185.6L590.8,190.8L592.5,191.7L602.6,195.5L604.0,197.0L603.6,195.5L601.3,191.6L600.6,188.6L594.4,179.4L598.4,174.9L599.7,168.4L597.1,163.9L596.3,163.7L593.9,159.0L593.6,154.8L592.9,153.0L593.5,151.0L596.8,150.6L597.8,149.4L598.0,146.8L594.4,130.5L594.4,128.4L595.4,126.2L592.3,122.6L590.7,123.0Z " data-id="AF.KZ" data-name="Kunduz" id="AF.KZ"/>
utf-8utf-8<path d="M739.2,332.2L737.1,332.9L734.8,334.2L732.1,338.0L732.4,341.6L728.1,343.7L726.7,345.2L729.3,351.2L729.7,354.0L728.8,357.9L723.0,362.2L719.1,363.4L711.6,364.7L706.4,367.0L701.9,366.1L697.9,366.9L690.1,367.8L687.7,367.1L679.3,368.1L677.0,368.7L677.6,373.0L675.5,376.9L672.0,381.7L667.4,386.4L668.6,389.7L670.1,389.9L674.7,386.1L682.5,382.0L687.7,383.4L690.7,385.6L696.4,392.9L699.8,397.9L701.5,399.8L702.3,400.7L703.0,400.4L706.8,399.8L709.4,400.0L726.7,405.6L731.0,406.0L735.3,407.7L741.4,407.9L747.8,409.3L750.1,409.4L759.8,407.9L769.8,408.0L774.9,407.0L776.4,403.0L779.9,403.8L782.1,401.4L787.0,400.1L787.9,399.0L786.9,394.5L789.0,389.1L786.2,380.4L786.9,374.2L786.1,372.0L780.1,369.0L774.6,364.2L770.5,358.2L770.6,354.7L771.6,354.2L762.7,354.8L759.8,354.4L756.3,356.1L754.2,356.3L753.5,353.2L753.7,350.8L748.6,350.5L745.5,347.5L744.4,344.4L744.1,336.7L741.4,333.3L739.2,332.2Z " data-id="AF.NG" data-name="Nangarhar" id="AF.NG"/>
utf-8utf-8<path d="M632.9,82.9L629.2,81.1L625.6,77.3L623.8,77.2L617.9,80.6L614.6,79.3L608.0,81.0L597.7,80.1L596.4,80.8L596.1,84.6L592.3,88.5L590.1,93.6L591.3,98.7L592.6,99.6L592.6,101.4L596.9,109.0L596.8,111.0L599.7,113.0L598.2,117.2L592.5,122.6L592.3,122.6L595.4,126.2L594.4,128.4L594.4,130.5L598.0,146.8L597.8,149.4L596.8,150.6L593.5,151.0L592.9,153.0L593.6,154.8L593.9,159.0L596.3,163.7L597.1,163.9L599.7,168.4L598.4,174.9L594.4,179.4L600.6,188.6L601.3,191.6L603.6,195.5L604.0,197.0L605.2,198.2L609.7,201.5L610.6,202.7L618.7,202.4L621.6,201.5L625.5,197.7L632.5,194.8L636.8,192.2L638.8,195.5L640.5,200.7L641.4,202.1L644.5,202.5L646.9,204.5L650.1,214.9L655.5,219.0L657.5,220.8L667.2,234.1L669.2,241.1L670.2,241.4L672.5,242.0L675.3,240.8L680.2,240.2L681.7,239.4L683.6,236.5L683.8,233.7L686.3,235.4L691.4,237.4L692.0,236.8L694.5,233.9L697.2,231.8L699.1,229.0L702.4,227.1L701.9,224.8L699.8,222.5L698.9,216.7L699.7,210.3L699.2,207.7L696.5,198.2L687.9,196.3L682.7,194.8L677.3,194.2L669.3,187.2L660.2,181.3L659.6,178.1L653.8,164.8L653.2,160.8L647.9,140.3L650.3,135.1L652.1,134.3L653.9,129.4L649.8,125.0L646.6,122.9L643.3,115.0L640.5,110.6L639.7,108.2L639.0,97.6L637.3,97.2L633.4,85.1L633.4,83.3L632.9,82.9Z " data-id="AF.TK" data-name="Takhar" id="AF.TK"/>
utf-8utf-8<path d="M602.6,195.5L592.5,191.7L590.8,190.8L584.1,185.6L577.8,184.9L576.0,186.1L569.6,183.3L563.6,177.5L562.2,175.5L555.1,176.6L548.5,174.8L536.3,174.0L529.6,172.9L525.8,172.1L524.9,172.9L522.8,173.7L522.0,175.8L525.7,181.8L530.6,187.1L537.6,195.4L546.7,202.4L554.7,207.8L556.3,210.1L554.4,215.6L553.3,217.2L547.9,223.3L545.6,224.9L546.3,237.8L539.0,251.9L539.2,256.3L542.9,258.9L543.1,261.6L541.4,265.4L541.3,268.5L538.3,272.6L538.6,274.9L541.4,281.0L541.1,282.2L542.4,286.4L542.0,291.7L539.8,296.4L538.7,301.2L541.1,308.4L542.2,309.8L546.8,311.3L550.1,311.3L553.2,313.5L554.2,313.5L554.7,313.3L555.0,312.6L560.6,307.7L568.0,309.3L572.7,308.6L577.4,309.0L582.5,308.4L584.3,307.3L583.6,303.4L586.9,302.6L592.8,297.1L594.8,292.2L596.2,290.7L598.9,289.9L603.8,291.8L606.5,289.6L607.6,287.7L610.5,286.8L613.6,281.5L617.0,279.8L620.2,276.3L625.0,277.1L626.6,278.8L629.6,277.8L632.0,277.9L634.3,276.5L636.4,276.7L639.5,272.9L642.8,272.5L646.9,273.1L648.0,272.5L655.9,266.5L659.3,265.4L659.9,263.2L659.6,253.4L660.9,250.5L664.0,250.1L668.8,243.5L669.2,241.1L667.2,234.1L657.5,220.8L655.5,219.0L650.1,214.9L646.9,204.5L644.5,202.5L641.4,202.1L640.5,200.7L638.8,195.5L636.8,192.2L632.5,194.8L625.5,197.7L621.6,201.5L618.7,202.4L610.6,202.7L609.7,201.5L605.2,198.2L604.0,197.0L602.6,195.5Z " data-id="AF.BL" data-name="Baghlan" id="AF.BL"/>
utf-8utf-8<path d="M664.6,345.2L662.2,349.6L658.6,351.2L657.0,350.9L653.1,343.2L650.2,338.8L647.1,337.4L642.1,331.7L640.9,329.3L633.3,325.0L629.8,325.3L621.9,325.0L616.2,323.6L614.2,328.4L613.6,334.8L611.9,340.8L613.1,344.6L612.9,348.2L612.7,351.3L613.6,358.7L616.1,363.0L617.3,364.1L619.8,364.8L623.4,366.9L625.6,371.3L626.4,372.6L638.2,376.3L641.5,375.6L649.2,371.3L652.8,375.3L660.5,382.5L662.2,385.2L667.9,390.9L668.6,389.7L667.4,386.4L672.0,381.7L675.5,376.9L677.6,373.0L677.0,368.7L679.3,368.1L687.7,367.1L687.0,365.0L687.2,356.4L685.5,353.6L684.9,351.5L686.3,348.7L685.2,343.7L685.9,340.5L688.7,334.0L684.8,327.4L683.6,328.9L681.8,331.3L677.7,334.2L675.9,345.6L673.7,345.6L669.2,346.6L667.3,345.7L664.6,345.2Z " data-id="AF.KB" data-name="Kabul" id="AF.KB"/>
utf-8utf-8<path d="M670.6,305.1L667.3,301.6L662.1,299.4L658.7,299.0L653.9,300.5L649.4,300.4L647.8,299.8L643.9,300.4L640.5,299.2L634.0,299.0L632.9,299.6L634.1,303.1L635.6,311.6L639.2,313.9L641.4,314.4L648.4,320.0L652.9,320.2L659.1,322.3L660.0,324.3L662.2,336.0L665.2,340.3L667.2,341.7L667.3,342.9L667.3,345.7L669.2,346.6L673.7,345.6L675.9,345.6L677.7,334.2L681.8,331.3L683.6,328.9L684.8,327.4L685.7,325.3L677.6,312.4L674.6,310.4L672.6,306.9L670.6,305.1Z " data-id="AF.KP" data-name="Kapisa" id="AF.KP"/>
utf-8utf-8<path d="M686.3,235.4L683.8,233.7L683.6,236.5L681.7,239.4L680.2,240.2L675.3,240.8L672.5,242.0L670.2,241.4L669.2,241.1L668.8,243.5L664.0,250.1L660.9,250.5L659.6,253.4L659.9,263.2L659.3,265.4L655.9,266.5L648.0,272.5L646.9,273.1L642.8,272.5L639.5,272.9L636.4,276.7L634.3,276.5L632.0,277.9L629.6,277.8L626.6,278.8L627.1,281.1L627.1,285.1L629.3,295.3L630.2,300.0L632.9,299.6L634.0,299.0L640.5,299.2L643.9,300.4L647.8,299.8L649.4,300.4L653.9,300.5L658.7,299.0L662.1,299.4L667.3,301.6L670.6,305.1L672.6,306.9L673.0,305.3L672.9,304.3L678.9,300.2L679.9,299.1L682.1,294.3L682.3,293.0L681.4,288.2L679.8,285.9L676.2,283.3L676.0,282.1L678.1,279.6L682.9,276.7L684.9,271.3L686.6,271.6L690.2,270.1L691.4,267.0L690.1,264.0L692.5,261.4L691.8,255.9L692.2,253.7L692.4,252.5L691.6,245.5L690.9,241.5L691.4,237.4L686.3,235.4Z " data-id="AF.PV" data-name="Parwan" id="AF.PV"/>
utf-8utf-8<path d="M731.1,316.6L724.0,321.7L720.4,322.8L714.3,320.5L707.5,316.1L702.9,311.7L701.0,307.9L698.6,306.0L692.4,305.0L688.0,303.0L687.0,299.5L683.1,294.5L682.3,293.0L682.1,294.3L679.9,299.1L678.9,300.2L672.9,304.3L673.0,305.3L672.6,306.9L674.6,310.4L677.6,312.4L685.7,325.3L684.8,327.4L688.7,334.0L685.9,340.5L685.2,343.7L686.3,348.7L684.9,351.5L685.5,353.6L687.2,356.4L687.0,365.0L687.7,367.1L690.1,367.8L697.9,366.9L701.9,366.1L706.4,367.0L711.6,364.7L719.1,363.4L723.0,362.2L728.8,357.9L729.7,354.0L729.3,351.2L726.7,345.2L728.1,343.7L732.4,341.6L732.1,338.0L734.8,334.2L737.1,332.9L739.2,332.2L738.8,329.3L738.0,325.8L733.8,317.0L733.2,315.9L732.0,314.7L731.1,316.6Z " data-id="AF.LA" data-name="Laghman" id="AF.LA"/>
utf-8utf-8<path d="M667.9,390.9L662.2,385.2L660.5,382.5L652.8,375.3L649.2,371.3L641.5,375.6L638.2,376.3L626.4,372.6L624.9,374.9L624.0,377.1L622.9,382.3L619.9,386.3L619.1,389.7L619.1,392.7L621.1,398.0L625.5,401.2L627.2,403.8L626.6,405.4L623.2,406.1L619.9,408.6L618.9,412.3L619.8,413.3L620.3,419.8L618.4,422.6L620.9,423.7L624.6,429.8L623.2,431.0L626.4,438.4L626.4,438.4L637.5,438.5L643.3,438.8L645.3,437.2L647.1,429.8L654.6,422.7L661.3,419.2L672.5,405.0L673.6,400.4L675.0,399.4L681.9,399.2L686.3,400.7L687.1,403.3L688.8,403.0L696.4,397.2L701.5,399.8L699.8,397.9L696.4,392.9L690.7,385.6L687.7,383.4L682.5,382.0L674.7,386.1L670.1,389.9L668.6,389.7L667.9,390.9Z " data-id="AF.LW" data-name="Logar" id="AF.LW"/>
utf-8utf-8<path d="M625.0,277.1L620.2,276.3L617.0,279.8L613.6,281.5L610.5,286.8L607.6,287.7L606.5,289.6L603.8,291.8L598.9,289.9L596.2,290.7L594.8,292.2L592.8,297.1L586.9,302.6L583.6,303.4L584.3,307.3L582.5,308.4L577.4,309.0L572.7,308.6L568.0,309.3L560.6,307.7L555.0,312.6L554.7,313.3L559.5,317.5L561.1,320.2L562.9,327.1L563.1,329.9L565.2,331.4L566.3,332.2L567.1,333.8L568.7,337.4L573.4,341.2L575.8,346.8L578.5,347.9L583.3,345.2L587.0,342.4L594.5,343.3L599.4,345.5L605.6,346.5L612.0,348.4L612.9,348.2L613.1,344.6L611.9,340.8L613.6,334.8L614.2,328.4L616.2,323.6L621.9,325.0L629.8,325.3L633.3,325.0L640.9,329.3L642.1,331.7L647.1,337.4L650.2,338.8L653.1,343.2L657.0,350.9L658.6,351.2L662.2,349.6L664.6,345.2L667.3,345.7L667.3,342.9L667.2,341.7L665.2,340.3L662.2,336.0L660.0,324.3L659.1,322.3L652.9,320.2L648.4,320.0L641.4,314.4L639.2,313.9L635.6,311.6L634.1,303.1L632.9,299.6L630.2,300.0L629.3,295.3L627.1,285.1L627.1,281.1L626.6,278.8L625.0,277.1Z " data-id="AF.PV" data-name="Parwan" id="AF.PV"/>
utf-8utf-8<path d="M516.2,172.5L514.3,172.9L495.4,170.4L493.6,169.9L489.4,167.5L483.6,165.2L478.5,166.6L469.9,165.9L468.9,166.2L468.5,168.7L463.5,171.2L462.2,173.2L467.1,179.5L467.0,190.3L467.9,194.4L467.6,199.0L466.0,201.6L466.9,204.7L462.2,210.3L457.2,211.3L451.4,216.6L450.3,218.1L456.8,227.1L456.3,231.0L455.2,231.7L450.6,240.0L445.9,243.8L445.2,248.4L445.5,249.4L453.2,252.7L455.2,257.1L453.8,259.3L455.6,260.2L455.2,264.8L456.2,267.1L456.0,272.3L453.3,275.8L448.0,279.5L447.3,280.4L451.7,282.0L453.8,282.4L461.3,282.4L463.2,281.9L469.2,279.0L474.6,277.5L480.9,274.8L485.3,275.2L488.4,276.1L495.7,272.8L501.9,271.8L513.9,274.1L517.6,272.8L532.1,274.0L538.3,272.6L541.3,268.5L541.4,265.4L543.1,261.6L542.9,258.9L539.2,256.3L539.0,251.9L546.3,237.8L545.6,224.9L547.9,223.3L553.3,217.2L554.4,215.6L556.3,210.1L554.7,207.8L546.7,202.4L537.6,195.4L530.6,187.1L525.7,181.8L522.0,175.8L522.8,173.7L524.9,172.9L525.8,172.1L523.2,171.4L521.6,170.1L516.2,172.5Z " data-id="AF.SM" data-name="Samangan" id="AF.SM"/>
utf-8utf-8<path d="M612.0,348.4L605.6,346.5L599.4,345.5L594.5,343.3L587.0,342.4L583.3,345.2L578.5,347.9L575.8,346.8L573.4,341.2L568.7,337.4L567.1,333.8L566.3,332.2L558.7,336.6L551.0,342.1L548.7,345.4L547.5,350.5L542.9,350.0L528.3,346.1L523.8,346.2L515.9,345.1L514.3,343.8L510.3,343.1L508.5,344.4L501.9,345.9L497.9,346.4L497.6,350.8L501.8,354.4L502.2,357.6L501.1,358.6L497.7,359.6L496.7,362.0L499.4,366.7L509.4,367.3L511.3,369.6L511.8,374.3L520.8,377.8L521.9,378.5L520.3,383.2L514.8,385.5L514.7,390.3L516.3,391.5L519.9,392.0L523.7,390.6L525.1,386.9L531.0,385.3L532.9,385.2L538.2,386.7L545.1,390.7L548.6,391.0L555.0,389.1L559.7,385.7L562.7,386.8L566.8,390.7L572.1,406.3L573.0,407.8L579.9,410.4L581.4,412.0L585.5,414.3L595.0,422.6L599.5,422.9L600.6,424.9L600.7,430.2L601.3,431.2L606.3,432.8L608.8,432.4L614.3,428.7L617.0,424.4L618.4,422.6L620.3,419.8L619.8,413.3L618.9,412.3L619.9,408.6L623.2,406.1L626.6,405.4L627.2,403.8L625.5,401.2L621.1,398.0L619.1,392.7L619.1,389.7L619.9,386.3L622.9,382.3L624.0,377.1L624.9,374.9L626.4,372.6L625.6,371.3L623.4,366.9L619.8,364.8L617.3,364.1L616.1,363.0L613.6,358.7L612.7,351.3L612.9,348.2L612.0,348.4Z " data-id="AF.VR" data-name="Wardak" id="AF.VR"/>
utf-8utf-8<path d="M696.4,397.2L688.8,403.0L687.1,403.3L686.3,400.7L681.9,399.2L675.0,399.4L673.6,400.4L672.5,405.0L661.3,419.2L654.6,422.7L647.1,429.8L645.3,437.2L643.3,438.8L637.5,438.5L626.4,438.4L626.9,441.7L628.8,447.5L631.5,452.5L630.6,456.5L630.5,458.0L635.5,456.0L641.5,456.2L643.4,457.0L646.9,460.8L647.7,462.8L648.8,468.8L652.1,478.7L652.6,479.3L665.7,470.6L665.2,468.9L670.8,471.5L673.7,471.6L676.8,470.4L678.9,470.8L680.5,471.2L680.5,469.4L682.3,466.3L682.7,463.6L685.9,460.0L687.4,459.0L688.4,456.2L688.9,450.5L687.0,448.1L688.0,443.6L689.9,441.7L696.1,439.1L701.1,438.6L702.9,439.6L704.4,436.2L714.1,430.9L715.0,429.5L715.0,426.9L713.2,426.7L711.9,426.0L708.9,421.2L706.5,418.6L702.8,412.6L700.2,410.4L701.2,401.1L702.3,400.7L701.5,399.8L696.4,397.2Z " data-id="AF.PT" data-name="Paktya" id="AF.PT"/>
utf-8</g>
</svg>
