<?xml version="1.0" ?>
<!DOCTYPE svg
  PUBLIC '-//W3C//DTD SVG 1.1//EN'
  'http://www.w3.org/Graphics/SVG/1.1/DTD/svg11.dtd'>
<svg enable_background="new 0 0 1000 1314" height="1314px" pretty_print="True" style="stroke-linejoin: round; stroke:#000; fill: none;" version="1.1" viewBox="0 0 1000 1314" width="1000px" xmlns="http://www.w3.org/2000/svg" xmlns:xlink="http://www.w3.org/1999/xlink">
utf-8<defs>
utf-8utf-8<style type="text/css">
<![CDATA[path { fill-rule: evenodd; }]]>utf-8utf-8</style>
utf-8</defs>
utf-8<metadata>
utf-8utf-8<views>
utf-8utf-8utf-8<view h="1314.42774293" padding="0" w="1000">
utf-8utf-8utf-8utf-8<proj flip="auto" id="robinson" lon0="-61.7817640955"/>
utf-8utf-8utf-8utf-8<bbox h="13.34" w="10.16" x="-911.71" y="-297.27"/>
utf-8utf-8utf-8</view>
utf-8utf-8</views>
utf-8</metadata>
utf-8<g class="" id="provinces">
utf-8utf-8<path d="M846.9,0.0L825.9,12.2L816.3,43.9L825.2,61.9L849.6,77.8L855.3,115.0L849.5,157.0L839.7,187.8L823.8,177.3L825.1,161.8L832.5,142.3L834.9,119.2L828.8,101.8L808.7,71.7L801.6,51.7L800.4,38.9L798.7,33.6L793.9,28.1L789.9,60.3L793.6,86.1L799.7,111.4L803.6,141.7L800.8,209.0L806.6,232.7L826.0,221.6L887.0,250.0L910.8,270.9L917.3,300.4L942.7,290.6L957.4,292.1L967.7,286.4L980.1,255.4L985.0,229.7L986.0,202.4L980.0,153.0L971.8,125.9L958.5,97.2L940.8,71.0L919.3,51.7L901.0,47.6L869.9,59.1L851.6,51.7L861.9,46.7L872.1,40.4L846.9,0.0Z " data-id="AG.BB" data-name="Barbuda" id="AG.BB"/>
utf-8utf-8<path d="M1.9,1312.4L5.7,1311.5L8.1,1307.3L8.9,1297.7L6.6,1298.5L2.3,1303.5L0.4,1309.6L1.9,1312.4Z " data-id="AG.RD" data-name="Redonda" id="AG.RD"/>
utf-8utf-8<path d="M854.6,991.5L846.5,957.5L830.8,928.2L830.5,961.2L809.9,962.9L808.5,996.6L819.2,1008.4L820.6,1043.7L816.1,1062.2L835.4,1077.4L845.2,1082.4L857.5,1058.8L874.2,1052.1L874.1,1035.3L867.9,1021.8L876.8,1011.9L854.6,991.5Z " data-id="AG.GE" data-name="Saint George" id="AG.GE"/>
utf-8utf-8<path d="M919.8,1035.5L915.3,1011.9L928.6,1008.7L935.1,1004.3L939.7,998.1L947.4,989.4L930.7,991.8L916.9,989.1L906.4,980.9L899.4,966.8L884.1,987.6L879.4,997.3L876.8,1011.9L867.9,1021.8L874.1,1035.3L874.2,1052.1L857.5,1058.8L845.2,1082.4L843.6,1100.9L880.3,1100.9L902.9,1094.2L912.9,1062.2L933.6,1046.7L919.8,1035.5Z " data-id="AG.PE" data-name="Saint Peter" id="AG.PE"/>
utf-8utf-8<path d="M932.4,1143.9L950.1,1154.3L966.5,1153.1L985.1,1124.5L990.0,1105.3L983.7,1096.4L972.1,1087.6L960.3,1069.2L970.0,1070.0L989.9,1068.4L999.6,1069.2L994.7,1050.7L990.5,1042.5L983.8,1034.4L973.1,1034.4L952.6,1046.1L933.6,1046.7L912.9,1062.2L902.9,1094.2L909.6,1136.8L932.4,1143.9Z " data-id="AG.PH" data-name="Saint Philip" id="AG.PH"/>
utf-8utf-8<path d="M902.9,1094.2L880.3,1100.9L843.6,1100.9L829.2,1097.6L796.1,1107.7L783.2,1121.1L791.6,1143.0L785.7,1161.5L793.3,1188.2L824.1,1172.3L834.0,1169.6L843.1,1182.1L864.5,1205.5L887.1,1218.0L899.5,1198.3L896.1,1157.7L897.9,1142.7L909.6,1136.8L902.9,1094.2Z " data-id="AG.PA" data-name="Saint Paul" id="AG.PA"/>
utf-8utf-8<path d="M777.5,1102.6L753.2,1129.5L762.6,1087.5L771.5,1068.9L770.5,1063.9L746.1,1057.2L734.0,1043.7L715.1,1057.0L690.6,1070.2L688.9,1084.4L692.7,1100.5L684.7,1119.4L673.1,1141.9L681.5,1156.9L724.8,1187.6L743.2,1192.3L773.1,1192.1L793.3,1188.2L785.7,1161.5L791.6,1143.0L783.2,1121.1L777.5,1102.6Z " data-id="AG.MA" data-name="Saint Mary" id="AG.MA"/>
utf-8utf-8<path d="M785.4,921.9L763.5,936.6L748.9,953.7L744.8,973.2L754.6,995.0L720.6,1005.9L694.1,1018.0L676.8,1034.4L705.2,1052.5L715.1,1057.0L734.0,1043.7L746.1,1057.2L770.5,1063.9L771.5,1068.9L762.6,1087.5L753.2,1129.5L777.5,1102.6L783.2,1121.1L796.1,1107.7L829.2,1097.6L843.6,1100.9L845.2,1082.4L835.4,1077.4L816.1,1062.2L820.6,1043.7L819.2,1008.4L808.5,996.6L809.9,962.9L830.5,961.2L830.8,928.2L785.4,921.9Z " data-id="AG.JO" data-name="Saint John" id="AG.JO"/>
utf-8</g>
</svg>
