<?xml version="1.0" ?>
<!DOCTYPE svg
  PUBLIC '-//W3C//DTD SVG 1.1//EN'
  'http://www.w3.org/Graphics/SVG/1.1/DTD/svg11.dtd'>
<svg enable_background="new 0 0 1000 599" height="599px" pretty_print="True" style="stroke-linejoin: round; stroke:#000; fill: none;" version="1.1" viewBox="0 0 1000 599" width="1000px" xmlns="http://www.w3.org/2000/svg" xmlns:xlink="http://www.w3.org/1999/xlink">
utf-8<defs>
utf-8utf-8<style type="text/css">
<![CDATA[path { fill-rule: evenodd; }]]>utf-8utf-8</style>
utf-8</defs>
utf-8<metadata>
utf-8utf-8<views>
utf-8utf-8utf-8<view h="599.00212686" padding="0" w="1000">
utf-8utf-8utf-8utf-8<proj flip="auto" id="robinson" lon0="-63.0922478123"/>
utf-8utf-8utf-8utf-8<bbox h="1.8" w="3.01" x="-921.86" y="-306.47"/>
utf-8utf-8utf-8</view>
utf-8utf-8</views>
utf-8</metadata>
utf-8<g class="" id="provinces">
utf-8utf-8<path d="M538.0,355.7L514.8,392.8L480.9,409.8L483.2,357.6L438.9,387.2L405.5,416.0L335.9,418.3L329.9,442.6L275.9,442.6L272.5,481.6L292.9,508.3L323.3,534.1L335.0,557.6L530.9,431.5L538.0,355.7Z " data-id="AI.BP" data-name="Blowing Point" id="AI.BP"/>
utf-8utf-8<path d="M892.8,8.6L862.6,50.6L826.0,50.6L829.6,19.0L799.5,24.8L793.8,86.0L843.9,86.0L880.1,112.6L872.3,134.8L841.1,181.3L877.7,181.3L871.1,233.1L881.5,220.0L994.7,39.8L999.2,3.2L944.5,0.0L892.8,8.6Z " data-id="AI.EE" data-name="East End" id="AI.EE"/>
utf-8utf-8<path d="M541.5,318.6L483.2,357.6L480.9,409.8L514.8,392.8L538.0,355.7L541.5,318.6Z " data-id="AI.GH" data-name="George Hill" id="AI.GH"/>
utf-8utf-8<path d="M829.6,19.0L826.0,50.6L862.6,50.6L892.8,8.6L829.6,19.0Z " data-id="AI.IH" data-name="Island Harbour" id="AI.IH"/>
utf-8utf-8<path d="M492.4,250.8L464.6,280.7L473.4,311.0L469.8,334.6L503.2,316.4L541.5,318.6L614.7,276.5L492.4,250.8Z " data-id="AI.NH" data-name="North Hill" id="AI.NH"/>
utf-8utf-8<path d="M666.3,132.5L730.1,130.3L752.2,77.2L753.1,33.8L677.8,48.4L589.4,122.9L555.6,170.5L613.6,228.0L666.3,132.5Z " data-id="AI.NS" data-name="North Side" id="AI.NS"/>
utf-8utf-8<path d="M473.4,311.0L464.6,280.7L422.0,326.6L364.2,355.8L454.5,343.0L469.8,334.6L473.4,311.0Z " data-id="AI.SG" data-name="Sandy Ground" id="AI.SG"/>
utf-8utf-8<path d="M880.1,112.6L800.0,145.8L742.6,141.4L704.5,229.5L677.0,269.9L688.9,287.6L688.9,341.5L783.0,311.4L839.7,272.9L871.1,233.1L877.7,181.3L841.1,181.3L872.3,134.8L880.1,112.6Z " data-id="AI.SH" data-name="Sandy Hill" id="AI.SH"/>
utf-8utf-8<path d="M503.2,316.4L469.8,334.6L454.5,343.0L364.2,355.8L238.4,380.2L227.0,516.4L272.5,481.6L275.9,442.6L329.9,442.6L335.9,418.3L405.5,416.0L438.9,387.2L483.2,357.6L541.5,318.6L503.2,316.4Z " data-id="AI.SO" data-name="South Hill" id="AI.SO"/>
utf-8utf-8<path d="M843.9,86.0L793.8,86.0L799.5,24.8L753.1,33.8L752.2,77.2L730.1,130.3L666.3,132.5L613.6,228.0L631.4,245.7L639.2,231.0L704.5,229.5L742.6,141.4L800.0,145.8L880.1,112.6L843.9,86.0Z " data-id="AI.ST" data-name="Stoney Ground" id="AI.ST"/>
utf-8utf-8<path d="M677.0,269.9L614.7,276.5L541.5,318.6L538.0,355.7L530.9,431.5L652.8,353.0L688.9,341.5L688.9,287.6L677.0,269.9Z " data-id="AI.TF" data-name="The Farrington" id="AI.TF"/>
utf-8utf-8<path d="M704.5,229.5L639.2,231.0L631.4,245.7L614.7,276.5L677.0,269.9L704.5,229.5Z " data-id="AI.TQ" data-name="The Quarter" id="AI.TQ"/>
utf-8utf-8<path d="M555.6,170.5L518.9,222.2L492.4,250.8L614.7,276.5L631.4,245.7L613.6,228.0L555.6,170.5Z " data-id="AI.TV" data-name="The Valley" id="AI.TV"/>
utf-8utf-8<path d="M227.0,516.4L238.4,380.2L180.4,402.4L140.0,435.4L0.8,595.6L84.6,597.0L153.0,573.0L227.0,516.4Z " data-id="AI.WE" data-name="West End" id="AI.WE"/>
utf-8</g>
</svg>
