<?xml version="1.0" ?>
<!DOCTYPE svg
  PUBLIC '-//W3C//DTD SVG 1.1//EN'
  'http://www.w3.org/Graphics/SVG/1.1/DTD/svg11.dtd'>
<svg enable_background="new 0 0 1000 1985" height="1985px" pretty_print="True" style="stroke-linejoin: round; stroke:#000; fill: none;" version="1.1" viewBox="0 0 1000 1985" width="1000px" xmlns="http://www.w3.org/2000/svg" xmlns:xlink="http://www.w3.org/1999/xlink">
utf-8<defs>
utf-8utf-8<style type="text/css">
<![CDATA[path { fill-rule: evenodd; }]]>utf-8utf-8</style>
utf-8</defs>
utf-8<metadata>
utf-8utf-8<views>
utf-8utf-8utf-8<view h="1985.31602707" padding="0" w="1000">
utf-8utf-8utf-8utf-8<proj flip="auto" id="robinson" lon0="19.532816228"/>
utf-8utf-8utf-8utf-8<bbox h="49.59" w="24.99" x="261.24" y="-715.35"/>
utf-8utf-8utf-8</view>
utf-8utf-8</views>
utf-8</metadata>
utf-8<g class="" id="provinces">
utf-8utf-8<path d="M278.9,707.1L274.7,704.4L269.3,700.2L263.9,694.7L260.8,693.0L258.1,692.8L255.1,695.0L253.5,700.0L250.4,704.0L244.0,708.5L227.6,713.4L219.2,714.3L212.3,713.6L208.2,711.2L205.0,708.7L199.9,703.3L197.4,701.3L187.7,696.2L184.6,696.0L172.9,700.4L164.8,701.4L162.0,703.1L160.4,707.0L142.5,698.5L140.8,697.3L140.8,697.3L125.8,701.6L78.1,695.8L84.7,702.8L94.6,716.2L103.0,723.0L110.8,726.3L116.8,727.9L121.0,732.0L123.3,742.9L120.5,760.2L111.2,773.8L98.7,783.8L86.4,790.3L90.2,807.1L82.0,816.2L70.0,816.8L62.1,808.2L64.3,815.7L72.9,822.5L75.2,828.3L77.6,855.3L81.2,867.7L88.6,873.5L98.7,875.2L110.6,875.2L119.6,878.3L128.4,886.3L135.0,897.8L137.4,908.4L150.8,906.9L166.2,912.7L177.0,919.2L186.2,901.1L199.3,889.9L202.2,885.0L203.1,877.9L202.9,870.2L201.7,862.1L201.8,850.9L201.3,845.9L199.8,842.9L194.3,840.8L191.2,838.0L187.5,831.6L186.4,823.9L184.2,786.8L198.1,783.9L209.4,786.6L212.6,785.1L214.9,782.1L216.2,778.6L218.7,775.5L220.9,777.0L222.9,780.8L225.6,791.7L227.0,794.7L229.1,797.8L234.9,803.1L236.4,806.4L239.0,810.5L242.5,812.1L249.0,812.3L253.5,811.0L258.9,808.4L273.8,798.3L295.4,790.0L297.9,788.4L299.2,783.3L300.3,781.4L302.7,782.4L308.3,786.4L312.5,786.9L317.2,785.1L325.8,776.8L329.7,771.7L335.6,759.3L336.8,755.9L337.1,752.2L337.1,745.2L314.4,729.9L293.2,708.1L278.9,707.1Z " data-id="AL.DU" data-name="Durrës" id="AL.DU"/>
utf-8utf-8<path d="M234.0,1037.3L233.5,1034.4L232.6,1033.5L227.4,1034.3L218.5,1039.4L215.6,1040.6L212.7,1040.0L210.0,1038.2L204.6,1038.2L202.6,1036.6L198.3,1035.9L194.2,1034.0L192.2,1033.8L188.3,1035.5L183.2,1038.5L174.4,1045.5L170.2,1048.0L164.9,1048.7L156.5,1048.4L151.7,1046.8L149.0,1047.1L146.6,1048.8L142.1,1055.6L139.9,1056.7L136.6,1055.3L131.7,1049.6L129.6,1047.9L127.8,1047.6L123.3,1048.6L125.8,1051.9L126.4,1056.0L123.6,1057.2L122.0,1057.0L119.4,1059.3L114.7,1073.2L118.0,1075.5L127.1,1078.8L130.1,1082.1L132.5,1095.8L129.5,1107.8L124.1,1117.0L118.7,1122.5L122.2,1126.4L122.6,1129.3L135.0,1109.6L140.4,1094.5L140.8,1077.6L145.2,1090.5L153.4,1102.4L160.2,1115.3L160.6,1131.5L152.3,1141.7L124.9,1154.4L118.5,1163.3L116.0,1153.9L115.1,1163.3L111.1,1163.3L109.9,1149.4L113.2,1136.3L107.3,1120.8L114.2,1113.1L105.8,1119.0L96.4,1133.1L88.4,1136.0L84.0,1139.6L90.1,1148.2L99.2,1158.0L104.2,1165.6L102.7,1166.7L99.5,1170.7L96.0,1176.0L94.1,1181.3L96.3,1185.4L100.8,1191.6L102.8,1197.2L97.3,1199.7L87.5,1202.4L83.2,1209.5L82.3,1220.2L85.0,1259.3L83.8,1270.4L79.8,1280.7L73.5,1287.3L65.3,1293.4L58.4,1299.9L56.4,1307.7L56.6,1308.1L70.2,1306.9L78.7,1304.1L86.7,1304.6L94.5,1306.4L106.4,1310.6L115.3,1315.6L120.6,1314.8L133.1,1309.5L136.0,1309.3L137.3,1310.4L137.8,1315.5L140.1,1318.0L143.7,1320.5L150.1,1324.0L152.4,1326.3L153.1,1328.7L152.8,1331.2L154.2,1334.5L157.1,1335.8L162.1,1336.2L167.6,1337.7L181.0,1343.8L184.4,1346.0L186.2,1347.9L187.0,1353.3L188.5,1355.8L191.0,1356.6L194.6,1356.8L198.6,1355.5L203.8,1356.2L206.4,1361.9L208.7,1368.3L210.6,1369.6L213.5,1370.4L218.5,1370.0L222.7,1372.0L230.1,1373.3L240.2,1373.2L256.5,1383.4L260.3,1385.0L266.8,1385.2L269.6,1386.5L273.3,1389.1L277.6,1390.9L282.6,1390.4L284.8,1391.6L288.5,1395.5L290.7,1398.9L292.1,1405.0L290.2,1412.9L291.2,1413.8L299.4,1415.3L301.5,1416.5L302.9,1418.5L303.2,1422.6L302.9,1429.4L302.4,1431.4L305.1,1440.9L305.2,1444.2L304.0,1449.9L304.2,1452.6L305.5,1455.1L309.1,1457.9L313.4,1459.1L318.7,1458.3L326.1,1459.9L333.9,1461.3L336.7,1457.0L349.8,1427.5L353.1,1423.3L368.5,1411.0L371.8,1407.0L374.9,1402.3L377.7,1396.4L380.2,1393.3L382.7,1391.8L390.3,1390.9L386.2,1379.1L379.0,1374.4L371.2,1372.0L357.4,1363.6L350.9,1356.3L341.1,1335.9L338.2,1331.8L332.9,1328.0L336.4,1326.3L340.3,1323.3L344.5,1319.0L345.0,1313.2L341.8,1308.1L325.6,1292.2L320.9,1278.4L318.0,1276.1L313.3,1273.4L308.6,1272.0L301.3,1268.6L298.7,1265.9L297.7,1262.7L296.7,1253.2L298.8,1246.8L299.0,1240.4L296.5,1235.9L285.2,1223.3L282.1,1217.8L280.2,1212.8L279.8,1209.9L280.0,1203.0L292.7,1203.0L295.4,1203.4L297.8,1202.6L297.1,1195.8L298.7,1192.6L297.9,1187.6L299.9,1183.2L301.1,1179.9L307.3,1176.5L315.3,1173.8L321.1,1171.0L323.9,1172.3L326.6,1175.8L329.5,1178.7L334.9,1177.4L352.5,1177.8L355.1,1173.2L353.4,1169.1L350.4,1165.9L328.0,1160.1L324.5,1157.8L319.4,1153.3L313.7,1144.2L312.1,1140.3L311.1,1132.9L312.5,1121.3L312.2,1118.0L309.5,1102.3L309.8,1100.1L313.3,1092.3L312.9,1079.7L305.4,1077.0L299.1,1077.7L295.0,1075.8L289.0,1071.7L283.5,1070.6L264.1,1072.0L250.6,1068.5L242.4,1064.3L237.4,1059.0L234.3,1053.1L232.5,1046.1L233.0,1042.1L234.0,1037.3Z " data-id="AL.FI" data-name="Fier" id="AL.FI"/>
utf-8utf-8<path d="M111.7,532.5L109.4,525.2L74.7,501.9L71.9,494.0L72.9,486.6L76.7,481.5L81.6,480.8L89.0,483.4L108.4,493.6L118.2,497.2L125.6,495.0L131.3,488.8L128.4,475.5L124.9,468.2L122.2,465.4L127.9,463.2L136.8,461.9L145.9,466.2L149.3,466.8L155.3,466.9L157.8,468.6L154.0,475.4L154.0,478.1L155.0,480.1L162.1,483.8L166.5,484.0L185.9,481.2L190.6,481.7L195.1,483.9L205.5,491.1L212.7,493.7L217.4,491.9L221.6,488.9L225.2,485.5L226.9,483.1L227.3,480.8L226.5,478.3L219.1,466.0L235.7,465.2L245.6,460.4L248.9,460.3L252.9,461.9L257.3,464.8L265.8,467.4L270.3,467.5L274.3,466.4L277.0,464.4L280.3,460.2L285.3,455.8L290.0,450.4L296.0,447.0L301.5,445.5L305.0,445.7L308.4,448.4L309.7,451.5L311.8,458.3L316.7,467.9L319.3,471.1L330.9,483.0L332.4,485.9L332.7,488.4L331.7,490.1L327.6,494.0L327.1,496.6L327.8,499.3L330.3,502.3L333.4,504.6L338.3,506.1L359.2,506.7L363.4,505.7L366.1,503.6L371.4,493.0L374.8,488.3L385.9,477.5L393.7,473.2L398.3,469.4L402.8,462.6L406.1,449.5L410.4,444.9L416.3,441.1L449.3,425.5L469.4,407.1L455.9,396.6L450.7,390.1L446.8,387.7L443.8,388.1L440.3,390.1L436.2,391.6L430.1,392.0L430.2,390.8L437.1,380.9L439.4,372.2L438.0,367.9L434.8,362.7L436.0,357.6L448.7,338.9L452.3,335.2L456.9,331.8L463.3,328.0L472.1,321.1L476.8,311.3L471.9,300.3L455.0,294.1L450.2,293.0L447.2,290.4L444.7,287.5L441.3,285.2L437.3,284.5L424.6,285.2L360.8,258.6L353.6,256.6L340.7,255.0L332.3,263.0L300.2,261.7L296.9,262.8L293.6,265.0L286.5,272.2L283.4,274.3L275.2,277.1L272.7,280.4L259.0,279.1L251.0,275.2L247.2,272.9L245.9,270.3L247.2,265.7L249.0,251.3L248.3,245.7L245.6,236.9L236.5,214.7L233.6,204.5L232.5,196.8L232.8,191.6L230.7,175.1L229.0,169.7L227.1,165.8L217.7,156.2L216.7,154.0L217.5,152.1L222.1,147.8L223.6,145.1L225.3,138.8L233.2,127.3L236.0,120.8L231.0,122.2L221.1,121.1L211.6,117.0L192.8,104.7L181.6,84.6L179.2,78.6L178.5,74.2L178.6,64.4L179.1,59.8L182.4,52.2L184.6,48.6L185.6,49.2L183.4,36.3L177.4,19.7L167.8,5.7L155.0,0.0L142.9,5.3L128.9,17.5L116.2,32.3L108.4,45.4L106.1,54.3L104.6,71.4L102.3,79.1L96.3,86.0L88.9,89.9L82.9,94.9L75.4,116.8L68.9,127.7L60.9,136.7L50.9,143.0L44.6,153.6L19.7,182.2L17.2,185.9L13.1,196.5L12.5,201.3L13.6,210.2L13.4,213.2L22.0,207.6L31.1,205.1L20.1,227.3L4.9,251.0L0.3,275.1L20.5,298.7L27.1,301.7L35.5,303.7L40.3,307.5L44.0,313.6L46.0,319.4L49.5,323.6L58.3,325.3L66.3,333.5L69.1,351.9L68.4,378.5L72.8,382.9L40.8,378.7L11.9,368.2L11.4,367.9L4.9,383.3L3.3,394.5L3.8,407.4L6.9,419.8L17.3,434.2L15.4,445.2L12.4,447.6L8.0,448.1L5.4,450.5L10.2,465.5L9.3,470.2L7.6,473.5L7.2,476.8L7.9,481.2L7.8,483.9L9.3,486.4L14.7,490.8L19.6,497.8L20.7,514.8L21.8,521.6L57.5,511.1L67.7,515.0L75.9,519.6L111.7,532.5Z " data-id="AL.SD" data-name="Shkodër" id="AL.SD"/>
utf-8utf-8<path d="M236.0,120.8L233.2,127.3L225.3,138.8L223.6,145.1L222.1,147.8L217.5,152.1L216.7,154.0L217.7,156.2L227.1,165.8L229.0,169.7L230.7,175.1L232.8,191.6L232.5,196.8L233.6,204.5L236.5,214.7L245.6,236.9L248.3,245.7L249.0,251.3L247.2,265.7L245.9,270.3L247.2,272.9L251.0,275.2L259.0,279.1L272.7,280.4L275.2,277.1L283.4,274.3L286.5,272.2L293.6,265.0L296.9,262.8L300.2,261.7L332.3,263.0L340.7,255.0L353.6,256.6L360.8,258.6L424.6,285.2L437.3,284.5L441.3,285.2L444.7,287.5L447.2,290.4L450.2,293.0L455.0,294.1L471.9,300.3L476.8,311.3L472.1,321.1L463.3,328.0L456.9,331.8L452.3,335.2L448.7,338.9L436.0,357.6L434.8,362.7L438.0,367.9L439.4,372.2L437.1,380.9L430.2,390.8L430.1,392.0L436.2,391.6L440.3,390.1L443.8,388.1L446.8,387.7L450.7,390.1L455.9,396.6L469.4,407.1L485.6,409.6L492.5,414.0L495.2,418.1L501.0,430.0L501.5,433.9L500.8,437.4L499.5,440.8L499.3,445.4L499.7,450.4L500.8,456.8L500.4,460.0L499.0,462.1L489.5,470.0L486.2,474.0L481.5,477.4L480.2,479.3L474.2,491.1L478.6,495.7L479.1,502.2L479.8,505.4L481.7,508.7L486.1,511.9L492.1,512.6L501.7,510.5L507.1,507.2L511.2,503.1L513.9,498.7L517.0,495.0L524.5,491.9L535.5,492.8L534.9,494.9L539.3,507.3L556.3,527.9L560.6,537.4L560.3,542.3L573.5,540.6L580.8,538.1L586.0,535.1L587.9,532.1L584.5,528.2L584.2,526.2L590.0,525.1L601.1,524.8L635.2,530.3L643.9,528.8L653.0,526.1L657.9,526.5L657.3,515.6L670.4,508.1L670.3,503.3L666.8,495.3L666.2,490.5L668.0,482.7L671.0,479.1L674.7,476.4L678.6,471.3L683.2,459.4L682.4,451.1L678.9,442.6L675.2,429.6L654.4,389.6L650.0,377.4L647.9,356.6L645.4,345.1L638.0,327.8L613.8,288.0L602.3,275.4L587.7,262.5L516.9,218.7L508.5,217.5L471.8,218.3L465.3,217.4L460.5,213.0L454.8,202.3L453.6,197.7L453.7,188.9L451.9,183.9L448.4,180.0L439.4,173.5L436.5,169.5L436.8,165.3L441.7,157.7L441.3,152.3L438.2,147.3L430.4,141.1L427.1,137.4L408.8,104.7L398.6,94.2L370.5,81.0L358.3,70.1L343.8,63.0L332.9,70.4L315.7,93.5L302.3,97.0L276.0,96.3L263.4,104.6L258.7,109.0L239.4,119.8L236.0,120.8Z " data-id="AL.KK" data-name="Kukës" id="AL.KK"/>
utf-8utf-8<path d="M56.3,1425.5L58.3,1412.7L55.7,1409.2L48.3,1404.3L45.8,1400.1L42.1,1401.0L41.0,1405.3L46.4,1413.9L50.0,1420.6L52.1,1425.5L55.9,1426.3L56.3,1425.5Z M646.1,1870.9L644.6,1867.6L638.0,1859.2L638.3,1842.9L636.2,1838.0L632.9,1834.0L628.5,1831.5L624.5,1830.3L616.9,1830.3L609.9,1829.0L608.1,1817.8L605.3,1812.7L599.9,1807.4L594.0,1800.4L591.6,1795.2L586.9,1781.7L583.9,1778.2L573.2,1770.8L560.1,1758.5L556.8,1756.5L553.6,1756.5L547.3,1754.2L537.5,1747.6L491.4,1707.8L485.3,1705.2L481.5,1704.7L467.4,1700.9L464.1,1700.7L460.8,1701.3L450.4,1704.6L443.2,1704.6L438.7,1702.2L434.9,1697.3L421.1,1669.2L414.9,1657.5L406.2,1646.5L403.0,1641.3L401.8,1634.9L390.0,1612.2L370.8,1597.4L367.6,1592.5L370.6,1589.6L371.3,1587.1L371.2,1583.4L368.2,1575.2L365.0,1569.6L359.8,1562.9L357.4,1558.0L362.4,1553.7L363.2,1550.0L356.6,1548.2L351.7,1544.4L340.9,1531.5L323.7,1516.1L321.2,1512.8L320.7,1510.7L324.3,1508.0L331.4,1499.9L335.4,1493.9L338.2,1488.0L339.2,1482.1L338.3,1478.2L335.8,1473.0L326.1,1459.9L318.7,1458.3L313.4,1459.1L309.1,1457.9L305.5,1455.1L304.2,1452.6L304.0,1449.9L305.2,1444.2L305.1,1440.9L302.4,1431.4L302.9,1429.4L303.2,1422.6L302.9,1418.5L301.5,1416.5L299.4,1415.3L291.2,1413.8L290.2,1412.9L292.1,1405.0L290.7,1398.9L288.5,1395.5L284.8,1391.6L282.6,1390.4L277.6,1390.9L273.3,1389.1L269.6,1386.5L266.8,1385.2L260.3,1385.0L256.5,1383.4L240.2,1373.2L230.1,1373.3L222.7,1372.0L218.5,1370.0L213.5,1370.4L210.6,1369.6L208.7,1368.3L206.4,1361.9L203.8,1356.2L198.6,1355.5L194.6,1356.8L191.0,1356.6L188.5,1355.8L187.0,1353.3L186.2,1347.9L184.4,1346.0L181.0,1343.8L167.6,1337.7L162.1,1336.2L157.1,1335.8L154.2,1334.5L152.8,1331.2L153.1,1328.7L152.4,1326.3L150.1,1324.0L143.7,1320.5L140.1,1318.0L137.8,1315.5L137.3,1310.4L136.0,1309.3L133.1,1309.5L120.6,1314.8L115.3,1315.6L106.4,1310.6L94.5,1306.4L86.7,1304.6L78.7,1304.1L70.2,1306.9L56.6,1308.1L59.8,1313.5L101.9,1365.2L106.7,1375.4L108.0,1357.2L120.8,1353.7L135.8,1360.6L143.6,1373.3L143.9,1389.2L141.3,1401.6L134.8,1405.0L123.3,1393.9L119.3,1393.9L114.9,1395.1L111.1,1384.4L107.1,1380.3L110.9,1394.5L127.5,1414.3L147.7,1431.9L162.3,1439.4L164.6,1449.2L166.0,1509.3L161.3,1513.9L150.2,1519.0L139.0,1521.5L133.7,1518.6L131.7,1509.5L127.9,1499.9L119.4,1484.2L113.6,1476.8L92.4,1454.8L83.4,1449.3L74.6,1450.1L60.7,1457.1L61.0,1461.6L64.2,1462.7L65.4,1466.1L72.8,1474.6L93.3,1492.1L98.0,1500.2L107.8,1529.9L110.9,1535.4L117.7,1544.5L174.1,1598.7L193.1,1611.4L224.7,1621.1L243.4,1635.8L275.0,1652.7L311.9,1663.6L317.7,1668.7L319.6,1667.4L324.6,1673.9L329.2,1681.8L330.1,1684.4L334.2,1687.6L337.7,1689.6L340.5,1692.5L342.8,1698.5L345.8,1689.0L361.4,1698.5L357.4,1702.6L363.5,1705.6L372.3,1707.1L389.8,1707.6L394.5,1710.6L398.9,1717.7L403.1,1725.9L432.6,1772.2L442.8,1780.8L437.5,1784.4L432.6,1789.5L425.3,1799.0L425.6,1803.2L430.0,1805.9L439.4,1806.2L445.0,1808.1L452.8,1812.3L455.2,1814.6L457.4,1821.8L469.7,1825.9L478.3,1826.6L484.3,1830.4L489.0,1844.2L488.5,1852.2L481.3,1885.7L474.4,1902.8L477.3,1905.2L486.9,1908.9L480.0,1929.1L479.0,1940.2L482.8,1950.0L486.6,1950.0L486.8,1946.1L496.8,1940.2L515.6,1946.0L537.9,1952.7L564.0,1965.1L580.7,1978.4L592.2,1983.3L600.7,1981.3L602.4,1977.7L601.7,1972.9L601.9,1967.7L605.8,1963.2L610.1,1961.8L614.8,1961.8L619.6,1963.2L624.7,1966.0L625.1,1951.3L632.7,1943.8L642.4,1938.2L649.2,1929.5L650.3,1922.3L648.3,1918.7L645.2,1915.8L641.4,1907.9L637.0,1903.2L635.5,1901.0L636.0,1898.9L638.7,1890.9L639.3,1887.4L637.0,1882.2L633.6,1879.3L632.0,1876.6L635.4,1871.6L639.9,1869.8L645.3,1870.6L646.1,1870.9Z " data-id="AL.VR" data-name="Vlorë" id="AL.VR"/>
utf-8utf-8<path d="M942.8,1152.7L940.9,1148.5L932.0,1141.1L938.2,1155.0L942.8,1152.7Z M734.3,1022.7L734.8,1024.7L736.1,1035.4L738.9,1045.6L739.4,1049.3L738.6,1061.3L737.0,1065.1L734.4,1067.1L728.6,1066.6L708.0,1059.9L702.5,1059.6L698.5,1061.3L677.9,1073.2L673.7,1074.6L670.5,1075.3L651.8,1081.2L648.5,1083.4L645.3,1087.1L642.9,1095.9L642.0,1101.4L641.7,1111.9L640.5,1118.7L639.3,1122.6L626.5,1128.9L634.2,1146.6L638.0,1152.4L656.9,1172.8L664.0,1181.9L681.2,1211.1L674.3,1226.5L670.3,1233.4L663.6,1238.9L655.3,1242.3L614.4,1246.9L593.8,1252.4L590.2,1259.7L597.5,1267.0L600.7,1271.8L614.7,1297.4L620.5,1310.6L630.2,1323.8L632.0,1328.2L635.6,1332.4L638.7,1339.4L643.2,1343.8L646.2,1345.6L654.3,1345.8L659.2,1347.8L665.4,1348.6L668.4,1349.7L672.2,1353.1L673.0,1356.6L674.3,1358.6L674.5,1360.7L671.9,1369.7L668.5,1374.8L667.7,1380.4L668.4,1386.0L669.6,1388.1L675.3,1393.3L677.9,1397.9L679.4,1404.5L679.5,1430.9L680.0,1435.3L688.1,1448.8L697.9,1450.6L693.1,1455.3L691.5,1457.7L688.9,1465.5L689.3,1471.0L691.5,1476.0L701.6,1486.3L705.3,1491.2L707.3,1496.5L708.6,1506.6L705.1,1525.1L706.5,1530.2L719.1,1559.4L720.5,1561.0L728.4,1562.7L733.3,1563.1L736.2,1563.7L737.6,1564.9L736.4,1567.0L731.2,1572.3L728.7,1575.9L727.4,1579.0L727.4,1582.6L729.5,1590.8L746.1,1622.8L750.2,1635.6L754.2,1640.3L782.3,1666.0L791.2,1676.6L802.9,1686.8L815.9,1680.8L819.7,1678.2L821.6,1673.5L827.9,1651.9L828.5,1648.9L824.8,1636.6L824.3,1633.2L821.9,1625.9L821.8,1621.8L824.1,1618.1L831.9,1615.8L834.7,1613.6L839.4,1597.7L838.3,1584.1L836.1,1570.8L837.2,1555.7L840.9,1549.3L846.5,1545.4L852.2,1542.5L856.2,1539.0L864.2,1515.8L869.2,1505.4L871.2,1499.9L872.3,1491.7L871.4,1484.8L867.5,1466.8L867.8,1460.5L872.2,1455.9L883.3,1453.4L887.9,1450.9L891.8,1444.1L893.4,1437.8L895.8,1432.2L902.7,1427.7L917.2,1427.4L930.1,1432.9L942.6,1435.7L955.4,1427.1L960.0,1420.2L962.7,1413.1L961.6,1404.9L964.3,1399.0L969.8,1395.3L976.7,1393.5L979.8,1386.8L984.4,1383.0L989.2,1380.3L992.6,1376.6L994.8,1369.9L995.2,1364.8L995.0,1359.3L995.2,1351.7L998.9,1328.7L999.7,1316.6L997.8,1303.6L993.3,1292.1L988.5,1285.2L987.6,1285.7L975.3,1289.8L974.9,1284.7L984.8,1280.7L970.9,1266.6L954.2,1253.0L951.4,1248.1L949.8,1242.8L947.3,1237.8L941.6,1233.8L950.1,1223.6L951.5,1214.1L941.2,1220.5L929.3,1235.6L921.4,1226.7L924.1,1217.4L928.5,1211.0L933.3,1205.6L937.2,1199.8L937.3,1195.1L936.1,1189.1L935.4,1183.7L937.4,1181.3L941.2,1180.2L947.9,1174.2L947.6,1171.1L941.1,1167.4L930.4,1159.8L924.9,1150.5L931.7,1141.0L931.1,1140.4L903.4,1133.1L874.4,1129.2L863.5,1131.8L846.7,1145.7L837.4,1149.2L823.5,1146.4L814.0,1139.5L808.2,1141.0L789.0,1140.8L778.5,1138.3L773.1,1131.6L770.9,1121.5L769.5,1109.1L766.8,1097.1L758.0,1068.7L758.2,1057.1L765.2,1043.9L766.4,1034.8L764.5,1032.7L760.5,1032.7L756.4,1031.5L754.1,1025.7L738.8,1024.5L734.3,1022.7Z " data-id="AL.KE" data-name="Korçë" id="AL.KE"/>
utf-8utf-8<path d="M569.5,1266.2L552.0,1266.5L547.6,1264.8L543.6,1258.1L539.3,1255.5L534.5,1254.7L526.3,1254.6L521.4,1253.4L508.6,1248.3L513.0,1240.6L508.8,1237.9L502.3,1234.8L489.7,1231.8L483.4,1228.5L478.2,1224.0L463.2,1203.6L457.9,1199.7L451.2,1197.4L442.5,1196.5L434.8,1194.3L432.0,1192.2L431.7,1189.3L433.0,1183.2L432.2,1177.1L430.0,1171.1L429.8,1166.9L431.3,1162.4L429.3,1159.4L422.9,1157.1L418.4,1158.5L405.8,1166.7L361.9,1162.0L350.4,1165.9L353.4,1169.1L355.1,1173.2L352.5,1177.8L334.9,1177.4L329.5,1178.7L326.6,1175.8L323.9,1172.3L321.1,1171.0L315.3,1173.8L307.3,1176.5L301.1,1179.9L299.9,1183.2L297.9,1187.6L298.7,1192.6L297.1,1195.8L297.8,1202.6L295.4,1203.4L292.7,1203.0L280.0,1203.0L279.8,1209.9L280.2,1212.8L282.1,1217.8L285.2,1223.3L296.5,1235.9L299.0,1240.4L298.8,1246.8L296.7,1253.2L297.7,1262.7L298.7,1265.9L301.3,1268.6L308.6,1272.0L313.3,1273.4L318.0,1276.1L320.9,1278.4L325.6,1292.2L341.8,1308.1L345.0,1313.2L344.5,1319.0L340.3,1323.3L336.4,1326.3L332.9,1328.0L338.2,1331.8L341.1,1335.9L350.9,1356.3L357.4,1363.6L371.2,1372.0L379.0,1374.4L386.2,1379.1L390.3,1390.9L408.6,1401.0L420.1,1402.9L432.4,1403.0L454.9,1413.2L466.4,1411.2L470.5,1411.7L476.3,1415.1L479.2,1416.3L481.2,1416.1L481.9,1414.7L482.8,1406.7L493.7,1410.0L499.3,1415.0L503.6,1421.3L507.6,1424.1L513.2,1425.9L521.7,1426.3L525.9,1427.0L528.8,1429.4L542.8,1445.4L544.5,1447.8L586.3,1493.4L593.1,1498.8L598.3,1501.6L610.3,1504.3L614.0,1504.7L615.3,1497.1L617.6,1490.8L620.1,1488.6L626.3,1484.8L641.8,1481.5L646.8,1479.4L651.1,1475.7L652.1,1469.0L651.4,1463.6L649.9,1457.7L650.1,1453.2L654.9,1451.1L664.6,1451.6L688.1,1448.8L680.0,1435.3L679.5,1430.9L679.4,1404.5L677.9,1397.9L675.3,1393.3L669.6,1388.1L668.4,1386.0L667.7,1380.4L668.5,1374.8L671.9,1369.7L674.5,1360.7L674.3,1358.6L673.0,1356.6L672.2,1353.1L668.4,1349.7L665.4,1348.6L659.2,1347.8L654.3,1345.8L646.2,1345.6L643.2,1343.8L638.7,1339.4L635.6,1332.4L632.0,1328.2L630.2,1323.8L620.5,1310.6L614.7,1297.4L600.7,1271.8L597.5,1267.0L590.2,1259.7L569.5,1266.2Z " data-id="AL.BE" data-name="Berat" id="AL.BE"/>
utf-8utf-8<path d="M522.8,853.4L520.2,860.8L519.0,863.0L516.7,865.1L488.2,872.5L483.0,875.0L471.8,884.4L464.3,900.1L455.4,900.9L452.0,903.1L444.1,911.1L441.3,913.1L437.9,913.9L433.2,913.1L429.6,911.6L426.9,909.5L423.6,909.7L419.5,912.5L412.4,921.1L406.5,931.0L391.6,948.3L388.1,951.4L365.1,962.8L353.6,965.2L328.6,974.9L316.4,985.2L318.8,988.7L323.9,990.8L323.8,992.2L321.5,994.9L314.8,997.5L304.3,999.5L287.4,998.1L270.2,999.3L269.7,1006.4L268.2,1009.2L265.0,1012.2L252.8,1017.9L248.7,1022.0L247.5,1028.7L247.5,1033.7L247.8,1039.6L244.7,1044.0L233.0,1042.1L232.5,1046.1L234.3,1053.1L237.4,1059.0L242.4,1064.3L250.6,1068.5L264.1,1072.0L283.5,1070.6L289.0,1071.7L295.0,1075.8L299.1,1077.7L305.4,1077.0L312.9,1079.7L313.3,1092.3L309.8,1100.1L309.5,1102.3L312.2,1118.0L312.5,1121.3L311.1,1132.9L312.1,1140.3L313.7,1144.2L319.4,1153.3L324.5,1157.8L328.0,1160.1L350.4,1165.9L361.9,1162.0L405.8,1166.7L418.4,1158.5L422.9,1157.1L429.3,1159.4L431.3,1162.4L429.8,1166.9L430.0,1171.1L432.2,1177.1L433.0,1183.2L431.7,1189.3L432.0,1192.2L434.8,1194.3L442.5,1196.5L451.2,1197.4L457.9,1199.7L463.2,1203.6L478.2,1224.0L483.4,1228.5L489.7,1231.8L502.3,1234.8L508.8,1237.9L513.0,1240.6L508.6,1248.3L521.4,1253.4L526.3,1254.6L534.5,1254.7L539.3,1255.5L543.6,1258.1L547.6,1264.8L552.0,1266.5L569.5,1266.2L590.2,1259.7L593.8,1252.4L614.4,1246.9L655.3,1242.3L663.6,1238.9L670.3,1233.4L674.3,1226.5L681.2,1211.1L664.0,1181.9L656.9,1172.8L638.0,1152.4L634.2,1146.6L626.5,1128.9L639.3,1122.6L640.5,1118.7L641.7,1111.9L642.0,1101.4L642.9,1095.9L645.3,1087.1L648.5,1083.4L651.8,1081.2L670.5,1075.3L673.7,1074.6L677.9,1073.2L698.5,1061.3L702.5,1059.6L708.0,1059.9L728.6,1066.6L734.4,1067.1L737.0,1065.1L738.6,1061.3L739.4,1049.3L738.9,1045.6L736.1,1035.4L734.8,1024.7L734.3,1022.7L722.8,1017.9L718.2,1009.0L717.4,997.3L713.3,982.5L703.4,967.3L680.9,941.4L672.6,924.7L660.2,889.4L655.5,869.7L655.5,868.4L641.8,852.2L638.2,845.5L636.0,836.8L635.3,830.4L636.0,824.7L631.0,825.5L623.6,827.7L616.6,826.4L609.8,824.4L606.6,824.8L603.1,827.4L601.1,827.8L598.4,824.9L596.0,824.5L593.2,825.7L588.5,831.9L585.2,834.5L581.4,835.8L577.1,836.6L569.3,836.4L563.1,834.1L558.1,833.5L553.1,833.9L548.8,835.5L545.1,837.7L532.3,847.8L528.9,848.6L525.7,850.1L522.8,853.4Z " data-id="AL.EB" data-name="Elbasan" id="AL.EB"/>
utf-8utf-8<path d="M664.6,1451.6L654.9,1451.1L650.1,1453.2L649.9,1457.7L651.4,1463.6L652.1,1469.0L651.1,1475.7L646.8,1479.4L641.8,1481.5L626.3,1484.8L620.1,1488.6L617.6,1490.8L615.3,1497.1L614.0,1504.7L610.3,1504.3L598.3,1501.6L593.1,1498.8L586.3,1493.4L544.5,1447.8L542.8,1445.4L528.8,1429.4L525.9,1427.0L521.7,1426.3L513.2,1425.9L507.6,1424.1L503.6,1421.3L499.3,1415.0L493.7,1410.0L482.8,1406.7L481.9,1414.7L481.2,1416.1L479.2,1416.3L476.3,1415.1L470.5,1411.7L466.4,1411.2L454.9,1413.2L432.4,1403.0L420.1,1402.9L408.6,1401.0L390.3,1390.9L382.7,1391.8L380.2,1393.3L377.7,1396.4L374.9,1402.3L371.8,1407.0L368.5,1411.0L353.1,1423.3L349.8,1427.5L336.7,1457.0L333.9,1461.3L326.1,1459.9L335.8,1473.0L338.3,1478.2L339.2,1482.1L338.2,1488.0L335.4,1493.9L331.4,1499.9L324.3,1508.0L320.7,1510.7L321.2,1512.8L323.7,1516.1L340.9,1531.5L351.7,1544.4L356.6,1548.2L363.2,1550.0L362.4,1553.7L357.4,1558.0L359.8,1562.9L365.0,1569.6L368.2,1575.2L371.2,1583.4L371.3,1587.1L370.6,1589.6L367.6,1592.5L370.8,1597.4L390.0,1612.2L401.8,1634.9L403.0,1641.3L406.2,1646.5L414.9,1657.5L421.1,1669.2L434.9,1697.3L438.7,1702.2L443.2,1704.6L450.4,1704.6L460.8,1701.3L464.1,1700.7L467.4,1700.9L481.5,1704.7L485.3,1705.2L491.4,1707.8L537.5,1747.6L547.3,1754.2L553.6,1756.5L556.8,1756.5L560.1,1758.5L573.2,1770.8L583.9,1778.2L586.9,1781.7L591.6,1795.2L594.0,1800.4L599.9,1807.4L605.3,1812.7L608.1,1817.8L609.9,1829.0L616.9,1830.3L624.5,1830.3L628.5,1831.5L632.9,1834.0L636.2,1838.0L638.3,1842.9L638.0,1859.2L644.6,1867.6L646.1,1870.9L667.1,1878.3L677.2,1883.8L686.6,1884.8L695.3,1875.5L698.6,1862.2L695.4,1850.6L666.9,1811.3L652.9,1799.2L649.8,1795.2L638.2,1754.7L635.0,1749.5L641.4,1747.6L668.6,1746.8L677.5,1745.0L678.8,1733.0L682.3,1721.2L687.6,1710.6L694.2,1702.7L704.2,1698.3L722.5,1700.3L730.7,1695.7L740.4,1693.2L769.7,1697.2L783.2,1696.0L802.9,1686.8L791.2,1676.6L782.3,1666.0L754.2,1640.3L750.2,1635.6L746.1,1622.8L729.5,1590.8L727.4,1582.6L727.4,1579.0L728.7,1575.9L731.2,1572.3L736.4,1567.0L737.6,1564.9L736.2,1563.7L733.3,1563.1L728.4,1562.7L720.5,1561.0L719.1,1559.4L706.5,1530.2L705.1,1525.1L708.6,1506.6L707.3,1496.5L705.3,1491.2L701.6,1486.3L691.5,1476.0L689.3,1471.0L688.9,1465.5L691.5,1457.7L693.1,1455.3L697.9,1450.6L688.1,1448.8L664.6,1451.6Z " data-id="AL.GK" data-name="Gjirokastër" id="AL.GK"/>
utf-8utf-8<path d="M474.2,491.1L475.3,500.4L467.5,514.0L461.9,517.9L455.6,524.4L451.3,530.1L444.9,532.7L438.3,533.9L432.8,534.4L429.4,535.4L428.3,537.0L429.3,539.2L454.3,557.3L457.2,561.9L458.4,571.0L458.4,574.9L454.6,580.8L404.5,599.8L400.7,602.5L398.7,605.2L397.2,613.2L395.5,616.6L392.2,619.4L387.4,620.7L368.3,617.6L362.7,617.5L359.2,618.3L351.4,624.1L351.1,628.3L349.5,631.0L346.1,632.0L334.8,628.9L330.9,626.6L328.6,624.6L324.8,618.9L323.0,617.9L314.9,621.9L305.5,624.7L297.8,625.6L285.8,622.9L279.2,619.0L272.8,616.5L271.5,627.4L275.5,655.1L274.1,663.2L272.7,665.0L272.1,667.3L273.4,670.0L282.3,678.3L285.2,681.9L287.4,686.9L287.4,691.6L293.2,708.1L314.4,729.9L337.1,745.2L343.4,745.4L348.2,747.9L355.0,752.8L366.4,763.3L379.1,778.8L382.8,787.8L386.2,791.8L390.2,799.3L400.8,807.0L410.4,812.0L414.6,815.9L420.0,822.9L423.5,824.6L427.1,824.1L432.4,818.9L435.0,815.1L450.3,815.0L472.7,835.2L480.6,840.3L522.8,853.4L525.7,850.1L528.9,848.6L532.3,847.8L545.1,837.7L548.8,835.5L553.1,833.9L558.1,833.5L563.1,834.1L569.3,836.4L577.1,836.6L581.4,835.8L585.2,834.5L588.5,831.9L593.2,825.7L596.0,824.5L598.4,824.9L601.1,827.8L603.1,827.4L606.6,824.8L609.8,824.4L616.6,826.4L623.6,827.7L631.0,825.5L636.0,824.7L635.3,830.4L636.0,836.8L638.2,845.5L641.8,852.2L655.5,868.4L656.3,855.5L664.3,857.8L671.7,853.4L678.0,845.3L682.3,836.4L685.1,825.4L684.4,816.6L680.4,808.5L673.2,800.2L668.9,797.8L659.7,796.4L655.6,793.5L654.2,789.9L652.1,779.2L649.8,774.2L641.9,762.2L637.4,758.3L631.1,755.8L626.4,746.1L626.3,728.5L623.5,719.2L649.4,713.9L657.0,710.9L663.9,706.9L668.1,702.7L670.3,695.9L669.7,690.2L655.5,659.9L651.4,646.0L642.7,598.8L643.7,591.9L647.2,583.2L651.9,576.9L663.5,565.7L666.5,560.0L663.9,546.5L658.0,530.1L657.9,526.5L653.0,526.1L643.9,528.8L635.2,530.3L601.1,524.8L590.0,525.1L584.2,526.2L584.5,528.2L587.9,532.1L586.0,535.1L580.8,538.1L573.5,540.6L560.3,542.3L560.6,537.4L556.3,527.9L539.3,507.3L534.9,494.9L535.5,492.8L524.5,491.9L517.0,495.0L513.9,498.7L511.2,503.1L507.1,507.2L501.7,510.5L492.1,512.6L486.1,511.9L481.7,508.7L479.8,505.4L479.1,502.2L478.6,495.7L474.2,491.1Z " data-id="AL.DB" data-name="Dibër" id="AL.DB"/>
utf-8utf-8<path d="M480.2,479.3L481.5,477.4L486.2,474.0L489.5,470.0L499.0,462.1L500.4,460.0L500.8,456.8L499.7,450.4L499.3,445.4L499.5,440.8L500.8,437.4L501.5,433.9L501.0,430.0L495.2,418.1L492.5,414.0L485.6,409.6L469.4,407.1L449.3,425.5L416.3,441.1L410.4,444.9L406.1,449.5L402.8,462.6L398.3,469.4L393.7,473.2L385.9,477.5L374.8,488.3L371.4,493.0L366.1,503.6L363.4,505.7L359.2,506.7L338.3,506.1L333.4,504.6L330.3,502.3L327.8,499.3L327.1,496.6L327.6,494.0L331.7,490.1L332.7,488.4L332.4,485.9L330.9,483.0L319.3,471.1L316.7,467.9L311.8,458.3L309.7,451.5L308.4,448.4L305.0,445.7L301.5,445.5L296.0,447.0L290.0,450.4L285.3,455.8L280.3,460.2L277.0,464.4L274.3,466.4L270.3,467.5L265.8,467.4L257.3,464.8L252.9,461.9L248.9,460.3L245.6,460.4L235.7,465.2L219.1,466.0L226.5,478.3L227.3,480.8L226.9,483.1L225.2,485.5L221.6,488.9L217.4,491.9L212.7,493.7L205.5,491.1L195.1,483.9L190.6,481.7L185.9,481.2L166.5,484.0L162.1,483.8L155.0,480.1L154.0,478.1L154.0,475.4L157.8,468.6L155.3,466.9L149.3,466.8L145.9,466.2L136.8,461.9L127.9,463.2L122.2,465.4L124.9,468.2L128.4,475.5L131.3,488.8L125.6,495.0L118.2,497.2L108.4,493.6L89.0,483.4L81.6,480.8L76.7,481.5L72.9,486.6L71.9,494.0L74.7,501.9L109.4,525.2L111.7,532.5L142.8,543.7L146.2,543.5L151.7,555.9L152.5,569.7L148.2,578.1L138.0,575.1L139.0,586.8L143.7,608.6L146.5,629.1L137.0,646.7L154.1,659.7L157.0,665.0L161.2,660.7L164.3,665.3L170.1,682.8L165.0,685.1L161.1,684.5L158.8,680.7L157.8,673.5L154.1,673.5L145.4,696.0L140.8,697.3L142.5,698.5L160.4,707.0L162.0,703.1L164.8,701.4L172.9,700.4L184.6,696.0L187.7,696.2L197.4,701.3L199.9,703.3L205.0,708.7L208.2,711.2L212.3,713.6L219.2,714.3L227.6,713.4L244.0,708.5L250.4,704.0L253.5,700.0L255.1,695.0L258.1,692.8L260.8,693.0L263.9,694.7L269.3,700.2L274.7,704.4L278.9,707.1L293.2,708.1L287.4,691.6L287.4,686.9L285.2,681.9L282.3,678.3L273.4,670.0L272.1,667.3L272.7,665.0L274.1,663.2L275.5,655.1L271.5,627.4L272.8,616.5L279.2,619.0L285.8,622.9L297.8,625.6L305.5,624.7L314.9,621.9L323.0,617.9L324.8,618.9L328.6,624.6L330.9,626.6L334.8,628.9L346.1,632.0L349.5,631.0L351.1,628.3L351.4,624.1L359.2,618.3L362.7,617.5L368.3,617.6L387.4,620.7L392.2,619.4L395.5,616.6L397.2,613.2L398.7,605.2L400.7,602.5L404.5,599.8L454.6,580.8L458.4,574.9L458.4,571.0L457.2,561.9L454.3,557.3L429.3,539.2L428.3,537.0L429.4,535.4L432.8,534.4L438.3,533.9L444.9,532.7L451.3,530.1L455.6,524.4L461.9,517.9L467.5,514.0L475.3,500.4L474.2,491.1L480.2,479.3Z " data-id="AL.LZ" data-name="Lezhë" id="AL.LZ"/>
utf-8utf-8<path d="M480.6,840.3L472.7,835.2L450.3,815.0L435.0,815.1L432.4,818.9L427.1,824.1L423.5,824.6L420.0,822.9L414.6,815.9L410.4,812.0L400.8,807.0L390.2,799.3L386.2,791.8L382.8,787.8L379.1,778.8L366.4,763.3L355.0,752.8L348.2,747.9L343.4,745.4L337.1,745.2L337.1,752.2L336.8,755.9L335.6,759.3L329.7,771.7L325.8,776.8L317.2,785.1L312.5,786.9L308.3,786.4L302.7,782.4L300.3,781.4L299.2,783.3L297.9,788.4L295.4,790.0L273.8,798.3L258.9,808.4L253.5,811.0L249.0,812.3L242.5,812.1L239.0,810.5L236.4,806.4L234.9,803.1L229.1,797.8L227.0,794.7L225.6,791.7L222.9,780.8L220.9,777.0L218.7,775.5L216.2,778.6L214.9,782.1L212.6,785.1L209.4,786.6L198.1,783.9L184.2,786.8L186.4,823.9L187.5,831.6L191.2,838.0L194.3,840.8L199.8,842.9L201.3,845.9L201.8,850.9L201.7,862.1L202.9,870.2L203.1,877.9L202.2,885.0L199.3,889.9L186.2,901.1L177.0,919.2L166.2,912.7L150.8,906.9L137.4,908.4L137.9,911.1L135.2,923.6L115.9,956.2L115.6,963.7L116.4,972.5L115.2,980.0L103.8,984.9L103.7,989.1L106.5,994.3L110.0,998.7L113.7,1009.3L112.1,1059.1L110.1,1062.2L110.0,1065.7L114.5,1073.1L114.7,1073.2L119.4,1059.3L122.0,1057.0L123.6,1057.2L126.4,1056.0L125.8,1051.9L123.3,1048.6L127.8,1047.6L129.6,1047.9L131.7,1049.6L136.6,1055.3L139.9,1056.7L142.1,1055.6L146.6,1048.8L149.0,1047.1L151.7,1046.8L156.5,1048.4L164.9,1048.7L170.2,1048.0L174.4,1045.5L183.2,1038.5L188.3,1035.5L192.2,1033.8L194.2,1034.0L198.3,1035.9L202.6,1036.6L204.6,1038.2L210.0,1038.2L212.7,1040.0L215.6,1040.6L218.5,1039.4L227.4,1034.3L232.6,1033.5L233.5,1034.4L234.0,1037.3L233.0,1042.1L244.7,1044.0L247.8,1039.6L247.5,1033.7L247.5,1028.7L248.7,1022.0L252.8,1017.9L265.0,1012.2L268.2,1009.2L269.7,1006.4L270.2,999.3L287.4,998.1L304.3,999.5L314.8,997.5L321.5,994.9L323.8,992.2L323.9,990.8L318.8,988.7L316.4,985.2L328.6,974.9L353.6,965.2L365.1,962.8L388.1,951.4L391.6,948.3L406.5,931.0L412.4,921.1L419.5,912.5L423.6,909.7L426.9,909.5L429.6,911.6L433.2,913.1L437.9,913.9L441.3,913.1L444.1,911.1L452.0,903.1L455.4,900.9L464.3,900.1L471.8,884.4L483.0,875.0L488.2,872.5L516.7,865.1L519.0,863.0L520.2,860.8L522.8,853.4L480.6,840.3Z " data-id="AL.DU" data-name="Durrës" id="AL.DU"/>
utf-8</g>
</svg>
