<?xml version="1.0" ?>
<!DOCTYPE svg
  PUBLIC '-//W3C//DTD SVG 1.1//EN'
  'http://www.w3.org/Graphics/SVG/1.1/DTD/svg11.dtd'>
<svg enable_background="new 0 0 1000 824" height="824px" pretty_print="True" style="stroke-linejoin: round; stroke:#000; fill: none;" version="1.1" viewBox="0 0 1000 824" width="1000px" xmlns="http://www.w3.org/2000/svg" xmlns:xlink="http://www.w3.org/1999/xlink">
utf-8<defs>
utf-8utf-8<style type="text/css">
<![CDATA[path { fill-rule: evenodd; }]]>utf-8utf-8</style>
utf-8</defs>
utf-8<metadata>
utf-8utf-8<views>
utf-8utf-8utf-8<view h="824.115160511" padding="0" w="1000">
utf-8utf-8utf-8utf-8<proj flip="auto" id="robinson" lon0="44.304045986"/>
utf-8utf-8utf-8utf-8<bbox h="40.39" w="49.07" x="589.61" y="-693.13"/>
utf-8utf-8utf-8</view>
utf-8utf-8</views>
utf-8</metadata>
utf-8<g class="" id="provinces">
utf-8utf-8<path d="M296.1,198.5L291.4,194.2L283.6,190.2L268.0,184.7L263.4,183.7L259.6,183.5L256.7,185.0L255.2,187.8L253.5,189.6L250.8,191.1L246.1,192.0L243.2,191.7L233.3,184.3L228.2,183.2L224.7,183.9L218.7,200.5L215.2,206.3L207.4,214.8L207.3,217.5L217.4,225.2L221.7,231.3L223.2,235.1L226.1,237.2L230.1,237.1L238.7,235.7L240.4,235.8L242.5,239.9L241.4,248.5L241.3,253.0L241.8,255.4L244.5,258.7L247.7,260.3L243.9,265.7L238.1,269.5L233.5,270.0L227.6,274.2L220.6,276.9L214.0,281.4L209.4,282.2L205.4,279.4L199.7,272.4L196.3,269.2L184.7,268.6L183.0,269.0L182.1,272.9L179.9,274.4L168.4,274.7L160.6,273.1L154.1,269.1L140.8,265.0L136.9,265.4L129.4,270.3L127.1,271.3L119.7,273.2L116.3,274.9L112.6,284.8L110.9,286.4L105.8,289.5L100.5,295.3L95.6,294.7L93.9,307.6L92.2,311.3L91.3,316.8L95.1,322.1L103.9,328.7L119.0,343.7L124.6,352.3L131.1,348.4L136.5,342.8L138.6,342.0L141.0,342.4L146.5,345.4L148.4,345.1L153.3,338.1L155.0,337.3L158.0,338.6L162.4,343.6L166.8,345.6L174.2,346.9L185.7,353.7L190.0,355.8L201.3,359.3L204.2,360.8L209.3,365.5L218.8,370.8L251.8,371.0L257.4,368.7L260.0,365.7L259.2,362.4L255.8,353.1L258.8,351.5L263.7,352.6L267.9,356.4L270.1,357.6L271.9,357.6L278.3,353.6L283.7,352.3L286.7,352.2L292.6,356.4L297.6,358.8L306.4,363.6L312.9,366.2L329.9,369.6L331.2,365.7L326.2,357.8L324.6,351.6L325.1,350.3L329.5,347.0L330.4,345.3L329.3,342.6L323.6,338.7L320.8,335.3L320.3,333.3L320.9,331.6L326.7,329.1L328.8,326.8L335.8,309.8L339.5,307.3L341.6,305.2L342.0,302.8L341.3,300.5L338.2,295.9L337.2,293.0L343.7,257.0L344.1,248.3L343.4,243.2L339.2,241.4L328.4,239.8L325.8,238.8L305.7,226.6L303.3,224.3L302.8,222.9L303.2,218.2L302.6,215.2L298.4,203.7L296.1,198.5Z " data-id="AM.AG" data-name="Aragatsotn" id="AM.AG"/>
utf-8utf-8<path d="M312.9,366.2L306.4,363.6L297.6,358.8L292.6,356.4L286.7,352.2L283.7,352.3L278.3,353.6L271.9,357.6L270.1,357.6L267.9,356.4L263.7,352.6L258.8,351.5L255.8,353.1L259.2,362.4L260.0,365.7L257.4,368.7L251.8,371.0L218.8,370.8L209.3,365.5L204.2,360.8L201.3,359.3L190.0,355.8L185.7,353.7L174.2,346.9L166.8,345.6L162.4,343.6L158.0,338.6L155.0,337.3L153.3,338.1L148.4,345.1L146.5,345.4L141.0,342.4L138.6,342.0L136.5,342.8L131.1,348.4L124.6,352.3L124.9,352.9L120.5,356.6L124.6,362.5L135.1,372.5L137.6,376.3L135.7,380.7L123.6,383.2L120.3,386.6L125.7,396.4L139.6,402.9L166.3,409.7L199.6,425.4L234.0,430.8L238.1,429.3L246.6,423.0L252.3,421.5L255.1,422.2L259.3,425.4L261.7,426.1L264.6,425.7L270.0,424.2L277.8,423.2L293.7,419.0L303.1,419.0L313.8,421.9L330.7,430.4L329.4,424.4L328.2,421.0L324.5,414.6L317.9,405.6L318.9,401.9L322.0,398.7L325.0,392.4L326.5,390.4L328.8,388.8L335.9,385.9L338.2,384.6L338.2,381.7L335.0,378.9L334.3,377.5L333.0,373.0L329.9,369.6L312.9,366.2Z " data-id="AM.AV" data-name="Armavir" id="AM.AV"/>
utf-8utf-8<path d="M213.2,184.3L208.8,182.8L205.0,177.2L202.6,174.7L200.4,173.6L190.4,172.3L188.0,171.0L186.3,169.2L181.9,161.9L179.0,158.4L177.3,154.0L180.3,137.2L181.5,136.2L188.4,138.7L194.6,138.3L196.8,135.6L197.1,127.9L199.7,125.1L200.4,123.4L200.4,112.7L198.8,110.9L192.6,111.2L186.2,110.5L182.4,108.9L180.5,107.3L180.4,103.8L182.6,102.2L184.0,99.7L183.8,97.2L181.6,94.2L176.0,91.2L170.7,86.7L164.1,79.1L160.5,76.2L153.6,73.8L147.6,69.3L147.0,67.4L145.3,42.0L139.5,43.4L114.0,43.9L103.1,48.4L92.2,58.7L87.2,60.8L80.5,61.3L34.4,55.5L22.7,55.9L8.8,61.5L0.6,61.4L1.0,69.2L5.3,79.8L11.5,89.3L17.7,93.9L29.8,95.5L42.7,101.0L55.2,109.3L65.8,119.2L70.2,125.8L72.6,132.2L74.5,138.9L77.5,146.6L81.6,153.2L96.3,170.1L100.0,176.4L102.1,182.0L107.9,205.2L107.6,207.9L103.6,217.4L102.3,219.5L105.9,227.1L96.6,239.8L94.2,246.8L96.0,254.9L89.7,252.4L92.6,257.2L86.2,257.9L80.9,261.7L73.4,272.2L75.4,276.6L82.4,282.7L95.3,291.6L95.7,293.9L95.6,294.7L100.5,295.3L105.8,289.5L110.9,286.4L112.6,284.8L116.3,274.9L119.7,273.2L127.1,271.3L129.4,270.3L136.9,265.4L140.8,265.0L154.1,269.1L160.6,273.1L168.4,274.7L179.9,274.4L182.1,272.9L183.0,269.0L184.7,268.6L196.3,269.2L199.7,272.4L205.4,279.4L209.4,282.2L214.0,281.4L220.6,276.9L227.6,274.2L233.5,270.0L238.1,269.5L243.9,265.7L247.7,260.3L244.5,258.7L241.8,255.4L241.3,253.0L241.4,248.5L242.5,239.9L240.4,235.8L238.7,235.7L230.1,237.1L226.1,237.2L223.2,235.1L221.7,231.3L217.4,225.2L207.3,217.5L207.4,214.8L215.2,206.3L218.7,200.5L224.7,183.9L213.2,184.3Z " data-id="AM.SH" data-name="Shirak" id="AM.SH"/>
utf-8utf-8<path d="M383.4,22.3L390.1,23.0L400.7,28.7L404.0,31.4L405.0,33.4L403.8,38.0L395.9,43.6L396.1,50.5L398.6,57.5L400.6,60.8L403.0,62.6L408.6,64.6L411.9,66.6L416.0,71.2L417.0,73.8L416.7,75.9L401.3,88.6L398.6,89.8L396.2,90.0L393.9,89.3L387.9,86.1L382.8,87.6L375.7,97.1L375.6,99.2L380.7,105.3L388.7,111.0L398.6,113.7L402.4,113.7L410.0,117.0L416.7,123.1L418.7,125.7L414.0,132.5L411.0,134.9L409.4,139.0L407.0,156.3L403.3,162.2L401.5,163.1L392.5,165.4L387.8,167.8L384.6,171.5L384.8,173.2L389.1,181.2L390.6,183.2L394.0,189.7L397.5,209.2L405.2,214.3L436.9,207.9L441.2,209.0L445.7,211.1L453.8,216.5L457.2,217.9L461.5,218.5L472.7,216.3L476.5,214.9L480.1,211.6L480.7,210.1L482.5,202.1L485.6,198.0L495.4,193.8L497.5,192.6L504.4,186.8L513.8,187.9L523.5,188.7L526.3,189.5L528.2,190.9L535.9,198.2L539.3,199.8L544.4,201.0L552.0,205.7L555.1,208.9L559.2,212.1L564.9,213.9L563.4,205.8L568.1,194.5L577.3,186.3L607.1,171.8L612.9,164.2L615.3,150.4L613.4,143.0L608.1,140.6L601.5,140.2L595.5,138.5L590.3,134.4L575.7,120.5L567.3,114.9L560.3,113.3L556.3,109.9L556.5,99.1L553.3,91.2L545.8,92.0L531.7,99.1L525.2,98.1L512.2,93.6L498.9,92.2L493.6,88.7L488.5,84.4L482.2,81.2L471.5,72.6L466.4,70.4L466.9,76.5L466.0,80.4L460.5,79.9L453.8,76.2L449.1,70.7L449.9,59.9L477.5,61.0L485.7,54.6L484.3,49.3L479.7,44.6L463.2,34.2L458.2,32.8L440.2,32.8L435.1,30.9L432.7,26.8L434.1,19.8L419.9,0.0L416.9,2.0L411.7,7.2L408.7,9.3L398.3,9.6L370.9,5.7L366.5,10.7L369.7,15.4L381.0,19.9L383.4,22.3Z M500.9,104.0L498.7,107.7L492.1,106.8L487.9,99.1L488.6,98.2L491.7,97.7L500.9,104.0Z M443.8,81.5L441.4,89.2L430.7,86.1L426.5,82.0L423.7,77.0L423.7,72.3L427.4,69.6L438.8,72.0L443.8,81.5Z " data-id="AM.TV" data-name="Tavush" id="AM.TV"/>
utf-8utf-8<path d="M490.7,377.8L482.5,378.7L472.5,382.9L462.9,385.6L455.6,388.7L436.8,399.7L426.1,403.2L412.7,405.5L410.8,405.2L407.1,403.5L404.8,401.7L401.0,395.8L398.1,394.5L388.8,409.8L382.2,414.5L376.4,415.1L373.1,413.0L367.9,405.8L365.7,404.3L362.7,403.0L352.6,401.0L347.8,396.0L346.6,391.5L346.6,387.4L345.0,383.1L341.5,381.0L338.2,381.7L338.2,384.6L335.9,385.9L328.8,388.8L326.5,390.4L325.0,392.4L322.0,398.7L318.9,401.9L317.9,405.6L324.5,414.6L328.2,421.0L329.4,424.4L330.7,430.4L356.3,443.1L374.8,456.2L383.3,463.7L387.3,468.7L391.1,476.8L393.9,479.1L398.6,482.0L400.1,485.3L400.9,489.1L402.3,491.1L405.6,488.9L417.7,499.9L423.4,502.8L430.8,504.0L432.9,506.6L453.8,527.8L459.4,534.7L466.7,531.4L479.2,529.2L491.4,529.4L500.5,527.2L508.5,522.5L517.4,515.1L527.2,511.7L537.5,516.2L540.0,518.7L539.5,511.2L537.4,499.9L538.3,493.2L542.3,479.2L539.0,474.1L536.3,464.5L535.0,461.4L529.9,451.6L528.7,443.9L528.0,441.7L526.7,440.6L523.4,439.3L520.9,436.7L519.3,433.7L502.4,406.8L501.3,403.5L500.7,399.2L501.7,388.1L501.2,378.4L490.7,377.8Z " data-id="AM.AR" data-name="Ararat" id="AM.AR"/>
utf-8utf-8<path d="M615.0,223.9L617.0,215.1L609.0,211.3L604.9,210.8L600.9,210.9L597.3,211.9L594.3,214.2L593.3,217.6L593.4,221.1L594.6,224.6L596.9,227.8L607.0,230.5L615.0,223.9Z M405.2,214.3L407.3,220.8L405.6,226.1L406.3,232.0L412.8,250.0L416.1,254.1L417.9,254.4L424.2,254.1L430.0,258.0L433.9,262.5L435.7,265.6L436.6,268.4L436.2,277.4L438.1,280.3L447.3,285.4L450.0,287.7L451.4,290.0L472.9,334.7L474.2,338.6L471.1,343.6L471.1,347.4L473.1,351.8L496.0,372.5L501.2,378.4L501.7,388.1L500.7,399.2L501.3,403.5L502.4,406.8L519.3,433.7L520.9,436.7L523.4,439.3L526.7,440.6L528.0,441.7L528.7,443.9L529.9,451.6L535.0,461.4L536.3,464.5L539.0,474.1L542.3,479.2L554.0,471.3L563.3,461.6L569.4,457.6L577.6,454.4L580.0,453.9L600.7,455.0L609.0,453.5L616.0,453.5L634.3,450.4L638.7,449.0L647.6,444.2L650.9,440.9L655.2,434.1L657.5,434.3L661.1,437.5L664.9,439.1L663.9,435.8L679.5,425.1L726.5,432.2L745.6,430.4L748.7,427.4L749.9,423.8L750.2,408.2L750.8,405.7L755.9,400.6L760.0,394.0L761.8,385.7L762.6,363.9L760.9,358.0L752.1,349.2L747.4,345.6L743.0,343.6L737.0,343.9L731.4,345.5L725.8,345.3L711.4,332.9L640.2,298.9L621.0,284.6L608.6,266.9L605.5,263.0L599.1,259.5L596.0,256.8L594.0,253.2L591.9,245.8L590.2,242.4L584.3,236.9L577.9,232.8L571.6,227.9L566.1,220.1L564.9,213.9L559.2,212.1L555.1,208.9L552.0,205.7L544.4,201.0L539.3,199.8L535.9,198.2L528.2,190.9L526.3,189.5L523.5,188.7L513.8,187.9L504.4,186.8L497.5,192.6L495.4,193.8L485.6,198.0L482.5,202.1L480.7,210.1L480.1,211.6L476.5,214.9L472.7,216.3L461.5,218.5L457.2,217.9L453.8,216.5L445.7,211.1L441.2,209.0L436.9,207.9L405.2,214.3Z " data-id="AM.GR" data-name="Gegharkunik" id="AM.GR"/>
utf-8utf-8<path d="M389.7,210.4L386.8,210.5L373.3,209.3L361.4,206.0L346.2,199.3L342.3,199.0L337.4,201.2L335.2,201.6L332.3,200.5L327.3,197.6L320.5,198.1L298.4,203.7L302.6,215.2L303.2,218.2L302.8,222.9L303.3,224.3L305.7,226.6L325.8,238.8L328.4,239.8L339.2,241.4L343.4,243.2L344.1,248.3L343.7,257.0L337.2,293.0L338.2,295.9L341.3,300.5L342.0,302.8L341.6,305.2L339.5,307.3L335.8,309.8L328.8,326.8L326.7,329.1L320.9,331.6L320.3,333.3L320.8,335.3L323.6,338.7L329.3,342.6L330.4,345.3L329.5,347.0L325.1,350.3L324.6,351.6L326.2,357.8L331.2,365.7L331.7,364.2L334.2,362.5L340.1,362.8L344.0,361.1L347.5,361.9L358.2,361.0L359.8,360.6L366.9,356.9L369.9,356.1L375.1,358.2L380.0,363.2L384.9,367.6L379.9,375.0L378.2,380.1L377.8,384.8L378.9,386.7L381.0,388.0L385.8,388.3L391.1,387.6L395.0,389.4L398.1,394.5L401.0,395.8L404.8,401.7L407.1,403.5L410.8,405.2L412.7,405.5L426.1,403.2L436.8,399.7L455.6,388.7L462.9,385.6L472.5,382.9L482.5,378.7L490.7,377.8L501.2,378.4L496.0,372.5L473.1,351.8L471.1,347.4L471.1,343.6L474.2,338.6L472.9,334.7L451.4,290.0L450.0,287.7L447.3,285.4L438.1,280.3L436.2,277.4L436.6,268.4L435.7,265.6L433.9,262.5L430.0,258.0L424.2,254.1L417.9,254.4L416.1,254.1L412.8,250.0L406.3,232.0L405.6,226.1L407.3,220.8L405.2,214.3L397.5,209.2L389.7,210.4Z " data-id="AM.KT" data-name="Kotayk" id="AM.KT"/>
utf-8utf-8<path d="M384.7,23.7L382.7,27.2L375.6,28.1L335.0,27.3L322.6,23.1L316.9,22.5L311.4,24.9L308.7,29.2L306.4,34.5L303.0,37.8L297.0,36.4L295.0,33.8L293.3,30.4L291.4,27.9L288.4,28.0L286.9,29.2L282.4,34.9L276.1,36.7L269.8,36.3L263.3,34.3L247.0,26.1L243.5,25.8L240.4,26.7L237.0,30.7L234.7,32.2L228.4,33.2L223.0,31.4L208.0,23.0L199.9,20.1L197.0,20.2L194.1,22.3L194.3,27.6L193.5,30.9L189.9,34.8L185.0,37.5L179.4,38.5L167.1,35.5L161.7,36.0L151.5,40.6L145.4,42.0L145.3,42.0L147.0,67.4L147.6,69.3L153.6,73.8L160.5,76.2L164.1,79.1L170.7,86.7L176.0,91.2L181.6,94.2L183.8,97.2L184.0,99.7L182.6,102.2L180.4,103.8L180.5,107.3L182.4,108.9L186.2,110.5L192.6,111.2L198.8,110.9L200.4,112.7L200.4,123.4L199.7,125.1L197.1,127.9L196.8,135.6L194.6,138.3L188.4,138.7L181.5,136.2L180.3,137.2L177.3,154.0L179.0,158.4L181.9,161.9L186.3,169.2L188.0,171.0L190.4,172.3L200.4,173.6L202.6,174.7L205.0,177.2L208.8,182.8L213.2,184.3L224.7,183.9L228.2,183.2L233.3,184.3L243.2,191.7L246.1,192.0L250.8,191.1L253.5,189.6L255.2,187.8L256.7,185.0L259.6,183.5L263.4,183.7L268.0,184.7L283.6,190.2L291.4,194.2L296.1,198.5L298.4,203.7L320.5,198.1L327.3,197.6L332.3,200.5L335.2,201.6L337.4,201.2L342.3,199.0L346.2,199.3L361.4,206.0L373.3,209.3L386.8,210.5L389.7,210.4L397.5,209.2L394.0,189.7L390.6,183.2L389.1,181.2L384.8,173.2L384.6,171.5L387.8,167.8L392.5,165.4L401.5,163.1L403.3,162.2L407.0,156.3L409.4,139.0L411.0,134.9L414.0,132.5L418.7,125.7L416.7,123.1L410.0,117.0L402.4,113.7L398.6,113.7L388.7,111.0L380.7,105.3L375.6,99.2L375.7,97.1L382.8,87.6L387.9,86.1L393.9,89.3L396.2,90.0L398.6,89.8L401.3,88.6L416.7,75.9L417.0,73.8L416.0,71.2L411.9,66.6L408.6,64.6L403.0,62.6L400.6,60.8L398.6,57.5L396.1,50.5L395.9,43.6L403.8,38.0L405.0,33.4L404.0,31.4L400.7,28.7L390.1,23.0L383.4,22.3L384.7,23.7Z " data-id="AM.LO" data-name="Lori" id="AM.LO"/>
utf-8utf-8<path d="M395.0,389.4L391.1,387.6L385.8,388.3L381.0,388.0L378.9,386.7L377.8,384.8L378.2,380.1L379.9,375.0L384.9,367.6L380.0,363.2L375.1,358.2L369.9,356.1L366.9,356.9L359.8,360.6L358.2,361.0L347.5,361.9L344.0,361.1L340.1,362.8L334.2,362.5L331.7,364.2L331.2,365.7L329.9,369.6L333.0,373.0L334.3,377.5L335.0,378.9L338.2,381.7L341.5,381.0L345.0,383.1L346.6,387.4L346.6,391.5L347.8,396.0L352.6,401.0L362.7,403.0L365.7,404.3L367.9,405.8L373.1,413.0L376.4,415.1L382.2,414.5L388.8,409.8L398.1,394.5L395.0,389.4Z " data-id="AM.ER" data-name="Erevan" id="AM.ER"/>
utf-8utf-8<path d="M737.8,484.2L733.4,486.8L730.1,491.6L719.8,515.2L718.4,520.3L718.4,524.0L725.4,533.3L726.5,538.5L726.8,545.8L724.4,573.3L728.0,580.5L729.5,580.2L735.9,580.1L744.1,582.9L751.2,587.2L754.5,591.5L755.6,597.3L756.3,606.0L761.8,621.6L761.5,627.0L754.8,641.7L754.3,648.5L757.6,653.7L774.1,657.6L780.7,662.0L787.0,667.5L794.5,672.4L816.2,681.7L822.9,686.9L825.2,689.6L826.3,692.2L826.2,694.7L819.5,705.5L819.4,714.2L823.6,723.2L831.2,732.5L840.2,742.4L847.9,753.3L869.5,792.3L891.1,822.1L909.3,819.8L913.8,817.5L926.5,807.4L931.4,804.8L935.0,804.0L945.8,803.6L952.1,801.5L955.1,801.1L959.0,801.9L990.4,814.4L995.7,815.8L982.4,796.1L980.5,792.1L979.4,787.9L979.1,783.6L979.6,777.4L981.2,766.5L980.3,756.8L976.9,747.1L971.4,735.8L963.7,730.6L953.4,725.6L945.1,718.8L942.8,708.2L948.2,702.5L958.2,703.7L976.7,711.9L980.0,711.4L991.3,702.6L997.2,702.4L999.4,701.3L995.2,695.9L993.1,694.3L979.7,686.3L971.7,679.5L968.0,674.5L965.5,669.1L962.6,664.1L957.5,660.6L935.8,652.0L925.4,645.3L919.6,634.6L921.6,625.8L929.5,620.6L952.4,615.4L953.8,612.9L953.3,609.7L950.7,606.1L949.8,600.4L952.5,597.6L956.1,595.2L957.8,590.9L955.9,585.2L951.6,580.8L946.5,578.0L941.8,577.0L924.5,578.6L918.9,577.7L914.2,574.9L906.0,566.4L901.5,563.4L891.8,562.7L874.6,572.0L865.2,573.9L858.7,572.1L853.9,568.4L845.2,556.6L840.3,552.0L835.0,549.4L823.9,546.5L813.9,539.9L799.4,519.3L790.4,512.3L771.9,507.3L755.5,500.1L740.7,488.3L737.8,484.2Z " data-id="AM.SU" data-name="Syunik" id="AM.SU"/>
utf-8utf-8<path d="M542.3,479.2L538.3,493.2L537.4,499.9L539.5,511.2L540.0,518.7L562.6,541.0L566.5,546.7L568.9,553.0L569.9,560.9L569.4,573.2L571.4,578.2L577.4,581.5L587.3,579.2L593.9,572.2L600.9,569.8L611.7,581.4L616.3,588.5L619.8,592.3L624.2,593.9L637.6,595.1L642.9,597.5L656.6,607.7L659.8,608.2L662.9,607.6L668.5,604.9L688.4,591.3L695.3,588.4L728.0,580.5L724.4,573.3L726.8,545.8L726.5,538.5L725.4,533.3L718.4,524.0L718.4,520.3L719.8,515.2L730.1,491.6L733.4,486.8L737.8,484.2L720.8,460.1L713.6,453.9L705.3,450.3L675.8,447.5L666.3,443.8L664.9,439.1L661.1,437.5L657.5,434.3L655.2,434.1L650.9,440.9L647.6,444.2L638.7,449.0L634.3,450.4L616.0,453.5L609.0,453.5L600.7,455.0L580.0,453.9L577.6,454.4L569.4,457.6L563.3,461.6L554.0,471.3L542.3,479.2Z " data-id="AM.VD" data-name="Vayots Dzor" id="AM.VD"/>
utf-8</g>
</svg>
