<?xml version="1.0" ?>
<!DOCTYPE svg
  PUBLIC '-//W3C//DTD SVG 1.1//EN'
  'http://www.w3.org/Graphics/SVG/1.1/DTD/svg11.dtd'>
<svg enable_background="new 0 0 1000 1253" height="1253px" pretty_print="True" style="stroke-linejoin: round; stroke:#000; fill: none;" version="1.1" viewBox="0 0 1000 1253" width="1000px" xmlns="http://www.w3.org/2000/svg" xmlns:xlink="http://www.w3.org/1999/xlink">
utf-8<defs>
utf-8utf-8<style type="text/css">
<![CDATA[path { fill-rule: evenodd; }]]>utf-8utf-8</style>
utf-8</defs>
utf-8<metadata>
utf-8utf-8<views>
utf-8utf-8utf-8<view h="1253.7912761" padding="0" w="1000">
utf-8utf-8utf-8utf-8<proj flip="auto" id="robinson" lon0="19.2597048628"/>
utf-8utf-8utf-8utf-8<bbox h="228.73" w="182.58" x="171.75" y="73.63"/>
utf-8utf-8utf-8</view>
utf-8utf-8</views>
utf-8</metadata>
utf-8<g class="" id="provinces">
utf-8utf-8<path d="M477.5,338.1L476.9,344.4L478.8,346.1L478.5,357.5L479.7,362.1L480.5,363.2L477.7,367.5L476.9,369.7L476.6,374.6L477.3,378.0L481.1,386.0L481.7,391.4L481.2,407.3L479.2,418.7L479.3,421.2L480.7,429.9L480.4,433.0L478.7,437.9L477.6,442.2L475.0,444.8L465.4,448.5L461.5,451.1L460.1,453.0L460.2,457.8L462.8,464.4L465.4,469.2L466.1,475.9L467.0,477.5L470.0,479.6L471.8,482.8L475.2,485.0L480.2,487.3L484.6,496.2L490.0,497.0L531.9,515.0L532.8,515.7L533.0,521.2L527.2,532.1L526.9,534.2L530.3,541.1L534.5,545.1L542.5,551.4L546.5,552.9L547.9,552.3L550.3,551.6L548.8,550.9L563.4,551.8L569.4,550.4L576.5,546.6L582.2,540.6L584.8,538.6L597.1,536.1L602.8,533.9L606.9,531.1L611.0,527.0L621.3,522.1L625.5,519.0L628.7,515.9L631.7,514.1L639.4,512.7L646.7,507.2L658.1,504.2L663.5,500.3L667.1,495.9L669.8,491.4L671.3,486.7L673.7,468.5L674.3,466.1L677.8,462.1L690.4,450.4L693.9,447.9L696.6,446.9L701.0,446.0L703.5,444.7L708.8,433.2L710.0,432.2L722.6,425.8L728.2,423.7L731.7,421.6L739.4,405.1L743.5,399.6L749.5,395.0L751.9,391.5L755.2,388.9L769.2,384.0L777.8,382.5L785.6,383.8L791.1,383.7L801.5,380.9L809.8,373.2L814.7,371.3L821.3,370.1L826.1,364.7L830.9,361.7L831.5,361.4L828.4,357.1L826.2,344.4L824.2,341.7L818.5,330.9L818.3,324.7L819.8,322.0L819.5,317.5L820.0,313.4L825.1,297.5L825.3,295.8L827.0,293.2L826.8,281.2L826.0,276.3L826.3,273.4L823.7,267.5L821.8,265.4L817.4,265.4L719.6,265.7L719.5,256.8L720.0,252.5L727.3,231.7L704.6,231.8L703.7,231.9L701.9,235.2L701.5,239.6L639.1,239.6L640.5,243.2L640.2,245.7L637.9,248.9L636.1,253.5L635.1,268.4L635.9,274.5L638.0,280.6L637.9,283.4L634.3,287.2L633.4,290.8L630.7,292.6L625.1,292.1L624.9,294.5L627.0,301.8L626.7,306.4L623.0,319.0L623.0,324.2L624.6,331.4L577.6,331.4L576.4,329.2L575.6,325.5L574.8,325.0L556.9,325.0L556.1,331.0L549.1,331.0L543.7,332.6L540.7,331.3L530.7,330.9L529.4,331.1L523.3,334.2L522.5,336.4L522.9,341.2L515.7,341.4L513.5,340.9L509.4,336.9L507.1,335.6L503.1,335.6L498.0,338.7L491.9,337.5L485.0,340.2L482.7,340.2L478.2,339.0L477.6,338.2L477.5,338.1Z " data-id="AO.LN" data-name="Lunda Norte" id="AO.LN"/>
utf-8utf-8<path d="M550.3,551.6L552.4,553.8L551.3,555.8L552.5,555.7L555.4,557.8L556.5,559.2L556.9,562.0L558.9,564.6L559.4,563.9L562.7,566.5L563.8,565.2L564.9,569.6L563.1,576.6L561.7,575.9L562.2,583.5L564.6,590.6L571.5,598.6L572.5,600.5L573.2,602.9L590.0,615.1L593.7,618.4L601.2,625.5L608.1,627.6L610.8,631.3L610.9,633.4L607.6,642.5L606.9,646.1L606.8,648.3L610.7,646.9L614.3,643.5L618.8,644.4L622.5,644.5L629.1,641.1L635.3,635.3L637.7,630.7L642.2,630.0L645.4,632.6L649.4,634.6L652.0,634.5L655.1,633.5L659.2,629.8L663.1,631.7L663.5,632.9L665.6,634.1L668.2,632.8L669.4,630.7L674.6,630.4L675.8,631.2L680.9,632.0L685.6,626.2L687.4,625.6L695.9,629.9L698.1,632.2L702.3,633.1L705.3,631.9L714.7,638.4L716.9,638.2L719.3,640.6L723.6,642.1L727.2,644.4L730.1,644.3L731.4,646.6L735.4,647.1L738.7,648.4L745.2,649.6L752.0,650.1L755.6,649.8L755.6,644.9L760.8,641.8L762.7,642.0L765.1,640.5L765.7,639.3L772.1,631.7L776.5,630.6L780.7,628.3L785.9,626.1L791.1,625.1L804.9,621.1L809.4,618.7L809.9,615.7L809.6,612.5L807.8,611.5L805.9,607.0L807.8,597.1L809.7,593.8L813.1,590.8L813.9,588.9L813.7,585.4L815.7,576.8L818.2,572.6L825.3,572.4L838.6,571.0L841.8,568.8L846.0,568.9L851.2,570.7L856.6,572.1L859.6,570.9L859.7,569.1L859.5,565.3L857.0,560.9L857.5,557.0L859.3,553.7L859.0,545.9L858.4,543.1L856.5,539.3L855.2,535.0L853.3,530.9L851.9,526.7L851.5,518.7L849.9,513.7L848.7,508.4L847.6,507.0L840.4,503.3L835.8,497.2L834.9,494.6L834.8,491.7L832.5,492.9L831.4,489.3L826.4,483.3L824.5,479.7L823.7,475.8L822.9,467.8L821.9,464.0L819.8,460.2L821.3,454.0L823.9,448.3L824.8,444.4L824.9,440.7L824.0,431.4L825.3,420.9L825.2,416.2L826.0,408.9L827.5,403.6L828.1,403.0L830.0,390.4L831.0,387.6L830.9,384.1L832.9,377.1L833.3,373.0L832.7,369.1L829.8,363.2L830.3,362.1L830.9,361.7L826.1,364.7L821.3,370.1L814.7,371.3L809.8,373.2L801.5,380.9L791.1,383.7L785.6,383.8L777.8,382.5L769.2,384.0L755.2,388.9L751.9,391.5L749.5,395.0L743.5,399.6L739.4,405.1L731.7,421.6L728.2,423.7L722.6,425.8L710.0,432.2L708.8,433.2L703.5,444.7L701.0,446.0L696.6,446.9L693.9,447.9L690.4,450.4L677.8,462.1L674.3,466.1L673.7,468.5L671.3,486.7L669.8,491.4L667.1,495.9L663.5,500.3L658.1,504.2L646.7,507.2L639.4,512.7L631.7,514.1L628.7,515.9L625.5,519.0L621.3,522.1L611.0,527.0L606.9,531.1L602.8,533.9L597.1,536.1L584.8,538.6L582.2,540.6L576.5,546.6L569.4,550.4L563.4,551.8L548.8,550.9L550.3,551.6Z " data-id="AO.LS" data-name="Lunda Sul" id="AO.LS"/>
utf-8utf-8<path d="M337.2,350.6L337.0,354.8L337.8,359.6L338.3,368.2L336.8,369.7L328.6,372.9L327.2,373.8L326.2,378.3L323.0,383.3L322.0,386.4L323.7,390.5L325.4,392.0L329.0,393.7L330.1,395.4L328.0,403.6L325.6,412.0L324.3,420.5L323.5,423.6L323.6,430.8L323.2,436.9L320.6,438.7L314.3,439.3L311.1,437.7L307.0,440.2L304.2,440.5L299.8,443.8L294.6,444.3L292.5,446.9L290.1,454.0L287.0,455.5L281.2,455.6L280.4,457.1L284.5,461.3L285.4,465.1L281.0,471.3L283.0,477.0L283.7,482.6L282.0,486.8L279.9,489.4L280.1,490.7L284.8,493.2L287.0,495.7L291.2,496.1L295.5,497.9L296.7,497.3L311.3,496.6L313.1,495.4L317.9,496.1L320.4,494.7L324.7,495.5L332.3,494.8L335.3,492.2L336.4,488.7L345.2,490.4L349.1,488.3L350.5,489.7L354.7,489.4L356.3,491.0L357.4,490.0L367.9,492.8L369.9,496.9L370.0,498.9L373.2,503.6L375.0,504.0L376.5,505.5L377.2,511.3L379.0,513.7L381.9,527.5L378.5,530.2L378.0,532.2L378.4,537.6L383.7,541.3L387.2,546.3L386.8,551.7L391.0,554.5L395.6,561.1L398.1,563.9L399.6,566.8L400.2,567.4L401.5,568.2L402.4,569.0L400.1,571.5L400.3,572.8L402.3,574.0L403.7,576.9L409.3,579.3L411.6,583.5L415.9,585.5L419.0,584.9L422.3,583.5L425.3,585.0L433.8,587.8L438.7,591.2L440.4,589.1L444.2,589.7L445.1,592.9L446.1,592.6L449.5,594.1L453.9,593.4L455.4,595.5L459.6,598.3L462.4,607.5L464.4,609.8L465.2,612.9L467.1,615.9L467.3,620.9L463.1,624.0L462.9,627.2L464.6,628.1L467.2,628.4L468.0,634.0L472.0,641.2L471.8,645.9L469.8,647.9L469.7,651.4L473.0,650.4L473.1,651.9L469.7,653.9L468.8,655.9L469.1,658.1L471.2,663.5L470.4,669.3L477.4,673.1L482.5,671.5L488.3,666.6L496.1,657.5L497.6,655.2L498.3,652.4L498.3,645.9L497.3,639.7L500.8,642.9L503.3,648.8L502.9,652.0L503.5,653.9L507.5,655.0L511.4,654.2L513.1,656.8L521.3,656.7L522.6,657.2L531.5,655.0L533.6,654.9L537.6,655.9L545.4,655.5L547.0,654.3L552.5,648.1L558.4,644.4L567.0,640.8L576.5,640.4L578.6,638.4L578.0,633.2L573.8,627.9L575.1,621.9L574.6,619.5L572.4,614.8L571.9,612.3L573.2,605.5L573.2,602.9L572.5,600.5L571.5,598.6L564.6,590.6L562.2,583.5L561.7,575.9L563.1,576.6L564.9,569.6L563.8,565.2L562.7,566.5L559.4,563.9L558.9,564.6L556.9,562.0L556.5,559.2L555.4,557.8L552.5,555.7L551.3,555.8L552.4,553.8L550.3,551.6L547.9,552.3L546.5,552.9L542.5,551.4L534.5,545.1L530.3,541.1L526.9,534.2L527.2,532.1L533.0,521.2L532.8,515.7L531.9,515.0L490.0,497.0L484.6,496.2L480.2,487.3L475.2,485.0L471.8,482.8L470.0,479.6L467.0,477.5L466.1,475.9L465.4,469.2L462.8,464.4L460.2,457.8L460.1,453.0L461.5,451.1L465.4,448.5L475.0,444.8L477.6,442.2L478.7,437.9L480.4,433.0L480.7,429.9L479.3,421.2L479.2,418.7L481.2,407.3L481.7,391.4L481.1,386.0L477.3,378.0L476.6,374.6L476.9,369.7L477.7,367.5L480.5,363.2L479.7,362.1L478.5,357.5L478.8,346.1L476.9,344.4L477.5,338.1L476.9,336.7L477.9,334.1L474.0,329.1L473.3,326.2L469.4,323.5L471.0,320.5L468.4,316.9L466.0,316.4L464.8,312.1L462.2,311.4L459.6,307.4L460.4,304.9L459.1,303.0L457.9,303.6L457.5,298.5L457.8,296.8L452.3,293.2L446.8,282.8L446.6,281.9L449.4,279.4L448.3,278.3L445.0,277.2L444.3,278.5L442.7,276.3L442.7,274.1L438.2,275.9L435.1,278.3L433.3,281.2L431.1,291.0L427.7,294.1L422.2,294.1L420.4,293.3L417.0,290.1L409.2,277.7L406.3,271.4L404.7,269.9L400.0,269.3L387.4,275.0L381.9,279.2L376.7,287.5L371.6,291.6L369.4,292.5L365.1,292.9L362.7,293.7L359.9,295.5L358.9,302.2L363.7,319.9L364.4,326.6L362.3,333.5L360.8,341.8L357.3,345.6L349.6,348.8L346.7,350.7L342.2,351.5L337.2,350.6Z " data-id="AO.ML" data-name="Malanje" id="AO.ML"/>
utf-8utf-8<path d="M243.2,359.9L243.0,356.5L245.1,347.7L248.6,341.5L249.2,339.4L249.9,324.5L248.0,321.0L244.2,319.8L232.7,322.5L225.7,321.4L219.5,318.2L215.3,314.6L210.7,308.1L205.0,301.9L202.2,298.3L199.6,297.5L183.2,297.2L177.3,296.3L176.7,296.9L170.0,301.0L165.3,301.3L151.9,306.8L147.5,306.4L143.6,303.2L139.0,303.8L133.7,307.9L130.8,307.0L128.7,308.8L123.3,311.6L118.8,312.2L121.1,318.1L126.3,329.0L127.0,333.2L131.2,342.6L132.3,346.8L133.3,347.6L140.6,360.9L141.7,365.0L140.8,373.8L138.3,374.1L140.1,383.2L140.6,384.6L145.2,385.3L152.3,390.6L156.2,390.2L157.8,390.7L160.3,394.9L161.6,400.7L162.2,405.0L161.9,407.9L156.5,410.8L154.1,415.8L151.0,420.2L149.2,436.7L148.5,438.7L143.3,437.3L139.2,438.2L136.2,437.7L132.8,438.8L129.9,441.6L126.6,448.5L124.9,451.4L121.6,453.3L121.9,455.3L123.4,458.5L123.6,465.8L128.0,480.9L125.6,484.7L125.7,488.0L132.1,496.5L134.2,500.3L136.0,504.3L136.6,508.0L135.1,512.6L139.8,521.2L144.1,526.7L145.0,531.2L146.0,533.2L148.7,537.6L151.4,534.2L160.6,540.3L166.3,548.2L167.4,546.6L177.2,549.4L184.7,548.8L187.0,549.5L190.4,551.9L196.4,547.9L201.5,542.9L207.2,540.1L213.3,540.6L215.7,541.4L221.7,544.5L228.7,552.2L234.1,555.0L236.4,552.4L238.7,548.4L239.7,544.3L239.3,540.2L234.8,534.2L234.7,532.3L236.0,527.8L235.4,524.5L233.9,519.5L233.7,517.4L236.6,510.7L236.7,500.9L236.0,493.5L235.5,493.5L233.2,494.4L226.4,487.8L221.9,485.5L220.0,485.3L217.3,486.3L209.8,480.3L204.8,481.1L202.3,478.8L200.5,473.4L198.2,471.1L197.4,471.2L200.8,462.4L202.7,455.4L206.4,449.8L205.7,445.1L204.5,442.8L204.5,437.5L203.1,436.3L198.9,434.9L196.9,433.4L196.9,431.8L201.4,428.0L202.5,425.6L201.8,422.1L199.1,419.8L198.1,415.3L200.9,412.8L210.1,409.9L216.5,406.7L218.2,405.0L221.2,399.2L221.1,395.0L218.4,386.1L214.4,381.1L213.1,379.1L212.7,374.1L215.8,370.7L223.3,366.5L228.6,367.4L235.8,367.2L239.6,368.0L241.3,369.6L242.8,368.7L245.0,367.8L243.2,359.9Z " data-id="AO.BO" data-name="Bengo" id="AO.BO"/>
utf-8utf-8<path d="M337.3,346.7L337.0,342.2L335.5,340.6L333.8,340.2L334.0,335.6L332.8,334.2L328.9,331.9L326.8,332.0L316.3,336.2L308.3,335.6L306.6,333.9L307.2,327.4L305.7,325.1L295.4,325.5L290.1,326.9L288.2,328.4L288.9,331.3L287.3,337.6L290.4,339.7L289.5,342.6L288.5,349.1L287.5,351.6L286.0,352.3L282.4,356.3L282.1,357.9L278.0,357.9L274.8,359.6L272.7,359.8L266.0,356.4L262.3,359.9L261.5,362.8L257.4,367.5L255.3,368.3L250.4,368.0L247.3,367.2L245.0,367.8L242.8,368.7L241.3,369.6L239.6,368.0L235.8,367.2L228.6,367.4L223.3,366.5L215.8,370.7L212.7,374.1L213.1,379.1L214.4,381.1L218.4,386.1L221.1,395.0L221.2,399.2L218.2,405.0L216.5,406.7L210.1,409.9L200.9,412.8L198.1,415.3L199.1,419.8L201.8,422.1L202.5,425.6L201.4,428.0L196.9,431.8L196.9,433.4L198.9,434.9L203.1,436.3L204.5,437.5L204.5,442.8L205.7,445.1L206.4,449.8L202.7,455.4L200.8,462.4L197.4,471.2L198.2,471.1L200.5,473.4L202.3,478.8L204.8,481.1L209.8,480.3L217.3,486.3L220.0,485.3L221.9,485.5L226.4,487.8L233.2,494.4L235.5,493.5L236.0,493.5L239.0,493.6L241.5,494.1L250.1,492.6L252.4,489.7L255.0,490.1L259.3,488.5L265.6,489.1L267.0,484.8L270.8,485.6L277.2,488.7L279.2,489.1L279.9,489.4L282.0,486.8L283.7,482.6L283.0,477.0L281.0,471.3L285.4,465.1L284.5,461.3L280.4,457.1L281.2,455.6L287.0,455.5L290.1,454.0L292.5,446.9L294.6,444.3L299.8,443.8L304.2,440.5L307.0,440.2L311.1,437.7L314.3,439.3L320.6,438.7L323.2,436.9L323.6,430.8L323.5,423.6L324.3,420.5L325.6,412.0L328.0,403.6L330.1,395.4L329.0,393.7L325.4,392.0L323.7,390.5L322.0,386.4L323.0,383.3L326.2,378.3L327.2,373.8L328.6,372.9L336.8,369.7L338.3,368.2L337.8,359.6L337.0,354.8L337.2,350.6L337.3,346.7Z " data-id="AO.CN" data-name="Cuanza Norte" id="AO.CN"/>
utf-8utf-8<path d="M279.2,489.1L277.2,488.7L270.8,485.6L267.0,484.8L265.6,489.1L259.3,488.5L255.0,490.1L252.4,489.7L250.1,492.6L241.5,494.1L239.0,493.6L236.0,493.5L236.7,500.9L236.6,510.7L233.7,517.4L233.9,519.5L235.4,524.5L236.0,527.8L234.7,532.3L234.8,534.2L239.3,540.2L239.7,544.3L238.7,548.4L236.4,552.4L234.1,555.0L228.7,552.2L221.7,544.5L215.7,541.4L213.3,540.6L207.2,540.1L201.5,542.9L196.4,547.9L190.4,551.9L187.0,549.5L184.7,548.8L177.2,549.4L167.4,546.6L166.3,548.2L160.6,540.3L151.4,534.2L148.7,537.6L150.3,540.1L151.2,544.1L151.3,550.3L152.8,553.9L157.9,558.6L165.4,569.0L166.3,570.9L169.6,574.0L170.9,578.4L168.4,581.7L168.3,586.6L175.4,598.6L176.6,601.5L177.0,604.9L176.7,616.9L174.5,630.0L174.2,633.6L172.2,637.8L172.2,642.8L171.5,646.1L172.1,646.9L171.1,650.6L170.6,660.6L171.6,675.2L186.4,678.2L191.1,677.5L194.4,678.8L195.3,680.5L197.6,688.6L201.3,691.1L203.3,693.0L207.1,698.4L212.1,694.2L216.1,688.2L221.6,684.0L227.1,683.2L229.9,685.4L237.4,697.1L239.6,702.0L242.0,705.8L246.8,707.5L249.5,707.3L253.0,706.0L256.8,706.6L264.0,710.8L266.6,715.5L268.3,716.8L270.0,717.2L274.1,707.2L277.9,702.7L287.0,699.2L289.4,698.6L295.5,695.2L299.4,695.2L298.5,692.7L298.9,683.7L300.1,683.0L301.2,676.6L299.9,675.2L299.2,670.8L297.3,667.2L298.6,661.0L301.6,657.7L307.9,655.2L313.0,652.9L319.1,651.7L327.3,649.3L329.6,647.2L331.5,642.9L332.8,638.2L332.8,631.9L334.9,629.2L340.0,621.1L343.1,613.8L346.5,601.6L350.8,604.9L359.1,605.3L365.4,606.8L368.5,604.2L373.2,595.5L376.8,591.3L388.2,583.3L391.4,578.7L395.7,576.5L397.9,569.0L400.2,567.4L399.6,566.8L398.1,563.9L395.6,561.1L391.0,554.5L386.8,551.7L387.2,546.3L383.7,541.3L378.4,537.6L378.0,532.2L378.5,530.2L381.9,527.5L379.0,513.7L377.2,511.3L376.5,505.5L375.0,504.0L373.2,503.6L370.0,498.9L369.9,496.9L367.9,492.8L357.4,490.0L356.3,491.0L354.7,489.4L350.5,489.7L349.1,488.3L345.2,490.4L336.4,488.7L335.3,492.2L332.3,494.8L324.7,495.5L320.4,494.7L317.9,496.1L313.1,495.4L311.3,496.6L296.7,497.3L295.5,497.9L291.2,496.1L287.0,495.7L284.8,493.2L280.1,490.7L279.9,489.4L279.2,489.1Z " data-id="AO.CS" data-name="Cuanza Sul" id="AO.CS"/>
utf-8utf-8<path d="M141.0,385.9L143.4,389.7L141.2,400.5L139.2,401.3L133.3,400.9L132.9,403.0L126.4,406.7L127.4,405.0L131.4,400.5L126.1,405.2L125.4,410.3L121.4,417.5L116.7,421.2L112.1,429.8L110.2,429.6L110.8,427.1L113.8,419.5L119.6,414.0L121.4,411.1L117.3,413.1L112.8,419.2L109.6,426.4L109.9,431.6L111.5,434.2L113.8,440.3L119.8,451.7L121.6,453.3L124.9,451.4L126.6,448.5L129.9,441.6L132.8,438.8L136.2,437.7L139.2,438.2L143.3,437.3L148.5,438.7L149.2,436.7L151.0,420.2L154.1,415.8L156.5,410.8L161.9,407.9L162.2,405.0L161.6,400.7L160.3,394.9L157.8,390.7L156.2,390.2L152.3,390.6L145.2,385.3L140.6,384.6L141.0,385.9Z " data-id="AO.LU" data-name="Luanda" id="AO.LU"/>
utf-8utf-8<path d="M442.8,273.1L439.5,269.7L436.7,267.5L434.6,266.8L434.1,262.8L430.6,258.2L430.8,253.3L429.2,247.3L429.4,245.0L432.0,245.8L433.0,240.8L432.3,239.2L429.4,236.5L429.9,234.4L429.3,229.2L428.4,226.9L426.4,225.4L422.7,224.6L421.8,223.6L421.0,219.7L416.6,212.6L413.0,192.8L413.6,190.4L411.8,190.3L413.0,187.0L411.4,185.4L412.7,175.6L412.7,168.9L413.7,165.0L411.2,160.6L408.3,159.0L407.0,156.9L404.4,155.9L406.1,153.6L403.9,153.3L403.3,146.5L402.0,143.5L403.4,140.7L396.8,137.3L392.3,137.1L389.7,138.0L387.1,137.9L380.7,134.3L257.8,136.6L254.7,136.7L256.1,140.6L262.0,150.6L263.1,153.6L265.0,162.5L265.9,165.6L271.3,171.8L270.8,174.6L267.8,179.2L265.0,181.7L258.0,193.3L257.1,195.3L250.4,200.7L247.1,202.0L242.3,203.0L236.0,203.0L232.3,208.0L227.1,210.2L219.5,210.5L215.3,214.6L213.3,217.9L211.4,222.4L204.2,226.3L196.3,228.7L193.6,230.1L190.0,233.3L186.2,236.2L177.7,236.6L176.2,237.5L178.5,242.6L180.6,249.4L182.0,252.1L186.3,257.4L186.2,259.3L182.2,265.8L181.4,268.3L181.4,271.5L183.7,277.1L188.6,283.9L188.4,286.0L185.6,288.6L181.9,289.4L178.9,291.5L177.3,296.3L183.2,297.2L199.6,297.5L202.2,298.3L205.0,301.9L210.7,308.1L215.3,314.6L219.5,318.2L225.7,321.4L232.7,322.5L244.2,319.8L248.0,321.0L249.9,324.5L249.2,339.4L248.6,341.5L245.1,347.7L243.0,356.5L243.2,359.9L245.0,367.8L247.3,367.2L250.4,368.0L255.3,368.3L257.4,367.5L261.5,362.8L262.3,359.9L266.0,356.4L272.7,359.8L274.8,359.6L278.0,357.9L282.1,357.9L282.4,356.3L286.0,352.3L287.5,351.6L288.5,349.1L289.5,342.6L290.4,339.7L287.3,337.6L288.9,331.3L288.2,328.4L290.1,326.9L295.4,325.5L305.7,325.1L307.2,327.4L306.6,333.9L308.3,335.6L316.3,336.2L326.8,332.0L328.9,331.9L332.8,334.2L334.0,335.6L333.8,340.2L335.5,340.6L337.0,342.2L337.3,346.7L337.2,350.6L342.2,351.5L346.7,350.7L349.6,348.8L357.3,345.6L360.8,341.8L362.3,333.5L364.4,326.6L363.7,319.9L358.9,302.2L359.9,295.5L362.7,293.7L365.1,292.9L369.4,292.5L371.6,291.6L376.7,287.5L381.9,279.2L387.4,275.0L400.0,269.3L404.7,269.9L406.3,271.4L409.2,277.7L417.0,290.1L420.4,293.3L422.2,294.1L427.7,294.1L431.1,291.0L433.3,281.2L435.1,278.3L438.2,275.9L442.7,274.1L442.8,273.1Z " data-id="AO.UI" data-name="Uíge" id="AO.UI"/>
utf-8utf-8<path d="M250.2,136.8L239.9,138.9L237.4,138.6L232.3,137.1L228.6,137.9L211.2,137.3L206.5,135.4L204.6,135.1L195.0,135.9L191.9,134.2L188.7,133.1L164.3,135.3L157.9,134.6L154.7,135.5L152.3,134.7L143.2,134.5L140.1,137.6L137.5,136.1L134.2,135.1L127.3,134.5L121.4,137.6L116.1,137.1L111.2,138.6L110.1,139.7L106.4,145.9L102.8,147.7L101.1,149.1L97.5,150.6L91.4,152.2L85.6,150.4L83.6,150.3L78.3,153.4L75.8,153.8L71.5,156.3L66.3,157.6L62.2,157.8L57.6,158.9L57.8,156.2L54.8,156.5L53.6,158.2L53.9,161.2L57.1,167.8L63.2,177.4L68.2,190.4L75.6,205.7L81.2,215.1L88.1,222.4L93.9,231.6L95.5,232.4L97.9,230.7L98.2,239.9L99.4,258.2L99.8,260.6L99.4,263.8L104.3,270.2L106.5,279.4L110.2,289.9L118.8,312.2L123.3,311.6L128.7,308.8L130.8,307.0L133.7,307.9L139.0,303.8L143.6,303.2L147.5,306.4L151.9,306.8L165.3,301.3L170.0,301.0L176.7,296.9L177.3,296.3L178.9,291.5L181.9,289.4L185.6,288.6L188.4,286.0L188.6,283.9L183.7,277.1L181.4,271.5L181.4,268.3L182.2,265.8L186.2,259.3L186.3,257.4L182.0,252.1L180.6,249.4L178.5,242.6L176.2,237.5L177.7,236.6L186.2,236.2L190.0,233.3L193.6,230.1L196.3,228.7L204.2,226.3L211.4,222.4L213.3,217.9L215.3,214.6L219.5,210.5L227.1,210.2L232.3,208.0L236.0,203.0L242.3,203.0L247.1,202.0L250.4,200.7L257.1,195.3L258.0,193.3L265.0,181.7L267.8,179.2L270.8,174.6L271.3,171.8L265.9,165.6L265.0,162.5L263.1,153.6L262.0,150.6L256.1,140.6L254.7,136.7L250.2,136.8Z " data-id="AO.ZA" data-name="Zaire" id="AO.ZA"/>
utf-8utf-8<path d="M93.8,0.0L91.9,1.3L90.3,5.6L85.3,10.7L83.5,14.4L81.3,16.0L63.4,19.7L62.6,20.9L62.3,26.8L58.9,34.4L56.9,36.0L54.1,36.3L51.0,37.9L49.3,34.7L47.2,34.6L44.7,44.0L42.5,47.9L33.3,56.7L37.2,58.3L37.7,57.5L39.8,60.8L41.0,56.1L43.0,57.2L43.0,59.0L41.3,62.3L40.0,63.2L38.4,62.8L33.7,59.1L33.7,60.1L37.5,66.9L41.9,72.8L42.5,77.2L45.7,83.6L45.6,86.1L47.6,92.2L49.0,95.4L50.4,102.8L49.3,104.9L46.4,105.7L45.4,106.8L43.5,112.6L44.6,118.4L48.5,125.9L52.5,123.5L59.4,122.4L72.7,122.5L74.7,70.8L74.2,67.7L68.3,64.9L67.8,60.9L69.6,60.7L76.4,58.1L79.4,55.9L81.8,49.9L86.9,48.9L88.4,44.5L93.2,40.9L94.0,39.8L95.6,33.7L97.0,32.0L99.5,30.4L115.4,26.2L118.3,25.0L119.0,22.4L115.2,20.3L109.9,13.1L105.2,8.2L103.7,3.8L101.3,1.1L98.1,2.0L93.8,0.0Z " data-id="AO.CB" data-name="Cabinda" id="AO.CB"/>
utf-8utf-8<path d="M573.2,605.5L571.9,612.3L572.4,614.8L574.6,619.5L575.1,621.9L573.8,627.9L578.0,633.2L578.6,638.4L576.5,640.4L567.0,640.8L558.4,644.4L552.5,648.1L547.0,654.3L545.4,655.5L537.6,655.9L533.6,654.9L531.5,655.0L522.6,657.2L521.3,656.7L513.1,656.8L511.4,654.2L507.5,655.0L503.5,653.9L502.9,652.0L503.3,648.8L500.8,642.9L497.3,639.7L498.3,645.9L498.3,652.4L497.6,655.2L496.1,657.5L488.3,666.6L482.5,671.5L477.4,673.1L470.4,669.3L471.2,663.5L469.1,658.1L468.8,655.9L469.7,653.9L473.1,651.9L473.0,650.4L469.7,651.4L469.8,647.9L471.8,645.9L472.0,641.2L468.0,634.0L467.2,628.4L464.6,628.1L462.9,627.2L463.1,624.0L467.3,620.9L467.1,615.9L465.2,612.9L464.4,609.8L462.4,607.5L459.6,598.3L455.4,595.5L453.9,593.4L449.5,594.1L446.1,592.6L445.1,592.9L444.2,589.7L440.4,589.1L438.7,591.2L433.8,587.8L425.3,585.0L422.3,583.5L419.0,584.9L415.9,585.5L411.6,583.5L409.3,579.3L403.7,576.9L402.3,574.0L400.3,572.8L400.1,571.5L402.4,569.0L401.5,568.2L400.2,567.4L397.9,569.0L395.7,576.5L391.4,578.7L388.2,583.3L376.8,591.3L373.2,595.5L368.5,604.2L365.4,606.8L359.1,605.3L350.8,604.9L346.5,601.6L343.1,613.8L340.0,621.1L334.9,629.2L332.8,631.9L332.8,638.2L331.5,642.9L329.6,647.2L336.0,650.2L342.1,651.3L348.5,650.3L354.3,647.7L363.9,649.8L366.9,650.9L371.0,651.3L374.4,658.0L375.0,662.5L378.0,666.7L386.3,675.0L387.7,677.0L388.6,682.1L392.7,685.9L395.6,689.8L396.2,692.9L394.4,697.5L391.9,701.7L389.8,708.1L386.3,713.5L381.6,717.8L375.9,723.7L375.9,724.7L379.2,733.1L378.9,740.8L378.4,742.7L373.2,747.6L373.9,753.4L376.6,757.4L377.9,760.3L385.1,765.8L388.6,767.2L389.4,795.9L390.8,804.1L390.7,815.1L389.5,822.7L388.7,827.8L389.0,831.7L388.6,850.7L385.7,861.8L384.9,863.3L384.8,867.7L384.2,882.7L385.9,882.0L394.1,882.2L397.7,881.8L403.1,879.7L405.2,880.1L411.1,883.7L412.9,883.9L421.0,881.0L425.0,884.0L427.4,888.6L429.7,897.0L433.1,900.5L437.3,903.4L440.0,904.6L444.7,908.4L446.8,909.5L451.6,910.2L450.8,907.5L453.3,903.8L454.1,900.7L453.9,897.4L454.9,895.0L458.2,892.5L461.4,888.7L463.9,884.6L466.3,883.0L471.2,882.8L474.4,881.2L478.6,880.9L489.3,872.5L491.7,868.2L491.7,859.8L492.1,853.7L498.9,851.9L501.5,849.4L502.9,846.1L503.9,842.6L503.6,839.6L504.9,832.8L503.8,826.2L506.2,822.6L512.4,819.1L513.9,817.6L514.4,815.2L513.8,811.2L511.7,803.8L513.2,799.7L513.3,798.0L518.2,793.5L522.5,786.7L522.9,784.0L521.8,775.5L523.8,774.3L531.8,767.1L533.2,765.3L535.0,758.3L540.2,752.0L543.2,746.3L543.0,743.8L544.3,740.5L551.4,732.9L553.3,731.4L557.6,729.4L562.7,725.0L567.0,722.3L568.9,719.1L568.1,715.8L572.3,710.0L578.5,703.7L580.2,699.5L578.6,693.9L578.6,691.5L579.4,689.1L581.3,686.3L583.3,682.0L587.9,677.6L588.7,675.1L588.5,671.4L589.5,670.4L594.9,668.8L596.5,667.0L597.4,664.1L599.5,655.5L602.6,651.1L605.0,648.7L606.8,648.3L606.9,646.1L607.6,642.5L610.9,633.4L610.8,631.3L608.1,627.6L601.2,625.5L593.7,618.4L590.0,615.1L573.2,602.9L573.2,605.5Z " data-id="AO.BI" data-name="Bié" id="AO.BI"/>
utf-8utf-8<path d="M268.3,716.8L266.6,715.5L264.0,710.8L256.8,706.6L253.0,706.0L249.5,707.3L246.8,707.5L242.0,705.8L239.6,702.0L237.4,697.1L229.9,685.4L227.1,683.2L221.6,684.0L216.1,688.2L212.1,694.2L207.1,698.4L203.3,693.0L201.3,691.1L197.6,688.6L195.3,680.5L194.4,678.8L191.1,677.5L186.4,678.2L171.6,675.2L171.8,677.2L170.7,681.8L169.3,691.0L168.7,693.0L165.1,699.0L164.2,705.4L160.8,713.8L158.7,721.1L152.4,730.0L152.9,726.8L147.8,732.3L145.3,738.4L145.0,742.2L142.2,746.3L138.5,750.6L136.1,752.7L133.3,753.3L128.1,751.7L125.6,754.5L121.2,753.5L119.8,754.4L107.4,767.7L105.5,768.9L101.7,773.2L100.7,775.5L103.1,785.9L102.0,788.4L96.9,794.8L92.3,800.1L87.0,807.7L82.9,810.5L81.5,810.1L80.7,812.1L78.4,813.5L76.8,817.1L77.3,819.1L76.6,821.5L73.3,823.1L68.3,826.7L66.6,830.6L67.7,836.3L68.2,841.9L68.2,842.1L72.4,839.4L74.6,839.0L81.9,840.6L85.9,842.0L91.5,842.9L95.0,845.7L96.9,846.2L99.1,845.7L107.9,841.9L111.7,838.3L113.9,837.9L128.7,841.6L129.9,844.7L129.1,853.1L137.6,866.4L141.6,865.9L148.2,868.0L150.7,867.7L159.3,864.5L170.4,867.5L174.3,867.6L180.3,865.9L183.6,865.8L187.5,867.5L192.3,867.8L209.9,870.2L214.1,868.5L216.7,864.6L222.4,852.2L224.3,846.4L226.8,845.7L237.4,850.4L240.6,850.4L248.5,847.3L255.5,840.5L259.5,837.5L264.8,838.1L273.7,833.7L275.6,827.0L272.3,824.9L269.9,821.7L265.7,818.3L263.8,816.2L260.5,809.3L260.0,807.1L261.3,801.6L261.0,796.8L257.8,787.0L255.3,781.4L254.5,776.9L252.4,770.3L252.1,761.1L253.3,759.2L258.9,755.2L260.3,752.8L265.7,749.3L272.0,748.0L273.5,745.6L272.1,741.5L272.1,739.4L269.7,730.5L269.5,728.6L270.0,717.2L268.3,716.8Z " data-id="AO.BG" data-name="Benguela" id="AO.BG"/>
utf-8utf-8<path d="M821.8,1080.6L816.0,1074.9L811.6,1073.0L809.9,1070.7L808.0,1064.9L806.0,1062.1L805.6,1060.2L803.6,1055.7L801.7,1055.4L800.7,1052.0L798.4,1051.2L793.7,1051.2L790.4,1044.0L787.4,1039.1L782.9,1028.1L779.4,1026.8L778.3,1024.9L776.1,1013.6L775.1,1012.4L772.0,1012.6L771.7,1010.8L768.3,1008.6L764.0,998.7L762.1,996.5L758.6,997.6L756.4,993.1L753.8,993.4L753.3,991.9L749.7,986.4L743.2,978.4L740.0,974.0L738.3,975.3L737.0,975.0L734.6,972.7L730.1,974.0L724.2,972.4L720.4,969.9L715.9,970.7L714.5,970.3L711.3,971.3L710.1,972.4L702.7,972.1L699.2,973.2L690.1,971.8L687.3,972.2L682.9,970.2L678.9,968.8L672.0,964.1L670.9,962.4L664.6,954.7L661.9,952.5L660.1,952.0L652.1,943.7L644.5,933.9L641.0,930.4L639.0,924.9L634.4,915.3L632.4,913.5L629.1,908.4L626.6,908.0L620.0,909.0L613.1,907.4L609.5,905.6L606.9,904.9L604.6,905.0L601.2,907.5L600.7,909.3L601.4,915.3L599.3,917.6L593.8,916.2L588.0,916.1L582.3,918.4L578.3,917.0L571.1,902.2L569.4,889.8L570.2,887.5L567.7,883.3L565.5,877.1L559.0,869.5L556.9,868.6L551.9,864.1L544.3,861.4L534.2,856.1L531.4,855.5L524.8,855.1L506.4,843.6L503.9,842.6L502.9,846.1L501.5,849.4L498.9,851.9L492.1,853.7L491.7,859.8L491.7,868.2L489.3,872.5L478.6,880.9L474.4,881.2L471.2,882.8L466.3,883.0L463.9,884.6L461.4,888.7L458.2,892.5L454.9,895.0L453.9,897.4L454.1,900.7L453.3,903.8L450.8,907.5L451.6,910.2L446.8,909.5L444.7,908.4L440.0,904.6L437.3,903.4L433.1,900.5L429.7,897.0L427.4,888.6L425.0,884.0L421.0,881.0L412.9,883.9L411.1,883.7L405.2,880.1L403.1,879.7L397.7,881.8L394.1,882.2L385.9,882.0L384.2,882.7L385.0,884.8L384.4,888.1L385.7,894.2L384.5,903.8L382.9,906.4L383.9,914.7L386.0,921.2L385.5,939.3L389.8,944.6L391.9,945.0L390.8,946.9L393.3,947.3L394.9,949.4L393.4,953.1L396.6,958.3L397.7,962.3L396.9,967.5L397.5,970.9L401.0,976.4L401.3,978.0L400.2,982.5L400.9,984.0L404.3,988.5L405.1,989.0L406.9,989.5L406.7,993.6L411.4,996.3L412.6,1001.7L418.2,1006.1L417.1,1007.3L421.6,1011.8L424.9,1012.3L426.8,1015.5L428.3,1014.9L429.2,1019.3L430.6,1021.5L435.0,1024.8L437.1,1027.0L447.0,1047.5L453.1,1055.6L453.7,1058.5L453.7,1070.0L455.4,1087.7L455.5,1098.9L454.2,1104.4L451.8,1109.7L446.5,1116.5L444.7,1124.2L441.1,1132.9L440.1,1136.1L439.3,1142.1L439.1,1148.1L439.6,1157.4L442.9,1177.4L442.2,1192.8L449.2,1192.8L531.3,1192.9L536.2,1192.9L537.6,1195.2L538.8,1198.6L541.0,1200.4L543.6,1206.3L549.0,1211.7L552.9,1217.1L560.0,1225.8L563.1,1226.6L570.1,1230.5L580.4,1232.6L587.2,1232.2L590.0,1231.0L595.0,1231.2L598.6,1230.9L599.8,1231.8L612.4,1236.0L626.1,1235.8L634.1,1234.9L634.8,1236.6L639.0,1238.7L640.2,1238.8L642.2,1236.3L654.8,1236.3L657.7,1238.2L661.3,1239.4L670.3,1238.2L670.9,1238.8L676.2,1237.3L678.0,1238.2L680.9,1235.6L689.5,1238.8L691.5,1238.3L693.5,1239.2L697.5,1243.6L700.2,1245.1L705.5,1247.0L708.7,1246.8L714.7,1249.3L717.2,1248.3L722.6,1251.8L729.7,1250.1L730.9,1247.6L745.8,1243.2L747.0,1243.9L751.2,1242.5L760.5,1245.1L767.3,1248.2L769.0,1250.2L770.5,1249.8L816.7,1240.1L873.5,1228.1L929.5,1216.0L929.7,1212.3L926.5,1208.6L922.6,1206.3L920.0,1206.0L915.8,1206.8L913.5,1205.2L913.6,1201.0L912.8,1200.0L909.3,1198.5L905.5,1194.3L904.1,1191.6L903.1,1188.1L899.9,1184.1L895.0,1182.2L890.3,1179.9L880.9,1171.3L880.1,1167.1L874.1,1157.9L866.5,1153.7L865.4,1150.2L862.9,1149.3L854.9,1134.6L852.3,1133.0L845.5,1125.9L842.5,1126.8L840.8,1126.4L834.1,1120.2L833.1,1116.1L830.8,1115.3L830.8,1112.4L828.7,1107.4L829.7,1099.5L827.0,1096.2L825.3,1093.5L823.8,1088.5L826.5,1088.5L823.9,1083.5L821.8,1080.6Z " data-id="AO.CC" data-name="Cuando Cubango" id="AO.CC"/>
utf-8utf-8<path d="M395.0,988.3L385.8,987.9L378.4,990.7L374.4,993.3L372.5,996.3L362.6,1008.5L360.9,1009.7L354.7,1009.6L348.8,1010.7L335.1,1010.5L329.6,1009.0L323.0,1009.6L320.6,1010.3L314.9,1013.5L312.6,1014.2L306.7,1018.1L300.1,1026.0L293.4,1038.8L289.5,1044.1L282.5,1059.1L278.2,1064.7L276.0,1068.9L272.7,1070.7L265.6,1069.2L262.9,1061.8L259.5,1059.1L250.6,1055.8L239.7,1052.8L236.0,1052.4L228.5,1052.5L224.9,1052.2L222.3,1054.2L212.6,1065.5L211.1,1066.7L202.6,1071.9L195.4,1074.7L191.6,1075.7L186.3,1081.6L181.9,1083.4L177.9,1079.5L176.0,1078.9L173.7,1079.7L171.4,1082.3L165.0,1091.2L157.8,1096.8L152.9,1098.9L151.0,1099.0L147.3,1095.5L145.4,1093.1L140.4,1088.1L135.1,1094.8L128.8,1098.0L127.7,1099.9L124.7,1101.2L123.1,1103.4L120.7,1104.1L117.7,1108.2L121.0,1112.5L121.3,1114.5L120.5,1117.5L119.2,1119.7L114.0,1124.2L112.8,1128.4L113.5,1130.9L116.8,1135.6L125.3,1145.4L127.5,1149.8L128.4,1154.3L129.8,1153.8L134.1,1156.6L139.1,1158.1L140.2,1159.3L141.2,1163.0L143.0,1165.7L142.2,1168.3L148.9,1172.5L155.8,1178.9L170.9,1188.2L175.4,1194.6L179.4,1195.8L180.7,1194.9L190.4,1194.7L194.0,1195.3L195.7,1195.0L196.6,1192.7L428.7,1192.8L442.2,1192.8L442.9,1177.4L439.6,1157.4L439.1,1148.1L439.3,1142.1L440.1,1136.1L441.1,1132.9L444.7,1124.2L446.5,1116.5L451.8,1109.7L454.2,1104.4L455.5,1098.9L455.4,1087.7L453.7,1070.0L453.7,1058.5L453.1,1055.6L447.0,1047.5L437.1,1027.0L435.0,1024.8L430.6,1021.5L429.2,1019.3L428.3,1014.9L426.8,1015.5L424.9,1012.3L421.6,1011.8L417.1,1007.3L418.2,1006.1L412.6,1001.7L411.4,996.3L406.7,993.6L406.9,989.5L405.1,989.0L404.3,988.5L395.0,988.3Z " data-id="AO.CU" data-name="Cunene" id="AO.CU"/>
utf-8utf-8<path d="M390.7,815.1L390.8,804.1L389.4,795.9L388.6,767.2L385.1,765.8L377.9,760.3L376.6,757.4L373.9,753.4L373.2,747.6L378.4,742.7L378.9,740.8L379.2,733.1L375.9,724.7L375.9,723.7L381.6,717.8L386.3,713.5L389.8,708.1L391.9,701.7L394.4,697.5L396.2,692.9L395.6,689.8L392.7,685.9L388.6,682.1L387.7,677.0L386.3,675.0L378.0,666.7L375.0,662.5L374.4,658.0L371.0,651.3L366.9,650.9L363.9,649.8L354.3,647.7L348.5,650.3L342.1,651.3L336.0,650.2L329.6,647.2L327.3,649.3L319.1,651.7L313.0,652.9L307.9,655.2L301.6,657.7L298.6,661.0L297.3,667.2L299.2,670.8L299.9,675.2L301.2,676.6L300.1,683.0L298.9,683.7L298.5,692.7L299.4,695.2L295.5,695.2L289.4,698.6L287.0,699.2L277.9,702.7L274.1,707.2L270.0,717.2L269.5,728.6L269.7,730.5L272.1,739.4L272.1,741.5L273.5,745.6L272.0,748.0L265.7,749.3L260.3,752.8L258.9,755.2L253.3,759.2L252.1,761.1L252.4,770.3L254.5,776.9L255.3,781.4L257.8,787.0L261.0,796.8L261.3,801.6L260.0,807.1L260.5,809.3L263.8,816.2L265.7,818.3L269.9,821.7L272.3,824.9L275.6,827.0L279.3,828.0L289.7,825.6L291.9,825.8L294.2,829.2L295.8,834.1L296.8,845.1L297.8,847.1L299.4,848.2L306.2,849.2L306.8,851.0L307.2,859.2L309.1,860.2L315.5,856.1L319.7,850.7L326.4,846.5L340.3,830.1L344.0,826.8L348.0,827.0L351.1,830.0L358.0,830.2L359.2,829.1L362.9,823.8L366.8,821.3L369.2,821.2L371.7,822.0L378.7,822.3L384.2,823.7L389.5,822.7L390.7,815.1Z " data-id="AO.HM" data-name="Huambo" id="AO.HM"/>
utf-8utf-8<path d="M384.2,823.7L378.7,822.3L371.7,822.0L369.2,821.2L366.8,821.3L362.9,823.8L359.2,829.1L358.0,830.2L351.1,830.0L348.0,827.0L344.0,826.8L340.3,830.1L326.4,846.5L319.7,850.7L315.5,856.1L309.1,860.2L307.2,859.2L306.8,851.0L306.2,849.2L299.4,848.2L297.8,847.1L296.8,845.1L295.8,834.1L294.2,829.2L291.9,825.8L289.7,825.6L279.3,828.0L275.6,827.0L273.7,833.7L264.8,838.1L259.5,837.5L255.5,840.5L248.5,847.3L240.6,850.4L237.4,850.4L226.8,845.7L224.3,846.4L222.4,852.2L216.7,864.6L214.1,868.5L209.9,870.2L192.3,867.8L187.5,867.5L183.6,865.8L180.3,865.9L174.3,867.6L170.4,867.5L159.3,864.5L150.7,867.7L151.8,870.8L154.9,875.8L155.4,877.9L153.1,884.2L152.0,889.4L154.0,897.3L153.5,900.5L153.8,902.3L158.2,907.3L159.2,922.0L155.1,930.3L153.3,939.6L151.6,943.9L147.7,948.8L132.7,960.3L127.7,963.2L126.2,965.1L125.3,967.6L125.6,975.8L123.0,982.3L126.1,988.3L125.4,991.1L122.4,993.1L121.1,994.6L122.3,997.5L126.0,997.9L127.5,998.7L128.7,1002.8L130.0,1004.2L131.7,1004.1L135.3,1002.0L136.6,1003.3L137.4,1010.7L138.3,1012.9L144.1,1017.4L146.8,1022.3L146.8,1040.9L149.8,1048.9L149.0,1053.6L143.3,1064.8L141.7,1071.9L142.0,1073.9L143.9,1079.4L144.2,1082.4L142.0,1087.1L140.4,1088.1L145.4,1093.1L147.3,1095.5L151.0,1099.0L152.9,1098.9L157.8,1096.8L165.0,1091.2L171.4,1082.3L173.7,1079.7L176.0,1078.9L177.9,1079.5L181.9,1083.4L186.3,1081.6L191.6,1075.7L195.4,1074.7L202.6,1071.9L211.1,1066.7L212.6,1065.5L222.3,1054.2L224.9,1052.2L228.5,1052.5L236.0,1052.4L239.7,1052.8L250.6,1055.8L259.5,1059.1L262.9,1061.8L265.6,1069.2L272.7,1070.7L276.0,1068.9L278.2,1064.7L282.5,1059.1L289.5,1044.1L293.4,1038.8L300.1,1026.0L306.7,1018.1L312.6,1014.2L314.9,1013.5L320.6,1010.3L323.0,1009.6L329.6,1009.0L335.1,1010.5L348.8,1010.7L354.7,1009.6L360.9,1009.7L362.6,1008.5L372.5,996.3L374.4,993.3L378.4,990.7L385.8,987.9L395.0,988.3L404.3,988.5L400.9,984.0L400.2,982.5L401.3,978.0L401.0,976.4L397.5,970.9L396.9,967.5L397.7,962.3L396.6,958.3L393.4,953.1L394.9,949.4L393.3,947.3L390.8,946.9L391.9,945.0L389.8,944.6L385.5,939.3L386.0,921.2L383.9,914.7L382.9,906.4L384.5,903.8L385.7,894.2L384.4,888.1L385.0,884.8L384.2,882.7L384.8,867.7L384.9,863.3L385.7,861.8L388.6,850.7L389.0,831.7L388.7,827.8L389.5,822.7L384.2,823.7Z " data-id="AO.HL" data-name="Huíla" id="AO.HL"/>
utf-8utf-8<path d="M606.8,648.3L605.0,648.7L602.6,651.1L599.5,655.5L597.4,664.1L596.5,667.0L594.9,668.8L589.5,670.4L588.5,671.4L588.7,675.1L587.9,677.6L583.3,682.0L581.3,686.3L579.4,689.1L578.6,691.5L578.6,693.9L580.2,699.5L578.5,703.7L572.3,710.0L568.1,715.8L568.9,719.1L567.0,722.3L562.7,725.0L557.6,729.4L553.3,731.4L551.4,732.9L544.3,740.5L543.0,743.8L543.2,746.3L540.2,752.0L535.0,758.3L533.2,765.3L531.8,767.1L523.8,774.3L521.8,775.5L522.9,784.0L522.5,786.7L518.2,793.5L513.3,798.0L513.2,799.7L511.7,803.8L513.8,811.2L514.4,815.2L513.9,817.6L512.4,819.1L506.2,822.6L503.8,826.2L504.9,832.8L503.6,839.6L503.9,842.6L506.4,843.6L524.8,855.1L531.4,855.5L534.2,856.1L544.3,861.4L551.9,864.1L556.9,868.6L559.0,869.5L565.5,877.1L567.7,883.3L570.2,887.5L569.4,889.8L571.1,902.2L578.3,917.0L582.3,918.4L588.0,916.1L593.8,916.2L599.3,917.6L601.4,915.3L600.7,909.3L601.2,907.5L604.6,905.0L606.9,904.9L609.5,905.6L613.1,907.4L620.0,909.0L626.6,908.0L629.1,908.4L632.4,913.5L634.4,915.3L639.0,924.9L641.0,930.4L644.5,933.9L652.1,943.7L660.1,952.0L661.9,952.5L664.6,954.7L670.9,962.4L672.0,964.1L678.9,968.8L682.9,970.2L687.3,972.2L690.1,971.8L699.2,973.2L702.7,972.1L710.1,972.4L711.3,971.3L714.5,970.3L715.9,970.7L720.4,969.9L724.2,972.4L730.1,974.0L734.6,972.7L737.0,975.0L738.3,975.3L740.0,974.0L743.2,978.4L749.7,986.4L753.3,991.9L753.8,993.4L756.4,993.1L758.6,997.6L762.1,996.5L764.0,998.7L768.3,1008.6L771.7,1010.8L772.0,1012.6L775.1,1012.4L776.1,1013.6L778.3,1024.9L779.4,1026.8L782.9,1028.1L787.4,1039.1L790.4,1044.0L793.7,1051.2L798.4,1051.2L800.7,1052.0L801.7,1055.4L803.6,1055.7L805.6,1060.2L806.0,1062.1L808.0,1064.9L809.9,1070.7L811.6,1073.0L816.0,1074.9L821.8,1080.6L821.7,1078.6L825.0,956.1L828.6,804.0L828.9,790.2L991.4,790.2L987.5,781.3L983.3,776.2L981.7,773.7L981.0,770.7L981.7,767.1L983.3,763.0L986.6,749.8L987.6,747.2L994.9,735.2L995.2,733.6L994.5,729.5L994.3,723.9L993.5,721.5L989.8,716.3L989.5,712.2L991.1,687.5L992.9,683.0L992.5,673.0L990.5,667.3L990.5,664.9L992.5,659.5L994.8,655.6L995.3,648.7L999.6,642.7L996.2,633.9L995.8,631.5L996.4,618.5L994.4,616.9L995.7,604.9L993.0,594.8L991.4,595.6L989.7,601.5L985.9,605.1L985.2,607.1L981.9,609.1L975.4,607.2L972.3,606.8L966.5,606.9L954.7,603.2L948.3,603.1L944.9,604.2L930.5,613.1L915.7,615.9L909.0,615.4L902.8,611.4L900.9,611.3L895.6,614.8L892.6,615.4L889.5,615.0L877.4,609.9L874.4,610.4L871.8,617.7L869.4,620.0L861.3,623.0L856.4,628.2L852.9,629.4L854.1,625.6L854.4,621.8L853.7,613.7L853.2,611.9L850.0,605.8L850.0,602.3L847.7,592.9L849.1,590.9L852.5,587.9L860.3,584.6L860.9,578.5L859.7,576.1L859.5,572.9L859.6,570.9L856.6,572.1L851.2,570.7L846.0,568.9L841.8,568.8L838.6,571.0L825.3,572.4L818.2,572.6L815.7,576.8L813.7,585.4L813.9,588.9L813.1,590.8L809.7,593.8L807.8,597.1L805.9,607.0L807.8,611.5L809.6,612.5L809.9,615.7L809.4,618.7L804.9,621.1L791.1,625.1L785.9,626.1L780.7,628.3L776.5,630.6L772.1,631.7L765.7,639.3L765.1,640.5L762.7,642.0L760.8,641.8L755.6,644.9L755.6,649.8L752.0,650.1L745.2,649.6L738.7,648.4L735.4,647.1L731.4,646.6L730.1,644.3L727.2,644.4L723.6,642.1L719.3,640.6L716.9,638.2L714.7,638.4L705.3,631.9L702.3,633.1L698.1,632.2L695.9,629.9L687.4,625.6L685.6,626.2L680.9,632.0L675.8,631.2L674.6,630.4L669.4,630.7L668.2,632.8L665.6,634.1L663.5,632.9L663.1,631.7L659.2,629.8L655.1,633.5L652.0,634.5L649.4,634.6L645.4,632.6L642.2,630.0L637.7,630.7L635.3,635.3L629.1,641.1L622.5,644.5L618.8,644.4L614.3,643.5L610.7,646.9L606.8,648.3Z " data-id="AO.MX" data-name="Moxico" id="AO.MX"/>
utf-8utf-8<path d="M67.9,843.1L66.4,846.6L66.6,855.7L65.9,865.2L65.3,868.5L63.9,870.5L58.3,870.7L57.6,871.8L57.0,877.4L55.6,879.7L54.5,883.8L52.8,886.0L51.1,890.3L52.9,896.6L52.6,897.3L51.8,915.5L50.8,921.6L48.2,928.4L47.5,935.7L45.4,947.4L45.7,950.7L44.1,953.6L40.4,958.3L38.9,966.4L36.4,969.3L35.6,973.8L32.6,982.2L34.8,984.7L34.9,989.1L31.7,989.4L27.7,995.0L26.8,1005.8L25.3,1013.7L26.1,1016.1L25.1,1018.6L23.4,1025.5L23.1,1028.1L22.0,1030.2L17.0,1033.5L15.4,1035.6L14.8,1040.7L14.0,1042.1L9.9,1046.4L6.8,1044.2L2.5,1046.9L1.1,1052.2L1.2,1056.2L4.9,1062.8L6.6,1067.1L4.3,1074.5L7.2,1109.3L6.4,1118.9L7.0,1127.7L6.5,1130.0L6.6,1137.1L5.2,1141.0L4.2,1139.3L3.9,1135.4L2.5,1135.9L2.4,1138.6L3.3,1145.2L2.5,1152.3L1.4,1160.2L1.1,1172.3L0.5,1175.8L2.6,1180.5L6.1,1181.4L7.1,1179.7L11.9,1176.8L15.8,1173.7L19.1,1172.0L22.8,1170.8L28.9,1170.5L31.6,1171.5L33.4,1170.6L35.2,1173.4L39.7,1177.8L45.5,1177.2L50.7,1177.4L53.8,1175.8L61.9,1178.0L67.6,1177.6L71.3,1174.1L76.8,1172.2L79.7,1169.6L83.2,1167.7L91.6,1159.9L97.6,1157.8L101.9,1155.1L114.1,1152.6L118.6,1155.1L126.5,1154.8L128.4,1154.3L127.5,1149.8L125.3,1145.4L116.8,1135.6L113.5,1130.9L112.8,1128.4L114.0,1124.2L119.2,1119.7L120.5,1117.5L121.3,1114.5L121.0,1112.5L117.7,1108.2L120.7,1104.1L123.1,1103.4L124.7,1101.2L127.7,1099.9L128.8,1098.0L135.1,1094.8L140.4,1088.1L142.0,1087.1L144.2,1082.4L143.9,1079.4L142.0,1073.9L141.7,1071.9L143.3,1064.8L149.0,1053.6L149.8,1048.9L146.8,1040.9L146.8,1022.3L144.1,1017.4L138.3,1012.9L137.4,1010.7L136.6,1003.3L135.3,1002.0L131.7,1004.1L130.0,1004.2L128.7,1002.8L127.5,998.7L126.0,997.9L122.3,997.5L121.1,994.6L122.4,993.1L125.4,991.1L126.1,988.3L123.0,982.3L125.6,975.8L125.3,967.6L126.2,965.1L127.7,963.2L132.7,960.3L147.7,948.8L151.6,943.9L153.3,939.6L155.1,930.3L159.2,922.0L158.2,907.3L153.8,902.3L153.5,900.5L154.0,897.3L152.0,889.4L153.1,884.2L155.4,877.9L154.9,875.8L151.8,870.8L150.7,867.7L148.2,868.0L141.6,865.9L137.6,866.4L129.1,853.1L129.9,844.7L128.7,841.6L113.9,837.9L111.7,838.3L107.9,841.9L99.1,845.7L96.9,846.2L95.0,845.7L91.5,842.9L85.9,842.0L81.9,840.6L74.6,839.0L72.4,839.4L68.2,842.1L67.9,843.1Z " data-id="AO.NA" data-name="Namibe" id="AO.NA"/>
utf-8</g>
</svg>
