<?xml version="1.0" ?>
<!DOCTYPE svg
  PUBLIC '-//W3C//DTD SVG 1.1//EN'
  'http://www.w3.org/Graphics/SVG/1.1/DTD/svg11.dtd'>
<svg enable_background="new 0 0 1000 2411" height="2411px" pretty_print="True" style="stroke-linejoin: round; stroke:#000; fill: none;" version="1.1" viewBox="0 0 1000 2411" width="1000px" xmlns="http://www.w3.org/2000/svg" xmlns:xlink="http://www.w3.org/1999/xlink">
utf-8<defs>
utf-8utf-8<style type="text/css">
<![CDATA[path { fill-rule: evenodd; }]]>utf-8utf-8</style>
utf-8</defs>
utf-8<metadata>
utf-8utf-8<views>
utf-8utf-8utf-8<view h="2411.12636715" padding="0" w="1000">
utf-8utf-8utf-8utf-8<proj flip="auto" id="robinson" lon0="-70.4071493569"/>
utf-8utf-8utf-8utf-8<bbox h="550.87" w="228.56" x="-999.19" y="365.33"/>
utf-8utf-8utf-8</view>
utf-8utf-8</views>
utf-8</metadata>
utf-8<g class="" id="provinces">
utf-8utf-8<path d="M232.5,1772.5L228.9,1777.5L224.8,1777.9L225.5,1780.0L229.2,1782.4L233.4,1784.5L235.0,1785.9L238.0,1794.0L239.4,1796.5L246.5,1805.6L247.2,1806.9L247.6,1810.4L250.4,1815.6L250.7,1817.8L249.5,1819.6L243.7,1825.3L240.8,1825.3L240.2,1831.0L240.8,1835.3L245.6,1839.9L241.9,1843.1L242.1,1844.5L243.8,1845.8L251.7,1850.3L253.0,1852.1L253.4,1855.9L251.9,1856.9L249.8,1856.4L245.4,1854.2L243.8,1855.5L246.1,1859.4L245.6,1862.4L242.4,1867.4L239.8,1870.2L235.1,1869.8L231.9,1872.4L232.0,1874.1L235.4,1875.8L236.8,1884.4L234.3,1893.8L234.6,1901.2L233.7,1905.7L235.1,1907.9L239.6,1911.3L243.4,1912.5L249.4,1916.8L250.5,1918.3L255.0,1926.9L256.1,1932.3L259.1,1935.7L259.1,1936.7L255.8,1936.4L254.7,1937.9L246.4,1944.2L245.8,1948.3L247.6,1952.0L250.4,1955.9L253.6,1963.5L254.7,1968.5L254.0,1970.5L249.6,1977.3L245.8,1979.5L240.5,1980.0L238.1,1980.9L236.6,1982.8L234.6,1987.6L233.0,1997.0L233.0,1998.8L237.7,2005.2L220.1,2005.4L221.9,2011.1L218.9,2014.0L218.7,2015.2L220.6,2018.5L219.4,2022.1L225.9,2028.3L225.7,2031.8L226.5,2032.9L232.6,2037.7L233.5,2039.7L233.2,2041.4L231.3,2044.0L232.2,2047.3L231.6,2050.0L237.0,2053.3L239.3,2056.4L238.2,2060.7L238.6,2062.9L240.0,2064.8L249.2,2070.3L253.3,2072.2L255.4,2073.9L259.4,2078.5L260.9,2080.7L263.3,2086.5L265.6,2090.3L267.3,2094.4L273.7,2100.4L277.7,2108.0L280.4,2109.5L282.9,2109.5L286.7,2107.1L290.6,2102.2L296.2,2098.8L306.5,2102.2L308.9,2098.5L310.9,2097.5L318.3,2098.9L323.7,2100.9L323.5,2105.6L324.9,2108.8L331.3,2114.2L332.9,2116.9L334.9,2123.0L335.6,2126.3L335.4,2127.9L332.7,2129.1L332.1,2134.7L334.3,2137.1L336.8,2138.8L342.0,2141.1L343.5,2144.1L342.2,2146.8L344.7,2154.7L344.3,2156.2L345.5,2159.4L342.9,2162.7L342.3,2164.8L344.1,2166.5L348.7,2167.0L353.4,2173.2L356.1,2175.3L361.9,2176.7L370.0,2180.7L379.1,2187.0L380.5,2189.0L381.8,2194.2L385.0,2195.6L494.4,2196.8L524.0,2205.6L539.3,2206.0L551.8,2208.9L561.6,2212.7L564.0,2213.4L576.7,2215.1L578.8,2216.0L585.9,2217.4L589.7,2223.8L590.5,2223.4L592.2,2219.1L564.6,2196.7L558.2,2190.3L550.9,2182.5L547.0,2179.3L540.3,2171.4L535.7,2168.9L531.5,2171.9L527.7,2173.9L525.6,2173.8L527.8,2171.8L527.7,2170.6L518.3,2167.7L513.1,2167.6L501.9,2169.9L514.1,2165.0L518.5,2165.3L525.9,2168.1L529.8,2168.1L531.7,2165.6L535.6,2166.1L536.4,2165.3L534.6,2161.2L524.0,2148.5L520.2,2142.4L517.5,2138.8L508.4,2124.2L502.7,2126.9L497.8,2131.7L497.9,2129.2L499.5,2127.1L503.1,2124.0L505.0,2121.2L508.0,2119.0L507.7,2117.2L504.9,2110.5L503.3,2108.7L502.5,2103.1L502.8,2097.8L501.7,2094.6L503.8,2085.3L507.0,2079.9L507.5,2077.7L510.8,2077.4L511.6,2075.4L513.4,2075.6L519.1,2072.8L527.6,2069.1L531.1,2066.9L530.0,2064.4L528.3,2064.0L521.2,2060.5L519.7,2059.1L518.1,2055.9L513.2,2052.7L509.0,2054.4L498.3,2053.6L495.7,2055.6L490.3,2055.9L490.1,2055.4L496.6,2052.2L500.8,2052.6L504.1,2052.3L508.1,2052.6L512.4,2049.7L509.5,2044.7L497.9,2035.4L503.5,2037.6L508.9,2043.0L511.0,2044.8L514.1,2048.8L515.9,2050.6L520.3,2053.4L526.4,2060.2L531.6,2063.4L535.7,2063.7L540.3,2062.9L544.9,2061.0L549.0,2057.9L552.7,2054.6L555.0,2051.6L556.1,2044.0L556.1,2039.2L554.6,2032.4L551.4,2021.6L549.9,2010.4L550.8,2006.5L549.5,2002.4L548.3,2001.4L546.4,2002.5L547.2,2010.0L546.2,2011.4L540.0,2011.0L543.0,2010.2L543.8,2007.9L542.9,2007.4L545.1,2005.2L542.7,2003.1L545.3,2001.2L546.4,1995.0L545.1,1994.6L546.1,1991.1L546.0,1984.6L551.6,1976.6L555.5,1973.9L559.1,1972.4L561.2,1970.4L560.8,1967.1L562.3,1965.0L561.5,1961.4L562.3,1960.1L565.5,1958.0L568.0,1955.6L574.3,1954.1L575.6,1948.5L578.0,1945.9L580.7,1944.4L582.5,1942.7L590.6,1941.5L592.1,1940.5L591.2,1937.9L592.0,1937.2L595.6,1937.0L596.6,1934.8L598.0,1929.8L599.8,1929.2L600.5,1926.8L602.3,1926.0L604.9,1923.3L604.7,1921.6L608.1,1919.7L614.9,1920.2L616.4,1919.9L616.4,1917.4L614.2,1916.9L612.7,1911.1L611.2,1910.4L613.0,1906.9L620.0,1908.4L621.2,1908.1L619.2,1906.4L620.4,1905.5L616.3,1904.5L614.4,1903.1L610.3,1896.3L608.9,1895.3L602.1,1895.3L601.1,1896.8L596.5,1899.5L588.7,1902.6L592.8,1899.5L598.3,1896.5L600.8,1893.1L610.5,1893.8L611.5,1893.3L612.2,1876.6L610.3,1869.4L609.4,1864.5L604.2,1856.1L604.3,1854.7L596.9,1850.0L594.0,1847.0L591.7,1846.8L587.6,1844.8L581.9,1846.0L575.5,1846.5L564.1,1844.2L561.1,1844.4L553.5,1843.5L552.1,1843.0L550.0,1843.7L547.8,1842.6L545.7,1842.7L539.9,1840.5L537.1,1838.7L532.3,1834.2L524.2,1828.5L521.3,1827.1L517.0,1822.6L514.5,1821.1L513.0,1819.0L509.0,1817.9L502.3,1813.9L499.2,1813.2L492.8,1809.0L484.2,1799.8L482.0,1797.1L478.2,1791.4L471.6,1780.1L470.0,1773.5L470.1,1768.4L424.8,1768.3L351.7,1768.4L235.4,1768.3L232.5,1772.5Z " data-id="AR.SC" data-name="Santa Cruz" id="AR.SC"/>
utf-8utf-8<path d="M652.8,2397.7L657.2,2397.1L656.6,2396.0L650.8,2391.6L652.5,2395.4L652.8,2397.7Z M881.5,2385.9L879.7,2386.2L880.3,2390.0L878.7,2387.8L873.9,2388.2L870.5,2385.8L874.1,2389.7L869.6,2391.5L864.5,2389.6L862.2,2393.9L868.1,2396.3L868.7,2398.8L871.5,2398.9L873.3,2396.3L875.5,2395.3L875.3,2393.9L876.8,2393.4L876.7,2394.9L878.6,2394.8L884.0,2391.0L888.0,2390.1L889.3,2394.1L890.8,2393.2L896.7,2392.0L896.7,2390.9L903.6,2389.9L903.2,2392.5L908.8,2390.4L910.5,2386.8L909.3,2385.8L904.6,2385.8L899.1,2387.1L891.3,2385.8L885.5,2386.6L881.5,2385.9Z M777.1,2409.1L781.0,2408.1L780.0,2405.9L782.6,2405.2L793.5,2405.2L799.5,2403.6L800.8,2401.4L798.8,2398.7L802.6,2399.4L803.6,2398.6L807.7,2399.7L811.7,2399.1L816.0,2403.4L818.6,2402.9L818.8,2401.0L820.5,2400.6L825.0,2400.9L827.4,2397.5L829.2,2398.2L830.6,2400.4L833.5,2399.6L833.1,2395.3L835.6,2393.1L834.3,2391.0L835.8,2389.2L834.4,2387.8L835.1,2380.6L826.3,2379.7L806.3,2382.1L802.1,2381.3L797.2,2380.9L794.9,2379.7L791.7,2379.2L770.0,2372.2L764.2,2369.9L757.9,2368.5L756.6,2366.8L754.3,2366.0L752.1,2364.3L745.0,2360.2L740.6,2356.2L736.0,2353.5L723.3,2348.8L719.0,2347.0L711.8,2344.7L701.2,2339.9L681.9,2329.8L679.9,2325.8L680.5,2324.8L675.9,2323.2L671.3,2322.6L671.4,2321.5L650.2,2308.4L644.4,2303.0L639.7,2296.4L639.0,2294.0L635.5,2290.4L630.4,2288.3L624.7,2288.8L615.5,2287.2L608.3,2283.1L606.5,2280.5L605.9,2278.1L606.4,2274.9L608.7,2272.5L610.4,2269.8L613.8,2267.0L616.5,2267.5L622.3,2274.7L622.1,2273.6L616.3,2265.1L609.3,2258.4L603.0,2254.9L588.5,2242.2L594.1,2259.9L609.9,2297.4L634.0,2353.3L642.1,2371.9L650.7,2390.6L659.0,2395.3L669.1,2394.6L669.0,2391.1L674.3,2393.0L679.7,2393.3L682.8,2394.9L691.2,2396.0L706.1,2397.3L712.8,2396.8L724.6,2398.1L741.3,2399.0L746.6,2400.6L754.8,2401.6L760.7,2404.2L764.9,2407.0L772.2,2409.1L777.1,2409.1Z " data-id="AR.TF" data-name="Tierra del Fuego" id="AR.TF"/>
utf-8utf-8<path d="M243.7,734.9L237.0,727.4L234.1,721.2L230.4,720.8L228.4,719.9L222.4,714.8L221.1,712.8L220.3,708.9L215.5,701.2L214.4,681.4L210.4,678.2L209.7,676.0L210.6,668.5L205.4,661.4L201.8,655.4L200.0,653.8L197.1,652.6L189.6,643.8L186.3,641.5L181.8,637.6L179.7,634.5L172.7,629.0L171.5,626.0L167.2,620.5L157.3,613.5L153.3,609.2L150.0,607.9L146.1,605.1L140.5,600.3L138.4,597.0L134.8,593.8L129.8,591.6L128.1,589.0L122.4,585.0L116.6,579.9L105.5,576.4L98.7,576.4L93.6,573.6L86.0,575.3L80.2,574.5L73.0,574.7L71.6,571.1L71.3,567.4L72.7,561.7L72.0,559.7L71.7,554.3L73.3,551.9L68.7,546.3L67.9,543.5L67.3,537.8L71.3,532.8L71.6,530.2L64.6,521.7L61.3,516.8L56.4,512.9L53.3,505.7L50.8,501.4L48.7,499.4L37.0,490.9L32.0,490.4L28.5,487.1L24.7,488.0L17.3,485.3L16.8,489.4L16.7,498.7L15.7,500.6L14.5,505.2L14.8,507.8L17.3,514.1L14.8,524.8L14.9,526.2L17.0,534.8L14.7,538.6L9.8,542.1L6.8,544.9L8.1,546.8L5.0,549.5L5.1,554.5L7.4,558.8L8.7,562.6L10.3,564.9L13.0,571.9L13.8,577.9L16.6,580.7L19.3,588.1L20.7,597.9L20.6,603.3L19.1,606.6L20.7,609.1L23.0,608.8L25.5,609.6L27.8,611.6L29.2,614.2L26.7,621.1L27.1,623.8L25.6,628.3L24.2,629.7L20.4,631.4L18.2,630.8L12.6,628.2L11.1,629.0L11.3,630.3L14.0,634.5L13.8,635.9L11.3,637.9L10.5,640.0L10.5,645.6L9.1,651.5L8.3,660.8L9.0,670.9L9.6,672.2L14.7,677.1L10.5,678.4L9.3,682.1L9.2,684.3L7.0,686.6L3.3,681.9L2.7,682.4L0.3,688.0L0.2,697.6L2.0,701.9L1.5,705.5L2.5,712.3L2.5,715.5L3.9,718.6L8.6,725.3L11.8,728.8L12.3,731.9L14.8,736.6L17.5,738.9L24.8,739.8L29.0,743.0L30.5,745.6L29.5,748.5L29.6,751.2L27.6,751.9L24.7,750.8L25.5,756.7L30.5,768.9L34.0,770.3L35.1,771.4L35.7,771.0L44.8,769.5L51.9,770.7L63.3,767.8L70.8,767.3L72.4,764.6L71.2,759.6L71.8,757.4L79.5,753.1L82.5,752.1L85.9,752.1L91.4,751.2L91.8,749.2L94.4,747.3L94.9,745.9L97.3,745.3L99.8,746.8L106.4,753.6L109.5,754.3L113.7,754.0L118.8,772.2L119.9,773.0L132.0,772.9L134.8,771.2L144.1,763.7L147.5,759.4L154.8,759.0L167.1,753.4L169.3,753.5L171.7,754.9L176.6,760.7L189.4,766.9L190.8,766.3L198.0,764.9L202.1,765.0L204.0,764.0L205.7,764.3L210.9,767.6L210.0,762.6L207.7,751.5L208.0,747.4L206.0,741.7L206.1,738.7L207.8,737.2L214.8,738.7L220.0,738.3L223.3,737.7L230.6,740.3L246.1,739.4L243.7,734.9Z " data-id="AR.SJ" data-name="San Juan" id="AR.SJ"/>
utf-8utf-8<path d="M540.8,1703.5L541.4,1704.9L544.0,1704.8L540.8,1703.5Z M563.8,1700.8L561.2,1700.8L562.1,1701.6L563.8,1700.8Z M131.1,1484.8L134.4,1490.2L134.1,1491.7L125.5,1496.8L121.2,1493.2L119.2,1493.1L117.9,1494.5L118.1,1498.3L115.8,1504.7L117.1,1506.5L121.0,1509.1L122.0,1510.5L126.0,1519.1L123.5,1520.6L121.6,1523.8L122.5,1526.9L123.5,1527.9L126.8,1535.4L130.8,1545.6L131.9,1555.1L134.1,1558.2L137.0,1560.8L140.1,1562.7L143.0,1563.8L152.0,1564.7L159.5,1567.5L160.4,1568.7L162.2,1577.0L158.4,1576.7L154.1,1578.6L154.8,1585.5L155.5,1587.6L157.1,1587.1L160.6,1589.1L161.2,1593.4L172.6,1598.7L174.4,1603.7L169.9,1606.7L170.3,1610.1L173.8,1609.9L174.4,1613.1L178.2,1616.1L183.2,1620.8L183.4,1623.2L179.1,1632.2L176.0,1633.7L181.9,1641.8L181.6,1645.2L184.3,1648.4L184.4,1649.7L181.9,1651.5L182.5,1652.8L185.4,1654.6L192.6,1653.9L195.8,1654.6L207.8,1654.5L223.3,1657.1L224.6,1658.1L229.8,1665.0L229.8,1666.5L225.4,1671.4L227.4,1676.4L227.9,1679.1L227.2,1681.2L225.6,1682.5L223.6,1682.9L220.8,1682.2L215.3,1679.4L212.8,1678.7L210.4,1679.3L205.9,1681.4L203.4,1681.3L197.6,1679.6L196.3,1679.8L194.4,1682.0L193.2,1682.2L185.0,1680.8L181.0,1679.6L179.5,1680.0L179.4,1681.6L182.4,1689.0L183.2,1690.1L187.0,1690.2L195.0,1693.3L200.8,1691.9L202.2,1692.2L206.6,1695.2L213.3,1695.5L215.9,1697.4L225.9,1708.3L229.7,1710.3L236.2,1716.1L237.3,1718.4L233.7,1724.0L228.7,1726.1L232.3,1731.4L230.4,1734.0L228.5,1734.4L223.9,1734.1L218.2,1736.2L217.9,1737.8L219.0,1741.0L220.0,1746.2L220.2,1749.8L224.2,1753.1L224.4,1756.3L225.2,1757.5L231.5,1760.1L233.4,1761.6L236.8,1766.3L235.4,1768.3L351.7,1768.4L424.8,1768.3L470.1,1768.4L470.1,1768.4L471.9,1765.4L470.5,1763.6L471.6,1759.7L473.0,1758.5L473.2,1755.9L475.8,1753.4L477.6,1753.1L476.4,1749.5L477.7,1748.3L476.2,1747.4L475.1,1742.2L475.4,1740.8L479.6,1734.7L482.4,1727.4L483.8,1724.9L484.6,1722.0L486.8,1718.7L490.3,1715.3L493.3,1713.8L504.4,1712.3L512.9,1712.4L512.4,1710.8L510.8,1709.4L508.0,1708.9L514.7,1709.0L515.3,1707.7L510.8,1706.4L510.4,1704.8L512.9,1702.5L521.9,1700.4L523.3,1701.1L526.5,1696.5L531.6,1696.2L535.8,1697.3L537.4,1697.2L543.1,1700.5L544.5,1699.8L545.8,1697.3L548.6,1698.2L549.8,1699.9L553.3,1698.7L557.7,1701.5L562.0,1699.0L560.4,1697.5L562.1,1694.3L564.5,1692.2L560.7,1689.6L555.2,1689.2L551.8,1687.8L550.6,1686.2L550.2,1683.1L550.9,1682.9L549.9,1678.2L550.0,1676.6L553.5,1671.6L554.8,1672.0L556.2,1670.0L560.5,1668.7L561.2,1666.7L564.2,1668.2L566.0,1667.2L563.3,1665.2L564.8,1663.9L563.7,1662.7L565.6,1662.0L568.6,1662.8L568.5,1661.0L566.1,1660.7L566.9,1655.6L569.4,1652.0L561.5,1643.1L560.2,1637.9L560.9,1637.0L564.4,1635.8L562.8,1634.1L561.9,1630.8L563.8,1628.6L561.7,1628.7L556.7,1622.6L556.1,1619.9L551.6,1614.2L548.5,1607.0L547.1,1602.9L548.6,1596.8L552.2,1592.8L553.3,1589.1L558.3,1583.3L558.3,1582.0L556.4,1578.0L556.5,1576.4L559.2,1574.3L560.4,1572.2L568.9,1565.7L579.7,1562.6L585.8,1560.1L591.6,1555.9L590.3,1551.8L586.1,1553.6L584.6,1553.6L580.3,1551.0L576.2,1551.2L571.1,1550.0L564.5,1546.1L556.3,1542.9L552.2,1541.9L549.9,1540.5L547.4,1540.0L545.3,1536.2L546.6,1534.4L547.6,1530.7L548.7,1529.8L555.2,1528.4L558.5,1523.5L560.4,1523.1L564.1,1520.9L568.2,1520.2L574.3,1520.3L580.2,1522.0L584.4,1525.9L590.9,1529.4L590.4,1530.9L591.0,1539.3L595.0,1541.7L597.8,1544.4L601.8,1547.0L611.0,1545.3L622.4,1542.8L625.7,1541.2L627.6,1537.6L626.1,1535.0L626.8,1529.3L626.7,1526.4L622.4,1515.6L620.7,1508.5L619.4,1505.6L617.4,1503.0L615.0,1501.5L609.4,1493.8L604.7,1489.8L602.1,1489.2L598.8,1490.2L594.3,1492.3L590.4,1495.5L584.3,1499.1L576.1,1500.2L574.4,1501.1L577.3,1502.6L580.6,1502.9L586.9,1502.6L591.1,1503.4L593.5,1507.6L593.0,1508.2L592.3,1514.7L591.0,1515.0L579.7,1514.3L572.6,1516.0L569.9,1514.9L565.2,1515.2L563.4,1514.9L562.8,1511.4L565.6,1505.5L564.9,1501.7L563.2,1501.6L559.3,1502.6L549.0,1499.9L543.7,1498.2L537.5,1495.2L532.1,1490.9L527.4,1485.0L522.9,1484.3L419.1,1484.2L270.5,1484.2L162.2,1484.2L130.5,1484.2L131.1,1484.8Z " data-id="AR.CH" data-name="Chubut" id="AR.CH"/>
utf-8utf-8<path d="M205.7,764.3L204.0,764.0L202.1,765.0L198.0,764.9L190.8,766.3L189.4,766.9L176.6,760.7L171.7,754.9L169.3,753.5L167.1,753.4L154.8,759.0L147.5,759.4L144.1,763.7L134.8,771.2L132.0,772.9L119.9,773.0L118.8,772.2L113.7,754.0L109.5,754.3L106.4,753.6L99.8,746.8L97.3,745.3L94.9,745.9L94.4,747.3L91.8,749.2L91.4,751.2L85.9,752.1L82.5,752.1L79.5,753.1L71.8,757.4L71.2,759.6L72.4,764.6L70.8,767.3L63.3,767.8L51.9,770.7L44.8,769.5L35.7,771.0L35.1,771.4L36.2,772.6L37.1,777.9L38.7,780.2L42.6,782.4L43.6,783.9L44.7,788.1L44.7,794.5L47.9,802.4L49.4,804.6L56.0,810.6L59.7,812.5L59.0,821.0L55.7,822.9L55.5,824.4L57.5,828.3L57.7,834.0L65.9,843.5L67.5,843.2L69.3,839.4L71.4,839.1L77.8,842.8L81.1,852.0L79.9,854.1L80.1,860.7L78.3,861.8L79.1,864.6L78.7,868.8L81.9,873.8L82.2,874.9L79.6,878.3L82.9,891.8L85.7,891.9L86.7,893.9L88.3,903.0L92.5,912.3L92.5,913.0L88.6,914.9L88.3,916.1L83.3,914.9L80.3,915.5L79.5,918.2L81.2,924.3L81.0,925.7L78.7,928.1L77.7,933.3L73.8,940.8L74.5,946.5L73.8,948.8L71.5,950.1L74.8,954.0L72.8,965.5L74.4,976.2L74.5,981.4L65.7,984.6L64.4,988.3L66.2,991.2L71.7,992.3L74.2,993.7L75.3,995.5L73.1,997.2L76.1,1003.3L79.2,1006.6L79.3,1009.7L81.1,1018.1L85.7,1025.7L87.8,1029.7L84.9,1033.7L85.5,1036.3L88.0,1037.0L87.0,1040.3L90.6,1046.9L89.3,1052.2L89.0,1053.1L95.0,1059.2L95.2,1066.4L97.0,1069.7L100.9,1070.6L101.9,1070.3L104.6,1072.2L110.6,1083.3L112.5,1085.9L114.6,1087.6L119.5,1089.0L123.5,1092.8L128.4,1096.2L133.0,1102.9L135.9,1105.0L141.4,1108.0L142.9,1112.2L143.1,1116.0L142.3,1117.2L142.9,1119.1L148.7,1124.7L151.2,1126.6L156.8,1129.6L166.0,1131.4L176.2,1129.4L178.8,1129.6L183.1,1131.4L185.8,1131.9L192.4,1135.8L195.2,1141.6L196.9,1143.9L199.4,1145.4L205.8,1146.7L213.3,1146.0L214.7,1146.6L219.8,1150.1L221.7,1150.1L224.6,1151.1L228.6,1151.2L231.0,1152.6L233.8,1156.4L236.3,1158.4L247.5,1159.8L234.2,1105.8L223.8,1064.1L219.9,1055.2L218.3,1050.0L217.7,1045.0L219.5,1043.4L291.6,1043.4L318.6,1043.5L318.2,1043.3L316.2,1030.8L316.0,1019.0L315.0,1011.5L315.9,1005.8L314.6,999.1L313.9,993.3L310.7,983.8L310.9,979.5L306.0,969.8L304.9,963.4L302.1,958.1L291.7,943.7L288.1,940.5L284.3,933.0L282.5,926.7L279.8,923.4L280.2,921.9L279.2,920.5L276.7,912.0L279.8,908.7L278.6,899.8L272.4,892.1L270.0,887.4L263.8,883.1L260.1,875.9L258.1,873.4L252.7,864.8L244.6,854.8L240.1,843.7L238.2,838.4L237.3,832.6L235.4,825.9L234.1,822.8L234.1,821.4L231.1,815.4L232.0,813.8L230.3,806.3L230.9,804.1L228.1,799.3L225.1,796.2L219.9,784.0L217.2,779.1L214.9,777.4L211.8,770.7L210.9,767.6L205.7,764.3Z " data-id="AR.MZ" data-name="Mendoza" id="AR.MZ"/>
utf-8utf-8<path d="M236.3,1158.4L233.8,1156.4L231.0,1152.6L228.6,1151.2L224.6,1151.1L221.7,1150.1L219.8,1150.1L214.7,1146.6L213.3,1146.0L205.8,1146.7L199.4,1145.4L196.9,1143.9L195.2,1141.6L192.4,1135.8L185.8,1131.9L183.1,1131.4L178.8,1129.6L176.2,1129.4L166.0,1131.4L156.8,1129.6L151.2,1126.6L148.7,1124.7L142.9,1119.1L142.3,1117.2L143.1,1116.0L142.9,1112.2L141.4,1108.0L135.9,1105.0L133.0,1102.9L128.4,1096.2L123.5,1092.8L119.5,1089.0L114.6,1087.6L112.5,1085.9L110.6,1083.3L104.6,1072.2L101.9,1070.3L100.9,1070.6L97.0,1069.7L95.2,1066.4L95.0,1059.2L89.0,1053.1L88.9,1053.7L85.5,1055.7L82.3,1054.1L78.6,1058.8L77.1,1061.7L74.4,1064.0L76.7,1074.4L71.7,1075.9L67.5,1073.7L64.8,1074.8L64.7,1078.8L61.6,1079.6L58.3,1079.7L57.9,1082.4L58.9,1088.6L60.5,1095.5L56.7,1094.1L55.9,1094.9L56.9,1100.3L56.3,1107.6L58.9,1112.4L61.0,1113.5L61.3,1115.6L60.4,1116.4L57.6,1116.1L59.0,1117.2L67.2,1125.9L64.7,1128.2L64.6,1129.8L65.9,1134.3L63.9,1138.7L65.4,1143.9L67.9,1147.5L72.4,1153.1L72.8,1159.7L73.9,1161.0L71.4,1166.0L73.0,1170.9L78.8,1180.8L82.2,1185.2L83.5,1188.4L85.9,1191.2L91.1,1199.4L90.6,1200.6L94.2,1212.5L100.0,1224.4L102.1,1227.0L109.6,1232.1L111.2,1234.8L111.1,1237.4L110.2,1239.5L110.1,1241.9L111.4,1244.2L109.3,1245.7L108.3,1248.3L102.0,1248.3L100.4,1249.1L96.8,1252.2L92.5,1252.9L90.3,1256.0L85.6,1258.8L83.8,1262.3L84.8,1268.9L87.5,1274.5L90.9,1284.4L92.1,1292.2L89.5,1295.2L91.5,1299.0L88.8,1306.2L92.3,1308.7L92.6,1311.3L87.1,1312.6L86.0,1312.4L81.4,1308.9L80.7,1308.9L80.1,1312.9L82.7,1316.6L82.6,1320.4L85.3,1325.1L87.3,1329.3L92.4,1333.8L91.5,1340.1L92.4,1344.8L92.5,1347.6L87.1,1346.0L85.1,1346.2L86.6,1355.7L88.6,1358.0L94.1,1362.1L94.5,1361.2L97.1,1361.9L97.3,1370.4L92.5,1371.4L92.1,1381.0L92.9,1381.8L93.8,1385.1L93.3,1387.3L90.2,1391.8L90.1,1392.6L95.7,1402.0L99.1,1405.2L101.6,1409.7L101.6,1412.7L101.9,1413.5L110.0,1414.0L114.3,1414.9L121.0,1415.0L133.8,1419.2L139.1,1419.4L142.1,1418.6L146.4,1414.0L148.9,1410.0L149.5,1406.0L142.2,1400.1L141.1,1398.9L140.9,1395.8L142.3,1393.0L145.6,1391.3L146.0,1387.9L149.4,1385.5L155.1,1382.8L161.0,1383.7L164.9,1382.2L169.9,1377.6L171.4,1378.0L176.6,1381.5L179.0,1381.5L183.3,1380.2L188.4,1380.3L189.9,1378.2L189.7,1375.1L194.6,1372.5L193.7,1358.2L194.3,1354.0L193.5,1351.7L193.4,1348.6L192.5,1344.3L192.4,1337.8L194.1,1335.6L206.2,1327.5L209.0,1327.1L214.7,1327.7L217.3,1326.5L220.3,1322.4L222.9,1319.8L227.4,1310.1L230.5,1308.4L234.2,1305.8L236.0,1305.8L241.7,1303.4L247.5,1294.6L247.8,1289.7L250.3,1285.4L252.5,1284.3L254.5,1281.8L255.5,1278.5L259.5,1273.9L263.0,1272.4L265.6,1267.8L268.2,1266.4L270.1,1264.2L274.5,1266.8L276.8,1265.8L283.0,1266.8L287.6,1264.8L285.3,1259.9L274.3,1248.0L268.3,1241.8L250.5,1172.3L247.6,1160.4L247.5,1159.8L236.3,1158.4Z " data-id="AR.NQ" data-name="Neuquén" id="AR.NQ"/>
utf-8utf-8<path d="M675.4,1375.6L675.4,1373.4L672.1,1369.4L670.0,1367.8L665.3,1367.7L665.0,1371.2L665.4,1374.1L664.0,1377.4L665.2,1378.3L668.3,1377.4L669.5,1380.8L672.7,1381.3L675.4,1375.6Z M673.8,1364.3L670.9,1353.2L668.8,1351.1L663.9,1349.9L664.0,1353.6L666.0,1356.4L673.8,1364.3Z M657.7,1278.3L655.7,1275.7L649.4,1274.4L646.9,1273.3L647.2,1276.1L650.5,1279.5L653.4,1281.3L657.5,1282.6L661.1,1284.8L662.3,1284.7L660.2,1278.9L657.7,1278.3Z M650.2,1268.1L647.8,1267.4L643.0,1267.2L642.6,1268.5L645.4,1268.8L650.7,1271.8L652.9,1270.5L650.2,1268.1Z M799.6,911.2L797.6,909.1L795.0,905.1L796.4,909.3L796.7,912.9L799.6,911.2Z M662.7,840.4L664.1,841.9L664.4,844.1L663.4,845.7L661.0,847.4L661.5,851.7L658.3,855.8L658.5,859.2L655.3,868.1L652.8,868.8L643.6,863.8L636.9,863.5L633.2,862.0L629.8,862.5L628.7,863.5L628.1,865.8L629.1,868.1L627.5,871.3L619.0,883.9L592.0,922.9L556.7,923.2L522.1,923.3L492.3,923.1L490.7,925.6L492.8,937.9L499.3,969.2L503.4,989.3L514.7,1042.3L521.5,1073.5L529.0,1107.2L536.4,1139.5L553.7,1213.1L563.7,1254.1L572.8,1291.0L583.2,1331.0L593.7,1370.5L599.5,1391.8L612.1,1393.2L617.3,1395.0L623.0,1399.0L636.4,1409.4L640.9,1415.7L642.4,1416.0L651.4,1412.0L657.5,1407.9L665.1,1403.6L666.2,1401.7L667.6,1394.5L667.2,1389.1L669.6,1385.9L667.7,1386.0L662.1,1389.2L659.3,1383.9L661.7,1385.9L664.6,1386.3L663.2,1380.4L659.0,1378.5L658.7,1376.8L655.2,1374.9L650.3,1371.3L648.2,1367.0L645.1,1362.8L645.1,1361.3L647.0,1357.6L650.5,1355.8L650.7,1350.1L650.4,1348.6L647.6,1344.4L648.3,1340.0L647.5,1330.3L648.8,1329.7L646.7,1326.6L651.3,1329.4L656.0,1330.1L658.3,1328.6L656.8,1320.9L656.1,1309.2L654.9,1304.1L654.6,1300.0L653.0,1299.9L645.6,1296.3L642.7,1292.6L639.9,1292.0L638.7,1289.9L643.9,1289.7L647.1,1293.0L651.3,1295.9L654.8,1297.0L655.6,1294.8L653.4,1292.0L650.5,1290.2L643.6,1287.6L638.9,1287.4L635.2,1285.8L635.8,1284.9L639.3,1285.9L633.3,1281.3L632.0,1276.4L630.5,1274.6L631.4,1268.7L633.1,1267.2L632.8,1263.7L631.0,1264.1L629.1,1263.1L628.6,1260.4L624.1,1255.6L623.7,1252.1L624.8,1251.3L627.4,1252.3L637.3,1253.0L642.8,1259.8L647.4,1262.4L659.4,1265.6L664.7,1265.2L669.5,1266.6L679.2,1267.9L684.1,1265.7L689.5,1265.7L701.5,1267.1L706.8,1265.7L711.0,1265.1L717.7,1265.2L729.6,1262.8L738.6,1261.7L747.8,1260.1L773.9,1255.1L779.5,1255.1L788.4,1251.0L821.1,1244.4L824.8,1243.1L827.7,1240.8L839.4,1236.6L848.7,1234.4L852.5,1231.8L864.7,1227.7L871.3,1224.8L886.7,1214.7L890.4,1211.6L895.8,1208.1L900.6,1204.2L902.2,1201.8L903.0,1198.2L900.8,1189.5L900.7,1186.4L903.1,1177.6L909.7,1166.4L915.0,1160.6L916.6,1158.2L921.3,1149.0L922.6,1144.2L927.6,1130.3L931.7,1121.1L936.3,1112.8L936.8,1110.3L936.4,1107.1L931.7,1086.5L929.4,1082.4L927.7,1073.1L922.4,1066.1L922.6,1069.2L917.2,1069.2L912.8,1072.2L913.2,1070.6L908.0,1068.4L901.0,1064.6L890.9,1056.2L887.3,1051.5L886.2,1050.9L885.3,1048.7L879.9,1039.0L877.5,1033.2L878.0,1023.1L879.3,1020.8L883.6,1011.3L887.2,1005.0L887.6,1001.8L886.9,1000.0L881.2,992.1L877.4,987.5L869.9,980.1L857.4,970.0L852.0,968.1L846.2,964.1L841.4,962.3L838.0,959.5L834.9,957.7L827.6,956.0L825.0,953.2L820.9,952.2L818.8,951.0L815.0,950.5L812.6,949.4L809.3,946.8L803.8,943.6L802.6,946.0L800.4,946.4L799.1,947.9L797.7,952.3L790.8,947.5L788.8,943.3L788.9,936.9L792.2,933.6L792.0,932.9L788.7,927.2L790.5,924.4L791.2,922.1L790.2,920.7L783.0,916.3L784.4,914.8L789.5,915.2L790.5,914.3L791.7,911.2L793.3,908.9L791.9,905.5L791.8,903.2L790.1,897.4L786.6,895.8L786.6,895.6L783.5,896.3L778.3,898.7L775.4,898.6L772.6,897.4L765.3,891.6L759.7,889.8L755.8,886.8L750.8,884.1L746.5,882.3L740.2,882.5L737.0,879.9L736.2,880.4L733.9,878.6L732.6,874.8L730.1,875.9L724.8,875.9L721.5,874.3L718.6,871.5L715.8,869.7L708.6,870.9L699.7,866.4L693.1,860.0L687.3,857.9L675.4,850.5L665.9,842.0L662.7,840.4Z " data-id="AR.BA" data-name="Buenos Aires" id="AR.BA"/>
utf-8utf-8<path d="M464.2,969.0L431.9,969.0L395.3,969.1L409.0,1031.9L411.6,1043.4L408.7,1043.6L352.3,1043.5L318.6,1043.5L291.6,1043.4L219.5,1043.4L217.7,1045.0L218.3,1050.0L219.9,1055.2L223.8,1064.1L234.2,1105.8L247.5,1159.8L272.4,1163.0L275.3,1164.4L281.8,1170.7L283.2,1173.1L284.1,1176.5L284.0,1179.2L283.1,1181.3L279.7,1184.1L278.2,1186.0L277.6,1188.5L279.6,1195.1L280.5,1196.5L288.3,1198.5L290.5,1200.3L295.5,1207.1L300.1,1211.2L302.6,1212.3L307.2,1212.0L308.5,1211.2L313.2,1211.9L317.0,1209.7L321.8,1208.7L324.6,1209.4L326.8,1214.1L329.3,1218.0L335.7,1223.7L342.5,1226.9L345.4,1227.4L352.0,1229.7L354.5,1231.0L360.3,1233.2L367.0,1238.0L370.7,1245.0L381.5,1247.4L384.2,1247.4L391.8,1246.1L407.6,1248.0L413.6,1250.0L416.2,1250.3L425.3,1253.6L426.4,1253.5L430.5,1250.6L435.3,1251.0L441.1,1253.1L443.7,1254.6L448.0,1254.0L451.1,1254.1L459.6,1252.5L470.1,1253.6L474.2,1253.0L477.3,1253.0L494.8,1256.1L499.1,1256.2L520.4,1263.3L529.5,1267.0L537.3,1273.8L543.0,1275.3L547.7,1278.1L549.8,1280.5L562.7,1287.9L564.8,1289.6L567.3,1290.5L572.8,1291.0L563.7,1254.1L553.7,1213.1L536.4,1139.5L529.0,1107.2L521.5,1073.5L514.7,1042.3L503.4,989.3L499.3,969.2L464.2,969.0Z " data-id="AR.LP" data-name="La Pampa" id="AR.LP"/>
utf-8utf-8<path d="M567.3,1290.5L564.8,1289.6L562.7,1287.9L549.8,1280.5L547.7,1278.1L543.0,1275.3L537.3,1273.8L529.5,1267.0L520.4,1263.3L499.1,1256.2L494.8,1256.1L477.3,1253.0L474.2,1253.0L470.1,1253.6L459.6,1252.5L451.1,1254.1L448.0,1254.0L443.7,1254.6L441.1,1253.1L435.3,1251.0L430.5,1250.6L426.4,1253.5L425.3,1253.6L416.2,1250.3L413.6,1250.0L407.6,1248.0L391.8,1246.1L384.2,1247.4L381.5,1247.4L370.7,1245.0L367.0,1238.0L360.3,1233.2L354.5,1231.0L352.0,1229.7L345.4,1227.4L342.5,1226.9L335.7,1223.7L329.3,1218.0L326.8,1214.1L324.6,1209.4L321.8,1208.7L317.0,1209.7L313.2,1211.9L308.5,1211.2L307.2,1212.0L302.6,1212.3L300.1,1211.2L295.5,1207.1L290.5,1200.3L288.3,1198.5L280.5,1196.5L279.6,1195.1L277.6,1188.5L278.2,1186.0L279.7,1184.1L283.1,1181.3L284.0,1179.2L284.1,1176.5L283.2,1173.1L281.8,1170.7L275.3,1164.4L272.4,1163.0L247.5,1159.8L247.6,1160.4L250.5,1172.3L268.3,1241.8L274.3,1248.0L285.3,1259.9L287.6,1264.8L283.0,1266.8L276.8,1265.8L274.5,1266.8L270.1,1264.2L268.2,1266.4L265.6,1267.8L263.0,1272.4L259.5,1273.9L255.5,1278.5L254.5,1281.8L252.5,1284.3L250.3,1285.4L247.8,1289.7L247.5,1294.6L241.7,1303.4L236.0,1305.8L234.2,1305.8L230.5,1308.4L227.4,1310.1L222.9,1319.8L220.3,1322.4L217.3,1326.5L214.7,1327.7L209.0,1327.1L206.2,1327.5L194.1,1335.6L192.4,1337.8L192.5,1344.3L193.4,1348.6L193.5,1351.7L194.3,1354.0L193.7,1358.2L194.6,1372.5L189.7,1375.1L189.9,1378.2L188.4,1380.3L183.3,1380.2L179.0,1381.5L176.6,1381.5L171.4,1378.0L169.9,1377.6L164.9,1382.2L161.0,1383.7L155.1,1382.8L149.4,1385.5L146.0,1387.9L145.6,1391.3L142.3,1393.0L140.9,1395.8L141.1,1398.9L142.2,1400.1L149.5,1406.0L148.9,1410.0L146.4,1414.0L142.1,1418.6L139.1,1419.4L133.8,1419.2L121.0,1415.0L114.3,1414.9L110.0,1414.0L101.9,1413.5L102.1,1414.2L105.1,1423.5L104.4,1425.6L107.2,1432.1L107.2,1436.8L107.9,1439.1L111.6,1446.5L112.1,1449.5L115.5,1453.4L115.3,1454.6L112.4,1457.4L113.1,1459.5L118.0,1464.0L120.3,1469.0L125.9,1474.8L128.8,1479.9L129.5,1483.3L130.5,1484.2L162.2,1484.2L270.5,1484.2L419.1,1484.2L522.9,1484.3L527.4,1485.0L527.4,1485.0L524.9,1480.8L524.9,1477.7L525.9,1472.6L526.0,1469.5L525.4,1467.0L521.1,1460.4L521.4,1452.4L520.9,1450.3L519.3,1448.1L515.1,1444.9L510.1,1436.4L509.3,1434.2L504.5,1425.7L499.3,1413.5L498.2,1407.2L498.8,1400.8L504.1,1396.0L510.2,1396.2L508.1,1394.4L505.6,1393.4L506.8,1392.0L510.0,1391.6L516.0,1392.8L517.7,1393.8L516.4,1395.4L519.6,1396.7L520.5,1398.2L519.0,1398.8L515.4,1398.7L514.2,1398.0L510.8,1399.0L511.2,1400.1L521.8,1400.5L527.5,1401.7L533.7,1404.3L542.3,1406.3L558.7,1413.4L561.3,1414.0L565.2,1412.7L569.1,1416.0L572.1,1417.1L579.5,1422.3L585.2,1424.1L594.6,1424.3L612.4,1423.4L625.5,1423.9L628.0,1423.3L634.1,1419.9L638.1,1418.9L640.4,1415.9L640.9,1415.7L636.4,1409.4L623.0,1399.0L617.3,1395.0L612.1,1393.2L599.5,1391.8L593.7,1370.5L583.2,1331.0L572.8,1291.0L567.3,1290.5Z " data-id="AR.RN" data-name="Río Negro" id="AR.RN"/>
utf-8utf-8<path d="M230.6,740.3L223.3,737.7L220.0,738.3L214.8,738.7L207.8,737.2L206.1,738.7L206.0,741.7L208.0,747.4L207.7,751.5L210.0,762.6L210.9,767.6L211.8,770.7L214.9,777.4L217.2,779.1L219.9,784.0L225.1,796.2L228.1,799.3L230.9,804.1L230.3,806.3L232.0,813.8L231.1,815.4L234.1,821.4L234.1,822.8L235.4,825.9L237.3,832.6L238.2,838.4L240.1,843.7L244.6,854.8L252.7,864.8L258.1,873.4L260.1,875.9L263.8,883.1L270.0,887.4L272.4,892.1L278.6,899.8L279.8,908.7L276.7,912.0L279.2,920.5L280.2,921.9L279.8,923.4L282.5,926.7L284.3,933.0L288.1,940.5L291.7,943.7L302.1,958.1L304.9,963.4L306.0,969.8L310.9,979.5L310.7,983.8L313.9,993.3L314.6,999.1L315.9,1005.8L315.0,1011.5L316.0,1019.0L316.2,1030.8L318.2,1043.3L318.6,1043.5L352.3,1043.5L408.7,1043.6L411.6,1043.4L409.0,1031.9L395.3,969.1L395.2,969.0L378.8,892.3L364.4,836.7L365.8,831.9L368.9,830.3L367.9,827.2L368.9,820.5L367.8,817.3L369.3,812.8L368.9,807.7L369.5,806.2L369.2,802.5L371.0,791.7L370.4,788.2L368.5,783.8L366.5,781.1L364.2,770.9L362.4,769.6L355.2,771.8L348.7,772.5L346.7,770.6L346.2,767.5L343.5,763.6L341.5,757.6L336.5,752.9L317.2,742.2L311.7,740.1L306.3,740.0L300.3,741.2L290.2,739.0L287.9,739.0L278.6,743.0L268.5,743.5L264.6,742.2L261.4,742.6L259.5,741.7L255.7,742.2L250.6,740.3L246.1,739.4L230.6,740.3Z " data-id="AR.SL" data-name="San Luis" id="AR.SL"/>
utf-8utf-8<path d="M496.8,588.1L493.6,586.0L483.4,585.7L462.2,586.0L426.7,585.8L420.6,581.7L419.6,580.6L419.0,577.1L415.8,577.4L401.2,577.0L396.4,576.3L393.7,574.6L389.6,573.8L387.6,571.6L382.5,569.1L379.6,563.5L366.9,560.2L364.4,560.3L346.8,565.1L329.4,569.9L325.4,571.5L325.1,573.9L329.9,590.8L329.7,593.4L324.3,601.2L319.9,606.9L317.1,608.7L304.5,612.6L302.1,627.8L300.1,635.7L299.5,640.8L299.5,644.0L294.7,677.9L294.7,682.4L302.3,720.6L306.3,740.0L311.7,740.1L317.2,742.2L336.5,752.9L341.5,757.6L343.5,763.6L346.2,767.5L346.7,770.6L348.7,772.5L355.2,771.8L362.4,769.6L364.2,770.9L366.5,781.1L368.5,783.8L370.4,788.2L371.0,791.7L369.2,802.5L369.5,806.2L368.9,807.7L369.3,812.8L367.8,817.3L368.9,820.5L367.9,827.2L368.9,830.3L365.8,831.9L364.4,836.7L378.8,892.3L395.2,969.0L395.3,969.1L431.9,969.0L464.2,969.0L499.3,969.2L492.8,937.9L490.7,925.6L492.3,923.1L522.1,923.3L538.6,883.0L551.2,852.4L560.6,830.0L561.9,827.7L565.5,826.9L568.0,823.8L568.6,820.2L568.1,809.6L567.7,807.8L564.6,804.6L556.7,793.7L556.7,792.1L554.1,788.6L552.6,783.9L550.5,780.8L544.6,776.6L542.1,773.2L539.1,766.9L528.6,758.5L527.5,750.8L525.6,741.7L524.3,737.3L523.2,730.9L522.0,729.3L526.8,722.2L527.4,719.8L532.5,660.0L532.3,655.8L528.6,651.5L512.2,635.8L511.1,632.8L510.8,613.8L496.8,588.1Z " data-id="AR.CB" data-name="Córdoba" id="AR.CB"/>
utf-8utf-8<path d="M215.8,326.2L212.2,322.2L209.1,321.1L206.0,322.9L205.2,325.4L203.0,327.1L200.7,336.0L199.6,337.3L188.6,328.2L185.3,322.1L181.5,316.2L175.5,309.4L169.3,301.4L167.6,298.7L166.3,295.3L165.7,290.4L168.1,286.9L174.1,285.1L180.9,284.3L184.3,280.9L184.2,278.0L184.9,272.2L184.7,270.5L181.2,265.8L178.2,256.8L177.2,255.7L174.6,255.4L98.7,256.5L54.1,247.4L53.1,249.1L49.9,267.7L50.0,270.5L54.5,277.7L53.8,278.8L55.1,284.3L59.9,291.1L61.5,297.1L68.5,316.0L69.5,319.7L69.2,322.2L62.2,328.8L60.7,331.4L60.3,336.9L61.1,342.7L62.1,346.4L68.3,355.3L82.9,373.0L84.5,378.4L83.9,381.1L84.1,385.8L81.2,385.8L71.5,389.1L70.6,390.4L69.5,394.4L67.9,394.7L65.3,393.6L60.5,390.3L57.6,390.2L53.9,392.5L52.0,397.1L52.3,404.1L50.4,411.5L45.8,416.3L46.3,419.2L45.1,426.5L43.2,429.5L43.3,430.7L42.3,436.4L42.2,439.2L60.2,440.7L71.8,437.7L77.5,439.2L81.5,436.5L85.9,437.6L87.8,449.7L87.6,453.4L89.2,456.6L93.2,456.9L100.5,462.4L102.4,462.2L108.0,463.8L111.3,466.9L120.4,464.5L122.4,468.7L123.1,471.6L131.4,483.9L138.4,480.7L166.4,482.1L170.9,482.0L176.3,480.9L178.7,477.0L181.0,475.5L183.0,475.5L196.1,480.1L209.1,485.5L215.8,492.5L218.6,500.9L222.1,505.4L224.5,507.4L228.7,510.2L228.9,511.7L227.0,516.3L228.5,518.5L230.4,520.0L241.8,525.0L244.9,527.0L253.8,535.1L255.9,536.1L268.9,547.5L272.2,553.0L272.9,556.4L274.8,563.2L276.0,565.9L281.6,575.7L286.8,584.2L290.3,590.8L304.5,612.6L317.1,608.7L319.9,606.9L324.3,601.2L329.7,593.4L329.9,590.8L325.1,573.9L325.4,571.5L329.4,569.9L327.7,568.1L325.7,564.7L320.4,557.4L316.6,550.6L310.3,529.2L309.5,523.1L306.1,508.8L299.7,503.2L299.5,499.8L300.4,499.2L304.2,491.2L303.9,487.0L301.7,476.0L291.9,449.2L290.3,450.1L280.1,445.8L275.4,449.2L271.7,453.4L269.5,459.2L268.4,459.6L260.0,449.0L258.7,445.1L256.7,441.9L249.9,441.6L248.6,440.8L241.1,429.8L239.2,424.9L235.3,414.0L235.3,411.4L232.6,410.9L226.9,407.9L222.0,406.8L221.2,405.2L223.1,399.9L227.0,395.0L228.6,390.1L235.2,381.1L237.0,376.4L236.3,369.2L236.4,363.4L235.2,360.9L231.7,359.0L222.1,351.8L216.6,350.1L215.4,348.6L214.8,345.6L216.6,336.9L216.4,332.7L218.4,329.3L218.7,327.7L215.8,326.2Z " data-id="AR.CT" data-name="Catamarca" id="AR.CT"/>
utf-8utf-8<path d="M119.8,142.7L125.1,146.5L126.5,148.2L130.6,149.5L147.5,166.7L152.8,169.1L155.9,172.1L158.6,175.5L164.9,179.3L167.3,179.9L171.3,179.7L173.2,178.5L176.0,173.6L178.1,171.7L178.7,160.4L178.6,152.7L178.2,146.2L171.4,127.0L171.3,125.1L172.3,117.2L174.2,116.0L178.1,117.7L179.8,117.6L185.5,119.8L195.1,125.6L198.3,130.0L198.1,132.7L199.0,137.6L198.5,139.2L199.6,141.7L197.8,146.0L198.2,151.1L200.7,155.2L200.3,157.0L203.3,161.5L204.6,162.0L206.3,160.8L217.0,167.9L217.5,170.6L220.9,179.0L228.3,188.1L230.6,191.8L234.0,193.9L237.2,193.1L242.7,196.6L245.4,196.9L251.1,199.1L254.8,197.5L257.1,195.6L258.9,197.7L264.9,202.4L267.1,203.7L273.4,206.1L275.5,205.8L277.5,198.5L279.7,196.0L293.1,207.3L294.7,206.2L295.9,202.0L299.7,197.6L303.4,196.1L304.2,194.4L311.0,192.7L313.4,189.8L316.5,184.2L318.2,179.9L318.9,175.8L312.3,128.7L312.0,127.5L309.4,126.1L301.5,126.0L296.6,134.4L288.3,126.0L283.6,124.2L280.2,122.2L275.2,123.7L273.1,125.8L270.0,125.5L267.5,124.1L266.6,120.5L262.9,113.6L255.5,107.4L256.2,100.9L256.1,92.6L252.5,88.3L243.8,87.5L240.8,84.4L238.0,77.5L235.7,66.8L236.6,62.4L233.3,59.2L231.1,58.7L231.2,52.5L232.7,47.4L235.7,39.5L235.6,29.1L237.2,22.8L220.3,23.1L210.9,22.9L202.2,24.0L198.2,21.9L189.0,11.6L180.1,5.7L177.9,3.4L175.0,1.9L169.5,0.0L168.4,0.4L166.6,12.5L164.5,21.7L162.2,24.9L146.9,29.7L145.0,30.8L141.6,30.8L139.3,35.3L139.1,40.7L138.0,44.1L138.6,46.2L138.0,47.5L131.2,49.9L129.6,50.9L127.2,53.9L123.8,54.1L125.0,60.9L124.5,63.6L120.1,67.7L118.5,70.1L115.9,75.9L128.7,89.0L128.6,91.3L119.9,141.9L119.8,142.7Z " data-id="AR.JY" data-name="Jujuy" id="AR.JY"/>
utf-8utf-8<path d="M290.3,590.8L286.8,584.2L281.6,575.7L276.0,565.9L274.8,563.2L272.9,556.4L272.2,553.0L268.9,547.5L255.9,536.1L253.8,535.1L244.9,527.0L241.8,525.0L230.4,520.0L228.5,518.5L227.0,516.3L228.9,511.7L228.7,510.2L224.5,507.4L222.1,505.4L218.6,500.9L215.8,492.5L209.1,485.5L196.1,480.1L183.0,475.5L181.0,475.5L178.7,477.0L176.3,480.9L170.9,482.0L166.4,482.1L138.4,480.7L131.4,483.9L123.1,471.6L122.4,468.7L120.4,464.5L111.3,466.9L108.0,463.8L102.4,462.2L100.5,462.4L93.2,456.9L89.2,456.6L87.6,453.4L87.8,449.7L85.9,437.6L81.5,436.5L77.5,439.2L71.8,437.7L60.2,440.7L42.2,439.2L41.5,450.3L39.4,453.6L34.3,455.8L34.2,458.5L33.2,459.7L31.9,465.4L29.6,471.5L25.8,469.7L25.0,470.4L22.5,479.2L19.6,482.0L17.3,485.0L17.3,485.3L24.7,488.0L28.5,487.1L32.0,490.4L37.0,490.9L48.7,499.4L50.8,501.4L53.3,505.7L56.4,512.9L61.3,516.8L64.6,521.7L71.6,530.2L71.3,532.8L67.3,537.8L67.9,543.5L68.7,546.3L73.3,551.9L71.7,554.3L72.0,559.7L72.7,561.7L71.3,567.4L71.6,571.1L73.0,574.7L80.2,574.5L86.0,575.3L93.6,573.6L98.7,576.4L105.5,576.4L116.6,579.9L122.4,585.0L128.1,589.0L129.8,591.6L134.8,593.8L138.4,597.0L140.5,600.3L146.1,605.1L150.0,607.9L153.3,609.2L157.3,613.5L167.2,620.5L171.5,626.0L172.7,629.0L179.7,634.5L181.8,637.6L186.3,641.5L189.6,643.8L197.1,652.6L200.0,653.8L201.8,655.4L205.4,661.4L210.6,668.5L209.7,676.0L210.4,678.2L214.4,681.4L215.5,701.2L220.3,708.9L221.1,712.8L222.4,714.8L228.4,719.9L230.4,720.8L234.1,721.2L237.0,727.4L243.7,734.9L246.1,739.4L250.6,740.3L255.7,742.2L259.5,741.7L261.4,742.6L264.6,742.2L268.5,743.5L278.6,743.0L287.9,739.0L290.2,739.0L300.3,741.2L306.3,740.0L302.3,720.6L294.7,682.4L294.7,677.9L299.5,644.0L299.5,640.8L300.1,635.7L302.1,627.8L304.5,612.6L290.3,590.8Z " data-id="AR.LR" data-name="La Rioja" id="AR.LR"/>
utf-8utf-8<path d="M237.2,22.8L235.6,29.1L235.7,39.5L232.7,47.4L231.2,52.5L231.1,58.7L233.3,59.2L236.6,62.4L235.7,66.8L238.0,77.5L240.8,84.4L243.8,87.5L252.5,88.3L256.1,92.6L256.2,100.9L255.5,107.4L262.9,113.6L266.6,120.5L267.5,124.1L270.0,125.5L273.1,125.8L275.2,123.7L280.2,122.2L283.6,124.2L288.3,126.0L296.6,134.4L301.5,126.0L309.4,126.1L312.0,127.5L312.3,128.7L318.9,175.8L318.2,179.9L316.5,184.2L313.4,189.8L311.0,192.7L304.2,194.4L303.4,196.1L299.7,197.6L295.9,202.0L294.7,206.2L293.1,207.3L279.7,196.0L277.5,198.5L275.5,205.8L273.4,206.1L267.1,203.7L264.9,202.4L258.9,197.7L257.1,195.6L254.8,197.5L251.1,199.1L245.4,196.9L242.7,196.6L237.2,193.1L234.0,193.9L230.6,191.8L228.3,188.1L220.9,179.0L217.5,170.6L217.0,167.9L206.3,160.8L204.6,162.0L203.3,161.5L200.3,157.0L200.7,155.2L198.2,151.1L197.8,146.0L199.6,141.7L198.5,139.2L199.0,137.6L198.1,132.7L198.3,130.0L195.1,125.6L185.5,119.8L179.8,117.6L178.1,117.7L174.2,116.0L172.3,117.2L171.3,125.1L171.4,127.0L178.2,146.2L178.6,152.7L178.7,160.4L178.1,171.7L176.0,173.6L173.2,178.5L171.3,179.7L167.3,179.9L164.9,179.3L158.6,175.5L155.9,172.1L152.8,169.1L147.5,166.7L130.6,149.5L126.5,148.2L125.1,146.5L119.8,142.7L118.5,150.1L116.5,162.3L115.3,164.5L112.4,166.4L106.5,168.9L76.7,183.9L62.8,190.6L61.7,191.4L61.1,194.0L58.6,198.8L55.2,198.3L54.1,199.0L51.1,208.0L48.9,206.4L47.9,211.8L45.6,218.8L45.6,221.6L48.6,226.7L53.2,228.9L55.8,233.3L56.1,237.2L61.7,243.3L61.9,244.7L55.4,246.3L54.3,247.1L54.1,247.4L98.7,256.5L174.6,255.4L177.2,255.7L178.2,256.8L181.2,265.8L184.7,270.5L184.9,272.2L184.2,278.0L184.3,280.9L180.9,284.3L174.1,285.1L168.1,286.9L165.7,290.4L166.3,295.3L167.6,298.7L169.3,301.4L175.5,309.4L181.5,316.2L185.3,322.1L188.6,328.2L199.6,337.3L200.7,336.0L203.0,327.1L205.2,325.4L206.0,322.9L209.1,321.1L212.2,322.2L215.8,326.2L218.7,327.7L237.6,331.1L241.2,328.1L240.6,325.7L241.0,321.6L240.9,314.8L241.3,314.6L255.8,317.9L257.4,317.6L262.7,314.7L265.3,317.3L267.2,321.1L268.2,321.7L280.9,326.9L283.7,326.8L287.2,328.8L289.8,329.2L293.6,326.5L299.1,324.6L303.6,325.6L316.8,325.2L317.0,322.8L318.7,317.7L318.8,311.1L328.2,280.0L329.2,278.2L331.7,278.6L346.7,283.6L379.9,284.1L395.9,257.8L435.9,191.8L433.3,171.1L428.8,129.7L420.6,50.2L420.1,50.2L418.8,49.7L405.3,39.2L400.8,37.3L401.4,35.3L399.9,32.9L398.7,32.6L397.1,29.9L394.2,27.8L391.1,26.2L389.2,21.6L387.8,15.9L384.1,15.1L374.8,15.7L334.8,15.4L328.8,19.3L323.9,15.8L317.9,15.4L315.2,16.8L311.9,27.0L310.4,32.4L308.4,34.5L305.0,47.8L303.8,50.2L300.8,53.5L300.1,55.3L298.5,66.3L299.0,71.6L296.7,78.9L295.1,70.8L294.0,69.1L291.8,67.9L289.8,63.9L287.7,61.7L288.9,55.4L285.0,51.6L283.1,48.2L281.9,47.4L278.3,40.8L279.8,37.0L279.6,35.8L276.3,31.2L271.6,28.7L268.1,28.9L264.9,28.4L260.2,25.7L248.0,22.7L237.2,22.8Z " data-id="AR.SA" data-name="Salta" id="AR.SA"/>
utf-8utf-8<path d="M346.7,283.6L331.7,278.6L329.2,278.2L328.2,280.0L318.8,311.1L318.7,317.7L317.0,322.8L316.8,325.2L317.8,330.5L317.9,332.6L316.7,341.9L320.1,354.8L320.3,359.3L316.2,358.6L314.1,367.2L310.7,369.2L309.5,381.6L307.4,385.1L306.4,393.8L305.3,398.9L304.2,401.0L303.4,405.2L301.3,406.6L293.7,417.2L297.2,418.6L300.0,421.2L298.4,423.9L295.1,424.5L295.0,428.3L300.8,438.6L299.6,439.9L297.9,447.5L296.6,448.5L292.7,448.6L291.9,449.2L301.7,476.0L303.9,487.0L304.2,491.2L300.4,499.2L299.5,499.8L299.7,503.2L306.1,508.8L309.5,523.1L310.3,529.2L316.6,550.6L320.4,557.4L325.7,564.7L327.7,568.1L329.4,569.9L346.8,565.1L364.4,560.3L366.9,560.2L379.6,563.5L382.5,569.1L387.6,571.6L389.6,573.8L393.7,574.6L396.4,576.3L401.2,577.0L415.8,577.4L419.0,577.1L419.6,580.6L420.6,581.7L426.7,585.8L462.2,586.0L483.4,585.7L493.6,586.0L496.8,588.1L510.8,613.8L510.3,577.9L510.1,558.6L509.8,523.1L509.5,482.1L509.3,455.9L507.3,442.0L496.9,367.4L490.6,319.8L486.1,290.3L483.4,284.2L379.9,284.1L346.7,283.6Z " data-id="AR.SE" data-name="Santiago del Estero" id="AR.SE"/>
utf-8utf-8<path d="M303.6,325.6L299.1,324.6L293.6,326.5L289.8,329.2L287.2,328.8L283.7,326.8L280.9,326.9L268.2,321.7L267.2,321.1L265.3,317.3L262.7,314.7L257.4,317.6L255.8,317.9L241.3,314.6L240.9,314.8L241.0,321.6L240.6,325.7L241.2,328.1L237.6,331.1L218.7,327.7L218.4,329.3L216.4,332.7L216.6,336.9L214.8,345.6L215.4,348.6L216.6,350.1L222.1,351.8L231.7,359.0L235.2,360.9L236.4,363.4L236.3,369.2L237.0,376.4L235.2,381.1L228.6,390.1L227.0,395.0L223.1,399.9L221.2,405.2L222.0,406.8L226.9,407.9L232.6,410.9L235.3,411.4L235.3,414.0L239.2,424.9L241.1,429.8L248.6,440.8L249.9,441.6L256.7,441.9L258.7,445.1L260.0,449.0L268.4,459.6L269.5,459.2L271.7,453.4L275.4,449.2L280.1,445.8L290.3,450.1L291.9,449.2L292.7,448.6L296.6,448.5L297.9,447.5L299.6,439.9L300.8,438.6L295.0,428.3L295.1,424.5L298.4,423.9L300.0,421.2L297.2,418.6L293.7,417.2L301.3,406.6L303.4,405.2L304.2,401.0L305.3,398.9L306.4,393.8L307.4,385.1L309.5,381.6L310.7,369.2L314.1,367.2L316.2,358.6L320.3,359.3L320.1,354.8L316.7,341.9L317.9,332.6L317.8,330.5L316.8,325.2L303.6,325.6Z " data-id="AR.TM" data-name="Tucumán" id="AR.TM"/>
utf-8utf-8<path d="M433.3,171.1L435.9,191.8L395.9,257.8L379.9,284.1L483.4,284.2L486.1,290.3L490.6,319.8L496.9,367.4L507.3,442.0L509.3,455.9L569.8,456.1L613.7,455.9L641.5,455.9L687.3,455.8L687.9,449.7L687.2,442.9L688.0,439.2L687.5,435.1L686.7,432.4L684.3,427.3L682.1,424.1L680.9,420.3L687.6,411.8L691.8,408.8L693.7,406.8L696.8,405.7L696.8,405.7L696.3,400.5L692.1,396.1L692.2,394.0L694.2,391.6L697.3,391.0L697.5,386.0L700.2,386.9L701.1,379.8L702.1,377.2L704.8,376.4L707.1,374.2L708.6,374.1L706.9,373.2L706.6,371.4L702.8,371.1L700.1,368.0L687.4,356.6L683.5,352.9L681.8,352.9L677.2,348.3L671.0,344.2L667.7,340.2L664.3,337.7L656.9,334.8L652.8,330.8L651.3,331.0L646.8,334.3L638.4,331.3L634.3,322.2L629.5,321.1L622.0,319.0L619.2,318.8L617.5,310.1L615.5,309.7L610.6,303.3L606.4,300.0L605.2,299.5L603.5,295.7L593.8,289.8L591.7,286.8L585.1,284.3L582.6,284.5L581.4,281.5L579.2,278.8L577.7,275.7L578.3,274.2L577.3,272.0L573.7,270.8L569.8,265.9L568.5,262.3L560.5,254.6L557.7,250.7L549.3,248.0L540.3,241.9L538.3,241.2L531.7,236.1L522.1,228.2L519.4,228.0L517.4,225.6L517.6,223.0L513.9,217.6L513.3,215.3L512.3,215.0L509.8,211.8L508.1,210.6L499.6,209.2L490.2,204.8L485.5,200.1L484.6,198.0L479.8,197.9L479.1,197.2L475.6,191.3L470.7,187.4L462.5,185.6L456.3,181.1L455.0,179.1L453.2,177.9L447.6,176.9L433.3,171.1Z " data-id="AR.CC" data-name="Chaco" id="AR.CC"/>
utf-8utf-8<path d="M420.6,50.2L428.8,129.7L433.3,171.1L447.6,176.9L453.2,177.9L455.0,179.1L456.3,181.1L462.5,185.6L470.7,187.4L475.6,191.3L479.1,197.2L479.8,197.9L484.6,198.0L485.5,200.1L490.2,204.8L499.6,209.2L508.1,210.6L509.8,211.8L512.3,215.0L513.3,215.3L513.9,217.6L517.6,223.0L517.4,225.6L519.4,228.0L522.1,228.2L531.7,236.1L538.3,241.2L540.3,241.9L549.3,248.0L557.7,250.7L560.5,254.6L568.5,262.3L569.8,265.9L573.7,270.8L577.3,272.0L578.3,274.2L577.7,275.7L579.2,278.8L581.4,281.5L582.6,284.5L585.1,284.3L591.7,286.8L593.8,289.8L603.5,295.7L605.2,299.5L606.4,300.0L610.6,303.3L615.5,309.7L617.5,310.1L619.2,318.8L622.0,319.0L629.5,321.1L634.3,322.2L638.4,331.3L646.8,334.3L651.3,331.0L652.8,330.8L656.9,334.8L664.3,337.7L667.7,340.2L671.0,344.2L677.2,348.3L681.8,352.9L683.5,352.9L687.4,356.6L700.1,368.0L702.8,371.1L706.6,371.4L706.9,373.2L708.6,374.1L709.9,374.0L710.7,373.3L708.0,370.1L708.5,368.4L711.8,368.7L712.5,367.7L711.4,365.5L713.8,364.7L714.2,356.9L717.2,356.9L716.1,354.9L717.5,352.6L714.4,349.5L714.0,343.7L714.8,343.0L713.2,338.6L714.8,334.7L714.3,328.9L717.1,327.5L717.9,325.7L715.0,323.7L716.6,323.9L718.3,318.4L724.1,315.6L730.7,309.8L731.2,307.7L728.2,306.8L730.5,303.8L731.0,301.6L729.5,301.0L733.6,296.7L731.9,292.8L735.0,290.8L736.5,288.7L734.2,287.2L735.9,284.3L739.7,283.2L740.1,280.6L743.4,280.4L743.5,278.7L745.6,277.1L745.6,268.2L745.1,267.3L739.8,263.0L739.7,262.1L733.7,253.7L731.1,248.9L727.2,246.2L724.0,242.8L721.7,241.4L716.7,241.4L707.2,236.6L699.6,231.4L697.5,232.2L695.9,234.2L691.8,233.4L687.2,228.6L683.1,224.8L668.9,221.9L661.4,219.3L648.2,209.6L645.5,208.6L644.1,207.2L634.5,202.7L625.5,198.1L619.4,191.1L617.8,190.3L617.0,188.6L613.6,186.7L611.5,184.9L607.6,183.8L602.4,178.8L578.0,162.8L571.2,164.1L566.5,164.3L558.2,163.1L556.8,161.9L549.3,160.6L541.9,155.8L538.6,154.3L535.7,154.5L533.0,152.9L526.2,152.9L519.5,148.6L517.1,149.4L510.5,141.4L508.8,140.4L506.8,137.8L506.9,133.5L502.1,129.8L499.9,129.8L495.3,126.3L494.1,124.2L489.8,122.3L487.5,122.0L484.9,120.0L480.7,118.9L478.8,116.4L479.3,114.2L478.1,114.2L467.8,109.1L464.0,106.2L463.1,102.7L459.6,99.6L456.6,96.1L449.1,91.5L445.3,86.7L445.4,85.0L439.4,75.8L434.5,70.5L432.6,65.8L431.3,65.0L431.1,61.7L427.1,59.9L428.0,56.4L427.4,55.1L424.4,52.6L422.8,50.6L420.6,50.2Z " data-id="AR.FM" data-name="Formosa" id="AR.FM"/>
utf-8utf-8<path d="M696.8,405.7L693.7,406.8L691.8,408.8L687.6,411.8L680.9,420.3L682.1,424.1L684.3,427.3L686.7,432.4L687.5,435.1L688.0,439.2L687.2,442.9L687.9,449.7L687.3,455.8L687.0,459.0L683.1,464.1L676.5,465.4L675.8,466.3L676.5,475.3L676.5,479.5L678.9,485.3L678.8,494.8L679.9,500.4L679.7,504.6L678.0,509.3L678.2,516.3L676.5,523.4L677.4,528.3L676.0,533.4L673.3,535.0L668.7,539.7L663.0,542.0L658.8,546.1L658.2,548.2L657.4,556.8L657.4,559.3L659.6,574.2L657.4,589.1L657.2,591.2L658.1,593.4L660.8,597.2L663.7,603.3L664.4,608.5L663.1,612.1L662.7,623.8L663.7,627.0L668.7,626.8L680.3,624.7L683.6,625.2L689.9,627.4L695.5,622.9L697.6,620.6L702.9,617.3L711.2,618.9L716.1,617.8L725.6,613.5L729.2,613.7L734.0,615.9L736.9,615.8L749.5,619.2L751.7,620.8L754.6,625.4L760.5,630.8L763.7,633.1L766.8,640.5L770.8,646.4L779.3,654.0L783.6,656.9L782.6,654.4L781.9,652.7L777.0,645.4L776.3,642.6L776.6,640.0L778.0,637.8L788.4,626.4L789.4,624.0L789.4,621.2L787.5,616.4L787.9,615.8L793.0,614.8L795.4,612.9L800.1,605.2L804.8,600.9L805.0,599.8L804.3,591.3L805.0,588.8L806.5,587.2L816.6,584.2L820.4,579.2L826.4,568.4L830.7,563.9L832.2,558.1L837.2,553.3L838.7,547.6L838.2,546.6L838.6,543.5L839.8,540.9L845.6,536.0L850.7,534.3L850.9,528.5L851.7,525.7L855.6,523.0L856.6,520.5L856.1,514.2L860.6,511.9L862.5,510.4L866.6,503.4L870.1,500.5L871.0,498.8L870.3,493.3L870.8,492.3L874.3,490.8L876.3,490.6L876.2,483.6L879.8,481.3L886.8,482.7L889.0,485.8L890.4,483.3L890.8,479.8L889.0,477.1L884.5,475.4L883.1,472.9L884.4,471.7L888.2,470.3L891.5,466.6L891.6,466.5L885.9,462.6L883.7,460.7L881.6,458.0L879.9,453.8L875.8,449.0L873.0,437.8L871.7,435.0L860.2,415.6L859.9,411.4L860.4,408.9L862.3,406.8L861.1,406.9L850.6,405.4L847.6,409.1L843.2,411.1L843.5,416.3L841.0,421.1L839.5,425.1L835.5,424.7L830.1,419.2L822.9,415.3L818.6,416.6L815.8,419.2L811.1,418.2L806.7,414.2L802.1,413.5L799.9,414.4L794.2,418.0L787.0,418.0L783.8,415.8L780.2,414.8L777.2,412.5L774.0,412.1L767.8,413.1L764.7,412.4L753.8,407.0L737.8,402.7L730.8,401.5L727.1,402.2L719.2,401.4L702.3,402.9L697.0,405.5L696.8,405.7Z " data-id="AR.CN" data-name="Corrientes" id="AR.CN"/>
utf-8utf-8<path d="M663.7,627.0L664.8,630.4L667.7,635.0L668.3,640.1L668.8,654.7L668.6,656.1L666.1,663.0L663.5,667.5L660.4,673.7L658.8,678.4L656.0,683.9L653.5,690.9L650.3,695.1L647.1,705.5L645.6,708.3L643.2,710.8L639.2,715.9L637.0,720.7L633.8,724.6L630.4,726.3L623.5,726.4L620.3,727.2L620.4,731.3L619.9,738.6L618.6,741.0L619.0,746.4L623.7,753.5L622.2,761.2L623.5,765.5L623.8,768.5L623.3,772.9L623.5,775.9L624.6,780.2L624.6,783.3L623.7,788.0L624.8,791.9L627.8,795.4L629.3,798.1L631.0,804.7L633.5,810.3L648.4,830.5L652.8,833.2L655.4,834.4L660.6,839.3L662.7,840.4L665.9,842.0L675.4,850.5L687.3,857.9L693.1,860.0L699.7,866.4L708.6,870.9L715.8,869.7L718.6,871.5L721.5,874.3L724.8,875.9L730.1,875.9L732.6,874.8L733.9,878.6L736.2,880.4L737.0,879.9L740.2,882.5L746.5,882.3L750.8,884.1L755.8,886.8L759.7,889.8L765.3,891.6L772.6,897.4L775.4,898.6L778.3,898.7L783.5,896.3L786.6,895.6L786.6,895.6L786.7,893.6L782.9,883.5L778.6,878.7L775.8,871.7L774.3,857.8L775.3,848.7L776.5,846.1L778.9,843.5L776.6,837.2L776.6,833.9L775.2,829.8L775.7,828.1L777.7,827.1L786.7,828.6L789.6,828.1L791.5,826.1L789.9,813.2L787.0,809.0L784.8,801.5L782.7,796.5L780.4,787.5L780.0,784.2L782.1,776.9L785.0,771.2L784.9,768.9L783.9,766.8L778.7,761.1L778.9,753.0L777.7,746.6L776.7,744.3L773.4,740.6L773.5,739.1L777.0,735.8L779.8,735.2L781.6,733.6L783.4,722.3L783.4,719.1L782.4,715.8L776.0,710.1L776.4,707.8L780.3,704.5L780.7,698.3L782.3,696.6L783.2,693.8L782.4,687.8L782.6,684.6L784.5,679.7L783.4,676.3L779.9,670.2L780.9,669.5L785.6,668.6L785.8,665.0L784.4,658.8L783.6,656.9L779.3,654.0L770.8,646.4L766.8,640.5L763.7,633.1L760.5,630.8L754.6,625.4L751.7,620.8L749.5,619.2L736.9,615.8L734.0,615.9L729.2,613.7L725.6,613.5L716.1,617.8L711.2,618.9L702.9,617.3L697.6,620.6L695.5,622.9L689.9,627.4L683.6,625.2L680.3,624.7L668.7,626.8L663.7,627.0Z " data-id="AR.ER" data-name="Entre Ríos" id="AR.ER"/>
utf-8utf-8<path d="M662.7,623.8L663.1,612.1L664.4,608.5L663.7,603.3L660.8,597.2L658.1,593.4L657.2,591.2L657.4,589.1L659.6,574.2L657.4,559.3L657.4,556.8L658.2,548.2L658.8,546.1L663.0,542.0L668.7,539.7L673.3,535.0L676.0,533.4L677.4,528.3L676.5,523.4L678.2,516.3L678.0,509.3L679.7,504.6L679.9,500.4L678.8,494.8L678.9,485.3L676.5,479.5L676.5,475.3L675.8,466.3L676.5,465.4L683.1,464.1L687.0,459.0L687.3,455.8L641.5,455.9L613.7,455.9L569.8,456.1L509.3,455.9L509.5,482.1L509.8,523.1L510.1,558.6L510.3,577.9L510.8,613.8L511.1,632.8L512.2,635.8L528.6,651.5L532.3,655.8L532.5,660.0L527.4,719.8L526.8,722.2L522.0,729.3L523.2,730.9L524.3,737.3L525.6,741.7L527.5,750.8L528.6,758.5L539.1,766.9L542.1,773.2L544.6,776.6L550.5,780.8L552.6,783.9L554.1,788.6L556.7,792.1L556.7,793.7L564.6,804.6L567.7,807.8L568.1,809.6L568.6,820.2L568.0,823.8L565.5,826.9L561.9,827.7L560.6,830.0L551.2,852.4L538.6,883.0L522.1,923.3L556.7,923.2L592.0,922.9L619.0,883.9L627.5,871.3L629.1,868.1L628.1,865.8L628.7,863.5L629.8,862.5L633.2,862.0L636.9,863.5L643.6,863.8L652.8,868.8L655.3,868.1L658.5,859.2L658.3,855.8L661.5,851.7L661.0,847.4L663.4,845.7L664.4,844.1L664.1,841.9L662.7,840.4L660.6,839.3L655.4,834.4L652.8,833.2L648.4,830.5L633.5,810.3L631.0,804.7L629.3,798.1L627.8,795.4L624.8,791.9L623.7,788.0L624.6,783.3L624.6,780.2L623.5,775.9L623.3,772.9L623.8,768.5L623.5,765.5L622.2,761.2L623.7,753.5L619.0,746.4L618.6,741.0L619.9,738.6L620.4,731.3L620.3,727.2L623.5,726.4L630.4,726.3L633.8,724.6L637.0,720.7L639.2,715.9L643.2,710.8L645.6,708.3L647.1,705.5L650.3,695.1L653.5,690.9L656.0,683.9L658.8,678.4L660.4,673.7L663.5,667.5L666.1,663.0L668.6,656.1L668.8,654.7L668.3,640.1L667.7,635.0L664.8,630.4L663.7,627.0L662.7,623.8Z " data-id="AR.SF" data-name="Santa Fe" id="AR.SF"/>
utf-8utf-8<path d="M862.3,406.8L860.4,408.9L859.9,411.4L860.2,415.6L871.7,435.0L873.0,437.8L875.8,449.0L879.9,453.8L881.6,458.0L883.7,460.7L885.9,462.6L891.6,466.5L891.8,465.4L893.9,464.7L894.4,466.5L899.0,461.3L900.2,462.2L902.6,461.1L905.0,457.6L905.1,454.9L907.6,453.2L908.7,449.6L912.1,449.9L914.1,448.1L915.4,445.6L916.6,445.1L920.5,447.1L921.4,444.4L926.0,444.1L921.9,439.6L922.9,439.1L926.5,440.3L928.0,440.1L930.9,437.1L932.1,436.6L932.4,431.0L931.9,428.3L935.2,427.4L935.4,424.0L936.9,421.1L939.2,423.9L941.7,423.0L946.0,419.7L946.5,421.1L949.7,415.7L953.5,418.3L958.5,415.2L957.3,413.6L960.9,412.4L964.7,413.8L964.3,411.4L967.2,414.0L968.4,413.9L971.5,409.8L973.0,401.6L973.6,400.4L975.2,403.0L977.1,403.7L979.4,403.4L983.3,398.1L986.7,396.5L986.2,393.8L987.0,393.3L989.8,394.8L991.0,391.3L993.9,394.5L995.1,392.1L994.4,391.4L995.7,389.4L995.4,385.4L997.3,384.3L999.3,378.1L999.6,373.2L997.3,366.2L996.1,365.8L996.1,363.3L994.7,362.4L996.1,358.7L995.3,353.2L995.8,349.6L995.0,347.6L996.1,343.6L994.5,336.7L994.8,334.5L997.1,330.6L997.5,328.2L996.9,325.2L991.9,318.4L989.1,311.1L984.0,305.4L984.2,303.3L983.0,299.4L982.5,293.8L979.1,288.7L979.5,286.9L978.5,284.2L976.8,281.9L973.4,283.6L971.8,278.9L968.7,276.9L967.2,277.6L965.0,276.7L965.4,279.0L962.9,277.6L962.1,272.4L960.6,274.4L956.9,274.7L958.4,277.0L955.4,278.1L955.1,279.2L951.7,276.2L944.1,282.4L944.3,285.3L943.0,285.8L942.3,282.8L938.8,280.2L937.5,280.5L936.4,277.9L932.9,277.9L933.7,283.7L931.4,283.5L931.1,286.2L935.7,296.8L934.5,300.5L935.1,306.3L932.6,306.8L934.2,313.7L933.6,320.0L935.3,324.4L934.7,325.5L935.0,331.7L934.1,334.8L934.0,339.3L931.7,343.8L928.9,347.9L930.1,353.0L929.0,357.6L924.4,357.1L921.5,360.0L921.1,363.4L919.5,366.9L914.3,368.2L910.8,372.5L910.5,373.7L911.7,376.6L909.3,379.4L906.8,379.2L903.2,377.7L901.7,377.7L898.8,379.4L895.9,379.8L892.8,382.2L892.2,383.6L892.3,388.5L891.8,389.7L887.3,389.8L885.5,394.4L883.9,394.8L885.8,398.9L886.4,401.3L885.8,406.6L876.6,415.1L869.3,411.2L866.9,407.1L862.7,406.8L862.3,406.8Z " data-id="AR.MN" data-name="Misiones" id="AR.MN"/>
utf-8utf-8<path d="M802.5,941.7L798.7,937.3L796.4,936.1L793.7,934.5L792.2,933.6L788.9,936.9L788.8,943.3L790.8,947.5L797.7,952.3L799.1,947.9L800.4,946.4L802.6,946.0L803.8,943.6L802.5,941.7Z " data-id="AR.DF" data-name="Ciudad de Buenos Aires" id="AR.DF"/>
utf-8</g>
</svg>
