<?xml version="1.0" ?>
<!DOCTYPE svg
  PUBLIC '-//W3C//DTD SVG 1.1//EN'
  'http://www.w3.org/Graphics/SVG/1.1/DTD/svg11.dtd'>
<svg enable_background="new 0 0 1000 437" height="437px" pretty_print="True" style="stroke-linejoin: round; stroke:#000; fill: none;" version="1.1" viewBox="0 0 1000 437" width="1000px" xmlns="http://www.w3.org/2000/svg" xmlns:xlink="http://www.w3.org/1999/xlink">
utf-8<defs>
utf-8utf-8<style type="text/css">
<![CDATA[path { fill-rule: evenodd; }]]>utf-8utf-8</style>
utf-8</defs>
utf-8<metadata>
utf-8utf-8<views>
utf-8utf-8utf-8<view h="437.650402152" padding="0" w="1000">
utf-8utf-8utf-8utf-8<proj flip="auto" id="robinson" lon0="9.87418994656"/>
utf-8utf-8utf-8utf-8<bbox h="43.14" w="98.79" x="124.65" y="-819.02"/>
utf-8utf-8utf-8</view>
utf-8utf-8</views>
utf-8</metadata>
utf-8<g class="" id="provinces">
utf-8utf-8<path d="M85.5,287.9L84.9,287.6L87.0,284.4L89.4,283.4L89.2,280.2L91.2,274.1L91.2,271.1L88.7,270.0L82.9,270.9L80.2,272.7L74.6,273.3L73.3,272.2L71.8,267.2L70.3,265.7L73.2,263.7L73.7,262.0L72.5,260.0L65.6,251.9L61.8,253.8L60.3,253.1L58.7,248.9L55.5,245.9L55.0,243.2L47.5,244.3L43.5,243.1L40.2,244.2L37.5,243.0L36.5,237.3L34.9,235.9L29.1,236.4L26.4,239.2L26.8,243.6L28.6,246.6L23.0,246.4L19.7,250.1L15.3,249.7L15.0,248.2L13.1,248.2L11.6,249.6L6.8,249.7L5.1,248.9L7.8,253.1L12.8,255.1L16.7,257.9L16.9,264.9L15.8,267.4L10.9,272.9L9.4,278.5L5.1,283.1L1.1,289.3L4.7,292.5L4.3,293.9L7.2,300.0L5.9,303.7L6.0,305.1L10.0,307.1L13.4,310.9L14.9,315.1L14.2,319.4L10.7,323.4L13.2,323.9L20.1,323.2L22.4,323.5L47.7,330.2L47.6,332.1L49.1,335.5L48.9,342.8L50.7,344.8L54.1,347.0L68.5,350.9L73.8,355.1L76.9,356.5L82.7,358.1L84.5,358.2L81.7,352.2L78.5,348.0L78.4,345.0L83.0,340.2L83.9,335.3L83.0,329.2L83.1,326.6L84.3,320.0L85.5,316.9L90.3,310.2L92.1,306.1L89.9,292.4L87.5,287.7L85.5,287.9Z " data-id="AT.VO" data-name="Vorarlberg" id="AT.VO"/>
utf-8utf-8<path d="M986.0,148.4L982.5,150.5L978.3,149.0L975.8,150.9L975.5,153.4L976.1,157.2L973.8,159.5L967.4,155.9L965.2,155.2L962.6,155.4L959.6,156.6L954.6,159.9L949.2,162.2L943.4,163.3L940.4,165.6L938.9,169.8L929.3,178.2L924.4,180.4L914.9,177.8L910.3,178.1L906.6,179.0L900.6,183.2L898.7,185.1L897.0,188.3L897.3,194.8L896.9,196.7L893.3,200.8L888.8,201.3L889.6,211.4L893.1,216.4L897.9,220.8L902.2,225.9L896.0,238.1L895.9,241.7L897.4,249.7L891.0,256.0L885.8,259.0L882.5,259.5L874.9,259.4L867.8,266.2L865.5,267.4L863.7,264.6L862.1,264.8L858.7,269.7L859.0,271.1L861.7,275.8L865.1,284.6L867.0,293.4L871.6,305.4L872.0,309.9L871.0,315.1L873.4,320.9L878.6,326.1L878.2,330.4L875.1,334.7L869.2,342.0L864.8,345.6L864.0,347.2L863.5,354.2L867.2,359.8L867.7,359.7L877.6,354.7L879.2,353.3L883.6,347.6L888.2,344.2L891.7,342.6L892.5,341.3L892.6,338.4L896.2,336.4L896.5,333.9L897.6,332.1L899.4,331.9L904.4,332.7L909.8,332.2L919.8,333.6L925.7,333.0L925.0,331.2L917.2,328.8L918.7,327.5L926.4,323.7L925.9,322.9L921.5,321.4L920.3,319.3L921.0,316.8L923.7,315.4L926.4,311.9L926.9,310.0L925.1,308.0L922.9,307.8L918.6,309.6L916.4,302.4L913.4,301.8L912.7,299.0L914.4,295.4L913.8,292.5L917.7,290.6L919.5,289.1L920.2,286.9L919.4,284.2L914.8,277.0L912.8,274.6L914.2,273.4L913.3,267.0L914.5,264.9L916.1,264.6L917.9,265.6L919.7,267.8L933.4,262.3L939.9,257.7L938.8,251.1L940.2,249.7L943.9,248.3L945.1,246.2L945.0,243.6L943.8,241.6L939.6,238.9L940.0,235.7L938.6,232.4L936.1,229.7L933.1,228.6L928.8,229.2L919.9,226.2L916.3,226.9L908.7,224.4L906.2,223.2L909.9,218.4L912.1,219.8L914.4,218.2L919.4,215.8L921.3,209.7L926.0,207.8L931.6,208.4L942.4,211.9L945.0,214.4L945.7,216.1L948.4,219.1L949.9,219.9L957.4,220.9L962.2,215.9L963.8,214.7L966.1,219.0L971.2,219.8L981.4,217.6L990.9,216.5L993.6,215.4L990.0,211.7L989.2,206.3L987.6,200.1L989.5,198.2L987.0,194.0L982.1,191.6L981.9,189.8L988.0,188.2L991.8,182.9L992.1,179.9L990.4,179.1L992.7,174.4L991.1,172.0L998.9,166.2L995.6,163.9L991.2,162.6L988.1,161.2L988.5,158.5L986.3,157.1L986.8,154.0L988.5,150.9L986.7,149.4L986.0,148.4Z " data-id="AT.BU" data-name="Burgenland" id="AT.BU"/>
utf-8utf-8<path d="M870.1,256.0L865.0,247.2L862.0,248.5L858.7,248.5L854.0,246.0L843.1,244.4L839.4,238.0L835.8,235.8L830.7,235.2L830.3,234.1L830.9,230.6L828.6,226.1L825.8,225.9L821.6,227.9L820.2,228.0L817.1,223.2L815.9,218.4L814.2,216.5L808.6,216.1L806.0,215.0L799.4,209.6L790.4,208.9L785.1,205.8L773.9,201.3L768.0,197.0L763.1,196.0L748.8,197.0L742.3,204.2L737.3,205.2L730.8,207.4L726.8,208.4L721.3,208.1L713.5,210.7L710.4,212.3L707.1,213.0L704.4,212.7L698.1,208.4L684.4,208.5L679.5,205.4L671.6,211.1L653.1,217.6L650.0,221.6L643.7,223.6L640.5,225.3L634.9,229.1L631.7,230.0L627.8,230.0L622.2,228.2L614.4,223.8L600.3,227.4L596.9,229.1L594.2,223.0L587.8,217.0L582.0,217.7L576.4,216.2L564.6,213.4L551.0,219.4L547.4,222.8L546.6,227.2L547.4,233.8L548.5,235.5L553.0,240.1L555.4,247.2L554.2,250.3L551.0,252.7L547.9,254.2L535.5,252.2L534.6,254.7L533.8,259.0L535.4,264.9L540.1,276.0L544.0,282.2L550.8,286.9L552.8,287.3L558.5,284.7L562.1,284.4L566.0,282.7L567.8,283.7L570.2,287.4L573.4,291.3L575.4,296.0L581.3,302.3L585.4,304.7L586.5,306.1L586.3,307.8L584.0,310.6L580.3,313.8L579.2,317.4L579.7,320.7L577.9,325.8L572.8,334.8L568.1,340.4L573.4,344.0L579.0,345.4L581.3,344.7L589.1,339.3L593.9,337.3L597.8,331.2L599.7,329.9L613.8,323.9L617.6,323.3L622.3,323.4L625.8,324.7L631.4,327.9L641.0,330.5L646.3,333.0L648.7,333.1L661.9,329.0L665.5,329.2L674.1,328.8L677.8,330.0L694.0,328.9L708.5,325.9L714.0,328.4L719.6,333.8L731.1,347.5L731.2,352.4L729.8,356.0L729.4,360.4L732.5,366.6L734.5,372.4L735.2,378.0L737.1,381.9L747.3,391.4L756.2,392.2L760.5,392.6L784.8,391.5L788.8,392.7L795.1,396.6L799.0,396.0L803.4,388.5L805.4,387.1L811.0,386.4L813.0,386.9L816.0,385.6L816.7,384.2L816.7,379.6L819.0,380.7L829.2,382.0L832.7,381.8L841.5,378.7L845.1,378.4L848.9,379.0L858.2,382.9L865.2,384.6L867.9,387.3L867.3,383.5L865.6,380.9L862.6,379.4L860.8,375.3L860.4,372.4L860.9,364.4L861.9,360.9L867.2,359.8L863.5,354.2L864.0,347.2L864.8,345.6L869.2,342.0L875.1,334.7L878.2,330.4L878.6,326.1L873.4,320.9L871.0,315.1L872.0,309.9L871.6,305.4L867.0,293.4L865.1,284.6L861.7,275.8L859.0,271.1L858.7,269.7L862.1,264.8L863.7,264.6L865.5,267.4L867.8,266.2L874.9,259.4L870.1,256.0Z " data-id="AT.ST" data-name="Steiermark" id="AT.ST"/>
utf-8utf-8<path d="M747.3,391.4L737.1,381.9L735.2,378.0L734.5,372.4L732.5,366.6L729.4,360.4L729.8,356.0L731.2,352.4L731.1,347.5L719.6,333.8L714.0,328.4L708.5,325.9L694.0,328.9L677.8,330.0L674.1,328.8L665.5,329.2L661.9,329.0L648.7,333.1L646.3,333.0L641.0,330.5L631.4,327.9L625.8,324.7L622.3,323.4L617.6,323.3L613.8,323.9L599.7,329.9L597.8,331.2L593.9,337.3L589.1,339.3L581.3,344.7L579.0,345.4L573.4,344.0L568.1,340.4L563.9,336.0L552.0,328.5L547.2,326.4L543.7,325.5L537.8,325.1L524.4,322.6L521.5,322.4L509.1,319.7L503.8,318.3L499.4,318.9L493.3,323.7L486.5,326.6L481.4,327.5L471.5,328.0L462.8,326.0L451.8,320.2L445.3,318.4L441.0,318.1L432.8,316.3L426.5,313.8L421.1,310.9L416.0,313.3L414.3,314.2L414.9,317.4L417.9,319.9L429.5,323.2L430.7,324.5L430.6,326.2L429.0,333.6L429.5,335.2L433.2,340.0L439.1,344.5L440.3,346.2L442.6,353.3L444.1,355.0L450.6,360.5L459.1,370.0L460.0,371.3L457.7,372.9L452.8,369.9L449.8,369.6L444.6,371.6L432.8,373.2L430.1,374.4L428.5,381.6L424.1,390.3L425.2,390.7L430.2,392.7L437.8,393.2L445.7,397.4L476.9,399.3L487.9,401.5L496.6,406.0L499.5,406.9L504.8,407.2L518.2,404.7L524.1,405.6L532.1,405.1L536.1,407.8L541.8,408.0L558.2,412.5L564.3,412.5L573.2,414.3L575.0,414.3L583.5,413.0L587.6,413.6L600.1,418.6L609.0,418.2L613.2,419.6L621.1,425.1L635.1,425.8L651.1,426.2L655.5,425.3L658.9,428.1L665.4,430.0L669.9,429.1L673.6,434.1L675.4,435.7L677.7,434.8L679.6,428.9L681.4,426.4L688.1,424.6L690.6,422.2L693.0,422.4L693.8,420.3L696.6,416.8L698.7,416.0L700.0,416.7L703.3,416.2L706.9,414.5L710.6,404.4L711.9,401.6L713.9,398.8L717.4,398.4L722.9,396.5L724.7,395.5L726.7,395.8L729.5,399.0L733.9,392.9L741.4,390.8L744.6,391.1L747.3,391.4Z " data-id="AT.KA" data-name="Kärnten" id="AT.KA"/>
utf-8utf-8<path d="M666.3,71.7L664.1,71.6L660.6,67.4L656.7,67.7L655.9,64.9L653.0,64.4L645.7,66.0L640.3,63.7L636.9,60.6L635.1,61.7L632.6,68.2L630.7,70.0L624.1,72.5L619.3,74.7L606.0,70.9L587.3,69.1L582.7,67.6L578.5,63.5L577.7,61.2L579.4,59.0L581.0,58.7L580.8,56.6L578.3,55.3L573.8,50.1L564.7,46.1L556.6,41.4L551.2,40.2L547.8,47.1L548.3,48.5L552.2,51.9L550.6,53.3L550.4,55.3L551.5,60.7L551.3,65.8L550.7,68.0L547.2,73.8L542.0,76.3L541.2,80.7L535.3,78.4L533.1,75.9L528.6,73.5L514.7,70.3L510.4,70.8L506.2,72.2L505.1,73.1L505.0,75.6L505.8,78.5L507.5,81.6L505.0,89.4L503.7,102.2L502.1,104.7L489.9,114.2L485.6,116.2L467.7,118.9L454.4,123.4L452.4,124.7L447.7,128.7L441.9,132.4L434.7,133.6L427.9,140.5L420.6,146.6L417.4,148.3L417.3,150.5L420.8,156.4L430.6,164.5L432.8,168.2L433.2,170.0L441.9,167.7L444.6,163.6L448.5,161.9L454.1,161.6L457.4,162.0L460.8,163.6L464.8,167.1L471.4,169.2L476.5,169.7L484.0,168.9L492.8,165.5L500.7,170.3L499.6,172.8L491.3,172.3L489.9,175.0L489.7,177.0L490.5,186.0L492.6,192.0L496.7,196.1L520.8,200.6L524.1,203.0L522.6,204.7L515.3,205.2L514.3,206.6L516.2,209.0L520.3,210.6L523.6,210.9L525.4,213.9L521.5,226.5L524.4,231.2L521.6,237.1L521.1,239.3L522.7,244.0L527.6,248.1L535.5,252.2L547.9,254.2L551.0,252.7L554.2,250.3L555.4,247.2L553.0,240.1L548.5,235.5L547.4,233.8L546.6,227.2L547.4,222.8L551.0,219.4L564.6,213.4L576.4,216.2L582.0,217.7L587.8,217.0L594.2,223.0L596.9,229.1L600.3,227.4L614.4,223.8L622.2,228.2L627.8,230.0L631.7,230.0L634.9,229.1L640.5,225.3L643.7,223.6L650.0,221.6L653.1,217.6L671.6,211.1L679.5,205.4L681.5,201.3L681.4,195.5L682.7,189.3L684.8,186.5L684.6,183.4L679.2,178.9L676.3,177.5L672.0,176.4L664.9,173.5L642.7,160.0L640.1,157.6L642.4,155.8L644.3,150.7L645.7,149.2L644.5,141.3L645.4,137.6L645.9,129.9L650.0,126.6L655.9,126.6L662.1,130.1L666.1,134.5L668.4,136.2L671.2,136.9L689.7,133.0L695.0,127.8L697.4,127.0L703.8,126.7L709.1,129.8L708.9,126.1L708.7,111.8L706.5,103.6L705.7,102.2L703.2,100.6L702.0,95.2L698.7,94.2L695.4,90.7L695.4,84.1L698.4,84.3L698.6,81.6L697.1,79.8L693.0,77.9L688.2,77.4L679.4,74.0L671.0,72.4L668.2,70.0L666.3,71.7Z " data-id="AT.OO" data-name="Oberösterreich" id="AT.OO"/>
utf-8utf-8<path d="M527.6,248.1L522.7,244.0L521.1,239.3L521.6,237.1L524.4,231.2L521.5,226.5L525.4,213.9L523.6,210.9L520.3,210.6L516.2,209.0L514.3,206.6L515.3,205.2L522.6,204.7L524.1,203.0L520.8,200.6L496.7,196.1L492.6,192.0L490.5,186.0L489.7,177.0L489.9,175.0L491.3,172.3L499.6,172.8L500.7,170.3L492.8,165.5L484.0,168.9L476.5,169.7L471.4,169.2L464.8,167.1L460.8,163.6L457.4,162.0L454.1,161.6L448.5,161.9L444.6,163.6L441.9,167.7L433.2,170.0L433.3,170.3L435.3,173.3L438.5,174.9L444.8,179.5L449.8,188.3L453.6,192.4L445.8,204.0L445.0,207.4L441.8,212.9L444.1,214.8L451.5,215.9L456.8,214.4L458.8,214.7L465.1,221.1L466.3,223.5L466.7,229.7L463.0,236.1L463.0,239.8L461.8,243.0L463.5,251.1L459.2,255.6L457.7,255.6L454.8,254.0L449.8,254.3L443.0,250.2L436.6,244.5L432.2,243.1L428.8,240.9L427.8,236.8L429.2,232.9L432.7,231.4L429.9,229.3L426.4,227.4L424.1,225.2L425.3,222.3L423.1,222.5L415.6,220.9L410.9,220.9L406.2,221.9L403.8,223.0L399.4,226.5L403.1,231.5L406.0,233.6L410.8,236.3L412.1,237.4L412.2,241.6L416.1,250.1L414.5,253.3L412.1,256.1L404.2,267.1L402.7,267.7L396.2,268.3L393.3,269.8L390.2,276.2L384.5,279.1L380.2,279.7L376.4,279.1L373.4,277.7L369.9,277.6L365.4,280.1L350.9,284.6L341.4,286.4L341.9,289.8L340.5,296.3L340.3,298.7L341.7,305.3L347.1,311.1L347.7,312.7L348.4,319.7L354.6,318.7L357.8,319.6L357.9,321.7L361.4,320.0L372.9,315.4L380.4,308.9L393.0,307.0L396.5,307.0L400.4,308.1L408.9,310.0L414.3,314.2L416.0,313.3L421.1,310.9L426.5,313.8L432.8,316.3L441.0,318.1L445.3,318.4L451.8,320.2L462.8,326.0L471.5,328.0L481.4,327.5L486.5,326.6L493.3,323.7L499.4,318.9L503.8,318.3L509.1,319.7L521.5,322.4L524.4,322.6L537.8,325.1L543.7,325.5L547.2,326.4L552.0,328.5L563.9,336.0L568.1,340.4L572.8,334.8L577.9,325.8L579.7,320.7L579.2,317.4L580.3,313.8L584.0,310.6L586.3,307.8L586.5,306.1L585.4,304.7L581.3,302.3L575.4,296.0L573.4,291.3L570.2,287.4L567.8,283.7L566.0,282.7L562.1,284.4L558.5,284.7L552.8,287.3L550.8,286.9L544.0,282.2L540.1,276.0L535.4,264.9L533.8,259.0L534.6,254.7L535.5,252.2L527.6,248.1Z " data-id="AT.SZ" data-name="Salzburg" id="AT.SZ"/>
utf-8utf-8<path d="M357.9,324.0L355.3,327.2L347.5,331.0L346.3,333.9L348.0,337.5L349.0,341.3L351.1,346.2L349.3,347.9L355.3,349.5L358.6,352.7L360.4,353.2L366.0,353.4L368.2,354.6L369.6,358.2L369.8,360.3L368.8,364.5L368.9,366.7L371.4,369.2L377.0,370.5L379.3,371.7L380.7,375.3L383.5,380.6L388.4,384.1L393.9,386.0L401.1,387.1L405.4,389.5L409.6,390.5L417.3,389.7L423.8,390.2L424.1,390.3L428.5,381.6L430.1,374.4L432.8,373.2L444.6,371.6L449.8,369.6L452.8,369.9L457.7,372.9L460.0,371.3L459.1,370.0L450.6,360.5L444.1,355.0L442.6,353.3L440.3,346.2L439.1,344.5L433.2,340.0L429.5,335.2L429.0,333.6L430.6,326.2L430.7,324.5L429.5,323.2L417.9,319.9L414.9,317.4L414.3,314.2L408.9,310.0L400.4,308.1L396.5,307.0L393.0,307.0L380.4,308.9L372.9,315.4L361.4,320.0L357.9,321.7L357.9,324.0Z M87.5,287.7L89.9,292.4L92.1,306.1L90.3,310.2L85.5,316.9L84.3,320.0L83.1,326.6L83.0,329.2L83.9,335.3L83.0,340.2L78.4,345.0L78.5,348.0L81.7,352.2L84.5,358.2L85.4,358.2L88.8,357.4L94.5,354.8L95.7,353.2L96.6,348.4L98.4,345.5L100.6,345.1L103.2,345.7L106.5,345.6L106.4,342.5L108.5,338.7L111.7,335.4L116.1,333.4L119.0,335.2L122.0,339.0L127.9,343.3L128.8,346.1L127.4,351.7L127.9,355.2L132.4,358.2L137.9,358.8L151.2,355.6L155.6,355.8L166.0,361.0L167.4,362.7L164.3,368.2L168.5,367.4L173.9,369.7L180.3,369.7L182.7,371.4L192.0,370.2L200.8,371.0L202.5,369.4L205.3,365.0L210.0,355.2L211.1,349.3L212.1,347.3L220.2,340.0L222.5,338.8L231.6,336.2L240.8,334.9L245.5,335.8L249.8,337.5L253.8,337.7L261.5,331.6L263.9,332.1L267.4,334.5L269.9,334.5L274.9,333.0L278.1,332.7L285.0,333.9L289.7,334.1L294.2,336.9L296.7,337.7L302.1,334.7L308.1,333.9L312.5,330.8L317.9,328.2L323.7,326.5L333.1,326.1L346.2,320.1L348.4,319.7L347.7,312.7L347.1,311.1L341.7,305.3L340.3,298.7L340.5,296.3L341.9,289.8L341.4,286.4L350.9,284.6L365.4,280.1L369.9,277.6L373.4,277.7L376.4,279.1L380.2,279.7L384.5,279.1L390.2,276.2L393.3,269.8L396.2,268.3L402.7,267.7L404.2,267.1L412.1,256.1L414.5,253.3L416.1,250.1L412.2,241.6L412.1,237.4L410.8,236.3L406.0,233.6L403.1,231.5L399.4,226.5L398.2,227.4L390.7,228.6L384.7,225.1L378.3,217.8L373.2,219.5L371.0,219.8L363.3,218.5L354.8,219.3L354.0,217.5L355.7,212.3L347.7,215.8L351.8,221.4L351.9,228.4L348.4,232.5L347.3,232.7L316.9,231.6L306.0,233.5L304.5,234.3L303.4,237.1L302.0,237.5L294.5,236.2L283.8,236.1L278.0,235.2L271.6,238.3L269.4,245.4L267.1,247.7L264.3,248.6L258.2,249.5L251.9,248.3L248.9,248.9L243.0,255.0L246.7,257.4L245.7,259.1L243.6,259.9L237.9,260.0L235.5,260.7L229.6,266.4L226.8,267.5L223.6,267.2L223.6,262.7L220.7,261.7L217.5,262.5L209.1,267.6L206.6,268.3L192.8,268.1L190.9,267.2L189.4,264.9L189.8,261.1L182.9,255.1L175.9,252.4L175.0,251.1L179.1,248.6L180.1,247.5L173.7,244.8L166.7,247.3L162.8,247.7L159.9,245.2L142.2,239.6L139.0,239.6L137.2,240.7L134.7,243.9L131.5,245.2L125.9,244.5L121.9,242.3L121.6,240.9L122.8,238.4L122.1,236.8L116.5,237.8L119.0,243.0L117.9,251.1L119.8,252.0L122.5,256.5L122.7,260.1L121.7,263.8L119.9,267.2L116.8,270.3L114.0,271.1L109.3,278.0L107.0,280.7L104.6,282.7L98.8,285.8L96.0,286.8L87.5,287.7Z " data-id="AT.TR" data-name="Tirol" id="AT.TR"/>
utf-8utf-8<path d="M668.2,70.0L671.0,72.4L679.4,74.0L688.2,77.4L693.0,77.9L697.1,79.8L698.6,81.6L698.4,84.3L695.4,84.1L695.4,90.7L698.7,94.2L702.0,95.2L703.2,100.6L705.7,102.2L706.5,103.6L708.7,111.8L708.9,126.1L709.1,129.8L703.8,126.7L697.4,127.0L695.0,127.8L689.7,133.0L671.2,136.9L668.4,136.2L666.1,134.5L662.1,130.1L655.9,126.6L650.0,126.6L645.9,129.9L645.4,137.6L644.5,141.3L645.7,149.2L644.3,150.7L642.4,155.8L640.1,157.6L642.7,160.0L664.9,173.5L672.0,176.4L676.3,177.5L679.2,178.9L684.6,183.4L684.8,186.5L682.7,189.3L681.4,195.5L681.5,201.3L679.5,205.4L684.4,208.5L698.1,208.4L704.4,212.7L707.1,213.0L710.4,212.3L713.5,210.7L721.3,208.1L726.8,208.4L730.8,207.4L737.3,205.2L742.3,204.2L748.8,197.0L763.1,196.0L768.0,197.0L773.9,201.3L785.1,205.8L790.4,208.9L799.4,209.6L806.0,215.0L808.6,216.1L814.2,216.5L815.9,218.4L817.1,223.2L820.2,228.0L821.6,227.9L825.8,225.9L828.6,226.1L830.9,230.6L830.3,234.1L830.7,235.2L835.8,235.8L839.4,238.0L843.1,244.4L854.0,246.0L858.7,248.5L862.0,248.5L865.0,247.2L870.1,256.0L874.9,259.4L882.5,259.5L885.8,259.0L891.0,256.0L897.4,249.7L895.9,241.7L896.0,238.1L902.2,225.9L897.9,220.8L893.1,216.4L889.6,211.4L888.8,201.3L893.3,200.8L896.9,196.7L897.3,194.8L897.0,188.3L898.7,185.1L900.6,183.2L906.6,179.0L910.3,178.1L914.9,177.8L924.4,180.4L929.3,178.2L938.9,169.8L940.4,165.6L943.4,163.3L949.2,162.2L954.6,159.9L959.6,156.6L962.6,155.4L965.2,155.2L967.4,155.9L973.8,159.5L976.1,157.2L975.5,153.4L975.8,150.9L978.3,149.0L982.5,150.5L986.0,148.4L983.8,145.4L978.3,143.4L974.7,140.4L973.5,137.8L973.2,134.2L969.4,121.9L963.7,118.0L962.3,112.2L961.6,110.9L957.9,108.3L955.2,108.1L953.7,106.6L954.3,102.4L954.7,93.6L956.1,89.0L959.2,84.9L960.5,81.1L962.6,79.6L965.3,74.8L963.4,67.1L958.5,62.7L955.7,51.7L952.2,48.1L950.1,47.9L945.2,49.4L942.7,49.7L940.2,48.9L935.2,46.3L933.2,45.7L926.1,45.6L924.3,44.6L921.3,38.3L908.3,35.3L903.5,33.9L901.2,34.7L896.0,34.3L893.9,35.6L888.1,45.1L884.0,46.5L882.1,45.3L879.3,45.8L860.8,43.5L848.7,44.1L841.6,41.6L827.7,33.6L826.6,30.9L824.5,31.4L824.2,29.7L820.0,29.2L821.3,27.7L817.7,26.5L815.1,26.4L812.0,22.7L800.2,25.6L794.2,25.0L783.7,20.2L772.6,16.7L765.8,12.1L762.9,10.7L756.9,9.1L750.4,6.4L747.4,5.7L741.3,5.7L739.3,3.8L737.7,6.7L735.0,9.8L725.2,12.0L722.6,11.9L723.3,9.6L721.3,2.8L711.1,2.1L703.6,0.0L700.5,2.8L699.0,6.3L699.3,11.0L700.2,16.0L700.6,20.6L698.6,31.0L697.7,34.2L699.7,37.9L698.4,40.8L695.8,41.0L688.8,38.7L682.0,37.9L680.0,38.6L677.8,44.1L677.4,47.2L670.9,52.3L668.7,55.7L668.6,60.1L669.0,65.2L668.7,69.5L668.2,70.0Z M906.8,118.9L908.4,117.3L910.9,117.0L914.6,120.7L915.8,124.0L917.4,126.4L916.7,129.8L916.5,134.4L917.6,136.7L920.8,141.7L911.6,140.3L905.5,140.6L903.6,141.1L899.9,144.7L893.3,143.5L891.4,142.4L884.4,143.0L876.4,142.4L874.7,141.7L872.1,138.2L872.8,133.5L869.4,129.0L869.3,127.5L871.6,123.7L874.9,125.0L878.3,124.4L881.4,121.7L889.8,116.9L894.3,115.0L897.8,112.4L901.9,112.8L906.8,118.9Z " data-id="AT.NO" data-name="Niederösterreich" id="AT.NO"/>
utf-8utf-8<path d="M906.8,118.9L901.9,112.8L897.8,112.4L894.3,115.0L889.8,116.9L881.4,121.7L878.3,124.4L874.9,125.0L871.6,123.7L869.3,127.5L869.4,129.0L872.8,133.5L872.1,138.2L874.7,141.7L876.4,142.4L884.4,143.0L891.4,142.4L893.3,143.5L899.9,144.7L903.6,141.1L905.5,140.6L911.6,140.3L920.8,141.7L917.6,136.7L916.5,134.4L916.7,129.8L917.4,126.4L915.8,124.0L914.6,120.7L910.9,117.0L908.4,117.3L906.8,118.9Z " data-id="AT.WI" data-name="Wien" id="AT.WI"/>
utf-8</g>
</svg>
