<?xml version="1.0" ?>
<!DOCTYPE svg
  PUBLIC '-//W3C//DTD SVG 1.1//EN'
  'http://www.w3.org/Graphics/SVG/1.1/DTD/svg11.dtd'>
<svg enable_background="new 0 0 1000 863" height="863px" pretty_print="True" style="stroke-linejoin: round; stroke:#000; fill: none;" version="1.1" viewBox="0 0 1000 863" width="1000px" xmlns="http://www.w3.org/2000/svg" xmlns:xlink="http://www.w3.org/1999/xlink">
utf-8<defs>
utf-8utf-8<style type="text/css">
<![CDATA[path { fill-rule: evenodd; }]]>utf-8utf-8</style>
utf-8</defs>
utf-8<metadata>
utf-8utf-8<views>
utf-8utf-8utf-8<view h="863.826304397" padding="0" w="1000">
utf-8utf-8utf-8utf-8<proj flip="auto" id="robinson" lon0="150.69837889"/>
utf-8utf-8utf-8utf-8<bbox h="552.11" w="639.89" x="1610.84" y="179.22"/>
utf-8utf-8utf-8</view>
utf-8utf-8</views>
utf-8</metadata>
utf-8<g class="" id="provinces">
utf-8utf-8<path d="M767.2,641.1L768.8,641.5L770.7,639.9L769.4,639.6L769.4,639.6L768.7,639.7L767.6,640.2L766.5,641.3L767.2,641.1Z " data-id="AU.JB" data-name="Jervis Bay Territory" id="AU.JB"/>
utf-8utf-8<path d="M611.9,132.2L610.4,131.0L610.4,132.5L611.9,132.2Z M619.4,128.4L617.7,130.8L619.4,134.7L620.9,133.9L621.2,129.9L619.4,128.4Z M612.0,128.4L611.5,128.6L611.7,128.9L612.0,128.4Z M615.9,127.8L614.5,128.0L614.6,128.1L615.9,127.8Z M610.3,128.9L610.8,126.4L608.1,128.3L607.9,129.3L610.3,128.9Z M616.2,129.3L617.3,125.9L616.3,126.9L616.2,129.3Z M594.3,110.0L593.7,108.5L592.9,110.6L594.3,110.0Z M454.0,109.5L453.1,108.3L453.6,109.4L454.0,109.5Z M456.5,107.9L455.4,107.6L455.8,107.9L456.5,107.9Z M452.9,110.5L452.0,107.6L452.7,111.9L452.9,110.5Z M616.0,81.0L616.6,79.8L615.3,79.3L616.0,81.0Z M610.8,79.8L607.0,79.5L606.8,82.1L608.3,80.5L608.7,82.9L610.8,79.8Z M621.1,78.5L616.9,82.0L616.3,81.1L613.3,82.3L613.7,83.5L612.8,89.6L611.2,92.1L622.8,94.5L624.4,91.5L622.7,92.2L619.0,90.0L621.8,87.5L621.1,85.2L623.3,84.5L625.3,81.6L623.6,80.2L622.9,82.5L620.5,82.2L619.9,80.3L621.1,78.5Z M626.7,77.0L625.9,77.2L625.8,77.5L626.7,77.0Z M609.9,72.4L609.3,71.3L608.2,72.9L608.5,74.5L609.9,72.4Z M612.6,38.8L612.9,39.5L613.3,39.1L612.6,38.8Z M496.2,37.5L495.4,37.5L496.0,37.8L496.2,37.5Z M629.0,37.8L628.9,36.3L628.5,36.6L629.0,37.8Z M527.4,37.8L527.7,36.5L526.0,36.9L527.4,37.8Z M498.1,36.2L497.4,35.8L496.7,36.2L498.1,36.2Z M496.8,35.3L495.7,35.5L495.4,35.8L496.8,35.3Z M587.0,35.4L586.4,34.8L586.1,35.8L587.0,35.4Z M617.3,34.7L615.0,34.3L614.4,36.4L617.3,34.7Z M589.6,32.9L590.5,32.5L588.9,32.2L589.6,32.9Z M609.9,31.3L609.4,31.3L609.5,31.6L609.9,31.3Z M613.2,28.1L613.1,27.8L612.9,28.2L613.2,28.1Z M624.8,28.4L625.5,27.4L624.0,28.9L624.8,28.4Z M592.0,26.1L592.0,26.8L592.2,26.4L592.0,26.1Z M630.6,25.4L630.3,25.9L630.7,25.7L630.6,25.4Z M611.5,26.7L612.8,25.2L612.1,24.9L611.5,26.7Z M532.9,25.1L532.2,27.0L533.8,26.7L532.9,25.1Z M551.7,25.5L553.7,23.5L550.9,24.6L551.7,25.5Z M527.0,23.8L526.9,23.1L526.5,23.5L527.0,23.8Z M614.5,22.8L614.3,22.6L614.3,23.1L614.5,22.8Z M622.4,21.9L623.1,20.2L618.6,23.6L618.3,23.0L615.9,25.1L615.9,26.0L622.4,21.9Z M483.1,20.4L482.5,16.5L478.2,19.9L477.5,21.0L478.3,25.3L476.8,26.5L475.2,25.7L473.6,28.5L474.3,29.7L476.5,29.8L481.0,28.4L486.3,29.9L487.6,27.8L483.8,26.4L484.4,24.4L483.1,22.2L483.1,20.4Z M486.4,15.4L484.3,12.2L483.4,13.5L484.0,15.9L484.9,24.7L488.5,28.0L494.1,31.7L494.4,32.5L503.4,26.5L505.7,23.3L507.7,23.9L507.6,22.0L509.7,19.0L507.6,14.7L504.4,15.3L504.3,13.1L502.5,14.6L502.4,18.4L500.9,14.9L498.7,16.4L498.0,18.6L495.8,16.3L493.9,17.6L487.3,18.1L486.4,15.4Z M542.0,12.4L540.7,12.2L541.1,12.8L542.0,12.4Z M439.5,109.4L433.7,145.9L432.1,155.0L425.6,191.4L420.5,218.7L411.8,264.2L406.5,291.5L399.0,328.0L397.0,337.1L390.8,364.4L384.0,391.7L381.6,400.8L387.9,400.8L476.3,400.8L482.6,400.8L577.3,400.8L583.6,400.8L585.8,393.1L590.0,377.6L595.9,354.4L603.2,323.5L611.6,284.9L616.5,261.7L624.3,223.1L630.5,192.2L638.0,153.2L638.0,153.2L635.4,150.5L633.5,145.7L624.0,140.9L619.1,137.0L613.3,136.4L611.5,137.4L608.2,131.7L606.1,129.1L603.0,127.1L602.9,124.0L597.0,119.8L595.3,117.5L591.4,114.6L589.5,113.8L587.0,110.7L586.3,105.7L588.1,104.6L593.0,98.0L600.1,91.7L601.7,85.6L604.0,82.7L605.6,78.9L604.3,79.4L601.7,77.6L602.1,72.5L603.8,71.4L603.2,69.1L607.4,66.9L608.9,64.7L609.5,65.9L615.2,62.0L614.9,66.9L617.0,66.9L619.0,63.2L618.4,60.3L620.3,60.9L621.8,59.3L618.8,56.6L620.8,53.9L621.7,56.1L622.0,53.1L626.0,49.4L630.5,44.2L630.8,42.8L627.4,38.7L625.4,39.7L626.7,41.3L622.7,34.2L617.2,35.7L615.1,38.4L615.1,39.9L617.4,39.7L618.1,40.6L615.6,45.2L610.3,45.6L609.0,43.6L610.7,40.4L609.5,41.2L608.4,38.2L605.3,40.0L603.2,42.5L601.8,38.7L608.2,33.4L604.0,34.6L606.2,33.1L609.2,29.5L602.6,33.5L601.4,33.2L600.9,35.8L596.9,37.4L595.6,36.6L593.0,39.0L593.5,41.1L592.1,40.3L592.0,42.0L584.3,37.9L583.6,35.3L581.2,33.1L578.9,35.2L576.3,36.0L574.1,35.9L571.1,33.5L569.1,33.0L568.0,31.2L566.7,32.5L566.5,30.5L564.5,31.5L563.4,27.1L554.9,29.4L545.7,25.8L544.1,21.1L542.1,17.6L536.5,21.7L535.5,21.5L532.2,15.3L529.6,15.8L529.1,12.0L527.2,12.8L527.3,15.2L525.2,13.3L525.0,18.9L522.8,14.2L521.0,11.7L520.5,14.1L518.7,13.4L517.0,15.4L519.9,17.4L519.2,18.1L521.2,19.1L522.4,21.9L527.3,20.3L531.5,20.6L535.6,25.3L533.8,29.6L532.9,36.1L534.6,38.0L530.7,36.9L529.3,37.9L527.9,42.2L524.2,40.3L524.0,38.7L520.3,41.6L514.1,40.8L508.7,42.1L505.4,42.1L504.0,41.4L502.2,35.5L500.1,40.6L498.7,38.9L495.0,38.8L495.6,44.1L490.3,44.8L490.5,46.4L492.4,47.1L493.1,48.4L491.2,50.4L489.5,48.4L489.2,45.7L486.8,44.6L484.6,44.8L485.5,45.8L484.1,49.2L484.5,51.8L483.2,52.2L482.1,50.2L479.8,51.4L477.0,58.1L475.2,58.9L473.0,58.5L471.5,64.6L474.5,68.9L470.8,72.6L470.4,72.3L466.8,74.4L464.9,72.7L463.9,73.9L462.1,78.2L461.8,80.5L457.2,87.6L454.8,88.1L451.9,92.4L450.8,98.5L454.1,101.5L454.2,104.3L456.2,107.2L458.0,108.1L457.9,109.2L454.5,108.5L453.4,113.4L455.0,117.3L451.9,114.3L450.2,111.1L445.2,108.8L444.7,109.4L444.6,115.7L442.9,117.3L443.3,112.4L439.8,109.4L439.5,109.4Z M544.7,10.1L544.6,10.1L544.6,10.2L544.7,10.1Z M544.3,10.5L544.5,9.9L543.8,9.5L544.3,10.5Z M630.9,8.7L627.0,14.4L625.8,16.7L623.3,19.0L624.5,19.8L629.5,12.7L630.9,8.7Z M540.6,7.4L540.4,8.0L540.5,8.0L540.6,7.4Z M534.9,9.2L532.2,9.0L534.3,17.2L535.0,13.0L534.9,9.2Z " data-id="AU.NT" data-name="Northern Territory" id="AU.NT"/>
utf-8utf-8<path d="M159.7,614.3L160.3,613.2L159.8,613.2L159.7,614.3Z M34.6,563.3L34.4,561.9L34.4,563.9L34.6,563.3Z M21.4,465.9L22.7,464.4L21.9,465.0L21.4,465.9Z M24.7,387.3L22.9,391.2L23.9,399.3L24.6,399.9L25.7,404.1L27.0,401.8L24.7,387.3Z M28.3,381.9L30.3,376.7L30.2,375.4L28.3,381.9Z M103.4,265.7L105.1,263.3L105.1,261.6L101.3,264.7L103.4,265.7Z M306.9,155.5L305.5,155.3L306.1,155.8L306.9,155.5Z M303.9,154.6L303.5,153.0L303.4,153.0L303.9,154.6Z M303.7,150.7L303.8,149.9L303.7,150.1L303.7,150.7Z M298.7,150.3L297.9,150.2L298.3,150.5L298.7,150.3Z M300.8,150.0L301.0,149.3L300.4,150.0L300.8,150.0Z M300.3,150.0L299.8,149.2L299.8,149.8L300.3,150.0Z M324.3,149.1L324.1,148.2L324.0,148.1L324.3,149.1Z M308.9,145.9L308.5,145.9L308.2,145.8L308.9,145.9Z M316.8,145.2L317.3,146.3L317.9,146.3L316.8,145.2Z M322.1,145.2L321.7,145.4L321.8,145.8L322.1,145.2Z M308.0,145.4L307.2,144.5L307.6,146.4L308.0,145.4Z M308.7,143.4L308.6,142.9L308.5,143.2L308.7,143.4Z M321.5,142.7L321.7,143.4L321.9,143.4L321.5,142.7Z M306.4,142.1L306.1,142.6L306.4,142.4L306.4,142.1Z M313.8,142.0L315.2,142.8L315.2,142.1L313.8,142.0Z M310.7,141.2L311.7,141.8L311.7,141.7L310.7,141.2Z M310.1,140.9L309.3,140.8L309.4,141.4L310.1,140.9Z M304.4,140.0L303.7,140.2L303.9,140.4L304.4,140.0Z M309.6,139.7L309.2,139.8L309.8,140.5L309.6,139.7Z M334.4,136.6L333.2,137.4L332.8,138.2L334.4,136.6Z M336.4,119.6L333.6,122.3L334.5,122.8L336.4,119.6Z M342.5,120.3L343.0,119.4L342.4,119.2L342.5,120.3Z M419.9,117.5L418.8,114.1L418.5,116.0L419.9,117.5Z M346.0,112.0L345.4,113.4L345.9,113.6L346.0,112.0Z M426.2,113.3L425.4,110.0L424.5,111.7L426.2,113.3Z M349.1,100.4L349.2,99.4L349.1,99.7L349.1,100.4Z M354.2,99.3L351.0,102.6L352.3,103.4L354.2,99.3Z M362.1,99.4L361.9,98.2L361.3,98.6L362.1,99.4Z M349.2,97.8L349.3,96.8L348.9,97.0L349.2,97.8Z M366.9,90.3L366.8,89.8L366.6,90.3L366.9,90.3Z M388.5,83.9L386.1,83.4L386.3,84.2L388.5,83.9Z M333.4,549.5L343.7,521.8L347.1,512.5L356.6,484.7L359.7,475.4L368.4,447.4L371.2,438.1L379.1,410.1L381.6,400.8L384.0,391.7L390.8,364.4L397.0,337.1L399.0,328.0L406.5,291.5L411.8,264.2L420.5,218.7L425.6,191.4L432.1,155.0L433.7,145.9L439.5,109.4L439.4,109.4L437.8,108.7L434.0,108.3L430.5,107.1L427.0,107.4L426.0,109.4L426.4,112.5L424.3,114.1L423.7,110.4L420.4,114.4L420.3,118.3L421.6,121.2L421.0,122.9L419.3,118.5L417.5,118.9L417.2,122.9L416.7,120.1L417.4,117.4L421.3,107.8L422.4,106.2L418.2,101.6L416.8,101.9L414.9,98.9L411.6,91.4L408.0,88.2L407.1,88.2L407.1,85.5L404.8,85.7L401.3,84.5L399.7,85.5L399.3,82.2L396.9,79.5L394.1,81.9L392.0,81.2L393.2,86.2L391.7,85.9L387.1,92.7L385.0,89.7L385.4,87.3L387.4,85.2L386.2,85.1L377.6,88.9L377.5,84.9L374.8,84.7L376.2,85.9L374.0,88.7L376.3,88.8L376.8,90.4L376.0,92.4L374.7,92.9L373.6,96.0L372.2,97.0L373.2,99.7L371.3,100.3L369.9,103.4L368.9,98.9L367.4,98.7L365.3,99.9L363.8,103.0L365.0,96.1L366.3,94.3L363.7,93.1L363.5,98.0L362.6,100.5L361.1,99.4L358.9,103.2L357.5,99.9L354.3,102.8L354.7,104.3L352.5,108.5L355.0,109.9L351.9,111.3L355.0,112.8L356.5,116.8L353.2,116.2L350.7,113.6L350.1,115.7L348.4,112.6L346.3,116.4L344.9,115.5L343.7,118.7L348.1,117.1L344.8,118.9L346.9,120.3L348.5,120.3L348.4,124.9L345.6,124.3L343.9,122.1L342.0,122.1L340.8,120.3L337.0,126.1L333.0,125.7L331.4,126.6L331.3,129.5L330.3,135.8L332.0,137.8L335.3,134.0L338.1,134.0L334.9,136.4L333.1,141.9L330.8,142.1L330.9,140.6L328.3,144.9L328.3,147.7L332.2,147.6L338.0,149.7L329.7,149.3L328.2,148.3L325.7,149.6L323.9,149.4L317.6,144.7L318.6,146.1L318.5,149.1L317.0,147.9L315.8,149.9L316.0,147.6L313.3,145.8L315.6,145.1L310.7,143.6L309.4,144.6L312.6,148.0L310.7,150.3L308.7,149.4L309.5,152.0L305.3,152.1L307.0,153.9L309.3,153.4L306.5,156.2L308.4,156.5L310.7,158.5L311.4,162.0L315.9,160.7L313.2,165.4L311.5,165.2L310.8,168.9L310.3,167.8L306.9,165.2L304.2,177.2L304.2,180.2L301.8,174.2L301.0,173.8L297.7,160.2L294.5,154.6L296.2,148.9L292.9,152.5L288.9,157.5L289.3,159.0L285.5,159.9L283.6,161.0L284.0,164.1L280.1,164.5L276.2,167.9L272.5,174.2L271.7,177.2L271.4,186.3L270.8,190.0L274.0,191.0L272.8,195.3L269.2,197.3L264.8,201.5L257.3,206.6L256.4,209.8L254.1,210.8L252.5,215.5L247.2,223.4L244.2,226.8L234.7,234.2L220.3,240.3L217.2,241.3L209.5,242.4L204.9,243.8L201.7,245.5L199.2,243.7L193.7,242.7L187.8,245.1L183.6,250.6L172.7,253.2L172.0,252.6L167.4,253.2L162.3,256.6L159.5,259.9L147.9,262.8L144.6,261.6L144.2,259.4L136.7,262.4L135.4,260.6L136.1,257.7L134.6,259.9L126.7,265.3L122.7,266.3L121.7,265.8L118.0,269.7L113.5,272.1L110.5,276.1L107.0,277.7L101.3,283.4L95.7,285.6L84.7,290.4L81.5,292.0L77.6,297.7L76.6,300.4L74.5,303.2L72.2,308.6L70.8,307.9L67.0,309.7L68.4,304.0L67.0,304.7L70.9,291.4L68.5,291.3L65.1,294.8L60.1,304.7L58.5,306.6L56.6,310.1L55.6,310.8L55.4,312.9L56.9,316.7L56.6,324.2L54.8,327.0L54.2,332.5L51.8,336.6L50.0,338.0L44.6,346.1L42.8,349.7L42.7,352.3L41.1,355.0L40.4,359.3L40.8,362.4L42.5,365.3L43.4,373.6L43.1,375.9L45.2,378.8L46.6,386.4L49.0,392.2L49.7,395.3L51.7,397.2L50.5,400.6L49.4,400.1L47.7,409.9L44.5,412.6L42.2,409.5L42.1,404.0L42.7,399.6L40.8,404.0L37.6,406.0L37.4,404.7L40.2,397.8L37.8,391.2L36.6,390.4L37.0,388.0L33.6,393.0L34.9,403.2L36.6,405.6L40.0,409.2L39.3,413.7L37.2,415.6L33.4,417.9L33.5,415.2L31.7,415.6L32.9,410.1L32.0,409.0L30.4,413.4L31.7,405.0L28.7,408.0L29.4,400.7L27.2,405.7L25.7,404.9L26.9,411.7L29.5,415.4L33.8,424.9L36.7,435.3L37.2,438.7L36.9,445.6L34.9,449.6L34.8,453.9L35.8,458.3L37.0,459.2L40.1,470.4L38.9,473.8L39.6,477.1L42.2,481.8L42.5,491.9L40.3,496.6L38.8,503.0L37.3,506.3L37.3,508.5L36.5,511.1L37.1,512.1L35.8,519.1L36.2,524.8L35.9,527.1L36.7,528.4L37.9,539.5L38.8,542.9L39.6,551.7L38.7,555.8L32.4,572.2L32.7,574.0L30.6,574.4L30.5,577.6L29.7,574.8L32.4,571.0L28.8,574.9L27.0,584.4L24.5,591.3L18.9,597.2L12.4,600.8L5.5,600.9L4.9,601.6L1.6,611.6L1.7,619.0L7.0,618.3L11.0,621.2L13.7,624.2L16.8,631.9L24.3,633.8L25.3,636.4L27.6,637.5L31.6,636.9L43.4,636.9L47.9,639.7L52.1,637.7L55.4,639.6L55.9,637.6L54.6,637.1L66.6,633.9L67.5,633.9L76.3,627.3L78.6,624.7L82.4,623.3L82.2,621.9L84.3,621.7L88.7,623.0L91.4,622.3L93.0,623.0L94.3,620.8L97.4,620.5L97.1,618.8L102.7,612.7L108.1,609.6L113.8,608.0L114.9,608.7L118.9,608.4L120.9,609.0L124.4,608.3L125.4,607.3L130.7,607.0L132.7,606.2L134.8,606.6L138.1,605.9L139.1,606.5L143.3,605.1L146.8,605.3L149.6,606.7L152.5,607.3L158.1,605.4L158.5,608.1L157.8,610.5L161.4,610.6L162.7,608.5L168.1,608.2L168.7,608.9L171.3,607.1L174.7,607.4L180.3,606.4L181.0,606.8L181.1,610.2L183.8,609.6L187.4,607.1L190.0,608.4L195.9,604.9L197.4,602.5L204.5,596.3L213.0,585.5L217.4,582.9L226.7,581.2L231.6,579.4L235.6,576.7L246.9,572.4L248.5,571.9L261.6,564.8L269.5,565.0L275.9,565.9L284.3,565.6L289.8,564.8L295.8,563.2L301.9,560.8L307.8,559.8L312.9,558.1L324.2,553.6L333.4,549.5L333.4,549.5Z " data-id="AU.WA" data-name="Western Australia" id="AU.WA"/>
utf-8utf-8<path d="M737.6,645.6L735.9,643.5L734.8,640.1L725.0,645.6L723.2,648.3L720.0,654.9L721.5,655.7L720.6,659.4L722.6,660.8L725.3,658.0L727.4,653.1L730.4,649.9L737.6,645.6Z " data-id="AU.CT" data-name="Australian Capital Territory" id="AU.CT"/>
utf-8utf-8<path d="M769.5,639.3L770.5,637.1L771.8,639.3L774.0,636.9L773.0,636.5L773.2,633.0L777.5,629.8L780.1,626.0L779.1,624.4L780.9,623.7L786.5,616.9L793.2,612.6L792.5,612.2L797.4,608.7L797.8,606.7L799.5,605.4L803.0,599.9L802.2,598.8L809.3,591.9L811.3,590.6L812.4,591.2L817.0,585.7L821.9,581.6L822.1,581.0L827.4,578.5L832.4,577.4L830.3,575.9L833.7,574.7L837.1,572.2L844.0,569.2L847.9,560.2L851.5,556.2L854.9,554.0L860.3,548.4L861.1,546.4L865.4,541.1L867.0,539.9L868.8,535.9L871.0,533.9L873.8,528.8L873.1,527.3L873.9,524.7L878.2,517.8L879.1,516.9L887.4,505.2L888.6,504.0L892.8,497.2L894.0,494.4L896.0,491.7L897.0,487.8L902.5,480.3L907.6,475.9L910.1,470.1L909.7,469.1L910.7,465.3L913.5,457.8L912.7,457.9L912.4,457.1L907.2,459.6L905.3,460.0L902.2,462.1L896.2,461.7L893.6,462.6L888.3,460.3L883.0,463.3L876.7,466.0L873.9,467.9L874.8,471.9L871.3,476.9L866.1,478.3L864.8,476.7L860.7,478.6L857.0,482.7L854.3,483.4L855.4,477.3L852.0,475.2L849.8,471.2L835.6,467.8L834.2,467.7L824.4,469.1L823.0,469.6L821.2,468.0L818.1,468.8L816.6,470.5L807.2,475.4L806.2,477.2L803.0,479.4L636.4,479.4L625.6,479.4L622.6,487.6L613.3,512.2L603.6,536.7L600.2,544.9L589.8,569.5L586.2,577.7L575.2,602.4L571.5,610.5L571.7,611.3L576.6,612.5L581.0,614.6L581.6,615.6L588.6,613.4L592.8,612.9L593.6,614.5L596.2,615.0L597.0,619.0L598.2,618.9L595.5,624.0L596.3,630.4L599.8,629.3L604.1,625.9L604.5,627.9L610.3,628.5L613.2,631.5L609.7,641.1L612.4,642.6L611.3,645.5L612.3,646.7L617.7,650.3L619.5,652.0L619.8,653.6L622.5,658.0L622.2,660.7L624.4,665.0L626.7,666.6L630.2,665.0L635.6,659.4L645.5,658.7L648.1,658.8L651.9,662.5L654.5,662.1L654.8,663.3L659.3,664.4L661.2,664.2L665.2,662.4L674.0,666.0L676.6,665.8L675.6,667.6L676.1,669.4L677.4,668.5L678.2,664.9L680.9,664.6L688.3,661.5L689.2,662.9L692.2,661.9L697.4,667.6L695.6,672.4L694.7,673.3L695.3,675.4L694.4,677.5L694.9,679.4L690.6,683.9L692.8,684.6L720.2,703.2L720.2,703.2L723.5,696.8L725.9,694.3L724.1,692.2L726.3,690.8L727.1,687.7L729.0,685.1L735.2,678.6L739.1,672.8L740.8,671.5L742.7,667.0L743.2,664.6L745.2,663.6L750.3,656.3L756.7,651.2L758.3,648.8L761.4,646.0L761.9,645.0L766.5,641.3L766.5,641.3L767.6,640.2L768.7,639.7L769.4,639.6L769.5,639.3Z M737.6,645.6L730.4,649.9L727.4,653.1L725.3,658.0L722.6,660.8L720.6,659.4L721.5,655.7L720.0,654.9L723.2,648.3L725.0,645.6L734.8,640.1L735.9,643.5L737.6,645.6Z " data-id="AU.NS" data-name="New South Wales" id="AU.NS"/>
utf-8utf-8<path d="M478.7,651.8L474.3,652.6L472.0,652.0L470.8,652.8L465.7,654.2L459.4,655.2L454.3,656.5L450.9,660.6L451.6,661.8L457.6,664.3L461.2,663.7L462.5,664.1L467.9,663.2L469.8,664.8L473.6,662.7L473.8,661.5L475.8,660.3L480.0,659.4L483.7,660.8L485.5,659.5L485.1,656.0L481.0,657.7L479.7,657.8L479.5,656.2L477.4,654.6L478.7,651.8Z M459.3,640.9L458.1,640.7L459.0,640.9L459.3,640.9Z M454.1,638.3L453.9,635.0L453.1,635.5L454.1,638.3Z M431.9,604.1L432.9,602.2L432.5,602.4L431.9,604.1Z M428.4,565.7L430.8,564.0L428.5,564.4L428.4,565.7Z M625.6,479.4L629.0,469.6L635.7,449.9L638.9,440.1L648.1,410.7L651.0,400.8L592.1,400.8L583.6,400.8L577.3,400.8L482.6,400.8L476.3,400.8L387.9,400.8L381.6,400.8L379.1,410.1L371.2,438.1L368.4,447.4L359.7,475.4L356.6,484.7L347.1,512.5L343.7,521.8L333.4,549.5L335.6,549.2L345.9,547.8L350.8,547.6L355.2,546.9L358.2,547.1L368.6,546.8L374.8,547.3L378.8,546.0L383.6,544.0L390.2,547.4L394.5,550.5L400.5,558.1L406.6,557.2L409.6,555.9L414.5,556.5L419.6,562.3L427.3,562.8L426.1,561.5L428.8,562.1L432.1,560.5L432.7,564.1L434.9,565.8L431.6,571.8L436.3,569.8L438.6,569.4L440.3,573.0L439.8,575.3L436.4,578.5L437.1,576.5L434.8,576.2L432.1,581.9L434.6,583.3L433.7,584.8L434.1,588.0L441.5,587.5L443.2,588.1L441.6,600.1L444.2,604.6L446.1,610.4L443.9,613.6L445.1,615.8L443.1,623.3L444.0,626.4L441.5,626.8L439.5,623.3L440.0,621.3L435.9,625.7L438.9,624.9L440.3,628.0L443.3,633.2L443.1,635.1L445.4,633.5L448.1,633.0L449.6,636.6L451.0,635.8L453.9,629.6L452.8,630.6L448.7,631.7L451.1,629.7L452.0,626.9L454.7,624.1L458.2,622.7L458.3,624.1L469.1,612.4L471.5,610.7L482.2,604.9L486.3,603.5L484.6,603.3L486.7,601.6L487.5,602.8L491.0,602.3L494.2,599.8L499.5,594.0L504.0,587.4L511.7,583.5L512.7,583.5L516.2,576.0L515.7,575.7L517.8,571.3L518.0,575.9L516.7,583.9L517.6,586.1L516.9,587.4L510.9,590.2L510.1,594.1L510.3,596.5L502.1,604.5L495.2,612.3L492.7,613.7L488.1,626.3L483.0,634.2L482.1,634.9L473.6,634.2L472.1,635.5L470.3,638.9L465.9,643.4L473.0,642.8L480.6,639.5L482.7,639.8L484.7,641.2L487.1,639.7L492.6,631.9L494.3,630.0L496.5,625.5L503.3,618.1L503.8,616.0L505.1,614.7L506.5,616.6L506.5,623.3L507.1,623.7L507.7,627.8L507.4,630.9L499.8,644.9L495.6,648.0L489.9,651.1L490.2,654.2L492.2,653.7L498.7,653.1L501.6,651.2L508.9,650.4L505.7,649.0L509.2,648.7L510.5,647.0L513.3,646.7L515.7,645.5L518.0,645.8L518.1,649.0L514.4,649.8L516.2,652.5L514.7,654.6L513.3,653.7L514.2,650.9L512.7,649.6L509.3,652.4L511.4,654.7L513.7,658.4L515.7,665.0L515.0,669.0L515.0,664.3L514.5,662.3L508.6,651.9L508.6,653.5L511.8,657.8L513.8,662.5L514.5,668.4L514.4,672.9L512.1,683.4L508.7,687.0L505.5,688.4L505.2,693.7L504.0,694.5L504.0,696.8L505.2,702.6L507.0,703.1L506.9,705.5L507.9,706.8L508.1,713.5L511.9,717.9L518.1,717.7L518.4,717.8L525.3,704.7L538.7,678.0L558.0,638.1L564.2,624.9L571.5,610.0L571.5,610.5L575.2,602.4L586.2,577.7L589.8,569.5L600.2,544.9L603.6,536.7L613.3,512.2L622.6,487.6L625.6,479.4Z " data-id="AU.SA" data-name="South Australia" id="AU.SA"/>
utf-8utf-8<path d="M627.0,736.0L627.3,737.4L629.8,736.3L627.0,736.0Z M605.8,730.0L605.6,728.2L603.6,728.5L601.0,730.3L605.8,730.0Z M609.1,724.9L607.7,724.9L606.7,727.3L611.3,726.0L609.1,724.9Z M571.5,610.5L571.5,610.0L564.2,624.9L558.0,638.1L538.7,678.0L525.3,704.7L518.4,717.8L518.4,717.9L524.0,724.4L522.4,726.5L525.4,726.8L525.7,727.9L530.4,723.8L532.6,723.2L536.3,723.8L539.5,726.9L544.8,726.0L546.8,726.5L550.6,731.6L555.1,733.1L557.1,736.5L559.2,736.3L561.4,738.1L566.1,737.0L571.1,734.6L576.4,731.0L576.7,730.4L589.3,724.1L593.4,724.0L596.7,719.6L593.2,721.0L591.4,719.1L598.7,716.7L603.7,713.6L606.5,712.8L607.4,718.6L606.9,719.6L601.0,725.1L596.3,726.3L595.1,725.6L597.4,729.8L604.9,727.2L607.0,723.8L609.3,722.6L612.7,722.8L612.3,726.5L608.8,728.0L606.2,730.5L608.7,732.0L608.6,733.8L612.4,733.2L614.1,734.0L612.4,740.3L617.4,738.0L619.0,741.2L618.4,742.6L618.9,746.6L624.2,740.7L624.5,737.9L621.5,739.9L620.3,736.3L625.4,735.9L637.4,733.1L640.2,731.4L654.3,722.1L660.5,718.4L665.5,715.9L669.9,714.1L675.4,712.5L679.7,711.6L686.3,711.2L688.7,711.6L697.1,710.7L698.3,710.3L705.8,710.5L710.8,708.3L718.0,704.3L719.5,703.8L720.2,703.2L692.8,684.6L690.6,683.9L694.9,679.4L694.4,677.5L695.3,675.4L694.7,673.3L695.6,672.4L697.4,667.6L692.2,661.9L689.2,662.9L688.3,661.5L680.9,664.6L678.2,664.9L677.4,668.5L676.1,669.4L675.6,667.6L676.6,665.8L674.0,666.0L665.2,662.4L661.2,664.2L659.3,664.4L654.8,663.3L654.5,662.1L651.9,662.5L648.1,658.8L645.5,658.7L635.6,659.4L630.2,665.0L626.7,666.6L624.4,665.0L622.2,660.7L622.5,658.0L619.8,653.6L619.5,652.0L617.7,650.3L612.3,646.7L611.3,645.5L612.4,642.6L609.7,641.1L613.2,631.5L610.3,628.5L604.5,627.9L604.1,625.9L599.8,629.3L596.3,630.4L595.5,624.0L598.2,618.9L597.0,619.0L596.2,615.0L593.6,614.5L592.8,612.9L588.6,613.4L581.6,615.6L581.0,614.6L576.6,612.5L571.7,611.3L571.5,610.5Z " data-id="AU.VI" data-name="Victoria" id="AU.VI"/>
utf-8utf-8<path d="M918.9,437.9L916.2,439.9L914.2,446.1L915.4,445.9L919.5,439.0L918.9,437.9Z M918.2,436.3L919.4,428.5L918.0,432.9L918.2,436.3Z M936.7,367.7L936.9,366.6L933.3,369.7L933.8,370.5L933.1,375.3L930.7,377.6L927.4,381.8L926.5,384.2L922.5,389.9L922.7,394.4L924.5,394.5L924.9,392.1L928.3,386.8L932.3,381.3L936.7,367.7Z M900.2,344.9L899.5,342.1L899.2,343.3L900.2,344.9Z M895.0,334.1L894.4,334.7L897.0,342.7L899.0,341.5L896.0,334.1L895.0,334.1Z M894.5,324.1L894.1,324.1L894.1,324.3L894.5,324.1Z M872.1,307.3L873.3,305.6L872.8,305.0L872.1,307.3Z M891.7,303.8L890.3,301.7L890.0,304.4L891.7,303.8Z M877.4,301.7L878.7,297.2L877.6,298.6L877.4,301.7Z M884.4,295.3L884.6,296.2L885.0,296.0L884.4,295.3Z M889.8,287.2L888.6,287.0L888.5,287.1L889.8,287.2Z M877.8,278.6L877.7,277.8L877.5,278.1L877.8,278.6Z M884.6,270.5L884.7,270.1L884.4,270.1L884.6,270.5Z M874.3,268.4L875.1,267.9L874.3,267.7L874.3,268.4Z M874.0,267.3L873.8,267.9L874.1,267.4L874.0,267.3Z M879.1,266.4L878.9,266.1L878.2,266.8L879.1,266.4Z M871.7,265.1L871.5,264.7L871.1,264.8L871.7,265.1Z M872.2,264.6L872.0,264.1L871.6,264.4L872.2,264.6Z M876.4,263.3L876.5,263.0L876.3,263.1L876.4,263.3Z M869.8,261.5L869.5,261.3L869.2,261.8L869.8,261.5Z M864.9,254.2L865.1,254.0L864.6,253.9L864.9,254.2Z M869.4,250.9L868.3,248.1L866.6,251.3L869.4,250.9Z M826.7,220.4L824.7,221.9L825.1,222.2L826.7,220.4Z M823.3,210.7L822.3,209.4L822.0,211.4L823.3,210.7Z M817.1,197.2L816.4,198.7L813.8,197.8L816.9,204.3L818.7,200.9L818.1,200.6L818.6,197.6L817.1,197.2Z M816.0,196.1L815.8,195.4L815.5,195.8L816.0,196.1Z M817.1,190.4L816.5,189.7L816.4,189.9L817.1,190.4Z M671.0,167.9L670.2,165.0L668.2,168.0L671.0,167.9Z M677.2,150.8L674.8,149.4L667.5,151.6L664.8,154.4L663.1,158.8L671.3,155.0L673.7,151.7L674.7,153.5L678.0,150.7L677.2,150.8Z M817.4,104.6L817.5,104.0L817.1,103.7L817.4,104.6Z M806.8,99.7L806.5,99.8L806.4,99.9L806.8,99.7Z M792.2,91.9L792.1,91.1L791.3,91.6L792.2,91.9Z M790.7,91.5L791.9,90.5L791.6,90.4L790.7,91.5Z M782.4,32.4L782.3,32.1L782.2,32.5L782.4,32.4Z M795.9,23.8L795.9,23.9L796.0,23.9L795.9,23.8Z M638.0,153.2L630.5,192.2L624.3,223.1L616.5,261.7L611.6,284.9L603.2,323.5L595.9,354.4L590.0,377.6L585.8,393.1L583.6,400.8L592.1,400.8L651.0,400.8L648.1,410.7L638.9,440.1L635.7,449.9L629.0,469.6L625.6,479.4L636.4,479.4L803.0,479.4L806.2,477.2L807.2,475.4L816.6,470.5L818.1,468.8L821.2,468.0L823.0,469.6L824.4,469.1L834.2,467.7L835.6,467.8L849.8,471.2L852.0,475.2L855.4,477.3L854.3,483.4L857.0,482.7L860.7,478.6L864.8,476.7L866.1,478.3L871.3,476.9L874.8,471.9L873.9,467.9L876.7,466.0L883.0,463.3L888.3,460.3L893.6,462.6L896.2,461.7L902.2,462.1L905.3,460.0L907.2,459.6L912.4,457.1L912.4,457.1L912.9,451.9L911.9,452.0L914.3,448.3L913.0,444.5L913.3,440.0L912.0,438.8L910.9,434.2L912.1,433.4L911.1,431.6L912.6,429.9L916.0,428.2L917.2,421.7L917.3,417.8L919.0,412.8L920.1,411.1L919.2,410.1L919.7,408.2L924.8,399.4L923.6,399.1L923.6,396.5L922.2,396.2L920.7,392.9L922.2,388.9L923.3,388.1L922.3,386.3L923.3,385.7L924.1,382.4L922.5,381.0L919.1,381.0L917.8,379.4L918.2,377.8L917.4,368.6L914.7,367.4L912.0,364.6L910.7,361.9L909.7,352.2L907.8,352.2L907.9,349.0L905.5,347.9L905.4,351.0L904.1,349.8L902.6,351.0L902.0,348.5L899.9,347.1L896.5,343.5L895.5,339.9L892.6,336.5L890.8,337.2L891.2,334.7L890.3,330.4L891.9,328.8L891.0,325.4L891.9,323.3L891.8,320.4L892.8,320.3L895.2,314.3L894.5,313.2L895.1,311.0L892.7,310.8L895.1,308.4L890.9,305.7L890.3,307.3L890.8,312.1L889.5,310.4L882.7,305.3L882.2,302.8L879.3,300.6L877.6,305.1L877.2,304.9L877.9,310.6L877.1,312.0L876.7,310.0L873.9,306.3L873.4,307.2L870.2,309.0L871.9,305.1L869.8,303.6L869.9,296.4L869.4,291.1L870.5,289.2L870.1,283.1L867.8,282.6L869.2,277.9L867.3,275.7L868.9,272.3L867.6,269.8L866.7,269.7L862.2,265.8L861.9,264.4L859.9,262.6L858.9,258.3L863.5,255.4L863.2,256.7L864.6,257.7L865.5,256.1L863.1,249.8L859.6,248.3L858.6,245.9L854.8,248.1L854.1,247.4L853.8,242.9L845.2,239.9L844.9,236.3L843.3,235.7L843.3,239.4L841.1,239.3L839.8,236.0L838.4,226.5L838.0,225.8L834.4,228.3L831.7,228.0L830.1,226.5L830.3,223.9L826.3,225.6L824.0,223.1L820.0,221.3L817.3,219.1L814.4,213.7L815.7,210.0L817.5,206.4L816.4,205.1L812.1,198.3L812.3,195.1L816.0,188.2L816.0,186.1L818.1,182.2L817.3,179.3L817.6,176.9L815.8,167.6L815.8,165.4L817.6,161.8L813.8,163.4L812.2,158.3L811.3,157.7L808.0,149.8L810.0,145.5L810.6,141.6L809.7,134.1L809.7,127.6L809.0,126.9L809.3,123.1L812.0,118.9L810.1,119.1L809.9,117.2L811.8,111.5L810.8,108.5L806.6,107.2L804.7,102.8L802.4,102.4L801.7,101.2L799.9,101.2L799.0,97.5L799.8,95.6L798.5,96.2L799.0,93.6L796.9,91.0L792.3,94.9L790.9,93.4L788.8,96.5L783.2,100.1L780.4,98.0L779.1,92.2L779.3,86.8L777.0,80.6L779.7,71.9L778.5,69.2L779.0,65.7L779.3,58.5L780.8,56.1L776.9,56.7L778.5,49.7L776.4,48.8L775.7,44.5L771.9,43.0L772.6,38.8L776.0,33.9L771.3,32.6L768.6,29.7L769.7,19.0L770.3,18.2L768.6,7.8L766.2,5.1L763.1,6.8L765.0,3.1L762.0,1.5L761.2,3.5L755.1,6.9L753.4,17.0L747.2,32.9L748.8,35.1L748.5,36.2L745.4,33.5L737.1,48.1L737.6,49.1L739.5,47.5L741.9,49.6L744.4,49.2L741.9,51.5L744.1,52.9L746.0,53.1L743.6,55.6L743.0,53.1L741.6,51.8L739.3,56.4L736.5,58.2L735.3,59.9L736.7,67.3L731.7,75.5L729.7,80.8L729.3,85.4L731.2,89.7L731.1,90.9L727.9,99.4L728.4,115.3L727.8,115.3L722.7,125.4L720.8,129.9L718.7,136.5L718.1,137.4L718.4,141.2L716.0,144.9L712.4,153.7L710.2,157.5L707.1,160.0L705.9,162.3L702.9,165.7L701.7,170.2L695.5,178.7L694.4,178.9L689.7,181.9L683.3,183.6L677.6,183.6L676.5,181.5L669.3,177.6L665.9,174.8L663.9,174.6L661.9,172.7L661.3,170.6L662.0,166.1L660.1,164.6L658.5,162.2L656.2,162.0L652.3,160.2L651.8,159.5L648.0,159.8L645.5,158.6L644.1,158.7L639.0,155.1L638.0,153.2L638.0,153.2Z M755.0,0.0L756.4,2.1L758.8,0.4L755.0,0.0Z " data-id="AU.QL" data-name="Queensland" id="AU.QL"/>
utf-8utf-8<path d="M569.0,855.2L569.9,852.2L566.7,854.8L565.1,854.9L564.5,857.9L569.0,855.2Z M573.1,851.7L574.3,847.5L571.9,849.3L571.1,851.9L573.1,851.7Z M599.0,836.7L599.1,835.2L595.9,836.3L596.2,838.5L599.0,836.7Z M607.4,829.3L607.8,828.3L606.2,827.9L607.4,829.3Z M553.5,861.8L558.0,858.7L559.0,856.8L563.0,854.6L564.9,852.0L564.8,849.4L565.8,850.7L567.6,849.5L566.7,852.3L568.0,852.7L571.5,848.5L573.0,847.7L573.0,846.3L577.0,843.7L578.2,840.0L578.7,842.8L577.1,845.2L578.4,846.2L580.2,845.0L580.7,842.6L585.9,843.1L586.0,845.3L583.4,846.6L583.0,845.7L580.7,846.2L580.4,847.5L581.9,848.3L580.3,849.0L580.4,851.8L584.3,848.9L585.8,849.2L588.7,845.3L589.5,841.8L588.0,842.6L593.8,837.5L594.7,834.1L597.0,833.7L603.5,826.0L610.1,820.0L611.8,820.0L610.0,822.2L610.3,824.6L612.3,823.1L612.0,821.6L615.0,817.6L615.5,815.2L617.3,813.9L620.3,809.5L623.2,803.6L625.9,801.3L627.3,798.0L628.9,796.4L630.9,792.8L630.6,790.7L627.6,788.0L624.2,791.0L621.5,792.0L616.8,791.5L614.2,793.5L611.0,794.2L610.5,793.3L605.8,794.9L603.3,794.2L595.5,796.5L591.2,798.5L590.5,798.2L585.8,799.1L580.9,797.7L578.4,795.7L576.4,795.2L573.1,791.8L573.6,790.8L569.0,789.5L565.4,790.2L564.7,789.2L558.1,787.2L556.8,789.9L551.6,794.7L549.5,800.5L547.4,811.4L546.6,812.7L547.1,816.5L548.2,819.4L546.8,823.4L544.8,825.2L548.1,824.0L547.0,826.3L548.3,829.1L549.3,828.9L544.5,833.0L545.9,830.2L543.9,827.0L544.0,825.2L538.6,835.6L537.6,844.6L539.2,844.9L538.5,853.0L540.0,852.1L545.9,852.8L545.8,854.7L543.7,855.4L541.0,854.3L537.9,859.6L541.6,859.3L543.3,857.9L545.5,858.8L549.6,858.9L550.0,859.7L553.5,861.8Z M566.1,786.6L564.3,785.1L561.8,787.5L566.1,786.6Z M634.8,784.0L637.3,781.6L633.8,782.5L634.8,784.0Z M564.8,780.0L563.7,780.9L562.0,781.6L564.8,780.0Z M566.7,780.9L565.6,780.0L565.9,781.1L566.7,780.9Z M642.5,778.3L642.1,776.9L638.4,778.2L637.2,777.9L633.6,779.1L633.2,780.0L639.5,781.1L642.5,778.3Z M632.1,776.5L631.5,776.9L632.4,777.3L632.1,776.5Z M633.3,771.4L634.7,769.9L634.8,769.5L633.3,771.4Z M643.5,761.4L639.5,764.5L636.6,765.8L639.0,766.2L636.9,769.7L637.9,770.1L637.1,774.7L638.7,775.8L642.9,773.9L646.9,767.9L645.1,767.7L643.5,761.4Z M555.4,770.3L557.9,768.5L562.0,760.5L562.2,759.2L559.9,758.0L558.9,759.9L556.3,761.1L552.4,766.8L552.7,768.1L551.1,770.3L555.4,770.3Z M634.2,755.5L634.4,754.7L633.7,755.0L634.2,755.5Z " data-id="AU.TS" data-name="Tasmania" id="AU.TS"/>
utf-8</g>
</svg>
