<?xml version="1.0" ?>
<!DOCTYPE svg
  PUBLIC '-//W3C//DTD SVG 1.1//EN'
  'http://www.w3.org/Graphics/SVG/1.1/DTD/svg11.dtd'>
<svg enable_background="new 0 0 1000 757" height="757px" pretty_print="True" style="stroke-linejoin: round; stroke:#000; fill: none;" version="1.1" viewBox="0 0 1000 757" width="1000px" xmlns="http://www.w3.org/2000/svg" xmlns:xlink="http://www.w3.org/1999/xlink">
utf-8<defs>
utf-8utf-8<style type="text/css">
<![CDATA[path { fill-rule: evenodd; }]]>utf-8utf-8</style>
utf-8</defs>
utf-8<metadata>
utf-8utf-8<views>
utf-8utf-8utf-8<view h="757.679440016" padding="0" w="1000">
utf-8utf-8utf-8utf-8<proj flip="auto" id="robinson" lon0="45.5403957443"/>
utf-8utf-8utf-8utf-8<bbox h="58.17" w="76.88" x="610.21" y="-702.93"/>
utf-8utf-8utf-8</view>
utf-8utf-8</views>
utf-8</metadata>
utf-8<g class="" id="provinces">
utf-8utf-8<path d="M14.9,114.7L16.3,117.5L25.9,124.8L29.8,126.7L37.8,128.3L45.8,132.8L50.3,134.5L70.6,136.7L74.0,144.6L72.1,158.2L73.9,161.6L72.4,164.5L76.8,177.7L79.5,186.8L81.0,186.0L85.8,185.5L87.8,190.6L87.7,197.5L90.3,199.6L92.9,200.2L93.6,193.9L98.4,185.8L108.5,183.0L112.7,177.9L113.2,170.5L106.3,158.1L111.1,154.3L121.1,154.5L123.4,149.3L127.4,145.5L133.7,142.4L138.5,139.7L134.7,137.8L126.2,132.2L120.8,126.1L123.8,121.6L129.8,119.1L129.4,117.8L124.9,116.3L113.0,114.1L85.9,105.2L79.2,100.3L76.1,97.6L73.4,97.2L67.9,98.8L64.4,99.1L61.6,98.6L48.7,93.0L42.9,92.8L37.6,94.6L14.9,114.7Z " data-id="AZ.AF" data-name="Ağstafa" id="AZ.AF"/>
utf-8utf-8<path d="M208.7,260.5L202.9,265.8L197.7,275.2L192.3,284.0L181.1,291.2L180.7,304.9L186.6,312.2L189.0,316.5L187.9,320.8L188.8,326.0L188.3,330.5L187.1,332.8L187.6,336.1L186.9,339.9L195.9,347.7L199.5,347.8L200.6,347.5L200.7,339.7L209.9,336.1L221.4,337.9L233.9,338.8L246.0,337.7L248.1,326.3L254.6,317.9L253.4,311.5L246.7,307.4L239.8,302.6L233.9,296.0L242.7,278.9L238.0,275.8L232.5,273.0L225.4,268.6L218.1,264.7L208.7,260.5Z " data-id="AZ.DS" data-name="Daşkəsən" id="AZ.DS"/>
utf-8utf-8<path d="M190.6,281.6L191.3,279.1L189.8,274.0L189.5,269.2L184.2,262.6L176.4,256.7L167.7,251.0L160.5,242.5L158.5,238.1L155.6,234.6L151.6,230.9L147.6,227.0L147.2,236.4L149.7,245.8L151.7,255.1L152.8,265.1L152.8,271.7L149.3,275.9L144.5,273.9L139.7,270.8L135.1,268.3L134.4,262.4L129.9,257.8L124.0,255.7L117.4,255.5L111.6,252.4L109.3,245.4L107.6,243.1L101.1,246.2L95.2,251.5L92.2,258.7L94.0,267.8L97.5,272.8L101.5,275.9L105.6,278.5L109.3,282.0L110.4,284.1L111.8,288.9L113.0,291.2L115.0,292.9L119.1,295.1L121.1,297.6L129.0,308.9L141.2,318.1L186.7,339.8L186.9,339.9L187.6,336.1L187.1,332.8L188.3,330.5L188.8,326.0L187.9,320.8L189.0,316.5L186.6,312.2L180.7,304.9L181.1,291.2L192.3,284.0L190.6,281.6Z M125.1,270.2L120.0,274.4L113.6,272.7L112.2,270.6L111.9,264.0L113.8,262.6L121.4,262.2L126.4,264.6L125.1,270.2Z " data-id="AZ.GD" data-name="Gədəbəy" id="AZ.GD"/>
utf-8utf-8<path d="M270.0,248.3L261.0,248.1L260.4,250.6L257.7,255.8L256.4,262.5L259.3,269.1L266.3,270.0L271.7,264.2L275.2,256.5L270.0,248.3Z " data-id="AZ.GA" data-name="Gəncə" id="AZ.GA"/>
utf-8utf-8<path d="M252.6,235.5L245.1,224.9L243.2,229.3L241.5,233.8L242.0,242.0L240.4,248.2L240.4,255.7L236.3,259.0L230.5,258.9L223.7,260.5L218.1,264.7L225.4,268.6L232.5,273.0L238.0,275.8L242.7,278.9L233.9,296.0L239.8,302.6L246.7,307.4L253.4,311.5L254.6,317.9L248.1,326.3L246.0,337.7L260.8,342.4L276.0,344.4L273.3,329.5L276.2,317.3L279.3,312.7L281.7,307.5L286.2,301.1L291.6,295.5L297.8,287.0L298.1,283.2L294.9,280.3L292.7,267.6L285.8,257.3L275.2,256.5L271.7,264.2L266.3,270.0L259.3,269.1L256.4,262.5L257.7,255.8L260.4,250.6L261.0,248.1L252.6,235.5Z " data-id="AZ.XR" data-name="Xanlar" id="AZ.XR"/>
utf-8utf-8<path d="M378.4,298.9L379.4,294.3L379.5,291.0L377.6,289.0L372.3,289.7L366.9,288.2L364.0,278.9L362.5,269.7L357.0,265.1L350.8,264.6L344.6,268.6L340.4,263.8L344.4,256.9L347.5,250.4L340.9,246.6L333.6,245.6L328.2,239.4L329.6,231.1L329.3,222.5L324.6,205.0L324.5,196.5L318.3,204.6L312.3,212.9L305.1,221.1L297.6,229.0L294.5,230.8L293.6,233.9L295.3,238.3L292.8,241.3L286.9,247.4L285.8,257.3L292.7,267.6L294.9,280.3L298.1,283.2L297.8,287.0L291.6,295.5L286.2,301.1L281.7,307.5L279.3,312.7L276.2,317.3L273.3,329.5L276.0,344.4L283.2,345.4L296.4,347.3L312.8,336.5L313.7,335.1L317.5,329.0L326.6,325.5L334.1,320.6L342.2,317.0L348.8,317.2L355.4,317.0L358.8,314.9L367.9,307.9L371.2,304.3L374.6,300.6L378.4,298.9Z M357.4,297.2L354.5,296.2L353.6,294.9L355.8,291.9L357.4,293.0L358.8,296.0L357.4,297.2Z " data-id="AZ.GR" data-name="Goranboy" id="AZ.GR"/>
utf-8utf-8<path d="M233.9,338.8L221.4,337.9L209.9,336.1L200.7,339.7L200.6,347.5L203.0,346.8L206.8,346.6L209.7,347.9L212.6,350.2L218.3,355.8L219.4,359.6L218.8,373.5L217.7,378.7L215.1,383.0L211.8,386.2L211.5,387.8L211.3,397.8L210.5,400.1L208.5,402.0L196.3,403.1L166.3,398.6L156.4,405.4L157.9,410.5L164.0,412.9L182.8,414.7L188.1,417.0L192.7,421.0L205.4,438.9L214.8,446.4L218.9,448.3L227.8,441.1L233.3,435.6L235.3,428.4L237.8,423.1L243.0,426.7L248.4,431.3L254.3,430.6L260.2,428.8L272.7,427.1L284.4,423.1L291.4,419.9L299.1,418.8L306.1,416.2L313.0,413.1L314.2,412.4L322.2,407.2L328.1,409.7L333.6,413.0L338.5,410.0L341.4,404.6L347.2,401.4L354.3,400.2L357.6,398.2L358.9,397.4L364.9,396.9L359.9,392.5L353.6,383.3L348.4,380.0L338.0,372.1L327.2,371.1L323.9,374.0L320.1,375.2L316.6,369.3L310.2,354.5L309.5,346.6L312.4,343.8L312.9,340.3L312.8,336.5L296.4,347.3L283.2,345.4L276.0,344.4L260.8,342.4L246.0,337.7L233.9,338.8Z " data-id="AZ.KA" data-name="Kəlbəcər" id="AZ.KA"/>
utf-8utf-8<path d="M366.5,236.1L361.6,238.8L371.8,247.9L385.0,242.6L380.3,237.3L376.9,237.2L373.6,238.4L366.5,236.1Z " data-id="AZ.MI" data-name="Mingəçevir" id="AZ.MI"/>
utf-8utf-8<path d="M52.3,193.7L46.5,189.7L44.1,190.5L46.7,195.4L50.9,196.0L52.3,193.7Z M15.9,179.3L12.7,173.2L5.5,171.7L3.1,173.5L3.1,176.4L4.8,179.6L7.6,182.2L14.4,184.3L15.9,179.3Z M0.7,127.3L9.7,139.9L8.8,144.4L10.3,147.1L13.6,148.2L25.1,148.3L28.3,149.2L38.8,155.8L41.7,158.8L42.6,162.2L37.4,166.2L19.8,165.6L19.3,172.4L22.3,176.0L26.6,178.3L30.0,178.6L30.6,176.1L30.4,172.2L33.6,173.7L40.4,179.2L44.4,181.2L51.0,186.1L59.5,187.0L67.8,189.9L72.0,190.5L79.5,186.8L76.8,177.7L72.4,164.5L73.9,161.6L72.1,158.2L74.0,144.6L70.6,136.7L50.3,134.5L45.8,132.8L37.8,128.3L29.8,126.7L25.9,124.8L16.3,117.5L14.9,114.7L0.7,127.3Z " data-id="AZ.QZ" data-name="Qazax" id="AZ.QZ"/>
utf-8utf-8<path d="M240.5,217.4L240.7,209.8L241.4,206.1L241.8,197.2L243.6,193.1L243.0,185.5L237.5,178.3L228.5,169.2L219.1,160.1L215.4,168.6L209.6,175.6L206.7,180.4L205.1,186.6L196.8,188.5L178.7,186.5L170.6,188.0L169.1,194.0L167.0,200.4L157.0,208.1L152.9,212.0L148.2,215.2L146.1,220.4L147.6,227.0L151.6,230.9L155.6,234.6L158.5,238.1L160.5,242.5L167.7,251.0L176.4,256.7L184.2,262.6L189.5,269.2L189.8,274.0L191.3,279.1L190.6,281.6L192.3,284.0L197.7,275.2L202.9,265.8L208.7,260.5L218.1,264.7L223.7,260.5L230.5,258.9L236.3,259.0L240.4,255.7L240.4,248.2L242.0,242.0L241.5,233.8L243.2,229.3L245.1,224.9L240.5,217.4Z " data-id="AZ.SM" data-name="Şəmkir" id="AZ.SM"/>
utf-8utf-8<path d="M291.0,169.2L287.7,169.7L280.6,168.5L277.3,170.7L276.1,174.1L275.8,177.4L274.7,179.6L270.8,179.8L267.3,178.0L261.1,171.9L257.8,169.6L246.6,166.5L242.6,164.5L230.4,155.9L224.1,150.0L220.8,147.5L217.4,146.5L204.2,146.6L200.4,147.4L196.5,150.1L197.5,150.6L208.3,155.6L219.1,160.1L228.5,169.2L237.5,178.3L243.0,185.5L243.6,193.1L241.8,197.2L241.4,206.1L240.7,209.8L240.5,217.4L245.1,224.9L252.6,235.5L261.0,248.1L270.0,248.3L275.2,256.5L285.8,257.3L286.9,247.4L292.8,241.3L295.3,238.3L293.6,233.9L294.5,230.8L297.6,229.0L305.1,221.1L312.3,212.9L318.3,204.6L324.5,196.5L322.5,190.8L319.0,185.9L314.6,173.8L306.8,169.9L298.7,169.6L292.8,166.0L291.0,169.2Z " data-id="AZ.SX" data-name="Samux" id="AZ.SX"/>
utf-8utf-8<path d="M192.4,152.8L189.2,153.9L185.0,154.3L176.3,153.3L148.4,144.7L138.5,139.7L133.7,142.4L127.4,145.5L123.4,149.3L121.1,154.5L111.1,154.3L106.3,158.1L113.2,170.5L112.7,177.9L108.5,183.0L98.4,185.8L93.6,193.9L92.9,200.2L94.7,200.7L100.1,204.2L109.4,213.1L112.7,215.7L116.5,216.8L120.8,217.1L124.1,218.6L125.4,223.3L123.8,232.1L120.1,237.0L107.6,243.1L109.3,245.4L111.6,252.4L117.4,255.5L124.0,255.7L129.9,257.8L134.4,262.4L135.1,268.3L139.7,270.8L144.5,273.9L149.3,275.9L152.8,271.7L152.8,265.1L151.7,255.1L149.7,245.8L147.2,236.4L147.6,227.0L146.1,220.4L148.2,215.2L152.9,212.0L157.0,208.1L167.0,200.4L169.1,194.0L170.6,188.0L178.7,186.5L196.8,188.5L205.1,186.6L206.7,180.4L209.6,175.6L215.4,168.6L219.1,160.1L208.3,155.6L197.5,150.6L196.5,150.1L192.4,152.8Z " data-id="AZ.TO" data-name="Tovuz" id="AZ.TO"/>
utf-8utf-8<path d="M340.5,200.8L324.5,196.5L324.6,205.0L329.3,222.5L329.6,231.1L328.2,239.4L333.6,245.6L340.9,246.6L347.5,250.4L344.4,256.9L340.4,263.8L344.6,268.6L350.8,264.6L357.0,265.1L362.5,269.7L364.0,278.9L366.9,288.2L372.3,289.7L377.6,289.0L379.5,291.0L379.4,294.3L378.4,298.9L374.6,300.6L376.6,303.9L378.2,307.5L381.6,311.1L385.4,314.4L391.6,302.4L412.3,299.3L415.9,286.8L420.3,284.1L421.2,282.8L423.5,279.8L423.9,273.1L420.3,266.6L418.9,258.9L419.7,251.7L420.4,243.1L421.1,234.3L406.6,229.0L392.0,223.9L374.5,215.7L357.0,208.2L340.5,200.8Z M366.5,236.1L373.6,238.4L376.9,237.2L380.3,237.3L385.0,242.6L371.8,247.9L361.6,238.8L366.5,236.1Z M416.2,279.1L414.9,281.3L408.7,281.0L402.5,277.9L398.6,270.9L400.8,266.4L414.7,266.4L415.7,267.1L415.9,269.8L414.8,275.1L416.2,279.1Z " data-id="AZ.YV" data-name="Yevlakh Rayon" id="AZ.YV"/>
utf-8utf-8<path d="M976.5,300.2L977.5,305.3L984.8,312.6L985.1,317.8L988.6,318.0L991.1,317.4L992.2,315.9L991.5,313.4L989.0,310.5L986.4,308.6L984.2,306.3L982.8,301.8L981.3,300.4L978.9,301.2L976.5,300.2Z M862.6,277.8L862.6,277.8L862.5,279.9L861.6,282.4L860.7,284.8L864.8,288.3L869.1,289.1L875.0,286.8L890.9,291.2L897.5,293.4L894.9,296.9L887.3,298.9L879.6,300.6L875.8,302.5L871.8,303.7L863.4,301.4L858.0,301.6L852.9,302.5L838.5,302.9L831.5,311.8L824.2,312.9L819.8,318.2L822.3,329.1L826.4,340.9L828.2,353.0L825.0,362.4L822.5,365.1L822.0,368.8L822.9,372.4L822.5,376.5L820.3,380.6L819.1,385.3L822.3,394.2L818.2,402.5L818.1,408.3L817.1,414.3L821.5,420.2L825.2,427.0L831.7,433.7L833.6,439.2L834.9,444.8L834.0,453.2L836.3,462.5L838.5,469.9L841.6,476.4L845.1,471.3L849.2,468.9L851.2,467.1L851.1,465.2L846.0,459.9L844.4,457.0L844.6,454.1L842.9,451.2L843.4,448.2L846.4,445.2L846.3,443.7L844.2,440.0L844.1,437.9L847.2,434.0L847.5,431.5L846.4,429.0L843.4,424.3L841.6,420.0L841.6,415.5L842.4,413.2L844.8,411.7L849.6,406.5L848.4,404.3L841.9,399.2L838.5,394.8L837.2,390.5L838.3,387.1L847.1,383.6L844.3,375.5L843.8,370.8L845.2,368.4L847.9,366.4L853.2,359.4L855.9,357.3L868.5,352.6L877.6,347.0L888.9,344.5L895.4,341.0L899.3,336.3L897.1,331.2L901.9,326.3L905.0,324.4L910.2,326.8L914.9,327.5L923.1,334.1L926.6,334.1L931.6,329.4L934.5,328.2L941.3,328.2L947.0,326.6L950.6,327.0L957.7,329.1L965.8,330.1L970.1,331.5L974.3,333.4L984.4,340.0L989.8,344.8L994.6,350.1L999.3,356.3L999.3,353.3L997.4,348.9L995.1,344.8L993.5,343.0L987.9,325.3L985.2,320.8L981.7,316.5L977.7,313.2L973.5,311.9L969.6,309.9L965.9,305.3L962.7,300.3L960.1,297.1L956.6,295.5L940.0,292.3L936.0,290.5L932.0,287.6L928.1,284.0L925.0,279.5L923.2,278.2L902.9,277.5L898.8,278.2L889.8,282.0L886.7,282.6L882.5,282.2L874.4,280.0L865.3,278.9L862.6,277.8Z M856.9,323.8L854.6,319.7L850.6,315.4L855.6,312.2L862.8,311.8L870.3,320.4L868.7,322.5L865.1,324.2L861.0,324.6L856.9,323.8Z " data-id="AZ.BA" data-name="Bakı" id="AZ.BA"/>
utf-8utf-8<path d="M865.1,324.2L868.7,322.5L870.3,320.4L862.8,311.8L855.6,312.2L850.6,315.4L854.6,319.7L856.9,323.8L861.0,324.6L865.1,324.2Z M820.1,266.9L817.8,272.5L813.8,276.5L810.5,281.8L810.6,289.9L800.2,294.7L787.3,295.1L784.9,301.4L781.0,305.9L776.7,309.7L771.8,311.9L766.4,312.9L761.9,315.6L760.2,320.4L757.4,323.8L751.7,325.6L741.5,337.8L739.1,341.1L728.8,335.5L722.2,333.2L725.5,341.1L731.3,346.0L737.9,350.8L744.1,356.2L750.5,363.2L757.0,369.5L763.5,371.2L770.1,371.7L778.5,371.6L786.9,372.8L792.3,378.3L795.2,385.5L800.1,391.9L805.2,398.1L806.4,402.3L808.6,405.9L813.0,409.9L817.1,414.3L818.1,408.3L818.2,402.5L822.3,394.2L819.1,385.3L820.3,380.6L822.5,376.5L822.9,372.4L822.0,368.8L822.5,365.1L825.0,362.4L828.2,353.0L826.4,340.9L822.3,329.1L819.8,318.2L824.2,312.9L831.5,311.8L838.5,302.9L852.9,302.5L858.0,301.6L863.4,301.4L871.8,303.7L875.8,302.5L879.6,300.6L887.3,298.9L894.9,296.9L897.5,293.4L890.9,291.2L875.0,286.8L869.1,289.1L864.8,288.3L860.7,284.8L852.3,287.7L843.2,286.9L839.2,282.4L835.3,277.6L827.9,271.1L820.1,266.9Z " data-id="AZ.AR" data-name="Abşeron" id="AZ.AR"/>
utf-8utf-8<path d="M413.8,368.4L412.0,368.6L407.0,367.3L404.3,361.7L400.2,357.8L396.4,359.4L391.8,358.6L389.6,356.9L387.2,356.2L386.5,358.9L388.2,362.3L378.0,367.4L369.3,371.5L369.4,378.9L365.7,383.3L364.2,389.1L364.9,396.9L358.9,397.4L357.6,398.2L354.3,400.2L361.4,404.4L368.3,402.5L377.6,406.6L383.9,416.2L391.2,421.8L399.1,424.9L398.7,430.8L396.0,435.3L393.1,442.3L391.1,448.5L397.2,445.2L403.6,442.6L406.1,437.4L406.9,431.1L414.2,429.4L422.2,432.8L433.1,438.9L443.6,441.2L447.3,434.3L452.8,433.7L456.0,434.4L458.8,435.1L460.1,434.3L461.2,433.2L463.5,425.6L458.2,419.4L450.7,420.5L428.5,420.2L422.5,409.6L426.4,406.6L424.8,394.6L431.0,392.6L435.1,388.5L428.9,384.2L428.7,379.3L436.0,374.3L442.0,367.4L429.2,367.0L416.8,368.0L413.8,368.4Z " data-id="AZ.AM" data-name="Ağdam" id="AZ.AM"/>
utf-8utf-8<path d="M462.0,241.4L455.0,240.0L448.3,237.7L445.4,239.2L441.1,239.2L436.3,237.4L428.7,235.7L421.1,234.3L420.4,243.1L419.7,251.7L418.9,258.9L420.3,266.6L423.9,273.1L423.5,279.8L421.2,282.8L421.5,282.9L425.6,286.0L424.6,288.4L424.9,291.2L425.9,293.1L427.4,292.2L431.9,287.0L435.5,289.1L435.8,293.1L435.5,297.0L437.2,298.7L439.3,299.4L443.8,303.6L444.9,306.2L451.5,305.1L452.9,305.6L453.3,309.0L452.6,310.7L449.4,313.2L448.3,314.9L458.5,318.1L460.4,320.5L457.8,325.3L461.4,326.5L467.9,325.5L470.4,328.2L469.7,330.0L469.8,336.3L470.6,335.9L472.8,337.8L474.3,339.6L477.2,336.9L481.7,331.1L483.3,325.6L484.5,319.8L480.8,314.8L475.4,312.2L471.7,306.8L471.5,292.7L476.0,289.5L482.6,288.8L489.8,290.8L489.0,283.7L489.9,277.2L491.6,275.1L491.9,272.7L488.8,269.5L485.2,266.3L478.8,263.3L473.6,258.9L471.3,249.6L468.7,240.2L462.0,241.4Z " data-id="AZ.AS" data-name="Ağdaş" id="AZ.AS"/>
utf-8utf-8<path d="M658.4,328.2L660.9,323.8L659.9,313.4L666.4,307.6L678.0,302.3L680.0,299.1L676.6,296.9L672.3,295.1L668.2,292.6L664.0,290.8L651.6,290.4L644.4,287.8L638.1,281.9L638.2,272.9L644.5,266.2L646.3,262.6L645.4,258.9L647.8,250.9L643.1,244.2L636.5,239.1L634.7,236.2L632.5,233.3L631.3,243.8L627.8,252.7L618.8,259.9L603.0,267.7L601.4,271.7L597.8,274.4L593.8,276.8L590.8,279.4L588.4,282.8L588.4,289.1L585.6,291.4L581.9,289.3L580.1,298.2L580.5,307.4L586.2,311.6L592.2,310.5L600.3,316.6L608.8,308.7L616.6,308.2L624.2,311.3L626.4,319.9L628.3,327.9L633.9,329.7L639.4,332.0L644.8,339.3L651.8,344.0L652.7,337.4L655.4,332.6L658.4,328.2Z " data-id="AZ.AU" data-name="Ağsu" id="AZ.AU"/>
utf-8utf-8<path d="M712.7,334.1L703.2,329.7L702.6,338.0L698.5,343.5L693.3,346.2L678.3,340.0L670.2,336.1L662.9,334.2L655.4,332.6L652.7,337.4L651.8,344.0L656.2,349.4L658.5,356.8L660.7,365.3L661.1,374.3L677.7,374.5L694.4,378.6L698.8,380.6L699.0,383.3L702.3,392.8L703.5,392.8L708.5,395.2L716.2,396.9L718.2,399.9L720.5,400.8L730.9,402.4L734.7,403.5L741.6,408.1L744.1,407.3L748.2,408.3L754.8,408.2L756.7,409.1L757.9,411.0L758.9,417.4L757.1,420.1L754.9,422.7L760.7,422.1L767.0,421.7L774.7,426.1L782.4,429.7L791.8,431.1L800.9,431.8L807.2,433.0L815.7,430.8L819.4,433.2L822.7,436.7L828.7,440.8L834.9,444.8L833.6,439.2L831.7,433.7L825.2,427.0L821.5,420.2L817.1,414.3L813.0,409.9L808.6,405.9L806.4,402.3L805.2,398.1L800.1,391.9L795.2,385.5L792.3,378.3L786.9,372.8L778.5,371.6L770.1,371.7L763.5,371.2L757.0,369.5L750.5,363.2L744.1,356.2L737.9,350.8L731.3,346.0L725.5,341.1L722.2,333.2L712.7,334.1Z " data-id="AZ.HA" data-name="Hajigabul" id="AZ.HA"/>
utf-8utf-8<path d="M799.6,709.4L785.9,713.2L770.0,714.0L766.5,716.3L762.9,717.8L758.8,717.2L754.8,718.5L751.4,720.5L748.7,723.5L748.4,728.6L746.6,733.2L745.6,738.8L748.5,741.6L754.8,749.6L761.5,754.9L770.8,755.7L774.9,754.5L779.4,752.5L783.4,749.7L786.3,746.3L789.9,744.2L795.6,744.2L807.6,746.5L799.6,709.4L799.6,709.4Z " data-id="AZ.AA" data-name="Astara" id="AZ.AA"/>
utf-8utf-8<path d="M472.8,337.8L470.6,335.9L469.8,336.3L469.7,330.0L470.4,328.2L467.9,325.5L461.4,326.5L457.8,325.3L460.4,320.5L458.5,318.1L448.3,314.9L449.4,313.2L452.6,310.7L453.3,309.0L452.9,305.6L451.5,305.1L444.9,306.2L443.8,303.6L439.3,299.4L437.2,298.7L435.5,297.0L435.8,293.1L435.5,289.1L431.9,287.0L427.4,292.2L425.9,293.1L424.9,291.2L424.6,288.4L425.6,286.0L421.5,282.9L421.2,282.8L420.3,284.1L415.9,286.8L412.3,299.3L391.6,302.4L385.4,314.4L387.6,319.4L389.7,324.4L392.1,326.7L395.0,328.4L399.1,333.6L404.0,337.2L409.5,338.9L411.4,352.5L413.3,359.9L415.2,363.9L416.8,368.0L429.2,367.0L442.0,367.4L440.9,364.0L446.2,367.5L452.1,370.9L457.7,369.1L470.7,359.9L483.6,349.3L483.5,349.2L485.3,346.2L488.3,344.8L489.4,343.1L475.0,341.4L474.8,340.3L474.3,339.6L472.8,337.8Z " data-id="AZ.BR" data-name="Bərdə" id="AZ.BR"/>
utf-8utf-8<path d="M543.6,378.9L541.6,373.5L540.9,370.9L538.4,369.8L535.9,369.6L531.5,385.7L529.2,393.9L529.5,404.4L529.5,414.5L528.3,422.2L524.2,427.4L518.5,428.9L513.3,431.2L509.1,431.5L504.7,431.2L503.0,432.5L502.2,434.8L497.2,436.9L495.1,441.7L498.6,448.0L494.6,451.4L497.9,455.7L502.3,460.8L506.5,467.3L512.7,468.7L517.9,473.4L522.9,479.3L535.9,488.3L537.6,497.1L556.8,485.7L563.0,478.4L563.3,471.2L569.6,464.8L576.3,460.6L576.3,454.0L569.2,449.6L561.9,444.6L555.1,439.6L547.8,436.4L547.7,430.1L549.2,422.3L545.4,420.2L542.7,416.8L544.6,413.6L547.8,411.7L553.8,407.0L552.5,398.5L545.4,392.2L537.8,385.9L544.0,379.4L543.6,378.9Z " data-id="AZ.BQ" data-name="Beyləqan" id="AZ.BQ"/>
utf-8utf-8<path d="M652.9,498.2L629.7,486.1L616.0,475.2L601.7,466.5L590.8,465.6L591.0,467.6L593.6,468.2L597.4,470.4L610.2,480.0L646.7,514.0L661.0,524.7L667.2,531.2L672.7,539.1L670.9,539.7L673.3,542.4L675.9,552.8L683.0,556.2L685.1,554.1L686.7,551.6L689.7,549.9L693.3,549.5L698.5,544.5L702.7,538.4L709.0,538.4L714.3,544.6L717.7,552.4L724.2,555.8L728.7,550.9L727.3,541.4L727.2,538.3L729.5,535.9L730.4,532.8L731.9,530.3L734.9,530.2L738.0,531.7L742.5,532.7L747.0,532.6L747.6,526.7L747.4,521.0L743.2,516.4L738.8,512.2L737.5,500.9L739.1,489.7L729.8,487.0L720.6,484.1L712.3,480.9L704.3,479.7L698.5,487.7L688.8,483.2L677.6,477.4L669.6,486.2L652.9,498.2Z " data-id="AZ.BS" data-name="Biləsuvar" id="AZ.BS"/>
utf-8utf-8<path d="M438.5,524.2L437.7,525.7L441.2,532.5L441.6,535.4L435.5,535.9L433.0,538.6L428.6,539.3L425.6,535.3L419.0,532.2L413.0,527.9L412.7,524.9L411.0,522.4L405.1,520.5L396.7,520.1L400.8,527.0L399.8,534.2L393.1,533.6L391.3,532.9L385.6,531.0L382.1,534.8L382.2,541.6L385.7,546.4L390.0,551.2L391.9,558.4L395.8,564.6L402.6,568.1L409.2,572.1L416.7,579.7L419.4,585.7L419.5,585.8L422.2,584.5L425.0,584.4L430.3,586.5L433.1,587.2L435.2,586.8L447.4,578.3L448.0,576.7L449.4,568.4L454.0,558.6L454.2,556.4L455.6,554.5L463.2,549.6L479.7,543.0L481.5,541.9L479.0,539.3L473.0,536.0L463.3,537.8L458.8,532.6L454.2,526.6L447.4,523.1L440.4,520.1L438.5,524.2Z " data-id="AZ.CB" data-name="Cəbrayıl" id="AZ.CB"/>
utf-8utf-8<path d="M742.5,532.7L738.0,531.7L734.9,530.2L731.9,530.3L730.4,532.8L729.5,535.9L727.2,538.3L727.3,541.4L728.7,550.9L724.2,555.8L717.7,552.4L714.3,544.6L709.0,538.4L702.7,538.4L698.5,544.5L693.3,549.5L689.7,549.9L686.7,551.6L685.1,554.1L683.0,556.2L675.9,552.8L673.3,542.4L670.9,539.7L666.6,541.1L658.4,547.1L647.7,549.2L642.2,552.2L638.0,556.9L635.9,563.1L637.0,570.6L640.5,576.5L646.0,582.4L657.9,591.8L668.9,595.8L672.0,598.3L679.5,609.3L681.0,612.1L681.5,615.2L681.2,618.1L693.0,617.6L697.0,616.3L701.0,615.5L707.9,619.3L714.0,625.2L722.4,622.9L727.6,616.3L730.6,611.4L735.0,608.1L739.7,606.3L743.3,603.4L739.5,598.4L738.7,593.3L741.9,592.5L745.5,593.5L746.9,591.9L746.4,588.4L750.1,588.3L754.0,589.8L753.1,574.9L744.0,561.0L741.0,552.7L740.8,544.3L743.5,538.2L747.0,532.6L742.5,532.7Z " data-id="AZ.CL" data-name="Cəlilabad" id="AZ.CL"/>
utf-8utf-8<path d="M657.1,115.0L657.0,123.7L659.0,132.4L661.9,135.0L662.6,138.1L659.2,143.4L651.6,150.8L649.2,161.0L658.1,167.9L666.2,175.6L665.0,181.0L661.2,184.2L658.8,188.9L662.5,194.1L665.2,202.1L666.6,211.6L676.5,215.7L686.4,220.2L690.7,215.5L695.7,212.2L691.3,202.4L687.8,192.6L689.2,187.0L693.6,183.7L700.3,182.5L702.2,179.6L703.2,176.0L701.3,167.9L696.6,160.6L700.8,153.2L713.4,153.2L718.5,151.1L723.8,149.5L739.7,159.7L742.2,159.4L742.0,159.3L739.7,157.6L737.8,153.7L731.6,135.2L729.5,130.6L726.4,126.6L723.1,123.2L715.6,113.1L714.6,113.4L705.2,113.7L695.7,112.2L687.3,111.5L679.9,114.3L673.7,113.9L667.8,112.1L662.7,114.4L657.1,115.0Z " data-id="AZ.DV" data-name="Dəvəçi" id="AZ.DV"/>
utf-8utf-8<path d="M502.3,460.8L489.2,464.0L476.2,467.4L469.8,469.0L457.9,471.6L452.8,472.5L449.8,474.3L447.3,477.5L443.8,479.6L440.0,481.2L431.9,481.8L429.8,486.7L436.7,488.0L442.3,487.3L439.2,492.1L432.2,493.7L429.9,496.9L431.7,500.6L435.6,500.1L438.6,497.2L443.5,495.1L445.8,500.0L443.4,504.9L447.0,513.4L440.8,514.9L441.0,518.3L440.4,520.1L447.4,523.1L454.2,526.6L458.8,532.6L463.3,537.8L473.0,536.0L479.0,539.3L481.5,541.9L486.3,539.0L497.9,522.4L502.8,517.8L509.5,513.9L521.2,509.8L525.1,509.4L527.1,507.9L534.8,498.8L537.6,497.1L535.9,488.3L522.9,479.3L517.9,473.4L512.7,468.7L506.5,467.3L502.3,460.8Z " data-id="AZ.FU" data-name="Füzuli" id="AZ.FU"/>
utf-8utf-8<path d="M565.9,284.9L568.2,275.0L559.5,269.2L549.7,266.9L540.1,264.2L531.1,263.3L526.7,263.6L515.5,260.3L509.1,258.7L503.8,261.3L497.6,261.5L491.0,263.0L485.2,266.3L488.8,269.5L491.9,272.7L491.6,275.1L489.9,277.2L489.0,283.7L489.8,290.8L493.5,294.1L497.8,296.8L504.6,294.5L509.7,296.9L514.7,300.2L519.3,301.9L522.5,300.2L525.0,297.9L528.6,298.2L541.7,303.9L548.8,306.7L555.9,307.6L560.4,307.1L565.4,308.8L572.1,304.9L568.4,293.5L565.9,284.9Z " data-id="AZ.GY" data-name="Göyçay" id="AZ.GY"/>
utf-8utf-8<path d="M639.3,394.2L633.8,394.6L632.0,396.9L630.7,397.4L628.8,393.8L623.8,390.3L620.6,389.9L617.5,390.6L612.3,393.3L612.0,390.4L607.8,388.7L597.1,383.2L595.2,380.7L592.9,374.7L590.2,374.9L587.3,377.7L584.1,379.9L577.4,376.6L575.7,377.6L576.9,386.5L576.2,387.6L574.0,387.2L568.0,384.6L566.8,384.4L563.7,387.3L558.9,383.5L555.5,382.4L555.2,382.3L553.4,381.6L551.5,381.3L549.9,382.2L546.5,383.2L544.0,379.4L537.8,385.9L545.4,392.2L552.5,398.5L553.8,407.0L547.8,411.7L544.6,413.6L542.7,416.8L545.4,420.2L549.2,422.3L547.7,430.1L547.8,436.4L555.1,439.6L561.9,444.6L569.2,449.6L576.3,454.0L576.3,460.6L569.6,464.8L563.3,471.2L563.0,478.4L565.2,475.7L568.2,473.4L572.3,472.4L585.8,472.6L587.9,472.1L589.4,470.5L590.9,467.6L591.0,467.6L590.8,465.6L601.7,466.5L616.0,475.2L629.7,486.1L652.9,498.2L669.6,486.2L664.5,481.6L660.7,476.5L659.0,466.7L659.2,461.2L649.3,454.1L638.0,450.6L634.2,446.3L631.4,441.3L631.8,435.5L635.1,425.7L633.3,420.7L628.4,415.8L629.4,412.0L631.1,408.5L634.0,405.2L637.2,402.5L640.5,401.6L642.4,400.0L642.2,397.5L640.5,395.5L639.3,394.2Z " data-id="AZ.IM" data-name="İmişli" id="AZ.IM"/>
utf-8utf-8<path d="M600.7,191.7L587.1,190.9L576.7,186.8L560.7,179.2L555.3,177.2L549.9,176.8L544.5,175.7L542.3,178.7L541.1,182.3L541.0,186.2L540.3,189.6L535.2,188.8L533.7,193.7L537.0,200.7L542.7,207.4L543.5,214.1L539.2,218.0L534.6,219.3L535.0,224.0L535.8,228.9L530.0,234.0L522.7,237.3L518.4,241.3L516.0,247.6L512.7,253.3L509.1,258.7L515.5,260.3L526.7,263.6L531.1,263.3L540.1,264.2L549.7,266.9L559.5,269.2L568.2,275.0L565.9,284.9L568.4,293.5L575.3,291.9L581.9,289.3L585.6,291.4L588.4,289.1L588.4,282.8L590.8,279.4L593.8,276.8L597.8,274.4L601.4,271.7L603.0,267.7L618.8,259.9L627.8,252.7L631.3,243.8L632.5,233.3L636.1,224.0L632.9,214.5L622.4,208.5L612.8,200.2L600.7,191.7Z " data-id="AZ.IS" data-name="İsmayıllı" id="AZ.IS"/>
utf-8utf-8<path d="M644.8,339.3L639.4,332.0L633.9,329.7L628.3,327.9L626.4,319.9L624.2,311.3L616.6,308.2L608.8,308.7L600.3,316.6L592.2,310.5L586.2,311.6L580.5,307.4L580.1,298.2L581.9,289.3L575.3,291.9L568.4,293.5L572.1,304.9L565.4,308.8L566.3,317.7L566.4,326.2L564.3,332.0L560.7,336.5L563.7,352.5L568.8,368.0L566.9,372.9L563.7,377.0L559.0,379.3L555.2,382.3L555.5,382.4L558.9,383.5L563.7,387.3L566.8,384.4L568.0,384.6L574.0,387.2L576.2,387.6L576.9,386.5L575.7,377.6L577.4,376.6L584.1,379.9L587.3,377.7L590.2,374.9L592.9,374.7L595.2,380.7L597.1,383.2L607.8,388.7L612.0,390.4L612.3,393.3L617.5,390.6L620.6,389.9L623.8,390.3L628.8,393.8L630.7,397.4L632.0,396.9L633.8,394.6L639.3,394.2L640.5,395.5L642.4,391.9L643.3,389.0L647.0,384.8L652.1,381.7L655.9,377.3L661.1,374.3L660.7,365.3L658.5,356.8L656.2,349.4L651.8,344.0L644.8,339.3Z " data-id="AZ.KU" data-name="Kürdəmir" id="AZ.KU"/>
utf-8utf-8<path d="M739.5,651.2L736.3,660.5L740.2,670.1L757.8,680.2L761.4,684.8L764.6,689.6L764.9,693.7L765.9,697.4L770.0,699.9L773.8,703.4L772.6,708.7L770.0,714.0L785.9,713.2L799.6,709.4L792.6,677.4L790.5,681.0L788.3,682.1L787.1,680.6L784.8,670.8L788.1,668.6L786.0,665.2L783.5,658.1L781.9,650.3L788.6,651.9L792.5,646.0L786.5,644.6L779.5,644.4L777.1,646.1L775.3,648.7L770.6,651.7L765.4,654.4L759.8,658.4L753.2,659.7L746.2,656.1L739.5,651.2Z M774.9,593.2L774.8,600.3L776.4,607.5L786.1,614.9L787.0,620.0L788.8,625.9L792.8,632.9L794.8,637.6L795.2,636.2L797.0,620.5L796.7,615.1L792.9,610.4L791.2,605.0L789.6,594.8L791.6,594.1L791.0,588.9L792.9,581.8L794.9,581.1L802.4,580.8L806.0,581.7L809.6,584.2L810.8,586.7L813.6,595.7L813.9,597.6L822.5,597.9L826.4,599.6L829.2,603.8L829.9,608.2L829.3,612.5L827.6,615.9L825.1,617.2L817.4,618.7L816.1,620.4L816.4,626.2L822.1,630.1L828.7,627.5L840.3,618.5L841.2,614.6L841.1,609.9L840.1,602.2L840.3,598.7L841.5,591.7L841.5,587.8L838.1,584.7L830.5,582.9L822.9,579.6L816.3,577.8L810.1,574.3L805.2,567.2L799.2,562.9L791.6,569.5L785.2,578.2L779.6,585.4L774.9,593.2Z " data-id="AZ.LN" data-name="Lankaran" id="AZ.LN"/>
utf-8utf-8<path d="M750.1,588.3L746.4,588.4L746.9,591.9L745.5,593.5L741.9,592.5L738.7,593.3L739.5,598.4L743.3,603.4L739.7,606.3L735.0,608.1L730.6,611.4L727.6,616.3L722.4,622.9L714.0,625.2L718.9,633.9L728.3,635.3L735.5,642.1L739.5,651.2L746.2,656.1L753.2,659.7L759.8,658.4L765.4,654.4L770.6,651.7L775.3,648.7L777.1,646.1L779.5,644.4L786.5,644.6L792.5,646.0L792.9,645.5L794.8,637.6L794.8,637.6L792.8,632.9L788.8,625.9L787.0,620.0L786.1,614.9L776.4,607.5L774.8,600.3L774.9,593.2L764.3,593.9L754.0,589.8L750.1,588.3Z " data-id="AZ.MA" data-name="Masallı" id="AZ.MA"/>
utf-8utf-8<path d="M735.5,642.1L728.3,635.3L714.7,645.7L700.1,655.0L697.0,658.0L693.5,660.3L690.8,663.7L688.5,667.6L687.6,671.9L687.6,676.6L684.0,683.1L680.3,685.1L681.7,688.3L681.8,692.6L682.8,696.3L692.7,703.0L696.2,707.0L700.0,709.9L705.5,710.1L713.8,706.0L718.0,706.0L721.0,710.8L723.3,716.6L726.1,719.6L729.5,722.1L733.2,726.6L736.8,729.7L740.2,733.4L745.6,738.8L746.6,733.2L748.4,728.6L748.7,723.5L751.4,720.5L754.8,718.5L758.8,717.2L762.9,717.8L766.5,716.3L770.0,714.0L772.6,708.7L773.8,703.4L770.0,699.9L765.9,697.4L764.9,693.7L764.6,689.6L761.4,684.8L757.8,680.2L740.2,670.1L736.3,660.5L739.5,651.2L735.5,642.1Z " data-id="AZ.LE" data-name="Lerik" id="AZ.LE"/>
utf-8utf-8<path d="M747.0,532.6L743.5,538.2L740.8,544.3L741.0,552.7L744.0,561.0L753.1,574.9L754.0,589.8L764.3,593.9L774.9,593.2L779.6,585.4L785.2,578.2L791.6,569.5L799.2,562.9L805.2,567.2L810.1,574.3L816.3,577.8L822.9,579.6L830.5,582.9L838.1,584.7L841.5,587.8L841.5,587.8L841.6,584.9L836.8,561.0L837.2,554.0L840.7,548.4L846.2,546.2L856.5,552.0L862.4,557.7L866.6,558.7L866.3,557.0L863.1,555.2L860.3,552.0L858.1,548.5L856.8,545.2L857.9,545.2L862.7,550.1L865.1,551.2L863.1,548.7L862.4,546.5L862.1,539.2L860.7,534.7L858.1,532.2L838.7,517.8L836.1,513.8L835.5,510.9L828.0,513.0L821.5,515.1L818.8,517.2L815.7,517.8L811.4,517.1L807.1,515.2L799.5,508.1L792.4,502.2L788.8,506.3L788.1,512.1L781.5,519.7L778.6,527.1L780.3,532.5L782.3,537.6L780.9,540.3L777.7,541.0L772.3,545.7L765.4,544.4L756.3,538.4L747.0,532.6Z " data-id="AZ.NE" data-name="Neftçala" id="AZ.NE"/>
utf-8utf-8<path d="M774.6,289.4L754.0,273.0L743.8,270.0L735.0,264.6L726.6,257.7L721.9,253.2L716.9,249.5L706.1,243.0L695.2,240.2L688.8,244.1L683.2,248.9L682.8,257.9L685.5,267.2L683.2,271.3L681.4,275.4L683.6,278.1L686.7,280.2L688.2,283.7L689.1,287.7L691.3,292.2L692.9,296.8L693.4,300.6L694.9,303.7L697.7,306.7L697.3,310.3L694.8,317.9L694.7,322.3L692.0,324.8L687.6,327.4L689.4,330.6L696.2,330.4L703.2,329.7L712.7,334.1L722.2,333.2L728.8,335.5L739.1,341.1L741.5,337.8L751.7,325.6L757.4,323.8L760.2,320.4L761.9,315.6L766.4,312.9L771.8,311.9L776.7,309.7L781.0,305.9L784.9,301.4L787.3,295.1L774.6,289.4Z " data-id="AZ.QO" data-name="Qobustan" id="AZ.QO"/>
utf-8utf-8<path d="M695.7,212.2L701.6,211.9L706.9,209.9L712.9,208.1L718.0,204.9L718.6,198.4L720.7,195.5L724.3,194.3L728.9,197.4L731.8,205.3L736.8,208.1L742.2,209.9L750.1,214.0L758.1,216.4L766.9,217.2L774.7,215.1L781.3,214.0L788.4,214.1L789.1,213.8L787.2,211.8L761.3,189.8L750.1,177.0L743.8,161.7L742.2,159.4L739.7,159.7L723.8,149.5L718.5,151.1L713.4,153.2L700.8,153.2L696.6,160.6L701.3,167.9L703.2,176.0L702.2,179.6L700.3,182.5L693.6,183.7L689.2,187.0L687.8,192.6L691.3,202.4L695.7,212.2Z " data-id="AZ.SY" data-name="Siyəzən" id="AZ.SY"/>
utf-8utf-8<path d="M699.1,477.6L703.5,473.4L711.8,471.8L719.2,468.0L722.3,461.6L720.8,454.1L717.5,449.3L715.7,443.7L716.1,439.8L715.3,435.5L708.2,428.6L700.1,425.4L691.8,420.8L683.4,416.9L678.9,416.6L675.5,418.8L674.1,420.6L671.8,420.4L668.7,418.5L666.3,415.3L667.5,409.0L663.2,406.0L658.5,404.1L652.5,405.0L647.0,407.7L638.6,412.5L635.0,412.9L631.1,408.5L629.4,412.0L628.4,415.8L633.3,420.7L635.1,425.7L631.8,435.5L631.4,441.3L634.2,446.3L638.0,450.6L649.3,454.1L659.2,461.2L659.0,466.7L660.7,476.5L664.5,481.6L669.6,486.2L677.6,477.4L688.8,483.2L698.5,487.7L704.3,479.7L699.1,477.6Z " data-id="AZ.ST" data-name="Saatlı" id="AZ.ST"/>
utf-8utf-8<path d="M734.7,403.5L730.9,402.4L720.5,400.8L718.2,399.9L716.2,396.9L708.5,395.2L703.5,392.8L702.3,392.8L699.0,383.3L698.8,380.6L694.4,378.6L677.7,374.5L661.1,374.3L655.9,377.3L652.1,381.7L647.0,384.8L643.3,389.0L642.4,391.9L640.5,395.5L642.2,397.5L642.4,400.0L640.5,401.6L637.2,402.5L634.0,405.2L631.1,408.5L635.0,412.9L638.6,412.5L647.0,407.7L652.5,405.0L658.5,404.1L663.2,406.0L667.5,409.0L666.3,415.3L668.7,418.5L671.8,420.4L674.1,420.6L675.5,418.8L678.9,416.6L683.4,416.9L691.8,420.8L700.1,425.4L708.2,428.6L715.3,435.5L716.1,439.8L715.7,443.7L717.5,449.3L720.8,454.1L722.3,461.6L719.2,468.0L711.8,471.8L703.5,473.4L699.1,477.6L704.3,479.7L712.3,480.9L720.6,484.1L729.8,487.0L739.1,489.7L745.3,489.2L751.6,488.5L756.3,490.9L760.7,492.6L760.8,489.0L759.1,484.0L763.9,481.3L766.9,477.7L770.0,476.5L771.9,474.3L773.1,468.3L774.4,465.2L773.7,462.9L770.4,459.8L763.9,454.8L762.9,453.0L764.3,448.2L760.6,442.1L759.2,434.8L751.6,425.3L751.4,424.5L750.0,423.4L746.4,421.9L743.0,417.5L742.4,414.5L741.6,408.1L734.7,403.5Z " data-id="AZ.SB" data-name="Sabirabad" id="AZ.SB"/>
utf-8utf-8<path d="M828.7,440.8L822.7,436.7L819.4,433.2L815.7,430.8L807.2,433.0L800.9,431.8L791.8,431.1L782.4,429.7L774.7,426.1L767.0,421.7L760.7,422.1L754.9,422.7L752.8,425.0L751.4,424.5L751.6,425.3L759.2,434.8L760.6,442.1L764.3,448.2L762.9,453.0L763.9,454.8L770.4,459.8L773.7,462.9L774.4,465.2L773.1,468.3L771.9,474.3L770.0,476.5L766.9,477.7L763.9,481.3L759.1,484.0L760.8,489.0L760.7,492.6L756.3,490.9L751.6,488.5L745.3,489.2L739.1,489.7L737.5,500.9L738.8,512.2L743.2,516.4L747.4,521.0L747.6,526.7L747.0,532.6L756.3,538.4L765.4,544.4L772.3,545.7L777.7,541.0L780.9,540.3L782.3,537.6L780.3,532.5L778.6,527.1L781.5,519.7L788.1,512.1L788.8,506.3L792.4,502.2L799.5,508.1L807.1,515.2L811.4,517.1L815.7,517.8L818.8,517.2L821.5,515.1L828.0,513.0L835.5,510.9L834.8,507.9L834.7,503.5L835.1,498.4L835.9,493.6L837.3,490.0L836.4,486.3L838.7,480.8L841.6,476.4L841.6,476.4L838.5,469.9L836.3,462.5L834.0,453.2L834.9,444.8L828.7,440.8Z " data-id="AZ.SL" data-name="Salyan" id="AZ.SL"/>
utf-8utf-8<path d="M654.1,208.4L641.7,204.0L627.1,200.3L612.8,200.2L622.4,208.5L632.9,214.5L636.1,224.0L632.5,233.3L634.7,236.2L636.5,239.1L643.1,244.2L647.8,250.9L645.4,258.9L646.3,262.6L644.5,266.2L638.2,272.9L638.1,281.9L644.4,287.8L651.6,290.4L664.0,290.8L668.2,292.6L672.3,295.1L676.6,296.9L680.0,299.1L678.0,302.3L666.4,307.6L659.9,313.4L660.9,323.8L658.4,328.2L655.4,332.6L662.9,334.2L670.2,336.1L678.3,340.0L693.3,346.2L698.5,343.5L702.6,338.0L703.2,329.7L696.2,330.4L689.4,330.6L687.6,327.4L692.0,324.8L694.7,322.3L694.8,317.9L697.3,310.3L697.7,306.7L694.9,303.7L693.4,300.6L692.9,296.8L691.3,292.2L689.1,287.7L688.2,283.7L686.7,280.2L683.6,278.1L681.4,275.4L683.2,271.3L685.5,267.2L682.8,257.9L683.2,248.9L688.8,244.1L695.2,240.2L686.4,231.0L686.4,220.2L676.5,215.7L666.6,211.6L654.1,208.4Z " data-id="AZ.SI" data-name="Şamaxı" id="AZ.SI"/>
utf-8utf-8<path d="M861.5,277.4L854.1,272.2L851.0,270.7L847.3,269.8L839.6,269.4L837.0,268.4L829.3,263.2L827.6,261.3L826.6,261.9L820.8,262.6L820.1,266.9L827.9,271.1L835.3,277.6L839.2,282.4L843.2,286.9L852.3,287.7L860.7,284.8L861.6,282.4L862.5,279.9L862.6,277.8L862.6,277.8L861.5,277.4Z " data-id="AZ.SQ" data-name="Sumqayıt" id="AZ.SQ"/>
utf-8utf-8<path d="M482.6,288.8L476.0,289.5L471.5,292.7L471.7,306.8L475.4,312.2L480.8,314.8L484.5,319.8L496.1,326.2L507.5,333.3L514.8,341.0L519.1,340.4L522.9,337.8L531.7,337.5L541.2,338.6L550.8,337.1L560.7,336.5L564.3,332.0L566.4,326.2L566.3,317.7L565.4,308.8L560.4,307.1L555.9,307.6L548.8,306.7L541.7,303.9L528.6,298.2L525.0,297.9L522.5,300.2L519.3,301.9L514.7,300.2L509.7,296.9L504.6,294.5L497.8,296.8L493.5,294.1L489.8,290.8L482.6,288.8Z " data-id="AZ.UC" data-name="Ucar" id="AZ.UC"/>
utf-8utf-8<path d="M695.7,212.2L690.7,215.5L686.4,220.2L686.4,231.0L695.2,240.2L706.1,243.0L716.9,249.5L721.9,253.2L726.6,257.7L735.0,264.6L743.8,270.0L754.0,273.0L774.6,289.4L787.3,295.1L800.2,294.7L810.6,289.9L810.5,281.8L813.8,276.5L817.8,272.5L820.1,266.9L820.8,262.6L826.6,261.9L827.6,261.3L827.6,261.3L822.8,256.0L822.0,247.2L823.3,239.2L823.1,234.5L820.7,232.4L816.8,230.6L812.9,227.0L808.9,224.3L805.2,225.3L796.2,220.7L791.8,217.7L789.5,214.3L789.1,213.8L788.4,214.1L781.3,214.0L774.7,215.1L766.9,217.2L758.1,216.4L750.1,214.0L742.2,209.9L736.8,208.1L731.8,205.3L728.9,197.4L724.3,194.3L720.7,195.5L718.6,198.4L718.0,204.9L712.9,208.1L706.9,209.9L701.6,211.9L695.7,212.2Z " data-id="AZ.XI" data-name="Xizı" id="AZ.XI"/>
utf-8utf-8<path d="M707.9,619.3L701.0,615.5L697.0,616.3L693.0,617.6L681.2,618.1L681.2,618.2L679.2,623.4L672.6,627.8L640.8,633.4L640.5,637.9L632.2,643.4L631.0,645.9L633.2,655.0L637.9,661.2L651.1,670.2L676.9,681.4L679.5,683.2L680.3,685.1L684.0,683.1L687.6,676.6L687.6,671.9L688.5,667.6L690.8,663.7L693.5,660.3L697.0,658.0L700.1,655.0L714.7,645.7L728.3,635.3L718.9,633.9L714.0,625.2L707.9,619.3Z " data-id="AZ.YR" data-name="Yardımlı" id="AZ.YR"/>
utf-8utf-8<path d="M550.8,337.1L541.2,338.6L531.7,337.5L522.9,337.8L519.1,340.4L514.8,341.0L507.5,333.3L496.1,326.2L484.5,319.8L483.3,325.6L481.7,331.1L477.2,336.9L474.3,339.6L474.8,340.3L475.0,341.4L489.4,343.1L488.3,344.8L485.3,346.2L483.5,349.2L483.6,349.3L484.0,350.0L486.3,351.9L491.4,359.1L497.6,366.7L500.2,365.9L502.7,363.5L505.8,361.6L510.1,362.1L511.9,363.3L514.7,366.7L516.8,366.9L519.7,365.4L522.1,366.7L526.2,360.3L528.3,360.2L530.2,365.9L532.1,368.7L535.1,369.5L535.9,369.6L538.4,369.8L540.9,370.9L541.6,373.5L543.6,378.9L544.0,379.4L546.5,383.2L549.9,382.2L551.5,381.3L553.4,381.6L555.2,382.3L559.0,379.3L563.7,377.0L566.9,372.9L568.8,368.0L563.7,352.5L560.7,336.5L550.8,337.1Z " data-id="AZ.ZR" data-name="Zərdab" id="AZ.ZR"/>
utf-8utf-8<path d="M535.1,369.5L532.1,368.7L530.2,365.9L528.3,360.2L526.2,360.3L522.1,366.7L519.7,365.4L516.8,366.9L514.7,366.7L511.9,363.3L510.1,362.1L505.8,361.6L502.7,363.5L500.2,365.9L497.6,366.7L491.4,359.1L486.3,351.9L484.0,350.0L483.6,349.3L470.7,359.9L457.7,369.1L452.1,370.9L446.2,367.5L440.9,364.0L442.0,367.4L436.0,374.3L428.7,379.3L428.9,384.2L435.1,388.5L431.0,392.6L424.8,394.6L426.4,406.6L422.5,409.6L428.5,420.2L450.7,420.5L458.2,419.4L463.5,425.6L461.2,433.2L460.1,434.3L458.8,435.1L461.0,438.3L465.2,444.6L475.1,449.9L479.4,458.3L476.2,467.4L489.2,464.0L502.3,460.8L497.9,455.7L494.6,451.4L498.6,448.0L495.1,441.7L497.2,436.9L502.2,434.8L503.0,432.5L504.7,431.2L509.1,431.5L513.3,431.2L518.5,428.9L524.2,427.4L528.3,422.2L529.5,414.5L529.5,404.4L529.2,393.9L531.5,385.7L535.9,369.6L535.1,369.5Z " data-id="AZ.AC" data-name="Ağcabədi" id="AZ.AC"/>
utf-8utf-8<path d="M213.3,67.7L217.7,68.5L223.6,71.2L228.9,70.7L237.1,64.4L242.9,63.2L248.7,61.3L253.2,58.1L256.2,53.2L257.0,46.7L258.5,40.8L262.9,37.1L267.7,34.0L273.6,29.6L278.4,23.9L279.3,16.5L277.1,11.7L275.2,13.2L268.4,14.5L265.1,15.7L260.3,20.2L257.6,21.9L254.3,22.0L250.7,19.6L248.9,16.0L248.0,7.4L246.1,3.4L242.6,1.7L234.3,0.7L229.6,0.9L225.6,0.0L221.6,12.4L219.0,17.9L213.2,26.3L211.0,28.3L208.5,29.6L204.9,29.9L196.3,28.2L192.6,28.6L189.8,31.8L189.7,39.1L192.0,49.8L196.3,59.4L201.8,63.0L203.1,61.8L204.4,58.3L206.8,58.2L212.7,66.1L213.3,67.7Z " data-id="AZ.BL" data-name="Balakən" id="AZ.BL"/>
utf-8utf-8<path d="M488.0,148.1L484.4,147.5L478.7,145.0L479.9,153.1L482.4,158.2L481.7,168.6L478.8,178.6L475.3,187.8L477.0,192.8L477.5,198.0L473.6,207.4L472.6,219.8L475.0,232.9L474.6,238.5L468.7,240.2L471.3,249.6L473.6,258.9L478.8,263.3L485.2,266.3L491.0,263.0L497.6,261.5L503.8,261.3L509.1,258.7L512.7,253.3L516.0,247.6L518.4,241.3L522.7,237.3L530.0,234.0L535.8,228.9L535.0,224.0L534.6,219.3L539.2,218.0L543.5,214.1L542.7,207.4L537.0,200.7L533.7,193.7L535.2,188.8L540.3,189.6L541.0,186.2L541.1,182.3L542.3,178.7L544.5,175.7L528.9,168.3L521.7,155.6L515.0,154.6L508.3,153.2L501.9,149.8L500.0,147.1L488.0,148.1Z " data-id="AZ.QA" data-name="Qəbələ" id="AZ.QA"/>
utf-8utf-8<path d="M468.6,140.8L465.0,140.4L461.8,141.6L456.4,145.4L452.8,145.4L449.1,143.0L442.8,136.7L438.7,135.5L420.1,133.9L418.5,133.4L419.1,153.5L412.5,176.2L412.2,184.9L416.2,189.9L420.9,193.9L420.8,196.8L422.9,198.8L425.2,198.0L427.8,198.2L431.5,206.6L434.7,210.4L438.3,213.5L456.3,224.6L475.0,232.9L472.6,219.8L473.6,207.4L477.5,198.0L477.0,192.8L475.3,187.8L478.8,178.6L481.7,168.6L482.4,158.2L479.9,153.1L478.7,145.0L468.6,140.8Z " data-id="AZ.OG" data-name="Oğuz" id="AZ.OG"/>
utf-8utf-8<path d="M374.6,84.2L371.0,82.0L369.1,78.9L367.8,75.3L365.7,71.6L362.3,68.7L358.9,67.9L352.6,69.8L345.6,70.7L340.5,79.6L330.5,81.7L318.4,78.4L306.6,77.8L298.2,80.5L294.2,89.0L290.8,100.5L285.0,109.5L284.9,115.5L285.1,115.6L286.7,117.4L290.8,120.9L297.9,128.6L297.7,131.8L296.5,135.1L297.1,138.8L293.5,144.9L293.0,150.6L293.6,157.9L293.5,164.8L292.8,166.0L298.7,169.6L306.8,169.9L314.6,173.8L319.0,185.9L322.5,190.8L324.5,196.5L340.5,200.8L357.0,208.2L351.4,183.9L335.5,165.8L326.7,162.0L324.0,153.7L323.0,143.5L325.0,135.5L327.8,133.2L329.4,130.2L330.3,126.3L332.5,123.0L338.5,119.1L359.5,109.8L372.1,100.8L374.8,94.0L374.8,85.5L375.1,84.5L374.6,84.2Z " data-id="AZ.QX" data-name="Qax" id="AZ.QX"/>
utf-8utf-8<path d="M414.2,132.0L399.3,124.7L395.6,121.9L392.8,117.0L390.8,105.9L389.0,100.7L387.2,98.2L380.4,91.9L376.7,85.8L375.1,84.5L374.8,85.5L374.8,94.0L372.1,100.8L359.5,109.8L338.5,119.1L332.5,123.0L330.3,126.3L329.4,130.2L327.8,133.2L325.0,135.5L323.0,143.5L324.0,153.7L326.7,162.0L335.5,165.8L351.4,183.9L357.0,208.2L374.5,215.7L392.0,223.9L406.6,229.0L421.1,234.3L428.7,235.7L436.3,237.4L441.1,239.2L445.4,239.2L448.3,237.7L455.0,240.0L462.0,241.4L468.7,240.2L474.6,238.5L475.0,232.9L456.3,224.6L438.3,213.5L434.7,210.4L431.5,206.6L427.8,198.2L425.2,198.0L422.9,198.8L420.8,196.8L420.9,193.9L416.2,189.9L412.2,184.9L412.5,176.2L419.1,153.5L418.5,133.4L414.2,132.0Z M394.1,154.9L391.8,156.1L384.2,154.2L383.9,151.0L385.5,139.1L387.1,137.7L389.6,139.2L394.4,144.9L395.8,149.2L394.1,154.9Z " data-id="AZ.SK" data-name="Şəki" id="AZ.SK"/>
utf-8utf-8<path d="M653.0,112.2L644.9,114.5L641.0,110.7L632.1,98.9L626.2,92.6L621.1,86.3L612.4,91.4L602.6,94.4L590.9,100.5L580.9,109.6L550.8,131.8L521.7,155.6L528.9,168.3L544.5,175.7L549.9,176.8L555.3,177.2L560.7,179.2L576.7,186.8L587.1,190.9L600.7,191.7L612.8,200.2L627.1,200.3L641.7,204.0L654.1,208.4L666.6,211.6L665.2,202.1L662.5,194.1L658.8,188.9L661.2,184.2L665.0,181.0L666.2,175.6L658.1,167.9L649.2,161.0L651.6,150.8L659.2,143.4L662.6,138.1L661.9,135.0L659.0,132.4L657.0,123.7L657.1,115.0L653.0,112.2Z " data-id="AZ.QB" data-name="Quba" id="AZ.QB"/>
utf-8utf-8<path d="M617.1,77.4L612.4,71.1L614.4,67.3L613.6,63.1L609.0,62.0L604.2,61.6L598.8,51.3L600.3,40.1L594.6,35.5L590.2,35.9L589.3,37.3L585.9,55.7L583.7,61.8L580.5,65.8L567.2,74.4L559.6,81.6L554.9,84.2L535.4,87.7L530.3,91.0L528.2,96.9L525.7,112.1L522.2,114.1L517.5,113.4L516.0,115.2L515.2,122.4L513.2,125.2L511.2,126.8L510.0,128.8L510.4,133.3L513.7,140.4L513.3,142.5L509.7,144.8L502.7,146.9L500.0,147.1L501.9,149.8L508.3,153.2L515.0,154.6L521.7,155.6L550.8,131.8L580.9,109.6L590.9,100.5L602.6,94.4L612.4,91.4L621.1,86.3L617.1,77.4Z " data-id="AZ.QR" data-name="Qusar" id="AZ.QR"/>
utf-8utf-8<path d="M715.6,113.0L706.5,101.0L703.1,97.4L696.9,95.4L689.5,87.8L684.5,81.8L680.9,79.0L677.1,77.8L667.5,64.6L652.8,52.4L650.6,47.2L647.4,43.9L640.2,38.4L620.4,19.0L613.1,14.0L607.0,11.0L604.9,9.6L599.1,21.8L590.2,35.9L594.6,35.5L600.3,40.1L598.8,51.3L604.2,61.6L609.0,62.0L613.6,63.1L614.4,67.3L612.4,71.1L617.1,77.4L621.1,86.3L626.2,92.6L632.1,98.9L641.0,110.7L644.9,114.5L653.0,112.2L657.1,115.0L662.7,114.4L667.8,112.1L673.7,113.9L679.9,114.3L687.3,111.5L695.7,112.2L705.2,113.7L714.6,113.4L715.6,113.1L715.6,113.0Z " data-id="AZ.XZ" data-name="Xaçmaz" id="AZ.XZ"/>
utf-8utf-8<path d="M345.4,70.7L342.0,66.7L339.1,60.4L333.4,54.0L323.3,47.3L314.2,36.7L307.1,35.6L303.8,33.9L290.2,24.3L288.0,21.8L286.4,19.0L283.1,10.6L281.8,8.3L280.3,8.3L278.0,11.0L277.1,11.7L279.3,16.5L278.4,23.9L273.6,29.6L267.7,34.0L262.9,37.1L258.5,40.8L257.0,46.7L256.2,53.2L253.2,58.1L248.7,61.3L242.9,63.2L237.1,64.4L228.9,70.7L223.6,71.2L217.7,68.5L213.3,67.7L216.4,75.9L219.0,80.6L222.7,84.1L233.1,89.9L239.1,91.5L248.8,98.5L267.3,105.1L276.9,109.8L281.0,115.7L283.5,114.7L284.9,115.5L285.0,109.5L290.8,100.5L294.2,89.0L298.2,80.5L306.6,77.8L318.4,78.4L330.5,81.7L340.5,79.6L345.6,70.7L345.4,70.7Z " data-id="AZ.ZQ" data-name="Zaqatala" id="AZ.ZQ"/>
utf-8utf-8<path d="M456.0,434.4L452.8,433.7L447.3,434.3L443.6,441.2L433.1,438.9L422.2,432.8L414.2,429.4L406.9,431.1L406.1,437.4L403.6,442.6L397.2,445.2L391.1,448.5L389.5,451.4L388.5,454.3L391.4,458.4L402.1,467.6L405.8,476.0L401.3,481.0L396.0,485.1L390.9,482.7L385.7,478.8L382.3,486.1L380.0,491.0L379.5,492.0L378.9,493.4L371.1,494.6L367.3,499.7L371.0,502.9L373.1,508.5L370.6,513.1L366.3,516.3L370.9,517.1L375.3,517.7L382.4,516.0L385.9,518.1L388.7,521.4L387.9,526.6L385.6,531.0L391.3,532.9L393.1,533.6L399.8,534.2L400.8,527.0L396.7,520.1L405.1,520.5L411.0,522.4L412.7,524.9L413.0,527.9L419.0,532.2L425.6,535.3L428.6,539.3L433.0,538.6L435.5,535.9L441.6,535.4L441.2,532.5L437.7,525.7L438.5,524.2L440.4,520.1L441.0,518.3L440.8,514.9L447.0,513.4L443.4,504.9L445.8,500.0L443.5,495.1L438.6,497.2L435.6,500.1L431.7,500.6L429.9,496.9L432.2,493.7L439.2,492.1L442.3,487.3L436.7,488.0L429.8,486.7L431.9,481.8L440.0,481.2L443.8,479.6L447.3,477.5L449.8,474.3L452.8,472.5L457.9,471.6L469.8,469.0L476.2,467.4L479.4,458.3L475.1,449.9L465.2,444.6L461.0,438.3L458.8,435.1L456.0,434.4Z " data-id="AZ.XD" data-name="Xocavənd" id="AZ.XD"/>
utf-8utf-8<path d="M331.6,443.0L323.1,431.0L318.8,427.7L314.3,425.2L311.8,419.6L313.0,413.1L306.1,416.2L299.1,418.8L291.4,419.9L284.4,423.1L272.7,427.1L260.2,428.8L254.3,430.6L248.4,431.3L243.0,426.7L237.8,423.1L235.3,428.4L233.3,435.6L227.8,441.1L218.9,448.3L225.3,451.1L237.1,454.3L242.8,458.7L252.1,471.9L258.5,476.1L265.6,477.9L269.0,479.6L272.1,482.5L277.6,490.0L280.7,492.4L284.9,493.5L290.8,492.3L301.8,486.4L308.0,486.9L310.9,488.8L316.1,494.2L319.1,496.0L322.7,496.6L333.7,495.6L336.7,496.2L340.0,498.0L342.7,500.8L343.9,504.4L342.8,507.2L338.8,510.5L339.4,514.1L341.1,516.4L341.4,518.4L340.5,520.0L338.5,521.0L338.5,521.0L346.0,525.2L354.2,526.1L360.2,521.0L366.3,516.3L370.6,513.1L373.1,508.5L371.0,502.9L367.3,499.7L371.1,494.6L378.9,493.4L378.2,491.4L376.8,487.2L373.4,482.5L368.4,482.0L363.9,483.6L360.0,492.3L352.8,493.1L349.3,490.5L341.3,487.5L339.5,481.7L340.8,475.7L342.7,470.2L340.3,463.4L337.2,456.6L331.6,443.0Z " data-id="AZ.SU" data-name="Lankaran" id="AZ.SU"/>
utf-8utf-8<path d="M387.9,526.6L388.7,521.4L385.9,518.1L382.4,516.0L375.3,517.7L370.9,517.1L366.3,516.3L360.2,521.0L354.2,526.1L346.0,525.2L338.5,521.0L325.9,523.4L320.8,526.7L319.6,532.3L323.3,539.1L329.9,543.4L343.7,548.9L347.0,551.1L350.5,557.8L352.8,561.0L357.9,565.3L369.2,572.8L369.6,573.3L375.1,573.9L380.0,589.7L388.0,593.9L391.8,586.7L396.5,580.3L402.7,575.9L409.2,572.1L402.6,568.1L395.8,564.6L391.9,558.4L390.0,551.2L385.7,546.4L382.2,541.6L382.1,534.8L385.6,531.0L387.9,526.6Z " data-id="AZ.QD" data-name="Qubadli" id="AZ.QD"/>
utf-8utf-8<path d="M367.4,452.5L359.1,451.2L351.7,452.1L345.0,455.5L341.1,456.0L337.2,456.6L340.3,463.4L342.7,470.2L340.8,475.7L339.5,481.7L341.3,487.5L349.3,490.5L352.8,493.1L360.0,492.3L363.9,483.6L368.4,482.0L373.4,482.5L376.8,487.2L378.2,491.4L378.9,493.4L379.5,492.0L380.0,491.0L382.3,486.1L385.7,478.8L385.0,474.8L384.1,470.5L382.5,464.3L379.2,456.8L377.6,457.9L376.6,459.2L373.8,459.4L371.9,458.1L371.2,455.8L372.2,453.6L367.4,452.5Z " data-id="AZ.SU" data-name="Şuşa" id="AZ.SU"/>
utf-8utf-8<path d="M381.6,311.1L378.2,307.5L376.6,303.9L374.6,300.6L371.2,304.3L367.9,307.9L358.8,314.9L355.4,317.0L348.8,317.2L342.2,317.0L334.1,320.6L326.6,325.5L317.5,329.0L313.7,335.1L312.8,336.5L312.9,340.3L312.4,343.8L309.5,346.6L310.2,354.5L316.6,369.3L320.1,375.2L323.9,374.0L327.2,371.1L338.0,372.1L348.4,380.0L353.6,383.3L359.9,392.5L364.9,396.9L364.2,389.1L365.7,383.3L369.4,378.9L369.3,371.5L378.0,367.4L388.2,362.3L386.5,358.9L387.2,356.2L389.6,356.9L391.8,358.6L396.4,359.4L400.2,357.8L404.3,361.7L407.0,367.3L412.0,368.6L413.8,368.4L416.8,368.0L415.2,363.9L413.3,359.9L411.4,352.5L409.5,338.9L404.0,337.2L399.1,333.6L395.0,328.4L392.1,326.7L389.7,324.4L387.6,319.4L385.4,314.4L381.6,311.1Z " data-id="AZ.TA" data-name="Tərtər" id="AZ.TA"/>
utf-8utf-8<path d="M393.1,442.3L396.0,435.3L398.7,430.8L399.1,424.9L391.2,421.8L383.9,416.2L377.6,406.6L368.3,402.5L361.4,404.4L354.3,400.2L347.2,401.4L341.4,404.6L338.5,410.0L333.6,413.0L328.1,409.7L322.2,407.2L314.2,412.4L313.0,413.1L311.8,419.6L314.3,425.2L318.8,427.7L323.1,431.0L331.6,443.0L337.2,456.6L341.1,456.0L345.0,455.5L351.7,452.1L359.1,451.2L367.4,452.5L372.2,453.6L375.5,454.3L379.2,456.8L382.5,464.3L384.1,470.5L385.0,474.8L385.7,478.8L390.9,482.7L396.0,485.1L401.3,481.0L405.8,476.0L402.1,467.6L391.4,458.4L388.5,454.3L389.5,451.4L391.1,448.5L393.1,442.3Z M377.4,445.6L374.4,447.4L371.2,445.6L369.7,440.6L371.9,436.5L374.2,434.4L378.7,435.1L380.5,437.6L380.2,439.3L378.7,439.4L377.4,445.6Z " data-id="AZ.XC" data-name="Xocalı" id="AZ.XC"/>
utf-8utf-8<path d="M409.2,572.1L402.7,575.9L396.5,580.3L391.8,586.7L388.0,593.9L380.0,589.7L375.1,573.9L369.6,573.3L370.5,574.8L369.0,575.6L365.3,575.7L358.1,581.3L356.0,581.6L344.2,576.4L337.8,575.6L334.4,579.3L335.8,586.0L341.1,590.4L347.7,593.6L352.6,596.9L356.2,604.1L358.3,610.3L358.9,616.5L357.8,623.4L357.7,630.1L359.6,635.4L368.1,647.9L371.3,647.7L374.9,646.2L381.8,639.7L383.2,636.5L386.4,626.6L388.3,623.6L391.1,621.0L400.5,615.9L402.9,613.2L404.7,606.6L406.2,603.3L412.0,598.3L415.2,590.7L417.1,588.0L419.4,585.8L419.5,585.8L419.4,585.7L416.7,579.7L409.2,572.1Z " data-id="AZ.ZG" data-name="Zəngilan" id="AZ.ZG"/>
utf-8utf-8<path d="M52.1,463.8L46.3,465.2L38.5,465.0L30.5,466.5L25.8,468.6L28.1,471.3L31.6,479.5L34.7,482.9L37.5,484.3L40.8,475.8L46.9,469.0L53.4,467.0L56.5,462.6L56.2,461.3L52.1,463.8Z " data-id="AZ.SD" data-name="Sədərək" id="AZ.SD"/>
utf-8utf-8<path d="M242.6,557.7L233.5,570.6L233.0,574.0L232.4,582.1L231.5,586.2L227.7,599.3L221.7,608.3L221.4,615.9L221.0,618.0L221.8,620.3L228.9,624.6L235.2,629.8L232.8,635.4L237.2,637.0L276.1,644.6L288.9,649.7L299.7,652.2L301.4,652.0L287.6,632.9L273.8,608.1L268.9,601.1L263.1,594.8L258.3,588.9L255.6,583.1L255.7,577.5L259.9,570.6L260.0,569.1L257.8,565.7L253.6,562.4L242.6,557.7Z " data-id="AZ.OR" data-name="Ordubad" id="AZ.OR"/>
utf-8utf-8<path d="M56.2,461.3L56.5,462.6L53.4,467.0L46.9,469.0L40.8,475.8L37.5,484.3L38.2,484.6L42.2,485.3L46.3,485.5L45.4,487.1L49.6,489.6L52.6,494.3L61.7,515.3L64.7,519.7L69.0,522.8L68.0,525.4L68.9,527.0L74.0,530.1L78.3,530.6L80.4,533.2L87.5,537.3L94.4,531.9L98.6,523.0L99.5,510.1L101.2,498.4L97.3,496.3L96.0,493.1L96.4,485.3L95.7,480.2L94.2,476.2L91.7,472.6L75.7,456.7L69.1,453.9L62.9,456.0L57.2,460.8L56.2,461.3Z " data-id="AZ.SR" data-name="Şərur" id="AZ.SR"/>
utf-8utf-8<path d="M143.0,508.6L139.6,507.1L131.0,506.3L128.2,505.3L126.0,502.9L123.1,498.4L117.6,492.5L116.4,493.9L113.4,499.8L112.4,506.4L111.8,513.1L111.6,519.0L113.7,524.8L117.4,530.5L119.9,536.6L118.6,541.3L122.0,546.5L122.1,551.3L118.9,553.6L114.7,555.7L110.3,557.0L101.8,554.3L103.3,556.6L106.9,561.1L110.7,572.0L112.4,575.3L116.8,573.9L136.4,579.8L139.4,577.9L141.1,578.1L142.1,583.4L146.5,584.7L149.2,586.1L150.6,588.5L149.7,591.7L151.2,593.9L154.8,596.0L156.8,597.7L161.3,606.0L167.8,609.0L168.9,610.5L168.3,616.4L169.1,618.8L171.5,621.1L175.8,623.6L185.3,626.7L189.4,628.8L190.2,629.0L188.0,620.7L189.9,617.9L190.4,614.9L184.6,608.2L179.9,601.0L182.0,594.2L181.1,586.3L175.5,582.9L169.5,580.9L154.3,582.5L140.5,573.9L146.4,568.8L156.3,569.3L167.4,568.6L178.5,568.4L183.2,565.1L180.1,558.9L177.2,559.4L175.0,556.4L174.6,552.1L170.0,547.5L152.4,539.9L147.3,530.6L143.2,529.1L140.1,527.2L143.3,521.0L148.2,516.4L149.6,514.1L143.0,508.6Z " data-id="AZ.BB" data-name="Babək" id="AZ.BB"/>
utf-8utf-8<path d="M239.7,556.4L234.9,553.3L230.9,549.8L226.7,547.0L216.2,544.5L215.5,543.4L208.2,554.1L203.7,553.2L198.9,549.2L194.2,551.9L187.0,554.8L180.1,558.9L183.2,565.1L178.5,568.4L176.2,576.3L169.5,580.9L175.5,582.9L181.1,586.3L182.0,594.2L179.9,601.0L184.6,608.2L190.4,614.9L189.9,617.9L188.0,620.7L190.2,629.0L191.6,629.3L196.6,629.4L207.2,631.8L223.1,632.0L232.8,635.4L235.2,629.8L228.9,624.6L221.8,620.3L221.0,618.0L221.4,615.9L221.7,608.3L227.7,599.3L231.5,586.2L232.4,582.1L233.0,574.0L233.5,570.6L242.6,557.7L239.7,556.4Z " data-id="AZ.CF" data-name="Culfa" id="AZ.CF"/>
utf-8utf-8<path d="M176.2,576.3L178.5,568.4L167.4,568.6L156.3,569.3L146.4,568.8L140.5,573.9L154.3,582.5L169.5,580.9L176.2,576.3Z " data-id="AZ.NX" data-name="Naxçıvan" id="AZ.NX"/>
utf-8utf-8<path d="M214.1,541.2L214.4,536.8L218.7,527.4L218.8,524.0L215.4,514.0L214.9,508.5L214.2,504.8L212.1,502.0L207.6,499.3L202.3,497.5L176.4,502.8L172.0,504.7L159.3,513.3L153.8,515.4L149.6,514.1L149.6,514.1L148.2,516.4L143.3,521.0L140.1,527.2L143.2,529.1L147.3,530.6L152.4,539.9L170.0,547.5L174.6,552.1L175.0,556.4L177.2,559.4L180.1,558.9L187.0,554.8L194.2,551.9L198.9,549.2L203.7,553.2L208.2,554.1L215.5,543.4L214.1,541.2Z " data-id="AZ.SH" data-name="Şahbuz" id="AZ.SH"/>
utf-8utf-8<path d="M377.4,445.6L378.7,439.4L380.2,439.3L380.5,437.6L378.7,435.1L374.2,434.4L371.9,436.5L369.7,440.6L371.2,445.6L374.4,447.4L377.4,445.6Z " data-id="AZ.XC" data-name="Stepanakert" id="AZ.XC"/>
utf-8utf-8<path d="M357.4,297.2L358.8,296.0L357.4,293.0L355.8,291.9L353.6,294.9L354.5,296.2L357.4,297.2Z " data-id="AZ.NA" data-name="Naftalan" id="AZ.NA"/>
utf-8utf-8<path d="M792.2,675.5L788.1,668.6L784.8,670.8L787.1,680.6L788.3,682.1L790.5,681.0L792.6,677.4L792.2,675.5Z " data-id="AZ.LA" data-name="Lankaran" id="AZ.LA"/>
utf-8utf-8<path d="M757.1,420.1L758.9,417.4L757.9,411.0L756.7,409.1L754.8,408.2L748.2,408.3L744.1,407.3L741.6,408.1L742.4,414.5L743.0,417.5L746.4,421.9L750.0,423.4L751.4,424.5L752.8,425.0L754.9,422.7L757.1,420.1Z " data-id="AZ.AB" data-name="Shirvan" id="AZ.AB"/>
utf-8utf-8<path d="M394.1,154.9L395.8,149.2L394.4,144.9L389.6,139.2L387.1,137.7L385.5,139.1L383.9,151.0L384.2,154.2L391.8,156.1L394.1,154.9Z " data-id="AZ.SA" data-name="Şəki" id="AZ.SA"/>
utf-8utf-8<path d="M375.5,454.3L372.2,453.6L371.2,455.8L371.9,458.1L373.8,459.4L376.6,459.2L377.6,457.9L379.2,456.8L375.5,454.3Z " data-id="AZ.SS" data-name="Şuşa" id="AZ.SS"/>
utf-8utf-8<path d="M416.2,279.1L414.8,275.1L415.9,269.8L415.7,267.1L414.7,266.4L400.8,266.4L398.6,270.9L402.5,277.9L408.7,281.0L414.9,281.3L416.2,279.1Z " data-id="AZ.YE" data-name="Yevlakh" id="AZ.YE"/>
utf-8utf-8<path d="M116.2,491.0L111.7,492.5L107.5,496.9L101.2,498.4L99.5,510.1L98.6,523.0L94.4,531.9L87.5,537.3L87.6,537.4L91.5,542.3L95.5,545.3L97.3,547.4L101.8,554.3L110.3,557.0L114.7,555.7L118.9,553.6L122.1,551.3L122.0,546.5L118.6,541.3L119.9,536.6L117.4,530.5L113.7,524.8L111.6,519.0L111.8,513.1L112.4,506.4L113.4,499.8L116.4,493.9L117.6,492.5L116.2,491.0Z " data-id="AZ.KG" data-name="Kangarli" id="AZ.KG"/>
utf-8</g>
</svg>
