<?xml version="1.0" ?>
<!DOCTYPE svg
  PUBLIC '-//W3C//DTD SVG 1.1//EN'
  'http://www.w3.org/Graphics/SVG/1.1/DTD/svg11.dtd'>
<svg enable_background="new 0 0 1000 1528" height="1528px" pretty_print="True" style="stroke-linejoin: round; stroke:#000; fill: none;" version="1.1" viewBox="0 0 1000 1528" width="1000px" xmlns="http://www.w3.org/2000/svg" xmlns:xlink="http://www.w3.org/1999/xlink">
utf-8<defs>
utf-8utf-8<style type="text/css">
<![CDATA[path { fill-rule: evenodd; }]]>utf-8utf-8</style>
utf-8</defs>
utf-8<metadata>
utf-8utf-8<views>
utf-8utf-8utf-8<view h="1528.1894287" padding="0" w="1000">
utf-8utf-8utf-8utf-8<proj flip="auto" id="robinson" lon0="-59.5337626708"/>
utf-8utf-8utf-8utf-8<bbox h="4.92" w="3.22" x="-876.71" y="-223.77"/>
utf-8utf-8utf-8</view>
utf-8utf-8</views>
utf-8</metadata>
utf-8<g class="" id="provinces">
utf-8utf-8<path d="M753.8,1342.4L733.6,1308.1L722.4,1301.6L697.0,1290.3L689.5,1287.6L685.4,1283.9L685.6,1281.7L680.7,1267.2L657.0,1216.1L655.9,1212.1L651.9,1155.4L645.0,1141.4L638.7,1133.9L597.0,1119.1L328.8,1229.6L333.5,1264.0L333.7,1271.0L331.7,1271.2L185.5,1354.7L246.0,1359.6L346.8,1386.5L427.9,1440.2L467.7,1526.2L500.1,1504.2L528.7,1498.7L557.8,1499.1L593.9,1494.2L697.7,1383.7L753.8,1342.5L753.8,1342.4Z " data-id="BB.CC" data-name="Christ Church" id="BB.CC"/>
utf-8utf-8<path d="M467.2,496.2L392.7,285.6L392.6,285.5L384.7,288.7L358.1,289.7L350.4,287.6L342.5,295.1L337.6,295.1L336.2,293.8L330.1,291.4L323.3,293.5L312.6,300.2L291.9,321.2L280.7,326.0L273.8,326.8L271.4,324.7L269.8,324.2L265.7,324.7L262.2,324.2L255.8,325.8L253.5,325.8L244.0,321.5L242.7,319.9L240.2,318.8L234.5,321.5L228.7,344.0L221.9,357.5L208.5,533.0L223.3,666.9L277.8,663.4L293.6,670.1L312.6,700.8L367.0,578.7L382.8,553.2L387.4,552.1L389.0,552.4L393.8,558.3L399.3,561.3L413.3,557.2L472.8,526.9L483.7,524.1L467.2,496.2Z " data-id="BB.AN" data-name="Saint Andrew" id="BB.AN"/>
utf-8utf-8<path d="M588.1,952.7L579.7,941.4L490.0,843.0L486.9,843.3L425.0,855.6L389.5,899.7L379.9,905.9L269.5,953.2L328.8,1229.6L597.0,1119.1L622.1,1034.1L588.1,952.7Z " data-id="BB.GE" data-name="Saint George" id="BB.GE"/>
utf-8utf-8<path d="M110.6,518.2L31.7,558.3L3.6,550.0L3.4,549.9L0.3,958.1L19.3,1055.7L32.3,1054.6L54.2,1079.0L59.6,1082.8L59.9,1081.7L69.6,1075.5L92.8,1064.5L101.4,1057.5L105.7,1052.7L156.7,1010.7L137.9,882.8L110.0,844.6L104.4,840.8L102.3,838.2L103.6,837.1L106.7,829.6L109.7,826.3L114.5,824.7L119.8,814.5L127.2,797.3L142.8,738.7L146.1,729.5L154.8,726.1L157.0,724.4L164.9,722.0L170.1,717.2L173.2,716.1L178.2,712.6L187.7,710.2L189.3,711.0L196.4,703.7L223.3,666.9L208.5,533.0L110.6,518.2Z " data-id="BB.JM" data-name="Saint James" id="BB.JM"/>
utf-8utf-8<path d="M781.8,807.1L715.5,762.7L602.0,660.9L590.9,666.1L511.4,743.8L503.4,744.6L500.6,754.3L499.1,761.5L490.0,843.0L579.7,941.4L588.1,952.7L622.1,1034.1L688.4,944.6L721.9,930.1L753.9,908.6L760.2,902.1L814.2,834.4L821.9,822.0L781.8,807.1Z " data-id="BB.JN" data-name="Saint John" id="BB.JN"/>
utf-8utf-8<path d="M602.0,660.9L521.7,588.7L483.7,524.1L472.8,526.9L413.3,557.2L399.3,561.3L393.8,558.3L389.0,552.4L387.4,552.1L382.8,553.2L367.0,578.7L312.6,700.8L374.2,745.7L380.2,752.1L391.5,768.5L425.0,855.6L486.9,843.3L490.0,843.0L499.1,761.5L500.6,754.3L503.4,744.6L511.4,743.8L590.9,666.1L602.0,660.9L602.0,660.9Z " data-id="BB.JS" data-name="Saint Joseph" id="BB.JS"/>
utf-8utf-8<path d="M4.9,367.7L23.0,363.4L111.2,300.5L361.3,211.8L365.6,208.9L347.0,156.2L290.7,50.8L210.0,0.0L125.5,34.3L56.2,108.4L19.8,176.5L5.7,257.2L4.9,367.7Z " data-id="BB.LU" data-name="Saint Lucy" id="BB.LU"/>
utf-8utf-8<path d="M269.5,953.2L237.4,990.9L230.7,994.1L156.7,1010.7L105.7,1052.7L101.4,1057.5L92.8,1064.5L69.6,1075.5L59.9,1081.7L59.6,1082.8L54.2,1079.0L32.3,1054.6L19.3,1055.7L45.4,1189.4L91.3,1303.5L149.6,1352.0L185.4,1354.7L185.5,1354.7L331.7,1271.2L333.7,1271.0L333.5,1264.0L328.8,1229.6L269.5,953.2Z " data-id="BB.MI" data-name="Saint Michael" id="BB.MI"/>
utf-8utf-8<path d="M365.6,208.9L365.6,208.9L361.3,211.8L111.2,300.5L23.0,363.4L4.9,367.7L3.4,549.9L3.6,550.0L31.7,558.3L110.6,518.2L208.5,533.0L221.9,357.5L228.7,344.0L234.5,321.5L240.2,318.8L242.7,319.9L244.0,321.5L253.5,325.8L255.8,325.8L262.2,324.2L265.7,324.7L269.8,324.2L271.4,324.7L273.8,326.8L280.7,326.0L291.9,321.2L312.6,300.2L323.3,293.5L330.1,291.4L336.2,293.8L337.6,295.1L342.5,295.1L350.4,287.6L358.1,289.7L384.7,288.7L392.6,285.5L365.6,208.9Z " data-id="BB.PE" data-name="Saint Peter" id="BB.PE"/>
utf-8utf-8<path d="M849.5,1272.0L974.6,1137.3L999.7,958.1L950.8,882.7L869.1,839.5L821.9,822.0L814.2,834.4L760.2,902.1L753.9,908.6L721.9,930.1L688.4,944.6L622.1,1034.1L597.0,1119.1L638.7,1133.9L645.0,1141.4L651.9,1155.4L655.9,1212.1L657.0,1216.1L680.7,1267.2L685.6,1281.7L685.4,1283.9L689.5,1287.6L697.0,1290.3L722.4,1301.6L733.6,1308.1L753.8,1342.4L849.5,1272.0Z " data-id="BB.PH" data-name="Saint Philip" id="BB.PH"/>
utf-8utf-8<path d="M293.6,670.1L277.8,663.4L223.3,666.9L196.4,703.7L189.3,711.0L187.7,710.2L178.2,712.6L173.2,716.1L170.1,717.2L164.9,722.0L157.0,724.4L154.8,726.1L146.1,729.5L142.8,738.7L127.2,797.3L119.8,814.5L114.5,824.7L109.7,826.3L106.7,829.6L103.6,837.1L102.3,838.2L104.4,840.8L110.0,844.6L137.9,882.8L156.7,1010.7L230.7,994.1L237.4,990.9L269.5,953.2L379.9,905.9L389.5,899.7L425.0,855.6L391.5,768.5L380.2,752.1L374.2,745.7L312.6,700.8L293.6,670.1Z " data-id="BB.TH" data-name="Saint Thomas" id="BB.TH"/>
utf-8</g>
</svg>
