<?xml version="1.0" ?>
<!DOCTYPE svg
  PUBLIC '-//W3C//DTD SVG 1.1//EN'
  'http://www.w3.org/Graphics/SVG/1.1/DTD/svg11.dtd'>
<svg enable_background="new 0 0 1000 1264" height="1264px" pretty_print="True" style="stroke-linejoin: round; stroke:#000; fill: none;" version="1.1" viewBox="0 0 1000 1264" width="1000px" xmlns="http://www.w3.org/2000/svg" xmlns:xlink="http://www.w3.org/1999/xlink">
utf-8<defs>
utf-8utf-8<style type="text/css">
<![CDATA[path { fill-rule: evenodd; }]]>utf-8utf-8</style>
utf-8</defs>
utf-8<metadata>
utf-8utf-8<views>
utf-8utf-8utf-8<view h="1264.93156021" padding="0" w="1000">
utf-8utf-8utf-8utf-8<proj flip="auto" id="robinson" lon0="90.4195050529"/>
utf-8utf-8utf-8utf-8<bbox h="98.71" w="78.1" x="1266.74" y="-446.47"/>
utf-8utf-8utf-8</view>
utf-8utf-8</views>
utf-8</metadata>
utf-8<g class="" id="provinces">
utf-8utf-8<path d="M545.8,702.8L536.2,697.9L529.2,695.3L524.4,695.3L524.1,697.3L526.5,700.3L533.3,706.8L537.1,709.5L540.8,710.5L543.9,708.8L544.5,706.4L548.4,707.9L556.0,713.2L553.7,708.5L545.8,702.8Z M337.3,262.2L334.3,262.8L332.0,264.5L328.6,278.3L332.3,290.0L332.2,295.4L327.2,305.2L324.7,314.4L324.2,326.0L324.5,337.3L326.5,355.4L335.5,380.4L337.8,384.6L341.1,389.9L343.4,392.0L346.9,394.3L352.9,397.4L360.2,405.0L361.8,408.9L362.7,413.4L362.3,423.2L362.4,425.6L364.0,429.7L364.4,432.4L364.0,437.8L362.4,440.5L361.8,442.8L363.9,453.6L363.6,460.3L364.7,468.4L365.4,483.8L365.8,485.9L368.3,494.1L370.0,504.4L378.1,512.4L381.4,515.9L382.3,520.6L385.7,521.5L386.8,523.4L387.9,527.7L387.7,530.8L388.4,534.3L387.1,537.8L387.8,545.4L385.6,551.4L383.7,553.7L370.1,567.6L368.7,574.2L368.7,579.0L373.1,592.1L373.6,594.7L369.5,595.9L359.5,596.9L356.7,598.2L351.7,602.0L348.6,603.1L343.7,602.1L335.2,594.9L330.6,592.3L312.9,584.8L306.2,580.4L306.1,580.4L310.1,588.8L311.2,594.9L305.7,621.4L306.6,623.4L315.8,633.8L321.0,633.4L326.3,632.2L328.4,633.2L342.0,650.7L348.9,660.6L352.2,662.6L350.8,664.7L347.6,667.6L347.6,669.2L349.6,673.5L351.9,668.8L357.4,669.4L363.6,672.7L367.8,676.4L370.1,680.7L376.3,698.4L372.0,695.3L370.6,695.3L371.5,702.2L375.4,710.3L381.0,716.1L386.5,715.9L384.9,719.3L381.8,723.1L380.7,726.3L391.0,729.2L391.9,732.9L392.0,737.3L395.3,741.1L397.6,741.4L400.5,738.7L402.5,738.2L405.3,739.3L406.6,741.3L406.3,743.2L403.1,745.0L400.9,749.3L399.9,752.4L398.0,751.6L393.8,748.3L394.0,750.7L396.4,755.6L398.2,757.1L403.1,758.7L405.3,761.5L411.3,771.9L414.9,775.7L421.7,781.5L424.7,785.1L427.3,791.0L428.4,792.5L433.8,795.5L439.8,801.4L448.0,805.7L448.1,805.8L454.5,804.6L457.5,803.9L459.9,802.3L463.6,797.5L467.2,790.7L468.9,784.7L472.8,779.6L473.9,777.1L476.6,773.7L479.7,771.7L480.6,767.7L481.8,764.4L490.5,762.6L492.6,762.9L496.6,767.0L497.8,772.5L499.3,776.0L503.6,780.7L508.8,783.6L513.2,781.9L516.7,774.5L516.3,769.7L514.6,768.6L510.0,768.7L511.1,765.2L515.1,763.1L521.8,764.1L526.5,767.5L529.3,770.1L534.6,772.6L537.5,770.6L539.0,767.3L538.5,766.0L538.9,762.4L541.0,761.4L548.0,761.6L551.4,760.7L553.8,759.3L557.1,754.2L558.6,755.6L557.0,757.1L556.5,759.3L557.2,761.1L559.5,761.6L560.5,760.4L564.4,752.7L564.3,747.6L561.6,734.9L560.0,730.8L564.7,736.0L562.9,728.4L561.6,724.9L554.8,716.0L553.1,714.6L540.7,713.2L537.7,712.1L532.1,709.3L526.0,708.0L520.4,700.6L517.1,698.0L490.8,682.5L488.7,680.2L488.5,677.7L495.5,682.2L502.9,685.0L540.3,692.5L547.0,695.3L546.8,692.0L547.4,688.2L548.4,685.0L549.6,683.7L549.8,681.4L546.5,662.2L544.7,660.5L537.8,660.2L534.7,659.6L531.4,658.4L528.5,656.2L526.5,652.8L531.7,656.1L534.2,657.0L542.3,656.1L543.0,654.3L541.5,651.3L547.8,648.2L550.8,647.9L552.5,649.9L555.1,649.9L550.8,652.2L548.6,657.2L548.8,663.3L552.9,671.8L553.8,672.6L556.2,670.6L560.6,669.0L563.8,666.7L565.9,666.9L569.5,669.0L570.1,664.6L564.4,659.7L564.7,658.8L568.0,658.7L569.2,658.9L570.5,656.2L574.1,653.5L575.6,651.2L573.9,648.8L574.4,647.0L576.4,645.8L579.2,645.4L579.5,644.3L577.5,641.9L571.7,636.4L573.1,634.7L573.9,630.3L573.3,628.8L568.1,624.4L567.3,621.1L569.4,616.4L571.6,605.8L569.6,598.0L569.9,594.8L572.8,591.5L580.9,591.0L585.6,589.1L590.3,592.0L593.9,593.5L597.7,590.2L603.1,579.8L605.5,570.9L605.5,565.6L604.1,561.5L604.9,556.4L606.7,554.3L609.4,552.3L612.3,547.9L612.9,543.4L609.0,541.1L609.8,538.0L605.7,533.0L604.3,527.8L609.3,525.6L613.9,516.6L619.5,519.0L619.8,517.3L618.6,512.6L620.1,511.6L623.7,511.3L626.6,510.2L628.7,508.3L629.7,505.8L631.0,504.3L632.5,497.0L638.3,494.0L641.8,491.0L638.6,486.7L640.2,484.4L641.4,483.9L642.0,482.0L638.8,477.3L634.2,473.5L636.8,471.2L634.8,463.5L627.0,459.6L626.8,458.7L630.9,449.7L632.3,442.5L626.1,438.4L624.8,436.1L622.0,433.0L621.6,431.4L625.6,429.1L625.9,428.0L626.7,418.7L624.2,414.4L622.1,413.4L612.0,413.2L610.2,409.3L609.6,398.1L607.3,388.5L601.2,374.4L579.7,376.9L574.0,374.3L558.3,353.2L559.0,345.5L560.0,341.9L561.4,338.7L561.3,333.8L556.9,324.4L555.8,315.1L535.6,318.1L530.3,317.5L522.1,312.7L514.1,315.8L507.0,314.6L497.9,311.9L490.8,313.9L475.5,312.4L457.5,316.7L451.0,316.5L435.5,310.0L405.4,303.3L361.3,284.9L354.4,285.2L348.3,288.0L345.4,287.5L342.5,283.3L339.5,275.7L337.6,268.3L337.3,262.2Z " data-id="BD.DA" data-name="Dhaka" id="BD.DA"/>
utf-8utf-8<path d="M337.1,1048.3L335.2,1042.4L325.8,1036.7L322.8,1030.4L319.0,1015.9L317.9,1012.9L315.6,1010.1L313.4,1010.2L313.5,1012.2L315.2,1015.9L316.2,1019.3L319.0,1026.4L319.7,1030.6L319.0,1034.6L318.2,1036.8L329.3,1048.9L335.3,1052.1L337.1,1048.3Z M181.1,524.1L177.2,525.7L175.7,527.6L175.0,530.2L177.0,536.7L177.1,539.2L176.7,545.6L178.0,548.1L182.0,551.3L183.0,554.0L187.6,555.1L188.0,557.2L186.3,560.2L184.7,564.4L186.4,566.9L188.1,571.0L189.3,575.6L189.4,579.4L188.0,581.9L182.1,589.2L179.9,591.3L176.5,592.1L172.6,591.7L169.0,591.9L166.4,594.4L166.2,596.5L167.6,602.3L167.1,604.8L165.0,609.3L164.8,613.7L167.2,618.9L166.2,638.5L166.9,640.9L171.8,643.0L171.8,648.8L173.9,650.8L175.9,651.7L181.0,651.6L184.3,654.8L189.8,663.1L193.5,666.7L199.5,670.7L201.7,671.7L205.3,677.5L207.4,676.5L209.1,672.9L211.2,670.9L214.0,673.0L214.3,677.7L209.1,703.2L205.7,710.9L204.7,715.0L205.5,719.7L207.9,723.8L210.8,726.2L223.5,730.4L225.5,730.4L229.4,727.3L231.7,726.9L235.0,727.5L252.0,733.6L257.0,733.4L258.2,734.4L256.5,740.5L252.2,744.9L243.9,756.4L242.2,761.8L243.3,772.8L242.5,778.9L243.0,783.1L244.0,785.5L248.2,790.3L250.7,793.6L256.1,803.7L258.6,806.6L264.1,808.4L266.5,810.5L267.3,813.4L267.1,824.6L263.9,830.6L263.1,833.5L264.1,837.4L267.2,843.6L269.7,851.2L272.6,855.7L275.2,861.2L276.8,867.0L276.4,871.9L272.7,874.9L278.8,877.3L281.2,879.2L284.0,887.1L288.6,895.6L290.1,900.6L288.8,905.1L289.0,909.4L292.8,920.9L294.2,923.5L298.0,929.2L295.6,931.2L298.0,935.7L307.7,947.0L309.8,950.6L311.4,954.9L312.5,960.1L311.0,968.6L311.2,978.5L312.5,981.8L317.5,987.9L319.5,992.4L320.1,997.4L319.3,1006.4L319.5,1010.8L320.4,1014.4L327.4,1031.9L330.5,1035.1L334.9,1037.4L337.5,1038.1L340.4,1033.2L342.0,1032.0L343.9,1037.2L352.0,1054.7L352.0,1057.1L350.3,1058.8L350.1,1062.6L351.8,1066.6L355.5,1068.8L359.1,1068.4L362.6,1066.6L365.4,1064.1L367.2,1061.5L363.1,1059.4L362.2,1057.0L364.3,1049.6L364.3,1044.4L361.3,1036.0L360.4,1030.6L361.7,1030.6L363.1,1033.4L364.7,1031.5L366.7,1023.6L371.7,1015.5L372.1,1013.5L371.7,1010.1L367.9,1001.6L368.7,998.4L370.0,998.4L371.4,1002.1L375.8,1009.3L377.2,1013.6L377.4,1018.6L375.9,1025.2L375.5,1029.1L376.2,1038.8L377.2,1044.3L378.7,1047.5L384.2,1053.3L386.3,1053.0L392.1,1046.8L394.2,1043.4L395.4,1039.3L395.4,1034.4L393.1,1025.7L392.9,1022.6L394.4,1018.9L398.7,1014.4L400.3,1011.9L400.4,1000.5L398.3,997.1L392.3,985.7L395.7,983.6L396.5,978.2L396.2,975.1L390.1,963.1L388.8,967.4L389.0,970.4L387.7,970.4L382.3,943.3L381.9,929.1L383.2,929.1L385.7,933.8L386.5,938.0L387.0,947.6L388.1,952.0L399.5,973.3L399.7,976.2L398.4,980.6L398.3,982.9L399.8,992.4L401.8,995.7L405.0,993.7L405.5,990.6L405.0,976.9L405.2,974.8L406.5,970.7L406.6,968.1L403.7,958.6L398.8,951.2L398.2,948.4L399.9,944.6L403.0,941.6L403.9,939.8L401.5,934.8L401.9,933.0L403.7,930.6L405.4,924.7L406.8,922.0L408.6,920.4L407.3,924.1L406.8,928.3L406.7,932.7L407.2,937.3L406.2,940.9L401.6,948.9L402.2,951.9L405.1,955.1L408.0,959.1L410.2,963.6L411.5,968.1L411.2,972.9L407.9,981.3L407.5,985.7L407.8,998.2L410.8,1013.7L410.7,1017.3L409.7,1020.6L406.9,1024.9L405.8,1027.6L405.9,1032.6L409.3,1041.4L409.4,1045.2L415.9,1053.9L420.3,1056.6L423.3,1052.7L419.8,1045.1L420.1,1043.9L424.6,1043.0L426.7,1043.0L429.1,1044.6L433.9,1045.9L437.5,1042.8L438.9,1038.6L437.0,1036.4L433.0,1034.4L428.2,1029.7L423.9,1024.3L421.2,1020.3L424.7,1008.5L428.0,1012.6L428.6,1014.7L427.2,1018.4L429.7,1024.7L432.2,1026.7L435.5,1028.1L442.2,1029.1L446.9,1025.9L449.1,1025.3L451.5,1029.4L458.3,1026.6L459.9,1023.3L464.0,1018.7L469.3,1017.3L470.1,1013.9L468.6,1011.1L466.5,1008.7L464.4,1004.6L460.3,998.4L459.9,996.1L460.3,990.2L458.8,985.2L456.1,981.8L452.5,979.5L448.3,977.7L448.1,976.1L451.6,976.1L457.3,977.3L460.2,975.5L461.4,972.7L461.4,969.1L460.1,961.6L455.9,947.2L452.9,939.5L450.0,935.0L455.5,919.0L455.5,914.5L452.7,907.1L451.7,902.6L458.0,907.4L461.4,908.4L462.8,901.6L464.9,898.1L469.9,891.6L469.9,891.6L466.5,885.1L462.6,882.6L462.5,878.2L463.5,874.3L463.0,868.4L460.9,863.8L456.4,860.3L453.3,853.8L449.3,849.2L450.3,848.3L453.9,849.0L454.1,845.4L451.2,843.2L446.5,842.7L446.4,838.8L451.4,834.9L451.1,832.0L449.3,831.0L448.0,827.5L448.5,826.0L451.2,822.8L449.5,821.0L450.9,817.1L453.3,817.2L455.6,814.9L451.2,808.5L448.1,805.8L448.0,805.7L439.8,801.4L433.8,795.5L428.4,792.5L427.3,791.0L424.7,785.1L421.7,781.5L414.9,775.7L411.3,771.9L405.3,761.5L403.1,758.7L398.2,757.1L396.4,755.6L394.0,750.7L393.8,748.3L398.0,751.6L399.9,752.4L400.9,749.3L403.1,745.0L406.3,743.2L406.6,741.3L405.3,739.3L402.5,738.2L400.5,738.7L397.6,741.4L395.3,741.1L392.0,737.3L391.9,732.9L391.0,729.2L380.7,726.3L381.8,723.1L384.9,719.3L386.5,715.9L381.0,716.1L375.4,710.3L371.5,702.2L370.6,695.3L372.0,695.3L376.3,698.4L370.1,680.7L367.8,676.4L363.6,672.7L357.4,669.4L351.9,668.8L349.6,673.5L347.6,669.2L347.6,667.6L350.8,664.7L352.2,662.6L348.9,660.6L342.0,650.7L328.4,633.2L326.3,632.2L321.0,633.4L315.8,633.8L306.6,623.4L305.7,621.4L311.2,594.9L310.1,588.8L306.1,580.4L301.5,578.4L296.7,577.3L291.7,576.9L276.6,578.6L271.4,577.6L267.1,575.6L262.7,572.8L254.5,566.4L252.4,564.1L251.4,555.2L245.8,548.2L243.3,542.9L235.4,535.9L230.2,529.9L224.9,526.8L221.2,526.5L219.8,529.1L217.5,530.9L206.5,536.9L203.3,537.8L199.6,537.1L195.0,534.2L190.1,531.7L188.7,530.6L183.7,522.6L181.1,524.1Z " data-id="BD.KH" data-name="Khulna" id="BD.KH"/>
utf-8utf-8<path d="M599.5,1006.3L602.4,1005.6L599.1,999.7L598.5,995.3L587.3,1004.5L586.1,1007.0L586.0,1009.3L586.8,1012.9L585.7,1014.3L590.3,1018.9L585.3,1020.3L585.5,1021.9L588.8,1022.1L592.0,1019.0L594.4,1014.4L595.4,1010.1L598.4,1011.2L599.5,1006.3Z M554.1,1024.7L555.5,1022.4L557.6,1005.6L561.1,997.1L561.1,992.4L557.0,993.5L554.4,997.4L551.5,1005.6L550.3,1010.3L550.3,1015.4L551.7,1025.4L554.1,1024.7Z M553.0,998.4L553.6,993.9L558.0,987.5L558.4,982.1L556.0,982.7L553.8,987.6L552.3,993.8L551.8,998.4L553.0,998.4Z M570.9,1012.2L574.4,1006.8L578.0,1004.2L578.9,997.4L575.7,991.6L566.0,982.1L563.9,984.2L563.5,986.3L564.9,993.0L565.1,997.6L563.0,1005.6L563.5,1009.3L565.4,1012.4L568.1,1013.8L570.9,1012.2Z M596.8,957.2L595.1,956.9L593.1,958.2L590.0,963.0L587.7,962.9L583.6,968.8L581.5,970.4L578.4,971.8L576.8,975.2L576.3,979.9L576.6,984.9L577.8,984.9L578.5,982.8L585.8,977.7L587.1,979.2L581.4,985.3L580.7,987.3L582.4,992.5L584.5,993.6L587.8,992.4L591.1,987.3L591.7,980.0L591.7,971.8L592.8,964.4L595.0,970.4L596.8,957.2Z M658.6,947.8L656.4,948.4L655.0,946.9L654.2,951.6L653.8,958.1L654.5,964.1L656.8,967.4L660.3,966.3L661.0,961.4L659.4,949.8L658.6,947.8Z M665.3,950.5L666.0,946.6L665.9,942.0L665.2,938.1L662.4,936.8L661.9,941.1L663.4,952.6L665.3,950.5Z M663.0,932.1L663.2,927.6L662.4,923.3L659.6,916.1L658.0,914.5L656.6,917.9L656.2,923.1L657.0,932.9L654.9,939.5L654.7,942.5L657.8,943.8L663.0,932.1Z M592.2,899.8L586.9,895.8L586.4,900.4L590.0,901.3L591.7,905.1L594.3,913.6L596.1,917.4L594.8,917.4L596.1,924.3L597.3,926.2L598.0,922.5L595.6,913.9L596.4,910.1L599.8,916.1L598.6,911.0L595.7,905.1L592.2,899.8Z M596.1,900.0L598.3,898.3L595.9,889.5L594.4,888.7L595.1,901.3L596.1,900.0Z M636.9,959.7L637.7,954.2L632.5,919.6L633.3,899.2L628.8,894.1L619.4,886.2L614.4,881.4L611.1,874.8L608.2,864.4L604.6,859.3L601.1,855.5L597.7,850.5L593.5,843.5L590.3,837.5L584.4,823.5L580.8,823.9L574.7,826.1L572.9,827.7L572.0,830.0L570.5,847.7L571.1,855.2L573.1,863.1L576.3,864.0L587.9,872.0L591.3,874.8L594.2,879.9L598.2,892.9L600.8,896.9L600.7,900.9L601.7,905.1L604.1,911.4L603.5,915.1L605.3,927.7L604.8,935.3L599.7,953.4L599.0,961.3L601.7,966.0L599.7,970.7L598.5,976.9L598.6,983.0L600.4,987.3L603.3,986.6L611.3,970.4L610.0,976.4L607.4,982.9L606.1,989.0L608.3,993.7L610.2,994.0L616.1,990.9L619.7,982.0L621.2,980.9L624.8,976.1L626.6,979.2L629.4,976.1L636.9,959.7Z M573.4,804.3L570.6,803.3L561.8,803.5L561.0,806.5L558.0,807.0L551.4,805.7L549.1,806.9L548.2,809.7L548.7,817.4L550.1,823.4L550.1,825.4L548.9,827.8L554.2,829.5L556.2,830.9L557.8,835.0L562.8,839.8L564.7,836.1L563.3,832.8L562.9,827.4L565.2,824.3L567.9,823.2L572.5,817.8L579.4,818.2L586.0,819.6L588.8,819.0L585.5,814.6L581.4,810.3L577.8,808.6L573.4,804.3Z M577.5,783.3L569.0,774.0L564.6,770.4L560.1,770.9L554.7,776.3L552.0,783.1L555.7,788.0L557.7,788.4L564.7,788.0L567.4,786.1L571.2,788.1L574.1,792.4L577.5,794.8L583.3,795.5L578.3,789.5L575.9,788.0L582.2,788.0L582.0,786.7L577.5,783.3Z M545.3,775.3L548.6,769.8L551.0,766.8L551.0,765.2L549.5,763.1L546.7,764.4L539.6,764.4L541.0,767.5L543.9,776.3L545.3,775.3Z M448.1,805.8L451.2,808.5L455.6,814.9L453.3,817.2L450.9,817.1L449.5,821.0L451.2,822.8L448.5,826.0L448.0,827.5L449.3,831.0L451.1,832.0L451.4,834.9L446.4,838.8L446.5,842.7L451.2,843.2L454.1,845.4L453.9,849.0L450.3,848.3L449.3,849.2L453.3,853.8L456.4,860.3L460.9,863.8L463.0,868.4L463.5,874.3L462.5,878.2L462.6,882.6L466.5,885.1L469.9,891.6L470.4,890.9L473.0,889.3L471.3,896.9L459.4,920.8L457.1,930.6L457.5,938.1L458.5,940.9L462.7,947.0L464.7,954.5L467.7,963.3L470.3,979.2L475.9,992.9L479.2,996.5L482.8,997.9L485.2,995.3L485.3,992.5L483.4,982.9L484.3,981.0L488.5,975.7L489.8,973.3L491.3,962.8L493.1,959.1L497.6,957.2L496.9,959.8L493.4,962.2L492.0,964.3L491.3,969.9L492.8,976.3L492.8,979.6L488.7,983.6L487.7,986.1L488.0,989.4L487.3,992.4L493.6,995.0L498.0,994.8L501.1,988.3L501.9,983.6L502.9,981.4L512.2,968.7L514.9,966.7L519.8,966.0L522.2,963.9L523.8,959.0L525.8,949.8L527.1,955.5L526.6,961.2L524.4,966.0L520.9,968.9L516.5,967.3L515.0,968.1L512.5,973.3L506.0,980.8L504.6,983.8L503.9,992.4L502.7,995.0L497.3,999.7L496.0,1004.5L497.1,1016.2L496.6,1021.9L498.9,1022.2L501.6,1024.4L504.8,1023.9L506.7,1021.0L508.4,1020.3L509.9,1018.5L512.0,1009.7L512.9,1009.2L514.4,1013.6L513.7,1016.2L511.4,1020.2L513.2,1023.3L509.9,1022.6L509.0,1025.3L510.3,1028.8L513.5,1030.6L516.9,1031.3L524.3,1034.4L528.2,1035.1L531.6,1034.3L533.9,1032.4L542.9,1023.0L544.3,1020.1L545.2,1015.9L545.8,1007.9L545.5,999.8L545.7,995.8L550.8,980.6L553.4,975.0L554.2,970.4L553.9,963.8L554.1,961.6L556.5,961.7L559.2,954.2L558.2,950.4L554.2,947.6L553.3,944.5L553.8,935.1L552.4,930.6L555.6,931.5L556.5,934.1L556.4,940.9L557.1,943.7L560.2,949.8L560.1,954.9L557.1,965.1L556.8,970.4L558.2,972.1L567.1,976.1L569.0,975.1L570.5,972.7L574.4,962.7L575.6,954.5L577.3,952.7L581.8,949.8L585.3,948.8L588.6,941.3L592.2,924.9L592.0,916.1L591.2,911.6L589.7,907.3L584.9,899.7L583.0,895.8L582.3,890.9L586.3,892.5L582.1,885.1L578.8,878.0L574.6,871.8L567.3,867.4L563.7,866.7L560.5,867.2L558.0,869.0L556.6,871.9L556.5,874.2L557.9,880.7L555.1,884.3L554.5,883.3L554.8,871.4L555.4,868.2L557.0,867.0L561.1,866.3L562.6,865.4L564.3,861.3L562.6,853.8L559.3,846.9L557.6,840.2L556.7,837.9L554.2,834.8L550.6,831.8L547.3,831.2L546.2,835.1L542.3,833.2L536.7,831.3L533.7,829.1L537.3,826.2L539.9,828.7L542.3,827.6L542.6,824.8L539.2,822.0L544.2,820.7L545.6,814.7L546.2,807.6L549.1,802.8L551.6,802.5L557.3,803.6L559.8,802.1L560.5,800.1L554.3,795.5L548.4,785.2L544.0,778.8L540.4,772.0L539.0,767.3L537.5,770.6L534.6,772.6L529.3,770.1L526.5,767.5L521.8,764.1L515.1,763.1L511.1,765.2L510.0,768.7L514.6,768.6L516.3,769.7L516.7,774.5L513.2,781.9L508.8,783.6L503.6,780.7L499.3,776.0L497.8,772.5L496.6,767.0L492.6,762.9L490.5,762.6L481.8,764.4L480.6,767.7L479.7,771.7L476.6,773.7L473.9,777.1L472.8,779.6L468.9,784.7L467.2,790.7L463.6,797.5L459.9,802.3L457.5,803.9L454.5,804.6L448.1,805.8Z " data-id="BD.BA" data-name="Barisal" id="BD.BA"/>
utf-8utf-8<path d="M856.3,1053.6L853.7,1039.4L847.5,1040.8L849.5,1045.6L850.5,1051.0L850.1,1056.2L847.7,1060.0L847.9,1057.0L849.2,1050.3L847.9,1047.5L844.8,1045.2L842.8,1045.0L841.3,1047.0L840.2,1051.2L840.2,1059.2L846.1,1073.4L848.3,1082.1L849.0,1087.2L848.8,1089.4L846.5,1093.9L848.8,1100.7L851.9,1103.7L853.9,1103.9L856.0,1102.7L854.4,1098.2L857.9,1097.6L862.7,1098.5L866.8,1098.3L867.9,1094.6L867.7,1089.8L868.1,1080.8L867.9,1076.2L865.0,1067.8L856.3,1053.6Z M837.6,1049.2L839.9,1037.5L840.3,1030.0L842.1,1024.5L842.2,1021.1L841.5,1018.1L838.1,1010.1L836.4,1007.0L832.8,1012.4L831.8,1015.1L831.7,1018.9L834.6,1029.8L834.2,1047.6L836.3,1051.2L837.6,1049.2Z M685.7,970.7L687.2,966.9L689.5,966.3L695.3,961.1L699.1,950.1L701.2,943.6L699.3,936.6L698.4,931.6L695.5,923.9L692.3,921.2L690.1,915.8L685.5,912.0L678.6,908.5L675.4,909.1L676.8,925.7L678.8,940.8L678.6,951.2L677.8,954.8L675.2,960.5L670.9,967.4L672.5,970.5L674.8,972.1L677.9,972.9L682.5,973.2L685.7,970.7Z M689.2,895.8L692.8,893.9L696.2,891.1L697.3,886.1L694.7,882.0L687.4,884.4L681.4,887.5L680.4,893.5L684.5,896.0L689.2,895.8Z M764.1,906.2L764.6,899.0L761.9,889.9L742.1,866.7L738.5,868.8L735.9,879.8L738.0,886.7L742.3,895.2L749.0,903.8L755.4,907.3L764.1,906.2Z M666.5,565.0L666.5,560.0L665.0,556.5L663.1,554.5L658.5,541.8L658.3,539.1L656.8,535.5L654.9,532.2L656.7,526.4L660.6,525.5L660.2,523.6L654.5,521.7L655.2,519.2L659.8,516.0L661.9,513.9L662.3,511.6L659.8,510.5L655.4,512.2L650.1,517.7L645.3,516.7L628.7,508.3L626.6,510.2L623.7,511.3L620.1,511.6L618.6,512.6L619.8,517.3L619.5,519.0L613.9,516.6L609.3,525.6L604.3,527.8L605.7,533.0L609.8,538.0L609.0,541.1L612.9,543.4L612.3,547.9L609.4,552.3L606.7,554.3L604.9,556.4L604.1,561.5L605.5,565.6L605.5,570.9L603.1,579.8L597.7,590.2L593.9,593.5L590.3,592.0L585.6,589.1L580.9,591.0L572.8,591.5L569.9,594.8L569.6,598.0L571.6,605.8L569.4,616.4L567.3,621.1L568.1,624.4L573.3,628.8L573.9,630.3L573.1,634.7L571.7,636.4L577.5,641.9L579.5,644.3L579.2,645.4L576.4,645.8L574.4,647.0L573.9,648.8L575.6,651.2L574.1,653.5L570.5,656.2L569.2,658.9L569.8,659.0L572.4,663.1L573.4,671.0L569.5,673.6L558.7,673.5L554.6,676.5L553.8,681.4L555.5,694.0L556.6,698.0L559.3,704.4L563.2,708.9L567.6,707.2L569.2,708.8L567.5,710.7L568.0,713.5L572.1,720.5L571.0,720.5L572.4,724.6L570.0,732.7L569.7,737.4L570.7,746.2L570.5,759.3L571.7,764.1L574.5,769.8L591.9,790.7L593.3,793.3L594.5,798.1L600.6,808.7L603.0,816.0L606.2,821.8L610.8,829.6L612.6,833.4L617.6,836.6L620.9,844.3L621.9,845.5L627.3,845.0L629.5,846.0L631.8,852.0L635.1,856.0L637.4,859.9L643.1,863.8L644.6,866.8L647.4,868.9L653.0,869.2L658.9,868.2L662.4,866.2L662.2,862.1L659.8,855.8L656.4,849.9L653.2,846.9L655.8,845.9L657.6,847.8L660.6,854.3L665.4,860.7L668.8,869.8L673.3,875.6L680.9,879.4L689.7,877.4L694.3,875.9L697.4,872.9L700.5,869.0L701.5,860.8L702.5,857.7L702.7,855.0L700.0,850.7L694.8,848.5L683.6,845.5L683.4,843.9L687.7,844.1L688.8,842.5L687.6,840.2L684.9,837.9L684.7,836.6L691.1,836.7L693.9,837.1L698.7,842.4L704.6,843.7L710.7,842.9L712.8,841.1L712.9,837.9L704.5,834.0L714.1,833.8L717.2,833.0L718.8,831.1L718.0,829.0L713.9,827.8L713.7,826.2L717.8,826.4L720.9,827.1L723.9,828.5L727.0,830.8L725.6,825.6L725.9,820.8L727.9,817.3L731.8,816.0L733.3,813.7L734.8,802.4L734.8,798.4L736.2,798.4L736.9,803.5L735.3,812.6L735.0,818.8L733.7,821.5L735.6,829.0L736.9,830.0L738.3,829.2L740.2,832.5L743.4,836.4L747.1,839.7L753.4,842.2L782.3,877.8L798.7,904.3L801.8,912.1L808.6,936.6L812.2,941.4L816.3,941.7L819.0,939.1L818.5,935.0L811.9,931.1L811.0,927.7L812.0,925.5L816.2,922.9L816.6,921.8L819.7,920.6L825.0,914.5L824.4,912.8L825.1,904.6L825.0,901.3L828.8,901.3L826.7,916.5L825.2,920.4L821.5,922.6L817.0,924.2L814.1,926.7L815.4,932.1L820.9,936.0L821.7,939.5L818.2,945.2L817.8,948.4L818.7,953.7L820.7,959.0L823.2,963.7L825.7,967.4L826.8,967.4L826.2,963.3L828.8,969.0L836.7,990.9L837.8,999.0L838.7,1001.0L841.8,1004.2L842.6,1006.3L844.7,1014.8L846.2,1019.3L847.5,1021.9L851.3,1017.5L853.2,1017.3L853.4,1018.9L849.4,1021.8L848.9,1023.9L850.7,1026.1L847.6,1027.9L846.3,1032.5L846.7,1037.6L848.7,1039.4L854.9,1037.2L863.4,1036.4L863.6,1037.9L859.5,1039.8L858.8,1043.1L860.4,1044.9L863.1,1042.4L864.4,1043.9L862.0,1046.8L858.2,1048.5L858.3,1053.3L859.5,1056.5L861.5,1059.0L863.3,1059.3L863.7,1055.6L865.0,1055.6L865.4,1058.2L864.8,1064.9L866.6,1067.5L869.8,1067.5L871.5,1064.4L872.9,1057.1L871.5,1057.1L872.4,1054.0L873.4,1055.7L873.1,1061.7L875.8,1063.6L876.4,1065.4L875.5,1067.5L876.6,1069.5L876.3,1071.1L874.0,1074.8L875.3,1078.4L873.9,1081.3L871.7,1084.0L870.4,1086.4L871.0,1090.4L872.6,1094.8L875.0,1098.7L877.7,1101.1L874.0,1099.8L871.3,1102.1L869.7,1106.1L868.8,1109.9L866.1,1108.6L867.2,1112.1L869.0,1116.0L871.2,1119.0L873.4,1120.3L875.4,1122.3L888.6,1142.7L890.1,1146.7L891.2,1151.8L891.6,1165.7L892.5,1170.2L894.3,1173.7L903.9,1184.2L906.5,1187.6L910.4,1193.9L912.6,1196.7L923.5,1205.6L925.1,1207.8L930.1,1221.7L946.3,1246.8L952.1,1257.9L956.1,1262.2L957.3,1262.9L958.7,1261.3L958.8,1259.0L956.2,1254.0L951.2,1242.7L950.2,1238.6L949.0,1236.4L942.5,1227.6L939.5,1219.7L937.4,1210.9L936.5,1202.1L936.5,1193.8L928.0,1186.9L924.8,1180.4L919.8,1176.0L918.0,1173.0L916.4,1169.2L916.7,1159.5L916.3,1155.3L913.8,1146.8L913.3,1142.6L913.8,1138.9L917.8,1130.8L919.0,1121.7L920.5,1117.4L923.5,1116.9L929.4,1117.0L935.2,1107.8L941.5,1110.0L944.4,1113.5L946.6,1120.6L948.4,1124.4L956.8,1128.9L964.8,1129.7L970.8,1128.3L975.7,1129.4L980.6,1138.1L983.2,1146.7L985.1,1151.2L987.7,1153.9L991.4,1153.5L995.4,1150.5L998.4,1146.4L999.6,1142.9L998.3,1138.5L988.6,1116.8L985.1,1106.1L983.9,1100.6L973.9,1049.5L972.5,1016.7L971.0,1010.2L966.5,997.2L960.9,979.3L954.7,964.8L956.6,962.7L959.3,962.8L961.3,961.7L960.8,956.2L939.8,886.2L938.9,882.5L935.6,875.8L934.3,872.2L932.9,859.7L929.1,843.2L927.8,839.9L925.3,836.7L919.6,832.0L917.0,828.8L914.7,822.3L910.6,805.6L907.4,802.0L900.8,799.3L896.5,793.7L894.0,786.4L891.9,771.5L882.6,741.1L881.4,732.6L881.7,729.4L883.9,721.9L884.5,718.1L881.4,710.3L879.5,700.9L876.8,698.8L875.2,695.9L875.0,693.0L873.1,689.5L870.3,687.0L867.7,682.1L865.0,671.7L854.1,647.2L852.5,640.0L853.2,630.9L852.1,626.3L847.9,624.1L845.1,626.1L844.3,636.0L842.0,638.9L838.9,635.2L835.8,627.0L831.1,620.9L823.8,623.8L821.3,627.4L816.7,636.4L814.0,639.4L809.9,640.6L806.8,639.0L797.5,629.6L794.6,625.6L791.8,622.7L789.3,622.8L788.5,625.6L788.9,630.2L790.5,638.4L799.2,663.3L800.3,671.7L797.2,679.2L795.3,682.1L792.7,684.4L783.2,689.1L780.6,691.9L776.9,698.9L773.1,708.9L771.2,719.5L773.5,728.1L777.3,734.9L782.3,749.7L786.7,758.7L786.3,760.7L783.9,763.9L781.1,763.9L780.3,764.7L780.6,767.6L778.2,772.6L773.4,778.9L771.3,780.5L762.9,782.9L758.8,781.9L757.2,782.6L755.4,788.0L752.6,789.8L751.7,787.0L750.1,784.6L747.4,783.3L742.3,781.8L739.4,778.9L738.3,776.7L737.1,770.4L734.1,768.4L732.3,762.9L725.7,747.2L724.5,745.0L722.2,738.4L718.6,735.5L718.0,731.7L716.6,730.0L716.2,731.8L714.2,728.7L710.9,724.6L706.8,721.6L702.8,721.7L701.2,724.8L700.9,729.8L702.4,739.4L708.6,757.4L709.0,764.5L702.5,762.7L697.1,756.2L693.4,747.4L683.8,712.9L680.9,707.3L684.0,701.6L683.2,700.4L680.7,699.7L678.0,697.8L675.4,693.4L667.7,675.4L662.3,671.7L660.1,668.2L657.4,661.1L655.4,657.4L648.4,646.6L647.0,642.9L646.8,637.7L651.7,637.6L652.8,634.1L651.2,630.9L644.7,628.0L643.2,623.3L644.3,619.2L647.0,618.1L650.5,617.7L653.6,615.9L655.0,612.4L656.8,600.7L656.7,596.6L652.7,588.9L652.0,586.0L652.4,583.0L656.8,571.1L658.3,568.2L660.3,565.9L663.3,564.5L665.8,564.7L666.5,565.0Z " data-id="BD.CG" data-name="Chittagong" id="BD.CG"/>
utf-8utf-8<path d="M555.8,315.1L556.9,324.4L561.3,333.8L561.4,338.7L560.0,341.9L559.0,345.5L558.3,353.2L574.0,374.3L579.7,376.9L601.2,374.4L607.3,388.5L609.6,398.1L610.2,409.3L612.0,413.2L622.1,413.4L624.2,414.4L626.7,418.7L625.9,428.0L625.6,429.1L621.6,431.4L622.0,433.0L624.8,436.1L626.1,438.4L632.3,442.5L630.9,449.7L626.8,458.7L627.0,459.6L634.8,463.5L636.8,471.2L634.2,473.5L638.8,477.3L642.0,482.0L641.4,483.9L640.2,484.4L638.6,486.7L641.8,491.0L638.3,494.0L632.5,497.0L631.0,504.3L629.7,505.8L628.7,508.3L645.3,516.7L650.1,517.7L655.4,512.2L659.8,510.5L662.3,511.6L661.9,513.9L659.8,516.0L655.2,519.2L654.5,521.7L660.2,523.6L660.6,525.5L656.7,526.4L654.9,532.2L656.8,535.5L658.3,539.1L658.5,541.8L663.1,554.5L665.0,556.5L666.5,560.0L666.5,565.0L668.1,565.6L670.1,566.0L672.1,564.4L672.6,555.6L671.5,547.4L672.9,541.9L680.5,541.2L695.0,544.5L702.0,545.1L709.4,544.1L713.5,542.7L715.9,540.8L717.1,537.8L717.8,533.3L717.6,519.7L718.0,517.1L720.1,517.9L724.8,526.6L727.0,529.9L730.6,532.1L734.3,532.7L737.4,531.4L738.9,528.1L738.2,524.4L736.4,520.0L735.2,515.9L736.5,513.1L748.8,515.8L750.7,515.9L753.3,524.1L759.9,530.0L763.8,531.0L765.9,529.4L766.6,525.7L767.6,507.4L767.0,503.2L763.7,494.7L763.7,490.8L767.5,489.4L774.1,494.0L777.8,495.5L777.2,492.6L771.9,485.3L771.6,482.8L787.3,484.2L792.6,483.7L796.9,481.4L799.6,476.2L799.3,470.1L796.1,457.1L796.4,453.0L798.2,450.6L800.8,448.8L804.5,443.3L804.9,440.1L804.5,432.8L804.8,424.4L809.5,396.5L802.9,375.6L803.3,372.0L808.2,369.5L815.7,372.0L829.6,380.1L832.5,383.5L834.4,383.8L845.0,379.7L851.2,377.9L853.1,373.7L853.2,371.3L850.0,364.1L843.0,360.2L844.3,358.7L834.6,351.4L829.6,349.7L827.5,343.7L822.4,340.7L816.8,338.4L813.0,334.0L811.2,332.7L801.4,331.3L798.0,330.5L789.7,325.3L786.3,321.5L783.4,320.0L781.0,320.8L778.5,319.4L775.8,319.3L769.0,313.3L763.7,311.2L757.5,309.7L751.5,309.4L743.6,312.2L733.0,310.6L713.8,313.2L704.7,312.3L702.0,312.7L700.4,316.5L699.3,317.6L695.0,315.8L692.9,315.9L692.5,319.4L691.0,321.4L686.8,322.1L682.0,321.8L678.8,321.0L675.4,318.4L672.1,314.3L668.8,314.1L664.7,317.5L655.5,319.9L648.1,319.1L619.3,310.3L609.6,305.3L607.6,305.4L604.0,307.6L601.8,308.0L591.5,307.6L562.8,312.7L557.4,314.9L555.8,315.1Z " data-id="BD.SY" data-name="Sylhet" id="BD.SY"/>
utf-8utf-8<path d="M310.3,313.0L292.2,313.0L273.5,306.8L261.9,304.1L250.9,311.6L244.0,305.5L237.4,294.5L235.4,286.4L227.4,284.3L207.5,284.3L189.2,283.7L190.9,285.5L190.6,291.7L184.6,297.1L183.4,299.4L183.7,302.3L184.7,305.2L184.6,307.3L181.3,308.1L184.8,312.6L180.0,312.3L166.6,307.6L162.6,306.8L161.6,308.3L160.5,312.9L159.2,314.1L148.0,312.9L136.2,308.6L130.4,307.4L123.9,307.2L122.4,307.9L119.4,311.5L115.6,311.5L110.4,310.1L104.2,307.7L101.1,306.8L95.0,308.0L93.8,311.5L96.3,323.6L97.2,337.7L96.1,344.1L92.8,349.7L93.1,355.4L91.7,360.4L86.8,369.3L84.5,375.6L83.0,377.0L79.9,376.7L71.8,374.5L69.5,374.3L68.7,370.4L66.3,366.2L63.2,362.6L59.8,360.4L56.1,360.1L52.9,361.3L44.7,366.6L47.2,370.6L50.8,378.0L52.0,382.1L50.7,384.8L48.6,387.5L47.4,391.4L45.0,391.0L44.0,392.5L44.1,398.0L43.2,400.0L39.0,401.3L39.7,410.7L37.9,414.4L37.0,418.3L37.0,424.8L44.0,427.3L46.5,431.6L50.5,435.9L52.3,447.1L58.3,455.8L63.8,457.1L116.6,484.1L132.1,495.6L136.5,496.6L148.6,497.2L158.2,500.5L162.2,500.2L164.3,495.7L165.5,490.8L169.6,491.7L176.3,495.7L181.5,501.7L183.9,510.2L185.9,515.4L185.6,517.4L183.7,522.6L183.7,522.6L188.7,530.6L190.1,531.7L195.0,534.2L199.6,537.1L203.3,537.8L206.5,536.9L217.5,530.9L219.8,529.1L221.2,526.5L224.9,526.8L230.2,529.9L235.4,535.9L243.3,542.9L245.8,548.2L251.4,555.2L252.4,564.1L254.5,566.4L262.7,572.8L267.1,575.6L271.4,577.6L276.6,578.6L291.7,576.9L296.7,577.3L301.5,578.4L306.1,580.4L306.2,580.4L312.9,584.8L330.6,592.3L335.2,594.9L343.7,602.1L348.6,603.1L351.7,602.0L356.7,598.2L359.5,596.9L369.5,595.9L373.6,594.7L373.1,592.1L368.7,579.0L368.7,574.2L370.1,567.6L383.7,553.7L385.6,551.4L387.8,545.4L387.1,537.8L388.4,534.3L387.7,530.8L387.9,527.7L386.8,523.4L385.7,521.5L382.3,520.6L381.4,515.9L378.1,512.4L370.0,504.4L368.3,494.1L365.8,485.9L365.4,483.8L364.7,468.4L363.6,460.3L363.9,453.6L361.8,442.8L362.4,440.5L364.0,437.8L364.4,432.4L364.0,429.7L362.4,425.6L362.3,423.2L362.7,413.4L361.8,408.9L360.2,405.0L352.9,397.4L346.9,394.3L343.4,392.0L341.1,389.9L337.8,384.6L335.5,380.4L326.5,355.4L324.5,337.3L324.2,326.0L324.7,314.4L310.3,313.0Z " data-id="BD.RJ" data-name="Rajshahi" id="BD.RJ"/>
utf-8utf-8<path d="M189.2,283.7L207.5,284.3L227.4,284.3L235.4,286.4L237.4,294.5L244.0,305.5L250.9,311.6L261.9,304.1L273.5,306.8L292.2,313.0L310.3,313.0L324.7,314.4L327.2,305.2L332.2,295.4L332.3,290.0L328.6,278.3L332.0,264.5L334.3,262.8L337.3,262.2L337.2,260.0L338.4,243.7L335.9,227.5L334.9,212.4L331.5,203.9L325.4,193.1L318.5,173.8L318.2,168.5L323.5,153.7L323.3,148.6L321.6,147.4L318.7,147.1L314.8,144.9L318.2,143.5L320.4,141.3L320.4,138.4L316.8,134.7L314.0,136.9L304.9,127.0L303.5,125.0L302.5,121.2L301.7,115.9L296.6,109.4L293.5,102.7L291.0,100.8L285.7,101.0L281.3,99.3L281.4,98.4L279.9,89.3L278.4,86.1L274.9,85.4L271.2,86.8L270.3,88.6L271.9,95.1L273.6,98.7L269.6,97.5L266.2,99.4L265.0,103.3L266.7,106.0L270.0,107.5L273.5,108.0L267.5,112.7L268.0,115.2L270.0,116.2L274.9,115.7L276.7,118.4L275.8,122.1L269.1,129.2L268.6,135.0L269.4,137.9L269.4,140.6L268.4,142.6L266.0,143.1L263.9,142.1L258.4,135.0L255.6,134.1L244.9,135.4L242.1,135.0L238.5,130.6L236.4,130.6L234.6,132.8L231.9,134.6L228.9,134.2L224.8,132.5L221.0,130.0L215.6,124.6L208.5,121.4L206.6,119.5L204.7,115.3L202.3,112.7L199.3,110.8L186.0,105.2L183.2,102.4L181.2,98.6L177.2,85.6L175.2,82.2L170.3,75.7L168.5,72.2L167.3,66.4L169.3,66.1L172.2,67.4L173.7,66.5L173.0,63.6L171.4,62.1L166.8,60.8L163.5,59.4L163.2,56.0L161.9,53.5L160.0,52.1L151.6,48.6L148.2,45.3L140.5,40.1L138.7,39.5L136.0,41.1L134.1,43.5L132.5,47.0L131.7,51.1L132.5,54.7L137.1,59.0L142.8,60.9L147.8,63.4L150.7,69.5L152.2,71.2L156.8,70.1L157.0,74.7L158.6,76.1L162.9,76.8L164.6,80.8L161.4,83.6L153.7,85.7L148.1,83.9L138.4,75.3L133.3,74.4L130.1,77.0L128.6,84.1L125.9,85.3L122.6,83.8L120.2,80.7L116.3,73.8L109.2,71.1L94.7,77.1L91.0,74.6L92.1,73.1L98.2,69.5L100.2,67.4L101.2,63.4L100.2,60.8L97.3,58.7L92.7,56.4L91.3,54.9L90.8,51.1L87.6,49.8L86.9,48.4L87.4,44.8L82.9,43.7L78.5,41.4L76.7,39.4L73.5,34.9L71.1,33.8L61.1,31.8L57.0,29.2L50.1,23.3L47.1,20.3L43.9,18.9L37.0,16.8L34.1,13.9L32.7,9.7L31.0,1.2L29.1,0.0L27.3,2.6L25.0,9.6L23.8,23.4L21.8,30.5L22.7,34.0L24.6,36.9L27.1,37.7L27.7,36.4L27.3,31.4L28.9,29.8L33.6,31.8L44.6,34.0L50.0,36.4L53.5,41.1L59.3,52.7L60.7,58.2L56.5,57.5L51.7,58.0L48.2,56.1L45.8,60.9L38.3,66.6L36.0,69.3L34.0,73.4L33.9,76.5L35.6,84.4L34.7,87.5L31.8,89.7L21.8,93.5L16.4,95.2L13.1,99.6L7.8,103.8L6.8,106.3L5.6,115.6L6.2,117.7L9.5,120.7L10.2,123.1L9.7,127.2L5.8,131.0L3.5,138.2L2.3,150.4L0.4,153.7L3.5,163.2L5.4,166.4L5.8,170.2L9.3,173.7L12.5,179.6L15.3,182.3L18.7,182.1L24.8,178.5L32.6,176.0L39.1,179.2L52.7,192.9L67.7,202.5L73.6,208.3L76.8,221.5L79.8,224.2L87.4,227.9L90.0,232.2L95.7,236.2L97.7,239.3L99.9,241.3L103.8,242.1L111.7,242.4L115.6,244.2L122.3,248.3L126.3,249.3L128.4,248.6L132.6,243.1L137.5,243.3L139.1,242.4L138.4,238.6L144.4,240.9L151.7,247.4L153.9,250.2L154.9,254.8L153.1,262.4L153.4,263.7L155.6,265.3L158.2,271.5L163.5,277.2L167.0,279.0L170.9,279.2L175.9,283.5L180.3,284.2L189.2,283.7Z " data-id="BD.RP" data-name="Rangpur" id="BD.RP"/>
utf-8</g>
</svg>
