<?xml version="1.0" ?>
<!DOCTYPE svg
  PUBLIC '-//W3C//DTD SVG 1.1//EN'
  'http://www.w3.org/Graphics/SVG/1.1/DTD/svg11.dtd'>
<svg enable_background="new 0 0 1000 791" height="791px" pretty_print="True" style="stroke-linejoin: round; stroke:#000; fill: none;" version="1.1" viewBox="0 0 1000 791" width="1000px" xmlns="http://www.w3.org/2000/svg" xmlns:xlink="http://www.w3.org/1999/xlink">
utf-8<defs>
utf-8utf-8<style type="text/css">
<![CDATA[path { fill-rule: evenodd; }]]>utf-8utf-8</style>
utf-8</defs>
utf-8<metadata>
utf-8utf-8<views>
utf-8utf-8utf-8<view h="791.676932045" padding="0" w="1000">
utf-8utf-8utf-8utf-8<proj flip="auto" id="robinson" lon0="0.976622376442"/>
utf-8utf-8utf-8utf-8<bbox h="92.18" w="116.58" x="-81.4" y="-252.87"/>
utf-8utf-8utf-8</view>
utf-8utf-8</views>
utf-8</metadata>
utf-8<g class="" id="provinces">
utf-8utf-8<path d="M851.9,481.6L849.9,480.0L846.3,479.1L844.8,479.8L844.2,476.4L839.7,472.4L838.4,470.2L837.1,466.4L831.2,466.3L829.6,465.6L827.3,461.3L825.8,459.8L823.3,459.4L820.2,456.8L812.5,455.9L809.9,454.5L806.9,454.2L789.1,469.7L788.1,473.8L788.8,477.5L785.8,480.2L774.3,483.4L769.9,485.6L766.1,489.1L764.7,491.3L763.9,501.1L764.5,504.9L765.0,514.8L766.0,518.3L768.6,523.7L770.7,530.9L769.3,534.8L766.1,537.2L765.4,539.9L766.6,546.1L768.4,550.9L767.9,556.2L763.2,562.3L761.7,564.9L761.0,568.6L760.8,572.6L759.6,574.5L757.4,573.8L753.9,568.8L752.2,567.9L750.4,569.8L745.3,582.4L759.4,585.7L761.0,589.6L759.5,595.7L775.3,589.5L783.2,587.8L811.7,587.2L815.6,589.5L820.1,589.1L820.4,587.4L818.1,583.1L818.2,580.0L821.3,574.9L825.2,575.3L827.7,577.3L828.6,579.0L835.1,578.5L836.4,579.0L838.6,582.1L839.1,579.2L837.7,577.5L836.4,571.1L834.6,570.2L834.6,567.2L832.2,567.9L832.0,565.7L839.0,560.4L840.3,560.4L844.2,562.3L843.0,554.9L840.6,550.5L843.9,545.1L845.9,548.6L849.4,547.5L851.8,547.6L858.0,550.5L859.5,544.6L858.3,543.3L858.6,540.4L862.3,544.6L865.0,543.4L865.8,544.6L868.0,542.5L865.8,536.2L866.9,533.5L874.4,528.8L873.2,525.8L876.0,521.5L877.5,520.9L876.0,519.1L866.9,510.9L857.2,503.8L853.5,497.7L854.0,485.5L853.1,483.2L851.9,481.6Z " data-id="BF.KP" data-name="Kompienga" id="BF.KP"/>
utf-8utf-8<path d="M855.1,481.7L857.9,476.2L859.3,470.1L861.2,464.8L862.4,457.8L862.4,450.4L865.7,426.9L865.8,422.4L862.2,421.0L857.7,420.1L852.2,416.9L849.3,409.4L850.8,403.2L851.6,396.9L849.2,382.5L849.2,374.7L851.7,368.4L854.6,362.7L857.3,349.6L859.2,341.8L857.8,337.4L857.2,333.9L857.8,331.3L856.9,331.7L854.4,331.9L843.7,334.7L843.0,338.7L841.9,340.0L840.4,344.5L838.9,346.9L837.0,348.3L831.7,347.0L829.6,345.9L823.9,346.9L822.3,349.1L820.9,352.4L818.8,355.0L816.4,355.9L809.0,357.6L807.8,359.2L805.8,364.3L805.6,369.7L802.9,369.9L802.1,375.2L799.8,377.9L798.9,379.9L796.5,380.5L794.1,384.0L793.8,385.8L789.3,393.7L785.3,395.3L783.3,397.0L780.4,395.1L774.6,381.6L772.9,379.3L758.4,368.8L755.4,369.8L745.8,377.0L743.2,378.3L742.0,378.7L735.2,385.0L729.9,388.9L716.4,389.1L706.7,394.6L702.6,394.1L699.2,395.4L695.7,400.3L688.5,407.8L687.3,409.3L689.1,411.7L693.2,415.0L696.1,418.8L701.5,424.5L701.8,428.4L699.1,429.2L695.5,431.2L691.4,432.7L687.6,435.5L684.7,441.6L684.1,446.8L684.6,451.0L684.1,453.5L685.8,454.0L688.5,455.4L689.8,460.2L693.9,463.4L699.8,464.8L702.9,470.5L704.1,476.2L704.2,478.4L705.3,478.7L707.2,478.8L708.3,477.8L708.9,474.0L710.8,473.3L717.7,474.8L719.8,474.6L722.1,476.7L726.2,478.9L734.0,478.5L737.8,479.9L751.7,490.6L754.4,491.1L764.7,491.3L766.1,489.1L769.9,485.6L774.3,483.4L785.8,480.2L788.8,477.5L788.1,473.8L789.1,469.7L806.9,454.2L809.9,454.5L812.5,455.9L820.2,456.8L823.3,459.4L825.8,459.8L827.3,461.3L829.6,465.6L831.2,466.3L837.1,466.4L838.4,470.2L839.7,472.4L844.2,476.4L844.8,479.8L846.3,479.1L849.9,480.0L851.9,481.6L853.1,483.2L855.1,481.7Z " data-id="BF.GM" data-name="Gourma" id="BF.GM"/>
utf-8utf-8<path d="M194.1,453.0L192.2,453.2L188.6,450.7L185.4,449.9L182.7,450.4L179.0,452.7L175.9,453.0L169.5,452.5L167.0,453.3L163.5,456.8L159.7,466.4L158.0,473.6L156.6,476.7L154.6,479.5L152.0,481.2L149.5,481.6L145.1,479.5L136.8,483.1L134.4,482.9L132.0,480.2L131.6,476.7L132.3,474.3L135.7,465.2L137.5,450.3L139.2,444.7L138.3,443.0L134.3,442.0L135.0,433.3L130.1,430.6L126.4,433.8L121.5,433.9L115.4,435.0L111.4,432.2L111.3,432.5L108.8,433.9L103.6,434.0L102.2,435.3L101.3,437.1L111.6,442.7L113.2,444.9L115.0,453.4L115.3,457.7L113.9,464.9L113.6,471.2L114.6,477.0L111.0,479.0L108.9,484.8L110.7,485.8L114.1,485.7L117.3,486.4L118.9,487.7L118.0,494.1L118.8,498.4L120.3,502.3L124.1,508.5L124.4,511.4L124.0,515.4L119.9,523.7L117.2,526.2L112.8,526.1L111.5,522.8L110.1,521.9L101.2,528.9L99.5,530.7L98.0,534.0L97.2,540.4L94.0,547.2L93.1,550.5L95.3,555.7L96.9,555.9L104.8,562.0L108.0,567.3L110.1,570.2L111.7,575.6L110.3,581.1L107.7,581.6L103.7,584.8L100.3,585.6L97.5,587.1L96.6,589.6L97.7,595.6L96.8,597.9L95.0,600.2L93.5,603.9L92.9,604.7L93.6,606.7L98.5,614.1L104.1,616.5L107.0,618.3L109.4,618.0L116.1,612.5L119.4,608.6L122.9,606.1L126.1,604.8L131.9,605.1L135.0,606.4L137.7,609.7L140.8,618.9L142.3,621.4L144.2,622.3L147.5,622.6L154.9,625.2L158.0,629.2L160.0,629.1L171.2,622.1L176.5,620.1L180.1,618.3L182.8,618.8L189.1,625.4L191.9,626.5L199.2,628.0L201.8,631.1L204.1,630.9L206.0,629.6L210.2,628.1L211.9,626.8L212.8,621.6L217.2,616.7L220.2,612.0L222.3,611.0L227.7,611.0L228.2,607.9L231.9,607.2L234.1,605.3L236.0,605.0L236.8,603.8L238.1,596.3L241.7,594.2L245.4,590.1L243.4,590.5L240.5,590.6L238.3,589.0L230.9,580.9L225.7,576.0L223.1,572.2L219.7,566.0L218.3,564.9L214.6,565.7L211.0,565.8L208.9,562.5L208.2,557.5L212.2,538.5L212.4,534.5L209.5,534.1L207.2,531.4L206.6,526.0L205.2,519.1L199.3,512.4L197.3,508.5L194.6,494.5L198.8,480.4L198.3,470.7L199.2,466.3L200.0,463.9L199.3,464.0L199.5,458.3L198.7,454.1L196.6,452.9L196.0,452.1L194.1,453.0Z " data-id="BF.HO" data-name="Houet" id="BF.HO"/>
utf-8utf-8<path d="M93.5,603.9L95.0,600.2L96.8,597.9L97.7,595.6L96.6,589.6L97.5,587.1L100.3,585.6L103.7,584.8L107.7,581.6L110.3,581.1L111.7,575.6L110.1,570.2L108.0,567.3L104.8,562.0L96.9,555.9L95.3,555.7L93.1,550.5L94.0,547.2L97.2,540.4L98.0,534.0L99.5,530.7L101.2,528.9L110.1,521.9L111.5,522.8L112.8,526.1L117.2,526.2L119.9,523.7L124.0,515.4L124.4,511.4L124.1,508.5L120.3,502.3L118.8,498.4L118.0,494.1L118.9,487.7L117.3,486.4L114.1,485.7L110.7,485.8L108.9,484.8L111.0,479.0L114.6,477.0L113.6,471.2L113.9,464.9L115.3,457.7L115.0,453.4L113.2,444.9L111.6,442.7L101.3,437.1L100.5,438.8L97.7,441.5L91.9,443.0L89.5,440.6L86.8,440.6L81.4,442.8L73.4,441.7L67.0,445.2L54.4,446.4L50.3,449.2L46.4,450.6L41.1,456.6L36.2,461.1L32.8,465.8L27.2,465.8L15.5,467.8L16.2,469.4L20.7,472.5L22.9,472.0L27.7,473.7L31.2,477.1L32.1,479.9L32.0,485.6L30.9,491.2L28.5,495.8L29.5,499.0L33.3,499.3L37.8,503.4L38.9,508.4L38.9,520.3L39.7,525.5L33.9,530.1L33.4,532.7L34.2,547.7L33.9,550.0L32.4,553.0L28.4,557.5L27.2,560.8L26.4,566.6L25.1,568.6L17.8,572.5L5.2,574.3L3.4,575.7L3.0,577.9L3.2,579.2L4.4,579.2L15.5,580.2L19.1,582.5L31.5,595.2L36.0,604.8L41.2,611.3L43.3,613.4L46.9,613.2L49.2,612.2L55.7,610.3L59.0,610.2L65.7,607.3L71.3,602.1L73.8,601.9L79.4,603.0L90.2,602.9L91.9,603.6L92.9,604.7L93.5,603.9Z " data-id="BF.KN" data-name="Kénédougou" id="BF.KN"/>
utf-8utf-8<path d="M161.6,338.9L156.6,340.2L154.9,339.6L151.3,337.2L147.6,336.3L143.4,336.6L132.9,339.8L132.1,347.2L133.2,349.6L138.6,354.4L140.7,356.7L143.4,363.4L144.5,365.3L144.3,368.3L142.5,370.9L138.0,376.5L137.0,379.9L141.5,392.1L142.6,398.3L138.9,399.1L135.5,395.3L133.7,395.4L132.0,398.5L131.1,403.9L119.9,414.1L123.1,421.0L121.8,422.5L118.0,422.7L113.5,425.6L112.2,428.4L111.9,430.7L111.4,432.2L115.4,435.0L121.5,433.9L126.4,433.8L130.1,430.6L135.0,433.3L134.3,442.0L138.3,443.0L139.2,444.7L137.5,450.3L135.7,465.2L132.3,474.3L131.6,476.7L132.0,480.2L134.4,482.9L136.8,483.1L145.1,479.5L149.5,481.6L152.0,481.2L154.6,479.5L156.6,476.7L158.0,473.6L159.7,466.4L163.5,456.8L167.0,453.3L169.5,452.5L175.9,453.0L179.0,452.7L182.7,450.4L185.4,449.9L188.6,450.7L192.2,453.2L194.1,453.0L196.0,452.1L196.3,450.2L200.3,451.1L199.5,448.7L199.7,446.1L200.9,444.0L202.9,443.1L201.2,440.2L203.8,435.4L205.3,435.0L205.7,432.0L208.7,431.4L210.3,425.5L212.6,424.9L216.2,421.2L216.8,419.1L216.0,408.4L217.3,405.0L221.7,403.8L223.5,402.5L224.7,399.6L226.4,393.9L230.8,386.1L237.0,381.7L239.8,381.4L241.5,383.6L244.4,384.8L245.4,386.1L247.5,383.4L247.1,380.2L248.6,374.8L248.9,373.2L244.9,371.7L237.1,367.2L232.2,365.7L222.7,365.3L216.5,366.4L209.6,365.0L205.1,364.7L201.2,365.7L199.3,368.0L198.4,371.4L195.4,376.5L195.0,381.5L194.4,383.0L189.8,386.9L185.7,388.4L182.7,387.4L177.4,383.0L175.0,378.9L174.8,373.5L173.6,367.4L171.6,364.0L171.3,361.8L171.9,359.0L172.1,353.6L171.6,351.0L174.5,347.3L174.4,344.9L171.9,343.7L167.9,340.2L165.8,340.4L163.1,337.7L161.6,338.9Z " data-id="BF.BW" data-name="Banwa" id="BF.BW"/>
utf-8utf-8<path d="M163.1,337.7L165.8,340.4L167.9,340.2L171.9,343.7L174.4,344.9L174.5,347.3L171.6,351.0L172.1,353.6L171.9,359.0L171.3,361.8L171.6,364.0L173.6,367.4L174.8,373.5L175.0,378.9L177.4,383.0L182.7,387.4L185.7,388.4L189.8,386.9L194.4,383.0L195.0,381.5L195.4,376.5L198.4,371.4L199.3,368.0L201.2,365.7L205.1,364.7L209.6,365.0L216.5,366.4L222.7,365.3L232.2,365.7L237.1,367.2L244.9,371.7L248.9,373.2L249.3,370.6L251.1,368.5L251.6,366.9L250.9,361.3L252.4,360.5L252.5,354.6L254.2,352.1L253.4,350.7L255.3,345.6L251.8,341.4L253.9,340.3L254.7,337.7L258.2,337.7L261.5,338.5L264.2,334.9L265.9,334.8L266.3,329.5L265.5,328.6L263.6,325.7L262.0,321.5L260.6,305.9L261.9,297.7L260.1,288.5L261.2,277.9L260.5,274.7L255.2,273.8L250.5,272.9L248.5,270.5L245.1,270.2L234.8,261.2L229.1,257.3L219.7,248.9L212.3,246.3L207.9,244.4L200.9,244.1L198.0,243.2L196.4,241.8L201.7,236.8L204.7,235.5L204.8,234.0L200.0,232.5L197.7,227.1L196.4,227.5L194.7,229.8L198.0,231.3L195.7,234.3L190.9,236.8L181.3,243.8L180.0,246.4L177.8,252.3L175.8,255.8L173.4,258.8L172.1,259.7L168.5,259.6L166.6,261.0L162.4,265.9L161.8,268.0L162.7,269.4L165.3,271.1L163.3,274.0L155.2,273.6L153.1,274.6L150.0,283.6L150.8,284.9L154.4,288.6L157.7,296.9L159.3,299.3L163.0,302.8L165.3,306.1L166.3,310.1L165.8,318.3L167.4,324.8L167.2,326.5L164.5,335.8L163.3,337.6L163.1,337.7Z " data-id="BF.KS" data-name="Kossi" id="BF.KS"/>
utf-8utf-8<path d="M328.5,436.3L326.0,437.8L321.5,438.3L317.1,437.1L312.6,432.3L312.3,429.8L310.8,429.7L307.3,431.1L303.5,431.8L297.1,428.1L293.4,428.9L291.2,430.8L290.9,438.2L292.5,440.8L295.5,443.7L296.9,446.9L299.6,448.5L304.2,448.9L306.6,451.4L307.9,458.3L305.7,459.9L302.6,460.4L295.0,455.9L291.5,457.0L288.9,459.1L285.4,458.6L283.0,456.2L283.0,452.1L282.0,448.4L274.7,444.2L268.4,443.8L257.9,445.8L257.6,447.4L258.3,450.9L257.3,453.3L253.1,456.9L249.5,457.4L244.6,462.6L244.3,465.9L242.4,470.1L245.3,475.5L245.6,477.4L250.9,481.4L255.5,483.9L263.3,485.5L269.6,488.7L270.2,489.8L266.6,499.9L267.5,501.7L271.6,502.9L275.2,506.4L281.2,508.6L281.1,513.9L282.0,517.2L284.6,520.1L287.8,518.9L290.5,516.4L292.5,517.5L294.7,516.7L297.2,513.7L300.1,511.9L303.0,510.9L313.3,503.7L316.3,504.0L319.7,506.1L322.0,508.5L324.4,509.4L328.4,508.1L334.0,510.8L335.4,508.4L336.9,508.4L341.1,511.6L341.2,513.7L338.4,518.0L341.2,524.3L340.9,529.3L339.2,535.2L339.2,541.6L337.3,544.8L336.0,547.0L334.8,550.1L336.1,551.5L341.7,551.6L344.1,552.6L344.7,551.2L346.9,545.6L348.8,542.9L351.9,539.5L355.3,538.0L362.4,539.5L366.9,539.7L372.2,534.3L375.5,533.7L377.7,532.4L379.4,530.2L379.4,527.1L377.2,524.3L367.0,517.2L363.5,514.1L361.7,511.9L361.1,502.6L360.4,499.5L359.9,498.5L359.1,498.1L356.9,495.1L349.6,482.8L348.3,478.0L344.7,476.5L337.1,476.7L333.5,475.9L330.4,474.1L329.3,471.5L331.5,468.8L335.3,469.5L335.9,468.3L340.9,461.5L341.0,459.5L337.6,456.0L335.0,452.5L336.5,448.6L336.3,441.1L334.7,441.4L333.3,439.3L330.3,436.5L329.9,434.8L328.5,436.3Z " data-id="BF.BA" data-name="Balé" id="BF.BA"/>
utf-8utf-8<path d="M339.1,387.9L336.9,386.1L334.2,386.0L332.1,387.1L329.2,390.0L325.3,392.5L322.4,389.7L318.4,388.2L313.3,384.9L309.2,383.5L307.6,382.1L306.8,380.2L305.0,379.2L299.9,369.3L299.0,370.4L296.1,366.8L294.2,366.4L288.6,366.4L288.9,365.7L287.9,359.1L288.7,345.2L287.5,343.9L280.1,345.9L278.9,347.1L278.0,351.0L275.9,351.7L273.1,350.7L274.6,347.1L271.3,340.7L270.0,337.1L267.2,334.9L265.9,334.8L264.2,334.9L261.5,338.5L258.2,337.7L254.7,337.7L253.9,340.3L251.8,341.4L255.3,345.6L253.4,350.7L254.2,352.1L252.5,354.6L252.4,360.5L250.9,361.3L251.6,366.9L251.1,368.5L249.3,370.6L248.9,373.2L248.6,374.8L247.1,380.2L247.5,383.4L245.4,386.1L244.4,384.8L241.5,383.6L239.8,381.4L237.0,381.7L230.8,386.1L226.4,393.9L224.7,399.6L223.5,402.5L221.7,403.8L217.3,405.0L216.0,408.4L216.8,419.1L216.2,421.2L212.6,424.9L210.3,425.5L208.7,431.4L205.7,432.0L205.3,435.0L203.8,435.4L201.2,440.2L202.9,443.1L200.9,444.0L199.7,446.1L199.5,448.7L200.3,451.1L196.3,450.2L196.0,452.1L196.6,452.9L198.7,454.1L199.5,458.3L199.3,464.0L200.0,463.9L200.7,464.3L203.7,464.5L204.6,467.3L208.9,470.1L209.6,475.1L216.1,477.9L222.1,482.2L227.3,482.9L234.1,478.7L236.5,478.1L244.3,477.6L245.6,477.4L245.3,475.5L242.4,470.1L244.3,465.9L244.6,462.6L249.5,457.4L253.1,456.9L257.3,453.3L258.3,450.9L257.6,447.4L257.9,445.8L268.4,443.8L274.7,444.2L282.0,448.4L283.0,452.1L283.0,456.2L285.4,458.6L288.9,459.1L291.5,457.0L295.0,455.9L302.6,460.4L305.7,459.9L307.9,458.3L306.6,451.4L304.2,448.9L299.6,448.5L296.9,446.9L295.5,443.7L292.5,440.8L290.9,438.2L291.2,430.8L293.4,428.9L297.1,428.1L303.5,431.8L307.3,431.1L310.8,429.7L312.3,429.8L312.6,432.3L317.1,437.1L321.5,438.3L326.0,437.8L328.5,436.3L329.9,434.8L330.2,433.2L332.8,427.5L335.5,428.2L342.5,432.9L344.0,433.2L345.9,425.9L342.9,420.9L342.1,417.8L341.1,411.8L339.5,409.4L334.7,405.2L334.0,402.6L334.8,399.2L336.4,396.2L340.3,393.7L340.5,390.9L340.0,389.8L339.1,387.9Z " data-id="BF.MO" data-name="Mou Houn" id="BF.MO"/>
utf-8utf-8<path d="M566.9,37.6L569.6,40.7L576.9,46.8L583.0,55.8L586.9,58.7L594.8,71.0L597.9,77.2L599.2,81.3L599.3,84.8L608.5,94.7L611.6,101.1L614.5,104.8L618.1,108.4L619.3,123.7L621.0,129.9L624.4,133.8L626.7,134.7L634.6,134.6L658.0,132.2L666.9,127.3L671.8,128.0L676.6,129.2L682.3,128.1L688.8,128.2L694.2,129.6L697.8,128.5L706.5,117.3L709.1,112.7L712.0,109.2L715.9,97.8L718.1,97.7L720.6,96.3L723.4,92.6L721.7,90.8L717.9,83.9L717.2,76.6L725.6,50.1L724.8,45.7L721.1,37.4L721.3,33.3L725.7,27.5L725.4,24.3L677.0,4.3L668.2,2.1L660.4,3.6L652.6,8.9L648.0,11.2L644.5,11.1L643.3,9.3L640.4,0.6L639.2,0.0L607.6,0.2L603.4,1.5L599.6,4.5L592.9,12.1L566.9,37.6Z " data-id="BF.OD" data-name="Oudalan" id="BF.OD"/>
utf-8utf-8<path d="M624.4,133.8L621.0,129.9L619.3,123.7L618.1,108.4L614.5,104.8L611.6,101.1L608.5,94.7L599.3,84.8L599.2,81.3L597.9,77.2L594.8,71.0L586.9,58.7L583.0,55.8L576.9,46.8L569.6,40.7L566.9,37.6L566.9,37.6L562.4,40.7L557.6,43.0L533.6,49.6L528.3,52.4L484.6,83.9L475.9,85.7L467.0,86.2L456.7,85.3L450.7,85.6L446.9,87.5L445.9,91.3L443.5,126.6L441.9,129.1L435.7,132.2L441.4,140.4L445.3,142.7L456.0,151.4L463.5,156.0L462.3,164.1L462.6,169.8L469.6,184.0L473.6,189.2L478.1,194.0L484.5,180.2L489.6,175.7L494.7,175.1L504.9,169.1L506.3,172.2L507.9,179.2L512.6,185.0L519.5,188.5L526.0,190.2L529.7,191.8L530.2,192.6L535.5,192.2L540.9,190.5L546.5,189.5L553.0,189.4L562.5,185.1L565.6,185.7L574.6,180.6L590.8,176.5L608.6,166.4L615.2,159.4L617.2,159.3L618.8,159.2L622.7,157.6L626.2,153.9L627.8,148.3L628.7,141.9L627.8,136.8L626.7,134.7L624.4,133.8Z " data-id="BF.SM" data-name="Soum" id="BF.SM"/>
utf-8utf-8<path d="M354.8,308.3L352.9,308.1L349.7,308.8L345.8,313.2L342.3,313.9L337.9,313.5L334.1,312.5L330.8,310.7L323.8,305.5L319.9,305.5L317.4,308.6L315.4,309.2L312.7,307.2L309.7,306.1L303.9,306.8L301.6,306.5L299.7,303.8L297.9,300.3L296.0,298.9L285.7,301.3L282.6,304.1L282.1,307.2L280.9,309.2L273.9,313.5L271.3,316.2L270.1,318.9L269.2,325.7L267.5,328.3L266.3,329.5L265.9,334.8L267.2,334.9L270.0,337.1L271.3,340.7L274.6,347.1L273.1,350.7L275.9,351.7L278.0,351.0L278.9,347.1L280.1,345.9L287.5,343.9L288.7,345.2L287.9,359.1L288.9,365.7L288.6,366.4L294.2,366.4L296.1,366.8L299.0,370.4L299.9,369.3L305.0,379.2L306.8,380.2L307.6,382.1L309.2,383.5L313.3,384.9L318.4,388.2L322.4,389.7L325.3,392.5L329.2,390.0L332.1,387.1L334.2,386.0L336.9,386.1L339.1,387.9L340.0,389.8L349.6,380.0L355.2,369.0L352.7,362.0L351.3,357.4L351.8,353.1L355.5,348.0L359.0,345.7L362.1,342.9L365.7,336.7L361.5,331.2L356.5,326.3L356.6,321.7L358.3,312.2L359.1,309.3L354.8,308.3Z " data-id="BF.NY" data-name="Nayala" id="BF.NY"/>
utf-8utf-8<path d="M324.8,208.9L321.1,207.6L318.0,207.2L315.6,208.4L313.4,211.0L311.9,211.6L310.1,206.0L307.8,203.6L304.7,201.5L299.3,202.2L295.8,201.8L290.2,197.1L286.8,195.8L284.3,198.6L286.9,200.8L287.7,204.2L287.2,212.2L286.5,215.6L284.6,220.9L289.0,256.7L287.2,258.0L266.6,259.4L263.8,260.6L263.3,264.7L264.7,269.7L264.9,272.2L263.6,274.6L262.1,275.0L260.5,274.7L261.2,277.9L260.1,288.5L261.9,297.7L260.6,305.9L262.0,321.5L263.6,325.7L265.5,328.6L266.3,329.5L267.5,328.3L269.2,325.7L270.1,318.9L271.3,316.2L273.9,313.5L280.9,309.2L282.1,307.2L282.6,304.1L285.7,301.3L296.0,298.9L297.9,300.3L299.7,303.8L301.6,306.5L303.9,306.8L309.7,306.1L312.7,307.2L315.4,309.2L317.4,308.6L319.9,305.5L323.8,305.5L330.8,310.7L334.1,312.5L337.9,313.5L342.3,313.9L345.8,313.2L349.7,308.8L352.9,308.1L354.8,308.3L359.1,309.3L359.4,308.2L359.7,305.1L359.7,303.0L358.4,296.0L358.5,290.4L360.1,286.5L362.9,285.9L368.5,286.9L372.6,287.0L377.0,285.8L379.7,282.5L383.6,275.1L389.2,266.5L390.4,262.4L388.0,260.8L384.3,260.0L381.2,260.8L377.9,260.6L374.5,258.7L371.8,256.7L370.9,253.7L367.6,247.0L366.7,234.4L365.6,233.0L360.5,231.1L358.4,229.0L357.2,226.0L354.2,224.1L342.4,221.0L338.0,218.7L332.8,212.7L329.2,207.1L324.8,208.9Z " data-id="BF.SR" data-name="Sourou" id="BF.SR"/>
utf-8utf-8<path d="M529.7,191.8L526.0,190.2L519.5,188.5L512.6,185.0L507.9,179.2L506.3,172.2L504.9,169.1L494.7,175.1L489.6,175.7L484.5,180.2L478.1,194.0L478.9,194.8L480.1,197.0L480.2,200.9L477.1,203.1L472.4,204.6L467.3,207.7L462.9,211.8L461.5,217.8L461.6,221.0L466.4,232.1L466.0,246.5L466.3,249.9L471.2,256.3L472.1,258.9L475.0,259.2L478.1,261.6L480.2,266.0L481.3,269.7L481.4,274.1L480.5,277.0L478.9,279.5L478.6,281.2L479.5,282.2L484.6,286.8L486.8,290.5L489.3,293.5L490.9,294.6L492.8,293.9L497.8,295.5L499.9,298.1L501.9,299.2L507.6,299.4L508.7,299.7L508.6,296.8L506.1,292.1L506.3,287.6L510.6,283.0L517.8,280.1L524.7,278.6L530.0,278.7L534.4,279.4L534.8,275.6L533.9,269.4L534.4,265.9L536.5,261.6L537.2,257.6L534.0,249.7L529.3,243.7L527.0,238.0L530.3,233.4L531.7,227.8L530.0,221.5L529.9,218.1L531.6,215.7L533.5,211.6L535.8,205.4L534.6,200.6L530.2,192.6L529.7,191.8Z " data-id="BF.BM" data-name="Bam" id="BF.BM"/>
utf-8utf-8<path d="M451.9,346.4L449.5,345.9L447.6,342.3L444.9,340.8L438.7,340.7L435.0,343.1L427.4,342.1L423.6,342.2L415.6,344.5L411.7,346.0L408.5,348.3L406.9,349.4L407.5,351.2L410.5,357.5L412.0,357.0L413.6,354.1L416.5,351.8L418.0,354.5L416.2,360.5L413.3,365.9L404.9,372.0L402.0,375.7L397.7,378.1L393.6,378.5L392.5,381.2L394.2,385.2L396.0,401.2L395.9,410.1L392.8,414.3L387.7,417.5L385.9,420.1L389.1,423.3L391.4,426.9L388.7,430.6L385.1,433.8L385.2,436.9L386.5,441.9L389.8,443.3L393.8,443.9L399.3,449.5L402.2,451.3L406.2,450.2L411.6,447.3L415.5,447.5L414.8,451.3L413.5,454.9L413.8,456.6L415.6,455.5L417.5,455.7L422.4,454.8L433.5,450.4L437.6,447.9L440.2,445.8L440.5,445.1L442.3,442.5L444.2,440.3L448.8,436.3L450.4,431.5L451.1,427.8L453.8,426.6L455.7,424.2L459.2,421.9L462.2,421.6L463.7,418.9L471.4,410.5L471.5,402.6L469.2,400.1L469.6,394.5L468.5,393.2L466.1,393.0L461.1,393.4L456.3,394.6L451.8,397.6L446.8,401.7L442.6,404.0L438.5,402.4L436.1,399.7L437.6,396.4L440.4,391.5L441.8,386.0L445.2,378.5L447.7,376.2L455.8,376.3L462.1,379.9L465.8,379.2L470.9,376.7L472.4,374.5L471.6,367.1L470.4,362.1L467.5,358.1L463.2,355.9L455.7,353.3L455.2,347.3L454.0,345.8L453.4,345.2L451.9,346.4Z " data-id="BF.BK" data-name="Boulkiemdé" id="BF.BK"/>
utf-8utf-8<path d="M496.9,341.3L495.9,338.9L491.7,337.9L490.3,336.5L489.5,333.9L488.4,325.7L488.8,321.5L488.3,318.2L483.2,316.4L479.9,313.1L463.6,317.5L453.5,328.0L450.9,333.2L450.6,338.5L452.3,343.1L453.4,345.2L454.0,345.8L455.2,347.3L455.7,353.3L463.2,355.9L467.5,358.1L470.4,362.1L471.6,367.1L472.4,374.5L470.9,376.7L465.8,379.2L462.1,379.9L455.8,376.3L447.7,376.2L445.2,378.5L441.8,386.0L440.4,391.5L437.6,396.4L436.1,399.7L438.5,402.4L442.6,404.0L446.8,401.7L451.8,397.6L456.3,394.6L461.1,393.4L466.1,393.0L468.5,393.2L469.6,392.4L474.7,389.5L482.4,387.0L486.1,385.3L485.7,382.7L480.9,363.9L481.1,361.6L489.0,359.0L491.0,358.9L493.7,357.3L495.1,350.6L496.2,347.4L496.9,345.8L496.9,341.3Z " data-id="BF.KW" data-name="Kourwéogo" id="BF.KW"/>
utf-8utf-8<path d="M562.3,418.0L558.5,418.9L555.3,420.4L552.8,420.9L547.6,420.9L542.1,421.9L536.5,424.7L533.4,422.2L530.8,422.4L522.2,426.7L520.0,426.8L518.6,424.7L516.2,416.4L514.0,414.5L506.9,414.9L503.8,416.2L501.9,418.6L500.1,422.0L494.6,424.8L491.4,427.4L486.2,429.3L481.8,434.2L480.1,434.3L477.9,432.4L470.6,430.8L468.4,429.1L462.2,421.6L459.2,421.9L455.7,424.2L453.8,426.6L451.1,427.8L450.4,431.5L448.8,436.3L444.2,440.3L442.3,442.5L440.5,445.1L445.3,449.0L449.7,456.1L451.2,456.3L453.3,454.7L457.9,455.0L462.6,454.8L466.1,452.1L469.4,451.3L472.4,453.0L483.1,466.2L485.8,468.6L491.8,475.1L498.0,477.9L502.4,482.3L510.9,486.9L512.9,488.9L514.5,491.7L517.9,496.2L527.5,501.4L528.0,502.2L531.6,488.6L541.8,470.0L543.4,466.6L547.8,461.6L556.2,455.3L562.7,453.0L566.3,454.0L571.5,456.9L579.7,459.9L586.0,458.8L585.3,457.6L584.7,449.6L582.0,445.7L573.4,436.7L572.4,433.9L570.2,431.4L568.4,427.4L567.6,421.0L564.6,417.8L564.1,416.1L562.3,418.0Z " data-id="BF.BZ" data-name="Bazéga" id="BF.BZ"/>
utf-8utf-8<path d="M556.4,406.0L548.0,401.2L546.2,401.0L543.1,396.8L539.6,394.7L537.9,394.4L538.1,389.5L540.5,383.3L540.6,379.6L539.6,375.7L537.9,372.6L532.3,371.1L527.3,371.8L524.6,374.7L522.1,375.8L512.5,376.4L515.3,368.7L514.8,366.0L511.0,361.2L506.3,364.3L502.9,365.5L500.8,365.0L500.1,362.1L500.6,358.6L501.9,355.9L501.8,352.9L500.2,349.5L498.1,346.8L496.9,345.8L496.2,347.4L495.1,350.6L493.7,357.3L491.0,358.9L489.0,359.0L481.1,361.6L480.9,363.9L485.7,382.7L486.1,385.3L482.4,387.0L474.7,389.5L469.6,392.4L468.5,393.2L469.6,394.5L469.2,400.1L471.5,402.6L471.4,410.5L463.7,418.9L462.2,421.6L468.4,429.1L470.6,430.8L477.9,432.4L480.1,434.3L481.8,434.2L486.2,429.3L491.4,427.4L494.6,424.8L500.1,422.0L501.9,418.6L503.8,416.2L506.9,414.9L514.0,414.5L516.2,416.4L518.6,424.7L520.0,426.8L522.2,426.7L530.8,422.4L533.4,422.2L536.5,424.7L542.1,421.9L547.6,420.9L552.8,420.9L555.3,420.4L558.5,418.9L562.3,418.0L564.1,416.1L564.1,413.0L563.2,410.7L562.4,410.0L559.7,407.7L559.6,405.1L556.4,406.0Z " data-id="BF.KA" data-name="Kadiogo" id="BF.KA"/>
utf-8utf-8<path d="M501.6,313.2L498.2,312.4L493.0,309.5L488.3,309.2L479.9,313.1L483.2,316.4L488.3,318.2L488.8,321.5L488.4,325.7L489.5,333.9L490.3,336.5L491.7,337.9L495.9,338.9L496.9,341.3L496.9,345.8L498.1,346.8L500.2,349.5L501.8,352.9L501.9,355.9L500.6,358.6L500.1,362.1L500.8,365.0L502.9,365.5L506.3,364.3L511.0,361.2L514.8,366.0L515.3,368.7L512.5,376.4L522.1,375.8L524.6,374.7L527.3,371.8L532.3,371.1L537.9,372.6L539.6,375.7L540.6,379.6L540.5,383.3L538.1,389.5L537.9,394.4L539.6,394.7L543.1,396.8L546.2,401.0L548.0,401.2L556.4,406.0L559.6,405.1L559.6,404.7L559.7,398.3L557.3,395.0L558.0,392.0L560.6,388.0L563.2,382.9L564.4,378.1L563.5,374.1L561.9,372.9L567.4,371.8L570.4,367.3L574.6,367.1L579.4,372.7L583.3,375.5L587.3,374.9L590.9,373.0L592.2,369.8L592.1,367.2L588.4,366.2L582.0,361.7L573.6,350.1L568.2,346.8L560.5,346.9L560.2,346.2L556.8,346.4L555.3,351.9L553.8,351.7L552.6,350.0L555.5,345.7L555.1,343.8L552.9,342.3L553.0,340.8L550.4,335.7L544.6,330.8L538.4,327.4L532.1,325.7L528.1,324.2L525.1,319.2L522.9,319.2L518.6,318.1L510.8,318.2L504.5,313.8L502.4,312.6L501.6,313.2Z " data-id="BF.OB" data-name="Oubritenga" id="BF.OB"/>
utf-8utf-8<path d="M474.1,283.8L467.6,284.7L465.4,280.4L462.5,278.5L459.3,280.6L458.1,283.0L455.9,289.3L453.0,290.0L448.7,288.6L445.4,293.3L443.8,294.6L436.3,294.2L434.7,294.6L433.1,291.5L429.9,289.6L425.8,289.3L420.7,286.8L416.3,285.7L404.4,291.4L399.5,294.6L393.5,301.9L389.9,303.1L384.0,304.4L379.6,304.8L374.9,304.1L368.2,304.3L362.4,303.8L359.7,303.0L359.7,305.1L359.4,308.2L359.1,309.3L358.3,312.2L356.6,321.7L356.5,326.3L361.5,331.2L365.7,336.7L370.7,333.1L378.6,325.9L381.7,325.6L384.1,327.6L384.7,331.2L382.9,334.5L381.6,338.1L382.2,341.2L386.0,341.8L391.4,341.4L394.2,342.4L393.2,344.6L390.1,347.5L388.3,351.3L389.2,353.6L390.9,354.0L400.3,351.5L406.2,349.2L406.9,349.4L408.5,348.3L411.7,346.0L415.6,344.5L423.6,342.2L427.4,342.1L435.0,343.1L438.7,340.7L444.9,340.8L447.6,342.3L449.5,345.9L451.9,346.4L453.4,345.2L452.3,343.1L450.6,338.5L450.9,333.2L453.5,328.0L463.6,317.5L479.9,313.1L488.3,309.2L493.0,309.5L498.2,312.4L501.6,313.2L502.4,312.6L503.7,311.6L505.2,306.1L508.7,299.7L507.6,299.4L501.9,299.2L499.9,298.1L497.8,295.5L492.8,293.9L490.9,294.6L489.3,293.5L486.8,290.5L484.6,286.8L479.5,282.2L478.6,281.2L474.1,283.8Z " data-id="BF.PA" data-name="Passoré" id="BF.PA"/>
utf-8utf-8<path d="M427.3,287.2L428.4,282.4L430.1,281.6L431.3,277.8L434.0,275.3L433.1,270.9L434.4,266.4L437.8,261.0L436.3,257.4L434.9,250.5L432.2,249.6L425.9,252.5L423.6,251.6L416.4,251.0L405.4,246.7L398.8,246.2L395.8,243.0L390.8,244.8L388.5,246.6L384.1,251.8L377.8,254.8L373.0,255.9L371.8,256.7L374.5,258.7L377.9,260.6L381.2,260.8L384.3,260.0L388.0,260.8L390.4,262.4L389.2,266.5L383.6,275.1L379.7,282.5L377.0,285.8L372.6,287.0L368.5,286.9L362.9,285.9L360.1,286.5L358.5,290.4L358.4,296.0L359.7,303.0L362.4,303.8L368.2,304.3L374.9,304.1L379.6,304.8L384.0,304.4L389.9,303.1L393.5,301.9L399.5,294.6L404.4,291.4L416.3,285.7L420.7,286.8L425.8,289.3L429.9,289.6L427.3,287.2Z " data-id="BF.ZM" data-name="Zondoma" id="BF.ZM"/>
utf-8utf-8<path d="M406.2,349.2L400.3,351.5L390.9,354.0L389.2,353.6L388.3,351.3L390.1,347.5L393.2,344.6L394.2,342.4L391.4,341.4L386.0,341.8L382.2,341.2L381.6,338.1L382.9,334.5L384.7,331.2L384.1,327.6L381.7,325.6L378.6,325.9L370.7,333.1L365.7,336.7L362.1,342.9L359.0,345.7L355.5,348.0L351.8,353.1L351.3,357.4L352.7,362.0L355.2,369.0L349.6,380.0L340.0,389.8L340.5,390.9L340.3,393.7L336.4,396.2L334.8,399.2L334.0,402.6L334.7,405.2L339.5,409.4L341.1,411.8L342.1,417.8L342.9,420.9L345.9,425.9L344.0,433.2L342.5,432.9L335.5,428.2L332.8,427.5L330.2,433.2L329.9,434.8L330.3,436.5L333.3,439.3L334.7,441.4L336.3,441.1L336.5,448.6L335.0,452.5L337.6,456.0L341.0,459.5L340.9,461.5L335.9,468.3L335.3,469.5L331.5,468.8L329.3,471.5L330.4,474.1L333.5,475.9L337.1,476.7L344.7,476.5L348.3,478.0L349.6,482.8L356.9,495.1L359.1,498.1L359.9,498.5L362.7,498.1L370.9,498.2L372.3,494.8L372.4,487.6L373.6,481.9L375.8,476.8L378.1,472.5L381.2,469.8L393.0,462.3L397.6,460.7L401.7,460.1L410.6,457.2L413.8,456.6L413.5,454.9L414.8,451.3L415.5,447.5L411.6,447.3L406.2,450.2L402.2,451.3L399.3,449.5L393.8,443.9L389.8,443.3L386.5,441.9L385.2,436.9L385.1,433.8L388.7,430.6L391.4,426.9L389.1,423.3L385.9,420.1L387.7,417.5L392.8,414.3L395.9,410.1L396.0,401.2L394.2,385.2L392.5,381.2L393.6,378.5L397.7,378.1L402.0,375.7L404.9,372.0L413.3,365.9L416.2,360.5L418.0,354.5L416.5,351.8L413.6,354.1L412.0,357.0L410.5,357.5L407.5,351.2L406.9,349.4L406.2,349.2Z " data-id="BF.SG" data-name="Sanguié" id="BF.SG"/>
utf-8utf-8<path d="M493.6,537.5L491.6,534.0L488.2,533.2L484.0,533.4L480.6,535.4L478.1,539.0L470.2,544.7L466.9,544.3L463.5,540.1L462.0,536.4L456.0,534.6L452.1,538.2L450.3,540.7L448.8,544.1L447.5,544.9L443.0,543.9L440.9,542.4L440.3,539.9L438.8,537.5L435.9,536.3L430.8,532.0L428.4,528.5L426.4,524.4L425.6,520.4L424.0,516.0L419.1,512.0L415.8,511.6L409.6,511.9L406.5,510.6L403.4,507.8L401.7,503.8L401.6,499.4L402.9,482.6L405.0,482.2L409.6,483.2L414.9,483.3L417.6,481.8L417.8,475.4L416.5,472.0L417.4,467.7L416.6,460.2L415.6,455.5L413.8,456.6L410.6,457.2L401.7,460.1L397.6,460.7L393.0,462.3L381.2,469.8L378.1,472.5L375.8,476.8L373.6,481.9L372.4,487.6L372.3,494.8L370.9,498.2L362.7,498.1L359.9,498.5L360.4,499.5L361.1,502.6L361.7,511.9L363.5,514.1L367.0,517.2L377.2,524.3L379.4,527.1L379.4,530.2L377.7,532.4L375.5,533.7L372.2,534.3L366.9,539.7L362.4,539.5L355.3,538.0L351.9,539.5L348.8,542.9L346.9,545.6L344.7,551.2L344.1,552.6L345.2,554.9L346.2,563.3L346.0,566.2L350.3,564.6L353.1,559.3L355.5,559.6L361.4,564.6L363.8,567.1L365.2,570.3L363.1,578.1L361.5,578.9L357.2,578.9L355.5,580.3L353.6,588.1L365.4,588.0L496.2,586.5L497.7,585.6L498.6,583.1L500.8,582.3L516.7,582.9L518.3,583.5L519.6,584.1L519.6,582.2L518.2,579.3L515.6,579.9L513.6,578.6L512.6,574.9L507.8,575.2L502.4,572.9L496.9,569.6L494.4,567.4L491.2,565.8L490.4,563.0L494.2,556.9L496.2,549.4L497.5,547.2L497.5,541.3L497.6,539.8L493.6,537.5Z " data-id="BF.SS" data-name="Sissili" id="BF.SS"/>
utf-8utf-8<path d="M527.5,501.4L517.9,496.2L514.5,491.7L512.9,488.9L510.9,486.9L502.4,482.3L498.0,477.9L491.8,475.1L485.8,468.6L483.1,466.2L472.4,453.0L469.4,451.3L466.1,452.1L462.6,454.8L457.9,455.0L453.3,454.7L451.2,456.3L449.7,456.1L445.3,449.0L440.5,445.1L440.2,445.8L437.6,447.9L433.5,450.4L422.4,454.8L417.5,455.7L415.6,455.5L416.6,460.2L417.4,467.7L416.5,472.0L417.8,475.4L417.6,481.8L414.9,483.3L409.6,483.2L405.0,482.2L402.9,482.6L401.6,499.4L401.7,503.8L403.4,507.8L406.5,510.6L409.6,511.9L415.8,511.6L419.1,512.0L424.0,516.0L425.6,520.4L426.4,524.4L428.4,528.5L430.8,532.0L435.9,536.3L438.8,537.5L440.3,539.9L440.9,542.4L443.0,543.9L447.5,544.9L448.8,544.1L450.3,540.7L452.1,538.2L456.0,534.6L462.0,536.4L463.5,540.1L466.9,544.3L470.2,544.7L478.1,539.0L480.6,535.4L484.0,533.4L488.2,533.2L491.6,534.0L493.6,537.5L497.6,539.8L500.3,535.9L502.4,534.9L504.3,535.3L507.1,534.0L512.5,526.9L516.0,524.1L518.9,522.9L525.2,518.0L527.5,514.7L532.3,509.3L528.0,502.2L527.5,501.4Z " data-id="BF.ZR" data-name="Ziro" id="BF.ZR"/>
utf-8utf-8<path d="M433.3,133.4L431.4,133.8L427.3,132.7L398.0,117.1L388.4,114.8L381.6,116.7L371.3,123.2L368.5,125.9L361.4,134.8L368.1,141.8L372.6,148.5L373.8,152.2L373.7,155.2L374.9,156.4L379.5,157.5L383.1,155.1L385.3,155.9L387.1,155.4L388.3,153.2L390.5,150.9L393.6,148.9L397.8,149.0L401.9,151.2L407.4,157.3L412.3,159.5L413.1,167.2L415.2,170.7L419.0,172.0L421.4,174.6L420.4,179.1L420.2,183.8L423.8,191.6L427.6,204.1L431.7,222.9L434.4,223.6L439.0,223.3L445.7,224.5L452.2,222.9L456.2,222.5L461.6,221.0L461.5,217.8L462.9,211.8L467.3,207.7L472.4,204.6L477.1,203.1L480.2,200.9L480.1,197.0L478.9,194.8L478.1,194.0L473.6,189.2L469.6,184.0L462.6,169.8L462.3,164.1L463.5,156.0L456.0,151.4L445.3,142.7L441.4,140.4L435.7,132.2L433.3,133.4Z " data-id="BF.LO" data-name="Loroum" id="BF.LO"/>
utf-8utf-8<path d="M456.2,222.5L452.2,222.9L445.7,224.5L439.0,223.3L434.4,223.6L431.7,222.9L427.6,204.1L423.8,191.6L420.2,183.8L420.4,179.1L421.4,174.6L419.0,172.0L415.2,170.7L413.1,167.2L412.3,159.5L407.4,157.3L401.9,151.2L397.8,149.0L393.6,148.9L390.5,150.9L388.3,153.2L387.1,155.4L385.3,155.9L383.1,155.1L379.5,157.5L374.9,156.4L373.7,155.2L373.8,152.2L372.6,148.5L368.1,141.8L361.4,134.8L359.2,137.4L340.6,149.0L337.3,155.1L338.8,155.7L333.8,174.3L331.6,178.4L329.5,183.9L330.1,191.6L333.6,205.2L329.2,207.1L332.8,212.7L338.0,218.7L342.4,221.0L354.2,224.1L357.2,226.0L358.4,229.0L360.5,231.1L365.6,233.0L366.7,234.4L367.6,247.0L370.9,253.7L371.8,256.7L373.0,255.9L377.8,254.8L384.1,251.8L388.5,246.6L390.8,244.8L395.8,243.0L398.8,246.2L405.4,246.7L416.4,251.0L423.6,251.6L425.9,252.5L432.2,249.6L434.9,250.5L436.3,257.4L437.8,261.0L434.4,266.4L433.1,270.9L434.0,275.3L431.3,277.8L430.1,281.6L428.4,282.4L427.3,287.2L429.9,289.6L433.1,291.5L434.7,294.6L436.3,294.2L443.8,294.6L445.4,293.3L448.7,288.6L453.0,290.0L455.9,289.3L458.1,283.0L459.3,280.6L462.5,278.5L465.4,280.4L467.6,284.7L474.1,283.8L478.6,281.2L478.9,279.5L480.5,277.0L481.4,274.1L481.3,269.7L480.2,266.0L478.1,261.6L475.0,259.2L472.1,258.9L471.2,256.3L466.3,249.9L466.0,246.5L466.4,232.1L461.6,221.0L456.2,222.5Z " data-id="BF.YT" data-name="Yatenga" id="BF.YT"/>
utf-8utf-8<path d="M667.1,222.4L667.8,218.2L670.0,214.2L670.3,210.2L664.9,208.6L656.6,208.2L651.6,205.2L648.2,200.6L644.8,197.5L642.0,192.6L641.1,186.0L639.3,181.3L632.1,172.7L628.6,169.6L623.7,167.1L621.4,166.3L615.4,171.7L614.0,176.4L614.7,184.1L613.3,193.6L610.8,198.4L608.0,199.6L605.1,202.0L603.6,206.6L603.8,214.8L606.9,230.4L609.0,234.6L611.3,237.0L612.9,247.0L614.8,254.3L616.1,262.2L615.4,269.9L612.8,278.1L612.0,287.0L612.9,295.6L612.2,300.9L610.7,303.6L607.1,304.5L598.5,298.8L596.6,299.5L595.8,301.4L596.4,305.5L599.2,313.4L603.9,321.7L609.7,328.8L612.9,336.4L613.2,345.3L614.7,345.5L618.0,349.8L620.4,357.0L620.3,367.3L620.6,369.8L622.0,369.9L642.8,375.4L648.9,375.1L671.8,361.9L673.2,355.7L673.1,350.2L670.0,340.6L672.9,329.3L668.0,325.3L662.4,321.8L659.6,319.7L657.4,316.0L654.9,308.6L652.8,303.9L651.9,300.1L652.6,287.6L655.3,280.8L658.9,275.4L660.0,271.4L658.5,266.0L659.7,260.5L662.7,253.3L663.2,247.6L661.4,243.9L660.9,239.1L664.5,234.1L669.0,231.0L670.0,228.6L669.5,227.5L667.1,222.4Z " data-id="BF.NM" data-name="Namentenga" id="BF.NM"/>
utf-8utf-8<path d="M620.5,165.4L618.9,163.2L617.7,160.6L617.2,159.3L615.2,159.4L608.6,166.4L590.8,176.5L574.6,180.6L565.6,185.7L562.5,185.1L553.0,189.4L546.5,189.5L540.9,190.5L535.5,192.2L530.2,192.6L534.6,200.6L535.8,205.4L533.5,211.6L531.6,215.7L529.9,218.1L530.0,221.5L531.7,227.8L530.3,233.4L527.0,238.0L529.3,243.7L534.0,249.7L537.2,257.6L536.5,261.6L534.4,265.9L533.9,269.4L534.8,275.6L534.4,279.4L530.0,278.7L524.7,278.6L517.8,280.1L510.6,283.0L506.3,287.6L506.1,292.1L508.6,296.8L508.7,299.7L505.2,306.1L503.7,311.6L502.4,312.6L504.5,313.8L510.8,318.2L518.6,318.1L522.9,319.2L525.1,319.2L528.1,324.2L532.1,325.7L538.4,327.4L544.6,330.8L550.4,335.7L553.0,340.8L552.9,342.3L555.1,343.8L555.5,345.7L552.6,350.0L553.8,351.7L555.3,351.9L556.8,346.4L560.2,346.2L560.5,346.9L568.2,346.8L573.6,350.1L582.0,361.7L588.4,366.2L592.1,367.2L595.2,365.3L600.1,361.6L604.2,357.3L604.2,354.0L603.5,349.0L605.3,345.5L610.2,344.9L613.2,345.3L612.9,336.4L609.7,328.8L603.9,321.7L599.2,313.4L596.4,305.5L595.8,301.4L596.6,299.5L598.5,298.8L607.1,304.5L610.7,303.6L612.2,300.9L612.9,295.6L612.0,287.0L612.8,278.1L615.4,269.9L616.1,262.2L614.8,254.3L612.9,247.0L611.3,237.0L609.0,234.6L606.9,230.4L603.8,214.8L603.6,206.6L605.1,202.0L608.0,199.6L610.8,198.4L613.3,193.6L614.7,184.1L614.0,176.4L615.4,171.7L621.4,166.3L620.5,165.4Z " data-id="BF.ST" data-name="Sanmatenga" id="BF.ST"/>
utf-8utf-8<path d="M638.4,444.3L633.4,443.9L626.4,444.7L622.7,446.3L620.0,449.5L615.3,457.5L610.4,462.9L603.7,465.2L597.3,465.8L589.9,477.2L586.7,479.2L583.2,484.4L581.4,489.9L588.5,502.0L592.4,505.1L598.3,507.6L603.9,511.2L609.4,508.6L619.0,511.3L622.7,513.8L627.1,516.0L628.5,517.4L630.8,521.7L628.7,526.9L628.9,533.4L625.1,531.9L621.5,533.5L617.9,537.4L613.1,540.7L608.6,544.9L605.2,546.9L603.7,549.9L602.7,554.3L600.9,557.0L599.9,557.9L601.3,561.5L604.1,566.6L605.7,570.2L610.0,574.8L610.8,577.6L608.9,582.3L609.3,587.0L610.1,587.0L610.3,588.6L612.9,588.5L613.7,589.5L611.8,592.8L617.9,599.3L620.1,597.8L623.4,588.6L627.9,587.6L633.6,587.3L635.5,585.0L640.3,581.9L641.9,575.0L644.3,571.5L646.8,571.5L649.1,573.7L651.4,576.7L657.7,571.6L660.3,567.7L659.9,562.7L677.0,566.7L683.5,568.2L684.9,563.1L686.6,559.3L686.7,557.2L687.8,555.9L689.9,555.1L692.8,549.1L698.6,541.8L698.7,539.7L696.8,537.5L693.4,536.0L683.2,538.3L678.6,537.5L677.0,536.0L676.8,533.0L678.4,530.9L678.8,528.6L678.0,526.4L680.7,522.4L681.2,517.4L682.7,511.0L680.6,507.9L679.5,504.8L682.5,497.6L686.6,492.9L689.0,487.3L693.1,483.3L695.3,482.1L704.0,482.0L704.4,479.8L704.2,478.4L704.1,476.2L702.9,470.5L699.8,464.8L693.9,463.4L689.8,460.2L688.5,455.4L685.8,454.0L684.1,453.5L683.4,453.3L681.7,454.1L670.4,464.4L666.1,472.1L662.8,471.7L649.9,468.2L643.8,463.1L639.9,457.4L638.7,452.9L639.6,449.4L639.6,445.7L639.4,444.3L638.4,444.3Z " data-id="BF.BL" data-name="Boulgou" id="BF.BL"/>
utf-8utf-8<path d="M754.4,491.1L751.7,490.6L737.8,479.9L734.0,478.5L726.2,478.9L722.1,476.7L719.8,474.6L717.7,474.8L710.8,473.3L708.9,474.0L708.3,477.8L707.2,478.8L705.3,478.7L704.2,478.4L704.4,479.8L704.0,482.0L695.3,482.1L693.1,483.3L689.0,487.3L686.6,492.9L682.5,497.6L679.5,504.8L680.6,507.9L682.7,511.0L681.2,517.4L680.7,522.4L678.0,526.4L678.8,528.6L678.4,530.9L676.8,533.0L677.0,536.0L678.6,537.5L683.2,538.3L693.4,536.0L696.8,537.5L698.7,539.7L698.6,541.8L692.8,549.1L689.9,555.1L687.8,555.9L686.7,557.2L686.6,559.3L684.9,563.1L683.5,568.2L690.0,569.7L705.5,573.3L734.3,579.9L745.3,582.4L750.4,569.8L752.2,567.9L753.9,568.8L757.4,573.8L759.6,574.5L760.8,572.6L761.0,568.6L761.7,564.9L763.2,562.3L767.9,556.2L768.4,550.9L766.6,546.1L765.4,539.9L766.1,537.2L769.3,534.8L770.7,530.9L768.6,523.7L766.0,518.3L765.0,514.8L764.5,504.9L763.9,501.1L764.7,491.3L754.4,491.1Z " data-id="BF.KL" data-name="Koulpélogo" id="BF.KL"/>
utf-8utf-8<path d="M610.2,344.9L605.3,345.5L603.5,349.0L604.2,354.0L604.2,357.3L600.1,361.6L595.2,365.3L592.1,367.2L592.2,369.8L590.9,373.0L587.3,374.9L583.3,375.5L579.4,372.7L574.6,367.1L570.4,367.3L567.4,371.8L561.9,372.9L563.5,374.1L564.4,378.1L563.2,382.9L560.6,388.0L558.0,392.0L557.3,395.0L559.7,398.3L559.6,404.7L559.6,405.1L559.7,407.7L562.4,410.0L563.2,410.7L564.1,413.0L564.1,416.1L564.6,417.8L567.6,421.0L568.4,427.4L570.2,431.4L572.4,433.9L573.4,436.7L582.0,445.7L584.7,449.6L585.3,457.6L586.0,458.8L588.2,459.9L592.9,459.4L593.8,463.0L595.9,465.4L597.3,465.8L603.7,465.2L610.4,462.9L615.3,457.5L620.0,449.5L622.7,446.3L626.4,444.7L633.4,443.9L638.4,444.3L639.4,444.3L640.5,444.2L642.9,441.4L644.9,435.9L643.8,422.3L644.7,420.4L637.8,412.8L636.2,405.5L632.8,395.9L634.1,390.4L633.3,386.8L631.4,382.6L627.2,378.6L621.8,375.1L620.8,370.7L620.6,369.8L620.3,367.3L620.4,357.0L618.0,349.8L614.7,345.5L613.2,345.3L610.2,344.9Z " data-id="BF.GZ" data-name="Ganzourgou" id="BF.GZ"/>
utf-8utf-8<path d="M678.8,406.5L674.8,403.3L675.6,397.3L679.4,391.7L679.7,386.7L674.9,383.0L669.8,379.7L668.4,373.9L671.8,361.9L648.9,375.1L642.8,375.4L622.0,369.9L620.6,369.8L620.8,370.7L621.8,375.1L627.2,378.6L631.4,382.6L633.3,386.8L634.1,390.4L632.8,395.9L636.2,405.5L637.8,412.8L644.7,420.4L643.8,422.3L644.9,435.9L642.9,441.4L640.5,444.2L639.4,444.3L639.6,445.7L639.6,449.4L638.7,452.9L639.9,457.4L643.8,463.1L649.9,468.2L662.8,471.7L666.1,472.1L670.4,464.4L681.7,454.1L683.4,453.3L684.1,453.5L684.6,451.0L684.1,446.8L684.7,441.6L687.6,435.5L691.4,432.7L695.5,431.2L699.1,429.2L701.8,428.4L701.5,424.5L696.1,418.8L693.2,415.0L689.1,411.7L687.3,409.3L678.8,406.5Z " data-id="BF.KR" data-name="Kouritenga" id="BF.KR"/>
utf-8utf-8<path d="M598.0,560.7L594.7,562.1L587.1,558.1L583.9,554.1L581.9,552.5L579.6,548.5L575.2,545.5L575.3,541.6L573.8,538.6L570.0,537.7L566.4,539.0L563.5,537.0L559.1,531.4L556.0,529.2L552.0,528.2L549.6,526.3L547.4,522.1L544.9,518.4L540.7,518.5L537.3,517.7L536.0,513.8L533.8,510.2L532.3,509.3L527.5,514.7L525.2,518.0L518.9,522.9L516.0,524.1L512.5,526.9L507.1,534.0L504.3,535.3L502.4,534.9L500.3,535.9L497.6,539.8L497.5,541.3L497.5,547.2L496.2,549.4L494.2,556.9L490.4,563.0L491.2,565.8L494.4,567.4L496.9,569.6L502.4,572.9L507.8,575.2L512.6,574.9L513.6,578.6L515.6,579.9L518.2,579.3L519.6,582.2L519.6,584.1L523.8,585.9L526.9,586.6L558.2,586.9L559.3,584.7L562.9,584.1L580.3,585.7L582.3,586.7L583.2,588.6L585.2,589.0L584.3,591.0L586.5,590.6L589.3,587.1L594.9,586.7L609.3,587.0L608.9,582.3L610.8,577.6L610.0,574.8L605.7,570.2L604.1,566.6L601.3,561.5L599.9,557.9L598.0,560.7Z " data-id="BF.NR" data-name="Nahouri" id="BF.NR"/>
utf-8utf-8<path d="M579.7,459.9L571.5,456.9L566.3,454.0L562.7,453.0L556.2,455.3L547.8,461.6L543.4,466.6L541.8,470.0L531.6,488.6L528.0,502.2L532.3,509.3L533.8,510.2L536.0,513.8L537.3,517.7L540.7,518.5L544.9,518.4L547.4,522.1L549.6,526.3L552.0,528.2L556.0,529.2L559.1,531.4L563.5,537.0L566.4,539.0L570.0,537.7L573.8,538.6L575.3,541.6L575.2,545.5L579.6,548.5L581.9,552.5L583.9,554.1L587.1,558.1L594.7,562.1L598.0,560.7L599.9,557.9L600.9,557.0L602.7,554.3L603.7,549.9L605.2,546.9L608.6,544.9L613.1,540.7L617.9,537.4L621.5,533.5L625.1,531.9L628.9,533.4L628.7,526.9L630.8,521.7L628.5,517.4L627.1,516.0L622.7,513.8L619.0,511.3L609.4,508.6L603.9,511.2L598.3,507.6L592.4,505.1L588.5,502.0L581.4,489.9L583.2,484.4L586.7,479.2L589.9,477.2L597.3,465.8L595.9,465.4L593.8,463.0L592.9,459.4L588.2,459.9L586.0,458.8L579.7,459.9Z " data-id="BF.ZW" data-name="Zoundwéogo" id="BF.ZW"/>
utf-8utf-8<path d="M312.4,622.4L306.5,616.1L301.6,615.8L298.0,616.3L296.7,618.1L295.2,617.2L295.4,614.3L296.4,611.4L294.1,608.5L295.2,605.7L299.2,604.0L298.0,597.0L299.7,591.5L301.4,584.8L303.1,581.1L303.9,577.4L303.0,574.5L302.7,571.5L303.8,568.6L304.8,563.8L304.4,560.4L299.6,558.7L294.7,558.0L287.8,559.2L283.9,560.4L281.2,561.5L278.5,562.8L273.8,562.7L270.9,564.7L266.7,565.5L263.1,562.8L261.9,565.5L259.5,567.1L255.9,568.2L253.2,573.3L251.7,574.9L249.4,575.2L244.6,580.9L244.1,582.0L246.3,586.0L245.4,590.1L241.7,594.2L238.1,596.3L236.8,603.8L236.0,605.0L234.1,605.3L231.9,607.2L228.2,607.9L227.7,611.0L227.6,612.2L230.8,616.5L232.3,622.5L230.5,623.7L223.3,623.5L220.8,624.1L219.0,628.1L221.0,631.5L223.0,632.3L227.9,632.9L229.3,634.2L231.6,637.2L238.4,635.2L243.7,634.5L248.7,635.2L252.8,637.1L259.2,639.0L265.5,636.5L269.2,636.8L274.4,640.0L279.1,644.6L281.6,643.8L285.0,641.5L294.2,638.1L302.9,629.4L308.2,625.9L312.0,624.2L312.6,623.4L312.4,622.4Z " data-id="BF.BB" data-name="Bougouriba" id="BF.BB"/>
utf-8utf-8<path d="M336.2,544.3L331.9,542.2L327.3,540.3L322.2,539.1L318.8,537.2L314.1,536.9L308.9,538.7L304.9,539.3L302.9,537.3L299.7,535.8L294.5,537.5L290.6,540.8L285.4,548.0L282.8,553.2L281.7,560.0L281.2,561.5L283.9,560.4L287.8,559.2L294.7,558.0L299.6,558.7L304.4,560.4L304.8,563.8L303.8,568.6L302.7,571.5L303.0,574.5L303.9,577.4L303.1,581.1L301.4,584.8L299.7,591.5L298.0,597.0L299.2,604.0L295.2,605.7L294.1,608.5L296.4,611.4L295.4,614.3L295.2,617.2L296.7,618.1L298.0,616.3L301.6,615.8L306.5,616.1L312.4,622.4L312.6,623.4L315.6,622.8L318.7,623.1L320.8,625.8L321.6,628.1L323.0,629.5L325.8,629.4L329.4,627.6L329.1,626.2L331.5,622.4L332.0,619.2L334.1,615.3L335.5,608.6L336.4,605.6L341.9,599.6L342.6,596.3L340.5,591.0L339.9,586.4L350.8,586.6L350.8,588.1L353.6,588.1L355.5,580.3L357.2,578.9L361.5,578.9L363.1,578.1L365.2,570.3L363.8,567.1L361.4,564.6L355.5,559.6L353.1,559.3L350.3,564.6L346.0,566.2L346.2,563.3L345.2,554.9L344.1,552.6L341.7,551.6L336.1,551.5L334.8,550.1L336.0,547.0L337.3,544.8L336.2,544.3Z " data-id="BF.IO" data-name="Ioba" id="BF.IO"/>
utf-8utf-8<path d="M244.3,477.6L236.5,478.1L234.1,478.7L227.3,482.9L222.1,482.2L216.1,477.9L209.6,475.1L208.9,470.1L204.6,467.3L203.7,464.5L200.7,464.3L200.0,463.9L199.2,466.3L198.3,470.7L198.8,480.4L194.6,494.5L197.3,508.5L199.3,512.4L205.2,519.1L206.6,526.0L207.2,531.4L209.5,534.1L212.4,534.5L212.2,538.5L208.2,557.5L208.9,562.5L211.0,565.8L214.6,565.7L218.3,564.9L219.7,566.0L223.1,572.2L225.7,576.0L230.9,580.9L238.3,589.0L240.5,590.6L243.4,590.5L245.4,590.1L246.3,586.0L244.1,582.0L244.6,580.9L249.4,575.2L251.7,574.9L253.2,573.3L255.9,568.2L259.5,567.1L261.9,565.5L263.1,562.8L266.7,565.5L270.9,564.7L273.8,562.7L278.5,562.8L281.2,561.5L281.7,560.0L282.8,553.2L285.4,548.0L290.6,540.8L294.5,537.5L299.7,535.8L302.9,537.3L304.9,539.3L308.9,538.7L314.1,536.9L318.8,537.2L322.2,539.1L327.3,540.3L331.9,542.2L336.2,544.3L337.3,544.8L339.2,541.6L339.2,535.2L340.9,529.3L341.2,524.3L338.4,518.0L341.2,513.7L341.1,511.6L336.9,508.4L335.4,508.4L334.0,510.8L328.4,508.1L324.4,509.4L322.0,508.5L319.7,506.1L316.3,504.0L313.3,503.7L303.0,510.9L300.1,511.9L297.2,513.7L294.7,516.7L292.5,517.5L290.5,516.4L287.8,518.9L284.6,520.1L282.0,517.2L281.1,513.9L281.2,508.6L275.2,506.4L271.6,502.9L267.5,501.7L266.6,499.9L270.2,489.8L269.6,488.7L263.3,485.5L255.5,483.9L250.9,481.4L245.6,477.4L244.3,477.6Z " data-id="BF.TU" data-name="Tuy" id="BF.TU"/>
utf-8utf-8<path d="M55.7,610.3L49.2,612.2L46.9,613.2L43.3,613.4L41.2,611.3L36.0,604.8L31.5,595.2L19.1,582.5L15.5,580.2L4.4,579.2L3.2,579.2L4.4,586.7L3.6,590.4L6.5,589.6L8.2,593.6L10.5,603.6L12.4,608.4L10.6,616.7L10.5,619.3L7.7,621.6L7.1,623.8L5.8,631.5L6.7,636.3L8.6,637.2L6.5,640.8L6.3,643.0L7.6,645.3L5.9,652.9L2.4,659.2L1.3,666.6L0.6,668.6L2.8,670.1L5.0,673.3L6.6,676.9L6.7,679.4L14.0,685.6L17.8,687.2L20.4,687.3L21.9,685.5L23.8,686.4L26.7,685.9L29.1,683.4L37.1,684.4L39.1,683.8L45.3,687.9L46.4,687.8L47.4,685.9L49.4,686.1L51.4,687.5L54.7,684.7L54.7,681.9L56.8,675.5L56.0,670.5L56.2,668.1L55.3,665.2L53.3,662.6L52.7,656.6L50.1,655.0L48.2,652.8L51.0,646.6L55.1,647.8L58.9,646.3L65.0,644.6L68.6,645.6L70.1,643.1L73.4,633.4L73.2,628.1L72.1,623.6L73.3,617.3L71.2,615.4L69.2,615.9L63.9,614.1L60.4,612.4L59.0,610.2L55.7,610.3Z " data-id="BF.LE" data-name="Léraba" id="BF.LE"/>
utf-8utf-8<path d="M206.4,745.0L206.1,739.1L202.3,734.6L195.1,728.1L193.9,724.3L196.8,715.5L199.6,715.3L203.4,716.3L206.3,716.4L211.8,714.5L215.8,712.0L217.3,710.0L219.6,704.5L223.6,698.2L224.5,695.7L221.0,681.8L221.0,679.4L225.8,672.2L228.1,665.7L231.0,662.6L230.6,656.2L230.9,643.7L231.7,638.3L231.6,637.2L229.3,634.2L227.9,632.9L223.0,632.3L221.0,631.5L219.0,628.1L220.8,624.1L223.3,623.5L230.5,623.7L232.3,622.5L230.8,616.5L227.6,612.2L227.7,611.0L222.3,611.0L220.2,612.0L217.2,616.7L212.8,621.6L211.9,626.8L210.2,628.1L206.0,629.6L204.1,630.9L201.8,631.1L199.2,628.0L191.9,626.5L189.1,625.4L182.8,618.8L180.1,618.3L176.5,620.1L171.2,622.1L160.0,629.1L158.0,629.2L154.9,625.2L147.5,622.6L144.2,622.3L142.3,621.4L140.8,618.9L137.7,609.7L135.0,606.4L131.9,605.1L126.1,604.8L122.9,606.1L119.4,608.6L116.1,612.5L109.4,618.0L107.0,618.3L104.1,616.5L98.5,614.1L93.6,606.7L92.9,604.7L91.9,603.6L90.2,602.9L79.4,603.0L73.8,601.9L71.3,602.1L65.7,607.3L59.0,610.2L60.4,612.4L63.9,614.1L69.2,615.9L71.2,615.4L73.3,617.3L72.1,623.6L73.2,628.1L73.4,633.4L70.1,643.1L68.6,645.6L65.0,644.6L58.9,646.3L55.1,647.8L51.0,646.6L48.2,652.8L50.1,655.0L52.7,656.6L53.3,662.6L55.3,665.2L56.2,668.1L56.0,670.5L56.8,675.5L54.7,681.9L54.7,684.7L51.4,687.5L51.5,687.6L52.4,689.7L52.4,697.6L51.7,699.9L55.9,697.1L56.2,700.0L55.0,704.2L58.4,704.0L57.5,706.6L58.3,708.1L61.5,710.5L61.7,711.6L58.7,712.8L61.0,714.9L59.3,715.8L60.3,717.5L64.5,715.8L65.1,718.4L69.6,721.8L71.9,726.6L71.4,728.5L68.7,728.7L72.3,736.5L70.5,742.4L70.6,744.0L74.3,747.9L75.4,748.3L77.8,745.4L81.3,747.4L84.2,747.6L86.7,748.5L88.5,750.3L89.4,753.3L91.8,752.4L92.8,754.5L93.4,757.8L94.6,760.2L90.3,761.1L92.0,765.0L93.7,764.5L95.3,767.5L97.2,767.1L96.8,765.2L99.3,765.2L102.5,769.0L103.4,772.6L107.6,774.9L109.7,772.0L111.6,772.0L116.3,769.0L119.5,773.4L122.8,773.4L124.5,766.4L127.2,766.2L129.2,767.5L128.9,770.0L127.7,773.7L127.4,776.4L129.2,779.3L133.3,779.8L137.8,779.5L140.9,780.4L142.0,782.5L143.1,787.2L145.6,789.7L146.4,783.8L152.6,784.8L154.3,781.2L155.0,773.5L158.8,768.9L158.4,766.6L160.6,765.7L165.4,765.0L167.7,763.5L171.4,757.8L173.6,755.9L175.8,755.6L185.8,758.8L186.3,757.0L193.3,755.5L194.7,751.1L199.3,749.3L204.0,745.8L206.4,745.0Z " data-id="BF.KM" data-name="Komoé" id="BF.KM"/>
utf-8utf-8<path d="M312.6,623.4L312.0,624.2L308.2,625.9L302.9,629.4L294.2,638.1L285.0,641.5L281.6,643.8L279.1,644.6L274.4,640.0L269.2,636.8L265.5,636.5L259.2,639.0L252.8,637.1L248.7,635.2L243.7,634.5L238.4,635.2L231.6,637.2L231.7,638.3L230.9,643.7L230.6,656.2L231.0,662.6L228.1,665.7L225.8,672.2L221.0,679.4L221.0,681.8L224.5,695.7L223.6,698.2L219.6,704.5L217.3,710.0L215.8,712.0L211.8,714.5L206.3,716.4L203.4,716.3L199.6,715.3L196.8,715.5L193.9,724.3L195.1,728.1L202.3,734.6L206.1,739.1L206.4,745.0L206.6,744.9L215.0,744.7L217.4,743.9L221.8,739.6L223.6,739.0L229.8,738.1L233.1,739.5L235.4,737.1L237.1,737.7L240.3,741.0L242.4,741.5L250.0,740.4L269.8,742.2L271.4,742.9L275.0,746.0L278.9,743.9L279.5,744.9L279.6,750.7L280.9,752.6L283.9,752.3L285.6,750.3L289.9,743.5L291.9,741.9L293.4,742.9L292.8,735.1L296.1,729.2L295.8,722.0L299.5,718.6L306.2,719.0L312.6,719.0L316.3,723.7L321.5,728.3L326.7,729.2L329.3,727.1L330.4,719.9L332.7,715.2L336.4,713.9L345.8,716.5L345.8,711.9L344.5,705.4L344.5,702.5L346.2,699.6L350.1,694.1L350.1,692.3L344.1,687.8L343.7,686.8L340.2,685.8L339.2,683.5L339.8,677.5L340.7,675.4L343.8,672.7L346.8,672.0L348.0,668.6L344.9,668.6L341.3,667.3L336.9,662.9L335.9,661.1L335.5,658.3L332.9,654.8L332.0,648.9L328.3,641.4L330.9,628.7L329.5,628.3L329.4,627.6L325.8,629.4L323.0,629.5L321.6,628.1L320.8,625.8L318.7,623.1L315.6,622.8L312.6,623.4Z " data-id="BF.PO" data-name="Poni" id="BF.PO"/>
utf-8utf-8<path d="M772.1,305.1L773.1,302.8L771.6,298.6L766.7,292.9L762.3,286.5L758.9,282.4L755.1,278.7L752.4,274.7L736.0,268.9L730.4,263.3L729.0,258.2L721.1,249.9L716.9,243.4L713.3,234.4L709.1,228.9L706.7,227.0L706.2,218.3L705.7,215.7L699.7,218.1L696.1,220.0L690.7,221.0L686.1,218.7L680.7,216.9L676.3,216.7L671.6,225.2L669.5,227.5L670.0,228.6L669.0,231.0L664.5,234.1L660.9,239.1L661.4,243.9L663.2,247.6L662.7,253.3L659.7,260.5L658.5,266.0L660.0,271.4L658.9,275.4L655.3,280.8L652.6,287.6L651.9,300.1L652.8,303.9L654.9,308.6L657.4,316.0L659.6,319.7L662.4,321.8L668.0,325.3L672.9,329.3L670.0,340.6L673.1,350.2L673.2,355.7L671.8,361.9L668.4,373.9L669.8,379.7L674.9,383.0L679.7,386.7L679.4,391.7L675.6,397.3L674.8,403.3L678.8,406.5L687.3,409.3L688.5,407.8L695.7,400.3L699.2,395.4L702.6,394.1L706.7,394.6L716.4,389.1L729.9,388.9L735.2,385.0L742.0,378.7L742.0,375.3L738.4,360.5L735.9,337.0L732.4,329.8L729.1,326.1L730.1,324.1L732.7,320.5L733.5,316.1L733.1,313.1L734.2,311.5L737.7,311.9L740.5,313.9L743.5,314.5L747.5,316.4L751.2,317.5L757.6,318.4L764.7,313.7L767.1,313.0L768.4,311.1L768.5,306.1L769.6,305.6L770.3,305.4L772.1,305.1Z " data-id="BF.GG" data-name="Gnagna" id="BF.GG"/>
utf-8utf-8<path d="M853.0,313.2L838.3,299.3L834.5,297.2L825.5,296.4L821.8,294.2L820.7,291.9L820.4,289.1L820.3,286.5L817.9,287.6L806.5,294.6L801.6,298.7L798.3,298.5L795.9,301.5L792.9,304.1L789.2,303.8L786.0,302.4L781.7,304.0L778.3,303.1L775.4,305.2L772.3,306.0L770.3,305.4L769.6,305.6L768.5,306.1L768.4,311.1L767.1,313.0L764.7,313.7L757.6,318.4L751.2,317.5L747.5,316.4L743.5,314.5L740.5,313.9L737.7,311.9L734.2,311.5L733.1,313.1L733.5,316.1L732.7,320.5L730.1,324.1L729.1,326.1L732.4,329.8L735.9,337.0L738.4,360.5L742.0,375.3L742.0,378.7L743.2,378.3L745.8,377.0L755.4,369.8L758.4,368.8L772.9,379.3L774.6,381.6L780.4,395.1L783.3,397.0L785.3,395.3L789.3,393.7L793.8,385.8L794.1,384.0L796.5,380.5L798.9,379.9L799.8,377.9L802.1,375.2L802.9,369.9L805.6,369.7L805.8,364.3L807.8,359.2L809.0,357.6L816.4,355.9L818.8,355.0L820.9,352.4L822.3,349.1L823.9,346.9L829.6,345.9L831.7,347.0L837.0,348.3L838.9,346.9L840.4,344.5L841.9,340.0L843.0,338.7L843.7,334.7L854.4,331.9L856.9,331.7L857.8,331.3L862.3,322.0L862.3,322.0L853.0,313.2Z " data-id="BF.KJ" data-name="Komondjari" id="BF.KJ"/>
utf-8utf-8<path d="M759.9,175.0L754.3,166.6L755.4,162.8L749.8,158.2L748.5,153.2L744.4,149.5L745.6,145.0L741.2,138.7L741.2,135.4L744.2,130.2L746.9,119.0L741.5,111.0L723.4,92.6L720.6,96.3L718.1,97.7L715.9,97.8L712.0,109.2L709.1,112.7L706.5,117.3L697.8,128.5L694.2,129.6L688.8,128.2L682.3,128.1L676.6,129.2L671.8,128.0L666.9,127.3L658.0,132.2L634.6,134.6L626.7,134.7L627.8,136.8L628.7,141.9L627.8,148.3L626.2,153.9L622.7,157.6L618.8,159.2L617.2,159.3L617.7,160.6L618.9,163.2L620.5,165.4L621.4,166.3L623.7,167.1L628.6,169.6L632.1,172.7L639.3,181.3L641.1,186.0L642.0,192.6L644.8,197.5L648.2,200.6L651.6,205.2L656.6,208.2L664.9,208.6L670.3,210.2L670.0,214.2L667.8,218.2L667.1,222.4L669.5,227.5L671.6,225.2L676.3,216.7L680.7,216.9L686.1,218.7L690.7,221.0L696.1,220.0L699.7,218.1L705.7,215.7L709.3,212.6L717.0,208.4L720.4,204.6L722.6,203.2L725.9,202.7L728.4,200.5L731.8,193.7L737.4,191.3L743.1,191.1L745.3,189.3L748.3,183.9L754.0,183.6L756.9,182.0L759.0,179.8L760.9,176.5L759.9,175.0Z " data-id="BF.SE" data-name="Séno" id="BF.SE"/>
utf-8utf-8<path d="M820.3,277.3L820.2,251.6L821.8,245.9L824.5,246.4L834.5,250.9L845.0,253.8L847.5,246.5L849.8,247.2L851.8,249.3L854.3,250.6L857.7,249.1L855.3,246.1L853.4,244.6L845.9,243.2L843.7,242.4L829.9,235.3L825.8,231.9L823.4,227.5L822.8,221.1L817.7,215.0L810.9,210.5L805.0,208.5L798.1,208.9L795.6,207.5L794.0,205.0L794.1,200.8L792.8,200.5L776.1,201.1L772.8,199.8L771.0,196.3L773.5,188.4L772.7,187.0L770.3,186.0L767.6,182.4L763.3,179.3L761.4,177.4L760.9,176.5L759.0,179.8L756.9,182.0L754.0,183.6L748.3,183.9L745.3,189.3L743.1,191.1L737.4,191.3L731.8,193.7L728.4,200.5L725.9,202.7L722.6,203.2L720.4,204.6L717.0,208.4L709.3,212.6L705.7,215.7L706.2,218.3L706.7,227.0L709.1,228.9L713.3,234.4L716.9,243.4L721.1,249.9L729.0,258.2L730.4,263.3L736.0,268.9L752.4,274.7L755.1,278.7L758.9,282.4L762.3,286.5L766.7,292.9L771.6,298.6L773.1,302.8L772.1,305.1L770.3,305.4L772.3,306.0L775.4,305.2L778.3,303.1L781.7,304.0L786.0,302.4L789.2,303.8L792.9,304.1L795.9,301.5L798.3,298.5L801.6,298.7L806.5,294.6L817.9,287.6L820.3,286.5L820.3,277.3Z " data-id="BF.YG" data-name="Yagha" id="BF.YG"/>
utf-8utf-8<path d="M862.3,322.0L862.3,322.0L857.8,331.3L857.2,333.9L857.8,337.4L859.2,341.8L857.3,349.6L854.6,362.7L851.7,368.4L849.2,374.7L849.2,382.5L851.6,396.9L850.8,403.2L849.3,409.4L852.2,416.9L857.7,420.1L862.2,421.0L865.8,422.4L865.7,426.9L862.4,450.4L862.4,457.8L861.2,464.8L859.3,470.1L857.9,476.2L855.1,481.7L853.1,483.2L854.0,485.5L853.5,497.7L857.2,503.8L866.9,510.9L876.0,519.1L877.5,520.9L877.6,520.9L878.9,520.1L879.6,518.1L881.6,519.4L884.1,519.9L896.0,521.0L895.2,524.9L897.4,524.8L900.0,530.3L904.6,528.0L910.5,526.7L914.8,524.7L920.4,525.1L922.8,524.9L927.8,522.7L930.2,522.1L932.4,522.9L933.6,522.0L943.7,526.2L948.2,526.6L968.8,505.1L978.0,496.7L984.7,492.4L986.5,490.5L986.9,485.1L988.2,481.0L993.1,474.9L994.8,471.2L999.4,457.3L992.8,451.1L959.0,398.4L956.6,393.3L956.9,389.2L958.8,387.4L966.0,385.7L967.5,383.8L978.2,383.6L980.0,383.1L980.9,381.5L980.5,374.4L977.2,369.1L976.6,367.3L975.6,358.7L973.2,353.3L970.9,351.7L967.7,348.2L967.0,345.4L963.7,341.1L958.6,339.6L946.4,338.4L943.1,341.8L938.8,342.4L932.4,353.8L930.3,355.4L928.1,355.7L899.2,352.9L895.0,351.6L891.5,349.4L865.6,325.1L862.3,322.0Z " data-id="BF.TA" data-name="Tapoa" id="BF.TA"/>
utf-8</g>
</svg>
