<?xml version="1.0" ?>
<!DOCTYPE svg
  PUBLIC '-//W3C//DTD SVG 1.1//EN'
  'http://www.w3.org/Graphics/SVG/1.1/DTD/svg11.dtd'>
<svg enable_background="new 0 0 1000 577" height="577px" pretty_print="True" style="stroke-linejoin: round; stroke:#000; fill: none;" version="1.1" viewBox="0 0 1000 577" width="1000px" xmlns="http://www.w3.org/2000/svg" xmlns:xlink="http://www.w3.org/1999/xlink">
utf-8<defs>
utf-8utf-8<style type="text/css">
<![CDATA[path { fill-rule: evenodd; }]]>utf-8utf-8</style>
utf-8</defs>
utf-8<metadata>
utf-8utf-8<views>
utf-8utf-8utf-8<view h="577.775910364" padding="0" w="1000">
utf-8utf-8utf-8utf-8<proj flip="auto" id="robinson" lon0="26.2256161765"/>
utf-8utf-8utf-8utf-8<bbox h="48.57" w="84.21" x="298.79" y="-740.84"/>
utf-8utf-8utf-8</view>
utf-8utf-8</views>
utf-8</metadata>
utf-8<g class="" id="provinces">
utf-8utf-8<path d="M685.1,236.1L680.1,233.3L676.4,232.0L673.1,234.0L669.3,234.8L665.2,234.6L658.8,231.0L656.3,233.9L654.9,231.8L655.3,229.5L651.1,227.9L647.0,229.6L641.6,229.2L642.3,234.9L641.5,237.5L639.0,238.6L635.4,243.8L631.4,245.0L627.3,245.6L624.6,253.2L618.1,256.7L614.5,257.7L612.4,261.1L613.5,266.7L612.0,270.9L608.3,270.9L604.7,271.7L601.8,275.0L598.5,277.3L587.9,275.9L580.9,277.4L573.6,277.6L577.0,290.6L583.2,304.2L588.6,311.9L590.1,318.8L582.5,324.5L584.6,327.3L588.4,328.5L591.7,333.1L592.6,337.8L591.2,341.6L596.6,348.9L597.0,353.7L599.6,358.1L608.1,367.3L612.4,376.1L613.3,390.2L622.4,398.8L627.2,397.4L631.8,397.2L635.5,398.7L639.2,398.0L644.4,393.5L645.9,386.4L643.6,377.0L649.7,359.4L646.5,357.5L641.5,357.2L639.5,350.2L645.3,349.7L649.6,346.9L647.3,340.9L650.4,339.1L658.8,341.7L666.0,339.5L668.4,331.9L670.8,329.6L673.7,328.2L669.6,322.5L673.5,319.9L678.0,318.9L687.3,319.6L696.2,317.0L702.6,310.8L703.9,308.9L708.3,309.6L710.2,308.5L711.6,306.3L712.5,300.6L711.2,294.3L706.2,296.7L700.9,298.2L692.6,294.1L687.4,292.7L684.6,287.7L688.2,284.5L693.0,282.8L696.3,279.9L694.9,275.1L695.1,271.6L697.1,268.8L691.7,258.7L692.7,254.3L691.6,250.5L687.7,244.0L690.4,238.4L685.1,236.1Z " data-id="BG.SL" data-name="Sliven" id="BG.SL"/>
utf-8utf-8<path d="M637.0,421.4L630.7,424.5L625.6,421.1L620.8,415.7L611.5,407.4L599.7,404.5L598.3,403.7L596.2,405.0L594.7,407.3L588.7,413.2L581.6,416.4L577.3,411.6L569.9,405.5L565.1,402.1L560.3,404.2L556.2,403.2L558.2,400.2L557.5,393.5L551.8,391.1L544.6,396.0L539.0,394.3L534.0,396.2L532.4,402.4L531.7,409.2L526.4,408.7L521.2,406.3L517.8,406.5L511.8,404.3L508.3,402.9L504.4,402.6L505.1,411.5L507.5,418.1L509.5,425.0L508.9,427.2L511.8,430.6L511.7,433.7L507.3,442.0L499.7,446.9L498.3,451.7L505.5,463.6L514.2,465.0L518.8,463.5L522.0,459.5L524.6,458.0L527.6,457.9L529.7,460.8L530.0,464.6L531.8,467.3L538.6,470.0L542.4,472.7L545.8,472.4L548.3,469.6L551.8,469.5L555.1,472.7L558.1,474.4L561.0,474.4L565.0,478.3L570.1,486.1L567.4,493.7L567.1,499.1L572.8,501.7L575.8,501.1L579.1,499.7L582.0,501.1L584.9,501.5L587.9,499.4L589.4,495.6L594.7,493.1L600.6,495.0L601.6,498.9L603.1,502.7L611.3,509.8L618.6,512.8L624.4,507.1L625.1,503.2L627.6,501.8L630.5,501.9L631.9,498.7L638.5,496.6L639.7,497.1L638.9,496.2L636.8,488.4L638.4,484.8L641.7,484.0L645.6,480.8L649.8,479.8L658.5,479.5L661.7,476.5L665.4,477.4L670.2,481.8L672.5,483.4L675.9,484.2L682.0,483.7L680.2,481.7L678.6,477.8L678.7,473.6L680.4,468.9L686.4,463.7L702.9,464.3L710.3,462.2L712.2,459.6L713.1,456.0L713.3,452.5L713.3,451.1L710.0,452.9L701.4,448.8L697.7,445.4L697.1,438.1L692.6,433.3L687.0,432.2L684.1,436.3L682.1,439.7L680.3,436.7L678.4,430.7L673.1,427.4L658.3,425.7L643.8,419.5L637.0,421.4Z " data-id="BG.KK" data-name="Haskovo" id="BG.KK"/>
utf-8utf-8<path d="M570.2,277.1L566.9,277.6L560.9,276.4L555.3,278.8L550.4,282.4L547.4,280.9L543.6,280.6L545.1,284.2L543.1,286.2L539.6,283.9L536.5,280.6L533.8,279.5L530.5,283.3L527.3,282.2L522.4,284.8L516.9,283.6L513.4,286.2L508.3,286.6L499.6,283.4L490.7,281.9L484.7,285.3L481.8,282.8L479.1,279.5L471.1,279.9L463.3,283.4L455.2,284.8L447.0,284.2L447.0,291.0L451.2,304.7L450.1,308.5L447.2,309.4L452.0,317.2L452.2,319.8L454.0,324.0L457.0,327.3L463.7,331.5L470.9,331.6L476.0,330.1L479.1,334.0L476.7,340.8L480.8,344.5L483.0,345.5L484.1,347.9L483.4,350.7L480.6,350.4L474.4,348.1L470.3,351.0L472.0,357.8L472.8,362.5L475.0,366.8L479.4,373.1L474.9,375.6L469.8,377.5L468.5,384.1L471.8,392.0L475.1,394.0L476.3,393.3L478.2,395.1L482.8,397.3L482.5,400.0L485.5,400.5L487.3,395.8L490.2,395.5L495.6,394.2L500.8,395.4L507.2,399.0L511.8,404.3L517.8,406.5L521.2,406.3L526.4,408.7L531.7,409.2L532.4,402.4L534.0,396.2L539.0,394.3L544.6,396.0L551.8,391.1L557.5,393.5L558.2,400.2L556.2,403.2L560.3,404.2L565.1,402.1L569.9,405.5L577.3,411.6L581.6,416.4L588.7,413.2L594.7,407.3L596.2,405.0L598.3,403.7L599.7,404.5L611.5,407.4L620.8,415.7L625.6,421.1L630.7,424.5L637.0,421.4L643.8,419.5L643.2,414.1L640.4,408.9L639.2,398.0L635.5,398.7L631.8,397.2L627.2,397.4L622.4,398.8L613.3,390.2L612.4,376.1L608.1,367.3L599.6,358.1L597.0,353.7L596.6,348.9L591.2,341.6L592.6,337.8L591.7,333.1L588.4,328.5L584.6,327.3L582.5,324.5L590.1,318.8L588.6,311.9L583.2,304.2L577.0,290.6L573.6,277.6L570.2,277.1Z " data-id="BG.SZ" data-name="Stara Zagora" id="BG.SZ"/>
utf-8utf-8<path d="M351.4,318.9L345.6,319.4L343.4,317.0L337.3,315.0L336.0,311.6L333.9,308.6L329.4,307.3L324.8,307.0L319.4,308.5L313.8,310.6L310.0,316.2L306.5,317.9L302.5,317.9L295.5,321.7L291.4,320.7L287.6,318.1L283.2,316.7L278.8,317.1L274.2,318.6L273.8,322.9L275.7,327.0L278.3,330.5L281.2,332.3L283.5,335.0L290.1,339.9L298.0,338.7L301.0,342.5L299.2,349.6L293.2,352.0L286.9,352.7L285.0,361.4L288.4,368.6L291.1,370.5L291.6,373.7L289.3,376.6L285.9,375.6L281.4,371.2L277.7,372.2L277.1,377.9L272.7,384.8L265.4,387.5L264.5,389.3L265.1,391.9L262.8,393.4L260.1,394.0L262.0,397.8L265.4,400.0L268.5,402.6L269.9,406.6L269.8,409.7L268.1,412.0L268.6,416.2L272.1,419.5L268.0,424.3L264.9,432.8L265.5,436.7L265.0,439.9L267.3,443.4L270.0,446.4L272.0,455.1L276.9,462.3L281.1,464.6L285.0,467.8L287.8,468.4L290.9,467.6L295.1,472.9L314.6,484.2L316.9,487.6L320.0,488.9L324.3,484.4L323.2,478.1L320.5,475.2L317.3,473.1L316.3,468.5L322.0,467.5L330.1,468.6L337.1,473.8L335.9,480.8L338.8,481.0L341.6,478.4L350.7,478.1L357.0,472.5L356.1,463.5L362.0,455.0L366.4,452.3L372.0,449.6L373.9,443.4L375.1,438.0L375.9,429.1L372.4,419.9L370.9,414.6L372.3,410.3L370.9,402.3L374.3,399.6L378.6,398.6L380.7,395.7L377.8,393.0L374.9,391.2L374.6,387.3L374.8,381.8L373.0,376.6L370.0,373.2L369.4,370.4L371.2,365.3L366.9,359.6L363.9,358.6L363.5,354.9L361.5,350.6L360.9,344.4L358.4,339.5L354.8,338.9L354.1,329.2L354.9,320.0L351.4,318.9Z " data-id="BG.PZ" data-name="Pazardzhik" id="BG.PZ"/>
utf-8utf-8<path d="M441.8,283.3L440.4,285.0L440.1,287.3L433.9,290.8L426.7,291.5L418.3,289.8L409.9,289.8L408.8,291.2L406.5,291.7L398.6,290.3L391.8,285.3L385.7,279.0L378.1,276.5L370.5,275.7L364.5,275.8L355.4,283.5L348.8,282.9L344.0,292.1L347.1,300.8L354.4,304.1L360.0,310.3L364.4,312.8L364.1,317.1L360.2,319.8L354.9,320.0L354.1,329.2L354.8,338.9L358.4,339.5L360.9,344.4L361.5,350.6L363.5,354.9L363.9,358.6L366.9,359.6L371.2,365.3L369.4,370.4L370.0,373.2L373.0,376.6L374.8,381.8L374.6,387.3L374.9,391.2L377.8,393.0L380.7,395.7L378.6,398.6L374.3,399.6L370.9,402.3L372.3,410.3L370.9,414.6L372.4,419.9L375.9,429.1L375.1,438.0L394.3,450.4L401.6,447.2L408.9,442.7L417.0,440.5L424.8,439.6L432.8,441.6L439.4,448.4L447.0,452.4L451.3,455.7L455.0,460.8L460.3,460.6L464.4,459.4L471.3,466.7L474.3,466.8L477.2,467.9L481.0,468.2L482.0,460.9L485.2,458.3L486.2,454.1L488.4,451.1L490.7,450.3L491.8,448.1L495.3,445.9L499.7,446.9L507.3,442.0L511.7,433.7L511.8,430.6L508.9,427.2L509.5,425.0L507.5,418.1L505.1,411.5L504.4,402.6L508.3,402.9L511.8,404.3L507.2,399.0L500.8,395.4L495.6,394.2L490.2,395.5L487.3,395.8L485.5,400.5L482.5,400.0L482.8,397.3L478.2,395.1L476.3,393.3L475.1,394.0L471.8,392.0L468.5,384.1L469.8,377.5L474.9,375.6L479.4,373.1L475.0,366.8L472.8,362.5L472.0,357.8L470.3,351.0L474.4,348.1L480.6,350.4L483.4,350.7L484.1,347.9L483.0,345.5L480.8,344.5L476.7,340.8L479.1,334.0L476.0,330.1L470.9,331.6L463.7,331.5L457.0,327.3L454.0,324.0L452.2,319.8L452.0,317.2L447.2,309.4L450.1,308.5L451.2,304.7L447.0,291.0L447.0,284.2L446.7,282.2L441.8,283.3Z " data-id="BG.PD" data-name="Plovdiv" id="BG.PD"/>
utf-8utf-8<path d="M474.3,466.8L471.3,466.7L464.4,459.4L460.3,460.6L455.0,460.8L451.3,455.7L447.0,452.4L439.4,448.4L432.8,441.6L424.8,439.6L417.0,440.5L408.9,442.7L401.6,447.2L394.3,450.4L375.1,438.0L373.9,443.4L372.0,449.6L366.4,452.3L362.0,455.0L356.1,463.5L357.0,472.5L350.7,478.1L341.6,478.4L338.8,481.0L335.9,480.8L337.1,473.8L330.1,468.6L322.0,467.5L316.3,468.5L317.3,473.1L320.5,475.2L323.2,478.1L324.3,484.4L320.0,488.9L322.5,489.9L324.2,492.4L328.8,495.0L326.0,498.5L322.2,500.9L343.0,515.7L345.5,514.2L348.4,513.0L351.2,512.7L354.1,515.3L357.4,517.1L358.0,521.5L359.5,522.0L362.9,520.9L367.3,521.4L373.9,519.8L376.4,519.6L379.8,520.1L382.2,519.6L385.0,515.4L388.4,514.6L392.9,513.0L396.5,515.8L399.1,520.8L400.8,527.8L404.1,531.1L405.7,532.0L409.5,538.6L411.7,539.1L417.3,539.0L416.5,540.9L423.4,541.3L426.5,542.6L429.9,545.2L436.1,551.6L439.9,554.4L443.1,554.6L444.2,551.7L443.4,548.4L443.6,545.8L449.8,545.4L456.7,544.2L462.0,547.0L489.4,557.1L492.8,556.6L495.5,559.7L501.7,562.3L501.7,560.2L499.3,551.0L500.2,547.5L496.5,542.8L498.2,538.4L498.2,533.6L497.2,531.8L497.9,529.3L495.1,520.4L486.8,522.6L484.4,526.6L480.4,524.9L476.6,519.4L473.4,513.5L470.1,509.9L469.6,505.7L472.9,504.5L476.6,505.1L480.9,504.1L484.7,501.4L485.1,499.9L483.7,498.1L482.9,493.6L483.5,489.8L481.0,487.8L478.5,481.3L475.4,477.8L473.3,474.5L474.7,470.7L477.2,467.9L474.3,466.8Z " data-id="BG.SM" data-name="Smolyan" id="BG.SM"/>
utf-8utf-8<path d="M639.7,497.1L638.5,496.6L631.9,498.7L630.5,501.9L627.6,501.8L625.1,503.2L624.4,507.1L618.6,512.8L611.3,509.8L603.1,502.7L601.6,498.9L600.6,495.0L594.7,493.1L589.4,495.6L587.9,499.4L584.9,501.5L582.0,501.1L579.1,499.7L575.8,501.1L572.8,501.7L567.1,499.1L567.4,493.7L570.1,486.1L565.0,478.3L561.0,474.4L558.1,474.4L555.1,472.7L551.8,469.5L548.3,469.6L545.8,472.4L542.4,472.7L538.6,470.0L531.8,467.3L530.0,464.6L529.7,460.8L527.6,457.9L524.6,458.0L522.0,459.5L518.8,463.5L514.2,465.0L505.5,463.6L498.3,451.7L499.7,446.9L495.3,445.9L491.8,448.1L490.7,450.3L488.4,451.1L486.2,454.1L485.2,458.3L482.0,460.9L481.0,468.2L477.2,467.9L474.7,470.7L473.3,474.5L475.4,477.8L478.5,481.3L481.0,487.8L483.5,489.8L482.9,493.6L483.7,498.1L485.1,499.9L484.7,501.4L480.9,504.1L476.6,505.1L472.9,504.5L469.6,505.7L470.1,509.9L473.4,513.5L476.6,519.4L480.4,524.9L484.4,526.6L486.8,522.6L495.1,520.4L497.9,529.3L497.2,531.8L498.2,533.6L498.2,538.4L496.5,542.8L500.2,547.5L499.3,551.0L501.7,560.2L501.7,562.3L502.4,562.6L505.8,564.9L513.6,573.5L516.9,575.2L520.7,575.8L524.4,575.5L550.5,567.6L554.5,566.9L558.8,567.5L560.3,567.0L563.4,561.4L565.5,560.7L579.8,561.6L586.5,564.3L588.3,564.1L592.2,561.0L593.9,560.4L599.5,560.1L605.0,556.4L606.6,555.8L610.4,557.0L615.6,561.8L618.9,563.0L621.1,562.5L624.9,560.6L631.1,560.8L634.5,559.2L640.5,555.7L653.9,552.8L657.6,549.9L659.5,544.9L660.7,540.1L663.2,538.2L662.6,535.4L657.3,529.2L659.1,526.2L658.9,519.3L657.8,516.8L653.3,514.8L652.4,508.9L650.4,504.0L647.7,500.9L641.1,498.7L639.7,497.1Z " data-id="BG.KZ" data-name="Kardzhali" id="BG.KZ"/>
utf-8utf-8<path d="M188.9,332.0L195.1,335.9L201.0,337.2L204.3,331.7L206.7,326.1L213.3,327.3L213.6,329.6L215.0,332.9L218.8,338.2L217.7,344.6L222.3,347.2L228.9,346.2L233.7,347.9L237.2,344.3L234.9,337.9L229.4,333.6L219.6,320.4L211.2,305.8L208.3,301.6L210.0,289.8L216.8,273.0L219.5,267.6L220.9,262.5L215.6,266.0L209.6,265.7L202.8,260.7L195.6,262.1L188.0,265.1L180.0,263.1L171.6,258.5L169.4,256.3L166.7,255.4L163.6,262.2L164.5,271.0L157.3,276.7L159.6,280.2L159.7,284.0L157.6,286.6L154.9,287.9L151.1,287.4L147.5,285.4L140.9,286.0L136.5,291.6L141.0,294.1L148.1,299.5L151.6,300.9L153.6,304.2L155.1,307.8L156.6,314.5L161.7,316.3L171.9,322.7L175.2,325.7L188.9,332.0Z " data-id="BG.SG" data-name="Grad Sofiya" id="BG.SG"/>
utf-8utf-8<path d="M175.9,210.2L169.1,212.6L163.8,211.0L159.0,212.2L153.7,214.5L138.8,213.3L134.3,210.5L121.5,198.4L114.4,199.9L114.9,202.3L113.9,208.7L111.7,215.0L108.9,219.4L103.9,222.4L101.8,228.8L91.9,237.8L87.6,238.7L84.2,243.8L82.3,253.1L81.6,255.3L86.3,258.8L89.5,262.6L92.2,266.7L95.0,267.6L97.6,267.1L99.3,263.7L101.8,264.8L101.5,270.9L104.8,272.8L108.6,270.8L112.0,274.1L115.3,278.9L120.1,278.8L122.1,281.4L125.1,282.0L129.9,281.4L133.5,285.9L136.5,291.6L140.9,286.0L147.5,285.4L151.1,287.4L154.9,287.9L157.6,286.6L159.7,284.0L159.6,280.2L157.3,276.7L164.5,271.0L163.6,262.2L166.7,255.4L169.4,256.3L171.6,258.5L180.0,263.1L188.0,265.1L195.6,262.1L202.8,260.7L209.6,265.7L215.6,266.0L220.9,262.5L219.5,267.6L216.8,273.0L210.0,289.8L208.3,301.6L211.2,305.8L219.6,320.4L229.4,333.6L234.9,337.9L237.2,344.3L233.7,347.9L228.9,346.2L222.3,347.2L217.7,344.6L218.8,338.2L215.0,332.9L213.6,329.6L213.3,327.3L206.7,326.1L204.3,331.7L201.0,337.2L195.1,335.9L188.9,332.0L175.2,325.7L170.6,333.0L168.0,341.6L170.5,350.0L168.7,352.8L168.5,356.4L171.2,356.0L174.0,357.2L177.7,357.0L181.0,356.3L187.5,367.1L189.5,368.0L193.7,372.5L197.3,373.7L200.1,377.8L198.7,380.1L195.6,381.1L194.0,384.6L189.6,390.5L192.3,394.9L199.4,394.0L206.3,392.2L210.7,395.1L214.4,400.0L219.2,400.4L223.6,402.2L222.4,406.4L218.6,409.2L227.6,412.1L232.2,406.2L234.6,399.2L240.5,398.4L244.6,396.9L250.0,396.1L253.2,397.3L256.0,396.1L257.5,393.9L260.1,394.0L262.8,393.4L265.1,391.9L264.5,389.3L265.4,387.5L272.7,384.8L277.1,377.9L277.7,372.2L281.4,371.2L285.9,375.6L289.3,376.6L291.6,373.7L291.1,370.5L288.4,368.6L285.0,361.4L286.9,352.7L293.2,352.0L299.2,349.6L301.0,342.5L298.0,338.7L290.1,339.9L283.5,335.0L281.2,332.3L278.3,330.5L275.7,327.0L273.8,322.9L274.2,318.6L278.8,317.1L283.2,316.7L287.6,318.1L291.4,320.7L295.5,321.7L302.5,317.9L306.5,317.9L310.0,316.2L313.8,310.6L319.4,308.5L324.8,307.0L329.4,307.3L333.9,308.6L336.0,311.6L337.3,315.0L343.4,317.0L345.6,319.4L351.4,318.9L354.9,320.0L360.2,319.8L364.1,317.1L364.4,312.8L360.0,310.3L354.4,304.1L347.1,300.8L344.0,292.1L348.8,282.9L343.7,283.4L338.5,282.4L330.5,278.2L310.3,277.9L306.6,273.6L307.9,265.8L307.5,259.6L306.3,253.4L302.2,248.2L295.9,246.9L291.5,243.4L287.8,239.9L288.6,235.9L287.1,231.9L284.6,229.9L283.1,227.1L279.9,224.3L275.3,224.3L272.8,228.3L269.4,230.5L263.7,227.6L247.7,225.1L241.5,222.8L237.4,225.3L234.4,229.2L230.5,230.6L226.3,230.4L220.9,225.7L214.6,230.7L208.8,234.1L205.2,230.8L202.3,226.6L198.1,222.3L193.5,218.7L188.0,215.1L187.5,211.2L189.5,209.6L192.9,209.6L191.4,207.0L186.2,204.7L181.0,204.5L175.9,210.2Z " data-id="BG.SF" data-name="Sofia" id="BG.SF"/>
utf-8utf-8<path d="M133.5,285.9L129.9,281.4L125.1,282.0L122.1,281.4L120.1,278.8L115.3,278.9L112.0,274.1L108.6,270.8L104.8,272.8L101.5,270.9L101.8,264.8L99.3,263.7L97.6,267.1L95.0,267.6L92.2,266.7L89.5,262.6L86.3,258.8L81.6,255.3L81.5,255.5L79.9,257.6L75.2,259.4L70.5,260.4L58.2,257.6L53.9,258.1L50.1,261.1L45.0,260.8L43.7,261.9L41.6,265.3L36.2,268.5L33.4,272.4L38.7,281.3L41.2,284.2L43.7,285.8L42.0,290.0L38.6,297.0L40.0,299.6L39.8,304.4L39.5,306.4L45.9,305.9L53.8,307.0L59.8,306.5L64.9,308.8L67.6,314.2L71.1,318.9L74.1,321.5L75.2,325.5L78.2,328.3L82.8,327.1L86.0,330.8L86.1,336.9L92.7,343.9L95.6,347.6L99.3,349.6L103.2,352.7L106.3,356.8L110.3,358.9L114.6,358.1L120.5,353.3L130.0,352.6L133.5,351.8L142.4,354.4L145.6,356.1L148.4,355.8L149.8,350.6L154.7,354.1L159.6,354.8L164.1,356.8L168.5,356.4L168.7,352.8L170.5,350.0L168.0,341.6L170.6,333.0L175.2,325.7L171.9,322.7L161.7,316.3L156.6,314.5L155.1,307.8L153.6,304.2L151.6,300.9L148.1,299.5L141.0,294.1L136.5,291.6L133.5,285.9Z " data-id="BG.PN" data-name="Pernik" id="BG.PN"/>
utf-8utf-8<path d="M440.2,199.2L432.7,198.2L430.8,204.2L430.5,211.5L425.0,215.3L423.9,223.1L426.0,229.4L418.6,238.4L422.5,249.7L422.2,252.6L425.2,257.2L432.5,260.1L439.2,264.0L444.2,272.8L446.7,282.2L447.0,284.2L455.2,284.8L463.3,283.4L471.1,279.9L479.1,279.5L481.8,282.8L484.7,285.3L490.7,281.9L499.6,283.4L508.3,286.6L513.4,286.2L516.9,283.6L522.4,284.8L527.3,282.2L530.5,283.3L533.8,279.5L536.5,280.6L539.6,283.9L543.1,286.2L545.1,284.2L543.6,280.6L539.0,272.8L541.7,266.7L542.5,262.3L542.0,257.3L539.7,254.4L536.5,253.6L529.0,247.5L531.4,236.9L527.7,229.5L517.9,228.0L512.8,226.7L501.7,227.1L491.3,226.0L486.9,224.3L484.2,219.2L481.4,215.1L459.8,214.8L455.3,211.9L452.0,207.0L448.3,204.8L446.9,201.1L440.2,199.2Z " data-id="BG.GB" data-name="Gabrovo" id="BG.GB"/>
utf-8utf-8<path d="M444.4,177.1L439.5,169.9L435.9,166.0L435.6,171.0L433.1,173.4L429.2,176.2L424.7,178.0L420.3,179.1L416.2,179.3L412.4,175.7L406.5,176.3L402.8,176.1L393.1,176.6L385.3,182.0L383.4,185.0L381.8,186.1L379.8,183.9L377.3,188.9L374.7,192.2L369.5,196.4L367.2,197.2L365.3,194.7L357.5,194.4L345.6,191.5L342.3,188.9L339.7,185.2L336.5,182.5L333.4,182.4L330.5,183.3L327.6,185.8L325.3,188.7L320.9,189.7L312.7,192.4L308.6,191.8L303.4,189.5L299.9,190.1L295.8,187.4L287.8,190.7L279.9,195.2L282.0,202.6L281.6,210.3L280.4,214.6L276.4,214.5L273.4,212.4L271.1,213.8L272.6,219.3L275.3,224.3L279.9,224.3L283.1,227.1L284.6,229.9L287.1,231.9L288.6,235.9L287.8,239.9L291.5,243.4L295.9,246.9L302.2,248.2L306.3,253.4L307.5,259.6L307.9,265.8L306.6,273.6L310.3,277.9L330.5,278.2L338.5,282.4L343.7,283.4L348.8,282.9L355.4,283.5L364.5,275.8L370.5,275.7L378.1,276.5L385.7,279.0L391.8,285.3L398.6,290.3L406.5,291.7L408.8,291.2L409.9,289.8L418.3,289.8L426.7,291.5L433.9,290.8L440.1,287.3L440.4,285.0L441.8,283.3L446.7,282.2L444.2,272.8L439.2,264.0L432.5,260.1L425.2,257.2L422.2,252.6L422.5,249.7L418.6,238.4L426.0,229.4L423.9,223.1L425.0,215.3L430.5,211.5L430.8,204.2L432.7,198.2L440.2,199.2L446.9,201.1L453.1,194.5L450.8,182.1L444.4,177.1Z " data-id="BG.LV" data-name="Lovech" id="BG.LV"/>
utf-8utf-8<path d="M316.9,90.1L316.8,99.3L311.2,108.1L302.8,112.0L297.6,111.6L293.7,114.9L289.9,119.5L286.4,122.8L290.2,128.6L292.8,135.6L297.8,141.5L305.3,142.8L309.3,151.8L309.8,155.1L309.0,158.9L309.0,170.0L301.8,173.5L296.2,172.6L290.8,172.9L288.0,174.6L286.5,176.7L281.6,175.2L270.4,179.3L267.0,188.8L268.7,191.4L279.9,195.2L287.8,190.7L295.8,187.4L299.9,190.1L303.4,189.5L308.6,191.8L312.7,192.4L320.9,189.7L325.3,188.7L327.6,185.8L330.5,183.3L333.4,182.4L336.5,182.5L339.7,185.2L342.3,188.9L345.6,191.5L357.5,194.4L365.3,194.7L367.2,197.2L369.5,196.4L374.7,192.2L377.3,188.9L379.8,183.9L381.8,186.1L383.4,185.0L385.3,182.0L393.1,176.6L402.8,176.1L406.5,176.3L412.4,175.7L416.2,179.3L420.3,179.1L424.7,178.0L429.2,176.2L433.1,173.4L435.6,171.0L435.9,166.0L439.5,169.9L444.4,177.1L450.8,182.1L453.8,181.5L456.7,180.7L461.7,176.8L467.6,171.2L465.9,164.0L461.8,157.9L459.6,151.0L452.8,151.3L450.5,147.2L455.0,142.8L459.0,137.6L461.8,130.9L460.3,129.1L457.7,128.7L455.7,122.7L459.8,117.6L461.1,109.9L464.6,106.8L468.6,104.5L468.9,103.3L463.3,100.6L456.7,99.2L435.9,97.8L416.5,91.9L383.3,94.0L375.7,93.1L341.9,82.4L336.5,81.8L331.1,83.4L322.9,89.2L320.3,89.9L316.9,90.1Z " data-id="BG.PV" data-name="Pleven" id="BG.PV"/>
utf-8utf-8<path d="M498.3,107.7L492.1,110.2L488.5,111.1L481.5,110.2L475.4,107.3L469.5,103.6L468.9,103.3L468.6,104.5L464.6,106.8L461.1,109.9L459.8,117.6L455.7,122.7L457.7,128.7L460.3,129.1L461.8,130.9L459.0,137.6L455.0,142.8L450.5,147.2L452.8,151.3L459.6,151.0L461.8,157.9L465.9,164.0L467.6,171.2L461.7,176.8L456.7,180.7L453.8,181.5L450.8,182.1L453.1,194.5L446.9,201.1L448.3,204.8L452.0,207.0L455.3,211.9L459.8,214.8L481.4,215.1L484.2,219.2L486.9,224.3L491.3,226.0L501.7,227.1L512.8,226.7L517.9,228.0L527.7,229.5L531.4,236.9L529.0,247.5L536.5,253.6L539.7,254.4L542.0,257.3L542.5,262.3L541.7,266.7L539.0,272.8L543.6,280.6L547.4,280.9L550.4,282.4L555.3,278.8L560.9,276.4L566.9,277.6L570.2,277.1L573.6,277.6L580.9,277.4L587.9,275.9L598.5,277.3L601.8,275.0L604.7,271.7L608.3,270.9L612.0,270.9L613.5,266.7L612.4,261.1L614.5,257.7L618.1,256.7L624.6,253.2L627.3,245.6L621.0,241.5L614.3,240.2L612.9,235.8L616.1,233.2L615.9,230.7L613.6,230.0L611.5,228.2L610.4,225.3L605.4,216.9L605.2,212.3L606.9,208.2L606.4,204.9L607.1,202.1L611.6,201.7L608.9,194.6L602.9,188.5L602.7,184.2L605.6,181.0L600.7,176.7L594.4,174.6L588.5,174.3L582.8,172.4L580.8,167.9L579.5,163.8L574.9,163.7L570.7,165.7L566.5,165.9L562.3,165.0L556.8,164.6L551.2,163.2L545.1,158.3L542.7,158.4L541.1,156.1L537.3,156.2L535.7,159.7L526.2,156.6L516.5,148.8L517.8,138.2L515.3,137.0L513.4,139.2L510.9,138.8L510.3,136.5L501.6,131.0L500.2,126.9L503.4,124.5L506.0,117.9L502.1,109.5L500.6,107.3L498.3,107.7Z " data-id="BG.VT" data-name="Veliko Tarnovo" id="BG.VT"/>
utf-8utf-8<path d="M197.3,75.1L179.2,66.8L153.8,65.6L139.6,67.4L134.0,70.2L128.6,71.3L124.0,73.1L111.5,74.1L111.6,80.9L110.9,85.4L107.0,86.4L103.1,86.1L100.9,88.8L103.6,91.5L110.0,93.3L111.5,97.2L113.7,101.1L112.2,103.9L104.8,106.4L100.1,114.0L98.9,124.3L101.0,127.2L104.6,127.8L105.9,131.5L104.9,134.7L96.3,137.1L87.2,138.1L81.6,140.0L78.5,141.6L79.1,145.7L76.0,155.7L69.1,161.7L70.6,162.6L83.0,172.7L88.7,183.1L92.9,186.5L97.7,191.6L100.1,193.5L103.1,195.1L111.1,196.6L113.9,197.6L114.4,199.9L121.5,198.4L134.3,210.5L138.8,213.3L153.7,214.5L159.0,212.2L163.8,211.0L169.1,212.6L175.9,210.2L181.0,204.5L180.1,199.4L184.2,196.1L188.3,195.8L189.9,191.4L179.5,186.7L167.2,182.9L168.0,177.6L171.4,173.3L174.1,168.0L177.4,163.2L177.8,155.7L176.7,148.3L180.8,142.2L186.9,138.8L191.0,140.9L197.3,140.9L200.5,137.3L204.0,134.7L206.8,136.2L208.8,134.4L208.3,132.1L204.4,129.6L202.9,127.8L196.2,123.8L196.7,120.9L199.3,119.2L200.9,116.6L200.5,112.0L202.9,105.6L204.7,98.8L204.5,82.1L201.8,75.7L197.3,75.1Z " data-id="BG.MT" data-name="Montana" id="BG.MT"/>
utf-8utf-8<path d="M201.8,75.7L204.5,82.1L204.7,98.8L202.9,105.6L200.5,112.0L200.9,116.6L199.3,119.2L196.7,120.9L196.2,123.8L202.9,127.8L204.4,129.6L208.3,132.1L208.8,134.4L206.8,136.2L204.0,134.7L200.5,137.3L197.3,140.9L191.0,140.9L186.9,138.8L180.8,142.2L176.7,148.3L177.8,155.7L177.4,163.2L174.1,168.0L171.4,173.3L168.0,177.6L167.2,182.9L179.5,186.7L189.9,191.4L188.3,195.8L184.2,196.1L180.1,199.4L181.0,204.5L186.2,204.7L191.4,207.0L192.9,209.6L189.5,209.6L187.5,211.2L188.0,215.1L193.5,218.7L198.1,222.3L202.3,226.6L205.2,230.8L208.8,234.1L214.6,230.7L220.9,225.7L226.3,230.4L230.5,230.6L234.4,229.2L237.4,225.3L241.5,222.8L247.7,225.1L263.7,227.6L269.4,230.5L272.8,228.3L275.3,224.3L272.6,219.3L271.1,213.8L273.4,212.4L276.4,214.5L280.4,214.6L281.6,210.3L282.0,202.6L279.9,195.2L268.7,191.4L267.0,188.8L270.4,179.3L281.6,175.2L286.5,176.7L288.0,174.6L290.8,172.9L296.2,172.6L301.8,173.5L309.0,170.0L309.0,158.9L309.8,155.1L309.3,151.8L305.3,142.8L297.8,141.5L292.8,135.6L290.2,128.6L286.4,122.8L289.9,119.5L293.7,114.9L297.6,111.6L302.8,112.0L311.2,108.1L316.8,99.3L316.9,90.1L288.9,91.3L230.5,78.7L220.9,74.1L217.4,73.5L204.2,76.1L201.8,75.7Z " data-id="BG.VR" data-name="Vratsa" id="BG.VR"/>
utf-8utf-8<path d="M164.1,356.8L159.6,354.8L154.7,354.1L149.8,350.6L148.4,355.8L145.6,356.1L142.4,354.4L133.5,351.8L130.0,352.6L120.5,353.3L114.6,358.1L110.3,358.9L106.3,356.8L103.2,352.7L99.3,349.6L95.6,347.6L92.7,343.9L86.1,336.9L86.0,330.8L82.8,327.1L78.2,328.3L75.2,325.5L74.1,321.5L71.1,318.9L67.6,314.2L64.9,308.8L59.8,306.5L53.8,307.0L45.9,305.9L39.5,306.4L38.3,314.1L38.2,317.9L38.9,318.2L47.9,325.1L53.1,328.3L55.4,330.5L57.8,336.1L57.7,340.1L56.3,347.2L54.9,350.2L48.9,352.8L46.7,355.7L44.9,362.7L42.9,365.5L40.1,366.3L33.4,366.4L30.5,367.9L48.3,386.9L54.7,391.0L57.4,396.5L64.0,403.4L78.8,412.3L88.5,416.6L93.4,417.5L96.8,420.1L105.7,420.0L107.7,423.3L109.0,424.2L116.3,425.5L116.8,426.9L121.0,421.9L124.5,422.4L125.3,418.5L129.3,411.7L133.3,411.5L136.4,415.1L141.0,414.8L145.9,416.3L150.4,418.9L155.3,418.4L160.1,417.2L164.3,414.3L171.9,410.6L178.4,410.9L181.4,410.4L202.3,416.3L211.3,414.8L218.6,409.2L222.4,406.4L223.6,402.2L219.2,400.4L214.4,400.0L210.7,395.1L206.3,392.2L199.4,394.0L192.3,394.9L189.6,390.5L194.0,384.6L195.6,381.1L198.7,380.1L200.1,377.8L197.3,373.7L193.7,372.5L189.5,368.0L187.5,367.1L181.0,356.3L177.7,357.0L174.0,357.2L171.2,356.0L168.5,356.4L164.1,356.8Z " data-id="BG.KY" data-name="Kyustendil" id="BG.KY"/>
utf-8utf-8<path d="M69.1,161.7L76.0,155.7L79.1,145.7L78.5,141.6L81.6,140.0L87.2,138.1L96.3,137.1L104.9,134.7L105.9,131.5L104.6,127.8L101.0,127.2L98.9,124.3L100.1,114.0L104.8,106.4L112.2,103.9L113.7,101.1L111.5,97.2L110.0,93.3L103.6,91.5L100.9,88.8L103.1,86.1L107.0,86.4L110.9,85.4L111.6,80.9L111.5,74.1L90.7,75.7L85.7,74.7L81.3,71.6L79.0,68.0L78.4,63.7L80.6,49.2L81.9,44.9L84.9,43.1L88.1,42.7L94.2,40.9L97.6,40.5L102.8,37.8L104.9,31.9L102.8,26.0L95.7,23.3L88.4,22.5L82.4,20.3L46.2,0.0L39.8,2.8L36.5,7.5L33.9,10.3L34.7,13.2L33.7,18.8L35.6,28.6L34.1,31.6L31.3,32.1L28.1,31.9L24.9,32.9L23.4,35.3L22.5,38.1L20.9,40.1L10.0,41.2L6.6,42.5L5.0,45.2L5.3,56.1L3.4,60.5L3.7,66.2L2.8,72.1L1.3,76.6L0.9,80.8L3.5,85.9L8.1,90.3L8.4,96.6L12.1,103.9L16.0,107.6L20.9,109.8L22.7,111.2L24.0,113.8L24.6,118.2L26.1,120.5L25.6,122.3L26.5,128.5L28.8,132.0L32.7,141.1L34.6,144.8L37.0,146.6L42.5,148.8L46.2,152.4L47.9,153.4L54.5,154.0L59.4,159.7L68.3,161.2L69.1,161.7Z " data-id="BG.VD" data-name="Vidin" id="BG.VD"/>
utf-8utf-8<path d="M778.0,244.7L770.9,247.7L763.4,249.5L756.4,247.3L750.1,247.6L745.0,248.5L739.6,245.5L730.7,246.2L727.5,246.0L725.0,247.6L722.3,253.4L717.3,256.2L711.2,257.2L705.3,255.1L704.9,250.8L702.9,247.9L691.6,250.5L692.7,254.3L691.7,258.7L697.1,268.8L695.1,271.6L694.9,275.1L696.3,279.9L693.0,282.8L688.2,284.5L684.6,287.7L687.4,292.7L692.6,294.1L700.9,298.2L706.2,296.7L711.2,294.3L720.7,295.6L728.1,306.1L730.1,311.5L732.6,316.4L734.9,318.0L736.4,320.6L737.0,323.0L745.8,331.7L749.4,333.5L750.0,337.4L765.7,347.0L769.6,353.7L774.4,355.1L779.4,355.2L784.6,357.9L788.3,363.3L788.1,369.3L783.1,372.0L781.4,375.4L781.9,379.8L782.9,383.1L781.7,387.1L780.9,392.7L783.8,397.9L787.8,403.1L787.4,410.2L787.8,412.3L790.6,412.3L796.5,414.6L799.2,416.4L804.6,416.4L808.6,417.3L812.6,411.3L814.5,409.8L817.9,409.4L823.7,410.6L829.1,413.3L834.0,417.2L841.9,426.6L845.9,430.3L850.1,433.4L862.7,439.3L865.3,441.2L869.7,446.0L872.0,447.4L874.5,446.3L872.1,442.9L876.9,440.9L878.1,439.3L880.7,439.2L880.8,437.3L892.9,434.3L898.8,434.5L907.7,438.7L914.0,438.6L914.3,437.4L911.6,436.0L911.6,429.5L917.2,429.1L922.8,430.1L929.5,432.5L937.2,431.7L939.7,432.4L944.9,431.6L945.6,429.3L945.1,426.7L943.6,424.2L941.5,422.4L942.4,421.0L937.9,416.5L938.3,414.4L936.0,413.7L933.1,410.1L923.9,405.2L920.4,399.9L919.1,398.5L914.0,396.1L914.7,393.3L910.4,390.7L906.4,386.2L900.2,382.8L901.1,381.4L896.8,378.4L895.6,374.9L897.0,371.3L900.6,368.3L898.1,365.2L898.7,362.9L892.4,363.8L890.0,362.9L887.9,361.0L886.6,358.3L886.4,355.7L887.7,353.7L885.4,353.0L884.0,351.1L887.2,349.8L887.0,348.4L882.8,347.6L882.3,345.7L878.8,348.1L876.2,347.6L874.4,345.2L873.0,341.9L873.9,340.5L871.6,339.9L866.5,341.9L862.3,339.9L861.1,341.9L858.0,339.6L856.5,340.6L855.5,342.8L853.8,344.4L852.1,344.0L846.5,339.3L845.9,343.2L845.5,340.5L843.3,338.6L842.9,335.8L844.1,334.0L847.2,335.2L848.4,330.5L848.9,325.7L850.4,321.7L854.8,319.3L869.7,319.7L872.5,320.8L868.2,312.2L867.2,307.1L869.9,304.9L873.4,304.3L880.0,301.6L884.1,301.0L881.5,299.8L880.2,298.4L880.7,291.8L883.4,290.4L890.4,290.6L899.2,291.9L907.3,291.5L907.4,286.5L906.2,277.3L904.6,272.3L902.8,268.1L902.5,265.1L897.7,266.4L894.7,269.2L890.0,270.0L885.2,268.4L880.5,266.4L876.0,263.7L872.1,259.8L867.8,256.6L863.4,254.4L859.0,253.2L853.4,256.6L839.8,259.7L831.8,258.2L824.0,254.3L820.2,253.9L816.7,252.8L810.8,245.8L803.8,240.3L795.8,238.1L786.9,242.9L778.0,244.7Z " data-id="BG.BR" data-name="Burgas" id="BG.BR"/>
utf-8utf-8<path d="M711.2,294.3L712.5,300.6L711.6,306.3L710.2,308.5L708.3,309.6L703.9,308.9L702.6,310.8L696.2,317.0L687.3,319.6L678.0,318.9L673.5,319.9L669.6,322.5L673.7,328.2L670.8,329.6L668.4,331.9L666.0,339.5L658.8,341.7L650.4,339.1L647.3,340.9L649.6,346.9L645.3,349.7L639.5,350.2L641.5,357.2L646.5,357.5L649.7,359.4L643.6,377.0L645.9,386.4L644.4,393.5L639.2,398.0L640.4,408.9L643.2,414.1L643.8,419.5L658.3,425.7L673.1,427.4L678.4,430.7L680.3,436.7L682.1,439.7L684.1,436.3L687.0,432.2L692.6,433.3L697.1,438.1L697.7,445.4L701.4,448.8L710.0,452.9L713.3,451.1L713.3,450.0L713.8,446.2L710.8,443.7L717.3,436.2L719.7,434.6L722.6,434.3L737.9,436.5L740.9,436.2L745.5,432.0L747.4,431.5L752.2,434.5L755.3,434.3L760.1,430.6L764.9,431.1L768.0,428.9L772.4,429.0L774.0,427.1L776.2,422.8L781.2,420.0L784.0,414.0L787.6,412.3L787.8,412.3L787.4,410.2L787.8,403.1L783.8,397.9L780.9,392.7L781.7,387.1L782.9,383.1L781.9,379.8L781.4,375.4L783.1,372.0L788.1,369.3L788.3,363.3L784.6,357.9L779.4,355.2L774.4,355.1L769.6,353.7L765.7,347.0L750.0,337.4L749.4,333.5L745.8,331.7L737.0,323.0L736.4,320.6L734.9,318.0L732.6,316.4L730.1,311.5L728.1,306.1L720.7,295.6L711.2,294.3Z " data-id="BG.YA" data-name="Yambol" id="BG.YA"/>
utf-8utf-8<path d="M735.6,98.2L731.2,93.2L728.4,91.9L725.8,93.5L723.9,91.3L723.3,87.0L720.7,85.1L718.9,83.0L715.7,81.1L712.7,77.6L711.2,73.9L708.9,74.2L707.0,77.2L702.0,78.6L701.0,80.9L695.0,73.6L689.7,73.1L675.7,69.0L671.2,62.7L669.5,59.4L666.3,56.0L662.5,54.5L658.8,57.1L654.5,58.3L649.7,54.1L644.2,52.8L638.7,53.6L628.4,65.0L625.8,72.2L619.1,76.1L619.7,83.8L628.3,87.2L633.1,87.5L637.2,89.4L634.8,92.8L636.2,100.6L633.2,102.1L631.5,106.4L629.8,109.5L621.5,108.4L616.1,112.3L611.5,108.8L610.1,112.3L611.0,116.7L610.5,117.7L611.1,127.9L615.2,133.0L621.7,130.7L629.0,132.6L637.7,137.0L644.9,143.0L643.4,149.7L647.7,152.2L657.4,153.3L665.8,155.7L665.9,163.1L667.8,168.7L677.8,168.7L681.8,170.2L685.6,170.1L690.7,164.9L697.3,163.5L697.0,156.1L700.3,156.2L703.8,156.9L704.5,151.6L701.8,147.5L702.0,142.8L707.0,139.5L712.8,137.8L714.6,134.2L711.4,130.3L715.1,127.7L719.4,123.9L722.9,120.0L726.3,119.1L728.4,121.7L731.0,123.0L739.9,110.7L743.5,107.7L740.7,101.5L735.6,98.2Z " data-id="BG.RG" data-name="Razgrad" id="BG.RG"/>
utf-8utf-8<path d="M700.3,156.2L697.0,156.1L697.3,163.5L690.7,164.9L685.6,170.1L681.8,170.2L677.8,168.7L667.8,168.7L665.9,163.1L665.8,155.7L657.4,153.3L647.7,152.2L643.4,149.7L644.9,143.0L637.7,137.0L629.0,132.6L621.7,130.7L615.2,133.0L612.2,134.6L608.1,133.9L604.7,134.6L601.0,133.9L597.6,136.4L592.8,138.5L592.8,144.6L591.0,148.8L587.8,152.2L584.0,154.9L580.2,155.9L581.6,160.2L584.9,164.1L589.2,164.6L593.0,166.1L594.1,170.3L594.4,174.6L600.7,176.7L605.6,181.0L602.7,184.2L602.9,188.5L608.9,194.6L611.6,201.7L607.1,202.1L606.4,204.9L606.9,208.2L605.2,212.3L605.4,216.9L610.4,225.3L611.5,228.2L613.6,230.0L615.9,230.7L616.1,233.2L612.9,235.8L614.3,240.2L621.0,241.5L627.3,245.6L631.4,245.0L635.4,243.8L639.0,238.6L641.5,237.5L642.3,234.9L641.6,229.2L647.0,229.6L651.1,227.9L655.3,229.5L654.9,231.8L656.3,233.9L658.8,231.0L665.2,234.6L669.3,234.8L673.1,234.0L676.4,232.0L680.1,233.3L685.1,236.1L690.4,238.4L693.0,237.5L695.0,235.4L698.8,234.6L698.1,231.3L695.6,228.6L697.4,226.8L700.2,226.4L701.2,223.1L701.2,220.3L704.6,219.5L705.5,216.8L702.3,215.2L700.3,212.6L703.0,207.7L707.9,206.0L709.7,202.3L710.9,197.3L713.0,195.7L715.3,195.6L714.5,187.4L708.2,178.7L708.5,174.3L709.5,169.8L711.3,167.0L714.1,165.2L711.8,158.4L703.8,156.9L700.3,156.2Z " data-id="BG.TU" data-name="Targovishte" id="BG.TU"/>
utf-8utf-8<path d="M762.5,107.2L755.4,100.9L748.6,97.3L740.7,101.5L743.5,107.7L739.9,110.7L731.0,123.0L728.4,121.7L726.3,119.1L722.9,120.0L719.4,123.9L715.1,127.7L711.4,130.3L714.6,134.2L712.8,137.8L707.0,139.5L702.0,142.8L701.8,147.5L704.5,151.6L703.8,156.9L711.8,158.4L714.1,165.2L711.3,167.0L709.5,169.8L708.5,174.3L708.2,178.7L714.5,187.4L715.3,195.6L713.0,195.7L710.9,197.3L709.7,202.3L707.9,206.0L703.0,207.7L700.3,212.6L702.3,215.2L705.5,216.8L704.6,219.5L701.2,220.3L701.2,223.1L700.2,226.4L697.4,226.8L695.6,228.6L698.1,231.3L698.8,234.6L695.0,235.4L693.0,237.5L690.4,238.4L687.7,244.0L691.6,250.5L702.9,247.9L704.9,250.8L705.3,255.1L711.2,257.2L717.3,256.2L722.3,253.4L725.0,247.6L727.5,246.0L730.7,246.2L739.6,245.5L745.0,248.5L750.1,247.6L756.4,247.3L763.4,249.5L770.9,247.7L778.0,244.7L773.3,240.4L770.4,235.7L773.8,233.1L782.7,228.4L790.0,226.7L788.5,222.1L781.0,219.8L785.0,216.6L780.8,212.8L782.9,208.7L787.7,206.1L787.3,201.6L781.8,199.7L777.1,196.1L777.1,191.4L780.4,189.0L785.9,188.5L791.2,187.4L790.3,178.8L794.5,177.3L798.1,174.6L792.4,167.9L791.6,163.1L792.5,159.5L795.3,156.3L800.0,149.1L795.6,144.9L797.1,142.6L798.4,138.3L790.3,136.0L797.9,129.4L810.3,126.2L808.0,120.9L804.0,118.9L797.8,119.9L791.7,121.6L786.9,119.7L782.8,113.9L773.1,107.4L762.5,107.2Z " data-id="BG.SH" data-name="Shumen" id="BG.SH"/>
utf-8utf-8<path d="M841.5,46.3L837.1,46.2L834.5,48.4L835.8,52.7L833.3,55.5L830.4,55.7L831.6,57.9L831.6,61.5L827.0,62.4L823.2,59.5L819.3,60.5L818.2,66.3L819.4,72.3L813.6,76.3L805.1,73.7L800.3,74.6L796.7,77.5L799.9,86.9L793.0,87.0L785.0,81.8L782.0,83.3L780.6,87.1L773.7,93.3L774.4,101.9L778.9,107.1L776.3,108.1L773.1,107.4L782.8,113.9L786.9,119.7L791.7,121.6L797.8,119.9L804.0,118.9L808.0,120.9L810.3,126.2L816.8,127.8L822.3,133.7L823.9,138.3L828.1,140.0L830.8,138.0L833.9,137.6L836.8,136.3L838.0,132.6L840.4,131.8L846.7,138.7L853.7,143.9L859.8,145.0L864.3,148.1L867.8,152.9L876.8,161.4L886.8,165.7L889.9,164.7L892.1,162.1L896.5,160.1L901.6,160.4L906.5,164.3L910.2,168.0L915.8,168.0L921.9,167.6L921.9,167.6L922.4,166.0L926.0,160.7L931.7,157.6L934.9,157.1L945.3,157.6L948.2,156.9L953.8,154.2L957.2,153.6L964.9,154.9L969.1,156.3L972.8,159.3L980.4,162.8L982.9,165.4L982.6,162.1L984.3,157.8L990.9,151.6L994.5,148.7L996.7,143.5L998.4,137.4L999.1,132.5L998.6,129.7L993.2,121.9L992.5,119.5L989.8,96.2L989.8,93.5L967.2,94.7L932.6,89.6L898.1,76.5L892.3,72.8L882.2,50.7L869.0,46.1L858.7,51.5L848.7,53.7L841.5,46.3Z " data-id="BG.DO" data-name="Dobrich" id="BG.DO"/>
utf-8utf-8<path d="M810.3,126.2L797.9,129.4L790.3,136.0L798.4,138.3L797.1,142.6L795.6,144.9L800.0,149.1L795.3,156.3L792.5,159.5L791.6,163.1L792.4,167.9L798.1,174.6L794.5,177.3L790.3,178.8L791.2,187.4L785.9,188.5L780.4,189.0L777.1,191.4L777.1,196.1L781.8,199.7L787.3,201.6L787.7,206.1L782.9,208.7L780.8,212.8L785.0,216.6L781.0,219.8L788.5,222.1L790.0,226.7L782.7,228.4L773.8,233.1L770.4,235.7L773.3,240.4L778.0,244.7L786.9,242.9L795.8,238.1L803.8,240.3L810.8,245.8L816.7,252.8L820.2,253.9L824.0,254.3L831.8,258.2L839.8,259.7L853.4,256.6L859.0,253.2L863.4,254.4L867.8,256.6L872.1,259.8L876.0,263.7L880.5,266.4L885.2,268.4L890.0,270.0L894.7,269.2L897.7,266.4L902.5,265.1L902.5,265.0L905.4,262.8L904.1,259.9L903.3,246.9L902.2,243.0L898.7,234.2L897.8,229.9L898.2,227.7L901.3,223.3L902.3,214.0L904.3,205.7L904.1,203.4L902.9,201.9L896.9,198.3L896.7,197.0L900.9,195.6L911.4,193.0L914.0,191.2L915.7,188.0L921.9,167.6L915.8,168.0L910.2,168.0L906.5,164.3L901.6,160.4L896.5,160.1L892.1,162.1L889.9,164.7L886.8,165.7L876.8,161.4L867.8,152.9L864.3,148.1L859.8,145.0L853.7,143.9L846.7,138.7L840.4,131.8L838.0,132.6L836.8,136.3L833.9,137.6L830.8,138.0L828.1,140.0L823.9,138.3L822.3,133.7L816.8,127.8L810.3,126.2Z " data-id="BG.VN" data-name="Varna" id="BG.VN"/>
utf-8utf-8<path d="M626.1,33.3L626.6,35.2L629.6,39.6L633.9,40.1L635.6,45.9L638.7,53.6L644.2,52.8L649.7,54.1L654.5,58.3L658.8,57.1L662.5,54.5L666.3,56.0L669.5,59.4L671.2,62.7L675.7,69.0L689.7,73.1L695.0,73.6L701.0,80.9L702.0,78.6L707.0,77.2L708.9,74.2L711.2,73.9L712.7,77.6L715.7,81.1L718.9,83.0L720.7,85.1L723.3,87.0L723.9,91.3L725.8,93.5L728.4,91.9L731.2,93.2L735.6,98.2L740.7,101.5L748.6,97.3L755.4,100.9L762.5,107.2L773.1,107.4L776.3,108.1L778.9,107.1L774.4,101.9L773.7,93.3L780.6,87.1L782.0,83.3L785.0,81.8L793.0,87.0L799.9,86.9L796.7,77.5L800.3,74.6L805.1,73.7L813.6,76.3L819.4,72.3L818.2,66.3L819.3,60.5L823.2,59.5L827.0,62.4L831.6,61.5L831.6,57.9L830.4,55.7L833.3,55.5L835.8,52.7L834.5,48.4L837.1,46.2L841.5,46.3L840.3,45.1L836.4,39.3L832.6,38.2L823.6,40.7L793.5,41.0L791.6,39.9L787.9,35.2L785.8,33.7L776.4,30.0L772.7,26.6L772.8,22.3L765.9,20.7L762.4,19.1L745.3,16.1L733.0,9.9L729.2,12.2L710.8,13.8L696.9,21.6L691.4,23.1L684.3,23.1L669.9,27.6L639.0,31.6L626.1,33.3Z " data-id="BG.SI" data-name="Silistra" id="BG.SI"/>
utf-8utf-8<path d="M635.6,45.9L633.9,40.1L629.6,39.6L626.6,35.2L626.1,33.3L622.7,33.8L610.8,38.6L598.3,41.5L593.2,44.1L588.1,49.8L585.8,53.5L585.0,56.5L567.5,68.8L565.3,73.8L558.9,82.1L554.4,84.5L549.8,89.2L546.5,95.3L540.3,97.8L529.5,98.1L524.6,102.0L515.1,105.8L512.4,107.2L508.8,107.5L501.6,107.1L500.6,107.3L502.1,109.5L506.0,117.9L503.4,124.5L500.2,126.9L501.6,131.0L510.3,136.5L510.9,138.8L513.4,139.2L515.3,137.0L517.8,138.2L516.5,148.8L526.2,156.6L535.7,159.7L537.3,156.2L541.1,156.1L542.7,158.4L545.1,158.3L551.2,163.2L556.8,164.6L562.3,165.0L566.5,165.9L570.7,165.7L574.9,163.7L579.5,163.8L580.8,167.9L582.8,172.4L588.5,174.3L594.4,174.6L594.1,170.3L593.0,166.1L589.2,164.6L584.9,164.1L581.6,160.2L580.2,155.9L584.0,154.9L587.8,152.2L591.0,148.8L592.8,144.6L592.8,138.5L597.6,136.4L601.0,133.9L604.7,134.6L608.1,133.9L612.2,134.6L615.2,133.0L611.1,127.9L610.5,117.7L611.0,116.7L610.1,112.3L611.5,108.8L616.1,112.3L621.5,108.4L629.8,109.5L631.5,106.4L633.2,102.1L636.2,100.6L634.8,92.8L637.2,89.4L633.1,87.5L628.3,87.2L619.7,83.8L619.1,76.1L625.8,72.2L628.4,65.0L638.7,53.6L635.6,45.9Z " data-id="BG.RS" data-name="Ruse" id="BG.RS"/>
utf-8utf-8<path d="M257.5,393.9L256.0,396.1L253.2,397.3L250.0,396.1L244.6,396.9L240.5,398.4L234.6,399.2L232.2,406.2L227.6,412.1L218.6,409.2L211.3,414.8L202.3,416.3L181.4,410.4L178.4,410.9L171.9,410.6L164.3,414.3L160.1,417.2L155.3,418.4L150.4,418.9L145.9,416.3L141.0,414.8L136.4,415.1L133.3,411.5L129.3,411.7L125.3,418.5L124.5,422.4L121.0,421.9L116.8,426.9L116.8,427.0L120.1,438.3L124.3,448.5L124.6,451.4L125.9,453.5L127.8,454.5L129.9,457.5L132.3,464.1L136.5,471.4L139.5,473.5L143.3,473.7L145.1,474.4L148.3,478.5L148.9,483.1L147.6,487.6L144.6,492.7L143.9,495.5L139.5,498.3L138.9,506.0L139.4,508.6L142.3,513.1L141.8,517.5L144.0,534.0L145.5,539.0L143.4,542.3L144.2,546.4L145.4,550.5L145.2,554.1L141.7,556.8L174.0,561.3L180.7,560.6L184.2,559.6L187.8,555.5L188.1,550.4L190.2,548.4L193.5,546.3L197.1,544.9L200.0,544.7L203.2,546.6L206.7,550.3L210.1,549.9L212.8,548.5L217.4,545.3L220.3,544.4L236.2,544.8L247.3,549.8L252.7,550.0L258.7,544.8L261.6,543.8L267.0,543.7L272.4,544.8L274.9,544.2L278.0,538.7L280.3,537.7L289.7,536.7L292.2,535.5L296.1,531.9L297.4,532.0L305.5,537.1L307.9,536.9L310.3,534.5L312.7,533.3L313.2,531.9L316.9,534.1L318.9,534.4L321.4,532.1L319.3,520.0L323.8,518.0L330.3,518.5L335.2,519.8L338.2,522.6L339.4,522.7L340.7,517.7L342.8,515.9L343.0,515.7L322.2,500.9L326.0,498.5L328.8,495.0L324.2,492.4L322.5,489.9L320.0,488.9L316.9,487.6L314.6,484.2L295.1,472.9L290.9,467.6L287.8,468.4L285.0,467.8L281.1,464.6L276.9,462.3L272.0,455.1L270.0,446.4L267.3,443.4L265.0,439.9L265.5,436.7L264.9,432.8L268.0,424.3L272.1,419.5L268.6,416.2L268.1,412.0L269.8,409.7L269.9,406.6L268.5,402.6L265.4,400.0L262.0,397.8L260.1,394.0L257.5,393.9Z " data-id="BG.BL" data-name="Blagoevgrad" id="BG.BL"/>
utf-8</g>
</svg>
