<?xml version="1.0" ?>
<!DOCTYPE svg
  PUBLIC '-//W3C//DTD SVG 1.1//EN'
  'http://www.w3.org/Graphics/SVG/1.1/DTD/svg11.dtd'>
<svg enable_background="new 0 0 1000 2287" height="2287px" pretty_print="True" style="stroke-linejoin: round; stroke:#000; fill: none;" version="1.1" viewBox="0 0 1000 2287" width="1000px" xmlns="http://www.w3.org/2000/svg" xmlns:xlink="http://www.w3.org/1999/xlink">
<defs>
<style type="text/css">
<![CDATA[path { fill-rule: evenodd; }]]></style>
</defs>
<metadata>
<views>
<view h="2287.99424326" padding="0" w="1000">
<proj flip="auto" id="robinson" lon0="2.73893607023"/>
<bbox h="103.72" w="45.35" x="11.2" y="-207.92"/>
</view>
</views>
</metadata>
<g class="" id="provinces">
<path d="M999.7,653.6L876.6,669.0L798.4,686.8L720.0,694.2L672.5,683.2L654.7,682.6L602.6,690.6L551.5,686.3L534.9,689.6L518.5,690.8L501.5,695.3L485.8,695.3L478.9,699.8L476.9,701.7L468.8,713.7L464.9,721.6L462.8,727.6L462.1,732.9L462.3,738.5L464.1,744.2L466.0,747.1L474.3,755.9L477.9,761.6L482.8,775.8L483.9,781.6L488.5,798.6L491.1,824.9L490.8,832.3L490.2,836.8L484.4,843.5L481.5,845.3L468.6,850.5L463.4,851.8L445.6,852.5L442.4,853.6L435.8,858.3L433.2,861.8L431.7,868.2L433.2,875.1L436.0,882.5L431.8,892.2L434.7,910.3L434.7,917.5L432.2,928.0L429.5,947.5L429.2,953.8L429.6,958.6L435.9,979.1L436.6,980.8L440.9,988.5L447.5,996.4L452.9,1001.8L455.9,1008.4L455.9,1013.7L443.2,1108.5L442.0,1113.4L440.7,1115.5L436.1,1119.5L432.6,1120.5L420.4,1120.2L412.7,1120.8L407.4,1121.8L400.4,1126.6L395.7,1142.6L394.2,1155.0L394.0,1176.1L395.0,1187.8L396.4,1195.7L398.7,1200.8L400.7,1203.7L406.7,1209.5L416.3,1214.7L419.8,1219.9L420.3,1222.5L419.8,1227.0L417.0,1234.6L415.0,1243.5L412.7,1260.4L412.0,1278.6L412.5,1284.6L414.0,1292.2L418.2,1300.9L420.5,1303.6L426.0,1308.1L432.5,1311.6L465.0,1321.9L470.0,1325.8L467.2,1338.8L639.0,1340.8L639.1,1340.8L639.1,1340.4L639.2,1336.5L641.0,1333.7L646.5,1330.9L648.2,1328.9L648.6,1325.7L646.9,1320.0L646.5,1316.7L647.7,1311.0L651.8,1300.5L651.9,1294.8L650.7,1292.3L647.7,1290.8L647.1,1287.8L647.9,1287.0L652.6,1278.5L654.3,1268.4L655.0,1245.0L653.9,1235.2L679.0,1237.5L683.4,1236.8L686.5,1234.2L689.3,1231.0L692.7,1228.4L696.2,1227.7L706.2,1227.3L709.7,1227.8L713.3,1229.7L716.5,1232.1L719.7,1233.9L723.5,1233.9L745.7,1227.4L753.7,1221.1L758.7,1209.6L769.4,1171.7L776.1,1157.3L778.1,1149.6L778.0,1125.6L776.9,1119.4L772.8,1107.8L770.6,1097.5L771.8,1087.3L778.0,1075.9L780.4,1073.9L785.6,1071.9L788.0,1069.5L807.8,1040.3L808.2,1038.4L806.4,1033.7L806.0,1031.2L808.5,1022.1L813.7,1020.3L820.0,1021.6L825.8,1022.0L836.4,1015.3L838.6,1005.6L836.0,994.4L832.0,983.0L830.8,975.7L831.5,967.4L834.4,960.0L839.6,955.6L863.0,944.8L875.6,941.0L895.2,943.4L900.9,937.3L909.4,919.8L919.9,905.6L923.2,898.3L925.1,866.7L927.2,860.7L932.2,855.3L937.0,852.7L941.0,849.3L943.9,841.2L945.1,832.5L944.1,826.8L941.2,822.1L919.0,796.5L914.3,788.0L914.0,781.1L920.7,764.4L928.8,750.2L930.1,745.8L930.4,738.5L933.4,732.7L939.8,725.6L946.1,723.3L953.0,724.7L973.8,736.9L978.9,736.1L983.8,729.1L986.0,722.3L986.2,703.2L989.1,693.4L997.4,674.9L999.8,665.0L999.7,653.6Z " data-id="BJ.BO" data-name="Borgou" id="BJ.BO"/>
<path d="M407.5,357.6L409.0,359.6L472.4,486.9L488.4,512.6L491.5,512.8L495.6,513.6L507.8,520.4L518.4,531.9L499.1,550.0L492.7,558.3L489.4,564.7L488.2,569.3L487.6,575.4L489.5,693.0L485.8,695.3L501.5,695.3L518.5,690.8L534.9,689.6L551.5,686.3L602.6,690.6L654.7,682.6L672.5,683.2L720.0,694.2L798.4,686.8L876.6,669.0L999.7,653.6L999.6,644.7L998.0,633.9L995.0,626.8L990.8,624.1L986.2,623.2L982.1,621.7L979.0,617.6L975.9,605.5L974.3,601.5L971.8,598.4L966.3,592.6L964.7,588.2L965.1,581.8L972.0,562.3L972.4,551.5L962.3,512.1L959.8,505.3L958.5,498.0L958.5,490.0L961.8,475.6L959.0,472.7L953.0,473.1L950.3,472.6L942.4,464.2L883.9,372.1L879.1,362.1L878.5,353.6L884.9,333.7L887.0,328.1L890.8,311.4L913.2,268.4L920.3,260.0L918.0,257.9L915.0,252.0L912.2,250.3L910.4,244.3L909.2,241.4L907.6,235.6L906.4,232.7L900.9,227.8L890.0,210.4L887.4,207.6L883.7,204.8L871.9,200.0L857.3,190.0L853.6,188.6L850.1,186.3L846.3,185.5L841.8,188.6L837.4,190.8L832.9,189.5L828.9,186.5L826.2,183.6L821.5,177.6L814.1,163.6L811.7,156.9L810.0,148.5L809.2,140.6L808.2,138.6L803.8,134.9L802.8,132.9L746.8,75.9L733.6,54.2L730.4,47.4L729.2,45.4L726.5,44.5L715.7,43.1L711.9,41.5L708.3,39.5L705.7,36.4L703.6,28.1L701.0,23.5L697.8,19.6L691.2,15.6L675.6,0.0L671.7,5.6L664.0,5.9L660.7,6.7L654.2,6.4L651.0,7.1L647.5,9.7L642.3,16.7L639.3,19.4L635.9,20.3L632.5,17.7L629.0,19.3L627.2,21.4L624.6,29.9L620.1,37.9L617.2,39.8L605.7,36.4L603.5,36.9L599.6,40.1L597.6,41.2L596.0,41.0L592.0,38.9L580.4,42.4L576.0,46.6L574.2,47.9L571.7,48.1L569.3,43.5L562.5,42.9L560.2,43.9L558.7,48.5L556.8,52.3L555.2,51.7L553.4,49.6L550.9,49.0L549.3,50.3L545.8,55.4L541.7,55.9L534.2,55.6L529.8,56.2L521.9,60.2L519.1,66.7L519.4,75.1L522.6,95.6L533.6,130.3L535.4,134.0L537.8,137.0L541.1,140.0L544.6,141.8L547.7,142.6L549.8,144.3L550.5,148.9L550.3,155.3L547.9,155.9L544.5,154.5L541.3,154.8L539.0,157.5L536.5,162.8L534.3,165.6L531.5,166.5L528.4,166.0L525.7,166.8L523.9,171.6L524.3,175.6L528.1,182.0L528.7,185.8L517.1,221.5L512.6,231.1L500.1,246.8L496.7,257.2L496.5,263.7L496.8,267.7L495.6,271.3L491.1,276.1L473.8,287.1L450.1,308.8L407.5,357.6Z " data-id="BJ.AL" data-name="Alibori" id="BJ.AL"/>
<path d="M467.2,1338.8L464.8,1350.3L467.9,1354.7L470.2,1359.8L475.6,1392.8L471.3,1424.5L473.6,1433.4L475.5,1435.5L472.9,1439.9L461.6,1448.0L456.1,1449.8L448.4,1450.1L444.5,1449.4L435.5,1445.7L431.6,1445.0L423.7,1445.0L420.3,1443.9L415.2,1439.5L405.6,1436.3L399.7,1432.3L397.3,1429.8L392.5,1422.7L388.4,1419.7L386.4,1419.4L376.5,1419.5L372.7,1418.6L368.2,1415.8L359.4,1405.1L354.1,1400.8L348.6,1398.6L344.7,1399.0L339.3,1400.0L311.1,1408.5L299.6,1409.5L282.1,1408.8L276.2,1408.3L276.4,1419.4L276.8,1423.7L278.5,1427.9L286.9,1439.9L288.3,1443.5L287.1,1450.0L276.4,1470.0L275.9,1473.1L275.9,1479.5L274.3,1488.5L277.2,1490.8L278.8,1494.2L282.3,1525.9L281.0,1627.1L281.6,1758.9L281.7,1765.4L288.1,1766.1L353.9,1761.7L368.5,1765.2L386.2,1773.5L398.4,1785.7L410.8,1795.3L426.2,1798.2L443.4,1797.7L462.3,1799.7L485.3,1807.9L543.7,1838.0L541.4,1828.8L540.5,1820.0L544.3,1811.9L554.5,1795.5L557.8,1793.1L562.5,1791.4L563.2,1787.3L561.0,1777.7L561.7,1767.2L566.6,1751.9L570.9,1751.6L638.1,1752.1L641.1,1702.3L640.2,1696.9L637.3,1691.6L629.4,1681.8L625.8,1671.2L623.1,1666.7L623.5,1660.8L626.8,1653.7L628.0,1650.4L629.2,1627.1L633.2,1603.7L633.9,1581.6L634.8,1574.9L637.3,1568.6L640.7,1562.5L643.2,1555.7L643.4,1547.6L641.1,1539.7L634.7,1524.3L632.2,1516.1L631.0,1507.3L631.4,1500.3L633.8,1485.0L633.8,1481.5L633.0,1474.7L633.1,1471.4L634.8,1466.8L641.3,1458.5L643.8,1454.2L646.4,1441.7L645.6,1430.9L639.1,1340.8L639.0,1340.8L467.2,1338.8Z " data-id="BJ.CL" data-name="Collines" id="BJ.CL"/>
<path d="M562.4,2204.5L563.7,2195.4L562.3,2178.6L558.4,2175.5L553.3,2173.3L549.7,2166.1L547.3,2132.4L545.6,2081.7L544.5,2060.4L541.3,2045.4L530.1,2024.8L432.1,2025.3L435.1,2034.3L433.5,2039.9L431.5,2044.3L426.4,2059.1L424.9,2062.4L422.2,2065.9L417.5,2075.2L416.4,2078.9L415.9,2082.0L416.5,2086.6L416.8,2093.9L412.5,2103.9L410.8,2113.5L411.1,2120.2L409.8,2126.7L402.9,2136.7L401.9,2139.8L401.5,2143.3L401.9,2153.3L403.0,2174.2L402.7,2181.8L401.8,2186.2L392.9,2212.3L391.2,2220.0L392.2,2231.5L397.2,2239.7L400.0,2249.3L401.1,2255.9L401.0,2259.2L478.9,2249.1L505.0,2242.5L522.2,2240.7L525.2,2231.7L529.2,2227.3L535.0,2223.1L541.9,2220.9L557.3,2218.8L562.4,2204.5Z " data-id="BJ.AQ" data-name="Atlantique" id="BJ.AQ"/>
<path d="M557.3,2218.8L541.9,2220.9L535.0,2223.1L529.2,2227.3L525.2,2231.7L522.2,2240.7L562.6,2236.5L561.9,2230.2L558.7,2228.8L556.2,2226.4L557.3,2218.8Z " data-id="BJ.LI" data-name="Littoral" id="BJ.LI"/>
<path d="M429.8,2023.0L424.4,2026.4L421.0,2028.0L418.9,2027.7L416.0,2026.4L404.9,2017.1L402.4,2013.6L400.9,2007.0L396.5,1999.5L391.2,1996.4L385.9,1988.0L379.1,1976.2L373.9,1971.7L369.8,1968.9L365.7,1961.2L362.6,1945.1L358.4,1927.8L353.3,1918.0L349.2,1915.1L346.4,1908.7L333.8,1890.3L328.8,1886.1L326.2,1882.5L324.9,1879.6L324.4,1872.6L323.8,1870.1L320.8,1864.1L318.9,1854.6L301.8,1813.6L299.3,1809.1L292.4,1799.6L281.8,1797.2L282.0,1833.5L282.8,1996.6L276.9,1998.6L252.3,1998.4L258.6,2024.7L267.6,2035.4L270.6,2039.4L271.3,2044.5L268.8,2060.0L269.0,2066.3L270.4,2072.7L272.9,2080.3L274.9,2089.2L273.6,2094.9L271.0,2098.8L290.2,2109.1L295.7,2109.9L302.8,2110.0L333.4,2101.9L354.0,2093.3L371.7,2089.0L382.6,2089.5L392.6,2092.7L412.5,2103.9L416.8,2093.9L416.5,2086.6L415.9,2082.0L416.4,2078.9L417.5,2075.2L422.2,2065.9L424.9,2062.4L426.4,2059.1L431.5,2044.3L433.5,2039.9L435.1,2034.3L432.1,2025.3L429.8,2023.0Z " data-id="BJ.CF" data-name="Kouffo" id="BJ.CF"/>
<path d="M553.8,1997.8L544.7,1998.9L539.5,2002.0L534.2,2010.1L530.6,2017.3L530.1,2024.8L541.3,2045.4L544.5,2060.4L545.6,2081.7L547.3,2132.4L549.7,2166.1L553.3,2173.3L558.4,2175.5L562.3,2178.6L563.7,2195.4L562.4,2204.5L557.3,2218.8L556.2,2226.4L558.7,2228.8L561.9,2230.2L562.6,2236.5L634.1,2228.9L634.2,2228.9L634.3,2206.4L637.9,2182.3L639.0,2178.7L626.2,2154.3L621.2,2148.2L605.4,2133.1L599.1,2121.5L592.3,2078.2L576.7,2035.5L573.5,2016.8L574.1,1998.0L553.8,1997.8Z " data-id="BJ.OU" data-name="Ouémé" id="BJ.OU"/>
<path d="M485.3,1807.9L462.3,1799.7L443.4,1797.7L426.2,1798.2L410.8,1795.3L398.4,1785.7L386.2,1773.5L368.5,1765.2L353.9,1761.7L288.1,1766.1L281.7,1765.4L281.8,1797.2L292.4,1799.6L299.3,1809.1L301.8,1813.6L318.9,1854.6L320.8,1864.1L323.8,1870.1L324.4,1872.6L324.9,1879.6L326.2,1882.5L328.8,1886.1L333.8,1890.3L346.4,1908.7L349.2,1915.1L353.3,1918.0L358.4,1927.8L362.6,1945.1L365.7,1961.2L369.8,1968.9L373.9,1971.7L379.1,1976.2L385.9,1988.0L391.2,1996.4L396.5,1999.5L400.9,2007.0L402.4,2013.6L404.9,2017.1L416.0,2026.4L418.9,2027.7L421.0,2028.0L424.4,2026.4L429.8,2023.0L432.1,2025.3L530.1,2024.8L530.6,2017.3L534.2,2010.1L539.5,2002.0L544.7,1998.9L553.8,1997.8L574.1,1998.0L580.3,1998.5L586.0,1997.3L587.1,1995.4L585.5,1978.9L578.2,1937.8L578.5,1929.5L576.6,1927.1L561.2,1915.2L556.2,1903.0L550.0,1876.8L550.0,1871.0L548.5,1867.5L546.7,1864.7L545.5,1861.4L545.5,1844.9L543.7,1838.0L485.3,1807.9Z " data-id="BJ.ZO" data-name="Zou" id="BJ.ZO"/>
<path d="M543.7,1838.0L545.5,1844.9L545.5,1861.4L546.7,1864.7L548.5,1867.5L550.0,1871.0L550.0,1876.8L556.2,1903.0L561.2,1915.2L576.6,1927.1L578.5,1929.5L578.2,1937.8L585.5,1978.9L587.1,1995.4L586.0,1997.3L580.3,1998.5L574.1,1998.0L573.5,2016.8L576.7,2035.5L592.3,2078.2L599.1,2121.5L605.4,2133.1L621.2,2148.2L626.2,2154.3L639.0,2178.7L645.1,2158.8L645.7,2151.0L642.9,2135.4L643.0,2127.8L646.7,2119.9L652.6,2114.0L656.6,2111.0L658.4,2106.8L657.3,2089.7L656.7,2086.0L654.7,2084.3L650.7,2083.9L647.4,2082.8L644.6,2080.5L642.1,2076.8L640.5,2069.5L641.3,2061.5L644.8,2046.0L643.1,2030.5L638.7,2016.3L637.6,2002.9L646.0,1989.6L649.8,1987.6L654.0,1986.2L657.3,1984.2L658.6,1980.2L656.7,1976.7L648.2,1968.8L645.4,1964.8L644.1,1960.0L644.4,1957.4L645.8,1955.0L648.8,1947.9L651.4,1944.1L652.5,1940.6L652.8,1935.5L645.8,1844.6L646.6,1840.5L649.1,1838.9L652.5,1838.9L659.6,1840.5L661.6,1834.4L662.5,1818.9L655.2,1805.4L645.6,1792.4L639.1,1778.7L637.3,1764.2L638.1,1752.1L570.9,1751.6L566.6,1751.9L561.7,1767.2L561.0,1777.7L563.2,1787.3L562.5,1791.4L557.8,1793.1L554.5,1795.5L544.3,1811.9L540.5,1820.0L541.4,1828.8L543.7,1838.0Z " data-id="BJ.PL" data-name="Plateau" id="BJ.PL"/>
<path d="M401.0,2259.2L401.1,2255.9L400.0,2249.3L397.2,2239.7L392.2,2231.5L391.2,2220.0L392.9,2212.3L401.8,2186.2L402.7,2181.8L403.0,2174.2L401.9,2153.3L401.5,2143.3L401.9,2139.8L402.9,2136.7L409.8,2126.7L411.1,2120.2L410.8,2113.5L412.5,2103.9L392.6,2092.7L382.6,2089.5L371.7,2089.0L354.0,2093.3L333.4,2101.9L302.8,2110.0L295.7,2109.9L290.2,2109.1L271.0,2098.8L266.2,2106.1L263.5,2114.4L265.6,2118.6L269.8,2122.4L273.3,2129.8L272.6,2139.2L273.7,2143.0L275.6,2146.0L283.5,2153.1L286.6,2153.5L289.8,2153.2L292.1,2154.1L292.6,2158.4L293.4,2160.9L298.8,2166.0L300.9,2169.1L301.3,2172.9L300.5,2180.8L301.2,2184.0L303.4,2186.0L310.4,2190.1L313.2,2192.5L321.6,2207.7L334.1,2262.6L327.3,2263.0L285.4,2274.2L278.7,2278.3L281.1,2286.0L367.4,2263.5L401.0,2259.2Z " data-id="BJ.CF" data-name="Mono" id="BJ.CF"/>
<path d="M406.0,359.4L397.1,364.1L385.6,363.1L371.9,357.2L363.5,352.7L359.5,352.1L356.4,354.4L350.7,352.5L344.5,353.9L331.8,359.7L325.7,360.2L311.3,359.0L306.2,360.8L300.0,364.2L285.1,367.7L279.5,371.0L273.2,373.5L266.4,359.3L260.7,359.7L262.7,349.6L232.2,346.8L225.9,345.4L220.6,342.0L218.7,347.3L211.3,350.9L207.1,354.4L204.4,358.8L204.0,361.9L207.1,369.8L201.8,373.5L194.5,377.1L188.0,381.8L185.2,388.8L187.1,395.2L190.2,400.2L190.9,405.0L185.2,410.4L183.0,407.3L180.6,406.3L178.4,407.3L176.1,410.4L174.1,406.4L170.3,401.6L166.7,399.5L165.1,404.0L165.8,406.9L169.0,410.4L169.7,414.1L169.2,416.9L165.1,425.5L154.3,419.8L149.0,418.1L142.9,417.7L140.1,418.4L136.7,420.5L133.9,420.5L134.3,418.6L131.8,414.4L128.7,411.6L125.3,417.4L122.0,421.0L120.4,425.6L126.5,436.8L127.7,449.4L129.4,455.8L126.1,454.5L119.6,451.0L116.1,451.0L114.7,452.9L112.5,459.6L110.6,461.1L99.9,463.8L98.2,464.6L98.6,470.2L101.8,467.6L104.9,468.4L105.2,469.9L104.9,476.2L109.5,478.5L110.2,482.9L110.8,491.1L112.9,495.0L116.5,499.3L116.2,505.2L115.1,506.9L112.7,504.4L109.5,498.9L106.2,497.6L96.2,496.4L91.4,498.8L89.4,498.9L87.1,494.5L80.6,489.4L73.5,488.1L70.5,488.2L68.4,491.5L66.5,495.9L63.7,500.6L62.6,501.5L62.2,505.2L62.4,509.3L63.5,512.7L66.1,514.1L68.0,516.1L68.3,520.4L67.5,524.7L66.1,526.7L60.3,526.6L56.0,526.0L46.1,519.8L37.8,542.6L36.8,549.9L37.6,553.9L40.3,561.4L40.8,565.4L35.7,576.3L35.1,580.3L34.6,588.7L33.6,592.5L29.4,599.3L11.8,618.2L7.1,630.6L9.7,663.9L9.5,678.3L4.7,698.9L0.2,737.0L0.5,745.5L3.1,751.0L27.7,769.5L185.9,888.0L190.1,900.6L190.1,903.4L194.2,901.7L212.6,897.6L226.3,898.1L242.1,900.2L256.0,903.8L276.5,906.3L292.8,901.9L306.6,894.1L317.3,884.3L328.7,876.9L340.9,871.8L433.2,875.1L431.7,868.2L433.2,861.8L435.8,858.3L442.4,853.6L445.6,852.5L463.4,851.8L468.6,850.5L481.5,845.3L484.4,843.5L490.2,836.8L490.8,832.3L491.1,824.9L488.5,798.6L483.9,781.6L482.8,775.8L477.9,761.6L474.3,755.9L466.0,747.1L464.1,744.2L462.3,738.5L462.1,732.9L462.8,727.6L464.9,721.6L468.8,713.7L476.9,701.7L478.9,699.8L485.8,695.3L489.5,693.0L487.6,575.4L488.2,569.3L489.4,564.7L492.7,558.3L499.1,550.0L518.4,531.9L507.8,520.4L495.6,513.6L491.5,512.8L488.4,512.6L472.4,486.9L409.0,359.6L407.5,357.6L406.0,359.4Z " data-id="BJ.AK" data-name="Atakora" id="BJ.AK"/>
<path d="M340.9,871.8L328.7,876.9L317.3,884.3L306.6,894.1L292.8,901.9L276.5,906.3L256.0,903.8L242.1,900.2L226.3,898.1L212.6,897.6L194.2,901.7L190.1,903.4L190.5,930.6L191.6,999.7L194.2,1017.0L192.9,1025.2L193.0,1032.6L192.6,1036.4L190.6,1041.0L184.9,1051.1L183.5,1055.9L184.6,1063.4L187.9,1072.4L192.7,1077.9L198.2,1074.9L202.0,1085.4L204.2,1122.8L209.0,1137.6L216.8,1151.1L263.0,1205.8L269.7,1219.0L272.3,1227.9L274.1,1238.0L275.6,1358.8L276.2,1408.3L282.1,1408.8L299.6,1409.5L311.1,1408.5L339.3,1400.0L344.7,1399.0L348.6,1398.6L354.1,1400.8L359.4,1405.1L368.2,1415.8L372.7,1418.6L376.5,1419.5L386.4,1419.4L388.4,1419.7L392.5,1422.7L397.3,1429.8L399.7,1432.3L405.6,1436.3L415.2,1439.5L420.3,1443.9L423.7,1445.0L431.6,1445.0L435.5,1445.7L444.5,1449.4L448.4,1450.1L456.1,1449.8L461.6,1448.0L472.9,1439.9L475.5,1435.5L473.6,1433.4L471.3,1424.5L475.6,1392.8L470.2,1359.8L467.9,1354.7L464.8,1350.3L467.2,1338.8L470.0,1325.8L465.0,1321.9L432.5,1311.6L426.0,1308.1L420.5,1303.6L418.2,1300.9L414.0,1292.2L412.5,1284.6L412.0,1278.6L412.7,1260.4L415.0,1243.5L417.0,1234.6L419.8,1227.0L420.3,1222.5L419.8,1219.9L416.3,1214.7L406.7,1209.5L400.7,1203.7L398.7,1200.8L396.4,1195.7L395.0,1187.8L394.0,1176.1L394.2,1155.0L395.7,1142.6L400.4,1126.6L407.4,1121.8L412.7,1120.8L420.4,1120.2L432.6,1120.5L436.1,1119.5L440.7,1115.5L442.0,1113.4L443.2,1108.5L455.9,1013.7L455.9,1008.4L452.9,1001.8L447.5,996.4L440.9,988.5L436.6,980.8L435.9,979.1L429.6,958.6L429.2,953.8L429.5,947.5L432.2,928.0L434.7,917.5L434.7,910.3L431.8,892.2L436.0,882.5L433.2,875.1L340.9,871.8Z " data-id="BJ.DO" data-name="Donga" id="BJ.DO"/>
</g>
</svg>
