<?xml version="1.0" ?>
<!DOCTYPE svg
  PUBLIC '-//W3C//DTD SVG 1.1//EN'
  'http://www.w3.org/Graphics/SVG/1.1/DTD/svg11.dtd'>
<svg enable_background="new 0 0 1000 645" height="645px" pretty_print="True" style="stroke-linejoin: round; stroke:#000; fill: none;" version="1.1" viewBox="0 0 1000 645" width="1000px" xmlns="http://www.w3.org/2000/svg" xmlns:xlink="http://www.w3.org/1999/xlink">
utf-8<defs>
utf-8utf-8<style type="text/css">
<![CDATA[path { fill-rule: evenodd; }]]>utf-8utf-8</style>
utf-8</defs>
utf-8<metadata>
utf-8utf-8<views>
utf-8utf-8utf-8<view h="645.821858682" padding="0" w="1000">
utf-8utf-8utf-8utf-8<proj flip="auto" id="robinson" lon0="-64.7892754969"/>
utf-8utf-8utf-8utf-8<bbox h="2.35" w="3.65" x="-915.56" y="-542.95"/>
utf-8utf-8utf-8</view>
utf-8utf-8</views>
utf-8</metadata>
utf-8<g class="" id="provinces">
utf-8utf-8<path d="M400.5,449.3L406.6,418.2L369.4,422.7L360.5,453.9L400.5,449.3Z " data-id="BM.HC" data-name="City of Hamilton" id="BM.HC"/>
utf-8utf-8<path d="M924.1,66.0L916.3,35.2L877.3,57.8L887.2,86.5L924.1,66.0Z " data-id="BM.SG" data-name="City of Saint George" id="BM.SG"/>
utf-8utf-8<path d="M549.7,343.7L506.2,356.0L428.7,390.4L421.9,446.8L473.2,422.7L487.7,469.4L517.0,437.6L578.8,404.0L590.6,396.2L564.1,330.4L549.7,343.7Z " data-id="BM.DE" data-name="Devonshire" id="BM.DE"/>
utf-8utf-8<path d="M590.0,306.4L597.3,328.4L635.4,300.3L616.8,301.3L601.4,295.9L590.0,306.4Z M708.1,271.1L726.2,309.0L765.2,285.3L747.0,240.9L708.1,271.1Z M754.8,209.0L750.6,169.9L697.6,165.6L634.2,205.4L604.2,254.6L608.6,274.6L626.0,279.2L638.6,251.6L675.1,228.4L723.0,210.7L747.0,240.9L791.0,223.2L754.8,209.0Z " data-id="BM.HA" data-name="Hamilton" id="BM.HA"/>
utf-8utf-8<path d="M306.8,468.1L289.5,487.6L321.4,493.0L334.0,482.3L306.8,468.1Z M487.7,469.4L473.2,422.7L421.9,446.8L411.3,463.1L341.2,501.8L362.7,565.0L384.0,555.1L472.6,485.9L487.7,469.4Z " data-id="BM.PA" data-name="Paget" id="BM.PA"/>
utf-8utf-8<path d="M313.8,371.4L298.5,387.8L322.1,436.2L360.5,453.9L369.4,422.7L406.6,418.2L400.5,449.3L421.9,446.8L428.7,390.4L313.8,371.4Z " data-id="BM.PE" data-name="Pembroke" id="BM.PE"/>
utf-8utf-8<path d="M791.0,223.2L747.0,240.9L765.2,285.3L851.9,248.0L791.0,223.2Z M697.6,165.6L750.6,169.9L826.2,113.1L844.2,143.3L865.3,123.3L914.4,136.2L936.5,161.0L951.7,175.2L961.2,134.4L999.2,93.6L907.8,0.0L812.3,69.3L742.7,111.3L697.6,165.6Z M877.3,57.8L916.3,35.2L924.1,66.0L887.2,86.5L877.3,57.8Z " data-id="BM.SC" data-name="Saint George's" id="BM.SC"/>
utf-8utf-8<path d="M8.3,562.1L76.9,548.0L131.2,553.3L134.0,539.1L65.4,530.2L49.1,514.3L60.8,498.6L81.9,446.8L122.3,416.6L103.2,391.8L90.5,365.2L71.8,391.8L45.4,381.1L56.9,425.8L34.9,469.8L33.6,502.6L0.8,485.9L2.9,535.6L8.3,562.1Z M139.3,382.8L154.6,368.3L172.0,358.2L192.6,354.8L198.6,326.9L230.0,301.9L243.3,272.8L239.3,269.9L219.9,285.1L202.0,309.7L169.8,335.6L119.9,391.2L139.3,382.8Z " data-id="BM.SA" data-name="Sandys" id="BM.SA"/>
utf-8utf-8<path d="M684.9,297.7L635.4,300.3L597.3,328.4L590.0,306.4L564.1,330.4L590.6,396.2L683.5,335.0L726.2,309.0L708.1,271.1L684.9,297.7Z " data-id="BM.SM" data-name="Smith's" id="BM.SM"/>
utf-8utf-8<path d="M249.0,615.4L234.5,580.5L185.3,590.6L126.8,613.7L84.9,613.7L66.4,578.2L76.9,548.0L8.3,562.1L15.8,599.5L67.7,640.3L112.3,642.0L170.3,643.8L249.0,615.4Z " data-id="BM.SO" data-name="Southampton" id="BM.SO"/>
utf-8utf-8<path d="M315.3,516.0L243.2,555.1L206.6,558.6L185.3,590.6L234.5,580.5L249.0,615.4L273.5,606.6L362.7,565.0L341.2,501.8L315.3,516.0Z M289.5,487.6L306.8,468.1L293.5,452.1L279.0,457.5L256.6,464.6L225.4,455.7L211.7,464.6L217.2,489.4L252.5,493.0L289.5,487.6Z " data-id="BM.WA" data-name="Warwick" id="BM.WA"/>
utf-8</g>
</svg>
