<?xml version="1.0" ?>
<!DOCTYPE svg
  PUBLIC '-//W3C//DTD SVG 1.1//EN'
  'http://www.w3.org/Graphics/SVG/1.1/DTD/svg11.dtd'>
<svg enable_background="new 0 0 1000 857" height="857px" pretty_print="True" style="stroke-linejoin: round; stroke:#000; fill: none;" version="1.1" viewBox="0 0 1000 857" width="1000px" xmlns="http://www.w3.org/2000/svg" xmlns:xlink="http://www.w3.org/1999/xlink">
utf-8<defs>
utf-8utf-8<style type="text/css">
<![CDATA[path { fill-rule: evenodd; }]]>utf-8utf-8</style>
utf-8</defs>
utf-8<metadata>
utf-8utf-8<views>
utf-8utf-8utf-8<view h="857.973814574" padding="0" w="1000">
utf-8utf-8utf-8utf-8<proj flip="auto" id="robinson" lon0="114.514303356"/>
utf-8utf-8utf-8utf-8<bbox h="17.45" w="20.36" x="1686.57" y="-84.8"/>
utf-8utf-8utf-8</view>
utf-8utf-8</views>
utf-8</metadata>
utf-8<g class="" id="provinces">
utf-8utf-8<path d="M589.2,622.7L562.3,606.4L547.8,585.0L541.0,559.9L528.6,535.9L513.7,516.3L495.2,497.0L478.6,474.7L461.0,455.9L437.6,440.0L432.3,419.4L434.6,394.4L424.4,377.7L407.6,376.6L394.1,374.6L384.1,360.8L372.4,347.9L364.3,329.0L357.2,309.3L287.0,338.5L238.3,370.4L184.5,382.1L0.6,375.2L49.2,400.8L89.3,407.7L105.0,416.7L129.7,437.6L147.9,445.4L156.8,451.7L163.1,468.5L167.7,471.0L178.9,471.3L184.2,473.6L186.1,479.1L187.1,485.6L189.8,491.0L197.8,500.6L202.5,509.6L209.2,532.6L210.3,555.6L220.9,572.5L227.5,609.2L225.5,617.1L215.8,627.1L213.7,631.9L215.5,644.2L219.2,651.8L244.1,653.7L276.1,660.8L305.6,654.8L319.0,655.7L328.7,666.6L346.0,718.6L353.9,734.7L364.9,750.4L412.6,798.2L428.5,810.4L434.6,816.7L438.5,825.2L444.8,845.6L448.6,852.1L478.7,856.0L511.9,833.4L575.6,761.3L580.6,749.2L583.1,715.2L587.5,699.2L602.9,671.2L607.4,656.1L604.3,641.7L582.1,652.2L580.9,635.3L584.9,627.7L589.2,622.7Z " data-id="BN.BE" data-name="Belait" id="BN.BE"/>
utf-8utf-8<path d="M541.6,130.3L543.7,149.7L543.2,172.3L541.4,193.3L535.9,209.9L534.3,228.0L530.1,254.5L535.9,268.7L541.8,262.1L567.8,249.5L579.7,240.7L601.9,215.4L614.6,206.1L630.6,201.0L643.9,201.8L657.4,204.4L670.1,204.1L681.3,196.0L685.4,183.4L685.4,169.7L687.1,157.0L702.7,138.3L709.3,125.2L730.8,101.5L735.1,90.3L736.8,80.4L747.2,47.7L752.7,36.7L774.8,25.2L784.9,16.7L783.4,6.0L769.4,0.0L751.3,2.5L659.6,46.6L541.6,130.3Z " data-id="BN.BM" data-name="Brunei and Muara" id="BN.BM"/>
utf-8utf-8<path d="M821.3,122.3L812.8,122.0L806.1,123.0L801.5,126.2L800.2,132.5L805.2,146.3L812.0,159.2L812.0,168.8L796.4,172.5L780.7,182.3L767.2,200.4L754.4,210.1L738.4,259.8L744.5,326.7L752.3,358.6L779.0,422.7L788.9,455.1L801.4,536.2L807.7,547.8L817.6,555.1L859.7,572.5L875.1,576.2L896.6,573.7L902.8,576.2L914.6,587.0L922.4,590.6L936.3,590.0L942.8,592.7L956.4,602.6L973.6,610.9L989.5,611.6L999.4,598.6L996.8,581.5L985.5,563.9L958.8,536.8L940.9,511.5L929.9,479.2L924.2,444.5L923.1,412.1L927.4,379.6L927.9,365.4L923.8,345.9L869.0,190.5L849.4,161.2L839.6,154.0L829.7,148.8L822.7,141.1L821.3,122.3Z " data-id="BN.TE" data-name="Temburong" id="BN.TE"/>
utf-8utf-8<path d="M541.6,130.3L515.2,149.0L431.3,228.0L406.5,258.2L396.5,282.0L382.1,298.9L357.3,309.3L357.2,309.3L364.3,329.0L372.4,347.9L384.1,360.8L394.1,374.6L407.6,376.6L424.4,377.7L434.6,394.4L432.3,419.4L437.6,440.0L461.0,455.9L478.6,474.7L495.2,497.0L513.7,516.3L528.6,535.9L541.0,559.9L547.8,585.0L562.3,606.4L589.2,622.7L605.8,603.6L613.0,589.6L617.8,575.8L623.1,544.7L623.6,521.1L618.0,517.1L607.4,519.1L592.9,513.2L578.9,490.3L573.1,460.2L565.1,364.0L561.8,345.8L556.8,328.8L541.3,298.5L535.2,283.2L535.0,269.6L535.9,268.7L530.1,254.5L534.3,228.0L535.9,209.9L541.4,193.3L543.2,172.3L543.7,149.7L541.6,130.3L541.6,130.3Z " data-id="BN.TU" data-name="Tutong" id="BN.TU"/>
utf-8</g>
</svg>
