<?xml version="1.0" ?>
<!DOCTYPE svg
  PUBLIC '-//W3C//DTD SVG 1.1//EN'
  'http://www.w3.org/Graphics/SVG/1.1/DTD/svg11.dtd'>
<svg enable_background="new 0 0 1000 1189" height="1189px" pretty_print="True" style="stroke-linejoin: round; stroke:#000; fill: none;" version="1.1" viewBox="0 0 1000 1189" width="1000px" xmlns="http://www.w3.org/2000/svg" xmlns:xlink="http://www.w3.org/1999/xlink">
utf-8<defs>
utf-8utf-8<style type="text/css">
<![CDATA[path { fill-rule: evenodd; }]]>utf-8utf-8</style>
utf-8</defs>
utf-8<metadata>
utf-8utf-8<views>
utf-8utf-8utf-8<view h="1189.55357796" padding="0" w="1000">
utf-8utf-8utf-8utf-8<proj flip="auto" id="robinson" lon0="-65.6160452128"/>
utf-8utf-8utf-8utf-8<bbox h="221.62" w="186.47" x="-1025.03" y="162.32"/>
utf-8utf-8utf-8</view>
utf-8utf-8</views>
utf-8</metadata>
utf-8<g class="" id="provinces">
utf-8utf-8<path d="M417.4,554.4L416.2,553.8L408.6,555.6L379.1,559.5L376.9,561.3L373.7,568.5L371.8,578.4L368.8,593.0L366.9,597.0L359.7,601.0L333.1,609.7L326.7,609.8L318.3,607.9L312.0,605.6L307.9,603.6L299.7,597.9L297.8,596.4L283.7,581.2L278.6,574.6L274.4,565.4L250.3,540.9L244.3,547.0L239.6,553.9L241.0,555.7L240.2,566.5L240.1,573.1L247.1,583.3L247.5,587.2L250.1,588.2L253.6,593.3L254.2,604.5L253.6,609.0L257.8,618.3L258.7,620.9L259.4,628.9L260.3,633.0L260.4,636.0L259.5,637.8L254.1,641.3L249.5,641.9L247.7,642.9L244.7,650.1L244.9,655.5L242.9,660.1L242.9,662.0L244.7,664.8L248.5,666.4L250.8,669.3L253.2,673.5L258.5,691.7L257.3,695.1L259.6,698.6L258.6,701.3L249.1,707.3L262.9,718.1L264.4,719.6L269.1,725.3L275.9,735.4L281.4,746.8L286.6,745.7L292.8,746.2L297.5,746.0L301.5,746.7L303.9,746.1L315.5,735.6L318.5,734.7L321.7,734.5L327.7,735.2L330.8,741.2L334.1,743.7L335.6,746.2L340.6,744.7L342.3,744.8L343.9,747.1L348.9,749.9L354.2,754.6L356.5,757.4L359.4,759.2L362.6,763.3L363.7,765.9L370.9,771.6L374.9,778.0L384.9,784.8L385.2,785.6L385.5,786.5L388.4,788.2L389.2,791.3L393.4,795.2L394.5,801.6L402.9,803.4L406.7,806.1L409.7,805.5L410.3,801.7L413.1,797.6L415.8,795.3L419.8,793.1L425.2,791.4L428.5,791.6L430.8,794.4L432.4,795.1L436.2,795.1L442.1,802.3L447.4,807.5L454.6,807.1L459.5,802.4L461.2,801.7L462.9,802.3L464.8,805.8L465.6,806.6L466.7,803.9L468.7,800.2L468.1,798.8L467.6,793.6L466.7,791.9L463.6,790.0L460.1,787.0L457.9,786.0L456.7,784.4L456.4,781.5L454.9,779.6L455.1,777.9L451.7,772.8L450.6,769.2L444.7,760.7L441.6,757.9L439.7,753.5L435.5,746.3L431.5,742.2L430.4,739.6L430.7,737.1L439.1,726.9L440.5,724.8L451.1,704.5L451.1,700.7L451.9,698.1L454.6,695.9L460.9,695.1L464.5,695.1L464.7,690.1L462.0,685.1L458.1,681.9L450.7,673.4L438.8,666.0L433.4,660.2L428.0,657.4L419.8,648.6L418.5,646.5L415.1,635.9L413.8,634.3L414.3,628.7L416.8,622.8L414.5,620.7L414.1,617.9L418.5,609.1L420.3,602.8L419.2,598.0L420.4,595.4L418.5,594.2L420.1,591.7L419.6,586.8L420.1,585.0L419.2,583.1L420.1,578.5L417.9,574.8L416.8,565.2L413.2,560.9L414.1,560.0L417.5,560.9L414.9,556.6L418.0,556.4L418.4,554.5L417.4,554.4Z " data-id="BO.CB" data-name="Cochabamba" id="BO.CB"/>
utf-8utf-8<path d="M382.7,786.2L372.5,782.5L369.5,783.9L368.2,783.8L366.8,781.8L360.2,780.3L358.8,778.6L357.6,779.2L358.6,785.4L363.3,788.8L364.2,798.4L366.7,808.2L365.9,810.2L364.3,811.9L365.7,815.1L373.7,810.5L378.6,809.0L380.8,809.7L381.6,811.6L380.7,815.1L376.1,819.9L375.8,821.4L378.7,825.8L379.4,829.4L377.9,831.5L374.9,839.1L378.3,845.9L380.9,847.7L382.5,850.1L383.0,852.5L396.8,865.3L400.4,866.1L408.1,870.8L410.1,871.5L414.6,871.3L420.5,869.1L425.0,869.5L428.9,874.6L432.7,888.4L440.2,897.8L443.0,903.3L440.2,908.5L434.8,915.5L420.9,924.5L419.6,924.9L411.7,925.6L407.7,926.5L404.6,928.6L401.3,931.6L402.2,935.6L399.1,942.6L398.6,945.5L399.4,951.5L407.2,975.2L402.7,990.6L401.6,998.7L399.9,1002.5L400.5,1013.8L398.4,1026.2L399.4,1031.7L399.5,1041.1L401.6,1047.2L413.8,1060.0L420.7,1065.2L420.6,1060.0L420.9,1042.0L420.3,1035.7L421.1,1030.7L420.4,1014.3L422.1,1012.3L425.9,1013.7L427.8,1013.1L431.6,1017.1L439.6,1018.8L448.0,1025.8L452.4,1023.7L453.6,1015.8L456.2,1010.9L461.8,1012.4L463.1,1014.8L464.7,1015.7L468.0,1019.4L470.3,1024.0L471.6,1025.2L475.2,1024.6L479.3,1025.3L482.3,1027.9L486.8,1029.5L491.4,1029.0L495.3,1029.9L497.5,1027.5L498.1,1017.9L497.1,1012.5L498.1,1007.6L499.1,1008.8L504.0,1009.0L506.7,1011.7L511.6,1012.1L511.7,1015.0L515.0,1016.8L522.3,1017.1L646.6,1017.2L645.2,1004.1L642.7,979.4L643.1,977.0L645.5,972.3L647.0,969.6L563.2,970.0L562.5,969.8L556.9,960.2L555.8,959.4L551.5,964.0L548.2,965.7L547.0,967.9L541.2,968.0L534.5,967.7L533.1,963.9L526.4,927.6L524.6,924.0L515.5,861.8L515.2,856.4L515.7,841.4L514.8,840.0L504.3,840.6L503.6,842.5L503.5,849.0L502.1,852.1L501.2,852.7L497.2,853.0L496.0,852.6L494.4,849.8L490.0,837.4L485.3,833.4L479.6,832.0L478.0,827.4L476.7,825.4L471.6,821.8L467.9,813.7L467.8,809.7L466.5,807.5L465.6,806.6L464.8,805.8L462.9,802.3L461.2,801.7L459.5,802.4L454.6,807.1L447.4,807.5L442.1,802.3L436.2,795.1L432.4,795.1L430.8,794.4L428.5,791.6L425.2,791.4L419.8,793.1L415.8,795.3L413.1,797.6L410.3,801.7L409.7,805.5L406.7,806.1L402.9,803.4L394.5,801.6L393.4,795.2L389.2,791.3L388.4,788.2L385.5,786.5L385.2,785.6L382.7,786.2Z " data-id="BO.CQ" data-name="Chuquisaca" id="BO.CQ"/>
utf-8utf-8<path d="M643.5,343.8L637.9,344.4L632.8,346.7L631.2,346.0L626.6,347.2L623.9,346.0L621.9,340.0L614.3,333.0L610.7,330.7L604.3,323.3L601.3,319.1L600.7,311.8L598.7,311.5L596.8,309.2L596.0,311.0L593.8,309.3L579.6,310.9L575.9,309.5L573.2,305.3L572.1,304.5L565.6,304.3L557.9,298.5L554.6,295.2L548.3,297.5L548.3,299.3L545.2,297.3L543.1,293.4L540.8,293.0L535.6,285.9L535.3,285.1L532.9,285.5L530.2,284.3L526.8,277.3L524.9,275.6L525.1,273.1L523.9,271.5L522.3,267.1L518.2,265.6L509.9,271.2L503.4,271.5L497.3,268.2L494.1,265.7L491.5,262.8L489.4,258.6L483.5,257.0L480.1,253.9L475.4,251.2L464.0,249.3L459.2,250.6L455.0,257.4L453.6,257.4L450.9,255.5L447.0,256.8L445.1,254.2L440.4,254.0L439.0,252.5L436.4,254.9L432.9,251.5L429.1,251.5L425.9,253.1L424.9,250.3L420.5,250.6L417.1,249.6L409.3,242.0L409.0,240.5L410.4,235.0L409.9,231.2L406.8,230.3L403.8,228.2L400.2,227.9L394.4,224.7L392.6,222.8L392.9,220.6L392.0,217.8L390.7,218.0L390.2,221.6L389.2,221.9L388.4,219.2L385.7,216.2L383.6,211.4L379.7,210.0L378.0,210.7L373.0,209.4L369.6,209.2L366.2,207.1L365.6,204.0L366.7,200.3L363.7,197.7L360.6,186.3L356.6,183.5L356.5,180.7L354.7,182.9L354.5,187.2L352.9,187.8L349.7,184.0L349.5,180.7L350.3,177.7L349.9,175.4L351.3,173.1L347.6,171.1L347.6,167.1L346.1,164.3L344.1,163.1L341.4,164.0L339.1,161.4L336.1,153.7L336.3,151.0L337.8,148.1L333.9,145.2L332.8,143.6L334.7,138.3L331.4,134.6L331.6,132.4L335.6,128.2L336.1,126.6L335.2,121.6L338.2,115.9L337.1,114.2L336.2,106.5L332.7,102.7L329.6,101.7L329.1,100.6L330.5,91.5L329.9,88.9L325.9,85.0L325.8,78.2L325.1,73.0L324.0,71.4L327.0,69.1L328.7,65.3L328.0,64.0L328.0,64.0L322.6,65.3L320.2,68.0L318.1,72.5L311.4,76.2L306.8,80.1L301.7,78.8L299.8,79.5L299.7,80.9L301.0,86.9L298.6,91.8L293.1,93.7L292.1,93.3L288.7,89.3L286.7,91.7L286.3,93.4L289.9,95.9L291.4,99.1L290.5,101.7L287.7,101.5L281.1,99.7L279.4,100.5L276.3,103.4L273.8,104.3L278.2,105.3L278.9,106.7L277.4,110.6L276.7,114.2L274.6,116.7L273.3,115.8L272.0,119.7L271.8,125.9L270.1,127.7L266.4,127.4L266.7,136.0L263.3,143.5L265.4,146.7L264.6,148.4L260.4,149.6L260.0,153.3L257.6,154.0L252.2,154.6L248.0,157.6L246.0,158.4L240.7,157.7L233.5,158.2L231.7,159.0L231.0,160.7L231.2,166.9L229.5,169.4L229.1,171.0L229.9,177.5L223.7,180.2L220.8,184.0L215.4,184.7L215.5,186.4L217.9,190.1L217.1,192.1L210.8,194.9L210.6,196.7L211.9,200.4L214.1,200.5L217.2,205.4L218.6,209.8L219.3,214.3L218.9,226.4L219.3,228.5L217.3,234.4L218.7,239.2L218.2,240.9L217.1,242.8L216.6,244.4L216.5,246.2L217.9,255.7L215.2,260.7L216.7,264.6L217.1,268.7L214.1,289.4L211.0,299.7L207.0,300.3L205.8,301.7L203.1,308.0L199.8,313.4L187.4,331.5L186.3,334.5L186.6,337.6L188.5,345.8L190.0,348.1L185.3,359.0L182.3,362.2L181.7,364.0L181.1,369.4L182.3,371.7L182.2,373.5L180.4,377.4L179.1,388.0L179.3,389.5L182.1,401.5L182.2,406.9L183.2,412.9L179.0,416.2L179.7,421.3L182.8,428.9L184.7,430.8L186.4,434.1L183.2,442.0L186.2,448.3L187.9,450.6L192.0,454.5L193.7,461.6L193.4,466.8L193.9,471.9L195.1,475.2L200.6,479.4L205.3,479.4L215.3,492.9L221.2,504.1L221.7,506.4L221.4,510.2L222.7,514.0L227.7,517.6L229.7,520.9L246.7,537.3L250.3,540.9L274.4,565.4L278.6,574.6L283.7,581.2L297.8,596.4L299.7,597.9L307.9,603.6L312.0,605.6L318.3,607.9L326.7,609.8L333.1,609.7L359.7,601.0L366.9,597.0L368.8,593.0L371.8,578.4L373.7,568.5L376.9,561.3L379.1,559.5L408.6,555.6L416.2,553.8L417.4,554.4L418.4,554.5L522.2,560.5L523.8,560.4L517.7,557.5L515.5,555.0L512.8,546.7L509.8,542.2L507.6,539.9L504.9,538.6L497.9,534.4L490.9,522.0L486.1,519.0L476.7,504.8L473.1,495.8L469.7,490.0L468.5,485.7L469.2,480.5L468.3,473.4L467.5,463.0L465.0,454.4L468.6,452.5L495.1,443.8L536.9,415.6L603.4,371.0L643.8,343.9L643.5,343.8Z " data-id="BO.EB" data-name="El Beni" id="BO.EB"/>
utf-8utf-8<path d="M86.1,584.4L83.2,583.5L78.4,577.9L68.3,573.4L69.4,575.0L72.7,577.6L73.3,578.8L70.0,584.7L72.5,586.2L72.4,587.5L74.0,588.2L75.4,586.9L79.7,587.6L84.4,586.7L89.3,591.0L92.7,590.8L91.6,589.1L86.1,584.4Z M79.4,253.6L75.4,260.5L73.1,261.9L71.5,265.7L75.7,268.3L73.6,273.1L67.2,275.1L63.8,280.7L62.0,280.4L60.5,284.3L58.2,286.5L58.1,292.3L59.9,302.5L60.1,313.1L60.6,316.7L62.2,323.8L62.5,341.3L62.9,343.4L61.5,348.9L59.4,352.0L59.6,355.4L59.0,356.4L54.7,356.2L53.7,358.2L55.5,360.8L60.1,364.7L61.0,366.0L62.1,374.2L63.6,376.5L65.1,385.7L66.3,387.3L70.7,390.4L75.3,402.2L75.9,405.4L74.5,407.2L66.7,408.7L64.8,410.3L64.9,417.0L67.3,422.2L65.9,423.9L59.6,428.3L56.8,432.3L54.5,433.4L54.9,439.1L54.6,440.1L49.5,439.8L48.6,441.5L49.0,453.0L48.2,455.6L42.7,457.8L40.5,461.7L41.4,469.1L40.1,474.8L40.7,476.4L44.0,479.5L49.1,487.2L61.1,499.0L60.0,501.7L56.6,501.7L55.8,505.2L53.3,506.2L50.5,511.0L51.6,514.5L48.3,516.2L47.4,517.8L46.8,523.1L46.0,524.7L48.6,526.6L49.7,528.4L52.3,529.1L52.1,532.6L54.9,538.2L62.9,538.2L63.2,540.4L61.4,541.3L62.3,542.1L68.5,543.5L72.1,548.0L75.8,551.2L76.5,560.9L77.6,561.6L81.4,561.8L83.7,562.8L89.0,562.8L94.2,563.1L96.9,566.8L93.8,568.3L91.0,573.0L86.3,573.9L90.6,581.8L93.3,587.7L95.8,584.4L97.2,584.5L104.5,587.4L106.9,587.4L111.8,588.7L113.6,589.7L113.7,592.4L112.3,594.5L114.2,597.2L106.6,595.8L102.4,597.2L104.1,599.1L106.1,598.4L105.3,600.3L103.7,600.7L99.1,605.9L93.6,604.6L88.1,605.9L85.7,607.7L87.0,609.1L93.0,610.2L94.0,611.9L94.4,621.9L92.0,620.9L86.6,620.4L82.9,618.2L80.3,620.1L83.3,624.9L80.1,629.2L75.8,631.8L71.6,632.5L70.4,633.4L68.8,639.5L67.9,641.4L60.8,650.8L59.2,655.7L58.4,657.0L54.8,659.8L56.0,662.0L54.3,665.6L48.0,667.8L45.8,669.6L41.9,673.9L39.8,674.4L38.4,681.4L41.5,684.3L42.8,684.8L49.2,690.9L50.4,693.6L50.9,696.8L52.4,710.3L53.4,713.6L55.4,716.4L62.3,722.5L65.4,726.0L67.8,730.2L68.6,733.4L69.3,740.0L70.4,743.3L71.8,745.5L74.9,744.4L76.6,746.4L84.9,750.4L88.7,749.7L89.6,751.1L95.7,747.7L105.7,744.6L109.5,742.2L115.6,736.7L118.1,733.9L124.1,724.2L133.4,717.1L135.9,716.4L145.2,715.6L157.5,716.2L159.9,717.0L166.5,720.4L171.0,722.3L187.6,735.1L190.5,735.3L192.1,734.1L193.2,730.9L193.0,729.3L190.7,724.1L192.4,721.8L204.5,712.9L215.0,703.7L223.7,697.7L225.3,697.0L236.6,693.8L240.0,695.6L243.2,700.5L247.1,705.4L249.1,707.3L258.6,701.3L259.6,698.6L257.3,695.1L258.5,691.7L253.2,673.5L250.8,669.3L248.5,666.4L244.7,664.8L242.9,662.0L242.9,660.1L244.9,655.5L244.7,650.1L247.7,642.9L249.5,641.9L254.1,641.3L259.5,637.8L260.4,636.0L260.3,633.0L259.4,628.9L258.7,620.9L257.8,618.3L253.6,609.0L254.2,604.5L253.6,593.3L250.1,588.2L247.5,587.2L247.1,583.3L240.1,573.1L240.2,566.5L241.0,555.7L239.6,553.9L244.3,547.0L250.3,540.9L246.7,537.3L229.7,520.9L227.7,517.6L222.7,514.0L221.4,510.2L221.7,506.4L221.2,504.1L215.3,492.9L205.3,479.4L200.6,479.4L195.1,475.2L193.9,471.9L193.4,466.8L193.7,461.6L192.0,454.5L187.9,450.6L186.2,448.3L183.2,442.0L186.4,434.1L184.7,430.8L182.8,428.9L179.7,421.3L179.0,416.2L183.2,412.9L182.2,406.9L182.1,401.5L179.3,389.5L179.1,388.0L180.4,377.4L182.2,373.5L182.3,371.7L181.1,369.4L181.7,364.0L182.3,362.2L185.3,359.0L190.0,348.1L188.5,345.8L186.6,337.6L186.3,334.5L187.4,331.5L199.8,313.4L203.1,308.0L205.8,301.7L207.0,300.3L211.0,299.7L214.1,289.4L217.1,268.7L216.7,264.6L215.2,260.7L217.9,255.7L216.5,246.2L216.6,244.4L217.1,242.8L133.5,200.3L129.3,205.8L123.9,206.9L121.8,208.1L115.9,209.0L113.6,210.3L112.5,212.8L112.3,219.3L111.9,222.3L110.0,224.8L101.0,230.3L99.5,233.0L96.5,243.2L94.3,246.6L92.7,246.9L88.7,244.6L86.0,246.3L84.8,251.2L78.9,252.8L79.4,253.6Z " data-id="BO.LP" data-name="La Paz" id="BO.LP"/>
utf-8utf-8<path d="M247.1,705.4L243.2,700.5L240.0,695.6L236.6,693.8L225.3,697.0L223.7,697.7L215.0,703.7L204.5,712.9L192.4,721.8L190.7,724.1L193.0,729.3L193.2,730.9L192.1,734.1L190.5,735.3L187.6,735.1L171.0,722.3L166.5,720.4L159.9,717.0L157.5,716.2L145.2,715.6L135.9,716.4L133.4,717.1L124.1,724.2L118.1,733.9L115.6,736.7L109.5,742.2L105.7,744.6L95.7,747.7L89.6,751.1L89.6,751.2L89.4,755.1L84.8,760.2L86.3,764.4L89.9,768.7L90.6,772.5L92.2,776.3L93.1,783.4L96.5,788.7L97.7,801.6L98.8,806.0L102.0,812.0L101.5,814.6L106.9,824.6L106.9,829.2L105.0,832.6L109.1,837.6L111.4,842.3L117.4,845.7L120.1,847.6L128.1,854.7L130.1,856.8L133.4,862.0L138.6,864.7L147.6,871.3L151.7,876.5L148.1,878.6L145.7,882.5L142.8,888.2L166.1,897.1L203.1,910.0L210.4,911.6L214.5,911.7L224.7,907.7L270.5,885.1L285.9,877.1L288.8,875.2L294.0,870.5L302.5,861.1L307.3,858.4L333.1,856.2L337.2,853.0L335.5,850.1L329.0,842.8L324.6,837.1L313.4,815.4L309.2,813.6L304.2,813.1L297.0,810.4L294.6,808.8L287.5,803.1L285.3,800.7L280.6,792.0L280.7,783.3L280.2,780.3L281.2,778.3L290.1,772.5L291.7,770.3L284.8,768.7L278.8,768.9L276.0,767.7L273.2,762.2L272.9,753.9L273.3,752.5L278.5,750.6L280.9,748.6L281.4,746.8L275.9,735.4L269.1,725.3L264.4,719.6L262.9,718.1L249.1,707.3L247.1,705.4Z " data-id="BO.OR" data-name="Oruro" id="BO.OR"/>
utf-8utf-8<path d="M78.9,252.8L84.8,251.2L86.0,246.3L88.7,244.6L92.7,246.9L94.3,246.6L96.5,243.2L99.5,233.0L101.0,230.3L110.0,224.8L111.9,222.3L112.3,219.3L112.5,212.8L113.6,210.3L115.9,209.0L121.8,208.1L123.9,206.9L129.3,205.8L133.5,200.3L217.1,242.8L218.2,240.9L218.7,239.2L217.3,234.4L219.3,228.5L218.9,226.4L219.3,214.3L218.6,209.8L217.2,205.4L214.1,200.5L211.9,200.4L210.6,196.7L210.8,194.9L217.1,192.1L217.9,190.1L215.5,186.4L215.4,184.7L220.8,184.0L223.7,180.2L229.9,177.5L229.1,171.0L229.5,169.4L231.2,166.9L231.0,160.7L231.7,159.0L233.5,158.2L240.7,157.7L246.0,158.4L248.0,157.6L252.2,154.6L257.6,154.0L260.0,153.3L260.4,149.6L264.6,148.4L265.4,146.7L263.3,143.5L266.7,136.0L266.4,127.4L270.1,127.7L271.8,125.9L272.0,119.7L273.3,115.8L274.6,116.7L276.7,114.2L277.4,110.6L278.9,106.7L278.2,105.3L273.8,104.3L276.3,103.4L279.4,100.5L281.1,99.7L287.7,101.5L290.5,101.7L291.4,99.1L289.9,95.9L286.3,93.4L286.7,91.7L288.7,89.3L292.1,93.3L293.1,93.7L298.6,91.8L301.0,86.9L299.7,80.9L299.8,79.5L301.7,78.8L306.8,80.1L311.4,76.2L318.1,72.5L320.2,68.0L322.6,65.3L328.0,64.0L328.3,62.4L330.1,58.6L333.0,57.0L333.8,54.9L334.4,50.5L334.6,43.4L334.2,39.5L331.2,29.5L330.7,25.8L332.9,16.6L332.7,13.1L329.7,9.9L327.0,2.8L323.2,0.0L319.4,1.5L311.8,11.0L311.0,13.7L308.2,13.8L300.3,10.3L300.3,6.8L296.2,8.3L293.6,5.2L292.8,9.4L290.6,7.0L289.3,8.6L287.5,9.1L284.2,8.3L280.2,8.7L276.8,11.2L270.7,9.4L262.6,10.9L257.4,13.9L249.8,15.3L242.2,18.8L237.4,18.3L228.1,20.2L226.5,23.1L217.6,28.1L207.6,37.1L195.5,51.9L188.8,54.7L187.3,57.5L177.1,57.1L175.4,57.4L174.6,61.7L172.3,62.7L167.3,63.8L165.9,67.9L157.1,73.3L155.6,73.9L147.4,86.3L146.9,89.6L145.7,92.2L143.1,92.9L141.5,92.2L138.3,89.5L134.4,88.0L125.0,88.5L122.7,88.0L117.7,90.0L114.9,92.9L112.5,98.8L107.3,105.9L105.5,111.2L101.9,116.7L95.4,119.1L91.6,122.5L86.5,122.9L83.2,124.1L79.3,127.5L77.2,128.7L66.1,131.3L64.7,131.3L63.2,126.3L65.5,119.7L61.7,118.1L53.6,119.8L49.8,118.7L46.5,118.8L40.5,115.9L36.5,116.0L33.6,115.2L27.3,114.4L22.9,114.6L14.7,112.8L9.4,114.2L6.3,114.6L0.4,114.3L48.9,200.1L76.7,248.9L78.9,252.8Z " data-id="BO.PA" data-name="Pando" id="BO.PA"/>
utf-8utf-8<path d="M429.3,1115.8L430.5,1115.5L427.4,1104.9L426.3,1102.1L424.2,1099.7L417.4,1090.3L415.9,1089.2L417.7,1081.5L417.7,1078.9L420.0,1073.9L421.1,1068.1L420.7,1065.2L413.8,1060.0L401.6,1047.2L399.5,1041.1L399.4,1031.7L398.4,1026.2L400.5,1013.8L399.9,1002.5L401.6,998.7L402.7,990.6L407.2,975.2L399.4,951.5L398.6,945.5L399.1,942.6L402.2,935.6L401.3,931.6L404.6,928.6L407.7,926.5L411.7,925.6L419.6,924.9L420.9,924.5L434.8,915.5L440.2,908.5L443.0,903.3L440.2,897.8L432.7,888.4L428.9,874.6L425.0,869.5L420.5,869.1L414.6,871.3L410.1,871.5L408.1,870.8L400.4,866.1L396.8,865.3L383.0,852.5L382.5,850.1L380.9,847.7L378.3,845.9L374.9,839.1L377.9,831.5L379.4,829.4L378.7,825.8L375.8,821.4L376.1,819.9L380.7,815.1L381.6,811.6L380.8,809.7L378.6,809.0L373.7,810.5L365.7,815.1L364.3,811.9L365.9,810.2L366.7,808.2L364.2,798.4L363.3,788.8L358.6,785.4L357.6,779.2L358.8,778.6L360.2,780.3L366.8,781.8L368.2,783.8L369.5,783.9L372.5,782.5L382.7,786.2L385.2,785.6L384.9,784.8L374.9,778.0L370.9,771.6L363.7,765.9L362.6,763.3L359.4,759.2L356.5,757.4L354.2,754.6L348.9,749.9L343.9,747.1L342.3,744.8L340.6,744.7L335.6,746.2L334.1,743.7L330.8,741.2L327.7,735.2L321.7,734.5L318.5,734.7L315.5,735.6L303.9,746.1L301.5,746.7L297.5,746.0L292.8,746.2L286.6,745.7L281.4,746.8L280.9,748.6L278.5,750.6L273.3,752.5L272.9,753.9L273.2,762.2L276.0,767.7L278.8,768.9L284.8,768.7L291.7,770.3L290.1,772.5L281.2,778.3L280.2,780.3L280.7,783.3L280.6,792.0L285.3,800.7L287.5,803.1L294.6,808.8L297.0,810.4L304.2,813.1L309.2,813.6L313.4,815.4L324.6,837.1L329.0,842.8L335.5,850.1L337.2,853.0L333.1,856.2L307.3,858.4L302.5,861.1L294.0,870.5L288.8,875.2L285.9,877.1L270.5,885.1L224.7,907.7L214.5,911.7L210.4,911.6L203.1,910.0L166.1,897.1L142.8,888.2L139.3,895.1L135.1,899.9L134.3,901.7L134.9,904.5L146.5,913.3L148.7,921.4L147.5,925.6L147.0,931.4L146.3,932.3L141.3,932.2L132.1,935.3L130.9,936.9L131.3,938.6L133.9,940.2L136.5,940.9L136.9,947.8L138.1,950.8L141.8,956.8L137.6,958.5L136.0,960.0L135.3,962.4L135.9,965.1L137.3,967.9L143.0,973.7L151.4,977.9L157.4,981.4L159.9,983.4L160.0,985.1L155.2,990.1L153.9,994.0L155.1,1005.7L156.8,1009.4L161.7,1011.9L164.9,1011.7L168.0,1013.5L187.3,1042.7L188.8,1046.6L190.7,1068.5L191.6,1071.6L197.4,1081.1L199.8,1088.0L202.2,1102.8L202.7,1104.1L209.8,1111.0L211.4,1112.1L214.2,1116.2L214.6,1118.1L213.5,1121.3L216.4,1125.7L217.6,1129.6L216.8,1135.2L217.8,1138.8L221.4,1144.7L223.4,1151.1L226.3,1156.1L226.6,1157.9L225.5,1171.2L226.2,1178.2L227.8,1181.8L231.2,1182.4L233.2,1185.3L236.5,1186.8L248.6,1187.6L253.9,1187.1L280.6,1180.8L283.8,1173.7L285.8,1170.7L291.1,1165.8L291.8,1162.4L290.3,1154.1L294.5,1153.9L297.4,1150.1L299.3,1148.9L307.7,1146.0L308.5,1144.4L307.7,1141.8L309.1,1137.7L309.3,1131.0L312.1,1125.5L313.1,1125.0L316.3,1125.6L318.6,1124.2L337.4,1118.4L339.1,1116.8L340.2,1114.3L342.7,1112.8L342.8,1103.1L344.9,1088.3L346.3,1087.8L353.1,1090.1L356.6,1091.9L359.3,1094.7L361.1,1099.6L368.4,1100.9L370.2,1102.0L381.5,1114.7L383.9,1116.4L386.4,1117.2L397.1,1115.8L408.6,1116.1L429.3,1115.8Z " data-id="BO.PO" data-name="Potosí" id="BO.PO"/>
utf-8utf-8<path d="M643.8,343.9L603.4,371.0L536.9,415.6L495.1,443.8L468.6,452.5L465.0,454.4L467.5,463.0L468.3,473.4L469.2,480.5L468.5,485.7L469.7,490.0L473.1,495.8L476.7,504.8L486.1,519.0L490.9,522.0L497.9,534.4L504.9,538.6L507.6,539.9L509.8,542.2L512.8,546.7L515.5,555.0L517.7,557.5L523.8,560.4L522.2,560.5L418.4,554.5L418.0,556.4L414.9,556.6L417.5,560.9L414.1,560.0L413.2,560.9L416.8,565.2L417.9,574.8L420.1,578.5L419.2,583.1L420.1,585.0L419.6,586.8L420.1,591.7L418.5,594.2L420.4,595.4L419.2,598.0L420.3,602.8L418.5,609.1L414.1,617.9L414.5,620.7L416.8,622.8L414.3,628.7L413.8,634.3L415.1,635.9L418.5,646.5L419.8,648.6L428.0,657.4L433.4,660.2L438.8,666.0L450.7,673.4L458.1,681.9L462.0,685.1L464.7,690.1L464.5,695.1L460.9,695.1L454.6,695.9L451.9,698.1L451.1,700.7L451.1,704.5L440.5,724.8L439.1,726.9L430.7,737.1L430.4,739.6L431.5,742.2L435.5,746.3L439.7,753.5L441.6,757.9L444.7,760.7L450.6,769.2L451.7,772.8L455.1,777.9L454.9,779.6L456.4,781.5L456.7,784.4L457.9,786.0L460.1,787.0L463.6,790.0L466.7,791.9L467.6,793.6L468.1,798.8L468.7,800.2L466.7,803.9L465.6,806.6L466.5,807.5L467.8,809.7L467.9,813.7L471.6,821.8L476.7,825.4L478.0,827.4L479.6,832.0L485.3,833.4L490.0,837.4L494.4,849.8L496.0,852.6L497.2,853.0L501.2,852.7L502.1,852.1L503.5,849.0L503.6,842.5L504.3,840.6L514.8,840.0L515.7,841.4L515.2,856.4L515.5,861.8L524.6,924.0L526.4,927.6L533.1,963.9L534.5,967.7L541.2,968.0L547.0,967.9L548.2,965.7L551.5,964.0L555.8,959.4L556.9,960.2L562.5,969.8L563.2,970.0L647.0,969.6L648.3,967.1L657.3,950.7L664.7,936.6L667.0,929.7L669.4,920.8L675.3,896.5L677.0,894.9L694.4,892.0L809.3,864.2L880.8,863.2L882.4,863.6L891.4,869.8L956.3,911.2L957.2,912.3L958.0,919.4L959.8,924.6L960.3,927.4L960.7,935.0L959.9,939.8L960.2,942.1L963.4,940.8L968.0,937.0L970.1,933.1L978.0,930.4L979.6,929.5L982.1,925.5L960.3,905.6L959.5,903.0L980.6,842.8L981.8,841.8L986.2,841.5L984.0,830.4L983.1,829.7L979.9,829.4L991.9,770.6L992.8,769.6L999.6,769.1L999.5,767.2L995.9,766.1L992.6,764.1L989.4,758.6L984.5,747.7L976.1,733.8L978.5,733.5L978.5,731.9L975.3,726.8L975.7,723.9L974.4,723.4L971.2,720.2L969.2,707.7L967.1,704.4L965.3,703.7L960.0,704.5L957.0,704.3L951.6,702.4L947.9,699.3L943.2,696.7L936.9,692.7L928.1,684.7L924.0,683.5L920.9,681.8L919.3,679.1L918.5,675.7L917.8,667.6L915.8,662.7L914.8,656.4L912.6,652.1L912.2,643.5L911.7,640.0L909.5,633.2L908.9,629.3L909.3,626.3L910.4,623.5L917.4,613.7L918.2,610.4L916.4,607.1L916.3,605.6L918.3,602.6L917.2,593.9L916.4,593.1L913.0,593.0L911.0,596.5L909.4,597.4L902.0,597.4L776.7,592.4L774.2,591.7L772.4,587.8L769.8,568.0L762.9,523.2L760.8,519.0L737.6,490.9L733.1,486.9L757.2,486.6L757.6,485.5L753.0,444.8L751.9,442.8L747.8,439.9L746.3,437.0L748.7,436.0L748.0,432.3L745.0,425.9L743.4,420.3L742.7,418.8L738.1,414.8L737.2,413.2L736.9,406.0L735.4,402.8L735.8,397.5L739.5,395.1L741.5,386.7L739.5,384.6L739.8,383.7L737.1,380.8L732.2,369.1L725.4,367.1L723.7,365.0L719.1,362.9L706.6,352.6L701.1,350.0L698.9,348.0L688.9,346.4L687.3,344.6L686.5,340.1L684.4,341.3L681.0,341.9L678.8,345.0L673.6,344.8L671.9,345.4L668.4,343.9L663.0,342.7L657.9,345.8L654.6,347.2L651.1,347.6L644.2,343.9L643.8,343.9Z " data-id="BO.SC" data-name="Santa Cruz" id="BO.SC"/>
utf-8utf-8<path d="M420.7,1065.2L421.1,1068.1L420.0,1073.9L417.7,1078.9L417.7,1081.5L415.9,1089.2L417.4,1090.3L424.2,1099.7L426.3,1102.1L427.4,1104.9L430.5,1115.5L429.3,1115.8L442.5,1115.6L457.5,1119.3L463.2,1122.6L467.1,1123.3L468.5,1122.6L471.4,1123.0L477.2,1126.1L481.2,1131.7L481.4,1133.1L479.6,1137.8L483.6,1141.6L484.0,1145.8L485.5,1146.8L487.8,1151.1L492.6,1155.7L491.2,1163.4L491.5,1164.7L493.6,1166.2L496.2,1170.9L498.9,1172.5L500.7,1176.9L500.3,1179.1L501.4,1180.3L502.1,1184.5L503.4,1184.1L505.0,1175.5L504.4,1169.0L506.3,1155.5L507.2,1153.4L510.8,1149.3L512.4,1146.3L516.5,1130.1L519.0,1127.5L520.7,1120.9L526.1,1107.1L528.1,1106.7L535.4,1107.2L537.1,1108.0L541.5,1111.5L548.9,1106.7L597.8,1107.0L609.2,1106.3L613.8,1107.3L614.9,1113.2L617.8,1119.9L621.6,1121.9L627.1,1127.8L627.8,1128.0L629.1,1123.5L631.8,1107.0L638.2,1071.6L646.9,1023.1L646.6,1017.2L646.6,1017.2L522.3,1017.1L515.0,1016.8L511.7,1015.0L511.6,1012.1L506.7,1011.7L504.0,1009.0L499.1,1008.8L498.1,1007.6L497.1,1012.5L498.1,1017.9L497.5,1027.5L495.3,1029.9L491.4,1029.0L486.8,1029.5L482.3,1027.9L479.3,1025.3L475.2,1024.6L471.6,1025.2L470.3,1024.0L468.0,1019.4L464.7,1015.7L463.1,1014.8L461.8,1012.4L456.2,1010.9L453.6,1015.8L452.4,1023.7L448.0,1025.8L439.6,1018.8L431.6,1017.1L427.8,1013.1L425.9,1013.7L422.1,1012.3L420.4,1014.3L421.1,1030.7L420.3,1035.7L420.9,1042.0L420.6,1060.0L420.7,1065.2Z " data-id="BO.TR" data-name="Tarija" id="BO.TR"/>
utf-8</g>
</svg>
