<?xml version="1.0" ?>
<!DOCTYPE svg
  PUBLIC '-//W3C//DTD SVG 1.1//EN'
  'http://www.w3.org/Graphics/SVG/1.1/DTD/svg11.dtd'>
<svg enable_background="new 0 0 1000 1219" height="1219px" pretty_print="True" style="stroke-linejoin: round; stroke:#000; fill: none;" version="1.1" viewBox="0 0 1000 1219" width="1000px" xmlns="http://www.w3.org/2000/svg" xmlns:xlink="http://www.w3.org/1999/xlink">
utf-8<defs>
utf-8utf-8<style type="text/css">
<![CDATA[path { fill-rule: evenodd; }]]>utf-8utf-8</style>
utf-8</defs>
utf-8<metadata>
utf-8utf-8<views>
utf-8utf-8utf-8<view h="1219.15254186" padding="0" w="1000">
utf-8utf-8utf-8utf-8<proj flip="auto" id="robinson" lon0="-77.4363280475"/>
utf-8utf-8utf-8utf-8<bbox h="106.09" w="87.09" x="-1141.16" y="-456.76"/>
utf-8utf-8utf-8</view>
utf-8utf-8</views>
utf-8</metadata>
utf-8<g class="" id="provinces">
utf-8utf-8<path d="M308.8,415.5L306.6,414.6L304.1,414.5L296.8,415.9L289.8,415.6L287.3,415.9L281.4,418.1L278.9,418.5L274.9,420.3L270.5,423.4L268.1,427.1L270.3,430.4L278.6,430.9L282.9,433.2L285.5,431.8L288.9,427.9L293.8,430.3L297.8,430.4L316.4,421.9L318.5,419.5L312.4,418.0L308.8,415.5Z " data-id="BS.NW" data-name="New Providence" id="BS.NW"/>
utf-8utf-8<path d="M137.4,138.7L141.3,136.9L143.0,135.8L141.1,132.9L137.3,132.9L133.0,137.9L134.2,140.9L137.4,138.7Z " data-id="BS.FP" data-name="City of Freeport" id="BS.FP"/>
utf-8utf-8<path d="M171.7,90.5L169.5,90.9L168.4,89.6L167.7,91.0L168.7,92.5L171.7,90.5Z M175.9,123.7L172.3,110.8L169.3,100.9L162.3,97.7L159.5,95.8L159.3,92.3L157.8,88.2L155.6,84.4L152.9,82.0L150.2,90.2L148.8,92.6L143.4,97.9L141.8,100.4L148.5,101.7L152.0,104.3L152.0,106.4L148.6,108.5L145.9,112.8L143.1,115.0L142.3,117.4L139.9,119.1L139.0,120.7L133.0,123.9L129.2,126.4L125.1,128.3L121.2,128.2L116.3,125.8L110.3,126.9L106.6,119.8L87.8,105.7L86.9,104.3L82.7,103.1L84.0,106.0L90.7,112.8L104.8,131.5L111.2,136.1L114.5,140.3L120.6,142.7L127.2,143.4L128.9,142.6L132.4,142.3L134.2,140.9L133.0,137.9L137.3,132.9L141.1,132.9L143.0,135.8L144.5,134.9L147.9,133.8L153.7,129.3L160.0,127.8L175.9,123.7Z " data-id="BS.WG" data-name="West Grand Bahama" id="BS.WG"/>
utf-8utf-8<path d="M268.8,123.6L271.4,120.5L271.0,120.0L268.2,121.2L267.6,120.3L262.5,121.3L261.5,123.7L264.3,129.5L266.7,127.8L268.8,123.6Z M169.3,100.9L172.3,110.8L175.9,123.7L196.1,118.5L205.3,118.5L228.7,113.7L238.9,111.3L249.8,110.7L256.7,115.0L260.0,113.7L261.9,110.6L262.4,106.9L260.6,100.1L263.2,92.2L263.4,88.6L260.7,89.7L255.4,96.5L252.6,97.6L242.2,97.8L238.7,98.3L233.1,100.8L227.6,102.5L219.8,101.3L213.5,103.9L210.5,103.3L205.8,100.8L202.1,102.6L199.3,106.1L193.9,105.9L185.7,104.4L178.5,102.4L174.9,103.4L169.3,100.9Z " data-id="BS.EG" data-name="East Grand Bahama" id="BS.EG"/>
utf-8utf-8<path d="M210.3,0.0L208.6,0.8L210.0,2.6L211.4,0.9L210.3,0.0Z " data-id="BS.GC" data-name="Grand Cay" id="BS.GC"/>
utf-8utf-8<path d="M333.0,70.7L327.0,65.2L319.0,60.9L314.6,64.0L306.1,63.2L291.6,59.6L276.2,59.3L268.5,60.8L259.5,66.1L263.0,66.0L268.6,64.0L281.8,63.0L284.7,63.5L287.4,64.9L291.5,68.1L293.3,68.8L299.8,68.8L302.7,69.2L311.8,72.5L315.6,73.2L322.0,70.4L325.7,70.5L329.0,71.9L331.4,74.0L335.0,79.6L340.3,92.7L341.9,99.2L340.4,102.3L341.2,104.3L343.6,105.4L346.9,105.7L349.0,104.1L349.9,103.4L358.0,101.6L333.0,70.7Z " data-id="BS.NO" data-name="North Abaco" id="BS.NO"/>
utf-8utf-8<path d="M351.5,169.6L350.2,170.9L352.4,174.5L350.9,178.5L353.5,174.2L353.0,169.8L351.5,169.6Z M354.2,159.6L357.4,158.0L360.0,154.9L358.7,155.0L354.2,159.6Z M365.3,146.8L362.9,145.7L358.4,148.4L360.1,153.0L361.4,153.8L363.8,152.9L364.5,147.5L365.3,146.8Z M337.8,118.4L338.7,122.3L339.3,121.9L337.8,118.4Z M358.0,101.6L349.9,103.4L350.7,103.7L353.0,109.3L351.8,113.7L353.0,118.4L354.3,121.7L356.9,123.6L371.8,126.0L375.3,127.8L380.9,129.5L381.6,132.3L380.3,135.8L378.1,138.8L374.8,140.7L371.8,149.0L368.2,151.9L365.7,152.0L363.8,165.5L364.8,167.9L364.7,169.7L358.2,177.8L360.5,180.7L360.6,183.2L395.6,169.7L396.1,168.3L398.9,163.8L394.4,161.8L393.3,159.8L393.2,156.6L394.7,148.0L395.4,146.7L397.8,145.3L398.3,142.2L397.6,138.7L396.6,136.2L394.9,134.4L389.5,130.9L382.5,124.9L378.4,122.5L368.7,120.6L364.8,117.8L362.1,113.5L360.6,108.3L365.9,108.5L368.3,107.8L370.0,105.7L364.7,105.3L361.0,104.0L358.0,101.6Z " data-id="BS.CO" data-name="Central Abaco" id="BS.CO"/>
utf-8utf-8<path d="M305.9,220.7L305.3,217.5L302.2,219.7L304.0,222.9L305.9,220.7Z M395.6,169.7L360.6,183.2L359.8,188.3L358.7,191.1L353.8,196.8L353.8,198.9L356.5,202.8L356.6,208.5L357.4,210.1L352.9,211.9L348.5,215.4L341.3,222.6L334.6,224.5L331.9,229.3L329.2,231.3L326.0,232.4L323.3,232.4L325.9,237.1L337.5,239.9L339.8,242.4L340.2,246.4L342.0,252.4L344.9,257.9L348.9,260.3L355.8,254.3L358.6,240.4L360.2,224.9L363.7,214.0L364.0,210.4L367.8,195.6L370.1,190.9L374.5,186.5L379.7,182.2L385.3,179.2L390.8,178.5L389.0,182.2L392.1,181.6L396.7,178.1L395.6,171.8L395.6,169.7Z " data-id="BS.SO" data-name="South Abaco" id="BS.SO"/>
utf-8utf-8<path d="M309.6,180.6L310.6,179.1L304.7,173.1L304.1,176.9L305.3,182.1L303.6,186.4L309.6,180.6Z " data-id="BS.MI" data-name="Moore's Island" id="BS.MI"/>
utf-8utf-8<path d="M233.5,349.2L232.7,348.7L230.6,350.0L225.0,350.1L222.4,352.0L229.4,352.2L231.5,351.2L233.5,349.2Z M245.7,292.7L241.4,281.0L240.1,279.1L238.1,278.7L236.7,280.2L237.5,282.6L240.2,286.6L242.1,291.7L243.7,294.3L245.7,294.5L245.7,292.7Z " data-id="BS.BY" data-name="Berry Islands" id="BS.BY"/>
utf-8utf-8<path d="M228.9,496.6L230.2,488.5L229.0,485.7L223.9,479.2L219.4,476.6L217.1,473.4L211.5,461.8L205.3,435.3L203.6,432.4L201.4,430.9L198.4,430.4L197.7,428.2L199.1,423.5L202.3,415.9L199.9,413.6L199.1,410.5L200.0,407.1L202.9,404.1L201.5,401.4L195.6,396.8L192.9,395.5L190.2,396.8L187.5,398.9L184.8,400.0L182.1,399.3L180.2,395.5L178.5,393.4L176.1,392.3L170.3,391.1L167.6,390.9L165.0,395.2L166.1,402.5L168.4,410.5L169.2,416.6L169.5,425.3L169.1,430.7L167.4,433.1L165.8,434.3L162.3,441.0L164.1,446.2L162.6,446.4L161.7,449.1L156.8,457.3L152.3,458.2L150.6,459.4L150.6,464.2L147.5,468.0L143.4,471.2L140.5,474.0L138.1,479.8L137.2,484.5L139.4,485.8L140.8,491.8L142.1,493.8L143.3,486.5L143.1,483.5L141.6,481.9L144.1,480.9L144.9,482.7L146.0,489.9L148.2,492.4L148.2,499.1L151.8,504.2L151.5,507.0L150.5,508.0L146.0,505.7L146.3,509.4L145.3,513.6L143.4,516.0L140.9,514.3L140.9,510.9L142.4,506.8L142.8,503.4L139.8,501.7L139.6,506.0L138.1,507.5L135.5,508.2L130.6,511.3L129.0,508.9L134.5,501.9L137.7,493.1L137.3,489.1L135.4,486.5L132.8,486.4L130.2,489.8L131.0,491.9L127.1,496.3L123.2,494.4L122.3,497.1L120.7,498.7L111.3,503.0L112.7,507.4L115.3,511.4L123.8,521.1L142.8,533.6L145.9,534.6L150.4,533.7L153.2,531.7L155.6,529.2L159.0,526.7L166.0,517.8L171.9,508.4L179.5,504.4L194.5,500.3L212.7,498.3L227.6,501.1L228.9,496.6Z " data-id="BS.NS" data-name="North Andros" id="BS.NS"/>
utf-8utf-8<path d="M207.0,576.2L207.9,574.2L201.1,574.2L195.5,576.9L185.5,583.5L183.8,584.1L182.7,586.0L177.4,585.5L176.7,587.3L178.0,593.9L181.0,593.5L190.1,589.0L192.5,587.4L194.5,585.1L196.8,579.9L198.2,578.1L200.0,577.1L202.8,578.1L207.0,576.2Z M183.8,576.9L184.0,574.5L185.3,572.9L187.7,572.8L186.3,570.2L182.8,571.2L178.2,573.3L173.8,574.2L171.6,575.4L172.0,577.1L177.8,579.5L182.1,578.9L184.4,579.5L183.8,576.9Z M201.6,560.2L203.6,555.8L198.7,556.5L196.1,557.6L195.8,560.2L198.3,561.7L201.6,560.2Z M229.8,555.3L226.8,551.9L224.2,551.7L220.7,552.6L217.4,554.1L214.0,556.4L210.1,558.3L208.9,560.2L209.4,562.2L211.4,562.7L214.9,560.4L218.7,556.6L223.5,555.7L228.1,558.1L229.5,557.0L229.8,555.3Z M227.6,501.1L212.7,498.3L194.5,500.3L179.5,504.4L171.9,508.4L166.0,517.8L159.0,526.7L156.1,539.8L156.4,545.5L161.1,547.8L164.6,550.2L165.6,555.8L165.7,562.4L166.9,567.7L170.5,570.7L173.3,569.0L173.0,564.3L174.0,562.8L181.3,557.7L183.4,556.7L189.1,556.7L192.3,555.7L198.9,551.3L201.2,549.1L199.9,544.9L201.4,543.3L206.5,542.6L212.2,536.8L214.9,536.0L221.3,535.0L225.5,532.0L227.7,527.0L227.9,520.2L225.4,512.1L224.8,507.3L226.2,503.7L227.6,501.1Z " data-id="BS.CS" data-name="Central Andros" id="BS.CS"/>
utf-8utf-8<path d="M213.7,615.0L215.7,610.5L219.2,605.0L220.1,601.5L219.5,599.4L216.7,600.6L213.0,597.9L211.5,596.1L215.3,594.6L216.2,593.0L215.2,591.6L212.3,591.3L212.5,590.0L217.7,589.0L222.1,586.6L233.6,577.6L235.5,575.3L232.6,573.2L229.6,564.9L224.6,567.7L222.4,570.3L215.1,573.3L212.3,575.5L209.7,580.6L205.5,583.0L199.8,583.4L196.4,591.3L194.3,592.8L189.6,594.4L186.0,597.9L186.4,598.8L185.6,603.0L184.6,603.5L182.5,601.8L179.9,604.6L189.7,609.0L192.6,611.2L191.1,614.1L194.4,616.8L195.9,619.0L194.3,626.1L196.7,627.0L204.2,621.6L211.1,616.4L213.7,615.0Z " data-id="BS.MC" data-name="Mangrove Cay" id="BS.MC"/>
utf-8utf-8<path d="M205.6,685.7L206.6,682.5L204.4,682.9L205.6,685.7Z M192.1,669.1L189.7,668.0L189.0,669.2L192.1,669.1Z M306.9,615.4L306.3,614.4L304.3,614.8L305.8,617.4L306.9,615.4Z M211.1,616.4L204.2,621.6L196.7,627.0L195.3,629.2L194.9,634.0L195.6,647.0L197.4,650.8L199.4,651.4L206.0,649.4L214.8,649.3L218.2,648.1L221.0,645.4L219.6,649.5L213.6,653.0L202.2,657.2L205.4,658.6L208.5,664.6L212.4,665.1L211.5,663.9L222.0,657.2L224.9,655.9L228.1,653.2L231.2,651.4L234.0,652.6L233.7,654.8L230.9,656.9L221.4,661.4L218.9,663.2L216.9,665.7L215.4,669.2L207.1,666.0L203.6,665.9L204.0,669.2L197.9,671.9L208.5,671.6L213.3,673.0L215.5,677.1L216.7,677.1L218.6,674.6L218.9,672.9L216.5,669.2L220.6,670.4L223.8,673.2L227.5,675.1L233.0,673.1L237.0,666.5L237.6,663.9L237.0,661.1L234.4,658.5L234.1,656.1L238.1,657.4L240.4,656.2L244.2,649.4L243.8,646.1L245.8,638.8L244.7,636.1L241.5,635.4L237.9,637.1L231.5,641.5L232.7,636.6L236.2,635.2L239.8,635.1L243.5,632.7L245.7,628.9L243.7,620.4L245.0,616.7L245.3,608.7L245.8,602.4L245.7,599.0L245.0,596.1L243.2,593.3L240.5,585.1L238.6,581.2L235.4,580.7L233.0,583.5L231.8,588.0L230.9,592.9L229.8,596.7L227.7,599.5L223.7,603.6L217.0,614.8L214.1,617.3L211.1,616.4Z " data-id="BS.SA" data-name="South Andros" id="BS.SA"/>
utf-8utf-8<path d="M445.8,627.0L439.4,603.7L435.7,600.6L437.0,608.5L438.2,614.3L440.4,618.7L442.5,625.5L444.6,628.2L445.8,627.0Z M426.9,579.4L422.1,575.5L418.9,567.9L416.6,566.3L416.3,568.8L417.5,571.6L423.2,581.1L424.9,582.1L428.0,582.1L426.9,579.4Z M384.9,523.3L385.1,520.9L383.8,516.8L382.4,517.5L381.5,520.9L382.1,523.4L383.7,524.2L384.9,523.3Z " data-id="BS.BP" data-name="Black Point" id="BS.BP"/>
utf-8utf-8<path d="M561.1,733.4L555.4,729.9L548.6,727.7L543.1,727.2L545.2,731.8L550.7,734.2L557.5,735.7L563.2,737.7L561.1,733.4Z M494.8,685.3L492.9,683.7L489.1,685.4L487.1,685.0L485.6,687.0L485.6,689.5L486.7,691.7L488.3,693.0L488.8,695.8L483.0,699.5L482.8,700.8L491.1,700.0L497.8,702.5L503.4,707.4L508.3,714.0L510.9,712.2L513.5,714.0L516.3,717.1L519.0,719.4L517.1,723.4L520.1,725.1L528.4,725.8L535.3,730.2L538.9,731.3L541.6,728.6L528.5,722.8L522.8,718.0L521.0,712.0L519.3,711.4L512.1,706.5L502.8,694.2L505.4,691.5L499.4,690.8L494.8,685.3Z " data-id="BS.EX" data-name="Exuma" id="BS.EX"/>
utf-8utf-8<path d="M398.0,332.9L400.3,331.2L403.6,331.2L406.8,329.8L405.9,328.2L399.1,329.8L396.3,331.7L396.2,333.2L398.0,332.9Z " data-id="BS.SW" data-name="Spanish Wells" id="BS.SW"/>
utf-8utf-8<path d="M418.1,325.8L412.4,325.2L411.2,326.4L417.3,326.8L418.1,325.8Z " data-id="BS.HI" data-name="Harbour Island" id="BS.HI"/>
utf-8utf-8<path d="M479.6,367.7L477.3,365.5L474.6,364.7L467.0,364.4L459.7,362.5L454.2,358.8L435.8,341.7L432.7,340.7L431.5,338.7L430.6,335.0L429.0,333.2L425.9,336.8L426.6,329.4L427.9,326.5L430.1,323.5L421.3,322.2L416.6,336.5L413.1,344.1L408.3,348.6L410.7,349.1L417.0,345.6L420.7,344.7L423.8,345.1L430.4,346.9L433.9,347.3L440.1,349.4L448.6,359.4L454.8,363.1L467.6,366.2L473.5,368.6L477.2,372.3L478.9,375.8L482.4,373.0L479.6,367.7Z " data-id="BS.NE" data-name="North Eleuthera" id="BS.NE"/>
utf-8utf-8<path d="M500.7,433.7L504.1,431.7L506.6,424.9L510.4,408.6L510.0,404.9L508.3,402.3L503.8,398.8L494.7,390.7L486.2,380.3L482.4,373.0L478.9,375.8L487.7,393.4L492.2,397.8L497.7,401.0L502.2,405.7L503.9,414.6L503.3,418.7L500.4,429.7L499.5,431.1L497.4,432.9L499.8,434.3L500.7,433.7Z " data-id="BS.CE" data-name="Central Eleuthera" id="BS.CE"/>
utf-8utf-8<path d="M494.0,435.7L490.9,441.0L488.2,449.8L487.3,454.7L488.0,456.9L490.0,455.1L492.4,452.0L493.9,451.0L493.4,455.5L491.5,459.8L488.4,462.8L485.5,466.8L484.3,467.3L468.5,464.4L465.8,464.6L465.1,466.4L468.0,470.6L470.8,472.7L477.5,475.8L480.0,477.9L481.5,483.3L482.3,490.4L484.3,496.5L489.4,499.1L488.2,492.9L488.7,485.4L491.0,472.0L492.3,469.3L497.1,462.6L498.5,458.8L500.5,449.6L500.3,446.4L498.9,441.5L498.7,438.0L499.8,434.3L497.4,432.9L494.0,435.7Z " data-id="BS.SE" data-name="South Eleuthera" id="BS.SE"/>
utf-8utf-8<path d="M618.3,581.4L612.2,572.9L609.7,570.1L606.9,561.0L604.2,558.2L598.2,554.5L595.6,551.9L588.2,537.6L584.9,528.6L583.7,522.6L578.0,515.0L577.5,511.4L578.0,499.1L576.5,496.8L570.6,493.8L563.4,488.1L561.9,488.8L557.8,493.1L556.9,494.7L559.0,498.9L563.9,501.7L570.3,508.5L572.1,510.0L572.6,512.3L572.3,519.4L571.4,521.4L576.8,521.9L580.7,524.6L582.9,529.2L583.4,537.9L585.9,542.9L586.5,548.3L593.2,563.7L596.3,566.5L600.9,567.7L603.9,570.7L603.8,577.0L601.6,582.2L598.5,582.1L596.4,585.0L592.8,587.5L586.5,590.0L582.7,591.9L584.0,595.9L588.0,599.0L592.2,598.6L595.5,595.9L598.3,594.4L606.0,592.7L609.9,592.4L613.3,592.7L620.5,595.4L619.2,584.2L618.3,581.4Z " data-id="BS.CI" data-name="Cat Island" id="BS.CI"/>
utf-8utf-8<path d="M759.7,614.5L761.9,607.2L758.2,596.0L757.2,595.5L754.1,598.0L747.5,601.1L745.3,603.9L744.7,608.5L744.7,614.4L743.1,621.1L740.4,627.1L737.1,630.8L736.9,632.2L748.0,630.8L748.4,629.2L751.8,621.3L753.5,619.0L751.3,627.0L759.7,614.5Z " data-id="BS.SS" data-name="San Salvador" id="BS.SS"/>
utf-8utf-8<path d="M692.3,684.0L694.3,681.0L691.0,678.2L689.0,677.2L682.8,677.1L670.2,680.7L667.4,682.0L666.0,684.5L666.0,688.9L669.1,687.8L674.6,687.7L677.8,686.3L679.4,689.1L683.2,690.4L686.2,690.4L685.5,687.7L689.0,687.9L690.9,686.5L692.3,684.0Z M642.0,658.1L643.1,655.7L641.6,653.0L640.1,655.7L640.8,658.8L642.0,658.1Z " data-id="BS.RC" data-name="Rum Cay" id="BS.RC"/>
utf-8utf-8<path d="M605.0,686.3L602.1,683.7L601.8,687.2L600.7,690.0L597.2,694.2L597.0,695.6L599.2,694.3L602.4,690.8L604.3,691.5L600.5,695.6L604.4,692.6L605.0,695.4L602.7,704.7L607.1,702.6L608.6,703.5L610.8,712.7L610.7,721.3L611.6,724.4L614.6,727.2L613.5,729.6L614.4,731.0L618.5,732.5L617.6,736.7L623.2,742.4L622.3,747.0L625.0,744.3L627.1,747.2L628.4,751.8L628.9,756.9L628.4,761.5L623.4,771.4L622.1,776.6L622.9,779.9L631.0,791.1L631.8,793.2L630.1,793.8L624.2,792.1L619.6,787.8L617.6,787.9L614.3,784.9L613.4,782.6L618.9,783.8L617.6,781.2L613.2,778.7L611.9,776.0L610.8,776.0L607.1,780.8L606.4,782.6L608.9,783.8L619.7,791.8L625.4,796.5L643.9,800.5L647.3,803.3L652.0,810.7L653.3,813.4L654.0,821.2L657.7,830.3L658.1,835.3L660.6,834.0L661.0,840.5L661.8,841.9L663.7,842.6L665.4,839.7L666.1,832.2L666.0,826.3L665.1,821.4L663.4,819.4L666.2,815.6L657.0,802.7L651.6,797.6L638.1,791.9L633.9,788.4L631.8,782.6L631.6,773.3L632.6,764.8L632.7,760.7L631.6,758.9L632.1,756.9L624.9,736.5L622.4,733.1L620.8,729.7L620.5,716.7L619.3,713.0L617.1,708.7L614.6,705.0L612.5,703.5L605.0,686.3Z " data-id="BS.LI" data-name="Long Island" id="BS.LI"/>
utf-8utf-8<path d="M501.9,969.0L499.5,965.1L500.0,969.6L497.4,968.6L498.1,972.7L499.3,974.3L501.3,974.3L502.7,972.8L501.9,969.0Z M498.7,962.6L499.0,957.7L498.4,957.3L497.5,962.3L498.7,962.6Z M498.1,947.9L496.9,948.9L497.8,949.6L498.1,947.9Z M492.0,940.1L490.0,933.3L489.3,933.8L491.4,941.1L492.0,940.1Z M489.1,919.2L488.1,915.7L487.9,919.3L489.1,919.2Z " data-id="BS.RI" data-name="Ragged Island" id="BS.RI"/>
utf-8utf-8<path d="M737.5,899.6L744.5,892.1L750.2,884.2L751.7,878.8L746.3,885.2L739.8,890.1L734.3,895.6L731.8,903.8L737.5,899.6Z M768.8,861.6L768.4,855.1L764.2,851.1L757.5,849.7L753.2,846.4L745.4,847.1L743.9,849.7L752.6,866.9L754.0,867.9L753.7,870.1L752.3,874.2L757.5,871.7L758.6,869.5L762.5,874.2L774.4,877.6L782.0,875.6L781.4,878.8L783.5,881.5L797.3,869.5L787.9,865.3L784.3,864.3L785.2,866.9L781.9,866.0L776.0,865.5L772.9,864.3L771.4,861.5L768.8,861.6Z M839.3,795.7L841.8,801.4L848.8,801.6L864.0,798.4L864.2,797.0L861.0,795.9L851.6,797.0L839.3,795.7Z " data-id="BS.CK" data-name="Crooked Island and Long Cay" id="BS.CK"/>
utf-8utf-8<path d="M861.9,897.0L864.8,892.2L862.9,890.8L860.7,892.3L858.9,897.5L861.9,897.0Z M885.2,895.0L883.9,892.4L880.4,890.5L876.7,889.5L870.8,890.3L871.1,891.3L884.1,895.2L885.2,895.0Z M825.8,869.5L824.9,866.9L820.3,868.9L816.1,869.6L807.5,869.5L810.4,873.6L808.1,874.8L806.8,874.2L803.0,878.8L801.8,878.0L796.5,876.2L799.3,881.5L795.4,883.8L792.6,888.0L794.8,890.6L799.7,893.4L811.5,893.6L815.6,897.3L817.2,905.0L814.9,911.3L809.8,915.8L802.9,918.4L796.2,920.0L794.0,922.2L792.8,926.9L790.6,929.9L786.4,931.0L781.8,931.5L778.6,932.9L778.5,939.7L776.1,941.3L763.9,948.5L760.4,949.9L760.3,951.2L762.4,952.5L757.7,955.3L757.5,956.5L759.1,957.9L758.8,959.1L753.3,963.9L751.8,964.6L745.3,964.0L743.5,964.6L742.5,966.5L741.5,975.0L747.5,969.4L750.7,967.7L754.5,967.1L756.3,966.3L762.7,960.5L767.7,953.4L770.5,950.9L774.8,949.9L785.4,945.5L788.8,944.5L798.4,936.8L805.3,925.3L809.5,922.6L816.9,915.7L818.4,912.1L819.4,907.8L821.0,904.6L824.0,903.8L821.9,896.0L822.0,881.6L821.2,878.8L819.2,880.0L817.5,878.8L816.5,876.2L816.2,873.6L817.7,874.2L818.9,878.8L821.0,876.9L825.8,869.5Z " data-id="BS.AK" data-name="Acklins" id="BS.AK"/>
utf-8utf-8<path d="M942.0,924.6L940.7,923.6L938.4,919.6L936.4,921.2L936.2,925.0L935.2,927.5L934.7,931.6L931.3,934.2L930.8,936.0L932.2,937.3L941.1,939.5L943.7,941.7L945.4,942.2L949.5,941.3L956.5,937.6L960.2,936.8L963.2,939.1L965.1,939.5L970.9,938.1L975.1,938.3L977.9,939.1L983.5,943.4L990.3,951.5L993.1,952.5L995.8,951.3L998.4,948.1L999.6,944.3L998.5,940.7L997.2,940.0L993.9,940.0L988.4,934.2L981.6,933.6L979.2,932.4L976.8,930.2L974.9,931.2L972.2,930.5L967.0,927.5L968.8,931.6L964.9,931.5L957.1,925.2L953.2,923.5L948.3,922.3L944.5,925.0L942.0,924.6Z " data-id="BS.MG" data-name="Mayaguana" id="BS.MG"/>
utf-8utf-8<path d="M819.3,1217.2L822.1,1212.5L825.0,1211.0L827.4,1210.6L838.0,1211.6L845.0,1214.8L855.1,1212.3L860.8,1212.7L870.1,1207.3L873.6,1207.7L875.9,1209.8L874.5,1212.3L875.6,1212.3L883.0,1208.2L890.1,1209.4L903.1,1203.7L906.9,1201.5L914.1,1184.7L926.3,1170.2L928.3,1164.8L933.9,1144.3L934.6,1139.8L933.7,1136.5L930.3,1134.8L926.8,1137.0L923.9,1140.7L914.1,1154.8L909.9,1162.3L905.4,1167.6L896.9,1169.9L889.0,1174.3L879.0,1170.7L874.9,1168.5L869.8,1160.3L868.7,1155.4L864.2,1160.9L862.4,1162.2L854.0,1163.2L850.5,1165.3L846.9,1164.4L845.0,1167.9L840.9,1171.5L839.3,1175.3L833.9,1177.0L831.8,1178.6L825.2,1181.1L819.8,1178.1L819.6,1180.1L822.9,1184.8L822.2,1188.5L820.6,1192.6L817.6,1194.6L812.6,1195.1L814.7,1203.0L814.3,1207.4L814.6,1212.8L816.5,1215.5L819.3,1217.2Z M930.4,1118.4L932.3,1116.5L938.3,1113.4L940.3,1113.0L943.5,1110.0L949.8,1109.3L953.2,1107.0L954.3,1103.2L953.0,1101.3L946.7,1097.8L943.5,1093.3L942.0,1092.2L939.3,1094.1L936.0,1098.0L932.6,1100.0L928.6,1101.4L926.7,1102.8L926.9,1106.8L928.7,1110.5L929.5,1114.2L928.8,1118.6L930.4,1118.4Z " data-id="BS.IN" data-name="Inagua" id="BS.IN"/>
utf-8utf-8<path d="M11.4,385.2L11.1,385.2L11.3,385.5L11.4,385.2Z M12.8,378.6L12.3,378.8L12.6,380.0L12.8,378.6Z M12.5,377.0L12.3,377.1L12.4,377.4L12.5,377.0Z M10.7,370.4L10.3,370.4L10.7,370.5L10.7,370.4Z M9.4,358.7L8.9,359.1L9.5,359.7L9.4,358.7Z M2.1,329.9L2.0,329.7L1.9,330.8L2.1,329.9Z M11.9,283.6L11.6,281.5L9.7,282.1L6.0,284.9L3.2,289.0L0.4,295.5L7.2,297.1L7.9,296.1L6.5,294.6L2.7,291.9L3.5,289.4L8.6,284.1L9.1,285.0L7.5,287.9L7.5,289.7L11.0,289.3L11.7,287.7L11.9,283.6Z M83.3,246.0L83.2,246.4L83.5,246.5L83.3,246.0Z M37.9,241.9L37.7,241.6L37.6,242.2L37.9,241.9Z M59.2,232.6L59.0,232.2L59.0,232.8L59.2,232.6Z " data-id="BS.BI" data-name="Bimini" id="BS.BI"/>
utf-8utf-8<path d="M412.9,135.2L413.4,133.1L410.3,136.6L408.2,141.8L412.9,135.2Z " data-id="BS.HT" data-name="Hope Town" id="BS.HT"/>
utf-8</g>
</svg>
