<?xml version="1.0" ?>
<!DOCTYPE svg
  PUBLIC '-//W3C//DTD SVG 1.1//EN'
  'http://www.w3.org/Graphics/SVG/1.1/DTD/svg11.dtd'>
<svg enable_background="new 0 0 1000 572" height="572px" pretty_print="True" style="stroke-linejoin: round; stroke:#000; fill: none;" version="1.1" viewBox="0 0 1000 572" width="1000px" xmlns="http://www.w3.org/2000/svg" xmlns:xlink="http://www.w3.org/1999/xlink">
utf-8<defs>
utf-8utf-8<style type="text/css">
<![CDATA[path { fill-rule: evenodd; }]]>utf-8utf-8</style>
utf-8</defs>
utf-8<metadata>
utf-8utf-8<views>
utf-8utf-8utf-8<view h="572.119306929" padding="0" w="1000">
utf-8utf-8utf-8utf-8<proj flip="auto" id="robinson" lon0="89.5484281053"/>
utf-8utf-8utf-8utf-8<bbox h="27.89" w="48.83" x="1272.21" y="-475.57"/>
utf-8utf-8utf-8</view>
utf-8utf-8</views>
utf-8</metadata>
utf-8<g class="" id="provinces">
utf-8utf-8<path d="M256.9,418.3L248.9,414.5L245.2,411.9L236.6,407.5L235.8,404.8L240.1,396.4L254.3,384.3L253.1,381.5L251.4,380.4L237.1,376.6L233.3,368.2L230.7,364.4L225.0,360.5L225.9,369.0L225.6,372.4L224.5,376.8L223.0,390.0L223.5,393.0L225.9,401.0L223.3,402.3L214.1,401.0L211.5,400.2L205.9,397.3L201.8,395.7L193.2,394.1L172.6,393.6L176.4,400.6L180.5,404.6L181.5,406.4L181.7,408.8L179.8,412.6L177.8,418.7L178.7,425.0L175.0,427.6L174.1,430.2L173.9,434.2L176.2,440.9L178.1,449.7L185.3,452.6L187.0,454.2L189.8,458.6L190.1,466.0L182.0,482.3L173.3,489.7L176.0,493.4L179.3,492.9L181.1,493.4L187.8,496.8L190.4,498.6L194.1,505.9L194.8,509.5L196.0,509.9L201.9,508.4L205.8,508.8L207.9,514.2L209.4,521.7L222.3,529.9L233.8,535.5L251.7,533.2L264.2,535.3L276.7,540.0L285.3,546.2L287.1,552.1L284.3,561.6L288.5,564.6L293.9,564.5L303.3,560.0L309.8,560.4L326.9,567.7L331.7,568.5L331.0,563.5L325.2,556.8L322.5,549.7L323.9,541.3L326.2,539.4L327.2,534.4L328.6,532.9L330.2,527.8L330.3,525.3L329.7,516.6L328.8,513.3L326.4,508.7L321.3,502.3L320.6,497.9L323.5,487.2L316.7,472.0L314.4,467.6L306.1,455.4L287.7,455.3L287.5,450.7L287.9,447.3L285.6,443.7L278.2,441.3L269.1,424.2L263.4,417.4L256.9,418.3Z " data-id="BT.CK" data-name="Chhukha" id="BT.CK"/>
utf-8utf-8<path d="M384.9,425.5L380.2,424.6L367.7,419.4L355.3,418.0L346.4,408.3L341.3,401.2L335.0,392.0L331.4,388.5L324.0,383.1L319.7,379.4L314.8,376.5L312.1,375.5L303.6,376.2L296.6,372.6L280.4,376.3L276.9,375.6L276.0,382.9L274.7,386.3L272.8,389.0L265.5,393.5L264.6,396.0L263.9,400.2L264.5,408.2L263.4,417.4L269.1,424.2L278.2,441.3L285.6,443.7L287.9,447.3L287.5,450.7L287.7,455.3L306.1,455.4L314.4,467.6L316.7,472.0L323.5,487.2L320.6,497.9L321.3,502.3L326.4,508.7L328.8,513.3L329.7,516.6L330.3,525.3L330.2,527.8L328.6,532.9L327.2,534.4L332.2,533.0L336.9,532.9L341.1,534.8L340.7,526.3L343.1,525.5L347.3,527.2L353.3,532.3L355.5,533.3L358.2,533.2L365.2,530.2L366.7,529.2L367.4,524.9L369.8,529.2L372.6,528.6L373.2,525.9L372.5,517.4L374.4,516.7L377.3,518.8L380.5,526.0L381.5,527.5L386.0,528.7L386.0,527.4L383.8,526.2L385.4,523.2L394.7,515.5L394.5,514.6L393.1,503.0L397.7,500.0L399.4,494.7L402.8,489.2L403.9,480.1L400.9,458.3L399.6,450.6L396.7,447.5L397.3,441.7L393.5,430.4L384.9,425.5Z " data-id="BT.DA" data-name="Daga" id="BT.DA"/>
utf-8utf-8<path d="M73.8,251.1L66.4,254.5L63.1,257.2L60.8,262.0L60.1,267.2L55.3,268.3L52.4,273.6L53.8,277.3L51.1,281.5L47.4,283.9L46.7,288.3L48.1,292.0L51.4,296.8L47.5,301.9L46.4,309.1L46.2,317.2L52.8,331.0L60.5,344.2L66.7,352.3L60.7,358.7L53.4,353.2L42.8,352.3L37.1,357.6L36.9,367.6L34.8,369.6L39.0,371.1L50.0,374.1L54.1,376.6L59.3,383.9L68.0,392.2L71.2,391.8L74.7,388.4L76.7,388.8L80.7,396.5L82.0,400.8L85.5,406.3L87.9,411.4L94.1,414.0L115.7,416.3L119.3,422.7L122.7,427.2L125.1,431.5L129.6,431.8L137.5,422.5L154.5,440.5L157.3,434.0L157.4,431.3L159.0,425.2L164.7,422.3L178.7,425.0L177.8,418.7L179.8,412.6L181.7,408.8L181.5,406.4L180.5,404.6L176.4,400.6L172.6,393.6L168.4,385.8L167.2,382.2L163.5,376.3L163.6,373.3L165.6,369.0L167.1,367.9L172.7,365.2L175.7,361.8L177.4,358.1L161.5,339.6L155.6,333.1L144.9,318.9L140.5,314.0L138.4,308.6L129.5,301.8L125.7,296.1L124.0,291.9L115.2,274.9L113.3,272.7L111.6,272.4L108.3,273.3L103.2,270.1L96.0,267.4L85.2,259.4L77.1,251.9L73.8,251.1Z " data-id="BT.HA" data-name="Ha" id="BT.HA"/>
utf-8utf-8<path d="M224.7,359.4L222.7,351.4L219.1,347.7L210.7,342.9L210.9,333.7L208.6,327.6L207.1,326.2L199.2,323.2L196.4,319.5L194.1,306.6L193.2,291.2L191.8,283.3L191.6,279.0L192.8,273.6L189.2,272.1L185.5,269.0L179.4,260.3L170.8,250.9L164.6,245.7L159.5,243.4L155.0,244.0L161.1,234.4L155.3,227.6L152.5,219.2L151.1,209.2L145.9,211.1L142.1,213.7L139.2,214.3L132.2,214.7L126.6,218.6L124.2,219.2L121.9,218.8L115.3,216.5L110.5,213.2L105.9,211.9L98.6,209.5L97.6,215.2L89.8,237.5L84.2,250.7L84.2,254.9L78.2,252.1L77.1,251.9L85.2,259.4L96.0,267.4L103.2,270.1L108.3,273.3L111.6,272.4L113.3,272.7L115.2,274.9L124.0,291.9L125.7,296.1L129.5,301.8L138.4,308.6L140.5,314.0L144.9,318.9L155.6,333.1L161.5,339.6L177.4,358.1L175.7,361.8L172.7,365.2L167.1,367.9L165.6,369.0L163.6,373.3L163.5,376.3L167.2,382.2L168.4,385.8L172.6,393.6L193.2,394.1L201.8,395.7L205.9,397.3L211.5,400.2L214.1,401.0L223.3,402.3L225.9,401.0L223.5,393.0L223.0,390.0L224.5,376.8L225.6,372.4L225.9,369.0L225.0,360.5L224.7,359.4Z " data-id="BT.PR" data-name="Paro" id="BT.PR"/>
utf-8utf-8<path d="M143.1,126.7L149.8,126.1L153.9,126.5L156.6,127.5L165.6,132.2L170.3,137.2L174.5,148.6L177.0,151.9L181.2,153.4L188.6,154.9L189.6,156.7L185.2,160.1L184.1,161.5L176.9,175.3L175.8,179.8L178.4,186.7L178.7,189.4L178.6,196.7L176.8,199.6L178.6,202.8L183.1,206.6L186.2,206.8L187.5,203.4L191.1,198.6L197.5,199.0L199.2,203.1L202.4,208.6L203.4,211.3L206.3,213.9L218.7,220.5L219.8,216.6L222.7,215.5L226.0,215.2L236.2,217.7L247.0,214.0L244.8,210.7L249.6,206.7L254.1,205.8L262.3,205.2L269.2,192.3L272.7,182.3L276.6,177.4L285.5,175.3L288.7,173.6L294.1,174.4L302.5,180.6L317.4,186.3L322.7,189.8L327.8,191.0L327.0,179.9L328.6,177.5L338.3,175.6L341.3,174.4L346.5,171.1L350.4,163.0L358.0,140.8L358.9,135.0L362.2,131.8L376.4,130.9L382.2,135.2L384.4,141.5L385.4,143.6L393.3,153.4L398.0,157.1L400.9,158.8L402.6,158.6L406.7,155.3L408.7,155.2L413.0,156.3L419.5,155.7L420.8,154.4L419.1,145.2L416.5,140.4L415.6,136.1L414.6,134.2L414.5,131.3L415.6,128.1L423.5,122.4L425.7,119.8L427.7,114.8L428.7,110.4L427.8,103.4L433.1,98.3L446.3,98.0L445.4,80.1L451.9,70.0L461.3,68.8L464.6,57.5L472.5,54.2L467.2,42.9L454.6,38.4L441.9,37.2L425.0,25.9L413.4,25.9L403.5,20.3L393.9,20.3L390.0,35.2L378.5,33.3L367.0,20.3L364.3,7.9L351.9,0.0L345.0,3.4L340.0,11.3L333.5,12.4L323.9,7.9L307.7,4.5L286.1,12.9L280.8,13.8L275.9,17.2L264.7,14.7L255.9,20.9L253.4,19.8L250.7,21.5L248.7,24.4L245.7,31.0L243.7,34.0L235.3,40.5L231.7,44.4L230.8,49.9L227.7,59.6L217.7,64.9L184.0,71.5L179.0,73.3L174.5,76.7L164.8,94.8L160.1,99.5L154.7,101.8L150.9,106.5L147.9,112.2L143.7,124.7L143.1,126.7Z " data-id="BT.GA" data-name="Gasa" id="BT.GA"/>
utf-8utf-8<path d="M164.7,422.3L159.0,425.2L157.4,431.3L157.3,434.0L154.5,440.5L137.5,422.5L129.6,431.8L125.1,431.5L122.7,427.2L119.3,422.7L115.7,416.3L94.1,414.0L87.9,411.4L85.5,406.3L82.0,400.8L80.7,396.5L76.7,388.8L74.7,388.4L71.2,391.8L68.0,392.2L59.3,383.9L54.1,376.6L50.0,374.1L39.0,371.1L34.8,369.6L31.2,373.1L14.5,377.9L8.1,383.2L3.8,392.9L1.4,404.2L0.9,414.1L5.1,416.9L25.5,427.1L33.1,432.3L38.5,440.0L41.6,448.8L50.5,484.6L53.7,478.1L58.4,473.1L64.2,472.3L70.7,479.0L72.3,483.2L73.1,490.1L75.9,493.6L79.3,495.5L82.8,495.8L85.9,494.9L88.3,492.7L94.5,492.4L102.5,495.8L110.4,501.2L116.1,506.5L121.7,515.1L125.5,522.1L130.6,527.1L140.4,529.9L157.2,530.9L165.3,530.0L173.0,527.7L176.0,525.3L178.4,522.0L181.0,519.4L184.7,519.0L188.8,519.2L200.3,515.8L209.4,521.7L207.9,514.2L205.8,508.8L201.9,508.4L196.0,509.9L194.8,509.5L194.1,505.9L190.4,498.6L187.8,496.8L181.1,493.4L179.3,492.9L176.0,493.4L173.3,489.7L182.0,482.3L190.1,466.0L189.8,458.6L187.0,454.2L185.3,452.6L178.1,449.7L176.2,440.9L173.9,434.2L174.1,430.2L175.0,427.6L178.7,425.0L164.7,422.3Z " data-id="BT.SM" data-name="Samchi" id="BT.SM"/>
utf-8utf-8<path d="M206.3,213.9L203.4,211.3L202.4,208.6L199.2,203.1L197.5,199.0L191.1,198.6L187.5,203.4L186.2,206.8L183.1,206.6L178.6,202.8L176.8,199.6L178.6,196.7L178.7,189.4L178.4,186.7L175.8,179.8L176.9,175.3L184.1,161.5L185.2,160.1L189.6,156.7L188.6,154.9L181.2,153.4L177.0,151.9L174.5,148.6L170.3,137.2L165.6,132.2L156.6,127.5L153.9,126.5L149.8,126.1L143.1,126.7L135.0,153.9L127.9,167.7L119.0,176.3L108.3,182.0L99.8,188.7L100.0,201.3L98.6,209.5L105.9,211.9L110.5,213.2L115.3,216.5L121.9,218.8L124.2,219.2L126.6,218.6L132.2,214.7L139.2,214.3L142.1,213.7L145.9,211.1L151.1,209.2L152.5,219.2L155.3,227.6L161.1,234.4L155.0,244.0L159.5,243.4L164.6,245.7L170.8,250.9L179.4,260.3L185.5,269.0L189.2,272.1L192.8,273.6L191.6,279.0L191.8,283.3L193.2,291.2L194.1,306.6L196.4,319.5L199.2,323.2L207.1,326.2L208.6,327.6L210.9,333.7L210.7,342.9L219.1,347.7L222.7,351.4L224.7,359.4L225.0,360.5L230.7,364.4L233.3,368.2L237.1,376.6L251.4,380.4L253.1,381.5L254.3,384.3L240.1,396.4L235.8,404.8L236.6,407.5L245.2,411.9L248.9,414.5L256.9,418.3L263.4,417.4L264.5,408.2L263.9,400.2L264.6,396.0L265.5,393.5L272.8,389.0L274.7,386.3L276.0,382.9L276.9,375.6L280.4,376.3L276.1,355.5L276.0,351.7L275.2,348.2L270.9,345.0L267.9,342.2L280.6,328.0L277.0,321.1L276.0,314.6L276.1,308.2L290.5,303.8L294.2,299.4L294.0,289.8L292.8,286.7L285.6,285.7L282.6,282.9L281.7,281.2L272.5,270.3L261.4,274.4L254.9,281.0L250.1,275.3L245.3,271.3L239.7,262.6L234.2,256.4L232.0,253.2L230.3,244.0L228.7,237.3L225.6,228.9L224.7,227.6L218.7,220.5L206.3,213.9Z " data-id="BT.TM" data-name="Thimphu" id="BT.TM"/>
utf-8utf-8<path d="M322.7,189.8L317.4,186.3L302.5,180.6L294.1,174.4L288.7,173.6L285.5,175.3L276.6,177.4L272.7,182.3L269.2,192.3L262.3,205.2L254.1,205.8L249.6,206.7L244.8,210.7L247.0,214.0L236.2,217.7L226.0,215.2L222.7,215.5L219.8,216.6L218.7,220.5L224.7,227.6L225.6,228.9L228.7,237.3L230.3,244.0L232.0,253.2L234.2,256.4L239.7,262.6L245.3,271.3L250.1,275.3L254.9,281.0L261.4,274.4L272.5,270.3L281.7,281.2L282.6,282.9L285.6,285.7L292.8,286.7L293.2,286.7L319.5,283.8L325.2,277.8L333.9,263.6L339.2,253.1L345.4,250.9L348.6,246.4L348.9,244.3L348.3,241.7L341.1,234.6L338.6,232.6L334.2,231.5L330.5,232.2L326.1,230.8L323.3,228.2L322.2,224.8L321.7,221.0L323.0,214.9L326.4,209.8L328.8,207.1L330.4,201.3L327.8,191.0L322.7,189.8Z " data-id="BT.PN" data-name="Punakha" id="BT.PN"/>
utf-8utf-8<path d="M520.6,101.7L506.2,93.0L501.1,91.9L496.6,93.0L489.1,97.8L482.1,98.6L476.0,100.3L456.3,97.4L451.2,97.3L446.3,98.0L439.1,106.1L436.3,114.2L444.5,122.9L446.3,127.7L444.4,135.3L444.5,136.1L450.9,145.7L457.4,148.2L460.4,153.6L463.4,157.5L465.2,162.8L465.7,172.8L463.8,179.3L462.6,181.9L461.3,182.9L459.9,185.9L465.0,199.6L467.8,201.6L478.9,205.3L483.4,210.5L486.4,216.4L487.3,220.5L488.4,229.5L487.8,236.9L488.7,245.7L489.3,248.3L492.6,251.9L495.7,261.3L497.6,265.6L500.3,267.1L512.3,291.6L515.4,300.3L514.7,304.6L518.5,311.5L526.2,314.2L529.3,314.9L535.2,319.6L544.8,323.2L551.6,327.7L571.5,346.1L571.4,338.7L574.5,336.5L579.4,336.3L581.2,336.8L588.6,342.7L590.5,345.4L594.8,349.4L605.1,353.9L613.3,349.6L616.6,349.0L619.7,346.0L626.4,345.7L630.6,342.6L630.8,339.2L634.2,334.7L635.0,334.1L640.5,332.1L634.0,322.5L633.7,318.6L635.7,315.1L638.1,304.6L632.2,298.2L628.4,295.7L625.4,291.7L625.5,286.3L623.1,278.1L619.2,272.0L619.0,268.5L620.3,252.4L618.1,244.4L615.3,236.6L612.2,230.6L602.2,222.4L594.5,220.5L591.5,218.4L589.8,210.3L584.1,197.0L582.6,194.8L572.4,190.2L567.4,184.9L562.1,180.3L557.5,178.3L554.9,169.5L548.3,158.8L536.9,153.5L532.8,150.5L530.7,147.1L532.7,138.5L535.2,136.5L535.8,132.5L533.7,124.4L530.4,114.8L529.4,103.9L520.6,101.7Z " data-id="BT.BU" data-name="Bumthang" id="BT.BU"/>
utf-8utf-8<path d="M457.0,412.5L450.9,414.6L443.4,419.5L440.0,416.7L436.6,414.8L431.5,411.0L424.9,412.0L414.6,412.8L410.6,412.2L394.1,405.2L388.3,406.8L393.5,430.4L397.3,441.7L396.7,447.5L399.6,450.6L400.9,458.3L403.9,480.1L402.8,489.2L399.4,494.7L397.7,500.0L393.1,503.0L394.5,514.6L394.7,515.5L398.0,518.9L399.3,522.9L403.6,527.9L405.7,529.2L416.7,531.4L418.8,530.2L421.1,526.5L424.3,523.7L427.0,522.5L432.1,521.4L434.6,519.3L432.8,511.9L439.9,495.4L443.9,492.2L445.2,488.4L444.7,484.9L446.2,480.3L450.1,474.8L453.2,467.0L450.3,455.3L453.8,450.4L455.0,442.0L455.0,438.7L454.2,431.9L454.7,429.7L463.8,419.7L466.8,417.8L470.5,414.9L463.4,407.4L457.0,412.5Z " data-id="BT.CR" data-name="Chirang" id="BT.CR"/>
utf-8utf-8<path d="M675.6,541.7L678.9,538.7L673.4,525.1L667.0,528.5L656.4,529.4L652.0,528.5L640.9,527.4L636.2,528.6L632.4,525.9L629.6,521.4L627.0,514.2L617.7,500.0L614.5,498.2L612.6,496.2L608.0,494.1L605.6,491.8L602.4,487.8L598.4,485.0L589.3,483.5L586.3,482.0L583.8,476.6L585.0,473.7L585.1,471.1L582.4,464.8L581.7,461.1L578.5,457.2L576.1,450.5L571.0,445.1L563.4,441.3L557.6,444.3L556.0,444.3L549.6,442.0L541.3,437.7L535.6,433.7L529.2,428.2L526.4,422.7L521.9,422.2L513.9,420.4L512.6,420.5L508.5,419.3L506.6,418.2L503.7,415.4L499.6,413.0L488.4,405.0L467.7,394.0L464.5,398.4L462.4,402.0L463.4,407.4L470.5,414.9L466.8,417.8L463.8,419.7L454.7,429.7L454.2,431.9L455.0,438.7L455.0,442.0L453.8,450.4L450.3,455.3L453.2,467.0L450.1,474.8L446.2,480.3L444.7,484.9L445.2,488.4L443.9,492.2L439.9,495.4L432.8,511.9L434.6,519.3L432.1,521.4L427.0,522.5L424.3,523.7L421.1,526.5L418.8,530.2L416.7,531.4L405.7,529.2L403.6,527.9L399.3,522.9L398.0,518.9L394.7,515.5L385.4,523.2L383.8,526.2L386.0,527.4L386.0,528.7L381.5,527.5L380.5,526.0L377.3,518.8L374.4,516.7L372.5,517.4L373.2,525.9L372.6,528.6L369.8,529.2L367.4,524.9L366.7,529.2L365.2,530.2L358.2,533.2L355.5,533.3L353.3,532.3L347.3,527.2L343.1,525.5L340.7,526.3L341.1,534.8L336.9,532.9L332.2,533.0L327.2,534.4L326.2,539.4L323.9,541.3L322.5,549.7L325.2,556.8L331.0,563.5L331.7,568.5L333.4,568.7L345.1,568.6L350.4,570.1L351.5,568.5L352.0,559.3L354.5,558.1L358.5,560.8L367.6,563.2L370.6,563.7L376.9,563.1L394.4,557.9L427.2,554.5L437.7,551.2L443.6,544.2L447.0,523.5L455.5,516.8L460.7,516.3L471.6,516.8L476.7,514.9L480.7,511.0L483.8,506.9L487.3,503.4L492.9,501.3L503.1,503.0L534.3,523.4L570.9,541.3L609.7,545.8L675.6,541.7Z " data-id="BT.GE" data-name="Geylegphug" id="BT.GE"/>
utf-8utf-8<path d="M728.0,124.7L702.7,112.4L691.4,103.5L683.1,91.5L678.5,97.9L671.7,98.3L664.0,97.2L656.8,98.6L652.2,103.1L643.2,118.0L640.4,124.6L634.3,132.6L623.0,135.6L610.1,134.2L599.1,129.0L593.9,124.7L576.2,111.7L558.2,107.8L539.8,106.6L529.4,103.9L530.4,114.8L533.7,124.4L535.8,132.5L535.2,136.5L532.7,138.5L530.7,147.1L532.8,150.5L536.9,153.5L548.3,158.8L554.9,169.5L557.5,178.3L562.1,180.3L567.4,184.9L572.4,190.2L582.6,194.8L584.1,197.0L589.8,210.3L591.5,218.4L594.5,220.5L602.2,222.4L612.2,230.6L615.3,236.6L618.1,244.4L620.3,252.4L619.0,268.5L619.2,272.0L623.1,278.1L625.5,286.3L625.4,291.7L628.4,295.7L632.2,298.2L638.1,304.6L635.7,315.1L633.7,318.6L634.0,322.5L640.5,332.1L656.2,335.3L669.4,320.4L675.2,318.2L680.3,318.5L686.2,319.7L688.4,321.0L697.5,332.1L718.4,318.8L720.0,308.5L719.2,302.3L718.4,300.7L715.7,297.8L713.1,293.6L714.2,287.8L716.4,284.4L722.3,278.4L722.1,275.7L720.6,270.0L723.6,267.3L726.3,266.4L721.6,261.0L722.9,253.7L717.2,232.9L716.8,224.6L716.2,222.0L712.5,214.1L711.7,211.7L713.0,202.7L712.4,197.1L711.6,193.3L711.6,187.4L705.2,153.0L705.8,151.4L709.5,150.2L710.7,149.2L717.5,137.5L720.4,136.5L723.4,137.4L726.2,136.5L729.6,132.4L733.5,126.5L728.0,124.7Z " data-id="BT.LH" data-name="Lhuntshi" id="BT.LH"/>
utf-8utf-8<path d="M733.5,126.5L729.6,132.4L726.2,136.5L723.4,137.4L720.4,136.5L717.5,137.5L710.7,149.2L709.5,150.2L705.8,151.4L705.2,153.0L711.6,187.4L711.6,193.3L712.4,197.1L713.0,202.7L711.7,211.7L712.5,214.1L716.2,222.0L716.8,224.6L717.2,232.9L722.9,253.7L721.6,261.0L726.3,266.4L733.7,276.4L760.1,304.9L766.3,318.4L763.6,328.0L775.2,329.4L804.4,339.2L805.1,337.8L811.6,334.8L812.6,333.6L817.7,325.4L820.9,325.2L836.9,319.4L846.1,315.1L853.8,313.8L855.9,312.7L857.3,308.1L857.3,308.0L850.2,305.0L842.7,303.6L835.5,301.5L829.8,296.0L826.0,290.3L816.2,283.3L812.4,278.4L800.7,253.3L799.9,240.1L809.3,220.1L808.0,205.3L801.2,181.2L799.8,173.4L800.5,164.9L802.5,158.1L802.2,151.4L796.1,143.5L790.6,139.7L783.8,136.8L776.9,135.0L764.6,133.4L751.8,128.3L741.0,128.2L736.7,127.5L733.5,126.5Z " data-id="BT.TY" data-name="Tashi Yangtse" id="BT.TY"/>
utf-8utf-8<path d="M630.6,342.6L626.4,345.7L619.7,346.0L616.6,349.0L613.3,349.6L605.1,353.9L594.8,349.4L590.5,345.4L588.6,342.7L581.2,336.8L579.4,336.3L574.5,336.5L571.4,338.7L571.5,346.1L571.7,357.3L570.4,364.5L570.7,368.4L571.8,370.7L573.0,378.6L565.9,384.9L546.5,395.3L549.4,399.0L560.0,410.6L558.7,413.0L548.0,413.8L546.2,413.3L541.5,410.2L538.1,411.7L535.1,415.5L533.2,417.1L528.9,419.2L526.4,422.7L529.2,428.2L535.6,433.7L541.3,437.7L549.6,442.0L556.0,444.3L557.6,444.3L563.4,441.3L571.0,445.1L576.1,450.5L578.5,457.2L581.7,461.1L582.4,464.8L585.1,471.1L585.0,473.7L583.8,476.6L586.3,482.0L589.3,483.5L598.4,485.0L602.4,487.8L605.6,491.8L608.0,494.1L612.6,496.2L614.5,498.2L617.7,500.0L627.0,514.2L629.6,521.4L632.4,525.9L636.2,528.6L640.9,527.4L652.0,528.5L656.4,529.4L667.0,528.5L673.4,525.1L678.9,538.7L675.6,541.7L693.9,540.6L695.3,539.9L689.7,529.8L689.4,528.4L689.8,522.8L690.7,520.3L694.0,517.5L706.3,514.5L709.5,512.1L712.2,512.6L713.6,506.3L727.3,505.6L732.0,503.4L734.0,498.2L734.8,485.7L729.4,485.2L726.6,487.4L722.4,486.1L719.7,483.9L716.9,480.6L711.2,477.3L708.6,476.9L703.6,472.9L697.8,457.3L691.9,452.5L680.2,449.0L666.1,426.9L663.6,417.7L665.3,406.6L664.6,399.0L663.1,393.5L659.3,389.3L656.2,380.2L649.9,375.3L645.5,367.9L640.4,356.6L636.9,351.0L630.8,339.2L630.6,342.6Z " data-id="BT.SG" data-name="Shemgang" id="BT.SG"/>
utf-8utf-8<path d="M551.6,327.7L544.8,323.2L535.2,319.6L529.3,314.9L526.2,314.2L518.5,311.5L514.7,304.6L515.4,300.3L512.3,291.6L500.3,267.1L497.6,265.6L495.7,261.3L492.6,251.9L489.3,248.3L488.7,245.7L487.8,236.9L488.4,229.5L487.3,220.5L486.4,216.4L483.4,210.5L478.9,205.3L467.8,201.6L465.0,199.6L465.8,204.4L466.5,220.4L466.2,224.1L465.2,226.8L462.6,229.2L450.5,235.1L447.5,234.6L444.1,232.4L436.8,234.2L434.1,234.3L429.6,233.3L428.8,234.0L427.4,239.2L428.2,245.4L427.7,247.6L424.9,253.0L426.2,257.3L428.2,260.2L432.7,268.6L440.3,279.8L444.3,283.9L453.7,288.4L447.9,294.6L446.2,293.7L442.2,293.5L438.5,294.7L436.2,296.1L432.2,301.2L430.7,302.5L420.7,305.2L427.9,314.6L429.4,317.3L433.0,327.8L439.4,336.5L444.2,341.3L444.5,345.1L447.0,348.6L457.5,356.8L460.1,359.4L462.1,362.7L465.3,372.4L470.9,375.6L472.0,380.2L471.6,385.8L467.7,394.0L488.4,405.0L499.6,413.0L503.7,415.4L506.6,418.2L508.5,419.3L512.6,420.5L513.9,420.4L521.9,422.2L526.4,422.7L528.9,419.2L533.2,417.1L535.1,415.5L538.1,411.7L541.5,410.2L546.2,413.3L548.0,413.8L558.7,413.0L560.0,410.6L549.4,399.0L546.5,395.3L565.9,384.9L573.0,378.6L571.8,370.7L570.7,368.4L570.4,364.5L571.7,357.3L571.5,346.1L551.6,327.7Z " data-id="BT.TO" data-name="Tongsa" id="BT.TO"/>
utf-8utf-8<path d="M459.9,185.9L461.3,182.9L462.6,181.9L463.8,179.3L465.7,172.8L465.2,162.8L463.4,157.5L460.4,153.6L457.4,148.2L450.9,145.7L444.5,136.1L444.4,135.3L446.3,127.7L444.5,122.9L436.3,114.2L439.1,106.1L446.3,98.0L433.1,98.3L427.8,103.4L428.7,110.4L427.7,114.8L425.7,119.8L423.5,122.4L415.6,128.1L414.5,131.3L414.6,134.2L415.6,136.1L416.5,140.4L419.1,145.2L420.8,154.4L419.5,155.7L413.0,156.3L408.7,155.2L406.7,155.3L402.6,158.6L400.9,158.8L398.0,157.1L393.3,153.4L385.4,143.6L384.4,141.5L382.2,135.2L376.4,130.9L362.2,131.8L358.9,135.0L358.0,140.8L350.4,163.0L346.5,171.1L341.3,174.4L338.3,175.6L328.6,177.5L327.0,179.9L327.8,191.0L330.4,201.3L328.8,207.1L326.4,209.8L323.0,214.9L321.7,221.0L322.2,224.8L323.3,228.2L326.1,230.8L330.5,232.2L334.2,231.5L338.6,232.6L341.1,234.6L348.3,241.7L348.9,244.3L348.6,246.4L345.4,250.9L339.2,253.1L333.9,263.6L325.2,277.8L319.5,283.8L293.2,286.7L292.8,286.7L294.0,289.8L294.2,299.4L290.5,303.8L276.1,308.2L276.0,314.6L277.0,321.1L280.6,328.0L267.9,342.2L270.9,345.0L275.2,348.2L276.0,351.7L276.1,355.5L280.4,376.3L296.6,372.6L303.6,376.2L312.1,375.5L314.8,376.5L319.7,379.4L324.0,383.1L331.4,388.5L335.0,392.0L341.3,401.2L346.4,408.3L355.3,418.0L367.7,419.4L380.2,424.6L384.9,425.5L393.5,430.4L388.3,406.8L394.1,405.2L410.6,412.2L414.6,412.8L424.9,412.0L431.5,411.0L436.6,414.8L440.0,416.7L443.4,419.5L450.9,414.6L457.0,412.5L463.4,407.4L462.4,402.0L464.5,398.4L467.7,394.0L471.6,385.8L472.0,380.2L470.9,375.6L465.3,372.4L462.1,362.7L460.1,359.4L457.5,356.8L447.0,348.6L444.5,345.1L444.2,341.3L439.4,336.5L433.0,327.8L429.4,317.3L427.9,314.6L420.7,305.2L430.7,302.5L432.2,301.2L436.2,296.1L438.5,294.7L442.2,293.5L446.2,293.7L447.9,294.6L453.7,288.4L444.3,283.9L440.3,279.8L432.7,268.6L428.2,260.2L426.2,257.3L424.9,253.0L427.7,247.6L428.2,245.4L427.4,239.2L428.8,234.0L429.6,233.3L434.1,234.3L436.8,234.2L444.1,232.4L447.5,234.6L450.5,235.1L462.6,229.2L465.2,226.8L466.2,224.1L466.5,220.4L465.8,204.4L465.0,199.6L459.9,185.9Z " data-id="BT.WP" data-name="Wangdi Phodrang" id="BT.WP"/>
utf-8utf-8<path d="M766.3,318.4L760.1,304.9L733.7,276.4L726.3,266.4L723.6,267.3L720.6,270.0L722.1,275.7L722.3,278.4L716.4,284.4L714.2,287.8L713.1,293.6L715.7,297.8L718.4,300.7L719.2,302.3L720.0,308.5L718.4,318.8L697.5,332.1L688.4,321.0L686.2,319.7L680.3,318.5L675.2,318.2L669.4,320.4L656.2,335.3L640.5,332.1L635.0,334.1L634.2,334.7L630.8,339.2L636.9,351.0L640.4,356.6L645.5,367.9L649.9,375.3L656.2,380.2L659.3,389.3L663.1,393.5L664.6,399.0L665.3,406.6L663.6,417.7L666.1,426.9L680.2,449.0L691.9,452.5L697.8,457.3L703.6,472.9L708.6,476.9L711.2,477.3L716.9,480.6L719.7,483.9L722.4,486.1L726.6,487.4L729.4,485.2L734.8,485.7L735.3,476.3L740.3,461.5L744.1,455.1L749.1,449.9L767.2,440.6L771.9,435.7L774.4,429.5L776.0,421.6L776.7,413.3L776.6,410.0L776.6,405.8L773.8,388.3L774.7,382.4L783.7,370.8L794.1,364.6L790.8,356.2L785.2,348.8L776.4,344.1L771.5,340.0L763.5,335.4L765.8,332.2L763.6,328.0L766.3,318.4Z " data-id="BT.MO" data-name="Mongar" id="BT.MO"/>
utf-8utf-8<path d="M818.3,445.5L817.8,445.1L807.2,445.0L791.5,435.1L787.7,429.9L784.9,426.7L784.5,422.7L786.7,418.8L789.2,411.6L776.6,410.0L776.7,413.3L776.0,421.6L774.4,429.5L771.9,435.7L767.2,440.6L749.1,449.9L744.1,455.1L740.3,461.5L735.3,476.3L734.8,485.7L738.8,486.1L747.2,486.9L758.4,485.5L763.1,486.9L765.6,490.1L771.3,494.0L778.1,494.6L783.3,502.8L782.9,507.4L782.4,517.6L791.2,520.8L794.6,519.4L796.4,512.9L805.5,499.6L808.3,492.2L808.7,489.4L806.2,482.7L805.9,476.8L808.9,466.4L809.0,463.5L819.5,459.8L818.3,445.5Z " data-id="BT.PM" data-name="Pemagatsel" id="BT.PM"/>
utf-8utf-8<path d="M819.5,459.8L809.0,463.5L808.9,466.4L805.9,476.8L806.2,482.7L808.7,489.4L808.3,492.2L805.5,499.6L796.4,512.9L794.6,519.4L791.2,520.8L782.4,517.6L782.9,507.4L783.3,502.8L778.1,494.6L771.3,494.0L765.6,490.1L763.1,486.9L758.4,485.5L747.2,486.9L738.8,486.1L734.8,485.7L734.0,498.2L732.0,503.4L727.3,505.6L713.6,506.3L712.2,512.6L709.5,512.1L706.3,514.5L694.0,517.5L690.7,520.3L689.8,522.8L689.4,528.4L689.7,529.8L695.3,539.9L708.4,532.9L717.1,532.8L727.7,534.2L748.5,533.7L759.0,536.1L768.8,541.7L773.2,543.4L779.2,543.2L783.8,541.8L788.3,539.5L792.2,536.3L795.2,532.4L797.3,526.0L798.5,519.8L800.4,514.4L804.9,510.6L808.8,509.9L820.8,510.7L825.3,512.0L829.0,516.4L838.8,531.7L843.4,535.3L848.8,534.9L858.7,531.0L863.9,530.8L877.7,534.8L882.4,535.2L896.2,533.3L904.0,528.9L920.1,516.1L928.5,514.4L934.7,517.5L937.3,522.6L939.3,528.1L943.3,532.8L948.0,533.4L949.7,529.5L948.2,523.9L943.8,519.3L949.5,516.1L948.5,511.0L946.9,506.6L951.0,505.3L956.6,507.5L967.6,515.9L973.3,518.5L990.6,515.7L999.1,504.4L999.0,487.4L990.0,467.6L982.7,456.6L964.9,441.3L959.1,430.2L957.8,423.9L957.4,417.6L957.6,411.6L958.7,406.6L959.3,405.4L950.1,404.9L947.3,404.4L941.9,402.2L940.3,400.9L932.3,387.0L928.5,383.1L926.0,384.7L925.3,388.6L925.7,393.9L927.6,400.2L929.3,411.2L928.8,413.1L924.5,412.8L917.2,414.1L904.6,418.8L899.7,424.4L895.6,436.8L858.9,451.4L845.0,448.3L824.3,462.4L824.2,462.4L819.5,459.8Z " data-id="BT.SJ" data-name="Samdrup Jongkhar" id="BT.SJ"/>
utf-8utf-8<path d="M959.8,404.3L962.8,400.0L963.8,397.3L964.1,394.3L963.7,387.8L964.1,384.7L967.1,379.6L974.5,371.5L975.3,365.6L973.3,361.5L937.3,311.9L929.1,303.8L925.9,305.0L918.7,311.8L915.2,313.1L904.3,312.4L896.7,313.8L875.7,322.2L867.2,323.1L865.1,320.5L863.7,315.2L857.3,308.1L855.9,312.7L853.8,313.8L846.1,315.1L836.9,319.4L820.9,325.2L817.7,325.4L812.6,333.6L811.6,334.8L805.1,337.8L804.4,339.2L775.2,329.4L763.6,328.0L765.8,332.2L763.5,335.4L771.5,340.0L776.4,344.1L785.2,348.8L790.8,356.2L794.1,364.6L783.7,370.8L774.7,382.4L773.8,388.3L776.6,405.8L776.6,410.0L789.2,411.6L786.7,418.8L784.5,422.7L784.9,426.7L787.7,429.9L791.5,435.1L807.2,445.0L817.8,445.1L818.3,445.5L819.5,459.8L824.2,462.4L824.3,462.4L845.0,448.3L858.9,451.4L895.6,436.8L899.7,424.4L904.6,418.8L917.2,414.1L924.5,412.8L928.8,413.1L929.3,411.2L927.6,400.2L925.7,393.9L925.3,388.6L926.0,384.7L928.5,383.1L932.3,387.0L940.3,400.9L941.9,402.2L947.3,404.4L950.1,404.9L959.3,405.4L959.8,404.3Z " data-id="BT.TA" data-name="Tashigang" id="BT.TA"/>
utf-8</g>
</svg>
