<?xml version="1.0" ?>
<!DOCTYPE svg
  PUBLIC '-//W3C//DTD SVG 1.1//EN'
  'http://www.w3.org/Graphics/SVG/1.1/DTD/svg11.dtd'>
<svg enable_background="new 0 0 1000 669" height="669px" pretty_print="True" style="stroke-linejoin: round; stroke:#000; fill: none;" version="1.1" viewBox="0 0 1000 669" width="1000px" xmlns="http://www.w3.org/2000/svg" xmlns:xlink="http://www.w3.org/1999/xlink">
utf-8<defs>
utf-8utf-8<style type="text/css">
<![CDATA[path { fill-rule: evenodd; }]]>utf-8utf-8</style>
utf-8</defs>
utf-8<metadata>
utf-8utf-8<views>
utf-8utf-8utf-8<view h="669.107556962" padding="0" w="1000">
utf-8utf-8utf-8utf-8<proj flip="auto" id="robinson" lon0="25.2454911123"/>
utf-8utf-8utf-8utf-8<bbox h="78.42" w="117.37" x="292.84" y="-933.62"/>
utf-8utf-8utf-8</view>
utf-8utf-8</views>
utf-8</metadata>
utf-8<g class="" id="provinces">
utf-8utf-8<path d="M314.3,378.0L305.7,376.6L296.5,376.2L290.7,375.1L286.2,375.7L271.0,374.7L262.6,373.2L258.9,372.1L250.9,372.5L247.7,376.7L245.3,380.8L244.9,386.9L240.4,388.8L239.0,390.4L238.7,392.7L239.6,393.9L242.6,395.6L242.9,397.1L238.0,400.8L238.3,403.0L240.5,403.3L243.9,406.0L244.5,407.5L243.9,410.5L241.3,415.5L238.8,422.5L233.6,425.1L228.8,432.4L225.2,434.7L218.6,434.5L217.3,435.3L217.7,438.5L219.5,439.7L222.2,446.1L220.5,447.7L217.9,447.5L214.0,444.7L211.6,444.3L207.7,446.0L201.1,446.3L197.0,447.6L192.6,448.0L191.4,444.2L192.2,438.7L190.8,437.6L187.9,440.9L185.9,440.9L181.2,439.4L179.3,433.7L177.4,431.8L172.4,430.3L170.0,431.5L167.9,434.8L163.3,435.0L157.4,433.9L150.4,431.3L148.0,431.8L143.1,434.1L147.7,436.9L147.8,438.4L143.9,440.6L140.1,444.2L141.6,446.2L142.1,448.5L140.0,449.8L138.3,453.7L140.2,456.5L140.9,458.6L140.1,460.5L134.4,461.5L131.7,461.1L122.4,456.5L119.9,456.2L115.4,457.8L112.8,455.6L106.6,457.0L99.6,455.6L96.7,453.2L88.6,457.4L74.2,456.5L72.3,456.8L73.1,460.9L72.5,466.7L68.8,470.8L55.7,478.3L38.3,482.3L29.4,486.5L20.8,492.7L10.0,508.3L6.3,512.4L4.6,514.8L0.7,522.7L4.8,527.0L4.3,529.4L6.9,530.6L14.8,532.2L16.4,531.7L18.0,532.8L25.0,534.8L32.1,538.2L33.4,536.8L35.9,538.8L37.5,537.4L37.6,540.6L41.2,545.2L43.4,545.8L48.5,545.6L50.7,546.6L53.0,549.6L55.5,550.7L59.9,560.7L61.4,563.1L57.2,569.6L56.9,572.1L57.4,576.5L56.6,582.6L55.5,583.7L59.9,588.3L59.1,591.5L55.1,594.2L53.0,598.3L52.8,601.5L55.1,607.2L52.5,610.0L53.9,611.0L54.1,616.1L56.0,619.9L58.8,623.2L57.3,623.2L59.0,625.3L62.4,626.5L63.0,628.4L65.2,626.5L64.8,625.1L60.1,617.5L60.1,616.4L63.4,613.1L73.6,610.9L76.1,610.9L84.0,612.7L86.7,612.9L91.2,614.3L94.6,617.2L98.0,619.5L102.3,619.0L116.8,607.5L128.1,600.8L130.6,597.5L131.9,588.5L133.2,585.9L136.5,581.3L138.5,579.3L140.7,578.7L167.3,577.0L174.1,578.3L176.4,578.4L206.1,574.5L215.2,570.5L219.9,569.2L224.8,569.1L243.5,573.0L279.4,573.5L288.2,572.0L311.8,575.5L319.2,575.3L322.6,575.8L330.3,580.8L333.7,581.9L358.9,582.7L360.3,583.2L360.8,586.8L364.0,588.9L387.8,589.4L409.4,596.6L416.7,597.5L427.1,594.5L436.6,594.8L441.2,595.6L444.3,596.9L445.3,599.0L446.1,605.6L447.4,608.3L449.1,609.5L453.9,609.4L457.2,610.0L457.3,612.4L455.9,617.7L457.5,618.7L464.0,617.5L470.5,618.3L475.0,617.2L477.5,614.6L479.4,613.8L483.2,613.9L483.2,613.9L481.0,602.6L481.8,600.4L483.1,600.3L484.4,598.5L484.5,590.9L483.2,588.0L478.7,584.8L477.2,583.1L478.9,578.4L478.8,574.3L477.5,570.1L482.8,563.6L483.9,561.0L482.5,558.6L475.6,554.0L474.6,552.3L470.5,529.9L459.0,524.7L455.9,523.7L451.9,518.9L450.1,518.2L444.4,518.1L441.4,514.0L440.7,513.0L425.8,506.4L424.2,504.6L425.8,502.9L425.0,498.3L419.6,495.1L411.9,488.8L413.3,485.2L410.9,483.7L412.1,479.6L424.8,479.1L426.1,476.8L425.9,475.5L421.4,470.8L415.7,470.8L410.1,469.3L405.1,460.6L401.4,458.8L399.0,460.7L392.0,459.4L380.8,456.7L376.2,452.9L372.9,449.0L370.8,448.1L364.6,448.6L363.2,447.2L361.7,444.0L354.5,441.4L350.9,442.1L349.7,446.6L346.1,446.6L342.0,449.6L337.2,443.5L339.6,441.9L330.6,428.7L330.4,426.6L334.6,419.9L336.5,419.0L342.3,419.3L344.2,418.8L341.3,413.8L337.2,410.6L325.3,408.3L324.8,406.6L320.5,402.2L318.7,402.5L314.5,400.7L314.6,399.2L317.8,393.8L320.3,392.2L324.6,392.1L326.8,389.8L326.4,387.4L322.8,382.5L322.2,377.4L322.3,376.3L314.3,378.0Z " data-id="BY.BR" data-name="Brest" id="BY.BR"/>
utf-8utf-8<path d="M860.3,409.5L853.6,411.0L850.5,410.8L848.1,409.1L844.0,411.3L839.0,407.5L833.1,408.3L830.5,406.8L831.8,405.2L831.2,399.6L824.8,394.6L818.6,388.6L817.3,386.0L806.8,383.9L805.1,384.2L802.9,387.8L794.9,386.8L792.1,387.1L787.2,385.5L784.7,388.4L782.1,388.3L776.7,387.1L773.9,385.0L761.9,382.7L759.2,383.6L753.6,383.9L753.0,385.2L750.2,386.3L751.7,390.3L749.7,390.3L744.6,392.1L732.3,394.0L729.7,392.5L727.4,388.5L725.1,386.5L719.4,385.8L718.6,383.9L711.1,381.3L707.3,379.3L703.8,381.6L700.2,382.0L697.3,379.6L695.1,380.1L688.6,377.8L683.6,382.9L684.0,386.3L689.8,395.5L690.4,397.4L685.3,397.4L688.1,400.4L688.1,402.6L685.6,405.0L686.3,406.2L688.8,407.6L687.9,408.8L678.6,408.1L675.7,412.5L680.2,419.7L678.4,421.9L678.7,422.9L685.4,426.7L690.1,428.5L690.0,432.0L688.0,433.5L683.5,432.4L670.2,431.9L668.0,432.3L662.0,436.3L660.3,435.7L658.6,433.7L655.5,432.8L654.0,434.1L654.8,436.6L651.0,438.0L649.4,435.2L638.4,432.7L630.6,433.7L628.6,437.0L624.5,440.0L622.9,442.8L612.2,443.0L610.9,444.2L611.6,453.3L597.2,457.0L596.0,460.0L599.9,461.2L599.6,463.8L598.0,464.6L595.3,464.5L591.4,466.8L584.6,467.6L583.9,468.2L577.1,467.9L575.4,469.3L568.5,468.9L561.8,469.4L561.4,469.6L560.1,471.2L560.9,472.3L556.7,475.3L556.3,478.3L557.6,485.5L558.9,489.6L552.8,496.6L530.9,498.5L527.7,497.0L524.7,493.4L523.4,493.0L514.0,491.4L511.3,492.7L510.9,494.1L513.3,498.5L513.2,499.9L509.4,502.0L497.6,502.9L494.0,502.3L485.6,502.5L478.4,499.9L474.4,497.7L472.8,494.1L472.5,490.9L471.2,489.4L469.8,490.0L464.8,488.7L463.2,488.9L456.7,493.7L454.8,491.6L451.9,491.5L448.8,496.8L444.9,498.6L447.0,503.1L446.2,505.4L440.7,513.0L441.4,514.0L444.4,518.1L450.1,518.2L451.9,518.9L455.9,523.7L459.0,524.7L470.5,529.9L474.6,552.3L475.6,554.0L482.5,558.6L483.9,561.0L482.8,563.6L477.5,570.1L478.8,574.3L478.9,578.4L477.2,583.1L478.7,584.8L483.2,588.0L484.5,590.9L484.4,598.5L483.1,600.3L481.8,600.4L481.0,602.6L483.2,613.9L495.5,617.6L501.6,617.7L503.5,618.5L505.3,621.4L505.0,624.8L502.5,631.7L507.0,635.2L511.3,634.7L516.1,626.6L514.9,621.8L515.1,619.1L516.1,616.8L517.9,615.3L520.3,614.9L522.8,615.9L530.3,621.6L534.5,622.8L545.1,622.8L547.0,622.2L549.3,620.4L552.0,615.1L553.6,612.5L558.0,609.9L560.2,610.0L562.0,611.5L563.1,615.2L564.3,616.8L570.6,620.5L574.2,626.9L575.7,627.3L579.4,624.6L584.3,621.7L586.9,620.9L589.9,620.9L599.9,622.5L602.8,623.4L604.1,625.3L604.8,628.1L607.8,635.7L610.1,639.1L612.0,639.8L614.8,638.5L616.2,638.6L619.8,644.3L621.5,642.5L621.7,640.5L620.5,635.3L620.5,633.0L621.9,629.2L624.5,626.3L627.6,624.1L630.8,622.7L633.8,622.1L640.5,622.1L643.2,621.2L644.9,619.4L646.8,615.1L648.6,613.4L652.8,612.8L657.3,613.6L660.2,614.9L661.8,616.6L664.9,621.6L669.3,625.9L670.9,628.1L672.0,631.7L671.6,635.3L672.6,636.8L677.1,640.0L682.0,648.1L684.7,649.2L690.5,645.6L692.9,645.0L697.9,646.5L700.1,646.5L704.4,638.7L709.6,637.7L712.1,634.3L714.1,632.7L721.0,632.0L723.0,633.0L728.2,639.0L738.2,640.4L741.0,639.0L742.4,636.3L748.0,636.5L754.1,633.8L756.4,633.2L771.5,632.9L774.8,633.6L778.1,635.3L784.7,641.0L790.5,643.2L792.9,645.1L793.9,648.5L794.3,654.1L798.3,657.5L801.6,659.0L804.9,659.0L811.2,663.4L814.5,663.7L821.1,666.9L822.7,659.7L822.6,657.7L825.6,655.8L828.2,653.3L826.8,649.4L828.2,648.9L826.4,646.7L824.0,641.9L820.5,640.7L819.7,637.4L822.9,636.3L822.8,635.3L819.2,633.2L816.9,628.5L815.4,627.8L817.2,625.0L811.5,623.4L810.1,622.1L811.9,620.3L808.4,617.5L808.2,616.5L812.2,613.8L812.0,608.1L812.8,605.2L811.8,603.3L817.6,602.5L817.8,597.9L818.8,596.9L815.5,594.9L820.4,590.9L818.9,587.5L819.6,585.6L823.1,580.5L825.2,579.5L825.4,576.2L829.4,576.2L832.3,573.4L830.9,570.6L833.8,569.7L840.8,562.5L841.7,563.3L844.5,563.1L845.1,561.3L843.7,559.5L840.5,559.2L840.4,554.2L841.8,552.7L844.4,552.0L859.0,551.4L863.2,551.8L866.0,552.9L871.6,556.2L874.3,557.0L876.7,556.2L879.2,551.1L880.9,548.9L888.9,546.2L898.8,546.2L918.2,549.0L930.4,548.5L929.9,544.5L928.9,541.8L927.1,539.8L921.1,536.9L918.2,532.8L918.1,530.8L919.5,527.9L917.6,527.1L913.7,526.6L907.6,523.4L903.7,519.7L906.7,515.7L906.5,511.4L903.0,507.2L902.3,503.7L902.2,499.7L901.4,496.3L896.6,492.3L899.0,490.6L898.4,488.3L902.5,489.1L904.1,487.4L897.9,483.4L896.2,481.7L892.0,476.2L886.2,471.2L891.2,465.9L893.1,463.3L891.9,457.5L890.5,454.8L885.9,451.5L882.9,446.4L876.9,445.3L873.0,443.5L869.3,441.1L866.4,438.3L862.2,431.6L860.0,429.0L850.9,423.9L852.9,422.0L857.0,415.5L860.6,414.7L861.4,413.8L861.0,410.9L860.3,409.5Z " data-id="BY.HO" data-name="Gomel" id="BY.HO"/>
utf-8utf-8<path d="M624.3,259.0L624.8,260.2L628.8,262.0L629.2,263.6L627.4,267.8L628.0,270.1L628.7,276.1L626.4,277.6L629.4,282.2L626.8,285.1L623.1,288.2L622.3,291.6L624.9,294.5L627.4,303.0L626.6,305.0L630.2,308.0L628.5,311.2L632.4,310.4L632.7,311.8L629.5,313.8L635.2,316.3L642.0,317.6L642.2,319.1L638.6,322.1L635.5,323.2L635.1,324.5L638.8,326.0L638.7,326.8L635.6,330.1L630.8,328.4L624.8,333.6L617.2,337.1L605.6,335.5L602.0,338.7L603.8,344.5L601.5,346.5L592.0,347.2L591.1,347.6L593.2,354.3L588.3,355.3L586.8,354.5L582.5,349.3L583.3,347.5L578.7,346.2L576.7,345.0L573.5,345.8L562.5,344.7L557.7,342.8L555.1,342.5L553.8,345.0L555.3,347.7L555.2,349.8L553.8,350.8L549.7,351.6L552.7,353.2L548.3,355.2L542.1,356.1L538.4,357.9L535.8,362.3L536.9,373.8L534.5,376.1L535.6,378.9L541.7,380.6L545.3,385.0L545.0,385.8L537.9,387.4L536.0,389.5L523.5,388.9L520.8,389.6L517.5,386.8L513.7,385.0L509.9,385.3L507.0,386.6L506.8,387.6L508.9,390.0L510.9,393.5L516.5,394.8L520.5,396.5L523.1,399.3L534.2,401.8L535.6,398.7L540.0,399.1L545.8,407.1L549.7,406.7L552.9,405.1L554.8,405.0L556.0,409.4L559.0,413.8L558.7,418.7L560.7,423.9L557.2,423.5L556.2,424.2L553.5,430.5L554.1,431.8L557.5,433.4L557.4,436.8L554.7,439.5L553.5,445.1L551.7,447.9L540.8,457.8L543.4,459.7L554.9,464.9L561.8,469.4L568.5,468.9L575.4,469.3L577.1,467.9L583.9,468.2L584.6,467.6L591.4,466.8L595.3,464.5L598.0,464.6L599.6,463.8L599.9,461.2L596.0,460.0L597.2,457.0L611.6,453.3L610.9,444.2L612.2,443.0L622.9,442.8L624.5,440.0L628.6,437.0L630.6,433.7L638.4,432.7L649.4,435.2L651.0,438.0L654.8,436.6L654.0,434.1L655.5,432.8L658.6,433.7L660.3,435.7L662.0,436.3L668.0,432.3L670.2,431.9L683.5,432.4L688.0,433.5L690.0,432.0L690.1,428.5L685.4,426.7L678.7,422.9L678.4,421.9L680.2,419.7L675.7,412.5L678.6,408.1L687.9,408.8L688.8,407.6L686.3,406.2L685.6,405.0L688.1,402.6L688.1,400.4L685.3,397.4L690.4,397.4L689.8,395.5L684.0,386.3L683.6,382.9L688.6,377.8L695.1,380.1L697.3,379.6L700.2,382.0L703.8,381.6L707.3,379.3L711.1,381.3L718.6,383.9L719.4,385.8L725.1,386.5L727.4,388.5L729.7,392.5L732.3,394.0L744.6,392.1L749.7,390.3L751.7,390.3L750.2,386.3L753.0,385.2L753.6,383.9L759.2,383.6L761.9,382.7L773.9,385.0L776.7,387.1L782.1,388.3L784.7,388.4L787.2,385.5L792.1,387.1L794.9,386.8L802.9,387.8L805.1,384.2L806.8,383.9L817.3,386.0L818.6,388.6L824.8,394.6L831.2,399.6L831.8,405.2L830.5,406.8L833.1,408.3L839.0,407.5L844.0,411.3L848.1,409.1L850.5,410.8L853.6,411.0L860.3,409.5L860.3,409.4L859.8,407.7L860.5,401.1L864.1,398.7L869.2,398.7L874.4,399.5L877.0,399.4L884.9,397.4L891.8,399.3L898.7,399.7L900.7,400.5L902.6,402.9L904.9,408.5L907.0,410.6L913.4,410.9L919.4,413.4L924.5,413.6L927.1,412.5L930.2,412.3L938.4,414.7L945.5,412.8L951.1,412.2L951.4,408.8L957.1,408.9L959.5,406.7L961.6,403.7L964.6,401.3L971.5,398.1L974.0,393.7L975.5,388.5L972.9,388.1L971.7,386.6L972.2,385.0L974.8,384.4L977.7,385.5L981.1,385.8L984.4,385.3L987.0,384.0L984.9,381.8L992.1,380.5L997.4,381.6L999.3,380.4L997.0,376.1L996.6,366.2L994.0,363.1L989.6,364.0L988.3,363.7L987.8,359.6L984.2,358.7L980.1,359.9L977.0,356.5L974.2,355.1L968.4,353.1L965.2,351.7L962.3,349.6L959.8,346.8L957.9,343.1L957.6,339.1L964.9,335.9L965.5,333.9L961.7,329.9L959.4,329.0L951.9,328.9L950.2,328.2L946.1,324.7L942.0,322.6L928.0,319.8L921.1,316.4L918.6,316.0L897.2,320.4L887.6,318.1L883.0,318.0L883.3,314.6L886.4,309.5L887.6,306.1L887.7,298.3L888.3,295.4L888.4,291.3L884.5,284.1L878.9,283.7L875.4,278.6L874.0,277.5L866.4,276.4L856.7,272.7L851.0,271.6L848.2,270.8L826.6,259.2L824.7,257.2L822.8,253.4L820.4,245.4L819.2,243.3L814.6,239.3L810.7,232.4L808.5,229.7L805.2,229.0L805.2,229.0L798.7,229.1L792.3,232.9L792.6,235.7L783.5,232.9L780.5,231.6L773.9,235.8L766.8,235.7L761.3,234.9L756.9,233.4L752.4,234.4L750.7,237.1L746.3,238.2L744.7,239.5L747.9,243.9L746.7,244.7L745.7,247.5L743.4,249.9L740.4,251.1L735.3,250.3L733.3,249.1L728.4,244.2L726.8,243.5L722.4,248.4L718.6,249.2L712.4,248.2L711.0,246.5L714.2,239.2L709.6,241.8L702.7,241.8L702.5,244.2L700.1,244.5L694.4,241.7L693.7,239.4L691.8,240.3L690.8,243.0L686.9,245.3L689.3,251.8L688.8,253.2L682.0,253.2L680.2,251.0L676.0,250.9L671.8,247.6L670.1,244.8L665.9,243.9L664.1,244.7L665.7,247.6L663.3,248.2L654.1,249.3L648.0,249.6L640.0,247.3L637.2,248.1L635.7,251.5L630.1,253.0L628.1,256.7L624.3,259.0Z " data-id="BY.MA" data-name="Mogilev" id="BY.MA"/>
utf-8utf-8<path d="M263.4,156.2L270.4,158.3L272.3,160.1L275.3,164.6L277.5,164.3L279.5,162.6L281.5,162.1L283.2,162.9L284.2,162.3L284.3,158.5L286.0,157.6L296.7,160.4L302.4,160.1L306.5,161.7L308.0,161.6L311.9,159.2L317.5,159.3L322.2,162.4L324.5,162.7L329.8,159.9L340.3,158.6L345.8,162.0L350.0,162.2L359.5,161.4L358.6,156.9L361.6,155.0L370.5,156.7L376.0,155.6L380.5,159.2L378.2,162.2L378.6,163.4L381.7,165.0L385.0,168.0L387.8,172.6L397.2,172.6L400.6,175.5L409.7,180.6L411.4,185.6L421.8,186.8L429.0,190.2L429.7,190.9L429.8,196.3L438.9,204.0L447.0,205.4L450.5,202.9L453.2,203.4L457.2,207.2L468.3,204.6L474.0,205.6L485.4,202.3L489.9,203.2L494.1,207.4L499.8,210.3L508.3,215.9L511.5,215.3L514.8,204.0L515.7,202.9L523.7,201.0L527.5,204.4L529.1,203.8L530.9,201.6L532.9,202.0L534.4,203.6L534.0,209.2L534.7,210.6L544.8,212.7L545.8,211.7L555.5,215.2L556.9,215.1L559.4,211.7L557.3,210.0L558.3,206.0L572.4,207.9L578.3,206.7L579.4,204.5L582.0,203.0L584.2,203.5L584.1,204.7L588.5,204.6L591.8,203.7L592.6,204.1L595.6,211.4L604.4,212.6L606.8,210.9L618.7,209.1L618.4,207.6L622.2,208.4L623.5,211.2L618.8,216.3L619.2,217.7L621.4,220.2L618.9,224.4L619.6,235.7L619.4,238.2L616.4,243.1L621.5,247.8L620.9,250.6L618.1,252.6L621.2,259.8L624.3,259.0L628.1,256.7L630.1,253.0L635.7,251.5L637.2,248.1L640.0,247.3L648.0,249.6L654.1,249.3L663.3,248.2L665.7,247.6L664.1,244.7L665.9,243.9L670.1,244.8L671.8,247.6L676.0,250.9L680.2,251.0L682.0,253.2L688.8,253.2L689.3,251.8L686.9,245.3L690.8,243.0L691.8,240.3L693.7,239.4L694.4,241.7L700.1,244.5L702.5,244.2L702.7,241.8L709.6,241.8L714.2,239.2L711.0,246.5L712.4,248.2L718.6,249.2L722.4,248.4L726.8,243.5L728.4,244.2L733.3,249.1L735.3,250.3L740.4,251.1L743.4,249.9L745.7,247.5L746.7,244.7L747.9,243.9L744.7,239.5L746.3,238.2L750.7,237.1L752.4,234.4L756.9,233.4L761.3,234.9L766.8,235.7L773.9,235.8L780.5,231.6L783.5,232.9L792.6,235.7L792.3,232.9L798.7,229.1L805.2,229.0L803.6,227.1L795.4,225.4L792.0,223.7L793.5,217.8L797.5,211.5L799.4,206.3L794.7,203.7L791.5,200.0L782.5,199.2L780.2,199.6L779.4,197.1L777.4,194.9L759.4,186.1L754.8,185.0L753.0,184.1L751.8,181.9L751.6,178.2L755.2,173.9L756.4,171.8L755.9,168.4L753.9,165.0L756.1,163.5L762.3,162.5L764.0,161.5L765.4,158.9L761.2,153.6L761.6,152.0L763.7,151.8L768.8,152.8L771.4,152.2L770.9,149.6L767.0,143.7L761.2,132.2L755.7,129.4L753.9,127.8L751.1,122.8L749.4,121.2L742.0,116.9L741.8,114.3L742.7,111.8L745.6,108.0L751.2,104.7L752.2,103.1L751.7,100.5L747.9,97.0L746.6,94.6L746.7,92.3L749.2,90.8L747.2,88.2L748.3,83.4L746.6,78.4L743.0,74.6L738.7,73.1L734.4,74.3L731.2,75.8L728.1,75.4L724.2,71.0L719.9,67.1L715.7,67.3L710.9,65.9L709.2,64.0L709.3,60.4L708.5,58.8L706.4,57.2L696.4,54.0L695.0,52.8L695.1,49.4L694.1,48.7L672.4,43.7L666.2,40.4L664.3,40.0L662.0,40.9L658.0,44.2L655.4,44.9L642.4,41.5L638.1,41.3L634.1,42.0L630.4,43.7L628.3,46.1L625.4,51.6L622.9,52.6L615.4,51.3L612.7,51.7L603.2,56.1L596.5,63.2L593.8,63.7L591.5,62.9L585.5,57.5L579.6,54.3L577.9,52.3L576.6,49.5L576.7,47.4L578.3,42.9L578.4,37.1L579.0,36.0L584.0,33.5L583.5,32.4L577.9,28.0L575.8,27.2L559.1,23.9L550.1,19.4L543.8,17.9L537.8,17.8L532.9,19.2L521.2,24.1L518.8,26.2L519.2,29.3L517.0,29.8L508.6,28.1L505.6,26.4L503.9,23.7L500.0,16.0L495.7,12.2L490.6,8.6L484.5,7.9L469.3,9.1L467.1,10.4L464.4,14.3L462.2,15.3L459.9,14.8L453.7,9.9L445.4,4.2L442.8,1.9L438.5,0.0L430.1,3.6L425.9,5.2L420.5,6.3L419.1,7.6L416.8,12.4L410.5,16.4L407.6,18.8L407.8,22.0L405.2,26.4L395.7,31.3L393.9,37.3L394.4,43.6L393.5,48.6L390.6,48.8L377.3,48.0L373.7,47.2L370.2,45.8L367.1,43.6L361.1,48.9L359.2,49.5L356.1,48.4L348.8,44.3L346.4,43.4L342.1,42.9L326.5,45.3L321.4,50.7L316.9,58.6L315.1,60.4L307.3,63.5L304.9,63.6L299.1,62.0L296.2,61.8L293.9,62.8L292.1,65.6L293.7,68.8L294.7,72.4L295.1,76.0L294.6,78.9L289.2,85.9L289.3,89.1L291.7,91.9L291.7,93.5L288.4,96.2L284.3,109.9L286.8,112.1L293.4,113.8L295.2,113.9L301.3,112.7L319.1,114.9L321.7,116.2L323.1,118.5L322.3,120.7L320.0,122.1L313.5,123.4L312.0,124.1L307.5,129.4L307.0,137.1L305.7,139.0L303.4,139.3L291.7,135.7L290.2,135.8L286.5,138.0L274.5,135.8L269.9,136.4L267.2,140.3L267.7,147.9L264.9,154.1L263.4,156.2Z " data-id="BY.VI" data-name="Vitebsk" id="BY.VI"/>
utf-8utf-8<path d="M281.5,162.1L279.5,162.6L277.5,164.3L275.3,164.6L272.3,160.1L270.4,158.3L263.4,156.2L262.0,158.2L260.6,159.5L257.1,161.1L244.6,163.0L236.8,162.3L231.9,164.3L231.3,167.9L229.4,169.8L225.4,172.8L224.7,175.4L226.7,180.4L226.4,181.5L222.2,183.7L221.2,186.7L223.4,203.3L226.8,208.1L227.8,210.7L227.7,213.4L224.8,217.1L218.8,219.9L217.5,221.5L216.8,224.3L217.5,233.2L216.1,236.2L211.9,240.5L210.4,243.4L210.9,246.8L212.6,248.6L215.0,249.2L219.5,249.0L227.0,246.2L229.9,249.3L231.4,251.7L237.3,255.1L240.3,258.3L238.9,260.8L239.8,266.9L239.3,269.1L226.0,272.9L216.4,271.7L213.4,270.7L210.7,268.9L209.5,266.5L210.2,265.6L213.1,264.8L212.9,262.6L210.2,261.6L210.2,260.2L212.2,259.3L215.5,259.0L206.8,251.3L204.0,249.8L201.5,250.8L198.0,255.5L195.6,256.7L187.0,257.1L180.0,255.3L178.1,255.5L177.1,257.3L175.9,263.6L174.6,266.5L170.9,270.1L166.6,272.3L162.0,272.9L153.2,270.5L148.3,270.0L140.0,272.0L140.2,275.3L136.8,277.7L137.6,279.7L142.5,287.5L141.8,293.6L140.1,294.3L133.3,295.2L131.4,295.1L129.6,293.9L127.8,291.3L126.6,291.1L124.3,292.5L117.7,293.5L112.7,295.9L101.8,304.1L98.2,305.5L94.4,305.5L90.9,304.7L85.3,304.6L83.9,303.3L81.5,299.4L78.1,296.7L74.6,295.8L71.2,296.3L65.1,298.9L62.0,299.6L55.2,299.6L46.8,297.5L39.2,301.0L31.4,301.5L24.9,302.2L19.9,303.9L16.4,303.5L6.2,299.2L2.4,298.4L3.1,302.4L8.2,312.2L10.3,319.4L11.8,322.2L14.8,325.1L16.3,333.4L20.2,342.9L32.4,364.0L38.6,371.9L41.4,376.2L47.6,389.0L50.0,392.9L52.2,394.9L56.3,400.9L61.8,405.2L62.0,408.5L59.6,414.0L59.8,416.6L61.1,418.9L64.8,422.1L66.3,424.1L66.8,427.7L68.2,431.5L67.5,437.8L69.0,440.3L72.3,456.8L74.2,456.5L88.6,457.4L96.7,453.2L99.6,455.6L106.6,457.0L112.8,455.6L115.4,457.8L119.9,456.2L122.4,456.5L131.7,461.1L134.4,461.5L140.1,460.5L140.9,458.6L140.2,456.5L138.3,453.7L140.0,449.8L142.1,448.5L141.6,446.2L140.1,444.2L143.9,440.6L147.8,438.4L147.7,436.9L143.1,434.1L148.0,431.8L150.4,431.3L157.4,433.9L163.3,435.0L167.9,434.8L170.0,431.5L172.4,430.3L177.4,431.8L179.3,433.7L181.2,439.4L185.9,440.9L187.9,440.9L190.8,437.6L192.2,438.7L191.4,444.2L192.6,448.0L197.0,447.6L201.1,446.3L207.7,446.0L211.6,444.3L214.0,444.7L217.9,447.5L220.5,447.7L222.2,446.1L219.5,439.7L217.7,438.5L217.3,435.3L218.6,434.5L225.2,434.7L228.8,432.4L233.6,425.1L238.8,422.5L241.3,415.5L243.9,410.5L244.5,407.5L243.9,406.0L240.5,403.3L238.3,403.0L238.0,400.8L242.9,397.1L242.6,395.6L239.6,393.9L238.7,392.7L239.0,390.4L240.4,388.8L244.9,386.9L245.3,380.8L247.7,376.7L250.9,372.5L258.9,372.1L262.6,373.2L271.0,374.7L286.2,375.7L290.7,375.1L296.5,376.2L305.7,376.6L314.3,378.0L322.3,376.3L340.9,371.4L338.2,365.8L335.4,357.4L333.0,357.7L331.4,355.2L332.7,350.8L328.2,345.2L326.2,340.9L320.6,338.3L313.6,336.8L309.4,329.8L305.7,329.4L302.9,328.2L300.8,326.2L300.4,320.8L304.6,319.7L305.3,318.3L304.5,316.9L296.8,314.6L294.4,312.5L294.8,307.7L296.7,306.8L304.7,304.7L307.2,302.5L308.7,298.3L309.8,297.4L313.5,296.7L314.3,294.7L314.3,291.7L313.2,289.7L306.9,289.6L305.2,287.9L303.3,283.6L288.7,285.6L285.4,283.0L284.2,280.1L284.0,272.7L280.5,271.2L277.6,274.0L274.5,273.0L273.3,268.0L274.4,264.1L275.5,263.3L280.2,263.1L285.7,259.0L294.1,259.3L305.6,257.6L311.3,252.5L313.8,247.7L319.4,230.8L321.1,229.7L322.1,227.0L318.3,216.5L321.8,218.2L326.9,211.9L325.8,209.9L325.3,206.2L324.4,204.6L322.0,205.6L316.4,204.3L308.7,193.8L307.2,188.7L305.0,188.0L296.8,180.9L293.4,178.5L289.5,177.8L286.8,176.4L284.0,173.7L282.1,167.4L280.4,165.5L282.5,163.6L283.2,162.9L281.5,162.1Z " data-id="BY.HR" data-name="Grodno" id="BY.HR"/>
utf-8utf-8<path d="M621.2,259.8L618.1,252.6L620.9,250.6L621.5,247.8L616.4,243.1L619.4,238.2L619.6,235.7L618.9,224.4L621.4,220.2L619.2,217.7L618.8,216.3L623.5,211.2L622.2,208.4L618.4,207.6L618.7,209.1L606.8,210.9L604.4,212.6L595.6,211.4L592.6,204.1L591.8,203.7L588.5,204.6L584.1,204.7L584.2,203.5L582.0,203.0L579.4,204.5L578.3,206.7L572.4,207.9L558.3,206.0L557.3,210.0L559.4,211.7L556.9,215.1L555.5,215.2L545.8,211.7L544.8,212.7L534.7,210.6L534.0,209.2L534.4,203.6L532.9,202.0L530.9,201.6L529.1,203.8L527.5,204.4L523.7,201.0L515.7,202.9L514.8,204.0L511.5,215.3L508.3,215.9L499.8,210.3L494.1,207.4L489.9,203.2L485.4,202.3L474.0,205.6L468.3,204.6L457.2,207.2L453.2,203.4L450.5,202.9L447.0,205.4L438.9,204.0L429.8,196.3L429.7,190.9L429.0,190.2L421.8,186.8L411.4,185.6L409.7,180.6L400.6,175.5L397.2,172.6L387.8,172.6L385.0,168.0L381.7,165.0L378.6,163.4L378.2,162.2L380.5,159.2L376.0,155.6L370.5,156.7L361.6,155.0L358.6,156.9L359.5,161.4L350.0,162.2L345.8,162.0L340.3,158.6L329.8,159.9L324.5,162.7L322.2,162.4L317.5,159.3L311.9,159.2L308.0,161.6L306.5,161.7L302.4,160.1L296.7,160.4L286.0,157.6L284.3,158.5L284.2,162.3L283.2,162.9L282.5,163.6L280.4,165.5L282.1,167.4L284.0,173.7L286.8,176.4L289.5,177.8L293.4,178.5L296.8,180.9L305.0,188.0L307.2,188.7L308.7,193.8L316.4,204.3L322.0,205.6L324.4,204.6L325.3,206.2L325.8,209.9L326.9,211.9L321.8,218.2L318.3,216.5L322.1,227.0L321.1,229.7L319.4,230.8L313.8,247.7L311.3,252.5L305.6,257.6L294.1,259.3L285.7,259.0L280.2,263.1L275.5,263.3L274.4,264.1L273.3,268.0L274.5,273.0L277.6,274.0L280.5,271.2L284.0,272.7L284.2,280.1L285.4,283.0L288.7,285.6L303.3,283.6L305.2,287.9L306.9,289.6L313.2,289.7L314.3,291.7L314.3,294.7L313.5,296.7L309.8,297.4L308.7,298.3L307.2,302.5L304.7,304.7L296.7,306.8L294.8,307.7L294.4,312.5L296.8,314.6L304.5,316.9L305.3,318.3L304.6,319.7L300.4,320.8L300.8,326.2L302.9,328.2L305.7,329.4L309.4,329.8L313.6,336.8L320.6,338.3L326.2,340.9L328.2,345.2L332.7,350.8L331.4,355.2L333.0,357.7L335.4,357.4L338.2,365.8L340.9,371.4L322.3,376.3L322.2,377.4L322.8,382.5L326.4,387.4L326.8,389.8L324.6,392.1L320.3,392.2L317.8,393.8L314.6,399.2L314.5,400.7L318.7,402.5L320.5,402.2L324.8,406.6L325.3,408.3L337.2,410.6L341.3,413.8L344.2,418.8L342.3,419.3L336.5,419.0L334.6,419.9L330.4,426.6L330.6,428.7L339.6,441.9L337.2,443.5L342.0,449.6L346.1,446.6L349.7,446.6L350.9,442.1L354.5,441.4L361.7,444.0L363.2,447.2L364.6,448.6L370.8,448.1L372.9,449.0L376.2,452.9L380.8,456.7L392.0,459.4L399.0,460.7L401.4,458.8L405.1,460.6L410.1,469.3L415.7,470.8L421.4,470.8L425.9,475.5L426.1,476.8L424.8,479.1L412.1,479.6L410.9,483.7L413.3,485.2L411.9,488.8L419.6,495.1L425.0,498.3L425.8,502.9L424.2,504.6L425.8,506.4L440.7,513.0L446.2,505.4L447.0,503.1L444.9,498.6L448.8,496.8L451.9,491.5L454.8,491.6L456.7,493.7L463.2,488.9L464.8,488.7L469.8,490.0L471.2,489.4L472.5,490.9L472.8,494.1L474.4,497.7L478.4,499.9L485.6,502.5L494.0,502.3L497.6,502.9L509.4,502.0L513.2,499.9L513.3,498.5L510.9,494.1L511.3,492.7L514.0,491.4L523.4,493.0L524.7,493.4L527.7,497.0L530.9,498.5L552.8,496.6L558.9,489.6L557.6,485.5L556.3,478.3L556.7,475.3L560.9,472.3L560.1,471.2L561.4,469.6L561.8,469.4L554.9,464.9L543.4,459.7L540.8,457.8L551.7,447.9L553.5,445.1L554.7,439.5L557.4,436.8L557.5,433.4L554.1,431.8L553.5,430.5L556.2,424.2L557.2,423.5L560.7,423.9L558.7,418.7L559.0,413.8L556.0,409.4L554.8,405.0L552.9,405.1L549.7,406.7L545.8,407.1L540.0,399.1L535.6,398.7L534.2,401.8L523.1,399.3L520.5,396.5L516.5,394.8L510.9,393.5L508.9,390.0L506.8,387.6L507.0,386.6L509.9,385.3L513.7,385.0L517.5,386.8L520.8,389.6L523.5,388.9L536.0,389.5L537.9,387.4L545.0,385.8L545.3,385.0L541.7,380.6L535.6,378.9L534.5,376.1L536.9,373.8L535.8,362.3L538.4,357.9L542.1,356.1L548.3,355.2L552.7,353.2L549.7,351.6L553.8,350.8L555.2,349.8L555.3,347.7L553.8,345.0L555.1,342.5L557.7,342.8L562.5,344.7L573.5,345.8L576.7,345.0L578.7,346.2L583.3,347.5L582.5,349.3L586.8,354.5L588.3,355.3L593.2,354.3L591.1,347.6L592.0,347.2L601.5,346.5L603.8,344.5L602.0,338.7L605.6,335.5L617.2,337.1L624.8,333.6L630.8,328.4L635.6,330.1L638.7,326.8L638.8,326.0L635.1,324.5L635.5,323.2L638.6,322.1L642.2,319.1L642.0,317.6L635.2,316.3L629.5,313.8L632.7,311.8L632.4,310.4L628.5,311.2L630.2,308.0L626.6,305.0L627.4,303.0L624.9,294.5L622.3,291.6L623.1,288.2L626.8,285.1L629.4,282.2L626.4,277.6L628.7,276.1L628.0,270.1L627.4,267.8L629.2,263.6L628.8,262.0L624.8,260.2L624.3,259.0L621.2,259.8Z M462.3,287.9L463.4,292.7L460.7,295.4L458.5,299.5L458.6,302.8L460.7,307.2L464.5,309.3L466.2,312.7L463.8,316.0L459.4,316.7L454.3,316.4L451.5,315.7L440.6,316.7L438.1,319.4L435.6,318.8L433.3,316.0L429.1,315.0L422.9,313.0L418.5,312.3L416.6,308.6L415.9,304.5L415.8,295.1L417.4,290.7L420.6,289.0L427.0,287.9L438.1,289.3L447.3,291.7L450.0,291.7L454.0,290.7L459.3,287.3L462.3,287.9Z " data-id="BY.MI" data-name="Minsk" id="BY.MI"/>
utf-8utf-8<path d="M462.3,287.9L459.3,287.3L454.0,290.7L450.0,291.7L447.3,291.7L438.1,289.3L427.0,287.9L420.6,289.0L417.4,290.7L415.8,295.1L415.9,304.5L416.6,308.6L418.5,312.3L422.9,313.0L429.1,315.0L433.3,316.0L435.6,318.8L438.1,319.4L440.6,316.7L451.5,315.7L454.3,316.4L459.4,316.7L463.8,316.0L466.2,312.7L464.5,309.3L460.7,307.2L458.6,302.8L458.5,299.5L460.7,295.4L463.4,292.7L462.3,287.9Z " data-id="BY.HM" data-name="City of Minsk" id="BY.HM"/>
utf-8</g>
</svg>
