<?xml version="1.0" ?>
<!DOCTYPE svg
  PUBLIC '-//W3C//DTD SVG 1.1//EN'
  'http://www.w3.org/Graphics/SVG/1.1/DTD/svg11.dtd'>
<svg enable_background="new 0 0 1000 2010" height="2010px" pretty_print="True" style="stroke-linejoin: round; stroke:#000; fill: none;" version="1.1" viewBox="0 0 1000 2010" width="1000px" xmlns="http://www.w3.org/2000/svg" xmlns:xlink="http://www.w3.org/1999/xlink">
utf-8<defs>
utf-8utf-8<style type="text/css">
<![CDATA[path { fill-rule: evenodd; }]]>utf-8utf-8</style>
utf-8</defs>
utf-8<metadata>
utf-8utf-8<views>
utf-8utf-8utf-8<view h="2010.66498857" padding="0" w="1000">
utf-8utf-8utf-8utf-8<proj flip="auto" id="robinson" lon0="-88.4341983513"/>
utf-8utf-8utf-8utf-8<bbox h="43.79" w="21.79" x="-1306.95" y="-310.07"/>
utf-8utf-8utf-8</view>
utf-8utf-8</views>
utf-8</metadata>
utf-8<g class="" id="provinces">
utf-8utf-8<path d="M925.9,759.3L914.8,748.8L905.3,744.4L900.4,747.7L899.8,752.2L901.6,754.4L903.3,758.2L906.5,763.6L912.0,766.5L917.4,765.7L917.9,769.1L916.9,785.1L917.3,791.5L921.9,792.1L925.5,785.1L926.3,780.5L928.6,777.0L930.9,769.4L925.9,759.3Z M1000.0,919.5L997.3,921.9L1000.0,925.3L1000.0,919.5Z M952.8,721.4L951.3,680.4L947.0,661.7L938.9,653.1L942.2,695.7L945.8,713.9L948.3,721.4L952.8,721.4Z M903.1,630.0L925.0,622.3L942.6,606.9L951.8,581.9L943.5,585.8L902.0,614.4L887.0,621.5L882.8,626.1L881.5,628.5L881.1,632.1L903.1,630.0Z M909.4,408.3L831.9,398.8L678.0,440.9L639.8,463.1L633.9,476.5L631.6,483.1L629.9,490.9L629.6,496.5L630.7,506.8L630.7,511.4L629.3,521.4L622.6,541.7L621.4,549.4L621.3,566.6L620.9,571.0L616.6,589.3L616.3,594.7L618.3,604.7L618.7,608.7L617.7,613.7L614.2,617.2L608.3,619.9L601.3,622.1L580.3,632.2L571.0,645.2L559.0,672.3L556.8,686.1L551.3,797.5L568.0,790.2L573.0,782.6L578.2,772.9L584.2,769.9L586.1,774.4L586.4,785.0L574.3,938.3L570.0,966.6L570.4,970.6L576.4,982.6L580.2,997.3L579.8,1005.8L578.8,1012.9L574.3,1022.0L572.8,1027.5L569.5,1035.8L567.5,1039.8L564.4,1042.4L561.4,1047.3L560.3,1051.1L557.4,1055.8L551.8,1060.4L536.0,1066.4L714.2,1062.8L720.7,1060.5L724.5,1058.3L738.9,1052.5L748.9,1042.4L748.9,1042.3L749.0,1040.8L748.2,1026.1L745.4,1009.9L751.4,979.7L754.1,963.6L770.1,885.5L810.4,783.7L813.6,771.8L822.2,764.8L839.0,767.6L856.3,767.8L866.2,752.9L860.7,746.6L833.3,741.1L827.7,734.8L824.1,723.1L801.9,709.7L794.9,700.4L794.3,682.0L799.4,665.5L808.1,651.4L828.4,628.6L835.3,615.7L859.6,552.1L875.7,488.2L874.1,468.3L909.4,408.3Z " data-id="BZ.BZ" data-name="Belize" id="BZ.BZ"/>
utf-8utf-8<path d="M551.8,1060.4L557.4,1055.8L560.3,1051.1L561.4,1047.3L564.4,1042.4L567.5,1039.8L569.5,1035.8L572.8,1027.5L574.3,1022.0L578.8,1012.9L579.8,1005.8L580.2,997.3L576.4,982.6L570.4,970.6L570.0,966.6L574.3,938.3L586.4,785.0L586.1,774.4L584.2,769.9L578.2,772.9L573.0,782.6L568.0,790.2L551.3,797.5L542.3,794.2L537.0,795.6L522.5,803.0L514.5,804.5L502.5,809.1L480.9,823.6L468.4,828.3L452.9,830.5L435.0,829.7L425.2,830.7L418.3,830.2L402.4,831.0L390.6,830.0L380.8,828.2L376.1,829.9L370.5,835.9L365.7,842.1L358.1,847.5L348.4,850.9L269.3,860.6L264.1,859.2L259.1,856.9L251.6,857.3L241.7,861.1L211.4,881.5L188.9,899.8L163.0,1118.9L127.4,1318.3L89.3,1534.6L74.0,1614.0L82.8,1601.5L87.3,1596.2L91.1,1592.4L96.3,1586.2L98.7,1582.8L100.1,1579.8L101.7,1574.3L107.6,1566.9L110.9,1564.7L135.8,1554.0L144.7,1553.2L152.4,1550.8L163.9,1549.4L168.6,1547.0L174.2,1542.8L189.7,1528.1L194.7,1522.6L196.5,1521.5L199.5,1522.7L207.3,1531.8L209.4,1533.2L212.3,1533.2L216.1,1532.3L243.8,1521.2L246.8,1518.9L246.7,1512.5L247.1,1509.9L250.8,1504.9L254.0,1502.0L258.1,1499.1L266.2,1495.3L270.3,1494.4L273.4,1494.9L277.7,1493.7L284.2,1489.7L303.9,1474.5L309.0,1471.7L314.6,1470.0L317.7,1468.5L329.7,1459.4L345.0,1444.1L347.9,1436.1L347.9,1432.0L346.5,1419.1L347.4,1415.9L349.6,1412.2L358.1,1402.1L364.6,1395.9L370.1,1392.9L381.5,1392.2L380.5,1382.3L380.8,1379.2L386.5,1364.0L395.3,1349.4L400.6,1337.9L422.9,1306.5L426.6,1302.9L430.5,1300.3L444.0,1295.3L456.2,1293.2L459.1,1292.3L461.4,1290.3L462.0,1287.9L459.8,1284.7L451.8,1277.8L451.6,1274.9L453.0,1272.5L457.4,1268.4L464.1,1265.2L466.7,1263.1L468.7,1260.6L470.3,1257.3L471.4,1253.4L471.4,1243.8L472.1,1239.8L475.0,1229.4L475.6,1224.9L475.3,1221.7L475.8,1218.3L477.4,1214.5L500.5,1190.1L506.2,1181.2L509.9,1177.8L518.4,1171.6L523.3,1165.1L528.7,1156.3L534.1,1144.0L542.9,1128.4L545.6,1125.0L549.7,1122.1L553.2,1118.6L554.2,1112.1L550.3,1106.8L542.1,1097.9L534.6,1080.4L532.8,1074.0L536.0,1066.4L551.8,1060.4Z " data-id="BZ.CY" data-name="Cayo" id="BZ.CY"/>
utf-8utf-8<path d="M637.8,187.5L644.4,189.1L684.4,209.7L712.0,234.4L751.4,307.2L831.9,398.8L909.4,408.3L909.4,408.3L922.0,399.6L956.0,328.9L959.7,316.9L971.4,298.5L975.1,286.4L989.4,215.9L995.4,124.9L993.8,120.7L987.1,122.0L979.9,125.3L973.9,129.6L967.7,138.7L961.5,141.4L956.9,139.6L958.2,131.2L961.6,127.9L977.8,120.7L992.5,109.5L997.1,102.4L999.8,91.6L996.6,88.7L988.6,89.9L964.4,97.7L942.2,113.1L927.7,115.5L919.3,112.4L901.2,102.0L886.5,99.7L875.2,101.9L864.0,107.4L839.5,125.0L826.5,138.9L820.0,143.5L814.8,143.9L813.3,140.4L817.9,133.6L835.9,112.3L843.7,100.4L848.8,89.2L814.8,105.1L805.4,104.5L799.2,92.4L805.5,81.4L862.6,40.4L878.1,21.5L868.1,10.0L864.7,6.5L823.2,6.9L817.9,8.5L813.7,10.9L809.7,11.6L805.0,8.2L799.5,1.4L796.1,0.0L791.5,1.4L783.7,5.4L769.6,10.7L763.6,11.6L757.0,9.4L751.3,5.6L744.7,4.8L721.7,22.5L715.9,28.2L711.3,36.5L704.8,59.7L696.4,78.2L691.2,97.7L687.8,106.6L677.7,121.0L653.7,147.1L645.6,159.5L641.4,172.6L638.8,184.8L637.8,187.5Z " data-id="BZ.CZ" data-name="Corozal" id="BZ.CZ"/>
utf-8utf-8<path d="M751.4,307.2L712.0,234.4L684.4,209.7L644.4,189.1L637.8,187.5L634.7,196.4L626.5,208.0L617.7,214.7L596.9,225.0L575.8,240.5L578.0,242.8L578.9,253.5L575.6,262.1L555.1,292.9L552.3,300.5L548.0,317.9L544.9,326.2L536.9,337.6L528.0,344.2L518.1,350.1L507.0,359.2L503.0,366.2L489.6,396.3L482.3,404.4L444.5,432.7L440.8,438.2L435.6,455.2L430.8,461.4L424.6,463.3L399.9,446.0L392.2,438.8L385.8,417.1L379.6,415.6L371.8,417.3L363.9,416.4L353.9,406.9L345.4,394.6L335.8,383.6L322.1,378.1L263.6,400.4L246.5,422.8L237.6,453.3L229.7,520.3L211.7,686.6L188.9,899.8L211.4,881.5L241.7,861.1L251.6,857.3L259.1,856.9L264.1,859.2L269.3,860.6L348.4,850.9L358.1,847.5L365.7,842.1L370.5,835.9L376.1,829.9L380.8,828.2L390.6,830.0L402.4,831.0L418.3,830.2L425.2,830.7L435.0,829.7L452.9,830.5L468.4,828.3L480.9,823.6L502.5,809.1L514.5,804.5L522.5,803.0L537.0,795.6L542.3,794.2L551.3,797.5L556.8,686.1L559.0,672.3L571.0,645.2L580.3,632.2L601.3,622.1L608.3,619.9L614.2,617.2L617.7,613.7L618.7,608.7L618.3,604.7L616.3,594.7L616.6,589.3L620.9,571.0L621.3,566.6L621.4,549.4L622.6,541.7L629.3,521.4L630.7,511.4L630.7,506.8L629.6,496.5L629.9,490.9L631.6,483.1L633.9,476.5L639.8,463.1L678.0,440.9L831.9,398.8L751.4,307.2Z " data-id="BZ.OW" data-name="Orange Walk" id="BZ.OW"/>
utf-8utf-8<path d="M621.3,1529.1L623.6,1519.9L629.6,1512.1L637.3,1506.8L637.9,1502.1L630.8,1502.4L627.4,1501.5L626.0,1498.3L625.4,1491.6L631.2,1494.5L635.3,1495.2L638.9,1494.1L643.8,1491.6L635.0,1486.6L630.7,1485.8L647.5,1467.0L671.6,1416.6L690.5,1406.6L685.2,1414.3L672.4,1427.5L641.0,1514.9L641.6,1526.9L646.2,1526.4L651.8,1519.6L655.4,1512.5L653.2,1493.2L657.1,1479.6L661.9,1470.0L673.3,1438.6L681.2,1428.8L687.9,1422.2L693.0,1413.8L705.7,1359.3L705.8,1351.8L704.1,1339.6L704.5,1330.4L707.0,1322.4L710.9,1317.2L714.7,1313.4L716.6,1309.7L718.8,1302.7L722.8,1298.0L732.2,1290.5L735.1,1290.0L743.8,1291.3L746.3,1290.5L747.5,1286.1L746.2,1282.6L744.1,1280.6L742.9,1280.5L741.9,1267.2L731.5,1244.5L730.3,1230.4L735.0,1218.0L744.3,1204.7L754.9,1193.0L763.2,1185.5L770.1,1182.9L776.0,1183.0L780.4,1181.0L783.1,1172.1L781.4,1153.4L782.6,1129.0L781.5,1112.3L777.7,1097.4L771.0,1085.7L757.3,1080.4L751.5,1076.4L750.0,1066.8L748.6,1049.1L748.9,1042.4L738.9,1052.5L724.5,1058.3L720.7,1060.5L714.2,1062.8L536.0,1066.4L532.8,1074.0L534.6,1080.4L542.1,1097.9L550.3,1106.8L554.2,1112.1L553.2,1118.6L549.7,1122.1L545.6,1125.0L542.9,1128.4L534.1,1144.0L528.7,1156.3L523.3,1165.1L518.4,1171.6L509.9,1177.8L506.2,1181.2L500.5,1190.1L477.4,1214.5L475.8,1218.3L475.3,1221.7L475.6,1224.9L475.0,1229.4L472.1,1239.8L471.4,1243.8L471.4,1253.4L470.3,1257.3L468.7,1260.6L466.7,1263.1L464.1,1265.2L457.4,1268.4L453.0,1272.5L451.6,1274.9L451.8,1277.8L459.8,1284.7L462.0,1287.9L461.4,1290.3L459.1,1292.3L456.2,1293.2L444.0,1295.3L430.5,1300.3L426.6,1302.9L422.9,1306.5L400.6,1337.9L395.3,1349.4L386.5,1364.0L380.8,1379.2L380.5,1382.3L381.5,1392.2L401.8,1385.2L452.3,1383.8L467.2,1385.9L476.8,1388.4L498.5,1402.7L501.4,1406.1L503.0,1409.6L504.2,1416.1L505.6,1419.4L504.7,1425.7L501.3,1432.7L501.1,1436.6L503.6,1440.9L510.6,1450.8L516.6,1463.8L521.1,1476.0L521.9,1479.8L519.6,1490.1L516.1,1508.6L512.8,1513.5L511.3,1516.8L515.1,1518.7L541.8,1522.9L548.0,1522.1L574.3,1524.0L577.2,1523.6L584.1,1523.9L590.7,1525.0L604.8,1522.5L611.5,1523.1L614.2,1523.8L615.3,1529.7L622.6,1533.2L621.3,1529.1Z " data-id="BZ.SC" data-name="Stann Creek" id="BZ.SC"/>
utf-8utf-8<path d="M381.5,1392.2L370.1,1392.9L364.6,1395.9L358.1,1402.1L349.6,1412.2L347.4,1415.9L346.5,1419.1L347.9,1432.0L347.9,1436.1L345.0,1444.1L329.7,1459.4L317.7,1468.5L314.6,1470.0L309.0,1471.7L303.9,1474.5L284.2,1489.7L277.7,1493.7L273.4,1494.9L270.3,1494.4L266.2,1495.3L258.1,1499.1L254.0,1502.0L250.8,1504.9L247.1,1509.9L246.7,1512.5L246.8,1518.9L243.8,1521.2L216.1,1532.3L212.3,1533.2L209.4,1533.2L207.3,1531.8L199.5,1522.7L196.5,1521.5L194.7,1522.6L189.7,1528.1L174.2,1542.8L168.6,1547.0L163.9,1549.4L152.4,1550.8L144.7,1553.2L135.8,1554.0L110.9,1564.7L107.6,1566.9L101.7,1574.3L100.1,1579.8L98.7,1582.8L96.3,1586.2L91.1,1592.4L87.3,1596.2L82.8,1601.5L74.0,1614.0L45.0,1772.9L7.2,1950.7L0.2,1997.7L4.7,2007.8L6.4,2005.3L13.2,2001.7L21.4,1998.8L27.5,1998.4L40.5,1992.8L91.6,1995.5L111.2,1991.8L132.7,1991.7L190.2,2008.7L217.0,1997.7L221.5,1979.6L211.1,1947.6L215.7,1928.5L224.5,1918.0L236.9,1907.8L249.3,1900.0L267.5,1894.3L270.2,1887.7L270.6,1879.2L273.2,1870.7L276.7,1865.9L280.5,1862.0L288.8,1854.9L295.7,1850.8L301.8,1848.3L306.4,1844.4L310.9,1831.0L314.9,1825.0L319.4,1820.2L323.0,1818.2L335.0,1815.8L345.3,1808.6L353.0,1797.0L357.4,1780.9L359.4,1751.1L363.6,1739.0L373.6,1734.1L382.8,1732.8L387.9,1729.6L391.5,1726.0L395.7,1723.1L418.8,1719.6L423.9,1717.9L426.4,1712.7L427.7,1699.2L428.8,1696.4L437.1,1694.4L442.7,1694.9L444.8,1699.3L447.8,1709.1L456.3,1715.6L466.1,1713.1L472.6,1696.4L477.2,1696.4L473.5,1728.4L478.1,1716.1L479.9,1713.1L483.2,1711.2L491.5,1709.2L494.7,1707.4L496.6,1706.9L501.9,1707.9L503.9,1707.4L504.5,1705.2L504.4,1698.6L505.1,1696.4L507.4,1692.7L511.4,1682.6L513.9,1678.5L534.6,1652.9L540.2,1649.6L543.3,1645.9L554.6,1622.8L560.3,1615.5L564.9,1612.4L564.8,1613.7L566.9,1615.0L570.4,1615.0L574.6,1612.4L574.7,1608.6L578.1,1590.4L579.9,1586.1L593.3,1579.7L610.6,1549.3L624.4,1538.8L622.6,1533.3L622.6,1533.2L615.3,1529.7L614.2,1523.8L611.5,1523.1L604.8,1522.5L590.7,1525.0L584.1,1523.9L577.2,1523.6L574.3,1524.0L548.0,1522.1L541.8,1522.9L515.1,1518.7L511.3,1516.8L512.8,1513.5L516.1,1508.6L519.6,1490.1L521.9,1479.8L521.1,1476.0L516.6,1463.8L510.6,1450.8L503.6,1440.9L501.1,1436.6L501.3,1432.7L504.7,1425.7L505.6,1419.4L504.2,1416.1L503.0,1409.6L501.4,1406.1L498.5,1402.7L476.8,1388.4L467.2,1385.9L452.3,1383.8L401.8,1385.2L381.5,1392.2Z " data-id="BZ.TO" data-name="Toledo" id="BZ.TO"/>
utf-8</g>
</svg>
