<?xml version="1.0" ?>
<!DOCTYPE svg
  PUBLIC '-//W3C//DTD SVG 1.1//EN'
  'http://www.w3.org/Graphics/SVG/1.1/DTD/svg11.dtd'>
<svg enable_background="new 0 0 1000 483" height="483px" pretty_print="True" style="stroke-linejoin: round; stroke:#000; fill: none;" version="1.1" viewBox="0 0 1000 483" width="1000px" xmlns="http://www.w3.org/2000/svg" xmlns:xlink="http://www.w3.org/1999/xlink">
utf-8<defs>
utf-8utf-8<style type="text/css">
<![CDATA[path { fill-rule: evenodd; }]]>utf-8utf-8</style>
utf-8</defs>
utf-8<metadata>
utf-8utf-8<views>
utf-8utf-8utf-8<view h="483.530140308" padding="0" w="1000">
utf-8utf-8utf-8utf-8<proj flip="auto" id="robinson" lon0="-97.221096426"/>
utf-8utf-8utf-8utf-8<bbox h="465.01" w="963.69" x="-1663.07" y="-1168.32"/>
utf-8utf-8utf-8</view>
utf-8utf-8</views>
utf-8</metadata>
utf-8<g class="" id="provinces">
utf-8utf-8<path d="M601.2,231.7L592.0,229.7L587.0,226.5L579.8,225.0L569.0,227.5L560.5,229.6L561.8,228.7L559.1,228.7L555.0,230.5L561.5,225.7L563.9,220.9L563.5,220.5L564.2,215.9L565.9,211.9L566.6,204.9L567.9,200.8L556.6,200.8L554.0,203.1L551.7,206.6L551.0,206.4L554.8,200.9L551.4,198.4L554.1,192.9L556.1,191.1L557.8,186.7L559.8,184.7L562.0,181.3L561.9,181.1L556.4,181.1L479.2,181.1L473.7,181.1L472.4,182.9L461.7,197.4L448.6,215.7L442.1,224.9L425.7,248.6L403.0,287.3L401.0,290.8L376.3,337.2L371.0,348.1L364.4,362.0L364.8,362.0L419.9,362.0L444.4,362.0L450.3,356.6L450.8,355.6L461.8,335.0L470.9,318.4L482.7,297.8L511.7,282.5L562.6,253.0L582.6,242.1L601.9,231.7L601.2,231.7Z " data-id="CA.MB" data-name="Manitoba" id="CA.MB"/>
utf-8utf-8<path d="M473.7,181.1L467.6,181.1L424.7,181.1L418.6,181.1L381.9,181.1L375.7,181.1L371.4,186.6L341.4,225.3L337.2,230.8L308.4,270.1L304.5,275.8L277.4,315.6L262.7,338.7L248.6,362.0L249.9,362.0L328.4,362.0L329.5,362.0L361.9,362.0L364.4,362.0L371.0,348.1L376.3,337.2L401.0,290.8L403.0,287.3L425.7,248.6L442.1,224.9L448.6,215.7L461.7,197.4L472.4,182.9L473.7,181.1Z " data-id="CA.SK" data-name="Saskatchewan" id="CA.SK"/>
utf-8utf-8<path d="M368.1,181.1L314.5,181.1L306.8,181.1L260.9,181.1L253.2,181.1L252.1,182.4L240.3,196.0L214.6,226.7L199.2,245.5L171.8,280.6L172.2,283.2L169.5,288.5L173.5,289.0L173.1,291.6L175.3,292.6L177.3,290.9L177.7,296.9L179.4,296.5L179.2,300.2L177.7,302.8L177.8,304.9L180.7,303.4L182.8,305.6L180.6,307.9L182.0,309.3L186.1,309.0L186.7,313.1L185.8,316.1L190.3,317.7L191.1,320.4L190.1,322.8L191.4,326.0L193.6,327.6L194.5,329.8L193.8,330.9L195.4,335.2L198.2,335.2L198.0,341.5L197.5,343.8L194.3,349.4L192.5,351.2L191.7,354.4L192.3,358.0L194.2,362.0L196.9,362.0L211.6,362.0L214.6,362.0L247.0,362.0L248.6,362.0L262.7,338.7L277.4,315.6L304.5,275.8L308.4,270.1L337.2,230.8L341.4,225.3L371.4,186.6L375.7,181.1L368.1,181.1Z " data-id="CA.AB" data-name="Alberta" id="CA.AB"/>
utf-8utf-8<path d="M64.9,371.7L64.8,371.6L64.7,371.6L64.9,371.7Z M66.1,368.0L66.3,368.6L66.4,368.5L66.1,368.0Z M66.5,366.3L66.2,366.6L66.3,366.7L66.5,366.3Z M68.5,365.8L67.7,365.9L68.3,366.3L68.5,365.8Z M43.2,364.7L43.3,364.4L43.1,364.4L43.2,364.7Z M69.2,364.0L68.3,364.4L68.3,364.7L69.2,364.0Z M42.2,364.1L42.2,363.9L41.9,364.2L42.2,364.1Z M43.1,363.4L43.4,363.3L43.2,363.3L43.1,363.4Z M43.1,363.2L42.8,363.3L43.0,363.3L43.1,363.2Z M43.6,363.0L43.3,362.9L43.2,363.1L43.6,363.0Z M66.5,363.7L64.4,366.2L67.0,365.7L66.5,363.7Z M45.3,363.6L46.2,362.6L44.9,363.5L45.3,363.6Z M65.5,362.2L65.1,362.8L65.2,363.0L65.5,362.2Z M65.5,361.6L65.1,361.7L65.0,361.9L65.5,361.6Z M68.7,364.1L66.2,361.5L66.7,362.9L68.7,364.1Z M36.5,359.3L36.8,358.3L35.9,359.2L36.5,359.3Z M38.5,359.4L38.8,357.9L38.1,358.1L38.5,359.4Z M36.6,357.2L37.2,355.4L35.6,355.4L36.6,357.2Z M73.2,356.2L74.8,354.8L72.9,355.7L73.2,356.2Z M62.4,353.2L62.2,353.0L61.7,353.8L62.4,353.2Z M75.6,353.6L75.7,352.7L74.4,353.1L75.6,353.6Z M59.0,352.9L57.9,353.5L58.6,353.0L59.0,352.9Z M57.3,353.7L57.0,352.1L56.1,352.7L57.3,353.7Z M35.2,350.8L35.3,350.4L34.0,351.1L35.2,350.8Z M69.6,348.7L66.3,349.9L67.3,350.4L69.6,348.7Z M64.4,350.3L64.3,353.1L65.0,352.5L64.4,350.3Z M61.8,347.6L62.5,347.2L62.5,347.0L61.8,347.6Z M34.2,347.4L30.9,348.2L29.7,349.4L32.5,351.8L34.2,347.4Z M29.1,345.0L29.4,344.4L29.1,344.3L29.1,345.0Z M59.7,344.6L61.5,343.3L61.9,341.2L59.6,343.2L59.7,344.6Z M57.0,344.9L59.1,340.0L56.5,342.6L57.0,344.9Z M64.0,341.4L63.8,339.9L62.4,341.6L64.0,341.4Z M66.3,339.8L64.4,340.9L64.6,341.3L66.3,339.8Z M61.1,338.4L60.4,337.6L59.1,339.1L61.1,338.4Z M53.5,338.0L54.1,337.0L51.9,337.5L53.5,338.0Z M45.1,335.0L44.1,335.0L44.2,335.7L45.1,335.0Z M49.3,335.6L47.9,335.2L44.6,335.8L49.3,335.6Z M48.0,334.8L45.9,334.6L45.6,334.8L48.0,334.8Z M40.0,333.8L42.2,334.3L41.9,333.8L40.0,333.8Z M20.7,331.8L21.3,331.5L20.4,331.7L20.7,331.8Z M52.2,332.5L51.9,331.0L47.7,332.5L45.6,333.7L50.2,333.8L52.2,332.5Z M47.6,330.9L43.6,331.2L45.2,331.9L47.6,330.9Z M34.5,330.4L34.4,331.0L34.7,330.6L34.5,330.4Z M31.3,330.4L27.0,330.8L22.8,332.5L22.7,336.1L24.1,336.9L30.1,336.0L30.5,335.1L33.8,335.2L31.0,336.7L25.5,337.4L23.8,339.0L24.8,340.7L21.9,343.1L26.6,341.9L29.9,343.4L32.9,342.8L29.1,345.4L29.9,347.3L35.9,346.7L35.2,348.1L35.9,350.5L38.7,351.0L34.0,351.7L31.3,354.9L33.6,354.7L34.5,355.7L35.9,354.7L38.6,354.3L37.4,356.0L37.8,357.8L41.3,355.9L39.3,359.4L37.2,360.7L40.4,363.3L43.6,361.8L47.9,362.1L49.3,361.6L53.0,357.7L49.9,361.5L46.1,367.9L55.5,372.6L62.5,371.3L64.3,371.6L65.1,368.2L63.2,368.5L63.0,366.1L64.7,364.9L63.8,362.1L64.7,360.7L63.6,359.4L64.0,357.8L62.3,357.5L56.6,354.0L55.9,354.1L57.5,349.6L56.0,345.5L56.9,340.0L55.6,338.7L53.5,339.0L46.7,336.8L43.6,336.9L41.9,335.7L34.6,333.2L31.3,330.4Z M46.0,330.6L45.7,330.0L44.6,330.7L46.0,330.6Z M33.9,330.9L32.2,330.0L32.0,330.2L33.9,330.9Z M38.1,327.3L37.6,326.8L37.4,326.9L38.1,327.3Z M38.9,320.2L40.0,316.1L37.2,317.7L36.4,320.5L38.9,320.2Z M37.4,312.7L38.0,311.8L37.0,312.2L37.4,312.7Z M45.1,310.4L40.9,311.9L39.0,313.7L40.1,314.4L38.9,315.7L41.0,315.1L45.1,310.4Z M5.8,309.7L4.4,309.6L3.2,312.0L5.8,309.7Z M47.8,308.6L45.6,308.7L45.5,310.1L47.8,308.6Z M41.3,311.2L42.7,310.3L44.3,308.4L41.3,311.2Z M48.3,306.5L45.2,308.3L47.7,308.1L48.3,306.5Z M55.5,307.2L59.2,304.2L53.7,306.4L50.4,307.3L44.8,312.0L48.0,311.4L48.8,310.3L55.5,307.2Z M41.2,303.5L38.5,306.4L39.2,306.7L41.2,303.5Z M44.8,301.5L41.8,301.8L40.0,302.8L42.8,304.3L44.8,301.5Z M33.8,300.7L34.4,300.0L34.1,300.1L33.8,300.7Z M5.6,299.5L6.9,300.9L7.6,299.3L5.6,299.5Z M6.6,298.9L5.0,298.7L5.1,299.0L6.6,298.9Z M43.9,305.2L46.4,303.5L48.6,299.9L43.9,305.2Z M39.3,299.7L38.8,298.4L36.7,299.4L37.0,302.9L38.6,302.7L39.7,301.0L39.3,299.7Z M48.6,301.2L52.2,297.7L49.9,298.5L48.6,301.2Z M6.0,297.5L4.8,297.5L4.7,297.7L6.0,297.5Z M48.2,298.4L48.8,297.1L46.9,298.7L48.2,298.4Z M9.8,296.9L9.1,297.0L9.2,297.2L9.8,296.9Z M0.0,295.0L0.4,295.4L0.2,294.7L0.0,295.0Z M36.6,295.0L35.6,295.0L35.3,295.6L36.6,295.0Z M36.0,293.8L36.4,294.4L37.2,293.9L36.0,293.8Z M40.3,292.6L39.4,291.8L39.3,295.3L40.3,292.6Z M0.0,298.9L0.8,298.9L0.7,301.9L3.3,304.7L2.0,305.1L2.7,309.3L3.9,309.4L7.1,306.9L5.4,304.6L3.9,305.0L4.7,303.4L4.2,299.6L6.1,298.1L4.4,298.1L4.9,296.8L7.5,296.8L9.7,294.9L6.3,294.6L5.6,293.8L11.0,293.0L10.9,290.6L6.2,292.2L0.0,292.4L0.7,295.6L0.0,298.9Z M50.9,292.3L47.8,289.7L41.4,294.8L43.6,295.4L39.8,299.3L41.8,300.3L46.3,296.2L41.9,301.4L44.1,301.3L49.8,295.2L50.9,292.3Z M43.5,293.1L45.7,289.7L41.5,292.3L43.5,293.1Z M29.7,287.0L29.3,286.6L29.2,286.9L29.7,287.0Z M49.6,289.1L50.7,286.1L46.8,288.9L46.6,289.6L49.6,289.1Z M35.5,285.4L32.7,284.5L32.0,288.3L33.5,288.8L33.5,290.4L36.0,292.2L37.2,291.3L37.6,287.7L35.5,285.4Z M53.3,285.1L55.5,283.0L50.8,284.1L46.9,288.5L49.9,286.3L53.3,285.1Z M37.6,284.9L38.6,283.4L37.8,281.6L34.8,283.5L34.9,284.4L37.6,284.9Z M35.8,281.7L34.0,281.3L33.7,281.7L35.8,281.7Z M43.0,283.8L41.4,280.3L38.4,281.0L39.7,286.0L38.6,287.0L39.8,289.6L39.3,291.2L43.1,290.5L44.3,288.9L43.0,283.8Z M2.6,279.3L2.1,279.4L2.0,279.7L2.6,279.3Z M41.2,278.1L40.3,276.7L35.4,278.9L39.9,278.4L36.0,280.9L37.6,281.0L41.2,278.1Z M0.0,290.6L5.0,291.1L8.2,290.7L14.1,284.6L17.5,281.7L20.6,279.7L16.8,277.6L14.8,281.0L11.0,284.0L7.3,284.7L6.6,283.2L11.9,282.2L15.4,280.3L16.6,278.2L16.3,276.5L8.6,275.6L6.0,276.6L2.3,280.1L1.3,282.0L2.3,283.3L0.0,286.2L2.9,288.8L0.0,290.6Z M43.3,276.4L43.0,275.8L42.9,276.3L43.3,276.4Z M8.5,275.2L8.4,274.1L7.8,274.7L8.5,275.2Z M43.0,274.3L43.3,272.9L42.5,273.4L43.0,274.3Z M44.8,273.8L43.9,273.5L44.0,274.2L44.8,273.8Z M41.0,271.6L39.7,272.1L39.5,272.4L41.0,271.6Z M38.7,268.7L39.4,268.1L38.9,268.0L38.7,268.7Z M43.2,268.2L39.4,269.5L38.2,270.9L43.2,268.2Z M48.5,266.4L47.0,265.8L46.9,265.9L48.5,266.4Z M49.8,265.7L55.8,262.4L56.3,261.4L49.8,265.7Z M253.2,181.1L247.4,181.1L229.8,181.1L224.0,181.1L212.3,181.1L206.5,181.1L200.6,181.1L19.9,181.1L19.8,181.1L19.8,181.2L22.2,182.5L21.5,185.1L25.4,193.3L22.5,198.6L25.5,197.3L33.5,194.7L36.4,194.6L40.3,192.5L43.0,189.7L60.5,184.5L61.7,186.3L59.3,190.4L59.0,192.8L61.3,193.3L62.2,195.5L61.2,199.6L64.8,206.7L63.8,207.2L63.6,211.2L62.9,212.6L61.3,226.1L58.2,228.0L61.3,228.9L57.9,231.6L59.9,232.7L57.8,236.0L61.3,236.5L64.1,238.9L67.5,240.0L67.7,241.3L69.4,241.9L68.8,243.6L72.5,244.2L71.6,246.7L67.6,249.2L62.5,257.5L57.2,260.5L56.8,262.0L64.3,257.3L68.7,252.4L67.6,255.7L58.5,261.6L60.3,262.0L56.7,262.7L52.3,266.5L49.6,267.0L48.4,270.2L48.1,268.5L43.2,272.5L45.5,272.6L43.6,274.9L47.5,275.6L47.5,278.0L44.3,277.0L42.3,279.9L45.2,288.5L49.4,284.4L56.2,280.2L56.1,281.2L62.9,277.9L54.6,284.7L54.9,286.3L61.6,287.2L61.0,290.7L59.6,287.4L56.6,287.7L54.3,287.2L54.2,285.7L51.6,285.7L49.9,290.6L51.2,291.1L50.3,298.1L54.1,296.1L52.2,298.8L45.7,304.8L42.6,306.5L43.4,306.9L50.3,302.5L53.1,301.8L48.9,304.0L48.2,305.7L50.7,305.3L48.8,307.7L59.2,303.8L60.8,302.3L67.0,298.6L67.1,299.6L62.5,301.8L59.5,305.0L60.8,305.9L65.3,305.3L61.8,306.4L62.0,310.7L61.2,311.7L60.5,307.9L61.0,307.0L55.3,307.7L51.7,309.1L44.3,313.3L43.1,314.4L40.7,319.4L42.3,320.2L46.4,317.3L48.6,317.2L38.4,322.6L45.0,323.0L37.0,324.3L36.4,325.4L39.1,326.6L37.8,327.9L39.2,329.6L42.5,331.0L44.8,329.7L49.2,330.0L49.5,331.2L53.6,330.6L54.3,331.9L51.1,333.3L57.4,333.0L63.1,327.9L60.4,330.9L60.3,331.8L49.6,334.9L48.5,336.5L52.1,337.0L55.4,336.2L54.8,337.5L57.7,336.0L61.9,333.0L57.1,337.2L60.2,336.1L62.6,337.6L69.0,332.2L68.9,331.4L72.1,330.2L67.2,335.6L63.8,337.1L61.8,339.5L65.1,339.6L68.7,338.2L63.0,345.0L63.2,348.4L65.5,349.1L69.1,348.2L72.1,345.4L75.9,343.5L72.5,345.9L71.1,351.0L69.7,353.3L69.6,349.3L67.4,351.2L68.0,353.8L71.4,355.3L75.4,352.4L77.5,351.9L75.2,356.1L77.6,356.7L81.1,354.7L78.8,356.8L74.2,357.2L73.1,362.0L76.0,360.5L77.7,362.0L193.9,362.0L194.2,362.0L192.3,358.0L191.7,354.4L192.5,351.2L194.3,349.4L197.5,343.8L198.0,341.5L198.2,335.2L195.4,335.2L193.8,330.9L194.5,329.8L193.6,327.6L191.4,326.0L190.1,322.8L191.1,320.4L190.3,317.7L185.8,316.1L186.7,313.1L186.1,309.0L182.0,309.3L180.6,307.9L182.8,305.6L180.7,303.4L177.8,304.9L177.7,302.8L179.2,300.2L179.4,296.5L177.7,296.9L177.3,290.9L175.3,292.6L173.1,291.6L173.5,289.0L169.5,288.5L172.2,283.2L171.8,280.6L199.2,245.5L214.6,226.7L240.3,196.0L252.1,182.4L253.2,181.1Z " data-id="CA.BC" data-name="British Columbia" id="CA.BC"/>
utf-8utf-8<path d="M683.1,317.4L683.3,317.3L683.3,317.1L683.1,317.4Z M682.3,315.3L681.9,315.3L681.1,315.6L682.3,315.3Z M682.9,312.1L682.3,312.2L683.1,312.4L682.9,312.1Z M684.0,311.6L684.2,311.3L683.7,311.5L684.0,311.6Z M684.1,310.2L678.1,311.7L678.1,312.5L684.1,310.2Z M688.0,310.2L688.1,309.6L688.0,309.7L688.0,310.2Z M682.4,307.5L683.5,307.1L683.0,307.1L682.4,307.5Z M689.1,302.4L689.0,302.2L688.7,302.6L689.1,302.4Z M696.3,295.3L696.1,295.2L695.5,295.5L696.3,295.3Z M685.1,293.3L685.0,292.1L683.6,292.8L685.1,293.3Z M665.1,291.1L657.7,292.5L655.1,294.5L656.1,295.3L663.7,297.5L666.3,299.0L670.2,299.8L671.2,295.7L668.8,291.5L665.1,291.1Z M697.2,289.9L696.5,290.1L697.0,290.0L697.2,289.9Z M685.5,288.8L684.2,288.8L683.8,290.3L685.5,288.8Z M698.3,288.0L697.7,288.1L698.0,288.2L698.3,288.0Z M697.0,287.3L696.9,287.5L697.1,287.4L697.0,287.3Z M698.9,282.8L698.9,282.6L698.7,282.8L698.9,282.8Z M691.0,279.9L690.7,279.4L690.5,279.3L691.0,279.9Z M698.9,275.4L697.9,275.6L697.9,275.7L698.9,275.4Z M699.6,274.4L699.4,274.3L699.0,274.4L699.6,274.4Z M700.2,274.1L699.9,274.1L699.7,274.2L700.2,274.1Z M678.8,272.9L679.1,272.3L679.0,272.2L678.8,272.9Z M699.6,271.6L699.4,271.5L699.4,271.6L699.6,271.6Z M707.0,263.7L704.4,263.7L700.4,264.9L707.0,263.7Z M733.1,254.8L739.2,251.4L737.6,252.1L733.1,254.8Z M720.4,245.1L719.5,245.7L717.5,248.3L720.4,245.1Z M749.7,243.7L749.6,242.9L749.2,243.6L749.7,243.7Z M750.4,242.3L750.5,241.6L750.1,241.8L750.4,242.3Z M735.1,240.7L734.1,240.8L734.3,241.0L735.1,240.7Z M737.2,240.5L735.9,240.5L735.4,240.9L737.2,240.5Z M739.0,239.8L738.8,239.6L738.8,239.7L739.0,239.8Z M742.2,239.3L742.9,238.5L742.0,239.0L742.2,239.3Z M727.2,239.8L726.7,238.5L722.4,242.8L727.2,239.8Z M714.9,239.6L712.3,239.3L709.6,240.4L708.0,241.8L709.2,242.3L714.9,239.6Z M736.2,236.3L736.2,236.3L736.1,236.4L736.2,236.3Z M728.7,234.9L727.8,234.6L727.6,234.6L728.7,234.9Z M723.5,234.9L721.3,236.1L716.6,242.0L714.8,242.6L718.7,237.8L715.2,241.2L711.9,243.0L706.0,247.2L706.8,248.4L713.4,243.8L714.8,243.9L710.8,247.3L715.2,245.9L718.0,243.2L723.5,239.2L716.0,247.8L724.4,238.6L721.7,236.6L723.5,234.9Z M733.3,234.1L733.1,234.2L734.1,234.3L733.3,234.1Z M756.2,233.3L755.8,233.8L756.3,233.8L756.2,233.3Z M715.3,233.3L716.8,232.1L716.9,231.8L715.3,233.3Z M718.2,230.3L716.9,232.5L718.1,231.7L718.2,230.3Z M757.4,230.0L757.6,229.5L757.4,229.6L757.4,230.0Z M757.6,229.4L758.2,229.1L758.3,228.6L757.6,229.4Z M758.6,228.3L759.2,227.2L759.2,226.2L758.6,228.3Z M759.2,225.7L759.2,225.0L758.8,225.5L759.2,225.7Z M738.9,224.7L739.2,224.0L737.8,224.7L738.9,224.7Z M738.5,223.6L738.4,223.2L737.9,223.7L738.5,223.6Z M759.7,221.1L760.2,220.4L760.0,219.9L759.7,221.1Z M724.7,220.4L723.5,220.1L722.4,222.4L724.7,220.4Z M728.5,214.8L728.3,214.7L728.3,214.9L728.5,214.8Z M756.9,210.1L755.8,209.6L756.4,209.9L756.9,210.1Z M756.2,209.2L754.9,208.2L753.4,207.9L756.2,209.2Z M752.2,207.1L751.4,207.0L751.9,207.1L752.2,207.1Z M719.3,206.4L718.9,206.4L718.6,206.5L719.3,206.4Z M751.5,206.3L751.0,205.8L750.9,206.0L751.5,206.3Z M748.0,203.0L746.9,203.2L749.0,204.5L748.0,203.0Z M750.3,200.0L749.9,200.0L749.4,200.3L750.3,200.0Z M746.1,200.1L746.1,199.2L745.8,199.9L746.1,200.1Z M751.1,198.0L751.2,197.8L750.9,197.9L751.1,198.0Z M727.3,196.3L727.2,196.0L727.0,196.3L727.3,196.3Z M731.4,192.7L731.0,193.1L731.2,193.0L731.4,192.7Z M734.3,191.1L734.6,190.4L734.3,190.8L734.3,191.1Z M732.3,189.8L731.3,189.9L731.7,190.0L732.3,189.8Z M730.0,189.7L730.7,189.4L730.9,189.2L730.0,189.7Z M735.5,188.1L735.5,188.0L735.2,188.1L735.5,188.1Z M733.2,186.7L734.0,186.2L734.1,186.0L733.2,186.7Z M735.5,186.1L735.6,185.8L735.2,186.0L735.5,186.1Z M769.9,185.7L769.1,185.7L769.2,186.0L769.9,185.7Z M773.8,183.6L773.7,183.5L773.6,183.6L773.8,183.6Z M743.8,182.9L743.8,182.8L743.6,182.9L743.8,182.9Z M743.2,182.6L743.5,182.3L743.1,182.6L743.2,182.6Z M744.3,182.2L744.6,181.8L744.1,182.1L744.3,182.2Z M774.0,178.0L773.9,177.9L773.0,177.9L774.0,178.0Z M774.6,176.9L774.6,177.1L774.8,176.9L774.6,176.9Z M935.2,176.1L935.5,175.7L935.9,175.4L936.7,175.2L936.7,175.2L933.0,173.4L934.5,175.6L935.2,176.1Z M893.9,171.8L891.9,171.8L886.9,177.0L893.1,176.3L893.9,171.8Z M935.7,171.5L936.4,170.6L935.4,171.4L935.7,171.5Z M775.7,169.3L775.8,169.2L775.4,169.3L775.7,169.3Z M941.8,155.5L943.0,154.8L934.4,154.9L933.5,155.5L938.6,158.9L938.9,160.0L941.7,158.1L941.8,155.5Z M931.5,152.2L929.3,152.7L932.0,153.5L931.5,152.2Z M604.4,150.7L602.1,151.0L603.8,152.0L604.4,150.7Z M940.9,150.7L938.4,152.4L941.7,153.7L940.9,150.7Z M772.3,143.6L771.3,143.0L766.7,143.5L760.7,147.4L757.7,153.1L760.9,156.1L765.1,153.3L770.2,149.3L773.2,145.6L772.3,143.6Z M617.1,143.4L615.0,143.3L615.6,143.6L617.1,143.4Z M950.0,141.2L946.4,143.0L949.8,143.8L952.5,142.6L950.0,141.2Z M794.5,140.2L793.4,140.8L793.9,141.1L794.5,140.2Z M947.9,140.9L946.5,140.2L945.6,140.8L947.9,140.9Z M636.7,138.9L634.1,139.0L635.3,139.2L636.7,138.9Z M835.1,138.2L832.6,138.3L833.6,139.1L838.0,140.1L839.6,139.0L835.1,138.2Z M879.8,136.4L875.2,135.7L875.8,137.1L877.8,138.3L878.2,140.7L882.2,141.3L884.3,139.3L883.2,139.1L879.8,136.4Z M932.8,136.3L930.8,135.0L930.6,135.3L932.8,136.3Z M746.1,134.4L744.6,134.0L742.0,135.1L738.3,134.9L734.4,136.3L726.7,137.8L726.6,138.3L720.0,141.9L719.0,143.4L720.0,144.7L719.3,147.3L723.3,145.8L725.8,146.0L726.1,146.8L732.0,144.7L740.1,140.4L746.0,138.2L748.4,134.8L746.1,134.4Z M928.5,134.8L927.6,132.9L927.3,134.3L928.5,134.8Z M918.8,128.9L918.1,127.6L918.3,129.4L918.8,128.9Z M650.2,127.0L649.0,126.2L649.1,127.1L650.2,127.0Z M795.1,126.3L792.7,127.9L796.8,132.4L802.3,131.1L803.7,129.9L803.0,127.2L795.1,126.9L795.1,126.3Z M647.1,125.4L648.4,126.2L650.2,125.7L647.1,125.4Z M962.3,127.9L961.3,128.9L962.9,129.6L962.3,127.9Z M811.6,123.6L809.4,123.1L811.1,127.4L816.6,126.8L815.4,126.4L812.2,123.3L811.6,123.6Z M964.7,122.2L965.8,120.9L964.5,120.9L964.7,122.2Z M961.3,120.1L959.7,121.8L962.4,123.3L962.7,121.8L961.3,120.1Z M810.3,118.2L805.5,118.3L804.7,118.9L807.6,119.4L810.3,118.2Z M862.7,114.8L861.2,115.8L861.7,116.2L862.7,114.8Z M823.6,114.3L822.6,114.4L823.0,115.1L823.6,114.3Z M861.9,111.0L862.4,109.8L860.3,110.4L858.8,113.5L861.9,111.0Z M960.1,107.5L958.9,107.1L954.1,110.1L960.3,108.8L960.1,107.5Z M945.8,98.3L945.6,97.8L944.9,98.3L945.8,98.3Z M689.5,96.9L690.0,97.2L690.3,96.8L689.5,96.9Z M943.5,92.1L940.6,92.1L940.2,92.2L943.5,92.1Z M944.9,90.8L945.2,91.2L946.2,91.1L944.9,90.8Z M761.3,90.2L758.1,90.0L758.0,90.3L761.3,90.2Z M735.4,91.0L736.7,89.1L729.8,91.5L723.3,97.3L718.3,104.4L713.2,108.5L709.3,114.9L709.7,116.6L699.3,119.6L693.8,122.6L695.7,125.2L699.6,123.7L704.4,123.9L710.5,122.6L711.6,122.0L707.0,130.2L707.9,132.1L714.6,130.9L720.1,129.1L727.1,124.2L728.2,124.2L737.1,121.2L737.9,118.3L741.1,116.6L744.7,116.6L746.8,115.6L747.3,116.7L744.2,118.5L744.5,119.1L751.1,118.9L752.0,120.7L749.5,121.6L751.1,123.3L753.7,123.2L757.5,124.9L764.3,126.9L770.8,124.0L773.0,122.7L775.4,122.5L777.0,121.3L775.3,120.8L772.5,116.9L770.4,117.7L764.4,117.9L759.1,118.4L758.3,117.9L763.3,116.6L763.5,113.5L765.4,110.8L761.3,106.8L756.5,106.0L753.0,103.9L752.9,102.0L748.8,100.4L745.4,99.9L744.7,98.7L746.1,97.9L742.4,95.8L737.8,99.3L735.9,99.9L737.9,94.1L738.6,93.2L735.4,91.0Z M951.1,88.0L949.4,87.8L949.1,88.6L951.1,88.0Z M743.1,87.8L740.4,88.7L741.8,94.7L744.4,92.5L744.7,90.4L743.1,87.8Z M743.3,87.2L743.8,86.7L743.1,86.7L743.3,87.2Z M760.3,87.1L760.0,86.9L759.6,87.3L760.3,87.1Z M751.9,86.1L750.7,85.8L750.2,87.7L752.3,89.3L750.6,91.5L757.8,93.7L760.1,92.0L755.2,90.8L757.4,89.1L755.4,86.9L751.9,86.1Z M767.8,83.3L766.6,82.7L765.6,83.9L767.8,83.3Z M737.2,81.3L737.6,80.9L736.7,81.1L737.2,81.3Z M490.9,74.9L493.7,72.6L493.2,72.9L490.9,74.9Z M499.5,71.6L498.7,69.7L498.0,70.4L499.5,71.6Z M498.1,66.8L498.4,65.8L495.3,66.9L498.1,66.8Z M494.4,64.6L492.9,65.2L494.7,65.5L494.4,64.6Z M1000.0,64.5L999.3,63.8L997.5,64.4L1000.0,64.5Z M499.8,64.5L499.1,62.9L498.2,63.7L499.8,64.5Z M490.3,60.8L489.0,61.4L490.1,61.2L490.3,60.8Z M434.1,59.6L432.9,59.7L435.4,59.9L434.1,59.6Z M444.5,58.9L442.5,59.3L440.4,59.3L444.5,58.9Z M502.8,59.4L502.5,58.5L501.4,59.0L502.8,59.4Z M491.6,58.2L493.0,59.9L492.5,58.6L491.6,58.2Z M607.8,56.9L606.2,57.2L606.3,58.1L607.8,56.9Z M453.4,55.8L452.7,55.3L451.6,55.8L453.4,55.8Z M886.1,56.8L886.0,55.4L884.4,56.7L881.9,56.7L879.6,58.2L879.9,60.1L881.9,61.2L893.4,61.2L894.8,58.4L886.1,56.8Z M978.0,54.4L977.7,54.0L973.0,54.9L976.5,55.6L978.0,54.4Z M748.2,58.9L749.8,53.7L748.4,53.5L741.2,60.0L743.0,62.0L746.8,60.3L748.2,58.9Z M466.7,54.6L469.8,53.5L469.6,53.3L466.7,54.6Z M873.5,53.3L865.8,53.0L856.8,56.3L850.3,60.4L848.0,62.6L847.5,69.2L851.3,69.5L865.4,67.5L869.2,66.4L872.2,64.6L875.0,60.7L875.4,58.3L878.3,56.1L878.0,54.7L873.5,53.3Z M833.8,55.3L836.3,52.7L833.8,52.9L833.8,55.3Z M597.9,53.7L597.8,53.0L596.7,53.2L597.9,53.7Z M888.9,54.3L890.3,52.0L889.3,51.0L888.0,51.7L888.9,54.3Z M481.4,50.7L480.8,49.8L478.0,50.4L481.4,50.7Z M483.4,49.5L482.2,50.2L484.3,49.8L483.4,49.5Z M549.5,52.0L551.5,50.7L551.0,49.8L546.7,49.4L546.0,51.2L549.5,52.0Z M448.6,49.1L448.1,48.9L447.0,48.8L448.6,49.1Z M843.1,48.6L838.1,50.2L839.6,51.3L843.5,49.7L843.1,48.6Z M888.0,49.6L884.4,48.7L884.7,49.6L888.0,49.6Z M445.9,48.7L445.2,47.8L445.0,47.9L445.9,48.7Z M883.6,49.8L881.5,47.3L878.0,49.8L878.6,51.3L882.5,51.8L883.6,49.8Z M958.8,46.0L963.3,47.5L965.8,47.3L958.8,46.0Z M585.4,46.3L583.1,45.8L579.6,47.4L578.9,48.5L585.0,48.0L585.4,46.3Z M446.1,45.1L446.4,44.8L445.5,44.7L446.1,45.1Z M605.3,44.3L602.2,42.7L598.1,46.8L599.9,47.4L602.6,46.6L605.3,44.3Z M607.2,44.0L608.3,41.1L605.7,43.7L607.2,44.0Z M718.1,41.4L717.9,41.3L718.5,42.5L718.1,41.4Z M717.3,37.9L715.0,39.2L717.1,39.8L717.3,37.9Z M852.2,37.5L848.5,38.4L843.5,41.7L840.8,42.0L836.8,44.5L837.3,45.6L844.7,43.7L850.3,40.0L854.0,38.8L852.2,37.5Z M816.4,36.9L813.9,37.9L816.2,37.6L816.4,36.9Z M722.1,37.4L717.9,38.4L718.6,39.7L722.1,37.4Z M868.1,37.1L865.0,37.1L862.6,39.9L867.0,40.5L871.2,38.7L871.8,37.0L868.1,37.1Z M601.3,35.2L600.2,37.5L603.4,36.3L601.3,35.2Z M652.4,35.0L654.5,37.9L657.3,36.4L657.1,35.1L652.4,35.0Z M977.4,35.1L975.5,34.4L973.4,35.9L977.4,35.1Z M663.7,34.3L660.8,34.6L657.7,37.3L661.9,38.4L665.9,35.6L663.7,34.3Z M972.4,32.8L966.6,34.6L972.4,34.2L972.4,32.8Z M593.2,33.4L593.6,32.5L592.7,32.6L593.2,33.4Z M860.5,33.2L858.8,32.2L852.8,34.1L848.9,35.8L852.5,36.1L860.5,33.2Z M843.1,31.2L840.2,32.3L833.5,32.5L830.9,32.2L829.2,33.3L832.4,33.5L836.2,35.9L837.1,33.7L838.2,34.4L845.2,32.4L843.1,31.2Z M811.4,32.1L811.5,31.7L810.4,32.4L811.4,32.1Z M800.0,31.7L797.0,31.1L795.9,31.9L798.1,32.6L800.0,31.7Z M709.0,31.2L709.8,30.4L709.0,30.7L709.0,31.2Z M713.2,31.0L709.6,31.6L710.8,32.6L713.2,31.0Z M644.6,34.4L646.5,32.9L644.2,30.7L639.6,31.2L636.1,32.5L631.7,36.2L624.9,40.2L620.8,41.2L618.2,40.9L613.1,42.6L612.9,44.5L614.6,45.3L617.3,44.4L620.2,44.3L618.5,45.5L619.6,46.3L625.0,48.0L628.4,48.2L634.4,50.1L634.7,49.2L640.0,51.3L642.4,51.0L647.8,48.8L649.1,48.9L651.4,47.2L656.7,46.7L659.7,45.2L653.7,42.3L651.3,42.8L651.8,41.1L653.7,39.5L653.4,38.0L650.6,36.7L647.5,33.2L644.6,34.4Z M648.9,30.0L648.4,29.2L647.5,29.9L648.9,30.0Z M765.6,26.9L761.3,27.1L762.8,28.7L769.5,28.8L770.0,27.1L765.6,26.9Z M615.8,24.9L616.8,24.0L615.3,24.3L615.8,24.9Z M622.4,18.8L622.4,21.5L625.9,19.9L622.4,18.8Z M941.5,13.4L939.2,13.6L937.2,16.9L942.2,15.7L944.6,14.0L941.5,13.4Z M930.6,8.2L931.9,6.1L929.6,6.6L930.6,8.2Z M936.5,6.4L937.5,4.8L935.4,4.9L936.5,6.4Z M696.4,2.4L692.7,3.7L694.6,3.7L696.4,2.4Z M386.0,35.1L370.4,49.8L362.3,58.1L381.6,71.1L405.2,86.6L419.1,95.5L440.3,95.6L448.0,106.0L455.6,107.0L524.7,114.8L522.6,118.0L499.4,147.3L493.1,155.4L473.7,181.1L473.7,181.1L479.2,181.1L556.4,181.1L561.9,181.1L561.9,181.1L568.6,174.5L567.4,173.2L570.5,172.8L575.4,168.7L582.5,164.0L584.9,160.1L588.7,159.8L587.9,158.1L593.2,155.6L599.1,153.8L597.9,150.3L601.3,151.2L602.7,150.2L602.4,148.7L607.6,148.0L606.7,146.8L610.1,146.8L608.5,144.4L612.3,145.2L613.0,146.9L614.3,142.3L622.3,140.0L623.4,141.2L625.7,140.2L621.6,138.1L621.9,136.5L625.8,135.9L633.1,137.3L639.8,134.7L642.9,134.7L645.6,127.6L647.6,127.8L644.1,126.3L641.3,126.2L640.3,123.5L639.3,122.9L633.0,124.8L628.8,125.2L635.4,123.1L631.6,121.3L630.2,121.9L623.7,119.1L622.4,119.3L623.9,120.8L621.3,120.9L619.0,118.6L621.3,117.1L627.9,119.9L633.9,121.9L642.7,122.6L647.3,125.0L650.0,125.0L652.6,123.0L656.1,124.5L659.6,121.9L661.9,121.2L660.2,118.5L663.6,119.6L665.3,118.9L663.4,116.5L667.0,116.3L668.8,115.0L667.2,117.4L674.1,119.3L674.8,118.1L676.4,118.4L689.2,115.3L688.9,114.8L697.7,109.9L700.1,107.5L703.4,106.7L706.8,104.1L711.6,101.0L711.4,99.5L702.7,98.8L691.0,98.2L687.0,95.5L687.1,93.8L683.7,91.0L671.9,89.1L671.8,90.7L667.6,88.7L682.1,89.1L679.2,89.7L687.0,89.6L684.9,88.7L688.8,89.1L691.4,90.3L692.8,92.0L697.9,93.3L695.1,93.3L700.9,97.7L702.2,98.0L709.4,97.9L712.8,97.0L713.0,96.1L721.8,92.9L728.6,88.8L729.2,88.2L735.0,85.5L727.5,82.4L730.7,79.5L735.4,80.4L740.0,80.1L743.9,79.3L744.5,80.7L743.2,83.8L749.9,84.7L752.1,84.5L750.9,82.7L754.3,83.3L757.1,84.8L760.5,84.7L759.5,83.1L760.4,81.7L758.5,79.0L759.2,77.5L757.4,76.9L759.1,76.2L757.4,74.3L754.6,73.7L749.8,74.8L753.3,73.3L764.5,75.6L761.9,77.4L761.9,79.3L763.7,80.8L763.0,81.8L765.6,82.6L773.0,79.5L776.8,79.3L780.9,77.0L783.2,77.2L786.8,74.3L793.6,72.8L801.3,65.5L800.5,63.5L796.6,57.8L797.8,56.9L796.2,55.4L795.9,53.2L797.8,52.7L795.5,51.5L801.3,50.6L805.6,50.7L805.9,50.1L811.7,49.1L813.4,48.3L814.1,45.1L811.7,45.6L810.0,44.7L817.6,40.2L814.3,39.3L811.1,39.6L809.8,37.6L806.5,34.8L808.9,34.5L809.5,33.4L797.6,32.9L792.0,30.7L785.8,30.8L785.6,31.3L780.2,31.2L779.8,32.0L776.4,33.7L776.4,34.9L774.5,36.7L776.3,36.6L774.9,40.8L777.1,40.6L778.4,43.1L776.0,42.9L771.8,45.6L775.4,46.7L774.7,47.1L765.7,46.9L762.7,48.9L761.9,51.2L757.6,54.3L754.8,57.1L751.8,58.1L744.7,62.1L743.7,63.8L740.3,67.4L738.0,66.6L735.4,67.4L733.0,68.9L730.8,69.4L728.9,71.2L727.8,70.4L729.4,67.9L726.6,63.6L725.7,63.4L725.3,60.8L729.0,55.5L729.3,53.6L732.6,52.6L731.4,54.5L733.5,55.0L737.3,52.0L737.8,49.3L739.1,47.8L738.2,44.2L733.9,41.0L733.3,39.3L729.8,39.6L723.7,42.6L721.7,44.0L718.6,48.4L709.7,54.1L708.0,53.8L707.8,50.7L710.7,46.8L712.6,45.7L713.0,41.9L709.0,38.8L712.9,38.8L715.8,37.5L720.7,36.8L711.4,35.0L714.5,34.1L711.1,33.5L705.2,36.1L702.7,35.1L701.0,33.5L697.2,33.6L696.3,32.8L704.7,30.4L707.9,29.0L708.9,27.4L704.4,28.0L706.0,26.0L715.9,26.5L715.0,25.6L716.4,23.5L713.1,23.9L713.4,19.5L709.9,18.7L708.3,16.0L710.0,15.9L713.9,11.7L714.9,9.1L713.6,8.9L709.7,4.9L712.1,3.3L703.6,4.5L706.2,0.0L698.2,1.0L694.8,3.9L685.8,6.1L691.0,7.0L685.1,10.1L683.9,9.2L678.0,10.0L673.8,12.1L672.8,13.6L669.4,16.2L670.8,19.6L671.9,20.2L667.5,21.6L666.4,22.7L662.8,24.1L661.7,25.2L663.2,29.4L662.5,31.6L666.2,31.8L667.6,33.2L671.4,34.5L673.8,34.5L678.5,36.9L686.2,35.5L685.5,38.0L678.6,40.7L679.2,39.6L685.2,36.9L675.7,38.5L673.2,40.9L674.0,42.3L667.8,44.2L665.6,46.7L666.6,47.0L672.3,46.2L678.5,43.8L677.5,45.7L673.6,48.5L674.9,48.9L664.9,52.6L663.7,54.0L655.3,57.1L651.0,56.7L649.0,57.4L640.9,62.5L642.1,65.2L639.9,68.9L636.6,71.8L636.9,73.3L633.3,74.1L626.8,73.8L625.4,75.5L624.5,73.2L625.2,72.7L635.0,73.4L636.7,71.2L634.6,69.8L635.8,67.4L629.7,69.5L628.4,69.2L629.9,67.9L628.7,65.7L631.2,64.2L633.6,63.5L634.2,62.4L641.5,56.2L637.9,55.4L634.1,56.4L637.5,54.7L638.6,53.5L632.9,54.4L633.3,52.8L630.5,50.5L624.5,50.0L623.9,50.6L625.2,52.5L621.3,52.5L619.2,53.5L618.7,52.7L614.4,52.8L613.0,55.7L614.7,60.4L617.0,58.7L621.5,57.6L625.0,61.2L624.4,62.7L617.5,63.9L613.8,61.6L614.0,59.2L610.6,56.8L609.0,58.6L611.3,60.4L600.4,62.2L600.1,61.6L593.0,60.8L591.4,60.3L582.5,60.6L573.7,62.7L569.9,61.2L564.7,61.2L561.2,60.3L560.9,59.0L557.5,57.8L558.9,55.4L555.7,57.1L552.8,57.6L545.1,57.5L544.3,55.9L546.3,54.3L542.0,53.4L540.3,51.7L541.5,50.9L541.5,48.4L543.1,46.8L542.0,45.2L538.1,44.0L536.2,44.7L528.2,46.1L522.5,47.6L518.4,48.0L508.1,49.7L503.8,52.0L501.7,54.2L504.2,53.3L504.2,55.8L507.5,55.4L514.9,52.7L518.2,54.0L521.2,52.5L524.9,52.8L527.3,52.2L526.6,51.3L528.8,50.2L537.9,48.9L534.5,51.9L530.0,52.1L524.7,55.3L522.1,54.6L512.7,57.3L509.1,57.3L508.3,56.6L506.0,58.1L508.1,58.6L503.0,60.6L501.2,61.9L502.8,65.5L500.8,66.9L499.6,69.7L502.0,70.9L499.4,72.6L499.0,74.3L497.1,74.1L494.6,75.5L494.6,73.5L490.5,76.8L491.4,77.3L492.0,81.3L491.1,82.5L490.9,79.6L489.8,79.3L489.3,77.0L488.4,76.8L489.2,73.8L487.1,71.2L489.3,72.5L492.1,71.6L493.3,72.1L494.7,70.8L495.3,68.6L493.2,66.2L490.8,67.6L492.3,65.3L491.1,64.0L487.7,67.2L487.1,61.9L481.7,62.1L483.2,60.8L482.3,58.4L480.4,58.0L467.2,61.1L467.2,60.3L450.6,62.7L446.8,62.8L440.9,62.2L436.5,62.5L421.4,60.6L418.6,59.4L424.9,57.6L426.0,55.2L429.4,55.7L431.6,55.1L430.9,53.6L433.9,54.2L439.9,54.4L443.7,52.1L442.4,52.1L443.4,50.3L442.4,47.8L438.5,45.0L437.3,45.3L433.8,43.6L426.3,43.4L426.9,44.9L419.4,44.9L417.4,44.1L413.5,43.9L403.9,41.3L401.5,39.5L390.3,38.1L388.2,37.2L386.0,35.1L386.0,35.1Z M429.6,34.0L428.4,34.6L430.8,37.3L434.3,38.8L443.1,39.6L451.7,39.0L459.4,40.3L458.1,40.4L456.3,42.8L452.8,46.3L454.9,50.7L452.4,51.2L459.1,51.0L460.6,50.4L474.6,50.3L474.6,49.4L481.0,48.9L486.0,48.9L486.3,49.4L495.6,48.5L503.5,47.2L511.5,44.6L524.5,43.3L533.1,40.3L534.5,38.9L542.1,36.1L542.9,37.4L539.0,40.5L540.8,41.0L548.2,41.0L548.5,41.7L552.7,42.3L548.5,43.9L549.2,44.6L555.8,45.0L559.7,44.0L562.0,45.2L567.4,46.4L568.6,45.7L576.2,44.7L578.1,45.2L587.9,43.1L590.8,40.4L586.5,39.4L588.6,39.3L588.4,38.2L591.6,37.3L591.4,36.1L586.9,36.2L581.5,37.6L577.5,39.4L580.7,36.2L577.1,34.2L579.4,33.3L584.1,35.4L585.8,35.3L588.4,33.9L589.0,32.4L596.4,30.7L597.8,33.8L603.3,30.2L602.1,33.3L604.6,33.6L606.8,33.0L608.8,31.4L612.1,25.9L605.3,26.7L606.4,24.2L602.6,24.1L598.2,21.7L593.2,21.3L592.6,20.0L589.8,19.9L588.0,15.3L586.9,14.6L589.7,9.6L593.2,7.4L594.9,2.5L593.9,2.2L595.1,0.0L566.5,0.0L566.8,2.8L559.1,4.1L558.4,5.5L555.6,3.8L557.1,0.0L540.0,0.0L520.7,18.6L510.7,28.6L483.2,28.6L482.5,30.5L479.4,30.7L432.2,28.6L430.3,30.4L429.8,33.8L429.6,34.0Z M797.7,0.0L801.7,1.3L802.1,2.6L800.6,3.3L802.3,4.7L805.9,5.2L809.1,5.0L806.9,8.0L802.9,10.1L800.1,13.3L799.9,14.6L798.2,14.2L800.7,11.7L798.2,12.0L794.2,11.7L783.6,14.2L779.1,14.6L777.8,14.2L783.4,13.5L786.0,12.7L794.2,11.6L802.5,10.2L802.8,8.1L796.0,4.7L793.9,0.0L755.1,0.0L753.4,0.8L753.8,3.8L751.2,4.9L748.5,9.1L749.0,9.5L760.9,10.9L769.3,11.1L768.8,11.3L772.6,13.7L760.8,14.8L760.2,13.7L748.9,12.9L750.3,14.2L747.8,16.8L751.0,21.9L754.4,22.5L758.0,23.9L756.8,25.0L760.7,24.5L759.4,23.8L767.8,24.4L766.4,23.0L770.4,22.0L769.5,23.9L773.1,23.2L773.6,27.0L778.1,28.7L779.9,28.4L777.8,27.3L789.2,27.1L788.6,28.2L800.3,29.4L805.6,28.4L812.8,30.9L819.5,30.6L821.8,29.6L819.3,27.8L814.1,25.9L812.3,24.4L817.5,26.6L821.8,29.0L823.8,29.1L827.0,32.0L830.0,32.3L830.2,31.5L823.6,27.6L823.7,26.7L832.9,27.8L835.8,27.9L840.7,29.4L842.2,28.9L843.3,30.8L852.5,30.2L855.0,29.6L856.9,26.2L856.4,24.3L853.3,24.0L850.4,22.5L854.4,22.6L857.8,19.3L859.1,18.8L860.9,20.5L857.1,20.9L856.5,21.8L862.4,23.8L861.4,24.9L863.8,25.7L868.3,25.0L868.1,27.0L864.9,32.1L870.0,30.2L870.6,31.1L873.1,30.7L873.2,33.1L869.2,33.4L874.0,35.2L881.9,39.0L881.8,41.0L875.0,43.1L871.5,42.3L868.7,43.0L865.5,47.9L869.0,47.6L880.6,44.2L885.7,43.9L889.7,42.0L885.4,44.6L889.5,44.1L888.5,45.3L885.6,45.8L888.7,46.3L887.8,47.4L889.4,49.9L894.4,50.2L895.4,47.5L897.7,47.8L895.9,49.5L895.8,53.6L899.3,52.4L896.8,53.9L899.4,54.4L901.2,56.3L900.1,59.5L902.1,60.9L900.8,62.8L901.2,68.3L900.2,70.4L897.3,71.6L894.2,71.8L888.9,75.6L876.3,81.6L868.1,84.5L865.9,86.7L871.4,92.2L870.5,96.2L867.1,95.0L865.1,95.0L860.6,96.9L856.4,97.8L856.6,96.4L850.5,98.9L848.1,99.0L841.2,98.2L845.0,102.2L847.3,101.5L844.5,103.4L841.9,107.3L841.1,105.3L844.2,103.4L844.7,101.9L842.3,99.7L833.5,96.9L825.8,95.9L825.7,97.6L824.3,97.3L824.2,100.1L820.0,100.9L815.1,102.4L812.1,103.9L809.5,107.3L808.4,107.5L808.7,111.7L811.2,113.2L812.5,112.5L814.4,114.6L822.1,114.9L825.2,113.8L828.9,113.8L830.6,112.5L836.8,111.4L835.4,110.3L836.4,109.0L838.6,109.6L841.4,111.5L842.5,110.9L844.9,111.8L848.4,112.2L851.4,109.8L847.5,106.2L851.6,109.0L856.6,107.9L856.8,110.1L854.0,111.3L853.1,112.8L854.9,113.4L858.4,109.6L860.9,109.8L861.7,108.3L864.7,110.2L865.2,108.7L866.6,109.6L862.3,111.7L863.7,112.7L861.9,114.5L864.7,114.0L866.2,115.7L864.9,117.6L866.5,118.9L868.1,117.1L866.8,120.3L869.2,121.8L870.9,120.0L872.6,120.1L870.5,121.4L872.3,123.5L874.7,121.3L876.9,122.5L876.8,123.9L879.5,125.1L875.0,127.3L872.9,127.5L871.9,129.5L873.7,132.0L885.3,137.7L894.5,137.5L892.6,139.3L895.4,142.6L898.9,143.6L901.6,145.7L909.1,146.5L919.0,149.3L921.3,149.4L921.9,150.7L928.9,151.3L930.1,150.7L928.6,149.4L930.6,148.1L932.3,145.8L928.0,142.1L926.5,138.9L923.1,138.7L923.9,137.9L921.8,136.8L922.3,135.8L921.0,134.3L918.0,135.0L916.4,131.7L913.8,131.3L911.9,127.3L912.7,127.1L908.8,122.2L911.9,122.6L911.8,121.9L916.3,124.0L920.9,128.2L921.8,123.9L921.5,122.1L928.4,128.9L929.7,132.5L932.1,132.7L932.6,130.7L936.5,134.7L937.4,134.0L941.1,136.4L944.8,135.6L943.8,137.3L944.6,140.7L947.9,138.2L947.2,135.2L949.8,135.6L953.7,135.3L952.5,132.7L953.5,132.4L950.7,130.8L953.4,128.5L953.9,125.0L954.8,124.4L952.8,121.4L954.2,121.7L955.6,124.1L956.2,130.2L958.0,129.2L960.9,124.0L956.9,121.9L959.7,119.5L961.8,118.9L958.0,118.9L958.8,118.3L955.6,114.6L953.6,114.7L954.3,113.4L957.0,113.9L960.3,111.9L958.0,110.4L953.4,110.9L956.3,108.3L957.0,106.9L953.9,104.8L953.2,107.6L951.8,105.9L949.1,107.8L951.3,105.1L948.4,103.3L945.0,105.2L945.2,102.6L946.8,100.4L943.8,101.5L943.0,98.8L941.2,98.2L944.1,97.5L945.2,96.5L942.5,95.5L944.6,93.3L943.7,92.9L935.4,95.2L937.5,93.5L939.3,90.5L935.1,91.0L936.3,90.4L935.4,87.4L936.9,88.3L938.4,86.1L936.8,86.7L935.6,85.1L932.4,85.3L935.6,83.7L940.2,86.7L941.2,89.5L944.7,89.4L947.7,88.7L949.2,87.3L944.8,84.5L944.3,81.7L946.3,81.3L948.6,83.4L949.6,81.7L951.2,81.8L950.9,79.6L947.3,79.5L948.2,78.9L953.2,80.6L956.8,79.7L958.2,81.0L957.3,82.3L959.6,82.7L958.0,84.6L962.9,83.6L961.4,85.3L964.9,85.9L969.0,84.0L967.8,85.3L963.8,86.6L962.7,88.3L969.1,88.2L974.1,86.7L978.3,84.9L974.8,87.8L968.6,89.6L967.3,90.3L966.1,92.6L968.2,93.4L968.0,94.8L972.8,94.1L967.7,95.7L968.6,97.5L973.6,96.0L975.8,96.5L972.7,97.0L969.6,99.4L971.1,99.5L972.0,101.5L974.1,98.8L977.5,96.6L974.4,100.4L975.9,100.4L976.0,102.3L981.2,100.4L982.0,103.2L986.2,100.9L985.1,100.7L987.3,98.1L986.1,97.5L989.8,93.7L987.0,92.9L990.2,91.5L990.6,90.2L992.2,93.2L996.5,94.1L997.0,91.4L999.4,92.1L1000.0,74.5L998.9,74.3L996.6,75.7L993.8,75.6L1000.0,73.8L1000.0,69.2L987.4,70.8L995.9,68.7L991.7,69.3L991.6,68.3L987.0,67.6L997.0,66.6L994.2,65.9L997.0,64.9L997.3,63.6L995.8,62.0L991.3,62.9L995.1,61.7L994.4,61.1L986.8,60.8L988.4,57.5L982.7,60.3L980.4,58.6L978.3,59.8L979.4,57.5L976.8,57.7L975.8,56.5L971.4,56.0L968.2,57.7L972.1,54.4L968.3,52.6L960.1,54.1L961.4,53.0L967.1,52.0L970.3,52.6L974.9,51.5L968.0,50.5L965.5,50.7L959.5,50.0L959.6,49.4L954.7,48.1L960.4,48.6L961.5,47.9L956.6,46.8L951.5,46.9L952.3,46.2L948.6,45.0L954.3,46.1L956.6,45.6L965.5,46.4L958.5,44.7L963.9,44.0L958.6,43.4L962.2,43.1L964.1,43.6L968.1,42.6L962.3,40.6L957.9,41.2L959.2,40.1L965.8,39.7L956.7,38.3L956.7,38.0L963.6,38.8L965.0,38.6L970.0,40.6L981.3,40.5L981.4,38.3L977.5,36.4L971.4,36.2L968.8,36.5L965.2,35.2L961.6,34.6L947.4,35.3L951.0,34.9L955.6,35.4L966.5,34.0L969.1,32.7L974.5,31.8L978.4,32.7L981.0,32.6L981.6,29.2L980.3,27.0L977.6,24.6L974.7,24.3L972.0,25.6L971.3,27.4L967.9,27.9L966.0,29.5L960.8,29.8L956.7,31.7L951.9,31.8L948.3,34.2L951.6,31.4L957.1,30.9L961.1,29.0L967.9,26.5L962.1,25.8L956.4,26.6L954.7,27.4L954.3,28.8L950.2,29.3L951.9,27.7L955.0,26.3L968.6,24.0L971.9,23.2L975.4,20.6L967.9,18.1L962.8,17.6L961.4,18.8L959.5,18.7L956.6,20.0L955.4,19.2L960.2,17.4L961.1,15.9L954.5,17.3L946.3,19.7L945.4,21.1L941.8,23.5L938.1,26.7L936.3,27.5L943.7,20.9L940.3,20.3L936.7,23.2L933.9,22.5L940.6,19.7L943.1,20.2L950.4,17.8L953.9,15.7L954.7,13.3L953.3,12.6L947.8,14.1L945.9,15.6L946.7,16.1L942.3,16.1L934.5,17.6L935.7,16.5L934.0,16.0L939.4,13.0L945.4,13.3L950.6,10.8L948.5,6.9L939.5,4.8L934.9,7.1L935.2,7.7L924.0,13.5L925.4,13.1L928.1,10.7L930.3,10.4L926.8,9.5L920.5,13.3L926.2,8.8L927.1,5.9L924.0,6.6L920.5,9.6L916.6,11.3L925.9,4.9L928.1,4.1L926.0,3.2L921.5,3.8L917.9,5.1L914.3,6.9L914.3,8.7L907.8,11.6L912.0,9.3L913.0,7.8L909.9,7.2L913.8,5.3L912.5,4.2L916.5,3.8L922.0,2.6L925.7,0.0L874.6,0.0L876.9,2.0L871.8,0.0L797.7,0.0Z M644.1,0.0L647.2,2.1L647.3,9.3L649.9,8.8L651.1,10.2L654.3,9.9L658.9,8.4L660.1,4.0L661.8,2.8L661.6,4.1L667.4,5.4L675.0,4.2L680.7,2.1L682.5,2.3L685.3,0.0L644.1,0.0Z M710.2,0.0L710.9,0.3L711.3,0.3L710.2,0.0Z M699.1,0.0L699.4,0.5L703.0,0.0L699.1,0.0Z " data-id="CA.NU" data-name="Nunavut" id="CA.NU"/>
utf-8utf-8<path d="M219.0,37.3L219.6,38.7L220.7,38.1L219.0,37.3Z M218.7,35.8L218.0,36.3L218.5,36.6L218.7,35.8Z M221.9,34.8L224.6,33.7L223.8,33.7L221.9,34.8Z M348.1,26.4L346.4,26.5L347.5,26.7L348.1,26.4Z M482.1,24.5L481.6,24.1L480.4,24.1L482.1,24.5Z M496.9,24.1L490.3,23.6L491.9,24.3L496.9,24.1Z M445.5,21.6L443.2,21.3L443.6,21.7L445.5,21.6Z M450.0,20.9L447.6,20.9L447.4,21.2L450.0,20.9Z M447.2,20.5L445.8,20.4L444.7,20.8L447.2,20.5Z M443.3,20.7L441.7,20.4L439.0,20.4L443.3,20.7Z M200.0,44.5L179.4,62.0L179.7,64.2L176.7,66.8L177.1,67.2L174.3,69.5L172.4,70.2L170.2,72.8L195.7,72.8L193.2,73.4L194.2,75.9L190.8,79.8L186.9,82.4L185.7,85.6L183.0,86.6L182.3,88.6L184.4,88.7L188.0,87.7L190.7,87.5L192.6,88.2L194.2,87.6L192.1,90.3L193.0,92.6L187.4,96.8L182.2,98.9L180.2,101.6L181.3,102.8L178.5,103.7L175.0,106.6L177.5,106.7L179.6,109.9L181.0,110.5L179.1,112.5L181.1,112.4L183.6,111.3L185.7,112.0L183.5,118.3L186.7,122.3L185.0,122.5L186.3,126.5L179.3,129.7L181.1,133.7L177.4,136.0L177.5,141.2L176.5,143.7L172.2,147.2L176.8,148.7L178.9,147.7L181.2,149.1L180.4,151.8L182.0,152.1L181.1,153.9L182.5,156.7L187.1,159.3L184.1,163.0L181.3,167.4L182.5,169.3L184.5,168.5L187.1,168.8L189.4,167.5L191.7,168.3L193.5,167.1L198.5,168.7L207.1,166.5L210.9,165.8L209.1,169.1L207.3,169.7L208.2,173.8L204.5,180.5L206.6,180.7L206.5,181.1L212.3,181.1L224.0,181.1L229.8,181.1L247.4,181.1L253.2,181.1L260.9,181.1L306.8,181.1L314.5,181.1L368.1,181.1L375.7,181.1L381.9,181.1L418.6,181.1L424.7,181.1L467.6,181.1L473.7,181.1L473.7,181.1L493.1,155.4L499.4,147.3L522.6,118.0L524.7,114.8L455.6,107.0L448.0,106.0L440.3,95.6L419.1,95.5L405.2,86.6L381.6,71.1L362.3,58.1L370.4,49.8L386.0,35.1L385.7,34.1L381.1,32.0L375.2,31.3L367.4,31.2L361.8,32.7L353.8,37.2L349.8,38.0L341.5,37.8L341.1,37.2L350.9,33.3L346.6,32.7L349.4,29.8L353.3,27.8L354.4,26.6L351.1,26.4L346.2,27.7L342.1,29.4L346.6,28.4L345.6,29.5L339.2,31.4L340.4,33.7L341.4,32.5L336.0,33.2L331.3,36.6L333.6,37.6L326.4,37.6L323.9,35.2L322.8,32.6L325.7,26.0L325.9,24.2L322.6,20.5L320.8,20.6L316.8,22.8L316.9,24.4L321.1,25.0L308.2,29.1L299.0,32.2L296.9,33.2L294.7,32.8L299.4,30.9L302.1,29.0L298.2,30.5L293.5,31.0L280.9,33.1L276.6,35.3L272.7,36.6L267.2,39.4L270.5,36.3L267.4,38.1L267.7,35.9L265.4,37.1L263.1,36.3L261.1,37.4L251.0,41.0L250.1,40.6L243.9,41.9L240.4,44.6L244.4,45.2L242.1,46.1L235.3,45.3L240.3,42.1L241.7,42.6L245.2,40.2L249.2,39.0L256.8,37.4L263.8,34.9L268.4,34.8L271.2,33.9L274.8,34.0L286.8,30.5L294.5,28.8L297.6,27.6L296.4,25.4L293.5,27.1L288.1,27.5L288.2,26.1L282.4,27.3L275.5,30.3L275.4,29.5L270.3,30.4L261.0,33.2L250.8,34.2L249.2,35.7L244.9,37.2L239.2,37.5L229.3,40.6L231.2,39.2L241.1,35.2L237.4,35.5L238.1,33.3L235.8,32.7L232.1,36.4L228.5,36.2L222.1,36.9L220.3,39.4L217.3,38.2L213.2,39.0L213.5,41.1L211.7,39.5L209.1,41.7L212.4,42.8L207.4,42.6L205.5,44.0L209.4,44.5L209.0,47.8L207.8,48.0L205.8,45.8L200.0,44.5L200.0,44.5Z M321.7,19.8L320.9,19.1L317.7,20.8L321.7,19.8Z M429.8,33.8L430.3,30.4L432.2,28.6L479.4,30.7L482.5,30.5L483.2,28.6L510.7,28.6L520.7,18.6L540.0,0.0L444.1,0.0L438.1,3.2L437.1,4.4L438.1,5.4L443.7,5.3L442.8,6.0L447.8,4.8L451.8,4.6L450.9,6.1L448.8,6.7L445.2,6.6L441.6,8.1L441.7,8.6L448.8,8.9L451.0,7.7L456.5,8.1L461.3,7.4L474.1,6.6L471.8,7.1L464.7,7.9L468.1,9.0L461.9,9.2L455.6,10.1L454.4,10.7L443.0,11.8L433.5,16.5L436.1,18.0L435.7,19.5L442.9,19.9L451.8,19.4L458.0,20.3L459.0,20.0L470.7,19.3L477.5,18.3L484.7,19.5L486.8,20.5L494.3,22.2L499.2,23.8L493.2,24.8L490.3,24.2L485.1,25.7L481.1,25.3L465.7,24.1L441.4,26.3L432.8,27.3L428.5,28.8L428.0,32.9L429.8,33.8L429.8,33.8Z M370.5,0.0L369.3,0.7L375.2,0.7L377.6,2.1L383.7,4.3L384.5,7.7L382.8,11.6L383.9,13.0L387.3,13.0L390.5,11.7L400.4,9.3L404.9,7.7L407.0,8.8L412.4,8.1L419.5,6.5L423.6,4.1L426.4,1.4L428.8,0.0L370.5,0.0Z " data-id="CA.NT" data-name="Northwest Territories" id="CA.NT"/>
utf-8utf-8<path d="M19.8,181.1L19.9,181.1L200.6,181.1L206.5,181.1L206.6,180.7L204.5,180.5L208.2,173.8L207.3,169.7L209.1,169.1L210.9,165.8L207.1,166.5L198.5,168.7L193.5,167.1L191.7,168.3L189.4,167.5L187.1,168.8L184.5,168.5L182.5,169.3L181.3,167.4L184.1,163.0L187.1,159.3L182.5,156.7L181.1,153.9L182.0,152.1L180.4,151.8L181.2,149.1L178.9,147.7L176.8,148.7L172.2,147.2L176.5,143.7L177.5,141.2L177.4,136.0L181.1,133.7L179.3,129.7L186.3,126.5L185.0,122.5L186.7,122.3L183.5,118.3L185.7,112.0L183.6,111.3L181.1,112.4L179.1,112.5L181.0,110.5L179.6,109.9L177.5,106.7L175.0,106.6L178.5,103.7L181.3,102.8L180.2,101.6L182.2,98.9L187.4,96.8L193.0,92.6L192.1,90.3L194.2,87.6L192.6,88.2L190.7,87.5L188.0,87.7L184.4,88.7L182.3,88.6L183.0,86.6L185.7,85.6L186.9,82.4L190.8,79.8L194.2,75.9L193.2,73.4L195.7,72.8L170.2,72.8L172.4,70.2L174.3,69.5L177.1,67.2L176.7,66.8L179.7,64.2L179.4,62.0L200.0,44.5L199.9,44.5L196.9,45.0L190.5,43.3L184.9,40.5L181.8,39.7L182.2,38.8L180.7,35.7L175.6,34.8L165.9,34.2L162.5,33.7L159.9,35.8L105.2,81.2L97.5,87.8L64.8,116.8L27.8,150.7L1.0,176.3L5.3,177.7L7.8,176.5L11.1,178.2L24.8,175.6L24.8,176.0L19.4,180.0L19.6,180.6L19.8,181.1Z M185.1,34.6L182.9,33.7L181.1,35.4L185.1,34.6Z " data-id="CA.YT" data-name="Yukon" id="CA.YT"/>
utf-8utf-8<path d="M663.1,444.4L664.3,443.1L661.9,444.0L663.1,444.4Z M671.0,442.6L669.9,442.5L668.7,442.5L671.0,442.6Z M624.7,423.8L622.6,425.6L624.4,424.6L624.7,423.8Z M602.3,421.9L603.6,420.6L602.6,420.8L602.3,421.9Z M594.5,413.6L592.1,413.9L592.4,414.3L594.5,413.6Z M591.1,413.7L585.2,414.7L593.8,417.0L594.5,417.8L601.0,419.3L602.3,420.5L606.9,416.4L605.3,416.2L606.3,414.4L604.3,415.1L603.8,413.3L595.8,414.1L593.9,416.3L593.6,415.3L590.9,414.5L591.1,413.7Z M584.6,413.3L581.7,414.6L584.6,414.3L584.6,413.3Z M605.8,411.8L603.6,412.0L605.2,413.0L605.8,411.8Z M576.9,407.7L576.5,410.1L578.9,410.4L580.0,408.8L576.9,407.7Z M575.4,397.4L574.4,397.8L575.1,397.6L575.4,397.4Z M566.4,383.1L563.2,382.2L561.9,383.6L566.4,383.1Z M523.7,374.7L522.9,374.2L522.2,374.6L523.7,374.7Z M548.9,365.9L548.4,365.2L548.4,365.7L548.9,365.9Z M545.0,365.3L541.1,364.8L540.5,366.1L545.0,365.3Z M675.7,320.4L672.9,321.5L672.5,322.9L671.9,328.7L671.9,328.7L673.2,325.8L674.1,324.0L675.7,320.4L675.7,320.4Z M696.1,429.7L697.2,429.0L700.0,427.2L700.4,426.9L702.2,426.2L702.5,426.0L701.3,424.3L703.5,420.8L690.6,420.5L683.0,423.2L681.0,421.0L677.1,421.7L673.2,419.7L672.8,414.7L669.8,416.3L667.8,415.2L665.4,410.8L663.3,409.7L649.9,406.9L647.8,403.8L647.0,398.8L645.2,393.6L645.6,388.2L647.7,385.1L650.9,377.2L661.3,352.4L671.7,329.1L671.7,329.1L666.7,323.2L663.4,322.5L654.9,326.6L663.1,321.9L663.1,319.2L662.3,313.9L661.0,313.2L660.6,311.2L657.7,310.0L655.8,307.5L650.5,308.3L651.7,307.3L656.7,306.2L656.9,303.9L654.1,300.2L653.9,297.5L651.8,295.2L654.3,291.3L656.8,289.7L660.7,281.9L661.3,280.2L660.4,276.3L661.7,272.3L667.1,266.6L669.8,261.2L667.3,259.5L654.5,258.2L650.8,256.7L648.8,257.4L644.5,257.3L642.5,257.9L636.5,257.1L635.9,256.0L632.8,254.9L630.8,252.0L624.7,250.1L619.5,247.4L613.2,246.4L613.5,245.4L610.5,245.5L611.3,244.6L610.0,239.4L606.8,236.8L603.3,232.0L601.9,231.7L601.9,231.7L582.6,242.1L562.6,253.0L511.7,282.5L482.7,297.8L470.9,318.4L461.8,335.0L450.8,355.6L451.4,355.9L454.6,356.9L452.9,363.3L452.9,366.5L462.2,368.4L462.4,370.1L466.7,369.4L470.0,368.1L473.9,368.5L477.5,370.0L475.9,371.0L478.4,372.8L478.6,375.1L480.7,373.2L483.7,373.0L484.2,375.0L486.5,375.7L486.7,377.2L489.2,377.9L493.4,377.0L498.2,375.0L499.3,377.4L507.3,376.9L510.0,379.1L516.5,378.0L520.4,375.2L522.2,372.0L529.6,369.6L527.1,372.3L528.3,372.6L531.2,370.0L536.5,364.3L537.5,365.1L536.6,367.1L540.5,365.2L539.5,364.4L539.9,362.1L545.8,363.0L547.4,364.2L552.8,365.6L559.3,365.0L560.8,366.3L562.9,365.7L563.2,368.1L562.9,374.9L564.6,379.1L570.0,380.1L572.2,379.6L578.0,379.7L573.3,385.3L576.7,389.8L571.9,395.8L576.2,396.8L576.8,397.6L574.7,400.7L571.2,403.6L577.6,403.9L576.2,406.0L577.2,407.2L591.3,409.6L598.1,409.6L601.7,410.8L607.3,411.0L609.5,411.7L606.9,412.5L609.4,413.1L614.2,412.8L618.0,413.9L620.1,418.3L622.0,419.3L621.7,422.3L622.6,423.8L624.6,422.8L623.4,425.5L623.7,429.1L626.7,432.4L625.4,433.8L623.3,431.9L620.4,433.7L621.0,434.2L620.4,437.3L619.2,438.3L612.3,434.2L607.9,436.5L609.3,432.9L606.3,433.8L608.7,432.0L607.1,431.1L606.3,426.8L602.8,425.3L603.7,429.9L604.6,429.7L604.6,432.8L600.6,438.8L597.0,441.0L593.4,445.1L588.9,456.9L586.0,459.0L577.6,462.9L575.8,464.6L570.8,471.0L572.7,471.6L572.9,473.7L569.5,474.8L564.8,474.4L562.8,475.3L561.1,479.1L564.6,480.2L569.7,479.5L577.1,475.7L579.6,475.9L581.7,473.3L589.3,469.2L595.4,468.9L600.7,470.4L602.0,469.4L613.9,465.6L624.2,465.1L625.3,458.6L620.2,459.7L615.5,458.4L619.6,453.9L624.9,451.5L628.8,449.4L640.4,447.2L649.1,446.4L656.5,448.4L660.1,447.4L657.5,447.2L663.3,443.1L674.4,440.2L687.6,432.0L693.5,429.6L695.7,429.7L696.1,429.7Z " data-id="CA.ON" data-name="Ontario" id="CA.ON"/>
utf-8utf-8<path d="M708.7,424.5L706.2,424.5L705.5,425.5L708.7,424.5Z M710.1,421.4L710.6,420.8L709.8,421.4L710.1,421.4Z M716.1,418.0L711.3,420.1L712.3,420.5L716.1,418.0Z M715.4,420.8L717.4,417.6L714.0,420.0L709.0,422.2L713.9,422.2L715.4,420.8Z M757.8,398.2L760.1,397.0L761.7,395.6L757.8,398.2Z M769.5,389.5L770.8,388.6L769.0,389.4L769.5,389.5Z M892.9,385.2L890.5,385.2L885.7,388.4L882.6,392.1L884.4,391.6L885.4,388.6L889.0,386.4L892.9,385.2Z M796.4,372.2L796.6,372.1L796.0,372.2L796.4,372.2Z M696.1,429.7L696.4,429.7L740.3,429.5L744.9,424.8L745.8,425.4L749.8,424.1L749.9,425.5L752.2,422.5L754.5,422.8L753.8,421.1L761.7,415.0L764.2,409.7L766.2,406.7L768.2,405.7L770.3,401.6L776.4,396.0L785.2,388.4L785.9,388.0L787.1,390.8L787.1,390.9L794.3,388.7L797.8,386.3L800.1,380.1L804.0,379.0L813.3,381.6L814.0,380.7L817.4,380.2L819.0,380.6L821.2,378.9L821.2,378.9L831.9,377.2L834.4,375.5L837.7,377.2L843.9,378.1L850.3,375.4L852.0,373.1L857.1,371.8L860.1,369.9L859.2,368.8L861.0,368.2L857.5,363.9L861.4,364.8L861.1,362.6L855.6,358.8L848.1,357.5L845.9,357.4L836.8,358.4L827.0,361.1L816.9,364.2L810.4,366.9L809.0,367.1L800.8,371.2L799.6,371.5L786.6,378.8L784.1,380.7L773.8,389.6L768.0,393.9L753.7,400.0L747.1,402.1L745.5,401.5L740.0,403.9L738.2,405.7L731.7,408.6L730.5,409.8L722.7,413.3L722.4,414.2L718.6,417.0L715.8,420.6L715.5,422.1L706.7,425.8L702.5,426.7L700.5,428.2L697.3,429.5L696.1,429.7Z M869.1,345.8L864.6,346.5L864.2,348.0L872.0,351.7L873.2,353.4L873.1,355.3L876.8,356.5L878.8,357.9L891.8,360.6L895.9,360.2L897.3,359.5L895.4,355.9L889.6,353.5L888.4,351.6L883.7,349.5L878.5,347.8L870.3,346.3L869.1,345.8Z M874.3,341.5L874.0,340.7L873.6,340.9L874.3,341.5Z M936.9,334.1L936.4,335.8L937.0,335.3L936.9,334.1Z M944.2,331.7L944.2,331.0L943.7,331.6L944.2,331.7Z M949.6,326.5L951.5,325.2L950.2,325.7L949.6,326.5Z M952.9,324.8L953.9,323.9L952.8,324.2L952.9,324.8Z M882.8,208.4L883.0,206.4L882.3,206.7L882.8,208.4Z M868.8,197.7L870.2,196.8L869.4,196.9L868.8,197.7Z M868.7,194.7L867.0,195.7L867.3,197.2L870.0,195.6L868.7,194.7Z M873.8,166.0L875.1,164.8L874.7,164.7L873.8,166.0Z M856.7,151.9L857.2,151.8L856.1,151.9L856.7,151.9Z M675.7,320.4L674.1,324.0L673.2,325.8L671.9,328.7L671.9,329.3L672.9,331.7L672.5,332.7L672.3,330.6L671.7,329.1L661.3,352.4L650.9,377.2L647.7,385.1L645.6,388.2L645.2,393.6L647.0,398.8L647.8,403.8L649.9,406.9L663.3,409.7L665.4,410.8L667.8,415.2L669.8,416.3L672.8,414.7L673.2,419.7L677.1,421.7L681.0,421.0L683.0,423.2L690.6,420.5L703.5,420.8L701.3,424.3L702.5,426.0L702.5,426.0L705.8,424.3L707.7,424.2L704.9,420.8L706.2,420.7L718.5,416.8L723.6,411.9L726.1,410.9L727.1,409.2L732.0,408.0L736.6,405.7L739.6,403.4L752.6,400.3L760.3,395.2L764.2,393.3L768.7,388.3L769.0,388.5L778.2,382.7L781.5,378.7L781.2,375.3L773.6,372.7L769.0,373.3L768.9,372.7L776.0,372.5L778.4,374.2L784.3,376.1L787.9,373.8L791.9,369.6L794.4,368.1L795.8,366.0L800.0,363.9L802.5,363.3L804.4,360.9L809.4,360.0L808.8,358.6L814.6,356.9L822.1,356.1L824.6,354.1L829.1,347.5L829.6,347.9L832.5,344.8L833.9,344.5L839.5,340.7L841.1,341.6L847.3,340.0L848.3,340.6L855.8,339.8L870.9,340.5L875.6,339.7L889.5,340.0L893.4,340.5L895.1,340.1L903.9,342.3L902.1,343.3L908.1,341.6L911.8,341.2L915.2,341.5L920.7,341.1L922.4,340.0L923.4,341.1L928.2,339.7L928.1,338.6L930.7,337.3L941.8,329.9L941.7,331.8L943.0,331.0L946.1,326.9L949.6,325.1L949.7,323.8L958.7,322.7L960.5,321.5L969.5,319.9L970.3,321.1L970.8,321.2L974.1,311.5L888.7,311.5L886.4,310.3L888.7,309.1L886.2,305.6L885.8,303.3L890.0,301.2L894.5,300.7L892.3,298.5L891.2,298.7L885.3,301.6L884.4,305.0L882.8,306.4L881.6,309.3L878.6,312.0L878.2,315.8L874.8,318.0L873.5,317.9L872.7,316.1L869.7,316.0L865.3,313.9L865.4,311.7L862.6,309.7L857.5,310.1L855.6,306.4L854.9,308.9L853.4,309.1L853.3,306.0L855.1,305.5L856.3,300.7L857.6,301.3L859.6,296.5L854.8,296.7L854.4,297.7L850.7,300.0L849.0,298.0L846.1,297.1L846.7,293.1L849.9,292.3L850.9,293.6L855.3,288.0L854.6,287.0L850.7,285.5L848.9,282.2L849.5,279.6L847.8,277.8L852.1,271.0L855.4,269.5L855.7,268.6L857.9,270.4L862.0,266.3L859.6,262.0L859.9,260.9L864.2,265.0L866.0,266.1L867.3,265.5L868.2,262.6L869.3,262.2L868.8,260.2L871.0,257.7L876.1,262.6L879.1,263.4L882.6,266.3L883.4,265.3L886.8,264.4L889.1,262.6L890.9,263.1L892.5,264.9L891.8,266.2L894.2,266.4L896.2,265.3L899.2,266.7L899.5,268.0L902.1,268.5L905.2,263.3L908.4,262.6L910.5,258.9L912.7,257.8L910.0,257.2L914.0,255.3L909.6,254.4L911.1,253.4L912.6,249.6L911.7,247.7L913.0,243.6L910.7,244.4L913.5,242.0L911.1,241.2L914.9,236.7L913.7,234.4L918.2,230.0L922.3,225.7L921.6,224.9L923.8,223.1L923.6,222.2L925.9,218.7L923.1,216.2L921.7,213.5L922.1,212.4L921.1,210.1L923.9,209.1L928.0,206.2L929.4,206.1L928.1,202.9L928.7,202.4L936.4,200.5L933.4,199.2L928.5,201.1L927.5,199.5L920.5,198.3L921.9,196.5L928.3,197.0L926.7,195.7L928.0,191.1L931.0,189.4L930.1,188.7L925.2,187.4L927.5,185.5L929.4,182.9L928.5,180.4L930.2,180.4L932.8,178.9L930.5,177.4L935.0,176.3L934.8,176.3L933.3,175.8L930.2,176.8L925.2,181.5L924.3,183.2L925.4,184.8L921.7,183.6L918.1,187.1L920.0,189.5L916.2,189.2L917.2,192.6L915.4,191.1L913.6,194.1L912.5,192.8L910.7,197.4L906.6,198.6L904.5,201.7L905.8,203.1L902.0,207.1L904.8,203.6L903.6,201.5L901.6,199.8L895.4,204.7L883.5,208.6L881.7,209.5L879.3,212.0L881.2,207.0L880.7,206.0L875.9,210.7L874.8,210.7L878.6,207.2L879.0,203.8L877.3,204.7L871.1,211.7L862.4,214.1L855.8,216.9L858.3,215.4L868.4,212.7L871.2,211.2L875.7,205.4L874.9,199.8L873.9,198.8L867.7,198.7L859.6,201.9L857.0,203.5L854.2,200.6L858.9,199.7L859.1,197.7L860.0,200.2L862.1,199.7L863.7,198.1L864.4,195.9L865.8,196.0L868.4,192.1L863.5,191.6L865.4,190.4L864.6,189.2L868.9,186.2L869.7,183.1L862.3,180.7L868.2,181.3L870.9,179.9L872.4,172.6L874.6,171.9L874.7,170.3L879.3,168.7L880.8,166.6L880.3,164.4L877.3,165.9L877.4,166.6L873.4,167.9L872.1,167.7L872.6,164.1L863.1,164.1L862.4,163.2L857.9,162.4L855.4,160.7L857.5,159.0L856.3,158.0L859.9,155.6L857.2,154.3L855.0,155.8L854.5,151.7L850.7,150.6L851.6,147.7L848.5,147.3L846.0,145.5L839.7,142.3L835.3,144.4L831.3,145.6L827.9,145.6L827.1,147.6L824.4,145.4L813.2,144.2L806.1,141.9L798.9,140.8L797.8,140.3L793.8,142.2L790.0,143.4L786.7,145.3L783.9,154.4L785.4,154.4L786.8,157.6L783.6,158.1L782.3,161.8L773.6,167.4L775.8,169.2L780.7,167.8L775.9,170.8L776.8,172.3L779.8,172.5L774.7,174.4L775.0,176.6L774.3,179.1L772.8,180.1L776.4,180.7L774.0,182.4L774.6,184.3L772.5,184.6L772.3,188.0L769.9,186.1L767.3,186.9L764.1,190.0L764.4,191.2L758.1,195.4L756.9,195.4L752.6,198.1L748.3,203.2L757.7,210.4L761.5,215.9L761.2,224.9L759.8,228.5L755.1,238.5L751.3,243.3L742.9,249.1L741.1,250.9L731.4,255.9L729.2,257.5L719.8,261.3L710.5,264.4L702.6,266.1L700.0,269.1L700.2,274.8L703.6,275.3L701.6,276.5L702.2,278.9L700.9,280.7L699.4,284.9L700.4,285.5L698.0,289.2L696.1,294.0L696.5,298.4L694.8,298.9L695.6,300.6L694.8,302.5L696.5,302.5L696.1,305.6L694.5,308.1L691.1,310.7L687.8,312.4L687.3,314.4L685.0,314.9L685.8,319.7L682.4,323.3L682.3,325.4L681.3,324.5L682.3,320.1L679.5,318.9L679.9,317.0L676.5,318.8L675.8,320.4L675.7,320.4Z " data-id="CA.QC" data-name="Qubec" id="CA.QC"/>
utf-8utf-8<path d="M804.2,433.1L802.9,435.6L803.9,435.7L804.2,433.1Z M852.1,381.0L850.0,381.0L848.9,382.9L852.1,381.0Z M851.4,380.4L853.0,379.5L853.2,378.5L851.4,380.4Z M821.2,378.9L819.0,380.6L817.4,380.2L814.0,380.7L813.3,381.6L804.0,379.0L800.1,380.1L797.8,386.3L794.3,388.7L787.1,390.9L787.0,391.3L792.5,391.7L796.5,390.3L799.2,390.2L802.8,394.6L796.8,413.5L795.5,417.8L797.1,418.7L799.1,418.6L799.3,420.7L798.1,421.4L798.1,423.8L797.2,424.9L798.6,427.1L799.6,426.3L802.0,428.1L804.0,426.5L805.4,428.7L810.0,427.1L811.7,427.5L816.9,424.9L822.2,424.7L832.7,420.3L838.1,417.0L840.1,415.2L843.6,414.9L844.1,415.5L844.1,415.6L846.6,413.3L847.6,413.3L848.1,412.9L848.0,412.8L852.1,411.1L852.0,410.4L847.5,410.0L846.5,408.8L843.0,408.7L842.7,406.9L840.9,407.2L842.6,405.7L842.7,401.1L842.1,401.4L841.5,397.3L843.7,394.4L841.1,394.8L836.6,394.1L840.0,392.4L844.0,389.0L847.5,383.8L846.3,382.1L842.3,381.9L835.4,385.3L832.6,380.1L828.0,378.2L821.3,379.0L821.2,378.9Z " data-id="CA.NB" data-name="New Brunswick" id="CA.NB"/>
utf-8utf-8<path d="M812.9,456.1L813.6,455.3L813.4,454.6L812.9,456.1Z M895.8,447.5L893.2,447.5L892.2,447.5L895.8,447.5Z M848.1,412.9L847.6,413.3L846.6,413.3L844.1,415.6L844.1,415.7L841.1,417.8L834.5,421.5L832.4,423.8L834.6,424.6L835.6,423.6L844.7,422.7L854.1,423.6L846.1,425.0L841.4,427.2L840.0,427.2L840.3,424.3L832.3,427.3L819.9,433.4L810.8,440.7L808.1,445.1L807.5,449.4L808.2,451.3L810.8,449.5L812.4,454.9L815.9,453.3L817.2,454.1L818.2,451.6L821.9,450.6L825.3,448.6L825.7,449.4L828.9,446.5L828.6,445.5L834.5,441.4L837.2,437.1L838.5,436.8L839.1,438.3L841.7,435.5L843.3,434.8L842.1,438.1L844.6,438.8L847.1,438.3L847.5,435.8L850.9,435.8L852.5,434.1L860.8,433.0L872.5,429.2L876.3,428.1L875.8,426.8L880.1,426.9L884.8,425.9L886.3,424.1L879.9,423.4L883.2,422.2L883.8,421.1L880.8,418.1L879.1,418.9L875.9,417.8L876.8,415.0L868.2,418.6L865.9,417.6L860.0,416.0L857.0,417.5L856.0,416.7L858.2,416.1L853.6,414.9L851.5,415.5L850.8,414.3L848.1,412.9L848.1,412.9Z M907.4,412.6L906.4,412.6L906.6,412.8L907.4,412.6Z M901.6,395.8L893.4,401.7L890.7,405.1L882.3,412.4L882.2,416.6L883.7,420.4L889.0,419.3L889.7,418.8L895.5,419.0L899.8,416.7L901.0,415.0L905.7,413.9L902.8,408.5L899.5,409.3L892.2,413.8L893.0,414.6L897.9,412.8L893.2,416.0L890.6,417.2L886.2,417.7L887.2,416.5L893.6,411.8L889.4,413.2L891.8,411.5L894.2,411.3L898.5,407.4L900.3,403.9L901.6,402.6L903.2,399.2L901.6,395.8Z " data-id="CA.NS" data-name="Nova Scotia" id="CA.NS"/>
utf-8utf-8<path d="M980.2,391.7L980.4,391.1L979.9,391.3L980.2,391.7Z M966.0,391.1L965.2,390.9L964.8,391.1L966.0,391.1Z M989.1,389.7L989.7,388.8L989.4,388.7L989.1,389.7Z M991.2,384.9L987.0,389.0L988.0,389.1L991.2,384.9Z M966.8,385.0L966.4,384.2L964.8,384.5L966.8,385.0Z M991.6,386.4L992.1,384.7L992.0,384.1L991.6,386.4Z M1000.0,376.2L996.5,375.3L996.7,377.0L1000.0,377.4L1000.0,376.2Z M993.1,353.8L991.7,354.1L991.6,354.9L993.1,353.8Z M995.4,351.3L992.9,352.3L990.1,353.5L995.4,351.3Z M1000.0,349.8L998.6,350.5L1000.0,351.6L1000.0,349.8Z M988.7,331.9L986.2,332.7L986.9,333.2L988.7,331.9Z M966.1,330.8L965.8,331.4L966.3,331.1L966.1,330.8Z M988.4,329.7L989.1,328.6L988.7,328.4L988.4,329.7Z M1000.0,354.1L998.8,355.2L993.9,353.6L989.8,357.2L990.1,355.4L987.5,356.8L987.5,356.0L983.9,357.7L986.7,353.7L981.6,354.3L980.1,355.7L978.2,353.2L974.0,354.3L977.2,351.8L975.2,350.1L980.5,348.0L984.5,344.7L980.7,346.1L979.7,345.3L976.8,344.8L977.0,342.7L973.3,344.7L966.4,350.2L964.3,349.1L966.6,347.8L968.0,344.5L979.4,334.2L980.0,331.9L987.4,326.0L987.6,324.9L984.2,324.0L984.6,321.7L990.0,322.9L993.1,319.7L990.3,320.3L986.1,318.5L976.2,322.3L967.8,331.5L963.1,333.0L965.6,334.4L959.7,338.4L949.7,351.5L944.6,355.6L944.1,357.3L946.4,359.6L944.6,359.7L944.7,362.2L941.1,359.6L939.0,361.8L934.4,368.6L931.2,368.7L933.8,365.7L926.4,370.8L934.0,369.4L939.6,369.9L933.4,372.5L929.3,375.5L921.1,380.9L921.6,381.8L921.0,385.3L922.9,386.3L933.0,385.0L934.1,384.6L940.2,384.0L941.8,385.4L944.4,385.2L950.3,386.2L955.9,386.1L963.3,385.1L964.6,381.8L970.3,380.0L968.6,383.3L964.7,386.7L968.0,388.1L970.8,387.1L969.7,388.4L972.3,387.9L973.8,385.7L973.0,385.4L974.9,383.8L977.1,385.6L981.5,385.3L979.5,386.8L974.8,388.8L970.4,393.4L966.8,394.0L962.7,396.7L964.1,398.0L971.6,397.5L975.3,394.8L975.9,393.1L980.5,388.7L985.3,389.0L989.9,383.4L990.6,380.8L993.6,381.9L993.7,385.5L993.2,389.2L987.9,395.7L986.7,398.9L987.7,399.2L992.2,396.5L996.4,393.2L995.5,397.9L995.8,401.5L996.9,400.5L1000.0,402.1L1000.0,384.2L998.4,386.7L994.8,381.4L996.3,382.7L999.2,377.5L996.2,377.4L997.0,374.8L999.5,376.0L997.7,369.6L998.5,366.3L1000.0,365.3L995.6,365.8L1000.0,363.3L1000.0,354.1Z M1000.0,366.4L998.9,367.4L1000.0,367.3L1000.0,366.4Z M996.4,313.4L996.4,312.1L995.7,312.8L996.4,313.4Z M995.1,299.3L994.4,298.6L994.2,298.8L995.1,299.3Z M997.0,294.9L996.2,294.8L996.6,295.7L997.0,294.9Z M997.7,293.4L996.7,294.5L997.8,293.9L997.7,293.4Z M1000.0,287.1L996.9,287.6L998.7,288.1L1000.0,287.1Z M985.0,283.1L983.6,283.2L982.8,284.0L985.0,283.1Z M984.7,274.3L984.0,273.9L983.9,274.1L984.7,274.3Z M987.2,270.6L986.9,270.4L986.3,270.4L987.2,270.6Z M988.0,270.5L988.5,270.1L987.6,270.3L988.0,270.5Z M986.4,270.1L987.0,269.7L986.0,269.2L986.4,270.1Z M979.9,263.9L980.0,263.3L976.6,264.0L976.8,265.8L980.9,265.2L979.9,263.9Z M950.3,246.4L949.0,247.8L951.0,247.4L950.3,246.4Z M948.8,243.6L947.8,243.2L948.5,245.4L948.8,243.6Z M941.2,238.7L943.2,240.2L945.1,238.9L941.2,238.7Z M947.5,237.1L944.5,236.6L946.0,237.8L949.6,238.4L947.5,237.1Z M949.4,230.4L946.4,231.5L945.3,233.6L947.5,235.5L949.8,231.6L949.4,230.4Z M950.1,221.4L949.4,220.8L947.1,222.0L950.1,221.4Z M948.1,219.8L946.2,220.5L946.6,221.9L948.7,221.1L948.1,219.8Z M951.6,215.9L949.4,217.1L950.7,217.8L951.6,215.9Z M949.8,214.8L948.3,214.9L948.6,216.6L949.8,214.8Z M935.0,176.3L930.5,177.4L932.8,178.9L930.2,180.4L928.5,180.4L929.4,182.9L927.5,185.5L925.2,187.4L930.1,188.7L931.0,189.4L928.0,191.1L926.7,195.7L928.3,197.0L921.9,196.5L920.5,198.3L927.5,199.5L928.5,201.1L933.4,199.2L936.4,200.5L928.7,202.4L928.1,202.9L929.4,206.1L928.0,206.2L923.9,209.1L921.1,210.1L922.1,212.4L921.7,213.5L923.1,216.2L925.9,218.7L923.6,222.2L923.8,223.1L921.6,224.9L922.3,225.7L918.2,230.0L913.7,234.4L914.9,236.7L911.1,241.2L913.5,242.0L910.7,244.4L913.0,243.6L911.7,247.7L912.6,249.6L911.1,253.4L909.6,254.4L914.0,255.3L910.0,257.2L912.7,257.8L910.5,258.9L908.4,262.6L905.2,263.3L902.1,268.5L899.5,268.0L899.2,266.7L896.2,265.3L894.2,266.4L891.8,266.2L892.5,264.9L890.9,263.1L889.1,262.6L886.8,264.4L883.4,265.3L882.6,266.3L879.1,263.4L876.1,262.6L871.0,257.7L868.8,260.2L869.3,262.2L868.2,262.6L867.3,265.5L866.0,266.1L864.2,265.0L859.9,260.9L859.6,262.0L862.0,266.3L857.9,270.4L855.7,268.6L855.4,269.5L852.1,271.0L847.8,277.8L849.5,279.6L848.9,282.2L850.7,285.5L854.6,287.0L855.3,288.0L850.9,293.6L849.9,292.3L846.7,293.1L846.1,297.1L849.0,298.0L850.7,300.0L854.4,297.7L854.8,296.7L859.6,296.5L857.6,301.3L856.3,300.7L855.1,305.5L853.3,306.0L853.4,309.1L854.9,308.9L855.6,306.4L857.5,310.1L862.6,309.7L865.4,311.7L865.3,313.9L869.7,316.0L872.7,316.1L873.5,317.9L874.8,318.0L878.2,315.8L878.6,312.0L881.6,309.3L882.8,306.4L884.4,305.0L885.3,301.6L891.2,298.7L892.3,298.5L894.5,300.7L890.0,301.2L885.8,303.3L886.2,305.6L888.7,309.1L886.4,310.3L888.7,311.5L974.1,311.5L970.8,321.2L970.8,321.2L977.6,317.3L979.0,317.2L984.3,315.0L989.5,311.1L993.3,309.6L988.8,304.1L992.5,305.7L995.4,304.9L991.5,300.7L993.9,300.1L992.4,299.3L995.9,297.5L995.6,294.3L998.3,292.5L998.3,290.2L997.4,289.8L996.3,287.0L994.2,286.0L995.6,285.0L990.2,284.2L986.2,282.7L980.1,287.6L980.5,285.2L984.4,281.4L982.7,276.2L980.4,275.3L975.5,274.4L970.9,274.9L969.9,275.7L973.1,276.0L976.9,277.3L971.7,277.3L962.8,279.3L959.3,282.2L958.3,283.5L953.9,284.5L943.5,289.1L940.0,288.5L944.1,287.4L944.5,286.6L937.8,282.7L944.7,285.5L945.8,282.2L954.8,280.9L963.4,277.5L966.7,277.4L968.4,275.2L966.1,276.2L960.0,277.5L954.5,277.9L972.8,274.0L974.0,272.5L981.9,271.8L981.5,270.3L985.1,270.1L981.9,267.0L976.4,265.8L976.6,265.3L969.2,264.3L967.7,264.4L966.9,262.0L968.3,260.6L967.1,260.4L962.6,261.9L967.1,258.7L965.4,258.5L962.2,260.9L962.5,259.5L955.9,259.6L958.1,259.2L960.0,257.1L952.7,260.5L956.2,257.4L947.5,260.5L950.2,258.7L951.4,256.8L954.0,255.0L952.2,253.7L952.7,251.1L955.4,249.5L953.7,248.7L949.7,252.7L951.7,249.9L951.3,248.9L949.6,249.9L948.3,247.7L945.2,247.6L947.1,246.8L946.1,246.0L942.5,245.4L945.8,244.9L944.2,243.5L945.6,242.0L940.0,242.2L937.7,240.6L940.8,241.0L938.8,237.3L943.4,237.4L940.9,234.8L943.3,235.3L944.3,234.0L941.9,234.0L942.6,232.5L945.9,232.2L951.2,227.4L949.7,226.7L945.5,226.6L945.3,225.8L947.3,223.5L946.7,222.6L941.6,222.4L939.9,221.8L945.2,220.6L947.9,216.7L946.6,216.4L948.2,214.1L946.3,214.6L945.2,213.7L945.9,212.1L942.0,211.0L935.9,212.9L932.9,213.4L940.6,210.3L939.7,209.7L945.9,205.5L939.9,206.3L938.5,205.1L943.7,202.4L943.5,199.0L940.4,199.3L941.5,197.0L943.0,196.4L940.2,195.5L939.5,196.1L933.3,197.7L934.5,196.0L939.9,194.9L941.5,192.4L938.7,193.6L939.9,191.4L936.4,193.0L938.7,188.3L937.1,186.8L935.5,183.0L937.3,181.1L935.4,180.7L934.0,181.8L935.3,177.3L931.7,177.3L935.0,176.3L935.0,176.3Z M936.7,175.2L935.9,175.4L935.5,175.7L935.2,176.1L935.2,176.1L936.1,176.3L936.6,175.3L936.7,175.2Z " data-id="CA.NF" data-name="Newfoundland and Labrador" id="CA.NF"/>
utf-8utf-8<path d="M852.7,398.8L854.5,395.2L850.4,397.5L846.7,401.2L846.7,401.9L850.1,402.6L849.1,405.8L854.5,406.8L854.2,408.4L859.9,410.3L862.0,409.0L864.3,409.8L862.3,411.7L864.3,413.2L866.5,413.4L869.9,412.4L868.7,412.1L873.0,407.3L875.6,406.7L878.7,405.1L873.6,404.7L865.2,405.6L860.9,405.4L857.9,403.6L853.3,404.2L853.8,401.9L852.7,398.8Z " data-id="CA.PE" data-name="Prince Edward Island" id="CA.PE"/>
utf-8</g>
</svg>
