<?xml version="1.0" ?>
<!DOCTYPE svg
  PUBLIC '-//W3C//DTD SVG 1.1//EN'
  'http://www.w3.org/Graphics/SVG/1.1/DTD/svg11.dtd'>
<svg enable_background="new 0 0 1000 1118" height="1118px" pretty_print="True" style="stroke-linejoin: round; stroke:#000; fill: none;" version="1.1" viewBox="0 0 1000 1118" width="1000px" xmlns="http://www.w3.org/2000/svg" xmlns:xlink="http://www.w3.org/1999/xlink">
utf-8<defs>
utf-8utf-8<style type="text/css">
<![CDATA[path { fill-rule: evenodd; }]]>utf-8utf-8</style>
utf-8</defs>
utf-8<metadata>
utf-8utf-8<views>
utf-8utf-8utf-8<view h="1118.94966089" padding="0" w="1000">
utf-8utf-8utf-8utf-8<proj flip="auto" id="robinson" lon0="20.3147530538"/>
utf-8utf-8utf-8utf-8<bbox h="315.81" w="282.49" x="180.55" y="-90.14"/>
utf-8utf-8utf-8</view>
utf-8utf-8</views>
utf-8</metadata>
utf-8<g class="" id="provinces">
utf-8utf-8<path d="M227.4,429.0L230.7,433.6L232.2,436.6L233.6,437.3L246.4,437.3L246.8,430.9L245.4,429.2L242.7,427.5L242.5,425.6L256.3,426.0L262.0,421.1L279.7,409.3L288.8,405.8L291.7,403.6L299.1,401.3L301.1,400.3L305.7,396.5L311.3,389.0L312.2,386.6L314.8,385.8L322.5,387.1L323.8,387.7L327.2,391.4L333.7,393.9L345.0,392.2L347.2,391.6L350.3,387.4L350.0,384.3L347.7,381.5L346.4,375.3L346.6,373.9L353.2,368.8L356.1,363.0L356.7,362.9L360.5,369.5L361.4,377.0L368.4,389.3L372.6,394.3L376.4,403.9L381.9,413.4L383.9,422.4L383.9,423.9L388.1,425.4L389.2,424.8L392.4,419.7L395.2,417.6L398.9,419.9L401.1,424.6L403.6,431.6L406.1,433.8L414.5,433.9L418.5,434.2L420.9,435.5L424.2,439.5L427.1,440.2L431.7,442.4L434.7,441.4L437.4,439.6L442.5,439.9L444.0,438.5L445.6,438.8L461.0,459.4L461.7,461.9L462.0,466.4L471.2,467.7L475.1,467.8L483.4,465.9L485.4,464.5L486.0,458.4L486.8,457.5L493.4,461.9L495.2,462.3L496.5,463.7L502.4,467.2L505.1,468.4L508.1,466.9L508.7,466.5L509.5,465.8L512.4,461.8L516.4,459.5L519.8,455.1L522.8,454.5L523.9,456.6L524.1,463.5L525.5,465.2L528.6,464.1L529.3,461.3L526.1,448.1L525.5,441.9L523.1,433.9L523.4,432.3L531.3,434.4L540.8,434.8L541.7,434.3L547.3,426.0L550.0,426.0L554.5,428.7L556.6,428.9L561.8,432.3L566.6,433.5L569.8,433.4L573.6,435.3L577.6,441.8L580.3,441.0L594.9,437.8L602.6,438.3L602.8,435.4L604.2,433.3L607.5,430.5L608.0,425.2L609.9,423.7L618.2,423.5L623.3,422.3L641.0,424.8L639.4,413.3L635.0,401.9L633.1,400.7L626.4,401.2L622.7,400.2L618.2,397.4L606.6,387.4L605.8,384.9L603.7,382.2L601.0,380.3L596.5,378.1L588.1,370.1L586.8,368.4L586.3,365.4L592.7,359.9L599.3,357.1L599.5,356.5L596.9,353.6L592.0,346.3L589.5,344.9L582.3,347.8L576.9,343.8L566.5,343.1L566.0,342.3L573.6,335.5L575.6,335.3L580.1,337.2L587.5,334.2L588.1,333.5L587.6,330.0L579.8,316.9L574.3,309.7L565.4,294.3L563.6,288.5L563.2,285.2L560.0,279.6L559.0,276.8L559.4,271.7L556.9,263.1L556.9,259.5L555.1,256.5L552.6,249.7L546.9,238.2L539.6,231.9L529.8,229.8L531.8,225.1L536.9,221.1L539.7,215.9L540.9,206.3L544.6,196.7L544.2,195.1L546.0,193.4L548.3,194.5L552.1,198.3L557.9,198.3L560.8,194.2L563.0,193.3L563.2,191.3L566.1,189.7L569.4,193.6L572.0,194.4L578.3,190.4L583.7,185.7L593.2,186.9L597.6,188.9L600.4,187.5L599.9,183.2L598.6,180.0L594.8,176.9L587.8,172.6L585.2,169.2L581.7,168.5L574.3,170.3L569.7,168.6L564.7,161.4L564.4,160.5L565.5,150.5L567.4,145.2L567.6,143.0L570.2,132.6L568.1,130.7L564.9,132.4L556.6,141.1L555.7,140.1L554.6,135.6L555.5,128.7L551.9,123.1L549.3,122.5L546.7,120.2L546.8,117.0L549.1,114.0L554.2,112.0L558.8,110.7L562.2,108.6L568.5,107.8L573.1,102.2L576.0,101.0L577.9,102.6L582.3,103.3L586.4,103.1L592.2,94.9L592.5,93.4L588.3,91.6L584.2,92.6L580.0,91.1L578.4,89.7L573.5,87.4L567.8,89.8L564.6,88.8L561.0,90.2L554.2,87.4L551.9,82.2L549.2,81.6L542.8,75.6L536.9,72.9L535.9,73.3L529.2,73.9L524.1,72.6L518.9,69.1L516.3,68.5L513.3,67.1L510.6,67.7L507.6,67.5L503.8,65.4L501.8,65.4L499.5,64.2L494.1,64.1L489.1,67.1L485.6,65.6L482.7,65.5L479.6,64.6L475.9,61.8L469.1,63.2L466.8,61.3L463.9,57.9L458.9,55.8L454.1,54.7L452.0,54.8L440.0,57.3L437.8,56.2L431.6,48.9L432.3,44.7L429.1,41.4L426.8,36.8L421.6,34.3L408.4,23.8L403.8,22.7L401.7,20.4L399.7,17.1L393.5,14.2L387.5,14.1L385.6,13.1L377.2,14.5L375.4,17.1L370.7,20.3L368.3,21.6L366.1,25.2L362.9,25.4L357.0,33.9L356.6,36.2L354.0,38.6L350.7,43.0L350.1,44.7L347.1,48.4L344.5,55.9L341.6,59.2L339.1,60.1L336.0,60.2L334.0,59.5L332.0,63.4L336.4,71.5L337.8,78.8L337.2,85.4L336.2,87.4L336.1,91.4L335.2,98.8L337.0,112.6L337.4,114.2L337.9,121.7L337.3,130.3L332.0,137.0L327.9,148.4L325.0,157.8L320.4,166.2L317.4,169.4L316.3,171.3L315.7,174.8L313.1,181.1L312.2,181.4L310.4,184.4L308.4,190.7L308.9,195.2L308.6,200.9L308.9,203.6L308.1,208.5L308.6,225.5L308.5,226.8L304.9,237.8L300.3,253.4L299.2,254.9L297.8,258.5L298.5,262.6L298.4,267.3L300.0,274.9L299.2,281.1L300.6,287.0L302.4,290.7L301.7,297.4L297.2,304.5L293.1,317.2L292.2,319.3L290.0,330.4L291.3,339.3L291.8,349.8L286.8,356.0L286.7,356.9L274.0,373.3L268.0,379.3L255.6,383.4L253.9,383.7L247.7,390.6L244.0,393.7L238.0,406.6L236.3,409.1L231.6,422.8L227.4,429.0Z " data-id="CD.EQ" data-name="Équateur" id="CD.EQ"/>
utf-8utf-8<path d="M536.9,72.9L542.8,75.6L549.2,81.6L551.9,82.2L554.2,87.4L561.0,90.2L564.6,88.8L567.8,89.8L573.5,87.4L578.4,89.7L580.0,91.1L584.2,92.6L588.3,91.6L592.5,93.4L592.2,94.9L586.4,103.1L582.3,103.3L577.9,102.6L576.0,101.0L573.1,102.2L568.5,107.8L562.2,108.6L558.8,110.7L554.2,112.0L549.1,114.0L546.8,117.0L546.7,120.2L549.3,122.5L551.9,123.1L555.5,128.7L554.6,135.6L555.7,140.1L556.6,141.1L564.9,132.4L568.1,130.7L570.2,132.6L567.6,143.0L567.4,145.2L565.5,150.5L564.4,160.5L564.7,161.4L569.7,168.6L574.3,170.3L581.7,168.5L585.2,169.2L587.8,172.6L594.8,176.9L598.6,180.0L599.9,183.2L600.4,187.5L597.6,188.9L593.2,186.9L583.7,185.7L578.3,190.4L572.0,194.4L569.4,193.6L566.1,189.7L563.2,191.3L563.0,193.3L560.8,194.2L557.9,198.3L552.1,198.3L548.3,194.5L546.0,193.4L544.2,195.1L544.6,196.7L540.9,206.3L539.7,215.9L536.9,221.1L531.8,225.1L529.8,229.8L539.6,231.9L546.9,238.2L552.6,249.7L555.1,256.5L556.9,259.5L556.9,263.1L559.4,271.7L559.0,276.8L560.0,279.6L563.2,285.2L563.6,288.5L565.4,294.3L574.3,309.7L579.8,316.9L587.6,330.0L588.1,333.5L587.5,334.2L580.1,337.2L575.6,335.3L573.6,335.5L566.0,342.3L566.5,343.1L576.9,343.8L582.3,347.8L589.5,344.9L592.0,346.3L596.9,353.6L599.5,356.5L599.3,357.1L592.7,359.9L586.3,365.4L586.8,368.4L588.1,370.1L596.5,378.1L601.0,380.3L603.7,382.2L605.8,384.9L606.6,387.4L618.2,397.4L622.7,400.2L626.4,401.2L633.1,400.7L635.0,401.9L639.4,413.3L641.0,424.8L641.6,426.6L642.5,433.8L662.7,434.8L671.5,433.6L674.8,436.4L675.1,438.7L674.6,442.3L678.6,443.7L685.0,443.7L688.6,441.8L697.2,431.3L703.8,428.5L706.2,429.6L713.0,429.0L715.4,425.5L716.6,414.0L716.3,411.4L716.5,401.7L720.3,405.7L720.3,406.5L723.7,407.2L724.5,406.6L726.8,400.4L727.5,396.1L731.1,390.7L732.0,384.9L731.2,382.9L731.6,377.9L732.9,375.2L739.0,370.8L739.2,368.5L737.7,356.4L739.3,352.8L743.9,348.2L744.2,343.3L743.2,342.0L737.5,337.6L732.7,332.2L730.1,330.0L731.7,324.6L733.6,324.8L736.2,326.7L738.5,329.6L739.8,329.8L741.5,333.3L744.2,335.8L748.2,340.7L749.1,340.8L755.5,339.3L758.2,336.9L760.6,336.8L767.9,333.5L767.5,331.8L771.2,332.2L779.6,337.3L780.4,340.0L785.8,344.4L791.7,345.2L794.8,347.8L800.6,347.2L803.6,349.7L807.5,349.7L811.4,351.5L814.6,352.4L817.5,350.6L823.2,343.5L824.5,340.7L827.2,337.5L832.9,334.1L834.7,331.0L833.7,318.8L836.1,309.2L834.7,305.3L832.1,302.6L831.7,297.3L828.3,290.4L826.8,290.7L821.3,289.8L815.8,286.8L815.6,284.6L821.8,283.8L829.2,278.2L832.0,277.2L846.3,274.9L849.1,275.7L855.0,282.4L858.6,284.0L867.3,281.7L871.5,281.3L879.6,282.3L883.8,281.4L888.9,278.2L890.0,278.1L900.6,281.8L903.1,281.8L906.2,279.2L905.1,277.5L902.5,276.6L900.0,273.2L902.3,268.2L907.9,270.1L911.9,266.9L918.0,266.6L920.3,265.6L922.6,263.1L926.1,262.0L929.1,266.6L933.3,267.8L935.5,266.7L941.6,264.9L944.7,259.6L944.7,254.9L947.5,249.6L950.4,250.2L952.5,247.5L956.7,246.9L953.9,244.3L953.6,241.1L955.5,239.3L958.7,232.0L959.4,229.3L962.1,226.0L965.8,223.7L967.5,220.2L976.0,212.1L981.0,205.7L986.9,202.2L993.5,197.5L996.0,193.9L997.9,193.2L998.1,191.4L999.6,190.1L995.4,187.0L994.7,182.2L992.2,183.3L988.3,183.0L987.8,181.2L984.6,176.8L981.7,176.1L980.2,179.7L978.7,180.5L975.9,177.9L974.6,174.1L970.2,173.8L970.0,172.8L971.6,164.4L972.6,162.6L976.2,153.6L977.4,149.6L976.9,144.9L975.7,142.5L971.7,138.7L971.6,137.6L974.6,126.3L977.9,120.5L979.4,118.6L979.3,110.0L975.7,110.6L976.2,107.5L972.3,101.6L971.4,100.8L968.6,103.4L961.3,105.0L960.7,104.5L961.7,100.8L960.4,91.0L959.6,89.4L956.5,89.5L954.1,88.7L949.8,85.8L946.3,84.6L942.0,84.2L939.8,79.4L938.4,75.5L935.0,74.2L930.1,67.8L928.4,67.6L928.7,64.5L927.1,62.0L922.1,61.0L920.7,59.7L920.1,54.9L921.0,48.6L916.0,46.7L914.5,45.1L911.0,43.4L904.0,41.7L902.8,42.6L902.5,47.0L901.5,48.0L897.2,54.9L895.4,58.6L889.8,61.6L888.6,60.9L885.2,57.1L881.6,54.6L875.5,53.0L869.7,53.2L868.4,52.6L867.3,49.0L863.4,50.0L861.3,54.7L857.0,57.5L856.3,59.4L847.2,65.2L845.9,64.8L844.8,62.1L843.0,60.7L838.5,61.3L836.5,61.0L832.4,55.3L829.7,56.7L828.1,54.1L827.8,48.9L825.1,48.5L819.5,48.8L815.1,46.2L814.7,45.3L814.5,36.7L810.4,34.2L809.0,29.4L808.0,28.7L801.4,26.9L800.2,23.9L798.6,22.4L797.4,18.1L792.3,16.3L790.1,14.4L780.4,10.4L778.1,10.2L772.3,13.3L770.9,14.7L767.4,20.0L764.4,19.9L760.7,16.7L758.2,16.7L755.7,17.6L753.3,17.5L748.4,19.4L746.1,18.3L745.1,16.1L740.5,13.5L735.3,12.0L734.9,11.0L728.7,6.9L726.6,7.8L726.7,9.3L723.9,10.5L720.0,8.9L719.8,10.6L717.4,11.0L717.3,12.2L715.3,9.4L712.9,10.7L711.1,6.7L710.0,7.7L707.9,6.9L705.7,4.5L701.4,3.3L701.0,2.1L698.0,0.0L692.3,2.8L690.3,2.5L688.6,3.8L689.3,4.9L687.3,7.3L685.8,11.3L687.5,16.0L685.1,20.6L681.7,21.7L678.3,21.9L676.5,21.2L673.8,25.1L671.9,24.5L666.0,23.9L661.9,26.0L660.4,25.5L655.7,27.1L652.3,26.7L649.4,22.5L649.4,21.3L641.4,15.9L640.2,16.3L638.1,15.0L636.9,19.1L638.2,19.4L636.7,21.5L633.0,22.1L630.7,26.4L630.4,25.0L627.5,25.6L626.0,27.7L622.2,27.0L620.0,28.8L615.3,29.9L614.9,33.1L607.0,33.2L605.0,34.9L600.5,36.1L598.5,37.4L594.9,38.6L591.8,41.4L588.8,42.5L585.7,46.7L576.2,40.6L574.1,37.8L570.5,39.4L566.2,37.1L564.1,32.1L559.4,33.3L559.8,36.2L557.7,39.4L555.0,38.2L550.9,44.3L550.4,48.9L548.5,52.8L545.0,52.8L544.1,53.5L544.2,57.7L545.3,59.4L541.4,65.1L541.8,67.5L539.1,71.2L537.2,72.7L536.9,72.9Z " data-id="CD.HC" data-name="Orientale" id="CD.HC"/>
utf-8utf-8<path d="M461.7,461.9L461.0,459.4L445.6,438.8L444.0,438.5L442.5,439.9L437.4,439.6L434.7,441.4L431.7,442.4L427.1,440.2L424.2,439.5L420.9,435.5L418.5,434.2L414.5,433.9L406.1,433.8L403.6,431.6L401.1,424.6L398.9,419.9L395.2,417.6L392.4,419.7L389.2,424.8L388.1,425.4L383.9,423.9L383.9,422.4L381.9,413.4L376.4,403.9L372.6,394.3L368.4,389.3L361.4,377.0L360.5,369.5L356.7,362.9L356.1,363.0L353.2,368.8L346.6,373.9L346.4,375.3L347.7,381.5L350.0,384.3L350.3,387.4L347.2,391.6L345.0,392.2L333.7,393.9L327.2,391.4L323.8,387.7L322.5,387.1L314.8,385.8L312.2,386.6L311.3,389.0L305.7,396.5L301.1,400.3L299.1,401.3L291.7,403.6L288.8,405.8L279.7,409.3L262.0,421.1L256.3,426.0L242.5,425.6L242.7,427.5L245.4,429.2L246.8,430.9L246.4,437.3L233.6,437.3L232.2,436.6L230.7,433.6L227.4,429.0L227.3,429.2L223.2,433.9L214.8,442.6L213.3,443.7L210.0,448.2L209.1,454.4L209.9,458.0L209.9,460.8L211.6,475.1L210.4,483.8L209.3,498.3L209.3,504.8L210.0,508.3L209.7,510.8L210.4,518.2L207.8,523.2L205.5,529.0L202.2,533.5L198.9,540.5L198.0,543.4L194.7,551.1L193.5,552.5L196.9,554.8L198.7,555.3L203.1,554.7L207.1,554.9L210.6,556.1L213.0,558.0L219.7,561.9L224.0,568.6L225.2,569.6L227.9,576.7L225.1,584.9L221.2,587.6L215.8,598.3L213.3,601.8L213.3,608.5L213.5,615.3L212.3,619.3L212.0,621.4L212.4,628.4L210.3,641.2L210.7,645.9L210.3,656.9L203.8,666.2L207.2,666.1L215.1,666.0L219.3,668.3L225.5,667.9L229.8,670.2L228.9,672.0L229.7,673.9L230.1,678.3L231.3,677.9L233.0,682.0L234.8,683.0L236.4,685.8L235.8,688.4L235.8,692.7L234.9,699.0L236.0,700.0L235.2,702.2L236.3,702.3L236.7,707.4L238.3,716.6L241.2,721.2L242.3,724.4L244.7,724.9L246.9,730.7L246.6,732.1L248.9,734.8L248.2,738.0L246.6,737.5L246.4,739.0L247.5,742.9L247.3,746.1L249.6,749.0L249.9,751.6L255.0,754.8L255.2,757.8L259.5,759.8L257.7,761.4L261.4,768.7L264.9,771.0L265.0,775.4L266.6,776.3L266.4,778.6L269.5,780.9L273.4,786.4L272.7,787.4L274.9,790.0L275.4,791.9L277.9,795.1L277.3,796.8L278.1,798.3L282.5,799.1L286.9,797.3L290.9,798.1L294.2,796.1L298.3,796.9L300.9,799.5L307.0,799.7L307.3,795.2L318.5,793.3L320.4,794.2L323.9,793.1L328.5,793.1L329.0,789.2L340.6,789.2L342.4,793.4L372.8,793.4L371.7,788.7L371.7,785.4L374.1,777.2L372.9,769.5L373.0,768.0L376.6,768.3L379.0,764.8L381.3,762.4L381.4,760.5L379.5,752.7L380.2,743.1L383.0,736.4L382.1,734.0L404.6,734.0L405.1,734.0L402.9,723.3L397.1,715.2L394.2,709.7L393.2,707.2L391.3,686.4L391.8,683.9L402.2,674.8L405.9,673.8L410.8,666.5L413.5,665.0L416.2,659.8L417.3,652.8L415.8,648.0L415.8,636.8L417.3,632.3L418.1,624.5L416.6,618.9L415.8,614.6L414.4,612.5L412.6,604.1L411.2,601.4L411.8,591.1L412.6,588.7L413.8,587.6L413.1,581.8L410.6,576.6L410.9,572.3L415.6,572.6L418.2,575.5L419.1,575.0L422.4,579.2L426.4,579.1L427.7,574.5L430.4,572.2L431.3,572.7L439.9,568.4L443.7,563.8L444.0,562.6L443.7,551.4L443.3,548.0L443.5,540.9L442.5,526.9L443.3,516.1L443.8,513.3L453.2,486.5L459.5,476.3L460.0,470.7L462.0,466.4L461.7,461.9Z " data-id="CD.BN" data-name="Bandundu" id="CD.BN"/>
utf-8utf-8<path d="M508.1,466.9L505.1,468.4L502.4,467.2L496.5,463.7L495.2,462.3L493.4,461.9L486.8,457.5L486.0,458.4L485.4,464.5L483.4,465.9L475.1,467.8L471.2,467.7L462.0,466.4L460.0,470.7L459.5,476.3L453.2,486.5L443.8,513.3L443.3,516.1L442.5,526.9L443.5,540.9L443.3,548.0L443.7,551.4L444.0,562.6L443.7,563.8L439.9,568.4L431.3,572.7L430.4,572.2L427.7,574.5L426.4,579.1L422.4,579.2L419.1,575.0L418.2,575.5L415.6,572.6L410.9,572.3L410.6,576.6L413.1,581.8L413.8,587.6L412.6,588.7L411.8,591.1L411.2,601.4L412.6,604.1L414.4,612.5L415.8,614.6L416.6,618.9L418.1,624.5L417.3,632.3L415.8,636.8L415.8,648.0L417.3,652.8L416.2,659.8L413.5,665.0L410.8,666.5L405.9,673.8L402.2,674.8L391.8,683.9L391.3,686.4L393.2,707.2L394.2,709.7L397.1,715.2L402.9,723.3L405.1,734.0L406.8,734.0L422.5,734.0L423.8,729.1L439.1,728.9L434.4,742.4L434.1,750.9L499.1,750.7L501.4,752.1L503.1,755.9L503.6,768.7L502.3,771.5L502.1,772.2L509.3,775.5L515.0,779.9L520.4,781.3L523.9,781.7L536.4,780.6L539.1,779.6L541.6,777.2L545.4,779.4L546.0,783.4L547.3,785.4L557.8,787.3L560.3,786.8L567.8,783.7L571.5,781.2L573.3,764.3L574.7,756.5L574.2,739.0L576.5,730.8L574.4,727.5L569.0,724.1L567.5,722.3L563.8,716.3L562.0,715.2L560.6,708.6L564.2,701.5L566.3,692.3L569.1,686.5L568.9,685.6L565.5,682.0L563.3,678.4L562.3,673.7L562.2,666.3L563.7,662.0L566.8,660.5L572.2,660.3L584.6,656.9L584.8,659.9L586.9,660.5L592.2,655.8L600.4,651.9L602.2,652.2L603.4,650.9L603.5,640.6L601.8,637.7L585.7,628.2L580.8,630.2L578.2,630.3L573.5,624.4L568.1,618.9L564.0,615.4L563.1,613.8L562.8,608.5L563.5,606.5L565.4,604.0L572.5,601.9L574.6,596.8L573.6,590.7L571.6,587.7L562.9,585.7L557.6,584.8L553.6,579.2L548.6,573.4L546.0,571.2L539.3,567.5L535.4,564.1L529.3,555.7L524.5,556.4L523.5,557.5L520.3,557.6L515.4,551.8L517.3,550.7L523.7,549.6L521.2,539.9L518.7,537.0L515.0,536.0L512.8,534.0L512.3,531.1L512.4,526.7L516.4,519.3L516.8,516.9L519.6,511.3L523.9,497.8L522.1,490.3L515.6,480.3L512.4,470.9L511.4,469.2L508.7,466.5L508.1,466.9Z " data-id="CD.KC" data-name="Kasaï-Occidental" id="CD.KC"/>
utf-8utf-8<path d="M41.4,666.8L38.2,667.1L32.7,667.0L28.3,671.1L29.2,672.2L31.6,671.9L38.6,668.5L41.4,666.8Z M203.8,666.2L210.3,656.9L210.7,645.9L210.3,641.2L212.4,628.4L212.0,621.4L212.3,619.3L213.5,615.3L200.7,614.6L196.1,612.4L193.5,610.4L192.8,614.8L188.9,617.2L183.3,615.0L179.9,611.7L179.3,610.3L180.1,608.5L184.2,606.7L186.1,598.3L184.7,595.7L181.6,592.0L182.5,589.3L170.1,587.7L168.4,589.1L167.7,593.9L164.9,595.0L161.2,591.7L154.7,581.2L151.9,585.7L147.2,589.9L143.1,594.4L138.8,602.5L137.0,605.1L127.5,609.6L121.6,605.9L117.9,607.8L115.3,608.6L115.1,606.8L116.0,602.2L115.7,596.1L113.6,593.2L113.2,588.3L116.1,586.5L118.9,582.6L115.1,576.9L114.8,572.4L109.2,574.6L104.2,578.4L102.2,579.1L97.6,579.8L95.6,580.6L91.1,585.6L88.0,585.2L84.6,581.3L83.5,581.2L79.4,583.6L79.9,589.3L78.7,594.1L79.0,597.2L77.8,597.3L77.4,599.4L75.3,599.0L73.0,602.2L71.3,602.3L69.0,600.8L67.3,602.0L64.6,606.0L61.5,605.9L61.1,603.9L59.6,602.1L51.1,596.1L50.5,594.2L48.0,590.2L46.7,590.4L45.5,595.4L43.6,596.2L33.4,598.9L30.9,601.0L29.8,605.0L26.2,607.9L25.2,610.8L21.9,611.5L20.4,615.3L18.5,616.8L12.9,618.6L13.2,621.2L17.1,623.0L17.4,625.0L16.1,658.4L7.5,658.3L3.0,659.0L0.4,660.6L7.9,671.4L9.0,672.2L10.1,675.0L11.0,673.4L12.8,673.2L13.3,675.4L12.8,677.7L18.4,676.1L21.1,674.5L24.5,674.6L27.1,673.4L26.9,670.6L29.5,666.6L32.4,664.5L37.8,663.6L45.2,666.5L51.4,666.1L58.0,667.2L67.5,666.2L69.0,666.8L71.1,666.2L75.2,666.7L91.0,665.2L95.1,667.1L101.3,666.5L105.6,667.9L116.8,668.3L119.2,667.8L124.1,669.0L130.8,667.6L202.5,666.2L203.8,666.2Z " data-id="CD.BC" data-name="Bas-Congo" id="CD.BC"/>
utf-8utf-8<path d="M213.3,608.5L213.3,601.8L215.8,598.3L221.2,587.6L225.1,584.9L227.9,576.7L225.2,569.6L224.0,568.6L219.7,561.9L213.0,558.0L210.6,556.1L207.1,554.9L203.1,554.7L198.7,555.3L196.9,554.8L193.5,552.5L193.2,552.8L191.2,554.0L184.2,555.5L176.6,558.3L174.2,560.6L171.1,568.3L167.1,570.5L156.7,578.1L154.7,581.2L161.2,591.7L164.9,595.0L167.7,593.9L168.4,589.1L170.1,587.7L182.5,589.3L181.6,592.0L184.7,595.7L186.1,598.3L184.2,606.7L180.1,608.5L179.3,610.3L179.9,611.7L183.3,615.0L188.9,617.2L192.8,614.8L193.5,610.4L196.1,612.4L200.7,614.6L213.5,615.3L213.3,608.5Z " data-id="CD.KN" data-name="Kinshasa City" id="CD.KN"/>
utf-8utf-8<path d="M885.3,433.0L883.5,434.5L883.0,437.3L883.8,436.9L883.4,440.3L879.7,449.5L880.9,449.6L881.4,452.8L885.6,450.5L886.3,444.4L884.7,441.4L886.8,439.0L885.8,434.9L886.8,433.1L885.3,433.0Z M869.9,615.3L885.0,615.3L885.0,615.3L885.0,615.1L884.6,614.1L884.4,601.7L885.2,592.5L887.7,585.7L889.9,586.6L890.1,579.7L890.9,578.0L893.2,563.1L890.8,563.5L887.8,572.1L887.4,575.6L881.7,574.2L885.2,568.3L884.1,565.4L884.4,557.2L885.1,555.2L884.8,551.1L886.3,546.0L884.9,542.6L887.9,537.0L887.1,522.0L887.6,519.5L891.9,511.7L891.5,510.5L892.0,504.4L892.7,504.0L892.6,499.5L888.5,497.0L886.8,493.2L885.1,492.3L883.0,486.5L879.7,484.7L880.9,481.7L881.9,481.6L879.4,478.5L877.8,478.3L874.8,476.1L875.2,471.6L873.3,468.9L872.3,465.3L872.0,460.6L873.1,458.8L878.0,455.9L879.3,451.9L874.6,456.8L876.1,450.7L873.5,452.8L874.2,448.2L874.9,447.2L873.2,445.8L874.6,444.2L879.0,440.6L877.8,436.4L875.9,437.8L875.0,440.6L874.7,438.1L878.0,434.1L880.5,427.5L882.3,424.7L881.9,421.2L876.9,421.3L874.5,417.6L872.2,419.4L867.6,424.7L863.4,424.6L860.9,429.5L858.7,432.6L857.7,433.0L851.8,431.5L851.0,428.0L847.9,426.4L846.1,429.7L845.9,434.1L844.3,437.1L837.2,438.7L831.7,441.1L826.3,440.2L821.8,435.6L818.6,435.7L815.8,437.5L798.8,438.5L796.9,440.2L796.6,442.4L794.1,446.7L789.0,450.1L785.8,451.3L783.7,450.6L782.7,451.3L779.1,449.2L778.0,447.6L775.4,446.6L771.8,446.1L769.2,445.0L768.1,447.7L767.0,454.9L767.1,468.1L770.1,478.8L771.6,483.4L771.7,485.3L775.0,490.0L778.0,493.1L778.8,495.1L778.9,498.6L781.3,503.9L781.0,506.1L781.6,511.2L780.0,516.9L781.4,520.8L782.1,525.7L779.9,538.2L780.5,542.4L781.7,544.6L785.7,548.9L792.7,551.4L796.7,553.3L801.2,554.6L809.7,554.4L811.8,554.8L815.4,556.8L818.6,560.1L828.7,565.7L829.1,566.7L832.8,566.9L834.6,564.6L836.6,564.0L842.7,568.3L845.7,572.4L851.0,576.3L852.8,578.7L858.9,592.5L861.2,596.7L865.6,609.8L868.9,614.4L869.9,615.3Z " data-id="CD.KV" data-name="Sud-Kivu" id="CD.KV"/>
utf-8utf-8<path d="M623.3,422.3L618.2,423.5L609.9,423.7L608.0,425.2L607.5,430.5L604.2,433.3L602.8,435.4L602.6,438.3L594.9,437.8L580.3,441.0L577.6,441.8L573.6,435.3L569.8,433.4L566.6,433.5L561.8,432.3L556.6,428.9L554.5,428.7L550.0,426.0L547.3,426.0L541.7,434.3L540.8,434.8L531.3,434.4L523.4,432.3L523.1,433.9L525.5,441.9L526.1,448.1L529.3,461.3L528.6,464.1L525.5,465.2L524.1,463.5L523.9,456.6L522.8,454.5L519.8,455.1L516.4,459.5L512.4,461.8L509.5,465.8L508.7,466.5L511.4,469.2L512.4,470.9L515.6,480.3L522.1,490.3L523.9,497.8L519.6,511.3L516.8,516.9L516.4,519.3L512.4,526.7L512.3,531.1L512.8,534.0L515.0,536.0L518.7,537.0L521.2,539.9L523.7,549.6L517.3,550.7L515.4,551.8L520.3,557.6L523.5,557.5L524.5,556.4L529.3,555.7L535.4,564.1L539.3,567.5L546.0,571.2L548.6,573.4L553.6,579.2L557.6,584.8L562.9,585.7L571.6,587.7L573.6,590.7L574.6,596.8L572.5,601.9L565.4,604.0L563.5,606.5L562.8,608.5L563.1,613.8L564.0,615.4L568.1,618.9L573.5,624.4L578.2,630.3L580.8,630.2L585.7,628.2L601.8,637.7L603.5,640.6L603.4,650.9L602.2,652.2L600.4,651.9L592.2,655.8L586.9,660.5L584.8,659.9L584.6,656.9L572.2,660.3L566.8,660.5L563.7,662.0L562.2,666.3L562.3,673.7L563.3,678.4L565.5,682.0L568.9,685.6L569.1,686.5L566.3,692.3L564.2,701.5L560.6,708.6L562.0,715.2L563.8,716.3L567.5,722.3L569.0,724.1L574.4,727.5L576.5,730.8L574.2,739.0L574.7,756.5L573.3,764.3L571.5,781.2L572.0,782.6L572.8,787.0L574.3,789.4L577.7,787.4L583.8,787.7L585.9,788.6L592.8,787.6L597.5,787.9L601.5,786.1L603.0,787.4L604.9,786.7L609.2,783.0L612.7,783.2L611.5,777.2L611.8,767.5L612.1,765.0L613.9,762.2L615.4,754.3L614.2,753.7L614.8,744.9L616.4,743.8L618.1,740.0L620.0,737.9L622.4,737.3L623.7,735.3L623.7,732.7L622.5,730.9L624.0,727.8L623.3,726.8L626.8,726.9L627.8,728.1L628.2,732.4L635.4,737.2L639.8,738.1L642.4,734.6L643.9,733.7L646.5,733.6L655.7,728.0L663.3,721.5L665.0,715.2L665.9,714.4L669.8,713.7L672.3,713.7L683.6,719.6L685.8,719.5L690.6,717.3L695.6,706.8L693.1,706.5L689.8,707.1L683.8,701.0L682.4,697.7L686.4,694.1L689.3,694.3L694.7,695.7L699.8,693.3L701.7,693.2L708.9,686.7L712.7,686.2L716.6,687.7L718.4,691.3L720.6,692.6L723.1,690.2L729.0,689.9L730.3,688.0L728.8,682.2L728.7,679.7L730.2,673.9L730.0,670.3L730.4,662.5L730.1,660.6L725.7,655.0L725.2,653.4L726.5,649.3L729.0,645.9L726.6,639.9L727.1,634.8L736.2,615.3L675.2,615.2L672.9,614.6L670.6,609.2L670.0,606.2L668.0,603.1L664.8,600.6L663.8,597.4L662.7,596.6L662.5,593.8L663.5,591.2L666.2,588.4L668.2,585.2L670.8,582.4L668.8,579.2L669.8,574.2L670.8,566.0L669.6,564.7L668.9,559.3L666.3,558.1L664.9,556.6L664.9,554.1L661.7,551.1L660.0,547.4L660.7,546.5L657.6,544.6L657.3,541.6L659.9,537.4L658.8,531.2L659.0,528.8L660.2,526.7L659.3,524.9L662.7,521.0L663.6,519.0L665.8,517.6L666.0,512.5L668.1,512.4L671.2,505.9L671.1,500.3L672.2,501.1L672.0,496.6L674.2,491.5L674.6,489.0L676.7,482.2L676.0,479.5L675.3,471.0L675.8,469.2L675.6,463.9L657.6,465.1L654.4,461.8L649.4,451.1L644.7,443.8L643.1,438.2L642.5,433.8L641.6,426.6L641.0,424.8L623.3,422.3Z " data-id="CD.KR" data-name="Kasaï-Oriental" id="CD.KR"/>
utf-8utf-8<path d="M885.0,615.3L885.0,615.3L869.9,615.3L736.2,615.3L727.1,634.8L726.6,639.9L729.0,645.9L726.5,649.3L725.2,653.4L725.7,655.0L730.1,660.6L730.4,662.5L730.0,670.3L730.2,673.9L728.7,679.7L728.8,682.2L730.3,688.0L729.0,689.9L723.1,690.2L720.6,692.6L718.4,691.3L716.6,687.7L712.7,686.2L708.9,686.7L701.7,693.2L699.8,693.3L694.7,695.7L689.3,694.3L686.4,694.1L682.4,697.7L683.8,701.0L689.8,707.1L693.1,706.5L695.6,706.8L690.6,717.3L685.8,719.5L683.6,719.6L672.3,713.7L669.8,713.7L665.9,714.4L665.0,715.2L663.3,721.5L655.7,728.0L646.5,733.6L643.9,733.7L642.4,734.6L639.8,738.1L635.4,737.2L628.2,732.4L627.8,728.1L626.8,726.9L623.3,726.8L624.0,727.8L622.5,730.9L623.7,732.7L623.7,735.3L622.4,737.3L620.0,737.9L618.1,740.0L616.4,743.8L614.8,744.9L614.2,753.7L615.4,754.3L613.9,762.2L612.1,765.0L611.8,767.5L611.5,777.2L612.7,783.2L609.2,783.0L604.9,786.7L603.0,787.4L601.5,786.1L597.5,787.9L592.8,787.6L585.9,788.6L583.8,787.7L577.7,787.4L574.3,789.4L572.8,787.0L572.0,782.6L571.5,781.2L567.8,783.7L560.3,786.8L557.8,787.3L547.3,785.4L546.0,783.4L545.4,779.4L541.6,777.2L539.1,779.6L536.4,780.6L523.9,781.7L520.4,781.3L515.0,779.9L509.3,775.5L502.1,772.2L501.7,773.4L499.0,781.8L498.9,787.3L497.9,789.0L498.0,793.1L501.7,800.0L503.0,801.7L504.0,808.9L506.5,812.8L505.4,813.9L507.2,817.7L507.3,822.9L506.0,827.4L506.1,829.7L504.2,839.6L503.8,840.0L502.4,848.1L502.5,851.2L501.6,858.0L501.5,868.9L499.8,872.6L498.8,876.6L500.3,879.1L503.1,891.5L506.4,895.4L507.1,897.7L508.6,897.0L509.2,900.5L512.2,904.5L516.9,906.9L517.5,907.8L519.3,914.4L519.6,919.6L522.6,927.8L523.8,930.2L524.4,937.0L523.2,939.2L522.9,941.7L524.5,944.5L524.6,951.5L525.5,953.0L525.0,957.0L520.0,959.1L516.9,962.4L518.4,968.4L518.4,970.7L520.4,974.7L521.3,981.0L520.2,986.0L521.6,985.9L525.7,981.8L530.9,979.9L532.5,978.4L534.2,973.7L536.1,973.4L543.9,976.7L547.8,976.5L551.3,974.2L552.5,974.3L556.5,976.9L560.9,977.2L570.4,975.4L579.7,969.7L584.0,968.8L593.7,971.4L597.4,971.4L603.6,972.8L605.8,971.6L606.2,970.2L609.8,964.1L610.8,963.6L615.0,964.2L617.2,965.1L618.4,966.9L618.8,973.7L621.7,973.2L631.5,977.1L632.1,978.3L632.7,984.0L629.6,992.4L627.4,993.1L632.3,996.3L634.0,998.1L637.4,998.5L639.5,997.6L647.0,991.4L649.1,990.5L663.1,987.3L670.6,986.5L673.7,985.8L678.7,983.0L681.1,984.7L680.6,988.4L678.9,989.4L680.0,990.9L678.5,994.7L680.3,999.8L679.4,1002.9L681.2,1008.7L683.7,1009.7L684.8,1011.1L687.7,1012.7L688.2,1016.0L692.7,1015.8L693.5,1014.3L695.9,1014.4L701.2,1018.6L708.2,1018.7L712.8,1022.4L713.5,1024.2L715.0,1024.8L724.0,1024.7L727.3,1026.5L730.8,1027.0L733.0,1025.7L738.1,1025.7L740.7,1028.1L742.6,1028.8L748.7,1029.6L751.5,1031.5L752.5,1031.2L754.8,1028.6L758.5,1028.9L764.7,1025.1L765.8,1022.8L766.6,1015.6L768.8,1012.5L768.4,1007.3L769.1,1006.5L775.4,1005.6L778.1,1006.4L778.6,1009.1L778.6,1014.0L779.7,1019.1L789.3,1025.8L791.6,1030.6L791.8,1032.9L794.1,1041.1L800.0,1047.9L801.5,1048.4L806.2,1048.5L807.8,1048.0L810.1,1045.9L811.5,1046.0L815.4,1048.4L816.6,1052.3L817.8,1052.7L823.3,1052.9L825.5,1055.9L828.4,1054.3L831.0,1056.4L833.4,1056.2L836.3,1057.2L840.5,1061.4L844.8,1071.6L842.8,1074.1L843.1,1075.7L846.1,1079.9L847.5,1083.6L849.6,1080.7L852.7,1080.8L854.7,1083.2L858.1,1088.4L860.8,1093.1L861.5,1095.8L864.4,1099.4L865.8,1108.1L866.5,1110.6L869.6,1113.5L874.2,1112.6L876.6,1113.2L877.8,1115.5L885.1,1110.7L892.6,1107.6L896.8,1103.6L898.0,1103.1L902.0,1105.3L903.5,1105.2L900.4,1112.0L901.5,1115.3L905.5,1116.9L910.4,1114.9L907.6,1041.7L903.4,1042.9L900.6,1041.8L896.5,1044.2L894.6,1047.9L894.3,1050.8L895.8,1053.0L898.0,1053.7L898.2,1054.8L896.6,1057.3L891.8,1056.1L889.7,1054.7L887.2,1054.6L885.5,1053.6L879.8,1052.3L876.5,1053.8L874.3,1053.3L868.2,1042.7L866.9,1040.8L863.4,1038.2L861.3,1034.3L859.5,1033.2L856.1,1029.8L851.9,1027.4L851.0,1025.1L848.9,1024.8L848.3,1023.6L845.4,1022.0L845.1,1019.1L843.2,1017.5L842.6,1012.8L841.0,1007.0L839.6,1005.0L838.7,997.7L841.5,993.2L843.2,991.8L842.8,989.6L845.1,984.5L845.5,975.8L847.5,969.5L848.5,968.5L850.4,960.0L854.1,953.9L857.4,951.2L856.4,945.3L855.1,943.7L854.7,941.3L855.1,937.1L853.8,932.5L854.5,929.4L851.5,924.9L854.7,917.9L854.9,913.2L857.1,901.3L857.6,900.2L855.3,895.0L854.2,887.8L853.2,886.5L854.8,884.8L852.5,884.5L851.6,880.7L849.8,879.0L849.7,875.0L848.0,875.5L847.9,878.9L846.6,880.3L850.1,881.1L850.1,882.7L848.9,882.4L844.8,883.9L841.3,883.1L839.8,883.9L839.6,881.5L840.7,880.5L840.0,872.6L839.5,871.3L841.0,864.8L839.8,861.4L840.9,857.4L848.6,850.4L851.6,845.3L855.4,841.5L858.2,837.6L863.1,832.1L869.1,822.6L871.5,821.3L958.2,806.4L959.0,801.6L955.5,795.6L950.6,790.9L948.2,787.7L944.6,786.4L943.3,784.3L942.3,777.1L941.1,776.1L939.5,769.6L940.5,764.9L938.9,755.8L936.1,748.7L935.4,747.6L928.2,740.5L920.5,738.0L912.9,728.6L910.3,723.7L906.3,720.4L903.7,716.3L902.5,710.8L903.4,708.4L903.3,705.1L901.0,705.3L899.7,703.2L898.4,697.8L895.0,686.4L893.0,685.0L892.4,682.1L888.5,679.3L887.7,669.8L890.7,668.1L894.7,664.4L896.6,660.4L896.1,656.3L897.9,653.1L898.1,651.5L892.2,639.7L888.1,632.6L886.5,627.9L885.6,623.0L885.2,616.0L885.0,615.3Z " data-id="CD.KT" data-name="Katanga" id="CD.KT"/>
utf-8</g>
</svg>
