<?xml version="1.0" ?>
<!DOCTYPE svg
  PUBLIC '-//W3C//DTD SVG 1.1//EN'
  'http://www.w3.org/Graphics/SVG/1.1/DTD/svg11.dtd'>
<svg enable_background="new 0 0 1000 761" height="761px" pretty_print="True" style="stroke-linejoin: round; stroke:#000; fill: none;" version="1.1" viewBox="0 0 1000 761" width="1000px" xmlns="http://www.w3.org/2000/svg" xmlns:xlink="http://www.w3.org/1999/xlink">
utf-8<defs>
utf-8utf-8<style type="text/css">
<![CDATA[path { fill-rule: evenodd; }]]>utf-8utf-8</style>
utf-8</defs>
utf-8<metadata>
utf-8utf-8<views>
utf-8utf-8utf-8<view h="761.719030741" padding="0" w="1000">
utf-8utf-8utf-8utf-8<proj flip="auto" id="robinson" lon0="18.5384980399"/>
utf-8utf-8utf-8utf-8<bbox h="146.97" w="193.19" x="212.7" y="-184.47"/>
utf-8utf-8utf-8</view>
utf-8utf-8</views>
utf-8</metadata>
utf-8<g class="" id="provinces">
utf-8utf-8<path d="M319.4,578.4L320.5,576.2L322.0,574.5L323.5,574.7L321.6,569.6L317.7,569.3L315.6,573.2L317.5,575.8L319.0,580.3L319.4,578.4Z " data-id="CF.BG" data-name="Bangui" id="CF.BG"/>
utf-8utf-8<path d="M324.6,456.4L324.0,457.4L323.0,463.6L315.7,468.3L309.4,471.2L307.7,470.4L307.0,464.4L305.5,460.7L307.7,458.0L306.7,455.7L302.8,454.6L297.6,454.8L296.9,451.6L294.1,450.7L288.0,451.2L283.4,449.8L277.5,449.2L276.8,446.2L268.9,442.4L266.6,443.1L262.7,447.2L248.1,456.5L245.1,457.7L208.2,458.4L202.1,457.2L198.7,450.0L198.9,445.7L197.0,446.6L195.0,448.3L190.7,448.9L181.3,452.6L178.2,455.3L174.4,461.7L170.1,466.4L166.3,469.7L163.6,470.9L163.8,475.2L162.3,484.4L163.5,490.7L164.6,496.3L175.8,488.7L180.2,486.9L185.5,489.6L194.6,488.2L195.6,488.8L203.4,495.2L205.0,497.2L210.0,505.8L209.0,507.9L204.4,510.0L200.7,513.0L203.9,518.1L210.2,517.1L214.3,520.7L217.9,522.9L225.6,531.1L228.8,533.5L236.7,538.0L240.1,543.8L242.7,555.6L243.9,558.0L246.1,560.6L259.8,560.5L264.1,562.7L266.0,566.4L269.5,567.3L274.0,565.4L280.1,566.9L282.7,568.5L286.3,567.6L287.9,568.0L292.4,575.6L293.6,577.1L301.3,580.7L304.2,587.4L304.5,593.7L303.9,598.2L304.2,599.4L310.3,608.3L312.7,609.6L314.4,612.0L319.0,615.4L325.0,618.4L325.0,617.3L325.1,615.4L326.7,612.4L327.5,602.9L326.4,595.5L325.4,592.2L322.6,586.4L319.6,581.8L319.0,580.3L317.5,575.8L315.6,573.2L317.7,569.3L321.6,569.6L323.5,574.7L324.9,575.7L329.5,575.5L333.0,574.1L335.5,572.1L337.3,569.3L341.1,558.3L342.9,555.4L345.5,553.0L346.4,550.4L351.3,544.1L355.0,540.5L355.6,537.2L360.4,528.0L362.2,526.1L362.2,520.6L360.9,517.0L353.7,506.1L353.3,499.9L355.3,493.3L354.7,487.7L353.1,484.4L347.0,479.0L344.9,475.8L343.7,467.3L342.3,465.1L333.7,463.5L329.5,462.2L325.5,456.8L324.6,456.4Z " data-id="CF.MP" data-name="Ombella-M'Poko" id="CF.MP"/>
utf-8utf-8<path d="M555.0,477.6L552.6,479.5L546.1,476.0L543.6,470.3L543.7,467.1L542.0,463.8L536.9,457.3L535.1,459.3L533.6,459.7L532.2,458.3L524.1,463.8L520.2,462.1L518.3,463.4L515.7,463.3L512.7,459.1L509.1,458.2L508.7,459.9L508.4,472.2L507.0,473.3L503.2,474.2L502.1,476.1L505.2,478.9L505.4,484.1L503.3,487.5L503.7,492.9L503.4,500.1L502.4,503.2L499.5,508.4L499.3,509.5L501.4,520.0L499.7,522.9L499.0,526.9L499.8,531.8L499.0,536.4L496.9,538.0L492.4,537.7L485.1,542.0L478.6,550.9L472.7,557.2L465.7,561.4L473.6,569.7L477.0,571.3L483.5,570.2L491.4,569.9L494.5,567.8L497.5,567.5L504.5,569.3L511.9,572.3L516.1,577.3L519.5,580.0L524.5,581.5L528.4,578.0L529.4,578.0L534.8,582.1L539.3,583.4L543.6,583.5L545.5,585.1L548.6,585.6L555.9,581.3L563.8,581.4L567.2,583.3L570.1,583.3L575.6,586.3L584.6,585.8L586.7,587.0L589.1,574.6L590.7,572.7L592.0,569.0L594.0,566.0L595.0,562.4L593.8,560.5L591.3,559.9L588.2,560.1L583.8,561.8L579.9,561.0L580.3,557.8L577.1,554.5L576.6,552.6L574.7,550.9L571.9,549.9L569.7,546.9L568.5,547.6L563.9,546.3L563.4,544.9L564.5,543.2L563.9,541.8L564.7,538.3L565.8,536.8L566.7,526.3L570.0,521.2L569.8,516.5L567.6,513.9L570.4,509.0L572.7,507.6L574.9,500.2L575.0,490.9L576.0,487.6L575.3,483.3L575.4,479.0L568.6,475.4L563.6,473.5L557.1,472.6L555.0,477.6Z " data-id="CF.BK" data-name="Basse-Kotto" id="CF.BK"/>
utf-8utf-8<path d="M203.9,518.1L204.1,520.5L203.1,522.8L199.4,524.6L193.7,528.9L188.1,531.6L188.2,542.8L190.1,549.4L196.3,562.3L200.1,565.2L201.2,567.1L203.1,572.5L204.4,574.2L206.8,575.4L205.2,577.4L201.6,576.9L198.4,573.6L193.8,570.4L186.9,574.6L184.8,577.5L181.4,585.6L183.2,587.1L188.9,595.0L193.8,603.0L195.9,607.9L204.3,612.1L208.2,615.1L213.4,616.3L218.5,618.4L227.5,624.1L233.5,634.3L234.5,633.7L236.9,632.1L238.6,632.4L243.9,637.3L246.7,638.7L249.8,639.2L256.1,639.2L260.4,640.3L261.8,639.9L264.7,642.0L266.3,646.7L268.8,646.5L271.7,644.9L276.0,646.9L282.0,644.7L284.6,644.7L287.3,645.7L288.6,647.2L289.6,650.6L293.9,651.3L295.2,649.8L297.4,643.7L305.6,643.1L306.9,643.7L311.2,641.5L313.4,638.8L314.4,638.7L317.6,642.2L323.0,652.2L326.3,652.2L323.6,632.0L325.1,621.3L325.0,618.4L319.0,615.4L314.4,612.0L312.7,609.6L310.3,608.3L304.2,599.4L303.9,598.2L304.5,593.7L304.2,587.4L301.3,580.7L293.6,577.1L292.4,575.6L287.9,568.0L286.3,567.6L282.7,568.5L280.1,566.9L274.0,565.4L269.5,567.3L266.0,566.4L264.1,562.7L259.8,560.5L246.1,560.6L243.9,558.0L242.7,555.6L240.1,543.8L236.7,538.0L228.8,533.5L225.6,531.1L217.9,522.9L214.3,520.7L210.2,517.1L203.9,518.1Z " data-id="CF.LB" data-name="Lobaye" id="CF.LB"/>
utf-8utf-8<path d="M200.7,513.0L204.4,510.0L209.0,507.9L210.0,505.8L205.0,497.2L203.4,495.2L195.6,488.8L194.6,488.2L185.5,489.6L180.2,486.9L175.8,488.7L164.6,496.3L129.0,513.1L123.1,514.0L119.0,510.3L111.8,513.6L110.5,513.5L107.8,505.4L106.9,503.4L106.8,500.3L101.8,500.2L101.5,502.0L98.9,506.2L101.0,518.4L94.1,518.5L85.7,515.7L79.1,520.2L71.2,519.9L58.7,520.2L54.7,521.0L50.2,524.9L48.6,524.8L43.9,519.6L42.9,519.4L36.2,520.7L29.4,519.4L22.1,519.2L22.1,520.4L23.2,523.0L23.1,525.3L24.2,528.1L24.6,540.8L25.1,542.3L25.7,548.8L26.7,552.9L28.7,556.6L31.5,559.6L43.7,569.1L47.0,570.4L52.2,579.0L54.9,589.0L55.0,594.0L57.6,596.9L58.7,597.4L63.1,601.4L63.3,602.3L57.1,605.1L50.6,604.6L55.2,616.7L61.8,627.7L68.1,635.2L68.8,636.1L81.2,627.0L84.5,625.7L86.3,626.8L86.9,628.9L90.6,628.8L93.0,627.0L94.8,621.9L96.0,620.7L104.6,614.9L113.5,610.5L116.5,609.5L129.0,607.6L131.6,607.6L134.7,609.6L143.0,612.2L146.3,614.1L148.1,615.9L152.7,616.3L155.5,617.7L158.2,621.1L160.8,619.8L161.5,616.9L166.9,611.1L169.9,606.9L171.0,602.2L170.8,595.9L172.3,591.3L175.3,585.9L178.5,584.9L180.7,585.3L181.4,585.6L184.8,577.5L186.9,574.6L193.8,570.4L198.4,573.6L201.6,576.9L205.2,577.4L206.8,575.4L204.4,574.2L203.1,572.5L201.2,567.1L200.1,565.2L196.3,562.3L190.1,549.4L188.2,542.8L188.1,531.6L193.7,528.9L199.4,524.6L203.1,522.8L204.1,520.5L203.9,518.1L200.7,513.0Z " data-id="CF.HS" data-name="Mambéré-Kadéï" id="CF.HS"/>
utf-8utf-8<path d="M233.5,634.3L227.5,624.1L218.5,618.4L213.4,616.3L208.2,615.1L204.3,612.1L195.9,607.9L193.8,603.0L188.9,595.0L183.2,587.1L181.4,585.6L180.7,585.3L178.5,584.9L175.3,585.9L172.3,591.3L170.8,595.9L171.0,602.2L169.9,606.9L166.9,611.1L161.5,616.9L160.8,619.8L158.2,621.1L155.5,617.7L152.7,616.3L148.1,615.9L146.3,614.1L143.0,612.2L134.7,609.6L131.6,607.6L129.0,607.6L116.5,609.5L113.5,610.5L104.6,614.9L96.0,620.7L94.8,621.9L93.0,627.0L90.6,628.8L86.9,628.9L86.3,626.8L84.5,625.7L81.2,627.0L68.8,636.1L74.0,642.3L109.1,684.2L117.7,684.6L119.0,685.0L122.4,689.9L123.4,694.3L125.2,695.1L129.9,698.8L132.7,705.4L132.3,709.7L130.3,712.1L130.0,714.4L130.5,719.3L134.2,719.4L133.5,720.6L132.9,724.6L134.0,727.6L133.9,731.1L132.8,734.0L135.1,746.4L140.2,756.9L139.7,758.0L140.9,759.7L162.3,707.7L162.7,705.6L159.9,701.0L159.7,697.2L162.6,690.8L163.1,687.7L161.1,682.1L164.6,673.8L165.1,669.8L167.0,664.4L167.6,657.1L168.8,653.3L171.2,650.0L174.3,647.7L181.2,646.5L187.5,648.3L190.6,647.3L190.6,645.0L194.6,645.8L196.7,645.5L199.5,647.3L203.2,646.6L205.9,644.6L208.6,644.6L212.8,643.2L218.2,642.5L221.7,639.3L224.6,640.1L227.4,639.9L230.5,636.0L233.5,634.3Z " data-id="CF.SE" data-name="Sangha-Mbaéré" id="CF.SE"/>
utf-8utf-8<path d="M162.1,468.2L153.8,456.5L148.2,452.2L144.5,447.3L143.1,442.5L142.1,441.6L138.9,441.6L136.0,448.0L132.1,451.0L130.5,451.5L124.2,450.9L118.2,445.4L113.8,443.2L110.6,440.0L109.6,437.7L109.7,434.2L108.3,429.9L107.7,420.2L101.6,410.5L102.2,407.5L106.3,403.1L107.3,400.1L104.6,397.1L101.8,399.4L95.5,401.5L88.6,406.5L84.0,405.1L79.7,407.3L76.0,403.6L74.0,400.3L70.1,383.3L66.7,378.4L61.5,373.3L60.4,368.0L53.2,370.6L46.2,374.1L41.1,374.0L32.5,396.4L30.7,404.3L29.9,405.9L25.9,411.1L15.0,417.0L11.9,417.0L7.9,422.5L3.9,425.8L4.2,427.1L2.6,429.4L1.8,428.7L0.8,430.8L5.3,436.1L6.7,440.4L8.0,441.3L12.8,441.5L15.8,440.1L18.4,445.2L19.0,457.4L16.5,468.9L18.7,474.6L18.6,477.2L17.2,480.6L15.7,486.6L13.9,489.7L12.7,493.9L11.5,495.9L12.8,497.5L19.3,500.7L20.5,502.1L22.3,507.9L22.6,515.6L22.1,518.8L22.1,519.2L29.4,519.4L36.2,520.7L42.9,519.4L43.9,519.6L48.6,524.8L50.2,524.9L54.7,521.0L58.7,520.2L71.2,519.9L79.1,520.2L85.7,515.7L94.1,518.5L101.0,518.4L98.9,506.2L101.5,502.0L101.8,500.2L106.8,500.3L106.9,503.4L107.8,505.4L110.5,513.5L111.8,513.6L119.0,510.3L123.1,514.0L129.0,513.1L164.6,496.3L163.5,490.7L162.3,484.4L163.8,475.2L163.6,470.9L162.1,468.2Z " data-id="CF.NM" data-name="Nana-Mambéré" id="CF.NM"/>
utf-8utf-8<path d="M184.9,299.3L181.5,299.1L179.8,296.0L177.0,292.4L170.4,288.8L169.3,286.0L169.9,283.1L165.4,279.2L164.2,276.3L164.5,271.4L158.9,274.3L157.1,278.1L153.7,277.8L152.6,278.9L151.0,288.5L144.3,289.6L140.1,292.6L132.6,294.8L127.8,295.6L123.8,298.2L122.1,300.9L117.2,304.5L107.2,307.1L104.4,307.3L101.5,306.2L97.5,302.0L94.2,301.7L88.6,302.6L85.9,302.4L83.2,301.4L78.6,309.0L78.3,310.3L79.6,313.0L72.5,318.9L66.6,322.6L63.8,325.3L60.9,333.2L61.3,338.2L60.5,340.0L57.2,342.9L55.5,349.9L53.1,357.4L48.7,367.0L44.2,369.6L41.9,371.9L41.1,374.0L46.2,374.1L53.2,370.6L60.4,368.0L61.5,373.3L66.7,378.4L70.1,383.3L74.0,400.3L76.0,403.6L79.7,407.3L84.0,405.1L88.6,406.5L95.5,401.5L101.8,399.4L104.6,397.1L107.3,400.1L106.3,403.1L102.2,407.5L101.6,410.5L107.7,420.2L108.3,429.9L109.7,434.2L109.6,437.7L110.6,440.0L113.8,443.2L118.2,445.4L124.2,450.9L130.5,451.5L132.1,451.0L136.0,448.0L138.9,441.6L142.1,441.6L143.1,442.5L144.5,447.3L148.2,452.2L153.8,456.5L162.1,468.2L163.6,470.9L166.3,469.7L170.1,466.4L174.4,461.7L178.2,455.3L181.3,452.6L190.7,448.9L195.0,448.3L197.0,446.6L198.9,445.7L198.2,445.0L197.4,441.8L195.4,438.1L193.6,423.4L195.7,423.0L195.6,416.4L196.4,408.6L197.5,406.9L201.3,406.7L202.2,401.4L203.2,401.4L205.5,398.8L207.1,399.1L207.7,395.1L206.8,393.5L202.8,391.3L201.5,392.1L193.5,394.1L189.0,391.0L186.5,386.1L185.1,385.9L181.5,379.1L181.0,373.5L178.7,363.7L178.7,357.6L177.3,352.8L175.8,351.2L175.2,347.6L176.7,346.0L176.7,343.5L178.5,342.9L181.7,336.9L180.9,328.7L182.2,324.8L184.5,311.8L186.4,309.8L185.1,304.9L185.6,301.9L185.1,299.2L184.9,299.3Z " data-id="CF.OP" data-name="Ouham-Pendé" id="CF.OP"/>
utf-8utf-8<path d="M609.8,205.8L607.1,201.8L601.4,200.9L595.8,199.0L590.0,194.3L588.2,190.6L585.2,175.3L581.6,172.7L579.7,168.6L578.0,166.4L574.1,163.5L572.2,160.7L567.7,157.4L561.1,137.8L551.4,125.5L549.3,122.4L542.5,121.7L542.2,121.2L540.6,112.0L540.2,107.8L536.8,106.4L535.8,107.9L526.2,116.6L521.6,122.9L518.1,124.1L509.1,126.2L506.5,128.0L502.0,134.3L499.7,134.9L495.7,138.4L494.9,139.9L490.6,139.8L488.3,137.1L488.2,137.1L476.3,143.7L477.3,147.3L467.7,145.6L467.1,148.3L464.2,150.0L465.2,154.9L463.2,155.7L459.8,161.5L454.0,163.3L447.7,163.0L446.2,163.3L442.8,160.9L438.4,163.3L437.1,162.9L434.9,160.3L431.2,161.8L429.0,163.9L428.5,165.7L427.1,163.9L426.1,166.1L424.3,166.2L422.3,167.7L420.1,167.4L418.2,169.4L411.8,169.0L399.3,172.2L397.2,170.7L389.1,172.2L383.2,172.3L382.5,171.9L378.6,173.4L374.6,172.3L373.0,172.6L370.5,171.0L365.1,171.7L363.3,173.2L358.1,172.1L355.1,173.1L352.1,174.7L348.4,178.8L345.1,180.2L343.7,182.6L342.4,182.3L340.6,185.2L342.0,187.7L343.2,186.9L344.3,190.3L345.3,191.1L354.4,195.5L358.7,199.6L360.3,201.6L357.1,204.9L356.3,205.3L356.5,205.8L355.8,208.2L355.8,209.6L357.8,211.5L359.1,217.9L362.8,225.0L368.1,230.4L368.9,233.1L369.9,233.5L369.1,236.0L370.2,236.3L373.1,241.4L377.2,245.3L377.7,248.1L378.8,248.8L378.5,254.6L377.8,258.3L378.3,261.0L376.9,264.9L378.4,269.0L376.0,270.3L378.1,274.6L376.1,276.3L379.0,281.3L381.2,279.7L383.7,282.5L384.8,282.9L384.9,280.9L387.0,283.8L389.9,282.7L392.4,285.5L394.9,286.7L396.9,286.2L395.0,288.7L397.5,290.4L395.9,296.0L397.1,297.6L399.7,296.9L400.7,298.2L404.5,299.1L404.8,298.4L407.6,299.3L409.8,302.6L410.3,308.0L411.6,309.5L413.3,308.8L414.4,312.5L416.2,314.6L418.2,314.2L419.7,316.2L421.2,322.7L422.5,325.4L429.0,329.0L434.5,334.8L438.0,336.4L439.9,338.2L440.6,338.4L440.9,338.5L445.8,341.9L447.1,343.9L452.6,343.5L455.4,345.1L457.1,343.7L460.9,343.9L462.7,345.0L467.8,341.1L470.6,341.2L472.4,340.3L477.0,336.0L480.1,327.2L481.9,325.4L484.6,325.4L487.9,326.6L495.4,323.3L501.0,315.6L506.2,307.0L509.9,303.6L510.6,302.2L508.9,296.3L513.0,287.4L514.4,285.8L513.8,278.0L512.4,272.1L513.7,269.4L514.3,263.7L515.9,261.4L520.6,260.5L532.8,259.7L536.1,258.6L536.0,255.5L533.7,249.3L535.3,244.7L538.1,242.7L541.3,238.6L544.0,237.9L549.5,239.4L551.7,235.6L560.4,231.6L562.8,231.8L564.1,234.5L567.5,237.5L569.1,241.4L572.8,242.9L578.8,241.0L577.1,235.8L579.7,223.3L577.3,218.4L576.7,214.6L578.0,210.1L580.1,207.7L582.2,207.0L587.2,207.1L591.6,209.3L606.5,211.0L608.2,210.6L609.6,208.8L609.8,205.8Z " data-id="CF.BB" data-name="Bamingui-Bangoran" id="CF.BB"/>
utf-8utf-8<path d="M439.9,338.2L438.0,336.4L434.5,334.8L429.0,329.0L422.5,325.4L421.2,322.7L419.7,316.2L418.2,314.2L416.2,314.6L414.4,312.5L413.3,308.8L411.6,309.5L410.3,308.0L409.8,302.6L407.6,299.3L404.8,298.4L404.5,299.1L400.7,298.2L399.7,296.9L397.1,297.6L395.9,296.0L397.5,290.4L395.0,288.7L396.9,286.2L394.9,286.7L392.4,285.5L389.9,282.7L387.0,283.8L384.9,280.9L384.8,282.9L383.7,282.5L381.2,279.7L379.0,281.3L376.1,276.3L378.1,274.6L376.0,270.3L378.4,269.0L376.9,264.9L378.3,261.0L377.8,258.3L378.5,254.6L378.8,248.8L377.7,248.1L377.2,245.3L373.1,241.4L370.2,236.3L369.1,236.0L369.9,233.5L368.9,233.1L368.1,230.4L362.8,225.0L359.1,217.9L357.8,211.5L355.8,209.6L356.6,210.7L356.7,214.3L355.5,216.9L356.4,218.6L355.7,220.8L355.4,228.6L352.6,236.9L355.6,240.3L356.3,245.9L355.2,248.2L355.8,250.5L355.6,254.9L353.6,261.6L352.7,266.7L350.9,267.7L352.0,270.5L350.1,272.6L350.0,278.2L351.9,281.6L336.0,290.8L332.4,294.4L331.4,297.3L339.9,323.9L340.0,325.7L334.9,329.1L334.6,332.5L330.4,337.6L332.4,338.6L330.2,343.1L329.4,346.9L326.8,349.6L326.5,352.9L328.4,354.5L331.5,361.8L333.6,362.9L333.0,365.9L333.7,368.4L338.1,372.1L341.6,373.6L342.9,376.1L341.9,378.3L338.0,380.5L335.0,384.2L333.8,388.9L351.0,386.4L355.7,387.0L358.4,392.0L361.6,394.2L364.4,395.3L376.2,393.9L388.6,390.3L393.6,390.0L409.6,392.2L412.0,391.8L420.0,393.8L418.5,383.1L419.3,379.2L423.0,373.5L426.2,370.4L432.0,363.7L432.7,362.0L437.5,355.4L439.6,349.2L440.1,346.3L440.1,341.6L440.6,338.4L439.9,338.2Z " data-id="CF.KB" data-name="Nana-Grébizi" id="CF.KB"/>
utf-8utf-8<path d="M393.6,390.0L388.6,390.3L376.2,393.9L364.4,395.3L361.6,394.2L358.4,392.0L355.7,387.0L351.0,386.4L333.8,388.9L333.3,390.0L334.4,393.5L341.5,401.3L342.6,403.8L342.4,408.7L343.2,413.7L346.2,416.1L346.0,416.9L338.1,423.3L334.0,427.8L328.7,431.5L324.7,433.4L324.9,437.4L323.8,443.0L324.7,452.3L325.5,456.8L329.5,462.2L333.7,463.5L342.3,465.1L343.7,467.3L344.9,475.8L347.0,479.0L353.1,484.4L354.7,487.7L355.3,493.3L353.3,499.9L353.7,506.1L360.9,517.0L362.2,520.6L362.2,526.1L362.9,525.3L364.2,524.8L368.9,524.5L372.1,519.2L375.6,517.4L382.4,512.6L385.1,508.9L386.8,508.4L397.3,506.7L400.2,508.2L411.1,509.4L413.4,509.9L418.9,513.8L419.5,514.9L422.9,512.6L425.2,508.7L426.5,502.6L427.0,497.3L427.0,491.7L429.8,478.7L425.9,478.0L393.5,477.7L392.1,477.3L389.6,472.6L391.7,470.8L396.2,469.7L403.3,463.2L404.5,459.7L403.5,455.1L400.4,454.0L400.8,449.7L398.9,441.8L399.9,439.0L406.3,433.3L408.0,430.6L410.1,429.8L412.6,430.2L417.2,423.1L416.8,419.1L418.8,416.0L417.8,414.3L417.9,411.5L419.2,407.3L419.2,404.0L418.0,402.2L412.0,398.5L409.9,396.3L409.3,394.4L409.6,392.2L393.6,390.0Z " data-id="CF.KG" data-name="Kémo" id="CF.KG"/>
utf-8utf-8<path d="M557.8,468.3L561.1,464.5L563.8,462.1L566.2,462.0L571.9,466.3L575.3,461.1L575.7,457.8L577.0,454.3L577.9,449.6L578.0,441.2L574.3,431.7L569.5,429.4L568.9,428.6L566.8,420.2L565.2,417.4L563.2,415.6L563.2,412.4L566.3,407.3L567.5,402.1L565.8,395.1L565.4,390.0L566.2,387.0L565.7,384.5L562.8,382.6L560.3,382.6L556.4,377.5L553.5,368.9L552.0,366.6L554.4,363.1L555.1,357.8L553.9,352.8L553.7,349.4L551.4,346.6L549.2,331.5L549.3,323.2L546.5,320.3L539.0,320.3L536.4,317.5L537.0,305.6L534.1,299.6L528.6,295.3L523.3,294.1L517.7,288.9L514.4,285.8L513.0,287.4L508.9,296.3L510.6,302.2L509.9,303.6L506.2,307.0L501.0,315.6L495.4,323.3L487.9,326.6L484.6,325.4L481.9,325.4L480.1,327.2L477.0,336.0L472.4,340.3L470.6,341.2L467.8,341.1L462.7,345.0L460.9,343.9L457.1,343.7L455.4,345.1L452.6,343.5L447.1,343.9L445.8,341.9L440.9,338.5L440.6,338.4L440.1,341.6L440.1,346.3L439.6,349.2L437.5,355.4L432.7,362.0L432.0,363.7L426.2,370.4L423.0,373.5L419.3,379.2L418.5,383.1L420.0,393.8L412.0,391.8L409.6,392.2L409.3,394.4L409.9,396.3L412.0,398.5L418.0,402.2L419.2,404.0L419.2,407.3L417.9,411.5L417.8,414.3L418.8,416.0L416.8,419.1L417.2,423.1L412.6,430.2L410.1,429.8L408.0,430.6L406.3,433.3L399.9,439.0L398.9,441.8L400.8,449.7L400.4,454.0L403.5,455.1L404.5,459.7L403.3,463.2L396.2,469.7L391.7,470.8L389.6,472.6L392.1,477.3L393.5,477.7L425.9,478.0L429.8,478.7L427.0,491.7L427.0,497.3L426.5,502.6L425.2,508.7L422.9,512.6L419.5,514.9L420.9,517.5L424.0,520.8L430.7,522.4L437.1,527.4L442.2,529.6L443.6,530.7L447.2,535.6L450.1,537.8L453.7,539.1L457.7,541.4L460.9,548.2L464.3,551.0L466.1,554.8L464.6,559.1L465.4,561.0L465.7,561.4L472.7,557.2L478.6,550.9L485.1,542.0L492.4,537.7L496.9,538.0L499.0,536.4L499.8,531.8L499.0,526.9L499.7,522.9L501.4,520.0L499.3,509.5L499.5,508.4L502.4,503.2L503.4,500.1L503.7,492.9L503.3,487.5L505.4,484.1L505.2,478.9L502.1,476.1L503.2,474.2L507.0,473.3L508.4,472.2L508.7,459.9L509.1,458.2L512.7,459.1L515.7,463.3L518.3,463.4L520.2,462.1L524.1,463.8L532.2,458.3L533.6,459.7L535.1,459.3L536.9,457.3L542.0,463.8L543.7,467.1L543.6,470.3L546.1,476.0L552.6,479.5L555.0,477.6L557.1,472.6L557.8,468.3Z " data-id="CF.UK" data-name="Ouaka" id="CF.UK"/>
utf-8utf-8<path d="M355.8,208.2L356.5,205.8L356.3,205.3L355.5,205.9L352.5,212.8L345.0,222.7L342.5,228.0L340.1,230.7L336.9,236.2L326.3,242.1L323.7,244.7L322.2,248.1L322.2,252.3L320.1,256.0L313.9,257.5L280.5,258.5L273.4,260.4L267.4,262.9L264.4,263.5L261.2,263.4L250.7,261.4L246.2,262.0L244.6,264.4L237.3,266.5L234.5,270.2L230.9,268.9L228.4,271.3L218.1,275.5L215.1,280.2L213.4,280.6L207.9,287.3L206.9,288.1L203.6,286.4L202.1,289.4L199.7,288.9L197.7,290.6L193.0,291.0L188.0,293.8L186.7,297.6L185.1,299.2L185.6,301.9L185.1,304.9L186.4,309.8L184.5,311.8L182.2,324.8L180.9,328.7L181.7,336.9L178.5,342.9L176.7,343.5L176.7,346.0L175.2,347.6L175.8,351.2L177.3,352.8L178.7,357.6L178.7,363.7L181.0,373.5L181.5,379.1L185.1,385.9L186.5,386.1L189.0,391.0L193.5,394.1L201.5,392.1L202.8,391.3L206.8,393.5L207.7,395.1L207.1,399.1L205.5,398.8L203.2,401.4L202.2,401.4L201.3,406.7L197.5,406.9L196.4,408.6L195.6,416.4L195.7,423.0L193.6,423.4L195.4,438.1L197.4,441.8L198.2,445.0L198.9,445.7L198.7,450.0L202.1,457.2L208.2,458.4L245.1,457.7L248.1,456.5L262.7,447.2L266.6,443.1L268.9,442.4L276.8,446.2L277.5,449.2L283.4,449.8L288.0,451.2L294.1,450.7L296.9,451.6L297.6,454.8L302.8,454.6L306.7,455.7L307.7,458.0L305.5,460.7L307.0,464.4L307.7,470.4L309.4,471.2L315.7,468.3L323.0,463.6L324.0,457.4L324.6,456.4L325.5,456.8L324.7,452.3L323.8,443.0L324.9,437.4L324.7,433.4L328.7,431.5L334.0,427.8L338.1,423.3L346.0,416.9L346.2,416.1L343.2,413.7L342.4,408.7L342.6,403.8L341.5,401.3L334.4,393.5L333.3,390.0L333.8,388.9L335.0,384.2L338.0,380.5L341.9,378.3L342.9,376.1L341.6,373.6L338.1,372.1L333.7,368.4L333.0,365.9L333.6,362.9L331.5,361.8L328.4,354.5L326.5,352.9L326.8,349.6L329.4,346.9L330.2,343.1L332.4,338.6L330.4,337.6L334.6,332.5L334.9,329.1L340.0,325.7L339.9,323.9L331.4,297.3L332.4,294.4L336.0,290.8L351.9,281.6L350.0,278.2L350.1,272.6L352.0,270.5L350.9,267.7L352.7,266.7L353.6,261.6L355.6,254.9L355.8,250.5L355.2,248.2L356.3,245.9L355.6,240.3L352.6,236.9L355.4,228.6L355.7,220.8L356.4,218.6L355.5,216.9L356.7,214.3L356.6,210.7L355.8,209.6L355.8,208.2Z " data-id="CF.AC" data-name="Ouham" id="CF.AC"/>
utf-8utf-8<path d="M488.3,137.1L490.6,139.8L494.9,139.9L495.7,138.4L499.7,134.9L502.0,134.3L506.5,128.0L509.1,126.2L518.1,124.1L521.6,122.9L526.2,116.6L535.8,107.9L536.8,106.4L540.2,107.8L540.6,112.0L542.2,121.2L542.5,121.7L549.3,122.4L551.4,125.5L561.1,137.8L567.7,157.4L572.2,160.7L574.1,163.5L578.0,166.4L579.7,168.6L581.6,172.7L585.2,175.3L588.2,190.6L590.0,194.3L595.8,199.0L601.4,200.9L607.1,201.8L609.8,205.8L609.6,208.8L611.3,208.6L614.0,208.4L616.6,209.5L620.0,208.7L629.0,200.7L632.0,199.8L641.7,198.2L655.8,194.2L658.8,194.8L661.4,192.0L662.0,184.6L664.3,180.7L669.6,176.2L672.5,174.7L678.4,172.5L680.4,168.2L681.9,158.9L683.7,154.9L689.9,152.6L690.4,152.9L690.7,160.1L691.5,158.6L695.1,158.2L698.9,155.5L701.7,151.3L703.3,148.1L702.5,143.9L704.3,136.6L702.8,135.7L702.0,124.4L704.7,119.5L705.7,116.9L706.0,113.6L703.5,98.6L701.9,94.7L675.7,48.6L661.6,33.5L653.6,27.2L642.4,9.4L642.2,7.1L638.0,6.6L633.3,4.9L631.4,3.1L620.4,1.4L617.2,1.8L615.5,0.0L614.8,0.8L610.5,0.2L607.5,3.3L602.4,4.6L597.1,8.0L595.9,7.4L592.0,11.5L590.2,16.0L586.8,14.9L580.4,14.2L579.0,14.9L577.2,19.5L578.0,21.3L577.2,22.3L571.2,24.3L566.6,28.9L564.2,27.8L560.6,28.7L559.4,30.2L555.9,31.6L554.7,37.2L554.8,40.6L556.0,46.2L558.4,51.1L556.1,55.5L556.1,61.0L553.8,61.7L551.4,66.5L546.7,68.2L543.0,67.7L540.6,69.4L538.5,72.5L534.7,82.8L532.7,86.3L530.3,89.1L527.7,90.2L522.4,87.9L517.5,94.0L516.2,96.7L512.0,99.8L509.1,106.3L508.2,107.3L503.4,109.0L501.0,121.1L499.8,120.5L498.9,122.3L497.3,123.4L495.7,126.2L492.8,129.9L490.3,131.4L488.8,137.4L488.3,137.1Z " data-id="CF.VK" data-name="Vakaga" id="CF.VK"/>
utf-8utf-8<path d="M609.6,208.8L608.2,210.6L606.5,211.0L591.6,209.3L587.2,207.1L582.2,207.0L580.1,207.7L578.0,210.1L576.7,214.6L577.3,218.4L579.7,223.3L577.1,235.8L578.8,241.0L572.8,242.9L569.1,241.4L567.5,237.5L564.1,234.5L562.8,231.8L560.4,231.6L551.7,235.6L549.5,239.4L544.0,237.9L541.3,238.6L538.1,242.7L535.3,244.7L533.7,249.3L536.0,255.5L536.1,258.6L532.8,259.7L520.6,260.5L515.9,261.4L514.3,263.7L513.7,269.4L512.4,272.1L513.8,278.0L514.4,285.8L517.7,288.9L523.3,294.1L528.6,295.3L534.1,299.6L537.0,305.6L536.4,317.5L539.0,320.3L546.5,320.3L549.3,323.2L549.2,331.5L551.4,346.6L553.7,349.4L553.9,352.8L555.1,357.8L554.4,363.1L552.0,366.6L553.5,368.9L556.4,377.5L560.3,382.6L562.8,382.6L565.7,384.5L566.2,387.0L565.4,390.0L565.8,395.1L567.5,402.1L566.3,407.3L563.2,412.4L563.2,415.6L565.2,417.4L566.8,420.2L568.9,428.6L569.5,429.4L574.3,431.7L578.0,441.2L577.9,449.6L577.0,454.3L575.7,457.8L575.3,461.1L571.9,466.3L566.2,462.0L563.8,462.1L561.1,464.5L557.8,468.3L557.1,472.6L563.6,473.5L568.6,475.4L575.4,479.0L575.4,477.8L579.5,473.9L581.5,471.5L582.9,470.9L586.1,466.6L584.7,466.8L585.1,465.0L589.4,464.5L586.8,457.0L588.2,453.8L588.5,450.7L588.2,444.5L588.7,441.9L591.2,438.5L593.2,433.1L600.4,428.5L602.5,428.1L605.2,430.2L613.1,429.4L617.4,426.6L620.2,422.4L621.2,417.8L625.1,412.3L634.6,410.2L639.7,410.7L645.0,410.1L647.7,413.9L651.5,417.4L657.3,419.7L677.3,425.2L679.5,425.0L681.3,423.2L681.1,418.8L682.4,416.9L684.8,415.1L687.8,415.4L689.8,413.9L693.2,407.3L754.5,368.2L755.1,366.5L756.4,362.4L759.7,357.9L760.9,357.0L759.3,352.1L765.4,348.9L772.3,348.3L773.5,346.3L775.9,345.8L776.6,344.0L775.6,338.4L776.4,335.8L775.1,327.5L775.4,325.8L773.1,320.8L773.5,317.4L779.1,304.8L776.6,302.8L772.1,294.1L771.5,291.8L771.6,284.4L770.9,283.1L770.3,277.2L769.7,275.7L767.8,265.9L769.4,257.3L769.4,255.0L764.0,245.8L761.3,244.8L755.8,240.1L752.9,236.8L752.4,236.8L746.5,234.3L742.7,230.4L741.9,227.8L743.1,222.1L747.2,214.0L751.1,208.8L749.0,207.0L748.9,200.2L741.0,201.0L726.3,198.3L722.1,198.8L717.2,197.5L706.1,198.6L701.4,196.5L694.5,198.5L692.6,192.2L693.6,190.0L696.7,185.9L697.9,183.6L698.8,178.6L698.3,173.7L697.0,173.7L694.2,176.8L692.1,177.0L690.0,175.7L688.8,171.8L690.3,160.8L690.7,160.1L690.4,152.9L689.9,152.6L683.7,154.9L681.9,158.9L680.4,168.2L678.4,172.5L672.5,174.7L669.6,176.2L664.3,180.7L662.0,184.6L661.4,192.0L658.8,194.8L655.8,194.2L641.7,198.2L632.0,199.8L629.0,200.7L620.0,208.7L616.6,209.5L614.0,208.4L611.3,208.6L609.6,208.8Z " data-id="CF.HK" data-name="Haute-Kotto" id="CF.HK"/>
utf-8utf-8<path d="M752.9,236.8L755.8,240.1L761.3,244.8L764.0,245.8L769.4,255.0L769.4,257.3L767.8,265.9L769.7,275.7L770.3,277.2L770.9,283.1L771.6,284.4L771.5,291.8L772.1,294.1L776.6,302.8L779.1,304.8L773.5,317.4L773.1,320.8L775.4,325.8L775.1,327.5L776.4,335.8L775.6,338.4L776.6,344.0L775.9,345.8L773.5,346.3L772.3,348.3L765.4,348.9L759.3,352.1L760.9,357.0L759.7,357.9L756.4,362.4L755.1,366.5L754.5,368.2L776.3,394.7L781.7,399.6L784.6,398.8L786.9,399.1L789.4,397.7L793.9,392.6L801.1,390.7L802.6,390.9L811.6,397.6L816.1,402.1L816.8,403.3L816.9,407.1L812.4,408.9L811.5,412.3L806.9,415.2L803.2,414.9L800.5,413.9L801.1,416.1L811.0,425.8L812.3,428.0L819.4,436.7L823.9,437.7L825.7,442.5L824.4,444.8L823.4,451.4L821.0,450.3L819.4,452.4L814.7,461.8L815.4,469.1L814.0,469.9L815.6,471.5L814.1,472.7L813.1,476.2L809.3,479.0L810.3,481.0L807.8,482.8L805.8,482.4L805.6,484.1L803.8,486.7L803.2,486.2L802.3,491.4L800.3,490.2L798.5,492.3L792.1,495.0L788.9,497.6L782.8,496.6L782.1,497.6L779.9,504.4L777.7,503.6L777.3,505.0L777.7,508.4L778.7,509.9L775.4,509.5L773.0,511.3L773.4,511.4L777.0,513.8L778.6,516.8L782.9,518.7L782.9,520.4L787.6,523.9L787.1,526.7L792.2,527.3L794.9,526.2L795.9,527.2L799.0,525.0L801.2,525.7L805.5,523.0L813.3,521.8L815.9,523.5L818.6,524.3L822.6,518.6L825.3,519.7L830.1,519.3L831.7,518.1L836.2,517.4L837.5,512.5L838.6,511.1L836.1,504.1L838.2,500.4L838.3,498.3L841.2,494.8L840.3,493.2L842.7,491.2L844.0,492.1L849.1,489.6L851.0,490.5L856.8,487.7L858.3,490.7L860.0,490.6L859.0,492.4L860.1,493.3L863.1,493.4L865.3,494.2L868.5,497.7L871.5,498.9L873.1,497.4L873.3,499.5L874.6,500.1L875.7,503.3L877.5,501.3L879.2,501.3L882.2,505.4L882.3,503.7L885.8,503.1L886.1,500.7L888.7,501.2L891.9,503.0L894.2,502.8L896.0,501.2L895.7,499.0L898.1,499.2L898.9,497.7L901.0,500.0L902.0,499.5L906.3,504.3L907.9,503.7L908.5,505.2L911.4,507.1L916.1,507.4L916.8,508.4L918.9,507.2L919.7,508.6L922.9,511.1L924.4,514.4L927.6,516.1L934.9,513.2L939.4,513.8L942.0,512.0L945.7,512.0L951.0,516.8L952.8,515.5L955.5,516.9L960.5,509.2L962.6,507.1L967.6,503.7L971.1,502.5L974.4,502.8L977.5,504.1L983.9,507.6L990.7,510.6L991.8,511.4L999.3,514.0L996.3,511.1L995.0,507.7L988.5,502.4L986.9,500.2L983.2,490.8L982.0,481.9L985.0,472.5L984.7,469.4L982.1,469.5L981.2,468.0L981.7,464.2L980.4,463.2L979.5,460.2L976.9,457.1L975.3,456.5L973.6,453.0L967.1,451.7L965.1,449.1L963.3,445.7L958.4,446.5L956.7,443.0L952.7,443.5L950.9,442.6L949.8,437.2L947.5,435.1L942.1,432.6L936.7,432.9L934.2,432.6L929.7,430.8L928.5,429.7L926.2,424.8L924.8,424.4L920.6,427.2L920.9,423.7L922.1,422.2L926.2,418.9L926.9,415.7L922.8,413.5L922.4,409.2L921.2,408.2L918.0,407.4L916.6,406.4L909.9,399.9L909.4,398.1L909.8,393.7L912.4,386.9L916.0,380.6L916.4,376.9L912.6,374.5L905.4,371.1L901.0,367.1L898.6,363.7L894.2,361.5L892.7,357.4L892.8,355.9L890.7,355.5L889.9,353.5L889.1,347.1L884.7,346.5L884.0,344.7L880.9,343.8L878.5,342.3L877.6,339.2L872.9,338.2L866.6,332.7L863.7,332.2L861.8,330.5L854.5,327.7L851.0,324.2L847.1,323.7L842.1,320.1L837.8,317.7L835.5,314.4L833.8,310.2L832.6,309.8L824.6,303.4L822.9,299.0L824.2,294.8L829.2,292.8L830.9,291.2L831.2,289.6L830.2,285.9L830.5,282.1L828.0,274.3L826.2,271.9L822.8,269.8L821.0,269.4L816.5,270.1L814.1,269.1L811.8,267.2L804.1,257.0L803.9,254.0L803.1,252.6L796.4,245.8L794.0,244.5L789.6,243.9L787.1,242.4L779.8,241.3L774.5,242.2L772.0,242.2L769.6,240.5L765.7,236.6L763.1,236.9L757.8,238.6L754.3,237.0L752.9,236.8Z " data-id="CF.HM" data-name="Haut-Mbomou" id="CF.HM"/>
utf-8utf-8<path d="M754.5,368.2L693.2,407.3L689.8,413.9L687.8,415.4L684.8,415.1L682.4,416.9L681.1,418.8L681.3,423.2L679.5,425.0L677.3,425.2L657.3,419.7L651.5,417.4L647.7,413.9L645.0,410.1L639.7,410.7L634.6,410.2L625.1,412.3L621.2,417.8L620.2,422.4L617.4,426.6L613.1,429.4L605.2,430.2L602.5,428.1L600.4,428.5L593.2,433.1L591.2,438.5L588.7,441.9L588.2,444.5L588.5,450.7L588.2,453.8L586.8,457.0L589.4,464.5L585.1,465.0L584.7,466.8L586.1,466.6L582.9,470.9L581.5,471.5L579.5,473.9L575.4,477.8L575.4,479.0L575.3,483.3L576.0,487.6L575.0,490.9L574.9,500.2L572.7,507.6L570.4,509.0L567.6,513.9L569.8,516.5L570.0,521.2L566.7,526.3L565.8,536.8L564.7,538.3L563.9,541.8L564.5,543.2L563.4,544.9L563.9,546.3L568.5,547.6L569.7,546.9L571.9,549.9L574.7,550.9L576.6,552.6L577.1,554.5L580.3,557.8L579.9,561.0L583.8,561.8L588.2,560.1L591.3,559.9L593.8,560.5L595.0,562.4L594.0,566.0L592.0,569.0L590.7,572.7L589.1,574.6L586.7,587.0L588.4,587.8L592.3,588.7L599.9,593.8L607.2,595.7L616.3,595.2L619.0,593.9L621.7,591.8L625.7,586.3L625.2,582.7L630.8,574.4L629.2,572.0L629.1,565.8L630.4,564.9L635.4,564.8L636.5,564.2L637.3,559.9L638.3,559.1L639.0,552.3L640.1,551.6L645.0,543.5L648.9,545.2L649.7,542.8L652.0,540.5L651.0,537.4L651.5,536.4L657.3,534.4L658.2,534.5L661.3,541.8L667.7,545.2L669.5,544.8L672.9,542.9L676.0,547.0L679.4,549.4L681.0,552.1L682.7,552.4L689.9,555.9L694.4,549.7L698.8,548.2L703.4,544.1L708.5,542.3L711.4,540.3L718.1,538.6L721.0,536.2L726.1,536.1L726.9,535.3L732.5,536.0L732.1,533.0L733.1,531.4L734.7,532.8L740.0,529.8L743.2,527.1L748.8,528.2L750.9,525.0L755.1,524.1L755.7,526.2L759.0,519.9L764.4,519.1L766.6,516.0L764.7,515.5L765.4,510.8L766.5,509.6L768.1,513.8L769.1,514.3L769.6,511.4L771.3,510.9L773.0,511.3L775.4,509.5L778.7,509.9L777.7,508.4L777.3,505.0L777.7,503.6L779.9,504.4L782.1,497.6L782.8,496.6L788.9,497.6L792.1,495.0L798.5,492.3L800.3,490.2L802.3,491.4L803.2,486.2L803.8,486.7L805.6,484.1L805.8,482.4L807.8,482.8L810.3,481.0L809.3,479.0L813.1,476.2L814.1,472.7L815.6,471.5L814.0,469.9L815.4,469.1L814.7,461.8L819.4,452.4L821.0,450.3L823.4,451.4L824.4,444.8L825.7,442.5L823.9,437.7L819.4,436.7L812.3,428.0L811.0,425.8L801.1,416.1L800.5,413.9L803.2,414.9L806.9,415.2L811.5,412.3L812.4,408.9L816.9,407.1L816.8,403.3L816.1,402.1L811.6,397.6L802.6,390.9L801.1,390.7L793.9,392.6L789.4,397.7L786.9,399.1L784.6,398.8L781.7,399.6L776.3,394.7L754.5,368.2Z " data-id="CF.MB" data-name="Mbomou" id="CF.MB"/>
utf-8</g>
</svg>
