<?xml version="1.0" ?>
<!DOCTYPE svg
  PUBLIC '-//W3C//DTD SVG 1.1//EN'
  'http://www.w3.org/Graphics/SVG/1.1/DTD/svg11.dtd'>
<svg enable_background="new 0 0 1000 549" height="549px" pretty_print="True" style="stroke-linejoin: round; stroke:#000; fill: none;" version="1.1" viewBox="0 0 1000 549" width="1000px" xmlns="http://www.w3.org/2000/svg" xmlns:xlink="http://www.w3.org/1999/xlink">
utf-8<defs>
utf-8utf-8<style type="text/css">
<![CDATA[path { fill-rule: evenodd; }]]>utf-8utf-8</style>
utf-8</defs>
utf-8<metadata>
utf-8utf-8<views>
utf-8utf-8utf-8<view h="549.928514461" padding="0" w="1000">
utf-8utf-8utf-8utf-8<proj flip="auto" id="robinson" lon0="6.07524197191"/>
utf-8utf-8utf-8utf-8<bbox h="32.46" w="59.13" x="78.48" y="-799.21"/>
utf-8utf-8utf-8</view>
utf-8utf-8</views>
utf-8</metadata>
utf-8<g class="" id="provinces">
utf-8utf-8<path d="M33.2,413.0L32.5,415.2L31.2,423.0L31.4,428.5L30.5,430.4L23.1,431.7L20.1,431.3L7.0,436.9L1.6,439.9L0.9,443.2L3.3,447.0L7.4,451.3L6.8,453.6L5.2,456.4L7.7,459.7L17.7,457.6L27.8,457.2L35.5,460.2L42.6,457.0L53.6,445.5L67.6,437.4L73.2,432.1L71.8,425.8L70.3,425.2L66.6,426.6L63.2,424.4L61.0,419.9L60.0,417.0L51.3,432.5L40.6,441.9L43.2,435.9L44.8,434.6L46.0,424.2L49.4,415.5L49.5,415.4L48.9,415.6L38.5,408.3L36.2,406.8L33.2,413.0Z " data-id="CH.GE" data-name="Genève" id="CH.GE"/>
utf-8utf-8<path d="M188.3,175.3L190.9,176.2L197.0,176.6L200.8,179.2L204.9,177.5L212.7,172.3L215.2,171.1L220.2,171.2L222.5,170.8L226.8,167.5L230.3,165.9L236.6,158.2L237.5,155.5L239.8,154.5L246.7,155.1L257.5,153.3L258.1,151.2L258.0,146.9L260.2,145.5L261.5,139.6L280.2,142.8L287.8,142.0L293.4,140.3L299.4,136.3L301.2,135.6L304.1,132.0L306.0,134.5L308.2,135.3L332.5,137.0L345.5,133.8L346.1,133.1L341.9,132.6L341.4,129.5L344.8,126.6L341.2,124.1L339.0,121.2L337.1,120.0L329.4,119.2L318.6,116.9L314.7,115.9L314.3,113.7L312.6,111.6L306.5,107.5L295.9,102.3L289.7,102.1L283.9,103.1L275.7,106.2L272.5,105.8L270.0,103.2L263.4,101.5L258.5,99.0L257.1,94.5L260.9,86.7L254.9,87.2L251.9,86.8L249.0,85.4L243.8,84.4L232.8,86.1L227.1,85.4L225.0,84.1L215.0,86.4L215.7,89.5L218.1,93.3L219.3,96.6L217.7,99.0L214.5,101.4L211.0,103.1L205.3,104.2L205.1,109.5L199.5,112.3L196.4,115.9L193.8,120.3L192.8,123.8L219.0,121.6L223.0,119.9L229.8,124.8L232.2,127.6L230.6,130.6L224.0,133.4L221.0,137.2L217.8,137.8L213.7,141.4L212.5,147.1L213.7,154.0L199.0,163.4L192.8,169.0L188.8,174.9L188.3,175.3Z " data-id="CH.JU" data-name="Jura" id="CH.JU"/>
utf-8utf-8<path d="M188.3,175.3L174.7,186.4L168.1,188.4L168.5,193.1L163.8,196.8L158.3,198.5L156.3,200.2L153.5,204.6L156.3,209.7L151.5,216.0L137.0,225.6L113.4,232.0L102.8,237.3L99.9,247.1L100.9,249.6L104.0,254.4L104.8,257.4L104.5,261.3L103.8,263.0L107.8,262.4L119.2,261.9L137.0,253.6L143.6,251.7L147.0,249.8L152.7,245.5L165.5,238.8L166.4,242.2L165.9,244.9L167.8,248.0L169.7,249.2L170.6,252.2L170.6,254.8L171.5,257.7L175.4,264.7L199.0,247.6L205.9,242.5L214.3,236.5L230.5,224.7L232.4,219.7L235.9,211.1L245.0,206.8L245.5,204.4L244.5,199.1L243.1,195.3L236.5,192.2L233.5,191.5L233.2,187.7L231.7,188.1L198.3,197.0L200.4,186.2L198.1,181.2L195.5,178.3L190.9,176.2L188.3,175.3Z " data-id="CH.NE" data-name="Neuchâtel" id="CH.NE"/>
utf-8utf-8<path d="M532.8,61.0L518.7,61.0L510.2,59.1L508.0,57.9L503.8,51.3L501.3,51.1L495.5,49.6L491.5,49.6L479.7,51.3L476.1,54.7L472.1,55.7L465.6,59.1L462.1,63.5L460.0,64.8L450.2,66.6L421.4,66.6L419.5,60.3L418.1,59.1L403.8,58.4L400.7,57.0L396.9,62.3L393.5,65.9L389.4,67.9L380.8,69.4L392.1,74.4L392.0,75.7L393.4,79.9L396.4,79.5L402.3,74.4L402.7,70.7L407.8,70.9L412.0,75.6L418.8,84.0L419.7,86.1L421.7,87.3L428.5,88.0L429.2,93.6L432.0,95.1L435.5,95.7L437.5,97.6L438.2,102.5L439.7,103.3L440.8,107.1L446.0,111.0L448.8,111.6L449.3,116.9L447.8,120.0L445.4,123.3L442.7,129.3L439.4,131.0L425.2,129.2L421.6,128.2L412.1,135.9L406.5,145.6L405.0,147.4L405.7,152.8L406.0,153.5L409.0,157.7L422.4,155.3L427.5,155.3L433.9,153.0L434.5,151.9L434.1,146.4L435.5,145.2L440.2,145.1L443.6,146.3L448.9,154.6L463.9,149.5L467.3,152.5L471.8,153.7L477.8,153.9L480.5,155.1L479.3,157.8L481.7,159.5L485.2,159.9L488.7,157.6L493.4,150.0L494.3,147.7L497.8,144.0L501.5,143.7L505.2,145.0L507.9,147.7L508.7,150.4L511.5,155.9L519.7,173.9L520.5,175.2L526.0,181.1L528.8,182.3L535.0,182.5L535.2,182.5L533.2,172.8L531.5,161.1L531.6,159.4L531.7,158.6L534.4,153.9L529.1,144.9L528.4,142.7L535.5,140.0L539.4,135.4L541.3,132.4L541.8,129.7L535.3,131.5L532.1,128.0L531.1,120.5L526.8,118.6L525.1,115.6L530.8,110.5L531.6,108.2L527.9,103.8L526.0,99.5L520.8,90.7L519.5,86.8L519.5,84.0L520.3,78.7L523.8,73.7L528.4,69.6L533.2,62.6L533.5,60.9L532.8,61.0Z " data-id="CH.AG" data-name="Aargau" id="CH.AG"/>
utf-8utf-8<path d="M535.0,182.5L528.8,182.3L526.0,181.1L520.5,175.2L519.7,173.9L511.5,155.9L508.7,150.4L507.9,147.7L505.2,145.0L501.5,143.7L497.8,144.0L494.3,147.7L493.4,150.0L488.7,157.6L485.2,159.9L481.7,159.5L479.3,157.8L480.5,155.1L477.8,153.9L471.8,153.7L467.3,152.5L463.9,149.5L448.9,154.6L443.6,146.3L440.2,145.1L435.5,145.2L434.1,146.4L434.5,151.9L433.9,153.0L427.5,155.3L422.4,155.3L409.0,157.7L415.2,168.9L418.3,175.2L418.5,178.0L420.7,186.3L418.1,193.8L418.3,199.3L417.9,206.6L418.5,208.6L423.3,214.2L424.3,218.7L430.1,219.2L431.8,220.3L436.5,221.1L435.4,227.5L434.1,231.2L429.2,240.2L421.2,242.3L420.1,245.6L420.7,249.0L417.6,255.7L419.9,261.2L420.1,263.3L423.6,266.5L438.7,276.6L441.4,280.1L444.5,283.1L450.8,281.6L454.6,280.2L459.1,280.5L462.6,275.6L461.2,271.2L459.2,266.4L463.2,257.4L463.8,253.4L466.8,248.1L468.7,247.0L472.9,248.1L478.0,242.3L482.3,238.8L481.4,233.6L485.4,230.7L497.7,229.7L496.6,227.6L498.5,224.4L506.5,222.5L520.0,222.6L524.7,221.2L528.0,219.7L530.5,221.0L531.1,222.2L538.4,222.3L540.5,221.7L540.7,220.4L542.6,218.8L545.7,219.3L548.9,221.8L550.2,223.7L557.3,220.4L558.7,216.9L557.0,214.5L548.3,207.8L539.3,205.8L536.0,207.2L533.5,206.1L532.2,204.7L534.7,199.5L535.2,196.0L537.0,194.0L543.7,190.5L542.3,187.5L540.0,186.7L538.1,186.3L535.2,182.5L535.0,182.5Z " data-id="CH.LU" data-name="Lucerne" id="CH.LU"/>
utf-8utf-8<path d="M548.9,221.8L545.7,219.3L542.6,218.8L540.7,220.4L540.5,221.7L538.4,222.3L531.1,222.2L530.5,221.0L528.0,219.7L524.7,221.2L520.0,222.6L506.5,222.5L498.5,224.4L496.6,227.6L497.7,229.7L501.4,229.0L514.2,229.8L515.0,230.2L512.6,237.6L512.4,239.4L515.0,241.7L520.3,243.8L521.9,245.8L522.2,253.2L521.0,257.6L520.7,265.9L521.5,272.4L526.3,277.8L531.0,280.2L536.4,284.1L542.7,282.4L542.0,280.4L538.5,279.2L532.3,272.0L531.7,268.9L530.3,265.4L528.4,258.6L530.9,256.9L533.2,261.0L537.4,258.6L542.7,262.2L553.4,261.8L552.3,256.3L551.6,251.3L549.8,249.2L554.0,245.5L565.1,240.5L569.0,236.5L572.0,226.9L571.6,225.2L555.7,227.0L550.2,223.7L548.9,221.8Z " data-id="CH.NW" data-name="Nidwalden" id="CH.NW"/>
utf-8utf-8<path d="M549.2,347.4L545.6,342.8L543.1,337.8L542.2,333.2L544.6,322.2L543.6,317.9L541.7,317.2L539.4,317.5L535.3,322.1L532.1,330.9L531.2,337.0L527.1,341.9L521.4,345.6L511.4,350.5L506.1,352.2L494.6,354.2L491.5,353.5L490.8,351.2L484.8,350.6L479.4,348.6L477.5,347.2L458.4,344.1L452.7,344.4L444.5,349.2L446.3,352.8L444.9,355.9L438.9,359.3L431.0,364.2L421.0,366.1L418.4,365.4L392.0,382.3L389.4,382.5L374.5,376.5L369.8,375.9L368.1,376.9L367.1,379.4L364.1,381.7L356.7,383.6L351.7,386.4L353.0,387.8L356.0,389.2L352.8,391.7L345.0,394.6L343.1,395.1L334.4,393.2L324.7,393.2L321.6,393.8L318.5,396.7L313.6,399.7L305.3,402.1L302.6,401.2L302.3,396.4L300.3,395.8L292.0,400.4L290.4,402.9L282.8,406.9L280.2,409.5L276.5,413.1L277.0,417.6L276.2,419.7L273.7,423.7L270.8,427.4L266.6,431.2L264.1,432.1L259.1,437.7L251.9,441.9L243.5,446.0L240.9,443.2L239.1,440.4L234.0,434.7L219.1,413.5L218.0,410.9L216.8,406.1L214.4,404.4L211.4,403.9L208.6,402.3L207.7,400.2L208.3,394.9L206.8,392.5L203.4,389.2L188.6,386.7L184.4,386.5L184.7,389.2L183.3,393.9L177.6,399.8L176.6,403.0L181.0,409.3L189.1,416.5L194.5,424.0L187.0,437.2L183.5,447.1L181.8,456.6L183.8,461.2L201.7,464.6L205.2,467.4L205.0,469.5L201.4,474.7L201.9,477.4L201.9,482.7L203.7,486.0L205.8,486.3L210.9,483.1L216.0,485.0L231.6,499.7L232.7,500.3L233.6,503.3L241.0,519.1L251.3,528.7L256.6,531.4L263.5,532.6L270.8,532.5L277.4,531.4L291.0,526.6L297.2,523.2L300.1,522.3L316.9,523.9L323.9,521.7L336.8,513.4L343.3,510.9L348.0,510.4L352.4,504.5L356.0,502.8L378.9,507.7L382.5,509.5L385.9,512.2L390.7,518.1L393.5,518.9L399.1,517.7L410.0,521.0L416.1,520.9L421.4,522.1L424.2,520.7L425.0,515.5L429.8,514.9L430.2,509.7L432.5,505.7L435.6,503.4L451.3,500.3L455.0,498.6L457.6,495.5L460.1,490.2L461.0,482.4L461.3,476.1L462.7,473.3L464.9,471.8L469.5,471.4L471.9,470.7L481.3,463.4L485.8,454.4L484.8,444.3L477.8,433.4L472.4,429.5L471.6,428.4L472.4,426.1L474.6,423.4L478.7,419.6L483.5,417.6L493.0,415.8L497.5,413.0L508.0,400.6L514.1,397.9L516.6,396.2L518.7,393.9L520.0,391.4L519.8,388.6L517.3,386.4L519.1,382.9L523.6,378.6L529.5,375.8L538.9,374.0L538.5,370.7L540.9,365.1L540.7,362.8L548.4,361.1L552.0,359.0L558.2,351.5L549.2,347.4Z " data-id="CH.VS" data-name="Valais" id="CH.VS"/>
utf-8utf-8<path d="M788.1,96.0L778.8,92.2L777.9,92.2L772.2,96.4L757.0,101.7L753.7,107.8L751.1,108.5L746.2,108.5L738.3,109.6L728.4,111.3L715.3,111.3L713.3,111.0L708.0,120.1L705.1,122.8L708.2,127.7L712.1,127.7L712.4,128.6L709.0,135.2L710.8,141.4L708.4,144.0L713.1,146.7L724.2,147.9L734.9,152.6L738.6,151.8L737.3,148.9L735.9,145.5L733.0,141.9L731.6,137.8L731.9,131.3L732.6,129.7L738.5,123.7L739.6,121.1L739.5,115.6L740.8,114.4L764.8,123.8L771.9,124.0L770.2,119.8L771.0,112.9L771.5,109.8L776.3,107.6L775.5,105.5L776.0,103.9L779.5,101.8L783.0,104.7L782.2,108.0L782.8,111.9L792.0,106.9L791.5,104.4L784.4,101.4L784.0,99.7L788.2,99.9L791.5,99.3L797.1,97.3L788.1,96.0Z " data-id="CH.AR" data-name="Appenzell Ausserrhoden" id="CH.AR"/>
utf-8utf-8<path d="M648.8,116.7L649.8,117.9L655.4,125.9L657.7,134.0L655.7,136.5L653.0,138.6L650.3,142.2L650.5,144.5L647.6,147.4L634.8,152.5L631.9,152.7L622.8,151.7L618.8,154.4L616.0,160.8L628.2,162.6L648.9,160.8L655.9,162.7L655.4,167.7L656.9,170.0L663.1,175.1L666.5,173.5L667.8,173.5L679.8,182.5L683.3,184.2L706.7,188.0L706.2,201.2L705.2,205.1L697.7,209.7L701.6,212.9L703.0,213.2L707.1,212.8L712.8,211.2L716.5,214.5L719.7,219.6L721.2,224.0L720.1,234.6L723.1,241.4L722.8,243.9L726.5,247.5L729.4,247.2L759.2,250.9L763.9,252.9L766.4,254.5L769.2,252.1L772.0,251.3L774.7,246.9L775.8,239.3L782.5,228.5L786.5,226.5L785.1,224.3L777.9,214.5L775.2,209.9L773.2,204.2L772.9,201.6L775.3,198.6L778.5,195.7L780.5,192.0L780.1,186.1L778.0,181.6L775.4,177.6L773.5,173.1L773.6,163.7L777.0,154.4L787.0,138.8L794.1,131.1L795.8,124.3L796.7,121.8L804.8,112.6L806.7,108.4L806.3,96.7L799.8,91.9L791.4,88.8L784.0,80.0L776.6,85.4L771.5,86.7L767.1,83.5L760.1,82.6L761.0,80.0L758.7,78.8L747.8,86.0L746.4,88.6L743.0,86.8L737.8,81.3L737.2,80.0L737.8,76.4L735.7,73.6L732.5,73.7L724.3,76.2L721.6,79.2L724.0,79.5L728.1,79.1L729.5,83.2L727.5,87.3L723.0,88.1L718.9,89.7L715.0,89.2L706.3,87.6L699.0,84.6L695.5,81.3L691.0,86.3L687.3,86.8L678.3,86.3L676.7,84.6L672.2,85.0L668.3,84.6L666.6,86.3L663.2,87.2L662.5,88.4L663.3,90.7L669.6,94.5L670.0,99.2L660.6,101.8L657.6,107.6L655.5,109.8L652.7,114.5L651.0,116.5L648.8,116.7Z M734.9,152.6L724.2,147.9L713.1,146.7L708.4,144.0L710.8,141.4L709.0,135.2L712.4,128.6L712.1,127.7L708.2,127.7L705.1,122.8L708.0,120.1L713.3,111.0L715.3,111.3L728.4,111.3L738.3,109.6L746.2,108.5L751.1,108.5L753.7,107.8L757.0,101.7L772.2,96.4L777.9,92.2L778.8,92.2L788.1,96.0L797.1,97.3L792.2,101.7L791.8,102.3L791.5,104.4L792.0,106.9L782.8,111.9L779.7,110.5L776.9,110.9L771.0,112.9L770.2,119.8L771.9,124.0L768.9,139.8L764.9,146.7L761.9,149.6L758.9,151.6L754.6,153.5L748.5,155.5L741.6,153.6L738.6,151.8L734.9,152.6Z " data-id="CH.SG" data-name="Sankt Gallen" id="CH.SG"/>
utf-8utf-8<path d="M715.2,450.7L709.8,447.4L702.9,440.8L697.6,437.5L694.5,432.1L695.0,428.6L694.7,426.2L692.2,422.2L689.8,415.8L692.7,410.8L692.3,405.4L695.5,399.9L696.2,398.0L695.6,389.6L697.5,383.5L695.1,378.5L694.6,376.2L694.8,369.3L692.1,365.1L685.7,365.5L683.2,362.5L679.3,356.3L677.7,351.0L678.7,344.3L680.2,338.9L682.1,335.2L678.3,331.2L673.0,329.1L665.5,328.5L663.3,324.1L654.3,327.0L652.5,330.3L653.5,333.3L651.0,335.6L639.9,339.4L626.9,341.4L609.7,340.1L602.2,337.1L593.1,340.6L573.5,336.7L570.9,336.9L568.0,338.5L565.3,346.2L558.2,351.5L552.0,359.0L548.4,361.1L540.7,362.8L540.9,365.1L538.5,370.7L538.9,374.0L541.8,373.5L548.2,374.4L551.5,378.3L552.6,384.5L553.1,392.8L552.7,400.8L549.7,415.1L549.2,422.2L550.4,429.0L553.0,433.4L557.2,436.3L563.1,438.4L569.3,441.0L575.9,446.6L590.7,464.5L597.3,466.8L607.9,472.0L611.8,472.2L619.9,468.8L621.7,471.4L623.4,472.4L627.0,472.8L633.8,472.6L637.2,473.7L643.2,480.1L640.1,486.6L634.1,493.3L629.4,503.1L633.2,503.3L636.6,504.4L649.7,510.3L652.7,513.1L655.1,517.5L659.3,523.4L661.3,527.0L662.7,530.6L663.3,535.4L661.3,542.1L660.7,546.4L669.4,544.0L676.8,546.8L683.6,547.9L690.4,540.4L695.5,531.0L696.1,526.3L693.4,521.8L691.3,520.6L686.4,519.8L684.2,518.7L682.0,516.1L679.9,511.1L677.5,509.0L677.3,506.2L684.4,500.3L680.0,490.7L680.8,487.6L686.4,483.8L691.2,482.5L693.3,481.4L694.9,478.8L695.5,475.4L694.7,469.2L695.4,465.6L699.3,460.3L715.1,450.9L715.2,450.7Z " data-id="CH.TI" data-name="Ticino" id="CH.TI"/>
utf-8utf-8<path d="M723.1,241.4L720.1,234.6L721.2,224.0L719.7,219.6L716.5,214.5L712.8,211.2L707.1,212.8L703.0,213.2L701.6,212.9L697.7,209.7L705.2,205.1L706.2,201.2L706.7,188.0L683.3,184.2L679.8,182.5L667.8,173.5L666.5,173.5L663.1,175.1L659.3,186.8L659.4,188.4L657.5,194.0L658.0,199.7L652.5,207.7L647.1,209.9L644.7,211.5L643.8,214.6L647.0,217.0L653.5,224.6L653.1,226.8L658.9,231.3L660.2,234.4L658.6,241.4L654.0,243.4L657.2,248.0L658.5,252.2L658.5,255.0L656.2,257.6L647.6,260.9L642.0,264.5L642.0,267.7L642.3,273.0L647.0,273.2L649.3,273.9L654.4,277.1L666.5,273.9L671.4,271.8L676.0,267.5L679.0,261.2L679.5,257.4L683.1,256.4L686.8,256.7L691.6,259.5L693.5,260.1L695.7,259.5L703.0,255.1L706.2,254.5L710.4,254.5L713.3,253.1L716.9,248.7L722.8,243.9L723.1,241.4Z " data-id="CH.GL" data-name="Glarus" id="CH.GL"/>
utf-8utf-8<path d="M773.2,204.2L775.2,209.9L777.9,214.5L785.1,224.3L786.5,226.5L782.5,228.5L775.8,239.3L774.7,246.9L772.0,251.3L769.2,252.1L766.4,254.5L763.9,252.9L759.2,250.9L729.4,247.2L726.5,247.5L722.8,243.9L716.9,248.7L713.3,253.1L710.4,254.5L706.2,254.5L703.0,255.1L695.7,259.5L693.5,260.1L691.6,259.5L686.8,256.7L683.1,256.4L679.5,257.4L679.0,261.2L676.0,267.5L671.4,271.8L666.5,273.9L654.4,277.1L649.3,273.9L647.0,273.2L642.3,273.0L640.1,275.7L636.2,278.3L632.4,279.8L632.5,285.4L628.9,290.2L628.9,293.7L627.5,295.1L619.9,294.6L616.1,295.8L614.0,297.8L609.1,303.6L601.2,306.4L599.0,308.7L599.2,311.4L596.0,320.3L596.8,324.6L600.8,327.8L602.7,333.4L602.2,337.1L609.7,340.1L626.9,341.4L639.9,339.4L651.0,335.6L653.5,333.3L652.5,330.3L654.3,327.0L663.3,324.1L665.5,328.5L673.0,329.1L678.3,331.2L682.1,335.2L680.2,338.9L678.7,344.3L677.7,351.0L679.3,356.3L683.2,362.5L685.7,365.5L692.1,365.1L694.8,369.3L694.6,376.2L695.1,378.5L697.5,383.5L695.6,389.6L696.2,398.0L695.5,399.9L692.3,405.4L692.7,410.8L689.8,415.8L692.2,422.2L694.7,426.2L695.0,428.6L694.5,432.1L697.6,437.5L702.9,440.8L709.8,447.4L715.2,450.7L716.7,448.0L718.7,442.1L723.6,439.5L726.1,437.4L730.9,424.7L736.8,413.0L737.9,406.9L737.5,403.3L734.0,393.5L733.8,389.6L734.3,386.1L733.7,383.3L730.6,381.5L728.3,377.8L729.8,371.0L733.3,364.4L737.4,361.0L748.2,359.8L752.6,360.9L752.9,364.3L758.8,368.9L760.5,369.5L762.9,368.7L766.0,363.3L769.5,361.1L771.2,360.7L772.0,362.5L774.6,389.0L774.5,393.2L776.7,396.1L781.7,398.5L783.7,399.9L788.6,409.8L791.6,413.2L796.5,415.9L801.7,417.6L827.2,417.8L831.3,416.4L834.5,412.3L834.0,407.0L834.3,403.8L836.6,401.5L839.0,401.5L844.5,404.4L847.4,404.9L852.0,403.6L866.4,397.0L876.1,395.6L880.4,395.9L885.0,396.9L890.7,400.1L892.4,404.6L892.8,410.0L894.5,416.1L898.0,419.9L907.1,426.6L909.6,431.3L910.1,437.5L917.4,437.7L926.7,434.6L932.7,431.2L935.4,425.9L932.3,421.0L922.7,413.0L919.5,407.6L919.5,405.0L920.5,401.3L922.0,398.6L926.5,395.0L928.0,393.1L929.4,387.1L927.6,384.0L923.7,382.7L913.7,381.1L907.0,378.9L903.3,375.1L907.0,369.4L905.0,368.3L902.8,362.1L903.6,359.2L903.6,351.1L905.4,348.7L909.9,344.6L911.7,342.4L914.0,333.4L914.8,331.4L916.9,330.4L937.6,325.2L943.4,325.1L947.0,327.6L947.6,330.7L946.7,336.4L947.8,339.4L957.1,342.1L961.6,346.1L967.0,347.5L974.7,346.9L990.8,350.5L994.8,349.8L997.7,345.4L999.1,338.6L998.9,331.4L996.9,326.1L992.1,322.7L982.6,321.9L978.4,317.9L976.3,312.6L977.2,309.9L979.5,308.0L981.5,304.7L981.7,300.8L981.4,297.6L982.1,295.1L985.8,293.0L988.3,289.5L987.5,285.7L985.7,281.7L985.1,277.6L991.6,268.3L992.3,259.4L991.4,253.5L993.7,244.1L992.3,239.4L990.2,237.4L982.4,232.3L977.4,225.9L975.0,223.8L971.4,223.1L965.1,226.3L959.8,231.8L956.3,238.1L956.4,243.3L950.9,243.5L946.6,242.5L943.0,243.1L939.9,248.0L938.4,255.9L936.3,258.8L926.9,263.0L921.2,264.4L916.6,264.2L906.9,261.6L901.8,259.1L892.9,252.1L868.9,245.6L863.2,242.0L860.2,238.6L859.7,236.0L860.3,233.0L860.5,226.5L861.2,222.2L858.0,220.8L858.2,217.6L815.8,206.3L812.1,205.8L800.6,207.1L796.4,206.1L791.9,207.4L778.3,205.5L773.2,204.2Z " data-id="CH.GR" data-name="Graubünden" id="CH.GR"/>
utf-8utf-8<path d="M567.1,57.8L564.2,58.7L562.1,56.6L557.5,60.5L557.4,62.5L561.9,66.4L562.7,66.7L565.1,64.4L567.6,58.1L567.5,57.1L567.1,57.8Z M570.6,39.6L573.5,36.1L577.2,33.1L578.6,30.6L580.4,29.0L589.9,29.3L589.4,33.5L589.9,37.9L593.9,42.1L595.9,42.6L604.9,42.9L613.0,38.8L613.5,38.4L615.9,33.1L618.0,33.9L620.5,32.9L627.4,36.0L624.1,33.3L624.0,31.4L628.0,30.6L622.1,26.0L614.8,22.5L608.9,22.2L607.1,27.7L609.0,29.4L597.4,29.5L596.2,25.6L594.4,23.8L593.3,21.5L594.0,19.7L597.3,14.9L595.7,12.1L591.1,12.2L588.8,11.8L585.2,6.3L583.0,3.6L580.1,2.8L578.2,4.6L577.3,10.6L574.6,12.1L572.4,10.8L571.5,7.4L570.7,1.8L566.6,0.3L561.1,0.0L557.6,1.7L559.9,6.1L556.6,7.5L544.8,9.5L542.4,9.4L540.7,10.3L537.8,14.0L536.9,16.1L535.5,21.6L533.2,23.5L527.8,26.1L525.7,28.2L525.5,30.2L527.2,34.6L525.9,37.6L530.5,38.8L536.3,42.5L541.0,44.7L544.9,44.5L554.3,39.8L564.9,38.3L568.0,38.7L570.6,39.6Z " data-id="CH.SH" data-name="Schaffhausen" id="CH.SH"/>
utf-8utf-8<path d="M656.9,170.0L655.4,167.7L655.9,162.7L648.9,160.8L628.2,162.6L616.0,160.8L606.5,162.5L598.1,167.2L594.8,170.2L594.4,172.5L596.0,174.6L596.4,176.1L600.6,178.5L596.8,182.1L595.3,186.2L589.4,192.6L587.0,194.1L581.1,195.7L571.6,197.7L567.6,195.4L556.2,196.2L552.0,188.8L548.1,188.1L545.9,189.1L543.7,190.5L537.0,194.0L535.2,196.0L534.7,199.5L532.2,204.7L533.5,206.1L536.0,207.2L539.3,205.8L548.3,207.8L557.0,214.5L558.7,216.9L557.3,220.4L550.2,223.7L555.7,227.0L571.6,225.2L578.1,224.9L580.4,226.7L582.4,233.1L587.4,235.1L593.8,236.8L598.8,236.5L603.5,242.8L606.3,242.7L608.5,241.1L614.8,238.5L616.3,238.2L621.1,240.0L627.3,239.9L629.6,241.4L630.4,244.9L633.6,247.1L634.0,250.1L636.4,252.0L637.8,250.8L644.2,248.3L654.0,243.4L658.6,241.4L660.2,234.4L658.9,231.3L653.1,226.8L653.5,224.6L647.0,217.0L643.8,214.6L644.7,211.5L647.1,209.9L652.5,207.7L658.0,199.7L657.5,194.0L659.4,188.4L659.3,186.8L663.1,175.1L656.9,170.0Z " data-id="CH.SZ" data-name="Schwyz" id="CH.SZ"/>
utf-8utf-8<path d="M613.5,38.4L617.1,37.0L618.1,40.7L620.7,43.2L621.1,44.3L618.4,49.7L615.2,53.6L611.3,51.8L606.5,50.2L605.0,50.6L603.3,52.8L606.2,55.8L608.9,56.6L623.2,62.5L624.5,63.6L624.4,67.4L625.4,69.9L629.0,72.3L635.6,74.5L637.8,76.5L636.7,83.8L634.7,89.1L638.0,92.7L639.3,98.3L643.5,101.4L642.2,102.7L641.2,106.8L639.6,108.7L648.8,116.7L651.0,116.5L652.7,114.5L655.5,109.8L657.6,107.6L660.6,101.8L670.0,99.2L669.6,94.5L663.3,90.7L662.5,88.4L663.2,87.2L666.6,86.3L668.3,84.6L672.2,85.0L676.7,84.6L678.3,86.3L687.3,86.8L691.0,86.3L695.5,81.3L699.0,84.6L706.3,87.6L715.0,89.2L718.9,89.7L723.0,88.1L727.5,87.3L729.5,83.2L728.1,79.1L724.0,79.5L721.6,79.2L724.3,76.2L732.5,73.7L735.7,73.6L737.8,76.4L737.2,80.0L737.8,81.3L743.0,86.8L746.4,88.6L747.8,86.0L758.7,78.8L761.0,80.0L760.1,82.6L767.1,83.5L750.4,71.4L749.4,71.2L743.0,60.9L705.9,42.6L700.4,36.2L688.3,36.2L663.6,33.9L659.5,35.3L656.1,38.5L648.2,40.7L639.6,41.4L634.1,40.2L627.5,36.1L627.4,36.0L620.5,32.9L618.0,33.9L615.9,33.1L613.5,38.4Z " data-id="CH.TG" data-name="Thurgau" id="CH.TG"/>
utf-8utf-8<path d="M644.2,248.3L637.8,250.8L636.4,252.0L634.0,250.1L633.6,247.1L630.4,244.9L629.6,241.4L627.3,239.9L621.1,240.0L616.3,238.2L614.8,238.5L608.5,241.1L606.3,242.7L603.5,242.8L598.8,236.5L593.8,236.8L587.4,235.1L582.4,233.1L580.4,226.7L578.1,224.9L571.6,225.2L572.0,226.9L569.0,236.5L565.1,240.5L554.0,245.5L549.8,249.2L551.6,251.3L552.3,256.3L553.4,261.8L555.7,261.6L558.4,262.5L559.6,264.1L556.0,269.1L554.5,274.6L553.6,276.3L555.4,278.2L556.3,281.2L555.7,283.9L548.6,285.8L546.9,289.6L547.7,295.1L549.1,297.4L549.9,306.4L549.2,307.4L539.6,308.1L539.9,311.3L540.9,313.6L541.7,317.2L543.6,317.9L544.6,322.2L542.2,333.2L543.1,337.8L545.6,342.8L549.2,347.4L558.2,351.5L565.3,346.2L568.0,338.5L570.9,336.9L573.5,336.7L593.1,340.6L602.2,337.1L602.7,333.4L600.8,327.8L596.8,324.6L596.0,320.3L599.2,311.4L599.0,308.7L601.2,306.4L609.1,303.6L614.0,297.8L616.1,295.8L619.9,294.6L627.5,295.1L628.9,293.7L628.9,290.2L632.5,285.4L632.4,279.8L636.2,278.3L640.1,275.7L642.3,273.0L642.0,267.7L642.0,264.5L647.6,260.9L656.2,257.6L658.5,255.0L658.5,252.2L657.2,248.0L654.0,243.4L644.2,248.3Z " data-id="CH.UR" data-name="Uri" id="CH.UR"/>
utf-8utf-8<path d="M613.0,38.8L604.9,42.9L595.9,42.6L593.9,42.1L589.9,37.9L589.4,33.5L589.9,29.3L580.4,29.0L578.6,30.6L577.2,33.1L573.5,36.1L570.6,39.6L571.6,40.0L573.6,40.1L572.7,46.7L571.2,46.1L570.8,43.9L567.9,44.9L567.5,46.4L568.6,49.7L568.4,55.7L567.5,57.1L567.6,58.1L565.1,64.4L562.7,66.7L561.9,66.4L557.4,62.5L557.5,60.5L562.1,56.6L561.6,56.1L558.8,52.4L555.3,49.7L548.7,50.2L542.1,54.0L539.8,58.8L539.6,60.1L533.5,60.9L533.2,62.6L528.4,69.6L523.8,73.7L520.3,78.7L519.5,84.0L519.5,86.8L520.8,90.7L526.0,99.5L527.9,103.8L531.6,108.2L530.8,110.5L525.1,115.6L526.8,118.6L531.1,120.5L532.1,128.0L535.3,131.5L541.8,129.7L541.3,132.4L539.4,135.4L535.5,140.0L528.4,142.7L529.1,144.9L534.4,153.9L535.6,156.8L538.0,159.9L546.9,162.4L551.8,162.8L555.9,161.5L562.1,160.5L570.9,161.7L575.1,165.5L579.0,168.3L584.9,174.2L591.5,176.6L596.4,176.1L596.0,174.6L594.4,172.5L594.8,170.2L598.1,167.2L606.5,162.5L616.0,160.8L618.8,154.4L622.8,151.7L631.9,152.7L634.8,152.5L647.6,147.4L650.5,144.5L650.3,142.2L653.0,138.6L655.7,136.5L657.7,134.0L655.4,125.9L649.8,117.9L648.8,116.7L639.6,108.7L641.2,106.8L642.2,102.7L643.5,101.4L639.3,98.3L638.0,92.7L634.7,89.1L636.7,83.8L637.8,76.5L635.6,74.5L629.0,72.3L625.4,69.9L624.4,67.4L624.5,63.6L623.2,62.5L608.9,56.6L606.2,55.8L603.3,52.8L605.0,50.6L606.5,50.2L611.3,51.8L615.2,53.6L618.4,49.7L621.1,44.3L620.7,43.2L618.1,40.7L617.1,37.0L613.5,38.4L613.0,38.8Z " data-id="CH.ZH" data-name="Zürich" id="CH.ZH"/>
utf-8utf-8<path d="M591.5,176.6L584.9,174.2L579.0,168.3L575.1,165.5L570.9,161.7L562.1,160.5L555.9,161.5L551.8,162.8L546.9,162.4L538.0,159.9L535.6,156.8L534.4,153.9L531.7,158.6L531.6,159.4L531.5,161.1L533.2,172.8L535.2,182.5L538.1,186.3L540.0,186.7L542.3,187.5L543.7,190.5L545.9,189.1L548.1,188.1L552.0,188.8L556.2,196.2L567.6,195.4L571.6,197.7L581.1,195.7L587.0,194.1L589.4,192.6L595.3,186.2L596.8,182.1L600.6,178.5L596.4,176.1L591.5,176.6Z " data-id="CH.ZG" data-name="Zug" id="CH.ZG"/>
utf-8utf-8<path d="M179.5,298.6L182.1,295.8L182.2,291.7L179.4,290.6L176.2,293.8L174.7,293.8L174.2,295.1L176.9,299.3L179.5,298.6Z M202.7,292.6L203.4,290.6L202.2,288.5L196.8,284.6L193.4,288.3L189.4,293.3L183.4,296.5L187.3,297.4L189.8,295.4L191.5,294.9L198.0,297.4L201.2,295.4L202.7,292.6Z M199.0,247.6L175.4,264.7L176.7,272.0L177.6,274.0L182.8,277.7L181.7,279.6L189.7,282.4L193.2,282.5L198.5,280.8L201.6,282.4L206.9,282.4L209.7,281.1L211.7,275.5L207.9,274.9L208.5,269.2L211.6,262.8L208.5,259.5L207.2,258.9L206.8,257.0L208.6,255.5L199.0,247.6Z M278.2,240.0L278.9,238.2L275.6,239.0L276.4,240.4L278.2,240.0Z M239.8,227.9L241.6,237.2L242.6,239.2L247.5,247.4L250.0,250.1L248.4,251.7L244.0,253.1L243.5,255.7L242.0,259.0L240.2,261.0L236.3,262.8L235.7,260.1L232.4,256.1L229.9,255.0L228.7,253.1L214.3,236.5L205.9,242.5L213.1,250.8L215.1,252.4L218.9,256.7L220.9,255.1L224.7,257.4L224.1,258.5L224.5,263.5L226.0,265.0L227.6,265.0L224.6,269.3L221.6,271.9L220.4,274.8L220.9,278.6L215.2,286.0L210.4,288.7L214.9,293.6L208.7,301.2L201.4,310.8L200.1,315.2L192.9,316.0L189.4,318.2L186.8,318.4L186.3,325.8L187.3,332.4L186.8,332.7L187.0,337.9L188.8,337.2L192.9,338.1L200.7,338.1L205.8,341.4L208.7,341.1L208.4,341.8L201.3,349.6L200.6,350.0L195.5,348.2L192.5,348.3L190.2,351.7L191.9,355.5L197.2,359.2L200.4,358.8L207.0,354.0L209.4,354.0L212.4,355.0L225.0,362.9L226.6,366.1L228.2,371.5L231.2,375.6L236.3,373.4L238.1,369.4L240.2,367.3L247.0,363.1L253.5,362.4L257.7,359.7L264.8,352.6L277.4,349.3L283.9,344.7L292.6,337.9L299.6,337.2L300.5,336.0L301.3,329.8L300.1,321.6L303.4,318.6L310.3,320.0L312.5,316.2L313.2,307.0L309.6,304.6L307.1,304.3L302.4,300.5L298.5,299.2L296.3,295.6L295.7,291.6L295.5,284.3L295.9,280.0L298.2,270.8L298.1,266.7L296.9,261.8L298.5,260.6L302.6,262.6L305.9,260.5L306.9,258.2L305.6,252.0L287.8,250.6L276.3,247.8L272.3,247.9L272.1,247.2L274.3,241.4L272.6,234.4L271.3,232.6L278.2,225.9L273.5,220.7L257.5,226.4L239.8,227.9Z " data-id="CH.FR" data-name="Fribourg" id="CH.FR"/>
utf-8utf-8<path d="M175.4,264.7L171.5,257.7L170.6,254.8L170.6,252.2L169.7,249.2L167.8,248.0L165.9,244.9L166.4,242.2L165.5,238.8L152.7,245.5L147.0,249.8L143.6,251.7L137.0,253.6L119.2,261.9L107.8,262.4L103.8,263.0L103.4,263.9L101.9,266.3L98.4,276.7L102.0,281.1L102.3,285.8L101.5,288.1L99.1,290.8L96.8,292.3L89.5,295.6L83.9,301.3L81.7,302.9L66.1,310.4L37.0,333.8L34.1,337.2L34.9,340.8L40.4,346.0L32.8,354.5L25.4,365.9L23.0,368.2L22.2,371.3L23.5,374.6L23.7,380.4L21.2,382.5L33.4,388.9L36.7,391.9L39.6,396.1L40.0,399.2L36.2,406.8L38.5,408.3L48.9,415.6L49.5,415.4L79.6,373.8L83.1,370.9L87.1,369.3L101.8,367.7L105.5,365.9L118.3,356.6L121.8,355.4L141.0,354.1L146.0,354.9L182.9,366.2L202.4,371.7L212.6,376.3L216.9,381.5L212.3,386.7L202.1,387.2L203.4,389.2L206.8,392.5L208.3,394.9L207.7,400.2L208.6,402.3L211.4,403.9L214.4,404.4L216.8,406.1L218.0,410.9L219.1,413.5L234.0,434.7L239.1,440.4L240.9,443.2L243.5,446.0L251.9,441.9L259.1,437.7L264.1,432.1L266.6,431.2L270.8,427.4L273.7,423.7L276.2,419.7L277.0,417.6L276.5,413.1L280.2,409.5L282.8,406.9L282.4,401.3L283.7,397.8L276.2,392.2L278.5,385.4L278.4,383.9L276.3,377.6L276.9,376.7L280.5,374.8L283.2,368.9L282.6,365.1L285.9,359.0L286.5,356.8L284.9,347.1L283.9,344.7L277.4,349.3L264.8,352.6L257.7,359.7L253.5,362.4L247.0,363.1L240.2,367.3L238.1,369.4L236.3,373.4L231.2,375.6L228.2,371.5L226.6,366.1L225.0,362.9L212.4,355.0L209.4,354.0L207.0,354.0L200.4,358.8L197.2,359.2L191.9,355.5L190.2,351.7L192.5,348.3L195.5,348.2L200.6,350.0L201.3,349.6L208.4,341.8L208.7,341.1L205.8,341.4L200.7,338.1L192.9,338.1L188.8,337.2L187.0,337.9L186.8,332.7L187.3,332.4L186.3,325.8L186.8,318.4L189.4,318.2L192.9,316.0L200.1,315.2L201.4,310.8L208.7,301.2L214.9,293.6L210.4,288.7L215.2,286.0L220.9,278.6L220.4,274.8L221.6,271.9L224.6,269.3L227.6,265.0L226.0,265.0L224.5,263.5L224.1,258.5L224.7,257.4L220.9,255.1L218.9,256.7L215.1,252.4L213.1,250.8L205.9,242.5L199.0,247.6L208.6,255.5L206.8,257.0L207.2,258.9L208.5,259.5L211.6,262.8L208.5,269.2L207.9,274.9L211.7,275.5L209.7,281.1L206.9,282.4L201.6,282.4L198.5,280.8L193.2,282.5L189.7,282.4L181.7,279.6L182.8,277.7L177.6,274.0L176.7,272.0L175.4,264.7Z M193.4,288.3L196.8,284.6L202.2,288.5L203.4,290.6L202.7,292.6L201.2,295.4L198.0,297.4L191.5,294.9L189.8,295.4L187.3,297.4L183.4,296.5L189.4,293.3L193.4,288.3Z M182.2,291.7L182.1,295.8L179.5,298.6L176.9,299.3L174.2,295.1L174.7,293.8L176.2,293.8L179.4,290.6L182.2,291.7Z M239.8,227.9L230.5,224.7L214.3,236.5L228.7,253.1L229.9,255.0L232.4,256.1L235.7,260.1L236.3,262.8L240.2,261.0L242.0,259.0L243.5,255.7L244.0,253.1L248.4,251.7L250.0,250.1L247.5,247.4L242.6,239.2L241.6,237.2L239.8,227.9Z " data-id="CH.VD" data-name="Vaud" id="CH.VD"/>
utf-8utf-8<path d="M307.2,101.9L305.1,102.6L295.9,102.3L306.5,107.5L307.2,101.9Z M321.8,112.3L333.8,114.3L335.9,113.8L339.2,110.5L339.8,109.0L349.2,106.8L348.4,103.3L354.6,102.5L357.2,100.1L359.5,94.0L358.8,92.4L355.3,90.9L356.6,87.8L358.4,87.5L364.4,88.0L365.7,85.6L367.5,85.7L377.1,90.7L377.6,93.6L373.2,102.8L372.6,105.1L370.8,107.1L362.6,109.3L362.5,111.6L363.2,115.3L364.6,118.8L366.5,120.0L374.3,119.3L379.8,120.5L386.8,123.9L388.5,125.6L396.1,128.1L396.8,126.2L400.0,121.2L402.7,119.6L407.3,118.5L408.9,117.5L414.2,115.4L416.6,110.5L422.2,110.1L426.8,109.0L430.9,106.4L431.0,98.1L432.0,95.1L429.2,93.6L428.5,88.0L421.7,87.3L419.7,86.1L418.8,84.0L412.0,75.6L407.8,70.9L402.7,70.7L402.3,74.4L396.4,79.5L393.4,79.9L392.0,75.7L392.1,74.4L380.8,69.4L371.2,71.2L366.3,70.6L363.0,69.2L363.2,73.8L361.8,75.2L355.4,71.2L350.4,73.8L347.5,71.1L343.2,70.5L335.1,65.8L326.9,71.7L332.0,74.3L332.1,77.0L331.2,78.6L325.9,79.3L325.7,80.2L328.0,83.8L331.5,83.4L335.8,84.8L338.7,86.9L339.1,94.3L325.2,96.8L321.6,96.7L319.9,93.2L319.4,87.0L314.9,85.5L312.4,86.1L312.5,87.8L315.5,91.5L315.9,93.1L315.3,95.7L314.2,97.0L319.9,100.3L322.1,105.2L318.9,107.1L306.5,107.5L312.6,111.6L314.3,113.7L314.7,115.9L318.6,116.9L321.8,112.3Z " data-id="CH.BS" data-name="Basel-Landschaft" id="CH.BS"/>
utf-8utf-8<path d="M190.9,176.2L195.5,178.3L198.1,181.2L200.4,186.2L198.3,197.0L231.7,188.1L233.2,187.7L233.5,191.5L236.5,192.2L243.1,195.3L244.5,199.1L245.5,204.4L245.0,206.8L235.9,211.1L232.4,219.7L230.5,224.7L239.8,227.9L257.5,226.4L273.5,220.7L278.2,225.9L271.3,232.6L272.6,234.4L274.3,241.4L272.1,247.2L272.3,247.9L276.3,247.8L287.8,250.6L305.6,252.0L306.9,258.2L305.9,260.5L302.6,262.6L298.5,260.6L296.9,261.8L298.1,266.7L298.2,270.8L295.9,280.0L295.5,284.3L295.7,291.6L296.3,295.6L298.5,299.2L302.4,300.5L307.1,304.3L309.6,304.6L313.2,307.0L312.5,316.2L310.3,320.0L303.4,318.6L300.1,321.6L301.3,329.8L300.5,336.0L299.6,337.2L292.6,337.9L283.9,344.7L284.9,347.1L286.5,356.8L285.9,359.0L282.6,365.1L283.2,368.9L280.5,374.8L276.9,376.7L276.3,377.6L278.4,383.9L278.5,385.4L276.2,392.2L283.7,397.8L282.4,401.3L282.8,406.9L290.4,402.9L292.0,400.4L300.3,395.8L302.3,396.4L302.6,401.2L305.3,402.1L313.6,399.7L318.5,396.7L321.6,393.8L324.7,393.2L334.4,393.2L343.1,395.1L345.0,394.6L352.8,391.7L356.0,389.2L353.0,387.8L351.7,386.4L356.7,383.6L364.1,381.7L367.1,379.4L368.1,376.9L369.8,375.9L374.5,376.5L389.4,382.5L392.0,382.3L418.4,365.4L421.0,366.1L431.0,364.2L438.9,359.3L444.9,355.9L446.3,352.8L444.5,349.2L452.7,344.4L458.4,344.1L477.5,347.2L479.4,348.6L484.8,350.6L490.8,351.2L491.5,353.5L494.6,354.2L506.1,352.2L511.4,350.5L521.4,345.6L527.1,341.9L531.2,337.0L532.1,330.9L535.3,322.1L539.4,317.5L541.7,317.2L540.9,313.6L539.9,311.3L539.6,308.1L549.2,307.4L549.9,306.4L549.1,297.4L547.7,295.1L546.9,289.6L548.6,285.8L544.1,284.4L543.0,284.4L540.1,284.9L538.6,285.6L536.4,284.1L531.0,280.2L521.5,283.4L514.2,287.9L509.7,288.6L505.4,287.4L493.7,286.2L483.1,288.2L480.5,287.2L470.5,281.6L466.2,280.8L459.1,280.5L454.6,280.2L450.8,281.6L444.5,283.1L441.4,280.1L438.7,276.6L423.6,266.5L420.1,263.3L419.9,261.2L417.6,255.7L420.7,249.0L420.1,245.6L421.2,242.3L429.2,240.2L434.1,231.2L435.4,227.5L436.5,221.1L431.8,220.3L430.1,219.2L424.3,218.7L423.3,214.2L418.5,208.6L417.9,206.6L418.3,199.3L418.1,193.8L420.7,186.3L418.5,178.0L418.3,175.2L415.2,168.9L409.0,157.7L406.0,153.5L405.7,152.8L405.0,147.4L397.4,149.0L395.3,148.4L391.0,149.7L384.9,149.5L382.3,148.1L374.5,140.4L366.6,143.5L352.0,145.0L355.2,148.3L356.6,153.4L360.8,157.7L364.9,159.2L368.7,163.7L373.2,170.8L373.7,172.4L372.1,174.7L370.1,175.7L366.5,179.5L365.2,179.7L355.0,179.4L348.9,175.9L346.5,176.2L343.5,178.8L338.0,186.0L334.9,188.5L329.1,190.8L328.3,191.6L330.0,196.6L329.9,198.1L323.7,201.0L321.7,197.3L319.1,194.9L312.8,196.5L310.7,195.2L307.5,189.9L307.8,188.7L312.5,188.8L314.8,189.3L319.7,188.3L321.3,187.5L321.3,182.2L324.9,178.7L328.1,179.5L332.0,177.8L332.7,176.3L330.1,173.9L329.1,169.0L321.1,171.7L316.4,176.3L314.6,177.2L310.5,176.9L310.5,174.9L307.2,170.2L302.9,168.1L300.2,163.2L300.7,161.9L317.1,155.6L316.4,153.6L320.9,150.2L325.8,148.5L333.6,142.6L340.7,140.6L344.0,138.0L345.5,133.8L332.5,137.0L308.2,135.3L306.0,134.5L304.1,132.0L301.2,135.6L299.4,136.3L293.4,140.3L287.8,142.0L280.2,142.8L261.5,139.6L260.2,145.5L258.0,146.9L258.1,151.2L257.5,153.3L246.7,155.1L239.8,154.5L237.5,155.5L236.6,158.2L230.3,165.9L226.8,167.5L222.5,170.8L220.2,171.2L215.2,171.1L212.7,172.3L204.9,177.5L200.8,179.2L197.0,176.6L190.9,176.2Z M275.6,239.0L278.9,238.2L278.2,240.0L276.4,240.4L275.6,239.0Z M344.8,126.6L341.4,129.5L341.9,132.6L346.1,133.1L348.0,133.0L348.4,130.7L348.2,129.5L346.5,127.0L344.8,126.6Z " data-id="CH.BE" data-name="Bern" id="CH.BE"/>
utf-8utf-8<path d="M354.7,65.5L360.5,65.5L362.7,63.6L365.4,56.7L360.4,57.1L341.5,62.5L336.3,65.0L335.1,65.8L343.2,70.5L347.5,71.1L350.4,73.8L355.4,71.2L361.8,75.2L363.2,73.8L363.0,69.2L354.7,65.5Z " data-id="CH.BS" data-name="Basel-Stadt" id="CH.BS"/>
utf-8utf-8<path d="M536.4,284.1L538.6,285.6L540.1,284.9L543.0,284.4L544.1,284.4L548.6,285.8L555.7,283.9L556.3,281.2L555.4,278.2L553.6,276.3L554.5,274.6L556.0,269.1L559.6,264.1L558.4,262.5L555.7,261.6L553.4,261.8L542.7,262.2L537.4,258.6L533.2,261.0L530.9,256.9L528.4,258.6L530.3,265.4L531.7,268.9L532.3,272.0L538.5,279.2L542.0,280.4L542.7,282.4L536.4,284.1Z M497.7,229.7L485.4,230.7L481.4,233.6L482.3,238.8L478.0,242.3L472.9,248.1L468.7,247.0L466.8,248.1L463.8,253.4L463.2,257.4L459.2,266.4L461.2,271.2L462.6,275.6L459.1,280.5L466.2,280.8L470.5,281.6L480.5,287.2L483.1,288.2L493.7,286.2L505.4,287.4L509.7,288.6L514.2,287.9L521.5,283.4L531.0,280.2L526.3,277.8L521.5,272.4L520.7,265.9L521.0,257.6L522.2,253.2L521.9,245.8L520.3,243.8L515.0,241.7L512.4,239.4L512.6,237.6L515.0,230.2L514.2,229.8L501.4,229.0L497.7,229.7Z " data-id="CH.NW" data-name="Obwalden" id="CH.NW"/>
utf-8utf-8<path d="M771.9,124.0L764.8,123.8L740.8,114.4L739.5,115.6L739.6,121.1L738.5,123.7L732.6,129.7L731.9,131.3L731.6,137.8L733.0,141.9L735.9,145.5L737.3,148.9L738.6,151.8L741.6,153.6L748.5,155.5L754.6,153.5L758.9,151.6L761.9,149.6L764.9,146.7L768.9,139.8L771.9,124.0Z M771.0,112.9L776.9,110.9L779.7,110.5L782.8,111.9L782.2,108.0L783.0,104.7L779.5,101.8L776.0,103.9L775.5,105.5L776.3,107.6L771.5,109.8L771.0,112.9Z M791.5,99.3L788.2,99.9L784.0,99.7L784.4,101.4L791.5,104.4L791.8,102.3L792.2,101.7L797.1,97.3L791.5,99.3Z " data-id="CH.AI" data-name="Appenzell Innerrhoden" id="CH.AI"/>
utf-8</g>
</svg>
