<?xml version="1.0" ?>
<!DOCTYPE svg
  PUBLIC '-//W3C//DTD SVG 1.1//EN'
  'http://www.w3.org/Graphics/SVG/1.1/DTD/svg11.dtd'>
<svg enable_background="new 0 0 1000 1679" height="1679px" pretty_print="True" style="stroke-linejoin: round; stroke:#000; fill: none;" version="1.1" viewBox="0 0 1000 1679" width="1000px" xmlns="http://www.w3.org/2000/svg" xmlns:xlink="http://www.w3.org/1999/xlink">
utf-8<defs>
utf-8utf-8<style type="text/css">
<![CDATA[path { fill-rule: evenodd; }]]>utf-8utf-8</style>
utf-8</defs>
utf-8<metadata>
utf-8utf-8<views>
utf-8utf-8utf-8<view h="1679.12360525" padding="0" w="1000">
utf-8utf-8utf-8utf-8<proj flip="auto" id="robinson" lon0="14.8575795101"/>
utf-8utf-8utf-8utf-8<bbox h="191.59" w="114.17" x="125.83" y="-219.34"/>
utf-8utf-8utf-8</view>
utf-8utf-8</views>
utf-8</metadata>
utf-8<g class="" id="provinces">
utf-8utf-8<path d="M627.2,435.0L630.3,440.9L631.5,442.0L634.7,442.8L640.9,440.7L648.2,441.1L653.1,438.8L661.3,435.8L662.9,434.7L660.3,426.8L662.0,421.7L664.2,419.7L668.0,418.9L676.2,420.7L681.2,421.4L686.5,420.7L689.2,420.9L696.2,422.5L700.4,424.0L702.2,425.3L710.1,434.5L712.8,438.5L716.7,439.6L718.7,439.6L730.7,443.5L732.0,445.8L730.9,454.8L731.1,455.2L762.6,452.8L800.4,463.3L805.6,463.6L821.7,457.9L827.7,458.2L835.2,460.2L839.2,460.5L842.8,459.6L849.0,454.8L854.9,454.1L862.6,454.5L884.4,462.4L891.7,462.2L920.5,454.2L922.8,453.4L917.1,447.7L912.6,446.1L903.9,440.3L896.1,432.6L891.2,424.9L873.2,406.4L871.8,403.8L870.9,400.9L870.1,394.3L865.2,388.6L862.2,380.6L858.1,377.9L852.6,376.3L850.9,372.8L851.0,369.1L851.7,365.6L853.0,363.0L853.1,360.7L852.1,357.1L842.0,335.7L841.6,330.2L843.1,323.9L843.5,320.3L841.3,315.5L837.7,306.1L835.5,278.5L836.3,269.5L836.9,267.1L839.9,262.3L840.6,258.4L838.9,255.8L840.2,244.3L842.1,238.8L848.0,231.5L849.6,227.4L848.0,222.7L844.4,217.5L843.0,214.9L840.8,208.4L840.6,202.6L841.6,199.4L843.8,199.2L843.2,194.1L846.0,190.4L842.7,182.0L841.8,180.4L839.6,180.1L838.1,178.9L837.2,176.6L836.8,172.9L839.5,169.2L837.8,165.5L838.1,163.4L841.7,162.7L841.2,161.1L837.6,156.8L838.0,153.0L836.3,150.4L837.4,146.1L834.9,143.7L832.5,142.6L830.2,142.9L828.1,144.7L826.5,145.0L824.7,143.4L821.8,139.7L817.8,136.1L817.3,134.0L819.5,132.1L817.7,128.1L818.3,123.9L818.5,111.9L818.8,110.6L816.4,99.5L814.5,92.9L811.0,89.8L812.7,85.8L808.2,67.8L806.6,64.8L802.4,65.9L800.2,65.6L797.9,60.4L796.8,59.2L793.0,62.8L791.5,60.4L793.3,55.5L792.4,53.1L790.3,52.3L786.6,53.5L781.3,49.7L780.5,47.1L779.5,46.7L776.3,49.0L775.0,49.2L774.2,45.6L773.1,46.1L771.6,44.0L771.5,38.5L769.1,35.8L765.1,32.5L763.8,30.3L763.8,28.5L765.7,21.7L765.9,18.8L764.3,16.2L761.5,21.0L759.3,18.9L758.4,22.6L755.1,21.9L751.9,25.4L753.5,27.3L753.0,29.1L750.6,29.0L748.7,30.4L744.8,29.5L741.7,30.8L739.3,28.3L735.3,28.2L737.7,25.8L735.7,20.8L738.3,19.6L737.3,17.4L735.5,15.6L734.0,12.7L732.3,11.9L734.3,10.1L736.8,9.9L738.2,8.9L737.0,2.7L742.1,3.4L740.9,0.0L708.6,0.3L724.2,78.5L724.5,89.8L725.4,92.9L724.8,102.0L726.0,104.2L729.7,105.8L756.2,106.7L764.5,109.0L768.0,111.1L767.8,114.7L772.9,120.3L774.3,121.0L772.6,123.1L779.8,128.6L781.4,132.3L786.0,130.1L787.5,131.0L788.4,134.0L785.9,136.8L784.2,140.3L782.2,150.9L782.5,152.4L780.2,154.1L780.5,156.9L783.0,163.2L782.9,170.8L781.5,175.4L778.9,190.4L778.0,192.9L772.8,201.2L773.0,202.4L779.6,208.0L783.2,212.9L783.9,215.9L784.0,219.6L781.4,229.8L779.8,232.5L777.7,233.8L771.0,236.5L768.3,238.4L763.7,243.1L761.0,244.9L753.4,247.6L751.0,249.1L739.6,261.0L733.6,262.7L730.1,266.9L725.1,270.4L722.2,271.2L719.6,270.7L710.5,266.4L705.4,264.8L701.4,264.8L696.5,269.3L691.7,274.8L687.5,280.9L684.5,287.1L682.4,292.9L680.8,295.2L676.0,298.4L673.9,300.4L672.5,302.9L672.0,305.9L672.9,311.5L671.3,315.5L648.8,352.5L645.3,360.9L640.6,379.3L636.5,407.0L633.7,416.1L634.6,424.7L632.6,429.6L631.1,431.8L628.4,434.2L627.2,435.0Z M745.6,0.0L747.0,1.8L749.3,2.4L748.4,0.0L745.6,0.0Z " data-id="CM.EN" data-name="Extrême-Nord" id="CM.EN"/>
utf-8utf-8<path d="M123.3,1321.5L117.8,1331.7L115.5,1337.9L111.9,1339.8L107.7,1344.3L109.2,1345.2L115.7,1346.9L118.1,1347.2L126.5,1345.2L123.1,1341.7L124.1,1336.9L123.8,1335.2L119.4,1331.6L119.6,1330.0L123.0,1328.2L123.1,1329.5L124.8,1331.1L126.5,1334.2L128.2,1335.7L131.9,1337.2L133.7,1334.4L132.5,1331.9L128.9,1328.2L127.4,1324.1L123.3,1321.5L123.3,1321.5Z M176.6,1133.6L172.3,1134.8L167.7,1140.9L166.2,1141.9L162.2,1142.4L161.6,1143.7L162.7,1150.7L164.9,1156.6L169.8,1163.4L171.6,1166.9L174.2,1173.2L174.6,1175.8L173.2,1177.6L168.7,1178.6L166.5,1181.6L163.5,1191.8L164.4,1193.8L167.3,1197.3L164.9,1201.8L162.5,1205.3L158.3,1209.7L157.0,1212.0L156.3,1219.8L154.9,1223.2L151.5,1226.3L147.9,1232.3L147.1,1237.2L146.1,1238.5L139.2,1238.7L136.2,1243.0L132.0,1251.2L131.2,1255.3L130.6,1263.7L132.1,1269.9L131.4,1273.0L122.5,1289.2L121.5,1297.1L124.2,1298.9L133.3,1300.8L135.2,1302.1L137.4,1308.6L132.6,1315.8L129.8,1317.8L129.9,1318.1L129.2,1321.5L130.5,1324.9L132.9,1327.6L135.4,1329.1L137.2,1327.1L137.1,1330.4L139.7,1330.9L143.3,1329.8L146.1,1328.2L148.4,1325.3L152.6,1318.0L154.9,1316.0L154.9,1319.1L155.8,1319.1L160.3,1313.9L162.4,1312.9L161.6,1316.0L157.8,1318.2L152.2,1327.9L150.1,1330.1L147.6,1331.6L145.5,1334.9L144.9,1338.7L146.9,1341.2L150.8,1341.6L163.7,1339.1L163.5,1341.1L161.0,1342.2L157.3,1342.9L154.0,1344.2L152.3,1346.2L153.2,1348.9L156.1,1350.8L162.2,1353.3L161.4,1354.7L162.0,1356.2L161.2,1359.3L160.2,1357.2L158.5,1355.8L154.1,1353.3L152.8,1356.9L150.1,1356.2L145.2,1351.2L143.0,1353.5L141.5,1357.0L141.1,1360.8L142.2,1363.8L144.0,1366.5L150.6,1369.4L145.7,1369.5L141.2,1367.2L140.1,1364.0L135.5,1359.3L136.2,1362.8L138.0,1366.5L144.2,1376.1L148.0,1386.5L146.0,1387.7L145.4,1389.7L146.0,1391.6L147.6,1392.4L156.5,1391.5L159.9,1390.2L163.3,1387.7L166.9,1386.1L171.0,1387.5L167.6,1387.6L164.7,1388.8L154.1,1398.0L151.0,1399.8L148.1,1400.5L160.7,1410.2L166.1,1415.5L175.8,1429.2L179.2,1436.4L182.0,1439.6L185.5,1439.8L185.5,1440.1L193.2,1433.0L197.8,1429.2L200.9,1422.9L201.0,1419.9L203.0,1415.4L202.5,1413.3L202.5,1408.5L202.9,1406.0L212.0,1394.1L216.5,1393.0L218.6,1391.4L221.0,1391.8L225.6,1395.4L226.5,1398.3L227.4,1399.1L237.7,1393.1L238.2,1386.2L241.6,1375.6L244.3,1363.4L247.3,1360.1L254.5,1356.2L259.2,1360.9L264.8,1362.7L268.0,1365.6L270.3,1369.0L272.9,1370.9L274.2,1370.4L277.6,1365.8L278.9,1361.4L278.5,1357.5L279.9,1351.8L278.9,1342.9L281.0,1337.2L287.6,1324.0L291.2,1322.0L302.1,1319.3L306.8,1316.6L312.7,1315.2L317.8,1312.5L320.0,1313.0L323.2,1310.1L330.1,1308.1L336.3,1303.8L339.3,1300.7L337.6,1297.8L324.1,1284.1L317.6,1272.0L313.3,1259.6L314.1,1245.9L313.5,1241.7L309.8,1241.1L306.4,1242.7L301.9,1241.5L300.3,1241.6L297.1,1246.1L295.7,1253.6L294.2,1257.4L290.4,1261.7L288.2,1260.7L286.5,1256.6L285.5,1256.1L279.1,1262.1L274.0,1267.7L270.5,1269.2L265.3,1268.3L259.9,1264.2L256.6,1263.8L252.8,1260.7L251.5,1260.3L247.1,1261.0L244.9,1256.8L246.3,1251.9L251.3,1242.6L256.9,1235.9L258.8,1230.4L258.9,1228.6L256.7,1222.5L253.8,1223.1L249.5,1225.4L243.2,1229.8L241.0,1228.5L241.9,1220.7L244.1,1216.7L249.4,1213.7L253.8,1209.6L256.4,1206.0L258.9,1199.5L256.5,1198.3L254.2,1195.6L251.2,1194.3L249.8,1192.6L244.8,1180.6L243.8,1175.4L242.1,1173.0L232.9,1175.2L228.6,1174.0L227.3,1174.4L224.6,1180.8L218.1,1186.2L216.5,1188.7L213.3,1196.5L208.1,1195.3L207.2,1190.6L203.7,1187.1L202.5,1184.2L202.0,1180.5L201.1,1178.4L196.2,1175.4L192.9,1167.2L194.2,1163.8L194.0,1157.8L190.5,1149.2L186.2,1145.8L183.1,1145.2L179.2,1147.8L177.9,1147.6L175.8,1144.4L176.6,1133.6Z " data-id="CM.LT" data-name="Littoral" id="CM.LT"/>
utf-8utf-8<path d="M340.2,976.1L336.7,975.6L334.6,973.3L332.0,966.4L329.8,955.0L329.3,949.3L329.5,943.5L329.1,936.5L326.6,930.6L322.1,926.6L310.0,924.2L305.9,919.5L303.3,913.1L302.0,906.4L299.9,900.5L295.6,897.3L285.0,892.8L275.9,887.3L272.5,886.1L270.1,884.0L269.4,876.7L267.0,873.3L265.1,877.4L263.6,882.7L262.5,888.3L261.8,899.5L259.7,900.9L258.1,903.3L256.5,910.9L223.2,911.4L219.6,910.2L216.9,907.8L215.5,905.0L213.6,894.2L212.5,891.8L210.7,891.4L207.7,893.3L176.2,923.6L173.2,925.1L168.1,922.9L165.0,922.6L162.6,925.7L153.0,960.8L154.9,962.7L158.2,968.4L159.9,974.5L161.2,977.4L167.6,1000.3L167.0,1007.8L166.3,1010.9L166.4,1015.6L164.7,1019.8L160.8,1019.4L158.0,1020.3L155.0,1024.6L142.4,1033.5L140.1,1037.8L143.3,1042.6L141.9,1049.9L147.7,1056.4L151.0,1061.4L153.9,1062.4L157.3,1061.6L159.3,1063.1L160.4,1065.7L163.2,1069.3L167.0,1071.5L174.7,1074.1L182.8,1078.4L190.1,1074.0L195.0,1075.9L201.5,1077.5L205.5,1079.1L213.4,1072.2L217.9,1071.5L226.6,1075.2L229.1,1079.5L230.4,1079.9L233.0,1077.0L235.0,1068.1L257.8,1063.4L260.1,1063.3L267.0,1063.9L271.1,1062.0L276.4,1052.2L282.7,1035.8L286.6,1034.7L295.7,1036.6L301.4,1038.2L303.5,1034.8L306.4,1034.3L312.2,1032.1L318.2,1028.4L321.8,1023.1L323.6,1013.7L322.8,1006.8L323.7,1003.4L334.0,1004.7L339.9,1003.2L341.5,1002.1L346.5,996.6L347.6,993.2L348.9,986.8L349.1,982.7L348.2,975.2L340.2,976.1Z " data-id="CM.NW" data-name="Nord-Ouest" id="CM.NW"/>
utf-8utf-8<path d="M532.9,1039.3L519.5,1038.9L516.4,1037.5L512.8,1032.4L508.7,1024.2L492.0,1010.5L487.2,1009.0L482.4,1009.0L477.6,1010.6L474.6,1012.8L470.2,1014.5L464.0,1014.3L457.0,1011.2L454.0,1008.7L448.3,1001.3L443.5,1002.2L443.5,1005.3L442.5,1005.6L440.4,1004.2L437.6,1007.5L434.3,1008.4L432.1,1010.3L424.3,1010.9L419.5,1015.1L414.4,1018.8L408.2,1025.3L402.1,1029.1L372.8,1036.4L368.3,1039.0L365.6,1039.8L362.3,1039.1L360.1,1040.3L358.1,1042.0L356.8,1043.5L358.4,1044.5L358.7,1046.7L357.9,1049.0L356.0,1050.5L356.9,1056.5L358.5,1059.1L358.8,1061.0L358.0,1065.8L358.8,1067.6L362.7,1068.0L363.2,1070.1L361.0,1071.9L357.9,1078.6L354.8,1080.0L353.9,1082.7L349.9,1085.7L351.0,1087.7L347.3,1094.7L348.1,1098.1L349.4,1100.5L350.1,1108.1L349.9,1110.6L345.8,1120.0L347.5,1122.8L346.2,1127.6L343.5,1129.1L339.6,1136.0L335.5,1137.5L333.1,1141.4L332.6,1152.8L333.6,1157.5L327.5,1160.4L325.3,1162.3L323.4,1165.0L320.6,1177.4L316.2,1190.5L313.4,1192.4L305.8,1191.6L300.3,1185.6L295.6,1184.2L290.2,1191.2L272.4,1200.8L268.5,1201.5L258.9,1199.5L256.4,1206.0L253.8,1209.6L249.4,1213.7L244.1,1216.7L241.9,1220.7L241.0,1228.5L243.2,1229.8L249.5,1225.4L253.8,1223.1L256.7,1222.5L258.9,1228.6L258.8,1230.4L256.9,1235.9L251.3,1242.6L246.3,1251.9L244.9,1256.8L247.1,1261.0L251.5,1260.3L252.8,1260.7L256.6,1263.8L259.9,1264.2L265.3,1268.3L270.5,1269.2L274.0,1267.7L279.1,1262.1L285.5,1256.1L286.5,1256.6L288.2,1260.7L290.4,1261.7L294.2,1257.4L295.7,1253.6L297.1,1246.1L300.3,1241.6L301.9,1241.5L306.4,1242.7L309.8,1241.1L313.5,1241.7L314.1,1245.9L313.3,1259.6L317.6,1272.0L324.1,1284.1L337.6,1297.8L339.3,1300.7L336.3,1303.8L330.1,1308.1L323.2,1310.1L320.0,1313.0L317.8,1312.5L312.7,1315.2L306.8,1316.6L302.1,1319.3L291.2,1322.0L287.6,1324.0L281.0,1337.2L278.9,1342.9L279.9,1351.8L278.5,1357.5L278.9,1361.4L277.6,1365.8L274.2,1370.4L272.9,1370.9L270.3,1369.0L268.0,1365.6L264.8,1362.7L259.2,1360.9L254.5,1356.2L247.3,1360.1L244.3,1363.4L241.6,1375.6L238.2,1386.2L237.7,1393.1L227.4,1399.1L226.5,1398.3L225.4,1403.0L232.0,1427.1L232.9,1427.6L243.1,1425.7L287.2,1411.0L295.6,1409.0L300.8,1409.4L303.2,1414.4L304.4,1418.5L309.8,1418.2L316.0,1417.1L321.9,1419.4L330.6,1420.0L334.4,1425.4L335.8,1429.1L338.0,1440.1L339.4,1442.3L343.4,1444.9L344.6,1450.7L352.4,1459.9L360.8,1458.5L366.2,1459.7L373.7,1458.1L393.9,1458.3L396.9,1457.9L403.2,1455.7L412.8,1450.5L414.2,1449.3L416.1,1443.8L417.1,1439.8L421.3,1431.3L422.6,1429.9L435.5,1422.4L436.5,1420.9L440.6,1411.8L445.2,1415.0L449.8,1416.2L454.4,1419.4L469.0,1427.4L471.1,1430.0L469.8,1433.2L470.1,1434.9L473.8,1435.1L480.0,1433.0L482.6,1431.2L487.0,1412.5L488.6,1409.4L493.0,1404.1L506.8,1391.5L514.0,1382.9L516.9,1381.9L519.5,1384.5L522.6,1391.4L525.3,1395.3L527.4,1397.7L531.2,1388.7L532.4,1384.3L532.7,1380.6L532.4,1372.0L532.8,1369.4L531.0,1366.4L523.2,1362.6L520.6,1359.7L518.9,1355.7L518.7,1352.1L519.3,1350.5L523.5,1348.2L525.4,1344.8L527.8,1343.3L535.6,1339.8L543.8,1334.6L547.4,1330.1L554.9,1326.1L556.4,1323.0L552.9,1315.0L552.8,1312.7L557.3,1295.8L558.3,1289.7L556.7,1281.5L560.9,1277.5L562.6,1273.9L564.6,1264.0L566.6,1258.0L569.7,1253.0L575.8,1248.9L577.3,1248.2L586.0,1249.3L597.2,1249.8L600.2,1248.5L603.1,1248.6L606.0,1249.6L609.7,1246.5L613.0,1213.6L611.1,1208.1L606.3,1197.4L604.4,1195.1L602.8,1194.2L596.6,1193.4L590.0,1190.6L588.1,1188.1L589.1,1182.7L588.1,1177.4L583.9,1169.6L569.3,1152.4L560.5,1144.7L559.1,1142.1L565.7,1140.2L573.8,1140.5L578.5,1137.9L584.5,1126.0L590.1,1110.4L590.7,1106.6L590.4,1104.2L588.2,1100.9L586.9,1097.4L584.3,1092.5L581.0,1082.8L577.6,1078.5L570.0,1061.0L566.5,1056.6L565.3,1053.0L566.1,1048.2L565.5,1043.5L565.7,1041.0L566.1,1039.3L532.9,1039.3Z " data-id="CM.CE" data-name="Centre" id="CM.CE"/>
utf-8utf-8<path d="M766.6,1027.7L763.5,1026.0L761.3,1022.8L758.9,1022.6L754.3,1027.6L747.7,1028.0L735.4,1031.5L718.0,1034.2L715.7,1033.6L709.3,1031.1L705.2,1031.4L691.7,1037.1L679.8,1038.8L628.9,1039.3L566.1,1039.3L565.7,1041.0L565.5,1043.5L566.1,1048.2L565.3,1053.0L566.5,1056.6L570.0,1061.0L577.6,1078.5L581.0,1082.8L584.3,1092.5L586.9,1097.4L588.2,1100.9L590.4,1104.2L590.7,1106.6L590.1,1110.4L584.5,1126.0L578.5,1137.9L573.8,1140.5L565.7,1140.2L559.1,1142.1L560.5,1144.7L569.3,1152.4L583.9,1169.6L588.1,1177.4L589.1,1182.7L588.1,1188.1L590.0,1190.6L596.6,1193.4L602.8,1194.2L604.4,1195.1L606.3,1197.4L611.1,1208.1L613.0,1213.6L609.7,1246.5L606.0,1249.6L603.1,1248.6L600.2,1248.5L597.2,1249.8L586.0,1249.3L577.3,1248.2L575.8,1248.9L569.7,1253.0L566.6,1258.0L564.6,1264.0L562.6,1273.9L560.9,1277.5L556.7,1281.5L558.3,1289.7L557.3,1295.8L552.8,1312.7L552.9,1315.0L556.4,1323.0L554.9,1326.1L547.4,1330.1L543.8,1334.6L535.6,1339.8L527.8,1343.3L525.4,1344.8L523.5,1348.2L519.3,1350.5L518.7,1352.1L518.9,1355.7L520.6,1359.7L523.2,1362.6L531.0,1366.4L532.8,1369.4L532.4,1372.0L532.7,1380.6L532.4,1384.3L531.2,1388.7L527.4,1397.7L525.1,1415.3L526.2,1419.4L527.7,1422.2L531.8,1428.2L540.9,1438.0L544.3,1442.7L549.1,1452.1L551.2,1458.6L552.5,1465.9L552.9,1482.4L553.3,1484.2L557.3,1490.5L560.4,1492.1L562.2,1493.9L565.2,1494.3L577.3,1498.2L581.0,1495.9L583.2,1498.5L585.7,1498.5L593.3,1501.2L595.6,1499.2L596.4,1501.9L597.3,1502.3L599.3,1499.0L604.8,1500.1L607.2,1499.5L608.4,1500.1L609.9,1498.5L611.8,1499.1L613.1,1500.9L612.8,1503.1L616.0,1504.4L616.9,1505.5L617.6,1509.2L621.7,1510.2L620.7,1508.7L619.0,1503.1L620.2,1501.3L624.0,1503.1L626.4,1506.5L627.5,1507.2L630.7,1506.7L631.1,1505.0L633.3,1507.2L639.6,1511.1L647.1,1511.1L649.0,1510.4L649.3,1508.7L648.4,1504.6L648.9,1502.6L653.8,1504.2L652.4,1501.8L659.5,1495.6L664.0,1493.4L665.3,1502.5L669.8,1603.3L690.7,1603.5L748.2,1604.0L749.4,1603.9L755.1,1601.4L763.3,1602.6L765.3,1603.9L767.8,1606.6L773.1,1604.9L783.3,1602.4L784.5,1598.0L786.4,1595.8L789.7,1596.8L794.0,1602.2L797.1,1603.8L796.1,1606.1L797.3,1606.8L800.7,1606.7L802.5,1607.9L805.1,1610.9L807.0,1611.8L806.1,1608.2L807.0,1607.7L810.5,1609.8L807.9,1611.8L809.1,1612.3L812.3,1611.8L812.7,1616.8L820.7,1615.8L822.6,1615.3L823.8,1610.3L824.7,1609.4L828.7,1615.8L831.2,1617.8L829.8,1621.9L829.3,1625.5L834.5,1625.9L838.5,1624.9L839.5,1621.4L840.8,1621.6L846.9,1627.1L848.9,1627.8L851.4,1626.8L853.0,1629.4L855.1,1628.7L857.2,1626.3L861.2,1624.7L862.9,1620.4L867.1,1622.1L870.8,1620.6L876.1,1626.4L880.6,1628.2L882.6,1631.3L882.4,1634.7L888.6,1637.7L893.6,1635.3L900.2,1630.8L905.9,1630.0L911.5,1631.1L922.6,1634.9L934.9,1636.4L938.5,1638.6L942.4,1639.8L947.4,1647.0L952.5,1649.3L957.7,1653.3L958.7,1656.8L963.4,1655.1L963.8,1657.4L970.5,1660.1L971.8,1659.3L975.9,1661.1L976.4,1662.8L975.9,1667.1L977.0,1669.7L982.1,1677.1L987.9,1667.7L989.1,1667.3L991.8,1668.4L993.2,1667.7L993.6,1665.3L990.5,1649.1L986.1,1636.3L983.7,1631.8L981.3,1629.5L981.2,1624.1L983.5,1619.5L984.8,1610.7L983.6,1606.2L986.3,1598.0L988.4,1596.6L991.0,1597.1L993.4,1599.7L998.6,1595.3L999.7,1593.7L999.0,1592.4L996.1,1590.2L997.0,1586.9L992.5,1576.0L990.0,1572.9L988.4,1569.2L987.1,1559.5L984.4,1548.2L986.4,1543.2L987.0,1540.4L986.6,1537.4L984.6,1532.3L985.6,1525.4L986.8,1523.5L980.6,1523.2L979.7,1514.9L980.2,1511.0L983.7,1507.1L984.7,1503.6L984.3,1499.7L979.5,1488.5L975.7,1482.7L971.7,1482.3L970.0,1483.0L968.6,1480.9L966.8,1473.5L965.8,1470.7L963.6,1467.6L961.1,1465.3L959.0,1464.4L948.0,1465.1L944.4,1463.8L864.3,1368.2L853.0,1349.6L845.3,1329.0L847.5,1329.0L853.8,1330.5L856.3,1329.9L861.4,1327.2L866.8,1325.2L866.5,1323.6L861.1,1322.0L859.1,1316.9L857.1,1316.1L855.1,1316.3L853.6,1315.0L852.8,1311.0L852.5,1302.7L851.1,1293.8L850.0,1289.8L847.9,1285.6L843.4,1279.4L839.3,1271.1L833.6,1268.9L812.9,1252.8L808.2,1247.7L804.8,1241.5L803.1,1234.6L802.1,1223.5L801.2,1221.0L802.6,1213.3L800.6,1199.4L798.6,1194.7L798.9,1190.8L797.0,1186.5L797.9,1178.3L797.3,1172.6L797.3,1165.2L794.3,1155.5L792.2,1153.2L789.5,1151.7L783.9,1149.6L781.2,1147.6L779.1,1145.0L781.2,1141.5L783.2,1134.5L788.5,1125.7L788.4,1121.5L788.8,1119.0L791.1,1113.4L791.2,1108.9L787.6,1099.3L787.7,1094.5L790.0,1087.8L791.7,1079.8L792.6,1077.7L791.7,1074.7L790.7,1059.1L788.8,1056.4L788.1,1053.4L786.4,1050.5L784.8,1050.4L781.3,1052.8L779.4,1053.1L773.1,1052.5L771.0,1050.9L768.5,1043.7L764.7,1039.7L761.0,1034.7L760.7,1033.5L762.7,1031.2L765.3,1031.7L766.7,1028.4L766.6,1027.7Z " data-id="CM.ES" data-name="Est" id="CM.ES"/>
utf-8utf-8<path d="M479.4,719.9L474.2,728.4L473.4,732.0L473.5,737.7L474.3,743.3L475.5,749.3L474.8,751.5L470.0,757.2L457.3,777.4L452.7,787.0L451.7,796.3L453.6,804.9L453.1,807.9L449.5,811.2L446.1,817.0L430.5,834.3L422.5,847.8L416.6,853.8L417.4,854.7L420.5,855.4L422.3,857.1L428.8,867.6L433.9,873.8L435.5,877.5L434.3,880.8L433.1,881.4L429.4,880.3L426.1,881.9L420.7,887.6L418.8,889.0L417.4,892.8L410.6,894.4L409.7,897.1L402.3,902.4L394.4,910.7L392.0,914.4L391.3,918.3L392.2,920.5L395.1,924.2L395.7,926.8L395.4,930.8L394.6,934.7L390.9,944.6L387.9,949.4L384.4,951.6L379.3,952.2L375.9,955.3L373.9,960.3L373.2,966.4L372.4,969.7L369.9,972.4L366.6,974.2L362.0,975.0L359.2,974.2L355.1,976.2L352.0,974.7L348.2,975.2L349.1,982.7L348.9,986.8L347.6,993.2L346.5,996.6L356.8,999.4L360.5,1002.0L360.8,1005.1L358.9,1013.5L359.9,1019.3L362.0,1025.5L362.8,1031.4L360.8,1037.4L360.1,1040.3L362.3,1039.1L365.6,1039.8L368.3,1039.0L372.8,1036.4L402.1,1029.1L408.2,1025.3L414.4,1018.8L419.5,1015.1L424.3,1010.9L432.1,1010.3L434.3,1008.4L437.6,1007.5L440.4,1004.2L442.5,1005.6L443.5,1005.3L443.5,1002.2L448.3,1001.3L454.0,1008.7L457.0,1011.2L464.0,1014.3L470.2,1014.5L474.6,1012.8L477.6,1010.6L482.4,1009.0L487.2,1009.0L492.0,1010.5L508.7,1024.2L512.8,1032.4L516.4,1037.5L519.5,1038.9L532.9,1039.3L566.1,1039.3L628.9,1039.3L679.8,1038.8L691.7,1037.1L705.2,1031.4L709.3,1031.1L715.7,1033.6L718.0,1034.2L735.4,1031.5L747.7,1028.0L754.3,1027.6L758.9,1022.6L761.3,1022.8L763.5,1026.0L766.6,1027.7L766.4,1026.8L771.0,1021.3L772.9,1020.6L776.6,1016.5L779.7,1011.4L785.0,1011.4L803.4,1001.4L805.5,999.6L810.3,992.5L811.5,989.8L811.2,983.2L811.5,981.5L814.7,976.5L830.6,935.0L834.4,931.1L842.1,926.8L844.7,923.2L846.8,916.5L849.5,910.4L853.6,897.7L855.6,888.6L856.5,885.8L862.0,881.0L863.4,878.0L862.7,869.5L865.3,863.1L867.6,856.2L870.5,853.3L867.6,852.3L861.0,855.3L853.0,863.2L849.2,865.2L842.2,866.0L840.1,866.7L813.3,880.0L803.7,886.7L797.6,889.0L796.1,888.8L791.9,886.3L789.9,883.0L781.9,881.2L775.2,869.8L773.1,868.3L769.6,867.4L760.3,868.4L754.1,867.1L753.0,865.7L753.4,859.6L752.9,851.6L750.9,846.9L745.1,842.1L738.1,833.7L733.1,823.8L727.7,819.1L725.7,815.4L724.6,810.1L722.4,808.3L699.9,805.5L696.5,804.6L694.1,801.9L693.8,795.5L692.3,793.7L687.8,793.6L673.0,797.4L665.0,796.0L651.7,802.2L645.8,805.5L638.9,800.5L631.6,795.6L630.3,793.8L626.8,790.7L617.7,788.6L613.4,795.8L613.1,801.6L612.2,803.3L605.4,802.9L598.8,804.5L592.1,804.4L581.0,797.8L579.1,797.2L558.3,793.7L547.9,790.3L545.7,788.0L542.4,786.3L536.3,784.2L532.6,779.3L532.0,771.5L534.0,765.8L533.6,764.2L529.7,757.8L521.0,756.8L515.0,755.2L511.9,753.4L487.0,728.1L481.5,719.7L480.0,718.0L479.4,719.9Z " data-id="CM.AD" data-name="Adamaoua" id="CM.AD"/>
utf-8utf-8<path d="M625.4,436.2L623.0,437.4L612.9,438.6L608.6,440.5L606.3,445.5L606.4,448.4L608.5,456.0L608.0,459.5L605.0,464.9L604.1,467.9L604.3,471.2L605.7,473.5L609.5,477.9L610.9,481.2L610.6,483.6L608.2,489.5L606.6,499.4L606.1,508.9L602.6,519.3L594.2,523.1L584.0,524.9L575.1,529.2L573.4,530.8L567.3,538.7L558.0,546.1L562.3,547.2L563.6,550.2L564.6,554.6L564.6,560.4L563.3,565.6L557.5,577.7L554.9,584.7L554.8,590.6L555.8,596.0L553.1,623.6L551.7,629.9L549.0,634.3L547.3,635.1L542.2,634.7L540.7,635.5L536.8,646.1L534.6,648.9L521.4,656.8L517.5,656.9L511.6,654.2L509.3,654.5L504.1,657.7L502.4,657.8L496.9,656.2L498.0,658.3L501.1,666.7L501.6,672.8L496.6,677.2L493.8,682.2L492.3,683.4L489.6,683.8L484.6,682.9L481.8,684.2L478.9,689.0L477.9,695.3L478.3,702.0L480.4,713.9L480.3,716.8L480.0,718.0L481.5,719.7L487.0,728.1L511.9,753.4L515.0,755.2L521.0,756.8L529.7,757.8L533.6,764.2L534.0,765.8L532.0,771.5L532.6,779.3L536.3,784.2L542.4,786.3L545.7,788.0L547.9,790.3L558.3,793.7L579.1,797.2L581.0,797.8L592.1,804.4L598.8,804.5L605.4,802.9L612.2,803.3L613.1,801.6L613.4,795.8L617.7,788.6L626.8,790.7L630.3,793.8L631.6,795.6L638.9,800.5L645.8,805.5L651.7,802.2L665.0,796.0L673.0,797.4L687.8,793.6L692.3,793.7L693.8,795.5L694.1,801.9L696.5,804.6L699.9,805.5L722.4,808.3L724.6,810.1L725.7,815.4L727.7,819.1L733.1,823.8L738.1,833.7L745.1,842.1L750.9,846.9L752.9,851.6L753.4,859.6L753.0,865.7L754.1,867.1L760.3,868.4L769.6,867.4L773.1,868.3L775.2,869.8L781.9,881.2L789.9,883.0L791.9,886.3L796.1,888.8L797.6,889.0L803.7,886.7L813.3,880.0L840.1,866.7L842.2,866.0L849.2,865.2L853.0,863.2L861.0,855.3L867.6,852.3L870.5,853.3L872.4,851.5L882.3,845.2L888.4,839.9L890.6,835.8L894.5,835.3L894.7,833.3L892.2,830.7L892.7,828.4L899.6,817.8L900.5,815.7L905.8,807.9L909.2,799.9L910.8,791.2L910.8,776.2L903.8,774.5L901.1,774.3L894.9,769.3L890.4,757.2L882.2,725.7L860.8,675.4L858.8,672.5L851.3,664.2L845.8,654.1L843.6,651.2L840.9,649.0L837.6,647.8L831.0,646.4L830.2,642.3L828.3,637.2L825.5,635.2L823.7,632.0L816.7,626.7L812.1,627.0L810.0,626.3L752.1,574.2L749.7,569.5L748.4,563.2L711.1,515.4L699.5,505.3L699.3,503.1L707.0,490.4L717.5,480.1L721.4,473.8L727.6,459.8L728.2,455.8L729.2,455.3L731.1,455.2L730.9,454.8L732.0,445.8L730.7,443.5L718.7,439.6L716.7,439.6L712.8,438.5L710.1,434.5L702.2,425.3L700.4,424.0L696.2,422.5L689.2,420.9L686.5,420.7L681.2,421.4L676.2,420.7L668.0,418.9L664.2,419.7L662.0,421.7L660.3,426.8L662.9,434.7L661.3,435.8L653.1,438.8L648.2,441.1L640.9,440.7L634.7,442.8L631.5,442.0L630.3,440.9L627.2,435.0L625.4,436.2Z " data-id="CM.NO" data-name="Nord" id="CM.NO"/>
utf-8utf-8<path d="M360.8,1037.4L362.8,1031.4L362.0,1025.5L359.9,1019.3L358.9,1013.5L360.8,1005.1L360.5,1002.0L356.8,999.4L346.5,996.6L341.5,1002.1L339.9,1003.2L334.0,1004.7L323.7,1003.4L322.8,1006.8L323.6,1013.7L321.8,1023.1L318.2,1028.4L312.2,1032.1L306.4,1034.3L303.5,1034.8L301.4,1038.2L295.7,1036.6L286.6,1034.7L282.7,1035.8L276.4,1052.2L271.1,1062.0L267.0,1063.9L260.1,1063.3L257.8,1063.4L235.0,1068.1L233.0,1077.0L230.4,1079.9L229.1,1079.5L226.6,1075.2L217.9,1071.5L213.4,1072.2L205.5,1079.1L207.8,1084.9L207.2,1087.6L201.4,1090.0L191.3,1100.0L188.1,1105.2L187.5,1111.7L186.9,1114.2L181.5,1129.4L176.6,1133.6L175.8,1144.4L177.9,1147.6L179.2,1147.8L183.1,1145.2L186.2,1145.8L190.5,1149.2L194.0,1157.8L194.2,1163.8L192.9,1167.2L196.2,1175.4L201.1,1178.4L202.0,1180.5L202.5,1184.2L203.7,1187.1L207.2,1190.6L208.1,1195.3L213.3,1196.5L216.5,1188.7L218.1,1186.2L224.6,1180.8L227.3,1174.4L228.6,1174.0L232.9,1175.2L242.1,1173.0L243.8,1175.4L244.8,1180.6L249.8,1192.6L251.2,1194.3L254.2,1195.6L256.5,1198.3L258.9,1199.5L268.5,1201.5L272.4,1200.8L290.2,1191.2L295.6,1184.2L300.3,1185.6L305.8,1191.6L313.4,1192.4L316.2,1190.5L320.6,1177.4L323.4,1165.0L325.3,1162.3L327.5,1160.4L333.6,1157.5L332.6,1152.8L333.1,1141.4L335.5,1137.5L339.6,1136.0L343.5,1129.1L346.2,1127.6L347.5,1122.8L345.8,1120.0L349.9,1110.6L350.1,1108.1L349.4,1100.5L348.1,1098.1L347.3,1094.7L351.0,1087.7L349.9,1085.7L353.9,1082.7L354.8,1080.0L357.9,1078.6L361.0,1071.9L363.2,1070.1L362.7,1068.0L358.8,1067.6L358.0,1065.8L358.8,1061.0L358.5,1059.1L356.9,1056.5L356.0,1050.5L357.9,1049.0L358.7,1046.7L358.4,1044.5L356.8,1043.5L358.1,1042.0L360.1,1040.3L360.8,1037.4Z " data-id="CM.OU" data-name="Ouest" id="CM.OU"/>
utf-8utf-8<path d="M201.5,1077.5L195.0,1075.9L190.1,1074.0L182.8,1078.4L174.7,1074.1L167.0,1071.5L163.2,1069.3L160.4,1065.7L159.3,1063.1L157.3,1061.6L153.9,1062.4L151.0,1061.4L147.7,1056.4L141.9,1049.9L143.3,1042.6L140.1,1037.8L142.4,1033.5L155.0,1024.6L158.0,1020.3L160.8,1019.4L164.7,1019.8L166.4,1015.6L166.3,1010.9L167.0,1007.8L167.6,1000.3L161.2,977.4L159.9,974.5L158.2,968.4L154.9,962.7L153.0,960.8L152.9,961.3L151.3,962.7L141.2,963.6L139.3,965.5L136.3,972.0L134.3,974.2L121.9,980.9L118.1,989.5L114.5,991.9L109.3,992.1L107.5,993.2L105.7,995.5L102.1,1004.3L98.8,1009.5L81.1,1025.7L64.9,1046.3L62.1,1048.5L61.4,1054.6L59.1,1054.9L53.5,1053.3L49.6,1058.2L45.0,1061.7L43.6,1064.1L43.9,1067.0L46.4,1071.9L45.9,1075.6L43.6,1078.8L41.3,1080.7L40.3,1082.8L42.1,1086.5L47.6,1091.9L50.0,1094.8L51.4,1098.7L50.8,1102.2L44.5,1110.6L43.7,1113.8L44.5,1122.6L43.6,1125.9L40.9,1132.1L40.0,1135.6L41.4,1142.7L38.0,1162.6L37.1,1164.5L32.8,1166.3L31.5,1167.8L25.1,1183.4L18.1,1195.6L17.4,1198.3L13.8,1201.2L12.7,1203.5L14.0,1210.7L9.7,1214.7L9.4,1217.7L9.9,1223.5L9.0,1222.4L8.3,1224.2L9.1,1229.5L8.3,1230.7L4.6,1233.6L1.1,1240.5L1.7,1242.9L2.9,1244.1L4.6,1244.1L6.4,1242.6L2.9,1249.7L0.9,1249.3L0.3,1252.0L1.0,1255.5L3.0,1257.7L7.0,1257.7L7.8,1254.6L10.2,1253.8L11.8,1254.6L8.1,1259.9L9.6,1260.6L25.8,1259.3L28.5,1257.5L27.7,1253.7L23.7,1250.5L20.4,1236.8L18.4,1232.4L17.5,1228.2L19.6,1224.5L20.5,1230.3L26.3,1239.7L28.7,1247.6L32.9,1249.9L37.9,1253.7L40.2,1249.7L39.0,1249.2L38.3,1244.6L44.6,1250.2L47.3,1252.9L48.0,1250.6L47.1,1247.3L43.1,1240.4L43.6,1238.5L44.5,1238.9L47.8,1244.4L52.0,1248.7L50.8,1254.2L51.5,1256.3L53.2,1255.2L56.1,1251.6L54.8,1255.1L51.5,1261.6L50.8,1265.2L54.0,1286.2L56.3,1291.8L59.4,1296.7L63.4,1300.9L63.1,1305.1L60.7,1313.9L60.9,1318.1L62.5,1319.3L73.7,1325.3L80.7,1330.2L90.1,1330.1L92.0,1331.7L92.0,1338.1L97.1,1338.6L101.5,1334.0L103.7,1329.0L106.9,1328.2L106.9,1329.1L104.5,1332.6L103.9,1338.0L105.4,1343.0L107.7,1344.3L111.9,1339.8L115.5,1337.9L117.8,1331.7L123.3,1321.5L123.0,1321.1L126.6,1316.5L128.1,1315.8L129.8,1317.8L132.6,1315.8L137.4,1308.6L135.2,1302.1L133.3,1300.8L124.2,1298.9L121.5,1297.1L122.5,1289.2L131.4,1273.0L132.1,1269.9L130.6,1263.7L131.2,1255.3L132.0,1251.2L136.2,1243.0L139.2,1238.7L146.1,1238.5L147.1,1237.2L147.9,1232.3L151.5,1226.3L154.9,1223.2L156.3,1219.8L157.0,1212.0L158.3,1209.7L162.5,1205.3L164.9,1201.8L167.3,1197.3L164.4,1193.8L163.5,1191.8L166.5,1181.6L168.7,1178.6L173.2,1177.6L174.6,1175.8L174.2,1173.2L171.6,1166.9L169.8,1163.4L164.9,1156.6L162.7,1150.7L161.6,1143.7L162.2,1142.4L166.2,1141.9L167.7,1140.9L172.3,1134.8L176.6,1133.6L181.5,1129.4L186.9,1114.2L187.5,1111.7L188.1,1105.2L191.3,1100.0L201.4,1090.0L207.2,1087.6L207.8,1084.9L205.5,1079.1L201.5,1077.5Z " data-id="CM.SW" data-name="Sud-Ouest" id="CM.SW"/>
utf-8utf-8<path d="M525.3,1395.3L522.6,1391.4L519.5,1384.5L516.9,1381.9L514.0,1382.9L506.8,1391.5L493.0,1404.1L488.6,1409.4L487.0,1412.5L482.6,1431.2L480.0,1433.0L473.8,1435.1L470.1,1434.9L469.8,1433.2L471.1,1430.0L469.0,1427.4L454.4,1419.4L449.8,1416.2L445.2,1415.0L440.6,1411.8L436.5,1420.9L435.5,1422.4L422.6,1429.9L421.3,1431.3L417.1,1439.8L416.1,1443.8L414.2,1449.3L412.8,1450.5L403.2,1455.7L396.9,1457.9L393.9,1458.3L373.7,1458.1L366.2,1459.7L360.8,1458.5L352.4,1459.9L344.6,1450.7L343.4,1444.9L339.4,1442.3L338.0,1440.1L335.8,1429.1L334.4,1425.4L330.6,1420.0L321.9,1419.4L316.0,1417.1L309.8,1418.2L304.4,1418.5L303.2,1414.4L300.8,1409.4L295.6,1409.0L287.2,1411.0L243.1,1425.7L232.9,1427.6L232.0,1427.1L225.4,1403.0L226.5,1398.3L225.6,1395.4L221.0,1391.8L218.6,1391.4L216.5,1393.0L212.0,1394.1L202.9,1406.0L202.5,1408.5L202.5,1413.3L203.0,1415.4L201.0,1419.9L200.9,1422.9L197.8,1429.2L193.2,1433.0L185.5,1440.1L185.5,1440.8L181.9,1441.8L181.9,1442.7L184.2,1446.1L189.2,1467.6L189.0,1472.2L187.4,1476.2L184.6,1480.0L182.2,1484.3L180.2,1490.4L178.9,1497.0L178.5,1515.7L178.0,1518.1L175.8,1524.1L172.0,1543.8L171.5,1571.1L169.0,1576.3L170.5,1578.7L170.2,1584.5L170.5,1587.5L175.2,1592.9L178.5,1595.4L183.1,1597.0L191.3,1601.6L193.9,1602.1L366.4,1602.1L367.8,1598.8L368.2,1592.8L370.8,1587.5L370.2,1582.3L404.8,1580.9L409.8,1579.1L411.6,1579.3L415.5,1582.6L422.2,1585.0L424.2,1585.3L428.6,1584.6L440.0,1585.0L449.9,1584.0L459.7,1584.7L467.3,1584.1L474.9,1585.1L480.5,1585.4L483.1,1584.8L488.1,1582.9L492.0,1582.1L494.7,1580.5L501.8,1583.9L504.1,1584.4L511.3,1582.6L516.3,1583.0L525.7,1586.5L528.8,1585.7L530.8,1587.4L533.9,1588.7L551.5,1591.7L554.1,1591.1L559.0,1587.7L566.8,1590.5L567.9,1588.7L572.8,1589.1L574.1,1587.7L578.0,1589.2L583.5,1588.2L589.2,1590.6L594.7,1589.8L596.0,1589.2L601.2,1584.7L605.1,1584.9L608.7,1585.7L611.4,1587.7L615.4,1586.6L616.8,1587.2L622.0,1592.6L622.6,1594.7L622.1,1599.1L622.1,1602.8L664.3,1603.2L669.8,1603.3L665.3,1502.5L664.0,1493.4L659.5,1495.6L652.4,1501.8L653.8,1504.2L648.9,1502.6L648.4,1504.6L649.3,1508.7L649.0,1510.4L647.1,1511.1L639.6,1511.1L633.3,1507.2L631.1,1505.0L630.7,1506.7L627.5,1507.2L626.4,1506.5L624.0,1503.1L620.2,1501.3L619.0,1503.1L620.7,1508.7L621.7,1510.2L617.6,1509.2L616.9,1505.5L616.0,1504.4L612.8,1503.1L613.1,1500.9L611.8,1499.1L609.9,1498.5L608.4,1500.1L607.2,1499.5L604.8,1500.1L599.3,1499.0L597.3,1502.3L596.4,1501.9L595.6,1499.2L593.3,1501.2L585.7,1498.5L583.2,1498.5L581.0,1495.9L577.3,1498.2L565.2,1494.3L562.2,1493.9L560.4,1492.1L557.3,1490.5L553.3,1484.2L552.9,1482.4L552.5,1465.9L551.2,1458.6L549.1,1452.1L544.3,1442.7L540.9,1438.0L531.8,1428.2L527.7,1422.2L526.2,1419.4L525.1,1415.3L527.4,1397.7L525.3,1395.3Z " data-id="CM.SU" data-name="Sud" id="CM.SU"/>
utf-8</g>
</svg>
