<?xml version="1.0" ?>
<!DOCTYPE svg
  PUBLIC '-//W3C//DTD SVG 1.1//EN'
  'http://www.w3.org/Graphics/SVG/1.1/DTD/svg11.dtd'>
<svg enable_background="new 0 0 1000 776" height="776px" pretty_print="True" style="stroke-linejoin: round; stroke:#000; fill: none;" version="1.1" viewBox="0 0 1000 776" width="1000px" xmlns="http://www.w3.org/2000/svg" xmlns:xlink="http://www.w3.org/1999/xlink">
utf-8<defs>
utf-8utf-8<style type="text/css">
<![CDATA[path { fill-rule: evenodd; }]]>utf-8utf-8</style>
utf-8</defs>
utf-8<metadata>
utf-8utf-8<views>
utf-8utf-8utf-8<view h="776.848058185" padding="0" w="1000">
utf-8utf-8utf-8utf-8<proj flip="auto" id="robinson" lon0="102.877969305"/>
utf-8utf-8utf-8utf-8<bbox h="587.98" w="757.85" x="1007.96" y="-892.65"/>
utf-8utf-8utf-8</view>
utf-8utf-8</views>
utf-8</metadata>
utf-8<g class="" id="provinces">
utf-8utf-8<path d="M572.5,348.8L568.1,347.6L557.1,340.3L552.6,339.0L550.4,335.5L549.3,328.1L547.7,326.1L554.4,318.5L554.5,315.9L556.0,314.0L555.2,310.5L550.8,306.3L544.2,303.7L539.6,305.2L534.1,309.0L533.4,310.2L530.3,310.2L521.4,307.9L515.6,310.5L513.6,312.4L518.1,315.8L516.1,320.0L511.6,320.1L506.3,318.5L502.5,314.4L502.3,313.1L499.7,313.3L495.4,310.8L490.9,304.1L486.5,304.1L480.9,300.9L477.5,297.7L474.6,297.0L468.3,294.1L462.2,293.7L468.0,285.0L467.8,283.2L469.4,278.3L467.7,275.0L464.7,272.3L458.7,271.2L448.5,272.8L443.5,275.2L443.1,276.4L439.8,279.3L434.7,279.2L433.2,271.9L432.2,271.0L424.2,266.6L416.2,260.3L415.6,259.4L417.6,255.9L394.7,230.8L388.6,231.4L382.6,232.0L381.0,232.2L380.7,232.2L377.2,235.1L377.1,237.0L380.1,244.7L381.8,247.8L381.0,249.4L378.7,251.3L373.4,250.8L366.3,252.2L359.7,256.6L353.9,267.0L351.9,273.0L350.7,278.2L346.5,280.8L340.3,280.7L343.1,289.3L342.2,293.1L342.9,295.2L349.1,303.1L351.2,309.5L351.3,309.7L352.5,309.9L357.1,308.9L364.2,306.3L377.8,306.1L385.4,308.6L392.5,309.6L400.0,312.8L402.3,314.7L407.8,317.9L410.2,318.7L415.2,321.3L416.1,321.3L421.1,323.6L421.6,324.9L430.1,327.6L430.4,326.8L428.0,321.2L427.1,316.9L424.4,310.4L426.8,308.6L431.6,309.9L447.0,317.5L449.8,312.6L455.4,314.3L457.7,311.6L460.7,312.7L471.2,319.7L476.4,323.9L482.1,327.3L486.2,328.4L489.8,329.9L486.8,326.1L486.9,324.5L492.1,328.3L495.1,329.0L498.7,332.6L508.2,336.3L514.0,340.0L523.0,344.5L528.3,344.1L529.7,344.9L530.7,347.8L533.6,348.8L539.0,351.7L542.6,354.9L541.8,356.0L542.3,359.0L547.7,362.8L546.9,365.0L549.5,366.8L553.5,372.5L558.9,375.6L558.0,378.6L559.8,381.5L560.8,384.2L557.1,383.6L555.9,386.0L557.8,389.1L558.2,391.2L551.5,393.8L551.9,396.4L554.9,399.0L553.8,401.7L549.0,405.6L549.5,408.4L547.3,409.2L548.0,411.0L555.8,414.1L556.3,419.8L552.3,423.7L548.2,421.0L534.3,416.6L532.8,419.4L533.4,421.8L537.9,426.8L541.4,428.3L544.2,432.9L547.4,433.3L550.0,431.8L552.4,434.5L555.0,436.2L555.7,435.6L556.1,435.6L556.1,435.0L559.5,437.8L559.0,441.9L560.4,444.7L569.1,435.4L565.5,433.1L564.6,430.7L561.0,427.0L560.8,426.1L565.1,423.6L567.6,423.4L566.6,421.5L571.4,418.6L577.8,424.1L578.1,425.7L583.6,430.6L585.1,430.3L587.7,431.8L591.5,432.4L594.5,432.2L599.1,433.2L600.8,436.5L605.7,440.6L604.6,440.7L608.7,447.3L608.7,451.3L610.0,451.6L614.3,454.5L621.3,455.9L622.9,455.3L625.2,456.0L629.4,452.4L629.4,449.1L629.6,449.4L632.3,449.9L636.2,448.0L635.1,443.4L631.3,440.9L631.4,436.4L633.7,433.8L637.2,434.9L640.6,433.7L643.3,435.3L643.9,433.6L641.4,431.3L640.7,428.3L639.9,428.0L639.5,422.5L641.2,418.7L638.5,415.0L633.5,413.6L632.1,412.2L634.0,408.7L631.7,402.3L636.3,400.8L644.5,404.0L653.1,403.9L656.5,402.5L654.7,401.2L651.9,397.7L652.4,395.8L657.2,397.9L661.6,396.5L662.1,396.9L667.1,396.4L667.6,393.5L661.7,382.9L663.9,380.4L661.4,372.4L659.0,370.8L650.0,367.2L647.6,367.2L643.0,363.5L638.9,361.9L635.8,361.4L634.6,360.4L630.6,359.9L629.4,357.0L629.4,356.4L628.6,355.9L624.3,355.5L617.3,353.3L617.9,359.9L619.8,361.7L618.2,364.6L619.4,368.3L618.5,369.1L621.1,372.3L620.9,373.3L629.0,376.5L632.3,380.9L633.3,385.2L632.0,386.6L627.3,386.5L625.2,387.2L627.6,390.5L628.8,395.2L626.5,396.8L622.9,393.7L617.7,392.8L620.2,392.0L617.3,391.2L616.2,392.0L612.4,388.8L611.8,386.8L605.0,384.3L602.5,381.1L602.9,375.4L601.7,373.2L596.9,368.1L594.6,364.1L596.0,362.9L589.7,357.4L587.1,356.5L582.2,352.4L580.1,353.0L580.3,350.3L579.5,349.8L574.1,348.9L573.2,348.9L572.5,348.8Z " data-id="CN.GS" data-name="Gansu" id="CN.GS"/>
utf-8utf-8<path d="M555.7,435.6L555.0,436.2L552.4,434.5L550.0,431.8L547.4,433.3L544.2,432.9L541.4,428.3L537.9,426.8L533.4,421.8L532.8,419.4L534.3,416.6L548.2,421.0L552.3,423.7L556.3,419.8L555.8,414.1L548.0,411.0L547.3,409.2L549.5,408.4L549.0,405.6L553.8,401.7L554.9,399.0L551.9,396.4L551.5,393.8L558.2,391.2L557.8,389.1L555.9,386.0L557.1,383.6L560.8,384.2L559.8,381.5L558.0,378.6L558.9,375.6L553.5,372.5L549.5,366.8L546.9,365.0L547.7,362.8L542.3,359.0L541.8,356.0L542.6,354.9L539.0,351.7L533.6,348.8L530.7,347.8L529.7,344.9L528.3,344.1L523.0,344.5L514.0,340.0L508.2,336.3L498.7,332.6L495.1,329.0L492.1,328.3L486.9,324.5L486.8,326.1L489.8,329.9L486.2,328.4L482.1,327.3L476.4,323.9L471.2,319.7L460.7,312.7L457.7,311.6L455.4,314.3L449.8,312.6L447.0,317.5L431.6,309.9L426.8,308.6L424.4,310.4L427.1,316.9L428.0,321.2L430.4,326.8L430.1,327.6L421.6,324.9L421.1,323.6L416.1,321.3L415.2,321.3L410.2,318.7L407.8,317.9L402.3,314.7L400.0,312.8L392.5,309.6L385.4,308.6L377.8,306.1L364.2,306.3L357.1,308.9L352.5,309.9L351.3,309.7L351.1,309.7L344.1,311.5L334.5,315.9L327.9,317.2L325.6,318.5L320.2,319.8L313.8,320.4L309.4,325.0L306.6,325.8L308.2,328.2L315.2,335.6L315.8,338.9L328.2,346.3L330.5,347.0L333.6,351.2L338.2,356.4L338.2,357.4L333.0,359.6L330.2,359.7L328.8,362.0L329.3,364.8L332.4,367.9L336.5,369.2L341.5,377.3L341.7,378.4L336.8,380.3L323.0,377.1L320.1,374.8L320.3,377.5L318.8,379.0L315.2,378.6L313.7,378.9L312.4,379.3L312.3,382.4L314.3,383.8L319.0,384.4L319.3,386.5L318.2,394.6L316.8,395.1L316.9,397.9L320.1,401.3L321.2,404.3L325.6,405.0L326.3,406.4L326.4,410.5L329.8,417.0L329.8,421.0L328.1,423.9L330.9,427.2L334.4,429.6L334.7,430.6L342.1,436.3L342.4,437.8L346.6,441.1L347.3,440.9L352.7,443.9L355.5,444.2L357.4,442.1L361.4,439.9L365.4,440.4L365.0,440.9L371.5,446.5L379.1,450.7L383.2,451.4L384.3,453.0L393.6,452.6L396.1,453.3L398.9,453.2L399.6,454.5L402.2,454.7L407.0,456.9L411.8,456.8L414.8,457.2L421.1,458.9L422.0,457.9L427.4,455.6L428.6,454.6L434.7,458.4L441.2,464.0L443.9,464.0L447.2,466.1L449.7,473.8L458.2,475.7L461.6,475.7L465.4,479.6L466.3,479.1L463.7,472.0L465.6,471.5L469.8,474.8L475.7,476.2L473.2,470.1L479.3,469.1L481.1,467.9L481.6,463.6L481.3,458.4L487.0,459.4L487.6,457.6L487.6,457.4L486.5,457.1L482.1,454.5L479.3,443.1L481.7,438.3L477.0,436.3L474.4,433.8L472.3,428.3L476.2,426.7L477.2,425.1L479.3,428.3L482.9,426.5L487.2,426.6L492.5,428.8L497.2,433.3L497.4,433.9L504.0,443.0L505.7,444.3L512.0,447.0L516.0,450.1L523.6,452.7L523.2,449.3L527.5,448.5L530.9,451.1L533.3,455.4L533.5,453.6L536.0,452.7L540.3,457.0L539.2,459.0L541.9,459.5L541.6,454.3L546.2,455.5L551.0,453.8L550.0,449.8L547.6,446.3L547.8,444.0L552.8,442.4L556.5,444.5L556.3,436.9L556.1,435.6L555.7,435.6Z " data-id="CN.QH" data-name="Qinghai" id="CN.QH"/>
utf-8utf-8<path d="M760.5,711.8L761.0,711.2L760.2,711.4L760.5,711.8Z M740.9,700.6L740.8,700.2L740.0,700.8L740.9,700.6Z M747.7,695.4L747.5,695.1L747.5,695.2L747.7,695.4Z M746.3,600.9L745.4,601.8L745.7,604.0L744.8,607.5L739.2,606.5L736.8,608.3L738.9,608.3L740.7,612.1L740.1,612.6L735.9,612.4L733.4,611.2L733.7,612.8L732.6,614.8L733.4,615.8L727.0,612.0L724.5,616.3L724.6,618.7L720.7,620.4L718.9,620.6L717.3,619.0L712.4,618.9L710.4,615.3L708.8,614.7L708.1,612.8L705.8,612.0L702.9,612.7L702.1,614.5L703.4,616.3L703.4,618.3L701.6,619.6L698.2,619.9L694.1,623.1L689.8,624.4L690.2,627.7L687.2,631.7L685.6,630.1L677.8,628.1L675.1,625.4L669.1,624.7L667.8,628.3L665.4,629.3L663.1,632.1L659.3,629.5L659.0,629.6L659.0,629.6L659.0,633.2L661.6,637.1L664.0,638.7L663.3,636.6L666.8,636.1L670.6,636.5L672.7,638.8L673.8,643.1L676.5,643.4L678.9,645.1L681.6,642.9L683.3,644.7L689.7,643.5L689.7,644.4L692.9,646.4L694.1,648.9L694.2,656.2L692.1,657.7L690.2,657.0L684.1,664.5L684.3,664.7L684.8,666.5L688.0,667.3L691.4,670.2L695.4,668.5L700.4,671.4L703.3,669.9L705.4,670.4L709.9,672.9L707.8,677.6L706.3,677.5L706.3,679.8L709.4,685.3L710.6,691.1L711.5,690.0L715.5,692.1L717.4,692.1L717.1,694.1L724.8,699.1L726.8,698.4L737.5,701.6L737.3,700.2L741.2,698.5L742.1,699.8L743.3,699.3L743.0,696.6L745.7,698.5L746.9,697.5L751.5,699.0L751.9,695.7L753.0,694.3L754.2,695.4L753.3,697.0L755.3,698.8L758.8,699.3L759.3,701.4L758.0,702.7L765.3,702.3L767.4,700.4L765.1,697.8L766.7,695.5L768.4,699.4L771.0,701.8L770.8,699.6L770.8,699.6L770.7,697.7L773.5,697.4L773.7,693.4L777.1,692.5L778.6,693.0L781.6,692.5L779.7,686.0L785.4,686.4L787.7,683.9L785.7,679.8L787.3,677.3L791.7,675.5L795.2,672.1L796.8,666.5L796.0,665.7L794.8,660.6L795.8,654.4L798.3,652.5L797.8,651.3L799.4,649.5L800.8,649.5L802.2,646.0L800.6,640.9L801.9,639.9L801.6,633.7L799.9,632.4L800.6,629.9L800.7,629.8L800.7,629.5L793.9,629.1L791.9,631.8L790.1,630.8L790.3,627.9L789.7,626.7L784.7,620.9L781.6,625.7L779.5,622.9L781.5,619.2L782.0,615.8L783.5,615.1L783.9,610.6L783.3,609.8L784.5,605.0L783.9,603.8L779.7,603.0L779.5,597.1L776.5,595.0L772.7,593.2L772.0,595.7L765.6,594.6L765.2,597.9L763.3,598.4L762.3,601.3L761.3,602.3L760.0,600.9L756.9,600.2L757.0,598.3L752.7,603.9L750.8,604.0L750.8,602.6L746.5,600.8L746.3,600.9Z " data-id="CN.GX" data-name="Guangxi" id="CN.GX"/>
utf-8utf-8<path d="M728.5,546.7L727.6,547.9L727.5,553.3L723.9,552.8L720.6,550.2L720.5,548.0L718.4,548.3L718.6,550.4L716.9,548.8L715.9,544.5L712.1,543.0L710.1,540.8L710.8,540.0L707.4,533.8L702.0,534.5L699.3,535.6L697.4,532.2L690.6,531.9L692.8,537.3L687.4,538.1L686.2,537.7L684.1,540.1L682.1,541.0L682.8,543.8L681.6,546.9L679.5,546.0L678.7,543.2L674.6,539.5L675.0,545.0L674.6,544.9L674.7,545.3L668.3,542.8L666.0,540.9L660.7,546.9L662.1,550.0L668.0,554.2L675.5,556.9L676.5,562.5L673.4,562.3L672.7,562.9L667.6,563.7L666.1,564.5L662.0,562.3L659.2,563.7L658.9,563.7L658.9,564.1L658.5,571.0L657.3,570.6L653.0,572.8L649.8,572.4L643.7,571.0L643.0,570.0L640.3,573.7L631.1,576.9L631.2,579.3L633.2,579.3L635.6,588.2L639.0,590.3L640.5,590.3L642.5,587.4L650.7,588.8L653.8,593.1L652.3,595.4L652.4,601.1L651.7,605.0L650.3,608.2L652.5,610.9L659.5,617.7L661.5,618.4L660.3,622.0L661.0,623.5L659.9,625.8L659.0,629.6L659.0,629.6L659.3,629.5L663.1,632.1L665.4,629.3L667.8,628.3L669.1,624.7L675.1,625.4L677.8,628.1L685.6,630.1L687.2,631.7L690.2,627.7L689.8,624.4L694.1,623.1L698.2,619.9L701.6,619.6L703.4,618.3L703.4,616.3L702.1,614.5L702.9,612.7L705.8,612.0L708.1,612.8L708.8,614.7L710.4,615.3L712.4,618.9L717.3,619.0L718.9,620.6L720.7,620.4L724.6,618.7L724.5,616.3L727.0,612.0L733.4,615.8L732.6,614.8L733.7,612.8L733.4,611.2L735.9,612.4L740.1,612.6L740.7,612.1L738.9,608.3L736.8,608.3L739.2,606.5L744.8,607.5L745.7,604.0L745.4,601.8L746.3,600.9L745.6,600.0L744.0,595.8L741.7,592.4L742.7,589.9L740.5,585.4L743.3,582.8L742.0,578.7L739.8,576.5L736.0,576.7L735.1,577.9L732.3,577.6L730.2,579.3L729.2,577.3L731.0,574.1L733.9,570.0L735.5,570.0L737.8,566.9L736.6,563.9L733.6,559.8L733.8,556.4L732.3,551.7L730.3,550.4L729.1,546.7L729.1,546.4L728.5,546.7Z " data-id="CN.GZ" data-name="Guizhou" id="CN.GZ"/>
utf-8utf-8<path d="M713.8,475.3L709.6,475.9L707.8,475.0L705.9,472.9L692.3,465.7L690.8,465.1L688.5,465.3L687.9,470.7L691.5,472.7L694.2,475.2L689.3,488.1L688.8,491.8L689.1,494.2L687.0,495.7L685.3,493.9L681.6,495.3L681.4,497.8L681.8,501.8L680.2,508.2L677.5,512.2L671.8,512.1L668.6,507.5L665.1,506.3L662.0,508.6L659.8,506.5L652.8,503.8L651.6,506.4L650.0,507.5L650.8,508.5L649.5,510.2L651.0,511.0L653.1,516.6L651.9,517.3L650.2,520.1L649.2,520.2L648.0,522.9L649.2,525.1L650.9,525.9L652.8,528.5L656.9,529.5L660.7,536.3L664.7,536.1L668.7,537.3L670.8,539.6L673.5,543.9L674.6,544.9L675.0,545.0L674.6,539.5L678.7,543.2L679.5,546.0L681.6,546.9L682.8,543.8L682.1,541.0L684.1,540.1L686.2,537.7L687.4,538.1L692.8,537.3L690.6,531.9L697.4,532.2L699.3,535.6L702.0,534.5L707.4,533.8L710.8,540.0L710.1,540.8L712.1,543.0L715.9,544.5L716.9,548.8L718.6,550.4L718.4,548.3L720.5,548.0L720.6,550.2L723.9,552.8L727.5,553.3L727.6,547.9L728.5,546.7L729.1,546.4L729.0,545.9L728.2,541.4L726.3,537.0L726.1,534.4L724.5,533.2L721.4,530.7L716.2,525.4L715.3,521.7L711.2,520.1L708.6,516.5L706.5,519.4L705.4,516.7L706.5,513.2L704.3,506.8L701.5,505.4L701.1,502.7L704.5,501.0L707.8,501.4L712.6,500.3L713.7,501.0L717.8,500.7L725.3,493.9L729.1,495.3L730.0,494.0L728.5,489.7L728.8,487.6L725.7,482.3L718.0,479.1L716.7,476.6L715.1,475.4L714.2,475.2L713.8,475.3Z " data-id="CN.CQ" data-name="Chongqing" id="CN.CQ"/>
utf-8utf-8<path d="M780.2,285.2L774.9,279.3L778.1,277.1L772.6,275.9L770.9,276.2L766.2,273.9L759.0,269.4L755.6,270.7L759.3,274.2L754.8,274.6L753.5,277.8L751.1,277.6L748.5,279.2L755.3,285.1L749.8,289.7L749.0,291.2L753.5,295.5L751.5,296.3L756.2,299.8L760.0,301.8L762.6,300.4L765.7,300.6L773.2,303.1L772.0,301.4L775.5,299.8L777.6,299.8L777.8,299.6L777.9,299.6L778.0,299.4L778.2,298.6L778.2,297.9L778.1,297.7L774.9,293.6L772.8,291.0L777.6,289.6L780.5,289.0L781.3,288.8L781.7,287.2L781.5,286.2L780.8,285.4L780.2,285.2Z " data-id="CN.BJ" data-name="Beijing" id="CN.BJ"/>
utf-8utf-8<path d="M908.7,651.5L907.4,651.2L908.0,654.4L909.9,653.5L908.7,651.5Z M918.4,634.2L917.5,634.1L918.9,634.3L918.4,634.2Z M922.1,633.9L921.8,633.4L922.0,634.0L922.1,633.9Z M934.8,623.2L934.6,621.8L934.3,622.4L934.8,623.2Z M941.4,619.3L940.2,618.3L939.8,618.7L941.4,619.3Z M936.1,614.6L936.4,611.7L935.6,612.0L936.1,614.6Z M944.2,610.3L942.8,610.0L943.6,612.3L944.2,610.3Z M940.5,609.7L940.6,609.1L940.3,609.9L940.5,609.7Z M934.9,602.5L934.3,601.5L931.0,599.8L932.2,601.8L934.9,602.5Z M939.1,600.2L938.3,599.1L937.3,599.7L939.1,600.2Z M944.5,590.2L944.2,590.9L944.4,590.8L944.5,590.2Z M945.7,589.5L946.0,588.5L945.7,588.4L945.7,589.5Z M941.3,586.4L940.8,586.7L941.0,586.8L941.3,586.4Z M947.7,580.5L947.7,581.4L948.3,581.1L947.7,580.5Z M903.4,551.2L902.8,551.6L903.1,555.4L898.1,558.0L893.6,559.2L893.2,561.7L890.2,560.5L888.0,558.1L884.3,560.5L884.7,562.0L883.6,571.4L883.2,578.1L882.5,579.1L877.9,579.9L876.1,582.6L877.7,589.3L879.0,590.6L877.0,594.3L877.7,598.9L877.0,602.4L873.8,605.5L874.6,606.5L873.2,608.6L873.4,616.6L871.6,619.6L873.0,624.9L873.8,625.8L874.7,625.8L881.0,627.4L883.6,627.6L887.4,632.4L891.3,631.2L891.9,633.8L893.7,635.4L897.1,640.7L897.4,643.7L901.1,651.8L904.3,654.5L904.3,654.5L905.9,651.3L908.5,651.0L909.3,648.8L907.5,647.9L910.3,647.9L911.6,650.5L911.7,644.6L913.5,647.1L916.1,645.4L915.7,641.9L919.5,640.2L912.6,635.6L916.1,636.1L916.7,634.3L915.4,634.0L916.2,632.4L920.6,633.4L923.5,632.1L925.0,632.6L926.4,634.6L927.5,634.0L929.1,629.0L926.7,628.8L925.0,626.4L926.1,625.8L932.7,626.6L932.1,623.6L928.9,618.5L931.6,617.8L932.8,619.1L932.8,621.2L936.5,620.0L937.9,618.2L934.5,617.5L935.2,616.9L932.5,614.9L936.5,611.7L938.3,612.6L941.8,616.3L942.4,614.3L940.2,611.4L938.5,610.1L940.1,606.9L939.4,605.8L940.7,602.1L940.0,601.3L935.4,602.9L935.1,601.6L937.0,599.6L938.7,596.4L943.3,593.7L941.3,593.1L939.7,594.5L937.8,593.9L935.8,592.1L937.2,590.9L939.7,592.8L940.3,592.2L937.2,588.3L935.8,588.8L933.6,585.5L937.2,586.3L937.5,583.5L938.6,582.9L939.9,587.3L940.7,587.2L940.8,584.2L943.3,584.4L942.3,587.3L940.0,589.6L941.2,590.2L944.2,587.5L945.2,587.5L942.0,583.3L945.5,581.3L943.5,580.1L945.1,578.1L944.6,577.0L947.5,576.7L943.6,574.1L944.5,573.8L947.4,575.3L947.3,575.1L946.0,572.4L942.2,570.5L935.7,572.5L934.2,572.5L929.5,565.1L928.3,564.7L927.4,568.0L924.2,570.3L916.9,568.9L915.4,564.0L912.6,559.3L911.3,558.4L910.7,554.4L908.6,550.4L904.6,551.8L903.4,551.2Z " data-id="CN.FJ" data-name="Fujian" id="CN.FJ"/>
utf-8utf-8<path d="M905.1,488.5L900.0,486.6L899.8,485.8L896.1,485.1L894.6,486.2L887.7,484.4L888.8,482.7L888.9,479.9L887.8,477.8L881.4,475.2L879.1,473.7L876.3,471.0L876.7,465.0L878.7,463.2L875.4,456.6L879.4,456.4L883.7,458.2L885.0,459.6L886.3,456.3L883.7,451.4L879.4,448.1L876.7,448.0L876.1,453.3L870.0,453.3L866.7,450.4L866.6,448.2L862.2,443.4L857.6,441.4L857.7,437.3L858.4,435.6L857.9,431.3L849.7,431.2L849.0,428.7L845.3,425.0L841.9,424.6L836.5,423.3L832.8,421.4L829.7,416.6L827.5,416.5L824.7,414.8L822.9,414.4L817.4,411.0L817.0,411.0L816.6,411.5L814.9,412.6L814.1,412.2L814.0,412.2L813.5,412.6L814.0,413.3L820.3,419.1L823.2,418.8L824.3,422.1L827.7,426.2L825.0,429.0L819.9,431.1L815.7,427.3L814.4,425.1L808.7,424.1L808.4,428.0L810.0,428.8L812.0,434.6L809.8,434.9L808.0,439.1L808.7,440.0L805.0,445.4L803.6,444.6L802.6,446.1L806.6,449.3L808.4,449.7L814.0,456.9L815.4,457.1L820.3,460.5L823.1,458.4L825.3,458.4L825.7,460.0L830.0,468.9L831.2,473.7L826.9,474.2L824.4,476.7L824.2,481.1L824.3,482.2L824.6,483.4L829.6,487.6L831.7,486.8L836.0,488.7L839.8,491.7L836.6,496.8L841.9,503.2L841.1,504.8L842.0,506.2L845.5,508.7L849.9,517.4L850.3,518.1L851.5,518.2L856.7,515.1L858.9,512.2L862.9,514.6L863.3,516.7L862.5,519.0L860.9,519.5L860.8,521.5L865.4,523.4L868.3,518.1L867.2,517.1L868.0,515.2L869.7,515.5L870.8,517.1L873.3,517.0L875.0,519.6L881.2,523.2L887.0,523.1L889.9,525.9L891.0,526.5L892.8,525.9L899.1,519.1L898.6,517.8L898.5,509.6L899.1,508.5L898.6,505.7L904.8,506.7L906.1,505.2L904.3,502.0L905.9,499.4L906.7,494.1L906.3,490.3L905.8,488.5L905.1,488.5Z " data-id="CN.AH" data-name="Anhui" id="CN.AH"/>
utf-8utf-8<path d="M789.8,714.6L788.9,713.5L788.5,714.1L789.8,714.6Z M784.8,710.2L783.1,711.6L782.9,712.9L784.7,712.2L787.8,712.9L787.8,710.7L784.8,710.2Z M786.2,708.2L785.6,708.6L788.5,708.4L786.2,708.2Z M825.6,698.3L825.7,696.6L824.1,697.3L825.6,698.3Z M832.3,693.4L832.6,693.2L832.0,693.0L832.3,693.4Z M836.9,692.7L836.7,691.5L835.9,692.1L836.9,692.7Z M836.0,689.4L835.2,690.9L835.2,690.5L836.0,689.4Z M856.1,689.2L854.3,689.6L854.6,689.7L856.1,689.2Z M837.7,686.7L836.9,686.7L836.0,687.9L837.7,686.7Z M841.2,676.9L839.1,674.0L837.6,674.3L841.2,676.9Z M838.4,670.6L838.0,669.5L837.3,668.8L838.4,670.6Z M904.0,657.8L901.1,658.1L902.8,659.2L904.0,657.8Z M800.7,629.8L800.6,629.9L799.9,632.4L801.6,633.7L801.9,639.9L800.6,640.9L802.2,646.0L800.8,649.5L799.4,649.5L797.8,651.3L798.3,652.5L795.8,654.4L794.8,660.6L796.0,665.7L796.8,666.5L795.2,672.1L791.7,675.5L787.3,677.3L785.7,679.8L787.7,683.9L785.4,686.4L779.7,686.0L781.6,692.5L778.6,693.0L777.1,692.5L773.7,693.4L773.5,697.4L770.7,697.7L770.8,699.6L771.3,699.5L774.5,703.7L771.9,704.4L772.2,708.3L771.0,709.6L771.8,714.9L776.4,723.2L778.2,723.2L778.9,728.4L781.2,727.8L785.8,728.8L787.5,727.7L789.9,723.8L784.7,719.9L784.5,717.8L785.3,715.6L781.5,715.0L781.0,714.4L782.6,710.3L784.4,708.9L783.9,706.1L782.8,704.7L784.4,704.0L785.3,708.1L789.1,706.7L789.9,704.6L793.0,703.8L796.2,701.6L800.4,702.6L802.6,700.7L807.3,700.4L809.1,695.5L810.4,696.3L812.6,695.2L810.4,691.9L813.5,693.3L813.2,694.5L816.9,694.5L818.0,696.7L820.6,695.6L820.5,693.8L819.1,690.7L821.4,694.0L825.3,694.1L826.7,691.7L830.2,693.4L831.9,691.5L831.3,687.1L832.6,685.4L833.4,688.8L835.6,687.9L836.6,686.1L838.3,686.2L832.2,677.5L834.6,681.3L839.5,686.7L841.2,683.9L840.1,680.5L840.5,677.5L838.5,675.4L835.5,673.3L837.7,673.1L834.5,670.6L836.7,669.9L836.3,667.0L834.6,666.3L838.8,665.5L840.1,664.6L841.3,665.4L837.6,666.3L839.4,667.4L839.1,670.6L843.0,674.0L843.4,675.4L846.6,680.2L847.8,678.4L849.1,678.9L855.8,676.7L857.6,678.4L858.2,680.2L860.2,678.9L857.9,677.2L859.2,676.0L858.5,674.7L860.5,672.7L861.7,674.0L862.2,676.8L863.5,677.1L867.6,672.6L874.2,672.8L873.9,674.9L877.7,673.8L876.5,671.7L878.2,670.6L882.3,673.7L885.2,671.7L888.4,671.1L889.8,668.9L892.1,669.7L894.3,669.5L895.2,667.7L894.7,664.2L897.0,662.4L897.5,660.9L894.4,661.1L893.5,659.2L895.6,660.3L897.8,660.4L899.2,658.2L899.0,655.5L902.4,654.0L902.9,656.0L903.9,654.7L904.3,654.5L901.1,651.8L897.4,643.7L897.1,640.7L893.7,635.4L891.9,633.8L891.3,631.2L887.4,632.4L883.6,627.6L881.0,627.4L874.7,625.8L873.8,625.8L873.9,625.9L871.8,628.1L872.7,630.4L873.0,633.7L868.3,630.9L866.3,629.1L862.3,629.5L860.7,630.9L857.1,631.2L855.9,633.0L853.4,632.2L853.3,633.6L847.8,635.0L846.2,633.3L842.5,630.8L844.2,629.6L845.3,625.2L847.7,622.7L850.1,621.5L850.0,618.5L847.1,616.2L846.4,614.9L838.3,617.1L837.5,617.8L835.8,614.3L834.2,614.0L834.0,614.0L833.4,614.2L831.4,616.4L825.5,615.6L820.3,612.7L816.5,615.9L815.5,618.6L818.5,624.3L814.9,625.0L810.5,620.9L809.3,621.0L802.9,619.6L802.3,620.5L802.1,625.0L803.2,626.1L803.2,628.7L801.1,629.6L800.7,629.8Z " data-id="CN.GD" data-name="Guangdong" id="CN.GD"/>
utf-8utf-8<path d="M305.6,374.6L295.5,372.2L289.2,370.3L282.1,370.8L274.9,373.0L271.4,372.2L264.8,374.3L259.0,375.5L255.5,375.5L254.5,376.7L251.5,377.9L251.5,379.7L249.7,385.3L244.8,385.9L242.6,388.2L240.0,386.1L234.4,386.1L230.7,387.5L228.6,389.5L219.6,394.2L216.4,393.7L213.3,394.5L208.7,394.9L201.6,393.5L198.9,393.7L197.6,392.7L195.5,389.5L193.3,387.5L189.6,388.3L185.4,387.5L179.7,393.5L178.1,396.4L171.4,397.3L169.5,396.0L161.9,394.2L161.7,396.0L152.1,394.2L146.3,391.1L145.9,398.0L144.4,400.2L145.2,403.2L143.0,404.3L142.9,405.3L145.5,409.2L144.0,415.6L137.2,414.9L133.1,415.4L129.1,417.7L129.7,418.3L126.4,423.5L126.8,425.3L129.5,430.9L131.7,437.2L137.9,442.6L142.9,443.4L144.4,448.9L145.7,449.9L148.4,453.7L147.7,456.1L145.7,458.5L139.9,461.8L136.1,459.2L134.9,457.1L129.5,456.9L130.4,461.2L132.7,464.8L138.3,470.6L137.9,474.5L141.5,478.0L141.4,482.3L145.9,484.4L146.0,482.1L151.8,486.7L152.8,488.7L155.6,491.0L159.0,492.8L161.8,491.9L163.7,492.3L168.8,496.1L171.5,497.0L172.8,500.9L180.4,503.3L184.6,506.4L187.9,507.5L192.5,512.9L193.9,513.3L195.9,510.3L195.7,505.2L198.4,506.1L199.7,504.2L209.2,506.5L211.0,509.8L210.8,510.7L221.7,517.2L222.5,517.1L228.9,520.8L230.8,522.5L232.4,521.7L237.3,526.3L241.5,531.4L242.7,531.9L244.5,530.5L247.7,529.4L250.3,529.5L253.2,530.9L254.3,534.2L255.5,534.9L257.3,538.3L259.1,538.8L261.0,541.3L268.9,545.6L275.0,544.4L274.2,547.9L275.5,551.1L280.0,551.8L281.2,551.0L285.1,552.0L286.0,550.2L288.1,553.1L290.0,554.0L295.5,559.9L296.0,559.2L294.6,556.1L296.2,554.2L297.4,557.5L302.0,559.5L303.4,558.6L303.4,555.5L308.0,557.3L309.3,557.2L313.3,558.9L315.3,561.0L320.6,561.9L323.2,561.2L325.2,561.5L338.5,557.9L342.0,555.2L346.4,557.3L348.1,561.0L348.2,570.0L352.7,572.8L353.1,572.3L351.8,568.2L354.1,566.0L355.3,561.8L357.5,559.6L360.1,554.6L362.9,553.8L365.9,550.6L370.3,550.4L371.5,549.6L374.0,551.9L374.2,550.9L378.9,552.4L378.2,555.9L381.5,555.6L389.0,558.4L394.1,556.9L395.7,557.7L400.9,562.9L408.1,563.3L410.0,561.7L411.9,561.7L411.8,560.5L414.8,560.7L419.5,558.9L418.5,555.2L420.3,553.3L425.5,549.5L426.1,547.4L428.5,544.2L438.0,540.3L438.6,539.2L441.4,538.0L445.7,534.9L443.9,532.2L448.6,528.8L451.0,529.2L452.7,531.6L456.7,532.6L456.3,531.7L462.6,533.0L467.0,531.9L466.6,530.8L470.6,529.4L470.2,528.0L472.5,528.3L474.1,527.5L482.0,529.4L482.4,530.1L480.4,534.9L483.6,534.7L486.0,536.3L489.7,541.9L487.1,544.1L488.0,545.1L492.2,544.5L496.6,548.1L497.2,549.7L501.2,549.5L506.0,552.4L507.8,551.0L508.1,545.9L511.6,546.8L512.9,549.1L515.2,549.4L519.7,553.1L521.2,554.4L523.5,552.3L523.6,549.7L527.0,552.4L529.4,549.4L529.6,547.7L527.4,543.2L528.6,540.8L526.9,536.1L529.2,535.5L532.6,539.4L534.0,530.6L534.1,530.5L534.1,530.5L531.1,523.8L529.1,520.3L529.1,515.3L526.4,510.2L522.4,497.4L518.3,494.0L517.9,491.6L515.0,488.7L513.0,487.7L513.2,484.4L517.1,483.6L510.1,478.2L505.1,472.1L505.0,469.8L498.9,463.8L497.6,461.3L489.7,458.1L487.6,457.4L487.6,457.6L487.0,459.4L481.3,458.4L481.6,463.6L481.1,467.9L479.3,469.1L473.2,470.1L475.7,476.2L469.8,474.8L465.6,471.5L463.7,472.0L466.3,479.1L465.4,479.6L461.6,475.7L458.2,475.7L449.7,473.8L447.2,466.1L443.9,464.0L441.2,464.0L434.7,458.4L428.6,454.6L427.4,455.6L422.0,457.9L421.1,458.9L414.8,457.2L411.8,456.8L407.0,456.9L402.2,454.7L399.6,454.5L398.9,453.2L396.1,453.3L393.6,452.6L384.3,453.0L383.2,451.4L379.1,450.7L371.5,446.5L365.0,440.9L365.4,440.4L361.4,439.9L357.4,442.1L355.5,444.2L352.7,443.9L347.3,440.9L346.6,441.1L342.4,437.8L342.1,436.3L334.7,430.6L334.4,429.6L330.9,427.2L328.1,423.9L329.8,421.0L329.8,417.0L326.4,410.5L326.3,406.4L325.6,405.0L321.2,404.3L320.1,401.3L316.9,397.9L316.8,395.1L318.2,394.6L319.3,386.5L319.0,384.4L314.3,383.8L312.3,382.4L312.4,379.3L313.7,378.9L315.2,378.6L305.6,374.6Z " data-id="CN.XZ" data-name="Xizang" id="CN.XZ"/>
utf-8utf-8<path d="M129.1,417.7L133.1,415.4L137.2,414.9L144.0,415.6L145.5,409.2L142.9,405.3L143.0,404.3L145.2,403.2L144.4,400.2L145.9,398.0L146.3,391.1L152.1,394.2L161.7,396.0L161.9,394.2L169.5,396.0L171.4,397.3L178.1,396.4L179.7,393.5L185.4,387.5L189.6,388.3L193.3,387.5L195.5,389.5L197.6,392.7L198.9,393.7L201.6,393.5L208.7,394.9L213.3,394.5L216.4,393.7L219.6,394.2L228.6,389.5L230.7,387.5L234.4,386.1L240.0,386.1L242.6,388.2L244.8,385.9L249.7,385.3L251.5,379.7L251.5,377.9L254.5,376.7L255.5,375.5L259.0,375.5L264.8,374.3L271.4,372.2L274.9,373.0L282.1,370.8L289.2,370.3L295.5,372.2L305.6,374.6L315.2,378.6L318.8,379.0L320.3,377.5L320.1,374.8L323.0,377.1L336.8,380.3L341.7,378.4L341.5,377.3L336.5,369.2L332.4,367.9L329.3,364.8L328.8,362.0L330.2,359.7L333.0,359.6L338.2,357.4L338.2,356.4L333.6,351.2L330.5,347.0L328.2,346.3L315.8,338.9L315.2,335.6L308.2,328.2L306.6,325.8L309.4,325.0L313.8,320.4L320.2,319.8L325.6,318.5L327.9,317.2L334.5,315.9L344.1,311.5L351.1,309.7L351.3,309.7L351.2,309.5L349.1,303.1L342.9,295.2L342.2,293.1L343.1,289.3L340.3,280.7L346.5,280.8L350.7,278.2L351.9,273.0L353.9,267.0L359.7,256.6L366.3,252.2L373.4,250.8L378.7,251.3L381.0,249.4L381.8,247.8L380.1,244.7L377.1,237.0L377.2,235.1L380.7,232.2L380.6,232.2L377.4,227.7L367.8,221.7L364.6,217.6L360.0,212.8L354.0,205.8L349.8,204.8L348.3,201.8L348.4,199.0L342.3,199.5L334.3,196.6L325.7,192.3L323.6,191.0L318.7,190.6L309.0,184.6L298.3,183.4L296.5,182.7L289.8,183.6L285.0,183.2L281.8,182.0L275.3,182.3L266.1,180.3L264.1,179.0L260.3,179.6L257.4,176.3L253.5,173.0L252.0,167.9L254.5,161.6L252.2,158.4L250.3,154.6L250.0,149.8L248.9,149.2L247.6,146.1L232.7,133.8L232.6,132.6L230.4,129.8L219.7,121.4L218.1,122.5L212.9,121.0L209.6,118.2L206.6,118.0L201.5,119.0L198.5,116.7L192.6,115.0L188.2,110.4L186.0,110.0L182.6,108.2L176.5,105.9L177.4,103.5L173.0,102.0L170.3,100.1L171.3,97.2L169.4,94.6L167.0,93.8L163.2,95.6L157.1,94.5L152.1,96.8L152.5,99.1L154.4,100.7L154.9,103.1L151.8,108.3L150.1,108.2L145.1,109.6L141.5,110.0L140.6,115.8L141.5,120.6L145.7,127.0L147.3,130.5L149.6,132.6L150.6,136.2L149.2,136.6L149.3,138.7L144.3,140.0L141.4,143.5L138.0,144.3L137.7,142.2L135.6,140.8L128.6,140.5L125.9,141.2L122.6,141.0L115.1,139.0L106.9,135.8L105.6,135.8L106.8,151.4L107.6,164.8L107.0,167.8L107.3,172.1L108.3,173.0L113.8,174.2L115.5,178.2L114.2,181.1L111.1,179.2L108.3,178.8L104.7,180.5L101.6,179.4L100.7,177.8L97.4,176.4L96.3,177.3L85.7,180.8L82.8,180.5L78.5,181.6L78.5,182.3L73.4,182.9L70.4,185.4L70.8,186.8L74.3,188.0L77.2,187.5L82.8,189.4L82.0,194.4L85.8,203.0L86.5,203.5L97.2,216.5L97.1,219.3L97.6,223.7L94.6,226.3L99.0,228.9L94.2,230.2L94.1,230.7L96.3,238.1L99.1,243.3L98.6,243.6L100.4,246.3L93.5,247.6L92.8,250.3L90.4,250.5L86.8,252.6L84.4,253.2L75.9,258.7L74.0,259.4L72.5,263.4L70.6,266.9L69.3,268.4L64.2,268.0L59.5,269.6L50.2,268.3L48.4,268.7L47.2,272.5L46.0,273.7L46.3,278.0L44.7,281.9L42.5,283.2L40.9,281.4L39.7,283.0L37.8,282.5L35.0,284.5L31.8,284.6L30.5,283.0L28.5,278.6L26.6,277.2L22.0,281.4L17.8,281.0L15.5,279.8L15.1,282.1L11.0,287.2L9.0,289.0L5.9,288.7L3.2,289.7L2.3,294.2L3.2,297.0L3.9,302.7L0.6,303.2L1.4,307.2L7.2,314.6L5.2,316.0L9.5,322.3L13.7,323.7L16.1,320.9L21.3,321.8L28.6,325.0L29.3,326.6L28.7,328.2L30.4,333.7L32.8,335.6L33.7,339.3L35.5,340.7L35.2,342.3L36.5,345.6L38.4,346.6L40.3,350.7L35.6,353.0L34.4,351.5L30.3,352.8L30.8,356.1L31.9,357.3L34.4,356.7L37.0,357.6L39.1,360.1L40.5,358.3L42.7,358.1L48.4,360.4L50.4,364.2L52.7,363.2L59.1,366.5L62.5,372.8L63.5,379.8L67.5,381.8L71.9,384.8L76.2,383.5L76.5,385.3L84.7,389.9L87.0,389.9L88.1,390.9L90.8,391.0L94.1,392.4L98.8,392.7L105.6,391.9L106.1,396.9L115.3,411.3L117.1,412.3L121.5,413.1L129.0,417.4L129.1,417.7Z " data-id="CN.XJ" data-name="Xinjiang" id="CN.XJ"/>
utf-8utf-8<path d="M779.5,774.8L782.2,769.8L787.9,770.1L787.6,767.6L791.3,763.8L793.6,763.0L796.0,761.2L793.8,760.4L795.1,758.8L795.4,754.2L793.5,752.9L795.6,752.6L797.9,747.0L798.2,743.0L800.4,743.6L801.2,742.4L800.6,737.4L799.3,734.5L796.4,734.2L794.7,732.7L792.2,733.7L786.6,733.7L784.1,732.9L783.6,735.2L779.2,734.7L778.4,735.9L776.1,735.3L776.1,734.3L772.5,735.5L773.8,737.4L770.2,737.3L768.3,736.1L766.1,739.0L766.3,740.1L762.5,745.3L758.4,748.1L757.7,751.7L758.5,751.9L758.0,754.2L759.3,757.7L759.1,759.4L761.9,767.5L766.9,769.7L769.7,770.4L771.0,772.0L776.7,772.2L777.7,774.3L779.2,773.3L779.5,774.8Z " data-id="CN.HA" data-name="Hainan" id="CN.HA"/>
utf-8utf-8<path d="M628.6,338.6L624.0,337.2L621.3,334.0L617.3,332.3L616.0,332.9L611.5,332.1L603.7,329.0L605.4,325.2L604.8,321.2L606.4,313.1L600.9,307.8L599.2,304.8L591.5,308.0L592.4,309.4L589.6,310.5L589.3,319.0L589.8,322.7L591.7,328.1L592.2,332.4L595.7,339.9L594.3,340.8L590.4,341.5L589.3,341.1L584.1,343.1L583.0,345.5L577.5,346.6L575.0,346.0L573.5,346.7L573.2,348.9L574.1,348.9L579.5,349.8L580.3,350.3L580.1,353.0L582.2,352.4L587.1,356.5L589.7,357.4L596.0,362.9L594.6,364.1L596.9,368.1L601.7,373.2L602.9,375.4L602.5,381.1L605.0,384.3L611.8,386.8L612.4,388.8L616.2,392.0L617.3,391.2L620.2,392.0L617.7,392.8L622.9,393.7L626.5,396.8L628.8,395.2L627.6,390.5L625.2,387.2L627.3,386.5L632.0,386.6L633.3,385.2L632.3,380.9L629.0,376.5L620.9,373.3L621.1,372.3L618.5,369.1L619.4,368.3L618.2,364.6L619.8,361.7L617.9,359.9L617.3,353.3L624.3,355.5L628.6,355.9L629.4,356.4L629.4,354.7L627.7,352.1L625.4,344.7L627.3,342.3L627.1,340.8L629.7,339.7L629.2,338.8L628.6,338.6Z " data-id="CN.NX" data-name="Ningxia" id="CN.NX"/>
utf-8utf-8<path d="M677.3,304.7L676.1,300.6L672.4,301.9L670.9,305.6L670.9,307.1L662.5,305.2L661.2,303.9L660.8,307.4L655.1,312.9L655.4,315.2L652.6,318.6L652.0,321.9L650.7,322.7L649.2,326.0L649.9,331.4L652.1,337.2L649.2,337.6L650.4,340.4L650.5,342.9L646.1,342.9L638.1,343.7L635.2,340.6L629.7,339.0L629.2,338.8L629.7,339.7L627.1,340.8L627.3,342.3L625.4,344.7L627.7,352.1L629.4,354.7L629.4,356.4L629.4,357.0L630.6,359.9L634.6,360.4L635.8,361.4L638.9,361.9L643.0,363.5L647.6,367.2L650.0,367.2L659.0,370.8L661.4,372.4L663.9,380.4L661.7,382.9L667.6,393.5L667.1,396.4L662.1,396.9L661.6,396.5L657.2,397.9L652.4,395.8L651.9,397.7L654.7,401.2L656.5,402.5L653.1,403.9L644.5,404.0L636.3,400.8L631.7,402.3L634.0,408.7L632.1,412.2L633.5,413.6L638.5,415.0L641.2,418.7L639.5,422.5L639.9,428.0L640.7,428.3L641.4,431.3L643.9,433.6L643.3,435.3L640.6,433.7L637.2,434.9L633.7,433.8L631.4,436.4L631.3,440.9L635.1,443.4L636.2,448.0L632.3,449.9L629.6,449.4L630.4,450.6L633.5,453.8L637.0,450.8L639.9,450.2L642.9,455.1L646.7,456.1L647.6,455.3L654.1,453.1L660.1,453.8L661.8,458.1L665.1,459.6L668.5,457.8L669.6,460.4L673.5,460.8L681.2,466.1L683.7,464.1L688.9,463.6L690.6,464.8L690.8,465.1L692.3,465.7L705.9,472.9L707.8,475.0L709.6,475.9L713.8,475.3L714.2,475.2L713.9,475.0L713.1,471.0L713.3,468.1L711.0,464.8L709.4,464.0L708.4,457.4L711.0,456.2L715.1,456.9L718.3,455.5L716.2,451.8L713.1,449.8L709.7,449.7L707.3,445.6L701.1,444.1L701.0,443.2L703.8,441.6L710.0,442.6L712.5,442.6L714.9,443.8L719.5,443.3L725.6,445.1L726.0,443.1L728.1,441.6L728.4,441.5L728.4,439.7L725.7,434.1L721.8,432.0L716.7,428.0L716.8,426.0L714.9,421.8L711.7,420.3L706.8,413.9L705.9,411.6L705.9,411.5L705.9,411.5L701.8,404.2L702.3,393.9L703.0,390.5L699.7,383.9L697.9,382.0L694.7,375.8L694.7,375.0L691.9,367.1L689.4,365.0L688.4,363.0L687.4,358.7L686.1,357.6L688.8,352.3L688.6,345.8L686.5,341.2L680.1,336.4L677.9,330.9L678.6,330.6L680.7,325.6L681.7,325.0L680.7,321.9L680.5,317.2L678.9,313.7L677.6,304.8L677.3,304.6L677.3,304.7Z " data-id="CN.SA" data-name="Shaanxi" id="CN.SA"/>
utf-8utf-8<path d="M752.6,371.8L748.9,369.8L747.4,367.2L745.7,366.0L747.9,362.3L747.8,342.3L746.0,341.1L737.9,332.1L730.3,325.1L729.8,321.7L732.0,317.1L729.6,313.8L738.6,309.6L737.6,301.1L734.0,298.5L733.1,296.5L730.5,294.1L725.0,292.7L721.9,290.7L722.8,287.0L728.9,283.7L724.9,283.1L722.0,279.0L718.4,275.5L718.1,274.8L717.2,275.6L716.9,276.8L719.2,280.1L715.2,281.5L712.9,281.6L710.9,283.5L706.6,283.4L705.7,282.4L700.8,283.2L699.7,286.7L698.2,287.2L692.4,284.8L690.9,285.3L688.6,295.6L689.0,297.9L685.4,299.2L681.5,298.7L681.1,302.3L680.1,303.7L677.5,304.0L677.3,304.6L677.6,304.8L678.9,313.7L680.5,317.2L680.7,321.9L681.7,325.0L680.7,325.6L678.6,330.6L677.9,330.9L680.1,336.4L686.5,341.2L688.6,345.8L688.8,352.3L686.1,357.6L687.4,358.7L688.4,363.0L689.4,365.0L691.9,367.1L694.7,375.0L694.7,375.8L697.9,382.0L699.7,383.9L703.0,390.5L702.3,393.9L701.8,404.2L705.9,411.5L705.9,411.5L706.4,411.5L711.7,411.8L715.5,410.4L718.9,408.1L719.3,406.9L723.7,406.9L726.5,405.4L729.8,401.0L733.6,400.5L732.4,397.7L740.5,398.0L744.0,396.5L748.7,397.0L748.9,396.1L756.0,391.6L757.5,388.7L756.6,387.5L755.1,381.5L755.3,379.5L753.2,372.5L753.2,372.5L752.6,371.8Z " data-id="CN.SX" data-name="Shanxi" id="CN.SX"/>
utf-8utf-8<path d="M824.1,482.4L818.4,478.3L816.8,480.9L814.4,480.6L807.7,478.8L807.0,475.7L805.3,474.7L802.8,475.1L798.0,472.9L795.7,475.0L793.1,472.8L786.1,460.2L781.6,463.0L776.3,460.3L768.4,461.7L765.6,461.2L762.4,461.5L756.8,460.7L748.9,457.8L748.0,456.7L745.1,455.7L744.4,456.4L738.5,450.8L735.6,449.1L732.0,444.4L729.1,442.5L728.4,441.5L728.1,441.6L726.0,443.1L725.6,445.1L719.5,443.3L714.9,443.8L712.5,442.6L710.0,442.6L703.8,441.6L701.0,443.2L701.1,444.1L707.3,445.6L709.7,449.7L713.1,449.8L716.2,451.8L718.3,455.5L715.1,456.9L711.0,456.2L708.4,457.4L709.4,464.0L711.0,464.8L713.3,468.1L713.1,471.0L713.9,475.0L714.2,475.2L715.1,475.4L716.7,476.6L718.0,479.1L725.7,482.3L728.8,487.6L728.5,489.7L730.0,494.0L729.1,495.3L725.3,493.9L717.8,500.7L713.7,501.0L712.6,500.3L707.8,501.4L704.5,501.0L701.1,502.7L701.5,505.4L704.3,506.8L706.5,513.2L705.4,516.7L706.5,519.4L708.6,516.5L711.2,520.1L715.3,521.7L716.2,525.4L721.4,530.7L724.5,533.2L725.0,532.9L725.3,528.2L726.6,522.9L728.8,521.8L731.3,519.3L740.8,520.2L742.7,521.1L745.3,519.5L746.0,518.0L742.3,513.1L746.6,512.9L746.9,511.3L756.8,512.7L762.1,514.8L765.9,515.6L767.1,515.1L770.7,516.6L777.0,521.1L777.2,520.7L780.8,522.8L781.9,521.3L786.1,521.5L789.2,518.0L792.0,519.0L790.7,521.5L792.1,524.9L795.0,525.6L796.5,523.7L799.3,518.6L801.9,516.5L805.5,523.5L807.1,525.4L805.9,530.1L806.6,530.3L809.3,533.9L809.8,532.9L812.1,533.7L813.0,534.0L814.1,531.8L818.3,530.0L817.9,529.2L824.8,527.2L827.4,527.4L828.4,523.9L829.4,524.5L831.2,521.1L836.9,520.4L837.4,516.4L841.5,516.5L845.9,519.3L849.7,518.1L850.3,518.1L849.9,517.4L845.5,508.7L842.0,506.2L841.1,504.8L841.9,503.2L836.6,496.8L839.8,491.7L836.0,488.7L831.7,486.8L829.6,487.6L824.6,483.4L824.3,482.2L824.1,482.4Z " data-id="CN.HU" data-name="Hubei" id="CN.HU"/>
utf-8utf-8<path d="M812.1,533.7L809.8,532.9L809.3,533.9L806.6,530.3L805.9,530.1L807.1,525.4L805.5,523.5L801.9,516.5L799.3,518.6L796.5,523.7L795.0,525.6L792.1,524.9L790.7,521.5L792.0,519.0L789.2,518.0L786.1,521.5L781.9,521.3L780.8,522.8L777.2,520.7L777.0,521.1L770.7,516.6L767.1,515.1L765.9,515.6L762.1,514.8L756.8,512.7L746.9,511.3L746.6,512.9L742.3,513.1L746.0,518.0L745.3,519.5L742.7,521.1L740.8,520.2L731.3,519.3L728.8,521.8L726.6,522.9L725.3,528.2L725.0,532.9L724.5,533.2L726.1,534.4L726.3,537.0L728.2,541.4L729.0,545.9L729.1,546.4L729.1,546.7L730.3,550.4L732.3,551.7L733.8,556.4L733.6,559.8L736.6,563.9L737.8,566.9L735.5,570.0L733.9,570.0L731.0,574.1L729.2,577.3L730.2,579.3L732.3,577.6L735.1,577.9L736.0,576.7L739.8,576.5L742.0,578.7L743.3,582.8L740.5,585.4L742.7,589.9L741.7,592.4L744.0,595.8L745.6,600.0L746.3,600.9L746.5,600.8L750.8,602.6L750.8,604.0L752.7,603.9L757.0,598.3L756.9,600.2L760.0,600.9L761.3,602.3L762.3,601.3L763.3,598.4L765.2,597.9L765.6,594.6L772.0,595.7L772.7,593.2L776.5,595.0L779.5,597.1L779.7,603.0L783.9,603.8L784.5,605.0L783.3,609.8L783.9,610.6L783.5,615.1L782.0,615.8L781.5,619.2L779.5,622.9L781.6,625.7L784.7,620.9L789.7,626.7L790.3,627.9L790.1,630.8L791.9,631.8L793.9,629.1L800.7,629.5L800.7,629.8L801.1,629.6L803.2,628.7L803.2,626.1L802.1,625.0L802.3,620.5L802.9,619.6L809.3,621.0L810.5,620.9L814.9,625.0L818.5,624.3L815.5,618.6L816.5,615.9L820.3,612.7L825.5,615.6L831.4,616.4L833.4,614.2L834.0,614.0L833.9,613.0L832.1,607.3L833.3,603.2L832.8,601.3L835.7,598.0L833.5,597.2L832.8,597.9L831.1,589.0L826.9,587.6L825.1,583.9L824.8,580.2L821.8,576.5L822.4,572.0L818.0,571.9L815.6,566.6L816.3,558.4L820.8,556.0L820.8,553.7L823.5,549.6L819.0,545.1L819.7,543.3L818.8,539.3L813.4,535.7L813.0,534.0L812.1,533.7Z " data-id="CN.HN" data-name="Hunan" id="CN.HN"/>
utf-8utf-8<path d="M629.4,449.1L629.4,452.4L625.2,456.0L622.9,455.3L621.3,455.9L614.3,454.5L610.0,451.6L608.7,451.3L608.7,447.3L604.6,440.7L605.7,440.6L600.8,436.5L599.1,433.2L594.5,432.2L591.5,432.4L587.7,431.8L585.1,430.3L583.6,430.6L578.1,425.7L577.8,424.1L571.4,418.6L566.6,421.5L567.6,423.4L565.1,423.6L560.8,426.1L561.0,427.0L564.6,430.7L565.5,433.1L569.1,435.4L560.4,444.7L559.0,441.9L559.5,437.8L556.1,435.0L556.1,435.6L556.3,436.9L556.5,444.5L552.8,442.4L547.8,444.0L547.6,446.3L550.0,449.8L551.0,453.8L546.2,455.5L541.6,454.3L541.9,459.5L539.2,459.0L540.3,457.0L536.0,452.7L533.5,453.6L533.3,455.4L530.9,451.1L527.5,448.5L523.2,449.3L523.6,452.7L516.0,450.1L512.0,447.0L505.7,444.3L504.0,443.0L497.4,433.9L497.2,433.3L492.5,428.8L487.2,426.6L482.9,426.5L479.3,428.3L477.2,425.1L476.2,426.7L472.3,428.3L474.4,433.8L477.0,436.3L481.7,438.3L479.3,443.1L482.1,454.5L486.5,457.1L487.6,457.4L489.7,458.1L497.6,461.3L498.9,463.8L505.0,469.8L505.1,472.1L510.1,478.2L517.1,483.6L513.2,484.4L513.0,487.7L515.0,488.7L517.9,491.6L518.3,494.0L522.4,497.4L526.4,510.2L529.1,515.3L529.1,520.3L531.1,523.8L534.1,530.5L534.1,530.5L534.7,533.4L537.0,541.6L541.1,550.1L543.4,552.4L545.2,551.9L543.0,545.8L545.0,544.8L545.1,542.5L546.1,539.6L547.9,539.5L548.4,541.1L551.7,544.5L553.9,545.6L556.7,549.1L558.1,549.8L557.2,553.6L558.3,556.1L564.0,561.5L564.9,563.5L566.7,560.9L568.5,561.6L569.6,559.9L576.2,567.2L576.8,569.2L579.2,571.4L580.9,575.7L583.8,575.4L589.1,583.3L589.6,584.7L592.3,586.2L591.7,589.5L593.4,590.3L596.8,597.2L600.1,598.2L600.4,599.4L602.7,600.6L606.6,600.0L613.9,593.5L616.3,596.4L622.2,593.7L619.7,583.4L617.8,581.3L617.0,576.7L615.9,574.0L616.9,571.1L619.2,570.6L621.8,565.2L623.9,562.9L624.8,557.9L622.0,554.6L625.2,551.7L626.2,552.8L628.8,550.4L626.2,545.4L626.4,542.8L627.1,543.6L635.3,543.6L637.9,544.0L636.7,545.1L636.3,550.4L638.4,551.3L640.7,555.6L639.0,557.0L640.2,558.4L645.1,561.0L651.0,559.1L652.3,555.6L656.9,557.4L658.2,562.9L658.9,563.7L659.2,563.7L662.0,562.3L666.1,564.5L667.6,563.7L672.7,562.9L673.4,562.3L676.5,562.5L675.5,556.9L668.0,554.2L662.1,550.0L660.7,546.9L666.0,540.9L668.3,542.8L674.7,545.3L674.6,544.9L673.5,543.9L670.8,539.6L668.7,537.3L664.7,536.1L660.7,536.3L656.9,529.5L652.8,528.5L650.9,525.9L649.2,525.1L648.0,522.9L649.2,520.2L650.2,520.1L651.9,517.3L653.1,516.6L651.0,511.0L649.5,510.2L650.8,508.5L650.0,507.5L651.6,506.4L652.8,503.8L659.8,506.5L662.0,508.6L665.1,506.3L668.6,507.5L671.8,512.1L677.5,512.2L680.2,508.2L681.8,501.8L681.4,497.8L681.6,495.3L685.3,493.9L687.0,495.7L689.1,494.2L688.8,491.8L689.3,488.1L694.2,475.2L691.5,472.7L687.9,470.7L688.5,465.3L690.8,465.1L690.6,464.8L688.9,463.6L683.7,464.1L681.2,466.1L673.5,460.8L669.6,460.4L668.5,457.8L665.1,459.6L661.8,458.1L660.1,453.8L654.1,453.1L647.6,455.3L646.7,456.1L642.9,455.1L639.9,450.2L637.0,450.8L633.5,453.8L630.4,450.6L629.6,449.4L629.4,449.1Z " data-id="CN.SC" data-name="Sichuan" id="CN.SC"/>
utf-8utf-8<path d="M658.2,562.9L656.9,557.4L652.3,555.6L651.0,559.1L645.1,561.0L640.2,558.4L639.0,557.0L640.7,555.6L638.4,551.3L636.3,550.4L636.7,545.1L637.9,544.0L635.3,543.6L627.1,543.6L626.4,542.8L626.2,545.4L628.8,550.4L626.2,552.8L625.2,551.7L622.0,554.6L624.8,557.9L623.9,562.9L621.8,565.2L619.2,570.6L616.9,571.1L615.9,574.0L617.0,576.7L617.8,581.3L619.7,583.4L622.2,593.7L616.3,596.4L613.9,593.5L606.6,600.0L602.7,600.6L600.4,599.4L600.1,598.2L596.8,597.2L593.4,590.3L591.7,589.5L592.3,586.2L589.6,584.7L589.1,583.3L583.8,575.4L580.9,575.7L579.2,571.4L576.8,569.2L576.2,567.2L569.6,559.9L568.5,561.6L566.7,560.9L564.9,563.5L564.0,561.5L558.3,556.1L557.2,553.6L558.1,549.8L556.7,549.1L553.9,545.6L551.7,544.5L548.4,541.1L547.9,539.5L546.1,539.6L545.1,542.5L545.0,544.8L543.0,545.8L545.2,551.9L543.4,552.4L541.1,550.1L537.0,541.6L534.7,533.4L534.1,530.5L534.0,530.6L532.6,539.4L529.2,535.5L526.9,536.1L528.6,540.8L527.4,543.2L529.6,547.7L529.4,549.4L527.0,552.4L523.6,549.7L523.5,552.3L521.2,554.4L521.3,554.4L522.0,557.2L525.0,563.6L527.2,567.1L529.3,567.4L529.1,564.5L533.3,566.6L533.7,566.2L536.6,572.9L536.6,575.8L539.1,581.7L540.4,586.7L541.0,594.0L540.4,594.9L541.8,598.8L539.5,598.9L540.5,602.2L542.9,605.3L540.4,605.5L539.0,606.7L536.9,611.7L533.9,610.3L533.2,617.0L531.1,619.3L529.2,618.1L527.7,622.5L528.4,625.5L529.9,627.6L525.9,630.0L526.8,636.5L529.7,639.3L531.2,639.9L531.6,643.3L528.6,647.3L531.1,649.4L534.6,646.6L539.2,643.8L543.5,643.8L544.7,643.2L548.5,644.3L550.8,643.3L553.6,644.2L551.3,646.3L551.0,650.5L553.3,651.1L555.3,654.5L554.2,656.3L556.4,658.3L557.6,661.5L557.0,664.2L560.3,664.6L561.0,665.7L565.6,666.0L566.3,665.3L569.6,666.9L570.7,669.2L568.8,670.9L567.1,673.8L569.0,679.3L566.6,687.3L569.8,688.1L581.7,689.2L583.0,696.4L586.4,697.4L586.1,699.8L588.0,702.7L591.5,700.6L593.3,702.1L595.3,702.3L598.9,699.7L599.5,698.5L604.5,695.4L607.4,701.1L607.3,702.9L608.7,704.3L608.6,706.9L609.8,708.3L615.0,707.0L619.5,709.1L620.3,707.7L618.0,704.8L617.6,699.7L618.7,699.3L616.9,695.7L617.1,694.5L615.3,691.9L613.8,690.9L612.2,686.3L613.5,679.6L617.6,680.7L619.9,680.4L623.9,681.1L626.9,673.3L628.9,674.8L629.8,674.4L634.5,676.8L636.5,679.4L639.6,680.5L639.4,679.5L642.3,675.7L643.3,672.8L647.8,677.4L648.8,673.2L650.0,672.7L656.8,679.0L657.1,674.9L658.2,672.7L661.0,672.0L661.0,673.4L663.4,675.1L666.9,671.7L669.5,672.3L671.7,669.1L670.6,666.2L671.7,664.5L677.6,662.5L678.1,661.1L679.9,661.1L684.0,664.4L684.1,664.5L690.2,657.0L692.1,657.7L694.2,656.2L694.1,648.9L692.9,646.4L689.7,644.4L689.7,643.5L683.3,644.7L681.6,642.9L678.9,645.1L676.5,643.4L673.8,643.1L672.7,638.8L670.6,636.5L666.8,636.1L663.3,636.6L664.0,638.7L661.6,637.1L659.0,633.2L659.0,629.6L659.0,629.6L659.0,629.6L659.9,625.8L661.0,623.5L660.3,622.0L661.5,618.4L659.5,617.7L652.5,610.9L650.3,608.2L651.7,605.0L652.4,601.1L652.3,595.4L653.8,593.1L650.7,588.8L642.5,587.4L640.5,590.3L639.0,590.3L635.6,588.2L633.2,579.3L631.2,579.3L631.1,576.9L640.3,573.7L643.0,570.0L643.7,571.0L649.8,572.4L653.0,572.8L657.3,570.6L658.5,571.0L658.9,564.1L658.9,563.7L658.2,562.9Z " data-id="CN.YN" data-name="Yunnan" id="CN.YN"/>
utf-8utf-8<path d="M817.0,312.1L814.1,313.0L815.8,314.9L817.0,312.1Z M780.5,289.0L777.6,289.6L772.8,291.0L774.9,293.6L778.1,297.7L778.2,297.9L778.5,297.9L783.7,299.5L784.2,299.1L782.7,294.9L783.4,294.6L780.5,292.4L780.5,289.9L780.5,289.0Z M718.1,274.8L718.4,275.5L722.0,279.0L724.9,283.1L728.9,283.7L722.8,287.0L721.9,290.7L725.0,292.7L730.5,294.1L733.1,296.5L734.0,298.5L737.6,301.1L738.6,309.6L729.6,313.8L732.0,317.1L729.8,321.7L730.3,325.1L737.9,332.1L746.0,341.1L747.8,342.3L747.9,362.3L745.7,366.0L747.4,367.2L748.9,369.8L752.6,371.8L753.2,372.5L753.3,372.5L758.4,372.5L760.4,374.4L767.3,375.7L770.3,377.4L776.0,377.3L778.8,379.1L779.5,377.3L781.9,376.4L785.5,378.6L786.0,377.7L786.8,376.9L786.1,375.4L783.6,373.7L780.5,369.7L781.6,364.7L784.1,362.6L786.0,352.2L785.6,350.6L789.8,348.9L788.8,348.0L789.1,344.5L792.2,347.1L793.8,344.2L795.6,339.1L804.9,338.8L806.5,339.0L807.5,334.4L809.7,333.3L810.1,329.4L809.3,328.9L806.9,327.0L801.8,321.8L801.3,321.6L791.0,319.6L788.2,319.6L783.2,315.9L782.3,312.9L784.6,310.8L782.5,308.7L781.6,306.2L777.9,300.4L777.6,299.8L775.5,299.8L772.0,301.4L773.2,303.1L765.7,300.6L762.6,300.4L760.0,301.8L756.2,299.8L751.5,296.3L753.5,295.5L749.0,291.2L749.8,289.7L755.3,285.1L748.5,279.2L751.1,277.6L753.5,277.8L754.8,274.6L759.3,274.2L755.6,270.7L759.0,269.4L766.2,273.9L770.9,276.2L772.6,275.9L778.1,277.1L774.9,279.3L780.2,285.2L780.8,285.4L782.8,286.0L788.0,289.2L789.6,289.5L791.6,291.6L788.6,291.8L786.3,291.2L787.8,294.2L793.0,300.4L798.4,301.0L799.7,304.3L801.4,304.9L803.6,308.3L803.9,308.2L806.4,309.3L808.6,311.4L811.6,312.4L813.6,310.0L817.3,309.9L819.1,308.5L821.2,310.0L823.4,305.2L824.8,304.6L822.3,297.3L824.0,293.4L828.6,291.3L828.6,291.3L824.0,286.4L820.3,283.9L817.3,279.2L811.3,278.8L809.4,277.0L801.5,273.1L802.5,270.0L800.7,268.7L803.2,264.2L803.1,263.3L803.0,263.0L793.2,261.7L787.7,262.1L784.2,259.3L783.1,256.7L781.5,256.3L780.6,252.3L775.9,246.9L774.6,247.0L769.8,242.6L768.8,239.7L762.5,235.5L759.1,235.9L757.2,234.4L756.8,237.9L750.6,237.8L748.2,239.5L748.1,240.4L752.3,246.4L749.8,249.0L745.5,248.5L743.7,247.5L740.8,251.7L740.1,252.0L736.5,249.1L728.3,253.9L729.7,255.9L728.0,256.6L726.1,256.0L721.7,256.1L719.3,252.1L719.9,251.1L714.9,244.5L709.5,245.2L709.6,247.7L707.8,250.3L707.9,252.7L709.6,256.4L707.2,257.7L707.3,262.0L709.4,267.2L708.4,267.3L717.3,274.1L718.1,274.8Z " data-id="CN.HB" data-name="Hebei" id="CN.HB"/>
utf-8utf-8<path d="M786.0,377.7L785.5,378.6L781.9,376.4L779.5,377.3L778.8,379.1L776.0,377.3L770.3,377.4L767.3,375.7L760.4,374.4L758.4,372.5L753.3,372.5L753.2,372.5L753.2,372.5L755.3,379.5L755.1,381.5L756.6,387.5L757.5,388.7L756.0,391.6L748.9,396.1L748.7,397.0L744.0,396.5L740.5,398.0L732.4,397.7L733.6,400.5L729.8,401.0L726.5,405.4L723.7,406.9L719.3,406.9L718.9,408.1L715.5,410.4L711.7,411.8L706.4,411.5L705.9,411.5L705.9,411.6L706.8,413.9L711.7,420.3L714.9,421.8L716.8,426.0L716.7,428.0L721.8,432.0L725.7,434.1L728.4,439.7L728.4,441.5L729.1,442.5L732.0,444.4L735.6,449.1L738.5,450.8L744.4,456.4L745.1,455.7L748.0,456.7L748.9,457.8L756.8,460.7L762.4,461.5L765.6,461.2L768.4,461.7L776.3,460.3L781.6,463.0L786.1,460.2L793.1,472.8L795.7,475.0L798.0,472.9L802.8,475.1L805.3,474.7L807.0,475.7L807.7,478.8L814.4,480.6L816.8,480.9L818.4,478.3L824.1,482.4L824.3,482.2L824.2,481.1L824.4,476.7L826.9,474.2L831.2,473.7L830.0,468.9L825.7,460.0L825.3,458.4L823.1,458.4L820.3,460.5L815.4,457.1L814.0,456.9L808.4,449.7L806.6,449.3L802.6,446.1L803.6,444.6L805.0,445.4L808.7,440.0L808.0,439.1L809.8,434.9L812.0,434.6L810.0,428.8L808.4,428.0L808.7,424.1L814.4,425.1L815.7,427.3L819.9,431.1L825.0,429.0L827.7,426.2L824.3,422.1L823.2,418.8L820.3,419.1L814.0,413.3L813.5,412.6L813.0,412.5L802.1,412.4L798.8,409.1L798.5,408.1L792.2,404.2L788.4,402.8L785.4,402.6L784.3,398.9L786.5,394.4L789.7,393.2L790.8,390.1L790.5,388.8L797.1,383.2L796.9,381.2L799.1,381.0L798.6,378.2L797.1,379.7L790.3,382.5L788.3,385.4L786.5,381.9L787.4,381.1L786.9,377.2L786.8,376.9L786.0,377.7Z " data-id="CN.HE" data-name="Henan" id="CN.HE"/>
utf-8utf-8<path d="M876.5,316.0L876.0,315.8L876.2,316.1L876.5,316.0Z M884.7,307.9L884.4,308.1L884.6,308.3L884.7,307.9Z M887.5,307.3L883.9,306.5L884.7,307.1L887.5,307.3Z M861.1,302.4L860.4,304.4L863.0,302.9L861.1,302.4Z M840.1,280.6L840.2,279.8L839.9,279.8L840.1,280.6Z M857.3,218.7L857.5,218.9L859.3,224.5L854.6,225.9L853.9,230.0L848.6,232.0L842.0,229.5L840.2,229.7L843.3,233.2L841.5,234.0L837.9,232.9L834.6,233.5L835.2,236.1L833.5,237.9L831.8,237.9L828.7,236.5L826.8,236.8L823.6,242.1L821.0,241.3L815.6,244.5L816.2,246.9L814.6,249.6L813.5,254.1L811.9,253.4L810.7,250.9L808.2,248.4L803.2,244.8L803.1,243.4L798.5,241.9L795.0,239.2L794.8,240.9L793.1,241.5L796.8,247.1L796.6,248.1L799.0,253.3L803.8,259.3L804.2,261.1L803.1,263.3L803.2,264.2L800.7,268.7L802.5,270.0L801.5,273.1L809.4,277.0L811.3,278.8L817.3,279.2L820.3,283.9L824.0,286.4L828.6,291.3L828.9,291.1L829.6,289.8L836.8,286.8L836.5,283.9L837.4,282.6L837.5,279.6L838.8,277.5L841.4,275.3L839.7,274.8L841.3,273.5L841.2,272.0L844.7,270.8L847.0,271.6L852.8,272.5L853.2,270.3L855.0,272.9L861.6,276.2L864.6,278.4L866.0,281.7L865.8,286.4L863.9,292.8L860.3,294.1L861.9,298.7L859.4,299.8L864.7,304.5L868.9,304.9L872.7,304.3L869.8,306.0L868.6,308.9L869.6,309.2L870.6,311.6L866.2,312.1L864.2,314.4L863.5,316.3L866.4,319.2L866.2,318.1L868.7,317.2L870.7,317.4L873.8,315.5L871.2,314.5L873.0,312.4L874.9,313.7L874.5,312.3L876.5,312.9L878.1,311.8L877.9,308.7L879.7,305.3L886.6,299.4L889.3,298.2L893.2,297.5L891.5,295.2L895.3,296.6L897.8,296.1L898.0,293.7L901.5,294.6L905.8,294.9L908.1,293.7L909.4,291.0L908.8,288.6L910.1,286.3L912.3,284.2L913.6,280.8L916.5,280.7L921.2,277.2L920.9,276.5L924.2,274.4L923.5,272.5L923.7,272.3L921.1,270.6L921.4,266.0L910.1,255.9L906.3,253.1L904.3,250.9L903.1,248.6L904.0,244.4L901.2,244.1L896.1,240.3L896.2,239.7L888.2,233.5L888.2,232.7L881.1,223.8L878.8,225.0L877.3,229.4L875.4,228.7L873.5,225.7L873.5,224.5L869.0,221.3L866.5,220.6L856.8,216.2L857.1,218.5L857.3,218.7Z " data-id="CN.LN" data-name="Liaoning" id="CN.LN"/>
utf-8utf-8<path d="M896.8,346.5L896.5,346.7L896.6,346.7L896.8,346.5Z M863.9,336.6L863.5,335.9L863.6,336.5L863.9,336.6Z M865.6,336.2L864.7,335.7L865.3,336.3L865.6,336.2Z M810.1,329.4L809.7,333.3L807.5,334.4L806.5,339.0L804.9,338.8L795.6,339.1L793.8,344.2L792.2,347.1L789.1,344.5L788.8,348.0L789.8,348.9L785.6,350.6L786.0,352.2L784.1,362.6L781.6,364.7L780.5,369.7L783.6,373.7L786.1,375.4L786.8,376.9L786.9,377.2L787.4,381.1L786.5,381.9L788.3,385.4L790.3,382.5L797.1,379.7L798.6,378.2L799.1,381.0L796.9,381.2L797.1,383.2L790.5,388.8L790.8,390.1L789.7,393.2L786.5,394.4L784.3,398.9L785.4,402.6L788.4,402.8L792.2,404.2L798.5,408.1L798.8,409.1L802.1,412.4L813.0,412.5L813.5,412.6L814.0,412.2L814.1,412.2L814.9,412.6L816.6,411.5L817.0,411.0L817.0,410.7L816.1,406.6L817.2,404.9L822.5,403.9L825.8,406.0L831.9,413.0L832.3,414.1L835.3,412.2L837.9,414.2L840.8,414.7L843.6,413.6L843.1,410.4L847.7,410.7L850.6,413.2L851.9,416.1L855.4,415.8L856.1,409.5L859.4,409.8L859.8,401.9L863.1,401.8L864.7,400.5L866.6,401.2L867.2,401.0L867.1,395.9L868.9,394.4L868.8,390.1L871.7,388.2L872.5,389.3L872.8,387.0L874.0,385.9L873.7,383.6L875.1,381.9L871.7,377.2L872.1,375.8L874.2,375.2L877.5,379.6L881.8,377.9L881.5,374.8L880.2,373.0L883.8,372.0L883.4,368.5L881.3,366.9L880.1,368.3L879.7,366.6L881.1,365.9L884.1,367.2L886.3,365.4L890.9,363.0L893.9,363.8L893.4,362.1L895.5,360.5L900.7,359.1L903.0,360.3L903.6,361.5L906.0,362.0L907.7,360.9L906.7,360.1L908.6,359.2L906.6,357.3L905.6,357.5L905.9,354.8L906.8,354.4L906.6,349.3L903.3,348.7L897.6,348.6L896.1,346.4L894.4,345.7L889.0,347.6L878.0,345.0L876.1,342.5L873.8,342.0L871.1,340.2L868.9,339.6L863.1,341.1L860.4,342.8L860.4,346.5L858.8,348.1L856.3,354.6L850.6,355.3L844.6,353.9L839.1,349.5L837.4,344.6L838.7,341.4L841.8,342.9L840.7,340.7L837.5,338.8L836.5,337.4L832.0,334.2L832.1,333.3L828.0,332.0L826.2,332.2L825.1,333.9L818.3,332.2L815.9,332.4L810.1,329.4L810.1,329.4Z M863.8,329.0L864.2,328.7L863.8,328.5L863.8,329.0Z " data-id="CN.SD" data-name="Shandong" id="CN.SD"/>
utf-8utf-8<path d="M802.1,314.7L800.9,314.6L802.9,315.3L802.1,314.7Z M804.1,314.3L800.9,313.7L801.2,313.9L804.1,314.3Z M780.8,285.4L781.5,286.2L781.7,287.2L781.3,288.8L780.5,289.0L780.5,289.9L780.5,292.4L783.4,294.6L782.7,294.9L784.2,299.1L783.7,299.5L778.5,297.9L778.2,297.9L778.2,298.6L778.0,299.4L777.9,299.6L777.8,299.6L777.6,299.8L777.9,300.4L781.6,306.2L782.5,308.7L784.6,310.8L782.3,312.9L783.2,315.9L788.2,319.6L791.0,319.6L801.3,321.6L801.2,321.1L800.1,317.3L801.8,313.5L800.5,311.6L801.5,308.7L803.0,308.3L803.6,308.3L801.4,304.9L799.7,304.3L798.4,301.0L793.0,300.4L787.8,294.2L786.3,291.2L788.6,291.8L791.6,291.6L789.6,289.5L788.0,289.2L782.8,286.0L780.8,285.4Z " data-id="CN.TJ" data-name="Tianjin" id="CN.TJ"/>
utf-8utf-8<path d="M889.9,525.9L887.0,523.1L881.2,523.2L875.0,519.6L873.3,517.0L870.8,517.1L869.7,515.5L868.0,515.2L867.2,517.1L868.3,518.1L865.4,523.4L860.8,521.5L860.9,519.5L862.5,519.0L863.3,516.7L862.9,514.6L858.9,512.2L856.7,515.1L851.5,518.2L850.3,518.1L849.7,518.1L845.9,519.3L841.5,516.5L837.4,516.4L836.9,520.4L831.2,521.1L829.4,524.5L828.4,523.9L827.4,527.4L824.8,527.2L817.9,529.2L818.3,530.0L814.1,531.8L813.0,534.0L813.4,535.7L818.8,539.3L819.7,543.3L819.0,545.1L823.5,549.6L820.8,553.7L820.8,556.0L816.3,558.4L815.6,566.6L818.0,571.9L822.4,572.0L821.8,576.5L824.8,580.2L825.1,583.9L826.9,587.6L831.1,589.0L832.8,597.9L833.5,597.2L835.7,598.0L832.8,601.3L833.3,603.2L832.1,607.3L833.9,613.0L834.0,614.0L834.2,614.0L835.8,614.3L837.5,617.8L838.3,617.1L846.4,614.9L847.1,616.2L850.0,618.5L850.1,621.5L847.7,622.7L845.3,625.2L844.2,629.6L842.5,630.8L846.2,633.3L847.8,635.0L853.3,633.6L853.4,632.2L855.9,633.0L857.1,631.2L860.7,630.9L862.3,629.5L866.3,629.1L868.3,630.9L873.0,633.7L872.7,630.4L871.8,628.1L873.9,625.9L873.8,625.8L873.0,624.9L871.6,619.6L873.4,616.6L873.2,608.6L874.6,606.5L873.8,605.5L877.0,602.4L877.7,598.9L877.0,594.3L879.0,590.6L877.7,589.3L876.1,582.6L877.9,579.9L882.5,579.1L883.2,578.1L883.6,571.4L884.7,562.0L884.3,560.5L888.0,558.1L890.2,560.5L893.2,561.7L893.6,559.2L898.1,558.0L903.1,555.4L902.8,551.6L903.4,551.2L903.7,550.5L899.6,541.5L896.1,537.5L889.5,532.3L889.6,529.4L891.0,528.7L891.1,526.6L891.0,526.5L889.9,525.9Z " data-id="CN.JX" data-name="Jiangxi" id="CN.JX"/>
utf-8utf-8<path d="M917.4,468.6L916.7,468.1L916.5,468.7L917.4,468.6Z M903.5,467.6L900.8,463.9L900.8,465.8L903.5,467.6Z M873.4,408.5L872.4,408.1L873.3,408.6L873.4,408.5Z M866.6,401.2L864.7,400.5L863.1,401.8L859.8,401.9L859.4,409.8L856.1,409.5L855.4,415.8L851.9,416.1L850.6,413.2L847.7,410.7L843.1,410.4L843.6,413.6L840.8,414.7L837.9,414.2L835.3,412.2L832.3,414.1L831.9,413.0L825.8,406.0L822.5,403.9L817.2,404.9L816.1,406.6L817.0,410.7L817.0,411.0L817.4,411.0L822.9,414.4L824.7,414.8L827.5,416.5L829.7,416.6L832.8,421.4L836.5,423.3L841.9,424.6L845.3,425.0L849.0,428.7L849.7,431.2L857.9,431.3L858.4,435.6L857.7,437.3L857.6,441.4L862.2,443.4L866.6,448.2L866.7,450.4L870.0,453.3L876.1,453.3L876.7,448.0L879.4,448.1L883.7,451.4L886.3,456.3L885.0,459.6L883.7,458.2L879.4,456.4L875.4,456.6L878.7,463.2L876.7,465.0L876.3,471.0L879.1,473.7L881.4,475.2L887.8,477.8L888.9,479.9L888.8,482.7L887.7,484.4L894.6,486.2L896.1,485.1L899.8,485.8L900.0,486.6L905.1,488.5L905.8,488.5L906.0,487.9L910.8,487.8L912.0,489.5L916.6,492.7L920.8,492.8L922.9,493.8L924.7,496.6L927.6,493.3L926.7,492.3L930.4,491.5L930.6,491.2L930.0,490.0L930.6,488.4L932.4,487.5L932.2,481.7L935.0,480.6L935.0,480.6L929.8,476.3L928.0,475.5L923.2,474.3L920.1,469.9L915.5,469.0L911.0,471.4L906.5,470.5L900.3,465.8L900.5,465.0L897.1,465.1L897.7,462.4L900.1,462.5L906.4,469.6L910.6,470.8L914.4,467.6L917.2,467.7L923.4,471.0L925.7,473.5L928.4,473.9L930.8,471.8L937.9,474.9L944.0,475.9L940.3,470.5L936.3,468.0L931.9,466.9L929.6,464.4L930.2,463.5L927.8,460.3L915.8,454.0L913.7,446.6L907.3,439.9L906.5,438.2L901.3,432.8L897.9,428.1L895.9,424.4L891.4,418.3L887.5,416.8L884.3,415.0L878.9,413.3L873.4,410.0L872.3,408.5L868.7,408.3L868.2,409.2L866.6,401.2L866.6,401.2Z " data-id="CN.JS" data-name="Jiangsu" id="CN.JS"/>
utf-8utf-8<path d="M944.5,484.3L940.5,481.6L939.9,481.7L944.5,484.3Z M930.6,491.2L931.2,491.1L938.3,496.4L939.9,498.2L940.9,497.9L943.9,495.4L951.3,494.2L948.0,489.2L941.6,484.0L935.4,480.9L935.0,480.6L932.2,481.7L932.4,487.5L930.6,488.4L930.0,490.0L930.6,491.2Z M945.9,481.4L946.5,479.5L939.7,477.1L935.3,474.5L930.8,472.9L930.9,475.2L933.9,477.3L939.0,479.8L943.4,481.2L945.9,481.4Z " data-id="CN.SH" data-name="Shanghai" id="CN.SH"/>
utf-8utf-8<path d="M955.6,557.9L954.4,558.5L956.1,558.6L955.6,557.9Z M958.1,555.3L956.8,552.8L955.1,555.0L956.0,556.6L958.1,555.3Z M962.2,532.7L960.6,532.2L962.0,533.4L962.2,532.7Z M964.1,533.2L962.1,532.2L963.1,533.4L964.1,533.2Z M965.7,520.2L964.6,519.9L965.3,520.3L965.7,520.2Z M965.6,518.9L964.2,518.4L965.5,519.2L965.6,518.9Z M960.3,518.3L960.1,517.3L959.5,517.7L960.3,518.3Z M966.0,518.2L965.0,516.9L964.3,516.8L966.0,518.2Z M965.1,516.0L965.7,516.4L965.9,516.1L965.1,516.0Z M959.1,515.4L958.3,514.5L958.1,514.5L959.1,515.4Z M965.4,514.5L967.0,517.1L966.5,514.5L965.4,514.5Z M959.8,514.2L959.4,514.3L959.4,514.4L959.8,514.2Z M962.2,514.1L961.7,513.6L961.5,514.0L962.2,514.1Z M956.6,513.8L955.1,511.6L955.1,512.2L956.6,513.8Z M956.9,511.8L956.8,511.0L956.6,510.9L956.9,511.8Z M961.1,511.2L959.4,510.3L957.0,510.2L958.9,513.5L962.1,513.5L964.2,514.7L964.4,513.3L961.1,511.2Z M955.7,506.0L955.4,506.1L955.4,506.6L955.7,506.0Z M960.8,508.0L959.7,506.0L957.8,507.0L960.8,508.0Z M960.5,503.0L960.8,504.1L963.4,504.3L960.5,503.0Z M959.8,502.0L959.6,501.8L959.5,501.8L959.8,502.0Z M964.3,498.7L963.9,498.6L963.9,498.9L964.3,498.7Z M968.0,497.5L967.6,497.3L967.9,498.0L968.0,497.5Z M962.1,497.6L961.3,497.1L961.3,497.9L962.1,497.6Z M964.8,494.5L964.7,494.8L965.2,494.9L964.8,494.5Z M905.8,488.5L906.3,490.3L906.7,494.1L905.9,499.4L904.3,502.0L906.1,505.2L904.8,506.7L898.6,505.7L899.1,508.5L898.5,509.6L898.6,517.8L899.1,519.1L892.8,525.9L891.0,526.5L891.1,526.6L891.0,528.7L889.6,529.4L889.5,532.3L896.1,537.5L899.6,541.5L903.7,550.5L903.4,551.2L904.6,551.8L908.6,550.4L910.7,554.4L911.3,558.4L912.6,559.3L915.4,564.0L916.9,568.9L924.2,570.3L927.4,568.0L928.3,564.7L929.5,565.1L934.2,572.5L935.7,572.5L942.2,570.5L946.0,572.4L947.3,575.1L947.3,575.1L949.2,575.2L949.0,572.4L948.1,572.2L950.4,568.7L948.0,562.8L949.6,563.9L951.6,560.2L950.6,558.5L952.8,557.8L954.1,551.7L952.9,551.1L954.4,549.1L958.1,553.7L960.2,550.2L962.6,551.8L963.3,551.3L958.7,543.0L955.0,542.3L954.7,541.5L958.3,542.1L960.0,540.8L959.0,537.9L956.8,536.4L960.4,536.9L957.7,534.4L957.7,533.0L954.5,532.5L953.7,531.7L955.7,529.3L957.2,530.8L956.7,528.7L958.9,531.6L959.6,529.9L961.0,531.9L963.7,529.8L961.1,524.5L960.9,522.4L959.6,521.3L952.3,526.3L951.8,523.9L953.1,524.2L955.8,523.1L958.1,519.9L958.2,515.9L954.4,514.0L953.6,514.3L945.7,507.0L944.5,506.3L940.8,506.0L936.6,509.7L926.8,505.3L925.9,508.1L924.9,507.0L927.1,504.5L930.7,504.6L934.4,506.7L935.2,502.3L939.7,498.2L939.9,498.2L938.3,496.4L931.2,491.1L930.6,491.2L930.4,491.5L926.7,492.3L927.6,493.3L924.7,496.6L922.9,493.8L920.8,492.8L916.6,492.7L912.0,489.5L910.8,487.8L906.0,487.9L905.8,488.5Z " data-id="CN.ZJ" data-name="Zhejiang" id="CN.ZJ"/>
utf-8utf-8<path d="M811.1,157.3L811.0,157.5L806.8,160.0L809.6,168.3L805.2,166.2L802.4,163.6L798.0,164.8L791.3,161.8L790.0,161.7L791.7,163.9L791.2,167.9L797.0,169.0L800.9,173.2L802.5,173.5L807.3,177.7L805.6,180.3L806.5,182.9L811.3,190.1L819.2,196.4L820.7,199.7L823.1,200.2L828.1,197.5L831.9,193.6L834.1,196.5L838.8,200.6L841.8,202.3L841.9,203.9L849.9,211.4L849.1,214.8L850.9,216.7L856.1,218.6L857.3,218.7L857.1,218.5L856.8,216.2L866.5,220.6L869.0,221.3L873.5,224.5L873.5,225.7L875.4,228.7L877.3,229.4L878.8,225.0L881.1,223.8L888.2,232.7L888.2,233.5L896.2,239.7L896.1,240.3L901.2,244.1L904.0,244.4L903.1,248.6L904.3,250.9L906.3,253.1L910.1,255.9L921.4,266.0L921.1,270.6L923.7,272.3L923.7,272.2L928.8,270.4L931.3,261.3L932.1,261.1L930.3,254.8L933.7,253.1L933.8,252.1L938.1,255.1L941.3,256.6L941.3,257.9L947.0,258.8L951.5,259.9L957.4,259.0L958.3,260.3L960.4,260.7L961.5,257.5L952.9,250.3L951.5,248.4L955.0,247.0L957.9,247.5L967.0,246.9L966.8,245.8L969.5,242.8L968.5,242.2L968.0,239.6L968.9,238.1L973.3,239.8L973.3,238.1L975.4,237.5L973.7,233.0L972.9,232.6L972.3,226.2L973.2,226.8L978.9,228.4L983.7,233.8L987.1,233.4L984.1,232.8L984.0,231.9L987.1,229.9L992.9,229.5L994.1,228.2L991.4,222.0L991.1,219.4L989.5,216.4L989.3,216.3L987.0,216.8L984.2,215.4L983.6,216.7L970.7,210.3L969.7,209.6L965.2,203.9L965.4,206.1L962.6,208.0L960.3,205.3L957.1,205.7L957.8,207.4L953.6,207.7L949.6,210.0L951.5,212.8L948.2,214.7L945.8,214.1L940.7,209.2L930.7,201.7L927.3,196.4L924.0,194.4L922.8,197.6L921.1,197.7L923.9,201.7L923.7,202.9L921.5,203.7L915.0,200.1L914.6,199.1L909.9,193.5L906.0,191.3L903.5,191.8L901.4,190.9L901.1,192.3L896.3,187.7L891.5,180.7L888.7,180.5L883.2,178.3L880.7,178.7L878.8,180.2L873.4,179.4L868.2,177.1L864.6,172.6L860.4,173.3L860.7,174.8L853.9,173.9L850.6,172.1L851.0,173.8L845.3,174.6L842.2,173.7L837.2,169.9L836.6,170.2L829.1,163.6L828.7,162.1L823.9,155.7L821.0,156.4L811.1,157.1L811.1,157.3Z " data-id="CN.JL" data-name="Jilin" id="CN.JL"/>
utf-8utf-8<path d="M678.6,5.3L676.5,5.9L670.0,6.2L670.3,7.0L664.6,17.0L669.7,20.8L673.1,19.7L679.5,21.6L682.1,26.8L684.2,27.7L687.0,31.5L687.8,34.0L684.5,37.9L683.5,40.2L683.2,43.6L683.7,44.7L683.8,50.1L685.3,52.6L684.1,56.4L686.1,60.8L684.8,63.1L685.4,64.9L685.2,67.6L688.7,68.2L692.4,73.8L691.5,75.6L683.3,76.6L676.3,85.0L674.1,86.2L667.9,84.0L664.0,83.8L660.0,82.8L651.6,79.5L652.9,93.3L654.7,102.3L653.9,107.4L657.4,112.9L654.4,115.6L658.1,120.8L665.5,125.2L667.5,125.1L668.2,123.0L680.5,121.6L683.0,122.4L691.3,126.3L692.1,126.4L693.8,119.8L694.7,119.0L701.3,118.2L706.8,119.1L715.0,124.1L722.4,126.9L723.6,128.4L728.3,131.5L735.9,135.3L741.0,138.9L746.5,143.9L748.1,146.6L745.9,149.3L744.6,148.8L739.3,148.9L734.3,147.8L731.6,146.1L729.2,145.5L728.5,147.1L723.7,147.3L719.3,146.6L715.1,148.8L714.1,150.8L712.5,151.0L708.9,149.1L707.3,151.8L701.5,154.2L695.7,155.8L694.3,159.8L694.5,164.6L696.2,166.3L689.9,174.0L687.4,174.7L673.3,174.5L671.4,175.3L671.8,177.0L668.3,184.8L665.4,186.4L662.8,189.1L660.2,188.5L653.4,188.0L646.4,186.4L643.5,185.5L638.8,182.4L630.9,181.7L627.5,184.3L627.4,190.1L628.1,194.8L629.2,198.0L630.6,198.6L632.7,200.9L636.1,203.5L641.2,206.2L644.2,208.8L645.6,211.4L644.4,212.0L641.0,215.8L634.6,218.5L630.7,225.0L630.7,227.5L629.1,231.2L624.4,234.0L621.9,234.2L618.4,235.9L616.3,238.0L604.6,239.1L599.6,238.4L593.0,237.9L569.8,241.5L556.9,247.8L548.7,252.9L545.7,256.4L543.1,255.3L537.9,255.3L535.8,254.9L533.8,250.5L520.5,252.8L507.0,247.6L485.4,243.2L483.1,241.7L478.6,237.8L472.0,236.0L468.7,236.3L445.9,233.2L437.4,235.6L394.8,230.8L394.7,230.8L417.6,255.9L415.6,259.4L416.2,260.3L424.2,266.6L432.2,271.0L433.2,271.9L434.7,279.2L439.8,279.3L443.1,276.4L443.5,275.2L448.5,272.8L458.7,271.2L464.7,272.3L467.7,275.0L469.4,278.3L467.8,283.2L468.0,285.0L462.2,293.7L468.3,294.1L474.6,297.0L477.5,297.7L480.9,300.9L486.5,304.1L490.9,304.1L495.4,310.8L499.7,313.3L502.3,313.1L502.5,314.4L506.3,318.5L511.6,320.1L516.1,320.0L518.1,315.8L513.6,312.4L515.6,310.5L521.4,307.9L530.3,310.2L533.4,310.2L534.1,309.0L539.6,305.2L544.2,303.7L550.8,306.3L555.2,310.5L556.0,314.0L554.5,315.9L554.4,318.5L547.7,326.1L549.3,328.1L550.4,335.5L552.6,339.0L557.1,340.3L568.1,347.6L572.5,348.8L573.2,348.9L573.5,346.7L575.0,346.0L577.5,346.6L583.0,345.5L584.1,343.1L589.3,341.1L590.4,341.5L594.3,340.8L595.7,339.9L592.2,332.4L591.7,328.1L589.8,322.7L589.3,319.0L589.6,310.5L592.4,309.4L591.5,308.0L599.2,304.8L600.9,307.8L606.4,313.1L604.8,321.2L605.4,325.2L603.7,329.0L611.5,332.1L616.0,332.9L617.3,332.3L621.3,334.0L624.0,337.2L628.6,338.6L629.2,338.8L629.7,339.0L635.2,340.6L638.1,343.7L646.1,342.9L650.5,342.9L650.4,340.4L649.2,337.6L652.1,337.2L649.9,331.4L649.2,326.0L650.7,322.7L652.0,321.9L652.6,318.6L655.4,315.2L655.1,312.9L660.8,307.4L661.2,303.9L662.5,305.2L670.9,307.1L670.9,305.6L672.4,301.9L676.1,300.6L677.3,304.7L677.3,304.6L677.5,304.0L680.1,303.7L681.1,302.3L681.5,298.7L685.4,299.2L689.0,297.9L688.6,295.6L690.9,285.3L692.4,284.8L698.2,287.2L699.7,286.7L700.8,283.2L705.7,282.4L706.6,283.4L710.9,283.5L712.9,281.6L715.2,281.5L719.2,280.1L716.9,276.8L717.2,275.6L718.1,274.8L717.3,274.1L708.4,267.3L709.4,267.2L707.3,262.0L707.2,257.7L709.6,256.4L707.9,252.7L707.8,250.3L709.6,247.7L709.5,245.2L714.9,244.5L719.9,251.1L719.3,252.1L721.7,256.1L726.1,256.0L728.0,256.6L729.7,255.9L728.3,253.9L736.5,249.1L740.1,252.0L740.8,251.7L743.7,247.5L745.5,248.5L749.8,249.0L752.3,246.4L748.1,240.4L748.2,239.5L750.6,237.8L756.8,237.9L757.2,234.4L759.1,235.9L762.5,235.5L768.8,239.7L769.8,242.6L774.6,247.0L775.9,246.9L780.6,252.3L781.5,256.3L783.1,256.7L784.2,259.3L787.7,262.1L793.2,261.7L803.0,263.0L803.1,263.3L804.2,261.1L803.8,259.3L799.0,253.3L796.6,248.1L796.8,247.1L793.1,241.5L794.8,240.9L795.0,239.2L798.5,241.9L803.1,243.4L803.2,244.8L808.2,248.4L810.7,250.9L811.9,253.4L813.5,254.1L814.6,249.6L816.2,246.9L815.6,244.5L821.0,241.3L823.6,242.1L826.8,236.8L828.7,236.5L831.8,237.9L833.5,237.9L835.2,236.1L834.6,233.5L837.9,232.9L841.5,234.0L843.3,233.2L840.2,229.7L842.0,229.5L848.6,232.0L853.9,230.0L854.6,225.9L859.3,224.5L857.5,218.9L857.3,218.7L856.1,218.6L850.9,216.7L849.1,214.8L849.9,211.4L841.9,203.9L841.8,202.3L838.8,200.6L834.1,196.5L831.9,193.6L828.1,197.5L823.1,200.2L820.7,199.7L819.2,196.4L811.3,190.1L806.5,182.9L805.6,180.3L807.3,177.7L802.5,173.5L800.9,173.2L797.0,169.0L791.2,167.9L791.7,163.9L790.0,161.7L791.3,161.8L798.0,164.8L802.4,163.6L805.2,166.2L809.6,168.3L806.8,160.0L811.0,157.5L811.1,157.3L807.2,154.6L803.8,148.6L807.1,149.2L810.2,149.2L809.8,144.4L806.0,142.6L804.5,145.4L800.0,143.9L788.8,137.6L783.2,133.0L783.3,129.0L789.4,124.1L792.7,118.7L796.7,109.2L798.2,107.4L799.9,108.2L803.4,112.3L808.3,116.4L806.8,112.0L805.2,110.4L802.9,106.5L799.9,93.4L803.7,94.3L805.2,92.3L804.0,89.9L797.0,80.3L795.7,79.6L794.1,77.0L794.6,74.6L793.8,74.3L794.3,70.8L793.2,66.6L795.3,63.7L791.4,59.3L792.7,57.0L793.0,54.8L791.4,53.3L783.1,49.0L775.2,43.6L767.1,41.3L766.9,45.0L764.1,47.2L760.3,46.8L760.4,48.2L753.5,47.9L750.7,49.7L748.2,50.1L746.1,49.0L739.4,47.6L738.0,47.7L731.5,44.1L725.0,38.2L725.0,37.7L718.1,30.9L718.8,28.6L709.9,25.0L707.7,23.5L705.0,22.7L705.2,25.5L704.5,27.5L703.1,27.6L698.2,25.0L693.8,23.7L686.1,20.5L688.8,16.7L690.0,12.2L683.6,7.1L678.7,5.3L678.6,5.3Z " data-id="CN.NM" data-name="Inner Mongol" id="CN.NM"/>
utf-8utf-8<path d="M678.7,5.3L683.6,7.1L690.0,12.2L688.8,16.7L686.1,20.5L693.8,23.7L698.2,25.0L703.1,27.6L704.5,27.5L705.2,25.5L705.0,22.7L707.7,23.5L709.9,25.0L718.8,28.6L718.1,30.9L725.0,37.7L725.0,38.2L731.5,44.1L738.0,47.7L739.4,47.6L746.1,49.0L748.2,50.1L750.7,49.7L753.5,47.9L760.4,48.2L760.3,46.8L764.1,47.2L766.9,45.0L767.1,41.3L775.2,43.6L783.1,49.0L791.4,53.3L793.0,54.8L792.7,57.0L791.4,59.3L795.3,63.7L793.2,66.6L794.3,70.8L793.8,74.3L794.6,74.6L794.1,77.0L795.7,79.6L797.0,80.3L804.0,89.9L805.2,92.3L803.7,94.3L799.9,93.4L802.9,106.5L805.2,110.4L806.8,112.0L808.3,116.4L803.4,112.3L799.9,108.2L798.2,107.4L796.7,109.2L792.7,118.7L789.4,124.1L783.3,129.0L783.2,133.0L788.8,137.6L800.0,143.9L804.5,145.4L806.0,142.6L809.8,144.4L810.2,149.2L807.1,149.2L803.8,148.6L807.2,154.6L811.1,157.3L811.1,157.1L821.0,156.4L823.9,155.7L828.7,162.1L829.1,163.6L836.6,170.2L837.2,169.9L842.2,173.7L845.3,174.6L851.0,173.8L850.6,172.1L853.9,173.9L860.7,174.8L860.4,173.3L864.6,172.6L868.2,177.1L873.4,179.4L878.8,180.2L880.7,178.7L883.2,178.3L888.7,180.5L891.5,180.7L896.3,187.7L901.1,192.3L901.4,190.9L903.5,191.8L906.0,191.3L909.9,193.5L914.6,199.1L915.0,200.1L921.5,203.7L923.7,202.9L923.9,201.7L921.1,197.7L922.8,197.6L924.0,194.4L927.3,196.4L930.7,201.7L940.7,209.2L945.8,214.1L948.2,214.7L951.5,212.8L949.6,210.0L953.6,207.7L957.8,207.4L957.1,205.7L960.3,205.3L962.6,208.0L965.4,206.1L965.2,203.9L969.7,209.6L970.7,210.3L983.6,216.7L984.2,215.4L987.0,216.8L989.3,216.3L987.1,215.2L982.5,206.5L981.6,203.8L969.6,190.4L965.6,186.7L972.0,184.4L974.3,176.3L976.9,178.2L979.7,176.6L987.3,177.0L992.9,179.5L995.3,182.1L997.3,183.0L999.1,180.2L995.3,173.0L998.6,170.1L997.1,166.8L996.1,166.2L997.4,163.5L995.5,159.6L996.7,157.8L994.6,152.9L993.2,152.2L992.5,149.7L993.3,148.6L992.1,145.4L990.9,144.4L989.2,139.3L990.3,137.9L987.4,135.3L986.4,133.4L990.3,131.0L990.9,125.1L987.6,122.6L982.5,118.0L983.0,115.9L981.6,113.4L974.2,110.6L969.0,112.0L968.1,112.9L965.1,113.4L962.8,116.9L957.5,116.1L954.7,118.3L954.0,119.9L952.1,121.1L952.3,125.2L947.5,124.7L941.3,125.7L936.7,126.1L932.7,124.4L927.3,125.8L924.4,124.2L915.6,117.8L914.2,115.9L913.9,111.6L909.6,108.1L908.6,108.5L904.5,105.1L902.9,99.9L899.0,99.5L895.1,99.8L885.6,94.9L885.0,93.9L877.5,90.7L875.3,88.4L873.1,89.8L871.9,89.2L869.7,89.7L861.8,87.1L859.6,84.7L853.7,84.8L851.2,85.6L844.7,84.7L840.4,82.6L839.4,81.3L835.2,79.6L834.2,77.4L831.8,75.2L830.8,71.3L824.5,68.7L824.2,67.6L821.7,65.8L817.3,59.7L812.5,56.4L806.4,53.0L803.9,50.2L802.3,47.4L801.4,48.7L801.1,46.7L798.1,45.1L797.7,43.5L793.8,41.8L792.3,39.0L791.3,38.8L783.5,32.3L783.1,30.3L777.5,28.3L778.2,27.5L775.4,24.8L771.5,22.8L770.9,21.8L766.9,21.1L765.3,19.7L765.5,17.2L763.2,16.9L758.6,13.9L755.5,14.1L755.6,12.4L741.9,7.6L738.6,7.9L739.2,9.7L733.8,7.5L727.8,6.2L722.9,4.6L716.1,1.6L711.0,0.1L709.4,1.1L705.0,0.0L704.3,1.2L700.1,2.0L687.9,2.9L684.7,2.9L681.4,3.9L679.4,5.2L678.7,5.3Z " data-id="CN.HL" data-name="Heilongjiang" id="CN.HL"/>
utf-8</g>
</svg>
