<?xml version="1.0" ?>
<!DOCTYPE svg
  PUBLIC '-//W3C//DTD SVG 1.1//EN'
  'http://www.w3.org/Graphics/SVG/1.1/DTD/svg11.dtd'>
<svg enable_background="new 0 0 1000 1334" height="1334px" pretty_print="True" style="stroke-linejoin: round; stroke:#000; fill: none;" version="1.1" viewBox="0 0 1000 1334" width="1000px" xmlns="http://www.w3.org/2000/svg" xmlns:xlink="http://www.w3.org/1999/xlink">
utf-8<defs>
utf-8utf-8<style type="text/css">
<![CDATA[path { fill-rule: evenodd; }]]>utf-8utf-8</style>
utf-8</defs>
utf-8<metadata>
utf-8utf-8<views>
utf-8utf-8utf-8<view h="1334.59048367" padding="0" w="1000">
utf-8utf-8utf-8utf-8<proj flip="auto" id="robinson" lon0="-71.3420006518"/>
utf-8utf-8utf-8utf-8<bbox h="282.18" w="211.59" x="-1202.08" y="-211.14"/>
utf-8utf-8utf-8</view>
utf-8utf-8</views>
utf-8</metadata>
utf-8<g class="" id="provinces">
utf-8utf-8<path d="M821.6,1095.2L816.4,1090.0L811.4,1087.2L810.4,1087.0L806.8,1089.4L804.9,1087.5L804.8,1086.0L805.8,1082.0L801.7,1076.5L798.6,1076.1L795.2,1079.8L792.1,1078.3L790.4,1078.4L787.1,1080.8L785.7,1080.6L784.6,1078.6L788.0,1070.3L786.0,1069.7L782.9,1071.2L780.7,1070.0L778.5,1072.1L775.9,1071.0L773.9,1071.7L772.2,1074.3L775.0,1077.7L775.9,1079.8L772.6,1082.3L771.3,1081.9L767.2,1078.1L767.8,1072.8L763.9,1075.3L761.3,1071.0L761.5,1069.7L764.4,1067.3L765.9,1064.6L762.3,1059.5L761.6,1056.7L764.3,1054.1L763.5,1047.8L763.6,1041.8L762.4,1040.7L759.4,1041.2L759.3,1039.4L760.8,1037.1L765.1,1032.5L763.9,1029.7L762.3,1029.2L758.3,1030.5L755.9,1034.7L752.2,1033.8L749.3,1034.0L748.6,1029.4L745.6,1025.6L740.9,1025.6L737.5,1022.5L733.6,1022.4L731.5,1020.6L728.7,1019.2L727.4,1019.3L725.5,1022.6L721.9,1022.8L719.2,1017.7L717.6,1012.4L714.9,1008.6L714.7,1001.5L712.6,998.1L706.4,996.9L700.1,992.8L699.5,989.5L698.4,987.9L689.7,988.3L688.1,986.6L683.3,991.8L679.7,994.1L666.8,1000.5L662.4,1003.9L659.7,1007.4L657.9,1013.2L656.5,1014.9L651.5,1016.6L642.0,1016.5L638.1,1017.7L635.4,1020.6L631.7,1022.9L628.5,1028.3L624.5,1034.1L623.8,1043.6L621.2,1046.3L618.1,1046.9L615.6,1045.1L613.5,1042.6L611.2,1041.2L607.3,1044.1L602.4,1051.2L601.3,1051.3L597.7,1049.1L590.3,1042.4L588.3,1041.4L586.2,1041.8L583.7,1043.7L578.9,1044.8L571.0,1038.8L566.7,1042.2L565.1,1044.1L559.3,1045.3L556.4,1045.0L548.8,1037.7L547.6,1037.3L537.3,1039.3L532.0,1038.3L529.8,1034.4L522.1,1028.3L515.7,1029.4L510.3,1028.2L471.8,1041.7L471.8,1041.8L475.4,1050.6L474.0,1052.8L474.5,1055.4L479.2,1060.6L480.8,1063.3L480.3,1064.2L477.4,1064.2L476.9,1065.1L479.8,1068.2L480.8,1071.8L482.4,1074.1L484.3,1075.3L488.5,1076.1L492.7,1078.0L494.6,1077.9L495.7,1075.6L496.5,1076.4L499.1,1083.1L500.0,1083.5L502.3,1081.5L502.5,1084.8L505.6,1084.8L511.2,1093.0L513.1,1093.7L516.2,1093.3L517.3,1091.3L525.1,1096.0L526.7,1096.5L528.3,1100.6L529.2,1100.5L530.9,1105.2L532.0,1105.8L530.6,1108.1L531.2,1109.3L533.8,1110.7L536.9,1116.8L537.6,1121.6L534.6,1126.6L534.5,1129.6L535.9,1131.6L540.5,1134.7L542.0,1136.3L544.7,1136.5L547.3,1138.9L549.6,1136.9L554.4,1135.1L558.8,1139.6L558.7,1143.7L560.4,1145.9L560.7,1153.3L561.9,1155.3L563.4,1160.3L564.4,1161.3L561.7,1166.9L559.2,1169.4L559.5,1174.5L560.5,1175.3L561.3,1178.7L566.6,1182.8L568.5,1179.2L573.4,1182.2L574.6,1183.7L575.9,1187.3L577.8,1189.2L580.7,1188.5L587.4,1185.9L589.2,1187.3L591.1,1184.6L592.3,1188.7L594.7,1187.5L597.4,1181.9L603.1,1185.8L611.6,1187.6L614.8,1190.8L617.7,1191.0L622.9,1189.2L622.8,1187.6L625.6,1186.8L630.2,1188.0L631.2,1187.6L636.2,1181.7L644.8,1181.5L650.9,1174.9L653.3,1170.5L658.4,1166.7L661.0,1170.5L664.7,1168.9L666.3,1169.2L670.5,1172.2L674.5,1173.1L676.4,1179.8L679.6,1175.4L683.3,1180.5L682.1,1183.6L683.0,1185.3L685.3,1184.7L690.3,1181.9L690.8,1183.0L694.6,1181.3L697.7,1182.3L701.0,1180.0L702.3,1176.3L706.7,1175.1L708.5,1176.3L710.8,1176.0L710.1,1174.0L710.6,1171.1L718.8,1172.2L721.0,1173.7L724.7,1178.0L727.1,1179.8L733.4,1182.5L733.4,1184.8L737.1,1191.2L741.9,1187.6L748.6,1191.3L750.5,1194.5L757.5,1194.0L757.4,1199.9L761.9,1197.9L763.4,1198.7L766.2,1205.0L767.5,1205.5L769.8,1204.5L771.2,1205.8L771.6,1208.1L776.1,1205.6L778.1,1211.2L778.9,1211.9L777.8,1214.9L733.4,1296.6L736.5,1297.0L750.6,1304.2L760.4,1299.3L763.1,1300.3L765.8,1302.5L769.9,1307.9L772.1,1316.2L774.0,1318.3L781.2,1322.4L788.7,1331.2L792.7,1304.3L799.7,1253.2L806.9,1202.2L818.7,1120.7L820.8,1109.7L820.7,1106.1L821.8,1098.8L821.6,1095.2Z " data-id="CO.AM" data-name="Amazonas" id="CO.AM"/>
utf-8utf-8<path d="M458.0,349.0L451.3,357.8L447.5,357.6L432.3,359.4L424.2,369.0L421.5,372.8L414.4,378.8L412.0,384.3L407.9,388.2L406.3,394.8L404.5,397.7L400.5,399.8L393.8,401.6L391.7,403.3L384.4,413.9L346.8,412.6L345.2,405.9L341.3,395.3L340.9,391.7L341.2,384.1L344.2,373.5L346.9,369.0L348.3,363.1L348.5,355.8L352.2,349.5L356.2,341.3L359.8,336.0L363.7,331.1L364.1,324.3L363.5,317.8L360.4,312.8L356.7,311.3L353.0,305.1L351.7,297.1L349.6,294.7L349.1,295.1L345.4,297.9L336.3,304.1L333.9,309.1L326.0,311.9L324.3,312.0L317.3,314.5L313.3,320.4L316.1,320.9L320.7,323.9L325.1,332.1L324.6,343.1L325.8,350.0L324.9,352.7L325.3,357.6L325.8,355.4L326.6,359.5L324.9,366.6L325.0,368.3L321.8,370.6L317.5,370.5L313.8,369.2L312.1,366.4L313.6,361.9L317.7,360.5L319.4,361.4L317.1,358.7L317.7,357.0L320.1,356.0L318.7,355.1L319.8,352.8L315.5,352.8L315.3,354.3L313.7,354.6L312.1,353.4L311.8,350.6L313.2,351.1L312.9,347.3L310.5,346.0L309.6,343.3L309.6,343.3L311.0,350.2L311.1,356.7L309.9,360.6L307.4,363.6L305.7,371.6L300.5,376.5L298.7,376.1L298.5,379.3L299.1,383.0L307.7,392.2L314.7,398.0L321.5,406.9L326.8,414.7L329.9,417.3L332.3,417.6L337.0,421.6L337.8,423.1L339.1,428.0L339.0,436.9L335.9,443.5L334.2,443.3L326.4,440.7L320.4,441.1L316.0,442.8L316.1,445.5L317.2,446.4L318.0,451.5L317.6,452.7L311.9,455.1L309.6,456.6L305.5,457.8L306.7,464.5L305.4,466.2L310.0,470.5L312.4,471.3L310.2,473.3L310.3,475.9L311.2,475.3L313.1,477.8L313.0,479.2L314.9,481.7L315.8,481.3L317.4,483.7L316.0,488.4L317.1,491.5L316.1,498.2L318.0,499.2L318.2,501.0L320.9,505.3L321.1,506.8L322.6,508.6L331.7,509.2L342.1,507.6L344.4,507.0L352.2,507.1L354.0,509.5L354.5,514.3L355.9,519.2L357.8,522.1L363.1,523.9L363.4,527.5L361.3,532.9L364.2,545.5L363.3,548.9L364.2,552.2L366.8,555.4L368.8,556.6L369.6,558.4L374.8,562.0L378.0,562.6L379.5,562.4L383.3,560.7L388.0,557.0L389.0,556.9L391.5,559.3L396.7,559.4L398.6,560.1L399.0,555.0L398.0,550.6L398.5,547.0L397.2,545.6L398.1,542.9L402.9,546.7L407.0,548.1L410.2,546.2L413.0,547.8L413.4,552.1L417.4,560.2L417.1,564.4L419.0,563.6L420.8,566.5L423.2,562.4L427.8,559.4L429.5,559.2L433.3,553.9L433.5,548.9L440.6,544.6L449.4,542.2L454.8,546.2L457.9,545.7L459.9,540.2L463.1,540.4L463.7,540.0L464.7,537.9L465.6,532.9L468.8,529.1L468.3,523.7L470.3,520.2L470.6,516.9L468.8,511.2L470.1,508.3L470.7,504.9L473.2,501.2L475.2,499.6L477.6,497.7L479.5,495.5L482.9,489.9L485.3,488.4L483.6,484.3L485.4,472.4L489.4,471.6L492.1,470.1L505.3,459.4L508.7,453.1L511.7,449.7L520.5,443.3L521.4,441.2L521.2,437.9L519.3,434.4L518.7,422.7L519.3,419.2L519.4,418.9L495.9,443.1L489.6,441.9L488.9,440.8L485.9,425.0L486.7,422.3L487.0,415.6L490.3,410.4L490.7,408.5L489.7,404.1L482.0,414.2L480.6,414.4L475.6,409.2L474.4,405.8L474.3,401.3L475.5,394.8L476.5,392.8L480.9,389.1L482.3,385.4L480.4,383.2L479.1,379.4L478.6,371.5L478.0,369.2L475.0,363.7L459.3,348.6L458.0,349.0Z " data-id="CO.AN" data-name="Antioquia" id="CO.AN"/>
utf-8utf-8<path d="M617.6,449.5L619.3,455.1L618.5,459.1L619.1,461.8L617.3,470.8L614.0,477.5L613.8,482.2L611.0,484.4L608.4,487.3L605.3,487.5L602.2,480.1L599.9,478.0L596.6,477.1L595.8,478.3L600.3,485.8L599.7,488.8L600.0,492.2L598.4,496.6L598.2,503.8L595.0,505.9L593.6,509.8L588.2,512.2L586.5,514.9L581.0,522.0L579.8,525.9L571.4,525.5L567.5,522.9L565.1,523.3L563.7,527.3L560.1,533.4L556.0,532.8L552.7,538.5L551.6,541.3L547.2,536.7L549.5,530.9L551.1,530.0L553.4,524.9L553.6,520.9L550.0,516.5L546.9,514.7L545.9,513.5L539.3,522.8L538.8,525.7L537.0,529.5L537.1,534.2L535.1,543.9L534.4,544.5L531.3,541.6L529.9,541.1L521.5,542.6L518.3,544.8L518.5,542.8L516.6,541.9L511.8,543.1L509.4,541.6L506.7,536.7L504.0,535.9L502.5,532.2L499.6,531.3L498.2,529.8L495.7,532.6L493.4,534.2L492.2,534.0L491.4,531.2L493.8,524.8L493.9,523.4L490.5,516.4L485.8,518.9L482.4,517.0L480.1,514.4L477.6,509.7L475.4,501.4L475.2,499.6L473.2,501.2L470.7,504.9L470.1,508.3L468.8,511.2L470.6,516.9L470.3,520.2L468.3,523.7L468.8,529.1L465.6,532.9L464.7,537.9L463.7,540.0L464.0,540.6L464.5,541.1L464.8,541.6L465.9,541.0L469.8,540.2L472.8,538.5L479.2,540.4L480.9,539.8L484.8,536.5L486.5,535.8L488.7,541.4L489.4,548.1L487.8,550.8L488.6,554.7L491.4,558.0L491.8,562.3L494.6,562.8L498.8,565.3L502.3,565.1L502.2,566.7L504.7,569.3L508.9,571.5L513.6,566.8L515.6,566.1L516.3,563.0L520.3,558.5L524.0,556.9L523.8,560.9L527.4,562.9L528.9,562.5L531.5,564.7L533.3,564.6L534.1,567.0L536.9,570.0L538.1,572.0L537.2,575.0L541.0,580.2L542.0,582.4L544.5,597.0L541.7,599.3L541.9,601.8L539.6,606.5L541.0,610.0L546.8,610.1L549.4,611.3L551.8,615.4L554.3,618.3L556.5,622.5L560.6,622.5L561.8,626.7L566.2,628.0L569.1,627.8L572.4,622.2L573.5,622.1L573.8,620.7L572.6,616.1L574.1,611.1L574.4,607.5L577.0,601.6L579.6,602.8L581.3,600.8L584.6,594.6L582.4,592.0L581.5,588.4L582.9,584.9L582.8,582.1L592.2,570.7L593.6,571.4L598.8,579.0L600.2,579.1L604.4,575.0L607.4,573.1L610.0,568.5L618.0,559.1L621.3,556.5L626.1,561.6L626.7,561.1L628.5,554.0L630.3,549.7L632.8,547.1L628.4,541.7L627.9,539.9L625.2,537.6L618.6,533.5L618.7,531.9L622.6,529.8L624.6,523.3L625.4,519.3L626.7,515.7L624.6,513.3L621.8,505.8L623.3,500.8L626.4,495.5L628.8,494.1L630.7,492.2L631.4,489.3L633.0,487.3L635.0,488.2L636.9,485.9L640.6,484.4L643.0,479.3L645.2,464.2L648.8,460.0L649.8,456.6L651.2,453.8L655.6,442.3L653.6,441.7L650.8,441.7L646.2,439.7L640.6,439.6L637.5,443.2L633.0,442.3L630.9,447.3L627.3,451.6L626.0,452.4L623.2,452.3L619.3,449.9L617.6,449.5Z " data-id="CO.BY" data-name="Boyacá" id="CO.BY"/>
utf-8utf-8<path d="M402.5,251.0L401.0,250.7L395.8,253.4L393.9,250.9L396.9,251.3L395.5,249.1L393.8,249.8L389.1,250.5L388.4,249.7L384.3,254.1L377.1,257.2L374.0,263.3L369.8,265.9L368.7,272.5L362.8,281.0L363.3,283.8L360.0,286.8L358.3,289.0L351.0,291.5L350.8,293.5L349.6,294.7L351.7,297.1L353.0,305.1L356.7,311.3L360.4,312.8L363.5,317.8L364.1,324.3L363.7,331.1L359.8,336.0L356.2,341.3L352.2,349.5L348.5,355.8L348.3,363.1L346.9,369.0L344.2,373.5L341.2,384.1L340.9,391.7L341.3,395.3L345.2,405.9L346.8,412.6L384.4,413.9L391.7,403.3L393.8,401.6L400.5,399.8L404.5,397.7L406.3,394.8L407.9,388.2L412.0,384.3L414.4,378.8L421.5,372.8L424.2,369.0L432.3,359.4L447.5,357.6L451.3,357.8L458.0,349.0L459.3,348.6L459.8,347.4L460.8,345.0L461.8,343.8L461.9,342.8L461.7,341.4L461.9,337.0L461.6,335.8L458.4,332.3L456.6,328.6L454.1,326.4L450.2,325.1L443.3,327.7L435.7,331.7L433.3,328.7L428.2,325.5L426.7,322.3L426.7,314.9L425.5,309.8L426.0,304.9L424.9,300.0L425.3,296.9L428.7,293.4L435.9,290.4L436.8,285.2L435.6,283.2L436.1,281.1L433.2,278.6L421.4,272.3L419.6,269.0L419.3,265.5L416.2,263.8L413.6,263.2L411.5,260.2L403.5,256.3L403.8,251.4L402.5,251.0Z " data-id="CO.CO" data-name="Córdoba" id="CO.CO"/>
utf-8utf-8<path d="M533.2,384.1L534.4,376.2L539.0,372.0L539.2,367.8L537.1,365.6L532.6,354.7L532.3,350.8L531.5,351.7L526.5,357.6L525.8,363.0L526.8,367.4L527.3,373.2L528.9,379.3L528.1,385.5L527.2,387.7L527.3,394.5L521.6,402.4L521.2,407.4L521.8,408.5L519.9,415.7L519.4,418.9L519.3,419.2L518.7,422.7L519.3,434.4L521.2,437.9L521.4,441.2L520.5,443.3L511.7,449.7L508.7,453.1L505.3,459.4L492.1,470.1L489.4,471.6L485.4,472.4L483.6,484.3L485.3,488.4L482.9,489.9L479.5,495.5L477.6,497.7L475.2,499.6L475.4,501.4L477.6,509.7L480.1,514.4L482.4,517.0L485.8,518.9L490.5,516.4L493.9,523.4L493.8,524.8L491.4,531.2L492.2,534.0L493.4,534.2L495.7,532.6L498.2,529.8L499.6,531.3L502.5,532.2L504.0,535.9L506.7,536.7L509.4,541.6L511.8,543.1L516.6,541.9L518.5,542.8L518.3,544.8L521.5,542.6L529.9,541.1L531.3,541.6L534.4,544.5L535.1,543.9L537.1,534.2L537.0,529.5L538.8,525.7L539.3,522.8L545.9,513.5L546.9,514.7L550.0,516.5L553.6,520.9L553.4,524.9L551.1,530.0L549.5,530.9L547.2,536.7L551.6,541.3L552.7,538.5L556.0,532.8L560.1,533.4L563.7,527.3L565.1,523.3L567.5,522.9L571.4,525.5L579.8,525.9L581.0,522.0L586.5,514.9L588.2,512.2L593.6,509.8L595.0,505.9L598.2,503.8L598.4,496.6L600.0,492.2L599.7,488.8L600.3,485.8L595.8,478.3L596.6,477.1L599.9,478.0L602.2,480.1L605.3,487.5L608.4,487.3L611.0,484.4L613.8,482.2L614.0,477.5L617.3,470.8L619.1,461.8L618.5,459.1L619.3,455.1L617.6,449.5L617.1,450.6L614.6,451.9L614.6,444.3L611.2,443.0L607.1,443.5L606.3,444.9L603.2,442.5L601.1,443.6L595.6,439.5L594.0,439.2L591.5,436.9L595.7,429.9L594.7,425.9L592.4,422.5L595.1,418.9L595.4,414.5L591.8,408.8L591.6,405.0L586.7,400.6L585.9,394.2L583.4,393.6L570.2,392.9L567.9,395.5L567.1,399.0L561.2,399.5L557.7,397.3L550.1,394.7L547.5,389.7L543.1,386.0L542.0,384.6L533.2,384.1Z " data-id="CO.ST" data-name="Santander" id="CO.ST"/>
utf-8utf-8<path d="M560.6,104.1L560.7,106.3L559.1,110.8L555.0,115.0L554.9,118.0L553.4,126.6L554.2,128.1L554.6,132.4L555.8,138.2L566.6,136.6L571.1,136.8L578.1,137.7L580.1,141.0L579.6,146.0L580.0,147.1L585.9,149.6L588.6,151.5L591.7,155.3L587.8,163.4L586.8,164.0L583.5,169.0L589.2,172.6L590.6,172.3L593.8,173.4L597.5,172.9L601.9,171.3L602.0,170.9L602.6,169.4L606.0,165.0L607.6,160.8L612.2,155.2L614.2,151.8L618.2,141.0L620.0,137.4L622.0,135.1L627.9,129.4L632.7,120.3L634.1,116.4L639.9,115.1L643.8,113.5L649.1,114.1L650.4,113.7L653.5,108.4L670.7,76.5L672.0,74.6L679.4,71.9L710.4,63.0L713.2,61.7L717.0,58.6L719.1,58.7L721.5,53.1L724.6,51.8L726.2,50.1L733.1,45.6L735.5,40.9L735.2,39.3L732.9,35.0L732.5,32.8L728.8,24.8L728.7,23.3L724.0,18.4L720.8,17.7L717.6,15.7L715.1,15.7L710.8,12.5L708.0,11.4L703.0,11.4L698.1,9.7L696.6,10.1L693.3,13.6L693.7,14.1L696.4,11.5L697.1,12.4L699.1,11.9L701.0,13.0L695.7,16.8L694.7,15.5L695.2,14.1L692.4,15.9L693.2,16.3L692.3,18.6L687.5,21.5L685.8,20.0L687.6,16.9L684.0,18.1L680.7,22.0L677.3,24.4L681.2,24.4L683.4,26.5L682.9,27.3L683.4,30.3L680.8,30.4L678.7,33.4L676.2,34.7L673.1,31.5L676.2,28.1L676.6,26.6L674.2,26.0L666.9,27.4L664.8,26.5L662.5,28.3L662.3,29.3L664.3,32.5L664.2,37.0L661.8,41.8L660.9,44.5L658.1,48.8L656.6,53.2L654.3,55.9L650.5,57.5L647.3,60.0L645.0,60.6L640.6,63.3L636.5,63.5L631.7,66.1L630.3,65.7L627.0,67.9L622.7,69.0L618.8,70.8L606.0,81.9L597.2,86.9L593.0,91.1L589.8,93.0L586.9,95.8L586.0,97.7L579.7,102.7L572.0,104.1L560.6,104.1Z " data-id="CO.LG" data-name="La Guajira" id="CO.LG"/>
utf-8utf-8<path d="M3.1,0.0L0.8,3.8L1.6,6.9L3.4,0.9L3.1,0.0Z " data-id="CO.SA" data-name="San Andrés y Providencia" id="CO.SA"/>
utf-8utf-8<path d="M463.1,540.4L459.9,540.2L457.9,545.7L454.8,546.2L449.4,542.2L440.6,544.6L433.5,548.9L433.3,553.9L429.5,559.2L427.8,559.4L423.2,562.4L420.8,566.5L419.0,563.6L417.1,564.4L417.4,560.2L413.4,552.1L413.0,547.8L410.2,546.2L407.0,548.1L402.9,546.7L398.1,542.9L397.2,545.6L398.5,547.0L398.0,550.6L399.0,555.0L398.6,560.1L396.7,559.4L391.5,559.3L389.0,556.9L388.0,557.0L383.3,560.7L379.5,562.4L379.3,569.6L379.3,571.5L380.4,572.6L386.3,570.7L390.3,570.8L393.6,577.9L392.2,580.1L390.4,580.8L388.2,580.3L386.3,578.7L383.1,578.4L381.4,580.4L382.2,585.9L380.5,589.4L379.9,592.4L376.1,591.6L373.5,597.7L374.9,599.7L375.1,602.1L377.8,605.9L380.7,607.5L383.0,604.4L383.2,601.8L386.0,597.6L388.2,604.1L391.8,605.1L393.3,603.6L395.3,606.4L404.1,608.1L405.4,610.4L409.5,615.0L411.2,617.0L412.9,613.9L414.9,609.5L413.3,606.0L416.0,599.0L413.9,596.4L417.9,590.7L430.9,586.1L434.0,581.2L434.4,579.9L438.0,577.9L443.0,576.6L447.1,577.3L450.6,576.3L455.7,578.3L456.4,578.1L456.3,577.2L460.2,570.8L463.0,564.9L462.7,560.7L463.2,559.5L462.1,557.6L464.7,556.6L463.3,555.7L465.1,550.1L464.3,548.2L465.2,545.2L464.7,544.3L464.8,541.6L464.5,541.1L464.0,540.6L463.7,540.0L463.1,540.4Z " data-id="CO.CL" data-name="Caldas" id="CO.CL"/>
utf-8utf-8<path d="M572.4,622.2L569.1,627.8L566.2,628.0L561.8,626.7L560.6,622.5L556.5,622.5L554.3,618.3L551.8,615.4L549.4,611.3L546.8,610.1L541.0,610.0L539.6,606.5L541.9,601.8L541.7,599.3L544.5,597.0L542.0,582.4L541.0,580.2L537.2,575.0L538.1,572.0L536.9,570.0L534.1,567.0L533.3,564.6L531.5,564.7L528.9,562.5L527.4,562.9L523.8,560.9L524.0,556.9L520.3,558.5L516.3,563.0L515.6,566.1L513.6,566.8L508.9,571.5L504.7,569.3L502.2,566.7L502.3,565.1L498.8,565.3L494.6,562.8L491.8,562.3L491.4,558.0L488.6,554.7L487.8,550.8L489.4,548.1L488.7,541.4L486.5,535.8L484.8,536.5L480.9,539.8L479.2,540.4L472.8,538.5L469.8,540.2L465.9,541.0L464.8,541.6L464.7,544.3L465.2,545.2L464.3,548.2L465.1,550.1L463.3,555.7L464.7,556.6L462.1,557.6L463.2,559.5L462.7,560.7L463.0,564.9L460.2,570.8L456.3,577.2L456.4,578.1L456.4,578.1L456.8,579.8L456.9,592.6L455.7,599.1L456.7,602.8L454.7,604.5L455.4,607.2L453.8,613.2L453.9,618.0L449.5,623.2L451.9,628.7L449.8,633.8L450.7,637.2L450.5,640.4L449.6,643.4L444.3,655.8L444.7,659.0L451.5,657.9L453.8,661.1L455.0,660.7L458.0,663.4L461.1,663.3L463.7,659.6L466.8,658.6L469.6,661.1L472.4,669.8L472.1,671.6L469.4,678.5L468.4,681.6L469.7,684.3L468.7,688.7L466.8,692.6L465.8,698.4L468.0,701.6L470.5,703.8L475.8,695.8L479.6,687.5L479.7,677.7L482.0,671.4L486.8,672.5L488.5,668.2L488.6,664.8L490.8,661.3L493.1,650.5L491.4,648.7L494.2,640.7L494.5,637.5L491.4,630.5L495.9,626.8L495.0,625.0L496.8,622.8L504.8,614.8L506.8,615.8L506.1,619.2L505.1,629.4L507.4,630.3L506.0,635.5L504.4,636.5L500.5,643.4L499.2,644.4L498.9,653.2L495.8,658.4L495.5,660.6L496.4,663.8L499.4,669.1L498.6,671.0L496.8,672.7L496.2,675.9L494.9,679.8L497.0,679.9L500.5,676.1L505.4,672.2L508.7,671.5L512.9,667.8L517.7,665.4L523.4,664.3L522.7,659.6L521.2,657.1L521.2,654.0L519.8,647.0L521.6,644.7L523.3,643.8L528.7,639.3L530.9,641.6L533.9,643.7L535.9,647.0L536.2,650.2L537.6,654.0L542.1,657.7L546.3,655.3L550.7,654.8L559.2,657.2L565.9,662.4L567.0,659.5L569.8,642.3L572.8,623.6L573.5,622.1L572.4,622.2Z " data-id="CO.CU" data-name="Cundinamarca" id="CO.CU"/>
utf-8utf-8<path d="M496.2,675.9L496.8,672.7L498.6,671.0L499.4,669.1L496.4,663.8L495.5,660.6L495.8,658.4L498.9,653.2L499.2,644.4L500.5,643.4L504.4,636.5L506.0,635.5L507.4,630.3L505.1,629.4L506.1,619.2L506.8,615.8L504.8,614.8L496.8,622.8L495.0,625.0L495.9,626.8L491.4,630.5L494.5,637.5L494.2,640.7L491.4,648.7L493.1,650.5L490.8,661.3L488.6,664.8L488.5,668.2L486.8,672.5L482.0,671.4L479.7,677.7L479.6,687.5L475.8,695.8L470.5,703.8L472.5,705.9L474.5,706.0L476.9,701.6L481.7,695.4L484.4,688.4L485.8,686.9L490.0,679.6L491.1,678.8L494.9,679.8L496.2,675.9Z " data-id="CO.CU" data-name="Bogota" id="CO.CU"/>
utf-8utf-8<path d="M408.6,624.7L403.9,626.9L400.2,625.0L388.3,623.3L387.5,623.9L387.8,626.2L387.3,628.2L384.5,628.6L379.7,627.7L376.9,631.8L375.8,636.6L375.7,642.6L376.2,644.1L374.5,646.8L380.1,648.9L381.4,652.8L381.2,656.0L380.0,660.5L378.2,664.4L377.4,669.4L378.0,671.7L381.4,673.5L382.7,674.1L386.4,669.5L390.2,662.5L394.4,656.9L396.1,646.5L397.8,642.7L399.9,639.8L403.4,633.3L406.8,631.3L410.2,624.2L410.1,623.6L408.6,624.7Z " data-id="CO.QD" data-name="Quindío" id="CO.QD"/>
utf-8utf-8<path d="M378.0,562.6L374.8,562.0L369.6,558.4L368.8,556.6L366.8,555.4L364.1,558.6L363.0,565.1L357.8,568.8L356.4,573.3L356.5,576.7L361.9,587.3L362.3,592.4L363.3,594.5L363.1,598.3L363.6,599.0L369.0,608.2L368.9,610.5L370.4,611.9L373.4,611.8L372.7,614.6L373.3,619.4L378.3,619.2L377.8,622.4L379.4,622.0L382.7,623.1L387.5,623.9L388.3,623.3L400.2,625.0L403.9,626.9L408.6,624.7L410.1,623.6L411.2,617.0L409.5,615.0L405.4,610.4L404.1,608.1L395.3,606.4L393.3,603.6L391.8,605.1L388.2,604.1L386.0,597.6L383.2,601.8L383.0,604.4L380.7,607.5L377.8,605.9L375.1,602.1L374.9,599.7L373.5,597.7L376.1,591.6L379.9,592.4L380.5,589.4L382.2,585.9L381.4,580.4L383.1,578.4L386.3,578.7L388.2,580.3L390.4,580.8L392.2,580.1L393.6,577.9L390.3,570.8L386.3,570.7L380.4,572.6L379.3,571.5L379.3,569.6L379.5,562.4L378.0,562.6Z " data-id="CO.RI" data-name="Risaralda" id="CO.RI"/>
utf-8utf-8<path d="M455.7,578.3L450.6,576.3L447.1,577.3L443.0,576.6L438.0,577.9L434.4,579.9L434.0,581.2L430.9,586.1L417.9,590.7L413.9,596.4L416.0,599.0L413.3,606.0L414.9,609.5L412.9,613.9L411.2,617.0L410.1,623.6L410.2,624.2L406.8,631.3L403.4,633.3L399.9,639.8L397.8,642.7L396.1,646.5L394.4,656.9L390.2,662.5L386.4,669.5L382.7,674.1L383.8,676.2L383.7,677.1L380.1,679.7L379.1,682.8L375.5,690.6L370.6,698.6L365.9,708.3L364.5,716.3L362.8,719.7L360.9,729.0L360.0,731.2L361.3,734.7L360.1,736.2L359.6,741.5L358.9,742.6L357.8,743.4L357.2,748.8L356.1,752.0L360.8,756.7L361.7,759.9L361.5,765.1L363.6,763.5L368.3,765.9L373.8,768.2L377.4,767.2L379.0,763.6L381.7,760.5L388.7,754.1L390.0,752.4L390.6,749.8L392.4,747.8L392.7,744.7L396.4,737.5L401.0,731.0L407.4,729.5L411.7,726.8L416.4,729.9L419.6,727.1L422.0,728.7L425.2,725.2L432.1,725.1L430.3,730.2L429.5,735.7L430.1,736.2L436.6,737.4L440.6,736.6L444.5,732.3L450.1,724.6L450.5,718.8L453.4,715.2L453.2,712.8L458.0,706.1L460.9,704.0L465.4,699.5L465.8,698.4L466.8,692.6L468.7,688.7L469.7,684.3L468.4,681.6L469.4,678.5L472.1,671.6L472.4,669.8L469.6,661.1L466.8,658.6L463.7,659.6L461.1,663.3L458.0,663.4L455.0,660.7L453.8,661.1L451.5,657.9L444.7,659.0L444.3,655.8L449.6,643.4L450.5,640.4L450.7,637.2L449.8,633.8L451.9,628.7L449.5,623.2L453.9,618.0L453.8,613.2L455.4,607.2L454.7,604.5L456.7,602.8L455.7,599.1L456.9,592.6L456.8,579.8L456.4,578.1L456.4,578.1L455.7,578.3Z " data-id="CO.TO" data-name="Tolima" id="CO.TO"/>
utf-8utf-8<path d="M518.6,867.4L507.4,867.6L466.2,851.1L463.4,848.9L461.1,845.5L459.6,841.7L459.1,835.3L459.9,832.9L463.9,827.4L464.4,825.9L462.6,820.9L458.5,815.5L456.7,811.2L457.2,801.9L461.4,784.4L461.5,781.6L460.6,780.0L457.0,775.7L455.1,769.9L452.4,766.9L447.7,766.0L440.8,763.4L439.6,763.8L435.2,768.1L432.0,772.6L429.3,779.4L429.8,781.4L432.9,784.5L433.4,786.8L430.5,791.2L424.4,796.4L421.2,796.9L419.2,795.6L416.7,796.6L415.7,798.5L413.3,807.4L411.2,811.4L408.6,814.7L403.0,819.1L401.4,822.4L393.6,836.1L388.3,841.5L380.0,854.7L372.9,864.0L368.2,868.1L364.5,872.5L363.1,873.3L356.0,873.2L351.5,872.3L350.2,873.4L345.7,881.1L344.0,885.0L343.6,887.7L341.5,892.0L340.6,902.4L342.3,906.3L346.7,907.7L350.1,907.4L357.0,914.5L357.9,914.2L367.0,916.4L368.2,921.6L371.9,926.7L376.0,927.8L379.8,929.9L385.9,929.6L389.1,930.0L391.9,931.5L396.1,936.6L398.9,937.8L404.8,938.2L408.8,937.6L410.1,937.9L414.0,944.5L415.6,946.7L415.8,953.4L417.8,957.8L419.3,958.4L428.5,959.3L431.1,959.9L431.9,962.1L432.9,974.8L440.9,979.5L448.8,981.2L451.3,982.8L453.0,985.1L453.4,988.4L452.1,991.2L454.4,992.4L453.4,995.5L454.3,1001.4L457.5,1001.8L459.3,1005.2L460.3,1005.8L464.2,1006.4L465.4,1006.0L467.9,1007.1L468.9,1006.5L469.5,1004.1L471.8,1004.3L472.8,1007.6L476.4,1006.5L480.4,1008.3L483.9,1015.1L487.3,1014.6L489.0,1017.6L493.9,1017.3L497.7,1020.6L500.0,1023.6L504.9,1026.4L510.2,1028.2L510.3,1028.2L515.7,1029.4L522.1,1028.3L529.8,1034.4L532.0,1038.3L537.3,1039.3L547.6,1037.3L548.8,1037.7L556.4,1045.0L559.3,1045.3L565.1,1044.1L566.7,1042.2L571.0,1038.8L578.9,1044.8L583.7,1043.7L586.2,1041.8L588.3,1041.4L590.3,1042.4L597.7,1049.1L601.3,1051.3L602.4,1051.2L607.3,1044.1L611.2,1041.2L613.5,1042.6L615.6,1045.1L618.1,1046.9L621.2,1046.3L623.8,1043.6L624.5,1034.1L628.5,1028.3L631.7,1022.9L635.4,1020.6L638.1,1017.7L642.0,1016.5L651.5,1016.6L656.5,1014.9L657.9,1013.2L659.7,1007.4L662.4,1003.9L666.8,1000.5L679.7,994.1L683.3,991.8L688.1,986.6L685.9,984.2L681.1,981.9L678.9,982.6L672.9,983.0L669.4,980.4L662.4,976.6L659.3,972.1L657.7,971.5L655.6,967.5L654.6,967.3L651.4,968.9L651.0,967.9L651.7,964.1L645.2,958.6L645.8,955.6L644.7,952.1L643.5,951.1L642.2,952.4L641.1,951.5L639.4,945.2L638.3,944.5L635.3,944.1L633.4,940.9L628.9,939.1L624.2,938.8L621.7,934.2L619.1,932.7L619.6,928.8L619.1,927.1L617.4,928.0L615.6,923.2L612.8,922.1L611.1,914.6L607.9,911.2L603.0,909.7L597.3,905.5L594.2,902.8L592.0,901.8L589.4,903.1L587.9,905.8L584.8,902.6L581.1,904.1L580.2,905.4L578.6,914.2L571.3,920.2L568.7,923.3L565.2,923.9L561.5,922.5L556.3,916.5L553.8,915.7L551.9,912.9L544.9,905.9L541.4,901.3L541.1,896.6L540.3,894.0L532.0,883.3L525.0,871.7L524.9,870.6L524.4,868.5L518.6,867.4Z " data-id="CO.CQ" data-name="Caquetá" id="CO.CQ"/>
utf-8utf-8<path d="M236.6,792.9L238.3,791.7L233.8,788.2L231.2,784.3L229.0,784.9L229.4,786.6L232.6,788.1L231.1,790.6L232.3,792.4L236.6,792.9Z M232.5,782.2L232.2,784.5L234.0,787.4L237.2,790.1L240.5,789.8L236.9,786.3L236.1,783.6L234.2,781.4L232.5,782.2Z M210.3,764.8L212.2,762.7L212.5,759.4L210.9,760.3L209.6,763.8L210.3,764.8Z M358.9,742.6L356.3,741.6L346.5,737.1L339.6,736.5L333.9,734.4L332.3,736.4L332.9,743.4L332.3,744.6L325.3,750.8L323.7,749.7L322.0,751.5L319.8,749.7L317.9,751.1L314.2,748.8L309.7,745.0L307.3,749.6L304.3,752.0L303.2,752.2L294.8,747.7L293.7,746.5L289.8,745.0L286.6,744.3L281.2,746.1L278.2,749.3L275.8,749.7L273.6,746.5L271.9,745.6L268.2,746.1L267.0,742.8L262.0,735.6L260.3,736.4L256.5,740.0L256.7,740.8L259.4,740.1L260.4,740.7L258.7,744.1L257.6,743.6L254.2,748.6L248.7,753.7L243.4,761.0L245.7,759.7L247.3,760.8L248.1,759.2L249.2,763.4L250.2,763.6L249.0,767.0L245.1,765.2L244.1,766.0L244.0,770.6L246.1,771.1L243.0,772.2L242.2,773.6L244.7,774.3L238.6,775.8L242.2,776.5L237.9,778.8L236.7,778.2L237.3,781.8L238.5,785.6L240.7,789.0L240.0,791.9L238.8,793.0L229.9,792.8L231.2,788.5L229.8,788.9L226.9,785.3L223.0,786.8L218.9,786.9L218.2,787.5L224.4,792.2L226.5,794.7L227.7,800.9L226.5,808.5L227.6,811.7L232.5,819.9L233.8,824.7L235.8,825.7L243.3,827.4L246.7,826.1L248.8,826.2L254.5,823.4L256.4,823.3L260.5,821.3L270.6,825.1L271.4,826.5L269.3,833.1L274.3,838.0L277.3,839.8L278.3,841.8L277.5,844.1L274.8,847.7L272.3,850.1L271.0,855.1L271.4,856.3L269.2,863.3L274.8,865.0L281.8,863.5L284.1,865.0L296.1,860.3L302.7,869.8L302.0,873.7L297.0,878.1L296.7,879.5L296.9,886.2L297.6,890.1L297.7,893.1L300.0,893.1L305.5,893.5L310.9,889.8L314.7,883.6L315.8,883.2L320.4,885.6L325.0,894.0L325.0,897.6L323.4,901.6L323.1,908.6L323.7,911.9L325.4,914.9L326.8,916.0L336.6,919.7L346.5,920.1L350.8,917.4L355.2,917.0L356.9,914.5L357.0,914.5L350.1,907.4L346.7,907.7L342.3,906.3L340.6,902.4L341.5,892.0L343.6,887.7L344.0,885.0L345.7,881.1L350.2,873.4L351.5,872.3L349.0,871.0L346.3,870.9L337.5,867.3L335.1,865.7L333.3,863.7L330.3,858.0L326.7,852.7L321.7,848.2L320.3,845.3L320.8,839.6L322.7,837.6L322.7,830.8L324.9,828.5L330.5,829.8L333.1,828.7L333.0,825.7L334.7,824.0L337.7,816.0L335.3,809.7L336.3,805.5L339.5,807.1L343.3,810.5L346.4,810.9L359.3,805.4L364.4,800.2L365.3,799.8L371.4,804.9L373.7,804.8L377.2,801.1L375.3,796.7L375.6,794.4L376.9,791.3L378.5,785.7L376.9,781.7L361.9,766.5L361.5,765.1L361.7,759.9L360.8,756.7L356.1,752.0L357.2,748.8L357.8,743.4L358.9,742.6Z " data-id="CO.CA" data-name="Cauca" id="CO.CA"/>
utf-8utf-8<path d="M468.0,701.6L465.8,698.4L465.4,699.5L460.9,704.0L458.0,706.1L453.2,712.8L453.4,715.2L450.5,718.8L450.1,724.6L444.5,732.3L440.6,736.6L436.6,737.4L430.1,736.2L429.5,735.7L430.3,730.2L432.1,725.1L425.2,725.2L422.0,728.7L419.6,727.1L416.4,729.9L411.7,726.8L407.4,729.5L401.0,731.0L396.4,737.5L392.7,744.7L392.4,747.8L390.6,749.8L390.0,752.4L388.7,754.1L381.7,760.5L379.0,763.6L377.4,767.2L373.8,768.2L368.3,765.9L363.6,763.5L361.5,765.1L361.9,766.5L376.9,781.7L378.5,785.7L376.9,791.3L375.6,794.4L375.3,796.7L377.2,801.1L373.7,804.8L371.4,804.9L365.3,799.8L364.4,800.2L359.3,805.4L346.4,810.9L343.3,810.5L339.5,807.1L336.3,805.5L335.3,809.7L337.7,816.0L334.7,824.0L333.0,825.7L333.1,828.7L330.5,829.8L324.9,828.5L322.7,830.8L322.7,837.6L320.8,839.6L320.3,845.3L321.7,848.2L326.7,852.7L330.3,858.0L333.3,863.7L335.1,865.7L337.5,867.3L346.3,870.9L349.0,871.0L351.5,872.3L356.0,873.2L363.1,873.3L364.5,872.5L368.2,868.1L372.9,864.0L380.0,854.7L388.3,841.5L393.6,836.1L401.4,822.4L403.0,819.1L408.6,814.7L411.2,811.4L413.3,807.4L415.7,798.5L416.7,796.6L419.2,795.6L421.2,796.9L424.4,796.4L430.5,791.2L433.4,786.8L432.9,784.5L429.8,781.4L429.3,779.4L432.0,772.6L435.2,768.1L439.6,763.8L440.8,763.4L440.9,762.9L442.9,756.8L445.4,752.1L449.9,748.6L451.7,746.6L456.4,742.9L458.6,738.9L461.5,721.1L466.8,713.3L470.1,706.1L470.5,703.8L468.0,701.6Z " data-id="CO.HU" data-name="Huila" id="CO.HU"/>
utf-8utf-8<path d="M283.7,969.1L284.9,966.2L283.8,958.9L282.4,955.2L283.4,950.8L277.1,945.0L274.4,941.9L281.5,932.0L282.8,931.0L284.9,927.1L289.2,916.1L286.5,912.8L284.9,907.7L286.3,902.8L291.3,900.6L294.3,895.3L295.5,895.2L297.7,893.1L297.6,890.1L296.9,886.2L296.7,879.5L297.0,878.1L302.0,873.7L302.7,869.8L296.1,860.3L284.1,865.0L281.8,863.5L274.8,865.0L269.2,863.3L271.4,856.3L271.0,855.1L272.3,850.1L274.8,847.7L277.5,844.1L278.3,841.8L277.3,839.8L274.3,838.0L269.3,833.1L271.4,826.5L270.6,825.1L260.5,821.3L256.4,823.3L254.5,823.4L248.8,826.2L246.7,826.1L243.3,827.4L235.8,825.7L233.8,824.7L232.5,819.9L227.6,811.7L226.5,808.5L227.7,800.9L226.5,794.7L224.4,792.2L218.2,787.5L216.6,787.1L216.3,789.3L217.5,793.0L215.7,798.8L212.7,799.3L208.6,796.2L206.8,791.7L207.3,790.0L206.1,786.2L204.4,788.4L204.3,790.9L205.4,795.8L203.8,795.8L202.4,793.5L200.0,787.5L199.2,787.4L194.5,791.6L193.0,792.2L187.7,799.8L186.4,799.5L185.6,801.1L183.8,808.5L183.5,804.5L182.8,804.4L178.3,814.4L177.6,816.7L175.7,817.6L173.4,823.7L173.6,827.1L174.7,833.6L176.3,840.7L177.0,840.3L178.4,836.7L179.2,836.2L181.1,838.0L180.4,844.4L182.2,846.9L183.4,851.8L180.7,855.9L179.2,854.5L173.3,853.6L169.0,852.1L166.2,852.0L162.9,852.8L157.2,859.2L155.1,863.1L150.8,866.0L152.1,869.8L158.9,874.7L161.6,873.7L162.1,874.9L162.0,879.1L164.8,882.9L163.7,883.5L167.8,886.7L169.2,889.0L171.3,890.9L173.7,895.6L175.0,896.8L179.4,897.0L181.6,902.4L183.6,901.6L187.5,902.7L188.8,903.8L195.3,912.1L203.8,916.4L212.8,924.1L215.8,925.8L220.7,926.0L225.5,928.0L228.7,931.9L233.2,933.0L240.2,930.3L242.0,930.3L244.0,932.2L244.4,937.9L245.9,940.4L250.5,944.0L253.0,945.1L258.3,945.6L259.2,949.4L259.6,957.7L261.3,964.8L263.1,966.4L265.6,967.4L273.0,969.1L276.4,970.6L278.0,970.5L282.7,968.8L283.7,969.1Z M209.1,784.3L208.4,784.7L209.7,788.7L208.1,791.5L208.7,793.2L213.7,798.8L215.6,798.1L216.4,796.0L215.8,791.7L214.2,789.4L211.8,784.4L209.1,784.3Z " data-id="CO.NA" data-name="Nariño" id="CO.NA"/>
utf-8utf-8<path d="M356.9,914.5L355.2,917.0L350.8,917.4L346.5,920.1L336.6,919.7L326.8,916.0L325.4,914.9L323.7,911.9L323.1,908.6L323.4,901.6L325.0,897.6L325.0,894.0L320.4,885.6L315.8,883.2L314.7,883.6L310.9,889.8L305.5,893.5L300.0,893.1L297.7,893.1L295.5,895.2L294.3,895.3L291.3,900.6L286.3,902.8L284.9,907.7L286.5,912.8L289.2,916.1L284.9,927.1L282.8,931.0L281.5,932.0L274.4,941.9L277.1,945.0L283.4,950.8L282.4,955.2L283.8,958.9L284.9,966.2L283.7,969.1L285.1,969.5L287.8,972.9L289.9,973.7L292.7,973.7L295.4,974.9L296.9,976.7L300.2,978.1L305.0,977.3L309.5,978.6L309.3,975.5L316.0,976.3L320.0,979.5L321.3,980.0L324.1,978.8L331.1,977.9L332.3,976.9L331.6,971.7L331.8,965.3L335.3,964.9L337.1,962.5L340.6,960.9L342.5,963.2L346.8,965.3L351.4,965.7L353.8,969.2L357.1,968.3L358.1,970.4L362.8,977.2L364.2,980.9L365.9,982.8L370.2,985.7L373.6,989.2L375.5,990.4L379.6,991.5L385.6,990.3L386.9,990.9L389.7,993.6L390.9,994.1L394.2,997.4L401.3,1002.0L405.2,1002.9L412.0,1005.2L417.7,999.6L420.9,1000.5L423.7,1002.6L426.4,1006.9L430.2,1008.6L433.0,1012.1L435.5,1013.7L437.8,1014.3L440.5,1014.0L442.2,1010.8L445.5,1013.7L447.9,1019.1L445.5,1021.9L452.8,1025.1L455.8,1024.0L458.5,1028.4L469.3,1038.4L471.8,1040.9L471.8,1041.7L510.3,1028.2L510.2,1028.2L504.9,1026.4L500.0,1023.6L497.7,1020.6L493.9,1017.3L489.0,1017.6L487.3,1014.6L483.9,1015.1L480.4,1008.3L476.4,1006.5L472.8,1007.6L471.8,1004.3L469.5,1004.1L468.9,1006.5L467.9,1007.1L465.4,1006.0L464.2,1006.4L460.3,1005.8L459.3,1005.2L457.5,1001.8L454.3,1001.4L453.4,995.5L454.4,992.4L452.1,991.2L453.4,988.4L453.0,985.1L451.3,982.8L448.8,981.2L440.9,979.5L432.9,974.8L431.9,962.1L431.1,959.9L428.5,959.3L419.3,958.4L417.8,957.8L415.8,953.4L415.6,946.7L414.0,944.5L410.1,937.9L408.8,937.6L404.8,938.2L398.9,937.8L396.1,936.6L391.9,931.5L389.1,930.0L385.9,929.6L379.8,929.9L376.0,927.8L371.9,926.7L368.2,921.6L367.0,916.4L357.9,914.2L357.0,914.5L356.9,914.5Z " data-id="CO.PU" data-name="Putumayo" id="CO.PU"/>
utf-8utf-8<path d="M382.7,623.1L379.4,622.0L377.8,622.4L378.3,619.2L373.3,619.4L372.7,614.6L373.4,611.8L370.4,611.9L368.9,610.5L369.0,608.2L363.6,599.0L363.1,598.3L360.9,600.6L353.2,613.6L347.4,619.1L346.3,624.9L345.3,626.6L337.4,634.3L335.6,639.6L336.0,643.4L335.0,647.0L328.5,649.3L331.5,659.5L331.7,661.5L335.6,664.5L333.1,668.0L331.4,668.5L328.0,671.6L326.3,674.1L320.3,675.3L313.9,680.8L309.6,679.3L307.5,677.7L305.3,678.0L303.6,677.0L299.3,670.6L296.8,670.8L296.1,671.7L290.5,670.7L287.6,667.2L284.2,665.8L280.9,667.0L279.3,665.2L278.8,661.2L278.0,662.2L276.8,663.4L276.5,663.6L271.9,664.9L268.8,667.7L265.9,668.2L265.9,670.4L266.1,672.9L267.5,676.7L266.0,676.9L266.3,680.0L269.8,683.2L269.3,684.3L271.6,685.9L273.7,679.8L274.0,677.6L275.2,675.0L277.1,674.6L277.8,671.8L280.4,674.2L282.9,675.0L281.7,677.8L278.9,682.1L280.3,682.6L276.9,683.2L277.0,681.4L274.9,682.8L274.0,687.6L276.5,689.1L275.3,691.4L277.9,692.9L283.0,692.0L287.1,689.4L287.0,685.9L289.3,687.5L293.6,686.5L290.9,690.8L287.6,692.0L288.2,695.1L286.2,694.0L285.0,695.1L286.6,697.9L286.1,698.8L283.2,699.5L286.3,701.6L281.8,699.5L281.4,703.3L282.4,703.8L286.5,702.7L285.8,703.7L283.1,704.7L283.3,705.9L285.9,705.4L283.9,707.6L282.0,707.1L279.4,713.3L278.3,714.3L276.6,713.2L274.4,716.2L272.2,717.4L275.7,717.3L275.9,719.5L275.0,720.1L276.3,722.2L272.7,721.5L273.0,719.0L271.6,719.0L272.1,720.7L269.4,726.4L269.7,730.2L271.9,733.3L269.5,732.1L268.0,728.8L263.5,730.8L261.2,733.1L261.1,734.7L262.0,735.6L267.0,742.8L268.2,746.1L271.9,745.6L273.6,746.5L275.8,749.7L278.2,749.3L281.2,746.1L286.6,744.3L289.8,745.0L293.7,746.5L294.8,747.7L303.2,752.2L304.3,752.0L307.3,749.6L309.7,745.0L314.2,748.8L317.9,751.1L319.8,749.7L322.0,751.5L323.7,749.7L325.3,750.8L332.3,744.6L332.9,743.4L332.3,736.4L333.9,734.4L339.6,736.5L346.5,737.1L356.3,741.6L358.9,742.6L359.6,741.5L360.1,736.2L361.3,734.7L360.0,731.2L360.9,729.0L362.8,719.7L364.5,716.3L365.9,708.3L370.6,698.6L375.5,690.6L379.1,682.8L380.1,679.7L383.7,677.1L383.8,676.2L382.7,674.1L381.4,673.5L378.0,671.7L377.4,669.4L378.2,664.4L380.0,660.5L381.2,656.0L381.4,652.8L380.1,648.9L374.5,646.8L376.2,644.1L375.7,642.6L375.8,636.6L376.9,631.8L379.7,627.7L384.5,628.6L387.3,628.2L387.8,626.2L387.5,623.9L382.7,623.1Z " data-id="CO.VC" data-name="Valle del Cauca" id="CO.VC"/>
utf-8utf-8<path d="M466.0,175.9L468.6,171.3L469.2,167.7L470.7,164.8L474.9,161.6L476.8,152.2L477.7,145.4L478.2,133.9L478.0,132.4L476.1,129.6L475.8,126.4L470.6,119.1L470.6,119.6L469.4,122.1L465.1,122.4L464.8,123.7L462.1,126.4L457.4,128.7L456.6,132.6L455.6,133.8L451.4,135.5L446.8,138.8L443.7,139.7L442.7,141.0L442.9,141.5L443.0,143.5L442.4,144.7L442.4,145.2L442.8,147.0L441.2,148.6L440.3,149.0L440.3,149.0L441.9,155.4L441.8,157.1L439.7,160.1L438.9,164.2L440.2,166.5L442.8,166.8L445.3,168.1L447.5,173.3L451.4,172.4L454.4,175.9L457.6,178.1L460.5,182.1L461.8,184.0L466.0,175.9Z " data-id="CO.AT" data-name="Atlántico" id="CO.AT"/>
utf-8utf-8<path d="M419.2,177.4L419.1,176.5L416.5,175.3L415.2,179.9L419.2,177.4Z M440.3,148.7L438.8,146.4L436.7,149.0L429.9,151.7L427.2,154.4L426.0,156.8L421.3,159.5L423.1,165.5L423.2,167.1L421.6,171.5L420.5,170.9L422.1,166.6L417.5,170.9L416.4,173.7L418.4,172.0L418.8,174.1L420.2,174.2L420.5,178.2L417.0,182.5L413.3,183.9L413.1,186.4L409.8,190.6L407.7,191.9L406.5,194.6L407.8,194.8L410.8,193.0L413.7,189.7L419.0,186.1L418.1,190.3L416.5,193.3L414.4,195.0L414.4,196.6L414.8,197.9L421.7,193.9L418.2,200.2L417.8,201.5L419.6,202.6L422.0,202.1L422.8,212.8L428.3,214.9L431.6,214.6L430.4,219.6L428.7,229.2L427.3,233.7L428.6,232.3L430.1,233.0L432.8,230.7L440.7,233.5L444.7,238.0L450.3,241.7L452.3,242.3L450.7,246.1L455.3,247.7L456.2,247.3L459.2,249.7L458.2,252.5L456.9,257.9L456.7,261.8L457.5,264.1L458.1,269.6L460.9,272.6L463.3,278.3L468.0,281.3L474.4,287.1L477.5,291.2L481.6,298.3L480.0,302.6L477.4,306.0L478.2,315.1L479.7,318.4L479.5,322.8L480.0,325.5L478.7,330.9L475.9,332.1L475.6,334.1L472.1,338.4L466.3,338.9L463.4,341.0L461.7,341.4L461.9,342.8L461.8,343.8L460.8,345.0L459.8,347.4L459.3,348.6L475.0,363.7L478.0,369.2L478.6,371.5L479.1,379.4L480.4,383.2L482.3,385.4L480.9,389.1L476.5,392.8L475.5,394.8L474.3,401.3L474.4,405.8L475.6,409.2L480.6,414.4L482.0,414.2L489.7,404.1L490.7,408.5L490.3,410.4L487.0,415.6L486.7,422.3L485.9,425.0L488.9,440.8L489.6,441.9L495.9,443.1L519.4,418.9L519.9,415.7L521.8,408.5L521.2,407.4L521.6,402.4L527.3,394.5L527.2,387.7L528.1,385.5L528.9,379.3L527.3,373.2L526.8,367.4L525.8,363.0L526.5,357.6L531.5,351.7L532.3,350.8L532.5,350.0L535.0,337.5L534.3,335.2L535.3,332.8L535.0,327.2L532.9,316.8L531.0,312.6L533.2,298.9L530.1,294.9L529.1,293.3L528.3,291.2L528.3,288.8L529.3,286.5L527.4,285.5L521.5,285.2L519.4,283.8L519.8,282.6L517.7,280.0L516.4,281.8L510.0,280.5L507.1,277.0L504.5,272.2L500.1,270.5L500.1,268.3L496.7,266.1L492.6,266.4L491.5,263.2L487.0,263.7L485.7,265.3L483.3,263.8L478.6,257.0L477.6,254.1L475.3,253.3L473.2,250.4L470.4,251.3L469.1,249.2L466.5,248.9L466.3,245.8L467.7,238.8L468.7,235.6L465.4,228.5L466.8,223.5L466.4,222.2L464.2,219.7L462.8,215.5L463.7,209.1L467.9,206.3L468.4,205.2L466.5,199.2L465.2,197.5L463.1,197.0L459.5,194.3L461.3,185.1L461.8,184.0L460.5,182.1L457.6,178.1L454.4,175.9L451.4,172.4L447.5,173.3L445.3,168.1L442.8,166.8L440.2,166.5L438.9,164.2L439.7,160.1L441.8,157.1L441.9,155.4L440.3,149.0L440.3,148.7Z M442.5,141.3L439.9,142.2L439.6,145.1L442.4,144.4L442.4,144.7L443.0,143.5L442.9,141.5L442.7,141.0L442.5,141.3Z " data-id="CO.BL" data-name="Bolívar" id="CO.BL"/>
utf-8utf-8<path d="M555.8,138.2L555.7,139.1L552.7,144.1L558.2,146.3L554.3,153.7L555.3,160.5L555.0,161.7L556.7,163.8L554.5,166.2L552.5,166.8L548.0,170.1L547.0,171.4L542.2,174.2L531.7,176.9L530.3,178.5L528.1,183.1L525.8,185.6L521.8,191.7L520.2,200.9L524.5,209.5L527.5,211.9L531.2,218.1L534.7,221.8L534.4,225.8L536.0,229.5L537.9,237.1L536.7,238.6L535.0,237.1L532.0,239.0L527.5,239.2L525.4,237.9L520.9,237.6L518.6,238.9L515.0,243.3L512.9,244.9L516.6,247.4L519.4,250.7L522.0,252.8L522.2,257.3L524.5,260.4L524.8,265.5L524.2,268.3L528.0,269.9L531.0,275.0L534.6,280.0L531.2,286.8L529.1,293.3L530.1,294.9L533.2,298.9L531.0,312.6L532.9,316.8L535.0,327.2L535.3,332.8L534.3,335.2L535.0,337.5L532.5,350.0L532.3,350.8L532.6,354.7L537.1,365.6L539.2,367.8L539.0,372.0L534.4,376.2L533.2,384.1L542.0,384.6L541.0,383.8L548.3,387.4L549.5,388.6L551.7,388.8L555.4,386.6L558.1,383.6L561.0,378.6L561.1,374.1L562.3,371.3L563.6,370.7L566.4,366.7L564.3,362.6L561.3,362.3L560.4,356.9L558.5,353.5L558.5,347.2L562.1,337.2L563.3,332.3L563.2,328.8L559.5,327.4L558.5,328.4L559.5,334.0L555.2,337.1L555.1,335.3L551.0,333.1L552.9,330.3L553.9,327.0L549.4,317.0L552.2,310.7L559.2,302.5L559.2,299.0L558.4,295.0L558.9,289.0L560.3,278.2L560.2,275.2L565.5,271.3L564.5,271.3L563.7,269.0L564.6,267.4L569.5,262.5L572.2,255.7L578.3,246.5L579.8,243.0L583.8,239.9L587.8,231.8L592.0,225.1L595.1,218.0L594.0,213.1L595.0,205.2L599.4,191.3L601.8,174.0L601.8,172.4L601.9,171.3L597.5,172.9L593.8,173.4L590.6,172.3L589.2,172.6L583.5,169.0L586.8,164.0L587.8,163.4L591.7,155.3L588.6,151.5L585.9,149.6L580.0,147.1L579.6,146.0L580.1,141.0L578.1,137.7L571.1,136.8L566.6,136.6L555.8,138.2Z " data-id="CO.CE" data-name="Cesar" id="CO.CE"/>
utf-8utf-8<path d="M265.9,668.2L268.8,667.7L271.9,664.9L276.5,663.6L275.5,664.2L271.3,662.8L270.0,665.0L266.6,666.1L265.9,668.0L265.9,668.2Z M271.9,659.3L268.7,654.4L266.9,653.3L267.7,655.0L266.4,655.6L266.7,657.7L264.3,657.7L266.1,659.9L261.7,659.7L260.1,661.2L258.6,664.5L261.2,663.7L262.9,661.8L269.8,662.0L273.3,661.0L274.4,662.7L277.6,659.9L271.9,659.3Z M278.8,661.2L279.3,665.2L280.9,667.0L284.2,665.8L287.6,667.2L290.5,670.7L296.1,671.7L296.8,670.8L299.3,670.6L303.6,677.0L305.3,678.0L307.5,677.7L309.6,679.3L313.9,680.8L320.3,675.3L326.3,674.1L328.0,671.6L331.4,668.5L333.1,668.0L335.6,664.5L331.7,661.5L331.5,659.5L328.5,649.3L335.0,647.0L336.0,643.4L335.6,639.6L337.4,634.3L345.3,626.6L346.3,624.9L347.4,619.1L353.2,613.6L360.9,600.6L363.1,598.3L363.3,594.5L362.3,592.4L361.9,587.3L356.5,576.7L356.4,573.3L357.8,568.8L363.0,565.1L364.1,558.6L366.8,555.4L364.2,552.2L363.3,548.9L364.2,545.5L361.3,532.9L363.4,527.5L363.1,523.9L357.8,522.1L355.9,519.2L354.5,514.3L354.0,509.5L352.2,507.1L344.4,507.0L342.1,507.6L331.7,509.2L322.6,508.6L321.1,506.8L320.9,505.3L318.2,501.0L318.0,499.2L316.1,498.2L317.1,491.5L316.0,488.4L317.4,483.7L315.8,481.3L314.9,481.7L313.0,479.2L313.1,477.8L311.2,475.3L310.3,475.9L310.2,473.3L312.4,471.3L310.0,470.5L305.4,466.2L306.7,464.5L305.5,457.8L309.6,456.6L311.9,455.1L317.6,452.7L318.0,451.5L317.2,446.4L316.1,445.5L316.0,442.8L320.4,441.1L326.4,440.7L334.2,443.3L335.9,443.5L339.0,436.9L339.1,428.0L337.8,423.1L337.0,421.6L332.3,417.6L329.9,417.3L326.8,414.7L321.5,406.9L314.7,398.0L307.7,392.2L299.1,383.0L298.5,379.3L298.7,376.1L300.5,376.5L305.7,371.6L307.4,363.6L309.9,360.6L311.1,356.7L311.0,350.2L309.6,343.3L309.3,343.2L304.9,341.7L299.8,331.2L294.7,327.8L290.3,324.3L286.9,315.0L285.6,310.6L279.7,313.8L279.9,316.6L279.0,318.6L276.1,321.9L275.4,324.3L275.9,326.5L278.0,326.3L280.9,329.6L281.8,332.4L282.6,340.7L283.3,342.0L287.8,347.3L291.9,355.8L293.5,365.0L295.5,367.1L293.0,368.7L286.3,371.3L284.8,373.0L282.8,377.5L280.3,381.4L282.9,386.8L280.7,388.9L270.7,395.7L265.5,400.9L263.2,400.2L262.5,396.2L259.0,389.6L253.3,386.9L252.7,389.8L254.8,399.1L254.2,402.8L250.2,405.4L248.6,405.0L245.8,413.8L243.0,424.3L246.2,427.9L247.8,430.3L249.8,431.0L256.3,439.0L255.9,436.9L257.9,441.5L258.6,444.6L255.7,446.9L255.0,449.2L255.1,454.7L257.0,452.3L263.6,458.5L266.2,465.6L265.6,469.4L267.4,468.3L269.4,465.3L271.0,464.9L274.5,467.0L274.1,471.6L278.3,475.9L278.4,480.7L277.5,481.8L277.0,484.7L275.9,486.8L276.3,489.9L274.4,491.3L275.6,493.2L275.4,498.2L272.9,503.0L271.3,500.6L268.8,498.2L268.3,498.6L267.9,507.0L274.6,518.6L275.6,522.0L276.6,519.9L279.0,528.4L279.0,530.2L282.4,536.0L283.3,538.8L283.4,542.1L282.1,545.6L279.7,547.5L275.2,553.0L271.8,551.4L270.8,551.6L264.9,555.3L263.1,559.2L260.7,561.3L261.2,562.2L266.5,561.1L269.3,563.8L271.5,564.9L272.9,569.2L271.8,571.8L272.8,571.4L274.9,581.8L272.8,589.3L272.8,601.2L273.2,602.5L273.7,612.7L274.2,615.9L275.7,615.3L276.1,618.0L278.9,622.0L279.6,624.6L275.0,620.7L275.4,624.1L277.0,625.1L275.3,626.2L274.9,637.1L272.9,645.1L269.7,652.8L272.2,657.7L280.1,659.3L278.8,661.2Z " data-id="CO.CH" data-name="Chocó" id="CO.CH"/>
utf-8utf-8<path d="M560.6,104.1L550.9,104.8L542.5,104.1L537.7,101.6L534.6,100.9L528.8,97.7L526.3,98.2L524.9,99.8L521.8,99.3L521.0,100.4L517.6,100.9L514.2,108.8L513.2,110.2L513.9,112.3L513.3,115.2L514.3,119.7L509.5,126.8L508.1,131.6L505.5,136.2L505.3,138.9L501.1,145.4L497.2,146.1L495.5,145.0L494.3,138.6L491.7,141.6L491.8,142.8L493.6,143.3L493.2,144.6L490.1,144.9L490.3,141.1L488.3,140.3L486.4,143.3L486.9,136.5L487.5,135.1L492.0,135.2L494.9,137.8L493.4,134.1L493.1,130.8L497.1,128.0L503.8,128.3L507.3,127.5L505.6,127.0L500.9,127.4L489.3,125.3L484.3,123.4L477.7,120.3L470.6,118.2L470.6,119.1L475.8,126.4L476.1,129.6L478.0,132.4L478.2,133.9L477.7,145.4L476.8,152.2L474.9,161.6L470.7,164.8L469.2,167.7L468.6,171.3L466.0,175.9L461.8,184.0L461.3,185.1L459.5,194.3L463.1,197.0L465.2,197.5L466.5,199.2L468.4,205.2L467.9,206.3L463.7,209.1L462.8,215.5L464.2,219.7L466.4,222.2L466.8,223.5L465.4,228.5L468.7,235.6L467.7,238.8L466.3,245.8L466.5,248.9L469.1,249.2L470.4,251.3L473.2,250.4L475.3,253.3L477.6,254.1L478.6,257.0L483.3,263.8L485.7,265.3L487.0,263.7L491.5,263.2L492.6,266.4L496.7,266.1L500.1,268.3L500.1,270.5L504.5,272.2L507.1,277.0L510.0,280.5L516.4,281.8L517.7,280.0L519.8,282.6L519.4,283.8L521.5,285.2L527.4,285.5L529.3,286.5L528.3,288.8L528.3,291.2L529.1,293.3L531.2,286.8L534.6,280.0L531.0,275.0L528.0,269.9L524.2,268.3L524.8,265.5L524.5,260.4L522.2,257.3L522.0,252.8L519.4,250.7L516.6,247.4L512.9,244.9L515.0,243.3L518.6,238.9L520.9,237.6L525.4,237.9L527.5,239.2L532.0,239.0L535.0,237.1L536.7,238.6L537.9,237.1L536.0,229.5L534.4,225.8L534.7,221.8L531.2,218.1L527.5,211.9L524.5,209.5L520.2,200.9L521.8,191.7L525.8,185.6L528.1,183.1L530.3,178.5L531.7,176.9L542.2,174.2L547.0,171.4L548.0,170.1L552.5,166.8L554.5,166.2L556.7,163.8L555.0,161.7L555.3,160.5L554.3,153.7L558.2,146.3L552.7,144.1L555.7,139.1L555.8,138.2L554.6,132.4L554.2,128.1L553.4,126.6L554.9,118.0L555.0,115.0L559.1,110.8L560.7,106.3L560.6,104.1L560.6,104.1Z " data-id="CO.MA" data-name="Magdalena" id="CO.MA"/>
utf-8utf-8<path d="M393.2,222.6L392.9,222.4L392.9,222.6L393.2,222.6Z M395.9,221.3L394.8,221.0L394.1,221.6L395.9,221.3Z M415.3,199.3L410.8,218.0L408.7,224.5L404.5,228.9L410.5,229.8L412.5,233.0L413.2,235.2L412.9,239.9L411.2,244.9L409.4,248.5L403.9,251.4L403.8,251.4L403.5,256.3L411.5,260.2L413.6,263.2L416.2,263.8L419.3,265.5L419.6,269.0L421.4,272.3L433.2,278.6L436.1,281.1L435.6,283.2L436.8,285.2L435.9,290.4L428.7,293.4L425.3,296.9L424.9,300.0L426.0,304.9L425.5,309.8L426.7,314.9L426.7,322.3L428.2,325.5L433.3,328.7L435.7,331.7L443.3,327.7L450.2,325.1L454.1,326.4L456.6,328.6L458.4,332.3L461.6,335.8L461.9,337.0L461.7,341.4L463.4,341.0L466.3,338.9L472.1,338.4L475.6,334.1L475.9,332.1L478.7,330.9L480.0,325.5L479.5,322.8L479.7,318.4L478.2,315.1L477.4,306.0L480.0,302.6L481.6,298.3L477.5,291.2L474.4,287.1L468.0,281.3L463.3,278.3L460.9,272.6L458.1,269.6L457.5,264.1L456.7,261.8L456.9,257.9L458.2,252.5L459.2,249.7L456.2,247.3L455.3,247.7L450.7,246.1L452.3,242.3L450.3,241.7L444.7,238.0L440.7,233.5L432.8,230.7L430.1,233.0L428.6,232.3L427.3,233.7L428.7,229.2L430.4,219.6L431.6,214.6L428.3,214.9L422.8,212.8L422.0,202.1L419.6,202.6L417.8,201.5L418.2,200.2L421.7,193.9L414.8,197.9L415.3,199.3Z " data-id="CO.SU" data-name="Sucre" id="CO.SU"/>
utf-8utf-8<path d="M829.1,512.3L785.8,447.2L783.6,444.9L776.4,445.3L772.4,447.8L770.2,447.7L757.1,442.0L753.0,436.5L745.9,436.3L743.9,434.9L741.8,434.9L737.6,436.0L734.5,436.3L730.4,437.3L728.7,439.6L725.6,442.0L722.1,443.5L718.3,444.0L713.4,443.4L709.9,445.7L707.9,444.5L703.6,444.0L703.2,441.3L698.6,441.2L694.1,440.3L683.4,439.7L681.5,440.4L679.8,438.6L677.4,438.5L676.2,440.6L674.3,440.0L669.0,440.5L664.7,443.8L661.4,443.8L655.6,442.3L651.2,453.8L649.8,456.6L648.8,460.0L645.2,464.2L643.0,479.3L640.6,484.4L636.9,485.9L635.0,488.2L633.0,487.3L631.4,489.3L630.7,492.2L628.8,494.1L626.9,497.4L626.9,501.1L628.3,504.1L630.9,507.2L632.5,511.0L639.5,516.1L642.4,516.5L646.5,513.2L650.3,512.2L654.4,510.1L660.7,509.7L670.2,506.1L675.5,506.1L677.1,505.4L686.5,506.5L696.7,503.9L701.0,501.5L704.9,501.4L706.4,500.3L718.6,502.3L723.5,504.4L730.9,504.8L735.4,503.5L743.6,505.4L749.0,504.4L752.6,504.1L759.7,502.0L764.6,500.1L767.8,500.0L769.9,500.8L780.1,501.0L782.3,502.2L788.5,510.1L794.4,512.9L796.0,514.4L797.8,518.8L800.0,519.9L800.7,519.0L802.8,517.6L805.1,517.0L819.9,517.7L822.7,517.0L829.9,512.3L829.1,512.3Z " data-id="CO.AR" data-name="Arauca" id="CO.AR"/>
utf-8utf-8<path d="M565.5,271.3L560.2,275.2L560.3,278.2L558.9,289.0L558.4,295.0L559.2,299.0L559.2,302.5L552.2,310.7L549.4,317.0L553.9,327.0L552.9,330.3L551.0,333.1L555.1,335.3L555.2,337.1L559.5,334.0L558.5,328.4L559.5,327.4L563.2,328.8L563.3,332.3L562.1,337.2L558.5,347.2L558.5,353.5L560.4,356.9L561.3,362.3L564.3,362.6L566.4,366.7L563.6,370.7L562.3,371.3L561.1,374.1L561.0,378.6L558.1,383.6L555.4,386.6L551.7,388.8L549.5,388.6L548.3,387.4L541.0,383.8L542.0,384.6L543.1,386.0L547.5,389.7L550.1,394.7L557.7,397.3L561.2,399.5L567.1,399.0L567.9,395.5L570.2,392.9L583.4,393.6L585.9,394.2L586.7,400.6L591.6,405.0L591.8,408.8L595.4,414.5L595.1,418.9L592.4,422.5L594.7,425.9L595.7,429.9L591.5,436.9L594.0,439.2L595.6,439.5L601.1,443.6L603.2,442.5L606.3,444.9L607.1,443.5L611.2,443.0L614.6,444.3L614.6,451.9L617.1,450.6L617.6,449.5L619.3,449.9L623.2,452.3L626.0,452.4L627.3,451.6L630.9,447.3L633.0,442.3L637.5,443.2L640.6,439.6L646.2,439.7L650.8,441.7L653.6,441.7L653.6,441.7L651.2,439.7L647.7,437.5L646.5,435.9L643.0,427.5L642.3,425.3L641.9,419.9L642.7,416.7L639.9,412.5L637.6,411.8L631.9,411.9L625.5,410.0L623.0,407.9L621.2,404.4L621.1,402.5L622.6,397.6L621.4,391.3L622.4,383.0L624.2,373.4L623.9,372.0L621.8,368.5L625.4,365.4L628.1,360.1L632.0,360.2L633.2,358.4L633.2,355.3L632.0,349.9L629.9,345.0L629.7,342.0L630.4,339.4L630.1,335.4L624.3,329.6L612.8,314.6L611.5,312.0L605.8,281.1L604.4,278.1L605.5,276.3L602.8,273.2L600.3,273.5L593.7,276.2L592.2,272.5L592.6,269.2L591.0,261.6L589.0,261.1L585.8,264.3L581.1,266.7L578.6,269.3L576.0,270.7L573.1,271.1L565.5,271.3Z " data-id="CO.NS" data-name="Norte de Santander" id="CO.NS"/>
utf-8utf-8<path d="M797.8,518.8L796.0,514.4L794.4,512.9L788.5,510.1L782.3,502.2L780.1,501.0L769.9,500.8L767.8,500.0L764.6,500.1L759.7,502.0L752.6,504.1L749.0,504.4L743.6,505.4L735.4,503.5L730.9,504.8L723.5,504.4L718.6,502.3L706.4,500.3L704.9,501.4L701.0,501.5L696.7,503.9L686.5,506.5L677.1,505.4L675.5,506.1L670.2,506.1L660.7,509.7L654.4,510.1L650.3,512.2L646.5,513.2L642.4,516.5L639.5,516.1L632.5,511.0L630.9,507.2L628.3,504.1L626.9,501.1L626.9,497.4L628.8,494.1L626.4,495.5L623.3,500.8L621.8,505.8L624.6,513.3L626.7,515.7L625.4,519.3L624.6,523.3L622.6,529.8L618.7,531.9L618.6,533.5L625.2,537.6L627.9,539.9L628.4,541.7L632.8,547.1L630.3,549.7L628.5,554.0L626.7,561.1L626.1,561.6L621.3,556.5L618.0,559.1L610.0,568.5L607.4,573.1L604.4,575.0L600.2,579.1L598.8,579.0L593.6,571.4L592.2,570.7L582.8,582.1L582.9,584.9L581.5,588.4L582.4,592.0L584.6,594.6L581.3,600.8L579.6,602.8L577.0,601.6L574.4,607.5L574.1,611.1L572.6,616.1L573.8,620.7L573.5,622.1L573.9,624.5L577.4,628.9L581.8,638.7L591.6,651.0L591.4,652.6L593.5,652.7L593.8,655.5L598.6,655.0L605.0,655.8L606.7,652.7L610.8,654.9L615.9,652.2L620.5,653.1L623.7,647.9L624.7,647.4L637.5,644.9L640.1,646.9L642.8,649.6L645.4,648.8L648.2,646.9L653.6,641.9L662.4,634.4L668.7,632.2L671.7,630.6L677.3,626.3L697.9,616.5L702.1,615.8L711.2,609.5L713.1,607.5L714.0,606.7L715.6,604.4L720.6,591.8L721.7,590.4L725.8,588.9L738.4,576.8L740.9,570.3L742.1,569.1L752.7,562.7L757.4,558.9L760.4,558.1L764.8,556.2L767.4,555.6L773.0,555.3L775.9,554.6L782.6,550.0L784.3,548.1L787.2,542.9L790.3,539.4L791.5,537.1L796.9,524.3L798.6,521.6L800.0,519.9L797.8,518.8Z " data-id="CO.CS" data-name="Casanare" id="CO.CS"/>
utf-8utf-8<path d="M707.4,770.3L701.4,768.7L698.9,770.7L692.0,767.0L690.7,770.6L688.2,769.4L686.4,771.7L682.2,769.3L681.3,771.0L677.5,770.4L674.7,770.7L672.6,772.6L669.5,774.1L667.7,770.4L666.2,771.7L660.9,769.4L660.9,771.8L659.3,773.6L658.8,771.3L654.6,772.9L643.6,775.4L642.0,774.0L639.3,773.7L636.7,772.3L635.8,770.4L629.8,771.6L628.5,777.3L627.6,777.6L625.3,783.5L623.2,779.1L621.3,782.0L618.6,780.2L617.4,780.3L614.6,783.0L606.6,785.8L604.2,785.2L605.4,787.4L602.5,790.6L599.1,790.6L598.6,793.9L597.2,793.3L596.8,790.6L593.6,790.6L591.2,794.4L589.4,793.9L585.5,791.5L579.4,795.4L577.1,798.0L577.5,801.7L576.0,802.0L571.2,806.2L569.4,805.6L565.4,808.5L563.9,807.5L563.4,809.1L561.8,810.1L560.4,808.2L557.5,808.0L555.3,809.3L555.0,811.5L547.1,810.7L542.1,811.9L541.5,808.2L539.1,810.5L536.8,810.8L535.0,808.4L532.9,809.9L529.3,809.1L528.7,809.7L526.2,818.7L526.2,828.8L525.4,867.1L524.4,868.5L524.9,870.6L525.0,871.7L532.0,883.3L540.3,894.0L541.1,896.6L541.4,901.3L544.9,905.9L551.9,912.9L553.8,915.7L556.3,916.5L561.5,922.5L565.2,923.9L568.7,923.3L571.3,920.2L578.6,914.2L580.2,905.4L581.1,904.1L584.8,902.6L587.9,905.8L589.4,903.1L592.0,901.8L594.2,902.8L597.3,905.5L603.0,909.7L607.9,911.2L611.1,914.6L612.8,922.1L615.6,923.2L617.4,928.0L619.1,927.1L619.6,928.8L619.1,932.7L621.7,934.2L624.2,938.8L628.9,939.1L633.4,940.9L635.3,944.1L638.3,944.5L651.5,929.0L655.9,924.5L658.0,920.2L659.0,919.3L663.8,919.3L667.0,915.6L669.9,911.4L670.0,909.0L673.2,905.4L673.6,908.0L675.7,908.8L674.5,905.1L672.4,900.8L673.2,895.8L676.5,887.1L681.1,873.2L683.1,870.5L684.3,859.9L685.4,859.7L687.3,861.4L693.1,864.6L700.4,858.0L706.2,854.6L714.0,850.3L718.0,845.4L729.6,845.2L735.9,846.3L738.1,845.0L746.9,842.5L750.7,839.6L758.1,838.6L760.6,837.7L767.8,836.2L771.6,833.1L774.6,830.7L774.8,829.0L782.1,823.1L782.5,821.8L778.6,816.0L775.9,817.0L768.9,818.8L762.3,818.3L761.6,820.4L752.7,817.8L747.7,819.3L747.6,817.7L740.9,814.9L737.9,810.4L735.1,804.0L731.8,798.5L723.6,793.3L719.7,791.8L720.1,789.5L748.0,776.6L741.6,772.1L737.6,772.8L734.5,769.9L735.0,773.5L731.6,776.8L730.1,774.2L727.4,775.7L722.6,773.1L720.8,774.1L720.8,771.7L719.8,770.8L717.8,772.6L717.0,771.1L714.9,774.1L714.1,771.0L710.3,769.6L708.7,769.9L707.4,770.3Z " data-id="CO.GV" data-name="Guaviare" id="CO.GV"/>
utf-8utf-8<path d="M944.8,677.2L942.5,678.6L939.0,684.0L936.1,686.3L933.4,686.5L928.3,683.7L924.9,685.4L924.0,680.5L922.4,683.4L917.6,680.2L913.9,686.1L911.6,685.8L912.5,683.4L911.8,682.5L907.2,684.8L906.2,680.1L904.7,679.4L899.1,679.4L900.3,682.8L898.1,686.9L895.1,687.0L893.4,689.3L894.1,690.4L887.3,694.9L886.8,696.1L879.6,697.6L876.4,696.4L874.9,697.9L872.8,698.4L871.5,701.6L868.7,701.1L867.8,701.9L868.1,704.9L866.5,704.9L864.3,703.6L858.3,703.8L857.9,708.1L857.0,708.8L851.5,707.6L849.1,710.9L848.0,711.3L846.7,709.8L846.5,707.6L844.6,706.1L841.6,707.9L841.4,706.0L839.0,704.1L836.9,704.0L834.1,702.0L832.9,704.1L831.7,703.2L824.3,705.2L821.4,702.9L817.9,704.3L811.6,705.2L812.0,707.4L811.6,710.5L808.9,712.4L808.1,717.4L804.9,714.5L800.8,715.3L796.0,715.1L793.6,717.5L791.7,714.7L788.8,716.4L786.8,719.5L784.2,718.2L779.8,717.6L778.5,717.9L780.3,721.2L779.3,725.9L778.5,726.6L775.7,726.5L775.5,728.5L773.4,733.1L773.7,739.1L774.8,741.3L770.6,745.0L769.7,744.0L767.2,746.0L764.6,749.0L762.1,753.4L764.4,754.0L764.8,756.0L763.0,757.1L764.0,762.7L763.5,764.1L759.8,766.7L758.0,770.6L750.4,774.5L748.0,776.6L720.1,789.5L719.7,791.8L723.6,793.3L731.8,798.5L735.1,804.0L737.9,810.4L740.9,814.9L747.6,817.7L747.7,819.3L752.7,817.8L761.6,820.4L762.3,818.3L768.9,818.8L775.9,817.0L778.6,816.0L782.5,821.8L782.1,823.1L774.8,829.0L774.6,830.7L774.3,834.1L773.5,838.2L770.4,846.5L770.7,849.1L778.1,856.1L783.7,859.0L787.0,859.3L790.1,860.3L792.6,861.9L795.0,861.9L799.3,859.7L806.1,859.4L810.9,856.9L813.6,856.7L818.7,857.9L823.9,860.5L839.0,860.9L910.0,860.8L908.8,860.1L907.3,857.0L904.7,856.9L904.8,853.7L903.3,849.9L907.7,838.1L908.6,839.7L912.8,842.2L917.4,853.3L919.2,856.3L921.5,858.5L923.9,859.3L931.2,857.6L934.0,855.8L936.1,853.6L944.8,840.8L950.2,834.4L953.0,832.9L956.1,830.2L958.5,829.9L961.1,827.7L962.1,827.8L967.9,831.6L969.3,834.5L971.4,840.7L973.0,844.1L980.5,855.5L983.1,861.7L985.4,870.0L986.0,875.1L984.0,897.8L984.8,904.0L986.3,904.2L999.6,900.3L997.9,895.0L999.2,892.1L998.6,888.3L995.5,883.2L995.8,878.2L992.7,870.4L992.6,865.2L986.8,847.1L985.2,843.0L982.2,838.5L983.9,834.9L983.3,829.3L980.0,827.5L976.8,817.7L979.9,812.1L979.1,808.3L976.0,805.3L973.5,804.4L969.5,801.1L966.3,796.7L959.5,789.1L958.6,786.3L953.1,784.7L951.9,782.3L951.6,778.7L950.2,775.5L948.9,774.3L944.5,774.9L940.3,772.0L938.9,772.8L935.2,773.2L932.9,776.2L933.0,770.8L936.0,766.7L961.8,740.2L965.8,738.4L970.2,732.4L972.1,729.1L972.5,725.8L970.2,723.1L965.7,719.6L961.3,705.7L959.4,702.7L956.8,701.3L952.7,701.6L951.4,700.9L948.9,691.5L946.2,686.0L945.8,679.4L944.8,677.2L944.8,677.2Z " data-id="CO.GN" data-name="Guainía" id="CO.GN"/>
utf-8utf-8<path d="M709.6,730.9L713.1,607.5L711.2,609.5L702.1,615.8L697.9,616.5L677.3,626.3L671.7,630.6L668.7,632.2L662.4,634.4L653.6,641.9L648.2,646.9L645.4,648.8L642.8,649.6L640.1,646.9L637.5,644.9L624.7,647.4L623.7,647.9L620.5,653.1L615.9,652.2L610.8,654.9L606.7,652.7L605.0,655.8L598.6,655.0L593.8,655.5L593.5,652.7L591.4,652.6L591.6,651.0L581.8,638.7L577.4,628.9L573.9,624.5L573.5,622.1L572.8,623.6L569.8,642.3L567.0,659.5L565.9,662.4L559.2,657.2L550.7,654.8L546.3,655.3L542.1,657.7L537.6,654.0L536.2,650.2L535.9,647.0L533.9,643.7L530.9,641.6L528.7,639.3L523.3,643.8L521.6,644.7L519.8,647.0L521.2,654.0L521.2,657.1L522.7,659.6L523.4,664.3L517.7,665.4L512.9,667.8L508.7,671.5L505.4,672.2L500.5,676.1L497.0,679.9L494.9,679.8L491.1,678.8L490.0,679.6L485.8,686.9L484.4,688.4L481.7,695.4L476.9,701.6L474.5,706.0L472.5,705.9L470.5,703.8L470.1,706.1L466.8,713.3L461.5,721.1L458.6,738.9L456.4,742.9L451.7,746.6L449.9,748.6L445.4,752.1L442.9,756.8L440.9,762.9L440.8,763.4L447.7,766.0L452.4,766.9L455.1,769.9L457.0,775.7L460.6,780.0L461.5,781.6L461.4,784.4L457.2,801.9L456.7,811.2L458.5,815.5L462.6,820.9L464.4,825.9L463.9,827.4L459.9,832.9L459.1,835.3L459.6,841.7L461.1,845.5L463.4,848.9L466.2,851.1L507.4,867.6L518.6,867.4L524.4,868.5L525.4,867.1L526.2,828.8L526.2,818.7L528.7,809.7L529.3,809.1L532.9,809.9L535.0,808.4L536.8,810.8L539.1,810.5L541.5,808.2L542.1,811.9L547.1,810.7L555.0,811.5L555.3,809.3L557.5,808.0L560.4,808.2L561.8,810.1L563.4,809.1L563.9,807.5L565.4,808.5L569.4,805.6L571.2,806.2L576.0,802.0L577.5,801.7L577.1,798.0L579.4,795.4L585.5,791.5L589.4,793.9L591.2,794.4L593.6,790.6L596.8,790.6L597.2,793.3L598.6,793.9L599.1,790.6L602.5,790.6L605.4,787.4L604.2,785.2L606.6,785.8L614.6,783.0L617.4,780.3L618.6,780.2L621.3,782.0L623.2,779.1L625.3,783.5L627.6,777.6L628.5,777.3L629.8,771.6L635.8,770.4L636.7,772.3L639.3,773.7L642.0,774.0L643.6,775.4L654.6,772.9L658.8,771.3L659.3,773.6L660.9,771.8L660.9,769.4L666.2,771.7L667.7,770.4L669.5,774.1L672.6,772.6L674.7,770.7L677.5,770.4L681.3,771.0L682.2,769.3L686.4,771.7L688.2,769.4L690.7,770.6L692.0,767.0L698.9,770.7L701.4,768.7L707.4,770.3L708.7,769.9L709.6,730.9Z " data-id="CO.ME" data-name="Meta" id="CO.ME"/>
utf-8utf-8<path d="M774.6,830.7L771.6,833.1L767.8,836.2L760.6,837.7L758.1,838.6L750.7,839.6L746.9,842.5L738.1,845.0L735.9,846.3L729.6,845.2L718.0,845.4L714.0,850.3L706.2,854.6L700.4,858.0L693.1,864.6L687.3,861.4L685.4,859.7L684.3,859.9L683.1,870.5L681.1,873.2L676.5,887.1L673.2,895.8L672.4,900.8L674.5,905.1L675.7,908.8L673.6,908.0L673.2,905.4L670.0,909.0L669.9,911.4L667.0,915.6L663.8,919.3L659.0,919.3L658.0,920.2L655.9,924.5L651.5,929.0L638.3,944.5L639.4,945.2L641.1,951.5L642.2,952.4L643.5,951.1L644.7,952.1L645.8,955.6L645.2,958.6L651.7,964.1L651.0,967.9L651.4,968.9L654.6,967.3L655.6,967.5L657.7,971.5L659.3,972.1L662.4,976.6L669.4,980.4L672.9,983.0L678.9,982.6L681.1,981.9L685.9,984.2L688.1,986.6L689.7,988.3L698.4,987.9L699.5,989.5L700.1,992.8L706.4,996.9L712.6,998.1L714.7,1001.5L714.9,1008.6L717.6,1012.4L719.2,1017.7L721.9,1022.8L725.5,1022.6L727.4,1019.3L728.7,1019.2L731.5,1020.6L733.6,1022.4L737.5,1022.5L740.9,1025.6L745.6,1025.6L748.6,1029.4L749.3,1034.0L752.2,1033.8L755.9,1034.7L758.3,1030.5L762.3,1029.2L763.9,1029.7L765.1,1032.5L760.8,1037.1L759.3,1039.4L759.4,1041.2L762.4,1040.7L763.6,1041.8L763.5,1047.8L764.3,1054.1L761.6,1056.7L762.3,1059.5L765.9,1064.6L764.4,1067.3L761.5,1069.7L761.3,1071.0L763.9,1075.3L767.8,1072.8L767.2,1078.1L771.3,1081.9L772.6,1082.3L775.9,1079.8L775.0,1077.7L772.2,1074.3L773.9,1071.7L775.9,1071.0L778.5,1072.1L780.7,1070.0L782.9,1071.2L786.0,1069.7L788.0,1070.3L784.6,1078.6L785.7,1080.6L787.1,1080.8L790.4,1078.4L792.1,1078.3L795.2,1079.8L798.6,1076.1L801.7,1076.5L805.8,1082.0L804.8,1086.0L804.9,1087.5L806.8,1089.4L810.4,1087.0L811.4,1087.2L816.4,1090.0L821.6,1095.2L821.6,1095.2L823.0,1090.8L822.2,1088.4L819.5,1083.6L820.1,1080.1L819.9,1077.0L816.3,1072.8L813.5,1071.1L813.2,1067.5L810.6,1064.3L810.1,1060.4L807.4,1057.0L809.8,1048.1L807.2,1038.6L804.0,1035.3L798.4,1033.0L791.6,1026.7L789.3,1023.3L786.5,1022.6L779.3,1015.0L775.8,1009.8L775.4,1007.0L776.9,950.5L791.5,949.7L799.4,946.5L802.1,944.1L807.3,945.6L814.1,940.0L818.7,939.4L819.9,940.4L829.5,945.1L829.9,948.2L834.8,948.4L836.6,946.5L840.6,946.6L841.0,945.6L840.0,942.4L837.4,940.5L837.2,939.4L839.0,937.2L838.5,930.2L840.1,928.4L836.1,925.2L836.5,922.4L835.0,921.3L830.7,914.9L827.2,912.8L821.6,915.6L817.4,913.1L815.2,913.5L807.5,912.1L800.8,913.3L800.0,911.3L797.6,910.7L795.8,911.2L792.9,913.4L791.3,913.2L792.0,864.9L791.6,861.9L792.6,861.9L790.1,860.3L787.0,859.3L783.7,859.0L778.1,856.1L770.7,849.1L770.4,846.5L773.5,838.2L774.3,834.1L774.6,830.7Z " data-id="CO.VP" data-name="Vaupés" id="CO.VP"/>
utf-8utf-8<path d="M829.9,512.3L822.7,517.0L819.9,517.7L805.1,517.0L802.8,517.6L800.7,519.0L800.0,519.9L798.6,521.6L796.9,524.3L791.5,537.1L790.3,539.4L787.2,542.9L784.3,548.1L782.6,550.0L775.9,554.6L773.0,555.3L767.4,555.6L764.8,556.2L760.4,558.1L757.4,558.9L752.7,562.7L742.1,569.1L740.9,570.3L738.4,576.8L725.8,588.9L721.7,590.4L720.6,591.8L715.6,604.4L714.0,606.7L713.1,607.5L709.6,730.9L708.7,769.9L710.3,769.6L714.1,771.0L714.9,774.1L717.0,771.1L717.8,772.6L719.8,770.8L720.8,771.7L720.8,774.1L722.6,773.1L727.4,775.7L730.1,774.2L731.6,776.8L735.0,773.5L734.5,769.9L737.6,772.8L741.6,772.1L748.0,776.6L750.4,774.5L758.0,770.6L759.8,766.7L763.5,764.1L764.0,762.7L763.0,757.1L764.8,756.0L764.4,754.0L762.1,753.4L764.6,749.0L767.2,746.0L769.7,744.0L770.6,745.0L774.8,741.3L773.7,739.1L773.4,733.1L775.5,728.5L775.7,726.5L778.5,726.6L779.3,725.9L780.3,721.2L778.5,717.9L779.8,717.6L784.2,718.2L786.8,719.5L788.8,716.4L791.7,714.7L793.6,717.5L796.0,715.1L800.8,715.3L804.9,714.5L808.1,717.4L808.9,712.4L811.6,710.5L812.0,707.4L811.6,705.2L817.9,704.3L821.4,702.9L824.3,705.2L831.7,703.2L832.9,704.1L834.1,702.0L836.9,704.0L839.0,704.1L841.4,706.0L841.6,707.9L844.6,706.1L846.5,707.6L846.7,709.8L848.0,711.3L849.1,710.9L851.5,707.6L857.0,708.8L857.9,708.1L858.3,703.8L864.3,703.6L866.5,704.9L868.1,704.9L867.8,701.9L868.7,701.1L871.5,701.6L872.8,698.4L874.9,697.9L876.4,696.4L879.6,697.6L886.8,696.1L887.3,694.9L894.1,690.4L893.4,689.3L895.1,687.0L898.1,686.9L900.3,682.8L899.1,679.4L904.7,679.4L906.2,680.1L907.2,684.8L911.8,682.5L912.5,683.4L911.6,685.8L913.9,686.1L917.6,680.2L922.4,683.4L924.0,680.5L924.9,685.4L928.3,683.7L933.4,686.5L936.1,686.3L939.0,684.0L942.5,678.6L944.8,677.2L945.1,675.9L943.4,670.9L940.8,668.1L940.2,666.6L939.1,659.1L940.9,651.5L940.0,649.8L938.4,642.5L935.0,639.0L934.9,637.1L936.3,635.5L937.2,625.7L938.9,621.5L939.8,613.8L939.0,609.5L940.7,601.8L940.7,598.3L941.7,596.1L939.5,590.8L940.6,586.4L940.5,584.5L938.7,577.6L939.5,574.3L941.3,571.2L944.3,568.6L945.1,568.8L949.6,565.7L952.9,562.9L953.8,560.0L955.4,557.3L953.9,555.4L953.2,549.2L953.3,545.6L954.0,542.2L955.2,539.0L956.9,536.2L961.2,531.7L961.9,530.5L969.8,523.7L969.5,518.9L967.8,517.5L965.4,512.9L966.6,507.8L968.0,506.7L965.6,506.0L960.0,500.9L949.1,498.0L941.6,497.6L940.2,499.1L936.9,500.2L936.0,502.8L928.8,505.2L919.9,504.2L916.8,504.7L908.8,507.9L906.2,508.0L898.7,506.5L893.5,508.2L889.2,508.5L885.5,511.2L883.9,511.0L872.1,507.1L867.7,507.4L863.0,505.9L861.7,506.3L856.0,504.7L851.1,508.5L846.8,513.0L842.7,515.6L841.2,514.2L838.4,510.4L837.0,509.6L835.1,510.0L829.9,512.3L829.9,512.3Z " data-id="CO.VD" data-name="Vichada" id="CO.VD"/>
utf-8</g>
</svg>
