<?xml version="1.0" ?>
<!DOCTYPE svg
  PUBLIC '-//W3C//DTD SVG 1.1//EN'
  'http://www.w3.org/Graphics/SVG/1.1/DTD/svg11.dtd'>
<svg enable_background="new 0 0 1000 1100" height="1100px" pretty_print="True" style="stroke-linejoin: round; stroke:#000; fill: none;" version="1.1" viewBox="0 0 1000 1100" width="1000px" xmlns="http://www.w3.org/2000/svg" xmlns:xlink="http://www.w3.org/1999/xlink">
utf-8<defs>
utf-8utf-8<style type="text/css">
<![CDATA[path { fill-rule: evenodd; }]]>utf-8utf-8</style>
utf-8</defs>
utf-8<metadata>
utf-8utf-8<views>
utf-8utf-8utf-8<view h="1100.07125428" padding="0" w="1000">
utf-8utf-8utf-8utf-8<proj flip="auto" id="robinson" lon0="-83.7079020535"/>
utf-8utf-8utf-8utf-8<bbox h="53.24" w="48.44" x="-1266.25" y="-187.97"/>
utf-8utf-8utf-8</view>
utf-8utf-8</views>
utf-8</metadata>
utf-8<g class="" id="provinces">
utf-8utf-8<path d="M716.2,598.8L714.5,594.3L712.5,591.2L710.9,586.5L710.0,578.9L711.7,568.4L716.5,558.6L735.5,534.9L743.5,515.4L746.2,511.1L756.1,498.5L770.1,480.3L772.5,474.4L772.1,468.1L769.3,455.8L769.4,448.2L770.7,442.1L773.5,436.4L778.4,428.9L772.4,427.6L740.2,426.7L696.4,426.3L688.7,423.1L659.8,407.5L629.2,390.6L592.3,371.3L595.5,387.8L597.2,390.7L599.7,393.3L604.1,396.7L609.7,404.4L611.3,409.4L611.4,418.4L612.2,426.0L611.4,428.8L607.4,432.0L603.7,432.5L599.6,437.2L593.1,436.6L570.5,442.5L561.5,457.5L560.8,460.3L568.3,464.5L558.6,480.4L556.2,483.2L552.2,486.1L546.6,491.5L543.2,497.5L543.7,502.6L546.1,502.9L552.4,500.5L556.8,501.2L568.2,498.4L570.7,498.8L572.1,505.5L573.8,509.7L579.6,511.9L583.8,520.1L589.9,529.9L601.9,536.8L603.4,537.2L609.5,536.1L612.0,537.9L614.1,542.2L617.6,552.3L619.0,555.0L621.6,557.5L628.2,559.1L635.5,558.2L638.6,563.6L640.8,565.4L646.7,568.0L648.4,573.5L648.8,578.0L649.9,578.7L654.3,576.3L656.7,575.5L660.2,575.8L663.8,575.1L669.2,568.4L672.9,567.2L680.1,576.3L682.6,578.8L686.3,580.7L717.0,602.5L716.2,598.8Z " data-id="CR.CA" data-name="Cartago" id="CR.CA"/>
utf-8utf-8<path d="M659.3,151.3L638.6,159.9L631.8,168.1L630.6,168.8L622.5,167.0L620.4,167.7L615.9,171.0L612.9,171.7L610.1,171.2L608.1,170.1L590.9,153.9L589.9,148.0L586.7,145.4L582.6,146.2L578.7,150.2L573.6,148.8L565.7,154.3L562.3,150.2L560.2,150.2L556.5,153.2L553.1,151.7L547.9,145.5L544.2,146.2L541.6,145.8L541.4,147.2L531.4,276.6L528.4,316.2L524.9,363.7L518.0,416.9L512.0,423.6L510.3,426.3L509.9,430.2L510.2,433.2L515.6,432.2L524.8,437.2L536.3,431.6L545.5,432.2L548.7,431.5L556.9,428.6L563.1,424.6L567.6,413.2L569.8,406.3L569.7,403.8L565.1,398.1L565.1,389.8L564.5,387.0L560.8,382.1L554.5,370.5L553.5,366.0L555.1,365.4L568.5,364.2L574.5,362.8L581.3,362.2L582.8,361.6L584.8,359.5L591.2,350.9L602.5,349.6L617.9,332.4L619.0,330.7L623.3,321.8L624.6,316.5L625.2,312.3L626.9,304.9L626.9,303.2L623.9,294.2L620.1,284.4L619.7,279.4L621.6,273.3L626.0,265.8L629.7,264.2L634.1,258.1L636.2,250.8L636.3,248.2L635.3,244.8L635.0,236.0L634.1,234.7L633.6,231.2L636.3,216.3L636.3,213.1L637.4,202.5L638.6,197.4L643.1,193.7L646.1,192.0L650.7,187.3L656.1,183.6L661.1,182.0L670.1,181.1L675.6,180.3L676.9,180.8L675.0,176.7L672.4,174.9L669.5,171.3L669.3,168.4L670.7,161.5L669.9,157.5L667.5,154.2L665.2,152.7L660.9,150.9L659.3,151.3Z " data-id="CR.HE" data-name="Heredia" id="CR.HE"/>
utf-8utf-8<path d="M660.9,150.9L665.2,152.7L667.5,154.2L669.9,157.5L670.7,161.5L669.3,168.4L669.5,171.3L672.4,174.9L675.0,176.7L676.9,180.8L675.6,180.3L670.1,181.1L661.1,182.0L656.1,183.6L650.7,187.3L646.1,192.0L643.1,193.7L638.6,197.4L637.4,202.5L636.3,213.1L636.3,216.3L633.6,231.2L634.1,234.7L635.0,236.0L635.3,244.8L636.3,248.2L636.2,250.8L634.1,258.1L629.7,264.2L626.0,265.8L621.6,273.3L619.7,279.4L620.1,284.4L623.9,294.2L626.9,303.2L626.9,304.9L625.2,312.3L624.6,316.5L623.3,321.8L619.0,330.7L617.9,332.4L602.5,349.6L599.6,352.7L597.4,355.8L592.3,371.3L629.2,390.6L659.8,407.5L688.7,423.1L696.4,426.3L740.2,426.7L772.4,427.6L778.4,428.9L773.5,436.4L770.7,442.1L769.4,448.2L769.3,455.8L772.1,468.1L772.5,474.4L770.1,480.3L756.1,498.5L746.2,511.1L743.5,515.4L735.5,534.9L716.5,558.6L711.7,568.4L710.0,578.9L710.9,586.5L712.5,591.2L714.5,594.3L716.2,598.8L717.0,602.5L725.3,633.8L727.7,637.8L728.7,639.0L732.2,641.9L740.0,644.6L742.0,646.3L743.0,651.0L744.3,651.3L746.8,649.1L757.2,646.3L761.1,640.7L765.4,637.7L766.8,637.4L770.4,639.3L775.8,644.8L778.6,646.5L784.1,648.6L788.3,651.6L792.9,654.4L797.6,655.4L801.9,654.5L808.5,654.0L811.8,654.7L822.7,672.0L825.9,675.3L836.4,682.3L839.4,689.0L841.7,707.6L842.1,708.9L844.6,712.1L854.8,715.4L857.9,717.3L859.4,720.2L860.9,726.1L862.3,728.7L867.2,734.5L872.0,736.2L875.8,739.8L878.3,683.2L881.5,613.1L882.7,606.4L885.5,601.6L891.3,599.3L907.7,596.8L912.4,593.9L913.0,591.1L909.7,589.5L908.5,587.5L907.0,578.0L903.7,570.6L904.5,567.4L908.2,561.9L914.2,556.5L919.9,555.8L937.0,563.7L949.0,575.8L951.9,577.0L954.4,575.8L957.3,579.7L960.7,588.1L963.7,592.1L966.6,593.7L971.8,595.5L977.4,596.6L981.5,595.9L983.7,591.5L985.7,578.2L988.1,574.5L992.7,575.3L997.2,578.1L999.5,578.0L996.7,564.8L991.8,561.3L985.0,548.3L979.2,544.8L972.6,544.2L965.4,544.5L958.2,543.6L938.3,535.6L933.8,531.6L931.4,525.2L930.5,511.3L929.1,505.8L921.2,508.5L908.8,494.5L892.9,467.8L888.5,464.2L875.8,440.6L872.1,436.0L870.2,431.2L869.6,425.8L869.7,419.3L868.2,416.7L860.3,415.1L857.7,413.1L850.1,417.7L839.0,404.4L821.3,377.7L816.8,373.7L764.2,288.4L745.0,247.4L729.8,198.5L718.0,152.7L716.1,157.1L714.2,165.0L712.8,169.1L711.9,161.6L713.4,159.8L709.3,162.7L706.1,165.7L702.8,168.1L698.1,169.1L707.4,160.6L708.7,149.5L705.4,121.8L711.9,144.0L716.0,150.2L717.4,139.2L713.0,122.2L706.3,106.2L700.8,98.2L694.9,97.6L692.6,99.4L692.6,102.8L691.9,117.6L693.8,129.9L692.3,139.3L681.2,145.5L660.9,150.9Z " data-id="CR.LI" data-name="Limón" id="CR.LI"/>
utf-8utf-8<path d="M585.6,867.4L586.2,863.3L581.8,863.5L577.7,865.8L579.4,867.6L583.2,868.4L585.6,867.4Z M217.4,411.7L213.6,422.9L211.6,425.7L204.8,427.6L195.1,433.4L191.6,431.8L186.3,433.1L178.5,437.2L175.6,440.1L174.1,442.7L174.5,444.7L177.8,448.2L183.8,448.0L190.0,450.4L192.9,450.3L200.1,453.9L202.8,457.7L204.2,460.7L205.2,466.3L206.9,467.8L211.3,469.0L210.9,472.6L209.5,476.2L205.6,489.5L206.2,495.6L204.4,497.1L198.6,506.5L196.4,511.0L192.3,513.6L192.3,513.7L215.3,552.4L222.7,572.2L224.9,572.2L228.9,566.8L232.0,560.7L240.1,536.9L241.7,534.2L249.2,530.0L250.4,528.3L252.1,527.8L262.3,522.4L263.1,521.0L258.8,514.4L257.6,511.5L260.1,506.9L265.1,507.4L274.4,512.7L275.8,510.0L277.7,503.6L279.2,501.1L286.7,496.5L287.9,495.1L290.3,489.0L295.2,485.5L300.8,482.9L305.3,479.7L305.4,477.5L294.4,477.9L289.1,477.2L284.8,474.9L288.7,470.7L291.2,468.8L293.7,467.8L290.0,463.5L286.7,457.7L286.7,452.8L292.9,451.1L293.0,449.0L289.7,445.6L282.4,440.2L279.0,436.9L273.4,439.6L267.6,439.4L262.3,437.5L251.0,429.9L246.3,427.6L244.1,428.6L241.8,427.1L223.9,418.7L217.4,411.7L217.4,411.7Z M226.0,382.6L236.5,382.6L236.7,380.3L227.9,377.2L218.3,375.3L215.7,375.5L209.9,377.7L213.5,386.5L216.1,389.6L221.2,392.1L226.3,392.8L231.5,392.3L236.3,391.0L240.1,389.5L240.2,387.4L237.0,387.5L234.6,386.7L233.0,385.1L228.7,384.4L226.0,382.6Z M875.8,739.8L872.0,736.2L867.2,734.5L862.3,728.7L860.9,726.1L859.4,720.2L857.9,717.3L854.8,715.4L844.6,712.1L842.1,708.9L841.7,707.6L839.4,689.0L836.4,682.3L825.9,675.3L822.7,672.0L811.8,654.7L808.5,654.0L801.9,654.5L797.6,655.4L792.9,654.4L788.3,651.6L784.1,648.6L778.6,646.5L775.8,644.8L770.4,639.3L766.8,637.4L765.4,637.7L761.1,640.7L757.2,646.3L746.8,649.1L744.3,651.3L743.0,651.0L742.0,646.3L740.0,644.6L732.2,641.9L725.1,649.8L723.3,652.9L720.7,661.3L719.1,664.7L710.2,675.2L708.8,677.8L704.8,695.2L705.8,697.2L713.7,700.1L715.4,704.3L715.6,710.3L711.5,720.5L711.9,728.5L711.1,731.5L707.0,734.8L703.4,740.0L701.4,741.3L697.7,740.0L694.7,736.6L692.2,736.1L685.6,736.5L659.0,716.3L656.1,711.5L654.3,702.6L653.2,698.7L646.8,689.1L642.8,684.5L640.0,682.9L637.5,682.5L633.5,684.2L630.6,688.3L625.5,689.2L610.9,681.6L607.1,676.6L605.8,673.2L604.3,666.3L604.7,657.0L601.8,651.7L592.6,640.5L591.1,631.6L589.2,627.2L586.5,625.0L585.6,625.0L580.9,628.2L576.3,626.5L557.3,611.6L550.8,604.0L546.4,593.2L540.0,589.9L539.0,587.7L541.0,582.9L540.2,574.7L537.4,572.3L534.6,571.8L530.7,571.9L524.2,571.1L521.0,567.4L520.9,562.8L521.6,559.9L521.3,554.2L520.6,552.7L516.2,551.1L502.5,552.5L498.0,552.1L494.1,550.1L483.3,550.5L475.2,543.8L470.7,543.3L457.6,544.1L449.5,545.8L446.0,545.8L443.3,547.6L444.0,554.4L443.7,556.5L441.5,559.6L436.5,564.3L434.4,568.5L430.9,569.9L424.4,565.8L419.6,567.2L415.5,566.1L406.0,567.8L400.0,564.3L398.3,561.5L396.4,555.7L394.9,543.4L389.0,530.0L389.0,520.2L388.5,516.1L386.7,507.3L389.7,502.7L391.6,502.5L397.4,502.8L401.8,499.4L402.4,496.5L402.2,493.3L400.9,490.1L397.8,485.5L391.7,481.6L394.6,479.1L388.6,469.2L386.0,466.8L382.4,466.0L378.4,465.7L373.5,464.2L367.3,461.3L364.4,458.4L365.1,454.6L366.3,452.3L368.6,451.2L374.8,441.3L377.3,438.7L380.7,437.6L396.4,426.6L402.8,423.6L404.6,419.2L401.2,412.1L395.8,413.4L391.8,413.9L389.3,408.1L384.8,401.4L382.6,396.9L378.1,390.0L376.5,386.9L373.6,379.1L372.6,373.6L374.3,364.8L374.0,361.6L372.6,358.1L372.5,355.5L374.7,347.7L375.8,345.2L379.4,338.5L379.9,336.8L376.6,331.4L375.2,326.0L370.1,322.0L367.8,321.7L364.2,323.7L359.9,325.0L354.0,326.2L349.8,326.2L345.7,321.6L339.6,309.4L335.2,305.1L326.0,304.4L324.1,305.8L320.1,310.0L317.2,311.6L313.0,316.0L312.8,321.5L314.9,323.9L312.5,338.5L309.6,345.1L311.4,354.4L310.1,356.5L304.1,359.3L296.9,365.7L294.4,369.2L294.1,374.4L294.6,380.0L292.3,379.5L289.6,377.8L286.3,374.5L282.9,369.3L280.2,366.6L277.5,364.8L264.7,362.1L263.0,362.5L256.7,362.5L250.4,364.5L250.5,364.6L249.7,366.9L247.7,370.6L250.2,373.0L254.9,370.6L256.8,371.3L259.7,374.6L266.2,378.3L277.8,391.5L282.7,394.4L281.1,396.0L283.7,399.3L287.3,402.2L289.3,402.7L290.5,404.6L299.2,413.1L306.2,417.5L313.8,420.5L322.3,422.2L332.0,422.8L331.8,425.1L321.3,425.0L316.5,425.6L312.6,427.3L312.5,429.9L339.6,426.8L348.2,429.9L346.3,434.9L347.4,438.3L354.5,445.2L349.7,453.1L348.7,458.4L353.5,460.8L356.8,463.8L367.8,484.4L372.2,489.7L374.4,493.3L375.2,497.5L373.9,502.5L369.2,509.1L366.8,515.0L361.2,520.9L359.2,524.7L359.1,527.9L359.7,535.2L358.3,539.1L363.1,538.9L363.8,541.2L363.1,544.8L364.0,548.3L367.1,550.6L370.4,552.1L372.9,554.4L373.7,559.2L375.6,564.3L386.4,572.5L391.1,577.1L389.6,572.2L393.7,573.2L395.9,580.6L399.2,584.0L403.3,584.7L407.4,583.7L411.4,582.3L415.1,581.6L422.8,582.3L462.7,595.1L470.4,595.8L478.2,597.7L490.3,606.0L498.1,607.6L494.3,604.3L489.9,602.9L490.0,600.5L497.5,603.4L505.0,611.3L508.8,620.3L505.1,626.7L510.3,627.7L515.3,633.2L519.6,631.2L520.6,633.9L521.9,635.4L523.6,635.4L525.7,633.8L527.6,633.8L556.1,646.8L559.7,650.1L582.4,662.3L604.8,688.1L611.5,690.1L620.4,695.3L626.7,703.0L625.5,711.9L637.5,714.3L645.0,723.5L650.6,735.2L656.9,745.2L659.1,742.8L663.7,749.0L665.1,752.0L671.8,775.9L666.3,781.3L664.6,784.1L663.0,787.9L666.1,790.4L666.5,792.3L662.7,794.8L666.2,795.0L670.5,799.5L674.8,802.1L677.0,804.0L678.6,806.6L674.9,806.4L672.1,805.4L666.4,802.1L666.9,808.1L670.3,811.4L674.1,813.8L675.8,817.3L674.1,821.2L670.5,823.9L662.8,828.0L658.2,833.8L656.4,839.7L657.4,843.0L661.1,841.1L664.8,836.8L667.2,834.8L670.5,834.5L677.1,835.3L677.0,837.5L669.4,839.6L660.7,844.7L655.8,850.9L659.3,856.4L657.2,858.8L649.1,871.5L646.9,873.9L646.0,871.8L644.6,870.8L641.2,872.3L636.3,875.5L634.0,878.3L623.9,894.4L624.2,905.1L626.1,906.5L633.4,909.7L635.0,912.8L660.0,940.6L666.8,951.5L670.7,956.2L674.9,958.6L680.1,958.5L698.9,956.0L705.1,957.0L722.2,965.6L722.4,960.7L727.1,965.0L732.8,968.0L726.3,965.6L724.5,965.6L729.2,970.3L739.4,976.0L750.3,980.1L757.2,979.8L761.0,971.2L762.4,958.6L761.2,946.5L757.0,939.4L757.1,937.1L759.1,934.7L759.9,931.2L760.1,922.7L756.3,925.3L752.6,921.6L748.9,916.1L744.9,913.3L740.3,912.6L729.1,908.7L725.3,906.4L723.0,903.1L717.3,892.0L716.2,886.5L706.5,868.4L702.2,870.5L704.1,863.6L708.3,862.0L718.3,863.7L722.4,862.8L723.8,860.7L724.3,858.2L725.8,856.4L728.9,856.3L730.8,858.0L732.4,858.3L734.4,854.2L739.4,856.1L745.8,857.7L749.9,860.4L748.4,866.0L752.5,866.0L750.3,873.3L752.8,878.5L762.1,884.9L766.6,882.4L770.7,884.8L774.0,889.7L776.0,894.4L780.7,893.3L787.0,894.1L792.6,893.9L795.1,889.6L797.2,889.6L799.2,893.7L802.7,898.1L806.9,901.8L811.0,903.8L810.9,906.4L801.6,910.5L800.3,909.7L800.2,905.1L799.5,902.3L796.8,896.7L794.7,896.7L792.4,901.7L797.7,915.1L799.9,918.0L804.1,919.8L813.0,919.3L816.6,920.6L811.6,924.0L807.7,925.2L805.5,927.0L805.4,932.1L806.8,936.1L816.1,950.1L817.7,955.6L815.3,960.9L811.8,965.5L809.9,969.1L808.2,970.0L798.6,982.4L808.4,993.8L844.7,1024.9L851.6,1033.6L870.3,1073.8L870.9,1078.0L869.3,1083.3L866.7,1089.1L866.0,1094.4L869.9,1098.1L872.2,1090.2L874.5,1074.7L860.4,1035.1L859.6,1024.1L857.7,1020.6L852.5,1017.4L849.8,1017.0L846.0,1018.6L844.1,1018.5L842.5,1017.0L839.8,1012.1L838.3,1010.1L830.0,1004.5L827.4,1001.1L828.0,996.8L830.8,994.3L845.1,985.5L859.3,971.0L868.3,966.0L877.1,963.0L885.2,958.6L892.4,949.2L895.8,939.0L897.3,926.9L896.8,902.8L894.9,892.3L891.6,883.3L887.0,875.2L878.0,863.2L875.6,858.6L874.3,853.8L875.0,848.6L877.6,845.6L887.0,839.2L890.0,835.5L890.3,830.8L886.6,827.6L889.8,823.1L893.5,820.3L925.7,805.8L935.2,799.5L939.0,788.1L931.9,773.2L928.0,770.1L914.4,764.8L901.1,753.2L892.7,748.6L889.8,741.1L887.8,739.3L885.0,739.4L875.7,743.7L875.8,739.8Z " data-id="CR.PU" data-name="Puntarenas" id="CR.PU"/>
utf-8utf-8<path d="M597.4,355.8L599.6,352.7L602.5,349.6L591.2,350.9L584.8,359.5L582.8,361.6L581.3,362.2L574.5,362.8L568.5,364.2L555.1,365.4L553.5,366.0L554.5,370.5L560.8,382.1L564.5,387.0L565.1,389.8L565.1,398.1L569.7,403.8L569.8,406.3L567.6,413.2L563.1,424.6L556.9,428.6L548.7,431.5L545.5,432.2L536.3,431.6L524.8,437.2L515.6,432.2L510.2,433.2L505.4,438.7L496.8,441.8L476.1,448.2L470.6,449.0L456.9,446.0L451.1,444.1L443.6,445.8L430.0,447.0L420.3,451.7L413.2,458.6L407.8,461.7L405.7,463.4L404.6,466.6L398.5,474.5L396.8,479.0L394.6,479.1L391.7,481.6L397.8,485.5L400.9,490.1L402.2,493.3L402.4,496.5L401.8,499.4L397.4,502.8L391.6,502.5L389.7,502.7L386.7,507.3L388.5,516.1L389.0,520.2L389.0,530.0L394.9,543.4L396.4,555.7L398.3,561.5L400.0,564.3L406.0,567.8L415.5,566.1L419.6,567.2L424.4,565.8L430.9,569.9L434.4,568.5L436.5,564.3L441.5,559.6L443.7,556.5L444.0,554.4L443.3,547.6L446.0,545.8L449.5,545.8L457.6,544.1L470.7,543.3L475.2,543.8L483.3,550.5L494.1,550.1L498.0,552.1L502.5,552.5L516.2,551.1L520.6,552.7L521.3,554.2L521.6,559.9L520.9,562.8L521.0,567.4L524.2,571.1L530.7,571.9L534.6,571.8L537.4,572.3L540.2,574.7L541.0,582.9L539.0,587.7L540.0,589.9L546.4,593.2L550.8,604.0L557.3,611.6L576.3,626.5L580.9,628.2L585.6,625.0L586.5,625.0L589.2,627.2L591.1,631.6L592.6,640.5L601.8,651.7L604.7,657.0L604.3,666.3L605.8,673.2L607.1,676.6L610.9,681.6L625.5,689.2L630.6,688.3L633.5,684.2L637.5,682.5L640.0,682.9L642.8,684.5L646.8,689.1L653.2,698.7L654.3,702.6L656.1,711.5L659.0,716.3L685.6,736.5L692.2,736.1L694.7,736.6L697.7,740.0L701.4,741.3L703.4,740.0L707.0,734.8L711.1,731.5L711.9,728.5L711.5,720.5L715.6,710.3L715.4,704.3L713.7,700.1L705.8,697.2L704.8,695.2L708.8,677.8L710.2,675.2L719.1,664.7L720.7,661.3L723.3,652.9L725.1,649.8L732.2,641.9L728.7,639.0L727.7,637.8L725.3,633.8L717.0,602.5L686.3,580.7L682.6,578.8L680.1,576.3L672.9,567.2L669.2,568.4L663.8,575.1L660.2,575.8L656.7,575.5L654.3,576.3L649.9,578.7L648.8,578.0L648.4,573.5L646.7,568.0L640.8,565.4L638.6,563.6L635.5,558.2L628.2,559.1L621.6,557.5L619.0,555.0L617.6,552.3L614.1,542.2L612.0,537.9L609.5,536.1L603.4,537.2L601.9,536.8L589.9,529.9L583.8,520.1L579.6,511.9L573.8,509.7L572.1,505.5L570.7,498.8L568.2,498.4L556.8,501.2L552.4,500.5L546.1,502.9L543.7,502.6L543.2,497.5L546.6,491.5L552.2,486.1L556.2,483.2L558.6,480.4L568.3,464.5L560.8,460.3L561.5,457.5L570.5,442.5L593.1,436.6L599.6,437.2L603.7,432.5L607.4,432.0L611.4,428.8L612.2,426.0L611.4,418.4L611.3,409.4L609.7,404.4L604.1,396.7L599.7,393.3L597.2,390.7L595.5,387.8L592.3,371.3L597.4,355.8Z " data-id="CR.SJ" data-name="San José" id="CR.SJ"/>
utf-8utf-8<path d="M539.4,145.4L534.7,145.3L531.1,148.1L529.7,145.7L523.4,139.7L521.2,135.1L522.7,132.4L528.4,129.0L527.9,120.7L522.9,115.7L517.4,112.4L514.9,109.0L511.8,106.6L498.1,100.5L495.2,97.1L494.5,94.7L490.8,89.0L489.7,86.5L489.3,82.2L489.6,78.7L489.1,76.1L486.3,74.5L483.6,76.2L466.5,88.1L463.5,89.5L460.2,89.1L454.4,86.0L452.0,83.5L445.8,73.9L444.6,72.8L440.0,70.7L425.4,63.2L418.5,60.7L412.0,61.1L406.7,60.2L395.8,50.9L390.6,48.3L380.9,50.8L324.3,90.7L317.0,93.6L310.1,92.7L262.4,72.4L220.1,54.2L211.9,57.6L196.1,76.0L170.9,94.2L169.2,97.4L166.4,98.7L156.0,99.6L155.5,104.8L168.0,122.8L171.3,125.7L178.3,130.6L180.1,131.3L186.9,132.3L190.3,134.5L192.7,139.1L199.0,155.8L208.1,156.1L216.1,155.3L222.8,153.4L228.6,152.8L230.5,153.0L234.5,155.2L243.1,162.1L246.9,166.0L251.6,167.8L267.4,172.2L270.7,173.3L278.3,178.9L282.1,186.6L285.1,193.6L285.9,202.9L289.0,209.5L296.6,217.7L299.6,221.7L303.7,223.6L320.0,228.5L325.3,231.7L341.7,246.7L343.7,250.7L349.4,265.5L343.5,284.6L344.2,291.0L345.9,295.5L345.2,299.0L339.6,309.4L345.7,321.6L349.8,326.2L354.0,326.2L359.9,325.0L364.2,323.7L367.8,321.7L370.1,322.0L375.2,326.0L376.6,331.4L379.9,336.8L379.4,338.5L375.8,345.2L374.7,347.7L372.5,355.5L372.6,358.1L374.0,361.6L374.3,364.8L372.6,373.6L373.6,379.1L376.5,386.9L378.1,390.0L382.6,396.9L384.8,401.4L389.3,408.1L391.8,413.9L395.8,413.4L401.2,412.1L404.6,419.2L402.8,423.6L396.4,426.6L380.7,437.6L377.3,438.7L374.8,441.3L368.6,451.2L366.3,452.3L365.1,454.6L364.4,458.4L367.3,461.3L373.5,464.2L378.4,465.7L382.4,466.0L386.0,466.8L388.6,469.2L394.6,479.1L396.8,479.0L398.5,474.5L404.6,466.6L405.7,463.4L407.8,461.7L413.2,458.6L420.3,451.7L430.0,447.0L443.6,445.8L451.1,444.1L456.9,446.0L470.6,449.0L476.1,448.2L496.8,441.8L505.4,438.7L510.2,433.2L509.9,430.2L510.3,426.3L512.0,423.6L518.0,416.9L524.9,363.7L528.4,316.2L531.4,276.6L541.4,147.2L541.6,145.8L539.4,145.4Z " data-id="CR.AL" data-name="Alajuela" id="CR.AL"/>
utf-8utf-8<path d="M192.3,513.6L196.4,511.0L198.6,506.5L204.4,497.1L206.2,495.6L205.6,489.5L209.5,476.2L210.9,472.6L211.3,469.0L206.9,467.8L205.2,466.3L204.2,460.7L202.8,457.7L200.1,453.9L192.9,450.3L190.0,450.4L183.8,448.0L177.8,448.2L174.5,444.7L174.1,442.7L175.6,440.1L178.5,437.2L186.3,433.1L191.6,431.8L195.1,433.4L204.8,427.6L211.6,425.7L213.6,422.9L217.4,411.7L212.0,406.0L212.2,403.9L219.6,406.3L222.2,406.0L221.9,403.7L220.9,402.7L218.4,403.9L216.5,403.9L213.0,395.2L210.0,391.2L200.9,387.5L197.6,383.0L197.4,378.2L201.5,375.3L198.3,368.9L197.1,359.5L197.3,343.5L195.9,335.0L187.5,327.8L186.1,320.8L198.5,331.1L203.4,338.3L201.2,344.7L201.1,346.8L208.1,355.8L212.7,359.6L218.1,361.2L238.7,360.8L244.3,358.8L248.0,362.9L249.2,363.5L250.4,364.5L256.7,362.5L263.0,362.5L264.7,362.1L277.5,364.8L280.2,366.6L282.9,369.3L286.3,374.5L289.6,377.8L292.3,379.5L294.6,380.0L294.1,374.4L294.4,369.2L296.9,365.7L304.1,359.3L310.1,356.5L311.4,354.4L309.6,345.1L312.5,338.5L314.9,323.9L312.8,321.5L313.0,316.0L317.2,311.6L320.1,310.0L324.1,305.8L326.0,304.4L335.2,305.1L339.6,309.4L345.2,299.0L345.9,295.5L344.2,291.0L343.5,284.6L349.4,265.5L343.7,250.7L341.7,246.7L325.3,231.7L320.0,228.5L303.7,223.6L299.6,221.7L296.6,217.7L289.0,209.5L285.9,202.9L285.1,193.6L282.1,186.6L278.3,178.9L270.7,173.3L267.4,172.2L251.6,167.8L246.9,166.0L243.1,162.1L234.5,155.2L230.5,153.0L228.6,152.8L222.8,153.4L216.1,155.3L208.1,156.1L199.0,155.8L192.7,139.1L190.3,134.5L186.9,132.3L180.1,131.3L178.3,130.6L171.3,125.7L168.0,122.8L155.5,104.8L156.0,99.6L166.4,98.7L169.2,97.4L170.9,94.2L196.1,76.0L211.9,57.6L220.1,54.2L209.5,49.7L139.8,19.9L130.4,13.7L122.5,5.0L114.1,0.0L103.7,4.7L94.2,17.7L87.7,31.2L81.9,45.9L85.4,49.0L88.3,53.8L88.8,58.8L84.9,62.6L78.8,62.7L75.8,59.4L73.3,57.8L68.3,62.6L64.5,65.5L66.8,68.5L68.9,70.2L73.8,72.6L75.9,74.4L78.1,78.4L78.8,82.9L77.3,86.7L72.7,88.6L72.5,91.2L73.8,93.1L74.0,95.4L73.0,97.4L71.0,98.2L68.6,97.6L66.0,94.6L64.0,93.5L57.9,93.2L51.4,94.2L47.9,96.7L51.1,100.6L51.0,102.7L48.5,105.3L46.6,105.3L41.3,99.5L42.8,93.8L41.4,91.2L37.6,90.1L22.5,91.2L22.4,93.5L25.1,94.0L28.3,98.2L21.0,99.2L7.6,105.7L0.6,107.7L0.5,110.2L11.8,111.9L19.4,115.8L26.1,120.4L34.8,124.2L37.2,124.3L43.1,123.6L45.3,124.2L46.9,126.6L46.0,128.5L44.1,129.4L42.7,128.9L45.0,131.9L52.8,139.7L54.6,139.7L59.4,136.2L69.4,138.0L79.1,143.0L83.2,149.1L83.4,171.9L81.6,183.6L76.2,188.2L76.1,190.7L78.1,190.7L78.0,192.9L74.5,194.0L73.3,197.8L75.7,195.5L77.7,197.8L75.0,198.8L72.7,200.6L68.9,204.9L68.7,207.0L70.2,206.9L70.6,209.6L84.0,195.5L87.8,198.5L89.2,200.7L89.7,203.6L79.8,214.4L75.0,213.7L71.9,219.1L68.4,221.8L67.2,224.0L67.3,228.5L60.8,227.9L54.4,231.7L48.3,234.5L44.3,230.6L42.2,230.6L39.2,237.2L36.8,239.6L33.3,240.3L33.2,242.7L37.3,242.7L37.1,245.0L32.8,247.4L35.8,251.1L39.9,257.5L42.0,263.7L35.2,269.2L32.6,274.6L29.6,278.3L24.5,275.9L21.7,281.7L17.7,287.5L12.1,292.2L9.7,295.6L13.6,298.4L19.4,307.7L19.9,310.5L17.9,313.8L13.4,318.5L14.9,322.8L15.9,328.7L16.3,338.5L26.1,371.2L29.4,377.7L31.2,387.0L32.9,390.8L61.3,433.8L64.0,442.5L61.4,449.0L63.8,453.0L65.9,452.8L68.2,451.3L71.6,451.1L77.3,455.5L85.4,456.9L102.2,463.1L105.5,460.8L107.6,461.9L109.6,465.1L114.8,466.1L118.7,469.4L121.6,470.2L123.6,469.4L128.2,466.0L131.2,465.3L163.1,478.4L172.7,484.8L179.4,493.8L179.2,499.4L179.7,502.1L187.1,505.7L189.8,507.6L190.9,509.3L192.3,513.6Z " data-id="CR.GU" data-name="Guanacaste" id="CR.GU"/>
utf-8</g>
</svg>
