<?xml version="1.0" ?>
<!DOCTYPE svg
  PUBLIC '-//W3C//DTD SVG 1.1//EN'
  'http://www.w3.org/Graphics/SVG/1.1/DTD/svg11.dtd'>
<svg enable_background="new 0 0 1000 1032" height="1032px" pretty_print="True" style="stroke-linejoin: round; stroke:#000; fill: none;" version="1.1" viewBox="0 0 1000 1032" width="1000px" xmlns="http://www.w3.org/2000/svg" xmlns:xlink="http://www.w3.org/1999/xlink">
utf-8<defs>
utf-8utf-8<style type="text/css">
<![CDATA[path { fill-rule: evenodd; }]]>utf-8utf-8</style>
utf-8</defs>
utf-8<metadata>
utf-8utf-8<views>
utf-8utf-8utf-8<view h="1032.62313792" padding="0" w="1000">
utf-8utf-8utf-8utf-8<proj flip="auto" id="robinson" lon0="-24.7188441615"/>
utf-8utf-8utf-8utf-8<bbox h="40.12" w="38.89" x="-370.77" y="-288.36"/>
utf-8utf-8utf-8</view>
utf-8utf-8</views>
utf-8</metadata>
utf-8<g class="" id="provinces">
utf-8utf-8<path d="M213.8,1030.6L216.3,1026.3L219.8,1024.0L223.0,1020.8L224.6,1014.0L224.5,1006.7L223.7,999.5L221.5,993.3L217.4,988.9L211.7,991.6L204.7,992.7L200.2,995.5L201.5,1003.6L196.4,1003.6L197.9,1007.4L198.3,1011.1L197.7,1014.7L195.9,1018.6L198.8,1015.6L201.3,1020.9L208.3,1026.2L211.0,1030.6L213.8,1030.6Z " data-id="CV.BR" data-name="Brava" id="CV.BR"/>
utf-8utf-8<path d="M330.6,950.1L322.4,935.4L309.0,942.9L299.7,950.2L292.7,959.4L287.2,969.8L284.8,978.6L286.7,987.5L291.7,995.7L312.8,1015.9L325.4,1023.3L339.8,1025.4L355.9,1018.6L369.4,1005.2L372.1,1000.9L372.0,996.0L370.3,991.2L361.5,1001.0L349.4,1002.4L341.7,995.4L338.4,985.8L340.4,977.5L342.4,969.9L330.6,950.1Z " data-id="CV.SF" data-name="São Filipe" id="CV.SF"/>
utf-8utf-8<path d="M368.0,955.0L363.5,940.6L360.3,933.8L355.2,928.6L347.1,926.6L339.3,927.4L332.5,929.8L322.4,935.4L330.6,950.1L342.4,969.9L356.1,966.4L369.8,965.6L368.0,955.0Z " data-id="CV.MO" data-name="Mosteiros" id="CV.MO"/>
utf-8utf-8<path d="M369.2,986.5L371.2,981.7L371.7,976.1L369.8,965.6L356.1,966.4L342.4,969.9L340.4,977.5L338.4,985.8L341.7,995.4L349.4,1002.4L361.5,1001.0L370.3,991.2L369.2,986.5Z " data-id="CV.CF" data-name="Santa Catarina do Fogo" id="CV.CF"/>
utf-8utf-8<path d="M619.2,844.0L607.0,836.4L601.2,831.6L596.4,823.7L601.4,818.5L599.6,811.2L593.7,807.1L586.5,811.9L584.6,806.1L584.4,802.8L581.6,802.8L570.9,811.9L573.3,812.4L578.7,814.9L570.8,819.5L568.3,820.5L572.5,823.1L576.4,830.0L579.3,838.4L580.4,845.6L579.5,847.9L575.6,853.0L574.7,857.7L574.2,862.7L572.8,866.9L578.7,867.2L589.9,868.7L604.5,866.7L610.6,857.2L616.3,847.2L619.2,844.0Z " data-id="CV.TA" data-name="Tarrafal" id="CV.TA"/>
utf-8utf-8<path d="M620.8,894.9L617.9,893.9L617.3,887.3L610.8,882.0L603.9,874.4L604.5,866.7L589.9,868.7L578.7,867.2L572.8,866.9L570.4,869.8L566.8,871.0L571.2,885.7L571.4,891.3L569.9,895.2L564.2,905.8L563.1,909.2L564.0,912.7L567.8,918.3L570.3,929.8L575.4,932.7L581.4,934.8L585.6,938.2L585.3,952.3L590.9,959.8L597.5,952.1L604.7,948.8L608.2,943.1L616.1,942.1L619.1,940.2L620.1,934.0L624.0,929.2L621.3,925.0L618.7,919.0L617.5,910.9L619.9,908.6L629.0,900.6L628.4,893.0L626.2,889.6L620.8,894.9Z " data-id="CV.CA" data-name="Santa Catarina" id="CV.CA"/>
utf-8utf-8<path d="M631.3,862.2L625.9,851.8L622.8,848.7L616.3,847.2L610.6,857.2L604.5,866.7L603.9,874.4L610.8,882.0L617.3,887.3L617.9,893.9L620.8,894.9L626.2,889.6L628.5,887.3L639.9,872.9L631.3,862.2Z " data-id="CV.SM" data-name="São Miguel" id="CV.SM"/>
utf-8utf-8<path d="M669.4,897.5L668.5,891.0L665.2,891.6L660.9,888.9L657.1,884.5L654.4,879.8L648.8,880.7L642.5,876.2L639.9,872.9L628.5,887.3L626.2,889.6L628.4,893.0L629.0,900.6L633.1,901.6L643.1,904.0L643.8,908.2L643.1,911.0L649.0,914.0L654.6,912.2L663.0,920.6L667.5,923.5L671.2,926.4L676.3,924.0L678.8,918.6L669.4,897.5Z " data-id="CV.CR" data-name="Santa Cruz" id="CV.CR"/>
utf-8utf-8<path d="M643.8,908.2L643.1,904.0L633.1,901.6L629.0,900.6L619.9,908.6L617.5,910.9L618.7,919.0L621.3,925.0L624.0,929.2L630.6,928.5L633.2,928.3L640.9,922.1L642.4,914.4L643.1,911.0L643.8,908.2Z " data-id="CV.SS" data-name="São Salvador do Mundo" id="CV.SS"/>
utf-8utf-8<path d="M654.6,912.2L649.0,914.0L643.1,911.0L642.4,914.4L640.9,922.1L633.2,928.3L630.6,928.5L630.5,935.4L636.2,941.2L643.8,936.4L649.4,929.7L656.7,923.0L663.0,920.6L654.6,912.2Z " data-id="CV.SO" data-name="São Lourenço dos Órgãos" id="CV.SO"/>
utf-8utf-8<path d="M689.2,952.2L691.9,948.0L693.8,941.6L690.6,939.7L687.5,932.8L683.9,929.8L678.8,918.6L676.3,924.0L671.2,926.4L667.5,923.5L663.0,920.6L656.7,923.0L649.4,929.7L643.8,936.4L636.2,941.2L640.6,948.3L641.5,959.8L647.7,963.1L658.2,960.7L668.0,953.6L675.5,952.1L682.7,957.5L689.2,952.2Z " data-id="CV.SD" data-name="São Domingos" id="CV.SD"/>
utf-8utf-8<path d="M630.5,935.4L630.6,928.5L624.0,929.2L620.1,934.0L619.1,940.2L616.1,942.1L608.2,943.1L604.7,948.8L597.5,952.1L590.9,959.8L605.0,973.9L624.5,981.4L634.9,983.0L647.4,983.3L650.2,983.7L653.3,985.6L656.4,986.0L653.4,978.2L648.8,971.3L647.7,963.1L641.5,959.8L640.6,948.3L636.2,941.2L630.5,935.4Z " data-id="CV.RS" data-name="Ribeira Grande de Santiago" id="CV.RS"/>
utf-8utf-8<path d="M647.7,963.1L648.8,971.3L653.4,978.2L656.4,986.0L659.2,985.5L665.1,983.7L668.1,983.3L673.6,981.2L676.6,976.0L679.1,969.2L683.0,962.4L680.2,959.5L682.7,957.5L675.5,952.1L668.0,953.6L658.2,960.7L647.7,963.1Z " data-id="CV.PR" data-name="Praia" id="CV.PR"/>
utf-8utf-8<path d="M798.1,808.7L801.0,806.0L798.2,802.8L793.0,808.7L793.1,802.8L788.0,806.2L782.7,808.7L785.4,811.9L779.7,822.7L771.3,829.4L769.0,835.7L775.2,836.4L776.6,841.1L774.1,846.7L768.6,850.2L771.5,855.1L769.9,860.4L766.8,865.7L765.5,871.0L767.6,876.5L771.8,881.5L780.4,888.7L788.3,893.6L793.2,895.1L798.5,894.5L800.5,892.9L802.4,887.8L803.9,885.7L806.3,884.7L812.3,883.8L814.2,883.0L820.5,872.1L821.4,860.3L817.9,835.7L818.6,824.1L818.3,817.3L816.2,811.9L811.9,809.3L803.4,811.5L798.1,808.7Z " data-id="CV.MA" data-name="Maio" id="CV.MA"/>
utf-8utf-8<path d="M931.1,426.4L921.6,422.9L915.3,419.4L910.8,415.7L907.8,410.3L904.1,423.7L907.1,461.3L899.7,469.2L894.0,471.4L890.0,477.1L887.7,484.8L887.2,492.9L889.2,502.2L893.7,507.0L907.1,513.8L911.4,515.2L916.6,520.3L920.2,522.4L924.0,523.0L945.7,521.5L952.7,519.0L966.7,510.9L987.8,492.6L994.2,488.2L996.0,480.1L999.5,476.0L998.1,471.4L995.3,467.2L994.0,466.5L995.7,450.1L994.5,442.8L988.2,439.8L986.7,438.1L984.6,429.9L983.2,426.8L979.5,423.8L975.5,422.0L953.5,415.8L946.7,417.0L943.6,423.7L939.7,427.6L931.1,426.4Z " data-id="CV.BV" data-name="Boa Vista" id="CV.BV"/>
utf-8utf-8<path d="M920.8,209.5L919.2,206.6L918.4,198.5L920.2,172.9L917.4,169.4L920.2,165.2L922.7,160.1L923.2,158.2L921.9,155.0L915.3,147.9L913.4,144.9L895.1,157.3L887.1,164.1L886.4,177.6L887.1,183.3L889.4,187.5L893.8,189.0L893.7,191.9L890.1,196.2L888.7,204.0L889.0,212.4L890.4,218.6L898.4,214.1L903.7,227.1L907.3,259.8L911.7,257.3L917.8,254.4L920.4,251.0L918.2,244.4L918.1,242.2L919.3,240.0L922.9,237.2L923.7,234.8L924.2,230.4L926.0,221.9L926.6,217.1L925.6,214.6L920.8,209.5Z " data-id="CV.SL" data-name="Sal" id="CV.SL"/>
utf-8utf-8<path d="M385.4,291.3L397.0,269.6L402.5,262.5L417.3,256.1L432.7,260.2L461.3,274.5L487.9,274.3L492.1,273.2L492.6,258.3L490.8,260.0L486.9,257.5L479.8,251.0L471.5,247.3L440.6,244.4L437.6,243.7L424.1,236.4L420.4,235.6L399.4,239.2L395.5,239.0L391.0,236.4L382.4,227.8L378.1,224.5L373.0,222.3L370.3,221.8L364.9,223.8L368.0,232.9L364.1,238.6L367.6,244.3L378.2,245.1L384.8,251.5L386.6,265.0L384.0,276.4L381.2,294.6L381.3,307.5L385.4,291.3Z " data-id="CV.RB" data-name="Ribeira Brava" id="CV.RB"/>
utf-8utf-8<path d="M347.0,230.1L343.7,240.0L345.6,249.6L351.6,256.9L360.2,259.8L363.5,260.5L365.4,262.5L366.2,265.8L366.3,270.3L367.0,276.1L368.9,279.7L371.3,282.6L373.4,286.3L378.2,302.2L381.3,307.5L381.2,294.6L384.0,276.4L386.6,265.0L384.8,251.5L378.2,245.1L367.6,244.3L364.1,238.6L368.0,232.9L364.9,223.8L347.0,230.1Z " data-id="CV.TS" data-name="Tarrafal de São Nicolau" id="CV.TS"/>
utf-8utf-8<path d="M291.2,248.4L282.6,246.5L278.2,247.8L279.1,252.7L283.4,254.0L288.9,254.6L291.2,248.4Z M234.5,189.2L231.0,179.8L226.3,173.6L217.2,169.9L211.6,175.5L211.4,181.7L216.6,187.3L223.6,190.4L225.6,195.4L228.7,199.1L235.3,199.1L242.9,198.5L249.5,195.4L250.2,189.8L246.0,187.9L241.5,191.0L234.5,189.2Z M161.0,120.1L157.3,117.9L150.5,123.1L146.8,123.9L144.7,117.9L142.1,117.9L139.8,120.9L129.0,127.2L131.1,133.1L126.2,135.5L114.5,135.8L109.3,137.7L103.7,142.8L99.1,150.4L97.1,159.6L102.1,156.9L103.8,161.2L106.7,164.3L110.4,166.7L133.7,176.8L136.4,177.2L137.8,176.3L141.6,172.3L144.0,171.3L153.6,170.6L163.9,168.5L173.2,164.8L179.4,159.6L180.1,155.4L179.3,149.4L177.7,144.0L175.9,141.7L170.7,139.8L165.4,135.8L162.4,131.7L165.6,128.1L164.2,124.2L161.0,120.1Z " data-id="CV.SV" data-name="São Vicente" id="CV.SV"/>
utf-8utf-8<path d="M94.2,40.0L76.8,47.7L64.9,38.3L44.9,25.8L35.5,35.4L31.5,38.5L28.0,38.6L23.2,38.1L17.6,39.0L12.2,43.0L2.5,54.7L0.5,60.9L2.3,68.1L4.7,70.0L11.2,71.4L12.4,72.5L17.2,82.6L16.4,111.2L17.2,116.5L21.6,120.3L25.0,120.4L28.4,118.8L32.8,117.9L47.0,117.9L63.4,115.6L73.0,108.2L80.7,97.6L91.5,85.8L114.5,74.0L117.9,69.6L119.5,68.1L126.7,65.1L128.3,63.6L130.1,63.5L141.2,50.7L136.1,46.9L125.9,39.2L109.3,35.8L94.2,40.0Z " data-id="CV.PN" data-name="Porto Novo" id="CV.PN"/>
utf-8utf-8<path d="M44.9,25.8L64.9,38.3L76.8,47.7L94.2,40.0L109.3,35.8L116.6,29.8L122.7,25.1L127.4,22.3L127.6,12.4L126.3,9.1L122.9,6.1L117.5,4.5L107.9,4.8L103.7,1.5L99.4,0.0L93.3,1.6L70.0,13.9L61.3,16.3L52.2,22.4L44.9,25.8Z " data-id="CV.RG" data-name="Ribeira Grande" id="CV.RG"/>
utf-8utf-8<path d="M144.2,47.3L146.6,43.1L147.4,38.5L146.1,35.4L141.1,30.5L140.0,28.3L138.1,26.9L129.4,24.2L127.4,22.3L122.7,25.1L116.6,29.8L109.3,35.8L125.9,39.2L136.1,46.9L141.2,50.7L144.2,47.3Z " data-id="CV.PA" data-name="Paul" id="CV.PA"/>
utf-8</g>
</svg>
