<?xml version="1.0" ?>
<!DOCTYPE svg
  PUBLIC '-//W3C//DTD SVG 1.1//EN'
  'http://www.w3.org/Graphics/SVG/1.1/DTD/svg11.dtd'>
<svg enable_background="new 0 0 1000 379" height="379px" pretty_print="True" style="stroke-linejoin: round; stroke:#000; fill: none;" version="1.1" viewBox="0 0 1000 379" width="1000px" xmlns="http://www.w3.org/2000/svg" xmlns:xlink="http://www.w3.org/1999/xlink">
utf-8<defs>
utf-8utf-8<style type="text/css">
<![CDATA[path { fill-rule: evenodd; }]]>utf-8utf-8</style>
utf-8</defs>
utf-8<metadata>
utf-8utf-8<views>
utf-8utf-8utf-8<view h="379.764200169" padding="0" w="1000">
utf-8utf-8utf-8utf-8<proj flip="auto" id="robinson" lon0="33.3821741807"/>
utf-8utf-8utf-8utf-8<bbox h="9.74" w="25.72" x="450.5" y="-590.29"/>
utf-8utf-8utf-8</view>
utf-8utf-8</views>
utf-8</metadata>
utf-8<g class="" id="provinces">
utf-8utf-8<path d="M820.8,138.8L816.5,137.7L813.9,137.7L812.8,138.8L818.7,141.9L819.8,144.4L824.9,145.0L825.5,146.9L832.7,146.0L830.6,142.9L827.9,141.4L823.3,141.4L820.8,138.8Z M849.9,130.6L856.4,135.7L866.7,136.7L867.9,148.0L863.4,149.1L857.4,155.2L861.9,157.8L871.7,155.7L886.9,158.9L889.0,156.3L877.4,146.4L875.0,143.7L873.9,141.6L872.4,136.1L870.9,132.8L866.8,130.9L858.7,131.2L855.0,131.8L849.9,130.6L849.9,130.6Z M805.0,129.6L807.8,128.5L807.1,121.9L803.8,121.3L801.3,122.3L800.5,127.9L801.2,129.6L803.0,130.5L805.0,129.6Z M480.4,210.5L481.4,222.7L485.4,226.3L492.2,228.8L499.7,228.7L526.6,238.0L530.8,240.3L533.8,242.7L552.4,261.7L559.0,270.4L563.5,277.9L564.8,280.5L565.2,283.0L564.3,304.6L564.6,307.1L569.8,323.7L574.3,320.4L582.0,316.6L621.4,308.3L635.7,298.8L634.1,280.4L643.4,290.2L655.8,287.3L670.6,279.7L687.5,275.5L694.5,272.4L700.2,265.5L705.0,257.9L709.2,253.0L715.9,251.2L733.9,251.0L742.0,248.6L743.9,244.8L746.4,233.1L749.4,230.6L754.3,228.4L755.0,222.9L752.5,210.4L752.2,198.7L753.6,186.8L756.1,176.1L759.1,167.7L771.8,153.5L782.8,149.2L782.4,139.3L781.1,138.8L772.0,133.1L759.1,131.1L741.2,122.4L735.1,120.3L731.1,122.4L726.5,123.4L719.8,119.2L713.8,118.2L709.5,121.9L706.3,130.6L696.9,134.6L689.9,131.6L685.5,122.9L683.8,107.0L679.0,102.3L670.9,111.0L675.0,121.4L678.1,125.1L680.2,126.8L682.8,131.3L678.0,133.4L675.8,140.0L672.1,154.5L670.3,156.0L667.9,156.4L661.1,154.1L658.7,153.7L655.6,154.5L647.9,159.5L645.0,160.4L640.2,159.2L631.4,153.8L628.7,153.8L628.1,158.1L628.4,161.6L627.8,166.1L624.7,174.3L622.6,177.4L620.7,178.9L618.5,178.7L608.1,176.9L604.2,177.4L598.0,179.9L594.4,180.6L591.6,180.3L588.5,177.2L583.7,175.0L578.9,175.8L566.7,186.7L556.9,197.7L551.7,202.0L548.0,203.8L546.0,203.1L544.5,198.3L538.3,194.6L536.2,193.8L525.6,197.4L523.2,197.6L516.1,195.5L513.3,192.1L511.4,190.7L508.6,190.1L505.1,190.1L499.1,191.7L494.7,193.9L485.2,200.4L481.7,205.3L480.4,210.5Z " data-id="CY.LA" data-name="Larnaca" id="CY.LA"/>
utf-8utf-8<path d="M153.7,17.6L153.4,20.1L169.9,36.3L176.4,41.7L177.8,44.1L179.1,48.5L181.3,51.8L191.4,59.2L192.8,61.6L194.8,82.7L194.3,84.9L192.8,86.2L186.0,87.2L184.2,90.5L185.3,93.7L187.5,97.7L192.7,105.4L196.3,109.5L205.1,114.6L208.4,117.3L221.8,137.0L225.1,143.4L225.6,149.4L227.7,156.4L228.2,159.1L227.5,166.8L226.0,170.5L225.9,177.7L224.8,178.3L221.5,178.0L221.0,182.0L223.6,188.6L230.3,196.4L236.7,201.3L241.4,204.1L242.1,202.0L241.9,198.4L243.3,197.6L246.7,199.0L247.0,203.0L249.2,203.4L252.8,202.6L258.5,198.9L261.0,196.1L263.3,191.3L268.2,190.1L281.9,195.5L281.0,186.4L281.4,181.3L282.6,176.8L282.4,170.1L283.2,168.4L289.8,166.6L291.3,165.3L293.2,161.4L295.4,160.7L298.6,161.4L307.3,166.7L310.4,168.2L313.4,168.8L325.2,169.0L328.8,170.2L336.2,174.7L339.5,175.6L343.3,175.9L354.9,175.7L359.5,174.8L363.8,172.8L381.2,159.5L385.0,157.6L387.4,157.1L390.8,158.1L394.8,160.3L400.5,166.3L407.4,177.2L428.7,191.6L433.5,195.8L436.5,199.4L437.5,201.7L439.3,203.4L442.4,204.2L448.1,203.0L451.2,201.7L455.8,201.4L459.2,201.7L480.4,210.5L481.7,205.3L485.2,200.4L494.7,193.9L499.1,191.7L505.1,190.1L508.6,190.1L511.4,190.7L513.3,192.1L516.1,195.5L523.2,197.6L525.6,197.4L536.2,193.8L538.3,194.6L544.5,198.3L546.0,203.1L548.0,203.8L551.7,202.0L556.9,197.7L566.7,186.7L578.9,175.8L583.7,175.0L588.5,177.2L591.6,180.3L594.4,180.6L598.0,179.9L604.2,177.4L608.1,176.9L618.5,178.7L620.7,178.9L622.6,177.4L624.7,174.3L627.8,166.1L628.4,161.6L628.1,158.1L628.7,153.8L631.4,153.8L640.2,159.2L645.0,160.4L647.9,159.5L655.6,154.5L658.7,153.7L661.1,154.1L667.9,156.4L670.3,156.0L672.1,154.5L675.8,140.0L678.0,133.4L682.8,131.3L680.2,126.8L678.1,125.1L675.0,121.4L670.9,111.0L679.0,102.3L683.8,107.0L685.5,122.9L689.9,131.6L696.9,134.6L706.3,130.6L709.5,121.9L713.8,118.2L719.8,119.2L726.5,123.4L731.1,122.4L735.1,120.3L741.2,122.4L759.1,131.1L772.0,133.1L781.1,138.8L782.4,139.3L787.2,140.8L788.5,133.1L779.6,129.6L777.4,125.4L781.7,121.3L779.5,116.7L769.6,112.1L766.3,109.0L761.9,111.0L753.8,110.0L751.8,111.0L743.8,111.0L730.0,100.8L723.9,103.9L718.7,109.0L711.8,108.0L704.4,102.8L700.8,93.0L696.7,87.4L691.6,83.2L688.3,83.2L686.6,87.4L686.5,94.1L683.2,94.6L676.1,92.0L671.0,91.0L667.2,91.0L664.1,94.1L661.3,106.0L659.3,110.5L658.5,118.8L658.4,125.4L658.9,129.6L653.1,128.0L652.1,121.9L653.3,106.0L654.8,93.6L652.1,68.9L647.6,62.8L628.2,33.4L620.1,20.6L617.3,11.3L614.8,3.6L610.1,0.0L603.1,1.1L597.4,7.3L593.9,13.9L590.8,16.5L575.3,21.6L565.3,21.6L559.7,24.7L551.2,24.2L535.1,20.1L518.4,18.5L509.0,13.4L490.0,6.2L472.6,9.3L464.5,12.4L454.2,25.7L448.4,26.8L440.4,19.6L431.4,22.6L419.9,28.8L406.8,32.9L398.1,38.1L385.4,44.8L376.2,57.1L364.7,63.8L358.0,65.3L351.9,66.3L345.8,65.3L333.0,63.8L326.9,65.3L323.6,66.8L319.3,73.5L316.6,79.2L308.0,78.7L301.5,65.3L291.9,54.6L280.6,47.8L261.0,43.3L252.3,40.6L245.1,37.1L238.5,30.3L233.5,23.7L231.5,15.9L231.5,11.7L198.0,7.5L192.4,10.3L190.7,17.5L186.6,22.6L180.7,23.7L173.2,16.5L163.6,17.7L158.3,19.0L153.7,17.6L153.7,17.6Z " data-id="CY.NI" data-name="Nicosia" id="CY.NI"/>
utf-8utf-8<path d="M149.3,14.8L146.5,14.1L143.6,15.4L141.7,21.7L133.8,27.9L129.2,39.0L123.3,59.4L113.2,76.7L98.8,92.6L80.4,103.0L58.0,104.0L47.3,99.8L37.5,92.7L19.4,75.0L7.6,67.4L1.9,71.4L1.3,83.4L5.5,99.9L10.9,110.0L24.9,130.4L28.6,142.8L30.2,157.2L31.9,164.1L44.2,181.2L40.4,189.7L41.7,198.2L45.8,206.1L51.0,212.6L56.4,217.8L68.7,225.4L75.4,230.6L91.7,265.2L92.7,271.4L95.2,274.4L100.7,293.4L104.2,297.0L127.7,314.2L137.4,319.9L147.3,323.8L170.6,326.2L182.2,329.0L192.6,333.3L222.2,350.5L231.0,354.2L229.9,340.4L229.3,337.9L226.3,332.3L226.8,330.8L230.3,328.4L233.2,325.7L236.7,320.8L245.3,314.4L250.9,309.3L254.9,304.7L260.1,301.3L261.5,298.6L262.2,294.6L261.7,286.4L260.1,282.8L258.1,280.3L255.0,277.7L255.0,274.6L256.2,270.3L263.8,257.3L266.1,254.4L272.0,252.0L274.3,248.8L280.2,232.0L282.7,227.2L285.4,224.5L289.8,221.7L292.1,218.4L292.8,215.7L292.3,212.8L285.2,204.3L281.9,195.5L268.2,190.1L263.3,191.3L261.0,196.1L258.5,198.9L252.8,202.6L249.2,203.4L247.0,203.0L246.7,199.0L243.3,197.6L241.9,198.4L242.1,202.0L241.4,204.1L236.7,201.3L230.3,196.4L223.6,188.6L221.0,182.0L221.5,178.0L224.8,178.3L225.9,177.7L226.0,170.5L227.5,166.8L228.2,159.1L227.7,156.4L225.6,149.4L225.1,143.4L221.8,137.0L208.4,117.3L205.1,114.6L196.3,109.5L192.7,105.4L187.5,97.7L185.3,93.7L184.2,90.5L186.0,87.2L192.8,86.2L194.3,84.9L194.8,82.7L192.8,61.6L191.4,59.2L181.3,51.8L179.1,48.5L177.8,44.1L176.4,41.7L169.9,36.3L153.4,20.1L153.7,17.6L149.3,14.8Z " data-id="CY.PA" data-name="Paphos" id="CY.PA"/>
utf-8utf-8<path d="M849.9,130.6L855.0,131.8L858.7,131.2L866.8,130.9L870.9,132.8L872.4,136.1L873.9,141.6L875.0,143.7L877.4,146.4L889.0,156.3L890.8,154.3L896.0,151.0L920.6,143.2L949.6,139.5L956.4,142.8L963.1,149.4L977.1,153.3L991.2,154.8L998.7,154.3L991.7,149.8L983.0,139.2L975.6,127.6L967.5,109.6L958.3,100.3L944.3,89.3L942.7,92.0L917.2,86.4L906.0,92.0L897.3,90.0L890.3,87.9L882.6,91.0L872.0,83.2L866.2,91.5L860.0,96.2L852.6,97.7L848.7,94.1L844.2,91.0L837.4,94.6L832.8,98.7L830.7,106.0L844.0,111.6L848.7,116.2L849.9,130.6Z " data-id="CY.FA" data-name="Famagusta" id="CY.FA"/>
utf-8utf-8<path d="M569.8,323.7L564.6,307.1L564.3,304.6L565.2,283.0L564.8,280.5L563.5,277.9L559.0,270.4L552.4,261.7L533.8,242.7L530.8,240.3L526.6,238.0L499.7,228.7L492.2,228.8L485.4,226.3L481.4,222.7L480.4,210.5L459.2,201.7L455.8,201.4L451.2,201.7L448.1,203.0L442.4,204.2L439.3,203.4L437.5,201.7L436.5,199.4L433.5,195.8L428.7,191.6L407.4,177.2L400.5,166.3L394.8,160.3L390.8,158.1L387.4,157.1L385.0,157.6L381.2,159.5L363.8,172.8L359.5,174.8L354.9,175.7L343.3,175.9L339.5,175.6L336.2,174.7L328.8,170.2L325.2,169.0L313.4,168.8L310.4,168.2L307.3,166.7L298.6,161.4L295.4,160.7L293.2,161.4L291.3,165.3L289.8,166.6L283.2,168.4L282.4,170.1L282.6,176.8L281.4,181.3L281.0,186.4L281.9,195.5L285.2,204.3L292.3,212.8L292.8,215.7L292.1,218.4L289.8,221.7L285.4,224.5L282.7,227.2L280.2,232.0L274.3,248.8L272.0,252.0L266.1,254.4L263.8,257.3L256.2,270.3L255.0,274.6L255.0,277.7L258.1,280.3L260.1,282.8L261.7,286.4L262.2,294.6L261.5,298.6L260.1,301.3L254.9,304.7L250.9,309.3L245.3,314.4L236.7,320.8L233.2,325.7L230.3,328.4L226.8,330.8L226.3,332.3L229.3,337.9L229.9,340.4L231.0,354.2L244.7,359.9L267.7,364.4L290.1,361.5L296.1,359.3L294.7,348.8L297.8,344.2L304.4,346.2L315.4,347.6L318.4,337.9L325.5,336.7L331.5,327.9L333.4,328.7L343.3,328.9L346.4,328.2L347.7,336.7L351.2,342.5L362.3,350.5L378.6,354.6L380.0,350.1L387.1,353.2L390.9,356.3L393.6,350.1L399.6,343.4L417.7,346.0L420.9,363.9L410.3,363.9L407.3,360.3L401.7,366.0L403.5,375.2L407.6,377.8L410.9,373.2L422.2,371.6L440.1,360.5L462.7,337.2L469.8,332.0L477.9,329.7L516.3,325.2L555.8,329.7L563.5,328.2L569.8,323.7L569.8,323.7Z " data-id="CY.LI" data-name="Limassol" id="CY.LI"/>
utf-8</g>
</svg>
