<?xml version="1.0" ?>
<!DOCTYPE svg
  PUBLIC '-//W3C//DTD SVG 1.1//EN'
  'http://www.w3.org/Graphics/SVG/1.1/DTD/svg11.dtd'>
<svg enable_background="new 0 0 1000 1057" height="1057px" pretty_print="True" style="stroke-linejoin: round; stroke:#000; fill: none;" version="1.1" viewBox="0 0 1000 1057" width="1000px" xmlns="http://www.w3.org/2000/svg" xmlns:xlink="http://www.w3.org/1999/xlink">
utf-8<defs>
utf-8utf-8<style type="text/css">
<![CDATA[path { fill-rule: evenodd; }]]>utf-8utf-8</style>
utf-8</defs>
utf-8<metadata>
utf-8utf-8<views>
utf-8utf-8utf-8<view h="1057.88113739" padding="0" w="1000">
utf-8utf-8utf-8utf-8<proj flip="auto" id="robinson" lon0="7.55626768768"/>
utf-8utf-8utf-8utf-8<bbox h="123.37" w="116.73" x="74.68" y="-913.88"/>
utf-8utf-8utf-8</view>
utf-8utf-8</views>
utf-8</metadata>
utf-8<g class="" id="provinces">
utf-8utf-8<path d="M382.7,446.3L380.4,445.3L382.2,438.4L381.7,433.4L386.3,428.3L387.2,426.3L387.9,420.9L386.3,418.3L388.3,415.2L387.6,414.8L382.8,415.9L377.9,415.8L373.2,416.5L374.7,411.4L373.2,408.2L365.7,407.5L367.5,405.3L368.4,400.4L363.2,399.0L361.7,400.6L355.9,398.6L358.6,394.4L356.0,389.4L357.1,386.8L357.0,385.0L355.7,383.6L352.6,382.6L352.0,380.0L350.9,378.6L343.1,377.7L336.6,378.3L335.9,377.8L336.9,375.7L334.5,370.8L337.9,370.0L340.3,370.2L343.1,364.1L342.6,363.5L333.8,360.9L333.4,360.3L334.3,352.4L336.0,349.9L340.0,350.0L342.6,348.8L344.7,345.1L348.0,340.6L345.6,334.6L348.2,331.9L345.5,330.3L343.9,328.6L342.2,328.3L336.4,330.8L332.2,335.6L330.0,340.5L322.8,341.7L319.1,342.9L315.6,343.3L304.4,342.3L302.4,339.3L302.7,337.8L301.6,330.7L298.4,326.5L294.7,324.7L288.3,326.7L279.0,327.1L275.4,329.9L274.8,333.3L271.6,335.4L265.5,336.0L258.3,334.7L262.2,341.9L269.4,344.5L272.6,346.3L275.2,350.2L276.0,352.5L277.3,367.2L280.2,369.9L280.9,372.5L279.2,374.5L273.2,378.3L272.4,380.4L270.7,381.4L256.8,378.3L253.4,380.7L249.7,384.4L247.8,385.3L240.3,387.5L236.4,386.4L230.8,387.6L226.3,391.1L218.9,389.0L216.6,383.6L219.6,381.4L222.3,380.4L226.9,379.7L229.5,372.7L226.5,371.7L220.9,371.4L220.7,370.5L216.7,368.5L219.0,364.2L218.4,363.3L221.1,358.6L219.1,355.5L223.8,353.8L220.2,348.9L216.1,344.8L207.9,346.8L204.8,345.0L193.9,339.9L191.2,333.2L183.4,331.3L181.8,332.3L180.7,336.7L183.0,339.6L182.3,339.8L178.6,345.6L173.7,345.8L168.9,349.1L161.6,354.4L158.9,354.9L151.3,359.3L146.8,360.1L132.0,360.6L129.1,362.5L124.7,364.0L121.8,363.9L122.1,364.3L121.9,365.0L117.1,367.3L113.6,371.6L111.5,373.1L106.9,374.6L104.9,376.4L102.7,380.2L101.3,381.2L92.6,382.5L90.9,384.0L88.7,387.4L85.3,388.4L84.9,391.9L89.1,393.4L96.3,396.5L100.1,400.4L100.0,402.1L97.8,403.4L95.5,406.9L93.1,409.3L90.2,410.6L80.6,410.8L69.9,413.7L64.7,416.9L60.7,417.6L53.7,416.0L54.7,419.1L54.3,420.4L50.2,421.3L49.8,419.2L48.1,418.4L43.9,417.9L41.3,415.1L37.0,415.6L33.3,414.4L29.7,412.2L26.2,410.9L22.6,412.5L28.1,416.6L29.6,418.4L21.8,416.8L17.4,417.8L11.6,420.5L7.1,421.1L5.1,423.3L7.6,424.8L9.1,427.5L9.0,430.2L6.6,433.6L10.9,433.9L15.7,436.7L14.4,440.6L17.0,443.1L24.4,445.7L23.3,452.4L30.8,460.3L35.4,464.3L36.9,471.3L35.9,479.6L37.6,481.1L36.2,487.1L35.2,488.3L31.4,490.7L21.9,505.4L21.7,508.5L22.6,511.1L25.2,512.2L30.5,509.2L29.8,511.9L32.1,513.6L30.6,515.4L24.4,518.1L14.6,524.4L13.1,525.7L11.2,529.3L9.9,530.4L7.9,530.6L3.5,527.5L0.5,528.8L1.2,532.0L3.0,536.0L3.3,539.5L7.5,538.1L13.4,538.7L17.3,538.4L16.6,541.4L16.8,543.4L20.6,546.5L24.2,547.5L23.3,549.7L24.3,552.6L22.5,556.3L17.7,558.2L17.6,562.3L16.0,563.5L14.4,563.2L14.9,564.9L17.6,567.6L17.4,570.4L19.2,571.1L19.4,575.1L25.2,574.3L27.0,574.4L29.2,576.1L36.1,584.3L34.7,585.1L36.1,587.1L38.3,588.0L45.9,588.2L46.2,589.0L44.3,591.9L38.5,595.4L36.6,598.0L38.5,599.8L37.6,600.9L40.0,601.9L43.0,606.0L46.7,605.1L56.2,606.7L55.0,607.6L55.8,611.4L58.0,615.6L56.9,622.4L60.9,627.7L61.0,628.6L63.7,628.6L66.5,626.4L62.8,621.8L63.8,620.2L69.3,624.4L69.8,625.9L72.7,625.4L78.2,622.2L82.6,621.6L88.1,622.6L89.6,624.8L93.5,623.2L96.9,625.8L98.7,626.1L107.6,623.6L105.1,617.9L104.8,614.6L102.0,612.3L102.9,609.0L108.6,605.9L112.9,609.4L116.6,607.3L116.8,604.5L116.1,601.0L119.1,600.0L122.4,596.2L128.3,594.8L134.0,591.5L139.1,592.0L145.2,590.0L148.5,587.5L149.3,585.8L152.9,587.2L159.1,587.5L165.8,586.0L168.7,584.2L172.7,575.1L176.8,575.4L185.9,573.4L191.1,571.3L193.1,571.6L196.0,568.6L199.5,567.5L201.0,565.6L203.2,565.8L203.1,562.7L201.0,561.0L207.9,556.6L210.4,557.4L211.3,556.3L209.0,548.6L212.6,544.4L214.0,544.0L220.4,545.4L219.0,551.1L223.6,553.1L229.2,557.5L233.4,557.8L234.8,562.0L234.7,566.1L235.9,567.8L240.7,572.7L242.7,575.3L243.4,577.5L248.9,577.0L252.0,578.5L253.0,576.6L255.6,574.1L256.1,570.4L251.5,566.0L257.0,560.8L257.9,558.7L260.0,557.4L267.5,551.3L268.8,551.2L271.2,553.9L277.1,553.5L279.2,552.0L279.4,550.1L284.4,546.3L286.9,545.7L287.0,542.5L289.1,538.5L291.1,537.4L294.7,531.9L292.0,521.8L303.1,521.8L306.6,522.5L311.5,520.2L316.0,510.8L316.1,508.7L314.1,501.9L311.2,497.3L302.9,500.1L302.2,501.2L298.9,500.5L298.4,499.1L296.3,497.3L298.1,493.8L303.8,488.5L304.3,487.1L307.6,484.5L320.9,481.9L325.5,482.9L329.0,481.1L334.6,480.6L335.1,476.9L332.8,476.7L330.8,468.2L336.4,466.0L342.5,464.3L350.2,467.9L350.4,469.7L353.1,473.5L358.5,474.0L364.1,471.7L365.2,467.9L373.0,463.2L377.4,457.1L378.8,452.6L376.3,450.9L385.4,448.1L386.1,447.5L387.6,445.0L382.7,446.3Z " data-id="DE.NW" data-name="Nordrhein-Westfalen" id="DE.NW"/>
utf-8utf-8<path d="M389.4,1001.8L388.2,1000.5L389.3,1001.8L389.4,1001.8Z M366.7,732.9L365.8,734.2L363.3,734.6L365.2,736.2L367.4,741.9L366.6,741.0L362.4,740.8L360.0,742.8L350.4,742.8L347.5,745.6L349.3,749.6L346.6,751.9L345.2,751.0L343.5,753.8L340.4,757.1L335.5,757.0L335.4,753.7L336.5,753.2L336.4,748.2L338.5,745.7L340.3,746.6L342.8,745.3L342.9,742.5L337.6,743.0L333.1,740.1L330.8,740.3L323.6,737.5L320.5,733.1L320.3,729.1L318.0,726.2L310.3,727.8L310.0,728.6L312.5,736.4L312.3,737.4L307.0,739.5L299.2,733.1L296.5,731.4L293.7,731.0L290.1,732.3L289.4,735.6L291.6,738.6L296.0,748.1L293.7,749.1L293.8,750.0L299.5,751.4L299.5,756.9L300.4,760.6L296.8,768.0L296.6,769.2L299.2,770.0L298.9,771.7L291.6,779.2L289.1,780.8L288.5,783.2L286.9,796.5L286.5,798.0L279.0,811.9L276.8,814.9L273.4,818.1L270.0,819.1L267.9,821.3L264.6,826.8L260.1,838.3L258.1,840.7L252.0,844.1L251.0,846.7L245.2,848.5L244.8,852.3L240.9,855.6L238.0,858.6L233.3,861.1L228.8,867.2L228.1,871.8L228.3,876.7L229.7,880.6L225.2,884.9L225.1,887.6L223.2,891.2L222.0,898.3L223.8,903.7L223.8,905.6L222.3,907.7L218.6,909.9L216.1,920.1L209.4,928.4L206.6,935.3L205.3,940.2L205.9,946.0L211.0,953.2L211.4,957.5L210.4,959.2L207.5,961.9L207.2,966.1L205.3,969.4L205.0,971.9L205.5,976.1L202.0,982.0L201.8,984.0L203.4,988.9L200.7,994.6L202.0,999.8L207.9,1006.6L210.0,1008.6L209.6,1011.9L215.3,1010.4L217.8,1010.2L216.4,1013.7L215.3,1014.7L216.6,1016.5L220.7,1017.5L230.0,1015.9L232.0,1014.9L235.7,1010.4L237.3,1011.0L244.5,1011.4L246.2,1015.2L260.8,1015.2L265.8,1014.3L271.9,1009.7L273.9,1009.2L275.7,1007.5L281.7,1006.6L288.0,1007.5L290.1,1010.8L295.5,1012.4L306.1,1011.9L307.4,1008.8L310.7,1006.9L314.1,1006.6L318.6,1011.2L320.0,1010.8L320.8,1006.7L320.2,1005.0L321.9,1003.7L322.9,1005.1L323.4,1001.8L319.0,1000.9L313.6,1001.6L308.8,1004.0L306.8,1004.1L299.2,1000.5L299.8,999.0L299.1,995.7L304.0,992.4L306.7,986.7L307.5,986.2L314.7,985.3L316.4,984.5L315.2,982.3L317.0,981.5L321.9,982.4L322.7,986.9L325.2,986.8L325.7,983.8L328.1,983.3L331.1,987.4L334.6,987.6L335.4,989.0L333.4,992.4L335.4,996.4L341.3,996.3L340.3,995.5L341.2,992.7L344.2,992.8L348.0,994.6L351.0,997.0L348.9,997.4L349.0,998.3L354.0,1001.8L356.8,1002.4L361.2,1002.1L365.2,1001.0L366.9,999.3L369.0,998.6L381.5,999.8L390.2,999.5L390.1,998.3L387.4,995.1L384.7,989.1L383.2,987.3L374.6,983.4L370.7,980.1L369.8,978.7L374.2,979.3L386.2,986.4L389.3,986.9L392.1,992.2L403.1,998.2L405.2,998.7L412.2,999.2L418.3,1001.8L423.0,1002.7L424.0,1003.8L425.9,1007.9L429.5,1010.6L434.2,1011.4L435.7,1012.0L437.0,1011.0L441.3,1010.0L443.6,1008.1L447.5,1009.0L452.5,1006.8L460.4,1000.6L464.6,999.4L473.8,1001.3L479.9,999.1L484.0,998.4L485.6,999.1L487.5,1002.7L488.6,1001.6L489.3,998.5L491.4,999.2L492.3,994.1L491.5,987.4L487.7,984.1L487.0,982.6L492.3,979.3L489.0,972.9L487.9,973.0L489.4,966.1L486.5,959.1L486.5,957.3L487.9,956.4L490.8,948.6L491.5,945.5L491.0,938.5L487.7,932.8L482.4,915.8L478.2,908.0L474.2,901.8L471.6,900.0L477.5,892.7L477.8,890.4L480.7,887.3L485.1,886.0L488.6,886.3L490.2,888.2L500.7,882.6L503.5,879.2L507.2,878.1L508.4,873.1L506.7,868.7L508.4,867.6L505.7,863.8L503.5,862.5L501.6,859.6L501.6,858.0L503.6,855.3L505.1,855.2L507.6,856.9L509.9,856.7L513.3,860.2L520.5,855.0L519.6,858.8L520.4,859.9L521.8,859.1L526.4,855.4L522.3,850.4L519.2,848.6L519.5,842.2L521.1,836.2L520.2,834.9L520.3,827.3L519.3,826.6L521.7,824.8L520.7,822.1L515.3,815.7L506.3,808.5L504.4,807.5L500.1,806.8L499.2,806.1L499.5,804.0L494.1,799.2L497.1,796.7L497.2,792.6L494.0,790.9L492.8,791.6L490.7,790.4L484.2,782.3L483.4,778.8L481.6,775.1L484.3,776.1L484.8,774.8L483.2,771.4L483.9,769.4L480.2,766.4L479.9,761.6L481.8,759.6L485.2,759.5L481.7,753.0L480.2,747.2L479.0,745.1L479.6,742.6L475.9,740.3L474.5,737.2L472.0,738.9L472.8,741.7L467.8,746.1L459.8,746.2L458.6,745.2L456.9,735.7L455.4,734.8L454.8,732.2L453.7,732.7L450.7,736.1L447.6,737.0L447.6,735.8L451.6,727.8L450.7,726.5L446.8,723.1L445.4,716.7L440.9,712.4L435.3,715.9L434.5,717.0L431.5,712.5L427.3,717.2L424.7,716.7L423.2,715.6L425.0,704.1L419.5,705.5L416.4,703.9L413.2,704.4L407.1,702.1L401.2,702.6L397.2,703.8L391.9,703.5L387.6,706.3L388.6,708.5L387.9,710.5L388.6,711.5L394.3,712.7L394.8,715.7L397.9,712.8L400.7,714.3L399.7,719.9L400.6,722.2L397.6,723.7L396.2,722.5L388.0,724.0L386.5,724.7L384.3,730.8L383.1,732.3L374.2,732.3L367.6,733.4L366.7,732.9Z " data-id="DE.BW" data-name="Baden-Württemberg" id="DE.BW"/>
utf-8utf-8<path d="M441.3,479.7L439.2,476.8L435.4,478.8L437.1,481.5L435.6,483.3L432.3,479.7L428.3,478.3L429.0,479.8L419.6,484.4L423.0,488.4L427.0,487.4L427.6,487.9L422.4,494.2L420.0,494.4L416.6,491.2L413.7,490.5L405.9,487.8L404.1,487.4L400.9,485.2L404.1,484.7L403.1,481.6L405.0,479.6L406.6,479.8L411.1,478.2L409.9,471.0L410.4,470.4L405.8,464.0L405.7,462.8L407.4,462.3L407.7,458.7L410.7,458.5L409.6,457.0L410.4,455.7L413.2,457.3L415.0,455.7L410.8,450.3L408.6,449.4L407.7,447.7L404.4,448.3L401.3,447.6L395.2,447.9L393.4,447.1L393.1,445.0L390.5,444.2L388.6,445.7L387.6,445.0L386.1,447.5L385.4,448.1L376.3,450.9L378.8,452.6L377.4,457.1L373.0,463.2L365.2,467.9L364.1,471.7L358.5,474.0L353.1,473.5L350.4,469.7L350.2,467.9L342.5,464.3L336.4,466.0L330.8,468.2L332.8,476.7L335.1,476.9L334.6,480.6L329.0,481.1L325.5,482.9L320.9,481.9L307.6,484.5L304.3,487.1L303.8,488.5L298.1,493.8L296.3,497.3L298.4,499.1L298.9,500.5L302.2,501.2L302.9,500.1L311.2,497.3L314.1,501.9L316.1,508.7L316.0,510.8L311.5,520.2L306.6,522.5L303.1,521.8L292.0,521.8L294.7,531.9L291.1,537.4L289.1,538.5L287.0,542.5L286.9,545.7L284.4,546.3L279.4,550.1L279.2,552.0L277.1,553.5L271.2,553.9L268.8,551.2L267.5,551.3L260.0,557.4L257.9,558.7L257.0,560.8L251.5,566.0L256.1,570.4L255.6,574.1L253.0,576.6L252.0,578.5L251.7,580.8L250.8,583.8L255.4,591.4L254.9,594.4L252.5,599.0L250.8,600.0L247.8,599.9L245.9,597.9L242.7,597.9L238.8,601.2L238.4,607.4L240.7,610.2L238.9,612.3L237.6,616.3L236.3,617.2L236.9,618.5L242.3,619.8L242.7,621.2L244.7,621.9L248.3,627.6L251.4,630.3L252.8,633.8L253.1,636.2L250.5,637.1L245.0,636.9L243.7,639.4L244.8,640.4L242.8,643.5L239.7,641.8L238.0,643.0L231.8,645.7L229.3,649.7L229.3,652.0L232.9,654.3L232.3,658.4L228.4,656.9L224.9,657.5L220.3,663.4L216.1,666.1L217.6,666.8L225.0,672.1L226.3,675.0L228.3,677.4L232.8,677.2L237.5,675.9L242.6,673.7L246.8,671.0L260.4,667.2L266.4,668.3L278.7,679.2L281.1,683.9L279.7,688.8L284.4,695.5L285.6,699.3L287.9,702.5L289.7,706.0L295.5,706.0L291.7,711.7L288.1,712.3L285.2,714.0L283.4,716.7L283.4,720.4L288.1,727.9L290.1,732.3L293.7,731.0L296.5,731.4L299.2,733.1L307.0,739.5L312.3,737.4L312.5,736.4L310.0,728.6L310.3,727.8L318.0,726.2L320.3,729.1L320.5,733.1L323.6,737.5L330.8,740.3L333.1,740.1L337.6,743.0L342.9,742.5L342.8,745.3L340.3,746.6L338.5,745.7L336.4,748.2L336.5,753.2L335.4,753.7L335.5,757.0L340.4,757.1L343.5,753.8L345.2,751.0L346.6,751.9L349.3,749.6L347.5,745.6L350.4,742.8L360.0,742.8L362.4,740.8L366.6,741.0L367.4,741.9L365.2,736.2L363.3,734.6L365.8,734.2L366.7,732.9L365.1,730.6L362.3,727.9L366.4,723.8L364.7,717.3L368.4,712.4L369.8,709.9L366.8,707.9L366.7,706.2L368.6,703.2L367.7,702.1L365.5,702.3L363.9,701.4L362.9,695.6L359.5,695.9L355.2,686.5L354.8,675.6L357.1,676.4L356.1,672.0L355.0,670.6L353.6,666.8L351.0,667.3L348.7,666.2L350.1,664.7L352.1,660.1L353.0,659.2L357.1,658.3L362.6,656.1L366.1,657.6L367.2,659.4L369.6,658.7L371.4,656.9L372.4,654.4L375.7,653.6L386.2,654.2L391.2,655.8L395.7,660.7L400.0,660.9L406.6,658.5L407.6,657.4L406.9,653.7L407.7,649.6L405.5,649.3L405.1,648.0L406.0,644.8L405.5,642.0L408.2,641.2L411.5,642.2L413.3,641.7L423.0,640.4L422.4,639.8L422.8,636.3L425.8,634.1L428.8,633.2L431.6,631.1L430.7,625.3L432.9,617.6L436.3,615.2L439.7,617.8L441.8,618.2L449.4,616.0L456.1,612.7L460.5,607.6L463.1,603.3L463.6,601.7L462.8,601.7L463.5,597.2L462.4,593.5L461.9,589.4L465.1,587.1L464.7,583.9L463.3,581.4L456.1,579.6L451.1,581.5L452.3,584.7L450.5,586.4L446.8,585.1L444.3,585.5L443.2,584.1L443.4,580.8L446.7,577.3L448.7,571.2L447.0,567.4L448.0,566.0L449.5,566.0L450.0,560.0L457.6,557.8L458.0,553.8L460.8,551.0L458.1,547.4L454.7,545.6L451.7,547.7L450.7,544.4L449.5,545.1L449.4,542.8L455.7,543.4L458.8,542.9L458.8,540.0L456.5,537.2L456.7,535.3L465.5,533.9L469.4,535.6L475.0,534.8L476.4,531.8L474.1,528.4L468.9,527.1L469.6,522.4L471.0,520.5L466.6,515.6L471.5,514.7L473.0,517.1L474.9,518.1L475.8,512.4L477.4,510.8L475.9,508.8L471.0,506.2L460.4,503.6L459.4,501.0L457.6,499.9L457.4,497.2L455.9,496.1L449.1,494.9L445.5,492.7L443.1,486.5L443.2,483.3L445.2,481.9L441.3,479.7Z " data-id="DE.HE" data-name="Hessen" id="DE.HE"/>
utf-8utf-8<path d="M280.8,230.4L276.2,228.6L273.8,228.8L275.8,232.2L280.4,233.6L283.0,234.9L287.2,235.3L288.9,237.7L291.6,243.7L297.1,248.6L297.4,252.6L299.1,252.9L305.3,252.2L310.5,254.7L312.6,254.9L314.9,254.0L314.9,253.0L320.3,256.1L324.8,253.7L326.3,252.3L327.4,245.8L324.7,243.6L325.7,240.4L323.0,238.1L320.8,237.4L319.2,240.4L317.3,240.5L308.1,236.3L305.1,236.4L300.9,233.3L295.0,233.7L287.1,231.5L280.8,230.4Z M273.3,176.1L275.4,178.8L278.4,184.1L279.0,184.8L278.2,188.4L280.6,191.3L282.5,192.2L285.5,190.9L287.0,188.9L287.3,186.8L284.6,179.9L284.9,176.8L280.5,177.0L272.8,175.2L273.3,176.1Z " data-id="DE.HB" data-name="Bremen" id="DE.HB"/>
utf-8utf-8<path d="M83.4,180.5L81.2,178.8L89.3,176.9L87.7,174.8L83.7,175.0L75.7,176.9L74.4,177.6L76.5,180.8L78.4,181.6L83.4,180.5Z M102.3,171.8L99.4,170.5L96.3,172.9L99.4,174.4L102.3,171.8Z M119.5,165.7L115.4,164.7L100.8,166.1L97.0,167.6L119.5,165.7Z M147.2,160.7L147.2,160.1L135.0,159.9L129.3,160.6L124.5,162.8L128.9,163.7L141.9,162.4L147.2,160.7Z M155.3,159.2L155.2,161.0L156.7,160.1L155.3,159.2Z M235.5,160.4L235.7,158.8L233.3,158.5L231.2,159.2L230.0,161.9L235.5,160.4Z M177.1,156.9L174.8,155.3L162.0,155.5L160.7,156.1L161.7,160.2L164.8,160.1L165.0,157.7L168.6,157.0L176.4,157.2L177.1,156.9Z M195.2,153.5L196.7,152.5L187.6,152.1L183.2,152.8L180.6,155.4L181.5,156.0L184.2,154.4L186.9,155.7L189.9,155.6L195.2,153.5Z M209.1,151.3L203.5,151.0L201.1,152.4L203.3,153.5L203.3,151.8L209.8,152.5L209.1,151.3Z M272.8,175.2L280.5,177.0L284.9,176.8L284.6,179.9L287.3,186.8L287.0,188.9L285.5,190.9L282.5,192.2L280.6,191.3L278.2,188.4L278.2,188.7L273.7,191.6L272.2,194.6L272.3,198.6L273.9,207.2L273.8,210.5L272.2,208.0L271.4,204.6L270.8,197.0L271.3,193.0L272.9,190.1L277.6,186.2L277.5,185.2L273.3,183.7L264.1,182.3L259.7,180.6L255.2,175.8L253.1,175.0L248.7,175.2L244.7,178.8L243.3,187.7L245.5,188.0L249.7,187.2L252.9,189.9L252.6,194.6L250.5,199.3L247.1,203.1L242.9,203.9L234.1,197.5L229.7,198.3L228.2,197.1L224.9,190.9L226.8,190.0L231.0,189.7L236.1,186.4L236.3,183.9L235.0,182.5L230.9,181.3L231.7,178.8L228.0,176.9L223.4,172.6L220.1,167.6L220.6,162.8L211.9,160.9L180.0,164.3L164.3,166.8L161.8,166.3L159.4,164.5L143.0,166.0L134.7,168.4L130.9,171.6L128.8,172.7L125.1,176.0L121.7,177.8L120.3,179.3L120.6,181.1L126.2,184.4L126.5,186.1L124.2,188.9L117.8,188.2L114.7,195.6L114.3,197.9L114.8,208.0L116.5,211.8L120.5,213.3L145.0,214.0L149.3,215.2L152.0,218.1L146.2,215.7L139.9,215.8L137.4,218.9L137.9,222.1L135.0,225.5L133.9,226.0L134.4,234.2L132.1,240.6L133.8,245.1L135.2,254.9L135.2,259.8L134.4,264.1L132.3,268.7L123.9,279.4L122.2,283.6L121.5,288.2L121.1,302.9L120.5,307.8L118.7,310.7L113.1,309.2L107.9,309.9L102.1,308.5L91.8,308.6L88.3,309.5L84.6,311.7L85.5,313.1L85.0,316.6L89.4,319.8L83.5,322.2L81.7,322.3L83.2,324.4L84.6,331.3L86.8,333.3L89.7,334.4L98.3,335.3L104.0,336.9L109.9,337.2L112.6,336.6L114.8,334.7L121.8,343.0L123.4,346.5L122.7,351.5L120.1,360.0L121.2,363.0L121.8,363.9L124.7,364.0L129.1,362.5L132.0,360.6L146.8,360.1L151.3,359.3L158.9,354.9L161.6,354.4L168.9,349.1L173.7,345.8L178.6,345.6L182.3,339.8L183.0,339.6L180.7,336.7L181.8,332.3L183.4,331.3L191.2,333.2L193.9,339.9L204.8,345.0L207.9,346.8L216.1,344.8L220.2,348.9L223.8,353.8L219.1,355.5L221.1,358.6L218.4,363.3L219.0,364.2L216.7,368.5L220.7,370.5L220.9,371.4L226.5,371.7L229.5,372.7L226.9,379.7L222.3,380.4L219.6,381.4L216.6,383.6L218.9,389.0L226.3,391.1L230.8,387.6L236.4,386.4L240.3,387.5L247.8,385.3L249.7,384.4L253.4,380.7L256.8,378.3L270.7,381.4L272.4,380.4L273.2,378.3L279.2,374.5L280.9,372.5L280.2,369.9L277.3,367.2L276.0,352.5L275.2,350.2L272.6,346.3L269.4,344.5L262.2,341.9L258.3,334.7L265.5,336.0L271.6,335.4L274.8,333.3L275.4,329.9L279.0,327.1L288.3,326.7L294.7,324.7L298.4,326.5L301.6,330.7L302.7,337.8L302.4,339.3L304.4,342.3L315.6,343.3L319.1,342.9L322.8,341.7L330.0,340.5L332.2,335.6L336.4,330.8L342.2,328.3L343.9,328.6L345.5,330.3L348.2,331.9L345.6,334.6L348.0,340.6L344.7,345.1L342.6,348.8L340.0,350.0L336.0,349.9L334.3,352.4L333.4,360.3L333.8,360.9L342.6,363.5L343.1,364.1L340.3,370.2L337.9,370.0L334.5,370.8L336.9,375.7L335.9,377.8L336.6,378.3L343.1,377.7L350.9,378.6L352.0,380.0L352.6,382.6L355.7,383.6L357.0,385.0L357.1,386.8L356.0,389.4L358.6,394.4L355.9,398.6L361.7,400.6L363.2,399.0L368.4,400.4L367.5,405.3L365.7,407.5L373.2,408.2L374.7,411.4L373.2,416.5L377.9,415.8L382.8,415.9L387.6,414.8L388.3,415.2L386.3,418.3L387.9,420.9L387.2,426.3L386.3,428.3L381.7,433.4L382.2,438.4L380.4,445.3L382.7,446.3L387.6,445.0L388.6,445.7L390.5,444.2L393.1,445.0L393.4,447.1L395.2,447.9L401.3,447.6L404.4,448.3L407.7,447.7L408.6,449.4L410.8,450.3L415.0,455.7L413.2,457.3L410.4,455.7L409.6,457.0L410.7,458.5L407.7,458.7L407.4,462.3L405.7,462.8L405.8,464.0L410.4,470.4L409.9,471.0L411.1,478.2L406.6,479.8L405.0,479.6L403.1,481.6L404.1,484.7L400.9,485.2L404.1,487.4L405.9,487.8L413.7,490.5L416.6,491.2L420.0,494.4L422.4,494.2L427.6,487.9L427.0,487.4L423.0,488.4L419.6,484.4L429.0,479.8L428.3,478.3L432.3,479.7L435.6,483.3L437.1,481.5L435.4,478.8L439.2,476.8L441.3,479.7L445.2,481.9L450.5,478.3L453.8,476.1L457.6,476.5L458.9,475.9L466.6,475.0L466.2,473.8L468.5,473.0L469.9,470.9L469.6,469.8L472.7,468.4L475.3,469.7L481.8,466.5L482.5,464.6L488.3,460.6L490.4,455.7L490.9,453.5L495.9,453.1L501.2,455.3L505.2,457.8L510.4,457.7L515.5,455.6L517.1,455.5L519.9,457.0L520.2,454.8L518.7,453.4L517.5,450.8L519.3,449.1L524.5,446.7L521.1,442.2L520.7,438.3L519.5,436.1L511.0,427.3L510.0,423.5L510.6,417.2L514.6,414.6L516.1,411.6L514.9,408.6L513.0,407.6L513.2,404.5L515.9,402.9L509.8,400.0L507.4,396.1L508.4,395.3L514.3,394.3L516.0,392.6L516.0,390.8L523.0,389.8L537.4,389.8L548.7,388.7L549.8,388.2L549.7,385.0L547.6,383.0L554.5,380.3L558.0,377.5L558.8,376.2L557.5,372.9L556.1,372.7L555.3,368.4L559.9,366.6L561.1,363.7L558.4,361.2L553.0,357.2L554.9,354.9L551.2,351.3L552.9,348.8L555.9,348.5L558.3,347.4L557.8,344.5L554.5,342.4L551.5,341.2L543.3,333.2L544.4,328.8L546.9,328.1L548.9,328.4L543.5,320.6L543.1,319.4L543.5,315.2L546.0,312.5L544.4,311.2L541.7,312.4L539.7,311.6L535.7,307.2L531.2,300.9L528.3,298.4L526.0,297.5L525.4,295.9L520.6,288.7L520.7,282.8L524.2,280.5L529.3,280.2L533.9,280.4L541.9,277.9L545.2,274.2L545.3,273.0L551.1,271.5L554.4,272.1L563.6,272.7L568.8,273.5L573.8,276.4L579.6,275.4L586.0,273.2L596.0,267.7L599.0,267.4L598.9,261.0L605.2,258.1L607.0,253.6L601.6,252.0L597.1,251.2L593.7,248.6L591.2,248.0L588.9,248.4L585.6,250.3L579.4,249.6L575.2,246.0L573.3,243.5L573.2,243.4L571.8,241.6L567.6,238.6L564.4,240.2L563.2,238.7L558.7,235.9L553.1,239.8L547.6,236.7L535.2,228.2L525.2,223.9L521.6,221.8L519.2,219.4L514.0,217.3L512.8,211.4L510.3,209.1L506.5,208.4L498.6,208.7L495.3,209.7L490.8,208.6L475.1,201.5L471.2,200.4L468.7,200.4L464.2,200.4L459.7,203.9L453.8,204.2L452.0,203.9L447.7,200.6L442.3,197.9L437.0,199.2L436.9,200.6L434.9,201.9L430.3,202.8L428.3,201.8L424.4,202.7L422.7,198.4L420.9,198.4L418.3,200.3L414.6,197.8L410.7,192.5L408.1,190.0L407.3,184.7L400.0,183.4L393.4,180.1L387.5,178.7L385.8,177.6L377.9,169.4L376.2,165.2L371.6,161.9L367.0,158.1L355.8,144.2L352.3,141.4L348.7,141.5L345.5,140.4L343.7,141.4L335.2,141.4L326.8,143.0L324.9,144.7L320.6,144.5L313.0,145.9L308.4,146.0L299.9,144.5L295.8,142.9L291.9,140.4L289.1,138.2L283.2,138.1L280.9,139.1L277.5,142.4L275.8,146.0L273.4,154.2L269.8,161.8L269.6,168.4L272.2,174.1L272.8,175.2Z M283.0,234.9L280.4,233.6L275.8,232.2L273.8,228.8L276.2,228.6L280.8,230.4L287.1,231.5L295.0,233.7L300.9,233.3L305.1,236.4L308.1,236.3L317.3,240.5L319.2,240.4L320.8,237.4L323.0,238.1L325.7,240.4L324.7,243.6L327.4,245.8L326.3,252.3L324.8,253.7L320.3,256.1L314.9,253.0L314.9,254.0L312.6,254.9L310.5,254.7L305.3,252.2L299.1,252.9L297.4,252.6L297.1,248.6L291.6,243.7L288.9,237.7L287.2,235.3L283.0,234.9Z " data-id="DE.NI" data-name="Niedersachsen" id="DE.NI"/>
utf-8utf-8<path d="M700.6,524.2L698.9,526.9L698.8,530.2L700.6,530.8L702.2,533.4L699.9,537.2L696.4,541.1L696.8,543.4L694.9,544.7L690.1,541.4L689.0,541.1L685.9,542.4L680.1,540.8L676.9,541.4L671.9,540.3L668.2,538.7L666.5,536.2L659.3,533.0L656.8,531.6L645.8,532.1L644.4,532.9L641.9,531.2L641.6,530.1L638.6,525.8L638.0,522.5L634.5,520.7L632.3,521.1L625.6,521.4L619.4,521.3L617.3,522.4L611.3,522.1L607.8,519.4L608.5,516.2L607.5,512.6L603.7,508.4L597.8,505.5L597.4,504.8L606.9,501.0L609.9,497.2L603.1,489.7L599.8,485.3L593.9,481.7L591.0,480.9L580.9,479.8L576.2,479.8L559.3,478.2L556.3,476.9L555.3,473.4L555.8,470.8L552.6,465.3L552.7,463.0L548.4,456.6L548.7,455.2L552.2,455.4L551.8,452.5L545.7,450.5L544.3,449.4L540.1,449.1L537.7,447.8L526.2,447.5L524.5,446.7L519.3,449.1L517.5,450.8L518.7,453.4L520.2,454.8L519.9,457.0L517.1,455.5L515.5,455.6L510.4,457.7L505.2,457.8L501.2,455.3L495.9,453.1L490.9,453.5L490.4,455.7L488.3,460.6L482.5,464.6L481.8,466.5L475.3,469.7L472.7,468.4L469.6,469.8L469.9,470.9L468.5,473.0L466.2,473.8L466.6,475.0L458.9,475.9L457.6,476.5L453.8,476.1L450.5,478.3L445.2,481.9L443.2,483.3L443.1,486.5L445.5,492.7L449.1,494.9L455.9,496.1L457.4,497.2L457.6,499.9L459.4,501.0L460.4,503.6L471.0,506.2L475.9,508.8L477.4,510.8L475.8,512.4L474.9,518.1L473.0,517.1L471.5,514.7L466.6,515.6L471.0,520.5L469.6,522.4L468.9,527.1L474.1,528.4L476.4,531.8L475.0,534.8L469.4,535.6L465.5,533.9L456.7,535.3L456.5,537.2L458.8,540.0L458.8,542.9L455.7,543.4L449.4,542.8L449.5,545.1L450.7,544.4L451.7,547.7L454.7,545.6L458.1,547.4L460.8,551.0L458.0,553.8L457.6,557.8L450.0,560.0L449.5,566.0L448.0,566.0L447.0,567.4L448.7,571.2L446.7,577.3L443.4,580.8L443.2,584.1L444.3,585.5L446.8,585.1L450.5,586.4L452.3,584.7L451.1,581.5L456.1,579.6L463.3,581.4L464.7,583.9L465.1,587.1L461.9,589.4L462.4,593.5L463.5,597.2L462.8,601.7L463.6,601.7L469.3,596.3L471.1,595.3L472.6,597.7L480.3,598.3L483.7,602.6L492.7,605.1L495.0,607.4L497.1,610.8L502.1,614.7L501.6,617.2L503.0,618.5L507.8,618.1L509.8,620.7L513.2,624.0L519.5,623.7L524.4,630.3L525.1,632.0L524.8,636.3L527.7,642.3L532.6,642.3L535.4,642.9L539.2,644.7L540.1,639.9L547.4,639.0L551.5,640.0L552.6,639.3L551.5,635.8L548.7,635.0L546.6,632.9L543.1,632.4L537.6,628.8L538.1,623.8L542.0,623.8L544.7,620.1L546.9,620.3L550.8,619.1L552.9,619.4L562.1,619.7L568.3,623.0L571.3,623.3L574.1,625.2L577.6,624.4L579.3,623.0L583.8,624.8L586.1,628.1L583.9,630.5L584.8,631.7L590.5,635.8L592.0,633.9L596.1,635.6L598.2,631.1L597.4,629.4L598.4,626.1L598.1,624.7L598.9,621.6L597.7,620.2L596.8,614.5L594.9,607.8L602.5,604.7L602.6,603.6L605.2,601.4L612.2,601.7L614.1,602.2L615.4,604.8L613.6,606.0L615.2,612.3L617.8,614.1L620.3,614.1L621.4,618.0L625.2,620.4L627.6,620.7L631.8,618.6L636.5,619.8L649.3,617.5L652.4,616.1L655.5,616.1L658.5,617.8L664.9,617.0L667.4,615.8L666.5,614.7L668.3,612.8L670.4,612.1L670.9,607.0L669.5,606.2L669.1,604.4L675.4,597.6L678.5,597.9L679.8,599.3L682.0,599.7L685.3,595.5L687.0,595.3L689.4,596.1L692.3,595.4L693.8,592.4L693.4,589.6L696.8,586.3L704.2,586.2L707.4,584.1L710.6,579.9L705.5,578.7L704.4,573.8L701.2,572.7L703.1,569.6L706.0,567.8L705.7,566.7L702.4,564.9L702.5,563.5L715.2,558.6L719.6,558.8L724.2,554.6L728.8,552.3L728.9,551.1L739.2,551.8L739.7,552.5L744.0,549.6L741.4,544.6L738.5,541.3L730.6,537.5L724.5,526.6L707.3,522.6L700.3,523.1L700.6,524.2Z " data-id="DE.TH" data-name="Thüringen" id="DE.TH"/>
utf-8utf-8<path d="M468.1,197.9L463.0,194.2L459.6,192.7L456.8,189.4L452.4,187.2L451.4,180.7L455.0,179.1L455.5,172.4L454.1,171.4L453.5,168.9L449.6,166.8L451.6,160.3L450.0,160.2L446.4,162.1L441.0,161.1L439.5,162.1L437.1,167.3L433.0,167.6L431.1,170.5L429.6,171.1L426.7,170.6L424.0,171.3L413.8,177.9L411.7,175.5L409.2,173.8L407.1,173.5L404.6,181.3L409.1,181.6L413.2,183.4L414.6,185.2L413.3,185.7L407.3,184.7L407.3,184.7L408.1,190.0L410.7,192.5L414.6,197.8L418.3,200.3L420.9,198.4L422.7,198.4L424.4,202.7L428.3,201.8L430.3,202.8L434.9,201.9L436.9,200.6L437.0,199.2L442.3,197.9L447.7,200.6L452.0,203.9L453.8,204.2L459.7,203.9L464.2,200.4L468.7,200.4L468.1,197.9Z " data-id="DE.HH" data-name="Hamburg" id="DE.HH"/>
utf-8utf-8<path d="M288.4,116.5L288.6,114.9L287.4,112.1L285.4,113.1L285.1,114.3L286.8,116.9L288.4,116.5Z M203.7,98.5L202.6,96.5L201.1,96.6L203.7,98.5Z M306.4,59.3L308.8,58.4L311.5,55.2L313.4,53.8L309.2,50.9L305.0,51.1L301.3,52.4L298.1,54.8L299.4,57.0L298.3,57.5L299.5,59.0L301.8,59.6L306.4,59.3Z M558.0,57.9L552.4,53.1L543.2,50.2L538.1,50.8L534.1,53.8L531.5,59.3L532.0,61.2L533.2,60.6L540.0,61.2L541.6,61.6L542.1,65.4L543.4,66.6L546.2,66.9L551.4,65.1L564.9,66.8L558.0,57.9Z M282.9,54.8L285.2,51.9L285.6,47.1L278.9,49.3L275.5,51.0L275.0,53.2L277.6,56.1L279.9,56.1L282.9,54.8Z M248.5,26.6L246.2,26.5L244.3,28.1L241.5,32.4L245.9,37.2L248.4,38.9L253.4,37.0L251.3,36.2L245.6,28.8L248.5,26.6Z M271.3,28.7L273.1,24.0L271.1,21.6L268.6,20.5L262.7,20.3L259.2,20.5L256.3,21.3L254.0,23.1L252.1,25.9L258.4,28.7L261.9,29.5L264.6,28.8L269.0,29.9L271.3,28.7Z M404.6,181.3L407.1,173.5L409.2,173.8L411.7,175.5L413.8,177.9L424.0,171.3L426.7,170.6L429.6,171.1L431.1,170.5L433.0,167.6L437.1,167.3L439.5,162.1L441.0,161.1L446.4,162.1L450.0,160.2L451.6,160.3L449.6,166.8L453.5,168.9L454.1,171.4L455.5,172.4L455.0,179.1L451.4,180.7L452.4,187.2L456.8,189.4L459.6,192.7L463.0,194.2L468.1,197.9L468.7,200.4L471.2,200.4L475.1,201.5L490.8,208.6L495.3,209.7L498.6,208.7L499.7,207.4L501.0,202.9L501.6,198.6L504.2,196.9L507.8,196.6L508.7,194.2L514.6,192.8L520.8,188.5L521.8,184.2L521.3,181.6L524.3,181.9L529.2,181.3L532.1,184.5L534.7,182.1L532.8,176.0L532.5,173.6L533.9,172.8L534.0,170.3L532.3,166.5L529.2,164.3L523.0,163.5L517.1,158.3L511.9,156.8L512.9,151.2L510.3,144.4L511.4,141.4L516.5,139.0L521.5,135.3L525.0,134.2L526.3,134.5L527.6,136.3L532.0,134.9L527.7,133.8L525.8,128.3L525.8,128.3L523.7,127.9L521.1,123.3L517.0,123.6L514.0,122.9L511.9,121.7L508.5,116.2L514.6,109.7L518.8,110.2L524.8,108.2L528.8,104.0L540.8,98.0L543.0,94.7L543.3,92.4L542.8,84.5L541.7,81.9L540.4,76.5L539.1,74.3L542.4,73.9L546.1,70.5L542.7,69.6L535.5,73.0L533.7,70.5L524.9,71.4L521.3,72.6L517.9,74.3L512.1,78.5L508.7,80.2L503.8,80.8L499.4,80.0L489.5,73.3L472.3,67.8L465.6,63.9L463.2,63.0L457.5,63.0L455.4,65.3L448.2,67.9L447.1,72.4L444.9,76.6L443.2,78.3L441.0,78.9L441.9,75.2L440.5,72.4L442.3,72.0L445.6,69.1L446.1,67.3L444.3,61.9L446.3,60.3L439.6,56.2L437.6,55.6L412.2,60.2L407.5,58.4L407.5,57.5L411.9,57.1L416.4,56.0L420.6,54.2L423.9,51.8L426.6,46.9L427.3,38.9L426.4,34.3L427.0,32.4L424.1,32.4L422.4,30.8L415.3,31.5L417.0,29.6L419.5,28.0L424.5,27.7L420.6,24.0L418.9,19.4L416.3,17.1L412.8,15.5L410.3,15.7L410.9,18.5L406.1,19.9L403.4,20.2L400.8,16.6L393.5,13.4L389.0,11.9L382.5,11.7L377.2,10.2L376.6,5.4L374.0,8.0L371.5,8.7L369.6,10.6L363.4,12.9L358.5,13.2L356.3,11.7L354.4,12.0L350.8,13.9L341.5,14.1L339.6,13.6L337.7,8.7L335.9,7.5L313.2,3.6L304.7,1.1L296.2,0.0L293.7,0.3L286.6,2.3L282.7,2.2L278.9,1.3L277.7,5.2L277.4,8.4L278.2,11.9L282.0,17.0L283.5,19.7L283.1,23.1L286.8,24.4L292.8,28.2L295.9,29.6L297.4,31.5L301.5,38.9L298.0,40.7L298.8,41.7L304.3,40.6L307.2,44.1L316.3,51.1L319.2,54.2L319.4,57.5L318.8,59.7L313.1,62.2L308.7,65.2L303.9,66.8L292.2,66.8L283.7,68.5L281.4,67.8L279.2,71.8L280.2,73.3L281.8,71.6L286.7,73.3L286.7,74.3L278.1,75.6L276.7,77.0L277.2,80.6L279.6,83.6L282.7,85.6L286.8,86.1L290.2,83.5L291.8,83.0L295.7,83.5L298.9,83.2L304.4,82.0L307.6,81.7L307.0,83.5L309.3,82.8L313.1,80.2L315.5,79.8L314.6,81.9L310.4,86.4L304.1,87.5L303.8,91.2L301.3,95.7L303.0,102.2L306.1,106.0L308.7,104.4L312.1,103.1L315.8,102.6L318.4,103.2L318.2,105.6L323.1,109.7L323.3,111.8L321.4,118.9L319.1,119.7L316.8,119.2L312.5,117.0L307.9,116.6L303.9,118.1L313.5,131.5L317.2,134.9L321.1,137.0L323.6,137.7L325.9,135.7L332.8,137.7L346.4,137.9L350.4,138.6L354.5,140.5L361.5,144.9L365.5,146.0L365.8,148.8L367.8,153.1L370.5,157.2L380.0,161.6L381.1,162.4L382.2,168.4L383.8,172.8L387.5,175.8L395.4,179.6L399.4,180.8L404.6,181.3Z M240.1,0.0L239.5,2.0L239.1,16.7L239.4,20.3L240.2,22.2L241.4,17.5L240.7,10.1L241.7,5.5L244.8,3.8L247.4,3.9L256.4,5.4L262.5,2.7L275.7,3.2L278.3,1.7L255.3,2.5L250.1,1.6L247.7,0.0L240.1,0.0Z " data-id="DE.SH" data-name="Schleswig-Holstein" id="DE.SH"/>
utf-8utf-8<path d="M248.9,577.0L243.4,577.5L242.7,575.3L240.7,572.7L235.9,567.8L234.7,566.1L234.8,562.0L233.4,557.8L229.2,557.5L223.6,553.1L219.0,551.1L220.4,545.4L214.0,544.0L212.6,544.4L209.0,548.6L211.3,556.3L210.4,557.4L207.9,556.6L201.0,561.0L203.1,562.7L203.2,565.8L201.0,565.6L199.5,567.5L196.0,568.6L193.1,571.6L191.1,571.3L185.9,573.4L176.8,575.4L172.7,575.1L168.7,584.2L165.8,586.0L159.1,587.5L152.9,587.2L149.3,585.8L148.5,587.5L145.2,590.0L139.1,592.0L134.0,591.5L128.3,594.8L122.4,596.2L119.1,600.0L116.1,601.0L116.8,604.5L116.6,607.3L112.9,609.4L108.6,605.9L102.9,609.0L102.0,612.3L104.8,614.6L105.1,617.9L107.6,623.6L98.7,626.1L96.9,625.8L93.5,623.2L89.6,624.8L88.1,622.6L82.6,621.6L78.2,622.2L72.7,625.4L69.8,625.9L69.3,624.4L63.8,620.2L62.8,621.8L66.5,626.4L63.7,628.6L61.0,628.6L61.2,629.7L59.8,630.9L56.9,631.3L52.9,630.6L51.5,631.3L49.6,635.1L50.1,636.4L48.1,637.8L41.2,639.8L40.2,641.1L36.6,643.8L38.8,646.7L38.8,648.3L34.3,650.6L33.6,653.3L33.9,656.8L32.7,660.7L31.9,666.8L33.9,668.5L34.6,671.4L39.6,681.6L40.7,679.7L42.7,682.2L46.6,689.3L48.3,690.7L53.7,693.0L55.6,696.6L61.0,696.8L64.2,699.3L68.1,700.7L73.4,700.7L77.2,701.5L77.0,706.5L77.3,708.7L76.3,710.7L77.9,713.7L77.1,715.3L69.2,719.6L67.5,721.6L69.3,723.9L67.1,727.4L64.4,730.4L62.2,734.0L62.4,738.5L62.2,739.8L77.7,738.6L90.5,739.1L97.5,736.5L102.2,736.3L118.2,730.1L126.5,725.6L129.4,726.1L133.4,725.3L141.6,728.9L148.3,729.1L151.4,731.2L158.1,734.5L160.1,734.1L163.3,732.4L164.1,734.7L166.2,738.6L168.4,745.4L165.2,747.4L161.7,750.9L162.5,753.0L167.2,757.5L168.1,759.4L173.7,760.2L177.5,761.6L178.1,762.8L177.9,766.2L174.8,769.1L174.3,771.6L172.5,773.7L171.9,776.3L170.3,778.1L168.1,778.5L167.4,781.0L172.5,788.2L174.6,789.7L177.1,790.0L179.2,789.5L181.4,789.6L181.9,791.2L186.7,791.5L188.7,792.1L189.6,794.1L188.3,795.3L196.5,802.9L201.4,803.6L208.5,808.3L209.8,808.0L218.5,808.0L222.3,806.6L231.6,808.8L237.9,808.2L239.9,808.4L257.8,816.2L268.8,818.1L270.1,819.1L270.0,819.1L273.4,818.1L276.8,814.9L279.0,811.9L286.5,798.0L286.9,796.5L288.5,783.2L289.1,780.8L291.6,779.2L298.9,771.7L299.2,770.0L296.6,769.2L296.8,768.0L300.4,760.6L299.5,756.9L299.5,751.4L293.8,750.0L293.7,749.1L296.0,748.1L291.6,738.6L289.4,735.6L290.1,732.3L288.1,727.9L283.4,720.4L283.4,716.7L285.2,714.0L288.1,712.3L291.7,711.7L295.5,706.0L289.7,706.0L287.9,702.5L285.6,699.3L284.4,695.5L279.7,688.8L281.1,683.9L278.7,679.2L266.4,668.3L260.4,667.2L246.8,671.0L242.6,673.7L237.5,675.9L232.8,677.2L228.3,677.4L226.3,675.0L225.0,672.1L217.6,666.8L216.1,666.1L220.3,663.4L224.9,657.5L228.4,656.9L232.3,658.4L232.9,654.3L229.3,652.0L229.3,649.7L231.8,645.7L238.0,643.0L239.7,641.8L242.8,643.5L244.8,640.4L243.7,639.4L245.0,636.9L250.5,637.1L253.1,636.2L252.8,633.8L251.4,630.3L248.3,627.6L244.7,621.9L242.7,621.2L242.3,619.8L236.9,618.5L236.3,617.2L237.6,616.3L238.9,612.3L240.7,610.2L238.4,607.4L238.8,601.2L242.7,597.9L245.9,597.9L247.8,599.9L250.8,600.0L252.5,599.0L254.9,594.4L255.4,591.4L250.8,583.8L251.7,580.8L252.0,578.5L248.9,577.0Z " data-id="DE.RP" data-name="Rheinland-Pfalz" id="DE.RP"/>
utf-8utf-8<path d="M61.6,744.3L62.1,748.6L64.3,749.5L66.3,748.3L68.4,748.2L78.7,752.4L87.9,762.7L87.9,764.6L85.9,764.7L88.0,769.5L95.6,775.3L96.3,778.3L100.4,784.2L102.8,783.4L103.6,785.6L102.9,789.1L105.7,791.5L110.6,791.6L115.0,792.9L116.4,792.6L118.2,790.5L116.8,785.9L117.3,784.0L118.4,783.7L123.1,784.6L127.5,784.5L134.6,787.8L136.9,787.9L137.1,792.8L138.5,796.6L141.0,798.2L144.3,796.4L144.0,794.2L153.4,797.3L163.0,797.3L167.3,798.0L168.4,796.1L173.1,794.5L174.9,791.0L176.7,790.1L177.1,790.0L174.6,789.7L172.5,788.2L167.4,781.0L168.1,778.5L170.3,778.1L171.9,776.3L172.5,773.7L174.3,771.6L174.8,769.1L177.9,766.2L178.1,762.8L177.5,761.6L173.7,760.2L168.1,759.4L167.2,757.5L162.5,753.0L161.7,750.9L165.2,747.4L168.4,745.4L166.2,738.6L164.1,734.7L163.3,732.4L160.1,734.1L158.1,734.5L151.4,731.2L148.3,729.1L141.6,728.9L133.4,725.3L129.4,726.1L126.5,725.6L118.2,730.1L102.2,736.3L97.5,736.5L90.5,739.1L77.7,738.6L62.2,739.8L61.6,744.3Z " data-id="DE.SL" data-name="Saarland" id="DE.SL"/>
utf-8utf-8<path d="M689.9,629.9L689.0,628.7L683.0,627.8L676.9,624.7L676.0,620.0L673.6,618.7L671.3,615.9L670.3,615.6L667.4,615.8L664.9,617.0L658.5,617.8L655.5,616.1L652.4,616.1L649.3,617.5L636.5,619.8L631.8,618.6L627.6,620.7L625.2,620.4L621.4,618.0L620.3,614.1L617.8,614.1L615.2,612.3L613.6,606.0L615.4,604.8L614.1,602.2L612.2,601.7L605.2,601.4L602.6,603.6L602.5,604.7L594.9,607.8L596.8,614.5L597.7,620.2L598.9,621.6L598.1,624.7L598.4,626.1L597.4,629.4L598.2,631.1L596.1,635.6L592.0,633.9L590.5,635.8L584.8,631.7L583.9,630.5L586.1,628.1L583.8,624.8L579.3,623.0L577.6,624.4L574.1,625.2L571.3,623.3L568.3,623.0L562.1,619.7L552.9,619.4L550.8,619.1L546.9,620.3L544.7,620.1L542.0,623.8L538.1,623.8L537.6,628.8L543.1,632.4L546.6,632.9L548.7,635.0L551.5,635.8L552.6,639.3L551.5,640.0L547.4,639.0L540.1,639.9L539.2,644.7L535.4,642.9L532.6,642.3L527.7,642.3L524.8,636.3L525.1,632.0L524.4,630.3L519.5,623.7L513.2,624.0L509.8,620.7L507.8,618.1L503.0,618.5L501.6,617.2L502.1,614.7L497.1,610.8L495.0,607.4L492.7,605.1L483.7,602.6L480.3,598.3L472.6,597.7L471.1,595.3L469.3,596.3L463.6,601.7L463.1,603.3L460.5,607.6L456.1,612.7L449.4,616.0L441.8,618.2L439.7,617.8L436.3,615.2L432.9,617.6L430.7,625.3L431.6,631.1L428.8,633.2L425.8,634.1L422.8,636.3L422.4,639.8L423.0,640.4L413.3,641.7L411.5,642.2L408.2,641.2L405.5,642.0L406.0,644.8L405.1,648.0L405.5,649.3L407.7,649.6L406.9,653.7L407.6,657.4L406.6,658.5L400.0,660.9L395.7,660.7L391.2,655.8L386.2,654.2L375.7,653.6L372.4,654.4L371.4,656.9L369.6,658.7L367.2,659.4L366.1,657.6L362.6,656.1L357.1,658.3L353.0,659.2L352.1,660.1L350.1,664.7L348.7,666.2L351.0,667.3L353.6,666.8L355.0,670.6L356.1,672.0L357.1,676.4L354.8,675.6L355.2,686.5L359.5,695.9L362.9,695.6L363.9,701.4L365.5,702.3L367.7,702.1L368.6,703.2L366.7,706.2L366.8,707.9L369.8,709.9L368.4,712.4L364.7,717.3L366.4,723.8L362.3,727.9L365.1,730.6L366.7,732.9L367.6,733.4L374.2,732.3L383.1,732.3L384.3,730.8L386.5,724.7L388.0,724.0L396.2,722.5L397.6,723.7L400.6,722.2L399.7,719.9L400.7,714.3L397.9,712.8L394.8,715.7L394.3,712.7L388.6,711.5L387.9,710.5L388.6,708.5L387.6,706.3L391.9,703.5L397.2,703.8L401.2,702.6L407.1,702.1L413.2,704.4L416.4,703.9L419.5,705.5L425.0,704.1L423.2,715.6L424.7,716.7L427.3,717.2L431.5,712.5L434.5,717.0L435.3,715.9L440.9,712.4L445.4,716.7L446.8,723.1L450.7,726.5L451.6,727.8L447.6,735.8L447.6,737.0L450.7,736.1L453.7,732.7L454.8,732.2L455.4,734.8L456.9,735.7L458.6,745.2L459.8,746.2L467.8,746.1L472.8,741.7L472.0,738.9L474.5,737.2L475.9,740.3L479.6,742.6L479.0,745.1L480.2,747.2L481.7,753.0L485.2,759.5L481.8,759.6L479.9,761.6L480.2,766.4L483.9,769.4L483.2,771.4L484.8,774.8L484.3,776.1L481.6,775.1L483.4,778.8L484.2,782.3L490.7,790.4L492.8,791.6L494.0,790.9L497.2,792.6L497.1,796.7L494.1,799.2L499.5,804.0L499.2,806.1L500.1,806.8L504.4,807.5L506.3,808.5L515.3,815.7L520.7,822.1L521.7,824.8L519.3,826.6L520.3,827.3L520.2,834.9L521.1,836.2L519.5,842.2L519.2,848.6L522.3,850.4L526.4,855.4L521.8,859.1L520.4,859.9L519.6,858.8L520.5,855.0L513.3,860.2L509.9,856.7L507.6,856.9L505.1,855.2L503.6,855.3L501.6,858.0L501.6,859.6L503.5,862.5L505.7,863.8L508.4,867.6L506.7,868.7L508.4,873.1L507.2,878.1L503.5,879.2L500.7,882.6L490.2,888.2L488.6,886.3L485.1,886.0L480.7,887.3L477.8,890.4L477.5,892.7L471.6,900.0L474.2,901.8L478.2,908.0L482.4,915.8L487.7,932.8L491.0,938.5L491.5,945.5L490.8,948.6L487.9,956.4L486.5,957.3L486.5,959.1L489.4,966.1L487.9,973.0L489.0,972.9L492.3,979.3L487.0,982.6L487.7,984.1L491.5,987.4L492.3,994.1L491.4,999.2L489.3,998.5L488.6,1001.6L487.5,1002.7L485.6,999.1L484.0,998.4L479.9,999.1L473.8,1001.3L464.6,999.4L460.4,1000.6L452.5,1006.8L447.5,1009.0L443.6,1008.1L441.3,1010.0L437.0,1011.0L435.7,1012.0L438.8,1013.3L443.5,1016.2L448.3,1017.2L449.6,1014.6L451.9,1012.2L456.8,1011.8L458.1,1013.0L458.9,1017.9L461.3,1018.9L464.1,1017.9L467.5,1019.0L473.8,1018.0L474.2,1020.3L476.9,1022.8L479.6,1027.0L482.8,1025.4L488.6,1032.3L489.7,1033.9L489.2,1035.4L486.8,1037.1L488.1,1038.3L489.3,1042.6L490.4,1043.5L495.2,1043.0L497.5,1041.5L502.4,1040.7L504.5,1041.6L504.5,1044.2L502.8,1049.4L499.7,1055.9L508.5,1055.0L510.9,1054.1L515.8,1051.5L523.8,1041.7L526.1,1041.0L530.3,1035.5L531.2,1032.3L531.0,1029.3L528.8,1025.4L527.1,1024.7L528.0,1017.8L525.9,1013.5L530.7,1012.6L531.3,1013.9L530.5,1017.2L533.9,1019.1L538.7,1019.7L545.0,1015.0L547.7,1015.0L562.7,1019.7L565.2,1021.8L568.4,1021.5L574.4,1019.3L579.9,1021.7L575.5,1024.7L576.3,1025.8L582.2,1028.1L588.4,1033.9L587.7,1036.4L589.0,1038.3L590.6,1039.1L602.3,1039.3L604.4,1038.7L611.5,1034.4L614.3,1033.7L616.7,1034.6L616.7,1038.4L619.4,1038.6L621.8,1037.7L626.7,1032.8L628.8,1032.2L633.6,1032.1L636.3,1030.1L633.2,1028.0L638.1,1022.9L640.7,1022.4L646.0,1023.4L651.2,1022.6L653.6,1021.8L657.4,1013.9L662.8,1011.2L667.7,1012.0L676.8,1012.1L683.2,1013.2L684.3,1012.8L685.3,1010.5L686.5,1009.8L695.8,1008.2L721.5,1009.1L722.4,1009.0L725.4,1005.5L725.4,999.5L722.2,996.0L721.9,994.8L728.7,991.8L727.2,996.2L727.9,997.8L735.1,997.1L741.6,998.2L747.8,996.5L753.2,1002.7L756.7,1005.0L760.6,1005.7L762.9,1005.3L769.4,1000.9L775.4,999.1L779.4,999.1L785.7,1000.5L787.6,1000.3L786.6,1002.8L788.5,1004.6L793.9,1008.0L790.9,1009.3L789.7,1012.6L790.6,1016.0L793.4,1017.9L797.2,1019.2L802.7,1023.9L808.4,1027.5L816.3,1028.5L820.0,1024.7L819.3,1011.9L819.6,1012.0L822.4,1001.3L821.3,999.3L816.0,993.8L814.3,993.6L809.9,994.9L803.6,993.9L801.6,992.3L804.3,987.7L805.0,984.8L811.6,975.0L808.4,971.5L804.1,964.1L798.8,960.1L794.0,954.5L792.1,951.4L783.8,944.4L780.9,939.5L781.0,937.6L783.7,936.2L789.8,931.0L795.6,925.2L801.7,924.2L806.6,921.0L812.3,916.5L823.6,912.7L838.7,910.4L842.4,908.7L852.7,900.7L854.1,898.5L855.2,887.7L857.3,881.1L855.8,878.5L856.2,873.1L859.7,871.9L863.4,871.5L875.1,874.2L879.0,876.2L880.9,878.4L885.8,880.3L886.5,876.6L890.9,874.4L893.9,869.5L894.4,867.7L893.6,858.8L893.8,857.1L895.2,855.9L891.9,853.0L891.5,851.9L894.3,846.0L892.0,844.1L886.0,835.2L883.2,831.9L881.6,831.2L877.4,830.6L871.4,826.0L870.0,823.5L869.6,820.8L867.6,821.0L859.0,817.5L857.5,818.0L855.6,822.0L849.3,818.9L846.0,816.4L844.2,814.3L843.9,810.3L842.5,807.9L837.5,803.9L830.1,798.5L823.4,798.2L820.2,796.7L816.6,791.6L805.4,780.0L804.0,779.3L800.2,775.8L798.7,772.0L796.7,771.4L789.8,766.7L785.5,765.8L784.0,766.2L784.6,768.0L782.6,768.2L776.0,767.4L773.8,766.8L771.9,765.3L767.9,758.6L765.5,756.7L760.3,754.7L758.0,753.2L756.6,751.2L755.0,742.0L751.7,741.3L750.4,740.2L744.5,728.9L741.8,727.8L740.6,726.3L740.5,721.1L739.5,719.6L732.4,716.6L730.7,715.4L726.3,709.4L727.5,707.3L731.9,705.8L733.6,704.3L734.2,697.1L736.4,697.7L737.1,695.5L739.4,691.7L740.3,686.8L733.3,683.2L733.9,679.8L733.5,677.7L731.5,676.3L727.5,675.9L725.6,674.6L708.4,667.3L707.6,663.7L706.5,662.4L701.4,659.3L700.3,657.2L700.6,651.9L700.2,649.8L695.0,644.2L689.4,641.5L688.2,639.8L691.2,636.9L691.3,635.1L687.1,629.7L689.9,629.9Z " data-id="DE.BY" data-name="Bayern" id="DE.BY"/>
utf-8utf-8<path d="M818.0,308.3L811.9,307.5L808.4,307.6L806.0,309.2L799.4,310.8L796.7,309.4L796.2,307.2L794.1,307.6L788.0,310.7L787.1,313.0L788.0,316.0L782.2,314.5L780.9,314.6L780.5,324.7L782.4,327.9L778.0,332.0L778.3,336.5L776.7,340.1L783.6,342.1L785.2,341.0L789.6,339.4L794.5,341.0L797.4,340.1L800.4,341.6L802.9,340.9L809.4,344.3L812.8,344.3L813.3,340.0L815.0,339.5L818.4,341.7L822.7,341.1L827.8,342.3L829.9,343.2L835.2,344.2L838.0,349.6L839.8,346.8L843.0,345.6L843.9,340.3L845.8,339.0L845.5,333.5L841.1,332.0L837.4,329.4L833.3,329.8L835.2,323.7L835.0,322.6L832.7,322.3L826.3,319.3L818.6,312.9L818.0,308.3Z " data-id="DE.BE" data-name="Berlin" id="DE.BE"/>
utf-8utf-8<path d="M783.7,446.5L790.8,441.8L793.5,438.5L790.7,431.3L790.3,427.7L793.9,421.6L797.4,418.3L798.2,416.6L796.1,415.9L791.2,416.2L790.0,418.1L786.8,416.3L779.7,417.0L777.6,416.4L771.3,413.0L767.8,410.0L764.4,409.2L759.4,409.1L754.6,404.7L749.2,404.1L739.2,399.4L734.2,397.4L732.8,399.1L728.7,401.5L723.7,400.6L716.4,396.6L708.0,395.1L702.3,391.7L701.1,388.8L693.8,381.6L688.5,378.2L687.7,376.4L683.2,372.2L682.1,370.0L684.2,364.7L686.5,362.7L684.7,359.6L682.3,358.3L681.9,356.2L683.1,350.9L684.3,349.1L683.6,346.1L686.0,337.5L684.8,335.6L686.7,334.0L688.6,330.2L689.1,325.6L684.4,325.6L682.6,323.5L679.2,323.0L677.9,325.6L675.6,326.1L673.0,324.1L674.6,321.6L670.4,321.0L673.0,317.0L673.4,310.1L677.1,309.2L679.2,307.0L680.2,301.9L678.1,300.2L675.7,296.1L675.9,289.3L679.2,287.0L679.4,284.6L677.0,279.4L672.1,277.0L668.5,277.8L665.8,277.7L664.4,274.6L649.9,275.2L646.9,273.9L642.3,272.9L635.1,269.3L636.8,265.6L632.1,264.9L630.5,264.0L627.0,260.2L621.6,261.9L619.7,261.7L618.0,257.8L616.7,257.1L611.6,256.4L612.8,253.2L611.7,252.6L607.0,253.6L605.2,258.1L598.9,261.0L599.0,267.4L596.0,267.7L586.0,273.2L579.6,275.4L573.8,276.4L568.8,273.5L563.6,272.7L554.4,272.1L551.1,271.5L545.3,273.0L545.2,274.2L541.9,277.9L533.9,280.4L529.3,280.2L524.2,280.5L520.7,282.8L520.6,288.7L525.4,295.9L526.0,297.5L528.3,298.4L531.2,300.9L535.7,307.2L539.7,311.6L541.7,312.4L544.4,311.2L546.0,312.5L543.5,315.2L543.1,319.4L543.5,320.6L548.9,328.4L546.9,328.1L544.4,328.8L543.3,333.2L551.5,341.2L554.5,342.4L557.8,344.5L558.3,347.4L555.9,348.5L552.9,348.8L551.2,351.3L554.9,354.9L553.0,357.2L558.4,361.2L561.1,363.7L559.9,366.6L555.3,368.4L556.1,372.7L557.5,372.9L558.8,376.2L558.0,377.5L554.5,380.3L547.6,383.0L549.7,385.0L549.8,388.2L548.7,388.7L537.4,389.8L523.0,389.8L516.0,390.8L516.0,392.6L514.3,394.3L508.4,395.3L507.4,396.1L509.8,400.0L515.9,402.9L513.2,404.5L513.0,407.6L514.9,408.6L516.1,411.6L514.6,414.6L510.6,417.2L510.0,423.5L511.0,427.3L519.5,436.1L520.7,438.3L521.1,442.2L524.5,446.7L526.2,447.5L537.7,447.8L540.1,449.1L544.3,449.4L545.7,450.5L551.8,452.5L552.2,455.4L548.7,455.2L548.4,456.6L552.7,463.0L552.6,465.3L555.8,470.8L555.3,473.4L556.3,476.9L559.3,478.2L576.2,479.8L580.9,479.8L591.0,480.9L593.9,481.7L599.8,485.3L603.1,489.7L609.9,497.2L606.9,501.0L597.4,504.8L597.8,505.5L603.7,508.4L607.5,512.6L608.5,516.2L607.8,519.4L611.3,522.1L617.3,522.4L619.4,521.3L625.6,521.4L632.3,521.1L634.5,520.7L638.0,522.5L638.6,525.8L641.6,530.1L641.9,531.2L644.4,532.9L645.8,532.1L656.8,531.6L659.3,533.0L666.5,536.2L668.2,538.7L671.9,540.3L676.9,541.4L680.1,540.8L685.9,542.4L689.0,541.1L690.1,541.4L694.9,544.7L696.8,543.4L696.4,541.1L699.9,537.2L702.2,533.4L700.6,530.8L698.8,530.2L698.9,526.9L700.6,524.2L700.3,523.1L695.7,522.4L693.7,518.8L690.5,515.8L690.8,512.0L687.2,510.1L687.5,502.0L685.3,499.7L683.9,494.4L685.1,491.3L688.7,490.1L687.1,482.8L687.1,480.6L685.3,475.5L685.2,473.8L688.8,468.1L688.4,461.6L691.2,459.7L692.4,457.0L696.0,458.2L699.3,458.5L705.5,456.3L713.5,455.6L714.6,451.6L724.3,451.6L725.8,452.4L736.1,450.9L737.7,451.7L739.8,450.8L743.8,446.5L747.9,447.0L751.1,448.1L753.2,447.3L758.6,443.6L759.5,442.4L762.6,442.1L763.9,444.2L772.5,448.0L773.9,447.8L779.8,449.3L781.7,449.7L783.7,446.5Z " data-id="DE.ST" data-name="Sachsen-Anhalt" id="DE.ST"/>
utf-8utf-8<path d="M779.8,449.3L773.9,447.8L772.5,448.0L763.9,444.2L762.6,442.1L759.5,442.4L758.6,443.6L753.2,447.3L751.1,448.1L747.9,447.0L743.8,446.5L739.8,450.8L737.7,451.7L736.1,450.9L725.8,452.4L724.3,451.6L714.6,451.6L713.5,455.6L705.5,456.3L699.3,458.5L696.0,458.2L692.4,457.0L691.2,459.7L688.4,461.6L688.8,468.1L685.2,473.8L685.3,475.5L687.1,480.6L687.1,482.8L688.7,490.1L685.1,491.3L683.9,494.4L685.3,499.7L687.5,502.0L687.2,510.1L690.8,512.0L690.5,515.8L693.7,518.8L695.7,522.4L700.3,523.1L707.3,522.6L724.5,526.6L730.6,537.5L738.5,541.3L741.4,544.6L744.0,549.6L739.7,552.5L739.2,551.8L728.9,551.1L728.8,552.3L724.2,554.6L719.6,558.8L715.2,558.6L702.5,563.5L702.4,564.9L705.7,566.7L706.0,567.8L703.1,569.6L701.2,572.7L704.4,573.8L705.5,578.7L710.6,579.9L707.4,584.1L704.2,586.2L696.8,586.3L693.4,589.6L693.8,592.4L692.3,595.4L689.4,596.1L687.0,595.3L685.3,595.5L682.0,599.7L679.8,599.3L678.5,597.9L675.4,597.6L669.1,604.4L669.5,606.2L670.9,607.0L670.4,612.1L668.3,612.8L666.5,614.7L667.4,615.8L670.3,615.6L671.3,615.9L673.6,618.7L676.0,620.0L676.9,624.7L683.0,627.8L689.0,628.7L689.9,629.9L695.2,630.2L698.1,632.7L698.2,635.1L701.6,637.5L704.8,637.5L706.0,639.0L705.1,641.2L708.5,645.8L710.1,649.6L711.3,651.0L714.7,650.3L713.4,645.8L713.6,643.4L716.1,639.8L716.2,637.6L719.4,634.7L722.5,629.7L729.9,625.5L730.0,622.9L734.0,619.5L738.4,618.4L746.6,617.9L755.1,617.7L757.3,614.7L762.1,612.9L764.1,613.2L768.1,612.2L778.7,617.2L782.4,617.4L787.0,613.3L787.5,610.7L787.8,605.1L790.5,604.5L793.4,605.3L798.4,604.2L804.2,604.5L806.8,602.8L808.2,600.5L811.3,592.7L817.1,594.5L819.4,593.5L820.9,589.8L824.8,587.5L825.7,586.2L827.1,586.6L830.2,590.0L832.7,590.9L834.7,590.5L839.9,585.3L839.2,584.2L842.3,581.5L842.6,579.7L841.1,577.5L845.5,575.4L850.4,574.6L860.2,574.6L866.3,573.1L868.7,572.9L873.8,573.3L875.7,573.0L880.0,571.2L880.7,570.4L881.4,565.1L884.8,565.2L890.6,561.8L896.8,562.1L913.3,555.8L917.5,551.4L921.3,550.8L930.0,551.3L933.0,549.1L933.4,545.7L930.3,544.3L926.2,543.4L923.2,541.2L922.0,538.2L917.0,537.1L918.1,535.7L919.3,531.7L921.7,529.6L925.2,529.2L929.3,530.2L932.8,532.9L937.0,531.8L941.0,532.0L943.0,529.6L944.5,532.4L950.0,534.9L953.8,538.1L954.2,541.5L951.9,546.9L953.2,547.7L959.1,545.7L960.4,545.7L961.1,547.3L959.1,552.6L959.5,556.1L969.4,560.2L977.6,560.6L980.9,554.3L980.7,551.7L982.1,549.7L985.7,546.2L990.3,535.7L994.3,525.9L994.4,520.2L996.3,517.7L996.2,512.5L996.8,508.6L997.9,504.9L999.5,502.0L998.8,497.1L997.0,494.4L994.3,492.1L991.7,488.3L989.1,476.2L989.9,474.5L988.6,472.6L982.1,468.9L976.9,467.8L971.9,465.3L964.6,463.4L962.0,461.4L961.5,460.0L956.8,459.8L949.1,457.0L944.5,456.7L939.8,457.8L926.0,463.5L921.8,464.2L918.0,462.3L914.0,461.1L908.7,460.6L902.1,461.9L896.6,464.8L892.7,469.2L892.1,472.4L890.7,475.5L885.2,482.5L883.5,485.0L879.9,484.7L861.4,486.6L844.7,485.6L839.6,484.3L834.5,484.0L832.5,481.8L827.1,478.4L821.8,476.5L816.8,478.3L804.9,481.4L801.2,479.0L797.9,481.4L796.3,478.1L798.5,474.9L798.2,470.2L799.2,466.1L797.3,461.7L794.9,460.6L790.7,453.8L788.7,454.1L783.0,450.1L781.7,449.7L779.8,449.3Z " data-id="DE.SN" data-name="Sachsen" id="DE.SN"/>
utf-8utf-8<path d="M573.2,243.4L573.3,243.5L575.2,246.0L579.4,249.6L585.6,250.3L588.9,248.4L591.2,248.0L593.7,248.6L597.1,251.2L601.6,252.0L607.0,253.6L611.7,252.6L612.8,253.2L611.6,256.4L616.7,257.1L618.0,257.8L619.7,261.7L621.6,261.9L627.0,260.2L630.5,264.0L632.1,264.9L636.8,265.6L635.1,269.3L642.3,272.9L646.9,273.9L649.9,275.2L664.4,274.6L665.8,277.7L668.5,277.8L672.1,277.0L677.0,279.4L679.4,284.6L679.2,287.0L675.9,289.3L675.7,296.1L678.1,300.2L680.2,301.9L679.2,307.0L677.1,309.2L673.4,310.1L673.0,317.0L670.4,321.0L674.6,321.6L673.0,324.1L675.6,326.1L677.9,325.6L679.2,323.0L682.6,323.5L684.4,325.6L689.1,325.6L688.6,330.2L686.7,334.0L684.8,335.6L686.0,337.5L683.6,346.1L684.3,349.1L683.1,350.9L681.9,356.2L682.3,358.3L684.7,359.6L686.5,362.7L684.2,364.7L682.1,370.0L683.2,372.2L687.7,376.4L688.5,378.2L693.8,381.6L701.1,388.8L702.3,391.7L708.0,395.1L716.4,396.6L723.7,400.6L728.7,401.5L732.8,399.1L734.2,397.4L739.2,399.4L749.2,404.1L754.6,404.7L759.4,409.1L764.4,409.2L767.8,410.0L771.3,413.0L777.6,416.4L779.7,417.0L786.8,416.3L790.0,418.1L791.2,416.2L796.1,415.9L798.2,416.6L797.4,418.3L793.9,421.6L790.3,427.7L790.7,431.3L793.5,438.5L790.8,441.8L783.7,446.5L781.7,449.7L783.0,450.1L788.7,454.1L790.7,453.8L794.9,460.6L797.3,461.7L799.2,466.1L798.2,470.2L798.5,474.9L796.3,478.1L797.9,481.4L801.2,479.0L804.9,481.4L816.8,478.3L821.8,476.5L827.1,478.4L832.5,481.8L834.5,484.0L839.6,484.3L844.7,485.6L861.4,486.6L879.9,484.7L883.5,485.0L885.2,482.5L890.7,475.5L892.1,472.4L892.7,469.2L896.6,464.8L902.1,461.9L908.7,460.6L914.0,461.1L918.0,462.3L921.8,464.2L926.0,463.5L939.8,457.8L944.5,456.7L949.1,457.0L956.8,459.8L961.5,460.0L961.2,459.0L961.9,456.3L963.7,453.7L964.8,450.9L964.3,447.3L962.9,443.8L961.3,441.4L955.7,437.9L953.1,435.6L951.6,432.1L950.9,428.5L947.2,425.8L945.2,423.7L944.6,420.8L945.9,418.4L951.7,413.4L954.9,408.8L955.6,406.1L955.2,397.7L957.8,393.1L958.4,389.3L961.0,386.1L953.6,382.0L952.3,380.0L952.6,376.5L953.8,372.0L952.1,370.1L953.9,367.1L953.7,364.3L951.8,361.8L945.6,360.3L941.8,358.8L939.2,356.7L939.6,354.2L937.0,350.2L933.9,344.2L932.8,338.7L938.0,334.9L940.4,331.7L941.9,328.4L941.2,327.0L939.1,325.5L939.7,322.4L942.2,317.4L931.3,309.3L924.6,307.3L921.3,304.1L917.9,302.5L913.7,296.8L911.9,295.3L899.9,288.8L896.9,287.6L893.1,284.4L886.1,283.0L884.2,281.9L882.8,279.9L885.4,278.0L886.4,276.4L883.7,265.0L888.6,262.0L894.9,259.4L900.9,255.5L904.0,252.8L907.9,241.5L906.1,235.3L906.9,231.8L909.6,229.3L912.1,225.0L907.6,221.4L906.6,216.4L905.6,213.8L898.7,217.2L895.9,220.2L893.2,221.3L892.7,223.2L891.3,224.0L884.1,223.5L875.5,222.2L875.3,219.6L883.9,214.9L887.4,210.2L888.8,207.3L889.0,204.7L888.6,201.1L886.0,200.7L881.5,200.9L877.6,199.4L874.9,199.8L873.0,202.2L867.9,201.0L861.5,200.7L854.0,201.1L852.2,199.2L851.5,197.3L848.0,193.0L847.6,190.1L842.4,188.6L839.5,185.4L837.6,185.2L837.7,187.7L840.7,191.5L841.3,193.2L838.3,194.3L834.6,194.1L830.8,194.5L824.6,198.8L822.9,201.5L820.6,203.3L816.8,203.4L812.8,206.8L812.4,209.4L809.5,215.8L800.6,221.9L790.0,219.9L787.2,220.1L783.8,222.4L782.2,227.6L779.2,227.6L773.7,224.0L769.4,226.9L768.8,228.7L762.9,232.4L758.3,236.6L755.6,236.9L752.9,236.1L753.3,233.0L750.7,233.4L742.0,233.8L740.4,232.8L737.4,232.3L731.9,233.1L730.6,232.6L729.6,228.8L721.4,227.2L716.2,224.4L704.7,222.2L697.6,223.1L685.6,216.2L680.9,214.2L673.2,212.6L670.5,209.4L667.9,209.3L664.3,210.9L662.5,209.5L655.6,210.8L654.3,213.0L651.5,214.5L650.7,218.5L645.2,221.5L643.1,220.8L637.3,222.8L635.0,225.1L630.1,225.3L632.4,226.6L632.9,228.5L624.9,228.9L622.8,230.0L621.3,227.7L612.8,225.3L607.0,227.0L605.0,228.1L600.5,231.4L602.6,241.7L600.5,243.0L597.7,243.2L591.6,240.6L588.1,240.6L586.5,241.3L586.2,244.7L581.6,243.6L573.3,243.4L573.2,243.4Z M818.0,308.3L818.6,312.9L826.3,319.3L832.7,322.3L835.0,322.6L835.2,323.7L833.3,329.8L837.4,329.4L841.1,332.0L845.5,333.5L845.8,339.0L843.9,340.3L843.0,345.6L839.8,346.8L838.0,349.6L835.2,344.2L829.9,343.2L827.8,342.3L822.7,341.1L818.4,341.7L815.0,339.5L813.3,340.0L812.8,344.3L809.4,344.3L802.9,340.9L800.4,341.6L797.4,340.1L794.5,341.0L789.6,339.4L785.2,341.0L783.6,342.1L776.7,340.1L778.3,336.5L778.0,332.0L782.4,327.9L780.5,324.7L780.9,314.6L782.2,314.5L788.0,316.0L787.1,313.0L788.0,310.7L794.1,307.6L796.2,307.2L796.7,309.4L799.4,310.8L806.0,309.2L808.4,307.6L811.9,307.5L818.0,308.3Z " data-id="DE.BR" data-name="Brandenburg" id="DE.BR"/>
utf-8utf-8<path d="M588.3,119.9L585.1,118.8L580.7,119.9L577.0,122.4L575.7,125.5L580.9,127.4L582.4,126.4L583.2,123.4L584.7,128.3L585.7,127.0L588.3,119.9Z M592.4,115.3L593.7,113.1L598.4,109.7L598.6,108.8L591.6,111.5L591.8,115.3L592.4,115.3Z M853.3,113.3L849.2,112.2L841.8,109.1L838.8,106.9L833.8,99.4L831.7,98.8L827.4,102.2L828.9,103.7L833.5,107.1L834.7,109.2L834.4,112.8L831.9,117.3L831.2,119.9L833.4,120.5L836.3,117.9L841.3,116.4L842.0,118.1L840.3,120.9L840.2,122.7L844.5,121.3L847.2,118.1L846.0,115.3L849.1,114.0L851.2,114.3L855.9,118.6L857.0,120.8L859.4,120.1L861.0,122.3L861.6,126.0L860.5,129.3L861.5,131.1L857.8,130.2L859.1,128.3L854.8,128.3L853.4,128.8L852.0,131.1L851.9,128.9L852.8,124.5L850.9,123.9L845.5,123.6L845.5,127.1L850.0,132.8L849.5,136.7L845.1,139.1L841.7,139.7L838.2,141.4L840.4,143.4L844.2,144.3L850.9,144.2L857.0,142.9L860.0,141.6L862.3,139.4L866.5,140.7L878.6,139.6L877.5,137.5L875.5,135.7L877.3,135.1L878.7,131.4L876.8,130.4L856.7,114.9L853.3,113.3Z M525.8,128.3L527.7,133.8L532.0,134.9L527.6,136.3L526.3,134.5L525.0,134.2L521.5,135.3L516.5,139.0L511.4,141.4L510.3,144.4L512.9,151.2L511.9,156.8L517.1,158.3L523.0,163.5L529.2,164.3L532.3,166.5L534.0,170.3L533.9,172.8L532.5,173.6L532.8,176.0L534.7,182.1L532.1,184.5L529.2,181.3L524.3,181.9L521.3,181.6L521.8,184.2L520.8,188.5L514.6,192.8L508.7,194.2L507.8,196.6L504.2,196.9L501.6,198.6L501.0,202.9L499.7,207.4L498.6,208.7L506.5,208.4L510.3,209.1L512.8,211.4L514.0,217.3L519.2,219.4L521.6,221.8L525.2,223.9L535.2,228.2L547.6,236.7L553.1,239.8L558.7,235.9L563.2,238.7L564.4,240.2L567.6,238.6L571.8,241.6L573.2,243.4L573.3,243.4L581.6,243.6L586.2,244.7L586.5,241.3L588.1,240.6L591.6,240.6L597.7,243.2L600.5,243.0L602.6,241.7L600.5,231.4L605.0,228.1L607.0,227.0L612.8,225.3L621.3,227.7L622.8,230.0L624.9,228.9L632.9,228.5L632.4,226.6L630.1,225.3L635.0,225.1L637.3,222.8L643.1,220.8L645.2,221.5L650.7,218.5L651.5,214.5L654.3,213.0L655.6,210.8L662.5,209.5L664.3,210.9L667.9,209.3L670.5,209.4L673.2,212.6L680.9,214.2L685.6,216.2L697.6,223.1L704.7,222.2L716.2,224.4L721.4,227.2L729.6,228.8L730.6,232.6L731.9,233.1L737.4,232.3L740.4,232.8L742.0,233.8L750.7,233.4L753.3,233.0L752.9,236.1L755.6,236.9L758.3,236.6L762.9,232.4L768.8,228.7L769.4,226.9L773.7,224.0L779.2,227.6L782.2,227.6L783.8,222.4L787.2,220.1L790.0,219.9L800.6,221.9L809.5,215.8L812.4,209.4L812.8,206.8L816.8,203.4L820.6,203.3L822.9,201.5L824.6,198.8L830.8,194.5L834.6,194.1L838.3,194.3L841.3,193.2L840.7,191.5L837.7,187.7L837.6,185.2L839.5,185.4L842.4,188.6L847.6,190.1L848.0,193.0L851.5,197.3L852.2,199.2L854.0,201.1L861.5,200.7L867.9,201.0L873.0,202.2L874.9,199.8L877.6,199.4L881.5,200.9L886.0,200.7L888.6,201.1L889.0,204.7L888.8,207.3L887.4,210.2L883.9,214.9L875.3,219.6L875.5,222.2L884.1,223.5L891.3,224.0L892.7,223.2L893.2,221.3L895.9,220.2L898.7,217.2L905.6,213.8L902.7,205.9L900.9,198.8L898.4,195.9L897.0,193.1L894.2,190.0L893.1,187.2L892.3,177.8L889.6,172.5L887.7,169.9L888.0,167.7L886.7,164.0L881.9,162.8L886.7,160.1L887.4,159.1L886.9,156.8L885.3,155.7L881.7,157.8L878.7,158.5L870.1,158.0L865.2,156.2L862.6,156.3L860.3,154.4L856.7,153.8L843.7,146.1L842.9,144.6L837.9,143.0L836.8,141.4L837.7,139.6L844.9,134.9L846.6,132.1L846.3,130.8L842.0,129.2L840.4,129.3L838.6,124.9L832.8,121.8L828.1,118.1L830.9,116.7L833.9,108.8L825.0,103.4L821.6,102.2L822.8,99.4L819.8,100.2L814.6,102.9L811.6,104.0L798.6,106.0L798.7,106.9L801.9,109.7L801.9,110.6L799.4,110.6L797.4,109.6L791.7,102.2L789.3,102.8L788.0,102.2L789.9,99.4L787.8,98.8L783.9,100.3L781.3,100.3L784.0,98.5L781.0,96.6L777.0,91.1L774.2,90.0L770.4,89.4L764.7,87.0L761.2,87.2L764.0,86.4L763.9,85.4L759.2,85.4L758.0,84.9L757.0,80.8L753.7,77.2L753.1,75.1L754.8,72.4L748.7,69.7L746.3,65.0L747.6,64.1L744.9,63.5L740.7,64.6L736.7,66.7L733.3,70.0L732.4,72.2L729.4,74.4L725.5,74.3L723.5,72.6L721.8,69.7L720.9,70.7L717.5,70.5L716.4,71.6L712.9,68.7L711.1,72.4L711.2,70.7L714.2,67.8L714.2,66.8L709.2,67.8L710.1,69.7L704.5,72.2L701.4,72.8L695.8,72.4L698.1,74.3L691.4,76.7L687.0,81.7L684.5,83.6L683.0,86.4L685.3,87.8L686.1,89.3L683.5,88.8L678.6,86.4L679.7,85.3L677.5,80.8L679.2,80.5L680.0,76.1L680.7,75.2L683.7,76.1L682.9,74.0L686.4,69.7L690.3,70.0L692.5,70.8L694.3,72.4L695.2,70.8L699.3,69.7L701.4,70.5L699.8,67.8L701.9,66.8L702.6,67.8L706.9,65.9L709.1,65.9L711.5,64.1L714.3,64.3L719.0,65.6L730.4,66.3L733.1,65.9L735.6,64.1L734.1,62.6L731.0,62.0L728.6,63.0L724.5,61.6L700.3,61.6L695.6,60.2L693.1,57.5L690.6,58.6L689.2,62.2L684.6,69.2L678.8,76.1L675.4,81.7L670.1,85.6L659.5,89.9L657.2,93.1L655.2,94.6L651.1,99.4L655.5,98.5L654.7,100.3L651.8,101.6L650.8,103.2L652.2,108.0L650.7,107.5L650.3,104.3L650.4,100.5L649.5,96.6L645.7,98.5L620.6,102.6L611.6,101.5L607.5,101.9L604.2,103.7L600.8,109.5L601.6,110.0L597.9,114.1L596.2,117.7L593.2,118.9L590.5,118.1L591.3,119.9L587.9,122.7L588.7,125.5L586.2,127.3L586.8,129.5L585.2,134.4L585.2,135.8L578.8,131.5L574.2,131.1L571.5,128.3L567.3,131.1L563.3,131.1L561.9,130.5L561.8,126.0L561.2,125.3L557.3,124.5L553.9,120.6L541.0,121.9L535.5,124.2L531.8,125.0L527.0,128.4L525.8,128.3Z M758.8,41.6L758.1,40.8L753.7,41.1L750.0,54.4L750.1,59.3L750.8,59.3L751.1,53.8L753.8,51.0L754.6,48.2L754.9,43.3L757.3,41.7L758.8,41.6Z M783.0,34.6L788.5,31.5L788.4,30.6L785.5,29.5L782.5,29.5L768.3,32.7L765.5,35.2L765.5,36.7L772.4,35.2L772.0,38.9L770.6,39.9L768.9,44.7L769.4,46.3L771.6,46.8L775.1,44.2L777.5,43.1L781.1,39.8L787.4,44.9L789.5,47.3L797.7,45.4L795.7,47.3L795.7,48.2L798.3,51.8L798.4,52.8L796.4,55.6L797.3,56.6L791.8,56.7L789.1,56.0L786.8,53.8L787.3,51.7L782.5,46.3L781.2,48.2L784.2,49.2L783.6,50.7L780.0,51.8L781.3,49.2L779.8,47.5L781.5,43.5L779.7,44.0L774.6,48.2L775.7,50.3L775.4,51.9L768.4,47.5L760.3,48.3L758.0,49.2L760.1,50.2L760.3,51.4L762.8,53.9L767.8,52.8L768.1,56.0L772.5,57.5L771.2,59.3L765.9,60.9L760.8,65.0L765.4,64.1L768.1,65.8L769.6,65.9L769.9,69.5L772.9,70.5L769.9,72.2L766.5,72.4L763.1,70.8L760.5,71.7L758.6,74.1L757.4,77.0L764.3,80.8L764.3,81.7L760.7,82.5L761.5,83.5L765.8,82.3L767.3,82.6L766.9,84.3L768.1,85.5L774.5,88.1L781.4,84.5L779.2,88.9L783.2,90.7L789.7,92.0L791.3,91.4L790.4,86.8L784.6,87.2L784.0,89.2L784.1,85.6L788.9,84.2L791.0,80.7L796.3,77.0L798.2,76.1L808.7,75.2L811.8,76.9L815.6,75.0L818.4,75.2L815.4,78.2L820.9,77.9L818.6,80.4L814.8,81.7L817.9,83.0L821.2,81.7L823.0,84.3L823.0,79.9L823.9,78.2L826.6,76.1L823.9,75.4L818.7,69.7L816.4,68.5L811.3,67.6L809.0,66.8L805.3,61.2L804.7,58.9L805.5,56.9L807.7,55.2L812.2,52.8L814.7,49.6L813.7,46.1L810.3,43.4L805.5,42.6L791.9,44.6L787.3,43.5L782.9,38.9L782.3,36.5L783.0,34.6Z " data-id="DE.MV" data-name="Mecklenburg-Vorpommern" id="DE.MV"/>
utf-8</g>
</svg>
