<?xml version="1.0" ?>
<!DOCTYPE svg
  PUBLIC '-//W3C//DTD SVG 1.1//EN'
  'http://www.w3.org/Graphics/SVG/1.1/DTD/svg11.dtd'>
<svg enable_background="new 0 0 1000 1231" height="1231px" pretty_print="True" style="stroke-linejoin: round; stroke:#000; fill: none;" version="1.1" viewBox="0 0 1000 1231" width="1000px" xmlns="http://www.w3.org/2000/svg" xmlns:xlink="http://www.w3.org/1999/xlink">
utf-8<defs>
utf-8utf-8<style type="text/css">
<![CDATA[path { fill-rule: evenodd; }]]>utf-8utf-8</style>
utf-8</defs>
utf-8<metadata>
utf-8utf-8<views>
utf-8utf-8utf-8<view h="1231.72235732" padding="0" w="1000">
utf-8utf-8utf-8utf-8<proj flip="auto" id="robinson" lon0="42.8739825212"/>
utf-8utf-8utf-8utf-8<bbox h="29.82" w="24.23" x="614.71" y="-213.09"/>
utf-8utf-8utf-8</view>
utf-8utf-8</views>
utf-8</metadata>
utf-8<g class="" id="provinces">
utf-8utf-8<path d="M588.7,997.6L540.8,1029.2L533.7,1048.1L533.4,1117.8L533.2,1119.6L537.8,1119.2L581.2,1130.7L595.8,1131.3L607.6,1136.2L624.3,1173.9L634.9,1183.6L648.6,1187.0L673.8,1189.9L689.0,1194.7L697.0,1196.2L705.9,1192.6L711.7,1184.2L717.5,1178.3L727.1,1182.0L878.0,899.2L816.5,858.8L797.1,850.2L709.1,870.2L682.2,929.9L663.9,946.8L588.7,997.6Z " data-id="DJ.AS" data-name="Ali Sabieh" id="DJ.AS"/>
utf-8utf-8<path d="M865.1,806.6L864.5,805.7L854.3,765.3L850.4,758.1L843.9,760.3L839.7,769.5L833.7,779.0L821.8,782.2L808.4,773.5L796.3,773.0L783.4,776.0L699.4,778.9L733.9,818.3L768.9,822.4L791.3,822.3L862.8,807.2L865.1,806.6Z " data-id="DJ.DB" data-name="Djibouti" id="DJ.DB"/>
utf-8utf-8<path d="M533.2,1119.6L533.4,1117.8L533.7,1048.1L540.8,1029.2L588.7,997.6L461.9,972.7L409.1,890.3L391.7,835.5L375.1,757.7L371.7,728.7L263.7,611.7L238.0,600.5L138.7,574.2L128.7,572.0L106.8,608.9L100.4,616.5L92.2,623.8L83.9,628.3L77.2,630.7L72.2,634.7L69.1,644.6L63.4,653.5L40.0,665.2L31.3,672.0L22.5,694.0L16.1,746.4L0.4,809.1L2.2,846.9L20.7,926.4L28.6,985.2L36.7,989.3L78.7,1023.7L89.4,1038.3L85.4,1062.4L66.8,1088.6L33.6,1118.8L34.0,1134.6L31.2,1164.1L20.9,1183.8L28.9,1195.0L44.3,1201.5L116.6,1217.8L118.8,1221.3L120.5,1225.4L124.3,1228.9L129.6,1229.7L132.7,1227.1L135.3,1223.7L139.4,1221.8L173.8,1220.2L190.4,1215.5L208.5,1194.0L224.6,1187.9L257.9,1183.8L289.4,1191.9L300.9,1192.0L309.1,1189.7L330.4,1178.8L335.5,1178.2L346.4,1178.6L351.6,1178.0L371.2,1170.5L385.0,1173.0L394.6,1176.6L403.8,1177.1L416.6,1170.2L455.9,1140.3L510.0,1121.6L533.2,1119.6Z " data-id="DJ.DK" data-name="Dikhil" id="DJ.DK"/>
utf-8utf-8<path d="M553.2,226.7L555.1,237.9L553.9,251.7L546.1,259.3L544.0,262.8L542.3,267.0L541.5,272.2L541.9,277.5L543.5,282.8L559.1,315.4L562.5,320.4L567.2,326.1L598.5,355.1L604.2,359.0L610.6,361.9L626.3,366.7L757.7,522.4L765.2,534.8L783.9,576.2L789.4,584.7L804.4,601.1L804.4,601.0L808.0,599.4L811.1,597.1L855.3,534.5L874.4,518.8L885.8,515.3L911.8,514.6L923.8,512.1L940.1,502.7L956.2,499.5L961.0,497.9L976.7,486.3L989.2,469.2L997.2,448.6L999.6,426.5L993.1,374.3L993.2,334.0L991.0,322.4L966.9,287.0L962.8,277.4L960.3,263.3L958.5,237.0L956.2,224.7L951.4,216.3L945.6,208.7L940.4,199.2L936.9,187.6L935.3,175.9L934.3,151.6L924.7,159.2L915.1,156.2L906.1,146.2L890.7,120.7L828.2,45.1L821.3,33.3L816.0,19.6L809.8,7.4L799.6,0.0L670.4,63.3L664.2,64.0L656.4,57.3L651.0,56.5L641.3,66.5L628.7,103.9L603.4,131.9L606.3,152.5L612.9,174.2L610.1,192.8L602.7,197.3L584.7,201.1L579.8,207.4L572.1,220.7L553.2,226.7Z " data-id="DJ.OB" data-name="Obock" id="DJ.OB"/>
utf-8utf-8<path d="M550.4,227.6L542.9,240.6L444.0,146.4L415.6,132.5L398.9,127.6L388.3,129.7L358.6,167.4L324.3,222.4L307.6,267.6L231.5,391.2L223.3,416.4L218.8,424.9L204.8,432.8L198.4,441.1L175.8,492.2L128.7,572.0L138.7,574.2L238.0,600.5L263.7,611.7L371.7,728.7L394.2,758.2L403.8,766.5L475.9,801.9L472.6,786.8L464.8,788.9L464.7,784.1L471.6,778.4L484.8,777.4L488.2,779.9L494.2,788.9L497.7,791.6L502.8,792.2L518.8,791.6L533.4,794.5L539.0,794.2L557.6,788.0L563.2,784.4L567.1,778.5L606.3,691.6L619.7,674.8L635.2,663.9L690.9,641.3L702.4,639.3L719.1,646.0L728.0,641.4L736.8,634.2L745.3,630.6L778.5,628.9L786.8,625.4L790.0,621.3L791.9,611.7L794.4,607.0L798.6,603.9L804.4,601.1L789.4,584.7L783.9,576.2L765.2,534.8L757.7,522.4L626.3,366.7L610.6,361.9L604.2,359.0L598.5,355.1L567.2,326.1L562.5,320.4L559.1,315.4L543.5,282.8L541.9,277.5L541.5,272.2L542.3,267.0L544.0,262.8L546.1,259.3L553.9,251.7L555.1,237.9L553.2,226.7L550.4,227.6Z " data-id="DJ.TA" data-name="Tadjourah" id="DJ.TA"/>
utf-8</g>
</svg>
