<?xml version="1.0" ?>
<!DOCTYPE svg
  PUBLIC '-//W3C//DTD SVG 1.1//EN'
  'http://www.w3.org/Graphics/SVG/1.1/DTD/svg11.dtd'>
<svg enable_background="new 0 0 1000 2170" height="2170px" pretty_print="True" style="stroke-linejoin: round; stroke:#000; fill: none;" version="1.1" viewBox="0 0 1000 2170" width="1000px" xmlns="http://www.w3.org/2000/svg" xmlns:xlink="http://www.w3.org/1999/xlink">
utf-8<defs>
utf-8utf-8<style type="text/css">
<![CDATA[path { fill-rule: evenodd; }]]>utf-8utf-8</style>
utf-8</defs>
utf-8<metadata>
utf-8utf-8<views>
utf-8utf-8utf-8<view h="2170.24470225" padding="0" w="1000">
utf-8utf-8utf-8utf-8<proj flip="auto" id="robinson" lon0="-61.3538958288"/>
utf-8utf-8utf-8utf-8<bbox h="7.25" w="3.34" x="-901.03" y="-262.16"/>
utf-8utf-8utf-8</view>
utf-8utf-8</views>
utf-8</metadata>
utf-8<g class="" id="provinces">
utf-8utf-8<path d="M897.0,514.2L876.2,466.2L838.9,384.7L817.0,308.1L811.7,274.0L601.4,178.5L546.1,190.3L477.9,228.3L424.3,186.8L362.4,71.7L312.3,27.0L264.3,6.1L212.0,3.9L212.0,3.9L236.4,194.4L246.4,216.7L273.5,249.4L288.8,256.4L291.5,263.0L294.6,266.2L302.2,270.0L308.6,270.6L313.6,269.6L317.6,271.6L320.4,277.0L322.4,277.9L322.4,332.2L308.6,477.6L310.2,507.2L336.9,533.4L340.6,558.1L343.7,656.7L349.4,699.6L400.9,761.6L415.8,772.9L436.1,783.2L462.1,780.2L480.3,774.0L499.1,763.9L503.9,762.9L509.2,764.2L553.2,786.5L568.7,792.6L582.4,795.8L595.5,797.4L611.9,805.4L636.5,821.1L698.8,880.9L717.7,948.4L807.5,861.0L828.7,845.5L833.6,848.1L838.1,847.0L844.2,847.8L847.4,845.9L851.4,842.2L859.6,833.2L871.5,822.7L874.7,821.5L881.9,821.4L889.0,818.6L893.8,814.5L911.1,796.5L915.7,793.3L917.6,783.6L922.2,681.7L921.1,674.6L929.6,656.0L956.4,622.0L897.0,514.2Z " data-id="DM.AN" data-name="Saint Andrew" id="DM.AN"/>
utf-8utf-8<path d="M952.8,1511.5L958.4,1351.4L999.8,1168.3L978.7,1158.7L961.8,1141.9L942.4,1134.0L983.4,993.3L990.1,809.3L962.0,632.6L956.4,622.0L929.6,656.0L921.1,674.6L922.2,681.7L917.6,783.6L915.7,793.3L911.1,796.5L893.8,814.5L889.0,818.6L881.9,821.4L874.7,821.5L871.5,822.7L859.6,833.2L851.4,842.2L847.4,845.9L844.2,847.8L838.1,847.0L833.6,848.1L828.7,845.5L807.5,861.0L717.7,948.4L627.1,1148.8L651.8,1235.0L635.2,1447.0L702.9,1498.9L716.4,1513.7L714.0,1522.0L714.5,1529.2L717.2,1539.3L718.6,1547.6L718.8,1557.2L718.2,1562.7L709.2,1591.9L747.0,1557.1L764.4,1547.5L952.8,1511.6L952.8,1511.5Z " data-id="DM.DA" data-name="Saint David" id="DM.DA"/>
utf-8utf-8<path d="M718.2,1562.7L718.8,1557.2L718.6,1547.6L717.2,1539.3L714.5,1529.2L714.0,1522.0L716.4,1513.7L702.9,1498.9L635.2,1447.0L446.5,1550.5L443.1,1558.0L430.7,1593.4L426.0,1601.2L419.1,1607.5L412.5,1609.4L404.6,1608.4L396.0,1610.9L393.4,1611.2L384.3,1610.8L333.5,1607.4L333.1,1633.8L338.6,1694.1L388.7,1765.6L408.6,1822.5L404.8,1844.0L403.0,1874.5L403.1,1874.5L473.2,1907.3L542.1,1804.3L588.7,1765.3L631.0,1741.8L649.6,1728.1L663.2,1714.5L724.5,1615.1L725.8,1607.5L724.0,1604.7L709.2,1591.9L718.2,1562.7Z " data-id="DM.GO" data-name="Saint George" id="DM.GO"/>
utf-8utf-8<path d="M19.4,523.3L35.3,504.2L40.8,500.3L50.4,502.9L53.1,502.9L57.3,502.1L60.8,502.6L83.2,509.2L85.2,509.1L103.5,513.1L106.9,513.4L111.4,512.2L343.7,656.7L340.6,558.1L336.9,533.4L310.2,507.2L308.6,477.6L322.4,332.2L322.4,277.9L320.4,277.0L317.6,271.6L313.6,269.6L308.6,270.6L302.2,270.0L294.6,266.2L291.5,263.0L288.8,256.4L273.5,249.4L246.4,216.7L236.4,194.4L212.0,3.9L125.6,0.0L58.0,215.0L17.2,274.0L50.7,277.5L102.2,299.0L132.0,305.5L105.7,355.7L27.9,412.9L4.0,445.6L0.2,492.5L16.0,519.5L19.4,523.3Z " data-id="DM.JN" data-name="Saint John" id="DM.JN"/>
utf-8utf-8<path d="M698.8,880.9L636.5,821.1L611.9,805.4L595.5,797.4L582.4,795.8L568.7,792.6L553.2,786.5L509.2,764.2L503.9,762.9L499.1,763.9L480.3,774.0L462.1,780.2L436.1,783.2L415.8,772.9L400.9,761.6L349.4,699.6L268.8,711.5L237.7,727.5L230.8,736.3L225.9,744.6L196.8,774.5L120.9,840.7L125.0,848.3L140.8,899.3L145.5,947.1L158.4,988.8L250.8,1099.6L261.2,1143.8L264.2,1223.1L314.4,1205.7L368.5,1204.1L441.9,1224.1L460.8,1227.1L474.5,1225.1L627.1,1148.8L717.7,948.4L698.8,880.9Z " data-id="DM.JH" data-name="Saint Joseph" id="DM.JH"/>
utf-8utf-8<path d="M403.1,1874.5L403.0,1874.5L396.0,1990.6L394.7,1997.2L394.8,1997.2L395.3,1997.1L473.6,1957.5L473.2,1907.3L403.1,1874.5Z " data-id="DM.LU" data-name="Saint Luke" id="DM.LU"/>
utf-8utf-8<path d="M502.2,2118.6L473.6,1957.5L395.3,1997.1L394.8,1997.2L394.7,1997.2L372.2,2112.9L378.1,2153.1L426.2,2168.2L480.7,2151.5L502.2,2118.6L502.2,2118.6Z " data-id="DM.MA" data-name="Saint Mark" id="DM.MA"/>
utf-8utf-8<path d="M504.4,2115.4L521.5,2078.6L584.9,2049.0L612.3,1983.6L637.8,1959.5L665.9,1953.8L702.5,1963.6L747.6,1957.1L764.6,1958.5L786.5,1952.4L820.2,1925.2L923.5,1749.0L951.2,1551.5L952.8,1511.6L764.4,1547.5L747.0,1557.1L709.2,1591.9L724.0,1604.7L725.8,1607.5L724.5,1615.1L663.2,1714.5L649.6,1728.1L631.0,1741.8L588.7,1765.3L542.1,1804.3L473.2,1907.3L473.6,1957.5L502.2,2118.6L504.4,2115.4Z " data-id="DM.PK" data-name="Saint Patrick" id="DM.PK"/>
utf-8utf-8<path d="M651.8,1235.0L627.1,1148.8L474.5,1225.1L460.8,1227.1L441.9,1224.1L368.5,1204.1L314.4,1205.7L264.2,1223.1L264.7,1235.6L270.6,1271.2L321.5,1418.8L334.7,1509.5L333.5,1607.4L384.3,1610.8L393.4,1611.2L396.0,1610.9L404.6,1608.4L412.5,1609.4L419.1,1607.5L426.0,1601.2L430.7,1593.4L443.1,1558.0L446.5,1550.5L635.2,1447.0L651.8,1235.0Z " data-id="DM.PL" data-name="Saint Paul" id="DM.PL"/>
utf-8utf-8<path d="M111.4,512.2L106.9,513.4L103.5,513.1L85.2,509.1L83.2,509.2L60.8,502.6L57.3,502.1L53.1,502.9L50.4,502.9L40.8,500.3L35.3,504.2L19.4,523.3L38.2,544.0L53.5,582.6L48.2,704.5L53.2,765.2L79.7,791.5L102.8,807.8L120.9,840.7L196.8,774.5L225.9,744.6L230.8,736.3L237.7,727.5L268.8,711.5L349.4,699.6L343.7,656.7L111.4,512.2Z " data-id="DM.PR" data-name="Saint Peter" id="DM.PR"/>
utf-8</g>
</svg>
