<?xml version="1.0" ?>
<!DOCTYPE svg
  PUBLIC '-//W3C//DTD SVG 1.1//EN'
  'http://www.w3.org/Graphics/SVG/1.1/DTD/svg11.dtd'>
<svg enable_background="new 0 0 1000 730" height="730px" pretty_print="True" style="stroke-linejoin: round; stroke:#000; fill: none;" version="1.1" viewBox="0 0 1000 730" width="1000px" xmlns="http://www.w3.org/2000/svg" xmlns:xlink="http://www.w3.org/1999/xlink">
utf-8<defs>
utf-8utf-8<style type="text/css">
<![CDATA[path { fill-rule: evenodd; }]]>utf-8utf-8</style>
utf-8</defs>
utf-8<metadata>
utf-8utf-8<views>
utf-8utf-8utf-8<view h="730.023954647" padding="0" w="1000">
utf-8utf-8utf-8utf-8<proj flip="auto" id="robinson" lon0="-70.9648057223"/>
utf-8utf-8utf-8utf-8<bbox h="39.12" w="53.66" x="-1050.09" y="-334.33"/>
utf-8utf-8utf-8</view>
utf-8utf-8</views>
utf-8</metadata>
utf-8<g class="" id="provinces">
utf-8utf-8<path d="M410.1,125.3L403.6,111.3L399.5,96.4L385.8,89.4L382.9,107.8L370.7,108.4L359.8,96.9L352.5,94.5L344.3,92.3L341.5,102.8L336.5,112.3L329.5,113.3L323.3,108.1L323.1,114.4L324.7,120.0L328.4,122.1L332.2,124.8L331.0,133.3L328.2,142.3L333.8,147.4L332.2,152.9L320.3,153.0L309.6,147.8L303.9,155.2L299.9,155.7L296.0,154.7L288.5,151.1L281.5,146.5L277.3,151.9L276.1,158.0L279.4,160.8L281.4,163.9L270.6,167.7L260.3,172.8L255.1,173.1L250.1,172.5L245.6,175.6L241.8,179.8L236.4,184.3L232.0,189.9L228.3,209.0L228.6,215.6L232.6,220.2L232.0,229.7L229.5,239.5L239.1,246.1L253.8,254.6L255.6,259.2L255.6,266.9L260.3,272.0L271.5,280.4L283.3,284.6L289.8,281.3L296.6,279.7L303.4,282.1L310.2,284.5L312.1,277.6L310.8,270.9L319.1,266.7L328.5,262.5L346.3,253.6L361.7,241.8L365.9,233.4L371.8,233.0L378.7,234.6L378.9,225.6L381.9,215.0L378.5,206.8L370.5,204.3L364.5,198.8L367.1,192.4L374.0,190.4L388.4,182.6L403.3,177.5L407.6,174.2L412.2,170.7L412.9,163.8L412.9,156.8L415.3,149.0L419.7,142.3L424.2,137.3L426.0,131.0L410.1,125.3Z " data-id="DO.ST" data-name="Santiago" id="DO.ST"/>
utf-8utf-8<path d="M249.6,123.4L245.3,126.5L236.9,125.6L229.0,120.2L223.1,121.1L217.5,124.0L208.7,124.8L200.8,121.5L196.5,117.7L192.4,122.7L184.9,134.1L180.2,147.2L180.0,154.3L177.3,160.9L171.9,180.7L158.0,187.1L160.0,193.9L164.0,199.3L174.4,207.2L181.5,219.4L192.9,226.0L204.1,233.0L215.1,239.3L229.5,239.5L232.0,229.7L232.6,220.2L228.6,215.6L228.3,209.0L232.0,189.9L236.4,184.3L241.8,179.8L245.6,175.6L250.1,172.5L255.1,173.1L260.3,172.8L270.6,167.7L281.4,163.9L279.4,160.8L276.1,158.0L277.3,151.9L281.5,146.5L261.9,142.6L254.2,125.2L249.6,123.4Z " data-id="DO.SR" data-name="Santiago Rodríguez" id="DO.SR"/>
utf-8utf-8<path d="M333.1,90.7L323.5,85.1L315.2,77.1L304.6,73.4L297.5,71.3L292.0,66.3L283.7,61.6L274.8,58.0L270.9,67.2L267.5,76.5L266.8,97.2L260.3,96.4L257.9,103.1L258.4,114.5L254.2,125.2L261.9,142.6L281.5,146.5L288.5,151.1L296.0,154.7L299.9,155.7L303.9,155.2L309.6,147.8L320.3,153.0L332.2,152.9L333.8,147.4L328.2,142.3L331.0,133.3L332.2,124.8L328.4,122.1L324.7,120.0L323.1,114.4L323.3,108.1L329.5,113.3L336.5,112.3L341.5,102.8L344.3,92.3L333.1,90.7Z " data-id="DO.VA" data-name="Valverde" id="DO.VA"/>
utf-8utf-8<path d="M215.1,239.3L204.1,233.0L201.2,242.4L199.6,252.0L190.4,259.2L180.0,259.8L172.1,254.1L163.0,252.5L156.4,263.8L151.8,277.1L146.5,287.0L137.8,289.6L130.1,290.5L123.5,296.4L115.1,312.0L111.1,328.9L115.1,335.4L110.3,350.6L115.9,354.9L120.9,360.2L122.1,367.4L121.3,375.0L125.7,380.9L132.8,382.8L135.1,391.7L130.2,401.6L142.4,406.7L155.5,409.7L167.0,416.4L180.1,417.6L186.4,413.4L192.9,411.1L200.3,412.0L207.9,410.6L221.2,406.4L230.5,412.5L242.7,409.0L251.1,397.3L255.7,395.5L261.1,392.9L260.9,388.8L259.5,385.4L262.7,381.2L263.5,377.2L263.0,365.5L272.1,362.5L273.8,367.9L277.6,369.6L281.7,365.7L284.4,360.4L286.2,344.4L289.6,328.9L293.7,321.1L300.9,316.0L305.1,312.0L306.8,306.0L312.8,302.9L315.8,296.2L314.2,289.5L310.2,284.5L303.4,282.1L296.6,279.7L289.8,281.3L283.3,284.6L271.5,280.4L260.3,272.0L255.6,266.9L255.6,259.2L253.8,254.6L239.1,246.1L229.5,239.5L215.1,239.3Z " data-id="DO.JU" data-name="San Juan" id="DO.JU"/>
utf-8utf-8<path d="M652.6,398.3L643.2,400.5L637.7,404.1L631.6,405.5L615.2,411.9L601.3,426.2L600.0,417.4L594.9,411.4L594.0,405.2L590.8,399.7L585.4,392.1L578.7,385.8L566.2,385.2L562.7,385.3L559.4,386.5L556.8,392.2L544.7,398.0L532.2,395.3L523.6,392.6L515.3,389.1L511.3,379.3L504.0,376.3L502.7,390.3L508.8,403.3L505.7,410.2L503.6,417.9L505.4,428.9L509.4,438.9L515.5,444.3L519.9,451.0L520.1,456.4L522.8,460.1L529.0,459.9L535.1,460.1L537.9,465.7L537.5,472.4L538.3,474.4L541.3,472.8L544.8,471.6L547.5,460.3L542.5,450.5L544.1,441.6L551.8,437.2L557.4,448.1L562.5,448.6L567.7,447.1L575.2,448.3L573.8,457.6L581.4,457.2L622.8,462.3L624.7,463.0L626.7,465.3L630.4,473.8L631.8,474.9L635.2,475.6L639.0,475.6L641.5,474.8L642.6,471.9L642.7,464.9L644.7,462.0L648.6,462.5L654.3,466.0L667.3,476.6L669.0,468.4L671.8,458.5L656.2,455.0L646.7,442.4L651.9,434.2L658.3,426.3L659.6,418.5L659.1,410.7L656.1,411.3L658.1,406.5L661.9,402.4L652.6,398.3Z " data-id="DO.SD" data-name="Santo Domingo" id="DO.SD"/>
utf-8utf-8<path d="M584.1,271.7L585.9,263.4L580.5,259.4L574.0,257.1L565.3,256.5L557.0,256.4L550.8,254.2L538.3,247.6L530.7,246.9L519.0,245.4L506.9,245.7L501.3,246.7L495.7,245.6L490.6,244.0L486.2,245.6L486.2,246.9L486.7,247.7L487.1,248.6L480.8,251.0L473.8,254.8L462.4,260.4L453.8,270.0L456.1,277.4L457.8,284.7L458.2,293.1L464.7,296.7L466.9,300.2L467.2,304.8L470.8,310.9L486.8,324.6L492.5,337.9L506.9,334.7L518.7,331.6L524.4,326.6L531.8,324.7L542.1,326.8L546.0,321.3L551.3,322.4L559.6,327.1L567.9,320.7L574.6,300.4L580.7,280.4L584.1,271.7Z " data-id="DO.SZ" data-name="Sánchez Ramírez" id="DO.SZ"/>
utf-8utf-8<path d="M739.0,411.9L733.5,423.6L726.8,431.9L718.1,441.8L715.0,431.6L712.3,421.1L702.0,400.5L701.3,387.8L701.1,374.9L697.2,365.0L698.3,354.2L680.4,372.7L661.9,402.4L658.1,406.5L656.1,411.3L659.1,410.7L659.6,418.5L658.3,426.3L651.9,434.2L646.7,442.4L656.2,455.0L671.8,458.5L669.0,468.4L667.3,476.6L668.0,477.2L673.6,477.1L684.5,472.8L720.1,469.8L726.4,464.1L731.5,467.7L736.9,467.3L742.4,465.3L747.8,464.1L753.6,465.8L760.7,473.1L765.2,474.8L770.5,475.7L782.0,480.1L787.0,481.1L787.3,481.1L786.5,472.4L784.0,463.4L781.1,460.4L779.6,456.2L784.0,448.0L789.1,440.1L792.0,432.0L794.1,424.8L786.2,423.9L777.5,425.2L770.4,419.0L764.6,411.1L760.3,409.7L755.7,410.2L752.3,407.7L749.0,404.9L739.0,411.9Z " data-id="DO.PM" data-name="San Pedro de Macorís" id="DO.PM"/>
utf-8utf-8<path d="M253.2,32.3L241.2,31.9L237.5,29.9L232.6,25.6L225.0,28.6L217.6,27.0L193.3,12.4L186.6,9.6L179.6,8.5L151.6,10.9L147.4,15.1L145.3,14.7L142.3,13.1L140.2,12.8L136.6,13.8L134.9,16.2L134.8,19.7L136.3,23.6L132.8,26.7L124.5,30.0L119.3,35.6L117.3,36.4L111.6,37.6L106.8,42.7L103.3,47.6L103.9,50.9L111.1,51.3L110.3,56.8L113.8,68.8L114.2,75.0L109.6,72.3L104.5,71.0L106.0,79.6L106.4,85.1L105.6,90.1L108.6,90.9L133.6,103.1L162.5,99.2L169.1,101.4L172.3,109.5L181.9,116.9L192.4,122.7L196.5,117.7L200.8,121.5L208.7,124.8L217.5,124.0L223.1,121.1L229.0,120.2L236.9,125.6L245.3,126.5L249.6,123.4L254.2,125.2L258.4,114.5L257.9,103.1L260.3,96.4L266.8,97.2L267.5,76.5L270.9,67.2L274.8,58.0L267.1,54.5L258.9,51.8L254.5,42.8L253.7,32.2L253.2,32.3Z " data-id="DO.MC" data-name="Monte Cristi" id="DO.MC"/>
utf-8utf-8<path d="M253.7,32.2L254.5,42.8L258.9,51.8L267.1,54.5L274.8,58.0L283.7,61.6L292.0,66.3L297.5,71.3L304.6,73.4L315.2,77.1L323.5,85.1L333.1,90.7L344.3,92.3L352.5,94.5L359.8,96.9L370.7,108.4L382.9,107.8L385.8,89.4L399.5,96.4L403.6,111.3L410.1,125.3L426.0,131.0L433.5,116.5L437.5,99.9L440.2,93.7L444.9,89.6L448.4,89.6L451.7,90.5L456.6,89.8L461.6,88.4L466.4,88.4L471.1,86.9L476.0,78.6L479.8,69.7L465.3,50.7L455.1,47.1L452.3,48.0L448.3,50.1L444.8,52.5L441.7,55.5L425.4,55.4L413.5,53.4L403.5,49.4L394.3,44.0L384.9,34.5L381.2,32.4L371.0,32.3L372.8,29.4L372.1,26.5L361.8,11.0L358.8,8.5L355.7,8.4L347.4,10.4L343.5,10.9L330.7,8.5L332.0,15.1L330.0,15.1L325.0,12.8L326.9,7.8L325.1,3.9L321.2,1.2L317.0,0.0L312.1,0.7L302.9,5.4L298.6,6.6L295.1,8.9L289.0,19.2L285.9,21.5L281.5,22.1L277.8,23.1L274.2,23.3L270.1,21.5L270.8,23.6L273.4,25.6L272.5,27.6L267.2,32.3L265.0,24.1L263.0,21.2L259.7,22.6L257.9,25.8L256.5,31.4L253.7,32.2Z " data-id="DO.PP" data-name="Puerto Plata" id="DO.PP"/>
utf-8utf-8<path d="M181.9,116.9L172.3,109.5L169.1,101.4L162.5,99.2L133.6,103.1L108.6,90.9L105.6,90.1L104.3,98.3L104.8,105.3L110.3,124.9L111.0,149.3L109.3,163.2L105.5,170.4L103.8,172.2L99.3,181.7L96.5,183.9L88.7,188.4L86.8,190.4L87.4,196.6L91.5,204.0L100.4,215.3L117.0,224.6L122.0,219.9L127.8,216.3L133.8,214.0L136.4,208.3L140.2,204.0L146.6,205.9L152.8,208.3L158.8,204.6L164.0,199.3L160.0,193.9L158.0,187.1L171.9,180.7L177.3,160.9L180.0,154.3L180.2,147.2L184.9,134.1L192.4,122.7L181.9,116.9Z " data-id="DO.DA" data-name="Dajabón" id="DO.DA"/>
utf-8utf-8<path d="M551.8,95.0L549.1,97.3L546.3,98.4L542.2,98.5L524.4,94.6L514.9,90.6L502.7,89.2L497.3,87.4L492.7,84.6L488.5,81.1L479.8,69.7L479.8,69.7L476.0,78.6L471.1,86.9L466.4,88.4L461.6,88.4L456.6,89.8L451.7,90.5L448.4,89.6L444.9,89.6L440.2,93.7L437.5,99.9L433.5,116.5L426.0,131.0L424.2,137.3L419.7,142.3L415.3,149.0L412.9,156.8L412.9,163.8L412.2,170.7L407.6,174.2L403.3,177.5L409.2,182.8L417.6,183.7L424.0,181.1L429.7,179.8L433.6,194.7L441.4,193.1L449.1,174.8L452.0,157.3L454.0,136.5L464.4,124.3L469.0,126.3L473.3,128.6L475.6,137.0L482.5,132.2L489.0,123.4L497.6,118.3L504.7,125.8L509.8,136.8L512.7,136.8L515.5,137.4L517.3,128.5L519.7,120.5L525.5,120.1L531.8,120.5L546.1,112.0L552.8,95.8L552.8,93.9L551.8,95.0Z " data-id="DO.ES" data-name="Espaillat" id="DO.ES"/>
utf-8utf-8<path d="M221.2,406.4L207.9,410.6L200.3,412.0L192.9,411.1L186.4,413.4L180.1,417.6L167.0,416.4L155.5,409.7L142.4,406.7L130.2,401.6L121.1,404.2L112.1,407.3L110.4,410.7L110.4,414.7L107.9,421.7L104.1,428.3L108.9,455.5L135.6,467.4L145.4,472.6L154.6,479.2L164.8,482.1L175.7,477.7L188.6,478.5L194.1,493.0L201.0,499.8L210.8,499.1L212.7,489.0L218.3,480.8L227.9,474.3L231.5,469.2L236.3,465.3L244.9,462.0L252.5,456.3L257.5,448.7L262.0,440.6L266.6,448.0L272.6,445.6L273.2,440.1L266.5,434.8L258.2,433.1L241.9,426.7L230.5,412.5L221.2,406.4Z " data-id="DO.BR" data-name="Bahoruco" id="DO.BR"/>
utf-8utf-8<path d="M262.0,440.6L257.5,448.7L252.5,456.3L244.9,462.0L236.3,465.3L231.5,469.2L227.9,474.3L218.3,480.8L212.7,489.0L210.8,499.1L200.5,512.2L185.7,516.4L172.6,511.3L160.2,514.1L162.4,532.0L164.9,549.1L158.6,550.1L151.9,548.0L146.4,553.8L144.3,562.3L152.1,567.6L150.8,586.0L149.7,591.6L147.9,594.9L142.1,597.2L140.0,600.0L144.2,616.0L156.4,628.1L163.4,626.3L171.5,626.7L174.7,637.6L173.5,649.7L173.6,650.5L174.4,651.3L177.0,652.6L179.2,647.4L181.5,643.6L184.2,640.6L187.8,637.5L193.5,634.4L196.3,632.4L197.7,629.9L200.7,622.8L230.6,581.7L236.3,569.1L242.5,560.3L242.8,556.6L241.7,553.7L239.0,536.7L237.4,533.3L234.7,529.1L234.6,525.1L235.6,521.6L238.4,517.1L241.5,509.7L245.9,507.8L251.3,507.9L262.8,510.7L265.6,512.1L268.2,514.4L272.2,522.9L272.3,522.9L277.1,515.4L276.0,505.3L275.8,498.7L276.9,494.2L269.2,492.1L260.7,489.4L257.5,488.0L255.1,485.9L253.2,478.7L262.4,470.8L268.6,463.0L268.8,453.1L266.6,448.0L262.0,440.6Z " data-id="DO.BH" data-name="Barahona" id="DO.BH"/>
utf-8utf-8<path d="M113.5,397.6L96.3,396.1L78.3,392.9L63.4,391.0L61.4,392.3L56.5,397.3L49.9,407.7L45.9,411.8L35.0,415.7L15.0,411.6L4.7,414.0L0.7,417.0L0.8,418.6L2.8,421.1L5.6,423.0L8.6,425.8L11.5,431.6L14.1,438.9L22.8,450.0L24.6,453.4L24.8,458.1L21.0,461.1L19.6,464.5L20.6,470.3L24.5,472.7L34.8,475.6L36.8,477.8L40.2,484.5L42.2,487.3L51.6,494.8L65.6,500.8L69.2,503.6L71.9,506.9L68.1,512.9L67.9,513.2L68.5,513.5L89.5,527.4L111.4,539.9L121.0,542.6L130.0,546.8L136.9,554.8L144.3,562.3L146.4,553.8L151.9,548.0L158.6,550.1L164.9,549.1L162.4,532.0L160.2,514.1L172.6,511.3L185.7,516.4L200.5,512.2L210.8,499.1L201.0,499.8L194.1,493.0L188.6,478.5L175.7,477.7L164.8,482.1L154.6,479.2L145.4,472.6L135.6,467.4L108.9,455.5L104.1,428.3L107.9,421.7L110.4,414.7L110.4,410.7L112.1,407.3L121.1,404.2L130.2,401.6L113.5,397.6Z " data-id="DO.IN" data-name="Independencia" id="DO.IN"/>
utf-8utf-8<path d="M192.9,226.0L181.5,219.4L174.4,207.2L164.0,199.3L158.8,204.6L152.8,208.3L146.6,205.9L140.2,204.0L136.4,208.3L133.8,214.0L127.8,216.3L122.0,219.9L117.0,224.6L120.2,226.4L117.0,245.0L115.1,250.4L111.1,255.9L101.1,263.1L96.6,267.1L87.2,279.5L73.9,293.8L70.1,296.2L55.8,300.3L50.7,303.7L51.0,309.1L55.9,308.3L62.9,305.8L69.2,306.0L71.5,308.2L74.4,317.0L76.6,320.2L82.1,326.4L83.8,329.2L84.7,335.0L83.7,347.7L84.6,359.9L83.6,365.8L81.6,371.6L79.2,376.8L75.4,382.7L71.2,386.1L63.4,391.0L78.3,392.9L96.3,396.1L113.5,397.6L130.2,401.6L135.1,391.7L132.8,382.8L125.7,380.9L121.3,375.0L122.1,367.4L120.9,360.2L115.9,354.9L110.3,350.6L115.1,335.4L111.1,328.9L115.1,312.0L123.5,296.4L130.1,290.5L137.8,289.6L146.5,287.0L151.8,277.1L156.4,263.8L163.0,252.5L172.1,254.1L180.0,259.8L190.4,259.2L199.6,252.0L201.2,242.4L204.1,233.0L192.9,226.0Z " data-id="DO.EP" data-name="La Estrelleta" id="DO.EP"/>
utf-8utf-8<path d="M107.9,728.0L104.7,725.3L101.1,722.9L98.1,728.0L107.9,728.0Z M173.6,650.5L173.5,649.7L174.7,637.6L171.5,626.7L163.4,626.3L156.4,628.1L144.2,616.0L140.0,600.0L142.1,597.2L147.9,594.9L149.7,591.6L150.8,586.0L152.1,567.6L144.3,562.3L136.9,554.8L130.0,546.8L121.0,542.6L111.4,539.9L89.5,527.4L68.5,513.5L67.9,513.2L53.5,535.9L50.8,541.8L49.4,547.9L49.5,550.9L51.5,559.8L51.8,563.3L51.1,568.5L50.7,577.6L49.2,583.0L45.0,592.4L59.5,598.7L68.5,607.7L72.7,613.8L74.1,619.3L71.1,631.1L71.3,636.6L73.7,641.5L77.0,650.4L77.7,655.1L77.4,661.9L75.1,665.8L65.5,675.7L62.6,677.9L71.6,680.4L93.7,677.2L102.4,681.1L106.4,686.5L121.7,720.4L124.1,722.9L124.1,724.2L126.2,726.6L128.8,728.0L141.8,710.8L145.2,705.1L157.3,675.7L161.1,670.5L162.4,668.2L164.8,662.0L165.9,660.7L168.1,660.2L172.9,654.3L171.1,654.3L173.4,650.3L173.6,650.5Z " data-id="DO.PN" data-name="Pedernales" id="DO.PN"/>
utf-8utf-8<path d="M363.3,375.6L354.4,361.9L338.8,352.7L329.0,335.6L328.9,306.8L315.8,296.2L312.8,302.9L306.8,306.0L305.1,312.0L300.9,316.0L293.7,321.1L289.6,328.9L286.2,344.4L284.4,360.4L281.7,365.7L277.6,369.6L273.8,367.9L272.1,362.5L263.0,365.5L263.5,377.2L262.7,381.2L259.5,385.4L260.9,388.8L261.1,392.9L255.7,395.5L251.1,397.3L242.7,409.0L230.5,412.5L241.9,426.7L258.2,433.1L266.5,434.8L273.2,440.1L272.6,445.6L266.6,448.0L268.8,453.1L268.6,463.0L262.4,470.8L253.2,478.7L255.1,485.9L257.5,488.0L260.7,489.4L269.2,492.1L276.9,494.2L275.8,498.7L276.0,505.3L277.1,515.4L272.3,522.9L274.7,523.9L281.2,523.1L285.4,520.5L293.5,511.1L298.7,509.1L302.2,502.6L307.3,497.9L310.7,498.4L313.3,497.7L317.4,494.8L319.6,493.9L322.0,494.2L327.5,496.1L330.6,496.2L333.7,495.3L336.0,493.8L345.0,485.0L345.9,482.4L345.7,475.9L348.7,470.4L354.7,468.7L361.4,469.3L366.6,470.7L372.6,473.3L375.9,476.1L381.0,484.3L382.2,488.1L382.3,493.8L381.5,500.4L379.6,506.7L378.0,508.8L374.3,511.3L373.3,514.4L374.2,517.3L377.5,519.9L392.9,516.7L404.0,504.5L404.2,495.6L407.2,487.2L410.4,481.5L409.2,475.7L404.5,462.8L400.0,452.2L391.7,447.2L383.3,440.8L377.3,438.3L373.1,433.4L371.5,428.7L367.7,426.1L363.7,410.3L357.6,393.4L363.3,375.6Z " data-id="DO.AZ" data-name="Azua" id="DO.AZ"/>
utf-8utf-8<path d="M403.3,177.5L388.4,182.6L374.0,190.4L367.1,192.4L364.5,198.8L370.5,204.3L378.5,206.8L381.9,215.0L378.9,225.6L378.7,234.6L371.8,233.0L365.9,233.4L361.7,241.8L346.3,253.6L328.5,262.5L319.1,266.7L310.8,270.9L312.1,277.6L310.2,284.5L314.2,289.5L315.8,296.2L328.9,306.8L329.0,335.6L338.8,352.7L354.4,361.9L363.3,375.6L357.6,393.4L369.9,393.1L381.9,393.3L386.6,388.2L392.9,382.5L401.0,372.6L406.3,358.8L392.5,338.4L397.1,316.8L414.9,302.3L417.3,280.9L424.1,269.4L437.4,265.6L441.0,259.8L446.5,257.7L452.6,261.9L453.8,270.0L462.4,260.4L473.8,254.8L480.8,251.0L487.1,248.6L486.7,247.7L486.2,246.9L473.7,237.2L466.5,222.4L455.5,221.6L448.7,213.6L444.3,203.7L441.4,193.1L433.6,194.7L429.7,179.8L424.0,181.1L417.6,183.7L409.2,182.8L403.3,177.5Z " data-id="DO.VE" data-name="La Vega" id="DO.VE"/>
utf-8utf-8<path d="M452.6,261.9L446.5,257.7L441.0,259.8L437.4,265.6L424.1,269.4L417.3,280.9L414.9,302.3L397.1,316.8L392.5,338.4L406.3,358.8L417.0,366.0L427.0,374.8L433.8,374.0L440.7,371.4L447.6,374.6L454.0,379.9L464.0,380.1L468.9,368.2L473.6,359.4L483.4,354.5L486.2,344.7L492.5,337.9L486.8,324.6L470.8,310.9L467.2,304.8L466.9,300.2L464.7,296.7L458.2,293.1L457.8,284.7L456.1,277.4L453.8,270.0L452.6,261.9Z " data-id="DO.MN" data-name="Monseñor Nouel" id="DO.MN"/>
utf-8utf-8<path d="M445.3,447.5L438.8,454.4L431.4,459.6L417.7,463.9L409.2,475.7L410.4,481.5L407.2,487.2L404.2,495.6L404.0,504.5L392.9,516.7L377.5,519.9L379.0,521.0L380.7,524.1L384.2,527.1L384.6,530.5L383.2,532.4L378.3,536.4L378.4,539.0L382.5,540.9L401.3,541.0L407.8,539.5L419.7,532.5L425.8,530.5L460.5,530.4L465.5,531.6L470.0,534.8L473.5,532.7L478.7,531.8L484.6,531.6L483.6,525.6L483.1,518.6L476.8,511.5L473.6,503.6L468.9,496.5L464.6,489.6L466.8,481.5L474.3,477.1L475.5,469.5L467.4,465.1L457.8,453.8L445.3,447.5Z " data-id="DO.PV" data-name="Peravia" id="DO.PV"/>
utf-8utf-8<path d="M447.6,374.6L440.7,371.4L433.8,374.0L427.0,374.8L417.0,366.0L406.3,358.8L401.0,372.6L392.9,382.5L386.6,388.2L381.9,393.3L369.9,393.1L357.6,393.4L363.7,410.3L367.7,426.1L371.5,428.7L373.1,433.4L377.3,438.3L383.3,440.8L391.7,447.2L400.0,452.2L404.5,462.8L409.2,475.7L417.7,463.9L431.4,459.6L438.8,454.4L445.3,447.5L442.2,438.2L441.2,428.1L445.3,417.1L445.3,406.1L447.6,392.6L454.0,379.9L447.6,374.6Z " data-id="DO.JO" data-name="San José de Ocoa" id="DO.JO"/>
utf-8utf-8<path d="M512.7,136.8L509.8,136.8L507.3,144.8L504.1,154.8L495.6,161.9L483.6,168.0L477.0,181.1L473.3,195.7L468.1,209.1L466.5,222.4L473.7,237.2L486.2,246.9L486.2,245.6L490.6,244.0L495.7,245.6L501.3,246.7L506.9,245.7L519.0,245.4L530.7,246.9L538.3,247.6L550.8,254.2L557.0,256.4L565.3,256.5L574.0,257.1L580.5,259.4L585.9,263.4L584.1,271.7L580.7,280.4L588.0,280.6L592.7,274.7L594.5,266.4L609.2,264.5L626.9,265.3L632.8,259.7L634.8,249.9L638.9,245.0L651.3,236.6L652.1,228.2L636.1,223.9L622.2,230.8L603.8,226.8L586.6,217.5L568.5,212.4L556.5,200.2L553.6,192.9L545.5,191.8L536.8,184.3L534.8,171.1L535.1,160.4L533.0,150.6L524.5,143.8L515.5,137.4L512.7,136.8Z " data-id="DO.DU" data-name="Duarte" id="DO.DU"/>
utf-8utf-8<path d="M747.9,278.6L738.7,277.3L734.2,276.0L730.0,272.2L727.3,262.6L722.8,258.8L718.7,257.9L704.1,258.8L703.9,260.9L706.9,261.3L712.9,265.3L706.1,266.2L693.9,260.8L687.2,263.0L682.3,260.9L667.0,263.4L663.9,260.8L663.9,260.8L663.5,263.1L663.5,271.4L660.9,280.9L656.4,289.8L667.7,302.1L682.2,310.6L695.1,318.0L707.6,325.9L717.3,327.3L721.7,332.8L716.2,336.7L710.2,340.5L703.9,346.9L698.3,354.2L697.2,365.0L701.1,374.9L701.3,387.8L702.0,400.5L712.3,421.1L715.0,431.6L718.1,441.8L726.8,431.9L733.5,423.6L739.0,411.9L749.0,404.9L753.4,393.4L759.3,381.5L761.9,368.2L758.9,355.7L745.1,338.0L737.6,316.3L753.2,313.3L775.0,319.0L769.0,304.3L772.3,286.1L747.9,278.6Z " data-id="DO.HM" data-name="Hato Mayor" id="DO.HM"/>
utf-8utf-8<path d="M609.2,264.5L594.5,266.4L592.7,274.7L588.0,280.6L580.7,280.4L574.6,300.4L567.9,320.7L559.6,327.1L551.3,322.4L546.0,321.3L542.1,326.8L531.8,324.7L524.4,326.6L518.7,331.6L506.9,334.7L492.5,337.9L486.2,344.7L483.4,354.5L487.2,360.7L491.4,366.7L497.9,371.0L504.0,376.3L511.3,379.3L515.3,389.1L523.6,392.6L532.2,395.3L544.7,398.0L556.8,392.2L559.4,386.5L562.7,385.3L566.2,385.2L578.7,385.8L585.4,392.1L590.8,399.7L594.0,405.2L594.9,411.4L600.0,417.4L601.3,426.2L615.2,411.9L631.6,405.5L637.7,404.1L643.2,400.5L652.6,398.3L661.9,402.4L680.4,372.7L698.3,354.2L703.9,346.9L710.2,340.5L716.2,336.7L721.7,332.8L717.3,327.3L707.6,325.9L695.1,318.0L682.2,310.6L667.7,302.1L656.4,289.8L649.1,283.4L641.1,278.1L633.9,271.7L626.9,265.3L609.2,264.5Z " data-id="DO.MP" data-name="Monte Plata" id="DO.MP"/>
utf-8utf-8<path d="M622.3,189.3L607.3,159.9L606.1,154.9L606.0,148.7L607.6,134.5L606.1,129.0L600.9,126.5L607.1,109.3L608.1,101.4L605.9,94.1L597.8,83.5L593.9,80.8L590.7,80.4L583.2,81.1L568.2,80.9L562.8,83.5L552.8,93.9L552.8,95.8L546.1,112.0L531.8,120.5L525.5,120.1L519.7,120.5L517.3,128.5L515.5,137.4L524.5,143.8L533.0,150.6L535.1,160.4L534.8,171.1L536.8,184.3L545.5,191.8L553.6,192.9L556.5,200.2L568.5,212.4L586.6,217.5L603.8,226.8L622.2,230.8L621.1,223.5L623.6,215.7L626.9,207.9L628.8,199.5L629.5,198.0L622.3,189.3Z " data-id="DO.MT" data-name="María Trinidad Sánchez" id="DO.MT"/>
utf-8utf-8<path d="M661.6,258.8L661.2,254.0L664.5,241.3L666.9,226.5L668.8,222.3L672.8,221.1L706.9,225.8L716.4,231.3L721.8,233.0L745.3,231.1L766.1,235.3L772.2,233.7L777.3,230.0L781.0,224.9L782.7,219.3L785.7,213.9L791.1,209.0L795.2,203.6L794.3,196.8L789.1,199.6L782.9,201.2L776.8,201.3L771.6,199.1L776.5,190.3L779.4,182.8L777.9,179.2L769.7,181.9L756.6,189.3L751.1,194.3L747.4,201.0L743.1,197.4L728.1,190.4L724.9,192.4L723.0,193.0L722.0,189.7L721.0,188.7L715.2,188.6L708.4,190.4L704.9,189.7L699.5,186.6L696.8,185.9L693.6,186.7L685.0,192.5L679.2,195.0L673.7,196.2L661.4,196.8L655.9,197.8L644.9,202.2L639.3,203.2L630.4,199.1L629.5,198.0L629.5,198.0L628.8,199.5L626.9,207.9L623.6,215.7L621.1,223.5L622.2,230.8L636.1,223.9L652.1,228.2L651.3,236.6L638.9,245.0L634.8,249.9L632.8,259.7L626.9,265.3L633.9,271.7L641.1,278.1L649.1,283.4L656.4,289.8L660.9,280.9L663.5,271.4L663.5,263.1L663.9,260.8L661.6,258.8Z " data-id="DO.SM" data-name="Samaná" id="DO.SM"/>
utf-8utf-8<path d="M497.9,371.0L491.4,366.7L487.2,360.7L483.4,354.5L473.6,359.4L468.9,368.2L464.0,380.1L454.0,379.9L447.6,392.6L445.3,406.1L445.3,417.1L441.2,428.1L442.2,438.2L445.3,447.5L457.8,453.8L467.4,465.1L475.5,469.5L474.3,477.1L466.8,481.5L464.6,489.6L468.9,496.5L473.6,503.6L476.8,511.5L483.1,518.6L483.6,525.6L484.6,531.6L485.3,531.6L486.9,532.5L491.0,529.0L498.4,520.6L508.5,511.3L510.0,507.9L511.6,505.6L518.2,502.0L519.9,499.4L522.7,490.1L528.0,482.2L534.7,476.3L538.3,474.4L538.3,474.4L537.5,472.4L537.9,465.7L535.1,460.1L529.0,459.9L522.8,460.1L520.1,456.4L519.9,451.0L515.5,444.3L509.4,438.9L505.4,428.9L503.6,417.9L505.7,410.2L508.8,403.3L502.7,390.3L504.0,376.3L497.9,371.0Z " data-id="DO.CR" data-name="San Cristóbal" id="DO.CR"/>
utf-8utf-8<path d="M548.8,470.2L551.6,468.8L559.1,463.6L568.1,459.1L573.8,457.6L573.8,457.6L575.2,448.3L567.7,447.1L562.5,448.6L557.4,448.1L551.8,437.2L544.1,441.6L542.5,450.5L547.5,460.3L544.8,471.6L548.8,470.2Z " data-id="DO.NC" data-name="Distrito Nacional" id="DO.NC"/>
utf-8utf-8<path d="M886.8,298.9L884.0,297.6L877.9,297.3L868.5,295.1L862.6,293.0L861.6,292.0L861.2,288.8L856.9,286.1L852.0,284.1L846.5,282.8L836.8,282.3L831.6,286.8L825.7,288.4L827.5,290.9L824.1,293.4L817.2,296.7L813.6,299.6L812.1,296.3L808.8,294.6L804.8,293.3L801.4,290.9L796.7,280.8L792.9,276.6L787.9,278.1L787.6,281.2L790.7,283.4L792.2,285.6L786.8,288.8L782.5,289.1L772.3,286.1L772.3,286.1L769.0,304.3L775.0,319.0L753.2,313.3L737.6,316.3L745.1,338.0L758.9,355.7L761.9,368.2L759.3,381.5L753.4,393.4L749.0,404.9L752.3,407.7L755.7,410.2L760.3,409.7L764.6,411.1L770.4,419.0L777.5,425.2L786.2,423.9L794.1,424.8L792.0,432.0L789.1,440.1L803.7,430.9L815.5,416.4L823.8,402.0L836.2,396.9L834.8,390.5L836.5,383.7L843.0,379.7L850.3,378.5L865.4,366.4L872.8,348.8L867.0,333.4L870.4,320.3L872.3,316.9L872.5,312.7L881.0,306.1L886.8,298.9L886.8,298.9Z " data-id="DO.SE" data-name="El Seybo" id="DO.SE"/>
utf-8utf-8<path d="M882.0,550.0L878.9,548.7L875.2,545.5L870.7,543.0L866.1,542.0L861.9,543.3L863.5,551.0L867.1,559.4L873.2,566.1L882.5,568.9L887.2,568.2L895.9,565.3L900.8,564.6L905.3,565.6L913.6,570.0L917.6,571.0L918.3,568.6L916.9,562.9L914.4,556.8L912.1,552.8L908.5,551.4L894.5,551.8L882.0,550.0Z M886.8,298.9L881.0,306.1L872.5,312.7L872.3,316.9L870.4,320.3L867.0,333.4L872.8,348.8L865.4,366.4L850.3,378.5L843.0,379.7L836.5,383.7L834.8,390.5L836.2,396.9L839.6,408.1L843.8,418.5L849.9,425.3L854.9,433.1L854.2,442.8L849.6,451.8L843.4,466.0L837.3,478.7L842.5,481.3L850.4,487.7L857.4,497.8L865.0,512.5L870.1,527.6L869.6,539.0L874.1,540.8L897.3,538.9L900.5,537.6L902.3,534.4L908.3,516.3L910.9,510.6L914.8,505.7L917.7,499.6L916.8,493.7L916.6,488.7L921.4,485.4L925.2,486.7L935.2,494.4L940.0,496.2L946.4,496.2L952.1,495.5L956.8,493.0L960.4,487.7L961.2,484.6L961.8,473.8L962.9,470.8L966.9,467.0L996.6,424.5L999.3,412.3L993.1,399.8L978.6,389.5L967.6,376.5L962.8,373.7L952.0,364.7L937.0,351.1L926.9,335.7L898.6,303.7L895.9,302.6L891.1,302.1L888.8,300.6L886.8,298.9Z " data-id="DO.AL" data-name="La Altagracia" id="DO.AL"/>
utf-8utf-8<path d="M836.2,396.9L823.8,402.0L815.5,416.4L803.7,430.9L789.1,440.1L784.0,448.0L779.6,456.2L781.1,460.4L784.0,463.4L786.5,472.4L787.3,481.1L806.9,480.1L820.6,474.2L831.8,476.0L837.3,478.7L843.4,466.0L849.6,451.8L854.2,442.8L854.9,433.1L849.9,425.3L843.8,418.5L839.6,408.1L836.2,396.9Z " data-id="DO.RO" data-name="La Romana" id="DO.RO"/>
utf-8</g>
</svg>
