<?xml version="1.0" ?>
<!DOCTYPE svg
  PUBLIC '-//W3C//DTD SVG 1.1//EN'
  'http://www.w3.org/Graphics/SVG/1.1/DTD/svg11.dtd'>
<svg enable_background="new 0 0 1000 446" height="446px" pretty_print="True" style="stroke-linejoin: round; stroke:#000; fill: none;" version="1.1" viewBox="0 0 1000 446" width="1000px" xmlns="http://www.w3.org/2000/svg" xmlns:xlink="http://www.w3.org/1999/xlink">
utf-8<defs>
utf-8utf-8<style type="text/css">
<![CDATA[path { fill-rule: evenodd; }]]>utf-8utf-8</style>
utf-8</defs>
utf-8<metadata>
utf-8utf-8<views>
utf-8utf-8utf-8<view h="446.359364461" padding="0" w="1000">
utf-8utf-8utf-8utf-8<proj flip="auto" id="robinson" lon0="-79.2067660681"/>
utf-8utf-8utf-8utf-8<bbox h="108.08" w="242.69" x="-1356.93" y="-24.05"/>
utf-8utf-8utf-8</view>
utf-8utf-8</views>
utf-8</metadata>
utf-8<g class="" id="provinces">
utf-8utf-8<path d="M797.4,275.5L793.9,280.4L787.3,284.5L783.8,285.7L783.7,289.2L782.6,290.8L782.4,293.5L776.4,293.5L774.1,289.3L769.8,284.3L767.3,281.9L763.0,284.8L761.8,287.4L760.3,286.6L754.7,280.2L751.9,276.5L749.0,275.3L747.9,272.7L746.2,271.1L744.1,271.0L744.9,272.8L745.4,273.6L742.2,277.9L729.2,293.7L728.6,298.4L729.2,302.7L725.4,308.8L725.3,310.2L732.9,314.6L735.4,320.7L734.2,323.7L731.4,327.7L734.7,328.4L738.1,327.6L742.2,327.5L744.2,328.3L745.8,329.0L751.2,329.1L755.2,336.7L762.6,339.4L764.5,342.8L765.3,347.8L766.4,349.5L767.5,349.4L769.4,343.8L769.5,338.4L768.9,334.1L769.4,333.2L774.6,329.2L775.8,327.9L775.5,326.7L775.8,325.5L784.4,317.4L788.7,315.3L792.2,310.7L792.5,306.3L794.3,301.0L797.1,295.6L797.2,293.3L795.7,290.5L798.6,285.1L806.2,280.0L805.7,278.2L803.4,276.1L800.0,279.3L798.3,279.0L798.0,277.6L798.3,275.6L797.4,275.5Z " data-id="EC.AZ" data-name="Azuay" id="EC.AZ"/>
utf-8utf-8<path d="M722.9,309.3L722.2,309.2L717.1,308.8L715.8,311.2L714.9,313.7L713.9,319.3L708.7,325.0L708.7,320.1L706.7,320.7L703.0,328.3L700.7,328.3L695.5,329.7L693.8,327.8L692.2,331.6L692.5,327.8L690.6,331.1L692.0,333.7L694.4,334.3L696.8,340.5L696.5,345.5L698.0,346.5L698.7,350.7L698.3,357.4L698.6,358.7L702.3,366.3L702.3,366.4L707.6,366.1L711.4,365.2L716.2,362.9L719.7,362.5L729.2,362.8L732.2,359.6L734.0,358.4L738.9,360.5L745.8,361.2L747.7,360.4L748.6,355.0L749.5,354.0L747.2,346.5L745.6,346.9L743.1,349.0L744.3,340.2L746.5,336.3L744.8,335.0L744.0,332.0L744.2,328.3L742.2,327.5L738.1,327.6L734.7,328.4L731.4,327.7L734.2,323.7L735.4,320.7L732.9,314.6L725.3,310.2L722.9,309.3Z " data-id="EC.EO" data-name="El Oro" id="EC.EO"/>
utf-8utf-8<path d="M765.3,347.8L764.5,342.8L762.6,339.4L755.2,336.7L751.2,329.1L745.8,329.0L744.2,328.3L744.0,332.0L744.8,335.0L746.5,336.3L744.3,340.2L743.1,349.0L745.6,346.9L747.2,346.5L749.5,354.0L748.6,355.0L747.7,360.4L745.8,361.2L738.9,360.5L734.0,358.4L732.2,359.6L729.2,362.8L719.7,362.5L716.2,362.9L711.4,365.2L707.6,366.1L702.3,366.4L702.3,367.1L701.3,368.3L696.7,370.8L694.0,375.0L692.8,375.7L687.7,373.4L684.2,373.8L682.0,377.3L681.4,380.4L683.2,383.7L683.0,386.3L684.4,389.3L686.5,389.6L692.0,388.3L691.3,389.8L683.7,401.9L683.5,403.1L687.7,407.1L693.3,405.4L697.8,401.3L702.0,394.6L704.4,394.2L709.5,397.0L711.5,399.4L714.5,401.4L719.2,402.1L723.7,407.7L726.0,408.1L730.0,406.6L732.1,405.2L734.3,404.9L736.0,405.8L739.2,409.3L742.4,410.5L743.9,412.9L742.6,417.2L744.5,420.2L745.3,424.3L747.0,427.7L747.0,427.8L750.1,424.3L755.1,414.8L755.1,410.0L757.1,407.5L762.0,409.3L767.3,402.8L767.7,390.0L767.3,387.7L765.2,385.6L764.4,381.7L765.1,377.9L764.8,363.4L763.6,361.8L761.4,357.3L761.1,355.6L765.3,351.2L766.4,349.5L765.3,347.8Z " data-id="EC.LJ" data-name="Loja" id="EC.LJ"/>
utf-8utf-8<path d="M810.4,342.2L802.8,342.2L798.4,343.1L793.0,343.6L791.4,345.6L782.6,343.0L780.5,339.5L780.0,335.8L781.0,332.0L775.8,327.9L774.6,329.2L769.4,333.2L768.9,334.1L769.5,338.4L769.4,343.8L767.5,349.4L766.4,349.5L765.3,351.2L761.1,355.6L761.4,357.3L763.6,361.8L764.8,363.4L765.1,377.9L764.4,381.7L765.2,385.6L767.3,387.7L767.7,390.0L767.3,402.8L762.0,409.3L757.1,407.5L755.1,410.0L755.1,414.8L750.1,424.3L747.0,427.8L747.2,429.0L747.7,430.5L752.9,436.1L754.1,436.6L758.4,441.3L763.8,441.3L771.7,444.4L773.4,442.7L776.5,434.9L780.7,434.2L781.3,432.8L779.4,428.1L779.3,426.2L783.7,419.6L786.2,418.0L793.9,413.7L794.5,408.7L796.4,404.6L794.9,403.6L793.4,397.2L799.3,381.5L799.9,378.5L800.0,373.2L803.8,370.7L804.3,365.6L805.3,362.9L806.8,361.9L808.6,358.9L807.7,354.5L808.8,348.0L810.4,342.5L810.4,342.2Z " data-id="EC.ZC" data-name="Zamora Chinchipe" id="EC.ZC"/>
utf-8utf-8<path d="M120.2,191.3L115.7,191.3L114.4,192.7L119.4,195.2L123.2,194.8L120.2,191.3Z M70.8,182.8L69.5,184.2L69.1,186.3L67.7,188.9L69.0,189.8L75.7,189.5L75.7,184.5L70.8,182.8Z M141.3,146.1L140.5,145.8L134.9,148.1L132.5,150.8L123.3,159.8L121.7,162.1L127.0,164.8L129.8,163.4L133.7,162.9L136.6,159.2L137.7,156.1L139.9,155.4L143.4,151.3L144.5,148.5L144.4,145.9L141.3,146.1Z M84.4,133.8L83.0,132.2L81.6,132.9L67.8,136.7L67.0,138.2L66.0,145.9L69.7,147.3L73.1,151.4L78.7,152.4L80.1,150.2L83.0,150.2L87.6,143.0L87.2,142.0L88.1,136.7L84.4,133.8Z M0.0,128.4L0.8,129.4L6.7,132.5L8.9,132.4L13.7,130.1L13.9,121.6L10.3,116.6L5.0,117.4L2.7,118.7L0.0,118.6L0.0,128.4Z M51.6,109.1L48.6,110.2L48.3,113.5L45.8,117.6L47.3,117.9L49.2,122.3L50.5,121.7L53.9,123.3L58.2,123.3L63.3,124.0L65.4,119.1L60.5,112.8L52.8,110.0L51.6,109.1Z M17.4,88.3L13.6,90.4L7.8,91.6L7.3,94.3L6.2,95.7L2.1,98.3L2.6,101.7L10.9,99.7L12.3,100.9L13.2,107.9L14.9,111.9L13.4,112.4L15.3,116.1L15.3,118.3L16.7,120.1L20.4,122.3L23.8,125.5L23.7,127.5L26.9,134.5L28.3,136.0L32.4,138.1L32.1,141.2L31.2,140.8L29.5,144.2L28.0,145.9L24.6,144.5L18.8,147.3L11.7,152.5L9.9,154.6L8.3,157.5L7.8,160.7L12.8,168.6L14.1,169.1L21.0,169.0L28.7,169.9L35.7,167.3L37.6,165.7L41.7,165.2L42.8,165.8L45.7,161.5L47.0,162.0L46.8,159.0L48.7,152.3L51.0,150.9L47.6,146.8L44.7,142.0L40.9,140.7L40.1,137.8L38.8,138.8L41.3,134.8L40.8,128.0L38.8,126.6L37.8,124.6L31.6,120.2L30.1,117.2L26.8,113.4L25.7,105.7L25.7,100.8L25.3,99.6L20.8,96.6L19.3,93.0L18.4,89.3L17.4,88.3Z M71.3,80.4L74.2,77.5L73.6,76.1L69.6,73.7L66.0,75.9L66.5,78.5L69.3,80.5L71.3,80.4Z M53.7,58.5L53.0,55.4L50.5,53.8L50.0,59.5L52.8,60.7L53.7,58.5Z " data-id="EC.GA" data-name="Galápagos" id="EC.GA"/>
utf-8utf-8<path d="M752.2,181.8L749.4,183.3L745.9,188.9L747.3,189.6L748.1,188.3L751.6,190.9L749.9,193.3L749.9,198.6L754.4,205.1L753.4,208.2L751.8,208.2L748.9,211.4L752.7,215.5L754.5,218.6L754.7,222.1L755.9,224.6L754.3,231.5L755.1,236.4L757.2,240.3L756.9,245.3L755.9,247.4L758.4,247.9L761.2,246.8L761.7,246.9L762.5,248.0L762.4,250.8L765.7,248.8L767.8,246.4L770.0,231.1L769.4,226.7L769.5,222.4L770.6,220.7L774.3,219.7L776.4,217.5L778.4,211.8L776.8,199.5L776.3,198.5L774.1,195.2L773.9,194.2L776.2,182.9L777.4,180.1L773.9,180.2L771.2,182.2L767.2,181.2L763.4,178.3L759.5,179.0L755.0,181.6L752.2,181.8Z " data-id="EC.BO" data-name="Bolivar" id="EC.BO"/>
utf-8utf-8<path d="M794.9,257.6L787.2,258.6L783.4,259.8L779.0,263.6L775.3,264.4L768.8,260.6L766.8,257.5L762.7,252.6L762.4,250.8L761.9,252.2L756.1,256.2L749.0,257.7L745.8,260.0L744.4,264.4L744.8,265.8L742.8,267.3L739.4,270.9L741.0,272.5L742.4,271.6L744.1,271.0L746.2,271.1L747.9,272.7L749.0,275.3L751.9,276.5L754.7,280.2L760.3,286.6L761.8,287.4L763.0,284.8L767.3,281.9L769.8,284.3L774.1,289.3L776.4,293.5L782.4,293.5L782.6,290.8L783.7,289.2L783.8,285.7L787.3,284.5L793.9,280.4L797.4,275.5L798.3,275.6L798.7,275.8L799.6,275.5L801.8,271.6L801.7,262.2L796.2,259.0L796.1,258.2L794.9,257.6Z " data-id="EC.CN" data-name="Cañar" id="EC.CN"/>
utf-8utf-8<path d="M801.7,141.3L796.2,140.5L793.9,141.7L792.8,140.6L786.8,144.1L784.0,138.3L780.1,135.2L774.5,124.9L774.2,123.2L773.6,122.7L773.3,122.8L772.0,123.7L769.3,127.3L767.0,132.3L769.1,134.1L769.5,135.5L767.4,136.9L766.7,138.9L764.6,138.5L763.6,136.9L763.0,140.0L758.9,151.2L750.6,164.3L750.6,168.0L749.7,172.8L750.2,177.2L751.8,179.6L752.2,181.8L755.0,181.6L759.5,179.0L763.4,178.3L767.2,181.2L771.2,182.2L773.9,180.2L777.4,180.1L779.2,179.3L780.8,177.7L784.5,176.9L787.4,177.6L790.9,176.8L792.9,175.3L800.1,173.5L802.9,172.3L804.5,167.0L806.2,165.3L804.5,161.4L804.8,158.8L806.1,156.3L805.9,151.0L805.2,147.8L805.7,146.1L801.7,141.3Z " data-id="EC.CT" data-name="Cotopaxi" id="EC.CT"/>
utf-8utf-8<path d="M703.7,305.6L706.6,300.5L714.7,288.8L716.1,286.2L713.5,285.5L709.2,282.6L697.4,286.7L696.6,289.5L694.1,305.4L696.8,307.9L698.3,308.0L700.5,306.9L702.7,307.1L703.7,305.6Z M720.2,280.6L720.4,277.6L722.5,276.3L723.8,274.1L721.5,272.0L720.8,270.3L717.3,280.0L717.6,281.5L720.2,280.6Z M731.3,157.5L727.4,158.2L725.1,159.6L722.0,165.6L720.8,166.7L720.2,169.4L718.0,173.0L713.3,177.3L712.2,177.7L709.7,175.7L705.8,186.6L700.5,191.8L700.7,194.8L696.9,197.5L696.6,198.3L697.5,203.7L695.2,206.4L691.5,207.0L695.0,212.0L695.7,214.0L694.5,215.0L692.1,214.8L685.2,218.6L683.1,222.3L682.6,225.1L680.1,225.9L677.6,225.8L678.2,228.8L680.0,232.0L683.2,234.2L688.0,235.5L691.7,238.0L693.9,240.2L696.3,244.4L696.3,250.4L695.5,257.4L692.9,262.1L689.9,264.1L684.7,265.5L681.2,268.5L676.9,273.3L681.6,279.4L685.6,281.4L690.7,285.7L694.7,287.1L692.8,280.1L693.6,278.5L696.0,280.1L697.4,278.2L699.3,277.2L701.2,274.9L705.2,268.3L708.2,259.8L712.6,257.9L707.4,268.5L707.7,269.4L711.2,268.2L713.7,268.7L713.9,270.7L711.4,269.7L709.7,269.9L708.3,273.0L705.8,275.4L706.1,276.6L711.0,278.5L713.1,277.1L717.3,270.7L717.9,257.2L717.7,255.2L715.8,251.5L715.5,247.5L716.9,242.0L719.9,239.4L723.5,237.1L723.1,238.6L720.6,240.6L720.4,242.3L717.7,244.2L719.3,261.8L722.7,269.9L725.4,270.6L726.7,277.7L722.5,286.2L722.3,287.8L720.4,292.4L718.7,299.4L717.7,304.9L717.8,307.5L717.1,308.8L722.2,309.2L722.9,309.3L725.3,310.2L725.4,308.8L729.2,302.7L728.6,298.4L729.2,293.7L742.2,277.9L745.4,273.6L744.9,272.8L744.1,271.0L742.4,271.6L741.0,272.5L739.4,270.9L742.8,267.3L744.8,265.8L744.4,264.4L745.8,260.0L749.0,257.7L756.1,256.2L761.9,252.2L762.4,250.8L762.5,248.0L761.7,246.9L761.2,246.8L758.4,247.9L755.9,247.4L752.8,244.2L748.1,235.6L740.6,229.7L737.0,229.0L731.8,230.7L729.5,228.2L726.8,222.1L722.7,214.9L717.6,212.0L717.5,207.4L716.6,204.3L716.9,198.4L718.9,193.4L720.5,191.3L723.8,184.0L724.1,180.9L731.8,172.3L734.9,166.9L736.7,165.0L736.4,163.5L737.2,157.2L733.3,156.9L731.3,157.5Z " data-id="EC.GU" data-name="Guayas" id="EC.GU"/>
utf-8utf-8<path d="M762.5,136.5L760.9,137.2L750.5,146.8L748.2,146.4L747.2,143.5L748.1,137.1L741.5,136.5L739.7,136.4L738.9,139.6L736.2,146.9L733.3,149.9L732.5,154.7L731.3,157.5L733.3,156.9L737.2,157.2L736.4,163.5L736.7,165.0L734.9,166.9L731.8,172.3L724.1,180.9L723.8,184.0L720.5,191.3L718.9,193.4L716.9,198.4L716.6,204.3L717.5,207.4L717.6,212.0L722.7,214.9L726.8,222.1L729.5,228.2L731.8,230.7L737.0,229.0L740.6,229.7L748.1,235.6L752.8,244.2L755.9,247.4L756.9,245.3L757.2,240.3L755.1,236.4L754.3,231.5L755.9,224.6L754.7,222.1L754.5,218.6L752.7,215.5L748.9,211.4L751.8,208.2L753.4,208.2L754.4,205.1L749.9,198.6L749.9,193.3L751.6,190.9L748.1,188.3L747.3,189.6L745.9,188.9L749.4,183.3L752.2,181.8L751.8,179.6L750.2,177.2L749.7,172.8L750.6,168.0L750.6,164.3L758.9,151.2L763.0,140.0L763.6,136.9L762.5,136.5Z " data-id="EC.LR" data-name="Los Rios" id="EC.LR"/>
utf-8utf-8<path d="M731.5,98.0L731.2,95.8L734.2,91.1L729.3,88.8L728.7,86.8L726.3,86.3L728.5,82.0L725.6,76.5L726.4,74.6L725.2,73.3L721.1,75.5L717.1,76.9L715.1,76.8L712.5,80.8L709.5,79.3L708.0,75.1L707.7,75.6L705.8,74.3L705.0,76.9L705.3,90.4L703.9,95.3L701.8,97.0L697.4,104.0L693.8,108.5L689.4,111.9L688.2,110.8L686.7,113.7L685.3,114.2L681.6,122.3L677.7,125.2L678.5,128.1L680.5,131.7L681.9,138.1L682.7,138.4L685.1,142.7L689.9,143.7L689.9,144.5L683.4,143.4L682.5,142.0L679.9,141.5L676.7,150.0L674.9,160.1L670.7,163.8L668.5,162.5L658.5,164.1L652.9,170.9L654.7,177.9L657.7,183.8L663.2,191.5L663.3,193.2L662.0,194.8L662.3,196.4L660.7,200.8L658.7,202.3L659.0,205.9L656.9,207.6L657.1,210.3L657.9,211.5L659.0,214.5L667.5,214.1L670.8,213.0L674.5,213.8L675.7,220.4L675.0,221.6L676.3,225.4L677.6,225.8L680.1,225.9L682.6,225.1L683.1,222.3L685.2,218.6L692.1,214.8L694.5,215.0L695.7,214.0L695.0,212.0L691.5,207.0L695.2,206.4L697.5,203.7L696.6,198.3L696.9,197.5L700.7,194.8L700.5,191.8L705.8,186.6L709.7,175.7L712.2,177.7L713.3,177.3L718.0,173.0L720.2,169.4L720.8,166.7L722.0,165.6L725.1,159.6L727.4,158.2L731.3,157.5L732.5,154.7L733.3,149.9L736.2,146.9L738.9,139.6L739.7,136.4L740.7,134.9L741.6,130.8L743.5,127.4L744.1,125.3L743.8,111.8L743.5,111.2L738.6,110.0L735.0,105.7L732.4,103.8L732.1,100.4L732.6,99.8L731.5,98.0Z " data-id="EC.MN" data-name="Manabi" id="EC.MN"/>
utf-8utf-8<path d="M808.4,203.4L806.1,200.8L800.5,198.3L799.0,200.9L791.1,201.6L787.9,200.8L783.3,197.8L780.8,197.2L778.1,199.0L776.8,199.5L778.4,211.8L776.4,217.5L774.3,219.7L770.6,220.7L769.5,222.4L769.4,226.7L770.0,231.1L767.8,246.4L765.7,248.8L762.4,250.8L762.7,252.6L766.8,257.5L768.8,260.6L775.3,264.4L779.0,263.6L783.4,259.8L787.2,258.6L794.9,257.6L796.1,258.2L798.2,256.5L799.0,253.3L800.6,251.8L800.3,247.4L803.8,242.5L803.0,238.1L801.2,235.2L803.0,230.7L805.3,227.6L804.8,223.0L803.4,219.9L803.4,216.5L808.7,210.7L808.3,206.7L809.0,204.1L808.4,203.4Z " data-id="EC.CB" data-name="Chimborazo" id="EC.CB"/>
utf-8utf-8<path d="M818.7,200.0L812.6,201.0L810.0,202.6L809.0,204.1L808.3,206.7L808.7,210.7L803.4,216.5L803.4,219.9L804.8,223.0L805.3,227.6L803.0,230.7L801.2,235.2L803.0,238.1L803.8,242.5L800.3,247.4L800.6,251.8L799.0,253.3L798.2,256.5L796.1,258.2L796.2,259.0L801.7,262.2L801.8,271.6L799.6,275.5L798.7,275.8L798.3,275.6L798.0,277.6L798.3,279.0L800.0,279.3L803.4,276.1L805.7,278.2L806.2,280.0L798.6,285.1L795.7,290.5L797.2,293.3L797.1,295.6L794.3,301.0L792.5,306.3L792.2,310.7L788.7,315.3L784.4,317.4L775.8,325.5L775.5,326.7L775.8,327.9L781.0,332.0L780.0,335.8L780.5,339.5L782.6,343.0L791.4,345.6L793.0,343.6L798.4,343.1L802.8,342.2L810.4,342.2L811.2,339.4L811.5,336.4L811.1,333.9L811.7,332.6L814.0,332.4L816.7,333.2L818.9,339.4L823.3,338.6L823.6,335.3L821.1,332.3L821.1,330.8L824.6,326.7L826.4,322.6L830.1,318.8L836.0,309.5L840.4,305.0L841.5,304.4L911.8,276.3L912.7,275.7L909.3,276.5L902.1,273.2L897.5,274.0L895.0,273.2L891.4,269.7L885.5,259.4L882.8,257.6L868.6,247.4L851.7,239.4L845.9,233.4L841.3,231.6L839.0,225.0L838.6,221.9L837.4,219.9L836.6,215.4L834.9,213.1L830.1,213.9L829.3,213.0L826.2,203.7L822.5,199.3L819.9,198.6L818.7,200.0Z " data-id="EC.MS" data-name="Morona Santiago" id="EC.MS"/>
utf-8utf-8<path d="M872.4,102.9L873.0,107.8L872.5,111.3L875.2,119.2L874.3,123.1L871.0,125.6L870.8,127.7L868.7,128.7L866.7,133.1L863.4,133.9L856.6,130.6L856.4,132.5L853.0,137.0L857.4,141.1L860.4,148.1L859.6,149.4L858.7,156.9L857.3,160.7L855.6,163.7L859.3,164.3L863.5,162.5L873.1,157.2L876.6,154.9L878.1,151.6L882.4,147.7L883.2,147.7L880.1,153.1L878.9,156.5L881.2,159.1L883.9,161.2L887.6,162.1L888.8,163.1L887.2,165.3L888.3,167.0L887.8,168.5L886.6,170.1L887.2,173.5L893.2,175.9L899.1,178.7L900.2,178.6L901.4,175.2L902.5,174.0L905.6,174.6L912.2,172.7L912.7,171.9L919.5,171.8L920.3,172.8L920.5,179.7L923.8,185.1L924.7,184.8L934.8,189.3L937.1,187.3L942.6,188.0L943.8,186.9L948.2,186.9L949.3,188.3L951.8,189.2L955.1,191.6L958.4,191.6L959.5,190.8L964.4,195.0L967.5,195.8L969.4,199.2L976.8,202.6L977.8,205.5L978.3,204.9L979.0,202.5L985.1,174.1L987.9,162.0L991.5,166.1L998.9,165.7L997.3,160.8L994.5,150.4L996.3,143.2L996.3,143.2L994.6,141.7L989.2,140.4L987.0,137.8L985.1,136.9L979.5,136.3L977.5,133.0L972.6,130.2L969.2,130.5L966.9,128.0L963.5,128.6L958.5,127.4L955.5,127.6L954.6,129.9L955.5,137.6L952.0,137.0L946.5,133.0L945.3,129.3L939.6,128.9L934.3,129.6L926.6,134.1L924.6,132.1L922.2,132.2L917.8,128.8L916.5,126.8L913.7,128.2L912.2,125.9L904.8,116.3L902.9,114.4L894.8,103.7L894.0,103.4L887.6,106.0L881.7,104.6L879.3,105.3L873.3,102.1L872.4,102.9Z " data-id="EC.NA" data-name="Orellana" id="EC.NA"/>
utf-8utf-8<path d="M767.2,79.1L760.0,77.0L755.4,77.1L747.6,83.8L750.3,86.5L747.9,92.3L746.7,95.6L750.0,98.4L762.3,98.9L762.7,104.5L773.5,104.1L775.5,106.3L781.3,109.8L784.4,113.7L783.2,118.5L775.5,119.4L773.6,122.7L774.2,123.2L774.5,124.9L780.1,135.2L784.0,138.3L786.8,144.1L792.8,140.6L793.9,141.7L796.2,140.5L801.7,141.3L805.7,146.1L807.0,145.3L810.4,142.9L810.6,141.1L813.3,136.9L815.4,129.4L814.5,127.5L818.3,119.3L818.6,111.8L823.1,111.4L825.9,109.3L826.5,107.9L829.3,108.0L831.9,102.2L834.1,101.3L839.2,98.2L839.9,96.7L839.2,96.4L837.1,93.2L831.5,90.6L833.1,87.8L826.1,85.3L825.0,85.2L821.8,87.8L819.1,89.2L814.2,89.1L809.6,85.8L807.8,87.3L807.2,82.6L801.3,82.2L796.0,83.2L790.0,84.0L783.8,82.6L777.1,83.0L774.7,83.9L769.2,83.1L768.2,80.4L767.2,79.1Z " data-id="EC.PI" data-name="Pichincha" id="EC.PI"/>
utf-8utf-8<path d="M887.8,168.5L877.6,169.3L874.0,171.2L868.3,173.3L863.1,174.4L857.7,177.2L853.2,178.1L848.1,178.6L844.3,180.5L842.0,182.2L836.5,184.2L834.7,183.4L823.1,183.9L823.4,191.4L823.2,192.5L822.9,193.5L821.4,197.1L819.9,198.6L822.5,199.3L826.2,203.7L829.3,213.0L830.1,213.9L834.9,213.1L836.6,215.4L837.4,219.9L838.6,221.9L839.0,225.0L841.3,231.6L845.9,233.4L851.7,239.4L868.6,247.4L882.8,257.6L885.5,259.4L891.4,269.7L895.0,273.2L897.5,274.0L902.1,273.2L909.3,276.5L912.7,275.7L915.4,273.8L947.3,245.6L973.5,210.3L976.8,206.8L977.8,205.5L976.8,202.6L969.4,199.2L967.5,195.8L964.4,195.0L959.5,190.8L958.4,191.6L955.1,191.6L951.8,189.2L949.3,188.3L948.2,186.9L943.8,186.9L942.6,188.0L937.1,187.3L934.8,189.3L924.7,184.8L923.8,185.1L920.5,179.7L920.3,172.8L919.5,171.8L912.7,171.9L912.2,172.7L905.6,174.6L902.5,174.0L901.4,175.2L900.2,178.6L899.1,178.7L893.2,175.9L887.2,173.5L886.6,170.1L887.8,168.5Z " data-id="EC.PA" data-name="Pastaza" id="EC.PA"/>
utf-8utf-8<path d="M870.8,105.0L868.5,108.6L863.3,107.1L862.7,100.7L857.8,103.1L855.2,105.7L853.3,104.9L843.6,103.4L842.6,97.4L839.9,96.7L839.2,98.2L834.1,101.3L831.9,102.2L829.3,108.0L826.5,107.9L825.9,109.3L823.1,111.4L818.6,111.8L818.3,119.3L814.5,127.5L815.4,129.4L813.3,136.9L810.6,141.1L810.4,142.9L807.0,145.3L805.7,146.1L805.2,147.8L805.9,151.0L806.1,156.3L804.8,158.8L804.5,161.4L806.2,165.3L807.5,167.7L809.9,171.9L809.9,175.2L809.0,178.8L811.7,177.7L818.8,179.1L819.5,180.5L823.1,182.2L823.1,183.9L834.7,183.4L836.5,184.2L842.0,182.2L844.3,180.5L848.1,178.6L853.2,178.1L857.7,177.2L863.1,174.4L868.3,173.3L874.0,171.2L877.6,169.3L887.8,168.5L888.3,167.0L887.2,165.3L888.8,163.1L887.6,162.1L883.9,161.2L881.2,159.1L878.9,156.5L880.1,153.1L883.2,147.7L882.4,147.7L878.1,151.6L876.6,154.9L873.1,157.2L863.5,162.5L859.3,164.3L855.6,163.7L857.3,160.7L858.7,156.9L859.6,149.4L860.4,148.1L857.4,141.1L853.0,137.0L856.4,132.5L856.6,130.6L863.4,133.9L866.7,133.1L868.7,128.7L870.8,127.7L871.0,125.6L874.3,123.1L875.2,119.2L872.5,111.3L873.0,107.8L872.4,102.9L870.8,105.0Z " data-id="EC.TU" data-name="Tungurahua" id="EC.TU"/>
utf-8utf-8<path d="M775.5,11.2L775.4,4.1L770.6,8.7L770.7,12.6L772.0,13.7L774.7,13.0L775.5,11.2Z M708.0,75.1L709.5,79.3L712.5,80.8L715.1,76.8L717.1,76.9L721.1,75.5L725.2,73.3L726.4,74.6L725.6,76.5L728.5,82.0L726.3,86.3L728.7,86.8L729.3,88.8L734.2,91.1L731.2,95.8L731.5,98.0L732.6,99.8L733.8,99.7L738.8,100.6L742.5,102.3L741.4,98.9L746.3,96.4L746.7,95.6L747.9,92.3L750.3,86.5L747.6,83.8L755.4,77.1L760.0,77.0L767.2,79.1L768.2,80.4L769.3,80.5L776.3,70.5L778.9,69.5L787.8,72.7L791.6,70.9L797.0,63.4L798.9,61.8L803.6,60.9L803.5,57.3L801.9,55.0L798.8,47.1L799.4,45.7L802.5,44.5L802.9,41.4L803.1,38.8L802.7,38.6L797.6,33.7L797.5,32.4L800.0,23.0L799.9,18.6L801.1,17.0L800.6,16.7L795.5,16.4L793.0,11.6L789.8,11.6L788.6,10.5L786.5,6.4L783.5,2.8L779.8,0.8L779.7,3.7L777.4,6.2L777.0,8.9L780.3,9.8L780.8,10.8L777.2,10.0L773.7,13.2L772.1,15.6L771.8,18.7L770.9,21.0L769.7,21.7L768.5,16.7L767.3,15.5L764.9,15.5L760.3,22.4L755.8,24.1L749.5,24.0L747.0,24.9L742.7,24.6L741.4,24.9L737.2,29.2L734.3,31.1L731.7,30.2L729.9,33.2L729.6,36.3L728.3,35.3L729.2,29.7L727.6,31.0L722.5,33.0L720.8,35.3L714.7,38.8L711.4,40.0L705.4,41.0L703.5,42.6L702.2,45.1L701.5,48.0L702.0,53.1L707.0,60.4L705.2,65.9L705.8,68.6L708.4,74.3L708.0,75.1Z " data-id="EC.ES" data-name="Esmeraldas" id="EC.ES"/>
utf-8utf-8<path d="M857.7,53.6L855.5,52.6L851.5,49.5L850.2,47.3L849.8,42.4L848.0,40.8L846.5,40.7L840.4,43.1L833.7,38.7L829.6,37.0L825.2,36.8L822.7,35.4L814.8,28.6L807.4,24.9L801.7,17.6L801.1,17.0L799.9,18.6L800.0,23.0L797.5,32.4L797.6,33.7L802.7,38.6L803.1,38.8L803.9,39.2L807.3,39.9L812.3,43.6L819.6,54.0L820.8,58.0L821.8,64.0L825.3,65.5L829.8,66.6L832.5,68.3L839.6,74.2L841.1,75.1L842.4,73.3L842.6,69.8L847.7,61.9L851.2,58.6L849.9,56.7L851.3,54.7L856.0,55.8L859.5,53.3L857.7,53.6Z " data-id="EC.CR" data-name="Carchi" id="EC.CR"/>
utf-8utf-8<path d="M839.6,74.2L832.5,68.3L829.8,66.6L825.3,65.5L821.8,64.0L820.8,58.0L819.6,54.0L812.3,43.6L807.3,39.9L803.9,39.2L803.1,38.8L802.9,41.4L802.5,44.5L799.4,45.7L798.8,47.1L801.9,55.0L803.5,57.3L803.6,60.9L798.9,61.8L797.0,63.4L791.6,70.9L787.8,72.7L778.9,69.5L776.3,70.5L769.3,80.5L768.2,80.4L769.2,83.1L774.7,83.9L777.1,83.0L783.8,82.6L790.0,84.0L796.0,83.2L801.3,82.2L807.2,82.6L807.8,87.3L809.6,85.8L814.2,89.1L819.1,89.2L821.8,87.8L825.0,85.2L826.1,85.3L833.1,87.8L835.2,85.2L839.8,80.1L839.7,79.8L839.1,77.8L841.1,75.1L839.6,74.2Z " data-id="EC.IM" data-name="Imbabura" id="EC.IM"/>
utf-8utf-8<path d="M859.5,53.3L856.0,55.8L851.3,54.7L849.9,56.7L851.2,58.6L847.7,61.9L842.6,69.8L842.4,73.3L841.1,75.1L839.1,77.8L839.7,79.8L839.8,80.1L835.2,85.2L833.1,87.8L831.5,90.6L837.1,93.2L839.2,96.4L839.9,96.7L842.6,97.4L843.6,103.4L853.3,104.9L855.2,105.7L857.8,103.1L862.7,100.7L863.3,107.1L868.5,108.6L870.8,105.0L872.4,102.9L873.3,102.1L879.3,105.3L881.7,104.6L887.6,106.0L894.0,103.4L894.8,103.7L902.9,114.4L904.8,116.3L912.2,125.9L913.7,128.2L916.5,126.8L917.8,128.8L922.2,132.2L924.6,132.1L926.6,134.1L934.3,129.6L939.6,128.9L945.3,129.3L946.5,133.0L952.0,137.0L955.5,137.6L954.6,129.9L955.5,127.6L958.5,127.4L963.5,128.6L966.9,128.0L969.2,130.5L972.6,130.2L977.5,133.0L979.5,136.3L985.1,136.9L987.0,137.8L989.2,140.4L994.6,141.7L996.3,143.2L996.9,142.5L996.9,137.6L995.7,135.0L991.6,131.8L989.6,131.1L986.0,126.7L984.9,123.7L982.9,116.0L973.3,107.8L973.6,106.6L980.4,107.4L984.7,110.0L986.3,110.2L988.4,108.9L990.5,109.2L994.4,107.3L990.2,103.9L986.8,103.2L980.6,99.2L974.3,93.4L973.0,93.0L964.3,93.1L954.5,84.8L953.2,81.5L949.2,75.7L946.9,74.0L945.4,74.6L943.6,72.3L939.3,71.2L935.6,69.4L933.9,67.4L930.8,68.8L929.3,70.8L926.2,71.2L926.1,76.8L926.7,81.3L925.6,82.1L919.6,82.9L917.1,84.0L912.5,80.8L906.7,80.1L906.8,82.8L903.0,81.6L898.7,82.4L895.9,81.1L894.6,79.6L892.2,78.5L887.9,77.8L885.6,74.8L882.5,74.5L875.1,74.5L868.6,73.0L864.8,70.7L863.4,64.6L863.1,57.4L862.3,54.0L859.8,53.3L859.5,53.3Z " data-id="EC.SU" data-name="Sucumbios" id="EC.SU"/>
utf-8utf-8<path d="M676.3,225.4L675.0,221.6L675.7,220.4L674.5,213.8L670.8,213.0L667.5,214.1L659.0,214.5L659.4,215.5L661.3,218.6L664.5,230.1L664.7,231.9L662.8,235.0L664.4,239.8L664.0,243.9L661.9,246.6L659.5,247.9L656.5,250.8L652.8,251.7L650.6,249.3L648.4,250.1L650.7,252.2L653.1,255.8L653.5,258.1L664.0,263.8L666.0,263.7L669.8,265.4L674.9,270.7L676.9,273.3L681.2,268.5L684.7,265.5L689.9,264.1L692.9,262.1L695.5,257.4L696.3,250.4L696.3,244.4L693.9,240.2L691.7,238.0L688.0,235.5L683.2,234.2L680.0,232.0L678.2,228.8L677.6,225.8L676.3,225.4Z " data-id="EC.SE" data-name="Santa Elena" id="EC.SE"/>
utf-8utf-8<path d="M775.5,119.4L783.2,118.5L784.4,113.7L781.3,109.8L775.5,106.3L773.5,104.1L762.7,104.5L762.3,98.9L750.0,98.4L746.7,95.6L746.3,96.4L741.4,98.9L742.5,102.3L738.8,100.6L733.8,99.7L732.6,99.8L732.1,100.4L732.4,103.8L735.0,105.7L738.6,110.0L743.5,111.2L743.8,111.8L744.1,125.3L743.5,127.4L741.6,130.8L740.7,134.9L739.7,136.4L741.5,136.5L748.1,137.1L747.2,143.5L748.2,146.4L750.5,146.8L760.9,137.2L762.5,136.5L763.6,136.9L764.6,138.5L766.7,138.9L767.4,136.9L769.5,135.5L769.1,134.1L767.0,132.3L769.3,127.3L772.0,123.7L773.3,122.8L773.6,122.7L775.5,119.4Z " data-id="EC.SD" data-name="Santo Domingo de los Tsáchilas" id="EC.SD"/>
utf-8</g>
</svg>
