<?xml version="1.0" ?>
<!DOCTYPE svg
  PUBLIC '-//W3C//DTD SVG 1.1//EN'
  'http://www.w3.org/Graphics/SVG/1.1/DTD/svg11.dtd'>
<svg enable_background="new 0 0 1000 455" height="455px" pretty_print="True" style="stroke-linejoin: round; stroke:#000; fill: none;" version="1.1" viewBox="0 0 1000 455" width="1000px" xmlns="http://www.w3.org/2000/svg" xmlns:xlink="http://www.w3.org/1999/xlink">
utf-8<defs>
utf-8utf-8<style type="text/css">
<![CDATA[path { fill-rule: evenodd; }]]>utf-8utf-8</style>
utf-8</defs>
utf-8<metadata>
utf-8utf-8<views>
utf-8utf-8utf-8<view h="455.38629592" padding="0" w="1000">
utf-8utf-8utf-8utf-8<proj flip="auto" id="robinson" lon0="24.9996132443"/>
utf-8utf-8utf-8utf-8<bbox h="33.42" w="73.54" x="261.86" y="-988.34"/>
utf-8utf-8utf-8</view>
utf-8utf-8</views>
utf-8</metadata>
utf-8<g class="" id="provinces">
utf-8utf-8<path d="M404.1,25.7L404.9,23.6L400.8,18.2L397.9,15.2L395.5,15.6L394.0,19.3L395.0,23.2L399.9,26.5L404.1,25.7Z M282.5,91.9L285.7,95.1L291.2,97.2L293.5,99.2L297.0,103.6L299.0,104.7L304.2,105.7L310.5,108.2L316.8,112.9L335.0,111.7L343.7,114.0L351.1,118.0L353.3,124.2L357.2,126.8L357.8,129.0L352.5,135.4L351.0,138.3L350.8,140.3L351.7,142.3L353.8,143.7L358.0,141.3L360.7,136.4L362.8,135.7L366.4,135.6L371.8,136.6L382.8,137.3L385.5,132.9L392.6,123.6L393.9,122.4L410.9,119.6L423.0,120.4L424.5,120.2L425.1,117.3L421.3,112.2L423.1,109.8L423.2,105.6L431.0,97.5L435.9,95.0L454.2,96.6L457.6,95.0L468.2,92.9L474.3,93.1L474.3,98.0L476.2,101.9L479.4,103.7L485.8,109.7L490.0,111.6L501.1,114.1L504.0,117.5L514.0,120.9L520.2,120.7L525.2,123.5L528.5,131.2L532.3,134.4L537.7,136.7L543.5,139.8L550.6,142.1L562.1,137.1L562.1,132.1L560.7,127.7L560.7,125.8L562.1,124.7L565.9,124.8L571.0,125.5L572.7,124.7L574.4,122.5L574.0,120.4L571.0,118.3L567.6,112.8L570.7,105.4L573.0,101.7L574.0,96.1L572.2,91.8L570.0,89.3L567.6,85.2L572.9,84.3L584.1,83.4L590.8,85.8L596.0,85.9L595.8,83.3L616.4,79.2L624.5,79.7L637.6,82.5L640.2,80.7L639.7,77.7L634.5,67.2L629.5,60.7L627.0,54.2L627.0,52.8L625.6,50.0L620.4,47.6L618.1,44.9L615.4,36.4L610.2,31.2L609.7,28.9L612.7,25.4L611.5,19.7L609.9,20.0L606.6,18.9L604.0,16.6L601.7,11.6L599.3,8.9L600.2,7.4L590.1,1.1L585.0,0.0L581.7,3.2L585.2,4.5L585.0,8.8L587.2,11.5L590.1,13.9L592.0,17.4L590.7,21.2L586.2,21.9L580.7,20.7L576.8,18.9L571.0,13.6L567.8,11.3L564.2,10.3L560.9,8.8L554.4,1.8L551.2,0.2L550.9,4.0L553.0,12.5L557.0,20.9L562.3,24.7L565.9,28.4L564.3,29.0L549.3,29.0L545.6,30.1L543.9,32.7L510.0,31.0L501.6,27.5L497.8,27.5L495.9,29.7L498.2,35.1L495.4,36.2L492.0,35.5L484.8,32.5L480.9,31.9L468.7,34.0L464.5,33.3L452.0,24.3L445.2,21.0L440.7,23.2L441.6,24.8L443.9,31.6L448.2,34.7L450.3,37.9L450.1,39.1L444.8,46.2L440.3,46.8L437.3,44.4L434.6,40.8L431.1,37.6L427.3,36.5L426.1,37.4L425.6,41.6L424.0,42.2L419.7,41.9L420.0,43.4L423.1,44.3L426.1,46.2L427.0,48.1L424.3,49.0L421.3,48.5L411.3,44.1L408.1,43.5L403.6,46.5L400.7,47.5L397.3,46.5L390.7,42.0L387.3,40.4L383.5,40.1L373.2,41.9L372.1,50.2L370.7,52.6L365.3,54.1L351.1,54.8L348.2,56.2L352.5,58.6L357.4,62.4L359.4,66.0L355.1,67.6L350.2,66.2L340.0,59.8L335.1,57.6L332.2,57.2L329.9,57.7L328.0,59.0L326.3,61.2L326.2,63.5L328.0,65.5L340.0,74.9L341.9,78.7L339.6,83.6L332.0,79.0L323.9,79.5L315.8,81.6L308.3,82.0L301.1,80.8L286.8,81.0L283.5,82.2L282.1,84.9L284.3,86.0L285.8,88.0L286.1,90.3L284.5,92.1L282.5,91.9L282.5,91.9Z " data-id="EE.HA" data-name="Harju" id="EE.HA"/>
utf-8utf-8<path d="M766.7,35.2L765.1,39.9L769.5,46.2L770.7,48.4L771.1,50.8L772.8,55.7L771.8,56.9L766.7,54.6L764.2,56.8L765.8,61.0L761.0,64.2L762.6,66.7L773.8,67.6L776.1,69.1L775.1,71.8L770.1,80.9L770.1,85.7L772.6,88.1L776.1,89.4L786.7,87.0L789.5,92.5L791.0,94.4L794.3,96.5L796.7,97.2L801.6,97.4L804.6,99.6L804.4,105.7L806.8,109.0L805.1,110.6L796.6,111.4L786.7,115.9L785.7,117.0L785.9,120.1L788.2,132.0L790.7,134.9L787.9,139.0L787.0,144.6L786.0,145.3L781.3,146.6L776.0,149.7L780.7,152.7L782.8,156.5L785.7,164.2L786.9,165.3L794.2,164.8L798.3,163.4L806.0,163.5L810.4,165.2L814.3,168.0L821.3,168.7L821.7,166.4L823.2,162.4L827.3,156.6L831.9,152.2L837.2,148.9L868.8,140.1L908.7,137.0L938.4,141.3L939.1,137.4L944.3,128.7L946.2,124.3L952.1,106.6L953.9,90.8L955.8,86.3L953.7,82.6L956.5,79.5L964.9,76.1L983.8,76.4L986.4,73.5L982.8,73.6L970.4,70.5L975.2,68.7L988.1,68.0L994.4,64.1L998.8,65.8L998.7,61.9L987.9,54.7L982.8,48.4L978.9,46.0L971.1,43.5L967.2,39.5L962.9,46.8L958.9,50.7L953.2,53.6L946.8,55.0L920.8,51.0L895.7,49.9L870.0,45.8L848.6,46.8L823.2,47.8L794.1,46.2L790.6,45.3L783.4,42.5L775.1,40.5L766.7,35.2Z " data-id="EE.IV" data-name="Ida-Viru" id="EE.IV"/>
utf-8utf-8<path d="M624.5,79.7L616.4,79.2L595.8,83.3L596.0,85.9L590.8,85.8L584.1,83.4L572.9,84.3L567.6,85.2L570.0,89.3L572.2,91.8L574.0,96.1L573.0,101.7L570.7,105.4L567.6,112.8L571.0,118.3L574.0,120.4L574.4,122.5L572.7,124.7L571.0,125.5L565.9,124.8L562.1,124.7L560.7,125.8L560.7,127.7L562.1,132.1L562.1,137.1L550.6,142.1L545.8,146.1L545.7,146.8L548.8,149.6L550.0,156.2L549.1,157.5L543.7,160.1L541.5,165.8L545.5,168.4L548.8,171.1L544.5,180.3L538.9,182.0L542.5,188.0L543.4,192.3L541.1,198.1L546.9,199.3L552.2,199.6L556.8,201.9L557.0,203.0L555.5,206.8L555.4,209.5L554.1,217.5L562.1,219.7L566.0,220.2L569.5,221.3L584.0,221.6L589.4,220.6L594.8,217.5L599.9,218.2L602.3,215.7L612.3,213.2L618.0,210.5L629.4,207.7L636.2,205.6L636.6,202.4L640.7,199.0L642.5,194.7L643.5,193.5L646.7,192.2L651.1,189.3L654.3,188.8L657.8,190.5L662.0,188.0L662.1,180.2L663.7,179.0L667.6,178.1L671.9,175.8L685.2,175.0L685.8,166.5L689.7,164.1L689.7,161.8L690.1,155.6L688.4,151.3L683.0,144.4L679.4,142.3L673.8,137.6L670.4,136.8L665.3,131.0L662.9,130.2L659.3,129.9L652.7,128.2L648.4,128.5L646.2,126.9L647.0,122.9L646.5,119.0L651.1,115.0L652.5,112.0L656.1,107.7L656.4,103.0L650.3,101.6L645.8,99.4L644.9,97.8L645.6,95.5L640.0,89.6L637.3,87.9L637.2,86.5L638.5,83.3L637.6,82.5L624.5,79.7Z " data-id="EE.JR" data-name="Järva" id="EE.JR"/>
utf-8utf-8<path d="M771.8,149.5L762.1,152.1L756.1,154.4L753.6,154.8L750.2,154.5L748.2,153.5L744.6,153.3L737.6,157.2L737.7,162.5L731.4,164.5L722.2,162.3L717.1,158.1L714.5,157.6L711.4,158.1L702.5,161.8L689.7,164.1L685.8,166.5L685.2,175.0L671.9,175.8L667.6,178.1L663.7,179.0L662.1,180.2L662.0,188.0L657.8,190.5L654.3,188.8L651.1,189.3L646.7,192.2L643.5,193.5L642.5,194.7L640.7,199.0L636.6,202.4L636.2,205.6L637.8,207.2L639.1,212.5L640.7,215.3L639.9,218.0L634.6,221.7L636.7,223.7L641.7,223.6L645.2,224.1L647.9,223.8L662.5,225.2L667.1,227.4L670.3,231.6L672.4,233.1L674.5,233.5L679.7,233.6L683.8,238.4L689.7,242.7L701.8,248.8L707.4,247.4L712.2,247.6L718.2,246.0L731.2,238.9L734.1,238.1L736.5,238.4L740.8,241.7L742.4,241.2L745.5,238.4L749.6,237.8L755.6,238.5L760.9,236.9L766.9,239.1L773.3,240.6L779.4,240.9L782.2,238.6L783.8,233.8L789.1,233.3L795.1,235.0L809.4,232.6L813.1,226.3L814.8,217.5L819.7,218.2L828.2,222.4L834.5,223.1L836.7,223.8L840.6,224.0L840.9,221.9L838.6,216.1L844.3,212.4L846.6,210.4L850.2,208.5L858.2,207.1L849.3,197.7L844.8,194.2L828.2,187.0L823.4,183.3L821.0,178.3L820.7,172.3L821.3,168.7L814.3,168.0L810.4,165.2L806.0,163.5L798.3,163.4L794.2,164.8L786.9,165.3L785.7,164.2L782.8,156.5L780.7,152.7L776.0,149.7L771.8,149.5Z " data-id="EE.JN" data-name="Jõgeva" id="EE.JN"/>
utf-8utf-8<path d="M766.7,35.2L759.0,30.3L752.4,27.1L746.0,24.9L739.5,23.6L732.7,23.2L730.5,23.8L725.6,26.8L723.1,27.5L719.5,27.4L712.8,26.1L703.1,22.5L692.9,21.0L685.8,18.1L682.5,17.5L652.1,17.8L650.6,17.5L648.7,13.9L641.9,10.0L635.9,8.0L633.7,7.6L632.0,8.3L630.3,10.3L631.4,15.4L628.2,15.9L624.9,13.7L620.6,9.8L616.8,8.3L615.5,13.2L616.9,14.6L615.1,17.7L611.6,19.7L611.5,19.7L612.7,25.4L609.7,28.9L610.2,31.2L615.4,36.4L618.1,44.9L620.4,47.6L625.6,50.0L627.0,52.8L627.0,54.2L629.5,60.7L634.5,67.2L639.7,77.7L640.2,80.7L637.6,82.5L638.5,83.3L637.2,86.5L637.3,87.9L640.0,89.6L645.6,95.5L644.9,97.8L645.8,99.4L650.3,101.6L656.4,103.0L656.1,107.7L652.5,112.0L651.1,115.0L646.5,119.0L647.0,122.9L646.2,126.9L648.4,128.5L652.7,128.2L659.3,129.9L662.9,130.2L665.3,131.0L670.4,136.8L673.8,137.6L679.4,142.3L683.0,144.4L688.4,151.3L690.1,155.6L689.7,161.8L689.7,164.1L702.5,161.8L711.4,158.1L714.5,157.6L717.1,158.1L722.2,162.3L731.4,164.5L737.7,162.5L737.6,157.2L744.6,153.3L748.2,153.5L750.2,154.5L753.6,154.8L756.1,154.4L762.1,152.1L771.8,149.5L776.0,149.7L781.3,146.6L786.0,145.3L787.0,144.6L787.9,139.0L790.7,134.9L788.2,132.0L785.9,120.1L785.7,117.0L786.7,115.9L796.6,111.4L805.1,110.6L806.8,109.0L804.4,105.7L804.6,99.6L801.6,97.4L796.7,97.2L794.3,96.5L791.0,94.4L789.5,92.5L786.7,87.0L776.1,89.4L772.6,88.1L770.1,85.7L770.1,80.9L775.1,71.8L776.1,69.1L773.8,67.6L762.6,66.7L761.0,64.2L765.8,61.0L764.2,56.8L766.7,54.6L771.8,56.9L772.8,55.7L771.1,50.8L770.7,48.4L769.5,46.2L765.1,39.9L766.7,35.2L766.7,35.2Z " data-id="EE.LV" data-name="Lääne-Viru" id="EE.LV"/>
utf-8utf-8<path d="M933.6,272.1L930.3,269.4L925.1,267.8L923.2,270.5L928.5,272.5L931.0,272.8L933.6,272.1Z M858.2,207.1L850.2,208.5L846.6,210.4L844.3,212.4L838.6,216.1L840.9,221.9L840.6,224.0L836.7,223.8L834.5,223.1L828.2,222.4L819.7,218.2L814.8,217.5L813.1,226.3L809.4,232.6L795.1,235.0L789.1,233.3L783.8,233.8L782.2,238.6L779.4,240.9L773.3,240.6L766.9,239.1L760.9,236.9L755.6,238.5L749.6,237.8L745.5,238.4L742.4,241.2L740.8,241.7L736.5,238.4L734.1,238.1L731.2,238.9L718.2,246.0L712.2,247.6L707.4,247.4L701.8,248.8L709.8,262.3L710.1,263.9L701.1,274.7L696.8,281.5L693.8,287.7L697.8,303.8L705.8,324.0L733.4,325.5L739.7,322.6L742.2,322.0L744.8,320.3L750.3,315.0L754.1,314.0L761.7,319.5L768.4,317.6L777.4,315.6L780.8,317.2L788.1,321.3L791.5,324.9L795.8,323.4L797.8,320.7L796.2,314.1L799.4,314.8L804.0,311.6L807.1,310.9L809.7,313.4L814.6,313.5L824.3,311.1L828.3,308.0L829.0,304.5L830.9,300.9L832.6,299.8L837.4,300.0L844.6,299.1L849.5,302.1L852.7,301.9L855.8,296.3L859.3,295.8L864.3,297.9L867.7,298.2L869.6,297.7L871.7,295.5L877.8,297.9L892.2,297.8L895.6,300.0L897.1,303.8L900.5,305.3L905.5,305.5L908.0,305.0L933.0,310.4L933.4,310.4L930.7,306.6L928.4,297.9L917.8,289.4L918.5,287.0L915.1,280.8L914.3,276.3L915.9,272.8L911.8,270.0L899.6,265.8L892.5,265.6L888.6,264.8L884.2,261.5L882.1,257.0L880.6,246.7L879.1,241.2L870.2,222.5L862.2,211.2L858.2,207.1Z " data-id="EE.TA" data-name="Tartu" id="EE.TA"/>
utf-8utf-8<path d="M128.7,138.0L125.1,135.2L123.0,131.8L125.7,125.9L122.5,123.8L117.5,122.6L106.1,121.7L104.5,122.2L103.4,124.0L103.4,129.4L101.6,132.4L99.5,134.1L96.8,134.9L93.2,135.1L90.8,137.0L92.1,144.4L90.2,144.5L86.4,143.1L84.5,143.7L84.9,145.1L88.3,146.6L41.2,150.9L29.1,149.7L22.9,150.4L21.7,153.8L24.9,156.0L47.6,164.0L52.9,164.3L63.1,162.5L68.4,162.2L73.4,163.1L78.2,165.2L86.9,171.4L88.9,173.8L89.8,176.7L90.6,181.8L92.3,185.2L95.5,189.5L99.1,193.3L101.7,195.6L96.9,200.0L103.9,204.6L112.9,206.2L121.8,205.5L128.5,202.9L132.0,198.4L135.6,186.2L138.3,181.1L140.6,179.3L144.3,177.3L148.1,176.1L150.9,176.2L152.5,178.4L146.9,181.9L145.5,184.1L147.8,186.4L152.3,187.5L156.9,187.4L163.2,184.5L162.5,180.0L159.0,178.2L160.6,175.6L165.8,175.0L168.4,174.0L170.7,175.3L172.6,172.5L176.1,173.2L183.3,176.3L185.6,176.1L186.4,173.9L185.5,169.6L182.5,169.0L180.5,163.2L173.9,157.7L170.1,155.8L168.4,153.8L167.7,152.0L168.0,148.7L167.2,146.6L164.2,143.8L147.7,138.6L131.5,139.4L128.7,138.0Z " data-id="EE.HI" data-name="Hiiu" id="EE.HI"/>
utf-8utf-8<path d="M206.5,131.2L200.3,130.8L194.2,131.9L192.4,133.4L192.1,135.9L199.3,145.9L203.7,147.1L209.4,146.1L211.1,143.8L214.6,144.4L220.5,146.6L223.8,146.6L230.0,143.8L235.8,145.6L237.4,144.5L238.3,141.2L237.2,138.9L232.3,134.4L228.7,132.2L225.1,132.3L218.2,133.7L206.5,131.2Z M282.0,91.9L272.5,86.3L269.2,86.5L265.5,89.8L262.0,91.0L258.7,93.4L251.4,92.1L243.2,96.0L247.0,103.9L254.1,114.2L255.7,125.1L252.5,122.5L250.7,121.9L249.2,122.9L242.8,128.7L242.3,131.3L244.1,135.1L239.6,135.1L244.7,139.7L249.3,142.1L260.1,143.8L263.4,146.8L265.0,146.6L265.3,142.3L268.2,139.4L273.5,138.1L271.0,135.3L265.6,132.1L263.2,129.4L267.3,131.1L271.3,133.6L274.5,137.2L276.4,142.3L275.4,147.2L270.7,150.2L267.9,150.9L265.0,150.8L262.0,149.5L259.0,152.7L248.2,152.2L245.2,155.4L246.0,159.6L252.2,165.0L254.2,169.0L265.9,178.3L265.0,179.8L259.7,180.4L256.9,182.3L252.2,189.8L260.8,187.2L263.9,186.8L269.2,187.8L272.7,185.4L275.7,184.1L279.3,183.5L291.3,184.1L298.0,182.6L301.3,182.9L304.7,185.5L308.5,182.2L313.6,182.5L319.2,184.9L324.1,188.4L321.0,188.1L314.2,185.7L311.5,185.5L309.5,187.1L308.9,189.5L309.9,191.7L313.7,193.4L313.9,197.0L308.9,197.0L306.2,196.4L299.4,193.6L296.1,192.7L290.0,193.2L284.2,194.8L278.3,195.5L271.7,193.4L269.6,193.5L269.1,195.9L270.0,198.7L272.9,200.5L271.6,202.9L268.1,202.1L266.7,202.3L265.6,204.2L265.7,209.1L267.9,214.6L270.6,219.8L272.2,223.7L270.0,230.3L270.9,232.4L273.6,234.0L277.6,228.7L279.9,228.0L283.0,234.6L285.0,236.1L285.3,236.3L293.0,233.9L295.5,233.7L311.5,235.3L323.6,233.1L336.4,233.8L335.4,231.6L329.3,227.4L326.7,218.1L328.8,217.5L333.4,219.2L336.1,219.2L338.7,218.1L341.5,214.7L342.3,209.2L343.5,208.7L349.1,209.7L351.7,209.6L357.5,206.9L361.6,205.9L368.7,203.2L370.8,197.6L368.4,194.6L360.9,194.6L357.8,193.8L356.7,192.7L357.1,190.6L362.7,188.8L363.6,187.4L369.8,183.6L367.1,181.8L365.9,178.3L366.9,177.1L371.0,175.7L372.4,174.7L372.2,173.1L368.1,168.9L360.0,157.9L352.5,150.9L351.3,147.8L353.8,143.7L351.7,142.3L350.8,140.3L351.0,138.3L352.5,135.4L357.8,129.0L357.2,126.8L353.3,124.2L351.1,118.0L343.7,114.0L335.0,111.7L316.8,112.9L310.5,108.2L304.2,105.7L299.0,104.7L297.0,103.6L293.5,99.2L291.2,97.2L285.7,95.1L282.5,91.9L282.0,91.9Z " data-id="EE.LN" data-name="Lääne" id="EE.LN"/>
utf-8utf-8<path d="M368.6,328.1L371.0,323.6L368.8,318.6L363.9,317.8L359.4,318.9L357.0,322.0L358.8,327.1L363.7,330.0L368.6,328.1Z M368.7,203.2L361.6,205.9L357.5,206.9L351.7,209.6L349.1,209.7L343.5,208.7L342.3,209.2L341.5,214.7L338.7,218.1L336.1,219.2L333.4,219.2L328.8,217.5L326.7,218.1L329.3,227.4L335.4,231.6L336.4,233.8L323.6,233.1L311.5,235.3L295.5,233.7L293.0,233.9L285.3,236.3L288.4,238.0L291.8,239.4L293.8,239.6L298.3,237.9L301.2,240.5L302.9,245.6L303.8,251.9L304.0,259.2L305.5,261.9L312.0,266.7L316.3,276.8L319.0,279.4L323.1,276.1L328.1,277.9L330.8,276.2L332.3,276.3L336.3,279.3L339.5,280.3L346.1,280.7L357.5,283.8L362.5,287.6L370.8,292.3L376.7,298.0L378.7,299.3L381.7,300.1L383.0,299.2L385.2,294.4L387.6,292.6L390.6,292.6L396.8,293.7L399.6,293.1L401.8,291.8L403.5,289.9L407.5,283.8L407.6,276.1L408.6,273.3L411.5,269.1L416.9,267.2L423.7,267.6L430.7,269.5L445.8,277.0L450.0,280.6L452.3,285.1L451.2,289.9L447.3,292.7L442.8,294.9L440.0,298.0L440.6,305.0L439.3,309.5L439.7,311.9L443.8,318.3L443.6,325.5L445.3,335.7L443.1,339.5L436.3,346.1L434.9,354.4L429.4,367.6L429.1,374.9L426.8,378.8L434.3,380.8L438.9,380.7L442.5,379.2L443.9,377.1L445.8,372.0L447.5,370.4L453.6,368.0L461.3,362.6L464.5,362.1L476.1,362.8L485.9,362.1L488.2,360.7L490.2,354.8L492.2,352.6L497.5,353.5L502.1,355.4L506.4,355.9L511.0,352.6L514.7,350.9L527.0,349.6L530.8,347.6L539.4,340.7L534.0,331.7L535.0,330.5L539.2,328.1L540.7,324.5L549.2,324.4L549.2,322.9L544.9,319.9L545.3,317.6L547.3,316.0L552.0,317.0L552.6,316.3L550.9,311.1L552.9,308.4L561.5,307.0L563.6,307.9L566.1,307.8L564.0,297.6L566.5,295.3L565.4,293.3L563.2,291.9L552.8,287.7L545.7,283.7L543.3,282.9L530.0,281.2L526.7,280.4L522.2,283.8L515.8,280.0L517.0,273.5L517.3,269.0L515.9,264.3L516.2,261.7L520.5,259.3L519.5,254.2L516.4,246.8L521.7,242.3L532.0,238.7L538.2,235.3L541.8,231.2L543.8,229.6L549.9,228.0L551.5,227.0L549.1,220.4L550.1,219.0L554.1,217.5L555.4,209.5L555.5,206.8L557.0,203.0L556.8,201.9L552.2,199.6L546.9,199.3L541.1,198.1L535.0,199.1L529.9,199.2L518.7,197.5L518.2,199.6L510.2,199.9L505.0,203.2L500.2,208.4L497.0,209.3L492.7,199.3L491.6,195.9L488.3,193.7L484.3,193.0L481.3,193.1L477.4,194.3L473.3,194.8L462.9,192.9L457.4,192.7L452.5,198.4L445.7,199.6L440.6,201.0L438.4,201.1L436.4,199.6L435.5,196.4L431.1,195.8L426.1,197.4L421.6,200.5L420.0,202.9L419.4,205.5L415.3,208.3L407.2,209.7L394.3,208.5L373.8,205.9L368.7,203.2Z " data-id="EE.PR" data-name="Pärnu" id="EE.PR"/>
utf-8utf-8<path d="M791.5,324.9L788.6,327.4L786.6,334.9L788.4,343.0L788.6,346.7L787.7,349.4L789.1,360.3L795.7,362.1L805.2,364.0L809.2,363.7L812.8,362.7L821.8,364.0L827.2,365.7L841.4,364.9L845.1,365.6L853.1,363.5L872.2,368.3L873.4,367.5L871.6,362.5L873.7,361.0L879.8,360.0L894.1,366.3L903.9,369.5L908.1,370.0L910.6,368.2L911.8,368.4L914.7,370.7L915.8,373.8L910.9,377.2L909.7,379.3L909.2,382.0L910.0,383.2L913.8,383.1L918.1,386.6L921.9,387.0L927.7,384.8L933.3,383.9L942.5,385.1L959.2,389.5L961.1,390.5L984.2,388.0L993.9,385.1L997.4,383.2L998.9,380.3L996.7,376.1L993.6,374.1L976.1,369.4L974.6,368.2L973.1,365.2L974.2,357.8L972.2,352.7L968.9,351.0L966.4,352.4L964.7,358.7L961.6,354.2L959.3,349.1L957.7,343.9L956.6,339.3L956.2,334.2L955.3,332.1L949.8,330.4L947.8,328.3L944.4,322.5L933.6,310.7L933.4,310.4L933.0,310.4L908.0,305.0L905.5,305.5L900.5,305.3L897.1,303.8L895.6,300.0L892.2,297.8L877.8,297.9L871.7,295.5L869.6,297.7L867.7,298.2L864.3,297.9L859.3,295.8L855.8,296.3L852.7,301.9L849.5,302.1L844.6,299.1L837.4,300.0L832.6,299.8L830.9,300.9L829.0,304.5L828.3,308.0L824.3,311.1L814.6,313.5L809.7,313.4L807.1,310.9L804.0,311.6L799.4,314.8L796.2,314.1L797.8,320.7L795.8,323.4L791.5,324.9Z " data-id="EE.PL" data-name="Põlva" id="EE.PL"/>
utf-8utf-8<path d="M543.5,139.8L537.7,136.7L532.3,134.4L528.5,131.2L525.2,123.5L520.2,120.7L514.0,120.9L504.0,117.5L501.1,114.1L490.0,111.6L485.8,109.7L479.4,103.7L476.2,101.9L474.3,98.0L474.3,93.1L468.2,92.9L457.6,95.0L454.2,96.6L435.9,95.0L431.0,97.5L423.2,105.6L423.1,109.8L421.3,112.2L425.1,117.3L424.5,120.2L423.0,120.4L410.9,119.6L393.9,122.4L392.6,123.6L385.5,132.9L382.8,137.3L371.8,136.6L366.4,135.6L362.8,135.7L360.7,136.4L358.0,141.3L353.8,143.7L351.3,147.8L352.5,150.9L360.0,157.9L368.1,168.9L372.2,173.1L372.4,174.7L371.0,175.7L366.9,177.1L365.9,178.3L367.1,181.8L369.8,183.6L363.6,187.4L362.7,188.8L357.1,190.6L356.7,192.7L357.8,193.8L360.9,194.6L368.4,194.6L370.8,197.6L368.7,203.2L373.8,205.9L394.3,208.5L407.2,209.7L415.3,208.3L419.4,205.5L420.0,202.9L421.6,200.5L426.1,197.4L431.1,195.8L435.5,196.4L436.4,199.6L438.4,201.1L440.6,201.0L445.7,199.6L452.5,198.4L457.4,192.7L462.9,192.9L473.3,194.8L477.4,194.3L481.3,193.1L484.3,193.0L488.3,193.7L491.6,195.9L492.7,199.3L497.0,209.3L500.2,208.4L505.0,203.2L510.2,199.9L518.2,199.6L518.7,197.5L529.9,199.2L535.0,199.1L541.1,198.1L543.4,192.3L542.5,188.0L538.9,182.0L544.5,180.3L548.8,171.1L545.5,168.4L541.5,165.8L543.7,160.1L549.1,157.5L550.0,156.2L548.8,149.6L545.7,146.8L545.8,146.1L550.6,142.1L543.5,139.8Z " data-id="EE.RA" data-name="Rapla" id="EE.RA"/>
utf-8utf-8<path d="M788.1,321.3L780.8,317.2L777.4,315.6L768.4,317.6L761.7,319.5L754.1,314.0L750.3,315.0L744.8,320.3L742.2,322.0L739.7,322.6L733.4,325.5L705.8,324.0L691.6,326.9L688.5,328.0L683.4,328.0L681.1,326.5L676.0,321.4L671.3,319.3L669.3,319.1L668.3,321.9L665.2,324.2L666.3,327.6L665.0,330.1L656.6,333.2L651.2,336.6L647.2,340.4L644.7,341.7L639.5,341.7L635.4,342.2L634.1,343.3L634.7,348.9L631.5,353.6L630.1,357.5L627.6,361.6L627.7,361.8L629.3,364.9L633.3,368.0L637.2,369.5L641.1,369.9L645.2,369.7L655.3,367.2L657.8,367.2L660.8,370.2L663.1,374.5L666.0,378.7L670.6,381.4L705.4,383.5L708.8,385.2L709.7,387.2L708.5,391.7L709.8,396.1L711.7,398.7L731.7,409.2L738.0,413.5L756.7,431.2L763.1,435.7L770.5,439.1L772.7,439.8L786.5,443.7L785.5,440.5L785.6,435.9L783.6,432.9L787.1,430.3L788.5,426.8L784.4,424.2L781.6,421.5L784.1,417.8L786.9,415.7L786.8,412.6L782.4,410.2L780.9,408.8L778.8,403.9L782.1,401.0L782.5,398.1L780.3,395.0L775.5,393.9L770.7,391.3L768.8,383.7L770.2,379.6L768.2,377.3L763.4,376.6L763.1,374.7L765.4,371.0L765.8,368.3L765.5,363.6L770.7,362.3L789.1,360.3L787.7,349.4L788.6,346.7L788.4,343.0L786.6,334.9L788.6,327.4L791.5,324.9L788.1,321.3Z " data-id="EE.VG" data-name="Valga" id="EE.VG"/>
utf-8utf-8<path d="M689.7,242.7L683.8,238.4L679.7,233.6L674.5,233.5L672.4,233.1L670.3,231.6L667.1,227.4L662.5,225.2L647.9,223.8L645.2,224.1L641.7,223.6L636.7,223.7L634.6,221.7L639.9,218.0L640.7,215.3L639.1,212.5L637.8,207.2L636.2,205.6L629.4,207.7L618.0,210.5L612.3,213.2L602.3,215.7L599.9,218.2L594.8,217.5L589.4,220.6L584.0,221.6L569.5,221.3L566.0,220.2L562.1,219.7L554.1,217.5L550.1,219.0L549.1,220.4L551.5,227.0L549.9,228.0L543.8,229.6L541.8,231.2L538.2,235.3L532.0,238.7L521.7,242.3L516.4,246.8L519.5,254.2L520.5,259.3L516.2,261.7L515.9,264.3L517.3,269.0L517.0,273.5L515.8,280.0L522.2,283.8L526.7,280.4L530.0,281.2L543.3,282.9L545.7,283.7L552.8,287.7L563.2,291.9L565.4,293.3L566.5,295.3L564.0,297.6L566.1,307.8L563.6,307.9L561.5,307.0L552.9,308.4L550.9,311.1L552.6,316.3L552.0,317.0L547.3,316.0L545.3,317.6L544.9,319.9L549.2,322.9L549.2,324.4L540.7,324.5L539.2,328.1L535.0,330.5L534.0,331.7L539.4,340.7L541.4,339.1L544.7,337.5L548.4,336.8L556.1,336.6L560.6,338.6L563.7,342.9L566.1,348.1L568.9,352.7L571.5,354.1L574.1,354.1L579.0,352.2L581.7,349.3L580.0,345.9L574.4,340.2L574.0,336.5L575.8,335.1L578.8,335.5L582.1,337.1L587.3,343.6L588.9,344.3L592.5,343.6L599.5,346.1L610.9,354.3L617.8,357.2L623.8,358.1L627.2,360.4L627.6,361.6L630.1,357.5L631.5,353.6L634.7,348.9L634.1,343.3L635.4,342.2L639.5,341.7L644.7,341.7L647.2,340.4L651.2,336.6L656.6,333.2L665.0,330.1L666.3,327.6L665.2,324.2L668.3,321.9L669.3,319.1L671.3,319.3L676.0,321.4L681.1,326.5L683.4,328.0L688.5,328.0L691.6,326.9L705.8,324.0L697.8,303.8L693.8,287.7L696.8,281.5L701.1,274.7L710.1,263.9L709.8,262.3L701.8,248.8L689.7,242.7Z " data-id="EE.VD" data-name="Viljandi" id="EE.VD"/>
utf-8utf-8<path d="M961.1,390.5L959.2,389.5L942.5,385.1L933.3,383.9L927.7,384.8L921.9,387.0L918.1,386.6L913.8,383.1L910.0,383.2L909.2,382.0L909.7,379.3L910.9,377.2L915.8,373.8L914.7,370.7L911.8,368.4L910.6,368.2L908.1,370.0L903.9,369.5L894.1,366.3L879.8,360.0L873.7,361.0L871.6,362.5L873.4,367.5L872.2,368.3L853.1,363.5L845.1,365.6L841.4,364.9L827.2,365.7L821.8,364.0L812.8,362.7L809.2,363.7L805.2,364.0L795.7,362.1L789.1,360.3L770.7,362.3L765.5,363.6L765.8,368.3L765.4,371.0L763.1,374.7L763.4,376.6L768.2,377.3L770.2,379.6L768.8,383.7L770.7,391.3L775.5,393.9L780.3,395.0L782.5,398.1L782.1,401.0L778.8,403.9L780.9,408.8L782.4,410.2L786.8,412.6L786.9,415.7L784.1,417.8L781.6,421.5L784.4,424.2L788.5,426.8L787.1,430.3L783.6,432.9L785.6,435.9L785.5,440.5L786.5,443.7L786.5,443.7L789.6,445.5L796.1,451.0L799.6,453.4L802.1,453.1L806.1,450.8L812.7,453.0L814.3,452.4L815.9,448.2L820.2,445.2L825.1,443.0L830.4,441.8L843.2,442.2L846.0,441.6L849.0,439.5L851.5,433.5L853.6,430.8L856.4,429.8L860.8,432.4L863.4,432.7L869.0,432.3L874.9,433.7L879.2,435.8L886.4,442.2L890.3,444.9L894.4,446.3L907.7,446.8L934.3,453.3L939.2,450.9L933.5,441.8L932.9,439.1L934.0,437.3L940.0,436.0L941.3,434.1L940.8,429.7L938.0,421.5L938.5,419.8L941.7,416.7L954.7,413.4L957.1,411.3L956.8,408.6L953.8,402.6L953.9,399.0L955.2,397.2L957.2,395.9L961.4,394.3L956.1,391.7L958.1,390.8L961.1,390.5Z " data-id="EE.VR" data-name="Võru" id="EE.VR"/>
utf-8utf-8<path d="M260.1,396.3L260.4,393.5L259.4,391.6L253.8,388.5L251.2,388.2L250.9,393.0L253.2,395.0L256.8,396.5L260.1,396.3Z M130.0,226.8L124.9,223.3L121.1,218.4L119.1,217.2L114.0,218.3L101.0,226.0L78.3,227.7L73.4,231.0L73.3,235.1L74.1,240.9L73.1,245.1L68.2,244.5L65.6,243.3L61.9,235.8L58.9,235.9L56.0,241.0L54.2,242.7L49.2,244.6L47.3,246.0L46.0,248.2L45.6,250.6L45.6,256.2L47.2,261.1L43.9,261.6L43.1,260.9L40.6,254.7L32.1,245.7L27.6,242.9L22.7,241.8L16.5,241.7L12.8,246.0L10.1,245.9L1.1,243.2L6.1,247.3L11.2,250.3L13.7,252.2L18.2,256.7L22.2,259.8L30.8,269.4L35.3,276.3L31.8,275.5L28.3,276.2L26.5,278.4L28.4,282.1L25.6,283.7L22.7,282.0L19.7,279.3L16.6,277.9L13.3,278.9L14.7,281.5L18.0,284.7L20.3,287.9L11.5,286.2L9.6,287.2L10.0,289.0L11.6,291.5L14.9,295.1L20.0,298.1L25.5,299.3L36.1,299.3L40.2,301.6L47.6,311.6L51.1,313.9L62.7,315.2L69.2,317.0L73.4,319.8L68.2,326.3L67.5,328.4L67.3,332.8L66.6,334.2L64.7,334.8L57.9,332.7L56.4,333.5L53.0,339.9L47.8,346.5L46.1,352.9L43.9,354.6L39.6,354.4L44.9,359.8L45.8,362.1L45.5,364.6L50.6,369.0L55.7,368.9L76.6,354.4L78.4,352.3L76.9,347.5L76.9,345.5L80.8,340.0L84.0,331.3L84.6,326.7L84.6,322.1L83.7,314.2L86.9,310.3L91.1,307.4L101.0,303.1L102.6,302.9L106.6,304.2L114.8,299.3L117.2,299.3L118.9,303.9L122.0,302.4L122.8,298.8L124.0,297.4L126.5,298.7L128.7,300.9L132.6,298.7L135.1,297.8L138.2,297.6L141.3,298.2L143.9,299.3L147.0,304.2L155.7,303.4L160.6,299.9L152.5,296.6L153.9,293.9L157.3,293.2L164.8,293.7L168.4,293.3L170.5,292.1L174.6,287.9L182.1,285.2L191.3,275.0L187.3,272.4L188.2,270.6L191.9,270.5L199.8,274.4L202.8,272.6L205.8,269.7L209.2,267.7L207.4,262.7L207.6,260.4L211.6,260.5L213.8,259.1L216.2,255.7L216.6,252.6L217.7,250.3L222.0,250.9L224.9,254.7L228.5,256.9L231.8,258.2L238.9,258.9L237.5,256.9L231.7,254.7L235.2,252.7L246.4,257.7L247.3,254.7L244.3,251.3L238.9,248.0L233.0,245.5L228.9,244.5L221.8,243.4L214.9,241.0L210.8,238.2L207.7,233.8L203.9,230.6L194.5,227.8L186.3,224.1L178.6,222.4L174.8,220.8L171.1,220.2L162.6,221.7L156.6,219.7L153.5,221.4L149.0,226.0L145.6,227.0L139.8,225.1L136.4,224.4L131.3,227.3L130.0,226.8Z M243.8,219.2L243.6,217.1L242.4,215.1L239.9,213.3L232.7,210.5L217.4,207.5L213.9,207.4L210.6,208.5L207.8,211.5L206.8,218.5L204.5,219.4L199.3,218.2L197.4,219.3L197.6,223.8L201.9,226.5L210.7,228.7L226.7,238.1L228.5,238.3L235.2,235.8L241.0,236.1L249.3,238.7L251.7,235.5L254.7,233.9L253.9,232.1L246.0,224.9L244.3,223.0L243.8,219.2Z " data-id="EE.SA" data-name="Saare" id="EE.SA"/>
utf-8</g>
</svg>
