<?xml version="1.0" ?>
<!DOCTYPE svg
  PUBLIC '-//W3C//DTD SVG 1.1//EN'
  'http://www.w3.org/Graphics/SVG/1.1/DTD/svg11.dtd'>
<svg enable_background="new 0 0 1000 880" height="880px" pretty_print="True" style="stroke-linejoin: round; stroke:#000; fill: none;" version="1.1" viewBox="0 0 1000 880" width="1000px" xmlns="http://www.w3.org/2000/svg" xmlns:xlink="http://www.w3.org/1999/xlink">
utf-8<defs>
utf-8utf-8<style type="text/css">
<![CDATA[path { fill-rule: evenodd; }]]>utf-8utf-8</style>
utf-8</defs>
utf-8<metadata>
utf-8utf-8<views>
utf-8utf-8utf-8<view h="880.581227715" padding="0" w="1000">
utf-8utf-8utf-8utf-8<proj flip="auto" id="robinson" lon0="31.0176923456"/>
utf-8utf-8utf-8utf-8<bbox h="161.91" w="184.08" x="350.87" y="-530.72"/>
utf-8utf-8utf-8</view>
utf-8utf-8</views>
utf-8</metadata>
utf-8<g class="" id="provinces">
utf-8utf-8<path d="M497.4,48.0L491.2,49.5L489.5,48.7L485.3,48.5L484.3,56.4L482.5,57.8L477.0,58.1L474.6,59.9L469.4,61.1L463.4,59.2L462.8,61.0L461.9,61.6L464.7,66.5L463.1,69.8L465.7,70.5L465.6,73.9L463.9,75.1L468.1,75.1L465.2,77.0L463.7,79.8L463.9,80.8L466.8,80.9L467.2,82.4L465.7,85.2L467.4,87.1L467.7,88.4L468.6,87.8L470.4,86.9L479.3,85.6L480.6,87.1L486.2,88.4L488.3,88.0L492.1,91.3L498.2,93.4L501.9,97.8L503.7,98.9L503.7,96.8L504.5,92.6L504.4,90.2L500.1,76.3L501.4,71.4L499.9,70.2L501.6,66.5L500.8,62.8L503.8,60.9L503.4,56.5L499.7,57.9L498.3,57.4L498.1,49.3L498.6,49.4L499.1,49.5L497.4,48.0Z " data-id="EG.GH" data-name="Al Gharbiyah" id="EG.GH"/>
utf-8utf-8<path d="M580.7,48.7L579.1,49.2L577.2,50.1L574.5,50.8L568.0,51.6L567.9,51.6L568.3,52.3L568.1,52.2L568.1,52.2L572.2,56.2L573.2,59.0L573.0,62.6L571.0,65.5L570.2,68.9L568.2,74.6L568.5,78.1L569.9,82.8L568.0,88.7L563.5,95.6L561.3,98.0L559.4,99.4L548.4,100.4L544.8,99.3L543.3,100.5L546.4,104.4L547.9,109.9L551.1,119.4L555.3,129.0L583.0,128.1L589.7,128.6L594.6,131.0L598.7,131.6L608.3,126.2L610.7,126.0L625.4,127.1L620.3,116.3L612.2,104.8L610.3,93.3L604.3,61.9L580.7,48.7Z " data-id="EG.IS" data-name="Al Isma`iliyah" id="EG.IS"/>
utf-8utf-8<path d="M501.9,97.8L498.2,93.4L492.1,91.3L488.3,88.0L486.2,88.4L480.6,87.1L479.3,85.6L470.4,86.9L468.6,87.8L467.7,88.4L468.2,92.3L468.9,94.5L471.7,97.6L470.8,97.9L473.0,100.6L471.8,105.0L473.7,109.0L473.6,113.7L476.5,116.3L473.0,117.3L472.6,118.6L473.2,119.8L474.7,120.5L477.0,118.7L480.8,123.6L484.6,126.3L484.8,128.3L486.3,130.6L487.8,131.1L491.6,129.8L497.3,133.5L498.5,134.2L497.6,132.6L495.9,130.6L494.9,125.5L494.3,124.9L493.2,118.9L490.1,116.1L493.3,116.1L495.6,112.5L495.7,109.6L498.3,108.0L500.2,105.0L502.2,103.1L501.9,99.4L504.6,100.0L503.7,98.9L501.9,97.8Z " data-id="EG.MF" data-name="Al Minufiyah" id="EG.MF"/>
utf-8utf-8<path d="M551.1,119.4L533.0,132.8L521.2,133.4L517.5,134.1L514.5,135.6L512.6,135.2L511.2,137.7L506.1,139.7L505.7,149.4L510.6,157.1L512.8,164.3L513.0,171.9L562.0,169.8L561.9,161.7L558.6,143.0L555.9,134.2L555.3,129.0L551.1,119.4Z " data-id="EG.QH" data-name="Al Qahirah" id="EG.QH"/>
utf-8utf-8<path d="M509.7,97.6L507.0,98.4L506.0,97.6L503.7,96.8L503.7,98.9L504.6,100.0L501.9,99.4L502.2,103.1L500.2,105.0L498.3,108.0L495.7,109.6L495.6,112.5L493.3,116.1L490.1,116.1L493.2,118.9L494.3,124.9L494.9,125.5L495.9,130.6L497.6,132.6L498.5,134.2L500.3,136.0L501.4,136.5L504.4,136.8L506.0,138.9L506.1,139.7L511.2,137.7L512.6,135.2L514.5,135.6L517.5,134.1L521.2,133.4L533.0,132.8L516.3,124.7L511.5,116.4L506.2,108.0L508.0,101.1L509.9,99.7L511.4,98.1L509.7,97.6Z " data-id="EG.QL" data-name="Al Qalyubiyah" id="EG.QL"/>
utf-8utf-8<path d="M560.7,47.8L557.6,49.7L548.6,52.8L541.5,53.5L537.9,59.4L534.3,64.3L533.0,67.8L530.0,69.3L529.6,74.0L526.7,77.1L512.2,78.8L510.4,82.4L513.2,94.2L513.0,96.0L511.4,98.1L509.9,99.7L508.0,101.1L506.2,108.0L511.5,116.4L516.3,124.7L533.0,132.8L551.1,119.4L547.9,109.9L546.4,104.4L543.3,100.5L544.8,99.3L548.4,100.4L559.4,99.4L561.3,98.0L563.5,95.6L568.0,88.7L569.9,82.8L568.5,78.1L568.2,74.6L570.2,68.9L571.0,65.5L573.0,62.6L573.2,59.0L572.2,56.2L568.1,52.2L567.3,52.1L564.5,51.0L566.5,54.7L563.7,53.5L564.1,52.3L560.6,50.9L562.3,49.8L560.7,47.8L560.7,47.8Z M578.5,44.2L578.4,44.1L578.4,44.1L576.5,44.1L578.0,45.4L577.7,48.7L576.0,49.8L572.7,49.6L571.7,48.1L567.6,51.0L567.9,51.6L568.0,51.6L574.5,50.8L577.2,50.1L579.1,49.2L578.5,44.2Z " data-id="EG.SQ" data-name="Ash Sharqiyah" id="EG.SQ"/>
utf-8utf-8<path d="M610.7,126.0L608.3,126.2L598.7,131.6L594.6,131.0L589.7,128.6L583.0,128.1L555.3,129.0L555.9,134.2L558.6,143.0L561.9,161.7L562.0,169.8L562.7,174.0L563.6,243.8L567.0,245.3L577.5,243.7L586.5,243.3L609.2,232.6L611.3,231.2L623.3,229.9L620.4,221.0L615.6,207.4L611.1,202.4L608.6,200.9L597.7,190.3L595.1,187.1L596.4,178.4L598.2,174.2L604.9,163.3L606.2,162.2L603.3,160.8L602.7,159.5L604.3,154.6L605.8,153.6L610.2,154.1L609.0,152.2L610.0,151.7L610.5,156.5L613.9,159.7L615.1,161.5L615.3,164.0L613.9,166.0L617.5,168.7L617.8,169.1L617.8,169.1L632.5,157.9L631.8,157.1L631.1,155.9L630.2,153.9L627.6,135.5L625.4,127.1L610.7,126.0Z " data-id="EG.SW" data-name="As Suways" id="EG.SW"/>
utf-8utf-8<path d="M575.1,33.3L571.2,32.7L571.9,34.3L574.4,34.2L575.2,34.5L575.2,34.4L575.1,33.9L575.1,33.3L575.1,33.3Z M561.9,26.4L561.4,26.8L561.1,26.9L561.1,27.0L561.2,27.0L560.2,27.4L568.2,32.2L569.8,32.2L562.7,26.7L561.9,26.4Z M503.4,11.5L498.1,14.5L496.3,16.1L500.0,30.7L500.2,34.7L501.1,40.4L500.4,44.0L502.5,46.8L500.3,48.8L499.1,49.5L498.6,49.4L498.1,49.3L498.3,57.4L499.7,57.9L503.4,56.5L503.8,60.9L500.8,62.8L501.6,66.5L499.9,70.2L501.4,71.4L500.1,76.3L504.4,90.2L504.5,92.6L503.7,96.8L506.0,97.6L507.0,98.4L509.7,97.6L511.4,98.1L513.0,96.0L513.2,94.2L510.4,82.4L512.2,78.8L526.7,77.1L529.6,74.0L530.0,69.3L533.0,67.8L534.3,64.3L537.9,59.4L541.5,53.5L548.6,52.8L557.6,49.7L560.7,47.8L560.6,47.6L557.9,47.9L559.3,45.9L558.5,42.3L558.9,40.4L557.6,39.2L556.7,40.4L554.8,38.6L551.5,41.1L549.9,41.1L541.6,34.3L539.8,34.3L539.7,34.3L538.8,37.2L536.6,38.8L531.3,40.8L527.3,44.5L526.4,44.5L525.2,42.2L526.4,41.8L530.8,35.0L529.3,34.3L531.7,33.1L530.5,29.3L529.7,29.3L527.9,32.8L526.4,32.8L522.1,30.2L521.0,27.6L516.3,26.4L517.5,24.0L520.0,22.0L521.1,19.3L520.0,19.3L517.4,18.7L509.1,15.0L505.7,12.5L503.4,11.5L503.4,11.5Z " data-id="EG.DQ" data-name="Ad Daqahliyah" id="EG.DQ"/>
utf-8utf-8<path d="M600.7,53.1L596.0,49.8L593.5,46.0L592.0,44.9L585.8,39.0L583.4,38.3L581.3,36.4L581.0,34.9L578.5,34.0L575.1,33.3L575.1,33.9L575.2,34.4L575.2,34.5L576.1,34.8L576.7,36.9L578.1,38.6L578.6,44.1L578.4,44.1L578.5,44.2L579.1,49.2L580.7,48.7L604.3,61.9L603.4,54.0L603.4,53.9L600.7,53.1Z " data-id="EG.BS" data-name="Bur Sa`id" id="EG.BS"/>
utf-8utf-8<path d="M561.9,26.3L559.0,25.5L553.7,19.1L549.1,12.3L546.6,11.0L543.6,11.0L540.9,11.9L534.4,15.8L523.1,19.2L521.1,19.3L521.1,19.3L520.0,22.0L517.5,24.0L516.3,26.4L521.0,27.6L522.1,30.2L526.4,32.8L527.9,32.8L529.7,29.3L530.5,29.3L531.7,33.1L529.3,34.3L530.8,35.0L526.4,41.8L525.2,42.2L526.4,44.5L527.3,44.5L531.3,40.8L536.6,38.8L538.8,37.2L539.7,34.3L539.7,34.3L537.5,33.7L537.5,32.4L539.5,31.3L539.8,29.5L538.8,27.4L541.3,26.8L543.9,27.4L541.6,25.1L542.5,23.7L542.7,20.6L544.3,20.6L544.3,17.5L542.9,15.4L543.0,11.9L544.8,11.3L549.3,14.9L553.6,19.8L554.1,23.7L559.0,26.6L560.6,26.8L561.1,27.0L561.1,26.9L561.4,26.8L561.9,26.4L561.9,26.3Z " data-id="EG.DT" data-name="Dumyat" id="EG.DT"/>
utf-8utf-8<path d="M37.6,362.2L39.0,362.2L219.6,362.1L248.3,287.8L250.2,284.5L253.6,280.3L259.2,277.9L319.4,261.3L334.2,249.2L380.5,197.0L437.6,159.3L384.3,127.3L380.1,119.5L373.0,58.7L373.0,58.6L369.9,60.3L366.1,63.4L345.1,74.1L342.8,74.6L330.5,75.1L316.5,68.0L315.1,67.6L312.9,63.4L306.6,60.9L289.3,54.7L286.5,54.8L282.1,51.9L274.2,54.1L267.5,52.8L261.3,51.0L247.5,51.0L243.8,50.5L241.1,48.4L240.6,45.4L237.9,38.3L235.8,37.9L227.2,42.3L222.7,43.1L218.7,41.1L217.0,42.0L213.3,40.8L208.4,40.1L201.7,36.4L196.3,25.5L188.0,26.2L186.7,25.2L179.5,24.1L169.9,20.6L168.8,19.6L159.8,19.9L156.6,18.9L150.9,16.2L120.5,12.2L89.5,3.6L82.0,3.2L78.6,3.8L64.6,8.7L52.4,12.3L48.3,13.1L46.9,13.9L44.3,13.1L39.3,13.6L36.2,12.0L30.6,11.3L29.0,9.5L28.0,6.6L26.6,0.0L22.1,3.9L20.2,7.0L18.0,14.7L6.2,25.0L5.5,27.9L5.7,31.2L7.0,38.8L7.6,46.3L13.9,63.4L15.2,68.0L19.1,75.3L20.4,78.9L20.1,82.1L18.0,93.8L16.1,100.0L15.5,104.9L14.2,108.0L10.2,115.0L8.0,117.4L1.6,130.3L0.6,133.5L0.8,137.0L4.1,143.0L11.8,160.0L11.4,168.6L12.1,172.3L16.5,179.2L17.9,182.9L17.8,191.7L18.2,195.2L19.2,198.3L26.6,214.3L28.3,219.2L29.2,224.4L33.1,287.1L35.7,330.1L37.6,362.2Z " data-id="EG.MT" data-name="Matruh" id="EG.MT"/>
utf-8utf-8<path d="M431.1,19.3L426.4,14.4L427.4,17.5L427.4,21.3L426.6,25.0L425.2,27.7L420.9,32.0L415.6,34.9L421.3,34.3L420.4,35.4L423.9,34.3L425.1,34.9L424.3,37.9L423.0,35.4L419.4,38.9L418.0,37.9L414.9,39.8L412.9,38.0L413.1,36.7L415.1,34.9L412.2,34.6L409.3,33.7L405.5,43.1L403.7,46.0L397.9,49.9L393.7,51.8L393.5,54.3L396.1,56.6L396.2,61.1L394.0,64.9L395.1,68.6L400.7,76.8L404.6,81.2L407.2,86.8L403.8,93.8L401.6,96.5L399.0,98.5L386.9,104.5L383.8,108.2L380.1,119.5L384.3,127.3L437.6,159.3L440.2,152.7L473.2,119.8L472.6,118.6L473.0,117.3L476.5,116.3L473.6,113.7L473.7,109.0L471.8,105.0L473.0,100.6L470.8,97.9L471.7,97.6L468.9,94.5L468.2,92.3L467.7,88.4L467.4,87.1L465.7,85.2L467.2,82.4L466.8,80.9L463.9,80.8L463.7,79.8L465.2,77.0L468.1,75.1L463.9,75.1L465.6,73.9L465.7,70.5L463.1,69.8L464.7,66.5L461.9,61.6L462.8,61.0L461.9,59.6L459.8,57.8L459.1,53.8L457.0,51.1L453.2,49.1L449.2,43.8L442.1,38.7L440.1,37.9L441.2,29.7L438.3,27.4L437.7,28.7L435.4,25.5L433.6,24.6L433.2,20.6L431.0,19.3L431.1,19.3Z " data-id="EG.BH" data-name="Al Buhayrah" id="EG.BH"/>
utf-8utf-8<path d="M493.4,179.1L487.2,174.0L471.2,176.0L455.6,183.6L442.3,192.2L437.0,196.8L403.7,232.9L437.9,239.2L443.3,243.0L446.9,242.7L478.4,233.4L484.7,229.9L489.5,224.0L492.8,217.3L495.7,213.8L498.2,207.7L501.0,204.5L493.4,179.1Z " data-id="EG.FY" data-name="Al Fayyum" id="EG.FY"/>
utf-8utf-8<path d="M409.3,33.7L406.7,31.9L406.7,29.3L405.3,31.1L401.9,33.5L394.0,41.1L393.6,42.3L390.3,45.5L388.2,46.6L386.0,46.1L385.0,48.5L374.4,56.8L373.0,58.6L373.0,58.6L373.0,58.7L380.1,119.5L383.8,108.2L386.9,104.5L399.0,98.5L401.6,96.5L403.8,93.8L407.2,86.8L404.6,81.2L400.7,76.8L395.1,68.6L394.0,64.9L396.2,61.1L396.1,56.6L393.5,54.3L393.7,51.8L397.9,49.9L403.7,46.0L405.5,43.1L409.3,33.7L409.3,33.7Z " data-id="EG.IK" data-name="Al Iskandariyah" id="EG.IK"/>
utf-8utf-8<path d="M497.3,133.5L491.6,129.8L487.8,131.1L486.3,130.6L484.8,128.3L484.6,126.3L480.8,123.6L477.0,118.7L474.7,120.5L473.2,119.8L440.2,152.7L437.6,159.3L380.5,197.0L334.2,249.2L319.4,261.3L259.2,277.9L253.6,280.3L250.2,284.5L248.3,287.8L219.6,362.1L322.8,362.1L327.6,349.5L331.0,343.4L336.3,339.0L370.8,319.4L381.9,310.3L390.8,296.9L400.9,262.8L402.3,255.8L403.7,232.9L437.0,196.8L442.3,192.2L455.6,183.6L471.2,176.0L487.2,174.0L493.4,179.1L501.0,204.5L504.5,204.4L508.9,205.5L513.8,212.7L513.6,213.7L519.9,220.9L522.8,223.8L528.8,231.5L534.4,234.9L563.6,243.8L562.7,174.0L562.0,169.8L513.0,171.9L512.8,164.3L510.6,157.1L505.7,149.4L506.1,139.7L506.0,138.9L504.4,136.8L501.4,136.5L500.3,136.0L498.5,134.2L497.3,133.5Z " data-id="EG.JZ" data-name="Al Jizah" id="EG.JZ"/>
utf-8utf-8<path d="M481.2,262.3L479.7,260.8L400.9,262.8L390.8,296.9L381.9,310.3L370.8,319.4L336.3,339.0L331.0,343.4L327.6,349.5L322.8,362.1L480.9,362.1L480.1,364.0L479.9,365.1L482.0,366.1L483.5,366.1L487.2,365.4L492.7,367.4L500.9,366.4L501.7,357.7L497.6,342.7L496.4,334.1L494.3,327.9L489.5,319.4L487.1,309.3L487.3,304.6L489.1,298.5L493.0,288.9L493.7,266.7L481.2,262.3Z " data-id="EG.MN" data-name="Al Minya" id="EG.MN"/>
utf-8utf-8<path d="M513.8,212.7L508.9,205.5L504.5,204.4L501.0,204.5L498.2,207.7L495.7,213.8L492.8,217.3L489.5,224.0L484.7,229.9L478.4,233.4L446.9,242.7L443.3,243.0L437.9,239.2L403.7,232.9L402.3,255.8L400.9,262.8L479.7,260.8L481.2,262.3L493.7,266.7L493.7,264.9L495.2,258.0L496.6,254.9L501.2,247.7L505.1,240.2L512.0,229.8L514.2,221.2L513.6,217.6L513.6,213.7L513.8,212.7Z " data-id="EG.BN" data-name="Bani Suwayf" id="EG.BN"/>
utf-8utf-8<path d="M493.1,6.9L485.8,4.7L483.4,4.4L476.9,5.4L477.9,6.7L481.7,8.3L485.0,10.6L486.6,12.6L484.2,13.7L482.9,12.9L478.5,12.9L475.8,19.9L472.5,18.1L471.7,20.2L468.1,21.2L467.6,20.1L464.9,20.6L462.6,19.4L460.0,19.9L457.6,22.7L455.8,23.1L452.5,21.3L449.0,24.3L442.5,23.7L444.4,20.8L453.5,17.5L456.6,15.2L460.5,13.2L466.1,9.8L474.1,6.3L452.0,14.5L441.4,17.5L438.1,17.9L435.3,17.6L427.7,13.4L427.4,15.0L428.8,17.7L431.0,19.3L433.2,20.6L433.6,24.6L435.4,25.5L437.7,28.7L438.3,27.4L441.2,29.7L440.1,37.9L442.1,38.7L449.2,43.8L453.2,49.1L457.0,51.1L459.1,53.8L459.8,57.8L461.9,59.6L462.8,61.0L463.4,59.2L469.4,61.1L474.6,59.9L477.0,58.1L482.5,57.8L484.3,56.4L485.3,48.5L489.5,48.7L491.2,49.5L497.4,48.0L499.1,49.5L500.3,48.8L502.5,46.8L500.4,44.0L501.1,40.4L500.2,34.7L500.0,30.7L496.3,16.1L498.1,14.5L503.4,11.5L493.1,6.9Z " data-id="EG.KS" data-name="Kafr ash Shaykh" id="EG.KS"/>
utf-8utf-8<path d="M652.8,580.5L652.4,582.6L652.7,587.4L652.5,588.7L650.9,590.6L649.6,591.8L656.2,595.7L659.1,597.9L663.4,604.0L664.7,607.4L666.2,616.8L671.0,627.0L672.8,631.9L674.0,637.0L673.4,640.5L671.0,647.8L671.0,659.9L672.1,667.3L671.8,671.9L672.7,687.9L672.7,688.8L667.6,693.5L660.7,693.6L655.5,697.3L655.1,700.1L655.3,704.3L657.4,707.2L664.6,711.9L665.4,714.8L663.2,716.8L653.6,718.2L649.0,720.3L647.4,722.1L643.9,727.8L640.8,746.2L641.1,747.6L643.6,749.5L646.9,750.2L654.7,750.5L665.2,748.8L667.6,751.0L667.7,752.5L666.5,756.7L660.1,764.5L658.2,767.5L654.9,776.6L653.0,784.8L650.7,789.7L648.8,799.8L644.8,807.8L644.0,808.1L638.0,803.9L635.8,804.3L632.8,803.6L627.2,799.2L624.3,798.9L622.1,799.6L597.8,812.3L589.2,810.4L583.4,811.6L580.0,816.3L579.5,817.7L579.7,822.0L581.3,827.4L581.5,835.9L580.5,838.7L575.4,846.3L572.7,848.6L567.7,851.1L558.0,852.5L554.1,855.6L552.5,861.1L554.6,863.8L559.8,868.8L562.9,861.0L566.3,857.7L570.8,858.5L572.6,860.3L573.4,864.6L569.8,878.5L574.4,878.5L576.5,873.5L578.2,871.2L581.5,868.6L597.4,860.4L598.3,859.7L601.1,854.8L609.4,852.2L612.4,849.7L615.9,844.2L620.2,828.8L622.3,825.2L625.8,826.0L629.5,829.2L633.0,833.2L638.6,836.1L644.0,836.4L647.8,835.7L651.3,834.5L656.9,829.9L659.2,826.9L668.9,817.0L670.8,814.2L672.3,809.4L672.1,800.4L673.5,798.8L675.7,793.7L679.2,795.3L682.8,799.2L688.1,801.6L694.5,800.4L700.2,802.5L706.9,809.5L712.3,813.5L715.4,813.8L715.3,810.5L711.4,798.6L706.7,792.3L704.2,790.2L699.4,788.3L693.8,784.8L692.1,781.9L694.9,777.0L697.0,771.9L699.3,769.8L700.2,768.1L702.5,760.4L703.0,755.8L702.6,754.4L698.6,747.2L696.4,738.7L696.3,734.9L697.8,732.1L698.1,729.7L696.7,719.2L695.6,717.2L690.5,712.8L683.1,697.4L679.9,681.9L680.3,675.7L681.5,668.5L682.1,666.9L688.0,657.9L689.1,655.9L690.6,650.8L690.4,648.4L680.9,629.7L679.6,625.1L678.7,612.9L675.7,602.2L672.7,597.3L669.5,593.3L652.8,580.5Z " data-id="EG.AN" data-name="Aswan" id="EG.AN"/>
utf-8utf-8<path d="M492.7,367.4L487.2,365.4L483.5,366.1L482.0,366.1L479.9,365.1L479.8,368.7L481.2,374.0L489.6,390.1L492.4,393.7L503.4,403.8L507.4,406.2L514.8,409.3L521.6,415.6L522.6,417.0L533.8,437.7L540.8,433.6L543.9,429.3L546.8,428.8L549.6,431.9L551.0,434.8L555.6,438.5L558.7,438.1L549.1,419.9L540.6,410.0L535.4,406.1L533.4,403.4L531.9,399.7L528.3,395.5L512.7,388.9L505.6,384.8L502.8,380.9L501.2,374.4L500.9,366.4L492.7,367.4Z " data-id="EG.AT" data-name="Asyut" id="EG.AT"/>
utf-8utf-8<path d="M559.8,868.8L554.6,863.8L552.5,861.1L554.1,855.6L558.0,852.5L567.7,851.1L572.7,848.6L575.4,846.3L580.5,838.7L581.5,835.9L581.3,827.4L579.7,822.0L579.5,817.7L580.0,816.3L583.4,811.6L589.2,810.4L597.8,812.3L622.1,799.6L624.3,798.9L627.2,799.2L632.8,803.6L635.8,804.3L638.0,803.9L644.0,808.1L644.8,807.8L648.8,799.8L650.7,789.7L653.0,784.8L654.9,776.6L658.2,767.5L660.1,764.5L666.5,756.7L667.7,752.5L667.6,751.0L665.2,748.8L654.7,750.5L646.9,750.2L643.6,749.5L641.1,747.6L640.8,746.2L643.9,727.8L647.4,722.1L649.0,720.3L653.6,718.2L663.2,716.8L665.4,714.8L664.6,711.9L657.4,707.2L655.3,704.3L655.1,700.1L655.5,697.3L660.7,693.6L667.6,693.5L672.7,688.8L672.7,687.9L671.8,671.9L672.1,667.3L671.0,659.9L671.0,647.8L673.4,640.5L674.0,637.0L672.8,631.9L671.0,627.0L666.2,616.8L664.7,607.4L663.4,604.0L659.1,597.9L656.2,595.7L649.6,591.8L641.8,585.8L638.4,581.3L637.0,578.0L634.1,565.0L630.7,554.0L630.9,548.8L634.1,544.5L644.3,535.5L645.6,533.7L648.1,522.5L651.0,516.6L652.0,512.6L651.8,510.7L650.5,507.0L646.0,504.1L639.1,505.1L621.7,513.9L614.9,516.0L611.2,516.7L606.4,515.9L602.1,513.5L589.0,501.2L553.5,458.3L545.6,451.7L533.8,437.7L522.6,417.0L521.6,415.6L514.8,409.3L507.4,406.2L503.4,403.8L492.4,393.7L489.6,390.1L481.2,374.0L479.8,368.7L479.9,365.1L480.1,364.0L480.9,362.1L322.8,362.1L219.6,362.1L39.0,362.2L37.6,362.2L37.8,365.7L38.6,379.6L44.1,480.0L48.2,559.8L49.5,586.3L53.2,666.1L54.4,692.6L57.7,772.3L58.8,798.8L62.0,878.5L555.1,878.6L556.1,877.9L559.5,869.4L559.8,868.8Z " data-id="EG.WJ" data-name="Al Wadi at Jadid" id="EG.WJ"/>
utf-8utf-8<path d="M650.2,578.0L647.3,572.6L645.5,565.7L645.1,559.6L647.6,553.0L652.4,546.9L659.5,539.7L662.4,535.6L665.8,526.8L666.3,524.4L666.2,516.6L665.0,509.9L661.4,501.5L658.0,497.1L651.5,492.2L645.3,490.4L634.1,491.0L618.9,499.0L616.5,499.5L614.6,501.9L612.7,502.0L610.8,500.9L607.4,497.6L602.8,492.4L599.9,495.5L591.8,498.2L589.0,501.2L602.1,513.5L606.4,515.9L611.2,516.7L614.9,516.0L621.7,513.9L639.1,505.1L646.0,504.1L650.5,507.0L651.8,510.7L652.0,512.6L651.0,516.6L648.1,522.5L645.6,533.7L644.3,535.5L634.1,544.5L630.9,548.8L630.7,554.0L634.1,565.0L637.0,578.0L638.4,581.3L641.8,585.8L649.6,591.8L650.9,590.6L652.5,588.7L652.7,587.4L652.4,582.6L652.8,580.5L650.2,578.0Z M646.7,541.4L644.2,542.5L645.8,538.6L646.7,541.4Z " data-id="EG.QN" data-name="Qina" id="EG.QN"/>
utf-8utf-8<path d="M555.6,438.5L551.0,434.8L549.6,431.9L546.8,428.8L543.9,429.3L540.8,433.6L533.8,437.7L545.6,451.7L553.5,458.3L589.0,501.2L591.8,498.2L599.9,495.5L602.8,492.4L607.4,497.6L610.8,500.9L612.7,502.0L614.6,501.9L616.5,499.5L607.6,488.6L605.2,484.5L591.6,477.9L587.6,474.0L585.5,470.9L582.7,462.0L577.5,454.1L576.1,451.1L572.4,447.6L558.7,438.1L555.6,438.5Z " data-id="EG.SJ" data-name="Suhaj" id="EG.SJ"/>
utf-8utf-8<path d="M745.0,447.3L742.5,442.0L740.9,442.0L743.4,447.1L745.2,449.4L745.0,447.3Z M739.9,376.5L736.4,374.2L733.0,374.6L733.0,376.1L734.3,377.8L736.9,377.6L740.7,380.1L742.2,381.8L742.7,380.4L741.7,377.2L739.9,376.5Z M534.4,234.9L528.8,231.5L522.8,223.8L519.9,220.9L513.6,213.7L513.6,217.6L514.2,221.2L512.0,229.8L505.1,240.2L501.2,247.7L496.6,254.9L495.2,258.0L493.7,264.9L493.7,266.7L493.0,288.9L489.1,298.5L487.3,304.6L487.1,309.3L489.5,319.4L494.3,327.9L496.4,334.1L497.6,342.7L501.7,357.7L500.9,366.4L501.2,374.4L502.8,380.9L505.6,384.8L512.7,388.9L528.3,395.5L531.9,399.7L533.4,403.4L535.4,406.1L540.6,410.0L549.1,419.9L558.7,438.1L572.4,447.6L576.1,451.1L577.5,454.1L582.7,462.0L585.5,470.9L587.6,474.0L591.6,477.9L605.2,484.5L607.6,488.6L616.5,499.5L618.9,499.0L634.1,491.0L645.3,490.4L651.5,492.2L658.0,497.1L661.4,501.5L665.0,509.9L666.2,516.6L666.3,524.4L665.8,526.8L662.4,535.6L659.5,539.7L652.4,546.9L647.6,553.0L645.1,559.6L645.5,565.7L647.3,572.6L650.2,578.0L652.8,580.5L669.5,593.3L672.7,597.3L675.7,602.2L678.7,612.9L679.6,625.1L680.9,629.7L690.4,648.4L690.6,650.8L689.1,655.9L688.0,657.9L682.1,666.9L681.5,668.5L680.3,675.7L679.9,681.9L683.1,697.4L690.5,712.8L695.6,717.2L696.7,719.2L698.1,729.7L697.8,732.1L696.3,734.9L696.4,738.7L698.6,747.2L702.6,754.4L703.0,755.8L702.5,760.4L700.2,768.1L699.3,769.8L697.0,771.9L694.9,777.0L692.1,781.9L693.8,784.8L699.4,788.3L704.2,790.2L706.7,792.3L711.4,798.6L715.3,810.5L715.4,813.8L712.3,813.5L706.9,809.5L700.2,802.5L694.5,800.4L688.1,801.6L682.8,799.2L679.2,795.3L675.7,793.7L673.5,798.8L672.1,800.4L672.3,809.4L670.8,814.2L668.9,817.0L659.2,826.9L656.9,829.9L651.3,834.5L647.8,835.7L644.0,836.4L638.6,836.1L633.0,833.2L629.5,829.2L625.8,826.0L622.3,825.2L620.2,828.8L615.9,844.2L612.4,849.7L609.4,852.2L601.1,854.8L598.3,859.7L597.4,860.4L581.5,868.6L578.2,871.2L576.5,873.5L574.4,878.5L576.6,878.5L998.4,878.5L999.4,876.5L998.9,872.1L997.1,871.3L991.9,867.1L990.6,864.4L984.1,862.7L976.6,855.4L967.1,848.2L961.6,845.6L960.0,841.9L960.3,839.3L958.1,837.3L958.4,838.7L953.4,835.6L950.9,833.3L949.4,830.6L948.7,826.4L947.4,824.2L943.3,820.3L941.0,818.8L934.8,816.6L928.4,815.3L916.1,811.1L912.9,808.7L909.0,803.2L907.6,802.3L906.2,797.1L903.8,793.3L902.3,793.3L903.6,797.6L900.1,793.3L897.6,788.7L896.1,780.4L893.1,774.4L889.1,767.8L886.5,757.0L886.4,752.7L880.9,741.9L881.5,724.9L881.1,719.6L878.8,716.8L878.0,714.5L878.9,707.9L878.1,703.6L879.4,698.7L880.1,698.2L885.5,701.9L887.0,702.5L895.0,703.6L898.9,702.2L902.4,705.0L900.9,703.0L898.9,698.9L897.7,697.6L891.9,695.4L889.5,695.9L887.0,694.4L886.7,691.7L885.4,689.2L882.3,686.0L880.1,685.1L878.4,683.3L879.1,686.0L877.8,686.2L874.5,681.6L872.2,679.2L868.8,670.4L867.0,668.2L855.9,659.7L851.5,651.9L848.2,650.6L848.0,648.1L849.0,643.8L847.8,642.8L844.1,636.3L841.8,629.1L840.3,626.5L835.2,621.8L834.6,620.5L833.7,613.7L829.6,607.7L829.1,604.7L817.5,585.8L816.3,581.9L813.7,578.1L811.7,573.1L808.0,568.5L806.4,566.0L805.3,561.4L803.1,557.5L801.7,553.2L794.0,539.0L790.2,534.8L784.4,526.5L776.0,513.8L772.5,506.0L769.1,501.3L761.4,485.3L759.3,482.3L755.0,475.1L751.7,467.1L750.4,464.6L747.6,461.1L746.7,458.2L740.7,454.4L739.8,451.8L741.0,446.2L740.1,438.3L743.8,437.6L743.4,432.3L742.9,431.3L739.7,429.2L734.5,420.3L735.6,419.0L734.9,417.5L729.4,411.9L728.1,406.4L729.0,405.2L728.9,401.7L726.0,398.1L722.5,396.4L719.4,394.3L716.6,391.7L714.5,384.6L711.5,380.5L711.3,378.5L704.7,373.0L705.1,370.8L699.3,364.0L702.8,361.0L702.6,357.4L703.3,353.7L700.6,354.4L696.5,348.6L696.8,345.9L703.0,348.8L704.1,350.8L705.6,350.3L704.0,345.4L702.0,341.2L700.4,339.4L698.3,335.6L692.4,330.3L687.0,328.6L686.3,327.2L683.9,326.7L682.1,323.1L675.7,315.9L673.3,314.5L672.3,312.6L668.3,308.5L666.3,306.0L664.0,300.2L662.4,298.3L658.7,295.4L658.5,294.2L654.9,287.3L652.5,286.4L651.6,284.7L648.6,281.7L644.7,279.5L643.4,277.3L638.9,263.8L637.6,261.1L635.7,259.1L632.9,258.6L627.0,251.7L625.2,246.9L622.7,244.3L621.9,240.2L622.4,235.3L623.8,232.8L623.3,229.9L623.3,229.9L611.3,231.2L609.2,232.6L586.5,243.3L577.5,243.7L567.0,245.3L563.6,243.8L534.4,234.9Z " data-id="EG.BA" data-name="Al Bahr al Ahmar" id="EG.BA"/>
utf-8utf-8<path d="M793.3,339.2L793.0,335.7L789.1,335.6L787.7,338.2L791.2,340.2L793.3,339.2Z M778.1,332.2L775.4,330.5L774.3,332.9L776.6,338.2L778.9,339.1L784.6,339.1L780.3,334.2L777.1,334.9L775.1,334.1L775.3,333.1L778.1,332.2Z M792.8,196.4L760.1,191.3L750.1,187.7L740.7,182.7L724.5,176.7L703.7,165.8L653.7,156.9L632.5,157.9L617.8,169.1L617.8,169.1L617.9,169.3L620.4,172.7L621.9,184.7L624.1,188.2L625.4,191.9L625.6,196.1L626.8,198.3L631.4,202.2L633.5,203.3L634.1,208.3L636.0,212.2L638.4,213.9L640.1,218.8L646.0,222.5L654.8,231.7L656.4,235.0L660.4,238.0L661.1,237.7L664.0,240.6L663.9,243.1L665.6,255.7L666.2,257.4L668.2,258.6L670.3,262.3L668.4,270.4L670.6,274.7L671.2,278.4L672.5,280.3L674.4,279.3L677.4,286.4L683.6,291.1L686.2,294.1L689.2,298.5L699.9,304.8L704.5,310.6L706.0,315.0L709.4,318.5L713.1,323.4L713.3,325.0L717.2,327.4L717.3,329.6L724.4,335.0L725.7,335.3L727.0,337.8L729.9,337.7L734.6,341.9L741.4,348.7L743.4,350.0L750.9,350.8L753.7,352.2L758.2,355.9L754.0,350.8L756.0,350.6L758.3,348.9L758.6,344.7L761.1,345.3L762.8,340.3L765.2,338.8L769.1,333.4L769.9,327.0L768.4,324.4L769.9,315.9L766.9,312.0L765.3,305.3L767.5,296.8L768.3,291.6L769.3,291.1L772.6,285.7L771.4,282.9L772.6,279.7L775.3,274.9L776.1,270.7L778.4,262.2L777.5,254.9L779.4,253.4L778.6,243.8L781.4,241.9L780.2,237.8L779.6,231.2L780.7,225.9L783.1,222.8L782.7,212.6L787.1,206.6L792.0,196.8L792.8,196.4Z " data-id="EG.JS" data-name="Janub Sina'" id="EG.JS"/>
utf-8utf-8<path d="M666.5,43.9L655.8,40.2L668.3,45.5L666.5,43.9Z M640.6,37.7L637.9,39.8L634.1,41.7L629.9,44.7L638.7,39.7L644.4,38.5L652.9,39.2L640.6,37.7Z M603.4,53.9L603.4,54.0L604.3,61.9L610.3,93.3L612.2,104.8L620.3,116.3L625.4,127.1L627.6,135.5L630.2,153.9L631.1,155.9L631.8,157.1L632.5,157.9L653.7,156.9L703.7,165.8L724.5,176.7L740.7,182.7L750.1,187.7L760.1,191.3L792.8,196.4L792.9,196.4L789.2,189.1L788.8,182.9L786.0,173.5L777.9,155.5L776.4,148.5L763.5,118.9L762.5,117.6L757.9,113.8L757.0,110.3L757.4,106.4L755.1,103.6L754.0,98.3L751.6,91.1L737.0,60.0L726.4,34.5L713.2,38.7L698.9,44.7L683.5,48.9L672.0,47.9L667.3,45.8L664.6,45.4L664.7,47.0L663.4,49.1L655.1,49.8L657.1,50.4L657.4,52.3L652.9,51.2L649.0,52.8L648.6,53.9L644.5,55.3L645.1,52.4L642.9,49.8L644.6,49.5L644.8,47.3L639.2,43.5L635.6,44.8L632.5,49.6L631.5,50.3L635.6,50.0L638.5,47.3L637.8,49.7L634.6,51.6L635.9,53.5L632.2,53.5L631.5,51.6L626.8,52.3L626.4,50.8L621.0,52.3L616.6,55.3L611.3,56.0L612.3,54.7L608.6,54.7L615.0,53.0L621.5,50.3L622.2,48.7L615.7,52.1L610.1,53.6L603.4,53.9L603.4,53.9Z " data-id="EG.SS" data-name="Shamal Sina'" id="EG.SS"/>
utf-8utf-8<path d="M646.7,541.4L645.8,538.6L644.2,542.5L646.7,541.4Z " data-id="EG.UQ" data-name="Luxor" id="EG.UQ"/>
utf-8</g>
</svg>
