<?xml version="1.0" ?>
<!DOCTYPE svg
  PUBLIC '-//W3C//DTD SVG 1.1//EN'
  'http://www.w3.org/Graphics/SVG/1.1/DTD/svg11.dtd'>
<svg enable_background="new 0 0 1000 946" height="946px" pretty_print="True" style="stroke-linejoin: round; stroke:#000; fill: none;" version="1.1" viewBox="0 0 1000 946" width="1000px" xmlns="http://www.w3.org/2000/svg" xmlns:xlink="http://www.w3.org/1999/xlink">
utf-8<defs>
utf-8utf-8<style type="text/css">
<![CDATA[path { fill-rule: evenodd; }]]>utf-8utf-8</style>
utf-8</defs>
utf-8<metadata>
utf-8utf-8<views>
utf-8utf-8utf-8<view h="946.445958192" padding="0" w="1000">
utf-8utf-8utf-8utf-8<proj flip="auto" id="robinson" lon0="37.6688218583"/>
utf-8utf-8utf-8utf-8<bbox h="94.66" w="100.12" x="534.05" y="-301.92"/>
utf-8utf-8utf-8</view>
utf-8utf-8</views>
utf-8</metadata>
utf-8<g class="" id="provinces">
utf-8utf-8<path d="M327.7,411.6L300.9,410.7L296.0,409.3L292.8,406.8L288.4,398.2L284.2,392.3L279.0,387.0L271.9,382.0L267.0,380.4L263.0,380.2L259.5,381.5L251.6,386.0L248.5,387.3L244.9,387.6L242.2,386.6L227.4,375.9L218.8,371.8L213.9,370.2L210.0,369.6L204.9,369.4L201.6,368.7L198.4,366.9L194.1,363.7L188.8,360.8L184.7,359.7L180.6,359.6L170.4,361.1L159.7,361.2L156.4,359.1L154.9,354.3L152.1,352.4L147.6,350.3L142.5,348.6L139.5,346.2L136.8,342.3L133.8,335.2L129.0,327.6L123.1,321.4L113.7,315.3L106.1,312.5L92.3,308.9L85.7,304.5L83.4,299.3L82.1,297.4L78.3,293.7L77.2,292.1L75.0,285.3L73.5,276.0L71.0,268.0L67.9,263.3L63.8,262.6L64.9,265.5L64.6,275.0L65.5,278.5L68.5,285.3L69.0,288.9L67.8,293.1L62.0,300.1L59.8,304.5L44.1,362.6L40.5,369.8L33.7,378.1L32.1,381.8L25.6,413.8L25.6,420.9L27.9,428.2L23.3,431.8L20.6,436.9L14.3,461.3L11.9,465.9L1.6,477.5L0.6,480.4L0.5,484.1L21.6,626.0L24.4,626.0L25.4,622.8L27.1,621.1L34.7,619.8L39.1,617.4L42.0,616.9L48.6,616.9L53.6,614.5L63.6,614.5L68.3,615.2L78.0,618.4L82.9,619.1L86.6,623.8L90.3,625.9L94.7,623.8L99.7,623.8L102.9,620.3L103.9,617.5L104.5,606.6L105.5,603.3L107.6,599.7L111.6,596.1L116.6,594.9L127.5,595.1L132.6,593.5L136.3,596.9L139.2,598.7L145.1,607.7L147.4,610.1L148.9,619.6L151.1,620.9L157.3,626.5L159.1,630.6L160.1,634.8L161.0,636.7L166.0,638.6L167.2,639.9L168.0,645.7L168.8,648.5L170.4,650.5L173.1,652.4L174.7,650.5L195.0,589.5L217.0,522.9L219.7,525.4L221.6,528.3L224.6,534.4L228.1,539.9L232.3,543.4L233.8,547.8L235.0,548.9L251.2,556.1L253.9,556.7L262.2,555.1L265.7,555.3L268.0,556.3L269.5,558.4L270.6,560.9L272.1,556.3L271.1,550.2L266.0,538.9L264.8,534.1L264.4,530.2L264.8,527.2L267.3,521.1L269.0,514.4L270.3,512.2L272.9,509.6L276.0,507.4L281.4,505.0L285.3,500.0L288.2,493.9L293.5,487.0L300.3,483.6L313.3,482.5L325.8,479.1L331.6,476.3L336.3,475.5L346.1,476.7L342.6,409.6L327.7,411.6Z " data-id="ER.GB" data-name="Gash Barka" id="ER.GB"/>
utf-8utf-8<path d="M418.3,468.9L405.3,461.4L398.0,454.6L388.9,444.2L374.5,421.4L370.6,413.8L367.7,406.4L358.5,408.1L351.5,410.6L350.4,410.5L345.5,408.0L344.3,408.1L342.6,409.6L346.1,476.7L418.7,476.7L420.2,477.0L422.0,476.3L423.2,475.4L424.6,473.3L418.3,468.9Z " data-id="ER.AN" data-name="Anseba" id="ER.AN"/>
utf-8utf-8<path d="M521.1,355.1L515.4,353.7L511.9,356.0L513.6,356.9L520.2,357.5L522.0,359.8L523.1,362.5L522.7,364.5L517.0,364.8L514.2,366.3L515.4,369.7L517.3,372.6L516.8,373.9L510.3,370.6L508.4,370.9L507.2,372.7L507.2,376.0L508.3,379.0L510.1,379.5L514.8,378.4L519.8,379.5L524.3,382.5L528.1,386.8L531.1,392.1L525.0,394.3L521.5,393.7L517.4,391.5L515.0,392.1L511.8,387.6L512.4,385.7L509.7,385.3L514.2,398.0L516.6,401.3L519.8,400.5L528.6,403.7L532.3,404.4L534.7,404.2L536.3,402.8L537.5,400.0L540.1,403.1L543.0,404.1L550.1,402.4L553.5,403.0L558.7,405.7L561.9,406.9L564.9,406.6L571.9,404.7L579.5,405.7L580.3,402.7L578.8,396.0L573.9,394.9L570.8,392.7L568.7,392.1L563.8,386.1L562.5,385.6L554.6,385.3L552.0,386.2L552.4,390.0L557.4,391.8L553.4,397.8L544.7,395.1L538.7,386.3L538.2,383.8L537.9,367.9L536.3,366.9L536.0,370.2L534.8,370.9L530.9,370.2L531.1,368.4L532.6,366.5L533.2,364.1L526.6,357.4L521.1,355.1Z M533.1,337.8L532.3,336.3L527.4,332.3L527.8,329.7L529.8,327.5L532.2,326.6L533.1,325.1L531.9,323.1L529.1,321.8L522.7,317.5L521.5,320.0L522.6,324.8L521.4,325.7L518.1,326.0L515.6,327.1L514.6,329.7L514.7,332.5L516.2,334.1L522.5,334.9L526.2,337.0L530.6,338.6L533.1,337.8Z M213.0,77.9L213.3,79.6L215.3,98.3L216.5,166.9L215.2,175.1L214.4,178.6L214.3,182.6L215.5,186.0L223.4,196.3L224.4,199.8L224.8,205.1L223.2,216.0L223.0,221.0L224.1,224.8L227.6,228.7L231.4,230.7L264.9,237.3L266.6,238.8L270.2,248.0L273.3,252.7L275.3,256.3L278.0,265.4L279.6,269.6L283.1,273.7L286.7,277.0L290.7,281.9L295.3,290.3L297.4,295.9L298.6,300.9L298.6,308.0L296.0,316.0L295.8,320.2L296.8,333.8L298.7,339.3L302.1,343.9L309.5,349.2L316.5,352.4L323.5,354.7L343.4,357.4L345.3,358.9L347.6,362.0L361.7,386.0L367.7,406.4L370.6,413.8L374.5,421.4L388.9,444.2L398.0,454.6L405.3,461.4L418.3,468.9L424.6,473.3L429.7,481.7L433.1,489.5L488.0,586.1L489.7,585.8L494.4,585.6L498.8,587.2L503.0,590.1L511.0,597.5L513.3,598.7L516.1,599.2L518.9,598.3L523.2,594.1L525.9,593.3L534.4,594.5L541.5,592.1L544.1,592.1L557.4,595.7L563.9,598.6L569.8,602.4L581.6,614.0L583.0,610.9L592.6,591.3L599.2,573.4L611.2,552.7L613.2,546.5L613.5,540.2L612.8,533.4L609.2,517.3L608.7,510.9L608.2,511.0L606.2,508.8L605.8,504.4L601.7,503.3L599.5,499.8L600.9,505.6L598.9,508.6L596.5,509.0L594.3,506.7L592.5,506.2L592.6,503.3L591.1,502.0L586.5,502.9L586.0,507.9L583.6,508.4L582.2,507.2L581.6,502.2L579.7,505.0L578.0,508.8L575.9,512.1L572.6,513.5L569.4,516.7L567.3,517.2L566.1,514.2L562.6,511.9L551.6,507.6L548.1,505.7L546.5,502.7L547.3,497.5L545.2,494.6L540.8,491.2L539.0,491.9L538.3,490.1L538.6,483.8L534.3,473.8L530.8,470.9L530.4,464.3L526.6,463.1L528.5,456.8L533.0,451.3L533.9,449.4L533.5,445.7L532.4,444.1L527.9,441.0L524.5,440.2L522.3,439.0L507.7,426.2L504.6,422.7L502.3,418.4L499.2,423.9L497.7,425.3L496.7,423.1L495.9,426.3L492.7,426.0L491.8,427.6L491.1,433.4L488.5,435.4L488.3,437.4L489.7,444.3L489.8,453.0L490.3,456.2L491.8,459.7L493.7,455.7L495.7,455.7L497.0,458.1L498.9,464.8L502.1,470.5L502.0,473.7L499.4,479.3L497.2,481.7L498.1,486.8L496.4,489.6L490.9,490.9L489.2,490.4L487.6,487.3L485.6,488.4L483.7,488.3L482.2,487.0L479.5,482.1L479.5,467.7L481.3,458.6L477.2,451.8L476.8,448.8L472.7,446.5L463.7,419.1L459.9,413.8L457.6,412.7L454.6,412.0L452.1,412.4L449.7,415.7L446.5,416.2L443.1,415.8L441.0,415.0L439.7,408.1L436.8,403.4L436.4,401.8L441.2,401.4L443.9,399.9L444.1,396.7L442.6,395.2L439.2,399.1L438.2,396.5L438.7,394.0L440.3,392.4L442.8,392.1L438.7,387.2L434.0,374.3L435.8,369.1L435.6,366.9L434.1,365.5L428.6,362.8L425.9,359.1L416.9,353.2L413.7,347.4L407.5,325.6L403.7,317.2L403.0,314.7L402.1,307.3L396.5,285.5L396.3,283.1L397.1,276.9L396.7,274.8L394.4,268.5L391.5,248.2L387.7,246.9L387.4,244.3L388.4,245.4L388.8,241.1L386.1,233.5L388.6,230.3L388.1,225.5L387.1,221.8L383.8,214.3L385.8,215.5L382.0,202.4L376.5,190.2L375.7,187.5L374.5,180.7L371.9,175.8L371.0,172.4L370.2,165.6L369.3,162.4L364.5,152.5L362.9,146.9L361.8,140.5L359.5,135.3L355.3,130.8L352.3,125.7L353.7,119.2L351.9,115.9L347.6,101.7L336.4,82.2L324.8,56.2L309.8,33.2L305.6,25.2L304.2,18.4L297.5,8.7L296.2,3.6L294.3,0.0L274.6,19.1L270.9,25.6L263.5,51.2L259.9,58.4L257.1,60.9L250.1,64.8L247.7,67.3L247.1,70.6L247.3,77.5L245.0,80.2L241.6,80.7L238.9,79.0L236.6,76.5L234.1,74.9L228.2,76.8L227.6,78.3L228.4,82.3L227.0,85.5L224.7,87.8L222.5,87.8L221.5,84.2L221.2,78.1L219.8,76.4L216.4,76.4L213.1,77.8L213.0,77.9Z " data-id="ER.DU" data-name="Debub" id="ER.DU"/>
utf-8utf-8<path d="M361.7,386.0L347.6,362.0L345.3,358.9L343.4,357.4L323.5,354.7L316.5,352.4L309.5,349.2L302.1,343.9L298.7,339.3L296.8,333.8L295.8,320.2L296.0,316.0L298.6,308.0L298.6,300.9L297.4,295.9L295.3,290.3L290.7,281.9L286.7,277.0L283.1,273.7L279.6,269.6L278.0,265.4L275.3,256.3L273.3,252.7L270.2,248.0L266.6,238.8L264.9,237.3L231.4,230.7L227.6,228.7L224.1,224.8L223.0,221.0L223.2,216.0L224.8,205.1L224.4,199.8L223.4,196.3L215.5,186.0L214.3,182.6L214.4,178.6L215.2,175.1L216.5,166.9L215.3,98.3L213.3,79.6L213.0,77.9L203.5,85.2L199.3,91.7L196.5,94.1L193.1,95.0L189.7,93.8L185.1,89.2L182.1,88.3L177.2,91.3L171.5,103.9L165.7,107.3L159.9,108.2L140.9,114.8L139.4,115.9L139.1,117.8L141.2,125.5L141.4,128.5L141.1,135.5L140.4,138.9L137.5,145.2L137.0,148.9L136.0,152.3L128.3,163.1L114.4,158.9L110.3,159.3L103.6,164.0L99.2,164.3L97.0,164.0L89.1,165.4L87.7,165.1L81.8,161.3L76.5,160.0L73.8,158.8L69.2,156.0L66.2,156.4L65.1,159.1L65.5,160.6L68.6,165.0L69.3,168.2L68.8,171.4L65.5,177.1L69.1,182.6L71.0,194.5L69.6,197.3L69.5,207.3L66.4,217.4L65.0,219.7L60.3,223.5L58.2,225.7L57.1,228.9L57.0,231.8L57.5,237.3L57.2,240.5L55.8,247.2L55.8,249.5L57.0,253.4L63.6,262.1L63.8,262.6L67.9,263.3L71.0,268.0L73.5,276.0L75.0,285.3L77.2,292.1L78.3,293.7L82.1,297.4L83.4,299.3L85.7,304.5L92.3,308.9L106.1,312.5L113.7,315.3L123.1,321.4L129.0,327.6L133.8,335.2L136.8,342.3L139.5,346.2L142.5,348.6L147.6,350.3L152.1,352.4L154.9,354.3L156.4,359.1L159.7,361.2L170.4,361.1L180.6,359.6L184.7,359.7L188.8,360.8L194.1,363.7L198.4,366.9L201.6,368.7L204.9,369.4L210.0,369.6L213.9,370.2L218.8,371.8L227.4,375.9L242.2,386.6L244.9,387.6L248.5,387.3L251.6,386.0L259.5,381.5L263.0,380.2L267.0,380.4L271.9,382.0L279.0,387.0L284.2,392.3L288.4,398.2L292.8,406.8L296.0,409.3L300.9,410.7L327.7,411.6L342.6,409.6L344.3,408.1L345.5,408.0L350.4,410.5L351.5,410.6L358.5,408.1L367.7,406.4L361.7,386.0Z " data-id="ER.SK" data-name="Semenawi Keyih Bahri" id="ER.SK"/>
utf-8utf-8<path d="M424.6,473.3L423.2,475.4L422.0,476.3L420.2,477.0L418.7,476.7L346.1,476.7L336.3,475.5L331.6,476.3L325.8,479.1L313.3,482.5L300.3,483.6L293.5,487.0L288.2,493.9L285.3,500.0L281.4,505.0L276.0,507.4L272.9,509.6L270.3,512.2L269.0,514.4L267.3,521.1L264.8,527.2L264.4,530.2L264.8,534.1L266.0,538.9L271.1,550.2L272.1,556.3L270.6,560.9L270.9,561.7L271.8,566.3L272.6,567.9L277.4,571.7L278.4,573.9L280.1,580.2L281.4,583.2L283.3,585.6L285.6,587.6L293.7,592.4L294.9,593.6L296.9,598.7L298.8,600.3L308.5,600.1L319.6,598.7L325.0,597.0L333.8,591.8L336.7,591.9L339.4,592.9L347.5,592.2L356.1,588.2L362.6,587.5L365.2,585.4L369.8,580.4L375.7,577.3L378.6,575.2L380.6,572.2L380.9,569.1L380.6,563.2L382.6,561.7L387.9,562.4L396.9,566.3L400.0,569.3L402.7,572.8L404.9,576.3L409.7,590.2L413.0,596.4L416.7,596.4L419.6,590.7L421.5,588.7L425.1,588.0L433.1,589.5L435.9,589.3L447.8,585.6L453.6,582.3L456.0,578.4L457.0,575.1L459.5,575.1L464.8,579.0L469.8,584.5L477.4,587.0L481.4,587.4L488.0,586.1L433.1,489.5L429.7,481.7L424.6,473.3Z " data-id="ER.MA" data-name="Maekel" id="ER.MA"/>
utf-8utf-8<path d="M608.7,510.9L609.2,517.3L612.8,533.4L613.5,540.2L613.2,546.5L611.2,552.7L599.2,573.4L592.6,591.3L583.0,610.9L581.6,614.0L592.0,624.3L600.7,629.2L616.6,637.5L620.8,639.0L634.2,641.1L644.3,645.2L653.5,652.3L686.1,691.4L709.7,734.3L714.4,739.2L761.0,771.5L788.6,795.9L794.6,802.5L799.9,809.8L804.9,818.5L817.5,846.1L825.6,858.1L837.4,866.3L846.0,870.2L854.3,875.3L861.6,882.0L871.9,900.3L884.6,918.4L891.9,926.7L899.1,917.6L901.7,917.1L905.7,918.3L912.6,921.7L936.5,944.4L943.6,939.6L946.6,934.9L951.0,934.0L952.8,932.9L953.4,928.4L951.9,923.1L951.1,918.1L957.3,911.4L960.3,902.3L962.7,899.9L965.9,901.7L967.4,901.6L998.6,886.2L999.5,885.0L995.2,877.1L994.3,869.5L993.2,867.3L988.2,863.3L984.5,857.6L980.1,854.1L979.4,858.3L980.4,860.0L979.0,860.9L978.6,864.4L977.3,866.8L970.2,872.6L968.8,872.4L970.7,869.0L965.4,868.6L961.3,867.3L958.3,864.5L956.2,860.0L950.4,862.7L948.2,862.2L947.1,860.4L945.2,849.9L942.5,843.8L940.7,834.4L939.4,831.8L933.1,827.1L930.2,826.6L928.2,825.3L922.7,815.7L915.0,808.8L913.3,804.9L910.6,802.5L909.3,798.5L907.3,798.0L905.6,802.7L903.9,804.3L901.2,804.8L894.5,804.2L891.3,803.1L886.4,798.9L885.2,790.8L883.0,786.8L879.8,767.4L878.6,763.2L875.5,760.2L874.0,757.7L872.2,752.2L871.9,745.4L870.8,741.2L865.9,738.3L860.1,730.3L854.9,725.7L852.9,725.8L852.5,728.0L855.6,728.2L860.3,731.5L860.3,736.0L857.3,736.0L859.2,739.4L861.4,742.4L861.4,744.7L860.3,744.7L855.5,739.4L853.8,734.1L849.0,728.6L845.1,730.2L843.6,729.7L842.5,727.9L840.7,722.3L838.7,721.1L837.5,718.8L832.3,711.5L826.0,706.3L823.7,697.2L820.1,695.1L814.7,691.3L806.2,691.3L800.5,687.3L797.4,681.8L794.4,681.3L789.8,683.3L787.8,683.2L778.3,680.1L776.9,677.6L775.1,670.7L769.3,659.4L766.9,656.4L764.3,654.0L757.2,649.0L751.2,634.4L747.2,629.4L740.1,622.9L736.9,618.8L734.7,612.1L729.9,605.7L724.9,602.8L723.6,600.2L722.5,594.0L719.9,588.3L716.2,583.5L705.0,575.0L702.9,572.2L700.3,566.0L698.4,563.5L696.7,562.7L679.5,558.4L669.6,558.0L665.4,556.7L660.8,553.1L656.3,550.5L648.5,550.9L645.1,549.3L645.2,552.5L643.6,551.8L639.2,553.7L639.0,550.5L637.7,548.6L633.8,545.6L632.5,543.4L632.4,541.5L633.5,537.7L633.2,531.9L632.4,530.5L631.1,530.9L623.7,522.8L624.6,521.6L626.9,522.5L626.0,519.3L622.0,519.1L620.8,520.0L621.6,522.8L617.3,520.8L616.8,519.5L615.9,512.9L613.8,510.6L608.9,510.9L608.7,510.9Z " data-id="ER.DK" data-name="Debubawi Keyih Bahri" id="ER.DK"/>
utf-8</g>
</svg>
