<?xml version="1.0" encoding="UTF-8" standalone="no"?>
<svg
   xmlns:dc="http://purl.org/dc/elements/1.1/"
   xmlns:cc="http://creativecommons.org/ns#"
   xmlns:rdf="http://www.w3.org/1999/02/22-rdf-syntax-ns#"
   xmlns:svg="http://www.w3.org/2000/svg"
   xmlns="http://www.w3.org/2000/svg"
   xmlns:sodipodi="http://sodipodi.sourceforge.net/DTD/sodipodi-0.dtd"
   xmlns:inkscape="http://www.inkscape.org/namespaces/inkscape"
   enable_background="new 0 0 1000 1013"
   height="509.89999"
   pretty_print="True"
   style="fill:none;stroke:#000000;stroke-linejoin:round"
   version="1.1"
   viewBox="0 0 579.09998 509.89999"
   width="579.09998"
   id="svg3071"
   inkscape:version="0.48.4 r9939"
   sodipodi:docname="es.svg"><sodipodi:namedview
   pagecolor="#ffffff"
   bordercolor="#666666"
   borderopacity="1"
   objecttolerance="10"
   gridtolerance="10"
   guidetolerance="10"
   inkscape:pageopacity="0"
   inkscape:pageshadow="2"
   inkscape:window-width="640"
   inkscape:window-height="480"
   id="namedview3171"
   showgrid="false"
   inkscape:zoom="0.23297137"
   inkscape:cx="80"
   inkscape:cy="3.7000061"
   inkscape:window-x="0"
   inkscape:window-y="0"
   inkscape:window-maximized="0"
   inkscape:current-layer="svg3071" />


utf-8<defs
   id="defs3073">
utf-8utf-8<style
   type="text/css"
   id="style3075">path { fill-rule: evenodd; }utf-8utf-8</style>


utf-8</defs>


utf-8<metadata
   id="metadata3077">
utf-8utf-8<views
   id="views3079">
utf-8utf-8utf-8<view
   h="1013.7219331"
   padding="0"
   w="1000"
   id="view3081">
utf-8utf-8utf-8utf-8<proj
   flip="auto"
   id="robinson"
   lon0="-2.68197133722" />


utf-8utf-8utf-8utf-8<bbox
   h="536.44"
   w="529.7"
   x="-482.2"
   y="-733.79"
   id="bbox3084" />


utf-8utf-8utf-8</view>


utf-8utf-8</views>


utf-8<rdf:RDF>
  <cc:Work
     rdf:about="">
    <dc:format>image/svg+xml</dc:format>
    <dc:type
       rdf:resource="http://purl.org/dc/dcmitype/StillImage" />
  </cc:Work>
</rdf:RDF>
</metadata>


utf-8<g
   class=""
   id="provinces"
   transform="translate(-420,-0.30000389)">
utf-8utf-8<path
   d="m 844.1,21.7 -1.4,0.2 0.5,1.6 -6.6,-0.7 -1.3,-1.1 0,-2.8 -1.3,-0.9 -1.1,1.5 -1.9,0.2 -0.6,-0.5 -0.4,0.3 -0.2,3.9 1.1,0.4 2.3,-1 -0.3,1.8 1.3,1.9 -6,-0.6 -1.2,1.4 1,1.9 2.6,-1.6 -0.6,2.2 0.7,1.5 1.5,-0.5 5.6,4 0.1,0.3 0,0.3 3.8,3 4.1,0.4 2.5,0.7 0.5,0.1 0.1,-0.5 -0.5,-2.6 -1.8,-0.3 2.2,-1.6 2,0.5 0.2,-2.3 1.1,-1 1.1,-3.2 -0.4,-1.3 -0.7,0 -1.8,-1.5 -5,-0.5 -1.3,-0.5 1.8,-2 -0.4,-1.3 -1.3,0.2 z m -1.1,9.4 3.1,3.3 -3,0.4 -4.6,-4.3 4.5,0.6 z"
   data-id="ES.PV"
   data-name="Álava"
   id="ES.PV"
   inkscape:connector-curvature="0" />


utf-8utf-8<path
   d="m 886.1,155.2 -0.2,-2.1 -1.4,-3 -2.9,0.6 -1.5,-0.5 -2.8,-4 -3.7,-9.5 -2.1,-1.5 -0.3,-0.1 -6.2,3.2 -0.8,1.3 -3,-0.8 -2.7,0.4 -2.6,-2.1 1.1,2.9 -3.1,-0.4 -3.1,1.7 -2.2,-0.2 -3.5,-3.4 -3.9,0.6 -2.1,0.1 0.5,1.6 -3.2,4.2 0.9,2.6 -1.9,3.5 2.1,1.2 1.7,3.7 1.3,0.4 0.9,2.3 -2.7,5.1 -0.2,0.4 0.9,0.6 3.8,2.8 2.1,0.9 0.5,3.2 1,1.3 -2.8,5.3 -0.3,0.4 2.1,1 2.8,0.8 0.2,0.1 0.3,-0.1 0.4,-1.2 7,-7.3 1.5,0.3 4,-1.5 2.1,-1.5 2.9,1.9 4.4,-2.1 1.4,-8.8 1.6,-1.5 5.1,-1.6 2.5,2.1 1.4,1 0.4,-0.1 2.7,-0.8 -1.2,-1.9 0.3,-1.2 0.2,-0.1 0.3,-0.2 z"
   data-id="ES.CM"
   data-name="Albacete"
   id="ES.CM"
   inkscape:connector-curvature="0" />


utf-8utf-8<path
   d="m 890.1,185.4 1.9,-4 2.1,-6.6 2.7,-0.9 -0.3,-3 10,-7.5 1.1,0 0.9,-2 5.2,-2.9 2.1,-2.7 -6.1,-3.1 -0.6,-0.4 -5.1,0.9 -2.1,-0.9 -2.8,2 -4.6,0.8 2.3,1.6 -3.7,0.8 -2.1,-1.1 -2.6,0.2 -2.2,-0.9 -0.4,-0.3 -0.2,0.1 -0.3,1.2 1.2,1.9 -2.7,0.8 -0.4,0.1 0.5,2.1 -0.4,2.2 -1.7,3.4 0.9,2.3 2.1,2.3 -1.7,5.6 5,7.4 2,0.7 0,-0.1 z"
   data-id="ES.VC"
   data-name="Alicante"
   id="ES.VC"
   inkscape:connector-curvature="0" />


utf-8utf-8<path
   d="m 852.5,183.2 -1.7,1.1 -0.3,3.8 -1,2.1 0.1,2.5 -1.6,0.3 0.5,2.9 -3.5,1 -4.1,3.9 -0.4,5.1 -5.2,-1.6 -0.6,2.6 -1.6,2.2 -1.4,4.5 -1.9,1.9 1,2.2 -3,1.8 0.3,1.4 1.4,-0.1 5,0.5 1.7,0.6 5.3,-0.4 1.5,-3 6.3,-0.3 4,3.3 1.4,-0.6 4.7,-6 0.6,-0.1 2.6,-8.8 4.4,-5.2 0.1,-0.4 -2.6,-1.9 -2.5,-0.5 -4.3,-6.7 0.1,-4 0.7,-2.5 -5.1,-1 -0.9,-0.6 z"
   data-id="ES.AN"
   data-name="Almería"
   id="ES.AN"
   inkscape:connector-curvature="0" />


utf-8utf-8<path
   d="m 790.3,11.5 -2.6,-1 -8.6,-1.2 -3,-1.5 -9.5,-0.7 -4,-3.1 -1.8,2.3 -7.2,0.3 -0.8,-0.6 -6.2,0.7 0.1,0.6 -4.6,-0.8 -9,0.7 -1.1,2.4 -0.1,-0.1 -3.2,2.6 2.4,3 0.2,1.3 4.9,2.5 0.8,1.1 -2.8,1.8 -1.2,2.2 3.8,1.7 0.1,1.1 0.8,0.2 0.8,0.5 6.7,-1.1 0.5,-1.6 3,-2.1 3.3,1.1 2.9,-0.4 0.9,-1.1 3,0.8 3,2 3.3,-2.2 5.8,0.5 0.3,-0.6 9.2,-1.9 1.4,-2.1 4,-1.8 1.2,0.4 0.7,1.1 0.3,0 3,-2.5 2.5,-0.8 2.3,-3.3 -5.5,-0.4 z"
   data-id="ES.AS"
   data-name="Asturias"
   id="ES.AS"
   inkscape:connector-curvature="0" />


utf-8utf-8<path
   d="m 787.2,81.5 -2.3,0.9 -2.3,-1.5 -3.4,0.4 -0.5,0.3 -0.5,1 1.2,3 -0.5,2.7 -1.3,1.5 -2.2,4 -3.1,2 -3.9,3.9 1.9,0 -2.9,3.8 -1.7,-1.3 -2,2 0.2,1.8 -1.2,1.7 1,0.4 3.7,2.6 4.4,-1.8 0.6,3.7 0.4,0.6 2.5,0.3 1.7,0.6 3.9,-2 0.7,1.2 1.5,-0.6 3,-3 0.2,-1 2.8,-0.5 0.3,1.6 2.2,0.7 0.7,-0.3 0.4,-0.5 0.8,-2.1 2.5,-2.4 2.5,-1.1 0.5,-3.7 1.3,-3 2.7,-1.4 0.2,-0.6 -0.6,-0.3 -1.6,-0.1 -0.4,0 -0.4,0.2 0.5,1 -1.7,0.1 -0.5,0.4 -2,0.4 -1.8,-6.2 -1.7,-3.6 -3.8,-4.4 0.4,-2 -2.4,0.6 z"
   data-id="ES.CL"
   data-name="Ávila"
   id="ES.CL"
   inkscape:connector-curvature="0" />


utf-8utf-8<path
   d="m 779.8,157 0.6,-0.1 1.5,-3.6 2.2,-1.1 0.6,-1.4 -1,-3.3 2,-5.3 3.3,0.7 -1.9,-3.8 2,-3.8 -0.3,-1.1 -0.3,0.4 -1.3,0.6 -0.4,0.5 -1.2,0.4 -1.7,0.8 -1.7,-0.8 -1.2,0.6 -6.6,2 -1.9,-0.6 -1.4,4.2 -5.1,-0.4 -1.2,0.6 -0.1,2.8 -1.9,0.6 -3.1,-2 -3,2 -2.5,-1.4 -3.2,3 -3.8,-2.2 -0.6,-2.6 -1.4,0.6 -7.4,-1.1 -0.6,0.7 -3,-2 1.3,-2 -1.2,-2.4 -2.3,-0.2 -4.1,-1.6 0.2,3.6 -2,-1.9 -2.3,3.7 -1.2,-0.2 -0.4,0.6 7,5.9 -1,3.9 -7,7.4 -1.8,7 0,1.7 3.3,3.9 4.4,4.2 2,-0.6 0.3,0.2 3.9,0.9 -0.4,1.7 5.4,1.3 0.7,1.6 2,0.4 1.5,-1.3 6.2,3.4 0.4,0.4 0.4,-0.4 5.7,-1.8 1.2,-3.7 5.1,-1.9 2.3,1.4 1.1,0.1 1.2,-0.9 0.5,-1.9 -1.1,-3.5 -0.1,-3 4,-2.9 0.9,-1.6 8.4,-5.1 0.7,-0.1 0.4,-0.2 z"
   data-id="ES.EX"
   data-name="Badajoz"
   id="ES.EX"
   inkscape:connector-curvature="0" />


utf-8utf-8<path
   d="m 947.2,156.5 -1.4,2.6 1.9,-0.4 1.7,1 1.5,-0.8 -3.7,-2.4 z m 3.5,-11.3 -7.3,2.3 0.2,2.1 -1.9,0.8 0.8,2.7 2.2,-0.2 0.7,1 5.3,-4.9 0,-3.8 z m 36.3,-1.1 -1.1,-1 -0.6,0.6 1.7,0.4 z m 4.8,-26.2 -6.3,1.7 -7.6,4.5 -7.2,5 0.7,2.6 2.5,0.4 0.4,1.5 4.1,-3 2.3,1.3 0.5,3.9 1.7,1.2 4.1,0.4 2.3,2.5 5.4,-4.7 0.2,-1.8 3.7,-8.7 -1.5,-0.8 -4.1,0.9 -2.2,-1.3 1,-5.6 z"
   data-id="ES.PM"
   data-name="Baleares"
   id="ES.PM"
   inkscape:connector-curvature="0" />


utf-8utf-8<path
   d="m 956.8,45.5 -3.2,0.5 -0.9,1.2 1.4,2.5 -0.7,1.1 -1.9,9.3 -1.8,1.9 -3.5,-0.9 -0.4,2.8 0.8,1.9 -0.7,1.6 -0.4,0.5 0.6,0 -0.5,1.7 2.3,3.5 1.3,0.7 1.3,2.6 -0.2,1.6 1.2,1.7 5,-1.4 6.1,-1.1 1.8,-0.9 4.2,-5 9,-4.3 3.2,-1.3 -0.3,-2.3 -3.3,-0.4 -2.3,0.5 -5.4,-5.2 1.2,0.5 3,-4.7 -5.7,-3.7 -4,0.7 -1.8,-1.9 -0.2,-3 -3.4,-1.1 -1.8,0.4 z"
   data-id="ES.CT"
   data-name="Barcelona"
   id="ES.CT"
   inkscape:connector-curvature="0" />


utf-8utf-8<path
   d="m 843,31.1 -4.5,-0.6 4.6,4.3 3,-0.4 -3.1,-3.3 z m -12.6,-11.9 0,-0.3 -3.4,-0.7 -2.2,1.2 -1.5,0.5 -0.8,0.1 -4.6,-1.2 -5.2,2.8 -0.1,0.9 -3,2.1 0.1,2.5 2.3,-1.3 0.8,0.8 -2,1.3 2,0.2 0.4,1.9 -2.6,1.2 -3.3,0.1 -1,0.2 -0.3,0.5 -4.3,1.2 -0.8,3.1 1.2,4.6 -2.2,0.5 1.3,1.7 1,4.7 1.1,1.5 -0.4,1.4 2.1,0.2 2.3,4.7 2.9,-0.5 0.3,1.3 -2,0.7 -1.9,1.8 0.3,2.4 0,0.7 -0.4,0.8 0.5,3.4 1,0.7 0.3,0.8 2.3,1.1 2.6,1.4 0.4,1.3 5.1,-3.3 0.8,-0.4 0,-0.5 2.1,0.2 1.7,-3.1 3,-2.5 0.2,-2.9 2.5,2.2 6.2,-6.9 0.6,-0.2 -0.2,-1 -2.7,-1 -1.9,-3.9 0.1,-3.5 0.7,-0.9 -0.2,-6.5 4.5,-1.6 1.8,-0.6 -0.1,-0.3 -5.6,-4 -1.5,0.5 -0.7,-1.5 0.6,-2.2 -2.6,1.6 -1,-1.9 1.2,-1.4 6,0.6 -1.3,-1.9 0.3,-1.8 -2.3,1 -1.1,-0.4 0.2,-3.9 0.4,-0.3 z"
   data-id="ES.CL"
   data-name="Burgos"
   id="path3096"
   inkscape:connector-curvature="0" />


utf-8utf-8<path
   d="m 761.8,108 -0.8,-1.8 -1.9,0.5 -5.4,-0.7 -0.9,-2.7 -2.3,-1.4 -8.8,4.5 -1.1,1.9 -1.8,0.4 -5.6,-0.6 0,0.3 -3.7,1.4 -0.4,2.9 1.8,0.9 1.9,3 -4.3,10.1 -3.8,0.4 -9.7,-0.1 1,2.7 2.9,3.1 2,0.9 0.4,4.7 1.3,1.5 1.2,0.2 2.3,-3.7 2,1.9 -0.2,-3.6 4.1,1.6 2.3,0.2 1.2,2.4 -1.3,2 3,2 0.6,-0.7 7.4,1.1 1.4,-0.6 0.6,2.6 3.8,2.2 3.2,-3 2.5,1.4 3,-2 3.1,2 1.9,-0.6 0.1,-2.8 1.2,-0.6 5.1,0.4 1.4,-4.2 1.9,0.6 6.6,-2 1.2,-0.6 -0.3,-0.3 -6.1,-6.1 0.7,-6.4 -3.5,0.1 -0.4,-3 -1.5,-1 1,-5.8 0.7,-0.4 -0.4,-0.6 -0.6,-3.7 -4.4,1.8 -3.7,-2.6 -1,-0.4 -0.9,0.3 z"
   data-id="ES.EX"
   data-name="Cáceres"
   id="path3098"
   inkscape:connector-curvature="0" />


utf-8utf-8<path
   d="m 774.7,213.6 -3.6,-1.4 -2.9,2.1 -0.1,-2.8 -4.1,3.7 -1.4,-1.2 -2,1.3 -3.3,0.3 -1.3,2.2 -5.6,-0.5 -3.3,-1.5 -1.9,-0.1 -0.9,0.8 -0.8,8.4 1.8,0.2 2.9,3.3 -1.4,1.3 -1.4,-2.1 1.7,4.4 4.6,6.8 3.7,0.5 2.6,2.9 2.8,0.6 2,1.9 4.7,-2 0.2,-3.6 2.3,1.3 2.2,-4.9 0.1,-0.1 -1.7,-0.9 -0.9,-3.5 -2.2,-2.9 -2.8,0.9 -1.1,-1.4 2.2,-0.7 4.5,-3.4 0.5,-2.1 -0.3,-3.5 1.9,-1.1 2.6,1.4 2,-2.1 -0.2,-2 -1.2,-1.5 -0.9,1 z"
   data-id="ES.AN"
   data-name="Cádiz"
   id="path3100"
   inkscape:connector-curvature="0" />


utf-8utf-8<path
   d="m 827.3,17.3 -0.5,-0.9 -0.5,-0.1 1,1 z m -31.5,-5.4 -2.3,3.3 -2.5,0.8 -3,2.5 -0.3,0 -0.2,1.6 1.6,1.7 0.8,1 0.1,0.2 0.2,0.7 0.5,0.1 6.6,-1.1 2.3,2 2.9,1.1 0.4,3 2.2,0.1 -1.4,0.9 2.3,1.3 0.3,0.4 1,-0.2 3.3,-0.1 2.6,-1.2 -0.4,-1.9 -2,-0.2 2,-1.3 -0.8,-0.8 -2.3,1.3 -0.1,-2.5 3,-2.1 0.1,-0.9 5.2,-2.8 4.6,1.2 0.8,-0.1 -0.1,-0.3 -0.1,-2.8 2.2,-1.4 5,-2.2 0,0 -3,-1.3 -4.8,-0.3 -3,-3.2 -3.8,1.2 -1.7,1.5 -2.2,-1.5 -7.7,2.2 -7.5,0.7 -0.7,-0.6 -0.1,0 z"
   data-id="ES.CB"
   data-name="Cantabria"
   id="ES.CB"
   inkscape:connector-curvature="0" />


utf-8utf-8<path
   d="m 913.6,94.3 -6.8,-1 -1.9,-0.7 -2.9,5.2 0.9,4 -1.7,1.2 1.4,1.9 -4.8,4.6 -1.9,-0.2 -1.9,4.2 0.2,0.9 -3.7,1.2 -2.1,2.3 1,2.5 0.1,0.3 0.5,0.3 3,1 0.6,2.8 2.6,-1.5 1.4,2.1 2.5,-1.7 4.8,2.1 2.7,-4.1 7.6,-10.2 3.7,-3.6 4.3,-7.1 0.2,-0.4 -3.5,-2.4 -1.8,-0.6 -2.5,-3.4 -0.6,0.2 -0.6,-0.2 -0.8,0.3 z"
   data-id="ES.VC"
   data-name="Castellón"
   id="path3103"
   inkscape:connector-curvature="0" />


utf-8utf-8<path
   d="m 769.8,249.8 -0.7,-2.4 -0.5,-0.1 1.2,2.5 z"
   data-id="ES.CE"
   data-name="Ceuta"
   id="ES.CE"
   inkscape:connector-curvature="0" />


utf-8utf-8<path
   d="m 787.2,135.2 -0.3,-0.5 -0.2,-2.7 -2.3,-1.1 -0.9,1.2 -1.3,4 1.7,0.8 1.7,-0.8 1.2,-0.4 0.4,-0.5 z m 1.6,-1 0.3,1.1 -2,3.8 1.9,3.8 -3.3,-0.7 -2,5.3 1,3.3 -0.6,1.4 -2.2,1.1 -1.5,3.6 -0.6,0.1 -0.4,0.2 1.5,1.1 2.8,0.6 1.1,2.3 2.5,0.7 5.4,4 1.8,1.9 4.1,1.5 0.4,0 0,-1.2 9.9,0.2 2.2,-1.4 4.9,0.7 5.2,-0.4 1.5,-1.9 7.6,-0.3 2,1 2.9,-0.3 3,-2 0.3,-0.3 0.2,-0.4 2.7,-5.1 -0.9,-2.3 -1.3,-0.4 -1.7,-3.7 -2.1,-1.2 1.9,-3.5 -0.9,-2.6 3.2,-4.2 -0.5,-1.6 -1.2,-2.5 -1.1,1.3 -1,-1.1 -0.9,-1.2 -0.6,-1.3 -1.3,0.8 -2.3,-0.2 -1.9,-1.4 -5.2,2.9 -1.4,0 -4.2,3.3 -0.7,-0.3 -3.9,1.3 -1.1,-0.8 -4.9,-0.2 -0.1,-1.7 -2.6,-0.4 -1.1,0.7 0,-3.6 1,0.2 -1.1,-3.6 -0.9,-0.4 -0.9,2.5 -1.3,0.6 -4.7,-0.9 -2.2,-1.3 -2.8,3 -1.9,0.1 z"
   data-id="ES.CM"
   data-name="Ciudad Real"
   id="path3106"
   inkscape:connector-curvature="0" />


utf-8utf-8<path
   d="m 798.6,169.3 -4.1,-1.5 -1.8,-1.9 -5.4,-4 -2.5,-0.7 -1.1,-2.3 -2.8,-0.6 -1.5,-1.1 -0.7,0.1 -8.4,5.1 -0.9,1.6 -4,2.9 0.1,3 1.1,3.5 -0.5,1.9 -1.2,0.9 0,0.6 2.2,2.3 0.4,2 1.6,1.7 0,1.4 2.6,3.6 0,2.4 -2.7,0.8 0.3,1.4 3.2,0.2 5.9,-2.7 1.8,0.6 0.9,5.4 3.1,5.3 1.5,0.9 1.4,-1 1.3,2.7 0.1,0.7 1.1,0 0.4,1.1 4,-1.8 1.6,0 0.3,2 1.2,0.4 0.1,0.5 1.7,-1.4 1.3,-4 0.9,0.2 2.6,-1.8 1.9,0 -0.9,-1.7 -4.5,-5.5 0.8,-2.5 -2.5,-3.7 0.6,-4.6 -0.6,-1.3 3.1,-4.3 0.1,-1.4 -1.9,-5.1 -0.8,-0.3 -0.4,0 z"
   data-id="ES.AN"
   data-name="Córdoba"
   id="path3108"
   inkscape:connector-curvature="0" />


utf-8utf-8<path
   d="m 862.2,103.4 -0.8,-3.2 -1.7,-2.1 -0.7,0.4 -2.6,-1.7 -4.8,-0.1 -3.7,2 0.7,1 -3.8,2.5 0.6,1.5 -2.9,-1 -2.5,1.7 -2.2,-0.3 -0.3,6.2 -5.1,1.7 -1.3,-0.4 -0.2,0.3 -0.2,0 -0.4,2.7 -0.5,0.1 -1.3,0.1 -0.2,0.6 1.9,3.6 2.4,6.6 2.3,2.5 -0.4,1.3 -0.2,4.2 0.6,1.3 0.9,1.2 1,1.1 1.1,-1.3 1.2,2.5 2.1,-0.1 3.9,-0.6 3.5,3.4 2.2,0.2 3.1,-1.7 3.1,0.4 -1.1,-2.9 2.6,2.1 2.7,-0.4 3,0.8 0.8,-1.3 6.2,-3.2 0,0 0.1,-4.5 3.7,-3.8 1.4,0.4 2.1,-4.4 0.4,-4 1.2,-0.8 0.3,-0.3 -0.4,-1.2 -0.5,0.1 -1.6,0.4 -3.5,-0.8 -1.8,-3.4 0.1,-0.6 0.1,-0.3 -6.6,-4.3 -1.6,-2.6 -1.1,-0.7 0,0 -1.3,-0.9 z"
   data-id="ES.CM"
   data-name="Cuenca"
   id="path3110"
   inkscape:connector-curvature="0" />


utf-8utf-8<path
   d="m 960.4,41.3 -0.2,-1 -0.8,0.3 1,0.7 z m -7,-1.6 0.8,1.8 1.7,0.5 0.7,2.8 0.2,0.7 1.8,-0.4 3.4,1.1 0.2,3 1.8,1.9 4,-0.7 5.7,3.7 -3,4.7 -1.2,-0.5 5.4,5.2 2.3,-0.5 3.3,0.4 0.3,2.3 0.4,-0.7 8.2,-5.5 0.8,0.1 2,-3.9 -2.8,-5.2 -0.1,-2.3 0.8,-1.2 1.5,0.5 1.9,-0.7 0.8,-1.9 -3.3,-0.8 -0.2,-2.5 -6.3,-1.2 -11.4,4.1 -2.8,-1.6 -3.3,-1.1 -6,2.4 -3.6,-3 -3.5,-1.3 -0.5,-0.2 z"
   data-id="ES.CT"
   data-name="Gerona"
   id="path3112"
   inkscape:connector-curvature="0" />


utf-8utf-8<path
   d="m 848.8,179.8 -0.2,-0.1 -2.8,-0.8 -2.1,-1 -1.4,0.6 0.1,1.8 -2.7,1.1 -2.2,1.9 -3.1,8 -5,2.2 -4.2,-1.2 -1.6,1.8 -5,-1.2 -3.2,2.7 -4.3,2.1 -1.3,2.6 -2.9,0.2 -1.3,-0.8 -1.9,0 -2.6,1.8 -0.9,-0.2 -1.3,4 -1.7,1.4 0.8,2.1 0.7,3.1 2.9,2.5 7.1,3 1.2,0 1.5,1.7 -0.2,2.1 1.2,0.4 6.6,0.9 3.9,-1.6 4.5,0 0.7,0 -0.3,-1.4 3,-1.8 -1,-2.2 1.9,-1.9 1.4,-4.5 1.6,-2.2 0.6,-2.6 5.2,1.6 0.4,-5.1 4.1,-3.9 3.5,-1 -0.5,-2.9 1.6,-0.3 -0.1,-2.5 1,-2.1 0.3,-3.8 1.7,-1.1 0,0 -1.9,-2 -0.3,-0.6 -0.3,-0.3 -0.9,-0.6 -0.3,0.1 z"
   data-id="ES.AN"
   data-name="Granada"
   id="path3114"
   inkscape:connector-curvature="0" />


utf-8utf-8<path
   d="m 857.4,81.5 -1,1.3 -1.4,-0.7 -6.8,1.6 -1.3,-0.5 -6.7,-6 -3.3,0 -0.6,-1.2 -5.2,1 -3,-0.6 -0.5,0.2 -4.4,1.2 -0.8,1.4 -2.8,1.5 -0.4,0 0.1,0.5 2.6,2.1 0.6,2.7 -2.3,6.1 1,0.4 3.4,4.8 0.7,2.7 2.5,1.9 1,4.6 -0.6,0.6 2.4,3.6 0.3,1.2 0.2,-0.3 1.3,0.4 5.1,-1.7 0.3,-6.2 2.2,0.3 2.5,-1.7 2.9,1 -0.6,-1.5 3.8,-2.5 -0.7,-1 3.7,-2 4.8,0.1 2.6,1.7 0.7,-0.4 1.7,2.1 0.8,3.2 1.3,0.9 0.3,-0.4 3.2,-5.5 2,0.7 1.1,-0.8 -1.4,-10.4 -0.3,-0.6 -0.9,-0.7 -2,-1.7 -0.8,-1.2 -5.2,-3.3 -2.1,0.6 0,0.5 z"
   data-id="ES.CM"
   data-name="Guadalajara"
   id="path3116"
   inkscape:connector-curvature="0" />


utf-8utf-8<path
   d="m 849.1,14.2 -0.3,1.9 -1.9,1.3 -0.6,4 -0.9,0.1 0.4,1.3 -1.8,2 1.3,0.5 5,0.5 1.8,1.5 0.7,0 0.4,-0.7 5,-2.2 0.7,-2.2 2.3,-1.5 0.4,-3 4.1,-2.5 -0.1,-0.1 -1.5,-2.9 -8,3.3 -6,-0.9 -1,-0.4 z"
   data-id="ES.PV"
   data-name="Gipuzkoa"
   id="path3118"
   inkscape:connector-curvature="0" />


utf-8utf-8<path
   d="m 748.7,182.1 -6.2,-3.4 -1.5,1.3 -2,-0.4 -0.7,-1.6 -5.4,-1.3 0.4,-1.7 -3.9,-0.9 0.1,0.1 -2.2,5.6 -2.8,-0.3 -3.6,2.6 -1.8,4.5 -2.5,1.9 -1.3,8.9 1.2,9.1 8.6,-0.5 3.7,1.2 -0.5,-2 2.9,-2 -1.6,3.4 10.6,7.4 2.8,4.9 1.2,-3 0.1,-0.1 -1,-1 0.7,-1.6 -0.6,-2 1,-4.2 0,-4.1 -0.8,-0.8 0.8,-2.7 -1,-6.2 -3.6,-0.8 1.7,-3 8.5,-4 -0.5,-2 -0.4,-0.9 -0.4,-0.4 z"
   data-id="ES.AN"
   data-name="Huelva"
   id="path3120"
   inkscape:connector-curvature="0" />


utf-8utf-8<path
   d="m 891,26.7 -2.5,2.1 -0.6,2.5 -0.7,0.4 -0.2,0.4 -0.2,0.8 0.3,6.8 1.5,3.8 -2.1,3.3 4.8,-1.4 -0.6,1.5 0,5.7 -2.6,0.4 -0.2,1 2.2,2.2 4.4,2.1 2,1.5 0.6,2.6 4.8,4 2.7,0.9 1.4,2.1 2.1,4.8 4.5,0.6 3.5,-2.4 2.5,0.7 0.2,-0.8 2.4,-3.5 -2,-1.6 -0.9,-2.4 6.9,-6.1 -0.4,-2.5 1.5,-1.1 2.3,-7.8 0.8,-11.1 -2.6,-2.7 -0.2,0.3 -6.8,0.1 -0.9,-1 -2,1.5 -3.6,-1.5 -4.4,1 -1,-0.4 -2.1,-3 -2.1,-0.3 -7.4,0.6 -5.2,-3.8 -0.1,-0.3 z"
   data-id="ES.AR"
   data-name="Huesca"
   id="ES.AR"
   inkscape:connector-curvature="0" />


utf-8utf-8<path
   d="m 844,177.5 2.8,-5.3 -1,-1.3 -0.5,-3.2 -2.1,-0.9 -3.8,-2.8 -0.9,-0.6 -0.3,0.3 -3,2 -2.9,0.3 -2,-1 -7.6,0.3 -1.5,1.9 -5.2,0.4 -4.9,-0.7 -2.2,1.4 -9.9,-0.2 0,1.2 0.8,0.3 1.9,5.1 -0.1,1.4 -3.1,4.3 0.6,1.3 -0.6,4.6 2.5,3.7 -0.8,2.5 4.5,5.5 0.9,1.7 1.3,0.8 2.9,-0.2 1.3,-2.6 4.3,-2.1 3.2,-2.7 5,1.2 1.6,-1.8 4.2,1.2 5,-2.2 3.1,-8 2.2,-1.9 2.7,-1.1 -0.1,-1.8 1.4,-0.6 0.3,-0.4 z"
   data-id="ES.AN"
   data-name="Jaén"
   id="path3123"
   inkscape:connector-curvature="0" />


utf-8utf-8<path
   d="m 688.4,33.8 8.7,-3.1 1,0.3 2.3,-1.7 5.9,-0.1 0.8,-0.3 0.7,-1.1 1.6,-1.6 -0.1,-4.8 -0.8,-3 2,-4.6 0.2,-2 1.2,0.2 2.4,-3.7 -0.3,-0.7 1.8,-5.7 0,-0.4 -2.9,0.6 -1.3,1.7 -1.2,0 0.1,-3 -4.4,3.9 -4,2 -2.7,3.1 3.5,-0.4 -0.4,4.8 -1.5,-1.8 -1.9,-0.2 -0.4,1.4 -2.2,-0.8 -3,1.9 -3.9,0.5 -7,0.4 1.3,1.2 -7.3,2.7 1.9,0.6 -1.9,0.6 -0.9,1.4 -0.5,5.2 2,-1.4 1.9,5.7 5.5,-1.7 -3.2,2.5 -1.8,4.2 3.4,-0.3 2.6,-2.4 1.8,1.2 0.8,-1.3 0.2,0 z"
   data-id="ES.GA"
   data-name="La Coruña"
   id="ES.GA"
   inkscape:connector-curvature="0" />


utf-8utf-8<path
   d="m 848.3,39.5 -2.5,-0.7 -4.1,-0.4 -3.8,-3 0,-0.3 -1.8,0.6 -4.5,1.6 0.2,6.5 -0.7,0.9 -0.1,3.5 1.9,3.9 2.7,1 0.2,1 1,0.3 2.2,-2.7 1.3,-0.5 0,1.7 1.6,1.9 2.6,-0.3 4.1,-3.9 3.1,0.1 2.5,1 2.1,4.5 3.5,1.2 1.8,-0.7 1,-0.5 0.2,-0.7 0.1,-0.1 -0.2,-0.6 -0.9,-0.7 3.5,-3.7 1.7,0.1 -4.4,-4.4 -2.9,-3.3 -3.3,-1.6 -2.5,0 -1.9,-1.4 -2.7,-0.1 -0.5,-0.1 -0.5,-0.1 z"
   data-id="ES.LO"
   data-name="La Rioja"
   id="ES.LO"
   inkscape:connector-curvature="0" />


utf-8utf-8<path
   d="m 494.2,493.9 -7.8,-0.9 -0.7,3.5 -2.6,2.3 1.1,4.9 3.2,2.4 5.4,-1.2 2.1,-1.9 -0.7,-9.1 z m 31.6,0.3 3.4,-2.2 4.2,-0.9 4,-15.4 -0.7,-0.9 -3.9,1.3 -0.1,1.1 -7.6,15.6 -6.2,3.4 3.4,0.5 3.5,-2.5 z m 22.2,-32.1 -3.9,0.4 -4.8,2.2 -2.7,5.4 1.6,1.1 3.8,-2 4.4,-1.8 1.3,-1.7 0.3,-3.6 z m -0.8,-3 0.4,-0.8 -0.2,-0.6 -0.2,1.4 z"
   data-id="ES.CN"
   data-name="Las Palmas"
   id="ES.CN"
   inkscape:connector-curvature="0" />


utf-8utf-8<path
   d="m 787,17.4 -1.2,-0.4 -4,1.8 -1.4,2.1 -9.2,1.9 -0.3,0.6 -5.8,-0.5 -3.3,2.2 -3,-2 -3,-0.8 -0.9,1.1 -2.9,0.4 -3.3,-1.1 -3,2.1 -0.5,1.6 -6.7,1.1 -0.8,-0.5 -0.8,-0.2 -0.3,0.3 -0.7,3 -2,1.9 -2,0.8 -0.1,2 -1.3,4 -0.2,0.6 1.1,0.1 5.5,1.1 -0.8,1.7 2.1,1.4 -0.5,3.1 -0.3,0.3 1.9,1.1 2.3,0.3 8,0.1 2.4,1.7 4.1,-0.3 7.6,1.4 2.3,-0.7 0.7,1.6 1.8,0.6 0.3,-1.1 0.6,0.1 2.4,2 1.2,-0.3 -0.3,-1.3 0.1,-3.4 3.9,-2.2 3.7,-1.3 1.4,0.3 0.9,0.3 1.2,-0.2 -0.4,-2.4 2.2,-7.6 0.2,-2.8 -1,-1 0.7,-3.1 2.3,-2.4 1.4,-2.4 0.9,-0.4 -0.2,-0.7 -0.1,-0.2 -0.8,-1 -1.6,-1.7 0.2,-1.6 -0.7,-1.1 z"
   data-id="ES.CL"
   data-name="León"
   id="path3128"
   inkscape:connector-curvature="0" />


utf-8utf-8<path
   d="m 926.8,33.5 2.6,2.7 -0.8,11.1 -2.3,7.8 -1.5,1.1 0.4,2.5 -6.9,6.1 0.9,2.4 2,1.6 -2.4,3.5 -0.2,0.8 -0.4,0.5 1.3,1.6 -0.5,2.6 0.1,0.7 0.7,-1.4 4.7,-1.3 1.3,0.6 5.7,-1.8 2.9,0.1 2.2,-2.2 2.9,-1.7 1.3,-2.8 4.2,0.2 0.5,-0.3 0.4,-0.5 0.7,-1.6 -0.8,-1.9 0.4,-2.8 3.5,0.9 1.8,-1.9 1.9,-9.3 0.7,-1.1 -1.4,-2.5 0.9,-1.2 3.2,-0.5 -0.2,-0.7 -0.7,-2.8 -1.7,-0.5 -0.8,-1.8 0,-0.1 -7,1.3 0.3,-2 -3.3,-5.9 -4.3,0.2 -1.6,-2 -7,-1.8 -3.9,-0.2 -0.4,1.9 0.6,2.3 0,0.1 z"
   data-id="ES.CT"
   data-name="Lérida"
   id="path3130"
   inkscape:connector-curvature="0" />


utf-8utf-8<path
   d="M 731.8,9.1 725.5,6 724,3.5 720.7,2 717.9,2.7 717.2,1.2 715.9,2 715.8,1.9 714,7.6 l 0.3,0.7 -2.4,3.7 -1.2,-0.2 -0.2,2 -2,4.6 0.8,3 0.1,4.8 -1.6,1.6 -0.7,1.1 0.9,0.1 -0.4,1.9 1.1,1.3 0.9,3.2 -1.1,1.7 0.8,0.7 0,1.5 4.6,1.7 2.4,1.5 2.5,0.2 6.7,-0.3 1.3,2.5 2.6,-4.1 0.9,-1.4 0.2,-0.6 1.3,-4 0.1,-2 2,-0.8 2,-1.9 0.7,-3 0.3,-0.3 -0.1,-1.1 -3.8,-1.7 1.2,-2.2 2.8,-1.8 -0.8,-1.1 -4.9,-2.5 -0.2,-1.3 -2.4,-3 3.2,-2.6 -0.1,-0.4 z"
   data-id="ES.GA"
   data-name="Lugo"
   id="path3132"
   inkscape:connector-curvature="0" />


utf-8utf-8<path
   d="m 800.2,95.2 -0.6,-0.1 -0.5,0.4 -0.1,0.8 1.7,-0.1 -0.5,-1 z m 19,-14.5 -1.2,0.2 -7.8,5.9 -1.6,2.2 -1,3.4 -1.8,0 -1.9,2 -0.7,1 -0.2,0.6 -2.7,1.4 -1.3,3 -0.5,3.7 -2.5,1.1 -2.5,2.4 -0.8,2.1 -0.4,0.5 0.6,0.4 3.2,-1.7 2,-0.3 1.3,1.4 6,-1.3 7.5,3.7 2.5,0.3 1.3,2.3 -4.1,3.3 -2.3,1.1 1.8,0.7 7.7,-4.8 8.7,-0.8 0,0.3 1.3,-0.1 0.5,-0.1 0.4,-2.7 0.2,0 -0.3,-1.2 -2.4,-3.6 0.6,-0.6 -1,-4.6 -2.5,-1.9 -0.7,-2.7 -3.4,-4.8 -1,-0.4 2.3,-6.1 -0.6,-2.7 -2.6,-2.1 -0.1,-0.5 z"
   data-id="ES.MD"
   data-name="Madrid"
   id="ES.MD"
   inkscape:connector-curvature="0" />


utf-8utf-8<path
   d="m 797.1,206.2 -1.2,-0.4 -0.3,-2 -1.6,0 -4,1.8 -0.4,-1.1 -1.1,0 -1.7,-0.2 -2,3.3 -3.2,1.5 -6,3.5 1.2,1.5 0.2,2 -2,2.1 -2.6,-1.4 -1.9,1.1 0.3,3.5 -0.5,2.1 -4.5,3.4 -2.2,0.7 1.1,1.4 2.8,-0.9 2.2,2.9 0.9,3.5 1.7,0.9 0.3,-0.5 1.2,-2.8 3.6,-1.7 10,-1.6 5.1,-4.4 1.9,-2.7 12,-0.2 4.1,-0.5 0.7,0.2 0.2,-2.1 -1.5,-1.7 -1.2,0 -7.1,-3 -2.9,-2.5 -0.7,-3.1 -0.8,-2.1 -0.1,-0.5 z"
   data-id="ES.AN"
   data-name="Málaga"
   id="path3135"
   inkscape:connector-curvature="0" />


utf-8utf-8<path
   d="m 849.1,179.7 0.9,0.6 0.3,0.3 0.3,0.6 1.9,2 0,0 0.9,0.6 5.1,1 -0.7,2.5 -0.1,4 4.3,6.7 2.5,0.5 2.6,1.9 0.6,-0.3 7.7,-5.5 5.7,1 1,-1.7 6,0.2 3.6,-1.7 -2.9,-1.2 -1.2,-2.4 2.5,-3.3 0,0 -2,-0.7 -5,-7.4 1.7,-5.6 -2.1,-2.3 -0.9,-2.3 1.7,-3.4 0.4,-2.2 -0.5,-2.1 -1.4,-1 -2.5,-2.1 -5.1,1.6 -1.6,1.5 -1.4,8.8 -4.4,2.1 -2.9,-1.9 -2.1,1.5 -4,1.5 -1.5,-0.3 -7,7.3 -0.4,1.2 z"
   data-id="ES.MU"
   data-name="Murcia"
   id="ES.MU"
   inkscape:connector-curvature="0" />


utf-8utf-8<path
   d="m 880,42.5 -0.4,-0.7 -0.1,0.4 0.5,0.3 z m 2.8,-1 -1.4,-1.2 -0.3,0.9 1.7,0.3 z m -17.1,-26.3 -4.1,2.5 -0.4,3 -2.3,1.5 -0.7,2.2 -5,2.2 -0.4,0.7 0.4,1.3 -1.1,3.2 -1.1,1 -0.2,2.3 -2,-0.5 -2.2,1.6 1.8,0.3 0.5,2.6 -0.1,0.5 0.5,0.1 2.7,0.1 1.9,1.4 2.5,0 3.3,1.6 2.9,3.3 4.4,4.4 -1.7,-0.1 -3.5,3.7 0.9,0.7 0.3,0 5.2,1.4 1.6,1.2 4,0.2 2.6,-4.7 -2,-2 0,-4.6 1.2,-3.1 2,-3.3 -0.3,-0.9 3.4,-3.6 2.7,-0.5 3.1,-2.6 0.5,-0.2 0.2,-0.4 0.7,-0.4 0.6,-2.5 2.5,-2.1 -0.3,-0.8 -5.6,-0.4 -9.3,-4.1 -0.5,1.8 -3,-1.5 1.9,-2.6 -1.4,-2.8 -7.1,-1 0,-0.1 z"
   data-id="ES.NA"
   data-name="Navarra"
   id="ES.NA"
   inkscape:connector-curvature="0" />


utf-8utf-8<path
   d="m 729.4,40.8 -2.6,4.1 -1.3,-2.5 -6.7,0.3 -2.5,-0.2 -2.4,-1.5 -4.6,-1.7 0,-1.5 -0.8,-0.7 -0.7,0.3 -4.8,0.6 -0.6,-0.7 -3.4,2.5 -1.1,1.8 1.5,4.7 2.8,1 -1.6,2.8 0.3,0.3 -0.5,6.8 0.9,3.5 2.2,0.1 4.9,-3.3 0.2,1.7 4.5,-1.3 2.9,0.8 -0.4,1.3 2.5,-0.9 1.9,1.2 5.1,-1.3 2.4,-3.7 4.3,0.6 0.2,0.1 0.5,-2 -1.5,-1.2 2.2,-2.8 4.2,-2.9 0,0 0.3,-0.3 0.5,-3.1 -2.1,-1.4 0.8,-1.7 -5.5,-1.1 -1.1,-0.1 -0.9,1.4 z"
   data-id="ES.GA"
   data-name="Orense"
   id="path3139"
   inkscape:connector-curvature="0" />


utf-8utf-8<path
   d="m 790.2,23.7 -0.9,0.4 -1.4,2.4 -2.3,2.4 -0.7,3.1 1,1 -0.2,2.8 -2.2,7.6 0.4,2.4 -1.2,0.2 -0.5,1.8 -0.2,2.3 2.5,0.1 -2.1,6.6 0.4,0.7 3,-0.6 2,3.5 2.5,-2.2 5,3.4 4.6,0.3 1.9,-1 3.6,0.9 1.5,0.2 0,-0.7 -0.3,-2.4 1.9,-1.8 2,-0.7 -0.3,-1.3 -2.9,0.5 -2.3,-4.7 -2.1,-0.2 0.4,-1.4 -1.1,-1.5 -1,-4.7 -1.3,-1.7 2.2,-0.5 -1.2,-4.6 0.8,-3.1 4.3,-1.2 0.3,-0.5 -0.3,-0.4 -2.3,-1.3 1.4,-0.9 -2.2,-0.1 -0.4,-3 -2.9,-1.1 -2.3,-2 -6.6,1.1 -0.5,-0.1 z"
   data-id="ES.CL"
   data-name="Palencia"
   id="path3141"
   inkscape:connector-curvature="0" />


utf-8utf-8<path
   d="m 706.3,29.2 -5.9,0.1 -2.3,1.7 -1,-0.3 -8.7,3.1 -0.3,0.6 -2.3,3.4 0.3,1.6 -2.3,1.3 2.2,1.9 3.3,-1.3 -2.2,2.6 -1.6,0.9 -1.1,2.2 6.3,-1.7 -7.2,5.9 0,6.9 6.7,-4.8 7.2,-1.6 2.5,-1.1 0.7,-0.5 1.6,-2.8 -2.8,-1 -1.5,-4.7 1.1,-1.8 3.4,-2.5 0.6,0.7 4.8,-0.6 0.7,-0.3 1.1,-1.7 -0.9,-3.2 -1.1,-1.3 0.4,-1.9 -0.9,-0.1 -0.8,0.3 z"
   data-id="ES.GA"
   data-name="Pontevedra"
   id="path3143"
   inkscape:connector-curvature="0" />


utf-8utf-8<path
   d="m 774.4,81.6 -2.8,-1.7 -2.3,0.3 -5.5,-1.6 -2.5,0.4 -2,-0.6 -6.2,1.2 -4.9,-2.6 -4,-0.7 -0.4,0.3 -3.4,0.7 -5.8,6.8 -1.5,-0.2 -1,1.3 2.6,5.4 0.2,4.1 -0.8,4 -0.2,5.4 -0.7,3.8 0,0.2 5.6,0.6 1.8,-0.4 1.1,-1.9 8.8,-4.5 2.3,1.4 0.9,2.7 5.4,0.7 1.9,-0.5 0.8,1.8 0.9,-0.3 1.2,-1.7 -0.2,-1.8 2,-2 1.7,1.3 2.9,-3.8 -1.9,0 3.9,-3.9 3.1,-2 2.2,-4 1.3,-1.5 0.5,-2.7 -1.2,-3 0.5,-1 -1.2,-1 -1.8,-0.9 -0.4,-0.1 -0.7,0.4 -0.2,1.6 z"
   data-id="ES.CL"
   data-name="Salamanca"
   id="path3145"
   inkscape:connector-curvature="0" />


utf-8utf-8<path
   d="m 427.1,504.7 -3.2,0 -2.6,1.1 -0.8,2 1.9,0.3 1.6,1.6 3.1,-5 z m 18.6,-7.2 3,-2.4 -0.4,-1.4 -3.7,-2.2 -1.4,0.3 -1.1,3.4 0.9,1.4 2.7,0.9 z m 30.1,-17.3 -6.1,0.9 -4,3.4 -2.7,1.2 -5.7,1 -1.1,-0.7 -2,1.7 5,9.9 4.4,0 3.3,-4.6 2.1,-4.6 -0.2,-1.5 3.8,-4 3.2,-2.7 z m -46.7,-8.4 -2.9,0.8 0,4.5 3.6,6.2 2.2,-4.6 0,-6.2 -2.9,-0.7 z"
   data-id="ES.CN"
   data-name="Santa Cruz de Tenerife"
   id="path3147"
   inkscape:connector-curvature="0" />


utf-8utf-8<path
   d="m 818.7,68.2 -5.1,3.3 -0.4,-1.3 -2.6,-1.4 -2.3,-1.1 -0.3,1.3 -0.6,0.8 -8,1.9 -4.1,1.3 0.3,3.1 -1.6,-0.3 -3.1,3 0,0.7 -1.3,1.4 -0.4,2 3.8,4.4 1.7,3.6 1.8,6.2 2,-0.4 0.5,-0.4 0.1,-0.8 0.5,-0.4 0.6,0.1 0.4,-0.2 0.4,0 1.6,0.1 0.6,0.3 0.7,-1 1.9,-2 1.8,0 1,-3.4 1.6,-2.2 7.8,-5.9 1.2,-0.2 0.4,0 2.8,-1.5 0.8,-1.4 4.4,-1.2 0.5,-0.2 -3.4,-2.4 -2.2,-3.4 0,-0.7 -2.9,-1.4 -0.1,-0.7 -0.8,0.4 z"
   data-id="ES.CL"
   data-name="Segovia"
   id="path3149"
   inkscape:connector-curvature="0" />


utf-8utf-8<path
   d="m 763.8,176.1 -2.3,-1.4 -5.1,1.9 -1.2,3.7 -5.7,1.8 -0.4,0.4 0.4,0.9 0.5,2 -8.5,4 -1.7,3 3.6,0.8 1,6.2 -0.8,2.7 0.8,0.8 0,4.1 -1,4.2 0.6,2 -0.7,1.6 1,1 0.4,-0.3 3.4,-0.6 -0.8,1 -0.2,-0.1 3.3,1.5 5.6,0.5 1.3,-2.2 3.3,-0.3 2,-1.3 1.4,1.2 4.1,-3.7 0.1,2.8 2.9,-2.1 3.6,1.4 0.9,-1 6,-3.5 3.2,-1.5 2,-3.3 1.7,0.2 -0.1,-0.7 -1.3,-2.7 -1.4,1 -1.5,-0.9 -3.1,-5.3 -0.9,-5.4 -1.8,-0.6 -5.9,2.7 -3.2,-0.2 -0.3,-1.4 2.7,-0.8 0,-2.4 -2.6,-3.6 0,-1.4 -1.6,-1.7 -0.4,-2 -2.2,-2.3 0,-0.6 -1.1,-0.1 z"
   data-id="ES.AN"
   data-name="Sevilla"
   id="path3151"
   inkscape:connector-curvature="0" />


utf-8utf-8<path
   d="m 861.6,56.7 -1.8,0.7 -3.5,-1.2 -2.1,-4.5 -2.5,-1 -3.1,-0.1 -4.1,3.9 -2.6,0.3 -1.6,-1.9 0,-1.7 -1.3,0.5 -2.2,2.7 -1,-0.3 -0.6,0.2 -6.2,6.9 -2.5,-2.2 -0.2,2.9 -3,2.5 -1.7,3.1 -2.1,-0.2 0,0.5 0.1,0.7 2.9,1.4 0,0.7 2.2,3.4 3.4,2.4 3,0.6 5.2,-1 0.6,1.2 3.3,0 6.7,6 1.3,0.5 6.8,-1.6 1.4,0.7 1,-1.3 0,-0.5 -0.2,-0.2 -2.3,-1.1 0.6,-5.7 0.8,-2 2.1,1.7 1.1,-3.2 -0.3,-3.2 1.6,-0.2 3.5,-3.2 -1.5,-2.6 -0.1,-3.6 -0.1,-1.5 -1,0.5 z"
   data-id="ES.CL"
   data-name="Soria"
   id="path3153"
   inkscape:connector-curvature="0" />


utf-8utf-8<path
   d="m 945.5,67.9 -0.5,0.3 -4.2,-0.2 -1.3,2.8 -2.9,1.7 -2.2,2.2 -2.9,-0.1 -5.7,1.8 -1.3,-0.6 -4.7,1.3 -0.7,1.4 0,0 -2.1,2.5 -0.5,0.1 -1.1,2 0.1,0.4 0.3,0.8 1.4,2.6 -0.5,1 -2.5,5.8 0.2,0.3 0.6,0.2 0.6,-0.2 2.5,3.4 1.8,0.6 3.5,2.4 0.6,-1.4 1.3,-1.3 2.5,0.7 -2.7,0.3 0.6,0.9 2.4,-1 4.2,-3.8 -3.9,-2.1 4,-5.6 4.6,-3.4 3,0.2 1.1,-1.5 8.2,-2.5 2.2,-0.2 -1.2,-1.7 0.2,-1.6 -1.3,-2.6 -1.3,-0.7 -2.3,-3.5 0.5,-1.7 -0.6,0 z"
   data-id="ES.CT"
   data-name="Tarragona"
   id="path3155"
   inkscape:connector-curvature="0" />


utf-8utf-8<path
   d="m 914.2,83.7 -3.1,0.4 -2.1,-2.6 -9.5,-4.2 -2.2,-2.6 -1.4,0.1 0.4,3.7 -1.8,-2.7 -0.2,3.9 -2.1,2.5 -1.2,-1.4 -2.2,2 -1.5,-1.2 -1.8,1.6 -3.4,-2.4 -2.1,1.1 -5.7,1.6 -1.9,3.7 -2.3,0.2 -1.7,-0.1 0.3,0.6 1.4,10.4 -1.1,0.8 -2,-0.7 -3.2,5.5 -0.3,0.4 0,0 1.1,0.7 1.6,2.6 6.6,4.3 -0.1,0.3 1.3,0.3 1.4,-0.1 1.1,-1.9 1.7,2.5 3.6,1.5 -1.2,1.9 -0.6,0.1 0.4,1.2 0.4,0.3 5.4,0.3 0.5,2.8 1.4,0.3 1.4,-0.7 -0.1,-0.3 -1,-2.5 2.1,-2.3 3.7,-1.2 -0.2,-0.9 1.9,-4.2 1.9,0.2 4.8,-4.6 -1.4,-1.9 1.7,-1.2 -0.9,-4 2.9,-5.2 1.9,0.7 6.8,1 0.8,-0.3 -0.2,-0.3 2.5,-5.8 0.5,-1 -1.4,-2.6 -0.3,-0.8 -1.3,0.2 z"
   data-id="ES.AR"
   data-name="Teruel"
   id="path3157"
   inkscape:connector-curvature="0" />


utf-8utf-8<path
   d="m 828.5,114.5 -8.7,0.8 -7.7,4.8 -1.8,-0.7 2.3,-1.1 4.1,-3.3 -1.3,-2.3 -2.5,-0.3 -7.5,-3.7 -6,1.3 -1.3,-1.4 -2,0.3 -3.2,1.7 -0.6,-0.4 -0.7,0.3 -2.2,-0.7 -0.3,-1.6 -2.8,0.5 -0.2,1 -3,3 -1.5,0.6 -0.7,-1.2 -3.9,2 -1.7,-0.6 -2.5,-0.3 -0.7,0.4 -1,5.8 1.5,1 0.4,3 3.5,-0.1 -0.7,6.4 6.1,6.1 0.3,0.3 1.3,-4 0.9,-1.2 2.3,1.1 0.2,2.7 0.3,0.5 1.3,-0.6 0.3,-0.4 1.9,-0.1 2.8,-3 2.2,1.3 4.7,0.9 1.3,-0.6 0.9,-2.5 0.9,0.4 1.1,3.6 -1,-0.2 0,3.6 1.1,-0.7 2.6,0.4 0.1,1.7 4.9,0.2 1.1,0.8 3.9,-1.3 0.7,0.3 4.2,-3.3 1.4,0 5.2,-2.9 1.9,1.4 2.3,0.2 1.3,-0.8 0.2,-4.2 0.4,-1.3 -2.3,-2.5 -2.4,-6.6 -1.9,-3.6 0.2,-0.6 0,-0.3 z"
   data-id="ES.CM"
   data-name="Toledo"
   id="path3159"
   inkscape:connector-curvature="0" />


utf-8utf-8<path
   d="m 880.4,117.7 -0.3,0.3 -1.2,0.8 -0.4,4 -2.1,4.4 -1.4,-0.4 -3.7,3.8 -0.1,4.5 0,0 0.3,0.1 2.1,1.5 3.7,9.5 2.8,4 1.5,0.5 2.9,-0.6 1.4,3 0.2,2.1 -0.3,0.2 0.4,0.3 2.2,0.9 2.6,-0.2 2.1,1.1 3.7,-0.8 -2.3,-1.6 4.6,-0.8 2.8,-2 2.1,0.9 5.1,-0.9 -0.9,-1 -3.7,-5.3 -2.9,-9.8 0,-4.1 3.2,-5.9 0.1,-0.4 -4.8,-2.1 -2.5,1.7 -1.4,-2.1 -2.6,1.5 -0.6,-2.8 -3,-1 -0.5,-0.3 -1.4,0.7 -1.4,-0.3 -0.5,-2.8 -5.4,-0.3 -0.4,-0.3 z m -7.7,-5.5 -0.1,0.6 1.8,3.4 3.5,0.8 1.6,-0.4 0.5,-0.1 0.6,-0.1 1.2,-1.9 -3.6,-1.5 -1.7,-2.5 -1.1,1.9 -1.4,0.1 -1.3,-0.3 z"
   data-id="ES.VC"
   data-name="Valencia"
   id="path3161"
   inkscape:connector-curvature="0" />


utf-8utf-8<path
   d="m 769.7,53.1 0.8,1.6 -0.3,0.6 1.2,0.6 0.4,-2 -2.4,-2 0.3,1.2 z m 3.3,0.5 2.4,1.9 -0.8,3.3 0.7,1.8 -2.9,1.6 4,7.2 -2.4,1.1 -0.3,4.1 0.4,4.3 -0.4,1.3 0.9,-0.2 0.7,-0.4 0.4,0.1 1.8,0.9 1.2,1 0.5,-0.3 3.4,-0.4 2.3,1.5 2.3,-0.9 2.4,-0.6 1.3,-1.4 0,-0.7 3.1,-3 1.6,0.3 -0.3,-3.1 4.1,-1.3 8,-1.9 0.6,-0.8 0.3,-1.3 -0.3,-0.8 -1,-0.7 -0.5,-3.4 0.4,-0.8 -1.5,-0.2 -3.6,-0.9 -1.9,1 -4.6,-0.3 -5,-3.4 -2.5,2.2 -2,-3.5 -3,0.6 -0.4,-0.7 2.1,-6.6 -2.5,-0.1 0.2,-2.3 0.5,-1.8 -0.9,-0.3 -1.4,-0.3 -3.7,1.3 -3.9,2.2 -0.1,3.4 0.3,1.3 z"
   data-id="ES.CL"
   data-name="Valladolid"
   id="path3163"
   inkscape:connector-curvature="0" />


utf-8utf-8<path
   d="M 847.6,13.6 844,12 l -1.7,-0.2 -2,-1.3 -2.5,0.3 -4,1.7 -0.2,1 -2.8,-0.1 -0.5,-0.2 -5,2.2 -2.2,1.4 0.1,2.8 0.1,0.3 1.5,-0.5 2.2,-1.2 3.4,0.7 0,0.3 0.6,0.5 1.9,-0.2 1.1,-1.5 1.3,0.9 0,2.8 1.3,1.1 6.6,0.7 -0.5,-1.6 1.4,-0.2 1.3,-0.2 0.9,-0.1 0.6,-4 1.9,-1.3 0.3,-1.9 -1.5,-0.6 z m -20.3,3.7 -1,-1 0.5,0.1 0.5,0.9 z"
   data-id="ES.PV"
   data-name="Bizkaia"
   id="path3165"
   inkscape:connector-curvature="0" />


utf-8utf-8<path
   d="m 768.8,51.8 -0.3,1.1 -1.8,-0.6 -0.7,-1.6 -2.3,0.7 -7.6,-1.4 -4.1,0.3 -2.4,-1.7 -8,-0.1 -2.3,-0.3 -1.9,-1.1 0,0 -4.2,2.9 -2.2,2.8 1.5,1.2 -0.5,2 0.3,0.1 4.5,-0.6 0.9,1.3 3.5,-0.1 1.4,5.3 -0.5,0.8 3.3,2 2.1,0.4 4,2.9 -6.8,7.9 -0.5,0.3 4,0.7 4.9,2.6 6.2,-1.2 2,0.6 2.5,-0.4 5.5,1.6 2.3,-0.3 2.8,1.7 0.2,-1.6 -0.9,0.2 0.4,-1.3 -0.4,-4.3 0.3,-4.1 2.4,-1.1 -4,-7.2 2.9,-1.6 -0.7,-1.8 0.8,-3.3 -2.4,-1.9 -1.2,0.3 -0.4,2 -1.2,-0.6 0.3,-0.6 -0.8,-1.6 -0.3,-1.2 -0.6,-0.1 z"
   data-id="ES.CL"
   data-name="Zamora"
   id="path3167"
   inkscape:connector-curvature="0" />


utf-8utf-8<path
   d="m 916.1,72.4 -3.5,2.4 -4.5,-0.6 -2.1,-4.8 -1.4,-2.1 -2.7,-0.9 -4.8,-4 -0.6,-2.6 -2,-1.5 -4.4,-2.1 -2.2,-2.2 0.2,-1 2.6,-0.4 0,-5.7 0.6,-1.5 -4.8,1.4 2.1,-3.3 -1.5,-3.8 -0.3,-6.8 0.2,-0.8 -0.5,0.2 -3.1,2.6 -2.7,0.5 -3.4,3.6 0.3,0.9 -2,3.3 -1.2,3.1 0,4.6 2,2 -2.6,4.7 -4,-0.2 -1.6,-1.2 -5.2,-1.4 -0.3,0 0.2,0.6 -0.1,0.1 -0.2,0.7 0.1,1.5 0.1,3.6 1.5,2.6 -3.5,3.2 -1.6,0.2 0.3,3.2 -1.1,3.2 -2.1,-1.7 -0.8,2 -0.6,5.7 2.3,1.1 0.2,0.2 2.1,-0.6 5.2,3.3 0.8,1.2 2,1.7 0.9,0.7 1.7,0.1 2.3,-0.2 1.9,-3.7 5.7,-1.6 2.1,-1.1 3.4,2.4 1.8,-1.6 1.5,1.2 2.2,-2 1.2,1.4 2.1,-2.5 0.2,-3.9 1.8,2.7 -0.4,-3.7 1.4,-0.1 2.2,2.6 9.5,4.2 2.1,2.6 3.1,-0.4 1.3,-0.2 -0.1,-0.4 1.1,-2 0.5,-0.1 2.1,-2.5 0,0 -0.1,-0.7 0.5,-2.6 -1.3,-1.6 0.4,-0.5 -2.5,-0.7 z M 880,42.5 l -0.5,-0.3 0.1,-0.4 0.4,0.7 z m 2.8,-1 -1.7,-0.3 0.3,-0.9 1.4,1.2 z"
   data-id="ES.AR"
   data-name="Zaragoza"
   id="path3169"
   inkscape:connector-curvature="0" />


utf-8</g>
</svg>
