<?xml version="1.0" ?>
<!DOCTYPE svg
  PUBLIC '-//W3C//DTD SVG 1.1//EN'
  'http://www.w3.org/Graphics/SVG/1.1/DTD/svg11.dtd'>
<svg enable_background="new 0 0 1000 870" height="870px" pretty_print="True" style="stroke-linejoin: round; stroke:#000; fill: none;" version="1.1" viewBox="0 0 1000 870" width="1000px" xmlns="http://www.w3.org/2000/svg" xmlns:xlink="http://www.w3.org/1999/xlink">
utf-8<defs>
utf-8utf-8<style type="text/css">
<![CDATA[path { fill-rule: evenodd; }]]>utf-8utf-8</style>
utf-8</defs>
utf-8<metadata>
utf-8utf-8<views>
utf-8utf-8utf-8<view h="870.517752396" padding="0" w="1000">
utf-8utf-8utf-8utf-8<proj flip="auto" id="robinson" lon0="38.3110014247"/>
utf-8utf-8utf-8utf-8<bbox h="192.44" w="221.32" x="487.17" y="-249.51"/>
utf-8utf-8utf-8</view>
utf-8utf-8</views>
utf-8</metadata>
utf-8<g class="" id="provinces">
utf-8utf-8<path d="M441.0,194.0L433.3,194.9L427.4,198.9L426.8,193.1L418.5,192.8L416.5,193.3L416.2,195.3L411.3,195.5L409.5,194.3L408.5,192.4L406.4,180.4L403.4,172.7L402.8,170.1L403.1,167.5L407.6,157.5L407.5,153.3L405.0,142.5L403.1,140.5L395.9,142.0L390.4,141.1L388.8,132.6L387.0,130.3L371.5,113.9L368.2,111.1L367.6,107.8L366.5,105.0L361.7,104.5L352.3,107.2L351.9,106.8L353.7,101.6L353.4,100.0L351.4,97.6L350.3,98.2L348.1,101.7L346.8,102.5L340.3,103.4L330.6,102.5L327.8,105.7L323.4,106.3L314.4,101.4L307.0,99.5L304.4,99.4L302.9,100.8L301.5,106.1L298.9,109.6L290.0,114.4L288.0,114.9L276.5,114.5L270.1,109.9L268.4,109.6L264.4,110.3L257.8,114.0L250.0,112.8L247.1,110.1L243.3,107.6L235.7,100.0L225.6,96.9L223.5,95.7L218.4,84.3L217.4,83.5L215.0,91.1L214.7,96.9L214.2,99.0L204.9,114.9L199.4,139.8L200.4,143.7L198.2,147.2L198.3,148.9L200.4,154.9L199.4,163.3L197.9,165.3L193.2,163.7L173.3,166.9L170.4,168.7L169.7,172.2L166.1,174.4L154.4,197.7L152.9,203.9L149.7,206.9L148.7,210.2L147.6,216.1L143.2,220.8L143.2,221.1L145.0,222.8L147.8,229.6L153.0,234.3L154.4,234.3L163.2,232.5L166.1,229.4L174.3,222.0L175.3,220.3L180.1,215.3L182.2,215.3L183.7,216.9L187.3,217.2L190.3,218.9L200.1,232.3L202.5,241.4L206.4,241.0L209.1,237.6L215.7,232.4L216.2,233.2L216.0,238.3L216.5,245.0L219.7,249.0L223.7,255.6L221.3,260.5L224.1,262.8L228.3,267.4L228.2,270.4L225.5,276.2L225.6,282.9L227.7,287.7L226.1,291.0L218.9,299.0L218.1,300.6L216.5,307.0L217.4,311.2L218.3,310.1L222.0,310.9L218.0,322.0L218.6,326.2L219.7,329.4L224.2,334.9L225.8,335.1L230.5,333.5L231.3,334.6L231.3,338.6L233.6,340.6L236.6,340.5L248.3,342.1L254.1,343.2L256.8,344.3L266.5,346.4L268.5,348.1L271.0,349.5L275.5,349.5L276.8,352.1L275.2,356.6L276.1,359.1L277.8,360.9L280.9,361.3L283.6,362.9L283.8,365.4L284.9,367.6L288.4,364.6L292.9,365.6L299.4,368.8L304.7,376.0L311.1,381.2L316.7,380.1L326.4,374.1L329.4,371.6L338.7,366.6L343.8,364.7L346.2,360.9L351.7,359.1L353.4,359.6L358.1,358.5L359.0,357.1L358.5,352.8L360.0,351.5L362.9,341.2L378.4,340.4L386.1,341.8L387.3,342.9L387.3,345.7L385.0,360.9L384.1,362.0L379.8,364.6L377.3,365.3L374.6,364.6L374.8,366.9L376.1,368.3L380.4,370.1L383.7,373.8L384.7,381.8L385.9,385.3L388.2,388.3L392.5,390.6L404.7,393.4L412.6,397.2L415.9,402.5L418.4,407.3L420.6,410.5L426.6,411.4L428.0,412.3L429.9,418.4L428.2,418.8L424.1,421.9L418.4,422.3L415.3,423.0L415.6,425.1L417.3,430.4L418.6,431.7L422.2,432.5L423.6,433.6L423.9,435.9L423.1,438.3L417.7,448.8L418.0,455.9L419.8,460.0L422.4,461.8L423.8,461.7L427.1,457.8L430.2,458.2L432.7,462.4L434.4,463.4L435.8,463.0L441.2,459.0L447.9,456.2L450.0,454.7L450.6,452.5L450.0,437.1L452.9,434.4L454.3,431.5L456.5,428.2L458.2,424.7L458.1,421.1L455.7,419.0L452.3,417.7L451.3,416.4L456.1,410.2L457.3,406.8L457.6,403.0L457.3,399.0L454.7,391.9L454.4,388.9L457.1,388.1L462.7,389.8L465.3,389.9L466.1,387.8L464.9,384.1L469.0,377.0L468.8,370.9L463.9,367.2L462.9,364.3L466.1,361.0L471.7,361.9L471.2,353.9L473.1,337.4L474.3,331.8L472.6,326.3L473.1,320.8L469.6,313.3L472.5,304.2L471.8,300.1L470.0,298.1L473.5,291.7L474.2,287.9L472.2,277.7L469.4,272.2L464.9,266.9L464.2,258.4L459.3,245.8L458.8,244.1L454.1,239.7L450.9,231.4L449.4,222.6L448.1,220.4L447.5,216.0L446.6,212.7L445.3,210.7L442.2,196.9L443.2,193.3L441.0,194.0Z " data-id="ET.AM" data-name="Amhara" id="ET.AM"/>
utf-8utf-8<path d="M217.4,83.5L218.4,84.3L223.5,95.7L225.6,96.9L235.7,100.0L243.3,107.6L247.1,110.1L250.0,112.8L257.8,114.0L264.4,110.3L268.4,109.6L270.1,109.9L276.5,114.5L288.0,114.9L290.0,114.4L298.9,109.6L301.5,106.1L302.9,100.8L304.4,99.4L307.0,99.5L314.4,101.4L323.4,106.3L327.8,105.7L330.6,102.5L340.3,103.4L346.8,102.5L348.1,101.7L350.3,98.2L351.4,97.6L353.4,100.0L353.7,101.6L351.9,106.8L352.3,107.2L361.7,104.5L366.5,105.0L367.6,107.8L368.2,111.1L371.5,113.9L387.0,130.3L388.8,132.6L390.4,141.1L395.9,142.0L403.1,140.5L405.0,142.5L407.5,153.3L407.6,157.5L403.1,167.5L402.8,170.1L403.4,172.7L406.4,180.4L408.5,192.4L409.5,194.3L411.3,195.5L416.2,195.3L416.5,193.3L418.5,192.8L426.8,193.1L427.4,198.9L433.3,194.9L441.0,194.0L443.2,193.3L444.3,192.2L444.8,190.7L444.6,185.6L443.6,183.3L443.5,178.2L444.1,175.1L445.4,172.3L447.6,169.5L449.4,160.3L448.8,157.8L446.0,153.7L442.1,152.5L440.0,150.6L440.2,139.3L441.0,139.2L442.8,135.6L441.5,133.4L440.2,127.6L437.4,124.7L436.5,122.2L437.6,114.5L436.1,105.8L437.9,99.0L440.5,100.3L442.3,99.0L442.5,95.7L440.1,86.6L440.3,83.3L441.2,76.2L441.0,71.8L438.9,67.5L439.1,64.7L438.2,60.5L437.3,59.7L434.6,60.3L434.0,58.9L436.4,55.6L431.6,54.1L433.4,48.8L436.2,45.2L435.3,43.2L431.3,43.6L429.7,42.7L431.8,39.6L433.9,38.3L442.2,38.3L447.3,38.9L450.2,36.7L450.2,33.5L451.1,32.1L449.8,31.8L446.6,34.1L443.1,33.7L435.5,28.4L429.7,29.2L424.4,27.8L419.8,23.6L417.1,26.9L414.4,28.3L402.6,29.8L400.4,33.2L398.7,33.3L397.3,30.4L395.0,24.2L391.5,19.6L387.4,17.8L384.1,18.2L384.1,22.3L379.2,26.0L375.9,29.2L373.0,29.5L369.1,31.3L365.4,31.7L362.9,31.2L358.9,33.5L356.5,34.3L351.4,34.9L347.1,35.0L344.8,31.4L341.1,29.3L338.6,25.9L337.4,22.1L335.2,20.4L333.1,15.1L325.6,15.0L317.7,11.2L310.1,0.0L290.9,57.7L290.2,58.6L288.3,56.8L287.0,52.3L284.7,51.5L283.0,46.8L280.3,44.3L278.6,39.5L274.9,34.3L273.6,33.5L269.6,32.7L264.7,32.5L262.4,33.1L259.6,36.4L258.9,42.8L257.0,45.6L254.7,45.6L252.7,46.6L249.8,43.8L242.8,41.8L236.1,41.4L233.9,42.5L224.2,44.4L221.7,46.6L216.6,67.2L216.9,72.6L218.2,76.4L218.5,80.2L217.4,83.5Z " data-id="ET.TI" data-name="Tigray" id="ET.TI"/>
utf-8utf-8<path d="M451.1,32.1L450.2,33.5L450.2,36.7L447.3,38.9L442.2,38.3L433.9,38.3L431.8,39.6L429.7,42.7L431.3,43.6L435.3,43.2L436.2,45.2L433.4,48.8L431.6,54.1L436.4,55.6L434.0,58.9L434.6,60.3L437.3,59.7L438.2,60.5L439.1,64.7L438.9,67.5L441.0,71.8L441.2,76.2L440.3,83.3L440.1,86.6L442.5,95.7L442.3,99.0L440.5,100.3L437.9,99.0L436.1,105.8L437.6,114.5L436.5,122.2L437.4,124.7L440.2,127.6L441.5,133.4L442.8,135.6L441.0,139.2L440.2,139.3L440.0,150.6L442.1,152.5L446.0,153.7L448.8,157.8L449.4,160.3L447.6,169.5L445.4,172.3L444.1,175.1L443.5,178.2L443.6,183.3L444.6,185.6L444.8,190.7L444.3,192.2L443.2,193.3L442.2,196.9L445.3,210.7L446.6,212.7L447.5,216.0L448.1,220.4L449.4,222.6L450.9,231.4L454.1,239.7L458.8,244.1L459.3,245.8L464.2,258.4L464.9,266.9L469.4,272.2L472.2,277.7L474.2,287.9L473.5,291.7L470.0,298.1L471.8,300.1L472.5,304.2L469.6,313.3L473.1,320.8L472.6,326.3L474.3,331.8L473.1,337.4L471.2,353.9L471.7,361.9L466.1,361.0L462.9,364.3L463.9,367.2L468.8,370.9L469.0,377.0L464.9,384.1L466.1,387.8L465.3,389.9L462.7,389.8L457.1,388.1L454.4,388.9L454.7,391.9L457.3,399.0L457.6,403.0L457.3,406.8L456.1,410.2L451.3,416.4L452.3,417.7L455.7,419.0L458.1,421.1L458.2,424.7L456.5,428.2L454.3,431.5L452.9,434.4L456.4,434.0L458.2,434.0L462.6,443.1L462.4,444.5L467.5,445.1L468.7,446.6L468.9,449.9L467.4,454.9L468.7,456.8L473.9,452.2L476.1,447.4L478.3,447.2L481.5,444.5L482.9,438.2L487.0,433.5L492.2,424.0L497.9,417.2L500.1,416.0L509.5,413.3L511.1,411.3L511.6,406.1L513.5,397.8L519.2,387.5L522.7,382.9L530.8,374.7L531.8,373.0L531.1,371.9L528.1,370.6L526.3,365.7L534.6,324.5L534.7,316.4L536.9,313.2L541.8,307.6L543.6,304.1L544.6,298.2L547.3,296.1L573.8,296.3L578.8,294.4L578.4,293.9L579.5,291.7L578.9,287.6L576.1,285.9L573.8,283.1L572.5,279.8L572.9,276.6L575.0,273.1L576.5,272.0L579.3,272.2L578.4,265.7L576.4,257.0L576.2,252.9L577.9,246.0L578.6,240.3L584.0,233.8L587.1,231.8L595.4,218.2L601.5,207.2L609.8,193.6L611.6,188.7L615.4,182.7L612.1,178.9L606.3,170.7L601.6,162.4L598.4,159.4L594.6,157.1L590.7,155.3L585.4,151.6L581.7,146.2L576.0,133.7L571.3,126.5L568.6,123.5L556.1,112.4L535.1,97.9L533.0,95.6L522.3,76.2L507.5,58.5L503.4,55.3L498.8,53.5L492.7,52.5L490.8,51.8L479.7,45.8L469.7,35.9L464.0,32.9L458.0,31.3L452.7,32.4L451.1,32.1Z " data-id="ET.AF" data-name="Afar" id="ET.AF"/>
utf-8utf-8<path d="M152.7,555.5L153.4,556.9L152.7,559.1L153.4,560.1L158.0,562.9L159.6,567.2L158.3,572.4L158.3,575.5L157.5,577.5L158.2,584.5L157.7,586.3L156.1,586.5L152.3,585.7L147.9,587.5L146.2,587.6L141.2,585.1L140.0,583.9L136.1,586.5L134.8,586.0L134.0,587.8L132.2,588.4L123.8,588.8L121.9,589.7L117.0,594.2L115.5,594.9L109.1,595.0L107.2,594.0L103.3,590.9L98.2,590.2L90.9,592.8L89.1,592.6L83.6,588.2L82.1,588.9L82.2,589.7L84.5,593.8L87.3,596.1L89.1,598.7L98.6,601.2L103.0,604.6L104.5,615.0L105.3,615.8L112.0,616.8L116.6,620.2L118.6,623.7L121.6,634.2L122.3,638.6L125.6,645.2L126.6,653.2L129.0,657.8L130.3,661.5L133.9,665.9L135.2,672.3L134.7,676.4L136.0,678.6L135.6,681.4L136.4,684.0L141.9,692.7L142.9,694.7L143.6,699.1L144.3,700.6L147.3,703.1L152.7,706.6L155.3,708.9L156.1,711.4L154.9,715.4L159.4,721.3L161.0,721.0L166.6,715.4L171.8,715.6L176.3,719.3L177.9,719.8L181.9,718.4L183.6,719.0L188.0,722.0L192.1,724.3L189.9,729.0L192.1,736.7L188.8,742.9L188.8,758.7L189.4,762.4L191.1,765.5L200.3,776.5L201.4,779.6L201.3,783.8L201.8,784.9L207.0,789.4L218.6,789.7L220.9,789.3L224.3,790.3L247.8,790.0L248.7,790.6L249.1,790.7L252.2,789.0L254.1,787.1L256.2,780.9L259.3,775.4L264.0,768.4L265.7,764.5L266.1,760.1L263.6,750.8L266.5,739.5L267.9,736.3L269.8,733.6L272.9,732.4L286.0,732.2L290.8,733.0L295.2,735.4L298.7,735.2L302.1,733.6L308.7,729.7L311.6,728.5L316.0,724.3L325.3,726.9L329.2,729.9L330.8,729.8L332.2,725.6L331.8,722.0L334.3,713.9L334.9,710.0L334.9,706.1L333.7,700.9L335.2,698.6L338.5,697.9L342.7,695.5L343.9,692.4L343.4,690.6L339.4,687.9L338.0,682.7L335.6,676.4L323.2,670.3L323.3,668.3L322.4,662.8L327.2,649.6L327.4,645.7L326.0,642.8L323.8,639.9L323.6,636.7L324.7,633.5L328.9,627.3L332.0,629.0L338.0,628.5L340.1,630.8L344.9,633.9L348.7,637.6L352.8,636.8L354.0,637.1L356.4,639.5L356.6,642.7L355.0,645.5L350.7,647.3L348.8,652.8L350.1,655.7L349.0,659.2L347.6,659.8L343.6,658.7L343.1,660.4L343.4,664.0L351.9,680.3L353.2,682.2L354.7,682.5L358.9,681.8L363.7,678.2L357.4,671.9L361.3,663.4L362.8,659.0L366.2,655.8L366.3,653.6L365.4,647.1L365.7,643.4L367.0,640.8L369.4,639.3L372.7,638.7L385.5,641.2L387.9,640.8L389.3,643.4L394.4,646.1L398.4,652.8L400.2,657.4L403.5,660.5L406.4,660.8L412.9,659.8L410.1,653.7L409.9,652.0L412.2,647.4L412.2,644.0L410.4,637.2L408.5,631.0L403.4,625.9L399.0,622.0L392.9,620.9L384.1,615.9L381.9,615.1L379.0,612.4L378.7,609.8L380.4,598.3L378.8,593.9L376.7,590.4L374.5,588.4L370.6,589.9L361.7,586.2L357.8,584.1L353.3,591.1L352.2,592.0L346.2,593.6L340.8,590.5L340.5,589.1L342.0,581.3L343.8,579.5L352.8,573.0L354.6,567.3L356.4,564.9L358.1,560.4L358.9,559.4L363.2,557.5L363.8,556.4L362.9,548.9L365.3,538.3L367.6,535.6L369.0,532.5L371.9,528.5L374.0,524.4L375.5,519.1L374.5,513.4L372.9,507.8L370.3,502.9L374.2,501.5L376.2,509.1L379.2,513.6L379.9,512.0L379.6,506.7L380.5,501.7L377.8,498.1L378.4,494.4L376.7,489.6L369.9,486.0L366.7,487.1L363.9,491.6L363.2,496.5L360.7,499.6L358.0,500.7L355.5,500.2L354.5,497.4L353.7,492.6L352.1,490.5L349.6,489.3L345.9,490.3L336.9,491.6L324.4,495.1L322.7,495.2L318.2,494.1L314.7,494.5L313.4,493.7L307.5,493.1L304.3,488.2L302.8,488.2L299.6,491.6L298.6,494.9L299.8,500.1L307.0,502.8L307.4,517.6L309.0,522.5L308.9,523.3L304.3,524.0L301.9,520.2L300.2,519.3L294.0,520.9L294.1,523.0L296.5,526.0L295.0,534.9L295.2,542.6L297.5,552.3L295.0,565.7L293.2,568.1L291.0,569.6L284.4,573.1L280.1,576.9L276.1,578.5L270.8,578.1L260.5,579.0L254.5,576.7L242.9,568.1L241.6,568.1L234.8,565.0L227.6,563.9L216.4,558.7L211.3,554.8L206.1,554.0L204.4,551.7L204.7,546.4L201.5,540.0L193.2,534.2L191.8,531.5L194.9,525.6L194.8,523.8L192.3,515.5L191.4,514.8L186.8,514.2L185.4,514.8L183.0,520.0L188.0,525.5L183.6,530.7L181.5,531.1L173.9,534.8L172.1,534.0L170.1,529.5L163.8,529.8L160.8,532.2L158.4,532.6L157.5,537.3L154.8,539.3L151.1,545.1L151.3,548.8L152.7,555.5Z " data-id="ET.SN" data-name="Southern Nations, Nationalities and Peoples" id="ET.SN"/>
utf-8utf-8<path d="M152.8,557.1L147.9,561.4L142.1,559.7L144.9,554.9L144.0,553.9L137.3,551.3L134.5,543.6L127.6,536.7L126.1,533.5L126.0,529.9L127.0,526.8L131.1,518.3L127.8,517.1L130.7,513.9L140.2,508.1L138.1,506.4L134.5,505.9L123.8,506.9L122.0,506.1L118.3,500.7L114.3,499.8L108.4,493.3L106.4,491.4L99.7,487.7L96.3,484.8L90.4,478.4L86.9,475.8L81.6,475.3L78.5,477.9L74.0,475.1L73.7,476.8L71.6,480.3L65.1,486.9L56.5,488.6L53.7,489.9L51.0,492.6L46.9,492.4L43.9,487.8L41.8,485.8L37.2,486.8L34.1,484.7L32.5,486.0L28.0,486.6L24.6,487.8L17.3,486.0L16.1,486.2L14.0,489.3L12.1,490.0L12.2,494.7L11.4,497.6L13.1,500.6L14.6,501.4L12.4,504.4L13.3,510.0L12.8,511.0L7.7,515.3L4.0,519.6L2.6,523.3L0.6,526.9L2.9,533.1L4.8,535.7L9.5,537.0L12.4,535.7L18.7,538.2L21.0,540.8L32.3,539.6L36.6,542.1L39.7,544.5L44.1,544.0L50.3,547.7L52.4,551.1L55.9,553.9L58.6,554.4L60.6,555.8L69.1,565.3L70.8,569.9L70.9,577.0L74.7,580.3L76.5,582.9L80.2,583.0L81.1,583.7L82.1,586.6L82.1,588.9L83.6,588.2L89.1,592.6L90.9,592.8L98.2,590.2L103.3,590.9L107.2,594.0L109.1,595.0L115.5,594.9L117.0,594.2L121.9,589.7L123.8,588.8L132.2,588.4L134.0,587.8L134.8,586.0L136.1,586.5L140.0,583.9L141.2,585.1L146.2,587.6L147.9,587.5L152.3,585.7L156.1,586.5L157.7,586.3L158.2,584.5L157.5,577.5L158.3,575.5L158.3,572.4L159.6,567.2L158.0,562.9L153.4,560.1L152.7,559.1L153.4,556.9L152.7,555.5L152.8,557.1Z " data-id="ET.GA" data-name="Gambela Peoples" id="ET.GA"/>
utf-8utf-8<path d="M450.0,437.1L450.6,452.5L450.0,454.7L447.9,456.2L441.2,459.0L435.8,463.0L434.4,463.4L432.7,462.4L430.2,458.2L427.1,457.8L423.8,461.7L422.4,461.8L419.8,460.0L418.0,455.9L417.7,448.8L423.1,438.3L423.9,435.9L423.6,433.6L422.2,432.5L418.6,431.7L417.3,430.4L415.6,425.1L415.3,423.0L418.4,422.3L424.1,421.9L428.2,418.8L429.9,418.4L428.0,412.3L426.6,411.4L420.6,410.5L418.4,407.3L415.9,402.5L412.6,397.2L404.7,393.4L392.5,390.6L388.2,388.3L385.9,385.3L384.7,381.8L383.7,373.8L380.4,370.1L376.1,368.3L374.8,366.9L374.6,364.6L377.3,365.3L379.8,364.6L384.1,362.0L385.0,360.9L387.3,345.7L387.3,342.9L386.1,341.8L378.4,340.4L362.9,341.2L360.0,351.5L358.5,352.8L359.0,357.1L358.1,358.5L353.4,359.6L351.7,359.1L346.2,360.9L343.8,364.7L338.7,366.6L329.4,371.6L326.4,374.1L316.7,380.1L311.1,381.2L304.7,376.0L299.4,368.8L292.9,365.6L288.4,364.6L284.9,367.6L283.8,365.4L283.6,362.9L280.9,361.3L277.8,360.9L276.1,359.1L275.2,356.6L276.8,352.1L275.5,349.5L271.0,349.5L268.5,348.1L266.5,346.4L265.7,349.0L264.0,352.9L263.1,353.4L255.0,350.9L253.5,349.7L249.8,348.0L246.9,346.0L245.7,345.9L237.7,353.5L236.3,353.7L232.5,352.0L234.7,343.7L228.9,344.5L224.4,350.0L221.0,356.4L218.9,359.2L213.1,364.0L207.9,366.3L205.9,365.4L206.8,378.7L206.6,385.8L207.9,390.7L206.0,393.5L208.1,395.5L212.8,401.4L215.9,404.5L216.5,408.6L215.8,414.1L214.1,420.2L204.7,434.5L203.2,433.8L202.1,429.0L201.0,427.6L197.5,426.8L193.2,419.3L185.7,418.8L185.0,417.8L183.4,409.5L182.4,408.1L178.8,408.5L175.4,404.8L166.0,392.4L152.2,377.3L148.2,374.4L140.3,373.4L133.4,374.2L132.7,373.0L132.2,368.4L131.1,368.0L122.6,367.3L122.2,368.0L124.5,372.1L120.9,385.8L118.5,391.1L111.3,400.2L109.2,400.5L102.7,395.2L101.5,395.0L95.9,396.6L94.9,410.6L92.7,423.7L90.0,429.5L86.9,430.7L74.4,429.5L71.4,429.4L72.8,451.3L74.2,473.2L74.0,475.1L78.5,477.9L81.6,475.3L86.9,475.8L90.4,478.4L96.3,484.8L99.7,487.7L106.4,491.4L108.4,493.3L114.3,499.8L118.3,500.7L122.0,506.1L123.8,506.9L134.5,505.9L138.1,506.4L140.2,508.1L130.7,513.9L127.8,517.1L131.1,518.3L127.0,526.8L126.0,529.9L126.1,533.5L127.6,536.7L134.5,543.6L137.3,551.3L144.0,553.9L144.9,554.9L142.1,559.7L147.9,561.4L152.8,557.1L152.7,555.5L151.3,548.8L151.1,545.1L154.8,539.3L157.5,537.3L158.4,532.6L160.8,532.2L163.8,529.8L170.1,529.5L172.1,534.0L173.9,534.8L181.5,531.1L183.6,530.7L188.0,525.5L183.0,520.0L185.4,514.8L186.8,514.2L191.4,514.8L192.3,515.5L194.8,523.8L194.9,525.6L191.8,531.5L193.2,534.2L201.5,540.0L204.7,546.4L204.4,551.7L206.1,554.0L211.3,554.8L216.4,558.7L227.6,563.9L234.8,565.0L241.6,568.1L242.9,568.1L254.5,576.7L260.5,579.0L270.8,578.1L276.1,578.5L280.1,576.9L284.4,573.1L291.0,569.6L293.2,568.1L295.0,565.7L297.5,552.3L295.2,542.6L295.0,534.9L296.5,526.0L294.1,523.0L294.0,520.9L300.2,519.3L301.9,520.2L304.3,524.0L308.9,523.3L309.0,522.5L307.4,517.6L307.0,502.8L299.8,500.1L298.6,494.9L299.6,491.6L302.8,488.2L304.3,488.2L307.5,493.1L313.4,493.7L314.7,494.5L318.2,494.1L322.7,495.2L324.4,495.1L336.9,491.6L345.9,490.3L349.6,489.3L352.1,490.5L353.7,492.6L354.5,497.4L355.5,500.2L358.0,500.7L360.7,499.6L363.2,496.5L363.9,491.6L366.7,487.1L369.9,486.0L376.7,489.6L378.4,494.4L377.8,498.1L380.5,501.7L379.6,506.7L379.9,512.0L379.2,513.6L376.2,509.1L374.2,501.5L370.3,502.9L372.9,507.8L374.5,513.4L375.5,519.1L374.0,524.4L371.9,528.5L369.0,532.5L367.6,535.6L365.3,538.3L362.9,548.9L363.8,556.4L363.2,557.5L358.9,559.4L358.1,560.4L356.4,564.9L354.6,567.3L352.8,573.0L343.8,579.5L342.0,581.3L340.5,589.1L340.8,590.5L346.2,593.6L352.2,592.0L353.3,591.1L357.8,584.1L361.7,586.2L370.6,589.9L374.5,588.4L376.7,590.4L378.8,593.9L380.4,598.3L378.7,609.8L379.0,612.4L381.9,615.1L384.1,615.9L392.9,620.9L399.0,622.0L403.4,625.9L408.5,631.0L410.4,637.2L412.2,644.0L412.2,647.4L409.9,652.0L410.1,653.7L412.9,659.8L406.4,660.8L403.5,660.5L400.2,657.4L398.4,652.8L394.4,646.1L389.3,643.4L387.9,640.8L385.5,641.2L372.7,638.7L369.4,639.3L367.0,640.8L365.7,643.4L365.4,647.1L366.3,653.6L366.2,655.8L362.8,659.0L361.3,663.4L357.4,671.9L363.7,678.2L358.9,681.8L354.7,682.5L353.2,682.2L351.9,680.3L343.4,664.0L343.1,660.4L343.6,658.7L347.6,659.8L349.0,659.2L350.1,655.7L348.8,652.8L350.7,647.3L355.0,645.5L356.6,642.7L356.4,639.5L354.0,637.1L352.8,636.8L348.7,637.6L344.9,633.9L340.1,630.8L338.0,628.5L332.0,629.0L328.9,627.3L324.7,633.5L323.6,636.7L323.8,639.9L326.0,642.8L327.4,645.7L327.2,649.6L322.4,662.8L323.3,668.3L323.2,670.3L335.6,676.4L338.0,682.7L339.4,687.9L343.4,690.6L343.9,692.4L342.7,695.5L338.5,697.9L335.2,698.6L333.7,700.9L334.9,706.1L334.9,710.0L334.3,713.9L331.8,722.0L332.2,725.6L330.8,729.8L329.2,729.9L325.3,726.9L316.0,724.3L311.6,728.5L308.7,729.7L302.1,733.6L298.7,735.2L295.2,735.4L290.8,733.0L286.0,732.2L272.9,732.4L269.8,733.6L267.9,736.3L266.5,739.5L263.6,750.8L266.1,760.1L265.7,764.5L264.0,768.4L259.3,775.4L256.2,780.9L254.1,787.1L252.2,789.0L249.1,790.7L249.3,790.8L262.2,790.7L266.2,791.9L271.0,794.6L273.7,795.3L275.9,798.2L277.3,798.1L280.2,802.0L338.6,844.1L341.6,848.6L347.1,852.7L352.1,852.1L366.3,853.9L370.1,853.5L373.4,851.8L374.2,849.8L376.8,852.9L384.4,854.1L384.4,852.0L388.5,856.6L400.2,860.2L404.7,859.5L407.8,860.1L412.3,859.4L413.2,859.8L413.5,858.5L418.9,855.1L424.5,852.3L427.1,850.4L429.2,847.3L438.1,829.6L440.0,824.9L439.2,818.7L441.2,812.3L445.4,801.1L455.4,773.6L455.9,767.2L457.1,758.9L458.9,752.7L460.2,746.5L462.6,741.0L466.5,729.0L472.7,718.7L474.1,717.5L479.4,719.8L484.3,720.8L493.4,718.8L496.1,718.5L501.1,717.2L504.2,717.2L508.1,715.6L518.5,704.9L528.1,698.8L532.8,694.7L530.4,688.3L528.4,663.6L529.3,652.1L528.0,647.0L528.1,643.9L527.5,640.2L527.9,638.5L538.5,622.3L541.4,619.8L544.7,619.6L547.9,621.3L551.1,623.7L559.5,628.7L562.8,629.2L567.4,631.9L578.5,644.5L583.7,638.3L585.9,633.3L587.7,631.0L590.5,629.2L593.1,628.9L594.2,631.4L600.7,628.9L602.4,626.9L604.9,621.9L605.9,616.6L608.3,611.8L607.6,610.4L609.1,602.4L611.9,600.0L615.1,588.8L616.4,586.5L617.2,583.1L617.5,579.5L616.0,574.1L595.4,565.1L594.2,561.7L593.5,554.5L594.4,551.4L597.3,543.7L598.3,539.5L597.8,536.1L595.7,530.2L596.1,511.9L596.7,507.7L597.9,504.0L601.5,498.1L601.8,489.6L602.3,487.8L607.4,480.9L613.6,474.9L618.0,473.5L620.7,478.9L621.7,479.9L629.7,481.6L633.5,483.4L635.6,486.6L637.9,499.2L639.2,503.2L640.9,506.7L642.9,509.5L645.2,510.0L647.5,506.9L649.9,495.9L651.6,493.0L653.0,492.2L658.8,490.4L660.3,485.7L660.8,482.0L660.1,476.0L659.4,474.5L655.9,470.5L655.1,467.1L657.0,460.1L656.4,457.0L650.8,452.0L646.0,446.2L641.7,438.9L635.5,421.9L634.9,418.4L630.4,408.7L628.1,405.2L625.6,402.5L623.5,402.0L623.7,394.6L622.8,391.4L620.1,390.4L618.8,391.2L614.3,395.3L609.4,396.3L606.2,398.9L607.8,402.1L607.6,403.9L603.0,409.0L599.0,406.8L597.2,406.7L593.5,408.6L589.2,407.9L582.5,408.0L580.4,409.1L578.8,409.5L577.1,409.4L573.7,406.1L572.2,405.8L567.7,407.2L565.4,409.5L562.8,410.1L557.7,408.0L552.1,406.8L549.3,406.7L546.0,407.9L544.3,410.0L539.9,413.1L536.8,414.5L532.3,417.9L530.2,418.1L527.4,420.1L521.5,421.7L520.0,421.2L517.9,416.6L522.3,415.6L526.4,414.0L525.8,412.5L522.5,410.4L519.4,410.4L516.2,411.1L511.5,411.1L511.1,411.3L509.5,413.3L500.1,416.0L497.9,417.2L492.2,424.0L487.0,433.5L482.9,438.2L481.5,444.5L478.3,447.2L476.1,447.4L473.9,452.2L468.7,456.8L467.4,454.9L468.9,449.9L468.7,446.6L467.5,445.1L462.4,444.5L462.6,443.1L458.2,434.0L456.4,434.0L452.9,434.4L450.0,437.1Z M206.4,443.1L211.8,444.2L211.2,445.0L212.2,447.4L214.7,447.5L214.2,449.0L214.1,455.2L215.7,457.6L214.8,458.1L216.1,461.1L213.4,459.5L213.3,457.7L210.3,454.2L207.7,456.8L205.3,455.8L202.3,456.5L200.1,454.4L200.5,449.2L201.6,447.7L202.6,442.4L206.4,443.1Z M387.1,438.7L390.8,439.1L393.1,446.1L392.6,449.7L389.8,449.1L391.1,454.4L388.4,455.0L387.9,456.5L385.9,457.4L384.6,456.6L381.1,452.8L379.6,452.2L376.7,446.7L376.6,443.6L379.7,438.8L384.0,437.7L384.8,439.1L386.9,437.6L387.1,438.7Z M219.2,449.9L218.0,450.1L215.8,446.9L218.7,445.2L221.8,448.0L219.2,449.9Z M228.1,414.2L229.7,417.7L226.6,417.6L226.4,419.2L225.3,417.8L223.6,411.8L225.3,406.7L226.6,405.8L229.0,405.8L231.3,407.6L231.1,409.7L228.5,411.0L228.1,414.2Z M615.2,415.8L616.0,421.8L615.1,424.4L616.7,428.5L616.2,429.9L614.1,430.3L612.2,428.4L608.6,429.2L606.4,427.4L602.7,427.6L602.5,425.9L605.3,417.8L606.7,415.9L610.8,417.4L615.2,415.8Z " data-id="ET.AA" data-name="Oromiya" id="ET.AA"/>
utf-8utf-8<path d="M219.2,449.9L221.8,448.0L218.7,445.2L215.8,446.9L218.0,450.1L219.2,449.9Z M206.4,443.1L202.6,442.4L201.6,447.7L200.5,449.2L200.1,454.4L202.3,456.5L205.3,455.8L207.7,456.8L210.3,454.2L213.3,457.7L213.4,459.5L216.1,461.1L214.8,458.1L215.7,457.6L214.1,455.2L214.2,449.0L214.7,447.5L212.2,447.4L211.2,445.0L211.8,444.2L206.4,443.1Z M228.1,414.2L228.5,411.0L231.1,409.7L231.3,407.6L229.0,405.8L226.6,405.8L225.3,406.7L223.6,411.8L225.3,417.8L226.4,419.2L226.6,417.6L229.7,417.7L228.1,414.2Z M143.2,222.5L141.2,225.8L132.8,230.2L131.9,231.6L129.9,237.0L130.5,244.5L132.5,252.1L124.8,272.8L124.6,274.4L127.4,279.5L127.2,281.9L123.3,296.3L126.3,300.9L124.8,305.3L120.1,309.7L118.7,314.1L116.1,314.1L113.9,317.8L113.2,317.5L112.8,313.0L109.9,310.7L101.7,302.7L99.7,302.9L91.9,309.1L87.4,317.4L81.9,326.5L81.4,329.2L81.8,332.3L85.5,349.0L85.6,352.4L85.2,355.6L82.9,363.2L79.1,367.3L71.5,393.5L69.7,404.8L70.1,410.6L71.4,429.4L74.4,429.5L86.9,430.7L90.0,429.5L92.7,423.7L94.9,410.6L95.9,396.6L101.5,395.0L102.7,395.2L109.2,400.5L111.3,400.2L118.5,391.1L120.9,385.8L124.5,372.1L122.2,368.0L122.6,367.3L131.1,368.0L132.2,368.4L132.7,373.0L133.4,374.2L140.3,373.4L148.2,374.4L152.2,377.3L166.0,392.4L175.4,404.8L178.8,408.5L182.4,408.1L183.4,409.5L185.0,417.8L185.7,418.8L193.2,419.3L197.5,426.8L201.0,427.6L202.1,429.0L203.2,433.8L204.7,434.5L214.1,420.2L215.8,414.1L216.5,408.6L215.9,404.5L212.8,401.4L208.1,395.5L206.0,393.5L207.9,390.7L206.6,385.8L206.8,378.7L205.9,365.4L207.9,366.3L213.1,364.0L218.9,359.2L221.0,356.4L224.4,350.0L228.9,344.5L234.7,343.7L232.5,352.0L236.3,353.7L237.7,353.5L245.7,345.9L246.9,346.0L249.8,348.0L253.5,349.7L255.0,350.9L263.1,353.4L264.0,352.9L265.7,349.0L266.5,346.4L256.8,344.3L254.1,343.2L248.3,342.1L236.6,340.5L233.6,340.6L231.3,338.6L231.3,334.6L230.5,333.5L225.8,335.1L224.2,334.9L219.7,329.4L218.6,326.2L218.0,322.0L222.0,310.9L218.3,310.1L217.4,311.2L216.5,307.0L218.1,300.6L218.9,299.0L226.1,291.0L227.7,287.7L225.6,282.9L225.5,276.2L228.2,270.4L228.3,267.4L224.1,262.8L221.3,260.5L223.7,255.6L219.7,249.0L216.5,245.0L216.0,238.3L216.2,233.2L215.7,232.4L209.1,237.6L206.4,241.0L202.5,241.4L200.1,232.3L190.3,218.9L187.3,217.2L183.7,216.9L182.2,215.3L180.1,215.3L175.3,220.3L174.3,222.0L166.1,229.4L163.2,232.5L154.4,234.3L153.0,234.3L147.8,229.6L145.0,222.8L143.2,221.1L143.2,222.5Z " data-id="ET.BE" data-name="Benshangul-Gumaz" id="ET.BE"/>
utf-8utf-8<path d="M387.1,438.7L386.9,437.6L384.8,439.1L384.0,437.7L379.7,438.8L376.6,443.6L376.7,446.7L379.6,452.2L381.1,452.8L384.6,456.6L385.9,457.4L387.9,456.5L388.4,455.0L391.1,454.4L389.8,449.1L392.6,449.7L393.1,446.1L390.8,439.1L387.1,438.7Z " data-id="ET.AA" data-name="Addis Ababa" id="ET.AA"/>
utf-8utf-8<path d="M578.8,294.4L573.8,296.3L547.3,296.1L544.6,298.2L543.6,304.1L541.8,307.6L536.9,313.2L534.7,316.4L534.6,324.5L526.3,365.7L528.1,370.6L531.1,371.9L531.8,373.0L530.8,374.7L522.7,382.9L519.2,387.5L513.5,397.8L511.6,406.1L511.1,411.3L511.5,411.1L516.2,411.1L519.4,410.4L522.5,410.4L525.8,412.5L526.4,414.0L522.3,415.6L517.9,416.6L520.0,421.2L521.5,421.7L527.4,420.1L530.2,418.1L532.3,417.9L536.8,414.5L539.9,413.1L544.3,410.0L546.0,407.9L549.3,406.7L552.1,406.8L557.7,408.0L562.8,410.1L565.4,409.5L567.7,407.2L572.2,405.8L573.7,406.1L577.1,409.4L578.8,409.5L580.4,409.1L580.0,405.8L580.4,400.7L581.8,396.5L585.5,396.0L588.6,393.6L600.3,397.4L607.7,388.6L610.8,386.4L614.2,385.9L617.4,387.2L620.1,390.4L622.8,391.4L623.7,394.6L623.5,402.0L625.6,402.5L628.1,405.2L630.4,408.7L634.9,418.4L635.5,421.9L641.7,438.9L646.0,446.2L650.8,452.0L656.4,457.0L657.0,460.1L655.1,467.1L655.9,470.5L659.4,474.5L660.1,476.0L660.8,482.0L660.3,485.7L658.8,490.4L653.0,492.2L651.6,493.0L649.9,495.9L647.5,506.9L645.2,510.0L642.9,509.5L640.9,506.7L639.2,503.2L637.9,499.2L635.6,486.6L633.5,483.4L629.7,481.6L621.7,479.9L620.7,478.9L618.0,473.5L613.6,474.9L607.4,480.9L602.3,487.8L601.8,489.6L601.5,498.1L597.9,504.0L596.7,507.7L596.1,511.9L595.7,530.2L597.8,536.1L598.3,539.5L597.3,543.7L594.4,551.4L593.5,554.5L594.2,561.7L595.4,565.1L616.0,574.1L617.5,579.5L617.2,583.1L616.4,586.5L615.1,588.8L611.9,600.0L609.1,602.4L607.6,610.4L608.3,611.8L605.9,616.6L604.9,621.9L602.4,626.9L600.7,628.9L594.2,631.4L593.1,628.9L590.5,629.2L587.7,631.0L585.9,633.3L583.7,638.3L578.5,644.5L567.4,631.9L562.8,629.2L559.5,628.7L551.1,623.7L547.9,621.3L544.7,619.6L541.4,619.8L538.5,622.3L527.9,638.5L527.5,640.2L528.1,643.9L528.0,647.0L529.3,652.1L528.4,663.6L530.4,688.3L532.8,694.7L528.1,698.8L518.5,704.9L508.1,715.6L504.2,717.2L501.1,717.2L496.1,718.5L493.4,718.8L484.3,720.8L479.4,719.8L474.1,717.5L472.7,718.7L466.5,729.0L462.6,741.0L460.2,746.5L458.9,752.7L457.1,758.9L455.9,767.2L455.4,773.6L445.4,801.1L441.2,812.3L439.2,818.7L440.0,824.9L438.1,829.6L429.2,847.3L427.1,850.4L424.5,852.3L418.9,855.1L413.5,858.5L413.2,859.8L419.2,862.9L424.4,863.5L428.3,861.6L428.0,863.8L436.3,864.0L438.4,864.8L443.1,868.4L444.2,866.4L445.6,861.4L447.3,859.0L456.8,849.0L458.0,847.1L462.1,835.3L463.5,833.4L485.8,820.9L492.5,818.3L498.8,814.2L519.9,804.9L524.1,801.8L525.6,804.0L529.7,807.1L534.4,813.0L537.6,814.3L540.5,816.8L544.9,823.6L547.9,826.2L551.2,827.7L554.7,828.2L569.0,827.2L579.4,824.6L584.2,825.4L587.0,823.6L590.2,824.8L593.1,826.5L596.1,827.2L599.4,825.1L601.5,821.8L601.4,819.5L611.4,810.2L615.8,808.2L626.6,808.1L659.4,801.7L662.2,800.5L666.6,796.0L667.6,793.6L670.0,784.9L670.5,784.2L680.9,774.3L708.0,759.7L729.0,754.2L737.2,751.2L800.3,755.3L802.2,754.4L866.9,672.3L898.6,634.4L955.4,570.6L999.4,520.9L932.8,520.9L928.8,518.7L834.1,483.1L733.8,446.1L731.1,444.3L706.2,419.5L701.3,419.5L692.5,413.7L691.7,412.5L690.6,407.2L687.0,402.1L685.2,399.0L682.2,397.4L680.7,395.6L679.7,392.6L677.4,380.5L676.0,378.1L673.5,376.8L668.0,375.1L666.1,373.1L661.9,362.3L660.2,360.5L653.7,355.9L651.9,353.5L649.9,348.9L648.5,344.1L647.4,337.1L641.7,329.6L638.3,321.4L641.7,319.4L642.4,318.2L644.0,311.8L648.0,307.2L649.1,303.2L650.1,302.0L652.8,300.7L655.7,293.7L652.4,295.3L647.1,294.2L644.4,292.8L642.6,288.7L635.0,286.8L631.9,287.1L626.0,289.1L620.3,293.2L616.7,292.4L612.3,293.3L610.0,294.5L604.4,293.9L598.9,295.0L597.0,297.4L591.4,298.0L581.0,295.8L579.3,295.1L578.8,294.4Z " data-id="ET.SO" data-name="Somali" id="ET.SO"/>
utf-8utf-8<path d="M617.4,387.2L614.2,385.9L610.8,386.4L607.7,388.6L600.3,397.4L588.6,393.6L585.5,396.0L581.8,396.5L580.4,400.7L580.0,405.8L580.4,409.1L582.5,408.0L589.2,407.9L593.5,408.6L597.2,406.7L599.0,406.8L603.0,409.0L607.6,403.9L607.8,402.1L606.2,398.9L609.4,396.3L614.3,395.3L618.8,391.2L620.1,390.4L617.4,387.2Z " data-id="ET.DD" data-name="Dire Dawa" id="ET.DD"/>
utf-8utf-8<path d="M615.2,415.8L610.8,417.4L606.7,415.9L605.3,417.8L602.5,425.9L602.7,427.6L606.4,427.4L608.6,429.2L612.2,428.4L614.1,430.3L616.2,429.9L616.7,428.5L615.1,424.4L616.0,421.8L615.2,415.8Z " data-id="ET.HA" data-name="Harari People" id="ET.HA"/>
utf-8</g>
</svg>
