<?xml version="1.0" ?>
<!DOCTYPE svg
  PUBLIC '-//W3C//DTD SVG 1.1//EN'
  'http://www.w3.org/Graphics/SVG/1.1/DTD/svg11.dtd'>
<svg enable_background="new 0 0 1000 1222" height="1222px" pretty_print="True" style="stroke-linejoin: round; stroke:#000; fill: none;" version="1.1" viewBox="0 0 1000 1222" width="1000px" xmlns="http://www.w3.org/2000/svg" xmlns:xlink="http://www.w3.org/1999/xlink">
utf-8<defs>
utf-8utf-8<style type="text/css">
<![CDATA[path { fill-rule: evenodd; }]]>utf-8utf-8</style>
utf-8</defs>
utf-8<metadata>
utf-8utf-8<views>
utf-8utf-8utf-8<view h="1222.02118312" padding="0" w="1000">
utf-8utf-8utf-8utf-8<proj flip="auto" id="robinson" lon0="10.2327782611"/>
utf-8utf-8utf-8utf-8<bbox h="104.96" w="85.96" x="128.8" y="-38.94"/>
utf-8utf-8utf-8</view>
utf-8utf-8</views>
utf-8</metadata>
utf-8<g class="" id="provinces">
utf-8utf-8<path d="M118.9,294.9L117.7,294.8L118.2,295.4L118.9,294.9Z M105.6,505.6L107.9,508.2L111.7,524.5L113.3,528.4L122.2,541.9L124.7,544.7L126.9,546.3L131.8,547.0L137.6,550.1L143.1,554.5L151.0,565.3L152.0,560.6L149.6,535.5L153.6,532.5L160.3,528.7L167.3,525.6L175.9,524.6L183.1,520.0L184.7,520.4L188.2,523.8L190.2,524.5L193.1,524.0L198.4,520.7L201.3,518.4L206.6,512.0L208.3,511.6L213.4,513.7L216.7,514.0L221.1,517.3L221.9,519.2L225.3,533.6L228.3,533.4L244.0,526.0L264.8,511.1L268.6,507.5L274.4,499.4L276.4,497.4L288.7,489.1L294.0,486.2L314.8,467.7L316.1,463.7L320.1,461.5L319.4,454.8L320.7,449.7L323.6,447.8L327.1,443.7L335.1,437.3L335.8,433.8L333.8,428.1L333.8,426.4L338.0,420.4L339.6,417.0L339.5,414.2L341.2,411.2L343.6,411.3L354.2,409.8L359.4,407.0L360.7,406.9L364.0,407.5L365.1,406.4L368.4,401.9L369.6,397.5L368.2,388.7L368.9,385.7L371.0,383.4L372.1,375.8L375.7,361.4L380.2,350.5L382.9,345.6L384.8,337.6L386.1,335.5L388.6,333.2L390.2,326.5L391.9,321.1L392.3,318.7L392.7,305.2L392.1,300.9L390.5,293.2L388.2,292.7L298.5,327.8L294.6,328.0L293.7,326.2L292.2,320.5L287.9,312.8L287.7,310.0L288.4,306.2L290.9,298.7L292.8,294.8L295.5,285.0L296.4,257.3L248.8,257.2L230.0,257.1L221.6,258.3L220.7,261.2L220.7,266.9L220.1,269.5L218.0,271.7L215.3,272.4L212.2,271.9L209.2,270.4L206.4,267.9L201.9,262.1L199.0,259.9L196.4,258.8L191.2,258.1L189.2,263.8L187.6,259.7L186.1,251.4L183.8,247.1L181.0,246.1L171.0,245.8L167.9,246.4L166.2,248.4L163.4,253.4L160.3,254.4L154.7,255.0L152.4,256.9L150.3,261.1L149.4,265.0L151.9,269.3L152.6,272.4L153.1,277.1L159.2,295.4L161.0,318.5L160.4,328.1L161.0,332.1L163.4,336.0L162.0,339.1L160.2,347.5L157.6,350.7L156.8,354.2L156.7,358.1L157.5,361.2L154.6,360.5L153.2,358.8L151.5,353.3L153.0,350.3L153.9,344.8L153.6,339.1L151.5,336.0L151.3,338.5L146.8,342.6L145.8,337.4L141.7,334.9L136.7,334.6L132.7,336.0L135.1,332.0L138.7,331.5L146.2,333.3L149.1,331.5L149.7,327.5L148.4,323.0L145.6,319.9L142.3,319.5L136.6,322.9L129.7,326.5L124.3,325.0L122.0,325.3L114.8,329.3L107.2,330.6L106.0,333.0L105.3,343.7L105.5,346.6L107.8,349.6L113.5,349.5L116.7,351.3L121.5,357.4L123.7,361.1L131.9,382.5L136.2,386.8L137.2,393.7L138.6,396.0L145.1,393.3L147.2,393.7L149.2,390.6L150.4,390.6L151.4,394.5L153.8,397.4L159.8,401.4L168.0,408.4L169.9,409.4L175.3,409.2L181.5,414.4L189.3,417.4L191.5,416.5L204.8,415.6L214.1,410.6L217.4,413.7L220.8,414.8L229.4,414.6L229.4,416.0L222.5,418.6L220.0,418.8L217.2,418.2L212.1,416.1L209.4,416.0L207.2,416.9L201.1,421.2L199.3,423.3L196.1,428.0L194.0,429.5L191.3,426.7L186.8,426.5L183.5,428.2L183.9,431.4L186.4,435.1L192.7,448.1L187.1,443.0L181.8,433.6L175.5,426.4L166.9,428.0L165.2,424.1L163.7,422.9L161.1,422.7L159.5,424.0L154.6,429.4L153.9,430.8L152.8,428.9L151.3,422.2L150.4,420.0L148.2,418.8L139.7,416.0L137.9,419.5L137.7,423.1L138.6,431.4L138.1,433.5L134.4,431.4L133.8,424.0L132.2,420.2L127.7,415.2L125.9,412.1L120.3,412.1L118.3,412.6L114.9,417.4L114.2,413.4L114.6,411.4L117.2,410.0L116.0,403.9L117.7,396.7L118.0,392.7L117.3,388.0L115.8,384.2L114.2,382.8L112.3,383.3L106.8,388.9L104.3,397.4L106.3,403.7L112.3,440.6L114.0,449.5L110.9,455.3L110.2,460.1L112.4,469.2L110.7,479.4L106.8,488.2L105.5,492.3L105.6,505.6Z " data-id="GA.ES" data-name="Estuaire" id="GA.ES"/>
utf-8utf-8<path d="M773.2,214.4L630.3,212.0L629.4,216.9L627.5,219.7L626.4,224.3L623.5,228.4L619.8,236.5L617.1,239.9L612.7,250.2L607.8,257.3L606.9,260.9L606.8,264.8L607.3,272.0L607.4,278.7L606.5,284.1L604.6,287.4L480.8,382.5L480.1,386.9L497.6,407.8L496.7,414.1L497.0,416.8L495.4,421.5L487.6,428.6L482.7,430.0L458.5,444.2L456.0,446.9L451.7,450.5L450.3,452.4L448.8,458.5L445.9,464.6L445.5,468.3L447.6,471.9L453.4,474.4L455.3,482.5L456.0,491.2L455.5,496.8L455.5,501.4L457.2,507.2L466.1,522.4L467.7,530.0L467.5,534.9L467.9,537.9L470.6,547.9L473.0,551.9L479.4,558.0L482.9,563.3L485.5,569.6L488.2,585.3L488.8,587.2L494.0,599.5L621.1,546.6L648.1,531.1L674.2,399.4L675.1,398.8L679.1,403.0L680.7,404.1L684.0,404.0L695.2,397.8L699.3,399.3L703.5,404.1L704.4,405.8L707.9,408.0L711.1,407.6L725.1,410.0L727.1,408.7L732.0,403.6L739.4,408.7L743.3,410.2L750.0,409.3L751.4,410.0L753.8,412.8L756.6,415.0L757.4,416.6L757.7,420.5L760.9,432.3L762.9,435.5L769.4,439.1L775.2,441.8L779.7,441.6L786.6,444.8L790.0,444.8L822.3,446.2L829.0,445.8L831.6,446.1L866.0,454.5L869.5,456.1L873.2,458.6L881.7,465.6L894.5,470.6L896.6,467.4L900.2,463.0L898.8,455.9L899.5,454.0L901.9,450.4L902.2,448.4L900.8,446.0L896.8,445.5L895.6,444.2L894.9,430.1L894.1,425.3L892.4,419.3L891.6,414.4L892.3,409.7L898.2,399.9L904.3,384.4L908.0,380.0L920.7,372.0L923.9,367.8L924.6,363.8L923.5,359.8L921.6,355.8L926.8,347.5L935.3,346.2L945.0,347.5L953.6,346.9L957.5,344.1L970.3,331.6L971.4,327.4L971.9,317.4L976.9,309.3L984.8,301.6L990.7,293.6L989.5,284.5L989.0,282.1L993.9,277.3L994.2,274.7L992.9,273.1L988.8,270.8L985.5,267.4L982.6,263.6L980.2,259.3L978.3,254.7L975.6,244.8L973.2,240.8L964.9,236.5L962.2,232.4L960.8,227.4L961.0,212.7L960.5,207.6L957.9,195.5L956.9,193.3L953.1,190.7L951.0,187.5L949.0,187.0L945.1,183.5L938.3,181.4L934.9,181.1L931.8,182.0L925.6,184.7L922.0,184.4L919.3,182.2L916.7,179.4L913.6,177.3L910.6,176.5L878.1,173.1L875.6,173.8L873.9,179.7L869.4,185.6L866.0,184.1L861.6,187.1L851.9,188.1L847.2,192.0L841.0,194.7L837.1,200.7L834.9,202.5L829.1,203.7L823.9,203.8L818.6,202.6L812.6,200.2L810.0,199.9L806.2,200.4L802.8,201.4L801.5,202.9L800.4,206.3L794.3,207.7L791.1,212.2L788.0,213.7L784.4,214.5L778.5,214.0L775.0,214.7L773.2,214.4L773.2,214.4Z " data-id="GA.OI" data-name="Ogooué-Ivindo" id="GA.OI"/>
utf-8utf-8<path d="M296.4,257.3L295.5,285.0L292.8,294.8L290.9,298.7L288.4,306.2L287.7,310.0L287.9,312.8L292.2,320.5L293.7,326.2L294.6,328.0L298.5,327.8L388.2,292.7L390.5,293.2L392.1,300.9L392.7,305.2L392.3,318.7L391.9,321.1L390.2,326.5L388.6,333.2L386.1,335.5L384.8,337.6L382.9,345.6L380.2,350.5L375.7,361.4L372.1,375.8L371.0,383.4L368.9,385.7L368.2,388.7L369.6,397.5L368.4,401.9L365.1,406.4L364.0,407.5L497.6,407.8L480.1,386.9L480.8,382.5L604.6,287.4L606.5,284.1L607.4,278.7L607.3,272.0L606.8,264.8L606.9,260.9L607.8,257.3L612.7,250.2L617.1,239.9L619.8,236.5L623.5,228.4L626.4,224.3L627.5,219.7L629.4,216.9L630.3,212.0L773.2,214.4L772.6,211.7L767.2,207.8L770.5,207.4L772.4,202.3L773.7,201.0L779.1,199.5L781.5,197.6L783.1,193.7L784.6,192.0L783.1,189.6L782.6,185.2L782.3,176.0L782.5,174.4L779.7,172.4L776.6,163.0L773.1,160.9L774.1,158.2L773.9,155.5L772.7,153.2L770.7,151.5L769.5,152.9L766.3,148.0L763.5,142.3L766.4,138.4L767.0,133.8L765.9,124.9L766.6,120.8L767.7,117.1L768.2,113.7L767.0,110.4L769.1,108.9L772.2,103.4L774.0,96.2L774.2,93.1L771.2,85.8L769.0,82.4L771.7,80.8L774.0,75.5L777.2,71.4L777.5,69.4L776.6,64.1L789.3,54.1L791.1,49.4L791.7,43.2L791.5,26.7L792.2,20.8L791.5,17.9L784.6,10.8L782.6,9.9L779.0,11.4L777.4,11.4L773.8,8.7L769.0,7.7L763.8,7.4L756.8,13.5L755.2,14.2L747.9,15.3L743.1,12.9L740.3,12.2L736.1,14.1L733.1,13.5L727.9,11.4L726.1,13.2L724.2,14.1L719.6,12.7L718.1,15.1L714.7,14.3L707.8,11.4L701.3,15.9L697.8,16.7L674.5,12.8L670.4,11.1L667.6,8.7L663.6,9.8L651.0,5.2L644.4,4.7L634.9,7.1L631.8,6.4L626.2,2.5L622.4,1.9L618.8,4.0L613.6,5.1L607.0,7.6L603.6,8.4L596.1,8.0L589.1,6.8L586.0,6.6L575.9,7.5L562.9,6.6L549.7,7.9L534.6,7.3L528.8,8.2L526.1,7.9L517.3,4.6L512.1,0.3L509.7,0.0L503.0,2.4L457.1,4.3L456.8,6.0L457.9,11.2L454.4,18.2L453.8,26.2L452.1,30.5L453.4,38.0L454.3,155.8L455.0,257.9L300.3,257.3L296.4,257.3Z " data-id="GA.WN" data-name="Wouleu-Ntem" id="GA.WN"/>
utf-8utf-8<path d="M360.7,406.9L359.4,407.0L354.2,409.8L343.6,411.3L341.2,411.2L339.5,414.2L339.6,417.0L338.0,420.4L333.8,426.4L333.8,428.1L335.8,433.8L335.1,437.3L327.1,443.7L323.6,447.8L320.7,449.7L319.4,454.8L320.1,461.5L316.1,463.7L314.8,467.7L294.0,486.2L288.7,489.1L276.4,497.4L274.4,499.4L268.6,507.5L264.8,511.1L244.0,526.0L228.3,533.4L225.3,533.6L221.9,519.2L221.1,517.3L216.7,514.0L213.4,513.7L208.3,511.6L206.6,512.0L201.3,518.4L198.4,520.7L193.1,524.0L190.2,524.5L188.2,523.8L184.7,520.4L183.1,520.0L175.9,524.6L167.3,525.6L160.3,528.7L153.6,532.5L149.6,535.5L152.0,560.6L151.0,565.3L162.2,606.0L169.3,616.7L175.1,620.2L179.3,624.1L180.2,626.2L183.3,628.3L192.1,628.3L198.6,628.7L205.8,630.2L211.8,635.7L213.8,640.6L212.6,648.3L215.4,655.9L215.3,662.0L214.1,666.0L209.6,675.5L209.4,679.1L211.0,681.3L221.5,692.3L225.5,694.4L233.5,695.9L236.3,697.4L251.1,680.2L256.3,676.4L261.2,674.5L265.5,674.2L272.3,675.5L282.5,675.7L286.4,679.0L287.7,677.4L289.5,672.3L292.2,669.9L293.1,664.5L297.8,657.5L298.6,651.8L297.0,648.9L298.1,646.6L304.5,643.2L306.7,641.2L313.7,627.7L314.1,625.8L314.3,616.3L315.8,610.1L318.6,606.7L327.3,600.8L330.9,596.9L335.9,588.4L340.0,584.2L337.9,577.0L338.7,574.6L342.7,575.6L347.6,572.6L353.9,573.5L357.8,578.7L359.6,579.1L361.9,578.4L363.5,577.0L365.6,573.7L369.0,572.6L372.6,575.5L374.2,576.1L375.6,575.1L377.9,571.8L384.7,568.7L415.6,566.6L422.6,564.9L426.9,565.4L453.3,588.5L463.3,593.9L473.4,597.9L479.0,598.8L494.0,599.5L488.8,587.2L488.2,585.3L485.5,569.6L482.9,563.3L479.4,558.0L473.0,551.9L470.6,547.9L467.9,537.9L467.5,534.9L467.7,530.0L466.1,522.4L457.2,507.2L455.5,501.4L455.5,496.8L456.0,491.2L455.3,482.5L453.4,474.4L447.6,471.9L445.5,468.3L445.9,464.6L448.8,458.5L450.3,452.4L451.7,450.5L456.0,446.9L458.5,444.2L482.7,430.0L487.6,428.6L495.4,421.5L497.0,416.8L496.7,414.1L497.6,407.8L364.0,407.5L360.7,406.9Z " data-id="GA.MO" data-name="Moyen-Ogooué" id="GA.MO"/>
utf-8utf-8<path d="M479.0,598.8L473.4,597.9L463.3,593.9L453.3,588.5L426.9,565.4L422.6,564.9L415.6,566.6L384.7,568.7L377.9,571.8L375.6,575.1L374.2,576.1L372.6,575.5L369.0,572.6L365.6,573.7L363.5,577.0L361.9,578.4L359.6,579.1L357.8,578.7L353.9,573.5L347.6,572.6L342.7,575.6L338.7,574.6L337.9,577.0L340.0,584.2L335.9,588.4L330.9,596.9L327.3,600.8L318.6,606.7L315.8,610.1L314.3,616.3L314.1,625.8L313.7,627.7L306.7,641.2L304.5,643.2L298.1,646.6L297.0,648.9L298.6,651.8L297.8,657.5L293.1,664.5L292.2,669.9L289.5,672.3L287.7,677.4L286.4,679.0L282.5,675.7L272.3,675.5L265.5,674.2L261.2,674.5L256.3,676.4L251.1,680.2L236.3,697.4L235.4,705.2L232.9,710.8L220.8,724.0L219.2,728.3L219.4,735.9L221.3,745.9L221.2,752.1L220.2,758.2L217.3,764.8L215.7,765.6L210.7,766.5L207.3,770.1L206.8,774.0L205.8,775.8L202.8,779.0L203.0,780.7L205.4,783.6L211.8,797.3L217.5,805.2L220.7,808.3L222.3,809.1L229.5,809.4L233.0,810.0L241.6,813.2L247.1,816.6L252.5,818.2L260.2,824.3L262.0,825.3L265.4,825.3L277.5,828.7L281.2,828.4L287.6,825.0L294.8,829.5L298.4,832.8L301.8,834.2L303.7,835.5L303.9,839.4L301.8,845.8L302.0,852.9L308.6,861.2L311.7,874.6L312.8,877.4L317.4,885.1L322.1,890.4L328.9,902.9L403.5,892.0L406.0,892.8L410.9,897.3L411.8,899.2L413.2,905.0L415.5,908.4L429.7,918.2L431.9,921.9L435.1,935.5L435.9,937.2L439.2,940.5L449.1,953.2L462.7,965.7L476.4,981.8L488.4,999.4L488.8,998.0L501.4,974.8L503.0,969.9L503.8,965.8L503.9,961.8L502.9,956.8L501.3,952.4L497.0,944.6L495.7,940.5L495.6,937.0L496.9,926.3L496.3,922.0L492.6,910.6L500.7,906.9L509.4,909.9L511.8,911.2L514.9,916.1L520.7,921.3L523.8,923.1L526.6,923.4L529.5,921.5L535.4,915.4L539.2,913.7L545.4,912.3L552.7,909.7L558.1,906.7L562.9,910.4L568.8,918.6L574.0,922.7L579.3,923.4L647.7,906.8L645.8,902.5L647.0,896.2L649.4,889.5L650.6,883.9L649.4,875.9L649.7,873.0L650.9,870.0L654.1,864.5L654.8,861.1L648.1,857.7L644.6,851.4L643.1,843.6L641.7,822.5L642.4,819.9L644.3,820.4L646.4,822.9L647.0,818.7L646.2,815.8L641.6,814.6L629.5,815.9L627.8,815.7L606.7,807.5L604.9,806.4L594.3,796.3L592.1,793.5L580.7,775.9L573.9,771.0L572.3,766.6L571.8,762.5L576.8,753.3L577.1,748.6L576.6,741.4L574.1,732.2L572.6,723.0L566.5,714.5L563.0,710.5L554.9,706.2L553.5,705.1L547.2,698.3L538.9,691.6L536.1,688.3L530.0,678.7L529.1,676.6L527.5,670.7L527.0,660.1L525.3,659.8L521.8,661.1L509.9,669.5L504.9,670.9L499.7,673.2L497.9,673.1L492.8,671.3L491.6,669.6L491.2,666.1L492.1,659.2L491.3,652.8L490.3,649.0L486.0,643.2L485.0,641.4L484.0,637.4L482.8,627.4L484.0,616.2L486.1,611.4L490.7,605.3L494.0,599.5L479.0,598.8Z " data-id="GA.NG" data-name="Ngounié" id="GA.NG"/>
utf-8utf-8<path d="M488.4,999.4L476.4,981.8L462.7,965.7L449.1,953.2L439.2,940.5L435.9,937.2L435.1,935.5L431.9,921.9L429.7,918.2L415.5,908.4L413.2,905.0L411.8,899.2L410.9,897.3L406.0,892.8L403.5,892.0L328.9,902.9L304.3,916.7L298.4,922.5L296.6,927.3L292.9,934.9L296.0,944.0L294.9,944.9L290.9,946.3L287.7,948.5L284.1,954.7L282.7,962.9L280.3,968.2L278.7,968.9L275.3,968.9L217.6,987.8L220.5,990.3L230.9,1000.2L253.1,1018.6L261.8,1026.7L283.8,1046.1L301.9,1063.4L318.4,1084.0L319.1,1087.8L322.0,1089.4L326.9,1093.7L330.7,1096.3L333.2,1098.6L334.8,1102.2L335.5,1106.0L334.9,1110.4L333.9,1113.7L333.7,1116.7L335.0,1125.5L362.7,1147.1L383.7,1167.4L389.4,1172.2L393.0,1176.7L393.9,1185.0L396.6,1192.0L399.2,1204.6L407.6,1214.6L415.1,1220.0L417.8,1214.4L429.4,1179.5L432.2,1173.3L436.7,1169.0L442.6,1164.7L447.7,1159.9L453.3,1156.0L460.4,1154.4L467.0,1152.0L470.8,1146.4L474.1,1140.4L478.8,1136.7L487.4,1138.1L493.8,1143.6L507.4,1168.7L510.2,1172.2L514.0,1173.6L523.3,1172.2L526.8,1172.7L536.7,1175.9L543.3,1174.5L547.1,1171.4L550.1,1167.2L551.5,1162.9L550.3,1158.7L547.0,1156.7L542.9,1155.2L539.4,1152.8L537.7,1148.8L538.2,1144.2L548.1,1118.0L550.5,1113.3L557.9,1107.0L560.2,1102.8L558.4,1096.5L551.8,1093.0L543.6,1090.5L537.4,1087.1L530.5,1080.6L526.9,1078.2L517.1,1073.6L514.0,1070.0L514.3,1068.9L514.5,1055.4L515.4,1052.0L517.7,1047.1L519.5,1045.9L525.8,1045.7L530.1,1042.7L530.1,1038.5L527.6,1034.0L514.6,1018.3L508.6,1008.5L505.8,1004.9L502.4,1003.6L497.5,1005.3L490.5,1010.9L487.6,1011.4L486.7,1006.9L488.4,999.4Z " data-id="GA.NY" data-name="Nyanga" id="GA.NY"/>
utf-8utf-8<path d="M56.4,599.9L59.5,597.6L59.3,591.5L60.0,583.2L58.6,576.5L52.3,575.0L52.3,573.6L54.5,570.2L53.6,568.2L52.2,570.3L48.4,572.9L44.5,578.0L44.7,583.8L47.9,588.3L47.4,596.4L48.9,599.0L51.6,601.0L53.9,601.2L56.4,599.9Z M143.1,554.5L137.6,550.1L131.8,547.0L126.9,546.3L124.7,544.7L122.2,541.9L113.3,528.4L111.7,524.5L107.9,508.2L105.6,505.6L105.6,517.4L103.2,525.5L98.9,533.1L83.5,552.2L80.4,559.3L70.2,569.6L68.8,574.6L70.2,577.9L72.2,581.0L72.5,585.5L70.2,580.3L68.2,581.3L67.8,587.1L63.0,589.7L61.8,591.2L61.9,595.7L61.0,598.9L56.9,604.0L55.9,607.7L55.5,619.5L54.8,623.2L53.6,623.2L52.5,620.4L53.7,613.5L53.6,609.6L51.6,606.1L45.4,599.5L43.6,592.7L42.3,589.4L40.6,586.6L36.4,584.4L34.8,584.3L33.5,585.5L33.5,587.8L38.1,592.3L38.1,593.6L32.0,592.7L29.7,592.9L28.8,595.7L27.5,603.0L27.3,606.3L28.8,609.6L26.0,608.7L24.8,603.1L21.1,600.8L19.4,598.5L18.4,595.7L17.6,587.5L16.2,580.9L13.6,576.1L9.9,576.2L9.2,572.8L9.9,571.0L4.4,569.8L2.5,568.1L4.0,564.4L2.8,562.9L0.4,567.0L4.4,581.4L9.7,589.1L12.0,599.4L15.7,606.5L20.2,618.1L23.7,625.5L25.2,632.5L28.1,631.2L29.4,634.5L30.5,639.3L31.7,642.5L34.6,643.3L39.7,639.5L41.7,640.5L38.0,644.5L37.0,647.1L39.4,648.3L36.9,649.3L34.4,647.9L29.9,643.1L47.0,667.9L49.9,676.5L51.1,688.5L51.7,690.5L52.8,690.7L54.4,683.7L52.2,677.8L55.4,680.7L58.4,685.3L59.2,689.8L55.9,692.6L57.1,695.1L55.9,698.7L56.3,702.7L57.9,705.9L62.6,708.3L68.6,713.5L71.1,715.1L77.9,712.4L79.6,716.7L79.3,720.5L79.9,724.6L81.8,727.2L84.6,727.6L92.9,725.9L94.7,724.6L97.8,719.0L100.6,717.9L101.7,718.6L103.1,721.3L104.7,721.9L109.5,717.9L110.0,715.8L108.8,705.7L108.8,701.8L110.4,702.8L110.0,705.8L113.1,712.6L113.7,715.9L111.0,721.6L110.2,725.3L108.8,727.2L101.8,728.6L103.4,731.4L104.1,734.2L103.8,736.8L102.3,738.0L99.3,738.3L96.8,739.5L95.4,741.5L95.7,744.6L99.8,745.6L100.5,746.6L101.7,754.8L102.0,757.9L104.2,760.1L107.6,759.4L113.2,758.9L117.9,757.3L121.8,754.1L126.1,747.6L127.7,743.9L127.1,739.8L131.2,739.3L136.0,742.0L135.3,745.2L135.5,749.4L137.1,756.7L139.1,760.6L141.8,762.9L148.9,766.0L143.8,767.4L129.5,765.2L124.1,766.0L125.3,768.3L125.3,771.5L124.1,778.1L121.5,776.5L120.6,773.7L120.8,770.4L121.8,767.4L117.6,767.7L113.0,769.4L109.0,772.0L106.4,775.3L103.8,771.3L101.8,773.5L103.4,776.1L102.9,778.1L100.8,779.2L99.8,776.2L98.2,751.9L91.7,749.3L80.0,738.8L74.6,731.2L73.5,729.3L72.6,725.5L68.6,720.7L66.8,714.5L64.7,712.2L62.0,710.9L59.3,711.2L56.0,707.0L53.9,703.6L52.2,697.8L49.9,692.6L50.7,696.7L53.9,705.8L55.5,709.2L77.1,743.3L86.6,754.5L90.5,760.6L93.4,768.7L93.3,776.7L95.7,785.4L95.6,793.4L94.6,800.8L95.0,806.5L96.5,810.4L99.0,811.4L102.8,808.6L106.7,811.9L107.1,814.1L105.1,817.9L107.0,817.9L111.1,820.7L111.0,818.4L112.4,814.7L114.0,814.1L115.7,808.6L117.0,807.3L120.0,808.7L124.3,817.7L127.6,820.7L127.0,814.6L127.6,812.7L131.1,815.4L132.8,813.5L136.0,817.2L141.6,828.2L141.9,829.5L140.2,830.7L138.2,834.1L139.2,836.4L143.4,839.7L145.2,842.1L146.9,842.1L148.4,844.8L149.5,848.7L149.9,852.2L145.9,856.3L144.1,851.4L140.6,848.8L139.9,842.8L135.2,842.1L131.1,838.1L134.9,834.6L135.3,830.6L132.9,827.4L128.1,826.1L119.3,826.1L117.5,829.2L117.1,826.6L119.3,824.8L118.0,820.7L117.0,820.7L115.6,824.8L114.4,825.9L112.2,824.8L113.5,823.4L109.9,823.8L106.0,822.4L99.6,816.6L99.2,818.5L105.1,824.1L106.2,826.1L113.4,834.1L115.8,841.6L117.9,845.0L121.7,846.1L120.5,848.8L122.9,851.0L128.1,858.1L132.7,861.0L149.8,880.0L151.0,882.9L152.0,900.6L155.1,911.2L159.0,916.9L163.6,922.0L167.4,924.9L165.9,922.1L162.1,916.9L160.5,914.1L163.5,916.3L170.6,926.1L173.3,927.4L174.9,924.9L174.4,922.1L172.2,917.4L172.5,916.1L175.8,915.6L176.9,916.4L176.9,920.9L180.9,923.1L177.3,929.1L181.7,934.2L185.7,933.0L189.6,928.7L193.8,925.2L198.1,926.2L201.6,924.3L202.0,922.3L204.6,923.7L204.8,925.2L208.7,934.2L211.7,933.8L216.5,934.7L220.9,936.4L222.9,938.3L222.3,939.9L217.0,941.0L216.7,942.9L217.7,947.0L217.0,949.0L221.6,951.7L224.1,946.3L225.2,944.8L225.1,941.5L225.8,941.0L230.5,942.3L231.9,943.1L233.8,946.8L238.1,951.3L240.5,951.7L238.2,941.8L237.0,938.3L238.2,938.3L240.5,941.6L244.6,943.4L248.0,945.3L247.6,949.0L252.3,951.7L251.3,954.2L249.7,955.1L245.2,955.6L235.9,955.9L233.4,956.9L231.1,962.0L226.3,965.8L225.7,965.1L226.3,962.4L221.6,963.5L220.4,965.0L219.8,962.7L219.2,955.6L218.0,956.9L216.5,955.8L214.5,958.4L213.3,958.4L212.7,954.2L208.8,948.7L202.7,946.3L200.0,947.5L198.6,945.5L198.0,941.9L198.1,938.3L195.7,941.0L195.1,938.6L196.9,931.5L193.6,935.3L191.4,938.5L189.1,940.1L185.1,939.6L181.4,937.5L176.5,931.5L173.3,928.9L177.1,936.3L207.5,979.0L217.6,987.8L275.3,968.9L278.7,968.9L280.3,968.2L282.7,962.9L284.1,954.7L287.7,948.5L290.9,946.3L294.9,944.9L296.0,944.0L292.9,934.9L296.6,927.3L298.4,922.5L304.3,916.7L328.9,902.9L322.1,890.4L317.4,885.1L312.8,877.4L311.7,874.6L308.6,861.2L302.0,852.9L301.8,845.8L303.9,839.4L303.7,835.5L301.8,834.2L298.4,832.8L294.8,829.5L287.6,825.0L281.2,828.4L277.5,828.7L265.4,825.3L262.0,825.3L260.2,824.3L252.5,818.2L247.1,816.6L241.6,813.2L233.0,810.0L229.5,809.4L222.3,809.1L220.7,808.3L217.5,805.2L211.8,797.3L205.4,783.6L203.0,780.7L202.8,779.0L205.8,775.8L206.8,774.0L207.3,770.1L210.7,766.5L215.7,765.6L217.3,764.8L220.2,758.2L221.2,752.1L221.3,745.9L219.4,735.9L219.2,728.3L220.8,724.0L232.9,710.8L235.4,705.2L236.3,697.4L233.5,695.9L225.5,694.4L221.5,692.3L211.0,681.3L209.4,679.1L209.6,675.5L214.1,666.0L215.3,662.0L215.4,655.9L212.6,648.3L213.8,640.6L211.8,635.7L205.8,630.2L198.6,628.7L192.1,628.3L183.3,628.3L180.2,626.2L179.3,624.1L175.1,620.2L169.3,616.7L162.2,606.0L151.0,565.3L143.1,554.5Z " data-id="GA.OM" data-name="Ogooué-Maritime" id="GA.OM"/>
utf-8utf-8<path d="M790.0,444.8L789.6,454.7L785.2,464.4L779.9,473.4L782.5,477.7L785.7,494.4L787.1,495.7L792.1,497.8L793.7,499.4L836.6,594.8L837.7,599.5L837.5,602.7L816.0,638.6L788.0,677.0L785.6,678.6L782.6,675.8L770.1,668.8L770.3,678.9L770.9,686.2L770.8,694.3L770.1,698.1L768.7,700.4L763.5,704.2L759.6,711.3L754.9,713.7L747.9,722.5L746.1,723.7L739.4,724.3L734.4,727.3L732.5,729.1L730.4,734.6L725.7,739.3L723.6,743.8L723.2,749.5L721.4,754.0L715.4,764.0L702.6,793.8L702.2,795.7L702.9,801.3L700.4,807.4L699.2,812.7L696.5,821.2L697.2,821.8L704.5,824.5L707.4,826.7L709.4,831.5L713.1,845.6L714.7,849.8L719.1,855.3L719.7,859.8L719.6,863.0L722.9,863.9L721.1,871.2L723.4,873.7L724.9,880.6L727.3,880.5L731.5,878.1L733.0,879.7L736.2,885.7L737.8,887.9L739.1,894.7L742.6,898.6L741.2,900.3L739.3,907.3L735.8,912.1L735.4,915.1L737.7,915.0L742.9,909.2L745.1,908.4L749.4,909.3L760.4,915.0L764.0,916.0L765.9,915.5L769.2,913.4L772.9,913.5L802.9,926.1L805.9,926.5L809.2,925.6L816.3,925.4L817.4,925.7L819.7,928.5L821.5,927.3L823.7,922.0L825.5,920.2L831.1,915.8L836.8,908.9L842.9,906.2L845.4,903.1L845.9,899.0L847.1,897.0L860.2,882.6L861.6,880.5L863.0,872.4L864.8,868.5L868.5,862.5L871.2,863.1L873.6,865.7L875.6,869.4L877.1,873.5L878.7,881.6L882.5,890.6L884.6,894.2L888.9,899.7L889.5,905.2L894.4,909.0L896.7,912.6L893.9,915.3L891.5,921.2L887.9,923.3L886.6,925.0L886.3,933.4L889.1,936.2L893.0,937.7L897.2,938.0L900.8,937.1L907.1,934.2L908.7,935.5L909.2,939.1L911.6,940.3L922.4,937.4L928.3,939.7L931.2,932.2L935.5,927.3L935.5,922.2L937.7,918.6L944.3,913.3L952.5,911.1L953.2,911.7L952.0,905.5L939.0,893.0L938.4,886.3L940.8,884.3L946.7,881.8L949.0,879.0L948.0,874.1L953.3,868.7L954.1,865.9L955.1,855.7L956.4,849.9L953.2,844.8L954.1,843.0L955.3,837.6L956.5,836.2L981.6,824.3L982.8,821.7L981.5,813.2L982.7,806.5L983.3,791.0L984.4,786.8L986.5,784.1L990.5,781.4L989.2,780.1L982.7,778.3L980.6,770.5L977.3,768.3L976.1,766.9L977.7,765.3L984.5,761.7L987.4,755.7L993.1,754.5L993.0,751.6L991.1,748.1L988.9,745.6L991.0,739.9L991.3,735.2L992.0,733.4L996.2,729.6L997.4,727.4L996.4,723.3L990.4,718.8L987.9,715.8L986.9,712.1L991.2,705.7L993.5,697.4L993.7,691.3L992.1,687.1L987.3,680.6L987.7,671.6L985.9,667.4L981.0,652.1L981.1,649.3L982.9,645.2L983.8,636.8L984.7,632.3L987.3,627.5L990.4,623.7L992.3,619.5L991.6,613.6L990.5,608.7L990.4,603.9L991.4,599.1L998.4,582.0L999.6,575.7L998.0,569.8L994.0,560.4L991.9,557.8L985.1,552.5L981.3,546.7L975.5,542.6L968.9,539.3L964.1,537.7L961.2,538.3L955.8,540.7L949.9,538.5L947.0,538.5L941.2,541.4L940.9,534.1L939.6,526.1L937.5,518.2L934.6,511.6L930.2,506.6L923.9,503.1L917.0,501.9L910.7,503.8L906.4,499.8L900.2,499.0L897.0,503.1L892.6,503.5L884.7,492.7L884.8,487.2L886.7,482.4L894.5,470.6L881.7,465.6L873.2,458.6L869.5,456.1L866.0,454.5L831.6,446.1L829.0,445.8L822.3,446.2L790.0,444.8Z " data-id="GA.HO" data-name="Haut-Ogooué" id="GA.HO"/>
utf-8utf-8<path d="M786.6,444.8L779.7,441.6L775.2,441.8L769.4,439.1L762.9,435.5L760.9,432.3L757.7,420.5L757.4,416.6L756.6,415.0L753.8,412.8L751.4,410.0L750.0,409.3L743.3,410.2L739.4,408.7L732.0,403.6L727.1,408.7L725.1,410.0L711.1,407.6L707.9,408.0L704.4,405.8L703.5,404.1L699.3,399.3L695.2,397.8L684.0,404.0L680.7,404.1L679.1,403.0L675.1,398.8L674.2,399.4L648.1,531.1L621.1,546.6L494.0,599.5L490.7,605.3L486.1,611.4L484.0,616.2L482.8,627.4L484.0,637.4L485.0,641.4L486.0,643.2L490.3,649.0L491.3,652.8L492.1,659.2L491.2,666.1L491.6,669.6L492.8,671.3L497.9,673.1L499.7,673.2L504.9,670.9L509.9,669.5L521.8,661.1L525.3,659.8L527.0,660.1L527.5,670.7L529.1,676.6L530.0,678.7L536.1,688.3L538.9,691.6L547.2,698.3L553.5,705.1L554.9,706.2L563.0,710.5L566.5,714.5L572.6,723.0L574.1,732.2L576.6,741.4L577.1,748.6L576.8,753.3L571.8,762.5L572.3,766.6L573.9,771.0L580.7,775.9L592.1,793.5L594.3,796.3L604.9,806.4L606.7,807.5L627.8,815.7L629.5,815.9L641.6,814.6L646.2,815.8L647.0,818.7L646.4,822.9L649.6,826.8L652.6,827.9L654.9,826.5L656.1,820.7L657.1,818.2L659.0,815.9L667.5,809.5L669.3,808.7L677.8,808.4L685.1,811.9L696.5,821.2L699.2,812.7L700.4,807.4L702.9,801.3L702.2,795.7L702.6,793.8L715.4,764.0L721.4,754.0L723.2,749.5L723.6,743.8L725.7,739.3L730.4,734.6L732.5,729.1L734.4,727.3L739.4,724.3L746.1,723.7L747.9,722.5L754.9,713.7L759.6,711.3L763.5,704.2L768.7,700.4L770.1,698.1L770.8,694.3L770.9,686.2L770.3,678.9L770.1,668.8L782.6,675.8L785.6,678.6L788.0,677.0L816.0,638.6L837.5,602.7L837.7,599.5L836.6,594.8L793.7,499.4L792.1,497.8L787.1,495.7L785.7,494.4L782.5,477.7L779.9,473.4L785.2,464.4L789.6,454.7L790.0,444.8L786.6,444.8Z " data-id="GA.OL" data-name="Ogooué-Lolo" id="GA.OL"/>
utf-8</g>
</svg>
