<?xml version="1.0" ?>
<!DOCTYPE svg
  PUBLIC '-//W3C//DTD SVG 1.1//EN'
  'http://www.w3.org/Graphics/SVG/1.1/DTD/svg11.dtd'>
<svg enable_background="new 0 0 1000 1495" height="1495px" pretty_print="True" style="stroke-linejoin: round; stroke:#000; fill: none;" version="1.1" viewBox="0 0 1000 1495" width="1000px" xmlns="http://www.w3.org/2000/svg" xmlns:xlink="http://www.w3.org/1999/xlink">
utf-8<defs>
utf-8utf-8<style type="text/css">
<![CDATA[path { fill-rule: evenodd; }]]>utf-8utf-8</style>
utf-8</defs>
utf-8<metadata>
utf-8utf-8<views>
utf-8utf-8utf-8<view h="1495.68582237" padding="0" w="1000">
utf-8utf-8utf-8utf-8<proj flip="auto" id="robinson" lon0="-61.4416611481"/>
utf-8utf-8utf-8utf-8<bbox h="8.84" w="5.91" x="-909.37" y="-210.1"/>
utf-8utf-8utf-8</view>
utf-8utf-8</views>
utf-8</metadata>
utf-8<g class="" id="provinces">
utf-8utf-8<path d="M986.4,0.0L945.9,37.4L914.9,104.6L879.9,153.5L827.2,135.3L810.9,162.8L806.6,174.1L832.8,172.7L840.4,174.1L830.9,191.4L811.7,236.0L802.0,253.3L845.4,235.3L888.3,211.4L931.0,198.3L974.0,212.8L979.0,154.0L992.4,97.9L999.7,46.4L986.4,0.0Z " data-id="GD.CA" data-name="Carriacou and Petite Martinique" id="GD.CA"/>
utf-8utf-8<path d="M362.4,993.8L342.7,1052.1L304.2,1117.4L273.3,1157.0L275.7,1187.3L284.8,1243.3L296.1,1262.0L341.9,1248.0L379.7,1266.6L423.0,1306.0L431.2,1289.3L444.6,1282.6L451.3,1273.8L440.0,1227.5L440.4,1205.3L459.4,1161.9L471.5,1142.3L478.6,1122.5L493.1,1000.8L423.7,993.8L362.4,993.8Z " data-id="GD.AN" data-name="Saint Andrew" id="GD.AN"/>
utf-8utf-8<path d="M296.1,1262.0L262.7,1273.6L242.8,1336.6L240.0,1385.5L256.6,1418.2L270.6,1429.8L292.5,1418.1L291.3,1439.2L401.4,1376.7L416.6,1351.3L418.7,1328.2L423.0,1306.0L379.7,1266.6L341.9,1248.0L296.1,1262.0Z " data-id="GD.DA" data-name="Saint David" id="GD.DA"/>
utf-8utf-8<path d="M270.6,1429.8L256.6,1418.2L240.0,1385.5L242.8,1336.6L262.7,1273.6L296.1,1262.0L284.8,1243.3L275.7,1187.3L201.9,1189.7L114.7,1189.6L97.8,1252.7L102.2,1291.5L112.6,1324.1L117.9,1357.3L106.8,1398.8L90.1,1415.9L0.3,1478.0L37.0,1489.4L83.1,1492.1L125.8,1482.2L153.0,1456.9L171.9,1470.4L192.4,1481.1L214.4,1488.8L237.3,1493.7L242.5,1466.9L253.8,1445.7L270.6,1429.8Z " data-id="GD.GE" data-name="Saint George" id="GD.GE"/>
utf-8utf-8<path d="M307.7,1019.5L262.1,993.8L215.9,980.3L177.0,1029.3L172.6,1078.4L114.7,1189.6L201.9,1189.7L275.7,1187.3L273.3,1157.0L304.2,1117.4L342.7,1052.1L307.7,1019.5Z " data-id="GD.JO" data-name="Saint John" id="GD.JO"/>
utf-8utf-8<path d="M357.5,935.5L335.2,895.9L304.3,868.6L215.9,980.3L262.1,993.8L307.7,1019.5L342.7,1052.1L362.4,993.8L357.5,935.5Z " data-id="GD.MA" data-name="Saint Mark" id="GD.MA"/>
utf-8utf-8<path d="M304.3,868.6L335.2,895.9L357.5,935.5L362.4,993.8L423.7,993.8L493.1,1000.8L495.2,983.1L493.1,942.0L475.0,893.9L491.5,877.2L493.7,868.5L442.0,830.6L385.7,822.1L333.0,832.5L304.3,868.6Z M563.7,648.9L559.1,632.1L571.5,618.5L555.0,607.7L543.5,614.6L536.8,630.9L521.5,652.1L519.1,658.1L530.9,666.8L541.9,677.1L547.8,680.3L563.7,648.9Z " data-id="GD.PA" data-name="Saint Patrick" id="GD.PA"/>
utf-8</g>
</svg>
