<?xml version="1.0" ?>
<!DOCTYPE svg
  PUBLIC '-//W3C//DTD SVG 1.1//EN'
  'http://www.w3.org/Graphics/SVG/1.1/DTD/svg11.dtd'>
<svg enable_background="new 0 0 1000 424" height="424px" pretty_print="True" style="stroke-linejoin: round; stroke:#000; fill: none;" version="1.1" viewBox="0 0 1000 424" width="1000px" xmlns="http://www.w3.org/2000/svg" xmlns:xlink="http://www.w3.org/1999/xlink">
utf-8<defs>
utf-8utf-8<style type="text/css">
<![CDATA[path { fill-rule: evenodd; }]]>utf-8utf-8</style>
utf-8</defs>
utf-8<metadata>
utf-8utf-8<views>
utf-8utf-8utf-8<view h="424.022908862" padding="0" w="1000">
utf-8utf-8utf-8utf-8<proj flip="auto" id="robinson" lon0="41.4446284826"/>
utf-8utf-8utf-8utf-8<bbox h="41.18" w="97.36" x="535.87" y="-730.27"/>
utf-8utf-8utf-8</view>
utf-8utf-8</views>
utf-8</metadata>
utf-8<g class="" id="provinces">
utf-8utf-8<path d="M248.1,194.2L253.2,191.8L257.9,188.9L261.7,183.4L268.1,181.3L279.2,174.9L288.3,165.6L290.0,162.5L294.7,159.0L295.3,156.0L293.0,148.9L287.9,143.0L286.6,138.9L285.9,134.6L282.9,127.0L281.4,123.6L284.1,121.3L285.7,118.7L284.3,115.1L278.9,104.2L275.9,101.4L278.4,97.7L291.3,95.5L298.0,92.8L299.8,89.0L302.4,85.8L304.3,81.7L305.3,77.1L302.9,67.7L303.5,63.4L304.7,59.5L294.9,64.8L290.6,65.6L286.2,65.4L281.6,64.2L276.9,62.3L272.8,61.4L268.7,61.2L259.3,62.2L254.9,61.8L245.5,59.5L240.4,59.0L230.6,60.2L225.5,59.8L221.4,58.0L214.2,52.4L210.2,50.5L202.6,48.6L194.5,40.0L190.0,38.6L180.5,40.3L175.4,38.4L170.6,35.3L165.7,33.4L160.9,32.5L146.9,34.2L142.5,33.3L121.1,19.9L116.2,17.7L101.3,13.4L87.8,6.1L82.9,6.6L74.8,10.7L70.7,11.7L65.2,11.1L29.2,0.0L19.7,0.0L10.9,2.2L8.0,4.1L6.6,6.7L1.4,28.1L4.6,31.6L9.1,33.2L15.6,34.1L17.8,35.0L22.9,38.9L30.8,40.9L35.4,42.6L38.1,45.0L42.0,49.5L45.1,54.4L45.5,59.6L50.8,64.2L55.4,70.9L57.0,72.2L59.8,68.1L65.0,68.6L77.0,73.3L82.9,74.4L89.3,78.5L92.4,80.8L106.4,79.9L120.5,81.6L131.2,85.1L132.2,85.8L136.4,90.7L139.3,92.8L144.5,98.4L148.1,99.5L153.1,97.3L156.5,97.2L159.8,102.0L167.2,110.8L172.4,121.0L180.3,129.5L190.4,128.4L197.8,131.2L202.8,134.1L213.7,135.9L219.9,138.8L225.3,143.1L229.8,148.7L233.5,155.3L248.1,194.2Z " data-id="GE.AB" data-name="Abkhazia" id="GE.AB"/>
utf-8utf-8<path d="M392.8,295.2L390.9,294.4L384.7,289.5L381.5,288.8L377.9,289.9L371.3,294.1L361.5,295.5L357.3,294.6L349.7,291.2L343.1,291.9L338.0,293.4L333.2,290.4L328.4,288.1L321.1,285.6L319.7,282.1L313.3,279.0L295.0,278.2L297.6,291.7L294.8,298.9L295.2,303.7L290.5,313.3L289.1,318.3L281.7,323.3L278.5,328.3L272.2,343.1L288.0,348.7L294.0,348.8L298.2,347.3L299.6,351.7L307.4,353.3L313.8,357.9L315.7,358.6L321.6,353.6L324.9,347.9L326.6,346.6L331.8,344.5L342.4,348.0L348.8,345.7L354.9,346.6L359.0,345.4L361.1,345.5L366.0,348.5L369.4,348.8L376.2,348.4L402.1,357.1L405.6,356.9L408.2,355.2L411.2,349.5L413.7,346.6L414.6,343.9L414.6,337.1L415.5,334.2L417.9,332.3L418.0,332.2L416.0,328.7L410.8,322.8L406.9,319.4L402.6,316.3L399.5,311.8L399.2,308.7L400.4,306.5L399.4,300.7L397.4,297.2L396.4,295.5L392.8,295.2Z " data-id="GE.AJ" data-name="Ajaria" id="GE.AJ"/>
utf-8utf-8<path d="M343.8,242.4L334.8,241.4L327.0,237.2L319.0,235.5L302.3,238.1L293.5,238.3L285.1,239.8L284.1,244.4L281.9,252.0L281.9,252.0L289.2,260.8L291.2,266.9L295.0,278.2L295.0,278.2L313.3,279.0L319.7,282.1L321.1,285.6L328.4,288.1L333.2,290.4L338.0,293.4L343.1,291.9L349.7,291.2L357.3,294.6L361.5,295.5L371.3,294.1L377.9,289.9L381.5,288.8L384.7,289.5L390.9,294.4L392.8,295.2L396.4,295.5L403.1,294.9L409.7,296.4L411.6,294.7L412.3,291.7L415.0,289.8L418.6,289.7L416.6,281.3L413.1,274.0L408.7,273.0L404.4,273.3L394.3,268.9L390.3,266.5L385.1,265.2L380.7,263.1L377.9,258.2L374.4,254.2L369.3,253.1L365.6,255.6L363.4,256.2L353.7,254.5L349.5,250.1L351.8,245.7L343.8,242.4Z " data-id="GE.GU" data-name="Guria" id="GE.GU"/>
utf-8utf-8<path d="M304.7,59.5L303.5,63.4L302.9,67.7L305.3,77.1L304.3,81.7L302.4,85.8L299.8,89.0L298.0,92.8L291.3,95.5L278.4,97.7L275.9,101.4L278.9,104.2L284.3,115.1L285.7,118.7L284.1,121.3L281.4,123.6L282.9,127.0L285.9,134.6L286.6,138.9L287.9,143.0L293.0,148.9L295.3,156.0L294.7,159.0L290.0,162.5L288.3,165.6L279.2,174.9L268.1,181.3L261.7,183.4L257.9,188.9L253.2,191.8L248.1,194.2L248.1,194.2L249.9,198.1L254.2,201.4L256.2,203.7L267.9,226.5L270.4,234.1L271.8,239.7L273.1,242.9L276.5,245.4L281.9,252.0L284.1,244.4L285.1,239.8L293.5,238.3L302.3,238.1L319.0,235.5L327.0,237.2L334.8,241.4L343.8,242.4L351.8,245.7L357.2,245.1L359.0,240.0L357.1,231.2L357.1,224.3L359.2,221.5L359.9,217.2L364.2,208.3L371.9,198.4L373.0,194.4L372.2,189.6L373.0,187.0L374.8,185.3L375.8,179.6L379.2,175.8L386.0,175.4L388.4,174.7L391.1,174.6L376.9,156.0L379.1,149.1L371.7,143.4L354.7,135.6L346.0,129.8L348.3,124.0L352.2,121.9L360.1,120.1L362.1,114.3L365.6,114.4L369.3,115.8L389.7,120.0L397.8,120.3L401.2,118.8L404.3,116.8L420.4,122.8L430.2,121.6L439.4,124.5L443.3,125.1L445.1,121.6L444.4,116.4L446.9,113.9L450.5,108.1L454.6,106.4L451.7,105.1L434.4,92.7L426.7,88.5L425.1,86.8L425.4,81.4L425.0,79.2L412.5,75.3L408.0,73.0L403.5,69.8L399.2,67.5L393.6,66.3L388.1,66.2L382.1,67.9L377.8,68.0L375.6,69.0L372.5,72.1L370.7,72.8L368.0,72.3L358.8,68.2L354.2,65.4L350.0,62.2L341.2,57.5L331.6,56.4L308.7,58.1L305.4,59.1L304.7,59.5Z " data-id="GE.SZ" data-name="Samegrelo-Zemo Svaneti" id="GE.SZ"/>
utf-8utf-8<path d="M526.6,195.2L517.1,192.3L503.2,193.3L488.3,191.9L476.4,198.0L472.5,202.4L467.1,204.5L457.3,205.3L450.1,202.0L447.0,201.5L443.1,199.1L440.3,193.8L432.1,188.0L423.6,183.7L420.2,183.8L417.7,186.5L414.1,186.3L410.3,185.0L396.4,189.4L395.6,185.8L393.9,182.7L393.0,178.5L391.1,174.6L388.4,174.7L386.0,175.4L379.2,175.8L375.8,179.6L374.8,185.3L373.0,187.0L372.2,189.6L373.0,194.4L371.9,198.4L364.2,208.3L359.9,217.2L359.2,221.5L357.1,224.3L357.1,231.2L359.0,240.0L357.2,245.1L351.8,245.7L349.5,250.1L353.7,254.5L363.4,256.2L365.6,255.6L369.3,253.1L374.4,254.2L377.9,258.2L380.7,263.1L385.1,265.2L390.3,266.5L394.3,268.9L404.4,273.3L408.7,273.0L413.1,274.0L416.6,281.3L418.6,289.7L428.0,294.3L442.0,290.9L454.4,293.2L460.6,293.3L466.1,291.1L480.1,289.9L485.0,291.0L523.4,275.8L523.1,269.4L527.3,265.4L528.2,259.4L527.4,252.3L530.5,248.9L534.4,245.9L536.1,241.5L537.0,236.7L540.1,233.5L540.0,229.2L538.1,223.9L538.2,218.9L546.4,213.0L556.5,210.4L555.5,205.0L556.0,199.6L552.2,196.3L547.9,196.8L544.5,198.7L540.7,199.6L535.1,198.8L529.7,196.1L526.6,195.2Z " data-id="GE.IM" data-name="Imereti" id="GE.IM"/>
utf-8utf-8<path d="M760.7,168.7L757.4,174.6L757.1,182.1L758.6,187.2L757.3,191.4L754.8,193.9L754.3,197.8L757.4,204.4L757.5,210.9L752.2,212.2L749.2,215.1L746.6,218.9L745.6,227.3L743.7,231.1L743.6,240.6L742.5,244.5L745.5,250.9L746.8,255.6L750.4,260.9L749.2,265.4L751.6,270.6L754.9,271.6L758.3,271.9L765.4,273.5L771.4,278.9L760.6,280.3L752.1,275.8L748.5,278.1L745.5,281.8L750.3,284.1L753.2,289.0L757.6,292.7L761.6,297.3L766.8,300.3L772.2,300.8L775.5,305.3L777.7,310.7L782.2,319.6L779.4,329.5L781.1,334.1L782.8,337.3L785.6,338.8L790.1,339.1L794.7,340.3L797.9,343.6L799.8,347.8L801.3,349.8L803.7,354.8L811.0,358.0L816.0,358.1L820.3,356.8L822.4,357.2L830.2,363.2L851.6,370.2L861.0,371.9L864.5,373.1L864.8,374.1L860.1,376.1L857.7,379.6L862.0,384.4L868.7,388.9L879.4,394.3L901.5,401.1L908.3,401.9L911.6,401.6L914.2,400.7L920.5,396.5L923.5,395.8L933.9,395.8L936.6,396.6L939.2,398.5L944.2,403.2L953.8,409.9L957.0,411.5L965.8,414.0L968.4,415.8L973.3,420.6L976.1,422.0L979.1,421.9L981.2,414.8L983.8,413.1L989.3,414.0L992.0,413.6L994.0,410.2L994.0,404.8L993.6,399.0L994.0,394.5L996.8,389.7L996.3,386.7L997.4,381.6L991.8,375.6L986.0,370.7L984.0,371.5L980.9,366.8L973.3,363.1L958.7,357.9L951.0,352.4L946.3,351.1L938.1,346.5L935.1,343.7L933.2,340.1L930.2,332.4L923.6,326.1L921.6,329.9L917.2,327.0L913.9,319.5L912.1,311.0L912.2,305.3L914.3,302.7L917.3,302.4L924.0,303.8L926.9,303.5L930.6,300.9L935.1,294.3L937.2,290.0L940.4,280.2L936.2,276.1L932.4,274.4L924.0,273.8L919.8,272.1L912.3,265.6L908.2,263.0L903.2,263.0L895.4,264.5L891.1,264.4L887.5,263.0L885.8,259.4L884.2,258.5L880.0,259.1L875.0,256.3L868.8,258.1L866.8,257.2L864.9,255.3L859.1,246.6L856.9,244.9L846.7,242.7L829.5,233.1L823.5,230.8L818.8,228.4L816.6,224.5L824.6,187.4L817.3,177.4L805.7,173.6L793.8,171.8L785.8,171.6L775.3,174.6L769.6,175.3L764.6,173.6L762.8,171.7L760.7,168.7Z " data-id="GE.KA" data-name="Kakheti" id="GE.KA"/>
utf-8utf-8<path d="M604.4,157.6L607.4,162.5L611.0,166.0L617.9,167.6L624.0,174.9L626.7,176.8L629.4,179.5L626.0,184.4L625.1,190.4L628.2,192.9L630.2,198.2L634.7,202.1L636.1,207.1L636.7,212.3L639.9,216.7L642.1,222.0L640.3,224.9L637.8,226.8L636.5,231.0L633.6,233.4L633.1,241.6L634.0,253.5L635.2,256.2L639.4,258.1L640.9,262.4L647.7,256.3L652.5,256.5L662.8,258.5L668.1,260.9L670.9,266.1L673.1,272.0L678.7,276.9L683.5,282.1L682.6,286.9L677.5,287.1L674.4,290.4L676.1,296.8L674.0,299.7L674.9,304.0L682.8,304.9L690.1,309.1L697.7,314.4L704.3,311.1L705.5,308.4L707.9,307.4L709.6,301.7L713.6,301.8L717.1,299.5L718.5,296.1L722.1,296.4L731.4,300.4L733.9,296.7L734.7,292.0L736.3,289.0L739.1,287.9L746.4,289.4L753.2,289.0L750.3,284.1L745.5,281.8L748.5,278.1L752.1,275.8L760.6,280.3L771.4,278.9L765.4,273.5L758.3,271.9L754.9,271.6L751.6,270.6L749.2,265.4L750.4,260.9L746.8,255.6L745.5,250.9L742.5,244.5L743.6,240.6L743.7,231.1L745.6,227.3L746.6,218.9L749.2,215.1L752.2,212.2L757.5,210.9L757.4,204.4L754.3,197.8L754.8,193.9L757.3,191.4L758.6,187.2L757.1,182.1L757.4,174.6L760.7,168.7L759.1,166.5L757.1,164.3L740.4,149.6L735.8,146.5L731.0,145.0L728.4,145.3L721.3,147.7L716.0,146.2L698.9,136.6L692.7,135.5L690.0,139.7L689.7,142.4L687.3,150.1L687.0,159.2L686.1,160.4L684.0,158.8L678.6,149.1L676.5,146.9L669.1,141.4L657.4,137.2L651.4,136.6L644.6,137.0L640.8,138.0L631.1,143.1L625.9,144.8L613.7,145.0L611.2,148.4L609.6,153.1L605.9,157.2L604.4,157.6Z " data-id="GE.MM" data-name="Mtskheta-Mtianeti" id="GE.MM"/>
utf-8utf-8<path d="M454.6,106.4L450.5,108.1L446.9,113.9L444.4,116.4L445.1,121.6L443.3,125.1L439.4,124.5L430.2,121.6L420.4,122.8L404.3,116.8L401.2,118.8L397.8,120.3L389.7,120.0L369.3,115.8L365.6,114.4L362.1,114.3L360.1,120.1L352.2,121.9L348.3,124.0L346.0,129.8L354.7,135.6L371.7,143.4L379.1,149.1L376.9,156.0L391.1,174.6L393.0,178.5L393.9,182.7L395.6,185.8L396.4,189.4L410.3,185.0L414.1,186.3L417.7,186.5L420.2,183.8L423.6,183.7L432.1,188.0L440.3,193.8L443.1,199.1L447.0,201.5L450.1,202.0L457.3,205.3L467.1,204.5L472.5,202.4L476.4,198.0L488.3,191.9L503.2,193.3L517.1,192.3L526.6,195.2L529.7,196.1L539.3,188.1L558.3,186.7L560.7,185.6L562.7,180.7L569.1,176.0L568.2,167.6L564.6,165.5L558.7,164.2L551.9,163.7L545.4,162.2L540.6,157.9L540.0,153.0L543.2,149.6L547.4,146.5L549.7,142.5L547.2,137.7L540.5,134.9L527.1,132.1L524.2,130.7L517.3,124.6L514.6,122.9L504.3,118.7L457.5,107.7L454.6,106.4Z " data-id="GE.RK" data-name="Racha-Lechkhumi-Kvemo Svaneti" id="GE.RK"/>
utf-8utf-8<path d="M722.1,296.4L718.5,296.1L717.1,299.5L713.6,301.8L709.6,301.7L707.9,307.4L705.5,308.4L704.3,311.1L706.9,311.7L707.8,314.1L710.2,316.4L714.3,316.2L726.6,321.5L733.7,322.5L738.0,324.3L743.4,324.6L748.3,323.0L751.2,317.7L749.0,313.6L747.1,315.2L745.7,317.6L742.7,318.3L736.7,316.5L734.2,314.8L731.4,308.9L728.3,306.7L728.1,303.8L731.4,300.4L722.1,296.4Z " data-id="GE.TB" data-name="Tbilisi" id="GE.TB"/>
utf-8utf-8<path d="M746.4,289.4L739.1,287.9L736.3,289.0L734.7,292.0L733.9,296.7L731.4,300.4L728.1,303.8L728.3,306.7L731.4,308.9L734.2,314.8L736.7,316.5L742.7,318.3L745.7,317.6L747.1,315.2L749.0,313.6L751.2,317.7L748.3,323.0L743.4,324.6L738.0,324.3L733.7,322.5L726.6,321.5L714.3,316.2L710.2,316.4L707.8,314.1L706.9,311.7L704.3,311.1L697.7,314.4L690.1,309.1L682.8,304.9L674.9,304.0L673.6,308.4L663.9,308.6L660.5,307.5L657.8,305.0L655.0,303.9L647.4,307.6L640.9,308.7L634.1,307.2L629.8,307.9L625.8,309.1L593.2,306.3L587.7,312.8L579.4,313.1L573.1,312.2L571.0,317.5L573.4,334.2L572.8,338.3L571.1,339.7L570.7,342.4L575.7,343.2L581.8,343.0L588.2,341.5L594.8,341.8L599.2,345.3L602.6,350.2L604.1,351.2L607.0,360.7L608.9,364.6L612.1,366.3L614.2,369.5L615.4,373.1L614.9,380.5L617.3,387.9L621.6,393.0L624.8,401.8L627.8,401.0L632.9,398.7L635.7,398.5L641.9,400.0L644.7,399.5L647.2,398.2L649.0,396.2L649.3,391.8L652.2,390.8L656.2,392.2L663.8,396.4L666.5,397.3L669.7,396.8L672.6,394.1L675.9,393.8L684.1,397.9L687.4,398.9L690.5,399.1L693.7,398.2L696.7,394.7L698.2,394.7L701.1,398.9L704.1,399.7L705.8,398.0L708.3,393.2L711.1,391.9L713.9,392.3L720.2,394.4L740.6,394.8L744.2,394.3L743.4,390.6L737.7,388.3L736.1,386.0L738.3,383.5L752.1,385.4L757.3,385.3L762.9,380.6L792.1,354.8L796.2,353.4L800.8,353.6L803.7,354.8L801.3,349.8L799.8,347.8L797.9,343.6L794.7,340.3L790.1,339.1L785.6,338.8L782.8,337.3L781.1,334.1L779.4,329.5L782.2,319.6L777.7,310.7L775.5,305.3L772.2,300.8L766.8,300.3L761.6,297.3L757.6,292.7L753.2,289.0L746.4,289.4Z " data-id="GE.KK" data-name="Kvemo Kartli" id="GE.KK"/>
utf-8utf-8<path d="M586.1,299.9L576.8,300.1L571.7,300.8L566.4,298.3L561.6,296.7L558.7,292.3L554.3,291.7L548.8,288.0L544.9,284.7L541.9,279.6L536.6,277.6L527.2,275.6L523.4,275.8L485.0,291.0L480.1,289.9L466.1,291.1L460.6,293.3L454.4,293.2L442.0,290.9L428.0,294.3L418.6,289.7L415.0,289.8L412.3,291.7L411.6,294.7L409.7,296.4L403.1,294.9L396.4,295.5L397.4,297.2L399.4,300.7L400.4,306.5L399.2,308.7L399.5,311.8L402.6,316.3L406.9,319.4L410.8,322.8L416.0,328.7L418.0,332.2L418.6,332.1L421.2,331.2L428.1,330.7L447.8,332.2L450.6,333.4L449.9,334.9L449.5,339.8L446.2,343.1L445.4,344.8L449.3,346.7L452.5,349.3L455.2,350.1L458.0,346.5L459.6,345.4L463.5,350.5L469.0,352.3L474.1,356.0L479.6,363.1L482.0,365.1L493.5,371.5L501.2,376.8L505.8,378.7L510.0,379.2L510.4,380.1L507.2,384.1L500.4,387.6L504.4,388.7L510.2,388.7L513.5,391.6L518.3,399.1L520.6,400.4L532.7,397.1L536.7,396.9L541.3,398.0L545.5,400.0L549.9,403.2L552.6,407.1L551.9,411.5L556.0,411.6L563.0,408.8L568.8,408.6L592.1,411.5L595.4,411.2L598.0,410.2L603.4,405.0L609.0,402.7L621.8,402.4L624.7,401.8L624.8,401.8L621.6,393.0L617.3,387.9L614.9,380.5L615.4,373.1L614.2,369.5L612.1,366.3L608.9,364.6L607.0,360.7L604.1,351.2L602.6,350.2L599.2,345.3L594.8,341.8L588.2,341.5L581.8,343.0L575.7,343.2L570.7,342.4L571.1,339.7L572.8,338.3L573.4,334.2L571.0,317.5L573.1,312.2L579.4,313.1L587.7,312.8L593.2,306.3L586.1,299.9Z " data-id="GE.SJ" data-name="Samtskhe-Javakheti" id="GE.SJ"/>
utf-8utf-8<path d="M674.0,299.7L676.1,296.8L674.4,290.4L677.5,287.1L682.6,286.9L683.5,282.1L678.7,276.9L673.1,272.0L670.9,266.1L668.1,260.9L662.8,258.5L652.5,256.5L647.7,256.3L640.9,262.4L639.4,258.1L635.2,256.2L634.0,253.5L633.1,241.6L633.6,233.4L636.5,231.0L637.8,226.8L640.3,224.9L642.1,222.0L639.9,216.7L636.7,212.3L636.1,207.1L634.7,202.1L630.2,198.2L628.2,192.9L625.1,190.4L626.0,184.4L629.4,179.5L626.7,176.8L624.0,174.9L617.9,167.6L611.0,166.0L607.4,162.5L604.4,157.6L599.9,158.9L586.8,159.5L581.3,162.0L577.2,168.0L575.5,169.6L573.0,169.9L570.2,168.8L568.2,167.6L569.1,176.0L562.7,180.7L560.7,185.6L558.3,186.7L539.3,188.1L529.7,196.1L535.1,198.8L540.7,199.6L544.5,198.7L547.9,196.8L552.2,196.3L556.0,199.6L555.5,205.0L556.5,210.4L546.4,213.0L538.2,218.9L538.1,223.9L540.0,229.2L540.1,233.5L537.0,236.7L536.1,241.5L534.4,245.9L530.5,248.9L527.4,252.3L528.2,259.4L527.3,265.4L523.1,269.4L523.4,275.8L527.2,275.6L536.6,277.6L541.9,279.6L544.9,284.7L548.8,288.0L554.3,291.7L558.7,292.3L561.6,296.7L566.4,298.3L571.7,300.8L576.8,300.1L586.1,299.9L593.2,306.3L625.8,309.1L629.8,307.9L634.1,307.2L640.9,308.7L647.4,307.6L655.0,303.9L657.8,305.0L660.5,307.5L663.9,308.6L673.6,308.4L674.9,304.0L674.0,299.7Z " data-id="GE.SD" data-name="Shida Kartli" id="GE.SD"/>
utf-8</g>
</svg>
