<?xml version="1.0" ?>
<!DOCTYPE svg
  PUBLIC '-//W3C//DTD SVG 1.1//EN'
  'http://www.w3.org/Graphics/SVG/1.1/DTD/svg11.dtd'>
<svg enable_background="new 0 0 1000 1639" height="1639px" pretty_print="True" style="stroke-linejoin: round; stroke:#000; fill: none;" version="1.1" viewBox="0 0 1000 1639" width="1000px" xmlns="http://www.w3.org/2000/svg" xmlns:xlink="http://www.w3.org/1999/xlink">
utf-8<defs>
utf-8utf-8<style type="text/css">
<![CDATA[path { fill-rule: evenodd; }]]>utf-8utf-8</style>
utf-8</defs>
utf-8<metadata>
utf-8utf-8<views>
utf-8utf-8utf-8<view h="1639.05823579" padding="0" w="1000">
utf-8utf-8utf-8utf-8<proj flip="auto" id="robinson" lon0="-1.08908332052"/>
utf-8utf-8utf-8utf-8<bbox h="107.75" w="65.78" x="-48.22" y="-187.19"/>
utf-8utf-8utf-8</view>
utf-8utf-8</views>
utf-8</metadata>
utf-8<g class="" id="provinces">
utf-8utf-8<path d="M712.4,117.9L708.0,119.1L693.8,127.3L683.0,128.3L660.1,133.7L653.6,136.3L643.3,141.5L637.8,143.2L631.0,142.5L625.9,138.7L622.2,143.2L620.8,151.0L618.1,155.2L615.4,156.0L612.0,154.2L609.5,154.1L606.6,155.4L603.8,158.0L601.1,158.7L597.8,157.4L590.5,157.4L588.0,158.8L586.5,161.3L583.4,164.1L582.1,164.2L578.9,162.5L577.0,164.2L574.8,162.7L578.3,156.6L579.4,152.5L578.2,147.1L574.9,142.4L576.7,138.4L576.0,134.7L572.7,133.2L559.3,132.8L555.2,135.4L554.7,140.2L546.8,146.6L545.9,151.8L543.8,154.9L541.9,159.8L531.9,169.9L526.4,174.2L525.0,174.4L524.6,171.9L529.0,166.5L527.3,164.9L521.9,164.8L517.2,162.5L511.3,161.2L504.7,161.7L481.2,171.5L479.3,172.8L477.1,175.6L475.1,182.3L472.3,185.5L464.6,189.8L461.0,199.0L462.6,207.6L462.9,210.7L462.3,215.3L461.3,216.9L456.9,220.2L454.5,219.4L452.5,216.3L444.9,215.6L440.9,213.1L435.3,210.8L433.1,206.4L428.7,202.5L427.4,199.0L427.0,196.8L419.8,194.2L411.7,189.4L406.9,187.3L400.9,187.1L399.2,187.7L394.3,193.5L389.9,202.9L385.3,208.5L376.3,216.0L373.6,219.2L371.4,222.5L369.1,229.6L368.5,239.5L367.8,242.8L364.2,250.2L363.5,253.6L364.9,255.4L381.9,272.5L384.5,276.4L380.7,279.7L376.8,281.7L373.1,281.5L369.8,280.4L363.4,282.1L363.7,283.5L367.5,284.6L369.2,286.3L369.0,288.3L367.0,289.9L361.8,289.6L354.5,294.0L352.5,298.9L352.3,300.4L352.9,308.5L354.8,311.7L355.3,316.2L353.6,323.9L351.0,327.2L345.8,329.0L342.3,332.7L340.4,336.3L337.7,338.6L332.3,338.8L319.8,337.0L312.5,338.0L298.0,337.0L268.8,344.3L260.3,344.6L252.3,343.1L246.4,342.6L240.7,343.1L233.5,345.5L232.1,345.7L212.2,344.0L210.9,344.2L190.1,351.4L187.5,351.9L176.3,352.0L173.0,352.7L166.3,355.7L165.5,356.5L162.3,364.4L161.2,366.5L151.9,371.0L148.8,376.2L147.0,378.6L143.5,380.7L118.1,384.6L118.9,385.2L116.0,388.0L114.1,391.7L113.0,395.9L112.6,400.0L113.0,404.2L114.1,406.8L122.1,415.0L133.2,430.8L133.5,434.5L132.5,442.6L133.9,448.9L133.9,455.7L132.8,460.1L127.0,463.6L124.7,467.0L124.3,471.8L126.1,475.7L129.3,478.3L133.2,479.3L136.7,481.5L136.4,486.3L133.7,491.2L126.6,495.4L124.0,500.0L120.0,509.0L115.3,514.6L114.3,516.7L113.9,529.4L112.9,533.4L110.8,537.0L116.2,541.5L119.3,542.1L125.0,542.4L130.7,543.8L136.4,547.2L137.8,551.3L138.0,556.5L141.5,568.5L145.6,570.5L146.4,577.1L150.9,594.8L150.6,598.3L146.6,601.5L146.0,604.7L147.2,606.8L149.2,605.8L150.5,605.0L158.3,609.7L167.3,620.8L173.6,624.2L180.1,638.1L188.5,645.5L191.6,654.1L197.0,657.7L198.7,662.5L202.8,671.4L201.4,676.2L203.2,680.3L205.9,684.1L208.3,689.5L212.5,691.1L213.8,695.5L216.5,701.1L218.6,710.2L220.3,726.1L222.5,729.5L228.8,734.2L232.0,737.5L238.3,746.4L245.2,750.5L251.0,761.4L254.8,765.6L263.0,767.9L272.7,767.7L294.1,762.7L296.5,760.4L300.2,753.4L302.1,751.4L304.9,746.8L308.6,742.1L313.2,739.5L318.6,740.2L327.6,745.1L332.4,746.3L336.6,745.0L338.9,741.5L339.7,737.0L339.5,732.4L335.8,722.9L328.8,721.0L320.2,721.8L311.7,720.2L309.3,718.0L307.4,714.4L306.2,710.0L305.7,705.4L303.8,699.1L304.9,696.7L308.0,692.5L310.2,687.0L310.8,682.3L310.2,666.9L310.5,661.5L311.6,656.2L313.5,651.2L316.4,646.9L325.5,642.4L342.2,648.4L348.8,645.1L351.7,644.3L354.5,640.6L355.3,638.0L357.6,634.8L359.2,634.0L363.7,633.1L377.0,636.0L379.3,636.1L387.3,634.9L391.6,632.8L395.2,629.8L395.7,628.6L397.3,619.8L399.9,615.7L403.6,613.0L409.1,612.1L421.1,611.6L426.5,612.5L428.5,613.7L437.2,622.5L448.3,631.0L454.1,633.5L458.9,634.6L467.1,635.0L470.1,636.5L471.4,640.4L472.4,646.0L475.7,654.6L476.6,658.6L476.5,662.7L475.7,665.3L473.4,670.2L472.0,672.0L460.5,683.7L459.2,685.6L457.5,690.8L456.8,702.1L454.9,705.1L450.8,709.3L448.3,713.6L448.0,714.9L451.5,719.1L457.6,723.7L460.7,728.2L463.1,732.7L486.9,808.2L488.2,810.5L496.4,814.8L499.6,810.0L501.5,805.7L505.6,802.4L506.8,798.1L506.8,791.9L505.4,787.0L502.1,780.4L501.6,777.6L502.5,771.6L504.5,768.5L517.6,763.0L520.9,759.6L523.4,755.4L527.0,744.8L528.9,741.9L530.8,740.2L534.9,737.8L538.2,736.6L541.8,733.8L547.6,726.0L554.8,724.5L559.1,725.3L574.3,723.9L578.0,725.2L583.4,731.1L588.9,738.9L612.1,760.1L624.6,768.3L628.7,769.9L637.9,771.5L641.9,771.2L644.3,770.3L649.0,764.9L653.5,753.9L656.3,751.5L662.6,751.8L670.4,748.9L673.0,749.3L678.4,752.1L683.4,752.8L687.2,751.9L691.4,747.1L695.6,743.2L698.0,738.7L699.4,730.7L706.8,724.3L716.8,720.4L721.4,720.3L726.9,721.4L731.7,723.1L735.3,724.9L743.2,730.6L748.4,736.9L753.3,742.3L756.0,744.5L762.4,744.8L771.4,743.6L775.1,742.5L777.2,741.1L777.5,739.6L776.8,736.0L775.3,725.7L775.4,724.1L778.7,721.4L785.6,721.1L787.9,719.3L787.9,713.5L784.3,707.1L779.6,705.4L772.8,706.3L767.9,707.7L759.0,708.3L756.5,707.5L754.1,705.4L754.0,697.0L753.1,694.4L753.5,690.8L754.4,689.7L759.7,687.6L761.3,685.2L759.8,681.9L755.6,679.6L754.2,672.3L756.7,664.4L758.3,660.5L760.7,656.3L763.3,654.7L769.1,656.8L771.1,655.9L772.1,653.2L771.9,651.8L768.1,647.3L766.8,645.2L765.7,641.3L767.0,637.3L771.5,630.8L775.8,620.3L775.9,618.8L773.9,615.4L774.1,614.0L776.1,610.7L781.6,608.2L783.9,607.6L787.4,608.2L793.8,612.1L798.0,612.2L806.5,610.4L815.4,611.8L814.9,608.5L816.4,606.1L819.3,605.5L821.9,606.7L824.3,612.4L826.7,609.5L828.2,605.2L827.0,604.2L829.3,603.3L836.6,605.0L839.0,603.6L839.8,600.3L840.2,596.3L846.2,585.1L843.4,572.6L832.6,551.9L829.6,544.0L831.9,536.2L835.7,528.3L836.8,520.1L836.8,516.1L838.2,513.6L843.3,508.5L846.0,503.3L845.9,499.3L843.2,490.2L843.4,485.1L845.2,482.7L847.7,481.0L850.0,478.4L850.9,475.2L851.3,467.7L853.4,454.8L852.0,448.8L847.9,444.8L841.2,442.3L843.1,436.1L842.7,433.5L841.2,431.3L829.3,426.4L825.1,425.6L816.1,426.2L811.1,427.2L807.7,428.9L806.6,430.9L805.9,436.0L805.0,438.2L803.3,439.8L793.0,443.9L788.9,444.8L784.7,444.3L783.7,440.9L785.5,438.0L784.0,433.9L784.0,430.3L793.3,428.1L796.8,426.6L799.7,424.4L800.5,421.7L798.6,419.0L795.4,418.8L789.7,420.0L787.4,418.9L782.9,414.8L782.9,413.2L783.9,406.0L784.5,404.3L795.7,405.8L801.1,405.4L805.1,402.5L808.2,404.7L812.3,405.5L816.0,404.4L817.5,400.9L815.6,395.6L811.2,394.6L802.1,397.2L795.1,396.4L791.5,391.1L791.4,383.6L794.6,376.4L800.5,383.4L804.3,385.8L808.3,385.2L810.6,382.1L811.3,377.6L810.8,373.0L809.7,369.2L806.6,364.7L805.4,362.0L805.1,357.2L809.9,337.4L810.0,334.5L809.0,324.3L809.4,320.8L811.2,316.9L815.7,311.8L815.8,309.8L814.3,304.7L811.6,298.7L811.2,297.0L812.6,291.4L811.2,288.9L815.2,288.1L818.6,288.7L822.1,283.0L821.4,277.8L819.6,276.2L817.1,275.5L814.3,273.4L812.1,266.8L813.2,248.8L812.9,240.2L814.5,236.8L816.2,228.7L821.7,224.1L817.1,219.9L815.0,218.7L805.2,220.5L802.0,220.6L804.0,215.4L801.6,211.4L797.8,207.5L795.3,202.9L796.4,198.0L796.3,195.2L794.1,192.7L791.8,192.1L785.1,194.7L782.9,194.4L777.0,191.7L774.9,195.7L772.5,195.0L761.1,171.0L757.5,166.8L745.7,158.4L743.9,155.9L741.2,150.2L739.5,147.9L737.4,146.5L730.4,143.9L725.4,139.6L720.2,138.8L713.1,134.9L710.9,129.6L711.0,124.3L712.4,117.9Z " data-id="GH.NP" data-name="Northern" id="GH.NP"/>
utf-8utf-8<path d="M414.3,36.9L409.8,48.0L408.7,53.0L408.5,62.4L407.6,64.3L407.6,79.2L402.8,84.0L399.4,86.7L397.8,89.2L396.7,97.2L393.6,100.4L384.2,108.9L382.1,111.6L379.5,123.4L379.5,125.7L381.1,131.1L382.4,140.1L385.2,147.4L386.1,148.1L390.2,148.6L398.5,158.6L403.4,159.8L407.9,164.2L407.6,169.7L408.3,172.3L411.3,175.9L415.5,179.4L420.1,176.0L423.4,175.2L425.5,176.3L428.7,184.4L429.2,189.5L428.6,195.1L427.0,196.8L427.4,199.0L428.7,202.5L433.1,206.4L435.3,210.8L440.9,213.1L444.9,215.6L452.5,216.3L454.5,219.4L456.9,220.2L461.3,216.9L462.3,215.3L462.9,210.7L462.6,207.6L461.0,199.0L464.6,189.8L472.3,185.5L475.1,182.3L477.1,175.6L479.3,172.8L481.2,171.5L504.7,161.7L511.3,161.2L517.2,162.5L521.9,164.8L527.3,164.9L529.0,166.5L524.6,171.9L525.0,174.4L526.4,174.2L531.9,169.9L541.9,159.8L543.8,154.9L545.9,151.8L546.8,146.6L554.7,140.2L555.2,135.4L559.3,132.8L572.7,133.2L576.0,134.7L576.7,138.4L574.9,142.4L578.2,147.1L579.4,152.5L578.3,156.6L574.8,162.7L577.0,164.2L578.9,162.5L582.1,164.2L583.4,164.1L586.5,161.3L588.0,158.8L590.5,157.4L597.8,157.4L601.1,158.7L603.8,158.0L606.6,155.4L609.5,154.1L612.0,154.2L615.4,156.0L618.1,155.2L620.8,151.0L622.2,143.2L625.9,138.7L631.0,142.5L637.8,143.2L643.3,141.5L653.6,136.3L660.1,133.7L683.0,128.3L693.8,127.3L708.0,119.1L712.4,117.9L713.1,114.3L714.3,103.6L716.0,99.2L719.2,94.7L723.8,91.2L725.7,89.1L726.1,86.4L724.8,78.9L729.6,53.3L730.7,50.9L736.1,45.7L736.6,42.5L737.2,33.5L736.5,25.6L733.1,19.6L725.7,16.4L721.4,16.5L713.8,18.7L709.7,19.2L705.6,18.0L701.1,15.2L697.4,11.3L695.7,7.1L665.4,0.0L664.7,4.1L666.1,8.8L664.4,12.6L661.5,15.7L650.3,24.9L646.3,19.5L642.0,15.7L637.7,15.7L633.4,21.8L632.4,25.5L631.9,31.3L630.7,34.0L628.0,36.4L622.1,39.5L617.3,44.4L608.6,44.1L603.9,44.6L600.7,46.0L598.6,50.2L597.0,56.5L594.7,62.2L590.8,65.0L580.1,53.3L583.4,47.5L582.0,45.7L577.4,45.9L577.1,43.0L550.0,42.4L548.9,40.6L545.0,42.4L540.2,43.3L535.2,49.5L531.3,50.1L532.8,46.6L530.5,46.7L529.3,45.9L527.8,42.5L524.2,40.7L493.3,38.0L487.0,39.1L485.0,43.0L429.5,42.3L423.9,41.2L416.5,37.9L414.3,36.9Z " data-id="GH.UE" data-name="Upper East" id="GH.UE"/>
utf-8utf-8<path d="M411.5,35.7L383.2,34.7L379.3,36.1L377.7,40.6L375.1,42.2L117.2,45.1L117.1,42.4L97.8,42.0L97.5,45.3L98.8,50.2L101.3,54.7L102.6,59.6L101.3,65.4L98.3,69.1L94.7,72.2L91.7,76.1L90.1,81.4L87.6,93.2L83.8,100.1L83.0,105.9L81.7,108.3L78.6,112.5L82.5,118.1L82.5,119.8L80.0,126.1L77.0,132.2L76.3,134.7L77.3,139.5L83.9,152.9L84.5,155.4L84.8,160.9L85.4,163.4L90.1,169.5L90.8,174.4L92.6,177.6L100.4,185.4L103.1,187.0L106.8,187.7L112.3,187.9L113.1,189.0L112.2,191.4L110.1,193.7L107.6,194.8L104.7,195.1L99.2,199.9L97.7,203.6L96.6,208.8L96.6,214.2L98.4,218.3L104.5,220.1L105.9,224.7L111.4,226.1L115.9,229.8L116.0,233.1L115.2,236.5L113.6,238.7L109.0,242.7L106.1,248.0L106.0,253.1L108.3,264.6L108.2,286.4L109.3,291.6L114.4,300.1L115.8,304.7L115.6,311.3L113.5,322.8L114.4,329.2L119.7,338.9L120.4,341.4L118.9,344.0L111.2,353.8L107.4,362.3L106.5,367.6L108.1,372.9L109.9,375.2L114.3,376.4L115.5,378.4L116.4,383.1L118.1,384.6L143.5,380.7L147.0,378.6L148.8,376.2L151.9,371.0L161.2,366.5L162.3,364.4L165.5,356.5L166.3,355.7L173.0,352.7L176.3,352.0L187.5,351.9L190.1,351.4L210.9,344.2L212.2,344.0L232.1,345.7L233.5,345.5L240.7,343.1L246.4,342.6L252.3,343.1L260.3,344.6L268.8,344.3L298.0,337.0L312.5,338.0L319.8,337.0L332.3,338.8L337.7,338.6L340.4,336.3L342.3,332.7L345.8,329.0L351.0,327.2L353.6,323.9L355.3,316.2L354.8,311.7L352.9,308.5L352.3,300.4L352.5,298.9L354.5,294.0L361.8,289.6L367.0,289.9L369.0,288.3L369.2,286.3L367.5,284.6L363.7,283.5L363.4,282.1L369.8,280.4L373.1,281.5L376.8,281.7L380.7,279.7L384.5,276.4L381.9,272.5L364.9,255.4L363.5,253.6L364.2,250.2L367.8,242.8L368.5,239.5L369.1,229.6L371.4,222.5L373.6,219.2L376.3,216.0L385.3,208.5L389.9,202.9L394.3,193.5L399.2,187.7L400.9,187.1L406.9,187.3L411.7,189.4L419.8,194.2L427.0,196.8L428.6,195.1L429.2,189.5L428.7,184.4L425.5,176.3L423.4,175.2L420.1,176.0L415.5,179.4L411.3,175.9L408.3,172.3L407.6,169.7L407.9,164.2L403.4,159.8L398.5,158.6L390.2,148.6L386.1,148.1L385.2,147.4L382.4,140.1L381.1,131.1L379.5,125.7L379.5,123.4L382.1,111.6L384.2,108.9L393.6,100.4L396.7,97.2L397.8,89.2L399.4,86.7L402.8,84.0L407.6,79.2L407.6,64.3L408.5,62.4L408.7,53.0L409.8,48.0L414.3,36.9L411.5,35.7Z " data-id="GH.UW" data-name="Upper West" id="GH.UW"/>
utf-8utf-8<path d="M674.9,991.4L670.5,985.1L668.1,983.6L636.4,970.5L613.0,965.8L606.1,963.4L601.3,959.3L599.0,955.0L595.0,944.0L589.9,934.6L586.0,930.0L580.5,924.9L577.9,923.2L576.1,922.8L567.7,927.1L564.3,930.5L561.4,930.4L560.0,929.1L558.6,930.0L555.8,934.3L554.5,934.8L544.7,929.9L535.9,928.4L529.6,930.5L526.6,930.9L522.3,929.4L520.6,926.9L513.8,927.2L509.6,923.7L499.8,923.1L497.2,927.1L494.3,929.2L491.5,933.0L490.7,935.6L485.0,938.6L482.5,938.8L471.9,940.8L468.5,942.2L462.9,942.5L457.9,943.3L453.1,943.2L447.8,942.4L442.3,939.8L441.1,938.3L438.5,932.7L438.0,930.2L437.5,917.9L437.1,915.2L435.5,910.1L431.8,905.0L425.0,901.7L421.5,902.8L419.5,904.1L417.1,906.7L409.8,920.0L407.1,923.9L405.3,925.4L396.3,931.5L389.7,937.0L388.4,940.7L390.5,946.9L391.7,952.4L390.9,957.0L386.2,958.4L381.0,958.5L376.3,960.5L374.0,963.1L370.5,969.6L365.8,973.1L362.1,973.7L358.3,972.9L354.8,971.1L350.7,971.3L346.0,973.4L342.4,974.3L340.9,974.0L334.3,967.3L329.3,964.1L323.7,961.6L322.1,956.5L321.6,945.4L320.3,942.4L318.5,941.2L315.5,941.0L307.0,943.7L298.6,944.0L294.9,943.2L292.4,941.5L282.0,941.6L277.3,944.4L274.0,944.8L263.4,942.9L260.4,942.9L258.7,943.7L256.1,953.0L254.1,955.9L252.1,969.4L254.9,971.7L263.0,971.8L266.3,973.3L271.3,979.9L274.3,981.7L275.6,981.6L283.9,979.7L286.7,980.2L295.1,988.2L301.1,995.4L305.2,997.8L316.2,1000.9L316.6,1003.5L314.9,1006.9L313.0,1020.0L309.8,1022.4L298.8,1025.1L296.4,1027.8L291.1,1035.8L288.1,1039.6L282.0,1044.6L275.8,1048.5L271.5,1050.3L244.1,1052.0L241.2,1050.7L239.7,1045.6L237.1,1043.6L230.7,1043.7L227.9,1045.7L213.7,1063.3L212.9,1065.6L212.8,1068.5L210.8,1074.2L210.6,1079.4L207.6,1084.6L203.9,1089.1L201.3,1091.5L197.3,1093.9L195.9,1098.1L199.6,1098.7L207.6,1096.1L219.0,1096.4L223.4,1097.0L226.0,1097.8L229.6,1103.3L221.1,1110.9L220.4,1113.5L218.7,1128.3L216.4,1135.1L213.5,1138.0L206.7,1141.3L199.1,1142.1L191.7,1140.4L190.0,1148.1L190.7,1151.8L192.8,1152.8L194.1,1154.7L194.4,1159.2L195.6,1161.3L198.5,1163.3L197.4,1170.7L199.0,1176.4L197.5,1180.1L195.1,1182.6L190.9,1188.2L189.8,1191.0L187.2,1194.6L185.5,1204.2L183.8,1207.1L185.1,1210.1L187.4,1211.0L188.5,1214.3L188.1,1216.8L187.4,1222.9L189.2,1224.4L191.2,1224.7L195.4,1224.2L201.2,1219.2L203.8,1212.8L204.4,1210.0L206.7,1192.2L208.5,1187.2L211.0,1185.3L215.6,1186.9L222.5,1191.7L225.6,1192.1L230.4,1190.2L235.1,1191.0L236.3,1196.5L231.9,1210.8L231.6,1214.0L232.5,1218.0L234.6,1219.1L251.0,1223.4L253.8,1225.6L258.2,1237.0L259.6,1238.8L262.7,1239.8L267.9,1239.5L278.3,1240.0L281.0,1241.8L281.5,1246.1L279.7,1252.8L280.0,1256.5L277.5,1262.9L280.8,1282.7L283.0,1287.2L286.6,1286.4L288.0,1287.0L289.1,1289.2L292.3,1299.2L297.8,1304.5L301.4,1309.7L303.4,1311.8L305.9,1312.2L308.1,1309.7L309.6,1309.6L314.3,1311.5L317.7,1310.5L319.0,1309.0L323.3,1308.6L326.3,1310.1L326.1,1317.3L327.5,1320.1L332.3,1322.9L334.6,1326.1L340.2,1327.0L346.3,1329.8L348.5,1333.0L355.3,1336.9L357.3,1337.4L363.9,1336.3L371.4,1335.4L381.8,1335.7L385.3,1335.1L391.1,1336.7L394.2,1339.5L395.6,1343.4L392.3,1345.3L393.3,1348.2L396.9,1350.6L402.0,1352.6L404.9,1347.7L404.7,1343.6L413.3,1342.0L415.4,1339.3L423.1,1337.6L423.8,1336.7L427.0,1336.3L432.1,1337.9L434.8,1339.7L438.8,1339.2L441.6,1344.9L446.0,1344.2L447.9,1342.7L451.0,1343.8L451.9,1340.4L454.2,1338.2L454.5,1336.9L458.5,1327.9L458.4,1324.4L456.9,1322.9L454.1,1323.0L453.9,1320.0L455.2,1316.6L455.7,1313.3L457.4,1308.0L460.0,1302.7L462.9,1293.2L465.7,1292.3L466.6,1289.9L464.1,1287.8L463.8,1280.9L466.3,1276.1L466.9,1274.1L467.2,1267.9L465.1,1263.8L465.6,1262.8L470.6,1259.6L474.3,1255.3L475.5,1252.5L479.2,1235.9L482.7,1225.7L492.3,1208.6L521.4,1174.6L524.3,1169.7L530.6,1162.7L532.1,1160.6L532.9,1156.8L531.3,1151.7L528.6,1147.9L523.3,1143.3L520.4,1139.6L519.2,1137.4L518.6,1131.8L520.1,1126.5L523.8,1123.1L529.3,1120.1L534.2,1118.1L550.4,1115.5L554.8,1112.3L595.2,1048.6L597.7,1046.1L601.2,1045.3L631.1,1044.7L633.3,1044.0L638.0,1037.8L642.2,1035.5L653.4,1031.3L660.2,1025.2L664.7,1018.9L667.9,1015.7L672.0,1014.0L684.9,1011.4L674.9,991.4Z " data-id="GH.AH" data-name="Ashanti" id="GH.AH"/>
utf-8utf-8<path d="M641.9,771.2L637.9,771.5L628.7,769.9L624.6,768.3L612.1,760.1L588.9,738.9L583.4,731.1L578.0,725.2L574.3,723.9L559.1,725.3L554.8,724.5L547.6,726.0L541.8,733.8L538.2,736.6L534.9,737.8L530.8,740.2L528.9,741.9L527.0,744.8L523.4,755.4L520.9,759.6L517.6,763.0L504.5,768.5L502.5,771.6L501.6,777.6L502.1,780.4L505.4,787.0L506.8,791.9L506.8,798.1L505.6,802.4L501.5,805.7L499.6,810.0L496.4,814.8L488.2,810.5L486.9,808.2L463.1,732.7L460.7,728.2L457.6,723.7L451.5,719.1L448.0,714.9L448.3,713.6L450.8,709.3L454.9,705.1L456.8,702.1L457.5,690.8L459.2,685.6L460.5,683.7L472.0,672.0L473.4,670.2L475.7,665.3L476.5,662.7L476.6,658.6L475.7,654.6L472.4,646.0L471.4,640.4L470.1,636.5L467.1,635.0L458.9,634.6L454.1,633.5L448.3,631.0L437.2,622.5L428.5,613.7L426.5,612.5L421.1,611.6L409.1,612.1L403.6,613.0L399.9,615.7L397.3,619.8L395.7,628.6L395.2,629.8L391.6,632.8L387.3,634.9L379.3,636.1L377.0,636.0L363.7,633.1L359.2,634.0L357.6,634.8L355.3,638.0L354.5,640.6L351.7,644.3L348.8,645.1L342.2,648.4L325.5,642.4L316.4,646.9L313.5,651.2L311.6,656.2L310.5,661.5L310.2,666.9L310.8,682.3L310.2,687.0L308.0,692.5L304.9,696.7L303.8,699.1L305.7,705.4L306.2,710.0L307.4,714.4L309.3,718.0L311.7,720.2L320.2,721.8L328.8,721.0L335.8,722.9L339.5,732.4L339.7,737.0L338.9,741.5L336.6,745.0L332.4,746.3L327.6,745.1L318.6,740.2L313.2,739.5L308.6,742.1L304.9,746.8L302.1,751.4L300.2,753.4L296.5,760.4L294.1,762.7L272.7,767.7L263.0,767.9L254.8,765.6L251.0,761.4L245.2,750.5L238.3,746.4L232.0,737.5L228.8,734.2L222.5,729.5L220.3,726.1L218.6,710.2L216.5,701.1L213.8,695.5L212.5,691.1L208.3,689.5L205.9,684.1L203.2,680.3L201.4,676.2L202.8,671.4L198.7,662.5L197.0,657.7L191.6,654.1L188.5,645.5L180.1,638.1L173.6,624.2L167.3,620.8L158.3,609.7L150.5,605.0L149.2,605.8L150.2,609.8L170.7,752.5L169.1,756.4L159.0,763.1L156.0,764.2L153.4,763.9L150.5,762.4L148.7,762.3L147.2,763.8L145.7,767.2L144.7,771.2L145.3,774.4L148.2,781.8L149.6,787.9L149.4,792.3L147.2,795.6L142.6,798.3L129.2,803.3L125.1,806.6L114.8,820.0L111.1,823.4L108.2,820.1L106.8,820.2L106.1,822.1L105.1,841.1L104.4,844.0L102.6,846.1L97.6,849.5L95.6,851.6L96.0,857.6L92.0,864.0L75.8,903.2L72.8,913.5L61.7,991.6L61.9,994.6L63.3,998.1L65.8,1002.3L65.6,1005.8L63.6,1010.7L53.3,1025.3L52.1,1027.9L50.3,1040.6L49.1,1042.4L37.7,1046.7L37.6,1046.8L40.1,1061.0L41.6,1066.2L45.8,1073.3L50.2,1076.3L53.0,1076.6L64.0,1072.3L66.4,1071.7L72.2,1073.9L79.0,1078.2L82.3,1081.5L84.8,1084.7L90.2,1095.8L91.3,1101.2L94.7,1109.9L95.2,1116.1L96.9,1122.7L96.7,1125.4L94.9,1130.3L94.6,1135.4L97.4,1146.6L97.3,1148.4L100.0,1151.2L106.1,1153.0L108.2,1154.1L117.0,1161.7L123.4,1163.1L131.8,1162.3L135.8,1163.1L138.8,1164.8L141.1,1167.5L142.0,1172.6L144.1,1177.1L147.4,1179.6L151.9,1181.0L156.8,1184.6L166.7,1208.6L170.3,1210.5L176.4,1210.9L181.4,1213.2L186.4,1216.7L188.1,1216.8L188.5,1214.3L187.4,1211.0L185.1,1210.1L183.8,1207.1L185.5,1204.2L187.2,1194.6L189.8,1191.0L190.9,1188.2L195.1,1182.6L197.5,1180.1L199.0,1176.4L197.4,1170.7L198.5,1163.3L195.6,1161.3L194.4,1159.2L194.1,1154.7L192.8,1152.8L190.7,1151.8L190.0,1148.1L191.7,1140.4L199.1,1142.1L206.7,1141.3L213.5,1138.0L216.4,1135.1L218.7,1128.3L220.4,1113.5L221.1,1110.9L229.6,1103.3L226.0,1097.8L223.4,1097.0L219.0,1096.4L207.6,1096.1L199.6,1098.7L195.9,1098.1L197.3,1093.9L201.3,1091.5L203.9,1089.1L207.6,1084.6L210.6,1079.4L210.8,1074.2L212.8,1068.5L212.9,1065.6L213.7,1063.3L227.9,1045.7L230.7,1043.7L237.1,1043.6L239.7,1045.6L241.2,1050.7L244.1,1052.0L271.5,1050.3L275.8,1048.5L282.0,1044.6L288.1,1039.6L291.1,1035.8L296.4,1027.8L298.8,1025.1L309.8,1022.4L313.0,1020.0L314.9,1006.9L316.6,1003.5L316.2,1000.9L305.2,997.8L301.1,995.4L295.1,988.2L286.7,980.2L283.9,979.7L275.6,981.6L274.3,981.7L271.3,979.9L266.3,973.3L263.0,971.8L254.9,971.7L252.1,969.4L254.1,955.9L256.1,953.0L258.7,943.7L260.4,942.9L263.4,942.9L274.0,944.8L277.3,944.4L282.0,941.6L292.4,941.5L294.9,943.2L298.6,944.0L307.0,943.7L315.5,941.0L318.5,941.2L320.3,942.4L321.6,945.4L322.1,956.5L323.7,961.6L329.3,964.1L334.3,967.3L340.9,974.0L342.4,974.3L346.0,973.4L350.7,971.3L354.8,971.1L358.3,972.9L362.1,973.7L365.8,973.1L370.5,969.6L374.0,963.1L376.3,960.5L381.0,958.5L386.2,958.4L390.9,957.0L391.7,952.4L390.5,946.9L388.4,940.7L389.7,937.0L396.3,931.5L405.3,925.4L407.1,923.9L409.8,920.0L417.1,906.7L419.5,904.1L421.5,902.8L425.0,901.7L431.8,905.0L435.5,910.1L437.1,915.2L437.5,917.9L438.0,930.2L438.5,932.7L441.1,938.3L442.3,939.8L447.8,942.4L453.1,943.2L457.9,943.3L462.9,942.5L468.5,942.2L471.9,940.8L482.5,938.8L485.0,938.6L490.7,935.6L491.5,933.0L494.3,929.2L497.2,927.1L499.8,923.1L509.6,923.7L513.8,927.2L520.6,926.9L522.3,929.4L526.6,930.9L529.6,930.5L535.9,928.4L544.7,929.9L554.5,934.8L555.8,934.3L558.6,930.0L560.0,929.1L561.4,930.4L564.3,930.5L567.7,927.1L576.1,922.8L577.9,923.2L580.5,924.9L586.0,930.0L589.9,934.6L595.0,944.0L599.0,955.0L601.3,959.3L606.1,963.4L613.0,965.8L636.4,970.5L668.1,983.6L670.5,985.1L674.9,991.4L684.9,1011.4L741.6,1013.9L754.0,1019.7L758.7,1019.7L761.9,1018.2L766.0,1015.4L769.4,1013.8L772.5,1013.7L783.1,1017.9L782.0,1009.9L782.3,1005.5L786.1,992.0L787.0,984.2L787.0,980.9L786.0,973.3L783.9,970.0L781.1,967.3L777.8,965.1L771.6,963.2L763.4,958.5L760.5,952.7L760.1,950.6L759.4,935.4L756.4,926.6L741.6,897.9L733.9,873.4L729.5,870.9L719.9,868.3L716.0,864.4L709.3,850.6L708.3,841.4L707.7,838.7L698.0,813.2L695.4,808.5L692.8,804.9L661.5,776.6L657.1,774.1L644.3,770.3L641.9,771.2Z " data-id="GH.BA" data-name="Brong Ahafo" id="GH.BA"/>
utf-8utf-8<path d="M454.2,1338.2L451.9,1340.4L451.0,1343.8L447.9,1342.7L446.0,1344.2L441.6,1344.9L438.8,1339.2L434.8,1339.7L432.1,1337.9L427.0,1336.3L423.8,1336.7L423.1,1337.6L415.4,1339.3L413.3,1342.0L404.7,1343.6L404.9,1347.7L402.0,1352.6L396.9,1350.6L393.3,1348.2L392.3,1345.3L395.6,1343.4L394.2,1339.5L391.1,1336.7L385.3,1335.1L381.8,1335.7L371.4,1335.4L363.9,1336.3L357.3,1337.4L355.3,1336.9L348.5,1333.0L346.3,1329.8L340.2,1327.0L334.6,1326.1L332.3,1322.9L327.5,1320.1L326.1,1317.3L326.3,1310.1L323.3,1308.6L319.0,1309.0L317.7,1310.5L314.3,1311.5L309.6,1309.6L308.1,1309.7L305.9,1312.2L303.4,1311.8L301.4,1309.7L297.8,1304.5L292.3,1299.2L289.1,1289.2L288.0,1287.0L286.6,1286.4L283.0,1287.2L280.8,1282.7L277.5,1262.9L280.0,1256.5L279.7,1252.8L281.5,1246.1L281.0,1241.8L278.3,1240.0L267.9,1239.5L266.8,1243.3L265.2,1245.8L261.5,1249.6L258.8,1251.8L252.6,1254.6L248.8,1256.9L247.1,1258.5L245.2,1264.4L245.1,1267.6L246.4,1274.6L248.9,1278.8L255.5,1283.8L259.2,1285.7L266.8,1288.5L268.7,1289.9L271.6,1294.1L274.1,1301.0L276.6,1303.4L283.7,1306.8L288.9,1310.3L293.1,1315.2L303.3,1331.9L308.7,1337.0L310.9,1338.3L316.1,1339.7L320.4,1343.8L323.4,1348.5L324.6,1351.2L323.7,1363.4L325.3,1368.8L328.2,1370.3L330.3,1374.6L326.8,1379.4L326.4,1380.7L326.2,1390.1L324.9,1395.6L323.5,1399.7L324.1,1409.8L325.0,1412.0L328.6,1413.3L336.1,1409.9L345.9,1410.3L348.5,1412.7L352.0,1414.1L357.4,1414.2L364.7,1416.6L368.8,1419.2L371.8,1422.2L374.6,1425.6L376.7,1429.3L376.8,1432.7L375.0,1435.7L372.0,1437.3L370.1,1442.1L369.6,1448.1L371.8,1455.5L378.0,1462.9L383.1,1465.7L384.9,1467.8L386.7,1471.1L388.3,1476.8L392.6,1483.9L400.0,1491.4L409.1,1498.0L412.8,1502.6L413.5,1504.5L406.0,1512.7L403.2,1516.6L397.2,1519.6L394.0,1519.6L386.9,1523.1L385.5,1525.0L381.1,1534.2L379.4,1539.7L378.4,1548.6L380.3,1565.2L380.3,1565.2L384.1,1562.1L389.2,1559.9L404.8,1557.4L413.0,1552.9L417.1,1551.4L426.3,1551.4L428.8,1550.3L434.0,1546.8L436.4,1546.0L451.0,1545.5L455.7,1544.4L464.5,1539.9L469.1,1536.8L471.1,1534.6L473.5,1530.9L497.0,1519.5L500.6,1518.4L504.3,1518.0L507.0,1515.4L508.8,1514.9L510.8,1519.4L513.4,1519.6L518.8,1518.0L524.4,1517.6L526.5,1516.7L528.1,1514.6L531.3,1517.9L536.5,1518.1L553.2,1515.4L556.6,1513.0L561.9,1505.8L575.1,1493.7L577.9,1492.4L589.6,1483.2L591.4,1486.9L595.2,1485.5L600.5,1480.5L603.1,1480.5L618.9,1476.1L626.9,1470.5L629.9,1467.0L631.1,1463.1L632.9,1460.2L649.4,1444.6L652.1,1443.0L648.7,1429.5L645.2,1420.4L642.7,1417.3L639.6,1414.8L632.7,1411.2L630.8,1409.4L627.4,1403.8L619.1,1385.2L609.0,1380.7L603.0,1379.6L565.0,1383.1L560.2,1383.0L556.5,1381.8L534.6,1376.4L530.3,1375.9L519.4,1377.7L512.0,1374.1L504.9,1372.1L485.5,1372.4L483.5,1372.2L480.3,1369.9L477.1,1363.5L470.1,1346.3L468.4,1344.1L461.8,1341.3L454.5,1336.9L454.2,1338.2Z " data-id="GH.CP" data-name="Central" id="GH.CP"/>
utf-8utf-8<path d="M772.5,1013.7L769.4,1013.8L766.0,1015.4L761.9,1018.2L758.7,1019.7L754.0,1019.7L741.6,1013.9L684.9,1011.4L672.0,1014.0L667.9,1015.7L664.7,1018.9L660.2,1025.2L653.4,1031.3L642.2,1035.5L638.0,1037.8L633.3,1044.0L631.1,1044.7L601.2,1045.3L597.7,1046.1L595.2,1048.6L554.8,1112.3L550.4,1115.5L534.2,1118.1L529.3,1120.1L523.8,1123.1L520.1,1126.5L518.6,1131.8L519.2,1137.4L520.4,1139.6L523.3,1143.3L528.6,1147.9L531.3,1151.7L532.9,1156.8L532.1,1160.6L530.6,1162.7L524.3,1169.7L521.4,1174.6L492.3,1208.6L482.7,1225.7L479.2,1235.9L475.5,1252.5L474.3,1255.3L470.6,1259.6L465.6,1262.8L465.1,1263.8L467.2,1267.9L466.9,1274.1L466.3,1276.1L463.8,1280.9L464.1,1287.8L466.6,1289.9L465.7,1292.3L462.9,1293.2L460.0,1302.7L457.4,1308.0L455.7,1313.3L455.2,1316.6L453.9,1320.0L454.1,1323.0L456.9,1322.9L458.4,1324.4L458.5,1327.9L454.5,1336.9L461.8,1341.3L468.4,1344.1L470.1,1346.3L477.1,1363.5L480.3,1369.9L483.5,1372.2L485.5,1372.4L504.9,1372.1L512.0,1374.1L519.4,1377.7L530.3,1375.9L534.6,1376.4L556.5,1381.8L560.2,1383.0L565.0,1383.1L603.0,1379.6L609.0,1380.7L619.1,1385.2L618.6,1383.2L618.3,1378.5L619.3,1372.9L625.2,1369.3L634.9,1368.5L637.4,1368.8L638.8,1369.8L640.0,1376.2L642.1,1377.5L650.7,1381.3L658.6,1381.9L662.6,1380.6L666.4,1378.5L669.7,1376.0L673.9,1370.3L679.2,1369.6L685.4,1374.3L691.5,1374.4L698.7,1367.5L700.8,1362.6L703.3,1352.7L705.8,1346.8L707.8,1344.8L717.3,1340.4L719.9,1337.3L723.5,1322.5L725.7,1321.2L730.7,1324.1L732.2,1326.1L735.5,1325.7L738.2,1324.3L746.3,1318.1L753.7,1316.9L756.5,1317.3L758.8,1319.4L761.8,1326.4L763.1,1328.4L767.5,1332.2L773.7,1335.2L782.1,1346.9L785.6,1348.4L787.4,1348.2L791.6,1345.7L795.0,1342.0L804.8,1329.5L805.3,1306.2L804.1,1302.3L796.3,1297.1L791.5,1292.7L788.7,1290.8L784.7,1290.2L769.3,1290.6L765.3,1289.2L754.7,1280.1L753.3,1277.5L753.1,1273.2L753.9,1268.7L756.6,1262.1L756.1,1257.6L753.4,1250.0L754.4,1248.6L764.5,1244.2L768.3,1241.7L771.8,1238.7L775.0,1233.6L781.5,1211.3L781.6,1206.9L780.7,1203.3L774.2,1196.7L772.3,1191.9L771.4,1186.0L766.2,1180.0L759.6,1180.6L757.8,1179.2L758.6,1171.3L762.1,1156.3L763.2,1153.4L770.6,1144.3L779.4,1138.5L781.3,1134.7L781.4,1131.8L780.1,1120.8L779.2,1118.4L774.8,1112.9L769.2,1110.4L766.7,1108.0L765.0,1103.0L765.7,1097.2L770.1,1085.5L778.1,1077.1L780.0,1074.0L781.2,1066.0L780.7,1058.8L779.7,1052.9L779.8,1046.6L781.2,1041.5L783.5,1036.1L784.0,1031.6L783.1,1017.9L772.5,1013.7Z " data-id="GH.EP" data-name="Eastern" id="GH.EP"/>
utf-8utf-8<path d="M380.3,1565.2L378.4,1548.6L379.4,1539.7L381.1,1534.2L385.5,1525.0L386.9,1523.1L394.0,1519.6L397.2,1519.6L403.2,1516.6L406.0,1512.7L413.5,1504.5L412.8,1502.6L409.1,1498.0L400.0,1491.4L392.6,1483.9L388.3,1476.8L386.7,1471.1L384.9,1467.8L383.1,1465.7L378.0,1462.9L371.8,1455.5L369.6,1448.1L370.1,1442.1L372.0,1437.3L375.0,1435.7L376.8,1432.7L376.7,1429.3L374.6,1425.6L371.8,1422.2L368.8,1419.2L364.7,1416.6L357.4,1414.2L352.0,1414.1L348.5,1412.7L345.9,1410.3L336.1,1409.9L328.6,1413.3L325.0,1412.0L324.1,1409.8L323.5,1399.7L324.9,1395.6L326.2,1390.1L326.4,1380.7L326.8,1379.4L330.3,1374.6L328.2,1370.3L325.3,1368.8L323.7,1363.4L324.6,1351.2L323.4,1348.5L320.4,1343.8L316.1,1339.7L310.9,1338.3L308.7,1337.0L303.3,1331.9L293.1,1315.2L288.9,1310.3L283.7,1306.8L276.6,1303.4L274.1,1301.0L271.6,1294.1L268.7,1289.9L266.8,1288.5L259.2,1285.7L255.5,1283.8L248.9,1278.8L246.4,1274.6L245.1,1267.6L245.2,1264.4L247.1,1258.5L248.8,1256.9L252.6,1254.6L258.8,1251.8L261.5,1249.6L265.2,1245.8L266.8,1243.3L267.9,1239.5L262.7,1239.8L259.6,1238.8L258.2,1237.0L253.8,1225.6L251.0,1223.4L234.6,1219.1L232.5,1218.0L231.6,1214.0L231.9,1210.8L236.3,1196.5L235.1,1191.0L230.4,1190.2L225.6,1192.1L222.5,1191.7L215.6,1186.9L211.0,1185.3L208.5,1187.2L206.7,1192.2L204.4,1210.0L203.8,1212.8L201.2,1219.2L195.4,1224.2L191.2,1224.7L189.2,1224.4L187.4,1222.9L188.1,1216.8L186.4,1216.7L181.4,1213.2L176.4,1210.9L170.3,1210.5L166.7,1208.6L156.8,1184.6L151.9,1181.0L147.4,1179.6L144.1,1177.1L142.0,1172.6L141.1,1167.5L138.8,1164.8L135.8,1163.1L131.8,1162.3L123.4,1163.1L117.0,1161.7L108.2,1154.1L106.1,1153.0L100.0,1151.2L97.3,1148.4L97.4,1146.6L94.6,1135.4L94.9,1130.3L96.7,1125.4L96.9,1122.7L95.2,1116.1L94.7,1109.9L91.3,1101.2L90.2,1095.8L84.8,1084.7L82.3,1081.5L79.0,1078.2L72.2,1073.9L66.4,1071.7L64.0,1072.3L53.0,1076.6L50.2,1076.3L45.8,1073.3L41.6,1066.2L40.1,1061.0L37.6,1046.8L34.8,1048.7L8.8,1098.9L5.1,1108.7L4.7,1117.9L5.7,1120.5L8.5,1124.6L12.0,1132.9L7.6,1146.9L6.4,1148.6L2.2,1151.1L0.6,1153.8L0.3,1158.1L17.9,1248.1L27.8,1259.5L32.6,1273.7L39.3,1316.2L42.6,1325.3L51.2,1343.2L53.9,1352.4L54.5,1361.6L52.2,1390.7L66.8,1389.3L64.5,1405.2L65.7,1411.8L71.0,1415.1L75.4,1414.5L82.8,1409.5L86.4,1407.9L102.4,1412.5L105.3,1415.2L107.0,1418.5L107.9,1422.6L108.4,1436.0L112.4,1454.2L118.5,1470.4L119.4,1475.0L118.9,1479.5L116.6,1482.7L113.6,1483.3L106.1,1481.7L104.6,1497.5L105.2,1501.0L108.3,1506.1L109.3,1509.1L108.3,1516.6L108.4,1518.9L113.3,1524.3L111.2,1529.1L108.0,1531.7L89.0,1534.6L80.9,1536.1L74.7,1539.0L75.3,1546.0L68.2,1549.0L65.2,1549.5L64.0,1548.5L59.9,1542.5L55.1,1540.9L39.0,1540.8L32.8,1542.6L31.8,1546.8L35.4,1547.7L66.6,1558.5L98.9,1565.0L128.3,1567.5L165.2,1581.7L203.2,1590.6L226.6,1600.9L227.8,1602.4L230.1,1608.5L232.3,1610.0L237.0,1612.3L246.6,1620.9L248.7,1623.4L248.4,1624.6L251.0,1624.9L259.1,1627.3L259.6,1629.6L259.4,1632.4L260.0,1635.0L263.0,1637.1L269.0,1636.8L272.0,1635.4L287.5,1633.2L290.7,1631.7L294.1,1628.1L299.5,1619.3L303.1,1615.7L320.4,1607.0L335.8,1602.0L339.9,1601.4L340.1,1596.6L346.6,1588.5L349.3,1586.2L364.7,1577.6L367.6,1572.8L366.0,1568.9L366.4,1566.9L369.2,1564.4L373.0,1563.3L376.9,1563.6L380.2,1565.3L380.3,1565.2Z " data-id="GH.WP" data-name="Western" id="GH.WP"/>
utf-8utf-8<path d="M804.8,1329.5L795.0,1342.0L791.6,1345.7L787.4,1348.2L785.6,1348.4L782.1,1346.9L773.7,1335.2L767.5,1332.2L763.1,1328.4L761.8,1326.4L758.8,1319.4L756.5,1317.3L753.7,1316.9L746.3,1318.1L738.2,1324.3L735.5,1325.7L732.2,1326.1L730.7,1324.1L725.7,1321.2L723.5,1322.5L719.9,1337.3L717.3,1340.4L707.8,1344.8L705.8,1346.8L703.3,1352.7L700.8,1362.6L698.7,1367.5L691.5,1374.4L685.4,1374.3L679.2,1369.6L673.9,1370.3L669.7,1376.0L666.4,1378.5L662.6,1380.6L658.6,1381.9L650.7,1381.3L642.1,1377.5L640.0,1376.2L638.8,1369.8L637.4,1368.8L634.9,1368.5L625.2,1369.3L619.3,1372.9L618.3,1378.5L618.6,1383.2L619.1,1385.2L627.4,1403.8L630.8,1409.4L632.7,1411.2L639.6,1414.8L642.7,1417.3L645.2,1420.4L648.7,1429.5L652.1,1443.0L652.2,1443.0L653.5,1442.3L663.7,1440.8L711.9,1423.2L715.5,1422.8L722.8,1416.8L740.6,1410.0L744.2,1405.8L746.7,1401.2L749.9,1397.5L758.6,1394.6L764.8,1388.1L768.2,1385.5L783.3,1380.9L787.5,1377.4L789.4,1376.7L794.9,1376.4L797.1,1374.2L799.8,1373.0L805.2,1371.6L814.9,1371.0L884.2,1376.7L889.0,1373.0L893.4,1371.5L894.4,1367.4L893.7,1366.1L890.2,1362.9L882.2,1359.0L876.5,1354.7L874.0,1351.1L866.1,1326.7L858.9,1320.7L841.4,1316.2L823.1,1315.3L816.9,1316.7L813.0,1319.2L808.8,1322.7L806.5,1325.7L804.8,1329.5Z " data-id="GH.AA" data-name="Greater Accra" id="GH.AA"/>
utf-8utf-8<path d="M644.3,770.3L657.1,774.1L661.5,776.6L692.8,804.9L695.4,808.5L698.0,813.2L707.7,838.7L708.3,841.4L709.3,850.6L716.0,864.4L719.9,868.3L729.5,870.9L733.9,873.4L741.6,897.9L756.4,926.6L759.4,935.4L760.1,950.6L760.5,952.7L763.4,958.5L771.6,963.2L777.8,965.1L781.1,967.3L783.9,970.0L786.0,973.3L787.0,980.9L787.0,984.2L786.1,992.0L782.3,1005.5L782.0,1009.9L783.1,1017.9L784.0,1031.6L783.5,1036.1L781.2,1041.5L779.8,1046.6L779.7,1052.9L780.7,1058.8L781.2,1066.0L780.0,1074.0L778.1,1077.1L770.1,1085.5L765.7,1097.2L765.0,1103.0L766.7,1108.0L769.2,1110.4L774.8,1112.9L779.2,1118.4L780.1,1120.8L781.4,1131.8L781.3,1134.7L779.4,1138.5L770.6,1144.3L763.2,1153.4L762.1,1156.3L758.6,1171.3L757.8,1179.2L759.6,1180.6L766.2,1180.0L771.4,1186.0L772.3,1191.9L774.2,1196.7L780.7,1203.3L781.6,1206.9L781.5,1211.3L775.0,1233.6L771.8,1238.7L768.3,1241.7L764.5,1244.2L754.4,1248.6L753.4,1250.0L756.1,1257.6L756.6,1262.1L753.9,1268.7L753.1,1273.2L753.3,1277.5L754.7,1280.1L765.3,1289.2L769.3,1290.6L784.7,1290.2L788.7,1290.8L791.5,1292.7L796.3,1297.1L804.1,1302.3L805.3,1306.2L804.8,1329.5L806.5,1325.7L808.8,1322.7L813.0,1319.2L816.9,1316.7L823.1,1315.3L841.4,1316.2L858.9,1320.7L866.1,1326.7L874.0,1351.1L876.5,1354.7L882.2,1359.0L890.2,1362.9L893.7,1366.1L894.4,1367.4L893.4,1371.5L889.0,1373.0L884.2,1376.7L895.4,1377.6L938.3,1372.1L947.4,1368.5L954.5,1361.0L956.5,1356.3L958.8,1344.4L959.1,1339.1L960.1,1334.1L965.7,1321.7L968.3,1317.2L979.7,1303.3L987.4,1296.6L997.6,1290.4L999.0,1289.8L999.7,1280.8L997.0,1276.7L978.5,1274.3L975.4,1272.5L972.9,1269.4L970.0,1264.2L968.3,1262.0L963.1,1258.7L959.6,1253.0L953.8,1232.6L936.6,1232.5L932.0,1231.2L929.1,1228.7L921.8,1218.7L916.2,1214.7L905.1,1208.5L900.3,1203.0L896.8,1196.8L894.1,1190.8L892.7,1184.5L894.5,1174.5L896.1,1172.1L896.2,1169.7L893.3,1166.6L891.3,1166.1L882.9,1166.1L880.9,1162.0L874.8,1156.4L873.6,1151.0L875.5,1138.2L875.3,1134.0L873.4,1129.9L870.1,1126.4L866.2,1124.0L862.3,1123.0L860.9,1120.8L854.4,1107.1L849.5,1103.3L848.7,1100.9L850.2,1095.5L855.0,1086.6L855.5,1082.3L852.9,1076.9L846.5,1071.3L843.9,1067.4L847.2,1066.3L850.5,1066.0L859.9,1063.2L862.8,1061.4L867.1,1052.6L867.3,1041.5L866.3,1030.1L867.0,1020.1L872.4,1004.8L874.5,993.0L877.5,983.6L877.8,978.1L874.2,961.4L872.7,959.2L864.5,962.6L860.0,963.5L855.9,962.9L848.8,955.8L845.2,944.6L844.1,932.1L845.0,917.3L845.8,914.1L847.2,911.4L849.4,908.9L852.4,907.4L856.0,906.3L859.0,904.6L860.3,901.1L860.2,894.2L860.9,886.3L863.8,881.1L870.3,882.4L869.6,877.4L870.1,864.1L868.1,849.5L868.3,834.2L865.9,816.2L866.1,806.7L866.0,801.8L863.9,792.3L863.0,780.3L861.9,774.0L864.7,770.7L866.0,767.4L865.6,763.9L862.3,759.8L861.3,757.1L861.6,753.8L866.4,751.6L873.8,744.0L877.6,741.2L887.5,736.3L891.1,733.8L892.7,729.9L891.9,723.6L888.3,722.3L886.5,708.3L877.9,700.3L875.0,690.6L871.1,681.3L856.4,673.5L850.6,668.7L845.1,663.1L841.3,658.1L832.3,651.2L823.4,637.1L816.8,621.1L815.4,611.8L806.5,610.4L798.0,612.2L793.8,612.1L787.4,608.2L783.9,607.6L781.6,608.2L776.1,610.7L774.1,614.0L773.9,615.4L775.9,618.8L775.8,620.3L771.5,630.8L767.0,637.3L765.7,641.3L766.8,645.2L768.1,647.3L771.9,651.8L772.1,653.2L771.1,655.9L769.1,656.8L763.3,654.7L760.7,656.3L758.3,660.5L756.7,664.4L754.2,672.3L755.6,679.6L759.8,681.9L761.3,685.2L759.7,687.6L754.4,689.7L753.5,690.8L753.1,694.4L754.0,697.0L754.1,705.4L756.5,707.5L759.0,708.3L767.9,707.7L772.8,706.3L779.6,705.4L784.3,707.1L787.9,713.5L787.9,719.3L785.6,721.1L778.7,721.4L775.4,724.1L775.3,725.7L776.8,736.0L777.5,739.6L777.2,741.1L775.1,742.5L771.4,743.6L762.4,744.8L756.0,744.5L753.3,742.3L748.4,736.9L743.2,730.6L735.3,724.9L731.7,723.1L726.9,721.4L721.4,720.3L716.8,720.4L706.8,724.3L699.4,730.7L698.0,738.7L695.6,743.2L691.4,747.1L687.2,751.9L683.4,752.8L678.4,752.1L673.0,749.3L670.4,748.9L662.6,751.8L656.3,751.5L653.5,753.9L649.0,764.9L644.3,770.3Z " data-id="GH.TV" data-name="Volta" id="GH.TV"/>
utf-8</g>
</svg>
