<?xml version="1.0" ?>
<!DOCTYPE svg
  PUBLIC '-//W3C//DTD SVG 1.1//EN'
  'http://www.w3.org/Graphics/SVG/1.1/DTD/svg11.dtd'>
<svg enable_background="new 0 0 1000 533" height="533px" pretty_print="True" style="stroke-linejoin: round; stroke:#000; fill: none;" version="1.1" viewBox="0 0 1000 533" width="1000px" xmlns="http://www.w3.org/2000/svg" xmlns:xlink="http://www.w3.org/1999/xlink">
utf-8<defs>
utf-8utf-8<style type="text/css">
<![CDATA[path { fill-rule: evenodd; }]]>utf-8utf-8</style>
utf-8</defs>
utf-8<metadata>
utf-8utf-8<views>
utf-8utf-8utf-8<view h="533.41845439" padding="0" w="1000">
utf-8utf-8utf-8utf-8<proj flip="auto" id="robinson" lon0="-68.5729064811"/>
utf-8utf-8utf-8utf-8<bbox h="314.75" w="591.16" x="-693.31" y="-1307.96"/>
utf-8utf-8utf-8</view>
utf-8utf-8</views>
utf-8</metadata>
utf-8<g class="" id="provinces">
utf-8utf-8<path d="M54.4,133.1L54.0,133.3L41.9,133.4L38.0,134.8L34.7,135.3L39.8,139.6L45.9,139.6L49.7,134.9L58.7,134.9L60.1,133.1L54.4,133.1L54.4,133.1Z " data-id="GL.VG" data-name="Pituffik" id="GL.VG"/>
utf-8utf-8<path d="M220.8,503.1L216.0,502.8L215.5,503.5L220.9,503.8L220.8,503.1Z M214.9,496.6L215.0,496.0L211.0,495.8L208.7,496.5L213.3,497.2L214.9,496.6Z M206.2,489.0L205.5,487.3L204.1,488.4L206.2,489.0Z M348.6,458.9L346.8,460.6L346.8,462.1L349.5,461.0L349.4,461.9L353.4,461.8L351.2,460.8L355.0,459.7L348.6,458.9Z M357.8,458.8L357.5,459.8L358.4,459.5L357.8,458.8Z M366.0,455.7L367.7,453.8L364.9,454.2L364.0,457.3L366.0,455.7Z M370.2,452.8L370.0,451.4L366.7,452.1L370.2,452.8Z M189.5,451.3L188.7,449.3L186.4,450.4L186.7,452.1L189.5,451.3Z M191.2,451.2L193.7,450.6L190.7,450.0L191.2,451.2Z M373.5,450.0L372.1,449.1L368.9,449.2L370.5,451.0L373.7,451.1L373.5,450.0Z M369.3,443.7L368.3,442.4L364.8,441.6L363.2,442.8L370.2,448.3L371.4,447.1L373.9,448.5L373.7,445.3L370.5,445.3L369.3,443.7Z M182.5,442.0L181.6,440.8L180.3,441.9L182.5,442.0Z M388.0,437.9L384.5,438.2L384.7,438.6L388.0,437.9Z M175.9,425.6L177.2,424.7L174.5,424.4L173.4,426.3L175.9,425.6Z M391.6,423.2L392.2,421.3L390.2,421.1L385.7,423.9L393.1,423.8L391.6,423.2Z M193.1,421.3L201.5,415.7L197.6,415.0L195.2,417.8L188.7,423.1L193.1,421.3Z M191.4,418.9L196.4,414.7L193.0,414.9L189.5,417.9L189.2,419.4L191.4,418.9Z M400.6,410.8L397.4,405.6L394.2,406.3L397.8,411.1L398.0,416.3L401.0,417.6L404.7,416.7L399.3,413.2L401.2,413.0L399.4,411.4L400.6,410.8Z M205.6,404.3L202.3,405.5L192.5,407.1L178.9,414.1L178.9,414.1L175.8,415.5L174.8,417.0L175.1,419.1L172.7,422.5L173.8,424.1L179.6,422.9L181.9,421.4L183.0,419.5L187.5,417.1L190.5,413.6L196.9,410.8L195.9,413.5L201.1,411.8L205.6,409.6L207.4,407.6L205.6,407.2L207.7,404.1L205.6,404.3L205.6,404.3Z M471.8,389.6L468.7,389.4L469.3,390.7L471.8,389.6Z M473.0,389.1L475.1,387.8L472.8,385.8L469.5,386.9L470.9,388.6L473.0,389.1Z M477.3,385.5L479.3,382.7L474.6,383.7L477.3,385.5Z M467.2,383.5L464.1,381.7L459.1,382.6L455.1,386.5L456.3,389.6L459.4,389.7L463.3,388.1L465.2,388.2L467.8,386.7L464.9,386.4L467.2,383.5Z M490.1,382.3L489.8,381.1L487.2,381.9L487.2,383.5L490.1,382.3Z M484.3,381.3L484.2,380.0L479.9,381.5L480.7,383.1L482.3,383.5L484.3,381.3Z M539.8,358.7L538.9,358.1L540.4,359.5L539.8,358.7Z M551.3,350.8L550.3,350.0L550.8,350.3L551.3,350.8Z M555.3,347.1L555.7,345.7L555.5,345.4L555.3,347.1Z M752.1,290.7L752.2,288.9L749.0,288.5L746.1,289.2L746.8,290.1L752.1,290.7Z M704.6,270.0L701.5,269.7L700.1,270.9L702.0,271.7L704.6,270.0Z M682.2,261.6L679.5,261.4L677.5,264.0L680.3,264.6L687.2,261.5L682.2,261.6Z M717.8,264.3L720.4,262.8L720.1,261.0L715.7,258.4L705.7,259.6L704.0,260.4L697.5,261.4L690.3,261.5L686.1,263.7L681.9,264.9L678.5,266.9L672.7,267.6L670.6,268.8L671.1,270.4L669.4,271.0L669.7,272.3L688.8,270.6L696.9,270.1L704.1,268.6L707.2,269.9L710.7,268.3L720.7,266.8L720.0,264.4L717.8,264.3Z M718.2,256.3L720.6,258.4L721.9,258.0L719.9,256.5L718.2,256.3Z M676.6,256.3L659.7,259.0L399.1,259.0L390.2,259.0L386.3,268.5L376.9,292.1L371.5,306.2L362.7,329.3L358.2,341.2L356.2,346.7L346.4,373.4L338.7,394.9L225.3,394.8L218.7,396.0L209.7,399.3L209.1,399.6L206.9,400.9L209.0,409.7L212.6,409.6L213.4,410.2L216.8,408.0L214.7,410.8L218.6,411.4L215.9,412.6L215.6,415.7L221.8,418.4L220.6,420.2L213.3,416.3L211.9,411.8L209.5,411.1L205.8,411.6L206.6,413.1L204.0,412.7L202.6,413.9L205.5,414.2L204.2,415.1L204.3,417.2L207.7,418.3L211.0,418.6L205.7,418.8L203.4,418.0L203.6,419.4L189.1,424.5L186.7,423.4L181.9,423.5L180.5,424.9L181.4,426.1L184.8,426.9L197.8,424.5L199.0,423.7L205.2,421.6L203.4,424.2L210.9,422.8L212.7,424.0L211.6,426.3L211.4,424.6L209.0,423.9L204.3,425.5L200.2,424.6L195.6,426.5L186.1,427.3L186.7,428.4L181.7,427.9L181.8,429.5L185.2,429.6L184.1,431.7L181.7,433.5L184.9,433.3L188.1,431.7L192.4,431.1L189.0,432.0L186.5,433.6L179.8,434.9L178.8,436.1L182.9,436.0L178.8,436.9L181.1,438.0L179.6,440.5L185.0,441.2L185.1,438.3L198.2,437.0L197.0,437.9L190.8,438.6L187.8,437.7L185.7,438.7L185.9,440.7L191.6,440.1L191.6,440.9L184.9,441.7L183.5,444.7L189.8,444.2L190.4,444.7L194.9,444.3L196.8,443.6L200.3,444.0L195.9,444.8L189.0,445.2L183.8,447.4L184.0,450.0L191.8,449.0L193.1,448.5L202.9,448.4L195.9,449.4L190.9,451.8L190.3,453.2L192.4,453.8L189.6,454.7L192.2,455.4L196.2,454.7L197.6,453.0L199.1,453.7L195.0,455.7L192.5,458.0L197.8,459.3L202.3,457.0L202.3,458.0L195.1,462.0L190.8,467.1L195.8,471.6L197.3,470.3L199.0,472.3L201.9,473.2L208.4,472.8L206.6,473.8L202.5,473.9L199.7,475.8L204.3,475.6L207.6,475.1L207.1,476.1L204.3,476.6L205.9,477.6L201.0,476.4L201.3,478.9L198.2,479.2L199.0,479.9L203.7,478.8L207.0,479.1L212.2,474.5L213.5,474.4L210.7,477.0L212.7,478.2L208.2,480.4L203.5,481.0L201.5,484.2L203.1,484.4L206.2,482.1L207.2,482.1L202.5,485.6L204.2,486.8L206.4,483.8L211.6,480.6L213.3,480.9L210.1,483.5L208.4,483.7L206.1,486.6L209.8,486.1L207.3,487.6L207.1,489.3L213.3,489.1L214.1,489.5L201.6,490.9L209.2,492.8L216.5,491.3L220.8,489.6L218.1,491.3L221.8,491.6L217.1,492.1L209.2,493.5L206.0,494.6L206.1,496.0L212.3,495.1L218.4,495.8L216.0,497.7L213.8,497.9L212.0,499.6L214.1,499.1L215.1,501.8L219.0,501.6L219.3,499.2L222.0,497.0L224.4,497.2L219.9,499.9L220.6,502.3L223.2,502.6L225.5,504.2L217.7,504.6L214.7,505.1L220.5,505.9L224.3,505.0L224.3,505.0L230.4,503.5L273.4,482.0L316.0,460.6L325.3,461.1L332.6,460.3L333.0,460.1L337.0,461.6L341.8,460.0L345.0,461.8L344.2,458.6L346.0,459.7L346.8,458.2L349.0,457.0L349.2,458.8L354.9,459.3L357.1,458.1L360.0,457.5L360.3,456.4L364.1,455.4L357.0,453.5L356.1,451.9L355.8,449.0L361.9,453.3L366.2,453.3L361.2,449.2L362.2,448.7L366.9,451.7L368.2,451.2L367.5,447.2L364.6,446.4L365.4,445.9L362.6,442.9L367.2,440.4L369.5,443.3L376.3,446.3L372.8,443.4L369.1,441.8L372.4,442.6L374.9,444.0L372.6,439.8L377.2,444.3L379.6,443.8L376.6,442.7L375.1,440.7L375.5,439.8L377.8,442.5L380.1,442.4L380.6,441.0L384.2,441.5L384.3,439.7L382.4,437.1L377.7,436.7L373.5,434.8L376.4,434.7L379.7,435.3L382.0,436.4L390.3,436.9L391.5,435.5L390.8,430.6L389.0,429.9L393.6,427.5L393.7,426.3L387.9,424.8L386.1,425.7L378.4,424.5L375.8,421.9L380.5,420.2L380.6,420.7L385.4,421.1L392.7,419.2L394.5,419.2L396.0,420.7L399.3,420.2L399.7,419.1L397.5,412.4L395.9,411.6L393.2,408.7L391.3,408.2L393.6,407.5L390.5,407.0L392.7,404.5L391.0,401.3L397.8,401.9L398.0,402.8L401.3,400.3L408.6,403.3L410.3,400.5L415.1,397.6L416.4,397.4L415.5,395.1L418.3,393.3L412.7,392.5L414.8,391.5L413.8,390.1L416.1,390.1L418.0,391.4L421.2,389.9L419.3,389.4L421.2,388.0L423.4,388.4L423.5,386.9L426.1,387.6L425.2,388.2L426.3,390.3L428.4,388.9L428.3,390.1L431.2,389.5L429.8,386.4L433.6,389.1L437.3,389.6L437.8,388.9L442.4,389.8L441.0,388.1L442.9,386.9L443.8,388.2L450.3,387.9L453.7,383.8L448.3,381.5L448.2,378.8L449.9,379.1L450.5,381.2L457.0,380.4L458.2,376.9L460.8,374.6L459.6,372.9L463.7,373.5L463.9,371.8L457.1,370.7L458.3,369.4L463.2,368.3L468.0,371.1L469.0,370.6L472.3,371.8L466.6,376.2L461.0,378.2L459.4,381.7L462.6,380.4L466.2,382.7L470.3,384.7L472.6,382.4L472.5,380.4L473.8,380.1L475.0,383.0L478.6,381.1L477.3,381.1L488.7,376.9L487.3,381.2L488.5,379.8L490.8,379.6L490.1,380.6L496.9,378.6L497.5,377.3L500.5,376.8L496.6,376.6L497.2,376.0L502.5,376.3L503.8,375.6L501.8,374.0L504.8,372.9L501.6,372.4L503.1,371.5L500.0,368.8L502.6,368.6L502.6,369.5L504.6,372.0L509.0,372.2L511.2,373.2L514.5,369.1L513.6,370.9L521.3,370.7L531.3,362.6L530.8,365.0L535.7,361.4L535.7,360.4L538.2,359.9L539.7,354.7L542.3,354.3L546.2,352.2L548.4,352.7L549.6,349.7L547.0,349.1L548.2,348.4L552.7,348.5L551.6,347.5L552.3,346.3L551.0,345.2L554.2,345.6L554.4,344.0L560.4,338.7L563.8,337.8L569.1,335.2L572.3,334.3L572.1,333.5L579.5,333.9L578.9,332.8L581.5,332.0L580.6,329.0L583.4,329.0L583.1,326.5L577.3,324.7L583.0,325.6L581.1,321.6L580.0,321.7L576.7,319.9L575.9,318.0L578.6,318.0L579.4,315.2L581.8,319.9L582.9,318.8L584.6,323.8L592.2,324.1L589.9,324.6L589.3,327.9L591.2,328.4L594.4,328.1L593.2,326.8L601.0,329.1L603.8,328.4L610.5,328.7L612.1,326.1L609.1,324.0L613.8,325.5L613.7,327.7L620.4,327.2L618.9,324.8L622.7,321.0L625.1,320.2L629.9,324.8L633.4,323.9L634.7,322.6L638.3,322.8L637.4,320.6L642.9,322.3L647.1,321.5L649.9,319.5L654.5,319.5L655.4,318.4L657.1,319.6L660.2,316.5L661.6,318.3L664.1,318.8L664.8,317.1L669.3,316.3L669.7,317.3L672.2,317.4L675.0,315.6L677.2,316.3L684.0,313.9L689.3,314.4L692.4,311.6L698.6,311.2L701.3,309.3L704.9,309.2L705.2,307.0L708.6,307.0L705.5,304.0L711.0,304.7L713.0,304.3L713.1,302.9L718.0,302.2L717.7,300.9L713.3,300.7L717.2,299.0L721.6,300.3L724.9,300.1L723.2,299.4L724.6,298.8L723.5,296.5L728.8,297.6L732.6,295.5L735.3,296.3L734.7,294.9L736.0,293.5L731.8,291.9L741.1,294.0L745.0,292.1L744.5,289.4L740.2,288.2L745.5,288.8L752.6,288.3L751.3,286.2L756.4,288.1L757.8,286.2L753.0,285.9L756.3,285.5L757.8,283.8L761.1,285.3L762.6,283.7L765.4,283.9L773.8,280.5L775.4,279.4L770.0,279.7L748.7,279.8L741.6,278.8L740.8,278.3L733.0,277.3L729.5,275.6L724.9,274.0L723.1,273.9L717.8,275.9L717.1,274.0L719.0,272.7L707.6,275.2L699.5,277.8L695.8,277.5L694.3,276.5L689.3,276.6L683.4,280.4L681.1,282.7L676.7,281.1L664.7,280.8L662.1,281.2L661.2,280.3L663.5,279.3L667.2,279.1L670.6,280.3L674.4,279.3L682.4,276.6L689.3,274.8L693.4,275.6L698.0,274.6L700.6,273.5L697.4,271.3L685.6,271.7L668.8,273.3L666.4,273.7L664.7,272.2L666.3,270.4L657.0,271.4L650.8,273.2L649.1,273.2L649.2,271.6L663.6,269.8L666.1,269.2L666.1,267.7L671.8,265.7L673.8,261.3L667.8,259.2L670.9,259.6L673.3,259.1L680.5,260.3L676.6,256.3L676.6,256.3Z M709.5,247.5L708.1,249.5L705.9,250.9L679.3,255.8L679.3,255.8L682.8,260.3L689.0,260.2L694.8,260.5L706.0,257.9L710.5,257.4L717.9,255.0L716.5,252.9L719.1,254.0L721.5,252.6L720.4,250.1L716.1,247.6L709.9,247.6L709.5,247.5Z M776.2,237.9L769.9,237.1L765.3,238.3L761.3,237.6L743.5,239.5L740.1,244.5L738.8,244.3L738.4,247.9L736.9,248.9L734.2,248.5L734.5,249.7L731.9,250.0L728.7,249.0L723.1,248.6L723.4,248.6L727.1,251.7L736.0,250.6L734.8,252.3L736.6,252.8L736.4,253.9L741.4,257.6L741.1,263.5L744.6,268.0L746.5,269.1L754.2,272.1L766.9,272.0L768.8,268.7L767.7,266.8L768.9,264.4L770.7,262.6L772.5,262.6L770.9,266.6L771.1,270.8L772.1,272.1L778.1,270.7L779.0,273.3L783.7,272.3L786.7,270.8L783.5,267.6L785.4,267.6L783.7,265.8L787.6,265.8L784.7,264.8L786.4,263.8L784.5,263.7L784.7,262.3L788.3,260.0L785.7,259.2L782.2,259.9L786.8,258.3L787.0,257.5L775.8,258.0L779.1,257.2L785.8,256.4L787.8,254.6L786.7,253.1L784.0,253.5L782.8,252.7L789.4,251.4L785.6,251.6L788.2,249.3L786.1,249.2L787.6,247.6L780.9,247.6L777.9,249.0L775.9,252.7L773.7,252.8L773.7,248.2L774.5,246.3L778.9,245.1L784.4,243.0L786.3,241.7L781.9,242.4L781.7,241.4L776.4,244.4L773.2,244.8L772.8,243.3L777.0,241.5L774.5,241.2L764.1,244.3L767.6,241.6L770.9,240.6L776.2,237.9L776.2,237.9Z " data-id="GL.VG" data-name="Kommuneqarfik Sermersooq" id="GL.VG"/>
utf-8utf-8<path d="M307.8,531.4L306.9,531.1L306.4,531.0L307.8,531.4Z M292.3,531.4L292.4,530.6L289.0,530.4L287.3,531.4L292.3,531.4Z M305.2,531.4L304.1,530.1L303.5,530.4L305.2,531.4Z M286.5,531.4L288.7,528.6L288.0,527.8L284.6,528.0L282.9,530.8L286.5,531.4Z M292.9,529.9L290.0,526.6L290.3,530.0L292.9,529.9Z M302.2,531.4L302.6,528.9L307.5,530.6L307.9,531.2L310.3,529.3L292.7,526.5L291.6,527.8L293.9,529.5L298.8,529.5L294.9,531.4L302.2,531.4Z M268.7,527.5L269.8,526.7L269.5,526.2L268.7,527.5Z M270.3,521.1L268.8,521.4L266.2,526.1L268.2,525.8L271.1,524.1L273.0,521.2L270.3,521.1Z M274.2,522.8L277.5,520.4L277.1,519.4L274.1,521.9L274.2,522.8Z M262.6,514.2L262.4,513.7L259.6,513.5L262.6,514.2Z M257.7,514.0L260.7,512.9L255.3,513.3L257.7,514.0Z M252.9,512.0L251.7,511.3L250.0,512.1L249.8,513.6L252.9,512.0Z M233.8,510.4L232.8,510.6L234.1,511.1L233.8,510.4Z M240.0,511.0L240.0,510.2L239.2,510.1L240.0,511.0Z M252.4,510.8L253.3,510.4L252.9,509.8L252.4,510.8Z M222.0,509.9L215.5,510.4L218.4,513.1L221.6,512.7L225.6,511.4L223.1,511.7L224.8,510.1L222.0,509.9Z M238.6,509.5L237.0,509.1L236.5,509.4L238.6,509.5Z M236.1,509.1L237.0,508.5L235.3,509.1L236.1,509.1Z M326.9,508.3L321.7,508.5L324.3,508.8L326.9,508.3Z M257.2,507.8L251.0,508.1L242.8,511.1L245.6,511.3L257.2,507.8Z M251.9,507.2L251.0,505.5L250.7,506.9L251.9,507.2Z M335.6,493.6L336.6,492.5L334.6,493.7L335.6,493.6Z M343.9,484.9L346.1,482.8L344.3,483.3L343.9,484.9Z M348.0,465.1L348.5,466.7L350.4,466.9L350.5,465.8L348.0,465.1Z M332.6,460.3L325.3,461.1L316.0,460.6L273.4,482.0L230.4,503.5L224.3,505.0L224.4,505.1L227.7,504.8L227.0,505.8L215.7,509.5L219.6,509.6L221.4,508.5L231.5,509.7L234.1,508.4L225.9,509.0L226.1,507.8L230.3,508.1L235.4,506.3L235.9,508.0L239.7,506.7L242.8,507.1L239.5,509.4L245.4,509.3L244.9,507.4L247.8,507.8L249.2,507.1L248.5,505.6L253.5,505.0L254.6,503.7L256.6,504.1L256.7,505.8L259.4,504.7L259.1,503.9L262.0,503.7L265.3,501.9L263.6,499.0L270.0,497.0L266.1,499.7L267.5,500.6L268.0,503.5L262.8,504.4L260.1,507.5L265.6,506.3L272.5,502.7L273.3,498.9L274.9,502.8L277.3,502.3L272.6,504.4L271.1,505.7L263.2,507.1L256.0,510.1L256.8,510.2L262.9,507.9L256.0,512.2L257.9,512.4L261.0,509.5L264.1,509.2L261.9,511.6L266.0,510.6L270.1,508.5L273.3,506.2L273.5,507.1L270.9,509.1L267.1,510.8L267.9,511.3L264.8,512.0L267.3,512.9L259.3,516.2L261.5,516.8L263.2,514.7L265.9,514.3L263.3,515.8L263.9,516.5L268.4,516.2L272.0,512.4L272.6,512.3L269.9,516.4L267.5,518.0L271.9,516.8L276.6,514.4L273.1,516.7L271.7,518.3L272.8,519.6L276.9,518.4L280.0,516.4L282.2,515.8L277.9,519.1L277.1,521.7L270.8,525.6L270.4,527.6L279.3,523.4L286.4,518.2L277.8,525.6L273.0,526.9L271.3,528.4L274.2,530.3L280.2,531.4L282.8,530.1L284.2,527.9L287.4,527.2L289.1,526.2L288.4,524.9L291.6,524.6L295.4,523.2L291.8,525.1L291.4,526.3L300.8,527.1L301.4,526.1L308.5,528.7L310.8,528.9L309.5,527.6L311.2,527.3L311.3,525.5L307.9,525.5L312.0,523.0L310.0,521.9L306.5,521.6L309.7,519.2L308.1,518.6L300.8,519.4L300.2,517.1L293.8,515.5L303.2,516.5L304.4,512.6L306.8,517.3L312.0,518.9L311.3,516.7L317.6,517.0L317.9,515.7L314.1,514.1L320.5,513.9L323.2,512.1L317.5,510.4L313.9,510.9L309.6,509.2L317.0,509.7L320.7,510.6L323.3,509.7L311.4,507.4L319.4,508.3L325.7,507.1L325.0,504.8L326.7,505.7L326.7,503.5L321.8,503.2L318.5,502.5L314.5,502.7L311.9,501.5L315.9,502.1L318.6,501.9L323.2,502.6L329.1,502.5L319.1,499.7L330.9,500.2L325.7,497.3L319.6,496.2L326.5,496.6L329.0,497.8L334.0,495.4L334.6,491.6L329.4,491.7L324.2,490.0L328.1,490.8L336.6,490.9L336.4,489.5L339.3,489.2L338.1,487.3L331.9,485.1L332.5,484.2L335.6,486.4L339.4,485.9L343.9,483.0L340.5,481.6L343.4,481.8L346.0,479.0L342.4,479.1L338.6,481.1L337.6,480.9L339.2,478.5L343.5,477.0L345.3,474.4L343.5,470.7L339.4,470.9L337.4,468.6L334.9,467.4L334.0,466.2L337.3,467.2L338.6,466.8L341.2,468.7L342.8,468.6L346.4,470.1L348.7,469.9L347.4,468.5L342.0,467.7L343.3,467.4L342.3,466.0L346.2,466.4L346.1,465.5L342.4,463.7L337.3,462.4L333.2,461.9L332.6,460.5L332.6,460.3Z " data-id="GL.VG" data-name="Kommune Kujalleq" id="GL.VG"/>
utf-8utf-8<path d="M170.6,390.0L174.2,388.0L167.9,388.3L167.3,390.0L170.6,390.0Z M178.9,414.1L192.5,407.1L202.3,405.5L205.6,404.3L204.9,404.5L205.5,402.2L205.0,398.6L206.2,400.2L210.1,399.1L209.7,399.3L218.7,396.0L225.3,394.8L338.7,394.9L346.4,373.4L356.2,346.7L358.2,341.2L349.0,341.2L258.2,341.2L250.4,341.5L245.0,342.3L244.9,342.3L242.4,342.9L232.2,341.9L231.1,340.8L223.8,338.0L222.5,338.5L213.8,339.1L210.7,337.0L210.2,337.6L202.5,335.9L201.1,337.1L195.0,337.8L179.6,342.7L175.1,344.7L172.4,348.2L173.9,349.5L183.7,347.1L184.8,346.6L186.8,347.7L200.5,345.4L206.1,344.7L208.8,345.8L225.4,344.2L222.2,345.2L217.6,345.5L221.2,351.0L222.5,351.2L228.3,349.7L234.3,349.0L235.7,350.3L231.2,349.9L228.2,350.1L224.6,351.1L219.2,350.6L216.3,346.5L203.3,345.9L187.3,348.3L179.6,348.6L177.4,349.2L180.4,349.8L174.8,349.9L168.8,352.7L171.7,352.8L171.1,353.9L174.4,354.7L175.7,354.2L181.3,354.4L170.6,354.7L172.9,356.7L183.4,356.2L183.7,356.7L188.5,357.2L192.3,356.7L194.5,355.9L193.9,358.1L186.7,358.0L183.6,358.4L181.4,360.1L187.7,359.2L189.2,360.0L186.7,360.5L180.5,360.9L183.0,361.7L187.1,360.8L185.7,362.2L181.4,362.6L177.3,362.1L173.8,363.7L173.4,364.8L181.6,364.9L188.3,365.6L181.9,365.7L175.0,366.8L171.1,366.1L168.1,367.8L165.8,370.6L166.1,372.9L167.7,373.4L164.2,375.7L167.7,375.2L169.7,376.4L177.2,374.2L184.2,370.5L196.8,366.4L201.5,362.8L206.9,361.3L216.0,357.4L220.6,356.3L225.0,354.7L229.6,354.1L238.9,355.4L236.1,354.7L230.9,354.6L227.0,355.0L221.9,356.9L225.7,358.2L233.9,358.4L223.3,358.7L219.7,357.5L208.6,361.8L203.9,363.0L200.6,364.8L199.5,367.1L191.8,368.3L184.7,371.0L182.9,372.7L177.1,374.9L168.8,377.2L167.4,378.6L170.0,378.3L166.1,379.6L169.9,380.3L177.0,378.2L177.8,378.6L169.2,381.3L170.8,382.6L178.2,380.5L178.8,379.3L180.6,380.0L183.2,378.9L182.3,380.4L183.5,381.5L198.5,377.4L196.8,378.6L189.8,380.3L187.7,382.4L181.0,380.8L173.9,382.4L172.8,383.7L167.8,385.2L171.6,387.4L178.6,385.2L178.9,386.2L176.3,387.2L174.2,390.2L175.9,391.4L179.7,388.7L178.5,390.1L180.5,391.1L177.7,393.2L178.1,394.1L189.1,391.0L191.1,388.9L190.7,387.2L202.1,384.8L205.9,384.2L212.1,384.6L215.7,386.4L213.4,386.5L211.9,385.4L200.8,385.5L192.6,388.0L192.5,388.9L195.0,389.3L183.6,393.3L180.5,394.0L177.8,396.4L177.3,398.6L182.7,396.8L180.4,398.9L182.0,400.9L179.9,401.1L179.6,402.4L182.8,404.3L178.2,406.6L180.5,407.7L181.2,406.1L183.3,407.0L182.1,408.7L185.9,407.5L185.6,406.1L190.2,403.3L188.0,406.6L198.1,403.4L190.7,407.3L187.0,407.5L181.5,410.3L180.5,410.4L178.9,414.0L178.9,414.1Z " data-id="GL.VG" data-name="Qeqqata Kommunia" id="GL.VG"/>
utf-8utf-8<path d="M756.6,215.6L747.1,216.5L750.0,223.4L753.0,223.9L751.7,225.2L754.0,225.0L757.1,226.0L768.6,228.7L772.7,231.0L778.0,231.0L776.0,232.1L782.8,232.9L784.3,232.2L785.2,229.5L774.7,226.8L774.7,225.9L776.8,225.1L783.0,225.5L788.3,226.9L789.1,225.1L781.7,222.2L776.4,221.3L772.7,219.4L770.0,216.6L761.5,216.6L756.6,215.6Z M742.0,215.2L738.7,215.0L732.8,216.7L739.2,217.9L740.0,216.0L742.0,215.2Z M769.6,211.2L764.0,212.2L746.7,213.1L746.4,215.2L760.4,215.3L762.0,215.9L769.9,215.7L776.1,217.4L776.7,219.4L788.5,219.4L787.0,217.0L790.3,216.4L790.4,214.5L786.1,213.4L769.6,211.2Z M802.8,210.6L805.2,209.6L800.6,210.2L802.8,210.6Z M757.9,204.8L750.5,203.3L736.4,203.8L732.7,206.2L727.7,208.8L732.0,210.2L738.3,210.3L748.2,212.1L774.3,210.5L772.9,208.9L761.2,208.5L752.2,206.9L740.8,206.0L741.1,205.6L770.1,207.9L770.7,207.2L757.9,204.8Z M816.0,180.7L811.0,180.1L800.0,182.7L797.3,185.3L806.6,187.3L808.6,188.4L812.9,188.2L815.6,187.6L828.0,186.6L816.0,180.7Z M853.3,176.2L851.7,175.3L848.6,176.2L847.1,178.0L852.5,178.1L853.3,176.2Z M857.3,174.2L858.4,176.2L861.4,176.1L857.3,174.2Z M831.3,170.2L831.5,169.4L834.9,168.6L829.4,166.9L826.9,167.2L824.4,168.4L825.3,169.7L822.7,172.4L826.2,174.0L831.0,174.7L835.5,173.1L838.6,170.7L831.3,170.2Z M873.2,161.1L870.3,159.0L867.9,159.6L867.9,160.5L863.6,161.4L861.1,159.8L854.1,160.7L855.5,161.6L854.4,163.9L855.1,164.4L854.6,167.9L860.9,168.4L870.6,167.3L875.8,169.2L879.5,167.4L879.3,164.5L876.0,164.7L873.5,166.3L868.8,164.6L869.2,163.0L865.9,163.2L870.0,162.3L873.2,161.1Z M865.1,132.4L864.3,131.2L859.6,129.7L859.1,131.9L863.0,132.8L863.2,133.4L859.1,133.2L856.7,135.0L858.9,138.8L859.5,141.9L862.4,146.5L862.0,148.5L864.1,144.9L863.0,142.2L864.0,141.3L863.3,139.6L865.1,132.4Z M882.7,110.9L887.2,108.1L886.3,106.0L884.0,106.1L877.1,110.5L882.7,110.9Z M829.6,106.1L832.7,103.8L830.3,104.0L827.2,105.5L827.7,106.5L829.6,106.1Z M850.8,103.9L843.1,104.0L842.3,104.6L860.3,107.6L860.0,105.6L853.8,105.7L850.8,103.9Z M868.7,101.1L864.4,101.3L862.7,105.0L868.2,102.6L868.7,101.1Z M844.9,100.7L845.5,99.3L844.1,98.4L838.1,99.9L841.3,100.8L844.9,100.7Z M861.7,99.1L858.1,96.0L857.3,98.0L861.7,99.1Z M869.2,96.6L869.7,93.7L863.5,95.9L867.2,99.5L868.7,99.3L869.2,96.6Z M876.7,92.7L880.1,91.6L881.3,90.5L879.2,90.5L874.6,92.1L876.7,92.7Z M882.9,88.9L885.2,86.8L884.5,86.5L882.9,88.9Z M868.2,85.8L868.5,84.6L860.5,87.7L864.8,89.3L869.3,88.4L865.9,88.1L869.8,86.1L868.2,85.8Z M896.0,82.2L896.9,80.4L894.2,79.3L888.3,83.5L896.0,82.2Z M902.4,63.9L903.1,63.2L896.3,61.8L882.6,63.3L876.3,63.2L877.2,64.8L870.1,66.0L872.8,67.4L882.8,69.6L887.7,69.4L893.2,68.5L902.4,63.9Z M881.1,60.9L874.1,59.5L868.4,60.2L866.2,63.1L868.3,62.9L881.1,60.9Z M909.3,33.9L903.0,31.4L896.4,31.6L896.4,32.3L902.4,33.6L909.3,33.9Z M890.7,30.1L884.8,26.2L878.7,24.9L876.6,25.3L877.0,27.1L884.5,30.0L890.7,30.1Z M401.4,27.1L401.8,26.7L385.7,23.5L378.6,21.3L375.4,21.8L372.6,23.6L376.0,25.4L387.2,26.6L388.5,27.0L401.4,27.1Z M487.7,16.0L483.2,15.4L475.2,15.5L474.9,15.9L462.4,16.0L469.8,20.2L471.3,20.8L491.0,23.8L495.4,25.9L500.4,25.2L496.7,23.1L507.9,20.1L502.4,18.4L496.9,17.3L487.7,16.0Z M466.4,13.7L467.3,12.9L455.3,12.0L453.9,13.2L461.7,13.7L466.4,13.7Z M587.4,10.0L591.5,8.6L584.2,8.1L582.2,7.5L573.8,7.5L575.8,8.7L581.2,9.1L582.8,9.9L587.4,10.0Z M569.3,7.3L560.9,7.2L570.2,9.7L582.2,10.4L579.3,9.2L573.8,8.9L569.3,7.3Z M579.3,4.5L574.5,4.7L573.3,5.5L582.1,5.9L584.5,6.9L586.5,5.3L583.2,5.3L579.3,4.5Z M228.5,42.4L235.3,46.0L240.3,49.7L248.9,53.4L274.6,60.0L284.0,62.8L464.7,103.5L452.6,125.5L448.7,132.9L436.9,155.6L433.1,163.3L421.9,186.5L407.6,217.9L404.1,225.9L391.1,256.9L390.2,259.0L399.1,259.0L659.7,259.0L676.6,256.3L676.5,255.9L677.9,255.7L678.7,255.3L679.3,255.8L679.3,255.8L705.9,250.9L708.1,249.5L709.5,247.5L708.0,247.2L700.4,247.8L695.6,246.7L693.0,246.9L691.0,247.8L689.3,247.0L693.3,245.7L683.1,245.0L679.4,245.7L678.5,244.3L681.4,244.8L684.8,243.8L689.0,243.9L690.4,242.5L680.2,238.8L682.3,237.9L672.1,237.2L674.2,235.7L672.8,234.4L681.0,236.2L681.5,235.7L686.8,238.1L688.7,240.2L692.6,241.7L696.6,245.5L699.1,246.3L702.4,246.3L706.4,244.1L707.5,245.6L711.8,245.4L720.7,247.5L722.3,248.5L723.1,248.6L728.7,249.0L731.9,250.0L734.5,249.7L734.2,248.5L736.9,248.9L738.4,247.9L738.8,244.3L740.1,244.5L743.5,239.5L761.3,237.6L765.3,238.3L769.9,237.1L776.2,237.9L776.1,237.8L773.5,236.8L767.7,235.5L766.1,235.9L766.6,234.3L758.8,232.4L754.7,232.7L756.7,231.6L755.2,230.0L751.3,229.6L746.4,228.2L741.9,226.3L736.7,226.6L732.0,227.4L728.7,229.3L726.6,232.6L725.6,231.1L729.9,227.2L728.0,226.5L722.5,226.8L719.6,226.1L733.2,225.8L737.7,225.1L743.1,223.2L739.8,219.2L737.2,219.1L733.2,217.2L731.7,217.5L728.8,216.6L721.9,218.8L715.5,220.0L711.9,222.4L714.5,219.1L713.8,218.8L707.2,219.7L713.2,218.1L708.3,216.8L700.5,216.9L707.1,215.9L710.2,216.1L715.5,217.8L720.4,217.6L726.1,215.2L732.6,215.4L735.4,214.5L739.2,212.4L738.3,211.0L727.1,209.8L722.7,208.3L714.9,208.5L709.8,210.6L702.4,209.6L699.7,210.4L698.5,213.4L694.6,214.4L697.9,212.7L697.4,211.4L692.4,209.9L703.8,208.6L709.9,209.9L716.1,207.0L715.4,206.6L708.5,206.0L704.1,204.9L700.3,202.8L703.2,201.9L704.0,202.8L709.3,205.2L716.5,205.2L720.3,207.5L723.5,207.5L728.1,206.8L732.9,205.1L732.5,203.8L736.4,202.2L746.7,201.7L747.1,200.9L741.3,197.2L738.0,196.1L731.7,192.2L735.4,192.4L740.0,196.0L743.3,199.1L751.2,200.7L752.7,200.3L751.6,198.1L753.1,196.5L759.6,194.4L763.1,196.3L767.8,196.3L783.1,200.0L779.0,200.2L774.5,198.6L765.3,196.9L759.8,196.7L759.9,199.6L765.9,201.8L767.9,203.1L786.5,207.3L788.4,207.2L798.6,204.1L800.5,203.7L799.5,202.6L801.0,201.8L805.4,202.6L818.0,202.8L819.7,202.4L820.8,200.6L819.4,200.6L819.8,196.5L821.2,195.4L824.1,194.9L824.4,192.9L817.6,192.9L803.1,189.1L799.8,189.2L797.4,192.0L798.6,192.2L798.7,195.9L799.3,197.2L798.0,198.1L797.1,195.5L798.2,193.8L794.4,189.8L791.2,189.5L788.1,188.4L793.8,187.5L793.1,186.6L796.5,184.7L791.4,183.9L790.1,183.2L800.7,182.0L802.0,180.8L798.2,177.0L800.8,178.1L801.6,179.6L806.8,180.1L810.9,179.8L818.1,180.2L826.0,180.4L827.7,182.2L827.9,184.1L837.5,185.0L842.4,184.0L845.5,182.6L849.7,179.5L844.6,176.6L845.4,175.9L842.6,175.1L836.2,177.2L832.2,175.7L815.4,175.9L814.6,175.3L819.8,175.5L823.2,173.6L821.2,171.2L822.9,169.9L822.5,168.9L824.3,166.9L816.5,166.1L809.3,168.5L804.8,169.0L800.9,167.7L802.4,166.9L794.7,164.3L796.2,164.3L802.8,166.2L804.4,168.1L808.2,168.0L815.5,165.4L818.7,164.9L823.8,165.3L826.8,164.9L825.0,163.1L822.1,162.5L820.0,161.1L814.6,160.0L813.0,158.5L796.2,156.8L797.3,156.7L813.5,158.0L810.8,156.5L809.9,155.0L815.8,157.1L819.5,159.9L829.6,161.2L831.3,160.6L836.3,164.1L843.6,164.2L846.5,161.9L847.8,156.1L844.9,153.3L847.1,151.8L848.9,152.1L843.4,148.5L840.6,147.5L833.9,147.8L830.1,146.9L818.1,146.9L808.7,147.0L806.9,146.3L807.6,145.2L809.8,146.3L813.8,146.4L835.3,146.3L840.2,144.7L843.0,144.7L845.9,143.3L843.6,140.8L832.9,141.2L826.6,139.4L824.5,139.2L832.5,143.0L829.6,143.4L829.5,142.5L823.3,140.1L817.8,140.8L813.0,140.6L816.0,137.8L800.9,136.3L806.7,136.6L814.2,135.9L815.0,134.7L810.3,134.6L808.4,134.1L813.2,133.4L806.7,132.5L803.1,134.3L802.0,131.7L799.5,131.7L802.2,129.8L805.0,130.1L803.7,128.1L807.2,127.5L808.9,127.9L814.8,131.9L816.5,132.1L823.5,128.6L831.4,127.9L826.8,127.2L820.8,127.5L822.3,126.9L827.5,126.6L832.2,126.9L834.9,126.4L841.0,126.0L846.3,126.1L854.1,128.1L859.5,128.0L863.3,129.6L866.3,129.3L868.0,130.1L872.9,126.2L873.8,123.0L873.3,120.1L869.8,118.4L865.5,118.3L861.6,117.8L861.2,120.6L855.1,120.1L855.3,119.0L851.2,117.3L839.4,116.4L843.9,115.6L834.3,114.2L834.5,113.4L838.8,114.4L843.3,113.3L835.1,110.7L842.7,110.6L848.3,109.9L857.7,113.3L864.4,111.9L862.4,110.0L859.2,109.1L849.8,107.9L837.9,104.1L834.6,104.1L826.0,109.5L826.6,110.5L823.5,112.2L824.9,110.7L816.8,110.2L820.3,107.4L820.1,106.8L824.9,105.3L824.0,103.5L828.2,102.3L829.1,100.5L832.6,96.1L834.7,95.0L836.2,93.1L840.0,91.0L836.4,89.7L840.3,89.1L845.3,87.6L847.8,85.9L850.8,86.6L858.1,85.7L860.7,81.6L861.7,81.7L874.2,78.7L873.6,77.9L869.4,76.4L869.3,75.6L865.6,76.6L864.3,75.8L868.4,70.8L870.6,70.1L870.9,68.8L867.6,67.9L862.7,68.7L859.6,69.7L858.4,67.1L854.3,67.0L854.7,65.7L859.5,63.7L858.6,61.5L864.9,60.7L870.2,58.5L874.8,58.4L882.5,59.7L894.6,60.4L899.2,59.9L910.6,59.6L916.9,59.3L918.0,58.1L919.9,58.0L928.4,55.5L918.0,54.4L911.5,52.4L904.9,53.8L893.3,54.2L883.9,53.2L871.9,51.5L857.7,54.8L857.9,53.5L860.3,52.8L872.3,50.9L880.1,51.5L885.4,52.6L889.5,52.9L893.5,52.6L897.3,51.6L903.1,51.4L903.4,50.0L906.9,49.9L920.1,51.1L921.7,51.4L934.5,51.2L936.3,50.0L947.2,49.4L952.3,48.7L955.2,46.8L949.1,44.9L956.5,44.4L962.4,44.7L967.5,44.4L968.7,43.6L980.5,41.3L986.7,38.7L994.8,37.7L998.7,36.4L994.5,35.7L992.0,34.0L981.7,32.2L974.4,31.9L961.7,30.2L942.3,30.2L941.1,29.7L933.5,29.9L932.9,30.6L922.8,31.3L922.7,33.1L916.9,35.1L905.2,37.7L900.7,36.3L901.1,37.1L895.5,36.0L888.8,35.7L875.4,37.9L878.5,36.4L880.1,34.7L883.8,33.6L874.6,33.3L874.8,32.4L870.0,33.1L868.1,34.2L871.3,34.7L857.2,38.2L852.6,40.5L844.5,41.7L830.5,45.4L823.5,46.0L819.6,47.1L820.4,47.5L817.2,48.7L817.4,49.3L811.1,50.1L810.9,49.3L818.0,46.2L825.6,43.6L827.3,42.6L832.1,42.0L835.4,40.1L839.9,39.1L849.9,35.0L853.3,31.7L854.0,27.3L850.6,25.5L826.8,26.2L822.6,26.7L818.7,31.7L812.9,31.4L785.8,34.7L783.7,34.6L770.7,37.0L770.2,35.4L767.2,35.1L773.5,33.6L800.0,30.3L801.5,27.2L754.8,25.9L751.9,26.5L735.1,26.9L729.9,28.6L726.7,28.8L726.7,27.9L707.6,29.3L694.1,29.8L686.8,31.5L685.9,32.5L678.0,32.6L676.7,30.5L681.2,29.0L693.7,27.6L702.0,27.5L704.7,26.8L722.2,25.5L717.7,24.0L697.9,23.4L716.2,23.6L724.0,24.5L815.0,21.9L836.2,21.1L838.7,19.6L846.0,18.7L850.2,15.5L847.8,15.4L835.7,13.3L834.8,13.9L828.9,13.5L825.0,12.5L820.8,12.8L818.4,13.8L815.7,12.2L809.1,11.8L793.0,13.6L792.0,13.6L803.3,10.8L803.4,8.4L805.0,8.3L799.8,7.4L779.7,8.7L778.5,9.0L727.6,8.1L725.1,8.5L707.7,9.8L702.0,10.4L682.9,10.4L672.6,11.4L670.4,12.0L667.9,11.4L654.1,11.7L648.7,12.5L645.1,11.4L683.0,10.1L684.6,9.8L682.8,8.0L678.5,7.5L692.8,8.4L696.6,9.1L715.7,8.4L718.2,7.9L787.4,6.7L794.2,5.3L755.2,2.6L758.4,3.1L752.2,3.4L751.9,1.8L742.7,1.6L723.0,0.5L721.2,0.8L708.4,0.7L706.9,0.4L698.8,0.8L697.3,0.2L673.6,0.7L672.6,1.0L676.2,2.1L673.8,2.3L670.2,1.7L667.7,0.6L666.5,1.3L664.6,0.7L655.2,1.5L633.3,1.5L631.0,2.4L635.5,2.9L634.0,3.8L631.2,3.1L620.6,2.0L615.7,2.1L613.6,3.0L617.1,4.1L603.6,3.3L601.7,5.5L599.5,6.0L604.1,6.9L612.5,6.9L616.7,7.6L627.8,7.6L598.9,9.0L599.1,9.4L616.2,9.4L618.8,9.8L593.6,10.1L597.3,11.8L597.3,12.8L600.8,13.1L599.5,14.1L588.2,10.7L570.0,10.3L561.3,8.2L557.0,7.9L552.7,8.6L556.5,7.0L551.5,6.2L546.6,6.4L543.8,5.6L534.8,5.9L539.7,6.8L523.3,6.9L539.2,8.5L527.7,8.0L527.4,8.2L512.6,7.3L511.6,8.4L504.5,7.9L500.3,7.9L504.9,9.2L529.8,11.3L527.5,11.4L510.0,10.6L504.1,11.2L504.4,10.3L494.0,8.7L485.9,9.1L491.0,11.4L478.8,10.5L482.1,11.9L495.1,12.5L495.6,12.1L505.2,12.7L506.9,12.3L563.6,13.8L568.9,14.8L572.9,14.5L578.6,16.2L575.9,17.3L579.0,18.4L575.2,20.5L573.7,19.2L565.4,16.4L550.1,14.3L549.5,14.6L552.0,16.7L551.1,18.7L549.4,18.6L548.4,17.2L548.9,15.5L545.8,14.6L547.5,14.1L503.8,13.6L502.8,13.4L492.4,13.9L493.5,14.6L507.6,17.3L518.4,19.8L516.5,21.1L525.7,22.2L527.4,21.8L538.1,23.2L532.1,23.2L531.8,22.6L519.1,22.3L510.3,21.4L505.1,21.9L500.6,23.8L505.5,25.1L499.9,26.1L496.7,26.2L496.3,27.0L503.0,27.5L500.7,28.9L502.5,28.8L503.7,30.2L497.6,30.8L488.0,29.4L480.8,27.9L480.6,26.3L463.8,24.0L458.7,24.0L458.8,22.9L443.5,20.8L440.5,19.2L410.0,18.2L409.6,18.5L413.4,24.3L427.5,27.9L421.1,29.2L404.0,27.7L405.2,29.1L408.7,29.4L409.8,30.6L417.9,31.9L421.5,33.1L416.5,33.7L412.4,31.8L398.1,28.6L384.0,27.3L376.7,26.3L375.1,26.6L373.9,29.5L363.9,32.4L361.7,34.8L357.4,34.2L361.2,31.0L364.3,29.9L366.8,27.6L363.0,21.4L358.5,20.6L345.7,21.4L344.4,22.6L329.9,23.3L322.1,23.1L320.0,23.4L301.9,24.4L296.5,25.1L292.3,25.1L277.9,26.9L278.2,27.3L290.8,29.7L293.0,32.8L298.7,33.0L305.5,35.3L306.4,36.9L312.6,37.6L312.0,38.6L303.0,36.4L304.7,36.2L300.2,35.0L299.4,34.1L294.9,34.0L285.0,32.5L285.8,29.6L277.8,28.7L274.2,28.8L268.1,27.9L260.5,28.5L247.8,30.2L244.1,31.4L246.2,33.5L250.5,35.6L249.0,36.4L240.7,38.0L242.0,41.0L240.1,42.6L236.6,42.5L232.1,43.5L228.5,42.4L228.5,42.4Z " data-id="GL.NG" data-name="Nationalparken" id="GL.NG"/>
utf-8utf-8<path d="M202.9,319.0L201.5,319.9L200.0,319.3L197.4,319.8L197.4,320.6L201.7,321.4L203.8,320.4L202.9,319.0Z M224.6,315.6L224.3,315.5L223.8,315.7L224.6,315.6Z M220.9,316.2L225.3,314.9L223.2,314.7L219.5,315.9L218.9,314.7L213.9,315.9L213.7,316.6L220.9,316.2Z M220.1,313.4L211.2,313.4L203.4,314.8L200.8,316.5L213.3,314.8L220.1,313.4Z M254.0,284.3L249.9,285.1L253.6,285.1L244.9,289.3L245.9,292.8L247.6,294.0L251.1,292.9L252.4,289.1L259.3,285.5L257.1,285.6L254.0,284.3Z M223.1,284.1L219.8,279.7L216.5,277.7L213.0,276.7L208.1,276.3L206.1,275.6L196.5,275.1L190.7,276.5L188.0,278.3L187.4,281.2L191.5,283.2L195.2,283.7L195.6,284.5L186.9,283.2L184.8,283.8L185.4,285.3L182.7,285.6L182.6,286.7L185.9,288.2L179.7,289.5L183.0,292.2L193.6,293.1L196.1,292.9L196.3,294.6L199.8,293.7L199.0,295.3L200.8,294.9L204.0,292.7L205.6,292.7L203.1,295.4L198.1,296.1L190.3,295.5L189.2,296.7L190.8,298.2L194.6,298.5L195.5,299.9L201.3,300.2L207.6,298.7L215.0,297.8L224.7,295.5L228.7,294.8L231.2,293.8L236.0,290.9L233.9,289.9L235.5,288.9L234.9,287.1L229.7,286.2L223.1,284.1Z M193.8,273.4L192.1,271.7L188.5,270.9L188.8,273.6L193.8,273.4Z M253.3,266.6L248.5,264.8L247.5,265.5L251.7,267.0L253.3,266.6Z M254.5,261.8L249.0,259.6L245.8,259.7L244.2,262.0L252.4,262.6L254.5,261.8Z M221.7,258.1L225.2,255.8L223.3,251.5L214.8,255.6L214.3,256.3L218.9,258.3L221.7,258.1Z M238.3,255.1L240.2,253.5L242.6,252.8L244.9,250.8L235.4,250.0L231.0,251.4L231.2,254.3L232.7,255.3L238.3,255.1Z M236.7,243.7L229.6,243.8L229.6,246.3L233.7,246.6L242.0,243.5L236.7,243.7Z M194.9,239.9L197.8,237.7L196.3,237.4L191.3,238.6L194.9,239.9Z M210.1,228.5L211.4,227.1L205.6,228.3L200.5,228.9L198.7,230.5L202.4,232.0L210.1,228.5Z M204.8,218.2L199.7,218.1L196.2,219.5L195.1,220.7L201.8,220.0L204.8,218.2Z M217.3,217.4L214.0,216.4L205.8,218.4L205.2,219.5L201.4,220.6L204.4,223.1L207.9,222.3L211.9,219.5L217.3,217.4Z M211.0,211.8L207.4,213.0L213.2,214.7L216.2,214.5L211.0,211.8Z M210.6,200.2L207.8,200.4L212.3,202.4L214.1,202.0L213.6,203.4L216.7,203.2L214.9,201.8L210.6,200.2Z M208.7,192.9L203.5,192.1L200.3,193.0L201.2,193.9L207.3,194.0L212.6,194.7L213.5,193.6L208.7,192.9Z M213.6,179.2L212.0,178.0L195.3,179.4L201.2,179.8L203.1,179.4L213.6,179.2Z M27.0,134.4L28.9,132.8L21.5,133.3L20.3,134.0L27.0,134.4Z M0.0,117.7L12.9,116.9L13.7,116.5L2.4,114.9L0.0,114.8L0.0,117.7Z M22.7,114.5L15.8,114.9L18.0,116.5L31.7,116.4L30.5,115.7L22.7,114.5Z M136.5,54.3L135.2,53.9L134.7,54.0L136.5,54.3Z M143.6,50.7L143.6,52.1L147.5,51.7L143.6,50.7Z M155.0,47.8L154.6,48.0L155.2,48.0L155.0,47.8Z M224.3,41.1L209.0,41.2L205.7,41.8L204.9,43.6L208.3,48.0L206.4,48.4L206.0,47.0L203.4,45.6L203.7,43.0L202.2,42.0L200.1,42.2L195.6,43.7L187.4,44.2L180.2,46.5L177.0,46.5L174.2,48.4L164.2,49.7L164.6,51.0L156.5,50.9L154.2,52.0L139.7,54.9L137.1,55.6L129.4,57.0L126.5,60.0L130.9,61.0L130.7,62.3L138.7,62.1L148.3,63.3L155.5,62.4L158.4,61.7L163.9,62.1L171.5,61.5L177.5,58.7L177.1,59.8L183.0,60.6L173.1,62.0L160.5,63.3L157.5,66.2L156.9,68.2L158.0,69.2L155.5,70.1L157.5,71.0L149.1,75.3L137.4,78.3L133.8,80.5L125.4,80.3L107.3,80.4L103.3,81.2L101.6,82.4L97.8,81.6L80.4,83.5L77.4,84.8L80.9,85.9L77.6,85.8L72.8,86.8L63.3,87.1L61.1,88.1L55.6,88.4L39.5,90.3L34.2,90.3L26.4,92.0L15.4,92.8L7.3,97.0L12.6,97.2L9.8,97.5L6.7,99.3L0.9,100.2L3.5,100.3L6.7,102.2L11.2,102.4L9.5,103.5L13.6,105.7L19.9,105.1L18.2,106.4L24.8,105.9L25.1,106.2L20.1,107.8L21.6,108.3L32.7,107.9L38.4,106.4L36.8,108.3L29.9,109.9L39.9,110.3L48.4,109.2L46.8,110.4L36.2,112.0L34.5,112.6L49.5,114.9L60.0,113.7L61.5,112.6L59.8,110.6L62.7,110.5L65.0,113.0L64.0,113.8L77.2,113.4L83.7,112.4L86.8,110.7L94.0,110.2L100.3,111.6L100.9,114.7L99.4,115.4L91.9,115.4L91.8,118.3L94.9,118.5L94.0,119.2L90.5,118.6L87.5,117.0L77.3,116.4L62.0,116.5L48.2,118.7L48.6,119.1L61.4,120.2L65.4,119.7L86.2,121.3L94.6,120.3L87.9,121.7L80.7,121.8L66.9,120.2L54.3,120.9L52.8,120.5L37.3,119.5L17.4,120.5L9.3,123.1L8.0,123.0L6.5,124.7L9.5,126.0L10.3,125.3L14.2,126.0L10.6,126.7L14.2,128.8L18.3,128.9L25.8,126.8L33.4,124.2L36.2,124.4L29.4,126.3L23.3,128.8L24.2,129.5L40.4,131.7L49.9,131.5L54.4,130.8L55.5,131.5L54.5,133.1L54.4,133.1L60.1,133.1L58.7,134.9L49.7,134.9L45.9,139.6L39.8,139.6L34.7,135.3L34.7,135.3L24.9,136.7L24.5,138.2L26.3,139.3L30.5,139.9L33.5,142.5L38.0,142.4L36.3,143.7L37.9,144.4L58.5,146.3L68.1,147.8L64.3,145.4L60.8,144.7L61.4,142.9L58.0,142.5L62.6,140.6L67.5,140.9L67.5,142.5L69.9,144.0L72.2,144.0L77.1,141.2L78.2,140.1L80.9,140.4L85.9,140.0L87.8,141.1L84.2,141.5L83.4,143.0L80.8,144.1L83.2,145.2L88.0,145.5L91.8,143.1L95.3,143.7L96.0,142.2L98.9,142.3L100.5,143.4L102.8,140.6L108.0,140.4L110.6,138.4L112.4,139.3L111.8,143.1L117.5,142.2L117.4,141.8L123.1,139.4L124.4,138.1L130.3,138.6L137.9,140.3L144.9,140.5L144.0,141.3L148.0,140.9L148.9,141.7L155.7,142.2L161.1,142.8L164.4,142.7L162.6,144.3L163.3,145.5L169.7,144.9L169.3,145.4L174.8,145.4L173.9,146.4L176.7,147.8L181.4,148.2L176.8,150.3L178.4,150.3L182.6,149.0L188.1,148.9L185.2,150.1L187.4,151.0L187.8,152.6L193.8,151.9L198.2,152.0L196.4,153.8L198.2,153.5L196.5,155.8L199.6,156.3L197.3,158.4L195.5,158.4L189.4,159.7L191.3,160.4L194.8,159.0L194.7,160.7L192.5,160.9L195.0,163.7L197.6,163.7L198.2,164.7L194.3,165.7L197.4,167.5L205.6,170.1L209.4,169.8L210.0,171.0L212.7,172.2L205.5,173.9L211.9,176.0L215.9,175.9L213.1,176.8L215.4,178.0L219.3,178.0L216.6,179.5L208.2,180.4L212.2,181.0L217.7,181.2L217.8,182.0L211.5,182.1L209.1,183.8L213.0,183.4L213.5,183.9L205.9,185.8L202.3,185.9L198.5,187.2L196.6,187.0L194.1,188.1L207.7,186.7L213.9,185.0L216.2,184.0L214.8,186.0L209.2,188.7L210.1,189.4L215.7,189.6L213.2,190.1L219.6,193.2L219.6,193.6L214.2,193.5L211.5,198.0L215.4,199.7L216.8,202.4L222.1,203.7L217.2,205.4L215.7,207.3L219.4,208.0L218.9,208.8L215.9,208.8L214.0,209.6L209.5,210.1L208.2,211.0L219.4,211.5L218.6,212.7L223.2,213.0L221.8,214.4L223.6,217.0L218.0,217.8L221.0,218.4L224.5,217.5L224.8,218.0L220.4,218.9L220.4,221.7L216.0,221.9L213.3,223.5L216.8,223.3L220.4,225.0L214.7,225.0L211.0,224.2L204.4,224.0L201.2,225.5L202.1,226.4L205.7,226.5L206.9,226.0L209.6,226.7L212.5,226.4L212.1,230.0L208.4,231.0L204.6,232.6L201.9,234.5L200.1,234.4L196.2,236.0L201.4,237.5L207.5,237.4L213.8,235.3L214.1,234.2L219.0,231.4L208.5,237.8L200.3,238.4L199.1,241.2L197.1,240.3L194.0,241.7L191.1,241.6L187.4,243.3L192.4,243.9L190.9,247.8L197.0,250.1L196.5,247.5L198.5,248.9L202.4,250.7L205.7,250.8L213.7,249.8L219.5,248.5L221.7,246.3L220.5,245.1L219.8,242.8L221.8,244.1L223.7,244.2L225.2,242.3L227.8,241.6L232.9,239.6L232.7,235.3L229.4,232.6L230.3,230.0L229.2,228.3L236.0,227.8L230.9,228.6L231.7,229.9L231.3,232.9L234.6,234.0L235.2,235.5L234.3,240.8L240.4,239.0L240.9,237.4L244.9,236.1L243.0,238.9L234.0,242.5L244.2,243.2L245.3,244.2L252.2,244.8L262.4,242.1L258.9,245.0L252.2,245.7L250.2,245.5L241.8,246.8L235.4,249.2L244.8,250.3L251.3,248.6L259.6,247.1L265.0,247.5L263.4,248.8L260.2,248.4L247.0,250.9L247.2,252.1L244.6,253.5L250.1,253.2L256.7,250.6L252.7,253.2L247.5,255.4L246.2,256.6L250.1,256.3L258.2,256.3L261.5,255.6L258.5,257.1L262.5,258.6L267.7,258.4L261.8,259.9L251.9,257.4L256.8,261.1L261.3,261.6L268.2,264.0L266.1,265.5L260.7,263.5L259.2,263.4L255.0,265.8L259.6,265.9L260.9,266.5L264.0,266.3L268.3,267.2L264.4,266.9L261.8,268.0L264.8,269.0L261.3,269.8L258.4,268.8L255.6,268.7L257.0,270.6L259.1,270.4L261.1,271.4L258.4,271.4L263.6,272.6L269.1,269.8L265.0,273.0L267.2,274.0L264.6,274.8L261.9,274.1L257.8,273.8L252.4,272.2L249.8,272.3L245.4,270.5L239.2,267.5L236.8,265.9L231.3,264.7L224.4,264.3L219.8,264.8L213.4,263.8L211.0,263.0L207.9,263.0L201.9,264.7L197.4,266.9L199.1,267.0L203.1,270.3L203.2,271.2L205.5,272.7L208.3,273.5L218.9,274.1L228.5,277.3L231.0,280.7L237.0,282.0L240.2,281.9L246.2,283.0L248.0,282.7L251.8,280.7L255.1,280.9L255.6,281.7L249.9,283.3L255.7,283.3L264.4,281.5L266.5,283.0L262.6,283.1L263.2,284.8L265.1,284.9L262.8,287.8L259.2,288.1L254.9,289.5L261.4,290.6L255.2,290.7L252.1,293.7L252.9,294.5L256.9,294.4L260.0,293.3L261.7,293.8L258.2,294.6L258.4,295.4L253.7,294.9L251.5,295.2L250.3,297.0L250.9,298.0L249.6,299.5L245.0,300.4L245.7,301.6L253.2,300.6L262.2,300.9L262.1,301.4L254.8,303.2L252.0,302.9L259.2,304.7L254.0,305.7L255.7,308.0L249.4,303.2L244.2,303.1L241.5,307.8L236.2,312.2L239.3,312.6L247.2,310.0L248.7,310.3L241.5,312.6L242.3,315.3L240.1,314.3L239.1,316.2L234.1,316.5L223.2,317.8L222.1,317.5L224.8,316.3L217.8,316.5L209.6,317.6L208.3,319.4L198.7,322.6L196.1,321.8L193.3,322.3L197.5,323.3L207.9,322.0L201.4,323.5L203.5,325.1L208.4,323.1L209.5,324.7L209.0,325.9L216.7,324.6L224.6,323.6L230.8,323.4L231.7,321.4L228.5,321.6L229.5,320.4L233.7,320.2L241.7,318.0L241.3,319.0L234.9,320.3L232.3,324.2L235.5,325.9L227.8,325.2L236.0,327.4L234.2,327.8L235.4,329.0L239.4,329.4L239.4,330.4L242.0,330.2L245.1,331.6L248.7,331.5L240.6,332.5L230.3,328.6L216.2,329.0L212.5,328.1L209.6,326.7L204.0,325.4L202.4,326.0L204.9,327.2L203.0,327.6L197.5,325.6L193.2,325.8L192.8,327.0L196.9,326.1L195.2,327.2L201.2,330.6L211.7,331.3L201.4,331.1L196.7,328.7L191.9,330.5L198.3,330.5L193.4,331.2L190.1,332.4L190.0,333.7L182.1,334.8L183.3,337.5L180.0,338.8L182.1,338.7L178.5,340.4L178.7,342.2L180.9,341.9L186.3,340.1L192.7,336.7L197.5,335.3L200.7,335.4L206.5,333.4L210.4,332.5L215.1,332.5L222.2,330.8L221.3,331.8L218.8,332.0L215.4,333.0L211.0,333.2L207.0,334.6L208.4,335.9L216.9,337.6L222.1,336.3L224.9,331.8L226.0,332.2L228.8,331.0L232.7,330.7L232.0,333.2L228.5,332.6L225.8,333.3L227.6,336.0L232.3,335.0L234.0,335.3L238.1,333.9L237.2,332.4L241.0,333.4L241.8,332.7L245.5,334.0L243.4,335.0L238.3,334.5L235.3,335.8L225.2,337.2L232.3,339.2L244.6,336.6L237.2,338.8L233.2,339.4L233.5,341.3L236.7,342.1L241.5,342.5L245.6,342.0L245.0,342.3L250.4,341.5L258.2,341.2L349.0,341.2L358.2,341.2L362.7,329.3L371.5,306.2L376.9,292.1L386.3,268.5L390.2,259.0L391.1,256.9L404.1,225.9L407.6,217.9L421.9,186.5L433.1,163.3L436.9,155.6L448.7,132.9L452.6,125.5L464.7,103.5L284.0,62.8L274.6,60.0L248.9,53.4L240.3,49.7L235.3,46.0L228.5,42.4L224.3,41.1Z " data-id="GL.NG" data-name="Qaasuitsup Kommunia" id="GL.NG"/>
utf-8</g>
</svg>
