<?xml version="1.0" ?>
<!DOCTYPE svg
  PUBLIC '-//W3C//DTD SVG 1.1//EN'
  'http://www.w3.org/Graphics/SVG/1.1/DTD/svg11.dtd'>
<svg enable_background="new 0 0 1000 286" height="286px" pretty_print="True" style="stroke-linejoin: round; stroke:#000; fill: none;" version="1.1" viewBox="0 0 1000 286" width="1000px" xmlns="http://www.w3.org/2000/svg" xmlns:xlink="http://www.w3.org/1999/xlink">
utf-8<defs>
utf-8utf-8<style type="text/css">
<![CDATA[path { fill-rule: evenodd; }]]>utf-8utf-8</style>
utf-8</defs>
utf-8<metadata>
utf-8utf-8<views>
utf-8utf-8utf-8<view h="286.974472594" padding="0" w="1000">
utf-8utf-8utf-8utf-8<proj flip="auto" id="robinson" lon0="-14.8002612604"/>
utf-8utf-8utf-8utf-8<bbox h="12.66" w="44.27" x="-247.32" y="-231.74"/>
utf-8utf-8utf-8</view>
utf-8utf-8</views>
utf-8</metadata>
utf-8<g class="" id="provinces">
utf-8utf-8<path d="M444.1,67.4L448.7,67.6L463.6,70.1L469.4,70.3L471.9,70.0L483.3,70.7L487.1,73.1L486.0,78.4L485.1,95.8L488.8,106.4L508.1,122.2L508.7,122.2L508.7,122.2L509.6,119.0L530.7,105.4L539.0,101.1L543.0,97.8L545.6,97.1L548.3,98.2L555.4,90.2L563.0,86.8L571.9,93.4L586.6,109.0L624.4,134.7L635.5,138.0L648.1,139.1L653.1,140.8L664.0,148.3L670.1,150.5L676.8,152.0L680.3,154.4L686.8,164.8L695.9,174.0L706.9,179.2L719.0,180.8L731.2,179.2L742.0,176.2L745.8,177.7L755.1,187.6L756.6,182.7L764.2,164.5L768.9,160.6L771.7,162.1L776.5,159.0L774.6,157.6L766.8,138.4L772.7,134.0L775.4,129.9L777.8,122.0L780.8,118.1L785.9,114.5L783.3,112.3L780.0,108.3L777.9,103.2L773.8,86.8L770.7,79.6L766.3,73.4L760.0,67.6L746.0,60.2L732.4,59.1L718.9,63.1L698.4,75.7L694.3,77.2L689.7,75.3L676.3,66.2L674.0,63.3L668.0,38.8L665.1,31.8L661.0,25.4L649.5,14.9L637.5,10.4L604.2,8.7L584.6,0.4L577.6,0.0L553.3,9.9L528.1,27.6L521.0,29.5L518.3,27.2L512.0,17.7L509.0,14.4L494.7,11.8L479.3,18.3L465.1,29.7L454.6,42.2L450.8,48.6L447.3,56.5L444.6,64.8L444.1,67.4Z " data-id="GM.MC" data-name="Central River" id="GM.MC"/>
utf-8utf-8<path d="M785.9,114.5L780.8,118.1L777.8,122.0L775.4,129.9L772.7,134.0L766.8,138.4L774.6,157.6L776.5,159.0L771.7,162.1L768.9,160.6L764.2,164.5L756.6,182.7L755.1,187.6L758.1,190.7L762.4,193.5L767.2,195.1L777.6,195.5L782.0,196.9L785.6,201.2L788.1,205.0L791.2,208.1L794.6,210.8L806.6,217.8L815.2,220.5L824.2,221.3L843.0,219.5L860.9,223.2L870.5,222.9L877.8,218.9L893.9,205.5L898.8,203.0L904.6,203.1L918.9,197.3L932.2,197.2L945.5,193.2L970.6,190.8L987.1,182.8L996.7,166.8L998.3,147.4L990.6,129.6L987.3,126.5L979.8,121.6L975.2,115.5L973.2,108.4L971.5,105.1L966.1,100.0L958.2,95.5L949.8,92.3L942.9,90.9L938.5,91.7L931.7,96.1L927.8,98.1L924.3,98.7L918.6,98.1L915.0,98.3L908.3,100.1L892.8,108.9L873.7,113.7L867.4,116.7L848.8,129.5L829.3,137.2L823.6,138.8L817.5,137.8L809.6,133.7L785.9,114.5Z " data-id="GM.UR" data-name="Upper River" id="GM.UR"/>
utf-8utf-8<path d="M75.3,153.3L70.3,148.2L74.2,143.7L79.6,143.3L83.3,142.2L81.6,135.4L78.1,131.3L73.1,129.0L67.2,129.3L61.3,132.8L55.1,128.8L53.3,126.1L52.7,122.2L44.1,130.1L24.3,156.7L33.0,170.1L43.2,182.0L56.7,183.2L71.5,171.3L79.5,164.2L75.3,153.3Z " data-id="GM.BJ" data-name="Banjul" id="GM.BJ"/>
utf-8utf-8<path d="M510.4,122.2L506.9,137.7L495.0,143.1L480.5,142.1L469.1,137.9L465.7,134.1L462.7,128.9L458.7,124.2L452.5,122.2L445.9,124.6L442.4,125.2L439.0,123.5L436.1,120.9L432.4,118.6L428.3,117.1L424.3,117.3L421.1,119.8L415.7,129.0L412.8,132.8L409.0,135.7L405.8,137.2L402.3,137.8L397.7,137.9L394.5,136.7L389.9,131.2L386.6,129.9L383.5,131.0L377.3,135.9L374.1,137.9L354.7,144.6L347.9,145.4L326.6,142.6L319.4,143.1L315.2,147.1L312.7,148.2L309.6,148.9L302.5,148.2L296.2,148.9L278.4,153.6L232.0,150.8L226.7,148.4L223.5,147.7L222.0,149.5L220.9,153.5L218.4,156.5L204.9,168.8L202.1,173.5L200.9,180.4L201.6,186.5L202.6,188.8L206.3,191.3L207.0,194.9L207.1,199.1L208.4,209.5L209.8,211.7L213.0,209.1L215.7,206.2L218.8,204.1L222.2,202.8L225.8,202.4L230.5,199.8L236.8,200.5L240.1,209.2L243.4,212.7L245.9,213.9L247.9,213.8L251.4,208.2L254.8,206.5L257.3,206.8L260.4,208.1L273.9,206.4L282.9,203.9L285.5,204.0L333.8,215.7L334.7,188.9L336.2,183.6L340.0,181.3L363.1,178.8L378.1,173.5L382.2,173.4L404.5,175.8L409.9,175.2L419.9,171.5L427.6,166.8L435.4,163.6L445.7,164.1L481.7,172.7L493.9,172.7L504.7,170.4L515.6,166.0L525.2,158.9L532.2,149.0L534.3,138.6L536.0,115.2L540.7,106.9L548.3,98.2L545.6,97.1L543.0,97.8L539.0,101.1L530.7,105.4L509.6,119.0L508.7,122.2L510.4,122.2Z " data-id="GM.LR" data-name="Lower River" id="GM.LR"/>
utf-8utf-8<path d="M333.8,215.7L285.5,204.0L282.9,203.9L273.9,206.4L260.4,208.1L257.3,206.8L254.8,206.5L251.4,208.2L247.9,213.8L245.9,213.9L243.4,212.7L240.1,209.2L236.8,200.5L230.5,199.8L225.8,202.4L225.8,205.2L214.4,212.0L206.3,214.7L200.4,212.9L199.6,206.2L201.2,197.6L199.9,190.1L190.8,186.9L184.1,188.9L171.8,198.0L165.6,200.0L160.2,203.0L155.6,208.2L151.8,209.9L148.6,202.4L144.6,204.6L140.0,205.4L130.3,205.2L130.2,207.8L134.9,207.3L138.4,208.7L140.6,211.9L141.4,216.6L142.7,217.7L148.6,224.5L150.5,228.3L146.2,224.7L143.2,224.8L136.6,230.9L138.7,225.7L138.7,218.9L136.9,213.0L133.7,210.5L127.0,209.8L123.6,208.0L121.1,205.4L116.8,202.4L112.1,200.8L95.4,200.0L92.7,197.9L80.8,181.7L81.7,175.4L79.5,164.2L71.5,171.3L56.7,183.2L43.2,182.0L33.0,170.1L24.3,156.7L20.4,160.0L16.1,162.6L12.0,163.7L8.5,166.1L4.8,177.7L1.7,181.7L4.7,190.3L5.9,192.3L3.2,198.3L4.6,203.3L10.1,210.5L11.9,215.6L12.6,220.5L11.4,238.1L11.6,242.6L17.7,261.3L18.2,267.0L14.4,275.5L15.1,278.2L20.2,280.1L25.2,285.0L25.8,276.3L27.1,272.1L29.2,269.0L34.6,263.2L35.7,259.6L40.7,250.4L52.3,247.5L66.7,247.6L330.2,250.3L332.5,248.5L333.5,221.6L333.8,215.7Z " data-id="GM.WE" data-name="West Coast" id="GM.WE"/>
utf-8utf-8<path d="M443.2,72.5L442.3,87.5L437.1,89.4L112.8,88.1L94.2,91.7L96.0,96.7L96.3,102.6L93.2,118.5L93.1,126.2L93.7,127.6L97.0,129.9L99.0,134.1L105.0,139.2L107.0,144.7L110.1,152.1L110.8,157.4L110.0,161.3L105.8,170.7L103.7,174.0L114.4,174.7L139.9,181.7L147.0,182.4L158.5,181.9L169.8,180.1L176.4,176.4L171.7,174.0L171.7,171.4L176.5,169.1L174.6,164.8L175.3,161.7L181.0,156.0L182.3,160.3L180.6,168.6L180.7,171.4L183.5,173.7L186.0,172.6L188.5,170.3L191.1,169.1L194.3,166.5L208.4,150.8L217.8,143.1L223.9,139.4L230.1,137.9L236.6,139.0L247.0,143.2L353.1,134.0L365.0,129.9L379.7,121.2L385.7,119.7L391.4,120.4L400.3,125.1L405.9,124.8L409.3,122.5L414.2,115.1L417.6,112.1L424.2,110.1L428.5,111.1L432.2,113.3L436.8,114.5L442.7,118.9L445.6,119.7L451.2,117.6L454.1,116.9L457.0,118.5L464.9,126.5L470.3,130.9L475.0,132.8L480.1,133.6L491.4,137.1L497.6,137.9L501.3,136.5L504.8,132.9L507.3,127.9L508.0,122.2L508.1,122.2L488.8,106.4L485.1,95.8L486.0,78.4L487.1,73.1L483.3,70.7L471.9,70.0L469.4,70.3L463.6,70.1L448.7,67.6L444.1,67.4L443.2,72.5Z " data-id="GM.NB" data-name="North Bank" id="GM.NB"/>
utf-8</g>
</svg>
