<?xml version="1.0" ?>
<!DOCTYPE svg
  PUBLIC '-//W3C//DTD SVG 1.1//EN'
  'http://www.w3.org/Graphics/SVG/1.1/DTD/svg11.dtd'>
<svg enable_background="new 0 0 1000 843" height="843px" pretty_print="True" style="stroke-linejoin: round; stroke:#000; fill: none;" version="1.1" viewBox="0 0 1000 843" width="1000px" xmlns="http://www.w3.org/2000/svg" xmlns:xlink="http://www.w3.org/1999/xlink">
utf-8<defs>
utf-8utf-8<style type="text/css">
<![CDATA[path { fill-rule: evenodd; }]]>utf-8utf-8</style>
utf-8</defs>
utf-8<metadata>
utf-8utf-8<views>
utf-8utf-8utf-8<view h="843.954609884" padding="0" w="1000">
utf-8utf-8utf-8utf-8<proj flip="auto" id="robinson" lon0="-8.37066004425"/>
utf-8utf-8utf-8utf-8<bbox h="91.94" w="109.07" x="-222.19" y="-212.51"/>
utf-8utf-8utf-8</view>
utf-8utf-8</views>
utf-8</metadata>
utf-8<g class="" id="provinces">
utf-8utf-8<path d="M945.1,503.0L934.5,502.5L926.0,506.9L917.9,511.7L911.4,512.6L902.5,508.2L896.8,506.0L889.9,505.6L884.1,507.8L882.9,513.9L878.3,515.6L873.6,522.6L870.5,529.2L864.3,534.1L858.2,545.7L856.0,553.0L845.3,558.5L834.9,560.7L829.1,563.8L823.3,569.9L823.3,603.1L825.3,610.0L831.7,620.2L836.1,633.1L838.1,646.5L835.6,656.6L832.7,665.4L830.6,671.8L842.4,668.6L854.2,662.6L865.6,661.7L874.1,664.0L879.4,670.5L881.0,676.0L889.1,676.9L893.5,680.6L895.6,684.3L903.7,683.8L915.9,687.5L925.6,696.7L938.5,710.1L944.4,714.4L944.2,713.1L946.2,713.2L951.9,712.1L956.2,715.1L958.6,715.3L956.2,708.5L954.0,705.7L951.4,704.0L950.6,699.5L951.5,694.9L953.2,689.3L951.5,689.4L943.3,692.5L942.1,692.7L928.9,688.2L917.7,679.8L917.9,678.2L920.1,675.6L920.3,668.1L922.0,659.3L921.8,656.2L919.4,650.9L920.2,648.0L926.8,642.1L928.7,641.8L933.5,642.9L936.3,642.6L940.8,640.6L944.7,640.8L946.1,642.2L951.7,642.8L959.8,641.7L961.4,643.2L964.1,649.5L965.6,650.9L972.0,653.0L974.3,651.8L974.2,647.1L974.7,644.8L977.7,644.2L980.5,648.6L984.7,658.3L987.8,660.4L991.5,661.0L999.4,660.0L996.6,653.5L995.8,650.2L997.2,642.7L997.2,640.0L995.6,633.7L995.3,630.4L995.6,624.5L994.0,620.3L990.2,617.5L989.0,615.8L985.8,609.2L979.7,601.9L976.9,602.8L968.8,600.0L965.8,599.6L959.6,597.5L958.3,592.8L960.8,579.5L961.5,571.9L962.1,568.3L965.5,562.2L977.7,555.2L986.2,554.3L986.8,550.0L981.2,546.4L976.8,542.1L974.9,538.2L970.8,538.9L963.9,535.8L963.8,530.2L968.7,516.9L969.2,513.3L972.8,501.1L972.1,499.8L966.5,499.8L963.7,500.4L958.5,503.7L955.7,504.9L947.3,504.3L945.1,503.0Z " data-id="GN.BE" data-name="Beyla" id="GN.BE"/>
utf-8utf-8<path d="M183.4,299.6L180.5,298.4L173.2,296.7L167.5,299.6L166.3,304.4L155.8,306.8L147.9,311.2L141.9,312.1L139.4,307.8L126.6,307.8L118.1,315.2L108.7,318.5L91.2,319.4L83.9,323.1L73.5,332.6L72.2,334.5L71.5,338.0L71.7,345.2L73.1,348.5L81.4,358.2L83.6,361.8L83.6,363.8L82.5,368.7L82.9,375.9L84.3,377.6L87.1,374.5L88.9,375.5L94.5,374.5L97.8,375.8L105.8,384.1L108.8,386.0L110.9,382.4L112.9,383.6L111.0,386.6L111.4,388.9L113.7,393.0L115.1,394.2L118.2,393.2L120.6,390.6L120.3,387.2L126.1,385.2L126.7,383.0L128.6,385.5L126.6,388.3L123.2,391.1L121.0,393.6L120.9,396.6L122.1,399.6L124.4,402.0L127.5,403.0L129.8,402.7L133.1,398.2L132.9,391.1L139.2,385.6L145.3,379.8L141.6,386.9L139.3,390.0L136.4,391.4L136.0,392.4L137.5,394.1L139.5,394.9L141.4,392.6L143.2,394.4L146.0,398.8L142.4,396.0L138.9,398.3L136.7,402.8L137.2,406.6L139.2,408.5L144.1,410.3L146.7,413.5L152.3,415.6L154.7,420.3L160.2,424.0L162.5,426.4L166.0,431.9L168.0,432.7L173.8,433.5L178.6,431.5L180.9,429.4L183.6,425.1L185.1,424.1L186.3,417.6L186.7,418.1L182.2,413.2L176.9,413.1L174.0,412.1L158.8,397.5L156.9,392.6L162.9,382.0L166.8,373.8L169.9,365.0L168.7,356.3L171.2,349.8L178.6,340.6L181.9,335.1L187.6,332.8L196.6,325.4L198.5,300.7L183.4,299.6Z " data-id="GN.BF" data-name="Boffa" id="GN.BF"/>
utf-8utf-8<path d="M139.9,158.1L131.8,159.0L129.6,158.4L126.0,155.5L121.6,155.7L110.3,154.8L107.4,155.1L106.3,156.4L103.8,161.7L102.0,163.2L77.3,178.2L71.8,179.3L60.6,177.9L55.0,178.5L51.7,180.5L49.2,183.6L35.6,205.5L33.5,211.3L30.6,223.4L17.4,251.5L12.8,257.5L8.9,261.9L9.7,264.0L7.9,267.8L3.7,269.9L1.5,272.8L0.6,275.6L0.8,278.6L2.1,282.0L4.3,285.5L7.1,288.8L9.5,290.3L14.4,291.2L16.8,292.5L18.7,288.8L18.1,287.1L15.0,284.6L15.8,275.7L16.1,276.1L22.3,271.1L23.6,268.3L23.2,265.8L21.6,263.8L17.2,259.9L20.9,260.7L23.7,263.1L25.4,258.0L25.1,255.2L22.8,252.5L26.1,252.3L28.6,261.1L32.8,261.9L37.3,254.7L38.6,255.1L39.4,257.0L38.5,259.9L42.2,258.8L44.5,259.8L46.6,258.6L48.1,256.1L54.4,247.2L55.4,249.6L57.1,251.5L54.9,252.7L52.3,256.1L50.0,256.8L47.9,262.1L46.3,263.1L39.2,265.0L37.5,266.2L35.9,270.5L36.7,272.3L39.2,272.5L37.5,276.4L38.3,277.8L37.6,279.1L37.2,284.1L38.3,284.1L42.1,282.1L44.0,278.7L46.5,276.6L45.3,285.2L44.6,287.2L40.8,292.6L39.0,292.5L39.2,296.1L42.3,300.1L43.6,303.1L45.4,301.4L47.1,295.6L48.7,293.0L54.8,287.7L56.7,285.1L58.5,286.1L57.1,288.8L51.9,294.4L50.8,297.0L49.1,303.1L50.9,305.1L53.1,304.7L50.8,309.9L51.6,311.7L53.5,311.0L57.3,307.2L61.2,302.0L63.1,298.7L64.7,293.7L66.6,289.6L69.0,285.8L76.1,279.9L76.3,274.5L79.0,273.7L77.6,281.1L76.6,283.2L74.7,284.1L71.3,291.4L69.5,298.3L66.8,300.8L66.5,303.1L64.2,302.2L63.1,304.4L61.4,312.9L61.2,315.7L62.2,317.7L65.5,317.8L59.6,323.5L58.1,322.9L56.7,327.2L56.4,334.6L57.9,337.6L65.3,337.4L71.4,332.7L73.6,332.5L73.5,332.6L83.9,323.1L91.2,319.4L108.7,318.5L118.1,315.2L126.6,307.8L132.7,298.1L140.9,288.8L147.8,278.2L155.8,278.8L165.3,273.9L168.0,265.5L170.2,259.7L171.6,252.8L174.6,247.6L177.8,245.1L179.2,238.7L179.0,230.9L176.1,227.5L176.2,223.0L172.4,217.8L168.8,216.7L168.2,215.2L170.8,214.7L173.3,212.1L168.8,204.0L163.1,202.7L159.5,199.0L158.4,191.1L156.5,182.4L151.7,178.2L144.8,178.2L141.2,175.0L141.2,170.4L144.5,165.8L145.8,159.1L139.9,158.1Z " data-id="GN.BK" data-name="Boke" id="GN.BK"/>
utf-8utf-8<path d="M188.5,475.9L184.0,483.0L181.5,484.3L181.7,486.4L184.0,485.1L187.8,483.8L192.5,480.7L188.5,475.9L188.5,475.9L188.5,475.9Z " data-id="GN.CK" data-name="Conakry" id="GN.CK"/>
utf-8utf-8<path d="M267.0,471.2L265.0,464.2L259.0,455.5L253.3,453.2L248.1,449.5L246.5,443.0L249.4,438.4L251.5,433.3L250.4,419.9L247.6,416.3L242.0,410.7L237.9,410.7L226.9,411.6L220.4,417.6L215.9,425.9L214.1,437.5L215.7,446.2L215.6,451.3L212.3,458.2L208.2,464.2L208.9,475.3L209.7,483.5L212.7,476.7L213.7,476.7L217.8,473.0L222.3,472.5L229.6,469.8L236.6,466.1L242.2,468.8L247.4,474.8L251.5,477.6L261.6,478.5L267.3,477.6L267.0,471.2Z " data-id="GN.CO" data-name="Coyah" id="GN.CO"/>
utf-8utf-8<path d="M601.8,305.3L598.5,299.7L595.1,297.9L591.8,294.6L589.8,294.4L587.4,292.8L569.4,286.4L567.7,285.1L565.1,280.9L564.9,279.4L565.9,276.7L569.4,273.9L574.2,271.8L575.1,270.9L581.5,256.8L582.9,256.3L589.4,250.0L590.4,248.4L592.7,241.6L591.6,239.7L584.1,241.0L574.0,243.3L563.0,252.0L547.9,263.1L540.1,265.4L532.5,262.2L525.3,252.9L495.3,252.5L494.4,247.1L485.4,247.1L472.8,259.0L470.0,262.3L471.7,272.5L471.8,277.5L470.8,284.7L472.3,286.2L476.4,288.3L476.4,297.6L474.1,353.3L474.1,373.3L473.1,381.5L470.1,386.4L468.3,400.0L470.7,411.4L484.6,411.3L489.4,411.3L493.1,401.0L497.3,384.9L499.7,349.8L509.8,346.1L517.2,339.2L529.0,337.8L536.3,330.4L548.2,317.1L558.0,313.4L566.9,309.7L571.8,311.5L576.6,317.1L587.5,318.0L597.7,316.6L601.8,311.1L605.1,308.8L601.8,305.3Z " data-id="GN.DB" data-name="Dabola" id="GN.DB"/>
utf-8utf-8<path d="M408.5,212.3L405.4,210.4L404.4,210.0L402.8,210.5L400.5,212.0L398.8,218.8L395.9,223.4L395.4,230.8L392.1,236.3L393.2,242.3L396.9,245.6L398.4,252.0L381.8,252.5L376.9,255.7L370.8,258.9L364.7,264.0L362.1,272.3L356.8,282.0L349.5,283.9L341.7,291.2L332.7,298.2L329.0,306.9L328.1,329.3L333.5,327.0L338.7,324.0L345.1,316.9L346.7,315.8L349.4,316.1L349.6,320.1L348.9,324.8L349.6,326.1L357.0,329.9L358.0,334.2L359.7,335.1L367.3,330.0L373.8,324.0L378.7,321.2L389.3,319.4L392.6,312.9L402.4,301.8L412.2,293.5L423.2,290.8L434.9,289.9L440.2,287.1L446.0,272.8L445.3,261.7L441.7,256.6L440.2,256.9L434.4,257.0L430.4,254.2L429.5,251.7L428.9,246.5L429.7,235.2L428.7,230.3L424.5,226.1L419.8,223.8L417.3,219.0L416.2,212.9L412.9,213.1L410.3,212.3L409.4,212.3L408.5,212.3Z " data-id="GN.DL" data-name="Dalaba" id="GN.DL"/>
utf-8utf-8<path d="M698.1,90.0L692.9,88.7L679.7,80.7L674.7,79.8L671.8,77.3L663.6,76.0L658.9,73.5L654.5,72.5L651.9,70.0L645.2,73.2L644.3,72.4L640.1,75.6L640.2,77.8L636.4,75.7L634.7,77.0L627.7,84.9L621.3,84.3L618.8,85.3L618.7,86.7L619.7,89.8L618.0,91.1L618.2,95.3L612.8,98.9L611.3,100.8L612.2,104.1L604.8,108.4L603.8,109.9L600.5,117.5L597.1,120.0L591.6,120.2L587.7,115.7L582.3,104.0L578.8,99.9L578.1,98.3L580.1,92.9L579.3,88.7L576.8,86.4L573.7,84.8L570.6,82.1L565.3,72.7L562.9,70.7L559.6,69.7L556.9,69.8L551.0,72.0L546.1,72.3L545.1,73.9L543.2,80.4L541.7,82.4L536.5,86.9L534.6,90.3L531.5,91.5L530.6,95.9L529.1,98.9L528.0,100.2L528.3,107.8L530.4,113.4L536.6,120.1L536.4,136.0L534.8,139.4L533.5,156.0L523.1,170.7L522.7,173.4L525.7,177.4L533.5,181.7L534.2,182.8L530.7,186.9L528.7,188.3L525.6,191.8L520.8,193.6L516.0,197.8L510.5,206.9L515.2,213.6L518.1,221.9L518.0,228.7L509.4,235.4L494.4,247.1L495.3,252.5L525.3,252.9L532.5,262.2L540.1,265.4L547.9,263.1L563.0,252.0L574.0,243.3L584.1,241.0L591.6,239.7L591.7,228.5L592.8,221.9L599.0,220.9L605.9,224.9L608.1,229.1L612.4,230.2L624.9,230.2L635.9,229.6L640.3,225.2L640.3,215.6L632.9,195.7L634.8,189.1L643.5,185.3L654.1,187.5L667.9,199.5L682.8,199.0L683.5,173.3L678.3,158.5L671.7,150.3L666.9,145.4L659.3,131.8L662.7,127.2L676.3,119.1L688.4,108.8L693.7,100.6L702.7,94.1L698.1,90.0Z " data-id="GN.DI" data-name="Dinguiraye" id="GN.DI"/>
utf-8utf-8<path d="M247.3,404.7L248.6,400.6L252.7,396.4L259.2,393.7L259.3,381.7L262.6,378.0L265.0,373.4L264.3,368.3L262.3,365.0L262.5,348.4L252.0,349.5L240.8,352.7L231.0,361.6L225.3,370.9L215.0,373.8L189.0,367.5L178.4,365.0L169.9,365.0L166.8,373.8L162.9,382.0L156.9,392.6L158.8,397.5L174.0,412.1L176.9,413.1L182.2,413.2L186.7,418.1L187.4,418.7L187.8,423.8L185.6,428.8L179.9,436.7L178.5,441.2L178.8,446.2L181.2,449.8L186.2,450.4L190.4,448.2L191.8,444.7L191.4,440.4L190.0,435.6L191.9,434.6L192.3,436.4L198.1,444.3L199.4,445.2L203.9,443.0L203.2,445.7L199.3,448.1L198.0,450.8L196.1,451.6L195.4,462.3L195.0,464.7L192.9,468.3L191.3,472.4L188.5,475.9L188.5,475.9L192.5,480.7L192.5,480.7L195.8,478.6L199.9,476.7L200.3,479.7L201.6,483.1L203.5,485.9L205.4,487.2L207.9,486.4L209.7,483.5L208.9,475.3L208.2,464.2L212.3,458.2L215.6,451.3L215.7,446.2L214.1,437.5L215.9,425.9L220.4,417.6L226.9,411.6L237.9,410.7L242.0,410.7L247.3,404.7Z " data-id="GN.DU" data-name="Dubréka" id="GN.DU"/>
utf-8utf-8<path d="M629.3,466.6L629.7,460.5L628.9,450.4L630.2,448.7L635.4,444.6L634.2,440.7L635.4,433.4L639.2,432.2L641.1,428.8L641.4,425.8L639.1,420.8L638.8,418.0L637.2,412.2L641.3,402.6L641.2,399.2L649.2,393.0L652.2,388.0L655.6,384.7L656.8,382.2L654.4,373.4L654.0,369.9L655.2,360.3L658.0,361.1L661.5,360.6L662.5,359.2L667.0,349.2L666.1,343.0L669.0,338.1L668.0,334.3L667.6,330.1L665.9,330.4L666.0,332.9L664.7,336.6L661.5,339.3L658.6,343.0L656.8,338.3L654.0,335.5L653.7,334.1L655.4,332.5L653.6,331.8L650.0,332.0L648.0,331.4L644.6,328.8L639.4,330.2L631.9,329.7L630.5,329.2L626.1,332.8L624.3,330.5L622.2,329.1L616.0,321.5L613.3,319.8L610.3,319.5L608.5,318.3L607.7,312.6L606.9,311.1L605.1,308.8L601.8,311.1L597.7,316.6L587.5,318.0L576.6,317.1L571.8,311.5L566.9,309.7L558.0,313.4L548.2,317.1L536.3,330.4L529.0,337.8L517.2,339.2L509.8,346.1L499.7,349.8L497.3,384.9L493.1,401.0L489.4,411.3L513.2,411.1L516.7,411.5L521.2,413.1L523.1,413.2L524.6,414.7L525.5,418.1L527.3,428.2L528.3,430.0L538.2,437.2L543.7,443.2L548.4,450.0L551.5,456.9L553.1,462.1L557.7,465.8L559.2,471.0L560.1,472.6L563.6,475.3L566.0,482.3L569.4,485.4L568.5,491.4L569.0,494.1L572.5,499.0L574.6,500.5L572.1,503.8L573.7,504.5L581.0,504.9L582.6,507.6L587.4,511.3L593.1,517.0L593.3,518.9L591.3,524.2L591.7,529.6L590.6,531.4L586.3,534.2L583.8,539.0L582.3,545.6L583.3,551.2L588.1,552.8L593.7,552.6L599.0,553.2L602.2,554.3L603.8,555.7L603.9,556.7L606.8,554.9L614.4,549.1L618.4,541.6L619.6,535.6L622.0,529.3L625.7,523.7L631.4,519.1L633.1,504.8L632.0,492.4L629.6,485.9L627.6,479.0L628.2,470.1L629.3,466.6Z " data-id="GN.FA" data-name="Faranah" id="GN.FA"/>
utf-8utf-8<path d="M267.3,477.6L261.6,478.5L251.5,477.6L247.4,474.8L242.2,468.8L236.6,466.1L229.6,469.8L222.3,472.5L217.8,473.0L213.7,476.7L213.4,479.5L212.7,481.9L209.0,488.0L208.9,490.4L209.8,495.0L211.8,498.2L216.3,499.8L221.3,499.4L224.6,496.6L225.6,496.6L224.7,499.8L221.7,504.2L220.8,507.1L220.9,510.0L224.4,516.7L223.4,519.0L228.4,522.2L229.3,520.7L230.7,513.6L232.4,511.4L236.7,510.4L238.4,509.3L238.4,515.6L236.0,513.5L235.1,516.3L235.1,520.9L237.4,525.6L236.6,528.3L236.5,533.7L235.4,534.4L240.9,538.7L242.4,534.3L243.2,530.2L244.5,526.5L247.5,523.0L245.7,529.3L245.7,531.3L243.8,533.9L245.5,535.5L249.4,535.9L257.6,535.6L257.6,536.5L255.1,537.4L250.7,536.4L248.3,536.5L246.0,538.0L241.8,545.0L234.7,553.6L235.3,555.4L238.0,557.7L241.2,555.1L247.2,553.0L250.7,552.3L252.8,552.8L257.9,556.5L261.0,557.7L263.0,557.3L267.2,553.9L272.4,551.1L274.9,549.3L276.7,546.7L281.0,537.6L284.3,535.5L281.8,531.4L282.5,527.0L284.7,522.2L287.5,520.0L290.1,523.1L293.1,521.3L301.2,520.8L303.5,518.6L306.7,512.6L311.0,510.7L310.5,506.9L312.4,504.5L314.7,503.1L316.6,503.8L319.5,499.5L324.3,482.9L324.1,480.8L327.0,478.6L328.9,472.2L332.6,471.8L333.1,470.5L333.3,464.0L326.3,461.5L318.6,457.3L297.5,456.9L289.8,459.2L281.6,464.2L276.3,468.8L273.0,474.4L267.3,477.6Z " data-id="GN.FO" data-name="Forécariah" id="GN.FO"/>
utf-8utf-8<path d="M251.6,343.2L251.3,337.4L254.3,331.5L252.7,318.9L226.4,302.9L198.5,300.7L196.6,325.4L187.6,332.8L181.9,335.1L178.6,340.6L171.2,349.8L168.7,356.3L169.9,365.0L178.4,365.0L189.0,367.5L215.0,373.8L225.3,370.9L231.0,361.6L240.8,352.7L252.0,349.5L251.6,343.2Z " data-id="GN.FR" data-name="Fria" id="GN.FR"/>
utf-8utf-8<path d="M304.5,83.0L301.4,87.4L297.6,90.3L288.8,90.8L286.0,94.4L282.7,96.9L280.9,100.8L254.9,101.0L247.7,98.8L246.6,96.8L246.6,91.6L246.1,89.8L244.4,88.6L242.7,88.8L243.5,93.2L240.5,92.5L237.4,87.3L237.4,82.5L238.8,77.2L237.1,70.1L231.5,64.1L231.2,61.7L233.8,59.2L233.0,57.1L230.2,55.7L227.1,56.0L223.9,60.8L222.4,60.2L218.6,55.8L218.3,57.2L219.5,61.6L214.4,60.1L208.0,60.0L203.8,62.9L195.5,67.4L193.8,67.8L193.7,66.5L190.1,58.5L187.9,62.3L183.9,63.9L174.8,64.1L176.6,60.6L174.3,59.9L170.6,60.8L168.0,62.6L164.7,65.6L156.5,69.8L153.5,73.6L153.1,78.4L152.5,80.1L159.8,82.2L162.3,84.0L166.3,87.9L169.9,89.4L171.6,92.9L174.5,96.6L178.3,98.9L183.0,99.7L184.3,100.4L185.7,103.0L185.9,105.9L184.6,112.1L184.1,118.5L185.9,136.6L185.1,145.9L184.4,148.0L182.2,149.7L178.9,151.2L175.5,151.9L172.8,151.5L172.2,148.2L169.1,146.8L168.7,143.7L165.1,143.6L165.7,145.3L163.2,153.2L160.9,154.8L158.2,154.8L155.3,153.2L148.3,158.1L145.8,159.1L144.5,165.8L141.2,170.4L141.2,175.0L144.8,178.2L151.7,178.2L156.5,182.4L158.4,191.1L159.5,199.0L163.1,202.7L168.8,204.0L173.3,212.1L175.3,210.0L181.6,207.4L186.8,206.5L192.1,207.8L197.2,207.1L200.5,204.1L203.8,202.2L207.8,201.0L219.6,200.7L222.9,201.8L228.8,201.5L234.4,203.4L246.5,206.1L248.7,235.1L251.1,237.1L258.0,236.6L269.9,233.4L276.4,230.6L286.1,231.1L283.4,217.6L288.1,208.3L290.2,200.7L294.6,195.4L306.1,187.3L309.2,184.9L316.7,174.5L319.6,173.1L322.0,171.1L322.4,165.6L321.4,163.4L316.6,161.2L313.4,157.6L308.6,148.7L308.6,146.1L307.7,139.7L307.8,135.9L309.1,128.7L312.4,121.8L312.5,118.8L309.9,114.5L308.9,114.5L304.8,119.1L302.2,118.2L301.6,116.4L306.4,106.8L307.0,104.6L309.4,88.1L308.6,83.3L306.8,79.7L304.5,83.0Z " data-id="GN.GA" data-name="Gaoual" id="GN.GA"/>
utf-8utf-8<path d="M692.4,573.6L686.7,572.8L685.3,573.4L678.3,578.0L674.4,581.2L672.1,582.0L661.3,583.8L658.3,583.8L651.7,578.0L646.2,576.4L632.1,557.5L630.0,556.8L624.4,551.0L625.8,541.4L624.4,538.9L619.6,535.6L618.4,541.6L614.4,549.1L606.8,554.9L603.9,556.7L604.0,557.7L602.0,567.1L601.3,572.5L601.4,583.7L602.8,589.5L602.8,592.4L610.1,602.4L612.8,605.6L618.6,614.3L617.5,617.6L615.6,620.6L613.1,622.6L607.2,623.5L604.6,626.0L602.4,629.2L600.2,633.7L597.2,637.8L596.5,642.8L595.0,643.1L593.0,656.3L591.0,660.0L588.5,663.3L585.3,668.5L583.9,673.5L586.6,676.2L587.6,671.1L590.3,667.8L594.2,666.4L598.6,666.7L604.5,670.5L605.9,670.8L608.4,669.7L613.2,666.2L621.2,657.4L622.9,655.0L626.2,647.5L630.8,642.5L632.9,641.6L637.9,641.1L643.8,643.4L651.0,641.8L652.1,644.4L654.4,642.9L659.0,637.8L663.5,637.1L671.2,639.3L673.2,640.6L674.1,642.8L672.7,650.1L673.3,652.1L675.1,652.8L678.0,652.2L683.4,648.6L688.8,644.0L693.2,641.8L698.8,641.3L700.7,640.8L694.5,611.4L696.2,601.7L700.7,596.6L705.6,593.4L711.7,590.6L713.4,585.6L715.0,579.4L692.4,573.6Z " data-id="GN.GU" data-name="Guéckédou" id="GN.GU"/>
utf-8utf-8<path d="M770.5,295.4L763.6,299.5L758.7,306.5L751.7,318.0L737.0,335.1L730.5,343.4L728.3,366.9L723.3,379.4L723.1,403.3L726.7,410.3L725.4,425.5L720.1,430.1L715.2,437.0L714.7,445.3L709.8,449.0L704.9,456.4L695.1,458.2L690.8,461.3L699.1,472.5L707.1,479.1L717.6,478.4L729.0,480.9L734.6,481.7L745.3,493.6L773.1,492.3L789.7,498.6L790.7,487.8L795.7,466.1L803.1,459.6L816.5,451.8L835.6,450.4L841.7,453.2L844.9,459.2L850.1,460.5L863.9,461.5L877.7,467.9L884.1,474.4L890.6,484.1L891.7,493.8L889.9,505.6L896.8,506.0L902.5,508.2L911.4,512.6L917.9,511.7L926.0,506.9L934.5,502.5L945.1,503.0L942.8,500.3L935.0,487.7L933.4,482.5L933.0,479.0L938.3,434.3L937.7,431.0L934.1,429.7L935.1,427.7L932.4,423.6L931.6,419.4L934.5,418.2L926.3,417.2L919.8,413.9L909.3,409.8L902.4,401.5L898.4,390.9L897.3,383.0L890.8,379.8L877.8,377.0L864.5,374.7L857.6,366.9L856.9,359.5L854.5,350.3L849.7,346.1L839.9,343.8L834.3,341.5L827.8,333.2L826.7,324.5L825.6,308.3L799.3,306.0L792.0,302.3L780.2,299.5L770.5,295.4Z " data-id="GN.KA" data-name="Kankan" id="GN.KA"/>
utf-8utf-8<path d="M891.7,493.8L890.6,484.1L884.1,474.4L877.7,467.9L863.9,461.5L850.1,460.5L844.9,459.2L841.7,453.2L835.6,450.4L816.5,451.8L803.1,459.6L795.7,466.1L790.7,487.8L789.7,498.6L787.3,526.3L776.1,533.9L773.8,550.3L780.3,551.5L782.5,564.2L786.7,576.5L799.0,577.8L823.3,569.9L829.1,563.8L834.9,560.7L845.3,558.5L856.0,553.0L858.2,545.7L864.3,534.1L870.5,529.2L873.6,522.6L878.3,515.6L882.9,513.9L884.1,507.8L889.9,505.6L891.7,493.8Z " data-id="GN.KE" data-name="Kérouané" id="GN.KE"/>
utf-8utf-8<path d="M358.0,334.2L357.0,329.9L349.6,326.1L348.9,324.8L349.6,320.1L349.4,316.1L346.7,315.8L345.1,316.9L338.7,324.0L333.5,327.0L328.1,329.3L325.3,331.4L319.3,338.1L316.6,337.3L307.4,330.5L302.8,330.7L300.8,336.4L294.8,338.3L289.7,340.1L274.7,345.2L262.5,348.4L262.3,365.0L264.3,368.3L265.0,373.4L262.6,378.0L259.3,381.7L259.2,393.7L252.7,396.4L248.6,400.6L247.3,404.7L242.0,410.7L247.6,416.3L250.4,419.9L251.5,433.3L249.4,438.4L246.5,443.0L248.1,449.5L253.3,453.2L259.0,455.5L265.0,464.2L267.0,471.2L267.3,477.6L273.0,474.4L276.3,468.8L281.6,464.2L289.8,459.2L297.5,456.9L318.6,457.3L326.3,461.5L333.3,464.0L333.7,463.5L336.0,459.1L337.2,457.7L341.5,454.8L343.5,448.3L345.4,436.9L345.4,433.3L346.2,431.9L351.1,428.7L357.2,426.2L377.6,421.4L380.7,421.5L385.6,425.8L388.7,428.0L395.8,429.7L400.1,428.7L397.1,422.2L395.6,416.2L396.0,413.2L398.0,408.1L398.6,404.3L398.7,399.1L398.2,395.2L390.1,383.3L384.5,370.9L383.0,368.9L377.8,369.1L374.1,368.1L369.9,368.2L365.9,369.8L360.1,368.0L358.0,358.2L359.7,351.4L360.8,344.1L364.0,339.0L361.8,336.4L359.7,335.1L358.0,334.2Z " data-id="GN.KD" data-name="Kindia" id="GN.KD"/>
utf-8utf-8<path d="M685.8,456.6L673.4,454.0L666.7,454.4L661.9,456.2L656.8,462.6L653.9,467.8L650.5,471.1L648.1,472.2L645.4,472.6L628.2,470.1L627.6,479.0L629.6,485.9L632.0,492.4L633.1,504.8L631.4,519.1L625.7,523.7L622.0,529.3L619.6,535.6L624.4,538.9L625.8,541.4L624.4,551.0L630.0,556.8L632.1,557.5L646.2,576.4L651.7,578.0L658.3,583.8L661.3,583.8L672.1,582.0L674.4,581.2L678.3,578.0L685.3,573.4L686.7,572.8L692.4,573.6L715.0,579.4L738.9,585.5L745.1,584.8L748.3,583.7L762.1,575.0L770.2,565.1L771.8,555.0L773.8,550.3L776.1,533.9L787.3,526.3L789.7,498.6L773.1,492.3L745.3,493.6L734.6,481.7L729.0,480.9L717.6,478.4L707.1,479.1L699.1,472.5L690.8,461.3L685.8,456.6Z " data-id="GN.KS" data-name="Kissidougou" id="GN.KS"/>
utf-8utf-8<path d="M500.2,89.0L497.8,86.8L489.6,82.7L489.1,94.7L482.9,109.0L479.2,120.5L473.0,127.0L468.0,145.0L452.6,145.5L443.6,147.3L438.8,150.1L433.4,151.9L432.0,153.5L429.4,154.0L426.9,153.6L423.3,156.7L414.0,156.5L407.1,155.1L402.7,151.0L394.6,147.8L390.6,145.0L374.8,145.2L377.2,152.8L396.5,184.2L403.0,195.7L407.8,201.3L408.6,206.8L409.4,212.3L410.3,212.3L412.9,213.1L416.2,212.9L417.5,207.7L424.4,202.7L444.0,190.2L468.0,178.7L477.8,170.4L481.6,161.1L492.1,157.5L504.7,154.7L506.0,148.7L505.5,97.2L500.2,89.0Z " data-id="GN.KB" data-name="Koubia" id="GN.KB"/>
utf-8utf-8<path d="M190.1,58.5L193.7,66.5L193.8,67.8L195.5,67.4L203.8,62.9L208.0,60.0L214.4,60.1L219.5,61.6L218.3,57.2L218.6,55.8L222.4,60.2L223.9,60.8L227.1,56.0L230.2,55.7L233.0,57.1L233.8,59.2L231.2,61.7L231.5,64.1L237.1,70.1L238.8,77.2L237.4,82.5L237.4,87.3L240.5,92.5L243.5,93.2L242.7,88.8L244.4,88.6L246.1,89.8L246.6,91.6L246.6,96.8L247.7,98.8L254.9,101.0L280.9,100.8L282.7,96.9L286.0,94.4L288.8,90.8L297.6,90.3L301.4,87.4L304.5,83.0L306.8,79.7L307.1,78.2L310.8,66.6L313.9,64.0L320.9,61.3L330.2,54.5L336.4,51.3L340.8,47.9L340.6,47.9L338.7,47.9L337.4,44.8L333.7,40.0L331.5,38.0L328.9,36.8L326.1,36.5L317.4,37.0L314.6,36.6L313.3,33.8L311.1,32.7L305.9,31.8L304.5,30.3L304.5,27.4L301.2,24.1L296.0,21.0L291.1,21.1L288.7,27.2L288.3,30.2L286.7,31.7L284.5,31.9L282.1,30.8L277.1,30.9L275.2,29.7L273.7,27.2L273.1,24.2L273.6,21.7L275.7,16.5L276.4,10.7L275.9,7.8L274.2,5.8L267.3,5.9L264.9,4.5L263.6,6.2L256.7,5.8L255.4,4.2L249.0,4.6L247.4,3.4L245.0,3.2L241.0,4.1L239.7,5.2L237.1,4.1L230.0,1.8L186.5,0.0L185.2,10.1L185.4,13.5L186.7,17.7L193.3,27.2L194.8,30.3L195.1,33.0L194.6,35.6L191.7,45.2L192.0,49.6L190.8,54.4L190.2,58.4L190.1,58.5Z " data-id="GN.KN" data-name="Koundara" id="GN.KN"/>
utf-8utf-8<path d="M667.9,199.5L654.1,187.5L643.5,185.3L634.8,189.1L632.9,195.7L640.3,215.6L640.3,225.2L635.9,229.6L624.9,230.2L612.4,230.2L608.1,229.1L605.9,224.9L599.0,220.9L592.8,221.9L591.7,228.5L591.6,239.7L592.7,241.6L590.4,248.4L589.4,250.0L582.9,256.3L581.5,256.8L575.1,270.9L574.2,271.8L569.4,273.9L565.9,276.7L564.9,279.4L565.1,280.9L567.7,285.1L569.4,286.4L587.4,292.8L589.8,294.4L591.8,294.6L595.1,297.9L598.5,299.7L601.8,305.3L605.1,308.8L606.9,311.1L607.7,312.6L608.5,318.3L610.3,319.5L613.3,319.8L616.0,321.5L622.2,329.1L624.3,330.5L626.1,332.8L630.5,329.2L631.9,329.7L639.4,330.2L644.6,328.8L648.0,331.4L650.0,332.0L653.6,331.8L655.4,332.5L653.7,334.1L654.0,335.5L656.8,338.3L658.6,343.0L661.5,339.3L664.7,336.6L666.0,332.9L665.9,330.4L667.6,330.1L668.0,334.3L669.0,338.1L666.1,343.0L667.0,349.2L662.5,359.2L661.5,360.6L658.0,361.1L655.2,360.3L654.0,369.9L654.4,373.4L656.8,382.2L655.6,384.7L652.2,388.0L649.2,393.0L641.2,399.2L641.3,402.6L637.2,412.2L638.8,418.0L639.1,420.8L641.4,425.8L641.1,428.8L639.2,432.2L635.4,433.4L634.2,440.7L635.4,444.6L630.2,448.7L628.9,450.4L629.7,460.5L629.3,466.6L628.2,470.1L645.4,472.6L648.1,472.2L650.5,471.1L653.9,467.8L656.8,462.6L661.9,456.2L666.7,454.4L673.4,454.0L685.8,456.6L690.8,461.3L695.1,458.2L704.9,456.4L709.8,449.0L714.7,445.3L715.2,437.0L720.1,430.1L725.4,425.5L726.7,410.3L723.1,403.3L723.3,379.4L728.3,366.9L730.5,343.4L737.0,335.1L751.7,318.0L758.7,306.5L763.6,299.5L770.5,295.4L771.0,288.9L771.8,283.9L774.7,277.4L735.0,277.9L728.1,276.5L717.3,258.9L712.1,255.7L708.9,251.1L707.8,232.2L705.5,216.5L703.5,210.5L696.7,206.4L692.3,200.8L682.8,199.0L667.9,199.5Z " data-id="GN.KO" data-name="Kouroussa" id="GN.KO"/>
utf-8utf-8<path d="M408.6,206.8L407.8,201.3L403.0,195.7L396.5,184.2L377.2,152.8L374.8,145.2L350.1,145.5L349.2,156.1L353.2,160.2L355.1,168.1L355.0,178.2L350.9,182.4L348.8,191.1L346.7,198.0L346.0,211.0L348.3,214.2L349.8,217.9L350.9,222.5L351.4,229.6L353.6,231.9L360.5,234.2L367.4,232.4L382.5,226.8L385.1,216.0L400.5,212.0L402.8,210.5L404.4,210.0L405.4,210.4L408.5,212.3L409.4,212.3L408.6,206.8Z " data-id="GN.LA" data-name="Labé" id="GN.LA"/>
utf-8utf-8<path d="M346.7,198.0L348.8,191.1L350.9,182.4L355.0,178.2L355.1,168.1L353.2,160.2L349.2,156.1L350.1,145.5L308.6,146.1L308.6,148.7L313.4,157.6L316.6,161.2L321.4,163.4L322.4,165.6L322.0,171.1L319.6,173.1L316.7,174.5L309.2,184.9L306.1,187.3L294.6,195.4L290.2,200.7L288.1,208.3L283.4,217.6L286.1,231.1L288.5,239.0L294.0,246.1L298.4,259.1L299.1,259.1L301.7,255.2L306.4,257.2L308.9,248.6L311.5,243.8L315.4,227.6L318.8,220.8L321.2,218.0L328.3,215.1L329.0,213.8L329.0,210.4L332.0,207.6L335.5,208.7L344.2,208.5L346.0,211.0L346.7,198.0Z " data-id="GN.LE" data-name="Lélouma" id="GN.LE"/>
utf-8utf-8<path d="M895.6,684.3L894.7,693.1L893.5,698.6L889.4,702.7L887.3,710.1L882.8,718.4L879.1,727.7L879.0,737.3L881.4,745.7L884.2,754.0L881.4,760.4L876.5,765.5L875.8,771.2L876.6,775.4L879.1,778.9L887.5,785.5L893.7,779.0L897.1,777.0L900.3,781.2L902.9,781.0L907.7,779.4L912.2,780.7L917.3,785.2L922.2,787.6L926.1,782.7L925.8,777.9L926.5,776.2L929.8,771.7L931.3,770.7L931.7,767.3L936.1,761.7L936.7,759.5L937.8,751.9L940.1,749.6L939.6,746.4L935.6,741.8L936.0,735.6L942.8,724.1L944.2,718.1L944.4,714.4L938.5,710.1L925.6,696.7L915.9,687.5L903.7,683.8L895.6,684.3Z " data-id="GN.LO" data-name="Lola" id="GN.LO"/>
utf-8utf-8<path d="M799.0,577.8L786.7,576.5L782.5,564.2L780.3,551.5L773.8,550.3L771.8,555.0L770.2,565.1L762.1,575.0L748.3,583.7L745.1,584.8L738.9,585.5L715.0,579.4L713.4,585.6L711.7,590.6L705.6,593.4L700.7,596.6L696.2,601.7L694.5,611.4L700.7,640.8L701.3,641.1L703.8,642.4L706.3,641.0L709.6,639.9L709.4,636.5L712.0,632.7L711.9,630.8L714.2,631.2L715.6,633.2L716.4,635.8L717.2,643.0L717.8,645.7L721.0,650.7L722.0,644.9L723.6,642.8L726.3,642.8L729.0,644.2L730.7,646.2L731.4,649.5L727.2,654.7L727.0,657.5L734.8,657.3L737.5,654.5L740.3,658.1L747.1,661.4L751.1,664.9L745.6,669.3L746.9,670.6L748.8,675.5L746.5,685.0L746.8,689.1L748.7,690.8L753.3,692.3L753.8,695.9L756.2,707.0L754.4,711.4L754.2,713.2L757.3,709.7L758.7,709.8L761.2,715.2L757.9,725.3L757.6,731.8L758.8,738.1L761.9,744.6L765.4,749.6L766.6,752.2L768.3,754.8L771.2,754.4L773.6,755.3L777.2,746.6L781.9,742.5L791.9,732.4L794.4,726.1L800.5,720.7L803.6,718.6L806.7,713.8L808.9,709.4L811.2,704.9L817.1,700.4L820.0,689.8L826.6,675.5L830.6,671.8L832.7,665.4L835.6,656.6L838.1,646.5L836.1,633.1L831.7,620.2L825.3,610.0L823.3,603.1L823.3,569.9L799.0,577.8Z " data-id="GN.MC" data-name="Macenta" id="GN.MC"/>
utf-8utf-8<path d="M340.8,47.9L336.4,51.3L330.2,54.5L320.9,61.3L313.9,64.0L310.8,66.6L307.1,78.2L306.8,79.7L308.6,83.3L309.4,88.1L307.0,104.6L306.4,106.8L301.6,116.4L302.2,118.2L304.8,119.1L308.9,114.5L309.9,114.5L312.5,118.8L312.4,121.8L309.1,128.7L307.8,135.9L307.7,139.7L308.6,146.1L350.1,145.5L374.8,145.2L390.6,145.0L394.6,147.8L402.7,151.0L407.1,155.1L414.0,156.5L423.3,156.7L426.9,153.6L429.4,154.0L432.0,153.5L433.4,151.9L438.8,150.1L443.6,147.3L452.6,145.5L468.0,145.0L473.0,127.0L479.2,120.5L482.9,109.0L489.1,94.7L489.6,82.7L487.1,80.2L484.7,74.0L486.9,69.5L490.8,65.0L493.4,58.9L493.4,55.4L492.5,49.3L493.2,45.9L495.3,44.6L501.1,44.4L501.1,41.4L497.4,41.2L488.6,37.6L484.1,37.1L472.4,38.1L466.8,39.3L456.4,43.6L451.3,44.5L440.3,44.0L437.5,43.3L429.4,39.5L420.8,43.7L416.2,43.8L408.1,40.7L404.7,40.8L402.3,42.2L397.8,46.7L392.8,49.8L369.9,56.5L367.8,55.2L364.0,48.7L361.6,46.7L355.8,44.4L353.0,43.6L345.8,45.1L341.8,47.6L340.8,47.9Z " data-id="GN.ML" data-name="Mali" id="GN.ML"/>
utf-8utf-8<path d="M509.4,235.4L518.0,228.7L518.1,221.9L515.2,213.6L510.5,206.9L507.7,209.3L505.4,214.1L503.9,215.6L501.7,215.6L498.2,214.2L492.8,217.7L488.0,219.3L486.4,222.4L486.0,227.8L483.8,231.0L475.2,236.4L474.3,238.4L464.2,250.4L461.9,252.2L457.4,253.1L451.5,253.6L445.5,254.7L441.7,256.6L445.3,261.7L446.0,272.8L440.2,287.1L434.9,289.9L423.2,290.8L412.2,293.5L402.4,301.8L392.6,312.9L389.3,319.4L378.7,321.2L373.8,324.0L367.3,330.0L359.7,335.1L361.8,336.4L364.0,339.0L360.8,344.1L359.7,351.4L358.0,358.2L360.1,368.0L365.9,369.8L369.9,368.2L374.1,368.1L377.8,369.1L383.0,368.9L384.5,370.9L390.1,383.3L398.2,395.2L398.7,399.1L398.6,404.3L398.0,408.1L396.0,413.2L395.6,416.2L397.1,422.2L400.1,428.7L425.5,422.4L426.4,421.0L427.2,411.6L470.7,411.4L468.3,400.0L470.1,386.4L473.1,381.5L474.1,373.3L474.1,353.3L476.4,297.6L476.4,288.3L472.3,286.2L470.8,284.7L471.8,277.5L471.7,272.5L470.0,262.3L472.8,259.0L485.4,247.1L494.4,247.1L509.4,235.4Z " data-id="GN.MM" data-name="Mamou" id="GN.MM"/>
utf-8utf-8<path d="M858.8,157.2L856.0,161.3L853.3,163.3L851.7,167.0L850.5,171.3L847.2,176.1L841.4,191.1L838.5,205.0L836.8,221.6L831.8,236.8L824.4,244.6L811.8,254.3L800.8,259.4L789.0,264.0L778.8,272.3L774.7,277.4L771.8,283.9L771.0,288.9L770.5,295.4L780.2,299.5L792.0,302.3L799.3,306.0L825.6,308.3L826.7,324.5L827.8,333.2L834.3,341.5L839.9,343.8L849.7,346.1L854.5,350.3L856.9,359.5L857.6,366.9L864.5,374.7L877.8,377.0L890.8,379.8L897.3,383.0L898.4,390.9L902.4,401.5L909.3,409.8L919.8,413.9L926.3,417.2L934.5,418.2L936.2,416.7L936.7,415.2L933.7,412.8L935.2,409.0L937.9,404.8L940.5,402.2L947.4,399.3L950.5,397.3L953.1,393.6L955.3,387.4L956.7,385.6L959.6,378.3L960.4,374.7L960.1,370.7L957.9,363.4L955.9,360.1L953.3,358.4L946.0,358.0L942.5,357.3L939.9,355.2L939.1,353.2L938.6,347.3L937.2,344.9L930.0,347.0L927.1,346.9L924.6,345.5L921.3,338.4L917.2,332.0L915.7,328.0L913.8,297.6L913.2,294.9L909.7,293.3L910.0,290.1L912.9,281.6L915.0,276.2L914.9,260.3L914.1,256.8L912.0,253.3L909.3,250.3L906.3,248.6L904.7,248.7L900.7,250.5L895.6,249.7L892.8,249.8L890.2,248.9L887.9,248.8L884.3,257.1L883.0,259.4L880.6,261.3L878.4,262.1L871.3,261.9L868.6,262.2L864.2,264.3L862.1,262.7L861.5,260.3L864.4,253.1L870.7,246.0L872.1,242.9L871.9,238.2L873.2,236.4L878.2,235.1L879.4,232.7L880.2,227.3L882.8,223.9L885.6,222.6L889.3,220.0L888.5,217.7L889.9,214.3L891.2,213.2L901.5,214.7L904.0,213.7L905.6,211.7L906.4,207.7L905.0,207.0L902.5,207.5L900.0,207.0L899.0,204.7L900.6,202.7L905.8,200.5L902.8,197.7L898.8,195.5L890.7,192.7L886.9,192.6L885.4,191.9L884.3,189.7L882.5,181.7L879.0,184.7L875.4,184.5L868.0,180.7L864.0,172.5L863.5,169.7L860.6,158.7L858.8,157.2Z " data-id="GN.MD" data-name="Mandiana" id="GN.MD"/>
utf-8utf-8<path d="M893.5,680.6L889.1,676.9L881.0,676.0L879.4,670.5L874.1,664.0L865.6,661.7L854.2,662.6L842.4,668.6L830.6,671.8L826.6,675.5L820.0,689.8L817.1,700.4L811.2,704.9L808.9,709.4L816.3,715.6L819.2,723.1L820.6,734.7L826.4,747.2L830.0,759.7L833.6,768.9L843.9,773.9L854.8,775.6L855.8,772.5L859.3,767.6L860.4,764.5L876.5,765.5L881.4,760.4L884.2,754.0L881.4,745.7L879.0,737.3L879.1,727.7L882.8,718.4L887.3,710.1L889.4,702.7L893.5,698.6L894.7,693.1L895.6,684.3L893.5,680.6Z " data-id="GN.NZ" data-name="Nzérékoré" id="GN.NZ"/>
utf-8utf-8<path d="M344.2,208.5L335.5,208.7L332.0,207.6L329.0,210.4L329.0,213.8L328.3,215.1L321.2,218.0L318.8,220.8L315.4,227.6L311.5,243.8L308.9,248.6L306.4,257.2L301.7,255.2L299.1,259.1L298.4,259.1L297.7,259.4L292.7,263.1L290.8,270.5L288.0,273.8L288.4,282.4L286.5,285.7L287.5,287.4L288.0,294.3L291.8,299.4L290.8,304.9L289.0,309.2L290.2,310.3L288.5,314.8L286.1,317.4L285.9,320.7L287.0,322.5L291.5,327.2L294.8,338.3L300.8,336.4L302.8,330.7L307.4,330.5L316.6,337.3L319.3,338.1L325.3,331.4L328.1,329.3L329.0,306.9L332.7,298.2L341.7,291.2L349.5,283.9L356.8,282.0L362.1,272.3L364.7,264.0L370.8,258.9L376.9,255.7L381.8,252.5L398.4,252.0L396.9,245.6L393.2,242.3L392.1,236.3L395.4,230.8L395.9,223.4L398.8,218.8L400.5,212.0L385.1,216.0L382.5,226.8L367.4,232.4L360.5,234.2L353.6,231.9L351.4,229.6L350.9,222.5L349.8,217.9L348.3,214.2L346.0,211.0L344.2,208.5Z " data-id="GN.PI" data-name="Pita" id="GN.PI"/>
utf-8utf-8<path d="M702.7,94.1L693.7,100.6L688.4,108.8L676.3,119.1L662.7,127.2L659.3,131.8L666.9,145.4L671.7,150.3L678.3,158.5L683.5,173.3L682.8,199.0L692.3,200.8L696.7,206.4L703.5,210.5L705.5,216.5L707.8,232.2L708.9,251.1L712.1,255.7L717.3,258.9L728.1,276.5L735.0,277.9L774.7,277.4L778.8,272.3L789.0,264.0L800.8,259.4L811.8,254.3L824.4,244.6L831.8,236.8L836.8,221.6L838.5,205.0L841.4,191.1L847.2,176.1L850.5,171.3L851.7,167.0L853.3,163.3L856.0,161.3L858.8,157.2L856.9,157.7L854.7,158.9L851.9,159.3L845.1,155.7L842.5,155.9L849.6,116.7L849.5,114.9L847.2,110.2L847.2,104.1L846.7,101.5L844.2,99.1L841.4,98.5L835.4,98.7L832.9,96.4L832.4,93.5L833.0,90.2L835.0,84.2L835.2,80.7L834.2,77.3L832.4,74.6L830.4,73.3L826.1,74.6L823.0,67.3L823.2,63.3L826.5,57.0L827.7,53.6L827.5,50.2L826.1,46.8L823.7,43.9L803.1,31.9L797.4,29.8L787.2,27.4L783.4,29.1L778.0,27.2L775.7,29.0L769.3,30.7L767.4,33.5L772.4,40.3L776.1,42.5L777.1,46.5L781.2,50.4L780.6,53.3L779.4,55.8L777.6,56.3L778.0,60.0L777.3,62.0L774.1,65.5L765.9,63.9L763.5,64.3L758.0,67.2L753.1,71.6L737.9,77.3L733.6,80.4L731.5,82.8L730.6,85.2L730.6,91.0L730.0,92.9L725.0,99.5L717.5,99.3L710.1,94.9L705.1,95.4L702.7,94.1Z " data-id="GN.SI" data-name="Siguiri" id="GN.SI"/>
utf-8utf-8<path d="M527.1,101.2L522.7,102.0L518.4,104.0L515.8,104.0L507.8,99.4L505.5,97.2L506.0,148.7L504.7,154.7L492.1,157.5L481.6,161.1L477.8,170.4L468.0,178.7L444.0,190.2L424.4,202.7L417.5,207.7L416.2,212.9L417.3,219.0L419.8,223.8L424.5,226.1L428.7,230.3L429.7,235.2L428.9,246.5L429.5,251.7L430.4,254.2L434.4,257.0L440.2,256.9L441.7,256.6L445.5,254.7L451.5,253.6L457.4,253.1L461.9,252.2L464.2,250.4L474.3,238.4L475.2,236.4L483.8,231.0L486.0,227.8L486.4,222.4L488.0,219.3L492.8,217.7L498.2,214.2L501.7,215.6L503.9,215.6L505.4,214.1L507.7,209.3L510.5,206.9L516.0,197.8L520.8,193.6L525.6,191.8L528.7,188.3L530.7,186.9L534.2,182.8L533.5,181.7L525.7,177.4L522.7,173.4L523.1,170.7L533.5,156.0L534.8,139.4L536.4,136.0L536.6,120.1L530.4,113.4L528.3,107.8L528.0,100.2L527.1,101.2Z " data-id="GN.TO" data-name="Tougué" id="GN.TO"/>
utf-8utf-8<path d="M854.8,775.6L843.9,773.9L833.6,768.9L830.0,759.7L826.4,747.2L820.6,734.7L819.2,723.1L816.3,715.6L808.9,709.4L806.7,713.8L803.6,718.6L800.5,720.7L794.4,726.1L791.9,732.4L781.9,742.5L777.2,746.6L773.6,755.3L771.2,754.4L768.3,754.8L770.0,757.2L768.5,761.2L767.1,766.7L767.3,771.8L770.2,775.6L766.7,781.1L766.0,785.2L762.6,790.2L763.1,792.3L762.0,795.6L758.9,800.7L754.8,804.6L752.9,812.0L751.4,813.4L753.1,813.3L757.0,809.0L758.6,806.4L761.1,811.6L762.7,813.1L764.7,809.8L766.2,809.0L766.5,807.3L770.6,806.4L774.6,807.9L779.4,813.7L784.0,812.3L786.1,812.6L788.0,815.7L789.8,825.3L793.2,828.8L797.8,829.5L797.8,832.1L801.5,834.6L802.0,836.7L800.7,842.0L802.2,840.4L807.8,838.7L813.2,834.3L815.6,834.5L820.3,832.7L820.7,830.3L822.8,830.8L823.5,827.2L825.2,828.4L827.8,833.0L829.6,832.7L836.9,829.2L837.8,826.2L836.2,820.5L836.0,817.9L840.3,810.7L845.5,806.5L845.7,803.4L850.8,798.6L853.1,795.8L854.5,793.1L855.0,790.0L854.5,781.0L854.8,775.6Z " data-id="GN.YO" data-name="Yomou" id="GN.YO"/>
utf-8utf-8<path d="M276.4,230.6L269.9,233.4L258.0,236.6L251.1,237.1L248.7,235.1L246.5,206.1L234.4,203.4L228.8,201.5L222.9,201.8L219.6,200.7L207.8,201.0L203.8,202.2L200.5,204.1L197.2,207.1L192.1,207.8L186.8,206.5L181.6,207.4L175.3,210.0L173.3,212.1L170.8,214.7L168.2,215.2L168.8,216.7L172.4,217.8L176.2,223.0L176.1,227.5L179.0,230.9L179.2,238.7L177.8,245.1L174.6,247.6L171.6,252.8L170.2,259.7L168.0,265.5L165.3,273.9L155.8,278.8L147.8,278.2L140.9,288.8L132.7,298.1L126.6,307.8L139.4,307.8L141.9,312.1L147.9,311.2L155.8,306.8L166.3,304.4L167.5,299.6L173.2,296.7L180.5,298.4L183.4,299.6L198.5,300.7L226.4,302.9L252.7,318.9L254.3,331.5L251.3,337.4L251.6,343.2L252.0,349.5L262.5,348.4L274.7,345.2L289.7,340.1L294.8,338.3L291.5,327.2L287.0,322.5L285.9,320.7L286.1,317.4L288.5,314.8L290.2,310.3L289.0,309.2L290.8,304.9L291.8,299.4L288.0,294.3L287.5,287.4L286.5,285.7L288.4,282.4L288.0,273.8L290.8,270.5L292.7,263.1L297.7,259.4L298.4,259.1L294.0,246.1L288.5,239.0L286.1,231.1L276.4,230.6Z " data-id="GN.TE" data-name="Télimélé" id="GN.TE"/>
utf-8</g>
</svg>
