<?xml version="1.0" ?>
<!DOCTYPE svg
  PUBLIC '-//W3C//DTD SVG 1.1//EN'
  'http://www.w3.org/Graphics/SVG/1.1/DTD/svg11.dtd'>
<svg enable_background="new 0 0 1000 1038" height="1038px" pretty_print="True" style="stroke-linejoin: round; stroke:#000; fill: none;" version="1.1" viewBox="0 0 1000 1038" width="1000px" xmlns="http://www.w3.org/2000/svg" xmlns:xlink="http://www.w3.org/1999/xlink">
utf-8<defs>
utf-8utf-8<style type="text/css">
<![CDATA[path { fill-rule: evenodd; }]]>utf-8utf-8</style>
utf-8</defs>
utf-8<metadata>
utf-8utf-8<views>
utf-8utf-8utf-8<view h="1038.8535783" padding="0" w="1000">
utf-8utf-8utf-8utf-8<proj flip="auto" id="robinson" lon0="5.63381425591"/>
utf-8utf-8utf-8utf-8<bbox h="88.0" w="84.79" x="83.12" y="-63.26"/>
utf-8utf-8utf-8</view>
utf-8utf-8</views>
utf-8</metadata>
utf-8<g class="" id="provinces">
utf-8utf-8<path d="M3.4,1036.9L5.8,1034.3L6.5,1029.5L4.2,1025.0L2.4,1026.4L1.7,1028.4L3.0,1033.0L0.5,1034.5L3.4,1036.9Z " data-id="GQ.AN" data-name="Annobón" id="GQ.AN"/>
utf-8utf-8<path d="M855.3,365.7L852.2,364.8L844.8,365.6L842.9,365.3L839.8,361.3L839.5,358.8L842.0,347.4L841.9,342.1L839.2,333.7L837.7,327.3L837.4,317.4L799.0,317.5L800.4,328.4L800.2,337.8L797.4,345.7L790.7,352.3L787.1,358.2L785.5,364.9L784.6,386.3L783.1,390.2L776.9,399.6L766.1,421.1L762.9,426.3L760.6,428.0L754.3,430.0L751.8,433.7L753.9,437.5L766.2,441.3L777.3,445.0L782.5,447.7L786.4,452.6L783.3,459.5L783.3,464.5L784.6,467.7L786.1,469.3L789.6,471.4L790.3,473.5L790.8,486.5L792.3,493.4L793.7,494.9L797.3,495.5L798.3,496.7L798.7,503.6L801.7,513.1L802.6,514.6L806.3,516.0L811.2,512.5L812.7,513.5L814.5,520.2L813.9,522.6L812.4,525.2L804.7,529.8L798.1,531.3L794.8,531.6L783.2,529.9L776.0,533.2L772.0,535.7L769.1,539.4L767.5,543.3L766.4,547.8L771.4,547.0L790.5,547.1L895.0,547.5L934.5,547.7L937.3,543.1L936.3,537.8L932.3,534.8L930.7,531.4L927.8,518.5L926.0,514.5L924.0,511.7L916.8,508.0L914.6,506.3L903.3,492.1L901.9,488.9L901.8,484.1L904.1,477.9L907.4,471.7L914.6,460.7L918.5,452.8L926.3,443.2L928.3,441.5L936.2,437.8L937.3,434.5L934.1,436.0L925.3,434.3L922.5,433.4L921.3,429.8L920.1,429.1L916.3,431.2L914.2,433.9L912.8,434.5L910.5,429.8L906.2,432.6L899.8,431.0L897.8,431.5L892.0,434.8L887.0,436.6L882.4,437.1L877.6,436.5L872.2,434.9L866.5,431.7L866.2,428.5L868.2,424.4L869.1,418.9L868.5,416.7L866.3,412.9L865.9,410.3L866.6,407.4L871.1,399.9L873.2,391.5L873.5,387.0L872.5,383.7L860.8,373.1L856.3,367.0L855.3,365.7Z " data-id="GQ.CS" data-name="Centro Sur" id="GQ.CS"/>
utf-8utf-8<path d="M998.4,392.6L997.9,325.0L996.6,317.4L840.0,317.4L837.4,317.4L837.7,327.3L839.2,333.7L841.9,342.1L842.0,347.4L839.5,358.8L839.8,361.3L842.9,365.3L844.8,365.6L852.2,364.8L855.3,365.7L856.3,367.0L875.7,353.8L882.0,351.0L888.5,352.3L908.6,361.9L916.1,364.0L918.9,363.7L921.3,362.7L927.5,356.3L929.9,355.2L933.3,360.1L938.5,397.1L940.9,401.2L943.8,402.9L953.7,401.8L957.5,401.6L968.6,403.0L972.7,401.5L980.3,400.3L998.5,403.0L998.4,392.6Z " data-id="GQ.KN" data-name="Kié-Ntem" id="GQ.KN"/>
utf-8utf-8<path d="M650.2,570.3L651.6,567.6L649.2,565.3L649.7,563.1L647.6,560.3L645.4,560.3L644.5,566.9L646.6,568.4L648.1,571.1L650.2,570.3Z M766.4,547.8L767.5,543.3L769.1,539.4L772.0,535.7L776.0,533.2L783.2,529.9L794.8,531.6L798.1,531.3L804.7,529.8L812.4,525.2L813.9,522.6L814.5,520.2L812.7,513.5L811.2,512.5L806.3,516.0L802.6,514.6L801.7,513.1L798.7,503.6L798.3,496.7L797.3,495.5L793.7,494.9L792.3,493.4L790.8,486.5L790.3,473.5L789.6,471.4L786.1,469.3L784.6,467.7L783.3,464.5L783.3,459.5L786.4,452.6L782.5,447.7L777.3,445.0L766.2,441.3L753.9,437.5L751.8,433.7L754.3,430.0L760.6,428.0L762.9,426.3L766.1,421.1L776.9,399.6L783.1,390.2L784.6,386.3L785.5,364.9L787.1,358.2L790.7,352.3L797.4,345.7L800.2,337.8L800.4,328.4L799.0,317.5L787.8,317.5L764.3,317.5L760.8,316.8L749.7,310.6L743.6,308.4L739.1,305.0L735.1,301.0L732.9,297.8L732.5,293.8L733.0,289.7L732.9,286.0L730.8,282.7L727.4,285.4L725.2,288.8L728.1,296.7L728.6,301.2L727.2,325.7L725.2,329.1L724.8,331.1L732.1,354.8L732.8,363.0L731.0,369.7L724.8,376.6L721.9,381.8L721.2,386.6L719.1,389.9L717.6,393.9L715.5,396.8L711.9,399.5L709.6,403.6L699.4,415.1L697.6,420.4L700.2,425.9L707.8,434.0L710.9,434.9L718.0,429.4L721.5,429.2L717.7,431.4L714.6,433.6L711.3,435.4L706.7,436.0L703.4,434.7L701.2,432.4L698.9,431.6L695.3,434.7L692.5,440.5L690.5,446.2L690.1,448.3L684.6,456.4L677.7,463.5L672.9,465.8L672.2,469.1L672.7,476.6L671.8,480.2L669.9,484.7L667.5,488.5L662.9,491.7L661.3,495.2L658.5,505.4L657.0,508.2L655.0,510.6L652.3,511.8L654.5,515.2L654.6,518.7L656.9,520.5L661.0,525.7L662.5,526.8L665.1,526.2L670.3,523.4L675.8,522.2L680.2,520.6L683.3,521.4L686.1,523.0L688.0,524.9L689.5,527.4L692.2,536.9L693.8,539.3L698.1,537.2L703.8,535.6L706.4,531.3L709.8,526.9L713.8,522.9L714.6,523.9L713.8,526.0L714.5,528.0L716.4,528.6L723.6,526.8L725.7,527.4L730.0,530.2L738.6,532.4L739.7,533.4L732.6,535.0L731.2,536.2L730.9,538.6L732.2,543.6L732.4,547.0L740.1,549.9L743.0,552.2L747.5,558.0L750.4,560.6L753.5,562.1L756.6,562.6L759.3,561.9L761.4,559.6L762.0,557.0L762.0,551.2L763.0,548.3L766.4,547.8Z " data-id="GQ.LI" data-name="Litoral" id="GQ.LI"/>
utf-8utf-8<path d="M856.3,367.0L860.8,373.1L872.5,383.7L873.5,387.0L873.2,391.5L871.1,399.9L866.6,407.4L865.9,410.3L866.3,412.9L868.5,416.7L869.1,418.9L868.2,424.4L866.2,428.5L866.5,431.7L872.2,434.9L877.6,436.5L882.4,437.1L887.0,436.6L892.0,434.8L897.8,431.5L899.8,431.0L906.2,432.6L910.5,429.8L912.8,434.5L914.2,433.9L916.3,431.2L920.1,429.1L921.3,429.8L922.5,433.4L925.3,434.3L934.1,436.0L937.3,434.5L936.2,437.8L928.3,441.5L926.3,443.2L918.5,452.8L914.6,460.7L907.4,471.7L904.1,477.9L901.8,484.1L901.9,488.9L903.3,492.1L914.6,506.3L916.8,508.0L924.0,511.7L926.0,514.5L927.8,518.5L930.7,531.4L932.3,534.8L936.3,537.8L937.3,543.1L934.5,547.7L947.2,547.7L999.5,547.9L999.2,496.1L998.8,444.4L998.5,403.0L980.3,400.3L972.7,401.5L968.6,403.0L957.5,401.6L953.7,401.8L943.8,402.9L940.9,401.2L938.5,397.1L933.3,360.1L929.9,355.2L927.5,356.3L921.3,362.7L918.9,363.7L916.1,364.0L908.6,361.9L888.5,352.3L882.0,351.0L875.7,353.8L856.3,367.0Z " data-id="GQ.WN" data-name="Wele-Nzás" id="GQ.WN"/>
utf-8utf-8<path d="M525.6,27.5L528.2,27.4L532.9,29.1L535.2,30.6L542.8,36.7L545.2,37.8L554.5,38.2L559.3,39.3L561.5,40.3L564.1,43.1L566.9,50.8L572.7,43.1L574.5,37.6L580.8,31.3L583.9,22.1L584.2,18.3L583.5,14.1L581.8,10.8L577.1,4.3L574.6,2.8L569.8,5.0L563.9,5.1L558.2,4.2L554.3,2.8L552.6,4.2L550.2,4.1L544.7,2.8L545.8,0.0L538.7,2.3L532.6,9.1L528.0,17.6L525.8,24.5L525.6,27.5Z " data-id="GQ.BN" data-name="Bioko Norte" id="GQ.BN"/>
utf-8utf-8<path d="M524.6,42.8L523.6,45.3L516.3,51.5L517.9,54.3L518.4,57.9L517.4,61.1L514.5,62.4L508.3,61.1L505.4,61.0L503.1,62.4L499.0,61.1L495.8,64.4L493.5,69.4L492.3,73.2L491.3,81.6L490.0,85.6L491.2,88.1L495.0,98.7L498.3,101.6L502.5,102.7L508.5,103.4L514.1,107.0L515.8,107.1L521.1,105.6L526.0,108.6L530.5,110.4L536.2,113.6L537.8,111.4L543.7,100.3L551.6,90.1L552.6,86.8L552.7,77.7L553.3,74.5L558.3,71.2L560.0,64.8L563.0,62.1L566.4,51.5L566.9,50.8L566.9,50.8L564.1,43.1L561.5,40.3L559.3,39.3L554.5,38.2L545.2,37.8L542.8,36.7L535.2,30.6L532.9,29.1L528.2,27.4L525.6,27.5L524.6,42.8Z " data-id="GQ.BS" data-name="Bioko Sur" id="GQ.BS"/>
utf-8</g>
</svg>
