<?xml version="1.0" ?>
<!DOCTYPE svg
  PUBLIC '-//W3C//DTD SVG 1.1//EN'
  'http://www.w3.org/Graphics/SVG/1.1/DTD/svg11.dtd'>
<svg enable_background="new 0 0 1000 969" height="969px" pretty_print="True" style="stroke-linejoin: round; stroke:#000; fill: none;" version="1.1" viewBox="0 0 1000 969" width="1000px" xmlns="http://www.w3.org/2000/svg" xmlns:xlink="http://www.w3.org/1999/xlink">
utf-8<defs>
utf-8utf-8<style type="text/css">
<![CDATA[path { fill-rule: evenodd; }]]>utf-8utf-8</style>
utf-8</defs>
utf-8<metadata>
utf-8utf-8<views>
utf-8utf-8utf-8<view h="969.962170338" padding="0" w="1000">
utf-8utf-8utf-8utf-8<proj flip="auto" id="robinson" lon0="20.5365746291"/>
utf-8utf-8utf-8utf-8<bbox h="114.91" w="118.59" x="273.45" y="-700.65"/>
utf-8utf-8utf-8</view>
utf-8utf-8</views>
utf-8</metadata>
utf-8<g class="" id="provinces">
utf-8utf-8<path d="M108.3,547.9L107.0,546.8L105.9,544.0L102.5,537.8L99.7,537.1L97.0,539.9L92.7,546.5L93.9,550.8L93.2,552.5L96.0,554.2L100.9,560.1L103.6,562.3L104.0,564.6L106.9,567.5L113.0,572.1L116.9,576.4L121.5,576.8L122.0,575.9L120.6,569.9L126.1,565.3L129.2,565.6L133.2,566.7L136.7,568.3L138.4,570.2L136.9,565.8L128.5,560.7L124.3,553.7L119.9,550.5L114.9,548.6L111.3,549.5L108.3,547.9Z M80.4,459.2L76.5,459.2L77.4,461.3L77.0,466.0L79.1,471.9L76.6,470.9L77.8,473.4L78.0,476.3L77.1,478.7L74.5,480.2L71.5,482.7L69.5,479.5L68.6,480.8L64.9,475.0L63.6,477.8L61.8,474.9L61.9,479.4L61.6,484.0L60.4,487.8L57.5,491.8L58.3,494.3L56.5,498.3L57.4,500.9L60.9,502.8L62.5,505.3L66.8,501.9L67.7,499.4L67.6,496.6L66.1,489.5L66.8,487.1L68.0,487.5L69.5,489.6L73.2,497.4L74.6,499.6L76.5,501.3L71.6,499.4L74.4,504.2L75.6,509.2L77.3,511.2L81.6,512.4L83.9,514.1L85.5,510.5L89.4,509.9L93.9,511.1L97.4,513.0L102.0,517.5L103.8,518.1L107.2,517.0L110.3,517.7L111.8,515.1L112.0,512.8L110.5,508.2L105.9,502.6L104.4,498.8L99.1,494.5L96.9,489.1L94.7,488.7L91.2,490.7L89.7,490.1L85.5,483.7L88.4,480.0L88.1,476.6L80.4,459.2Z M92.2,457.6L91.8,455.8L89.7,455.2L88.8,458.5L87.8,459.3L85.9,458.1L85.5,460.1L88.7,463.1L90.0,468.9L92.7,473.8L96.2,477.8L95.4,478.8L97.7,481.4L104.4,480.8L104.3,479.7L101.8,477.7L100.8,473.8L103.1,473.8L100.8,472.0L96.6,471.9L98.3,473.8L93.5,472.9L96.7,463.1L92.9,460.9L90.9,461.0L92.2,457.6Z M118.5,448.4L121.7,440.6L120.7,440.7L116.8,447.4L118.5,448.4Z M114.7,443.4L116.7,440.3L120.2,438.4L122.7,435.6L122.4,434.1L117.0,435.1L115.4,437.0L113.5,440.7L114.7,443.4Z M103.3,431.0L102.6,430.5L98.5,432.1L97.6,433.7L99.6,437.4L104.0,441.2L105.5,441.8L100.5,437.2L100.7,435.6L103.6,434.8L103.3,431.0Z M92.8,429.3L92.5,428.3L95.7,422.5L94.7,416.9L95.2,415.2L93.4,409.4L89.4,405.5L86.9,406.8L80.5,415.2L79.0,420.5L78.7,423.4L76.9,428.1L76.0,441.9L76.2,445.5L77.0,445.5L80.4,438.6L82.3,437.3L83.8,440.2L86.1,440.6L89.7,439.6L91.7,440.6L92.2,437.6L93.9,438.6L95.8,435.7L95.6,428.0L95.3,425.8L93.7,429.7L92.8,429.3Z M34.2,363.0L31.8,362.5L36.7,365.3L34.2,363.0Z M28.1,355.4L21.9,349.8L20.2,350.6L22.0,354.4L24.6,357.3L29.7,358.6L28.1,355.4Z M0.0,324.7L9.6,328.9L12.5,330.7L16.5,332.4L17.7,330.5L16.2,328.4L12.8,320.7L11.9,320.5L7.2,321.8L0.0,318.7L0.0,324.7Z " data-id="GR.II" data-name="Ionioi Nisoi" id="GR.II"/>
utf-8utf-8<path d="M432.3,839.3L431.6,834.2L429.7,832.1L427.3,831.1L424.3,828.5L427.6,834.9L432.3,839.3Z M395.4,785.5L396.5,782.2L400.8,780.6L399.5,778.2L397.2,775.8L389.2,770.4L387.2,768.1L381.8,759.6L380.4,758.7L379.1,759.9L376.0,766.1L375.8,767.5L378.3,773.7L378.7,777.0L378.3,785.1L380.3,788.2L383.5,791.0L388.1,792.9L388.7,795.0L395.8,793.9L395.4,785.5Z M485.5,694.7L483.9,693.3L484.0,694.3L485.5,694.7Z M395.7,635.7L395.0,631.7L391.3,629.3L387.5,631.3L392.1,635.7L394.6,636.3L395.7,635.7Z M439.4,620.5L442.0,619.2L443.7,617.4L439.7,617.4L437.4,618.4L432.2,618.5L429.5,619.4L419.6,626.3L419.7,627.2L422.3,627.2L428.8,625.3L433.8,624.7L435.1,623.3L434.4,620.5L436.5,620.9L439.4,620.5Z M483.9,604.2L482.7,601.9L480.9,600.5L478.3,600.3L480.5,601.7L482.0,603.6L483.9,604.2Z M432.5,597.0L434.7,595.7L434.6,594.8L430.5,593.2L428.6,590.8L428.6,593.0L427.4,594.0L424.2,594.8L424.3,595.7L426.7,597.1L429.6,597.5L432.5,597.0Z M394.2,583.3L392.1,590.1L391.7,593.9L394.5,597.8L400.4,599.6L404.2,602.2L406.2,602.5L409.9,605.9L411.9,605.5L417.9,606.9L420.0,605.7L424.5,605.7L425.9,607.5L426.2,611.2L426.2,611.2L433.4,608.9L435.7,607.6L435.4,604.7L429.6,600.2L427.2,599.4L424.4,597.7L419.6,596.7L419.5,595.7L422.5,594.8L416.6,590.8L418.4,588.6L419.6,584.6L419.8,580.8L418.5,579.0L412.6,579.5L408.7,583.0L412.2,584.4L414.6,588.2L415.1,592.0L412.5,593.8L409.6,592.7L407.1,590.8L405.0,590.1L400.3,585.9L399.5,587.0L394.6,583.4L394.2,583.3Z M482.8,578.4L483.5,577.1L481.0,576.3L480.8,577.9L482.8,578.4Z M500.7,577.8L504.7,565.2L503.0,562.5L501.8,563.9L499.7,575.9L500.7,577.8Z M429.1,572.5L432.6,571.2L432.9,566.5L434.4,565.3L434.1,563.6L436.0,560.3L433.9,559.4L420.0,560.3L420.4,563.3L421.4,565.3L425.6,568.0L424.6,571.2L427.9,573.1L429.1,572.5Z M459.2,559.2L458.5,560.1L458.5,561.1L459.2,559.2Z M429.7,529.8L429.3,527.8L427.9,527.2L423.2,527.2L422.5,529.8L421.4,529.1L417.7,528.8L421.1,530.8L417.2,532.8L421.7,533.9L424.5,531.9L425.9,531.8L422.9,536.8L419.5,535.7L416.1,538.2L416.4,541.6L417.9,542.4L423.4,543.7L425.0,542.9L427.1,540.5L428.4,541.6L429.3,539.4L431.7,537.2L431.1,535.7L434.9,533.9L431.7,533.9L429.7,529.8Z M452.3,478.1L448.9,480.3L442.6,482.3L438.9,485.9L436.8,489.8L437.0,503.3L434.2,506.7L430.3,509.5L428.2,509.2L426.4,507.7L422.4,507.0L420.4,505.9L415.4,499.6L413.5,498.5L409.4,498.6L407.5,497.1L408.7,493.4L407.3,490.9L405.4,489.8L401.2,491.0L399.0,492.1L397.6,493.8L397.3,500.4L395.9,502.1L391.9,501.4L385.4,501.3L390.6,502.9L390.4,504.1L390.4,504.1L391.6,504.2L387.7,506.1L386.2,506.3L390.6,510.5L391.5,512.2L388.5,513.5L386.8,515.6L378.6,518.1L375.8,518.5L380.2,523.8L384.5,530.3L386.9,535.6L390.2,533.0L394.3,530.8L406.2,529.8L415.5,530.7L417.8,529.8L413.7,528.8L415.6,527.9L419.6,524.0L422.0,523.1L424.7,522.9L434.6,520.4L436.8,524.0L436.0,526.1L432.1,529.8L433.1,530.9L441.1,534.6L442.8,533.9L441.4,536.7L447.3,534.8L449.4,535.7L450.0,537.8L455.4,544.7L456.0,547.5L458.7,550.2L460.6,555.4L461.4,554.0L463.8,554.5L464.2,551.5L466.8,553.5L468.4,553.1L470.6,554.6L472.7,557.0L473.7,559.4L475.2,558.3L477.0,564.4L478.4,567.1L480.7,566.2L481.1,571.6L482.1,573.4L490.6,576.2L492.0,577.1L496.1,571.6L494.5,570.2L494.1,565.3L496.5,562.6L496.2,555.5L495.1,554.2L492.2,552.5L493.6,550.4L493.0,549.6L493.3,546.5L491.5,544.5L489.9,544.6L486.5,542.6L490.0,541.3L489.9,539.0L486.1,537.8L486.4,536.0L485.6,531.8L487.5,525.9L484.3,521.2L481.3,512.4L480.9,509.5L486.3,506.4L488.1,506.2L489.0,508.2L489.8,503.7L489.7,498.9L489.1,497.7L479.5,490.6L474.3,485.4L469.8,484.3L458.2,479.7L454.1,477.8L452.3,478.1Z " data-id="GR.AT" data-name="Attiki" id="GR.AT"/>
utf-8utf-8<path d="M384.2,746.2L381.9,741.2L379.3,742.8L377.1,746.3L381.9,746.2L384.4,748.8L384.2,746.2Z M240.3,711.1L240.3,707.2L238.3,706.2L237.2,712.2L238.7,711.1L240.5,714.1L240.3,711.1Z M232.5,700.1L230.5,700.9L230.2,703.1L230.5,708.2L232.6,703.8L232.5,700.1Z M210.5,664.9L210.2,661.5L209.3,663.9L210.5,664.9Z M291.1,503.7L290.5,509.4L293.7,514.2L291.0,521.5L289.6,527.0L287.4,528.6L279.0,532.3L278.4,534.2L277.8,540.6L277.8,544.5L279.7,546.3L280.7,548.4L280.1,550.7L273.7,553.2L271.0,556.6L268.9,557.4L266.9,556.7L266.3,554.7L262.3,554.4L260.2,555.3L257.4,558.7L255.4,558.8L247.2,555.2L243.4,552.7L239.1,551.2L237.8,547.1L233.7,548.1L227.8,558.8L227.7,564.6L230.7,571.6L232.1,587.3L236.2,587.2L240.1,588.5L251.4,596.9L255.1,600.9L254.1,602.7L252.0,603.6L249.4,601.6L244.9,606.7L244.3,608.6L245.3,610.7L241.6,615.9L239.5,617.1L235.5,616.1L231.4,617.0L223.5,615.4L221.7,616.3L223.1,619.5L224.1,625.3L222.9,629.9L219.9,633.3L213.1,639.1L211.3,643.1L210.9,648.3L211.6,654.1L213.1,659.8L215.9,664.2L219.6,667.8L222.9,671.6L224.1,676.6L225.2,674.6L226.3,674.7L224.8,676.6L227.1,675.9L228.9,677.0L229.9,679.1L228.0,686.5L228.8,691.1L228.4,692.5L231.0,697.0L236.4,698.9L237.9,700.3L244.6,698.4L251.5,710.2L253.7,709.0L258.2,704.5L258.4,702.0L261.9,700.3L261.9,699.3L256.8,696.4L257.4,694.7L255.5,690.5L255.9,687.4L256.0,673.7L257.8,670.3L262.0,669.1L266.2,666.3L268.3,665.7L272.7,666.0L280.7,667.8L281.2,672.7L280.1,682.7L284.8,686.5L287.5,684.3L290.1,685.6L299.2,696.7L301.2,700.4L301.3,703.2L303.6,705.7L305.8,710.2L308.3,713.7L311.7,713.1L310.1,717.8L310.0,720.3L312.3,721.1L310.5,722.2L310.5,728.0L312.9,728.0L312.8,732.4L313.4,734.7L313.0,736.4L311.1,735.9L310.0,741.1L313.5,745.6L318.1,746.6L322.3,748.2L324.2,749.7L325.9,756.9L327.3,758.5L327.7,756.4L328.8,756.5L327.2,752.2L329.0,749.7L328.9,747.6L326.2,741.9L324.7,735.9L324.1,727.4L326.3,724.9L327.5,728.0L328.9,726.6L329.3,723.7L326.7,720.2L329.2,718.2L330.8,721.1L331.6,721.1L329.7,716.1L328.0,716.1L328.7,713.0L330.0,710.9L333.6,708.2L333.0,702.0L338.0,699.1L345.3,698.2L351.2,698.4L354.6,699.0L357.3,700.5L359.1,703.1L362.6,719.0L364.0,717.0L370.3,720.6L371.0,722.3L369.4,724.0L374.8,727.7L380.3,736.0L382.1,739.9L384.5,739.9L389.4,738.8L391.3,739.6L393.1,741.5L394.1,743.8L393.6,746.6L395.2,747.8L397.3,751.0L402.6,752.3L405.1,750.5L409.3,752.5L409.9,749.1L407.2,746.8L403.5,744.6L401.2,741.7L402.6,739.6L401.8,738.8L403.2,736.9L402.1,736.8L400.7,734.8L392.7,728.8L390.1,725.2L388.0,721.3L387.6,717.6L390.3,715.1L387.1,715.1L387.8,713.1L386.1,711.7L388.8,707.2L393.2,709.3L395.6,702.3L391.6,701.2L392.8,699.8L391.9,695.4L388.4,692.2L386.6,689.7L385.9,687.3L383.1,681.5L381.8,679.6L381.9,676.0L380.7,675.6L381.3,672.7L379.3,667.7L379.3,666.0L375.8,661.4L374.5,658.9L375.6,657.7L373.5,657.0L373.2,653.0L367.0,653.3L365.9,651.5L365.9,647.8L367.3,644.4L366.5,642.9L360.5,634.0L359.4,631.4L356.2,626.4L354.9,625.3L355.6,623.4L354.0,623.4L354.6,621.3L353.5,620.7L346.8,613.5L347.2,608.7L345.1,603.7L343.1,601.3L342.6,595.3L341.4,593.6L341.1,589.3L342.4,587.2L346.8,584.9L349.4,587.9L349.2,588.9L351.4,591.2L352.9,591.8L352.3,593.8L356.6,596.7L362.0,593.8L364.4,594.8L364.1,593.1L369.3,595.7L372.8,599.5L374.8,604.7L379.3,600.7L381.1,603.7L379.6,604.7L381.5,605.3L385.5,604.3L389.7,606.2L391.3,611.5L387.9,609.6L386.2,614.7L383.4,613.1L383.3,614.8L385.2,620.4L387.2,619.4L391.5,623.4L389.0,622.4L390.2,624.1L394.7,624.3L394.8,625.3L392.4,625.3L392.5,626.3L397.5,627.7L399.9,627.2L397.3,621.8L399.7,621.3L406.2,621.3L407.9,620.5L404.7,618.5L405.3,617.4L402.0,616.8L402.0,615.5L405.9,614.6L405.5,613.1L411.3,613.5L410.4,611.5L412.5,611.8L426.2,611.2L425.9,607.5L424.5,605.7L420.0,605.7L417.9,606.9L411.9,605.5L409.9,605.9L406.2,602.5L404.2,602.2L400.4,599.6L394.5,597.8L391.7,593.9L392.1,590.1L394.2,583.3L392.0,582.4L390.8,578.1L392.4,578.1L390.7,570.5L391.5,567.3L388.0,566.4L384.9,564.2L385.5,561.4L388.1,561.0L391.6,559.4L391.0,558.4L391.2,554.4L389.0,553.6L382.8,548.5L380.9,549.5L375.4,549.5L373.2,548.5L371.0,548.9L369.3,546.7L368.5,544.0L370.3,537.8L373.6,538.2L374.6,537.8L379.7,539.8L385.1,537.1L386.9,535.6L384.5,530.3L380.2,523.8L375.8,518.5L374.9,518.6L371.3,517.0L369.1,517.7L363.1,515.3L360.0,515.1L356.7,518.4L352.6,520.0L350.3,522.0L355.6,523.1L358.7,525.4L363.8,528.4L365.1,530.1L362.8,534.3L359.3,534.7L356.6,535.7L351.2,534.6L341.9,526.9L332.0,518.9L329.8,517.5L322.6,515.1L309.4,508.5L300.1,506.5L296.8,506.7L291.9,504.4L291.1,503.7Z " data-id="GR.PP" data-name="Peloponnisos" id="GR.PP"/>
utf-8utf-8<path d="M221.7,616.3L223.5,615.4L231.4,617.0L235.5,616.1L239.5,617.1L241.6,615.9L245.3,610.7L244.3,608.6L244.9,606.7L249.4,601.6L252.0,603.6L254.1,602.7L255.1,600.9L251.4,596.9L240.1,588.5L236.2,587.2L232.1,587.3L230.7,571.6L227.7,564.6L227.8,558.8L233.7,548.1L237.8,547.1L239.1,551.2L243.4,552.7L247.2,555.2L255.4,558.8L257.4,558.7L260.2,555.3L262.3,554.4L266.3,554.7L266.9,556.7L268.9,557.4L271.0,556.6L273.7,553.2L280.1,550.7L280.7,548.4L279.7,546.3L277.8,544.5L277.8,540.6L278.4,534.2L279.0,532.3L287.4,528.6L289.6,527.0L291.0,521.5L293.7,514.2L290.5,509.4L291.1,503.7L289.8,502.6L287.9,501.4L285.8,502.3L284.4,501.6L279.2,500.4L268.8,497.0L264.5,490.6L257.6,489.3L252.6,486.6L250.2,482.2L246.9,481.4L242.4,478.8L237.8,479.7L230.1,478.1L229.1,479.2L220.7,484.7L218.4,488.4L214.5,497.6L211.7,501.3L203.7,505.3L194.4,503.2L188.2,498.9L182.0,498.0L180.2,497.2L180.7,500.4L176.4,495.4L176.7,497.8L176.7,509.7L173.0,516.1L172.9,517.0L168.3,524.9L170.9,522.5L173.0,522.9L173.0,524.0L169.3,527.4L167.7,526.9L164.9,530.5L160.2,534.8L155.3,537.1L151.6,534.7L149.1,544.5L149.6,547.8L151.4,550.4L164.0,554.0L172.3,559.8L174.8,566.3L175.0,571.1L173.8,574.0L175.0,575.0L175.8,579.0L176.5,579.0L176.8,575.1L179.1,574.5L186.1,576.5L191.2,581.8L193.7,583.0L204.3,590.0L206.7,592.3L211.7,598.9L220.7,613.8L221.7,616.3Z M164.0,362.3L161.5,363.1L155.7,368.0L151.4,370.0L149.3,370.5L135.0,370.8L132.8,371.6L131.1,373.3L130.1,377.0L130.5,378.6L131.0,378.4L132.1,378.0L133.1,375.2L139.4,380.8L142.5,384.5L142.8,387.8L140.8,389.5L141.5,390.6L141.2,394.0L142.8,396.5L144.3,396.8L145.9,401.8L145.4,402.2L140.9,398.0L139.0,396.9L136.8,396.8L135.7,397.7L135.4,403.5L128.1,398.7L127.9,393.7L125.8,393.5L121.7,391.7L119.9,391.7L115.3,390.6L115.0,393.2L109.4,394.6L110.0,393.7L109.0,389.8L108.2,389.8L105.8,394.3L103.7,395.3L99.5,393.4L97.8,390.0L96.6,392.7L96.8,397.4L98.0,399.5L102.5,402.1L103.0,403.0L98.6,403.5L96.6,404.5L94.9,412.1L99.2,415.2L100.5,418.2L103.9,416.4L104.9,418.0L108.4,412.7L110.0,412.1L111.7,413.3L113.0,415.6L116.8,427.1L120.8,430.7L125.3,430.8L126.5,432.0L128.7,437.4L131.4,439.9L131.6,443.1L131.2,448.9L133.8,454.5L139.4,450.2L140.5,450.9L139.0,457.2L142.4,459.2L141.9,460.5L143.2,463.1L142.8,465.0L141.6,465.4L140.3,464.0L139.7,465.0L141.9,469.3L143.2,469.9L145.0,468.3L147.2,469.9L144.0,475.4L141.4,477.8L147.9,478.8L150.0,483.5L152.2,483.7L153.6,478.1L156.4,479.7L158.7,479.8L163.0,476.3L162.5,474.3L165.1,474.9L164.9,472.9L170.0,470.4L170.8,466.0L171.5,465.0L166.1,457.4L165.6,456.2L167.8,456.2L171.9,460.1L173.7,468.6L174.7,469.9L179.2,470.6L180.8,472.1L180.2,474.9L182.5,473.8L183.5,474.4L186.4,473.8L185.9,475.8L188.4,478.8L187.8,479.9L188.7,482.7L183.3,479.2L181.4,479.7L186.3,482.2L187.2,483.2L191.0,483.7L192.1,484.7L194.0,482.1L201.0,476.8L202.7,477.6L207.7,475.8L214.4,475.8L217.8,478.6L220.1,480.0L221.1,479.2L222.0,474.9L227.3,470.2L229.0,470.4L229.7,471.5L230.3,469.1L229.7,466.3L231.8,462.0L236.2,458.0L240.3,457.1L242.5,455.9L243.5,454.1L242.7,449.8L244.3,445.8L240.5,442.1L240.3,440.2L241.7,438.4L240.8,434.1L242.0,430.4L241.1,426.4L242.7,422.8L242.5,420.8L237.8,418.2L237.5,417.0L232.8,419.0L231.0,420.6L226.7,422.7L220.6,422.1L220.1,424.0L220.5,427.9L216.6,431.1L214.1,431.5L214.2,429.6L212.8,427.5L206.6,428.5L202.5,428.3L198.6,426.5L192.0,422.5L190.1,420.6L188.0,416.5L188.4,412.3L190.1,410.6L196.6,407.4L196.3,405.4L192.4,403.7L186.0,402.3L184.0,400.9L182.0,400.6L180.1,399.2L179.4,397.2L179.8,393.4L178.8,390.9L166.6,384.1L166.0,382.1L168.5,376.7L168.8,372.9L167.8,370.9L164.4,366.9L164.0,362.3Z " data-id="GR.GW" data-name="Dytiki Ellada" id="GR.GW"/>
utf-8utf-8<path d="M235.7,219.3L233.3,222.4L232.6,226.1L229.6,231.3L224.6,236.6L223.8,240.3L221.8,244.2L217.5,246.5L212.4,251.5L210.2,253.1L214.2,255.2L215.3,257.2L215.1,259.1L216.4,263.1L216.2,265.0L214.9,266.3L208.7,265.4L200.3,267.2L196.2,266.9L184.4,264.1L167.2,262.0L162.9,263.6L160.7,265.2L158.4,268.7L156.2,269.9L151.5,271.5L149.4,271.6L147.9,270.2L147.6,268.3L139.7,264.1L135.6,263.9L129.3,265.3L125.0,267.0L123.0,266.3L120.4,262.2L118.2,254.3L114.3,251.1L116.8,245.4L116.8,241.2L114.8,239.8L110.5,241.8L107.1,238.0L105.1,232.0L103.1,230.6L105.6,225.6L105.8,223.4L103.8,217.5L100.1,211.3L94.7,205.6L91.9,199.2L90.0,197.1L85.8,198.0L84.4,199.7L82.2,200.9L80.2,201.0L78.3,199.5L79.7,195.4L81.4,190.3L81.4,182.8L84.7,181.7L86.3,177.8L87.8,176.9L90.8,176.8L96.2,178.5L98.9,176.7L100.4,173.8L100.2,172.1L103.4,169.7L104.0,168.2L106.7,166.1L108.2,153.5L105.9,146.8L112.9,142.9L116.7,137.1L114.8,129.7L110.5,131.1L108.6,134.9L112.3,137.4L111.8,140.6L109.1,143.5L105.1,145.9L102.2,142.9L98.6,140.1L97.2,136.9L96.0,136.0L97.8,133.9L98.1,131.9L102.8,128.9L104.2,125.0L107.1,125.0L110.8,128.8L113.6,126.3L114.8,123.5L122.1,121.5L135.0,122.8L138.8,122.0L140.5,121.1L144.4,117.3L147.0,116.1L149.8,116.1L164.5,121.4L167.7,122.0L172.2,118.1L175.0,117.9L178.8,113.4L184.8,114.7L187.1,114.2L188.3,119.1L192.4,120.8L194.3,122.5L194.1,124.4L192.3,126.0L185.9,127.7L181.7,127.5L181.1,129.3L183.1,131.0L185.5,137.4L186.9,139.5L191.0,140.8L191.3,142.7L189.1,148.8L193.2,149.4L198.1,150.9L200.2,150.8L202.2,151.8L204.7,151.8L202.5,157.9L203.0,161.7L206.4,165.6L205.2,169.2L205.5,171.1L207.4,172.5L210.4,177.1L212.3,178.9L216.7,180.7L220.7,183.1L220.9,185.1L222.9,186.1L229.2,185.2L230.3,187.2L230.8,191.0L235.0,195.1L235.9,199.0L237.4,201.1L243.0,203.4L241.4,206.6L241.5,210.8L240.1,212.4L235.7,214.4L235.1,216.6L235.7,219.3Z M105.6,125.7L105.2,125.7L105.4,125.7L105.6,125.7Z " data-id="GR.MW" data-name="Dytiki Makedonia" id="GR.MW"/>
utf-8utf-8<path d="M482.8,373.1L483.1,371.2L481.9,369.6L480.8,371.0L481.5,375.5L484.2,375.2L482.8,373.1Z M412.0,358.8L410.7,356.5L406.6,353.8L403.9,356.0L399.0,360.9L398.9,363.4L399.9,363.0L406.6,365.4L407.9,361.7L409.4,360.2L411.4,361.5L412.0,358.8Z M421.9,354.5L420.2,354.7L424.2,360.1L425.7,363.2L431.0,368.3L429.8,369.3L430.8,371.0L439.7,372.7L441.7,371.3L445.1,367.4L445.0,366.5L442.7,365.8L437.3,365.5L437.6,363.4L433.5,362.1L429.8,360.0L426.3,357.5L423.3,354.7L421.9,354.5Z M456.5,361.2L459.0,357.1L460.4,352.7L461.8,351.6L463.5,348.5L463.8,345.5L461.8,343.0L459.9,344.4L455.0,353.3L453.6,358.5L449.5,363.4L453.1,363.7L456.5,361.2Z M473.9,334.0L472.5,332.9L471.0,337.2L472.8,338.9L472.7,340.8L473.9,342.0L476.0,340.9L477.0,337.3L476.4,334.6L473.9,334.0Z M504.0,334.0L503.9,332.5L502.3,335.0L503.2,337.2L504.0,334.0Z M485.9,329.7L486.4,328.2L484.8,323.5L483.0,329.4L482.2,330.6L483.5,332.8L485.9,329.7Z M235.7,219.3L233.3,222.4L232.6,226.1L229.6,231.3L224.6,236.6L223.8,240.3L221.8,244.2L217.5,246.5L212.4,251.5L210.2,253.1L214.2,255.2L215.3,257.2L215.1,259.1L216.4,263.1L216.2,265.0L214.9,266.3L208.7,265.4L200.3,267.2L196.2,266.9L184.4,264.1L167.2,262.0L162.9,263.6L160.7,265.2L158.4,268.7L156.2,269.9L151.5,271.5L149.4,271.6L147.9,270.2L144.6,269.4L142.5,270.2L141.5,272.0L139.4,273.2L137.8,277.2L140.4,285.5L140.9,289.4L138.8,289.5L136.9,288.1L132.4,287.8L130.2,289.0L128.8,290.8L130.5,295.2L131.0,299.1L132.9,301.2L134.9,301.9L136.4,304.0L136.1,307.8L137.4,311.8L136.0,313.5L135.9,315.4L137.7,317.6L138.8,320.0L138.6,322.3L139.6,324.7L145.4,329.0L147.5,333.9L151.8,336.8L157.9,337.6L160.0,337.2L163.0,340.3L165.1,344.4L160.0,355.6L160.7,358.0L164.0,362.3L165.6,362.9L170.6,357.5L174.5,354.6L176.6,354.1L180.5,357.0L182.2,355.4L182.8,353.5L185.0,351.9L194.7,349.5L196.6,351.0L197.7,353.0L198.8,358.9L202.7,361.1L203.8,363.1L203.0,366.9L204.1,368.9L206.0,370.4L208.0,370.7L210.2,369.8L216.3,365.4L218.4,365.3L222.6,368.3L226.6,369.6L228.5,371.8L229.3,375.8L228.8,377.6L229.4,379.7L231.4,380.0L235.6,379.1L240.3,376.7L243.1,373.3L245.3,372.1L249.5,371.2L251.7,369.3L254.5,361.3L263.8,350.0L269.7,353.2L278.0,356.1L284.3,360.1L285.7,366.5L287.6,367.9L295.1,367.2L294.8,370.6L295.8,376.9L296.8,379.0L298.8,380.1L303.3,380.4L312.0,379.5L314.4,380.3L322.2,385.0L324.2,384.9L330.6,386.7L334.8,386.2L336.8,387.0L340.6,390.3L347.2,389.8L351.5,387.8L355.2,389.4L355.2,389.4L356.7,386.8L357.3,384.0L358.6,382.0L362.2,380.1L363.0,378.1L359.5,378.4L356.4,379.4L350.8,382.9L350.0,380.6L350.8,379.2L354.2,377.1L354.0,374.2L352.0,372.1L349.1,367.2L346.0,365.4L344.3,366.4L341.4,358.6L340.0,358.0L336.2,361.5L332.2,352.7L331.5,345.5L333.2,343.2L337.4,342.2L344.6,341.1L343.0,336.4L344.0,335.3L343.6,332.8L350.9,334.1L353.4,339.1L362.4,339.8L364.4,340.5L371.1,346.0L372.6,348.5L372.3,350.9L377.1,357.1L376.9,361.8L374.3,363.4L373.2,365.0L365.4,369.3L366.4,363.4L366.2,361.5L362.6,363.2L361.1,364.5L361.9,366.5L359.8,370.3L364.6,371.4L367.3,371.6L373.3,369.0L377.3,369.3L380.2,367.4L377.6,365.4L379.3,364.7L387.9,362.6L392.5,358.6L392.1,356.8L385.3,345.9L382.2,338.3L376.3,333.3L374.5,330.3L363.7,319.7L362.2,317.9L360.4,313.6L354.7,309.4L348.6,307.1L342.2,303.3L338.7,299.2L335.2,290.8L331.0,282.8L328.7,274.7L323.0,266.8L318.5,263.9L313.8,260.4L312.5,258.9L309.4,251.9L309.4,251.9L302.3,253.1L300.4,251.6L298.4,251.3L289.4,253.7L285.0,252.3L281.1,249.0L278.2,244.8L270.0,239.7L266.2,236.1L264.5,232.0L264.2,225.9L263.1,223.9L259.2,221.8L254.5,223.3L252.7,224.9L250.7,228.4L248.4,230.3L246.4,229.7L245.3,227.6L244.9,223.4L246.1,219.8L239.9,218.5L237.7,219.7L236.8,221.4L235.7,219.3Z " data-id="GR.TS" data-name="Thessalia" id="GR.TS"/>
utf-8utf-8<path d="M147.6,268.3L139.7,264.1L135.6,263.9L129.3,265.3L125.0,267.0L123.0,266.3L120.4,262.2L118.2,254.3L114.3,251.1L116.8,245.4L116.8,241.2L114.8,239.8L110.5,241.8L107.1,238.0L105.1,232.0L103.1,230.6L105.6,225.6L105.8,223.4L103.8,217.5L100.1,211.3L94.7,205.6L91.9,199.2L90.0,197.1L85.8,198.0L84.4,199.7L82.2,200.9L80.2,201.0L78.3,199.5L78.0,200.3L74.8,202.5L74.0,203.8L73.7,207.0L74.5,212.7L73.5,216.0L70.7,217.7L72.1,223.4L70.3,229.6L62.6,233.4L59.8,233.6L53.6,232.8L49.8,234.3L46.0,233.9L43.9,234.8L42.5,236.5L40.3,243.7L32.7,244.2L32.1,245.7L34.5,254.3L38.1,257.7L44.1,265.9L44.8,268.4L44.1,271.2L42.3,273.1L32.4,270.0L31.5,270.4L32.3,273.7L31.5,276.5L34.2,280.3L34.4,282.6L33.0,284.4L29.3,287.1L29.2,290.2L24.4,290.6L24.2,293.5L22.4,293.9L20.0,292.9L16.4,290.1L10.9,287.4L2.3,284.8L0.5,285.9L11.0,288.8L22.3,295.7L23.2,298.5L21.3,303.4L18.8,303.2L18.6,307.9L19.6,308.5L25.7,309.0L24.5,310.2L28.3,312.0L28.1,310.2L29.7,310.3L33.2,313.0L32.2,314.3L27.7,314.0L27.7,314.8L33.6,318.8L34.2,320.7L28.3,321.7L31.8,325.6L31.1,327.5L33.8,327.8L37.8,332.4L38.4,336.8L42.5,341.0L47.3,343.3L50.5,342.0L55.2,344.0L56.9,343.0L57.5,344.3L60.9,344.0L60.4,346.3L61.5,350.9L61.1,352.2L65.9,355.6L75.8,366.5L79.7,369.3L83.6,371.4L86.9,373.8L89.4,377.2L90.9,382.0L89.7,383.4L90.5,386.4L92.7,388.9L93.9,391.2L97.9,387.2L104.6,389.8L103.8,387.3L101.5,386.2L95.8,382.0L94.1,381.4L93.9,380.0L95.7,381.0L96.0,379.5L98.4,377.1L99.0,372.7L97.2,371.2L100.9,369.3L102.1,367.9L103.5,368.7L104.2,371.1L103.0,374.2L105.3,373.2L105.5,375.2L106.4,374.8L107.3,378.1L105.6,378.9L110.4,379.0L108.5,378.0L107.9,376.6L110.3,374.6L110.8,373.2L114.0,375.0L116.3,375.5L116.2,377.4L119.5,378.5L124.1,382.0L130.6,382.9L128.0,381.0L130.5,378.6L130.5,378.6L130.1,377.0L131.1,373.3L132.8,371.6L135.0,370.8L149.3,370.5L151.4,370.0L155.7,368.0L161.5,363.1L164.0,362.3L160.7,358.0L160.0,355.6L165.1,344.4L163.0,340.3L160.0,337.2L157.9,337.6L151.8,336.8L147.5,333.9L145.4,329.0L139.6,324.7L138.6,322.3L138.8,320.0L137.7,317.6L135.9,315.4L136.0,313.5L137.4,311.8L136.1,307.8L136.4,304.0L134.9,301.9L132.9,301.2L131.0,299.1L130.5,295.2L128.8,290.8L130.2,289.0L132.4,287.8L136.9,288.1L138.8,289.5L140.9,289.4L140.4,285.5L137.8,277.2L139.4,273.2L141.5,272.0L142.5,270.2L144.6,269.4L147.9,270.2L147.6,268.3Z " data-id="GR.EP" data-name="Ipeiros" id="GR.EP"/>
utf-8utf-8<path d="M758.2,579.6L760.8,575.9L762.5,572.1L756.9,572.5L753.1,573.6L750.4,577.0L747.4,578.8L744.1,579.8L741.6,579.0L739.3,579.8L732.5,578.9L729.6,579.0L726.2,582.0L724.6,584.4L723.3,588.1L719.9,591.9L719.1,593.8L719.9,596.6L721.6,597.0L726.1,595.7L730.4,595.7L734.8,591.8L737.0,590.8L746.9,589.5L748.8,588.6L758.2,579.6Z M830.4,561.9L825.6,558.9L821.5,557.8L816.5,554.4L812.3,553.7L808.3,553.7L795.4,556.8L794.0,559.7L788.5,561.3L787.1,564.3L788.9,572.0L790.1,573.4L791.2,572.1L792.9,573.1L793.4,571.5L796.5,569.4L803.3,568.5L804.7,569.9L808.8,571.6L811.0,574.6L812.5,577.7L813.7,578.1L822.0,578.1L823.1,577.5L826.3,573.3L836.4,569.2L840.5,568.3L843.5,569.1L842.8,565.3L841.6,566.2L839.4,562.5L839.5,561.3L843.3,559.4L837.8,559.0L834.5,558.0L834.3,556.3L830.8,558.0L828.8,557.4L832.1,561.7L831.8,563.3L830.4,561.9Z M743.0,456.4L741.1,453.3L740.7,453.7L743.0,456.4Z M733.0,450.6L729.8,449.9L734.1,453.8L738.2,455.2L739.7,453.9L735.2,450.7L733.0,450.6Z M653.3,450.7L652.4,448.0L651.2,447.9L649.9,450.8L653.3,450.7Z M715.5,443.6L715.1,442.6L709.4,440.9L707.0,440.6L690.3,444.0L689.0,449.1L690.6,453.3L694.8,457.8L696.6,459.2L701.6,460.7L703.1,462.1L705.1,467.7L704.6,468.9L707.4,470.8L708.8,470.9L709.5,476.2L710.3,477.8L708.5,478.7L707.6,483.7L704.1,483.7L698.8,486.6L697.0,491.8L700.1,494.4L700.1,495.4L702.4,494.5L704.4,497.9L706.6,499.1L709.5,502.4L715.0,504.6L716.1,504.2L717.9,498.3L723.3,496.6L725.9,495.1L725.7,493.0L724.2,489.5L725.2,486.3L727.7,484.1L730.7,483.7L728.6,477.8L726.3,467.0L726.2,463.1L727.4,461.0L725.2,460.1L725.8,459.2L723.3,457.2L725.8,456.5L726.0,451.1L727.3,449.3L723.2,445.8L720.9,449.3L715.5,443.6Z M659.8,439.5L658.2,440.6L657.4,439.7L655.1,441.5L652.6,440.6L655.2,444.4L657.2,446.4L657.6,450.4L658.8,449.6L662.7,450.4L663.3,444.4L664.0,443.5L659.8,439.5Z M744.6,338.6L745.1,337.2L743.0,335.7L739.8,334.9L737.5,333.5L738.0,330.4L735.8,329.8L715.1,330.4L716.8,336.5L715.8,338.2L712.9,339.3L708.1,340.1L705.8,341.1L704.6,343.0L701.5,344.0L698.3,343.5L694.1,344.6L690.4,344.9L688.7,342.0L684.4,345.9L681.7,347.3L681.1,351.2L681.8,352.7L681.2,357.1L680.1,358.6L682.5,359.7L686.9,363.6L690.5,364.7L695.3,367.4L705.4,370.9L707.9,371.2L710.0,370.6L711.5,369.1L716.0,362.0L717.6,358.1L720.5,355.4L726.2,354.8L730.0,355.6L732.6,357.6L733.1,359.0L728.7,362.5L725.9,365.4L722.0,366.0L720.9,366.9L718.9,370.3L714.6,371.2L710.8,373.2L712.8,373.5L720.6,381.0L726.6,381.2L733.6,382.6L741.3,386.6L745.5,387.1L751.3,388.8L758.7,388.1L765.2,385.9L764.9,382.9L762.6,381.2L757.7,375.2L752.9,371.9L750.8,369.4L752.7,368.3L756.6,368.0L758.6,368.6L761.4,372.3L761.3,379.0L765.3,382.0L767.1,381.0L770.7,382.4L772.0,380.9L771.8,377.1L770.0,376.1L767.6,373.4L765.8,370.2L765.6,367.4L763.2,366.3L763.0,364.9L760.3,361.5L761.7,360.6L757.4,357.9L751.3,350.9L747.2,349.3L741.9,344.8L741.5,344.0L744.6,338.6Z M578.7,317.9L583.5,310.3L584.0,306.8L579.7,304.2L577.7,305.0L578.2,306.1L575.9,307.9L575.9,311.2L577.9,317.9L578.7,317.9Z M621.8,239.6L623.1,237.7L614.2,240.8L612.1,244.2L612.2,245.4L605.4,249.4L605.5,248.3L600.4,242.5L597.7,241.6L590.0,243.5L587.0,241.6L579.9,243.2L575.9,243.5L577.4,245.0L578.1,250.2L581.0,253.9L579.5,257.0L580.5,258.9L579.3,261.7L581.8,262.7L581.6,264.7L588.1,262.7L589.2,265.6L593.0,262.6L591.1,268.5L594.9,269.9L599.5,270.4L600.2,269.5L597.5,265.1L596.1,263.6L594.6,264.6L595.2,262.5L597.5,259.2L596.2,257.9L600.6,254.1L605.0,256.3L605.8,258.4L601.5,262.7L603.6,263.1L605.8,265.9L607.8,266.6L608.7,269.8L615.2,272.7L615.6,269.5L616.5,268.7L613.5,263.2L614.8,261.7L612.9,260.5L613.0,259.1L615.0,256.9L613.4,255.9L616.3,254.1L617.9,254.1L617.1,250.6L618.7,247.9L623.9,244.4L621.8,239.6Z " data-id="GR.AN" data-name="Voreio Aigaio" id="GR.AN"/>
utf-8utf-8<path d="M516.2,529.2L516.7,527.3L513.0,524.2L511.8,525.2L511.9,530.2L516.2,529.2Z M515.9,406.8L513.8,405.4L512.6,406.8L514.3,408.7L515.9,406.8Z M538.6,400.5L537.9,393.7L536.2,392.1L527.7,386.8L525.4,387.4L524.4,388.7L525.3,396.8L522.8,398.8L522.7,401.5L525.8,401.2L531.0,404.8L531.2,406.3L534.8,405.8L535.3,407.4L537.1,406.1L538.0,407.1L539.6,411.2L535.0,413.2L539.4,418.0L539.6,415.7L540.8,414.4L543.5,415.1L544.7,416.5L548.0,416.1L549.0,417.2L552.5,413.7L552.3,412.6L549.7,408.8L547.1,406.7L541.9,403.5L538.6,400.5Z M407.5,398.6L405.0,392.1L404.9,390.6L402.4,390.1L400.0,388.8L398.6,386.6L399.2,383.9L396.2,381.8L392.2,380.6L389.1,378.1L386.1,378.6L380.4,382.1L378.1,382.9L370.9,382.9L367.8,385.3L366.2,385.9L366.4,389.5L364.7,391.2L362.4,391.3L354.3,397.3L350.9,398.2L345.9,400.9L342.2,402.0L337.8,406.2L338.0,409.4L340.6,407.9L353.1,406.8L355.9,405.4L355.9,403.4L351.6,401.5L351.5,400.5L358.4,401.5L366.7,406.1L373.6,405.4L376.5,406.3L380.7,408.4L392.7,416.6L396.1,418.6L397.5,421.3L399.4,422.4L403.0,425.8L409.7,429.3L411.9,432.9L417.4,436.7L418.7,441.5L422.9,443.7L428.1,444.4L430.0,445.2L431.8,447.2L434.7,451.4L434.0,453.3L435.1,455.3L430.9,462.1L433.1,461.0L436.5,467.5L437.9,468.9L439.5,469.1L444.8,468.0L453.0,469.9L458.2,469.2L468.5,470.9L476.4,469.9L484.4,470.5L485.8,472.9L486.0,475.5L487.0,476.8L482.5,479.7L485.9,479.9L493.9,482.7L491.9,487.6L493.6,488.7L493.2,490.3L495.1,490.3L495.2,488.7L497.9,486.7L499.2,488.7L495.9,493.2L495.6,495.9L498.3,496.5L497.4,494.5L502.5,495.8L503.8,499.5L505.7,501.4L503.7,508.8L506.6,509.2L507.0,513.0L506.3,514.1L509.5,514.1L511.4,513.2L513.8,513.4L515.9,514.7L516.8,517.0L521.2,520.9L519.8,522.8L523.1,527.5L529.1,531.3L530.7,529.8L528.7,527.5L530.4,525.3L533.4,524.0L535.6,525.5L541.0,532.8L543.4,532.4L549.7,528.8L550.6,526.4L551.2,520.1L552.0,518.1L550.0,515.0L549.6,511.4L549.9,504.2L539.6,506.1L537.4,507.2L535.4,506.4L530.7,505.9L527.2,503.5L521.7,504.2L519.3,500.4L515.1,498.3L510.1,494.4L510.3,489.9L509.3,485.1L507.4,482.2L504.3,478.8L503.3,472.9L500.4,469.9L499.9,468.7L502.0,467.1L499.4,464.1L499.4,459.1L501.1,454.5L503.8,452.2L501.8,449.8L490.6,441.4L489.7,437.6L490.1,436.1L493.3,433.6L491.0,432.3L483.4,429.8L475.6,430.0L473.0,428.9L471.2,431.1L469.0,431.2L458.4,429.4L453.1,427.8L448.4,425.7L445.9,424.1L443.7,419.8L441.7,418.0L439.4,417.6L437.3,419.0L434.8,419.0L429.8,417.5L426.5,414.2L423.4,413.5L418.0,409.3L412.7,407.2L410.4,404.7L407.5,398.6Z M164.0,362.3L164.4,366.9L167.8,370.9L168.8,372.9L168.5,376.7L166.0,382.1L166.6,384.1L178.8,390.9L179.8,393.4L179.4,397.2L180.1,399.2L182.0,400.6L184.0,400.9L186.0,402.3L192.4,403.7L196.3,405.4L196.6,407.4L190.1,410.6L188.4,412.3L188.0,416.5L190.1,420.6L192.0,422.5L198.6,426.5L202.5,428.3L206.6,428.5L212.8,427.5L214.2,429.6L214.1,431.5L216.6,431.1L220.5,427.9L220.1,424.0L220.6,422.1L226.7,422.7L231.0,420.6L232.8,419.0L237.5,417.0L237.8,418.2L242.5,420.8L242.7,422.8L241.1,426.4L242.0,430.4L240.8,434.1L241.7,438.4L240.3,440.2L240.5,442.1L244.3,445.8L242.7,449.8L243.5,454.1L242.5,455.9L240.3,457.1L236.2,458.0L231.8,462.0L229.7,466.3L230.3,469.1L229.7,471.5L229.7,471.5L230.4,472.5L234.1,472.6L238.5,469.3L241.8,468.1L245.2,468.2L248.2,470.9L250.2,469.9L252.5,470.0L258.7,472.6L262.5,473.6L264.4,474.9L264.3,476.3L267.0,476.8L269.7,480.8L270.2,478.4L273.3,475.5L280.5,477.3L284.8,476.8L291.8,477.9L291.5,475.8L293.3,473.2L290.2,470.9L293.9,467.5L292.7,462.1L300.8,466.7L302.1,468.9L308.2,475.6L310.0,478.8L309.6,480.8L311.2,483.3L315.0,485.5L317.6,483.7L318.1,481.6L315.6,478.8L318.2,474.9L322.2,475.2L321.9,474.1L319.8,473.8L321.9,471.2L324.7,472.4L326.6,475.3L325.8,477.8L329.3,482.0L331.3,482.6L334.1,484.5L340.8,486.6L340.1,488.3L337.3,491.5L342.3,494.5L343.9,493.6L350.1,492.5L351.0,494.5L352.5,492.5L354.7,499.4L356.2,498.7L361.7,499.4L360.9,497.8L356.1,497.4L357.2,495.2L359.3,494.8L366.2,495.5L371.3,499.4L369.0,499.4L369.1,500.4L374.4,500.4L377.8,496.9L379.3,497.2L382.6,500.4L380.4,502.3L382.3,503.0L390.4,504.1L390.6,502.9L385.4,501.3L391.9,501.4L395.9,502.1L397.3,500.4L397.6,493.8L399.0,492.1L401.2,491.0L405.4,489.8L407.3,490.9L408.7,493.4L407.5,497.1L409.4,498.6L413.5,498.5L415.4,499.6L420.4,505.9L422.4,507.0L426.4,507.7L428.2,509.2L430.3,509.5L434.2,506.7L437.0,503.3L436.8,489.8L438.9,485.9L442.6,482.3L448.9,480.3L452.3,478.1L447.5,478.9L445.8,478.8L441.2,476.0L435.0,467.7L431.2,466.0L428.5,462.1L428.4,461.0L431.4,459.2L427.1,455.3L424.2,453.8L421.7,456.8L409.9,454.8L402.0,455.2L399.5,454.2L401.6,451.8L404.3,451.7L403.5,449.7L400.3,448.9L396.2,445.7L394.8,445.7L393.8,447.4L394.4,444.1L398.7,440.6L398.8,438.8L394.9,433.6L382.9,429.4L380.7,428.9L382.0,431.7L380.6,433.5L371.8,435.7L370.0,434.1L365.4,422.9L363.2,420.2L360.1,419.1L353.6,419.0L351.9,418.6L349.4,416.7L345.0,416.7L342.9,419.0L338.1,414.6L336.5,414.2L332.2,415.2L331.2,414.8L325.8,409.8L322.6,405.4L321.2,405.5L315.8,408.3L314.7,407.6L310.2,408.3L310.9,406.3L309.0,408.1L306.7,407.5L305.4,405.8L307.4,403.5L302.0,404.3L301.6,400.5L303.3,401.5L304.0,400.5L308.0,399.3L312.4,396.3L320.7,401.5L322.7,400.2L325.8,402.3L332.6,401.5L337.5,398.9L338.3,394.6L339.8,394.3L344.4,395.6L347.7,393.9L348.4,391.7L354.7,389.9L355.2,389.4L351.5,387.8L347.2,389.8L340.6,390.3L336.8,387.0L334.8,386.2L330.6,386.7L324.2,384.9L322.2,385.0L314.4,380.3L312.0,379.5L303.3,380.4L298.8,380.1L296.8,379.0L295.8,376.9L294.8,370.6L295.1,367.2L287.6,367.9L285.7,366.5L284.3,360.1L278.0,356.1L269.7,353.2L263.8,350.0L254.5,361.3L251.7,369.3L249.5,371.2L245.3,372.1L243.1,373.3L240.3,376.7L235.6,379.1L231.4,380.0L229.4,379.7L228.8,377.6L229.3,375.8L228.5,371.8L226.6,369.6L222.6,368.3L218.4,365.3L216.3,365.4L210.2,369.8L208.0,370.7L206.0,370.4L204.1,368.9L203.0,366.9L203.8,363.1L202.7,361.1L198.8,358.9L197.7,353.0L196.6,351.0L194.7,349.5L185.0,351.9L182.8,353.5L182.2,355.4L180.5,357.0L176.6,354.1L174.5,354.6L170.6,357.5L165.6,362.9L164.0,362.3Z " data-id="GR.GC" data-name="Stereá Elláda" id="GR.GC"/>
utf-8utf-8<path d="M773.2,968.0L773.5,966.3L770.6,966.4L773.2,968.0Z M660.7,895.5L661.3,893.8L658.3,891.8L657.2,892.0L654.4,895.0L660.7,895.5Z M640.8,968.0L645.5,966.3L647.5,966.1L651.2,967.1L653.5,965.1L656.1,964.5L662.8,965.1L664.6,964.7L678.8,959.4L686.7,959.1L697.5,960.4L701.1,958.6L708.3,956.3L732.8,957.4L741.1,954.3L746.0,953.3L750.4,954.1L753.1,952.6L757.5,955.2L764.8,955.4L767.8,958.3L772.7,957.9L782.7,953.3L783.3,952.6L786.8,943.9L788.3,938.7L787.0,936.6L790.7,929.9L788.3,931.6L786.2,928.4L783.4,921.0L788.4,915.7L789.2,913.1L785.3,915.1L786.3,917.0L782.3,917.5L780.0,919.7L778.0,922.8L775.0,925.9L775.9,926.8L773.9,928.5L771.2,929.9L768.2,930.2L765.6,928.8L766.8,927.4L762.2,926.2L760.4,924.8L756.5,925.9L751.2,929.9L746.1,931.1L742.3,931.4L735.6,936.7L733.9,940.7L732.5,941.6L729.9,941.7L724.7,939.1L721.8,939.1L719.6,933.3L720.7,930.8L719.8,927.9L720.9,922.9L723.7,918.9L722.6,917.5L721.5,921.0L720.3,920.3L720.3,917.0L719.4,916.1L723.8,910.1L716.9,910.1L708.7,908.7L690.8,915.6L687.5,916.1L684.1,915.3L677.8,909.1L669.7,909.1L663.3,910.1L656.7,908.2L646.2,909.2L642.7,908.9L640.0,907.3L638.7,903.7L639.2,900.3L636.4,900.4L635.0,898.8L629.3,897.4L627.9,900.3L620.4,897.4L614.2,900.3L611.7,899.0L599.9,897.0L592.3,898.4L585.3,902.2L582.3,903.2L572.9,904.9L570.5,906.3L566.2,905.3L556.1,908.3L550.4,906.1L548.0,906.0L546.1,896.2L544.2,889.6L538.9,893.1L534.9,892.9L530.8,890.2L522.8,886.8L522.1,885.6L523.7,884.4L531.0,885.6L533.5,885.5L536.2,884.0L537.7,880.6L534.8,874.3L532.1,872.6L526.7,872.0L522.9,873.7L524.8,878.8L521.7,878.6L519.3,882.6L514.2,883.7L507.5,883.0L505.8,883.6L502.5,882.7L492.5,881.6L490.3,880.2L487.5,875.7L487.2,870.9L485.5,866.3L485.3,864.5L486.4,862.0L481.9,859.7L480.3,861.5L479.2,867.2L480.6,869.8L479.4,871.2L482.1,878.8L482.1,882.3L481.2,884.7L479.5,886.2L477.2,886.6L472.2,885.6L468.7,881.6L467.8,879.2L467.2,873.3L464.2,875.7L464.6,879.0L463.1,882.6L463.3,885.6L464.9,886.5L463.3,892.5L465.0,895.9L462.6,901.4L461.6,904.6L462.7,907.2L462.2,908.8L463.9,912.2L460.0,914.1L460.2,916.1L461.7,916.9L468.4,921.8L468.2,923.1L471.7,924.6L478.5,924.2L480.3,925.9L483.5,924.3L491.8,924.6L496.9,922.0L501.0,924.4L506.0,925.1L516.0,924.8L517.9,925.8L521.6,929.9L523.8,930.8L527.7,928.9L531.0,929.9L539.4,929.9L541.0,928.8L543.5,930.8L552.5,932.1L565.2,930.8L565.6,933.1L573.0,936.7L574.9,935.9L581.2,938.7L585.3,943.0L591.8,944.3L602.2,944.4L606.6,947.1L608.9,952.3L609.2,954.3L609.5,964.2L607.8,968.0L636.6,967.0L640.8,968.0Z " data-id="GR.CR" data-name="Kriti" id="GR.CR"/>
utf-8utf-8<path d="M443.2,197.6L441.4,194.9L439.5,195.6L439.4,197.1L445.3,199.5L445.8,198.8L443.2,197.6Z M187.1,114.2L188.3,119.1L192.4,120.8L194.3,122.5L194.1,124.4L192.3,126.0L185.9,127.7L181.7,127.5L181.1,129.3L183.1,131.0L185.5,137.4L186.9,139.5L191.0,140.8L191.3,142.7L189.1,148.8L193.2,149.4L198.1,150.9L200.2,150.8L202.2,151.8L204.7,151.8L202.5,157.9L203.0,161.7L206.4,165.6L205.2,169.2L205.5,171.1L207.4,172.5L210.4,177.1L212.3,178.9L216.7,180.7L220.7,183.1L220.9,185.1L222.9,186.1L229.2,185.2L230.3,187.2L230.8,191.0L235.0,195.1L235.9,199.0L237.4,201.1L243.0,203.4L241.4,206.6L241.5,210.8L240.1,212.4L235.7,214.4L235.1,216.6L235.7,219.3L236.8,221.4L237.7,219.7L239.9,218.5L246.1,219.8L244.9,223.4L245.3,227.6L246.4,229.7L248.4,230.3L250.7,228.4L252.7,224.9L254.5,223.3L259.2,221.8L263.1,223.9L264.2,225.9L264.5,232.0L266.2,236.1L270.0,239.7L278.2,244.8L281.1,249.0L285.0,252.3L289.4,253.7L298.4,251.3L300.4,251.6L302.3,253.1L309.4,251.9L309.3,251.4L306.8,247.3L304.0,246.4L295.8,240.5L291.9,235.2L291.7,230.5L290.8,227.3L288.3,222.6L288.3,219.5L291.9,210.6L291.6,209.0L294.2,199.3L296.8,194.4L298.1,191.2L297.6,189.7L295.4,189.1L291.2,184.9L291.3,182.9L289.1,178.7L287.3,177.3L289.9,175.5L295.9,176.0L295.9,174.6L298.0,173.4L295.7,172.3L295.7,170.6L297.4,169.2L302.8,171.4L303.1,169.7L304.8,170.8L305.3,165.2L308.7,162.0L310.8,163.0L313.1,163.1L316.8,159.9L317.6,156.1L316.5,153.5L319.7,152.4L322.9,152.8L325.8,154.7L327.9,158.2L327.3,160.7L331.6,163.1L332.5,165.6L329.8,169.2L328.2,170.5L324.4,171.2L317.1,171.6L314.7,172.6L316.0,174.9L320.6,179.3L319.9,180.2L323.6,184.3L324.8,186.6L323.9,188.8L332.7,189.7L338.5,193.6L340.9,197.2L349.0,199.9L355.3,204.1L357.3,203.6L361.3,205.5L368.2,207.4L373.1,209.8L375.7,213.3L376.9,218.3L376.8,223.6L375.7,228.2L377.2,230.3L381.7,234.8L385.8,242.4L384.0,248.3L385.2,247.7L393.7,246.3L396.5,246.8L413.9,253.6L424.0,255.1L428.1,253.6L428.9,252.6L423.0,251.2L420.2,248.3L419.2,244.8L411.3,243.0L398.7,236.9L395.0,233.4L388.0,225.1L385.0,222.3L382.6,222.1L377.9,213.6L377.9,210.9L380.3,206.2L383.9,203.9L388.5,203.7L393.9,205.0L400.7,208.5L410.3,209.2L412.5,209.8L416.6,212.3L428.1,225.1L430.1,228.6L431.3,229.0L431.3,233.4L432.0,235.0L436.9,241.6L437.2,239.1L445.9,244.4L445.5,245.9L448.4,246.3L448.3,248.9L450.7,249.5L456.6,249.3L454.9,246.4L457.2,246.3L455.7,244.2L456.1,243.0L458.9,240.5L457.7,236.7L454.9,236.9L454.4,235.3L456.3,234.6L452.9,228.7L454.3,227.4L452.8,224.5L448.2,223.0L442.7,218.8L439.3,218.6L431.1,215.1L426.9,212.6L425.9,210.3L421.7,207.9L417.9,201.8L417.4,199.5L417.9,197.1L421.0,192.6L424.4,193.9L427.0,193.4L432.6,190.7L434.3,190.6L438.6,191.7L442.9,191.1L447.1,193.5L451.7,197.5L452.6,198.0L452.4,192.5L452.2,189.0L451.9,188.6L451.8,188.7L448.7,189.2L441.8,188.3L436.0,185.0L430.5,178.3L429.3,174.6L429.5,171.9L431.1,170.3L438.9,169.4L439.6,167.5L436.2,164.0L435.0,164.5L429.9,164.0L425.6,160.8L419.8,152.6L415.3,150.8L413.0,148.7L411.7,145.7L412.0,142.1L413.3,139.9L417.9,136.3L424.0,133.9L429.1,133.8L429.2,133.8L429.4,132.8L439.0,130.8L441.2,129.6L446.8,124.9L448.8,121.5L454.8,116.9L456.2,115.3L456.0,113.4L457.2,109.9L455.6,105.8L456.2,104.1L453.4,102.8L447.5,98.5L444.6,94.2L442.2,92.7L438.0,92.8L436.1,94.7L432.3,91.4L426.1,90.0L419.8,86.0L412.1,78.4L406.3,74.0L405.2,72.0L405.6,68.3L406.6,66.6L406.4,64.7L396.3,60.5L394.0,54.5L394.3,51.4L393.0,52.2L389.1,52.1L381.2,48.5L369.9,48.2L367.8,48.9L362.7,52.2L360.3,52.5L355.5,48.5L350.9,49.6L346.7,53.6L346.8,56.1L344.3,59.1L341.8,59.8L337.0,60.3L314.0,57.1L303.6,56.4L298.5,57.2L295.4,59.9L295.3,75.2L294.7,80.5L293.7,83.3L292.6,84.2L285.1,78.6L283.4,79.0L283.2,82.4L281.5,84.7L277.6,86.9L269.5,86.6L263.9,87.8L254.1,85.2L248.2,86.3L246.5,83.4L241.9,82.7L237.4,81.4L232.6,81.4L230.1,82.5L226.4,85.9L223.2,86.4L219.2,84.5L217.3,82.5L215.3,84.3L208.2,86.3L204.9,88.0L201.3,90.9L201.0,96.0L199.7,98.2L189.6,108.4L189.3,112.7L188.0,114.0L187.1,114.2Z " data-id="GR.MC" data-name="Kentriki Makedonia" id="GR.MC"/>
utf-8utf-8<path d="M454.8,199.3L458.2,200.6L467.6,202.2L472.5,204.3L475.6,207.9L478.2,212.3L481.7,216.6L487.6,220.3L489.6,224.8L491.8,225.3L496.6,224.2L500.1,221.4L498.5,217.7L490.6,210.9L483.5,202.3L479.3,198.4L475.9,198.4L473.5,194.3L466.5,191.7L464.4,192.8L461.6,191.6L457.5,187.9L454.2,182.4L451.9,180.0L449.6,180.2L449.8,182.1L452.8,187.9L451.9,188.6L452.2,189.0L452.4,192.5L452.6,198.0L454.8,199.3Z " data-id="GR.MA" data-name="Ayion Oros" id="GR.MA"/>
utf-8utf-8<path d="M641.8,174.6L639.9,173.4L630.4,170.8L627.0,170.8L624.1,171.8L617.8,175.5L615.7,175.4L618.7,179.1L627.0,184.7L631.2,186.9L633.7,187.1L644.1,183.6L645.4,182.3L644.6,180.2L645.2,178.3L641.8,174.6Z M537.8,156.2L536.4,153.5L535.2,149.3L535.4,147.4L537.3,146.8L537.0,144.0L534.7,143.5L533.7,141.8L534.2,140.3L536.6,140.2L531.3,136.8L527.7,132.9L522.9,132.3L519.1,130.6L511.1,137.4L507.8,142.5L506.5,146.1L506.2,149.7L507.1,153.5L508.8,154.7L511.3,154.8L517.1,157.3L521.8,161.8L522.5,163.1L533.7,157.8L534.8,156.2L536.9,157.4L537.8,156.2Z M394.3,51.4L394.0,54.5L396.3,60.5L406.4,64.7L406.6,66.6L405.6,68.3L405.2,72.0L406.3,74.0L412.1,78.4L419.8,86.0L426.1,90.0L432.3,91.4L436.1,94.7L438.0,92.8L442.2,92.7L444.6,94.2L447.5,98.5L453.4,102.8L456.2,104.1L455.6,105.8L457.2,109.9L456.0,113.4L456.2,115.3L454.8,116.9L448.8,121.5L446.8,124.9L441.2,129.6L439.0,130.8L429.4,132.8L429.2,133.8L431.5,134.3L445.0,140.6L450.1,141.8L455.1,142.1L459.2,141.2L484.1,126.9L480.5,126.3L480.3,124.2L482.7,123.6L480.2,120.1L481.8,119.2L486.5,115.4L488.4,112.3L491.0,111.0L494.1,110.7L496.6,111.6L497.5,110.2L501.0,108.8L508.2,110.2L508.7,112.1L512.7,115.4L512.3,117.2L515.4,120.8L516.7,123.1L520.3,120.1L524.5,122.1L523.7,123.1L526.0,124.0L528.2,123.9L532.3,122.1L536.6,123.8L539.9,120.8L542.9,116.6L545.9,114.5L551.2,112.1L556.8,111.5L557.7,110.4L556.6,107.8L561.7,104.9L561.4,102.6L563.5,102.2L572.7,102.1L576.6,104.1L573.3,105.7L573.0,108.6L578.6,111.4L587.7,112.9L588.6,113.6L592.1,110.1L596.9,111.5L602.1,114.7L606.5,116.4L614.3,117.7L620.6,121.4L624.0,122.1L628.1,120.6L633.1,121.5L638.3,123.1L643.1,124.0L651.2,123.4L653.9,124.3L660.1,124.5L662.1,125.0L664.5,123.8L668.4,124.9L675.0,128.8L673.8,125.8L675.6,127.8L676.7,127.1L680.3,126.9L680.5,128.9L675.1,129.7L675.2,130.6L677.8,131.7L679.4,137.1L680.6,139.7L685.0,140.1L688.3,138.6L690.5,135.8L691.1,132.1L692.5,129.5L698.1,124.6L697.6,120.2L699.1,118.9L698.9,117.4L700.6,119.3L702.5,114.5L707.7,116.1L706.3,113.6L707.5,112.3L712.1,109.8L711.5,107.4L710.2,106.0L710.9,103.3L712.6,103.1L713.8,99.2L710.6,97.8L707.5,93.2L706.9,91.2L708.4,87.6L705.7,85.4L707.4,82.4L705.8,80.0L705.2,77.5L706.2,71.8L704.2,69.4L705.3,68.3L712.5,67.7L714.3,66.8L717.0,64.3L722.4,60.5L727.5,54.9L733.7,58.0L735.8,57.8L737.1,56.4L737.9,54.1L736.9,45.5L730.8,29.3L731.3,27.9L729.6,19.0L727.7,21.9L726.5,20.9L721.0,18.4L714.0,14.0L714.9,10.3L706.5,8.1L703.1,5.5L701.0,4.9L693.7,5.5L683.6,0.0L681.3,2.2L675.1,2.3L672.1,3.1L669.3,5.4L666.3,6.7L666.1,10.4L666.6,12.4L668.9,15.8L672.3,16.8L675.5,19.6L677.0,23.1L677.6,27.2L680.8,28.6L681.6,30.4L681.8,35.3L680.5,37.5L684.2,41.9L684.6,43.8L682.9,45.2L680.7,52.2L678.0,54.2L668.5,56.3L661.8,59.9L657.4,59.8L653.1,61.5L650.8,60.6L647.1,57.2L644.4,56.4L639.4,59.4L631.4,62.2L630.2,62.4L625.4,60.5L615.2,59.9L613.7,60.3L611.5,64.3L607.4,64.3L604.6,64.7L586.0,70.4L580.7,70.2L578.3,69.0L572.8,62.9L563.0,57.0L561.1,57.3L541.7,50.1L537.9,48.1L533.0,49.0L528.6,49.2L529.0,53.5L528.2,55.5L526.0,55.4L523.3,53.4L518.9,48.8L516.5,47.0L509.4,45.8L509.9,44.4L502.4,42.6L501.7,39.5L500.5,38.8L495.1,27.9L492.6,26.0L486.9,27.6L484.9,30.6L480.8,30.6L474.4,31.9L471.3,31.6L467.7,32.0L467.4,28.9L462.9,25.7L458.9,26.8L455.4,29.3L454.5,32.9L451.6,30.8L448.1,29.9L443.5,29.5L440.3,30.9L441.8,39.5L441.2,40.6L435.9,39.4L432.2,42.9L430.5,43.0L424.7,39.5L423.8,39.4L421.0,42.0L419.2,42.8L412.5,43.5L410.9,44.2L408.7,48.1L406.9,48.6L403.1,47.8L399.3,47.8L397.2,48.6L394.6,51.2L394.3,51.4Z " data-id="GR.MT" data-name="Anatoliki Makedonia kai Thraki" id="GR.MT"/>
utf-8utf-8<path d="M867.5,897.4L868.7,895.5L862.8,896.7L858.7,898.4L855.8,897.4L851.8,903.7L851.1,906.2L854.0,908.2L858.2,905.2L859.7,904.9L868.6,900.3L867.5,897.4Z M889.3,842.2L889.5,840.3L887.2,839.5L883.4,843.3L882.5,842.3L881.9,846.8L882.2,851.1L881.7,855.3L879.0,858.8L878.2,866.2L874.0,870.0L874.3,875.1L878.5,877.7L879.2,879.3L879.0,883.6L880.7,887.6L880.7,889.1L878.8,889.6L879.8,891.4L878.1,892.1L879.0,895.1L880.2,896.4L884.4,898.0L883.8,900.3L885.1,899.6L887.5,896.4L885.9,897.4L886.2,893.7L888.2,891.0L891.1,889.8L894.2,890.6L894.5,887.5L893.8,886.0L890.3,882.7L891.4,880.3L886.9,872.8L883.7,870.5L883.4,864.9L886.2,858.2L889.2,854.1L887.7,846.8L889.3,842.2Z M928.9,783.1L928.8,779.8L922.8,779.5L918.3,780.2L917.4,781.5L917.7,783.6L919.3,784.3L925.3,784.2L928.9,783.1Z M940.6,775.6L939.3,773.6L936.7,775.5L936.4,776.7L938.5,776.5L939.1,779.2L940.6,775.6Z M721.1,762.4L718.8,762.1L714.7,758.7L710.4,757.0L706.9,759.6L708.1,763.1L712.1,763.8L716.7,762.4L720.3,764.3L721.1,762.4Z M999.0,752.5L996.7,749.1L995.7,749.2L992.6,753.7L984.9,753.2L979.7,756.4L967.3,763.4L960.6,765.8L958.9,768.5L954.1,774.3L950.7,775.3L948.1,781.3L947.9,784.3L944.0,788.1L939.7,791.2L937.9,792.0L941.4,794.0L941.2,796.5L947.4,802.6L948.1,805.8L947.7,809.4L945.3,819.5L944.0,821.5L947.7,827.2L952.8,830.6L958.0,827.1L961.9,823.2L964.8,818.8L968.8,811.1L970.5,809.1L975.4,805.8L978.1,804.8L980.5,804.9L986.8,806.8L984.9,803.9L986.9,799.9L982.7,798.0L984.8,791.0L985.9,790.6L990.2,786.7L991.3,782.2L993.3,778.8L993.5,773.0L996.5,768.3L996.8,763.3L999.5,761.1L997.6,754.6L999.0,752.5Z M678.1,760.4L678.1,757.5L676.4,753.7L672.9,750.0L668.6,747.1L664.3,745.7L662.9,747.6L667.5,748.8L669.3,749.8L671.8,758.5L670.0,761.5L664.8,762.7L663.5,763.4L665.7,764.5L671.3,766.1L673.7,766.4L675.8,765.5L677.3,763.3L678.1,760.4Z M896.6,746.8L895.0,745.7L890.0,748.9L888.7,746.6L888.5,752.1L891.2,755.6L893.7,753.1L896.6,753.6L896.2,755.7L897.3,758.1L899.0,759.8L903.4,760.0L905.9,758.0L906.5,756.5L905.5,754.6L903.6,755.9L901.1,755.7L899.5,754.2L900.4,751.6L898.5,750.8L896.6,746.8Z M872.7,734.1L875.4,733.0L876.1,730.3L873.3,726.1L871.1,726.2L867.8,728.4L866.8,731.3L867.4,732.8L872.7,734.1Z M788.7,728.9L785.0,725.7L780.4,723.1L776.8,722.9L778.9,725.6L780.2,726.1L781.2,730.5L777.9,729.9L775.3,732.9L769.4,728.9L767.8,729.9L766.1,729.0L766.2,732.2L767.4,733.9L766.7,735.9L768.7,737.1L771.3,740.9L773.3,741.7L776.1,741.5L776.5,736.9L777.9,733.6L780.5,731.9L783.9,732.0L787.1,729.9L787.8,731.2L789.6,730.9L788.7,728.9Z M947.5,725.0L952.1,722.9L951.7,721.7L949.5,722.0L946.9,723.5L945.2,726.0L943.6,726.0L943.7,727.5L940.9,731.9L946.5,731.9L944.9,733.2L946.5,734.1L951.8,735.9L949.5,737.9L949.6,738.8L955.1,736.9L953.8,734.6L953.1,724.9L949.4,728.0L946.9,727.0L947.5,725.0Z M613.8,728.0L611.7,724.9L601.9,719.0L598.7,719.0L600.0,721.6L605.6,724.9L609.1,728.1L613.9,728.9L613.8,728.0Z M632.5,719.7L638.2,713.1L638.3,711.2L633.7,711.1L629.1,714.1L625.5,722.9L628.5,723.1L632.5,719.7Z M552.0,706.3L548.3,703.8L547.1,706.2L550.7,710.0L552.3,709.2L555.1,713.4L553.9,714.1L549.9,714.1L547.5,713.0L545.8,708.8L540.8,706.2L539.0,710.0L539.7,712.2L538.2,719.0L538.8,721.1L543.1,719.3L557.1,719.0L564.0,715.6L563.0,707.8L563.2,706.2L561.5,704.2L559.1,704.8L554.9,707.2L552.0,706.3Z M576.4,706.7L575.7,702.1L571.5,700.3L570.1,702.3L572.9,705.7L574.8,707.2L576.4,706.7Z M663.1,710.0L656.9,707.2L655.4,705.7L651.5,700.3L646.7,704.3L647.0,705.0L645.9,710.2L648.5,711.1L656.7,718.6L661.0,720.7L663.3,717.0L662.4,713.5L664.5,712.2L663.1,710.0Z M566.1,694.0L563.8,693.0L562.2,693.5L559.9,695.4L559.5,697.1L562.0,701.8L565.9,702.2L569.4,694.4L566.1,694.0Z M668.7,696.0L670.9,694.5L669.6,689.4L664.5,694.9L666.0,696.3L668.7,696.0Z M871.2,697.8L873.7,696.2L886.1,692.6L889.7,690.5L887.7,687.8L881.8,686.4L880.3,684.1L878.6,684.6L867.0,686.5L855.7,693.9L851.4,698.4L847.9,704.3L844.5,702.3L842.3,705.2L840.9,704.6L840.4,706.6L840.6,711.7L845.5,716.6L847.6,717.0L846.9,711.7L848.5,711.1L847.0,708.1L848.8,706.3L854.9,703.2L862.4,705.6L864.8,705.2L871.2,697.8Z M693.2,688.2L694.3,686.5L690.0,683.5L686.1,686.1L685.5,687.5L693.2,688.2Z M739.7,685.5L732.9,681.6L731.1,679.6L728.1,681.6L725.0,682.5L727.6,684.6L727.7,685.5L714.9,692.2L713.6,692.5L714.6,695.1L715.9,694.4L714.2,698.4L711.5,698.3L709.0,699.3L707.5,698.3L703.7,701.2L701.9,700.3L704.2,703.9L709.2,703.5L718.3,700.3L719.8,699.1L722.6,693.7L730.2,688.2L731.8,686.5L739.7,685.5Z M865.9,677.0L860.4,676.9L859.7,678.2L863.3,681.9L867.8,682.0L865.9,677.0Z M621.9,676.0L620.3,674.7L621.3,672.3L622.7,664.8L621.0,664.7L616.9,667.6L615.9,669.7L616.7,672.4L618.9,675.2L621.4,677.3L623.1,677.6L621.9,676.0Z M572.3,663.8L571.0,665.7L573.9,669.7L574.7,673.9L576.2,677.8L580.5,684.6L584.5,679.5L586.0,678.7L584.2,672.9L579.6,667.9L578.1,665.7L575.2,666.1L572.3,663.8Z M857.4,662.1L854.6,661.8L855.8,663.0L857.9,663.0L857.4,662.1Z M842.5,664.8L844.0,663.8L833.7,659.7L832.2,657.9L833.2,660.9L837.0,665.7L839.1,664.9L840.5,666.8L838.2,671.7L837.8,673.4L838.7,675.6L836.7,678.6L837.8,678.4L840.9,681.5L841.6,680.6L844.5,681.5L845.3,681.0L846.2,677.6L849.8,678.7L851.8,678.7L850.9,673.9L851.5,671.3L851.0,669.7L848.0,669.5L847.1,670.7L846.7,668.5L842.5,664.8Z M708.0,653.0L708.5,651.0L705.8,652.5L702.4,653.0L705.1,657.0L709.8,654.9L708.0,653.0Z M644.0,653.0L645.1,650.0L642.1,648.9L641.6,653.0L638.4,652.4L637.4,651.5L638.9,648.9L635.6,650.1L632.2,652.2L629.1,654.9L627.6,657.3L630.1,657.9L626.7,660.1L625.4,661.8L624.7,667.3L624.9,668.9L635.2,672.9L637.0,672.4L641.4,668.7L643.8,664.2L642.5,657.9L644.0,653.0Z M822.3,642.8L821.2,642.0L817.3,644.5L817.8,646.4L822.9,649.7L823.3,653.5L826.2,652.8L825.9,655.7L827.4,656.6L831.5,654.0L828.3,648.7L825.9,647.5L826.2,643.8L822.3,642.8Z M681.1,656.5L680.2,650.3L677.7,645.1L672.6,641.9L668.3,643.6L666.2,647.5L659.1,653.0L655.2,658.0L651.8,658.9L655.0,662.2L657.2,668.1L659.0,671.1L658.5,672.7L662.0,674.7L666.5,682.5L671.2,680.6L674.9,676.6L677.9,675.3L680.5,668.2L680.5,665.1L681.1,656.5Z M550.4,641.1L548.4,641.7L544.9,644.1L545.2,647.1L543.9,649.2L544.8,650.0L543.5,651.3L544.1,653.0L546.2,651.4L548.9,653.0L551.9,652.4L553.1,654.9L555.2,651.8L556.8,652.1L556.1,644.1L555.2,642.1L552.8,642.1L550.4,641.1Z M854.3,631.3L853.0,629.4L854.1,627.7L852.3,627.3L852.0,630.8L854.3,631.3Z M811.5,624.7L808.4,626.0L809.4,627.4L814.1,628.0L816.8,631.4L817.5,627.0L812.8,626.3L811.5,624.7Z M790.8,616.9L787.1,617.2L787.5,624.0L787.2,627.5L790.9,631.8L792.1,631.3L791.3,626.4L789.2,623.8L791.6,620.8L795.7,621.9L795.2,620.5L790.8,616.9Z M808.8,613.1L807.8,611.4L806.9,612.9L811.5,618.9L812.1,615.6L808.8,613.1Z M831.7,602.3L831.1,602.6L834.2,606.5L838.5,604.8L840.8,605.8L838.0,602.7L831.7,602.3Z M545.7,609.3L540.9,606.6L542.1,602.8L541.9,600.7L536.7,605.1L534.6,607.7L534.1,611.5L536.0,610.8L536.8,618.8L536.0,621.2L535.4,626.3L540.3,624.2L543.7,620.5L543.8,618.2L545.4,614.0L547.1,614.6L547.4,611.5L545.7,609.3Z M646.9,597.7L643.1,600.6L642.6,602.8L645.0,604.2L644.7,607.6L643.4,608.0L643.4,611.5L652.1,610.4L654.5,610.6L654.8,607.9L660.5,606.6L660.8,603.2L658.5,602.4L656.4,600.7L652.6,599.7L651.5,600.3L650.9,603.5L646.9,597.7Z M603.6,613.0L602.7,609.7L600.8,608.1L602.1,604.7L599.4,598.9L598.2,597.7L594.2,597.4L595.6,603.8L595.3,606.2L594.2,608.2L592.1,608.7L593.7,609.6L591.7,613.5L594.9,613.5L594.5,618.5L603.6,613.0Z M774.0,585.1L772.2,584.2L770.7,585.9L768.0,587.5L770.5,587.5L774.4,589.4L775.0,588.1L774.0,585.1Z M575.2,585.1L574.7,580.8L573.7,579.9L565.5,583.5L567.1,584.4L572.5,585.4L575.2,585.1Z M783.4,584.9L783.9,581.4L782.6,580.8L782.7,578.5L780.5,576.8L779.0,580.5L780.9,582.0L781.3,584.7L778.9,586.4L777.9,584.0L776.9,586.5L777.9,590.4L780.3,594.4L781.6,594.5L781.7,591.7L780.4,590.1L780.4,587.4L781.9,586.8L783.4,584.9Z M614.2,577.2L611.4,576.1L610.4,573.1L603.9,572.7L602.1,574.4L602.6,576.1L605.8,579.9L610.4,582.0L614.8,586.4L617.5,587.6L619.2,590.2L622.4,591.3L625.8,593.3L631.2,594.1L632.5,593.5L633.0,589.8L635.5,585.9L633.5,581.0L627.1,578.5L623.8,577.9L622.2,580.0L618.8,577.1L616.6,576.8L614.8,578.1L614.2,577.2Z M531.4,572.1L526.2,572.4L525.2,573.1L526.8,574.0L526.2,575.1L523.7,575.7L522.0,578.0L520.9,581.2L521.8,594.3L524.0,595.2L526.1,593.4L528.9,588.9L532.0,585.2L534.6,580.9L535.0,576.5L531.4,572.1Z M583.4,539.3L582.0,537.7L580.7,532.3L579.5,531.3L576.4,530.3L576.0,527.9L574.2,527.0L571.7,527.5L565.6,531.0L564.5,533.3L565.4,536.3L564.1,536.7L568.5,541.6L568.0,543.6L571.0,542.6L575.7,546.8L578.1,549.5L579.1,553.5L580.9,552.3L582.4,553.3L584.6,556.8L588.6,560.1L593.9,567.3L599.1,572.1L599.8,572.1L600.3,567.4L602.5,562.3L602.0,560.3L600.6,559.5L598.8,560.2L598.0,559.4L599.4,556.3L599.1,554.4L600.6,553.5L595.4,549.5L596.8,544.8L597.1,541.9L595.8,540.5L586.6,540.5L583.4,539.3Z " data-id="GR.AS" data-name="Notio Aigaio" id="GR.AS"/>
utf-8</g>
</svg>
