<?xml version="1.0" ?>
<!DOCTYPE svg
  PUBLIC '-//W3C//DTD SVG 1.1//EN'
  'http://www.w3.org/Graphics/SVG/1.1/DTD/svg11.dtd'>
<svg enable_background="new 0 0 1000 1121" height="1121px" pretty_print="True" style="stroke-linejoin: round; stroke:#000; fill: none;" version="1.1" viewBox="0 0 1000 1121" width="1000px" xmlns="http://www.w3.org/2000/svg" xmlns:xlink="http://www.w3.org/1999/xlink">
utf-8<defs>
utf-8utf-8<style type="text/css">
<![CDATA[path { fill-rule: evenodd; }]]>utf-8utf-8</style>
utf-8</defs>
utf-8<metadata>
utf-8utf-8<views>
utf-8utf-8utf-8<view h="1121.38588009" padding="0" w="1000">
utf-8utf-8utf-8utf-8<proj flip="auto" id="robinson" lon0="-90.4527965322"/>
utf-8utf-8utf-8utf-8<bbox h="68.54" w="61.17" x="-1353.57" y="-298.75"/>
utf-8utf-8utf-8</view>
utf-8utf-8</views>
utf-8</metadata>
utf-8<g class="" id="provinces">
utf-8utf-8<path d="M575.4,711.6L578.8,703.6L579.3,700.8L577.6,696.7L575.2,693.9L571.9,692.2L561.1,693.2L558.8,693.8L550.6,697.3L541.2,697.6L515.5,693.6L504.3,690.5L501.1,690.3L498.4,693.4L494.9,704.1L493.0,706.7L487.3,713.0L484.7,714.4L480.8,711.5L468.7,701.6L463.7,699.8L458.1,700.0L444.6,699.7L439.1,699.5L428.6,713.1L420.6,713.8L392.7,712.4L354.1,702.1L352.3,700.9L347.5,730.6L362.6,756.2L382.5,771.2L380.5,778.4L384.3,783.4L388.8,788.0L389.5,790.6L391.5,797.6L399.7,801.0L403.3,800.3L406.1,803.2L409.8,802.1L413.4,802.8L419.6,801.4L425.9,799.0L430.0,796.5L431.8,796.5L432.7,799.0L434.4,800.2L439.5,800.3L442.7,799.3L444.6,796.4L446.7,794.8L450.7,794.0L452.4,795.7L453.1,798.9L455.8,802.1L463.5,803.7L475.9,801.5L482.8,783.7L524.0,754.5L556.1,732.4L563.0,728.4L575.4,711.6Z " data-id="GT.BV" data-name="Baja Verapaz" id="GT.BV"/>
utf-8utf-8<path d="M246.1,696.9L248.2,695.4L258.8,693.3L264.5,691.3L266.6,691.2L272.4,692.4L278.3,691.2L277.7,685.7L276.7,680.1L279.9,670.3L279.9,665.3L273.7,661.9L270.7,661.2L261.4,661.9L257.4,657.2L254.3,650.4L254.2,643.7L250.1,637.3L248.5,632.2L248.5,630.5L251.3,624.2L252.3,617.9L256.1,610.9L258.4,603.9L261.9,603.0L265.1,600.1L269.5,599.4L276.5,594.3L277.7,592.8L282.2,591.5L281.8,588.6L287.4,582.9L307.1,547.8L310.0,542.8L346.9,478.2L315.3,478.3L172.5,478.5L168.4,480.7L165.1,484.7L95.4,593.5L72.4,629.7L61.5,646.8L62.3,652.5L65.8,658.3L69.2,659.8L69.3,663.8L68.4,692.2L70.8,694.5L83.0,695.2L93.0,683.9L96.5,681.6L104.4,680.9L118.3,672.5L119.9,672.3L121.9,673.4L129.4,679.1L134.4,679.5L147.9,675.4L151.6,675.4L152.4,680.1L155.0,686.9L158.3,693.0L162.2,698.3L170.7,707.1L171.5,710.8L187.1,715.4L188.7,717.0L188.3,719.7L188.8,722.2L192.8,728.5L200.9,728.1L206.5,715.4L210.3,710.3L215.0,707.9L225.7,705.2L229.7,702.2L235.8,699.3L238.7,698.7L244.8,699.2L246.1,696.9Z " data-id="GT.HU" data-name="Huehuetenango" id="GT.HU"/>
utf-8utf-8<path d="M478.0,475.6L484.6,474.8L532.4,483.1L571.4,497.5L578.3,494.6L579.3,494.9L580.5,497.5L583.7,497.5L584.5,498.7L590.0,493.6L591.7,494.4L592.0,498.1L593.1,499.6L592.3,501.4L595.9,504.9L600.4,504.0L604.2,507.2L607.8,507.2L612.1,515.0L613.6,520.5L621.3,522.0L629.5,521.5L634.7,517.5L641.9,516.3L647.2,519.2L651.2,523.2L655.8,527.0L658.1,528.1L661.3,528.3L663.8,527.4L666.9,524.8L668.6,524.7L684.1,526.9L689.2,525.0L692.5,524.8L695.1,526.1L694.1,540.3L701.2,537.3L706.4,536.2L710.2,538.6L712.1,538.8L715.1,537.4L722.6,535.4L725.6,533.6L726.6,532.5L730.2,524.3L733.3,521.2L755.4,520.7L760.9,521.6L762.3,523.0L764.3,509.7L777.7,446.4L788.1,389.8L793.5,361.6L807.1,284.6L819.7,213.6L829.0,135.6L837.1,59.6L843.5,0.5L686.3,0.3L581.4,0.2L529.0,0.1L413.9,0.0L408.8,1.5L406.6,3.8L396.8,79.2L387.1,154.5L282.5,153.7L280.6,154.0L279.1,158.3L284.3,161.1L291.5,162.8L294.8,165.0L296.0,171.5L300.7,172.5L307.2,171.3L313.7,171.7L316.0,174.2L317.5,178.5L318.3,183.4L318.2,187.7L318.9,189.4L323.6,190.8L325.6,192.3L326.4,194.2L327.7,201.8L329.4,205.6L336.6,215.8L338.9,216.9L344.7,216.2L347.2,216.8L348.2,218.5L349.4,226.1L356.5,237.3L357.5,240.2L357.8,245.9L360.3,248.7L369.0,252.3L372.8,257.1L373.9,257.9L376.4,256.7L375.9,251.7L376.5,250.6L380.6,250.6L383.8,251.2L384.1,253.4L379.7,257.9L384.3,260.5L390.3,268.3L394.4,271.1L410.2,276.8L413.0,276.8L415.5,274.7L418.5,276.8L417.0,281.9L420.2,285.1L428.1,289.9L431.2,292.9L444.2,318.6L446.3,328.5L442.4,334.9L442.2,336.6L446.4,334.9L447.3,333.0L450.3,335.2L449.1,339.1L446.9,343.7L447.3,348.2L444.8,352.3L446.7,353.3L450.4,353.6L452.9,355.5L452.7,358.3L448.4,362.4L446.9,365.0L449.9,364.1L453.8,364.2L458.3,365.8L466.1,363.1L468.5,363.1L468.9,369.0L470.0,371.4L476.1,368.4L478.7,369.2L482.0,372.5L482.9,375.5L482.7,379.4L490.1,380.5L495.4,383.7L500.4,382.2L501.7,382.6L501.4,391.7L503.6,396.8L500.1,395.7L496.8,395.4L494.4,396.8L493.3,400.7L495.0,400.7L495.2,398.7L496.8,398.7L498.4,402.2L496.5,406.6L492.5,410.3L486.1,412.9L488.3,414.9L491.6,416.3L493.2,415.7L492.8,418.5L491.3,419.2L488.1,417.5L487.3,419.4L486.2,419.2L488.8,425.2L485.7,424.7L484.1,423.1L481.0,426.4L481.1,429.1L483.2,431.2L486.3,432.7L483.3,434.2L480.0,436.6L477.9,440.4L478.2,445.6L484.6,449.9L485.9,452.7L480.3,455.1L480.1,456.8L482.8,460.1L476.4,465.4L476.8,470.1L482.1,468.0L479.0,474.2L478.0,475.6Z " data-id="GT.PE" data-name="Petén" id="GT.PE"/>
utf-8utf-8<path d="M188.8,722.2L188.3,719.7L188.7,717.0L187.1,715.4L171.5,710.8L169.8,716.0L168.1,717.7L159.0,725.1L154.0,730.3L148.6,737.7L145.5,745.9L147.5,753.5L151.6,757.8L152.1,762.2L149.3,773.9L148.1,776.7L145.8,779.6L138.0,787.2L134.0,789.4L132.4,795.8L129.9,799.2L127.2,809.4L124.5,813.7L116.4,828.8L114.4,831.7L111.0,834.3L105.3,842.9L102.8,844.6L98.1,845.7L91.4,845.3L76.6,843.5L54.9,850.3L49.6,851.4L46.6,852.9L39.5,858.8L30.1,869.3L29.2,871.8L33.1,873.8L47.0,875.4L49.6,876.3L51.3,881.0L55.0,899.7L57.1,898.2L60.0,897.8L73.4,904.5L76.0,905.0L83.1,904.3L93.4,901.8L106.2,883.4L107.5,879.5L109.9,874.5L114.9,867.3L116.3,864.7L119.2,857.2L121.1,854.4L130.2,849.7L135.8,844.1L140.2,842.5L141.4,844.0L140.6,847.4L136.2,856.4L135.0,861.2L136.7,862.6L142.9,863.8L147.6,858.8L151.9,859.9L153.9,857.7L158.2,851.9L159.8,851.5L165.6,853.2L166.8,852.8L173.6,848.3L178.0,848.1L181.6,849.9L192.2,842.6L200.3,831.9L204.4,821.2L200.6,812.1L198.3,809.4L198.5,801.2L197.0,795.9L187.2,796.7L185.1,795.0L181.8,790.0L182.8,781.8L179.3,777.8L177.8,775.1L174.1,746.2L173.7,738.3L174.5,736.1L188.4,730.1L192.8,728.5L188.8,722.2Z " data-id="GT.QZ" data-name="Quezaltenango" id="GT.QZ"/>
utf-8utf-8<path d="M178.0,848.1L173.6,848.3L166.8,852.8L165.6,853.2L159.8,851.5L158.2,851.9L153.9,857.7L151.9,859.9L147.6,858.8L142.9,863.8L136.7,862.6L135.0,861.2L136.2,856.4L140.6,847.4L141.4,844.0L140.2,842.5L135.8,844.1L130.2,849.7L121.1,854.4L119.2,857.2L116.3,864.7L114.9,867.3L109.9,874.5L107.5,879.5L106.2,883.4L93.4,901.8L83.1,904.3L76.0,905.0L73.4,904.5L60.0,897.8L57.1,898.2L55.0,899.7L47.7,901.7L45.5,902.8L41.4,906.8L40.5,907.2L35.0,906.1L30.6,906.6L28.2,908.8L23.4,911.1L18.8,911.7L43.6,933.4L74.0,967.4L106.0,995.8L129.2,1013.0L128.9,999.8L137.7,986.2L139.1,977.2L141.0,969.1L145.0,959.0L148.2,954.5L149.1,947.8L152.0,930.0L152.1,927.9L149.7,921.9L149.1,917.5L152.7,901.4L153.0,898.0L164.8,876.5L165.6,867.3L167.5,863.8L173.6,857.0L181.6,849.9L178.0,848.1Z " data-id="GT.RE" data-name="Retalhuleu" id="GT.RE"/>
utf-8utf-8<path d="M170.7,707.1L162.2,698.3L158.3,693.0L155.0,686.9L152.4,680.1L151.6,675.4L147.9,675.4L134.4,679.5L129.4,679.1L121.9,673.4L119.9,672.3L118.3,672.5L104.4,680.9L96.5,681.6L93.0,683.9L83.0,695.2L70.8,694.5L68.4,692.2L69.3,663.8L69.2,659.8L65.8,658.3L62.3,652.5L61.5,646.8L52.3,661.2L32.7,692.0L30.6,696.7L30.1,701.9L31.4,706.3L57.4,751.1L51.3,763.2L48.5,766.4L45.2,767.9L39.0,769.2L35.8,772.4L34.0,781.4L32.8,798.4L29.2,806.6L23.5,813.1L22.0,816.4L21.6,822.1L23.4,831.2L22.5,839.3L25.3,852.8L24.9,857.9L23.5,862.2L17.3,872.7L10.3,888.9L5.4,894.7L0.4,895.5L18.8,911.7L23.4,911.1L28.2,908.8L30.6,906.6L35.0,906.1L40.5,907.2L41.4,906.8L45.5,902.8L47.7,901.7L55.0,899.7L51.3,881.0L49.6,876.3L47.0,875.4L33.1,873.8L29.2,871.8L30.1,869.3L39.5,858.8L46.6,852.9L49.6,851.4L54.9,850.3L76.6,843.5L91.4,845.3L98.1,845.7L102.8,844.6L105.3,842.9L111.0,834.3L114.4,831.7L116.4,828.8L124.5,813.7L127.2,809.4L129.9,799.2L132.4,795.8L134.0,789.4L138.0,787.2L145.8,779.6L148.1,776.7L149.3,773.9L152.1,762.2L151.6,757.8L147.5,753.5L145.5,745.9L148.6,737.7L154.0,730.3L159.0,725.1L168.1,717.7L169.8,716.0L171.5,710.8L170.7,707.1Z " data-id="GT.SM" data-name="San Marcos" id="GT.SM"/>
utf-8utf-8<path d="M715.1,537.4L712.1,538.8L710.2,538.6L706.4,536.2L701.2,537.3L694.1,540.3L695.1,526.1L692.5,524.8L689.2,525.0L684.1,526.9L668.6,524.7L666.9,524.8L663.8,527.4L661.3,528.3L658.1,528.1L655.8,527.0L651.2,523.2L647.2,519.2L641.9,516.3L634.7,517.5L629.5,521.5L621.3,522.0L613.6,520.5L612.1,515.0L607.8,507.2L604.2,507.2L600.4,504.0L595.9,504.9L592.3,501.4L593.1,499.6L592.0,498.1L591.7,494.4L590.0,493.6L584.5,498.7L583.7,497.5L580.5,497.5L579.3,494.9L578.3,494.6L571.4,497.5L532.4,483.1L484.6,474.8L478.0,475.6L477.9,475.7L477.9,475.7L480.5,477.3L481.4,479.4L480.7,482.0L478.3,485.1L479.4,488.1L478.0,490.6L475.5,491.7L472.7,490.5L470.6,494.4L469.2,494.4L466.6,492.5L461.6,495.7L459.2,494.4L457.6,494.4L455.7,496.3L454.2,494.4L452.9,496.1L452.7,494.4L449.0,498.0L446.0,496.2L444.2,493.9L442.0,492.4L437.9,492.6L438.2,490.5L441.8,488.8L442.0,486.8L437.9,486.6L436.9,488.8L435.2,488.8L432.3,485.0L425.9,486.5L415.1,492.6L416.4,496.3L414.1,497.9L414.3,500.5L413.1,502.8L411.3,503.9L409.3,500.1L406.4,501.4L402.3,504.8L399.0,505.7L398.7,507.7L401.4,511.3L403.3,509.4L404.8,511.3L404.6,513.1L402.0,515.0L399.7,519.0L396.4,528.1L402.2,528.8L403.1,533.5L400.0,538.8L393.9,541.4L392.8,543.0L388.5,552.6L380.9,561.7L378.9,565.7L382.1,565.3L384.9,565.6L387.0,567.0L388.3,569.4L384.7,571.5L384.5,573.2L388.9,577.1L385.4,579.6L384.1,582.7L385.7,585.3L394.4,587.0L404.1,590.3L406.8,592.0L408.9,590.7L413.3,590.7L415.1,592.0L413.2,592.6L413.1,593.9L417.3,597.1L419.3,600.7L419.0,604.6L416.4,609.0L419.7,611.8L421.5,617.5L422.5,623.2L424.8,627.2L422.8,630.5L419.9,633.5L418.5,634.2L411.1,640.8L410.9,642.7L412.4,645.6L409.3,647.3L399.7,648.3L396.3,650.1L394.8,654.4L394.7,659.4L395.5,663.3L399.8,668.6L406.9,671.8L443.9,678.2L447.4,680.6L446.6,686.2L443.7,692.5L440.9,697.1L439.1,699.5L444.6,699.7L458.1,700.0L463.7,699.8L468.7,701.6L480.8,711.5L484.7,714.4L487.3,713.0L493.0,706.7L494.9,704.1L498.4,693.4L501.1,690.3L504.3,690.5L515.5,693.6L541.2,697.6L550.6,697.3L558.8,693.8L561.1,693.2L571.9,692.2L575.2,693.9L577.6,696.7L579.3,700.8L578.8,703.6L575.4,711.6L563.0,728.4L574.6,729.9L578.6,729.5L585.8,727.5L592.7,724.2L595.3,723.8L600.8,724.1L608.8,727.6L611.5,728.3L627.0,725.7L634.6,726.3L651.7,722.0L648.1,715.2L647.3,712.6L647.3,708.5L648.6,704.0L647.6,698.9L646.3,696.4L645.0,691.6L645.4,687.5L651.1,655.4L653.2,653.7L658.0,651.3L660.6,648.0L661.6,645.0L664.9,639.5L664.0,636.9L657.9,628.0L653.3,621.7L652.6,620.1L649.8,617.6L652.1,613.0L667.9,592.0L687.7,565.8L690.2,565.0L700.6,557.9L704.1,552.0L707.5,547.8L712.2,547.2L714.9,545.1L722.6,535.4L715.1,537.4Z " data-id="GT.AV" data-name="Alta Verapaz" id="GT.AV"/>
utf-8utf-8<path d="M388.4,796.2L380.0,794.2L373.2,791.5L369.2,790.9L356.9,790.9L345.9,787.2L342.1,787.3L335.9,788.6L320.3,789.0L316.0,788.1L311.7,790.8L307.5,792.0L304.0,794.1L302.2,796.8L295.0,813.7L293.0,815.4L286.3,818.8L286.7,820.6L288.3,841.1L285.8,853.3L279.5,866.4L277.2,869.4L276.2,871.9L275.6,878.0L271.3,899.9L272.8,901.6L274.9,904.7L275.0,907.3L273.6,917.1L269.1,927.3L272.2,930.0L279.1,930.4L282.4,928.4L285.5,928.3L290.1,932.6L291.4,933.2L294.8,932.2L296.2,930.7L298.4,930.2L298.9,931.2L298.7,937.9L299.6,940.3L301.4,939.4L307.1,929.1L311.2,922.1L316.7,916.8L323.7,911.1L323.7,910.8L323.7,909.2L325.8,901.7L332.1,890.6L344.3,877.3L350.9,872.4L354.9,864.7L356.5,862.7L357.7,858.5L356.9,851.0L356.4,843.1L357.5,839.7L362.0,832.1L367.2,824.6L370.3,816.4L374.2,812.0L378.9,811.3L382.9,808.1L388.1,805.5L390.4,801.8L391.5,797.6L388.4,796.2Z " data-id="GT.CM" data-name="Chimaltenango" id="GT.CM"/>
utf-8utf-8<path d="M364.6,923.5L361.4,915.8L359.8,916.4L356.9,919.3L353.4,919.3L350.1,921.6L345.1,928.2L338.2,934.2L335.8,931.5L333.4,926.0L331.8,920.2L330.1,917.9L323.7,911.1L316.7,916.8L311.2,922.1L307.1,929.1L301.4,939.4L299.6,940.3L298.7,937.9L298.9,931.2L298.4,930.2L296.2,930.7L294.8,932.2L291.4,933.2L290.1,932.6L285.5,928.3L282.4,928.4L279.1,930.4L272.2,930.0L269.1,927.3L260.8,942.7L258.7,947.4L256.7,960.5L251.9,969.6L250.3,970.6L222.6,968.3L221.1,967.9L223.0,961.3L220.7,958.5L215.8,963.9L213.7,965.2L211.3,965.3L207.8,963.7L206.4,959.4L206.1,953.6L206.3,950.1L208.3,947.3L208.1,944.8L206.8,942.2L203.0,941.6L194.4,947.8L192.4,950.6L191.7,952.9L191.6,958.8L192.9,963.9L188.7,966.9L184.9,961.2L182.3,962.9L180.7,969.0L180.8,977.7L180.3,988.7L179.5,993.1L175.1,998.8L172.6,1003.5L159.1,1022.6L158.0,1025.4L158.4,1032.2L206.7,1057.3L242.1,1065.2L271.0,1068.8L302.9,1069.5L330.5,1067.6L333.4,1066.6L352.1,1064.6L368.6,1066.4L371.1,1066.9L374.8,1029.8L376.5,1027.3L383.4,1025.3L384.4,1022.6L386.6,1018.7L393.5,1011.9L393.2,1010.7L389.0,1004.8L389.3,1001.0L391.0,1000.1L397.8,998.0L402.1,993.9L405.5,989.7L405.0,988.0L401.0,986.7L397.1,988.2L393.3,988.3L390.1,987.6L388.4,986.1L388.5,984.8L391.3,978.8L395.2,975.0L394.4,969.0L392.2,961.5L391.8,958.2L392.9,949.2L392.7,935.1L392.1,931.5L387.7,931.1L385.8,930.4L382.7,927.0L380.7,916.8L364.6,923.5Z " data-id="GT.ES" data-name="Escuintla" id="GT.ES"/>
utf-8utf-8<path d="M452.4,795.7L450.7,794.0L446.7,794.8L444.6,796.4L442.7,799.3L439.5,800.3L434.4,800.2L432.7,799.0L431.8,796.5L430.0,796.5L425.9,799.0L419.6,801.4L413.4,802.8L409.8,802.1L406.1,803.2L403.3,800.3L399.7,801.0L391.5,797.6L390.4,801.8L388.1,805.5L382.9,808.1L378.9,811.3L374.2,812.0L370.3,816.4L367.2,824.6L362.0,832.1L367.0,837.7L370.0,839.8L378.8,840.1L381.0,842.6L387.1,852.9L388.4,860.7L393.4,868.4L393.4,870.5L391.5,875.5L391.7,878.7L389.4,881.2L387.8,884.5L383.8,906.5L380.7,916.8L382.7,927.0L385.8,930.4L387.7,931.1L392.1,931.5L392.7,935.1L392.9,949.2L391.8,958.2L392.2,961.5L394.4,969.0L395.2,975.0L402.3,972.2L404.3,970.8L409.4,966.1L418.8,962.0L421.0,959.3L424.9,956.7L426.3,955.2L426.9,951.7L427.0,938.9L432.7,926.4L444.3,909.2L449.6,907.0L452.3,909.1L452.3,912.4L453.0,914.2L455.8,912.8L462.3,906.6L466.5,905.8L469.5,904.3L470.8,895.8L471.7,892.8L472.7,891.9L474.3,888.5L474.8,884.2L476.9,877.7L485.5,870.4L489.5,866.6L492.3,860.5L489.8,859.5L483.2,853.0L469.9,847.3L467.8,845.4L463.4,839.5L462.5,835.4L465.9,829.9L466.5,827.7L466.3,821.0L464.9,814.1L462.1,810.3L456.5,810.8L451.5,812.0L450.1,811.8L447.9,807.7L449.5,804.8L453.1,798.9L452.4,795.7Z " data-id="GT.GU" data-name="Guatemala" id="GT.GU"/>
utf-8utf-8<path d="M262.8,891.9L259.8,889.7L253.8,888.4L251.6,888.7L244.6,892.6L239.1,893.4L239.0,882.2L237.7,879.6L231.5,872.7L227.7,869.3L225.0,870.0L217.0,866.8L213.6,864.9L211.8,864.7L206.5,869.7L206.3,873.2L204.3,879.0L201.2,878.0L190.4,876.4L187.3,872.6L194.3,860.6L195.7,854.3L193.7,845.5L193.1,844.2L192.2,842.6L181.6,849.9L173.6,857.0L167.5,863.8L165.6,867.3L164.8,876.5L153.0,898.0L152.7,901.4L149.1,917.5L149.7,921.9L152.1,927.9L152.0,930.0L149.1,947.8L148.2,954.5L145.0,959.0L141.0,969.1L139.1,977.2L137.7,986.2L128.9,999.8L129.2,1013.0L133.9,1016.5L153.1,1029.5L158.4,1032.2L158.0,1025.4L159.1,1022.6L172.6,1003.5L175.1,998.8L179.5,993.1L180.3,988.7L180.8,977.7L180.7,969.0L182.3,962.9L184.9,961.2L188.7,966.9L192.9,963.9L191.6,958.8L191.7,952.9L192.4,950.6L194.4,947.8L203.0,941.6L206.8,942.2L208.1,944.8L208.3,947.3L206.3,950.1L206.1,953.6L206.4,959.4L207.8,963.7L211.3,965.3L213.7,965.2L215.8,963.9L220.7,958.5L223.0,961.3L221.1,967.9L222.6,968.3L250.3,970.6L251.9,969.6L256.7,960.5L258.7,947.4L260.8,942.7L269.1,927.3L273.6,917.1L275.0,907.3L274.9,904.7L272.8,901.6L271.3,899.9L262.8,891.9Z " data-id="GT.SU" data-name="Suchitepéquez" id="GT.SU"/>
utf-8utf-8<path d="M383.8,906.5L387.8,884.5L389.4,881.2L391.7,878.7L391.5,875.5L393.4,870.5L393.4,868.4L388.4,860.7L387.1,852.9L381.0,842.6L378.8,840.1L370.0,839.8L367.0,837.7L362.0,832.1L357.5,839.7L356.4,843.1L356.9,851.0L357.7,858.5L356.5,862.7L354.9,864.7L350.9,872.4L344.3,877.3L332.1,890.6L325.8,901.7L323.7,909.2L323.7,910.8L323.7,911.1L330.1,917.9L331.8,920.2L333.4,926.0L335.8,931.5L338.2,934.2L345.1,928.2L350.1,921.6L353.4,919.3L356.9,919.3L359.8,916.4L361.4,915.8L364.6,923.5L380.7,916.8L383.8,906.5Z " data-id="GT.SA" data-name="Sacatepéquez" id="GT.SA"/>
utf-8utf-8<path d="M282.5,817.3L281.3,818.0L280.0,821.8L278.3,823.8L276.2,824.0L275.3,819.0L276.1,815.9L278.4,813.4L280.2,810.3L279.8,809.5L272.6,806.6L271.2,805.4L269.5,800.9L268.6,797.2L265.9,795.7L260.6,800.9L256.9,806.0L253.2,809.6L250.5,810.5L246.8,810.6L243.2,809.2L238.2,808.9L233.0,811.2L227.9,809.6L222.5,808.7L217.5,809.9L205.4,820.3L204.4,821.2L200.3,831.9L192.2,842.6L193.1,844.2L193.7,845.5L195.7,854.3L194.3,860.6L187.3,872.6L190.4,876.4L201.2,878.0L204.3,879.0L206.3,873.2L206.5,869.7L211.8,864.7L213.6,864.9L217.0,866.8L225.0,870.0L227.7,869.3L231.5,872.7L237.7,879.6L239.0,882.2L239.1,893.4L244.6,892.6L251.6,888.7L253.8,888.4L259.8,889.7L262.8,891.9L271.3,899.9L275.6,878.0L276.2,871.9L277.2,869.4L279.5,866.4L285.8,853.3L288.3,841.1L286.7,820.6L286.3,818.8L282.5,817.3Z " data-id="GT.SO" data-name="Sololá" id="GT.SO"/>
utf-8utf-8<path d="M238.7,698.7L235.8,699.3L229.7,702.2L225.7,705.2L215.0,707.9L210.3,710.3L206.5,715.4L200.9,728.1L192.8,728.5L188.4,730.1L174.5,736.1L173.7,738.3L174.1,746.2L177.8,775.1L179.3,777.8L182.8,781.8L181.8,790.0L185.1,795.0L187.2,796.7L197.0,795.9L198.5,801.2L198.3,809.4L200.6,812.1L204.4,821.2L205.4,820.3L217.5,809.9L222.5,808.7L227.9,809.6L233.0,811.2L238.2,808.9L243.2,809.2L246.8,810.6L250.5,810.5L253.2,809.6L256.9,806.0L260.6,800.9L265.9,795.7L259.0,789.1L261.5,782.8L261.1,779.6L257.5,776.5L256.2,773.6L254.7,766.5L250.8,762.9L247.9,758.3L248.3,756.2L250.0,753.1L252.1,751.4L257.0,750.5L257.8,749.9L259.1,744.6L257.9,741.6L256.3,740.9L256.4,737.2L254.5,733.5L253.9,728.1L252.4,727.3L246.5,719.7L246.0,717.8L242.9,716.0L242.2,711.8L242.8,706.8L244.8,699.2L238.7,698.7Z " data-id="GT.TO" data-name="Totonicapán" id="GT.TO"/>
utf-8utf-8<path d="M594.1,798.4L597.3,796.9L604.6,796.0L606.3,789.3L598.9,785.4L588.5,766.3L588.0,765.0L590.1,763.4L601.7,763.1L601.9,759.4L593.1,741.6L585.8,727.5L578.6,729.5L574.6,729.9L563.0,728.4L556.1,732.4L524.0,754.5L482.8,783.7L475.9,801.5L463.5,803.7L455.8,802.1L453.1,798.9L449.5,804.8L447.9,807.7L450.1,811.8L451.5,812.0L456.5,810.8L462.1,810.3L464.9,814.1L466.3,821.0L466.5,827.7L465.9,829.9L462.5,835.4L463.4,839.5L467.8,845.4L469.9,847.3L483.2,853.0L489.8,859.5L492.3,860.5L492.7,860.3L498.6,857.0L501.8,850.8L508.4,848.2L516.8,845.1L520.4,845.6L523.1,847.2L527.2,846.2L536.3,830.8L542.0,829.0L550.2,827.9L557.7,825.0L565.2,820.8L574.8,809.1L578.3,805.8L584.3,804.8L588.0,805.1L594.1,798.4Z " data-id="GT.PR" data-name="El Progreso" id="GT.PR"/>
utf-8utf-8<path d="M517.4,921.0L509.6,913.2L507.9,909.4L507.3,903.0L477.2,909.2L473.9,909.6L472.1,907.8L469.5,904.3L466.5,905.8L462.3,906.6L455.8,912.8L453.0,914.2L452.3,912.4L452.3,909.1L449.6,907.0L444.3,909.2L432.7,926.4L427.0,938.9L426.9,951.7L426.3,955.2L424.9,956.7L421.0,959.3L418.8,962.0L409.4,966.1L404.3,970.8L402.3,972.2L395.2,975.0L391.3,978.8L388.5,984.8L388.4,986.1L390.1,987.6L393.3,988.3L397.1,988.2L401.0,986.7L405.0,988.0L405.5,989.7L402.1,993.9L397.8,998.0L391.0,1000.1L389.3,1001.0L389.0,1004.8L393.2,1010.7L393.5,1011.9L386.6,1018.7L384.4,1022.6L383.4,1025.3L376.5,1027.3L374.8,1029.8L371.1,1066.9L382.1,1068.9L400.9,1074.0L423.7,1083.9L459.2,1102.5L460.3,1103.0L463.8,1092.5L464.3,1087.5L461.5,1078.6L460.1,1069.1L459.0,1065.6L456.8,1063.4L456.2,1052.1L453.5,1046.5L456.0,1040.3L460.5,1038.9L466.8,1043.3L471.0,1047.6L481.4,1050.7L485.5,1051.5L489.5,1048.6L494.0,1040.8L498.2,1036.2L501.0,1035.3L506.4,1032.7L511.2,1026.1L512.8,1023.0L514.2,1018.3L514.2,1007.4L515.2,1001.4L514.3,998.7L509.1,992.3L502.3,985.5L498.7,982.2L487.9,978.7L484.8,975.9L495.7,952.3L499.7,948.8L508.3,947.0L513.7,948.0L513.9,941.9L517.3,941.5L523.1,926.4L517.4,921.0Z " data-id="GT.SR" data-name="Santa Rosa" id="GT.SR"/>
utf-8utf-8<path d="M762.3,523.0L760.9,521.6L755.4,520.7L733.3,521.2L730.2,524.3L726.6,532.5L725.6,533.6L722.6,535.4L714.9,545.1L712.2,547.2L707.5,547.8L704.1,552.0L700.6,557.9L690.2,565.0L687.7,565.8L667.9,592.0L652.1,613.0L649.8,617.6L652.6,620.1L653.3,621.7L657.9,628.0L664.0,636.9L664.9,639.5L661.6,645.0L660.6,648.0L658.0,651.3L653.2,653.7L651.1,655.4L645.4,687.5L645.0,691.6L646.3,696.4L647.6,698.9L648.6,704.0L647.3,708.5L647.3,712.6L648.1,715.2L651.7,722.0L661.6,720.7L665.2,719.8L694.8,709.3L724.1,696.7L731.0,691.5L734.6,689.6L740.3,688.3L747.6,689.1L749.9,689.8L756.4,694.4L758.2,700.1L756.2,709.3L753.5,712.3L750.3,713.6L749.8,716.6L750.7,725.3L750.1,733.9L751.0,743.2L755.0,749.4L758.3,751.7L759.9,750.3L767.7,746.2L793.0,737.2L801.8,732.8L925.8,635.4L952.3,614.4L964.7,602.3L973.5,588.5L975.1,586.5L980.1,586.4L984.1,584.8L987.9,582.7L992.2,580.7L993.5,582.8L995.5,579.1L995.6,576.1L996.6,573.7L999.4,572.5L991.5,568.5L982.1,558.2L979.7,557.0L972.6,548.9L949.3,536.1L938.1,524.5L933.5,521.3L927.5,513.2L924.9,511.3L918.5,508.1L915.1,505.7L911.2,510.2L913.6,514.2L923.2,520.7L927.4,528.8L931.5,531.1L934.3,533.6L939.2,539.4L935.6,540.8L928.8,539.3L925.7,541.4L924.7,537.7L922.9,537.7L922.7,541.9L923.8,548.4L923.0,552.6L921.3,555.0L916.4,560.4L913.7,567.2L908.1,567.7L907.8,569.8L909.7,575.5L908.6,577.9L905.9,579.0L899.5,579.0L899.2,577.1L903.5,564.8L881.3,548.0L876.0,547.0L875.7,541.3L868.2,536.0L857.9,533.4L849.3,535.6L842.1,528.1L839.0,526.4L829.4,530.3L809.0,524.3L801.3,524.4L794.3,525.6L776.1,524.7L771.5,526.7L769.3,526.8L763.4,530.0L761.8,526.4L762.3,523.0Z " data-id="GT.IZ" data-name="Izabal" id="GT.IZ"/>
utf-8utf-8<path d="M608.6,831.6L620.0,830.9L623.0,831.9L624.0,834.1L624.7,841.1L623.2,849.1L624.4,854.6L613.1,881.1L611.6,886.9L612.4,887.1L615.0,886.9L624.5,888.1L629.3,891.8L633.6,901.0L635.3,901.9L653.4,901.1L654.8,901.7L657.7,905.8L657.6,910.4L654.2,918.5L653.2,921.7L656.0,929.3L658.8,928.1L662.5,928.6L667.7,931.3L671.5,930.5L677.6,924.2L680.1,923.2L679.9,928.5L681.7,925.7L688.1,931.4L688.4,922.8L689.3,918.5L691.2,914.9L693.9,913.1L699.3,911.6L701.5,909.3L704.4,904.5L708.2,900.5L716.4,893.3L720.3,888.2L722.2,886.9L726.4,886.3L729.2,886.9L735.0,889.2L737.8,888.9L740.9,885.9L742.5,881.4L743.1,876.5L743.6,862.7L747.5,858.0L748.3,855.8L747.2,848.7L745.2,846.5L743.0,842.8L739.7,830.7L737.9,826.6L733.7,820.1L732.0,816.6L731.3,812.8L732.1,807.6L734.3,804.4L740.8,798.7L743.5,795.1L741.0,787.3L735.8,785.9L730.2,788.9L727.4,791.2L723.0,796.0L718.3,797.1L716.0,794.6L712.4,793.3L700.1,797.7L696.2,797.7L693.2,795.2L688.1,793.4L686.2,793.4L681.4,794.9L665.5,807.8L661.8,808.7L649.0,808.5L645.6,807.6L630.7,798.8L627.9,798.4L623.4,801.9L617.3,807.6L616.9,809.0L616.9,815.7L615.5,820.2L608.6,831.6Z " data-id="GT.CQ" data-name="Chiquimula" id="GT.CQ"/>
utf-8utf-8<path d="M584.3,804.8L578.3,805.8L574.8,809.1L565.2,820.8L557.7,825.0L550.2,827.9L542.0,829.0L536.3,830.8L527.2,846.2L523.1,847.2L520.4,845.6L516.8,845.1L508.4,848.2L501.8,850.8L498.6,857.0L492.7,860.3L492.3,860.5L489.5,866.6L485.5,870.4L476.9,877.7L474.8,884.2L474.3,888.5L472.7,891.9L471.7,892.8L470.8,895.8L469.5,904.3L472.1,907.8L473.9,909.6L477.2,909.2L507.3,903.0L507.9,909.4L509.6,913.2L517.4,921.0L523.1,926.4L538.3,926.2L546.0,916.6L549.4,915.5L553.4,916.3L563.2,925.6L565.4,916.2L567.7,912.9L582.2,902.9L587.0,901.4L588.6,901.8L591.6,905.5L594.4,908.1L610.2,900.0L615.7,896.6L616.2,893.1L615.0,886.9L612.4,887.1L611.6,886.9L613.1,881.1L624.4,854.6L623.2,849.1L624.7,841.1L624.0,834.1L623.0,831.9L620.0,830.9L608.6,831.6L606.0,830.7L593.8,828.2L592.2,825.1L589.2,816.9L585.7,809.7L588.0,805.1L584.3,804.8Z " data-id="GT.JA" data-name="Jalapa" id="GT.JA"/>
utf-8utf-8<path d="M656.0,929.3L653.2,921.7L654.2,918.5L657.6,910.4L657.7,905.8L654.8,901.7L653.4,901.1L635.3,901.9L633.6,901.0L629.3,891.8L624.5,888.1L615.0,886.9L616.2,893.1L615.7,896.6L610.2,900.0L594.4,908.1L591.6,905.5L588.6,901.8L587.0,901.4L582.2,902.9L567.7,912.9L565.4,916.2L563.2,925.6L553.4,916.3L549.4,915.5L546.0,916.6L538.3,926.2L523.1,926.4L517.3,941.5L513.9,941.9L513.7,948.0L508.3,947.0L499.7,948.8L495.7,952.3L484.8,975.9L487.9,978.7L498.7,982.2L502.3,985.5L509.1,992.3L514.3,998.7L515.2,1001.4L514.2,1007.4L514.2,1018.3L512.8,1023.0L511.2,1026.1L506.4,1032.7L501.0,1035.3L498.2,1036.2L494.0,1040.8L489.5,1048.6L485.5,1051.5L481.4,1050.7L471.0,1047.6L466.8,1043.3L460.5,1038.9L456.0,1040.3L453.5,1046.5L456.2,1052.1L456.8,1063.4L459.0,1065.6L460.1,1069.1L461.5,1078.6L464.3,1087.5L463.8,1092.5L460.3,1103.0L492.9,1118.7L494.1,1119.4L490.8,1100.9L491.1,1096.6L492.1,1092.2L493.8,1087.8L496.1,1083.9L499.3,1080.6L506.3,1076.7L509.5,1074.1L512.1,1070.2L514.0,1066.2L516.5,1062.4L520.4,1058.9L545.2,1041.0L550.8,1035.3L553.6,1033.5L564.6,1029.0L568.2,1028.7L572.4,1029.9L578.1,1035.3L581.5,1036.9L585.2,1034.8L584.1,1028.9L585.0,1024.5L597.3,1004.4L602.6,998.6L609.2,993.4L615.8,990.2L642.3,983.4L644.0,981.7L644.4,977.4L643.7,976.3L640.8,974.6L639.4,966.2L636.5,960.7L634.9,959.9L630.0,959.2L628.9,955.3L630.6,953.0L633.2,951.1L634.9,948.4L634.6,945.2L633.1,942.5L632.4,939.4L634.4,935.1L638.1,932.3L641.6,932.6L643.9,935.6L644.1,940.7L647.6,938.0L654.3,930.1L656.0,929.3Z " data-id="GT.JU" data-name="Jutiapa" id="GT.JU"/>
utf-8utf-8<path d="M651.7,722.0L634.6,726.3L627.0,725.7L611.5,728.3L608.8,727.6L600.8,724.1L595.3,723.8L592.7,724.2L585.8,727.5L593.1,741.6L601.9,759.4L601.7,763.1L590.1,763.4L588.0,765.0L588.5,766.3L598.9,785.4L606.3,789.3L604.6,796.0L597.3,796.9L594.1,798.4L588.0,805.1L585.7,809.7L589.2,816.9L592.2,825.1L593.8,828.2L606.0,830.7L608.6,831.6L615.5,820.2L616.9,815.7L616.9,809.0L617.3,807.6L623.4,801.9L627.9,798.4L630.7,798.8L645.6,807.6L649.0,808.5L661.8,808.7L665.5,807.8L681.4,794.9L686.2,793.4L688.1,793.4L693.2,795.2L696.2,797.7L700.1,797.7L712.4,793.3L716.0,794.6L718.3,797.1L723.0,796.0L727.4,791.2L730.2,788.9L735.8,785.9L741.0,787.3L743.5,795.1L745.7,792.2L749.4,784.4L750.2,777.2L746.1,772.3L751.2,759.7L754.6,754.8L758.3,751.7L755.0,749.4L751.0,743.2L750.1,733.9L750.7,725.3L749.8,716.6L750.3,713.6L753.5,712.3L756.2,709.3L758.2,700.1L756.4,694.4L749.9,689.8L747.6,689.1L740.3,688.3L734.6,689.6L731.0,691.5L724.1,696.7L694.8,709.3L665.2,719.8L661.6,720.7L651.7,722.0Z " data-id="GT.ZA" data-name="Zacapa" id="GT.ZA"/>
utf-8utf-8<path d="M440.9,697.1L443.7,692.5L446.6,686.2L447.4,680.6L443.9,678.2L406.9,671.8L399.8,668.6L395.5,663.3L394.7,659.4L394.8,654.4L396.3,650.1L399.7,648.3L409.3,647.3L412.4,645.6L410.9,642.7L411.1,640.8L418.5,634.2L419.9,633.5L422.8,630.5L424.8,627.2L422.5,623.2L421.5,617.5L419.7,611.8L416.4,609.0L419.0,604.6L419.3,600.7L417.3,597.1L413.1,593.9L413.2,592.6L415.1,592.0L413.3,590.7L408.9,590.7L406.8,592.0L404.1,590.3L394.4,587.0L385.7,585.3L384.1,582.7L385.4,579.6L388.9,577.1L384.5,573.2L384.7,571.5L388.3,569.4L387.0,567.0L384.9,565.6L382.1,565.3L378.9,565.7L380.9,561.7L388.5,552.6L392.8,543.0L393.9,541.4L400.0,538.8L403.1,533.5L402.2,528.8L396.4,528.1L399.7,519.0L402.0,515.0L404.6,513.1L404.8,511.3L403.3,509.4L401.4,511.3L398.7,507.7L399.0,505.7L402.3,504.8L406.4,501.4L409.3,500.1L411.3,503.9L413.1,502.8L414.3,500.5L414.1,497.9L416.4,496.3L415.1,492.6L425.9,486.5L432.3,485.0L435.2,488.8L436.9,488.8L437.9,486.6L442.0,486.8L441.8,488.8L438.2,490.5L437.9,492.6L442.0,492.4L444.2,493.9L446.0,496.2L449.0,498.0L452.7,494.4L452.9,496.1L454.2,494.4L455.7,496.3L457.6,494.4L459.2,494.4L461.6,495.7L466.6,492.5L469.2,494.4L470.6,494.4L472.7,490.5L475.5,491.7L478.0,490.6L479.4,488.1L478.3,485.1L480.7,482.0L481.4,479.4L480.5,477.3L477.9,475.7L473.4,477.4L468.6,478.0L447.2,478.0L348.3,478.2L346.9,478.2L310.0,542.8L307.1,547.8L287.4,582.9L281.8,588.6L282.2,591.5L277.7,592.8L276.5,594.3L269.5,599.4L265.1,600.1L261.9,603.0L258.4,603.9L256.1,610.9L252.3,617.9L251.3,624.2L248.5,630.5L248.5,632.2L250.1,637.3L254.2,643.7L254.3,650.4L257.4,657.2L261.4,661.9L270.7,661.2L273.7,661.9L279.9,665.3L279.9,670.3L276.7,680.1L277.7,685.7L278.3,691.2L272.4,692.4L266.6,691.2L264.5,691.3L258.8,693.3L248.2,695.4L246.1,696.9L244.8,699.2L242.8,706.8L242.2,711.8L242.9,716.0L246.0,717.8L246.5,719.7L252.4,727.3L253.9,728.1L254.5,733.5L256.4,737.2L256.3,740.9L257.9,741.6L259.1,744.6L257.8,749.9L257.0,750.5L252.1,751.4L250.0,753.1L248.3,756.2L247.9,758.3L250.8,762.9L254.7,766.5L256.2,773.6L257.5,776.5L261.1,779.6L261.5,782.8L259.0,789.1L265.9,795.7L268.6,797.2L269.5,800.9L271.2,805.4L272.6,806.6L279.8,809.5L280.2,810.3L278.4,813.4L276.1,815.9L275.3,819.0L276.2,824.0L278.3,823.8L280.0,821.8L281.3,818.0L282.5,817.3L286.3,818.8L293.0,815.4L295.0,813.7L302.2,796.8L304.0,794.1L307.5,792.0L311.7,790.8L316.0,788.1L320.3,789.0L335.9,788.6L342.1,787.3L345.9,787.2L356.9,790.9L369.2,790.9L373.2,791.5L380.0,794.2L388.4,796.2L391.5,797.6L389.5,790.6L388.8,788.0L384.3,783.4L380.5,778.4L382.5,771.2L362.6,756.2L347.5,730.6L352.3,700.9L354.1,702.1L392.7,712.4L420.6,713.8L428.6,713.1L439.1,699.5L440.9,697.1Z " data-id="GT.QC" data-name="Quiché" id="GT.QC"/>
utf-8</g>
</svg>
