<?xml version="1.0" encoding="UTF-8" standalone="no"?>
<svg
   xmlns:dc="http://purl.org/dc/elements/1.1/"
   xmlns:cc="http://creativecommons.org/ns#"
   xmlns:rdf="http://www.w3.org/1999/02/22-rdf-syntax-ns#"
   xmlns:svg="http://www.w3.org/2000/svg"
   xmlns="http://www.w3.org/2000/svg"
   xmlns:sodipodi="http://sodipodi.sourceforge.net/DTD/sodipodi-0.dtd"
   xmlns:inkscape="http://www.inkscape.org/namespaces/inkscape"
   enable_background="new 0 0 1000 914"
   height="505.39999"
   pretty_print="True"
   style="fill:none;stroke:#000000;stroke-linejoin:round"
   version="1.1"
   viewBox="0 0 774.70001 505.39999"
   width="774.70001"
   id="svg3185"
   inkscape:version="0.48.4 r9939"
   sodipodi:docname="gw.svg"><sodipodi:namedview
   pagecolor="#ffffff"
   bordercolor="#666666"
   borderopacity="1"
   objecttolerance="10"
   gridtolerance="10"
   guidetolerance="10"
   inkscape:pageopacity="0"
   inkscape:pageshadow="2"
   inkscape:window-width="640"
   inkscape:window-height="480"
   id="namedview3210"
   showgrid="false"
   inkscape:zoom="0.25820569"
   inkscape:cx="498.1"
   inkscape:cy="456.4"
   inkscape:window-x="0"
   inkscape:window-y="0"
   inkscape:window-maximized="0"
   inkscape:current-layer="svg3185" />

utf-8<defs
   id="defs3187">
utf-8utf-8<style
   type="text/css"
   id="style3189">path { fill-rule: evenodd; }utf-8utf-8</style>

utf-8</defs>

utf-8<metadata
   id="metadata3191">
utf-8utf-8<views
   id="views3193">
utf-8utf-8utf-8<view
   h="914.937949687"
   padding="0"
   w="1000"
   id="view3195">
utf-8utf-8utf-8utf-8<proj
   flip="auto"
   id="robinson"
   lon0="-15.8644084388" />

utf-8utf-8utf-8utf-8<bbox
   h="53.16"
   w="58.16"
   x="-246.11"
   y="-236.4"
   id="bbox3198" />

utf-8utf-8utf-8</view>

utf-8utf-8</views>

utf-8<rdf:RDF>
  <cc:Work
     rdf:about="">
    <dc:format>image/svg+xml</dc:format>
    <dc:type
       rdf:resource="http://purl.org/dc/dcmitype/StillImage" />
  </cc:Work>
</rdf:RDF>
</metadata>

utf-8<g
   class=""
   id="provinces"
   transform="translate(-1.9,-408)">
utf-8utf-8<path
   d="m 186.4,636.5 -2.3,-3.3 -10.7,-0.1 0.4,1.8 -7.6,4.2 -3.7,1.5 -3.4,0.6 -9,-1.5 -4.8,-0.2 -4.5,1.7 1.1,2.9 0.4,3.8 0,8 1,3.6 2.4,0.6 3.1,0 2.9,1.7 6.2,10.6 3.1,2.2 5.2,-1.6 3,-0.4 2.5,2 3.1,-4 1.6,-4.6 2.3,-11.2 2.1,-4 2.5,-3.3 2.1,-3.5 1,-7.5 z m 81.4,-41.4 -10.2,6.1 -0.3,0.3 0,0 0.2,0.2 -1,3.6 -1.9,4.1 -0.9,4.1 -4.4,-1.8 -5,-0.3 -2.4,-1.2 -2.3,-5.2 -1.3,-1.7 -4.4,-0.1 -5.7,1.5 -5.4,2.5 -3.6,2.4 -2.1,2.5 -6.7,11.1 -1.8,7 -2.7,1.4 -4.4,3.3 -1.6,3.9 -3.9,16 -4.5,10.3 -1.6,5.8 0.6,5.7 2,3.9 1.5,-0.4 4.9,-4.2 7.2,-3.2 1.8,-5.3 0.2,-5.7 1.1,-4.7 4.2,-2.2 -1.8,10.6 1,3.7 4.9,1.4 2.6,-1.7 8.5,-17.9 0.6,-5.5 1.1,-4.9 4.1,-3.4 4.9,-0.1 5.8,5.7 4.7,0.3 0,2 -2.7,0.1 -5.6,-2 -6.2,0.4 -4.8,9.7 -5.5,23.4 4.9,-1.4 12.1,-7 2.5,-2.5 2.5,-1.7 16.4,-3.3 0.7,-0.4 -0.3,-7.3 0.3,-5 1.6,-9.6 12.4,-24.5 -1.6,-5.9 -0.7,-1.7 -8,-11.2 z"
   data-id="GW.BM"
   data-name="Biombo"
   id="GW.BM"
   inkscape:connector-curvature="0" />

utf-8utf-8<path
   d="m 278.1,613.9 -12.4,24.5 -1.6,9.6 -0.3,5 0.3,7.3 0,0 4.9,-2.2 11.3,-7.6 5.1,-1.6 2.1,-1.9 7.6,-12.1 1.6,-1 0.9,-0.4 -4.6,-3.1 -4.6,-5.9 -5.1,-2.2 -2.4,-2.3 -2.8,-6.1 z"
   data-id="GW.BS"
   data-name="Bissau"
   id="GW.BS"
   inkscape:connector-curvature="0" />

utf-8utf-8<path
   d="m 204.7,851.1 -2.5,-6.9 -3.8,-5.6 -4.8,-4.2 -2.8,3.8 -0.4,3.7 1.2,6.5 0.2,4.4 -0.3,3.5 -1.2,3.3 -2.3,4.3 3.4,4.1 0.4,-4.7 2.6,-1.5 2.8,1 1.1,3.3 -1.5,1.4 -7.2,3.7 -4.5,1 -0.8,0.8 -0.1,3.9 0.7,1.4 3.8,-2.4 6.7,1.2 2.7,0.2 2,-1.4 2.5,0.8 3.5,-0.3 3,-1.8 1.4,-3.7 -0.8,-2.5 -3.5,-4.8 -1.5,-12.5 z m -18.2,-4.9 -0.2,-7.5 -0.5,-3.8 -1,-2.4 -13.6,4.7 -3.7,3.3 -2.1,4.5 0.2,4.3 2.8,2.8 5.8,0 -2.7,5 0.2,3.7 1.4,3.6 0.8,4.5 1.3,3.4 2.9,-2 5.5,-7.4 2.5,-4.3 0.8,-3.9 -0.4,-8.5 z m -23.3,-3.9 2.4,-3.5 -1.6,-2.2 -4.2,-3.9 -5.1,-0.6 -3.8,3.1 -0.8,7.1 -3.9,-2.4 -1.2,-1.5 -1.6,3.1 -4.5,2.7 -2.1,9.8 -2.5,2.2 -2.9,1.5 -2.3,2.5 -1.6,-4.1 5,-2 -3.8,-1.1 -4.3,1.8 -4.2,3.4 -3.3,3.8 3.3,6.9 5.3,7.2 6.2,4.6 5.8,-0.9 5.2,4 -1.6,-4 3.4,-6 1.6,0 -0.9,2.7 0.7,7.3 5.2,-2.2 4.5,0.3 4.5,-0.2 5.2,-3.8 -1.6,-2.6 1.3,-4.3 1.1,-5.3 -2.4,-5.5 0,-2.2 3.6,0 -3.6,-5.8 -1,-2.7 -0.4,-4.3 0.9,-2.9 z m 55.6,-8.1 2.3,-3.7 0.5,-12 2.8,-10.7 -1.3,-2.9 -6.6,0 -6,6.4 -4.1,9.2 0,8.8 6.1,5.1 6.3,-0.2 z m 47.1,-24.1 0.9,-5.2 -3.9,-0.6 -6.5,-0.3 -6.1,2 -3.4,6.8 -4.4,-0.2 -0.1,5.9 -5.4,6.3 0,1.8 3.9,1.6 -1,2.1 -4.8,4.1 0.5,4 1.6,3.9 2.4,1.4 2.5,-3.2 5,0 1.9,3.8 1.1,-4 0.6,-4.5 -0.2,-4.2 -1.3,-3.1 3.1,-1.2 2.1,3 1.9,-1.8 3.4,-5.9 0,-1.9 -1.9,0 0,-2.2 3.6,0.4 3.8,7 1.3,-1.1 0.6,-5.2 -1.2,-9.5 z m -137.7,-7.3 -1.9,2.1 -3.9,-0.4 -4.9,2.8 -3.6,4.6 0.3,4.8 -2.6,0.8 -1.7,1.9 -1,2.8 -0.3,3.5 1.1,0.1 6.8,3.6 3.2,0.7 16.6,-1.6 -1,-4.1 1.1,-2.7 5.5,-3.2 -0.6,-9.7 -1.1,-2.1 -3.6,-0.7 -3.3,0.5 -2.9,-0.3 -2.2,-3.4 z m 137.6,-53.1 0,-4.1 -5.2,4.1 -1.8,-2.1 -3.4,7.6 -2,2.2 -5.5,-0.5 -1.2,2.6 1.3,3.1 3.5,2 4.1,0 3,-3.1 1.9,0 1.5,3.8 5.6,-5.1 1.3,-2.3 -1.5,-2.3 1.8,-4.1 -1.6,0.2 -1.8,-2 z m -136.8,12.7 3,-4.2 7.6,-9 1,-2.7 -1.2,-2.9 -4.5,-0.8 -7,0.9 -6.6,2.1 -2.9,2.8 -1.9,4.5 -4.2,3.4 -4.6,2.7 -3.1,2.3 3.6,1.4 3,0.5 5.3,-0.1 8.2,2.1 2.1,-0.1 2.2,-2.9 z m -8.9,-36.7 -1.3,-1.7 -1.5,1 -5.5,0.9 -1.8,-1.9 -7,8.7 -9.6,1.4 -10.5,0.3 -9.4,5.3 3.6,2 -1.7,2.3 1.6,3.6 -2,3.9 2.8,-0.3 4.4,-3.6 13.2,0.1 6.3,6 5.6,-3.6 4.2,-0.7 1.8,-5.8 4.2,-6.2 2,-4.3 0.9,-5.2 -0.3,-2.2 z m 78.8,-0.2 -1.8,-3 -0.3,-4.6 -3.1,-0.5 -5.9,6.7 -4.1,1.8 -2.6,2.3 -2.6,5.4 -2.1,6.2 -0.8,4.8 -1,0 -5.9,6.9 -8.8,5.9 1.1,3.1 8.6,6.9 2.3,3.8 5,-2.4 2.3,-2.4 1.5,-3.1 3.4,4.1 1.6,-4.1 1.9,0 1.9,5.9 5.6,-1.5 6.6,-4.2 5.1,-2 -2.7,-5.9 -1.1,-7 0.9,-7 3.2,-5.8 -2.8,-2.6 0.9,-7.7 -3.1,-3.7 -1,3.8 -2.2,-0.1 z m 115.9,-15.5 -2.6,0.4 -3.3,1.7 -3.8,1.3 -4.3,-1.2 -2.3,3.4 -3.2,2.8 -2.6,3.2 -0.5,4.3 -6,-0.1 -3.2,3.5 -2.4,4.4 -3.3,2.1 -3.2,1.3 0.7,2.7 2.1,1.8 8.7,0.9 2.9,-0.8 2.4,3.4 3.6,-2.6 1,-4.5 -5.4,-2.2 0.1,-2 5.6,0.3 1.3,-0.3 7.7,-6.3 2.2,1.8 3.2,0.6 4.8,-0.8 -0.2,-2.1 -2.3,-3 -1.4,-3.2 0.7,-3.5 2.8,-3.3 0.2,-4 z m 33.6,-14.5 -2.8,-1.8 -9.6,-0.6 -8.6,2.3 -0.8,0.8 -0.3,2.8 -2.4,5.2 -2.7,4.5 -1.3,4.4 -2.9,2.3 -1.1,2.2 3.2,6.5 1.6,5.6 2.6,2 0.1,-5.8 3.1,2 -0.1,-3.3 2.1,-8.7 1.8,0 0,5 1.8,2.9 2.1,-0.1 1.2,-3.8 5.1,1.9 -1.5,-5 -2.5,-4.8 -1.7,-4.8 0.8,-5 5,8.6 3.3,4.1 3.8,3 1.8,-3.9 -3,-3 -1.2,-3.2 -0.8,-7.6 3.4,0 -1.7,-3.9 2.2,-0.8 z"
   data-id="GW.BL"
   data-name="Bolama"
   id="GW.BL"
   inkscape:connector-curvature="0" />

utf-8utf-8<path
   d="m 267.1,592.8 -0.2,-3.1 2.1,-8.4 -0.4,-7.7 3.2,-11.8 0.2,-5.3 -2.5,-3.2 -6.8,-2.4 -3.2,-2.4 -2.5,-3.1 -5.7,-5.5 -3.4,-4.3 -1.2,-3.7 2.5,-3.2 -0.8,-4.2 0.3,-1.8 5.9,-7.2 1.1,4.1 0.9,0.7 4.3,-0.7 1,-0.9 0,-4.7 0.7,-1.3 4.2,-1.4 4.7,0.3 1.5,-0.3 5,-2.8 4.1,-5.8 9.7,-6.8 7.5,-3.4 4.7,-3.7 4.5,-1.4 1.2,0.3 7.1,0.4 1.2,4.7 3.2,1.9 1.4,-0.6 8.6,-6.6 3.8,-3.6 1.6,-6.4 0.8,-8 -0.7,-6.5 -4.5,-17.7 -0.6,-1.6 -0.7,0.6 -64.3,33.3 -8.7,2.1 -46,-3.1 -20.1,1.6 -4.8,-1 -15.7,-5.9 -9,-0.9 -19.1,3.7 -4.1,2.3 -2,-0.4 -5.5,-2.4 -2.7,-0.5 -2.6,0.6 -38,22.8 -7.7,3.5 -12.8,0.1 -13.2,3.6 -4.7,0.3 -34.2,-2.6 -9.3,2.5 -4,7 3,-1.1 5.5,-3 3.8,0 2.8,1.6 9.2,8.2 3.6,6.5 1.5,1.4 1.9,0.1 5,-1.9 2.4,1.6 5.2,5 1.8,1.1 0.1,1.8 5.9,7.7 1.6,1.5 0.4,3.3 1.4,2.8 2.4,2 6.2,1.7 2.2,3.4 1.5,-1.2 2.2,-3.2 6.9,-0.4 2.1,-1.7 0.5,-3.8 3.6,4 1.7,-2 4.9,2.4 3.8,-1.4 2.6,-4.1 1.7,-10.5 3.3,-5.7 1.3,-4.3 0.1,5.6 -1.9,6.5 -0.5,5.3 4.7,2.3 8.7,-10.9 2.6,-2.5 8.8,-6.3 5.3,-1.9 13,-3.1 5.2,-3.9 3.6,-5.1 3.5,-3.8 4.5,-2.1 6.7,0.2 -2.5,1.1 -5.6,1.5 -2.3,1.2 -2.3,2.2 -4.9,7.6 -4.2,3.8 -18.7,12.2 -4.7,2.3 -4.4,2.9 -2.9,4.6 -0.1,3.1 2.1,4.3 -0.2,2.4 -2.3,2.6 -1.9,-0.6 -1.2,-2.5 -0.1,-3.4 -6.4,3.6 -2.9,2.8 -2.8,3.6 -7.1,16.7 0.5,4 2.4,7.3 0.7,8.8 0.9,4.1 1.6,3.6 2.1,2.7 2.9,1.3 6.7,1.2 2.4,1.6 5,12.7 2.9,3.3 7,3.3 8.1,1.7 6.2,-1.5 3.9,4.9 2.2,2.1 2.4,1 2.9,-0.8 2.1,-2 5.1,-3.7 7.5,-3.5 18.7,-0.3 3.5,-1.7 3.8,-3.7 2.2,-3.8 1.1,-7.5 2,1.3 1.7,-1.8 -1.6,-4.1 5.1,-0.5 5.8,-1.6 4.7,-3 1.9,-4.8 1.7,0 1.8,3.5 3.2,1 9.6,-0.8 4.4,0.3 1.9,1.4 1.7,3.3 1.5,1.2 4.7,0.1 3.5,-2.3 3.9,-3.7 1.7,1.9 0,0 0.3,-0.3 10.2,-6.1 -0.7,-2.3 z"
   data-id="GW.CA"
   data-name="Cacheu"
   id="GW.CA"
   inkscape:connector-curvature="0" />

utf-8utf-8<path
   d="m 331.6,443.7 0.6,1.6 4.5,17.7 0.7,6.5 -0.8,8 -1.6,6.4 -3.8,3.6 -8.6,6.6 -1.4,0.6 -3.2,-1.9 -1.2,-4.7 -7.1,-0.4 -1.2,-0.3 -4.5,1.4 -4.7,3.7 -7.5,3.4 -9.7,6.8 -4.1,5.8 -5,2.8 -1.5,0.3 -4.7,-0.3 -4.2,1.4 -0.7,1.3 0,4.7 -1,0.9 -4.3,0.7 -0.9,-0.7 -1.1,-4.1 -5.9,7.2 -0.3,1.8 0.8,4.2 -2.5,3.2 1.2,3.7 3.4,4.3 5.7,5.5 2.5,3.1 3.2,2.4 6.8,2.4 2.5,3.2 -0.2,5.3 -3.2,11.8 0.4,7.7 -2.1,8.4 0.2,3.1 0.7,2.3 8,11.2 0.7,1.7 1.6,5.9 2.8,6.1 2.4,2.3 5.1,2.2 4.6,5.9 4.6,3.1 2.8,-1.3 1.5,-1 8.1,-8.9 2.1,-1.1 8.2,0.2 1.7,-0.8 6,-5.3 5.6,-1.7 5.9,-0.3 5.7,1.4 4.7,3.5 3.5,3.6 3.1,1.7 9.8,1.8 10.2,3.8 4.7,1.1 5.8,-1.1 3.7,-2.9 7.3,-9 2.2,-1.9 4.1,-1.2 7.9,-5.3 3.6,-1.2 2.7,0.7 5.6,2.6 4.5,-1.6 2.8,0.1 2.6,1 3.3,4.2 0.1,1.7 3.6,0.4 5.3,-1.8 2.2,-1.8 -0.5,-3.7 -1.7,-4.1 -0.3,-3.9 1.1,-7.4 -13.5,-8.9 -2.9,-0.7 -2.3,-3.3 -0.9,-7.1 -1,-2.8 -7.7,-15.3 0.4,-3.8 1.9,-3.4 2.5,-3.2 3.1,-2.3 11,0.2 6.6,4 10.4,1.5 1.1,-0.8 0.5,-2.3 0.3,-13.3 0.8,-5.6 -2.1,-7.5 -4.8,-4.5 -1.8,-3.8 -0.2,-1.8 -0.6,-28.3 1.7,-2.2 12.3,-2.7 5.1,-2.4 3.1,-2.7 4.7,-2.7 1,-2.7 -2.7,-6 -3.3,-3.7 -6.3,-4.8 -1.2,-5 1.6,-4.5 3.6,-6.4 1.2,-2.9 5.3,-11 -0.3,-6.7 -2.7,-5.8 -69.3,-0.3 -12.3,0 -7.3,1.2 -6.6,3.3 -14.8,11.8 -15.5,7.9 -13.6,11 z"
   data-id="GW.OI"
   data-name="Oio"
   id="GW.OI"
   inkscape:connector-curvature="0" />

utf-8utf-8<path
   d="m 451.2,675.3 -5.9,1.1 -5.9,-1.5 -2.6,-3.3 -2.3,-5.1 -5.6,-2.1 -6.4,-1.2 -4.9,-2.5 -2.5,-5 -1.6,-7.1 -0.1,-7.1 2,-5.5 2.6,-4.4 1.8,-5.9 -1,-4.3 -5.8,0 -4.1,3.1 -3.4,4.5 -4.2,4.2 -6.7,1.7 -7,6.3 -31.2,0 -5.5,-0.8 -10.1,-3.1 -5.9,-0.2 -4.3,1.4 -1,2.7 -2.8,-2.2 -0.6,-1.9 -1.6,0 -3.3,3.5 -1.5,2.5 -0.9,6.1 -5,3.8 -9.7,10.8 -1.8,3 -2.1,6.3 -4.8,7.9 0,4.8 1.3,4.7 0.8,4.8 1.1,2.1 2.2,-1.6 5.2,-6.6 2.1,-1.2 3.3,0.2 -0.4,3.4 -0.1,6.1 -1.2,2.5 4.4,3.5 4.4,-2.5 8.4,-8.9 -0.4,3.9 0.8,-0.8 8.6,-2.3 9.6,0.6 2.8,1.8 0,0 1.3,-0.5 1.5,3.9 1.8,11.1 2.3,-7.5 1.2,-2.3 1.4,2.6 2.4,1.2 2.3,-0.9 1,-3.9 -1.2,-2.6 -5.8,-4.3 0.1,-2.1 -3.4,-2 2.3,-0.7 6.3,-0.2 0.3,-3.5 0.9,-3.1 1.6,-2.4 2.5,-1.7 -1.9,8.6 0.5,3.5 2.9,1.5 -2.6,4.4 -0.7,2.7 1.5,0.9 2.2,-1 2.3,-3.7 2.7,-1.2 -0.3,-5.3 3.2,-7.7 0.7,-4.7 1.8,0 5,3.1 2.3,2.6 1,4 -5.1,-1.8 -1.6,0 -1.4,3 -0.3,2.7 0.9,2.3 2.2,1.8 -6.3,3.6 -1.3,4.9 2.1,1.6 3.9,-6.1 1.5,3.8 2.5,1.5 1.9,-1.1 -0.7,-4.2 2.6,-0.3 1.6,-1 1,-4.8 1.6,0 2,1.8 2.3,0.1 2.4,-1.4 2.1,-2.5 -1.1,5.3 -3.1,2.3 -3.6,2 -2.7,4.4 3.5,0.3 3.8,2.4 3,-0.8 3.6,-9.8 1.7,0 1.9,3.9 -0.1,2 -3.7,4.8 -1.8,1.1 -0.1,2.1 3.2,0 2.1,1.3 3.4,4.5 0.5,-4.1 1.5,-3 2.3,-1.6 2.9,0.8 -1,5.3 0.9,2.6 -4.8,1.6 -0.6,1.3 0.8,3 1.9,0.7 8.4,-1 8.1,-3.7 -0.9,3.9 -1.3,2.6 -2.1,1.9 -2.9,1.6 -2.3,0.5 -8.1,0.5 -1.3,0.6 -3,-0.7 -3,0.3 -2.5,7.7 -2.2,0.2 -1.4,-2.6 1.2,-4.5 -2.2,-0.5 -2.6,-3.4 3.6,0 10,-2.2 -3.8,-6 -2.6,-1.6 -3.8,-0.2 1.5,3.9 -4.9,2 -0.1,-6.4 -0.9,-2.5 -4.4,-1.6 -5.1,-3.3 -2.1,0.9 -4,4.1 -0.7,2 5.1,8.7 -2.5,4.6 -1.9,0.4 -6.2,-5 2,-7.8 -3.5,1.9 -1.9,-1.3 -5.5,-1.4 -2.9,-1 1,3.8 3.9,0.8 2,1.1 0.6,2.9 -0.4,4.6 3.1,0.5 -4.7,2 -4,-2.3 -3.2,-4.1 -1.8,-3.6 -2.4,2.3 -2.6,1.6 -5.6,2.2 0,1.9 5,-1.9 3.6,3.5 2.9,4.4 0.1,3.9 -4.9,1.9 0,-5.1 -6.5,0.4 -2,-3.1 -1.7,0 -1.8,5.9 1.9,4.2 -1.4,0.9 -4.2,-1.2 -6.3,-0.8 -2.3,-1.2 -1.7,2 3.2,7.2 0.2,2.8 -1.9,0 -1.7,-3.8 -2.1,0.7 -1.9,3.2 -1.2,3.8 -1.5,-6 -2.3,2.5 -2.3,1.2 -2.3,-0.2 -1.9,-1.4 -0.9,7.6 1.5,2 4.4,0.2 -7.2,11.8 -2.1,4.3 -3.9,10.4 -0.8,3 1,6.2 2.1,0.7 2.9,-1.6 3.3,-1.2 5.2,-0.9 2.2,-2.7 1.4,-3.8 2.4,-4.5 2.9,-1.9 4.2,-1.7 3.6,-2.1 1.7,-3.3 0.8,-5 2.2,-4.9 3.3,-3.6 4.4,-1.3 1.3,1.5 -2.1,3.1 -3,3.6 -1.5,2.8 -1.4,8.8 0.8,3.3 3.8,2.6 5.1,-3.1 14.1,-12.6 -1.3,3.7 2.4,-1.8 12.6,-11.7 4.6,-1.7 5.8,3.1 4.1,3.5 3.8,2.2 3.9,5.6 2.7,2.5 2.8,1.6 3.7,0.5 9.3,-3.7 6,-1 5.1,-2.3 9.8,-2.5 3.8,-2.3 2.8,-4.7 3,-6.8 4.9,-10.5 -0.1,-5.3 0.7,-5.3 3.5,-8.2 11.7,-19 6.2,-12.4 -8,0.9 -0.3,-1.5 6.5,-8.4 0.9,-2.3 -1,-1.2 -6.4,-3.2 -3.6,1.3 -2.9,-6.1 -1.3,-4.3 -2.3,-1.2 -2.6,0.3 -1.8,1.5 -1.1,3.8 -2.7,4.8 z"
   data-id="GW.QU"
   data-name="Quinara"
   id="GW.QU"
   inkscape:connector-curvature="0" />

utf-8utf-8<path
   d="m 580.8,409.4 -89.5,-0.5 -20.3,-0.1 2.7,5.8 0.3,6.7 -5.3,11 -1.2,2.9 -3.6,6.4 -1.6,4.5 1.2,5 6.3,4.8 3.3,3.7 2.7,6 -1,2.7 -4.7,2.7 -3.1,2.7 -5.1,2.4 -12.3,2.7 -1.7,2.2 0.6,28.3 0.2,1.8 1.8,3.8 4.8,4.5 2.1,7.5 -0.8,5.6 -0.3,13.3 -0.5,2.3 -1.1,0.8 -10.4,-1.5 -6.6,-4 -11,-0.2 -3.1,2.3 -2.5,3.2 -1.9,3.4 -0.4,3.8 7.7,15.3 1,2.8 0.9,7.1 2.3,3.3 2.9,0.7 13.5,8.9 -1.1,7.4 0.3,3.9 1.7,4.1 0.5,3.7 -2.2,1.8 -5.3,1.8 -3.6,-0.4 0,0.1 -2.6,0.8 -3.8,0.2 -1.3,2.6 -4.8,14.1 -1.7,3.3 -3.2,3.4 -2.3,3.4 1,3.7 4.8,7.1 2.8,1.9 2.3,0.8 7.4,1 3.4,3.3 3.4,6.5 4.5,4.6 6.6,-2.6 1.1,-3.8 1.8,-1.5 2.6,-0.3 2.3,1.2 1.3,4.3 2.9,6.1 3.6,-1.3 6.4,3.2 1,1.2 -0.9,2.3 -6.5,8.4 0.3,1.5 8,-0.9 4.4,2.6 1.1,2.6 0,3.3 1.1,4.7 4.1,6.5 6.3,6.1 6.9,3.3 6.1,-2.1 6.8,-7.7 2.6,-1 4.1,0.3 3.7,3.2 1.7,0.7 2.3,-0.2 7.1,-3.5 5.8,-1.4 11.6,-1.4 5.7,0.4 1.5,-16 1.1,-3.9 6,-3.5 3.3,-3.6 0.5,-1.8 -4,-7.7 0.1,-5.4 -1.3,-10.6 -0.3,-13.1 0.6,-5.8 3.2,-9.8 -1.1,-5 -5.1,-4.2 -2.4,-5.3 0.1,-1.8 1.9,-3.9 1,-3.5 1.3,-8 0.1,-3.8 -1.6,-2.9 -3.8,-1.9 -4.1,-3.9 -0.8,-2.8 0.5,-5.8 0.8,-1.7 4,-1.5 3.1,0.7 3.5,-0.9 2.8,-2.6 3.6,-0.8 3.3,-3 2.2,-6.3 0.6,-3.4 -0.3,-2.3 -6.6,-4.3 -1.6,-2.6 -3.8,-15.1 0,-2.3 2.5,-6.4 0.9,-3.4 -1.1,-4.8 -1.8,-1.9 -3.2,-2 -4.3,-1.4 -3.1,-2.5 -1.3,-2.4 -6.2,-2.5 1.3,-4.5 -2.1,-2.2 2.7,-4.2 3.9,0.3 4.4,-0.3 2.6,-1.4 0.9,-1.3 -1.8,-8.3 0.7,-3.2 2.2,0.7 1.1,2.4 2.8,0.2 0.7,-1.1 3.6,-2 2,-3.3 -1.1,-4.5 -3.2,-4.3 -3.2,-1.5 -4.7,2.7 -3.9,0.9 -1.1,-0.6 -2.4,-9.5 0.2,-2.7 3,-2.5 1.1,1.1 0,4.6 2.2,0.3 2.1,-0.9 3.1,2.3 5.4,-0.1 2.9,4.5 2.8,-0.9 3,-3.3 3.6,-1.4 5.1,4.1 1.2,0.2 5.1,-7.8 0.3,-2.1 -4,-3.6 -4.2,-3.2 -0.8,-3.8 -0.9,-16.3 0.5,-2.1 3.7,2 2.3,3.3 3.9,-0.3 2.3,-3.3 1.2,-4.1 4.2,-9.4 -23.8,-0.1 z"
   data-id="GW.BA"
   data-name="Bafatá"
   id="GW.BA"
   inkscape:connector-curvature="0" />

utf-8utf-8<path
   d="m 604.6,409.5 -4.2,9.4 -1.2,4.1 -2.3,3.3 -3.9,0.3 -2.3,-3.3 -3.7,-2 -0.5,2.1 0.9,16.3 0.8,3.8 4.2,3.2 4,3.6 -0.3,2.1 -5.1,7.8 -1.2,-0.2 -5.1,-4.1 -3.6,1.4 -3,3.3 -2.8,0.9 -2.9,-4.5 -5.4,0.1 -3.1,-2.3 -2.1,0.9 -2.2,-0.3 0,-4.6 -1.1,-1.1 -3,2.5 -0.2,2.7 2.4,9.5 1.1,0.6 3.9,-0.9 4.7,-2.7 3.2,1.5 3.2,4.3 1.1,4.5 -2,3.3 -3.6,2 -0.7,1.1 -2.8,-0.2 -1.1,-2.4 -2.2,-0.7 -0.7,3.2 1.8,8.3 -0.9,1.3 -2.6,1.4 -4.4,0.3 -3.9,-0.3 -2.7,4.2 2.1,2.2 -1.3,4.5 6.2,2.5 1.3,2.4 3.1,2.5 4.3,1.4 3.2,2 1.8,1.9 1.1,4.8 -0.9,3.4 -2.5,6.4 0,2.3 3.8,15.1 1.6,2.6 6.6,4.3 0.3,2.3 -0.6,3.4 -2.2,6.3 -3.3,3 -3.6,0.8 -2.8,2.6 -3.5,0.9 -3.1,-0.7 -4,1.5 -0.8,1.7 -0.5,5.8 0.8,2.8 4.1,3.9 3.8,1.9 1.6,2.9 -0.1,3.8 -1.3,8 -1,3.5 -1.9,3.9 -0.1,1.8 2.4,5.3 5.1,4.2 1.1,5 -3.2,9.8 -0.6,5.8 0.3,13.1 1.3,10.6 -0.1,5.4 4,7.7 -0.5,1.8 -3.3,3.6 -6,3.5 -1.1,3.9 -1.5,16 10.9,2.9 0.9,6.3 1.2,5 5.6,9.2 23.7,-14.4 3.3,-2.9 1.7,-2.9 3,-6.9 2,-2.5 2.8,-1.6 2.7,1.1 21.2,1.5 5.8,-0.9 2.6,0.6 6.7,5.5 4.1,1.1 3.5,-0.2 7.6,-1.5 4,-0.1 11.1,2 4.7,-1.9 11,-7.5 2,-1.7 5.5,3.1 5.1,-0.1 4.4,-2.9 3.3,-5.5 0.7,-2.8 0.7,-6.6 -1.2,-3.2 0.8,-1.6 3.8,0.1 2.2,1.8 0.8,5.7 2.1,1.5 3.6,1.2 -0.4,4 1.5,2.1 5,0.8 6.5,-1.3 6.2,-2.8 4,-3.3 1.4,-3.8 1.4,-12.4 0.2,-5.2 -3.5,-33.9 1,-12 2.4,-11.6 -0.3,-5.5 -2.7,-4.7 -2.4,-1.4 -8.9,-1.5 -4.1,-2 -3,-2.3 -5.4,-6.9 -3.1,-6.7 -6.9,-2.7 -2.5,-2 -4.9,-5.3 -4.8,-3.4 -5.1,-1.8 -6.6,-1.1 -1.9,-1 1.1,-3.2 0.1,-6.2 0.7,-2.9 5.6,-7 15.4,-8 6.2,-5.7 4.8,-3.2 7,-1.8 4.2,1.4 -3.3,6.5 17.1,-0.3 7.4,-3 7.5,-20.5 0.3,-3.4 -0.7,-8.3 0.9,-6.1 4.6,-11.8 1,-5 -0.6,-4.9 -2.8,-5.8 -12.5,-17.9 -2.3,-7.8 -0.3,-6.5 2.3,-18.9 -89.6,-0.4 -65.7,-0.3 z"
   data-id="GW.GA"
   data-name="Gabú"
   id="GW.GA"
   inkscape:connector-curvature="0" />

utf-8utf-8<path
   d="m 577.8,730.7 -5.6,-9.2 -1.2,-5 -0.9,-6.3 -10.9,-2.9 -5.7,-0.4 -11.6,1.4 -5.8,1.4 -7.1,3.5 -2.3,0.2 -1.7,-0.7 -3.7,-3.2 -4.1,-0.3 -2.6,1 -6.8,7.7 -6.1,2.1 -6.9,-3.3 -6.3,-6.1 -4.1,-6.5 -1.1,-4.7 0,-3.3 -1.1,-2.6 -4.4,-2.6 -6.2,12.4 -11.7,19 -3.5,8.2 -0.7,5.3 0.1,5.3 -4.9,10.5 -3,6.8 -2.8,4.7 -3.8,2.3 -9.8,2.5 -5.1,2.3 -6,1 -9.3,3.7 -3.7,-0.5 -2.8,-1.6 -2.7,-2.5 -3.9,-5.6 -3.8,-2.2 -4.1,-3.5 -5.8,-3.1 -4.6,1.7 -12.6,11.7 -2.4,1.8 0,0.1 -2.7,4.5 -3.1,3.9 -5.1,2.5 -3.6,3.9 -2.6,0.9 -2.9,-0.7 -5.1,-2.7 -1.6,-0.4 -2.7,2.5 -6.6,9.6 -1.2,2.7 -0.4,3 -1.3,3.8 -0.3,4.9 4,2.1 -0.5,5 -0.5,13.8 0.8,7 3.7,3 2.9,0.4 2.5,1.2 1.7,2.1 0.7,3.1 1.3,3.3 3.1,0.5 5.9,-0.9 4.4,3 2.6,0.9 9,-0.2 6.5,2.9 1.9,-5 0.4,-6.9 -0.3,-4.4 -1.3,-4.9 -0.7,-5.6 1.5,-4.2 5.7,-1 -2.8,7 2.4,24.3 -2.1,12.5 -1.4,3.4 -2.7,2.3 -7.6,4.2 -2.8,2.3 0.2,3.1 2.9,4.3 3.8,3.8 3.3,1.6 3.1,-1.3 2.8,-3 6.7,-9.9 3.8,-8.2 3,-4.1 6.1,-4.9 1.5,-2.6 0.2,-5.5 3.6,2 0.1,-2 1.8,-3.9 2.8,2.1 2.5,-0.6 1.2,-2.8 -1.4,-4.6 6.2,-1.4 5.1,-3.4 3.8,-5.4 2.4,-7.5 3.5,3.1 0.2,5.1 -2.1,5.4 -3.4,4.1 4.7,4.4 0.4,2.4 -10.5,1 -0.1,5.9 -4.5,0.3 -1.5,0.8 -1.5,3.3 -1.3,4.2 -1.6,3.8 -2.7,1.6 -1.6,3.5 -4.8,21.1 0.8,2.7 2,1.6 2.8,0.7 3,-0.1 2.7,-1.1 4.3,-6.8 1.9,0 0,2 -1.7,1.5 -3.8,6.5 -4.5,3.1 -1.7,1.9 -0.8,3.8 2.9,0.5 6.5,-3.6 9.9,-7.8 15.9,-19.7 24.9,-52.7 5.3,-22.6 4,-10.8 25.6,-41.3 4.6,-5.6 6.2,-3.8 10.5,-1.2 21,2.7 10.4,-2.1 22.6,-13.7 z"
   data-id="GW.TO"
   data-name="Tombali"
   id="GW.TO"
   inkscape:connector-curvature="0" />

utf-8</g>
</svg>
