<?xml version="1.0" ?>
<!DOCTYPE svg
  PUBLIC '-//W3C//DTD SVG 1.1//EN'
  'http://www.w3.org/Graphics/SVG/1.1/DTD/svg11.dtd'>
<svg enable_background="new 0 0 1000 1734" height="1734px" pretty_print="True" style="stroke-linejoin: round; stroke:#000; fill: none;" version="1.1" viewBox="0 0 1000 1734" width="1000px" xmlns="http://www.w3.org/2000/svg" xmlns:xlink="http://www.w3.org/1999/xlink">
utf-8<defs>
utf-8utf-8<style type="text/css">
<![CDATA[path { fill-rule: evenodd; }]]>utf-8utf-8</style>
utf-8</defs>
utf-8<metadata>
utf-8utf-8<views>
utf-8utf-8utf-8<view h="1734.82085109" padding="0" w="1000">
utf-8utf-8utf-8utf-8<proj flip="auto" id="robinson" lon0="-58.1288227231"/>
utf-8utf-8utf-8utf-8<bbox h="123.62" w="71.3" x="-907.74" y="-143.51"/>
utf-8utf-8utf-8</view>
utf-8utf-8</views>
utf-8</metadata>
utf-8<g class="" id="provinces">
utf-8utf-8<path d="M805.8,535.9L806.0,537.6L804.8,540.3L803.9,544.5L804.9,549.5L803.4,553.7L801.2,555.1L798.2,556.1L785.3,559.3L784.1,560.7L782.7,565.3L782.9,568.7L784.3,576.3L787.8,580.3L788.4,583.8L787.3,587.5L782.7,596.2L779.6,598.7L774.0,594.8L772.5,594.7L768.0,596.6L765.5,599.4L768.8,605.9L769.8,611.5L770.4,622.7L769.5,630.6L775.4,646.2L778.6,650.3L781.4,651.0L784.5,654.4L784.3,660.4L780.1,671.1L767.7,723.6L765.4,746.1L764.4,751.2L763.0,754.7L756.2,762.5L752.8,769.1L747.4,783.8L740.4,793.9L736.0,802.6L725.0,832.8L704.1,858.5L698.6,866.7L695.1,876.4L691.6,891.0L682.8,917.6L679.0,920.0L672.6,921.4L637.9,922.3L635.4,931.1L616.9,966.2L612.8,981.7L603.9,1007.3L603.0,1012.3L606.0,1019.0L618.1,1038.7L625.8,1071.4L625.6,1076.6L624.0,1083.3L624.3,1090.5L630.1,1120.7L631.7,1125.7L633.2,1129.5L651.9,1162.0L658.2,1177.3L659.3,1180.8L659.7,1186.0L659.6,1191.5L666.1,1222.9L666.0,1227.2L664.8,1238.0L665.2,1244.4L666.3,1251.2L668.4,1258.4L689.6,1293.8L702.0,1328.7L702.6,1333.3L701.9,1335.0L685.2,1359.8L681.8,1366.8L680.8,1375.4L682.5,1405.6L682.4,1412.6L681.8,1417.4L680.9,1421.9L678.1,1429.9L663.4,1461.2L629.0,1565.6L621.2,1581.9L612.4,1596.6L601.6,1624.5L599.2,1628.2L590.2,1638.5L582.7,1650.4L581.0,1655.7L579.1,1669.8L579.7,1669.0L597.5,1665.5L603.2,1661.3L603.3,1659.0L602.1,1654.1L602.5,1651.7L604.0,1650.2L608.7,1647.8L610.6,1646.4L614.7,1637.0L617.1,1635.2L618.0,1635.7L621.5,1641.3L625.0,1643.3L629.5,1644.8L634.0,1645.6L637.9,1645.8L642.5,1643.5L644.7,1643.1L648.1,1645.1L649.7,1647.4L651.2,1652.5L652.6,1654.5L659.3,1656.5L669.1,1656.9L677.8,1655.0L681.2,1650.5L684.9,1642.9L686.3,1638.6L687.0,1634.5L685.9,1627.3L685.6,1623.6L686.9,1621.9L690.2,1622.4L696.4,1625.3L699.9,1625.5L703.4,1624.1L710.5,1619.2L727.3,1610.8L734.0,1608.8L741.4,1609.2L758.9,1612.9L765.3,1612.6L775.0,1609.9L781.3,1604.5L795.3,1584.8L797.5,1580.5L802.9,1564.9L805.0,1562.8L807.9,1561.6L812.3,1559.0L815.6,1555.6L818.3,1552.0L821.3,1548.8L825.9,1546.8L831.0,1547.4L838.5,1552.7L842.7,1553.5L860.6,1540.9L870.7,1536.4L876.9,1542.1L878.2,1548.8L880.5,1553.7L884.3,1557.3L889.8,1560.6L893.5,1561.5L896.9,1561.5L903.8,1560.7L908.3,1560.7L910.0,1561.9L911.4,1564.2L914.7,1567.3L917.4,1568.3L932.1,1571.2L935.0,1571.2L937.5,1569.9L946.5,1561.9L949.3,1561.2L953.5,1561.9L957.7,1562.1L960.7,1560.3L963.4,1557.9L967.0,1556.3L971.0,1556.8L977.2,1561.9L980.3,1563.7L983.6,1563.4L990.0,1559.3L999.7,1555.2L997.8,1550.2L996.0,1548.5L991.7,1546.9L987.4,1542.1L979.6,1537.5L959.3,1537.1L953.6,1534.5L934.0,1502.4L932.6,1495.4L931.1,1490.3L929.2,1479.9L926.6,1475.4L924.8,1474.3L920.0,1473.3L918.1,1472.2L917.3,1470.1L917.5,1461.6L915.2,1456.3L907.9,1449.0L906.4,1444.7L907.8,1441.4L908.2,1438.9L907.2,1436.6L903.8,1433.0L902.3,1427.7L904.1,1420.3L902.4,1418.1L898.1,1421.6L895.2,1422.8L893.9,1420.6L895.1,1412.7L894.7,1411.0L889.6,1404.1L888.6,1401.9L888.5,1397.9L890.2,1392.1L888.8,1389.1L884.5,1391.8L882.8,1390.5L881.7,1381.2L879.8,1376.9L874.5,1370.5L873.5,1367.4L875.8,1362.1L876.3,1359.5L874.3,1358.4L867.2,1359.7L866.5,1360.2L865.2,1355.8L868.9,1347.3L867.5,1345.8L865.0,1346.3L860.8,1348.5L858.9,1349.0L856.4,1347.9L854.9,1343.5L853.3,1342.5L852.5,1340.1L849.9,1328.0L855.2,1322.7L857.5,1319.4L856.5,1315.9L849.7,1315.1L847.0,1313.4L849.9,1308.1L848.9,1301.4L849.6,1300.6L852.5,1300.7L853.2,1299.8L851.9,1293.2L850.1,1288.0L846.5,1284.3L844.7,1280.0L848.0,1273.1L846.8,1271.6L841.4,1275.2L839.4,1274.8L837.1,1272.9L838.9,1269.5L839.5,1266.7L837.4,1261.2L837.2,1255.8L838.7,1248.2L838.0,1245.3L836.3,1241.5L839.1,1228.9L838.5,1225.6L833.6,1213.6L826.9,1219.4L821.3,1220.5L815.8,1218.5L809.3,1215.3L809.5,1219.6L808.0,1221.6L802.1,1223.4L798.5,1226.7L797.3,1224.5L791.6,1222.3L789.0,1220.6L786.4,1220.0L784.2,1224.6L782.3,1224.9L780.1,1224.2L770.2,1217.9L764.4,1216.5L762.7,1215.7L760.1,1210.7L761.0,1202.1L760.8,1196.0L764.1,1189.1L764.5,1185.0L761.2,1180.6L755.7,1176.6L752.5,1175.8L749.5,1169.5L747.9,1163.7L740.1,1157.9L730.0,1153.2L726.6,1150.7L724.4,1146.3L723.3,1141.4L722.9,1130.7L722.1,1126.2L717.9,1115.5L707.8,1098.1L704.5,1093.6L691.1,1081.4L686.3,1074.2L684.4,1065.9L682.1,1046.0L679.7,1035.8L680.2,1031.0L683.2,1026.0L701.7,1005.1L704.1,1001.1L705.6,996.4L706.1,990.5L705.6,986.6L704.0,979.3L705.0,975.0L707.1,971.4L711.6,965.4L713.3,957.6L717.3,947.1L721.0,940.5L724.6,928.5L728.4,922.4L730.2,918.4L730.6,913.9L728.9,909.8L723.6,901.7L721.0,892.0L717.7,889.4L714.2,887.5L712.8,884.2L714.4,876.3L717.8,870.9L724.6,862.4L729.0,854.4L730.6,852.8L733.3,852.0L739.8,854.4L744.9,853.6L747.4,851.5L750.6,844.8L756.4,838.7L763.4,834.8L771.2,834.3L779.2,838.3L788.4,834.6L793.2,833.7L798.5,833.4L802.7,837.6L804.1,838.3L806.8,838.1L810.3,836.9L826.8,835.0L832.0,833.4L837.6,830.6L840.6,830.2L845.7,831.5L847.8,830.2L840.4,822.4L839.6,819.8L840.6,814.0L843.9,806.1L845.4,799.4L846.9,796.1L849.2,794.7L852.9,794.9L855.5,795.8L857.2,798.2L858.2,802.9L864.8,799.3L867.4,796.5L868.5,793.3L867.1,788.6L860.4,779.0L858.1,773.1L853.7,772.6L851.9,773.7L851.5,776.0L854.5,781.1L850.8,783.9L849.0,783.3L847.6,780.2L847.7,763.8L843.7,762.6L840.7,764.0L838.8,764.0L838.0,761.8L838.8,759.2L840.6,756.7L850.9,745.2L853.2,741.5L854.1,736.0L854.5,731.0L855.2,727.2L857.3,722.3L857.3,720.7L868.3,703.6L870.8,698.3L873.4,693.5L876.1,686.1L876.8,673.4L872.2,664.4L872.8,658.9L875.1,653.2L875.3,648.4L877.9,641.5L879.0,637.2L882.6,629.0L882.1,611.7L877.5,599.9L879.0,601.5L881.9,606.4L879.7,596.6L879.3,590.8L877.7,581.3L873.9,572.8L869.8,565.7L853.3,546.1L845.0,539.1L838.0,533.7L829.1,527.7L821.6,523.6L817.4,521.8L811.6,522.6L809.5,523.9L806.7,527.2L806.2,533.8L805.8,535.9Z " data-id="GY.MA" data-name="Mahaica-Berbice" id="GY.MA"/>
utf-8utf-8<path d="M520.8,729.2L518.5,726.6L513.3,724.8L504.0,724.2L499.5,721.4L494.2,713.3L489.6,711.8L481.9,715.6L478.2,716.4L475.4,715.6L472.9,711.1L473.5,702.2L467.2,692.9L464.4,686.2L459.6,680.3L455.4,673.7L452.6,670.6L451.0,669.9L445.7,670.6L438.1,675.3L433.5,680.2L429.5,685.8L423.5,695.1L417.7,698.3L411.2,698.6L408.1,698.0L392.8,692.7L389.4,693.5L380.4,700.3L374.3,706.5L372.4,712.9L373.7,721.6L374.7,741.1L372.4,745.5L360.5,746.8L357.2,746.7L338.5,742.4L335.2,742.5L328.6,743.8L316.7,743.5L303.0,748.3L298.7,751.7L296.7,754.6L294.1,759.9L292.0,767.0L288.0,776.0L287.0,779.2L282.3,784.6L272.3,793.2L268.1,798.2L266.3,799.8L268.9,803.2L273.1,806.9L282.1,812.8L287.8,816.1L288.0,822.8L283.9,837.0L283.5,846.1L282.7,850.4L281.0,854.7L279.4,861.6L278.5,875.7L275.4,886.2L276.0,896.4L275.4,900.8L274.1,904.9L272.2,908.8L266.0,918.5L264.9,921.3L263.3,928.6L261.3,930.7L259.4,931.4L253.4,931.8L247.7,938.5L246.9,943.0L247.8,947.3L250.1,950.8L253.3,952.7L258.9,952.3L260.5,947.7L262.8,947.8L265.0,949.1L266.1,950.9L267.1,955.2L269.3,955.8L276.6,954.1L281.4,956.0L284.0,956.5L286.1,953.0L288.2,952.3L292.6,952.9L294.5,954.2L298.4,959.9L300.4,959.6L304.4,957.4L307.1,957.4L307.9,958.3L307.3,961.3L308.1,962.8L312.2,963.2L316.6,964.5L318.4,964.0L320.1,961.9L322.8,966.0L334.7,973.7L339.6,979.8L345.2,981.8L345.0,984.0L347.5,983.6L355.1,984.4L359.3,983.9L361.4,982.8L365.3,978.4L372.4,963.0L376.0,958.0L377.7,956.3L382.7,953.1L387.1,951.7L391.5,953.6L393.1,957.6L394.0,961.4L396.7,969.3L397.5,973.2L397.4,976.1L395.2,979.3L394.0,982.6L393.1,987.2L393.2,997.2L394.5,1007.2L393.5,1011.4L388.6,1019.9L389.2,1024.3L393.8,1029.2L400.6,1032.9L406.6,1035.0L434.7,1036.1L447.0,1033.8L454.3,1034.8L458.7,1033.7L468.1,1028.5L472.3,1027.5L473.4,1027.8L476.7,1030.4L478.5,1035.9L481.3,1046.8L495.0,1067.5L498.2,1070.4L501.1,1071.4L508.1,1071.5L512.7,1069.9L516.0,1067.0L521.8,1060.3L525.8,1054.7L554.2,1026.8L555.4,1025.1L559.7,1017.1L563.0,1013.0L566.0,1010.3L570.4,1007.2L577.4,1004.0L584.1,1003.7L587.3,1004.7L603.0,1012.3L603.9,1007.3L612.8,981.7L616.9,966.2L635.4,931.1L637.9,922.3L634.8,922.8L619.5,926.8L588.2,927.1L578.6,925.3L574.3,923.7L567.8,919.3L559.0,916.0L555.1,913.7L550.3,905.8L547.6,895.8L544.7,892.2L535.1,895.3L532.4,891.3L528.0,857.9L523.3,843.0L523.1,833.3L529.0,799.4L529.7,782.4L528.5,778.8L526.2,776.1L516.9,759.5L517.9,757.8L518.4,751.2L521.2,745.0L522.8,740.3L525.8,738.8L520.8,729.2Z " data-id="GY.PT" data-name="Potaro-Siparuni" id="GY.PT"/>
utf-8utf-8<path d="M644.8,573.7L640.9,572.1L630.7,571.3L630.4,567.4L627.3,554.3L625.6,542.9L623.2,537.3L615.5,527.1L607.2,521.2L602.6,515.5L591.6,495.2L587.3,492.0L587.2,492.3L583.5,501.7L585.0,503.2L582.6,503.3L582.6,503.3L583.0,505.9L582.7,516.4L583.0,521.0L587.7,532.2L588.2,536.3L587.0,542.6L585.3,546.0L587.8,552.3L583.9,583.7L583.9,588.5L586.0,594.2L586.5,596.7L586.0,615.9L585.2,621.5L582.4,625.9L576.9,638.4L575.9,643.7L576.3,658.6L574.5,673.6L574.3,689.8L572.9,699.7L570.1,709.3L566.1,719.0L561.1,729.3L557.4,733.4L552.4,735.1L534.3,738.4L525.8,738.8L522.8,740.3L521.2,745.0L518.4,751.2L517.9,757.8L516.9,759.5L526.2,776.1L528.5,778.8L529.7,782.4L529.0,799.4L523.1,833.3L523.3,843.0L528.0,857.9L532.4,891.3L535.1,895.3L544.7,892.2L547.6,895.8L550.3,905.8L555.1,913.7L559.0,916.0L567.8,919.3L574.3,923.7L578.6,925.3L588.2,927.1L619.5,926.8L634.8,922.8L637.9,922.3L672.6,921.4L679.0,920.0L682.8,917.6L691.6,891.0L695.1,876.4L698.6,866.7L704.1,858.5L725.0,832.8L736.0,802.6L740.4,793.9L747.4,783.8L752.8,769.1L756.2,762.5L763.0,754.7L764.4,751.2L765.4,746.1L767.7,723.6L780.1,671.1L784.3,660.4L784.5,654.4L781.4,651.0L778.6,650.3L775.4,646.2L769.5,630.6L767.1,631.5L762.9,631.3L755.0,634.2L745.7,633.5L743.2,634.4L739.1,638.4L735.9,638.6L732.4,634.5L730.5,633.1L723.8,632.8L722.5,631.9L718.7,625.9L716.5,623.3L714.3,617.8L697.4,614.7L683.5,609.5L680.6,607.9L678.4,603.8L681.2,594.3L681.2,590.1L679.1,582.5L676.1,582.0L674.8,581.2L668.0,574.2L660.2,576.7L656.5,578.7L653.7,579.1L648.3,576.4L644.8,573.7Z " data-id="GY.UT" data-name="Upper Takutu-Upper Essequibo" id="GY.UT"/>
utf-8utf-8<path d="M579.1,1669.8L581.0,1655.7L582.7,1650.4L590.2,1638.5L599.2,1628.2L601.6,1624.5L612.4,1596.6L621.2,1581.9L629.0,1565.6L663.4,1461.2L678.1,1429.9L680.9,1421.9L681.8,1417.4L682.4,1412.6L682.5,1405.6L680.8,1375.4L681.8,1366.8L685.2,1359.8L701.9,1335.0L702.6,1333.3L702.0,1328.7L689.6,1293.8L668.4,1258.4L666.3,1251.2L665.2,1244.4L664.8,1238.0L666.0,1227.2L666.1,1222.9L659.6,1191.5L659.7,1186.0L659.3,1180.8L658.2,1177.3L651.9,1162.0L633.2,1129.5L631.7,1125.7L630.1,1120.7L624.3,1090.5L624.0,1083.3L625.6,1076.6L625.8,1071.4L618.1,1038.7L606.0,1019.0L603.0,1012.3L587.3,1004.7L584.1,1003.7L577.4,1004.0L570.4,1007.2L566.0,1010.3L563.0,1013.0L559.7,1017.1L555.4,1025.1L554.2,1026.8L525.8,1054.7L521.8,1060.3L516.0,1067.0L512.7,1069.9L508.1,1071.5L501.1,1071.4L498.2,1070.4L495.0,1067.5L481.3,1046.8L478.5,1035.9L476.7,1030.4L473.4,1027.8L472.3,1027.5L468.1,1028.5L458.7,1033.7L454.3,1034.8L447.0,1033.8L434.7,1036.1L406.6,1035.0L400.6,1032.9L393.8,1029.2L389.2,1024.3L388.6,1019.9L393.5,1011.4L394.5,1007.2L393.2,997.2L393.1,987.2L394.0,982.6L395.2,979.3L397.4,976.1L397.5,973.2L396.7,969.3L394.0,961.4L393.1,957.6L391.5,953.6L387.1,951.7L382.7,953.1L377.7,956.3L376.0,958.0L372.4,963.0L365.3,978.4L361.4,982.8L359.3,983.9L355.1,984.4L347.5,983.6L345.0,984.0L344.9,985.7L343.5,991.3L336.2,999.6L333.9,1004.0L336.3,1007.7L336.7,1009.3L333.8,1014.9L333.1,1019.1L333.4,1023.7L335.7,1029.9L339.1,1032.7L347.9,1036.0L352.2,1039.8L351.6,1043.2L349.2,1047.1L348.4,1052.6L350.3,1056.3L357.1,1063.7L359.9,1069.7L362.0,1072.2L361.7,1078.3L371.5,1080.3L374.0,1081.3L375.4,1083.2L374.3,1088.5L372.2,1088.8L368.3,1090.6L364.3,1095.0L361.2,1100.5L359.8,1105.3L360.3,1110.6L361.1,1114.5L360.4,1117.8L356.2,1121.4L347.6,1125.7L344.9,1128.7L343.1,1134.6L342.9,1141.5L341.6,1144.2L339.8,1145.9L335.0,1148.2L327.0,1156.4L309.8,1163.2L304.4,1169.7L304.3,1176.6L307.3,1181.7L311.0,1186.6L312.6,1192.5L308.8,1202.3L308.1,1206.4L311.8,1204.9L310.6,1216.3L312.1,1221.0L310.8,1223.7L307.4,1224.4L305.1,1232.3L299.5,1242.3L298.5,1244.7L295.5,1255.3L291.5,1260.8L293.6,1270.0L290.9,1270.5L291.5,1278.2L287.8,1280.5L282.0,1290.8L279.9,1296.4L278.8,1302.3L279.3,1315.7L278.7,1320.7L274.0,1339.9L272.0,1378.3L272.7,1382.8L279.0,1397.3L278.7,1403.1L282.2,1405.2L284.0,1413.8L284.7,1418.3L290.5,1433.6L291.4,1446.4L289.2,1450.3L288.8,1452.4L290.9,1456.9L294.8,1460.1L303.0,1465.0L309.3,1471.1L319.7,1473.8L324.1,1479.4L324.3,1487.5L323.0,1496.6L323.0,1505.4L324.8,1512.4L324.2,1517.1L321.8,1521.2L321.1,1523.7L321.4,1526.8L323.6,1531.7L324.3,1534.3L322.4,1542.1L322.9,1548.3L321.7,1552.9L319.0,1557.5L318.2,1560.1L318.3,1569.1L319.3,1573.9L321.1,1576.4L323.6,1576.5L327.9,1574.8L330.3,1575.0L338.0,1578.4L340.6,1579.1L342.7,1582.0L338.2,1591.5L334.8,1596.5L335.1,1598.5L339.6,1604.0L346.0,1607.5L350.2,1607.3L353.8,1606.1L357.5,1605.6L361.9,1607.1L366.1,1611.2L371.8,1621.9L375.3,1627.0L381.7,1632.8L383.6,1635.2L387.6,1643.5L394.0,1647.4L396.9,1653.5L399.5,1654.2L403.7,1652.9L405.6,1653.2L408.0,1656.7L408.4,1661.1L409.2,1665.2L413.0,1667.7L414.7,1670.2L419.0,1681.5L421.6,1685.4L425.3,1687.7L438.5,1692.6L473.1,1699.5L486.6,1706.2L490.4,1709.7L493.6,1715.3L494.7,1720.4L496.4,1725.3L501.7,1730.1L505.9,1732.1L509.6,1732.8L513.3,1732.5L517.5,1731.4L522.5,1729.2L526.5,1726.0L529.8,1721.9L535.7,1712.5L538.1,1710.4L541.2,1710.1L562.4,1712.4L567.3,1709.1L573.5,1713.8L575.2,1713.7L581.8,1702.1L583.2,1698.0L583.1,1692.3L581.8,1687.4L578.0,1678.2L576.6,1673.3L579.1,1669.8Z " data-id="GY.UD" data-name="Upper Demerara-Berbice" id="GY.UD"/>
utf-8utf-8<path d="M226.2,330.3L232.2,329.5L235.6,330.6L242.9,333.7L249.3,338.0L253.9,343.3L257.1,344.8L259.9,343.6L265.9,344.6L272.3,348.1L279.5,350.2L283.8,348.1L291.6,339.6L294.8,339.1L302.9,342.4L304.9,342.6L309.6,339.6L311.6,336.4L315.7,331.8L319.6,324.4L322.2,322.9L328.4,321.2L333.5,321.0L362.9,339.5L384.3,345.3L387.0,347.3L403.5,367.3L406.3,369.1L412.2,368.6L417.8,372.5L430.1,377.2L435.4,377.7L443.2,370.6L444.1,366.3L446.4,363.0L448.8,361.9L452.0,361.8L461.2,364.3L472.2,369.9L472.1,367.3L468.4,350.0L468.9,340.1L481.8,300.4L484.7,296.4L490.2,291.7L491.7,289.7L492.1,287.5L490.8,282.0L487.1,275.2L486.1,270.0L487.5,267.2L490.0,263.7L502.8,249.1L505.8,247.4L531.5,235.6L536.0,232.4L544.2,224.1L554.7,209.9L550.1,202.6L544.4,192.7L534.1,183.2L507.0,147.4L496.3,135.7L493.4,131.2L490.4,128.0L478.3,117.4L441.4,91.9L420.1,74.1L401.5,64.5L388.2,55.3L381.8,48.9L377.8,45.7L369.5,42.9L362.4,36.3L359.1,34.6L354.1,35.5L353.5,38.5L355.8,45.0L357.4,47.6L369.7,55.3L388.2,70.2L403.5,77.4L411.9,83.8L418.9,91.9L423.3,100.5L405.5,82.6L401.5,77.2L389.9,74.5L387.8,74.3L385.5,68.3L379.4,66.8L373.6,63.2L362.6,53.8L357.5,50.9L347.5,47.8L341.7,44.4L334.3,35.9L323.2,15.6L316.1,7.2L309.5,2.1L317.4,21.1L337.9,48.4L345.6,63.5L345.2,68.4L342.4,73.5L338.3,77.6L334.0,79.2L329.7,79.5L319.3,82.2L315.6,84.1L313.3,86.9L307.8,91.5L306.2,95.2L306.5,101.3L306.1,104.0L303.6,107.6L301.5,117.0L299.3,121.1L295.7,123.4L291.2,123.7L283.0,122.8L278.5,124.4L274.1,128.0L270.7,131.9L267.0,135.2L256.9,139.6L254.3,142.8L252.1,146.5L248.1,150.5L237.8,158.3L233.0,162.9L231.2,168.3L226.0,172.6L216.9,173.6L199.4,173.3L194.7,175.0L191.6,178.1L187.2,186.9L182.4,193.1L181.1,197.4L181.5,204.4L178.1,210.7L178.5,214.2L177.6,217.2L175.6,218.9L172.6,218.3L171.2,219.4L169.1,222.6L165.9,228.7L162.6,233.2L153.0,236.6L149.9,242.7L150.0,246.3L151.1,249.7L155.5,259.6L161.0,261.5L163.7,263.7L164.5,265.4L164.2,270.3L164.9,272.5L169.8,275.9L171.2,278.9L173.3,285.4L175.1,288.6L174.8,294.2L173.8,295.8L168.6,300.9L165.8,307.3L165.7,314.3L168.5,321.3L170.6,323.8L184.6,336.7L187.3,336.6L192.2,327.4L195.7,323.8L200.1,321.9L205.5,321.9L212.3,325.9L215.3,326.0L218.7,325.5L221.4,325.7L223.8,327.2L226.2,330.3Z " data-id="GY.BA" data-name="Barima-Waini" id="GY.BA"/>
utf-8utf-8<path d="M461.2,364.3L452.0,361.8L448.8,361.9L446.4,363.0L444.1,366.3L443.2,370.6L435.4,377.7L430.1,377.2L417.8,372.5L412.2,368.6L406.3,369.1L403.5,367.3L387.0,347.3L384.3,345.3L362.9,339.5L333.5,321.0L328.4,321.2L322.2,322.9L319.6,324.4L315.7,331.8L311.6,336.4L309.6,339.6L304.9,342.6L302.9,342.4L294.8,339.1L291.6,339.6L283.8,348.1L279.5,350.2L272.3,348.1L265.9,344.6L259.9,343.6L257.1,344.8L253.9,343.3L249.3,338.0L242.9,333.7L235.6,330.6L232.2,329.5L226.2,330.3L226.3,330.5L233.4,335.0L236.0,337.8L237.4,341.5L237.4,345.5L236.4,349.6L234.7,353.5L232.5,356.7L229.5,359.5L225.9,362.1L222.7,365.1L220.8,369.0L218.5,380.7L215.1,378.3L209.5,379.8L182.5,398.4L167.5,402.4L163.5,404.4L160.0,407.4L153.9,417.0L150.4,421.0L145.9,422.7L142.9,421.5L135.5,415.9L131.3,414.7L122.1,416.4L119.6,415.6L115.0,411.3L110.5,409.9L107.8,409.6L106.6,410.6L106.9,413.2L108.9,416.5L108.7,421.6L102.9,428.3L101.8,429.3L97.4,430.0L88.0,428.6L84.1,431.9L79.7,430.4L75.3,429.7L73.3,433.9L69.5,432.6L65.0,432.1L61.0,433.0L52.2,444.1L47.9,452.5L44.6,461.2L42.9,469.3L43.2,474.1L45.1,476.4L48.0,478.3L51.0,481.6L52.5,485.1L54.3,492.1L56.5,495.6L57.0,501.4L56.5,503.4L54.6,506.2L53.5,509.5L51.9,520.8L52.1,523.4L53.5,530.0L54.5,532.1L58.1,534.7L60.9,539.2L61.2,541.5L59.0,557.4L56.6,558.1L53.6,557.8L50.7,558.3L48.0,560.9L45.6,566.9L43.5,570.0L40.9,571.7L37.5,572.9L30.6,574.4L27.8,576.1L25.8,579.4L22.9,586.9L12.7,604.4L9.6,607.1L2.5,611.5L0.3,614.0L3.6,623.5L40.3,671.1L85.8,730.0L116.2,769.3L131.6,788.8L140.9,786.5L145.5,786.2L157.8,787.2L160.3,787.8L167.1,791.7L170.1,792.1L181.8,790.3L185.9,791.2L190.2,795.2L191.7,795.4L193.8,793.7L196.4,789.1L198.0,787.6L202.3,787.3L211.3,790.9L215.9,790.8L219.9,787.7L228.5,778.2L232.4,776.0L241.2,773.5L243.9,774.4L245.6,779.9L248.6,782.9L257.9,779.1L259.7,781.8L265.8,799.1L266.3,799.8L268.1,798.2L272.3,793.2L282.3,784.6L287.0,779.2L288.0,776.0L292.0,767.0L294.1,759.9L296.7,754.6L298.7,751.7L303.0,748.3L316.7,743.5L328.6,743.8L335.2,742.5L338.5,742.4L357.2,746.7L360.5,746.8L372.4,745.5L374.7,741.1L373.7,721.6L372.4,712.9L374.3,706.5L380.4,700.3L389.4,693.5L392.8,692.7L408.1,698.0L411.2,698.6L417.7,698.3L423.5,695.1L429.5,685.8L433.5,680.2L438.1,675.3L445.7,670.6L451.0,669.9L452.6,670.6L455.4,673.7L459.6,680.3L464.4,686.2L467.2,692.9L473.5,702.2L472.9,711.1L475.4,715.6L478.2,716.4L481.9,715.6L489.6,711.8L494.2,713.3L499.5,721.4L504.0,724.2L513.3,724.8L518.5,726.6L520.8,729.2L525.8,738.8L534.3,738.4L552.4,735.1L557.4,733.4L561.1,729.3L566.1,719.0L570.1,709.3L572.9,699.7L574.3,689.8L574.5,673.6L576.3,658.6L575.9,643.7L576.9,638.4L582.4,625.9L585.2,621.5L586.0,615.9L586.5,596.7L586.0,594.2L583.9,588.5L583.9,583.7L587.8,552.3L585.3,546.0L587.0,542.6L588.2,536.3L587.7,532.2L583.0,521.0L582.7,516.4L583.0,505.9L582.6,503.3L581.6,503.4L577.1,501.8L575.0,504.8L572.8,506.3L566.2,512.8L564.9,511.4L579.3,489.2L580.0,486.5L580.0,486.5L571.1,485.9L569.2,485.1L557.1,477.8L552.6,476.2L542.3,475.6L537.7,473.2L536.9,470.6L537.8,462.3L538.8,457.2L540.4,443.9L539.9,440.2L536.7,433.4L533.7,424.8L532.8,420.8L524.3,422.7L521.2,422.4L514.2,418.1L513.0,415.0L510.5,400.6L505.0,398.4L502.6,398.7L497.4,404.4L492.5,405.8L487.3,405.2L479.9,402.0L475.4,399.1L470.3,397.8L467.5,396.3L466.9,393.6L467.4,389.7L471.9,374.7L472.2,369.9L461.2,364.3Z " data-id="GY.PM" data-name="Pomeroon-Supenaam" id="GY.PM"/>
utf-8utf-8<path d="M726.2,432.9L718.7,424.3L712.7,419.0L708.7,415.2L696.1,408.1L678.4,405.6L676.6,406.3L674.9,410.1L674.1,409.6L670.0,427.4L672.3,443.2L669.8,449.7L658.1,473.8L655.6,477.1L648.5,485.0L645.8,488.6L644.8,492.7L647.1,500.9L646.5,506.4L644.3,511.5L643.6,516.0L643.8,518.4L646.3,525.5L648.7,527.9L651.4,533.0L651.3,535.1L648.9,542.2L647.1,545.2L646.2,549.1L651.7,564.8L652.2,567.2L651.9,570.3L648.3,576.4L653.7,579.1L656.5,578.7L660.2,576.7L668.0,574.2L674.8,581.2L676.1,582.0L679.1,582.5L677.5,571.2L677.5,558.9L678.6,552.5L690.5,520.3L693.9,514.8L698.6,511.3L700.6,509.2L705.1,501.9L708.5,498.7L711.2,497.9L717.4,497.1L721.6,493.4L722.2,491.6L722.5,486.6L721.0,481.3L721.9,476.0L732.4,474.9L732.6,473.6L730.3,467.5L731.2,461.3L727.0,447.0L727.2,433.7L726.2,432.9Z " data-id="GY.EB" data-name="East Berbice-Corentyne" id="GY.EB"/>
utf-8utf-8<path d="M594.0,427.8L595.2,421.5L599.5,414.7L604.7,404.6L607.8,400.5L609.8,396.9L609.4,394.7L606.5,395.5L599.5,400.7L594.8,409.7L593.2,414.7L590.6,428.1L590.7,431.6L592.1,433.0L594.0,427.8Z M674.1,409.6L666.0,401.7L653.8,394.3L646.0,391.6L637.2,391.0L628.0,393.6L620.3,399.6L614.5,408.1L591.4,451.6L589.0,461.5L587.3,492.0L591.6,495.2L602.6,515.5L607.2,521.2L615.5,527.1L623.2,537.3L625.6,542.9L627.3,554.3L630.4,567.4L630.7,571.3L640.9,572.1L644.8,573.7L648.3,576.4L651.9,570.3L652.2,567.2L651.7,564.8L646.2,549.1L647.1,545.2L648.9,542.2L651.3,535.1L651.4,533.0L648.7,527.9L646.3,525.5L643.8,518.4L643.6,516.0L644.3,511.5L646.5,506.4L647.1,500.9L644.8,492.7L645.8,488.6L648.5,485.0L655.6,477.1L658.1,473.8L669.8,449.7L672.3,443.2L670.0,427.4L674.1,409.6L674.1,409.6Z M619.4,388.6L629.8,385.0L641.8,375.4L642.0,374.4L632.8,372.8L626.4,372.4L618.4,379.6L616.1,384.3L614.7,389.6L615.2,393.6L619.4,388.6Z M603.6,371.5L599.7,372.8L585.2,381.4L581.3,384.8L579.5,387.7L577.6,399.2L575.9,403.4L574.4,404.5L569.9,405.0L566.1,406.2L562.2,409.7L555.7,420.4L552.4,423.4L545.8,427.1L536.7,433.4L539.9,440.2L540.4,443.9L538.8,457.2L537.8,462.3L536.9,470.6L537.7,473.2L542.3,475.6L552.6,476.2L557.1,477.8L569.2,485.1L571.1,485.9L580.0,486.5L581.3,481.5L582.5,439.6L583.1,437.0L585.1,434.1L585.6,431.6L585.6,416.2L586.2,411.3L591.6,397.1L593.0,388.1L594.6,383.3L597.0,378.6L600.2,374.4L603.6,371.5L603.6,371.5Z M612.2,384.6L613.0,381.1L616.4,374.8L619.9,370.4L624.2,368.0L626.4,365.3L621.7,360.6L618.8,360.9L616.7,366.9L610.9,378.9L607.5,385.4L606.7,389.3L609.1,389.5L612.2,384.6Z " data-id="GY.DE" data-name="Demerara-Mahaica" id="GY.DE"/>
utf-8utf-8<path d="M803.9,538.8L803.0,536.9L802.5,532.3L800.3,529.1L790.6,500.8L780.9,488.9L776.7,484.7L758.7,467.8L754.3,462.5L750.6,460.7L748.8,457.1L742.4,449.6L731.6,437.6L727.2,433.7L727.0,447.0L731.2,461.3L730.3,467.5L732.6,473.6L732.4,474.9L721.9,476.0L721.0,481.3L722.5,486.6L722.2,491.6L721.6,493.4L717.4,497.1L711.2,497.9L708.5,498.7L705.1,501.9L700.6,509.2L698.6,511.3L693.9,514.8L690.5,520.3L678.6,552.5L677.5,558.9L677.5,571.2L679.1,582.5L681.2,590.1L681.2,594.3L678.4,603.8L680.6,607.9L683.5,609.5L697.4,614.7L714.3,617.8L716.5,623.3L718.7,625.9L722.5,631.9L723.8,632.8L730.5,633.1L732.4,634.5L735.9,638.6L739.1,638.4L743.2,634.4L745.7,633.5L755.0,634.2L762.9,631.3L767.1,631.5L769.5,630.6L770.4,622.7L769.8,611.5L768.8,605.9L765.5,599.4L768.0,596.6L772.5,594.7L774.0,594.8L779.6,598.7L782.7,596.2L787.3,587.5L788.4,583.8L787.8,580.3L784.3,576.3L782.9,568.7L782.7,565.3L784.1,560.7L785.3,559.3L798.2,556.1L801.2,555.1L803.4,553.7L804.9,549.5L803.9,544.5L804.8,540.3L806.0,537.6L805.8,535.9L803.9,538.8Z " data-id="GY.ES" data-name="Essequibo Islands-West Demerara" id="GY.ES"/>
utf-8utf-8<path d="M608.3,367.4L611.0,363.7L615.4,338.9L615.3,308.7L616.7,298.7L615.2,300.4L617.6,292.8L616.3,285.0L612.8,277.8L597.1,259.7L594.0,254.4L589.0,247.2L581.7,233.4L578.4,228.7L574.6,224.3L570.4,220.3L565.3,218.3L562.5,218.1L562.0,220.6L563.9,226.4L563.1,227.9L559.8,222.3L555.1,210.5L554.7,209.9L544.2,224.1L536.0,232.4L531.5,235.6L505.8,247.4L502.8,249.1L490.0,263.7L487.5,267.2L486.1,270.0L487.1,275.2L490.8,282.0L492.1,287.5L491.7,289.7L490.2,291.7L484.7,296.4L481.8,300.4L468.9,340.1L468.4,350.0L472.1,367.3L472.2,369.9L471.9,374.7L467.4,389.7L466.9,393.6L467.5,396.3L470.3,397.8L475.4,399.1L479.9,402.0L487.3,405.2L492.5,405.8L497.4,404.4L502.6,398.7L505.0,398.4L510.5,400.6L513.0,415.0L514.2,418.1L521.2,422.4L524.3,422.7L532.8,420.8L533.7,424.8L536.7,433.4L545.8,427.1L552.4,423.4L555.7,420.4L562.2,409.7L566.1,406.2L569.9,405.0L574.4,404.5L575.9,403.4L577.6,399.2L579.5,387.7L581.3,384.8L585.2,381.4L599.7,372.8L603.6,371.5L608.3,367.4Z " data-id="GY.CU" data-name="Cuyuni-Mazaruni" id="GY.CU"/>
utf-8</g>
</svg>
