<?xml version="1.0" ?>
<!DOCTYPE svg
  PUBLIC '-//W3C//DTD SVG 1.1//EN'
  'http://www.w3.org/Graphics/SVG/1.1/DTD/svg11.dtd'>
<svg enable_background="new 0 0 1000 627" height="627px" pretty_print="True" style="stroke-linejoin: round; stroke:#000; fill: none;" version="1.1" viewBox="0 0 1000 627" width="1000px" xmlns="http://www.w3.org/2000/svg" xmlns:xlink="http://www.w3.org/1999/xlink">
utf-8<defs>
utf-8utf-8<style type="text/css">
<![CDATA[path { fill-rule: evenodd; }]]>utf-8utf-8</style>
utf-8</defs>
utf-8<metadata>
utf-8utf-8<views>
utf-8utf-8utf-8<view h="627.744790208" padding="0" w="1000">
utf-8utf-8utf-8utf-8<proj flip="auto" id="robinson" lon0="-87.0545578362"/>
utf-8utf-8utf-8utf-8<bbox h="57.91" w="92.39" x="-1311.46" y="-275.56"/>
utf-8utf-8utf-8</view>
utf-8utf-8</views>
utf-8</metadata>
utf-8<g class="" id="provinces">
utf-8utf-8<path d="M288.8,92.8L288.8,97.1L287.8,98.8L283.0,103.3L281.1,107.7L275.9,114.0L275.7,115.9L277.8,119.0L278.2,121.4L279.5,121.0L280.4,125.6L277.7,128.4L275.4,129.0L286.0,137.9L288.4,139.4L289.7,142.8L290.5,149.1L290.4,151.7L291.4,159.4L296.8,167.1L299.2,168.3L306.3,167.6L313.2,165.6L315.5,165.9L324.3,161.8L326.8,163.8L327.1,172.6L327.9,174.5L331.1,178.0L335.0,179.7L337.6,178.2L341.7,177.1L347.9,179.3L358.8,182.3L365.4,182.4L373.1,176.5L383.9,172.4L398.1,160.2L401.1,159.7L408.2,159.9L419.9,156.5L421.5,159.5L424.4,160.2L431.7,159.9L439.4,157.4L446.4,153.3L455.3,150.1L463.5,152.4L469.3,152.0L477.4,152.1L481.4,151.6L485.7,152.4L489.0,154.0L492.7,151.7L496.6,150.1L498.3,148.5L499.3,146.1L499.7,142.1L499.0,136.6L495.2,135.6L493.5,130.2L489.4,125.2L489.1,121.2L490.4,116.4L490.1,116.1L485.5,113.9L480.3,113.8L449.1,116.8L442.4,116.1L438.1,113.5L430.2,118.0L420.1,121.2L414.0,121.9L408.4,121.3L392.1,117.0L377.6,115.3L363.9,109.7L348.0,105.6L344.9,105.9L342.3,107.5L340.1,111.4L334.5,111.3L330.7,116.1L325.5,117.2L321.0,114.9L307.8,100.1L305.9,97.6L307.3,94.7L310.8,90.1L304.9,93.9L303.0,95.9L304.3,98.8L301.7,98.5L295.2,93.9L288.8,92.8L288.8,92.8Z M485.8,85.9L485.4,84.4L484.9,87.0L485.8,85.9Z M489.6,84.1L489.0,82.0L488.0,82.7L488.9,84.7L489.6,84.1Z " data-id="HN.AT" data-name="Atlántida" id="HN.AT"/>
utf-8utf-8<path d="M709.9,80.9L701.8,86.0L689.3,95.2L679.6,99.5L662.5,100.0L650.6,101.3L642.3,102.1L630.7,98.6L624.0,95.3L618.5,90.1L617.3,87.7L614.7,87.7L612.2,90.1L612.1,83.6L610.4,82.7L593.5,77.6L587.7,76.9L567.5,72.4L563.3,72.8L562.3,74.8L567.0,76.2L576.8,77.8L578.9,81.4L577.0,85.8L573.2,89.9L566.5,94.9L562.8,96.4L540.0,97.4L534.4,98.8L528.6,101.3L526.6,102.9L522.2,107.7L506.0,118.1L503.2,119.4L500.0,120.0L496.2,119.7L493.8,119.0L490.4,116.4L490.4,116.4L489.1,121.2L489.4,125.2L493.5,130.2L495.2,135.6L499.0,136.6L499.7,142.1L499.3,146.1L498.3,148.5L496.6,150.1L492.7,151.7L489.0,154.0L493.3,158.2L495.9,161.7L505.1,161.5L509.9,162.6L512.8,164.8L516.0,164.8L516.7,169.2L514.9,177.3L515.7,180.6L515.4,185.4L524.5,191.2L528.1,192.1L531.8,191.1L535.0,189.5L542.0,187.8L547.7,187.8L557.4,182.3L568.1,171.9L573.6,163.9L574.7,163.4L578.5,165.3L580.3,165.4L583.6,163.3L587.3,160.2L589.3,155.6L593.0,153.7L597.3,156.0L601.7,154.3L604.9,155.1L616.8,162.7L631.4,178.2L648.0,185.6L653.0,190.6L660.0,204.3L667.9,216.8L670.4,218.6L691.4,229.4L696.1,234.8L704.3,247.2L721.9,80.6L709.9,80.9Z " data-id="HN.CL" data-name="Colón" id="HN.CL"/>
utf-8utf-8<path d="M383.2,255.5L374.6,255.9L367.7,253.9L360.1,255.0L357.0,257.6L356.9,259.5L355.3,265.3L351.9,268.3L348.7,273.4L345.2,278.2L347.8,279.6L350.4,285.1L347.6,287.3L344.3,287.7L341.6,293.9L342.0,296.7L342.1,302.8L340.7,307.1L338.0,313.9L328.2,320.2L328.2,323.6L327.4,326.1L324.6,330.7L321.1,330.0L320.6,328.6L315.9,327.3L315.0,328.4L314.1,334.0L312.3,337.3L303.4,346.2L304.3,352.2L310.7,359.0L310.3,364.6L313.8,367.9L314.3,369.2L312.2,373.1L307.4,379.4L305.3,380.5L303.5,379.4L301.1,379.6L300.1,382.6L299.8,391.6L301.9,394.8L304.1,396.4L304.5,399.4L303.8,400.5L298.3,402.2L294.9,404.4L291.5,410.7L284.7,414.3L279.6,414.9L276.2,416.6L272.5,421.1L271.9,424.8L272.6,448.6L272.0,452.1L270.2,458.5L267.5,464.6L262.5,470.9L262.0,476.2L260.9,484.1L261.9,486.2L267.9,491.1L272.7,492.2L275.6,491.8L282.5,498.0L286.4,500.9L287.9,501.4L289.2,500.6L288.8,498.2L289.0,495.6L290.3,491.7L291.8,484.9L293.6,484.3L302.3,486.0L300.8,489.1L300.9,491.4L305.6,497.0L312.1,496.2L315.4,498.1L320.9,497.3L328.4,500.5L333.6,498.7L340.9,502.3L345.4,493.7L345.7,490.9L344.2,487.2L343.2,481.3L343.6,478.8L345.5,475.2L347.8,476.5L351.0,480.1L356.1,481.6L362.4,477.0L366.2,468.8L367.6,460.5L367.7,456.9L369.3,452.8L369.1,447.3L374.5,448.4L377.3,446.9L379.3,444.7L381.4,441.0L382.6,433.8L381.0,429.9L377.0,426.3L373.5,420.1L372.8,416.8L376.3,415.4L381.0,415.9L384.4,415.4L386.4,411.7L384.9,409.6L383.7,409.2L385.9,404.9L388.4,399.2L396.9,391.6L400.5,385.6L402.2,379.7L408.0,374.1L420.8,364.1L421.2,361.5L419.8,355.4L419.1,348.9L417.7,346.0L418.8,336.6L416.3,332.4L410.0,324.9L407.0,324.1L403.9,320.2L402.4,316.3L398.8,302.8L398.2,296.1L397.0,292.2L397.1,287.3L395.3,282.1L394.7,278.3L396.4,276.8L398.2,271.9L399.8,270.5L396.8,268.1L395.2,266.0L391.7,263.8L388.5,258.8L388.3,256.8L383.2,255.5Z " data-id="HN.FM" data-name="Francisco Morazán" id="HN.FM"/>
utf-8utf-8<path d="M988.9,107.7L988.7,107.7L988.8,108.2L988.9,107.7Z M988.0,104.8L987.8,104.9L987.9,105.1L988.0,104.8Z M987.8,104.4L987.5,104.6L987.7,105.0L987.8,104.4Z M987.6,104.0L987.5,104.1L987.7,104.1L987.6,104.0Z M987.6,103.8L987.1,103.4L987.6,103.9L987.6,103.8Z M994.1,92.6L993.9,92.8L994.1,92.8L994.1,92.6Z M994.7,92.8L994.6,92.6L994.6,92.8L994.7,92.8Z M995.3,91.2L995.0,91.5L995.1,91.6L995.3,91.2Z M721.9,80.6L704.3,247.2L702.7,263.1L698.3,306.3L698.3,306.4L701.0,304.6L704.0,302.3L712.1,294.5L714.8,292.8L724.5,290.9L728.7,290.7L732.7,292.1L735.9,295.0L737.8,299.3L735.7,301.9L738.8,302.3L738.6,306.9L741.6,309.4L743.0,312.4L744.8,318.6L747.9,316.7L750.9,317.0L756.7,320.0L760.2,320.8L771.8,321.2L770.2,326.0L772.7,325.2L775.8,327.8L778.1,328.6L779.9,328.1L784.3,325.5L790.4,323.2L793.7,319.2L796.4,314.6L798.8,311.2L800.2,312.9L800.9,317.7L802.0,318.6L809.9,320.0L813.3,318.1L814.5,314.1L814.5,305.6L815.6,303.4L817.6,303.3L822.2,306.2L825.5,310.6L827.3,311.5L829.7,311.3L833.7,310.1L836.3,307.8L837.8,307.5L840.4,308.3L841.7,306.1L838.1,298.7L841.2,297.0L847.1,301.3L849.8,301.2L850.7,303.1L853.4,303.5L869.1,302.5L869.9,295.2L871.6,296.4L873.9,299.5L875.7,299.3L875.1,297.6L878.1,300.1L880.3,298.1L883.2,296.4L886.5,295.3L889.4,295.2L886.7,291.3L895.6,290.7L899.0,289.3L899.0,286.5L903.7,287.4L905.3,288.9L904.3,283.7L905.1,281.7L908.2,280.1L911.4,279.7L914.9,279.9L917.7,280.8L918.9,282.7L920.1,282.7L922.5,276.1L926.6,274.5L930.9,271.0L933.2,270.3L932.4,267.8L935.5,269.0L936.6,263.7L938.0,265.3L939.7,260.2L938.8,258.5L941.1,257.4L943.1,257.8L945.5,261.9L946.8,262.8L950.6,262.4L954.0,260.2L956.8,257.2L958.6,254.1L963.9,257.8L964.5,260.2L967.1,258.5L969.8,258.3L976.7,259.1L974.5,261.1L978.1,262.7L985.1,262.8L989.5,260.7L991.8,260.2L997.1,260.6L980.5,251.6L976.1,247.3L972.6,240.4L970.5,233.1L969.2,221.5L967.7,218.0L960.1,211.4L939.7,202.4L923.6,192.6L915.9,186.8L913.2,188.2L911.9,191.6L914.2,193.1L917.4,194.3L920.1,197.5L926.7,200.3L929.2,200.7L928.8,204.4L931.7,203.1L934.0,203.7L938.4,206.8L941.5,205.1L943.3,207.2L944.4,213.2L947.5,220.6L940.1,223.4L935.1,229.2L931.8,230.6L930.0,229.4L929.2,226.2L929.3,221.7L928.1,221.7L927.0,225.2L927.6,226.7L924.7,227.7L924.9,224.2L927.1,221.7L930.4,216.7L934.7,217.7L935.7,221.7L937.4,222.5L939.3,221.4L940.4,218.7L941.0,213.2L940.4,210.3L941.5,208.1L938.8,208.7L928.7,206.5L925.4,206.8L925.0,212.3L924.2,213.2L918.4,214.0L915.1,215.1L912.4,216.7L909.2,222.0L907.8,222.8L906.8,219.3L905.6,219.3L905.4,221.7L902.2,221.7L902.0,219.9L903.1,213.2L902.4,207.9L900.7,208.1L898.3,209.9L895.8,209.3L895.9,208.1L899.4,205.7L898.3,203.4L895.1,199.9L890.7,198.9L886.2,195.8L883.6,190.2L870.2,183.3L863.3,187.0L865.0,188.5L868.0,194.4L869.8,195.8L881.5,200.6L884.6,201.1L886.6,204.4L892.9,208.5L894.7,210.6L892.0,212.6L888.3,214.1L881.6,215.6L878.4,214.7L876.0,212.7L874.3,209.9L873.5,205.7L877.9,204.4L878.0,203.2L870.2,204.3L867.2,203.7L865.3,200.7L866.9,197.8L866.5,195.0L862.9,190.7L863.9,196.0L862.2,197.7L858.9,196.8L855.0,194.4L852.7,191.2L850.5,186.3L849.8,181.7L851.7,179.7L855.2,178.0L854.7,173.9L852.7,169.1L851.1,163.1L849.8,162.2L848.2,162.7L846.3,167.7L842.9,169.4L842.1,172.1L841.1,172.1L842.5,166.4L839.7,165.3L838.8,163.9L838.0,159.8L844.4,160.9L851.1,159.8L852.6,161.9L856.3,172.1L858.6,170.8L855.4,164.8L854.7,161.7L855.3,159.8L856.5,159.5L860.8,160.3L860.3,161.5L857.1,164.6L862.2,167.1L867.5,162.7L870.8,162.2L876.7,166.8L879.7,165.8L884.2,172.3L885.3,174.6L883.0,175.7L884.7,177.8L886.7,178.3L891.5,178.3L895.7,181.4L900.0,183.1L905.4,188.4L908.1,189.6L910.5,189.2L910.8,185.1L909.4,184.3L904.0,183.3L887.2,171.7L878.8,163.1L848.3,131.1L837.8,120.6L830.1,112.7L827.0,111.5L817.7,110.9L803.6,109.3L782.3,104.8L776.1,103.3L777.2,106.2L785.5,110.6L797.7,112.9L801.6,113.9L804.8,115.5L802.1,116.7L800.5,118.5L789.2,116.9L785.1,117.6L782.5,115.5L781.7,113.2L780.2,113.1L778.6,118.4L774.6,119.8L771.5,119.3L768.6,115.7L769.4,108.4L773.0,102.8L770.9,100.9L762.3,97.5L743.8,91.2L729.4,83.5L721.9,80.6Z M988.0,72.9L987.5,72.2L987.7,73.1L988.0,72.9Z M987.3,72.2L987.0,71.7L987.0,72.3L987.3,72.2Z " data-id="HN.GD" data-name="Gracias a Dios" id="HN.GD"/>
utf-8utf-8<path d="M426.6,59.5L428.3,56.5L427.5,55.4L425.6,55.3L416.9,57.3L409.4,61.1L407.8,63.2L410.6,64.4L412.8,66.4L416.8,64.0L423.8,61.4L426.8,61.6L426.6,59.5Z M525.0,0.0L520.2,0.6L513.1,2.8L502.4,6.6L492.4,11.6L487.3,13.9L480.5,18.2L475.4,22.4L473.8,26.8L474.4,29.6L477.8,27.2L483.6,21.8L487.3,21.3L492.9,19.5L499.4,14.7L505.4,12.4L511.6,9.3L514.7,7.0L518.5,6.4L523.0,3.7L525.9,3.2L529.1,4.0L534.0,2.7L536.9,3.8L540.6,1.9L543.9,0.8L525.0,0.0Z M582.4,0.0L580.1,3.7L580.5,5.4L588.4,0.0L582.4,0.0Z " data-id="HN.IB" data-name="Islas de la Bahía" id="HN.IB"/>
utf-8utf-8<path d="M696.1,234.8L691.4,229.4L670.4,218.6L667.9,216.8L660.0,204.3L653.0,190.6L648.0,185.6L631.4,178.2L616.8,162.7L604.9,155.1L601.7,154.3L597.3,156.0L593.0,153.7L589.3,155.6L587.3,160.2L583.6,163.3L580.3,165.4L578.5,165.3L574.7,163.4L573.6,163.9L568.1,171.9L557.4,182.3L547.7,187.8L542.0,187.8L535.0,189.5L531.8,191.1L528.1,192.1L524.5,191.2L515.4,185.4L507.7,191.1L505.6,191.9L496.2,197.8L491.8,200.0L485.9,200.2L475.9,190.4L472.2,189.1L468.5,189.7L454.2,197.8L449.8,198.6L447.1,204.2L444.3,208.5L438.6,211.3L435.7,211.3L432.7,210.6L428.3,206.2L420.8,208.0L420.2,209.4L414.6,212.4L412.2,217.6L412.3,228.6L410.7,231.6L406.7,243.3L405.6,244.9L399.6,249.9L391.1,252.3L388.3,256.8L388.5,258.8L391.7,263.8L395.2,266.0L396.8,268.1L399.8,270.5L398.2,271.9L396.4,276.8L394.7,278.3L395.3,282.1L397.1,287.3L397.0,292.2L398.2,296.1L398.8,302.8L402.4,316.3L403.9,320.2L407.0,324.1L410.0,324.9L416.3,332.4L418.8,336.6L417.7,346.0L419.1,348.9L419.8,355.4L421.2,361.5L420.8,364.1L427.3,367.2L432.5,366.4L435.2,369.0L435.8,370.8L441.5,372.0L450.1,374.8L457.1,379.9L459.8,382.3L461.7,386.9L463.8,388.2L475.4,389.0L482.3,385.7L488.5,381.5L495.7,379.0L499.8,379.1L504.4,382.2L507.8,390.8L508.8,392.1L513.1,394.0L519.0,394.2L522.2,391.4L528.0,394.7L531.5,406.3L532.6,407.4L538.4,410.5L541.1,415.2L546.0,417.0L548.8,414.3L550.6,410.4L555.8,407.7L560.7,410.5L562.8,411.0L564.6,410.0L566.8,405.8L568.6,404.9L575.9,406.7L581.8,408.8L585.9,407.6L589.5,411.9L590.2,414.2L590.4,421.9L590.9,423.3L595.3,427.3L596.7,433.3L599.4,432.7L602.5,431.7L604.2,429.2L605.9,423.9L611.8,422.1L614.7,420.4L619.1,416.8L624.9,407.3L626.5,402.7L628.3,399.8L632.8,395.4L634.4,395.7L640.7,389.5L646.4,387.0L652.4,387.0L656.4,386.2L660.5,384.8L664.0,382.6L666.1,379.6L666.3,375.4L664.6,371.8L662.1,369.0L659.7,367.1L664.4,363.4L664.9,358.3L669.7,352.8L670.9,343.7L672.1,338.6L673.6,336.0L676.4,336.9L678.6,340.0L681.1,342.2L684.6,340.4L690.9,334.2L692.3,331.1L688.2,331.1L693.2,326.0L689.0,322.5L688.3,320.7L692.4,318.5L693.9,311.8L695.6,308.9L698.0,306.7L698.3,306.4L698.3,306.3L702.7,263.1L704.3,247.2L696.1,234.8Z " data-id="HN.OL" data-name="Olancho" id="HN.OL"/>
utf-8utf-8<path d="M485.7,152.4L481.4,151.6L477.4,152.1L469.3,152.0L463.5,152.4L455.3,150.1L446.4,153.3L439.4,157.4L431.7,159.9L424.4,160.2L421.5,159.5L419.9,156.5L408.2,159.9L401.1,159.7L398.1,160.2L383.9,172.4L373.1,176.5L365.4,182.4L358.8,182.3L347.9,179.3L341.7,177.1L337.6,178.2L335.0,179.7L331.1,178.0L327.9,174.5L327.1,172.6L326.8,163.8L324.3,161.8L315.5,165.9L313.2,165.6L306.3,167.6L299.2,168.3L296.8,167.1L291.4,159.4L290.4,151.7L290.5,149.1L289.7,142.8L288.4,139.4L286.0,137.9L275.4,129.0L270.2,132.6L269.1,134.3L271.9,135.0L269.3,138.0L271.5,141.2L275.2,144.9L277.2,149.1L275.1,155.0L274.0,155.6L271.5,155.0L270.2,157.4L268.1,163.0L266.4,164.2L264.3,167.5L264.5,170.1L266.2,174.7L265.4,177.8L262.7,176.2L260.9,176.2L259.7,177.8L263.9,181.8L264.2,184.2L263.4,185.7L260.9,187.9L256.2,195.1L250.9,199.4L247.9,200.5L247.2,203.7L245.1,205.9L244.1,210.8L244.2,212.7L242.6,215.3L244.7,216.1L245.1,218.7L244.1,225.6L247.5,224.6L252.2,225.4L254.9,228.2L255.6,230.6L258.8,230.7L262.9,234.4L267.1,234.4L271.2,239.5L271.7,242.6L271.3,245.6L269.8,248.5L269.8,256.7L284.6,256.4L286.4,256.7L293.5,254.9L294.2,253.4L299.2,249.6L301.9,249.9L306.2,255.6L306.8,259.4L308.0,261.6L312.5,266.7L312.3,270.3L312.9,274.8L318.0,276.2L322.1,274.0L325.5,270.8L329.3,271.0L334.8,272.7L337.4,274.8L341.4,273.9L345.2,278.2L348.7,273.4L351.9,268.3L355.3,265.3L356.9,259.5L357.0,257.6L360.1,255.0L367.7,253.9L374.6,255.9L383.2,255.5L388.3,256.8L391.1,252.3L399.6,249.9L405.6,244.9L406.7,243.3L410.7,231.6L412.3,228.6L412.2,217.6L414.6,212.4L420.2,209.4L420.8,208.0L428.3,206.2L432.7,210.6L435.7,211.3L438.6,211.3L444.3,208.5L447.1,204.2L449.8,198.6L454.2,197.8L468.5,189.7L472.2,189.1L475.9,190.4L485.9,200.2L491.8,200.0L496.2,197.8L505.6,191.9L507.7,191.1L515.4,185.4L515.7,180.6L514.9,177.3L516.7,169.2L516.0,164.8L512.8,164.8L509.9,162.6L505.1,161.5L495.9,161.7L493.3,158.2L489.0,154.0L485.7,152.4Z " data-id="HN.YO" data-name="Yoro" id="HN.YO"/>
utf-8utf-8<path d="M256.4,576.3L258.3,573.6L258.5,569.5L251.7,569.7L249.1,570.6L250.9,574.6L249.7,575.7L252.8,576.9L256.4,576.3Z M258.6,555.2L256.8,554.4L255.3,555.4L252.9,558.8L252.2,562.0L255.4,564.2L262.5,566.9L265.1,564.4L263.9,557.2L266.8,555.8L266.9,554.7L264.5,554.7L260.2,555.8L258.6,555.2Z M262.5,470.9L259.1,470.9L255.5,468.1L248.9,468.3L246.4,468.8L250.5,473.1L253.2,474.4L251.5,477.0L247.5,485.3L246.5,488.2L247.2,491.2L242.9,497.1L242.0,500.3L241.5,507.0L240.9,510.3L236.1,520.5L234.7,525.5L236.0,529.7L237.6,530.3L241.1,529.1L243.3,530.1L245.1,536.2L244.5,538.6L241.4,542.0L228.3,548.4L233.6,552.8L236.6,553.9L240.0,556.4L242.8,557.0L247.4,555.7L252.0,552.1L254.8,547.3L253.8,542.2L258.0,538.1L260.0,537.6L260.6,540.3L259.5,545.4L259.8,547.4L261.9,548.4L260.4,554.7L262.6,552.4L265.4,552.7L271.3,554.7L271.2,555.8L268.9,555.8L268.8,557.0L280.8,557.0L282.5,550.8L287.3,545.9L293.1,547.2L295.5,548.4L297.7,550.8L301.2,548.1L303.3,543.6L303.3,539.9L301.2,531.7L302.1,528.0L296.8,523.2L293.9,513.7L294.9,506.5L289.5,501.1L289.2,500.6L287.9,501.4L286.4,500.9L282.5,498.0L275.6,491.8L272.7,492.2L267.9,491.1L261.9,486.2L260.9,484.1L262.0,476.2L262.5,470.9Z " data-id="HN.VA" data-name="Valle" id="HN.VA"/>
utf-8utf-8<path d="M341.4,273.9L337.4,274.8L334.8,272.7L329.3,271.0L325.5,270.8L322.1,274.0L318.0,276.2L312.9,274.8L312.3,270.3L312.5,266.7L308.0,261.6L306.8,259.4L306.2,255.6L301.9,249.9L299.2,249.6L294.2,253.4L293.5,254.9L286.4,256.7L284.6,256.4L269.8,256.7L269.2,262.6L268.0,266.5L265.1,269.1L257.3,275.0L254.1,276.6L246.0,282.0L243.3,285.4L229.8,295.3L227.3,292.3L226.7,289.3L225.7,297.3L220.0,298.4L214.6,304.0L210.9,306.3L210.0,310.2L211.8,316.6L209.4,320.4L211.2,323.7L220.0,326.4L222.5,328.6L225.2,329.8L226.5,332.0L229.7,341.8L233.3,343.9L234.6,347.4L234.3,349.1L236.0,351.1L240.3,358.3L241.3,360.8L241.0,362.4L240.3,363.1L241.6,365.8L243.6,368.3L249.7,370.2L251.5,372.5L256.2,373.6L257.8,374.6L263.8,376.5L271.3,373.2L272.0,373.9L273.9,383.4L272.7,385.4L273.9,386.8L273.1,389.1L269.1,392.5L266.6,393.1L264.2,392.7L260.4,395.3L252.3,397.6L249.2,397.3L243.1,398.9L240.5,400.1L240.6,403.6L245.9,406.2L247.8,409.1L246.1,414.3L246.6,414.9L254.1,418.3L256.6,421.0L259.9,425.5L259.5,431.6L264.1,427.2L266.3,425.5L271.9,424.8L272.5,421.1L276.2,416.6L279.6,414.9L284.7,414.3L291.5,410.7L294.9,404.4L298.3,402.2L303.8,400.5L304.5,399.4L304.1,396.4L301.9,394.8L299.8,391.6L300.1,382.6L301.1,379.6L303.5,379.4L305.3,380.5L307.4,379.4L312.2,373.1L314.3,369.2L313.8,367.9L310.3,364.6L310.7,359.0L304.3,352.2L303.4,346.2L312.3,337.3L314.1,334.0L315.0,328.4L315.9,327.3L320.6,328.6L321.1,330.0L324.6,330.7L327.4,326.1L328.2,323.6L328.2,320.2L338.0,313.9L340.7,307.1L342.1,302.8L342.0,296.7L341.6,293.9L344.3,287.7L347.6,287.3L350.4,285.1L347.8,279.6L345.2,278.2L341.4,273.9Z " data-id="HN.CM" data-name="Comayagua" id="HN.CM"/>
utf-8utf-8<path d="M277.7,128.4L280.4,125.6L279.5,121.0L278.2,121.4L277.8,119.0L275.7,115.9L275.9,114.0L281.1,107.7L283.0,103.3L287.8,98.8L288.8,97.1L288.8,92.8L287.5,93.2L286.3,95.8L283.4,96.7L269.6,97.7L264.8,99.4L261.9,101.5L259.2,102.4L252.5,102.5L252.4,104.4L255.6,108.8L254.2,111.3L244.3,117.5L238.2,116.5L236.5,117.1L237.0,120.0L232.8,122.7L222.4,133.6L218.0,135.6L214.3,134.3L207.8,128.6L204.9,128.9L204.2,132.5L202.9,134.9L202.0,133.6L194.0,137.3L190.7,137.4L183.8,147.9L175.6,155.9L163.7,165.3L173.2,161.7L181.5,163.2L195.9,168.3L199.1,171.4L198.3,177.7L198.3,181.1L199.8,183.5L204.1,186.6L209.7,191.2L213.5,192.1L214.0,193.0L213.2,210.6L215.8,218.4L218.8,220.9L221.8,222.0L220.7,224.8L213.4,232.5L212.1,236.0L213.0,239.0L214.6,241.4L218.8,244.7L225.8,249.6L223.5,252.0L220.6,260.2L219.5,261.7L217.6,269.3L217.8,272.2L222.0,272.6L226.4,277.6L227.2,281.8L226.7,289.3L227.3,292.3L229.8,295.3L243.3,285.4L246.0,282.0L254.1,276.6L257.3,275.0L265.1,269.1L268.0,266.5L269.2,262.6L269.8,256.7L269.8,248.5L271.3,245.6L271.7,242.6L271.2,239.5L267.1,234.4L262.9,234.4L258.8,230.7L255.6,230.6L254.9,228.2L252.2,225.4L247.5,224.6L244.1,225.6L245.1,218.7L244.7,216.1L242.6,215.3L244.2,212.7L244.1,210.8L245.1,205.9L247.2,203.7L247.9,200.5L250.9,199.4L256.2,195.1L260.9,187.9L263.4,185.7L264.2,184.2L263.9,181.8L259.7,177.8L260.9,176.2L262.7,176.2L265.4,177.8L266.2,174.7L264.5,170.1L264.3,167.5L266.4,164.2L268.1,163.0L270.2,157.4L271.5,155.0L274.0,155.6L275.1,155.0L277.2,149.1L275.2,144.9L271.5,141.2L269.3,138.0L271.9,135.0L269.1,134.3L270.2,132.6L275.4,129.0L277.7,128.4Z " data-id="HN.CR" data-name="Cortés" id="HN.CR"/>
utf-8utf-8<path d="M241.0,362.4L241.3,360.8L240.3,358.3L236.0,351.1L234.3,349.1L234.6,347.4L233.3,343.9L229.7,341.8L226.5,332.0L225.2,329.8L222.5,328.6L220.0,326.4L211.2,323.7L209.4,320.4L206.3,322.3L205.1,323.2L200.5,322.7L195.3,321.5L178.8,323.3L166.6,322.3L167.8,325.6L168.5,337.0L164.7,343.3L162.9,348.9L160.9,351.9L156.3,354.5L152.5,355.1L145.3,355.0L141.3,356.3L138.5,358.2L137.8,359.6L138.1,367.1L140.8,371.8L143.8,375.0L148.5,377.6L149.3,386.7L148.7,390.0L146.6,395.0L150.3,398.4L151.9,399.3L155.1,399.1L158.4,400.0L161.1,401.8L160.4,410.8L160.7,418.8L154.6,428.1L150.7,431.7L141.3,437.5L135.9,440.0L133.0,442.3L129.9,446.5L129.8,446.6L129.9,448.9L128.2,455.9L129.7,462.4L129.6,465.3L127.9,467.8L132.2,467.6L138.4,464.2L144.9,462.7L150.0,464.0L150.6,461.3L155.6,461.7L156.9,459.4L162.4,457.9L166.4,453.0L168.3,452.1L170.8,452.1L171.8,449.6L170.0,447.0L171.9,442.2L174.3,442.4L174.7,442.5L174.5,442.1L176.7,433.0L173.9,426.6L176.1,424.4L185.8,413.8L187.7,412.0L194.5,406.9L196.2,403.1L199.1,400.2L205.0,395.2L211.7,394.9L213.3,392.4L214.1,388.7L219.7,384.6L222.8,379.2L222.7,373.7L223.9,370.3L228.6,371.0L232.6,368.9L240.3,363.1L241.0,362.4Z " data-id="HN.IN" data-name="Intibucá" id="HN.IN"/>
utf-8utf-8<path d="M266.3,425.5L264.1,427.2L259.5,431.6L259.9,425.5L256.6,421.0L254.1,418.3L246.6,414.9L246.1,414.3L247.8,409.1L245.9,406.2L240.6,403.6L240.5,400.1L243.1,398.9L249.2,397.3L252.3,397.6L260.4,395.3L264.2,392.7L266.6,393.1L269.1,392.5L273.1,389.1L273.9,386.8L272.7,385.4L273.9,383.4L272.0,373.9L271.3,373.2L263.8,376.5L257.8,374.6L256.2,373.6L251.5,372.5L249.7,370.2L243.6,368.3L241.6,365.8L240.3,363.1L232.6,368.9L228.6,371.0L223.9,370.3L222.7,373.7L222.8,379.2L219.7,384.6L214.1,388.7L213.3,392.4L211.7,394.9L205.0,395.2L199.1,400.2L196.2,403.1L194.5,406.9L187.7,412.0L185.8,413.8L176.1,424.4L173.9,426.6L176.7,433.0L174.5,442.1L174.7,442.5L178.4,443.5L180.9,443.6L189.3,442.5L193.5,442.7L195.1,444.4L196.8,451.1L198.8,454.2L201.5,457.2L203.7,460.6L204.6,465.1L212.2,461.1L215.9,460.6L218.1,462.3L223.4,460.1L229.5,460.8L234.4,456.2L236.8,456.1L238.2,457.4L239.3,462.2L240.3,464.3L244.2,466.4L246.4,468.8L248.9,468.3L255.5,468.1L259.1,470.9L262.5,470.9L267.5,464.6L270.2,458.5L272.0,452.1L272.6,448.6L271.9,424.8L266.3,425.5Z " data-id="HN.LP" data-name="La Paz" id="HN.LP"/>
utf-8utf-8<path d="M227.2,281.8L226.4,277.6L222.0,272.6L217.8,272.2L217.6,269.3L219.5,261.7L220.6,260.2L223.5,252.0L225.8,249.6L218.8,244.7L214.6,241.4L213.0,239.0L212.1,236.0L213.4,232.5L220.7,224.8L221.8,222.0L218.8,220.9L215.8,218.4L213.2,210.6L214.0,193.0L213.5,192.1L209.7,191.2L204.1,186.6L199.8,183.5L198.3,181.1L198.3,177.7L199.1,171.4L195.9,168.3L181.5,163.2L173.2,161.7L163.7,165.3L158.1,169.8L158.1,169.8L142.9,181.7L127.9,193.5L112.9,205.3L118.9,215.2L118.0,220.3L123.4,227.8L125.8,229.2L127.3,231.6L125.1,234.4L125.6,238.9L126.9,245.7L122.7,249.4L120.9,252.9L120.3,256.1L118.1,262.4L115.4,268.3L116.5,272.9L118.3,274.0L124.1,272.8L129.9,271.0L131.1,270.2L138.4,271.5L140.8,281.7L144.3,289.7L146.8,293.7L150.8,290.9L152.7,288.1L154.7,286.1L156.1,286.0L159.8,290.4L164.0,290.3L167.0,292.4L161.7,300.9L164.5,306.9L166.7,308.3L171.3,308.4L172.1,310.5L170.7,316.0L166.6,322.3L178.8,323.3L195.3,321.5L200.5,322.7L205.1,323.2L206.3,322.3L209.4,320.4L211.8,316.6L210.0,310.2L210.9,306.3L214.6,304.0L220.0,298.4L225.7,297.3L226.7,289.3L227.2,281.8Z " data-id="HN.SB" data-name="Santa Bárbara" id="HN.SB"/>
utf-8utf-8<path d="M118.3,274.0L116.5,272.9L115.4,268.3L118.1,262.4L120.3,256.1L120.9,252.9L122.7,249.4L126.9,245.7L125.6,238.9L125.1,234.4L127.3,231.6L125.8,229.2L123.4,227.8L118.0,220.3L118.9,215.2L112.9,205.3L97.9,217.0L76.1,234.2L70.2,237.1L53.5,243.1L44.8,248.7L42.6,252.0L39.2,260.4L41.9,263.6L41.4,268.4L38.9,273.5L35.7,277.8L31.4,281.6L29.9,283.7L29.4,287.1L35.0,299.0L37.1,307.0L39.9,310.9L40.4,312.1L50.4,308.8L59.7,310.3L61.8,314.0L62.4,319.5L63.5,322.1L72.7,330.6L73.5,333.1L74.7,342.9L77.2,346.1L81.9,348.0L83.7,349.8L87.7,349.4L87.5,345.3L88.2,343.9L92.2,341.9L96.5,341.2L99.5,341.8L103.3,341.4L104.0,330.5L101.5,324.8L97.2,319.7L96.5,311.6L98.9,310.7L106.7,311.8L112.5,311.3L118.4,309.7L118.4,304.3L116.3,298.3L117.4,291.7L121.0,287.0L120.9,285.1L123.2,283.4L124.3,278.6L124.1,272.8L118.3,274.0Z " data-id="HN.CP" data-name="Copán" id="HN.CP"/>
utf-8utf-8<path d="M170.7,316.0L172.1,310.5L171.3,308.4L166.7,308.3L164.5,306.9L161.7,300.9L167.0,292.4L164.0,290.3L159.8,290.4L156.1,286.0L154.7,286.1L152.7,288.1L150.8,290.9L146.8,293.7L144.3,289.7L140.8,281.7L138.4,271.5L131.1,270.2L129.9,271.0L124.1,272.8L124.3,278.6L123.2,283.4L120.9,285.1L121.0,287.0L117.4,291.7L116.3,298.3L118.4,304.3L118.4,309.7L112.5,311.3L106.7,311.8L98.9,310.7L96.5,311.6L97.2,319.7L101.5,324.8L104.0,330.5L103.3,341.4L104.7,342.1L105.4,345.2L99.9,358.6L99.3,360.8L96.3,363.2L91.6,364.9L86.7,364.0L86.2,365.7L87.7,370.8L83.6,370.9L79.8,367.0L78.6,367.0L74.5,375.5L64.2,380.6L62.6,383.0L59.6,386.3L59.3,387.6L60.1,392.1L59.8,397.9L59.1,402.8L59.2,404.3L59.5,406.2L60.8,407.3L66.7,404.7L69.1,404.7L72.8,407.5L75.7,412.2L77.5,417.6L78.0,422.7L80.9,422.2L87.8,422.8L92.9,420.7L93.8,422.8L93.4,425.8L92.1,428.8L91.8,431.4L94.1,433.2L97.5,433.7L99.9,436.3L100.9,438.6L105.0,438.0L109.0,438.3L120.6,442.5L127.6,443.1L129.0,443.8L130.0,446.4L129.9,446.5L133.0,442.3L135.9,440.0L141.3,437.5L150.7,431.7L154.6,428.1L160.7,418.8L160.4,410.8L161.1,401.8L158.4,400.0L155.1,399.1L151.9,399.3L150.3,398.4L146.6,395.0L148.7,390.0L149.3,386.7L148.5,377.6L143.8,375.0L140.8,371.8L138.1,367.1L137.8,359.6L138.5,358.2L141.3,356.3L145.3,355.0L152.5,355.1L156.3,354.5L160.9,351.9L162.9,348.9L164.7,343.3L168.5,337.0L167.8,325.6L166.6,322.3L170.7,316.0Z " data-id="HN.LE" data-name="Lempira" id="HN.LE"/>
utf-8utf-8<path d="M99.5,341.8L96.5,341.2L92.2,341.9L88.2,343.9L87.5,345.3L87.7,349.4L83.7,349.8L81.9,348.0L77.2,346.1L74.7,342.9L73.5,333.1L72.7,330.6L63.5,322.1L62.4,319.5L61.8,314.0L59.7,310.3L50.4,308.8L40.4,312.1L40.7,312.5L40.6,315.6L37.5,320.2L37.2,329.3L36.8,332.5L35.8,335.5L33.7,337.5L31.9,337.7L26.1,335.8L23.4,336.1L19.5,340.4L14.1,345.2L11.6,347.9L8.2,352.5L4.6,353.5L2.9,354.7L1.6,357.1L1.0,360.0L0.8,365.6L9.2,367.1L13.9,369.7L21.8,371.6L25.5,374.8L32.6,377.2L34.2,375.7L37.0,370.8L39.8,368.9L40.7,369.1L42.8,373.0L43.0,374.8L41.9,378.4L43.5,380.1L48.8,380.8L51.2,382.2L52.0,384.5L52.1,390.0L52.7,391.6L56.3,395.0L59.1,401.9L59.1,402.8L59.8,397.9L60.1,392.1L59.3,387.6L59.6,386.3L62.6,383.0L64.2,380.6L74.5,375.5L78.6,367.0L79.8,367.0L83.6,370.9L87.7,370.8L86.2,365.7L86.7,364.0L91.6,364.9L96.3,363.2L99.3,360.8L99.9,358.6L105.4,345.2L104.7,342.1L103.3,341.4L99.5,341.8Z " data-id="HN.OC" data-name="Ocotepeque" id="HN.OC"/>
utf-8utf-8<path d="M399.4,493.8L395.6,495.2L392.9,498.5L387.9,499.0L386.5,499.5L380.0,504.0L379.5,502.6L372.5,503.0L371.8,506.3L369.5,510.0L366.7,513.0L361.1,516.3L359.1,518.1L357.8,522.3L353.8,526.9L345.6,530.1L343.0,527.7L342.0,524.3L342.1,522.6L340.8,521.4L333.6,520.9L331.4,519.5L330.9,513.8L328.7,511.1L327.0,510.5L326.2,508.2L328.4,500.5L320.9,497.3L315.4,498.1L312.1,496.2L305.6,497.0L300.9,491.4L300.8,489.1L302.3,486.0L293.6,484.3L291.8,484.9L290.3,491.7L289.0,495.6L288.8,498.2L289.2,500.6L289.5,501.1L294.9,506.5L293.9,513.7L296.8,523.2L302.1,528.0L301.2,531.7L303.3,539.9L303.3,543.6L301.2,548.1L297.7,550.8L297.7,550.8L297.3,554.7L292.0,556.9L289.5,557.6L287.4,557.0L286.1,558.2L282.5,563.2L275.2,568.6L275.2,571.6L278.9,573.1L280.2,576.9L282.9,581.4L285.4,587.8L286.9,594.9L286.7,601.9L290.7,600.9L295.9,601.5L304.8,604.3L297.2,606.1L297.7,611.7L299.5,614.3L301.8,615.9L304.9,616.6L309.3,616.7L309.2,617.9L303.8,621.9L303.1,624.2L338.1,622.8L340.4,623.1L343.8,625.6L345.7,625.7L346.8,622.8L350.3,621.0L354.6,618.1L356.6,615.9L360.9,609.5L365.2,606.4L365.8,604.7L364.0,602.4L366.2,592.9L364.8,588.5L366.8,582.9L369.5,578.7L377.8,571.4L380.1,569.7L382.7,568.9L385.4,569.2L394.1,574.2L397.1,574.3L401.9,570.3L403.3,567.9L403.9,565.1L402.3,556.6L398.9,552.9L399.4,550.3L401.9,545.3L402.4,542.5L399.2,520.7L399.4,517.6L400.9,511.8L398.2,505.1L398.0,503.5L399.4,493.8Z " data-id="HN.CH" data-name="Choluteca" id="HN.CH"/>
utf-8utf-8<path d="M420.8,364.1L408.0,374.1L402.2,379.7L400.5,385.6L396.9,391.6L388.4,399.2L385.9,404.9L383.7,409.2L384.9,409.6L386.4,411.7L384.4,415.4L381.0,415.9L376.3,415.4L372.8,416.8L373.5,420.1L377.0,426.3L381.0,429.9L382.6,433.8L381.4,441.0L379.3,444.7L377.3,446.9L374.5,448.4L369.1,447.3L369.3,452.8L367.7,456.9L367.6,460.5L366.2,468.8L362.4,477.0L356.1,481.6L351.0,480.1L347.8,476.5L345.5,475.2L343.6,478.8L343.2,481.3L344.2,487.2L345.7,490.9L345.4,493.7L340.9,502.3L333.6,498.7L328.4,500.5L326.2,508.2L327.0,510.5L328.7,511.1L330.9,513.8L331.4,519.5L333.6,520.9L340.8,521.4L342.1,522.6L342.0,524.3L343.0,527.7L345.6,530.1L353.8,526.9L357.8,522.3L359.1,518.1L361.1,516.3L366.7,513.0L369.5,510.0L371.8,506.3L372.5,503.0L379.5,502.6L380.0,504.0L386.5,499.5L387.9,499.0L392.9,498.5L395.6,495.2L399.4,493.8L399.8,490.7L401.6,486.3L407.4,482.9L410.7,482.6L417.6,483.5L430.8,480.8L437.1,480.4L442.0,483.6L444.7,484.5L449.4,482.4L451.7,482.0L454.0,484.9L457.4,486.4L465.6,485.8L471.1,483.7L473.2,481.4L476.1,473.3L479.0,468.8L490.6,456.4L496.9,446.9L502.7,443.7L504.7,441.6L507.9,435.9L512.1,432.9L524.4,430.9L524.2,432.9L522.1,436.8L522.1,441.6L532.5,450.6L536.4,456.8L538.5,457.6L543.7,456.5L547.0,458.2L548.6,461.3L549.8,465.1L552.0,468.5L555.4,469.8L562.3,470.0L564.2,472.6L567.8,468.4L568.4,465.6L567.6,463.5L565.3,462.7L564.9,461.1L568.0,452.2L568.5,448.2L573.8,447.9L575.9,446.8L579.4,443.7L582.9,442.9L582.6,441.0L588.3,439.1L591.8,434.8L595.4,433.5L596.7,433.3L595.3,427.3L590.9,423.3L590.4,421.9L590.2,414.2L589.5,411.9L585.9,407.6L581.8,408.8L575.9,406.7L568.6,404.9L566.8,405.8L564.6,410.0L562.8,411.0L560.7,410.5L555.8,407.7L550.6,410.4L548.8,414.3L546.0,417.0L541.1,415.2L538.4,410.5L532.6,407.4L531.5,406.3L528.0,394.7L522.2,391.4L519.0,394.2L513.1,394.0L508.8,392.1L507.8,390.8L504.4,382.2L499.8,379.1L495.7,379.0L488.5,381.5L482.3,385.7L475.4,389.0L463.8,388.2L461.7,386.9L459.8,382.3L457.1,379.9L450.1,374.8L441.5,372.0L435.8,370.8L435.2,369.0L432.5,366.4L427.3,367.2L420.8,364.1Z " data-id="HN.EP" data-name="El Paraíso" id="HN.EP"/>
utf-8</g>
</svg>
