<?xml version="1.0" ?>
<!DOCTYPE svg
  PUBLIC '-//W3C//DTD SVG 1.1//EN'
  'http://www.w3.org/Graphics/SVG/1.1/DTD/svg11.dtd'>
<svg enable_background="new 0 0 1000 855" height="855px" pretty_print="True" style="stroke-linejoin: round; stroke:#000; fill: none;" version="1.1" viewBox="0 0 1000 855" width="1000px" xmlns="http://www.w3.org/2000/svg" xmlns:xlink="http://www.w3.org/1999/xlink">
utf-8<defs>
utf-8utf-8<style type="text/css">
<![CDATA[path { fill-rule: evenodd; }]]>utf-8utf-8</style>
utf-8</defs>
utf-8<metadata>
utf-8utf-8<views>
utf-8utf-8utf-8<view h="855.062062284" padding="0" w="1000">
utf-8utf-8utf-8utf-8<proj flip="auto" id="robinson" lon0="17.9767548122"/>
utf-8utf-8utf-8utf-8<bbox h="67.16" w="78.63" x="178.7" y="-778.64"/>
utf-8utf-8utf-8</view>
utf-8utf-8</views>
utf-8</metadata>
utf-8<g class="" id="provinces">
utf-8utf-8<path d="M623.6,780.0L621.3,778.7L610.4,777.3L605.4,777.9L602.4,779.1L601.3,781.5L604.0,780.3L604.8,783.2L602.7,784.3L604.8,787.2L607.2,788.2L609.5,787.7L611.1,785.7L615.9,788.5L619.4,788.1L622.5,786.1L624.3,783.2L623.6,780.0Z M699.7,774.4L698.2,773.5L692.9,775.4L689.9,775.9L695.4,780.9L698.9,782.2L700.8,780.0L764.1,795.7L760.7,791.8L751.6,788.4L747.9,785.7L746.2,786.7L736.3,785.7L737.3,784.3L733.2,782.7L724.4,781.2L717.7,777.7L709.3,777.6L706.3,775.9L705.1,777.3L703.5,776.3L698.0,775.9L699.7,774.4Z M592.1,738.5L587.3,736.8L583.6,734.9L579.7,734.8L575.7,734.3L572.0,734.4L568.5,736.4L571.5,737.4L578.3,738.2L581.6,739.1L581.7,740.6L570.5,746.3L573.5,748.0L576.5,748.9L576.5,747.9L579.6,747.6L588.0,749.9L607.4,753.3L615.4,752.2L627.7,747.9L634.9,747.5L650.9,750.5L658.5,749.1L662.1,748.9L665.5,750.5L666.6,748.9L660.1,744.9L657.3,742.6L654.1,739.1L650.6,740.2L636.9,736.4L617.1,738.1L611.0,740.6L601.7,740.6L592.1,738.5Z M896.8,853.1L896.8,850.0L895.8,847.7L888.9,843.1L886.8,840.4L885.3,837.2L884.9,833.6L885.3,826.9L884.2,823.6L881.3,822.7L875.2,822.1L872.5,820.6L868.5,816.0L866.6,814.7L861.9,814.9L852.4,812.1L846.5,809.4L815.1,791.6L805.4,786.3L801.2,783.3L793.2,775.9L788.8,773.1L782.7,771.6L780.7,770.5L774.8,763.1L774.2,760.7L774.0,755.7L773.3,753.7L771.2,751.4L767.0,753.1L763.4,752.6L756.0,750.1L752.2,749.4L748.5,750.2L746.3,752.3L744.4,755.3L749.0,757.7L753.7,756.1L754.9,757.4L753.1,759.9L754.9,762.3L760.4,765.9L755.9,764.9L748.2,758.5L744.6,758.9L742.5,756.6L739.2,755.2L732.4,753.3L727.9,750.8L721.6,749.4L721.8,751.3L717.8,751.0L714.6,748.9L710.9,748.9L709.6,744.7L704.4,740.9L698.1,737.4L671.7,728.1L657.7,726.4L643.2,727.9L640.1,726.9L634.2,722.8L630.5,722.2L633.7,725.8L635.4,726.4L635.5,727.9L633.9,730.0L635.7,732.1L641.9,734.9L647.6,736.0L665.8,736.1L672.1,738.7L678.0,740.4L692.3,748.9L703.8,751.1L708.4,753.7L708.4,758.9L723.3,764.0L732.8,765.5L742.2,769.3L750.0,770.7L758.9,773.8L762.5,775.9L762.8,779.8L763.9,780.0L764.9,778.4L762.2,773.3L760.5,771.3L757.1,768.6L759.6,769.5L767.7,774.6L768.5,772.9L772.0,771.5L776.9,772.5L782.3,776.1L787.1,775.9L785.4,780.4L789.2,783.9L799.8,788.5L807.5,794.5L811.9,796.4L814.3,794.2L815.3,796.5L820.7,801.2L817.3,801.2L818.6,803.3L820.8,804.6L829.3,806.0L836.6,809.6L845.5,811.1L846.6,812.2L846.8,819.5L850.3,823.6L881.3,840.8L881.8,843.7L884.4,845.0L890.2,846.5L892.6,847.9L896.8,853.1Z M693.1,717.6L699.2,722.2L702.7,719.4L704.2,722.2L703.0,723.6L704.2,725.4L709.1,726.4L705.9,728.7L713.8,725.6L716.2,726.4L712.5,728.2L711.2,730.1L712.1,732.6L719.8,741.3L723.1,743.0L725.6,742.0L731.2,744.7L740.2,743.0L744.8,739.9L737.5,723.2L729.9,715.9L705.5,702.3L703.3,703.8L700.3,704.1L695.3,701.8L687.7,701.2L687.6,703.0L689.0,704.3L692.0,704.9L696.0,709.9L698.7,712.1L692.1,716.5L693.1,717.6Z " data-id="HR.DN" data-name="Dubrovacko-Neretvanska" id="HR.DN"/>
utf-8utf-8<path d="M395.7,599.5L392.5,595.9L390.5,594.4L383.7,592.5L382.6,594.0L385.3,595.2L393.1,600.0L394.7,601.7L396.3,601.1L406.5,603.8L395.7,599.5Z M340.6,570.3L336.1,565.8L322.5,556.6L321.4,554.5L317.8,551.7L315.7,553.0L316.8,555.5L321.9,560.1L326.7,563.0L330.5,567.1L333.8,569.0L344.2,573.0L340.6,570.3Z M374.7,556.0L386.0,560.8L393.2,565.8L387.8,565.0L382.6,563.0L385.4,566.1L389.8,567.2L394.0,568.9L396.1,573.5L398.6,575.8L409.7,576.5L413.3,577.6L415.4,579.3L422.5,582.7L427.5,588.2L431.3,588.7L438.2,593.7L439.6,593.4L439.2,589.6L441.3,591.2L441.7,593.0L440.8,594.5L438.5,595.3L442.3,599.0L440.5,599.5L436.1,598.4L434.1,599.5L437.0,599.5L444.7,600.9L444.8,602.5L438.6,602.4L436.8,603.5L438.2,606.6L437.0,608.1L438.4,609.5L438.0,611.1L439.8,612.2L437.5,613.7L437.6,615.0L440.5,615.0L442.1,616.3L441.8,617.6L439.0,617.9L443.0,619.1L444.5,620.1L445.2,622.1L449.8,620.7L449.1,622.3L449.5,625.6L446.8,627.8L448.1,629.3L451.9,629.3L454.0,630.6L453.9,629.2L454.8,629.2L462.0,627.3L459.0,624.9L458.9,623.6L466.0,620.6L464.7,619.5L459.4,612.3L458.8,610.0L461.8,606.1L466.4,605.7L477.1,592.4L479.2,591.4L488.8,594.9L491.6,593.8L492.9,592.2L498.9,589.3L503.5,588.3L507.4,586.8L509.1,584.3L506.5,580.6L508.0,577.6L508.9,572.8L520.0,565.8L519.9,561.8L512.5,554.7L509.6,552.9L504.8,550.8L503.7,548.6L505.5,542.3L504.2,540.2L501.8,539.3L498.9,539.6L497.3,540.8L485.3,543.9L481.7,544.0L478.5,543.5L474.8,542.2L471.5,536.9L470.9,527.2L468.2,520.0L466.3,520.2L462.3,523.9L455.4,524.3L451.3,524.2L449.0,526.2L448.8,527.8L450.1,530.2L445.4,533.9L445.1,538.1L438.9,539.2L435.2,541.3L432.0,544.7L428.8,545.3L425.2,542.0L418.3,539.7L408.0,538.9L407.2,540.0L409.7,543.0L406.1,548.0L405.3,548.5L403.8,553.0L400.6,554.1L391.9,550.2L386.4,554.6L383.9,554.7L378.2,550.5L374.3,548.4L369.8,552.5L374.7,556.0Z " data-id="HR.SB" data-name="Šibensko-Kninska" id="HR.SB"/>
utf-8utf-8<path d="M492.5,717.5L493.3,716.5L488.1,714.8L481.3,714.6L475.0,715.8L471.2,718.0L467.8,719.4L470.5,722.2L473.2,721.9L474.7,724.3L474.5,727.5L471.0,729.2L475.2,730.5L481.0,730.1L495.8,726.0L502.9,718.7L502.5,716.8L500.5,718.0L498.2,716.6L496.1,716.5L492.5,717.5Z M552.8,685.7L545.6,685.7L547.2,687.2L551.9,689.7L556.9,694.0L552.1,694.2L547.1,690.8L541.7,688.0L535.7,689.7L535.6,688.4L532.2,689.7L528.2,692.0L526.3,692.3L524.0,691.2L520.8,692.6L528.6,695.4L530.5,695.8L533.7,697.7L538.9,698.6L553.7,703.4L572.8,707.0L576.7,706.6L662.0,706.6L655.2,704.0L647.4,703.2L631.9,703.8L621.5,701.5L610.9,701.0L607.7,700.1L605.2,698.1L602.5,699.4L586.0,699.5L582.0,699.0L578.1,697.7L574.6,695.4L573.5,692.8L569.5,688.4L567.1,687.6L559.9,686.9L556.5,688.4L552.8,685.7Z M592.5,662.4L592.9,660.2L571.7,655.3L538.6,654.2L526.9,651.8L529.5,656.5L532.2,660.2L529.1,662.9L530.2,664.4L528.0,664.6L528.0,665.9L524.4,664.4L527.4,667.5L541.3,674.3L552.3,677.3L563.4,678.6L594.8,677.7L600.4,676.6L603.2,672.8L604.6,673.6L607.6,668.6L606.2,666.6L601.5,665.9L596.5,661.6L592.5,662.4Z M504.9,649.8L501.2,648.1L491.4,647.4L489.0,647.9L488.9,650.5L490.6,651.8L489.7,653.2L494.0,653.7L502.7,656.8L514.6,663.2L519.3,664.2L521.7,661.6L517.3,658.5L513.9,655.0L510.5,652.7L506.0,653.2L504.9,649.8Z M509.5,629.7L505.3,628.4L497.4,627.3L494.7,628.3L495.6,630.0L494.2,631.0L489.9,630.4L488.8,630.9L492.2,633.4L494.9,633.8L500.8,632.5L509.7,633.8L516.0,633.2L516.7,632.0L509.5,629.7Z M534.7,533.7L529.1,533.3L525.1,534.5L519.7,537.8L516.8,540.4L515.6,543.1L510.9,543.7L505.5,542.3L503.7,548.6L504.8,550.8L509.6,552.9L512.5,554.7L519.9,561.8L520.0,565.8L508.9,572.8L508.0,577.6L506.5,580.6L509.1,584.3L507.4,586.8L503.5,588.3L498.9,589.3L492.9,592.2L491.6,593.8L488.8,594.9L479.2,591.4L477.1,592.4L466.4,605.7L461.8,606.1L458.8,610.0L459.4,612.3L464.7,619.5L466.0,620.6L458.9,623.6L459.0,624.9L462.0,627.3L454.8,629.2L455.0,629.2L459.5,631.9L464.1,632.1L469.7,634.1L472.2,634.3L471.7,632.1L482.1,632.1L480.6,629.1L478.1,627.6L472.4,626.3L472.3,624.9L493.0,624.5L499.9,622.6L509.1,619.5L525.7,619.7L529.6,620.5L532.6,622.1L529.7,624.0L526.2,625.5L522.4,626.3L519.0,626.3L519.1,627.8L531.9,627.8L538.4,629.2L541.7,627.8L543.7,630.6L560.0,640.5L571.7,642.7L582.0,646.5L604.0,649.3L608.7,653.2L613.6,656.0L631.2,674.3L634.9,675.6L636.4,680.0L639.7,683.7L644.3,685.2L645.7,686.3L647.0,689.0L651.3,691.2L657.5,695.4L682.9,706.6L692.1,716.5L698.7,712.1L696.0,709.9L692.0,704.9L689.0,704.3L687.6,703.0L687.7,701.2L695.3,701.8L700.3,704.1L703.3,703.8L705.5,702.3L703.9,701.5L701.1,698.7L698.8,694.8L695.7,688.4L690.2,685.0L682.8,679.3L675.4,670.4L670.8,660.1L672.6,642.9L669.4,637.5L663.9,634.4L647.2,632.2L636.9,627.3L627.2,620.0L618.2,611.5L589.4,587.3L569.4,574.1L566.7,570.7L564.9,566.4L564.0,562.9L562.5,559.9L555.0,554.2L549.0,547.5L540.1,540.0L534.7,533.7Z " data-id="HR.SD" data-name="Splitsko-Dalmatinska" id="HR.SD"/>
utf-8utf-8<path d="M351.8,547.9L348.7,543.2L342.4,539.0L340.7,533.3L334.8,532.0L325.3,526.0L322.5,524.9L319.3,524.9L320.9,527.1L325.8,531.6L328.3,535.7L336.6,540.4L335.6,541.7L337.2,543.7L339.5,544.9L344.0,546.0L345.8,548.5L352.5,550.3L351.8,547.9Z M312.4,513.5L283.3,493.8L285.8,498.2L284.8,499.6L288.0,501.7L294.4,508.2L299.2,511.4L303.0,515.1L306.5,517.3L308.0,515.0L309.5,517.8L312.2,516.8L315.7,521.4L318.0,523.5L316.3,517.5L312.4,513.5Z M245.0,496.1L242.5,492.4L242.3,495.6L245.1,498.0L248.7,499.0L250.8,498.2L247.5,495.8L245.0,496.1Z M271.2,508.4L265.9,505.9L262.9,501.0L252.9,494.4L249.3,491.0L247.0,491.0L249.5,494.0L251.0,498.2L266.4,511.6L271.3,513.5L274.9,516.4L282.5,529.1L286.9,533.4L294.3,542.5L299.7,547.1L306.0,550.3L310.0,553.3L310.7,552.3L301.0,546.0L298.9,543.3L300.9,542.8L309.9,548.7L314.0,547.5L313.2,545.1L300.4,537.5L294.7,530.5L290.2,529.3L281.7,521.7L280.0,519.7L277.9,512.3L276.4,511.1L275.0,508.0L272.8,509.1L271.2,508.4Z M231.5,472.6L235.5,472.2L235.8,471.0L230.1,467.0L226.8,469.5L226.7,471.1L228.6,473.3L230.6,473.7L231.5,472.6Z M213.2,463.6L209.9,460.1L204.6,457.0L201.4,455.7L202.1,457.3L209.6,463.0L212.5,464.3L213.2,463.6Z M237.9,455.1L236.7,451.4L235.3,449.4L236.2,445.7L235.8,443.7L234.2,441.8L232.1,440.9L228.9,441.6L230.1,448.0L228.6,450.5L228.4,452.2L236.3,456.5L237.9,455.1Z M357.6,346.1L356.6,350.1L354.7,352.1L351.5,354.3L352.3,356.4L355.2,358.1L364.5,362.0L363.7,365.7L359.1,368.3L357.5,369.6L351.4,372.3L345.4,372.2L343.9,375.1L344.6,376.8L352.9,383.3L354.0,385.2L355.9,393.7L359.6,397.2L361.5,403.1L360.7,406.0L361.5,407.4L372.4,415.7L375.0,418.5L378.2,425.2L370.0,430.9L368.8,434.1L372.7,436.5L373.6,438.5L376.4,441.1L375.0,446.8L373.7,449.1L369.5,453.7L363.7,455.7L362.6,459.1L353.2,451.2L340.2,450.1L337.3,448.9L334.6,446.4L328.4,442.4L324.5,442.4L323.3,443.8L319.4,452.0L321.9,454.2L339.1,461.1L340.5,462.0L346.9,468.4L358.1,469.8L360.6,471.2L360.2,473.5L356.5,473.8L343.0,472.0L340.2,471.1L327.7,465.0L322.7,463.5L317.7,459.7L314.4,458.7L319.6,464.9L321.9,465.6L320.0,468.0L318.6,468.4L321.4,475.5L318.7,475.3L316.7,473.9L312.9,469.9L304.1,465.0L305.8,468.4L302.2,468.4L306.2,471.0L304.8,474.2L301.3,475.7L299.2,473.4L297.6,469.4L294.7,469.0L291.7,470.6L289.9,472.7L293.6,474.7L297.4,478.7L299.1,483.3L296.7,486.9L306.2,494.9L309.0,496.6L308.4,498.7L312.8,502.3L321.0,509.5L321.0,510.2L328.6,517.8L332.1,519.0L335.5,521.8L340.3,527.7L350.3,537.5L353.4,541.9L355.4,543.2L363.4,545.4L365.7,547.6L369.8,552.5L369.8,552.5L374.3,548.4L378.2,550.5L383.9,554.7L386.4,554.6L391.9,550.2L400.6,554.1L403.8,553.0L405.3,548.5L406.1,548.0L409.7,543.0L407.2,540.0L408.0,538.9L418.3,539.7L425.2,542.0L428.8,545.3L432.0,544.7L435.2,541.3L438.9,539.2L445.1,538.1L445.4,533.9L450.1,530.2L448.8,527.8L449.0,526.2L451.3,524.2L455.4,524.3L462.3,523.9L466.3,520.2L468.2,520.0L470.9,527.2L471.5,536.9L474.8,542.2L478.5,543.5L481.7,544.0L485.3,543.9L497.3,540.8L498.9,539.6L501.8,539.3L504.2,540.2L505.5,542.3L510.9,543.7L515.6,543.1L516.8,540.4L519.7,537.8L525.1,534.5L529.1,533.3L534.7,533.7L532.7,531.3L529.9,528.6L526.7,526.6L519.1,524.3L517.5,521.8L516.5,518.8L514.1,515.7L512.3,515.0L506.1,515.2L498.9,510.2L496.1,506.6L491.7,498.5L488.9,494.8L481.0,487.8L478.0,484.3L474.1,475.4L472.0,469.0L471.9,463.6L473.8,458.6L473.3,453.1L467.7,449.5L462.1,449.4L462.1,447.8L465.4,444.6L465.1,441.5L463.7,437.6L458.7,427.4L456.1,419.8L454.0,417.5L450.3,417.0L444.4,419.4L440.9,419.0L437.1,415.7L438.2,412.4L440.7,409.3L442.1,403.0L439.5,398.5L437.4,397.6L429.3,395.5L426.8,392.6L425.1,387.5L423.1,385.2L419.1,386.1L417.7,385.0L415.6,379.1L414.4,377.9L412.2,377.8L409.2,382.2L400.8,383.6L399.2,382.3L396.5,378.3L392.3,375.9L386.6,368.7L384.4,365.1L384.0,361.7L386.2,358.8L392.4,356.7L393.0,353.0L391.1,349.1L388.1,345.4L385.5,341.2L384.5,336.0L384.9,334.6L377.2,334.2L373.2,331.9L371.6,331.8L368.7,334.3L364.1,335.5L360.3,332.8L354.0,331.5L352.5,333.7L352.0,337.8L356.8,343.3L357.6,346.1Z " data-id="HR.ZD" data-name="Zadarska" id="HR.ZD"/>
utf-8utf-8<path d="M452.2,90.4L452.7,83.0L450.2,77.4L450.8,74.8L445.4,73.1L442.6,69.6L441.6,69.6L437.7,73.9L432.8,74.7L430.3,73.8L420.1,74.3L416.0,75.4L407.9,73.7L401.8,73.1L398.5,68.4L391.1,66.4L388.0,59.9L380.5,60.0L377.8,60.6L373.2,63.2L370.2,68.2L367.1,69.9L352.2,69.0L348.7,70.6L343.5,79.0L341.5,84.9L341.9,90.2L344.6,94.8L351.7,100.1L356.5,101.8L358.7,103.1L361.3,106.2L360.7,108.4L358.9,110.9L358.0,115.2L358.5,119.5L373.4,120.3L376.8,119.8L381.6,117.5L387.7,119.4L398.3,122.0L402.6,126.0L403.4,127.5L405.3,128.9L406.4,131.6L408.1,132.2L428.4,122.4L431.5,121.7L433.4,120.1L435.8,119.9L440.6,118.3L441.6,117.3L440.2,116.1L443.3,113.6L446.2,113.3L444.0,110.4L443.9,108.7L446.8,106.2L443.0,102.3L444.8,101.3L447.2,101.9L451.9,100.5L454.3,101.1L452.2,90.4Z " data-id="HR.KZ" data-name="Krapinsko-Zagorska" id="HR.KZ"/>
utf-8utf-8<path d="M386.6,213.2L383.3,212.9L379.8,209.1L376.2,206.3L375.8,205.3L377.8,201.7L376.0,197.3L374.5,198.9L372.2,198.8L370.2,197.7L362.3,195.8L355.9,192.4L351.5,192.0L350.4,192.5L347.6,196.3L346.4,196.4L339.9,192.8L335.5,186.5L329.6,184.0L325.0,180.4L323.6,178.5L320.2,177.0L313.9,178.0L311.0,181.1L308.7,182.3L309.0,182.7L313.1,188.4L309.7,188.4L305.4,190.1L300.5,191.5L298.1,195.5L296.1,196.4L297.7,200.4L302.0,212.8L304.7,216.3L313.5,221.2L306.1,227.8L300.6,227.7L291.4,230.7L293.1,237.5L291.6,243.5L286.0,248.8L286.0,251.9L284.5,253.9L278.1,257.0L276.2,260.3L273.3,258.3L260.0,253.0L254.4,256.5L251.0,264.4L254.1,271.2L253.8,275.3L254.4,286.0L252.3,288.3L252.9,290.0L259.6,295.4L279.6,299.3L285.3,299.0L290.9,295.0L294.4,298.9L299.7,303.5L323.2,315.6L324.5,316.9L328.3,323.4L331.3,326.5L334.9,328.8L339.5,336.7L341.8,337.5L347.7,337.9L350.6,341.3L357.6,346.1L356.8,343.3L352.0,337.8L352.5,333.7L354.0,331.5L360.3,332.8L364.1,335.5L368.7,334.3L371.6,331.8L373.2,331.9L377.2,334.2L384.9,334.6L385.5,332.4L389.2,326.1L389.6,322.4L387.1,316.1L386.9,312.3L390.2,303.4L390.6,300.2L389.1,287.9L389.1,286.3L390.7,281.8L392.3,280.4L388.5,278.3L383.3,278.3L378.6,277.9L375.8,279.5L364.6,277.4L362.7,271.5L365.0,267.8L367.4,265.6L366.4,263.0L366.7,250.8L369.2,248.9L366.3,243.1L367.1,237.8L364.3,235.1L364.3,234.4L367.4,233.0L374.9,234.4L376.1,235.9L379.8,235.9L386.4,239.6L387.7,239.5L392.6,236.8L392.4,234.8L394.3,230.7L393.7,229.0L394.7,224.6L391.8,220.8L388.8,212.7L386.6,213.2Z " data-id="HR.KA" data-name="Karlovacka" id="HR.KA"/>
utf-8utf-8<path d="M240.0,403.5L227.9,389.2L219.6,382.3L221.6,387.0L224.9,391.5L244.0,410.5L245.9,411.9L246.2,413.6L251.5,419.9L253.8,423.3L250.3,424.8L250.4,426.1L259.6,430.8L261.2,431.0L272.2,438.6L275.6,444.1L277.5,445.9L279.0,446.0L284.6,444.9L289.2,447.4L286.4,450.2L284.6,450.1L288.5,454.3L288.6,455.9L286.3,455.9L286.4,457.1L289.1,460.3L292.3,462.9L295.9,464.7L299.8,465.6L299.7,464.3L292.4,460.0L292.3,458.7L296.3,459.0L304.1,461.9L307.7,462.8L305.2,460.0L308.7,460.0L303.8,455.2L300.7,453.5L297.7,452.9L297.6,451.5L301.4,453.1L305.8,455.9L309.9,457.9L313.1,457.1L310.7,454.9L305.7,451.1L303.1,448.7L299.1,446.6L282.3,432.0L275.0,429.0L276.9,433.4L279.6,437.0L282.4,439.7L285.3,441.7L276.7,436.7L261.5,419.3L251.9,414.8L251.8,413.4L254.8,413.4L259.0,415.6L262.5,416.7L269.7,420.3L268.8,423.3L272.3,423.5L277.3,427.0L280.6,427.5L274.2,418.5L267.7,416.8L265.1,414.6L260.8,409.1L255.8,404.8L249.8,401.5L245.7,401.7L246.8,407.8L240.0,403.5Z M259.6,295.4L263.2,300.9L262.7,305.1L258.2,306.3L253.5,305.9L250.9,306.2L246.5,305.0L240.1,309.6L240.3,312.3L239.5,313.7L245.9,324.8L247.5,329.5L246.6,333.4L245.2,336.6L242.6,349.6L242.4,353.2L243.7,364.6L244.6,368.8L245.9,372.4L246.4,375.5L244.6,378.1L248.1,385.0L266.7,408.0L267.8,409.8L269.2,409.9L275.0,413.8L275.7,414.8L280.6,416.8L285.7,421.3L294.4,431.0L319.4,452.0L319.4,452.0L323.3,443.8L324.5,442.4L328.4,442.4L334.6,446.4L337.3,448.9L340.2,450.1L353.2,451.2L362.6,459.1L363.7,455.7L369.5,453.7L373.7,449.1L375.0,446.8L376.4,441.1L373.6,438.5L372.7,436.5L368.8,434.1L370.0,430.9L378.2,425.2L375.0,418.5L372.4,415.7L361.5,407.4L360.7,406.0L361.5,403.1L359.6,397.2L355.9,393.7L354.0,385.2L352.9,383.3L344.6,376.8L343.9,375.1L345.4,372.2L351.4,372.3L357.5,369.6L359.1,368.3L363.7,365.7L364.5,362.0L355.2,358.1L352.3,356.4L351.5,354.3L354.7,352.1L356.6,350.1L357.6,346.1L350.6,341.3L347.7,337.9L341.8,337.5L339.5,336.7L334.9,328.8L331.3,326.5L328.3,323.4L324.5,316.9L323.2,315.6L299.7,303.5L294.4,298.9L290.9,295.0L285.3,299.0L279.6,299.3L259.6,295.4Z " data-id="HR.LS" data-name="Licko-Senjska" id="HR.LS"/>
utf-8utf-8<path d="M142.8,401.0L139.8,394.8L140.3,391.3L142.6,390.9L143.4,387.6L140.9,387.2L137.5,390.9L136.0,398.2L137.3,399.5L142.8,401.0Z M166.4,403.4L165.2,401.4L162.2,390.8L163.0,385.9L160.1,383.2L155.7,381.5L152.2,379.5L152.6,383.0L155.4,392.2L160.3,398.8L161.7,402.9L158.9,406.2L158.8,409.1L162.9,410.7L164.6,409.9L165.7,407.8L168.9,409.0L171.6,410.9L176.8,416.2L171.9,414.8L172.0,416.2L174.5,417.6L180.5,424.1L185.3,427.8L189.1,427.5L187.5,423.4L172.9,410.6L166.4,403.4Z M220.8,352.9L218.3,351.3L215.0,351.0L216.4,354.0L209.4,352.6L217.0,362.6L212.2,359.6L213.5,363.9L211.6,363.0L205.4,362.6L212.9,369.5L219.9,369.7L222.2,371.0L219.6,366.8L225.4,370.5L234.2,378.7L239.2,382.3L240.6,379.4L238.9,375.3L233.6,368.2L231.6,366.6L227.4,364.5L220.3,358.8L218.9,356.8L221.4,355.0L220.8,352.9Z M171.6,330.5L171.7,326.9L170.3,324.4L168.2,323.5L164.3,323.0L156.3,312.9L152.7,305.4L151.3,301.7L150.6,296.7L150.6,288.4L149.1,286.0L144.9,284.7L141.9,285.4L139.6,287.4L138.0,290.2L136.4,294.6L136.8,297.6L138.5,300.1L148.1,309.5L149.2,311.2L155.2,323.7L157.9,327.3L161.5,330.0L160.3,331.4L157.9,329.2L157.8,331.3L159.5,335.7L159.0,338.6L153.4,339.9L151.8,339.0L148.5,335.0L143.1,332.7L141.6,333.3L143.4,337.1L142.4,339.9L146.0,343.0L149.5,355.3L152.4,358.1L154.2,358.2L156.2,367.6L158.2,371.8L159.6,371.0L162.0,372.3L162.2,381.4L168.6,391.9L176.8,399.4L183.6,399.7L186.9,396.5L185.6,393.7L183.5,394.9L183.1,390.8L180.7,387.5L177.8,384.6L175.3,381.3L174.0,376.8L174.1,374.3L175.0,371.7L170.6,362.6L173.0,361.3L172.5,357.9L169.8,351.8L168.8,345.0L168.8,342.1L170.1,338.5L168.8,337.1L170.4,334.2L171.6,330.5Z M182.8,269.4L180.4,269.6L178.1,271.9L179.7,272.3L180.8,277.5L179.0,279.3L180.2,284.0L179.9,285.8L177.2,290.2L178.9,293.1L176.2,294.3L169.9,294.5L168.4,295.4L168.6,299.2L168.0,300.1L163.1,301.2L161.9,303.0L164.4,306.4L168.3,310.2L172.8,313.2L177.1,314.4L190.7,316.2L195.1,315.9L192.7,314.4L192.6,313.0L195.5,311.6L196.5,313.3L196.6,320.7L197.0,324.0L197.8,325.5L202.8,327.2L211.4,332.0L214.3,332.7L219.8,331.6L220.4,330.3L218.0,328.5L217.9,327.2L220.1,325.7L224.2,327.4L229.2,325.7L226.3,319.9L215.6,311.8L215.2,305.9L207.7,305.8L204.7,305.0L202.4,303.0L201.0,298.6L202.5,291.4L201.3,287.6L197.7,288.6L192.4,288.1L189.7,286.6L194.1,284.7L191.5,280.1L186.5,273.4L186.1,271.9L188.4,271.9L182.8,269.4Z M104.5,223.1L105.4,227.7L108.7,231.1L118.0,235.7L120.0,237.4L119.3,241.2L122.3,253.2L120.0,260.6L120.3,264.1L122.4,275.6L123.2,285.5L128.8,289.1L128.8,289.1L130.6,282.5L131.4,268.1L133.1,261.0L135.9,254.7L139.0,249.8L141.9,247.8L144.7,248.3L147.8,249.7L154.4,251.0L173.2,259.0L178.9,262.3L180.3,261.4L177.0,256.3L183.4,260.3L185.4,262.0L183.3,263.9L184.7,266.8L187.7,269.3L190.2,270.5L199.5,280.4L218.6,292.6L229.3,297.5L232.0,299.2L233.9,301.7L234.7,305.2L239.5,313.7L240.3,312.3L240.1,309.6L246.5,305.0L250.9,306.2L253.5,305.9L258.2,306.3L262.7,305.1L263.2,300.9L259.6,295.4L252.9,290.0L252.3,288.3L254.4,286.0L253.8,275.3L254.1,271.2L251.0,264.4L254.4,256.5L260.0,253.0L273.3,258.3L276.2,260.3L278.1,257.0L284.5,253.9L286.0,251.9L286.0,248.8L291.6,243.5L293.1,237.5L291.4,230.7L284.6,232.9L277.0,232.0L262.2,221.7L254.0,221.5L252.3,220.2L246.3,218.9L243.2,216.6L239.3,214.4L236.2,214.5L235.9,218.9L233.0,223.8L226.0,226.0L218.9,224.7L199.8,213.0L196.3,210.5L196.5,205.7L196.0,204.1L186.5,198.0L184.2,196.0L182.5,193.4L181.5,183.6L179.6,182.7L175.6,185.0L173.8,189.2L172.1,191.5L168.2,195.6L166.8,197.6L164.8,208.7L162.8,212.2L156.5,216.4L153.6,218.9L147.4,222.1L139.7,222.7L131.8,221.4L124.9,218.9L121.2,218.1L117.0,219.2L109.2,222.4L104.9,223.1L104.5,223.1Z " data-id="HR.PG" data-name="Primorsko-Goranska" id="HR.PG"/>
utf-8utf-8<path d="M491.9,155.2L488.7,150.6L486.4,152.8L479.6,152.8L480.4,157.5L479.5,161.7L479.2,165.9L478.1,167.0L475.0,167.9L470.3,166.0L468.7,166.8L466.2,170.3L465.8,173.7L467.4,179.2L466.9,181.9L468.2,188.0L465.5,194.1L463.4,195.9L459.0,197.5L452.0,194.0L450.2,193.8L447.4,190.8L441.7,190.6L439.1,193.3L431.8,197.3L428.1,197.0L426.9,199.0L427.1,200.1L431.0,202.8L432.6,206.4L435.6,208.4L439.1,216.2L433.1,217.6L428.8,222.5L425.1,220.5L423.4,220.4L419.7,222.6L417.3,223.2L410.2,222.7L408.7,220.8L408.5,216.9L407.5,215.2L397.9,210.3L397.1,207.7L392.9,208.0L388.8,212.7L391.8,220.8L394.7,224.6L393.7,229.0L394.3,230.7L392.4,234.8L392.6,236.8L387.7,239.5L386.4,239.6L379.8,235.9L376.1,235.9L374.9,234.4L367.4,233.0L364.3,234.4L364.3,235.1L367.1,237.8L366.3,243.1L369.2,248.9L366.7,250.8L366.4,263.0L367.4,265.6L365.0,267.8L362.7,271.5L364.6,277.4L375.8,279.5L378.6,277.9L383.3,278.3L388.5,278.3L392.3,280.4L395.8,277.4L404.8,276.1L428.7,276.8L430.3,278.6L429.8,282.9L431.4,283.9L435.1,284.5L437.3,285.9L440.2,289.7L444.4,297.7L447.6,301.1L464.1,314.5L469.1,317.1L475.7,319.5L482.0,320.8L486.1,319.8L488.1,311.0L491.7,303.7L491.3,298.8L493.9,295.9L498.2,294.7L499.9,293.5L502.0,290.4L506.7,279.8L514.2,275.1L524.0,275.3L558.3,284.0L562.5,283.5L564.5,281.9L564.3,278.6L565.1,276.1L570.1,273.0L570.8,270.7L572.1,269.9L575.4,265.6L579.7,262.2L581.2,263.3L583.3,271.1L584.4,272.3L587.9,271.9L586.5,269.1L589.0,269.9L593.1,273.2L594.5,270.5L595.6,274.6L595.0,276.3L599.5,273.4L603.3,279.6L610.9,284.3L615.4,286.1L612.6,281.1L607.4,276.3L608.3,273.1L615.6,266.6L617.3,263.6L624.8,261.3L625.8,260.6L625.3,258.9L621.9,256.0L623.6,252.6L621.8,249.0L615.7,250.3L601.3,242.8L599.4,241.4L598.9,239.1L600.7,234.7L599.7,233.0L594.0,234.4L589.5,229.2L583.6,226.8L577.2,222.5L574.5,224.0L573.7,224.2L571.4,221.6L566.8,221.3L562.6,219.8L561.3,218.7L563.5,215.4L566.3,212.8L560.5,205.6L558.0,204.5L554.5,200.4L551.7,194.9L549.8,193.4L545.8,193.0L540.0,189.1L528.2,184.4L524.7,183.7L521.6,183.8L516.2,179.2L512.2,176.6L506.6,174.7L504.6,173.5L501.3,172.4L501.1,171.5L502.4,166.1L502.3,164.8L499.7,162.5L491.9,155.2Z " data-id="HR.SM" data-name="Sisacko-Moslavacka" id="HR.SM"/>
utf-8utf-8<path d="M451.9,100.5L447.2,101.9L444.8,101.3L443.0,102.3L446.8,106.2L443.9,108.7L444.0,110.4L446.2,113.3L443.3,113.6L440.2,116.1L441.6,117.3L440.6,118.3L435.8,119.9L440.9,127.6L444.7,134.7L451.4,142.0L452.6,145.5L449.7,151.0L447.3,157.3L444.3,156.3L438.8,153.6L431.2,160.9L411.5,172.5L408.4,177.3L408.0,187.9L405.4,192.1L397.0,184.9L386.3,180.8L381.4,177.8L378.6,173.9L380.2,168.1L385.6,170.9L388.5,164.6L384.8,160.3L389.9,153.3L385.4,148.4L383.2,146.8L377.1,146.8L375.7,145.7L376.3,142.6L384.1,137.6L383.2,132.4L383.8,131.7L390.6,131.3L399.2,129.6L403.4,127.5L402.6,126.0L398.3,122.0L387.7,119.4L381.6,117.5L376.8,119.8L373.4,120.3L358.5,119.5L359.3,125.8L359.3,129.3L357.2,136.8L358.1,139.5L360.4,143.7L360.7,146.6L359.2,148.7L355.9,150.3L352.7,151.1L346.2,151.3L335.3,149.7L330.8,152.7L329.2,153.2L323.4,152.1L321.6,152.9L321.0,154.9L322.2,159.0L304.2,165.2L299.7,166.5L293.2,169.7L291.9,171.2L291.5,174.5L294.4,176.4L298.8,181.1L301.1,181.8L305.8,179.6L308.7,182.3L311.0,181.1L313.9,178.0L320.2,177.0L323.6,178.5L325.0,180.4L329.6,184.0L335.5,186.5L339.9,192.8L346.4,196.4L347.6,196.3L350.4,192.5L351.5,192.0L355.9,192.4L362.3,195.8L370.2,197.7L372.2,198.8L374.5,198.9L376.0,197.3L377.8,201.7L375.8,205.3L376.2,206.3L379.8,209.1L383.3,212.9L386.6,213.2L388.8,212.7L392.9,208.0L397.1,207.7L397.9,210.3L407.5,215.2L408.5,216.9L408.7,220.8L410.2,222.7L417.3,223.2L419.7,222.6L423.4,220.4L425.1,220.5L428.8,222.5L433.1,217.6L439.1,216.2L435.6,208.4L432.6,206.4L431.0,202.8L427.1,200.1L426.9,199.0L428.1,197.0L431.8,197.3L439.1,193.3L441.7,190.6L447.4,190.8L450.2,193.8L452.0,194.0L459.0,197.5L463.4,195.9L465.5,194.1L468.2,188.0L466.9,181.9L467.4,179.2L465.8,173.7L466.2,170.3L468.7,166.8L470.3,166.0L475.0,167.9L478.1,167.0L479.2,165.9L479.5,161.7L480.4,157.5L479.6,152.8L486.4,152.8L488.7,150.6L491.9,155.2L499.7,162.5L502.2,161.0L503.8,158.3L505.2,157.7L509.9,157.6L515.6,159.5L516.9,158.0L516.2,151.7L519.4,146.6L522.0,146.8L521.7,149.8L523.6,151.1L528.4,149.9L530.6,147.2L531.2,144.1L529.8,131.7L529.8,129.5L527.3,128.5L521.2,130.5L515.6,129.2L512.3,126.6L504.6,122.7L500.0,118.8L498.4,118.4L496.2,121.2L491.8,122.3L489.7,116.4L486.7,112.9L484.9,112.1L472.3,108.6L467.2,109.6L462.6,111.1L461.5,111.1L457.2,104.8L454.3,101.1L451.9,100.5Z " data-id="HR.ZG" data-name="Zagrebacka" id="HR.ZG"/>
utf-8utf-8<path d="M399.2,129.6L390.6,131.3L383.8,131.7L383.2,132.4L384.1,137.6L376.3,142.6L375.7,145.7L377.1,146.8L383.2,146.8L385.4,148.4L389.9,153.3L384.8,160.3L388.5,164.6L385.6,170.9L380.2,168.1L378.6,173.9L381.4,177.8L386.3,180.8L397.0,184.9L405.4,192.1L408.0,187.9L408.4,177.3L411.5,172.5L431.2,160.9L438.8,153.6L444.3,156.3L447.3,157.3L449.7,151.0L452.6,145.5L451.4,142.0L444.7,134.7L440.9,127.6L435.8,119.9L433.4,120.1L431.5,121.7L428.4,122.4L408.1,132.2L406.4,131.6L405.3,128.9L403.4,127.5L399.2,129.6Z " data-id="HR.GZ" data-name="Grad Zagreb" id="HR.GZ"/>
utf-8utf-8<path d="M128.8,289.1L123.2,285.5L122.4,275.6L120.3,264.1L120.0,260.6L122.3,253.2L119.3,241.2L120.0,237.4L118.0,235.7L108.7,231.1L105.4,227.7L104.5,223.1L104.4,223.1L100.4,222.9L95.9,221.6L89.1,217.0L86.6,215.9L79.4,214.6L78.3,215.2L78.0,218.9L81.8,222.6L79.8,225.2L72.2,228.1L66.8,233.3L57.7,232.2L55.0,231.5L52.7,229.5L44.4,225.2L22.6,226.0L15.5,219.8L12.0,219.4L1.3,215.1L0.6,217.8L1.3,220.9L4.4,226.4L3.4,230.7L9.3,243.2L11.4,245.0L11.5,246.3L9.1,247.2L9.4,249.4L11.1,251.9L13.1,253.5L19.2,253.9L21.2,254.8L15.7,257.6L16.4,259.2L20.5,262.0L20.6,263.3L18.8,263.3L16.2,266.2L18.5,267.3L19.8,269.1L20.0,271.3L19.0,273.3L20.0,275.4L18.2,279.1L18.3,280.4L20.5,283.3L19.8,284.7L21.6,285.6L21.3,290.9L22.2,292.6L24.2,292.7L28.3,291.6L36.1,291.4L40.1,291.8L43.4,293.2L28.7,294.1L24.5,296.6L28.9,301.7L26.9,305.9L30.4,306.4L37.1,311.4L46.5,322.1L53.9,328.5L58.2,336.5L60.3,338.5L58.2,341.4L58.3,342.7L60.2,344.7L61.9,345.1L66.4,344.1L65.2,347.2L62.9,348.3L60.4,347.7L58.5,345.5L57.3,346.8L59.5,349.0L62.4,350.6L65.1,351.4L66.9,351.0L68.2,352.6L67.1,354.0L70.3,357.0L76.7,359.6L77.6,366.0L78.3,368.0L80.7,366.8L78.2,362.6L78.9,360.5L74.2,356.8L75.3,355.4L76.9,356.3L80.2,356.3L81.4,359.6L82.5,358.1L85.0,359.5L88.0,359.9L94.1,359.6L91.1,356.7L89.3,356.8L89.8,355.1L89.0,352.6L90.3,350.0L92.2,348.4L92.0,345.5L88.2,341.4L90.9,341.5L94.6,340.6L96.3,341.4L96.4,337.4L98.4,337.1L99.0,335.1L97.9,330.0L98.9,330.0L104.5,324.4L103.6,322.4L98.9,320.7L98.1,319.1L98.5,315.4L97.7,313.0L99.7,313.2L100.4,317.2L104.2,320.0L105.8,323.8L104.0,327.4L103.8,331.4L104.9,331.4L108.9,326.3L110.9,325.7L115.5,326.9L117.3,325.7L119.1,321.9L119.2,317.1L117.8,312.7L115.0,310.0L114.9,308.7L117.4,310.0L116.4,306.1L116.9,303.0L118.0,304.5L120.6,302.1L122.5,299.2L122.7,296.1L119.8,293.2L124.9,294.9L128.7,289.4L128.8,289.1Z " data-id="HR.IS" data-name="Istarska" id="HR.IS"/>
utf-8utf-8<path d="M747.0,261.3L742.6,262.9L741.4,264.8L743.0,267.4L742.6,268.3L735.7,274.6L726.8,275.7L725.4,277.0L724.7,281.3L723.0,282.2L719.7,282.6L713.4,281.0L714.7,276.2L712.2,272.9L708.6,266.4L705.0,265.5L697.4,265.9L694.6,265.5L689.7,263.8L685.1,261.3L681.8,259.1L675.0,252.5L672.0,250.0L656.6,240.9L650.3,241.0L642.1,244.3L639.8,244.5L633.0,242.3L628.8,243.7L621.8,249.0L623.6,252.6L621.9,256.0L625.3,258.9L625.8,260.6L624.8,261.3L617.3,263.6L615.6,266.6L608.3,273.1L607.4,276.3L612.6,281.1L615.4,286.1L626.3,290.3L628.0,289.4L636.0,288.9L639.4,281.8L646.2,285.6L649.5,286.7L659.4,292.1L662.4,291.9L667.9,290.3L669.2,287.5L671.7,289.6L670.5,293.2L674.6,293.6L678.5,291.7L677.8,297.0L686.2,296.0L691.7,296.1L695.0,294.2L700.8,288.5L704.3,286.8L709.9,287.1L715.1,289.6L720.0,293.5L730.3,304.1L733.6,306.5L737.1,307.7L738.8,307.5L743.6,305.7L748.1,304.9L752.1,302.0L761.4,291.3L763.8,290.1L766.5,290.1L769.3,291.4L779.2,298.7L783.1,300.2L790.1,300.8L793.6,300.2L796.4,298.6L797.4,296.4L797.4,291.2L799.1,289.2L803.2,288.5L807.4,289.9L815.4,294.6L818.0,295.6L830.0,296.5L833.3,297.8L836.4,299.9L843.2,305.7L845.9,307.2L852.1,309.5L856.2,309.6L854.5,304.2L854.5,302.7L850.1,297.5L848.1,292.2L849.1,285.2L852.9,281.0L844.1,277.3L822.7,270.9L816.5,270.1L810.0,271.0L806.9,273.8L804.8,274.6L799.6,274.9L795.7,274.4L784.1,270.8L781.7,269.2L774.8,264.9L747.0,261.3Z " data-id="HR.SP" data-name="Brodsko-Posavska" id="HR.SP"/>
utf-8utf-8<path d="M735.8,156.9L739.3,164.4L744.0,171.0L748.8,171.9L752.2,174.5L753.8,176.9L755.3,181.3L758.5,183.5L767.8,188.0L768.4,190.5L780.1,192.6L790.0,197.3L793.1,201.4L790.9,204.3L788.6,205.1L788.2,206.5L788.9,210.2L792.1,212.0L793.7,214.1L796.2,215.2L803.3,215.1L806.8,218.2L818.3,218.7L820.1,218.1L820.8,213.1L822.0,212.7L828.7,216.6L831.9,222.2L829.8,223.2L814.3,226.7L810.0,225.4L807.0,226.2L798.2,232.8L793.8,233.8L789.6,233.8L785.9,235.7L776.4,246.3L775.2,246.5L772.4,249.0L775.6,250.9L777.1,253.2L778.7,258.5L774.8,264.9L781.7,269.2L784.1,270.8L795.7,274.4L799.6,274.9L804.8,274.6L806.9,273.8L810.0,271.0L816.5,270.1L822.7,270.9L844.1,277.3L852.9,281.0L854.2,281.6L856.5,280.6L857.5,274.1L855.8,271.4L846.6,268.2L846.5,262.3L847.9,259.5L849.6,258.8L856.8,257.9L859.4,255.1L866.5,254.5L866.6,249.7L868.3,248.0L869.0,240.0L870.0,239.2L878.5,234.9L890.8,235.4L892.2,234.5L893.1,231.1L892.8,229.6L890.3,226.8L890.5,225.3L898.6,223.3L902.0,221.4L904.0,221.5L908.0,223.5L910.6,227.0L913.6,228.9L916.8,231.9L924.0,230.9L928.0,228.2L926.3,226.8L924.9,223.0L926.6,217.8L938.1,219.3L942.6,215.1L940.4,212.1L932.8,209.5L931.0,208.2L928.3,204.5L926.7,203.6L921.1,206.2L917.5,209.4L914.4,209.5L912.7,208.1L908.9,203.4L907.4,202.4L907.9,192.8L911.5,189.9L915.6,184.3L916.4,182.5L915.2,179.6L907.1,174.7L905.4,172.0L904.2,165.7L903.1,162.6L893.6,153.3L892.8,152.0L893.8,149.0L893.8,143.4L901.2,142.5L902.2,141.2L899.7,137.9L896.0,135.5L901.3,131.3L900.1,128.0L897.6,128.2L888.3,133.3L884.2,131.7L879.9,138.1L877.8,137.9L870.9,134.9L862.4,132.4L859.3,133.0L855.3,137.3L855.0,139.8L852.2,143.5L849.1,149.7L847.3,151.8L840.5,157.2L836.3,158.6L832.4,157.1L829.8,158.7L824.5,164.9L819.2,167.5L818.0,167.4L813.8,164.0L811.1,163.9L805.6,166.2L802.7,165.3L799.5,162.6L795.7,162.5L790.3,159.2L787.1,158.3L773.3,158.3L765.4,161.2L747.4,156.9L735.8,156.9Z " data-id="HR.OB" data-name="Osjecko-Baranjska" id="HR.OB"/>
utf-8utf-8<path d="M778.7,258.5L777.1,253.2L775.6,250.9L772.4,249.0L775.2,246.5L776.4,246.3L785.9,235.7L789.6,233.8L793.8,233.8L798.2,232.8L807.0,226.2L810.0,225.4L814.3,226.7L829.8,223.2L831.9,222.2L828.7,216.6L822.0,212.7L820.8,213.1L820.1,218.1L818.3,218.7L806.8,218.2L803.3,215.1L796.2,215.2L793.7,214.1L792.1,212.0L788.9,210.2L788.2,206.5L788.6,205.1L790.9,204.3L793.1,201.4L790.0,197.3L780.1,192.6L768.4,190.5L764.3,191.9L749.9,208.6L747.9,214.2L744.5,219.1L739.0,222.9L732.3,222.8L723.6,223.5L718.2,218.9L710.8,218.1L707.5,216.9L697.8,214.3L686.4,207.4L674.3,201.7L672.5,205.8L671.2,206.0L666.9,203.2L659.8,202.0L661.4,203.9L661.9,206.6L660.4,212.7L657.6,215.3L653.1,215.5L647.2,214.1L644.8,213.9L627.9,216.3L624.3,215.2L619.3,211.7L615.3,214.1L600.5,216.6L598.3,216.0L591.4,216.6L582.0,212.3L581.2,208.6L578.5,207.8L576.7,213.8L576.6,220.9L577.2,222.5L583.6,226.8L589.5,229.2L594.0,234.4L599.7,233.0L600.7,234.7L598.9,239.1L599.4,241.4L601.3,242.8L615.7,250.3L621.8,249.0L628.8,243.7L633.0,242.3L639.8,244.5L642.1,244.3L650.3,241.0L656.6,240.9L672.0,250.0L675.0,252.5L681.8,259.1L685.1,261.3L689.7,263.8L694.6,265.5L697.4,265.9L705.0,265.5L708.6,266.4L712.2,272.9L714.7,276.2L713.4,281.0L719.7,282.6L723.0,282.2L724.7,281.3L725.4,277.0L726.8,275.7L735.7,274.6L742.6,268.3L743.0,267.4L741.4,264.8L742.6,262.9L747.0,261.3L774.8,264.9L778.7,258.5Z " data-id="HR.SP" data-name="Brodsko-Posavska" id="HR.SP"/>
utf-8utf-8<path d="M852.9,281.0L849.1,285.2L848.1,292.2L850.1,297.5L854.5,302.7L854.5,302.3L858.2,301.5L861.0,302.1L865.7,300.5L868.9,301.8L872.7,307.5L875.7,307.3L877.5,303.1L880.6,304.4L887.9,315.6L890.2,317.7L892.2,318.5L898.9,319.8L902.1,326.4L901.8,328.5L898.4,330.9L897.3,332.9L899.7,338.8L906.0,344.2L913.3,348.2L918.6,349.7L938.0,349.2L939.8,348.8L935.6,342.7L934.8,338.6L939.1,336.4L941.5,337.0L945.2,340.2L947.6,340.5L951.0,337.7L953.2,333.8L956.6,332.2L957.7,330.7L956.7,327.5L955.0,326.1L951.7,327.2L949.7,325.7L949.2,323.6L950.3,316.7L946.1,301.5L944.6,298.9L939.9,294.5L939.5,292.6L941.9,290.7L951.4,291.5L955.0,290.8L955.3,287.5L952.8,283.6L951.3,280.5L955.0,279.8L957.1,280.7L960.6,284.7L962.6,286.3L965.9,287.3L969.5,287.5L976.5,286.7L979.4,283.9L982.6,286.6L997.1,286.0L999.4,283.9L999.4,279.0L997.2,274.8L993.8,273.5L991.0,269.7L956.4,262.1L949.9,259.3L945.1,254.8L943.3,248.6L941.6,247.8L934.7,247.8L931.3,247.1L928.2,245.3L925.4,242.5L922.9,239.3L931.5,235.7L932.8,233.6L931.6,231.2L928.0,228.2L924.0,230.9L916.8,231.9L913.6,228.9L910.6,227.0L908.0,223.5L904.0,221.5L902.0,221.4L898.6,223.3L890.5,225.3L890.3,226.8L892.8,229.6L893.1,231.1L892.2,234.5L890.8,235.4L878.5,234.9L870.0,239.2L869.0,240.0L868.3,248.0L866.6,249.7L866.5,254.5L859.4,255.1L856.8,257.9L849.6,258.8L847.9,259.5L846.5,262.3L846.6,268.2L855.8,271.4L857.5,274.1L856.5,280.6L854.2,281.6L852.9,281.0Z " data-id="HR.VS" data-name="Vukovarsko-Srijemska" id="HR.VS"/>
utf-8utf-8<path d="M631.8,117.9L628.9,118.4L620.0,117.2L616.7,117.7L612.0,121.0L607.7,127.5L604.2,131.2L604.8,133.7L604.4,136.9L605.9,140.7L630.0,154.6L630.6,158.9L631.4,160.0L635.5,162.7L638.7,165.6L643.6,164.7L645.2,165.6L646.2,169.4L645.5,170.9L646.5,173.2L649.9,175.5L651.9,175.5L655.9,172.3L659.1,172.6L667.6,177.5L668.3,181.2L658.5,198.4L659.8,202.0L666.9,203.2L671.2,206.0L672.5,205.8L674.3,201.7L686.4,207.4L697.8,214.3L707.5,216.9L710.8,218.1L718.2,218.9L723.6,223.5L732.3,222.8L739.0,222.9L744.5,219.1L747.9,214.2L749.9,208.6L764.3,191.9L768.4,190.5L767.8,188.0L758.5,183.5L755.3,181.3L753.8,176.9L752.2,174.5L748.8,171.9L744.0,171.0L739.3,164.4L735.8,156.9L733.0,156.9L730.0,160.8L728.0,160.3L724.2,155.4L719.1,152.3L698.1,146.9L694.3,146.6L692.9,145.9L688.9,134.3L680.3,127.0L673.9,124.6L666.7,123.3L652.3,122.7L649.1,125.5L647.8,122.1L645.9,121.4L642.1,122.7L638.7,123.0L637.0,116.9L635.4,119.6L633.6,119.2L631.8,117.9Z " data-id="HR.VP" data-name="Viroviticko-Podravska" id="HR.VP"/>
utf-8utf-8<path d="M599.6,135.9L595.1,132.5L589.7,127.3L585.1,127.5L582.4,129.2L580.7,128.9L579.9,127.3L579.8,121.9L577.9,119.9L574.7,118.2L567.6,115.1L565.1,113.6L563.9,111.9L565.4,106.9L559.0,102.6L556.2,97.7L551.7,96.9L549.1,102.1L545.9,104.2L541.5,101.6L535.9,104.3L532.7,109.9L531.6,113.5L529.6,117.7L529.3,120.8L529.8,129.5L529.8,131.7L531.2,144.1L530.6,147.2L528.4,149.9L523.6,151.1L521.7,149.8L522.0,146.8L519.4,146.6L516.2,151.7L516.9,158.0L515.6,159.5L509.9,157.6L505.2,157.7L503.8,158.3L502.2,161.0L499.7,162.5L502.3,164.8L502.4,166.1L501.1,171.5L501.3,172.4L504.6,173.5L506.6,174.7L512.2,176.6L516.2,179.2L521.6,183.8L524.7,183.7L528.2,184.4L540.0,189.1L545.8,193.0L549.8,193.4L551.7,194.9L554.5,200.4L558.0,204.5L560.5,205.6L566.3,212.8L563.5,215.4L561.3,218.7L562.6,219.8L566.8,221.3L571.4,221.6L573.7,224.2L574.5,224.0L577.2,222.5L576.6,220.9L576.7,213.8L578.5,207.8L581.2,208.6L582.0,212.3L591.4,216.6L598.3,216.0L600.5,216.6L615.3,214.1L619.3,211.7L624.3,215.2L627.9,216.3L644.8,213.9L647.2,214.1L653.1,215.5L657.6,215.3L660.4,212.7L661.9,206.6L661.4,203.9L659.8,202.0L658.5,198.4L668.3,181.2L667.6,177.5L659.1,172.6L655.9,172.3L651.9,175.5L649.9,175.5L646.5,173.2L645.5,170.9L646.2,169.4L645.2,165.6L643.6,164.7L638.7,165.6L635.5,162.7L631.4,160.0L630.6,158.9L630.0,154.6L605.9,140.7L599.6,135.9Z " data-id="HR.BB" data-name="Bjelovarska-Bilogorska" id="HR.BB"/>
utf-8utf-8<path d="M550.2,37.9L548.3,44.8L544.1,54.6L543.1,55.4L537.8,50.9L532.1,50.2L534.5,52.4L536.9,54.0L537.3,56.7L535.2,62.4L531.3,66.5L525.4,70.1L520.3,72.0L517.6,69.5L514.8,69.7L508.9,71.5L493.5,80.1L489.4,84.8L483.7,85.3L481.7,83.6L474.5,87.8L472.1,87.6L469.0,88.3L468.5,90.9L470.7,97.4L470.9,105.0L472.3,108.6L484.9,112.1L486.7,112.9L489.7,116.4L491.8,122.3L496.2,121.2L498.4,118.4L500.0,118.8L504.6,122.7L512.3,126.6L515.6,129.2L521.2,130.5L527.3,128.5L529.8,129.5L529.3,120.8L529.6,117.7L531.6,113.5L532.7,109.9L535.9,104.3L541.5,101.6L545.9,104.2L549.1,102.1L551.7,96.9L556.2,97.7L559.0,102.6L565.4,106.9L563.9,111.9L565.1,113.6L567.6,115.1L574.7,118.2L577.9,119.9L579.8,121.9L579.9,127.3L580.7,128.9L582.4,129.2L585.1,127.5L589.7,127.3L595.1,132.5L599.6,135.9L605.9,140.7L604.4,136.9L604.8,133.7L604.2,131.2L607.7,127.5L612.0,121.0L616.7,117.7L620.0,117.2L628.9,118.4L631.8,117.9L631.5,117.7L629.0,116.9L628.8,115.5L633.2,114.2L631.5,112.4L626.1,111.3L621.4,99.0L620.3,97.1L613.0,89.5L611.0,88.6L597.4,88.2L594.8,87.1L586.3,81.9L584.1,80.0L581.6,76.2L572.2,70.0L570.4,68.1L565.7,61.5L556.4,53.0L552.9,45.7L553.2,42.5L551.3,39.1L550.2,37.9Z " data-id="HR.KK" data-name="Koprivničko-Križevačka" id="HR.KK"/>
utf-8utf-8<path d="M453.0,35.0L456.2,36.8L459.6,37.1L465.9,45.9L467.6,47.2L488.4,51.0L493.8,51.1L505.2,47.9L527.9,49.0L532.1,50.2L537.8,50.9L543.1,55.4L544.1,54.6L548.3,44.8L550.2,37.9L548.5,36.2L546.2,34.4L544.7,36.0L540.4,32.9L534.6,31.4L533.6,34.4L532.4,34.4L530.1,30.7L524.8,28.0L521.3,24.4L518.3,20.5L515.0,17.2L511.2,15.1L502.8,14.0L502.3,15.9L486.0,6.6L476.0,4.9L471.4,1.6L465.3,1.3L463.2,0.0L458.8,2.4L455.6,3.3L448.1,6.5L443.6,11.2L444.5,17.0L446.9,22.8L447.2,27.8L447.7,29.5L452.7,33.2L453.0,35.0Z " data-id="HR.ME" data-name="Medimurska" id="HR.ME"/>
utf-8utf-8<path d="M453.1,35.5L452.4,36.2L448.6,36.1L438.4,36.9L436.0,35.7L431.7,32.4L428.0,32.0L424.0,36.1L415.9,35.3L417.0,44.7L413.9,49.6L410.8,51.6L404.7,53.8L399.2,54.7L388.3,59.8L388.0,59.9L391.1,66.4L398.5,68.4L401.8,73.1L407.9,73.7L416.0,75.4L420.1,74.3L430.3,73.8L432.8,74.7L437.7,73.9L441.6,69.6L442.6,69.6L445.4,73.1L450.8,74.8L450.2,77.4L452.7,83.0L452.2,90.4L454.3,101.1L457.2,104.8L461.5,111.1L462.6,111.1L467.2,109.6L472.3,108.6L470.9,105.0L470.7,97.4L468.5,90.9L469.0,88.3L472.1,87.6L474.5,87.8L481.7,83.6L483.7,85.3L489.4,84.8L493.5,80.1L508.9,71.5L514.8,69.7L517.6,69.5L520.3,72.0L525.4,70.1L531.3,66.5L535.2,62.4L537.3,56.7L536.9,54.0L534.5,52.4L532.1,50.2L527.9,49.0L505.2,47.9L493.8,51.1L488.4,51.0L467.6,47.2L465.9,45.9L459.6,37.1L456.2,36.8L453.0,35.0L453.1,35.5Z " data-id="HR.VA" data-name="Varaždinska" id="HR.VA"/>
utf-8</g>
</svg>
