<?xml version="1.0" ?>
<!DOCTYPE svg
  PUBLIC '-//W3C//DTD SVG 1.1//EN'
  'http://www.w3.org/Graphics/SVG/1.1/DTD/svg11.dtd'>
<svg enable_background="new 0 0 1000 750" height="750px" pretty_print="True" style="stroke-linejoin: round; stroke:#000; fill: none;" version="1.1" viewBox="0 0 1000 750" width="1000px" xmlns="http://www.w3.org/2000/svg" xmlns:xlink="http://www.w3.org/1999/xlink">
utf-8<defs>
utf-8utf-8<style type="text/css">
<![CDATA[path { fill-rule: evenodd; }]]>utf-8utf-8</style>
utf-8</defs>
utf-8<metadata>
utf-8utf-8<views>
utf-8utf-8utf-8<view h="750.513635146" padding="0" w="1000">
utf-8utf-8utf-8utf-8<proj flip="auto" id="robinson" lon0="-74.0981602542"/>
utf-8utf-8utf-8utf-8<bbox h="32.19" w="42.94" x="-1086.61" y="-334.46"/>
utf-8utf-8utf-8</view>
utf-8utf-8</views>
utf-8</metadata>
utf-8<g class="" id="provinces">
utf-8utf-8<path d="M270.6,524.2L271.4,515.5L263.4,510.3L252.5,509.3L243.9,513.5L243.5,523.9L251.4,529.2L262.2,529.3L270.6,524.2Z M10.2,617.9L11.6,617.2L19.8,616.3L29.0,618.2L48.0,616.2L67.0,611.9L101.9,604.2L136.6,601.2L150.5,605.1L164.1,610.3L179.7,615.3L195.7,616.8L196.1,607.5L201.6,599.8L217.3,599.6L228.5,596.4L239.7,593.0L247.4,578.0L256.0,568.7L250.7,565.8L249.6,560.3L256.3,553.0L259.8,546.6L258.8,547.3L256.6,548.4L253.6,548.3L249.6,546.1L246.3,545.4L241.4,548.6L237.9,548.4L235.9,547.0L229.3,540.1L225.5,538.2L222.0,537.5L206.8,536.8L202.6,535.1L193.4,529.5L191.2,529.7L186.8,531.3L186.4,528.3L183.4,524.2L164.0,523.2L122.0,501.6L108.8,498.4L89.9,497.2L85.9,497.5L82.0,498.7L78.2,504.6L74.7,504.7L67.1,502.6L60.6,503.8L44.8,510.5L32.5,517.8L29.5,521.5L29.9,525.6L30.9,528.6L31.7,533.5L31.8,538.1L30.7,540.1L25.2,544.1L19.3,562.2L12.5,567.0L14.5,572.3L0.7,591.2L8.2,603.4L9.8,608.8L9.8,616.4L10.2,617.9Z " data-id="HT.GR" data-name="Grand'Anse" id="HT.GR"/>
utf-8utf-8<path d="M479.3,581.5L473.7,581.1L468.7,579.0L462.9,575.0L451.4,570.1L438.3,568.8L411.0,569.9L403.6,568.2L390.9,560.7L384.2,559.0L331.1,554.5L316.3,556.5L303.6,564.3L298.5,561.4L287.6,563.1L281.9,560.2L280.7,557.2L281.1,551.9L275.6,550.4L270.4,547.1L268.3,545.4L276.0,542.6L282.6,541.8L289.1,542.8L296.1,545.4L296.4,543.0L305.2,544.5L312.6,539.5L313.1,532.8L301.4,529.5L296.9,530.2L281.0,535.0L272.9,535.0L270.4,536.3L263.5,543.8L259.8,546.6L256.3,553.0L249.6,560.3L250.7,565.8L256.0,568.7L247.4,578.0L239.7,593.0L250.5,594.7L261.8,594.1L268.2,597.9L273.7,599.9L282.2,592.9L293.3,591.2L302.4,592.1L307.8,597.7L312.0,604.3L319.1,608.5L315.3,615.2L311.1,623.6L327.8,628.4L349.8,624.6L360.6,623.5L371.3,623.9L383.8,620.4L394.9,615.7L412.3,618.3L430.3,618.0L447.5,620.2L455.5,617.7L463.5,620.2L475.1,631.6L484.8,642.6L485.8,659.6L493.1,672.5L493.3,663.9L494.2,655.4L499.7,644.3L502.2,632.8L497.7,625.5L496.2,616.0L491.0,609.5L482.6,609.1L482.9,598.7L489.2,588.9L489.5,584.2L488.1,579.9L479.3,581.5Z " data-id="HT.NI" data-name="Nippes" id="HT.NI"/>
utf-8utf-8<path d="M514.8,123.4L514.6,122.4L519.6,101.1L537.5,82.8L550.7,81.4L564.0,85.1L577.8,86.3L591.3,89.1L617.4,84.2L640.5,64.6L647.9,62.6L653.9,59.1L662.9,52.6L673.0,54.1L673.2,51.8L674.8,47.1L679.7,45.7L684.9,47.3L688.0,49.6L691.5,50.1L703.7,39.6L706.4,34.9L710.3,29.4L713.3,27.3L712.2,25.6L692.9,18.8L686.2,15.2L678.3,9.5L644.8,0.7L634.3,0.0L622.9,1.6L611.8,4.6L602.3,8.7L596.0,6.0L588.2,6.9L581.4,10.6L578.3,16.7L575.1,13.0L570.6,11.1L565.5,10.6L560.4,11.3L547.1,13.8L542.5,13.0L534.0,9.5L529.1,8.7L519.4,9.9L515.6,8.4L512.2,3.1L504.3,13.3L491.2,22.9L447.7,43.5L440.9,44.0L434.0,43.4L427.5,44.1L421.6,48.6L440.2,48.6L439.9,51.5L421.3,60.5L417.9,60.6L415.7,65.0L401.3,86.1L401.8,90.7L401.5,98.8L402.6,106.6L406.9,110.1L410.0,111.7L415.2,119.0L417.4,120.7L421.1,121.1L427.3,122.9L459.4,124.7L474.1,122.6L481.8,115.4L485.9,119.8L492.7,124.2L499.8,127.6L504.7,128.9L508.4,128.1L514.4,123.4L514.8,123.4Z " data-id="HT.NO" data-name="Nord-Ouest" id="HT.NO"/>
utf-8utf-8<path d="M257.0,717.0L255.1,716.4L253.4,718.0L251.9,721.9L259.6,730.6L264.4,734.0L270.2,735.4L283.3,736.2L290.3,735.5L294.8,732.5L295.4,727.0L290.9,723.8L284.4,722.3L278.7,721.9L268.1,721.9L266.0,720.2L264.9,717.5L263.1,716.5L258.9,719.4L257.0,717.0Z M493.0,688.0L493.5,686.1L493.2,679.3L493.1,672.5L485.8,659.6L484.8,642.6L475.1,631.6L463.5,620.2L455.5,617.7L447.5,620.2L430.3,618.0L412.3,618.3L394.9,615.7L383.8,620.4L371.3,623.9L360.6,623.5L349.8,624.6L327.8,628.4L311.1,623.6L315.3,615.2L319.1,608.5L312.0,604.3L307.8,597.7L302.4,592.1L293.3,591.2L282.2,592.9L273.7,599.9L268.2,597.9L261.8,594.1L250.5,594.7L239.7,593.0L228.5,596.4L217.3,599.6L201.6,599.8L196.1,607.5L195.7,616.8L179.7,615.3L164.1,610.3L150.5,605.1L136.6,601.2L101.9,604.2L67.0,611.9L48.0,616.2L29.0,618.2L19.8,616.3L11.6,617.2L10.2,617.9L11.9,623.6L23.9,630.6L26.3,635.0L28.7,638.2L34.9,642.2L42.3,645.7L48.4,647.1L56.1,644.6L63.8,639.7L70.9,636.6L77.0,639.1L79.6,636.2L82.3,638.0L90.6,641.8L94.1,642.8L96.9,643.0L98.7,644.3L99.0,648.4L100.2,652.1L103.6,655.1L107.7,657.0L117.9,658.9L123.4,662.1L153.5,688.5L159.1,695.0L160.0,699.1L161.1,700.6L165.6,703.5L183.7,737.6L184.4,743.4L186.6,746.1L189.7,747.8L192.9,748.4L215.4,748.5L220.0,747.3L221.2,744.3L220.2,736.7L218.7,730.6L206.2,713.9L213.3,703.2L220.1,696.6L245.7,684.3L261.9,671.3L262.2,666.6L263.5,666.0L269.1,668.6L272.2,665.6L276.6,660.1L279.5,657.7L275.3,666.7L273.7,671.4L272.9,676.6L278.2,672.4L283.5,662.2L288.5,660.6L286.1,667.1L287.1,672.1L290.2,674.1L294.5,671.3L296.6,671.3L301.0,674.1L304.1,668.4L307.3,660.7L312.2,657.7L314.4,659.9L316.6,667.1L319.1,668.6L323.4,667.7L335.1,660.6L343.3,658.2L370.8,658.0L393.2,660.6L392.9,663.1L380.7,663.0L376.0,664.9L373.7,670.0L376.7,670.9L397.2,668.6L441.4,676.6L444.3,677.7L453.4,684.6L456.2,685.1L465.2,684.6L493.0,688.0Z " data-id="HT.SD" data-name="Sud" id="HT.SD"/>
utf-8utf-8<path d="M662.9,52.6L653.9,59.1L647.9,62.6L640.5,64.6L617.4,84.2L591.3,89.1L577.8,86.3L564.0,85.1L550.7,81.4L537.5,82.8L519.6,101.1L514.6,122.4L514.8,123.4L514.8,123.4L518.2,123.8L524.7,125.6L528.1,126.0L548.2,134.5L551.7,132.8L553.9,133.4L564.7,144.5L569.9,147.3L576.2,149.0L592.8,161.1L613.2,171.9L619.1,176.9L622.9,182.8L625.3,188.0L629.4,191.5L646.8,192.8L649.9,194.8L655.0,209.0L650.7,208.9L647.7,207.1L644.0,203.7L639.1,204.1L638.7,213.1L639.6,216.3L639.1,219.2L635.1,222.1L631.6,222.7L628.5,221.6L625.9,219.5L624.0,217.0L622.1,221.9L620.7,230.0L621.2,237.6L624.8,241.0L631.5,241.6L634.8,243.8L638.6,254.3L634.7,253.5L629.2,253.8L623.7,255.0L619.8,257.0L617.1,260.6L612.5,269.5L608.8,272.9L608.2,276.5L605.7,278.3L607.2,284.5L613.7,300.2L616.7,305.1L622.0,308.7L627.8,311.3L632.4,315.1L633.6,322.4L629.8,328.2L622.4,330.8L609.3,331.7L594.3,338.1L594.8,348.1L625.9,389.9L626.8,390.4L632.2,383.8L638.4,379.3L659.9,380.2L685.1,384.1L692.9,385.1L701.3,384.7L704.4,390.4L707.2,396.4L715.2,400.4L723.7,404.3L732.1,411.6L739.1,420.5L755.1,419.5L770.9,421.6L779.4,416.6L782.0,404.5L788.0,391.9L788.1,381.5L788.1,362.0L794.8,342.2L793.8,330.7L794.0,321.2L798.1,312.9L790.0,303.0L795.0,274.8L813.0,251.0L810.6,240.5L806.1,229.4L805.7,218.3L808.6,207.5L804.3,193.6L791.5,186.3L779.9,173.1L780.9,148.3L770.1,142.0L764.2,142.5L757.3,149.0L750.6,148.8L749.5,158.9L738.9,162.4L727.4,157.0L718.1,148.0L709.8,137.9L705.9,122.0L702.9,106.5L695.1,102.7L691.6,96.0L696.2,82.8L689.8,77.1L682.4,78.2L682.3,69.5L676.0,63.6L673.0,54.1L662.9,52.6Z " data-id="HT.AR" data-name="L'Artibonite" id="HT.AR"/>
utf-8utf-8<path d="M889.3,237.8L863.5,251.4L838.4,267.3L831.7,268.0L829.2,262.9L822.6,254.8L813.0,251.0L795.0,274.8L790.0,303.0L798.1,312.9L794.0,321.2L793.8,330.7L794.8,342.2L788.1,362.0L788.1,381.5L788.0,391.9L782.0,404.5L779.4,416.6L770.9,421.6L755.1,419.5L739.1,420.5L746.6,433.5L756.9,441.1L768.1,444.3L777.4,451.9L795.5,474.0L820.4,483.7L848.2,474.1L876.1,468.7L887.2,473.1L898.1,477.6L911.9,481.7L923.8,490.0L925.9,493.2L928.4,491.6L938.1,485.5L943.3,481.2L948.1,473.9L951.1,467.4L953.6,460.2L954.8,452.8L953.7,437.5L955.0,421.7L953.9,414.5L951.7,411.0L944.8,403.2L942.1,399.2L938.5,388.2L935.6,385.4L927.7,385.1L919.0,388.3L912.8,389.3L912.5,382.6L918.8,378.3L936.7,373.1L941.5,370.1L958.1,352.4L969.8,336.9L975.5,331.8L987.9,322.8L992.9,315.9L995.3,309.2L999.3,286.0L974.6,272.1L964.7,259.6L952.9,261.3L941.0,260.2L934.7,260.6L927.2,259.0L918.1,257.6L912.4,251.8L900.6,245.6L889.3,237.8Z " data-id="HT.CE" data-name="Centre" id="HT.CE"/>
utf-8utf-8<path d="M881.5,91.1L877.9,97.7L874.8,112.7L866.3,124.3L860.8,125.5L856.3,128.5L856.0,133.8L854.2,138.8L854.2,148.0L857.8,157.2L860.0,168.7L864.7,178.8L862.6,189.2L858.6,194.9L870.7,198.8L885.8,217.7L889.3,237.8L900.6,245.6L912.4,251.8L918.1,257.6L927.2,259.0L934.7,260.6L941.0,260.2L952.9,261.3L964.7,259.6L963.4,258.0L958.4,248.8L957.5,241.0L960.0,238.5L969.7,232.9L973.3,230.1L978.8,218.2L980.9,216.0L985.7,207.0L987.8,189.6L987.0,159.1L980.1,134.7L979.5,125.9L982.1,109.4L981.6,102.5L979.8,91.8L965.6,91.4L957.0,89.3L953.2,89.0L950.4,91.4L949.4,95.3L950.2,98.8L952.4,101.1L959.6,103.3L960.1,106.1L957.7,111.4L955.9,112.7L952.4,110.1L946.9,104.5L941.7,105.4L935.2,107.3L929.4,106.6L926.6,99.4L936.0,99.6L940.1,98.8L943.3,96.8L945.9,91.9L943.6,89.9L934.7,88.5L918.7,83.2L909.1,83.2L902.1,88.5L898.1,89.7L893.6,95.4L890.8,96.8L887.8,95.9L883.6,92.3L881.5,91.1Z " data-id="HT.NE" data-name="Nord-Est" id="HT.NE"/>
utf-8utf-8<path d="M880.6,90.6L878.5,86.9L875.8,86.1L864.1,86.1L861.0,85.0L856.7,79.6L851.5,77.3L837.9,79.8L832.4,79.2L827.0,75.4L830.9,66.1L826.8,61.9L820.1,62.1L816.3,65.9L813.0,71.6L806.6,73.8L799.8,73.1L795.0,70.2L792.9,70.2L794.2,77.9L793.8,77.1L791.8,80.5L796.3,80.5L791.2,86.1L792.1,89.5L790.8,90.0L785.0,88.5L783.7,86.8L780.6,75.4L787.3,77.9L787.5,75.4L773.0,58.9L771.5,52.7L767.1,54.1L757.8,51.4L748.0,47.1L742.2,43.5L736.7,47.2L727.6,43.5L719.3,36.8L713.3,27.3L713.3,27.3L710.3,29.4L706.4,34.9L703.7,39.6L691.5,50.1L688.0,49.6L684.9,47.3L679.7,45.7L674.8,47.1L673.2,51.8L673.0,54.1L676.0,63.6L682.3,69.5L682.4,78.2L689.8,77.1L696.2,82.8L691.6,96.0L695.1,102.7L702.9,106.5L705.9,122.0L709.8,137.9L718.1,148.0L727.4,157.0L738.9,162.4L749.5,158.9L750.6,148.8L757.3,149.0L764.2,142.5L770.1,142.0L780.9,148.3L779.9,173.1L791.5,186.3L804.3,193.6L808.6,207.5L805.7,218.3L806.1,229.4L810.6,240.5L813.0,251.0L822.6,254.8L829.2,262.9L831.7,268.0L838.4,267.3L863.5,251.4L889.3,237.8L885.8,217.7L870.7,198.8L858.6,194.9L862.6,189.2L864.7,178.8L860.0,168.7L857.8,157.2L854.2,148.0L854.2,138.8L856.0,133.8L856.3,128.5L860.8,125.5L866.3,124.3L874.8,112.7L877.9,97.7L881.5,91.1L880.6,90.6Z " data-id="HT.ND" data-name="Nord" id="HT.ND"/>
utf-8utf-8<path d="M866.7,551.5L871.6,560.7L877.6,565.3L866.7,551.5Z M577.9,485.4L582.7,477.7L584.7,467.9L584.5,457.8L582.9,449.4L574.4,436.1L551.5,425.1L527.2,410.8L504.8,402.5L460.1,380.9L452.2,379.9L444.8,381.0L437.5,384.0L431.1,388.3L426.4,393.4L424.8,397.7L425.4,402.0L427.2,406.0L430.9,411.2L436.7,416.1L442.4,426.6L449.9,432.4L479.1,441.4L506.8,462.4L517.3,465.3L527.5,466.2L557.0,473.6L564.6,474.1L567.1,474.9L569.7,477.7L572.0,484.7L574.1,487.1L577.9,485.4Z M631.8,393.4L637.4,395.5L644.0,400.4L650.2,406.5L654.4,411.8L668.7,441.4L670.7,448.8L673.3,452.3L684.0,460.0L692.4,459.0L698.3,464.6L703.6,472.7L709.8,479.1L713.6,480.5L721.9,480.7L725.9,481.5L740.5,489.8L743.3,492.2L744.7,496.8L743.1,499.8L740.2,502.9L737.3,508.2L736.2,512.6L734.3,536.3L732.6,545.4L729.1,551.9L723.0,553.7L720.0,551.7L713.8,543.0L711.3,540.6L709.3,540.1L706.2,544.6L704.1,545.4L648.1,539.9L637.0,542.5L627.6,553.7L620.5,567.4L612.5,579.4L602.4,587.9L589.0,591.2L565.3,586.7L560.6,584.4L554.6,584.4L545.2,588.0L538.5,589.3L541.0,583.0L512.4,575.2L488.1,579.9L488.1,579.9L489.5,584.2L489.2,588.9L482.9,598.7L482.6,609.1L491.0,609.5L496.2,616.0L497.7,625.5L502.2,632.8L506.4,639.9L509.6,648.4L516.9,647.4L526.1,645.2L536.4,645.9L539.6,652.0L546.4,656.1L550.7,651.6L556.9,647.8L568.0,652.1L578.8,655.2L582.1,649.7L586.6,646.1L588.9,641.3L590.4,635.7L595.4,638.9L601.2,639.8L609.7,632.2L616.3,631.9L622.9,631.0L627.1,627.4L639.7,625.7L648.4,621.8L652.5,621.7L656.2,618.8L665.8,607.8L677.6,602.1L689.8,602.9L704.2,611.3L714.1,610.5L717.6,616.7L721.7,622.4L749.6,624.3L778.7,622.3L807.5,628.9L836.1,636.2L864.7,635.8L887.3,637.7L903.6,649.7L934.2,644.0L939.0,636.5L935.6,632.3L931.1,628.8L913.6,621.3L901.8,611.9L899.4,608.5L895.1,600.1L892.6,597.4L879.7,593.7L874.9,590.7L873.6,583.5L875.4,579.2L878.1,577.6L880.1,575.4L879.9,569.6L878.8,567.4L874.0,569.5L866.1,571.7L859.1,571.9L856.4,568.5L854.6,561.0L848.8,557.1L842.0,554.5L837.0,551.0L830.6,537.3L830.5,524.1L836.0,512.2L846.9,502.6L849.4,505.2L850.4,509.0L849.6,520.0L850.0,524.1L855.0,520.3L867.9,517.4L892.8,522.6L906.5,517.7L911.4,512.5L919.7,499.5L925.0,493.8L925.9,493.2L923.8,490.0L911.9,481.7L898.1,477.6L887.2,473.1L876.1,468.7L848.2,474.1L820.4,483.7L795.5,474.0L777.4,451.9L768.1,444.3L756.9,441.1L746.6,433.5L739.1,420.5L732.1,411.6L723.7,404.3L715.2,400.4L707.2,396.4L704.4,390.4L701.3,384.7L692.9,385.1L685.1,384.1L659.9,380.2L638.4,379.3L632.2,383.8L626.8,390.4L631.8,393.4Z " data-id="HT.OU" data-name="Ouest" id="HT.OU"/>
utf-8utf-8<path d="M502.2,632.8L499.7,644.3L494.2,655.4L493.3,663.9L493.1,672.5L493.2,679.3L493.5,686.1L493.0,688.0L500.6,689.0L513.0,692.7L524.5,697.8L532.8,703.5L542.4,699.6L560.9,701.6L571.0,695.0L573.2,696.9L575.1,697.5L580.1,697.9L578.6,689.9L586.8,690.5L627.1,686.5L632.2,687.5L641.0,691.4L645.0,691.3L648.6,687.5L647.9,672.5L649.9,671.0L653.8,672.7L660.2,676.6L687.4,671.3L736.9,670.6L772.2,671.0L799.8,666.0L813.0,666.0L823.5,670.6L833.9,677.0L859.6,687.0L870.6,695.2L879.9,705.4L900.2,739.2L905.3,743.3L910.6,731.5L912.5,724.8L912.9,713.5L913.8,707.0L913.5,702.6L911.0,691.4L910.8,687.7L912.6,680.1L916.0,672.7L934.0,644.4L934.2,644.0L903.6,649.7L887.3,637.7L864.7,635.8L836.1,636.2L807.5,628.9L778.7,622.3L749.6,624.3L721.7,622.4L717.6,616.7L714.1,610.5L704.2,611.3L689.8,602.9L677.6,602.1L665.8,607.8L656.2,618.8L652.5,621.7L648.4,621.8L639.7,625.7L627.1,627.4L622.9,631.0L616.3,631.9L609.7,632.2L601.2,639.8L595.4,638.9L590.4,635.7L588.9,641.3L586.6,646.1L582.1,649.7L578.8,655.2L568.0,652.1L556.9,647.8L550.7,651.6L546.4,656.1L539.6,652.0L536.4,645.9L526.1,645.2L516.9,647.4L509.6,648.4L506.4,639.9L502.2,632.8Z " data-id="HT.SE" data-name="Sud-Est" id="HT.SE"/>
utf-8</g>
</svg>
