<?xml version="1.0" ?>
<!DOCTYPE svg
  PUBLIC '-//W3C//DTD SVG 1.1//EN'
  'http://www.w3.org/Graphics/SVG/1.1/DTD/svg11.dtd'>
<svg enable_background="new 0 0 1000 533" height="533px" pretty_print="True" style="stroke-linejoin: round; stroke:#000; fill: none;" version="1.1" viewBox="0 0 1000 533" width="1000px" xmlns="http://www.w3.org/2000/svg" xmlns:xlink="http://www.w3.org/1999/xlink">
utf-8<defs>
utf-8utf-8<style type="text/css">
<![CDATA[path { fill-rule: evenodd; }]]>utf-8utf-8</style>
utf-8</defs>
utf-8<metadata>
utf-8utf-8<views>
utf-8utf-8utf-8<view h="533.925159089" padding="0" w="1000">
utf-8utf-8utf-8utf-8<proj flip="auto" id="robinson" lon0="16.8384244672"/>
utf-8utf-8utf-8utf-8<bbox h="46.35" w="86.97" x="211.23" y="-811.8"/>
utf-8utf-8utf-8</view>
utf-8utf-8</views>
utf-8</metadata>
utf-8<g class="" id="provinces">
utf-8utf-8<path d="M155.2,215.5L151.0,213.1L137.4,219.6L138.2,214.6L139.4,210.8L135.6,209.9L120.2,217.8L107.8,216.0L103.9,213.4L93.2,219.4L88.9,220.2L84.5,216.7L76.6,215.2L72.0,211.5L66.7,215.2L51.1,221.5L49.1,219.0L47.0,217.8L45.1,218.3L43.8,220.7L44.8,227.9L43.2,229.3L45.5,232.0L50.7,240.2L51.6,243.3L50.8,245.8L48.8,247.5L44.3,249.6L45.1,252.9L43.1,257.0L43.9,260.1L47.3,260.8L48.6,263.7L47.7,267.9L49.8,269.1L54.7,267.0L57.2,267.2L59.2,269.5L58.7,271.7L55.6,275.6L52.6,277.3L51.8,280.0L53.1,282.5L58.1,284.1L58.7,285.1L56.5,287.1L50.0,289.4L48.2,290.9L54.8,291.9L57.1,293.6L57.9,295.7L55.1,296.2L51.2,296.3L47.4,297.4L43.0,295.0L39.8,294.7L33.7,295.3L28.0,294.3L26.0,294.6L24.7,296.7L24.3,299.5L20.3,301.8L20.2,305.1L19.3,306.5L15.3,308.3L10.0,312.3L5.1,318.7L0.9,321.2L13.9,322.0L27.7,321.0L29.3,321.7L33.9,325.5L36.1,325.6L36.7,328.2L34.6,333.5L33.5,335.5L33.4,338.3L35.9,343.7L40.8,349.2L42.8,348.9L43.2,352.0L44.4,352.5L44.5,352.5L45.3,351.7L51.8,342.1L49.9,335.6L57.1,335.6L63.1,332.0L65.8,327.0L72.2,321.6L74.6,318.1L76.0,313.7L78.2,310.2L83.7,307.9L98.7,307.1L103.7,303.8L107.1,304.8L109.9,304.7L111.3,301.2L118.2,299.9L121.9,300.4L128.7,299.1L134.7,295.9L135.8,293.8L134.9,291.5L136.7,288.8L140.3,288.9L140.9,290.4L145.4,291.5L149.2,286.6L167.3,282.8L162.5,263.0L162.3,254.0L160.6,248.6L162.0,244.0L163.7,242.4L164.7,240.2L164.4,237.4L165.6,236.3L175.2,232.5L166.4,227.5L159.1,220.4L155.2,215.5Z M75.4,240.6L79.4,241.4L81.8,241.2L85.7,250.3L84.4,259.5L84.6,265.4L76.8,264.2L72.9,267.6L68.1,264.4L64.2,255.9L61.9,249.3L59.8,244.6L60.3,242.4L64.2,242.4L66.0,243.6L75.4,240.6Z " data-id="HU.VA" data-name="Vas" id="HU.VA"/>
utf-8utf-8<path d="M428.7,501.1L425.3,498.4L428.4,494.6L428.9,488.9L430.6,485.3L431.4,481.3L430.1,478.5L429.6,474.0L426.7,469.5L426.5,466.8L425.3,464.8L422.5,464.4L419.8,464.7L411.6,462.6L403.7,459.0L398.4,454.2L393.2,448.1L388.7,441.0L386.0,438.6L383.1,440.2L380.1,440.2L372.0,433.9L368.4,434.5L366.0,437.1L360.4,440.7L356.6,424.6L353.1,418.0L346.8,412.2L347.0,409.2L346.1,406.8L341.5,406.1L323.8,407.5L321.6,411.6L319.0,414.9L315.0,414.7L311.1,413.7L308.4,415.8L307.7,419.9L305.0,422.8L287.9,424.6L275.4,440.4L271.0,443.5L263.7,443.7L256.8,445.9L252.8,450.3L254.2,461.8L252.1,467.7L243.5,471.7L248.9,483.2L246.9,487.0L249.2,492.7L252.8,497.1L257.4,500.5L260.2,504.4L260.2,509.8L256.8,511.4L252.6,511.1L253.0,512.4L254.3,513.1L257.8,513.3L276.7,518.2L281.3,521.0L284.7,525.5L286.6,525.9L287.9,523.1L289.3,522.4L302.2,522.4L318.5,526.2L325.6,523.7L338.1,523.7L341.0,524.4L345.9,527.5L349.4,527.5L352.2,530.0L354.9,530.8L359.8,528.7L362.2,528.8L366.1,531.8L367.1,531.9L371.9,529.6L376.7,524.0L379.0,522.5L382.6,523.9L386.4,522.6L392.5,517.8L394.1,515.9L397.0,510.3L399.5,506.9L399.8,504.6L403.4,500.7L406.2,500.2L413.9,502.5L420.1,505.2L423.5,504.6L425.9,499.6L428.0,501.1L428.7,501.1Z M348.0,451.4L354.5,463.2L357.5,470.5L356.3,472.8L351.2,471.6L348.5,471.6L346.1,475.6L344.7,480.1L342.4,484.0L338.5,486.3L332.8,484.0L326.5,479.0L321.3,476.1L323.1,471.6L320.1,467.7L321.0,460.2L323.8,456.8L329.6,453.1L336.0,453.7L342.0,454.8L348.0,451.4Z " data-id="HU.BA" data-name="Baranya" id="HU.BA"/>
utf-8utf-8<path d="M81.5,164.1L77.6,169.0L78.5,173.5L77.5,175.2L69.0,173.4L63.4,173.5L58.7,176.8L61.4,177.7L66.3,177.0L69.7,178.3L72.6,181.3L74.2,185.1L73.6,188.7L76.3,189.9L78.5,191.7L79.9,194.1L80.0,197.0L78.6,199.4L74.3,201.0L72.7,202.5L74.0,210.1L72.0,211.5L76.6,215.2L84.5,216.7L88.9,220.2L93.2,219.4L103.9,213.4L107.8,216.0L120.2,217.8L135.6,209.9L139.4,210.8L138.2,214.6L137.4,219.6L151.0,213.1L155.2,215.5L159.1,220.4L164.8,218.6L168.6,215.8L169.8,213.8L172.5,214.3L178.0,212.8L183.5,212.4L188.9,215.5L194.1,216.3L196.1,214.7L199.5,214.6L202.8,213.7L205.5,209.8L213.3,210.8L217.4,208.5L223.6,210.8L229.6,206.6L236.3,204.6L241.8,206.8L244.2,204.7L247.1,205.0L249.9,206.1L249.7,202.5L255.2,205.5L260.3,209.8L259.9,205.9L261.8,200.5L259.6,195.2L260.8,194.1L264.3,195.1L265.6,191.8L261.7,187.6L264.3,180.0L259.6,176.7L259.3,171.0L257.8,167.6L258.2,164.3L257.6,160.2L255.3,153.7L246.7,154.2L233.9,151.3L223.7,146.8L220.7,143.4L214.4,139.3L212.1,138.3L207.5,139.2L205.5,137.6L199.9,131.2L191.4,128.0L174.5,110.6L169.5,107.3L146.2,103.3L141.0,106.1L132.2,112.7L134.0,115.4L131.4,120.7L133.3,121.7L132.3,127.5L131.0,129.4L128.7,131.0L123.6,132.0L121.8,132.8L122.0,134.9L127.5,137.7L130.4,142.4L128.3,144.5L128.8,147.8L130.1,151.6L130.9,157.8L135.0,162.0L132.0,163.2L121.2,164.4L109.6,167.0L103.8,166.1L101.2,161.2L99.3,162.6L96.7,166.6L93.9,168.2L85.4,167.1L81.9,164.8L81.5,164.1Z M225.0,156.6L232.2,157.9L238.9,157.4L242.7,163.8L244.9,170.0L244.1,173.5L235.1,178.4L229.0,181.2L219.4,181.2L213.8,184.9L208.3,181.8L206.1,182.4L200.6,175.8L208.8,170.2L210.8,160.9L225.0,156.6Z " data-id="HU.GS" data-name="Gyor-Moson-Sopron" id="HU.GS"/>
utf-8utf-8<path d="M305.3,301.3L297.1,300.7L283.2,307.6L279.3,308.5L276.0,310.5L270.5,315.9L263.9,317.5L238.0,331.4L208.3,342.5L200.6,343.4L194.7,346.1L184.6,345.6L178.8,349.9L173.8,358.5L176.9,383.3L175.1,390.0L172.8,394.2L171.5,400.3L154.8,403.9L151.3,404.6L153.1,410.2L156.1,415.1L155.6,419.3L153.1,422.4L147.9,423.3L137.6,426.7L133.5,422.9L127.9,424.8L129.7,428.5L138.2,436.2L142.4,442.2L144.0,443.9L152.5,449.5L154.8,452.9L156.7,454.6L164.4,459.3L166.7,460.3L179.0,460.6L180.8,461.5L187.5,468.3L188.4,470.1L192.7,481.1L197.6,482.2L199.1,483.8L195.2,485.0L195.3,486.3L201.1,488.6L202.5,486.3L203.7,489.5L207.1,491.5L210.6,490.3L212.3,490.9L213.5,494.0L216.4,491.5L229.4,492.0L235.9,493.2L241.6,495.4L249.4,501.9L250.6,503.7L252.3,510.2L252.6,511.1L256.8,511.4L260.2,509.8L260.2,504.4L257.4,500.5L252.8,497.1L249.2,492.7L246.9,487.0L248.9,483.2L243.5,471.7L252.1,467.7L254.2,461.8L252.8,450.3L256.8,445.9L263.7,443.7L271.0,443.5L275.4,440.4L287.9,424.6L305.0,422.8L307.7,419.9L308.4,415.8L311.1,413.7L305.1,395.8L301.7,394.2L299.6,386.5L301.7,377.8L305.5,370.3L305.3,362.9L305.9,355.9L308.3,350.2L308.4,347.0L309.1,344.4L311.0,341.8L312.4,338.7L315.4,337.4L322.1,334.8L320.6,329.5L319.8,318.8L320.6,316.3L317.1,311.5L313.2,304.2L305.3,301.3Z M257.1,398.1L261.4,400.9L271.2,399.8L271.3,400.9L276.7,411.6L279.0,421.7L274.3,425.1L271.7,431.3L270.3,435.8L265.0,433.0L259.5,436.9L257.2,425.7L252.2,415.5L255.5,411.6L255.9,406.5L255.6,401.5L257.1,398.1Z " data-id="HU.SO" data-name="Somogy" id="HU.SO"/>
utf-8utf-8<path d="M255.2,205.5L249.7,202.5L249.9,206.1L247.1,205.0L244.2,204.7L241.8,206.8L236.3,204.6L229.6,206.6L223.6,210.8L217.4,208.5L213.3,210.8L205.5,209.8L202.8,213.7L199.5,214.6L196.1,214.7L194.1,216.3L188.9,215.5L183.5,212.4L178.0,212.8L172.5,214.3L169.8,213.8L168.6,215.8L164.8,218.6L159.1,220.4L166.4,227.5L175.2,232.5L165.6,236.3L164.4,237.4L164.7,240.2L163.7,242.4L162.0,244.0L160.6,248.6L162.3,254.0L162.5,263.0L167.3,282.8L149.2,286.6L151.0,288.6L152.9,290.3L157.0,291.7L158.1,293.6L156.0,299.9L161.6,342.3L160.8,355.4L165.9,361.4L173.8,358.5L178.8,349.9L184.6,345.6L194.7,346.1L200.6,343.4L208.3,342.5L238.0,331.4L263.9,317.5L270.5,315.9L276.0,310.5L279.3,308.5L283.2,307.6L297.1,300.7L305.3,301.3L313.2,304.2L318.2,296.6L319.5,287.4L317.5,282.6L317.6,270.2L315.1,265.6L310.7,263.4L304.3,252.9L297.4,247.5L295.2,242.5L295.6,237.4L300.8,236.1L295.1,227.8L278.2,230.9L274.7,230.3L272.7,226.9L271.5,222.9L266.6,222.2L260.7,220.3L261.2,215.1L260.3,209.8L255.2,205.5Z M284.3,272.7L285.7,284.4L279.4,282.6L277.3,290.8L274.3,293.5L267.3,292.1L257.7,277.2L260.0,271.4L259.9,266.4L256.8,263.3L256.9,260.1L265.5,259.7L266.7,253.8L271.6,252.4L276.3,256.5L281.7,264.6L284.3,272.7Z " data-id="HU.VE" data-name="Veszprém" id="HU.VE"/>
utf-8utf-8<path d="M165.9,361.4L160.8,355.4L161.6,342.3L156.0,299.9L158.1,293.6L157.0,291.7L152.9,290.3L151.0,288.6L149.2,286.6L145.4,291.5L140.9,290.4L140.3,288.9L136.7,288.8L134.9,291.5L135.8,293.8L134.7,295.9L128.7,299.1L121.9,300.4L118.2,299.9L111.3,301.2L109.9,304.7L107.1,304.8L103.7,303.8L98.7,307.1L83.7,307.9L78.2,310.2L76.0,313.7L74.6,318.1L72.2,321.6L65.8,327.0L63.1,332.0L57.1,335.6L49.9,335.6L51.8,342.1L45.3,351.7L44.5,352.5L45.3,352.8L48.1,352.9L50.5,354.2L51.6,357.8L46.9,360.7L45.6,362.6L47.1,365.2L50.0,367.1L55.6,369.8L61.7,377.3L67.1,381.0L70.0,389.1L80.8,395.0L81.3,393.3L88.9,394.3L92.3,396.2L95.3,399.1L98.0,402.7L101.1,405.9L105.9,408.3L108.1,411.7L109.1,411.7L110.0,409.0L115.3,410.4L119.1,413.1L120.5,411.7L122.6,413.3L126.8,419.0L126.5,421.9L127.9,424.8L133.5,422.9L137.6,426.7L147.9,423.3L153.1,422.4L155.6,419.3L156.1,415.1L153.1,410.2L147.4,412.7L139.5,411.7L133.1,408.0L130.6,386.4L134.8,385.7L135.2,378.2L141.4,377.9L143.7,386.0L148.0,389.4L149.8,396.3L154.8,403.9L171.5,400.3L172.8,394.2L175.1,390.0L176.9,383.3L173.8,358.5L165.9,361.4Z M119.7,335.0L110.1,336.5L109.5,329.1L103.9,325.9L102.3,314.2L113.5,312.6L121.5,318.5L125.2,333.0L119.7,335.0Z " data-id="HU.ZA" data-name="Zala" id="HU.ZA"/>
utf-8utf-8<path d="M438.7,223.1L446.6,227.1L451.1,227.6L464.6,218.9L467.1,215.8L473.8,211.1L476.4,203.9L474.2,201.8L471.1,200.8L459.0,193.3L455.7,193.8L455.0,191.6L449.1,188.3L445.4,184.6L438.5,181.1L431.4,181.5L428.2,184.5L424.3,186.2L415.3,187.4L417.7,198.4L424.2,211.3L424.6,213.6L422.2,219.2L421.9,225.9L438.7,223.1Z " data-id="HU.BU" data-name="Budapest" id="HU.BU"/>
utf-8utf-8<path d="M529.5,290.1L520.1,278.3L513.9,273.5L503.5,272.1L501.5,274.5L501.6,278.3L500.0,280.9L495.6,282.5L491.5,284.9L488.8,290.4L484.4,291.7L481.0,287.7L481.7,282.4L484.8,277.4L483.6,272.0L478.9,268.0L473.4,266.8L457.7,273.0L447.3,280.7L440.5,282.5L433.4,282.8L430.8,289.1L430.8,290.9L430.2,292.1L429.5,293.2L429.2,294.4L429.5,296.4L430.7,299.6L432.4,307.5L432.6,311.0L430.2,313.5L428.9,315.8L427.7,320.8L427.9,323.9L428.0,326.4L429.3,329.2L433.5,332.9L437.9,337.6L441.7,350.2L441.1,352.8L439.2,356.3L435.2,360.1L425.4,364.0L421.7,367.9L425.0,372.3L430.6,383.5L433.1,389.7L434.0,395.4L431.4,405.6L431.0,412.3L431.8,415.2L434.3,419.0L435.0,421.3L436.7,437.3L434.5,439.4L426.0,441.0L423.6,444.7L425.4,445.4L427.2,444.8L428.4,447.1L425.9,453.0L423.6,454.2L421.2,453.1L420.3,455.0L422.5,458.7L425.9,460.3L423.1,463.1L419.8,464.7L422.5,464.4L425.3,464.8L426.5,466.8L426.7,469.5L429.6,474.0L430.1,478.5L431.4,481.3L430.6,485.3L428.9,488.9L428.4,494.6L425.3,498.4L428.7,501.1L429.6,501.1L438.0,496.5L440.2,496.3L449.6,496.9L452.6,498.1L453.1,496.3L451.8,494.7L452.1,492.6L455.5,490.4L459.3,490.9L462.0,490.3L461.6,484.7L463.6,481.1L467.0,479.9L470.5,481.0L476.6,486.4L490.0,487.6L494.2,486.9L495.7,485.0L497.1,480.4L502.7,477.9L508.3,477.8L510.7,477.1L514.2,472.1L518.9,470.6L521.3,468.8L523.8,464.9L527.6,463.0L525.4,458.2L527.3,456.1L530.7,454.0L534.3,452.6L540.2,452.2L548.9,450.7L552.2,450.9L555.4,451.8L558.9,453.6L556.0,448.0L551.7,442.0L548.2,435.5L548.1,430.2L550.0,426.2L549.8,422.0L549.0,417.5L551.8,415.5L555.3,415.2L559.5,416.4L563.9,416.0L567.8,413.3L572.4,412.0L575.6,412.1L577.2,408.4L578.9,399.9L576.4,391.1L568.8,386.8L567.8,379.1L573.2,375.6L586.4,377.4L591.2,372.4L592.0,351.9L590.4,348.5L587.1,346.5L592.8,338.6L599.7,332.9L595.6,331.7L592.8,332.4L590.5,330.9L589.7,328.3L591.3,323.5L590.3,323.1L593.2,319.0L598.2,317.3L602.8,317.5L604.6,314.0L601.4,312.4L601.1,309.3L604.5,309.6L607.4,311.7L608.9,311.9L611.2,308.4L611.1,307.3L604.6,305.6L603.5,304.1L604.3,302.6L609.1,299.3L603.0,294.1L597.8,291.5L593.5,293.2L589.5,295.8L583.9,302.4L579.0,301.0L574.3,298.1L569.6,299.0L565.7,302.4L563.4,305.5L560.5,305.6L560.7,310.7L556.3,313.7L551.0,313.7L547.1,319.6L548.0,328.1L544.0,335.8L537.7,331.8L533.1,321.1L527.3,313.3L520.4,300.4L520.9,295.9L522.6,292.6L530.6,295.9L533.3,293.1L529.5,290.1Z " data-id="HU.BK" data-name="Bács-Kiskun" id="HU.BK"/>
utf-8utf-8<path d="M400.6,226.4L395.8,218.1L396.3,212.7L394.1,207.9L385.7,199.8L378.8,189.6L353.6,190.8L348.8,193.9L346.4,200.2L344.2,202.4L341.4,203.3L337.5,207.0L330.2,210.3L328.3,213.0L330.4,214.7L332.0,217.0L324.2,218.8L321.5,217.4L319.2,214.6L309.8,208.1L306.7,208.0L304.5,211.5L300.9,212.4L297.4,212.5L296.4,216.9L297.2,222.5L295.8,224.7L295.1,227.8L300.8,236.1L295.6,237.4L295.2,242.5L297.4,247.5L304.3,252.9L310.7,263.4L315.1,265.6L317.6,270.2L317.5,282.6L319.5,287.4L318.2,296.6L313.2,304.2L317.1,311.5L320.6,316.3L319.8,318.8L320.6,329.5L322.1,334.8L329.8,332.9L337.5,332.9L338.7,332.4L349.8,339.8L356.3,342.4L362.7,343.3L364.6,343.1L367.8,338.2L370.7,336.2L373.7,335.9L385.7,350.4L390.3,351.5L395.6,349.3L401.7,345.7L414.9,329.7L421.1,325.8L427.9,323.9L414.7,316.4L411.8,310.1L412.9,299.8L420.4,292.4L429.5,296.4L429.2,294.4L429.5,293.2L430.2,292.1L430.8,290.9L430.8,289.1L422.6,281.4L420.1,280.0L417.6,274.6L415.3,267.3L415.5,256.2L418.0,250.7L418.8,241.3L416.1,238.2L410.9,237.6L408.9,235.5L407.4,232.8L402.7,228.3L400.6,226.4Z M352.4,238.3L355.8,243.5L359.9,243.5L365.9,247.2L365.0,253.8L365.5,258.6L369.4,262.7L369.9,267.9L367.7,273.0L363.1,280.4L357.9,278.2L349.1,283.0L346.9,277.5L344.4,270.5L339.4,263.8L331.7,257.0L338.4,249.8L346.0,242.7L349.3,237.6L352.4,238.3Z " data-id="HU.FE" data-name="Fejér" id="HU.FE"/>
utf-8utf-8<path d="M382.3,186.4L384.2,181.5L387.1,177.8L390.9,175.2L388.1,170.2L395.8,169.2L403.7,170.0L401.2,160.4L407.1,158.5L410.6,159.5L413.1,157.5L411.0,155.8L409.6,150.2L407.8,147.0L404.0,142.5L398.7,141.5L393.4,138.7L389.8,139.8L386.5,140.6L384.1,142.2L379.6,147.0L376.1,148.9L371.8,149.3L367.2,148.6L361.6,146.5L354.8,146.1L324.5,149.1L313.6,153.0L308.1,153.4L289.5,151.8L255.3,153.7L257.6,160.2L258.2,164.3L257.8,167.6L259.3,171.0L259.6,176.7L264.3,180.0L261.7,187.6L265.6,191.8L264.3,195.1L260.8,194.1L259.6,195.2L261.8,200.5L259.9,205.9L260.3,209.8L261.2,215.1L260.7,220.3L266.6,222.2L271.5,222.9L272.7,226.9L274.7,230.3L278.2,230.9L295.1,227.8L295.8,224.7L297.2,222.5L296.4,216.9L297.4,212.5L300.9,212.4L304.5,211.5L306.7,208.0L309.8,208.1L319.2,214.6L321.5,217.4L324.2,218.8L332.0,217.0L330.4,214.7L328.3,213.0L330.2,210.3L337.5,207.0L341.4,203.3L344.2,202.4L346.4,200.2L338.2,196.3L332.4,190.7L333.5,187.0L331.3,182.2L335.1,178.5L341.0,179.2L348.8,180.7L354.4,187.0L353.6,190.8L378.8,189.6L382.3,186.4Z " data-id="HU.KE" data-name="Komárom-Esztergom" id="HU.KE"/>
utf-8utf-8<path d="M500.7,158.1L492.1,162.5L489.5,150.1L483.6,140.6L477.5,138.3L445.1,133.2L433.0,133.4L413.4,122.3L409.2,115.6L414.0,111.7L412.7,102.9L407.1,96.9L393.1,99.6L390.7,101.4L387.4,108.4L386.1,109.4L381.9,110.5L380.1,112.6L382.2,116.2L381.5,124.0L381.5,127.9L382.8,131.4L387.5,135.1L393.6,138.6L393.4,138.7L398.7,141.5L404.0,142.5L407.8,147.0L409.6,150.2L411.0,155.8L413.1,157.5L410.6,159.5L407.1,158.5L401.2,160.4L403.7,170.0L395.8,169.2L388.1,170.2L390.9,175.2L387.1,177.8L384.2,181.5L382.3,186.4L378.8,189.6L385.7,199.8L394.1,207.9L396.3,212.7L395.8,218.1L400.6,226.4L402.7,228.3L408.5,222.5L405.2,216.2L403.7,209.9L407.4,208.4L411.9,212.1L417.2,214.7L422.2,219.2L424.6,213.6L424.2,211.3L417.7,198.4L415.3,187.4L424.3,186.2L428.2,184.5L431.4,181.5L438.5,181.1L445.4,184.6L449.1,188.3L455.0,191.6L455.7,193.8L459.0,193.3L471.1,200.8L474.2,201.8L476.4,203.9L473.8,211.1L467.1,215.8L464.6,218.9L451.1,227.6L446.6,227.1L438.7,223.1L421.9,225.9L421.3,230.6L419.7,235.4L416.1,238.2L418.8,241.3L418.0,250.7L415.5,256.2L415.3,267.3L417.6,274.6L420.1,280.0L422.6,281.4L430.8,289.1L433.4,282.8L440.5,282.5L447.3,280.7L457.7,273.0L473.4,266.8L478.9,268.0L483.6,272.0L484.8,277.4L481.7,282.4L481.0,287.7L484.4,291.7L488.8,290.4L491.5,284.9L495.6,282.5L500.0,280.9L501.6,278.3L501.5,274.5L503.5,272.1L513.9,273.5L520.1,278.3L529.5,290.1L533.3,293.1L540.8,299.0L552.9,305.1L557.8,305.0L560.5,305.6L563.4,305.5L565.7,302.4L569.6,299.0L574.3,298.1L579.0,301.0L583.9,302.4L589.5,295.8L593.5,293.2L597.8,291.5L603.0,294.1L609.1,299.3L617.0,293.9L607.2,290.8L598.2,284.4L592.4,275.9L592.3,266.8L595.4,258.2L589.3,250.7L585.3,248.5L582.3,245.0L581.7,242.4L582.1,239.5L581.7,236.1L580.2,233.5L550.9,210.7L547.7,207.4L541.0,202.7L540.7,199.6L539.6,196.1L534.0,196.6L529.0,194.0L525.6,188.8L526.6,183.2L524.2,180.9L523.7,177.7L519.0,171.8L515.9,169.1L513.9,165.6L515.5,163.1L516.1,160.7L512.3,159.5L509.8,156.6L500.7,158.1Z " data-id="HU.PE" data-name="Pest" id="HU.PE"/>
utf-8utf-8<path d="M423.1,463.1L425.9,460.3L422.5,458.7L420.3,455.0L421.2,453.1L423.6,454.2L425.9,453.0L428.4,447.1L427.2,444.8L425.4,445.4L423.6,444.7L426.0,441.0L434.5,439.4L436.7,437.3L435.0,421.3L434.3,419.0L431.8,415.2L431.0,412.3L431.4,405.6L434.0,395.4L433.1,389.7L430.6,383.5L425.0,372.3L421.7,367.9L425.4,364.0L435.2,360.1L439.2,356.3L441.1,352.8L441.7,350.2L437.9,337.6L433.5,332.9L429.3,329.2L428.0,326.4L427.9,323.9L421.1,325.8L414.9,329.7L401.7,345.7L395.6,349.3L390.3,351.5L385.7,350.4L373.7,335.9L370.7,336.2L367.8,338.2L364.6,343.1L362.7,343.3L356.3,342.4L349.8,339.8L338.7,332.4L337.5,332.9L329.8,332.9L322.1,334.8L315.4,337.4L312.4,338.7L311.0,341.8L309.1,344.4L308.4,347.0L308.3,350.2L305.9,355.9L305.3,362.9L305.5,370.3L301.7,377.8L299.6,386.5L301.7,394.2L305.1,395.8L311.1,413.7L315.0,414.7L319.0,414.9L321.6,411.6L323.8,407.5L341.5,406.1L346.1,406.8L347.0,409.2L346.8,412.2L353.1,418.0L356.6,424.6L360.4,440.7L366.0,437.1L368.4,434.5L372.0,433.9L380.1,440.2L383.1,440.2L386.0,438.6L388.7,441.0L393.2,448.1L398.4,454.2L403.7,459.0L411.6,462.6L419.8,464.7L423.1,463.1Z M410.4,408.9L412.7,415.6L417.9,415.6L420.9,416.7L422.1,415.6L425.2,417.4L425.6,419.3L429.4,418.1L431.1,421.2L429.9,423.5L426.4,423.5L418.8,421.8L415.4,421.4L408.1,419.1L405.7,424.1L403.4,427.3L400.4,426.4L398.3,425.0L396.1,419.7L395.5,421.2L392.4,423.0L389.7,419.3L389.8,416.8L391.1,414.1L394.1,411.6L396.1,408.9L399.0,409.8L402.8,409.2L403.8,405.7L407.2,405.2L410.4,408.9Z " data-id="HU.TO" data-name="Tolna" id="HU.TO"/>
utf-8utf-8<path d="M529.8,75.6L530.2,72.1L527.3,69.4L523.8,68.9L517.0,70.0L515.4,69.4L511.8,66.0L506.9,64.4L493.5,67.5L491.0,68.7L489.7,71.5L489.0,78.7L487.5,81.7L488.0,86.1L480.4,90.9L460.2,90.6L451.8,95.4L450.2,95.7L431.4,93.8L422.6,94.9L416.3,94.6L414.2,95.5L407.1,96.9L412.7,102.9L414.0,111.7L409.2,115.6L413.4,122.3L433.0,133.4L445.1,133.2L477.5,138.3L483.6,140.6L489.5,150.1L492.1,162.5L500.7,158.1L509.8,156.6L522.5,142.3L528.0,140.8L534.4,129.8L538.3,127.3L543.4,129.7L547.0,127.4L548.2,124.0L550.0,121.1L552.5,121.0L554.7,122.8L558.6,120.6L562.1,117.2L562.2,112.9L563.7,108.2L567.0,105.4L571.5,104.9L569.8,98.7L566.1,93.7L563.0,91.9L563.5,89.3L565.4,88.2L569.6,87.3L572.6,84.4L576.6,82.7L577.7,81.3L579.1,80.5L576.0,78.0L571.6,75.5L569.8,73.7L569.4,74.0L563.8,75.5L560.6,77.3L554.4,82.6L551.0,83.7L545.5,89.1L538.8,93.4L535.2,99.6L523.3,97.7L524.8,90.0L525.2,82.4L529.6,77.2L529.8,75.6Z " data-id="HU.NO" data-name="Nógrád" id="HU.NO"/>
utf-8utf-8<path d="M569.8,73.7L571.6,75.5L576.0,78.0L579.1,80.5L582.3,79.3L586.2,81.8L589.3,84.9L591.7,84.6L593.9,85.2L596.1,87.9L598.8,89.6L604.0,89.6L608.0,86.4L613.3,86.1L618.7,89.2L627.1,78.6L636.0,85.8L640.4,80.8L648.3,80.4L654.9,75.1L669.4,65.2L676.2,69.0L681.5,69.0L687.5,71.8L692.2,77.1L696.0,84.2L696.6,89.9L700.6,95.2L701.8,99.4L697.4,104.2L690.1,106.1L684.1,106.6L675.7,102.3L667.2,97.5L661.7,91.8L652.7,92.3L645.3,93.7L640.0,96.8L638.9,104.3L632.8,110.2L631.3,112.9L632.7,116.8L635.8,119.5L638.1,122.4L639.1,126.1L638.3,127.8L637.0,129.6L638.4,131.2L639.6,131.9L650.7,146.3L658.4,153.2L661.0,159.0L664.6,163.4L681.3,166.2L684.9,168.1L689.9,168.8L692.4,167.8L696.5,167.5L707.3,166.5L714.2,160.1L718.7,151.3L718.6,149.8L726.6,148.6L725.1,141.7L727.9,138.9L728.8,134.4L727.8,127.7L728.8,125.3L734.8,116.1L734.9,114.5L735.3,109.6L736.1,107.3L737.6,105.8L743.7,102.2L748.4,102.2L749.8,101.7L751.5,98.3L753.9,98.2L759.1,102.2L761.3,102.6L772.4,102.0L777.2,100.8L780.7,97.6L781.6,91.7L780.8,89.1L778.5,85.9L778.5,82.6L782.5,75.1L784.6,73.8L787.3,73.4L796.9,73.8L802.4,73.1L804.9,73.2L811.1,75.5L814.0,76.0L816.8,75.6L827.5,69.6L831.6,69.1L838.7,63.4L848.1,62.9L850.9,62.0L852.9,60.5L856.6,56.3L861.7,49.2L863.4,49.1L867.9,50.6L871.8,48.5L874.4,44.2L878.8,34.3L881.6,31.4L881.4,31.4L877.8,30.9L875.3,34.0L872.9,35.7L870.2,36.4L861.2,35.6L855.9,36.6L848.1,36.9L841.7,39.8L835.4,40.6L828.0,44.0L823.5,44.3L818.7,42.9L814.5,40.5L810.6,37.0L801.0,26.3L799.5,24.2L796.7,16.5L795.2,14.3L792.6,13.9L787.1,13.9L784.6,13.0L779.2,5.4L776.4,4.6L771.1,2.1L768.8,1.5L761.3,3.6L753.8,4.1L751.1,5.5L747.9,11.4L745.8,12.4L739.2,9.5L734.4,10.4L723.4,15.1L719.5,14.3L716.2,11.8L711.9,10.3L707.4,9.6L703.7,9.8L698.4,9.5L689.8,5.3L682.9,4.4L678.1,1.0L675.7,0.0L673.3,0.0L642.4,6.1L633.2,6.7L629.1,8.1L630.0,17.0L628.3,19.5L623.9,23.9L621.9,26.3L620.5,29.2L616.3,44.2L613.7,49.6L610.5,54.4L606.6,58.1L603.3,59.6L599.6,57.4L596.5,56.1L594.9,56.7L590.7,60.2L588.3,61.2L582.8,60.7L581.2,62.5L580.3,67.3L579.3,68.9L575.5,70.7L569.8,73.7Z " data-id="HU.BZ" data-name="Borsod-Abaúj-Zemplén" id="HU.BZ"/>
utf-8utf-8<path d="M881.6,31.4L878.8,34.3L874.4,44.2L871.8,48.5L867.9,50.6L863.4,49.1L861.7,49.2L856.6,56.3L852.9,60.5L850.9,62.0L848.1,62.9L838.7,63.4L831.6,69.1L827.5,69.6L816.8,75.6L814.0,76.0L811.1,75.5L804.9,73.2L802.4,73.1L796.9,73.8L787.3,73.4L784.6,73.8L782.5,75.1L778.5,82.6L778.5,85.9L780.8,89.1L781.6,91.7L780.7,97.6L777.2,100.8L772.4,102.0L761.3,102.6L759.1,102.2L753.9,98.2L751.5,98.3L749.8,101.7L748.4,102.2L743.7,102.2L737.6,105.8L736.1,107.3L735.3,109.6L734.9,114.5L746.0,115.8L759.3,124.1L765.7,121.8L789.8,120.3L795.2,117.4L800.1,118.8L802.0,122.7L801.3,132.8L801.8,143.4L816.9,152.7L819.7,155.6L827.1,156.9L830.3,159.3L836.8,161.2L840.0,161.3L843.2,162.4L846.2,165.2L849.5,166.8L852.0,164.4L853.4,160.4L856.4,155.1L861.5,154.9L872.5,159.8L877.6,166.4L877.3,171.3L881.6,174.6L887.8,168.0L890.7,171.3L895.0,182.2L898.6,185.8L899.7,185.0L900.7,179.5L903.9,175.0L904.7,168.5L913.4,159.1L920.5,156.8L927.5,157.7L933.1,155.5L934.7,148.0L939.2,147.1L950.9,152.1L956.1,152.8L961.8,152.1L967.0,150.1L971.0,146.9L974.2,142.7L978.8,140.3L982.9,139.5L983.9,137.4L982.3,133.2L983.6,130.7L985.8,129.3L991.6,127.4L993.8,125.5L996.9,119.6L999.1,117.1L993.1,113.4L991.6,111.1L993.8,108.4L993.8,105.4L994.9,101.8L993.4,98.2L989.3,93.5L984.5,90.0L978.8,87.4L975.6,85.2L973.1,85.8L968.1,87.9L954.2,88.1L951.1,83.6L948.3,77.6L945.9,73.8L933.3,61.4L931.4,61.2L928.7,62.4L924.0,62.1L921.0,61.1L918.1,62.1L914.8,61.3L906.3,51.8L904.3,48.0L903.7,41.4L902.4,39.8L897.3,39.9L897.0,36.9L898.5,31.2L892.9,29.0L887.8,28.4L883.1,30.0L881.6,31.4L881.6,31.4Z M835.8,102.7L836.4,108.5L844.4,108.9L847.9,106.5L851.3,109.4L852.4,116.1L852.8,123.2L848.0,124.2L848.4,130.8L845.7,137.0L837.5,138.5L832.3,135.6L821.8,133.2L812.4,130.8L812.3,119.4L812.4,109.9L813.3,105.9L815.5,101.6L823.0,101.1L825.9,103.5L831.2,100.2L835.8,102.7Z " data-id="HU.SZ" data-name="Szabolcs-Szatmár-Bereg" id="HU.SZ"/>
utf-8utf-8<path d="M731.7,251.0L728.9,252.2L727.0,254.8L726.1,257.3L724.6,259.3L721.1,260.5L718.7,265.3L716.6,266.0L715.6,268.4L713.6,269.5L710.5,268.7L707.6,269.6L699.5,279.2L697.2,280.7L695.9,283.2L697.0,286.8L691.8,292.7L692.3,295.6L694.0,298.0L695.4,304.1L694.4,309.7L692.2,311.1L689.8,311.5L687.1,313.2L684.2,313.8L682.1,311.6L679.6,310.2L676.4,312.8L671.9,311.8L668.2,316.9L663.0,315.8L657.8,316.3L652.3,320.7L651.2,326.2L654.2,332.4L666.8,336.2L674.5,337.9L679.7,341.7L681.4,353.7L680.3,362.7L682.2,376.7L685.0,380.5L689.6,382.2L688.2,388.2L685.4,393.0L686.8,396.8L685.5,399.2L686.2,407.1L690.9,406.0L688.8,411.2L696.4,411.2L704.1,409.4L705.7,411.6L708.7,411.3L711.5,414.1L713.6,417.7L713.8,422.2L713.0,426.8L714.4,429.7L717.5,431.6L719.5,433.9L721.2,433.1L724.3,432.4L727.3,432.5L733.0,435.6L740.3,434.7L746.2,436.8L753.0,436.7L757.4,440.0L760.0,439.1L766.4,431.5L771.8,431.1L773.1,430.1L774.6,427.3L775.5,423.6L775.2,415.3L776.3,411.2L778.6,408.6L781.5,407.7L787.8,407.5L791.1,405.2L789.7,401.0L784.5,393.8L784.5,389.9L788.6,384.1L790.1,380.7L789.9,373.5L790.4,369.9L792.5,367.5L795.6,366.8L801.2,367.2L804.3,365.7L807.1,362.1L809.4,356.8L813.5,356.2L816.3,354.7L818.7,351.2L818.8,347.5L814.5,345.1L814.4,339.6L816.8,332.0L818.4,329.0L821.3,326.4L826.7,325.2L828.1,324.0L829.1,321.6L827.7,315.3L828.5,312.3L834.8,307.5L836.0,306.1L837.8,296.8L836.7,294.2L832.7,292.7L832.3,291.7L828.6,292.5L822.5,295.2L813.2,304.1L806.8,304.0L796.6,306.5L791.5,305.6L788.4,303.2L789.3,298.6L786.2,296.3L782.5,295.4L780.3,292.4L780.0,287.1L778.7,273.5L775.1,268.0L764.8,263.9L758.0,263.3L751.4,261.3L731.7,251.0Z M774.3,351.2L769.0,357.5L759.5,357.1L752.5,358.2L744.2,358.3L741.4,348.3L738.0,338.7L743.9,332.8L749.1,323.2L764.2,329.0L771.9,337.5L770.9,344.9L774.3,351.2Z " data-id="HU.BE" data-name="Békés" id="HU.BE"/>
utf-8utf-8<path d="M688.8,411.2L686.7,416.6L681.9,422.1L678.8,432.4L672.2,437.2L663.2,436.5L656.4,433.5L649.8,433.5L641.2,434.8L642.0,439.2L637.8,439.5L632.5,438.5L630.9,441.4L631.5,444.4L633.9,447.7L637.1,449.9L637.2,454.0L633.7,454.7L630.6,449.9L626.7,446.2L623.1,445.8L621.2,448.1L619.9,454.8L620.8,455.4L624.8,457.7L628.5,456.1L631.3,457.0L640.1,463.1L645.6,456.4L669.9,455.8L673.0,450.7L679.3,451.9L685.5,454.1L690.3,457.6L694.9,459.1L703.3,457.5L706.1,456.2L708.2,454.0L708.7,449.5L709.3,448.1L713.3,448.3L714.3,445.8L712.5,441.6L712.8,438.8L718.3,434.6L719.5,433.9L717.5,431.6L714.4,429.7L713.0,426.8L713.8,422.2L713.6,417.7L711.5,414.1L708.7,411.3L705.7,411.6L704.1,409.4L696.4,411.2L688.8,411.2Z M654.2,332.4L649.4,335.0L644.3,336.4L639.7,339.7L634.1,338.4L628.2,334.1L611.4,339.0L599.7,332.9L592.8,338.6L587.1,346.5L590.4,348.5L592.0,351.9L591.2,372.4L586.4,377.4L573.2,375.6L567.8,379.1L568.8,386.8L576.4,391.1L578.9,399.9L577.2,408.4L575.6,412.1L572.4,412.0L567.8,413.3L563.9,416.0L559.5,416.4L555.3,415.2L551.8,415.5L549.0,417.5L549.8,422.0L550.0,426.2L548.1,430.2L548.2,435.5L551.7,442.0L556.0,448.0L558.9,453.6L568.6,458.7L571.3,459.2L585.7,453.8L591.6,452.7L601.4,453.5L608.0,456.6L612.3,456.1L611.8,442.9L613.0,440.7L611.1,435.9L602.0,433.7L601.6,423.7L607.2,420.4L616.2,421.9L621.0,416.7L624.3,419.3L627.7,424.1L632.3,423.9L631.1,421.1L631.5,418.0L629.5,416.6L628.6,414.6L626.3,406.4L625.8,401.9L626.6,395.6L630.2,397.7L633.7,405.5L636.8,401.1L638.6,390.0L640.6,385.5L645.9,385.9L652.6,387.8L665.2,383.3L670.9,386.3L676.4,391.5L682.3,396.3L685.5,399.2L686.8,396.8L685.4,393.0L688.2,388.2L689.6,382.2L685.0,380.5L682.2,376.7L680.3,362.7L681.4,353.7L679.7,341.7L674.5,337.9L666.8,336.2L654.2,332.4Z " data-id="HU.CS" data-name="Csongrád" id="HU.CS"/>
utf-8utf-8<path d="M734.9,114.5L734.8,116.1L728.8,125.3L727.8,127.7L728.8,134.4L727.9,138.9L725.1,141.7L726.6,148.6L718.6,149.8L718.7,151.3L714.2,160.1L707.3,166.5L696.5,167.5L701.0,177.0L707.3,182.1L712.4,184.0L717.3,184.5L722.3,188.3L725.1,195.8L728.6,211.8L732.1,220.7L734.4,229.6L734.9,241.5L731.7,251.0L751.4,261.3L758.0,263.3L764.8,263.9L775.1,268.0L778.7,273.5L780.0,287.1L780.3,292.4L782.5,295.4L786.2,296.3L789.3,298.6L788.4,303.2L791.5,305.6L796.6,306.5L806.8,304.0L813.2,304.1L822.5,295.2L828.6,292.5L832.3,291.7L832.0,291.1L837.2,285.1L840.3,282.4L847.2,278.1L850.0,275.6L850.8,273.9L852.9,267.1L857.7,260.5L856.7,254.9L857.1,252.8L859.1,248.3L860.1,241.6L860.8,239.4L865.8,232.2L868.2,229.6L870.8,228.1L877.3,226.5L879.7,221.2L878.8,215.0L876.8,208.4L875.7,202.6L878.1,198.0L882.0,193.8L890.7,187.9L897.8,186.3L898.6,185.8L895.0,182.2L890.7,171.3L887.8,168.0L881.6,174.6L877.3,171.3L877.6,166.4L872.5,159.8L861.5,154.9L856.4,155.1L853.4,160.4L852.0,164.4L849.5,166.8L846.2,165.2L843.2,162.4L840.0,161.3L836.8,161.2L830.3,159.3L827.1,156.9L819.7,155.6L816.9,152.7L801.8,143.4L801.3,132.8L802.0,122.7L800.1,118.8L795.2,117.4L789.8,120.3L765.7,121.8L759.3,124.1L746.0,115.8L734.9,114.5Z M803.2,167.5L805.6,168.9L806.9,163.2L814.4,162.3L818.0,170.9L822.3,179.4L827.0,184.2L833.5,180.9L837.9,175.6L843.0,174.2L849.4,180.4L855.2,188.0L856.1,199.9L853.9,207.1L844.7,217.1L838.1,211.8L832.5,212.8L825.1,221.9L816.0,221.9L813.3,214.2L809.2,211.8L804.3,210.1L800.3,201.1L790.0,201.1L788.6,191.5L790.8,180.6L795.4,165.1L801.2,159.4L804.0,157.5L803.2,167.5Z " data-id="HU.HB" data-name="Hajdú-Bihar" id="HU.HB"/>
utf-8utf-8<path d="M627.1,78.6L618.7,89.2L613.3,86.1L608.0,86.4L604.0,89.6L598.8,89.6L596.1,87.9L593.9,85.2L591.7,84.6L589.3,84.9L586.2,81.8L582.3,79.3L579.1,80.5L577.7,81.3L576.6,82.7L572.6,84.4L569.6,87.3L565.4,88.2L563.5,89.3L563.0,91.9L566.1,93.7L569.8,98.7L571.5,104.9L567.0,105.4L563.7,108.2L562.2,112.9L562.1,117.2L558.6,120.6L554.7,122.8L552.5,121.0L550.0,121.1L548.2,124.0L547.0,127.4L543.4,129.7L538.3,127.3L534.4,129.8L528.0,140.8L522.5,142.3L509.8,156.6L512.3,159.5L516.1,160.7L515.5,163.1L513.9,165.6L515.9,169.1L519.0,171.8L523.7,177.7L524.2,180.9L526.6,183.2L534.4,180.0L542.5,179.3L546.1,181.6L547.9,181.9L555.2,172.3L557.5,170.3L561.0,171.1L568.0,169.2L574.1,170.8L576.0,178.5L579.2,185.6L587.6,190.3L594.9,188.6L592.4,187.1L590.7,184.5L604.5,181.1L606.7,182.5L608.8,187.4L612.0,190.7L618.0,193.3L621.2,199.2L620.6,203.4L622.7,206.7L625.6,209.6L634.7,214.5L638.1,215.3L641.7,214.3L645.4,210.5L650.7,208.9L652.5,207.3L652.9,203.4L654.1,201.8L679.1,186.6L679.5,182.1L680.8,181.9L682.3,179.4L681.1,177.2L682.5,175.9L686.9,174.4L689.1,170.2L689.9,168.8L684.9,168.1L681.3,166.2L664.6,163.4L661.0,159.0L658.4,153.2L650.7,146.3L639.6,131.9L638.4,131.2L637.0,129.6L631.9,130.7L628.9,133.7L629.5,139.0L626.5,142.6L619.9,142.6L615.8,135.5L615.0,127.7L616.1,120.0L613.5,112.8L611.9,106.9L615.5,105.1L617.2,98.5L624.4,99.7L626.2,103.3L626.7,108.7L631.3,112.9L632.8,110.2L638.9,104.3L640.0,96.8L640.1,92.4L638.8,88.0L636.0,85.8L627.1,78.6Z " data-id="HU.HE" data-name="Heves" id="HU.HE"/>
utf-8utf-8<path d="M734.9,241.5L734.4,229.6L732.1,220.7L728.6,211.8L725.1,195.8L722.3,188.3L717.3,184.5L712.4,184.0L707.3,182.1L701.0,177.0L696.5,167.5L692.4,167.8L689.9,168.8L689.1,170.2L686.9,174.4L682.5,175.9L681.1,177.2L682.3,179.4L680.8,181.9L679.5,182.1L679.1,186.6L654.1,201.8L652.9,203.4L652.5,207.3L650.7,208.9L645.4,210.5L641.7,214.3L638.1,215.3L634.7,214.5L625.6,209.6L622.7,206.7L620.6,203.4L621.2,199.2L618.0,193.3L612.0,190.7L608.8,187.4L606.7,182.5L604.5,181.1L590.7,184.5L592.4,187.1L594.9,188.6L587.6,190.3L579.2,185.6L576.0,178.5L574.1,170.8L568.0,169.2L561.0,171.1L557.5,170.3L555.2,172.3L547.9,181.9L546.1,181.6L542.5,179.3L534.4,180.0L526.6,183.2L525.6,188.8L529.0,194.0L534.0,196.6L539.6,196.1L540.7,199.6L541.0,202.7L547.7,207.4L550.9,210.7L580.2,233.5L581.7,236.1L582.1,239.5L581.7,242.4L582.3,245.0L585.3,248.5L590.5,241.6L600.1,231.1L610.2,240.6L621.2,247.8L625.7,254.2L624.8,256.5L620.5,259.5L624.1,264.9L629.6,266.8L629.8,273.0L625.6,275.9L618.0,276.9L609.2,273.1L601.2,268.3L592.3,266.8L592.4,275.9L598.2,284.4L607.2,290.8L617.0,293.9L609.1,299.3L604.3,302.6L603.5,304.1L604.6,305.6L611.1,307.3L611.2,308.4L608.9,311.9L607.4,311.7L604.5,309.6L601.1,309.3L601.4,312.4L604.6,314.0L602.8,317.5L598.2,317.3L593.2,319.0L590.3,323.1L591.3,323.5L589.7,328.3L590.5,330.9L592.8,332.4L595.6,331.7L599.7,332.9L611.4,339.0L628.2,334.1L634.1,338.4L639.7,339.7L644.3,336.4L649.4,335.0L654.2,332.4L651.2,326.2L652.3,320.7L657.8,316.3L663.0,315.8L668.2,316.9L671.9,311.8L676.4,312.8L679.6,310.2L682.1,311.6L684.2,313.8L687.1,313.2L689.8,311.5L692.2,311.1L694.4,309.7L695.4,304.1L694.0,298.0L692.3,295.6L691.8,292.7L697.0,286.8L695.9,283.2L697.2,280.7L699.5,279.2L707.6,269.6L710.5,268.7L713.6,269.5L715.6,268.4L716.6,266.0L718.7,265.3L721.1,260.5L724.6,259.3L726.1,257.3L727.0,254.8L728.9,252.2L731.7,251.0L734.9,241.5Z " data-id="HU.JN" data-name="Jász-Nagykun-Szolnok" id="HU.JN"/>
utf-8utf-8<path d="M75.4,240.6L66.0,243.6L64.2,242.4L60.3,242.4L59.8,244.6L61.9,249.3L64.2,255.9L68.1,264.4L72.9,267.6L76.8,264.2L84.6,265.4L84.4,259.5L85.7,250.3L81.8,241.2L79.4,241.4L75.4,240.6Z " data-id="HU.SH" data-name="Szombathely" id="HU.SH"/>
utf-8utf-8<path d="M80.6,162.8L78.9,159.1L76.9,158.0L64.6,154.1L58.2,153.4L52.9,155.5L52.2,157.3L52.7,159.8L50.8,162.5L45.0,165.1L42.4,167.0L40.0,165.4L35.7,170.9L38.6,172.2L47.2,175.1L51.3,174.3L58.7,176.8L63.4,173.5L69.0,173.4L77.5,175.2L78.5,173.5L77.6,169.0L81.5,164.1L80.6,162.8Z " data-id="HU.SN" data-name="Sopron" id="HU.SN"/>
utf-8utf-8<path d="M225.0,156.6L210.8,160.9L208.8,170.2L200.6,175.8L206.1,182.4L208.3,181.8L213.8,184.9L219.4,181.2L229.0,181.2L235.1,178.4L244.1,173.5L244.9,170.0L242.7,163.8L238.9,157.4L232.2,157.9L225.0,156.6Z " data-id="HU.GY" data-name="Gyôr" id="HU.GY"/>
utf-8utf-8<path d="M354.4,187.0L348.8,180.7L341.0,179.2L335.1,178.5L331.3,182.2L333.5,187.0L332.4,190.7L338.2,196.3L346.4,200.2L348.8,193.9L353.6,190.8L354.4,187.0Z " data-id="HU.TB" data-name="Tatabánya" id="HU.TB"/>
utf-8utf-8<path d="M417.2,214.7L411.9,212.1L407.4,208.4L403.7,209.9L405.2,216.2L408.5,222.5L402.7,228.3L407.4,232.8L408.9,235.5L410.9,237.6L416.1,238.2L419.7,235.4L421.3,230.6L421.9,225.9L422.2,219.2L417.2,214.7Z " data-id="HU.ED" data-name="Érd" id="HU.ED"/>
utf-8utf-8<path d="M352.4,238.3L349.3,237.6L346.0,242.7L338.4,249.8L331.7,257.0L339.4,263.8L344.4,270.5L346.9,277.5L349.1,283.0L357.9,278.2L363.1,280.4L367.7,273.0L369.9,267.9L369.4,262.7L365.5,258.6L365.0,253.8L365.9,247.2L359.9,243.5L355.8,243.5L352.4,238.3Z " data-id="HU.SF" data-name="Székesfehérvár" id="HU.SF"/>
utf-8utf-8<path d="M284.3,272.7L281.7,264.6L276.3,256.5L271.6,252.4L266.7,253.8L265.5,259.7L256.9,260.1L256.8,263.3L259.9,266.4L260.0,271.4L257.7,277.2L267.3,292.1L274.3,293.5L277.3,290.8L279.4,282.6L285.7,284.4L284.3,272.7Z " data-id="HU.VM" data-name="Veszprém" id="HU.VM"/>
utf-8utf-8<path d="M119.7,335.0L125.2,333.0L121.5,318.5L113.5,312.6L102.3,314.2L103.9,325.9L109.5,329.1L110.1,336.5L119.7,335.0Z " data-id="HU.ZE" data-name="Zalaegerszeg" id="HU.ZE"/>
utf-8utf-8<path d="M149.8,396.3L148.0,389.4L143.7,386.0L141.4,377.9L135.2,378.2L134.8,385.7L130.6,386.4L133.1,408.0L139.5,411.7L147.4,412.7L153.1,410.2L151.3,404.6L154.8,403.9L149.8,396.3Z " data-id="HU.NK" data-name="Nagykanizsa" id="HU.NK"/>
utf-8utf-8<path d="M257.1,398.1L255.6,401.5L255.9,406.5L255.5,411.6L252.2,415.5L257.2,425.7L259.5,436.9L265.0,433.0L270.3,435.8L271.7,431.3L274.3,425.1L279.0,421.7L276.7,411.6L271.3,400.9L271.2,399.8L261.4,400.9L257.1,398.1Z " data-id="HU.KV" data-name="Kaposvár" id="HU.KV"/>
utf-8utf-8<path d="M348.0,451.4L342.0,454.8L336.0,453.7L329.6,453.1L323.8,456.8L321.0,460.2L320.1,467.7L323.1,471.6L321.3,476.1L326.5,479.0L332.8,484.0L338.5,486.3L342.4,484.0L344.7,480.1L346.1,475.6L348.5,471.6L351.2,471.6L356.3,472.8L357.5,470.5L354.5,463.2L348.0,451.4Z " data-id="HU.PS" data-name="Pécs" id="HU.PS"/>
utf-8utf-8<path d="M410.4,408.9L407.2,405.2L403.8,405.7L402.8,409.2L399.0,409.8L396.1,408.9L394.1,411.6L391.1,414.1L389.8,416.8L389.7,419.3L392.4,423.0L395.5,421.2L396.1,419.7L398.3,425.0L400.4,426.4L403.4,427.3L405.7,424.1L408.1,419.1L415.4,421.4L418.8,421.8L426.4,423.5L429.9,423.5L431.1,421.2L429.4,418.1L425.6,419.3L425.2,417.4L422.1,415.6L420.9,416.7L417.9,415.6L412.7,415.6L410.4,408.9Z " data-id="HU.SS" data-name="Szekszárd" id="HU.SS"/>
utf-8utf-8<path d="M530.6,295.9L522.6,292.6L520.9,295.9L520.4,300.4L527.3,313.3L533.1,321.1L537.7,331.8L544.0,335.8L548.0,328.1L547.1,319.6L551.0,313.7L556.3,313.7L560.7,310.7L560.5,305.6L557.8,305.0L552.9,305.1L540.8,299.0L533.3,293.1L530.6,295.9Z " data-id="HU.KM" data-name="Kecskemét" id="HU.KM"/>
utf-8utf-8<path d="M627.7,424.1L624.3,419.3L621.0,416.7L616.2,421.9L607.2,420.4L601.6,423.7L602.0,433.7L611.1,435.9L613.0,440.7L611.8,442.9L612.3,456.1L615.9,454.5L617.4,454.3L619.9,454.8L621.2,448.1L623.1,445.8L626.7,446.2L630.6,449.9L633.7,454.7L637.2,454.0L637.1,449.9L633.9,447.7L631.5,444.4L630.9,441.4L632.5,438.5L637.8,439.5L642.0,439.2L641.2,434.8L637.9,434.0L633.8,431.6L634.7,428.9L633.8,426.5L632.3,423.9L627.7,424.1Z " data-id="HU.SD" data-name="Szeged" id="HU.SD"/>
utf-8utf-8<path d="M682.3,396.3L676.4,391.5L670.9,386.3L665.2,383.3L652.6,387.8L645.9,385.9L640.6,385.5L638.6,390.0L636.8,401.1L633.7,405.5L630.2,397.7L626.6,395.6L625.8,401.9L626.3,406.4L628.6,414.6L629.5,416.6L631.5,418.0L631.1,421.1L632.3,423.9L633.8,426.5L634.7,428.9L633.8,431.6L637.9,434.0L641.2,434.8L649.8,433.5L656.4,433.5L663.2,436.5L672.2,437.2L678.8,432.4L681.9,422.1L686.7,416.6L688.8,411.2L690.9,406.0L686.2,407.1L685.5,399.2L682.3,396.3Z " data-id="HU.HV" data-name="Hódmezôvásárhely" id="HU.HV"/>
utf-8utf-8<path d="M601.2,268.3L609.2,273.1L618.0,276.9L625.6,275.9L629.8,273.0L629.6,266.8L624.1,264.9L620.5,259.5L624.8,256.5L625.7,254.2L621.2,247.8L610.2,240.6L600.1,231.1L590.5,241.6L585.3,248.5L589.3,250.7L595.4,258.2L592.3,266.8L601.2,268.3Z " data-id="HU.SK" data-name="Szolnok" id="HU.SK"/>
utf-8utf-8<path d="M774.3,351.2L770.9,344.9L771.9,337.5L764.2,329.0L749.1,323.2L743.9,332.8L738.0,338.7L741.4,348.3L744.2,358.3L752.5,358.2L759.5,357.1L769.0,357.5L774.3,351.2Z " data-id="HU.MC" data-name="Békéscsaba" id="HU.MC"/>
utf-8utf-8<path d="M626.7,108.7L626.2,103.3L624.4,99.7L617.2,98.5L615.5,105.1L611.9,106.9L613.5,112.8L616.1,120.0L615.0,127.7L615.8,135.5L619.9,142.6L626.5,142.6L629.5,139.0L628.9,133.7L631.9,130.7L637.0,129.6L638.3,127.8L639.1,126.1L638.1,122.4L635.8,119.5L632.7,116.8L631.3,112.9L626.7,108.7Z " data-id="HU.EG" data-name="Eger" id="HU.EG"/>
utf-8utf-8<path d="M547.8,82.7L541.6,78.4L537.9,77.4L532.6,79.1L531.2,79.0L529.6,77.2L525.2,82.4L524.8,90.0L523.3,97.7L535.2,99.6L538.8,93.4L545.5,89.1L551.0,83.7L547.8,82.7Z " data-id="HU.ST" data-name="Salgótarján" id="HU.ST"/>
utf-8utf-8<path d="M645.3,93.7L652.7,92.3L661.7,91.8L667.2,97.5L675.7,102.3L684.1,106.6L690.1,106.1L697.4,104.2L701.8,99.4L700.6,95.2L696.6,89.9L696.0,84.2L692.2,77.1L687.5,71.8L681.5,69.0L676.2,69.0L669.4,65.2L654.9,75.1L648.3,80.4L640.4,80.8L636.0,85.8L638.8,88.0L640.1,92.4L640.0,96.8L645.3,93.7Z " data-id="HU.MI" data-name="Miskolc" id="HU.MI"/>
utf-8utf-8<path d="M835.8,102.7L831.2,100.2L825.9,103.5L823.0,101.1L815.5,101.6L813.3,105.9L812.4,109.9L812.3,119.4L812.4,130.8L821.8,133.2L832.3,135.6L837.5,138.5L845.7,137.0L848.4,130.8L848.0,124.2L852.8,123.2L852.4,116.1L851.3,109.4L847.9,106.5L844.4,108.9L836.4,108.5L835.8,102.7Z " data-id="HU.NY" data-name="Nyíregyháza" id="HU.NY"/>
utf-8utf-8<path d="M803.2,167.5L804.0,157.5L801.2,159.4L795.4,165.1L790.8,180.6L788.6,191.5L790.0,201.1L800.3,201.1L804.3,210.1L809.2,211.8L813.3,214.2L816.0,221.9L825.1,221.9L832.5,212.8L838.1,211.8L844.7,217.1L853.9,207.1L856.1,199.9L855.2,188.0L849.4,180.4L843.0,174.2L837.9,175.6L833.5,180.9L827.0,184.2L822.3,179.4L818.0,170.9L814.4,162.3L806.9,163.2L805.6,168.9L803.2,167.5Z " data-id="HU.DE" data-name="Debrecen" id="HU.DE"/>
utf-8utf-8<path d="M420.4,292.4L412.9,299.8L411.8,310.1L414.7,316.4L427.9,323.9L427.7,320.8L428.9,315.8L430.2,313.5L432.6,311.0L432.4,307.5L430.7,299.6L429.5,296.4L420.4,292.4Z " data-id="HU.DU" data-name="Dunaújváros" id="HU.DU"/>
utf-8</g>
</svg>
