<?xml version="1.0" encoding="UTF-8" standalone="no"?>
<svg
   xmlns:dc="http://purl.org/dc/elements/1.1/"
   xmlns:cc="http://creativecommons.org/ns#"
   xmlns:rdf="http://www.w3.org/1999/02/22-rdf-syntax-ns#"
   xmlns:svg="http://www.w3.org/2000/svg"
   xmlns="http://www.w3.org/2000/svg"
   xmlns:sodipodi="http://sodipodi.sourceforge.net/DTD/sodipodi-0.dtd"
   xmlns:inkscape="http://www.inkscape.org/namespaces/inkscape"
   enable_background="new 0 0 1000 995"
   height="143"
   pretty_print="True"
   style="fill:none;stroke:#000000;stroke-linejoin:round"
   version="1.1"
   viewBox="0 0 349.10001 143"
   width="349.10001"
   id="svg3019"
   inkscape:version="0.48.4 r9939"
   sodipodi:docname="id.svg"><sodipodi:namedview
   pagecolor="#ffffff"
   bordercolor="#666666"
   borderopacity="1"
   objecttolerance="10"
   gridtolerance="10"
   guidetolerance="10"
   inkscape:pageopacity="0"
   inkscape:pageshadow="2"
   inkscape:window-width="640"
   inkscape:window-height="480"
   id="namedview3069"
   showgrid="false"
   inkscape:zoom="0.23718593"
   inkscape:cx="-150.5"
   inkscape:cy="-355"
   inkscape:window-x="0"
   inkscape:window-y="0"
   inkscape:window-maximized="0"
   inkscape:current-layer="svg3019" />


utf-8<defs
   id="defs3021">
utf-8utf-8<style
   type="text/css"
   id="style3023">path { fill-rule: evenodd; }utf-8utf-8</style>


utf-8</defs>


utf-8<metadata
   id="metadata3025">
utf-8utf-8<views
   id="views3027">
utf-8utf-8utf-8<view
   h="995.703779632"
   padding="0"
   w="1000"
   id="view3029">
utf-8utf-8utf-8utf-8<proj
   flip="auto"
   id="robinson"
   lon0="97.1487407427" />


utf-8utf-8utf-8utf-8<bbox
   h="1941.65"
   w="1951.99"
   x="135.32"
   y="-94.82"
   id="bbox3032" />


utf-8utf-8utf-8</view>


utf-8utf-8</views>


utf-8<rdf:RDF>
  <cc:Work
     rdf:about="">
    <dc:format>image/svg+xml</dc:format>
    <dc:type
       rdf:resource="http://purl.org/dc/dcmitype/StillImage" />
  </cc:Work>
</rdf:RDF>
</metadata>


utf-8<g
   class=""
   id="provinces"
   transform="translate(-650.5,0.4999992)">
utf-8utf-8<path
   d="m 667.5,30.6 -0.6,0 0.4,0.6 0.2,-0.6 z m 0.3,-1 -0.7,-0.1 1.4,1 -0.7,-0.9 z m -9.8,-6 -0.9,2.1 4.9,2.7 -4,-4.8 z m 16.7,6.1 -1.8,-11.1 -1,-2 1.5,-2.1 0.5,-2.5 1.5,-0.3 0,0 -3.5,-5.6 -2.4,-2.6 -4.2,-0.2 -3.1,0.5 -3.9,-0.9 -3.5,-2.7 -1.5,-0.2 -1.5,3.1 9.8,12.6 2.7,0.7 5.1,7 1.4,0.5 2.8,5.1 1,0.7 0.1,0 z M 651.2,0 651,0.4 l 0.3,0 -0.1,-0.4 z"
   data-id="ID.AC"
   data-name="Aceh"
   id="ID.AC"
   inkscape:connector-curvature="0" />


utf-8utf-8<path
   d="m 821.6,20.2 -0.4,-0.4 -0.4,0.2 0.8,0.2 z m 1,0.4 -0.7,-1.6 -0.2,0.1 0.9,1.5 z m -1.2,-2.1 -1.9,-0.1 1.8,0.5 0.1,-0.4 z m 1.8,-3.2 -0.1,0.1 0.5,0.5 -0.4,-0.6 z m -26.3,20.9 -1.4,3.1 -1.1,0.8 -0.6,3.3 0,0.3 0.2,0 6.5,-0.5 2.7,-0.6 -0.5,3.2 0.2,4.3 2.7,-1.7 -0.5,2.7 1.4,5.1 2.6,1.6 -0.9,3 -0.1,0 -0.2,0 -0.7,0.8 3.3,6.5 4.2,0.7 0,0 -1.1,-2.5 1.5,-5.6 3.3,-2.4 1.9,-2.8 0.4,0.8 2.1,-1 -1.1,-4.1 0.4,-3.9 2.5,-5.8 3.9,0.1 3.8,-0.5 -0.1,-1.7 -2.1,-2.6 -4.9,-3.8 -0.6,-1.6 1.6,-2.4 -3.7,-4.8 0.8,-0.6 -3.6,-3.1 -0.7,-3 1.8,-0.2 0.2,-1.3 2.2,1.3 -1,-2.2 -3.3,-3.9 -3.1,0.2 -2.1,-0.6 -4.2,0.6 -2.4,1.3 -0.7,8.7 -3.3,3.9 0.4,2.1 -1.6,1.6 -0.3,3.2 -1.2,0.6 -0.8,3.3 -1.6,-0.5 -1.1,0.6 z"
   data-id="ID.KI"
   data-name="Kalimantan Timur"
   id="ID.KI"
   inkscape:connector-curvature="0" />


utf-8utf-8<path
   d="m 754.8,107 -1.7,-0.4 -2.1,-4.5 -4.8,-0.1 -5.4,-1.3 -0.1,0 -0.2,1.7 -0.2,0.6 -1.3,-0.3 -0.1,-0.1 0,0.5 -2.5,-0.1 0,0.8 -0.5,4.7 0.2,-0.2 -0.4,3.5 5.3,0.7 3.6,1 1.7,1.1 4.7,1 2.6,-1.2 0.1,-0.1 -1.7,-3.3 0.3,-1.1 2.5,-2.9 0,0 z"
   data-id="ID.JR"
   data-name="Jawa Barat"
   id="ID.JR"
   inkscape:connector-curvature="0" />


utf-8utf-8<path
   d="m 754.8,114.8 -1.1,-0.3 0.4,0.4 0.7,-0.1 z m 0,-7.8 -2.5,2.9 -0.3,1.1 1.7,3.3 0,-0.1 1.5,0.7 7.7,1.3 0,0 1,-1.9 4.6,1.5 0.3,3.1 0,0 0.7,0.2 0.1,0 2.9,-3.3 -0.8,-1.1 3.3,-4.7 0.9,-3.7 0,0 -4.1,-0.4 -3.4,-1.6 -1.6,3.8 -0.8,0.3 -6.4,-1.2 -4.8,-0.2 0,0 z m 12.2,-8.1 -0.2,-0.2 0.1,0.2 0.1,0 z"
   data-id="ID.JT"
   data-name="Jawa Tengah"
   id="ID.JT"
   inkscape:connector-curvature="0" />


utf-8utf-8<path
   d="m 706.1,95.4 -0.7,-1.3 -0.8,-0.3 1.5,1.6 z m -6.9,-27.2 -0.2,0.1 -0.4,0.3 -1.8,1.2 0.6,0.9 2.3,2.9 6,6.5 0.3,2.5 7.4,6.6 2.1,1.5 0.1,0 0.3,-0.1 0.3,-0.2 0.4,-0.3 0.3,-0.3 -0.1,-0.2 -1.2,-3.5 -2.8,-1 -3,-2.4 1.8,-4.9 -2.9,-0.3 -1.4,-2.5 -2.5,-2.4 -0.2,-0.2 0,0 -2.4,-1.2 -1.7,-2.9 -0.7,-0.6 -0.6,0.5 z"
   data-id="ID.BE"
   data-name="Bengkulu"
   id="ID.BE"
   inkscape:connector-curvature="0" />


utf-8utf-8<path
   d="m 735.9,108.5 0.5,-4.7 0,-0.8 2.5,0.1 0,-0.5 0,0 -0.4,-0.8 -0.1,-0.9 0.4,-0.4 0,-0.1 -4.7,-1.1 -2.2,2.7 -2.8,5 -1.5,0.2 8.3,1.3 0,0 z"
   data-id="ID.BT"
   data-name="Banten"
   id="ID.BT"
   inkscape:connector-curvature="0" />


utf-8utf-8<path
   d="m 740.7,100.7 -1.1,0.2 -0.4,0 -0.4,-0.3 0,-0.1 -0.4,0.4 0.1,0.9 0.4,0.8 0,0 0.1,0.1 1.3,0.3 0.2,-0.6 0.2,-1.7 0,0 z"
   data-id="ID.JK"
   data-name="Jakarta Raya"
   id="ID.JK"
   inkscape:connector-curvature="0" />


utf-8utf-8<path
   d="m 757.2,62 -1.2,0 0.3,0.8 0.9,-0.8 z m 4.9,-5.1 -1.2,0.2 -0.3,2.2 2.2,-0.6 -0.7,-1.8 z m 9.9,16.4 1.5,-4.1 -0.9,-2.4 0.8,-5.1 5,-5 2.8,-1.9 4.8,-0.8 2.6,-1.1 1.1,0.4 0.2,-2.1 1.2,-1 1,-4 1.5,-2.3 0.2,-0.2 0,-0.3 0.6,-3.3 1.1,-0.8 1.4,-3.1 0,0 -4.2,1.7 -6.5,-2.6 -2.5,-0.2 -7.2,5.2 -4.9,-0.3 -2.3,1.2 -1,-0.5 -4.7,-4.7 -2.2,-3.9 -1.3,-0.3 -1.9,3.3 -1.2,5.9 -0.6,0.4 1.9,5 1.5,2 -1.5,3.3 3,3 -1.7,1.2 1.9,0 3.1,2.2 0.8,1.6 -1.1,4.1 1.2,1.2 1.1,5.5 -0.3,2.9 2.3,-0.2 2,0.7 1.4,-0.7 0,0.1 z"
   data-id="ID.KB"
   data-name="Kalimantan Barat"
   id="ID.KB"
   inkscape:connector-curvature="0" />


utf-8utf-8<path
   d="m 724.6,98.4 -0.5,-0.6 0,0.1 0.5,0.5 z m -7.7,-8.6 -0.3,0.3 -0.4,0.3 -0.3,0.2 -0.3,0.1 0.1,0 6.7,8.7 1.1,0 0,-3.6 2.9,2 1.7,-2.6 3.1,3.5 1,-2.7 0.8,-5.3 -0.3,-6.5 0,0 -3.8,-3.4 -0.6,1.3 -3.1,2.6 -4.2,5.6 -3.7,-0.3 -0.4,-0.2 z"
   data-id="ID.LA"
   data-name="Lampung"
   id="ID.LA"
   inkscape:connector-curvature="0" />


utf-8utf-8<path
   d="m 704.6,72.4 0.2,0.2 2.5,2.4 1.4,2.5 2.9,0.3 -1.8,4.9 3,2.4 2.8,1 1.2,3.5 0.1,0.2 0.4,0.2 3.7,0.3 4.2,-5.6 3.1,-2.6 0.6,-1.3 3.8,3.4 0,-0.1 0.9,-2.9 -0.3,-3.1 1.4,-2.7 -3.2,-4.8 -5.3,-2.4 -1.5,1.9 1.4,-3.3 -2.6,-3.3 0,-0.1 -4.9,0.5 -2.7,1.5 -0.7,3.8 -1.7,-1.9 -0.2,1.6 -5.8,3 -2.6,0.2 -0.3,0.3 z"
   data-id="ID.SL"
   data-name="Sumatera Selatan"
   id="ID.SL"
   inkscape:connector-curvature="0" />


utf-8utf-8<path
   d="m 740.9,74.5 -0.5,-1.1 -0.5,0.6 1,0.5 z m 1.8,-1.1 -0.4,-0.5 -0.1,0.4 0.5,0.1 z m 5.8,-3 -2.4,3.2 0.7,1.8 2.5,0.9 1.8,-0.9 0.5,-3.2 -3.1,-1.8 z m -14.7,-9.1 -1,1.8 -2.2,-1.2 -2.2,3.1 -0.3,1.4 3.2,-0.1 2.8,3.7 0.3,2.8 3.1,1.2 2.1,-2.3 -2.9,-2.6 -0.7,-4.4 -2.2,-3.4 z"
   data-id="ID.BB"
   data-name="Bangka-Belitung"
   id="ID.BB"
   inkscape:connector-curvature="0" />


utf-8utf-8<path
   d="m 804.3,122.9 -0.2,1.1 0.5,-0.2 -0.3,-0.9 z m -0.3,-4.2 -7.6,-0.7 -0.2,1.1 4.4,3.1 1,2.1 3.9,-3.9 -1.5,-1.7 z"
   data-id="ID.BA"
   data-name="Bali"
   id="ID.BA"
   inkscape:connector-curvature="0" />


utf-8utf-8<path
   d="m 798,109.9 -0.6,-0.3 -0.3,0.2 0.9,0.1 z m -1.7,-0.2 -1,-0.4 0.2,0.5 0.8,-0.1 z m -3,-2.1 -8.7,0.2 3.1,2.7 4.6,-0.8 1,-2.1 z m -17.4,-1.3 -0.9,3.7 -3.3,4.7 0.8,1.1 -2.9,3.3 0.4,0.2 5.2,1.1 0.7,-1 8,1.2 3.7,-0.6 9.2,3.8 -1.5,-3.6 1,-4.8 -2.7,-1.4 -3.2,0.8 -5.2,-0.6 -1.4,-1.9 -2.1,-4.8 -2.3,0.3 -3.4,-1.3 -0.1,-0.2 z"
   data-id="ID.JI"
   data-name="Jawa Timur"
   id="ID.JI"
   inkscape:connector-curvature="0" />


utf-8utf-8<path
   d="m 812.9,79.7 0.4,-1.9 -0.8,0.9 0.4,1 z m -2.2,3.4 1.5,-1.2 -0.2,-4.5 -1.1,-0.3 -0.9,3.4 0.7,2.6 z m -2.6,-22.3 0,-0.4 -2,0.5 -0.8,5.1 -3.5,2.1 -2.7,4.8 -1.9,5.1 0.4,0.2 1.8,4.8 -0.1,1.3 7.4,-3.3 2.3,-1.4 2.4,-3.4 0,-3.1 0.7,1.2 2.3,-4.2 0.3,-1.3 -4.2,-0.7 -3.3,-6.5 0.7,-0.8 0.2,0 z"
   data-id="ID.KS"
   data-name="Kalimantan Selatan"
   id="ID.KS"
   inkscape:connector-curvature="0" />


utf-8utf-8<path
   d="m 861.8,139.3 -0.3,-0.7 -4.2,3.4 3,-0.7 1.5,-2 z m -10.7,-1.3 -1.7,1.5 0.9,0 0.8,-1.5 z m 11.6,-1.8 -0.1,-0.6 -0.4,0.2 0.5,0.4 z m -25.4,-7.4 -7.9,1.1 -0.3,0.6 3.5,1.8 1.9,0.3 3.3,3.6 4.2,-0.1 1.1,-1.3 -2.8,-3.6 -0.8,0.3 -2.2,-2.7 z m 37.4,-2.4 -3.9,1.6 -1,1.9 -2.7,-0.8 -2.2,1.9 -2.2,6.5 2.4,0.1 5.1,-2 2.4,-2.1 2.8,-3.6 -0.4,-1.3 0.8,-2.9 -1.1,0.7 z m -39.4,-3.6 0,1.3 0.5,-1 -0.5,-0.3 z m -1.5,-1.5 -0.7,0.7 -0.1,1.5 0.8,-2.2 z m 28,-0.4 -2,0.7 -0.3,0.6 2.3,-1.3 z m 1,-1.6 -1,0 0,1.2 1,-1.2 z m 5,0 -1.1,-0.6 -4.5,3 2.3,0.4 3.3,-2.8 z m 2.1,1.2 0.1,-1.5 -1.8,1.9 1.7,-0.4 z m 2.7,-2.2 -1.8,2.8 4.4,-0.7 1.6,-1.2 -4.2,-0.9 z m -12,0.3 -5.6,4 -1.9,-1.5 -4.9,1 -0.6,-0.8 -6,-1.7 -1.5,-0.1 -3.8,2.8 1.1,1.9 1.6,-0.4 5.4,1.2 6.7,-0.2 2.5,-1.3 4.7,-0.9 2.5,-2.7 -0.2,-1.3 z"
   data-id="ID.NT"
   data-name="Nusa Tenggara Timur"
   id="ID.NT"
   inkscape:connector-curvature="0" />


utf-8utf-8<path
   d="m 842.7,104.1 0,-5.4 -0.2,3.3 0.2,2.1 z m -2.9,-38.8 -0.4,0.8 -0.9,5.9 -1.7,0.2 -0.4,6.2 0,0.1 0.6,4.6 -0.2,4.6 -2.1,7.1 2.9,2.7 4.5,-1.7 0.8,1 -1.3,-4.1 1.6,-4.3 0.2,-8.4 -0.8,-4.3 0.1,-2.3 2.3,-1.9 3.2,-0.1 0.5,2.1 0,0 2.9,0.9 0.5,0 0.5,-0.4 0.1,-0.1 1.3,-1.5 -2.1,-3.1 -7.8,-4.8 -4.1,0.7 -0.2,0.1 z"
   data-id="ID.SE"
   data-name="Sulawesi Selatan"
   id="ID.SE"
   inkscape:connector-curvature="0" />


utf-8utf-8<path
   d="m 839.6,65.3 -1.5,-4.8 -0.9,-0.4 0.4,-4.4 -0.2,0.1 -1.9,4.8 0,2.5 -1.5,5.6 -2.9,3.8 0.1,3 1.1,3.7 4.1,-0.8 0,0 0.4,-6.2 1.7,-0.2 0.9,-5.9 0.4,-0.8 -0.2,0 z"
   data-id="ID.SR"
   data-name="Sulawesi Barat"
   id="ID.SR"
   inkscape:connector-curvature="0" />


utf-8utf-8<path
   d="m 723.8,51.9 -2,0.1 -0.2,0.5 2.2,-0.6 z m -0.4,-0.7 -0.1,-0.3 -0.5,0 0.6,0.3 z m 0.7,-2.7 1,1.8 1.6,1.1 -2.6,-2.9 z m -1.1,-1.2 -0.3,0.2 0.4,0.6 -0.1,-0.8 z m 0.5,-0.8 1.3,1.7 0.1,-0.3 -1.4,-1.4 z m -1.7,-3.6 -0.1,-0.2 0,0.5 0.1,-0.3 z m 3.5,-0.6 -0.2,-0.2 0,0.1 0.2,0.1 z m -1,-0.4 -0.8,0 0,0.2 0.8,-0.2 z m -2.6,-0.1 -0.3,0.6 0.2,0.1 0.1,-0.7 z m -2.5,0.1 -0.4,-0.7 -0.6,-0.2 1,0.9 z m -0.8,0 -0.2,-0.6 -0.4,0.3 0.6,0.3 z m 0.5,-2 -0.4,0.3 0.9,0.1 -0.5,-0.4 z m 7.1,0.4 -0.3,-0.6 -0.1,0 0.4,0.6 z m -10.6,-0.5 -0.9,-0.7 0.2,0.8 0.7,-0.1 z m 5.3,-1.1 -1.4,1.2 0.7,0.2 0.7,-1.4 z m 3.4,-0.5 -2.6,1.6 2.4,1.6 0.2,-3.2 z m 12.2,-13.2 -0.2,-0.7 -0.1,0 0.3,0.7 z m 19.7,-0.9 0.3,-0.5 0,-0.7 -0.3,1.2 z m -8.2,-1.1 0.3,-0.1 -0.5,-0.2 0.2,0.3 z m -15.1,0 -0.5,-0.1 0,1.2 0.5,-1.1 z m 3.4,-2.2 -0.2,0.2 0.4,0.8 -0.2,-1 z m 15.4,-7.3 -2.4,0.6 1.7,3.1 1.4,-1.4 -0.7,-2.3 z m -2.6,-5.2 0,-0.7 -0.1,0.3 0.1,0.4 z"
   data-id="ID.KR"
   data-name="Kepulauan Riau"
   id="ID.KR"
   inkscape:connector-curvature="0" />


utf-8utf-8<path
   d="m 864.4,40.6 -3.5,-0.3 -3.4,-0.6 0,0 -2.7,0.5 -5.1,2.4 1.3,2 0.1,-0.1 2.6,-0.5 2.3,0.7 7.9,-0.4 3.2,1.6 0.1,0 0.2,-1.6 -3,-3.7 0,0 z"
   data-id="ID.GO"
   data-name="Gorontalo"
   id="ID.GO"
   inkscape:connector-curvature="0" />


utf-8utf-8<path
   d="m 723.5,63.4 -1,-6 -5,-0.4 -2.1,-2.1 0,0 -5.1,0.7 -1.3,1.5 -3,-1.2 -2.5,1.2 -0.8,0.3 0.1,0.3 -2.4,5.4 -2.8,0.1 1.4,4 0.2,1 0.6,-0.5 0.7,0.6 1.7,2.9 2.4,1.2 0,0 0.3,-0.3 2.6,-0.2 5.8,-3 0.2,-1.6 1.7,1.9 0.7,-3.8 2.7,-1.5 4.9,-0.5 0,0 z"
   data-id="ID.JA"
   data-name="Jambi"
   id="ID.JA"
   inkscape:connector-curvature="0" />


utf-8utf-8<path
   d="m 808.2,60.8 0.9,-3 -2.6,-1.6 -1.4,-5.1 0.5,-2.7 -2.7,1.7 -0.2,-4.3 0.5,-3.2 -2.7,0.6 -6.5,0.5 -0.2,0 -0.2,0.2 -1.5,2.3 -1,4 -1.2,1 -0.2,2.1 -1.1,-0.4 -2.6,1.1 -4.8,0.8 -2.8,1.9 -5,5 -0.8,5.1 0.9,2.4 -1.5,4.1 0,0.1 -1.6,1.1 1.4,0.6 2.7,-1.4 2.7,0.2 1.7,5.3 2.4,-2.1 3.5,0.5 2.7,-1.9 3.7,0 2.8,2.3 3,-0.1 0.2,0.1 1.9,-5.1 2.7,-4.8 3.5,-2.1 0.8,-5.1 2,-0.5 0,0.4 0.1,0 z"
   data-id="ID.KT"
   data-name="Kalimantan Tengah"
   id="ID.KT"
   inkscape:connector-curvature="0" />


utf-8utf-8<path
   d="m 936.4,77.9 0.1,0.8 0.1,-0.1 -0.2,-0.7 z m -8,-6.6 0.5,-0.3 -0.1,0 -0.4,0.3 z m 22.6,-1.7 0.1,-0.3 -0.4,-0.2 0.3,0.5 z m -1.4,-2.6 0.4,-1.1 -0.4,-0.1 0,1.2 z m -1.3,-2 0.3,-1.5 -0.5,0.7 0.2,0.8 z m -29,-1.9 -4.7,1.4 2.8,1.8 2.4,-0.9 -0.5,-2.3 z m -2.9,-4.5 -1.5,0 0,0.3 1.5,-0.3 z m 7.4,-2.1 0.3,3.6 0.4,-1 -0.7,-2.6 z m -0.7,-1.4 -3.1,1.3 1.4,-0.1 1.7,-1.2 z m -1.1,-2.6 -0.2,-0.3 -0.2,0.9 0.4,-0.6 z m -6.1,0.3 0,-0.8 -0.3,0.3 0.3,0.5 z m 36.7,32.2 3.2,-4.2 -7.5,-3.1 3.3,-4.8 0,0 0,-2.4 -1.4,0.2 -0.1,2.4 -2.4,-9.7 0.9,-1.6 -0.9,-5.6 -0.8,-1.5 -4.5,0 -9,-2.6 -2.2,1.9 -5.1,1.6 -0.1,2.6 -2.1,2.7 5.8,1.1 0.5,-0.6 1.7,1.8 -0.7,1.5 2.7,3.3 11.5,0.2 1.2,1 -2.4,1.5 -4.2,-1.2 -5.4,2.6 -3.1,0.1 0.6,1.7 5.3,2.8 0.6,2.1 -1.1,0.9 1.7,4.1 3.4,-2.1 -0.2,-1.2 1.8,-2.3 1.5,1.1 0.8,2.2 2.8,0.2 3.8,3.3 0.1,0 z m -34.7,-35.7 0,-0.2 -0.3,-0.2 0.3,0.4 z m 5.1,-0.7 -2.4,0.3 -1.5,1.8 4.8,0.9 -2.5,-2.3 4.8,2.5 -0.3,-2.1 -2.9,-1.1 z m 26.6,-6.4 -0.1,-0.2 -0.1,0.2 0.2,0 z m -23.3,-2.7 0,-0.2 -0.1,0.1 0.1,0.1 z"
   data-id="ID.IB"
   data-name="Irian Jaya Barat"
   id="ID.IB"
   inkscape:connector-curvature="0" />


utf-8utf-8<path
   d="m 677.9,52.9 -1,-1.1 0,0.5 1,0.6 z m 0.5,-2 -1.1,-2.3 0.8,2.7 0.3,-0.4 z m 0.5,-3.9 1.7,0.8 0,-0.2 -1.7,-0.6 z m -9.6,-11.5 -1.8,0.7 2,4.2 2.9,3.1 0.9,-4.1 -4,-3.9 z m 8.6,-1.3 0.2,0.4 0.5,-0.1 -0.7,-0.3 z m -2.5,-22.5 -1.5,0.3 -0.5,2.5 -1.5,2.1 1,2 1.8,11.1 0.4,0.3 5,4 -0.2,1.2 2.9,11.1 0.1,0.1 5.8,-2.4 -1.3,-2.9 3.1,1 0.1,-0.1 0,-0.2 0.4,-2.9 -1,-2.5 1.9,-1 -0.5,-8.8 0,0 -1.5,-0.4 -2.9,-5 -1.5,-0.5 -10.1,-8 0,-1 0,0 z"
   data-id="ID.SU"
   data-name="Sumatera Utara"
   id="ID.SU"
   inkscape:connector-curvature="0" />


utf-8utf-8<path
   d="m 717.8,51.5 -2,-0.5 -0.2,0.7 2.2,-0.2 z m -6.7,-5.4 0.3,-0.3 -0.5,0.2 0.2,0.1 z m 1.6,-2.5 -0.4,-0.7 0.2,0.5 0.2,0.2 z m 0.8,0.5 0.3,-1.6 -0.5,0.3 0.2,1.3 z m -0.7,-1.9 0.1,-0.5 -0.2,0.6 0.1,-0.1 z m -3.5,-2.2 -0.9,-1.3 0,3 3.1,0.2 -0.2,-1.3 -2,-0.6 z m -1.3,0.3 -0.2,-2.6 -1.5,-1.3 -0.2,1.5 1.9,2.4 z m -5.8,-9.4 -2.5,1.1 1.1,1.8 1.4,-2.9 z m -10.8,-4.3 0.5,8.8 -1.9,1 1,2.5 -0.4,2.9 0,0.2 0.2,0.2 0.5,2.5 1.9,0 2.4,2 0.1,1.3 5.6,8.7 1.3,0.6 0.1,0.1 0.8,-0.3 2.5,-1.2 3,1.2 1.3,-1.5 5.1,-0.7 0,0 -1,-4.3 1.2,-0.5 2.2,-3.6 -2.1,-2.1 -7.1,2.4 2.5,-4.5 -3.1,-0.4 -2.5,-5 -5.5,-3 -3,-5 -1.8,0.3 0.4,2.2 -2.2,-1.4 -2,-3.4 0,0 z"
   data-id="ID.RI"
   data-name="Riau"
   id="ID.RI"
   inkscape:connector-curvature="0" />


utf-8utf-8<path
   d="m 864.4,40.6 3,3.7 -0.2,1.6 0,-0.1 1.4,0.3 5.1,-1 6.9,-9.3 -0.8,-1.7 -2.3,0.8 -2.2,3.2 -3.2,2.4 -7.7,0.1 0,0 z m 15.4,-7 0.2,-0.5 -0.3,-0.3 0.1,0.8 z m 1.9,-3.3 -0.6,0.3 0.1,0.2 0.5,-0.5 z m 0.3,-1.8 -0.5,-0.5 -0.1,0.1 0.6,0.4 z m -0.4,-2.6 0.2,-1.3 -0.5,0.8 0.3,0.5 z m 1.3,-7.6 -1.2,-1.8 1.1,2.9 0.1,-1.1 z m 9.1,-1.9 -0.5,-0.9 -0.1,0.6 0.6,0.3 z m -1.1,-0.6 -0.5,-1.8 -0.2,-0.2 0.7,2 z M 892,10 890.9,9.5 891.3,14.3 892,10 z m 1.9,-2.3 -0.2,0 0.1,0.1 0.1,-0.1 z m -4.5,-6.8 -0.1,-0.1 0,0.1 0.1,0 z"
   data-id="ID.SW"
   data-name="Sulawesi Utara"
   id="ID.SW"
   inkscape:connector-curvature="0" />


utf-8utf-8<path
   d="m 886.6,69.7 -1.1,-4.1 -0.4,0.8 1.5,3.3 z m -12.7,-4.1 -0.2,-0.3 -0.3,0.2 0.5,0.1 z m 8,-1.7 0,1.4 6,-0.7 -1.7,-0.7 -4.3,0 z m -6.8,-1.3 -1.5,1.6 5.1,1 2.4,-0.7 -6,-1.9 z m 21.4,-2.5 -0.4,0.4 0.7,0 -0.3,-0.4 z m 3.7,0.7 -0.7,-0.6 -2.6,1.8 0.2,1 4.7,0.2 0.7,-1.2 -2.3,-1.2 z m -1,-1.7 -1.8,0 0.3,0.2 1.5,-0.2 z m -2.8,-3.9 -0.8,-1.4 -0.1,0.2 0.9,1.2 z m 2.4,-3.1 -2.4,-0.7 0,1.6 3.2,3.1 1.1,-0.8 -2,-1.9 0.1,-1.3 z m 14.5,-1.7 -0.6,-1.2 -1.3,-1.1 1.9,2.3 z m -24,-12.9 0.1,-0.4 -0.4,0 0.3,0.4 z m 12.4,-7.8 -2.7,2.3 -1.8,7.5 1.4,1.7 -0.6,2.6 1,1.8 0.4,5.4 1.1,0.7 1.4,2.9 0.4,-1.6 -1.6,-5.2 0.2,-3 5,1 0.9,-1.4 -3.6,-2.5 3.2,-2.4 0.7,-2.3 -0.2,-2.2 -3.3,1.1 -3,5.4 -1.6,-0.5 2.7,-5.5 0,-5.8 z m -2.2,-0.7 0.1,0.6 0.3,-0.2 -0.4,-0.4 z m 3.1,-0.2 -0.4,-0.4 0.1,0.4 0.3,0 z m 3.1,-2.7 -2,1.3 -0.9,1.7 0.4,1.5 1.8,0.3 1.1,-1.8 -0.4,-3 z"
   data-id="ID.LA"
   data-name="Maluku Utara"
   id="path3060"
   inkscape:connector-curvature="0" />


utf-8utf-8<path
   d="m 692.4,74.8 -1.7,-2.5 0.1,2.6 1.6,-0.1 z m -1.9,-2.6 -1.4,-2.3 0.1,3 1.3,-0.7 z m -3.6,-5.4 -0.8,1.2 0.3,0 0.5,-1.2 z m -5.8,-10.2 -0.8,5.4 2.2,2 0.7,-2 -2.1,-5.4 z m 1.9,-10.2 4.5,2.6 4.5,7.9 0.5,2.6 0.8,0.3 2.5,5.8 1,4.1 0,0.1 1.8,-1.2 0.4,-0.3 0.2,-0.1 -0.2,-1 -1.4,-4 2.8,-0.1 2.4,-5.4 -0.1,-0.3 -0.1,-0.1 -1.3,-0.6 -5.6,-8.7 -0.1,-1.3 -2.4,-2 -1.9,0 -0.5,-2.5 -0.2,-0.2 -0.1,0.1 -3.1,-1 1.3,2.9 -5.8,2.4 0.1,0 z"
   data-id="ID.SB"
   data-name="Sumatera Barat"
   id="ID.SB"
   inkscape:connector-curvature="0" />


utf-8utf-8<path
   d="m 764.7,117.3 1.4,0.8 0.5,0.2 1.2,0.5 1,0.1 -0.3,-3.1 -4.6,-1.5 -1,1.9 1.8,1.1 z"
   data-id="ID.YO"
   data-name="Yogyakarta"
   id="ID.YO"
   inkscape:connector-curvature="0" />


utf-8utf-8<path
   d="m 900.1,119 -0.3,0.6 0.4,-0.1 -0.1,-0.5 z m 6.2,0.1 -1.2,0.2 0.4,-0.1 0.8,-0.1 z m -9,-1.1 2.1,0.7 -0.2,-0.4 -1.9,-0.3 z m 24.4,0.4 -2.1,1.8 2.9,-1.9 -0.8,0.1 z m -29,-0.3 -0.4,-0.7 -0.2,0.6 0.6,0.1 z m 19.4,-2.5 -1.5,0.7 1.2,1.4 0.3,-2.1 z m 1.9,-0.6 -0.2,-0.4 -0.1,0.3 0.3,0.1 z m 8.5,-1.1 -0.5,0.2 -0.7,0.3 1.2,-0.5 z m -33.4,0.4 -5.6,0 -1.1,1.4 4.6,1.2 2.1,-2.6 z m 22.5,-0.9 0.1,0.2 0.1,-0.1 -0.2,-0.1 z m -17.4,0.8 0.8,-0.9 -0.5,-0.3 -0.3,1.2 z m 26.4,-1.4 0.5,0.6 0.1,-0.1 -0.6,-0.5 z m 2.4,-0.6 -1.5,0.5 0.6,0 0.9,-0.5 z m 0.8,-0.8 -0.2,-0.2 -0.1,0.2 0.3,0 z m 2.9,-1.4 -0.9,0.2 -3.7,5.5 1.5,1.1 1.4,-1.5 1.7,-5.3 z m -18.9,-1.4 0.1,-0.2 0,-0.1 -0.1,0.3 z m 3.1,-2.4 -0.3,0.1 0.2,0.3 0.1,-0.4 z m 39.5,-1.5 -0.5,-0.8 -0.3,0.3 0.8,0.5 z m -0.9,-1.1 -1.3,-1.1 -0.6,0.6 1.9,0.5 z m 1.7,0.4 -0.2,-0.8 -0.1,0.7 0.3,0.1 z m -3,-0.2 -1.9,-1.9 0,2.3 -1.2,2.3 1.4,1.1 1.7,-3.8 z m -1.4,-5.3 0.2,-0.3 -0.4,-0.3 0.2,0.6 z m -10.6,-2.3 0.1,0.5 0.1,-0.4 -0.2,-0.1 z m -3.3,-0.2 -0.3,0.2 0.2,0.2 0.1,-0.4 z m -36.3,-0.2 0,0 0.1,0.1 -0.1,-0.1 z m 0,-0.2 0,0.1 0,0 0,-0.1 z m 53.2,-0.5 -2,2.5 -0.6,3.1 2.3,2.5 1.2,-1.3 -0.9,-6.8 z m -51.2,-0.2 -0.1,0 0,0.1 0.1,-0.1 z m -0.2,-0.5 0,0 0,0.1 0,-0.1 z m 39.7,2.6 -0.3,0 -0.3,-0.1 0.6,0.1 z m -9.8,-9.6 -0.3,-0.9 -0.1,0 0.4,0.9 z m -2,-3.2 -0.8,-0.6 0.2,0.2 0.6,0.4 z m -1,-1 -0.1,-0.5 -0.2,0 0.3,0.5 z m -30.3,-1.1 0,-0.8 -0.8,0.4 0.8,0.4 z m 11.8,-1.9 0.1,-0.4 -0.2,-0.1 0.1,0.5 z m -3.5,-1 -2.6,0.4 -0.4,1.2 3,-1.6 z m 2.6,-0.3 -0.2,0.7 0.1,-0.3 0.1,-0.4 z m -8.5,-2.4 -0.4,0.3 0.6,0.4 -0.2,-0.7 z m -4.9,-1.3 -3.4,-0.3 -3.3,2.5 1.4,2.3 4,1.9 3.8,-1.8 -2.5,-4.6 z m 8.4,-1.4 -0.9,0.4 0.4,0.3 0.5,-0.7 z m 11.9,-1.4 -3.4,1.4 -0.3,-1.2 -6.4,0.5 -2.7,3 1.5,-0.1 3.6,2 3.2,-1.7 3.8,2 6.2,1.1 2.8,-1.7 -3.3,-3.5 -5,-1.8 z"
   data-id="ID.MA"
   data-name="Maluku"
   id="ID.MA"
   inkscape:connector-curvature="0" />


utf-8utf-8<path
   d="m 813.3,120.5 -3.4,-1.3 -2,4.1 -1.7,0.9 4.1,1.2 3,-4.9 z m 6.1,-0.1 1,-1.9 -1.3,0.2 0.3,1.7 z m 11.8,-1.1 0.3,-0.7 -0.7,-0.1 0.4,0.8 z m -8.5,-1.3 0,3.2 2.1,1.3 -3.8,0.2 -4.9,-2.2 -2.2,1 -0.9,4.4 1.4,0.4 4.6,-0.5 4.7,-1.2 2.3,0 5.4,-1.1 -1.7,-3.8 -1.8,1.4 -0.2,-1.5 -3,0.4 -0.6,-1.7 -1.4,-0.3 z"
   data-id="ID.NB"
   data-name="Nusa Tenggara Barat"
   id="ID.NB"
   inkscape:connector-curvature="0" />


utf-8utf-8<path
   d="m 870,100.1 -0.6,-1.1 -0.1,0.3 0.7,0.8 z m -1.8,-3.8 0,-0.4 -0.4,-0.3 0.4,0.7 z m -1.2,-1.7 0,-0.9 -0.6,-0.2 0.6,1.1 z m -12.8,-2.3 0.2,3.2 0.6,-0.2 -0.8,-3 z m 6.5,-1.3 -2.7,-1.8 -1,5.6 1.8,-0.5 1.9,-3.3 z m 3.4,-2.3 -1.3,-2.5 -1.2,1.5 -1.1,4 -1.6,4.1 1.9,1.4 2.7,-8.2 0.6,-0.3 z m 0.2,-9.3 -0.2,-0.5 -0.7,0.4 0.9,0.1 z m -6.6,-0.2 0.2,-0.5 -0.2,0.1 0,0.4 z m 1.1,-0.8 0,-0.5 -0.3,0.1 0.3,0.4 z m -10.1,-4.8 -0.9,3 1.2,4.5 3.3,3.2 -1.2,4.2 4.6,1.3 0,-2.3 4.2,-1.1 1.5,0.2 -0.3,-3.3 -4.2,-4.1 1.4,-1.2 -0.2,-1.7 0,0 -2.1,-1.2 -2.9,-1 -0.5,-0.1 -0.5,0.4 -0.5,0 -2.9,-0.9 0,0.1 z"
   data-id="ID.SG"
   data-name="Sulawesi Tenggara"
   id="ID.SG"
   inkscape:connector-curvature="0" />


utf-8utf-8<path
   d="m 869.1,65.2 -0.3,-0.1 0.1,0.2 0.2,-0.1 z m 0.9,0.4 -0.6,-1 0.2,1.1 0.4,-0.1 z m -2.2,-3.3 -0.5,-0.8 -0.2,1.3 0.7,-0.5 z m -2.7,-3.9 -2.8,1.1 2.2,2.7 3.1,-1.4 -1.2,-1.8 -0.9,1.3 -0.4,-1.9 z m -8.7,-7 -1.4,0.4 0.6,0.3 0.8,-0.7 z m 0.8,0.3 -0.4,-0.9 -0.1,0 0.5,0.9 z m -13.4,-12 0.1,-0.5 -0.2,0.1 0.1,0.4 z m -6.2,16 -0.4,4.4 0.9,0.4 1.5,4.8 0.2,0 0.2,-0.1 4.1,-0.7 7.8,4.8 2.1,3.1 -1.3,1.5 -0.1,0.1 0.5,0.1 2.9,1 2.1,1.2 0.1,-0.2 -4.6,-8.9 -2.7,-1.6 6.4,-3.2 5.1,-6.2 2.4,-0.2 1.8,1 -1.1,-3.6 -2.5,1.7 -6.6,1.3 -10.4,4.1 -0.7,-2.5 -1.9,-1.4 -1.8,-2.4 -0.7,-3.7 2.1,-5.2 0.8,-0.9 7.2,0.2 0,0 -1.3,-2 5.1,-2.4 2.7,-0.5 0,0 -5.4,-0.8 -0.1,-1.2 -4.5,-0.6 -2,4.1 -2,-1.1 -3.4,4.8 -0.7,1.9 -0.3,5.8 -1.5,3.1 0,0 z"
   data-id="ID.ST"
   data-name="Sulawesi Tengah"
   id="ID.ST"
   inkscape:connector-curvature="0" />


utf-8utf-8<path
   d="m 980.9,117.5 1.7,-4 -2.6,-1.8 -3.6,0.8 -5.3,8 6.1,-0.1 3.7,-2.9 z m -0.4,-10.1 0,-0.8 -0.4,0.7 0.4,0.1 z m -22.4,-45.2 0.8,0.8 4.9,1.8 4,-0.6 -1.1,-0.8 -8.6,-1.2 z m -2.6,-1 -0.2,0.4 0.6,0 -0.4,-0.4 z m -3.9,11.7 -3.3,4.8 7.5,3.1 -3.2,4.2 0.1,0.1 2.2,1.6 5.9,0.6 6.1,3.1 2.6,0.6 4.9,2.6 0,1 3.6,5.8 0.7,3.1 1.7,2.1 0.1,4 1.3,0.8 -0.3,1.9 1.1,0.9 -1.7,6.5 2.5,-2.7 1.5,1.9 10.9,7.8 1,-11.5 -0.1,-8.5 0.9,-3.7 1.5,-23.7 0,-8.4 -2.3,-1.4 -3.9,-1 -1.7,0.4 -9,-5 -5.8,-2.8 -6,3.6 0.9,1.6 -6.6,1.6 -3.2,4.4 -0.4,1.7 -3.2,3.2 -3.6,-0.1 -2.5,-3.2 -0.2,-1 z m 2.4,-15.2 -0.7,-0.9 0.9,1.4 -0.2,-0.5 z m 3.8,-3.6 2.4,1.5 1.2,3.1 3,0 -4.5,-3.9 -2.1,-0.7 z"
   data-id="ID.PA"
   data-name="Papua"
   id="ID.PA"
   inkscape:connector-curvature="0" />


utf-8</g>
</svg>
