<?xml version="1.0" ?>
<!DOCTYPE svg
  PUBLIC '-//W3C//DTD SVG 1.1//EN'
  'http://www.w3.org/Graphics/SVG/1.1/DTD/svg11.dtd'>
<svg enable_background="new 0 0 1000 1099" height="1099px" pretty_print="True" style="stroke-linejoin: round; stroke:#000; fill: none;" version="1.1" viewBox="0 0 1000 1099" width="1000px" xmlns="http://www.w3.org/2000/svg" xmlns:xlink="http://www.w3.org/1999/xlink">
utf-8<defs>
utf-8utf-8<style type="text/css">
<![CDATA[path { fill-rule: evenodd; }]]>utf-8utf-8</style>
utf-8</defs>
utf-8<metadata>
utf-8utf-8<views>
utf-8utf-8utf-8<view h="1099.76886837" padding="0" w="1000">
utf-8utf-8utf-8utf-8<proj flip="auto" id="robinson" lon0="-7.64985972916"/>
utf-8utf-8utf-8utf-8<bbox h="62.87" w="57.22" x="-132.59" y="-921.48"/>
utf-8utf-8utf-8</view>
utf-8utf-8</views>
utf-8</metadata>
utf-8<g class="" id="provinces">
utf-8utf-8<path d="M664.3,845.1L655.7,842.6L641.0,841.0L608.4,845.5L602.2,845.6L599.0,846.8L597.0,848.8L596.2,854.3L596.1,860.4L596.8,864.5L602.7,867.4L604.5,877.9L599.7,879.4L570.6,877.0L566.9,875.7L565.3,874.4L561.3,873.7L554.2,874.1L552.2,874.8L550.8,877.8L550.9,882.4L546.5,883.8L526.9,883.2L522.3,887.0L517.3,895.8L515.3,900.7L518.4,902.4L527.2,902.0L534.2,905.2L534.1,908.1L538.3,911.4L541.0,914.8L542.4,917.8L544.5,925.2L546.3,928.2L554.6,933.3L560.7,938.7L562.3,941.0L563.3,945.6L566.5,947.8L575.2,947.7L578.4,948.3L578.4,948.3L578.9,947.5L581.3,948.7L583.1,955.0L606.4,957.5L607.8,956.1L607.9,953.2L609.9,949.3L614.6,947.4L626.3,948.4L630.5,946.5L636.5,944.4L637.4,942.4L638.6,933.9L645.8,929.9L647.2,926.5L638.8,922.7L634.8,921.8L631.4,922.2L629.2,924.3L628.5,919.7L631.4,916.0L635.7,913.6L639.6,912.7L641.7,917.3L643.2,918.4L645.4,918.1L648.6,914.6L656.9,913.1L672.4,906.6L714.9,903.1L723.2,904.7L727.3,904.7L731.8,903.1L735.9,898.1L738.7,897.3L743.2,898.9L745.5,899.3L743.8,896.2L742.5,895.4L742.6,893.7L748.4,893.7L753.2,895.4L746.7,902.0L745.2,905.2L750.0,904.2L760.0,904.0L765.0,903.1L768.9,900.7L775.6,893.9L779.2,891.6L779.2,889.7L773.7,889.7L773.3,887.0L776.5,880.1L775.8,877.3L772.3,868.5L772.1,867.1L771.2,866.0L767.8,867.0L762.6,869.8L769.1,879.4L762.8,883.9L758.0,882.7L747.4,883.9L739.3,877.7L736.6,865.8L733.7,865.9L729.8,867.5L726.2,871.3L722.4,872.1L719.1,870.4L712.8,866.1L705.9,859.6L701.8,854.5L699.1,852.5L690.7,847.8L664.3,845.1Z " data-id="IE.WD" data-name="Waterford" id="IE.WD"/>
utf-8utf-8<path d="M327.3,588.4L335.1,585.8L339.6,585.2L356.9,587.1L356.8,589.0L364.0,589.0L361.9,578.6L351.1,574.6L336.5,569.4L326.2,575.6L318.9,582.0L317.9,589.0L327.3,588.4Z " data-id="IE.GY" data-name="Galway" id="IE.GY"/>
utf-8utf-8<path d="M449.3,974.3L454.0,972.3L458.5,971.8L447.0,965.0L435.6,963.3L426.9,969.4L423.8,979.0L431.1,982.9L442.1,983.4L452.3,983.4L456.6,976.5L449.3,974.3Z " data-id="IE.CK" data-name="Cork" id="IE.CK"/>
utf-8utf-8<path d="M427.7,753.1L421.6,753.4L418.9,751.1L416.0,752.6L414.5,757.2L408.3,759.0L412.4,765.5L425.1,767.2L430.6,762.2L430.1,752.4L427.7,753.1Z " data-id="IE.LK" data-name="Limerick" id="IE.LK"/>
utf-8utf-8<path d="M760.5,870.6L753.7,871.5L747.6,870.7L741.8,867.7L736.6,865.8L739.3,877.7L747.4,883.9L758.0,882.7L762.8,883.9L769.1,879.4L762.6,869.8L760.5,870.6Z " data-id="IE.WD" data-name="Waterford" id="IE.WD"/>
utf-8utf-8<path d="M686.4,838.4L685.7,834.8L686.5,829.5L686.9,824.0L685.9,821.0L679.7,815.7L676.9,812.8L671.7,808.8L674.5,806.1L677.8,804.6L680.8,800.5L680.9,798.3L679.7,796.9L676.2,797.3L673.9,794.8L673.8,790.2L675.1,779.1L674.4,777.9L670.6,774.6L670.8,770.7L669.9,768.3L664.0,762.6L654.3,746.0L651.4,742.9L647.1,741.1L642.2,738.5L637.3,737.0L633.2,741.4L633.0,746.7L635.2,752.2L633.6,758.8L620.5,773.9L603.4,781.5L588.5,786.0L577.2,785.4L574.0,783.9L570.3,794.1L567.4,795.1L567.2,793.8L570.1,784.3L563.3,780.9L544.9,762.8L533.2,752.5L524.1,752.5L513.7,755.5L512.4,760.6L511.6,763.2L508.5,769.5L507.4,775.0L505.9,777.9L504.3,779.2L504.0,790.7L502.6,796.5L499.9,798.6L495.0,798.1L487.5,799.7L483.2,804.2L483.1,807.6L482.3,809.0L479.3,808.8L479.2,802.5L478.4,801.2L474.0,801.6L469.1,805.2L467.4,807.8L466.1,816.6L469.6,819.0L480.0,819.9L483.5,821.2L491.9,827.7L497.8,827.7L500.8,831.0L503.4,836.0L506.8,839.2L512.9,839.5L513.8,842.4L511.3,849.2L511.0,851.0L515.9,854.3L515.0,857.0L509.0,863.0L512.6,865.7L514.9,873.2L520.3,877.4L526.9,878.9L527.5,880.8L526.9,883.2L546.5,883.8L550.9,882.4L550.8,877.8L552.2,874.8L554.2,874.1L561.3,873.7L565.3,874.4L566.9,875.7L570.6,877.0L599.7,879.4L604.5,877.9L602.7,867.4L596.8,864.5L596.1,860.4L596.2,854.3L597.0,848.8L599.0,846.8L602.2,845.6L608.4,845.5L641.0,841.0L655.7,842.6L664.3,845.1L690.7,847.8L686.4,838.4Z " data-id="IE.TY" data-name="South Tipperary" id="IE.TY"/>
utf-8utf-8<path d="M923.4,557.9L919.6,557.9L917.1,559.0L913.6,557.9L909.0,557.9L906.4,560.4L903.4,560.7L899.2,558.9L896.9,562.4L894.6,569.6L888.5,575.7L885.6,583.0L886.4,586.2L890.3,588.9L890.2,589.8L886.7,592.7L886.4,593.8L888.0,594.9L894.0,595.0L897.1,596.6L898.4,599.5L916.7,603.5L920.8,605.9L920.8,606.9L925.6,612.1L929.1,612.7L931.6,610.7L934.9,602.9L936.9,601.6L938.2,601.4L939.0,597.9L939.7,593.3L939.4,588.1L942.5,585.0L943.8,581.2L942.1,575.6L937.0,572.5L928.9,570.8L926.8,567.7L920.8,568.7L919.5,566.6L922.4,563.1L926.3,561.8L923.4,557.9Z " data-id="IE.DN" data-name="South Dublin" id="IE.DN"/>
utf-8utf-8<path d="M1000.0,524.2L997.7,524.3L996.3,526.2L998.3,528.2L1000.0,528.6L1000.0,524.2Z M962.0,485.2L958.5,486.7L952.1,486.6L951.0,487.5L947.3,494.5L943.9,497.7L939.9,499.5L936.6,502.0L933.1,502.7L929.0,498.4L922.0,498.3L915.6,503.2L913.4,507.8L914.0,510.1L919.7,515.5L925.9,518.4L929.4,522.4L932.3,524.8L931.4,528.3L928.9,531.8L925.7,537.5L918.3,539.6L911.5,547.1L902.8,553.7L899.2,558.9L903.4,560.7L906.4,560.4L909.0,557.9L913.6,557.9L917.1,559.0L919.6,557.9L923.4,557.9L926.3,561.8L927.2,557.9L934.3,551.0L941.0,546.5L947.0,548.2L952.2,547.9L955.6,544.1L968.6,545.1L969.8,554.2L973.7,552.8L975.8,552.5L980.1,556.5L983.2,557.7L986.1,559.7L988.8,559.6L991.5,554.5L987.5,552.5L978.5,552.1L975.0,550.7L978.2,546.9L976.2,544.9L974.6,538.6L960.8,533.5L964.4,531.3L968.9,530.2L972.7,530.7L974.2,533.5L976.2,531.4L979.0,526.3L980.7,524.0L982.4,519.9L986.2,515.4L987.8,511.6L987.5,507.4L986.0,503.7L984.4,501.1L980.1,498.7L973.7,496.3L967.8,493.2L964.3,486.4L962.0,485.2L962.0,485.2Z " data-id="IE.DN" data-name="Fingal" id="IE.DN"/>
utf-8utf-8<path d="M964.8,565.3L972.1,560.6L974.8,559.9L973.1,559.5L970.0,560.3L962.9,564.2L961.5,566.5L963.1,567.7L964.8,565.3Z M926.3,561.8L922.4,563.1L919.5,566.6L920.8,568.7L926.8,567.7L928.9,570.8L937.0,572.5L942.1,575.6L949.8,573.6L956.3,573.6L962.3,573.5L960.8,571.7L955.8,567.5L954.4,565.2L955.2,562.1L968.2,554.5L969.8,554.2L968.6,545.1L955.6,544.1L952.2,547.9L947.0,548.2L941.0,546.5L934.3,551.0L927.2,557.9L926.3,561.8Z " data-id="IE.DN" data-name="Dublin" id="IE.DN"/>
utf-8utf-8<path d="M981.2,605.1L979.1,602.1L978.0,598.0L977.8,594.2L978.2,588.0L980.2,584.6L980.3,582.4L973.8,579.6L967.7,578.5L964.9,576.6L962.3,573.5L956.3,573.6L949.8,573.6L942.1,575.6L943.8,581.2L942.5,585.0L939.4,588.1L939.7,593.3L939.0,597.9L938.2,601.4L939.5,601.8L943.3,604.3L947.0,605.6L950.9,606.0L957.6,603.4L960.8,603.6L970.2,607.8L974.4,608.3L977.6,606.4L981.2,605.1L981.2,605.1Z " data-id="IE.DN" data-name="Dún Laoghaire–Rathdown" id="IE.DN"/>
utf-8utf-8<path d="M858.9,410.0L875.5,418.3L879.6,421.3L880.1,426.6L884.0,435.7L886.6,438.7L888.5,439.3L892.1,444.0L896.0,447.0L898.0,447.8L905.4,447.9L910.1,449.9L905.6,457.0L907.0,461.3L909.7,462.6L915.6,461.9L936.6,462.7L938.6,462.6L952.6,458.7L952.3,451.5L953.7,444.0L958.3,440.2L953.6,437.3L951.6,433.0L952.0,428.1L954.5,423.1L954.6,421.1L938.5,419.4L931.3,416.5L926.7,411.6L925.6,406.7L926.0,401.7L927.5,393.5L929.1,388.9L931.9,385.2L933.4,382.6L930.8,381.3L930.9,379.2L942.3,380.3L957.4,385.3L960.5,384.9L963.4,386.8L968.4,389.2L973.8,390.7L977.6,389.6L984.9,383.3L985.9,379.8L981.8,375.2L973.8,373.5L972.5,372.6L969.5,368.7L964.7,366.5L948.3,354.4L945.0,354.7L938.9,356.4L936.4,355.0L934.8,353.1L933.1,352.9L930.0,356.6L930.0,362.8L929.0,365.1L927.6,366.0L922.4,366.7L916.8,368.2L913.9,367.5L911.7,364.6L905.6,364.8L886.8,370.0L881.8,368.8L880.1,369.1L877.8,371.3L883.6,372.4L885.4,373.1L887.3,375.5L888.6,379.3L888.4,384.1L889.0,385.7L887.1,390.1L884.7,391.0L877.9,388.7L874.2,390.4L869.9,395.0L869.4,397.1L870.0,400.7L871.1,401.8L870.4,404.7L858.9,410.0Z " data-id="IE.LH" data-name="Louth" id="IE.LH"/>
utf-8utf-8<path d="M177.3,624.2L171.9,621.0L166.7,621.1L164.3,623.6L171.3,627.5L196.6,636.7L200.7,635.8L201.1,633.7L199.5,633.6L194.5,631.5L194.5,629.7L196.5,627.6L195.0,625.6L189.5,623.9L185.3,623.4L179.9,624.3L177.3,624.2Z M199.5,597.1L204.2,592.0L199.3,585.2L197.4,583.7L194.6,583.2L191.4,583.7L188.8,585.2L186.5,587.8L187.7,591.4L188.2,595.4L191.9,598.8L199.5,597.1Z M390.5,475.8L383.6,479.0L374.3,480.9L359.9,480.9L356.1,482.4L354.4,488.9L347.9,495.2L345.7,499.5L339.6,502.7L341.2,506.1L339.6,509.5L330.4,518.0L326.6,522.2L324.7,523.8L319.3,527.0L306.6,529.5L305.0,529.4L298.2,526.9L294.5,522.1L289.5,519.9L288.1,518.2L286.3,512.4L283.2,510.9L275.1,510.9L272.6,509.8L273.1,505.0L270.9,504.4L250.0,505.5L247.4,505.0L242.0,502.8L238.5,500.5L230.5,498.9L229.5,494.6L227.9,492.1L221.4,493.9L197.3,494.1L197.3,495.3L180.2,494.4L169.9,493.0L165.4,490.5L163.2,489.7L160.2,490.0L152.5,493.6L146.2,494.8L129.2,493.6L120.8,495.0L123.9,498.4L136.7,505.1L134.3,506.3L131.1,509.8L128.9,510.5L124.8,505.1L115.1,503.1L105.4,503.1L106.7,508.8L101.2,508.5L96.0,507.3L90.9,507.2L85.7,510.5L87.7,512.0L90.3,511.9L96.7,510.5L98.7,511.9L100.3,515.1L101.4,520.2L105.8,524.2L113.9,526.9L122.0,528.1L126.3,527.8L124.3,530.8L119.9,530.3L114.7,528.4L109.9,527.8L112.5,532.1L114.5,533.2L117.0,533.5L116.9,535.5L113.5,538.3L110.1,538.6L101.9,537.3L97.2,537.7L93.9,539.4L91.4,542.4L89.2,546.9L93.2,546.9L96.9,545.0L99.8,547.7L105.1,548.1L113.9,546.9L116.9,547.7L119.6,552.2L121.7,554.5L127.0,556.3L135.6,556.2L144.4,553.5L144.0,547.8L144.8,545.0L147.4,543.2L153.1,545.0L155.3,544.3L158.7,541.4L161.5,541.1L159.5,543.8L155.0,546.2L153.7,548.7L154.7,551.8L158.1,552.1L161.0,550.6L161.0,548.7L166.1,545.8L168.6,545.0L171.8,545.0L171.7,546.9L167.0,548.7L166.9,550.7L174.5,550.7L174.4,552.5L170.9,554.8L161.7,559.4L151.5,561.8L150.6,563.9L148.7,570.6L147.6,571.7L150.9,573.5L160.6,571.8L164.7,574.6L168.2,577.9L171.7,577.9L182.3,574.3L185.9,571.1L191.6,563.9L194.2,559.5L196.1,557.4L198.8,556.5L203.4,552.5L206.4,554.5L206.4,556.7L203.9,561.6L202.6,566.8L206.3,569.9L210.6,568.7L212.8,564.6L212.7,559.8L210.0,556.5L213.4,554.7L217.3,554.2L225.2,554.5L216.8,558.2L214.2,560.2L222.7,566.8L219.8,571.1L218.8,571.7L214.5,569.9L210.0,572.3L211.0,584.9L206.4,590.7L206.3,592.8L209.6,596.1L213.1,595.7L215.8,592.1L217.2,586.1L219.5,581.0L223.2,580.9L224.6,584.1L220.1,589.0L222.9,591.3L224.6,594.1L227.0,596.6L231.5,598.3L240.7,598.3L245.6,597.3L249.0,595.4L256.0,592.8L317.9,589.0L318.9,582.0L326.2,575.6L336.5,569.4L351.1,574.6L361.9,578.6L364.0,589.0L356.8,589.0L353.8,590.1L348.0,591.4L345.9,592.8L345.8,594.5L352.0,594.5L351.8,596.4L347.6,596.6L337.5,598.5L333.5,600.4L336.6,601.6L358.2,602.1L364.3,600.4L366.6,600.4L359.0,604.6L355.4,607.6L352.4,611.8L354.7,615.6L356.3,621.3L353.1,620.8L350.5,619.6L346.2,615.6L347.5,613.0L345.8,612.6L343.2,613.5L340.6,615.7L337.8,615.3L332.8,613.5L332.7,615.6L341.6,619.6L341.5,621.0L341.6,623.6L338.4,625.0L337.0,627.7L337.5,630.9L341.0,635.3L364.2,645.8L366.3,659.9L365.0,661.3L365.0,666.6L366.7,669.3L369.9,670.6L372.2,670.8L376.4,667.8L381.1,669.8L383.5,669.8L388.4,668.5L391.6,666.2L396.4,663.5L402.1,657.1L413.5,653.5L429.1,652.7L434.0,653.5L441.2,657.7L446.1,659.7L448.4,661.4L450.9,667.1L454.7,668.6L462.1,669.9L464.6,669.8L471.0,667.9L479.7,669.8L483.4,669.7L491.4,667.5L492.5,664.8L499.9,656.8L506.8,647.8L512.9,644.2L521.0,634.8L527.7,623.9L531.6,619.4L536.2,617.5L541.2,616.6L545.2,614.5L553.8,609.9L563.5,607.0L567.6,604.1L569.5,599.3L567.8,596.0L556.4,588.9L553.6,585.9L553.4,584.9L545.6,584.8L533.1,583.9L527.6,580.7L524.9,577.4L523.6,573.9L524.1,569.2L523.6,567.5L520.5,565.3L516.6,563.4L513.1,560.9L512.5,559.0L513.8,554.6L515.9,551.1L514.1,547.3L510.9,544.1L510.7,540.5L512.9,538.5L505.6,529.1L506.0,524.8L504.6,519.9L505.9,514.9L505.3,511.9L502.7,506.5L503.7,504.3L505.6,504.1L504.6,503.1L496.8,498.8L491.8,495.1L486.7,492.7L485.5,491.5L484.0,488.1L481.9,485.5L484.1,483.7L488.5,483.4L490.2,481.4L488.1,478.9L476.9,475.1L472.9,473.0L471.6,469.3L471.8,466.7L470.4,464.8L465.9,463.1L444.9,462.5L439.5,465.0L432.1,467.5L430.1,468.5L425.5,473.7L402.1,478.0L393.8,477.9L390.5,475.8Z " data-id="IE.GY" data-name="Galway" id="IE.GY"/>
utf-8utf-8<path d="M147.8,379.2L143.7,377.7L124.8,377.3L120.2,379.1L114.5,382.3L108.8,383.5L104.4,379.2L98.7,380.8L97.1,379.2L94.2,384.7L90.3,387.5L85.5,388.5L79.9,388.7L79.8,390.6L85.5,390.6L96.0,393.7L102.0,394.3L118.6,391.6L123.0,392.6L125.2,395.0L125.3,397.6L123.7,404.9L124.5,407.6L126.8,408.0L132.6,407.8L137.3,411.1L141.2,415.0L145.2,416.8L150.1,413.5L149.5,409.7L150.4,404.8L152.1,400.5L154.0,398.3L154.1,396.4L152.5,395.0L145.2,396.4L145.4,394.3L147.7,388.9L147.3,386.6L151.8,386.6L147.8,379.2Z M197.3,494.1L221.4,493.9L227.9,492.1L229.5,494.6L230.5,498.9L238.5,500.5L242.0,502.8L247.4,505.0L250.0,505.5L270.9,504.4L273.1,505.0L272.6,509.8L275.1,510.9L283.2,510.9L286.3,512.4L288.1,518.2L289.5,519.9L294.5,522.1L298.2,526.9L305.0,529.4L306.6,529.5L319.3,527.0L324.7,523.8L326.6,522.2L330.4,518.0L339.6,509.5L341.2,506.1L339.6,502.7L345.7,499.5L347.9,495.2L354.4,488.9L356.1,482.4L359.9,480.9L374.3,480.9L383.6,479.0L390.5,475.8L396.7,469.8L404.9,467.8L411.1,464.8L415.8,460.9L418.6,455.5L420.8,447.8L421.2,442.4L419.3,440.1L412.5,436.4L414.8,429.6L419.9,423.1L420.0,420.7L421.5,418.9L426.4,418.8L429.7,420.2L433.3,418.6L434.2,415.6L433.5,411.8L426.3,408.2L424.2,404.9L425.5,399.0L424.0,396.5L425.1,393.1L429.0,392.8L439.3,396.7L442.0,396.9L446.0,395.2L445.2,391.0L446.4,382.6L445.3,379.6L433.6,374.7L429.5,374.7L427.2,376.8L423.5,381.7L418.8,383.0L415.6,385.3L410.2,386.7L408.3,389.3L404.5,391.1L394.9,392.0L389.0,391.3L385.9,387.1L382.8,384.7L381.2,378.3L377.7,377.8L374.1,379.2L368.6,379.5L364.7,377.6L357.3,376.8L354.1,375.5L354.6,372.3L356.0,369.3L358.2,366.9L363.1,364.2L363.8,361.1L367.1,358.3L369.6,355.0L373.4,354.1L374.3,351.2L371.7,348.4L369.4,344.3L366.4,342.5L352.2,340.1L348.2,340.9L342.3,344.4L337.6,344.2L334.9,343.2L329.8,339.3L329.4,337.8L329.3,338.2L328.8,343.2L327.5,343.2L327.8,337.7L326.3,333.5L323.7,330.3L313.6,323.2L312.7,320.6L317.0,318.4L317.2,316.3L312.5,314.6L312.7,312.7L314.4,307.1L313.1,304.9L306.5,306.9L305.4,305.7L304.0,300.5L291.0,295.6L288.4,295.3L284.5,298.1L277.1,301.2L259.9,299.3L255.4,296.0L251.1,295.8L247.0,297.2L244.5,297.5L207.4,295.5L203.2,294.6L195.2,290.7L190.7,289.8L177.8,292.4L177.3,294.4L178.3,298.4L180.5,301.2L191.7,303.2L195.7,304.9L191.0,304.2L186.8,304.9L186.6,306.9L191.0,308.8L192.6,310.3L193.7,312.7L188.9,312.1L181.6,307.9L176.9,306.9L173.5,308.5L169.8,312.4L168.1,316.9L170.8,320.3L167.5,321.8L164.4,324.9L161.3,326.9L157.9,325.0L154.0,323.7L148.9,323.4L145.6,321.7L147.4,316.3L152.6,320.2L158.0,320.7L163.3,317.6L168.6,310.6L167.1,308.9L164.9,310.2L163.0,310.2L159.8,306.9L156.6,308.5L152.8,308.2L149.2,306.7L146.5,304.9L145.2,300.2L144.0,299.3L141.8,299.4L139.3,303.1L129.4,307.3L126.9,308.9L125.0,312.2L123.5,315.8L121.4,318.4L117.3,318.4L119.6,320.8L122.3,321.9L129.1,322.0L126.3,325.4L123.7,327.2L121.7,329.5L120.7,334.5L119.4,337.7L114.0,345.6L112.5,348.9L112.5,354.2L114.3,357.0L117.4,358.1L121.5,358.3L125.2,357.3L124.9,354.8L122.4,352.2L119.6,350.8L124.0,348.9L125.8,348.9L125.6,343.6L124.7,341.9L121.9,341.1L122.0,339.4L126.8,337.4L129.4,337.0L132.5,337.3L129.9,331.6L134.0,332.3L137.8,331.3L139.1,328.9L136.2,326.0L139.6,323.0L144.5,324.5L155.3,331.6L153.8,334.0L151.6,335.1L149.1,335.1L146.3,333.5L153.4,339.9L155.9,343.2L150.2,341.1L151.3,344.4L153.7,347.1L160.1,350.8L156.1,352.5L146.1,354.7L141.9,354.6L145.9,361.8L151.1,365.2L157.3,364.3L164.0,358.3L162.5,358.3L162.6,356.4L166.4,354.8L166.0,352.5L171.7,351.0L174.2,351.1L176.2,352.5L169.9,356.4L171.4,358.3L168.5,359.5L166.5,361.2L166.4,362.8L169.4,363.8L166.8,366.3L163.8,367.0L161.4,368.3L160.1,372.5L160.6,376.6L164.8,383.1L169.9,383.0L170.5,386.8L172.6,393.7L174.0,395.7L176.5,396.4L175.2,394.3L175.3,392.6L178.3,393.0L183.9,398.3L182.8,401.6L182.9,406.9L181.0,407.8L178.6,406.3L178.1,399.8L175.7,398.3L172.7,397.7L166.2,394.3L155.6,396.4L155.5,398.3L157.1,398.3L156.7,405.7L152.9,407.8L151.0,415.5L148.2,417.1L155.1,422.9L167.0,420.8L189.0,411.6L220.1,411.7L226.2,413.5L230.8,411.6L230.2,414.1L225.9,419.2L229.8,421.0L231.6,421.1L223.8,425.8L221.3,428.3L222.0,432.5L217.4,434.4L225.9,437.7L229.2,438.2L229.1,440.2L188.3,445.7L181.6,442.8L178.0,444.7L175.6,445.3L170.4,445.7L164.4,447.5L156.0,448.6L153.9,449.7L155.5,454.8L153.9,459.0L151.2,463.6L149.5,469.5L151.9,482.0L169.1,490.3L178.4,493.0L193.7,492.0L197.4,493.6L197.3,494.1Z " data-id="IE.MO" data-name="Mayo" id="IE.MO"/>
utf-8utf-8<path d="M849.9,406.8L845.1,407.5L840.4,411.1L838.7,413.3L837.2,413.6L829.6,414.0L823.1,417.0L818.3,417.5L813.1,416.6L811.4,415.2L808.0,414.0L805.7,415.3L806.4,419.1L803.6,420.8L798.2,419.5L798.7,422.6L808.3,434.0L809.0,436.8L805.1,439.6L801.0,443.5L794.2,446.0L789.0,446.6L773.8,444.2L765.2,440.9L757.3,439.2L752.8,441.5L746.8,443.3L741.6,445.5L738.6,445.0L732.8,442.6L730.3,441.1L727.1,437.5L724.0,437.1L715.0,440.5L725.9,445.6L729.0,447.8L730.2,449.9L733.8,454.0L738.7,457.5L739.5,458.6L741.1,465.2L752.1,471.1L757.4,473.2L763.1,474.2L766.1,475.4L770.8,479.0L775.3,481.3L776.5,481.1L784.7,475.8L787.7,474.9L792.7,476.0L798.4,481.1L796.8,485.1L795.1,486.5L791.3,495.4L790.7,499.2L785.9,501.1L783.3,502.6L783.0,505.6L784.0,511.6L780.2,520.8L777.5,522.5L775.2,521.8L773.5,522.8L772.0,530.6L771.4,531.5L763.2,536.9L761.0,537.7L754.2,538.1L751.4,539.7L745.9,541.8L744.6,542.8L767.5,557.2L770.8,551.4L773.1,549.5L791.7,537.4L793.8,536.7L798.7,537.4L802.4,536.8L805.8,537.4L808.0,540.6L810.7,542.3L813.5,547.7L818.5,549.4L824.8,550.1L828.2,549.3L829.9,546.8L835.5,543.6L839.0,543.3L854.5,545.2L861.5,549.2L863.4,549.7L869.8,550.3L872.9,551.0L877.8,552.9L884.9,550.5L886.6,550.3L892.4,552.2L902.8,553.7L911.5,547.1L918.3,539.6L925.7,537.5L928.9,531.8L931.4,528.3L932.3,524.8L929.4,522.4L925.9,518.4L919.7,515.5L914.0,510.1L913.4,507.8L915.6,503.2L922.0,498.3L929.0,498.4L933.1,502.7L936.6,502.0L939.9,499.5L943.9,497.7L947.3,494.5L951.0,487.5L952.1,486.6L958.5,486.7L962.0,485.2L958.7,483.5L956.7,482.0L955.2,479.1L953.1,471.0L952.6,458.7L938.6,462.6L936.6,462.7L915.6,461.9L909.7,462.6L907.0,461.3L905.6,457.0L910.1,449.9L905.4,447.9L898.0,447.8L896.0,447.0L892.1,444.0L888.5,439.3L886.6,438.7L884.0,435.7L880.1,426.6L879.6,421.3L875.5,418.3L858.9,410.0L849.9,406.8Z " data-id="IE.MH" data-name="Meath" id="IE.MH"/>
utf-8utf-8<path d="M744.6,542.8L738.7,548.3L735.8,549.9L727.3,551.1L724.1,552.5L702.4,567.0L688.8,571.1L684.2,571.3L671.7,566.6L670.7,567.2L669.9,570.7L668.0,570.7L664.3,566.1L661.9,561.9L659.4,552.8L658.7,552.2L651.6,548.8L648.5,547.9L644.3,548.2L637.2,551.8L632.2,555.7L631.1,558.8L629.2,560.0L617.7,563.5L610.9,564.5L602.4,563.4L597.7,565.6L596.5,565.7L586.9,561.4L576.9,559.7L572.7,563.9L563.3,569.9L561.3,571.7L559.5,574.4L554.5,580.4L553.1,583.3L553.4,584.9L553.6,585.9L556.4,588.9L567.8,596.0L569.5,599.3L567.6,604.1L563.5,607.0L553.8,609.9L545.2,614.5L560.3,624.1L574.1,629.2L576.1,631.1L579.1,638.8L577.6,642.8L575.2,650.9L570.3,652.2L568.4,657.2L568.5,658.3L571.5,663.2L571.3,664.2L568.2,665.1L562.9,664.8L560.6,666.8L561.3,669.6L564.5,672.7L565.9,675.9L565.6,676.9L560.5,682.1L557.7,682.6L553.3,681.1L549.8,681.1L549.1,682.7L551.2,685.8L551.6,690.9L559.8,695.9L561.1,700.1L562.3,702.6L565.1,703.0L568.0,700.8L569.6,697.9L568.6,694.0L574.1,695.2L575.5,694.6L579.4,690.8L582.4,688.5L589.9,683.8L592.0,681.2L590.5,677.7L590.9,677.0L598.0,673.0L600.2,670.6L604.3,670.3L618.6,674.3L622.3,671.2L624.3,669.2L625.7,666.4L626.5,662.2L627.8,658.4L630.4,655.1L634.1,652.8L636.3,650.4L637.2,648.4L639.5,646.1L645.1,642.9L646.8,641.5L650.2,636.2L650.4,635.3L642.2,625.6L640.4,621.0L644.0,616.4L673.5,609.4L678.0,609.5L685.1,611.1L688.7,609.4L690.7,605.6L693.0,604.6L702.3,604.4L705.2,605.8L712.1,614.1L712.4,618.6L714.5,623.2L718.2,624.6L723.9,624.5L727.8,623.9L734.8,621.1L736.7,620.0L740.9,619.3L750.6,619.5L753.0,620.1L756.2,619.4L760.9,615.4L759.0,614.0L750.3,611.6L750.0,610.3L751.6,610.0L756.0,610.4L773.9,610.1L776.5,607.4L778.4,602.3L776.8,601.3L771.2,600.8L768.5,599.3L778.2,592.3L779.9,584.1L783.6,580.5L784.8,574.7L782.5,572.1L768.0,561.0L767.2,560.1L767.5,557.2L744.6,542.8Z " data-id="IE.OY" data-name="Offaly" id="IE.OY"/>
utf-8utf-8<path d="M745.9,541.8L751.4,539.7L754.2,538.1L761.0,537.7L763.2,536.9L771.4,531.5L772.0,530.6L773.5,522.8L775.2,521.8L777.5,522.5L780.2,520.8L784.0,511.6L783.0,505.6L783.3,502.6L785.9,501.1L790.7,499.2L791.3,495.4L795.1,486.5L796.8,485.1L798.4,481.1L792.7,476.0L787.7,474.9L784.7,475.8L776.5,481.1L775.3,481.3L770.8,479.0L766.1,475.4L763.1,474.2L757.4,473.2L752.1,471.1L741.1,465.2L739.5,458.6L738.7,457.5L733.8,454.0L730.2,449.9L729.0,447.8L725.9,445.6L715.0,440.5L703.8,445.0L705.1,446.3L706.9,449.4L706.4,455.4L703.2,458.5L698.7,459.0L695.4,458.4L691.5,458.7L687.2,462.2L685.4,464.6L683.0,465.7L678.6,465.9L676.3,467.4L671.2,473.5L661.2,479.7L659.0,478.7L655.6,478.6L656.4,481.2L662.7,484.3L664.4,486.6L664.4,488.9L662.0,491.1L658.2,492.1L655.9,493.6L652.5,497.0L650.5,498.3L647.1,503.2L644.0,506.2L643.2,510.2L641.4,511.3L637.8,512.4L628.9,513.5L619.2,513.0L604.5,508.8L587.9,510.6L584.2,511.7L575.0,515.9L576.5,525.8L576.3,529.6L575.0,533.0L575.2,535.3L579.9,551.0L579.5,557.2L577.1,559.6L576.9,559.7L586.9,561.4L596.5,565.7L597.7,565.6L602.4,563.4L610.9,564.5L617.7,563.5L629.2,560.0L631.1,558.8L632.2,555.7L637.2,551.8L644.3,548.2L648.5,547.9L651.6,548.8L658.7,552.2L659.4,552.8L661.9,561.9L664.3,566.1L668.0,570.7L669.9,570.7L670.7,567.2L671.7,566.6L684.2,571.3L688.8,571.1L702.4,567.0L724.1,552.5L727.3,551.1L735.8,549.9L738.7,548.3L744.6,542.8L745.9,541.8Z " data-id="IE.WH" data-name="Westmeath" id="IE.WH"/>
utf-8utf-8<path d="M861.6,742.5L855.8,748.8L852.4,750.4L848.8,750.8L847.3,752.5L848.3,755.2L852.4,757.0L852.6,758.2L848.1,762.5L846.7,763.1L842.5,763.4L838.6,762.5L833.2,764.0L827.5,767.0L824.1,770.3L823.5,777.8L822.9,780.4L821.5,782.6L812.1,791.3L809.4,796.8L805.2,802.5L803.4,807.8L799.6,810.7L798.3,810.9L789.6,811.3L790.1,816.1L789.1,820.7L786.9,823.8L782.0,823.8L781.8,831.0L781.2,832.9L777.6,838.4L772.8,842.5L770.9,852.0L766.5,859.4L767.3,862.5L771.6,864.1L771.6,864.1L771.1,860.8L773.8,863.8L776.6,872.5L781.3,875.4L787.1,882.2L790.4,893.6L790.3,896.4L787.7,898.5L782.1,901.7L779.9,905.2L783.6,906.9L786.7,904.6L789.3,901.1L791.7,899.3L808.0,891.6L806.4,889.7L809.4,889.7L809.5,887.6L806.5,887.6L809.8,880.1L805.2,882.2L805.9,880.1L805.4,876.1L807.0,874.4L811.3,875.9L815.7,874.5L819.5,871.5L822.3,868.6L821.7,873.0L819.3,876.5L816.1,879.0L812.7,880.1L812.6,882.2L816.8,883.0L832.5,881.1L848.7,885.0L852.7,886.7L858.2,891.5L862.1,891.9L871.6,887.6L882.2,885.9L886.1,883.8L888.3,883.8L891.3,885.9L886.7,885.9L886.7,887.6L896.3,887.5L900.1,884.9L902.1,882.7L906.0,882.4L906.3,883.7L902.0,889.9L904.7,891.6L910.7,889.7L913.7,886.6L920.5,874.4L909.5,865.4L905.3,859.0L909.2,853.2L909.3,851.4L903.8,858.3L900.9,860.8L899.9,857.8L897.9,855.5L891.1,854.3L892.6,851.4L891.1,847.7L888.7,844.6L885.7,842.5L882.4,841.5L882.5,839.7L884.3,838.4L890.1,835.9L888.6,841.0L893.1,842.1L905.9,841.3L911.0,845.3L911.6,841.6L911.4,836.7L911.7,831.6L913.9,827.2L919.3,820.1L922.8,816.3L926.6,814.7L930.7,811.0L944.7,793.8L947.8,788.9L948.9,777.0L948.4,772.7L946.5,764.7L946.4,760.5L947.7,755.3L958.6,741.1L962.7,734.2L958.2,727.2L955.1,725.7L947.0,725.0L943.0,720.6L938.1,720.7L935.4,722.2L931.9,723.3L926.9,720.8L925.3,720.5L915.7,721.3L908.8,725.5L900.7,736.9L897.8,739.8L894.7,741.4L891.1,745.2L888.2,747.5L879.8,750.6L875.5,750.6L874.0,749.8L869.2,744.9L861.6,742.5Z " data-id="IE.WX" data-name="Wexford" id="IE.WX"/>
utf-8utf-8<path d="M936.9,601.6L934.9,602.9L931.6,610.7L929.1,612.7L925.6,612.1L920.8,606.9L920.8,605.9L916.7,603.5L898.4,599.5L892.5,602.6L890.8,604.4L889.4,607.9L887.3,609.9L881.8,611.2L880.1,613.0L881.1,618.7L876.5,621.2L875.6,622.3L874.9,627.4L872.4,629.9L861.0,637.6L852.9,640.1L848.7,642.1L842.9,644.2L830.8,658.9L826.7,665.5L826.9,668.3L832.8,673.9L837.4,680.2L837.8,682.3L837.1,685.5L863.9,691.3L871.3,694.0L873.4,695.4L879.6,696.5L885.2,694.9L888.2,698.0L888.2,699.0L884.6,702.5L884.7,708.3L883.8,711.4L872.0,716.2L867.8,716.5L865.1,716.0L861.3,712.6L854.4,709.0L852.1,708.9L850.0,712.7L846.4,717.9L845.0,722.9L844.9,725.4L846.4,726.7L848.4,725.9L851.5,726.9L854.2,729.9L855.4,733.9L858.0,737.3L861.6,742.5L869.2,744.9L874.0,749.8L875.5,750.6L879.8,750.6L888.2,747.5L891.1,745.2L894.7,741.4L897.8,739.8L900.7,736.9L908.8,725.5L915.7,721.3L925.3,720.5L926.9,720.8L931.9,723.3L935.4,722.2L938.1,720.7L943.0,720.6L947.0,725.0L955.1,725.7L958.2,727.2L962.7,734.2L963.4,732.9L962.3,726.7L968.1,713.4L970.6,709.3L973.3,706.7L983.0,699.8L981.4,697.7L989.4,684.4L993.1,681.3L995.4,676.1L996.7,674.8L999.5,673.9L999.0,671.8L990.1,663.7L987.3,659.4L988.4,654.9L990.3,650.7L991.8,644.1L992.4,637.3L991.5,632.8L993.1,631.0L986.0,618.9L983.2,615.6L984.9,610.6L983.7,607.5L981.2,605.1L981.2,605.1L977.6,606.4L974.4,608.3L970.2,607.8L960.8,603.6L957.6,603.4L950.9,606.0L947.0,605.6L943.3,604.3L939.5,601.8L938.2,601.4L936.9,601.6Z " data-id="IE.WW" data-name="Wicklow" id="IE.WW"/>
utf-8utf-8<path d="M892.4,552.2L886.6,550.3L884.9,550.5L877.8,552.9L872.9,551.0L869.8,550.3L863.4,549.7L861.5,549.2L854.5,545.2L839.0,543.3L835.5,543.6L829.9,546.8L828.2,549.3L824.8,550.1L818.5,549.4L813.5,547.7L810.7,542.3L808.0,540.6L805.8,537.4L802.4,536.8L798.7,537.4L793.8,536.7L791.7,537.4L773.1,549.5L770.8,551.4L767.5,557.2L767.2,560.1L768.0,561.0L782.5,572.1L784.8,574.7L783.6,580.5L779.9,584.1L778.2,592.3L768.5,599.3L771.2,600.8L776.8,601.3L778.4,602.3L776.5,607.4L773.9,610.1L756.0,610.4L751.6,610.0L750.0,610.3L750.3,611.6L759.0,614.0L760.9,615.4L765.2,615.6L766.2,616.2L767.0,619.5L763.0,620.6L760.8,624.0L762.2,626.9L765.1,631.2L768.0,637.9L768.9,641.7L769.5,646.4L769.3,649.9L767.7,652.4L763.7,655.9L761.8,660.8L762.1,662.6L765.4,666.8L767.6,668.9L771.8,669.7L776.1,671.3L780.7,670.1L785.0,673.7L791.4,684.2L792.4,686.5L793.0,690.9L792.8,694.2L797.9,696.5L801.0,699.0L803.9,700.3L807.0,699.1L812.3,699.7L818.4,698.6L825.6,698.3L829.6,696.7L831.9,693.9L837.1,685.5L837.8,682.3L837.4,680.2L832.8,673.9L826.9,668.3L826.7,665.5L830.8,658.9L842.9,644.2L848.7,642.1L852.9,640.1L861.0,637.6L872.4,629.9L874.9,627.4L875.6,622.3L876.5,621.2L881.1,618.7L880.1,613.0L881.8,611.2L887.3,609.9L889.4,607.9L890.8,604.4L892.5,602.6L898.4,599.5L897.1,596.6L894.0,595.0L888.0,594.9L886.4,593.8L886.7,592.7L890.2,589.8L890.3,588.9L886.4,586.2L885.6,583.0L888.5,575.7L894.6,569.6L896.9,562.4L899.2,558.9L902.8,553.7L892.4,552.2Z " data-id="IE.KE" data-name="Kildare" id="IE.KE"/>
utf-8utf-8<path d="M764.2,717.8L759.3,711.5L752.9,710.4L748.5,705.6L747.2,698.5L740.0,693.8L735.4,693.6L725.5,699.2L723.8,703.1L718.9,703.4L715.1,701.9L710.3,702.7L707.7,704.4L704.1,708.3L702.7,711.2L701.4,712.3L697.3,711.3L694.8,712.7L688.1,718.5L676.8,721.9L672.5,721.1L660.2,715.7L656.7,714.9L653.3,712.6L649.3,713.7L644.7,717.0L640.5,721.9L629.5,723.5L631.6,728.9L632.6,730.8L637.3,737.0L642.2,738.5L647.1,741.1L651.4,742.9L654.3,746.0L664.0,762.6L669.9,768.3L670.8,770.7L670.6,774.6L674.4,777.9L675.1,779.1L673.8,790.2L673.9,794.8L676.2,797.3L679.7,796.9L680.9,798.3L680.8,800.5L677.8,804.6L674.5,806.1L671.7,808.8L676.9,812.8L679.7,815.7L685.9,821.0L686.9,824.0L686.5,829.5L685.7,834.8L686.4,838.4L690.7,847.8L699.1,852.5L701.8,854.5L705.9,859.6L712.8,866.1L719.1,870.4L722.4,872.1L726.2,871.3L729.8,867.5L733.7,865.9L736.6,865.8L741.8,867.7L747.6,870.7L753.7,871.5L760.5,870.6L762.6,869.8L767.8,867.0L771.2,866.0L772.1,867.1L772.1,867.1L771.6,864.1L767.3,862.5L766.5,859.4L770.9,852.0L772.8,842.5L777.6,838.4L781.2,832.9L781.8,831.0L782.0,823.8L786.9,823.8L789.1,820.7L790.1,816.1L789.6,811.3L786.7,794.8L787.1,790.2L789.2,787.9L790.9,782.3L790.8,781.1L788.5,778.1L782.7,773.9L780.2,770.9L778.5,761.6L778.7,757.1L780.1,754.0L777.1,751.8L772.8,745.4L770.7,743.0L767.2,742.7L764.2,744.2L761.9,744.3L758.3,740.0L755.9,739.4L757.0,736.4L757.0,733.0L759.2,727.1L761.5,723.3L766.2,719.8L764.2,717.8Z " data-id="IE.KK" data-name="Kilkenny" id="IE.KK"/>
utf-8utf-8<path d="M756.2,619.4L753.0,620.1L750.6,619.5L740.9,619.3L736.7,620.0L734.8,621.1L727.8,623.9L723.9,624.5L718.2,624.6L714.5,623.2L712.4,618.6L712.1,614.1L705.2,605.8L702.3,604.4L693.0,604.6L690.7,605.6L688.7,609.4L685.1,611.1L678.0,609.5L673.5,609.4L644.0,616.4L640.4,621.0L642.2,625.6L650.4,635.3L650.2,636.2L646.8,641.5L645.1,642.9L639.5,646.1L637.2,648.4L636.3,650.4L634.1,652.8L630.4,655.1L627.8,658.4L626.5,662.2L625.7,666.4L624.3,669.2L622.3,671.2L618.6,674.3L620.7,677.5L624.8,680.6L633.8,682.8L632.3,685.8L628.3,688.0L625.9,689.9L623.4,693.5L621.8,699.8L621.2,705.8L626.4,711.4L627.8,714.4L629.5,723.5L640.5,721.9L644.7,717.0L649.3,713.7L653.3,712.6L656.7,714.9L660.2,715.7L672.5,721.1L676.8,721.9L688.1,718.5L694.8,712.7L697.3,711.3L701.4,712.3L702.7,711.2L704.1,708.3L707.7,704.4L710.3,702.7L715.1,701.9L718.9,703.4L723.8,703.1L725.5,699.2L735.4,693.6L740.0,693.8L747.2,698.5L748.5,705.6L752.9,710.4L759.3,711.5L764.2,717.8L766.2,719.8L772.5,716.4L786.5,713.1L790.7,710.8L792.2,698.0L792.8,694.2L793.0,690.9L792.4,686.5L791.4,684.2L785.0,673.7L780.7,670.1L776.1,671.3L771.8,669.7L767.6,668.9L765.4,666.8L762.1,662.6L761.8,660.8L763.7,655.9L767.7,652.4L769.3,649.9L769.5,646.4L768.9,641.7L768.0,637.9L765.1,631.2L762.2,626.9L760.8,624.0L763.0,620.6L767.0,619.5L766.2,616.2L765.2,615.6L760.9,615.4L756.2,619.4Z " data-id="IE.LS" data-name="Laoighis" id="IE.LS"/>
utf-8utf-8<path d="M604.3,670.3L600.2,670.6L598.0,673.0L590.9,677.0L590.5,677.7L592.0,681.2L589.9,683.8L582.4,688.5L579.4,690.8L575.5,694.6L574.1,695.2L568.6,694.0L569.6,697.9L568.0,700.8L565.1,703.0L562.3,702.6L561.1,700.1L559.8,695.9L551.6,690.9L551.2,685.8L549.1,682.7L549.8,681.1L553.3,681.1L557.7,682.6L560.5,682.1L565.6,676.9L565.9,675.9L564.5,672.7L561.3,669.6L560.6,666.8L562.9,664.8L568.2,665.1L571.3,664.2L571.5,663.2L568.5,658.3L568.4,657.2L570.3,652.2L575.2,650.9L577.6,642.8L579.1,638.8L576.1,631.1L574.1,629.2L560.3,624.1L545.2,614.5L541.2,616.6L536.2,617.5L531.6,619.4L527.7,623.9L521.0,634.8L512.9,644.2L506.8,647.8L499.9,656.8L492.5,664.8L491.4,667.5L493.1,669.0L496.1,670.5L498.0,672.7L496.6,675.6L485.5,686.9L482.7,688.1L473.6,687.7L470.1,690.6L468.3,696.3L466.5,699.6L462.2,704.2L460.8,708.3L458.4,713.1L458.6,719.7L455.4,725.8L451.3,730.4L453.4,734.1L454.0,735.8L455.2,746.3L456.3,749.2L463.2,750.5L481.9,750.6L489.0,748.4L492.9,749.1L496.3,751.1L498.6,755.1L502.0,756.1L513.7,755.5L524.1,752.5L533.2,752.5L544.9,762.8L563.3,780.9L570.1,784.3L567.2,793.8L567.4,795.1L570.3,794.1L574.0,783.9L577.2,785.4L588.5,786.0L603.4,781.5L620.5,773.9L633.6,758.8L635.2,752.2L633.0,746.7L633.2,741.4L637.3,737.0L632.6,730.8L631.6,728.9L629.5,723.5L627.8,714.4L626.4,711.4L621.2,705.8L621.8,699.8L623.4,693.5L625.9,689.9L628.3,688.0L632.3,685.8L633.8,682.8L624.8,680.6L620.7,677.5L618.6,674.3L604.3,670.3Z " data-id="IE.TY" data-name="North Tipperary" id="IE.TY"/>
utf-8utf-8<path d="M30.2,961.7L24.6,961.2L22.4,962.8L10.7,968.8L6.7,972.8L7.2,975.0L11.7,974.5L14.0,972.8L21.7,972.2L30.5,969.1L34.6,967.0L36.3,964.8L35.5,963.0L30.2,961.7Z M130.2,1010.8L135.6,1016.1L136.2,1018.0L136.2,1021.8L139.1,1024.2L137.8,1029.1L138.4,1029.8L146.2,1029.2L149.6,1027.9L161.1,1017.1L172.5,1014.9L176.1,1013.5L177.9,1012.2L185.1,1005.7L187.5,1004.4L201.1,1002.4L210.3,1003.0L214.5,1002.1L220.2,1001.6L223.9,999.9L230.6,992.6L235.8,990.2L238.2,989.5L242.5,989.2L251.1,986.1L258.0,979.0L260.7,976.8L262.2,973.0L256.7,963.3L257.0,961.0L260.5,957.9L266.1,955.7L272.4,951.7L290.2,947.7L295.5,947.6L296.7,947.0L298.5,943.6L298.2,942.7L289.1,939.8L285.5,937.5L279.5,936.0L279.0,932.3L280.1,927.8L282.3,924.6L284.3,923.7L286.4,921.3L282.7,916.8L278.1,904.6L275.1,889.2L274.0,886.3L269.7,879.4L269.8,873.9L272.7,869.4L282.0,862.3L281.4,859.5L279.0,856.0L276.2,853.9L269.9,851.1L266.0,850.3L261.0,845.4L257.5,844.0L257.3,840.9L263.1,837.3L263.2,836.2L261.5,833.8L259.1,831.8L258.4,829.0L259.0,826.7L262.9,822.2L263.0,821.2L259.6,816.2L259.3,813.6L261.5,809.0L262.0,806.8L266.4,801.9L266.3,800.0L258.3,790.3L257.5,785.4L253.7,780.6L237.0,780.2L229.7,784.5L223.9,782.1L206.4,782.1L197.5,780.1L191.8,782.9L190.7,782.1L185.2,786.9L184.2,788.9L184.6,792.3L184.1,793.9L182.2,795.6L182.1,797.5L183.3,798.9L181.8,803.3L185.5,802.9L188.9,803.5L191.4,805.4L192.1,809.2L188.5,807.6L182.8,806.5L177.1,806.4L173.2,808.1L169.7,811.9L166.6,813.9L144.2,821.8L129.3,822.6L125.0,823.7L121.6,826.4L125.4,829.8L131.4,832.1L142.9,833.8L146.4,836.7L144.9,850.4L147.1,855.1L141.4,856.7L139.1,856.8L139.0,858.9L145.1,860.8L141.6,862.0L139.3,862.0L134.8,858.9L135.1,861.5L138.6,866.7L142.0,864.8L145.3,865.4L152.3,868.6L159.2,868.7L162.3,869.5L165.7,872.3L149.6,874.0L146.0,872.3L149.0,870.4L146.4,869.5L143.8,870.6L138.9,875.2L135.7,876.6L126.5,876.5L119.1,875.3L112.5,872.8L109.0,872.3L105.9,870.8L105.2,867.3L105.3,863.0L104.5,858.9L105.7,856.0L103.3,854.9L95.6,855.1L100.5,860.5L98.2,866.4L92.0,871.4L85.3,874.4L70.8,876.1L70.5,874.4L73.8,863.8L70.5,861.5L47.2,866.7L44.6,868.0L39.4,874.1L36.7,876.1L32.4,876.9L29.1,876.8L26.5,877.9L24.1,882.2L27.2,883.9L24.5,886.4L25.1,890.4L24.3,892.6L22.0,893.7L19.3,892.9L14.6,889.7L16.5,885.9L12.3,886.8L7.4,888.9L4.7,891.4L6.8,893.7L6.7,895.4L2.4,898.4L0.5,899.3L2.1,904.9L2.2,909.6L3.4,913.0L8.7,914.6L13.4,913.9L22.4,910.7L27.2,910.6L24.2,906.9L29.4,906.9L39.7,909.8L45.3,910.6L45.4,908.8L37.8,906.9L37.9,905.2L44.2,903.6L46.7,903.8L52.1,908.3L55.3,905.9L57.7,905.2L59.9,906.8L61.9,909.5L64.2,911.2L69.6,908.6L99.7,902.7L106.4,903.1L112.3,905.0L114.4,906.9L115.4,911.4L118.1,906.9L115.5,901.2L159.5,899.3L151.6,903.1L156.1,906.9L139.5,908.6L132.6,908.4L126.0,905.2L120.3,921.7L120.9,924.3L114.7,923.9L112.8,921.7L113.1,916.7L111.5,916.7L106.1,926.2L96.9,930.4L75.7,933.9L61.3,939.2L55.4,942.2L49.2,943.3L44.5,945.2L45.9,949.3L43.2,950.4L37.6,951.9L35.0,953.3L34.9,955.0L39.0,955.4L42.8,961.3L46.6,965.6L45.7,967.6L43.9,968.4L40.1,968.4L21.4,973.6L14.0,974.3L13.9,976.3L16.9,976.3L15.2,980.1L16.6,982.0L14.8,985.1L17.7,985.6L22.2,985.3L25.4,985.8L26.6,989.6L23.4,997.8L24.4,1001.4L27.9,999.7L35.1,994.6L40.5,992.0L46.4,985.3L49.1,983.8L57.8,987.1L61.2,994.2L58.8,1001.0L50.2,1003.1L70.7,1010.9L69.1,1014.6L74.6,1013.3L80.7,1010.5L86.5,1006.9L91.2,1003.1L96.0,1005.2L101.3,1003.4L111.3,997.4L119.3,996.0L122.0,995.3L126.7,991.4L129.8,991.4L127.9,997.4L130.4,996.9L137.2,993.5L136.0,991.4L139.5,990.5L146.8,990.6L150.2,986.9L154.5,984.9L178.2,977.9L194.3,976.3L194.2,978.4L187.0,980.2L173.8,986.0L166.5,987.8L160.6,987.4L154.9,992.7L150.4,994.7L144.4,999.8L141.3,1001.4L141.2,1003.1L147.3,1005.0L147.2,1006.9L138.7,1007.1L134.8,1006.6L132.0,1005.0L131.3,1009.7L130.2,1010.8Z " data-id="IE.KY" data-name="Kerry" id="IE.KY"/>
utf-8utf-8<path d="M502.0,756.1L498.6,755.1L496.3,751.1L492.9,749.1L489.0,748.4L481.9,750.6L463.2,750.5L456.3,749.2L455.2,746.3L454.0,735.8L453.4,734.1L451.3,730.4L444.1,733.4L444.0,736.3L444.7,739.8L444.0,742.9L442.6,744.0L435.5,746.2L432.4,751.3L430.1,752.4L430.6,762.2L425.1,767.2L412.4,765.5L408.3,759.0L404.6,759.5L403.0,758.2L402.1,755.2L399.4,753.6L396.0,753.1L389.8,753.4L382.2,755.3L343.5,759.1L341.0,760.2L336.2,766.8L333.0,767.9L328.5,768.6L324.5,767.9L322.9,764.9L318.7,767.0L291.6,773.6L288.3,775.4L285.2,777.8L281.5,778.9L273.6,780.1L259.6,779.9L256.3,781.1L253.7,780.6L253.7,780.6L257.5,785.4L258.3,790.3L266.3,800.0L266.4,801.9L262.0,806.8L261.5,809.0L259.3,813.6L259.6,816.2L263.0,821.2L262.9,822.2L259.0,826.7L258.4,829.0L259.1,831.8L261.5,833.8L263.2,836.2L263.1,837.3L257.3,840.9L257.5,844.0L261.0,845.4L266.0,850.3L269.9,851.1L276.2,853.9L279.0,856.0L281.4,859.5L288.5,856.9L298.6,850.3L305.5,849.6L311.5,850.3L323.8,853.4L331.2,858.3L335.1,859.7L334.6,857.3L339.0,855.1L352.6,851.7L357.2,845.9L363.1,842.7L365.2,840.4L373.9,835.8L375.9,835.6L390.2,836.7L398.4,836.2L401.8,836.5L403.7,837.2L408.9,844.7L415.8,847.7L418.8,853.0L421.7,855.2L426.2,856.1L428.3,857.3L432.1,861.8L439.5,864.2L443.7,864.3L454.1,861.7L463.9,860.7L465.7,860.2L471.0,856.4L473.5,853.4L477.5,852.0L482.9,854.1L487.4,861.5L489.6,862.6L492.9,863.0L503.0,861.2L506.0,861.6L509.0,863.0L515.0,857.0L515.9,854.3L511.0,851.0L511.3,849.2L513.8,842.4L512.9,839.5L506.8,839.2L503.4,836.0L500.8,831.0L497.8,827.7L491.9,827.7L483.5,821.2L480.0,819.9L469.6,819.0L466.1,816.6L467.4,807.8L469.1,805.2L474.0,801.6L478.4,801.2L479.2,802.5L479.3,808.8L482.3,809.0L483.1,807.6L483.2,804.2L487.5,799.7L495.0,798.1L499.9,798.6L502.6,796.5L504.0,790.7L504.3,779.2L505.9,777.9L507.4,775.0L508.5,769.5L511.6,763.2L512.4,760.6L513.7,755.5L502.0,756.1Z " data-id="IE.LK" data-name="Limerick" id="IE.LK"/>
utf-8utf-8<path d="M587.1,432.0L584.4,428.1L576.2,422.5L574.8,418.8L575.6,417.1L575.3,411.3L573.5,407.2L567.6,400.0L566.4,402.2L559.5,407.8L557.9,406.4L553.9,406.6L552.3,405.7L552.7,399.2L549.7,396.8L551.5,393.5L558.7,386.3L559.4,384.0L556.0,382.4L555.5,381.0L554.5,372.8L554.9,369.6L556.7,367.5L559.6,365.8L562.1,365.6L564.0,358.4L560.0,355.6L549.9,352.5L546.0,351.8L540.9,353.6L540.8,356.4L536.5,360.1L529.9,362.1L526.6,366.6L524.3,368.0L523.4,372.7L520.2,371.3L516.3,371.5L508.5,376.1L507.3,379.2L504.0,383.3L501.5,383.7L495.6,382.7L489.8,384.0L488.9,384.8L488.5,388.6L485.8,394.1L486.9,395.4L491.2,397.2L496.2,397.8L499.4,402.8L498.1,404.8L480.5,404.1L476.8,405.6L478.5,407.1L472.6,407.9L465.7,404.7L461.9,404.0L460.1,401.7L459.9,399.5L456.3,396.0L447.9,396.1L446.0,395.2L442.0,396.9L439.3,396.7L429.0,392.8L425.1,393.1L424.0,396.5L425.5,399.0L424.2,404.9L426.3,408.2L433.5,411.8L434.2,415.6L433.3,418.6L429.7,420.2L426.4,418.8L421.5,418.9L420.0,420.7L419.9,423.1L414.8,429.6L412.5,436.4L419.3,440.1L421.2,442.4L420.8,447.8L418.6,455.5L415.8,460.9L411.1,464.8L404.9,467.8L396.7,469.8L390.5,475.8L393.8,477.9L402.1,478.0L425.5,473.7L430.1,468.5L432.1,467.5L439.5,465.0L444.9,462.5L465.9,463.1L470.4,464.8L471.8,466.7L471.6,469.3L472.9,473.0L476.9,475.1L488.1,478.9L490.2,481.4L488.5,483.4L484.1,483.7L481.9,485.5L484.0,488.1L485.5,491.5L486.7,492.7L491.8,495.1L496.8,498.8L504.6,503.1L505.6,504.1L503.7,504.3L502.7,506.5L505.3,511.9L505.9,514.9L504.6,519.9L506.0,524.8L505.6,529.1L512.9,538.5L510.7,540.5L510.9,544.1L514.1,547.3L515.9,551.1L513.8,554.6L512.5,559.0L513.1,560.9L516.6,563.4L520.5,565.3L523.6,567.5L524.1,569.2L523.6,573.9L524.9,577.4L527.6,580.7L533.1,583.9L545.6,584.8L553.4,584.9L553.1,583.3L554.5,580.4L559.5,574.4L561.3,571.7L563.3,569.9L572.7,563.9L576.9,559.7L577.1,559.6L579.5,557.2L579.9,551.0L575.2,535.3L575.0,533.0L576.3,529.6L576.5,525.8L575.0,515.9L569.9,505.0L563.1,494.9L561.2,489.5L562.9,484.7L569.8,471.8L572.0,468.3L576.3,463.0L580.8,460.6L580.9,457.1L585.0,455.1L587.0,455.4L585.7,451.6L593.4,448.7L594.9,447.6L595.6,444.6L595.1,442.3L593.8,441.2L592.2,441.9L589.2,439.5L587.9,435.9L587.1,432.0Z " data-id="IE.RN" data-name="Roscommon" id="IE.RN"/>
utf-8utf-8<path d="M497.5,253.7L490.3,256.2L483.8,259.5L480.7,252.8L479.1,251.9L478.1,256.6L477.6,262.2L476.8,264.3L471.9,266.2L445.9,279.5L439.5,280.9L436.9,282.1L434.6,283.9L433.5,286.0L433.7,289.0L434.8,289.8L456.3,289.8L461.0,290.8L465.5,293.0L467.0,295.6L462.5,297.5L457.7,294.4L455.0,293.7L453.7,296.5L454.2,298.8L455.7,299.5L460.1,299.3L464.2,299.8L468.3,301.2L472.1,303.5L475.3,306.9L460.2,304.7L456.2,307.2L453.3,306.7L448.6,304.9L446.6,306.0L442.4,310.6L442.3,312.7L445.6,312.7L449.6,313.6L452.8,315.2L455.3,320.4L458.6,322.0L465.5,324.1L465.4,326.0L458.3,325.7L454.9,326.3L451.9,328.0L447.7,322.8L445.3,321.0L439.3,319.1L438.0,316.4L437.6,313.2L436.5,310.6L430.5,308.3L417.1,310.3L411.3,306.9L406.7,309.6L401.9,310.6L391.2,310.6L387.9,310.0L383.2,307.5L379.8,306.5L373.7,303.2L369.8,304.9L356.7,302.6L349.3,303.3L345.9,307.9L343.9,315.1L339.9,320.7L334.8,324.4L329.8,326.0L330.9,330.0L330.4,333.9L329.4,337.8L329.8,339.3L334.9,343.2L337.6,344.2L342.3,344.4L348.2,340.9L352.2,340.1L366.4,342.5L369.4,344.3L371.7,348.4L374.3,351.2L373.4,354.1L369.6,355.0L367.1,358.3L363.8,361.1L363.1,364.2L358.2,366.9L356.0,369.3L354.6,372.3L354.1,375.5L357.3,376.8L364.7,377.6L368.6,379.5L374.1,379.2L377.7,377.8L381.2,378.3L382.8,384.7L385.9,387.1L389.0,391.3L394.9,392.0L404.5,391.1L408.3,389.3L410.2,386.7L415.6,385.3L418.8,383.0L423.5,381.7L427.2,376.8L429.5,374.7L433.6,374.7L445.3,379.6L446.4,382.6L445.2,391.0L446.0,395.2L447.9,396.1L456.3,396.0L459.9,399.5L460.1,401.7L461.9,404.0L465.7,404.7L472.6,407.9L478.5,407.1L476.8,405.6L480.5,404.1L498.1,404.8L499.4,402.8L496.2,397.8L491.2,397.2L486.9,395.4L485.8,394.1L488.5,388.6L488.9,384.8L489.8,384.0L495.6,382.7L501.5,383.7L504.0,383.3L507.3,379.2L508.5,376.1L516.3,371.5L520.2,371.3L523.4,372.7L524.3,368.0L526.6,366.6L529.9,362.1L536.5,360.1L540.8,356.4L540.9,353.6L537.7,351.8L536.0,350.4L529.9,342.6L522.7,340.8L517.7,342.0L515.3,341.6L508.8,337.7L506.1,331.0L502.9,327.8L504.9,319.6L502.8,303.7L501.3,299.3L495.6,294.5L494.3,288.9L495.8,284.2L500.2,281.3L503.9,269.7L502.3,267.4L494.2,266.5L492.4,267.7L489.7,267.2L490.4,265.5L493.6,262.1L497.3,259.7L498.7,258.1L497.5,253.7L497.5,253.7Z " data-id="IE.SO" data-name="Sligo" id="IE.SO"/>
utf-8utf-8<path d="M483.0,113.4L482.3,108.9L480.7,106.5L470.8,102.4L468.8,104.0L470.2,105.9L465.6,107.9L466.0,110.0L465.3,113.4L468.8,115.4L473.5,115.6L483.0,113.4Z M515.3,251.1L517.2,252.6L526.6,254.7L531.0,254.0L543.6,255.1L547.7,253.4L559.4,250.9L564.8,248.5L576.1,236.7L580.9,232.9L597.1,235.8L605.6,236.1L614.1,233.6L636.4,218.3L645.5,216.1L645.2,210.6L642.9,210.1L639.4,211.9L635.7,213.3L632.4,212.3L625.7,207.6L622.8,206.3L617.7,208.6L615.9,208.6L614.2,207.2L612.2,203.7L606.7,202.0L603.2,200.3L601.6,197.4L603.5,193.3L598.8,190.5L609.7,186.5L617.4,181.0L620.3,181.1L626.3,185.1L633.3,187.9L640.7,187.5L648.3,184.4L656.1,178.9L660.0,177.2L667.4,178.7L673.9,177.2L677.9,178.9L680.2,179.0L682.0,176.5L681.4,174.5L682.1,167.6L683.7,163.8L700.1,149.4L703.7,144.5L706.3,138.6L706.4,135.7L705.8,128.7L706.8,125.4L708.7,123.7L714.9,120.2L715.3,117.9L714.4,110.8L716.4,105.7L722.8,98.7L727.7,95.3L741.6,93.8L747.2,88.6L751.4,87.5L754.9,81.3L758.5,76.7L768.4,67.0L771.4,65.0L777.3,63.7L784.4,61.0L792.0,55.6L799.0,52.3L806.3,50.0L812.4,49.1L819.0,46.3L819.9,40.6L817.1,36.4L812.2,38.0L807.9,35.5L798.2,32.4L790.2,31.4L779.7,27.7L776.5,25.6L766.1,13.2L763.3,11.4L755.1,8.1L751.6,7.7L737.0,3.7L729.9,0.7L726.0,0.0L722.5,1.7L726.8,5.2L732.4,7.7L732.6,14.1L738.8,20.2L752.1,28.2L747.7,30.5L743.0,30.4L738.3,28.7L734.3,26.5L740.3,26.5L737.2,21.5L733.0,19.9L728.6,20.9L720.0,27.4L715.3,27.5L710.8,25.5L706.7,22.7L707.8,26.5L704.3,28.3L698.2,26.8L694.6,26.5L696.7,30.9L695.8,36.5L693.2,41.3L688.3,44.5L688.1,47.2L691.2,53.5L696.2,56.7L704.3,66.6L705.8,67.0L705.5,73.6L703.0,77.5L702.0,80.0L703.0,81.2L706.9,82.8L707.6,86.7L706.1,91.1L703.1,94.5L699.4,95.8L694.4,96.7L689.9,98.2L687.9,101.1L685.7,101.5L664.4,116.2L660.4,118.3L656.1,119.2L656.2,117.4L659.2,115.4L666.8,107.9L677.8,102.2L680.5,100.2L683.1,94.4L679.0,92.7L666.0,94.5L666.1,92.6L678.2,87.0L682.3,83.5L684.9,81.9L688.2,81.2L690.4,79.1L691.9,74.6L691.7,70.0L686.5,66.7L684.2,63.6L682.6,59.9L682.6,56.7L676.6,54.4L673.8,52.5L672.8,50.1L674.5,44.3L675.1,40.0L674.1,38.0L672.3,36.7L668.6,31.3L665.0,30.3L662.2,31.0L654.2,35.9L650.8,36.9L643.1,35.9L643.1,37.5L636.7,46.3L635.8,49.8L638.3,51.5L644.6,52.9L650.1,58.1L653.1,58.6L650.7,51.3L650.5,47.4L652.3,45.4L654.9,46.3L656.6,49.4L657.7,55.6L660.4,61.6L661.6,66.0L659.1,69.5L655.3,76.8L653.5,79.3L655.5,69.9L654.9,67.9L651.2,60.6L647.2,57.9L640.1,54.6L638.1,54.9L635.8,56.7L632.5,55.8L630.4,52.9L630.9,50.9L636.5,38.0L635.0,35.9L629.3,40.8L623.5,43.9L619.9,47.3L620.9,52.9L625.5,58.1L625.9,61.1L623.1,66.1L620.9,68.3L616.6,67.8L612.6,68.0L612.7,66.1L617.5,64.8L619.3,63.0L620.5,60.3L617.1,61.1L612.0,63.5L613.1,58.6L610.3,54.6L604.7,56.8L601.5,57.0L598.8,55.0L589.5,58.6L589.6,56.7L599.7,51.6L601.7,48.6L596.1,45.4L591.2,46.0L588.3,50.0L586.1,54.5L583.0,56.7L578.8,57.8L565.4,63.9L558.6,70.7L555.9,72.3L554.9,70.9L555.5,68.3L559.8,62.3L556.2,62.9L549.4,65.5L545.5,66.1L533.5,62.2L530.2,62.3L527.9,65.2L524.0,73.7L521.3,75.5L520.3,77.7L520.9,82.5L522.9,90.6L521.0,92.1L519.3,97.2L518.0,98.3L516.1,97.0L515.8,90.5L513.8,88.9L512.3,89.9L507.7,96.6L505.2,97.7L501.3,98.2L498.3,105.9L495.9,104.3L493.5,103.9L489.3,105.9L489.2,107.9L497.0,115.5L501.7,119.0L508.0,121.0L502.5,123.6L496.5,124.7L493.8,123.9L489.8,121.5L486.9,123.0L489.4,128.2L493.0,133.9L497.8,137.9L503.9,138.1L504.8,133.5L505.7,132.3L510.8,132.3L513.7,133.3L515.8,138.2L518.6,140.0L515.4,140.6L506.9,139.5L503.7,141.9L503.4,146.5L506.7,149.4L511.4,150.9L515.1,151.3L515.0,153.2L510.6,153.2L498.7,149.6L488.5,151.0L483.7,150.7L479.7,147.6L477.2,149.1L474.1,152.0L472.0,153.2L465.5,154.3L464.5,157.0L469.5,157.4L477.1,161.6L485.1,163.7L496.2,172.3L492.1,173.8L488.3,172.1L485.0,168.9L482.4,165.6L480.0,164.9L470.2,165.2L466.8,166.4L470.7,169.5L485.7,172.3L485.6,174.0L479.7,173.9L468.5,171.1L446.8,170.7L441.2,172.3L425.3,180.6L422.8,182.7L422.0,186.0L420.2,188.0L417.6,189.0L411.3,190.0L410.7,191.8L412.1,193.8L414.8,195.1L411.5,200.8L415.3,200.7L433.0,205.8L434.9,207.4L433.0,210.0L436.7,211.9L453.1,211.9L457.3,214.3L460.1,214.8L462.6,211.0L465.1,210.3L470.4,210.0L475.6,208.1L477.3,208.6L478.0,212.9L480.0,215.1L482.2,216.5L483.3,214.9L485.4,209.6L489.2,205.8L492.0,205.8L491.0,211.9L492.5,211.9L495.9,209.4L498.4,211.8L498.9,215.7L495.8,217.8L491.7,218.6L488.3,220.6L482.8,225.4L482.7,227.1L485.9,226.5L492.0,223.3L502.6,214.9L508.2,212.8L514.0,207.5L517.4,206.3L520.4,207.1L521.8,209.1L521.4,211.6L519.0,214.0L518.9,215.7L523.5,213.9L531.7,209.1L546.6,207.3L550.9,205.6L555.2,202.7L556.6,204.4L555.4,206.8L552.4,215.7L549.7,215.3L544.4,211.9L544.7,218.8L534.3,225.6L534.5,231.0L522.3,238.4L525.0,241.0L528.1,242.1L535.3,242.3L535.2,244.4L528.2,245.6L518.1,250.7L515.3,251.1Z " data-id="IE.DL" data-name="Donegal" id="IE.DL"/>
utf-8utf-8<path d="M497.5,253.7L498.7,258.1L497.3,259.7L493.6,262.1L490.4,265.5L489.7,267.2L492.4,267.7L494.2,266.5L502.3,267.4L503.9,269.7L500.2,281.3L495.8,284.2L494.3,288.9L495.6,294.5L501.3,299.3L502.8,303.7L504.9,319.6L502.9,327.8L506.1,331.0L508.8,337.7L515.3,341.6L517.7,342.0L522.7,340.8L529.9,342.6L536.0,350.4L537.7,351.8L540.9,353.6L546.0,351.8L549.9,352.5L560.0,355.6L564.0,358.4L562.1,365.6L559.6,365.8L556.7,367.5L554.9,369.6L554.5,372.8L555.5,381.0L556.0,382.4L559.4,384.0L558.7,386.3L551.5,393.5L549.7,396.8L552.7,399.2L552.3,405.7L553.9,406.6L557.9,406.4L559.5,407.8L566.4,402.2L567.6,400.0L573.5,407.2L575.3,411.3L575.6,417.1L574.8,418.8L576.2,422.5L584.4,428.1L587.1,432.0L587.9,435.9L595.2,432.8L598.1,433.3L601.0,436.9L602.5,434.8L602.7,432.5L603.8,431.1L605.2,431.6L608.2,434.8L616.1,434.9L617.4,434.3L621.2,423.4L626.8,418.5L635.9,412.6L641.5,407.7L642.4,406.5L647.1,403.3L651.4,401.6L660.1,402.2L661.5,397.5L664.8,392.8L665.8,389.7L664.6,386.5L664.6,381.5L663.3,378.1L657.3,376.1L653.6,371.8L647.9,367.7L645.0,366.0L640.9,362.3L631.6,355.4L625.6,353.9L622.0,352.1L618.3,352.2L616.8,354.9L613.9,354.8L589.9,336.2L587.0,334.6L574.8,330.9L570.5,331.4L567.6,330.3L570.3,324.2L566.7,318.1L566.8,315.9L569.4,313.9L574.2,314.1L577.4,313.1L589.1,302.1L590.4,300.7L588.5,300.1L585.0,297.0L582.3,293.0L578.2,284.3L571.9,284.3L566.5,282.1L561.6,278.1L552.9,268.4L548.0,264.1L546.0,261.8L545.1,257.5L542.5,255.6L543.6,255.1L531.0,254.0L526.6,254.7L517.2,252.6L515.3,251.1L497.5,253.7Z " data-id="IE.LM" data-name="Leitrim" id="IE.LM"/>
utf-8utf-8<path d="M651.4,401.6L647.1,403.3L642.4,406.5L641.5,407.7L635.9,412.6L626.8,418.5L621.2,423.4L617.4,434.3L616.1,434.9L608.2,434.8L605.2,431.6L603.8,431.1L602.7,432.5L602.5,434.8L601.0,436.9L598.1,433.3L595.2,432.8L587.9,435.9L589.2,439.5L592.2,441.9L593.8,441.2L595.1,442.3L595.6,444.6L594.9,447.6L593.4,448.7L585.7,451.6L587.0,455.4L585.0,455.1L580.9,457.1L580.8,460.6L576.3,463.0L572.0,468.3L569.8,471.8L562.9,484.7L561.2,489.5L563.1,494.9L569.9,505.0L575.0,515.9L584.2,511.7L587.9,510.6L604.5,508.8L619.2,513.0L628.9,513.5L637.8,512.4L641.4,511.3L643.2,510.2L644.0,506.2L647.1,503.2L650.5,498.3L652.5,497.0L655.9,493.6L658.2,492.1L662.0,491.1L664.4,488.9L664.4,486.6L662.7,484.3L656.4,481.2L655.6,478.6L659.0,478.7L661.2,479.7L671.2,473.5L676.3,467.4L678.6,465.9L683.0,465.7L685.4,464.6L687.2,462.2L691.5,458.7L695.4,458.4L698.7,459.0L703.2,458.5L706.4,455.4L706.9,449.4L705.1,446.3L703.8,445.0L692.3,437.2L689.6,434.1L688.3,428.4L683.6,422.8L679.2,422.0L675.1,422.2L669.9,423.5L666.1,422.8L666.5,421.0L668.9,417.6L672.4,415.7L670.4,411.1L665.8,409.6L663.7,407.5L660.1,402.2L651.4,401.6Z " data-id="IE.LD" data-name="Longford" id="IE.LD"/>
utf-8utf-8<path d="M341.5,621.3L337.3,620.9L330.8,616.7L327.4,615.6L314.5,617.5L314.4,619.6L323.8,622.0L326.8,624.5L326.0,628.9L320.9,626.6L315.9,627.6L311.3,629.8L307.0,631.0L302.3,629.4L292.5,621.9L287.4,619.6L282.7,621.1L278.6,625.9L275.3,631.9L271.3,636.6L266.4,640.5L253.6,657.7L255.2,659.6L252.7,660.9L250.5,662.8L243.5,671.3L240.8,673.9L234.3,678.7L240.0,680.2L257.2,679.5L261.3,680.6L258.5,686.0L244.3,696.1L243.6,701.7L241.7,702.9L238.5,709.3L236.3,711.9L229.0,717.0L230.6,719.0L229.8,721.0L230.4,722.7L228.5,725.3L226.6,731.1L224.4,732.3L221.9,732.6L217.7,734.0L215.2,734.3L208.4,733.7L197.6,738.1L198.9,742.0L152.4,775.1L140.9,777.5L131.2,782.7L127.1,784.1L127.0,785.9L166.7,781.6L172.7,778.2L176.2,779.8L177.9,779.3L178.9,775.4L181.1,772.2L186.0,770.5L195.8,768.9L212.8,762.8L212.0,760.6L207.0,757.2L207.1,755.3L215.2,755.1L217.5,756.7L216.1,761.1L218.9,763.4L226.4,764.2L229.5,768.3L233.7,769.7L238.4,770.4L249.6,770.1L265.9,766.1L273.1,762.8L273.0,766.6L269.1,769.5L264.2,772.0L260.5,774.4L268.1,776.6L270.8,776.3L273.1,775.1L278.0,770.6L297.7,768.9L302.0,767.1L322.6,746.7L330.3,736.2L331.0,732.6L336.3,728.9L343.4,726.0L349.2,724.8L347.4,726.4L342.8,732.3L346.1,733.3L346.5,736.2L346.0,739.5L346.7,743.9L343.8,745.8L344.0,747.6L346.3,748.9L350.1,749.4L364.5,747.7L371.7,748.8L385.8,753.3L389.8,753.4L396.0,753.1L399.4,753.6L402.1,755.2L403.0,758.2L404.6,759.5L408.3,759.0L414.5,757.2L416.0,752.6L418.9,751.1L421.6,753.4L427.7,753.1L430.1,752.4L432.4,751.3L435.5,746.2L442.6,744.0L444.0,742.9L444.7,739.8L444.0,736.3L444.1,733.4L451.3,730.4L455.4,725.8L458.6,719.7L458.4,713.1L460.8,708.3L462.2,704.2L466.5,699.6L468.3,696.3L470.1,690.6L473.6,687.7L482.7,688.1L485.5,686.9L496.6,675.6L498.0,672.7L496.1,670.5L493.1,669.0L491.4,667.5L483.4,669.7L479.7,669.8L471.0,667.9L464.6,669.8L462.1,669.9L454.7,668.6L450.9,667.1L448.4,661.4L446.1,659.7L441.2,657.7L434.0,653.5L429.1,652.7L413.5,653.5L402.1,657.1L396.4,663.5L391.6,666.2L388.4,668.5L383.5,669.8L381.1,669.8L376.4,667.8L372.2,670.8L369.9,670.6L366.7,669.3L365.0,666.6L365.0,661.3L366.3,659.9L364.2,645.8L341.0,635.3L337.5,630.9L337.0,627.7L338.4,625.0L341.6,623.6L341.5,621.0L341.5,621.3Z " data-id="IE.CE" data-name="Clare" id="IE.CE"/>
utf-8utf-8<path d="M858.0,737.3L855.4,733.9L854.2,729.9L851.5,726.9L848.4,725.9L846.4,726.7L844.9,725.4L845.0,722.9L846.4,717.9L850.0,712.7L852.1,708.9L854.4,709.0L861.3,712.6L865.1,716.0L867.8,716.5L872.0,716.2L883.8,711.4L884.7,708.3L884.6,702.5L888.2,699.0L888.2,698.0L885.2,694.9L879.6,696.5L873.4,695.4L871.3,694.0L863.9,691.3L837.1,685.5L831.9,693.9L829.6,696.7L825.6,698.3L818.4,698.6L812.3,699.7L807.0,699.1L803.9,700.3L801.0,699.0L797.9,696.5L792.8,694.2L792.2,698.0L790.7,710.8L786.5,713.1L772.5,716.4L766.2,719.8L761.5,723.3L759.2,727.1L757.0,733.0L757.0,736.4L755.9,739.4L758.3,740.0L761.9,744.3L764.2,744.2L767.2,742.7L770.7,743.0L772.8,745.4L777.1,751.8L780.1,754.0L778.7,757.1L778.5,761.6L780.2,770.9L782.7,773.9L788.5,778.1L790.8,781.1L790.9,782.3L789.2,787.9L787.1,790.2L786.7,794.8L789.6,811.3L798.3,810.9L799.6,810.7L803.4,807.8L805.2,802.5L809.4,796.8L812.1,791.3L821.5,782.6L822.9,780.4L823.5,777.8L824.1,770.3L827.5,767.0L833.2,764.0L838.6,762.5L842.5,763.4L846.7,763.1L848.1,762.5L852.6,758.2L852.4,757.0L848.3,755.2L847.3,752.5L848.8,750.8L852.4,750.4L855.8,748.8L861.6,742.5L858.0,737.3Z " data-id="IE.CW" data-name="Carlow" id="IE.CW"/>
utf-8utf-8<path d="M136.5,1043.4L129.0,1042.4L123.8,1042.8L119.4,1044.0L116.1,1046.2L115.4,1048.9L121.0,1051.2L138.7,1046.6L142.0,1044.0L140.3,1043.0L136.5,1043.4Z M456.6,976.5L452.3,983.4L442.1,983.4L431.1,982.9L423.8,979.0L426.9,969.4L435.6,963.3L447.0,965.0L458.5,971.8L467.6,972.2L471.7,971.3L475.9,969.8L479.7,969.1L481.5,970.5L481.5,972.2L490.6,972.0L495.0,972.8L497.8,974.3L501.6,971.3L503.1,971.9L504.0,974.3L499.2,980.1L501.3,980.2L505.2,982.0L502.2,984.6L499.1,986.3L492.8,987.8L494.1,991.4L492.1,991.9L488.5,994.3L487.8,996.3L488.7,997.3L499.6,997.8L513.6,996.8L522.1,994.1L539.0,991.4L542.7,989.7L538.7,985.8L542.2,982.4L554.0,978.4L563.3,976.8L568.4,975.1L570.9,972.2L568.3,971.4L562.0,966.7L566.6,966.4L570.5,964.6L573.8,961.7L576.9,958.0L577.5,955.6L578.1,948.9L578.4,948.3L575.2,947.7L566.5,947.8L563.3,945.6L562.3,941.0L560.7,938.7L554.6,933.3L546.3,928.2L544.5,925.2L542.4,917.8L541.0,914.8L538.3,911.4L534.1,908.1L534.2,905.2L527.2,902.0L518.4,902.4L515.3,900.7L517.3,895.8L522.3,887.0L526.9,883.2L527.5,880.8L526.9,878.9L520.3,877.4L514.9,873.2L512.6,865.7L509.0,863.0L506.0,861.6L503.0,861.2L492.9,863.0L489.6,862.6L487.4,861.5L482.9,854.1L477.5,852.0L473.5,853.4L471.0,856.4L465.7,860.2L463.9,860.7L454.1,861.7L443.7,864.3L439.5,864.2L432.1,861.8L428.3,857.3L426.2,856.1L421.7,855.2L418.8,853.0L415.8,847.7L408.9,844.7L403.7,837.2L401.8,836.5L398.4,836.2L390.2,836.7L375.9,835.6L373.9,835.8L365.2,840.4L363.1,842.7L357.2,845.9L352.6,851.7L339.0,855.1L334.6,857.3L335.1,859.7L331.2,858.3L323.8,853.4L311.5,850.3L305.5,849.6L298.6,850.3L288.5,856.9L281.4,859.5L282.0,862.3L272.7,869.4L269.8,873.9L269.7,879.4L274.0,886.3L275.1,889.2L278.1,904.6L282.7,916.8L286.4,921.3L284.3,923.7L282.3,924.6L280.1,927.8L279.0,932.3L279.5,936.0L285.5,937.5L289.1,939.8L298.2,942.7L298.5,943.6L296.7,947.0L295.5,947.6L290.2,947.7L272.4,951.7L266.1,955.7L260.5,957.9L257.0,961.0L256.7,963.3L262.2,973.0L260.7,976.8L258.0,979.0L251.1,986.1L242.5,989.2L238.2,989.5L235.8,990.2L230.6,992.6L223.9,999.9L220.2,1001.6L214.5,1002.1L210.3,1003.0L201.1,1002.4L187.5,1004.4L185.1,1005.7L177.9,1012.2L176.1,1013.5L172.5,1014.9L161.1,1017.1L149.6,1027.9L146.2,1029.2L138.4,1029.8L137.8,1029.1L139.1,1024.2L136.2,1021.8L136.2,1018.0L135.6,1016.1L130.2,1010.8L128.6,1012.5L124.8,1014.0L120.9,1014.6L124.2,1008.9L118.3,1010.0L110.5,1013.0L103.3,1017.2L99.2,1022.3L108.3,1022.3L108.2,1024.4L97.3,1032.4L92.3,1034.0L83.4,1033.4L78.5,1034.2L75.5,1037.7L78.9,1037.5L82.1,1038.3L83.8,1040.3L82.7,1043.8L84.1,1045.5L80.6,1047.2L65.3,1050.5L63.9,1051.3L62.3,1056.1L60.6,1057.1L61.9,1059.2L66.0,1056.1L71.1,1054.3L81.4,1053.2L87.9,1055.0L90.4,1055.3L95.9,1051.9L110.1,1048.3L113.0,1043.8L116.4,1041.8L125.7,1038.5L153.9,1035.4L161.6,1032.8L176.2,1031.6L181.0,1030.4L185.4,1028.3L191.9,1023.2L195.0,1021.5L199.5,1020.6L197.3,1017.5L197.7,1012.5L197.0,1008.9L199.2,1009.5L204.5,1012.9L204.0,1017.5L206.9,1018.9L211.8,1022.1L219.2,1019.3L222.3,1020.6L222.2,1022.3L219.0,1026.2L218.3,1030.7L211.7,1033.0L203.4,1034.6L195.0,1038.0L187.7,1038.7L184.5,1042.4L156.5,1054.1L147.7,1056.5L143.8,1061.8L139.5,1063.7L129.8,1068.6L143.8,1067.7L187.6,1050.5L197.8,1051.3L193.0,1053.7L184.8,1056.6L180.5,1059.2L170.3,1068.0L166.2,1070.5L161.3,1072.4L153.4,1074.1L149.2,1076.3L141.0,1082.6L136.8,1084.9L131.9,1086.1L136.2,1089.9L136.1,1091.6L134.2,1097.8L135.9,1095.7L137.2,1097.8L143.9,1093.1L145.9,1092.5L145.1,1095.7L160.6,1089.9L157.7,1088.0L170.3,1079.3L171.9,1076.8L175.0,1078.2L177.5,1081.3L177.6,1084.1L181.4,1084.2L184.0,1083.4L188.4,1080.1L193.8,1080.2L196.1,1075.4L212.0,1072.6L218.4,1070.2L216.7,1066.8L219.7,1065.7L223.7,1066.3L227.3,1067.8L228.7,1069.5L227.6,1073.5L225.9,1076.7L225.5,1079.3L228.0,1082.2L232.8,1079.0L235.9,1075.4L243.2,1072.0L245.2,1070.5L246.7,1072.6L243.8,1074.7L238.2,1077.6L235.7,1080.1L233.5,1084.0L234.3,1084.9L240.3,1082.2L238.7,1085.0L232.1,1089.9L239.3,1089.8L242.4,1089.0L247.0,1086.0L250.0,1085.7L250.7,1083.2L256.9,1080.1L258.2,1084.1L258.2,1086.1L260.9,1085.0L264.9,1086.3L267.3,1086.1L269.2,1084.3L272.0,1080.2L275.2,1080.1L274.8,1075.6L276.6,1075.1L282.3,1076.3L285.8,1075.8L289.2,1074.2L292.1,1071.8L294.0,1068.6L291.2,1066.8L291.4,1064.8L294.1,1065.3L299.0,1067.8L301.8,1068.6L314.1,1066.5L317.5,1065.0L320.1,1064.8L322.6,1065.4L326.9,1068.0L330.6,1071.9L332.6,1072.5L333.7,1069.5L335.0,1068.9L342.9,1066.8L345.2,1063.6L347.8,1058.7L351.1,1055.5L355.5,1057.1L357.1,1055.7L362.5,1057.1L370.7,1057.1L375.4,1061.2L377.4,1060.0L385.8,1060.9L384.9,1057.7L385.3,1055.1L386.8,1053.0L389.3,1051.3L384.9,1049.5L387.8,1047.6L387.9,1045.5L379.8,1045.5L376.2,1044.4L373.1,1041.7L399.5,1043.8L410.5,1041.4L414.2,1041.7L417.2,1043.6L420.0,1049.3L422.8,1051.3L421.7,1043.8L421.6,1040.7L422.3,1038.9L426.1,1032.3L431.0,1029.9L431.5,1028.3L430.6,1026.1L427.1,1028.3L424.8,1027.6L420.3,1027.2L418.1,1026.2L418.2,1024.4L428.4,1024.5L433.0,1026.6L434.3,1032.3L437.7,1030.7L438.9,1027.6L438.0,1024.3L434.8,1022.3L437.5,1021.6L441.0,1022.7L444.0,1025.1L445.2,1028.3L448.3,1025.1L451.1,1023.5L459.5,1021.8L465.6,1019.3L468.2,1016.3L475.8,1009.8L476.9,1007.6L475.4,1003.1L480.2,997.4L472.5,997.4L475.5,995.9L478.7,995.3L475.9,993.5L476.0,991.4L477.5,991.4L477.6,989.7L475.0,989.1L466.7,989.7L471.2,980.9L465.8,977.6L456.6,976.5Z " data-id="IE.CK" data-name="Cork" id="IE.CK"/>
utf-8utf-8<path d="M590.4,300.7L589.1,302.1L577.4,313.1L574.2,314.1L569.4,313.9L566.8,315.9L566.7,318.1L570.3,324.2L567.6,330.3L570.5,331.4L574.8,330.9L587.0,334.6L589.9,336.2L613.9,354.8L616.8,354.9L618.3,352.2L622.0,352.1L625.6,353.9L631.6,355.4L640.9,362.3L645.0,366.0L647.9,367.7L653.6,371.8L657.3,376.1L663.3,378.1L664.6,381.5L664.6,386.5L665.8,389.7L664.8,392.8L661.5,397.5L660.1,402.2L663.7,407.5L665.8,409.6L670.4,411.1L672.4,415.7L668.9,417.6L666.5,421.0L666.1,422.8L669.9,423.5L675.1,422.2L679.2,422.0L683.6,422.8L688.3,428.4L689.6,434.1L692.3,437.2L703.8,445.0L715.0,440.5L724.0,437.1L727.1,437.5L730.3,441.1L732.8,442.6L738.6,445.0L741.6,445.5L746.8,443.3L752.8,441.5L757.3,439.2L765.2,440.9L773.8,444.2L789.0,446.6L794.2,446.0L801.0,443.5L805.1,439.6L809.0,436.8L808.3,434.0L798.7,422.6L798.2,419.5L803.6,420.8L806.4,419.1L805.7,415.3L808.0,414.0L811.4,415.2L813.1,416.6L818.3,417.5L823.1,417.0L829.6,414.0L837.2,413.6L838.7,413.3L840.4,411.1L845.1,407.5L831.9,401.5L828.4,398.8L826.2,393.4L818.7,382.6L813.9,379.0L809.6,376.8L790.9,362.0L789.6,360.3L791.2,357.3L789.2,356.4L776.1,359.2L768.8,357.8L761.3,360.0L746.1,356.5L742.2,357.1L737.4,356.6L724.6,352.4L721.6,352.1L711.2,349.4L707.9,350.0L705.1,346.1L700.4,345.6L703.0,343.2L697.5,342.8L688.3,348.2L683.6,348.9L660.6,344.8L658.1,343.4L657.3,338.6L655.8,336.8L640.6,328.0L636.8,327.5L623.8,328.1L611.9,326.9L607.8,324.9L605.1,320.7L604.9,308.4L603.7,304.0L600.6,302.2L592.1,301.2L590.4,300.7Z " data-id="IE.CN" data-name="Cavan" id="IE.CN"/>
utf-8</g>
</svg>
