<?xml version="1.0" encoding="UTF-8" standalone="no"?>
<svg
   xmlns:dc="http://purl.org/dc/elements/1.1/"
   xmlns:cc="http://creativecommons.org/ns#"
   xmlns:rdf="http://www.w3.org/1999/02/22-rdf-syntax-ns#"
   xmlns:svg="http://www.w3.org/2000/svg"
   xmlns="http://www.w3.org/2000/svg"
   xmlns:sodipodi="http://sodipodi.sourceforge.net/DTD/sodipodi-0.dtd"
   xmlns:inkscape="http://www.inkscape.org/namespaces/inkscape"
   enable_background="new 0 0 1000 3261"
   height="3260.1001"
   pretty_print="True"
   style="fill:none;stroke:#000000;stroke-linejoin:round"
   version="1.1"
   viewBox="0 0 1000.6 3260.1001"
   width="1000.6"
   id="svg3019"
   inkscape:version="0.48.4 r9939"
   sodipodi:docname="il.svg"><sodipodi:namedview
   pagecolor="#ffffff"
   bordercolor="#666666"
   borderopacity="1"
   objecttolerance="10"
   gridtolerance="10"
   guidetolerance="10"
   inkscape:pageopacity="0"
   inkscape:pageshadow="2"
   inkscape:window-width="640"
   inkscape:window-height="480"
   id="namedview3041"
   showgrid="false"
   inkscape:zoom="0.072370439"
   inkscape:cx="500.3"
   inkscape:cy="1629.1"
   inkscape:window-x="0"
   inkscape:window-y="0"
   inkscape:window-maximized="0"
   inkscape:current-layer="svg3019" />

utf-8<defs
   id="defs3021">
utf-8utf-8<style
   type="text/css"
   id="style3023">path { fill-rule: evenodd; }utf-8utf-8</style>

utf-8</defs>

utf-8<metadata
   id="metadata3025">
utf-8utf-8<views
   id="views3027">
utf-8utf-8utf-8<view
   h="3261.10598358"
   padding="0"
   w="1000"
   id="view3029">
utf-8utf-8utf-8utf-8<proj
   flip="auto"
   id="robinson"
   lon0="34.8548092013" />

utf-8utf-8utf-8utf-8<bbox
   h="65.49"
   w="20.09"
   x="485.07"
   y="-560.01"
   id="bbox3032" />

utf-8utf-8utf-8</view>

utf-8utf-8</views>

utf-8<rdf:RDF>
  <cc:Work
     rdf:about="">
    <dc:format>image/svg+xml</dc:format>
    <dc:type
       rdf:resource="http://purl.org/dc/dcmitype/StillImage" />
  </cc:Work>
</rdf:RDF>
</metadata>

utf-8<g
   class=""
   id="provinces"
   transform="translate(0.3,0.5)">
utf-8utf-8<path
   d="m 463.2,1497.9 -54.2,-36.6 -6.6,-5.6 0.3,-4.8 -0.7,-7.4 -2.3,-7.7 -0.1,-4.9 -1.9,-10.7 0,-5 1.3,-4.1 -0.1,-5.1 -0.8,-3.4 -3.7,-8.6 -0.5,-4.5 1.1,-9 -2.9,-4.6 -4.4,-1.2 -6.9,-5 -21.6,-24.5 -21.3,18.7 -5.4,3 -4.3,-4.6 -1.9,-3 -6.1,-14.3 -2.2,-4.2 -2.7,-3.4 -2.5,-1.9 -12.6,-7 -5.8,-1.7 -1.9,2.7 -1.6,1 -11.4,1.7 -1.5,2.5 5.2,2.7 3.1,5.1 1.2,0.9 0.1,3.5 -3.8,1.1 -2.7,1.6 -6.6,5.5 -2.5,1 -3.2,-0.4 -17.5,-5.8 -1.7,-5.1 2,-3.4 5.9,-3.2 3.5,-3.8 -0.2,-3.9 -3.3,-3 -5,-3.4 -3.8,-3.5 -1,-3.4 1.4,-4.9 2.7,-1.7 4.5,0.4 4.4,1.5 2.9,0.5 3.6,-0.3 1.9,-3.3 -0.8,-7.1 0.7,-5.8 -1.5,-6.3 2.6,-4.4 0.7,-3.4 -1.1,-3.8 -2.8,-2 -6.5,0 -6,-2.3 -6.1,-0.6 -10,3.4 0,0 -30.3,90.1 -4.2,6.5 -51.3,108.5 -14.9,22.2 18.7,32.3 15,16.8 0.3,17.6 -20.7,21.4 -10.1,7.3 -71.8,77.1 -12.3,29.2 1.2,14.1 8.7,28.6 -0.6,14.2 -22,26.9 -33.6,27.1 -10.2,10.6 9.4,22.7 65.6,157.6 34.1,72.3 45.4,96.5 54.8,116.4 21.8,66.1 4.8,34.3 5.6,14.2 20.8,25.8 0.9,11.3 -4.3,24.9 0.1,14.6 2.5,9.5 5.6,7.9 41.9,34.4 8.9,11.9 30,68.5 53.4,122.7 34.9,80.1 2.5,4.7 1.7,4.9 0.9,4.9 0.1,5.1 8.7,45.2 39.1,87 35,78.2 26.2,85.7 3.9,57.5 6.8,20 19.4,34.4 7.2,11.9 4.9,-0.4 6.6,0.7 5.6,-0.2 2,-3.2 0.7,-5.4 2.3,-5.9 4.8,-8.9 10.8,-15.7 3.8,-7.3 3,-33.8 3.3,-18.2 8,-15.7 4.8,-20.8 -0.6,-46.8 3.4,-20.7 24.3,-90.9 1.5,-16.9 -4.1,-50.6 2.5,-28.2 2.1,-7.2 2.9,-6.4 1.9,-7.4 -0.5,-10 5.1,-32.8 25.8,-46.3 8.8,-28 -2.5,-26.2 -19.3,-50.9 -2,-23.7 3.6,-14.3 2.5,-43.3 3.2,-10.4 4,-8.6 3,-8.9 0.4,-11.6 -3.1,-11.8 -11.8,-16.8 -4.4,-8.6 -1.9,-19.9 9,-33.8 1.4,-19.8 20.5,-101.8 32.8,-85.3 3.5,-19.9 1.2,-21 1.4,-9.3 3.7,-10.1 4.8,-6.5 10.9,-10.9 3.3,-7.9 0.6,-18.4 -2.3,-18.6 0,-18.8 7.1,-18.8 24.9,-27 6.4,-15.1 -2.7,-26.1 2,-24.3 22.3,-56.1 -11,-1.9 -11.4,-5.9 -6.4,-9.8 -5.7,-24.2 -20.3,-28.1 -6.5,-28.9 5.7,-20.8 22.2,4.2 0.3,-0.4 -6.1,-22.3 6.7,-20.2 8.2,-17.4 -0.7,-18 -0.6,-0.6 -6,-1.1 -7.8,-15.1 -7.2,-41.9 -9.3,-33.7 1.8,-30.3 -3.4,-12.7 -5.3,0.4 -38.3,23.5 -70.1,64.6 -39.5,15.6 -88,-0.8 -41.5,5.9 -17.3,6.3 -19.1,3 -18.9,-2.9 -16.8,-12 -11.1,-27.9 7.5,-27.7 26.2,-53.7 1.2,-27 -2.1,-23.3 0.8,-22.5 8.9,-21.8 z"
   data-id="IL.HD"
   data-name="HaDarom"
   id="IL.HD"
   inkscape:connector-curvature="0" />

utf-8utf-8<path
   d="m 431.9,450.6 -2.3,7.1 -21.7,26.4 -6.1,1.4 -10.9,-2.1 -15.3,-9.4 -9.1,-2.2 -9.8,5.9 -3.8,16.8 4.3,74.7 -8.8,68 2.6,12.2 -2.3,11.2 -0.2,37.1 -3.2,8.1 -10.1,108.4 -1.7,19 29.3,0.7 7.9,-0.6 8.2,-1.3 35.2,2.9 5.6,2.7 12.2,10.2 4,2.6 2.7,3.6 5,1.2 7.9,-0.9 3.8,-43.2 11.1,-24.2 17.1,-13.4 19.9,-10 20.3,-13.9 15.4,-20.6 9,-7.5 12.4,-0.8 1.3,0.7 -2.1,-3.8 -21.8,-18.9 -5.8,-3.4 -3.7,3.2 -1.6,3.8 -2.4,3 -5.9,3.2 -3.1,7.8 -1.1,1.4 -3.5,2.4 -5.2,7.4 -4.3,3.4 -2.7,1.2 -5.2,-0.6 -20.8,-4 -10.5,-5.6 -2.2,-1.7 -4,-4.8 -4.9,-3 -1.3,-1.2 -0.9,-4.5 1,-5.9 0.1,-3.4 -1.9,-3.2 -10,-6.3 -3.2,-2.6 -1.7,-4.2 -0.2,-1.7 -2.3,-5.4 -3.6,-4.8 -1.5,-4.7 3.3,-2.1 3.2,-0.2 7.7,2.3 3.2,0.5 -1.2,-3.5 -6.3,-6.1 -3.9,-6 0.6,-6.2 3.5,-5.5 5.3,-1.8 4.9,0.8 9.6,4.1 1.5,0.2 3.4,-1.9 1.8,-3.4 4,-12 2.9,-4.1 9.4,-5.5 -0.1,-5.5 -5,-14.7 -0.1,-6.6 2.3,-4.5 1.4,-0.1 2.2,1.6 2.5,3.5 3.2,2.6 1.2,-0.1 3.7,-3.3 2.2,-4.6 -1.1,-7.8 0.8,-3.8 3.2,-2.1 0.8,-1.7 0,-2.6 -2.4,-11.7 0,-1.6 1.4,-3.3 5.7,-10.9 1.1,-5.5 0,-6.8 -0.8,-5.7 -9,-15.8 -3.1,-8.8 0.7,-10.3 -0.4,-2.7 -4.6,-4.1 -10.7,-2.9 -15.7,-10.4 -1.8,-3.2 0.6,-10.4 -1.3,-4.2 -3,-1.8 -6.2,-9.8 -4,-3.7 -6.7,-2.1 -3.5,21.9 z"
   data-id="IL.HA"
   data-name="Haifa"
   id="IL.HA"
   inkscape:connector-curvature="0" />

utf-8utf-8<path
   d="m 323.5,938.8 -15.5,73.4 4.3,-0.2 15,2 3.1,0.8 12.1,7.8 4,4 4,1.9 2.4,3.7 0.9,7.9 -0.1,9.3 1.7,3.6 0.6,3.5 -1.2,6.3 -3.8,9.9 -1.2,2.6 -4,5.8 -0.6,5.4 0.4,8.3 -0.7,6.1 1.8,5.7 9,6.9 2.1,1.9 2.3,3.8 5.1,19.8 2.4,3.4 6.7,3 4,4.3 0.4,1.5 -1.3,2.1 -2.8,2.4 -11.8,5.1 -3.1,0.6 -1.9,-0.6 -8.7,-6.7 -4.6,0.8 -4.1,2.4 -3.3,3.4 -9.4,11.5 -5.5,1.7 -14.4,-0.3 -22.9,-3 -3.7,-2.1 -7.2,-7.3 -10,51.3 -11,20.9 -14.7,43.7 10,-3.4 6.1,0.6 6,2.3 6.5,0 2.8,2 1.1,3.8 -0.7,3.4 -2.6,4.4 1.5,6.3 -0.7,5.8 0.8,7.1 -1.9,3.3 -3.6,0.3 -2.9,-0.5 -4.4,-1.5 -4.5,-0.4 -2.7,1.7 -1.4,4.9 1,3.4 3.8,3.5 5,3.4 3.3,3 0.2,3.9 -3.5,3.8 -5.9,3.2 -2,3.4 1.7,5.1 17.5,5.8 3.2,0.4 2.5,-1 6.6,-5.5 2.7,-1.6 3.8,-1.1 -0.1,-3.5 -1.2,-0.9 -3.1,-5.1 -5.2,-2.7 1.5,-2.5 11.4,-1.7 1.6,-1 1.9,-2.7 5.8,1.7 12.6,7 2.5,1.9 2.7,3.4 2.2,4.2 6.1,14.3 1.9,3 4.3,4.6 5.4,-3 21.3,-18.7 41.6,-11.9 4.1,-2.5 4,-4.3 4,-12.3 1.6,-2.6 2.8,-1.1 10.8,0.1 9.9,-4.5 1.1,-1.6 3,-11.2 18.3,-6.8 18.1,-10.9 -11.2,-27.8 -17.3,-32.5 0.3,-24.9 -0.3,-8.9 -0.9,-2.7 -2.1,-20.3 -1.9,-15.5 -17.2,-78.4 -5,-14.1 -14.1,-25.7 0.6,-8 8,-12.2 24.6,-25.3 4.1,-10.3 1.3,-10.6 -2.1,-8.8 -5.6,-6.2 -9,-2.8 1,-10.9 -0.3,-26.2 1.7,-10.5 2.5,-2 9,-3.4 2.4,-2 3.2,-17.1 1.3,-14.2 -7.9,0.9 -5,-1.2 -2.7,-3.6 -4,-2.6 -12.2,-10.2 -5.6,-2.7 -35.2,-2.9 -8.2,1.3 -7.9,0.6 -29.3,-0.7 -10,105.6 z"
   data-id="IL.HM"
   data-name="HaMerkaz"
   id="IL.HM"
   inkscape:connector-curvature="0" />

utf-8utf-8<path
   d="m 435.4,428.7 6.7,2.1 4,3.7 6.2,9.8 3,1.8 1.3,4.2 -0.6,10.4 1.8,3.2 15.7,10.4 10.7,2.9 4.6,4.1 0.4,2.7 -0.7,10.3 3.1,8.8 9,15.8 0.8,5.7 0,6.8 -1.1,5.5 -5.7,10.9 -1.4,3.3 0,1.6 2.4,11.7 0,2.6 -0.8,1.7 -3.2,2.1 -0.8,3.8 1.1,7.8 -2.2,4.6 -3.7,3.3 -1.2,0.1 -3.2,-2.6 -2.5,-3.5 -2.2,-1.6 -1.4,0.1 -2.3,4.5 0.1,6.6 5,14.7 0.1,5.5 -9.4,5.5 -2.9,4.1 -4,12 -1.8,3.4 -3.4,1.9 -1.5,-0.2 -9.6,-4.1 -4.9,-0.8 -5.3,1.8 -3.5,5.5 -0.6,6.2 3.9,6 6.3,6.1 1.2,3.5 -3.2,-0.5 -7.7,-2.3 -3.2,0.2 -3.3,2.1 1.5,4.7 3.6,4.8 2.3,5.4 0.2,1.7 1.7,4.2 3.2,2.6 10,6.3 1.9,3.2 -0.1,3.4 -1,5.9 0.9,4.5 1.3,1.2 4.9,3 4,4.8 2.2,1.7 10.5,5.6 20.8,4 5.2,0.6 2.7,-1.2 4.3,-3.4 5.2,-7.4 3.5,-2.4 1.1,-1.4 3.1,-7.8 5.9,-3.2 2.4,-3 1.6,-3.8 3.7,-3.2 5.8,3.4 21.8,18.9 2.1,3.8 9.9,4.9 21.8,16.7 13.3,4.5 43.9,-2.2 21.2,2.5 22.3,13 8.3,19.6 2.5,25.8 6.2,21 18.8,5.4 16.8,0.6 16.9,4.3 58.3,14.7 -3.4,-5.2 -3.8,-3.6 -2,-2.7 -4.1,-9.2 6.7,-1.3 2.7,-2.3 -1,-3.4 -4.9,-4.4 -0.5,-5.1 5.2,0 -1.5,-3.9 -2.6,-0.3 -1.7,-1.5 8.9,-6.2 -5,-5.7 4.5,-2.1 4.1,-3 -0.6,-6.3 -3.2,-0.6 -6.6,-4.5 0.7,-5.6 2,-5.7 3.7,-4.4 6.1,-1.9 -0.6,-5.2 -7.3,-6.9 -1.9,-3.5 -5.8,-7.4 -6.5,0.3 -0.7,-5.7 9.6,0 -2.5,-5.3 -4.3,-17.5 4.9,5.7 2.3,-8.9 1.3,-3 1.9,5 0.9,-0.4 2.4,-4.6 -5,-10.3 -4.6,-21.4 -4.8,-7.5 -0.6,-6.2 4.8,0 -0.6,-5.2 -6.3,-3.6 -3.5,-6 -0.4,-6.8 1.3,-2.8 4.7,-2.1 5.6,-5.5 9.1,-14.1 28.7,-7.4 10.6,-5.8 21,-20.9 35.8,-24.4 11.9,-3.2 15.5,-28 30.4,-41.7 3,-21.3 -3.8,-10.4 5.4,-24.9 9.7,-20.8 4.8,-1.3 7.7,-18.8 -19.5,-27.4 -5,-10.4 -18.2,-79.4 0.9,-11.1 -27.5,-11 -1.3,-12.4 6.2,-12.4 5.8,-16.3 -4.9,-24.1 -16.9,-9.8 -7.2,-39 L 891,118.5 885.4,112 905,78.7 876.2,60.4 890.7,53.3 895.5,47.5 906,39 906.4,27.9 908,23.3 907.6,9.6 910.8,4.5 909.4,0 l -9.3,12.8 -10.8,28 -10,12.7 -7.7,5.3 -9.2,4.3 -9.7,2.8 -9.1,0.9 -12,3.4 -23.4,27.9 -12.7,11.2 -20.6,4.7 -5.5,6.3 3.9,15.3 -4.8,0 -9.6,-6.5 -14.9,-20 -4.6,-5 -8.1,0.9 -3.8,7.9 -2.9,11.4 -5,11.4 -3.4,18.4 3,41.2 -1.4,21.3 -4.5,14 -10.4,23.4 -2,12.7 -21.3,1.8 -31.9,14.4 -38.4,10.3 -9.4,-1.3 -7.4,-8.5 -6,-9.9 -7.9,-8.5 -8.5,-6.3 -8.1,-3.6 -8.5,0 -25,8.6 -5,-0.4 -10.2,-2.5 -4.2,-0.3 -4.4,1.7 -7.1,6 -2.9,1.3 -56.5,-4.2 -3.8,1.2 5.5,5.7 -3,2.6 -3.2,5.2 -2.7,3.1 4.5,14.5 -1.2,15.9 -6.5,27 0.7,50.8 -2.9,12.4 9.1,4.4 2.4,10 -1.7,10.6 0,0 z"
   data-id="IL.HZ"
   data-name="HaZafon"
   id="IL.HZ"
   inkscape:connector-curvature="0" />

utf-8utf-8<path
   d="m 285.7,1116.9 -9.1,5.2 0,3.9 1.8,9.2 0,3.9 -4.4,22.1 7.2,7.3 3.7,2.1 22.9,3 14.4,0.3 5.5,-1.7 9.4,-11.5 3.3,-3.4 4.1,-2.4 4.6,-0.8 8.7,6.7 1.9,0.6 3.1,-0.6 11.8,-5.1 2.8,-2.4 1.3,-2.1 -0.4,-1.5 -4,-4.3 -6.7,-3 -2.4,-3.4 -5.1,-19.8 -2.3,-3.8 -2.1,-1.9 -9,-6.9 -1.8,-5.7 0.7,-6.1 -0.4,-8.3 0.6,-5.4 4,-5.8 1.2,-2.6 3.8,-9.9 1.2,-6.3 -0.6,-3.5 -1.7,-3.6 0.1,-9.3 -0.9,-7.9 -2.4,-3.7 -4,-1.9 -4,-4 -12.1,-7.8 -3.1,-0.8 -15,-2 -4.3,0.2 -22.3,104.7 z"
   data-id="IL.TA"
   data-name="Tel Aviv"
   id="IL.TA"
   inkscape:connector-curvature="0" />

utf-8utf-8<path
   d="m 464.4,1494.9 11.3,-15.4 52.2,-43 21.8,-25.3 11.6,-10.3 12.6,-6.7 42.4,-9.5 4.4,3.8 3.9,1.8 3.1,-1 2.1,-4.7 -0.9,-17.9 -2.6,-13.8 -6.7,-10.3 -12.7,-7.5 -50.1,-11.6 -38.6,-17.7 -10.1,-1.7 -4.9,3.4 -11,13.5 -6.5,4.3 -4.9,1.1 -11,-0.2 -23.6,-4.1 -8.1,-13.9 1,-3.7 -1.1,1.6 -9.9,4.5 -10.8,-0.1 -2.8,1.1 -1.6,2.6 -4,12.3 -4,4.3 -4.1,2.5 -41.6,11.9 21.6,24.5 6.9,5 4.4,1.2 2.9,4.6 -1.1,9 0.5,4.5 3.7,8.6 0.8,3.4 0.1,5.1 -1.3,4.1 0,5 1.9,10.7 0.1,4.9 2.3,7.7 0.7,7.4 -0.3,4.8 6.6,5.6 54.2,36.6 1.2,-3 z"
   data-id="IL.JM"
   data-name="Jerusalem"
   id="IL.JM"
   inkscape:connector-curvature="0" />

utf-8</g>
</svg>
