<?xml version="1.0" encoding="UTF-8" standalone="no"?>
<svg
   xmlns:dc="http://purl.org/dc/elements/1.1/"
   xmlns:cc="http://creativecommons.org/ns#"
   xmlns:rdf="http://www.w3.org/1999/02/22-rdf-syntax-ns#"
   xmlns:svg="http://www.w3.org/2000/svg"
   xmlns="http://www.w3.org/2000/svg"
   xmlns:sodipodi="http://sodipodi.sourceforge.net/DTD/sodipodi-0.dtd"
   xmlns:inkscape="http://www.inkscape.org/namespaces/inkscape"
   enable_background="new 0 0 1000 1112"
   height="303.19998"
   pretty_print="True"
   style="fill:none;stroke:#000000;stroke-linejoin:round"
   version="1.1"
   viewBox="0 0 249.09999 303.19998"
   width="249.09999"
   id="svg2"
   inkscape:version="0.48.4 r9939"
   sodipodi:docname="in.svg"><sodipodi:namedview
   pagecolor="#ffffff"
   bordercolor="#666666"
   borderopacity="1"
   objecttolerance="10"
   gridtolerance="10"
   guidetolerance="10"
   inkscape:pageopacity="0"
   inkscape:pageshadow="2"
   inkscape:window-width="640"
   inkscape:window-height="480"
   id="namedview50"
   showgrid="false"
   inkscape:zoom="0.21223022"
   inkscape:cx="-250.9"
   inkscape:cy="-253.3"
   inkscape:window-x="0"
   inkscape:window-y="0"
   inkscape:window-maximized="0"
   inkscape:current-layer="svg2" />




<defs
   id="defs4">
<style
   type="text/css"
   id="style6">path { fill-rule: evenodd; }</style>




</defs>




<metadata
   id="metadata8">
<views
   id="views10">
<view
   h="1112.49120598"
   padding="0"
   w="1000"
   id="view12">
<proj
   flip="auto"
   id="robinson"
   lon0="76.7677839757" />




<bbox
   h="1771.8"
   w="1594.07"
   x="-201.25"
   y="-595.32"
   id="bbox15" />




</view>




</views>




<rdf:RDF>
  <cc:Work
     rdf:about="">
    <dc:format>image/svg+xml</dc:format>
    <dc:type
       rdf:resource="http://purl.org/dc/dcmitype/StillImage" />
  </cc:Work>
</rdf:RDF>
</metadata>




<g
   class=""
   id="provinces"
   transform="translate(-750.9,0.49999653)">
<path
   d="m 809.1,49.5 -0.6,0.5 0.4,0.3 0.8,0.4 0.1,0 -0.1,-0.2 0,-0.2 0,-0.2 -0.3,-0.4 0,-0.1 -0.3,-0.1 z"
   data-id="IN.CH"
   data-name="Chandigarh"
   id="IN.CH"
   inkscape:connector-curvature="0" />




<path
   d="m 816.6,69.8 -2,2.4 0.1,0.9 3.7,0.4 0.5,-0.1 -0.3,-0.5 -1.2,-2.3 -0.2,-0.6 -0.2,-0.4 -0.4,0.2 z"
   data-id="IN.DL"
   data-name="Delhi"
   id="IN.DL"
   inkscape:connector-curvature="0" />




<path
   d="m 796.8,31.5 0.1,0 -1.4,4.5 2.1,0.8 4.3,6.1 3.3,1.2 3.1,3.9 0.5,0.3 0,0 3.5,2 0.7,1.9 4.2,1.6 0,0 0,0 1.7,-1.3 -1.3,-5.5 0.9,-1.4 2.5,-1 5.1,0.7 0.5,-1.1 0,0 -1.3,-0.3 0,-2.9 -1.6,-3.1 -2.6,-3.2 -1.6,-2.8 -0.3,-0.5 -0.5,-1.8 -4,-0.2 -2.5,-3 -2.8,1.4 -2.2,-0.6 -4.2,-2.9 -2.1,-0.2 -4.3,3.3 -1.2,-0.1 1.7,2.8 -0.3,1.3 0,0.1 z"
   data-id="IN.HP"
   data-name="Himachal Pradesh"
   id="IN.HP"
   inkscape:connector-curvature="0" />




<path
   d="m 817.2,53.8 -4.2,-1.6 -0.7,-1.9 -3.5,-2 0,0 0.1,0.1 0.3,0.5 0.2,0.1 0.1,0.4 -0.1,0.2 0,0.1 0.3,0.4 0,0.2 0,0.2 0.1,0.2 0.1,0 1,1.7 -1.2,0.9 -0.5,2.5 -1.3,1 -2,0 -0.3,1.6 -2.1,2.1 -7.2,-0.8 -0.2,-1.1 -2.7,-0.6 -2,0.5 -0.6,-0.1 0.1,0.3 1.6,4.7 3.7,1.9 3.1,-0.1 3.6,6.6 2.8,2.6 2.4,3.4 0,2.5 1.5,0.3 0.1,-2.5 4.2,0.5 1.3,-2.2 1.1,2.2 0.5,3.3 2.8,-1.1 0.2,0 0.2,-0.2 1.3,-2.8 -0.8,-2.3 -1.5,-2 -0.1,-0.1 -0.5,0.1 -3.7,-0.4 -0.1,-0.9 2,-2.4 0.4,-0.2 0.1,-0.2 -2.2,-6.3 0.1,-5.1 2.2,-4.2 0,0 0,0 z"
   data-id="IN.HR"
   data-name="Haryana"
   id="IN.HR"
   inkscape:connector-curvature="0" />




<path
   d="m 792.4,33.4 1.7,0.3 1.9,-1.4 0.7,-0.7 0.1,-0.1 0,-0.1 0.3,-1.3 -1.7,-2.8 1.2,0.1 4.3,-3.3 2.1,0.2 4.2,2.9 2.2,0.6 2.8,-1.4 2.5,3 4,0.2 0.5,1.8 -0.1,-0.2 2.1,-0.4 3.4,2.5 4,-3.9 -2.6,-4.9 -2.4,-0.4 -3,-2.5 -2.3,-5.7 1.7,-2.3 -0.9,-1.7 -3.3,-1.8 -2.9,-0.8 -4.4,-6.9 -0.2,-2.4 -2.2,0 -2.7,2.1 -5.4,5.9 -4.9,0.6 -1.8,1.9 -1.6,0.1 -8.8,-2 -6.9,3.6 1.6,2.8 3.2,0.7 -1.4,2.2 1.2,5.9 3.6,2.9 3.7,4 2.8,1.5 3,0.7 0.7,0.5 z"
   data-id="IN.JK"
   data-name="Jammu and Kashmir"
   id="IN.JK"
   inkscape:connector-curvature="0" />




<path
   d="m 870,207.6 -0.4,-0.7 -0.6,0 1,0.7 z m -34.2,-26.9 0.3,0.2 0.8,3.5 -1.6,3.4 1.2,2.2 -1.1,2.1 1.1,8.9 1.4,0.9 -0.5,3.6 -3.3,0.3 -0.3,2.9 1.3,6.2 -3.1,-0.4 2.2,8.8 2,-0.9 2.9,0.5 -0.9,2.4 -2.2,0.3 -0.6,2.7 3.6,-0.6 1.1,1.4 2.5,-2.5 4.8,3.7 2.7,3 -0.5,2.6 -2,3.1 0.5,0.7 2.6,-0.7 1.2,-3.1 3.9,0.2 2.4,-1.9 0.2,-1.2 2.2,0.5 3.8,-2.3 0,-2.4 1.4,2.3 -1.6,-5.4 -0.1,-5.7 -1.8,-5.5 2.1,-7.2 3.3,-1.3 0.8,1.9 0.5,-2.7 3.9,-4.2 6.4,-0.7 2.2,-2.5 -1,-2.1 1.6,-3.4 10.8,-9.8 2.6,-1.4 5.3,-8.9 0,0 -5.7,3.3 -1.9,0 -2.2,-2.4 -1.9,-0.3 -1.7,3.1 -1.8,1.1 0.5,1.4 -2.3,1 -1.4,2.1 -2.2,-3 -0.2,4 -0.9,1.5 -1.9,-0.5 -5.1,2.6 -0.6,-0.1 -0.7,0 -2.7,0.2 -0.8,-2.4 -4.1,-5.5 -2.9,-1.9 -0.2,0 -0.1,0.2 -4,-4 0.5,-2.5 -0.4,-1.7 -2.8,-1 -7.1,-0.8 -0.3,-0.8 -3.5,-0.8 -2.2,4.5 -2.7,0.7 -0.5,2.4 1.4,2.6 -1.7,1.6 -1.5,3.1 0.6,0.6 0,0.2 z m 44.9,17 -0.4,-0.4 0.5,0.1 -0.1,0.3 z"
   data-id="IN.AP"
   data-name="Andhra Pradesh"
   id="IN.AP"
   inkscape:connector-curvature="0" />




<path
   d="m 816.5,239 0.2,0.4 2.2,4.4 1.5,3 0,0 0.3,-0.9 0.5,0.1 0,0.6 0,0 5.5,9.9 2.6,7 4.5,9.4 -2.3,-3.6 0.6,4.1 3.4,7 3.5,4.8 1.4,0.8 1,-2.8 -0.7,-5 1.5,-4.8 -2.1,-1.3 0.4,-1.6 -0.3,-5.5 -2.6,0.7 -1.1,-0.9 -0.4,-3.6 0.6,-1.4 -2.1,-1.8 0.8,-1 -1.1,-1.7 -1.2,0.1 -2.9,-3.1 1.5,-1.7 0,-0.1 -5.6,-3 -3.8,-3.4 -1.1,-1.7 -4.7,-3.4 0,0 z"
   data-id="IN.KL"
   data-name="Kerala"
   id="IN.KL"
   inkscape:connector-curvature="0" />




<path
   d="m 802.6,286.3 0.1,-0.2 -0.3,0.2 0.2,0 z m 4.6,-19.8 0,0.1 0,-0.1 0,0 z m -10.6,-6.7 -0.1,0 0,0.1 0.1,-0.1 z m 1.6,-3.4 -0.1,-0.1 0,0.1 0.1,0 z m 0.2,-0.8 0.1,-0.8 -0.1,0.4 0,0.4 z m -1,-5.3 0.1,-0.1 -0.1,0 0,0.1 z"
   data-id="IN.LD"
   data-name="Lakshadweep"
   id="IN.LD"
   inkscape:connector-curvature="0" />




<path
   d="m 913.6,139.4 -5.3,-2.7 -1.7,5.4 -7.2,-3.1 -0.2,-1.8 -7.1,1.3 -2.9,-2.2 -0.3,-0.1 0,0.2 -0.2,1.7 -3,2.5 0.4,2.9 -1.6,3 0.3,2.3 -6.3,3.4 -1,1.6 0.1,4.4 1.3,4.5 1.9,1.5 -3.6,0.4 -3.6,-2.7 4.1,11.6 -0.5,2.6 -2,1.2 -3.7,7.9 0,0.6 0,0.2 0.6,0.1 5.1,-2.6 1.9,0.5 0.9,-1.5 0.2,-4 2.2,3 1.4,-2.1 2.3,-1 -0.5,-1.4 1.8,-1.1 1.7,-3.1 1.9,0.3 2.2,2.4 1.9,0 5.7,-3.3 0.1,0 4.9,-5.6 -1.3,0.4 -0.3,-1.6 2.7,-1.2 1.4,1.4 3.5,-1 2.7,-2.1 0.7,-1.6 3.2,-4.5 0,-1.7 -1,-5.7 1.1,-1.6 3.5,-1.4 0,0 -0.8,-1.8 -1.6,-0.5 -2.5,-2.3 -2.9,-1.5 -0.2,-0.3 -0.4,-0.2 z"
   data-id="IN.OR"
   data-name="Orissa"
   id="IN.OR"
   inkscape:connector-curvature="0" />




<path
   d="m 793.6,161.2 -0.9,-1.3 -0.2,-0.5 -0.9,2.1 0,0.1 1.5,0.7 0.5,0.3 0,-0.9 0,-0.5 z"
   data-id="IN.DN"
   data-name="Dadra and Nagar Haveli"
   id="IN.DN"
   inkscape:connector-curvature="0" />




<path
   d="m 835.4,180.6 -2.7,-1 -1,2.3 -1.1,0.1 -1,3.2 -1.3,1.8 -0.7,-0.6 -2.3,1.6 -1.5,2.4 -1.7,0.6 -3.6,-0.6 0.5,1.1 -2.8,4 -2.5,-0.6 -2.4,3.5 -2.3,-0.2 -0.3,3.7 1,0.4 -0.7,5.3 -2,1 0,0.1 0.2,0.1 1.4,1.2 -0.9,6.7 0.1,0.3 1.5,1.4 4.9,10.6 0.3,2.6 2,7.1 0,0.3 4.7,3.4 1.1,1.7 3.8,3.4 5.6,3 0,-0.1 3.8,0.5 1.4,-2 3.9,0.3 3,-3.4 -0.7,-0.9 -0.6,-5 4.5,-1 0.6,0.1 2,-3.1 0.5,-2.6 -2.7,-3 -4.8,-3.7 -2.5,2.5 -1.1,-1.4 -3.6,0.6 0.6,-2.7 2.2,-0.3 0.9,-2.4 -2.9,-0.5 -2,0.9 -2.2,-8.8 3.1,0.4 -1.3,-6.2 0.3,-2.9 3.3,-0.3 0.5,-3.6 -1.4,-0.9 -1.1,-8.9 1.1,-2.1 -1.2,-2.2 1.6,-3.4 -0.8,-3.5 -0.3,-0.2 -0.4,-0.1 z"
   data-id="IN.KA"
   data-name="Karnataka"
   id="IN.KA"
   inkscape:connector-curvature="0" />




<path
   d="m 860.4,148.8 -2.4,-0.9 -2.1,-2.1 -3.1,1.1 -0.4,-0.6 -8.1,0.1 -0.1,0.7 -4.6,-1.1 -3.3,1.8 -5.2,-0.2 1,-0.9 -1.3,-2.4 -3.1,0.5 -2.8,1.6 -0.8,3.4 -4.1,1.7 -0.7,-2 -2.5,-1.3 -5.1,0.2 -3.5,-2.1 -2.4,-0.4 -5.5,-3.5 -0.6,0.1 -1.7,4.6 1.6,7.4 -4.2,1 0.1,5.5 -1.6,0.8 -0.3,-0.1 0,0.9 -0.5,-0.3 -1.5,-0.7 -0.4,0.2 -2,1.7 1.5,4.8 1.6,1.9 -0.7,3.1 1.4,-1.6 -0.6,3.8 0.9,4.7 3.2,8.3 4.2,15.6 2.5,3.8 0.1,0 1.9,0.1 0.2,0.6 1.3,0.2 0.3,-0.1 0,-0.1 2,-1 0.7,-5.3 -1,-0.4 0.3,-3.7 2.3,0.2 2.4,-3.5 2.5,0.6 2.8,-4 -0.5,-1.1 3.6,0.6 1.7,-0.6 1.5,-2.4 2.3,-1.6 0.7,0.6 1.3,-1.8 1,-3.2 1.1,-0.1 1,-2.3 2.7,1 0.4,0.1 0,-0.2 -0.6,-0.6 1.5,-3.1 1.7,-1.6 -1.4,-2.6 0.5,-2.4 2.7,-0.7 2.2,-4.5 3.5,0.8 0.3,0.8 7.1,0.8 2.8,1 0.4,1.7 -0.5,2.5 4,4 0.1,-0.2 0,-0.1 0.3,-3.7 0.7,-2.2 3.3,-0.4 0.5,-1.7 -4.6,-4.7 0.5,-2.1 -1.1,-0.3 1.3,-1.5 0,-3.1 -1.2,-0.2 -1,-4.6 1.8,-2.6 0,-0.5 -0.2,0.1 z"
   data-id="IN.MH"
   data-name="Maharashtra"
   id="IN.MH"
   inkscape:connector-curvature="0" />




<path
   d="m 995.7,297.3 -1.7,0.3 1.7,4.6 0.8,-2.8 -0.8,-2.1 z m -2,-0.5 0.7,-1.1 -1.2,0.5 0.5,0.6 z m -1.1,-7.7 -0.5,-0.1 0,0.4 0.5,-0.3 z m -0.5,-1.1 -0.8,-0.7 0.2,0.8 0.6,-0.1 z m -2.6,-1.5 -0.3,-0.1 0.1,0.2 0.2,-0.1 z m 3.2,-2.1 -0.2,-1 0.1,0.3 0.1,0.7 z m -7.6,-7.4 -0.8,-1 -0.4,0.3 1.2,0.7 z m -3.5,-17.3 -1,-1 -0.5,0.4 1.5,0.6 z m 0.1,-6 -0.2,-1.5 -0.3,1.3 0.5,0.2 z m -3.6,-1.8 -0.4,-0.5 0.1,0.4 0.3,0.1 z m 7,-3.8 -0.9,-1.5 -0.3,0.5 1.2,1 z m -0.2,-1.8 -0.5,-0.6 0.1,0.4 0.4,0.2 z m 0.4,-0.4 -0.4,-1 0,0.6 0.4,0.4 z m -4.4,-7.3 0.2,-1.7 -0.5,0 0.3,1.7 z m 2.7,-2 -0.3,0.6 0.1,0 0.2,-0.6 z m -2.7,-0.8 -0.2,-0.4 -0.1,0.1 0.3,0.3 z m 2.2,-5.3 -1.3,2.4 0.2,2.2 -0.7,5.6 0,4 -1,3.4 1.9,4.2 0,-5.9 1.7,-4.9 -1.3,-4.8 1.2,-0.9 -0.7,-5.3 z"
   data-id="IN.AN"
   data-name="Andaman and Nicobar"
   id="IN.AN"
   inkscape:connector-curvature="0" />




<path
   d="m 982.2,88.9 3,-2.3 3,-0.3 -0.1,-1.7 -3.3,-5.7 -1.8,1.1 -10.3,3.7 -1.6,1.8 -1.2,2.8 -1.5,1.2 -5.5,0.3 -3.3,-1.1 -3.5,1.4 -1.5,0.1 0,0.3 -0.3,0.4 -6.5,0.8 -10.2,-0.6 -2.6,1.2 0,0 0.5,3.5 -1.2,2.1 0,0.2 1.8,3.4 1,3.7 0,0.6 1.3,-4.9 2.7,-1.2 5.6,0.8 2,0.7 0.8,1.4 2.5,-3.1 1.2,0.8 1,-1.3 3.7,0 0,4.2 4.8,0.8 -0.7,1.3 2.2,2 -3.1,3 0.1,0.1 -0.7,1.1 -0.6,0 0,3.7 -0.1,0 1.3,2.1 -0.1,0.8 0.1,0.2 0.6,0.1 0.6,0 2.4,0 0.3,-1.1 2.7,-0.4 0.2,-0.2 0,-0.1 0.1,-3 1,-3.7 1.2,-2.7 0,0 0,-0.2 -1.4,-2.2 4.9,-4.1 -0.1,-2.2 1,-3.7 2.1,-2.1 5.4,-3.6 0.1,-0.1 0,-0.1 z"
   data-id="IN.AS"
   data-name="Assam"
   id="IN.AS"
   inkscape:connector-curvature="0" />




<path
   d="m 970.2,107.2 0,0 -1.2,2.7 -1,3.7 -0.1,3 0,0.1 0.1,0.1 0.2,2.7 2.9,1 0,0 7.1,1.6 1,-1.2 0.6,-4.2 2,-5.2 -1.2,-2.9 0,-2.7 0.1,-0.2 -8.1,-0.9 -1,3.3 -1.4,-0.9 0,0 z"
   data-id="IN.MN"
   data-name="Manipur"
   id="IN.MN"
   inkscape:connector-curvature="0" />




<path
   d="m 982.2,89 -0.1,0.1 -5.4,3.6 -2.1,2.1 -1,3.7 0.1,2.2 -4.9,4.1 1.4,2.2 0,0.2 0,0 1.4,0.9 1,-3.3 8.1,0.9 0.1,-0.1 2.5,-3.4 0.5,-2.3 -0.2,-6.9 0,0 -0.4,-1.1 -0.3,-0.7 -0.7,-1.9 0,-0.3 z"
   data-id="IN.NL"
   data-name="Nagaland"
   id="IN.NL"
   inkscape:connector-curvature="0" />




<path
   d="m 937,106 0.6,1.4 4.2,1.1 4.7,0.3 4.4,-0.3 10.1,1.6 0.1,0.2 3.1,-3 -2.2,-2 0.7,-1.3 -4.8,-0.8 0,-4.2 -3.7,0 -1,1.3 -1.2,-0.8 -2.5,3.1 -0.8,-1.4 -2,-0.7 -5.6,-0.8 -2.7,1.2 -1.3,4.9 -0.1,0.2 z"
   data-id="IN.ML"
   data-name="Meghalaya"
   id="IN.ML"
   inkscape:connector-curvature="0" />




<path
   d="m 808.3,48 -3.1,-3.9 -3.3,-1.2 -4.3,-6.1 -2.1,-0.8 1.4,-4.5 -0.1,0 -0.1,0.1 -0.7,0.7 -1.9,1.4 -1.7,-0.3 0.3,0.2 -1.4,2.5 -4.2,2.5 1.4,7.6 1.1,0.3 -1.6,1.4 -2.8,7.7 0,0.1 0.2,2.3 4.2,0.2 1.2,0.2 0.6,0.1 2,-0.5 2.7,0.6 0.2,1.1 7.2,0.8 2.1,-2.1 0.3,-1.6 2,0 1.3,-1 0.5,-2.5 1.2,-0.9 -1,-1.7 -0.1,0 -0.1,0 -0.8,-0.4 -0.4,-0.3 0.6,-0.5 0.3,0.1 0.1,-0.2 -0.1,-0.4 -0.2,-0.1 -0.3,-0.5 -0.1,-0.1 -0.5,-0.3 z"
   data-id="IN.PB"
   data-name="Punjab"
   id="IN.PB"
   inkscape:connector-curvature="0" />




<path
   d="m 789.6,58.2 -4.2,-0.2 -0.2,-2.3 0,0.2 -4.4,2.5 -0.6,4.3 -1.9,5.4 -4.4,2.7 -2.8,6.6 0,1.8 -2.7,1 -3.6,0.5 -2.6,1.3 -2.1,-2.2 -3,-1 -5.6,9.2 -0.1,3.4 3.5,2.4 2.2,-0.1 1.3,4.3 -0.1,2.6 1.7,2.1 2.3,0.6 6.4,10 7.2,0.9 4.6,0 5.5,2.9 3.7,3.6 0.8,-0.9 0.4,2.1 2.7,4 4.7,2.8 2.3,2.1 0.1,0.2 3.3,-1.3 -1.8,-1.1 0.8,-1.6 1.8,-1.1 0.6,-1.5 -0.9,-4.7 -1.5,-1.5 -0.6,-5.3 1.4,1 1.2,-3.3 2.9,1 -1.4,1.7 5,-0.4 0.7,6.5 -2.1,1.3 1.9,2.4 0.2,-1.3 2.2,-0.4 0.9,-3.9 6,1.7 1,-0.7 -0.9,-1.4 1.9,-2.1 -2.1,-3.4 0.1,-1.8 3.7,-0.6 -0.1,-1.9 -1.4,-1.2 -2.6,1 -3.9,-2.5 -0.3,-3.1 5.3,-4.2 0.9,-1.1 6.9,-4.9 0.1,-0.1 0,-0.1 0.3,-1 -4.7,-0.1 -2.8,0.8 2.6,-1.5 -2.1,-0.8 0.5,-2.3 -1.7,-1.1 -2,-3.8 -0.2,-0.5 -0.2,0 -2.8,1.1 -0.5,-3.3 -1.1,-2.2 -1.3,2.2 -4.2,-0.5 -0.1,2.5 -1.5,-0.3 0,-2.5 -2.4,-3.4 -2.8,-2.6 -3.6,-6.6 -3.1,0.1 -3.7,-1.9 -1.6,-4.7 -0.1,-0.3 -1.2,-0.2 z"
   data-id="IN.RJ"
   data-name="Rajasthan"
   id="IN.RJ"
   inkscape:connector-curvature="0" />




<path
   d="m 817.2,53.8 0,0 -2.2,4.2 -0.1,5.1 2.2,6.3 -0.1,0.2 0.2,0.4 0.2,0.6 1.2,2.3 0.3,0.5 0.1,0.1 1.5,2 0.8,2.3 -1.3,2.8 -0.2,0.2 0.2,0.5 2,3.8 1.7,1.1 -0.5,2.3 2.1,0.8 -2.6,1.5 2.8,-0.8 4.7,0.1 -0.3,1 0,0.1 0.2,0 4.9,0.4 1.8,0.9 1.3,4.3 -1.2,6.8 -3.3,1 0.6,5.5 -1.2,1.4 2.2,5.9 1.8,-0.6 2.7,1.8 1.1,-2 -1.1,-2.2 -1.3,-0.2 -2.4,-6.1 -0.1,-2.1 2.7,-1.1 0.7,3.2 3.8,-0.7 2.4,1.3 5.6,-2.7 1.5,2 -1.1,1.7 1.6,0.2 3.5,-1.8 -0.5,2.4 3.4,0.5 0.7,-2.4 1.8,-0.1 4.2,2.5 3.4,1.4 1.1,1.8 2.8,-0.6 1.6,1.4 -0.4,3.9 1.1,1.6 0.3,0.4 0.4,0.1 1,0.7 1.6,0.1 1.6,-2.2 0.1,-0.2 0.1,-0.6 0.6,-1.8 -0.5,-0.7 0.1,-0.9 0.7,-0.1 0,-0.3 -0.3,-2 -1.8,-1.4 0,-3.9 3.1,-2.2 2.6,-2.9 4,0 -1.9,-1.8 -1.6,-0.4 -2.8,-2.7 1.5,-0.7 -2.6,-2.2 1.4,-1.8 2.6,0 -2,-2.5 -1.5,-0.4 -2.8,-4.4 0,-0.1 -2.5,-1.1 -2.6,1.4 -1.5,-1.2 -3.5,-0.6 -1.4,-2.2 -3.5,-0.6 -2.5,-1.6 -7.1,-2.4 -1.5,-2.3 -6.2,-3.3 -0.3,1.1 -4.2,-2.6 -0.1,0 -4.6,-0.6 -8.5,-4.4 1.5,-1 -2.7,-1.5 -4.6,-4.3 0,2.8 -2.2,-0.2 -2.1,-2.8 1,-2.9 -3.1,-1.7 -0.3,0.2 z"
   data-id="IN.UP"
   data-name="Uttar Pradesh"
   id="IN.UP"
   inkscape:connector-curvature="0" />




<path
   d="m 826.6,44.2 -0.5,1.1 -5.1,-0.7 -2.5,1 -0.9,1.4 1.3,5.5 -1.7,1.3 0,0 0.3,-0.2 3.1,1.7 -1,2.9 2.1,2.8 2.2,0.2 0,-2.8 4.6,4.3 2.7,1.5 -1.5,1 8.5,4.4 4.6,0.6 -0.1,0 0.8,-3.2 -0.7,-3.2 4.2,-8.2 -1.2,-1.1 -5.9,-3.2 -4,-3.5 -2.2,0.2 -3.5,-2.9 -3.5,-1 -0.1,0.1 z"
   data-id="IN.UT"
   data-name="Uttaranchal"
   id="IN.UT"
   inkscape:connector-curvature="0" />




<path
   d="m 919.1,108 -2.9,-0.6 -2.4,2.6 -0.5,4.7 -3.1,0.5 -1.7,2.1 -2.3,-2.4 -3.9,-2.1 -4.4,2.9 -1.5,1.6 -3,-1.6 -2.2,2 -4.8,-3.4 -1.3,0.9 -3.1,0.1 -0.2,0 -0.7,0.1 -0.1,0.9 0.5,0.7 -0.6,1.8 -0.1,0.6 0.5,0.2 4.9,5.6 4.4,6.3 0.2,2.4 -1.9,2.2 0,0.1 0.3,0.1 2.9,2.2 7.1,-1.3 0.2,1.8 7.2,3.1 1.7,-5.4 5.3,2.7 0.4,0.2 0.1,0 -2.3,-5.4 -1.3,-0.8 0.2,-2 -1.7,-0.2 -4.2,-2.3 4.6,-4 3.1,-1 0.6,-2 5.4,-1.6 -0.1,-0.8 2.2,-3.9 -0.5,-1 -0.2,-4.7 -0.7,-1.6 0,-0.2 -0.1,-0.1 z"
   data-id="IN.JH"
   data-name="Jharkhand"
   id="IN.JH"
   inkscape:connector-curvature="0" />




<path
   d="m 935.2,146.8 -0.4,-0.6 -0.4,-0.2 0.8,0.8 z m -7.2,-1 -0.7,-1.9 -0.2,1.1 0.9,0.8 z m 4.4,-2.2 -0.5,0.4 0.5,0.1 0,-0.5 z M 917.2,87 l 0,1.1 2.2,2.7 0.1,2.9 -0.1,0.5 2.1,2.1 -3.4,3.6 -0.1,1 2.7,2.4 0.5,1.9 -2.6,0.6 0.8,2 -0.2,0.3 0,0.2 0.7,1.6 0.2,4.7 0.5,1 -2.2,3.9 0.1,0.8 -5.4,1.6 -0.6,2 -3.1,1 -4.6,4 4.2,2.3 1.7,0.2 -0.2,2 1.3,0.8 2.3,5.4 -0.1,0 0.2,0.3 2.9,1.5 2.5,2.3 1.6,0.5 0.8,1.8 1.3,-0.4 4.3,-4.6 0.6,0.1 0.1,4.1 0.8,1.4 1.4,-0.5 0.4,-2.9 1.2,-0.7 1.2,3.8 1.4,-0.9 1.2,0.7 -0.3,-6.4 -0.7,-1.3 -2.4,-8 -2,-2.1 -1,-2.9 -0.9,-8.1 -5,-1.6 -1.3,-1.6 0.8,-2.1 1.5,-0.2 1.3,-3.3 2.5,-0.1 1.5,-1.1 -3.4,-1.8 -4.4,-3.6 -1,0.2 0.1,-3.9 3.6,-2.7 0.6,1.1 3.3,-0.3 0.9,2.1 2.1,1.5 2,-0.3 0.5,-1.9 0.1,0.2 1.2,-2.1 -0.5,-3.5 -0.1,-0.1 -4.8,-1.3 -4.5,-1.2 -1.5,-1.9 -0.1,0 -2,-0.3 -0.5,0.6 -4.3,-1.4 0,0.3 z"
   data-id="IN.WB"
   data-name="West Bengal"
   id="IN.WB"
   inkscape:connector-curvature="0" />




<path
   d="m 879.7,85.7 2.8,4.4 1.5,0.4 2,2.5 -2.6,0 -1.4,1.8 2.6,2.2 -1.5,0.7 2.8,2.7 1.6,0.4 1.9,1.8 -4,0 -2.6,2.9 -3.1,2.2 0,3.9 1.8,1.4 0.3,2 0,0.3 0.2,0 3.1,-0.1 1.3,-0.9 4.8,3.4 2.2,-2 3,1.6 1.5,-1.6 4.4,-2.9 3.9,2.1 2.3,2.4 1.7,-2.1 3.1,-0.5 0.5,-4.7 2.4,-2.6 2.9,0.6 0.1,0.1 0.2,-0.3 -0.8,-2 2.6,-0.6 -0.5,-1.9 -2.7,-2.4 0.1,-1 3.4,-3.6 -2.1,-2.1 0,0.2 -6.3,1.2 -0.2,0.5 -4.3,-1.5 -0.4,0.6 -7.7,-2.2 -1.1,0.8 -3,-2.9 -8.9,-1.9 -1.2,-3.1 -2.7,-0.5 -3.8,0.3 -0.1,0 z"
   data-id="IN.BR"
   data-name="Bihar"
   id="IN.BR"
   inkscape:connector-curvature="0" />




<path
   d="m 917.2,86.7 4.3,1.4 0.5,-0.6 2,0.3 0,-0.1 1.1,-1.7 -1.5,-1.2 0,-4.3 -0.8,-1.8 -5.4,3 0,4.5 -0.2,0.5 z"
   data-id="IN.SK"
   data-name="Sikkim"
   id="IN.SK"
   inkscape:connector-curvature="0" />




<path
   d="m 888.9,136.1 1.9,-2.2 -0.2,-2.4 -4.4,-6.3 -4.9,-5.6 -0.5,-0.2 -0.1,0.2 -1.6,2.2 -1.6,-0.1 -1,-0.7 -0.4,-0.1 -0.1,0.2 -2,2.2 -8.3,-0.7 1.6,3.1 4.4,2.7 -0.3,2 -2.8,2.6 -0.2,2.1 -2.3,2.1 -2.9,0.5 0,1.5 -2.5,9 -0.1,0.5 0,0.5 -1.8,2.6 1,4.6 1.2,0.2 0,3.1 -1.3,1.5 1.1,0.3 -0.5,2.1 4.6,4.7 -0.5,1.7 -3.3,0.4 -0.7,2.2 -0.3,3.7 0,0.1 0.2,0 2.9,1.9 4.1,5.5 0.8,2.4 2.7,-0.2 0.7,0 0,-0.2 0,-0.6 3.7,-7.9 2,-1.2 0.5,-2.6 -4.1,-11.6 3.6,2.7 3.6,-0.4 -1.9,-1.5 -1.3,-4.5 -0.1,-4.4 1,-1.6 6.3,-3.4 -0.3,-2.3 1.6,-3 -0.4,-2.9 3,-2.5 0.2,-1.7 0,-0.2 0,-0.1 z"
   data-id="IN.CT"
   data-name="Chhattisgarh"
   id="IN.CT"
   inkscape:connector-curvature="0" />




<path
   d="m 875.8,120.5 -1.1,-1.6 0.4,-3.9 -1.6,-1.4 -2.8,0.6 -1.1,-1.8 -3.4,-1.4 -4.2,-2.5 -1.8,0.1 -0.7,2.4 -3.4,-0.5 0.5,-2.4 -3.5,1.8 -1.6,-0.2 1.1,-1.7 -1.5,-2 -5.6,2.7 -2.4,-1.3 -3.8,0.7 -0.7,-3.2 -2.7,1.1 0.1,2.1 2.4,6.1 1.3,0.2 1.1,2.2 -1.1,2 -2.7,-1.8 -1.8,0.6 -2.2,-5.9 1.2,-1.4 -0.6,-5.5 3.3,-1 1.2,-6.8 -1.3,-4.3 -1.8,-0.9 -4.9,-0.4 -0.2,0 -0.1,0.1 -6.9,4.9 -0.9,1.1 -5.3,4.2 0.3,3.1 3.9,2.5 2.6,-1 1.4,1.2 0.1,1.9 -3.7,0.6 -0.1,1.8 2.1,3.4 -1.9,2.1 0.9,1.4 -1,0.7 -6,-1.7 -0.9,3.9 -2.2,0.4 -0.2,1.3 -1.9,-2.4 2.1,-1.3 -0.7,-6.5 -5,0.4 1.4,-1.7 -2.9,-1 -1.2,3.3 -1.4,-1 0.6,5.3 1.5,1.5 0.9,4.7 -0.6,1.5 -1.8,1.1 -0.8,1.6 1.8,1.1 -3.3,1.3 0.2,0.5 1.2,1.6 -0.5,2 -2.6,1.3 1.2,5.3 0.1,0.7 5.5,3.5 2.4,0.4 3.5,2.1 5.1,-0.2 2.5,1.3 0.7,2 4.1,-1.7 0.8,-3.4 2.8,-1.6 3.1,-0.5 1.3,2.4 -1,0.9 5.2,0.2 3.3,-1.8 4.6,1.1 0.1,-0.7 8.1,-0.1 0.4,0.6 3.1,-1.1 2.1,2.1 2.4,0.9 0.2,-0.1 0.1,-0.5 2.5,-9 0,-1.5 2.9,-0.5 2.3,-2.1 0.2,-2.1 2.8,-2.6 0.3,-2 -4.4,-2.7 -1.6,-3.1 8.3,0.7 2,-2.2 0.1,-0.2 -0.3,-0.4 z"
   data-id="IN.MP"
   data-name="Madhya Pradesh"
   id="IN.MP"
   inkscape:connector-curvature="0" />




<path
   d="m 863.2,257.8 -0.6,0.7 0.9,0.4 -0.3,-1.1 z m -42.7,-11 0.1,0.1 0.1,0.1 0.1,-0.1 0.4,-0.3 0,-0.6 -0.5,-0.1 -0.3,0.9 0.1,0 z"
   data-id="IN.PY"
   data-name="Puducherry"
   id="IN.PY"
   inkscape:connector-curvature="0" />




<path
   d="m 806.7,208.8 -1.3,-0.2 -0.2,-0.6 -1.9,-0.1 -0.1,0.1 1.2,2.6 -0.1,0.6 3.3,5.4 0.1,0.1 0.9,-6.7 -1.4,-1.2 -0.2,-0.1 -0.3,0.1 z"
   data-id="IN.GA"
   data-name="Goa"
   id="IN.GA"
   inkscape:connector-curvature="0" />




<path
   d="m 954.6,90.2 1.5,-0.1 3.5,-1.4 3.3,1.1 5.5,-0.3 1.5,-1.2 1.2,-2.8 1.6,-1.8 10.3,-3.7 1.8,-1.1 3.3,5.7 0.1,1.7 -3,0.3 -3,2.3 0,0.1 0,0.3 0.7,1.9 0.3,0.7 0.4,1.1 0.2,0 2.4,-1.7 3.1,-4 6.4,-1.6 1.1,1.7 2.7,0.6 -3.5,-5.2 3,-3 -0.4,-3.3 -7.7,-5.1 -1.7,-2.7 -2.7,-0.7 0.8,-2.6 -3.8,-0.9 -5.4,2.6 -4.8,-0.6 -0.8,-1.2 -4.5,4.2 -6.2,3 -2.4,3.5 -2.3,1.7 0.4,1.8 -3.6,1.3 -5.2,0.5 1.8,3.6 1.9,-0.5 2.2,5.6 0,0.2 z"
   data-id="IN.AR"
   data-name="Arunachal Pradesh"
   id="IN.AR"
   inkscape:connector-curvature="0" />




<path
   d="m 967.7,116.9 -2.7,0.4 -0.3,1.1 -2.4,0 -0.6,0 0.1,0.2 0.2,0.3 0.2,3.7 0.1,1.4 0,0.2 2.7,8.4 1,2 2.2,7.2 3.3,0 1.8,-11.8 -1,-6.4 -1.1,-2.9 -0.1,-0.2 -2.9,-1 -0.2,-2.7 -0.1,-0.1 -0.2,0.2 z"
   data-id="IN.MZ"
   data-name="Mizoram"
   id="IN.MZ"
   inkscape:connector-curvature="0" />




<path
   d="m 961.1,118.3 -0.1,-0.2 0.1,-0.8 -1.3,-2.1 -0.1,0.1 -2,4 -4.3,0.8 1.5,9.4 0.6,-0.5 2.2,2.6 1.3,-1 -0.7,-2.1 1,-1.7 0,-3 3,0.2 0,0 -0.1,-1.4 -0.2,-3.7 -0.2,-0.3 -0.1,-0.2 -0.6,-0.1 z"
   data-id="IN.TR"
   data-name="Tripura"
   id="IN.TR"
   inkscape:connector-curvature="0" />




</g>
</svg>
