<?xml version="1.0" ?>
<!DOCTYPE svg
  PUBLIC '-//W3C//DTD SVG 1.1//EN'
  'http://www.w3.org/Graphics/SVG/1.1/DTD/svg11.dtd'>
<svg enable_background="new 0 0 1000 962" height="962px" pretty_print="True" style="stroke-linejoin: round; stroke:#000; fill: none;" version="1.1" viewBox="0 0 1000 962" width="1000px" xmlns="http://www.w3.org/2000/svg" xmlns:xlink="http://www.w3.org/1999/xlink">
utf-8<defs>
utf-8utf-8<style type="text/css">
<![CDATA[path { fill-rule: evenodd; }]]>utf-8utf-8</style>
utf-8</defs>
utf-8<metadata>
utf-8utf-8<views>
utf-8utf-8utf-8<view h="962.094674054" padding="0" w="1000">
utf-8utf-8utf-8utf-8<proj flip="auto" id="robinson" lon0="43.0157168286"/>
utf-8utf-8utf-8utf-8<bbox h="140.05" w="145.72" x="544.92" y="-627.43"/>
utf-8utf-8utf-8</view>
utf-8utf-8</views>
utf-8</metadata>
utf-8<g class="" id="provinces">
utf-8utf-8<path d="M286.3,36.7L291.0,44.5L297.1,49.3L298.7,49.2L300.3,47.1L300.8,53.2L302.5,53.5L302.2,56.1L304.8,60.0L302.3,60.2L303.3,62.3L305.0,61.6L310.0,64.3L311.8,67.9L313.5,68.7L317.5,68.7L319.5,67.2L326.9,72.8L330.4,74.4L327.5,76.8L328.3,77.8L333.2,76.1L334.7,76.8L337.1,80.0L338.5,77.9L342.2,77.9L349.3,73.6L361.5,71.9L365.2,71.6L369.4,69.0L370.6,62.4L372.6,57.9L375.0,54.4L378.2,51.6L381.8,52.1L391.7,58.9L394.9,60.4L410.7,64.3L413.2,61.0L414.9,61.5L416.1,59.4L416.9,51.9L415.7,49.3L407.8,46.7L406.8,45.2L406.9,40.4L408.7,38.3L419.0,40.8L421.8,41.9L424.9,42.6L426.5,40.5L431.5,35.3L435.2,33.6L434.7,32.7L437.4,31.4L440.0,27.8L444.0,25.1L443.4,24.3L444.5,21.6L446.9,18.9L444.2,13.6L444.5,11.2L442.2,7.2L438.9,6.7L434.7,7.4L431.7,10.3L429.6,14.3L427.2,17.6L422.3,18.5L419.7,20.6L415.5,17.5L410.7,16.7L401.1,17.4L396.2,16.1L392.1,14.2L386.0,14.8L381.0,11.3L372.6,6.5L368.2,7.8L365.9,7.6L352.4,1.0L344.1,1.8L340.7,3.3L338.6,5.1L334.8,6.5L330.9,5.9L322.6,3.4L321.0,0.8L318.1,0.1L312.7,3.3L312.4,5.9L300.8,27.5L292.9,28.8L287.7,30.6L283.6,31.1L286.0,35.0L286.3,36.7L286.3,36.7Z " data-id="IQ.DA" data-name="Dihok" id="IQ.DA"/>
utf-8utf-8<path d="M520.6,173.5L519.8,171.9L515.9,176.9L513.7,176.5L513.7,178.6L512.1,177.1L506.8,176.4L502.2,177.5L499.0,179.6L498.6,180.6L494.2,179.4L491.8,181.3L489.5,181.5L487.6,180.6L480.0,179.2L476.4,180.4L475.0,185.8L474.2,186.4L468.7,186.9L457.5,179.7L453.8,179.2L453.3,181.8L447.5,189.2L442.4,194.1L442.8,196.4L445.3,198.8L446.7,202.2L443.8,206.2L442.8,214.0L436.2,217.7L429.7,218.5L427.8,224.5L417.4,228.0L412.4,227.2L407.7,224.5L406.1,225.4L404.9,228.0L403.4,227.9L401.4,224.2L399.5,223.5L399.7,228.8L401.9,232.0L404.7,234.7L410.3,237.7L410.0,245.2L415.0,246.0L417.1,246.9L417.1,249.2L414.5,250.7L414.2,252.0L425.1,263.1L426.6,265.0L434.7,270.2L442.6,273.7L470.2,288.8L477.3,291.4L486.0,295.0L492.3,298.6L501.5,306.6L509.6,312.2L512.0,312.4L514.1,309.0L511.8,306.2L511.9,304.3L515.1,296.6L516.3,295.5L517.1,289.0L521.7,281.6L527.0,277.4L527.5,274.3L525.0,269.7L524.8,266.0L527.3,262.9L528.5,262.8L532.2,259.3L539.3,256.9L540.3,255.0L539.4,253.4L539.2,250.4L542.5,247.4L543.8,240.4L541.7,234.9L542.1,232.7L544.8,227.9L545.5,223.0L540.0,217.0L539.6,215.9L539.1,208.3L540.4,199.9L538.9,195.6L533.9,191.7L528.4,186.0L521.4,174.5L520.6,173.5Z " data-id="IQ.TS" data-name="At-Ta'mim" id="IQ.TS"/>
utf-8utf-8<path d="M442.2,7.2L444.5,11.2L444.2,13.6L446.9,18.9L444.5,21.6L443.4,24.3L444.0,25.1L440.0,27.8L437.4,31.4L434.7,32.7L435.2,33.6L431.5,35.3L426.5,40.5L424.9,42.6L431.5,45.8L435.4,46.7L439.9,49.9L446.1,55.8L455.7,60.9L457.4,62.5L467.0,66.4L473.5,73.9L475.0,75.1L472.0,80.6L469.7,83.0L468.6,85.3L462.7,89.7L460.3,90.8L457.1,90.1L455.8,92.0L450.2,88.3L450.9,89.8L448.6,90.8L442.8,98.3L441.3,97.2L441.1,100.6L439.3,101.6L436.4,102.0L437.3,106.6L432.8,108.5L434.1,112.4L432.6,117.5L424.6,126.7L422.6,127.7L417.2,135.2L415.8,139.6L414.1,140.9L411.1,147.8L411.6,151.9L409.4,156.1L397.8,161.2L397.2,162.4L398.3,165.4L399.4,166.4L402.7,167.5L403.4,177.8L402.1,180.8L400.2,181.3L398.5,186.8L398.7,189.8L400.9,193.5L400.7,196.7L400.5,198.3L403.1,202.5L403.1,204.6L405.5,206.1L407.1,209.3L408.8,218.4L408.4,224.2L407.7,224.5L412.4,227.2L417.4,228.0L427.8,224.5L429.7,218.5L436.2,217.7L442.8,214.0L443.8,206.2L446.7,202.2L445.3,198.8L442.8,196.4L442.4,194.1L447.5,189.2L453.3,181.8L453.8,179.2L457.5,179.7L468.7,186.9L474.2,186.4L475.0,185.8L476.4,180.4L480.0,179.2L487.6,180.6L489.5,181.5L491.8,181.3L494.2,179.4L498.6,180.6L499.0,179.6L502.2,177.5L506.8,176.4L512.1,177.1L513.7,178.6L513.7,176.5L515.9,176.9L519.8,171.9L520.6,173.5L521.4,174.5L523.0,173.7L528.4,175.9L530.5,175.2L533.5,176.7L538.8,177.4L540.5,175.5L541.9,178.3L544.3,175.8L543.0,173.9L546.3,173.5L548.1,174.5L553.0,175.3L554.3,174.2L553.5,171.5L546.6,168.3L540.5,163.9L532.2,155.5L527.6,153.1L517.0,146.3L515.7,143.7L522.3,137.0L515.6,129.4L514.5,128.6L512.2,130.1L505.4,121.8L504.3,117.9L507.0,115.2L509.3,111.5L511.9,109.3L518.3,109.7L526.5,107.9L531.0,105.4L535.0,104.9L539.2,105.9L544.8,104.9L546.3,100.7L545.9,100.4L544.3,98.6L544.2,96.7L545.9,95.8L545.6,93.3L546.0,89.3L547.1,85.1L546.9,82.9L542.6,76.1L540.9,74.2L531.8,70.0L528.9,70.2L526.3,69.6L524.2,68.4L523.2,66.3L523.7,63.4L527.4,57.2L527.5,54.4L524.6,47.8L524.6,41.1L519.4,38.5L517.7,39.1L512.0,33.9L511.5,27.4L510.0,25.3L508.0,24.4L497.8,23.0L496.0,23.1L493.2,24.5L490.0,27.1L487.1,30.3L485.2,33.2L480.9,36.4L473.2,39.0L472.6,42.2L471.0,46.6L469.1,47.6L465.0,46.6L458.0,36.1L456.9,33.7L457.0,28.8L458.3,26.8L461.3,25.5L461.9,24.1L460.6,18.9L459.4,16.2L453.8,11.3L444.0,7.5L442.2,7.2Z " data-id="IQ.AR" data-name="Arbil" id="IQ.AR"/>
utf-8utf-8<path d="M421.8,41.9L419.0,40.8L408.7,38.3L406.9,40.4L406.8,45.2L407.8,46.7L415.7,49.3L416.9,51.9L416.1,59.4L414.9,61.5L413.2,61.0L410.7,64.3L394.9,60.4L391.7,58.9L381.8,52.1L378.2,51.6L375.0,54.4L372.6,57.9L370.6,62.4L369.4,69.0L365.2,71.6L361.5,71.9L349.3,73.6L342.2,77.9L338.5,77.9L337.1,80.0L334.7,76.8L333.2,76.1L328.3,77.8L327.5,76.8L330.4,74.4L326.9,72.8L319.5,67.2L317.5,68.7L313.5,68.7L311.8,67.9L310.0,64.3L305.0,61.6L303.3,62.3L302.3,60.2L304.8,60.0L302.2,56.1L302.5,53.5L300.8,53.2L300.3,47.1L298.7,49.2L297.1,49.3L291.0,44.5L286.3,36.7L283.7,39.0L270.2,55.1L243.4,88.8L241.2,90.9L238.8,92.1L210.2,98.3L204.2,99.4L201.6,100.6L194.0,119.6L193.7,122.7L194.8,152.1L195.7,156.1L199.0,161.8L208.6,177.8L210.2,181.5L211.2,185.4L213.9,201.4L213.9,205.1L212.9,208.6L206.7,220.3L206.3,223.8L207.1,235.2L205.1,249.6L205.1,256.7L205.6,259.4L220.1,260.6L236.9,265.2L243.5,266.2L271.2,277.1L284.5,282.0L290.8,282.4L304.0,280.7L312.5,283.9L332.9,281.0L333.7,269.7L344.4,267.3L378.5,267.1L382.9,265.9L382.1,263.8L382.5,262.0L377.8,256.6L376.2,253.7L374.9,253.4L374.7,250.3L373.7,246.8L370.6,240.6L365.0,235.3L363.4,230.6L362.7,223.4L363.0,219.8L364.0,219.8L368.7,217.6L370.7,215.7L373.9,214.8L384.3,206.9L390.2,204.3L394.8,201.4L395.8,198.8L399.9,196.9L400.1,194.3L400.9,193.5L398.7,189.8L398.5,186.8L400.2,181.3L402.1,180.8L403.4,177.8L402.7,167.5L399.4,166.4L398.3,165.4L397.2,162.4L397.8,161.2L409.4,156.1L411.6,151.9L411.1,147.8L414.1,140.9L415.8,139.6L417.2,135.2L422.6,127.7L424.6,126.7L432.6,117.5L434.1,112.4L432.8,108.5L437.3,106.6L436.4,102.0L439.3,101.6L441.1,100.6L441.3,97.2L442.8,98.3L448.6,90.8L450.9,89.8L450.2,88.3L455.8,92.0L457.1,90.1L460.3,90.8L462.7,89.7L468.6,85.3L469.7,83.0L472.0,80.6L475.0,75.1L473.5,73.9L467.0,66.4L457.4,62.5L455.7,60.9L446.1,55.8L439.9,49.9L435.4,46.7L431.5,45.8L424.9,42.6L421.8,41.9Z " data-id="IQ.NI" data-name="Ninawa" id="IQ.NI"/>
utf-8utf-8<path d="M408.4,224.2L408.8,218.4L407.1,209.3L405.5,206.1L403.1,204.6L403.1,202.5L400.5,198.3L400.7,196.7L400.9,193.5L400.1,194.3L399.9,196.9L395.8,198.8L394.8,201.4L390.2,204.3L384.3,206.9L373.9,214.8L370.7,215.7L368.7,217.6L364.0,219.8L363.0,219.8L362.7,223.4L363.4,230.6L365.0,235.3L370.6,240.6L373.7,246.8L374.7,250.3L374.9,253.4L376.2,253.7L377.8,256.6L382.5,262.0L382.1,263.8L382.9,265.9L378.5,267.1L344.4,267.3L333.7,269.7L332.9,281.0L333.9,282.7L337.6,308.1L343.8,324.9L364.5,340.2L369.0,342.5L372.2,342.9L382.7,336.4L385.9,346.3L387.4,353.5L388.6,357.0L391.6,360.5L393.9,366.7L395.7,372.8L402.5,385.0L410.3,393.8L427.9,409.3L442.7,420.9L448.1,422.8L458.6,424.5L471.1,429.2L480.3,432.1L496.3,431.7L499.4,432.6L504.9,437.3L507.1,440.6L511.2,448.1L514.9,452.8L512.1,455.4L515.8,456.4L519.4,458.7L526.5,459.1L530.6,451.7L538.6,443.3L538.9,437.4L537.4,434.8L538.8,424.6L536.7,422.6L534.9,419.8L535.9,412.8L538.4,407.6L537.8,401.2L530.4,394.0L526.3,393.0L521.5,393.2L522.6,386.8L521.9,385.0L523.9,381.6L523.1,380.4L525.5,378.5L524.4,374.8L527.5,373.9L530.3,371.1L531.9,368.2L538.2,363.4L537.6,360.6L538.8,359.8L533.8,354.5L535.3,348.2L534.3,346.0L535.3,343.2L533.5,341.5L534.9,338.1L534.8,334.5L532.8,330.8L533.8,327.2L540.7,329.7L544.6,332.8L546.2,330.5L551.1,325.5L553.1,320.6L553.0,318.9L551.0,314.8L552.1,313.2L558.8,309.6L560.4,307.7L561.1,301.8L561.5,300.9L567.8,297.4L571.7,293.3L570.2,285.0L568.5,280.6L559.4,274.8L555.7,274.2L545.1,273.7L543.6,274.3L539.7,273.0L528.5,262.8L527.3,262.9L524.8,266.0L525.0,269.7L527.5,274.3L527.0,277.4L521.7,281.6L517.1,289.0L516.3,295.5L515.1,296.6L511.9,304.3L511.8,306.2L514.1,309.0L512.0,312.4L509.6,312.2L501.5,306.6L492.3,298.6L486.0,295.0L477.3,291.4L470.2,288.8L442.6,273.7L434.7,270.2L426.6,265.0L425.1,263.1L414.2,252.0L414.5,250.7L417.1,249.2L417.1,246.9L415.0,246.0L410.0,245.2L410.3,237.7L404.7,234.7L401.9,232.0L399.7,228.8L399.5,223.5L401.4,224.2L403.4,227.9L404.9,228.0L406.1,225.4L407.7,224.5L408.4,224.2Z " data-id="IQ.SD" data-name="Sala ad-Din" id="IQ.SD"/>
utf-8utf-8<path d="M578.8,603.8L570.5,598.9L566.2,602.3L564.2,602.4L559.4,607.1L553.2,599.3L552.4,594.8L554.5,593.4L553.2,589.8L551.1,584.3L550.3,587.2L547.4,588.2L544.9,588.5L536.3,591.4L492.9,604.4L504.4,614.1L504.5,619.8L501.6,623.5L493.3,628.5L488.4,631.9L482.3,632.9L474.4,636.4L470.4,640.8L458.2,663.3L457.2,665.9L457.4,672.7L456.5,677.0L449.0,699.2L448.4,704.0L449.6,711.4L447.0,721.6L446.9,728.7L446.0,732.7L441.5,740.5L438.2,749.1L438.2,759.2L437.5,763.2L435.4,770.3L430.6,782.2L428.2,789.5L436.3,796.0L447.6,804.5L475.9,825.9L534.4,870.0L539.6,874.0L557.4,833.5L568.7,782.2L571.3,775.2L575.9,768.4L580.3,764.8L586.5,761.8L590.2,754.3L593.5,749.8L597.4,745.7L601.0,737.4L602.7,731.9L604.8,691.5L585.1,683.7L583.2,682.6L575.9,675.0L573.2,671.2L573.4,668.5L575.2,666.0L577.2,665.5L581.8,667.5L583.3,664.8L580.9,656.2L580.0,649.0L579.9,645.3L574.5,629.1L575.8,621.6L583.8,616.5L580.5,613.0L581.5,611.1L583.1,610.0L583.9,605.4L578.8,603.8Z " data-id="IQ.NA" data-name="An-Najaf" id="IQ.NA"/>
utf-8utf-8<path d="M508.6,529.0L497.6,529.0L489.5,530.0L482.4,533.7L466.5,549.8L464.1,551.5L449.4,553.8L445.1,555.5L440.4,558.2L441.5,561.7L444.3,565.2L470.1,588.3L487.7,600.4L492.9,604.4L536.3,591.4L544.9,588.5L547.4,588.2L550.3,587.2L551.1,584.3L550.6,583.0L547.0,576.7L547.8,572.5L546.8,570.2L540.3,562.2L538.2,558.3L537.4,554.0L539.1,541.6L539.8,540.6L539.0,537.7L534.0,534.8L533.1,535.4L528.6,534.5L525.9,534.1L508.6,529.0Z " data-id="IQ.KA" data-name="Karbala'" id="IQ.KA"/>
utf-8utf-8<path d="M555.2,483.7L556.2,476.8L557.2,477.5L556.1,469.8L556.3,466.5L554.0,461.7L551.3,464.0L545.2,459.8L536.1,460.0L535.4,464.0L530.6,465.4L530.8,465.9L530.3,468.8L527.7,472.0L526.9,474.3L528.0,481.3L529.2,483.2L533.3,486.0L534.6,487.2L535.8,487.0L537.1,487.2L539.7,487.9L555.8,488.7L555.8,488.7L555.2,483.7Z " data-id="IQ.BG" data-name="Baghdad" id="IQ.BG"/>
utf-8utf-8<path d="M841.9,723.3L844.1,732.8L846.0,756.6L845.3,775.4L847.0,783.7L846.8,786.9L843.9,787.5L830.1,785.0L828.3,784.9L797.7,793.8L800.2,800.8L803.2,811.4L806.0,817.5L817.4,831.7L820.1,839.1L820.5,842.4L817.9,885.8L818.2,897.4L819.9,912.1L819.8,915.0L817.0,921.4L815.8,927.0L816.4,950.2L816.2,953.1L828.9,936.2L833.7,925.6L839.1,918.6L840.3,916.3L842.3,908.5L848.0,896.2L849.4,891.8L849.7,885.6L852.4,878.8L858.0,857.1L860.7,852.3L865.4,848.7L880.2,842.1L885.8,841.4L910.9,841.4L916.7,842.5L939.2,853.3L938.9,850.6L938.0,849.6L936.2,840.4L938.1,842.5L941.1,852.2L947.3,848.4L950.9,847.4L955.1,847.5L959.8,848.3L964.2,849.8L970.0,853.3L973.6,854.4L977.4,857.1L985.2,859.7L996.0,860.8L998.5,860.1L998.9,857.6L996.6,857.7L988.3,852.5L986.8,848.8L983.2,841.7L981.0,839.4L979.1,836.0L979.2,834.7L981.2,831.9L981.3,830.7L979.5,827.3L975.3,823.8L971.7,820.2L969.2,816.8L965.8,815.5L962.3,816.2L958.8,815.5L957.9,814.7L955.8,808.6L953.1,803.8L949.0,801.0L938.5,799.5L930.7,740.9L929.1,738.8L897.2,738.8L893.7,711.1L879.7,707.6L865.7,706.2L861.4,706.6L848.4,710.1L845.2,711.7L843.5,713.4L842.1,716.3L841.9,723.3Z " data-id="IQ.BA" data-name="Al-Basrah" id="IQ.BA"/>
utf-8utf-8<path d="M816.2,953.1L816.4,950.2L815.8,927.0L817.0,921.4L819.8,915.0L819.9,912.1L818.2,897.4L817.9,885.8L820.5,842.4L820.1,839.1L817.4,831.7L806.0,817.5L803.2,811.4L800.2,800.8L797.7,793.8L794.6,794.5L790.6,792.0L785.5,783.6L774.6,768.6L758.3,763.1L709.7,756.7L706.3,740.7L706.8,729.8L707.4,728.3L712.0,728.6L712.6,727.4L712.5,721.9L712.0,720.7L706.9,718.0L706.5,716.7L707.1,713.1L710.9,699.7L702.8,699.0L702.3,697.4L703.1,695.3L708.6,686.8L707.3,680.5L704.5,677.5L704.9,673.1L708.1,674.0L708.5,672.5L707.3,667.1L703.8,663.6L703.1,664.4L701.1,665.2L696.9,665.2L679.0,659.5L654.7,654.9L647.7,654.6L647.0,656.4L631.8,660.1L629.6,660.4L630.8,661.5L634.4,663.1L638.8,667.6L637.9,673.4L635.7,679.4L631.8,696.2L631.3,708.1L622.9,703.8L604.8,691.5L602.7,731.9L601.0,737.4L597.4,745.7L593.5,749.8L590.2,754.3L586.5,761.8L580.3,764.8L575.9,768.4L571.3,775.2L568.7,782.2L557.4,833.5L539.6,874.0L546.6,879.3L632.4,944.2L635.1,945.2L797.1,960.1L813.8,956.4L816.2,953.1Z " data-id="IQ.MU" data-name="Al-Muthannia" id="IQ.MU"/>
utf-8utf-8<path d="M633.8,578.4L631.7,579.1L627.8,581.8L625.2,584.7L617.6,590.3L611.8,592.8L604.9,599.2L601.8,597.2L601.1,597.6L601.6,604.0L597.4,608.7L594.1,610.1L587.0,606.3L583.9,605.4L583.1,610.0L581.5,611.1L580.5,613.0L583.8,616.5L575.8,621.6L574.5,629.1L579.9,645.3L580.0,649.0L580.9,656.2L583.3,664.8L581.8,667.5L577.2,665.5L575.2,666.0L573.4,668.5L573.2,671.2L575.9,675.0L583.2,682.6L585.1,683.7L604.8,691.5L622.9,703.8L631.3,708.1L631.8,696.2L635.7,679.4L637.9,673.4L638.8,667.6L634.4,663.1L630.8,661.5L629.6,660.4L631.8,660.1L647.0,656.4L647.7,654.6L654.7,654.9L679.0,659.5L696.9,665.2L701.1,665.2L703.1,664.4L703.8,663.6L699.0,648.4L693.5,636.5L693.1,634.1L693.1,632.5L693.3,629.6L687.3,619.0L687.6,615.8L680.6,613.8L674.2,611.5L672.5,610.5L667.8,604.6L656.9,595.4L654.5,592.0L654.9,585.3L652.7,584.6L651.3,582.9L644.4,582.1L641.8,581.0L641.0,579.2L635.2,578.5L633.8,578.4Z " data-id="IQ.QA" data-name="Al-Qadisiyah" id="IQ.QA"/>
utf-8utf-8<path d="M824.8,722.1L814.6,722.2L810.5,720.2L803.5,714.6L802.3,710.5L802.2,706.4L796.6,698.3L787.2,692.8L784.7,685.5L785.4,683.5L785.3,678.0L784.4,676.2L777.9,670.6L774.2,665.7L770.2,663.3L765.9,659.0L762.8,653.2L762.7,649.0L753.5,636.5L750.2,631.1L750.9,629.1L753.6,626.8L752.2,625.2L749.7,623.0L724.6,623.1L719.7,625.8L715.6,625.4L712.6,628.0L709.2,627.8L703.1,630.3L693.3,629.6L693.1,632.5L693.1,634.1L693.5,636.5L699.0,648.4L703.8,663.6L707.3,667.1L708.5,672.5L708.1,674.0L704.9,673.1L704.5,677.5L707.3,680.5L708.6,686.8L703.1,695.3L702.3,697.4L702.8,699.0L710.9,699.7L707.1,713.1L706.5,716.7L706.9,718.0L712.0,720.7L712.5,721.9L712.6,727.4L712.0,728.6L707.4,728.3L706.8,729.8L706.3,740.7L709.7,756.7L758.3,763.1L774.6,768.6L785.5,783.6L790.6,792.0L794.6,794.5L797.7,793.8L828.3,784.9L830.1,785.0L843.9,787.5L846.8,786.9L847.0,783.7L845.3,775.4L846.0,756.6L844.1,732.8L841.9,723.3L824.8,722.1Z " data-id="IQ.DQ" data-name="Dhi-Qar" id="IQ.DQ"/>
utf-8utf-8<path d="M763.8,529.3L761.9,533.1L759.4,535.7L755.9,554.8L756.8,572.1L755.4,576.5L759.2,580.3L759.2,581.3L756.8,593.0L757.1,596.8L759.1,598.2L771.6,603.4L775.4,608.3L775.2,625.5L773.2,625.8L769.4,624.9L765.7,623.1L761.7,622.6L749.7,623.0L752.2,625.2L753.6,626.8L750.9,629.1L750.2,631.1L753.5,636.5L762.7,649.0L762.8,653.2L765.9,659.0L770.2,663.3L774.2,665.7L777.9,670.6L784.4,676.2L785.3,678.0L785.4,683.5L784.7,685.5L787.2,692.8L796.6,698.3L802.2,706.4L802.3,710.5L803.5,714.6L810.5,720.2L814.6,722.2L824.8,722.1L841.9,723.3L842.1,716.3L843.5,713.4L845.2,711.7L848.4,710.1L861.4,706.6L865.7,706.2L879.7,707.6L893.7,711.1L891.2,691.5L900.3,650.9L900.5,648.4L899.9,645.9L898.3,643.9L894.0,641.0L886.7,632.6L882.4,626.3L880.4,622.2L876.8,620.6L875.0,618.9L872.1,613.9L868.1,610.7L866.7,610.5L863.3,607.6L861.8,607.2L861.7,599.2L861.0,597.7L853.4,590.0L848.9,584.0L849.8,579.2L846.3,576.4L841.6,571.1L839.4,570.0L833.6,568.1L832.2,568.0L823.2,571.5L820.1,570.8L813.4,567.0L780.7,541.5L776.0,537.0L769.1,533.1L764.2,529.6L763.8,529.3Z " data-id="IQ.MA" data-name="Maysan" id="IQ.MA"/>
utf-8utf-8<path d="M754.0,524.1L750.9,521.4L740.6,516.8L729.9,513.6L718.7,514.9L713.0,514.2L711.2,508.2L714.2,503.4L710.0,499.8L705.6,499.4L704.0,496.8L705.8,495.7L711.1,495.3L712.9,493.8L716.6,488.1L715.2,486.4L714.6,481.0L708.5,475.2L703.9,469.8L700.2,466.6L698.5,460.7L696.0,456.5L691.5,452.1L691.1,451.9L687.8,461.2L684.3,464.3L680.6,465.5L676.6,468.9L674.0,471.6L669.3,474.4L666.5,478.4L663.6,486.9L661.6,490.0L654.7,498.9L652.0,501.4L614.6,491.0L605.4,492.0L602.0,491.8L590.5,489.1L587.6,488.9L582.5,496.2L577.3,501.1L578.5,506.0L576.1,507.5L571.0,505.3L567.7,500.1L567.1,500.4L564.1,508.9L561.9,508.3L560.4,509.2L561.6,512.6L563.6,524.3L565.4,528.9L567.3,530.1L581.1,531.1L588.4,534.8L601.9,539.1L604.6,540.5L608.4,544.3L614.5,558.1L619.4,566.6L625.2,571.7L626.9,572.2L634.0,572.5L634.8,576.1L635.2,578.5L641.0,579.2L641.8,581.0L644.4,582.1L651.3,582.9L652.7,584.6L654.9,585.3L654.5,592.0L656.9,595.4L667.8,604.6L672.5,610.5L674.2,611.5L680.6,613.8L687.6,615.8L687.3,619.0L693.3,629.6L703.1,630.3L709.2,627.8L712.6,628.0L715.6,625.4L719.7,625.8L724.6,623.1L749.7,623.0L761.7,622.6L765.7,623.1L769.4,624.9L773.2,625.8L775.2,625.5L775.4,608.3L771.6,603.4L759.1,598.2L757.1,596.8L756.8,593.0L759.2,581.3L759.2,580.3L755.4,576.5L756.8,572.1L755.9,554.8L759.4,535.7L761.9,533.1L763.8,529.3L754.0,524.1Z " data-id="IQ.WA" data-name="Wasit" id="IQ.WA"/>
utf-8utf-8<path d="M546.3,100.7L544.8,104.9L539.2,105.9L535.0,104.9L531.0,105.4L526.5,107.9L518.3,109.7L511.9,109.3L509.3,111.5L507.0,115.2L504.3,117.9L505.4,121.8L512.2,130.1L514.5,128.6L515.6,129.4L522.3,137.0L515.7,143.7L517.0,146.3L527.6,153.1L532.2,155.5L540.5,163.9L546.6,168.3L553.5,171.5L554.3,174.2L553.0,175.3L548.1,174.5L546.3,173.5L543.0,173.9L544.3,175.8L541.9,178.3L540.5,175.5L538.8,177.4L533.5,176.7L530.5,175.2L528.4,175.9L523.0,173.7L521.4,174.5L528.4,186.0L533.9,191.7L538.9,195.6L540.4,199.9L539.1,208.3L539.6,215.9L540.0,217.0L545.5,223.0L544.8,227.9L542.1,232.7L541.7,234.9L543.8,240.4L542.5,247.4L539.2,250.4L539.4,253.4L540.3,255.0L539.3,256.9L532.2,259.3L528.5,262.8L539.7,273.0L543.6,274.3L545.1,273.7L555.7,274.2L559.4,274.8L568.5,280.6L570.2,285.0L571.7,293.3L577.3,296.6L582.6,300.3L584.6,299.0L590.9,299.7L592.3,300.8L594.7,304.1L597.8,316.1L599.3,319.0L598.0,324.5L598.8,326.2L598.3,330.2L599.0,331.4L601.1,332.1L601.9,334.4L604.8,332.6L613.4,320.0L614.5,318.9L617.1,318.7L620.4,317.1L622.7,310.9L622.4,307.7L624.9,300.7L625.4,300.4L626.7,294.3L631.1,288.9L633.7,281.6L631.4,280.4L632.2,279.5L632.2,274.4L635.4,272.4L638.9,265.1L642.3,267.4L649.9,274.3L651.2,276.0L647.2,277.2L649.8,287.8L650.6,289.1L651.8,289.7L654.5,290.6L655.7,288.7L656.5,283.7L656.4,281.5L654.5,276.9L655.4,273.0L657.9,272.4L658.5,267.7L659.1,267.4L668.2,270.8L669.6,270.4L674.1,267.4L675.9,267.9L680.3,266.3L680.8,264.9L678.5,262.6L679.3,259.3L680.8,255.7L680.7,252.7L679.1,251.5L675.4,251.5L673.9,250.6L675.4,244.2L674.1,240.8L671.4,238.1L665.4,233.4L657.8,223.6L656.0,220.3L657.3,216.4L654.0,210.4L658.0,211.2L658.0,209.5L656.4,205.0L656.5,199.2L659.4,197.2L666.1,197.4L668.0,197.0L672.4,194.4L678.1,194.4L680.4,191.1L683.0,189.2L685.0,184.1L682.3,181.4L680.2,181.2L675.5,183.9L667.5,184.0L665.4,181.9L664.5,179.5L660.2,177.9L658.6,177.8L653.6,180.1L647.5,179.8L644.6,180.9L641.6,180.4L639.6,182.4L629.7,183.2L627.9,182.8L626.5,181.2L623.1,175.2L617.7,168.9L614.5,166.3L610.5,165.1L606.4,161.8L600.3,159.7L597.8,159.8L589.5,163.8L587.5,163.5L585.5,161.8L584.6,159.9L586.4,153.2L586.4,150.9L584.9,148.5L581.3,144.7L580.4,142.2L579.8,136.8L579.0,134.6L574.7,130.4L576.8,128.9L574.6,126.7L573.6,124.6L570.2,113.9L568.2,111.8L565.8,111.7L560.8,113.8L558.0,114.0L554.0,111.5L549.4,103.3L548.0,102.0L546.3,100.7Z " data-id="IQ.SU" data-name="As-Sulaymaniyah" id="IQ.SU"/>
utf-8utf-8<path d="M571.7,293.3L567.8,297.4L561.5,300.9L561.1,301.8L560.4,307.7L558.8,309.6L552.1,313.2L551.0,314.8L553.0,318.9L553.1,320.6L551.1,325.5L546.2,330.5L544.6,332.8L540.7,329.7L533.8,327.2L532.8,330.8L534.8,334.5L534.9,338.1L533.5,341.5L535.3,343.2L534.3,346.0L535.3,348.2L533.8,354.5L538.8,359.8L537.6,360.6L538.2,363.4L531.9,368.2L530.3,371.1L527.5,373.9L524.4,374.8L525.5,378.5L523.1,380.4L523.9,381.6L521.9,385.0L522.6,386.8L521.5,393.2L526.3,393.0L530.4,394.0L537.8,401.2L538.4,407.6L535.9,412.8L534.9,419.8L536.7,422.6L538.8,424.6L537.4,434.8L538.9,437.4L538.6,443.3L530.6,451.7L526.5,459.1L530.3,465.5L530.6,465.4L535.4,464.0L536.1,460.0L545.2,459.8L551.3,464.0L554.0,461.7L556.3,466.5L556.1,469.8L557.2,477.5L556.2,476.8L555.2,483.7L555.8,488.7L555.9,490.1L557.5,492.5L561.7,502.2L562.3,506.7L561.9,508.3L564.1,508.9L567.1,500.4L567.7,500.1L571.0,505.3L576.1,507.5L578.5,506.0L577.3,501.1L582.5,496.2L587.6,488.9L590.5,489.1L602.0,491.8L605.4,492.0L614.6,491.0L652.0,501.4L654.7,498.9L661.6,490.0L663.6,486.9L666.5,478.4L669.3,474.4L674.0,471.6L676.6,468.9L680.6,465.5L684.3,464.3L687.8,461.2L691.1,451.9L691.0,451.8L688.1,453.8L685.2,454.2L682.2,453.5L680.4,452.1L681.6,450.1L685.8,447.3L686.7,445.6L685.6,443.0L681.4,439.9L681.3,436.4L679.3,436.9L674.6,436.9L673.0,437.7L667.5,441.9L666.7,441.1L665.3,435.2L658.6,430.5L654.8,424.7L653.0,420.5L648.4,416.4L637.6,400.9L631.6,400.8L629.2,399.6L626.8,396.8L630.3,394.4L631.3,391.2L632.4,385.7L639.0,379.0L639.6,376.4L637.4,373.0L639.2,363.2L639.0,360.3L638.1,357.7L636.2,355.4L634.1,354.2L631.9,354.2L630.2,355.7L628.3,354.4L626.7,351.9L622.3,342.4L623.0,340.8L627.9,339.7L629.3,333.2L627.8,328.5L627.7,325.3L631.6,326.4L635.2,328.1L638.3,328.8L644.9,329.4L647.7,330.0L647.9,326.8L644.6,318.1L642.0,313.9L637.6,310.3L638.1,308.4L640.3,305.4L640.6,299.0L644.5,298.2L646.8,296.4L646.2,290.6L646.5,288.3L648.7,288.2L650.6,289.1L649.8,287.8L647.2,277.2L651.2,276.0L649.9,274.3L642.3,267.4L638.9,265.1L635.4,272.4L632.2,274.4L632.2,279.5L631.4,280.4L633.7,281.6L631.1,288.9L626.7,294.3L625.4,300.4L624.9,300.7L622.4,307.7L622.7,310.9L620.4,317.1L617.1,318.7L614.5,318.9L613.4,320.0L604.8,332.6L601.9,334.4L601.1,332.1L599.0,331.4L598.3,330.2L598.8,326.2L598.0,324.5L599.3,319.0L597.8,316.1L594.7,304.1L592.3,300.8L590.9,299.7L584.6,299.0L582.6,300.3L577.3,296.6L571.7,293.3Z " data-id="IQ.DI" data-name="Diyala" id="IQ.DI"/>
utf-8utf-8<path d="M312.5,283.9L304.0,280.7L290.8,282.4L284.5,282.0L271.2,277.1L243.5,266.2L236.9,265.2L220.1,260.6L205.6,259.4L208.8,278.6L212.4,298.9L212.2,304.8L197.6,344.2L195.8,347.3L193.3,349.1L170.6,355.4L108.7,396.0L0.5,466.2L12.8,497.4L40.0,566.7L32.7,569.2L39.6,586.0L41.6,588.3L59.3,583.2L61.4,584.4L63.3,587.9L66.2,595.6L64.2,599.3L53.7,609.2L54.9,609.8L133.0,623.0L174.8,630.7L180.3,632.8L215.0,652.2L352.1,729.0L395.5,763.5L426.1,787.9L428.2,789.5L430.6,782.2L435.4,770.3L437.5,763.2L438.2,759.2L438.2,749.1L441.5,740.5L446.0,732.7L446.9,728.7L447.0,721.6L449.6,711.4L448.4,704.0L449.0,699.2L456.5,677.0L457.4,672.7L457.2,665.9L458.2,663.3L470.4,640.8L474.4,636.4L482.3,632.9L488.4,631.9L493.3,628.5L501.6,623.5L504.5,619.8L504.4,614.1L492.9,604.4L487.7,600.4L470.1,588.3L444.3,565.2L441.5,561.7L440.4,558.2L445.1,555.5L449.4,553.8L464.1,551.5L466.5,549.8L482.4,533.7L489.5,530.0L497.6,529.0L508.6,529.0L525.9,534.1L525.5,523.2L520.8,520.2L517.8,517.2L516.2,514.1L513.3,505.5L510.0,498.7L506.6,495.7L496.6,491.0L491.7,489.8L490.2,488.2L489.4,485.8L492.6,485.3L497.0,485.9L505.9,488.2L515.1,488.2L519.9,489.3L526.6,492.9L528.8,493.6L530.8,493.0L532.3,491.3L534.6,487.2L533.3,486.0L529.2,483.2L528.0,481.3L526.9,474.3L527.7,472.0L530.3,468.8L530.8,465.9L530.6,465.4L530.3,465.5L526.5,459.1L519.4,458.7L515.8,456.4L512.1,455.4L514.9,452.8L511.2,448.1L507.1,440.6L504.9,437.3L499.4,432.6L496.3,431.7L480.3,432.1L471.1,429.2L458.6,424.5L448.1,422.8L442.7,420.9L427.9,409.3L410.3,393.8L402.5,385.0L395.7,372.8L393.9,366.7L391.6,360.5L388.6,357.0L387.4,353.5L385.9,346.3L382.7,336.4L372.2,342.9L369.0,342.5L364.5,340.2L343.8,324.9L337.6,308.1L333.9,282.7L332.9,281.0L312.5,283.9Z " data-id="IQ.AN" data-name="Al-Anbar" id="IQ.AN"/>
utf-8utf-8<path d="M532.3,491.3L530.8,493.0L528.8,493.6L526.6,492.9L519.9,489.3L515.1,488.2L505.9,488.2L497.0,485.9L492.6,485.3L489.4,485.8L490.2,488.2L491.7,489.8L496.6,491.0L506.6,495.7L510.0,498.7L513.3,505.5L516.2,514.1L517.8,517.2L520.8,520.2L525.5,523.2L525.9,534.1L528.6,534.5L533.1,535.4L534.0,534.8L539.0,537.7L539.8,540.6L539.1,541.6L537.4,554.0L538.2,558.3L540.3,562.2L546.8,570.2L547.8,572.5L547.0,576.7L550.6,583.0L551.1,584.3L553.2,589.8L554.5,593.4L552.4,594.8L553.2,599.3L559.4,607.1L564.2,602.4L566.2,602.3L570.5,598.9L578.8,603.8L583.9,605.4L587.0,606.3L594.1,610.1L597.4,608.7L601.6,604.0L601.1,597.6L601.8,597.2L604.9,599.2L611.8,592.8L617.6,590.3L625.2,584.7L627.8,581.8L631.7,579.1L633.8,578.4L635.2,578.5L634.8,576.1L634.0,572.5L626.9,572.2L625.2,571.7L619.4,566.6L614.5,558.1L608.4,544.3L604.6,540.5L601.9,539.1L588.4,534.8L581.1,531.1L567.3,530.1L565.4,528.9L563.6,524.3L561.6,512.6L560.4,509.2L561.9,508.3L562.3,506.7L561.7,502.2L557.5,492.5L555.9,490.1L555.8,488.7L555.8,488.7L539.7,487.9L537.1,487.2L535.8,487.0L534.6,487.2L532.3,491.3Z " data-id="IQ.BB" data-name="Babil" id="IQ.BB"/>
utf-8</g>
</svg>
