<?xml version="1.0" ?>
<!DOCTYPE svg
  PUBLIC '-//W3C//DTD SVG 1.1//EN'
  'http://www.w3.org/Graphics/SVG/1.1/DTD/svg11.dtd'>
<svg enable_background="new 0 0 1000 812" height="812px" pretty_print="True" style="stroke-linejoin: round; stroke:#000; fill: none;" version="1.1" viewBox="0 0 1000 812" width="1000px" xmlns="http://www.w3.org/2000/svg" xmlns:xlink="http://www.w3.org/1999/xlink">
utf-8<defs>
utf-8utf-8<style type="text/css">
<![CDATA[path { fill-rule: evenodd; }]]>utf-8utf-8</style>
utf-8</defs>
utf-8<metadata>
utf-8utf-8<views>
utf-8utf-8utf-8<view h="812.883576704" padding="0" w="1000">
utf-8utf-8utf-8utf-8<proj flip="auto" id="robinson" lon0="50.8875385919"/>
utf-8utf-8utf-8utf-8<bbox h="247.8" w="305.22" x="602.74" y="-668.01"/>
utf-8utf-8utf-8</view>
utf-8utf-8</views>
utf-8</metadata>
utf-8<g class="" id="provinces">
utf-8utf-8<path d="M405.2,476.1L402.2,476.6L400.2,478.7L397.9,480.0L390.9,479.3L371.4,463.8L367.5,463.8L358.9,460.5L355.3,458.5L352.9,462.6L348.1,467.7L344.7,469.2L341.8,473.7L342.3,476.9L345.6,484.6L346.0,486.9L345.7,491.1L346.2,492.4L354.0,491.4L360.4,497.4L365.1,499.8L368.0,501.8L369.2,504.6L367.4,511.1L368.2,513.9L369.9,515.6L371.3,519.2L373.2,527.8L379.0,529.8L380.9,531.1L381.8,531.9L381.8,531.7L386.3,530.6L394.1,531.0L396.1,530.7L407.5,523.3L408.1,521.2L407.8,518.4L404.0,508.7L402.6,504.1L403.2,503.3L407.1,504.2L412.8,506.9L417.1,509.5L422.2,510.8L426.8,508.8L427.6,504.4L425.2,497.6L424.1,496.6L417.0,491.9L411.2,486.5L407.6,479.8L406.8,476.2L405.2,476.1Z " data-id="IR.KB" data-name="Kohgiluyeh and Buyer Ahmad" id="IR.KB"/>
utf-8utf-8<path d="M375.8,583.1L373.9,579.5L373.4,579.8L375.8,583.1Z M381.8,531.9L380.9,531.1L379.0,529.8L373.2,527.8L366.0,527.4L363.2,526.1L358.5,526.9L355.7,528.4L355.7,528.4L359.9,533.2L359.9,534.6L361.3,537.7L362.1,543.2L368.6,548.7L374.2,556.0L375.9,558.7L378.8,559.8L382.4,564.1L387.6,567.5L389.4,569.9L390.7,577.1L392.2,578.6L390.3,583.2L392.2,587.6L393.6,587.8L399.1,586.6L400.3,586.8L403.7,591.0L405.4,594.0L403.4,596.8L400.5,594.7L399.6,595.3L400.6,599.2L405.1,604.0L409.0,604.6L413.3,609.0L414.2,611.4L415.2,618.4L415.8,620.1L421.7,629.6L423.7,632.3L427.3,636.2L426.9,640.6L431.4,646.5L434.8,653.1L435.9,651.5L439.6,655.2L443.1,656.1L448.7,658.7L450.6,659.0L455.2,658.0L464.1,658.6L468.0,660.6L474.2,665.9L476.0,666.9L484.6,668.8L488.1,670.8L492.1,674.6L498.1,680.9L494.0,682.0L494.9,684.9L498.7,686.6L498.8,686.6L500.7,684.3L509.6,684.8L510.2,684.5L512.1,683.3L501.8,676.3L495.1,670.4L488.0,662.5L479.8,647.7L475.7,643.5L471.9,641.6L470.4,639.6L461.1,619.6L459.3,614.7L433.0,574.1L428.4,570.2L424.5,568.8L421.1,565.6L417.0,560.3L413.7,554.4L410.1,550.8L403.5,548.7L393.1,547.9L390.3,546.9L386.6,541.0L384.0,538.6L382.2,534.7L381.8,531.9Z " data-id="IR.BS" data-name="Bushehr" id="IR.BS"/>
utf-8utf-8<path d="M564.7,301.3L560.8,299.5L452.0,302.8L449.6,302.4L429.0,296.0L425.8,295.5L413.4,296.3L408.7,295.6L399.1,290.8L384.3,294.8L380.7,294.6L371.0,295.8L367.0,297.7L365.3,301.0L365.7,311.8L367.1,314.2L368.5,314.9L368.5,318.2L365.9,328.8L365.0,330.9L362.4,331.0L359.6,331.9L354.8,335.8L336.5,340.9L329.9,345.2L326.6,348.3L325.9,350.5L326.7,355.9L322.5,368.2L316.0,370.1L313.8,373.3L314.0,379.8L312.1,381.3L308.7,382.6L307.2,385.7L307.3,386.2L310.4,391.7L313.1,393.1L317.0,392.8L321.9,394.6L324.2,397.2L323.5,398.7L322.9,402.8L331.2,397.9L334.4,398.3L339.3,396.8L342.4,398.4L345.6,400.7L348.6,401.1L354.4,400.6L359.0,397.3L366.8,396.7L371.3,394.6L373.4,396.2L374.9,400.0L376.2,400.3L378.9,404.3L379.2,408.3L380.4,412.6L387.0,417.1L389.8,419.6L395.8,423.7L398.9,428.1L400.6,433.8L399.6,436.7L397.9,438.0L400.8,443.1L401.2,444.8L397.9,446.8L398.1,449.7L400.1,455.9L406.4,470.0L406.9,474.3L406.8,476.2L407.6,479.8L411.2,486.5L417.0,491.9L424.1,496.6L425.2,497.6L428.7,497.0L429.9,496.6L428.7,491.6L428.3,486.8L430.8,477.0L430.9,471.4L431.5,467.6L429.6,464.0L426.6,461.9L420.9,459.4L419.4,456.8L419.4,455.2L424.0,456.3L427.4,455.8L434.9,449.7L440.7,446.2L442.5,447.8L443.7,452.9L446.1,454.8L456.8,457.1L460.2,457.1L475.3,452.5L475.4,452.5L472.1,444.5L471.4,440.7L471.7,439.3L471.5,432.7L472.2,425.0L472.1,421.5L468.0,404.7L468.1,402.8L469.7,401.6L472.9,400.6L479.8,395.4L484.0,393.7L487.4,393.6L502.5,396.9L548.5,380.1L552.9,377.3L554.9,374.2L556.0,370.9L556.8,366.8L557.3,357.6L559.3,354.6L563.4,352.1L566.9,351.7L569.2,349.9L572.0,343.1L572.5,339.2L565.3,301.9L564.7,301.3Z " data-id="IR.ES" data-name="Esfahan" id="IR.ES"/>
utf-8utf-8<path d="M475.3,452.5L460.2,457.1L456.8,457.1L446.1,454.8L443.7,452.9L442.5,447.8L440.7,446.2L434.9,449.7L427.4,455.8L424.0,456.3L419.4,455.2L419.4,456.8L420.9,459.4L426.6,461.9L429.6,464.0L431.5,467.6L430.9,471.4L430.8,477.0L428.3,486.8L428.7,491.6L429.9,496.6L428.7,497.0L425.2,497.6L427.6,504.4L426.8,508.8L422.2,510.8L417.1,509.5L412.8,506.9L407.1,504.2L403.2,503.3L402.6,504.1L404.0,508.7L407.8,518.4L408.1,521.2L407.5,523.3L396.1,530.7L394.1,531.0L386.3,530.6L381.8,531.7L381.8,531.9L382.2,534.7L384.0,538.6L386.6,541.0L390.3,546.9L393.1,547.9L403.5,548.7L410.1,550.8L413.7,554.4L417.0,560.3L421.1,565.6L424.5,568.8L428.4,570.2L433.0,574.1L459.3,614.7L461.1,619.6L470.4,639.6L471.9,641.6L475.7,643.5L479.8,647.7L488.0,662.5L495.1,670.4L501.8,676.3L512.1,683.3L513.6,685.9L517.5,689.3L528.1,690.3L529.9,691.0L535.9,694.9L540.4,694.0L555.1,696.6L559.7,693.9L560.7,691.8L560.7,682.2L562.4,679.5L567.1,677.8L579.4,676.6L584.6,677.8L586.8,676.8L591.0,675.7L603.7,677.6L609.3,675.7L611.7,673.0L612.6,668.2L614.0,665.1L620.0,661.6L624.1,660.4L626.8,660.6L629.8,657.8L629.6,654.7L626.9,650.9L622.5,647.5L622.0,643.5L623.1,634.5L622.9,628.4L621.2,624.9L605.2,610.9L604.6,608.3L606.0,607.1L605.7,605.6L601.9,597.2L589.0,573.2L586.2,572.0L575.3,571.0L570.5,566.6L569.7,564.5L564.7,556.5L562.8,552.2L562.7,551.1L552.5,546.2L544.5,540.6L542.7,537.4L539.3,525.4L536.7,521.7L527.9,512.5L518.1,498.5L503.0,470.8L495.9,463.5L487.9,457.1L475.4,452.5L475.3,452.5Z " data-id="IR.FA" data-name="Fars" id="IR.FA"/>
utf-8utf-8<path d="M560.5,93.3L558.6,93.1L552.4,94.3L539.6,91.3L531.1,93.2L515.2,101.0L514.9,102.0L511.2,106.7L505.3,111.3L504.2,112.7L503.9,118.8L504.5,119.3L504.8,123.6L503.8,125.8L499.8,129.2L494.3,129.1L487.5,133.5L479.9,135.7L467.3,134.6L473.1,148.5L475.6,152.2L477.0,156.6L478.1,162.4L477.5,163.8L472.2,165.3L470.5,164.7L463.6,164.1L466.6,168.9L477.8,174.9L483.5,179.8L485.9,182.6L494.8,182.4L498.4,183.0L501.5,182.3L507.3,179.3L509.5,176.3L516.1,170.3L523.1,165.8L526.9,165.4L543.5,167.6L545.6,166.5L546.4,162.6L546.1,156.5L548.2,148.3L554.0,135.5L555.6,134.0L556.7,132.7L558.8,126.9L565.4,123.5L570.3,121.7L572.1,118.3L570.5,114.9L566.1,112.5L564.2,110.7L563.5,108.2L563.7,104.6L560.7,93.4L560.5,93.3Z " data-id="IR.GO" data-name="Golestan" id="IR.GO"/>
utf-8utf-8<path d="M463.4,164.0L461.4,163.2L461.2,161.4L468.6,160.5L476.1,158.6L475.8,156.4L473.9,158.3L470.8,159.1L453.2,160.1L436.8,163.7L422.4,168.3L407.1,171.4L399.7,173.3L392.7,176.0L384.5,177.1L376.0,174.8L367.3,173.3L358.8,171.0L345.7,168.5L341.6,166.8L334.2,162.2L322.4,155.8L319.9,154.4L318.6,158.1L315.0,161.2L314.8,165.8L312.9,170.7L310.8,172.2L324.7,182.3L327.5,183.7L335.8,189.3L336.6,190.8L336.8,191.9L344.6,193.4L347.7,194.5L352.8,198.1L360.5,199.7L364.1,203.2L369.5,206.1L376.6,206.7L383.2,209.1L388.8,214.1L392.3,219.0L398.1,222.5L401.8,222.7L404.7,221.4L409.3,214.3L412.9,211.0L416.0,211.4L419.5,212.8L423.7,213.5L429.4,216.3L433.0,217.1L436.7,215.9L438.7,216.3L443.3,219.1L443.9,218.8L448.5,218.3L455.3,215.3L456.9,216.1L462.4,214.7L465.3,212.9L467.0,211.2L468.9,206.7L472.8,202.6L474.2,200.6L474.1,196.0L474.4,192.7L475.5,189.6L478.2,186.2L481.6,184.0L485.9,182.6L483.5,179.8L477.8,174.9L466.6,168.9L463.6,164.1L463.4,164.0Z " data-id="IR.MN" data-name="Mazandaran" id="IR.MN"/>
utf-8utf-8<path d="M593.3,174.9L590.9,174.1L583.7,172.5L577.7,168.1L571.1,162.1L569.5,152.1L568.3,148.8L571.8,147.1L572.0,145.8L569.6,144.9L567.9,145.2L564.2,142.9L555.6,134.0L554.0,135.5L548.2,148.3L546.1,156.5L546.4,162.6L545.6,166.5L543.5,167.6L526.9,165.4L523.1,165.8L516.1,170.3L509.5,176.3L507.3,179.3L501.5,182.3L498.4,183.0L494.8,182.4L485.9,182.6L481.6,184.0L478.2,186.2L475.5,189.6L474.4,192.7L474.1,196.0L474.2,200.6L472.8,202.6L468.9,206.7L467.0,211.2L465.3,212.9L462.4,214.7L456.9,216.1L455.3,215.3L448.5,218.3L443.9,218.8L443.3,219.1L445.9,225.4L447.5,231.0L447.0,236.0L440.9,242.6L436.8,245.0L431.9,246.7L428.2,246.6L417.4,243.6L413.9,243.5L410.3,242.4L401.1,237.3L398.2,235.1L395.5,235.0L392.9,233.7L392.3,234.5L393.2,247.9L399.5,254.7L402.3,258.5L402.3,261.9L400.6,265.5L399.9,270.0L400.2,272.3L401.2,274.6L401.8,279.1L401.4,283.9L400.2,288.6L399.1,290.8L408.7,295.6L413.4,296.3L425.8,295.5L429.0,296.0L449.6,302.4L452.0,302.8L560.8,299.5L564.7,301.3L565.3,301.9L565.2,301.7L570.0,300.6L581.8,300.9L586.4,298.3L597.7,270.6L603.4,261.6L608.2,256.2L612.8,253.1L621.8,249.5L623.0,248.4L624.0,243.9L629.4,230.3L629.3,226.4L625.7,223.0L613.1,214.2L611.3,211.1L608.5,204.3L605.6,193.9L605.0,187.8L606.2,184.3L606.4,179.1L604.4,174.7L600.9,173.5L600.0,173.8L593.3,174.9Z " data-id="IR.SM" data-name="Semnan" id="IR.SM"/>
utf-8utf-8<path d="M438.7,216.3L436.7,215.9L433.0,217.1L429.4,216.3L423.7,213.5L419.5,212.8L416.0,211.4L412.9,211.0L409.3,214.3L404.7,221.4L401.8,222.7L398.1,222.5L392.3,219.0L388.8,214.1L383.2,209.1L376.6,206.7L369.5,206.1L364.1,203.2L364.4,205.6L364.9,208.7L362.6,210.3L358.9,209.8L355.5,211.2L353.3,214.4L353.6,220.7L349.6,220.9L348.9,224.3L347.0,227.2L344.4,229.0L343.7,231.8L346.3,234.4L347.8,236.7L348.5,240.5L346.8,253.3L346.8,253.4L359.9,253.6L371.5,256.9L400.2,272.3L399.9,270.0L400.6,265.5L402.3,261.9L402.3,258.5L399.5,254.7L393.2,247.9L392.3,234.5L392.9,233.7L395.5,235.0L398.2,235.1L401.1,237.3L410.3,242.4L413.9,243.5L417.4,243.6L428.2,246.6L431.9,246.7L436.8,245.0L440.9,242.6L447.0,236.0L447.5,231.0L445.9,225.4L443.3,219.1L438.7,216.3Z " data-id="IR.TH" data-name="Tehran" id="IR.TH"/>
utf-8utf-8<path d="M707.2,388.6L702.4,382.8L698.1,380.4L689.3,375.9L685.0,369.1L677.3,345.9L674.9,342.4L672.4,339.8L661.2,342.6L651.9,341.5L649.1,338.1L643.3,322.2L642.0,312.9L644.5,295.6L646.6,289.9L662.3,277.1L665.9,272.8L665.8,269.3L663.6,265.8L648.3,255.6L642.9,254.2L632.0,257.2L615.5,265.8L597.7,270.6L586.4,298.3L581.8,300.9L570.0,300.6L565.2,301.7L565.3,301.9L572.5,339.2L572.0,343.1L569.2,349.9L566.9,351.7L563.4,352.1L559.3,354.6L557.3,357.6L556.8,366.8L556.0,370.9L554.9,374.2L552.9,377.3L548.5,380.1L502.5,396.9L487.4,393.6L484.0,393.7L479.8,395.4L472.9,400.6L469.7,401.6L468.1,402.8L468.0,404.7L472.1,421.5L472.2,425.0L471.5,432.7L471.7,439.3L471.4,440.7L472.1,444.5L475.4,452.5L487.9,457.1L495.9,463.5L503.0,470.8L518.1,498.5L527.9,512.5L536.7,521.7L539.3,525.4L542.7,537.4L544.5,540.6L552.5,546.2L562.7,551.1L564.6,550.2L569.6,549.2L570.9,548.1L568.7,541.3L566.7,523.5L563.3,520.6L561.3,515.2L557.5,507.8L554.1,502.9L553.6,500.2L554.0,496.2L555.5,492.1L558.9,487.4L584.2,482.8L590.2,483.0L594.1,483.8L602.7,482.6L610.0,479.1L610.0,475.3L607.9,458.1L609.2,453.6L631.6,440.6L634.3,437.1L643.0,431.6L645.4,427.8L651.5,428.8L704.8,450.3L705.3,449.2L706.6,443.0L710.1,435.6L711.0,430.8L715.7,422.5L716.4,414.2L716.0,411.2L711.6,405.1L711.3,403.4L708.2,399.4L709.5,393.7L708.6,389.5L707.2,388.6Z " data-id="IR.YA" data-name="Yazd" id="IR.YA"/>
utf-8utf-8<path d="M406.9,474.3L406.4,470.0L400.1,455.9L398.1,449.7L397.9,446.8L401.2,444.8L400.8,443.1L397.9,438.0L399.6,436.7L400.6,433.8L398.9,428.1L395.8,423.7L389.8,419.6L387.0,417.1L380.4,412.6L379.2,408.3L378.9,404.3L376.2,400.3L374.9,400.0L373.4,396.2L371.3,394.6L366.8,396.7L359.0,397.3L354.4,400.6L348.6,401.1L345.6,400.7L342.4,398.4L339.3,396.8L334.4,398.3L331.2,397.9L322.9,402.8L323.3,404.4L324.6,407.7L333.2,418.8L335.2,422.4L338.6,425.5L340.9,426.2L346.4,436.3L348.2,438.6L356.5,446.5L358.3,449.5L358.6,452.1L356.5,455.3L355.3,458.5L358.9,460.5L367.5,463.8L371.4,463.8L390.9,479.3L397.9,480.0L400.2,478.7L402.2,476.6L405.2,476.1L406.8,476.2L406.9,474.3Z " data-id="IR.CM" data-name="Chahar Mahall and Bakhtiari" id="IR.CM"/>
utf-8utf-8<path d="M304.0,386.9L297.4,386.3L285.6,378.9L275.2,377.9L272.2,377.0L269.5,374.7L264.5,373.3L259.7,373.6L256.6,374.6L245.3,375.4L243.1,377.3L239.3,393.9L237.3,397.6L234.6,407.5L231.9,412.2L233.4,418.4L232.1,421.2L226.6,424.8L227.4,425.8L229.7,429.0L231.4,429.8L234.4,434.7L237.9,438.8L239.9,440.1L240.9,443.5L236.6,462.9L239.4,485.4L254.6,485.4L255.4,486.4L259.1,514.4L264.1,515.1L266.8,517.6L268.4,521.7L273.8,522.7L278.7,527.7L279.4,533.5L280.5,534.6L282.9,539.7L287.1,541.8L290.6,542.1L292.6,540.7L291.4,536.8L294.3,538.0L299.2,538.1L304.1,537.5L304.6,534.8L304.4,530.8L302.9,526.1L300.0,523.7L299.5,522.5L300.0,519.3L302.3,516.9L306.1,517.1L306.4,515.2L302.3,513.6L305.4,511.8L310.0,511.6L310.9,512.6L314.4,512.1L315.1,514.1L317.3,515.2L315.4,520.1L309.2,517.7L301.9,519.0L305.7,521.1L306.3,522.9L312.2,525.8L314.2,527.5L316.1,524.9L318.1,530.8L320.8,531.1L322.4,530.4L325.0,530.9L327.0,530.6L329.5,531.3L330.3,532.3L333.0,538.5L336.1,538.1L349.4,528.6L354.4,528.0L355.7,528.4L358.5,526.9L363.2,526.1L366.0,527.4L373.2,527.8L371.3,519.2L369.9,515.6L368.2,513.9L367.4,511.1L369.2,504.6L368.0,501.8L365.1,499.8L360.4,497.4L354.0,491.4L346.2,492.4L345.7,491.1L346.0,486.9L345.6,484.6L342.3,476.9L341.8,473.7L344.7,469.2L348.1,467.7L352.9,462.6L355.3,458.5L356.5,455.3L358.6,452.1L358.3,449.5L356.5,446.5L348.2,438.6L346.4,436.3L340.9,426.2L338.6,425.5L335.2,422.4L333.2,418.8L324.6,407.7L323.3,404.4L322.9,402.8L323.5,398.7L324.2,397.2L321.9,394.6L317.0,392.8L313.1,393.1L310.4,391.7L307.3,386.2L304.0,386.9Z " data-id="IR.KZ" data-name="Khuzestan" id="IR.KZ"/>
utf-8utf-8<path d="M210.1,301.0L208.1,303.2L208.9,306.2L209.2,309.3L207.1,310.4L203.9,310.6L203.0,317.0L202.5,318.1L201.8,318.7L202.6,319.5L204.8,324.6L203.5,328.8L200.5,331.8L185.1,336.3L182.7,339.0L181.0,345.7L182.3,347.6L189.1,351.7L189.5,353.9L193.8,356.6L196.2,357.5L201.9,361.9L203.9,362.4L210.6,365.8L215.3,370.0L217.6,371.3L225.8,380.1L235.6,395.7L236.7,397.0L237.3,397.6L239.3,393.9L243.1,377.3L245.3,375.4L256.6,374.6L259.7,373.6L264.5,373.3L269.5,374.7L272.2,377.0L275.2,377.9L285.6,378.9L297.4,386.3L304.0,386.9L307.3,386.2L307.2,385.7L308.7,382.6L312.1,381.3L314.0,379.8L313.8,373.3L316.0,370.1L322.5,368.2L326.7,355.9L325.9,350.5L326.6,348.3L326.1,347.9L322.9,346.3L322.2,343.1L317.3,339.1L315.2,343.4L314.2,344.1L310.8,341.3L304.7,337.0L305.1,332.4L301.1,327.8L298.5,327.0L292.1,330.3L291.3,335.1L287.3,338.4L280.7,337.5L274.9,335.0L274.4,331.3L275.5,327.1L274.4,322.5L275.0,321.4L261.6,316.0L255.0,316.5L253.0,319.0L239.5,317.5L217.8,304.6L214.5,302.0L213.3,301.4L210.1,301.0Z " data-id="IR.LO" data-name="Lorestan" id="IR.LO"/>
utf-8utf-8<path d="M201.0,318.4L199.5,318.3L192.4,320.0L192.6,321.7L195.1,325.0L195.0,328.5L194.3,330.4L187.1,330.1L179.5,332.1L174.1,331.6L162.0,327.9L158.2,325.0L154.8,323.1L151.0,322.2L147.3,322.0L140.0,319.2L133.0,320.1L130.3,320.0L129.6,321.0L130.5,323.1L130.6,326.6L129.6,332.1L129.8,340.1L128.9,341.0L129.1,341.4L129.8,343.7L132.4,341.7L136.3,341.1L136.4,342.8L138.9,345.5L136.5,347.6L138.2,349.6L141.5,348.8L144.0,351.7L145.4,355.5L152.3,362.4L150.6,369.2L148.0,369.4L148.0,371.2L150.0,371.4L152.1,373.1L150.6,375.4L151.5,378.2L154.2,378.6L159.6,378.0L164.7,379.5L169.6,381.7L171.1,383.0L181.6,389.1L183.8,391.3L199.4,403.4L204.1,405.6L208.4,403.9L212.9,405.4L216.5,408.9L216.4,411.6L218.5,414.4L222.5,422.6L226.5,424.7L226.6,424.8L232.1,421.2L233.4,418.4L231.9,412.2L234.6,407.5L237.3,397.6L236.7,397.0L235.6,395.7L225.8,380.1L217.6,371.3L215.3,370.0L210.6,365.8L203.9,362.4L201.9,361.9L196.2,357.5L193.8,356.6L189.5,353.9L189.1,351.7L182.3,347.6L181.0,345.7L182.7,339.0L185.1,336.3L200.5,331.8L203.5,328.8L204.8,324.6L202.6,319.5L201.8,318.7L201.0,318.4Z " data-id="IR.IL" data-name="Ilam" id="IR.IL"/>
utf-8utf-8<path d="M619.6,766.7L617.5,765.7L618.0,766.9L619.6,766.7Z M592.4,745.4L593.1,743.3L591.5,741.7L590.4,743.4L592.4,745.4Z M568.4,732.1L566.6,728.7L561.3,729.8L562.4,731.4L567.9,732.4L568.4,732.1Z M654.1,724.9L654.4,722.5L652.3,723.8L654.1,724.9Z M549.0,722.5L546.2,721.9L548.5,723.1L549.0,722.5Z M535.1,715.1L532.9,713.7L529.3,713.4L525.2,712.1L524.1,712.4L530.4,715.8L535.1,715.1Z M675.6,713.1L676.9,711.8L676.4,710.2L674.7,710.3L673.0,713.4L675.6,713.1Z M665.4,709.4L666.3,708.4L670.5,706.7L670.0,705.7L664.8,704.2L658.8,705.6L654.3,709.0L652.6,709.4L645.7,706.8L644.6,707.5L646.7,709.4L647.7,713.8L647.5,715.4L644.9,716.2L637.0,720.0L631.0,722.2L625.0,723.5L626.1,728.5L630.4,728.1L631.2,727.5L640.8,723.7L645.0,721.1L647.1,721.4L652.7,718.4L656.3,721.0L664.2,712.8L665.4,709.4Z M679.0,701.7L680.0,700.9L678.7,698.8L676.7,699.9L676.7,701.3L679.0,701.7Z M601.9,597.2L605.7,605.6L606.0,607.1L604.6,608.3L605.2,610.9L621.2,624.9L622.9,628.4L623.1,634.5L622.0,643.5L622.5,647.5L626.9,650.9L629.6,654.7L629.8,657.8L626.8,660.6L624.1,660.4L620.0,661.6L614.0,665.1L612.6,668.2L611.7,673.0L609.3,675.7L603.7,677.6L591.0,675.7L586.8,676.8L584.6,677.8L579.4,676.6L567.1,677.8L562.4,679.5L560.7,682.2L560.7,691.8L559.7,693.9L555.1,696.6L540.4,694.0L535.9,694.9L529.9,691.0L528.1,690.3L517.5,689.3L513.6,685.9L512.1,683.3L510.2,684.5L509.6,684.8L500.7,684.3L498.8,686.6L501.4,687.7L507.4,692.5L509.6,693.1L511.7,695.5L514.6,696.2L518.7,699.0L535.3,704.6L538.3,707.7L538.8,710.3L544.9,715.9L548.7,718.1L556.4,720.7L561.4,719.8L564.3,718.3L571.8,720.3L579.2,719.9L580.7,721.1L583.7,726.0L585.5,726.8L589.8,726.7L591.9,727.1L595.2,731.3L597.3,731.6L604.6,730.9L609.3,727.8L616.6,720.7L621.3,719.3L623.9,715.7L630.0,717.3L635.7,716.1L637.1,714.7L638.1,710.4L637.7,709.0L641.1,704.5L645.7,704.5L646.7,703.9L655.7,700.6L658.6,698.6L661.4,695.5L665.7,695.1L669.0,693.4L681.8,695.2L689.3,695.9L693.7,696.6L695.1,699.0L697.8,700.4L696.1,702.5L697.6,703.8L702.2,705.6L700.5,706.7L705.9,712.5L710.5,725.2L711.0,727.8L711.9,737.3L712.9,738.2L714.9,744.7L718.4,748.3L718.5,756.6L722.5,761.5L727.1,771.5L733.5,771.9L741.8,773.8L744.3,773.1L747.6,773.3L749.0,775.3L749.0,779.2L753.9,776.2L757.7,776.1L759.3,777.9L762.3,782.6L768.4,784.3L775.2,782.2L776.2,781.3L779.6,780.5L779.4,781.4L785.8,781.5L794.5,783.2L798.5,783.2L800.5,785.1L804.0,785.9L809.5,792.0L814.9,792.3L817.4,790.9L820.0,790.5L820.0,790.5L820.8,788.6L817.4,782.9L809.4,772.8L796.7,762.1L797.4,759.0L797.9,758.7L795.7,755.6L791.7,754.3L789.2,756.2L782.9,755.9L781.9,754.4L780.0,748.2L771.9,747.3L769.4,747.5L765.4,746.8L759.3,747.3L759.9,744.9L759.4,738.7L759.1,727.9L760.2,722.8L758.6,719.3L762.7,720.1L763.0,719.1L761.3,716.0L758.1,712.7L754.2,709.6L750.7,707.6L747.6,707.5L743.0,712.7L741.5,712.2L738.0,709.8L722.5,701.7L721.1,698.6L717.0,678.0L713.4,671.0L710.8,668.8L712.5,665.9L711.8,663.2L709.3,659.8L703.2,652.7L697.2,649.2L694.4,640.6L694.0,635.0L693.5,634.1L688.3,631.7L685.8,631.6L678.3,640.1L673.2,642.9L670.2,643.5L664.5,642.6L659.3,639.6L654.8,635.8L649.9,630.2L648.1,624.8L648.7,620.8L644.9,599.9L643.3,597.9L642.0,598.1L636.9,600.7L628.5,608.0L626.2,608.7L621.7,606.1L619.3,603.4L614.7,600.0L605.9,597.5L601.9,597.2Z " data-id="IR.HG" data-name="Hormozgan" id="IR.HG"/>
utf-8utf-8<path d="M136.9,32.1L140.9,36.3L142.4,39.7L141.6,43.0L138.2,45.6L135.5,45.9L131.9,47.3L128.6,45.7L128.9,49.7L125.9,49.7L122.9,51.3L121.5,53.6L121.4,57.0L123.2,60.1L125.7,61.3L131.4,58.6L134.2,57.8L141.3,59.7L144.2,56.0L146.6,53.9L145.5,52.1L149.1,43.5L152.1,41.3L153.9,41.4L156.6,39.7L159.1,37.2L161.0,37.8L161.5,44.1L162.4,45.1L163.3,49.2L167.0,55.5L167.2,59.2L166.0,61.3L166.3,62.9L168.9,64.2L170.2,66.9L168.3,68.4L165.0,67.9L162.1,68.7L160.6,70.7L157.4,73.3L155.0,79.3L156.2,83.9L161.0,82.7L164.7,84.7L174.6,83.3L178.0,84.8L180.1,88.9L181.2,93.3L184.4,98.8L188.8,103.6L192.3,106.3L192.1,111.0L192.6,116.0L195.1,122.1L199.9,124.8L204.9,126.6L206.3,127.6L207.3,131.6L209.0,134.4L213.2,137.2L220.9,141.0L221.6,141.3L222.8,140.9L224.8,141.6L228.8,145.1L230.1,144.8L230.8,141.9L234.7,142.5L237.8,140.8L241.1,142.4L240.4,141.1L238.9,134.1L237.0,132.2L230.8,127.4L221.3,115.8L215.1,104.6L214.6,101.6L215.7,99.4L216.1,94.3L224.1,82.5L224.3,81.5L220.6,80.0L220.1,78.9L216.9,75.9L216.7,75.9L204.7,63.6L202.6,64.6L196.9,61.1L195.4,57.4L188.9,54.5L185.6,52.3L184.1,47.8L186.2,46.4L186.3,45.3L194.3,43.9L196.5,40.7L193.4,35.8L190.6,34.8L185.3,29.5L185.1,27.6L188.0,24.1L190.7,23.6L194.3,21.5L193.0,19.5L187.8,15.2L178.6,6.6L174.4,3.7L172.4,4.8L169.0,4.7L165.1,8.1L159.6,11.4L157.7,13.7L150.3,17.3L147.4,21.5L141.6,24.2L139.6,25.4L137.2,31.9L136.9,32.1Z " data-id="IR.AR" data-name="Ardebil" id="IR.AR"/>
utf-8utf-8<path d="M341.6,232.0L340.8,234.5L339.6,234.8L338.4,229.8L336.3,227.8L333.7,227.7L333.4,229.2L335.6,231.7L334.1,232.8L331.1,230.4L326.4,229.1L321.8,228.8L319.7,228.3L318.3,228.1L315.6,228.3L308.1,231.9L293.8,236.3L292.2,237.7L291.3,240.9L283.3,241.1L283.5,242.4L285.6,245.8L285.8,247.9L284.5,249.6L280.1,245.7L279.0,247.5L280.5,251.3L283.1,254.7L284.1,257.2L282.3,259.8L278.4,260.7L277.7,261.7L281.4,264.5L286.6,265.9L289.1,267.0L291.7,269.6L293.3,272.3L295.3,278.3L294.5,280.6L292.5,280.4L288.7,276.9L287.5,274.4L288.2,272.3L286.8,270.7L282.8,270.0L274.5,270.5L273.6,272.2L274.7,275.4L273.6,279.4L274.0,283.2L275.5,287.5L272.2,286.7L267.5,286.3L266.0,286.9L266.9,288.4L269.3,289.4L270.7,292.9L272.0,298.7L276.3,305.1L279.6,314.7L279.1,317.1L275.0,321.4L274.4,322.5L275.5,327.1L274.4,331.3L274.9,335.0L280.7,337.5L287.3,338.4L291.3,335.1L292.1,330.3L298.5,327.0L301.1,327.8L305.1,332.4L304.7,337.0L310.8,341.3L314.2,344.1L315.2,343.4L317.3,339.1L322.2,343.1L322.9,346.3L326.1,347.9L326.6,348.3L329.9,345.2L336.5,340.9L354.8,335.8L359.6,331.9L362.4,331.0L365.0,330.9L365.9,328.8L368.5,318.2L368.5,314.9L357.4,312.0L352.3,309.4L340.3,308.3L336.8,305.8L334.3,303.2L332.7,300.5L332.5,298.2L328.5,294.2L326.7,294.3L319.6,288.9L319.6,286.0L323.4,283.6L322.0,277.5L324.3,275.4L328.5,276.0L332.3,274.9L334.7,273.1L340.2,272.2L345.6,268.0L345.0,259.4L345.8,255.1L346.8,253.3L348.5,240.5L347.8,236.7L346.3,234.4L343.7,231.8L341.6,232.0Z " data-id="IR.MK" data-name="Markazi" id="IR.MK"/>
utf-8utf-8<path d="M371.5,256.9L359.9,253.6L346.8,253.4L346.8,253.3L345.8,255.1L345.0,259.4L345.6,268.0L340.2,272.2L334.7,273.1L332.3,274.9L328.5,276.0L324.3,275.4L322.0,277.5L323.4,283.6L319.6,286.0L319.6,288.9L326.7,294.3L328.5,294.2L332.5,298.2L332.7,300.5L334.3,303.2L336.8,305.8L340.3,308.3L352.3,309.4L357.4,312.0L368.5,314.9L367.1,314.2L365.7,311.8L365.3,301.0L367.0,297.7L371.0,295.8L380.7,294.6L384.3,294.8L399.1,290.8L400.2,288.6L401.4,283.9L401.8,279.1L401.2,274.6L400.2,272.3L371.5,256.9Z " data-id="IR.QM" data-name="Qom" id="IR.QM"/>
utf-8utf-8<path d="M218.3,223.3L216.8,223.8L220.5,230.4L213.5,233.0L210.6,228.6L209.6,228.7L207.1,232.7L211.1,237.4L217.8,248.4L220.5,251.1L225.5,254.9L227.6,260.0L227.4,264.1L224.9,268.0L223.8,267.5L221.8,263.9L220.7,265.7L216.5,267.4L215.2,268.1L215.4,269.0L213.0,276.3L211.3,279.5L206.8,280.0L205.7,283.6L208.4,285.5L214.9,288.3L217.4,292.4L220.6,288.3L224.7,288.5L225.5,290.7L226.1,297.0L224.9,298.1L219.6,297.0L215.1,297.3L213.8,299.9L213.3,301.4L214.5,302.0L217.8,304.6L239.5,317.5L253.0,319.0L255.0,316.5L261.6,316.0L275.0,321.4L279.1,317.1L279.6,314.7L276.3,305.1L272.0,298.7L270.7,292.9L269.3,289.4L266.9,288.4L266.0,286.9L267.5,286.3L272.2,286.7L275.5,287.5L274.0,283.2L273.6,279.4L274.7,275.4L273.6,272.2L274.5,270.5L282.8,270.0L286.8,270.7L288.2,272.3L287.5,274.4L288.7,276.9L292.5,280.4L294.5,280.6L295.3,278.3L293.3,272.3L291.7,269.6L289.1,267.0L286.6,265.9L281.4,264.5L277.7,261.7L278.4,260.7L282.3,259.8L284.1,257.2L283.1,254.7L280.5,251.3L279.0,247.5L280.1,245.7L284.5,249.6L285.8,247.9L285.6,245.8L283.5,242.4L283.3,241.1L282.1,240.3L275.3,238.7L274.1,239.0L268.1,238.0L264.6,235.6L265.6,233.5L263.6,231.4L259.4,229.2L254.4,229.1L252.4,230.0L252.6,231.0L251.3,233.3L248.1,234.5L244.1,233.6L239.7,231.4L229.9,231.1L227.6,229.8L225.6,227.0L218.3,223.3Z " data-id="IR.HD" data-name="Hamadan" id="IR.HD"/>
utf-8utf-8<path d="M237.8,140.8L234.7,142.5L230.8,141.9L230.1,144.8L228.8,145.1L224.8,141.6L222.8,140.9L221.6,141.3L221.1,141.6L219.7,142.8L216.6,144.1L205.6,143.0L202.7,143.5L198.3,142.8L184.3,144.5L181.4,146.1L179.4,148.7L175.5,151.1L174.1,154.2L168.4,161.1L167.8,162.9L168.3,165.6L168.9,167.4L177.5,181.3L179.0,182.6L202.6,187.2L207.2,193.6L206.8,194.6L209.6,200.8L210.5,206.4L210.2,210.5L208.7,212.4L208.3,214.4L209.1,215.9L222.9,223.5L225.0,225.8L225.6,227.0L227.6,229.8L229.9,231.1L239.7,231.4L244.1,233.6L248.1,234.5L251.3,233.3L252.6,231.0L252.4,230.0L248.2,225.1L241.6,219.9L242.0,217.5L246.9,216.8L249.1,214.9L253.1,213.8L256.1,214.0L260.6,215.9L260.3,213.1L262.5,209.9L266.7,207.3L274.6,205.1L275.4,203.6L273.6,197.7L270.4,193.0L268.0,188.7L264.8,186.6L260.9,185.4L259.0,183.2L256.9,179.5L254.0,176.5L252.4,173.0L253.5,168.7L257.9,165.5L261.4,164.2L257.1,155.0L254.6,152.0L248.7,146.7L241.1,142.4L237.8,140.8Z " data-id="IR.ZA" data-name="Zanjan" id="IR.ZA"/>
utf-8utf-8<path d="M304.5,171.6L299.1,173.3L291.4,177.9L289.2,178.3L280.0,176.6L273.5,174.8L270.3,172.2L267.2,169.0L266.0,166.3L261.4,164.2L257.9,165.5L253.5,168.7L252.4,173.0L254.0,176.5L256.9,179.5L259.0,183.2L260.9,185.4L264.8,186.6L268.0,188.7L270.4,193.0L273.6,197.7L275.4,203.6L274.6,205.1L266.7,207.3L262.5,209.9L260.3,213.1L260.6,215.9L256.1,214.0L253.1,213.8L249.1,214.9L246.9,216.8L242.0,217.5L241.6,219.9L248.2,225.1L252.4,230.0L254.4,229.1L259.4,229.2L263.6,231.4L265.6,233.5L264.6,235.6L268.1,238.0L274.1,239.0L275.3,238.7L282.1,240.3L283.3,241.1L291.3,240.9L292.2,237.7L293.8,236.3L308.1,231.9L315.6,228.3L318.3,228.1L319.7,228.3L318.5,226.7L316.4,220.3L318.5,217.9L326.9,213.4L328.2,211.9L328.4,209.8L329.8,205.3L330.4,200.5L328.0,198.7L324.6,197.7L319.8,193.1L320.7,191.2L325.8,190.7L336.8,191.9L336.6,190.8L335.8,189.3L327.5,183.7L324.7,182.3L310.8,172.2L304.5,171.6Z " data-id="IR.QZ" data-name="Qazvin" id="IR.QZ"/>
utf-8utf-8<path d="M98.8,209.4L104.2,202.0L104.4,199.3L106.8,195.9L113.8,193.5L115.4,190.2L115.1,187.5L115.9,186.2L119.6,184.7L131.3,186.3L154.4,184.1L160.1,188.9L165.1,190.2L170.3,190.6L173.5,189.1L175.0,186.9L176.4,181.7L177.5,181.3L168.9,167.4L158.3,168.6L153.8,168.0L151.7,165.7L151.2,162.0L146.9,153.5L144.5,153.0L140.9,150.5L138.7,150.2L134.9,152.4L132.7,152.9L130.3,154.7L128.1,159.7L126.9,160.6L124.6,159.7L122.4,158.0L116.2,154.8L115.2,153.3L108.0,147.7L103.2,147.6L97.1,146.6L82.5,138.0L80.4,135.5L79.2,132.5L78.6,125.5L77.1,123.0L73.4,119.4L71.8,111.5L70.3,109.7L66.2,94.6L65.5,90.6L64.2,88.7L60.4,84.9L59.5,83.1L59.6,80.7L61.4,76.5L67.8,68.8L69.0,65.8L68.5,63.1L65.7,57.0L66.0,51.1L66.5,48.8L70.8,43.4L70.3,43.3L67.3,41.0L67.4,39.5L65.5,38.4L62.8,34.0L59.2,31.8L54.3,30.3L47.2,21.4L42.2,18.5L40.4,15.5L38.1,10.3L36.5,8.0L35.5,8.0L28.4,4.0L25.5,2.8L22.5,0.0L21.4,0.3L17.3,4.0L17.7,8.0L16.7,10.8L16.9,19.6L11.9,21.3L8.6,19.9L1.8,20.6L1.0,21.1L3.9,26.6L5.1,31.4L10.5,34.4L11.1,35.8L10.7,44.4L17.4,51.1L17.9,52.7L18.3,60.2L20.5,63.3L21.7,69.5L25.9,77.6L27.8,76.7L29.9,78.2L30.6,80.0L27.4,84.0L28.0,86.7L26.5,91.3L27.0,92.3L25.2,94.2L23.2,99.7L23.0,103.7L23.9,104.9L31.3,106.1L34.7,110.9L37.8,110.2L42.4,113.8L40.6,116.7L40.7,118.4L43.8,127.1L43.5,128.8L48.5,132.8L50.1,132.5L51.5,134.6L55.5,137.4L55.7,139.2L54.1,141.7L58.2,151.4L60.5,151.9L62.9,160.1L60.9,164.4L63.6,166.3L65.0,166.2L69.3,168.2L72.3,173.4L71.7,178.5L70.9,179.0L76.2,186.6L81.2,186.1L83.3,187.2L86.4,194.3L85.5,195.0L88.2,200.7L91.1,204.8L90.2,209.1L91.6,210.9L97.7,209.0L98.8,209.4Z " data-id="IR.WA" data-name="West Azarbaijan" id="IR.WA"/>
utf-8utf-8<path d="M220.9,141.0L213.2,137.2L209.0,134.4L207.3,131.6L206.3,127.6L204.9,126.6L199.9,124.8L195.1,122.1L192.6,116.0L192.1,111.0L192.3,106.3L188.8,103.6L184.4,98.8L181.2,93.3L180.1,88.9L178.0,84.8L174.6,83.3L164.7,84.7L161.0,82.7L156.2,83.9L155.0,79.3L157.4,73.3L160.6,70.7L162.1,68.7L165.0,67.9L168.3,68.4L170.2,66.9L168.9,64.2L166.3,62.9L166.0,61.3L167.2,59.2L167.0,55.5L163.3,49.2L162.4,45.1L161.5,44.1L161.0,37.8L159.1,37.2L156.6,39.7L153.9,41.4L152.1,41.3L149.1,43.5L145.5,52.1L146.6,53.9L144.2,56.0L141.3,59.7L134.2,57.8L131.4,58.6L125.7,61.3L123.2,60.1L121.4,57.0L121.5,53.6L122.9,51.3L125.9,49.7L128.9,49.7L128.6,45.7L131.9,47.3L135.5,45.9L138.2,45.6L141.6,43.0L142.4,39.7L140.9,36.3L136.9,32.1L134.5,33.6L131.9,32.9L129.5,34.5L128.7,36.4L125.8,40.9L123.4,42.2L119.3,48.5L116.8,48.7L111.7,46.7L107.8,47.1L103.7,49.6L97.6,49.4L94.4,48.1L81.1,44.9L77.1,44.9L71.6,43.6L70.8,43.4L66.5,48.8L66.0,51.1L65.7,57.0L68.5,63.1L69.0,65.8L67.8,68.8L61.4,76.5L59.6,80.7L59.5,83.1L60.4,84.9L64.2,88.7L65.5,90.6L66.2,94.6L70.3,109.7L71.8,111.5L73.4,119.4L77.1,123.0L78.6,125.5L79.2,132.5L80.4,135.5L82.5,138.0L97.1,146.6L103.2,147.6L108.0,147.7L115.2,153.3L116.2,154.8L122.4,158.0L124.6,159.7L126.9,160.6L128.1,159.7L130.3,154.7L132.7,152.9L134.9,152.4L138.7,150.2L140.9,150.5L144.5,153.0L146.9,153.5L151.2,162.0L151.7,165.7L153.8,168.0L158.3,168.6L168.9,167.4L168.3,165.6L167.8,162.9L168.4,161.1L174.1,154.2L175.5,151.1L179.4,148.7L181.4,146.1L184.3,144.5L198.3,142.8L202.7,143.5L205.6,143.0L216.6,144.1L219.7,142.8L221.1,141.6L221.6,141.3L220.9,141.0Z " data-id="IR.EA" data-name="East Azarbaijan" id="IR.EA"/>
utf-8utf-8<path d="M213.8,268.2L211.8,267.9L203.5,260.0L197.9,257.6L195.9,256.1L195.4,260.6L194.1,262.0L187.6,262.4L187.6,267.1L182.2,267.8L179.8,270.7L178.0,271.3L177.1,275.2L175.6,275.5L175.0,278.5L173.4,279.4L170.3,279.9L166.1,279.4L163.5,279.7L161.7,278.0L161.0,273.1L157.8,271.8L144.5,256.8L134.8,250.0L133.5,249.6L133.3,250.1L136.1,253.4L133.8,260.7L130.1,262.0L125.8,260.4L125.2,262.8L124.0,263.1L123.6,265.0L124.5,267.2L123.6,271.5L119.8,270.4L119.9,274.2L116.9,275.5L115.5,280.9L117.6,282.6L120.4,288.8L120.3,290.3L115.8,289.8L110.8,288.1L110.8,294.9L108.2,296.2L112.0,302.6L113.8,301.8L116.1,304.8L115.4,310.9L116.2,313.7L113.0,316.9L110.4,322.2L113.8,324.2L115.5,324.1L125.5,338.3L128.7,340.5L128.9,341.0L129.8,340.1L129.6,332.1L130.6,326.6L130.5,323.1L129.6,321.0L130.3,320.0L133.0,320.1L140.0,319.2L147.3,322.0L151.0,322.2L154.8,323.1L158.2,325.0L162.0,327.9L174.1,331.6L179.5,332.1L187.1,330.1L194.3,330.4L195.0,328.5L195.1,325.0L192.6,321.7L192.4,320.0L199.5,318.3L201.0,318.4L201.8,318.7L202.5,318.1L203.0,317.0L203.9,310.6L207.1,310.4L209.2,309.3L208.9,306.2L208.1,303.2L210.1,301.0L213.3,301.4L213.8,299.9L215.1,297.3L219.6,297.0L224.9,298.1L226.1,297.0L225.5,290.7L224.7,288.5L220.6,288.3L217.4,292.4L214.9,288.3L208.4,285.5L205.7,283.6L206.8,280.0L211.3,279.5L213.0,276.3L215.4,269.0L215.2,268.1L213.8,268.2Z " data-id="IR.BK" data-name="Kermanshah" id="IR.BK"/>
utf-8utf-8<path d="M216.9,75.9L220.1,78.9L220.6,80.0L224.3,81.5L224.1,82.5L216.1,94.3L215.7,99.4L214.6,101.6L215.1,104.6L221.3,115.8L230.8,127.4L237.0,132.2L238.9,134.1L240.4,141.1L241.1,142.4L248.7,146.7L254.6,152.0L257.1,155.0L261.4,164.2L266.0,166.3L267.2,169.0L270.3,172.2L273.5,174.8L280.0,176.6L289.2,178.3L291.4,177.9L299.1,173.3L304.5,171.6L310.8,172.2L312.9,170.7L314.8,165.8L315.0,161.2L318.6,158.1L319.9,154.4L316.7,152.5L308.6,146.7L305.0,143.0L300.5,135.4L300.3,133.4L286.2,128.4L285.9,127.3L281.3,128.4L263.5,126.1L259.9,125.0L251.9,121.3L248.2,118.9L244.6,115.8L240.4,110.4L239.5,106.7L237.4,104.2L236.5,99.8L233.4,93.3L231.5,86.5L230.3,84.4L228.3,73.8L222.9,73.7L219.0,76.1L216.9,75.9Z " data-id="IR.GI" data-name="Gilan" id="IR.GI"/>
utf-8utf-8<path d="M225.0,225.8L222.9,223.5L209.1,215.9L208.3,214.4L208.7,212.4L210.2,210.5L210.5,206.4L209.6,200.8L206.8,194.6L207.2,193.6L202.6,187.2L179.0,182.6L177.5,181.3L176.4,181.7L175.0,186.9L173.5,189.1L170.3,190.6L165.1,190.2L160.1,188.9L154.4,184.1L131.3,186.3L119.6,184.7L115.9,186.2L115.1,187.5L115.4,190.2L113.8,193.5L106.8,195.9L104.4,199.3L104.2,202.0L98.8,209.4L100.6,210.0L108.6,216.4L110.9,220.0L116.5,219.8L117.4,218.9L128.3,218.5L129.7,220.6L133.6,220.6L135.8,219.3L138.1,220.7L137.2,223.1L133.9,225.7L132.1,225.6L124.5,227.9L124.4,230.7L125.2,233.6L123.3,233.2L124.3,237.9L128.8,244.2L133.5,249.4L133.5,249.6L134.8,250.0L144.5,256.8L157.8,271.8L161.0,273.1L161.7,278.0L163.5,279.7L166.1,279.4L170.3,279.9L173.4,279.4L175.0,278.5L175.6,275.5L177.1,275.2L178.0,271.3L179.8,270.7L182.2,267.8L187.6,267.1L187.6,262.4L194.1,262.0L195.4,260.6L195.9,256.1L197.9,257.6L203.5,260.0L211.8,267.9L213.8,268.2L215.2,268.1L216.5,267.4L220.7,265.7L221.8,263.9L223.8,267.5L224.9,268.0L227.4,264.1L227.6,260.0L225.5,254.9L220.5,251.1L217.8,248.4L211.1,237.4L207.1,232.7L209.6,228.7L210.6,228.6L213.5,233.0L220.5,230.4L216.8,223.8L218.3,223.3L225.6,227.0L225.0,225.8Z " data-id="IR.KD" data-name="Kordestan" id="IR.KD"/>
utf-8utf-8<path d="M708.6,389.5L709.5,393.7L708.2,399.4L711.3,403.4L711.6,405.1L716.0,411.2L716.4,414.2L715.7,422.5L711.0,430.8L710.1,435.6L706.6,443.0L705.3,449.2L704.8,450.3L761.6,474.3L769.1,479.3L792.2,506.6L793.6,505.9L826.7,495.9L829.3,496.4L832.5,499.0L837.0,500.2L843.4,504.4L852.5,515.0L856.9,518.3L863.2,518.1L865.0,514.6L860.8,504.0L859.9,499.9L858.4,485.6L859.2,477.6L860.9,470.4L860.3,463.8L858.9,460.6L858.9,460.6L844.4,458.1L841.5,449.1L841.3,445.0L837.8,431.1L838.1,421.3L837.3,416.9L828.2,397.1L818.0,376.0L816.7,372.5L815.9,367.4L822.4,355.6L825.2,352.9L824.6,349.1L827.8,346.7L826.9,346.0L822.6,345.1L815.7,345.0L811.6,343.4L808.2,340.7L806.3,336.6L807.1,331.7L806.8,329.5L803.8,321.1L802.4,316.3L798.9,316.9L770.4,317.0L763.9,314.8L758.0,307.5L755.2,305.4L750.7,307.2L746.9,309.6L733.7,311.6L731.6,314.0L726.6,312.6L719.2,311.6L716.9,312.6L719.4,318.5L719.5,326.2L720.6,330.8L719.9,336.8L720.6,339.1L722.1,340.4L724.7,344.0L732.6,349.1L731.7,353.2L730.1,356.9L728.5,359.0L715.8,368.6L711.2,378.2L710.8,384.7L709.5,388.1L708.6,389.5Z " data-id="IR.KJ" data-name="South Khorasan" id="IR.KJ"/>
utf-8utf-8<path d="M633.6,103.6L628.9,106.9L627.5,108.6L627.6,115.0L629.6,116.2L650.1,117.2L653.7,122.5L658.6,126.2L660.3,128.7L661.1,131.0L659.6,134.2L659.5,138.0L658.3,140.2L657.3,148.1L655.9,150.4L656.5,152.3L661.7,156.8L663.2,154.9L667.7,159.5L665.6,162.3L668.2,165.7L668.9,167.5L668.3,171.8L667.0,173.4L663.7,174.3L650.7,172.3L617.3,155.9L610.0,155.5L600.9,164.3L599.0,167.7L599.9,172.3L600.0,173.8L600.9,173.5L604.4,174.7L606.4,179.1L606.2,184.3L605.0,187.8L605.6,193.9L608.5,204.3L611.3,211.1L613.1,214.2L625.7,223.0L629.3,226.4L629.4,230.3L624.0,243.9L623.0,248.4L621.8,249.5L612.8,253.1L608.2,256.2L603.4,261.6L597.7,270.6L615.5,265.8L632.0,257.2L642.9,254.2L648.3,255.6L663.6,265.8L665.8,269.3L665.9,272.8L662.3,277.1L646.6,289.9L644.5,295.6L642.0,312.9L643.3,322.2L649.1,338.1L651.9,341.5L661.2,342.6L672.4,339.8L674.9,342.4L677.3,345.9L685.0,369.1L689.3,375.9L698.1,380.4L702.4,382.8L707.2,388.6L708.6,389.5L709.5,388.1L710.8,384.7L711.2,378.2L715.8,368.6L728.5,359.0L730.1,356.9L731.7,353.2L732.6,349.1L724.7,344.0L722.1,340.4L720.6,339.1L719.9,336.8L720.6,330.8L719.5,326.2L719.4,318.5L716.9,312.6L719.2,311.6L726.6,312.6L731.6,314.0L733.7,311.6L746.9,309.6L750.7,307.2L755.2,305.4L758.0,307.5L763.9,314.8L770.4,317.0L798.9,316.9L802.4,316.3L802.2,315.5L801.9,313.1L805.1,306.9L807.0,303.8L818.2,303.1L808.6,292.9L807.7,291.1L813.0,289.2L815.0,286.0L817.6,284.9L816.9,280.8L820.7,275.7L820.5,271.9L819.8,269.8L821.2,259.8L818.2,255.2L818.4,254.2L817.4,250.0L820.7,248.7L820.2,243.1L820.9,241.8L822.6,234.9L818.5,228.0L818.7,225.2L816.8,216.6L813.2,212.3L810.3,211.3L811.5,209.9L812.8,203.1L812.2,200.8L809.9,196.3L809.2,193.8L806.5,189.7L806.2,182.5L805.5,181.0L805.9,178.1L804.1,174.1L799.8,173.5L766.7,174.1L765.0,173.3L760.4,166.7L754.3,160.9L747.4,152.3L741.7,151.0L736.3,147.5L728.8,145.4L726.7,146.4L724.3,142.7L720.7,142.4L719.9,140.3L715.2,136.7L712.4,130.9L711.9,126.9L709.3,124.1L708.2,123.9L704.9,124.9L698.0,120.7L690.9,117.2L684.1,116.2L683.7,116.9L676.3,116.9L673.6,115.0L665.6,118.6L662.9,117.3L659.3,116.8L655.3,110.5L648.6,108.8L640.8,105.4L633.8,103.6L633.6,103.6Z " data-id="IR.KV" data-name="Razavi Khorasan" id="IR.KV"/>
utf-8utf-8<path d="M633.4,103.6L631.4,102.4L624.7,101.8L622.6,102.3L615.6,99.7L614.1,98.3L613.8,93.4L611.7,90.4L606.6,84.4L605.9,83.2L601.3,85.6L598.8,87.5L586.4,84.3L584.3,82.9L570.8,83.7L565.7,87.9L567.1,90.1L567.3,93.0L562.3,94.0L560.7,93.4L563.7,104.6L563.5,108.2L564.2,110.7L566.1,112.5L570.5,114.9L572.1,118.3L570.3,121.7L565.4,123.5L558.8,126.9L556.7,132.7L555.6,134.0L564.2,142.9L567.9,145.2L569.6,144.9L572.0,145.8L571.8,147.1L568.3,148.8L569.5,152.1L571.1,162.1L577.7,168.1L583.7,172.5L590.9,174.1L593.3,174.9L600.0,173.8L599.9,172.3L599.0,167.7L600.9,164.3L610.0,155.5L617.3,155.9L650.7,172.3L663.7,174.3L667.0,173.4L668.3,171.8L668.9,167.5L668.2,165.7L665.6,162.3L667.7,159.5L663.2,154.9L661.7,156.8L656.5,152.3L655.9,150.4L657.3,148.1L658.3,140.2L659.5,138.0L659.6,134.2L661.1,131.0L660.3,128.7L658.6,126.2L653.7,122.5L650.1,117.2L629.6,116.2L627.6,115.0L627.5,108.6L628.9,106.9L633.6,103.6L633.4,103.6Z " data-id="IR.KS" data-name="North Khorasan" id="IR.KS"/>
utf-8utf-8<path d="M858.9,460.6L860.3,463.8L860.9,470.4L859.2,477.6L858.4,485.6L859.9,499.9L860.8,504.0L865.0,514.6L863.2,518.1L856.9,518.3L852.5,515.0L843.4,504.4L837.0,500.2L832.5,499.0L829.3,496.4L826.7,495.9L793.6,505.9L792.2,506.6L790.0,551.7L790.3,556.3L793.9,558.9L796.6,563.7L800.0,575.3L800.6,580.0L800.0,585.5L797.0,591.6L796.8,595.1L798.1,598.8L798.8,603.3L801.4,608.4L801.6,610.4L798.6,613.6L788.7,620.2L783.7,622.0L781.2,623.5L783.3,626.3L787.6,629.3L789.7,632.1L788.9,637.0L784.6,644.3L787.5,663.4L787.8,669.6L785.3,691.7L786.1,697.1L788.5,707.3L790.0,711.1L794.1,715.4L797.3,720.6L796.5,724.8L795.5,727.2L798.1,729.9L798.3,731.7L796.2,736.1L797.5,739.3L799.4,741.4L800.0,743.5L798.8,746.7L799.1,748.5L798.6,756.3L797.9,758.7L797.4,759.0L796.7,762.1L809.4,772.8L817.4,782.9L820.8,788.6L820.0,790.5L821.3,790.3L829.4,788.8L833.7,792.2L844.9,792.7L847.1,793.3L849.3,795.3L851.4,796.0L853.0,794.7L859.6,794.0L861.4,795.5L865.9,796.6L865.2,793.8L869.5,794.9L871.0,796.0L878.2,798.2L878.3,797.5L874.8,795.2L874.6,792.8L876.3,790.6L879.4,789.6L881.9,790.1L883.8,791.8L884.6,796.2L886.0,797.9L890.7,799.6L897.4,801.3L905.3,802.6L912.2,805.1L913.1,807.4L916.0,808.0L924.2,810.9L926.9,808.0L928.8,804.6L926.7,803.5L930.2,803.1L929.1,802.0L929.7,800.2L931.2,802.2L932.6,798.5L931.5,779.7L932.6,778.0L932.5,776.1L931.2,771.9L932.0,770.5L934.7,770.0L935.3,769.1L935.5,753.4L936.2,746.8L937.2,745.9L942.6,744.2L945.9,742.3L947.8,741.9L948.8,738.7L954.6,740.0L955.5,739.4L958.5,729.7L960.4,729.6L961.7,728.2L969.4,727.3L976.4,723.8L987.6,724.1L994.8,724.9L995.9,721.6L995.1,713.6L998.6,710.3L996.8,707.5L995.7,701.3L996.6,697.9L999.4,697.8L997.3,694.1L995.4,692.3L991.1,690.1L988.7,690.9L986.0,690.9L983.7,691.7L978.6,692.6L971.9,689.6L972.3,689.2L971.1,685.2L972.8,679.4L970.3,666.4L968.4,658.7L965.0,649.7L964.7,637.8L963.0,635.2L955.6,636.8L950.2,631.7L949.8,630.7L945.5,627.1L944.1,626.4L937.7,625.1L933.5,623.3L927.4,622.2L919.3,617.8L915.9,615.0L913.6,612.4L908.1,607.9L904.6,603.2L903.0,601.6L902.0,598.8L898.8,593.6L897.1,592.6L894.7,586.9L893.3,586.4L891.0,582.3L888.7,579.5L888.7,575.4L888.0,574.0L885.0,572.3L860.8,547.5L880.7,517.4L895.5,494.3L896.2,493.5L895.7,484.3L891.9,475.2L890.2,473.2L885.7,464.7L884.4,464.3L867.0,461.8L858.9,460.6Z " data-id="IR.SB" data-name="Sistan and Baluchestan" id="IR.SB"/>
utf-8utf-8<path d="M651.5,428.8L645.4,427.8L643.0,431.6L634.3,437.1L631.6,440.6L609.2,453.6L607.9,458.1L610.0,475.3L610.0,479.1L602.7,482.6L594.1,483.8L590.2,483.0L584.2,482.8L558.9,487.4L555.5,492.1L554.0,496.2L553.6,500.2L554.1,502.9L557.5,507.8L561.3,515.2L563.3,520.6L566.7,523.5L568.7,541.3L570.9,548.1L569.6,549.2L564.6,550.2L562.7,551.1L562.8,552.2L564.7,556.5L569.7,564.5L570.5,566.6L575.3,571.0L586.2,572.0L589.0,573.2L601.9,597.2L605.9,597.5L614.7,600.0L619.3,603.4L621.7,606.1L626.2,608.7L628.5,608.0L636.9,600.7L642.0,598.1L643.3,597.9L644.9,599.9L648.7,620.8L648.1,624.8L649.9,630.2L654.8,635.8L659.3,639.6L664.5,642.6L670.2,643.5L673.2,642.9L678.3,640.1L685.8,631.6L688.3,631.7L693.5,634.1L694.0,635.0L694.4,640.6L697.2,649.2L703.2,652.7L709.3,659.8L711.8,663.2L712.5,665.9L710.8,668.8L713.4,671.0L717.0,678.0L721.1,698.6L722.5,701.7L738.0,709.8L741.5,712.2L743.0,712.7L747.6,707.5L750.7,707.6L754.2,709.6L758.1,712.7L761.3,716.0L763.0,719.1L762.7,720.1L758.6,719.3L760.2,722.8L759.1,727.9L759.4,738.7L759.9,744.9L759.3,747.3L765.4,746.8L769.4,747.5L771.9,747.3L780.0,748.2L781.9,754.4L782.9,755.9L789.2,756.2L791.7,754.3L795.7,755.6L797.9,758.7L798.6,756.3L799.1,748.5L798.8,746.7L800.0,743.5L799.4,741.4L797.5,739.3L796.2,736.1L798.3,731.7L798.1,729.9L795.5,727.2L796.5,724.8L797.3,720.6L794.1,715.4L790.0,711.1L788.5,707.3L786.1,697.1L785.3,691.7L787.8,669.6L787.5,663.4L784.6,644.3L788.9,637.0L789.7,632.1L787.6,629.3L783.3,626.3L781.2,623.5L783.7,622.0L788.7,620.2L798.6,613.6L801.6,610.4L801.4,608.4L798.8,603.3L798.1,598.8L796.8,595.1L797.0,591.6L800.0,585.5L800.6,580.0L800.0,575.3L796.6,563.7L793.9,558.9L790.3,556.3L790.0,551.7L792.2,506.6L769.1,479.3L761.6,474.3L704.8,450.3L651.5,428.8Z " data-id="IR.KE" data-name="Kerman" id="IR.KE"/>
utf-8utf-8<path d="M325.8,190.7L320.7,191.2L319.8,193.1L324.6,197.7L328.0,198.7L330.4,200.5L329.8,205.3L328.4,209.8L328.2,211.9L326.9,213.4L318.5,217.9L316.4,220.3L318.5,226.7L319.7,228.3L321.8,228.8L326.4,229.1L331.1,230.4L334.1,232.8L335.6,231.7L333.4,229.2L333.7,227.7L336.3,227.8L338.4,229.8L339.6,234.8L340.8,234.5L341.6,232.0L343.7,231.8L344.4,229.0L347.0,227.2L348.9,224.3L349.6,220.9L353.6,220.7L353.3,214.4L355.5,211.2L358.9,209.8L362.6,210.3L364.9,208.7L364.4,205.6L364.1,203.2L360.5,199.7L352.8,198.1L347.7,194.5L344.6,193.4L336.8,191.9L325.8,190.7Z " data-id="IR.AL" data-name="Alborz" id="IR.AL"/>
utf-8</g>
</svg>
