<?xml version="1.0" ?>
<!DOCTYPE svg
  PUBLIC '-//W3C//DTD SVG 1.1//EN'
  'http://www.w3.org/Graphics/SVG/1.1/DTD/svg11.dtd'>
<svg enable_background="new 0 0 1000 378" height="378px" pretty_print="True" style="stroke-linejoin: round; stroke:#000; fill: none;" version="1.1" viewBox="0 0 1000 378" width="1000px" xmlns="http://www.w3.org/2000/svg" xmlns:xlink="http://www.w3.org/1999/xlink">
utf-8<defs>
utf-8utf-8<style type="text/css">
<![CDATA[path { fill-rule: evenodd; }]]>utf-8utf-8</style>
utf-8</defs>
utf-8<metadata>
utf-8utf-8<views>
utf-8utf-8utf-8<view h="378.114702054" padding="0" w="1000">
utf-8utf-8utf-8utf-8<proj flip="auto" id="robinson" lon0="-21.7103171426"/>
utf-8utf-8utf-8utf-8<bbox h="46.33" w="122.85" x="-274.67" y="-1091.23"/>
utf-8utf-8utf-8</view>
utf-8utf-8</views>
utf-8</metadata>
utf-8<g class="" id="provinces">
utf-8utf-8<path d="M219.1,283.8L217.3,281.9L216.3,281.5L219.1,283.8Z M215.7,270.7L215.8,272.5L211.8,274.8L215.2,275.2L217.7,274.1L220.3,274.1L223.0,275.3L222.1,277.3L229.8,276.6L231.6,277.3L226.9,278.9L226.0,280.3L231.7,279.9L229.4,282.3L223.1,281.8L220.6,282.3L222.4,283.1L217.5,285.6L216.1,284.2L202.5,282.7L199.5,284.0L202.6,284.1L205.6,285.0L210.8,288.1L210.5,289.8L205.1,290.3L203.5,289.8L204.5,288.3L201.9,288.5L199.5,289.4L198.2,291.4L199.8,290.8L205.4,293.1L202.8,293.8L200.3,295.9L197.7,296.9L189.8,297.7L197.1,302.9L206.9,302.5L216.4,297.3L233.9,293.2L240.5,280.6L241.1,272.0L230.4,269.8L217.5,270.0L215.7,270.7Z " data-id="IS.NE" data-name="Reykjavík" id="IS.NE"/>
utf-8utf-8<path d="M146.1,138.1L145.5,137.8L145.1,138.4L146.1,138.1Z M126.9,127.2L125.6,127.6L125.9,127.9L126.9,127.2Z M258.7,128.6L260.4,127.8L267.0,122.8L267.8,124.4L266.7,129.3L265.8,131.1L262.4,134.4L260.9,137.0L263.8,139.5L271.8,138.2L275.2,138.3L282.1,148.0L284.9,150.6L287.4,151.8L291.6,154.9L293.8,160.6L292.8,163.3L289.6,166.5L288.6,170.4L290.5,174.9L295.5,181.0L302.1,184.5L307.5,186.0L313.6,186.0L312.4,184.1L311.3,178.3L308.6,173.3L308.0,169.6L308.6,167.4L308.5,162.6L308.5,162.6L307.9,162.9L307.3,157.0L304.1,153.9L303.9,151.9L301.4,145.6L302.7,140.2L303.2,133.9L302.0,133.5L303.0,131.5L302.3,130.4L299.1,128.6L297.0,126.2L291.7,125.7L287.9,127.4L278.4,129.4L278.5,128.6L283.1,127.6L288.9,124.5L294.2,120.3L296.9,116.0L295.8,110.8L290.9,111.4L284.9,114.2L280.2,115.5L287.8,109.6L288.9,108.2L288.0,106.6L285.5,105.9L270.3,106.1L265.6,100.8L264.2,100.0L266.9,97.3L263.5,92.7L259.5,91.1L260.6,90.1L263.5,90.1L266.1,90.9L268.9,95.3L274.2,100.0L286.5,100.3L289.3,99.2L297.6,94.3L291.8,91.9L285.1,91.0L294.6,89.1L299.4,86.2L304.9,80.5L305.0,79.6L301.0,78.0L303.9,77.1L305.2,75.5L305.3,73.5L304.4,71.1L302.2,70.0L292.2,71.5L292.3,70.7L296.5,69.2L297.8,68.2L295.2,67.4L286.6,68.2L281.3,69.7L278.7,69.9L277.3,68.2L278.7,68.2L288.5,66.7L291.1,65.6L303.9,65.0L303.3,62.4L297.3,60.0L287.3,61.5L283.5,58.0L284.3,56.9L288.5,54.9L281.4,52.1L276.8,53.6L278.2,56.0L277.7,58.9L273.1,60.9L276.4,56.8L275.5,54.3L270.9,55.2L269.8,54.6L269.4,49.0L268.9,47.8L270.3,45.0L269.1,41.5L263.7,39.9L260.8,40.6L253.1,37.3L249.2,38.6L248.0,38.2L253.8,35.8L254.8,34.9L248.6,31.7L247.0,31.3L240.5,31.7L240.7,29.2L236.8,31.7L233.3,30.0L228.8,31.7L227.8,30.9L229.0,24.6L231.6,23.6L227.8,23.1L226.8,22.4L228.3,21.2L226.4,19.0L219.5,16.8L218.3,15.1L217.9,12.3L216.3,10.0L213.8,8.5L210.9,8.2L211.4,9.3L213.6,10.2L212.0,13.0L206.1,11.4L200.9,8.4L197.2,9.0L195.2,11.5L191.3,13.7L184.4,11.1L180.5,10.3L176.1,8.2L167.1,8.2L171.1,10.3L174.0,12.4L173.0,13.3L169.2,10.5L159.1,11.4L160.5,13.9L152.7,11.1L149.7,12.3L156.2,16.9L158.7,17.1L156.0,20.8L152.1,21.1L148.0,20.2L144.5,20.3L143.1,21.4L147.0,24.7L150.5,25.8L164.4,27.8L167.6,26.2L171.8,22.8L175.2,21.0L178.4,20.3L174.2,25.3L175.2,26.0L180.8,25.2L188.7,21.1L190.0,21.2L188.1,25.2L185.0,27.2L189.8,29.2L195.1,28.9L207.0,26.0L199.4,30.9L202.9,31.9L215.3,30.9L213.1,31.8L208.5,32.1L204.3,33.7L197.5,34.1L198.9,36.6L196.3,37.1L194.1,35.8L189.8,34.1L180.5,32.4L177.7,32.4L163.9,34.3L159.4,35.8L162.2,41.0L167.8,44.6L188.4,49.6L192.9,52.4L200.1,54.4L208.4,52.0L210.3,51.9L208.9,53.5L203.6,54.5L202.1,55.7L199.5,60.0L201.3,60.5L204.4,63.3L205.4,65.0L206.6,72.0L208.1,73.9L205.0,75.2L200.2,81.8L196.6,82.9L201.3,77.2L202.8,72.3L202.2,72.1L200.5,74.8L199.4,74.2L200.5,71.5L198.2,70.7L195.3,66.4L193.3,66.6L192.1,69.8L184.5,78.5L181.6,83.1L179.9,82.3L181.2,80.1L187.2,73.1L189.8,66.7L186.7,62.4L183.6,60.4L182.1,56.9L176.0,56.6L173.3,59.7L172.0,62.5L170.7,68.2L166.6,73.9L166.4,72.3L169.0,66.2L168.3,63.0L163.3,68.2L161.6,69.2L156.2,69.8L159.4,68.7L162.4,66.4L167.1,60.9L165.9,60.1L162.0,61.7L161.2,58.9L158.6,58.0L156.6,60.9L154.5,62.5L147.2,66.3L155.0,59.5L155.3,54.7L151.2,50.3L149.4,50.7L144.2,54.5L144.1,51.9L144.8,50.2L143.6,48.0L137.4,45.1L128.9,41.5L115.1,39.3L113.0,39.9L112.5,41.4L111.0,42.1L105.6,42.6L104.0,43.5L101.2,46.3L103.2,47.2L111.9,47.1L113.8,47.7L116.7,50.9L111.3,48.4L105.5,47.9L97.5,48.3L94.4,49.6L97.0,51.9L107.1,57.1L114.8,59.3L118.0,65.0L116.3,64.6L114.0,60.0L110.6,61.0L106.0,60.3L90.6,55.0L86.0,54.4L82.2,55.2L79.7,58.5L79.0,62.2L82.7,65.9L86.5,68.0L91.7,70.3L95.9,73.9L97.8,74.8L106.9,76.0L113.0,78.8L120.4,79.2L122.5,80.8L129.7,82.1L126.4,83.0L123.1,82.2L117.1,79.6L113.4,79.6L102.7,77.2L96.8,78.1L89.5,74.8L82.9,73.9L78.1,72.3L76.3,72.3L72.0,74.7L71.0,78.3L72.2,82.2L74.5,85.4L81.1,90.3L86.1,89.4L88.9,91.0L93.5,92.1L117.9,92.4L122.1,90.5L125.1,89.8L130.1,89.4L124.1,91.9L126.3,93.4L124.2,94.4L118.5,93.4L114.0,94.9L106.5,95.4L104.1,94.4L98.2,95.9L97.1,96.5L100.2,100.0L103.6,101.3L108.3,102.1L119.2,101.6L117.8,102.4L113.4,102.4L109.1,104.0L107.5,104.1L106.6,106.9L101.8,106.2L100.6,107.3L99.1,105.7L94.9,108.5L92.6,109.4L91.1,108.9L94.0,104.6L88.7,98.5L52.7,86.8L48.9,86.7L44.7,88.6L45.3,90.0L44.8,94.3L47.7,98.5L52.2,102.0L56.2,102.8L60.6,104.6L64.4,105.3L70.3,109.8L67.6,109.4L59.2,106.5L45.8,105.0L51.6,111.1L60.7,118.0L68.6,118.8L63.1,120.2L60.5,120.3L57.9,119.6L54.2,116.0L48.0,115.1L44.7,113.8L40.4,110.3L36.4,109.6L28.1,106.7L19.7,108.9L17.7,114.7L15.9,115.7L10.2,117.6L5.6,120.7L1.3,122.0L2.9,124.0L6.1,124.4L32.4,122.8L45.7,126.0L47.5,127.8L48.8,126.2L50.9,126.1L52.3,127.2L50.3,128.6L48.7,128.6L49.7,132.7L53.2,134.1L57.3,134.4L74.5,131.8L78.5,128.6L80.5,127.5L80.9,126.1L83.5,127.0L96.0,125.6L101.2,123.4L103.9,122.8L103.8,121.5L105.4,121.3L107.1,123.2L112.3,124.3L118.3,124.7L124.8,121.3L123.6,118.8L124.2,116.2L126.2,113.9L130.5,117.1L135.3,118.4L138.0,117.6L143.6,116.9L145.7,115.5L147.8,109.8L148.6,110.3L149.4,114.3L151.2,115.0L153.7,113.9L155.9,111.6L156.9,108.9L162.0,112.3L159.4,112.9L152.4,117.2L152.2,118.0L161.3,119.5L160.8,122.0L166.9,122.0L166.1,112.9L167.9,107.3L170.1,108.2L172.7,108.2L170.2,110.4L169.2,112.4L169.2,114.4L170.6,118.1L172.9,119.6L176.0,115.1L179.2,118.7L181.5,117.8L184.5,113.9L183.5,111.3L183.9,108.1L185.3,107.0L187.9,114.7L186.8,119.6L187.4,121.7L188.6,122.0L193.8,120.9L195.2,117.2L198.8,118.4L200.7,118.0L204.9,115.6L206.8,115.5L201.2,118.8L201.0,119.6L207.5,119.3L213.9,117.2L221.5,111.9L220.1,113.8L219.0,117.5L211.1,120.0L200.8,121.2L198.7,122.0L196.6,124.0L196.9,125.0L200.5,126.1L205.4,128.8L207.5,130.9L212.4,131.1L216.3,127.6L220.7,124.8L223.2,120.6L224.4,123.4L227.2,125.1L227.9,122.8L233.0,122.0L234.2,125.1L237.1,126.9L232.8,130.2L240.1,129.4L246.5,130.2L249.7,130.1L258.7,128.6Z " data-id="IS.VF" data-name="Vestfirðir" id="IS.VF"/>
utf-8utf-8<path d="M637.8,329.3L636.0,328.8L630.3,329.6L637.8,329.3Z M646.1,329.1L643.3,329.0L645.0,329.4L646.1,329.1Z M676.5,328.7L671.4,328.0L670.9,328.7L667.0,329.4L676.5,328.7Z M687.4,327.7L687.1,327.7L686.8,327.8L687.4,327.7Z M691.8,327.1L691.1,326.8L687.9,327.6L691.8,327.1Z M661.2,326.2L660.0,327.2L660.6,327.4L661.2,326.2Z M692.2,326.4L694.4,324.5L691.8,325.5L692.2,326.4Z M702.6,318.2L696.8,321.5L696.8,322.6L702.6,318.2Z M930.2,230.9L932.6,232.2L932.9,231.2L930.2,230.9Z M910.0,65.1L905.5,65.8L902.2,70.2L865.0,72.8L862.4,75.4L858.5,77.6L852.9,79.8L844.7,80.5L841.0,84.7L836.0,86.3L831.4,90.4L830.7,90.7L811.5,93.5L809.5,95.4L809.6,104.2L809.9,109.2L804.9,117.1L777.1,113.9L775.0,114.6L770.2,123.3L768.8,124.9L764.9,126.6L760.6,130.5L760.0,131.8L760.6,134.0L767.7,136.9L771.8,141.5L772.1,142.9L769.9,146.6L758.8,153.8L756.0,155.9L753.8,159.3L752.8,168.1L750.1,174.4L752.0,175.9L751.0,177.6L745.9,181.0L739.6,182.1L734.3,184.8L729.0,188.7L725.6,189.6L721.9,189.7L714.8,191.4L712.4,191.5L709.5,199.0L708.0,200.1L704.7,204.1L704.7,205.1L707.5,212.2L706.3,217.0L703.8,221.7L701.0,226.1L680.9,246.1L631.0,298.3L626.6,305.7L625.8,308.0L622.6,329.1L622.5,330.5L627.8,329.5L639.8,325.4L639.8,327.4L643.4,326.1L646.6,327.6L654.6,327.9L658.1,327.5L659.9,326.1L658.5,325.2L656.8,321.2L658.0,319.7L661.2,319.6L662.8,318.8L662.9,313.3L664.5,313.2L665.8,315.4L664.8,321.7L663.3,322.7L662.9,326.0L661.5,328.7L665.5,327.2L664.4,326.1L666.2,319.2L667.4,322.5L666.5,325.5L668.4,326.3L669.3,319.6L670.1,319.3L675.6,322.9L677.5,327.0L678.7,326.4L679.5,322.1L683.1,320.9L695.7,318.8L710.5,312.1L709.3,314.5L714.3,310.5L721.3,307.2L723.2,304.7L721.6,304.6L723.4,302.6L726.0,301.0L731.2,298.8L730.4,300.5L732.5,300.2L738.3,298.0L737.3,296.4L740.3,295.2L741.1,296.4L748.6,291.7L751.6,291.0L757.8,288.1L757.9,287.3L753.6,287.3L757.1,285.6L781.5,281.4L784.8,279.9L783.1,279.2L775.2,280.7L783.9,276.9L786.7,274.8L787.8,276.6L790.3,275.4L796.0,274.2L801.3,273.9L807.4,272.7L809.9,271.6L804.2,270.7L806.4,269.8L811.5,270.6L813.8,270.0L816.5,266.1L816.4,264.3L814.7,262.4L817.0,263.1L817.9,262.4L815.0,257.1L808.7,255.1L814.5,256.3L818.1,258.5L820.1,260.8L821.2,263.3L820.0,265.8L824.9,267.4L823.4,263.3L825.8,263.1L828.8,267.1L831.8,266.7L829.5,270.7L833.9,270.0L834.1,268.3L837.3,269.1L842.9,267.0L850.7,271.3L854.9,271.6L856.8,271.1L859.7,269.0L861.8,269.1L860.9,265.8L857.1,266.7L855.4,264.5L861.4,261.7L861.2,262.7L865.5,260.0L870.8,258.1L874.5,255.1L878.9,253.1L879.8,250.8L889.9,251.7L892.2,252.6L887.9,253.6L879.5,254.9L894.1,254.2L896.3,250.6L898.0,249.2L898.3,246.1L901.7,243.1L903.2,238.6L904.5,237.2L913.6,231.4L914.6,229.5L911.7,230.6L905.4,235.5L899.3,236.9L897.5,236.1L894.0,233.5L893.1,231.9L894.3,231.1L906.5,231.1L909.7,228.4L907.3,225.8L903.8,224.8L902.4,223.7L907.3,221.6L922.4,224.6L923.0,222.4L921.4,221.3L916.9,220.4L914.2,218.1L912.1,213.8L907.6,212.4L906.3,211.4L907.7,207.9L902.5,206.4L909.6,207.3L910.9,208.0L913.0,210.7L915.2,212.1L917.3,216.8L923.4,218.8L944.0,216.3L950.0,213.9L944.8,209.0L944.9,208.1L948.3,206.4L951.1,207.1L961.6,207.3L964.2,206.9L964.3,205.6L962.7,204.7L953.1,202.4L956.0,201.1L965.3,203.2L971.6,200.3L970.0,197.4L964.4,194.7L951.5,193.0L946.3,190.8L947.9,190.3L953.4,191.7L962.6,190.8L970.4,193.0L974.8,193.4L978.8,191.7L977.2,190.0L968.0,187.5L963.3,184.7L962.9,183.5L959.9,181.0L931.3,179.4L931.4,178.5L950.0,178.1L953.5,176.1L950.6,174.1L950.2,172.8L952.9,173.4L957.7,176.2L962.4,177.1L968.1,179.2L970.2,183.4L972.0,184.0L977.8,183.4L984.2,184.3L990.2,181.8L988.3,178.5L990.3,177.7L994.2,177.0L996.1,176.1L998.3,171.9L996.7,171.2L998.3,162.1L994.3,164.6L988.6,169.9L987.7,170.3L982.5,168.7L984.9,167.2L984.3,165.5L977.2,166.3L977.3,165.4L983.3,164.6L989.3,160.1L985.5,158.8L979.1,159.7L965.2,158.8L954.5,160.0L951.8,158.8L957.4,158.8L962.8,158.0L975.0,158.0L986.7,156.4L988.7,155.7L992.8,152.5L995.1,151.5L994.0,149.6L991.8,148.2L987.5,146.6L984.8,146.1L975.8,147.4L971.5,147.1L956.7,150.1L955.4,149.0L957.8,148.2L965.5,147.4L976.0,145.7L979.0,145.0L981.2,143.6L981.1,141.7L974.2,140.3L972.1,139.2L975.8,138.1L984.0,138.8L987.2,137.6L987.9,134.2L987.1,133.5L991.0,131.8L991.2,126.7L994.5,123.9L994.6,121.3L988.3,116.4L985.6,116.0L983.1,117.0L978.5,120.4L975.7,118.0L976.7,114.7L975.9,114.0L971.8,113.8L973.1,112.9L973.2,109.4L970.5,108.7L960.4,110.0L957.9,109.8L938.7,103.3L943.3,107.3L936.4,104.4L934.0,104.1L932.0,104.8L919.6,114.0L916.7,116.8L913.5,118.5L907.9,122.8L911.4,117.6L918.8,113.0L921.0,110.5L926.0,107.5L928.6,104.4L931.4,103.3L936.4,102.4L934.8,101.3L927.4,98.3L926.0,95.6L928.4,94.4L932.9,89.4L930.2,87.7L926.4,88.2L919.2,90.3L899.4,93.1L892.0,95.4L888.7,95.9L885.6,95.0L886.9,92.8L889.9,90.2L891.5,87.7L887.0,90.7L884.4,91.8L881.7,91.9L886.6,89.2L888.6,87.5L888.7,85.4L890.9,83.9L897.9,81.2L905.8,76.0L908.2,73.1L910.5,67.8L910.0,65.1Z " data-id="IS.AL" data-name="Austurland" id="IS.AL"/>
utf-8utf-8<path d="M551.2,187.3L554.5,179.4L556.4,171.3L556.9,165.2L556.2,157.9L553.2,154.5L546.1,151.9L542.4,149.4L540.2,145.9L539.7,141.8L538.0,139.6L531.9,139.2L528.3,133.7L523.4,130.9L525.3,128.0L526.2,125.2L528.9,123.3L529.9,121.1L526.8,118.6L522.9,116.7L519.1,116.1L513.8,111.9L515.7,110.2L520.1,104.1L521.4,102.8L526.2,100.5L526.6,98.1L524.7,95.6L525.5,93.8L523.9,90.0L520.5,88.4L512.2,83.3L513.2,79.8L520.9,77.5L525.0,73.0L524.7,70.1L521.3,68.0L526.4,59.9L519.7,54.9L516.2,50.6L513.9,47.0L509.6,44.8L508.8,46.0L506.3,50.3L508.8,54.6L508.0,54.9L501.1,51.9L501.0,53.9L498.8,53.7L494.9,51.9L482.6,53.0L477.2,54.5L473.9,57.3L474.4,59.8L476.5,62.6L473.1,65.0L468.3,66.2L466.7,69.1L471.5,72.3L474.6,82.9L471.3,92.8L470.2,94.4L466.7,95.7L466.5,94.7L468.4,93.5L462.8,91.9L460.1,91.7L458.3,95.1L456.7,93.6L452.2,92.9L449.6,84.5L444.2,77.4L438.7,76.0L433.9,75.6L432.4,74.8L433.0,72.6L427.9,68.2L429.4,66.6L428.4,66.1L427.5,63.3L424.3,59.4L421.5,54.5L422.2,53.6L417.7,50.5L417.6,48.0L415.5,48.9L409.2,48.0L404.1,50.7L402.3,51.2L399.1,51.0L386.3,53.6L387.3,55.1L385.0,58.9L383.4,60.0L386.6,63.8L386.8,65.8L389.9,75.2L391.6,79.0L392.0,82.5L389.4,83.7L393.0,88.0L394.3,90.8L393.2,97.5L389.5,100.0L390.4,103.1L392.4,103.3L387.9,104.1L384.7,109.2L381.4,111.5L380.1,113.1L380.9,114.9L379.0,117.7L378.0,117.9L379.2,112.6L378.3,111.5L367.0,113.8L372.7,114.7L375.8,117.2L372.5,122.8L369.2,123.7L365.2,122.1L364.2,119.6L361.8,118.8L362.8,116.4L362.1,113.1L360.2,112.1L358.8,113.0L358.4,115.0L358.9,117.2L356.8,117.6L356.1,116.4L356.5,114.3L357.9,112.3L358.0,108.1L359.4,103.3L357.0,100.3L355.0,100.0L354.5,101.2L349.6,102.4L343.3,106.5L332.3,110.9L328.6,114.6L327.1,118.0L324.8,120.4L324.1,122.2L323.8,130.4L324.8,134.4L326.3,138.0L328.2,140.8L323.2,140.5L320.3,135.9L318.4,130.8L316.8,128.7L314.2,127.8L312.7,129.5L312.5,133.3L312.8,142.3L311.8,145.8L309.2,148.0L309.4,149.0L307.2,150.7L309.0,153.6L310.5,160.5L309.5,162.1L308.5,162.6L308.6,167.4L308.0,169.6L308.6,173.3L311.3,178.3L312.4,184.1L313.6,186.0L314.2,187.3L334.5,193.0L335.9,193.1L366.1,188.1L371.6,189.5L393.3,189.8L420.2,190.5L421.4,191.2L421.2,193.5L419.5,195.4L408.0,201.8L402.3,206.5L425.0,212.4L429.8,212.6L454.5,208.5L477.3,208.6L504.2,202.1L545.7,197.0L551.2,187.3Z " data-id="IS.NV" data-name="Norðurland vestra" id="IS.NV"/>
utf-8utf-8<path d="M571.6,65.7L571.8,64.3L569.3,61.3L567.1,60.7L568.6,65.5L571.6,65.7Z M622.5,43.0L617.9,43.5L617.9,44.6L620.9,45.0L622.5,43.0Z M509.6,44.8L513.9,47.0L516.2,50.6L519.7,54.9L526.4,59.9L521.3,68.0L524.7,70.1L525.0,73.0L520.9,77.5L513.2,79.8L512.2,83.3L520.5,88.4L523.9,90.0L525.5,93.8L524.7,95.6L526.6,98.1L526.2,100.5L521.4,102.8L520.1,104.1L515.7,110.2L513.8,111.9L519.1,116.1L522.9,116.7L526.8,118.6L529.9,121.1L528.9,123.3L526.2,125.2L525.3,128.0L523.4,130.9L528.3,133.7L531.9,139.2L538.0,139.6L539.7,141.8L540.2,145.9L542.4,149.4L546.1,151.9L553.2,154.5L556.2,157.9L556.9,165.2L556.4,171.3L554.5,179.4L551.2,187.3L545.7,197.0L553.6,201.5L562.3,204.6L587.2,213.1L631.3,228.5L680.9,246.1L701.0,226.1L703.8,221.7L706.3,217.0L707.5,212.2L704.7,205.1L704.7,204.1L708.0,200.1L709.5,199.0L712.4,191.5L714.8,191.4L721.9,189.7L725.6,189.6L729.0,188.7L734.3,184.8L739.6,182.1L745.9,181.0L751.0,177.6L752.0,175.9L750.1,174.4L752.8,168.1L753.8,159.3L756.0,155.9L758.8,153.8L769.9,146.6L772.1,142.9L771.8,141.5L767.7,136.9L760.6,134.0L760.0,131.8L760.6,130.5L764.9,126.6L768.8,124.9L770.2,123.3L775.0,114.6L777.1,113.9L804.9,117.1L809.9,109.2L809.6,104.2L809.5,95.4L811.5,93.5L830.7,90.7L831.4,90.4L836.0,86.3L841.0,84.7L844.7,80.5L852.9,79.8L858.5,77.6L862.4,75.4L865.0,72.8L902.2,70.2L905.5,65.8L910.0,65.1L909.9,63.8L906.9,62.7L906.3,58.6L901.7,55.2L897.0,55.5L889.2,59.1L885.1,59.3L879.3,57.8L869.2,57.6L867.4,56.9L871.3,55.2L871.1,52.9L870.0,52.0L860.7,50.3L862.7,47.7L865.3,46.5L872.4,45.9L881.6,41.5L884.4,37.2L877.9,31.7L880.3,29.6L883.3,28.4L891.7,27.3L899.2,24.4L915.7,20.5L920.2,18.0L902.9,19.5L897.5,17.4L895.5,17.1L887.6,17.9L881.4,20.7L879.7,22.2L877.7,25.4L871.0,27.6L869.6,30.5L863.1,31.7L852.0,31.7L849.3,32.5L848.2,40.0L845.9,43.2L844.3,43.8L845.4,44.7L843.2,45.7L840.0,43.1L831.0,37.8L831.0,36.6L829.1,37.3L828.3,36.5L817.0,36.4L815.7,35.8L817.0,32.0L810.7,30.9L809.7,29.2L814.9,26.5L819.1,22.8L818.2,17.7L817.5,16.6L814.5,15.5L805.9,15.5L806.8,13.1L805.2,13.5L801.6,13.1L797.1,13.3L798.3,12.3L796.7,10.6L798.7,9.8L797.5,9.0L798.3,7.2L802.4,4.9L798.3,4.0L791.2,0.0L785.9,1.3L780.9,0.1L775.5,1.2L773.4,4.1L771.8,2.2L768.4,5.8L764.3,6.5L763.2,4.8L760.2,2.5L755.0,4.2L753.8,5.3L754.4,2.0L749.1,3.0L747.4,5.8L746.4,5.6L745.9,3.3L744.0,3.5L740.9,6.6L743.2,8.1L744.4,11.9L745.7,13.9L743.8,13.9L745.4,16.2L744.2,20.0L747.1,22.0L747.5,25.2L748.9,25.9L751.4,29.5L751.4,31.3L748.9,35.8L747.2,36.5L743.9,41.0L744.5,42.4L748.8,45.5L748.7,46.3L746.4,46.1L743.2,43.3L739.3,42.2L731.2,43.8L733.9,42.4L742.2,39.9L740.1,39.9L736.2,41.2L729.9,42.2L725.6,43.8L727.7,48.4L732.6,51.2L732.5,51.9L729.7,51.6L726.3,47.7L724.0,46.3L716.3,48.0L717.7,47.1L722.1,46.3L718.8,45.8L707.2,47.5L703.8,48.8L705.6,49.6L704.5,50.2L701.3,49.6L702.8,47.1L700.1,42.0L696.3,39.0L687.3,38.5L685.1,37.3L683.8,39.4L678.1,40.5L673.4,43.5L672.9,44.4L673.8,46.7L673.1,48.1L666.9,50.4L664.3,52.0L662.6,55.1L662.6,57.0L661.2,59.1L659.6,60.0L659.7,61.6L656.5,64.2L657.1,65.7L656.0,68.2L653.6,64.1L639.2,64.2L641.2,65.2L649.6,65.0L643.6,66.6L641.9,66.6L644.0,71.7L643.4,73.9L639.9,67.5L636.6,63.8L633.8,62.7L632.1,57.7L631.1,56.4L625.3,52.3L622.7,50.1L621.2,49.6L617.5,49.8L614.7,45.5L611.0,44.5L601.9,45.8L598.7,44.7L598.1,43.6L594.2,43.8L589.8,42.2L581.7,41.9L580.5,42.2L577.6,45.6L576.2,51.2L576.5,56.7L578.5,60.0L577.6,61.7L580.0,65.3L582.5,66.2L583.6,69.0L582.5,70.7L586.9,73.9L588.7,72.3L591.6,75.6L595.1,83.6L594.2,87.7L591.5,89.4L590.9,93.4L589.5,95.4L589.7,96.8L592.6,98.5L593.3,99.9L593.6,104.2L592.2,105.7L590.8,105.4L590.5,100.0L586.6,97.6L583.3,94.4L584.1,89.4L582.8,80.7L582.1,79.2L578.4,78.7L577.5,76.2L571.8,69.4L565.2,68.9L561.2,67.5L554.9,66.6L558.0,60.0L556.4,53.7L552.1,51.1L546.2,52.8L550.5,47.9L544.7,43.4L542.1,43.0L535.0,46.7L534.0,46.7L537.5,40.6L530.7,39.2L529.4,41.5L526.9,44.0L523.8,45.5L525.0,41.7L522.3,40.9L514.0,42.5L509.6,44.7L509.6,44.8Z M613.1,0.0L613.5,0.4L614.5,0.0L613.1,0.0Z " data-id="IS.NE" data-name="Norðurland eystra" id="IS.NE"/>
utf-8utf-8<path d="M184.9,300.0L176.9,299.0L173.2,300.5L168.8,300.9L164.7,302.8L164.9,304.6L161.0,305.8L152.0,305.5L149.9,305.1L149.2,300.7L147.5,297.8L145.4,295.6L142.4,294.3L139.9,292.5L136.3,293.5L135.5,294.5L134.6,300.5L132.2,303.8L132.4,306.1L135.5,308.5L139.9,309.6L135.9,309.6L132.2,315.0L130.5,316.2L133.0,318.2L132.8,320.9L130.4,323.8L136.1,324.5L138.2,324.1L147.0,324.7L151.1,323.1L157.9,321.2L160.4,322.9L166.4,319.6L190.8,322.9L200.8,321.9L203.5,321.4L203.5,321.4L205.7,319.2L207.6,317.6L232.4,303.0L218.9,302.2L206.9,302.5L197.1,302.9L189.8,297.7L184.9,300.0Z " data-id="IS.SU" data-name="Suðurnes" id="IS.SU"/>
utf-8utf-8<path d="M348.7,374.6L350.7,372.1L350.5,369.5L346.4,370.1L345.9,371.5L348.7,374.6Z M588.3,338.9L587.8,337.2L584.1,337.7L581.1,339.4L580.7,340.4L586.6,339.8L588.3,338.9Z M622.5,330.5L622.6,329.1L625.8,308.0L626.6,305.7L631.0,298.3L680.9,246.1L631.3,228.5L587.2,213.1L562.3,204.6L553.6,201.5L545.7,197.0L504.2,202.1L477.3,208.6L454.5,208.5L429.8,212.6L425.0,212.4L402.3,206.5L400.5,209.4L399.6,215.1L397.0,217.5L394.2,218.9L368.5,225.5L337.9,235.9L322.6,239.0L320.2,239.9L308.4,247.1L293.5,254.3L286.2,259.1L262.1,271.9L258.8,275.7L259.4,280.4L257.4,283.4L243.3,296.8L240.8,298.7L236.0,303.1L232.4,303.0L207.6,317.6L205.7,319.2L203.5,321.4L203.5,321.4L216.8,318.7L219.8,318.9L225.2,322.1L228.3,323.4L255.7,321.2L256.3,318.3L258.0,317.0L265.0,316.1L271.0,317.1L270.1,315.3L267.9,314.1L263.4,312.9L269.9,308.7L274.8,307.9L280.5,309.6L287.4,309.6L284.5,311.0L280.4,311.5L273.3,311.2L273.0,316.2L274.6,318.1L282.5,321.4L293.9,323.9L301.7,327.2L304.2,327.0L306.6,327.9L311.5,326.5L315.4,323.8L317.4,321.9L318.0,320.2L315.5,319.6L319.0,319.5L319.8,322.7L318.2,326.3L314.7,328.7L316.9,329.7L323.6,328.7L322.0,330.3L324.6,330.3L324.5,331.1L309.4,330.3L315.4,333.3L318.4,334.1L322.1,336.2L327.5,336.2L329.1,332.0L331.4,331.5L336.2,328.7L340.7,325.7L342.0,322.8L342.9,322.4L343.3,325.7L340.0,328.7L346.7,331.1L351.1,335.4L348.1,335.1L343.4,331.9L340.6,331.1L334.3,331.7L331.2,332.7L328.4,334.4L329.3,336.4L328.5,337.8L329.8,340.7L332.3,342.8L337.9,346.1L332.6,339.4L335.1,338.6L337.8,342.8L343.4,347.8L340.3,347.0L343.7,349.0L345.4,348.5L349.1,351.0L346.1,351.2L359.1,358.2L362.5,358.7L369.6,358.6L370.1,357.2L371.8,356.9L373.1,358.4L397.5,359.4L388.4,358.3L388.2,357.7L396.9,358.6L400.9,357.7L402.0,358.2L399.9,359.4L402.6,361.0L417.2,363.3L427.4,367.6L434.8,368.5L440.5,371.0L452.8,372.6L454.9,371.0L457.7,372.3L461.0,372.8L458.9,373.5L461.6,374.0L469.2,372.8L486.6,376.0L491.3,376.1L511.3,373.0L523.3,369.7L543.4,368.0L535.8,367.6L535.4,363.4L531.5,359.4L534.4,357.9L540.4,360.3L542.9,360.3L548.0,359.4L550.6,359.4L550.5,360.3L547.5,360.4L543.8,362.9L539.8,364.4L542.5,366.9L548.4,366.1L554.8,363.4L564.7,360.8L569.3,358.1L573.2,354.3L576.1,350.2L574.6,350.9L567.7,351.1L568.2,349.8L566.1,348.7L570.2,348.1L570.2,347.0L574.0,347.0L575.6,348.6L578.2,347.3L582.8,342.8L580.2,343.3L573.0,342.8L566.8,344.1L566.5,343.2L568.4,341.1L570.0,342.3L573.1,340.4L576.2,335.6L584.0,334.4L582.3,332.8L589.3,333.8L591.8,332.8L592.2,329.5L594.2,330.9L600.1,332.8L600.0,333.7L594.3,334.5L591.7,336.0L590.4,338.7L603.1,333.7L602.8,331.1L604.1,332.0L607.6,328.7L608.0,329.9L606.0,333.2L614.7,332.0L622.5,330.5Z " data-id="IS.SL" data-name="Suðurland" id="IS.SL"/>
utf-8utf-8<path d="M286.7,257.5L284.7,255.3L275.5,256.4L267.0,256.6L261.1,257.7L261.1,257.7L259.3,259.1L257.1,259.4L244.8,257.5L240.4,258.2L236.4,260.0L229.2,262.1L224.8,266.6L221.7,268.4L217.5,270.0L230.4,269.8L241.1,272.0L240.5,280.6L233.9,293.2L216.4,297.3L206.9,302.5L218.9,302.2L232.4,303.0L236.0,303.1L240.8,298.7L243.3,296.8L257.4,283.4L259.4,280.4L258.8,275.7L262.1,271.9L286.2,259.1L286.7,257.5Z " data-id="IS.HO" data-name="Höfuðborgarsvæði" id="IS.HO"/>
utf-8utf-8<path d="M180.5,239.0L179.0,238.4L177.5,240.8L180.5,239.0Z M177.4,213.8L173.9,210.6L174.1,211.9L177.6,214.9L180.5,214.6L177.4,213.8Z M183.3,172.9L181.1,172.4L176.8,173.2L176.8,173.8L183.3,173.4L183.3,172.9Z M170.2,168.1L167.5,168.8L170.1,169.6L170.2,168.1Z M164.6,164.9L162.4,165.0L161.8,164.9L164.6,164.9Z M166.5,163.4L166.4,162.4L165.4,162.3L166.5,163.4Z M256.4,129.3L252.7,130.4L240.5,132.4L234.6,134.3L235.4,136.7L230.7,135.1L228.8,137.2L222.7,138.8L219.0,141.1L209.8,144.7L199.3,146.3L188.0,150.7L187.9,152.7L186.1,153.7L181.6,154.8L174.9,160.5L179.5,159.5L183.6,160.5L183.5,161.4L180.6,160.5L178.3,161.5L174.1,162.5L177.9,164.3L189.2,163.2L195.2,166.2L220.7,169.0L225.5,167.9L240.4,161.4L240.0,159.7L243.1,158.1L247.1,157.9L249.7,159.5L248.7,163.7L242.4,171.2L238.0,172.9L236.8,174.5L239.5,174.7L241.0,175.9L240.6,177.4L238.0,178.5L227.7,179.4L225.5,178.5L221.7,179.0L218.1,177.7L211.3,177.7L207.8,179.4L200.0,177.1L187.9,175.7L180.3,176.7L172.7,176.5L170.9,177.0L170.4,178.5L167.1,179.1L164.3,181.0L168.1,184.3L168.0,185.1L162.8,182.6L159.9,181.8L159.1,178.5L157.7,179.2L153.4,179.4L157.4,177.9L159.2,175.3L157.5,173.6L153.8,174.1L146.2,178.1L142.3,178.5L142.1,179.4L148.9,178.9L150.2,179.4L144.4,181.6L138.7,182.3L134.9,184.3L133.2,182.2L131.0,181.0L128.3,181.2L120.2,186.7L119.0,187.9L118.4,192.5L114.1,188.4L116.6,186.1L117.3,184.3L120.2,183.3L122.4,181.0L115.1,180.3L111.2,180.7L108.3,182.6L107.7,184.3L108.4,188.8L107.6,190.0L103.0,190.8L101.1,192.1L101.0,188.4L97.1,189.3L98.1,187.2L97.0,186.6L93.1,186.7L94.0,189.3L85.8,188.4L81.9,189.2L77.0,192.6L73.3,192.5L69.4,194.9L59.5,193.9L52.7,191.2L50.8,191.1L40.6,192.6L34.9,195.5L33.1,196.0L31.4,194.9L30.7,195.8L32.2,200.9L37.8,208.3L38.1,211.4L41.4,213.4L47.6,215.6L55.8,213.9L62.6,213.8L65.3,212.6L67.5,209.8L68.4,207.4L71.5,205.4L75.2,204.3L76.7,204.7L73.3,205.6L83.6,207.5L87.6,205.9L89.6,204.0L98.7,202.8L103.7,203.1L108.5,206.2L121.0,206.7L131.9,206.7L145.2,207.6L149.1,209.7L151.6,209.8L151.7,209.0L145.9,206.4L155.6,206.4L158.3,209.4L154.1,209.8L156.2,210.7L164.8,209.8L162.6,208.1L168.6,205.6L173.6,206.4L173.7,205.6L176.3,205.3L176.7,206.4L180.2,204.0L176.2,209.0L178.1,209.0L176.5,210.6L182.4,210.5L185.1,210.9L186.9,212.3L184.1,213.9L184.6,214.7L176.0,220.4L177.7,221.6L186.2,217.9L192.4,216.7L198.6,213.9L198.5,214.7L195.5,216.6L184.3,219.6L185.3,221.3L184.0,221.7L180.9,224.6L182.9,224.6L180.4,225.6L175.9,223.4L173.7,222.8L179.9,228.6L181.5,228.7L179.4,234.6L180.8,236.0L185.6,235.4L190.1,233.6L188.4,236.0L191.3,236.9L188.5,242.8L186.9,244.3L190.3,242.7L192.0,246.1L193.4,247.2L201.7,246.0L203.5,242.7L206.2,240.4L207.5,236.1L208.7,234.7L210.6,234.4L208.3,238.2L209.1,239.4L214.5,237.8L220.3,235.2L223.0,234.7L225.6,235.3L225.3,233.6L231.8,231.9L238.2,228.8L239.3,226.1L245.4,222.8L241.0,226.2L243.2,226.8L249.6,223.7L251.9,223.7L258.9,224.6L258.7,225.4L251.6,224.8L242.6,227.8L242.4,228.7L251.9,228.7L251.8,229.5L247.8,230.4L253.9,233.9L257.1,233.7L258.5,234.4L250.9,234.1L248.9,232.0L244.8,231.6L245.5,229.5L241.7,229.3L237.8,230.9L234.6,231.7L228.8,235.3L228.6,236.0L231.8,236.7L232.1,237.8L226.6,238.1L215.7,241.1L213.2,242.3L209.9,248.3L207.9,248.1L204.7,254.2L207.3,256.9L213.3,255.4L221.4,255.9L215.3,257.3L213.5,258.4L211.6,257.7L209.5,258.4L206.0,260.8L202.0,262.8L197.9,264.1L197.7,265.0L205.7,266.8L210.0,267.2L215.2,264.5L219.7,262.7L223.9,262.0L227.1,259.1L234.7,255.5L242.7,254.5L259.3,255.4L255.9,256.7L257.9,258.1L262.3,256.7L261.1,257.7L267.0,256.6L275.5,256.4L284.7,255.3L286.7,257.5L286.2,259.1L293.5,254.3L308.4,247.1L320.2,239.9L322.6,239.0L337.9,235.9L368.5,225.5L394.2,218.9L397.0,217.5L399.6,215.1L400.5,209.4L402.3,206.5L408.0,201.8L419.5,195.4L421.2,193.5L421.4,191.2L420.2,190.5L393.3,189.8L371.6,189.5L366.1,188.1L335.9,193.1L334.5,193.0L314.2,187.3L313.6,186.0L307.5,186.0L302.1,184.5L295.5,181.0L290.5,174.9L288.6,170.4L289.6,166.5L292.8,163.3L293.8,160.6L291.6,154.9L287.4,151.8L284.9,150.6L282.1,148.0L275.2,138.3L271.8,138.2L263.8,139.5L260.9,137.0L262.4,134.4L265.8,131.1L266.7,129.3L267.8,124.4L267.0,122.8L260.4,127.8L258.7,128.6L256.4,129.3Z " data-id="IS.VL" data-name="Vesturland" id="IS.VL"/>
utf-8</g>
</svg>
