<?xml version="1.0" ?>
<!DOCTYPE svg
  PUBLIC '-//W3C//DTD SVG 1.1//EN'
  'http://www.w3.org/Graphics/SVG/1.1/DTD/svg11.dtd'>
<svg enable_background="new 0 0 1000 1045" height="1045px" pretty_print="True" style="stroke-linejoin: round; stroke:#000; fill: none;" version="1.1" viewBox="0 0 1000 1045" width="1000px" xmlns="http://www.w3.org/2000/svg" xmlns:xlink="http://www.w3.org/1999/xlink">
utf-8<defs>
utf-8utf-8<style type="text/css">
<![CDATA[path { fill-rule: evenodd; }]]>utf-8utf-8</style>
utf-8</defs>
utf-8<metadata>
utf-8utf-8<views>
utf-8utf-8utf-8<view h="1045.25675987" padding="0" w="1000">
utf-8utf-8utf-8utf-8<proj flip="auto" id="robinson" lon0="10.9462048711"/>
utf-8utf-8utf-8utf-8<bbox h="172.35" w="165.04" x="87.6" y="-787.46"/>
utf-8utf-8utf-8</view>
utf-8utf-8</views>
utf-8</metadata>
utf-8<g class="" id="provinces">
utf-8utf-8<path d="M369.4,213.1L361.0,210.1L354.4,211.0L352.5,212.7L345.7,214.9L345.6,214.9L344.9,216.3L344.9,219.0L342.3,220.3L340.3,225.4L342.4,227.1L340.4,233.3L341.6,238.8L338.6,243.0L338.2,249.8L334.9,255.3L330.7,258.4L329.1,262.3L327.7,263.4L324.9,268.6L320.0,270.0L319.2,271.3L318.9,275.9L316.1,282.1L315.6,282.6L316.0,283.7L316.8,286.3L319.4,288.7L325.0,292.5L327.3,292.3L327.8,291.8L334.9,288.7L337.1,289.5L342.7,293.1L343.9,293.5L343.3,291.8L344.1,286.6L346.5,282.0L351.7,283.6L353.2,283.5L355.5,280.5L355.6,279.1L353.9,276.4L354.7,275.0L359.5,274.5L360.5,265.5L360.1,263.2L357.2,261.8L357.6,259.3L359.9,258.7L361.6,256.7L361.8,253.7L366.1,252.2L367.4,248.9L366.9,245.6L365.0,242.9L362.3,241.1L364.4,235.2L365.7,228.0L367.3,226.9L376.4,225.7L378.8,225.8L379.7,224.1L384.6,221.9L381.9,219.3L374.6,216.4L373.5,215.7L374.6,214.0L375.1,211.6L369.4,213.1Z " data-id="IT.MO" data-name="Modena" id="IT.MO"/>
utf-8utf-8<path d="M344.7,214.4L343.3,213.6L335.5,212.0L334.5,208.7L333.4,207.9L328.5,207.7L325.0,212.4L322.5,214.0L319.7,214.7L314.7,214.4L314.5,214.3L314.0,215.1L312.1,216.2L311.9,220.9L309.7,226.5L309.6,229.0L310.3,235.0L309.1,238.6L308.1,248.8L305.3,251.6L301.5,256.8L297.7,260.4L294.4,264.8L288.9,268.5L287.9,271.1L290.7,272.6L294.5,275.5L297.4,278.2L297.8,278.1L298.6,277.9L305.6,277.7L311.1,281.9L315.6,282.6L316.1,282.1L318.9,275.9L319.2,271.3L320.0,270.0L324.9,268.6L327.7,263.4L329.1,262.3L330.7,258.4L334.9,255.3L338.2,249.8L338.6,243.0L341.6,238.8L340.4,233.3L342.4,227.1L340.3,225.4L342.3,220.3L344.9,219.0L344.9,216.3L345.6,214.9L344.7,214.4Z " data-id="IT.RE" data-name="Reggio Emilia" id="IT.RE"/>
utf-8utf-8<path d="M312.6,213.9L309.8,212.6L307.1,207.9L305.9,207.3L302.0,208.0L300.1,207.3L291.6,202.6L288.3,201.8L282.1,202.9L279.4,202.7L278.3,203.6L276.8,207.2L274.0,210.3L275.0,219.0L273.7,220.7L268.9,222.8L266.3,225.0L264.4,229.5L260.1,231.1L256.4,235.3L256.6,237.1L255.5,238.2L246.3,239.1L243.8,242.9L236.3,250.0L235.0,250.5L235.4,252.7L234.8,255.7L232.1,258.6L231.3,264.0L232.5,264.3L234.4,264.2L235.3,263.9L236.7,262.7L244.2,262.7L248.5,264.8L250.5,268.4L251.9,269.5L251.6,269.0L256.1,266.8L258.6,262.9L260.5,260.9L265.5,257.2L271.1,258.5L276.3,261.4L275.4,264.1L281.0,268.4L282.8,270.1L287.9,271.1L287.9,271.1L288.9,268.5L294.4,264.8L297.7,260.4L301.5,256.8L305.3,251.6L308.1,248.8L309.1,238.6L310.3,235.0L309.6,229.0L309.7,226.5L311.9,220.9L312.1,216.2L314.0,215.1L314.5,214.3L312.6,213.9Z " data-id="IT.PR" data-name="Parma" id="IT.PR"/>
utf-8utf-8<path d="M277.2,199.9L275.0,195.5L272.1,193.7L266.5,195.8L267.0,193.6L265.4,192.8L263.8,193.2L264.0,194.8L265.3,196.6L260.1,199.7L258.3,198.1L253.4,195.8L253.5,198.3L251.2,199.3L247.9,199.0L244.0,196.7L243.4,193.7L240.4,195.3L239.0,195.1L237.2,193.1L236.7,193.3L236.7,193.3L236.9,196.8L235.8,197.7L234.1,196.4L227.1,196.4L224.0,202.0L218.2,214.9L218.1,216.0L220.1,218.3L221.6,218.9L222.8,223.5L219.1,230.1L220.2,232.9L220.4,235.6L219.1,236.5L215.8,235.7L214.6,234.5L214.3,237.6L213.6,238.0L211.0,237.7L211.5,244.4L212.4,244.0L217.9,244.7L224.3,247.5L230.8,248.4L234.9,250.2L235.0,250.5L236.3,250.0L243.8,242.9L246.3,239.1L255.5,238.2L256.6,237.1L256.4,235.3L260.1,231.1L264.4,229.5L266.3,225.0L268.9,222.8L273.7,220.7L275.0,219.0L274.0,210.3L276.8,207.2L278.3,203.6L279.4,202.7L277.2,199.9Z " data-id="IT.PC" data-name="Piacenza" id="IT.PC"/>
utf-8utf-8<path d="M376.4,225.7L367.3,226.9L365.7,228.0L364.4,235.2L362.3,241.1L365.0,242.9L366.9,245.6L367.4,248.9L366.1,252.2L361.8,253.7L361.6,256.7L359.9,258.7L357.6,259.3L357.2,261.8L360.1,263.2L360.5,265.5L359.5,274.5L354.7,275.0L353.9,276.4L355.6,279.1L355.5,280.5L353.2,283.5L351.7,283.6L346.5,282.0L344.1,286.6L343.3,291.8L343.9,293.5L343.9,293.5L352.9,298.0L355.8,294.6L357.9,290.9L360.0,292.1L359.0,293.2L362.3,295.6L362.8,295.6L374.8,294.3L375.0,294.4L375.0,294.4L376.2,294.6L378.8,292.6L374.5,289.9L375.0,289.0L382.0,287.9L385.9,284.2L387.4,284.2L389.4,282.3L393.1,282.3L397.6,287.5L401.1,288.7L401.1,288.7L402.1,284.9L404.5,282.1L408.3,280.7L412.9,273.4L415.6,274.5L418.8,273.3L423.5,265.8L423.4,264.1L421.0,262.4L420.7,259.5L417.1,256.1L416.7,254.5L419.8,252.6L420.1,250.2L417.8,248.5L420.3,243.7L418.1,241.1L416.4,240.7L412.0,242.8L410.3,242.2L404.6,236.3L393.1,230.8L388.6,229.7L385.5,228.3L383.9,229.0L378.8,234.7L376.4,234.7L376.7,227.9L378.8,225.8L376.4,225.7Z " data-id="IT.BO" data-name="Bologna" id="IT.BO"/>
utf-8utf-8<path d="M388.3,211.3L384.2,210.5L378.7,210.3L376.6,212.1L375.1,211.6L374.6,214.0L373.5,215.7L374.6,216.4L381.9,219.3L384.6,221.9L379.7,224.1L378.8,225.8L376.7,227.9L376.4,234.7L378.8,234.7L383.9,229.0L385.5,228.3L388.6,229.7L393.1,230.8L404.6,236.3L410.3,242.2L412.0,242.8L416.4,240.7L418.1,241.1L420.3,243.7L417.8,248.5L420.1,250.2L423.1,249.6L425.2,250.1L427.2,247.7L437.3,246.1L438.9,249.3L442.5,250.5L451.3,249.3L454.9,247.3L458.4,242.8L458.0,242.2L456.8,239.0L456.0,234.8L456.4,230.9L458.1,224.1L456.9,223.5L458.9,221.8L461.3,222.8L465.9,226.8L467.4,226.7L463.7,224.3L462.2,221.1L458.9,219.7L457.5,212.7L452.9,213.7L446.8,212.9L444.1,210.4L441.7,209.3L429.1,208.5L424.1,207.8L418.4,208.6L404.7,216.7L403.4,216.4L399.0,213.4L393.7,212.0L389.2,212.5L388.3,211.3Z " data-id="IT.FE" data-name="Ferrara" id="IT.FE"/>
utf-8utf-8<path d="M468.6,280.0L463.9,269.2L463.4,266.6L460.3,256.8L458.8,243.7L458.4,242.8L454.9,247.3L451.3,249.3L442.5,250.5L438.9,249.3L437.3,246.1L427.2,247.7L425.2,250.1L423.1,249.6L420.1,250.2L419.8,252.6L416.7,254.5L417.1,256.1L420.7,259.5L421.0,262.4L423.4,264.1L423.5,265.8L418.8,273.3L415.6,274.5L412.9,273.4L408.3,280.7L404.5,282.1L402.1,284.9L401.1,288.7L403.1,288.7L407.6,290.2L406.6,291.1L407.5,292.5L411.6,293.0L413.6,292.1L416.9,291.7L416.9,291.7L417.1,289.3L420.1,285.3L422.1,286.2L425.0,285.5L429.0,287.3L431.8,284.6L434.0,281.6L436.7,279.6L440.9,272.2L443.7,275.0L444.7,275.0L448.3,278.6L456.7,283.5L460.2,281.9L462.1,282.2L467.2,285.8L470.1,282.2L468.6,280.0Z " data-id="IT.RA" data-name="Ravenna" id="IT.RA"/>
utf-8utf-8<path d="M416.9,291.7L417.1,291.7L419.1,292.7L415.4,300.9L412.0,303.4L412.9,306.5L414.8,308.0L417.4,315.9L418.0,316.5L418.4,316.8L425.8,321.6L431.2,322.5L439.0,326.9L448.1,328.7L449.9,328.2L450.6,324.8L452.8,321.0L453.7,311.9L460.5,312.3L466.9,308.7L472.0,301.7L469.2,299.4L474.0,296.5L475.6,292.3L474.0,290.2L476.3,288.3L476.3,288.3L472.8,285.5L470.5,282.8L470.1,282.2L467.2,285.8L462.1,282.2L460.2,281.9L456.7,283.5L448.3,278.6L444.7,275.0L443.7,275.0L440.9,272.2L436.7,279.6L434.0,281.6L431.8,284.6L429.0,287.3L425.0,285.5L422.1,286.2L420.1,285.3L417.1,289.3L416.9,291.7Z " data-id="IT.FC" data-name="Forlì-Cesena" id="IT.FC"/>
utf-8utf-8<path d="M501.3,307.3L493.6,303.8L491.1,301.7L486.2,296.2L483.9,295.5L478.1,291.0L476.3,288.3L474.0,290.2L475.6,292.3L474.0,296.5L469.2,299.4L472.0,301.7L466.9,308.7L460.5,312.3L453.7,311.9L452.8,321.0L450.6,324.8L449.9,328.2L450.9,327.9L453.0,327.9L455.5,329.5L464.4,327.2L464.7,327.3L464.9,326.6L464.5,324.7L468.3,321.5L470.1,316.9L474.9,314.9L473.1,314.1L471.9,312.0L472.5,309.7L479.3,306.3L479.9,307.3L479.7,311.6L479.7,311.6L485.1,314.6L486.2,316.9L488.0,314.8L489.1,315.7L496.5,319.3L500.7,314.6L501.4,307.3L501.3,307.3Z M457.6,326.1L455.2,323.8L456.2,322.4L459.6,322.8L457.6,326.1Z " data-id="IT.RN" data-name="Rimini" id="IT.RN"/>
utf-8utf-8<path d="M211.2,245.8L208.9,247.3L206.1,247.4L203.8,246.0L203.1,244.3L191.5,237.6L187.9,238.2L187.6,239.5L185.1,242.7L187.9,248.7L181.9,249.6L180.0,252.7L176.9,255.4L176.7,253.3L165.6,246.9L162.9,249.8L163.3,250.7L161.8,253.1L160.4,254.0L163.4,256.4L167.5,256.7L169.0,259.9L168.3,260.8L162.7,263.0L163.1,264.5L166.3,267.2L168.2,265.9L174.7,262.6L176.7,262.2L182.0,262.6L185.4,264.4L189.1,264.5L196.2,266.6L204.4,267.9L206.7,269.0L208.3,271.3L213.4,274.7L213.3,273.1L214.8,269.9L217.5,271.6L226.2,275.7L226.8,278.0L230.7,279.4L232.0,281.1L236.3,282.0L237.1,282.9L238.1,283.5L240.8,279.4L242.8,279.8L241.9,276.8L237.0,272.5L238.0,269.8L234.3,265.7L234.4,264.2L232.5,264.3L231.3,264.0L232.1,258.6L234.8,255.7L235.4,252.7L235.0,250.5L234.9,250.2L230.8,248.4L224.3,247.5L217.9,244.7L212.4,244.0L211.5,244.4L211.2,245.8Z " data-id="IT.GE" data-name="Genova" id="IT.GE"/>
utf-8utf-8<path d="M135.9,252.9L135.0,252.2L133.9,252.4L131.9,263.2L128.2,266.0L126.5,270.3L123.0,273.3L121.6,279.5L121.9,283.5L122.7,284.5L120.9,288.6L120.0,289.1L116.0,288.9L116.7,292.7L116.6,293.0L119.3,296.3L119.8,298.0L116.2,302.5L116.9,304.6L119.4,305.9L124.5,306.7L127.7,310.5L128.8,309.3L129.3,306.3L130.6,304.0L134.2,300.2L135.4,294.5L139.3,290.1L141.6,288.9L148.1,286.7L149.3,282.4L151.1,281.0L152.2,278.7L151.7,276.8L153.4,274.8L163.4,269.0L166.3,267.2L163.1,264.5L162.7,263.0L168.3,260.8L169.0,259.9L167.5,256.7L163.4,256.4L160.4,254.0L153.3,253.8L146.4,254.9L145.0,256.9L140.2,255.9L136.5,253.6L136.3,253.4L135.9,252.9Z " data-id="IT.SV" data-name="Savona" id="IT.SV"/>
utf-8utf-8<path d="M116.5,293.2L100.9,292.0L96.8,290.5L94.6,293.4L95.3,294.5L91.4,295.7L91.7,296.3L91.6,298.0L88.7,300.7L85.4,307.0L81.3,310.1L79.7,312.4L76.4,315.8L75.2,317.8L75.7,320.3L77.4,325.0L93.0,325.1L96.4,324.4L100.3,322.1L114.2,319.0L119.9,315.7L122.8,314.8L123.8,312.9L126.5,311.7L127.7,310.5L124.5,306.7L119.4,305.9L116.9,304.6L116.2,302.5L119.8,298.0L119.3,296.3L116.6,293.0L116.5,293.2Z " data-id="IT.IM" data-name="Imperia" id="IT.IM"/>
utf-8utf-8<path d="M250.5,268.4L248.5,264.8L244.2,262.7L236.7,262.7L235.3,263.9L234.4,264.2L234.3,265.7L238.0,269.8L237.0,272.5L241.9,276.8L242.8,279.8L240.8,279.4L238.1,283.5L241.8,285.0L247.3,290.1L251.5,290.8L259.8,296.8L263.7,298.4L264.9,299.5L263.6,295.5L265.5,294.0L268.2,296.0L275.4,300.2L279.5,299.5L280.6,299.8L282.4,294.9L279.4,293.2L275.2,288.9L269.5,288.1L269.7,285.0L266.5,286.4L265.6,280.2L264.2,278.9L257.1,274.7L254.1,272.3L251.9,269.5L250.5,268.4Z " data-id="IT.SP" data-name="La Spezia" id="IT.SP"/>
utf-8utf-8<path d="M164.1,789.5L163.4,795.2L164.8,798.6L168.0,803.5L169.8,805.6L171.7,802.1L174.5,794.4L172.8,794.9L171.2,791.1L166.3,790.8L164.1,789.5Z M159.6,790.9L160.1,789.3L159.3,781.8L154.4,783.1L153.1,783.9L155.4,790.6L156.6,791.3L159.6,790.9Z M166.6,757.1L166.1,760.3L164.7,762.0L165.1,764.9L168.1,767.0L168.0,768.5L169.4,770.8L169.0,772.7L164.8,778.9L170.2,784.6L170.5,785.9L174.4,793.4L176.2,792.3L177.3,793.0L177.6,795.3L179.6,796.3L180.9,795.8L182.1,800.2L182.9,805.6L184.8,805.2L185.4,806.2L188.3,801.7L189.1,797.9L193.1,798.5L196.2,796.5L202.0,796.8L204.3,794.9L204.8,792.6L201.9,785.2L197.4,782.5L196.6,780.5L195.4,774.3L193.1,771.7L191.6,766.8L191.9,764.1L191.3,763.3L187.8,763.0L179.0,755.2L174.5,752.4L170.7,754.1L168.6,753.8L166.1,756.1L166.6,757.1Z " data-id="IT.CI" data-name="Carbonia-Iglesias" id="IT.CI"/>
utf-8utf-8<path d="M213.2,722.5L210.2,721.6L209.2,722.3L206.2,729.4L202.3,733.6L194.8,737.2L191.3,736.5L188.6,737.0L184.4,734.4L181.2,730.9L177.7,730.5L176.9,730.7L173.6,728.7L170.9,724.8L168.9,724.5L170.4,742.0L171.1,742.8L167.9,749.7L165.7,752.5L165.4,754.4L166.1,756.1L168.6,753.8L170.7,754.1L174.5,752.4L179.0,755.2L187.8,763.0L191.3,763.3L195.4,761.1L198.1,760.4L210.4,760.8L214.3,758.5L213.3,755.0L216.7,751.9L216.5,748.6L215.4,746.4L216.4,741.6L218.8,736.5L220.4,725.3L219.7,725.0L215.1,724.2L213.2,722.5Z " data-id="IT.VS" data-name="Medio Campidano" id="IT.VS"/>
utf-8utf-8<path d="M180.9,667.3L177.1,662.4L173.6,658.6L171.9,657.5L167.2,660.0L162.2,658.5L161.7,662.6L162.0,664.6L163.8,666.0L164.4,665.3L168.4,668.4L169.6,670.6L169.7,673.6L168.5,678.3L171.3,691.0L170.6,692.5L162.9,695.8L164.9,697.8L163.9,702.3L164.7,706.1L164.1,708.0L166.3,710.9L167.8,714.3L169.0,710.8L167.6,710.2L169.9,708.7L172.5,708.8L174.9,710.2L177.5,713.7L177.7,714.9L176.7,721.3L177.1,721.9L174.1,726.4L174.8,728.9L179.1,730.2L177.7,730.5L181.2,730.9L184.4,734.4L188.6,737.0L191.3,736.5L194.8,737.2L202.3,733.6L206.2,729.4L209.2,722.3L210.2,721.6L213.2,722.5L215.1,724.2L217.2,721.1L219.8,718.5L222.9,717.0L227.4,717.1L227.8,717.2L227.5,713.8L225.4,712.5L221.1,711.3L217.1,709.1L214.5,708.3L213.2,706.9L215.0,701.9L214.6,701.1L210.5,700.2L210.2,697.1L212.5,694.7L216.0,696.2L217.3,693.0L215.2,688.3L214.9,685.2L213.3,679.9L210.2,678.3L194.0,680.1L190.4,678.8L187.5,678.8L185.1,674.3L182.2,673.1L180.7,669.1L181.4,667.9L180.9,667.3Z " data-id="IT.OR" data-name="Oristrano" id="IT.OR"/>
utf-8utf-8<path d="M162.2,658.5L167.2,660.0L171.9,657.5L173.6,658.6L177.1,662.4L180.9,667.3L181.4,667.9L181.8,668.1L182.7,668.9L185.6,668.8L188.8,665.7L197.5,662.3L197.2,659.2L198.0,658.5L200.8,660.5L202.7,660.7L207.7,662.5L212.8,668.1L216.2,667.6L217.6,666.5L227.6,662.7L229.0,659.8L232.8,653.4L234.8,652.1L233.3,649.2L229.5,649.5L227.5,647.4L227.5,646.1L227.2,645.1L227.8,639.9L227.5,637.9L226.0,634.3L224.6,633.5L221.2,635.1L212.9,632.0L211.8,630.1L212.8,628.6L213.1,621.5L210.2,615.6L208.5,614.5L202.8,614.1L202.1,612.1L208.9,609.5L209.2,607.9L207.5,604.6L205.0,604.1L201.6,606.3L194.8,605.8L191.1,608.5L186.5,607.8L181.0,610.2L177.6,614.5L171.3,617.1L153.9,614.7L151.2,613.3L147.4,608.8L147.5,604.4L144.6,602.3L142.8,607.0L145.4,608.4L146.0,609.9L145.6,613.3L139.8,626.9L144.5,631.7L144.3,634.1L140.8,637.2L142.7,643.4L145.1,638.0L147.0,638.5L145.5,642.0L147.2,642.7L151.3,640.4L153.3,640.2L155.1,642.0L156.9,648.7L159.8,650.6L161.0,652.9L162.4,657.4L162.2,658.5Z M154.8,589.4L154.2,587.3L150.3,592.9L149.1,593.5L145.1,600.3L148.2,600.5L148.4,595.5L150.3,594.2L155.0,593.5L155.6,590.2L154.8,589.4Z " data-id="IT.SS" data-name="Sassari" id="IT.SS"/>
utf-8utf-8<path d="M271.5,613.8L271.9,612.9L269.3,612.5L271.5,613.8Z M271.3,608.6L270.7,607.4L266.2,610.6L267.4,611.0L271.3,608.6Z M259.5,592.8L259.6,592.0L259.1,592.1L259.5,592.8Z M243.6,580.0L242.8,579.3L242.8,581.5L243.6,580.0Z M248.0,581.0L248.6,578.3L246.9,575.8L245.2,581.4L248.0,582.8L248.0,581.0Z M220.7,575.4L221.2,577.0L221.7,576.7L220.7,575.4Z M238.0,576.8L238.1,575.3L236.4,575.0L238.0,576.8Z M245.0,578.3L243.7,574.0L241.7,574.4L239.8,577.8L245.0,578.3Z M194.8,605.8L201.6,606.3L205.0,604.1L207.5,604.6L209.2,607.9L208.9,609.5L202.1,612.1L202.8,614.1L208.5,614.5L210.2,615.6L213.1,621.5L212.8,628.6L211.8,630.1L212.9,632.0L221.2,635.1L224.6,633.5L226.0,634.3L227.5,637.9L227.8,639.9L227.2,645.1L227.5,646.1L238.1,644.7L243.4,641.0L246.4,634.4L247.4,633.8L254.3,634.4L258.6,630.8L260.8,629.9L264.7,630.8L267.4,633.1L273.1,633.7L273.0,633.0L270.0,627.1L269.0,623.8L266.5,620.9L266.8,616.8L270.3,615.3L267.4,614.2L266.8,613.3L264.7,613.4L264.5,612.2L261.0,609.9L263.2,607.8L261.6,607.5L257.6,609.2L254.7,607.8L251.8,607.2L252.4,606.4L256.9,605.0L258.4,600.3L259.7,599.6L263.7,600.8L264.5,599.6L260.6,597.9L258.3,597.8L255.5,598.9L254.6,596.2L253.1,596.8L253.8,598.3L252.1,598.3L252.8,596.7L254.0,590.7L255.5,591.1L256.2,588.0L250.1,585.7L246.1,590.7L245.9,586.7L243.0,583.9L244.1,581.9L241.3,581.9L238.2,579.3L236.8,578.9L236.7,581.2L235.0,579.9L232.7,580.5L231.3,579.8L231.2,576.4L228.0,573.8L223.2,575.8L222.6,577.5L222.8,581.6L221.1,584.7L220.6,583.9L210.1,587.8L207.8,591.7L204.9,593.8L202.8,596.6L200.2,597.5L199.8,599.1L197.1,603.7L195.7,605.1L194.8,605.8Z M237.8,572.5L236.5,571.5L236.2,572.0L237.8,572.5Z M240.0,570.5L238.3,570.4L238.9,571.3L240.0,570.5Z M237.9,570.2L236.4,569.3L236.0,569.6L237.9,570.2Z " data-id="IT.OT" data-name="Olbia-Tempio" id="IT.OT"/>
utf-8utf-8<path d="M227.5,646.1L227.5,647.4L229.5,649.5L233.3,649.2L234.8,652.1L232.8,653.4L229.0,659.8L227.6,662.7L217.6,666.5L216.2,667.6L212.8,668.1L207.7,662.5L202.7,660.7L200.8,660.5L198.0,658.5L197.2,659.2L197.5,662.3L188.8,665.7L185.6,668.8L182.7,668.9L181.8,668.1L181.4,667.9L180.7,669.1L182.2,673.1L185.1,674.3L187.5,678.8L190.4,678.8L194.0,680.1L210.2,678.3L213.3,679.9L214.9,685.2L215.2,688.3L217.3,693.0L216.0,696.2L212.5,694.7L210.2,697.1L210.5,700.2L214.6,701.1L215.0,701.9L213.2,706.9L214.5,708.3L217.1,709.1L221.1,711.3L225.4,712.5L227.5,713.8L227.8,717.2L231.2,717.5L231.0,717.3L230.6,710.9L231.8,709.1L237.4,708.3L237.9,707.5L237.6,704.2L240.0,698.8L238.8,698.1L238.6,695.7L241.6,693.2L248.8,689.6L256.5,678.0L259.4,680.2L260.8,680.1L263.2,678.0L264.9,677.4L264.6,675.1L265.2,671.6L269.1,667.4L270.4,664.5L274.3,662.1L276.5,657.1L278.2,654.2L279.2,649.5L280.1,647.8L279.5,646.1L277.1,644.1L276.1,641.6L275.0,641.3L273.7,639.2L273.1,633.7L267.4,633.1L264.7,630.8L260.8,629.9L258.6,630.8L254.3,634.4L247.4,633.8L246.4,634.4L243.4,641.0L238.1,644.7L227.5,646.1Z " data-id="IT.NU" data-name="Nuoro" id="IT.NU"/>
utf-8utf-8<path d="M269.6,743.8L269.8,741.0L269.1,735.1L271.0,728.5L270.1,723.3L270.2,720.8L271.5,712.9L271.3,709.4L273.3,707.6L271.8,706.7L270.9,703.9L271.3,700.7L274.0,693.1L274.1,691.5L267.5,685.4L265.1,679.3L264.9,677.4L263.2,678.0L260.8,680.1L259.4,680.2L256.5,678.0L248.8,689.6L241.6,693.2L238.6,695.7L238.8,698.1L240.0,698.8L237.6,704.2L237.9,707.5L237.4,708.3L237.1,709.3L237.5,716.3L240.2,720.4L244.8,724.9L246.1,725.4L246.3,727.8L244.9,728.6L244.8,732.1L246.4,731.3L248.4,732.4L250.0,737.2L254.5,737.1L256.2,738.2L261.2,742.9L264.9,743.2L269.2,745.6L269.6,743.8Z " data-id="IT.OG" data-name="Ogliastra" id="IT.OG"/>
utf-8utf-8<path d="M237.4,708.3L231.8,709.1L230.6,710.9L231.0,717.3L231.2,717.5L227.8,717.2L227.4,717.1L222.9,717.0L219.8,718.5L217.2,721.1L215.1,724.2L219.7,725.0L220.4,725.3L218.8,736.5L216.4,741.6L215.4,746.4L216.5,748.6L216.7,751.9L213.3,755.0L214.3,758.5L210.4,760.8L198.1,760.4L195.4,761.1L191.3,763.3L191.9,764.1L191.6,766.8L193.1,771.7L195.4,774.3L196.6,780.5L197.4,782.5L201.9,785.2L204.8,792.6L204.3,794.9L202.0,796.8L196.2,796.5L193.1,798.5L189.1,797.9L188.3,801.7L185.4,806.2L185.9,806.9L185.9,809.4L184.8,811.9L188.4,812.8L187.7,814.7L189.4,814.7L189.1,812.7L190.4,810.7L194.3,808.5L196.2,808.7L201.9,813.3L201.8,811.2L205.9,814.0L207.4,812.2L209.2,811.6L217.4,803.3L219.2,802.0L220.0,798.5L221.2,796.3L219.4,792.8L218.6,786.6L223.4,779.9L223.0,778.1L219.0,777.5L218.8,775.4L219.9,774.8L222.0,776.8L222.8,776.2L228.3,781.7L230.7,782.5L233.2,779.0L234.8,778.3L240.5,779.7L248.8,784.3L251.0,786.6L258.3,787.9L263.4,787.3L264.9,783.3L263.8,780.6L263.8,777.3L264.9,774.4L266.9,772.1L269.2,770.6L267.2,769.3L266.3,765.3L267.1,760.8L268.9,755.4L269.3,752.2L267.9,750.4L269.2,745.6L264.9,743.2L261.2,742.9L256.2,738.2L254.5,737.1L250.0,737.2L248.4,732.4L246.4,731.3L244.8,732.1L244.9,728.6L246.3,727.8L246.1,725.4L244.8,724.9L240.2,720.4L237.5,716.3L237.1,709.3L237.4,708.3Z " data-id="IT.CA" data-name="Cagliari" id="IT.CA"/>
utf-8utf-8<path d="M363.0,468.4L360.7,464.0L357.5,462.8L356.5,464.9L361.8,469.5L363.0,468.4Z M356.6,386.7L350.9,387.7L346.6,387.3L345.7,388.8L342.5,388.4L341.8,390.8L341.0,392.0L341.4,393.1L342.9,395.7L345.2,395.7L347.0,397.2L347.5,401.2L347.1,402.9L344.7,401.2L343.0,402.3L343.2,404.8L340.9,408.4L344.7,410.0L346.1,414.7L346.3,416.9L343.7,421.8L356.9,425.8L361.3,427.9L365.2,431.1L366.7,435.2L372.8,438.7L373.1,440.6L377.3,446.0L379.7,445.4L382.2,449.7L382.0,456.0L380.8,457.6L375.5,457.3L374.6,458.7L376.4,462.4L382.8,464.9L384.7,459.7L388.6,459.5L394.8,461.5L399.9,461.5L402.0,462.9L404.6,464.1L408.1,458.2L415.5,457.4L416.5,456.9L416.9,453.5L413.6,450.6L414.8,447.1L414.7,445.2L421.4,444.2L423.2,442.1L425.9,440.8L428.5,437.3L429.8,437.1L431.6,427.9L428.7,424.2L426.4,422.4L420.1,422.7L417.3,422.3L415.6,414.3L415.3,409.6L414.6,407.8L411.5,405.9L404.8,405.6L401.4,407.2L397.0,405.9L393.8,402.7L393.9,397.4L393.5,394.5L381.7,393.6L377.0,394.8L374.3,393.7L370.7,394.0L368.5,388.9L368.5,385.3L366.8,383.8L363.8,385.1L358.1,386.7L356.6,386.7Z " data-id="IT.GR" data-name="Grosseto" id="IT.GR"/>
utf-8utf-8<path d="M312.1,467.4L310.4,468.6L311.9,469.0L312.1,467.4Z M293.0,444.2L291.5,440.5L289.3,443.7L292.2,444.6L293.0,444.2Z M319.2,420.7L320.1,417.8L318.2,415.3L315.8,416.6L315.1,419.1L313.0,421.5L310.4,421.1L310.7,419.7L305.8,421.8L303.9,422.0L298.7,420.4L293.3,422.1L292.5,423.8L293.1,426.4L296.5,428.4L303.2,428.6L304.4,426.5L306.1,427.7L309.2,426.2L310.0,427.9L310.8,425.7L314.1,427.2L315.6,429.9L318.5,431.2L319.6,429.9L317.6,426.5L316.0,425.8L319.3,423.5L319.2,420.7Z M268.8,401.8L271.3,398.3L268.8,395.3L267.3,396.1L265.6,399.9L267.1,401.9L268.8,401.8Z M304.5,346.9L306.7,354.4L307.5,355.9L316.9,364.6L324.0,376.5L327.0,388.2L326.5,389.5L326.7,394.9L325.2,400.3L322.1,403.6L324.2,408.5L325.8,410.0L327.3,407.6L330.9,406.6L334.9,406.7L338.9,407.6L340.9,408.4L343.2,404.8L343.0,402.3L344.7,401.2L347.1,402.9L347.5,401.2L347.0,397.2L345.2,395.7L342.9,395.7L341.4,393.1L341.0,392.0L340.4,390.3L335.0,387.1L334.2,384.5L337.7,383.3L338.0,381.7L336.5,379.3L338.8,372.9L329.4,374.2L325.7,371.4L324.6,366.5L322.2,365.8L321.3,357.3L319.1,351.3L318.9,348.7L320.7,343.0L320.0,340.7L318.2,340.3L304.3,345.9L304.5,346.9Z " data-id="IT.LI" data-name="Livorno" id="IT.LI"/>
utf-8utf-8<path d="M336.2,324.6L332.4,324.0L331.2,326.7L328.6,328.4L318.5,328.6L315.7,326.8L314.2,322.1L309.5,322.8L304.1,322.0L300.6,322.6L300.8,323.3L304.3,345.9L318.2,340.3L320.0,340.7L320.7,343.0L318.9,348.7L319.1,351.3L321.3,357.3L322.2,365.8L324.6,366.5L325.7,371.4L329.4,374.2L338.8,372.9L336.5,379.3L338.0,381.7L337.7,383.3L334.2,384.5L335.0,387.1L340.4,390.3L341.0,392.0L341.8,390.8L342.5,388.4L345.7,388.8L346.6,387.3L350.9,387.7L356.6,386.7L356.6,385.6L358.1,379.1L361.8,379.6L362.7,376.2L359.9,373.4L359.2,371.5L362.6,368.6L363.0,365.1L362.1,363.1L358.4,358.3L352.9,357.6L350.8,356.4L349.3,353.7L346.8,342.5L347.5,341.6L352.4,341.1L354.0,338.8L353.6,336.0L351.9,333.2L350.0,331.0L345.2,331.6L338.6,327.8L337.1,325.6L336.2,324.6Z " data-id="IT.PI" data-name="Pisa" id="IT.PI"/>
utf-8utf-8<path d="M287.9,271.1L282.8,270.1L281.0,268.4L275.4,264.1L276.3,261.4L271.1,258.5L265.5,257.2L260.5,260.9L258.6,262.9L256.1,266.8L251.6,269.0L251.9,269.5L254.1,272.3L257.1,274.7L264.2,278.9L265.6,280.2L266.5,286.4L269.7,285.0L269.5,288.1L275.2,288.9L279.4,293.2L282.4,294.9L280.6,299.8L281.2,299.9L287.0,303.0L289.7,306.7L290.3,307.1L293.2,304.6L295.8,300.7L296.9,296.4L295.3,293.0L293.2,292.0L293.8,288.1L292.7,285.6L293.1,283.9L296.2,282.2L297.7,279.1L297.8,278.1L297.4,278.2L294.5,275.5L290.7,272.6L287.9,271.1L287.9,271.1Z " data-id="IT.MS" data-name="Massa-Carrara" id="IT.MS"/>
utf-8utf-8<path d="M311.1,281.9L305.6,277.7L298.6,277.9L297.8,278.1L297.7,279.1L296.2,282.2L293.1,283.9L292.7,285.6L293.8,288.1L293.2,292.0L295.3,293.0L296.9,296.4L295.8,300.7L293.2,304.6L290.3,307.1L293.4,309.0L295.9,312.4L299.7,319.7L300.6,322.6L304.1,322.0L309.5,322.8L314.2,322.1L315.7,326.8L318.5,328.6L328.6,328.4L331.2,326.7L332.4,324.0L336.2,324.6L337.1,325.6L338.4,322.8L337.9,321.6L331.3,316.5L331.5,314.9L335.6,303.2L337.9,301.5L336.4,297.3L334.8,295.4L328.9,293.4L327.3,292.3L325.0,292.5L319.4,288.7L316.8,286.3L316.0,283.7L315.6,282.6L311.1,281.9Z " data-id="IT.LU" data-name="Lucca" id="IT.LU"/>
utf-8utf-8<path d="M342.7,293.1L337.1,289.5L334.9,288.7L327.8,291.8L327.3,292.3L328.9,293.4L334.8,295.4L336.4,297.3L337.9,301.5L335.6,303.2L331.5,314.9L331.3,316.5L337.9,321.6L338.4,322.8L341.3,324.1L345.2,322.5L348.8,324.6L352.8,324.3L356.1,322.2L357.5,323.0L360.7,321.4L362.3,319.0L361.4,317.4L362.0,314.8L361.8,311.3L364.6,307.2L360.7,305.1L363.2,297.9L362.8,295.6L362.3,295.6L359.0,293.2L360.0,292.1L357.9,290.9L355.8,294.6L352.9,298.0L343.9,293.5L343.9,293.5L342.7,293.1Z " data-id="IT.PT" data-name="Pistoia" id="IT.PT"/>
utf-8utf-8<path d="M375.0,294.4L374.8,294.3L362.8,295.6L363.2,297.9L360.7,305.1L364.6,307.2L361.8,311.3L362.0,314.8L361.4,317.4L362.3,319.0L360.7,321.4L357.5,323.0L358.0,323.6L359.5,326.1L365.3,328.2L365.3,323.1L368.1,321.7L371.4,318.9L370.9,315.3L372.6,311.6L373.8,303.9L374.7,301.6L375.5,295.0L375.0,294.4L375.0,294.4Z " data-id="IT.PO" data-name="Prato" id="IT.PO"/>
utf-8utf-8<path d="M401.1,288.7L397.6,287.5L393.1,282.3L389.4,282.3L387.4,284.2L385.9,284.2L382.0,287.9L375.0,289.0L374.5,289.9L378.8,292.6L376.2,294.6L375.0,294.4L375.5,295.0L374.7,301.6L373.8,303.9L372.6,311.6L370.9,315.3L371.4,318.9L368.1,321.7L365.3,323.1L365.3,328.2L359.5,326.1L358.0,323.6L357.5,323.0L356.1,322.2L352.8,324.3L348.8,324.6L345.2,322.5L341.3,324.1L338.4,322.8L337.1,325.6L338.6,327.8L345.2,331.6L350.0,331.0L351.9,333.2L353.6,336.0L354.0,338.8L352.4,341.1L347.5,341.6L346.8,342.5L349.3,353.7L350.8,356.4L352.9,357.6L358.4,358.3L358.6,353.6L364.0,349.5L365.9,349.9L371.0,354.0L372.2,356.1L376.1,352.0L377.1,351.9L377.8,354.9L378.8,355.5L382.1,353.6L384.4,349.8L386.1,351.7L391.3,351.1L393.2,349.3L394.0,348.9L394.8,347.6L395.9,346.8L401.4,345.8L403.0,340.1L405.0,340.2L407.1,336.9L409.6,335.5L407.6,328.5L410.9,322.5L411.4,319.8L412.7,318.1L416.8,316.9L418.0,316.5L417.4,315.9L414.8,308.0L412.9,306.5L412.0,303.4L415.4,300.9L419.1,292.7L417.1,291.7L416.9,291.7L416.9,291.7L413.6,292.1L411.6,293.0L407.5,292.5L406.6,291.1L407.6,290.2L403.1,288.7L401.1,288.7L401.1,288.7Z " data-id="IT.FI" data-name="Firenze" id="IT.FI"/>
utf-8utf-8<path d="M457.6,326.1L459.6,322.8L456.2,322.4L455.2,323.8L457.6,326.1Z M418.0,316.5L416.8,316.9L412.7,318.1L411.4,319.8L410.9,322.5L407.6,328.5L409.6,335.5L407.1,336.9L405.0,340.2L403.0,340.1L401.4,345.8L395.9,346.8L394.8,347.6L394.0,348.9L394.6,349.0L400.6,355.3L405.8,358.3L406.5,360.3L406.0,364.1L408.9,367.1L416.4,371.2L419.2,375.8L428.0,380.6L430.6,381.0L433.9,385.6L435.5,386.9L437.3,385.7L441.1,385.6L441.3,385.4L445.6,383.3L446.8,378.1L447.5,377.7L451.6,378.6L454.7,377.1L456.6,377.1L461.7,373.2L459.4,371.9L459.0,372.8L453.7,367.1L449.7,364.9L449.8,363.3L446.6,361.8L448.1,359.8L449.7,359.2L453.6,356.1L452.0,350.9L454.0,350.5L455.3,348.9L459.0,342.2L457.9,339.5L458.4,338.4L464.5,335.0L466.2,331.2L467.4,334.8L468.3,335.7L470.6,332.9L466.3,328.3L465.1,327.5L464.7,327.3L464.4,327.2L455.5,329.5L453.0,327.9L450.9,327.9L449.9,328.2L448.1,328.7L439.0,326.9L431.2,322.5L425.8,321.6L418.4,316.8L418.0,316.5Z " data-id="IT.AR" data-name="Arezzo" id="IT.AR"/>
utf-8utf-8<path d="M437.3,385.7L435.5,386.9L433.9,385.6L430.6,381.0L428.0,380.6L419.2,375.8L416.4,371.2L408.9,367.1L406.0,364.1L406.5,360.3L405.8,358.3L400.6,355.3L394.6,349.0L394.0,348.9L393.2,349.3L391.3,351.1L386.1,351.7L384.4,349.8L382.1,353.6L378.8,355.5L377.8,354.9L377.1,351.9L376.1,352.0L372.2,356.1L371.0,354.0L365.9,349.9L364.0,349.5L358.6,353.6L358.4,358.3L362.1,363.1L363.0,365.1L362.6,368.6L359.2,371.5L359.9,373.4L362.7,376.2L361.8,379.6L358.1,379.1L356.6,385.6L356.6,386.7L358.1,386.7L363.8,385.1L366.8,383.8L368.5,385.3L368.5,388.9L370.7,394.0L374.3,393.7L377.0,394.8L381.7,393.6L393.5,394.5L393.9,397.4L393.8,402.7L397.0,405.9L401.4,407.2L404.8,405.6L411.5,405.9L414.6,407.8L415.3,409.6L415.6,414.3L417.3,422.3L420.1,422.7L426.4,422.4L426.6,421.6L428.1,420.3L430.7,421.2L433.8,418.8L437.7,417.3L441.0,415.2L441.4,415.0L442.5,413.1L440.8,410.5L441.2,407.0L443.8,399.9L443.8,398.1L441.4,395.7L439.6,395.2L438.8,389.2L440.4,386.2L441.1,385.6L437.3,385.7Z " data-id="IT.SI" data-name="Siena" id="IT.SI"/>
utf-8utf-8<path d="M786.5,636.6L784.1,635.0L783.1,636.0L785.3,638.9L787.0,639.2L786.5,636.6Z M806.9,616.1L805.6,617.0L800.1,619.3L796.8,622.8L799.7,627.5L799.7,630.2L795.4,632.8L792.4,636.5L794.0,638.5L798.2,641.5L796.7,644.3L796.7,646.8L799.9,652.5L800.6,655.3L798.4,658.2L798.6,659.5L802.5,662.4L804.9,669.9L808.4,673.3L812.7,672.4L815.5,672.5L817.2,671.2L817.3,669.7L819.3,668.7L821.2,668.8L821.2,672.5L820.0,679.2L820.2,680.6L823.7,683.0L823.9,684.1L821.0,687.1L823.5,693.4L825.0,694.4L825.5,692.9L826.0,687.0L835.1,687.8L837.7,687.2L844.4,688.0L844.4,688.0L847.5,685.3L850.2,680.5L854.9,669.7L860.9,660.7L852.9,652.4L851.1,653.1L849.1,651.3L847.7,646.0L846.6,636.1L847.2,633.3L846.4,629.2L846.4,628.2L844.6,626.4L839.3,624.5L835.5,623.6L830.6,625.6L828.2,624.0L822.2,629.4L821.4,629.2L815.3,624.6L806.9,616.1Z " data-id="IT.MT" data-name="Matera" id="IT.MT"/>
utf-8utf-8<path d="M801.0,608.0L799.2,607.6L795.6,609.5L784.9,604.9L787.4,597.4L781.1,591.4L775.2,588.8L773.6,586.9L772.9,586.3L772.2,586.8L766.0,589.5L764.5,589.7L751.6,589.0L748.9,591.3L748.5,593.0L748.9,594.4L750.5,597.2L748.4,605.5L744.2,609.1L742.7,609.7L734.4,609.9L734.2,616.4L732.8,617.7L734.0,618.9L735.5,622.9L736.2,626.8L739.1,629.6L745.9,634.4L743.8,636.6L742.6,639.2L745.8,640.8L748.8,643.3L750.9,647.8L751.0,651.3L754.7,654.5L755.8,656.4L758.4,657.4L761.4,660.4L765.2,661.8L766.6,667.4L772.4,672.4L773.4,674.2L773.1,676.4L766.0,683.7L766.2,686.8L762.9,692.2L764.2,693.3L762.9,695.3L763.3,695.6L765.8,699.1L768.8,701.9L771.5,707.1L771.9,707.6L773.5,704.5L780.0,699.2L787.2,699.4L791.0,702.1L793.8,701.3L794.0,705.2L798.7,709.4L809.3,708.6L812.0,706.4L818.2,706.5L820.7,708.5L822.8,709.1L821.3,706.5L822.7,702.5L824.1,700.7L824.7,695.0L825.0,694.4L823.5,693.4L821.0,687.1L823.9,684.1L823.7,683.0L820.2,680.6L820.0,679.2L821.2,672.5L821.2,668.8L819.3,668.7L817.3,669.7L817.2,671.2L815.5,672.5L812.7,672.4L808.4,673.3L804.9,669.9L802.5,662.4L798.6,659.5L798.4,658.2L800.6,655.3L799.9,652.5L796.7,646.8L796.7,644.3L798.2,641.5L794.0,638.5L792.4,636.5L795.4,632.8L799.7,630.2L799.7,627.5L796.8,622.8L800.1,619.3L805.6,617.0L806.9,616.1L805.9,615.1L805.2,613.8L804.0,610.7L802.9,609.1L802.3,608.7L801.0,608.0Z M786.5,636.6L787.0,639.2L785.3,638.9L783.1,636.0L784.1,635.0L786.5,636.6Z " data-id="IT.PZ" data-name="Potenza" id="IT.PZ"/>
utf-8utf-8<path d="M825.0,694.4L824.7,695.0L824.1,700.7L822.7,702.5L821.3,706.5L822.8,709.1L820.7,708.5L818.2,706.5L812.0,706.4L809.3,708.6L798.7,709.4L794.0,705.2L793.8,701.3L791.0,702.1L787.2,699.4L780.0,699.2L773.5,704.5L771.9,707.6L774.5,711.0L775.2,713.3L775.3,718.2L775.8,719.2L778.4,730.8L781.2,735.1L784.3,744.1L785.1,745.4L790.1,749.2L792.4,752.9L795.7,756.8L799.5,766.4L800.4,769.9L805.4,793.9L806.7,796.4L812.0,795.2L820.0,790.9L824.1,790.3L830.2,791.8L834.3,795.8L836.0,796.8L837.6,796.5L838.5,795.0L838.7,786.8L842.7,785.8L846.4,784.3L847.6,782.2L848.6,781.7L851.0,780.8L859.6,782.2L861.1,779.5L859.6,772.9L858.8,770.8L855.5,767.3L857.4,764.9L867.8,766.0L870.6,764.0L870.7,761.7L872.5,760.1L875.6,760.9L876.3,760.4L877.2,755.8L880.3,752.7L879.6,752.0L874.7,750.7L870.6,747.6L865.4,745.3L864.0,742.9L859.8,739.3L857.0,738.4L846.6,737.9L843.8,736.7L839.8,734.3L837.1,731.4L835.6,725.6L834.4,722.7L834.4,719.6L835.5,716.4L838.0,711.6L841.6,708.1L844.8,703.4L843.1,700.3L841.8,691.5L843.2,689.1L844.4,688.0L837.7,687.2L835.1,687.8L826.0,687.0L825.5,692.9L825.0,694.4Z " data-id="IT.CS" data-name="Cosenza" id="IT.CS"/>
utf-8utf-8<path d="M877.0,807.8L882.2,808.8L884.5,811.2L888.4,809.5L890.4,809.8L891.3,811.9L896.6,805.6L896.3,801.0L897.8,798.4L894.9,797.4L891.7,792.3L891.3,789.2L892.4,783.3L892.3,778.9L889.6,774.1L889.8,767.1L892.3,760.1L889.5,759.9L886.4,758.5L880.7,753.1L880.3,752.7L877.2,755.8L876.3,760.4L875.6,760.9L872.5,760.1L870.7,761.7L870.6,764.0L867.8,766.0L857.4,764.9L855.5,767.3L858.8,770.8L859.6,772.9L861.1,779.5L859.6,782.2L851.0,780.8L848.6,781.7L849.8,784.3L852.8,786.3L853.2,789.7L854.6,791.9L856.4,792.7L859.4,795.2L863.1,794.9L866.1,796.0L871.5,800.0L872.9,802.0L874.1,805.7L873.5,808.8L877.0,807.8Z " data-id="IT.KR" data-name="Crotene" id="IT.KR"/>
utf-8utf-8<path d="M848.6,781.7L847.6,782.2L846.4,784.3L842.7,785.8L838.7,786.8L838.5,795.0L837.6,796.5L836.0,796.8L834.3,795.8L830.2,791.8L824.1,790.3L820.0,790.9L812.0,795.2L806.7,796.4L810.7,804.2L816.4,808.3L818.3,816.2L818.0,820.6L817.9,821.0L821.8,822.2L823.2,819.4L824.4,819.8L830.8,824.1L829.5,830.2L829.6,831.9L828.7,835.2L829.7,838.0L836.9,844.1L837.9,845.4L836.7,847.3L837.5,847.9L837.7,851.4L840.3,852.3L847.0,856.4L850.1,856.2L850.2,852.5L850.0,849.9L848.0,842.9L846.7,835.1L845.3,832.3L845.5,829.9L847.4,826.5L848.1,823.6L850.9,820.3L855.7,817.9L860.2,814.0L869.1,809.9L873.5,808.8L874.1,805.7L872.9,802.0L871.5,800.0L866.1,796.0L863.1,794.9L859.4,795.2L856.4,792.7L854.6,791.9L853.2,789.7L852.8,786.3L849.8,784.3L848.6,781.7Z " data-id="IT.CZ" data-name="Catanzaro" id="IT.CZ"/>
utf-8utf-8<path d="M837.9,845.4L836.9,844.1L829.7,838.0L828.7,835.2L829.6,831.9L829.5,830.2L830.8,824.1L824.4,819.8L823.2,819.4L821.8,822.2L817.9,821.0L817.1,824.4L815.5,827.3L810.8,830.1L804.7,829.4L800.9,829.7L798.1,831.0L793.1,834.4L788.2,836.3L788.4,840.7L790.7,842.1L793.3,844.8L794.8,847.6L795.2,851.1L795.0,852.2L799.1,850.6L804.5,849.8L806.3,847.6L810.9,848.8L822.9,853.9L825.5,858.8L827.3,859.7L832.9,859.8L834.9,857.8L831.6,852.8L831.7,848.5L832.7,846.6L835.0,846.0L836.7,847.3L837.9,845.4Z " data-id="IT.VV" data-name="Vibo Valentia" id="IT.VV"/>
utf-8utf-8<path d="M835.0,846.0L832.7,846.6L831.7,848.5L831.6,852.8L834.9,857.8L832.9,859.8L827.3,859.7L825.5,858.8L822.9,853.9L810.9,848.8L806.3,847.6L804.5,849.8L799.1,850.6L795.0,852.2L794.4,855.5L785.7,875.6L777.4,878.2L774.6,879.4L773.3,881.6L774.8,887.6L773.3,894.8L776.5,899.9L774.9,901.4L774.7,903.3L777.5,907.7L783.5,911.4L785.8,912.0L800.8,911.1L805.8,912.6L810.9,911.2L813.9,908.3L815.7,903.8L817.2,892.8L818.5,889.5L829.0,875.7L831.7,873.3L839.4,869.2L842.0,868.3L849.4,861.4L850.0,860.0L850.1,856.2L847.0,856.4L840.3,852.3L837.7,851.4L837.5,847.9L836.7,847.3L835.0,846.0Z " data-id="IT.RC" data-name="Reggio Calabria" id="IT.RC"/>
utf-8utf-8<path d="M648.7,555.6L640.0,551.7L637.7,551.3L628.8,550.9L625.5,554.2L625.3,556.4L626.0,561.3L620.7,559.8L617.0,554.1L615.1,553.2L614.3,553.2L610.0,556.6L607.0,558.3L608.2,560.2L608.2,564.3L608.6,566.6L608.3,567.9L606.8,571.3L604.8,572.0L598.6,576.3L602.7,579.4L608.0,585.2L613.4,593.5L614.2,597.5L618.3,600.2L622.3,606.2L623.2,605.5L629.0,603.6L631.5,601.7L632.8,602.0L634.7,604.7L637.1,604.5L641.7,605.4L643.9,605.1L647.0,599.4L660.2,601.7L663.5,601.3L664.8,600.4L664.7,598.6L664.2,596.7L660.4,594.7L657.6,595.3L655.4,593.9L656.3,590.5L655.2,588.8L652.2,587.9L649.7,583.9L651.2,583.6L654.8,584.9L657.4,583.4L657.8,582.2L654.1,575.7L655.5,572.1L659.3,569.4L658.7,568.0L655.5,565.6L656.1,563.8L659.6,562.5L660.9,561.3L659.4,561.1L658.1,559.8L656.4,557.9L654.1,557.6L649.8,556.0L648.7,555.6Z " data-id="IT.CE" data-name="Caserta" id="IT.CE"/>
utf-8utf-8<path d="M644.9,645.1L640.2,643.9L641.1,646.0L644.9,645.1Z M619.5,628.6L619.9,626.3L618.2,625.3L612.9,623.5L611.3,625.4L610.4,628.2L613.9,630.4L619.5,628.6Z M625.1,623.4L622.8,625.4L624.1,626.1L625.1,623.4Z M668.1,598.9L666.3,598.2L665.5,598.1L664.7,598.6L664.8,600.4L663.5,601.3L660.2,601.7L647.0,599.4L643.9,605.1L641.7,605.4L637.1,604.5L634.7,604.7L632.8,602.0L631.5,601.7L629.0,603.6L623.2,605.5L622.3,606.2L623.4,607.7L625.5,612.4L626.4,616.0L625.7,620.1L629.2,621.4L628.5,617.6L628.9,616.7L635.9,618.2L637.3,619.7L639.1,619.7L640.5,616.7L642.5,616.0L646.3,615.9L647.9,617.0L652.6,621.8L657.3,624.7L659.0,624.3L662.4,628.6L662.2,630.3L659.6,631.2L656.5,634.2L656.1,635.4L651.2,637.3L652.0,642.7L653.0,641.4L658.2,638.2L662.2,637.3L662.2,637.3L662.3,636.1L664.8,634.6L668.1,635.2L670.5,632.2L670.5,628.5L664.9,625.5L664.7,623.4L670.4,619.7L669.8,615.1L671.9,615.0L669.4,612.3L669.4,609.9L670.6,609.5L676.8,609.7L676.7,609.0L670.9,606.7L669.4,605.6L668.9,601.1L668.1,598.9Z " data-id="IT.NA" data-name="Napoli" id="IT.NA"/>
utf-8utf-8<path d="M678.7,601.8L679.2,599.2L677.8,597.0L676.5,601.0L676.8,602.2L678.7,601.8Z M699.8,552.1L695.1,554.7L690.7,556.0L688.3,557.1L681.7,556.6L681.4,557.7L678.7,559.6L673.3,559.8L668.2,562.8L665.1,561.6L661.9,561.4L660.9,561.3L659.6,562.5L656.1,563.8L655.5,565.6L658.7,568.0L659.3,569.4L655.5,572.1L654.1,575.7L657.8,582.2L657.4,583.4L654.8,584.9L651.2,583.6L649.7,583.9L652.2,587.9L655.2,588.8L656.3,590.5L655.4,593.9L657.6,595.3L660.4,594.7L664.2,596.7L664.7,598.6L665.5,598.1L666.3,598.2L668.1,598.9L668.1,597.5L670.1,594.8L673.9,595.1L678.8,594.1L681.9,598.2L684.5,597.0L684.6,594.6L686.9,594.8L689.5,596.1L702.1,589.3L702.0,585.8L699.7,584.4L699.4,582.4L701.8,579.4L700.4,576.0L700.8,572.9L707.1,573.7L710.2,575.2L713.2,573.1L713.3,572.6L711.8,569.3L707.0,566.6L706.5,565.3L708.7,561.6L708.2,557.2L706.4,556.4L700.2,552.3L699.8,552.1Z " data-id="IT.BN" data-name="Benevento" id="IT.BN"/>
utf-8utf-8<path d="M740.2,592.0L736.5,589.5L734.1,590.2L725.2,589.4L724.2,587.9L719.5,585.0L718.9,583.4L722.8,579.0L722.1,577.1L723.2,575.3L721.3,573.4L715.8,571.3L714.3,572.6L713.3,572.6L713.2,573.1L710.2,575.2L707.1,573.7L700.8,572.9L700.4,576.0L701.8,579.4L699.4,582.4L699.7,584.4L702.0,585.8L702.1,589.3L689.5,596.1L686.9,594.8L684.6,594.6L684.5,597.0L681.9,598.2L678.8,594.1L673.9,595.1L670.1,594.8L668.1,597.5L668.1,598.9L668.9,601.1L669.4,605.6L670.9,606.7L676.7,609.0L676.8,609.7L670.6,609.5L669.4,609.9L669.4,612.3L671.9,615.0L675.9,617.1L682.3,615.7L685.0,619.2L693.9,619.9L703.6,621.8L714.0,623.2L718.1,627.9L719.4,628.6L724.7,627.4L724.7,623.3L727.6,619.9L728.9,616.2L730.9,616.1L732.8,617.7L734.2,616.4L734.4,609.9L742.7,609.7L744.2,609.1L748.4,605.5L750.5,597.2L748.9,594.4L740.2,592.0Z M678.7,601.8L676.8,602.2L676.5,601.0L677.8,597.0L679.2,599.2L678.7,601.8Z " data-id="IT.AV" data-name="Avellino" id="IT.AV"/>
utf-8utf-8<path d="M730.9,616.1L728.9,616.2L727.6,619.9L724.7,623.3L724.7,627.4L719.4,628.6L718.1,627.9L714.0,623.2L703.6,621.8L693.9,619.9L685.0,619.2L682.3,615.7L675.9,617.1L671.9,615.0L669.8,615.1L670.4,619.7L664.7,623.4L664.9,625.5L670.5,628.5L670.5,632.2L668.1,635.2L664.8,634.6L662.3,636.1L662.2,637.3L663.4,636.5L668.3,638.4L670.5,638.0L685.0,632.1L687.5,632.8L694.5,639.0L696.9,642.5L707.1,660.0L707.0,664.0L702.1,666.4L702.8,669.1L702.3,671.3L700.4,674.0L703.2,677.1L704.7,676.7L708.7,678.8L712.6,683.0L719.2,682.9L724.7,688.0L728.4,689.9L731.0,692.6L732.5,695.2L731.1,697.0L735.5,696.6L738.1,699.6L743.7,700.6L745.3,700.0L747.6,697.0L750.4,695.3L751.7,693.2L753.4,692.2L759.7,692.6L761.5,694.2L762.9,695.3L764.2,693.3L762.9,692.2L766.2,686.8L766.0,683.7L773.1,676.4L773.4,674.2L772.4,672.4L766.6,667.4L765.2,661.8L761.4,660.4L758.4,657.4L755.8,656.4L754.7,654.5L751.0,651.3L750.9,647.8L748.8,643.3L745.8,640.8L742.6,639.2L743.8,636.6L745.9,634.4L739.1,629.6L736.2,626.8L735.5,622.9L734.0,618.9L732.8,617.7L730.9,616.1Z " data-id="IT.SA" data-name="Salerno" id="IT.SA"/>
utf-8utf-8<path d="M707.2,507.4L692.6,498.8L685.9,497.8L682.9,496.6L678.2,493.5L676.8,493.2L675.8,497.2L676.0,499.1L670.2,504.9L668.1,506.1L668.1,508.9L663.0,515.1L658.4,522.0L656.4,523.0L655.9,526.0L658.9,527.9L659.3,529.9L658.5,531.4L651.8,536.0L657.4,539.1L658.2,542.1L655.4,547.5L651.1,549.3L649.4,554.3L649.8,556.0L654.1,557.6L656.4,557.9L658.1,559.8L659.4,561.1L660.9,561.3L661.9,561.4L665.1,561.6L668.2,562.8L673.3,559.8L678.7,559.6L681.4,557.7L681.7,556.6L688.3,557.1L690.7,556.0L695.1,554.7L699.8,552.1L695.5,548.7L694.6,545.3L693.7,538.9L696.1,537.0L699.9,538.4L704.8,535.1L708.0,531.9L711.5,530.3L707.1,526.9L706.6,523.2L707.2,521.0L706.7,516.6L708.3,513.8L708.9,507.7L707.2,507.4Z " data-id="IT.CB" data-name="Campobasso" id="IT.CB"/>
utf-8utf-8<path d="M655.1,523.7L653.1,523.9L652.6,521.0L650.9,516.5L646.5,513.4L638.6,510.2L634.5,513.0L634.4,513.0L634.3,513.1L633.6,514.6L629.0,516.5L627.6,518.8L631.7,524.0L629.1,525.1L619.6,530.2L613.9,531.3L612.4,531.7L612.9,532.6L616.9,538.7L617.0,542.1L618.3,544.5L618.6,547.8L616.6,551.6L615.1,553.2L617.0,554.1L620.7,559.8L626.0,561.3L625.3,556.4L625.5,554.2L628.8,550.9L637.7,551.3L640.0,551.7L648.7,555.6L649.8,556.0L649.4,554.3L651.1,549.3L655.4,547.5L658.2,542.1L657.4,539.1L651.8,536.0L658.5,531.4L659.3,529.9L658.9,527.9L655.9,526.0L656.4,523.0L655.1,523.7Z " data-id="IT.IS" data-name="Isernia" id="IT.IS"/>
utf-8utf-8<path d="M899.5,609.6L897.0,608.6L893.6,604.4L890.6,601.8L884.3,597.8L871.8,591.7L857.4,587.6L855.6,585.9L854.5,586.7L852.7,585.3L832.8,579.3L829.5,577.3L828.6,576.5L828.3,578.0L826.2,581.7L825.9,584.5L822.7,584.0L819.8,581.3L818.1,580.6L812.6,583.7L812.8,586.8L808.1,594.4L807.3,596.4L807.1,600.6L806.5,602.6L803.2,607.1L802.3,608.7L802.9,609.1L804.0,610.7L805.2,613.8L805.9,615.1L806.9,616.1L815.3,624.6L821.4,629.2L822.2,629.4L828.2,624.0L830.6,625.6L835.5,623.6L839.3,624.5L844.6,626.4L846.4,628.2L847.8,628.3L852.1,626.6L854.0,630.1L855.4,630.2L857.2,628.2L863.6,629.7L865.2,625.4L866.0,624.7L870.0,623.6L871.9,628.2L875.0,627.7L881.8,628.8L886.6,623.4L890.7,623.3L897.6,625.6L898.7,624.9L900.4,624.9L902.0,621.2L895.3,618.7L895.1,616.5L897.2,613.2L900.8,610.5L899.5,609.6Z " data-id="IT.BA" data-name="Bari" id="IT.BA"/>
utf-8utf-8<path d="M708.9,507.7L708.3,513.8L706.7,516.6L707.2,521.0L706.6,523.2L707.1,526.9L711.5,530.3L708.0,531.9L704.8,535.1L699.9,538.4L696.1,537.0L693.7,538.9L694.6,545.3L695.5,548.7L699.8,552.1L700.2,552.3L706.4,556.4L708.2,557.2L708.7,561.6L706.5,565.3L707.0,566.6L711.8,569.3L713.3,572.6L714.3,572.6L715.8,571.3L721.3,573.4L723.2,575.3L722.1,577.1L722.8,579.0L718.9,583.4L719.5,585.0L724.2,587.9L725.2,589.4L734.1,590.2L736.5,589.5L740.2,592.0L748.9,594.4L748.5,593.0L748.9,591.3L751.6,589.0L764.5,589.7L766.0,589.5L772.2,586.8L772.9,586.3L778.0,582.7L780.0,581.8L785.5,576.5L781.6,565.3L785.7,563.4L779.4,558.1L777.6,557.2L780.0,554.8L779.1,554.3L774.8,550.0L773.2,546.7L772.6,542.7L773.0,538.9L774.9,536.4L783.0,532.5L785.7,530.4L789.1,526.8L793.8,524.2L795.7,521.5L793.8,511.4L792.4,511.5L790.5,508.8L781.0,506.4L760.5,508.7L747.1,508.0L733.8,510.1L730.0,510.0L720.2,508.0L710.7,508.0L708.9,507.7L708.9,507.7Z M736.1,490.3L735.0,489.7L735.0,490.7L736.1,490.3Z " data-id="IT.FG" data-name="Foggia" id="IT.FG"/>
utf-8utf-8<path d="M828.1,576.1L826.5,575.0L821.5,573.8L808.0,567.3L792.1,560.9L789.6,558.9L784.3,557.4L780.0,554.8L777.6,557.2L779.4,558.1L785.7,563.4L781.6,565.3L785.5,576.5L780.0,581.8L778.0,582.7L772.9,586.3L773.6,586.9L775.2,588.8L781.1,591.4L787.4,597.4L784.9,604.9L795.6,609.5L799.2,607.6L801.0,608.0L802.3,608.7L803.2,607.1L806.5,602.6L807.1,600.6L807.3,596.4L808.1,594.4L812.8,586.8L812.6,583.7L818.1,580.6L819.8,581.3L822.7,584.0L825.9,584.5L826.2,581.7L828.3,578.0L828.6,576.5L828.1,576.1Z " data-id="IT.BT" data-name="Barletta-Andria Trani" id="IT.BT"/>
utf-8utf-8<path d="M956.5,644.1L956.2,638.9L954.2,637.2L953.2,634.7L949.0,635.1L948.9,632.7L946.0,631.5L939.5,630.4L931.2,625.0L921.5,621.3L914.3,619.6L908.2,616.8L902.6,611.7L900.8,610.5L897.2,613.2L895.1,616.5L895.3,618.7L902.0,621.2L900.4,624.9L898.7,624.9L898.8,626.0L903.9,631.2L905.4,635.5L909.0,639.0L908.3,645.4L911.5,651.0L914.3,652.4L916.5,655.4L919.4,655.7L920.5,653.7L924.0,653.8L926.0,654.8L931.0,659.2L936.6,660.4L938.1,661.8L939.8,660.1L941.7,658.8L949.7,656.6L961.9,648.0L956.5,644.1Z " data-id="IT.BR" data-name="Brindisi" id="IT.BR"/>
utf-8utf-8<path d="M942.9,670.8L944.2,671.3L948.5,674.3L950.2,682.2L956.5,687.9L957.8,690.3L957.3,692.5L954.5,694.2L958.7,696.3L958.5,699.7L957.3,699.7L964.2,708.9L969.3,711.8L972.1,714.1L974.2,715.0L982.2,716.8L986.5,719.9L990.9,717.6L991.6,712.3L990.8,707.5L993.3,697.7L997.2,694.4L997.6,691.5L999.2,686.0L997.8,684.6L991.7,673.0L985.6,665.9L982.0,663.1L979.6,659.8L975.7,656.7L973.8,654.0L971.6,653.3L963.7,649.3L961.9,648.0L949.7,656.6L941.7,658.8L939.8,660.1L938.1,661.8L937.9,664.2L936.2,668.3L936.0,670.5L942.9,670.8Z " data-id="IT.LE" data-name="Lecce" id="IT.LE"/>
utf-8utf-8<path d="M897.6,625.6L890.7,623.3L886.6,623.4L881.8,628.8L875.0,627.7L871.9,628.2L870.0,623.6L866.0,624.7L865.2,625.4L863.6,629.7L857.2,628.2L855.4,630.2L854.0,630.1L852.1,626.6L847.8,628.3L846.4,628.2L846.4,629.2L847.2,633.3L846.6,636.1L847.7,646.0L849.1,651.3L851.1,653.1L852.9,652.4L860.9,660.7L860.9,660.7L864.6,655.3L869.5,650.5L875.4,647.9L884.2,648.5L887.2,651.6L891.8,649.5L893.6,650.2L898.1,649.9L897.6,651.6L896.0,652.4L892.0,651.7L890.4,652.3L892.2,654.0L891.9,655.6L888.5,657.7L889.7,659.2L896.7,661.8L905.6,666.7L909.0,666.7L915.1,669.4L936.0,670.5L936.2,668.3L937.9,664.2L938.1,661.8L936.6,660.4L931.0,659.2L926.0,654.8L924.0,653.8L920.5,653.7L919.4,655.7L916.5,655.4L914.3,652.4L911.5,651.0L908.3,645.4L909.0,639.0L905.4,635.5L903.9,631.2L898.8,626.0L898.7,624.9L897.6,625.6Z " data-id="IT.TA" data-name="Taranto" id="IT.TA"/>
utf-8utf-8<path d="M475.1,1025.4L471.2,1024.5L470.5,1027.0L473.8,1031.8L476.8,1033.9L479.7,1034.3L481.5,1031.6L481.3,1029.2L476.7,1024.5L475.1,1025.4Z M498.6,910.4L494.6,910.5L496.9,912.6L498.1,912.0L501.7,913.1L502.6,912.0L498.6,910.4Z M478.2,908.4L476.0,905.0L474.5,905.2L475.6,908.3L477.1,909.3L478.2,908.4Z M548.2,948.3L549.0,945.1L549.4,940.8L548.6,936.3L551.5,933.6L554.8,931.5L557.4,930.8L558.5,931.0L563.5,927.9L562.6,925.5L562.7,922.8L558.4,923.5L553.1,922.4L551.8,921.8L551.4,917.2L550.1,916.4L550.3,914.1L554.7,914.6L557.0,913.9L558.8,911.6L559.2,909.0L555.1,904.5L552.7,899.7L550.1,900.9L546.5,901.4L543.8,899.9L536.9,892.2L534.1,885.6L531.6,884.4L530.7,886.2L531.4,891.3L529.7,892.8L526.2,892.3L524.4,896.1L521.9,897.8L519.2,896.9L515.0,901.0L512.5,902.0L513.5,903.1L512.6,909.0L510.9,912.9L512.0,917.4L511.0,922.2L508.1,923.9L512.5,934.9L516.8,939.5L520.1,939.6L522.8,941.6L526.6,947.4L528.6,949.1L531.8,949.4L538.7,948.2L545.5,948.0L548.2,948.3Z " data-id="IT.TP" data-name="Trapani" id="IT.TP"/>
utf-8utf-8<path d="M571.2,943.7L571.5,941.9L570.2,941.2L568.5,942.5L569.0,944.0L571.2,943.7Z M552.7,899.7L555.1,904.5L559.2,909.0L558.8,911.6L557.0,913.9L554.7,914.6L550.3,914.1L550.1,916.4L551.4,917.2L551.8,921.8L553.1,922.4L558.4,923.5L562.7,922.8L562.6,925.5L563.5,927.9L558.5,931.0L559.0,931.5L561.0,934.6L562.7,935.6L567.6,935.3L572.1,936.7L573.4,937.8L574.8,941.1L577.6,943.4L584.8,939.0L585.8,941.2L584.2,945.9L587.0,951.8L590.5,950.0L590.8,948.6L588.9,946.4L589.1,944.3L593.9,940.6L606.8,941.0L610.5,939.8L614.1,935.4L617.7,937.0L620.9,932.6L622.2,931.7L629.0,936.7L631.5,940.5L632.6,944.8L636.9,947.0L640.3,946.6L641.9,945.3L644.2,941.6L645.3,941.1L651.0,943.1L651.7,943.8L652.8,943.1L654.6,938.1L660.0,936.3L662.1,934.9L664.1,930.3L661.3,926.1L661.5,921.9L662.6,920.7L661.6,917.5L661.9,912.4L658.6,909.6L653.2,901.6L650.8,901.3L645.2,901.8L639.8,899.2L638.8,900.3L633.1,901.3L629.8,903.8L626.5,904.6L621.0,907.0L615.7,906.2L613.2,904.9L609.2,904.2L603.7,900.2L600.3,898.5L599.6,894.6L597.2,892.9L587.0,893.6L585.1,886.4L581.3,883.6L580.3,881.5L573.8,882.9L573.2,885.2L571.3,886.1L567.1,885.7L564.2,884.6L561.5,885.4L561.5,887.1L558.8,889.6L560.4,894.4L556.9,897.8L552.7,899.7Z M640.9,937.5L641.9,934.5L644.1,932.9L645.6,933.2L646.7,936.5L645.6,937.3L640.9,937.5Z M566.1,833.0L566.7,830.5L565.4,830.5L564.2,832.8L566.1,833.0Z " data-id="IT.PA" data-name="Palermo" id="IT.PA"/>
utf-8utf-8<path d="M653.2,901.6L658.6,909.6L661.9,912.4L661.6,917.5L662.6,920.7L664.7,921.1L673.2,918.6L680.7,923.1L680.7,921.3L682.0,918.9L683.8,917.7L686.5,917.1L686.0,920.8L689.7,924.0L695.5,924.9L698.8,923.6L701.3,923.0L702.1,922.7L705.3,924.0L706.0,921.2L703.8,918.4L700.1,917.7L700.2,916.5L702.4,914.1L702.5,910.8L706.9,909.6L707.9,908.0L709.6,908.9L711.6,911.1L714.1,909.2L717.2,909.4L718.5,913.3L720.7,915.3L724.2,915.5L730.4,914.1L734.4,914.8L738.1,917.3L744.6,924.1L745.1,923.6L747.9,918.2L754.7,906.7L763.0,895.5L765.0,890.2L768.6,883.6L767.3,883.7L769.1,879.5L774.5,875.9L771.5,875.4L766.7,873.3L762.8,873.6L759.7,876.7L753.8,880.3L747.3,882.5L742.0,882.6L740.5,879.4L737.7,885.4L735.7,888.1L728.4,891.0L719.4,887.9L713.0,884.9L710.3,886.2L704.0,887.7L698.7,888.0L695.7,891.8L690.9,895.9L680.8,899.7L676.9,900.4L674.1,899.2L670.3,901.2L665.9,902.4L661.1,902.7L653.2,901.6Z M719.5,866.1L720.2,865.4L717.9,861.8L716.6,861.2L714.8,861.8L715.2,863.4L718.6,866.8L719.5,866.1Z M716.4,857.6L715.0,854.7L717.3,854.7L715.4,852.6L716.0,851.1L712.5,850.5L711.3,851.2L710.6,854.7L714.9,857.8L716.4,857.6Z M707.2,847.8L708.2,845.7L707.3,844.5L703.0,844.2L701.3,845.4L703.9,847.5L707.1,848.8L707.2,847.8Z M684.0,846.9L682.1,844.1L680.5,845.1L681.2,846.5L684.0,846.9Z M735.9,824.4L735.2,820.8L732.7,823.2L735.9,824.4Z " data-id="IT.ME" data-name="Messina" id="IT.ME"/>
utf-8utf-8<path d="M698.8,923.6L695.5,924.9L689.7,924.0L686.0,920.8L686.5,917.1L683.8,917.7L682.0,918.9L680.7,921.3L680.7,923.1L673.2,918.6L664.7,921.1L662.6,920.7L661.5,921.9L661.3,926.1L664.1,930.3L662.1,934.9L660.0,936.3L654.6,938.1L652.8,943.1L651.7,943.8L652.8,944.0L653.4,947.2L652.4,947.5L651.6,953.2L653.0,957.6L647.8,963.2L647.9,968.8L649.4,971.8L652.8,972.2L662.1,972.0L669.5,976.3L671.6,975.9L676.0,977.2L678.3,977.2L680.1,976.1L678.7,974.5L679.3,971.9L681.9,974.3L685.3,974.6L685.0,970.6L689.5,970.1L690.8,968.2L690.2,966.8L691.6,965.0L693.3,964.5L692.5,962.1L689.7,960.9L685.0,960.5L684.3,959.7L683.8,955.6L684.2,953.9L686.2,951.5L693.2,951.7L698.4,950.1L700.8,951.4L705.6,955.6L707.6,952.0L707.1,948.9L710.4,945.9L708.6,941.6L706.4,939.4L706.5,933.9L702.4,936.5L699.7,935.5L699.6,932.0L700.7,930.2L699.3,927.4L701.2,923.5L701.3,923.0L698.8,923.6Z " data-id="IT.EN" data-name="Enna" id="IT.EN"/>
utf-8utf-8<path d="M701.3,923.0L701.2,923.5L699.3,927.4L700.7,930.2L699.6,932.0L699.7,935.5L702.4,936.5L706.5,933.9L706.4,939.4L708.6,941.6L710.4,945.9L707.1,948.9L707.6,952.0L705.6,955.6L700.8,951.4L698.4,950.1L693.2,951.7L686.2,951.5L684.2,953.9L683.8,955.6L684.3,959.7L685.0,960.5L689.7,960.9L692.5,962.1L693.3,964.5L691.6,965.0L690.2,966.8L690.8,968.2L689.5,970.1L685.0,970.6L685.3,974.6L681.9,974.3L679.3,971.9L678.7,974.5L680.1,976.1L678.3,977.2L676.0,977.2L671.6,975.9L671.8,978.1L673.8,980.9L674.5,982.9L674.5,987.0L675.2,988.5L679.4,989.8L681.4,991.4L682.5,993.7L680.4,1001.2L680.6,1002.1L681.7,1002.2L686.8,1000.2L690.7,1002.0L692.9,999.9L695.8,998.8L702.0,994.8L704.7,996.8L708.8,993.7L709.4,993.9L711.0,994.6L715.2,989.5L714.3,986.6L710.2,987.1L708.3,986.0L707.5,984.0L708.3,982.8L714.0,979.5L714.9,977.2L714.6,975.0L712.5,974.0L709.6,974.8L708.4,974.1L708.3,972.2L711.2,970.5L712.8,967.6L720.7,966.0L723.8,968.9L733.2,970.4L733.1,970.3L732.4,960.0L734.2,953.6L738.0,948.9L740.5,936.7L741.6,935.5L740.5,930.3L743.1,925.3L744.6,924.1L738.1,917.3L734.4,914.8L730.4,914.1L724.2,915.5L720.7,915.3L718.5,913.3L717.2,909.4L714.1,909.2L711.6,911.1L709.6,908.9L707.9,908.0L706.9,909.6L702.5,910.8L702.4,914.1L700.2,916.5L700.1,917.7L703.8,918.4L706.0,921.2L705.3,924.0L702.1,922.7L701.3,923.0Z " data-id="IT.CT" data-name="Catania" id="IT.CT"/>
utf-8utf-8<path d="M733.2,970.4L723.8,968.9L720.7,966.0L712.8,967.6L711.2,970.5L708.3,972.2L708.4,974.1L709.6,974.8L712.5,974.0L714.6,975.0L714.9,977.2L714.0,979.5L708.3,982.8L707.5,984.0L708.3,986.0L710.2,987.1L714.3,986.6L715.2,989.5L711.0,994.6L709.4,993.9L709.7,995.0L713.4,1003.3L719.3,1008.5L721.4,1013.9L720.0,1014.7L714.9,1010.3L713.9,1010.2L715.2,1014.9L718.9,1018.3L722.1,1019.8L721.4,1023.0L717.7,1021.8L715.8,1021.9L714.9,1023.3L716.9,1025.8L726.1,1028.8L728.4,1031.8L729.1,1038.3L729.7,1038.3L730.9,1038.7L735.5,1042.8L740.5,1041.2L740.5,1039.9L738.7,1033.7L736.4,1028.3L737.5,1026.2L741.1,1015.4L742.4,1013.3L748.1,1010.4L750.1,1010.3L749.9,1007.5L753.7,1006.3L755.2,1006.4L753.4,1003.0L751.7,1003.2L751.2,1000.4L752.5,1001.1L752.3,997.1L747.5,995.3L746.1,990.5L744.7,991.5L742.8,989.3L741.7,986.1L742.9,984.0L742.3,982.7L744.7,983.0L744.7,984.8L746.6,982.1L748.0,983.4L744.1,978.1L740.9,977.5L734.9,974.3L733.6,972.0L733.2,970.4Z " data-id="IT.SR" data-name="Siracusa" id="IT.SR"/>
utf-8utf-8<path d="M708.8,993.7L704.7,996.8L702.0,994.8L695.8,998.8L692.9,999.9L690.7,1002.0L686.8,1000.2L681.7,1002.2L680.6,1002.1L673.1,1007.3L671.7,1007.5L674.8,1010.3L677.0,1013.2L684.6,1027.7L685.6,1028.9L695.2,1031.1L700.2,1033.0L702.5,1035.9L707.5,1036.6L710.7,1038.7L716.1,1035.9L719.0,1035.4L722.2,1036.5L727.7,1039.7L728.9,1038.4L729.1,1038.3L728.4,1031.8L726.1,1028.8L716.9,1025.8L714.9,1023.3L715.8,1021.9L717.7,1021.8L721.4,1023.0L722.1,1019.8L718.9,1018.3L715.2,1014.9L713.9,1010.2L714.9,1010.3L720.0,1014.7L721.4,1013.9L719.3,1008.5L713.4,1003.3L709.7,995.0L709.4,993.9L708.8,993.7Z " data-id="IT.RG" data-name="Ragusa" id="IT.RG"/>
utf-8utf-8<path d="M645.6,937.3L646.7,936.5L645.6,933.2L644.1,932.9L641.9,934.5L640.9,937.5L645.6,937.3Z M617.7,937.0L618.9,937.3L623.1,938.6L625.3,942.4L625.1,943.5L618.3,947.0L616.3,947.3L613.9,946.2L613.0,948.3L615.0,952.0L614.7,956.0L611.3,958.4L611.9,960.4L614.2,960.3L618.2,962.6L619.5,962.8L627.9,962.4L629.9,965.8L631.7,965.6L631.9,970.3L634.8,972.9L638.1,973.2L643.1,977.8L643.8,981.4L641.8,986.2L642.4,988.9L645.0,991.9L646.3,995.7L650.5,995.4L653.6,995.9L660.7,999.2L666.8,1003.0L671.7,1007.5L673.1,1007.3L680.6,1002.1L680.4,1001.2L682.5,993.7L681.4,991.4L679.4,989.8L675.2,988.5L674.5,987.0L674.5,982.9L673.8,980.9L671.8,978.1L671.6,975.9L669.5,976.3L662.1,972.0L652.8,972.2L649.4,971.8L647.9,968.8L647.8,963.2L653.0,957.6L651.6,953.2L652.4,947.5L653.4,947.2L652.8,944.0L651.7,943.8L651.0,943.1L645.3,941.1L644.2,941.6L641.9,945.3L640.3,946.6L636.9,947.0L632.6,944.8L631.5,940.5L629.0,936.7L622.2,931.7L620.9,932.6L617.7,937.0Z " data-id="IT.CL" data-name="Caltanissetta" id="IT.CL"/>
utf-8utf-8<path d="M558.5,931.0L557.4,930.8L554.8,931.5L551.5,933.6L548.6,936.3L549.4,940.8L549.0,945.1L548.2,948.3L552.3,948.8L555.0,949.9L558.8,956.1L561.7,955.8L572.0,957.2L578.9,962.9L581.2,966.8L584.0,968.2L585.6,969.7L589.3,971.8L596.3,976.6L599.3,977.7L606.1,979.3L608.7,981.0L616.1,988.0L618.9,989.8L622.0,991.1L625.6,991.8L628.9,993.1L634.3,997.1L638.0,997.6L641.1,996.1L646.3,995.7L645.0,991.9L642.4,988.9L641.8,986.2L643.8,981.4L643.1,977.8L638.1,973.2L634.8,972.9L631.9,970.3L631.7,965.6L629.9,965.8L627.9,962.4L619.5,962.8L618.2,962.6L614.2,960.3L611.9,960.4L611.3,958.4L614.7,956.0L615.0,952.0L613.0,948.3L613.9,946.2L616.3,947.3L618.3,947.0L625.1,943.5L625.3,942.4L623.1,938.6L618.9,937.3L617.7,937.0L614.1,935.4L610.5,939.8L606.8,941.0L593.9,940.6L589.1,944.3L588.9,946.4L590.8,948.6L590.5,950.0L587.0,951.8L584.2,945.9L585.8,941.2L584.8,939.0L577.6,943.4L574.8,941.1L573.4,937.8L572.1,936.7L567.6,935.3L562.7,935.6L561.0,934.6L559.0,931.5L558.5,931.0Z M569.0,944.0L568.5,942.5L570.2,941.2L571.5,941.9L571.2,943.7L569.0,944.0Z " data-id="IT.AG" data-name="Agrigento" id="IT.AG"/>
utf-8utf-8<path d="M593.1,459.6L593.9,460.2L597.3,467.0L600.4,474.4L599.7,476.7L597.9,476.6L597.2,479.8L598.0,482.8L596.8,484.9L599.1,487.1L604.8,484.9L607.3,487.3L610.9,489.3L616.0,493.5L621.3,492.4L621.9,491.6L623.5,489.9L623.1,485.4L621.2,482.2L622.9,480.2L623.7,478.1L618.9,470.0L619.1,468.7L624.5,462.6L625.8,459.0L626.6,458.3L630.1,459.1L630.9,459.9L633.0,457.0L629.9,454.7L623.8,448.6L620.0,448.5L617.9,447.2L615.9,448.6L611.0,447.7L606.7,451.6L603.4,450.8L601.4,453.0L597.5,452.2L596.4,453.2L593.7,457.8L593.1,459.6Z " data-id="IT.PE" data-name="Pescara" id="IT.PE"/>
utf-8utf-8<path d="M617.2,442.0L616.1,439.5L610.5,432.2L608.6,429.1L605.3,422.4L601.4,412.3L601.4,412.3L594.3,413.7L585.1,417.6L583.8,420.6L582.4,421.1L578.1,421.1L575.4,422.0L571.5,421.5L568.3,428.1L564.9,429.3L562.5,432.6L556.5,433.3L556.4,434.1L558.6,436.6L559.5,436.8L560.2,441.5L560.2,441.5L562.1,444.3L564.0,448.8L567.6,452.4L571.2,454.0L573.9,457.2L578.1,456.5L590.8,457.8L592.1,458.5L593.1,459.6L593.7,457.8L596.4,453.2L597.5,452.2L601.4,453.0L603.4,450.8L606.7,451.6L611.0,447.7L615.9,448.6L617.9,447.2L620.0,448.5L623.8,448.6L617.2,442.0Z " data-id="IT.TE" data-name="Teramo" id="IT.TE"/>
utf-8utf-8<path d="M592.1,458.5L590.8,457.8L578.1,456.5L573.9,457.2L571.2,454.0L567.6,452.4L564.0,448.8L562.1,444.3L560.2,441.5L559.7,443.3L556.5,444.5L548.5,443.9L544.8,443.2L544.0,446.1L541.8,446.9L541.8,449.2L542.7,449.8L542.5,455.2L541.8,459.5L544.7,461.1L543.7,465.7L544.5,467.6L548.1,469.5L550.3,474.4L554.7,478.7L556.3,479.1L561.0,483.3L558.0,483.9L554.8,487.8L551.5,488.2L540.2,483.8L538.3,487.0L534.9,489.5L534.9,489.5L533.6,490.2L535.3,497.8L540.9,498.6L556.4,506.2L557.6,506.1L557.8,506.1L557.8,506.1L559.4,506.7L563.0,513.6L563.3,517.6L567.3,517.5L575.4,521.0L578.4,523.7L581.9,523.6L587.2,519.6L592.8,521.1L594.7,523.9L597.9,525.8L599.6,525.2L605.0,527.5L607.8,528.2L612.4,531.7L613.9,531.3L619.6,530.2L629.1,525.1L631.7,524.0L627.6,518.8L629.0,516.5L633.6,514.6L634.3,513.1L634.4,513.0L632.8,511.7L631.5,511.2L625.2,511.8L624.3,511.4L622.0,506.9L623.2,505.9L621.5,500.4L622.8,494.0L621.3,492.4L616.0,493.5L610.9,489.3L607.3,487.3L604.8,484.9L599.1,487.1L596.8,484.9L598.0,482.8L597.2,479.8L597.9,476.6L599.7,476.7L600.4,474.4L597.3,467.0L593.9,460.2L593.1,459.6L592.1,458.5Z " data-id="IT.AQ" data-name="L'Aquila" id="IT.AQ"/>
utf-8utf-8<path d="M676.8,493.2L674.9,492.6L673.9,491.1L671.7,483.6L670.4,482.7L667.1,482.1L662.2,480.4L659.2,478.7L647.9,469.2L644.1,464.2L641.5,462.2L635.3,458.8L633.0,457.0L630.9,459.9L630.1,459.1L626.6,458.3L625.8,459.0L624.5,462.6L619.1,468.7L618.9,470.0L623.7,478.1L622.9,480.2L621.2,482.2L623.1,485.4L623.5,489.9L621.9,491.6L621.3,492.4L622.8,494.0L621.5,500.4L623.2,505.9L622.0,506.9L624.3,511.4L625.2,511.8L631.5,511.2L632.8,511.7L634.4,513.0L634.5,513.0L638.6,510.2L646.5,513.4L650.9,516.5L652.6,521.0L653.1,523.9L655.1,523.7L656.4,523.0L658.4,522.0L663.0,515.1L668.1,508.9L668.1,506.1L670.2,504.9L676.0,499.1L675.8,497.2L676.8,493.2L676.8,493.2Z " data-id="IT.CH" data-name="Chieti" id="IT.CH"/>
utf-8utf-8<path d="M532.2,488.6L530.2,489.2L528.7,491.2L526.0,489.7L522.2,491.1L518.6,486.4L515.7,485.2L513.7,482.5L507.4,486.5L505.3,485.9L501.4,483.7L500.3,481.7L500.0,477.5L501.6,479.0L501.5,477.1L499.0,473.6L495.7,474.3L494.4,472.0L492.2,471.8L491.7,472.8L489.6,474.4L489.6,479.2L485.0,483.0L483.5,477.6L480.8,478.7L480.6,483.9L479.2,485.5L477.2,486.2L475.3,485.8L474.6,484.1L472.6,483.2L468.6,483.0L463.7,484.0L462.1,485.6L453.2,485.8L451.5,485.2L448.3,481.1L445.8,479.1L443.1,477.9L440.9,478.2L439.6,480.0L437.7,484.9L434.0,485.3L429.2,485.2L429.5,485.9L434.0,492.6L437.1,497.5L444.4,497.2L448.8,499.8L449.9,500.9L464.0,510.4L468.1,516.0L469.2,517.9L470.2,523.8L472.4,526.9L476.2,527.8L490.1,537.3L498.5,545.9L505.1,554.3L506.4,555.5L507.9,553.7L509.9,554.4L515.9,557.8L517.1,558.1L518.0,558.1L517.4,555.9L513.3,550.8L510.0,549.4L508.2,547.2L503.2,544.8L500.8,542.1L499.3,538.8L499.7,536.9L503.9,534.0L505.5,534.1L507.6,540.0L510.8,539.8L514.9,543.0L516.2,542.1L518.2,538.7L520.9,538.1L523.0,534.6L522.9,530.4L527.6,529.3L530.1,530.2L531.6,534.3L535.6,537.7L537.2,542.6L540.5,542.9L544.3,545.8L548.8,543.3L549.9,542.0L548.4,541.5L548.2,536.9L547.2,535.1L542.7,532.0L542.5,529.7L541.2,528.4L536.1,525.3L534.2,522.1L534.8,519.2L539.1,517.3L540.7,514.9L545.3,516.1L547.8,516.2L553.3,511.6L557.8,506.1L557.6,506.1L556.4,506.2L540.9,498.6L535.3,497.8L533.6,490.2L534.9,489.5L532.2,488.6Z " data-id="IT.RM" data-name="Roma" id="IT.RM"/>
utf-8utf-8<path d="M487.1,462.8L484.4,462.2L485.9,460.1L483.3,458.8L480.9,455.4L476.6,452.5L472.7,452.0L471.2,449.9L470.4,445.2L469.4,445.3L464.4,436.5L460.4,434.5L459.0,435.6L455.4,435.9L449.4,437.1L443.4,432.9L441.8,431.2L442.9,428.9L445.1,426.6L441.6,423.1L437.7,417.3L433.8,418.8L430.7,421.2L428.1,420.3L426.6,421.6L426.4,422.4L428.7,424.2L431.6,427.9L429.8,437.1L428.5,437.3L425.9,440.8L423.2,442.1L421.4,444.2L414.7,445.2L414.8,447.1L413.6,450.6L416.9,453.5L416.5,456.9L415.5,457.4L408.1,458.2L404.6,464.1L407.7,465.5L411.9,466.6L421.9,473.4L424.0,476.1L428.9,484.3L429.2,485.2L434.0,485.3L437.7,484.9L439.6,480.0L440.9,478.2L443.1,477.9L445.8,479.1L448.3,481.1L451.5,485.2L453.2,485.8L462.1,485.6L463.7,484.0L468.6,483.0L472.6,483.2L474.6,484.1L475.3,485.8L477.2,486.2L479.2,485.5L480.6,483.9L480.8,478.7L483.5,477.6L485.0,483.0L489.6,479.2L489.6,474.4L491.7,472.8L492.2,471.8L492.2,471.8L489.8,471.5L488.2,469.6L489.3,468.9L486.3,464.3L487.2,462.8L487.1,462.8Z " data-id="IT.VT" data-name="Viterbo" id="IT.VT"/>
utf-8utf-8<path d="M554.2,430.2L551.1,427.9L550.0,427.8L548.5,428.6L544.6,428.7L543.9,429.8L544.4,432.3L542.4,436.6L541.0,437.7L538.5,437.5L537.2,438.7L528.6,441.1L521.5,441.0L519.8,442.8L519.2,445.9L512.1,449.1L510.2,451.7L507.1,452.7L507.8,456.2L501.4,457.1L500.2,455.4L497.5,461.4L493.2,464.6L490.4,462.5L487.2,462.8L486.3,464.3L489.3,468.9L488.2,469.6L489.8,471.5L492.2,471.8L492.2,471.8L494.4,472.0L495.7,474.3L499.0,473.6L501.5,477.1L501.6,479.0L500.0,477.5L500.3,481.7L501.4,483.7L505.3,485.9L507.4,486.5L513.7,482.5L515.7,485.2L518.6,486.4L522.2,491.1L526.0,489.7L528.7,491.2L530.2,489.2L532.2,488.6L534.9,489.5L534.9,489.5L538.3,487.0L540.2,483.8L551.5,488.2L554.8,487.8L558.0,483.9L561.0,483.3L556.3,479.1L554.7,478.7L550.3,474.4L548.1,469.5L544.5,467.6L543.7,465.7L544.7,461.1L541.8,459.5L542.5,455.2L542.7,449.8L541.8,449.2L541.8,446.9L544.0,446.1L544.8,443.2L548.5,443.9L556.5,444.5L559.7,443.3L560.2,441.5L560.2,441.5L559.5,436.8L558.6,436.6L556.4,434.1L556.5,433.3L554.2,430.2Z " data-id="IT.RI" data-name="Rieti" id="IT.RI"/>
utf-8utf-8<path d="M607.8,528.2L605.0,527.5L599.6,525.2L597.9,525.8L594.7,523.9L592.8,521.1L587.2,519.6L581.9,523.6L578.4,523.7L575.4,521.0L567.3,517.5L563.3,517.6L563.0,513.6L559.4,506.7L557.8,506.1L557.8,506.1L553.3,511.6L547.8,516.2L545.3,516.1L540.7,514.9L539.1,517.3L534.8,519.2L534.2,522.1L536.1,525.3L541.2,528.4L542.5,529.7L542.7,532.0L547.2,535.1L548.2,536.9L548.4,541.5L549.9,542.0L551.3,541.6L553.0,545.7L557.7,547.5L560.7,553.2L557.8,555.4L557.6,556.6L562.7,560.0L571.1,560.2L572.3,557.9L571.8,554.4L574.7,554.8L581.6,558.7L587.0,567.0L589.8,568.1L592.4,566.1L595.0,565.4L599.3,568.8L601.7,569.2L604.8,567.0L607.9,566.8L608.6,566.6L608.2,564.3L608.2,560.2L607.0,558.3L610.0,556.6L614.3,553.2L615.1,553.2L616.6,551.6L618.6,547.8L618.3,544.5L617.0,542.1L616.9,538.7L612.9,532.6L612.4,531.7L607.8,528.2Z " data-id="IT.FR" data-name="Frosinone" id="IT.FR"/>
utf-8utf-8<path d="M575.2,620.7L575.6,619.7L574.3,621.2L575.2,620.7Z M536.2,611.6L536.2,609.5L538.6,606.5L535.1,608.0L534.7,609.9L536.2,611.6Z M544.1,603.3L544.2,602.3L543.5,602.4L544.1,603.3Z M523.5,558.4L530.5,562.2L536.5,568.5L540.2,574.4L541.3,577.3L545.1,577.4L546.9,575.0L549.8,574.0L554.1,571.7L560.7,570.5L563.9,570.6L577.0,576.1L579.3,577.9L579.8,577.1L585.0,579.2L583.8,576.2L586.3,574.7L591.3,574.1L596.7,574.8L598.6,576.3L604.8,572.0L606.8,571.3L608.3,567.9L608.6,566.6L607.9,566.8L604.8,567.0L601.7,569.2L599.3,568.8L595.0,565.4L592.4,566.1L589.8,568.1L587.0,567.0L581.6,558.7L574.7,554.8L571.8,554.4L572.3,557.9L571.1,560.2L562.7,560.0L557.6,556.6L557.8,555.4L560.7,553.2L557.7,547.5L553.0,545.7L551.3,541.6L549.9,542.0L548.8,543.3L544.3,545.8L540.5,542.9L537.2,542.6L535.6,537.7L531.6,534.3L530.1,530.2L527.6,529.3L522.9,530.4L523.0,534.6L520.9,538.1L518.2,538.7L516.2,542.1L514.9,543.0L510.8,539.8L507.6,540.0L505.5,534.1L503.9,534.0L499.7,536.9L499.3,538.8L500.8,542.1L503.2,544.8L508.2,547.2L510.0,549.4L513.3,550.8L517.4,555.9L518.0,558.1L523.5,558.4Z " data-id="IT.LT" data-name="Latina" id="IT.LT"/>
utf-8utf-8<path d="M574.0,350.6L572.2,346.8L570.6,346.5L567.5,342.5L563.1,341.5L559.6,341.5L555.7,340.3L543.4,333.7L537.0,329.0L532.2,331.2L528.2,331.9L527.4,335.6L523.4,338.2L520.1,343.9L516.3,347.4L504.8,357.4L504.9,359.1L504.3,365.1L505.0,366.8L508.1,370.9L508.8,374.6L513.8,382.2L513.9,382.4L514.8,381.7L516.9,380.4L516.1,375.9L516.4,375.3L521.0,376.0L526.2,372.4L529.8,367.4L532.0,360.6L532.5,360.4L538.6,362.3L543.9,358.2L545.3,357.8L548.6,362.6L552.3,363.4L556.7,361.3L567.6,358.7L569.9,359.3L571.0,361.1L575.0,360.0L574.6,357.5L576.8,356.1L574.0,350.6Z " data-id="IT.AN" data-name="Ancona" id="IT.AN"/>
utf-8utf-8<path d="M517.4,314.7L515.8,312.9L510.3,311.0L505.4,307.9L501.5,307.4L501.4,307.3L500.7,314.6L496.5,319.3L489.1,315.7L488.0,314.8L486.2,316.9L485.1,314.6L479.7,311.6L479.6,311.7L478.4,314.4L475.6,315.2L474.9,314.9L470.1,316.9L468.3,321.5L464.5,324.7L464.9,326.6L464.7,327.3L465.1,327.5L466.3,328.3L470.6,332.9L468.3,335.7L467.4,334.8L466.2,331.2L464.5,335.0L458.4,338.4L457.9,339.5L459.0,342.2L459.4,342.8L463.6,343.6L465.2,344.5L467.6,342.9L470.8,341.9L471.6,342.4L470.9,346.9L467.4,347.6L468.7,349.1L473.9,351.2L478.7,350.0L484.4,352.4L492.5,360.5L494.6,359.4L499.5,360.1L502.7,357.5L504.8,357.4L516.3,347.4L520.1,343.9L523.4,338.2L527.4,335.6L528.2,331.9L532.2,331.2L537.0,329.0L517.4,314.7Z M477.5,344.8L475.5,342.8L477.8,341.2L478.3,341.9L477.5,344.8Z " data-id="IT.PU" data-name="Pesaro e Urbino" id="IT.PU"/>
utf-8utf-8<path d="M576.8,356.1L574.6,357.5L575.0,360.0L571.0,361.1L569.9,359.3L567.6,358.7L556.7,361.3L552.3,363.4L548.6,362.6L545.3,357.8L543.9,358.2L538.6,362.3L532.5,360.4L532.0,360.6L529.8,367.4L526.2,372.4L521.0,376.0L516.4,375.3L516.1,375.9L516.9,380.4L514.8,381.7L513.9,382.4L514.3,383.9L512.8,388.6L513.8,390.2L516.3,391.3L517.5,392.7L520.3,406.2L524.5,409.6L526.0,413.7L527.2,412.8L527.3,410.8L529.6,410.9L535.2,413.6L541.8,419.9L546.3,417.6L547.5,413.2L545.2,408.6L545.1,407.4L548.5,405.4L554.9,398.9L557.2,398.1L561.2,401.5L564.3,399.7L564.8,397.9L564.0,395.2L562.6,394.3L561.8,391.6L562.4,388.3L569.2,381.9L573.8,382.0L574.7,381.0L574.3,376.4L577.0,375.4L585.9,374.0L576.8,356.1Z " data-id="IT.MC" data-name="Macerata" id="IT.MC"/>
utf-8utf-8<path d="M595.6,393.6L594.2,390.2L589.8,383.0L589.1,379.5L587.3,376.8L585.9,374.0L577.0,375.4L574.3,376.4L574.7,381.0L573.8,382.0L569.2,381.9L562.4,388.3L561.8,391.6L562.6,394.3L564.0,395.2L564.8,397.9L564.3,399.7L561.2,401.5L557.2,398.1L554.9,398.9L548.5,405.4L545.1,407.4L545.2,408.6L547.5,413.2L548.2,413.1L551.6,410.1L556.1,411.1L559.4,413.3L560.0,412.3L559.8,406.6L560.5,405.7L572.0,403.4L577.8,399.7L590.1,395.1L596.1,396.0L595.6,393.6Z " data-id="IT.FM" data-name="Fermo" id="IT.FM"/>
utf-8utf-8<path d="M547.5,413.2L546.3,417.6L546.9,417.8L549.3,423.0L548.0,426.0L544.5,427.3L544.6,428.7L548.5,428.6L550.0,427.8L551.1,427.9L554.2,430.2L556.5,433.3L562.5,432.6L564.9,429.3L568.3,428.1L571.5,421.5L575.4,422.0L578.1,421.1L582.4,421.1L583.8,420.6L585.1,417.6L594.3,413.7L601.4,412.3L597.5,401.9L596.1,396.0L590.1,395.1L577.8,399.7L572.0,403.4L560.5,405.7L559.8,406.6L560.0,412.3L559.4,413.3L556.1,411.1L551.6,410.1L548.2,413.1L547.5,413.2Z " data-id="IT.AP" data-name="Ascoli Piceno" id="IT.AP"/>
utf-8utf-8<path d="M459.0,342.2L455.3,348.9L454.0,350.5L452.0,350.9L453.6,356.1L449.7,359.2L448.1,359.8L446.6,361.8L449.8,363.3L449.7,364.9L453.7,367.1L459.0,372.8L459.4,371.9L461.7,373.2L456.6,377.1L454.7,377.1L451.6,378.6L447.5,377.7L446.8,378.1L445.6,383.3L441.3,385.4L441.1,385.6L440.4,386.2L438.8,389.2L439.6,395.2L441.4,395.7L443.8,398.1L443.8,399.9L441.2,407.0L440.8,410.5L442.5,413.1L441.4,415.0L441.0,415.2L441.8,415.8L445.1,415.5L446.4,414.7L447.7,411.6L449.6,409.5L451.8,408.7L470.8,411.0L473.2,413.6L473.3,416.6L471.3,422.5L470.8,425.5L471.5,427.4L474.7,428.0L475.8,429.5L476.2,434.1L477.6,434.4L480.1,431.4L484.0,432.9L487.4,429.5L488.9,429.1L491.7,431.1L493.8,430.3L495.5,427.6L497.1,429.4L498.4,433.7L505.3,439.3L506.3,441.9L507.9,441.7L508.5,439.3L510.8,438.4L513.9,436.1L517.1,434.9L520.1,437.9L520.9,440.4L521.5,441.0L528.6,441.1L537.2,438.7L538.5,437.5L541.0,437.7L542.4,436.6L544.4,432.3L543.9,429.8L544.6,428.7L544.5,427.3L548.0,426.0L549.3,423.0L546.9,417.8L546.3,417.6L541.8,419.9L535.2,413.6L529.6,410.9L527.3,410.8L527.2,412.8L526.0,413.7L524.5,409.6L520.3,406.2L517.5,392.7L516.3,391.3L513.8,390.2L512.8,388.6L514.3,383.9L513.9,382.4L513.8,382.2L508.8,374.6L508.1,370.9L505.0,366.8L504.3,365.1L504.9,359.1L504.8,357.4L502.7,357.5L499.5,360.1L494.6,359.4L492.5,360.5L484.4,352.4L478.7,350.0L473.9,351.2L468.7,349.1L467.4,347.6L470.9,346.9L471.6,342.4L470.8,341.9L467.6,342.9L465.2,344.5L463.6,343.6L459.4,342.8L459.0,342.2Z M477.5,344.8L478.3,341.9L477.8,341.2L475.5,342.8L477.5,344.8Z " data-id="IT.PG" data-name="Perugia" id="IT.PG"/>
utf-8utf-8<path d="M520.9,440.4L520.1,437.9L517.1,434.9L513.9,436.1L510.8,438.4L508.5,439.3L507.9,441.7L506.3,441.9L505.3,439.3L498.4,433.7L497.1,429.4L495.5,427.6L493.8,430.3L491.7,431.1L488.9,429.1L487.4,429.5L484.0,432.9L480.1,431.4L477.6,434.4L476.2,434.1L475.8,429.5L474.7,428.0L471.5,427.4L470.8,425.5L471.3,422.5L473.3,416.6L473.2,413.6L470.8,411.0L451.8,408.7L449.6,409.5L447.7,411.6L446.4,414.7L445.1,415.5L441.8,415.8L441.0,415.2L437.7,417.3L441.6,423.1L445.1,426.6L442.9,428.9L441.8,431.2L443.4,432.9L449.4,437.1L455.4,435.9L459.0,435.6L460.4,434.5L464.4,436.5L469.4,445.3L470.4,445.2L471.2,449.9L472.7,452.0L476.6,452.5L480.9,455.4L483.3,458.8L485.9,460.1L484.4,462.2L487.1,462.8L487.2,462.8L490.4,462.5L493.2,464.6L497.5,461.4L500.2,455.4L501.4,457.1L507.8,456.2L507.1,452.7L510.2,451.7L512.1,449.1L519.2,445.9L519.8,442.8L521.5,441.0L520.9,440.4Z " data-id="IT.TR" data-name="Terni" id="IT.TR"/>
utf-8utf-8<path d="M113.3,165.5L114.1,163.1L113.6,162.1L110.1,160.3L101.6,153.7L102.5,150.3L101.2,146.9L93.5,149.0L89.4,151.0L74.5,148.2L70.6,149.5L69.2,149.4L61.8,154.7L48.1,158.7L44.2,158.2L42.2,157.1L42.4,156.2L37.2,160.4L37.7,161.1L44.2,167.1L42.0,171.2L39.1,174.5L40.6,180.8L38.4,182.4L37.0,184.9L34.3,183.9L31.5,184.6L25.2,189.6L22.0,190.0L22.4,192.5L19.8,193.6L13.9,191.3L10.4,191.2L9.0,192.1L5.6,192.6L2.8,194.0L0.5,196.2L3.3,199.1L4.6,202.9L8.3,203.7L10.5,205.1L11.1,207.9L11.1,213.4L12.6,215.5L15.3,217.5L20.9,220.3L22.4,220.6L27.8,220.0L31.9,221.5L33.7,223.3L35.1,232.1L36.8,234.7L39.9,234.5L46.0,231.0L59.7,227.5L61.2,228.0L61.9,230.3L71.9,230.0L73.4,229.6L82.0,222.7L85.7,223.7L86.0,224.8L94.0,224.6L97.6,221.8L103.6,223.4L106.4,223.4L109.1,221.5L108.3,220.8L106.6,217.9L104.3,215.3L105.4,209.8L107.5,207.7L108.0,201.5L107.0,201.1L104.8,197.1L106.1,196.8L111.7,194.0L114.9,193.3L116.4,193.8L119.2,196.4L120.4,194.0L121.6,193.8L123.0,194.3L123.6,193.0L123.9,190.6L124.6,189.8L123.6,189.0L119.7,188.0L117.2,188.4L111.1,180.4L111.0,176.1L108.3,174.0L109.6,172.6L112.6,172.8L113.7,171.7L112.3,166.7L113.7,166.7L113.3,165.5Z " data-id="IT.TO" data-name="Turin" id="IT.TO"/>
utf-8utf-8<path d="M120.6,169.1L123.2,167.3L124.9,163.4L127.7,162.1L129.4,159.3L131.3,157.8L134.0,152.9L134.1,151.5L131.9,147.7L133.9,144.1L133.0,141.1L123.8,132.6L120.5,131.7L117.0,134.0L116.6,135.2L112.3,133.8L105.7,135.0L103.6,134.4L103.6,135.7L104.1,142.4L103.6,143.7L101.2,146.9L102.5,150.3L101.6,153.7L110.1,160.3L113.6,162.1L114.1,163.1L113.3,165.5L113.7,166.7L120.6,169.1Z " data-id="IT.BI" data-name="Biella" id="IT.BI"/>
utf-8utf-8<path d="M135.5,130.5L136.2,124.7L135.6,122.1L133.7,120.6L131.2,117.0L126.3,114.8L126.1,113.1L124.4,112.8L116.8,115.2L112.7,114.4L107.6,117.2L106.2,117.3L101.5,115.1L99.7,114.9L98.0,115.6L97.5,115.8L100.1,131.1L100.8,132.1L103.4,133.5L103.6,134.4L105.7,135.0L112.3,133.8L116.6,135.2L117.0,134.0L120.5,131.7L123.8,132.6L133.0,141.1L133.9,144.1L131.9,147.7L134.1,151.5L134.0,152.9L131.3,157.8L129.4,159.3L127.7,162.1L124.9,163.4L123.2,167.3L120.6,169.1L113.7,166.7L112.3,166.7L113.7,171.7L112.6,172.8L109.6,172.6L108.3,174.0L111.0,176.1L111.1,180.4L117.2,188.4L119.7,188.0L123.6,189.0L124.6,189.8L125.2,189.9L126.3,190.7L128.4,189.0L130.2,190.1L134.0,188.8L139.3,189.5L142.0,187.0L144.8,186.2L152.2,186.9L155.2,189.3L157.1,190.2L156.9,189.7L157.2,187.4L154.9,183.7L155.1,183.0L152.1,178.0L152.9,175.6L153.0,175.5L151.2,175.0L149.5,173.3L151.8,172.1L147.7,168.5L144.1,164.6L142.1,146.6L141.5,145.1L138.8,143.0L135.2,137.6L136.6,137.1L139.9,137.4L141.1,134.8L138.8,131.7L138.1,130.2L135.5,130.5Z " data-id="IT.VC" data-name="Vercelli" id="IT.VC"/>
utf-8utf-8<path d="M166.6,96.8L164.3,98.2L162.9,98.1L156.8,95.5L151.5,89.0L149.1,87.0L143.2,84.3L142.3,82.7L142.0,77.8L143.1,72.6L142.7,64.5L141.5,63.2L134.8,63.6L131.1,66.2L131.4,69.2L129.3,71.6L127.1,72.5L123.4,77.0L121.7,78.0L115.1,80.7L114.4,81.7L118.8,88.2L119.1,91.8L117.5,95.1L110.9,98.6L109.0,106.6L108.1,107.7L101.2,109.4L100.0,110.2L99.1,113.5L97.4,113.6L98.0,115.6L99.7,114.9L101.5,115.1L106.2,117.3L107.6,117.2L112.7,114.4L116.8,115.2L124.4,112.8L126.1,113.1L126.3,114.8L131.2,117.0L133.7,120.6L135.6,122.1L136.2,124.7L135.5,130.5L138.1,130.2L139.1,129.6L140.5,126.2L141.0,122.8L143.1,123.6L146.6,120.6L149.5,122.9L149.8,124.1L154.1,123.0L157.7,124.9L157.9,124.5L156.9,115.8L166.7,106.4L167.6,104.2L167.0,96.9L166.6,96.8Z " data-id="IT.VB" data-name="Verbano-Cusio-Ossola" id="IT.VB"/>
utf-8utf-8<path d="M154.1,123.0L149.8,124.1L149.5,122.9L146.6,120.6L143.1,123.6L141.0,122.8L140.5,126.2L139.1,129.6L138.1,130.2L138.8,131.7L141.1,134.8L139.9,137.4L136.6,137.1L135.2,137.6L138.8,143.0L141.5,145.1L142.1,146.6L144.1,164.6L147.7,168.5L151.8,172.1L149.5,173.3L151.2,175.0L153.0,175.5L153.0,175.5L156.3,170.3L161.9,171.2L164.7,175.2L168.3,176.4L169.3,173.3L172.3,171.5L170.9,169.9L172.9,167.9L178.2,166.1L176.7,164.6L174.2,159.5L169.3,155.9L167.7,152.1L167.4,151.5L167.3,151.0L166.4,146.5L163.9,143.3L164.7,140.0L162.2,138.8L162.4,136.1L159.7,134.6L155.2,127.6L157.6,125.2L157.7,124.9L154.1,123.0Z " data-id="IT.NO" data-name="Novara" id="IT.NO"/>
utf-8utf-8<path d="M155.2,189.3L152.2,186.9L144.8,186.2L142.0,187.0L139.3,189.5L134.0,188.8L130.2,190.1L128.4,189.0L126.3,190.7L125.2,189.9L124.6,189.8L123.9,190.6L123.6,193.0L123.0,194.3L121.8,195.8L123.1,199.6L125.9,202.7L128.4,202.6L131.0,205.0L132.0,200.9L137.2,199.3L140.9,203.1L142.0,207.5L143.7,208.3L144.4,210.0L144.2,212.9L142.6,215.1L143.6,219.8L150.3,225.5L153.0,225.7L153.9,226.6L154.1,229.3L152.5,230.8L148.1,232.6L147.2,236.7L142.2,236.9L143.0,240.7L142.6,242.6L140.3,244.4L140.7,246.7L143.7,248.0L141.3,249.7L138.5,249.6L137.3,252.2L136.3,253.4L136.5,253.6L140.2,255.9L145.0,256.9L146.4,254.9L153.3,253.8L160.4,254.0L161.8,253.1L163.3,250.7L162.9,249.8L165.6,246.9L176.7,253.3L176.9,255.4L180.0,252.7L181.9,249.6L187.9,248.7L185.1,242.7L187.6,239.5L187.9,238.2L191.5,237.6L203.1,244.3L203.8,246.0L206.1,247.4L208.9,247.3L211.2,245.8L211.5,244.4L211.0,237.7L211.2,233.9L208.2,227.5L205.6,224.5L201.8,224.3L198.0,221.3L198.0,217.9L193.5,214.5L191.3,211.9L191.2,209.6L183.7,201.8L181.2,200.6L175.2,203.7L166.7,204.0L164.8,202.3L161.5,195.8L158.6,192.9L157.7,191.0L157.1,190.2L155.2,189.3Z " data-id="IT.AL" data-name="Alessandria" id="IT.AL"/>
utf-8utf-8<path d="M121.6,193.8L120.4,194.0L119.2,196.4L116.4,193.8L114.9,193.3L111.7,194.0L106.1,196.8L104.8,197.1L107.0,201.1L108.0,201.5L107.5,207.7L105.4,209.8L104.3,215.3L106.6,217.9L108.3,220.8L109.1,221.5L110.5,220.7L111.6,221.1L114.3,225.1L118.7,225.3L121.1,224.2L124.2,224.9L123.8,227.5L121.5,230.5L126.5,234.7L129.4,231.1L131.9,233.2L135.6,234.5L135.6,235.6L130.4,242.5L130.4,244.3L134.2,248.0L134.4,250.8L135.0,252.2L135.9,252.9L136.3,253.4L137.3,252.2L138.5,249.6L141.3,249.7L143.7,248.0L140.7,246.7L140.3,244.4L142.6,242.6L143.0,240.7L142.2,236.9L147.2,236.7L148.1,232.6L152.5,230.8L154.1,229.3L153.9,226.6L153.0,225.7L150.3,225.5L143.6,219.8L142.6,215.1L144.2,212.9L144.4,210.0L143.7,208.3L142.0,207.5L140.9,203.1L137.2,199.3L132.0,200.9L131.0,205.0L128.4,202.6L125.9,202.7L123.1,199.6L121.8,195.8L123.0,194.3L121.6,193.8Z " data-id="IT.AT" data-name="Asti" id="IT.AT"/>
utf-8utf-8<path d="M134.4,250.8L134.2,248.0L130.4,244.3L130.4,242.5L135.6,235.6L135.6,234.5L131.9,233.2L129.4,231.1L126.5,234.7L121.5,230.5L123.8,227.5L124.2,224.9L121.1,224.2L118.7,225.3L114.3,225.1L111.6,221.1L110.5,220.7L109.1,221.5L106.4,223.4L103.6,223.4L97.6,221.8L94.0,224.6L86.0,224.8L85.7,223.7L82.0,222.7L73.4,229.6L71.9,230.0L61.9,230.3L61.2,228.0L59.7,227.5L46.0,231.0L39.9,234.5L36.8,234.7L37.7,236.1L38.2,237.4L32.4,236.7L30.6,237.6L28.6,241.2L29.6,243.2L28.5,244.0L25.9,248.2L21.9,250.9L21.1,252.2L21.4,255.3L23.3,258.0L28.0,261.8L24.0,268.1L24.4,269.0L29.5,275.6L35.0,281.3L38.0,280.8L43.8,283.3L47.1,284.3L55.8,288.9L60.6,290.2L62.4,292.3L66.4,292.6L80.3,289.0L82.7,288.9L85.9,287.0L88.4,287.4L87.4,290.5L91.4,295.7L91.4,295.7L95.3,294.5L94.6,293.4L96.8,290.5L100.9,292.0L116.5,293.2L116.6,293.0L116.7,292.7L116.0,288.9L120.0,289.1L120.9,288.6L122.7,284.5L121.9,283.5L121.6,279.5L123.0,273.3L126.5,270.3L128.2,266.0L131.9,263.2L133.9,252.4L135.0,252.2L134.4,250.8Z " data-id="IT.CN" data-name="Cuneo" id="IT.CN"/>
utf-8utf-8<path d="M97.4,113.6L97.2,115.3L92.0,115.7L88.1,114.5L85.0,114.7L82.1,111.6L80.8,111.0L72.6,109.2L69.7,111.9L65.7,113.0L61.1,116.0L58.6,116.8L52.5,116.2L44.4,119.5L37.0,119.5L35.1,118.5L31.4,115.0L30.2,115.5L27.3,120.5L22.3,122.9L19.8,123.0L19.6,124.6L17.4,123.6L15.2,124.2L12.7,127.9L12.7,129.7L14.0,135.5L15.7,137.6L17.9,139.0L27.6,143.2L28.2,144.6L27.0,147.8L29.6,156.0L33.3,157.8L37.2,160.4L37.2,160.4L42.4,156.2L42.2,157.1L44.2,158.2L48.1,158.7L61.8,154.7L69.2,149.4L70.6,149.5L74.5,148.2L89.4,151.0L93.5,149.0L101.2,146.9L103.6,143.7L104.1,142.4L103.6,135.7L103.6,134.4L103.4,133.5L100.8,132.1L100.1,131.1L97.5,115.8L98.0,115.6L97.4,113.6L97.4,113.6Z " data-id="IT.AO" data-name="Aoste" id="IT.AO"/>
utf-8utf-8<path d="M277.5,102.3L276.4,102.0L276.3,98.6L262.8,101.4L258.5,103.3L248.7,101.4L238.8,102.5L232.0,106.5L231.1,106.5L228.3,106.5L232.2,112.2L232.1,114.8L229.6,120.6L227.6,121.7L228.3,125.6L230.6,128.4L226.6,131.3L226.0,132.4L226.9,137.3L228.0,139.0L229.2,140.1L230.4,142.7L232.2,144.8L233.0,146.8L233.6,153.0L232.1,155.9L233.0,156.8L236.7,161.2L239.7,159.9L244.4,163.0L245.6,163.3L248.6,158.8L250.1,159.3L253.1,163.9L257.1,161.5L263.0,164.3L263.0,164.3L262.7,160.8L260.0,153.2L259.5,149.2L260.5,146.8L262.2,145.2L264.9,140.7L273.4,138.8L275.6,137.6L276.1,135.7L275.0,129.0L278.3,123.3L280.2,121.2L278.3,119.6L277.2,117.4L277.2,114.8L278.7,112.3L283.1,109.8L285.3,107.2L289.8,105.9L286.6,102.7L282.2,102.0L277.5,102.3Z " data-id="IT.BG" data-name="Bergamo" id="IT.BG"/>
utf-8utf-8<path d="M301.7,54.3L300.2,54.6L284.8,50.6L284.5,46.4L281.2,45.5L272.7,48.5L271.9,51.7L269.0,54.8L269.0,57.7L270.2,61.4L268.9,63.4L270.2,64.8L278.2,67.7L277.7,69.9L275.0,72.8L274.7,74.1L275.8,77.0L279.2,79.9L280.4,81.6L279.4,83.5L273.9,85.8L271.3,85.8L270.2,81.9L265.7,78.1L264.3,72.3L262.3,71.2L255.6,71.3L250.4,73.6L244.1,73.7L244.2,76.7L241.6,78.7L232.4,78.6L227.7,75.9L223.4,70.9L222.7,68.4L221.8,58.9L220.9,58.4L217.7,61.4L213.2,57.9L209.4,58.3L206.1,64.4L208.0,66.3L208.2,70.0L209.4,73.5L209.2,77.0L207.0,81.2L206.0,84.7L208.1,84.3L214.3,84.3L218.0,86.6L221.7,85.9L223.3,86.4L222.6,88.3L222.3,91.8L222.2,92.3L221.5,94.1L223.4,99.3L229.5,101.4L230.6,105.0L231.1,106.5L232.0,106.5L238.8,102.5L248.7,101.4L258.5,103.3L262.8,101.4L276.3,98.6L276.4,102.0L277.5,102.3L282.2,102.0L282.8,100.1L280.6,94.3L281.0,91.9L282.4,90.5L291.1,85.7L291.9,84.3L292.9,80.1L293.9,79.1L296.8,78.6L302.8,73.1L304.8,72.5L307.9,74.3L309.4,73.7L309.8,72.6L311.2,71.5L314.8,71.2L316.4,70.4L317.9,68.1L316.8,63.3L316.5,62.6L315.8,62.0L309.7,59.1L305.9,58.6L302.2,53.4L301.7,54.3Z " data-id="IT.SO" data-name="Sondrio" id="IT.SO"/>
utf-8utf-8<path d="M307.9,74.3L304.8,72.5L302.8,73.1L296.8,78.6L293.9,79.1L292.9,80.1L291.9,84.3L291.1,85.7L282.4,90.5L281.0,91.9L280.6,94.3L282.8,100.1L282.2,102.0L286.6,102.7L289.8,105.9L285.3,107.2L283.1,109.8L278.7,112.3L277.2,114.8L277.2,117.4L278.3,119.6L280.2,121.2L278.3,123.3L275.0,129.0L276.1,135.7L275.6,137.6L273.4,138.8L264.9,140.7L262.2,145.2L260.5,146.8L259.5,149.2L260.0,153.2L262.7,160.8L263.0,164.3L263.0,164.3L263.1,166.2L262.8,169.9L271.2,176.2L278.7,179.0L281.4,180.8L290.5,183.5L294.1,181.8L297.6,184.9L298.3,186.2L299.4,186.4L301.8,185.2L304.7,179.0L307.2,175.3L309.7,173.0L308.4,168.0L311.2,165.7L321.4,168.7L322.5,168.1L324.8,165.1L324.8,165.0L322.4,150.9L322.4,146.3L330.0,135.6L331.1,134.4L334.2,128.5L337.3,124.1L335.8,123.3L331.1,123.3L327.9,122.6L326.4,123.0L323.1,126.3L316.3,127.9L314.5,127.1L310.6,120.9L310.1,118.7L310.6,115.3L308.7,110.7L305.8,109.5L307.0,105.5L308.0,105.0L309.0,101.1L310.2,99.1L313.2,92.1L313.1,89.6L314.9,84.5L312.6,75.7L309.4,73.7L307.9,74.3Z " data-id="IT.BS" data-name="Brescia" id="IT.BS"/>
utf-8utf-8<path d="M370.0,195.3L362.4,195.5L360.4,196.7L357.8,194.9L357.3,191.4L353.9,191.3L348.7,185.7L340.6,180.5L339.5,178.7L336.9,176.5L333.9,177.3L331.6,175.2L328.2,174.8L328.9,173.9L328.1,164.7L326.9,164.6L324.8,165.1L322.5,168.1L321.4,168.7L311.2,165.7L308.4,168.0L309.7,173.0L307.2,175.3L304.7,179.0L301.8,185.2L299.4,186.4L298.3,186.2L298.8,188.3L304.6,191.4L311.7,192.0L312.8,194.3L311.0,197.0L306.7,198.3L306.8,202.2L311.3,200.8L312.9,200.8L315.5,198.5L316.4,199.5L316.2,202.5L311.4,205.3L310.5,208.1L311.9,208.1L316.6,206.1L319.0,206.0L318.9,208.0L317.3,209.6L313.1,211.0L311.4,212.6L314.7,214.0L314.5,214.3L314.7,214.4L319.7,214.7L322.5,214.0L325.0,212.4L328.5,207.7L333.4,207.9L334.5,208.7L335.5,212.0L343.3,213.6L344.7,214.4L345.6,214.9L345.7,214.9L352.5,212.7L354.4,211.0L361.0,210.1L369.4,213.1L375.1,211.6L376.6,212.1L378.7,210.3L384.2,210.5L388.3,211.3L388.0,209.7L385.6,209.0L378.6,205.1L375.9,203.1L375.8,200.5L371.0,200.6L369.5,200.0L369.4,196.9L370.5,196.1L370.0,195.3Z " data-id="IT.MN" data-name="Mantova" id="IT.MN"/>
utf-8utf-8<path d="M257.1,161.5L253.1,163.9L250.1,159.3L248.6,158.8L245.6,163.3L244.4,163.0L239.7,159.9L236.7,161.2L233.0,156.8L232.1,155.9L230.0,160.9L229.4,161.9L229.2,162.4L229.3,168.9L230.6,169.3L233.9,172.3L237.2,171.8L237.3,170.2L238.8,170.9L241.1,176.0L246.6,179.7L249.0,180.3L254.4,185.1L256.3,188.8L262.4,190.6L263.1,191.3L263.8,193.2L265.4,192.8L267.0,193.6L266.5,195.8L272.1,193.7L275.0,195.5L277.2,199.9L279.4,202.7L282.1,202.9L288.3,201.8L291.6,202.6L300.1,207.3L302.0,208.0L305.9,207.3L307.1,207.9L309.8,212.6L312.6,213.9L314.5,214.3L314.7,214.0L311.4,212.6L313.1,211.0L317.3,209.6L318.9,208.0L319.0,206.0L316.6,206.1L311.9,208.1L310.5,208.1L311.4,205.3L316.2,202.5L316.4,199.5L315.5,198.5L312.9,200.8L311.3,200.8L306.8,202.2L306.7,198.3L311.0,197.0L312.8,194.3L311.7,192.0L304.6,191.4L298.8,188.3L298.3,186.2L297.6,184.9L294.1,181.8L290.5,183.5L281.4,180.8L278.7,179.0L271.2,176.2L262.8,169.9L263.1,166.2L263.0,164.3L257.1,161.5Z " data-id="IT.CR" data-name="Cremona" id="IT.CR"/>
utf-8utf-8<path d="M228.4,160.3L224.9,162.4L224.9,166.2L222.9,167.4L220.9,170.9L222.6,175.0L222.4,176.2L220.6,175.5L219.3,175.6L218.9,176.6L217.4,182.1L218.9,181.9L226.7,186.7L227.8,187.9L235.4,190.1L236.6,192.4L236.7,193.3L237.2,193.1L239.0,195.1L240.4,195.3L243.4,193.7L244.0,196.7L247.9,199.0L251.2,199.3L253.5,198.3L253.4,195.8L258.3,198.1L260.1,199.7L265.3,196.6L264.0,194.8L263.8,193.2L263.1,191.3L262.4,190.6L256.3,188.8L254.4,185.1L249.0,180.3L246.6,179.7L241.1,176.0L238.8,170.9L237.3,170.2L237.2,171.8L233.9,172.3L230.6,169.3L229.3,168.9L229.2,162.4L229.4,161.9L228.4,160.3Z " data-id="IT.LO" data-name="Lodi" id="IT.LO"/>
utf-8utf-8<path d="M218.6,175.4L215.9,173.9L214.1,174.5L209.7,174.1L205.9,176.9L195.6,176.5L193.1,174.2L191.1,174.7L193.1,178.9L190.9,180.3L187.4,176.4L181.0,171.0L178.2,166.1L172.9,167.9L170.9,169.9L172.3,171.5L169.3,173.3L168.3,176.4L164.7,175.2L161.9,171.2L156.3,170.3L153.0,175.5L153.0,175.5L152.9,175.6L152.1,178.0L155.1,183.0L154.9,183.7L157.2,187.4L156.9,189.7L157.1,190.2L157.7,191.0L158.6,192.9L161.5,195.8L164.8,202.3L166.7,204.0L175.2,203.7L181.2,200.6L183.7,201.8L191.2,209.6L191.3,211.9L193.5,214.5L198.0,217.9L198.0,221.3L201.8,224.3L205.6,224.5L208.2,227.5L211.2,233.9L211.0,237.7L213.6,238.0L214.3,237.6L214.6,234.5L215.8,235.7L219.1,236.5L220.4,235.6L220.2,232.9L219.1,230.1L222.8,223.5L221.6,218.9L220.1,218.3L218.1,216.0L218.2,214.9L224.0,202.0L227.1,196.4L234.1,196.4L235.8,197.7L236.9,196.8L236.7,193.3L236.7,193.3L236.6,192.4L235.4,190.1L227.8,187.9L226.7,186.7L218.9,181.9L217.4,182.1L218.9,176.6L219.3,175.6L218.6,175.4Z " data-id="IT.PV" data-name="Pavia" id="IT.PV"/>
utf-8utf-8<path d="M233.6,153.0L233.0,146.8L232.2,144.8L230.4,142.7L229.3,145.6L227.8,147.3L220.9,151.4L216.8,151.7L217.1,153.2L215.7,153.2L206.4,149.5L204.8,148.1L199.9,148.6L199.4,145.0L195.0,144.9L196.0,147.8L191.4,149.5L190.0,149.2L188.6,145.7L184.9,145.6L181.6,147.3L180.8,149.1L177.9,150.3L175.9,147.8L174.4,147.0L170.7,150.7L168.2,150.8L167.4,151.5L167.7,152.1L169.3,155.9L174.2,159.5L176.7,164.6L178.2,166.1L181.0,171.0L187.4,176.4L190.9,180.3L193.1,178.9L191.1,174.7L193.1,174.2L195.6,176.5L205.9,176.9L209.7,174.1L214.1,174.5L215.9,173.9L218.6,175.4L219.3,175.6L220.6,175.5L222.4,176.2L222.6,175.0L220.9,170.9L222.9,167.4L224.9,166.2L224.9,162.4L228.4,160.3L229.4,161.9L230.0,160.9L232.1,155.9L233.6,153.0Z " data-id="IT.MI" data-name="Milano" id="IT.MI"/>
utf-8utf-8<path d="M181.9,124.8L182.8,120.9L182.6,119.2L177.9,111.9L173.2,109.8L170.6,109.3L172.3,105.8L174.5,103.4L175.6,101.1L173.4,98.7L167.0,96.9L167.0,96.9L167.6,104.2L166.7,106.4L156.9,115.8L157.9,124.5L157.7,124.9L157.6,125.2L155.2,127.6L159.7,134.6L162.4,136.1L162.2,138.8L164.7,140.0L163.9,143.3L166.4,146.5L167.3,151.0L167.4,151.5L168.2,150.8L170.7,150.7L174.4,147.0L175.9,147.8L177.9,150.3L180.8,149.1L181.6,147.3L184.9,145.6L188.6,145.7L190.0,149.2L191.4,149.5L196.0,147.8L195.0,144.9L195.1,143.7L195.1,142.6L195.3,141.1L192.5,142.0L190.1,142.5L187.1,141.2L185.8,141.6L183.0,139.1L186.1,133.9L182.4,129.5L182.6,124.6L181.9,124.8Z " data-id="IT.VA" data-name="Varese" id="IT.VA"/>
utf-8utf-8<path d="M222.6,88.3L223.3,86.4L221.7,85.9L218.0,86.6L214.3,84.3L208.1,84.3L206.0,84.7L206.0,84.7L201.9,89.5L195.7,93.9L194.3,95.9L194.1,100.6L188.8,104.9L190.4,108.3L187.9,111.4L189.5,114.0L194.6,117.6L194.3,119.3L192.5,122.7L190.1,125.4L185.0,124.0L182.6,124.6L182.4,129.5L186.1,133.9L183.0,139.1L185.8,141.6L187.1,141.2L190.1,142.5L192.5,142.0L195.3,141.1L195.4,139.5L200.8,138.0L202.3,138.6L204.5,140.9L205.4,140.8L206.5,136.6L209.1,134.6L210.0,133.1L209.7,130.0L211.6,126.7L216.0,121.5L212.3,117.5L210.3,111.5L212.0,110.9L210.7,105.4L212.1,96.1L213.9,93.4L215.5,92.4L220.5,91.6L222.3,91.8L222.6,88.3Z " data-id="IT.CO" data-name="Como" id="IT.CO"/>
utf-8utf-8<path d="M220.5,91.6L215.5,92.4L213.9,93.4L212.1,96.1L210.7,105.4L212.0,110.9L210.3,111.5L212.3,117.5L216.0,121.5L211.6,126.7L209.7,130.0L210.0,133.1L210.5,133.3L211.4,133.1L215.8,140.7L218.3,140.2L220.4,141.7L222.5,140.0L225.3,142.1L226.7,141.9L229.2,140.1L228.0,139.0L226.9,137.3L226.0,132.4L226.6,131.3L230.6,128.4L228.3,125.6L227.6,121.7L229.6,120.6L232.1,114.8L232.2,112.2L228.3,106.5L231.1,106.5L230.6,105.0L229.5,101.4L223.4,99.3L221.5,94.1L222.2,92.3L222.3,91.8L220.5,91.6Z " data-id="IT.LC" data-name="Lecco" id="IT.LC"/>
utf-8utf-8<path d="M226.7,141.9L225.3,142.1L222.5,140.0L220.4,141.7L218.3,140.2L215.8,140.7L211.4,133.1L210.5,133.3L210.0,133.1L209.1,134.6L206.5,136.6L205.4,140.8L204.5,140.9L202.3,138.6L200.8,138.0L195.4,139.5L195.3,141.1L195.1,142.6L195.1,143.7L195.0,144.9L199.4,145.0L199.9,148.6L204.8,148.1L206.4,149.5L215.7,153.2L217.1,153.2L216.8,151.7L220.9,151.4L227.8,147.3L229.3,145.6L230.4,142.7L229.2,140.1L226.7,141.9Z " data-id="IT.MB" data-name="Monza e Brianza" id="IT.MB"/>
utf-8utf-8<path d="M484.5,44.1L486.2,53.9L478.5,56.4L477.0,58.9L479.0,60.0L479.5,61.7L473.2,61.7L469.9,62.3L467.5,63.8L466.7,65.8L466.2,67.6L467.2,68.2L469.5,71.6L473.8,71.7L477.9,74.0L481.6,74.5L486.5,73.8L490.5,72.3L494.7,72.9L499.8,74.2L502.3,74.3L504.1,75.9L505.1,81.3L504.7,84.1L503.3,86.4L503.2,92.0L501.3,111.4L501.5,114.0L502.5,116.4L507.2,120.6L507.4,123.2L509.0,124.1L510.1,129.2L514.5,135.4L516.6,139.9L518.4,142.0L518.4,142.0L518.9,140.4L521.6,138.4L522.4,136.9L516.5,137.6L516.0,136.0L516.7,134.6L520.0,132.9L519.1,132.5L519.6,130.2L521.3,131.9L526.4,129.6L538.4,133.3L539.7,132.9L540.8,134.3L544.1,134.9L544.6,129.5L541.5,118.6L541.7,115.8L545.4,107.0L545.4,107.0L546.8,103.2L548.5,101.1L557.0,95.2L559.0,91.6L558.3,89.8L552.0,89.4L547.9,86.4L540.9,85.0L542.1,86.7L540.0,87.0L537.7,83.5L535.9,78.9L537.9,77.8L540.9,72.6L548.3,69.2L553.6,63.8L558.2,63.5L560.4,61.3L560.4,58.7L558.6,56.2L548.8,53.5L545.4,53.4L543.0,51.8L538.2,52.1L534.7,51.6L526.7,53.0L516.5,49.7L509.9,48.4L491.2,47.2L486.5,44.7L484.5,44.1L484.5,44.1Z " data-id="IT.UD" data-name="Udine" id="IT.UD"/>
utf-8utf-8<path d="M507.2,120.6L502.5,116.4L501.5,114.0L501.3,111.4L503.2,92.0L503.3,86.4L504.7,84.1L505.1,81.3L504.1,75.9L502.3,74.3L499.8,74.2L494.7,72.9L490.5,72.3L486.5,73.8L481.6,74.5L477.9,74.0L473.8,71.7L469.5,71.6L467.2,68.2L466.2,67.6L466.0,68.3L461.6,74.7L457.6,76.6L454.4,79.7L455.8,83.4L457.9,84.9L460.5,85.2L463.6,86.9L464.3,89.3L467.0,91.6L468.0,95.0L467.6,97.5L464.2,99.0L461.9,102.6L462.2,103.4L462.2,103.5L466.8,112.6L471.8,117.3L475.1,123.6L478.7,124.8L479.6,124.3L483.0,126.0L483.7,127.2L485.1,127.4L488.2,124.7L491.2,123.6L494.6,123.0L495.2,124.7L499.2,122.8L501.3,124.9L506.6,124.1L507.4,123.2L507.2,120.6Z " data-id="IT.PN" data-name="Pordenone" id="IT.PN"/>
utf-8utf-8<path d="M545.4,107.0L541.7,115.8L541.5,118.6L544.6,129.5L544.1,134.9L545.0,136.6L544.5,137.5L540.7,139.0L542.8,139.7L544.8,139.2L548.8,136.3L551.0,135.9L554.6,133.6L552.5,133.3L552.0,131.4L552.7,129.2L554.0,128.2L555.8,128.4L556.6,128.7L556.9,126.8L556.3,126.5L554.9,124.4L554.9,121.0L557.0,116.3L558.5,111.0L557.1,109.1L551.9,110.7L549.5,110.9L546.5,108.0L545.4,107.0Z " data-id="IT.GO" data-name="Gorizia" id="IT.GO"/>
utf-8utf-8<path d="M556.9,126.8L556.6,128.7L560.3,130.1L568.6,136.9L571.4,141.8L570.0,142.3L573.1,143.7L575.7,145.8L569.5,145.9L568.1,147.9L572.1,147.6L575.3,149.1L579.1,148.7L582.0,145.3L582.5,144.1L579.5,142.3L572.5,133.0L562.7,128.2L558.6,127.6L556.9,126.8Z " data-id="IT.TS" data-name="Trieste" id="IT.TS"/>
utf-8utf-8<path d="M302.2,53.4L305.9,58.6L309.7,59.1L315.8,62.0L316.5,62.6L319.1,63.1L325.9,59.6L330.3,63.3L333.8,64.9L346.0,60.1L350.5,63.4L351.5,62.2L350.5,56.5L352.8,55.7L355.5,58.7L358.9,59.1L361.5,57.5L363.4,61.1L363.1,74.0L359.8,79.5L359.7,81.3L362.8,85.1L365.0,85.5L366.9,84.7L370.3,82.0L373.4,78.6L376.9,81.0L378.2,79.8L379.6,75.5L383.3,74.5L384.9,72.0L389.8,72.6L391.1,72.3L394.2,69.4L397.3,60.8L400.6,57.3L403.1,56.7L408.1,57.1L410.6,55.1L411.6,55.8L412.4,57.7L413.9,56.7L426.0,54.6L430.3,48.2L431.9,41.5L439.1,44.7L441.0,47.2L455.5,46.4L456.7,44.2L462.1,40.6L460.1,40.4L456.8,39.2L454.0,37.1L451.4,31.8L445.2,28.8L444.8,21.5L443.5,20.8L433.4,17.5L434.5,16.5L432.4,7.4L437.1,5.1L438.6,3.2L438.5,0.5L436.6,0.0L431.6,0.9L423.7,4.4L418.1,4.7L411.4,7.3L408.7,9.1L405.2,9.6L401.9,11.4L397.7,9.3L390.8,8.4L384.4,9.5L380.8,7.8L376.2,11.4L373.8,11.3L368.4,9.7L362.9,10.5L356.1,12.8L351.2,17.2L350.0,21.9L347.1,27.8L344.4,31.4L333.6,31.6L332.2,30.6L322.6,29.7L323.6,25.4L317.4,22.3L306.7,24.0L303.4,23.7L300.8,21.9L300.5,25.1L298.2,28.4L298.4,34.0L297.1,34.7L296.9,38.2L296.2,39.3L295.8,42.9L297.3,44.3L300.7,44.6L302.4,45.8L303.1,47.7L302.2,53.4L302.2,53.4Z " data-id="IT.BZ" data-name="Bozen" id="IT.BZ"/>
utf-8utf-8<path d="M411.6,55.8L410.6,55.1L408.1,57.1L403.1,56.7L400.6,57.3L397.3,60.8L394.2,69.4L391.1,72.3L389.8,72.6L384.9,72.0L383.3,74.5L379.6,75.5L378.2,79.8L376.9,81.0L373.4,78.6L370.3,82.0L366.9,84.7L365.0,85.5L362.8,85.1L359.7,81.3L359.8,79.5L363.1,74.0L363.4,61.1L361.5,57.5L358.9,59.1L355.5,58.7L352.8,55.7L350.5,56.5L351.5,62.2L350.5,63.4L346.0,60.1L333.8,64.9L330.3,63.3L325.9,59.6L319.1,63.1L316.5,62.6L316.8,63.3L317.9,68.1L316.4,70.4L314.8,71.2L311.2,71.5L309.8,72.6L309.4,73.7L312.6,75.7L314.9,84.5L313.1,89.6L313.2,92.1L310.2,99.1L309.0,101.1L308.0,105.0L307.0,105.5L305.8,109.5L308.7,110.7L310.6,115.3L310.1,118.7L310.6,120.9L314.5,127.1L316.3,127.9L323.1,126.3L326.4,123.0L327.9,122.6L331.1,123.3L335.8,123.3L337.3,124.1L340.6,125.7L341.7,129.7L340.7,130.6L339.9,135.1L342.6,136.5L345.5,139.1L347.1,137.9L348.8,138.1L350.9,136.0L355.5,136.1L359.5,137.3L360.9,137.4L362.2,136.3L364.9,131.9L364.6,129.6L365.9,128.6L365.9,126.3L370.1,119.1L371.5,115.7L374.7,113.6L376.5,115.1L379.7,113.1L379.6,110.1L384.1,108.9L387.6,106.7L394.5,106.6L398.0,110.0L401.2,110.1L403.6,109.2L403.2,107.2L404.4,98.2L407.7,97.2L412.1,97.2L418.7,94.9L422.3,90.9L424.6,87.7L422.1,86.6L421.0,84.5L421.4,82.8L415.1,80.2L411.0,73.4L412.7,70.3L414.0,70.1L415.1,65.3L417.7,62.6L416.4,60.9L412.7,59.7L412.4,57.7L411.6,55.8Z " data-id="IT.TN" data-name="Trento" id="IT.TN"/>
utf-8utf-8<path d="M448.9,179.3L449.3,182.0L446.2,184.8L445.6,187.3L441.1,186.1L432.4,187.6L431.0,191.2L430.6,192.3L436.0,192.1L437.0,194.3L440.0,197.3L443.5,199.8L446.1,200.7L447.2,197.8L449.0,195.1L452.2,195.7L455.2,194.5L456.7,192.1L459.4,190.2L459.3,189.4L457.2,185.2L457.8,183.7L454.8,187.0L453.2,187.0L451.0,185.1L451.1,181.6L450.2,177.4L449.0,178.0L448.9,179.3Z M464.7,163.9L460.4,166.4L458.7,169.7L458.3,172.1L462.2,164.7L466.7,165.4L464.7,163.9Z M460.2,163.6L459.7,161.1L458.3,161.1L457.3,162.7L460.2,163.6Z M463.7,162.1L462.0,161.6L462.8,162.4L463.7,162.1Z M483.7,127.2L483.1,129.5L484.1,135.9L483.5,137.1L478.9,138.7L472.4,138.7L470.5,139.6L468.6,143.1L466.0,143.5L466.0,148.6L464.7,149.7L454.1,150.6L453.2,153.1L451.9,153.8L446.2,148.7L439.9,147.1L438.5,147.4L437.9,148.7L433.9,150.9L433.9,152.9L431.9,155.7L430.4,160.8L434.0,161.4L432.6,164.7L430.3,167.2L430.9,168.5L435.1,170.9L433.9,172.6L434.3,174.3L435.6,175.3L439.3,174.2L444.8,177.6L445.1,175.5L449.5,175.9L451.2,172.8L450.4,171.5L453.0,167.4L452.1,164.9L453.7,160.7L456.5,158.2L459.7,156.6L462.3,156.6L463.2,157.9L465.6,156.6L462.3,154.8L463.2,153.2L466.4,155.9L466.8,154.1L471.8,149.8L474.4,153.5L477.9,151.9L477.3,153.1L473.3,155.2L472.9,157.8L470.6,156.7L466.7,159.6L464.9,163.4L472.9,160.0L480.6,157.5L493.8,151.8L506.4,144.4L509.4,143.8L515.7,143.6L518.4,142.0L518.4,142.0L516.6,139.9L514.5,135.4L510.1,129.2L509.0,124.1L507.4,123.2L506.6,124.1L501.3,124.9L499.2,122.8L495.2,124.7L494.6,123.0L491.2,123.6L488.2,124.7L485.1,127.4L483.7,127.2Z " data-id="IT.VE" data-name="Venezia" id="IT.VE"/>
utf-8utf-8<path d="M467.7,226.7L469.7,224.1L468.9,221.0L466.8,219.4L470.3,216.1L469.5,220.7L471.3,224.1L473.5,221.6L474.9,218.4L474.8,215.2L477.6,209.3L475.0,207.2L473.7,208.7L467.3,203.2L467.5,202.2L463.8,199.9L465.2,203.8L464.1,205.3L462.9,204.0L464.5,202.6L461.4,198.4L457.8,197.7L457.8,195.9L460.3,196.4L459.6,192.7L459.4,190.2L456.7,192.1L455.2,194.5L452.2,195.7L449.0,195.1L447.2,197.8L446.1,200.7L443.5,199.8L440.0,197.3L437.0,194.3L436.0,192.1L430.6,192.3L420.9,192.7L417.8,193.8L414.2,196.7L411.3,195.5L406.8,195.8L404.7,194.7L396.8,193.8L393.4,195.4L389.3,193.9L387.1,193.4L387.0,193.6L386.5,194.4L389.4,197.3L388.0,199.9L384.9,201.2L382.6,200.1L380.4,197.6L370.5,196.1L369.4,196.9L369.5,200.0L371.0,200.6L375.8,200.5L375.9,203.1L378.6,205.1L385.6,209.0L388.0,209.7L388.3,211.3L389.2,212.5L393.7,212.0L399.0,213.4L403.4,216.4L404.7,216.7L418.4,208.6L424.1,207.8L429.1,208.5L441.7,209.3L444.1,210.4L446.8,212.9L452.9,213.7L457.5,212.7L458.9,219.7L462.2,221.1L463.7,224.3L467.4,226.7L467.7,226.7Z " data-id="IT.RO" data-name="Rovigo" id="IT.RO"/>
utf-8utf-8<path d="M437.2,144.4L434.6,142.7L432.4,142.7L430.8,144.8L427.4,146.2L423.3,144.8L418.8,139.2L417.0,139.0L416.3,138.6L408.5,139.3L407.5,139.7L402.8,143.7L402.7,146.6L404.7,149.6L404.0,153.2L408.8,151.2L410.8,153.6L411.3,159.2L407.8,162.0L407.1,163.2L401.5,168.2L402.6,173.5L399.9,175.5L399.2,177.1L401.8,182.0L396.4,182.1L391.8,180.2L390.8,180.8L385.4,181.5L385.1,183.7L386.4,189.2L387.6,192.4L387.1,193.4L389.3,193.9L393.4,195.4L396.8,193.8L404.7,194.7L406.8,195.8L411.3,195.5L414.2,196.7L417.8,193.8L420.9,192.7L430.6,192.3L431.0,191.2L432.4,187.6L441.1,186.1L445.6,187.3L446.2,184.8L449.3,182.0L448.9,179.3L448.4,180.5L445.7,178.5L444.8,177.6L444.8,177.6L439.3,174.2L435.6,175.3L434.3,174.3L433.9,172.6L435.1,170.9L430.9,168.5L430.3,167.2L432.6,164.7L434.0,161.4L430.4,160.8L431.9,155.7L433.9,152.9L433.9,150.9L437.9,148.7L438.5,147.4L437.2,144.4Z " data-id="IT.PD" data-name="Padova" id="IT.PD"/>
utf-8utf-8<path d="M359.5,137.3L355.5,136.1L350.9,136.0L348.8,138.1L347.1,137.9L345.5,139.1L342.6,136.5L339.9,135.1L340.7,130.6L341.7,129.7L340.6,125.7L337.3,124.1L334.2,128.5L331.1,134.4L330.0,135.6L322.4,146.3L322.4,150.9L324.8,165.0L324.8,165.1L326.9,164.6L328.1,164.7L328.9,173.9L328.2,174.8L331.6,175.2L333.9,177.3L336.9,176.5L339.5,178.7L340.6,180.5L348.7,185.7L353.9,191.3L357.3,191.4L357.8,194.9L360.4,196.7L362.4,195.5L370.0,195.3L370.5,196.1L380.4,197.6L382.6,200.1L384.9,201.2L388.0,199.9L389.4,197.3L386.5,194.4L387.0,193.6L387.1,193.4L387.6,192.4L386.4,189.2L385.1,183.7L385.4,181.5L390.8,180.8L391.8,180.2L391.7,178.9L386.1,172.9L381.9,172.0L381.1,171.2L378.1,162.8L378.0,158.7L377.3,157.5L373.9,156.0L371.2,152.4L369.2,146.2L364.9,145.0L363.3,143.5L362.7,140.0L360.9,137.4L359.5,137.3Z " data-id="IT.VR" data-name="Verona" id="IT.VR"/>
utf-8utf-8<path d="M401.2,110.1L398.0,110.0L394.5,106.6L387.6,106.7L384.1,108.9L379.6,110.1L379.7,113.1L376.5,115.1L374.7,113.6L371.5,115.7L370.1,119.1L365.9,126.3L365.9,128.6L364.6,129.6L364.9,131.9L362.2,136.3L360.9,137.4L362.7,140.0L363.3,143.5L364.9,145.0L369.2,146.2L371.2,152.4L373.9,156.0L377.3,157.5L378.0,158.7L378.1,162.8L381.1,171.2L381.9,172.0L386.1,172.9L391.7,178.9L391.8,180.2L396.4,182.1L401.8,182.0L399.2,177.1L399.9,175.5L402.6,173.5L401.5,168.2L407.1,163.2L407.8,162.0L411.3,159.2L410.8,153.6L408.8,151.2L404.0,153.2L404.7,149.6L402.7,146.6L402.8,143.7L407.5,139.7L408.5,139.3L416.3,138.6L415.5,135.9L416.6,131.3L414.2,127.8L410.6,127.1L409.8,126.3L409.9,122.0L412.7,120.7L413.4,119.5L412.2,119.2L411.1,114.9L408.4,114.4L404.5,109.6L403.6,109.2L401.2,110.1Z " data-id="IT.VI" data-name="Vicenza" id="IT.VI"/>
utf-8utf-8<path d="M454.6,99.5L452.6,100.3L447.4,105.4L442.8,107.4L438.8,107.0L434.0,111.2L427.9,110.8L426.8,111.3L424.9,114.7L424.7,117.4L423.4,119.0L418.3,119.2L415.0,117.6L413.4,119.5L412.7,120.7L409.9,122.0L409.8,126.3L410.6,127.1L414.2,127.8L416.6,131.3L415.5,135.9L416.3,138.6L417.0,139.0L418.8,139.2L423.3,144.8L427.4,146.2L430.8,144.8L432.4,142.7L434.6,142.7L437.2,144.4L438.5,147.4L439.9,147.1L446.2,148.7L451.9,153.8L453.2,153.1L454.1,150.6L464.7,149.7L466.0,148.6L466.0,143.5L468.6,143.1L470.5,139.6L472.4,138.7L478.9,138.7L483.5,137.1L484.1,135.9L483.1,129.5L483.7,127.2L483.0,126.0L479.6,124.3L478.7,124.8L475.1,123.6L471.8,117.3L466.8,112.6L462.2,103.5L462.2,103.4L454.6,99.5Z " data-id="IT.TV" data-name="Treviso" id="IT.TV"/>
utf-8utf-8<path d="M462.1,40.6L456.7,44.2L455.5,46.4L441.0,47.2L439.1,44.7L431.9,41.5L430.3,48.2L426.0,54.6L413.9,56.7L412.4,57.7L412.7,59.7L416.4,60.9L417.7,62.6L415.1,65.3L414.0,70.1L412.7,70.3L411.0,73.4L415.1,80.2L421.4,82.8L421.0,84.5L422.1,86.6L424.6,87.7L422.3,90.9L418.7,94.9L412.1,97.2L407.7,97.2L404.4,98.2L403.2,107.2L403.6,109.2L404.5,109.6L408.4,114.4L411.1,114.9L412.2,119.2L413.4,119.5L415.0,117.6L418.3,119.2L423.4,119.0L424.7,117.4L424.9,114.7L426.8,111.3L427.9,110.8L434.0,111.2L438.8,107.0L442.8,107.4L447.4,105.4L452.6,100.3L454.6,99.5L462.2,103.4L461.9,102.6L464.2,99.0L467.6,97.5L468.0,95.0L467.0,91.6L464.3,89.3L463.6,86.9L460.5,85.2L457.9,84.9L455.8,83.4L454.4,79.7L457.6,76.6L461.6,74.7L466.0,68.3L466.2,67.6L466.7,65.8L467.5,63.8L469.9,62.3L473.2,61.7L479.5,61.7L479.0,60.0L477.0,58.9L478.5,56.4L486.2,53.9L484.5,44.1L483.8,43.9L474.2,42.6L469.6,43.1L464.5,41.0L462.1,40.6L462.1,40.6Z " data-id="IT.BL" data-name="Belluno" id="IT.BL"/>
utf-8</g>
</svg>
