<?xml version="1.0" ?>
<!DOCTYPE svg
  PUBLIC '-//W3C//DTD SVG 1.1//EN'
  'http://www.w3.org/Graphics/SVG/1.1/DTD/svg11.dtd'>
<svg enable_background="new 0 0 1000 441" height="441px" pretty_print="True" style="stroke-linejoin: round; stroke:#000; fill: none;" version="1.1" viewBox="0 0 1000 441" width="1000px" xmlns="http://www.w3.org/2000/svg" xmlns:xlink="http://www.w3.org/1999/xlink">
utf-8<defs>
utf-8utf-8<style type="text/css">
<![CDATA[path { fill-rule: evenodd; }]]>utf-8utf-8</style>
utf-8</defs>
utf-8<metadata>
utf-8utf-8<views>
utf-8utf-8utf-8<view h="441.768899439" padding="0" w="1000">
utf-8utf-8utf-8utf-8<proj flip="auto" id="robinson" lon0="-77.266055473"/>
utf-8utf-8utf-8utf-8<bbox h="13.78" w="31.27" x="-1143.6" y="-310.64"/>
utf-8utf-8utf-8</view>
utf-8utf-8</views>
utf-8</metadata>
utf-8<g class="" id="provinces">
utf-8utf-8<path d="M556.1,342.4L556.7,316.8L556.3,310.5L548.8,297.3L547.7,291.5L547.8,287.4L549.7,268.7L548.7,262.5L546.6,257.2L542.3,248.7L542.3,244.1L544.2,236.4L546.1,231.4L548.3,227.6L547.5,218.1L538.3,181.4L496.2,180.8L473.9,176.2L465.3,172.2L461.1,171.8L444.9,175.7L438.2,180.2L434.7,181.7L430.5,182.2L418.9,180.0L408.4,176.0L408.6,184.0L446.7,297.7L444.0,304.9L443.4,311.1L443.6,318.4L444.6,323.9L446.4,327.1L451.2,332.1L451.9,337.5L448.0,347.4L446.4,354.0L443.8,357.1L437.0,356.9L433.1,359.4L465.0,381.3L472.2,392.9L508.3,432.5L516.4,437.1L524.9,439.2L534.5,439.8L546.3,435.9L548.8,426.7L546.2,406.5L536.5,409.7L527.3,410.5L518.9,408.4L511.3,402.9L516.3,398.7L521.4,396.9L526.3,397.1L531.1,399.6L530.3,396.2L530.1,390.8L529.2,388.0L532.7,386.4L539.1,382.5L542.6,381.0L540.7,366.2L543.1,361.3L552.6,344.6L556.1,342.4Z " data-id="JM.CL" data-name="Clarendon" id="JM.CL"/>
utf-8utf-8<path d="M181.6,39.9L171.6,39.8L141.0,43.9L130.7,41.6L122.4,38.1L115.0,38.3L107.1,47.2L96.2,37.3L79.0,43.3L63.1,57.6L56.5,72.8L49.1,70.0L43.8,74.2L39.4,80.5L34.5,83.7L27.2,84.4L25.3,86.5L24.4,90.5L20.2,96.9L18.8,101.4L17.6,117.6L16.4,121.5L20.6,121.9L45.3,125.9L50.2,125.4L52.7,123.4L72.8,100.8L75.5,100.1L133.3,99.8L137.6,100.4L141.5,101.7L165.3,117.9L175.3,120.0L214.0,122.5L209.5,109.5L206.5,105.4L200.5,101.6L198.1,99.2L196.4,93.4L192.3,82.8L191.4,79.5L191.1,75.6L189.7,71.5L182.9,64.7L180.9,60.7L185.3,48.7L186.4,41.9L181.6,39.9Z " data-id="JM.HA" data-name="Hanover" id="JM.HA"/>
utf-8utf-8<path d="M389.3,160.2L383.0,157.0L381.5,157.0L364.0,154.1L361.4,154.0L355.1,156.5L349.5,160.0L346.6,161.1L340.4,162.8L337.4,210.8L353.2,355.0L354.1,357.4L354.1,357.4L362.8,359.1L382.5,365.5L392.4,364.6L403.1,357.3L412.1,353.4L422.8,354.9L432.7,359.1L433.1,359.4L437.0,356.9L443.8,357.1L446.4,354.0L448.0,347.4L451.9,337.5L451.2,332.1L446.4,327.1L444.6,323.9L443.6,318.4L443.4,311.1L444.0,304.9L446.7,297.7L408.6,184.0L408.4,176.0L389.3,160.2Z " data-id="JM.MA" data-name="Manchester" id="JM.MA"/>
utf-8utf-8<path d="M275.5,155.5L219.9,176.3L212.4,180.1L208.3,183.9L202.2,192.8L198.5,199.6L197.0,204.5L197.6,210.1L195.6,218.0L183.2,247.0L179.2,253.9L182.0,263.7L189.1,266.8L221.4,267.1L232.7,271.8L234.3,283.2L232.0,296.7L231.4,307.9L233.8,310.2L241.8,313.5L243.1,316.9L243.6,321.2L247.0,334.9L248.5,339.0L252.3,342.5L267.7,351.4L276.6,358.6L279.7,359.3L343.3,355.3L354.1,357.4L354.1,357.4L353.2,355.0L337.4,210.8L340.4,162.8L275.5,155.5Z " data-id="JM.SE" data-name="Saint Elizabeth" id="JM.SE"/>
utf-8utf-8<path d="M186.4,41.9L185.3,48.7L180.9,60.7L182.9,64.7L189.7,71.5L191.1,75.6L191.4,79.5L192.3,82.8L196.4,93.4L198.1,99.2L200.5,101.6L206.5,105.4L209.5,109.5L214.0,122.5L217.8,134.5L220.0,138.0L223.3,141.5L224.4,144.2L226.7,157.1L225.9,162.2L219.9,176.3L275.5,155.5L312.9,10.8L313.2,9.8L313.2,9.8L276.7,0.9L255.5,0.0L236.3,3.4L227.6,7.4L222.2,12.3L210.0,27.1L206.5,32.6L206.2,36.7L205.4,40.2L200.2,43.9L194.8,44.8L189.8,43.4L186.4,42.0L186.4,41.9Z " data-id="JM.SJ" data-name="Saint James" id="JM.SJ"/>
utf-8utf-8<path d="M409.9,24.0L390.5,18.7L345.3,17.7L313.2,9.8L312.9,10.8L275.5,155.5L340.4,162.8L346.6,161.1L349.5,160.0L355.1,156.5L361.4,154.0L364.0,154.1L381.5,157.0L383.0,157.0L389.3,160.2L408.4,176.0L437.6,79.7L438.1,74.6L436.0,71.3L435.7,67.8L437.4,64.5L438.1,61.4L438.1,57.5L434.5,42.4L434.6,38.0L437.1,26.2L409.9,24.0Z " data-id="JM.TR" data-name="Trelawny" id="JM.TR"/>
utf-8utf-8<path d="M175.3,120.0L165.3,117.9L141.5,101.7L137.6,100.4L133.3,99.8L75.5,100.1L72.8,100.8L52.7,123.4L50.2,125.4L45.3,125.9L20.6,121.9L16.4,121.5L15.5,124.6L11.7,129.1L4.2,134.4L1.1,138.9L2.1,148.2L7.0,156.4L14.3,162.2L22.2,164.5L30.2,165.6L43.9,170.6L50.3,171.8L51.4,172.5L62.3,177.6L65.3,178.3L69.1,176.2L74.0,171.8L81.7,171.8L102.2,175.7L136.5,174.8L147.3,181.9L153.9,201.3L155.4,214.0L156.9,220.4L159.4,223.2L163.0,224.3L167.4,226.9L171.1,229.9L174.1,235.8L179.2,253.9L183.2,247.0L195.6,218.0L197.6,210.1L197.0,204.5L198.5,199.6L202.2,192.8L208.3,183.9L212.4,180.1L219.9,176.3L225.9,162.2L226.7,157.1L224.4,144.2L223.3,141.5L220.0,138.0L217.8,134.5L214.0,122.5L175.3,120.0Z " data-id="JM.WE" data-name="Westmoreland" id="JM.WE"/>
utf-8utf-8<path d="M717.4,300.5L727.0,300.3L741.0,300.5L747.0,302.0L749.0,304.5L750.0,305.7L752.8,304.1L753.1,297.1L750.3,287.2L746.0,284.5L739.2,282.8L727.2,283.4L723.1,284.6L718.2,286.6L714.3,289.2L711.2,296.2L717.4,300.5Z " data-id="JM.KI" data-name="Kingston" id="JM.KI"/>
utf-8utf-8<path d="M969.2,274.3L958.1,238.6L949.6,222.5L937.9,208.6L936.9,197.5L919.8,190.4L886.3,183.4L884.9,181.0L882.1,173.4L879.8,171.8L844.8,171.8L841.1,170.8L836.4,166.1L833.9,165.4L826.5,159.1L810.9,160.2L803.3,157.5L797.0,152.6L789.3,142.8L782.9,138.9L780.3,138.2L780.2,138.2L778.7,139.9L749.4,206.8L751.1,217.6L751.2,219.0L753.9,232.4L757.1,236.8L765.9,239.2L770.7,238.3L773.0,237.2L777.3,231.0L783.2,232.0L803.2,241.6L811.2,248.1L814.2,253.4L818.6,257.6L821.9,259.4L843.2,267.0L846.2,269.1L850.2,269.1L854.1,267.5L860.6,262.6L869.1,262.3L878.9,258.5L883.1,259.2L892.6,265.8L907.6,268.4L920.8,272.8L924.7,275.8L927.2,280.6L930.0,283.8L936.1,285.5L952.8,288.1L957.7,287.4L971.5,282.9L969.2,274.3Z " data-id="JM.PO" data-name="Portland" id="JM.PO"/>
utf-8utf-8<path d="M600.9,62.7L585.7,62.2L583.5,60.5L576.5,52.9L574.1,51.2L553.8,47.2L554.0,48.2L552.3,49.9L549.7,51.2L547.0,51.2L545.0,48.9L544.0,42.3L542.1,39.9L525.8,35.2L501.6,32.1L477.8,32.1L462.5,36.2L453.6,29.9L441.9,26.6L437.1,26.2L434.6,38.0L434.5,42.4L438.1,57.5L438.1,61.4L437.4,64.5L435.7,67.8L436.0,71.3L438.1,74.6L437.6,79.7L408.4,176.0L418.9,180.0L430.5,182.2L434.7,181.7L438.2,180.2L444.9,175.7L461.1,171.8L465.3,172.2L473.9,176.2L496.2,180.8L538.3,181.4L601.7,172.7L611.6,168.7L641.5,151.5L633.6,141.7L631.0,137.1L630.0,128.2L629.2,123.3L627.6,119.9L622.6,112.4L621.9,108.8L624.2,96.8L620.4,90.3L619.6,88.4L619.1,81.8L617.3,62.2L617.2,59.8L600.9,62.7Z " data-id="JM.SN" data-name="Saint Ann" id="JM.SN"/>
utf-8utf-8<path d="M683.0,196.7L678.7,191.5L674.1,183.3L673.4,181.0L672.8,172.1L671.5,168.0L669.7,165.6L666.4,162.7L665.1,160.3L663.1,153.0L660.5,149.8L651.7,148.8L648.9,149.1L641.5,151.5L611.6,168.7L601.7,172.7L538.3,181.4L547.5,218.1L548.3,227.6L546.1,231.4L544.2,236.4L542.3,244.1L542.3,248.7L546.6,257.2L548.7,262.5L549.7,268.7L547.8,287.4L547.7,291.5L548.8,297.3L556.3,310.5L556.7,316.8L556.1,342.4L563.8,337.8L576.5,333.1L589.7,334.7L595.2,337.2L599.6,341.3L604.9,350.6L609.4,355.4L599.1,359.1L598.7,363.0L624.4,363.0L629.3,365.3L632.8,368.1L636.6,370.1L642.8,370.0L650.8,364.8L658.0,355.2L669.9,322.9L673.0,310.6L675.3,306.7L681.3,307.5L683.5,303.4L690.1,296.3L692.9,290.6L695.0,285.1L694.1,278.9L691.5,274.1L687.7,275.5L684.2,275.4L681.5,269.6L678.5,266.2L678.8,263.2L680.0,258.6L683.9,247.7L687.8,240.5L693.4,232.8L693.5,228.1L691.2,221.1L690.8,215.6L693.5,201.6L683.0,196.7Z " data-id="JM.SC" data-name="Saint Catherine" id="JM.SC"/>
utf-8utf-8<path d="M775.1,136.9L751.2,134.9L743.0,132.3L738.9,129.3L736.6,124.7L733.9,110.6L732.0,105.4L718.4,96.1L703.1,84.7L698.5,79.5L699.3,72.3L701.4,66.6L698.6,62.0L693.0,60.9L686.9,60.4L679.3,61.4L673.5,64.5L645.9,65.8L640.5,64.7L631.3,59.7L625.9,58.2L617.2,59.8L617.2,59.8L617.3,62.2L619.1,81.8L619.6,88.4L620.4,90.3L624.2,96.8L621.9,108.8L622.6,112.4L627.6,119.9L629.2,123.3L630.0,128.2L631.0,137.1L633.6,141.7L641.5,151.5L648.9,149.1L651.7,148.8L660.5,149.8L663.1,153.0L665.1,160.3L666.4,162.7L669.7,165.6L671.5,168.0L672.8,172.1L673.4,181.0L674.1,183.3L678.7,191.5L683.0,196.7L693.5,201.6L700.1,198.8L701.3,197.8L704.0,193.7L708.8,192.3L714.7,192.3L717.4,191.6L725.0,193.3L749.4,206.8L778.7,139.9L780.2,138.2L780.3,138.2L775.1,136.9Z " data-id="JM.SM" data-name="Saint Mary" id="JM.SM"/>
utf-8utf-8<path d="M725.0,193.3L717.4,191.6L714.7,192.3L708.8,192.3L704.0,193.7L701.3,197.8L700.1,198.8L693.5,201.6L690.8,215.6L691.2,221.1L693.5,228.1L693.4,232.8L687.8,240.5L683.9,247.7L680.0,258.6L678.8,263.2L678.5,266.2L681.5,269.6L684.2,275.4L687.7,275.5L691.5,274.1L694.1,278.9L695.0,285.1L700.7,288.3L708.4,294.2L711.2,296.2L714.3,289.2L718.2,286.6L723.1,284.6L727.2,283.4L739.2,282.8L746.0,284.5L750.3,287.2L753.1,297.1L752.8,304.1L750.0,305.7L751.9,307.9L700.3,311.2L699.9,314.9L724.1,315.8L731.5,314.9L748.8,310.5L758.5,309.9L765.4,313.1L768.6,315.2L781.1,318.6L784.4,313.7L787.8,310.0L789.2,301.0L790.0,297.9L792.5,294.5L796.3,293.1L800.9,293.6L803.2,290.4L802.1,287.4L798.6,280.4L797.2,270.4L795.1,261.7L796.2,253.6L798.4,245.9L803.2,241.6L783.2,232.0L777.3,231.0L773.0,237.2L770.7,238.3L765.9,239.2L757.1,236.8L753.9,232.4L751.2,219.0L751.1,217.6L749.4,206.8L725.0,193.3Z " data-id="JM.SD" data-name="Saint Andrew" id="JM.SD"/>
utf-8utf-8<path d="M803.2,241.6L798.4,245.9L796.2,253.6L795.1,261.7L797.2,270.4L798.6,280.4L802.1,287.4L803.2,290.4L800.9,293.6L796.3,293.1L792.5,294.5L790.0,297.9L789.2,301.0L787.8,310.0L784.4,313.7L781.1,318.6L782.2,318.9L784.8,321.7L786.5,325.2L788.7,328.3L792.3,329.5L795.7,331.8L796.6,337.1L796.8,343.3L798.4,348.1L802.8,351.8L806.6,352.3L810.2,351.6L814.0,351.4L839.3,355.7L876.3,352.2L890.9,346.5L899.2,348.9L907.2,353.2L914.1,355.4L922.6,352.7L931.3,340.5L940.1,337.2L937.6,343.7L936.1,345.5L932.6,348.1L940.6,350.5L950.7,347.4L968.8,337.2L993.5,330.5L998.9,326.2L987.3,315.8L979.6,305.6L974.2,292.8L971.5,282.9L971.5,282.9L957.7,287.4L952.8,288.1L936.1,285.5L930.0,283.8L927.2,280.6L924.7,275.8L920.8,272.8L907.6,268.4L892.6,265.8L883.1,259.2L878.9,258.5L869.1,262.3L860.6,262.6L854.1,267.5L850.2,269.1L846.2,269.1L843.2,267.0L821.9,259.4L818.6,257.6L814.2,253.4L811.2,248.1L803.2,241.6Z " data-id="JM.ST" data-name="Saint Thomas" id="JM.ST"/>
utf-8</g>
</svg>
