<?xml version="1.0" ?>
<!DOCTYPE svg
  PUBLIC '-//W3C//DTD SVG 1.1//EN'
  'http://www.w3.org/Graphics/SVG/1.1/DTD/svg11.dtd'>
<svg enable_background="new 0 0 1000 1233" height="1233px" pretty_print="True" style="stroke-linejoin: round; stroke:#000; fill: none;" version="1.1" viewBox="0 0 1000 1233" width="1000px" xmlns="http://www.w3.org/2000/svg" xmlns:xlink="http://www.w3.org/1999/xlink">
utf-8<defs>
utf-8utf-8<style type="text/css">
<![CDATA[path { fill-rule: evenodd; }]]>utf-8utf-8</style>
utf-8</defs>
utf-8<metadata>
utf-8utf-8<views>
utf-8utf-8utf-8<view h="1233.31573861" padding="0" w="1000">
utf-8utf-8utf-8utf-8<proj flip="auto" id="robinson" lon0="35.1993321644"/>
utf-8utf-8utf-8utf-8<bbox h="69.92" w="56.74" x="497.76" y="-559.42"/>
utf-8utf-8utf-8</view>
utf-8utf-8</views>
utf-8</metadata>
utf-8<g class="" id="provinces">
utf-8utf-8<path d="M88.4,813.4L81.8,810.6L78.3,806.5L74.8,801.3L71.3,798.3L67.2,796.2L48.9,783.8L44.9,780.9L44.9,780.9L33.2,811.1L26.0,847.1L25.5,854.1L22.3,866.1L23.0,873.2L24.5,876.2L28.7,882.2L29.8,886.3L29.7,890.4L26.1,900.3L25.2,915.6L23.9,920.7L24.6,929.1L31.4,947.1L32.3,956.4L29.2,966.3L20.1,982.7L18.3,994.3L18.5,997.8L16.0,1005.2L15.1,1015.2L16.6,1033.1L16.1,1039.1L7.4,1071.3L6.3,1078.6L6.5,1095.2L4.8,1102.5L1.9,1108.1L0.7,1114.5L0.4,1122.6L1.6,1122.4L2.3,1124.6L5.7,1124.6L11.4,1129.9L12.1,1134.6L7.8,1146.7L6.7,1154.4L7.5,1181.3L32.7,1188.6L63.0,1194.0L176.0,1213.7L206.2,1219.0L205.3,1216.4L184.2,1123.1L161.6,1055.3L145.5,1024.8L141.2,1018.9L136.2,1014.0L130.9,1009.6L125.8,1006.8L120.9,1005.0L113.3,1003.5L106.9,1003.7L100.6,1005.6L96.9,1006.1L92.9,1005.9L88.7,1004.5L85.0,1002.5L81.7,999.6L75.3,990.2L73.6,984.7L73.4,977.0L74.9,962.3L86.7,932.9L87.9,924.3L84.1,891.2L91.7,855.3L94.5,832.0L94.2,813.7L88.4,813.4Z " data-id="JO.AQ" data-name="Aqaba" id="JO.AQ"/>
utf-8utf-8<path d="M193.0,252.5L198.7,276.6L197.8,284.3L196.1,284.9L193.9,284.4L189.0,280.9L186.0,279.9L183.0,280.4L179.8,283.3L179.2,285.7L179.8,288.2L182.9,293.4L184.2,297.8L184.1,300.1L182.5,302.6L179.7,309.8L169.8,322.6L168.0,327.2L168.1,330.1L169.5,332.1L173.6,335.1L177.4,340.6L180.7,346.6L185.9,348.3L188.2,350.6L189.4,352.6L187.8,358.5L188.3,361.3L189.7,363.3L192.5,365.1L195.2,365.6L198.0,364.9L200.4,363.5L203.4,360.1L205.9,360.5L209.3,362.4L215.8,367.1L219.7,368.1L223.2,367.8L228.1,365.7L233.7,364.7L243.8,365.6L254.4,370.6L259.1,373.8L263.1,375.0L266.8,374.9L269.8,373.4L272.2,371.4L275.3,369.9L279.8,369.4L293.4,370.9L298.0,373.2L306.8,380.7L316.1,385.8L637.0,493.7L637.5,493.9L683.0,479.7L791.2,447.0L926.6,406.1L934.8,402.4L961.0,374.2L965.4,370.5L967.8,369.7L967.5,367.4L994.4,341.8L999.6,332.5L992.0,312.6L987.3,303.6L981.8,300.6L936.3,313.7L933.6,312.2L931.2,307.8L914.1,265.5L913.5,264.6L932.4,258.3L908.3,196.7L874.9,111.5L847.6,42.2L830.9,0.0L774.9,37.7L706.5,84.3L637.5,131.8L598.2,159.2L558.9,186.6L480.2,241.2L419.5,283.8L382.7,311.2L379.6,312.3L376.1,312.2L359.8,308.0L354.4,307.8L350.4,310.4L340.6,303.5L297.0,298.3L292.7,295.7L278.5,294.3L273.4,292.8L269.5,290.7L245.4,269.9L228.2,258.9L219.2,250.7L216.3,249.2L215.1,249.6L211.4,252.8L205.6,251.3L196.5,252.6L193.0,252.5Z " data-id="JO.MA" data-name="Mafraq" id="JO.MA"/>
utf-8utf-8<path d="M173.2,391.0L166.1,393.4L159.2,401.1L155.5,403.3L146.4,406.2L143.0,409.3L133.3,422.6L127.5,427.2L113.8,434.7L110.5,438.0L109.1,441.3L109.9,444.0L111.9,446.0L118.1,448.4L123.9,449.3L125.5,450.9L126.2,453.4L124.0,462.4L123.7,465.5L123.8,470.8L132.9,468.3L145.5,468.3L152.2,466.0L153.9,466.3L155.8,468.0L158.7,489.3L158.4,492.0L157.3,494.7L153.5,499.9L152.5,502.2L153.1,507.6L155.9,515.2L158.2,519.8L170.3,531.6L172.2,535.3L171.7,540.2L172.1,542.5L176.0,546.3L176.6,548.1L176.0,550.0L173.1,555.0L171.8,558.2L169.0,571.5L165.0,576.6L162.6,579.2L169.8,590.0L172.1,595.6L173.1,599.5L172.9,602.1L171.5,608.0L171.0,612.1L171.0,617.8L172.3,621.4L175.0,623.6L250.6,625.5L517.5,625.9L517.0,625.3L480.7,589.8L444.4,554.2L453.7,551.3L452.7,550.8L375.1,478.9L370.4,477.8L366.2,479.0L355.2,486.4L350.6,486.5L344.5,484.3L332.9,476.8L320.6,466.4L313.0,458.6L311.1,455.4L311.2,452.7L312.8,450.0L317.9,445.4L324.4,441.0L326.3,437.4L325.4,432.8L317.2,423.4L301.4,407.8L295.7,403.5L290.3,401.1L263.7,398.8L258.5,399.9L255.9,402.5L251.7,408.3L248.7,410.3L243.7,411.3L227.7,411.2L215.9,415.1L209.0,416.1L204.4,418.9L201.0,417.9L195.8,414.4L186.3,404.1L179.7,398.5L173.2,391.0Z " data-id="JO.AM" data-name="Amman" id="JO.AM"/>
utf-8utf-8<path d="M221.5,756.1L210.1,748.2L207.9,745.9L204.9,741.5L202.7,739.3L199.9,737.8L190.4,733.5L184.5,729.0L180.6,723.6L138.9,707.4L117.5,706.3L113.8,704.9L110.0,702.6L107.0,700.1L104.1,699.2L100.9,699.0L96.5,699.7L93.3,699.5L91.1,700.3L89.8,702.6L89.3,708.6L87.5,716.2L87.1,728.2L85.8,731.1L83.2,732.8L78.7,732.5L75.1,731.5L59.7,721.3L57.0,724.3L54.4,730.9L54.4,737.6L55.2,744.2L55.0,750.7L53.9,753.4L50.0,757.3L48.3,759.6L47.0,763.2L46.5,766.5L46.1,773.9L44.9,780.9L48.9,783.8L67.2,796.2L71.3,798.3L74.8,801.3L78.3,806.5L81.8,810.6L88.4,813.4L94.2,813.7L104.2,813.6L114.5,815.2L139.3,814.4L147.9,815.2L170.9,812.0L188.2,807.7L191.5,805.4L193.7,802.9L196.6,800.7L199.2,800.1L201.9,800.4L208.8,803.0L217.6,799.6L233.3,767.0L221.5,756.1Z " data-id="JO.AT" data-name="Tafilah" id="JO.AT"/>
utf-8utf-8<path d="M517.5,625.9L250.6,625.5L257.8,654.3L265.4,670.7L256.9,711.8L233.3,767.0L217.6,799.6L208.8,803.0L201.9,800.4L199.2,800.1L196.6,800.7L193.7,802.9L191.5,805.4L188.2,807.7L170.9,812.0L147.9,815.2L139.3,814.4L114.5,815.2L104.2,813.6L94.2,813.7L94.5,832.0L91.7,855.3L84.1,891.2L87.9,924.3L86.7,932.9L74.9,962.3L73.4,977.0L73.6,984.7L75.3,990.2L81.7,999.6L85.0,1002.5L88.7,1004.5L92.9,1005.9L96.9,1006.1L100.6,1005.6L106.9,1003.7L113.3,1003.5L120.9,1005.0L125.8,1006.8L130.9,1009.6L136.2,1014.0L141.2,1018.9L145.5,1024.8L161.6,1055.3L184.2,1123.1L205.3,1216.4L206.2,1219.0L220.7,1221.5L276.6,1231.3L283.5,1231.0L289.7,1228.3L314.7,1205.2L383.8,1141.5L397.2,1113.6L431.3,1042.4L436.6,1035.8L443.1,1032.3L486.2,1022.9L589.3,1000.5L618.2,994.3L623.1,989.4L644.3,918.9L649.7,900.6L652.4,895.3L657.7,890.4L728.9,847.2L730.6,845.7L685.8,798.3L589.6,696.4L553.3,660.9L517.5,625.9Z " data-id="JO.MN" data-name="Ma`an" id="JO.MN"/>
utf-8utf-8<path d="M190.0,252.4L187.1,247.5L174.0,230.4L171.1,225.5L170.3,219.9L170.5,214.9L169.0,211.5L163.2,211.1L159.6,211.8L156.9,210.9L152.0,206.0L153.7,203.0L153.1,201.0L147.6,200.1L142.8,195.8L140.3,194.4L113.0,188.2L109.2,184.4L107.9,184.1L100.8,186.4L88.2,195.0L80.7,202.4L77.0,204.5L66.8,207.0L63.6,212.0L61.6,214.0L59.6,218.2L60.9,220.3L63.1,221.5L63.3,223.4L61.6,223.4L61.8,225.6L63.5,228.2L65.2,235.8L66.9,239.5L63.8,243.7L62.1,241.7L63.6,247.8L64.5,249.7L61.1,249.7L61.3,251.7L63.6,251.6L69.0,257.9L69.2,259.8L67.0,260.4L65.0,264.0L64.7,266.0L68.2,267.8L68.4,270.0L65.4,271.8L67.1,273.8L64.0,276.0L66.0,278.0L64.2,278.0L65.5,283.4L63.1,283.9L67.9,291.2L69.6,296.2L68.0,296.2L67.8,294.1L65.9,294.1L66.2,296.2L67.8,299.0L68.6,307.9L71.3,312.2L70.6,315.7L71.1,321.3L72.6,326.9L75.0,330.3L72.4,332.9L72.2,334.5L75.4,334.5L73.7,348.4L75.3,348.3L92.8,350.4L93.6,347.4L92.7,343.2L88.4,335.2L86.4,330.4L85.5,326.0L87.3,307.5L88.6,303.0L90.6,299.9L94.0,298.3L98.3,298.0L104.6,298.4L110.4,296.7L117.5,292.5L121.5,291.7L128.7,292.1L132.7,291.5L135.5,289.8L137.0,287.3L138.6,286.1L140.4,286.9L141.9,290.7L143.4,293.1L148.7,297.1L154.9,304.7L163.0,301.1L166.2,300.0L174.2,302.3L182.5,302.6L184.1,300.1L184.2,297.8L182.9,293.4L179.8,288.2L179.2,285.7L179.8,283.3L183.0,280.4L186.0,279.9L189.0,280.9L193.9,284.4L196.1,284.9L197.8,284.3L198.7,276.6L193.0,252.5L190.0,252.4Z " data-id="JO.IR" data-name="Irbid" id="JO.IR"/>
utf-8utf-8<path d="M148.7,297.1L143.4,293.1L141.9,290.7L140.4,286.9L138.6,286.1L137.0,287.3L135.5,289.8L132.7,291.5L128.7,292.1L121.5,291.7L117.5,292.5L110.4,296.7L104.6,298.4L98.3,298.0L94.0,298.3L90.6,299.9L88.6,303.0L87.3,307.5L85.5,326.0L86.4,330.4L88.4,335.2L92.7,343.2L93.6,347.4L92.8,350.4L97.4,355.5L101.8,357.2L108.4,358.5L117.5,346.6L133.6,338.9L135.6,336.3L135.9,333.7L135.4,330.9L135.6,326.8L136.8,322.0L140.3,315.3L143.8,311.4L147.4,308.8L149.9,307.6L154.9,304.7L148.7,297.1Z " data-id="JO.AJ" data-name="Ajlun" id="JO.AJ"/>
utf-8utf-8<path d="M174.2,302.3L166.2,300.0L163.0,301.1L154.9,304.7L149.9,307.6L147.4,308.8L143.8,311.4L140.3,315.3L136.8,322.0L135.6,326.8L135.4,330.9L135.9,333.7L135.6,336.3L133.6,338.9L117.5,346.6L108.4,358.5L109.0,361.0L111.7,361.9L115.0,362.2L136.6,361.7L141.6,362.6L145.2,364.1L150.5,369.5L160.3,376.3L168.3,363.8L170.9,361.5L177.7,357.6L179.6,355.4L180.5,352.8L180.7,346.6L177.4,340.6L173.6,335.1L169.5,332.1L168.1,330.1L168.0,327.2L169.8,322.6L179.7,309.8L182.5,302.6L174.2,302.3Z " data-id="JO.JA" data-name="Jarash" id="JO.JA"/>
utf-8utf-8<path d="M75.3,348.3L73.7,348.4L73.1,353.2L74.6,356.6L74.8,358.8L72.1,362.8L73.6,364.7L70.2,371.9L70.4,375.3L73.4,378.9L69.6,382.4L68.8,387.5L70.7,401.0L74.1,407.9L76.3,417.5L78.1,420.8L78.1,423.1L74.0,425.9L73.6,428.2L82.2,451.8L79.9,455.5L80.1,457.6L87.0,473.5L94.1,477.2L95.3,483.8L93.8,492.3L93.7,498.3L95.7,498.4L99.0,496.7L101.8,493.7L105.1,486.2L107.1,478.3L108.4,476.3L111.2,474.3L114.2,473.3L120.8,472.7L123.8,470.8L123.7,465.5L124.0,462.4L126.2,453.4L125.5,450.9L123.9,449.3L118.1,448.4L111.9,446.0L109.9,444.0L109.1,441.3L110.5,438.0L113.8,434.7L127.5,427.2L133.3,422.6L143.0,409.3L146.4,406.2L155.5,403.3L159.2,401.1L166.1,393.4L173.2,391.0L168.0,388.1L166.3,387.3L164.0,385.4L162.6,383.9L160.3,376.3L150.5,369.5L145.2,364.1L141.6,362.6L136.6,361.7L115.0,362.2L111.7,361.9L109.0,361.0L108.4,358.5L101.8,357.2L97.4,355.5L92.8,350.4L75.3,348.3Z " data-id="JO.BA" data-name="Balqa" id="JO.BA"/>
utf-8utf-8<path d="M165.0,576.6L169.0,571.5L171.8,558.2L173.1,555.0L176.0,550.0L176.6,548.1L176.0,546.3L172.1,542.5L171.7,540.2L172.2,535.3L170.3,531.6L158.2,519.8L155.9,515.2L153.1,507.6L152.5,502.2L153.5,499.9L157.3,494.7L158.4,492.0L158.7,489.3L155.8,468.0L153.9,466.3L152.2,466.0L145.5,468.3L132.9,468.3L123.8,470.8L120.8,472.7L114.2,473.3L111.2,474.3L108.4,476.3L107.1,478.3L105.1,486.2L101.8,493.7L99.0,496.7L95.7,498.4L93.7,498.3L92.9,540.3L97.6,552.5L99.3,560.9L98.3,571.2L121.8,578.9L126.6,579.8L130.0,579.8L137.5,577.4L145.9,576.5L151.2,576.6L162.6,579.2L165.0,576.6Z " data-id="JO.MD" data-name="Madaba" id="JO.MD"/>
utf-8utf-8<path d="M151.2,576.6L145.9,576.5L137.5,577.4L130.0,579.8L126.6,579.8L121.8,578.9L98.3,571.2L96.0,594.5L97.4,601.0L95.8,603.5L92.1,607.4L89.6,608.9L87.3,608.5L86.3,605.0L88.0,594.4L87.1,590.5L82.3,590.7L71.4,603.8L67.1,609.5L64.2,615.6L61.8,622.8L63.9,630.7L68.4,624.6L79.3,634.1L83.2,636.6L92.3,639.9L96.5,643.0L98.2,648.7L97.5,650.5L93.0,656.0L96.7,666.1L95.1,668.0L89.3,672.5L87.1,673.2L82.8,672.9L75.7,671.7L67.8,691.5L67.1,700.1L68.0,709.4L65.8,714.7L59.7,721.3L75.1,731.5L78.7,732.5L83.2,732.8L85.8,731.1L87.1,728.2L87.5,716.2L89.3,708.6L89.8,702.6L91.1,700.3L93.3,699.5L96.5,699.7L100.9,699.0L104.1,699.2L107.0,700.1L110.0,702.6L113.8,704.9L117.5,706.3L138.9,707.4L180.6,723.6L184.5,729.0L190.4,733.5L199.9,737.8L202.7,739.3L204.9,741.5L207.9,745.9L210.1,748.2L221.5,756.1L233.3,767.0L256.9,711.8L265.4,670.7L257.8,654.3L250.6,625.5L175.0,623.6L172.3,621.4L171.0,617.8L171.0,612.1L171.5,608.0L172.9,602.1L173.1,599.5L172.1,595.6L169.8,590.0L162.6,579.2L151.2,576.6Z " data-id="JO.KA" data-name="Karak" id="JO.KA"/>
utf-8utf-8<path d="M180.7,346.6L180.5,352.8L179.6,355.4L177.7,357.6L170.9,361.5L168.3,363.8L160.3,376.3L162.6,383.9L164.0,385.4L166.3,387.3L168.0,388.1L173.2,391.0L179.7,398.5L186.3,404.1L195.8,414.4L201.0,417.9L204.4,418.9L209.0,416.1L215.9,415.1L227.7,411.2L243.7,411.3L248.7,410.3L251.7,408.3L255.9,402.5L258.5,399.9L263.7,398.8L290.3,401.1L295.7,403.5L301.4,407.8L317.2,423.4L325.4,432.8L326.3,437.4L324.4,441.0L317.9,445.4L312.8,450.0L311.2,452.7L311.1,455.4L313.0,458.6L320.6,466.4L332.9,476.8L344.5,484.3L350.6,486.5L355.2,486.4L366.2,479.0L370.4,477.8L375.1,478.9L452.7,550.8L453.7,551.3L504.1,535.6L563.8,516.9L623.4,498.3L637.5,493.9L637.0,493.7L316.1,385.8L306.8,380.7L298.0,373.2L293.4,370.9L279.8,369.4L275.3,369.9L272.2,371.4L269.8,373.4L266.8,374.9L263.1,375.0L259.1,373.8L254.4,370.6L243.8,365.6L233.7,364.7L228.1,365.7L223.2,367.8L219.7,368.1L215.8,367.1L209.3,362.4L205.9,360.5L203.4,360.1L200.4,363.5L198.0,364.9L195.2,365.6L192.5,365.1L189.7,363.3L188.3,361.3L187.8,358.5L189.4,352.6L188.2,350.6L185.9,348.3L180.7,346.6Z " data-id="JO.AZ" data-name="Zarqa" id="JO.AZ"/>
utf-8</g>
</svg>
