<?xml version="1.0" ?>
<!DOCTYPE svg
  PUBLIC '-//W3C//DTD SVG 1.1//EN'
  'http://www.w3.org/Graphics/SVG/1.1/DTD/svg11.dtd'>
<svg enable_background="new 0 0 1000 1310" height="1310px" pretty_print="True" style="stroke-linejoin: round; stroke:#000; fill: none;" version="1.1" viewBox="0 0 1000 1310" width="1000px" xmlns="http://www.w3.org/2000/svg" xmlns:xlink="http://www.w3.org/1999/xlink">
utf-8<defs>
utf-8utf-8<style type="text/css">
<![CDATA[path { fill-rule: evenodd; }]]>utf-8utf-8</style>
utf-8</defs>
utf-8<metadata>
utf-8utf-8<views>
utf-8utf-8utf-8<view h="1310.4223491" padding="0" w="1000">
utf-8utf-8utf-8utf-8<proj flip="auto" id="robinson" lon0="39.7871525887"/>
utf-8utf-8utf-8utf-8<bbox h="153.05" w="116.88" x="502.96" y="-74.61"/>
utf-8utf-8utf-8</view>
utf-8utf-8</views>
utf-8</metadata>
utf-8<g class="" id="provinces">
utf-8utf-8<path d="M911.6,937.6L909.2,933.1L906.6,931.4L902.9,930.0L899.4,929.8L897.9,931.7L896.8,934.6L891.2,937.1L888.9,938.5L887.1,941.8L885.6,946.3L885.5,949.5L888.3,948.9L890.1,952.9L891.7,952.9L892.2,951.4L889.2,948.4L889.6,946.4L892.7,945.9L897.4,943.2L901.3,942.0L903.5,944.0L906.0,942.4L906.7,938.0L908.3,941.1L910.7,940.7L911.6,937.6Z M959.4,878.2L891.9,883.0L891.1,883.2L792.7,932.8L785.8,935.8L785.8,930.8L783.5,924.3L782.0,916.4L781.0,914.4L782.8,912.5L782.1,910.5L781.1,903.7L778.6,899.7L779.4,895.8L778.6,889.5L778.7,887.0L780.5,884.1L779.6,880.2L779.4,871.0L775.6,865.3L769.4,850.1L768.6,840.8L767.4,835.8L766.6,830.3L766.1,818.2L764.6,812.6L761.8,808.9L761.3,805.8L759.9,802.9L757.7,800.9L754.9,800.5L757.5,795.6L755.7,793.6L751.3,783.4L749.8,777.0L748.1,773.9L746.3,763.5L745.6,762.2L746.5,758.2L744.2,756.9L743.9,752.4L742.3,747.7L742.0,745.5L743.1,743.5L741.9,742.1L741.8,736.7L738.0,730.3L737.1,725.7L732.4,722.0L729.1,721.6L724.0,715.7L723.2,715.6L721.7,710.6L720.2,710.2L719.3,708.1L714.5,687.5L712.8,684.1L710.7,682.6L708.5,678.7L705.5,678.5L704.1,677.7L699.1,668.9L693.7,664.9L686.4,661.3L682.6,660.7L678.1,657.1L675.4,656.9L670.5,657.9L668.2,656.6L657.3,656.1L650.6,646.8L646.5,643.3L642.6,643.3L636.5,644.9L635.2,645.8L632.4,650.6L630.9,651.2L607.0,647.2L604.0,646.0L601.8,643.8L597.5,644.3L595.7,643.3L592.7,644.1L585.3,641.3L581.8,641.4L575.4,646.7L571.6,648.7L568.8,647.2L565.2,647.6L565.3,649.4L622.6,761.9L637.5,799.0L638.4,802.2L638.3,879.7L633.4,886.9L633.2,890.8L636.2,913.1L635.4,920.1L611.8,972.4L608.8,974.8L606.7,975.4L604.6,977.0L599.4,983.0L596.5,983.7L590.6,983.6L641.8,1070.5L636.0,1070.1L635.1,1071.0L626.0,1072.6L621.0,1073.1L619.1,1074.8L610.3,1077.3L610.8,1075.2L610.0,1074.1L604.0,1073.5L600.3,1071.9L598.0,1071.5L594.3,1072.2L592.4,1071.8L590.4,1070.2L587.8,1069.2L585.5,1067.1L576.8,1062.4L575.5,1062.4L573.3,1063.8L571.5,1063.7L566.8,1065.9L563.8,1062.7L554.0,1055.6L553.4,1053.3L550.8,1047.4L545.5,1038.0L543.2,1035.7L536.0,1032.2L531.8,1028.3L529.6,1025.0L527.5,1023.5L521.6,1028.2L506.2,1036.4L503.1,1037.5L499.9,1036.4L491.0,1069.4L488.7,1089.9L487.4,1092.9L483.1,1092.9L471.4,1094.7L469.1,1095.5L471.4,1113.0L469.1,1113.2L467.5,1119.0L465.1,1119.2L462.1,1121.0L457.4,1125.9L455.7,1130.4L455.9,1131.9L458.9,1133.3L459.5,1134.4L457.9,1139.6L458.3,1141.5L464.3,1141.1L472.1,1143.5L473.8,1145.4L474.7,1147.6L476.8,1156.4L479.8,1161.9L550.6,1220.4L657.2,1308.4L661.5,1305.3L663.9,1301.2L666.7,1298.3L670.4,1299.5L671.3,1296.6L674.2,1300.8L679.0,1302.2L683.3,1301.5L684.6,1299.5L682.5,1295.2L682.8,1293.2L685.1,1293.7L689.6,1285.8L690.0,1287.9L689.5,1292.1L690.3,1294.7L694.9,1280.0L698.7,1272.5L700.9,1271.1L702.0,1273.0L703.4,1268.9L707.8,1251.4L712.1,1239.7L718.6,1227.4L719.1,1223.9L716.7,1221.3L712.3,1219.8L708.1,1220.1L706.2,1222.9L705.4,1217.0L705.9,1216.0L709.7,1216.0L713.7,1215.0L715.9,1211.2L709.9,1208.2L711.3,1206.9L712.7,1207.2L716.0,1209.2L718.2,1207.1L718.0,1212.4L719.9,1214.9L720.6,1218.2L723.0,1218.2L725.8,1212.6L728.5,1209.3L728.9,1206.8L727.5,1206.0L724.7,1206.3L723.5,1205.0L721.3,1199.4L724.9,1196.6L724.8,1201.5L727.3,1203.6L730.9,1203.0L734.2,1199.4L744.9,1167.6L744.1,1158.7L742.8,1157.6L738.3,1159.6L736.6,1158.9L736.1,1157.3L737.6,1155.2L735.1,1155.3L733.6,1154.0L733.2,1151.8L734.3,1149.2L734.9,1152.2L738.9,1152.6L743.8,1156.6L746.6,1154.7L748.1,1151.3L749.5,1143.1L752.9,1137.0L755.6,1129.3L757.9,1125.2L757.0,1122.7L757.8,1119.2L758.2,1114.0L759.2,1112.6L761.5,1112.0L759.8,1119.4L758.7,1121.9L761.0,1121.4L762.7,1119.9L765.8,1115.9L767.5,1114.6L773.6,1111.5L775.5,1110.1L778.9,1104.1L779.0,1101.4L777.7,1096.2L777.8,1094.3L782.2,1087.3L783.0,1084.8L783.7,1077.5L787.1,1071.8L791.5,1067.0L792.5,1063.7L789.8,1065.9L787.2,1066.2L785.7,1064.6L786.4,1060.8L783.7,1058.5L784.1,1053.8L786.6,1044.7L787.1,1040.3L785.3,1037.4L785.6,1033.9L789.4,1028.5L794.5,1018.7L800.9,1013.0L804.6,1010.3L807.8,1009.2L813.1,1004.9L826.0,1000.4L830.1,999.9L834.1,1000.9L837.9,1002.8L841.7,1003.8L846.1,1001.9L854.0,991.5L859.9,988.7L863.9,985.5L867.4,981.6L868.9,978.3L868.1,976.3L864.5,973.6L863.7,971.5L864.6,970.0L862.2,964.6L864.8,966.2L867.4,963.6L870.3,959.7L876.1,956.7L877.4,957.3L877.8,959.7L880.8,963.4L884.7,965.6L880.5,967.9L880.9,969.6L883.7,968.9L886.9,964.6L888.4,960.9L887.0,957.2L885.4,956.0L881.3,955.7L879.7,952.1L879.1,946.6L878.9,936.1L876.7,934.6L876.3,933.2L878.0,930.7L876.6,926.7L875.0,926.2L872.9,927.2L872.1,921.4L873.6,919.4L874.8,919.9L879.5,924.3L881.8,933.1L884.1,935.1L886.9,931.3L887.5,914.4L892.1,910.5L890.1,913.7L889.9,919.2L888.7,923.2L889.1,927.4L892.7,930.7L894.7,930.8L897.5,927.2L900.9,925.6L903.4,922.5L914.7,923.2L915.9,919.9L916.4,916.4L919.0,913.5L919.1,916.6L920.5,918.2L922.7,918.5L925.1,917.4L927.0,920.1L929.6,918.3L934.2,912.0L941.5,904.6L944.2,902.7L944.8,900.2L949.5,892.3L959.3,881.0L959.4,878.2Z " data-id="KE.CO" data-name="Coast" id="KE.CO"/>
utf-8utf-8<path d="M392.5,643.8L390.9,646.3L386.9,651.1L386.9,655.4L389.9,660.8L389.3,669.7L388.9,671.1L382.0,680.0L375.1,681.1L370.9,678.3L365.9,671.2L365.1,667.4L366.2,666.8L367.9,661.3L367.6,658.2L361.6,655.8L359.0,655.8L349.9,658.4L344.0,659.3L341.7,658.6L333.8,657.7L328.3,652.5L327.5,647.9L340.9,637.1L339.3,634.5L337.5,635.7L333.9,636.3L331.0,632.6L324.8,629.1L323.6,625.5L320.5,622.0L316.9,624.1L310.2,628.7L307.0,629.5L304.1,629.3L300.5,632.9L295.3,635.2L292.5,637.8L288.0,649.1L286.3,658.1L286.5,665.4L284.9,671.1L285.5,678.0L291.7,693.5L295.8,694.4L300.0,693.5L301.8,696.0L306.2,695.2L308.2,698.9L307.6,705.1L309.9,721.2L310.7,721.9L316.5,721.2L318.5,723.8L323.4,726.1L324.6,733.8L326.2,741.8L325.8,755.2L330.3,770.3L330.0,772.8L333.1,780.9L332.2,785.5L332.1,788.9L332.9,793.2L330.6,797.6L327.2,798.3L322.3,814.4L323.2,817.3L338.0,819.9L343.4,823.5L344.4,824.0L347.9,819.8L350.0,816.3L354.9,813.1L359.0,807.4L362.0,805.8L370.7,806.7L372.9,806.4L377.6,801.3L381.4,802.5L381.9,803.9L380.7,806.3L383.3,810.5L388.3,812.2L390.1,812.3L397.4,810.4L400.3,812.7L402.1,815.2L403.9,813.2L406.5,807.1L407.6,799.2L407.5,797.4L409.2,794.4L417.1,792.3L419.7,791.0L422.3,790.9L426.3,794.1L428.3,792.3L431.8,786.8L431.7,784.0L433.0,777.4L431.9,775.7L426.8,778.2L424.7,776.7L423.5,774.1L422.2,768.7L421.2,767.0L416.5,762.5L417.5,749.7L419.5,746.8L422.3,746.9L427.5,751.7L429.8,752.0L446.6,744.9L448.2,743.3L446.4,737.6L446.3,722.5L445.2,720.4L441.2,715.0L440.7,701.4L440.3,699.1L427.0,662.2L426.0,660.7L399.9,638.5L396.9,635.1L392.5,643.8Z " data-id="KE.CE" data-name="Central" id="KE.CE"/>
utf-8utf-8<path d="M400.3,812.7L397.4,810.4L390.1,812.3L388.3,812.2L383.3,810.5L380.7,806.3L381.9,803.9L381.4,802.5L377.6,801.3L372.9,806.4L370.7,806.7L362.0,805.8L359.0,807.4L354.9,813.1L350.0,816.3L347.9,819.8L344.4,824.0L348.7,827.1L350.9,830.7L354.5,834.7L363.3,836.6L366.8,838.3L368.8,840.5L372.3,841.0L375.8,836.7L374.0,834.0L374.1,832.4L379.9,827.9L381.1,823.6L385.8,823.3L392.2,824.7L394.3,824.1L398.9,818.8L402.1,815.2L400.3,812.7Z " data-id="KE.NA" data-name="Nairobi" id="KE.NA"/>
utf-8utf-8<path d="M0.0,706.2L2.4,706.7L5.8,709.3L8.2,710.2L13.3,707.1L13.8,705.9L12.5,703.8L11.7,700.6L9.9,699.9L5.5,701.2L1.5,701.7L0.0,706.2Z M33.6,693.6L34.2,689.5L30.2,694.5L27.2,690.5L26.1,694.4L21.2,697.4L21.2,699.2L26.4,700.4L31.9,696.3L33.6,693.6Z M5.6,639.4L5.6,643.7L8.4,644.4L9.9,646.3L8.7,648.0L11.6,648.3L13.3,652.5L14.3,653.2L15.8,647.0L21.7,646.3L23.2,647.2L22.6,649.3L20.4,653.2L23.6,653.9L23.5,654.7L17.6,657.3L16.9,658.0L18.0,662.1L21.5,664.4L26.1,665.3L29.9,665.0L29.5,667.8L30.9,669.6L35.1,671.9L37.6,674.0L38.1,675.8L36.0,680.7L38.2,683.0L36.8,684.6L41.3,689.2L40.3,692.5L42.5,694.7L44.4,693.9L47.2,686.8L53.7,681.2L55.0,678.7L55.2,675.9L53.3,669.9L51.3,670.7L49.9,669.4L49.3,667.1L49.8,665.0L51.6,663.6L57.6,664.1L62.6,662.0L64.5,662.0L68.3,663.6L70.1,663.8L77.5,658.3L82.1,657.6L85.1,655.6L87.9,654.7L91.5,650.7L97.6,650.9L99.4,650.2L98.7,657.7L100.2,661.1L101.1,660.0L105.0,665.2L106.8,665.9L107.2,667.4L111.5,676.8L114.3,679.1L111.0,682.6L108.5,681.8L105.2,679.0L103.7,679.6L101.0,679.0L101.5,686.0L99.8,686.6L91.9,687.5L89.4,687.3L83.7,685.5L80.3,686.0L76.2,683.6L74.9,684.6L72.8,684.4L65.3,686.3L62.9,687.5L62.9,694.8L63.9,698.7L69.3,701.2L69.7,706.2L61.2,712.6L57.6,712.7L59.0,708.0L57.9,705.0L54.9,701.6L51.5,701.2L52.3,703.7L51.7,705.6L50.0,706.6L44.6,702.7L45.4,706.2L42.1,704.7L37.0,699.4L33.4,699.3L30.0,698.4L28.1,702.5L26.4,712.1L25.0,714.1L23.3,714.6L19.0,714.2L15.8,717.4L13.3,718.0L16.5,721.9L16.3,725.0L12.9,727.8L12.0,729.8L10.7,742.6L13.2,742.3L14.5,745.2L15.0,751.9L21.0,756.3L28.0,759.3L29.0,762.8L27.3,765.0L24.9,766.7L23.5,768.6L22.0,774.6L20.7,781.1L14.9,776.9L14.1,780.7L13.2,781.5L10.5,780.9L11.9,782.9L13.8,783.5L17.5,781.8L18.2,784.0L14.9,784.8L14.0,786.3L15.1,788.8L96.5,840.4L96.3,838.4L91.8,814.5L89.0,808.4L85.5,804.9L84.0,798.0L82.2,795.3L78.3,784.0L78.4,782.7L81.2,779.7L88.0,776.0L89.8,776.8L95.5,777.1L129.4,766.1L132.3,763.6L134.5,756.6L135.9,755.0L140.7,751.1L141.7,749.8L141.2,746.2L138.7,738.3L139.5,728.4L137.7,711.8L136.7,710.2L136.4,700.3L134.3,696.8L132.8,692.5L132.5,689.6L134.0,686.0L137.5,681.7L138.9,668.2L143.4,664.4L147.2,656.7L148.8,657.0L149.8,658.9L153.5,662.6L155.4,663.1L158.4,662.2L159.8,663.5L160.6,665.6L165.2,668.2L167.5,672.5L171.6,673.6L172.6,673.2L173.9,664.9L172.9,663.1L167.2,658.0L165.8,653.2L161.9,650.7L161.3,646.4L158.6,642.6L157.1,642.4L154.3,643.9L152.4,643.3L147.0,640.7L144.4,641.4L140.0,646.3L137.5,645.7L129.3,641.8L124.2,644.0L118.3,643.1L110.8,643.5L103.1,638.8L102.1,639.0L99.2,639.8L92.7,639.4L89.8,640.6L87.9,640.6L84.9,639.0L79.1,638.6L74.1,640.8L70.1,637.9L71.7,632.6L71.7,628.2L71.0,623.8L64.4,619.4L64.1,614.9L57.2,607.0L56.1,599.5L52.9,594.6L51.8,594.1L47.9,595.5L45.1,595.7L36.3,594.2L34.3,594.9L30.4,601.3L24.2,601.9L20.4,604.5L18.2,607.2L15.7,620.9L13.3,621.8L9.3,624.9L8.6,626.5L8.8,630.7L8.3,633.0L5.5,639.1L5.6,639.4Z " data-id="KE.NY" data-name="Nyanza" id="KE.NY"/>
utf-8utf-8<path d="M396.9,635.1L399.9,638.5L426.0,660.7L427.0,662.2L440.3,699.1L440.7,701.4L441.2,715.0L445.2,720.4L446.3,722.5L446.4,737.6L448.2,743.3L446.6,744.9L429.8,752.0L427.5,751.7L422.3,746.9L419.5,746.8L417.5,749.7L416.5,762.5L421.2,767.0L422.2,768.7L423.5,774.1L424.7,776.7L426.8,778.2L431.9,775.7L433.0,777.4L431.7,784.0L431.8,786.8L428.3,792.3L426.3,794.1L422.3,790.9L419.7,791.0L417.1,792.3L409.2,794.4L407.5,797.4L407.6,799.2L406.5,807.1L403.9,813.2L402.1,815.2L398.9,818.8L394.3,824.1L392.2,824.7L385.8,823.3L381.1,823.6L379.9,827.9L374.1,832.4L374.0,834.0L375.8,836.7L372.3,841.0L368.8,840.5L367.9,845.5L368.7,847.4L370.9,847.4L375.0,845.2L377.8,845.1L381.2,845.9L382.7,847.3L380.6,854.7L381.8,858.7L384.8,864.8L403.2,889.9L405.0,893.0L403.8,898.0L404.0,901.3L407.5,911.3L409.9,914.2L412.6,915.1L417.1,918.4L422.5,924.6L428.7,925.8L432.2,927.2L439.2,931.2L445.0,936.0L451.9,939.7L459.7,946.8L470.0,948.3L474.7,951.3L475.5,952.4L470.0,956.2L467.4,967.0L460.6,971.1L459.4,973.9L460.3,976.5L497.3,1025.5L498.5,1029.0L499.9,1036.4L503.1,1037.5L506.2,1036.4L521.6,1028.2L527.5,1023.5L529.6,1025.0L531.8,1028.3L536.0,1032.2L543.2,1035.7L545.5,1038.0L550.8,1047.4L553.4,1053.3L554.0,1055.6L563.8,1062.7L566.8,1065.9L571.5,1063.7L573.3,1063.8L575.5,1062.4L576.8,1062.4L585.5,1067.1L587.8,1069.2L590.4,1070.2L592.4,1071.8L594.3,1072.2L598.0,1071.5L600.3,1071.9L604.0,1073.5L610.0,1074.1L610.8,1075.2L610.3,1077.3L619.1,1074.8L621.0,1073.1L626.0,1072.6L635.1,1071.0L636.0,1070.1L641.8,1070.5L590.6,983.6L596.5,983.7L599.4,983.0L604.6,977.0L606.7,975.4L608.8,974.8L611.8,972.4L635.4,920.1L636.2,913.1L633.2,890.8L633.4,886.9L638.3,879.7L638.4,802.2L637.5,799.0L622.6,761.9L565.3,649.4L565.2,647.6L568.8,647.2L571.6,648.7L575.4,646.7L581.8,641.4L585.3,641.3L592.7,644.1L595.7,643.3L597.5,644.3L601.8,643.8L604.0,646.0L607.0,647.2L605.9,617.5L607.6,612.5L607.2,607.0L600.3,573.7L597.4,571.0L598.3,567.2L600.5,565.8L611.6,562.8L617.1,553.9L659.1,535.9L662.1,528.3L665.6,522.4L667.3,520.3L673.1,514.1L677.9,505.1L692.9,498.6L694.3,497.8L695.2,494.7L673.9,431.2L675.8,427.8L695.5,418.8L688.1,413.0L685.2,409.4L681.5,403.6L668.7,394.5L665.6,393.2L661.7,388.7L660.4,382.2L656.4,375.7L655.4,372.9L651.7,368.1L646.7,363.9L641.3,354.8L637.4,346.4L635.0,339.1L632.8,336.6L630.4,330.7L630.8,323.9L627.3,303.5L626.8,295.6L624.9,286.7L623.1,282.6L622.3,277.4L624.2,275.7L630.9,273.3L633.5,268.9L648.8,229.0L650.2,227.8L650.9,220.8L654.3,217.7L657.7,216.8L659.9,215.4L661.8,213.1L663.9,211.6L670.3,209.3L677.7,200.4L677.9,198.1L677.5,179.2L676.6,171.1L675.3,166.1L673.1,139.5L673.1,137.3L668.2,140.5L663.4,140.6L658.5,139.4L644.1,132.3L636.9,134.1L630.9,133.0L625.6,134.1L622.3,134.2L600.3,127.5L597.9,126.0L595.9,123.8L592.4,118.7L592.4,122.6L585.0,122.0L584.0,120.2L582.2,121.0L578.1,120.4L573.2,114.5L571.9,115.1L571.7,118.4L565.3,121.6L558.2,122.2L531.2,118.8L527.2,119.2L523.3,120.3L521.7,120.0L518.8,117.1L513.3,114.8L511.3,112.2L508.0,106.3L505.7,103.7L395.1,24.0L392.5,22.9L391.8,19.7L389.5,16.7L386.1,16.2L384.0,12.4L382.8,11.3L377.6,10.0L368.5,4.9L360.9,2.5L336.6,2.7L332.5,0.9L289.2,1.9L282.7,0.0L278.3,0.7L259.9,0.9L262.1,169.4L263.1,173.0L265.6,174.7L269.9,176.8L274.5,176.3L275.2,177.2L273.5,183.1L275.4,191.1L272.1,206.6L272.9,209.6L274.8,210.4L279.9,210.2L283.9,213.1L287.2,210.4L288.7,211.7L289.5,216.0L295.3,221.8L302.3,227.0L305.2,229.8L309.1,237.7L310.0,241.7L312.5,247.4L312.6,257.4L313.5,260.8L317.8,263.5L320.0,266.4L323.0,272.1L324.1,278.0L324.2,284.6L325.0,290.6L328.4,294.6L333.3,292.8L336.4,293.4L338.2,292.5L345.0,284.2L346.5,281.4L347.2,278.3L345.7,274.0L350.2,273.9L351.9,276.7L362.5,309.6L363.5,311.5L371.0,318.8L372.8,322.3L378.4,338.8L379.5,343.5L379.1,347.4L380.5,348.2L384.1,347.8L390.0,347.7L402.5,348.9L403.9,349.3L409.2,355.0L410.2,356.7L413.7,359.6L418.1,364.5L421.1,370.7L423.3,377.0L426.0,379.9L431.1,382.9L433.8,395.1L434.9,397.7L438.2,401.8L445.8,409.8L454.5,432.8L457.2,434.6L462.4,433.0L468.0,431.7L471.9,429.6L474.1,430.0L478.5,428.3L481.0,426.6L487.8,425.7L493.2,423.1L501.2,431.7L502.8,433.8L503.4,436.0L504.8,455.4L505.4,457.8L506.9,460.3L514.7,470.4L516.7,474.9L519.6,524.0L513.6,522.8L512.5,523.0L506.5,529.4L501.5,532.6L496.6,531.7L492.9,534.6L491.9,536.7L489.6,538.7L486.6,539.7L482.0,539.5L477.3,541.9L473.5,541.6L471.2,544.3L463.0,551.1L460.5,552.3L457.6,555.2L454.8,553.8L450.8,554.5L444.4,551.9L442.4,552.8L436.7,553.9L435.3,553.5L430.5,548.1L430.1,545.5L427.0,539.2L423.0,532.8L418.4,528.2L414.9,528.1L413.5,529.5L408.7,529.6L407.0,528.2L401.8,525.8L396.5,524.3L390.3,527.1L380.8,529.3L376.0,530.1L375.5,532.7L375.5,540.0L373.9,542.1L373.1,545.0L370.8,548.3L368.8,550.0L370.5,553.8L427.8,562.2L430.4,567.1L430.2,574.3L431.5,578.9L436.1,589.5L435.8,593.0L435.0,595.4L433.3,597.9L432.2,600.6L431.8,606.9L431.3,608.5L418.2,623.9L412.8,628.1L400.6,633.0L396.9,635.1Z " data-id="KE.NA" data-name="Eastern" id="KE.NA"/>
utf-8utf-8<path d="M104.2,635.4L109.6,629.3L112.0,626.0L113.8,620.5L116.4,617.2L120.0,614.0L121.8,610.8L124.3,600.6L122.5,593.9L123.6,584.5L121.7,575.8L120.0,571.8L118.8,570.3L113.5,567.5L111.9,565.4L112.1,559.2L113.0,556.1L116.8,554.4L119.9,555.7L122.0,555.9L123.8,554.4L129.2,547.7L133.1,548.0L138.9,546.6L142.1,547.6L147.3,543.6L148.9,539.6L151.8,537.8L153.8,535.5L153.5,530.7L152.7,529.8L152.2,522.9L149.6,518.7L149.0,516.7L146.9,514.7L138.9,511.2L131.7,510.9L126.4,512.0L122.8,516.7L121.7,517.4L118.4,516.7L111.5,518.7L106.8,519.4L102.7,516.4L102.1,514.7L101.8,508.5L97.9,507.0L84.8,491.5L82.5,487.5L82.3,484.9L77.5,479.8L74.1,481.7L70.0,479.8L67.4,482.7L65.1,488.2L64.5,491.2L64.4,497.7L63.7,500.6L60.4,509.8L56.8,515.2L55.0,520.9L52.8,523.2L44.7,527.8L40.9,540.3L37.9,544.0L33.8,546.3L28.6,548.4L24.9,551.3L19.2,571.6L15.6,577.3L15.7,580.0L17.2,585.2L16.8,588.1L15.7,590.0L11.2,594.0L5.5,602.6L6.2,607.4L5.0,611.9L4.6,620.8L3.8,622.7L0.8,622.7L0.4,624.2L1.2,629.6L4.7,634.0L4.8,635.3L5.5,639.1L8.3,633.0L8.8,630.7L8.6,626.5L9.3,624.9L13.3,621.8L15.7,620.9L18.2,607.2L20.4,604.5L24.2,601.9L30.4,601.3L34.3,594.9L36.3,594.2L45.1,595.7L47.9,595.5L51.8,594.1L52.9,594.6L56.1,599.5L57.2,607.0L64.1,614.9L64.4,619.4L71.0,623.8L71.7,628.2L71.7,632.6L70.1,637.9L74.1,640.8L79.1,638.6L84.9,639.0L87.9,640.6L89.8,640.6L92.7,639.4L99.2,639.8L102.1,639.0L104.2,635.4Z " data-id="KE.WE" data-name="Western" id="KE.WE"/>
utf-8utf-8<path d="M673.1,137.3L673.1,139.5L675.3,166.1L676.6,171.1L677.5,179.2L677.9,198.1L677.7,200.4L670.3,209.3L663.9,211.6L661.8,213.1L659.9,215.4L657.7,216.8L654.3,217.7L650.9,220.8L650.2,227.8L648.8,229.0L633.5,268.9L630.9,273.3L624.2,275.7L622.3,277.4L623.1,282.6L624.9,286.7L626.8,295.6L627.3,303.5L630.8,323.9L630.4,330.7L632.8,336.6L635.0,339.1L637.4,346.4L641.3,354.8L646.7,363.9L651.7,368.1L655.4,372.9L656.4,375.7L660.4,382.2L661.7,388.7L665.6,393.2L668.7,394.5L681.5,403.6L685.2,409.4L688.1,413.0L695.5,418.8L675.8,427.8L673.9,431.2L695.2,494.7L694.3,497.8L692.9,498.6L677.9,505.1L673.1,514.1L667.3,520.3L665.6,522.4L662.1,528.3L659.1,535.9L617.1,553.9L611.6,562.8L600.5,565.8L598.3,567.2L597.4,571.0L600.3,573.7L607.2,607.0L607.6,612.5L605.9,617.5L607.0,647.2L630.9,651.2L632.4,650.6L635.2,645.8L636.5,644.9L642.6,643.3L646.5,643.3L650.6,646.8L657.3,656.1L668.2,656.6L670.5,657.9L675.4,656.9L678.1,657.1L682.6,660.7L686.4,661.3L693.7,664.9L699.1,668.9L704.1,677.7L705.5,678.5L708.5,678.7L710.7,682.6L712.8,684.1L714.5,687.5L719.3,708.1L720.2,710.2L721.7,710.6L723.2,715.6L724.0,715.7L729.1,721.6L732.4,722.0L737.1,725.7L738.0,730.3L741.8,736.7L741.9,742.1L743.1,743.5L742.0,745.5L742.3,747.7L743.9,752.4L744.2,756.9L746.5,758.2L745.6,762.2L746.3,763.5L748.1,773.9L749.8,777.0L751.3,783.4L755.7,793.6L757.5,795.6L754.9,800.5L757.7,800.9L759.9,802.9L761.3,805.8L761.8,808.9L764.6,812.6L766.1,818.2L766.6,830.3L767.4,835.8L768.6,840.8L769.4,850.1L775.6,865.3L779.4,871.0L779.6,880.2L780.5,884.1L778.7,887.0L778.6,889.5L779.4,895.8L778.6,899.7L781.1,903.7L782.1,910.5L782.8,912.5L781.0,914.4L782.0,916.4L783.5,924.3L785.8,930.8L785.8,935.8L792.7,932.8L891.1,883.2L891.9,883.0L959.4,878.2L959.8,869.2L959.4,866.5L957.9,863.3L908.7,790.8L889.7,762.7L889.3,716.0L888.5,638.3L888.5,620.3L888.2,494.9L887.6,405.3L887.2,351.6L886.5,279.9L885.5,234.5L887.3,230.5L932.6,179.0L951.8,147.2L999.6,67.7L993.5,71.7L987.8,70.5L982.2,67.1L976.1,64.9L970.8,68.4L961.8,66.7L951.7,69.6L948.4,69.8L942.1,71.8L915.0,73.5L908.3,72.7L902.2,69.9L896.5,64.9L888.2,52.0L884.8,48.6L882.7,47.2L876.7,44.9L873.0,42.1L870.8,37.7L867.6,33.6L859.9,27.8L857.1,23.6L849.2,29.6L809.2,47.1L807.1,50.9L784.5,59.8L782.2,59.4L781.6,61.7L775.9,64.9L742.2,83.5L739.7,87.0L733.9,105.1L731.9,109.5L729.5,113.1L711.5,132.0L708.3,136.4L705.7,146.0L703.6,149.8L699.6,150.0L697.5,148.5L694.8,143.0L690.8,141.5L675.0,141.0L676.2,138.4L675.6,136.9L673.9,136.8L673.1,137.3Z " data-id="KE.NE" data-name="North-Eastern" id="KE.NE"/>
utf-8</g>
</svg>
