<?xml version="1.0" ?>
<!DOCTYPE svg
  PUBLIC '-//W3C//DTD SVG 1.1//EN'
  'http://www.w3.org/Graphics/SVG/1.1/DTD/svg11.dtd'>
<svg enable_background="new 0 0 1000 487" height="487px" pretty_print="True" style="stroke-linejoin: round; stroke:#000; fill: none;" version="1.1" viewBox="0 0 1000 487" width="1000px" xmlns="http://www.w3.org/2000/svg" xmlns:xlink="http://www.w3.org/1999/xlink">
utf-8<defs>
utf-8utf-8<style type="text/css">
<![CDATA[path { fill-rule: evenodd; }]]>utf-8utf-8</style>
utf-8</defs>
utf-8<metadata>
utf-8utf-8<views>
utf-8utf-8utf-8<view h="487.505927925" padding="0" w="1000">
utf-8utf-8utf-8utf-8<proj flip="auto" id="robinson" lon0="74.5880799103"/>
utf-8utf-8utf-8utf-8<bbox h="66.95" w="137.61" x="946.04" y="-725.18"/>
utf-8utf-8utf-8</view>
utf-8utf-8</views>
utf-8</metadata>
utf-8<g class="" id="provinces">
utf-8utf-8<path d="M418.8,53.3L417.2,49.1L419.1,46.1L410.7,38.2L410.4,40.1L408.3,42.8L403.5,44.0L402.5,45.4L404.2,47.4L411.0,51.1L412.3,55.1L414.7,56.7L416.1,53.4L418.8,53.3Z " data-id="KG.GB" data-name="Bishkek" id="KG.GB"/>
utf-8utf-8<path d="M323.5,98.8L326.4,99.1L328.2,97.1L328.4,95.7L327.2,91.6L328.6,91.1L329.9,93.1L334.8,95.4L337.5,95.1L341.9,100.9L340.1,103.1L339.3,108.0L337.7,111.4L331.4,114.4L327.8,114.8L320.0,112.8L316.1,113.2L312.8,114.7L306.7,113.9L297.4,116.6L294.1,119.5L290.9,119.4L289.4,121.3L289.8,124.8L291.6,127.3L295.5,128.3L296.8,130.2L296.4,132.0L297.6,133.6L307.3,136.1L312.0,136.9L315.8,138.9L317.5,138.9L323.1,141.1L327.6,146.2L330.1,145.5L335.8,147.0L342.6,146.5L352.7,149.7L359.5,145.8L363.7,146.0L367.9,148.5L371.1,153.5L382.4,152.4L385.8,151.9L388.8,148.9L391.8,152.5L397.5,157.3L400.1,157.9L403.5,157.0L404.8,158.4L406.0,163.3L407.3,164.4L408.6,163.3L408.2,158.7L411.5,156.0L414.7,157.5L417.2,157.2L418.4,154.7L417.4,151.1L419.6,146.6L417.8,141.1L420.5,136.6L419.2,135.0L415.6,134.1L414.3,131.4L412.6,120.4L413.9,120.0L420.4,120.6L423.4,121.5L439.9,119.1L442.2,119.2L444.3,121.4L446.7,118.3L448.9,113.7L450.5,112.8L462.6,113.0L461.1,109.8L454.3,103.3L450.9,99.1L451.9,98.5L465.3,96.6L468.2,95.1L472.9,98.3L478.4,95.6L482.7,96.8L497.8,97.4L510.3,97.1L518.8,94.8L519.5,95.2L522.5,100.3L523.7,99.9L527.8,96.9L528.8,95.0L530.3,94.3L533.4,92.1L534.1,91.0L533.5,87.7L533.9,86.8L537.4,85.9L543.4,81.4L543.6,79.4L545.6,78.7L554.9,79.2L567.4,76.2L569.7,76.2L575.2,77.3L578.3,74.8L581.5,69.1L584.8,66.5L590.6,63.7L598.3,61.6L598.9,58.0L600.7,57.2L607.3,58.5L609.8,58.3L615.6,59.0L619.9,56.5L621.6,56.6L626.8,58.3L631.3,58.3L632.0,54.7L633.6,54.0L656.7,54.4L660.9,53.3L663.2,46.5L667.1,44.3L665.0,41.3L663.3,41.3L659.8,39.9L655.7,36.4L650.6,34.5L635.0,32.4L631.6,33.7L624.0,35.3L622.7,37.4L615.7,40.9L609.6,41.2L601.8,42.7L596.1,40.8L593.4,40.5L591.8,41.2L589.8,43.7L584.2,41.3L580.4,42.3L571.2,40.0L562.4,40.0L554.7,38.5L552.1,38.5L546.5,40.4L544.2,40.3L535.8,38.3L531.9,37.8L524.6,38.6L523.9,39.5L523.4,47.0L519.2,52.4L516.7,53.5L514.3,53.6L507.1,51.3L501.4,51.4L478.5,48.9L472.1,48.9L469.3,48.4L462.3,45.2L456.2,42.2L449.7,40.6L446.5,39.4L442.9,37.2L433.3,33.6L421.6,31.9L417.8,30.8L405.4,23.9L395.7,16.3L391.4,15.3L387.2,13.3L382.9,12.9L380.7,12.0L374.3,8.3L371.1,7.1L364.5,5.4L358.2,1.4L354.9,0.0L358.6,3.2L360.4,5.3L360.7,6.9L359.4,7.7L344.6,9.4L342.7,8.9L338.1,5.9L335.9,5.3L333.7,7.3L333.3,15.4L330.3,17.1L324.6,17.3L310.1,23.4L304.7,28.7L304.3,38.2L303.5,45.1L308.0,53.1L308.3,54.9L305.9,70.4L306.2,74.5L307.5,79.0L309.5,82.9L312.3,86.6L323.5,98.8Z M418.8,53.3L416.1,53.4L414.7,56.7L412.3,55.1L411.0,51.1L404.2,47.4L402.5,45.4L403.5,44.0L408.3,42.8L410.4,40.1L410.7,38.2L419.1,46.1L417.2,49.1L418.8,53.3Z " data-id="KG.GB" data-name="Chuy" id="KG.GB"/>
utf-8utf-8<path d="M665.0,41.3L667.1,44.3L663.2,46.5L660.9,53.3L656.7,54.4L633.6,54.0L632.0,54.7L631.3,58.3L626.8,58.3L621.6,56.6L619.9,56.5L615.6,59.0L609.8,58.3L607.3,58.5L600.7,57.2L598.9,58.0L598.3,61.6L590.6,63.7L584.8,66.5L581.5,69.1L578.3,74.8L575.2,77.3L569.7,76.2L567.4,76.2L554.9,79.2L545.6,78.7L543.6,79.4L543.4,81.4L537.4,85.9L533.9,86.8L533.5,87.7L534.1,91.0L533.4,92.1L530.3,94.3L530.9,95.3L534.6,100.1L537.1,100.3L544.3,103.3L546.8,106.2L548.9,107.1L555.8,106.6L558.0,105.3L558.8,102.5L562.9,103.1L565.7,105.5L568.0,109.6L573.5,114.2L574.2,123.3L575.3,125.1L579.0,127.2L580.9,130.2L588.6,135.0L589.7,137.5L587.4,142.5L585.7,143.8L586.5,147.1L588.1,147.5L596.7,145.6L598.6,144.6L608.9,148.0L611.1,147.3L616.8,148.3L619.4,149.6L632.4,151.3L641.8,155.1L645.2,156.2L648.3,156.5L650.2,155.4L651.7,155.8L651.2,159.7L651.6,165.8L648.1,166.6L641.7,166.2L639.6,166.4L637.2,167.9L636.6,170.4L640.3,173.9L653.6,174.4L656.8,173.2L660.2,173.8L665.8,176.2L667.5,181.3L666.7,183.5L667.2,189.9L665.8,195.0L672.2,195.1L675.2,197.5L681.2,198.3L690.2,196.0L697.3,196.6L703.3,197.8L720.9,197.5L725.1,195.0L728.1,194.3L732.0,192.6L733.5,194.8L734.9,202.7L734.7,206.9L733.5,207.7L731.4,207.2L735.9,215.0L737.6,216.3L743.4,218.4L748.9,221.3L748.4,224.9L749.0,231.4L747.4,235.3L751.0,235.3L765.8,231.2L768.6,229.7L774.6,229.9L776.6,232.7L776.2,235.3L777.4,239.2L780.3,240.3L789.6,240.2L803.2,243.3L810.5,243.2L817.2,242.1L820.8,239.9L823.6,237.6L828.3,237.8L830.2,239.3L835.4,245.2L837.9,246.4L838.6,243.2L841.0,238.4L845.5,234.9L845.8,232.8L844.8,230.7L841.4,226.1L841.1,224.0L846.8,219.4L853.7,213.0L860.4,211.6L863.4,210.2L863.7,206.1L866.0,203.1L877.6,198.3L884.4,192.6L886.0,191.8L891.5,190.8L900.0,183.6L911.0,179.0L914.2,175.1L917.5,173.6L924.4,175.4L928.4,174.6L934.4,169.8L939.9,167.6L944.2,164.1L948.2,163.1L952.9,163.2L957.0,162.7L959.4,159.7L959.1,153.2L961.1,148.2L964.2,146.9L968.8,145.7L993.5,146.0L997.8,144.5L999.0,140.8L998.0,138.5L993.1,133.6L988.9,126.1L983.8,123.8L979.6,120.3L975.5,116.2L970.8,112.4L962.6,107.3L955.1,100.9L950.1,98.4L926.9,94.3L922.5,94.1L915.2,95.5L905.6,94.9L900.0,93.1L896.1,89.9L888.2,80.4L884.0,77.5L875.1,74.3L870.4,71.1L865.0,64.4L862.7,57.1L861.6,55.9L858.9,55.3L855.3,56.0L849.0,59.4L845.2,59.3L841.0,58.0L834.4,57.6L825.5,54.8L813.3,53.7L807.1,50.4L802.3,48.3L791.6,45.4L784.9,44.8L780.7,45.0L774.7,48.3L772.6,48.2L766.1,46.6L761.8,47.2L757.3,47.0L747.1,47.8L742.6,47.2L736.0,44.3L731.2,43.3L724.9,45.9L721.1,43.0L714.0,41.6L707.5,41.4L705.6,41.7L701.3,43.9L699.6,43.9L693.0,40.8L689.1,40.8L683.2,40.2L679.7,42.0L676.8,42.8L666.7,41.3L665.0,41.3Z " data-id="KG.YK" data-name="Ysyk-Köl" id="KG.YK"/>
utf-8utf-8<path d="M530.3,94.3L528.8,95.0L527.8,96.9L523.7,99.9L522.5,100.3L519.5,95.2L518.8,94.8L510.3,97.1L497.8,97.4L482.7,96.8L478.4,95.6L472.9,98.3L468.2,95.1L465.3,96.6L451.9,98.5L450.9,99.1L454.3,103.3L461.1,109.8L462.6,113.0L450.5,112.8L448.9,113.7L446.7,118.3L444.3,121.4L442.2,119.2L439.9,119.1L423.4,121.5L420.4,120.6L413.9,120.0L412.6,120.4L414.3,131.4L415.6,134.1L419.2,135.0L420.5,136.6L417.8,141.1L419.6,146.6L417.4,151.1L418.4,154.7L417.2,157.2L414.7,157.5L411.5,156.0L408.2,158.7L408.6,163.3L407.3,164.4L406.0,163.3L404.8,158.4L403.5,157.0L400.1,157.9L397.5,157.3L391.8,152.5L388.8,148.9L385.8,151.9L382.4,152.4L371.1,153.5L370.9,154.9L368.9,160.1L365.9,161.2L372.1,165.8L375.8,167.4L376.5,167.1L377.2,163.0L384.4,165.9L386.6,164.6L391.1,165.9L392.8,167.2L395.0,171.7L396.7,178.2L397.5,179.2L401.2,179.9L405.6,180.1L408.9,180.8L411.0,182.7L412.4,185.1L416.8,194.5L415.2,195.7L409.2,193.0L408.3,189.6L405.2,186.1L401.1,184.7L396.9,184.1L395.2,184.7L393.5,186.8L398.8,193.6L400.4,193.2L405.8,196.3L407.9,196.8L411.3,198.9L414.9,200.1L420.4,199.0L430.3,201.5L438.7,200.5L444.2,201.1L448.1,202.0L452.3,199.1L458.8,199.5L469.5,194.8L472.8,191.8L478.1,194.4L478.6,196.3L479.8,212.2L479.5,216.6L477.5,221.0L469.3,225.2L463.5,226.1L458.7,228.5L451.7,231.0L450.9,232.9L453.9,236.8L459.3,241.8L457.6,242.4L453.0,241.3L445.6,242.9L440.7,243.0L437.5,245.1L436.0,245.4L433.5,247.8L430.9,247.7L430.2,252.2L439.6,257.8L439.1,260.7L433.5,270.4L435.4,272.2L449.6,281.5L452.6,283.0L457.4,289.3L460.6,291.1L475.2,302.5L480.2,305.7L482.6,306.8L497.8,311.4L501.6,314.1L502.6,319.6L505.2,321.0L512.9,322.1L515.7,324.5L526.4,324.8L529.3,325.8L529.5,325.4L531.5,325.2L534.1,326.2L544.4,331.7L548.5,333.1L552.3,333.9L554.7,333.5L558.9,331.5L561.2,331.1L567.6,333.8L569.3,333.4L570.0,330.4L573.0,329.2L589.4,313.1L592.7,310.8L596.3,310.9L599.9,313.4L603.3,318.5L606.0,325.2L607.5,327.5L614.0,332.8L614.9,334.9L613.6,340.5L614.6,342.7L619.4,350.1L621.6,351.8L623.8,351.6L627.7,349.8L632.0,349.7L638.9,351.3L643.1,350.9L644.6,349.7L646.8,343.9L654.3,340.0L665.0,342.6L667.7,340.7L669.5,336.8L671.4,333.8L674.5,334.7L676.2,336.7L680.1,344.1L682.0,345.6L683.5,345.0L685.7,342.2L692.6,336.9L694.5,334.5L695.6,331.0L696.0,322.6L697.3,318.9L701.3,315.2L701.6,311.5L698.2,299.4L698.4,295.1L699.8,291.4L702.2,288.8L705.4,286.8L706.5,285.3L706.5,282.9L702.8,275.9L703.0,273.6L707.0,269.7L709.5,265.5L712.9,264.0L722.7,261.8L725.6,262.2L731.7,264.7L735.0,265.6L747.5,266.4L752.6,264.7L755.7,264.6L761.5,265.6L771.2,269.2L774.1,269.3L781.0,267.3L789.2,266.9L800.0,260.5L803.0,259.5L806.5,259.4L819.9,261.1L824.3,262.7L828.0,262.3L835.2,254.5L836.9,251.1L837.9,246.4L835.4,245.2L830.2,239.3L828.3,237.8L823.6,237.6L820.8,239.9L817.2,242.1L810.5,243.2L803.2,243.3L789.6,240.2L780.3,240.3L777.4,239.2L776.2,235.3L776.6,232.7L774.6,229.9L768.6,229.7L765.8,231.2L751.0,235.3L747.4,235.3L749.0,231.4L748.4,224.9L748.9,221.3L743.4,218.4L737.6,216.3L735.9,215.0L731.4,207.2L733.5,207.7L734.7,206.9L734.9,202.7L733.5,194.8L732.0,192.6L728.1,194.3L725.1,195.0L720.9,197.5L703.3,197.8L697.3,196.6L690.2,196.0L681.2,198.3L675.2,197.5L672.2,195.1L665.8,195.0L667.2,189.9L666.7,183.5L667.5,181.3L665.8,176.2L660.2,173.8L656.8,173.2L653.6,174.4L640.3,173.9L636.6,170.4L637.2,167.9L639.6,166.4L641.7,166.2L648.1,166.6L651.6,165.8L651.2,159.7L651.7,155.8L650.2,155.4L648.3,156.5L645.2,156.2L641.8,155.1L632.4,151.3L619.4,149.6L616.8,148.3L611.1,147.3L608.9,148.0L598.6,144.6L596.7,145.6L588.1,147.5L586.5,147.1L585.7,143.8L587.4,142.5L589.7,137.5L588.6,135.0L580.9,130.2L579.0,127.2L575.3,125.1L574.2,123.3L573.5,114.2L568.0,109.6L565.7,105.5L562.9,103.1L558.8,102.5L558.0,105.3L555.8,106.6L548.9,107.1L546.8,106.2L544.3,103.3L537.1,100.3L534.6,100.1L530.9,95.3L530.3,94.3Z " data-id="KG.NA" data-name="Naryn" id="KG.NA"/>
utf-8utf-8<path d="M260.8,355.8L261.6,356.7L258.5,358.1L250.7,357.6L246.6,356.7L243.0,356.9L240.8,359.8L238.4,366.7L234.1,369.6L230.6,369.1L229.4,367.3L227.9,362.3L224.3,357.2L222.1,355.8L220.8,357.3L220.8,363.0L218.4,363.3L208.5,360.3L206.2,358.7L203.5,355.5L198.7,354.2L194.8,351.5L188.1,351.6L186.5,351.0L182.7,347.9L181.4,348.3L180.5,350.5L179.7,355.2L176.6,355.5L164.7,353.9L159.2,354.8L156.7,358.2L159.6,361.2L158.8,364.1L156.2,366.4L153.4,367.4L147.8,366.2L144.6,368.1L143.5,367.4L138.2,372.4L132.5,374.4L130.5,376.7L131.0,379.8L132.2,383.5L132.6,387.7L131.9,389.9L127.1,393.5L123.0,393.6L121.0,399.0L118.7,398.2L117.4,396.6L117.4,392.3L118.2,390.6L122.1,387.7L122.7,385.0L121.1,382.9L115.7,380.7L107.5,379.6L103.2,378.0L99.6,377.6L97.6,376.7L92.0,372.0L89.5,371.0L82.3,371.1L80.0,370.4L63.3,361.8L59.8,361.4L24.6,374.5L23.0,374.7L18.2,371.9L18.0,375.3L16.0,380.8L16.2,383.9L19.6,390.8L23.1,394.7L23.6,396.3L15.0,399.5L8.1,391.9L4.3,388.8L2.8,388.6L1.9,394.7L1.0,407.7L1.2,412.3L2.3,417.1L3.6,419.3L9.6,424.0L11.9,428.3L15.5,442.8L17.7,445.7L21.2,444.2L21.7,441.6L22.5,441.2L26.2,443.9L28.5,444.6L38.2,443.0L42.1,439.3L43.7,438.7L52.2,438.1L56.4,438.6L60.6,439.8L65.4,442.1L69.6,443.2L76.8,441.7L81.0,442.1L84.4,443.4L87.2,439.3L89.1,438.7L93.5,439.1L99.1,441.5L102.2,434.2L103.4,433.1L106.4,438.6L106.6,443.0L107.3,444.7L110.8,444.9L117.9,438.7L123.3,439.0L124.6,437.3L131.5,435.3L139.0,438.6L144.3,438.1L147.2,439.9L154.3,449.2L158.1,451.0L159.1,452.7L159.7,457.5L162.0,460.0L165.0,461.5L168.2,462.0L170.8,461.6L177.6,459.4L180.1,457.2L185.4,459.7L188.3,460.4L191.0,458.9L191.9,455.5L192.2,451.5L193.3,448.1L196.0,446.1L199.8,445.0L204.0,444.8L212.0,445.1L214.2,441.7L221.1,436.2L223.8,435.7L226.8,434.2L228.6,434.0L232.4,435.9L234.5,437.3L234.6,431.8L235.7,427.1L237.4,425.0L244.6,423.3L249.3,418.6L253.4,419.4L254.5,421.1L258.7,423.1L274.1,425.9L281.6,429.5L287.6,430.2L289.9,431.4L298.3,429.8L304.8,430.8L308.2,430.2L315.3,427.1L317.2,424.8L321.4,422.8L325.8,421.3L328.8,419.6L331.1,415.0L327.7,411.1L322.3,406.3L320.1,403.0L315.8,404.5L313.9,403.7L307.1,396.3L302.3,393.9L297.8,392.2L297.7,388.1L295.0,382.7L295.0,380.1L292.5,377.2L288.9,375.8L290.6,371.5L287.1,367.4L280.8,364.1L280.0,354.2L275.9,351.2L267.8,353.4L263.6,355.2L260.0,355.4L260.8,355.8Z M184.5,381.8L189.3,380.0L191.7,381.3L191.6,383.2L186.8,387.7L187.9,390.8L193.6,395.2L194.5,399.0L189.3,401.0L185.0,402.2L183.5,402.0L180.6,398.7L178.7,398.6L175.7,401.4L174.2,400.8L173.2,397.7L175.6,391.5L174.1,387.9L166.8,384.4L162.9,379.4L161.2,373.3L161.8,369.5L164.5,367.9L167.1,369.2L172.0,375.5L174.3,377.5L177.4,379.1L184.5,381.8Z M247.7,398.7L246.3,399.0L238.8,395.9L237.3,394.2L238.4,392.4L245.1,388.9L247.4,388.2L248.2,389.5L248.2,397.2L247.7,398.7Z M136.9,405.0L140.4,405.1L143.2,403.8L144.5,404.1L146.3,408.5L145.6,409.4L142.5,410.0L140.1,411.4L136.1,415.2L129.9,409.1L125.9,406.9L122.3,401.2L123.8,401.3L136.9,405.0Z " data-id="KG.BA" data-name="Batken" id="KG.BA"/>
utf-8utf-8<path d="M293.6,132.9L289.4,131.2L280.6,133.3L277.2,135.6L277.8,139.2L275.2,141.0L269.1,140.7L263.0,136.3L252.3,132.2L248.5,130.5L243.4,131.8L237.6,129.3L229.2,128.9L227.7,128.2L223.8,124.5L219.3,124.1L208.7,126.5L207.8,127.7L207.3,136.5L205.9,138.9L202.7,140.2L196.2,140.0L189.0,136.5L176.7,132.4L173.3,131.8L170.0,131.8L151.5,125.2L148.6,124.5L136.5,124.9L130.6,127.1L128.0,127.0L114.1,124.4L111.8,125.1L112.2,125.2L112.2,129.6L109.3,131.9L101.9,134.0L91.1,143.2L87.3,144.1L82.4,143.9L78.7,144.9L78.4,149.2L80.3,156.0L79.9,158.0L76.9,159.1L67.4,160.1L64.9,161.8L57.6,169.2L54.8,173.8L53.7,179.4L52.4,182.5L47.3,185.7L42.8,189.9L29.6,198.3L28.5,201.4L31.5,205.2L35.6,206.9L54.3,210.4L62.0,217.6L63.9,218.8L69.3,217.7L79.3,211.5L82.5,211.0L84.7,212.1L87.0,214.1L95.3,222.7L97.9,227.7L98.8,234.9L99.6,237.0L101.3,238.6L106.7,237.4L108.8,238.1L117.2,244.0L123.3,243.7L128.2,244.4L135.2,247.7L139.0,248.2L141.0,249.4L144.7,253.2L146.5,254.1L146.8,251.8L144.4,245.6L146.1,244.6L148.5,244.7L150.1,246.2L152.7,250.7L157.1,253.5L157.4,251.2L159.0,248.3L167.4,253.6L169.0,251.9L168.3,247.7L160.9,227.2L161.0,225.7L162.4,226.0L168.5,230.1L173.3,231.7L176.4,231.1L178.3,228.5L179.5,222.1L178.2,213.6L174.4,210.4L173.3,203.8L176.0,201.7L178.2,202.0L180.0,203.6L182.0,208.3L182.4,215.0L184.0,216.8L184.5,213.8L188.4,215.9L187.7,213.4L190.1,213.9L203.3,226.4L206.0,229.9L207.8,233.8L209.2,238.9L211.3,243.9L214.3,245.0L221.7,243.8L226.8,247.6L228.7,248.4L234.6,243.6L236.8,243.3L239.8,244.7L241.7,247.0L247.3,259.8L248.0,264.3L247.6,267.1L259.5,263.7L261.3,258.4L262.9,259.2L267.0,263.2L272.4,265.2L277.8,265.6L280.0,270.5L286.7,272.2L292.8,278.3L296.9,281.3L301.2,282.9L305.6,283.3L317.9,282.3L322.0,283.2L323.9,288.7L325.1,288.5L328.8,285.6L335.1,282.5L341.3,286.6L347.0,286.2L349.4,286.7L352.5,282.7L357.6,280.3L358.6,279.3L358.8,276.3L357.4,274.3L355.8,268.8L356.8,265.7L360.8,262.2L361.8,262.0L364.8,264.4L367.5,264.4L368.7,261.0L369.7,260.2L371.1,256.7L376.2,255.9L385.8,256.5L387.1,256.1L387.1,250.9L389.8,250.4L394.5,256.1L387.7,264.6L394.1,270.2L395.9,270.4L401.7,272.6L400.7,268.7L401.1,265.7L405.4,261.8L408.0,253.9L409.1,252.1L410.6,251.9L412.6,253.4L414.2,256.7L416.8,258.2L420.5,264.9L433.5,270.4L439.1,260.7L439.6,257.8L430.2,252.2L430.9,247.7L433.5,247.8L436.0,245.4L437.5,245.1L440.7,243.0L445.6,242.9L453.0,241.3L457.6,242.4L459.3,241.8L453.9,236.8L450.9,232.9L451.7,231.0L458.7,228.5L463.5,226.1L469.3,225.2L477.5,221.0L479.5,216.6L479.8,212.2L478.6,196.3L478.1,194.4L472.8,191.8L469.5,194.8L458.8,199.5L452.3,199.1L448.1,202.0L444.2,201.1L438.7,200.5L430.3,201.5L420.4,199.0L414.9,200.1L411.3,198.9L407.9,196.8L405.8,196.3L400.4,193.2L398.8,193.6L393.5,186.8L395.2,184.7L396.9,184.1L401.1,184.7L405.2,186.1L408.3,189.6L409.2,193.0L415.2,195.7L416.8,194.5L412.4,185.1L411.0,182.7L408.9,180.8L405.6,180.1L401.2,179.9L397.5,179.2L396.7,178.2L395.0,171.7L392.8,167.2L391.1,165.9L386.6,164.6L384.4,165.9L377.2,163.0L376.5,167.1L375.8,167.4L372.1,165.8L365.9,161.2L368.9,160.1L370.9,154.9L371.1,153.5L367.9,148.5L363.7,146.0L359.5,145.8L352.7,149.7L342.6,146.5L335.8,147.0L330.1,145.5L327.6,146.2L323.1,141.1L317.5,138.9L315.8,138.9L312.0,136.9L307.3,136.1L297.6,133.6L296.4,132.0L293.6,132.9Z " data-id="KG.DA" data-name="Jalal-Abad" id="KG.DA"/>
utf-8utf-8<path d="M323.6,98.8L324.3,101.0L321.7,101.4L315.1,99.3L305.8,97.9L304.1,96.4L302.2,90.3L300.2,88.7L297.7,88.0L290.5,87.5L284.4,84.9L280.2,83.5L275.8,83.4L264.0,85.3L260.6,85.2L253.2,83.0L250.1,80.9L244.8,75.4L241.7,73.0L238.1,71.5L223.3,68.6L216.3,68.6L212.6,68.1L198.7,61.1L191.5,58.8L178.8,58.3L173.7,60.1L170.2,59.3L157.1,53.7L150.6,52.4L145.2,50.2L140.7,51.6L134.0,51.9L131.1,52.9L122.4,59.0L119.5,58.8L114.6,55.9L111.1,56.2L105.9,54.8L103.6,54.8L102.3,56.2L100.1,61.0L98.6,61.6L91.4,59.7L89.9,60.5L87.0,66.3L83.7,67.4L85.5,75.7L84.5,78.9L76.5,80.1L73.5,82.1L75.9,86.5L82.8,91.6L81.4,94.9L79.8,94.7L74.3,92.0L72.1,97.6L72.2,99.9L74.2,102.7L73.9,104.1L69.4,110.5L68.8,112.4L69.9,114.1L74.9,117.6L80.3,119.2L85.3,114.5L88.3,114.1L91.8,115.3L108.4,124.1L111.8,125.1L114.1,124.4L128.0,127.0L130.6,127.1L136.5,124.9L148.6,124.5L151.5,125.2L170.0,131.8L173.3,131.8L176.7,132.4L189.0,136.5L196.2,140.0L202.7,140.2L205.9,138.9L207.3,136.5L207.8,127.7L208.7,126.5L219.3,124.1L223.8,124.5L227.7,128.2L229.2,128.9L237.6,129.3L243.4,131.8L248.5,130.5L252.3,132.2L263.0,136.3L269.1,140.7L275.2,141.0L277.8,139.2L277.2,135.6L280.6,133.3L289.4,131.2L293.6,132.9L296.4,132.0L296.8,130.2L295.5,128.3L291.6,127.3L289.8,124.8L289.4,121.3L290.9,119.4L294.1,119.5L297.4,116.6L306.7,113.9L312.8,114.7L316.1,113.2L320.0,112.8L327.8,114.8L331.4,114.4L337.7,111.4L339.3,108.0L340.1,103.1L341.9,100.9L337.5,95.1L334.8,95.4L329.9,93.1L328.6,91.1L327.2,91.6L328.4,95.7L328.2,97.1L326.4,99.1L323.5,98.8L323.6,98.8Z " data-id="KG.TL" data-name="Talas" id="KG.TL"/>
utf-8utf-8<path d="M529.3,325.8L526.4,324.8L515.7,324.5L512.9,322.1L505.2,321.0L502.6,319.6L501.6,314.1L497.8,311.4L482.6,306.8L480.2,305.7L475.2,302.5L460.6,291.1L457.4,289.3L452.6,283.0L449.6,281.5L435.4,272.2L433.5,270.4L420.5,264.9L416.8,258.2L414.2,256.7L412.6,253.4L410.6,251.9L409.1,252.1L408.0,253.9L405.4,261.8L401.1,265.7L400.7,268.7L401.7,272.6L395.9,270.4L394.1,270.2L387.7,264.6L394.5,256.1L389.8,250.4L387.1,250.9L387.1,256.1L385.8,256.5L376.2,255.9L371.1,256.7L369.7,260.2L368.7,261.0L367.5,264.4L364.8,264.4L361.8,262.0L360.8,262.2L356.8,265.7L355.8,268.8L357.4,274.3L358.8,276.3L358.6,279.3L357.6,280.3L352.5,282.7L349.4,286.7L350.2,286.8L351.5,289.3L349.7,292.9L345.8,295.4L337.5,298.5L330.6,303.4L324.0,305.1L321.0,306.5L319.7,309.8L321.1,317.8L318.6,319.0L314.5,317.5L312.7,317.5L312.5,324.4L311.3,325.5L307.5,325.7L299.2,321.3L295.2,320.9L292.0,319.5L287.6,316.0L283.5,313.4L280.9,314.6L281.2,316.6L284.3,319.8L286.6,326.4L291.8,329.3L294.3,334.5L294.2,337.5L293.0,340.1L290.8,340.5L287.8,339.6L279.4,335.9L275.0,336.1L273.8,334.6L277.7,333.7L276.6,331.8L274.8,331.6L268.0,332.3L262.5,335.6L261.7,342.5L259.8,344.9L252.5,348.9L253.7,352.4L259.2,354.9L260.0,355.4L263.6,355.2L267.8,353.4L275.9,351.2L280.0,354.2L280.8,364.1L287.1,367.4L290.6,371.5L288.9,375.8L292.5,377.2L295.0,380.1L295.0,382.7L297.7,388.1L297.8,392.2L302.3,393.9L307.1,396.3L313.9,403.7L315.8,404.5L320.1,403.0L322.3,406.3L327.7,411.1L331.1,415.0L328.8,419.6L325.8,421.3L321.4,422.8L317.2,424.8L315.3,427.1L308.2,430.2L304.8,430.8L298.3,429.8L289.9,431.4L287.6,430.2L281.6,429.5L274.1,425.9L258.7,423.1L254.5,421.1L253.4,419.4L249.3,418.6L244.6,423.3L237.4,425.0L235.7,427.1L234.6,431.8L234.5,437.3L234.6,437.4L237.8,441.2L237.8,443.0L236.0,448.4L239.2,452.6L243.9,454.4L248.8,454.6L258.3,452.6L260.2,452.6L262.2,453.9L263.9,456.7L265.4,462.3L263.2,466.9L263.7,469.4L265.2,471.9L271.5,475.7L275.0,475.3L278.2,473.8L286.1,467.2L291.0,465.7L294.0,463.8L295.7,463.6L297.8,464.8L302.1,473.2L303.5,475.0L313.1,478.2L315.5,479.2L318.4,484.1L320.9,485.4L322.6,476.9L322.9,470.3L323.6,468.5L327.3,467.6L330.5,465.8L338.9,466.4L341.1,463.2L346.7,464.7L352.8,460.5L354.5,460.5L374.2,465.1L379.7,464.2L381.8,464.3L391.7,466.1L395.9,463.6L404.1,465.5L407.2,465.2L416.3,461.9L421.7,460.9L421.9,456.1L423.9,454.5L434.0,451.9L437.4,451.6L446.8,452.5L450.0,453.9L468.0,451.5L469.5,450.6L469.9,448.9L470.1,441.9L473.9,437.6L474.0,436.3L469.8,429.8L466.4,422.0L464.3,419.9L458.7,417.6L456.2,412.9L456.8,406.6L459.0,404.3L458.7,396.9L459.4,394.5L461.8,390.6L461.3,384.4L464.4,379.6L470.6,378.8L473.3,377.5L475.8,375.5L478.9,374.1L482.3,373.7L489.7,375.6L492.9,376.1L495.8,375.7L498.9,374.2L507.0,366.2L512.9,357.2L515.5,354.9L520.0,351.8L523.6,347.1L527.4,346.4L536.4,348.4L539.2,347.7L537.2,343.7L535.5,342.2L529.5,338.1L528.2,336.3L528.7,327.5L529.3,325.8Z " data-id="KG.OS" data-name="Osh" id="KG.OS"/>
utf-8</g>
</svg>
