<?xml version="1.0" ?>
<!DOCTYPE svg
  PUBLIC '-//W3C//DTD SVG 1.1//EN'
  'http://www.w3.org/Graphics/SVG/1.1/DTD/svg11.dtd'>
<svg enable_background="new 0 0 1000 911" height="911px" pretty_print="True" style="stroke-linejoin: round; stroke:#000; fill: none;" version="1.1" viewBox="0 0 1000 911" width="1000px" xmlns="http://www.w3.org/2000/svg" xmlns:xlink="http://www.w3.org/1999/xlink">
utf-8<defs>
utf-8utf-8<style type="text/css">
<![CDATA[path { fill-rule: evenodd; }]]>utf-8utf-8</style>
utf-8</defs>
utf-8<metadata>
utf-8utf-8<views>
utf-8utf-8utf-8<view h="911.882919644" padding="0" w="1000">
utf-8utf-8utf-8utf-8<proj flip="auto" id="robinson" lon0="103.069720313"/>
utf-8utf-8utf-8utf-8<bbox h="71.92" w="78.95" x="1503.18" y="-246.57"/>
utf-8utf-8utf-8</view>
utf-8utf-8</views>
utf-8</metadata>
utf-8<g class="" id="provinces">
utf-8utf-8<path d="M199.4,166.7L196.3,162.0L194.8,160.4L182.5,150.5L177.2,136.0L173.2,139.2L170.8,142.0L166.4,149.3L158.1,140.1L154.9,137.9L150.4,138.0L150.1,136.8L150.7,126.2L149.9,123.7L140.8,122.5L138.7,121.9L135.4,117.8L133.2,113.2L131.4,110.2L127.0,107.2L117.5,100.1L114.8,98.8L112.8,100.9L109.9,103.0L103.3,105.2L100.3,106.8L97.9,110.1L97.8,121.5L96.8,124.9L93.7,131.0L92.7,134.4L92.7,139.2L93.1,142.4L92.8,145.1L90.4,148.6L80.8,158.0L76.8,163.0L74.1,169.8L72.2,181.4L71.1,185.1L68.3,189.7L67.6,198.0L67.1,200.0L63.1,204.2L45.5,214.4L40.2,219.6L40.4,224.0L44.9,228.4L51.9,233.2L48.7,234.2L40.5,239.9L37.1,241.3L25.9,242.4L10.7,240.9L3.5,241.9L0.5,246.9L1.0,249.1L4.7,256.3L4.8,258.8L10.0,259.0L63.2,263.8L69.2,271.5L76.7,273.1L78.2,273.1L81.8,268.2L83.1,265.7L85.7,262.5L89.2,265.9L95.5,269.3L112.0,273.8L124.5,275.0L150.7,265.6L160.0,264.4L162.3,265.2L166.8,268.1L172.0,270.7L177.7,272.0L206.1,270.8L200.7,224.1L201.4,220.9L202.9,218.3L204.5,213.7L204.4,209.8L200.3,197.5L200.1,190.5L198.6,181.2L198.6,176.6L200.6,173.4L199.4,166.7Z " data-id="KH.OM" data-name="Bântéay Méanchey" id="KH.OM"/>
utf-8utf-8<path d="M177.7,272.0L172.0,270.7L166.8,268.1L162.3,265.2L160.0,264.4L150.7,265.6L124.5,275.0L112.0,273.8L95.5,269.3L89.2,265.9L85.7,262.5L83.1,265.7L81.8,268.2L78.2,273.1L76.7,273.1L69.2,271.5L63.2,263.8L10.0,259.0L4.8,258.8L4.9,259.4L7.3,275.5L7.5,288.4L9.3,303.3L22.3,332.7L26.8,339.8L36.3,350.9L40.0,357.5L42.1,360.3L45.5,362.5L45.5,362.7L50.3,362.0L56.0,362.0L61.4,360.3L62.8,357.5L63.1,353.0L62.7,348.9L63.3,345.4L65.4,341.4L68.9,338.6L72.6,337.1L77.2,337.6L81.8,340.3L86.8,345.5L91.0,352.5L94.2,361.7L96.6,374.5L99.4,402.1L99.4,410.9L97.3,416.4L83.6,426.5L57.7,433.6L53.8,435.0L55.0,435.9L66.0,439.9L72.0,444.4L87.8,460.5L92.7,463.5L94.2,464.9L96.3,471.9L99.2,474.9L105.5,478.5L107.9,481.3L108.4,483.6L115.5,487.0L118.7,486.2L123.1,482.1L129.3,480.2L132.6,477.9L142.1,473.4L143.5,472.4L148.4,464.6L151.8,465.8L154.6,468.2L156.9,469.2L163.8,468.6L165.5,466.4L171.2,464.1L176.5,464.1L178.5,463.6L181.7,461.6L185.5,458.3L193.4,454.5L208.5,449.7L212.2,449.1L230.5,451.6L243.7,455.3L250.1,454.5L255.4,452.5L259.9,448.9L260.9,447.3L262.6,441.7L265.8,435.1L266.6,430.1L264.9,424.7L263.4,421.7L261.4,414.6L263.9,403.0L262.7,399.8L261.2,399.2L259.5,396.0L259.6,393.0L261.4,389.4L265.0,387.6L268.6,383.8L268.2,374.8L271.7,367.7L271.3,363.8L266.2,357.5L267.7,353.8L274.7,347.2L287.5,330.8L275.0,317.5L266.6,305.3L260.4,294.5L257.5,291.9L242.3,288.7L236.3,285.4L233.8,282.1L222.3,277.3L216.3,278.6L210.2,275.7L206.1,270.8L177.7,272.0Z " data-id="KH.BA" data-name="Batdâmbâng" id="KH.BA"/>
utf-8utf-8<path d="M246.4,876.2L245.4,875.2L244.9,871.5L246.5,868.6L242.8,867.0L240.4,868.1L239.9,871.0L241.5,874.4L245.9,881.1L248.0,882.4L250.4,876.7L250.3,875.1L246.4,876.2Z M236.0,840.9L232.1,835.4L229.4,833.0L226.2,832.0L222.5,833.5L220.9,836.4L221.8,839.5L224.3,842.5L227.3,845.1L233.5,847.6L235.5,853.9L237.2,855.4L238.1,852.2L239.7,850.3L244.2,848.1L243.9,845.1L239.9,843.0L239.3,841.4L236.0,840.9Z M171.0,697.5L170.0,695.5L168.9,700.1L169.4,705.3L171.6,714.4L172.2,722.1L173.2,726.5L175.4,728.8L174.7,730.7L176.6,731.8L179.5,731.8L181.9,730.4L182.9,727.9L183.4,724.1L183.2,720.1L181.9,717.3L182.8,715.7L180.2,710.0L179.4,702.8L176.7,697.4L175.1,696.2L173.3,696.4L171.4,698.4L171.0,697.5Z M178.4,694.4L180.8,688.3L180.7,686.7L176.2,679.5L176.0,676.6L171.8,673.7L169.6,677.0L170.9,680.9L175.7,688.3L175.4,693.2L175.8,695.4L177.6,695.5L178.4,694.4Z M117.6,565.9L121.3,573.2L124.1,583.8L134.4,602.2L143.4,614.6L149.5,623.5L152.4,632.0L154.1,644.1L151.7,648.9L156.6,654.0L158.1,658.4L160.2,662.3L160.8,665.0L162.1,660.3L162.0,656.5L159.3,647.5L159.0,644.3L160.6,638.0L160.7,634.4L157.9,627.5L147.8,616.7L144.4,609.8L145.5,609.8L152.7,620.7L157.3,623.2L159.2,627.4L163.3,634.4L170.5,630.1L171.8,630.1L174.0,632.2L176.9,634.0L179.5,634.2L180.9,631.5L182.1,631.5L181.2,633.9L179.1,635.7L176.5,636.3L172.1,633.5L167.1,634.4L164.2,636.8L162.6,640.1L161.9,644.6L162.2,650.5L163.3,650.5L162.9,646.0L164.4,647.5L164.0,643.1L165.3,643.1L166.9,647.5L170.7,646.0L170.8,647.5L169.4,647.5L172.0,651.4L176.2,651.8L176.3,653.4L172.8,653.7L166.9,651.1L165.0,653.4L165.7,662.1L169.4,667.2L170.2,669.3L168.8,669.3L164.6,665.0L161.1,667.7L165.4,673.7L169.5,670.7L172.1,670.0L175.4,670.8L176.2,668.3L176.3,665.0L175.5,657.6L179.6,660.5L178.9,666.4L180.0,665.0L180.1,669.2L180.8,674.5L182.5,679.1L187.7,681.9L190.3,685.7L192.2,686.7L193.9,686.2L195.2,682.7L194.3,681.0L195.3,678.0L196.5,678.0L195.5,681.0L197.5,683.0L204.5,695.5L201.5,694.5L198.1,689.5L195.5,688.3L192.7,688.7L190.4,689.9L188.7,691.7L187.7,694.1L186.5,694.1L186.0,692.2L183.6,691.1L185.0,693.8L188.2,698.2L189.7,701.3L192.0,710.4L194.5,713.0L199.4,710.0L200.1,713.1L202.3,718.5L202.8,721.7L201.7,721.7L199.0,718.9L194.0,722.5L189.5,727.9L188.4,731.7L190.1,733.9L186.7,736.8L186.5,739.1L192.3,739.8L193.3,741.2L194.7,746.4L198.0,751.8L199.0,754.3L199.6,757.9L199.3,761.8L196.7,768.9L197.6,774.7L200.3,785.5L201.3,792.1L199.3,796.3L198.7,799.9L207.7,807.5L205.5,811.1L207.8,812.2L212.1,812.7L215.9,814.7L217.0,813.1L223.4,811.8L222.5,808.7L225.4,805.4L232.6,800.2L236.7,802.9L241.6,805.1L245.7,808.1L247.7,813.1L251.3,810.3L253.8,811.2L256.8,810.5L259.1,808.4L259.9,805.2L258.2,794.8L259.8,789.3L259.9,784.6L260.8,780.6L264.7,770.9L265.8,767.0L265.2,764.9L261.6,766.8L264.9,760.7L265.8,757.6L264.3,753.7L268.4,756.5L269.8,756.5L271.9,752.2L270.4,750.7L276.1,751.4L281.7,753.6L286.1,757.5L288.9,765.1L293.1,767.8L298.6,768.5L300.5,769.3L304.3,772.4L302.1,779.6L306.6,790.1L312.8,800.8L316.3,808.2L317.3,816.5L317.2,818.9L315.7,821.9L310.1,826.4L309.7,828.1L309.3,837.3L310.1,838.6L312.6,839.5L312.7,840.4L317.4,837.2L321.4,832.8L326.1,821.7L326.8,817.9L326.6,815.3L328.3,808.5L330.5,806.3L334.4,806.7L337.9,805.8L340.8,803.5L355.5,788.3L362.7,776.8L366.1,773.9L370.3,775.7L371.8,775.8L374.6,774.4L377.0,770.7L381.6,759.7L382.3,754.6L384.0,753.4L390.2,751.8L382.7,732.8L378.4,727.4L378.2,725.9L378.9,716.4L381.6,711.3L380.0,706.2L377.0,700.9L371.6,694.0L368.3,687.8L368.6,681.7L370.4,678.4L370.1,675.7L366.3,672.0L360.8,669.9L357.4,667.9L351.8,666.8L347.6,668.1L345.0,667.5L339.9,661.9L325.9,652.4L321.8,648.4L318.4,647.3L316.4,644.9L315.2,636.0L310.3,621.0L309.6,617.0L310.7,608.0L310.2,603.4L309.1,598.8L310.7,595.4L323.6,593.2L321.4,591.5L313.8,586.5L307.6,581.7L297.7,576.8L294.5,575.9L289.0,573.7L285.8,572.0L278.3,566.1L274.7,561.1L254.9,545.3L249.6,543.6L245.0,543.7L239.9,544.8L235.0,544.8L233.5,545.4L232.0,547.5L230.0,551.9L225.3,559.3L222.0,563.0L215.1,567.6L198.1,573.0L195.2,574.1L190.7,577.4L188.6,578.1L181.9,577.5L177.0,575.7L172.2,573.4L168.1,571.0L160.5,567.6L119.3,564.4L116.3,564.3L117.6,565.9Z " data-id="KH.KK" data-name="Kaôh Kong" id="KH.KK"/>
utf-8utf-8<path d="M359.7,404.5L287.5,330.8L274.7,347.2L267.7,353.8L266.2,357.5L271.3,363.8L271.7,367.7L268.2,374.8L268.6,383.8L265.0,387.6L261.4,389.4L259.6,393.0L259.5,396.0L261.2,399.2L262.7,399.8L263.9,403.0L261.4,414.6L263.4,421.7L264.9,424.7L266.6,430.1L265.8,435.1L262.6,441.7L260.9,447.3L259.9,448.9L255.4,452.5L250.1,454.5L243.7,455.3L230.5,451.6L212.2,449.1L208.5,449.7L193.4,454.5L185.5,458.3L181.7,461.6L178.5,463.6L176.5,464.1L171.2,464.1L165.5,466.4L163.8,468.6L156.9,469.2L154.6,468.2L151.8,465.8L148.4,464.6L143.5,472.4L142.1,473.4L132.6,477.9L129.3,480.2L123.1,482.1L118.7,486.2L115.5,487.0L108.4,483.6L108.9,485.5L107.6,488.5L103.2,493.2L101.6,497.2L101.1,501.2L100.1,535.9L102.4,544.4L113.5,560.9L116.3,564.3L119.3,564.4L160.5,567.6L168.1,571.0L172.2,573.4L177.0,575.7L181.9,577.5L188.6,578.1L190.7,577.4L195.2,574.1L198.1,573.0L215.1,567.6L222.0,563.0L225.3,559.3L230.0,551.9L232.0,547.5L233.5,545.4L235.0,544.8L239.9,544.8L245.0,543.7L249.6,543.6L254.9,545.3L274.7,561.1L278.3,566.1L285.8,572.0L289.0,573.7L294.5,575.9L297.7,576.8L307.6,581.7L313.8,586.5L321.4,591.5L323.6,593.2L327.0,588.3L330.7,585.8L336.1,578.1L337.2,577.5L341.1,579.5L345.0,584.1L349.6,585.4L351.5,584.7L360.8,579.0L358.7,572.9L362.8,567.0L364.2,560.4L366.3,556.6L367.9,555.9L373.4,555.4L376.7,556.3L379.3,554.6L382.0,550.9L377.0,534.9L377.4,526.1L378.0,523.0L382.5,515.0L384.6,513.6L390.0,512.2L395.8,506.8L398.7,505.7L403.1,502.0L405.0,497.5L406.2,491.8L407.1,489.9L411.7,484.4L412.5,481.8L411.3,478.1L411.1,475.3L411.8,467.7L411.6,465.5L411.3,456.8L377.7,427.2L367.4,414.9L359.7,404.5Z " data-id="KH.PO" data-name="Pouthisat" id="KH.PO"/>
utf-8utf-8<path d="M378.5,73.8L375.9,72.8L354.4,69.4L343.8,64.8L339.3,64.4L334.5,68.3L331.3,69.3L329.0,68.4L327.3,64.5L325.7,65.5L321.7,71.1L318.1,71.8L314.3,68.8L307.8,70.8L302.9,73.7L302.8,73.8L304.8,83.8L307.1,87.4L311.5,91.0L312.0,92.2L311.0,97.6L283.8,111.8L271.8,118.0L265.5,123.0L245.1,150.5L242.7,152.5L232.7,156.5L229.6,158.4L222.3,165.8L219.6,167.7L216.0,168.8L208.8,169.7L205.4,170.7L200.6,173.4L198.6,176.6L198.6,181.2L200.1,190.5L200.3,197.5L204.4,209.8L204.5,213.7L202.9,218.3L201.4,220.9L200.7,224.1L206.1,270.8L210.2,275.7L216.3,278.6L222.3,277.3L233.8,282.1L236.3,285.4L242.3,288.7L257.5,291.9L260.4,294.5L266.6,305.3L275.0,317.5L287.5,330.8L359.7,404.5L367.4,414.9L371.8,411.5L372.8,405.0L373.5,402.9L380.4,393.0L382.5,391.1L394.5,383.3L399.4,379.1L400.5,374.5L401.9,363.5L407.0,351.2L407.3,345.1L411.3,345.1L411.8,344.3L411.0,337.7L410.5,319.2L411.9,313.6L419.2,310.2L423.7,305.5L424.7,301.4L424.4,273.7L425.2,269.6L426.8,265.1L439.9,241.5L439.6,239.0L438.2,239.2L431.5,243.1L429.3,242.9L412.8,238.2L396.1,235.5L391.0,233.5L388.1,228.1L387.8,226.4L388.2,221.4L389.7,216.8L390.0,212.2L387.7,201.6L383.8,193.8L382.5,189.6L379.7,187.0L377.2,181.8L372.2,178.6L377.9,167.8L378.9,164.4L378.6,157.7L383.9,131.2L383.7,121.2L384.8,117.5L390.9,109.5L389.8,107.1L385.6,103.8L378.5,95.2L378.3,94.1L380.6,90.4L379.8,81.9L380.0,77.6L379.6,73.7L378.5,73.8Z " data-id="KH.SI" data-name="Siemréab" id="KH.SI"/>
utf-8utf-8<path d="M301.2,74.7L295.0,76.3L289.4,71.6L279.4,72.1L277.9,73.9L276.8,76.8L273.5,77.3L270.7,76.7L264.3,72.4L261.5,71.4L256.1,72.1L252.5,71.6L241.2,68.5L234.8,68.1L233.4,67.5L232.5,65.6L232.3,60.5L231.7,58.3L226.8,55.3L223.3,56.6L221.9,61.5L218.3,63.7L215.5,63.0L212.8,61.2L209.3,60.0L206.3,60.6L199.6,64.6L193.2,70.0L189.9,70.4L186.5,67.8L184.0,68.7L179.3,72.9L176.2,74.5L172.3,75.0L159.7,75.0L146.3,79.8L135.4,81.6L131.8,83.0L126.1,86.7L114.8,98.8L117.5,100.1L127.0,107.2L131.4,110.2L133.2,113.2L135.4,117.8L138.7,121.9L140.8,122.5L149.9,123.7L150.7,126.2L150.1,136.8L150.4,138.0L154.9,137.9L158.1,140.1L166.4,149.3L170.8,142.0L173.2,139.2L177.2,136.0L182.5,150.5L194.8,160.4L196.3,162.0L199.4,166.7L200.6,173.4L205.4,170.7L208.8,169.7L216.0,168.8L219.6,167.7L222.3,165.8L229.6,158.4L232.7,156.5L242.7,152.5L245.1,150.5L265.5,123.0L271.8,118.0L283.8,111.8L311.0,97.6L312.0,92.2L311.5,91.0L307.1,87.4L304.8,83.8L302.8,73.8L301.2,74.7Z " data-id="KH.OC" data-name="Otdar Mean Chey" id="KH.OC"/>
utf-8utf-8<path d="M45.6,363.8L45.1,364.9L42.0,367.3L44.2,372.3L42.3,374.8L45.9,386.7L47.5,394.8L49.1,399.2L52.3,404.1L53.0,408.8L49.7,417.8L49.1,421.1L49.3,425.6L50.3,430.1L51.9,433.5L53.8,435.0L57.7,433.6L83.6,426.5L97.3,416.4L99.4,410.9L99.4,402.1L96.6,374.5L94.2,361.7L91.0,352.5L86.8,345.5L81.8,340.3L77.2,337.6L72.6,337.1L68.9,338.6L65.4,341.4L63.3,345.4L62.7,348.9L63.1,353.0L62.8,357.5L61.4,360.3L56.0,362.0L50.3,362.0L45.5,362.7L45.6,363.8Z " data-id="KH.PL" data-name="Krong Pailin" id="KH.PL"/>
utf-8utf-8<path d="M662.8,466.1L627.8,470.3L624.3,472.4L620.2,476.1L618.5,476.6L615.8,475.9L606.6,470.8L604.1,470.4L597.8,471.2L594.0,494.8L592.8,497.6L589.0,499.0L585.0,494.4L574.7,490.6L561.0,490.9L557.9,490.5L551.4,496.3L552.0,498.0L557.2,505.5L558.4,512.0L566.3,527.9L566.5,533.0L564.8,532.6L559.8,528.5L551.5,530.3L547.2,527.5L534.7,526.3L528.7,524.4L524.5,519.7L522.3,518.8L515.4,518.4L511.7,519.8L507.6,523.9L510.8,532.6L508.9,544.8L508.2,551.0L507.0,555.5L508.9,559.0L512.0,562.4L512.7,564.5L513.7,573.1L517.1,576.0L516.1,577.5L511.4,576.5L506.3,581.6L501.8,596.8L506.3,603.9L508.3,611.2L509.2,610.9L516.3,612.8L517.6,614.1L523.9,612.3L524.6,611.1L526.7,603.0L527.9,601.1L531.5,601.0L531.9,596.4L535.4,597.3L542.1,606.5L549.4,610.3L551.1,612.9L550.9,613.7L547.4,615.0L547.0,617.4L547.8,622.1L551.7,624.1L567.2,627.5L581.0,616.3L589.0,607.0L592.1,604.0L597.3,601.6L600.9,602.5L612.4,607.4L615.6,611.9L621.3,620.9L623.6,621.9L631.7,623.0L655.2,627.6L668.7,627.7L674.4,633.3L682.4,638.7L683.9,639.3L693.3,638.5L694.8,643.7L693.4,649.9L696.8,646.3L699.9,645.6L709.1,649.3L714.4,649.6L716.4,646.5L717.7,642.1L722.3,636.0L723.2,627.6L727.1,622.5L735.7,624.1L745.7,627.4L753.5,627.6L766.7,632.1L770.6,634.3L775.3,640.8L777.1,642.4L779.6,642.8L789.8,639.8L796.3,640.9L803.2,645.5L805.6,645.5L804.9,637.3L798.9,627.6L798.4,624.3L801.4,615.5L801.3,608.3L804.0,602.7L802.5,597.5L795.9,585.9L793.9,581.0L792.7,581.0L780.0,584.5L778.4,584.6L771.9,583.6L766.9,585.8L762.9,584.9L761.7,583.3L752.9,583.3L750.4,580.8L753.4,573.7L749.8,567.1L748.4,565.2L739.6,559.0L728.3,554.4L727.9,553.8L729.6,548.6L725.9,542.4L721.0,541.4L718.6,535.9L713.2,532.0L710.5,530.6L704.1,529.3L693.4,526.6L692.1,527.9L686.4,529.2L683.9,520.6L678.8,519.7L669.3,517.4L667.6,517.7L667.4,511.4L669.7,507.4L671.7,501.1L670.1,490.4L665.8,474.0L662.8,466.1Z " data-id="KH.KM" data-name="Kâmpóng Cham" id="KH.KM"/>
utf-8utf-8<path d="M504.3,520.5L499.8,510.2L502.9,508.7L507.6,502.4L509.2,498.8L509.1,491.9L507.6,490.6L505.7,490.7L500.3,493.8L500.5,489.2L499.7,486.3L494.5,477.7L490.3,469.5L490.8,460.8L479.4,458.2L459.2,448.5L452.0,446.3L447.0,447.3L438.7,452.0L435.1,454.5L430.4,463.6L422.5,462.8L417.1,461.4L411.3,456.8L411.6,465.5L411.8,467.7L411.1,475.3L411.3,478.1L412.5,481.8L411.7,484.4L407.1,489.9L406.2,491.8L405.0,497.5L403.1,502.0L398.7,505.7L395.8,506.8L390.0,512.2L384.6,513.6L382.5,515.0L378.0,523.0L377.4,526.1L377.0,534.9L382.0,550.9L384.2,556.8L385.4,564.7L386.9,568.2L393.5,573.2L396.7,577.6L397.6,581.7L399.1,586.2L400.7,589.5L408.5,600.3L410.7,607.6L419.2,615.9L420.9,618.1L423.0,618.9L429.8,619.5L432.2,620.8L438.5,625.3L445.2,627.6L448.8,629.8L450.6,628.9L455.6,624.1L468.2,617.2L476.7,614.2L485.3,613.9L488.4,612.4L492.4,611.4L493.1,605.8L495.3,599.9L496.1,598.9L498.8,598.1L501.8,596.8L506.3,581.6L511.4,576.5L516.1,577.5L517.1,576.0L513.7,573.1L512.7,564.5L512.0,562.4L508.9,559.0L507.0,555.5L508.2,551.0L508.9,544.8L510.8,532.6L507.6,523.9L504.3,520.5Z " data-id="KH.KG" data-name="Kâmpóng Chhnang" id="KH.KG"/>
utf-8utf-8<path d="M551.7,624.1L547.8,622.1L547.0,617.4L547.4,615.0L550.9,613.7L551.1,612.9L549.4,610.3L542.1,606.5L535.4,597.3L531.9,596.4L531.5,601.0L527.9,601.1L526.7,603.0L524.6,611.1L523.9,612.3L517.6,614.1L516.3,612.8L509.2,610.9L508.3,611.2L506.3,603.9L501.8,596.8L498.8,598.1L496.1,598.9L495.3,599.9L493.1,605.8L492.4,611.4L493.3,620.0L492.3,623.7L488.6,626.0L487.0,627.7L484.5,632.4L483.8,641.1L479.5,656.1L479.6,664.8L479.2,691.4L482.5,696.0L487.7,698.0L502.5,697.7L505.3,698.7L498.3,710.5L503.4,714.2L515.2,712.7L521.9,711.0L525.2,712.4L531.9,714.1L534.3,716.2L534.8,725.8L535.4,729.0L538.2,731.8L542.7,738.2L545.0,740.6L552.8,746.6L554.3,749.8L554.6,751.8L553.1,762.0L553.3,767.1L554.9,777.2L554.0,783.9L561.1,802.4L561.8,801.6L564.1,799.6L568.0,797.2L569.2,798.1L569.8,800.9L572.2,804.1L575.0,805.1L593.5,808.9L588.8,787.1L588.2,781.2L588.8,775.2L592.0,763.9L593.8,753.1L595.8,748.7L601.2,741.3L602.3,736.5L601.6,730.7L596.2,713.5L594.5,704.4L595.9,702.9L599.9,700.3L599.5,695.5L597.7,693.2L594.9,691.4L580.2,678.8L570.4,673.1L567.8,670.5L563.5,663.0L562.3,659.6L565.5,651.7L565.9,648.4L564.1,642.4L567.9,633.3L567.8,629.5L567.2,627.5L551.7,624.1Z M532.1,685.5L530.9,690.4L527.3,690.6L523.2,687.0L520.8,686.8L515.7,692.4L512.1,693.7L508.7,693.7L503.2,688.6L505.0,677.4L505.0,675.5L502.3,670.6L501.5,663.4L502.0,659.0L506.0,648.9L516.1,648.7L513.7,642.0L515.8,641.5L524.1,642.0L525.7,643.1L526.2,647.5L528.5,653.5L530.4,659.9L531.5,666.2L536.2,669.1L536.6,678.3L536.4,680.8L532.1,685.5Z " data-id="KH.KN" data-name="Kândal" id="KH.KN"/>
utf-8utf-8<path d="M488.4,612.4L485.3,613.9L476.7,614.2L468.2,617.2L455.6,624.1L450.6,628.9L448.8,629.8L445.2,627.6L438.5,625.3L432.2,620.8L429.8,619.5L423.0,618.9L420.9,618.1L419.2,615.9L410.7,607.6L408.5,600.3L400.7,589.5L399.1,586.2L397.6,581.7L396.7,577.6L393.5,573.2L386.9,568.2L385.4,564.7L384.2,556.8L382.0,550.9L379.3,554.6L376.7,556.3L373.4,555.4L367.9,555.9L366.3,556.6L364.2,560.4L362.8,567.0L358.7,572.9L360.8,579.0L351.5,584.7L349.6,585.4L345.0,584.1L341.1,579.5L337.2,577.5L336.1,578.1L330.7,585.8L327.0,588.3L323.6,593.2L310.7,595.4L309.1,598.8L310.2,603.4L310.7,608.0L309.6,617.0L310.3,621.0L315.2,636.0L316.4,644.9L318.4,647.3L321.8,648.4L325.9,652.4L339.9,661.9L345.0,667.5L347.6,668.1L351.8,666.8L357.4,667.9L360.8,669.9L366.3,672.0L370.1,675.7L370.4,678.4L368.6,681.7L368.3,687.8L371.6,694.0L377.0,700.9L380.0,706.2L381.6,711.3L378.9,716.4L378.2,725.9L378.4,727.4L382.7,732.8L390.2,751.8L393.5,754.8L397.7,757.1L412.8,760.7L426.9,758.5L440.3,757.9L445.5,760.2L451.9,762.9L454.2,763.4L463.6,764.3L469.1,767.4L478.8,767.3L483.6,765.3L489.9,764.7L488.9,754.5L490.4,738.6L491.4,720.6L491.7,718.3L493.1,716.4L498.3,710.5L505.3,698.7L502.5,697.7L487.7,698.0L482.5,696.0L479.2,691.4L479.6,664.8L479.5,656.1L483.8,641.1L484.5,632.4L487.0,627.7L488.6,626.0L492.3,623.7L493.3,620.0L492.4,611.4L488.4,612.4Z " data-id="KH.KS" data-name="Kâmpóng Spœ" id="KH.KS"/>
utf-8utf-8<path d="M607.2,290.5L605.3,283.4L605.2,278.4L603.1,262.2L579.5,277.0L575.4,278.7L541.8,307.6L537.9,314.6L526.3,327.1L509.2,337.1L498.1,335.9L493.8,334.3L489.2,329.5L487.2,325.3L486.0,321.0L484.5,312.7L484.4,303.1L485.0,299.0L486.7,293.2L486.4,291.4L483.2,289.8L464.9,285.9L453.4,285.6L447.5,287.6L441.4,290.5L424.7,301.4L423.7,305.5L419.2,310.2L411.9,313.6L410.5,319.2L411.0,337.7L411.8,344.3L411.3,345.1L407.3,345.1L407.0,351.2L401.9,363.5L400.5,374.5L399.4,379.1L394.5,383.3L382.5,391.1L380.4,393.0L373.5,402.9L372.8,405.0L371.8,411.5L367.4,414.9L377.7,427.2L411.3,456.8L417.1,461.4L422.5,462.8L430.4,463.6L435.1,454.5L438.7,452.0L447.0,447.3L452.0,446.3L459.2,448.5L479.4,458.2L490.8,460.8L490.3,469.5L494.5,477.7L499.7,486.3L500.5,489.2L500.3,493.8L505.7,490.7L507.6,490.6L509.1,491.9L509.2,498.8L507.6,502.4L502.9,508.7L499.8,510.2L504.3,520.5L507.6,523.9L511.7,519.8L515.4,518.4L522.3,518.8L524.5,519.7L528.7,524.4L534.7,526.3L547.2,527.5L551.5,530.3L559.8,528.5L564.8,532.6L566.5,533.0L566.3,527.9L558.4,512.0L557.2,505.5L552.0,498.0L551.4,496.3L557.9,490.5L561.0,490.9L574.7,490.6L585.0,494.4L589.0,499.0L592.8,497.6L594.0,494.8L597.8,471.2L604.1,470.4L606.6,470.8L615.8,475.9L618.5,476.6L620.2,476.1L624.3,472.4L627.8,470.3L662.8,466.1L655.3,441.0L647.6,422.1L646.8,417.4L643.7,408.6L643.7,404.5L642.6,397.6L643.7,391.6L643.4,390.3L639.9,383.7L637.4,377.7L638.4,375.9L638.2,371.7L633.4,366.0L629.8,351.5L629.6,348.7L630.5,345.1L629.7,340.7L627.8,337.9L622.6,332.2L613.6,304.4L607.2,290.5Z " data-id="KH.KT" data-name="Kâmpóng Thum" id="KH.KT"/>
utf-8utf-8<path d="M532.1,685.5L536.4,680.8L536.6,678.3L536.2,669.1L531.5,666.2L530.4,659.9L528.5,653.5L526.2,647.5L525.7,643.1L524.1,642.0L515.8,641.5L513.7,642.0L516.1,648.7L506.0,648.9L502.0,659.0L501.5,663.4L502.3,670.6L505.0,675.5L505.0,677.4L503.2,688.6L508.7,693.7L512.1,693.7L515.7,692.4L520.8,686.8L523.2,687.0L527.3,690.6L530.9,690.4L532.1,685.5Z " data-id="KH.PP" data-name="Phnom Penh" id="KH.PP"/>
utf-8utf-8<path d="M567.2,627.5L567.8,629.5L567.9,633.3L564.1,642.4L565.9,648.4L565.5,651.7L562.3,659.6L563.5,663.0L567.8,670.5L570.4,673.1L580.2,678.8L594.9,691.4L597.7,693.2L599.5,695.5L599.9,700.3L595.9,702.9L594.5,704.4L596.2,713.5L601.6,730.7L602.3,736.5L601.2,741.3L595.8,748.7L593.8,753.1L592.0,763.9L588.8,775.2L588.2,781.2L588.8,787.1L593.5,808.9L601.8,810.7L604.9,812.7L611.8,819.0L614.7,820.1L616.3,818.1L620.8,805.5L627.5,795.6L629.7,793.8L636.0,795.9L640.4,798.3L641.9,798.5L651.0,796.3L668.1,792.1L666.4,788.5L662.0,783.4L663.1,780.3L663.2,773.4L664.3,769.9L666.1,767.3L667.3,764.1L665.5,759.7L663.2,750.8L663.3,744.2L664.7,735.8L668.2,731.3L671.2,731.7L670.0,727.2L667.7,716.4L666.3,699.5L667.9,689.9L669.2,676.6L671.0,669.8L673.5,667.0L678.3,665.9L681.7,664.1L688.2,663.2L689.3,662.3L688.7,661.3L688.9,657.1L690.7,653.4L692.9,650.4L693.4,649.9L694.8,643.7L693.3,638.5L683.9,639.3L682.4,638.7L674.4,633.3L668.7,627.7L655.2,627.6L631.7,623.0L623.6,621.9L621.3,620.9L615.6,611.9L612.4,607.4L600.9,602.5L597.3,601.6L592.1,604.0L589.0,607.0L581.0,616.3L567.2,627.5Z " data-id="KH.PY" data-name="Prey Vêng" id="KH.PY"/>
utf-8utf-8<path d="M379.6,73.7L380.0,77.6L379.8,81.9L380.6,90.4L378.3,94.1L378.5,95.2L385.6,103.8L389.8,107.1L390.9,109.5L384.8,117.5L383.7,121.2L383.9,131.2L378.6,157.7L378.9,164.4L377.9,167.8L372.2,178.6L377.2,181.8L379.7,187.0L382.5,189.6L383.8,193.8L387.7,201.6L390.0,212.2L389.7,216.8L388.2,221.4L387.8,226.4L388.1,228.1L391.0,233.5L396.1,235.5L412.8,238.2L429.3,242.9L431.5,243.1L438.2,239.2L439.6,239.0L439.9,241.5L426.8,265.1L425.2,269.6L424.4,273.7L424.7,301.4L441.4,290.5L447.5,287.6L453.4,285.6L464.9,285.9L483.2,289.8L486.4,291.4L486.7,293.2L485.0,299.0L484.4,303.1L484.5,312.7L486.0,321.0L487.2,325.3L489.2,329.5L493.8,334.3L498.1,335.9L509.2,337.1L526.3,327.1L537.9,314.6L541.8,307.6L575.4,278.7L579.5,277.0L603.1,262.2L606.4,256.5L605.5,226.5L602.6,214.9L599.0,206.9L593.7,201.2L592.5,198.0L592.5,195.6L590.7,185.1L591.8,182.4L597.5,176.3L600.6,175.3L604.5,177.2L608.0,181.4L611.0,179.2L617.3,177.9L620.6,180.0L624.1,178.3L623.0,172.6L623.1,170.4L625.9,168.2L628.9,167.8L650.8,167.6L657.2,165.4L652.7,162.9L635.0,147.3L631.2,142.1L628.4,136.2L625.1,131.0L619.5,127.9L613.6,128.5L610.9,128.2L605.7,125.4L603.8,125.3L601.1,127.6L599.3,123.9L596.1,120.6L592.5,118.9L589.9,120.2L588.6,118.5L584.0,114.6L579.3,118.7L576.7,120.4L573.8,121.4L569.7,124.6L564.8,126.6L559.4,127.5L554.1,127.4L547.3,124.5L541.7,117.2L536.1,114.5L532.2,110.8L519.0,92.1L516.7,87.7L515.4,82.8L514.7,76.1L509.6,79.4L506.6,89.9L502.2,100.6L492.5,104.1L488.2,101.9L484.4,97.8L477.1,85.6L476.6,83.8L476.3,74.2L475.9,71.3L474.7,68.7L471.1,67.5L460.3,65.4L453.9,61.7L447.5,62.1L444.2,60.4L438.8,56.5L435.7,56.2L433.3,57.6L428.3,62.5L425.6,63.2L424.2,62.0L422.8,58.2L421.2,57.4L419.7,58.1L418.3,61.5L417.2,62.6L414.1,62.7L409.2,60.5L406.3,60.6L403.5,62.5L400.4,68.7L398.7,71.3L395.2,73.0L392.1,72.4L389.0,70.9L385.5,70.1L383.6,70.7L380.2,73.7L379.6,73.7Z " data-id="KH.PH" data-name="Preah Vihéar" id="KH.PH"/>
utf-8utf-8<path d="M775.4,50.5L771.0,44.3L769.0,43.0L764.6,41.9L762.8,40.8L761.9,38.8L760.1,32.1L759.1,29.4L755.0,24.2L751.5,28.3L748.2,29.8L748.2,31.9L750.0,36.5L751.6,38.4L744.2,37.2L742.6,38.4L742.5,42.2L744.9,43.5L742.3,46.4L740.9,50.5L736.4,52.7L723.1,55.2L718.6,54.5L706.4,46.7L705.2,45.4L703.9,49.0L703.3,60.1L702.6,64.6L700.4,69.1L697.7,71.1L694.2,71.5L687.6,71.1L683.1,70.2L676.8,71.2L676.4,75.6L673.2,75.7L664.6,72.6L660.8,71.9L660.8,79.0L661.9,81.3L665.9,84.6L668.4,88.0L669.5,92.0L669.4,97.3L671.5,101.6L674.4,104.3L681.3,108.8L684.6,112.5L690.8,125.1L693.7,128.2L697.0,131.0L699.8,134.1L701.2,138.1L700.3,142.1L694.7,147.3L690.5,153.5L692.0,163.5L689.7,167.2L686.0,167.4L676.0,164.7L671.7,164.5L667.3,166.5L662.8,167.1L658.0,165.9L657.2,165.4L650.8,167.6L628.9,167.8L625.9,168.2L623.1,170.4L623.0,172.6L624.1,178.3L620.6,180.0L617.3,177.9L611.0,179.2L608.0,181.4L604.5,177.2L600.6,175.3L597.5,176.3L591.8,182.4L590.7,185.1L592.5,195.6L592.5,198.0L593.7,201.2L599.0,206.9L602.6,214.9L605.5,226.5L606.4,256.5L603.1,262.2L605.2,278.4L605.3,283.4L607.2,290.5L613.6,304.4L630.7,313.1L638.1,315.1L640.7,316.5L659.0,331.0L665.3,334.7L669.7,336.7L676.0,336.7L683.1,334.0L685.5,330.5L688.2,323.5L688.9,317.3L694.9,318.3L698.5,317.0L699.5,307.9L709.1,288.8L713.5,285.3L715.1,284.8L723.5,284.1L728.6,285.1L732.2,283.1L733.8,280.3L746.1,273.5L749.1,272.7L755.8,272.1L766.3,271.6L770.2,272.4L782.8,281.5L791.2,284.6L803.8,290.4L804.8,286.9L804.6,284.4L800.7,275.9L800.2,268.0L799.2,263.5L796.9,260.3L794.4,252.2L790.8,246.8L788.3,242.4L788.0,237.4L788.6,231.6L802.1,194.8L802.3,193.5L801.5,188.4L802.5,186.3L801.7,183.7L797.3,173.0L791.0,143.7L787.7,134.3L782.9,128.5L781.4,125.7L780.5,120.4L780.8,104.3L781.8,97.0L783.0,91.1L783.4,86.3L782.9,82.5L779.4,72.3L777.4,67.7L777.1,63.0L778.3,54.2L778.8,52.4L775.4,50.5Z " data-id="KH.ST" data-name="Stœng Trêng" id="KH.ST"/>
utf-8utf-8<path d="M755.8,272.1L749.1,272.7L746.1,273.5L733.8,280.3L732.2,283.1L728.6,285.1L723.5,284.1L715.1,284.8L713.5,285.3L709.1,288.8L699.5,307.9L698.5,317.0L694.9,318.3L688.9,317.3L688.2,323.5L685.5,330.5L683.1,334.0L676.0,336.7L669.7,336.7L665.3,334.7L659.0,331.0L640.7,316.5L638.1,315.1L630.7,313.1L613.6,304.4L622.6,332.2L627.8,337.9L629.7,340.7L630.5,345.1L629.6,348.7L629.8,351.5L633.4,366.0L638.2,371.7L638.4,375.9L637.4,377.7L639.9,383.7L643.4,390.3L643.7,391.6L642.6,397.6L643.7,404.5L643.7,408.6L646.8,417.4L647.6,422.1L655.3,441.0L662.8,466.1L665.8,474.0L670.1,490.4L671.7,501.1L669.7,507.4L667.4,511.4L667.6,517.7L669.3,517.4L678.8,519.7L683.9,520.6L686.4,529.2L692.1,527.9L693.4,526.6L704.1,529.3L710.5,530.6L713.2,532.0L718.6,535.9L721.0,541.4L725.9,542.4L729.6,548.6L727.9,553.8L728.3,554.4L739.6,559.0L748.4,565.2L749.8,567.1L753.4,573.7L750.4,580.8L752.9,583.3L761.7,583.3L762.9,584.9L766.9,585.8L771.9,583.6L778.4,584.6L780.0,584.5L792.7,581.0L793.9,581.0L793.5,580.2L802.4,579.1L804.2,580.5L806.3,583.8L808.8,584.0L814.1,579.4L823.0,579.6L839.3,582.0L837.5,578.8L847.0,581.2L850.8,580.0L853.9,574.6L855.4,567.7L858.0,562.7L862.0,559.8L865.4,559.5L863.2,548.8L862.6,534.7L862.3,532.8L858.1,525.9L851.3,518.2L843.0,513.3L835.0,510.9L830.3,510.1L827.2,508.9L824.2,507.0L821.6,503.4L818.2,494.0L813.9,486.3L807.7,481.0L804.9,480.1L794.6,474.0L785.2,467.7L777.3,461.6L776.8,456.9L776.0,453.6L776.3,448.3L779.0,428.1L782.4,420.3L784.8,417.3L791.7,412.1L796.1,410.9L799.3,408.7L803.1,407.4L808.2,404.8L810.1,402.1L812.1,398.3L816.6,394.0L816.6,391.4L814.4,381.0L813.9,379.4L811.2,377.0L804.0,373.9L792.2,366.4L789.6,363.4L782.8,362.2L779.4,360.8L773.6,354.9L769.4,352.2L762.9,343.3L760.8,340.1L760.1,334.4L760.8,331.3L763.8,327.9L774.5,328.1L776.1,327.1L775.8,324.2L774.7,322.0L771.7,319.0L765.6,315.5L763.4,312.8L760.0,304.7L758.9,295.4L755.8,272.1Z " data-id="KH.KH" data-name="Krâchéh" id="KH.KH"/>
utf-8utf-8<path d="M791.2,284.6L782.8,281.5L770.2,272.4L766.3,271.6L755.8,272.1L758.9,295.4L760.0,304.7L763.4,312.8L765.6,315.5L771.7,319.0L774.7,322.0L775.8,324.2L776.1,327.1L774.5,328.1L763.8,327.9L760.8,331.3L760.1,334.4L760.8,340.1L762.9,343.3L769.4,352.2L773.6,354.9L779.4,360.8L782.8,362.2L789.6,363.4L792.2,366.4L804.0,373.9L811.2,377.0L813.9,379.4L814.4,381.0L816.6,391.4L816.6,394.0L812.1,398.3L810.1,402.1L808.2,404.8L803.1,407.4L799.3,408.7L796.1,410.9L791.7,412.1L784.8,417.3L782.4,420.3L779.0,428.1L776.3,448.3L776.0,453.6L776.8,456.9L777.3,461.6L785.2,467.7L794.6,474.0L804.9,480.1L807.7,481.0L813.9,486.3L818.2,494.0L821.6,503.4L824.2,507.0L827.2,508.9L830.3,510.1L835.0,510.9L843.0,513.3L851.3,518.2L858.1,525.9L862.3,532.8L862.6,534.7L863.2,548.8L865.4,559.5L867.7,559.3L882.0,560.5L888.8,559.6L895.4,556.6L899.6,553.2L910.9,538.9L916.0,530.8L920.6,526.9L922.6,524.5L923.5,521.6L928.4,515.0L938.8,508.9L950.4,504.8L958.5,503.9L963.2,506.9L969.8,516.6L973.7,520.2L977.9,519.9L983.2,510.3L987.4,506.9L992.0,504.7L994.3,500.8L995.3,496.0L995.7,490.8L999.5,473.5L999.0,468.5L997.4,465.8L997.5,463.5L999.2,458.5L999.2,452.0L998.1,445.1L991.0,421.7L989.9,415.4L989.5,409.7L988.4,404.1L985.3,398.2L979.4,391.6L977.8,389.1L976.7,385.9L975.3,379.5L972.7,374.1L973.0,367.4L973.8,366.6L973.3,362.5L970.2,360.1L969.4,357.1L982.7,306.1L984.4,299.3L974.1,298.0L972.0,297.3L965.5,292.1L963.4,291.7L963.0,292.8L956.3,295.9L953.8,298.8L948.5,302.6L946.6,301.3L943.3,295.2L942.2,294.3L934.2,295.7L931.9,293.0L928.6,286.3L926.5,284.0L922.9,283.1L921.5,285.0L919.6,291.4L914.7,294.7L903.3,293.1L897.2,295.7L895.4,294.1L892.2,294.1L890.1,297.0L890.3,301.3L892.6,304.8L894.5,310.8L893.5,319.3L892.2,321.6L888.7,325.2L886.5,326.3L883.6,324.5L880.8,324.6L876.3,325.7L872.1,325.5L866.6,326.8L855.9,326.6L852.7,326.1L840.3,321.1L830.5,314.3L823.2,306.8L814.2,300.6L803.8,290.4L791.2,284.6Z " data-id="KH.MK" data-name="Môndól Kiri" id="KH.MK"/>
utf-8utf-8<path d="M778.8,52.4L778.3,54.2L777.1,63.0L777.4,67.7L779.4,72.3L782.9,82.5L783.4,86.3L783.0,91.1L781.8,97.0L780.8,104.3L780.5,120.4L781.4,125.7L782.9,128.5L787.7,134.3L791.0,143.7L797.3,173.0L801.7,183.7L802.5,186.3L801.5,188.4L802.3,193.5L802.1,194.8L788.6,231.6L788.0,237.4L788.3,242.4L790.8,246.8L794.4,252.2L796.9,260.3L799.2,263.5L800.2,268.0L800.7,275.9L804.6,284.4L804.8,286.9L803.8,290.4L814.2,300.6L823.2,306.8L830.5,314.3L840.3,321.1L852.7,326.1L855.9,326.6L866.6,326.8L872.1,325.5L876.3,325.7L880.8,324.6L883.6,324.5L886.5,326.3L888.7,325.2L892.2,321.6L893.5,319.3L894.5,310.8L892.6,304.8L890.3,301.3L890.1,297.0L892.2,294.1L895.4,294.1L897.2,295.7L903.3,293.1L914.7,294.7L919.6,291.4L921.5,285.0L922.9,283.1L926.5,284.0L928.6,286.3L931.9,293.0L934.2,295.7L942.2,294.3L943.3,295.2L946.6,301.3L948.5,302.6L953.8,298.8L956.3,295.9L963.0,292.8L963.4,291.7L965.5,292.1L972.0,297.3L974.1,298.0L984.4,299.3L988.6,283.2L988.5,276.7L985.0,255.9L982.8,248.1L963.6,214.7L959.8,209.5L954.9,204.3L952.3,200.1L948.2,195.4L946.9,192.2L946.7,190.0L947.4,183.6L944.7,177.1L946.0,168.7L945.1,165.0L941.7,158.8L940.9,152.8L939.5,150.7L936.5,149.5L929.7,150.3L926.3,149.0L923.8,145.1L923.3,140.8L923.4,136.4L922.6,132.2L920.1,128.6L918.1,126.6L917.0,124.1L917.3,119.0L921.2,98.9L921.2,91.4L917.4,81.3L917.2,76.9L918.1,73.0L921.0,65.6L921.7,60.0L923.0,58.4L925.3,57.6L928.6,60.6L932.1,59.6L934.2,57.4L935.5,54.2L937.0,48.7L937.8,41.4L939.9,37.1L940.6,34.7L940.4,31.3L938.9,25.0L938.7,21.7L941.7,11.0L942.0,5.7L939.1,0.0L936.9,2.4L932.0,12.4L929.3,14.0L928.3,15.4L925.5,25.1L926.3,30.4L925.9,32.0L923.7,34.2L921.6,34.1L917.0,31.9L911.5,30.3L907.6,26.8L902.1,22.8L898.6,22.5L896.2,25.3L890.1,33.9L890.1,39.5L888.7,43.8L887.2,44.8L881.5,44.2L880.3,46.7L879.7,50.4L878.6,53.7L874.1,58.8L868.9,63.0L865.0,64.5L862.9,63.3L861.0,60.8L857.6,58.1L854.6,58.2L850.1,65.7L847.2,72.0L844.2,73.0L842.4,80.8L840.1,81.6L838.2,81.2L832.7,78.1L829.0,79.8L822.3,84.3L819.5,84.2L816.8,83.1L814.0,81.0L808.4,75.6L800.7,65.3L798.9,62.2L795.3,58.4L781.2,53.8L778.8,52.4Z " data-id="KH.RO" data-name="Rôtânôkiri" id="KH.RO"/>
utf-8utf-8<path d="M505.1,886.9L505.1,866.8L502.2,860.6L500.5,858.6L497.6,850.5L497.8,846.9L500.6,839.3L503.3,834.4L507.6,829.9L499.1,809.5L488.3,806.5L485.3,806.1L481.6,807.7L475.8,809.5L469.1,805.2L470.5,798.3L469.5,793.7L466.3,782.1L465.7,780.5L461.2,776.9L457.4,775.6L449.7,773.7L447.7,772.3L445.7,767.1L445.5,760.2L440.3,757.9L426.9,758.5L412.8,760.7L397.7,757.1L393.5,754.8L390.2,751.8L384.0,753.4L382.3,754.6L381.6,759.7L377.0,770.7L374.6,774.4L371.8,775.8L370.3,775.7L366.1,773.9L362.7,776.8L355.5,788.3L357.8,795.4L359.5,817.4L359.1,827.4L359.3,829.1L362.7,846.7L363.2,851.1L361.5,859.7L358.6,865.8L357.4,867.4L357.7,868.4L363.2,873.3L365.9,874.2L369.0,874.5L387.3,880.1L390.6,880.4L395.0,879.1L398.1,878.7L407.8,881.5L412.6,881.4L415.2,877.1L416.8,878.6L420.3,877.1L424.1,881.0L426.4,875.9L431.9,876.8L439.6,876.3L443.8,878.1L446.2,880.5L449.7,886.6L451.4,890.5L451.7,896.9L456.4,903.4L459.9,907.8L463.9,909.9L466.5,909.4L468.3,907.3L475.0,894.6L477.9,888.1L480.1,886.1L483.0,885.3L491.0,884.9L505.1,886.9Z " data-id="KH.KP" data-name="Kâmpôt" id="KH.KP"/>
utf-8utf-8<path d="M339.1,899.8L339.0,895.3L337.3,890.9L334.4,888.8L331.8,888.5L330.0,889.1L329.5,890.6L331.0,893.2L327.4,896.1L329.3,899.5L331.6,901.2L337.4,901.9L339.1,899.8Z M355.5,788.3L340.8,803.5L337.9,805.8L334.4,806.7L330.5,806.3L328.3,808.5L326.6,815.3L326.8,817.9L326.1,821.7L321.4,832.8L317.4,837.2L312.7,840.4L312.7,840.5L297.3,841.6L290.3,844.0L287.7,848.9L285.9,856.1L284.3,859.7L280.6,863.3L280.0,867.2L281.2,869.9L284.2,868.4L288.2,871.6L290.2,873.9L292.1,878.8L296.8,881.6L300.5,880.1L301.4,881.1L303.3,888.8L304.8,891.8L307.4,893.2L310.8,893.0L317.6,891.3L323.8,891.7L327.6,890.1L326.3,886.4L322.5,882.5L318.4,880.1L318.2,878.7L319.7,879.4L324.7,880.1L328.4,884.0L330.9,884.5L338.4,884.0L340.7,882.7L342.7,880.1L346.2,873.7L347.5,870.0L347.9,866.3L346.0,858.5L345.5,853.9L346.5,849.7L348.4,855.4L348.5,858.1L352.5,858.4L357.3,866.9L357.4,867.4L358.6,865.8L361.5,859.7L363.2,851.1L362.7,846.7L359.3,829.1L359.1,827.4L359.5,817.4L357.8,795.4L355.5,788.3Z " data-id="KH.KA" data-name="Krong Preah Sihanouk" id="KH.KA"/>
utf-8utf-8<path d="M689.3,662.3L688.2,663.2L681.7,664.1L678.3,665.9L673.5,667.0L671.0,669.8L669.2,676.6L667.9,689.9L666.3,699.5L667.7,716.4L670.0,727.2L671.2,731.7L668.2,731.3L664.7,735.8L663.3,744.2L663.2,750.8L665.5,759.7L667.3,764.1L666.1,767.3L664.3,769.9L663.2,773.4L663.1,780.3L662.0,783.4L666.4,788.5L668.1,792.1L670.8,791.5L674.9,789.3L682.3,783.8L687.5,782.0L692.6,782.6L696.0,786.7L699.9,793.2L707.1,803.0L708.7,806.2L711.4,813.6L713.1,816.6L715.9,820.0L719.4,822.4L723.3,822.3L724.8,820.2L726.7,816.0L728.0,811.4L728.0,807.9L734.7,813.6L740.5,820.3L745.5,824.2L750.9,827.1L756.0,829.0L766.7,830.2L771.7,831.6L776.2,835.4L769.6,815.0L764.2,805.2L763.2,801.3L763.0,795.9L764.0,792.5L767.2,792.0L773.1,792.2L774.3,791.0L771.9,786.7L767.8,774.6L765.3,770.9L761.7,768.1L758.4,767.5L755.7,769.4L754.0,774.0L751.7,769.6L748.9,766.1L741.9,759.9L738.8,756.4L733.5,748.4L730.5,745.6L720.3,742.8L716.2,739.6L712.8,729.1L710.2,727.4L707.1,726.5L704.5,724.4L704.1,721.4L705.7,705.5L707.1,698.3L707.4,695.1L706.8,691.9L702.8,680.7L702.7,675.1L701.2,669.9L699.0,668.2L694.0,667.2L691.6,665.8L689.3,662.3Z " data-id="KH.SR" data-name="Svay Rieng" id="KH.SR"/>
utf-8utf-8<path d="M498.3,710.5L493.1,716.4L491.7,718.3L491.4,720.6L490.4,738.6L488.9,754.5L489.9,764.7L483.6,765.3L478.8,767.3L469.1,767.4L463.6,764.3L454.2,763.4L451.9,762.9L445.5,760.2L445.7,767.1L447.7,772.3L449.7,773.7L457.4,775.6L461.2,776.9L465.7,780.5L466.3,782.1L469.5,793.7L470.5,798.3L469.1,805.2L475.8,809.5L481.6,807.7L485.3,806.1L488.3,806.5L499.1,809.5L507.6,829.9L503.3,834.4L500.6,839.3L497.8,846.9L497.6,850.5L500.5,858.6L502.2,860.6L505.1,866.8L505.1,886.9L509.6,887.5L518.9,888.8L527.3,888.4L533.7,885.4L537.8,880.1L544.4,867.0L548.5,862.0L566.0,851.5L570.1,846.6L569.4,839.7L561.6,825.9L558.0,817.9L556.7,810.6L557.7,807.2L559.5,804.2L561.1,802.4L554.0,783.9L554.9,777.2L553.3,767.1L553.1,762.0L554.6,751.8L554.3,749.8L552.8,746.6L545.0,740.6L542.7,738.2L538.2,731.8L535.4,729.0L534.8,725.8L534.3,716.2L531.9,714.1L525.2,712.4L521.9,711.0L515.2,712.7L503.4,714.2L498.3,710.5Z " data-id="KH.TA" data-name="Takêv" id="KH.TA"/>
utf-8</g>
</svg>
