<?xml version="1.0" ?>
<!DOCTYPE svg
  PUBLIC '-//W3C//DTD SVG 1.1//EN'
  'http://www.w3.org/Graphics/SVG/1.1/DTD/svg11.dtd'>
<svg enable_background="new 0 0 1000 898" height="898px" pretty_print="True" style="stroke-linejoin: round; stroke:#000; fill: none;" version="1.1" viewBox="0 0 1000 898" width="1000px" xmlns="http://www.w3.org/2000/svg" xmlns:xlink="http://www.w3.org/1999/xlink">
utf-8<defs>
utf-8utf-8<style type="text/css">
<![CDATA[path { fill-rule: evenodd; }]]>utf-8utf-8</style>
utf-8</defs>
utf-8<metadata>
utf-8utf-8<views>
utf-8utf-8utf-8<view h="898.953990819" padding="0" w="1000">
utf-8utf-8utf-8utf-8<proj flip="auto" id="robinson" lon0="43.7111909821"/>
utf-8utf-8utf-8utf-8<bbox h="17.09" w="19.03" x="636.15" y="190.51"/>
utf-8utf-8utf-8</view>
utf-8utf-8</views>
utf-8</metadata>
utf-8<g class="" id="provinces">
utf-8utf-8<path d="M464.5,890.9L476.3,889.1L479.2,882.1L471.0,866.9L431.3,836.5L425.0,833.3L418.1,824.2L379.1,794.2L364.7,789.2L332.5,782.3L321.8,775.8L309.4,770.7L304.3,783.8L303.9,815.5L305.7,827.2L311.0,831.9L317.9,835.3L324.4,842.4L326.2,850.7L324.9,865.9L328.0,872.5L340.3,877.4L394.3,879.0L446.3,890.9L464.5,890.9Z " data-id="KM.AN" data-name="Moûhîlî" id="KM.AN"/>
utf-8utf-8<path d="M122.7,0.0L103.3,3.3L70.0,15.8L60.9,16.1L52.2,32.9L44.0,54.6L35.9,69.8L39.8,79.3L41.0,89.6L24.5,245.2L24.9,255.5L26.8,265.0L26.2,274.3L8.5,301.6L3.0,312.2L0.6,320.8L3.3,342.4L11.2,356.5L30.1,378.0L33.3,386.6L34.0,394.3L35.8,402.1L41.8,411.0L56.1,424.3L64.8,429.8L72.8,432.1L105.9,434.2L117.1,439.5L158.6,484.4L163.2,495.4L167.0,502.0L176.1,503.1L186.7,501.4L194.2,498.8L200.0,494.2L202.2,489.3L203.3,482.9L206.2,474.0L215.5,458.4L216.2,451.0L199.1,424.1L194.7,414.1L191.3,396.4L186.9,390.0L182.0,384.4L178.7,378.0L178.3,369.0L180.2,350.4L180.1,341.4L169.1,305.4L136.8,250.3L131.2,214.6L154.6,50.3L151.7,34.2L145.3,20.1L136.6,6.4L122.7,0.0Z " data-id="KM.GC" data-name="Andjazîdja" id="KM.GC"/>
utf-8utf-8<path d="M980.5,897.0L989.6,890.4L994.6,874.5L999.4,767.2L997.9,754.8L970.0,637.5L967.5,634.8L961.9,622.5L957.6,618.9L952.3,618.7L948.5,620.8L945.0,623.6L941.1,625.5L932.7,628.1L921.8,635.0L914.2,637.5L915.7,667.2L902.6,700.0L881.2,721.0L858.2,715.6L854.1,719.5L846.2,724.0L842.0,727.6L833.0,723.5L808.2,719.5L794.9,715.6L775.5,706.0L765.3,703.1L752.8,703.6L762.7,716.2L792.9,736.9L799.1,742.7L846.0,770.2L876.3,777.3L887.7,783.8L891.9,797.2L897.7,808.6L952.9,852.5L956.8,858.7L957.9,869.7L960.2,877.3L966.2,886.4L973.8,893.8L980.5,897.0Z " data-id="KM.MO" data-name="Andjouân" id="KM.MO"/>
utf-8</g>
</svg>
