<?xml version="1.0" ?>
<!DOCTYPE svg
  PUBLIC '-//W3C//DTD SVG 1.1//EN'
  'http://www.w3.org/Graphics/SVG/1.1/DTD/svg11.dtd'>
<svg enable_background="new 0 0 1000 1195" height="1195px" pretty_print="True" style="stroke-linejoin: round; stroke:#000; fill: none;" version="1.1" viewBox="0 0 1000 1195" width="1000px" xmlns="http://www.w3.org/2000/svg" xmlns:xlink="http://www.w3.org/1999/xlink">
utf-8<defs>
utf-8utf-8<style type="text/css">
<![CDATA[path { fill-rule: evenodd; }]]>utf-8utf-8</style>
utf-8</defs>
utf-8<metadata>
utf-8utf-8<views>
utf-8utf-8utf-8<view h="1195.13329754" padding="0" w="1000">
utf-8utf-8utf-8utf-8<proj flip="auto" id="robinson" lon0="-62.7607667125"/>
utf-8utf-8utf-8utf-8<bbox h="5.29" w="4.43" x="-918.58" y="-292.04"/>
utf-8utf-8utf-8</view>
utf-8utf-8</views>
utf-8</metadata>
utf-8<g class="" id="provinces">
utf-8utf-8<path d="M310.8,109.1L283.4,156.4L285.3,183.4L238.9,249.7L259.8,279.2L262.0,303.7L341.8,320.9L371.7,320.9L373.9,271.8L392.3,232.5L407.2,208.0L431.7,193.8L310.8,109.1Z " data-id="KN.CC" data-name="Christ Church Nichola Town" id="KN.CC"/>
utf-8utf-8<path d="M86.0,163.8L92.6,136.8L74.2,127.0L59.6,146.6L21.0,134.0L0.4,202.6L86.9,324.3L114.2,281.6L135.1,237.4L150.1,237.4L178.1,185.9L86.0,163.8Z " data-id="KN.AS" data-name="Saint Anne Sandy Point" id="KN.AS"/>
utf-8utf-8<path d="M404.0,367.5L417.9,404.4L408.3,416.6L429.8,469.8L467.1,467.5L496.4,479.5L534.8,533.1L596.3,577.7L619.3,720.3L658.5,751.7L734.7,721.1L739.8,658.4L705.6,596.5L663.1,568.5L611.6,538.6L580.6,467.8L572.9,440.6L542.9,443.6L515.3,416.6L482.8,397.0L438.7,387.2L426.1,360.2L404.0,367.5Z " data-id="KN.GB" data-name="Saint George Basseterre" id="KN.GB"/>
utf-8utf-8<path d="M949.8,1177.6L964.4,1161.6L985.3,1115.7L993.6,1082.7L995.9,1049.9L959.2,1023.0L915.7,1005.8L860.7,1023.0L888.6,1193.1L949.8,1177.6Z " data-id="KN.GG" data-name="Saint George Gingerland" id="KN.GG"/>
utf-8utf-8<path d="M999.6,995.0L998.6,960.8L979.2,878.1L937.7,829.1L880.0,807.1L811.5,805.6L763.1,857.9L815.5,902.7L860.7,1023.0L915.7,1005.8L959.2,1023.0L995.9,1049.9L999.6,995.0Z " data-id="KN.JW" data-name="Saint James Windward" id="KN.JW"/>
utf-8utf-8<path d="M144.0,21.7L153.4,53.3L150.1,90.2L148.4,134.3L157.2,156.4L177.9,163.8L178.1,185.9L238.9,249.7L285.3,183.4L283.4,156.4L310.8,109.1L155.0,0.0L144.0,21.7Z " data-id="KN.JC" data-name="Saint John Capesterre" id="KN.JC"/>
utf-8utf-8<path d="M860.7,1023.0L811.6,1072.1L757.0,1084.3L713.5,1087.9L736.6,1179.4L888.6,1193.1L860.7,1023.0Z " data-id="KN.JF" data-name="Saint John Figtree" id="KN.JF"/>
utf-8utf-8<path d="M464.5,216.8L431.7,193.8L407.2,208.0L392.3,232.5L373.9,271.8L371.7,320.9L395.0,323.4L419.2,291.4L450.9,296.4L485.1,296.4L513.0,280.9L464.5,216.8Z " data-id="KN.MC" data-name="Saint Mary Cayon" id="KN.MC"/>
utf-8utf-8<path d="M177.9,163.8L157.2,156.4L148.4,134.3L150.1,90.2L153.4,53.3L144.0,21.7L128.8,32.8L86.9,51.7L70.9,55.9L60.8,60.0L51.3,67.0L37.3,79.9L21.0,134.0L59.6,146.6L74.2,127.0L92.6,136.8L86.0,163.8L178.1,185.9L177.9,163.8Z " data-id="KN.PP" data-name="Saint Paul Capesterre" id="KN.PP"/>
utf-8utf-8<path d="M860.7,1023.0L798.5,1050.0L701.7,1041.2L713.5,1087.9L757.0,1084.3L811.6,1072.1L860.7,1023.0Z " data-id="KN.PL" data-name="Saint Paul Charlestown" id="KN.PL"/>
utf-8utf-8<path d="M536.9,312.6L513.0,280.9L485.1,296.4L450.9,296.4L419.2,291.4L395.0,323.4L404.0,367.5L426.1,360.2L438.7,387.2L482.8,397.0L515.3,416.6L542.9,443.6L572.9,440.6L536.9,312.6Z " data-id="KN.PB" data-name="Saint Peter Basseterre" id="KN.PB"/>
utf-8utf-8<path d="M815.5,902.7L763.1,857.9L740.9,881.8L701.7,1041.2L798.5,1050.0L860.7,1023.0L815.5,902.7Z " data-id="KN.TL" data-name="Saint Thomas Lowland" id="KN.TL"/>
utf-8utf-8<path d="M178.1,185.9L150.1,237.4L135.1,237.4L114.2,281.6L86.9,324.3L220.0,420.7L274.2,445.8L284.0,419.1L297.5,387.2L324.4,372.5L341.8,320.9L262.0,303.7L259.8,279.2L238.9,249.7L178.1,185.9Z " data-id="KN.TM" data-name="Saint Thomas Middle Island" id="KN.TM"/>
utf-8utf-8<path d="M371.7,320.9L341.8,320.9L324.4,372.5L297.5,387.2L284.0,419.1L274.2,445.8L320.7,467.5L362.7,473.9L429.8,469.8L408.3,416.6L417.9,404.4L404.0,367.5L395.0,323.4L371.7,320.9Z " data-id="KN.TP" data-name="Trinity Palmetto Point" id="KN.TP"/>
utf-8</g>
</svg>
