<?xml version="1.0" ?>
<!DOCTYPE svg
  PUBLIC '-//W3C//DTD SVG 1.1//EN'
  'http://www.w3.org/Graphics/SVG/1.1/DTD/svg11.dtd'>
<svg enable_background="new 0 0 1000 1315" height="1315px" pretty_print="True" style="stroke-linejoin: round; stroke:#000; fill: none;" version="1.1" viewBox="0 0 1000 1315" width="1000px" xmlns="http://www.w3.org/2000/svg" xmlns:xlink="http://www.w3.org/1999/xlink">
utf-8<defs>
utf-8utf-8<style type="text/css">
<![CDATA[path { fill-rule: evenodd; }]]>utf-8utf-8</style>
utf-8</defs>
utf-8<metadata>
utf-8utf-8<views>
utf-8utf-8utf-8<view h="1315.93658478" padding="0" w="1000">
utf-8utf-8utf-8utf-8<proj flip="auto" id="robinson" lon0="126.206392374"/>
utf-8utf-8utf-8utf-8<bbox h="88.56" w="67.35" x="1696.96" y="-721.11"/>
utf-8utf-8utf-8</view>
utf-8utf-8</views>
utf-8</metadata>
utf-8<g class="" id="provinces">
utf-8utf-8<path d="M650.3,964.3L645.6,963.7L642.0,961.9L627.3,953.6L619.9,950.7L612.9,949.6L602.0,944.3L596.8,943.5L588.4,946.0L582.2,946.3L576.7,944.3L569.9,939.2L566.4,938.6L565.3,940.3L566.1,945.5L567.0,947.4L570.2,951.5L581.4,962.1L588.4,966.6L591.2,969.1L594.4,973.1L600.2,978.4L602.7,980.1L605.8,983.8L602.6,986.1L595.5,986.9L589.2,986.4L576.0,980.1L571.8,981.1L570.9,984.1L572.4,987.6L578.6,994.7L580.7,1000.2L579.5,1002.3L573.9,1002.3L557.3,997.6L555.0,996.7L550.5,994.8L542.7,992.0L535.3,990.9L534.2,991.6L529.9,990.5L518.8,984.1L509.1,982.9L508.8,984.2L505.2,987.8L501.3,986.3L499.6,988.6L500.1,993.0L502.1,998.1L505.8,1003.2L512.0,1007.0L518.2,1009.6L520.7,1011.1L533.1,1021.4L537.1,1026.4L541.2,1034.6L541.5,1038.2L540.0,1039.9L533.1,1041.9L529.8,1045.3L528.8,1050.4L525.9,1053.1L519.1,1054.3L513.4,1053.2L503.7,1049.8L499.1,1047.6L489.6,1044.0L486.7,1041.4L483.0,1034.9L478.4,1031.8L452.8,1021.5L449.3,1020.7L435.6,1020.0L430.5,1020.6L425.4,1023.8L415.3,1033.2L410.3,1035.3L411.7,1038.6L414.8,1042.1L418.5,1045.0L424.0,1048.7L430.2,1058.4L436.4,1065.8L436.5,1065.8L438.3,1067.1L442.6,1071.0L445.4,1072.8L443.6,1073.5L445.1,1074.5L447.3,1077.7L455.6,1091.1L457.9,1096.4L460.6,1099.7L463.5,1102.3L467.0,1106.5L470.1,1109.4L474.1,1114.0L475.6,1119.3L477.6,1123.3L481.7,1128.6L487.5,1133.0L488.3,1139.2L487.2,1140.2L489.7,1142.5L494.8,1144.6L500.3,1148.1L501.2,1149.3L501.7,1153.5L504.9,1153.9L509.2,1152.5L514.2,1153.5L517.7,1151.5L527.2,1159.2L530.8,1163.4L533.2,1165.3L541.1,1169.9L544.9,1173.8L551.4,1183.6L555.3,1187.3L557.6,1188.3L564.8,1189.0L571.5,1187.1L578.3,1184.0L585.4,1185.5L588.8,1184.3L589.7,1181.9L592.2,1179.6L599.0,1180.3L605.5,1173.1L613.5,1171.3L618.0,1171.1L620.9,1171.7L626.5,1173.5L633.9,1176.7L646.5,1181.1L651.4,1183.9L654.5,1186.4L663.1,1195.5L664.6,1197.3L666.1,1201.2L665.5,1201.8L662.4,1199.2L657.6,1194.7L655.9,1197.5L654.1,1199.2L653.8,1200.8L655.5,1205.6L660.6,1210.2L663.1,1216.6L667.9,1222.1L668.2,1226.2L670.9,1230.2L673.7,1233.0L674.7,1235.1L675.5,1239.5L678.4,1247.5L679.9,1250.0L685.3,1253.9L686.5,1260.0L687.3,1260.4L696.1,1268.8L698.5,1270.2L735.4,1288.1L739.3,1288.9L746.5,1283.0L748.3,1282.7L747.3,1278.8L748.2,1275.4L736.5,1253.7L734.8,1247.7L736.4,1245.9L740.0,1245.5L744.3,1243.5L749.5,1237.2L754.6,1211.2L756.5,1207.7L761.6,1201.7L763.1,1197.9L762.5,1187.9L755.7,1181.6L752.1,1181.1L748.3,1179.5L742.6,1174.8L740.4,1171.4L739.3,1164.1L738.4,1162.8L733.2,1157.8L732.7,1149.2L730.4,1146.3L727.4,1147.3L726.1,1149.1L723.3,1148.9L711.9,1143.7L709.8,1142.3L705.8,1137.4L681.0,1114.3L678.0,1111.2L674.4,1106.2L671.1,1098.6L669.5,1091.3L667.8,1088.3L664.7,1084.8L657.3,1078.5L654.3,1073.8L654.4,1072.5L656.6,1069.8L666.9,1066.2L668.8,1064.8L671.6,1059.1L671.5,1051.3L673.5,1041.3L673.9,1036.1L670.9,1026.4L662.8,1010.5L662.8,1009.2L667.2,1004.0L676.6,1003.3L679.5,1001.7L681.5,996.5L681.3,989.8L680.7,987.6L678.4,983.4L669.9,976.1L666.5,972.1L661.0,962.9L650.3,964.3Z " data-id="KP.WB" data-name="Hwanghae-bukto" id="KP.WB"/>
utf-8utf-8<path d="M481.0,1297.3L482.9,1290.4L473.3,1295.3L474.1,1299.2L471.6,1298.3L469.3,1299.7L466.5,1306.8L468.6,1308.7L472.4,1307.8L475.3,1304.2L479.1,1300.8L481.0,1297.3Z M443.7,1285.8L447.1,1280.4L448.0,1280.2L446.5,1277.6L442.5,1279.0L440.1,1283.9L442.1,1286.1L443.7,1285.8Z M416.4,1276.2L414.4,1273.8L412.1,1273.3L412.3,1274.9L408.7,1280.3L410.5,1281.1L414.4,1280.4L416.4,1276.2Z M299.9,1098.6L297.7,1096.7L290.8,1094.3L288.7,1091.9L286.5,1092.5L281.1,1097.3L282.2,1101.4L285.2,1103.7L288.1,1100.2L293.3,1103.1L298.3,1104.8L308.2,1107.2L306.1,1104.5L299.9,1098.6Z M686.5,1260.0L685.3,1253.9L679.9,1250.0L678.4,1247.5L675.5,1239.5L674.7,1235.1L673.7,1233.0L670.9,1230.2L668.2,1226.2L667.9,1222.1L663.1,1216.6L660.6,1210.2L655.5,1205.6L653.8,1200.8L654.1,1199.2L655.9,1197.5L657.6,1194.7L662.4,1199.2L665.5,1201.8L666.1,1201.2L664.6,1197.3L663.1,1195.5L654.5,1186.4L651.4,1183.9L646.5,1181.1L633.9,1176.7L626.5,1173.5L620.9,1171.7L618.0,1171.1L613.5,1171.3L605.5,1173.1L599.0,1180.3L592.2,1179.6L589.7,1181.9L588.8,1184.3L585.4,1185.5L578.3,1184.0L571.5,1187.1L564.8,1189.0L557.6,1188.3L555.3,1187.3L551.4,1183.6L544.9,1173.8L541.1,1169.9L533.2,1165.3L530.8,1163.4L527.2,1159.2L517.7,1151.5L514.2,1153.5L509.2,1152.5L504.9,1153.9L501.7,1153.5L501.2,1149.3L500.3,1148.1L494.8,1144.6L489.7,1142.5L487.2,1140.2L488.3,1139.2L487.5,1133.0L481.7,1128.6L477.6,1123.3L475.6,1119.3L474.1,1114.0L470.1,1109.4L467.0,1106.5L463.5,1102.3L460.6,1099.7L457.9,1096.4L455.6,1091.1L447.3,1077.7L445.1,1074.5L443.6,1073.5L441.9,1074.0L435.7,1072.8L429.4,1070.1L425.6,1066.6L418.9,1061.4L416.6,1060.7L417.1,1067.0L414.8,1067.4L413.0,1066.1L410.1,1061.4L408.0,1059.0L396.3,1053.7L394.4,1054.5L394.7,1059.0L378.8,1056.8L375.0,1058.8L372.9,1060.8L371.9,1063.4L369.5,1066.4L364.1,1064.8L361.0,1063.0L359.5,1063.1L356.1,1066.1L350.2,1067.4L347.6,1066.2L345.5,1063.8L343.2,1063.0L344.5,1066.4L347.3,1070.0L347.5,1071.9L343.1,1072.7L335.5,1065.0L332.2,1064.0L331.9,1066.3L333.7,1069.3L336.7,1072.3L340.0,1074.4L341.2,1078.1L343.5,1082.8L343.5,1085.6L336.8,1082.3L333.2,1084.7L330.7,1088.6L326.0,1085.3L323.8,1082.8L320.6,1084.8L315.5,1082.5L312.7,1082.7L313.1,1084.6L317.3,1087.2L320.1,1094.3L322.1,1096.8L327.1,1099.5L329.6,1102.1L330.7,1106.3L330.7,1112.4L329.9,1118.1L328.7,1120.8L327.4,1117.1L323.4,1115.7L322.3,1118.3L323.4,1125.8L323.3,1128.7L320.8,1142.3L321.1,1144.8L326.6,1160.7L330.0,1166.9L334.5,1170.2L342.2,1174.1L352.2,1172.5L358.3,1174.6L349.7,1183.2L348.1,1184.1L339.0,1176.0L334.6,1173.7L330.4,1174.6L329.2,1176.8L328.8,1183.0L328.2,1185.0L320.6,1186.8L319.5,1187.5L320.2,1192.5L317.1,1194.6L307.7,1195.3L303.7,1197.3L303.8,1200.2L307.0,1202.8L333.0,1207.2L341.9,1206.1L346.5,1204.9L347.9,1203.1L347.6,1198.7L352.5,1200.4L362.4,1207.2L382.1,1216.1L384.1,1214.5L393.1,1212.7L400.9,1207.9L403.8,1207.2L407.2,1207.8L415.5,1210.2L419.4,1210.8L427.5,1210.7L431.6,1212.2L435.2,1216.1L432.1,1218.3L434.7,1226.8L430.2,1226.5L424.9,1220.4L422.1,1219.4L413.8,1221.2L405.5,1221.3L404.4,1223.2L407.3,1228.0L412.1,1232.3L418.1,1236.1L420.8,1237.0L422.9,1236.6L424.4,1235.0L426.8,1236.8L426.1,1239.5L424.4,1241.1L418.7,1242.0L414.8,1241.3L407.8,1238.0L404.4,1236.8L401.9,1237.3L398.4,1241.1L396.3,1242.0L392.7,1242.4L390.6,1243.8L390.1,1246.5L391.3,1250.8L392.9,1250.2L396.5,1247.2L397.6,1252.5L400.4,1255.7L404.4,1257.2L411.6,1258.2L419.3,1262.7L421.9,1263.5L434.6,1265.4L438.4,1265.4L441.2,1264.3L443.3,1261.9L443.7,1258.0L443.4,1253.3L444.1,1249.7L447.8,1248.9L449.3,1253.5L460.5,1258.4L464.1,1262.7L463.5,1267.3L457.2,1272.9L456.5,1276.7L469.1,1276.7L470.3,1277.4L472.2,1280.2L475.5,1279.2L478.3,1276.8L482.3,1271.5L475.9,1268.1L474.1,1266.2L478.1,1265.0L484.3,1265.9L490.8,1268.3L496.1,1271.5L494.4,1267.3L489.0,1263.6L482.5,1260.8L477.9,1259.3L481.7,1257.5L486.9,1257.5L483.8,1254.1L487.2,1252.0L489.8,1253.5L492.8,1256.1L497.4,1257.5L503.5,1258.6L504.4,1261.3L501.4,1267.9L504.2,1270.6L507.3,1272.4L510.3,1272.9L513.0,1271.5L515.3,1278.0L512.0,1279.1L500.8,1276.7L496.9,1277.7L493.2,1280.1L490.4,1283.4L489.5,1287.0L493.8,1288.4L500.2,1287.1L504.2,1288.9L495.4,1294.0L489.2,1292.4L488.8,1298.2L492.0,1311.2L495.8,1313.9L498.2,1312.8L498.9,1309.4L497.9,1305.2L498.8,1303.6L502.2,1302.9L509.3,1302.8L515.3,1299.9L516.0,1294.1L515.7,1287.8L518.6,1283.4L519.0,1287.5L521.6,1289.4L525.8,1289.7L525.1,1286.8L526.1,1285.6L528.4,1285.7L531.5,1287.0L530.9,1288.9L533.5,1290.7L540.2,1292.2L541.1,1291.2L534.6,1280.2L538.7,1280.0L539.6,1279.1L539.3,1276.7L533.3,1273.1L534.7,1268.2L531.2,1262.6L526.5,1256.6L524.5,1250.8L535.4,1257.4L538.7,1257.5L541.7,1256.5L546.8,1250.8L544.5,1248.9L542.2,1250.8L538.4,1250.8L538.5,1247.1L539.4,1243.9L536.7,1242.7L531.0,1243.9L530.1,1239.0L527.4,1237.6L520.8,1238.6L516.2,1237.2L509.6,1233.9L503.8,1229.6L502.1,1225.6L504.9,1223.8L510.1,1223.8L515.8,1225.0L525.8,1228.8L529.8,1229.5L538.4,1229.9L540.7,1230.6L545.4,1232.9L551.0,1233.7L552.4,1234.7L554.2,1239.4L558.8,1245.2L564.1,1246.2L568.3,1250.5L585.8,1266.1L590.7,1269.6L595.9,1271.2L598.6,1271.5L606.8,1275.0L609.3,1276.7L607.1,1273.1L602.0,1266.2L600.4,1263.7L594.2,1259.9L591.4,1256.7L593.3,1254.1L595.8,1255.0L600.3,1257.6L604.9,1260.8L607.6,1263.7L611.0,1268.7L613.8,1268.9L617.9,1264.6L623.9,1276.2L627.4,1281.9L629.7,1282.7L632.6,1282.4L636.9,1287.2L644.4,1297.4L655.0,1299.3L652.4,1290.5L650.0,1287.8L646.1,1282.5L643.7,1278.6L643.7,1275.0L646.6,1272.2L650.5,1271.3L658.2,1271.5L662.6,1271.0L666.0,1269.5L678.1,1261.1L681.7,1259.8L685.4,1259.3L686.5,1260.0Z " data-id="KP.WN" data-name="Hwanghae-namdo" id="KP.WN"/>
utf-8utf-8<path d="M551.8,987.7L549.8,984.7L534.3,968.9L532.7,967.5L520.8,965.1L519.1,964.2L511.5,959.3L507.8,956.4L504.4,951.7L503.1,947.9L499.5,943.0L495.7,940.6L488.0,941.2L483.0,939.3L475.1,934.4L468.5,934.7L465.7,934.1L456.2,924.6L454.4,923.2L449.4,921.8L448.6,922.8L448.3,925.9L446.1,927.6L438.8,929.1L430.0,923.0L424.3,921.7L420.9,922.5L418.4,927.1L418.6,928.8L422.8,937.1L421.0,939.6L414.5,931.2L411.4,928.0L407.6,925.3L400.6,923.6L397.2,922.1L390.8,916.4L381.9,911.1L378.0,909.4L375.9,910.4L375.1,911.8L371.0,915.7L364.0,918.4L363.2,921.4L363.6,922.4L372.7,932.6L374.6,935.6L376.6,942.4L377.7,944.0L385.5,948.1L386.6,949.9L376.2,962.8L376.6,966.7L384.5,980.6L387.4,984.3L392.0,988.6L396.8,995.7L399.1,1007.0L399.0,1010.9L397.5,1012.2L392.3,1014.3L391.1,1017.2L392.4,1020.7L397.3,1026.2L406.6,1030.8L410.3,1035.3L415.3,1033.2L425.4,1023.8L430.5,1020.6L435.6,1020.0L449.3,1020.7L452.8,1021.5L478.4,1031.8L483.0,1034.9L486.7,1041.4L489.6,1044.0L499.1,1047.6L503.7,1049.8L513.4,1053.2L519.1,1054.3L525.9,1053.1L528.8,1050.4L529.8,1045.3L533.1,1041.9L540.0,1039.9L541.5,1038.2L541.2,1034.6L537.1,1026.4L533.1,1021.4L520.7,1011.1L518.2,1009.6L512.0,1007.0L505.8,1003.2L502.1,998.1L500.1,993.0L499.6,988.6L501.3,986.3L505.2,987.8L508.8,984.2L509.1,982.9L518.8,984.1L529.9,990.5L534.2,991.6L535.3,990.9L542.7,992.0L550.5,994.8L555.0,996.7L557.3,997.6L551.8,987.7Z " data-id="KP.PY" data-name="P'yŏngyang" id="KP.PY"/>
utf-8utf-8<path d="M647.0,236.0L647.7,238.1L648.4,243.3L646.8,246.9L640.8,251.8L639.4,255.5L639.6,262.4L638.5,263.9L635.8,264.1L629.4,262.1L627.2,262.9L632.7,270.4L638.9,276.8L642.4,281.1L644.9,285.2L648.3,289.0L650.2,289.4L654.1,287.9L656.0,288.0L658.8,290.1L660.6,292.7L664.7,302.4L669.7,310.7L672.0,314.0L674.7,316.7L680.3,321.2L682.4,324.0L683.0,327.3L681.8,332.1L684.5,334.9L688.0,336.4L699.1,337.3L706.4,340.6L714.7,346.4L721.9,353.4L726.1,360.2L725.8,366.4L722.4,370.8L720.0,375.8L722.3,383.7L728.4,391.8L736.0,399.4L752.2,412.6L760.5,417.6L764.5,420.4L767.7,424.1L769.1,427.9L768.4,434.4L768.9,437.7L773.8,444.8L780.8,451.4L786.6,457.8L787.6,464.4L799.2,476.0L804.1,482.2L808.0,488.8L809.3,493.3L808.7,500.3L809.0,504.4L811.7,508.4L820.3,516.4L820.9,519.8L820.3,523.3L822.0,527.1L825.5,530.9L841.9,544.0L844.1,547.1L847.7,553.3L850.1,556.4L855.1,560.8L860.9,564.5L872.3,570.4L877.5,574.3L879.5,577.7L880.8,581.2L883.8,585.6L887.8,588.8L892.2,590.7L896.4,591.6L907.4,592.3L907.4,592.1L909.2,591.3L904.9,582.8L904.9,574.3L903.2,569.9L903.2,568.1L901.3,562.6L900.9,560.1L902.8,557.8L906.3,556.9L909.9,557.2L916.6,563.2L921.3,565.6L920.2,554.7L920.4,550.7L921.3,548.1L926.7,544.3L931.5,539.3L939.8,536.2L946.0,536.6L947.9,535.8L949.1,532.9L952.6,532.2L950.6,527.6L952.7,525.0L958.1,525.3L960.2,524.7L963.8,525.4L967.0,524.5L971.2,525.2L977.4,523.6L980.3,526.0L982.6,526.3L982.5,523.0L981.7,517.3L978.3,512.5L979.5,507.9L977.8,506.1L976.0,500.8L977.1,499.5L973.3,497.7L967.2,493.5L965.0,491.1L957.2,480.1L952.5,472.2L950.8,468.4L950.2,465.1L941.7,456.0L937.0,445.2L927.3,414.6L926.5,409.2L928.3,406.9L924.9,396.2L921.8,391.9L913.1,390.4L908.3,386.9L904.6,383.4L900.6,383.8L890.6,378.1L883.1,372.9L877.6,365.8L874.7,358.0L869.0,352.3L869.4,345.9L866.2,335.8L863.2,328.0L864.4,321.8L868.5,319.7L868.4,316.8L866.1,308.4L864.5,301.5L869.6,297.1L872.1,296.9L878.2,301.6L879.3,300.2L877.4,296.1L878.9,293.7L877.2,285.8L872.2,277.8L868.2,266.5L870.6,264.8L876.4,266.5L879.6,268.7L881.5,269.4L882.6,267.8L880.7,263.3L878.9,256.9L878.7,254.1L881.1,252.4L874.1,247.5L876.8,245.6L874.2,240.7L876.1,239.8L881.6,245.1L882.6,244.4L880.8,240.5L879.0,234.6L878.4,231.2L881.1,230.8L878.5,224.4L880.8,221.6L886.2,221.6L889.6,222.9L894.5,225.4L896.6,225.7L897.4,224.7L895.0,222.8L895.7,219.5L897.3,218.2L900.5,218.9L893.0,204.8L890.6,201.4L879.6,186.7L878.3,175.4L881.8,163.2L877.7,153.8L870.2,149.1L867.0,142.6L877.3,141.6L889.8,137.9L896.1,134.1L891.8,122.0L885.8,110.8L879.8,107.9L877.3,105.4L875.2,100.7L873.6,98.8L871.4,97.6L865.6,97.2L845.5,86.6L841.5,82.5L824.6,72.5L815.5,64.2L809.7,54.9L800.0,34.5L791.3,26.0L781.4,24.5L770.9,24.8L760.5,21.3L761.9,19.5L762.0,16.1L761.2,12.2L759.8,9.0L756.1,6.8L751.4,8.0L744.2,11.6L736.7,11.9L730.4,10.5L727.4,8.8L717.0,1.6L714.8,0.4L711.9,0.0L709.9,0.4L705.8,3.4L707.8,5.2L714.2,8.2L712.1,9.3L706.5,9.9L705.3,11.6L706.0,14.2L709.2,19.7L709.8,24.7L713.2,41.7L716.8,49.0L717.8,52.4L719.0,63.5L721.3,69.3L724.5,73.7L726.8,75.4L729.4,76.2L733.0,78.3L734.4,80.2L733.5,83.8L736.5,87.3L732.0,88.3L732.2,91.7L735.1,94.9L738.9,95.7L739.8,97.2L737.6,102.2L741.6,110.5L747.7,119.9L752.0,128.6L751.8,136.6L746.0,137.7L737.4,135.9L728.6,135.3L731.2,138.3L732.9,141.5L733.1,144.1L729.3,145.8L731.0,150.0L731.5,152.4L728.7,154.2L726.5,153.3L722.0,149.0L714.7,146.2L712.2,144.3L698.1,136.9L695.1,136.9L690.4,140.1L687.0,139.0L683.4,136.0L680.7,135.3L678.7,135.9L679.4,137.6L684.7,141.9L682.8,143.4L678.7,140.4L677.1,141.5L677.6,145.0L679.5,149.3L678.4,149.9L669.0,152.0L668.8,156.7L670.2,158.8L674.6,161.6L675.5,165.2L674.3,166.6L667.9,166.5L669.0,168.3L675.3,170.1L677.7,171.5L676.2,173.1L678.2,176.8L678.7,178.9L675.0,181.9L676.1,184.7L678.3,186.4L683.0,186.7L685.3,188.9L682.6,196.6L679.5,201.4L677.4,207.3L675.5,209.0L672.0,208.8L665.7,206.2L668.0,210.5L667.9,213.7L665.5,218.7L662.9,220.4L658.5,220.9L654.9,222.0L655.0,225.2L657.7,234.8L651.7,237.0L647.0,236.0Z " data-id="KP.HG" data-name="Hamgyŏng-bukto" id="KP.HG"/>
utf-8utf-8<path d="M652.8,929.1L663.0,936.4L666.2,941.3L665.6,942.4L659.4,946.8L658.2,952.5L661.0,962.9L666.5,972.1L669.9,976.1L678.4,983.4L680.7,987.6L681.3,989.8L681.5,996.5L679.5,1001.7L676.6,1003.3L667.2,1004.0L662.8,1009.2L662.8,1010.5L670.9,1026.4L673.9,1036.1L673.5,1041.3L671.5,1051.3L671.6,1059.1L668.8,1064.8L666.9,1066.2L656.6,1069.8L654.4,1072.5L654.3,1073.8L657.3,1078.5L664.7,1084.8L667.8,1088.3L669.5,1091.3L671.1,1098.6L674.4,1106.2L678.0,1111.2L681.0,1114.3L705.8,1137.4L709.8,1142.3L711.9,1143.7L723.3,1148.9L726.1,1149.1L727.4,1147.3L730.4,1146.3L732.7,1149.2L733.2,1157.8L738.4,1162.8L739.3,1164.1L740.4,1171.4L742.6,1174.8L748.3,1179.5L752.1,1181.1L755.7,1181.6L762.5,1187.9L762.1,1181.2L763.6,1176.6L770.5,1167.7L779.7,1159.8L790.8,1154.4L803.3,1153.0L810.1,1153.7L834.3,1151.5L856.4,1157.2L862.3,1156.7L872.6,1153.1L910.3,1149.8L912.6,1150.9L916.9,1154.6L920.6,1157.0L923.8,1157.7L936.0,1155.0L958.0,1156.2L971.4,1155.1L983.0,1150.3L992.1,1142.1L997.6,1131.0L999.1,1124.5L999.6,1117.5L998.5,1109.7L995.0,1100.8L989.0,1092.2L986.4,1087.8L986.1,1084.6L989.6,1080.3L998.1,1074.4L995.0,1069.9L993.0,1065.4L990.4,1060.9L985.7,1056.3L982.9,1054.6L976.1,1051.2L965.2,1041.7L963.1,1042.5L956.3,1047.4L953.8,1048.5L915.1,1019.4L897.7,1015.8L891.6,1011.5L879.4,1000.8L874.7,998.7L872.4,998.1L868.2,994.7L865.6,990.8L864.0,989.2L860.5,990.9L859.1,989.9L856.8,986.7L846.5,979.9L841.3,975.6L835.6,969.5L824.9,960.8L816.3,952.9L813.2,950.9L809.9,950.5L796.0,950.7L792.7,949.8L786.8,945.5L783.5,943.7L777.8,942.2L763.2,943.7L757.8,941.1L748.8,931.5L745.4,931.9L748.0,935.9L748.2,938.1L744.5,938.7L741.7,937.5L735.1,932.9L728.0,929.8L718.8,920.1L716.5,913.0L714.6,905.9L713.6,899.3L710.0,894.8L713.1,894.4L718.3,897.6L719.7,896.5L725.4,895.2L725.8,893.3L722.5,889.3L719.2,888.2L716.5,889.2L714.9,891.0L711.9,889.8L706.4,888.5L703.5,887.4L702.5,885.5L710.4,882.1L710.9,880.9L711.3,879.0L707.9,877.8L698.4,877.6L689.3,878.9L678.3,877.1L671.4,876.8L662.0,878.3L654.0,877.2L650.1,878.3L649.0,879.4L647.3,884.4L647.7,886.5L650.7,894.4L652.0,899.7L654.6,906.3L654.5,908.0L651.9,910.6L646.8,912.3L646.9,915.7L649.5,919.7L653.1,923.9L654.4,927.1L652.8,929.1Z " data-id="KP.KW" data-name="Kangwŏn-do" id="KP.KW"/>
utf-8utf-8<path d="M303.3,300.5L298.3,299.7L295.9,299.8L294.0,298.5L290.8,293.2L287.8,291.4L284.2,292.6L281.5,295.3L281.1,298.1L282.2,304.4L273.4,308.6L274.4,314.7L274.1,316.9L269.4,314.8L260.0,308.8L256.1,306.9L252.5,305.9L249.3,305.9L246.6,307.2L249.8,310.1L261.2,315.6L259.0,317.3L255.6,322.7L254.1,323.8L246.8,323.5L244.0,324.1L244.1,329.9L240.9,336.7L242.5,339.6L246.6,342.9L249.1,346.1L250.2,349.3L250.3,356.0L253.2,367.0L252.0,377.1L252.5,380.2L257.4,386.4L264.5,394.0L268.1,400.3L262.2,402.1L261.1,400.3L262.0,399.6L261.9,396.8L256.1,396.7L252.2,401.1L248.4,412.0L248.0,415.1L248.9,425.2L248.3,428.0L245.8,432.6L245.0,435.3L245.9,445.9L245.5,448.7L244.0,451.0L228.1,463.4L225.6,467.5L231.0,472.0L230.5,475.4L228.9,478.0L228.3,480.5L230.6,483.7L226.5,486.6L226.2,488.5L228.0,490.6L228.3,493.5L227.5,499.4L225.3,501.7L218.9,503.4L218.5,507.0L224.5,506.9L226.2,508.1L226.0,510.5L224.1,511.7L218.3,512.4L216.5,514.5L214.5,515.8L211.1,514.2L207.4,511.7L204.5,510.5L201.5,510.9L199.6,512.1L194.3,517.4L192.5,517.7L181.8,514.0L178.0,513.8L177.3,514.8L177.3,518.1L167.4,523.0L164.7,532.1L174.0,538.6L177.9,542.3L175.9,544.0L164.2,544.2L160.7,541.4L156.7,539.1L153.3,538.4L151.9,540.0L153.5,544.8L156.0,550.1L156.1,552.8L154.0,553.8L145.7,554.0L143.4,554.6L142.2,556.0L144.2,565.7L143.0,566.8L139.1,566.2L138.2,567.3L139.3,570.7L157.7,578.4L162.9,581.4L173.3,588.9L179.6,590.8L182.4,590.0L185.7,590.8L187.4,592.5L197.5,604.8L198.2,608.7L197.8,612.1L201.3,625.5L202.0,626.9L205.4,630.6L218.2,638.9L220.8,641.5L221.2,642.8L220.4,646.5L220.9,647.9L224.9,651.2L234.5,656.9L265.8,671.5L275.0,676.1L278.2,676.5L285.5,673.0L292.9,672.7L295.1,673.4L301.2,676.4L310.3,677.9L315.7,681.5L324.8,688.3L344.3,700.0L358.5,710.4L362.8,713.1L374.6,718.6L379.8,720.3L399.6,722.4L404.2,723.5L413.8,727.0L425.6,732.7L430.5,733.5L432.5,732.4L440.3,724.5L442.1,723.5L448.0,723.2L449.9,721.2L447.1,709.3L449.1,705.7L457.4,697.1L460.2,695.5L464.2,694.6L469.5,684.9L474.7,682.9L477.8,682.6L479.5,680.1L477.8,671.3L478.6,668.1L483.0,662.2L484.1,658.6L483.6,648.8L483.8,648.8L481.9,645.4L479.9,640.9L477.4,632.4L478.0,626.5L480.3,621.7L481.2,616.5L477.6,609.6L471.4,600.5L471.7,596.4L475.3,593.9L479.3,589.9L482.4,585.0L484.5,583.6L487.7,582.5L496.1,581.4L498.0,580.3L498.6,574.7L493.7,560.4L494.9,554.7L505.9,546.1L513.2,543.6L514.9,542.1L515.9,540.0L516.0,537.4L515.2,534.1L512.1,529.1L508.1,526.2L498.5,522.8L491.1,517.4L485.4,509.0L482.0,500.2L481.8,493.7L486.1,483.5L485.7,477.6L481.5,468.5L478.8,463.3L474.8,456.8L470.3,450.6L465.9,446.0L459.9,443.1L454.1,443.1L449.4,445.0L446.5,448.0L445.7,451.5L445.7,455.2L445.0,458.4L442.2,460.7L439.7,461.1L430.7,459.0L424.2,458.4L421.1,457.6L405.5,450.6L400.1,447.5L394.9,442.8L390.0,436.0L387.4,433.0L379.9,427.8L378.9,426.2L378.1,422.3L374.5,418.5L364.9,413.5L360.1,408.7L353.9,400.3L346.9,392.3L340.1,386.7L338.4,383.5L339.5,380.9L338.9,379.0L336.7,377.0L330.7,376.7L325.1,379.8L321.6,379.9L316.4,377.1L313.5,374.5L310.2,370.8L307.4,366.9L306.2,363.8L307.0,361.3L309.2,360.7L315.5,361.5L318.6,360.7L319.3,358.7L319.2,352.6L321.0,350.3L323.6,348.8L325.6,346.7L325.2,343.1L315.7,330.4L312.2,324.7L309.3,317.3L308.7,310.9L308.6,303.3L303.3,300.5Z " data-id="KP.CH" data-name="Chagang-do" id="KP.CH"/>
utf-8utf-8<path d="M778.7,458.4L768.6,454.1L742.5,445.2L739.0,444.4L736.1,444.7L732.0,446.0L729.7,446.1L719.9,443.6L717.0,443.9L718.0,446.9L720.0,449.9L724.6,461.2L723.6,463.8L716.9,466.5L714.7,468.5L714.2,471.5L714.4,478.4L713.6,481.4L709.3,484.1L702.4,484.5L694.7,484.0L688.4,484.2L687.1,487.8L691.8,494.3L698.7,501.9L703.8,508.4L705.5,512.4L707.6,520.7L709.3,525.0L713.6,533.7L715.4,537.9L716.6,542.2L716.8,545.0L716.5,550.0L716.9,552.9L721.0,562.3L721.7,565.2L721.0,568.3L715.7,575.8L714.4,579.1L712.7,590.5L710.2,595.4L704.7,596.1L697.6,593.5L689.8,588.8L686.3,587.0L683.0,586.3L680.0,586.5L667.1,591.7L665.5,593.9L665.0,596.6L666.4,603.8L666.7,607.6L665.8,610.8L654.8,624.4L645.6,631.4L642.5,632.3L639.8,631.7L637.2,629.2L634.4,624.6L630.9,617.9L630.0,614.9L630.0,612.0L631.6,608.0L631.7,605.9L630.4,602.6L625.7,596.4L624.4,594.0L624.8,588.6L621.7,587.5L615.2,587.3L607.2,584.6L604.4,582.2L601.1,578.3L594.8,569.3L591.0,565.7L581.6,561.2L577.9,558.4L562.3,545.0L559.6,542.0L554.9,535.5L552.0,532.4L547.8,530.0L540.4,527.9L538.3,524.8L538.4,522.1L539.8,519.5L547.2,510.5L547.4,504.9L543.3,498.6L534.2,491.3L531.7,488.4L533.6,487.0L539.4,486.6L541.8,485.6L543.0,483.7L543.1,481.0L542.0,477.5L538.1,468.3L533.9,460.4L527.9,454.4L518.8,451.1L503.7,448.5L499.5,450.5L500.3,457.7L502.2,462.5L503.3,466.6L502.7,469.5L499.5,470.8L490.8,470.2L481.5,468.5L485.7,477.6L486.1,483.5L481.8,493.7L482.0,500.2L485.4,509.0L491.1,517.4L498.5,522.8L508.1,526.2L512.1,529.1L515.2,534.1L516.0,537.4L515.9,540.0L514.9,542.1L513.2,543.6L505.9,546.1L494.9,554.7L493.7,560.4L498.6,574.7L498.0,580.3L496.1,581.4L487.7,582.5L484.5,583.6L482.4,585.0L479.3,589.9L475.3,593.9L471.7,596.4L471.4,600.5L477.6,609.6L481.2,616.5L480.3,621.7L478.0,626.5L477.4,632.4L479.9,640.9L481.9,645.4L483.8,648.8L502.0,648.3L504.9,648.7L515.0,652.2L529.4,661.0L531.2,662.5L533.8,666.4L534.4,670.3L539.4,679.1L544.6,685.1L547.5,686.7L557.4,691.1L562.3,694.8L564.1,699.1L563.4,702.8L555.0,713.3L554.7,716.5L558.4,722.6L558.4,723.9L555.2,725.3L554.9,726.4L558.6,732.4L566.2,742.2L568.2,744.4L579.7,754.7L583.9,761.1L583.9,767.4L582.2,768.9L574.4,769.6L569.9,774.3L566.3,773.1L561.5,769.0L556.6,766.1L550.0,764.5L537.0,764.5L527.2,767.2L524.9,768.2L522.3,770.9L522.1,774.7L524.1,783.8L523.3,791.2L523.3,796.4L525.3,800.0L531.4,801.6L532.4,802.2L534.2,806.2L530.5,814.3L531.9,820.3L535.5,824.2L539.3,830.5L539.6,832.4L537.8,836.6L537.6,838.9L538.1,843.5L540.0,848.1L546.1,853.2L553.4,857.6L559.3,861.6L561.5,864.2L563.0,867.6L563.9,875.3L567.9,891.6L571.0,898.9L575.4,902.9L580.9,905.6L584.7,905.4L589.8,902.3L592.4,901.6L595.3,901.7L600.6,904.0L604.4,907.7L606.5,910.5L610.2,912.7L613.0,909.0L614.3,908.6L619.0,909.0L620.6,909.7L626.5,915.2L627.7,917.2L629.4,923.7L632.0,926.3L636.8,927.3L642.1,926.2L647.3,926.9L652.8,929.1L654.4,927.1L653.1,923.9L649.5,919.7L646.9,915.7L646.8,912.3L651.9,910.6L654.5,908.0L654.6,906.3L652.0,899.7L650.7,894.4L647.7,886.5L647.3,884.4L649.0,879.4L650.1,878.3L654.0,877.2L662.0,878.3L671.4,876.8L678.3,877.1L689.3,878.9L698.4,877.6L707.9,877.8L711.3,879.0L711.3,879.0L714.6,872.8L716.3,871.0L719.3,871.9L722.4,874.6L724.9,878.0L736.7,887.4L737.1,894.2L737.7,897.9L739.6,901.2L743.1,903.9L745.8,904.7L747.6,903.7L747.8,901.2L744.5,894.3L726.1,869.4L714.5,852.7L712.5,842.4L714.7,831.7L710.9,826.0L704.8,821.3L698.7,819.1L696.9,819.3L695.0,818.2L692.9,815.5L684.7,801.8L684.1,794.0L688.1,790.5L687.6,784.8L688.9,781.7L691.1,779.3L693.4,778.3L694.1,773.1L700.4,775.6L705.2,779.1L707.3,776.7L706.4,768.9L711.7,766.6L719.3,767.5L724.1,764.5L723.2,762.1L719.0,759.6L736.9,757.8L737.6,755.5L733.5,745.2L731.2,740.9L731.4,735.3L737.8,738.2L739.4,737.5L739.9,735.8L740.3,730.3L741.1,729.1L745.1,726.2L743.3,721.3L743.6,720.1L772.8,724.5L777.5,727.3L779.1,726.8L781.7,724.8L790.2,724.5L791.8,724.0L786.9,717.4L787.1,714.5L791.4,712.2L796.3,715.1L805.0,723.0L810.9,724.3L807.7,714.7L809.3,707.4L814.4,706.7L818.8,707.5L824.6,704.2L827.5,698.0L833.6,697.8L836.1,695.9L836.7,693.9L836.1,690.1L841.3,686.8L842.6,685.2L846.7,685.5L851.6,686.8L853.8,682.6L856.1,681.6L852.4,675.7L851.5,672.0L847.0,667.9L840.2,665.7L836.9,664.3L834.0,658.0L835.4,654.1L838.3,652.3L839.8,654.7L842.4,654.7L843.4,649.6L849.2,647.7L855.8,648.7L856.7,645.9L860.1,645.7L865.6,643.8L867.4,640.7L872.8,639.6L877.2,633.2L884.2,618.0L893.3,614.6L903.1,614.9L905.4,605.4L908.0,596.9L907.4,594.3L907.4,592.3L896.4,591.6L892.2,590.7L887.8,588.8L883.8,585.6L880.8,581.2L879.5,577.7L877.5,574.3L872.3,570.4L860.9,564.5L855.1,560.8L850.1,556.4L847.7,553.3L844.1,547.1L841.9,544.0L825.5,530.9L822.0,527.1L820.3,523.3L820.9,519.8L820.3,516.4L811.7,508.4L809.0,504.4L808.7,500.3L809.3,493.3L808.0,488.8L804.1,482.2L799.2,476.0L787.6,464.4L778.7,458.4Z " data-id="KP.HN" data-name="Hamgyŏng-namdo" id="KP.HN"/>
utf-8utf-8<path d="M133.2,873.3L135.2,872.0L133.5,869.2L130.8,866.0L129.6,868.0L128.1,868.6L130.8,872.7L133.2,873.3Z M143.1,853.2L139.5,846.1L137.5,846.6L136.9,850.1L138.2,853.4L139.7,854.5L142.4,854.7L143.1,853.2Z M132.7,838.0L129.0,837.8L124.6,839.1L121.0,839.1L119.1,842.1L116.8,844.2L117.3,845.9L118.8,845.8L126.0,843.5L130.6,845.8L133.4,845.8L135.0,844.2L135.6,842.0L134.9,839.7L132.7,838.0Z M176.9,848.5L184.3,842.8L178.8,837.4L174.0,832.1L176.0,830.9L176.1,829.3L169.3,827.0L165.7,827.4L167.0,829.5L165.6,831.5L167.6,835.2L165.3,837.0L169.4,844.3L167.2,844.6L167.4,845.8L171.6,848.4L171.5,851.2L168.4,850.1L167.8,856.5L171.5,854.1L175.1,853.4L176.9,848.5Z M10.2,782.1L11.7,779.0L7.4,775.6L5.7,777.1L6.3,780.9L10.2,782.1Z M139.4,570.9L141.5,574.0L141.7,575.9L137.1,575.7L131.9,572.9L125.0,573.6L118.1,571.4L115.3,571.8L112.7,573.0L113.0,578.1L112.2,580.0L105.8,583.0L99.9,585.1L95.5,587.6L90.3,592.4L86.4,594.6L84.2,596.4L76.2,599.7L75.8,602.8L77.6,606.1L85.7,612.2L88.8,615.3L89.1,617.7L86.5,618.6L82.7,618.9L78.5,618.6L73.5,619.5L68.4,619.1L63.0,616.5L56.7,612.2L56.7,616.6L54.3,625.0L49.2,634.2L46.4,636.8L42.3,637.8L40.3,640.0L41.0,645.1L42.3,650.7L42.3,654.8L39.3,656.6L30.2,658.7L28.2,660.7L26.8,664.2L21.2,669.0L19.3,671.7L20.7,676.8L17.5,678.4L2.0,704.0L0.4,707.0L4.5,710.9L7.6,715.3L11.1,719.4L16.5,722.3L21.5,723.2L31.2,723.7L36.3,725.7L30.4,727.5L22.8,725.2L16.7,724.4L15.3,730.6L20.1,742.6L20.6,746.1L19.3,747.7L14.9,749.8L14.3,752.9L20.0,756.0L22.4,757.8L27.8,763.0L36.8,766.0L40.0,770.5L46.0,774.8L47.6,773.2L66.5,776.3L73.8,776.6L76.0,777.3L77.2,779.0L79.0,784.1L80.9,786.0L85.7,788.0L87.2,789.3L90.1,797.7L91.7,799.8L97.8,802.0L103.4,807.2L107.6,806.2L109.9,809.7L110.7,813.2L108.9,814.8L110.5,819.3L108.9,823.3L113.1,827.2L114.8,827.6L115.4,831.0L119.1,832.8L118.8,827.4L122.8,825.0L124.9,821.1L128.0,818.7L132.5,820.1L134.0,819.4L130.7,816.8L128.5,814.2L129.8,812.6L132.3,812.5L131.1,808.6L128.2,807.8L126.8,805.3L126.9,803.2L125.4,800.1L124.9,797.2L118.2,790.2L117.0,787.7L116.9,785.0L120.5,788.1L124.2,793.7L127.1,795.2L133.1,795.7L135.1,798.1L141.8,799.2L145.5,800.3L150.0,802.2L154.3,804.6L158.1,807.6L163.7,815.0L166.8,816.5L169.9,817.3L173.1,819.1L172.9,814.8L175.2,815.0L183.8,820.8L189.2,821.7L190.6,823.3L200.7,829.4L203.6,830.2L208.4,829.4L211.0,829.8L212.3,830.8L217.4,836.0L219.6,839.0L221.8,839.4L230.8,839.4L224.6,832.6L238.3,832.6L237.6,837.2L240.3,838.8L244.3,839.7L257.1,848.9L259.5,850.1L266.1,847.1L281.8,836.6L283.8,834.3L286.5,837.3L296.5,835.8L306.0,831.2L313.4,825.4L315.8,822.1L326.9,822.2L329.9,821.2L339.4,815.3L345.7,808.9L348.2,800.6L347.8,794.0L353.7,792.8L359.8,783.8L360.7,777.8L363.8,769.1L363.9,767.7L367.1,766.7L380.0,774.5L385.0,775.8L386.7,775.7L414.7,767.8L425.3,760.5L429.0,758.9L430.9,756.2L430.4,754.8L427.6,750.3L418.3,741.9L416.1,739.1L413.2,731.2L413.8,727.0L404.2,723.5L399.6,722.4L379.8,720.3L374.6,718.6L362.8,713.1L358.5,710.4L344.3,700.0L324.8,688.3L315.7,681.5L310.3,677.9L301.2,676.4L295.1,673.4L292.9,672.7L285.5,673.0L278.2,676.5L275.0,676.1L265.8,671.5L234.5,656.9L224.9,651.2L220.9,647.9L220.4,646.5L221.2,642.8L220.8,641.5L218.2,638.9L205.4,630.6L202.0,626.9L201.3,625.5L197.8,612.1L198.2,608.7L197.5,604.8L187.4,592.5L185.7,590.8L182.4,590.0L179.6,590.8L173.3,588.9L162.9,581.4L157.7,578.4L139.3,570.7L139.4,570.9Z " data-id="KP.PB" data-name="P'yŏngan-bukto" id="KP.PB"/>
utf-8utf-8<path d="M647.3,926.9L642.1,926.2L636.8,927.3L632.0,926.3L629.4,923.7L627.7,917.2L626.5,915.2L620.6,909.7L619.0,909.0L614.3,908.6L613.0,909.0L610.2,912.7L606.5,910.5L604.4,907.7L600.6,904.0L595.3,901.7L592.4,901.6L589.8,902.3L584.7,905.4L580.9,905.6L575.4,902.9L571.0,898.9L567.9,891.6L563.9,875.3L563.0,867.6L561.5,864.2L559.3,861.6L553.4,857.6L546.1,853.2L540.0,848.1L538.1,843.5L537.6,838.9L537.8,836.6L539.6,832.4L539.3,830.5L535.5,824.2L531.9,820.3L530.5,814.3L534.2,806.2L532.4,802.2L531.4,801.6L525.3,800.0L523.3,796.4L523.3,791.2L524.1,783.8L522.1,774.7L522.3,770.9L524.9,768.2L527.2,767.2L537.0,764.5L550.0,764.5L556.6,766.1L561.5,769.0L566.3,773.1L569.9,774.3L574.4,769.6L582.2,768.9L583.9,767.4L583.9,761.1L579.7,754.7L568.2,744.4L566.2,742.2L558.6,732.4L554.9,726.4L555.2,725.3L558.4,723.9L558.4,722.6L554.7,716.5L555.0,713.3L563.4,702.8L564.1,699.1L562.3,694.8L557.4,691.1L547.5,686.7L544.6,685.1L539.4,679.1L534.4,670.3L533.8,666.4L531.2,662.5L529.4,661.0L515.0,652.2L504.9,648.7L502.0,648.3L483.8,648.8L483.6,648.8L484.1,658.6L483.0,662.2L478.6,668.1L477.8,671.3L479.5,680.1L477.8,682.6L474.7,682.9L469.5,684.9L464.2,694.6L460.2,695.5L457.4,697.1L449.1,705.7L447.1,709.3L449.9,721.2L448.0,723.2L442.1,723.5L440.3,724.5L432.5,732.4L430.5,733.5L425.6,732.7L413.8,727.0L413.2,731.2L416.1,739.1L418.3,741.9L427.6,750.3L430.4,754.8L430.9,756.2L429.0,758.9L425.3,760.5L414.7,767.8L386.7,775.7L385.0,775.8L380.0,774.5L367.1,766.7L363.9,767.7L363.8,769.1L360.7,777.8L359.8,783.8L353.7,792.8L347.8,794.0L348.2,800.6L345.7,808.9L339.4,815.3L329.9,821.2L326.9,822.2L315.8,822.1L313.4,825.4L306.0,831.2L296.5,835.8L286.5,837.3L286.8,837.6L288.2,840.9L287.9,843.5L283.2,845.7L283.2,848.5L284.5,854.9L282.9,858.8L280.5,861.7L279.5,865.4L282.0,871.9L287.2,870.0L289.5,870.2L288.1,877.0L289.3,880.6L294.1,882.1L307.6,884.0L311.8,884.0L312.1,886.7L311.3,888.5L308.3,891.0L303.3,889.1L307.8,892.5L308.5,896.9L311.2,900.2L314.8,902.2L318.2,902.6L316.8,905.0L315.9,918.7L317.5,921.1L320.3,923.0L323.4,926.7L318.2,925.1L313.2,925.0L309.8,927.0L309.3,931.9L315.3,938.0L313.3,938.7L308.3,938.8L306.7,939.8L305.9,942.1L310.1,950.9L311.6,952.4L313.0,957.8L324.2,959.3L320.8,960.3L311.4,960.1L311.0,963.6L311.4,967.8L310.1,972.7L309.3,979.8L308.4,983.7L310.2,986.4L310.1,990.6L309.0,995.6L310.0,1001.4L310.5,1007.4L316.3,1021.1L318.3,1029.5L323.2,1036.1L326.4,1038.1L330.3,1039.6L332.7,1042.6L336.6,1045.8L342.2,1045.5L341.1,1037.4L337.1,1031.4L340.7,1032.1L344.2,1034.5L346.7,1037.4L346.9,1039.8L350.6,1041.7L348.8,1046.3L349.1,1048.4L351.7,1051.2L355.5,1053.5L359.1,1054.7L362.4,1054.7L364.9,1053.7L364.1,1052.1L359.8,1048.4L361.2,1046.8L364.5,1050.2L370.3,1051.1L371.8,1050.2L371.3,1046.8L372.7,1046.8L376.5,1050.3L380.1,1051.1L384.8,1048.2L386.9,1046.3L380.0,1041.7L382.6,1041.5L383.1,1036.5L384.8,1036.1L385.3,1037.5L395.1,1046.9L397.2,1048.5L400.2,1049.8L405.1,1049.8L407.9,1050.2L412.4,1052.7L427.1,1064.0L429.7,1065.0L434.0,1065.2L436.4,1065.8L430.2,1058.4L424.0,1048.7L418.5,1045.0L414.8,1042.1L411.7,1038.6L410.3,1035.3L406.6,1030.8L397.3,1026.2L392.4,1020.7L391.1,1017.2L392.3,1014.3L397.5,1012.2L399.0,1010.9L399.1,1007.0L396.8,995.7L392.0,988.6L387.4,984.3L384.5,980.6L376.6,966.7L376.2,962.8L386.6,949.9L385.5,948.1L377.7,944.0L376.6,942.4L374.6,935.6L372.7,932.6L363.6,922.4L363.2,921.4L364.0,918.4L371.0,915.7L375.1,911.8L375.9,910.4L378.0,909.4L381.9,911.1L390.8,916.4L397.2,922.1L400.6,923.6L407.6,925.3L411.4,928.0L414.5,931.2L421.0,939.6L422.8,937.1L418.6,928.8L418.4,927.1L420.9,922.5L424.3,921.7L430.0,923.0L438.8,929.1L446.1,927.6L448.3,925.9L448.6,922.8L449.4,921.8L454.4,923.2L456.2,924.6L465.7,934.1L468.5,934.7L475.1,934.4L483.0,939.3L488.0,941.2L495.7,940.6L499.5,943.0L503.1,947.9L504.4,951.7L507.8,956.4L511.5,959.3L519.1,964.2L520.8,965.1L532.7,967.5L534.3,968.9L549.8,984.7L551.8,987.7L557.3,997.6L573.9,1002.3L579.5,1002.3L580.7,1000.2L578.6,994.7L572.4,987.6L570.9,984.1L571.8,981.1L576.0,980.1L589.2,986.4L595.5,986.9L602.6,986.1L605.8,983.8L602.7,980.1L600.2,978.4L594.4,973.1L591.2,969.1L588.4,966.6L581.4,962.1L570.2,951.5L567.0,947.4L566.1,945.5L565.3,940.3L566.4,938.6L569.9,939.2L576.7,944.3L582.2,946.3L588.4,946.0L596.8,943.5L602.0,944.3L612.9,949.6L619.9,950.7L627.3,953.6L642.0,961.9L645.6,963.7L650.3,964.3L661.0,962.9L658.2,952.5L659.4,946.8L665.6,942.4L666.2,941.3L663.0,936.4L652.8,929.1L647.3,926.9Z " data-id="KP.PN" data-name="P'yŏngan-namdo" id="KP.PN"/>
utf-8utf-8<path d="M631.8,232.7L612.0,231.8L612.2,236.0L607.5,237.1L591.9,236.0L590.2,236.8L589.3,238.5L588.7,242.3L587.3,243.1L582.2,241.4L575.6,244.3L572.6,243.9L563.9,240.8L554.8,241.3L549.0,238.3L543.5,236.9L522.2,235.4L494.6,243.5L485.5,243.7L482.2,244.8L481.5,248.2L483.4,251.8L499.4,272.4L503.2,276.2L507.1,279.6L515.0,281.6L518.9,286.2L537.9,302.6L543.0,307.7L547.0,313.0L555.0,317.6L566.0,323.3L572.6,325.5L578.6,329.6L584.0,334.5L586.9,338.9L593.9,344.1L596.2,353.5L595.3,387.5L591.3,394.3L582.4,393.7L583.3,390.2L579.5,388.7L577.9,391.3L573.1,391.4L568.2,388.9L565.9,383.6L559.8,385.4L557.5,382.7L552.7,374.0L549.0,371.4L548.0,375.5L546.4,376.4L537.5,371.4L530.0,372.5L526.3,373.8L525.4,375.5L526.3,379.5L523.9,381.0L519.5,380.3L514.4,378.0L510.2,379.6L490.9,379.1L484.3,377.2L483.4,377.3L483.1,380.6L481.7,381.3L470.7,376.4L461.8,374.5L457.5,371.9L454.0,366.4L451.6,368.1L447.5,367.2L443.0,365.4L439.2,364.6L436.3,365.6L431.9,368.4L427.3,368.1L422.3,365.3L420.0,364.6L414.1,366.4L405.8,365.6L397.1,363.1L399.4,359.8L398.2,358.1L396.0,356.8L392.1,358.1L389.0,357.5L382.7,354.4L379.0,353.2L378.1,354.1L378.4,359.1L377.5,360.2L372.9,357.4L370.8,356.9L367.7,359.0L365.1,356.7L359.6,355.3L359.7,350.8L361.5,347.5L364.5,345.3L368.0,343.7L363.9,341.3L351.3,337.6L347.7,337.1L347.2,333.7L339.8,331.4L335.7,329.6L332.4,327.1L329.5,323.6L328.9,321.3L330.4,320.2L334.0,320.5L330.6,317.4L322.7,311.2L320.0,308.0L318.2,308.2L308.6,303.3L308.7,310.9L309.3,317.3L312.2,324.7L315.7,330.4L325.2,343.1L325.6,346.7L323.6,348.8L321.0,350.3L319.2,352.6L319.3,358.7L318.6,360.7L315.5,361.5L309.2,360.7L307.0,361.3L306.2,363.8L307.4,366.9L310.2,370.8L313.5,374.5L316.4,377.1L321.6,379.9L325.1,379.8L330.7,376.7L336.7,377.0L338.9,379.0L339.5,380.9L338.4,383.5L340.1,386.7L346.9,392.3L353.9,400.3L360.1,408.7L364.9,413.5L374.5,418.5L378.1,422.3L378.9,426.2L379.9,427.8L387.4,433.0L390.0,436.0L394.9,442.8L400.1,447.5L405.5,450.6L421.1,457.6L424.2,458.4L430.7,459.0L439.7,461.1L442.2,460.7L445.0,458.4L445.7,455.2L445.7,451.5L446.5,448.0L449.4,445.0L454.1,443.1L459.9,443.1L465.9,446.0L470.3,450.6L474.8,456.8L478.8,463.3L481.5,468.5L490.8,470.2L499.5,470.8L502.7,469.5L503.3,466.6L502.2,462.5L500.3,457.7L499.5,450.5L503.7,448.5L518.8,451.1L527.9,454.4L533.9,460.4L538.1,468.3L542.0,477.5L543.1,481.0L543.0,483.7L541.8,485.6L539.4,486.6L533.6,487.0L531.7,488.4L534.2,491.3L543.3,498.6L547.4,504.9L547.2,510.5L539.8,519.5L538.4,522.1L538.3,524.8L540.4,527.9L547.8,530.0L552.0,532.4L554.9,535.5L559.6,542.0L562.3,545.0L577.9,558.4L581.6,561.2L591.0,565.7L594.8,569.3L601.1,578.3L604.4,582.2L607.2,584.6L615.2,587.3L621.7,587.5L624.8,588.6L624.4,594.0L625.7,596.4L630.4,602.6L631.7,605.9L631.6,608.0L630.0,612.0L630.0,614.9L630.9,617.9L634.4,624.6L637.2,629.2L639.8,631.7L642.5,632.3L645.6,631.4L654.8,624.4L665.8,610.8L666.7,607.6L666.4,603.8L665.0,596.6L665.5,593.9L667.1,591.7L680.0,586.5L683.0,586.3L686.3,587.0L689.8,588.8L697.6,593.5L704.7,596.1L710.2,595.4L712.7,590.5L714.4,579.1L715.7,575.8L721.0,568.3L721.7,565.2L721.0,562.3L716.9,552.9L716.5,550.0L716.8,545.0L716.6,542.2L715.4,537.9L713.6,533.7L709.3,525.0L707.6,520.7L705.5,512.4L703.8,508.4L698.7,501.9L691.8,494.3L687.1,487.8L688.4,484.2L694.7,484.0L702.4,484.5L709.3,484.1L713.6,481.4L714.4,478.4L714.2,471.5L714.7,468.5L716.9,466.5L723.6,463.8L724.6,461.2L720.0,449.9L718.0,446.9L717.0,443.9L719.9,443.6L729.7,446.1L732.0,446.0L736.1,444.7L739.0,444.4L742.5,445.2L768.6,454.1L778.7,458.4L787.6,464.4L786.6,457.8L780.8,451.4L773.8,444.8L768.9,437.7L768.4,434.4L769.1,427.9L767.7,424.1L764.5,420.4L760.5,417.6L752.2,412.6L736.0,399.4L728.4,391.8L722.3,383.7L720.0,375.8L722.4,370.8L725.8,366.4L726.1,360.2L721.9,353.4L714.7,346.4L706.4,340.6L699.1,337.3L688.0,336.4L684.5,334.9L681.8,332.1L683.0,327.3L682.4,324.0L680.3,321.2L674.7,316.7L672.0,314.0L669.7,310.7L664.7,302.4L660.6,292.7L658.8,290.1L656.0,288.0L654.1,287.9L650.2,289.4L648.3,289.0L644.9,285.2L642.4,281.1L638.9,276.8L632.7,270.4L627.2,262.9L629.4,262.1L635.8,264.1L638.5,263.9L639.6,262.4L639.4,255.5L640.8,251.8L646.8,246.9L648.4,243.3L647.7,238.1L647.0,236.0L631.8,232.7Z " data-id="KP.YG" data-name="Ryanggang" id="KP.YG"/>
utf-8utf-8<path d="M910.1,205.4L907.6,202.2L904.4,200.5L904.2,204.3L908.9,208.0L910.1,205.4Z M885.8,110.8L891.8,122.0L896.1,134.1L889.8,137.9L877.3,141.6L867.0,142.6L870.2,149.1L877.7,153.8L881.8,163.2L878.3,175.4L879.6,186.7L890.6,201.4L893.0,201.2L894.7,199.3L895.8,193.8L899.8,186.1L902.5,186.3L906.7,190.5L908.3,195.6L910.2,199.1L912.3,198.7L913.7,197.1L911.3,191.7L914.3,191.2L913.9,188.0L915.7,187.3L912.1,184.5L911.9,181.6L913.6,181.1L918.6,184.4L920.4,184.8L920.3,183.1L918.7,180.4L915.3,179.6L913.3,178.0L909.9,173.1L911.9,169.2L909.7,165.0L912.1,165.1L915.5,166.6L918.5,168.7L921.4,168.1L922.5,165.6L919.9,162.6L922.2,161.4L928.6,162.3L931.6,164.3L937.2,166.5L943.5,167.3L951.1,171.4L956.8,179.9L957.9,179.8L959.2,177.6L961.9,177.1L972.5,173.6L972.5,172.1L964.8,168.3L961.4,166.0L958.9,162.8L955.3,156.7L951.0,150.9L946.2,146.6L940.8,143.3L935.4,141.9L930.0,139.1L925.6,135.8L916.9,126.9L912.5,123.9L910.6,121.2L904.3,115.4L900.4,110.9L893.5,101.4L891.3,98.8L886.6,96.1L883.3,96.3L881.4,98.6L881.1,102.2L886.6,106.0L888.1,109.5L885.9,110.9L885.8,110.8Z " data-id="KP.NJ" data-name="Rasŏn" id="KP.NJ"/>
utf-8</g>
</svg>
