<?xml version="1.0" ?>
<!DOCTYPE svg
  PUBLIC '-//W3C//DTD SVG 1.1//EN'
  'http://www.w3.org/Graphics/SVG/1.1/DTD/svg11.dtd'>
<svg enable_background="new 0 0 1000 1593" height="1593px" pretty_print="True" style="stroke-linejoin: round; stroke:#000; fill: none;" version="1.1" viewBox="0 0 1000 1593" width="1000px" xmlns="http://www.w3.org/2000/svg" xmlns:xlink="http://www.w3.org/1999/xlink">
utf-8<defs>
utf-8utf-8<style type="text/css">
<![CDATA[path { fill-rule: evenodd; }]]>utf-8utf-8</style>
utf-8</defs>
utf-8<metadata>
utf-8utf-8<views>
utf-8utf-8utf-8<view h="1593.91696546" padding="0" w="1000">
utf-8utf-8utf-8utf-8<proj flip="auto" id="robinson" lon0="127.538328612"/>
utf-8utf-8utf-8utf-8<bbox h="92.19" w="57.87" x="1746.01" y="-648.69"/>
utf-8utf-8utf-8</view>
utf-8utf-8</views>
utf-8</metadata>
utf-8<g class="" id="provinces">
utf-8utf-8<path d="M600.9,468.3L595.1,466.2L588.7,465.5L581.9,464.3L573.8,460.3L566.2,456.0L560.5,456.0L555.5,457.9L550.8,458.8L546.6,459.1L543.1,455.2L536.1,450.3L534.6,446.1L531.1,443.6L520.3,444.8L514.1,447.2L512.4,448.2L510.2,448.2L506.0,446.3L502.1,443.4L503.3,437.2L507.9,432.3L507.8,426.1L502.9,424.8L488.3,422.7L472.8,418.0L469.3,422.3L465.7,424.7L459.4,423.5L456.3,427.2L450.4,431.5L443.3,433.4L438.5,429.3L435.6,423.0L422.1,413.5L411.8,417.5L409.8,423.0L417.7,437.3L414.4,440.6L412.5,444.1L407.5,441.9L399.9,441.4L393.4,443.1L388.9,428.9L365.1,432.3L343.0,439.1L342.7,442.3L342.1,445.1L339.6,447.9L337.4,473.7L333.3,477.8L331.1,476.0L326.0,475.1L324.1,479.0L324.3,483.9L323.1,487.6L318.2,490.2L316.2,494.3L318.0,503.0L311.2,505.7L303.2,510.5L293.9,513.6L297.8,518.0L301.9,520.9L306.0,522.8L313.8,530.9L317.9,533.1L320.4,539.2L323.2,541.0L326.1,544.0L328.1,547.3L329.0,550.6L330.8,559.5L330.6,561.8L328.7,562.4L326.2,562.0L325.2,564.2L324.0,572.8L321.7,582.4L321.5,592.4L324.2,597.4L324.9,605.9L327.9,614.9L343.9,611.4L362.7,612.6L363.9,615.8L364.5,620.8L367.9,625.7L368.8,628.7L369.1,631.6L369.5,633.9L371.3,636.0L373.9,637.9L376.4,638.9L379.3,642.2L380.7,647.4L388.8,649.4L395.8,647.7L396.8,643.7L400.5,644.5L401.6,647.9L405.2,649.4L407.9,654.7L413.9,662.5L415.2,658.3L417.9,655.4L425.4,657.9L426.8,663.0L424.2,665.9L423.7,670.3L423.7,675.3L422.6,685.0L424.7,696.4L427.9,704.5L432.3,712.9L439.3,711.3L447.5,713.6L456.8,718.1L463.1,726.9L467.3,737.1L473.8,747.2L482.5,755.8L491.7,764.3L494.8,766.7L498.0,768.8L499.8,768.3L500.4,766.3L505.5,768.6L511.0,772.9L523.3,776.4L526.7,779.2L531.1,780.3L536.7,775.6L543.8,771.6L548.8,774.9L553.2,776.8L555.0,774.0L556.7,770.8L561.2,768.0L566.4,765.9L566.9,758.7L565.6,751.2L566.0,747.9L567.1,745.1L565.5,740.2L563.6,736.2L558.8,728.3L562.4,723.3L568.6,724.4L573.9,724.7L564.3,709.3L557.1,705.3L546.2,708.3L540.5,706.1L531.2,700.4L524.6,698.5L516.0,700.8L508.3,686.8L511.6,682.2L512.0,675.4L507.3,670.8L503.5,665.7L501.8,658.6L495.6,642.5L494.9,635.8L497.4,631.5L478.1,614.7L468.0,613.1L462.3,606.3L465.1,604.7L468.3,604.1L470.1,600.4L472.3,593.2L472.3,590.2L470.9,587.4L469.9,583.9L475.1,578.9L481.7,575.0L483.4,567.3L494.3,571.2L512.5,573.9L506.0,567.3L498.8,561.4L497.7,555.4L497.8,548.9L498.5,544.1L503.4,546.6L508.0,546.2L509.6,540.9L512.5,538.3L517.5,540.8L526.0,543.4L533.2,543.9L531.7,534.4L532.5,530.5L534.2,527.5L538.9,531.0L544.1,533.8L552.0,538.6L558.8,545.7L568.6,548.5L584.8,540.2L583.1,528.6L578.6,525.7L575.6,522.8L576.1,517.3L576.1,511.8L578.0,504.3L583.0,499.1L583.4,495.4L585.2,492.9L589.5,491.4L591.7,487.6L595.5,482.6L598.3,476.8L600.0,475.4L603.3,476.4L605.7,474.6L607.1,471.3L600.9,468.3Z " data-id="KR.GB" data-name="North Chungcheong" id="KR.GB"/>
utf-8utf-8<path d="M0.0,341.7L3.9,344.3L5.1,345.9L4.3,347.4L9.3,348.8L12.2,346.6L17.6,349.7L20.2,353.3L25.9,353.8L32.8,346.1L33.1,343.2L34.9,340.5L41.4,337.0L43.4,337.3L47.1,336.3L49.8,333.2L46.6,329.7L41.8,326.1L39.4,325.2L31.6,323.0L27.5,320.3L24.7,321.5L26.1,328.1L22.4,330.6L17.1,330.5L9.7,331.3L2.4,338.8L0.0,337.8L0.0,341.7Z M48.9,323.0L51.9,328.4L54.5,331.3L59.2,330.8L58.9,328.2L62.5,329.1L63.1,331.6L61.5,332.6L55.6,334.6L55.1,338.6L57.8,342.8L59.8,348.2L70.0,352.5L73.5,355.8L72.5,360.5L72.5,365.9L80.6,370.4L83.0,363.1L96.3,364.6L97.9,366.6L104.4,364.5L107.7,360.9L108.1,354.5L107.0,347.2L103.0,343.5L98.1,341.1L92.8,335.3L89.6,328.3L69.4,315.1L46.7,315.9L48.9,323.0Z " data-id="KR.IN" data-name="Incheon" id="KR.IN"/>
utf-8utf-8<path d="M41.1,120.6L46.9,122.8L62.3,130.2L66.5,134.8L70.1,136.8L73.4,139.4L77.4,144.2L81.8,147.9L84.6,147.6L88.7,150.4L100.1,157.5L110.7,161.5L111.6,156.8L107.0,147.1L106.2,144.1L107.1,142.2L109.3,143.3L113.4,149.0L119.6,152.2L124.6,151.3L126.5,147.8L127.7,143.8L132.8,142.7L134.9,143.9L134.5,147.8L135.1,153.1L137.9,158.6L143.3,161.9L148.0,164.1L158.1,166.3L166.4,162.8L171.8,165.6L175.7,163.9L178.0,165.3L183.6,172.2L191.4,186.1L198.0,193.8L206.2,198.2L211.7,197.9L217.1,198.1L224.5,206.8L229.9,208.8L234.9,209.7L244.6,218.2L249.0,230.1L248.2,234.2L244.0,235.8L236.1,244.5L241.0,253.8L241.5,257.8L245.9,263.1L249.6,268.4L246.4,276.4L250.9,280.0L256.3,278.0L259.0,284.0L260.7,289.8L260.5,294.8L262.4,299.6L269.7,304.0L275.2,302.0L282.2,303.0L290.0,306.8L297.2,309.3L314.0,316.5L322.5,317.6L329.3,319.8L335.3,320.4L340.2,323.4L345.1,327.9L345.0,333.1L341.2,335.1L339.2,340.4L338.6,345.7L343.1,352.3L344.3,359.0L343.9,389.8L345.1,415.5L343.0,439.1L365.1,432.3L388.9,428.9L393.4,443.1L399.9,441.4L407.5,441.9L412.5,444.1L414.4,440.6L417.7,437.3L409.8,423.0L411.8,417.5L422.1,413.5L435.6,423.0L438.5,429.3L443.3,433.4L450.4,431.5L456.3,427.2L459.4,423.5L465.7,424.7L469.3,422.3L472.8,418.0L488.3,422.7L502.9,424.8L507.8,426.1L507.9,432.3L503.3,437.2L502.1,443.4L506.0,446.3L510.2,448.2L512.4,448.2L514.1,447.2L520.3,444.8L531.1,443.6L534.6,446.1L536.1,450.3L543.1,455.2L546.6,459.1L550.8,458.8L555.5,457.9L560.5,456.0L566.2,456.0L573.8,460.3L581.9,464.3L588.7,465.5L595.1,466.2L600.9,468.3L607.1,471.3L614.7,474.5L621.8,477.0L629.6,478.5L636.0,479.1L634.5,472.8L632.1,466.0L627.2,458.7L629.1,453.5L634.2,450.5L641.0,451.0L647.0,456.8L652.1,457.8L657.2,459.9L659.0,465.0L661.9,470.2L667.8,467.4L672.2,462.2L675.7,463.4L678.9,466.1L681.7,466.4L684.3,465.1L694.4,466.7L705.0,470.7L710.5,469.1L715.5,465.7L724.5,467.6L734.0,472.0L739.5,478.8L735.8,483.0L727.5,480.3L723.8,481.9L721.2,485.0L722.8,492.3L728.3,501.9L736.6,509.2L746.1,512.9L750.8,519.2L755.5,524.6L762.1,527.0L768.5,529.8L786.7,531.1L788.8,537.8L794.6,542.0L795.4,549.4L795.8,557.2L800.2,565.5L805.7,572.8L809.4,579.4L810.0,586.4L829.3,592.5L835.5,589.1L844.3,590.9L846.7,591.0L845.6,578.9L846.3,568.7L843.6,557.4L837.4,545.2L818.1,520.3L810.2,508.2L796.0,481.8L790.0,472.6L788.8,469.7L788.7,466.5L789.4,463.3L789.2,459.9L786.6,456.3L766.6,439.5L756.4,427.2L742.7,404.9L734.2,394.6L716.9,382.2L713.1,377.6L710.0,372.9L705.7,368.5L695.4,360.4L674.7,339.4L670.0,336.2L665.3,334.1L659.8,328.9L642.3,306.6L637.5,301.7L626.9,297.1L622.5,291.0L619.0,283.7L615.5,277.7L596.4,263.4L592.8,261.4L564.8,241.3L538.9,219.4L472.7,164.1L465.2,155.5L451.7,145.2L446.8,140.6L409.9,98.3L369.3,58.1L356.8,44.0L350.0,34.7L314.8,0.0L304.7,6.7L300.6,11.7L301.0,15.5L304.0,20.6L311.0,30.6L315.0,41.0L316.4,50.0L315.8,58.2L314.0,65.8L307.6,78.6L297.0,88.2L283.5,93.8L267.9,95.0L242.3,93.6L228.1,96.8L224.4,96.0L220.1,93.2L215.0,88.9L212.5,87.6L168.5,91.5L156.5,95.6L149.7,96.3L123.9,89.6L95.8,92.1L87.9,91.3L73.3,92.9L60.4,99.2L49.7,108.4L41.7,118.9L41.1,120.6Z " data-id="KR.KW" data-name="Gangwon" id="KR.KW"/>
utf-8utf-8<path d="M167.0,307.1L163.5,300.0L158.0,293.4L152.0,284.0L144.7,277.1L135.8,276.4L129.2,278.2L126.7,283.2L126.6,290.1L124.3,297.0L114.1,298.0L114.9,302.7L116.9,307.7L113.2,310.7L108.4,312.6L98.7,308.1L91.8,307.6L91.7,315.2L100.5,322.0L108.3,328.6L113.5,337.0L119.6,340.1L127.5,342.1L138.7,351.2L149.1,351.5L153.1,350.8L156.2,348.5L161.3,346.7L166.6,345.3L172.2,351.5L177.6,348.0L183.7,346.5L188.2,342.9L188.7,339.0L190.3,333.5L187.4,331.4L184.8,326.1L189.9,322.0L188.5,317.7L184.7,313.4L179.9,313.4L175.2,315.4L168.7,315.5L167.0,307.1Z " data-id="KR.SO" data-name="Seoul" id="KR.SO"/>
utf-8utf-8<path d="M58.4,406.6L57.9,402.8L60.1,402.0L60.6,400.8L58.0,397.2L54.8,395.6L49.1,395.1L45.9,397.3L45.2,400.0L46.5,403.8L48.7,407.5L50.7,408.5L52.6,408.3L55.0,409.6L57.4,409.0L58.4,406.6Z M76.2,395.6L75.7,393.0L74.9,392.8L72.8,395.7L68.1,393.8L67.8,394.4L73.6,399.4L76.9,403.7L78.4,407.3L76.9,410.8L78.7,412.5L79.3,414.5L78.3,418.0L78.9,419.4L84.1,418.8L91.9,409.2L92.0,406.5L87.2,401.3L78.3,397.9L76.2,395.6Z M0.0,300.0L5.6,299.7L7.8,297.7L10.1,298.7L13.9,301.4L17.3,301.9L18.8,299.8L18.6,293.6L20.8,291.8L16.7,287.3L14.6,285.8L14.2,283.3L8.5,272.7L7.0,270.5L2.9,266.5L1.5,264.5L0.0,257.9L0.0,300.0Z M39.9,124.2L41.1,143.6L39.3,148.0L33.4,155.0L31.2,159.1L25.2,189.4L19.2,196.7L14.2,199.0L10.0,199.5L8.1,201.5L10.1,208.5L26.2,231.4L28.4,231.1L31.2,233.3L30.9,238.0L32.6,243.9L35.8,249.8L40.2,254.4L43.2,258.8L45.0,265.1L45.9,275.5L64.1,285.2L70.7,289.8L64.8,289.4L53.7,285.6L43.6,279.6L40.5,272.7L40.0,268.9L37.8,263.3L34.8,257.9L32.0,254.4L27.8,252.3L25.0,252.9L22.3,254.5L18.5,255.4L3.2,250.8L0.3,251.4L1.2,255.4L16.0,279.6L22.8,288.8L26.6,294.8L28.5,298.8L32.4,301.4L40.5,308.9L44.4,313.3L46.7,315.9L69.4,315.1L89.6,328.3L92.8,335.3L98.1,341.1L103.0,343.5L107.0,347.2L108.1,354.5L107.7,360.9L104.4,364.5L97.9,366.6L96.2,369.8L94.6,376.4L96.7,379.8L110.6,387.6L119.2,389.9L127.1,390.9L129.5,390.0L133.4,390.7L135.9,392.9L139.2,392.8L146.4,396.4L148.6,398.8L143.7,399.6L139.0,397.4L135.4,396.9L134.1,402.9L135.8,409.2L135.9,412.0L133.9,412.9L131.1,411.8L128.8,409.3L125.8,402.9L123.0,404.6L119.4,403.6L115.3,401.7L111.1,400.7L107.0,401.8L104.4,402.0L102.0,400.7L99.8,402.9L109.9,413.7L112.6,414.9L118.6,414.1L119.8,415.1L118.7,419.0L114.1,421.4L111.9,423.1L112.0,426.1L114.6,430.1L117.1,430.8L123.4,429.2L122.1,434.1L121.8,436.8L123.0,439.5L125.2,441.0L127.8,441.1L130.1,440.1L131.6,438.4L135.9,429.3L139.1,426.0L143.4,423.2L145.1,426.8L147.3,429.1L150.2,430.4L153.6,431.1L156.6,426.8L159.1,425.0L161.1,426.1L163.2,431.6L162.8,433.5L157.1,435.3L151.1,435.4L144.8,438.7L143.5,443.2L143.0,448.2L145.8,453.2L146.7,457.2L149.1,460.1L150.5,463.5L163.0,466.7L171.2,464.6L174.5,466.9L176.2,465.7L175.0,460.5L173.3,455.8L172.4,451.1L173.3,448.4L176.5,449.6L178.3,457.4L183.3,463.1L188.8,468.1L192.4,473.7L189.6,472.1L184.3,471.2L181.8,471.6L186.8,475.6L173.2,477.1L180.0,485.0L192.2,493.2L204.1,498.7L212.5,499.7L217.3,497.9L218.1,495.9L213.2,486.8L214.0,483.7L226.5,479.8L227.4,483.2L224.3,484.5L221.8,486.4L219.3,486.5L218.6,487.7L223.6,491.9L225.2,499.0L223.9,501.9L221.1,503.6L219.1,505.9L231.3,508.2L240.7,508.2L256.8,499.8L269.2,504.4L281.9,512.1L293.9,513.6L303.2,510.5L311.2,505.7L318.0,503.0L316.2,494.3L318.2,490.2L323.1,487.6L324.3,483.9L324.1,479.0L326.0,475.1L331.1,476.0L333.3,477.8L337.4,473.7L339.6,447.9L342.1,445.1L342.7,442.3L343.0,439.1L345.1,415.5L343.9,389.8L344.3,359.0L343.1,352.3L338.6,345.7L339.2,340.4L341.2,335.1L345.0,333.1L345.1,327.9L340.2,323.4L335.3,320.4L329.3,319.8L322.5,317.6L314.0,316.5L297.2,309.3L290.0,306.8L282.2,303.0L275.2,302.0L269.7,304.0L262.4,299.6L260.5,294.8L260.7,289.8L259.0,284.0L256.3,278.0L250.9,280.0L246.4,276.4L249.6,268.4L245.9,263.1L241.5,257.8L241.0,253.8L236.1,244.5L244.0,235.8L248.2,234.2L249.0,230.1L244.6,218.2L234.9,209.7L229.9,208.8L224.5,206.8L217.1,198.1L211.7,197.9L206.2,198.2L198.0,193.8L191.4,186.1L183.6,172.2L178.0,165.3L175.7,163.9L171.8,165.6L166.4,162.8L158.1,166.3L148.0,164.1L143.3,161.9L137.9,158.6L135.1,153.1L134.5,147.8L134.9,143.9L132.8,142.7L127.7,143.8L126.5,147.8L124.6,151.3L119.6,152.2L113.4,149.0L109.3,143.3L107.1,142.2L106.2,144.1L107.0,147.1L111.6,156.8L110.7,161.5L100.1,157.5L88.7,150.4L84.6,147.6L81.8,147.9L77.4,144.2L73.4,139.4L70.1,136.8L66.5,134.8L62.3,130.2L46.9,122.8L41.1,120.6L39.9,124.2Z M126.7,283.2L129.2,278.2L135.8,276.4L144.7,277.1L152.0,284.0L158.0,293.4L163.5,300.0L167.0,307.1L168.7,315.5L175.2,315.4L179.9,313.4L184.7,313.4L188.5,317.7L189.9,322.0L184.8,326.1L187.4,331.4L190.3,333.5L188.7,339.0L188.2,342.9L183.7,346.5L177.6,348.0L172.2,351.5L166.6,345.3L161.3,346.7L156.2,348.5L153.1,350.8L149.1,351.5L138.7,351.2L127.5,342.1L119.6,340.1L113.5,337.0L108.3,328.6L100.5,322.0L91.7,315.2L91.8,307.6L98.7,308.1L108.4,312.6L113.2,310.7L116.9,307.7L114.9,302.7L114.1,298.0L124.3,297.0L126.6,290.1L126.7,283.2Z " data-id="KR.KG" data-name="Gyeonggi" id="KR.KG"/>
utf-8utf-8<path d="M229.3,885.9L227.5,886.1L226.3,887.5L222.3,887.0L223.4,888.6L220.0,891.3L221.8,893.2L219.8,894.5L220.2,896.4L223.3,899.4L226.3,897.0L227.8,893.7L230.6,889.8L230.6,887.7L229.3,885.9Z M295.7,759.0L307.8,754.7L309.3,759.0L306.0,762.3L296.7,766.8L290.8,773.5L286.9,776.0L282.2,774.8L279.3,777.2L267.7,777.9L256.5,779.3L235.7,781.7L240.6,790.5L250.5,788.9L258.7,791.3L261.8,793.3L265.5,800.2L267.8,805.3L291.7,807.0L297.5,806.7L312.0,799.6L312.6,799.0L315.8,800.0L319.4,802.3L321.6,804.4L320.9,805.4L317.9,805.9L317.4,812.3L315.8,813.4L312.9,813.6L299.1,812.8L297.2,813.3L295.9,814.9L295.1,817.6L295.5,820.2L298.2,821.3L310.6,828.0L316.2,830.3L323.4,834.4L324.6,837.9L325.2,843.6L320.8,839.2L316.5,838.2L309.4,834.1L300.5,833.1L292.2,834.0L286.6,839.1L289.4,847.9L286.7,857.3L279.9,862.1L274.5,866.3L272.2,871.5L269.4,876.3L265.0,879.1L268.8,890.2L283.9,897.6L315.6,892.0L320.1,894.1L324.5,899.1L332.4,910.1L328.7,909.0L321.9,903.6L315.6,898.8L311.3,900.0L310.0,904.9L307.7,907.7L300.2,908.1L292.1,910.0L285.4,912.8L283.3,920.6L283.3,935.8L282.8,944.4L284.0,951.4L286.6,954.5L291.5,958.3L295.8,956.7L316.4,950.1L324.2,952.0L327.4,962.8L329.2,970.7L332.2,978.6L339.1,980.6L345.5,978.9L352.0,976.1L359.5,974.9L364.3,970.4L367.9,969.2L371.1,967.3L373.1,964.6L373.3,960.4L370.0,954.2L372.1,952.0L372.9,948.7L369.3,940.7L373.0,935.3L381.5,936.1L383.5,931.4L388.0,931.7L393.0,933.5L402.9,939.5L420.7,954.7L428.1,954.6L426.9,950.4L426.8,946.6L428.2,944.3L428.6,941.3L435.6,940.9L443.6,948.3L445.1,956.7L448.9,962.2L456.1,967.7L460.0,977.4L468.4,983.6L477.9,984.9L483.1,980.8L489.9,979.6L494.9,979.6L498.7,978.6L503.5,981.4L508.7,983.8L517.6,983.9L525.8,982.8L533.8,982.7L540.9,981.6L544.7,974.1L551.3,969.3L569.1,974.8L587.6,985.9L590.4,980.7L587.7,973.5L585.9,965.6L590.8,953.6L588.7,945.6L584.3,943.3L579.4,937.7L576.6,930.2L570.9,923.2L566.6,916.3L559.3,913.7L556.3,906.3L556.7,899.5L554.8,890.3L553.8,881.4L554.5,874.5L554.7,867.9L551.4,858.8L550.7,851.1L554.1,846.3L557.0,840.9L557.2,831.1L558.9,829.6L562.4,830.0L567.5,828.1L576.7,821.8L576.3,815.6L581.0,806.3L573.8,787.5L556.7,770.8L555.0,774.0L553.2,776.8L548.8,774.9L543.8,771.6L536.7,775.6L531.1,780.3L526.7,779.2L523.3,776.4L511.0,772.9L505.5,768.6L500.4,766.3L499.8,768.3L498.0,768.8L494.8,766.7L491.7,764.3L488.5,769.9L484.9,775.0L478.7,777.0L471.7,777.3L467.1,778.6L452.4,776.8L450.4,774.4L450.6,771.0L447.8,768.1L444.4,767.3L434.7,763.3L415.4,744.0L404.8,737.2L402.6,741.3L401.5,746.3L397.0,747.4L391.3,750.1L379.2,752.6L373.6,755.2L367.1,756.5L358.5,748.6L354.9,735.6L345.3,733.9L323.8,741.6L311.6,744.5L300.7,745.8L295.7,759.0L295.7,759.0Z " data-id="KR.CB" data-name="North Jeolla" id="KR.CB"/>
utf-8utf-8<path d="M425.7,992.3L420.0,994.3L414.3,995.7L404.7,993.5L401.5,998.4L414.3,1012.8L430.8,1020.6L446.6,1023.0L450.8,1010.4L440.1,997.0L425.7,992.3Z " data-id="KR.KJ" data-name="Gwangju" id="KR.KJ"/>
utf-8utf-8<path d="M141.9,631.5L135.9,629.3L135.1,627.4L140.1,627.4L136.3,623.8L132.9,622.2L130.7,620.0L130.7,617.6L128.8,614.8L120.7,605.7L119.6,603.7L120.8,602.2L120.9,600.1L119.7,598.2L114.2,593.2L110.3,594.7L107.8,598.6L107.0,601.3L113.1,609.6L117.1,616.1L122.8,626.9L124.6,634.0L126.5,632.7L128.8,635.3L130.4,631.5L132.9,633.3L131.2,639.2L132.4,643.7L135.6,644.9L139.7,641.3L139.9,644.0L138.3,647.2L140.9,651.6L144.6,652.2L155.0,651.6L157.8,652.6L154.4,648.0L149.0,643.1L144.7,637.6L141.9,631.5Z M295.7,759.0L300.7,745.8L311.6,744.5L323.8,741.6L345.3,733.9L354.9,735.6L358.5,748.6L367.1,756.5L373.6,755.2L379.2,752.6L391.3,750.1L397.0,747.4L401.5,746.3L402.6,741.3L404.8,737.2L415.4,744.0L434.7,763.3L444.4,767.3L447.8,768.1L450.6,771.0L450.4,774.4L452.4,776.8L467.1,778.6L471.7,777.3L478.7,777.0L484.9,775.0L488.5,769.9L491.7,764.3L482.5,755.8L473.8,747.2L467.3,737.1L463.1,726.9L456.8,718.1L447.5,713.6L439.3,711.3L432.3,712.9L427.9,704.5L424.7,696.4L422.6,685.0L423.7,675.3L423.7,670.3L424.2,665.9L426.8,663.0L425.4,657.9L417.9,655.4L415.2,658.3L413.9,662.5L415.8,669.4L414.9,674.5L417.1,687.2L413.0,692.2L410.1,693.4L403.1,701.1L392.6,704.2L380.6,688.1L369.9,666.8L361.8,658.3L340.1,638.4L325.7,642.8L302.0,638.6L301.4,632.4L303.5,628.9L282.8,584.2L281.6,568.9L321.7,582.4L324.0,572.8L325.2,564.2L326.2,562.0L328.7,562.4L330.6,561.8L330.8,559.5L329.0,550.6L328.1,547.3L326.1,544.0L323.2,541.0L320.4,539.2L317.9,533.1L313.8,530.9L306.0,522.8L301.9,520.9L297.8,518.0L293.9,513.6L281.9,512.1L269.2,504.4L256.8,499.8L240.7,508.2L231.3,508.2L219.1,505.9L216.0,509.4L207.5,513.5L203.4,514.2L199.5,516.4L204.2,521.3L216.5,530.4L211.1,529.7L205.7,528.3L211.0,535.7L211.6,539.9L211.1,543.9L212.6,550.5L206.6,546.8L204.8,544.3L208.2,543.1L207.7,540.5L201.6,531.3L197.8,527.7L196.3,525.3L194.2,517.2L189.9,508.7L186.9,504.4L184.1,502.0L181.9,502.4L180.0,508.1L177.9,510.0L175.9,497.3L172.7,490.9L165.4,485.8L160.0,483.1L153.5,481.6L148.2,479.9L143.8,479.4L140.1,479.5L137.0,481.3L136.4,490.3L140.6,497.5L141.0,502.2L139.1,504.0L137.8,499.1L136.3,496.4L131.9,491.9L130.5,489.8L131.6,487.1L130.9,483.1L126.7,479.0L117.6,474.7L114.9,472.8L102.6,466.3L97.8,463.3L93.2,461.5L88.8,461.7L91.4,466.2L96.7,473.0L103.8,477.6L109.3,479.8L113.1,480.6L115.6,482.5L116.3,484.5L114.6,485.8L111.6,485.8L108.7,484.7L105.8,482.9L99.9,478.2L96.4,475.9L94.2,475.6L94.8,478.8L96.3,479.6L117.8,494.9L121.0,497.9L125.8,503.9L128.5,506.2L129.3,508.0L125.9,507.8L123.2,505.9L117.5,499.7L111.3,495.2L107.5,493.3L107.0,494.9L109.1,501.8L111.1,515.9L113.4,523.3L113.2,524.7L111.0,523.7L108.1,521.0L105.5,517.2L99.6,504.0L99.4,496.8L97.5,494.9L94.1,490.4L91.8,490.4L89.7,491.8L88.6,493.9L84.9,489.1L84.8,485.8L85.9,483.2L86.1,480.8L82.5,476.9L77.6,475.4L68.9,475.6L69.9,477.8L71.9,480.0L71.4,480.9L69.2,480.5L63.2,477.5L60.9,477.9L59.2,479.5L58.5,481.8L62.7,481.5L66.9,482.6L69.8,485.3L70.3,489.9L65.7,487.4L65.0,488.4L67.0,491.1L70.6,493.9L74.2,495.1L80.6,495.2L83.0,495.9L87.0,500.8L89.1,507.4L88.2,512.9L83.0,514.2L83.9,516.1L89.3,518.0L91.4,518.3L92.2,520.1L85.3,523.3L85.7,526.5L82.6,525.0L76.6,520.1L75.4,523.0L80.1,529.6L89.8,540.2L80.8,535.6L77.8,535.6L75.4,539.3L74.0,540.1L72.1,538.5L68.7,533.3L72.3,529.7L73.0,528.3L68.8,522.8L67.5,520.1L67.8,517.5L69.1,515.1L69.3,512.3L62.8,504.6L58.9,498.1L55.8,491.7L54.7,487.7L49.9,489.4L52.1,496.6L56.7,505.6L59.3,512.2L58.9,514.9L57.8,515.9L51.9,516.1L48.3,515.4L46.8,513.4L45.1,506.2L40.2,508.2L37.6,511.6L39.0,515.7L46.4,520.1L45.3,526.4L47.4,530.1L51.9,531.7L58.2,532.2L58.0,535.7L55.5,536.4L47.8,534.4L52.4,538.9L56.4,542.4L50.5,541.3L49.7,542.4L42.5,535.0L40.4,532.2L41.2,538.6L38.5,546.3L38.7,548.3L42.4,555.5L45.4,562.9L47.4,565.3L49.0,562.8L48.9,559.4L46.3,552.0L45.9,548.5L50.2,551.0L54.5,552.1L59.0,553.9L63.6,558.6L65.7,563.0L63.9,564.7L54.0,564.6L53.4,565.8L58.5,572.7L62.1,574.3L69.1,572.7L73.0,570.9L75.8,563.0L79.1,560.6L84.5,568.6L84.9,574.4L97.1,585.8L97.0,593.0L98.6,594.7L102.2,601.1L102.9,598.0L104.4,595.5L106.7,593.7L110.0,593.0L103.6,587.6L102.1,585.1L103.8,582.9L100.0,578.1L92.6,571.2L88.3,566.6L93.8,566.5L93.9,563.1L92.4,558.4L92.9,554.5L96.4,553.8L100.4,556.9L102.9,564.4L106.2,565.7L107.3,571.4L113.3,587.4L119.2,590.4L124.0,590.6L129.9,594.0L130.9,591.3L130.5,584.7L126.0,577.0L125.2,571.2L122.7,566.2L119.8,563.7L118.6,559.5L121.7,557.9L124.7,552.5L133.3,560.6L128.1,561.5L127.9,565.1L131.3,570.0L137.5,571.1L141.6,575.2L139.4,577.9L138.5,581.3L144.1,585.1L147.2,585.7L150.2,588.2L150.2,591.4L151.5,595.0L146.4,594.8L142.6,597.0L139.4,597.3L142.4,600.6L145.9,605.7L147.3,608.4L147.3,610.9L149.7,613.6L156.3,617.0L160.1,615.4L161.6,617.0L160.9,620.5L158.4,626.3L159.8,629.7L163.6,635.2L168.2,640.7L171.9,643.6L175.3,642.8L177.1,635.2L179.7,633.3L193.6,633.3L190.1,635.8L181.4,638.5L179.8,645.2L175.5,646.7L172.2,649.0L178.7,655.7L175.6,655.7L176.4,657.7L183.5,662.8L185.6,663.9L193.5,663.9L197.7,664.9L201.0,668.8L200.1,671.9L190.6,674.5L188.4,677.8L193.0,679.7L204.5,682.8L208.6,686.1L206.1,688.4L205.9,694.4L206.9,708.2L213.6,713.0L215.0,711.9L216.8,712.2L220.3,714.2L223.4,716.5L229.5,722.3L218.1,719.4L211.9,721.7L205.6,725.8L208.4,734.4L210.7,735.9L209.7,728.4L214.0,727.7L221.0,731.1L222.5,734.4L224.0,734.4L226.4,732.6L231.4,734.4L241.0,743.8L248.4,746.1L250.7,748.0L248.6,750.7L252.3,754.3L258.7,759.6L262.0,762.8L266.5,769.2L268.6,771.2L273.0,773.0L277.1,770.8L282.1,769.9L285.6,767.7L288.0,763.9L291.4,760.5L295.7,759.0Z " data-id="KR.GN" data-name="South Chungcheong" id="KR.GN"/>
utf-8utf-8<path d="M363.4,631.2L349.7,635.4L340.1,638.4L361.8,658.3L369.9,666.8L380.6,688.1L392.6,704.2L403.1,701.1L410.1,693.4L413.0,692.2L417.1,687.2L414.9,674.5L415.8,669.4L413.9,662.5L407.9,654.7L405.2,649.4L401.6,647.9L400.5,644.5L396.8,643.7L395.8,647.7L388.8,649.4L380.7,647.4L379.3,642.2L376.4,638.9L373.9,637.9L371.3,636.0L369.5,633.9L369.1,631.6L363.4,631.2Z " data-id="KR.TJ" data-name="Daejeon" id="KR.TJ"/>
utf-8utf-8<path d="M786.8,813.7L786.0,809.0L781.1,799.3L777.6,797.2L774.4,794.3L771.0,786.8L771.3,784.9L770.4,782.5L765.0,777.2L752.2,770.2L739.9,771.0L725.5,773.1L718.4,782.4L725.8,795.8L723.7,800.3L723.7,806.1L728.6,807.3L729.6,813.0L726.0,813.6L722.4,813.7L721.1,818.3L725.0,823.7L729.3,825.2L734.3,828.6L739.6,834.1L752.2,841.2L753.3,839.7L754.1,833.7L756.4,831.0L764.5,831.8L780.0,835.4L783.9,832.2L782.6,827.5L782.3,821.6L780.5,817.2L784.7,817.5L786.8,813.7Z " data-id="KR.TG" data-name="Daegu" id="KR.TG"/>
utf-8utf-8<path d="M825.9,1174.6L825.1,1172.8L815.7,1168.7L814.3,1169.1L814.2,1173.0L814.7,1174.5L818.6,1176.5L820.1,1181.0L824.2,1178.2L830.7,1177.6L831.8,1174.7L830.6,1172.5L827.0,1174.7L825.9,1174.6Z M828.2,1118.9L824.4,1116.7L820.0,1115.2L817.5,1115.9L816.5,1118.1L817.8,1120.0L821.9,1119.2L826.9,1120.7L830.0,1122.5L830.5,1124.8L829.0,1126.6L830.5,1127.5L833.8,1128.0L835.2,1129.9L835.6,1131.8L837.6,1131.9L842.3,1136.4L846.2,1136.3L847.6,1131.5L843.1,1128.2L846.0,1129.1L846.3,1127.4L844.8,1126.0L845.0,1123.6L842.8,1119.9L839.5,1117.6L835.4,1117.8L830.2,1119.7L828.2,1118.9Z M797.8,1125.6L796.8,1123.5L800.3,1122.9L800.6,1121.3L798.3,1119.0L792.9,1115.0L789.6,1114.3L787.4,1116.7L787.3,1121.0L789.8,1123.3L797.5,1126.5L797.8,1125.6Z M734.2,1105.4L732.8,1102.7L731.9,1094.7L729.3,1091.5L725.9,1092.5L724.9,1095.3L724.5,1099.3L723.1,1103.6L723.3,1108.1L727.2,1112.3L731.7,1114.4L735.4,1114.9L740.6,1112.9L752.7,1115.8L755.0,1115.2L749.2,1110.4L745.8,1105.6L743.8,1102.1L739.0,1098.2L736.8,1098.6L735.9,1103.0L735.8,1106.2L734.2,1105.4Z M724.4,1118.4L718.5,1116.6L715.8,1115.2L713.3,1112.5L710.0,1107.4L708.2,1105.4L711.2,1099.8L711.7,1096.1L710.4,1092.2L707.0,1088.6L702.6,1085.7L698.5,1084.6L695.9,1086.1L693.4,1089.1L692.7,1091.0L694.4,1097.5L690.3,1100.1L689.8,1105.4L691.3,1110.5L694.4,1115.8L710.3,1137.4L714.8,1145.8L717.4,1148.4L720.2,1149.9L724.4,1151.1L727.7,1151.0L728.1,1148.4L726.3,1142.3L726.4,1137.4L728.6,1135.2L733.5,1137.4L741.2,1149.2L746.0,1154.9L749.7,1154.3L753.3,1152.3L757.8,1153.9L762.3,1156.0L765.7,1155.4L765.4,1152.4L760.9,1146.4L763.1,1143.9L761.8,1140.4L758.6,1134.4L757.7,1130.6L757.1,1124.5L754.5,1121.2L752.6,1120.6L743.9,1119.2L738.8,1120.4L733.8,1122.7L729.5,1123.6L724.4,1118.4Z M894.9,1080.3L891.4,1075.2L888.3,1064.3L887.0,1061.5L884.9,1059.0L879.9,1057.4L877.5,1060.3L878.4,1065.7L883.6,1071.0L870.8,1080.6L867.5,1080.2L869.8,1084.9L873.0,1089.9L877.5,1094.3L883.2,1097.2L884.0,1099.0L879.4,1098.7L871.4,1095.1L866.7,1093.4L864.2,1093.4L856.0,1095.2L853.4,1096.6L850.8,1098.9L848.9,1102.0L848.8,1105.4L851.9,1111.0L856.5,1115.2L861.6,1119.0L866.2,1123.2L868.7,1120.1L875.7,1116.3L876.8,1113.2L881.0,1115.2L881.9,1120.4L883.7,1124.9L883.4,1128.2L877.9,1129.4L877.1,1130.9L878.4,1134.3L880.9,1137.7L883.8,1139.2L889.6,1135.4L890.2,1139.7L891.5,1143.1L893.9,1145.7L898.0,1147.4L892.3,1153.3L897.4,1153.0L912.6,1147.6L915.0,1144.3L912.0,1142.0L907.3,1140.4L903.5,1138.2L903.3,1134.4L905.4,1129.5L904.2,1123.2L907.8,1125.2L913.3,1127.6L918.2,1129.0L919.7,1128.3L917.1,1123.8L911.2,1117.1L908.1,1113.2L912.0,1114.6L913.3,1112.5L912.8,1108.9L911.6,1105.4L909.2,1100.5L908.2,1099.9L906.5,1101.5L902.4,1103.2L901.9,1093.3L901.4,1089.8L899.8,1085.9L894.9,1080.3Z M915.9,1068.8L916.6,1066.7L915.0,1060.6L912.0,1053.2L908.7,1049.5L906.0,1048.8L903.3,1049.1L901.4,1050.5L901.7,1052.6L905.8,1057.4L906.4,1059.4L910.3,1062.9L913.7,1068.0L915.9,1068.8Z M581.0,806.3L576.3,815.6L576.7,821.8L567.5,828.1L562.4,830.0L558.9,829.6L557.2,831.1L557.0,840.9L554.1,846.3L550.7,851.1L551.4,858.8L554.7,867.9L554.5,874.5L553.8,881.4L554.8,890.3L556.7,899.5L556.3,906.3L559.3,913.7L566.6,916.3L570.9,923.2L576.6,930.2L579.4,937.7L584.3,943.3L588.7,945.6L590.8,953.6L585.9,965.6L587.7,973.5L590.4,980.7L587.6,985.9L589.1,992.3L596.5,998.1L602.1,1005.6L609.8,1021.2L615.6,1027.0L623.4,1031.3L631.2,1037.0L635.9,1043.2L640.8,1048.6L662.8,1064.9L669.4,1072.8L671.7,1078.3L672.9,1079.6L672.9,1079.6L675.7,1080.3L680.6,1083.2L681.5,1081.8L688.8,1083.2L695.0,1082.6L698.1,1078.1L697.5,1070.7L694.2,1061.2L697.8,1063.3L700.6,1066.2L706.1,1073.2L710.7,1069.3L717.3,1069.4L719.4,1067.4L710.5,1057.0L716.1,1056.5L718.2,1052.6L719.1,1047.3L720.9,1042.8L722.2,1046.4L722.0,1053.0L723.1,1056.5L732.8,1078.2L734.4,1084.7L736.6,1087.1L739.0,1088.1L744.9,1088.6L748.7,1089.4L751.2,1088.9L756.3,1096.2L761.7,1098.7L772.7,1098.2L778.2,1099.0L776.2,1094.7L774.8,1090.2L774.6,1086.7L776.4,1085.2L782.1,1085.8L785.5,1087.5L793.6,1094.3L799.0,1094.0L799.7,1086.3L802.0,1082.5L812.1,1093.4L807.5,1095.6L805.7,1097.1L807.2,1099.5L812.7,1104.3L816.4,1105.5L832.1,1107.2L831.7,1109.2L825.3,1109.6L827.0,1114.1L834.5,1114.6L839.2,1113.0L841.9,1105.0L842.7,1099.0L837.8,1095.2L838.3,1098.1L837.6,1100.4L835.8,1101.1L832.7,1099.0L829.4,1087.1L825.2,1077.2L822.5,1074.7L818.0,1072.1L818.4,1069.2L822.1,1070.5L826.9,1070.7L831.3,1069.9L833.6,1068.2L833.9,1064.3L831.9,1061.0L828.9,1057.2L825.8,1052.0L821.9,1052.3L803.3,1065.0L802.4,1063.0L803.9,1060.4L802.6,1056.4L802.2,1052.7L810.6,1050.1L817.1,1045.9L821.2,1045.0L816.7,1041.1L815.7,1039.0L817.4,1038.0L824.7,1036.5L828.5,1036.7L843.4,1041.3L849.0,1045.0L853.0,1050.4L855.8,1051.0L860.7,1051.0L864.1,1049.0L856.6,1047.0L856.1,1043.1L854.3,1040.4L848.0,1035.0L844.4,1031.5L842.2,1028.7L837.2,1021.0L831.4,1014.6L830.1,1011.5L831.0,1006.8L832.7,1004.3L834.5,1005.1L840.2,1012.8L840.2,1015.0L844.8,1020.9L845.5,1025.0L849.5,1023.1L853.9,1025.7L858.8,1030.0L863.9,1033.0L862.1,1028.5L862.7,1025.8L864.3,1024.9L865.8,1026.0L871.3,1038.8L873.8,1036.0L876.8,1036.3L881.6,1041.2L888.3,1043.7L890.2,1042.6L888.9,1034.5L891.7,1037.3L895.0,1042.7L910.7,1042.4L917.0,1043.1L915.7,1036.1L915.7,1031.5L917.5,1031.7L919.6,1037.3L922.4,1043.2L925.7,1043.0L927.5,1030.1L928.3,1026.9L929.8,1027.9L930.3,1024.3L932.0,1019.7L933.1,1014.5L928.1,997.2L929.7,992.9L932.9,989.6L937.6,987.3L943.8,987.6L949.8,990.6L954.0,997.0L960.9,1003.0L968.3,1007.4L975.1,1013.0L982.1,1018.0L983.0,1019.0L983.1,1018.2L983.3,1013.3L985.3,1008.2L986.0,994.6L982.1,988.9L982.9,983.7L980.9,978.3L980.4,974.4L979.0,973.5L971.1,971.1L963.6,966.0L958.4,957.8L951.0,953.5L935.7,946.7L920.1,934.9L911.8,930.1L896.0,927.9L889.2,920.6L889.9,908.5L883.8,896.8L878.1,899.1L869.5,895.7L859.3,893.5L852.1,897.0L850.9,900.6L848.9,903.4L845.6,903.9L842.7,905.1L837.5,911.3L828.5,911.1L819.2,907.1L810.3,904.7L802.0,906.3L793.7,907.3L784.1,902.6L774.8,895.2L765.7,878.9L762.0,883.2L759.8,891.6L752.6,890.3L742.6,896.9L735.2,895.5L727.0,890.9L719.1,887.8L711.7,886.6L704.9,887.7L689.8,887.0L680.1,873.4L680.0,866.8L677.2,859.9L672.3,856.1L667.6,853.8L663.1,848.5L656.2,844.8L650.3,838.7L643.6,833.8L636.5,831.7L629.7,831.8L622.5,831.2L617.5,828.6L613.2,826.0L605.7,825.4L601.1,823.9L597.9,819.2L585.8,812.8L581.0,806.3Z " data-id="KR.KN" data-name="South Gyeongsang" id="KR.KN"/>
utf-8utf-8<path d="M441.6,1371.6L437.6,1372.5L435.0,1371.8L432.3,1372.4L439.8,1379.4L440.3,1378.8L439.2,1374.9L441.4,1374.9L441.6,1371.6Z M583.0,1366.5L578.9,1362.0L577.0,1361.7L575.5,1362.9L577.9,1367.5L583.0,1366.5Z M664.2,1341.9L663.0,1341.4L663.4,1343.3L668.3,1348.1L672.2,1349.3L666.7,1341.7L666.0,1342.6L664.2,1341.9Z M659.8,1341.1L656.5,1342.3L657.6,1346.0L659.0,1348.0L661.3,1349.5L665.5,1354.9L669.1,1355.6L673.2,1357.3L668.0,1353.1L662.8,1348.0L661.2,1345.0L660.9,1342.3L659.8,1341.1Z M138.6,1344.0L137.4,1341.7L131.1,1334.6L127.9,1332.0L124.8,1331.1L123.7,1332.8L123.7,1335.8L125.2,1338.1L128.6,1339.8L135.1,1344.1L138.4,1345.3L138.6,1344.0Z M487.9,1330.1L483.7,1325.4L481.4,1325.9L482.8,1327.6L483.0,1329.6L487.9,1330.1Z M470.8,1309.9L464.7,1306.8L461.1,1306.8L458.0,1309.8L457.7,1314.2L459.6,1318.6L463.6,1322.0L468.3,1322.2L471.1,1320.0L474.5,1316.0L475.5,1313.2L477.7,1313.1L481.5,1314.7L481.5,1313.5L483.8,1313.3L480.8,1310.8L474.0,1309.4L470.8,1309.9Z M500.3,1324.3L500.6,1322.0L499.4,1319.1L500.4,1316.3L493.9,1310.7L493.4,1308.5L494.9,1306.5L493.1,1303.7L488.1,1301.6L486.1,1301.6L485.1,1304.5L488.4,1307.3L489.4,1311.1L490.6,1317.8L492.8,1321.7L498.2,1325.0L500.3,1324.3Z M515.9,1305.6L516.6,1303.5L515.1,1300.1L512.9,1297.2L510.6,1300.0L511.7,1303.9L516.0,1307.4L515.9,1305.6Z M556.1,1310.4L555.2,1305.2L549.9,1301.4L546.0,1297.9L541.4,1296.9L538.7,1298.6L537.6,1300.2L538.4,1305.2L538.1,1308.2L541.0,1312.7L543.8,1311.6L546.8,1313.5L550.1,1314.9L553.5,1314.6L555.7,1313.1L556.1,1310.4Z M474.6,1306.8L472.6,1304.8L477.8,1304.2L477.3,1300.8L478.3,1299.4L477.1,1296.9L470.7,1293.2L460.4,1291.4L462.0,1296.0L462.7,1296.7L463.0,1302.3L463.7,1303.3L469.7,1306.9L473.8,1307.9L474.6,1306.8Z M313.8,1288.7L308.7,1286.9L307.9,1288.0L308.7,1292.0L312.3,1291.4L313.8,1288.7Z M632.5,1295.8L630.8,1293.4L630.1,1288.7L628.0,1286.2L625.0,1287.4L623.4,1291.2L624.0,1297.5L627.8,1296.4L632.6,1297.2L632.5,1295.8Z M471.5,1285.8L469.1,1286.0L468.0,1288.6L470.4,1291.1L473.9,1290.6L475.0,1289.1L476.3,1289.3L474.0,1286.8L471.5,1285.8Z M336.2,1285.0L336.6,1287.5L335.5,1289.8L331.9,1288.7L330.9,1290.2L334.1,1291.5L335.9,1293.7L336.0,1290.9L340.0,1293.0L341.2,1288.8L336.2,1285.0Z M304.4,1283.6L302.0,1283.0L300.0,1283.8L299.1,1286.3L303.9,1288.3L302.6,1287.0L304.4,1285.1L306.3,1287.3L304.4,1283.6Z M694.0,1282.3L693.3,1280.3L690.5,1280.9L693.3,1283.0L694.0,1282.3Z M456.1,1276.0L452.4,1276.8L449.8,1276.0L450.9,1278.7L457.9,1277.2L456.1,1276.0Z M658.1,1276.7L657.0,1273.2L653.6,1273.3L656.3,1278.0L658.1,1276.7Z M644.9,1272.8L647.7,1280.9L650.4,1274.9L649.1,1273.6L646.5,1274.8L644.9,1272.8Z M323.9,1267.3L322.5,1268.5L323.4,1272.9L326.1,1275.3L331.9,1277.4L333.4,1277.2L333.2,1275.7L336.9,1277.7L337.8,1276.6L340.0,1276.3L340.5,1274.6L338.1,1269.3L336.2,1268.5L332.9,1269.0L323.9,1267.3Z M554.6,1269.5L555.9,1269.4L559.2,1265.9L559.7,1264.3L558.7,1262.4L554.1,1260.3L548.2,1260.5L545.7,1262.4L546.8,1266.8L551.3,1270.1L554.6,1269.5Z M311.7,1259.5L313.5,1263.7L317.1,1264.4L321.7,1263.6L328.0,1265.1L327.8,1263.0L321.9,1260.2L317.0,1259.5L315.5,1260.8L311.7,1259.5Z M427.9,1260.9L427.6,1259.2L424.7,1258.1L425.1,1259.7L427.9,1260.9Z M515.5,1257.0L513.7,1255.9L511.4,1256.6L509.3,1259.2L507.1,1260.3L502.4,1259.0L498.8,1260.8L496.4,1261.1L497.2,1262.1L505.8,1265.5L508.1,1265.5L512.9,1264.1L515.1,1264.9L517.2,1266.7L520.5,1270.6L522.5,1270.2L525.9,1267.6L528.2,1268.0L529.0,1266.4L529.0,1261.7L528.6,1259.6L526.0,1258.3L515.5,1257.0Z M563.5,1254.8L561.5,1252.2L559.0,1249.8L556.2,1248.7L552.5,1254.3L550.9,1254.7L553.2,1256.2L557.4,1256.6L560.4,1260.2L566.1,1261.3L567.5,1262.4L565.9,1265.3L567.2,1267.9L569.3,1266.7L573.2,1261.6L570.4,1260.0L571.8,1259.3L576.9,1260.9L578.3,1260.6L577.2,1259.2L570.9,1254.3L565.8,1255.6L563.5,1254.8Z M142.2,1246.5L136.4,1243.3L132.6,1242.9L137.9,1248.2L138.8,1246.7L142.2,1246.5Z M495.0,1264.6L489.5,1258.1L486.9,1253.5L482.3,1247.9L478.0,1244.5L474.7,1242.8L471.5,1241.9L464.1,1243.8L463.4,1246.7L464.0,1250.3L469.1,1260.8L471.6,1262.9L475.2,1264.8L478.7,1265.6L481.0,1265.0L483.3,1265.5L484.8,1267.7L483.3,1269.4L484.1,1271.3L495.8,1274.7L497.2,1272.1L499.5,1273.3L504.6,1274.8L505.2,1274.0L501.2,1268.9L495.0,1264.6Z M533.8,1241.2L532.1,1242.2L531.4,1244.1L522.7,1241.9L517.1,1241.6L513.4,1240.7L514.9,1241.9L517.9,1249.7L519.0,1251.0L520.9,1246.8L522.4,1250.8L526.8,1254.6L529.2,1255.4L531.7,1254.8L533.2,1251.9L535.2,1251.8L536.1,1250.0L533.9,1246.8L534.5,1245.9L533.8,1241.2Z M615.0,1247.9L613.9,1245.9L609.2,1241.1L605.4,1238.2L604.2,1240.0L607.4,1242.0L610.2,1247.1L614.2,1248.2L615.0,1247.9Z M513.6,1242.8L508.3,1238.4L505.5,1237.0L505.7,1235.0L502.9,1231.3L499.6,1230.8L495.1,1232.0L491.4,1234.6L489.9,1239.1L489.2,1246.3L493.4,1248.3L496.2,1253.8L498.6,1255.7L499.5,1254.7L498.9,1251.6L499.9,1248.6L505.0,1245.6L505.5,1243.8L507.3,1243.3L512.9,1244.9L514.6,1244.6L513.6,1242.8Z M130.4,1230.1L129.3,1227.9L127.8,1227.4L128.1,1232.4L130.4,1230.1Z M550.4,1225.4L547.7,1225.9L547.1,1227.3L555.0,1236.6L557.6,1237.7L556.4,1234.5L557.8,1235.3L560.8,1239.9L562.1,1241.1L562.7,1238.7L561.8,1236.6L562.2,1235.1L556.5,1227.9L553.9,1226.0L553.3,1226.6L550.4,1225.4Z M740.3,1239.5L738.9,1234.8L737.6,1228.0L733.7,1225.0L732.7,1225.6L734.0,1230.8L733.5,1233.2L734.7,1235.9L736.3,1237.6L740.2,1240.0L740.3,1239.5Z M657.1,1223.8L649.1,1221.2L648.2,1221.8L650.0,1224.8L650.1,1227.0L655.5,1229.8L655.4,1231.0L657.1,1232.5L659.9,1233.3L662.2,1235.0L663.4,1237.5L665.1,1238.3L668.5,1237.1L671.7,1234.3L672.7,1232.3L669.7,1227.7L662.0,1222.0L659.8,1222.1L657.1,1223.8Z M595.2,1235.5L598.9,1233.6L600.2,1229.2L598.7,1223.8L594.1,1219.0L590.1,1217.4L586.1,1217.1L578.9,1218.0L571.6,1219.5L568.4,1221.0L566.1,1223.5L569.0,1225.0L571.1,1231.5L578.5,1235.4L581.9,1236.7L586.0,1237.3L595.2,1235.5Z M309.1,1217.7L309.6,1215.9L307.8,1214.5L305.5,1214.1L304.8,1217.7L305.7,1221.3L307.6,1224.8L308.9,1224.0L310.0,1221.7L311.9,1219.7L312.0,1218.5L309.1,1217.7Z M736.4,1219.1L734.1,1216.0L734.7,1214.3L730.2,1215.1L729.6,1217.6L730.8,1220.5L735.5,1220.3L736.4,1219.1Z M565.7,1209.4L564.8,1206.8L562.8,1206.3L561.3,1207.7L559.6,1207.1L559.4,1208.5L557.7,1208.4L558.9,1210.7L560.5,1211.1L562.2,1212.8L564.8,1211.5L565.7,1209.4Z M647.6,1208.5L645.1,1204.7L646.0,1203.4L642.7,1201.2L639.0,1201.5L637.9,1203.8L638.3,1208.3L642.3,1209.2L644.3,1213.6L642.9,1214.7L643.8,1216.5L647.9,1219.4L654.1,1217.4L656.4,1217.5L657.8,1216.1L655.6,1212.6L646.9,1210.2L645.1,1209.3L647.6,1208.5Z M724.8,1216.6L727.4,1215.6L727.1,1213.8L723.4,1211.2L721.3,1210.9L720.3,1207.8L713.7,1200.7L709.5,1198.3L705.4,1198.9L702.1,1200.9L701.9,1203.4L704.4,1205.4L706.9,1206.5L710.9,1210.8L714.1,1212.6L724.8,1216.6Z M365.1,1202.1L360.7,1197.4L357.5,1196.1L352.9,1193.3L348.0,1191.1L344.2,1191.4L343.6,1193.9L351.9,1198.7L355.2,1202.4L355.6,1206.8L353.1,1209.1L349.1,1208.7L344.8,1205.2L345.9,1209.3L344.7,1210.6L342.6,1211.0L340.6,1212.5L338.9,1217.2L339.3,1223.5L332.8,1224.0L329.2,1231.9L330.2,1241.6L337.7,1247.6L335.2,1241.4L344.0,1245.8L346.0,1247.6L344.4,1253.0L346.0,1255.6L349.1,1256.3L358.9,1255.4L361.3,1254.5L379.1,1242.0L377.4,1235.5L379.8,1236.6L385.6,1240.5L386.3,1241.4L388.1,1239.8L388.7,1236.7L389.2,1226.6L388.7,1222.2L387.5,1217.7L385.5,1213.7L373.5,1202.1L372.2,1199.6L367.2,1203.4L365.1,1202.1Z M624.2,1192.8L624.1,1191.2L622.9,1194.8L624.2,1192.8Z M687.2,1191.3L683.5,1188.3L680.7,1190.8L682.3,1194.0L686.5,1197.5L691.4,1196.0L691.6,1193.0L695.0,1194.9L695.3,1193.5L693.4,1191.5L687.2,1191.3Z M548.2,1184.7L548.3,1182.7L544.4,1181.0L544.1,1181.7L547.2,1185.3L548.2,1184.7Z M656.0,1179.3L653.3,1178.4L651.6,1179.3L647.9,1179.0L647.6,1181.0L648.9,1182.7L651.0,1182.8L651.8,1181.4L654.4,1185.2L656.3,1185.7L656.2,1183.0L657.9,1182.8L656.0,1179.3Z M303.4,1203.8L307.0,1200.9L310.3,1196.1L307.7,1187.0L304.6,1182.5L301.0,1180.8L294.5,1176.6L293.3,1178.0L296.9,1182.9L300.9,1186.8L303.3,1189.7L303.3,1192.5L301.4,1194.6L294.8,1195.3L294.2,1196.8L300.0,1198.0L299.0,1201.3L296.3,1201.9L297.8,1203.4L301.0,1204.2L303.4,1203.8Z M244.3,1177.8L242.8,1175.7L241.1,1175.7L237.0,1178.9L230.9,1177.8L237.0,1181.6L235.8,1182.7L236.5,1184.4L238.5,1185.2L240.1,1184.3L242.1,1184.4L245.3,1183.2L244.3,1177.8Z M294.2,1193.0L298.6,1192.1L297.8,1188.6L294.1,1184.5L289.9,1180.8L284.0,1174.1L283.1,1176.6L284.6,1182.3L289.7,1192.4L292.4,1194.0L294.2,1193.0Z M272.3,1175.6L268.5,1171.7L266.9,1171.1L263.8,1173.4L266.1,1176.0L273.4,1178.6L272.3,1175.6Z M148.6,1171.4L148.1,1167.6L145.6,1167.9L144.5,1171.3L147.7,1173.1L148.6,1171.4Z M312.2,1167.3L312.6,1165.5L311.6,1163.7L308.6,1163.1L305.4,1166.5L303.3,1169.6L307.4,1171.9L309.6,1179.3L312.5,1178.9L317.3,1176.5L321.0,1177.2L321.6,1175.4L325.1,1173.1L324.3,1172.1L321.6,1172.2L319.4,1168.3L315.6,1165.4L313.0,1168.4L312.2,1167.3Z M121.7,1162.7L122.5,1161.5L120.3,1160.3L118.0,1161.7L121.3,1164.6L121.7,1162.7Z M133.0,1156.1L131.6,1155.3L129.7,1155.7L128.3,1157.2L127.6,1166.6L128.9,1170.5L132.2,1174.7L135.0,1175.7L136.6,1170.3L136.4,1168.2L138.4,1163.8L140.2,1158.7L139.2,1157.5L134.7,1158.3L133.0,1156.1Z M295.1,1154.4L293.5,1150.9L291.7,1152.4L291.7,1154.1L294.3,1155.9L295.1,1154.4Z M75.0,1150.3L74.5,1151.0L75.6,1153.8L75.1,1159.3L73.0,1160.3L74.6,1163.7L77.3,1165.9L78.7,1163.1L77.0,1160.8L79.3,1158.5L79.5,1155.1L77.5,1150.4L75.0,1150.3Z M718.0,1190.0L719.4,1187.5L719.5,1183.5L718.4,1179.3L716.4,1175.1L711.3,1167.7L707.7,1163.5L704.1,1160.0L701.3,1159.3L703.1,1156.6L702.9,1153.4L701.1,1150.7L698.0,1149.5L695.2,1149.9L693.1,1151.1L693.6,1153.4L698.9,1157.3L700.2,1164.7L700.2,1166.5L697.1,1169.9L696.6,1171.3L697.4,1176.7L699.9,1180.1L712.1,1188.7L715.4,1190.2L718.0,1190.0Z M689.0,1152.9L684.3,1150.4L683.3,1149.0L682.0,1151.1L685.0,1153.9L687.5,1154.9L689.0,1152.9Z M271.6,1161.4L271.3,1157.0L270.1,1154.8L264.8,1150.9L261.2,1147.2L258.9,1147.3L257.0,1153.3L251.1,1156.2L250.4,1158.4L254.6,1163.3L255.5,1162.9L259.9,1164.5L264.3,1166.6L264.7,1167.5L270.0,1166.3L271.6,1161.4Z M289.0,1134.4L277.4,1134.5L279.4,1136.9L286.3,1141.9L290.1,1145.9L291.6,1148.4L293.8,1149.7L297.1,1147.9L299.7,1148.0L303.3,1151.2L307.3,1154.0L310.2,1153.7L310.4,1150.9L309.0,1147.8L305.7,1141.8L301.9,1138.8L296.3,1138.0L291.7,1135.4L289.0,1134.4Z M338.7,1137.1L336.9,1133.6L338.5,1131.2L335.0,1129.2L333.2,1131.6L337.8,1137.3L338.7,1137.1Z M261.0,1131.2L259.5,1129.3L255.5,1128.5L248.9,1131.5L245.0,1132.5L241.2,1131.2L238.7,1132.3L236.8,1134.1L235.9,1136.6L236.7,1140.3L238.7,1144.1L241.3,1147.2L244.2,1149.2L247.1,1149.5L249.5,1148.2L250.5,1145.6L250.3,1142.2L249.2,1138.3L250.2,1137.5L253.5,1138.1L256.8,1138.1L257.7,1135.4L263.7,1137.4L261.0,1131.2Z M610.9,1125.4L609.8,1127.1L606.6,1127.9L608.2,1131.7L610.9,1129.1L610.9,1125.4Z M299.4,1136.0L300.2,1134.4L298.1,1130.5L298.1,1128.6L294.7,1124.2L292.0,1123.2L290.8,1124.7L287.9,1126.2L282.3,1127.2L280.7,1129.2L284.4,1131.0L289.1,1132.5L293.4,1135.1L296.9,1136.7L299.4,1136.0Z M281.5,1102.4L276.9,1102.5L275.5,1104.8L277.4,1108.2L277.5,1110.0L275.3,1110.0L272.4,1108.7L269.7,1109.0L266.9,1110.8L267.1,1113.1L273.3,1119.0L278.6,1123.1L280.3,1125.9L282.5,1126.1L284.5,1124.7L284.1,1121.9L282.7,1118.6L283.5,1116.9L285.9,1117.0L287.1,1116.0L286.6,1113.2L283.5,1108.6L285.9,1106.6L281.5,1102.4Z M660.3,1097.2L657.6,1097.3L655.8,1099.3L655.3,1101.2L656.1,1102.4L659.3,1104.7L661.5,1105.3L663.8,1104.9L666.6,1098.7L662.7,1098.2L660.3,1097.2Z M336.5,1108.4L331.2,1106.8L326.0,1106.3L324.1,1101.9L326.8,1099.4L328.8,1099.1L328.4,1097.4L324.0,1094.3L318.8,1092.2L314.2,1091.2L312.1,1092.5L314.2,1095.4L317.1,1098.0L317.9,1100.1L317.6,1102.0L315.0,1102.9L314.4,1106.0L310.2,1107.8L306.5,1108.1L305.9,1109.6L308.1,1111.5L311.4,1112.5L314.8,1111.9L317.3,1110.4L323.9,1109.2L333.4,1113.5L334.5,1114.6L333.7,1118.0L336.7,1119.0L339.6,1114.6L336.5,1108.4Z M264.7,1093.0L261.4,1089.7L258.0,1087.8L255.9,1088.4L256.3,1094.1L250.2,1093.4L248.1,1096.4L246.7,1103.3L245.2,1105.4L245.9,1107.2L248.9,1107.2L256.0,1105.4L262.8,1108.3L265.9,1107.2L267.7,1104.8L268.0,1101.3L267.1,1097.2L264.7,1093.0Z M302.1,1091.6L302.6,1090.8L299.9,1085.9L295.8,1085.9L294.3,1087.0L295.0,1089.7L297.3,1092.4L300.3,1092.5L302.1,1091.6Z M302.7,1076.1L299.5,1076.5L305.6,1082.4L307.7,1085.5L312.1,1086.8L312.3,1085.1L306.7,1078.3L302.7,1076.1Z M288.0,1076.9L287.2,1072.4L286.5,1071.3L284.0,1073.4L284.2,1075.9L289.1,1080.7L288.0,1076.9Z M298.0,1074.0L300.3,1073.8L298.6,1069.6L292.8,1065.4L290.4,1065.7L292.7,1067.6L294.3,1074.2L297.2,1075.1L298.0,1074.0Z M273.5,1067.1L271.3,1066.0L266.2,1060.8L261.6,1059.8L257.9,1063.0L258.0,1064.2L255.4,1066.3L256.2,1067.5L260.6,1068.4L267.1,1068.2L269.1,1069.3L267.0,1070.5L269.0,1076.6L269.0,1080.6L270.5,1082.0L273.3,1081.3L271.7,1077.0L275.9,1075.9L277.8,1073.4L276.7,1069.4L275.6,1068.0L273.5,1067.1Z M259.8,1050.1L257.1,1051.6L257.2,1052.9L260.2,1053.4L259.0,1054.7L264.0,1057.2L270.9,1060.1L272.5,1058.5L271.4,1055.6L267.7,1051.4L265.3,1050.8L262.4,1051.1L259.8,1050.1Z M227.0,1039.7L225.0,1037.7L222.8,1038.6L223.6,1041.0L225.9,1043.1L229.1,1044.8L227.0,1039.7Z M265.3,1037.0L262.0,1036.0L259.4,1037.0L258.9,1039.4L264.0,1045.4L272.4,1049.1L274.3,1050.3L282.8,1051.8L284.0,1055.8L287.5,1059.0L290.6,1059.7L292.0,1057.0L290.6,1054.7L286.8,1050.5L284.6,1048.5L282.0,1048.3L279.3,1047.3L275.5,1044.6L275.3,1041.9L277.5,1041.8L278.4,1040.1L277.0,1038.2L271.7,1036.6L268.2,1038.5L265.3,1037.0Z M252.5,1049.6L253.3,1046.6L254.9,1043.9L257.0,1042.8L251.6,1037.6L249.2,1034.6L248.2,1031.7L248.8,1029.2L254.4,1024.9L250.3,1023.9L245.8,1025.1L242.7,1027.9L242.1,1033.8L236.3,1037.0L236.2,1039.7L238.2,1049.0L242.2,1051.0L244.4,1050.6L251.5,1052.4L252.6,1052.0L252.5,1049.6Z M234.2,986.5L232.3,981.9L228.6,979.7L228.0,982.5L232.8,988.1L234.2,986.5Z M197.8,964.6L196.9,963.4L192.4,960.5L190.4,962.9L194.1,965.7L191.1,966.0L194.2,968.0L194.4,969.6L196.7,968.6L199.2,966.4L197.8,964.6Z M298.3,963.5L299.8,965.6L297.7,965.8L292.9,964.5L285.4,958.5L283.6,966.5L283.4,971.0L284.5,975.6L288.6,981.4L288.7,983.6L286.0,988.1L286.0,990.7L288.0,991.1L291.9,992.9L288.0,994.0L283.1,994.3L279.1,995.3L277.8,998.6L284.7,998.5L287.6,998.0L290.2,996.8L291.5,1000.8L293.7,1003.2L297.0,1005.0L297.6,1007.7L296.6,1011.9L300.3,1016.1L312.1,1025.3L317.3,1031.9L322.0,1034.6L327.0,1035.7L329.0,1037.6L331.3,1042.8L332.6,1047.5L332.3,1061.2L328.7,1058.6L325.7,1055.6L323.9,1052.4L323.9,1049.0L321.6,1048.0L317.5,1047.9L311.2,1045.3L306.4,1038.8L303.5,1038.8L302.3,1037.0L301.8,1032.6L300.2,1027.1L298.7,1024.3L295.5,1021.0L296.4,1027.7L296.2,1031.1L293.9,1033.0L290.0,1028.4L284.7,1026.1L280.1,1026.8L278.3,1030.8L281.2,1035.7L290.9,1043.9L290.0,1047.0L295.3,1051.5L298.6,1051.4L298.7,1047.6L294.0,1041.0L299.3,1042.6L305.2,1046.5L316.0,1055.9L320.4,1062.1L316.5,1068.8L319.9,1075.0L313.3,1073.8L310.6,1073.6L308.4,1075.0L315.7,1081.7L318.4,1083.2L316.0,1085.2L319.8,1087.2L324.6,1088.6L328.9,1088.3L331.0,1085.2L329.7,1082.5L327.1,1079.1L325.6,1076.3L327.4,1075.0L330.7,1071.5L333.2,1071.0L339.8,1072.5L339.5,1075.0L336.3,1078.2L334.2,1081.2L335.8,1086.1L339.6,1091.8L344.3,1096.7L348.3,1099.0L346.3,1101.8L346.4,1103.9L348.9,1108.3L350.1,1114.7L349.4,1117.4L346.6,1122.3L346.1,1125.2L348.2,1128.3L351.3,1129.6L355.7,1127.9L359.1,1127.9L358.2,1124.9L359.8,1123.9L366.9,1125.4L369.6,1124.4L371.0,1122.5L372.8,1121.6L376.7,1123.2L376.0,1129.4L378.3,1131.2L382.9,1130.8L384.0,1127.4L382.5,1117.4L381.8,1108.6L378.1,1103.6L377.4,1101.2L378.5,1097.6L381.4,1095.9L385.1,1096.9L388.9,1101.2L390.1,1104.3L389.0,1109.4L390.3,1112.5L392.9,1116.4L393.2,1119.2L405.2,1118.1L411.1,1119.1L416.5,1123.2L412.1,1123.5L409.1,1125.4L412.4,1129.1L406.5,1128.7L394.1,1125.4L388.8,1126.8L387.5,1130.6L389.2,1135.7L392.6,1141.4L388.4,1139.2L385.0,1139.9L370.6,1131.8L363.1,1135.9L355.4,1134.8L352.6,1136.2L351.0,1140.5L352.9,1143.2L359.2,1145.1L364.6,1143.4L370.9,1146.6L377.8,1146.2L384.3,1147.4L389.6,1149.4L401.7,1159.5L408.5,1163.3L407.7,1165.5L417.6,1171.8L422.8,1174.5L428.3,1175.3L423.8,1176.6L415.9,1174.4L403.3,1168.7L400.5,1169.3L408.4,1176.0L407.9,1177.3L400.2,1173.2L396.6,1170.7L391.5,1169.0L387.5,1166.9L385.2,1164.9L382.0,1163.3L379.8,1159.3L378.8,1155.5L376.5,1153.1L365.5,1150.9L359.2,1151.6L362.7,1156.7L362.6,1160.8L366.4,1168.1L370.2,1173.6L372.6,1173.4L372.4,1169.2L375.4,1168.7L377.3,1175.4L381.7,1178.4L385.5,1182.1L392.7,1183.9L395.2,1183.5L395.4,1188.5L392.7,1188.8L386.1,1185.3L373.3,1183.3L369.6,1181.5L358.7,1167.5L354.9,1161.3L354.4,1158.4L355.5,1155.4L343.5,1144.4L340.4,1140.9L334.6,1139.2L333.1,1140.1L335.7,1147.4L335.9,1153.9L337.7,1163.2L341.6,1171.6L348.1,1175.3L355.9,1178.5L358.2,1181.5L357.0,1182.9L354.6,1182.8L353.1,1181.5L351.9,1184.3L354.0,1187.3L361.7,1192.3L365.3,1192.5L366.8,1188.6L368.8,1190.0L371.3,1193.2L378.2,1196.1L381.4,1198.7L383.8,1203.4L386.8,1202.0L389.4,1201.5L394.5,1201.4L399.1,1201.9L401.1,1201.4L401.9,1195.4L403.5,1195.5L407.5,1197.4L409.5,1197.4L412.5,1193.2L416.2,1194.9L417.2,1197.6L416.2,1200.7L413.5,1203.4L420.7,1207.1L422.7,1209.4L416.8,1209.5L410.9,1210.8L407.5,1214.3L409.4,1221.3L412.7,1220.1L414.0,1222.0L414.6,1225.6L416.0,1229.3L416.5,1232.7L426.8,1235.5L429.0,1238.4L429.6,1241.4L428.7,1247.6L426.0,1248.1L427.4,1252.7L426.9,1255.6L427.7,1257.4L433.9,1257.1L437.2,1257.7L440.1,1259.5L442.0,1262.9L442.6,1269.9L444.4,1273.3L447.4,1273.9L457.0,1270.2L463.4,1271.5L461.4,1265.3L459.1,1245.6L459.2,1243.7L461.0,1241.4L467.4,1239.6L468.8,1238.4L468.8,1235.5L468.0,1232.0L471.0,1231.5L476.7,1233.5L476.1,1230.0L470.8,1227.9L473.0,1224.7L480.0,1219.3L471.7,1212.5L469.3,1208.9L475.7,1206.4L474.6,1204.0L471.6,1200.5L468.9,1196.4L468.5,1193.6L469.2,1190.5L470.8,1188.0L473.1,1187.3L476.7,1189.3L480.0,1193.2L482.2,1197.7L482.4,1201.4L485.7,1207.1L490.8,1221.9L495.1,1227.5L497.7,1228.8L508.1,1231.5L516.9,1236.3L520.5,1237.3L517.7,1233.9L516.2,1230.7L516.1,1227.9L517.1,1225.3L524.9,1228.5L526.3,1226.5L520.8,1214.5L528.7,1201.4L525.3,1197.6L525.1,1194.5L526.8,1189.5L523.8,1180.4L527.8,1178.7L530.2,1176.9L533.4,1173.3L540.1,1168.1L541.3,1166.5L543.3,1160.8L544.9,1158.3L547.3,1157.3L553.9,1158.6L556.9,1158.7L559.8,1157.3L561.5,1153.2L561.1,1140.7L562.2,1135.4L572.2,1145.0L578.1,1148.6L582.4,1146.4L585.5,1142.8L588.2,1145.2L591.7,1150.4L597.2,1155.4L596.6,1158.4L596.3,1165.5L595.5,1167.5L592.4,1168.9L589.2,1168.0L586.1,1165.3L583.0,1161.5L583.1,1158.7L581.7,1156.4L579.3,1154.7L576.2,1153.3L572.5,1161.0L572.2,1163.3L574.3,1167.7L579.4,1171.9L582.2,1175.3L585.9,1183.9L584.4,1188.8L579.4,1191.0L572.5,1191.4L572.5,1182.9L571.7,1178.2L569.8,1173.3L567.0,1175.0L566.2,1177.2L565.9,1183.5L563.7,1189.9L562.6,1191.4L558.6,1194.6L558.1,1197.1L560.2,1201.4L564.2,1205.6L568.1,1207.3L572.2,1208.0L576.7,1209.4L573.3,1205.2L580.8,1200.2L583.3,1199.6L596.5,1209.4L602.8,1216.3L618.2,1229.3L624.8,1229.3L620.3,1226.0L617.5,1220.9L622.2,1215.6L627.5,1217.6L629.2,1211.9L636.2,1201.4L629.4,1197.1L621.2,1199.5L618.6,1198.2L614.9,1197.4L608.5,1190.4L609.0,1188.2L611.3,1185.8L614.4,1184.1L617.3,1183.5L621.3,1184.6L635.2,1191.4L637.8,1190.7L642.7,1190.9L645.5,1186.6L642.3,1180.5L639.6,1177.3L627.5,1173.3L636.1,1173.3L627.8,1165.9L618.2,1161.1L608.6,1154.8L600.3,1143.2L601.9,1141.0L599.0,1138.3L596.1,1137.2L592.4,1139.1L589.6,1137.4L588.8,1133.4L592.7,1130.5L601.6,1127.2L600.8,1125.4L595.1,1123.9L587.7,1121.2L583.4,1118.6L586.8,1117.4L597.4,1117.6L601.9,1117.0L608.9,1114.2L611.3,1111.2L611.0,1100.8L612.9,1099.3L614.5,1100.6L618.7,1111.2L625.6,1118.8L626.4,1123.2L628.1,1124.5L632.3,1125.4L639.6,1133.6L642.7,1136.4L645.9,1141.3L646.1,1147.1L645.5,1153.2L646.7,1159.3L650.6,1165.9L655.2,1170.2L660.5,1172.6L666.6,1173.3L672.3,1177.4L675.4,1178.8L675.4,1176.4L668.2,1163.3L665.0,1159.2L661.5,1155.4L664.8,1155.4L665.1,1145.7L671.0,1146.8L679.1,1150.2L686.4,1147.4L687.0,1144.0L683.6,1129.4L682.4,1121.1L681.5,1117.0L679.3,1111.2L675.8,1113.6L671.6,1113.4L666.8,1112.5L661.9,1113.2L657.4,1120.2L655.2,1122.1L652.1,1120.9L647.9,1117.4L643.1,1114.9L636.3,1109.1L629.7,1102.4L625.3,1097.2L622.9,1092.3L621.7,1086.5L622.8,1082.7L627.2,1084.2L635.7,1093.5L640.6,1096.6L644.7,1094.3L650.8,1087.1L652.1,1082.6L651.5,1077.2L648.4,1072.2L648.1,1069.9L651.8,1072.1L656.0,1077.2L657.9,1078.7L661.4,1079.2L671.1,1079.1L672.9,1079.6L671.7,1078.3L669.4,1072.8L662.8,1064.9L640.8,1048.6L635.9,1043.2L631.2,1037.0L623.4,1031.3L615.6,1027.0L609.8,1021.2L602.1,1005.6L596.5,998.1L589.1,992.3L587.6,985.9L569.1,974.8L551.3,969.3L544.7,974.1L540.9,981.6L533.8,982.7L525.8,982.8L517.6,983.9L508.7,983.8L503.5,981.4L498.7,978.6L494.9,979.6L489.9,979.6L483.1,980.8L477.9,984.9L468.4,983.6L460.0,977.4L456.1,967.7L448.9,962.2L445.1,956.7L443.6,948.3L435.6,940.9L428.6,941.3L428.2,944.3L426.8,946.6L426.9,950.4L428.1,954.6L420.7,954.7L402.9,939.5L393.0,933.5L388.0,931.7L383.5,931.4L381.5,936.1L373.0,935.3L369.3,940.7L372.9,948.7L372.1,952.0L370.0,954.2L373.3,960.4L373.1,964.6L371.1,967.3L367.9,969.2L364.3,970.4L359.5,974.9L352.0,976.1L345.5,978.9L339.1,980.6L332.2,978.6L329.2,970.7L327.4,962.8L324.2,952.0L316.4,950.1L295.8,956.7L291.5,958.3L298.3,963.5Z M425.7,992.3L440.1,997.0L450.8,1010.4L446.6,1023.0L430.8,1020.6L414.3,1012.8L401.5,998.4L404.7,993.5L414.3,995.7L420.0,994.3L425.7,992.3Z " data-id="KR.KJ" data-name="South Jeolla" id="KR.KJ"/>
utf-8utf-8<path d="M971.7,1049.8L967.6,1048.2L967.0,1046.1L967.9,1044.8L965.9,1043.9L959.2,1038.5L956.6,1038.4L955.5,1040.2L956.9,1043.7L960.4,1046.4L966.1,1048.9L970.8,1052.3L971.7,1049.8Z M931.3,1032.1L932.8,1039.7L934.5,1045.6L939.3,1052.3L941.8,1054.2L945.3,1051.1L948.2,1053.5L950.0,1053.6L945.4,1044.8L949.6,1047.9L952.0,1050.8L953.4,1049.4L951.8,1043.7L952.4,1038.3L955.8,1031.6L958.8,1034.0L968.4,1040.0L972.7,1037.5L972.3,1033.6L970.5,1030.1L967.3,1027.3L965.7,1023.1L968.5,1022.8L970.6,1021.6L973.1,1021.8L982.8,1021.4L983.0,1019.0L982.1,1018.0L975.1,1013.0L968.3,1007.4L960.9,1003.0L954.0,997.0L949.8,990.6L943.8,987.6L937.6,987.3L932.9,989.6L929.7,992.9L928.1,997.2L933.1,1014.5L932.0,1019.7L930.3,1024.3L929.8,1027.9L931.3,1032.1Z " data-id="KR.PU" data-name="Busan" id="KR.PU"/>
utf-8utf-8<path d="M883.8,896.8L889.9,908.5L889.2,920.6L896.0,927.9L911.8,930.1L920.1,934.9L935.7,946.7L951.0,953.5L958.4,957.8L963.6,966.0L971.1,971.1L979.0,973.5L980.4,974.4L980.3,974.1L986.1,974.3L989.9,967.7L993.3,964.9L997.6,963.3L996.1,959.3L990.6,954.8L991.7,947.6L988.3,942.0L984.3,934.4L985.4,932.5L990.1,931.3L989.4,927.3L987.4,923.2L984.8,919.5L981.8,917.1L978.2,916.3L977.7,910.6L981.4,911.4L986.7,916.5L991.1,923.2L994.9,928.4L997.7,926.5L999.4,921.1L999.7,916.3L996.3,904.9L993.5,897.3L991.6,890.9L988.7,888.1L988.1,887.6L988.0,887.7L966.9,883.0L946.3,887.1L941.8,886.0L937.9,883.9L935.5,880.0L933.5,875.6L929.7,871.9L919.6,868.3L910.7,866.6L902.9,867.9L894.3,871.4L889.0,877.7L892.1,881.8L896.1,885.6L895.8,888.5L892.2,888.6L887.6,892.2L883.8,896.8Z " data-id="KR.UL" data-name="Ulsan" id="KR.UL"/>
utf-8utf-8<path d="M607.1,471.3L605.7,474.6L603.3,476.4L600.0,475.4L598.3,476.8L595.5,482.6L591.7,487.6L589.5,491.4L585.2,492.9L583.4,495.4L583.0,499.1L578.0,504.3L576.1,511.8L576.1,517.3L575.6,522.8L578.6,525.7L583.1,528.6L584.8,540.2L568.6,548.5L558.8,545.7L552.0,538.6L544.1,533.8L538.9,531.0L534.2,527.5L532.5,530.5L531.7,534.4L533.2,543.9L526.0,543.4L517.5,540.8L512.5,538.3L509.6,540.9L508.0,546.2L503.4,546.6L498.5,544.1L497.8,548.9L497.7,555.4L498.8,561.4L506.0,567.3L512.5,573.9L494.3,571.2L483.4,567.3L481.7,575.0L475.1,578.9L469.9,583.9L470.9,587.4L472.3,590.2L472.3,593.2L470.1,600.4L468.3,604.1L465.1,604.7L462.3,606.3L468.0,613.1L478.1,614.7L497.4,631.5L494.9,635.8L495.6,642.5L501.8,658.6L503.5,665.7L507.3,670.8L512.0,675.4L511.6,682.2L508.3,686.8L516.0,700.8L524.6,698.5L531.2,700.4L540.5,706.1L546.2,708.3L557.1,705.3L564.3,709.3L573.9,724.7L568.6,724.4L562.4,723.3L558.8,728.3L563.6,736.2L565.5,740.2L567.1,745.1L566.0,747.9L565.6,751.2L566.9,758.7L566.4,765.9L561.2,768.0L556.7,770.8L573.8,787.5L581.0,806.3L585.8,812.8L597.9,819.2L601.1,823.9L605.7,825.4L613.2,826.0L617.5,828.6L622.5,831.2L629.7,831.8L636.5,831.7L643.6,833.8L650.3,838.7L656.2,844.8L663.1,848.5L667.6,853.8L672.3,856.1L677.2,859.9L680.0,866.8L680.1,873.4L689.8,887.0L704.9,887.7L711.7,886.6L719.1,887.8L727.0,890.9L735.2,895.5L742.6,896.9L752.6,890.3L759.8,891.6L762.0,883.2L765.7,878.9L774.8,895.2L784.1,902.6L793.7,907.3L802.0,906.3L810.3,904.7L819.2,907.1L828.5,911.1L837.5,911.3L842.7,905.1L845.6,903.9L848.9,903.4L850.9,900.6L852.1,897.0L859.3,893.5L869.5,895.7L878.1,899.1L883.8,896.8L887.6,892.2L892.2,888.6L895.8,888.5L896.1,885.6L892.1,881.8L889.0,877.7L894.3,871.4L902.9,867.9L910.7,866.6L919.6,868.3L929.7,871.9L933.5,875.6L935.5,880.0L937.9,883.9L941.8,886.0L946.3,887.1L966.9,883.0L988.0,887.7L988.1,887.6L985.3,885.4L981.0,880.2L981.0,875.5L981.7,866.3L979.6,847.3L974.4,836.3L972.9,818.8L966.5,798.6L963.8,790.9L964.8,773.8L965.9,768.0L962.1,762.1L958.0,756.8L954.9,751.8L949.5,748.6L948.8,753.5L940.9,770.1L936.9,774.9L931.7,774.1L920.3,765.4L913.2,760.7L911.6,756.7L914.1,753.4L918.1,751.4L918.9,748.9L917.7,744.2L913.2,741.3L907.9,733.6L902.1,723.5L898.0,721.0L895.4,718.3L892.4,713.4L877.4,677.8L876.0,672.0L876.6,666.9L880.0,658.1L879.1,652.6L869.1,627.4L862.3,615.2L853.5,603.1L847.0,591.5L846.7,591.0L844.3,590.9L835.5,589.1L829.3,592.5L810.0,586.4L809.4,579.4L805.7,572.8L800.2,565.5L795.8,557.2L795.4,549.4L794.6,542.0L788.8,537.8L786.7,531.1L768.5,529.8L762.1,527.0L755.5,524.6L750.8,519.2L746.1,512.9L736.6,509.2L728.3,501.9L722.8,492.3L721.2,485.0L723.8,481.9L727.5,480.3L735.8,483.0L739.5,478.8L734.0,472.0L724.5,467.6L715.5,465.7L710.5,469.1L705.0,470.7L694.4,466.7L684.3,465.1L681.7,466.4L678.9,466.1L675.7,463.4L672.2,462.2L667.8,467.4L661.9,470.2L659.0,465.0L657.2,459.9L652.1,457.8L647.0,456.8L641.0,451.0L634.2,450.5L629.1,453.5L627.2,458.7L632.1,466.0L634.5,472.8L636.0,479.1L629.6,478.5L621.8,477.0L614.7,474.5L607.1,471.3Z M734.3,828.6L729.3,825.2L725.0,823.7L721.1,818.3L722.4,813.7L726.0,813.6L729.6,813.0L728.6,807.3L723.7,806.1L723.7,800.3L725.8,795.8L718.4,782.4L725.5,773.1L739.9,771.0L752.2,770.2L765.0,777.2L770.4,782.5L771.3,784.9L771.0,786.8L774.4,794.3L777.6,797.2L781.1,799.3L786.0,809.0L786.8,813.7L784.7,817.5L780.5,817.2L782.3,821.6L782.6,827.5L783.9,832.2L780.0,835.4L764.5,831.8L756.4,831.0L754.1,833.7L753.3,839.7L752.2,841.2L739.6,834.1L734.3,828.6Z " data-id="KR.TG" data-name="North Gyeongsang" id="KR.TG"/>
utf-8utf-8<path d="M513.1,1591.9L516.7,1591.1L517.9,1583.5L523.8,1580.2L546.7,1579.8L558.2,1582.9L569.6,1580.6L580.8,1581.7L589.9,1579.4L595.3,1572.5L618.1,1568.0L624.4,1560.6L631.0,1561.2L632.8,1560.0L638.6,1559.3L638.6,1555.5L637.8,1552.9L638.9,1546.5L639.2,1541.1L644.8,1534.5L647.1,1529.4L648.4,1524.3L647.7,1522.7L645.1,1520.1L644.3,1518.4L645.2,1516.4L647.3,1515.7L647.9,1514.4L644.5,1510.6L642.7,1514.4L639.0,1511.0L633.1,1502.3L628.1,1498.7L614.5,1494.1L609.8,1491.3L605.2,1487.0L597.1,1485.7L586.2,1486.7L567.8,1489.8L563.5,1488.7L550.3,1495.7L527.6,1498.2L523.6,1503.6L501.7,1510.6L491.9,1514.5L491.5,1521.2L485.6,1522.8L483.4,1535.3L477.0,1540.3L475.5,1542.9L474.3,1550.2L474.7,1562.0L480.8,1571.1L491.0,1578.6L499.3,1581.1L508.4,1590.0L513.1,1591.9Z " data-id="KR.CJ" data-name="Jeju" id="KR.CJ"/>
utf-8utf-8<path d="M281.6,568.9L282.8,584.2L303.5,628.9L301.4,632.4L302.0,638.6L325.7,642.8L340.1,638.4L349.7,635.4L363.4,631.2L369.1,631.6L368.8,628.7L367.9,625.7L364.5,620.8L363.9,615.8L362.7,612.6L343.9,611.4L327.9,614.9L324.9,605.9L324.2,597.4L321.5,592.4L321.7,582.4L281.6,568.9Z " data-id="KR.SJ" data-name="Sejong" id="KR.SJ"/>
utf-8</g>
</svg>
