<?xml version="1.0" ?>
<!DOCTYPE svg
  PUBLIC '-//W3C//DTD SVG 1.1//EN'
  'http://www.w3.org/Graphics/SVG/1.1/DTD/svg11.dtd'>
<svg enable_background="new 0 0 1000 458" height="458px" pretty_print="True" style="stroke-linejoin: round; stroke:#000; fill: none;" version="1.1" viewBox="0 0 1000 458" width="1000px" xmlns="http://www.w3.org/2000/svg" xmlns:xlink="http://www.w3.org/1999/xlink">
utf-8<defs>
utf-8utf-8<style type="text/css">
<![CDATA[path { fill-rule: evenodd; }]]>utf-8utf-8</style>
utf-8</defs>
utf-8<metadata>
utf-8utf-8<views>
utf-8utf-8utf-8<view h="458.628326005" padding="0" w="1000">
utf-8utf-8utf-8utf-8<proj flip="auto" id="robinson" lon0="59.3612008789"/>
utf-8utf-8utf-8utf-8<bbox h="240.72" w="526.02" x="603.7" y="-922.24"/>
utf-8utf-8utf-8</view>
utf-8utf-8</views>
utf-8</metadata>
utf-8<g class="" id="provinces">
utf-8utf-8<path d="M336.1,298.7L335.6,297.7L335.5,296.7L335.4,296.2L335.4,296.1L335.0,295.9L335.0,299.8L333.7,302.3L331.0,305.7L337.6,309.1L340.1,310.3L336.3,298.9L336.1,298.7Z M346.1,126.4L343.6,128.0L344.9,138.2L344.2,141.0L332.1,144.7L329.8,145.0L319.3,144.1L312.2,138.8L309.6,139.6L308.8,147.8L305.7,148.8L302.6,150.5L300.2,148.6L302.7,148.1L297.7,145.7L295.5,146.2L293.9,145.3L286.0,144.3L282.7,142.8L281.1,141.0L278.0,140.5L277.2,138.6L275.5,138.6L274.4,137.1L275.0,134.9L272.2,132.5L266.1,129.8L263.7,132.7L261.1,131.4L258.5,132.0L253.4,130.7L253.0,132.1L254.4,137.2L250.3,136.9L248.8,138.7L242.7,134.4L241.1,134.1L239.1,131.5L237.1,132.2L232.2,132.8L229.4,131.9L228.0,132.4L229.2,135.3L222.7,132.1L222.3,135.5L220.6,137.9L217.0,137.2L216.4,138.4L216.7,142.1L213.7,145.2L210.2,147.1L208.2,148.8L204.2,146.6L203.0,145.2L198.3,144.7L191.6,140.6L189.9,137.9L185.9,137.1L180.3,133.9L178.6,133.5L176.2,134.6L178.4,137.3L179.9,137.9L183.6,146.6L181.2,148.8L181.1,148.8L179.0,154.1L181.0,157.3L181.7,160.5L186.0,164.2L185.6,170.9L182.9,174.7L183.2,176.0L180.7,177.1L173.3,178.8L170.7,181.8L171.4,183.7L171.2,187.2L172.2,190.4L174.3,191.7L177.5,192.9L179.0,194.3L180.2,192.1L183.1,195.9L184.8,199.4L186.2,204.9L195.8,206.7L197.7,201.9L203.9,204.1L206.1,207.6L206.5,213.9L210.5,221.0L211.4,224.4L214.6,226.8L219.0,234.6L220.3,238.2L221.6,249.1L222.7,253.6L225.5,256.2L228.9,260.9L233.1,264.8L239.3,268.9L260.4,275.2L262.0,278.4L266.8,284.6L268.7,286.8L271.6,290.8L282.5,315.2L282.5,315.3L282.5,315.3L283.0,315.2L324.9,303.1L326.5,303.5L326.8,294.5L329.4,291.5L334.2,290.8L335.0,290.7L334.9,287.3L344.1,271.4L348.7,265.8L353.7,261.9L359.4,260.7L359.0,256.9L360.8,254.8L366.5,255.2L370.3,247.1L371.0,241.9L374.4,235.5L380.1,234.2L387.1,234.1L393.8,240.6L397.1,241.4L401.8,244.4L407.0,249.2L407.0,250.6L415.2,252.7L417.4,252.6L442.5,233.2L444.1,231.0L442.5,229.1L435.6,222.5L424.6,212.6L406.8,205.7L406.4,202.7L405.1,200.4L401.8,199.7L399.9,200.7L395.9,199.9L388.8,194.5L385.8,190.9L383.2,190.3L387.9,189.0L380.9,182.4L380.8,179.9L384.0,180.0L382.2,177.5L382.4,174.8L384.2,172.8L384.3,169.6L386.3,168.0L389.2,169.0L391.3,168.3L389.3,164.4L382.4,158.3L376.2,151.6L371.5,144.4L367.1,141.9L367.8,139.0L363.5,136.0L363.8,133.2L359.6,131.0L357.1,132.4L354.7,130.4L350.8,125.3L349.6,126.1L345.6,126.3L346.1,126.4Z " data-id="KZ.AT" data-name="Aqtöbe" id="KZ.AT"/>
utf-8utf-8<path d="M408.9,24.7L406.7,22.0L403.6,25.0L396.9,24.1L397.2,26.4L394.6,26.2L392.2,29.6L394.3,32.8L386.4,31.0L382.8,33.1L378.8,31.5L378.0,32.0L372.5,32.5L368.5,33.3L365.2,36.9L360.0,35.6L353.0,38.2L349.2,37.7L347.0,38.4L348.0,39.8L343.0,40.8L340.7,40.3L335.7,41.5L336.9,44.0L336.0,45.2L336.9,46.6L334.5,45.9L332.2,44.3L322.5,42.6L323.5,45.2L317.4,43.1L310.3,43.0L308.2,41.4L303.3,42.6L305.2,45.4L301.8,44.4L299.5,46.3L301.9,46.8L305.9,48.6L306.1,49.2L303.4,54.1L307.4,56.3L312.4,55.7L316.5,56.1L317.9,58.1L314.6,60.2L310.4,58.1L309.5,62.1L312.2,65.0L316.6,65.4L319.5,66.8L323.1,66.0L326.8,68.2L334.2,69.6L336.6,72.1L336.5,74.3L334.2,75.3L330.4,74.0L325.6,74.9L318.4,73.9L310.3,74.3L312.9,75.7L306.3,81.4L307.9,84.5L309.9,84.6L312.1,88.2L314.5,88.7L316.1,91.0L319.1,93.6L312.4,99.4L308.3,99.2L302.8,104.0L298.0,104.0L297.9,104.7L301.7,108.2L302.4,107.2L306.3,108.9L310.9,109.7L311.8,110.4L310.6,114.1L313.3,114.4L314.4,115.4L324.7,116.0L326.5,118.6L329.6,119.7L340.5,122.1L344.2,125.9L345.6,126.3L349.6,126.1L350.8,125.3L354.7,130.4L357.1,132.4L359.6,131.0L363.8,133.2L363.5,136.0L367.8,139.0L367.1,141.9L371.5,144.4L376.2,151.6L382.4,158.3L389.3,164.4L391.3,168.3L389.2,169.0L386.3,168.0L384.3,169.6L384.2,172.8L382.4,174.8L382.2,177.5L384.0,180.0L380.8,179.9L380.9,182.4L387.9,189.0L383.2,190.3L385.8,190.9L388.8,194.5L395.9,199.9L399.9,200.7L401.8,199.7L405.1,200.4L406.4,202.7L406.8,205.7L424.6,212.6L435.6,222.5L439.9,217.9L439.0,214.7L443.6,212.4L446.1,211.6L444.3,209.4L443.5,206.9L446.4,206.8L447.3,201.1L455.1,199.9L466.7,201.3L471.5,200.4L473.0,198.0L475.8,196.6L480.4,196.0L486.6,189.6L489.2,188.8L489.3,185.8L491.8,184.9L493.0,182.4L504.5,170.3L508.1,164.2L506.0,159.3L513.8,157.0L515.5,154.9L516.0,152.4L511.6,150.0L510.6,149.6L509.2,150.7L505.6,151.7L499.6,152.4L494.1,154.9L489.4,151.8L489.9,150.3L489.0,147.8L485.7,146.1L479.0,147.1L469.4,144.7L466.6,143.3L464.2,141.3L456.6,137.5L453.8,137.9L452.6,140.5L449.6,140.7L447.2,135.2L440.7,129.3L438.9,126.3L440.6,123.6L439.7,122.9L438.8,117.3L436.7,115.2L432.0,113.1L431.6,111.3L433.3,111.4L437.5,110.2L440.0,107.0L439.4,103.0L439.6,100.1L440.8,98.3L438.4,91.5L436.5,86.4L435.4,81.6L436.6,80.1L435.4,76.4L432.2,73.1L432.7,71.0L437.7,70.4L439.4,69.2L436.5,67.5L434.3,65.6L432.9,62.4L430.7,58.8L427.4,58.4L425.4,55.8L426.8,54.0L426.0,50.8L423.6,49.0L421.9,48.8L417.8,43.3L419.8,42.0L424.7,40.0L421.8,37.6L418.6,36.6L416.5,35.1L418.9,34.2L411.4,23.9L408.9,24.7Z " data-id="KZ.QS" data-name="Qostanay" id="KZ.QS"/>
utf-8utf-8<path d="M336.3,298.9L340.1,310.3L342.1,311.3L351.6,316.0L347.5,306.8L347.2,304.3L346.0,302.3L344.9,302.8L343.9,300.3L340.2,298.0L339.1,296.3L336.6,299.2L336.3,298.9Z M364.4,289.2L362.5,289.0L359.3,289.9L363.2,290.3L367.6,291.5L369.1,290.7L366.6,290.0L365.5,290.7L364.4,289.2Z M368.5,289.0L366.0,288.9L368.0,289.5L368.5,289.0Z M336.2,290.6L338.9,289.2L340.6,292.2L340.1,293.8L340.7,297.2L343.1,298.6L348.3,296.2L350.3,296.4L350.0,295.0L350.3,287.0L342.7,278.7L348.0,279.1L350.4,281.2L352.1,285.4L351.1,286.9L352.5,287.4L357.2,285.3L358.9,285.1L361.7,286.3L365.9,286.2L374.5,286.8L376.3,284.8L376.0,281.6L373.3,278.7L372.4,277.0L369.1,279.6L363.5,276.3L362.5,276.2L357.6,277.7L353.9,275.6L352.9,274.2L352.5,271.5L358.0,267.3L362.3,271.6L363.2,273.4L363.8,270.0L368.7,271.1L370.8,268.7L365.0,265.7L364.4,264.9L367.2,265.1L371.6,271.0L374.8,273.8L382.4,275.3L384.8,274.9L386.0,276.4L385.6,282.2L376.7,285.4L372.2,290.1L369.1,294.2L363.1,292.7L354.2,292.6L355.2,293.0L355.1,295.7L356.1,302.6L362.6,303.1L365.7,309.1L367.4,317.5L369.7,325.0L390.6,335.4L399.4,340.0L403.7,346.0L411.0,351.3L430.7,366.7L431.3,366.9L460.6,362.6L490.8,364.9L493.1,364.8L502.0,359.8L503.2,359.8L511.7,366.7L515.0,369.0L522.3,372.7L533.5,385.6L540.2,382.1L544.2,399.0L543.5,400.2L543.8,401.1L548.4,401.8L554.2,394.8L557.5,393.1L560.0,393.9L564.1,389.5L574.2,382.3L584.9,376.9L582.7,374.1L581.9,372.0L579.7,371.1L579.8,373.7L578.5,370.7L580.1,368.9L579.8,366.1L580.7,363.3L579.9,360.1L582.9,361.4L583.1,359.0L581.1,355.7L582.2,354.0L584.5,353.9L583.9,352.0L576.6,348.0L572.9,344.6L568.3,343.2L565.4,341.6L557.3,318.1L554.7,316.0L547.9,312.5L546.8,308.9L545.9,301.5L547.0,298.7L544.9,295.6L541.6,293.7L540.3,290.7L538.6,287.6L531.8,287.6L493.8,280.4L487.8,278.2L480.3,273.5L478.0,273.3L444.9,263.0L439.4,262.5L432.3,259.9L428.7,259.5L421.1,255.8L414.0,256.8L414.0,255.5L417.4,252.6L415.2,252.7L407.0,250.6L407.0,249.2L401.8,244.4L397.1,241.4L393.8,240.6L387.1,234.1L380.1,234.2L374.4,235.5L371.0,241.9L370.3,247.1L366.5,255.2L360.8,254.8L359.0,256.9L359.4,260.7L353.7,261.9L348.7,265.8L344.1,271.4L334.9,287.3L335.0,290.7L336.2,290.6Z M428.8,281.9L432.2,278.8L435.8,277.5L443.1,277.8L444.6,278.3L453.5,284.0L454.5,285.1L457.6,291.4L457.7,295.0L455.0,299.9L452.0,301.8L442.1,302.3L437.8,300.7L431.7,296.2L429.1,292.6L428.0,290.1L427.5,286.3L428.8,281.9Z " data-id="KZ.QO" data-name="Qyzylorda" id="KZ.QO"/>
utf-8utf-8<path d="M101.3,282.6L101.2,280.5L99.6,278.9L97.9,278.9L100.9,282.9L101.3,282.6Z M172.2,190.4L168.6,194.2L165.5,196.9L156.8,196.9L155.3,196.6L152.7,200.4L153.9,204.1L151.6,208.9L152.2,213.9L150.8,214.6L141.5,212.2L140.8,213.2L132.3,211.5L132.4,209.0L129.9,207.6L120.1,206.6L115.1,207.6L112.9,209.5L111.3,212.2L106.3,214.1L89.3,225.9L78.3,226.8L78.2,229.1L64.3,225.3L18.6,219.7L18.6,219.7L19.9,224.4L21.7,225.6L19.1,228.0L22.5,231.2L22.7,233.6L28.9,237.0L28.7,233.0L29.7,232.3L35.5,234.5L45.2,234.4L48.9,236.1L56.8,244.4L59.5,245.3L66.5,255.2L76.7,265.5L71.4,268.2L68.6,265.8L67.1,265.5L63.8,268.9L67.0,271.0L69.8,272.1L74.3,274.5L76.2,274.4L80.2,276.8L85.5,279.0L83.9,276.5L85.6,275.0L87.2,275.2L85.6,271.1L88.0,272.5L94.1,273.3L94.0,271.5L96.0,273.3L95.7,272.0L98.7,272.6L98.7,271.6L102.9,269.8L104.1,268.1L110.2,262.8L110.7,264.0L114.4,262.0L115.5,260.3L119.2,260.9L120.5,258.0L123.4,256.5L126.5,255.8L128.9,254.6L136.6,256.4L139.9,258.7L140.0,256.8L141.7,257.7L141.6,259.0L147.4,260.5L146.7,261.6L150.2,261.3L153.8,264.1L157.1,264.2L155.1,261.9L157.0,262.4L159.2,261.6L160.3,258.3L164.0,259.5L169.4,260.1L172.7,259.6L175.4,261.6L176.5,261.5L180.9,269.7L180.1,270.1L178.5,274.3L180.4,273.5L183.7,278.8L184.6,285.8L183.9,291.6L181.2,296.3L180.9,296.6L185.6,297.5L197.4,294.8L202.1,291.8L200.1,290.3L201.9,288.2L204.7,283.6L208.7,282.5L227.3,279.0L235.8,278.6L240.4,274.5L246.4,278.3L247.9,277.4L250.4,279.1L251.4,282.1L254.5,283.2L256.8,283.0L259.8,285.2L262.3,285.0L265.7,285.6L268.7,286.8L266.8,284.6L262.0,278.4L260.4,275.2L239.3,268.9L233.1,264.8L228.9,260.9L225.5,256.2L222.7,253.6L221.6,249.1L220.3,238.2L219.0,234.6L214.6,226.8L211.4,224.4L210.5,221.0L206.5,213.9L206.1,207.6L203.9,204.1L197.7,201.9L195.8,206.7L186.2,204.9L184.8,199.4L183.1,195.9L180.2,192.1L179.0,194.3L177.5,192.9L174.3,191.7L172.2,190.4Z " data-id="KZ.AR" data-name="Atyrau" id="KZ.AR"/>
utf-8utf-8<path d="M180.1,149.0L178.3,148.3L176.2,146.1L176.6,139.1L168.5,135.7L165.5,131.9L159.4,128.5L158.2,128.7L149.7,123.5L148.7,121.6L141.9,119.2L140.0,119.0L131.9,120.1L132.1,119.5L124.5,120.1L121.6,118.6L117.9,114.2L115.9,111.0L112.4,112.2L111.0,114.2L105.5,113.8L103.8,116.2L105.1,119.3L102.3,120.5L99.4,118.0L98.7,119.3L93.8,119.9L91.6,117.7L93.9,117.4L93.4,114.9L88.7,113.9L82.7,113.6L78.2,111.1L77.8,111.6L80.3,116.1L79.8,116.6L75.3,114.9L74.2,117.5L75.1,120.0L69.2,126.2L64.2,127.3L61.4,129.7L54.5,131.3L51.9,130.9L51.0,135.5L53.6,138.0L53.5,139.0L50.9,140.4L47.7,141.1L45.4,144.1L41.7,146.8L39.5,146.7L35.9,145.2L38.0,147.3L40.8,154.8L43.5,158.6L44.6,161.7L46.4,162.1L47.6,165.4L46.2,167.2L38.2,171.0L30.8,166.8L28.2,162.7L23.7,158.8L17.0,153.7L12.0,151.2L7.1,156.1L7.5,160.3L9.5,162.9L6.8,166.8L2.0,168.7L1.1,170.7L1.9,185.8L7.6,188.5L9.8,193.1L9.1,194.6L4.6,198.8L1.7,214.4L14.9,218.0L18.5,219.4L18.6,219.7L64.3,225.3L78.2,229.1L78.3,226.8L89.3,225.9L106.3,214.1L111.3,212.2L112.9,209.5L115.1,207.6L120.1,206.6L129.9,207.6L132.4,209.0L132.3,211.5L140.8,213.2L141.5,212.2L150.8,214.6L152.2,213.9L151.6,208.9L153.9,204.1L152.7,200.4L155.3,196.6L156.8,196.9L165.5,196.9L168.6,194.2L172.2,190.4L171.2,187.2L171.4,183.7L170.7,181.8L173.3,178.8L180.7,177.1L183.2,176.0L182.9,174.7L185.6,170.9L186.0,164.2L181.7,160.5L181.0,157.3L179.0,154.1L181.1,148.8L180.1,149.0Z " data-id="KZ.WK" data-name="West Kazakhstan" id="KZ.WK"/>
utf-8utf-8<path d="M618.2,86.1L612.7,83.4L601.5,80.8L599.1,80.6L596.9,76.9L594.3,73.5L592.3,72.1L588.0,73.6L583.5,73.6L579.8,76.2L572.2,76.0L568.6,75.1L566.3,73.0L566.9,71.5L565.7,68.4L566.0,67.4L558.4,61.9L553.7,64.2L547.0,63.4L544.9,60.8L539.0,61.0L535.9,61.4L536.0,63.5L534.4,64.1L534.8,66.1L532.8,65.4L530.5,63.6L527.6,62.3L523.1,62.4L523.6,58.9L522.5,58.4L518.0,58.6L517.1,56.6L512.2,52.5L508.2,52.7L505.1,54.5L505.2,58.2L501.1,54.7L498.1,53.1L494.2,54.6L489.9,54.5L490.5,56.9L488.1,57.2L489.7,58.7L488.3,59.1L486.2,61.2L491.1,65.1L493.9,66.0L498.1,70.0L498.7,73.3L497.4,74.5L498.0,80.5L493.9,86.2L492.7,86.1L488.7,88.1L487.2,88.2L487.9,89.6L490.4,91.4L487.4,95.7L484.9,95.2L478.3,92.4L474.9,91.7L472.5,92.1L474.0,96.6L467.1,97.4L458.5,96.2L455.6,96.1L453.5,94.0L448.0,94.1L445.9,94.7L443.2,92.5L438.4,91.5L440.8,98.3L439.6,100.1L439.4,103.0L440.0,107.0L437.5,110.2L433.3,111.4L431.6,111.3L432.0,113.1L436.7,115.2L438.8,117.3L439.7,122.9L440.6,123.6L438.9,126.3L440.7,129.3L447.2,135.2L449.6,140.7L452.6,140.5L453.8,137.9L456.6,137.5L464.2,141.3L466.6,143.3L469.4,144.7L479.0,147.1L485.7,146.1L489.0,147.8L489.9,150.3L489.4,151.8L494.1,154.9L499.6,152.4L505.6,151.7L509.2,150.7L510.6,149.6L509.2,147.4L507.7,146.2L516.3,146.2L524.2,141.9L530.1,143.6L531.3,147.0L532.0,159.4L541.0,161.6L544.5,158.9L545.8,158.8L546.8,154.9L550.8,155.4L554.3,157.6L554.7,159.3L559.1,159.6L564.7,158.2L569.1,160.6L568.3,163.1L570.2,165.5L577.1,162.9L576.6,157.9L579.4,156.8L582.1,158.5L581.3,155.5L581.1,152.4L585.2,150.6L585.9,148.4L590.2,146.7L591.2,143.5L593.4,142.4L598.7,143.0L602.2,145.1L602.8,151.7L603.3,152.9L606.6,151.8L613.3,152.3L612.4,149.1L613.9,147.8L617.3,148.8L616.5,144.3L621.4,142.5L622.7,138.4L627.2,139.1L630.4,136.9L629.5,135.9L634.4,134.2L636.9,131.4L633.0,130.1L630.9,131.1L627.0,127.5L627.1,126.4L632.6,126.0L637.3,126.5L638.3,125.0L638.7,121.8L640.4,120.5L645.6,118.9L647.1,117.9L640.9,116.0L639.8,114.9L635.4,115.3L634.0,112.3L634.3,109.1L636.8,106.6L628.6,89.5L626.8,87.1L625.8,86.5L618.2,86.1Z M587.9,134.6L585.4,134.5L580.5,130.8L578.1,127.1L580.3,125.0L583.9,126.4L587.7,129.5L588.3,131.4L587.9,134.6Z " data-id="KZ.AM" data-name="Aqmola" id="KZ.AM"/>
utf-8utf-8<path d="M632.6,126.0L627.1,126.4L627.0,127.5L630.9,131.1L633.0,130.1L636.9,131.4L634.4,134.2L629.5,135.9L630.4,136.9L627.2,139.1L622.7,138.4L621.4,142.5L616.5,144.3L617.3,148.8L613.9,147.8L612.4,149.1L613.3,152.3L606.6,151.8L603.3,152.9L602.8,151.7L602.2,145.1L598.7,143.0L593.4,142.4L591.2,143.5L590.2,146.7L585.9,148.4L585.2,150.6L581.1,152.4L581.3,155.5L582.1,158.5L579.4,156.8L576.6,157.9L577.1,162.9L570.2,165.5L568.3,163.1L569.1,160.6L564.7,158.2L559.1,159.6L554.7,159.3L554.3,157.6L550.8,155.4L546.8,154.9L545.8,158.8L544.5,158.9L541.0,161.6L532.0,159.4L531.3,147.0L530.1,143.6L524.2,141.9L516.3,146.2L507.7,146.2L509.2,147.4L510.6,149.6L511.6,150.0L516.0,152.4L515.5,154.9L513.8,157.0L506.0,159.3L508.1,164.2L504.5,170.3L493.0,182.4L491.8,184.9L489.3,185.8L489.2,188.8L486.6,189.6L480.4,196.0L475.8,196.6L473.0,198.0L471.5,200.4L466.7,201.3L455.1,199.9L447.3,201.1L446.4,206.8L443.5,206.9L444.3,209.4L446.1,211.6L443.6,212.4L439.0,214.7L439.9,217.9L435.6,222.5L442.5,229.1L444.1,231.0L442.5,233.2L417.4,252.6L414.0,255.5L414.0,256.8L421.1,255.8L428.7,259.5L432.3,259.9L439.4,262.5L444.9,263.0L478.0,273.3L480.3,273.5L487.8,278.2L493.8,280.4L531.8,287.6L538.6,287.6L540.3,290.7L587.9,291.3L713.3,290.8L722.6,277.0L735.4,268.3L741.3,268.6L747.5,268.0L754.2,268.2L758.8,269.2L764.1,268.9L765.2,268.4L768.4,269.2L775.0,272.0L771.3,269.1L774.9,269.4L778.5,270.4L780.0,272.2L782.3,272.0L790.2,268.4L788.8,264.0L783.7,252.9L777.2,253.2L776.8,255.5L771.2,254.4L765.3,250.7L766.3,250.2L766.1,246.0L770.1,245.0L765.5,238.8L765.0,231.6L765.7,229.3L765.6,226.6L768.4,225.0L761.6,222.6L760.1,220.2L762.2,219.4L757.1,218.4L752.6,215.3L753.6,212.1L756.2,212.0L758.7,210.3L760.1,208.1L759.5,205.0L757.9,201.8L753.7,201.6L748.4,202.2L745.6,200.4L744.1,196.7L747.1,194.5L742.7,192.0L742.1,190.7L738.8,188.6L735.5,187.3L733.1,185.2L734.7,180.9L738.9,179.2L742.5,176.1L741.8,172.9L739.8,168.3L744.8,165.6L748.4,161.3L748.9,158.9L747.0,158.0L744.8,153.2L742.7,150.9L736.5,148.8L731.0,147.5L728.2,145.7L724.7,145.6L721.4,150.1L723.0,156.9L719.6,156.0L714.7,156.9L714.1,159.2L710.7,158.2L702.0,159.6L699.8,159.1L699.0,160.5L692.1,160.5L690.4,162.2L685.8,165.1L683.4,164.5L681.1,162.4L685.9,158.1L680.9,155.0L681.3,154.5L673.8,149.8L672.2,151.4L670.0,149.9L669.2,147.4L663.3,145.5L662.3,146.3L655.1,147.3L651.6,145.3L650.1,141.0L651.0,140.5L649.5,134.8L649.4,133.2L646.1,128.9L637.3,126.5L632.6,126.0Z " data-id="KZ.QG" data-name="Qaraghandy" id="KZ.QG"/>
utf-8utf-8<path d="M411.4,23.9L418.9,34.2L416.5,35.1L418.6,36.6L421.8,37.6L424.7,40.0L419.8,42.0L417.8,43.3L421.9,48.8L423.6,49.0L426.0,50.8L426.8,54.0L425.4,55.8L427.4,58.4L430.7,58.8L432.9,62.4L434.3,65.6L436.5,67.5L439.4,69.2L437.7,70.4L432.7,71.0L432.2,73.1L435.4,76.4L436.6,80.1L435.4,81.6L436.5,86.4L438.4,91.5L443.2,92.5L445.9,94.7L448.0,94.1L453.5,94.0L455.6,96.1L458.5,96.2L467.1,97.4L474.0,96.6L472.5,92.1L474.9,91.7L478.3,92.4L484.9,95.2L487.4,95.7L490.4,91.4L487.9,89.6L487.2,88.2L488.7,88.1L492.7,86.1L493.9,86.2L498.0,80.5L497.4,74.5L498.7,73.3L498.1,70.0L493.9,66.0L491.1,65.1L486.2,61.2L488.3,59.1L489.7,58.7L488.1,57.2L490.5,56.9L489.9,54.5L494.2,54.6L498.1,53.1L501.1,54.7L505.2,58.2L505.1,54.5L508.2,52.7L512.2,52.5L517.1,56.6L518.0,58.6L522.5,58.4L523.6,58.9L523.1,62.4L527.6,62.3L530.5,63.6L532.8,65.4L534.8,66.1L534.4,64.1L536.0,63.5L535.9,61.4L539.0,61.0L544.9,60.8L547.0,63.4L553.7,64.2L558.4,61.9L566.0,67.4L565.7,68.4L566.9,71.5L566.3,73.0L568.6,75.1L572.2,76.0L579.8,76.2L583.5,73.6L588.0,73.6L592.3,72.1L594.3,73.5L596.9,76.9L599.1,80.6L601.5,80.8L612.7,83.4L618.2,86.1L625.8,86.5L623.5,85.2L619.9,84.4L622.1,83.2L623.4,84.3L623.7,80.1L623.3,77.8L620.7,76.0L618.2,76.5L617.6,79.1L614.5,78.6L612.3,74.3L610.4,75.1L612.4,67.5L609.3,66.6L606.5,69.5L604.8,67.8L603.9,65.5L606.4,64.5L601.3,59.8L600.8,60.3L598.6,59.5L598.8,57.6L594.3,56.0L593.6,52.8L594.5,52.6L595.9,48.9L594.5,48.3L599.9,47.4L600.7,46.1L599.5,41.4L597.2,40.8L593.9,44.2L584.6,43.8L582.9,42.1L572.1,39.1L570.9,39.2L570.4,41.6L573.4,41.5L575.7,43.3L575.8,44.6L573.1,43.8L569.7,45.9L568.9,42.6L566.4,40.3L568.8,39.1L563.8,37.7L562.1,35.2L557.7,32.0L555.0,31.7L557.3,33.7L557.4,35.9L561.6,38.5L561.5,39.0L554.9,36.0L549.7,37.4L550.5,38.7L549.3,39.8L547.3,39.2L545.3,39.8L544.4,38.3L540.4,37.1L539.5,39.0L531.3,35.0L530.7,33.9L535.7,33.5L531.1,26.1L533.0,23.9L530.9,21.6L525.0,19.8L521.8,15.9L521.9,14.6L520.1,10.7L513.6,6.0L512.2,3.8L509.6,3.8L507.2,5.0L504.7,4.5L504.2,7.0L501.1,9.0L486.0,3.0L481.2,2.5L474.7,3.3L472.3,1.1L466.8,0.5L469.9,4.9L466.0,2.7L462.9,2.2L463.5,4.8L460.1,7.5L454.9,7.2L455.3,10.0L457.6,10.8L455.8,14.3L452.3,14.7L449.0,13.9L446.0,17.0L438.7,17.6L437.0,17.2L434.7,19.3L430.5,20.1L425.9,20.3L418.7,21.7L411.4,23.9Z " data-id="KZ.NK" data-name="North Kazakhstan" id="KZ.NK"/>
utf-8utf-8<path d="M601.3,59.8L606.4,64.5L603.9,65.5L604.8,67.8L606.5,69.5L609.3,66.6L612.4,67.5L610.4,75.1L612.3,74.3L614.5,78.6L617.6,79.1L618.2,76.5L620.7,76.0L623.3,77.8L623.7,80.1L623.4,84.3L622.1,83.2L619.9,84.4L623.5,85.2L625.8,86.5L626.8,87.1L628.6,89.5L636.8,106.6L634.3,109.1L634.0,112.3L635.4,115.3L639.8,114.9L640.9,116.0L647.1,117.9L645.6,118.9L640.4,120.5L638.7,121.8L638.3,125.0L637.3,126.5L646.1,128.9L649.4,133.2L649.5,134.8L651.0,140.5L650.1,141.0L651.6,145.3L655.1,147.3L662.3,146.3L663.3,145.5L669.2,147.4L670.0,149.9L672.2,151.4L673.8,149.8L681.3,154.5L680.9,155.0L685.9,158.1L681.1,162.4L683.4,164.5L685.8,165.1L690.4,162.2L692.1,160.5L699.0,160.5L699.8,159.1L702.0,159.6L710.7,158.2L714.1,159.2L714.7,156.9L719.6,156.0L723.0,156.9L721.4,150.1L724.7,145.6L728.2,145.7L731.0,147.5L736.5,148.8L742.7,150.9L744.8,153.2L747.0,158.0L748.9,158.9L750.8,158.7L754.9,160.9L761.0,162.7L769.2,164.3L772.3,160.3L773.3,154.3L770.7,151.5L769.3,150.8L768.0,147.7L765.3,143.5L757.5,140.3L747.4,133.5L746.2,132.1L748.0,130.1L753.5,128.0L758.7,125.3L757.9,122.8L758.1,121.0L761.2,120.6L763.9,119.4L763.4,117.2L766.2,115.9L766.3,113.4L764.3,111.6L732.6,84.4L712.9,68.3L708.8,65.1L700.2,60.0L666.8,44.3L664.5,41.9L660.5,38.7L662.7,38.2L668.2,38.0L669.0,33.4L666.8,30.8L668.1,29.1L663.3,30.0L663.6,32.1L660.3,33.4L654.2,32.6L654.5,35.5L643.1,40.3L640.5,40.0L637.8,41.3L640.6,43.5L633.6,48.9L627.2,48.2L627.1,50.4L621.6,53.6L623.4,56.1L623.3,59.4L619.8,57.8L619.3,56.6L612.8,54.3L609.3,54.0L607.5,55.2L603.9,54.9L604.2,56.3L602.8,56.6L602.4,58.5L601.3,59.8Z " data-id="KZ.PA" data-name="Pavlodar" id="KZ.PA"/>
utf-8utf-8<path d="M766.3,113.4L766.2,115.9L763.4,117.2L763.9,119.4L761.2,120.6L758.1,121.0L757.9,122.8L758.7,125.3L753.5,128.0L748.0,130.1L746.2,132.1L747.4,133.5L757.5,140.3L765.3,143.5L768.0,147.7L769.3,150.8L770.7,151.5L773.3,154.3L772.3,160.3L769.2,164.3L761.0,162.7L754.9,160.9L750.8,158.7L748.9,158.9L748.4,161.3L744.8,165.6L739.8,168.3L741.8,172.9L742.5,176.1L738.9,179.2L734.7,180.9L733.1,185.2L735.5,187.3L738.8,188.6L742.1,190.7L742.7,192.0L747.1,194.5L744.1,196.7L745.6,200.4L748.4,202.2L753.7,201.6L757.9,201.8L759.5,205.0L760.1,208.1L758.7,210.3L756.2,212.0L753.6,212.1L752.6,215.3L757.1,218.4L762.2,219.4L760.1,220.2L761.6,222.6L768.4,225.0L765.6,226.6L765.7,229.3L765.0,231.6L765.5,238.8L770.1,245.0L766.1,246.0L766.3,250.2L765.3,250.7L771.2,254.4L776.8,255.5L777.2,253.2L783.7,252.9L785.2,252.0L790.3,252.7L794.2,250.2L796.3,251.7L799.3,248.8L807.8,252.3L810.3,253.8L812.9,254.1L815.4,256.2L821.4,256.3L828.4,257.3L835.0,262.6L847.9,262.1L854.9,264.1L855.6,265.4L858.0,266.5L870.5,271.0L878.0,272.5L883.8,274.1L886.5,274.1L888.1,275.4L893.6,277.3L895.7,279.7L905.4,287.4L909.2,292.4L912.9,295.4L915.8,299.0L916.7,302.2L921.4,303.2L921.2,302.3L921.4,300.7L920.1,283.3L920.8,274.1L920.0,266.6L919.0,251.6L920.9,251.5L927.5,253.8L932.8,256.2L943.5,259.1L948.2,259.3L952.1,258.3L962.2,258.8L965.3,260.9L965.7,263.9L970.6,262.6L974.8,257.6L975.9,256.9L980.4,256.7L981.9,255.7L981.8,252.8L983.8,252.2L982.3,247.0L979.1,243.9L977.7,242.0L976.8,238.9L970.7,229.7L969.5,222.8L970.6,214.5L975.8,213.8L980.6,214.2L983.0,211.9L985.5,212.1L990.0,204.5L989.3,201.1L986.5,198.8L986.0,195.5L993.2,192.1L998.9,193.5L996.6,190.4L992.6,188.6L990.6,188.8L985.9,186.1L984.9,184.0L981.1,182.2L980.5,180.3L973.7,177.9L974.1,175.9L976.6,174.6L975.0,172.0L971.9,171.5L968.2,176.7L966.9,177.2L965.3,181.7L961.8,179.8L959.9,181.3L958.2,178.8L954.8,179.3L953.2,178.3L943.3,177.1L941.3,178.1L936.6,173.4L929.0,168.0L927.1,162.8L923.7,162.7L919.0,160.5L912.7,158.1L909.4,158.6L906.7,157.1L902.3,151.6L902.1,149.9L892.7,143.0L891.8,141.1L886.2,138.1L885.1,138.1L878.4,136.0L876.2,134.6L873.3,134.3L868.3,135.8L866.7,138.0L863.4,137.7L860.0,138.0L861.0,140.2L857.0,143.2L852.9,142.0L849.8,143.5L843.3,141.5L838.7,141.0L831.3,142.3L830.8,139.5L827.4,135.6L824.4,135.5L820.6,136.3L818.6,133.4L818.4,129.0L812.6,128.1L810.2,125.6L804.7,125.2L803.6,128.2L800.5,129.2L801.3,131.2L803.5,133.0L799.1,139.7L796.2,138.9L798.5,142.0L794.3,139.7L792.9,138.1L773.1,119.3L768.7,115.5L766.3,113.4Z " data-id="KZ.EK" data-name="East Kazakhstan" id="KZ.EK"/>
utf-8utf-8<path d="M783.7,252.9L788.8,264.0L790.2,268.4L782.3,272.0L780.0,272.2L778.5,270.4L774.9,269.4L771.3,269.1L775.0,272.0L768.4,269.2L765.2,268.4L764.1,268.9L758.8,269.2L754.2,268.2L747.5,268.0L741.3,268.6L735.4,268.3L722.6,277.0L713.3,290.8L712.1,296.3L714.1,303.8L718.7,312.0L712.6,312.4L712.8,315.0L716.0,317.9L721.1,318.5L722.5,321.2L724.3,323.2L736.8,331.0L738.8,335.2L741.3,338.4L746.2,341.5L752.0,342.2L757.1,344.3L763.2,348.7L764.2,352.1L764.1,354.9L761.1,364.6L766.6,365.4L767.7,366.4L770.0,366.4L772.5,367.4L771.1,372.7L777.1,378.6L780.5,379.7L783.2,381.3L781.9,382.4L787.0,383.1L788.1,383.8L789.4,383.7L793.2,384.4L794.7,383.9L799.6,384.3L804.5,385.2L811.3,384.5L813.5,383.0L817.4,382.4L820.4,382.8L824.6,384.6L827.3,385.0L837.0,384.7L839.5,385.6L845.7,386.3L852.9,386.4L854.4,385.6L860.1,386.4L863.0,387.8L872.3,389.3L874.9,388.3L877.9,392.4L887.1,398.6L892.7,398.5L898.7,399.5L907.6,406.2L908.9,406.8L909.8,405.3L905.6,398.9L905.5,397.5L902.8,394.4L902.7,387.5L909.6,385.6L905.1,383.2L903.2,381.0L907.5,378.2L912.8,377.9L906.7,371.8L906.9,367.7L889.3,346.2L885.1,335.9L884.8,333.6L886.2,328.7L878.2,326.0L874.0,326.8L869.0,325.0L868.4,323.0L872.7,319.3L875.7,319.5L880.0,318.6L880.1,317.5L882.8,317.2L886.3,315.9L890.4,316.4L905.7,311.3L907.2,310.0L910.1,309.9L913.2,314.3L917.8,315.9L922.9,313.5L926.9,314.0L932.9,316.5L933.2,312.7L932.6,309.9L930.9,306.9L921.5,303.9L921.4,303.2L916.7,302.2L915.8,299.0L912.9,295.4L909.2,292.4L905.4,287.4L895.7,279.7L893.6,277.3L888.1,275.4L886.5,274.1L883.8,274.1L878.0,272.5L870.5,271.0L858.0,266.5L855.6,265.4L854.9,264.1L847.9,262.1L835.0,262.6L828.4,257.3L821.4,256.3L815.4,256.2L812.9,254.1L810.3,253.8L807.8,252.3L799.3,248.8L796.3,251.7L794.2,250.2L790.3,252.7L785.2,252.0L783.7,252.9Z M815.3,375.0L814.6,375.9L810.4,375.0L811.8,369.9L814.4,370.2L815.3,375.0Z " data-id="KZ.AA" data-name="Almaty" id="KZ.AA"/>
utf-8utf-8<path d="M132.1,322.2L133.7,324.7L134.6,324.4L132.1,322.2Z M116.3,322.5L115.6,318.6L114.9,321.3L120.6,325.6L120.8,324.6L116.3,322.5Z M123.1,317.7L121.9,321.5L123.4,321.2L123.1,317.7Z M179.8,307.8L177.2,304.1L175.9,306.2L179.8,307.8Z M180.9,296.7L180.0,299.8L179.1,300.6L179.4,302.9L181.6,304.9L193.8,308.9L190.2,311.0L188.7,310.6L181.1,309.6L176.5,308.0L172.3,307.7L160.5,308.9L155.7,306.2L153.2,309.2L150.0,310.0L147.6,308.3L147.6,310.1L146.0,312.4L146.9,319.6L144.6,318.3L140.1,323.8L140.6,325.1L147.3,328.3L151.4,332.8L154.3,332.4L158.3,335.0L150.8,334.6L149.7,335.8L147.0,336.1L143.5,334.3L140.5,332.0L137.8,331.6L134.1,332.0L132.7,331.4L126.2,331.2L125.4,330.8L126.3,340.3L128.9,341.6L138.1,343.0L143.1,346.4L145.6,351.1L148.0,353.6L153.3,361.5L156.1,363.1L159.9,367.6L161.2,377.1L169.6,376.4L171.4,376.9L171.8,378.8L179.8,386.7L183.2,385.6L187.1,386.0L189.3,388.0L191.5,387.0L198.4,388.8L201.8,391.0L202.3,394.3L201.3,394.9L201.4,399.7L200.8,400.4L198.1,407.1L197.9,409.8L200.7,413.8L201.3,420.4L207.9,412.8L212.4,408.7L222.5,404.7L238.1,402.0L242.1,402.8L258.1,411.1L263.3,414.7L270.5,423.6L276.1,429.8L279.0,431.5L281.1,434.1L283.9,435.6L287.1,435.4L293.7,433.5L295.5,433.6L282.7,384.1L265.6,320.5L280.8,315.9L282.5,315.3L282.5,315.3L282.5,315.2L271.6,290.8L268.7,286.8L265.7,285.6L262.3,285.0L259.8,285.2L256.8,283.0L254.5,283.2L251.4,282.1L250.4,279.1L247.9,277.4L246.4,278.3L240.4,274.5L235.8,278.6L227.3,279.0L208.7,282.5L204.7,283.6L201.9,288.2L200.1,290.3L202.1,291.8L197.4,294.8L185.6,297.5L180.9,296.6L180.9,296.7Z " data-id="KZ.MG" data-name="Mangghystau" id="KZ.MG"/>
utf-8utf-8<path d="M668.8,402.2L663.5,398.7L653.9,391.9L650.7,391.0L648.7,389.2L647.0,384.3L644.4,381.4L644.6,380.4L641.6,379.0L640.4,377.0L634.8,375.1L632.6,375.0L628.4,373.7L624.8,369.6L623.3,369.2L624.9,365.5L625.6,349.3L626.0,348.2L625.1,345.9L617.3,330.7L602.4,308.3L592.6,295.8L587.9,291.3L540.3,290.7L541.6,293.7L544.9,295.6L547.0,298.7L545.9,301.5L546.8,308.9L547.9,312.5L554.7,316.0L557.3,318.1L565.4,341.6L568.3,343.2L572.9,344.6L576.6,348.0L583.9,352.0L584.5,353.9L582.2,354.0L581.1,355.7L583.1,359.0L582.9,361.4L579.9,360.1L580.7,363.3L579.8,366.1L580.1,368.9L578.5,370.7L579.8,373.7L579.7,371.1L581.9,372.0L582.7,374.1L584.9,376.9L574.2,382.3L564.1,389.5L560.0,393.9L557.5,393.1L554.2,394.8L548.4,401.8L543.8,401.1L545.3,406.2L547.0,412.2L560.0,412.8L563.2,420.6L569.6,432.9L573.6,438.7L575.9,439.2L599.5,437.9L603.1,438.2L604.2,437.4L609.4,442.3L611.0,444.3L610.5,449.9L615.4,453.0L620.0,455.2L623.7,456.2L626.6,455.2L623.8,445.8L629.1,438.7L632.4,436.8L631.6,433.1L633.3,430.4L639.1,429.0L638.4,426.7L643.1,422.9L650.0,421.5L650.8,420.2L654.2,417.7L658.0,410.7L660.4,409.8L663.8,412.1L664.8,411.8L668.2,406.8L670.4,404.8L668.4,402.7L668.8,402.2Z " data-id="KZ.SK" data-name="South Kazakhstan" id="KZ.SK"/>
utf-8utf-8<path d="M713.3,290.8L587.9,291.3L592.6,295.8L602.4,308.3L617.3,330.7L625.1,345.9L626.0,348.2L625.6,349.3L624.9,365.5L623.3,369.2L624.8,369.6L628.4,373.7L632.6,375.0L634.8,375.1L640.4,377.0L641.6,379.0L644.6,380.4L644.4,381.4L647.0,384.3L648.7,389.2L650.7,391.0L653.9,391.9L663.5,398.7L668.8,402.2L669.0,401.9L669.7,397.9L671.5,398.6L669.5,395.3L672.1,391.4L676.4,389.7L677.9,388.1L682.3,389.2L684.5,387.6L689.6,387.5L697.0,389.1L700.3,389.2L708.6,391.7L712.5,392.5L719.3,396.1L722.4,395.6L728.1,396.8L730.2,399.4L735.1,400.2L730.3,393.3L730.9,388.2L729.6,385.6L729.9,381.3L731.3,379.9L737.4,377.8L738.1,375.2L740.4,376.3L744.6,375.6L743.0,373.8L745.6,375.2L753.7,378.1L756.3,380.1L775.4,386.6L786.0,387.5L787.8,383.8L788.1,383.8L787.0,383.1L781.9,382.4L783.2,381.3L780.5,379.7L777.1,378.6L771.1,372.7L772.5,367.4L770.0,366.4L767.7,366.4L766.6,365.4L761.1,364.6L764.1,354.9L764.2,352.1L763.2,348.7L757.1,344.3L752.0,342.2L746.2,341.5L741.3,338.4L738.8,335.2L736.8,331.0L724.3,323.2L722.5,321.2L721.1,318.5L716.0,317.9L712.8,315.0L712.6,312.4L718.7,312.0L714.1,303.8L712.1,296.3L713.3,290.8Z " data-id="KZ.ZM" data-name="Zhambyl" id="KZ.ZM"/>
utf-8utf-8<path d="M815.3,375.0L814.4,370.2L811.8,369.9L810.4,375.0L814.6,375.9L815.3,375.0Z " data-id="KZ.AC" data-name="Almaty City" id="KZ.AC"/>
utf-8utf-8<path d="M587.9,134.6L588.3,131.4L587.7,129.5L583.9,126.4L580.3,125.0L578.1,127.1L580.5,130.8L585.4,134.5L587.9,134.6Z " data-id="KZ.AS" data-name="Astana" id="KZ.AS"/>
utf-8</g>
</svg>
