<?xml version="1.0" ?>
<!DOCTYPE svg
  PUBLIC '-//W3C//DTD SVG 1.1//EN'
  'http://www.w3.org/Graphics/SVG/1.1/DTD/svg11.dtd'>
<svg enable_background="new 0 0 1000 1172" height="1172px" pretty_print="True" style="stroke-linejoin: round; stroke:#000; fill: none;" version="1.1" viewBox="0 0 1000 1172" width="1000px" xmlns="http://www.w3.org/2000/svg" xmlns:xlink="http://www.w3.org/1999/xlink">
utf-8<defs>
utf-8utf-8<style type="text/css">
<![CDATA[path { fill-rule: evenodd; }]]>utf-8utf-8</style>
utf-8</defs>
utf-8<metadata>
utf-8utf-8<views>
utf-8utf-8utf-8<view h="1172.13581888" padding="0" w="1000">
utf-8utf-8utf-8utf-8<proj flip="auto" id="robinson" lon0="100.739546696"/>
utf-8utf-8utf-8utf-8<bbox h="143.87" w="122.85" x="1455.44" y="-377.21"/>
utf-8utf-8utf-8</view>
utf-8utf-8</views>
utf-8</metadata>
utf-8<g class="" id="provinces">
utf-8utf-8<path d="M131.2,297.3L123.3,299.5L115.7,297.5L112.9,296.4L108.0,292.5L106.5,284.5L103.8,279.7L100.6,275.4L96.9,272.7L88.3,273.8L84.2,272.2L82.2,265.1L81.4,259.4L77.4,253.2L75.8,250.1L73.6,247.4L70.7,245.2L68.3,242.7L65.4,236.5L60.5,232.6L54.8,230.8L50.8,225.8L49.9,226.7L46.7,228.8L43.0,230.2L40.3,230.3L35.0,228.8L24.5,226.9L22.3,227.4L19.0,233.1L14.6,234.7L13.0,236.4L10.6,240.5L7.8,243.6L6.4,249.2L4.4,253.3L4.1,257.3L3.1,260.9L2.5,265.6L2.9,277.7L2.4,282.0L2.6,284.9L0.5,290.9L0.4,292.8L1.8,301.7L2.8,304.4L4.8,306.5L7.1,307.7L9.2,307.7L10.7,305.7L9.8,300.4L13.6,298.0L15.0,292.7L16.9,289.5L20.0,286.9L24.2,285.8L28.8,287.1L31.6,290.0L40.8,306.2L47.7,315.0L49.8,315.9L53.5,319.1L57.7,318.8L59.0,325.8L58.9,331.2L55.7,349.6L55.8,354.4L54.8,358.7L50.3,362.4L49.6,366.2L48.4,368.4L52.3,369.0L57.6,370.5L61.6,370.4L65.4,369.5L68.6,367.0L71.2,367.2L75.7,365.3L77.3,365.7L87.4,359.7L88.9,357.9L85.6,351.8L84.6,346.2L93.7,342.4L104.4,342.0L109.1,339.1L111.5,336.0L113.4,332.6L113.8,327.8L117.2,325.1L121.7,324.2L129.4,329.7L133.5,330.3L136.9,328.1L139.2,325.2L140.4,321.8L138.4,306.6L136.2,301.4L135.1,298.3L131.2,297.3Z " data-id="LA.BK" data-name="Bokeo" id="LA.BK"/>
utf-8utf-8<path d="M181.2,183.4L180.1,184.4L174.2,185.6L172.1,184.1L169.3,179.8L167.2,178.2L165.0,178.1L160.7,180.3L158.9,180.0L158.8,174.9L156.7,172.9L152.5,171.4L147.2,170.9L134.2,173.6L132.1,174.6L127.0,178.8L122.7,180.2L120.8,179.5L115.0,172.1L113.4,170.5L113.8,165.5L111.8,161.1L113.2,158.3L114.0,154.4L105.7,149.0L104.8,146.1L105.4,135.0L104.7,131.0L102.9,128.8L101.1,128.6L101.5,133.1L100.0,134.0L85.8,148.6L75.7,154.9L74.1,155.5L69.7,161.1L65.7,163.0L63.1,163.4L56.4,161.1L54.9,161.5L55.1,165.7L53.8,182.3L49.6,194.5L48.5,196.6L46.5,198.0L41.3,199.2L39.3,200.2L41.7,205.1L39.0,211.2L38.9,219.5L41.4,221.2L51.6,219.2L55.1,220.0L55.3,220.8L52.7,223.9L50.8,225.8L54.8,230.8L60.5,232.6L65.4,236.5L68.3,242.7L70.7,245.2L73.6,247.4L75.8,250.1L77.4,253.2L81.4,259.4L82.2,265.1L84.2,272.2L88.3,273.8L96.9,272.7L100.6,275.4L103.8,279.7L106.5,284.5L108.0,292.5L112.9,296.4L115.7,297.5L123.3,299.5L131.2,297.3L135.1,298.3L134.7,296.9L140.6,297.3L152.3,296.5L160.9,291.8L163.6,283.8L165.2,280.6L167.1,278.3L168.5,275.5L170.2,264.7L167.6,254.0L166.3,251.9L161.5,248.2L159.7,244.8L147.6,240.5L151.5,238.1L154.4,229.1L159.0,223.8L163.3,222.6L165.0,221.6L170.2,221.7L170.5,219.6L168.8,217.5L168.3,212.3L171.7,208.6L175.9,206.0L180.2,204.2L182.1,199.9L183.2,195.1L183.0,184.7L181.2,182.1L181.2,183.4Z " data-id="LA.LM" data-name="Louang Namtha" id="LA.LM"/>
utf-8utf-8<path d="M228.8,456.6L228.9,449.3L227.0,441.2L227.1,436.8L229.1,432.3L229.9,427.6L233.8,421.7L232.4,420.2L225.3,416.6L221.6,411.0L218.6,392.8L219.0,388.1L217.8,387.1L211.1,387.3L209.2,383.8L207.9,375.6L209.8,366.8L208.6,360.3L207.0,357.7L202.7,353.4L199.5,349.8L198.2,350.9L195.3,354.6L190.2,357.4L188.9,359.0L190.5,360.0L188.4,363.3L184.1,364.4L148.5,364.7L145.6,363.8L137.1,358.2L132.1,355.5L130.6,355.4L127.0,358.2L124.5,361.3L122.7,362.0L119.9,360.0L118.8,363.0L114.2,359.5L108.4,357.6L93.5,355.0L90.6,356.0L88.9,357.9L87.4,359.7L77.3,365.7L75.7,365.3L71.2,367.2L68.6,367.0L65.4,369.5L61.6,370.4L57.6,370.5L52.3,369.0L48.4,368.4L46.1,372.5L46.0,375.0L46.8,376.9L50.2,381.2L51.9,387.8L58.3,396.9L60.0,403.4L61.7,405.1L71.2,409.2L73.2,409.1L74.9,405.0L77.1,402.9L80.2,402.7L90.4,406.8L92.3,407.9L95.6,410.9L96.5,409.1L101.1,403.5L104.9,397.2L106.3,393.9L107.3,393.1L119.1,393.0L122.5,393.4L125.3,394.5L131.0,398.0L134.5,399.3L137.9,399.6L143.9,398.3L147.3,396.3L151.1,397.8L153.7,402.1L154.4,405.4L154.4,409.3L153.3,412.3L150.7,413.1L148.3,414.9L147.2,419.8L147.4,425.3L148.7,429.4L152.4,431.0L153.2,434.5L157.3,445.9L158.1,453.9L158.8,457.1L171.3,469.8L172.9,473.9L168.6,479.2L167.6,485.6L164.4,491.3L163.8,493.8L164.0,496.4L165.8,504.5L164.5,511.3L164.4,513.5L165.4,516.0L168.7,519.0L169.6,521.2L168.1,525.5L161.7,531.3L161.9,537.1L160.6,538.8L153.6,543.4L152.7,548.1L149.9,552.0L149.6,554.7L150.8,557.1L157.1,563.4L165.1,567.2L164.1,574.7L164.9,579.5L170.0,586.4L170.0,588.6L168.9,596.1L169.6,598.8L172.4,603.9L173.0,605.8L172.4,607.5L167.6,611.5L163.6,622.1L160.9,625.0L157.5,627.3L156.8,631.5L157.8,636.2L157.4,637.9L155.2,639.1L154.7,641.6L155.7,642.5L154.1,646.3L155.2,650.5L153.3,660.2L150.0,665.3L148.8,668.2L149.2,671.2L151.4,672.8L161.1,674.7L163.6,676.0L170.1,681.8L172.2,682.3L176.1,684.6L179.7,686.2L182.2,685.0L183.8,679.8L188.4,677.0L190.0,671.9L191.8,668.7L203.2,656.8L206.2,656.0L208.0,651.8L205.9,650.0L207.4,649.4L211.0,649.4L216.8,647.7L218.8,645.0L222.5,643.2L224.6,641.4L221.6,639.0L222.9,638.5L222.4,630.1L220.8,630.3L217.7,632.0L216.8,630.0L211.1,629.8L206.2,622.8L205.8,619.2L206.0,615.4L205.7,611.4L203.5,601.6L199.1,593.8L198.8,588.2L200.2,583.8L204.7,576.8L205.8,573.0L206.7,571.7L211.2,570.5L215.2,564.7L215.4,560.5L219.5,557.8L220.5,555.6L221.9,550.6L223.4,548.8L224.9,549.6L229.1,548.8L232.6,544.6L234.2,538.1L235.7,535.5L238.3,528.3L238.3,517.1L240.6,508.9L240.9,504.9L239.0,500.3L233.1,494.4L232.1,492.3L232.5,484.7L231.5,478.7L229.6,475.2L229.8,472.2L229.6,469.9L228.8,456.6Z " data-id="LA.XA" data-name="Xaignabouri" id="LA.XA"/>
utf-8utf-8<path d="M855.4,1097.4L856.4,1093.8L855.5,1092.2L854.3,1086.6L851.7,1083.1L846.5,1078.3L842.6,1067.4L839.4,1064.8L835.7,1062.7L833.0,1059.6L830.8,1055.9L829.2,1045.8L833.1,1037.3L837.8,1031.2L842.4,1026.8L843.6,1023.3L846.3,1021.4L849.8,1021.5L852.9,1023.2L854.9,1026.9L857.9,1028.5L860.3,1026.0L863.3,1024.7L866.1,1027.4L866.2,1031.6L865.3,1035.1L866.0,1038.7L865.9,1042.3L866.4,1045.9L869.2,1049.2L872.7,1051.3L876.1,1051.6L882.4,1053.8L884.6,1052.0L888.2,1052.2L891.7,1051.4L893.1,1048.1L892.8,1044.4L897.7,1037.8L902.4,1036.2L905.1,1036.6L902.5,1031.1L904.2,1027.0L903.3,1020.0L901.3,1013.2L897.7,1009.6L894.2,1005.3L889.5,1006.6L886.8,1006.0L884.7,1003.9L884.7,1003.4L884.0,1003.6L883.3,1003.5L881.1,991.9L867.3,980.9L864.5,980.0L860.3,979.8L856.0,977.9L849.5,970.2L843.0,967.7L839.5,968.9L835.3,969.6L832.2,971.0L829.5,973.1L825.0,978.8L819.7,982.9L816.3,981.4L808.1,972.8L808.4,968.8L810.4,965.9L808.9,962.6L806.1,959.5L798.0,960.4L795.5,961.5L792.4,959.7L785.5,961.9L778.0,962.0L772.0,962.7L768.1,959.7L765.7,961.3L763.0,962.0L757.1,959.9L754.0,960.3L752.5,962.6L749.4,963.9L749.0,964.4L745.2,967.4L739.9,969.4L737.7,971.1L737.1,974.1L738.1,976.6L740.1,977.9L744.9,978.4L747.2,977.9L748.4,981.4L748.8,985.0L745.3,987.7L742.4,990.7L738.2,996.4L736.9,1004.0L737.3,1007.0L738.6,1009.3L741.2,1009.9L744.6,1013.2L747.6,1013.9L752.2,1021.5L757.2,1023.5L756.3,1025.3L752.0,1028.6L751.1,1031.2L753.6,1035.5L750.0,1039.7L751.2,1044.9L749.6,1045.3L748.3,1051.4L748.8,1054.4L751.0,1058.2L750.9,1064.4L751.2,1068.6L754.0,1077.6L754.2,1081.7L753.2,1085.3L750.1,1091.0L747.6,1093.8L745.5,1100.2L739.9,1102.1L736.5,1106.0L735.0,1105.9L731.5,1104.2L728.9,1108.9L726.9,1109.9L720.8,1111.5L719.2,1111.5L720.5,1118.9L722.0,1121.7L730.5,1133.7L732.9,1136.1L736.6,1137.8L740.2,1142.6L744.5,1144.4L747.9,1144.5L751.4,1143.9L754.6,1142.6L757.2,1140.5L760.7,1138.8L763.7,1136.2L767.5,1139.8L769.2,1139.0L771.5,1140.0L773.6,1142.1L774.8,1144.6L776.5,1143.1L781.0,1144.9L786.6,1144.8L790.2,1146.7L792.3,1150.1L794.1,1153.9L796.5,1157.2L807.9,1167.2L814.4,1169.9L817.3,1169.6L820.1,1168.3L822.9,1168.4L829.3,1170.1L831.7,1170.0L833.2,1167.6L832.2,1161.2L838.5,1153.8L839.1,1151.3L838.2,1148.7L832.4,1142.9L828.4,1134.8L826.3,1132.4L821.8,1129.6L820.0,1127.8L818.7,1125.1L818.7,1121.7L818.0,1119.1L816.4,1116.9L813.8,1114.8L813.1,1113.3L813.1,1108.7L815.6,1109.2L821.1,1111.2L823.4,1110.4L823.4,1108.3L827.4,1107.6L836.8,1108.2L838.6,1106.9L840.0,1104.1L840.5,1101.1L840.8,1094.0L841.6,1091.7L842.4,1092.5L850.3,1097.5L854.7,1097.5L855.4,1097.4Z " data-id="LA.CH" data-name="Champasak" id="LA.CH"/>
utf-8utf-8<path d="M868.9,827.4L872.8,828.2L874.7,831.5L874.8,835.6L873.8,839.0L868.4,841.9L865.4,842.2L862.4,840.3L860.6,842.2L858.6,848.5L858.7,851.8L860.1,856.3L859.0,859.5L855.5,860.8L853.6,862.3L850.7,862.1L847.6,860.4L844.4,861.4L842.1,864.3L838.1,865.6L833.9,865.8L831.1,867.3L824.5,866.0L822.4,866.5L821.9,872.2L819.1,869.1L816.9,864.9L814.3,863.1L811.3,862.1L807.5,861.4L803.8,861.8L803.1,863.5L801.1,863.9L799.3,866.3L799.6,869.9L800.9,873.2L802.0,880.2L803.8,883.6L804.4,887.1L802.4,889.4L796.7,892.4L793.2,892.5L789.7,891.4L786.3,891.6L781.9,897.4L777.1,902.2L773.9,901.8L770.8,900.6L764.7,901.5L758.3,897.8L754.6,897.8L751.9,895.7L743.9,892.3L735.7,889.9L728.1,886.1L718.8,885.1L718.9,885.5L714.9,888.4L712.5,892.0L712.9,896.8L715.0,901.9L721.2,913.1L726.1,917.9L727.9,918.2L732.7,917.7L735.4,918.1L740.8,920.0L746.6,923.8L750.6,929.2L752.7,935.7L752.4,942.7L750.6,951.1L750.5,954.1L751.1,959.9L750.7,962.3L749.4,963.9L752.5,962.6L754.0,960.3L757.1,959.9L763.0,962.0L765.7,961.3L768.1,959.7L772.0,962.7L778.0,962.0L785.5,961.9L792.4,959.7L795.5,961.5L798.0,960.4L806.1,959.5L808.9,962.6L810.4,965.9L808.4,968.8L808.1,972.8L816.3,981.4L819.7,982.9L825.0,978.8L829.5,973.1L832.2,971.0L835.3,969.6L839.5,968.9L843.0,967.7L835.9,964.9L833.1,958.4L835.5,956.9L835.7,953.5L838.4,952.2L841.6,952.7L844.8,954.4L848.2,955.1L850.4,953.2L851.3,949.8L855.2,949.1L859.7,949.9L866.8,949.9L870.6,946.8L876.9,947.9L878.0,946.0L876.5,939.4L877.7,937.1L876.2,932.8L873.7,929.1L874.6,926.2L876.1,924.6L873.4,921.8L870.2,919.6L869.4,916.4L871.7,914.0L873.8,906.6L877.0,899.9L881.7,893.4L884.1,891.0L882.1,886.8L882.5,882.7L884.0,879.1L887.0,879.4L889.9,881.0L894.1,881.8L898.3,881.9L900.6,879.5L904.1,880.5L906.8,879.0L909.3,876.7L913.4,875.2L914.2,870.2L918.0,864.5L919.3,860.6L919.0,860.2L918.0,858.4L915.7,851.1L914.5,849.3L911.9,847.5L907.4,845.6L902.7,845.0L897.1,844.9L893.6,838.6L887.3,834.2L884.0,828.8L882.1,829.7L881.9,822.6L880.8,817.1L878.3,813.5L875.4,813.4L873.5,818.2L873.4,820.4L869.3,824.1L869.0,827.3L868.9,827.4Z " data-id="LA.SL" data-name="Saravan" id="LA.SL"/>
utf-8utf-8<path d="M621.4,761.6L624.5,769.1L624.4,776.9L628.6,788.2L627.5,802.0L627.8,807.8L629.3,813.7L630.9,816.1L633.3,818.0L640.5,822.0L642.7,823.9L647.5,830.7L649.2,835.0L652.2,838.7L659.4,844.3L664.1,847.2L666.8,850.7L667.6,853.6L668.3,859.7L669.3,863.3L670.9,866.5L673.1,869.3L675.9,871.4L695.8,878.9L701.9,879.4L716.3,883.3L718.5,884.5L718.8,885.1L728.1,886.1L735.7,889.9L743.9,892.3L751.9,895.7L754.6,897.8L758.3,897.8L764.7,901.5L770.8,900.6L773.9,901.8L777.1,902.2L781.9,897.4L786.3,891.6L789.7,891.4L793.2,892.5L796.7,892.4L802.4,889.4L804.4,887.1L803.8,883.6L802.0,880.2L800.9,873.2L799.6,869.9L799.3,866.3L801.1,863.9L803.1,863.5L803.8,861.8L807.5,861.4L811.3,862.1L814.3,863.1L816.9,864.9L819.1,869.1L821.9,872.2L822.4,866.5L824.5,866.0L831.1,867.3L833.9,865.8L838.1,865.6L842.1,864.3L844.4,861.4L847.6,860.4L850.7,862.1L853.6,862.3L855.5,860.8L859.0,859.5L860.1,856.3L858.7,851.8L858.6,848.5L860.6,842.2L862.4,840.3L865.4,842.2L868.4,841.9L873.8,839.0L874.8,835.6L874.7,831.5L872.8,828.2L868.9,827.4L867.9,828.3L865.6,828.3L865.4,826.8L861.9,827.5L859.0,825.2L856.6,821.6L853.8,814.7L853.3,807.4L852.6,805.8L844.0,802.1L840.8,798.8L838.2,792.6L832.3,753.2L830.9,750.9L828.1,754.4L820.7,752.1L818.5,751.0L816.8,748.7L816.1,747.4L808.7,748.2L801.6,745.6L797.9,745.0L794.4,743.5L788.1,737.3L784.6,735.3L781.2,734.8L780.7,739.0L778.3,741.4L766.6,743.3L754.0,742.4L744.0,739.1L733.9,734.5L729.2,733.5L725.1,734.4L725.1,740.0L723.9,743.5L719.0,742.2L705.0,735.7L697.8,736.6L691.8,736.2L689.0,740.0L684.9,742.2L681.7,741.0L679.0,742.0L675.4,741.8L672.3,739.6L669.8,736.3L666.8,734.2L664.1,735.6L661.7,737.8L658.2,739.2L654.2,738.7L651.1,735.9L645.2,737.6L641.6,736.1L639.3,737.5L637.7,739.7L631.5,737.7L628.9,739.0L629.1,742.8L626.8,744.8L624.8,747.9L625.0,750.3L627.1,748.5L629.5,750.8L632.4,758.7L631.3,762.1L624.5,761.2L620.3,757.1L621.4,761.6Z " data-id="LA.SV" data-name="Savannakhét" id="LA.SV"/>
utf-8utf-8<path d="M368.1,570.9L358.7,573.0L355.7,574.9L351.5,576.5L346.9,577.1L342.2,582.3L339.7,582.2L337.7,580.6L336.1,581.1L332.8,580.5L329.7,575.6L325.3,572.4L321.5,572.8L318.1,571.0L314.7,571.6L311.2,570.9L306.0,568.8L300.7,567.2L296.3,564.2L294.4,559.7L291.9,556.6L289.1,553.9L285.4,553.8L281.8,554.7L279.9,557.4L277.4,558.9L274.0,557.0L270.9,556.1L270.4,559.0L272.8,562.1L273.2,565.7L272.5,576.6L273.8,583.6L276.0,586.8L277.5,584.6L278.3,583.9L287.3,584.4L289.6,585.7L292.9,592.3L298.4,596.1L301.8,600.2L308.6,606.0L312.4,608.0L315.9,607.8L318.6,610.9L322.3,613.8L326.5,616.1L331.0,617.0L341.2,617.0L345.3,619.2L347.6,624.6L346.9,633.5L347.0,634.8L348.8,635.3L355.4,638.6L358.1,639.0L355.5,633.5L355.8,631.4L357.3,630.3L361.3,629.2L362.9,628.0L366.7,623.6L372.9,619.4L375.0,616.9L384.5,611.8L386.3,611.4L388.6,612.0L392.6,614.6L394.7,615.2L396.6,614.3L399.5,609.5L399.9,608.2L397.7,600.2L398.7,594.7L399.5,594.2L396.7,590.2L395.4,590.7L393.6,595.8L391.2,596.7L390.0,596.0L388.9,591.9L389.4,591.1L386.4,578.8L381.0,575.2L374.6,573.0L368.1,570.9Z " data-id="LA.VT" data-name="Vientiane [prefecture]" id="LA.VT"/>
utf-8utf-8<path d="M330.9,439.4L324.7,441.5L316.8,446.1L312.1,442.7L307.7,438.7L304.3,432.9L299.2,431.0L300.1,426.5L296.7,426.8L293.3,426.5L289.1,423.6L285.9,424.9L282.4,427.3L278.3,424.5L274.4,425.4L270.4,421.7L267.3,420.9L260.0,421.9L256.8,424.3L256.3,432.6L252.2,437.9L248.6,440.1L247.5,442.0L247.2,447.7L244.9,455.7L240.0,461.7L236.5,462.4L232.6,466.9L229.6,469.9L229.8,472.2L229.6,475.2L231.5,478.7L232.5,484.7L232.1,492.3L233.1,494.4L239.0,500.3L240.9,504.9L240.6,508.9L238.3,517.1L238.3,528.3L235.7,535.5L234.2,538.1L232.6,544.6L229.1,548.8L224.9,549.6L223.4,548.8L221.9,550.6L220.5,555.6L219.5,557.8L215.4,560.5L215.2,564.7L211.2,570.5L206.7,571.7L205.8,573.0L204.7,576.8L200.2,583.8L198.8,588.2L199.1,593.8L203.5,601.6L205.7,611.4L206.0,615.4L205.8,619.2L206.2,622.8L211.1,629.8L216.8,630.0L217.7,632.0L220.8,630.3L222.4,630.1L222.9,638.5L225.0,637.6L225.9,633.1L225.7,631.0L228.6,632.9L230.4,628.8L232.1,627.4L242.8,625.0L242.8,622.3L244.4,613.3L244.6,607.6L245.2,605.1L248.9,604.5L253.8,605.9L258.8,608.8L261.1,608.0L276.0,586.8L273.8,583.6L272.5,576.6L273.2,565.7L272.8,562.1L270.4,559.0L270.9,556.1L274.0,557.0L277.4,558.9L279.9,557.4L281.8,554.7L285.4,553.8L289.1,553.9L291.9,556.6L294.4,559.7L296.3,564.2L300.7,567.2L306.0,568.8L311.2,570.9L314.7,571.6L318.1,571.0L321.5,572.8L325.3,572.4L329.7,575.6L332.8,580.5L336.1,581.1L337.7,580.6L339.7,582.2L342.2,582.3L346.9,577.1L351.5,576.5L355.7,574.9L358.7,573.0L368.1,570.9L374.6,573.0L374.8,566.2L372.4,559.4L366.2,553.6L360.5,543.4L368.0,541.5L391.5,543.1L401.3,541.1L415.5,540.4L424.5,537.9L432.0,532.6L437.0,526.7L437.6,521.8L436.7,516.1L435.5,511.5L433.8,507.3L432.7,502.9L433.4,499.6L435.2,499.5L432.2,493.6L431.0,489.6L430.5,486.2L436.4,483.8L440.3,483.5L446.0,488.8L449.7,490.0L453.4,491.9L456.9,494.6L463.7,498.9L467.1,500.2L470.2,499.4L472.5,497.0L475.7,495.0L479.1,493.4L478.7,484.3L476.5,475.5L473.1,472.4L469.0,471.1L464.7,471.4L460.8,469.8L455.6,466.9L448.0,467.4L442.5,465.3L438.8,465.0L435.5,462.2L432.3,458.8L428.8,456.3L425.0,455.7L421.4,457.0L421.0,460.0L418.0,460.0L415.3,457.8L410.0,457.1L407.0,458.7L402.9,458.9L400.3,460.0L388.2,457.5L383.8,457.2L379.5,456.5L375.4,452.6L372.7,451.5L362.2,448.9L356.2,449.1L353.0,446.8L349.4,444.9L345.1,440.7L337.1,437.1L335.1,433.8L330.9,439.4Z " data-id="LA.VI" data-name="Vientiane" id="LA.VI"/>
utf-8utf-8<path d="M369.1,351.9L368.0,354.9L366.0,357.1L360.2,357.5L357.5,358.8L355.3,360.8L351.9,362.7L349.1,365.0L349.9,371.5L350.1,377.9L345.9,378.9L341.0,378.6L342.0,381.8L340.8,384.3L336.2,389.7L330.0,395.0L326.5,400.4L321.8,404.9L321.7,412.1L324.3,419.1L328.0,422.3L331.4,426.0L335.1,433.8L337.1,437.1L345.1,440.7L349.4,444.9L353.0,446.8L356.2,449.1L362.2,448.9L372.7,451.5L375.4,452.6L379.5,456.5L383.8,457.2L388.2,457.5L400.3,460.0L402.9,458.9L407.0,458.7L410.0,457.1L415.3,457.8L418.0,460.0L421.0,460.0L421.4,457.0L425.0,455.7L428.8,456.3L432.3,458.8L435.5,462.2L438.8,465.0L442.5,465.3L448.0,467.4L455.6,466.9L460.8,469.8L464.7,471.4L469.0,471.1L473.1,472.4L476.5,475.5L478.7,484.3L479.1,493.4L483.6,494.5L494.9,500.0L498.5,502.3L504.6,502.1L508.2,500.4L512.3,493.0L514.9,490.4L516.0,487.4L516.2,483.8L520.5,478.8L519.8,474.1L518.5,469.4L519.0,465.0L518.8,462.5L516.3,461.8L513.0,462.9L511.8,461.8L510.6,456.6L503.9,451.7L489.7,445.3L484.7,444.8L478.3,443.2L475.1,441.5L471.4,436.6L466.0,435.8L466.6,433.4L468.0,432.1L471.9,430.1L473.5,428.6L475.3,424.7L476.5,423.4L478.9,422.7L484.0,420.1L485.7,419.9L487.5,412.4L490.8,410.7L489.3,407.2L488.1,402.6L487.0,400.4L481.4,396.8L479.7,394.8L475.7,386.0L476.1,383.8L487.1,387.8L489.5,387.4L492.0,382.9L494.6,382.9L499.3,381.4L498.3,376.7L496.6,372.7L495.8,369.4L497.1,360.1L495.6,353.6L494.8,356.0L494.9,358.9L493.1,360.9L490.7,362.0L486.2,361.6L481.9,358.8L479.4,362.8L479.2,365.4L477.9,366.9L468.2,370.0L465.2,368.5L457.7,361.3L458.6,353.6L457.4,350.4L457.0,347.2L451.4,340.6L444.5,336.5L438.2,336.9L433.4,341.4L433.2,345.9L433.7,349.9L430.6,350.4L426.8,348.6L424.7,352.3L420.8,353.5L417.6,353.9L414.5,355.1L412.3,357.3L409.4,358.3L402.9,356.2L396.9,355.6L391.2,351.9L385.8,354.6L382.3,352.6L379.4,349.8L374.1,350.1L369.1,351.9Z " data-id="LA.XI" data-name="Xiangkhoang" id="LA.XI"/>
utf-8utf-8<path d="M380.4,232.0L380.2,234.2L374.6,237.8L368.2,240.1L363.0,243.9L362.4,249.5L362.9,255.9L364.7,264.1L364.3,272.0L362.0,275.5L364.1,279.3L367.0,283.0L371.4,283.9L370.4,287.5L371.7,292.4L372.3,297.7L370.4,301.3L363.8,309.9L360.8,316.3L362.8,319.4L367.8,325.0L368.8,326.7L366.7,329.5L366.2,331.3L366.5,336.4L367.6,346.1L369.1,351.9L374.1,350.1L379.4,349.8L382.3,352.6L385.8,354.6L391.2,351.9L396.9,355.6L402.9,356.2L409.4,358.3L412.3,357.3L414.5,355.1L417.6,353.9L420.8,353.5L424.7,352.3L426.8,348.6L430.6,350.4L433.7,349.9L433.2,345.9L433.4,341.4L438.2,336.9L444.5,336.5L451.4,340.6L457.0,347.2L457.4,350.4L458.6,353.6L457.7,361.3L465.2,368.5L468.2,370.0L477.9,366.9L479.2,365.4L479.4,362.8L481.9,358.8L486.2,361.6L490.7,362.0L493.1,360.9L494.9,358.9L494.8,356.0L495.6,353.6L497.1,360.1L495.8,369.4L496.6,372.7L498.3,376.7L499.3,381.4L502.6,380.4L504.4,381.9L508.7,383.4L511.5,387.4L516.4,383.5L518.5,382.9L520.9,383.2L523.8,386.1L537.5,394.5L539.6,394.9L545.9,392.4L550.3,393.8L551.1,392.4L553.1,381.5L555.1,377.9L556.7,376.4L561.8,375.0L564.2,372.2L566.9,370.7L569.0,368.8L569.5,364.5L568.1,360.3L565.8,359.5L562.2,359.2L561.5,358.5L561.9,355.9L563.6,352.8L569.4,348.6L571.8,346.4L573.1,342.7L575.3,342.3L578.8,342.7L581.7,340.9L581.9,339.1L579.9,330.8L581.5,330.5L580.6,327.8L575.5,324.5L573.5,322.0L572.9,318.9L573.0,316.4L561.6,310.2L556.8,310.5L551.8,312.4L546.9,313.5L542.6,311.3L541.0,304.0L541.2,302.2L543.9,301.1L542.7,293.8L540.7,292.4L535.9,290.4L533.8,289.0L530.4,284.9L528.6,283.9L511.8,284.3L506.8,283.0L502.6,280.4L503.0,277.8L510.7,267.4L514.0,269.9L517.2,270.5L519.9,269.5L522.2,267.3L528.0,255.9L526.4,250.3L519.3,247.8L512.7,244.6L510.4,242.4L508.6,238.1L506.7,236.2L501.5,236.0L494.8,230.1L492.9,229.4L489.9,226.6L485.6,220.4L480.0,217.8L477.4,218.7L472.6,213.5L469.0,212.2L463.9,211.7L459.9,209.3L455.8,209.6L451.4,216.5L447.2,217.3L442.5,218.7L434.3,221.8L431.0,224.7L427.3,224.5L426.1,225.0L423.8,231.8L423.7,234.0L424.6,239.0L422.5,240.7L419.5,241.9L419.2,243.7L421.4,248.7L418.3,250.7L414.9,249.7L411.9,247.2L406.5,241.8L404.0,240.4L395.2,238.6L392.1,237.0L387.7,230.7L384.2,228.4L382.8,230.5L380.6,232.0L380.4,232.0Z " data-id="LA.HO" data-name="Houaphan" id="LA.HO"/>
utf-8utf-8<path d="M318.3,184.8L308.9,185.6L305.1,184.9L304.3,187.4L304.5,193.9L305.0,197.5L304.2,199.7L300.9,200.0L299.6,202.3L292.2,205.8L290.7,206.9L289.5,211.0L285.4,210.4L282.5,211.1L280.2,212.9L274.8,221.8L267.9,219.1L267.0,216.4L265.3,214.8L258.1,214.0L254.0,211.4L249.3,209.1L250.0,212.8L254.6,218.3L256.2,221.8L256.7,224.7L255.6,230.1L256.8,235.2L259.3,239.3L259.5,241.9L258.7,248.3L255.3,253.2L247.5,254.4L247.6,257.7L245.6,264.9L244.4,272.2L241.1,284.5L241.4,288.6L245.7,293.0L246.6,296.8L245.5,300.5L246.2,306.4L250.5,311.4L252.9,315.8L252.7,320.5L250.0,323.6L248.8,327.8L244.9,328.3L239.0,332.4L237.1,333.0L230.5,332.2L228.5,333.0L226.0,335.7L221.1,343.1L217.6,346.1L213.5,347.4L204.0,348.3L199.5,349.8L202.7,353.4L207.0,357.7L208.6,360.3L209.8,366.8L207.9,375.6L209.2,383.8L211.1,387.3L217.8,387.1L219.0,388.1L218.6,392.8L221.6,411.0L225.3,416.6L232.4,420.2L233.8,421.7L229.9,427.6L229.1,432.3L227.1,436.8L227.0,441.2L228.9,449.3L228.8,456.6L229.6,469.9L232.6,466.9L236.5,462.4L240.0,461.7L244.9,455.7L247.2,447.7L247.5,442.0L248.6,440.1L252.2,437.9L256.3,432.6L256.8,424.3L260.0,421.9L267.3,420.9L270.4,421.7L274.4,425.4L278.3,424.5L282.4,427.3L285.9,424.9L289.1,423.6L293.3,426.5L296.7,426.8L300.1,426.5L299.2,431.0L304.3,432.9L307.7,438.7L312.1,442.7L316.8,446.1L324.7,441.5L330.9,439.4L335.1,433.8L331.4,426.0L328.0,422.3L324.3,419.1L321.7,412.1L321.8,404.9L326.5,400.4L330.0,395.0L336.2,389.7L340.8,384.3L342.0,381.8L341.0,378.6L345.9,378.9L350.1,377.9L349.9,371.5L349.1,365.0L351.9,362.7L355.3,360.8L357.5,358.8L360.2,357.5L366.0,357.1L368.0,354.9L369.1,351.9L367.6,346.1L366.5,336.4L366.2,331.3L366.7,329.5L368.8,326.7L367.8,325.0L362.8,319.4L360.8,316.3L363.8,309.9L370.4,301.3L372.3,297.7L371.7,292.4L370.4,287.5L371.4,283.9L367.0,283.0L364.1,279.3L362.0,275.5L364.3,272.0L364.7,264.1L362.9,255.9L362.4,249.5L363.0,243.9L368.2,240.1L374.6,237.8L380.2,234.2L380.4,232.0L377.5,232.9L372.1,231.5L364.8,227.6L362.8,227.1L359.6,227.9L352.9,225.3L350.7,225.0L346.5,221.9L342.4,217.3L339.6,213.3L330.9,198.5L328.8,196.2L325.6,194.8L322.9,194.6L320.3,190.0L318.3,184.8Z " data-id="LA.LP" data-name="Louangphrabang" id="LA.LP"/>
utf-8utf-8<path d="M245.8,205.5L241.3,202.7L237.0,201.0L233.2,202.3L229.1,201.9L224.6,199.3L220.7,195.8L214.0,187.8L210.0,185.7L200.4,183.0L194.7,179.6L188.6,175.1L186.2,173.8L186.1,174.5L183.6,176.3L180.9,175.7L179.5,177.3L181.2,180.7L181.2,182.1L183.0,184.7L183.2,195.1L182.1,199.9L180.2,204.2L175.9,206.0L171.7,208.6L168.3,212.3L168.8,217.5L170.5,219.6L170.2,221.7L165.0,221.6L163.3,222.6L159.0,223.8L154.4,229.1L151.5,238.1L147.6,240.5L159.7,244.8L161.5,248.2L166.3,251.9L167.6,254.0L170.2,264.7L168.5,275.5L167.1,278.3L165.2,280.6L163.6,283.8L160.9,291.8L152.3,296.5L140.6,297.3L134.7,296.9L135.1,298.3L136.2,301.4L138.4,306.6L140.4,321.8L139.2,325.2L136.9,328.1L133.5,330.3L129.4,329.7L121.7,324.2L117.2,325.1L113.8,327.8L113.4,332.6L111.5,336.0L109.1,339.1L104.4,342.0L93.7,342.4L84.6,346.2L85.6,351.8L88.9,357.9L90.6,356.0L93.5,355.0L108.4,357.6L114.2,359.5L118.8,363.0L119.9,360.0L122.7,362.0L124.5,361.3L127.0,358.2L130.6,355.4L132.1,355.5L137.1,358.2L145.6,363.8L148.5,364.7L184.1,364.4L188.4,363.3L190.5,360.0L188.9,359.0L190.2,357.4L195.3,354.6L198.2,350.9L199.5,349.8L204.0,348.3L213.5,347.4L217.6,346.1L221.1,343.1L226.0,335.7L228.5,333.0L230.5,332.2L237.1,333.0L239.0,332.4L244.9,328.3L248.8,327.8L250.0,323.6L252.7,320.5L252.9,315.8L250.5,311.4L246.2,306.4L245.5,300.5L246.6,296.8L245.7,293.0L241.4,288.6L241.1,284.5L244.4,272.2L245.6,264.9L247.6,257.7L247.5,254.4L255.3,253.2L258.7,248.3L259.5,241.9L259.3,239.3L256.8,235.2L255.6,230.1L256.7,224.7L256.2,221.8L254.6,218.3L250.0,212.8L249.3,209.1L245.8,205.5Z " data-id="LA.OU" data-name="Oudômxai" id="LA.OU"/>
utf-8utf-8<path d="M186.2,173.8L188.6,175.1L194.7,179.6L200.4,183.0L210.0,185.7L214.0,187.8L220.7,195.8L224.6,199.3L229.1,201.9L233.2,202.3L237.0,201.0L241.3,202.7L245.8,205.5L249.3,209.1L254.0,211.4L258.1,214.0L265.3,214.8L267.0,216.4L267.9,219.1L274.8,221.8L280.2,212.9L282.5,211.1L285.4,210.4L289.5,211.0L290.7,206.9L292.2,205.8L299.6,202.3L300.9,200.0L304.2,199.7L305.0,197.5L304.5,193.9L304.3,187.4L305.1,184.9L308.9,185.6L318.3,184.8L318.3,184.7L316.6,182.4L313.4,181.3L312.5,179.9L312.9,174.7L312.0,173.0L308.9,170.4L307.0,169.7L301.2,169.2L302.2,166.6L303.8,165.0L307.7,163.9L308.9,162.4L308.9,160.1L308.1,153.8L308.1,151.0L310.9,144.2L310.8,142.6L309.1,142.3L303.3,146.0L307.1,136.5L309.3,134.0L312.8,128.0L314.8,125.5L312.9,121.0L312.0,117.7L310.6,108.3L308.2,103.5L299.0,107.8L297.0,107.9L295.3,106.3L294.5,103.7L294.0,98.2L292.0,92.0L289.4,90.0L287.7,92.1L289.1,103.1L288.4,107.5L286.3,111.1L283.1,113.8L275.6,114.2L273.7,112.9L272.6,110.8L270.8,104.6L270.1,96.6L268.1,91.0L262.5,81.1L258.4,77.8L252.9,75.9L248.0,73.4L245.8,68.3L247.2,64.7L239.1,59.2L234.1,51.7L230.0,49.3L220.1,40.4L212.4,36.5L209.8,34.2L208.6,31.4L204.3,28.1L202.3,26.1L198.0,16.7L196.0,13.4L190.2,8.7L182.7,6.8L175.6,8.1L170.5,8.2L168.5,9.0L167.7,11.4L167.7,14.2L166.9,16.0L163.8,15.4L160.4,12.2L155.0,3.2L151.0,0.1L146.2,0.6L143.6,2.3L140.2,6.8L139.6,9.8L140.5,18.1L138.8,20.4L138.1,28.8L137.7,29.9L131.8,29.9L128.3,34.2L129.0,36.5L135.2,43.6L136.4,47.3L135.8,52.3L136.3,55.3L137.9,58.2L142.0,63.8L143.4,66.6L145.0,72.1L146.5,74.0L149.3,75.7L153.7,77.0L155.8,81.5L165.3,92.7L165.6,94.0L164.4,101.7L164.4,104.1L168.4,109.9L169.5,115.5L171.4,116.9L175.6,118.6L176.3,121.4L175.2,123.8L170.3,124.9L168.8,126.1L169.0,128.4L171.4,133.8L171.3,136.4L170.1,139.3L171.7,152.8L171.3,157.9L171.6,160.2L172.8,162.5L174.7,164.1L181.2,166.6L184.4,168.8L185.5,170.3L186.3,173.4L186.2,173.8Z " data-id="LA.PH" data-name="Phôngsali" id="LA.PH"/>
utf-8utf-8<path d="M518.8,462.5L519.0,465.0L518.5,469.4L519.8,474.1L520.5,478.8L516.2,483.8L516.0,487.4L514.9,490.4L512.3,493.0L508.2,500.4L504.6,502.1L498.5,502.3L494.9,500.0L483.6,494.5L479.1,493.4L475.7,495.0L472.5,497.0L470.2,499.4L467.1,500.2L463.7,498.9L456.9,494.6L453.4,491.9L449.7,490.0L446.0,488.8L440.3,483.5L436.4,483.8L430.5,486.2L431.0,489.6L432.2,493.6L435.2,499.5L433.4,499.6L432.7,502.9L433.8,507.3L435.5,511.5L436.7,516.1L437.6,521.8L437.0,526.7L432.0,532.6L424.5,537.9L415.5,540.4L401.3,541.1L391.5,543.1L368.0,541.5L360.5,543.4L366.2,553.6L372.4,559.4L374.8,566.2L374.6,573.0L381.0,575.2L386.4,578.8L389.4,591.1L388.9,591.9L390.0,596.0L391.2,596.7L393.6,595.8L395.4,590.7L396.7,590.2L399.5,594.2L399.6,594.1L403.9,592.3L405.0,590.3L405.4,582.8L406.9,579.0L414.6,576.2L420.3,574.8L421.2,573.8L420.3,571.4L413.7,567.2L413.2,561.2L414.8,558.5L417.1,556.4L419.8,555.0L428.9,552.8L430.1,552.9L436.9,555.0L448.7,556.4L455.9,558.4L460.1,561.5L467.4,564.9L469.0,565.4L478.1,566.2L484.2,569.3L488.0,574.0L490.0,574.4L493.6,570.0L495.6,568.4L498.1,567.6L501.0,568.0L504.2,569.6L506.8,572.3L514.4,583.7L521.5,597.4L525.2,602.2L533.7,609.6L535.5,611.9L546.4,631.5L546.9,631.9L547.8,624.9L553.4,610.7L553.8,606.7L554.7,602.9L555.6,594.7L558.3,587.8L562.9,587.2L567.3,585.8L567.1,584.2L571.3,581.7L575.2,585.6L580.0,587.7L590.5,595.5L603.3,602.7L607.7,607.6L609.3,612.5L614.1,613.3L618.5,616.2L621.7,618.9L635.3,621.1L641.6,619.8L645.3,614.3L647.1,605.6L649.9,597.8L654.4,589.1L654.8,579.3L653.6,579.4L652.3,579.0L649.2,575.2L642.8,571.2L641.4,569.4L640.9,566.6L641.2,563.1L638.8,560.8L634.6,557.8L631.4,554.9L629.5,551.1L629.3,545.4L630.0,537.9L630.9,533.8L632.3,531.4L636.3,531.5L636.5,527.1L632.7,524.0L628.4,517.8L626.8,517.3L622.7,518.0L619.6,516.9L613.1,513.1L611.1,512.7L604.7,512.7L603.2,511.4L601.6,508.0L598.3,507.0L591.5,507.5L585.0,505.8L580.1,505.0L573.8,500.1L571.5,499.9L568.3,498.2L564.5,494.6L558.2,490.8L556.6,489.4L551.5,482.6L545.3,479.1L541.7,479.5L537.8,477.7L533.6,472.1L531.3,470.1L524.6,467.3L518.8,462.5L518.8,462.5Z " data-id="LA.BL" data-name="Bolikhamxai" id="LA.BL"/>
utf-8utf-8<path d="M654.8,579.3L654.4,589.1L649.9,597.8L647.1,605.6L645.3,614.3L641.6,619.8L635.3,621.1L621.7,618.9L618.5,616.2L614.1,613.3L609.3,612.5L607.7,607.6L603.3,602.7L590.5,595.5L580.0,587.7L575.2,585.6L571.3,581.7L567.1,584.2L567.3,585.8L562.9,587.2L558.3,587.8L555.6,594.7L554.7,602.9L553.8,606.7L553.4,610.7L547.8,624.9L546.9,631.9L547.7,632.6L556.2,637.7L558.4,640.2L561.9,646.2L564.0,648.5L571.1,658.6L575.0,662.1L595.0,672.7L597.4,673.6L603.6,677.5L612.6,688.8L616.4,691.7L620.2,698.6L621.7,708.5L623.1,716.7L623.5,723.0L623.4,726.0L618.6,746.1L618.5,749.1L620.3,757.1L624.5,761.2L631.3,762.1L632.4,758.7L629.5,750.8L627.1,748.5L625.0,750.3L624.8,747.9L626.8,744.8L629.1,742.8L628.9,739.0L631.5,737.7L637.7,739.7L639.3,737.5L641.6,736.1L645.2,737.6L651.1,735.9L654.2,738.7L658.2,739.2L661.7,737.8L664.1,735.6L666.8,734.2L669.8,736.3L672.3,739.6L675.4,741.8L679.0,742.0L681.7,741.0L684.9,742.2L689.0,740.0L691.8,736.2L697.8,736.6L705.0,735.7L719.0,742.2L723.9,743.5L725.1,740.0L725.1,734.4L729.2,733.5L733.9,734.5L744.0,739.1L754.0,742.4L766.6,743.3L778.3,741.4L780.7,739.0L781.2,734.8L784.6,735.3L788.1,737.3L794.4,743.5L797.9,745.0L801.6,745.6L808.7,748.2L816.1,747.4L813.4,743.0L813.9,740.2L812.4,737.8L805.8,731.9L801.2,725.4L800.7,718.5L797.5,714.8L795.0,709.9L793.5,710.0L792.5,713.1L791.0,715.1L788.1,715.8L785.2,714.3L762.7,695.6L747.4,678.9L738.0,667.9L734.5,664.7L730.2,661.9L723.5,658.9L720.5,655.4L718.2,650.2L713.6,644.0L709.5,637.6L704.2,632.9L702.2,628.3L702.1,617.9L699.5,613.6L696.4,611.9L693.1,605.0L688.5,601.8L679.0,586.8L676.5,585.7L673.9,585.5L671.9,586.6L671.0,591.8L670.0,592.6L662.0,588.4L660.4,586.4L660.0,580.0L657.9,578.9L654.8,579.3Z " data-id="LA.KH" data-name="Khammouan" id="LA.KH"/>
utf-8utf-8<path d="M884.7,1003.4L884.7,1003.9L886.8,1006.0L889.5,1006.6L894.2,1005.3L897.7,1009.6L901.3,1013.2L903.3,1020.0L904.2,1027.0L902.5,1031.1L905.1,1036.6L902.4,1036.2L897.7,1037.8L892.8,1044.4L893.1,1048.1L891.7,1051.4L888.2,1052.2L884.6,1052.0L882.4,1053.8L876.1,1051.6L872.7,1051.3L869.2,1049.2L866.4,1045.9L865.9,1042.3L866.0,1038.7L865.3,1035.1L866.2,1031.6L866.1,1027.4L863.3,1024.7L860.3,1026.0L857.9,1028.5L854.9,1026.9L852.9,1023.2L849.8,1021.5L846.3,1021.4L843.6,1023.3L842.4,1026.8L837.8,1031.2L833.1,1037.3L829.2,1045.8L830.8,1055.9L833.0,1059.6L835.7,1062.7L839.4,1064.8L842.6,1067.4L846.5,1078.3L851.7,1083.1L854.3,1086.6L855.5,1092.2L856.4,1093.8L855.4,1097.4L861.7,1096.4L864.6,1095.0L865.5,1092.3L867.2,1090.5L865.7,1089.6L865.7,1087.2L866.7,1086.4L871.5,1087.2L869.3,1081.7L871.4,1080.7L873.7,1078.1L876.3,1081.4L879.8,1089.5L884.0,1091.0L886.8,1095.0L890.5,1097.1L899.6,1100.1L908.0,1111.1L911.6,1114.6L917.0,1116.7L921.2,1113.8L923.6,1112.7L928.4,1114.9L930.1,1112.9L931.0,1109.5L934.8,1104.7L937.7,1099.9L939.6,1099.9L944.4,1103.9L946.9,1103.0L950.3,1100.3L953.1,1097.0L955.0,1090.9L958.7,1091.3L959.6,1090.7L960.5,1087.9L960.5,1084.3L966.0,1077.0L968.2,1077.2L971.8,1079.7L980.8,1084.4L982.2,1084.5L983.8,1082.0L983.3,1078.7L985.7,1071.5L987.4,1070.5L990.6,1064.0L992.0,1062.5L992.0,1060.6L988.6,1056.9L989.8,1055.1L986.8,1048.9L987.5,1047.1L991.8,1041.7L992.2,1036.5L979.5,1026.6L978.8,1024.8L978.5,1017.6L980.7,1017.3L984.0,1016.2L983.9,1014.5L985.3,1010.7L983.8,1007.4L980.8,1004.9L976.6,997.5L971.2,996.6L969.4,999.1L967.1,1000.7L963.3,999.6L959.4,998.0L956.3,996.1L948.7,987.6L940.0,984.5L931.6,985.2L929.2,987.5L926.5,989.2L923.0,988.3L914.3,991.0L910.1,991.1L906.6,990.1L903.2,987.8L899.2,987.0L895.4,987.5L892.5,989.6L890.3,992.1L889.2,997.4L887.2,1002.1L884.7,1003.4Z " data-id="LA.AT" data-name="Attapu" id="LA.AT"/>
utf-8utf-8<path d="M919.3,860.6L918.0,864.5L914.2,870.2L913.4,875.2L909.3,876.7L906.8,879.0L904.1,880.5L900.6,879.5L898.3,881.9L894.1,881.8L889.9,881.0L887.0,879.4L884.0,879.1L882.5,882.7L882.1,886.8L884.1,891.0L881.7,893.4L877.0,899.9L873.8,906.6L871.7,914.0L869.4,916.4L870.2,919.6L873.4,921.8L876.1,924.6L874.6,926.2L873.7,929.1L876.2,932.8L877.7,937.1L876.5,939.4L878.0,946.0L876.9,947.9L870.6,946.8L866.8,949.9L859.7,949.9L855.2,949.1L851.3,949.8L850.4,953.2L848.2,955.1L844.8,954.4L841.6,952.7L838.4,952.2L835.7,953.5L835.5,956.9L833.1,958.4L835.9,964.9L843.0,967.7L849.5,970.2L856.0,977.9L860.3,979.8L864.5,980.0L867.3,980.9L881.1,991.9L883.3,1003.5L884.0,1003.6L884.7,1003.4L887.2,1002.1L889.2,997.4L890.3,992.1L892.5,989.6L895.4,987.5L899.2,987.0L903.2,987.8L906.6,990.1L910.1,991.1L914.3,991.0L923.0,988.3L926.5,989.2L929.2,987.5L931.6,985.2L940.0,984.5L948.7,987.6L956.3,996.1L959.4,998.0L963.3,999.6L967.1,1000.7L969.4,999.1L971.2,996.6L976.6,997.5L980.8,1004.9L983.8,1007.4L985.3,1010.7L983.9,1014.5L984.0,1016.2L985.9,1015.6L992.9,1015.8L994.1,1014.3L992.4,1009.0L995.9,1003.7L996.2,995.4L997.1,994.3L999.6,987.7L996.2,981.6L990.3,977.1L988.7,975.4L987.6,973.0L985.8,966.1L983.7,965.5L978.7,966.4L976.2,964.9L974.4,956.6L970.5,955.6L969.2,952.9L964.0,952.9L961.6,955.6L960.0,954.6L952.0,941.9L950.3,940.4L945.4,937.8L940.9,932.1L939.6,926.4L937.4,923.0L930.3,918.7L928.6,916.7L928.4,913.9L930.4,906.5L932.9,904.6L936.5,905.8L937.4,905.5L944.9,899.6L946.9,898.7L951.3,897.8L952.9,896.9L954.4,894.6L956.8,888.1L959.4,884.5L957.4,880.6L957.2,876.4L954.3,875.9L947.9,877.7L944.5,878.2L941.0,877.1L937.9,874.4L932.6,868.1L929.2,865.8L923.9,864.4L920.2,861.7L919.3,860.6Z " data-id="LA.XE" data-name="Xékong" id="LA.XE"/>
utf-8</g>
</svg>
