<?xml version="1.0" ?>
<!DOCTYPE svg
  PUBLIC '-//W3C//DTD SVG 1.1//EN'
  'http://www.w3.org/Graphics/SVG/1.1/DTD/svg11.dtd'>
<svg enable_background="new 0 0 1000 1447" height="1447px" pretty_print="True" style="stroke-linejoin: round; stroke:#000; fill: none;" version="1.1" viewBox="0 0 1000 1447" width="1000px" xmlns="http://www.w3.org/2000/svg" xmlns:xlink="http://www.w3.org/1999/xlink">
utf-8<defs>
utf-8utf-8<style type="text/css">
<![CDATA[path { fill-rule: evenodd; }]]>utf-8utf-8</style>
utf-8</defs>
utf-8<metadata>
utf-8utf-8<views>
utf-8utf-8utf-8<view h="1447.63177059" padding="0" w="1000">
utf-8utf-8utf-8utf-8<proj flip="auto" id="robinson" lon0="36.1137813762"/>
utf-8utf-8utf-8utf-8<bbox h="27.48" w="19.0" x="493.78" y="-581.6"/>
utf-8utf-8utf-8</view>
utf-8utf-8</views>
utf-8</metadata>
utf-8<g class="" id="provinces">
utf-8utf-8<path d="M765.8,168.1L750.3,170.1L741.5,173.8L740.1,175.8L710.3,201.1L707.9,204.9L707.0,209.5L707.3,213.4L706.3,217.5L694.4,235.6L698.7,246.5L698.2,248.7L683.0,290.3L679.9,294.7L674.5,300.8L660.9,312.6L655.3,319.3L653.1,323.0L652.0,325.9L647.2,354.8L627.4,378.2L604.1,413.0L604.3,435.9L602.9,443.7L590.7,469.7L588.2,472.8L584.5,474.4L567.7,475.8L563.5,490.5L563.0,496.8L566.6,550.7L541.3,616.9L524.4,648.2L516.2,652.1L486.4,682.4L479.4,692.5L479.1,694.6L476.7,701.8L466.7,723.7L425.4,780.8L451.8,798.3L455.7,804.8L451.9,812.8L448.7,815.9L446.5,816.8L442.2,817.1L433.7,816.2L428.2,816.2L411.3,845.7L424.1,857.3L424.1,861.7L418.9,868.4L415.7,873.7L413.1,875.9L406.3,879.8L371.1,944.2L367.2,953.5L361.3,976.3L355.9,1018.8L354.6,1024.3L353.1,1028.2L348.5,1036.0L345.8,1039.3L340.0,1044.7L344.3,1065.7L348.6,1077.2L350.3,1080.5L354.8,1088.6L358.7,1093.3L363.4,1112.2L378.0,1117.1L383.5,1114.8L389.7,1105.5L394.7,1095.5L401.5,1085.8L410.5,1075.4L415.2,1071.9L418.7,1070.3L433.7,1075.1L449.7,1084.1L454.6,1089.6L457.5,1096.0L466.5,1111.4L470.0,1115.2L472.9,1117.3L507.3,1121.7L520.2,1125.1L537.4,1114.0L550.1,1105.9L570.8,1086.6L579.3,1058.4L567.3,1040.4L574.3,1028.7L591.1,1023.1L608.4,1023.3L621.7,1016.8L635.8,1006.8L645.6,993.4L646.1,977.0L638.5,967.0L625.0,957.8L610.7,951.0L599.8,948.1L581.4,938.4L564.7,935.3L554.3,929.2L554.9,910.3L557.5,907.3L566.7,903.7L569.8,900.2L570.8,891.7L566.9,875.7L567.1,868.3L571.6,860.4L583.7,848.0L587.0,837.9L595.4,822.7L617.4,801.8L625.2,783.0L631.4,773.4L642.6,768.5L655.9,764.9L668.1,759.4L692.7,743.1L697.9,746.0L708.6,757.8L715.0,761.6L730.4,761.2L741.4,754.0L750.8,745.7L761.5,741.4L774.6,743.9L814.7,762.5L843.3,769.2L857.2,766.9L864.8,755.2L861.2,737.0L847.5,729.1L818.0,724.2L794.2,707.3L788.9,701.9L783.2,693.4L781.6,690.2L793.6,658.2L801.9,642.3L811.8,628.1L838.1,602.3L858.9,571.1L873.5,563.2L882.1,564.0L898.6,569.9L908.7,569.4L920.0,563.4L923.1,555.2L923.3,544.7L926.1,532.2L938.3,514.0L968.0,485.8L981.6,457.1L999.7,434.2L994.2,424.7L974.2,407.0L967.9,394.2L962.4,377.5L966.6,366.1L972.5,356.3L972.6,344.7L968.0,337.8L963.1,336.7L957.7,337.1L952.2,334.8L943.3,326.2L924.7,303.9L920.3,297.0L917.4,289.9L917.2,282.6L919.0,278.0L921.1,273.8L922.4,267.6L923.2,253.1L922.6,243.2L917.7,235.4L904.9,227.0L899.8,228.9L894.0,225.4L881.8,212.1L868.6,206.7L857.8,198.4L849.1,186.9L832.0,168.4L811.7,166.8L790.3,167.8L772.5,172.9L768.4,172.1L765.8,168.1Z " data-id="LB.BI" data-name="Beqaa" id="LB.BI"/>
utf-8utf-8<path d="M290.9,417.7L291.9,418.1L311.1,420.0L362.9,444.8L376.5,446.7L379.1,446.6L389.5,444.2L407.8,444.8L411.0,444.4L416.0,442.3L425.0,440.1L434.7,439.2L440.3,439.6L444.4,440.7L454.5,447.9L460.5,450.4L476.3,459.6L480.7,461.0L486.0,460.7L490.7,462.9L496.4,464.4L501.9,463.1L503.1,461.5L504.4,457.2L505.8,454.5L507.7,454.1L515.2,456.4L519.8,460.3L545.8,472.3L550.9,473.3L555.8,473.6L560.2,472.1L567.7,475.8L584.5,474.4L588.2,472.8L590.7,469.7L602.9,443.7L604.3,435.9L604.1,413.0L627.4,378.2L647.2,354.8L652.0,325.9L653.1,323.0L655.3,319.3L660.9,312.6L674.5,300.8L679.9,294.7L683.0,290.3L698.2,248.7L698.7,246.5L694.4,235.6L706.3,217.5L707.3,213.4L707.0,209.5L707.9,204.9L710.3,201.1L740.1,175.8L741.5,173.8L750.3,170.1L765.8,168.1L756.9,154.3L767.6,141.2L786.5,130.3L799.5,119.0L801.1,105.1L798.7,92.0L798.9,81.3L809.0,74.5L820.2,77.7L828.8,84.0L833.5,79.9L833.1,51.8L816.0,57.6L797.8,57.9L779.6,51.9L763.2,38.7L742.1,7.2L730.3,0.0L716.3,10.7L714.7,17.5L716.4,34.9L714.7,43.1L708.8,50.4L701.9,53.7L657.8,56.2L653.1,54.6L643.7,48.1L639.8,46.5L635.4,47.6L627.2,53.0L624.2,54.0L573.2,50.3L554.1,53.1L537.2,52.6L520.7,48.0L506.6,37.5L500.9,35.0L494.3,33.2L494.0,43.7L500.5,59.4L504.7,78.2L509.1,120.0L506.4,132.5L499.8,140.4L489.0,149.0L454.1,186.5L397.5,201.7L383.4,198.1L384.0,203.6L399.9,225.1L389.2,242.5L351.0,264.9L343.2,283.2L335.4,311.4L325.5,329.9L311.7,319.5L296.2,334.6L289.9,358.1L289.7,385.8L292.5,413.7L290.9,417.7Z " data-id="LB.AS" data-name="North Lebanon" id="LB.AS"/>
utf-8utf-8<path d="M240.9,693.1L234.2,697.1L229.2,697.1L224.2,693.1L215.3,689.5L205.4,687.9L197.8,690.5L194.6,697.5L197.9,704.8L203.5,713.3L207.1,723.8L207.6,730.2L207.6,730.2L222.0,733.2L231.8,732.8L234.3,731.2L238.2,724.9L246.3,724.2L251.8,697.9L251.5,693.9L240.9,693.1Z " data-id="LB.BA" data-name="Beirut" id="LB.BA"/>
utf-8utf-8<path d="M560.2,472.1L555.8,473.6L550.9,473.3L545.8,472.3L519.8,460.3L515.2,456.4L507.7,454.1L505.8,454.5L504.4,457.2L503.1,461.5L501.9,463.1L496.4,464.4L490.7,462.9L486.0,460.7L480.7,461.0L476.3,459.6L460.5,450.4L454.5,447.9L444.4,440.7L440.3,439.6L434.7,439.2L425.0,440.1L416.0,442.3L411.0,444.4L407.8,444.8L389.5,444.2L379.1,446.6L376.5,446.7L362.9,444.8L311.1,420.0L291.9,418.1L290.9,417.7L290.7,418.3L281.1,425.9L279.6,432.4L283.1,462.7L286.9,475.3L299.6,494.8L303.1,505.2L303.1,532.7L295.5,571.6L298.2,593.2L301.0,596.5L305.2,599.0L309.1,603.2L310.4,611.3L307.8,614.9L295.5,615.1L290.9,616.9L286.6,625.7L280.1,646.9L274.7,654.3L279.3,654.7L280.6,656.1L280.8,659.7L277.8,667.0L272.8,684.6L268.8,690.5L258.5,694.4L251.5,693.9L251.5,693.9L251.8,697.9L246.3,724.2L238.2,724.9L234.3,731.2L231.8,732.8L222.0,733.2L207.6,730.2L210.6,767.0L209.7,784.5L188.7,855.8L190.3,866.4L178.8,874.4L174.3,910.7L164.0,920.7L169.3,926.7L157.2,974.2L161.1,975.7L183.0,976.7L203.1,986.5L221.6,989.9L229.7,989.6L232.6,989.9L235.3,986.5L237.3,986.2L244.6,986.6L249.8,985.4L263.8,980.2L267.8,980.4L277.3,978.4L280.6,975.9L283.5,971.2L287.9,969.7L290.0,966.2L291.3,965.4L296.3,964.9L308.0,962.4L309.7,960.8L314.1,958.8L317.5,959.4L321.0,963.8L324.0,970.6L325.7,988.4L325.8,995.9L324.9,1001.3L325.0,1003.8L326.4,1006.7L330.2,1010.0L332.7,1011.4L339.5,1014.0L341.5,1019.7L340.0,1044.7L345.8,1039.3L348.5,1036.0L353.1,1028.2L354.6,1024.3L355.9,1018.8L361.3,976.3L367.2,953.5L371.1,944.2L406.3,879.8L413.1,875.9L415.7,873.7L418.9,868.4L424.1,861.7L424.1,857.3L411.3,845.7L428.2,816.2L433.7,816.2L442.2,817.1L446.5,816.8L448.7,815.9L451.9,812.8L455.7,804.8L451.8,798.3L425.4,780.8L466.7,723.7L476.7,701.8L479.1,694.6L479.4,692.5L486.4,682.4L516.2,652.1L524.4,648.2L541.3,616.9L566.6,550.7L563.0,496.8L563.5,490.5L567.7,475.8L560.2,472.1Z " data-id="LB.JL" data-name="Mount Lebanon" id="LB.JL"/>
utf-8utf-8<path d="M520.2,1125.1L507.3,1121.7L472.9,1117.3L470.0,1115.2L466.5,1111.4L457.5,1096.0L454.6,1089.6L449.7,1084.1L433.7,1075.1L418.7,1070.3L415.2,1071.9L410.5,1075.4L401.5,1085.8L394.7,1095.5L389.7,1105.5L383.5,1114.8L378.0,1117.1L363.4,1112.2L358.5,1123.7L355.8,1126.5L351.7,1128.2L340.3,1140.4L336.0,1153.9L333.7,1155.3L329.6,1156.0L327.2,1155.7L322.2,1153.9L312.5,1157.5L309.5,1163.5L303.9,1187.0L289.6,1161.5L286.5,1154.3L286.6,1142.4L277.7,1085.1L277.6,1082.8L278.6,1060.9L278.4,1053.4L274.3,1052.2L269.9,1057.1L264.3,1059.8L260.1,1059.8L255.8,1061.1L248.1,1065.8L241.8,1067.7L237.1,1067.8L231.4,1066.6L200.2,1073.9L193.6,1078.2L198.7,1081.9L199.8,1084.3L199.6,1088.6L196.2,1091.4L191.6,1092.2L183.3,1093.0L181.4,1094.5L179.9,1097.2L178.6,1100.7L173.7,1110.4L173.0,1113.2L175.0,1115.1L178.8,1114.0L180.4,1114.2L181.7,1115.6L181.7,1121.7L171.2,1146.0L170.5,1150.2L172.3,1157.8L171.3,1160.1L169.7,1160.5L168.0,1159.6L163.6,1153.9L159.8,1151.2L153.7,1141.9L151.0,1140.6L147.1,1140.2L139.9,1142.3L136.6,1144.4L134.9,1146.5L134.6,1148.6L135.0,1156.0L134.4,1159.2L132.6,1164.7L130.8,1167.2L128.2,1168.5L121.2,1168.9L119.8,1169.8L124.4,1173.1L128.7,1174.3L140.9,1174.7L149.3,1179.2L153.5,1182.4L155.9,1188.0L154.2,1202.0L167.1,1214.3L182.0,1219.0L201.9,1222.6L206.8,1222.9L209.7,1222.3L212.7,1219.9L224.0,1217.7L218.0,1227.6L217.9,1232.5L218.9,1236.1L220.6,1250.5L219.8,1255.1L217.9,1259.4L214.8,1262.8L197.3,1288.7L193.6,1293.1L190.4,1295.8L182.9,1298.8L179.1,1301.4L177.9,1303.6L177.9,1305.6L179.5,1307.1L185.5,1310.0L187.3,1311.5L188.7,1314.7L187.8,1316.0L181.1,1320.4L176.9,1321.9L170.0,1322.0L167.0,1322.7L166.6,1325.0L167.0,1333.9L166.1,1337.3L164.6,1340.2L161.5,1343.5L157.1,1345.0L151.3,1343.8L147.3,1344.3L145.6,1347.5L139.3,1371.6L139.5,1377.6L138.9,1381.8L140.4,1390.7L140.9,1400.8L140.6,1407.2L145.1,1409.1L154.1,1415.8L162.4,1424.8L168.7,1435.2L176.6,1444.2L186.5,1445.6L227.1,1434.7L260.8,1419.5L283.3,1417.6L285.5,1404.2L296.5,1379.4L301.2,1364.6L302.6,1342.2L299.5,1298.6L303.1,1279.2L308.4,1267.1L311.4,1255.1L315.5,1246.7L324.0,1245.7L328.9,1251.0L344.6,1272.1L354.8,1279.1L359.8,1279.1L355.7,1262.9L361.5,1256.2L383.3,1251.3L396.7,1239.4L421.5,1209.9L434.2,1206.4L443.8,1205.4L454.1,1202.4L463.8,1197.9L471.9,1192.3L482.5,1178.8L493.9,1149.3L503.7,1135.7L520.2,1125.1Z " data-id="LB.NA" data-name="An Nabatiyah" id="LB.NA"/>
utf-8utf-8<path d="M341.5,1019.7L339.5,1014.0L332.7,1011.4L330.2,1010.0L326.4,1006.7L325.0,1003.8L324.9,1001.3L325.8,995.9L325.7,988.4L324.0,970.6L321.0,963.8L317.5,959.4L314.1,958.8L309.7,960.8L308.0,962.4L296.3,964.9L291.3,965.4L290.0,966.2L287.9,969.7L283.5,971.2L280.6,975.9L277.3,978.4L267.8,980.4L263.8,980.2L249.8,985.4L244.6,986.6L237.3,986.2L235.3,986.5L232.6,989.9L229.7,989.6L221.6,989.9L203.1,986.5L183.0,976.7L161.1,975.7L157.2,974.2L149.8,1003.5L149.5,1014.9L144.2,1041.0L127.1,1061.3L92.0,1090.8L96.3,1101.9L92.8,1112.8L81.6,1133.0L80.2,1145.3L82.4,1169.1L81.9,1180.8L72.3,1219.4L63.0,1235.8L48.5,1247.6L66.4,1270.0L66.1,1296.3L49.1,1344.6L45.9,1338.9L43.3,1337.7L39.0,1338.6L44.1,1344.6L39.8,1352.0L36.4,1362.1L32.1,1370.9L16.4,1377.8L9.4,1385.5L3.8,1395.5L0.3,1405.3L1.5,1410.3L2.7,1411.3L6.0,1410.8L5.7,1416.1L65.4,1420.6L68.5,1419.2L76.0,1412.9L80.6,1411.0L85.0,1411.4L95.8,1414.1L101.1,1414.5L127.5,1405.4L136.6,1405.4L140.6,1407.2L140.9,1400.8L140.4,1390.7L138.9,1381.8L139.5,1377.6L139.3,1371.6L145.6,1347.5L147.3,1344.3L151.3,1343.8L157.1,1345.0L161.5,1343.5L164.6,1340.2L166.1,1337.3L167.0,1333.9L166.6,1325.0L167.0,1322.7L170.0,1322.0L176.9,1321.9L181.1,1320.4L187.8,1316.0L188.7,1314.7L187.3,1311.5L185.5,1310.0L179.5,1307.1L177.9,1305.6L177.9,1303.6L179.1,1301.4L182.9,1298.8L190.4,1295.8L193.6,1293.1L197.3,1288.7L214.8,1262.8L217.9,1259.4L219.8,1255.1L220.6,1250.5L218.9,1236.1L217.9,1232.5L218.0,1227.6L224.0,1217.7L212.7,1219.9L209.7,1222.3L206.8,1222.9L201.9,1222.6L182.0,1219.0L167.1,1214.3L154.2,1202.0L155.9,1188.0L153.5,1182.4L149.3,1179.2L140.9,1174.7L128.7,1174.3L124.4,1173.1L119.8,1169.8L121.2,1168.9L128.2,1168.5L130.8,1167.2L132.6,1164.7L134.4,1159.2L135.0,1156.0L134.6,1148.6L134.9,1146.5L136.6,1144.4L139.9,1142.3L147.1,1140.2L151.0,1140.6L153.7,1141.9L159.8,1151.2L163.6,1153.9L168.0,1159.6L169.7,1160.5L171.3,1160.1L172.3,1157.8L170.5,1150.2L171.2,1146.0L181.7,1121.7L181.7,1115.6L180.4,1114.2L178.8,1114.0L175.0,1115.1L173.0,1113.2L173.7,1110.4L178.6,1100.7L179.9,1097.2L181.4,1094.5L183.3,1093.0L191.6,1092.2L196.2,1091.4L199.6,1088.6L199.8,1084.3L198.7,1081.9L193.6,1078.2L200.2,1073.9L231.4,1066.6L237.1,1067.8L241.8,1067.7L248.1,1065.8L255.8,1061.1L260.1,1059.8L264.3,1059.8L269.9,1057.1L274.3,1052.2L278.4,1053.4L278.6,1060.9L277.6,1082.8L277.7,1085.1L286.6,1142.4L286.5,1154.3L289.6,1161.5L303.9,1187.0L309.5,1163.5L312.5,1157.5L322.2,1153.9L327.2,1155.7L329.6,1156.0L333.7,1155.3L336.0,1153.9L340.3,1140.4L351.7,1128.2L355.8,1126.5L358.5,1123.7L363.4,1112.2L358.7,1093.3L354.8,1088.6L350.3,1080.5L348.6,1077.2L344.3,1065.7L340.0,1044.7L341.5,1019.7Z " data-id="LB.JA" data-name="South Lebanon" id="LB.JA"/>
utf-8</g>
</svg>
