<?xml version="1.0" ?>
<!DOCTYPE svg
  PUBLIC '-//W3C//DTD SVG 1.1//EN'
  'http://www.w3.org/Graphics/SVG/1.1/DTD/svg11.dtd'>
<svg enable_background="new 0 0 1000 2178" height="2178px" pretty_print="True" style="stroke-linejoin: round; stroke:#000; fill: none;" version="1.1" viewBox="0 0 1000 2178" width="1000px" xmlns="http://www.w3.org/2000/svg" xmlns:xlink="http://www.w3.org/1999/xlink">
utf-8<defs>
utf-8utf-8<style type="text/css">
<![CDATA[path { fill-rule: evenodd; }]]>utf-8utf-8</style>
utf-8</defs>
utf-8<metadata>
utf-8utf-8<views>
utf-8utf-8utf-8<view h="2178.60621997" padding="0" w="1000">
utf-8utf-8utf-8utf-8<proj flip="auto" id="robinson" lon0="-61.0208516582"/>
utf-8utf-8utf-8utf-8<bbox h="6.66" w="3.06" x="-897.07" y="-236.63"/>
utf-8utf-8utf-8</view>
utf-8utf-8</views>
utf-8</metadata>
utf-8<g class="" id="provinces">
utf-8utf-8<path d="M506.1,1097.5L510.6,1028.8L512.3,912.1L507.6,802.2L476.1,733.5L393.3,712.9L313.0,682.3L261.9,805.4L134.8,990.0L103.6,1066.2L91.2,1111.7L144.3,1111.2L215.1,1131.9L289.2,1193.7L347.2,1317.3L441.6,1344.7L480.4,1303.5L499.3,1200.5L506.1,1097.5Z " data-id="LC.AR" data-name="Anse-la-Raye" id="LC.AR"/>
utf-8utf-8<path d="M543.7,408.5L518.1,434.8L469.3,464.2L442.8,486.3L313.0,682.3L393.3,712.9L476.1,733.5L507.6,802.2L512.3,912.1L510.6,1028.8L506.1,1097.5L499.3,1200.5L537.7,1255.5L590.5,1276.1L598.2,1159.3L626.2,1008.2L683.9,864.0L723.1,726.7L752.1,561.8L760.9,514.7L654.5,493.2L623.0,424.5L557.3,374.6L543.7,408.5Z " data-id="LC.CN" data-name="Castries" id="LC.CN"/>
utf-8utf-8<path d="M474.1,1513.0L422.5,1543.9L255.6,1612.6L137.3,1674.4L43.2,1751.9L56.6,1780.6L130.0,1888.1L266.4,1948.8L304.7,1868.6L364.6,1753.0L433.5,1602.7L451.7,1556.5L475.4,1540.2L474.1,1513.0Z " data-id="LC.CS" data-name="Choiseul" id="LC.CS"/>
utf-8utf-8<path d="M723.1,726.7L683.9,864.0L626.2,1008.2L598.2,1159.3L701.8,1138.7L783.7,1173.1L858.6,1131.9L938.8,1114.6L989.9,862.9L999.8,719.3L910.9,706.1L820.2,712.9L723.1,726.7Z " data-id="LC.DE" data-name="Dennery" id="LC.DE"/>
utf-8utf-8<path d="M557.3,374.6L623.0,424.5L654.5,493.2L760.9,514.7L780.2,410.8L810.3,321.5L874.5,259.7L947.0,210.9L896.9,177.5L868.2,128.4L896.0,33.9L805.6,0.0L734.1,52.6L604.2,239.9L582.5,277.8L557.3,374.6Z " data-id="LC.GI" data-name="Gros Islet" id="LC.GI"/>
utf-8utf-8<path d="M475.4,1540.2L451.7,1556.5L433.5,1602.7L364.6,1753.0L304.7,1868.6L266.4,1948.8L478.8,2043.3L506.0,2089.1L532.2,2028.6L535.4,1953.4L537.7,1841.7L512.7,1758.8L488.7,1635.5L476.5,1564.2L475.4,1540.2Z " data-id="LC.LB" data-name="Laborie" id="LC.LB"/>
utf-8utf-8<path d="M560.3,1461.5L505.9,1494.0L564.6,1578.2L653.2,1695.0L708.4,1770.5L756.9,1851.5L794.8,1839.9L809.7,1833.2L825.0,1795.3L902.1,1527.1L790.3,1530.2L660.7,1489.0L560.3,1461.5Z " data-id="LC.MI" data-name="Micoud" id="LC.MI"/>
utf-8utf-8<path d="M480.4,1303.5L441.6,1344.7L347.2,1317.3L289.2,1193.7L215.1,1131.9L144.3,1111.2L91.2,1111.7L41.1,1213.8L24.8,1271.8L23.0,1327.6L32.9,1362.3L44.7,1390.0L50.0,1425.2L48.2,1533.1L39.3,1588.6L0.2,1674.5L16.3,1716.0L43.2,1751.9L137.3,1674.4L255.6,1612.6L422.5,1543.9L474.1,1513.0L505.9,1494.0L560.3,1461.5L586.9,1331.0L590.5,1276.1L537.7,1255.5L499.3,1200.5L480.4,1303.5Z " data-id="LC.CO" data-name="Soufrière" id="LC.CO"/>
utf-8utf-8<path d="M756.9,1851.5L708.4,1770.5L653.2,1695.0L564.6,1578.2L505.9,1494.0L474.1,1513.0L475.4,1540.2L476.5,1564.2L488.7,1635.5L512.7,1758.8L537.7,1841.7L535.4,1953.4L532.2,2028.6L506.0,2089.1L558.1,2176.6L581.9,2176.6L597.3,2167.7L629.3,2135.8L686.2,1926.4L711.9,1873.8L733.4,1858.7L756.9,1851.5Z " data-id="LC.VF" data-name="Vieux Fort" id="LC.VF"/>
utf-8</g>
</svg>
