<?xml version="1.0" ?>
<!DOCTYPE svg
  PUBLIC '-//W3C//DTD SVG 1.1//EN'
  'http://www.w3.org/Graphics/SVG/1.1/DTD/svg11.dtd'>
<svg enable_background="new 0 0 1000 2331" height="2331px" pretty_print="True" style="stroke-linejoin: round; stroke:#000; fill: none;" version="1.1" viewBox="0 0 1000 2331" width="1000px" xmlns="http://www.w3.org/2000/svg" xmlns:xlink="http://www.w3.org/1999/xlink">
utf-8<defs>
utf-8utf-8<style type="text/css">
<![CDATA[path { fill-rule: evenodd; }]]>utf-8utf-8</style>
utf-8</defs>
utf-8<metadata>
utf-8utf-8<views>
utf-8utf-8utf-8<view h="2331.5712739" padding="0" w="1000">
utf-8utf-8utf-8utf-8<proj flip="auto" id="robinson" lon0="9.55344731586"/>
utf-8utf-8utf-8utf-8<bbox h="3.45" w="1.48" x="124.21" y="-790.38"/>
utf-8utf-8utf-8</view>
utf-8utf-8</views>
utf-8</metadata>
utf-8<g class="" id="provinces">
utf-8utf-8<path d="M868.0,1708.6L840.3,1542.4L800.8,1437.7L719.7,1388.4L733.8,1271.5L662.0,1209.9L594.2,1129.8L574.4,1228.4L548.1,1296.1L454.7,1296.1L421.7,1326.9L423.3,1462.3L480.4,1523.9L495.5,1634.7L526.6,1770.2L623.0,1831.7L702.3,1844.1L740.6,1924.1L804.8,1930.2L809.6,1825.6L799.7,1720.9L868.0,1708.6Z " data-id="LI.TB" data-name="Triesenberg" id="LI.TB"/>
utf-8utf-8<path d="M999.8,2212.5L959.5,2078.0L938.5,1948.7L804.8,1930.2L842.2,1991.8L836.2,2071.9L747.7,2071.9L689.7,1991.8L740.6,1924.1L702.3,1844.1L623.0,1831.7L526.6,1770.2L495.5,1634.7L480.4,1523.9L423.3,1462.3L288.7,1477.4L304.6,1713.7L227.5,1861.3L312.9,1930.2L402.3,1948.7L411.7,2041.1L474.8,2127.3L503.9,2219.6L516.1,2294.9L761.1,2329.6L940.7,2280.1L999.8,2212.5Z " data-id="LI.TN" data-name="Triesen" id="LI.TN"/>
utf-8utf-8<path d="M804.8,1930.2L740.6,1924.1L689.7,1991.8L747.7,2071.9L836.2,2071.9L842.2,1991.8L804.8,1930.2Z M97.9,1980.3L0.2,2099.0L15.2,2202.3L216.9,2252.6L516.1,2294.9L503.9,2219.6L474.8,2127.3L411.7,2041.1L402.3,1948.7L312.9,1930.2L227.5,1861.3L97.9,1980.3Z M760.6,1129.1L733.8,1271.5L819.5,1314.6L891.3,1376.1L978.7,1456.2L1000.0,1484.2L1000.0,1314.4L893.8,1194.7L760.6,1129.1Z " data-id="LI.BA" data-name="Balzers" id="LI.BA"/>
utf-8utf-8<path d="M868.0,1708.6L799.7,1720.9L809.6,1825.6L804.8,1930.2L938.5,1948.7L1000.0,1928.5L1000.0,1679.3L951.0,1696.3L868.0,1708.6Z M206.1,1300.0L288.7,1477.4L423.3,1462.3L421.7,1326.9L454.7,1296.1L548.1,1296.1L574.4,1228.4L594.2,1129.8L504.8,1111.4L390.2,1080.6L323.5,1123.7L276.0,1056.0L211.2,1037.5L244.3,1216.0L130.3,1183.1L206.1,1300.0Z " data-id="LI.VA" data-name="Vaduz" id="LI.VA"/>
utf-8utf-8<path d="M938.5,1948.7L959.5,2078.0L999.8,2212.5L1000.0,2212.2L1000.0,1928.5L938.5,1948.7Z M733.8,1271.5L719.7,1388.4L800.8,1437.7L840.3,1542.4L868.0,1708.6L951.0,1696.3L1000.0,1679.3L1000.0,1484.2L978.7,1456.2L891.3,1376.1L819.5,1314.6L733.8,1271.5Z M26.2,957.3L102.6,1140.4L130.3,1183.1L244.3,1216.0L211.2,1037.5L276.0,1056.0L323.5,1123.7L390.2,1080.6L504.8,1111.4L594.2,1129.8L624.2,1062.0L618.7,965.9L521.4,945.1L418.6,852.8L423.7,754.2L302.6,791.2L149.9,785.0L28.1,729.5L26.2,957.3Z " data-id="LI.SN" data-name="Schaan" id="LI.SN"/>
utf-8utf-8<path d="M165.4,391.0L104.9,375.0L29.4,584.5L28.1,729.5L149.9,785.0L302.6,791.2L423.7,754.2L312.9,698.8L226.7,643.4L211.5,532.6L245.6,421.7L165.4,391.0Z " data-id="LI.GA" data-name="Gamprin" id="LI.GA"/>
utf-8utf-8<path d="M104.9,375.0L165.4,391.0L245.6,421.7L309.2,415.6L301.0,347.9L356.4,274.0L382.3,200.1L421.3,128.7L385.3,101.3L300.0,0.0L164.0,211.1L104.9,375.0Z " data-id="LI.RU" data-name="Ruggell" id="LI.RU"/>
utf-8utf-8<path d="M539.8,218.9L421.3,128.7L382.3,200.1L356.4,274.0L301.0,347.9L309.2,415.6L394.1,341.7L509.1,309.9L539.8,218.9Z " data-id="LI.SB" data-name="Schellenberg" id="LI.SB"/>
utf-8utf-8<path d="M531.8,470.4L487.9,373.1L509.1,309.9L394.1,341.7L309.2,415.6L357.8,507.9L513.5,575.7L620.5,566.8L531.8,470.4Z " data-id="LI.MA" data-name="Mauren" id="LI.MA"/>
utf-8utf-8<path d="M624.2,1062.0L594.2,1129.8L662.0,1209.9L733.8,1271.5L760.6,1129.1L624.2,1062.0Z M423.7,754.2L418.6,852.8L521.4,945.1L618.7,965.9L698.4,799.4L604.1,723.5L499.7,698.8L423.7,754.2Z " data-id="LI.PL" data-name="Planken" id="LI.PL"/>
utf-8utf-8<path d="M309.2,415.6L245.6,421.7L211.5,532.6L226.7,643.4L312.9,698.8L423.7,754.2L499.7,698.8L604.1,723.5L698.4,799.4L703.7,720.4L620.5,566.8L513.5,575.7L357.8,507.9L309.2,415.6Z " data-id="LI.ES" data-name="Eschen" id="LI.ES"/>
utf-8</g>
</svg>
