<?xml version="1.0" ?>
<!DOCTYPE svg
  PUBLIC '-//W3C//DTD SVG 1.1//EN'
  'http://www.w3.org/Graphics/SVG/1.1/DTD/svg11.dtd'>
<svg enable_background="new 0 0 1000 1963" height="1963px" pretty_print="True" style="stroke-linejoin: round; stroke:#000; fill: none;" version="1.1" viewBox="0 0 1000 1963" width="1000px" xmlns="http://www.w3.org/2000/svg" xmlns:xlink="http://www.w3.org/1999/xlink">
utf-8<defs>
utf-8utf-8<style type="text/css">
<![CDATA[path { fill-rule: evenodd; }]]>utf-8utf-8</style>
utf-8</defs>
utf-8<metadata>
utf-8utf-8<views>
utf-8utf-8utf-8<view h="1963.4418181" padding="0" w="1000">
utf-8utf-8utf-8utf-8<proj flip="auto" id="robinson" lon0="80.6434877421"/>
utf-8utf-8utf-8utf-8<bbox h="65.38" w="33.32" x="1176.68" y="-164.72"/>
utf-8utf-8utf-8</view>
utf-8utf-8</views>
utf-8</metadata>
utf-8<g class="" id="provinces">
utf-8utf-8<path d="M573.3,1173.7L564.4,1175.3L559.9,1184.6L557.2,1187.3L554.0,1189.4L548.3,1181.9L541.2,1185.9L522.9,1185.7L509.5,1198.8L496.8,1200.9L479.7,1185.6L473.0,1182.7L467.0,1186.9L464.7,1194.8L467.0,1213.2L458.1,1225.0L441.7,1223.9L412.7,1204.0L402.9,1189.9L397.7,1192.6L392.6,1194.2L396.4,1200.5L399.4,1207.4L394.8,1210.0L388.3,1208.7L382.0,1212.8L382.9,1218.4L382.5,1223.6L374.9,1223.0L367.8,1217.4L361.4,1217.5L360.4,1227.5L357.3,1233.2L358.7,1238.8L350.8,1241.5L341.6,1240.3L347.7,1255.8L367.7,1274.7L367.4,1284.4L371.3,1287.4L382.9,1294.4L388.5,1301.8L387.9,1310.7L388.3,1318.1L395.0,1325.3L400.5,1332.6L398.3,1339.3L395.1,1345.4L390.3,1346.7L385.5,1347.0L378.9,1355.6L363.6,1358.4L358.8,1363.7L366.3,1381.8L369.8,1388.1L366.9,1395.8L367.1,1405.8L379.8,1407.0L401.1,1440.4L414.4,1449.1L423.5,1437.6L428.1,1420.8L422.5,1412.6L415.6,1405.6L407.1,1389.4L403.6,1387.7L400.0,1388.9L409.6,1379.9L425.7,1382.1L434.7,1379.8L447.1,1369.8L455.7,1369.6L463.5,1371.8L490.3,1333.8L498.6,1316.6L493.7,1297.8L491.7,1283.2L499.7,1291.0L506.4,1300.6L511.1,1302.4L515.0,1302.9L526.0,1321.1L542.3,1322.5L561.2,1319.3L579.7,1323.6L585.2,1319.7L594.5,1316.7L605.9,1304.2L606.0,1287.8L594.7,1251.4L587.4,1175.5L573.3,1173.7Z " data-id="LK.KY" data-name="Mahanuvara" id="LK.KY"/>
utf-8utf-8<path d="M561.8,1062.2L537.9,1060.3L537.4,1069.3L535.8,1078.2L528.8,1073.4L524.8,1067.4L516.3,1076.5L505.5,1081.7L493.6,1078.8L488.9,1071.8L489.3,1062.0L481.9,1031.4L484.2,1017.6L496.9,1014.4L497.6,1010.7L498.9,1007.1L502.2,986.8L502.9,975.3L506.2,951.5L518.7,935.8L512.0,931.4L504.9,929.8L499.7,928.1L494.5,931.0L494.4,934.2L491.7,936.2L487.9,934.7L485.4,931.7L485.1,922.9L478.6,915.1L474.5,910.8L465.4,915.1L457.2,919.8L451.7,925.6L443.6,935.8L441.1,937.8L437.8,936.8L433.3,936.8L431.2,944.9L431.8,954.2L427.8,961.5L422.5,968.1L423.6,970.5L424.0,974.0L418.3,978.4L415.3,984.4L408.9,989.6L403.4,985.6L396.3,985.3L388.9,996.0L374.3,1002.2L365.3,1010.1L363.6,1018.3L365.2,1027.1L369.2,1029.6L372.6,1030.6L376.1,1038.5L380.9,1046.8L384.3,1055.4L384.9,1064.1L386.5,1065.3L388.9,1069.0L391.0,1085.8L394.2,1101.3L402.7,1110.3L402.8,1116.2L401.7,1122.1L402.0,1126.7L400.6,1131.0L394.7,1137.5L394.0,1148.1L398.9,1158.2L401.9,1163.2L404.3,1168.5L405.9,1174.8L405.2,1180.9L402.9,1184.7L402.9,1189.9L412.7,1204.0L441.7,1223.9L458.1,1225.0L467.0,1213.2L464.7,1194.8L467.0,1186.9L473.0,1182.7L479.7,1185.6L496.8,1200.9L509.5,1198.8L522.9,1185.7L541.2,1185.9L548.3,1181.9L554.0,1189.4L557.2,1187.3L559.9,1184.6L564.4,1175.3L573.3,1173.7L587.4,1175.5L583.4,1134.3L586.6,1110.7L589.7,1086.9L588.3,1077.2L584.6,1065.9L584.5,1057.5L561.8,1062.2Z " data-id="LK.MT" data-name="Mātale" id="LK.MT"/>
utf-8utf-8<path d="M561.2,1319.3L542.3,1322.5L526.0,1321.1L515.0,1302.9L511.1,1302.4L506.4,1300.6L499.7,1291.0L491.7,1283.2L493.7,1297.8L498.6,1316.6L490.3,1333.8L463.5,1371.8L455.7,1369.6L447.1,1369.8L434.7,1379.8L425.7,1382.1L409.6,1379.9L400.0,1388.9L403.6,1387.7L407.1,1389.4L415.6,1405.6L422.5,1412.6L428.1,1420.8L423.5,1437.6L414.4,1449.1L401.1,1440.4L379.8,1407.0L367.1,1405.8L367.8,1407.4L369.2,1407.9L365.7,1414.9L359.8,1421.0L356.4,1422.3L354.2,1426.1L356.8,1429.9L359.8,1433.2L357.5,1451.9L361.9,1466.4L375.0,1471.1L385.6,1479.7L389.6,1492.9L390.6,1499.7L385.7,1504.7L385.7,1513.0L388.9,1516.7L385.7,1520.3L384.3,1525.4L393.7,1533.3L404.6,1534.3L427.8,1540.1L452.3,1543.8L461.6,1542.1L472.5,1541.1L487.3,1541.6L501.0,1539.5L525.5,1524.7L533.8,1522.4L538.0,1515.1L533.8,1512.8L529.6,1509.8L535.6,1497.9L533.8,1494.5L531.4,1491.4L528.5,1483.7L525.3,1476.7L510.8,1468.6L510.0,1460.6L518.0,1460.2L526.3,1460.7L531.9,1453.0L533.7,1443.0L540.4,1435.7L548.2,1431.4L564.8,1427.3L573.9,1410.8L575.5,1401.0L579.2,1392.1L582.6,1388.4L585.3,1384.3L586.6,1380.5L585.8,1377.0L583.0,1368.1L585.0,1363.5L587.8,1359.3L584.0,1354.0L582.9,1349.8L583.6,1345.2L579.8,1332.6L579.7,1323.6L561.2,1319.3Z " data-id="LK.NW" data-name="Nuvara Ĕliya" id="LK.NW"/>
utf-8utf-8<path d="M695.8,1048.2L694.3,1059.6L696.3,1071.4L694.1,1076.8L691.4,1080.2L689.6,1086.1L688.8,1091.3L680.1,1090.1L669.3,1083.4L647.6,1075.9L633.8,1061.0L617.3,1054.0L609.3,1055.6L592.9,1057.4L584.5,1057.5L584.6,1065.9L588.3,1077.2L589.7,1086.9L586.6,1110.7L587.9,1112.0L594.8,1116.7L598.0,1123.8L598.9,1132.0L603.0,1144.1L614.8,1164.6L622.8,1161.4L627.1,1160.3L632.4,1157.9L641.4,1148.1L662.5,1134.4L682.4,1139.2L685.3,1164.3L681.7,1188.8L679.5,1194.0L678.4,1198.5L680.0,1204.7L682.1,1211.0L686.0,1233.1L691.4,1244.9L698.4,1252.3L702.2,1251.2L707.7,1252.4L709.7,1256.8L713.0,1262.7L717.4,1271.8L719.4,1280.8L723.3,1290.5L727.5,1298.7L736.4,1295.2L744.3,1288.4L741.1,1269.6L740.2,1250.3L751.3,1250.8L760.0,1245.2L761.9,1241.7L764.8,1237.5L766.6,1232.6L765.8,1226.6L763.1,1220.7L762.7,1214.1L767.2,1213.7L773.3,1212.0L776.1,1206.6L777.5,1201.9L782.3,1199.4L787.6,1197.3L798.3,1190.6L807.2,1193.3L801.1,1204.7L804.0,1206.6L807.0,1207.2L806.4,1214.0L812.9,1240.5L812.8,1252.5L815.0,1262.2L825.2,1271.8L831.9,1284.0L833.7,1294.8L844.0,1309.8L837.1,1316.2L828.4,1328.6L823.9,1344.2L830.1,1355.9L832.2,1363.7L836.0,1370.6L839.6,1372.4L842.9,1372.4L845.7,1374.2L848.1,1376.5L864.1,1381.1L877.6,1390.0L877.2,1399.5L875.5,1409.4L879.0,1419.1L879.5,1428.8L885.2,1437.4L887.8,1447.4L884.0,1631.9L898.0,1650.3L903.1,1650.7L908.8,1651.6L916.6,1661.1L931.5,1666.4L957.6,1616.0L961.9,1601.5L958.4,1589.2L970.1,1566.9L972.2,1558.4L973.4,1552.1L979.2,1538.1L980.3,1529.0L980.3,1518.1L981.1,1509.9L998.1,1430.0L999.7,1410.0L998.6,1399.5L993.3,1381.7L991.8,1373.8L988.7,1255.5L975.7,1212.7L968.3,1200.5L966.8,1189.8L965.3,1185.8L961.1,1181.5L958.6,1180.3L957.9,1181.9L959.0,1185.1L959.4,1189.3L956.9,1193.5L955.3,1199.4L954.5,1206.4L951.1,1206.1L946.8,1185.9L944.1,1185.8L940.7,1191.0L937.1,1190.2L936.6,1188.2L936.6,1188.1L916.2,1192.0L907.5,1200.1L892.8,1217.4L889.2,1209.3L886.6,1180.8L882.5,1168.5L881.8,1155.9L871.7,1162.4L842.3,1166.0L813.0,1160.4L805.1,1152.1L790.7,1142.7L786.3,1135.2L785.0,1126.8L788.7,1112.2L788.7,1097.1L774.5,1094.0L760.8,1089.7L750.5,1079.2L734.2,1054.4L722.1,1050.1L707.9,1050.9L695.8,1048.2Z " data-id="LK.AP" data-name="Ampāra" id="LK.AP"/>
utf-8utf-8<path d="M959.2,1172.9L959.0,1162.8L949.5,1118.9L932.4,1090.7L926.6,1075.3L922.3,1068.6L916.2,1054.1L912.3,1058.6L911.2,1063.2L911.2,1068.5L912.9,1073.4L917.1,1082.5L918.1,1087.8L934.1,1112.4L936.1,1116.8L941.2,1121.5L943.0,1132.4L942.6,1164.1L943.5,1170.1L946.4,1173.4L952.9,1179.0L959.2,1172.9Z M761.2,789.3L721.2,784.6L714.0,787.5L717.6,813.7L717.9,893.1L722.0,911.6L730.3,929.7L734.9,948.5L730.8,948.8L714.6,946.5L702.0,948.4L692.4,956.0L689.8,970.6L687.7,1009.3L695.8,1048.2L707.9,1050.9L722.1,1050.1L734.2,1054.4L750.5,1079.2L760.8,1089.7L774.5,1094.0L788.7,1097.1L788.7,1112.2L785.0,1126.8L786.3,1135.2L790.7,1142.7L805.1,1152.1L813.0,1160.4L842.3,1166.0L871.7,1162.4L881.8,1155.9L882.5,1168.5L886.6,1180.8L889.2,1209.3L892.8,1217.4L907.5,1200.1L916.2,1192.0L936.6,1188.1L936.1,1186.3L940.7,1182.4L937.3,1179.2L934.8,1173.5L932.5,1170.2L930.1,1165.8L931.8,1162.7L934.9,1159.9L936.4,1156.5L933.0,1148.1L935.0,1135.3L926.2,1110.9L923.6,1106.9L912.9,1098.3L907.0,1106.9L904.6,1102.1L903.7,1098.7L904.2,1095.8L901.1,1083.7L896.2,1077.7L883.8,1065.3L884.3,1059.9L881.3,1056.2L876.4,1053.5L871.1,1051.3L868.0,1056.4L863.7,1058.2L858.5,1057.4L853.1,1054.7L855.7,1043.5L860.1,1038.2L866.1,1037.6L873.6,1040.7L879.6,1046.2L891.2,1061.8L905.6,1062.0L904.0,1052.2L897.4,1041.3L877.2,1018.7L872.2,1010.2L868.7,999.7L865.6,999.7L856.3,1001.7L846.6,989.8L840.5,972.6L842.6,961.7L846.5,958.7L848.6,958.5L845.0,952.5L835.6,944.7L832.2,937.9L831.7,931.8L833.1,927.7L833.8,923.6L831.2,917.3L829.0,919.3L824.6,921.8L822.4,923.9L822.0,921.6L819.3,917.3L821.2,914.8L819.0,910.2L817.8,912.5L813.0,917.3L806.9,903.1L803.4,897.2L798.2,891.1L794.1,884.1L789.6,866.0L785.7,858.6L783.0,858.6L780.9,869.4L765.4,863.7L761.3,853.2L756.6,850.3L755.0,848.3L754.2,845.3L753.9,836.5L753.6,820.5L756.9,820.5L764.7,841.5L770.9,865.1L778.4,852.6L773.7,829.7L761.2,789.3L761.2,789.3Z " data-id="LK.BC" data-name="Maḍakalapuva" id="LK.BC"/>
utf-8utf-8<path d="M707.1,787.6L701.6,787.5L697.8,792.4L695.1,798.4L689.0,804.3L686.9,817.4L684.9,822.2L679.4,838.7L668.4,841.6L664.4,839.4L669.4,835.7L671.4,829.5L669.4,819.9L669.3,813.4L668.3,807.0L664.9,802.0L659.3,802.5L651.3,798.0L643.8,791.8L636.2,787.0L628.3,787.0L594.3,777.8L575.7,779.9L569.9,773.6L567.5,763.1L560.4,757.1L553.1,754.0L547.5,745.4L541.0,747.5L535.6,754.3L532.7,763.1L531.3,771.9L525.8,775.7L506.2,775.7L488.8,779.4L483.2,798.7L480.7,819.8L475.2,838.8L473.1,858.4L473.2,875.9L482.4,883.9L474.4,897.5L474.5,910.8L478.6,915.1L485.1,922.9L485.4,931.7L487.9,934.7L491.7,936.2L494.4,934.2L494.5,931.0L499.7,928.1L504.9,929.8L512.0,931.4L518.7,935.8L506.2,951.5L502.9,975.3L502.2,986.8L498.9,1007.1L497.6,1010.7L496.9,1014.4L484.2,1017.6L481.9,1031.4L489.3,1062.0L488.9,1071.8L493.6,1078.8L505.5,1081.7L516.3,1076.5L524.8,1067.4L528.8,1073.4L535.8,1078.2L537.4,1069.3L537.9,1060.3L561.8,1062.2L584.5,1057.5L592.9,1057.4L609.3,1055.6L617.3,1054.0L633.8,1061.0L647.6,1075.9L669.3,1083.4L680.1,1090.1L688.8,1091.3L689.6,1086.1L691.4,1080.2L694.1,1076.8L696.3,1071.4L694.3,1059.6L695.8,1048.2L687.7,1009.3L689.8,970.6L692.4,956.0L702.0,948.4L714.6,946.5L730.8,948.8L734.9,948.5L730.3,929.7L722.0,911.6L717.9,893.1L717.6,813.7L714.0,787.5L707.1,787.6Z " data-id="LK.PR" data-name="Pŏḷŏnnaruva" id="LK.PR"/>
utf-8utf-8<path d="M759.8,781.1L755.1,765.6L751.3,746.3L746.4,743.9L737.6,742.5L734.6,740.9L728.7,717.1L728.7,713.4L733.9,716.3L740.5,729.6L746.3,734.0L745.2,720.5L737.0,694.6L732.9,674.5L728.8,667.6L723.6,661.7L713.1,657.8L708.6,659.4L697.3,665.4L702.4,677.2L695.8,682.1L675.4,682.5L665.5,679.4L658.2,671.8L652.0,662.7L645.3,655.1L636.5,663.6L629.7,664.8L627.5,660.3L632.8,651.6L640.0,648.1L647.8,650.1L655.8,655.4L660.8,659.7L666.4,654.1L664.4,649.1L661.0,644.3L659.5,637.6L662.6,628.9L670.8,636.3L668.9,644.4L679.9,642.4L677.8,630.2L667.1,606.7L664.6,608.2L661.3,609.1L662.0,604.6L666.5,602.2L669.6,598.6L669.2,589.5L664.7,582.0L651.6,566.8L652.6,562.0L645.7,558.7L644.4,560.6L643.5,565.4L635.9,539.1L629.8,526.1L615.8,517.4L613.3,514.6L602.4,488.6L595.6,482.7L587.4,480.0L581.2,473.2L565.6,445.8L545.8,432.3L541.8,441.3L536.0,447.7L528.5,448.4L521.2,442.2L525.1,436.6L524.1,427.4L523.6,419.5L516.7,423.0L508.4,425.8L500.9,430.9L492.6,433.6L472.3,436.6L455.4,445.7L452.1,452.9L450.6,461.7L462.8,456.0L475.8,456.3L487.5,463.5L507.5,478.6L514.8,487.1L518.6,492.5L523.0,496.1L518.6,509.1L511.7,521.6L513.1,543.2L522.3,563.4L526.3,573.9L520.3,592.0L521.2,602.2L525.2,607.0L530.2,612.2L532.6,624.2L545.3,643.9L552.4,660.6L556.7,666.2L562.0,670.7L565.4,678.4L562.1,685.9L556.0,690.5L550.9,696.5L549.4,702.6L548.7,708.9L541.0,747.5L547.5,745.4L553.1,754.0L560.4,757.1L567.5,763.1L569.9,773.6L575.7,779.9L594.3,777.8L628.3,787.0L636.2,787.0L643.8,791.8L651.3,798.0L659.3,802.5L664.9,802.0L668.3,807.0L669.3,813.4L669.4,819.9L671.4,829.5L669.4,835.7L664.4,839.4L668.4,841.6L679.4,838.7L684.9,822.2L686.9,817.4L689.0,804.3L695.1,798.4L697.8,792.4L701.6,787.5L707.1,787.6L714.0,787.5L721.2,784.6L761.2,789.3L759.8,781.1Z " data-id="LK.TC" data-name="Trikuṇāmalaya" id="LK.TC"/>
utf-8utf-8<path d="M548.7,708.9L549.4,702.6L550.9,696.5L556.0,690.5L562.1,685.9L565.4,678.4L562.0,670.7L556.7,666.2L552.4,660.6L545.3,643.9L532.6,624.2L530.2,612.2L525.2,607.0L521.2,602.2L520.3,592.0L526.3,573.9L522.3,563.4L513.1,543.2L511.7,521.6L518.6,509.1L523.0,496.1L518.6,492.5L514.8,487.1L507.5,478.6L487.5,463.5L475.8,456.3L462.8,456.0L450.6,461.7L438.6,464.3L427.1,468.0L414.8,478.2L381.9,479.5L383.3,490.5L395.1,495.0L403.9,506.8L408.2,519.9L398.2,529.2L392.4,537.8L387.5,547.1L378.5,559.8L367.9,571.1L356.6,581.3L342.5,581.4L334.7,575.4L326.3,570.5L313.1,577.5L297.0,603.0L289.9,624.6L282.2,628.5L276.1,642.3L271.8,642.0L267.1,640.5L257.5,634.9L252.2,624.3L250.2,617.4L247.1,611.2L240.4,607.9L233.5,605.3L228.3,591.1L227.2,574.8L184.8,587.5L163.1,587.4L142.9,578.4L147.9,607.8L149.4,654.5L145.1,653.9L141.3,651.9L144.9,672.6L137.8,691.9L124.6,704.6L124.2,708.2L122.4,712.7L115.1,716.5L110.9,729.0L118.0,743.1L131.5,793.8L134.7,802.8L143.9,802.7L151.2,798.9L159.4,805.6L168.4,805.2L175.2,811.1L180.5,818.3L190.4,824.3L232.2,845.4L241.1,847.9L249.7,851.7L256.6,857.1L264.9,858.5L279.9,864.9L293.8,877.0L301.4,885.3L309.7,890.8L318.0,890.5L325.0,896.7L325.4,903.0L325.0,909.4L326.8,920.1L326.6,929.2L327.8,938.0L334.2,940.9L341.3,941.5L345.3,948.4L346.9,956.8L351.6,968.5L354.3,980.4L353.4,997.9L365.3,1010.1L374.3,1002.2L388.9,996.0L396.3,985.3L403.4,985.6L408.9,989.6L415.3,984.4L418.3,978.4L424.0,974.0L423.6,970.5L422.5,968.1L427.8,961.5L431.8,954.2L431.2,944.9L433.3,936.8L437.8,936.8L441.1,937.8L443.6,935.8L451.7,925.6L457.2,919.8L465.4,915.1L474.5,910.8L474.4,897.5L482.4,883.9L473.2,875.9L473.1,858.4L475.2,838.8L480.7,819.8L483.2,798.7L488.8,779.4L506.2,775.7L525.8,775.7L531.3,771.9L532.7,763.1L535.6,754.3L541.0,747.5L548.7,708.9Z " data-id="LK.AD" data-name="Anurādhapura" id="LK.AD"/>
utf-8utf-8<path d="M461.7,411.7L455.9,403.6L441.3,393.9L427.2,391.5L421.0,396.5L414.2,398.4L414.6,391.5L418.4,384.4L412.8,374.3L400.8,372.8L398.3,356.7L384.3,350.7L369.9,351.2L368.4,356.2L360.0,361.4L352.8,369.0L342.2,374.4L334.8,363.0L323.3,355.1L308.1,355.6L299.5,355.0L291.6,355.8L290.9,363.2L294.6,368.4L301.1,369.6L301.8,373.7L302.0,378.2L304.1,386.8L305.1,395.3L297.9,408.8L286.1,420.0L266.3,434.6L278.7,440.9L286.2,453.3L293.9,472.6L292.6,490.1L269.3,500.0L244.5,503.5L228.4,501.5L216.4,509.2L210.7,526.1L199.3,527.4L198.1,534.8L198.3,541.4L209.3,550.4L227.2,574.8L228.3,591.1L233.5,605.3L240.4,607.9L247.1,611.2L250.2,617.4L252.2,624.3L257.5,634.9L267.1,640.5L271.8,642.0L276.1,642.3L282.2,628.5L289.9,624.6L297.0,603.0L313.1,577.5L326.3,570.5L334.7,575.4L342.5,581.4L356.6,581.3L367.9,571.1L378.5,559.8L387.5,547.1L392.4,537.8L398.2,529.2L408.2,519.9L403.9,506.8L395.1,495.0L383.3,490.5L381.9,479.5L414.8,478.2L427.1,468.0L438.6,464.3L450.6,461.7L452.1,452.9L455.4,445.7L461.7,411.7Z " data-id="LK.VA" data-name="Vavuniyāva" id="LK.VA"/>
utf-8utf-8<path d="M78.9,440.7L76.5,437.6L75.4,446.3L78.9,440.7Z M0.0,378.4L6.2,380.2L24.8,389.3L44.0,407.6L48.7,410.2L52.4,413.4L57.5,419.9L64.8,425.9L75.4,427.4L71.1,419.5L49.1,393.1L56.7,394.6L69.8,401.7L61.2,386.9L42.6,375.1L23.3,367.0L5.2,361.9L0.0,361.9L0.0,378.4Z M185.1,301.8L176.1,307.1L160.9,308.6L157.7,308.6L156.7,314.7L156.3,317.0L144.3,358.4L142.2,375.9L137.6,388.5L135.3,400.8L130.0,406.3L117.0,413.7L92.7,439.8L88.8,441.1L82.9,442.4L79.0,444.9L81.0,449.9L83.6,454.3L85.2,460.2L86.9,472.6L87.9,508.2L87.4,513.6L99.6,544.8L98.2,593.8L94.6,603.9L93.0,609.4L88.7,627.3L87.2,629.3L92.4,632.6L104.3,637.6L117.5,639.0L129.1,644.4L141.3,651.9L145.1,653.9L149.4,654.5L147.9,607.8L142.9,578.4L163.1,587.4L184.8,587.5L227.2,574.8L209.3,550.4L198.3,541.4L198.1,534.8L199.3,527.4L210.7,526.1L216.4,509.2L228.4,501.5L244.5,503.5L269.3,500.0L292.6,490.1L293.9,472.6L286.2,453.3L278.7,440.9L266.3,434.6L193.5,439.0L198.2,420.9L193.6,413.0L194.8,407.2L196.9,401.5L198.0,395.9L199.7,390.9L209.3,387.2L209.4,376.9L207.7,365.1L209.0,357.8L209.0,350.1L207.2,342.8L198.2,328.2L194.6,311.8L193.2,294.6L185.1,301.8Z " data-id="LK.MB" data-name="Mannārama" id="LK.MB"/>
utf-8utf-8<path d="M523.5,417.9L506.6,401.0L501.1,393.1L508.3,396.7L520.7,400.3L526.1,403.4L531.5,412.2L532.7,413.7L536.8,412.0L538.6,408.5L538.5,405.0L527.9,397.1L518.7,382.7L511.6,366.6L511.2,365.3L506.5,356.9L503.8,359.0L502.4,361.9L497.8,350.4L491.1,345.8L483.9,344.5L480.3,342.7L482.4,335.5L488.3,335.6L501.3,340.9L477.6,293.5L472.1,277.9L469.1,275.7L463.1,277.3L464.6,287.3L468.5,293.5L459.2,287.9L434.9,263.8L432.3,258.5L435.8,257.3L446.5,260.3L451.5,267.1L460.3,265.6L453.8,256.8L443.7,246.7L438.4,239.8L434.4,233.0L379.4,185.2L379.3,185.2L376.8,187.8L374.6,189.5L372.7,191.9L372.2,200.3L363.2,208.6L362.5,220.1L364.4,231.5L353.9,225.3L344.8,217.0L341.1,212.3L339.0,213.0L334.2,235.8L327.0,240.3L315.8,241.1L295.6,239.9L289.6,240.2L283.2,262.0L271.6,263.2L259.5,260.7L247.4,260.9L213.7,265.4L203.1,282.3L205.0,296.3L193.2,294.6L194.6,311.8L198.2,328.2L207.2,342.8L209.0,350.1L209.0,357.8L207.7,365.1L209.4,376.9L209.3,387.2L199.7,390.9L198.0,395.9L196.9,401.5L194.8,407.2L193.6,413.0L198.2,420.9L193.5,439.0L266.3,434.6L286.1,420.0L297.9,408.8L305.1,395.3L304.1,386.8L302.0,378.2L301.8,373.7L301.1,369.6L294.6,368.4L290.9,363.2L291.6,355.8L299.5,355.0L308.1,355.6L323.3,355.1L334.8,363.0L342.2,374.4L352.8,369.0L360.0,361.4L368.4,356.2L369.9,351.2L384.3,350.7L398.3,356.7L400.8,372.8L412.8,374.3L418.4,384.4L414.6,391.5L414.2,398.4L421.0,396.5L427.2,391.5L441.3,393.9L455.9,403.6L461.7,411.7L455.4,445.7L472.3,436.6L492.6,433.6L500.9,430.9L508.4,425.8L516.7,423.0L523.6,419.5L523.5,417.9Z " data-id="LK.MP" data-name="Mulativ" id="LK.MP"/>
utf-8utf-8<path d="M21.7,112.5L18.0,103.4L15.6,100.7L14.1,103.3L14.5,122.1L17.6,126.6L32.3,129.9L36.3,129.3L37.5,126.8L38.1,116.3L36.0,109.4L31.4,105.6L27.6,105.6L27.6,108.4L30.4,113.5L28.6,115.2L25.0,115.6L21.7,112.5Z M53.1,72.4L49.2,67.8L47.5,63.8L46.0,56.9L45.4,50.0L46.2,43.1L47.6,37.2L41.6,31.2L32.1,33.5L29.9,42.5L29.4,53.5L25.0,62.1L37.1,86.2L44.6,97.8L57.3,102.6L65.0,97.3L68.1,98.2L72.7,101.3L79.1,103.5L85.0,103.5L87.8,99.9L85.6,95.2L79.6,91.5L72.6,88.2L67.4,84.6L66.1,81.5L65.0,73.9L63.5,72.4L55.0,73.0L53.1,72.4Z M211.1,104.3L219.4,85.9L224.6,71.5L224.6,71.5L205.5,49.6L192.3,34.4L182.1,32.3L178.4,33.6L173.7,33.8L171.4,29.4L169.1,28.0L158.4,24.9L154.7,24.3L150.8,22.9L149.3,19.3L149.1,8.7L146.1,2.0L139.5,1.2L121.6,3.4L79.2,3.9L62.8,22.1L53.5,27.5L56.8,33.3L63.6,42.5L66.8,48.1L68.9,54.6L70.1,60.4L72.2,65.3L77.3,69.0L77.6,65.5L81.3,67.1L86.3,70.6L96.6,74.6L114.4,89.6L136.5,102.9L147.3,107.9L158.2,110.2L153.0,104.1L143.8,95.6L148.4,94.2L165.8,110.4L174.6,115.4L177.7,118.2L181.1,120.1L184.3,119.0L186.8,112.6L183.7,107.6L178.7,103.5L175.5,99.9L173.7,87.7L179.2,87.7L187.7,93.1L211.1,104.3Z M294.4,123.8L301.1,143.0L302.3,148.0L305.9,147.8L308.9,148.3L312.1,150.3L320.4,157.2L323.2,158.6L332.6,160.9L343.2,166.3L374.6,189.5L376.8,187.8L379.3,185.2L379.4,185.2L306.0,121.5L288.1,110.4L279.2,103.3L216.9,26.7L212.4,19.8L207.4,3.4L202.9,0.0L161.7,0.0L152.7,4.5L154.0,12.2L161.0,17.6L203.5,34.1L237.7,75.5L278.7,111.4L295.2,120.5L295.4,124.3L294.4,123.8Z " data-id="LK.JA" data-name="Yāpanaya" id="LK.JA"/>
utf-8utf-8<path d="M100.6,272.6L103.1,269.0L103.5,265.5L102.2,263.2L99.2,260.7L96.8,264.9L94.3,266.6L98.4,274.3L100.6,272.6Z M157.7,308.6L160.9,308.6L176.1,307.1L185.1,301.8L193.2,294.6L205.0,296.3L203.1,282.3L213.7,265.4L247.4,260.9L259.5,260.7L271.6,263.2L283.2,262.0L289.6,240.2L295.6,239.9L315.8,241.1L327.0,240.3L334.2,235.8L339.0,213.0L341.1,212.3L344.8,217.0L353.9,225.3L364.4,231.5L362.5,220.1L363.2,208.6L372.2,200.3L372.7,191.9L374.6,189.5L374.6,189.5L353.3,185.0L324.7,170.8L300.7,163.5L289.9,162.4L250.9,180.2L229.4,186.2L222.3,175.8L219.1,168.9L221.5,160.4L210.4,150.1L203.4,145.2L177.6,138.0L150.0,120.6L136.1,114.5L121.8,114.0L129.0,123.2L162.9,144.9L171.9,152.1L178.8,159.3L184.3,167.0L189.0,175.8L184.0,176.7L180.1,178.4L174.3,183.0L165.4,197.5L161.5,199.8L152.7,201.3L142.0,205.2L132.5,210.7L127.6,217.0L128.2,223.7L130.9,235.5L135.0,246.7L140.1,251.7L152.7,258.8L158.9,262.8L158.2,267.1L159.8,296.3L157.7,308.6Z M224.6,71.5L224.6,71.5L219.4,85.9L211.1,104.3L211.1,104.3L230.2,116.5L263.4,147.2L267.6,148.6L281.9,148.2L284.3,148.6L290.4,153.5L292.1,152.5L293.4,149.8L296.8,148.3L302.2,148.0L302.3,148.0L301.1,143.0L294.4,123.8L294.4,123.8L261.6,107.2L247.3,97.4L224.6,71.5Z " data-id="LK.KL" data-name="Kilinŏchchi" id="LK.KL"/>
utf-8utf-8<path d="M353.4,997.9L354.3,980.4L351.6,968.5L346.9,956.8L345.3,948.4L341.3,941.5L334.2,940.9L327.8,938.0L326.6,929.2L326.8,920.1L325.0,909.4L325.4,903.0L325.0,896.7L318.0,890.5L309.7,890.8L301.4,885.3L293.8,877.0L279.9,864.9L264.9,858.5L256.6,857.1L249.7,851.7L241.1,847.9L232.2,845.4L190.4,824.3L180.5,818.3L181.8,827.9L182.1,838.0L187.7,857.9L189.8,867.7L194.4,876.8L200.6,879.1L206.0,882.9L205.2,888.9L203.8,895.5L204.8,909.0L204.9,920.5L201.8,926.1L199.5,932.1L205.4,943.2L200.0,948.1L190.5,942.2L188.2,947.1L188.4,953.2L185.2,957.2L182.5,958.1L183.2,956.4L176.8,959.8L174.4,966.8L174.0,971.9L172.4,976.5L163.3,982.0L161.4,987.1L160.4,992.6L155.2,996.7L149.6,1000.1L148.3,1005.6L147.7,1011.5L144.1,1023.7L143.3,1037.0L145.9,1042.6L147.8,1047.9L144.9,1052.5L140.2,1054.8L133.9,1055.3L128.3,1057.4L125.5,1063.2L123.5,1069.8L129.1,1071.3L131.7,1075.9L126.6,1079.1L120.3,1081.0L117.4,1086.0L115.9,1091.7L109.9,1104.5L105.7,1118.3L105.6,1135.6L107.2,1152.9L128.0,1252.1L130.3,1282.0L139.6,1277.8L155.8,1262.9L166.5,1262.4L179.1,1272.1L191.7,1267.8L202.2,1259.1L214.4,1256.7L218.7,1261.7L220.1,1265.9L222.9,1270.1L234.5,1284.3L242.5,1290.7L251.3,1284.8L260.1,1275.5L269.4,1267.7L279.6,1262.2L301.0,1256.8L305.7,1256.5L308.7,1251.7L309.9,1245.7L309.0,1235.4L310.1,1225.9L319.6,1221.5L330.3,1223.1L337.1,1230.6L341.6,1240.3L350.8,1241.5L358.7,1238.8L357.3,1233.2L360.4,1227.5L361.4,1217.5L367.8,1217.4L374.9,1223.0L382.5,1223.6L382.9,1218.4L382.0,1212.8L388.3,1208.7L394.8,1210.0L399.4,1207.4L396.4,1200.5L392.6,1194.2L397.7,1192.6L402.9,1189.9L402.9,1184.7L405.2,1180.9L405.9,1174.8L404.3,1168.5L401.9,1163.2L398.9,1158.2L394.0,1148.1L394.7,1137.5L400.6,1131.0L402.0,1126.7L401.7,1122.1L402.8,1116.2L402.7,1110.3L394.2,1101.3L391.0,1085.8L388.9,1069.0L386.5,1065.3L384.9,1064.1L384.3,1055.4L380.9,1046.8L376.1,1038.5L372.6,1030.6L369.2,1029.6L365.2,1027.1L363.6,1018.3L365.3,1010.1L353.4,997.9Z " data-id="LK.KG" data-name="Kuruṇægala" id="LK.KG"/>
utf-8utf-8<path d="M129.1,644.4L117.5,639.0L104.3,637.6L92.4,632.6L87.2,629.3L83.3,634.3L76.5,639.7L70.8,646.3L68.7,656.6L69.8,677.5L69.2,684.9L67.1,688.2L64.3,691.0L61.9,696.6L60.1,745.7L57.0,766.8L56.6,777.3L55.7,782.9L50.3,791.4L48.4,796.2L47.8,801.8L50.4,805.5L51.8,809.1L52.4,814.3L52.4,824.8L53.1,830.8L54.6,834.6L57.0,838.2L59.1,842.5L60.0,848.3L46.6,880.4L48.1,885.8L52.7,889.0L56.9,894.6L63.7,906.5L66.1,915.5L56.1,923.8L35.4,922.0L20.8,910.4L28.6,889.5L18.1,876.2L16.5,861.2L22.7,834.3L22.9,830.5L21.9,818.7L22.4,813.3L24.0,811.9L26.0,811.7L27.9,809.9L31.9,799.9L35.5,786.2L30.3,786.3L25.9,784.3L19.9,775.6L27.4,758.8L21.3,764.1L19.6,770.4L18.1,780.0L13.7,791.4L7.3,801.4L0.3,806.8L3.0,815.8L6.7,845.5L5.6,854.9L2.4,851.4L3.2,867.6L17.0,924.3L25.2,944.8L30.9,970.8L36.7,983.2L51.0,1046.1L51.8,1064.6L53.5,1073.9L57.2,1080.8L60.0,1088.4L59.4,1098.1L57.6,1108.1L57.3,1116.8L54.0,1114.4L52.7,1114.6L50.9,1116.8L53.9,1123.4L80.0,1281.2L90.6,1281.8L98.8,1279.4L107.3,1278.1L110.9,1282.5L116.2,1283.2L122.5,1278.6L130.3,1282.0L128.0,1252.1L107.2,1152.9L105.6,1135.6L105.7,1118.3L109.9,1104.5L115.9,1091.7L117.4,1086.0L120.3,1081.0L126.6,1079.1L131.7,1075.9L129.1,1071.3L123.5,1069.8L125.5,1063.2L128.3,1057.4L133.9,1055.3L140.2,1054.8L144.9,1052.5L147.8,1047.9L145.9,1042.6L143.3,1037.0L144.1,1023.7L147.7,1011.5L148.3,1005.6L149.6,1000.1L155.2,996.7L160.4,992.6L161.4,987.1L163.3,982.0L172.4,976.5L174.0,971.9L174.4,966.8L176.8,959.8L183.2,956.4L182.5,958.1L185.2,957.2L188.4,953.2L188.2,947.1L190.5,942.2L200.0,948.1L205.4,943.2L199.5,932.1L201.8,926.1L204.9,920.5L204.8,909.0L203.8,895.5L205.2,888.9L206.0,882.9L200.6,879.1L194.4,876.8L189.8,867.7L187.7,857.9L182.1,838.0L181.8,827.9L180.5,818.3L175.2,811.1L168.4,805.2L159.4,805.6L151.2,798.9L143.9,802.7L134.7,802.8L131.5,793.8L118.0,743.1L110.9,729.0L115.1,716.5L122.4,712.7L124.2,708.2L124.6,704.6L137.8,691.9L144.9,672.6L141.3,651.9L129.1,644.4Z " data-id="LK.PX" data-name="Puttalama" id="LK.PX"/>
utf-8utf-8<path d="M376.9,1505.1L368.0,1503.6L355.6,1499.1L345.8,1492.9L339.1,1492.6L333.6,1493.3L320.5,1501.9L309.3,1499.1L307.0,1494.2L303.6,1489.8L299.1,1491.0L296.0,1492.9L289.0,1487.0L283.1,1479.1L263.9,1458.0L257.2,1461.5L251.8,1469.3L247.4,1477.9L245.8,1484.9L243.7,1490.9L255.2,1504.0L245.8,1513.8L247.7,1524.2L256.4,1547.3L256.1,1555.3L259.3,1564.8L264.1,1574.8L278.2,1589.6L281.4,1604.3L286.5,1609.5L292.8,1612.2L303.1,1622.4L310.1,1636.2L303.5,1639.1L306.2,1647.7L326.1,1677.4L343.4,1708.9L349.1,1715.2L355.4,1721.0L363.0,1724.4L369.6,1724.6L383.7,1732.2L390.8,1732.0L394.9,1738.2L403.5,1736.8L412.1,1734.5L414.9,1726.4L422.4,1726.3L441.8,1723.4L448.7,1736.7L446.1,1745.7L454.2,1747.3L464.7,1745.3L470.0,1752.2L469.8,1756.9L475.6,1761.7L473.4,1764.4L473.6,1769.2L499.2,1774.6L532.2,1788.0L540.8,1789.5L549.2,1787.2L557.6,1786.3L564.6,1792.3L570.0,1799.0L586.4,1802.7L595.9,1806.2L597.8,1797.4L593.1,1784.6L584.6,1774.3L580.6,1762.6L576.0,1753.4L567.7,1747.0L559.0,1741.8L552.3,1732.4L547.0,1721.6L545.4,1690.5L542.2,1682.6L540.6,1674.3L546.7,1660.0L554.5,1646.6L558.0,1624.8L561.8,1613.6L569.4,1602.6L573.5,1589.7L580.2,1577.2L572.1,1577.7L563.4,1585.2L553.0,1590.1L542.7,1588.0L535.7,1581.8L530.7,1573.5L532.5,1566.9L544.3,1560.7L545.9,1558.7L547.1,1554.8L548.0,1550.1L540.2,1547.4L533.9,1539.9L527.5,1543.2L525.5,1524.7L501.0,1539.5L487.3,1541.6L472.5,1541.1L461.6,1542.1L452.3,1543.8L427.8,1540.1L404.6,1534.3L393.7,1533.3L384.3,1525.4L385.7,1520.3L388.9,1516.7L385.7,1513.0L385.7,1504.7L376.9,1505.1Z " data-id="LK.RN" data-name="Ratnapura" id="LK.RN"/>
utf-8utf-8<path d="M327.8,1713.0L312.7,1723.8L304.7,1727.8L305.1,1738.6L308.9,1749.6L308.4,1759.6L301.3,1753.4L294.1,1746.0L280.6,1734.6L267.2,1735.9L255.4,1743.6L236.0,1739.4L228.4,1733.8L221.0,1726.7L212.0,1722.4L203.8,1720.5L187.2,1712.0L184.8,1707.7L181.4,1704.2L177.0,1706.2L174.2,1708.5L171.5,1705.8L169.0,1702.0L165.9,1701.2L171.9,1724.8L180.7,1741.3L185.4,1764.8L189.4,1773.5L190.4,1784.4L191.4,1789.1L213.8,1837.9L219.6,1846.0L220.8,1848.2L221.5,1854.6L226.0,1859.1L263.8,1902.4L272.3,1909.9L275.4,1906.2L282.1,1909.7L292.0,1918.5L305.4,1921.6L329.6,1931.7L332.6,1936.2L334.2,1937.7L336.5,1937.8L339.8,1934.8L341.8,1933.9L345.3,1935.0L348.8,1939.7L351.0,1940.8L353.8,1941.3L352.8,1935.5L352.5,1930.0L357.1,1920.2L364.9,1916.9L367.4,1910.8L359.5,1907.0L355.9,1904.9L354.3,1899.7L356.8,1895.0L362.8,1892.2L369.5,1884.1L375.2,1876.0L368.0,1868.8L359.8,1862.8L352.7,1855.5L349.5,1845.6L353.1,1835.9L355.9,1825.5L353.5,1817.3L348.6,1811.1L364.3,1814.2L371.6,1803.5L367.8,1789.1L357.8,1773.9L348.7,1767.6L344.0,1758.3L351.0,1756.1L358.5,1758.6L368.1,1766.5L377.0,1775.5L390.8,1779.1L392.9,1764.9L385.7,1757.1L380.2,1748.1L385.9,1741.3L394.9,1738.2L390.8,1732.0L383.7,1732.2L369.6,1724.6L363.0,1724.4L355.4,1721.0L349.1,1715.2L343.4,1708.9L327.8,1713.0Z " data-id="LK.GL" data-name="Gālla" id="LK.GL"/>
utf-8utf-8<path d="M884.0,1631.9L876.5,1642.3L864.7,1644.9L855.6,1652.9L847.9,1661.7L837.6,1667.1L829.2,1674.9L829.7,1683.4L832.3,1690.2L828.6,1696.8L829.2,1705.3L823.9,1716.0L811.4,1712.8L799.7,1717.7L795.8,1717.1L794.7,1715.6L790.0,1719.6L764.1,1731.1L751.3,1735.0L744.6,1738.2L740.5,1743.1L728.6,1750.6L717.3,1745.4L710.0,1732.4L701.3,1720.2L695.7,1720.8L691.8,1724.1L687.0,1724.3L682.6,1723.6L678.8,1714.5L671.2,1711.4L660.1,1709.8L649.0,1709.9L645.0,1715.3L639.3,1710.9L639.7,1717.6L636.3,1723.4L630.3,1724.0L624.7,1723.9L623.0,1735.3L627.7,1746.6L618.4,1754.8L606.1,1759.4L595.2,1766.2L584.6,1774.3L593.1,1784.6L597.8,1797.4L595.9,1806.2L586.4,1802.7L570.0,1799.0L564.6,1792.3L557.6,1786.3L549.2,1787.2L540.8,1789.5L532.2,1788.0L499.2,1774.6L473.6,1769.2L469.5,1771.0L470.4,1774.8L467.8,1783.6L471.0,1791.6L454.6,1806.1L450.1,1827.8L458.0,1833.9L466.5,1837.5L470.4,1836.7L472.9,1839.4L471.0,1844.6L468.5,1849.2L470.4,1857.7L477.8,1862.2L483.0,1861.2L487.9,1862.4L486.5,1866.8L482.6,1871.0L488.3,1890.3L474.1,1897.3L475.5,1905.3L481.8,1909.8L486.2,1910.3L490.0,1912.6L490.0,1916.8L486.9,1918.8L492.5,1928.0L504.0,1933.8L506.5,1935.3L507.5,1933.9L540.6,1905.4L552.0,1900.4L564.1,1903.0L570.4,1892.3L581.4,1887.5L605.7,1882.4L627.8,1873.8L673.5,1862.6L683.0,1857.8L692.3,1851.2L697.4,1848.6L701.2,1847.4L703.5,1844.2L704.1,1835.8L705.6,1831.7L709.0,1830.7L712.3,1833.5L713.4,1841.2L766.0,1819.8L782.1,1809.7L861.5,1736.6L872.5,1729.8L880.8,1727.0L905.7,1706.3L918.9,1690.6L931.5,1666.4L916.6,1661.1L908.8,1651.6L903.1,1650.7L898.0,1650.3L884.0,1631.9Z " data-id="LK.HB" data-name="Hambantŏṭa" id="LK.HB"/>
utf-8utf-8<path d="M506.5,1935.3L504.0,1933.8L492.5,1928.0L486.9,1918.8L490.0,1916.8L490.0,1912.6L486.2,1910.3L481.8,1909.8L475.5,1905.3L474.1,1897.3L488.3,1890.3L482.6,1871.0L486.5,1866.8L487.9,1862.4L483.0,1861.2L477.8,1862.2L470.4,1857.7L468.5,1849.2L471.0,1844.6L472.9,1839.4L470.4,1836.7L466.5,1837.5L458.0,1833.9L450.1,1827.8L454.6,1806.1L471.0,1791.6L467.8,1783.6L470.4,1774.8L469.5,1771.0L473.6,1769.2L473.4,1764.4L475.6,1761.7L469.8,1756.9L470.0,1752.2L464.7,1745.3L454.2,1747.3L446.1,1745.7L448.7,1736.7L441.8,1723.4L422.4,1726.3L414.9,1726.4L412.1,1734.5L403.5,1736.8L394.9,1738.2L385.9,1741.3L380.2,1748.1L385.7,1757.1L392.9,1764.9L390.8,1779.1L377.0,1775.5L368.1,1766.5L358.5,1758.6L351.0,1756.1L344.0,1758.3L348.7,1767.6L357.8,1773.9L367.8,1789.1L371.6,1803.5L364.3,1814.2L348.6,1811.1L353.5,1817.3L355.9,1825.5L353.1,1835.9L349.5,1845.6L352.7,1855.5L359.8,1862.8L368.0,1868.8L375.2,1876.0L369.5,1884.1L362.8,1892.2L356.8,1895.0L354.3,1899.7L355.9,1904.9L359.5,1907.0L367.4,1910.8L364.9,1916.9L357.1,1920.2L352.5,1930.0L352.8,1935.5L353.8,1941.3L353.9,1941.3L365.9,1943.2L372.6,1942.7L379.9,1937.7L383.4,1943.3L386.0,1948.8L389.9,1952.9L397.2,1954.5L422.8,1951.1L430.5,1953.7L438.4,1958.2L445.9,1961.4L452.1,1959.8L462.5,1950.7L468.5,1946.8L474.3,1944.2L500.0,1944.2L506.5,1935.3Z " data-id="LK.MH" data-name="Mātara" id="LK.MH"/>
utf-8utf-8<path d="M717.4,1271.8L713.0,1262.7L709.7,1256.8L707.7,1252.4L702.2,1251.2L698.4,1252.3L691.4,1244.9L686.0,1233.1L682.1,1211.0L680.0,1204.7L678.4,1198.5L679.5,1194.0L681.7,1188.8L685.3,1164.3L682.4,1139.2L662.5,1134.4L641.4,1148.1L632.4,1157.9L627.1,1160.3L622.8,1161.4L614.8,1164.6L603.0,1144.1L598.9,1132.0L598.0,1123.8L594.8,1116.7L587.9,1112.0L586.6,1110.7L583.4,1134.3L587.4,1175.5L594.7,1251.4L606.0,1287.8L605.9,1304.2L594.5,1316.7L585.2,1319.7L579.7,1323.6L579.8,1332.6L583.6,1345.2L582.9,1349.8L584.0,1354.0L587.8,1359.3L585.0,1363.5L583.0,1368.1L585.8,1377.0L586.6,1380.5L585.3,1384.3L582.6,1388.4L579.2,1392.1L575.5,1401.0L573.9,1410.8L564.8,1427.3L548.2,1431.4L540.4,1435.7L533.7,1443.0L531.9,1453.0L526.3,1460.7L518.0,1460.2L510.0,1460.6L510.8,1468.6L525.3,1476.7L528.5,1483.7L531.4,1491.4L533.8,1494.5L535.6,1497.9L529.6,1509.8L533.8,1512.8L538.0,1515.1L533.8,1522.4L525.5,1524.7L527.5,1543.2L533.9,1539.9L540.2,1547.4L548.0,1550.1L547.1,1554.8L545.9,1558.7L544.3,1560.7L532.5,1566.9L530.7,1573.5L535.7,1581.8L542.7,1588.0L553.0,1590.1L563.4,1585.2L572.1,1577.7L580.2,1577.2L585.5,1577.5L589.2,1583.6L591.7,1592.2L595.2,1594.3L598.8,1595.1L603.3,1605.5L606.8,1616.5L613.0,1620.2L615.6,1636.2L621.1,1643.4L625.2,1650.4L626.4,1637.0L632.2,1626.0L637.1,1629.5L642.1,1632.1L642.9,1620.2L652.0,1616.4L644.9,1604.7L640.2,1590.8L639.8,1583.1L640.4,1575.7L646.5,1564.2L645.6,1555.3L637.7,1552.9L635.7,1546.4L639.1,1537.3L637.7,1526.5L638.4,1515.9L653.4,1514.4L656.9,1506.0L669.5,1501.6L658.0,1484.6L667.2,1478.6L678.4,1475.1L683.8,1469.9L688.0,1463.5L689.8,1459.6L692.4,1456.5L696.9,1458.7L702.6,1457.3L704.6,1450.0L705.4,1442.2L708.1,1437.0L710.3,1431.5L711.3,1417.5L713.0,1408.5L712.6,1399.1L711.1,1392.1L708.5,1385.4L705.0,1380.9L702.5,1378.5L697.4,1371.6L681.3,1376.5L675.8,1370.3L671.0,1360.0L663.8,1352.4L658.0,1344.4L658.8,1334.2L663.7,1325.3L671.0,1326.3L677.5,1333.9L684.7,1330.4L688.4,1322.6L699.8,1305.3L702.8,1295.8L702.3,1285.4L719.4,1280.8L717.4,1271.8Z " data-id="LK.BD" data-name="Badulla" id="LK.BD"/>
utf-8utf-8<path d="M887.8,1447.4L885.2,1437.4L879.5,1428.8L879.0,1419.1L875.5,1409.4L877.2,1399.5L877.6,1390.0L864.1,1381.1L848.1,1376.5L845.7,1374.2L842.9,1372.4L839.6,1372.4L836.0,1370.6L832.2,1363.7L830.1,1355.9L823.9,1344.2L828.4,1328.6L837.1,1316.2L844.0,1309.8L833.7,1294.8L831.9,1284.0L825.2,1271.8L815.0,1262.2L812.8,1252.5L812.9,1240.5L806.4,1214.0L807.0,1207.2L804.0,1206.6L801.1,1204.7L807.2,1193.3L798.3,1190.6L787.6,1197.3L782.3,1199.4L777.5,1201.9L776.1,1206.6L773.3,1212.0L767.2,1213.7L762.7,1214.1L763.1,1220.7L765.8,1226.6L766.6,1232.6L764.8,1237.5L761.9,1241.7L760.0,1245.2L751.3,1250.8L740.2,1250.3L741.1,1269.6L744.3,1288.4L736.4,1295.2L727.5,1298.7L723.3,1290.5L719.4,1280.8L702.3,1285.4L702.8,1295.8L699.8,1305.3L688.4,1322.6L684.7,1330.4L677.5,1333.9L671.0,1326.3L663.7,1325.3L658.8,1334.2L658.0,1344.4L663.8,1352.4L671.0,1360.0L675.8,1370.3L681.3,1376.5L697.4,1371.6L702.5,1378.5L705.0,1380.9L708.5,1385.4L711.1,1392.1L712.6,1399.1L713.0,1408.5L711.3,1417.5L710.3,1431.5L708.1,1437.0L705.4,1442.2L704.6,1450.0L702.6,1457.3L696.9,1458.7L692.4,1456.5L689.8,1459.6L688.0,1463.5L683.8,1469.9L678.4,1475.1L667.2,1478.6L658.0,1484.6L669.5,1501.6L656.9,1506.0L653.4,1514.4L638.4,1515.9L637.7,1526.5L639.1,1537.3L635.7,1546.4L637.7,1552.9L645.6,1555.3L646.5,1564.2L640.4,1575.7L639.8,1583.1L640.2,1590.8L644.9,1604.7L652.0,1616.4L642.9,1620.2L642.1,1632.1L637.1,1629.5L632.2,1626.0L626.4,1637.0L625.2,1650.4L621.1,1643.4L615.6,1636.2L613.0,1620.2L606.8,1616.5L603.3,1605.5L598.8,1595.1L595.2,1594.3L591.7,1592.2L589.2,1583.6L585.5,1577.5L580.2,1577.2L573.5,1589.7L569.4,1602.6L561.8,1613.6L558.0,1624.8L554.5,1646.6L546.7,1660.0L540.6,1674.3L542.2,1682.6L545.4,1690.5L547.0,1721.6L552.3,1732.4L559.0,1741.8L567.7,1747.0L576.0,1753.4L580.6,1762.6L584.6,1774.3L595.2,1766.2L606.1,1759.4L618.4,1754.8L627.7,1746.6L623.0,1735.3L624.7,1723.9L630.3,1724.0L636.3,1723.4L639.7,1717.6L639.3,1710.9L645.0,1715.3L649.0,1709.9L660.1,1709.8L671.2,1711.4L678.8,1714.5L682.6,1723.6L687.0,1724.3L691.8,1724.1L695.7,1720.8L701.3,1720.2L710.0,1732.4L717.3,1745.4L728.6,1750.6L740.5,1743.1L744.6,1738.2L751.3,1735.0L764.1,1731.1L790.0,1719.6L794.7,1715.6L795.8,1717.1L799.7,1717.7L811.4,1712.8L823.9,1716.0L829.2,1705.3L828.6,1696.8L832.3,1690.2L829.7,1683.4L829.2,1674.9L837.6,1667.1L847.9,1661.7L855.6,1652.9L864.7,1644.9L876.5,1642.3L884.0,1631.9L887.8,1447.4Z " data-id="LK.MJ" data-name="Mŏṇarāgala" id="LK.MJ"/>
utf-8utf-8<path d="M337.1,1230.6L330.3,1223.1L319.6,1221.5L310.1,1225.9L309.0,1235.4L309.9,1245.7L308.7,1251.7L305.7,1256.5L301.0,1256.8L279.6,1262.2L269.4,1267.7L260.1,1275.5L251.3,1284.8L242.5,1290.7L243.6,1297.3L239.4,1301.2L238.9,1318.5L233.4,1324.7L226.6,1328.7L225.3,1343.0L231.3,1355.6L242.0,1352.7L251.4,1355.8L248.5,1364.3L242.3,1369.3L237.3,1384.0L235.6,1398.6L243.2,1422.5L243.5,1427.1L242.3,1431.2L252.0,1432.0L259.8,1436.3L261.6,1445.5L255.9,1451.7L256.7,1456.6L257.2,1461.5L263.9,1458.0L283.1,1479.1L289.0,1487.0L296.0,1492.9L299.1,1491.0L303.6,1489.8L307.0,1494.2L309.3,1499.1L320.5,1501.9L333.6,1493.3L339.1,1492.6L345.8,1492.9L355.6,1499.1L368.0,1503.6L376.9,1505.1L385.7,1504.7L390.6,1499.7L389.6,1492.9L385.6,1479.7L375.0,1471.1L361.9,1466.4L357.5,1451.9L359.8,1433.2L356.8,1429.9L354.2,1426.1L356.4,1422.3L359.8,1421.0L365.7,1414.9L369.2,1407.9L367.8,1407.4L367.1,1405.8L366.9,1395.8L369.8,1388.1L366.3,1381.8L358.8,1363.7L363.6,1358.4L378.9,1355.6L385.5,1347.0L390.3,1346.7L395.1,1345.4L398.3,1339.3L400.5,1332.6L395.0,1325.3L388.3,1318.1L387.9,1310.7L388.5,1301.8L382.9,1294.4L371.3,1287.4L367.4,1284.4L367.7,1274.7L347.7,1255.8L341.6,1240.3L337.1,1230.6Z " data-id="LK.KE" data-name="Kægalla" id="LK.KE"/>
utf-8utf-8<path d="M256.7,1456.6L255.9,1451.7L261.6,1445.5L259.8,1436.3L252.0,1432.0L242.3,1431.2L234.4,1434.4L222.3,1433.0L213.8,1437.6L207.1,1445.5L205.7,1455.0L205.6,1464.8L196.1,1465.4L188.2,1464.3L183.0,1462.0L177.8,1458.9L172.3,1453.4L166.2,1449.3L158.6,1449.9L151.1,1451.6L128.7,1444.3L124.8,1446.1L121.4,1448.3L113.4,1446.2L105.9,1441.9L96.2,1437.7L96.2,1437.7L95.8,1439.1L97.3,1475.3L105.6,1517.0L124.1,1564.9L124.9,1563.2L124.6,1557.0L122.9,1550.6L119.8,1541.2L120.0,1532.9L141.1,1547.2L153.7,1541.8L158.8,1540.4L163.6,1538.0L179.9,1521.4L184.9,1520.7L189.8,1523.3L196.6,1519.3L201.7,1512.2L204.6,1512.8L207.0,1514.3L213.3,1529.4L222.1,1531.9L218.6,1517.3L232.7,1510.5L245.8,1513.8L255.2,1504.0L243.7,1490.9L245.8,1484.9L247.4,1477.9L251.8,1469.3L257.2,1461.5L256.7,1456.6Z " data-id="LK.CO" data-name="Kŏḷamba" id="LK.CO"/>
utf-8utf-8<path d="M234.5,1284.3L222.9,1270.1L220.1,1265.9L218.7,1261.7L214.4,1256.7L202.2,1259.1L191.7,1267.8L179.1,1272.1L166.5,1262.4L155.8,1262.9L139.6,1277.8L130.3,1282.0L122.5,1278.6L116.2,1283.2L110.9,1282.5L107.3,1278.1L98.8,1279.4L90.6,1281.8L80.0,1281.2L83.6,1302.9L82.9,1306.5L81.3,1310.2L80.8,1314.2L85.5,1320.5L91.4,1321.9L93.6,1323.5L96.1,1329.1L95.5,1353.4L95.1,1358.2L92.3,1358.2L90.1,1354.1L85.1,1337.3L82.8,1332.9L80.3,1329.2L78.4,1324.3L78.2,1316.7L75.8,1329.1L100.7,1414.1L101.0,1420.0L100.1,1425.7L96.2,1437.7L105.9,1441.9L113.4,1446.2L121.4,1448.3L124.8,1446.1L128.7,1444.3L151.1,1451.6L158.6,1449.9L166.2,1449.3L172.3,1453.4L177.8,1458.9L183.0,1462.0L188.2,1464.3L196.1,1465.4L205.6,1464.8L205.7,1455.0L207.1,1445.5L213.8,1437.6L222.3,1433.0L234.4,1434.4L242.3,1431.2L243.5,1427.1L243.2,1422.5L235.6,1398.6L237.3,1384.0L242.3,1369.3L248.5,1364.3L251.4,1355.8L242.0,1352.7L231.3,1355.6L225.3,1343.0L226.6,1328.7L233.4,1324.7L238.9,1318.5L239.4,1301.2L243.6,1297.3L242.5,1290.7L234.5,1284.3Z " data-id="LK.GQ" data-name="Gampaha" id="LK.GQ"/>
utf-8utf-8<path d="M232.7,1510.5L218.6,1517.3L222.1,1531.9L213.3,1529.4L207.0,1514.3L204.6,1512.8L201.7,1512.2L196.6,1519.3L189.8,1523.3L184.9,1520.7L179.9,1521.4L163.6,1538.0L158.8,1540.4L153.7,1541.8L141.1,1547.2L120.0,1532.9L119.8,1541.2L122.9,1550.6L124.6,1557.0L124.9,1563.2L124.1,1564.9L148.1,1627.0L158.4,1653.8L163.2,1682.3L159.8,1682.0L157.7,1682.8L157.3,1685.7L158.6,1688.5L163.6,1692.6L165.9,1701.2L169.0,1702.0L171.5,1705.8L174.2,1708.5L177.0,1706.2L181.4,1704.2L184.8,1707.7L187.2,1712.0L203.8,1720.5L212.0,1722.4L221.0,1726.7L228.4,1733.8L236.0,1739.4L255.4,1743.6L267.2,1735.9L280.6,1734.6L294.1,1746.0L301.3,1753.4L308.4,1759.6L308.9,1749.6L305.1,1738.6L304.7,1727.8L312.7,1723.8L327.8,1713.0L343.4,1708.9L326.1,1677.4L306.2,1647.7L303.5,1639.1L310.1,1636.2L303.1,1622.4L292.8,1612.2L286.5,1609.5L281.4,1604.3L278.2,1589.6L264.1,1574.8L259.3,1564.8L256.1,1555.3L256.4,1547.3L247.7,1524.2L245.8,1513.8L232.7,1510.5Z " data-id="LK.KT" data-name="Kaḷutara" id="LK.KT"/>
utf-8</g>
</svg>
