<?xml version="1.0" ?>
<!DOCTYPE svg
  PUBLIC '-//W3C//DTD SVG 1.1//EN'
  'http://www.w3.org/Graphics/SVG/1.1/DTD/svg11.dtd'>
<svg enable_background="new 0 0 1000 1172" height="1172px" pretty_print="True" style="stroke-linejoin: round; stroke:#000; fill: none;" version="1.1" viewBox="0 0 1000 1172" width="1000px" xmlns="http://www.w3.org/2000/svg" xmlns:xlink="http://www.w3.org/1999/xlink">
utf-8<defs>
utf-8utf-8<style type="text/css">
<![CDATA[path { fill-rule: evenodd; }]]>utf-8utf-8</style>
utf-8</defs>
utf-8<metadata>
utf-8utf-8<views>
utf-8utf-8utf-8<view h="1172.34638224" padding="0" w="1000">
utf-8utf-8utf-8utf-8<proj flip="auto" id="robinson" lon0="-7.88476567441"/>
utf-8utf-8utf-8utf-8<bbox h="70.73" w="60.39" x="-169.58" y="-143.63"/>
utf-8utf-8utf-8</view>
utf-8utf-8</views>
utf-8</metadata>
utf-8<g class="" id="provinces">
utf-8utf-8<path d="M944.6,1037.8L946.0,1032.0L946.4,1028.9L944.7,1020.3L944.8,1017.7L952.3,1011.0L955.5,1011.4L958.5,1013.1L958.5,1008.9L957.1,1003.5L954.8,999.9L953.2,996.1L951.6,974.1L952.2,969.2L955.3,964.2L959.3,962.1L963.5,962.2L966.9,963.8L973.5,950.2L975.0,945.3L975.2,940.7L973.2,927.6L975.8,918.4L978.7,913.4L985.1,909.5L985.7,908.7L988.5,909.3L986.8,911.7L988.4,918.2L990.8,917.0L992.0,915.2L993.6,908.8L998.0,901.2L998.2,898.1L997.6,892.8L996.3,887.6L994.4,887.1L991.9,887.7L988.2,885.4L986.0,881.6L984.3,876.9L983.3,871.9L983.3,867.5L986.7,869.6L987.8,866.6L987.7,856.2L989.5,852.1L992.3,849.5L993.6,847.2L993.2,846.8L826.8,854.6L811.0,858.2L778.9,862.1L751.9,862.5L743.4,858.8L741.4,869.0L741.2,872.6L742.0,876.9L744.0,884.1L746.5,889.3L763.7,909.3L771.2,922.1L772.2,924.5L773.2,928.9L773.5,933.3L772.8,942.0L783.7,943.6L787.3,944.9L795.9,951.4L800.1,951.0L808.2,951.7L842.3,957.9L882.0,965.8L886.8,971.2L886.5,1011.1L887.0,1016.4L886.7,1017.5L888.1,1026.9L888.9,1027.8L893.5,1027.9L896.8,1027.2L900.8,1028.3L904.9,1026.3L907.5,1023.6L909.2,1022.7L912.8,1023.2L915.5,1022.2L917.5,1022.8L925.1,1027.4L928.3,1027.8L932.2,1030.3L934.3,1034.8L936.9,1036.7L941.9,1038.1L944.6,1039.9L944.6,1037.8Z " data-id="LR.RG" data-name="River Gee" id="LR.RG"/>
utf-8utf-8<path d="M402.7,343.2L439.5,248.4L436.9,229.9L375.4,201.0L336.3,211.3L313.8,175.3L307.4,185.5L263.0,170.1L249.5,155.7L225.0,162.9L212.5,150.6L212.1,153.9L212.3,221.0L206.7,221.9L204.9,222.6L193.3,229.7L184.0,238.6L151.1,283.5L154.4,283.9L163.1,286.2L165.0,287.5L165.7,289.4L168.6,290.1L172.0,289.3L175.3,291.4L192.8,295.1L197.7,294.2L199.8,297.8L201.2,298.5L205.4,298.1L214.2,298.8L216.6,300.0L218.8,302.0L232.9,324.3L234.3,328.3L235.2,334.1L235.0,341.9L236.2,348.2L234.8,352.0L231.5,354.5L221.9,360.9L216.1,365.9L198.4,378.2L191.2,380.0L187.5,383.5L182.5,387.5L180.5,390.0L176.7,397.3L173.3,400.0L169.7,403.4L160.6,406.9L155.3,412.2L151.4,413.6L145.6,418.5L143.3,421.7L138.9,428.8L137.3,430.1L132.5,431.5L130.1,434.3L131.9,436.2L133.7,435.4L135.3,435.4L148.8,440.8L151.7,441.1L156.9,440.7L163.8,439.3L179.1,442.8L180.8,445.4L181.9,448.5L177.1,449.1L176.1,456.8L175.1,459.6L176.4,465.2L175.4,475.0L177.2,476.8L179.4,481.3L182.8,485.3L186.4,485.1L190.9,483.0L199.8,476.0L212.5,470.3L239.4,470.2L246.7,468.4L248.8,459.6L249.5,454.8L249.9,448.7L252.1,445.4L254.5,443.7L262.6,439.5L265.4,438.9L271.7,440.2L277.3,439.2L279.1,437.6L286.9,428.4L290.7,422.7L294.4,415.7L315.9,396.1L322.3,396.3L330.8,398.6L334.7,400.7L334.4,403.8L331.9,407.8L333.5,410.7L335.3,418.0L334.2,420.4L338.2,422.7L342.0,421.9L346.2,418.5L353.8,409.8L363.0,402.9L368.1,400.3L373.9,398.5L378.5,398.6L381.1,399.7L386.1,395.2L390.8,388.7L394.9,385.3L404.0,379.3L407.4,375.6L402.7,343.2Z " data-id="LR.GP" data-name="Gbapolu" id="LR.GP"/>
utf-8utf-8<path d="M808.2,951.7L800.1,951.0L795.9,951.4L787.3,944.9L783.7,943.6L772.8,942.0L769.7,943.4L766.3,946.2L758.5,956.7L756.4,960.6L752.4,963.7L751.1,963.9L740.5,963.9L736.7,965.2L720.5,979.3L713.2,984.0L710.3,987.9L704.6,999.0L701.2,1007.4L697.3,1010.3L689.9,1011.1L688.1,1013.6L686.3,1020.6L685.8,1024.7L684.6,1029.0L682.4,1032.2L675.9,1038.7L699.4,1048.4L713.5,1057.2L740.7,1079.1L765.9,1089.4L770.6,1090.4L774.5,1092.7L784.9,1105.8L793.6,1109.1L823.4,1113.2L838.7,1120.0L847.1,1121.4L857.7,1124.6L862.1,1126.6L868.8,1131.7L872.8,1132.3L875.6,1133.5L881.4,1138.7L886.0,1140.3L886.9,1138.1L890.5,1131.6L892.4,1125.6L892.2,1115.5L892.7,1110.2L894.4,1102.8L893.2,1095.6L887.5,1084.4L884.0,1078.9L873.4,1058.4L871.7,1056.1L866.1,1050.5L862.5,1048.3L846.7,1040.4L829.2,1033.8L826.5,1031.5L825.2,1029.7L823.9,1025.8L823.7,1020.7L832.3,996.6L841.9,978.2L843.5,975.8L845.3,970.7L844.9,965.2L842.3,957.9L808.2,951.7Z " data-id="LR.GK" data-name="Grand Kru" id="LR.GK"/>
utf-8utf-8<path d="M944.6,1039.9L941.9,1038.1L936.9,1036.7L934.3,1034.8L932.2,1030.3L928.3,1027.8L925.1,1027.4L917.5,1022.8L915.5,1022.2L912.8,1023.2L909.2,1022.7L907.5,1023.6L904.9,1026.3L900.8,1028.3L896.8,1027.2L893.5,1027.9L888.9,1027.8L888.1,1026.9L886.7,1017.5L887.0,1016.4L886.5,1011.1L886.8,971.2L882.0,965.8L842.3,957.9L844.9,965.2L845.3,970.7L843.5,975.8L841.9,978.2L832.3,996.6L823.7,1020.7L823.9,1025.8L825.2,1029.7L826.5,1031.5L829.2,1033.8L846.7,1040.4L862.5,1048.3L866.1,1050.5L871.7,1056.1L873.4,1058.4L884.0,1078.9L887.5,1084.4L893.2,1095.6L894.4,1102.8L892.7,1110.2L892.2,1115.5L892.4,1125.6L890.5,1131.6L886.9,1138.1L886.0,1140.3L888.7,1141.2L890.9,1144.4L893.7,1151.2L896.5,1154.0L899.5,1156.0L909.1,1160.4L913.1,1160.7L916.0,1165.5L918.1,1166.4L934.8,1166.4L937.9,1167.0L943.6,1169.7L947.3,1170.3L952.1,1162.5L950.8,1159.3L951.1,1156.5L953.7,1151.3L954.5,1148.5L954.1,1145.9L952.4,1140.3L952.9,1133.3L951.5,1125.4L952.7,1066.0L951.7,1051.6L951.0,1049.1L945.8,1043.4L944.6,1040.2L944.6,1039.9Z " data-id="LR.MY" data-name="Maryland" id="LR.MY"/>
utf-8utf-8<path d="M743.4,858.8L743.8,855.9L743.3,852.8L742.5,851.7L737.8,849.5L734.0,848.5L731.1,844.5L730.8,841.6L732.5,837.3L737.7,829.2L738.7,824.3L740.7,820.6L755.5,818.5L761.3,816.1L762.9,812.5L763.0,809.5L760.5,799.2L756.8,791.5L752.2,783.8L748.8,779.9L745.9,777.4L738.5,772.3L734.3,770.9L726.5,770.4L721.7,772.1L705.9,793.6L691.9,786.7L628.3,746.4L624.6,752.6L622.2,755.2L618.2,757.4L589.9,756.7L583.4,758.4L578.2,762.5L574.1,768.3L571.1,775.1L570.4,778.6L569.7,786.3L568.7,789.4L566.8,791.4L564.5,792.4L559.2,793.4L556.1,794.8L548.6,801.4L546.4,802.7L539.6,805.8L535.6,809.1L528.6,816.9L521.9,821.3L516.8,827.5L517.6,831.5L520.8,838.5L522.1,842.7L527.0,868.1L525.5,876.6L524.6,878.9L517.7,889.2L516.7,890.3L511.9,891.1L509.5,897.4L498.9,904.5L498.9,907.5L499.9,909.9L502.0,911.8L501.5,914.0L517.2,930.6L521.9,933.5L527.4,935.8L532.3,938.8L535.5,943.9L532.3,943.9L535.5,948.8L539.6,951.1L544.0,953.0L551.6,959.4L560.1,964.0L564.0,966.8L577.9,980.5L586.5,986.2L597.3,989.5L595.7,991.6L599.9,995.2L605.7,998.2L611.7,1000.3L619.2,1001.6L624.2,1004.1L626.7,1004.7L634.3,1008.6L640.6,1013.2L657.7,1029.7L665.3,1034.3L675.9,1038.7L682.4,1032.2L684.6,1029.0L685.8,1024.7L686.3,1020.6L688.1,1013.6L689.9,1011.1L697.3,1010.3L701.2,1007.4L704.6,999.0L710.3,987.9L713.2,984.0L720.5,979.3L736.7,965.2L740.5,963.9L751.1,963.9L752.4,963.7L756.4,960.6L758.5,956.7L766.3,946.2L769.7,943.4L772.8,942.0L773.5,933.3L773.2,928.9L772.2,924.5L771.2,922.1L763.7,909.3L746.5,889.3L744.0,884.1L742.0,876.9L741.2,872.6L741.4,869.0L743.4,858.8L743.4,858.8Z " data-id="LR.SI" data-name="Sinoe" id="LR.SI"/>
utf-8utf-8<path d="M239.4,470.2L212.5,470.3L199.8,476.0L190.9,483.0L186.4,485.1L182.8,485.3L179.4,481.3L177.2,476.8L175.4,475.0L176.4,465.2L175.1,459.6L176.1,456.8L177.1,449.1L181.9,448.5L180.8,445.4L179.1,442.8L163.8,439.3L156.9,440.7L151.7,441.1L148.8,440.8L135.3,435.4L133.7,435.4L131.9,436.2L132.7,439.3L131.6,444.6L131.6,452.1L125.2,471.8L121.8,479.6L121.9,483.3L124.5,486.4L125.9,491.2L125.3,495.5L125.0,501.0L123.0,509.7L121.4,512.8L117.3,512.0L113.5,514.1L110.6,518.6L108.1,527.4L103.1,529.2L99.4,532.8L97.5,536.1L96.4,540.5L97.5,547.4L103.2,549.7L141.7,573.3L151.0,580.6L159.1,590.3L163.3,600.1L166.2,592.4L166.6,589.0L163.8,579.0L163.4,576.8L163.6,570.2L164.4,568.8L168.3,565.5L171.3,564.3L181.6,559.7L189.9,552.0L194.3,551.3L196.5,552.4L206.4,559.6L208.0,561.4L212.1,563.6L214.9,562.9L220.6,557.9L223.5,554.7L223.5,552.8L221.4,549.4L215.0,542.0L214.0,539.9L213.8,530.6L214.0,527.6L215.7,521.8L216.1,516.4L217.3,513.8L221.5,508.2L222.4,505.8L221.1,500.0L220.7,496.7L223.6,493.8L223.8,486.5L224.3,483.9L225.9,482.9L232.7,482.0L237.5,479.8L237.7,479.7L241.1,478.2L242.7,476.1L246.7,468.4L239.4,470.2Z " data-id="LR.BM" data-name="Bomi" id="LR.BM"/>
utf-8utf-8<path d="M578.4,378.7L575.5,381.6L577.9,372.0L577.0,368.3L572.3,365.6L570.4,363.8L570.3,359.0L568.9,357.9L563.4,358.1L562.0,357.8L555.9,351.5L552.7,334.2L549.2,328.5L545.4,328.0L537.1,330.5L533.2,329.8L531.8,327.9L530.1,322.4L528.4,320.0L521.2,317.4L517.1,317.5L513.8,319.0L513.3,322.0L510.6,323.4L506.9,329.4L504.1,326.7L499.4,317.4L496.7,321.9L489.5,329.7L487.5,330.9L487.4,330.8L488.2,333.7L482.3,340.8L472.8,348.0L468.9,350.0L463.5,351.4L458.7,354.0L452.0,355.4L449.4,357.6L447.6,360.6L446.2,364.0L447.4,367.2L445.8,371.4L442.7,375.2L439.3,377.3L439.3,375.6L437.2,376.7L433.0,380.0L427.0,381.7L418.1,380.4L414.7,379.3L407.4,375.6L404.0,379.3L394.9,385.3L390.8,388.7L386.1,395.2L381.1,399.7L378.5,398.6L373.9,398.5L368.1,400.3L363.0,402.9L353.8,409.8L346.2,418.5L342.0,421.9L338.2,422.7L334.2,420.4L335.3,418.0L333.5,410.7L331.9,407.8L334.4,403.8L334.7,400.7L330.8,398.6L322.3,396.3L315.9,396.1L294.4,415.7L290.7,422.7L286.9,428.4L279.1,437.6L277.3,439.2L271.7,440.2L265.4,438.9L262.6,439.5L254.5,443.7L252.1,445.4L249.9,448.7L249.5,454.8L248.8,459.6L246.7,468.4L242.7,476.1L241.1,478.2L237.7,479.7L237.5,479.8L245.1,490.0L245.8,492.4L248.3,494.5L251.3,495.6L261.8,496.3L267.4,495.7L269.9,496.5L273.9,500.4L282.0,500.2L291.0,499.2L294.5,500.4L297.8,502.4L300.7,504.8L304.9,509.6L311.1,514.4L341.2,525.7L348.4,524.6L354.0,521.2L359.9,520.0L370.2,522.8L375.7,524.8L379.2,527.7L383.4,534.2L386.9,537.7L392.7,536.1L395.3,532.8L396.8,523.3L399.1,518.0L402.7,514.2L403.7,510.9L403.1,502.0L407.4,493.3L411.3,492.0L413.6,492.6L421.6,497.4L426.5,502.2L429.1,508.2L429.5,514.4L428.2,518.6L423.2,530.9L424.4,532.8L427.9,534.1L440.0,532.6L443.5,532.5L445.9,533.8L454.8,544.9L460.6,550.7L462.6,554.2L462.9,558.8L459.1,564.8L455.6,568.6L449.4,577.5L446.4,584.0L446.3,585.2L448.1,590.2L450.2,590.2L453.1,589.1L459.8,584.8L464.3,580.3L477.0,581.1L478.1,580.7L480.4,578.2L483.6,572.4L487.8,572.6L491.4,570.0L496.0,570.7L498.9,565.1L502.6,562.2L507.3,557.0L512.4,556.2L515.1,553.1L516.6,548.4L524.8,541.0L526.5,541.8L527.6,544.6L530.4,544.9L553.7,538.3L557.7,538.4L560.4,538.0L562.8,538.1L565.0,536.2L566.4,531.7L566.3,529.8L564.6,526.5L564.6,525.1L568.0,519.4L568.9,515.3L568.5,512.2L570.1,509.6L574.0,501.1L572.3,496.9L577.7,490.7L578.7,487.5L577.6,481.7L577.6,476.1L579.0,468.2L579.0,466.1L574.6,460.6L571.1,458.8L570.4,455.8L568.1,452.1L566.1,447.3L561.5,443.0L560.0,439.9L564.1,435.2L566.2,424.6L566.8,417.6L571.2,410.7L579.4,380.6L580.3,378.0L578.4,378.7Z " data-id="LR.BG" data-name="Bong" id="LR.BG"/>
utf-8utf-8<path d="M557.7,538.4L553.7,538.3L530.4,544.9L527.6,544.6L526.5,541.8L524.8,541.0L516.6,548.4L515.1,553.1L512.4,556.2L507.3,557.0L502.6,562.2L498.9,565.1L496.0,570.7L491.4,570.0L487.8,572.6L483.6,572.4L480.4,578.2L478.1,580.7L477.0,581.1L464.3,580.3L459.8,584.8L453.1,589.1L450.2,590.2L448.1,590.2L446.3,585.2L446.4,584.0L449.4,577.5L455.6,568.6L459.1,564.8L462.9,558.8L462.6,554.2L460.6,550.7L454.8,544.9L445.9,533.8L443.5,532.5L440.0,532.6L427.9,534.1L424.4,532.8L423.2,530.9L404.8,555.8L399.5,561.5L394.9,561.1L390.2,558.2L385.6,558.0L374.2,569.2L372.0,570.8L366.4,571.3L359.7,569.0L356.2,568.9L353.1,569.5L348.4,569.1L342.3,575.7L340.3,576.4L333.4,576.5L329.6,572.4L321.6,566.6L320.4,563.4L320.8,560.3L317.2,558.8L313.3,560.4L304.5,562.3L301.3,564.4L301.8,566.5L304.3,568.3L305.2,572.1L308.0,575.6L304.1,586.4L296.4,595.6L295.9,599.9L297.0,604.1L294.6,610.8L290.4,615.2L284.4,618.6L285.0,624.3L286.2,628.3L285.4,630.0L281.8,632.1L280.7,635.0L276.0,642.7L275.0,650.9L276.0,658.0L270.5,669.9L273.8,672.8L278.7,674.0L277.5,676.6L276.0,677.7L274.1,677.5L271.8,675.9L271.2,679.7L273.7,683.4L278.0,686.2L287.3,688.2L291.7,690.4L304.7,699.7L314.7,712.0L331.9,727.5L334.5,729.1L338.2,730.1L342.5,732.6L346.4,736.3L348.6,740.5L349.0,743.8L347.9,747.4L348.6,750.1L350.1,752.2L354.3,755.0L356.1,756.7L364.8,767.8L398.3,799.1L424.8,828.0L425.5,824.6L430.0,821.2L432.2,815.9L437.9,809.9L438.7,808.3L439.4,802.7L437.8,794.2L434.7,786.9L435.1,782.4L436.7,779.0L436.3,773.0L434.2,767.7L433.9,763.7L435.4,758.2L443.5,743.8L443.7,740.9L441.6,736.0L441.5,732.0L442.8,729.5L443.1,727.3L442.4,722.4L445.0,705.1L446.2,701.6L447.6,700.4L453.8,697.7L454.7,696.7L456.9,686.5L458.0,685.5L462.1,684.2L464.9,684.0L471.0,685.2L474.4,689.3L475.4,689.5L477.8,687.0L483.1,677.4L484.6,675.4L492.2,667.6L493.7,664.5L491.4,650.1L491.5,643.9L493.5,634.9L493.5,633.0L492.2,627.3L493.5,624.3L496.6,621.9L506.4,619.6L518.3,613.5L569.9,613.3L570.2,605.1L570.9,599.6L570.6,595.2L572.9,585.8L573.8,577.1L571.6,575.9L568.4,575.5L571.0,568.9L572.2,561.0L573.4,557.7L577.1,553.2L580.5,551.8L583.2,544.2L581.3,541.5L578.4,540.7L574.3,542.7L571.5,542.1L560.4,538.0L557.7,538.4Z " data-id="LR.MG" data-name="Grand Bassa" id="LR.MG"/>
utf-8utf-8<path d="M130.1,434.3L132.5,431.5L137.3,430.1L138.9,428.8L143.3,421.7L145.6,418.5L151.4,413.6L155.3,412.2L160.6,406.9L169.7,403.4L173.3,400.0L176.7,397.3L180.5,390.0L182.5,387.5L187.5,383.5L191.2,380.0L198.4,378.2L216.1,365.9L221.9,360.9L231.5,354.5L234.8,352.0L236.2,348.2L235.0,341.9L235.2,334.1L234.3,328.3L232.9,324.3L218.8,302.0L216.6,300.0L214.2,298.8L205.4,298.1L201.2,298.5L199.8,297.8L197.7,294.2L192.8,295.1L175.3,291.4L172.0,289.3L168.6,290.1L165.7,289.4L165.0,287.5L163.1,286.2L154.4,283.9L151.1,283.5L148.5,287.0L145.8,289.4L142.5,291.0L133.2,293.4L123.2,299.8L86.7,332.2L66.3,361.6L64.1,363.8L43.9,374.1L39.8,375.1L31.2,390.1L26.0,395.8L26.6,398.7L30.0,405.1L30.8,408.6L30.3,411.0L27.2,413.3L21.8,413.9L21.0,415.8L21.9,421.4L21.3,425.5L19.8,430.8L17.4,435.3L10.7,439.6L9.6,444.4L10.1,451.4L8.2,452.7L0.4,456.7L6.6,466.7L8.9,469.5L13.0,473.4L17.9,476.8L22.4,478.2L26.6,486.7L24.7,499.1L24.9,510.1L30.1,517.2L59.4,532.0L97.5,547.4L96.4,540.5L97.5,536.1L99.4,532.8L103.1,529.2L108.1,527.4L110.6,518.6L113.5,514.1L117.3,512.0L121.4,512.8L123.0,509.7L125.0,501.0L125.3,495.5L125.9,491.2L124.5,486.4L121.9,483.3L121.8,479.6L125.2,471.8L131.6,452.1L131.6,444.6L132.7,439.3L131.9,436.2L130.1,434.3Z " data-id="LR.CM" data-name="Grand Cape Mount" id="LR.CM"/>
utf-8utf-8<path d="M212.5,150.6L225.0,162.9L249.5,155.7L263.0,170.1L307.4,185.5L313.8,175.3L336.3,211.3L375.4,201.0L436.9,229.9L439.5,248.4L402.7,343.2L407.4,375.6L414.7,379.3L418.1,380.4L427.0,381.7L433.0,380.0L437.2,376.7L439.3,375.6L439.3,377.3L442.7,375.2L445.8,371.4L447.4,367.2L446.2,364.0L447.6,360.6L449.4,357.6L452.0,355.4L458.7,354.0L463.5,351.4L468.9,350.0L472.8,348.0L482.3,340.8L488.2,333.7L487.4,330.8L486.5,330.0L489.2,327.4L490.7,324.6L491.6,317.5L492.6,314.1L494.9,311.4L500.0,307.1L505.6,297.7L507.7,291.8L506.8,288.0L511.2,282.2L512.9,279.1L514.2,271.7L515.6,267.5L517.7,263.9L520.4,261.6L515.3,254.8L514.9,245.5L517.4,235.6L520.1,228.5L513.9,219.5L511.8,214.7L505.5,205.6L500.0,194.0L497.6,182.4L498.3,170.7L503.6,155.3L504.2,152.5L503.8,149.6L502.5,146.6L499.7,142.8L497.1,142.5L494.5,144.8L491.5,148.9L491.9,145.7L494.6,140.7L495.1,137.8L490.8,117.7L490.8,114.5L490.0,111.2L487.6,109.7L481.6,108.4L478.1,105.4L477.7,98.0L479.3,90.1L481.8,85.7L483.0,81.9L481.8,80.7L478.3,72.0L476.1,69.6L480.3,65.1L485.9,61.6L478.7,55.2L466.5,49.4L463.3,44.5L461.4,42.9L458.4,46.9L456.6,47.9L448.3,48.1L444.7,49.0L442.5,48.2L442.9,43.2L445.2,39.7L448.4,37.2L450.4,33.8L449.1,27.9L446.0,24.3L441.1,21.7L436.3,21.7L433.3,25.5L432.7,31.3L432.6,35.3L431.6,36.0L428.3,31.9L425.8,27.0L424.7,22.1L423.2,9.1L421.8,4.3L419.3,0.7L415.1,0.0L415.2,3.4L410.6,10.2L411.4,14.6L411.1,16.4L405.0,18.4L400.5,21.0L398.4,21.7L396.1,18.7L394.9,18.0L381.4,20.0L377.5,21.4L373.3,23.8L363.7,32.2L353.9,38.8L348.7,39.7L345.4,38.5L344.4,34.8L346.9,21.8L345.3,17.7L341.6,15.3L327.8,11.4L323.6,11.3L319.5,12.7L311.2,21.9L307.0,24.5L305.2,19.9L300.1,22.1L294.9,22.4L294.6,36.7L286.9,70.8L282.5,81.3L282.0,87.6L283.7,95.4L285.6,100.9L284.9,106.1L278.9,112.7L274.1,115.7L269.3,117.4L264.3,118.2L244.6,118.3L239.7,119.2L233.9,122.4L230.3,127.4L224.5,139.3L221.9,142.1L215.7,146.0L213.5,148.0L212.5,150.6Z " data-id="LR.LF" data-name="Lofa" id="LR.LF"/>
utf-8utf-8<path d="M269.9,496.5L267.4,495.7L261.8,496.3L251.3,495.6L248.3,494.5L245.8,492.4L245.1,490.0L237.5,479.8L232.7,482.0L225.9,482.9L224.3,483.9L223.8,486.5L223.6,493.8L220.7,496.7L221.1,500.0L222.4,505.8L221.5,508.2L217.3,513.8L216.1,516.4L215.7,521.8L214.0,527.6L213.8,530.6L214.0,539.9L215.0,542.0L221.4,549.4L223.5,552.8L223.5,554.7L220.6,557.9L214.9,562.9L212.1,563.6L208.0,561.4L206.4,559.6L196.5,552.4L194.3,551.3L189.9,552.0L181.6,559.7L171.3,564.3L168.3,565.5L164.4,568.8L163.6,570.2L163.4,576.8L163.8,579.0L166.6,589.0L166.2,592.4L163.3,600.1L164.9,603.6L171.4,599.6L174.9,599.6L169.3,606.0L166.8,612.2L167.5,618.8L171.6,626.5L169.0,625.8L164.8,620.8L162.9,625.5L167.7,630.5L199.1,648.7L204.6,650.2L209.8,631.4L211.4,628.9L215.5,625.6L220.4,623.6L228.3,616.7L230.2,615.6L241.5,610.8L246.1,606.8L250.2,598.0L253.5,593.7L262.1,590.5L266.9,586.3L268.0,579.3L267.7,563.1L266.8,556.8L264.5,550.2L261.6,546.0L260.3,540.9L261.7,536.6L274.1,509.8L274.7,507.2L273.9,500.4L269.9,496.5Z " data-id="LR.MO" data-name="Montserrado" id="LR.MO"/>
utf-8utf-8<path d="M428.2,518.6L429.5,514.4L429.1,508.2L426.5,502.2L421.6,497.4L413.6,492.6L411.3,492.0L407.4,493.3L403.1,502.0L403.7,510.9L402.7,514.2L399.1,518.0L396.8,523.3L395.3,532.8L392.7,536.1L386.9,537.7L383.4,534.2L379.2,527.7L375.7,524.8L370.2,522.8L359.9,520.0L354.0,521.2L348.4,524.6L341.2,525.7L311.1,514.4L304.9,509.6L300.7,504.8L297.8,502.4L294.5,500.4L291.0,499.2L282.0,500.2L273.9,500.4L274.7,507.2L274.1,509.8L261.7,536.6L260.3,540.9L261.6,546.0L264.5,550.2L266.8,556.8L267.7,563.1L268.0,579.3L266.9,586.3L262.1,590.5L253.5,593.7L250.2,598.0L246.1,606.8L241.5,610.8L230.2,615.6L228.3,616.7L220.4,623.6L215.5,625.6L211.4,628.9L209.8,631.4L204.6,650.2L248.6,662.5L256.4,666.1L263.1,670.8L266.8,675.9L265.0,669.6L259.5,664.3L246.9,657.0L246.9,654.9L251.6,655.2L255.6,657.1L263.5,662.7L267.2,665.9L270.3,669.7L270.5,669.9L276.0,658.0L275.0,650.9L276.0,642.7L280.7,635.0L281.8,632.1L285.4,630.0L286.2,628.3L285.0,624.3L284.4,618.6L290.4,615.2L294.6,610.8L297.0,604.1L295.9,599.9L296.4,595.6L304.1,586.4L308.0,575.6L305.2,572.1L304.3,568.3L301.8,566.5L301.3,564.4L304.5,562.3L313.3,560.4L317.2,558.8L320.8,560.3L320.4,563.4L321.6,566.6L329.6,572.4L333.4,576.5L340.3,576.4L342.3,575.7L348.4,569.1L353.1,569.5L356.2,568.9L359.7,569.0L366.4,571.3L372.0,570.8L374.2,569.2L385.6,558.0L390.2,558.2L394.9,561.1L399.5,561.5L404.8,555.8L423.2,530.9L428.2,518.6Z " data-id="LR.MG" data-name="Margibi" id="LR.MG"/>
utf-8utf-8<path d="M580.3,378.0L579.4,380.6L571.2,410.7L566.8,417.6L566.2,424.6L564.1,435.2L560.0,439.9L561.5,443.0L566.1,447.3L568.1,452.1L570.4,455.8L571.1,458.8L574.6,460.6L579.0,466.1L579.0,468.2L577.6,476.1L577.6,481.7L578.7,487.5L577.7,490.7L572.3,496.9L574.0,501.1L570.1,509.6L568.5,512.2L568.9,515.3L568.0,519.4L564.6,525.1L564.6,526.5L566.3,529.8L566.4,531.7L565.0,536.2L562.8,538.1L560.4,538.0L571.5,542.1L574.3,542.7L578.4,540.7L581.3,541.5L583.2,544.2L580.5,551.8L577.1,553.2L573.4,557.7L572.2,561.0L571.0,568.9L568.4,575.5L571.6,575.9L573.8,577.1L572.9,585.8L570.6,595.2L570.9,599.6L570.2,605.1L569.9,613.3L574.5,625.3L583.6,630.9L588.1,633.3L590.0,635.5L588.8,636.7L588.5,639.5L590.0,653.2L589.1,654.4L585.9,655.7L585.0,657.1L584.7,660.2L581.6,663.7L579.9,661.7L579.4,666.9L576.1,673.0L581.1,676.9L583.0,680.0L582.2,689.3L586.9,695.4L586.9,698.5L582.9,704.0L583.8,708.0L587.8,711.5L587.7,713.0L584.0,715.3L582.1,715.0L579.8,720.6L579.9,721.3L585.2,728.8L583.4,730.5L582.5,732.7L583.2,737.2L585.7,741.1L587.0,745.4L585.0,749.1L584.5,751.9L583.4,758.4L589.9,756.7L618.2,757.4L622.2,755.2L624.6,752.6L628.3,746.4L628.9,741.3L627.0,737.0L623.3,733.2L619.7,737.0L618.4,734.0L619.8,727.6L624.3,721.1L624.4,718.6L621.4,715.9L619.4,712.5L622.5,707.8L626.8,706.2L636.7,704.9L640.5,702.0L642.8,696.6L643.9,689.5L643.3,682.6L640.6,678.1L644.3,674.7L647.3,665.6L650.9,663.5L657.7,660.7L664.2,654.6L669.8,647.3L673.7,640.7L688.5,607.4L694.3,585.3L698.5,575.0L704.6,566.4L710.4,563.3L711.5,559.4L716.1,556.4L719.5,551.9L737.2,536.0L764.1,502.2L767.7,496.1L770.7,488.1L772.8,479.8L773.2,475.9L773.1,472.1L769.9,469.0L768.7,466.9L771.9,459.2L772.1,454.9L771.8,450.3L772.2,445.4L773.5,443.0L778.5,438.7L780.3,436.0L781.0,429.4L776.9,402.9L776.6,396.1L774.5,390.7L770.9,386.6L769.8,383.1L770.4,379.6L769.3,375.5L765.2,369.2L763.3,360.6L761.8,356.9L757.6,350.3L756.0,346.9L754.8,341.6L751.9,314.7L747.0,295.1L742.7,285.3L732.5,279.5L725.1,274.2L717.3,267.6L712.7,261.4L711.2,253.8L712.6,243.4L683.5,241.7L681.5,247.2L675.1,256.0L673.4,261.7L672.7,271.3L670.5,277.4L670.7,279.1L673.5,281.2L673.7,287.7L672.7,293.2L670.3,298.2L666.1,303.3L659.3,307.9L657.8,309.2L656.9,311.8L656.5,317.5L655.6,320.0L653.5,322.1L649.5,323.4L647.2,325.0L642.7,331.3L640.5,335.1L639.3,338.1L639.8,342.8L641.6,347.8L642.7,353.1L641.1,358.6L638.4,360.3L627.7,364.9L624.5,365.3L619.9,357.0L616.8,354.8L615.4,361.4L612.9,360.1L611.8,360.5L610.9,364.8L604.4,366.8L602.4,368.0L598.2,367.7L594.9,369.8L591.8,372.9L588.4,375.7L581.7,377.5L580.3,378.0Z " data-id="LR.NI" data-name="Nimba" id="LR.NI"/>
utf-8utf-8<path d="M584.5,751.9L585.0,749.1L587.0,745.4L585.7,741.1L583.2,737.2L582.5,732.7L583.4,730.5L585.2,728.8L579.9,721.3L579.8,720.6L582.1,715.0L584.0,715.3L587.7,713.0L587.8,711.5L583.8,708.0L582.9,704.0L586.9,698.5L586.9,695.4L582.2,689.3L583.0,680.0L581.1,676.9L576.1,673.0L579.4,666.9L579.9,661.7L581.6,663.7L584.7,660.2L585.0,657.1L585.9,655.7L589.1,654.4L590.0,653.2L588.5,639.5L588.8,636.7L590.0,635.5L588.1,633.3L583.6,630.9L574.5,625.3L569.9,613.3L518.3,613.5L506.4,619.6L496.6,621.9L493.5,624.3L492.2,627.3L493.5,633.0L493.5,634.9L491.5,643.9L491.4,650.1L493.7,664.5L492.2,667.6L484.6,675.4L483.1,677.4L477.8,687.0L475.4,689.5L474.4,689.3L471.0,685.2L464.9,684.0L462.1,684.2L458.0,685.5L456.9,686.5L454.7,696.7L453.8,697.7L447.6,700.4L446.2,701.6L445.0,705.1L442.4,722.4L443.1,727.3L442.8,729.5L441.5,732.0L441.6,736.0L443.7,740.9L443.5,743.8L435.4,758.2L433.9,763.7L434.2,767.7L436.3,773.0L436.7,779.0L435.1,782.4L434.7,786.9L437.8,794.2L439.4,802.7L438.7,808.3L437.9,809.9L432.2,815.9L430.0,821.2L425.5,824.6L424.8,828.0L433.7,837.6L458.0,853.7L462.0,860.4L461.4,863.0L458.5,867.2L458.8,869.8L460.3,869.7L471.5,872.8L475.7,875.3L479.7,878.4L482.3,881.2L484.4,886.1L487.0,896.2L488.7,900.3L501.5,914.0L502.0,911.8L499.9,909.9L498.9,907.5L498.9,904.5L509.5,897.4L511.9,891.1L516.7,890.3L517.7,889.2L524.6,878.9L525.5,876.6L527.0,868.1L522.1,842.7L520.8,838.5L517.6,831.5L516.8,827.5L521.9,821.3L528.6,816.9L535.6,809.1L539.6,805.8L546.4,802.7L548.6,801.4L556.1,794.8L559.2,793.4L564.5,792.4L566.8,791.4L568.7,789.4L569.7,786.3L570.4,778.6L571.1,775.1L574.1,768.3L578.2,762.5L583.4,758.4L584.5,751.9Z " data-id="LR.RI" data-name="River Cess" id="LR.RI"/>
utf-8utf-8<path d="M628.3,746.4L691.9,786.7L705.9,793.6L721.7,772.1L726.5,770.4L734.3,770.9L738.5,772.3L745.9,777.4L748.8,779.9L752.2,783.8L756.8,791.5L760.5,799.2L763.0,809.5L762.9,812.5L761.3,816.1L755.5,818.5L740.7,820.6L738.7,824.3L737.7,829.2L732.5,837.3L730.8,841.6L731.1,844.5L734.0,848.5L737.8,849.5L742.5,851.7L743.3,852.8L743.8,855.9L743.4,858.8L743.4,858.8L751.9,862.5L778.9,862.1L811.0,858.2L826.8,854.6L993.2,846.8L990.8,844.1L997.2,843.9L993.9,839.0L992.8,833.8L994.4,830.4L999.6,831.4L996.5,826.9L988.2,807.8L983.7,786.0L984.0,775.9L985.6,764.1L984.6,754.5L976.7,750.7L975.9,758.9L974.7,763.4L972.8,765.6L970.5,763.9L969.3,760.0L967.7,756.4L963.9,755.6L964.7,750.9L962.9,751.8L959.8,754.7L957.0,756.2L955.3,755.1L952.0,750.5L950.2,748.7L952.2,745.9L950.9,744.0L940.0,738.2L939.6,737.1L935.3,736.4L931.7,733.1L927.4,728.2L924.7,731.8L921.8,737.3L918.4,739.3L914.1,732.4L911.1,729.1L901.5,723.4L898.3,718.9L898.1,716.9L898.3,709.0L898.8,707.7L901.1,706.3L901.0,703.0L897.7,700.9L896.9,694.6L896.0,692.0L893.6,689.6L891.4,689.4L888.3,690.3L886.0,691.7L885.9,693.0L883.2,689.2L882.6,683.6L883.2,677.3L884.4,671.4L887.6,660.7L887.0,657.0L883.3,651.7L872.4,641.9L870.6,636.4L869.0,635.8L865.5,636.5L849.8,632.2L845.8,629.2L841.6,628.1L834.9,628.2L823.6,630.0L820.7,631.3L815.2,634.8L811.9,635.7L807.9,635.8L801.6,631.8L798.6,630.6L779.7,625.8L777.5,624.8L776.9,619.5L775.6,617.3L773.9,616.2L770.8,618.4L765.9,612.7L763.4,611.6L760.2,614.7L757.6,613.4L754.6,613.3L751.6,614.5L749.0,617.4L746.1,614.1L746.9,612.4L749.2,611.0L750.4,608.5L747.7,601.3L747.3,598.7L748.6,594.1L750.4,592.3L750.7,590.7L747.5,586.6L739.9,582.0L737.1,577.8L735.5,576.6L734.3,579.0L733.2,584.1L731.2,589.3L728.2,592.1L723.7,590.4L716.5,579.4L713.8,576.7L710.9,575.7L705.0,575.9L702.7,575.3L698.5,575.0L694.3,585.3L688.5,607.4L673.7,640.7L669.8,647.3L664.2,654.6L657.7,660.7L650.9,663.5L647.3,665.6L644.3,674.7L640.6,678.1L643.3,682.6L643.9,689.5L642.8,696.6L640.5,702.0L636.7,704.9L626.8,706.2L622.5,707.8L619.4,712.5L621.4,715.9L624.4,718.6L624.3,721.1L619.8,727.6L618.4,734.0L619.7,737.0L623.3,733.2L627.0,737.0L628.9,741.3L628.3,746.4Z " data-id="LR.GD" data-name="Grand Gedeh" id="LR.GD"/>
utf-8</g>
</svg>
