<?xml version="1.0" ?>
<!DOCTYPE svg
  PUBLIC '-//W3C//DTD SVG 1.1//EN'
  'http://www.w3.org/Graphics/SVG/1.1/DTD/svg11.dtd'>
<svg enable_background="new 0 0 1000 997" height="997px" pretty_print="True" style="stroke-linejoin: round; stroke:#000; fill: none;" version="1.1" viewBox="0 0 1000 997" width="1000px" xmlns="http://www.w3.org/2000/svg" xmlns:xlink="http://www.w3.org/1999/xlink">
utf-8<defs>
utf-8utf-8<style type="text/css">
<![CDATA[path { fill-rule: evenodd; }]]>utf-8utf-8</style>
utf-8</defs>
utf-8<metadata>
utf-8utf-8<views>
utf-8utf-8utf-8<view h="997.119416747" padding="0" w="1000">
utf-8utf-8utf-8utf-8<proj flip="auto" id="robinson" lon0="27.9191432067"/>
utf-8utf-8utf-8utf-8<bbox h="34.93" w="35.06" x="384.38" y="479.13"/>
utf-8utf-8utf-8</view>
utf-8utf-8</views>
utf-8</metadata>
utf-8<g class="" id="provinces">
utf-8utf-8<path d="M518.4,257.9L514.9,252.8L511.3,245.2L504.9,236.3L501.0,232.1L496.6,228.5L492.7,226.4L488.9,225.1L480.3,223.6L476.1,222.2L472.6,219.4L469.7,214.3L467.6,208.6L465.1,203.5L462.0,199.4L453.4,191.5L448.7,185.5L443.9,181.0L439.1,177.5L434.6,175.5L430.5,175.0L426.5,177.0L421.5,183.1L418.4,191.3L414.7,197.0L409.2,200.5L405.1,204.6L392.3,222.9L388.3,226.4L383.2,229.8L376.3,229.3L372.2,228.3L368.8,226.4L362.8,221.6L359.5,219.7L356.1,219.9L340.3,230.1L333.6,233.2L328.8,234.4L312.7,245.1L308.0,246.4L303.0,244.2L298.0,243.2L291.3,243.3L280.2,248.3L276.7,248.3L277.0,251.0L266.5,268.7L241.2,298.1L238.1,299.8L233.8,301.4L229.6,303.9L226.6,308.2L226.0,312.8L227.8,323.8L228.1,329.4L223.8,332.9L220.3,334.0L222.1,338.4L228.2,342.0L228.9,344.3L226.5,349.6L226.1,353.3L226.9,356.1L228.6,358.9L232.2,360.8L236.8,361.3L246.0,359.8L251.1,357.6L255.4,353.9L260.6,347.2L263.5,345.8L266.7,346.6L276.3,354.2L282.3,357.3L294.2,359.8L300.6,362.3L306.7,361.2L308.9,358.9L311.1,352.9L312.7,350.2L315.0,348.3L318.1,346.9L325.7,345.1L329.9,344.9L334.4,345.5L340.8,347.8L364.2,362.9L367.9,364.3L372.7,365.0L384.9,362.5L389.4,360.8L397.4,356.4L406.3,349.6L410.2,345.4L418.6,333.7L421.3,331.1L423.4,331.2L425.0,334.1L426.1,338.0L428.0,351.6L427.7,361.0L426.1,371.5L426.1,375.8L427.1,379.4L429.4,382.2L432.5,383.0L436.7,380.4L446.8,370.7L460.7,360.1L465.8,354.1L468.7,351.8L471.9,350.2L480.9,347.1L484.1,344.5L485.1,342.8L489.0,344.0L499.5,363.3L504.0,356.8L509.2,348.8L511.3,346.6L530.0,332.9L533.5,329.0L535.8,324.1L536.3,316.6L531.7,302.6L530.1,295.4L524.9,285.1L524.1,278.0L531.7,261.8L518.4,257.9Z " data-id="LS.BE" data-name="Berea" id="LS.BE"/>
utf-8utf-8<path d="M489.0,344.0L485.1,342.8L484.1,344.5L480.9,347.1L471.9,350.2L468.7,351.8L465.8,354.1L460.7,360.1L446.8,370.7L436.7,380.4L432.5,383.0L429.4,382.2L427.1,379.4L426.1,375.8L426.1,371.5L427.7,361.0L428.0,351.6L426.1,338.0L425.0,334.1L423.4,331.2L421.3,331.1L418.6,333.7L410.2,345.4L406.3,349.6L397.4,356.4L389.4,360.8L384.9,362.5L372.7,365.0L367.9,364.3L364.2,362.9L340.8,347.8L334.4,345.5L329.9,344.9L325.7,345.1L318.1,346.9L315.0,348.3L312.7,350.2L311.1,352.9L308.9,358.9L306.7,361.2L300.6,362.3L294.2,359.8L282.3,357.3L276.3,354.2L266.7,346.6L263.5,345.8L260.6,347.2L255.4,353.9L251.1,357.6L246.0,359.8L236.8,361.3L232.2,360.8L228.6,358.9L226.9,356.1L226.1,353.3L226.5,349.6L228.9,344.3L228.2,342.0L222.1,338.4L220.3,334.0L203.4,339.6L196.3,344.0L194.8,347.8L193.2,358.9L191.9,363.2L187.6,368.7L183.7,370.9L179.8,372.1L176.0,375.2L174.8,378.5L178.4,384.2L179.3,388.0L178.3,394.0L176.5,396.9L173.6,399.0L155.4,417.9L150.4,425.4L148.1,433.9L145.7,436.0L136.3,435.5L134.0,437.2L132.8,442.7L130.4,447.7L127.4,452.0L126.4,452.9L135.9,455.2L140.4,454.3L145.2,454.7L147.6,456.0L149.6,458.0L151.0,461.9L151.7,470.2L152.7,474.2L157.0,483.3L158.3,488.0L160.8,493.0L170.3,505.0L171.9,510.4L172.4,514.7L172.3,518.1L173.9,521.1L176.6,523.2L182.6,525.0L189.6,525.4L200.5,522.2L204.8,519.3L212.5,510.3L215.0,508.6L216.9,509.2L217.7,513.1L216.7,524.0L218.0,529.0L222.3,533.3L231.6,535.8L244.5,535.3L248.7,536.3L252.6,539.6L269.9,572.7L269.7,579.5L267.2,585.0L263.0,589.1L259.5,593.0L259.9,596.4L264.3,598.7L298.6,593.7L314.5,593.8L323.0,596.9L374.5,607.2L383.2,611.6L391.5,618.5L397.8,620.5L415.9,623.1L420.7,625.8L423.5,629.6L424.6,632.8L428.4,636.3L431.0,646.8L441.8,643.7L449.0,635.9L449.8,625.1L449.0,618.1L456.6,614.2L465.1,614.2L465.4,611.1L462.7,602.6L461.3,594.8L466.0,585.5L461.5,584.0L452.7,586.3L441.6,585.5L441.9,580.9L439.3,563.0L434.1,552.2L426.6,547.5L430.2,542.9L440.4,539.7L452.8,540.5L462.1,540.5L478.3,543.2L474.0,519.0L473.8,514.9L474.7,509.9L468.8,448.2L468.0,444.6L466.7,442.5L463.5,441.1L461.5,434.8L459.0,433.7L454.9,427.7L453.8,424.6L453.3,420.5L454.9,413.5L454.8,408.8L455.6,404.3L458.7,395.7L460.9,391.7L463.3,389.2L466.5,388.8L471.8,386.6L475.9,384.4L499.5,363.3L489.0,344.0Z " data-id="LS.MS" data-name="Maseru" id="LS.MS"/>
utf-8utf-8<path d="M502.7,680.7L515.7,674.3L530.1,677.5L534.2,682.1L539.9,694.1L541.3,695.9L544.2,694.7L559.1,685.0L568.6,677.5L575.2,674.1L581.3,668.8L587.0,661.1L591.4,657.3L595.9,654.2L610.2,648.5L615.1,646.0L618.3,643.0L620.5,637.4L620.9,631.5L619.6,617.1L621.1,608.2L624.4,596.4L625.3,586.3L620.2,575.0L608.0,584.0L603.6,589.4L593.0,590.9L583.5,594.0L572.4,601.0L562.0,607.2L554.6,609.6L547.0,605.7L536.8,609.6L534.2,617.3L533.7,624.3L527.6,625.8L519.6,626.6L511.4,631.3L518.3,643.7L520.9,653.0L516.6,657.6L512.2,663.1L506.6,658.4L501.1,653.0L495.8,645.2L485.7,639.0L474.6,637.5L465.4,636.7L449.0,635.9L441.8,643.7L431.0,646.8L428.4,636.3L419.5,641.4L418.0,652.2L412.2,650.7L401.9,647.6L391.9,640.6L371.4,640.6L365.4,632.8L358.5,628.2L353.4,634.4L351.2,646.0L348.0,653.0L344.0,646.0L337.4,636.7L330.2,635.9L331.4,646.0L329.6,652.2L322.4,660.0L313.7,662.3L304.9,656.9L298.7,650.7L290.5,655.3L286.6,663.1L280.5,664.6L273.7,664.9L269.5,667.9L264.8,669.8L261.0,669.8L257.1,667.1L252.4,660.9L247.3,651.6L243.9,649.4L238.9,648.8L230.1,649.7L224.9,649.2L221.2,647.1L217.6,643.6L215.1,651.2L212.8,655.5L211.0,657.4L204.7,662.2L200.6,670.4L182.4,687.7L178.4,694.5L175.0,697.6L168.3,700.7L166.1,701.0L163.2,700.3L155.1,691.8L145.3,684.1L141.0,674.2L139.9,669.5L139.1,664.2L138.7,657.5L139.3,649.3L141.1,640.5L142.6,636.3L151.0,616.5L151.3,613.5L149.6,610.9L146.1,609.8L139.9,611.0L135.8,614.1L130.5,618.8L126.8,620.1L118.6,620.8L111.2,617.7L108.2,618.8L96.1,627.8L67.1,641.6L60.3,644.2L69.5,671.4L76.5,680.7L94.7,697.4L99.8,707.0L103.6,729.6L105.8,736.3L110.2,744.2L113.9,745.8L119.0,744.5L128.0,744.5L134.0,746.3L137.6,749.5L136.9,754.2L130.4,760.5L119.8,783.0L119.6,796.6L126.7,822.2L125.4,829.6L138.0,832.6L142.0,833.2L144.9,832.7L153.8,829.1L160.3,829.2L163.0,832.3L165.1,844.0L168.9,851.2L174.8,856.6L189.0,863.5L190.1,868.9L195.8,866.8L200.0,868.0L203.4,867.5L206.5,863.9L210.0,853.6L213.0,849.3L227.7,845.3L254.4,856.6L268.6,850.2L274.0,841.0L274.2,832.0L269.6,813.4L269.2,809.0L269.5,804.9L271.2,802.0L275.1,801.6L276.9,802.9L279.3,807.8L280.8,809.2L294.3,812.2L301.5,811.8L308.7,809.2L310.6,807.4L317.7,799.4L329.2,793.2L330.8,790.5L333.5,784.6L335.0,782.0L337.3,779.6L342.4,776.3L344.5,774.3L347.2,768.6L347.1,762.9L344.8,751.1L345.3,744.1L347.4,737.9L357.2,721.6L360.3,717.8L363.9,714.9L368.3,713.2L379.3,713.2L389.7,710.9L393.3,710.7L413.9,716.1L421.2,715.1L435.4,710.8L441.7,706.8L444.6,700.3L449.1,694.1L458.5,692.6L475.9,694.2L489.8,689.6L500.5,682.2L502.7,680.7Z " data-id="LS.MH" data-name="Mohale's Hoek" id="LS.MH"/>
utf-8utf-8<path d="M531.0,764.1L524.7,754.0L520.5,751.5L514.9,752.2L480.2,747.8L475.9,745.7L473.1,742.7L471.8,739.6L471.5,736.4L472.6,729.0L475.1,720.8L477.2,717.2L480.7,713.8L493.6,707.2L501.4,706.6L503.4,704.8L504.9,701.2L502.8,693.0L500.5,682.2L489.8,689.6L475.9,694.2L458.5,692.6L449.1,694.1L444.6,700.3L441.7,706.8L435.4,710.8L421.2,715.1L413.9,716.1L393.3,710.7L389.7,710.9L379.3,713.2L368.3,713.2L363.9,714.9L360.3,717.8L357.2,721.6L347.4,737.9L345.3,744.1L344.8,751.1L347.1,762.9L347.2,768.6L344.5,774.3L342.4,776.3L337.3,779.6L335.0,782.0L333.5,784.6L330.8,790.5L329.2,793.2L317.7,799.4L310.6,807.4L308.7,809.2L301.5,811.8L294.3,812.2L280.8,809.2L279.3,807.8L276.9,802.9L275.1,801.6L271.2,802.0L269.5,804.9L269.2,809.0L269.6,813.4L274.2,832.0L274.0,841.0L268.6,850.2L254.4,856.6L227.7,845.3L213.0,849.3L210.0,853.6L206.5,863.9L203.4,867.5L200.0,868.0L195.8,866.8L190.1,868.9L191.1,873.5L200.9,884.1L209.5,898.2L210.5,902.4L210.8,910.9L213.0,915.0L236.2,934.1L256.1,959.4L267.6,967.3L281.3,971.8L298.1,974.1L302.2,973.4L310.3,969.5L313.8,968.9L318.4,970.5L321.6,973.3L324.5,976.5L328.1,979.6L335.9,983.8L344.1,986.6L391.5,990.8L400.9,995.1L401.8,985.8L401.4,978.2L401.7,970.5L404.8,960.9L407.7,956.5L411.3,954.0L414.9,952.1L418.3,949.3L421.9,945.0L423.5,942.1L432.1,919.9L432.9,916.1L432.0,911.3L427.9,903.0L427.3,899.2L430.9,893.6L467.5,866.0L473.3,859.5L477.0,849.3L476.7,838.4L472.3,834.2L466.6,831.4L462.7,824.9L464.2,816.1L471.0,808.9L479.9,803.6L487.6,800.6L499.6,798.8L503.7,797.0L506.7,794.2L512.3,786.7L516.3,783.8L523.1,777.3L531.0,764.1Z " data-id="LS.QT" data-name="Quthing" id="LS.QT"/>
utf-8utf-8<path d="M527.1,62.0L530.0,64.4L538.0,70.0L539.4,76.6L538.3,93.3L539.4,103.8L540.9,108.0L543.2,110.1L553.4,112.3L556.7,112.1L560.2,111.1L565.0,111.4L570.3,113.3L583.9,123.8L588.4,126.3L592.6,127.8L598.3,130.8L601.7,134.6L605.2,139.6L608.3,142.2L611.7,143.7L615.9,144.3L622.6,144.5L625.8,145.2L631.1,148.2L632.6,153.4L633.0,158.4L632.9,164.0L633.4,169.3L634.9,175.9L635.2,181.1L634.5,185.6L623.7,216.7L623.2,222.2L623.9,228.2L627.0,236.1L630.0,239.0L633.1,239.5L635.1,238.1L636.6,236.1L642.4,225.4L644.3,222.7L646.4,221.3L649.3,220.8L652.6,221.2L670.2,228.4L674.4,229.1L679.0,229.4L683.4,228.9L688.5,227.8L693.5,226.1L698.2,223.9L702.1,221.4L705.8,218.2L708.6,215.0L710.9,211.2L712.3,207.3L715.8,192.1L717.6,186.9L720.2,182.1L732.4,164.6L737.7,158.3L739.9,156.4L742.7,155.0L753.7,152.0L765.2,146.9L767.4,144.9L770.2,141.4L770.6,137.5L767.2,132.4L766.6,129.7L766.9,119.4L772.6,91.2L773.1,90.1L772.8,90.0L760.3,87.6L757.1,85.0L746.9,61.9L741.3,56.7L723.3,56.2L719.5,49.5L717.9,29.9L716.1,20.5L713.0,12.6L708.0,5.9L700.8,0.0L694.6,0.8L670.3,17.1L662.1,19.1L605.2,23.0L596.6,26.6L588.1,34.8L575.7,54.4L567.4,61.7L559.0,65.0L549.5,66.3L540.2,65.2L532.2,61.5L527.1,62.0Z " data-id="LS.BB" data-name="Butha-Buthe" id="LS.BB"/>
utf-8utf-8<path d="M742.7,155.0L739.9,156.4L737.7,158.3L732.4,164.6L720.2,182.1L717.6,186.9L715.8,192.1L712.3,207.3L710.9,211.2L708.6,215.0L705.8,218.2L702.1,221.4L698.2,223.9L693.5,226.1L688.5,227.8L683.4,228.9L679.0,229.4L674.4,229.1L670.2,228.4L652.6,221.2L649.3,220.8L646.4,221.3L644.3,222.7L642.4,225.4L636.6,236.1L635.1,238.1L633.1,239.5L630.0,239.0L627.0,236.1L623.9,228.2L623.2,222.2L623.7,216.7L634.5,185.6L635.2,181.1L634.9,175.9L633.4,169.3L632.9,164.0L633.0,158.4L632.6,153.4L631.1,148.2L625.8,145.2L622.6,144.5L615.9,144.3L611.7,143.7L608.3,142.2L605.2,139.6L601.7,134.6L598.3,130.8L592.6,127.8L588.4,126.3L583.9,123.8L570.3,113.3L565.0,111.4L560.2,111.1L556.7,112.1L553.4,112.3L543.2,110.1L540.9,108.0L539.4,103.8L538.3,93.3L539.4,76.6L538.0,70.0L530.0,64.4L527.1,62.0L504.9,64.3L501.3,62.8L496.9,68.7L491.0,75.7L478.5,92.8L477.0,95.5L457.6,115.4L440.7,136.6L438.7,140.4L438.6,144.1L437.9,146.9L434.2,148.0L423.2,148.0L418.8,145.5L415.3,140.5L410.8,135.9L403.2,134.9L397.1,138.4L393.4,144.8L390.3,152.3L386.0,159.5L374.8,164.5L328.7,161.3L331.1,169.3L326.5,173.0L320.0,175.3L316.4,179.1L315.9,185.7L315.2,189.5L312.5,195.1L312.2,198.6L311.4,200.6L307.9,199.8L306.3,200.4L297.6,212.1L292.3,217.6L287.0,219.9L280.5,221.7L282.0,226.1L286.7,231.5L289.9,236.2L287.3,236.7L281.3,239.5L278.8,236.2L275.8,239.5L276.7,248.3L280.2,248.3L291.3,243.3L298.0,243.2L303.0,244.2L308.0,246.4L312.7,245.1L328.8,234.4L333.6,233.2L340.3,230.1L356.1,219.9L359.5,219.7L362.8,221.6L368.8,226.4L372.2,228.3L376.3,229.3L383.2,229.8L388.3,226.4L392.3,222.9L405.1,204.6L409.2,200.5L414.7,197.0L418.4,191.3L421.5,183.1L426.5,177.0L430.5,175.0L434.6,175.5L439.1,177.5L443.9,181.0L448.7,185.5L453.4,191.5L462.0,199.4L465.1,203.5L467.6,208.6L469.7,214.3L472.6,219.4L476.1,222.2L480.3,223.6L488.9,225.1L492.7,226.4L496.6,228.5L501.0,232.1L504.9,236.3L511.3,245.2L514.9,252.8L518.4,257.9L531.7,261.8L536.3,257.4L541.0,256.0L545.1,255.4L549.1,255.5L555.4,256.7L558.3,257.7L560.9,259.3L562.3,261.9L562.4,265.2L561.7,274.2L562.7,279.0L566.8,288.7L575.5,321.2L584.0,342.2L587.7,346.0L592.1,347.9L596.1,348.2L607.3,350.8L620.2,355.9L639.5,367.4L645.2,369.6L649.6,370.0L661.8,368.9L664.9,367.8L668.7,364.3L666.9,360.3L662.6,356.7L660.0,354.1L649.7,338.4L647.6,333.5L647.7,328.4L649.6,320.0L650.5,311.2L652.5,305.2L656.1,299.1L662.8,291.7L667.7,287.4L672.5,284.7L680.5,282.8L684.5,281.1L689.1,277.8L725.0,245.9L731.6,238.9L735.1,231.8L738.7,222.0L745.3,175.3L747.1,168.7L751.1,161.6L753.7,152.0L742.7,155.0Z " data-id="LS.LE" data-name="Leribe" id="LS.LE"/>
utf-8utf-8<path d="M773.1,90.1L772.6,91.2L766.9,119.4L766.6,129.7L767.2,132.4L770.6,137.5L770.2,141.4L767.4,144.9L765.2,146.9L753.7,152.0L751.1,161.6L747.1,168.7L745.3,175.3L738.7,222.0L735.1,231.8L731.6,238.9L725.0,245.9L689.1,277.8L684.5,281.1L680.5,282.8L672.5,284.7L667.7,287.4L662.8,291.7L656.1,299.1L652.5,305.2L650.5,311.2L649.6,320.0L647.7,328.4L664.2,324.6L675.2,318.4L700.1,297.8L704.8,294.7L707.7,293.7L709.8,295.6L711.6,298.9L713.1,303.6L712.8,308.5L710.9,314.9L697.2,342.6L692.5,350.2L691.4,353.2L692.5,356.7L696.0,358.9L701.6,361.1L704.7,363.6L710.1,372.0L712.7,373.3L714.9,372.0L717.9,368.2L720.4,367.2L724.6,367.1L729.5,367.7L736.0,369.2L738.9,370.7L740.4,372.5L741.2,383.0L740.7,402.8L739.2,412.5L736.5,419.6L732.8,425.0L727.1,430.3L727.9,431.7L729.0,438.3L731.8,439.0L750.0,437.7L756.4,438.6L774.4,444.6L779.8,445.0L799.9,443.9L804.5,444.3L808.5,444.1L812.3,443.1L818.6,439.9L821.8,439.1L825.5,439.1L838.0,443.0L849.7,448.1L855.9,452.0L860.0,456.1L863.8,465.9L866.6,470.9L871.7,476.6L874.6,478.7L878.3,479.6L880.4,478.8L888.5,471.5L892.6,469.4L904.2,465.9L906.9,464.4L917.1,456.8L920.7,455.6L927.5,456.8L928.4,446.5L932.1,436.5L941.3,427.5L953.2,422.4L965.6,418.5L976.6,413.7L981.5,410.1L985.2,405.9L987.5,400.6L987.8,393.7L989.1,386.2L997.5,375.2L999.5,368.2L998.5,365.4L993.5,359.9L991.9,357.0L991.7,353.6L992.7,346.3L992.5,343.4L989.2,333.1L979.0,317.2L975.9,300.4L973.4,292.3L968.3,285.9L962.3,280.9L958.2,275.2L958.2,247.7L946.2,242.4L930.0,242.0L916.9,237.8L886.1,201.3L872.6,194.7L863.7,192.2L858.6,188.4L856.7,182.3L857.2,172.9L853.9,168.1L845.4,163.8L836.0,161.1L830.1,161.5L809.5,137.8L795.3,108.1L790.5,101.6L779.3,92.6L773.1,90.1Z " data-id="LS.MK" data-name="Mokhotlong" id="LS.MK"/>
utf-8utf-8<path d="M620.2,575.0L625.3,586.3L624.4,596.4L621.1,608.2L619.6,617.1L620.9,631.5L620.5,637.4L618.3,643.0L615.1,646.0L610.2,648.5L595.9,654.2L591.4,657.3L587.0,661.1L581.3,668.8L575.2,674.1L568.6,677.5L559.1,685.0L544.2,694.7L541.3,695.9L539.9,694.1L534.2,682.1L530.1,677.5L515.7,674.3L502.7,680.7L500.5,682.2L502.8,693.0L504.9,701.2L503.4,704.8L501.4,706.6L493.6,707.2L480.7,713.8L477.2,717.2L475.1,720.8L472.6,729.0L471.5,736.4L471.8,739.6L473.1,742.7L475.9,745.7L480.2,747.8L514.9,752.2L520.5,751.5L524.7,754.0L531.0,764.1L535.0,757.4L543.5,750.2L553.4,748.7L572.7,751.6L583.0,747.9L601.4,737.2L608.1,735.5L614.9,736.3L633.9,744.1L647.6,744.2L685.1,730.1L712.3,724.2L739.3,713.2L788.8,681.5L839.0,651.2L844.1,649.0L855.1,645.7L859.9,643.3L862.8,639.3L862.2,634.6L858.5,625.4L858.1,618.7L858.7,614.5L857.9,611.1L853.1,607.0L847.8,598.5L848.9,587.1L852.3,574.5L853.7,563.9L847.3,565.5L839.0,564.6L825.8,559.2L817.6,557.2L813.5,559.4L810.9,563.1L805.5,592.3L803.4,597.6L800.1,602.9L793.3,610.1L787.0,613.3L780.4,615.4L771.9,616.5L765.5,615.8L759.7,613.1L739.3,594.8L734.0,592.4L728.2,591.2L719.8,591.3L715.3,592.3L717.5,598.2L718.1,604.2L714.5,610.1L710.2,612.3L706.4,611.8L702.7,610.6L698.8,610.4L694.8,612.2L691.7,615.2L685.6,621.7L680.3,624.1L676.5,621.4L674.8,618.9L674.1,615.9L674.2,612.0L675.6,602.9L675.6,598.7L674.7,595.2L672.8,592.1L670.2,589.2L663.1,583.4L655.7,578.8L644.7,574.3L636.6,572.3L631.3,572.1L627.3,572.4L620.2,575.0Z " data-id="LS.QN" data-name="Qacha's Nek" id="LS.QN"/>
utf-8utf-8<path d="M647.6,333.5L649.7,338.4L660.0,354.1L662.6,356.7L666.9,360.3L668.7,364.3L664.9,367.8L661.8,368.9L649.6,370.0L645.2,369.6L639.5,367.4L620.2,355.9L607.3,350.8L596.1,348.2L592.1,347.9L587.7,346.0L584.0,342.2L575.5,321.2L566.8,288.7L562.7,279.0L561.7,274.2L562.4,265.2L562.3,261.9L560.9,259.3L558.3,257.7L555.4,256.7L549.1,255.5L545.1,255.4L541.0,256.0L536.3,257.4L531.7,261.8L524.1,278.0L524.9,285.1L530.1,295.4L531.7,302.6L536.3,316.6L535.8,324.1L533.5,329.0L530.0,332.9L511.3,346.6L509.2,348.8L504.0,356.8L499.5,363.3L475.9,384.4L471.8,386.6L466.5,388.8L463.3,389.2L460.9,391.7L458.7,395.7L455.6,404.3L454.8,408.8L454.9,413.5L453.3,420.5L453.8,424.6L454.9,427.7L459.0,433.7L461.5,434.8L463.5,441.1L466.7,442.5L468.0,444.6L468.8,448.2L474.7,509.9L473.8,514.9L474.0,519.0L478.3,543.2L486.9,544.4L496.0,555.3L484.8,568.0L490.0,579.3L494.4,611.9L499.4,615.0L505.2,617.3L508.0,623.5L511.4,631.3L519.6,626.6L527.6,625.8L533.7,624.3L534.2,617.3L536.8,609.6L547.0,605.7L554.6,609.6L562.0,607.2L572.4,601.0L583.5,594.0L593.0,590.9L603.6,589.4L608.0,584.0L620.2,575.0L627.3,572.4L631.3,572.1L636.6,572.3L644.7,574.3L655.7,578.8L663.1,583.4L670.2,589.2L672.8,592.1L674.7,595.2L675.6,598.7L675.6,602.9L674.2,612.0L674.1,615.9L674.8,618.9L676.5,621.4L680.3,624.1L685.6,621.7L691.7,615.2L694.8,612.2L698.8,610.4L702.7,610.6L706.4,611.8L710.2,612.3L714.5,610.1L718.1,604.2L717.5,598.2L715.3,592.3L719.8,591.3L728.2,591.2L734.0,592.4L739.3,594.8L759.7,613.1L765.5,615.8L771.9,616.5L780.4,615.4L787.0,613.3L793.3,610.1L800.1,602.9L803.4,597.6L805.5,592.3L810.9,563.1L813.5,559.4L817.6,557.2L825.8,559.2L839.0,564.6L847.3,565.5L853.7,563.9L853.8,562.6L862.5,548.3L868.7,534.8L876.2,522.9L888.7,513.4L920.7,503.5L925.7,497.5L926.3,489.6L927.5,482.2L934.4,477.5L929.2,470.1L927.3,458.7L927.5,456.8L920.7,455.6L917.1,456.8L906.9,464.4L904.2,465.9L892.6,469.4L888.5,471.5L880.4,478.8L878.3,479.6L874.6,478.7L871.7,476.6L866.6,470.9L863.8,465.9L860.0,456.1L855.9,452.0L849.7,448.1L838.0,443.0L825.5,439.1L821.8,439.1L818.6,439.9L812.3,443.1L808.5,444.1L804.5,444.3L799.9,443.9L779.8,445.0L774.4,444.6L756.4,438.6L750.0,437.7L731.8,439.0L729.0,438.3L727.9,431.7L727.1,430.3L732.8,425.0L736.5,419.6L739.2,412.5L740.7,402.8L741.2,383.0L740.4,372.5L738.9,370.7L736.0,369.2L729.5,367.7L724.6,367.1L720.4,367.2L717.9,368.2L714.9,372.0L712.7,373.3L710.1,372.0L704.7,363.6L701.6,361.1L696.0,358.9L692.5,356.7L691.4,353.2L692.5,350.2L697.2,342.6L710.9,314.9L712.8,308.5L713.1,303.6L711.6,298.9L709.8,295.6L707.7,293.7L704.8,294.7L700.1,297.8L675.2,318.4L664.2,324.6L647.7,328.4L647.6,333.5Z " data-id="LS.TT" data-name="Thaba-Tseka" id="LS.TT"/>
utf-8utf-8<path d="M449.0,635.9L465.4,636.7L474.6,637.5L485.7,639.0L495.8,645.2L501.1,653.0L506.6,658.4L512.2,663.1L516.6,657.6L520.9,653.0L518.3,643.7L511.4,631.3L508.0,623.5L505.2,617.3L499.4,615.0L494.4,611.9L490.0,579.3L484.8,568.0L496.0,555.3L486.9,544.4L478.3,543.2L462.1,540.5L452.8,540.5L440.4,539.7L430.2,542.9L426.6,547.5L434.1,552.2L439.3,563.0L441.9,580.9L441.6,585.5L452.7,586.3L461.5,584.0L466.0,585.5L461.3,594.8L462.7,602.6L465.4,611.1L465.1,614.2L456.6,614.2L449.0,618.1L449.8,625.1L449.0,635.9Z M124.4,455.0L110.6,463.0L101.7,466.7L90.2,469.1L82.6,473.2L78.4,474.8L66.4,476.1L54.6,480.8L52.3,482.3L38.2,496.6L36.2,497.9L33.0,496.4L31.1,491.0L27.1,491.1L24.8,493.1L21.1,500.8L18.1,504.4L14.7,498.7L10.4,498.7L7.1,503.2L6.3,510.9L0.5,522.7L3.7,524.3L9.1,529.2L14.2,532.2L19.3,537.1L29.8,555.4L32.8,562.6L60.3,644.2L67.1,641.6L96.1,627.8L108.2,618.8L111.2,617.7L118.6,620.8L126.8,620.1L130.5,618.8L135.8,614.1L139.9,611.0L146.1,609.8L149.6,610.9L151.3,613.5L151.0,616.5L142.6,636.3L141.1,640.5L139.3,649.3L138.7,657.5L139.1,664.2L139.9,669.5L141.0,674.2L145.3,684.1L155.1,691.8L163.2,700.3L166.1,701.0L168.3,700.7L175.0,697.6L178.4,694.5L182.4,687.7L200.6,670.4L204.7,662.2L211.0,657.4L212.8,655.5L215.1,651.2L217.6,643.6L221.2,647.1L224.9,649.2L230.1,649.7L238.9,648.8L243.9,649.4L247.3,651.6L252.4,660.9L257.1,667.1L261.0,669.8L264.8,669.8L269.5,667.9L273.7,664.9L280.5,664.6L286.6,663.1L290.5,655.3L298.7,650.7L304.9,656.9L313.7,662.3L322.4,660.0L329.6,652.2L331.4,646.0L330.2,635.9L337.4,636.7L344.0,646.0L348.0,653.0L351.2,646.0L353.4,634.4L358.5,628.2L365.4,632.8L371.4,640.6L391.9,640.6L401.9,647.6L412.2,650.7L418.0,652.2L419.5,641.4L428.4,636.3L424.6,632.8L423.5,629.6L420.7,625.8L415.9,623.1L397.8,620.5L391.5,618.5L383.2,611.6L374.5,607.2L323.0,596.9L314.5,593.8L298.6,593.7L264.3,598.7L259.9,596.4L259.5,593.0L263.0,589.1L267.2,585.0L269.7,579.5L269.9,572.7L252.6,539.6L248.7,536.3L244.5,535.3L231.6,535.8L222.3,533.3L218.0,529.0L216.7,524.0L217.7,513.1L216.9,509.2L215.0,508.6L212.5,510.3L204.8,519.3L200.5,522.2L189.6,525.4L182.6,525.0L176.6,523.2L173.9,521.1L172.3,518.1L172.4,514.7L171.9,510.4L170.3,505.0L160.8,493.0L158.3,488.0L157.0,483.3L152.7,474.2L151.7,470.2L151.0,461.9L149.6,458.0L147.6,456.0L145.2,454.7L140.4,454.3L135.9,455.2L126.4,452.9L124.4,455.0Z " data-id="LS.MF" data-name="Mafeteng" id="LS.MF"/>
utf-8</g>
</svg>
