<?xml version="1.0" ?>
<!DOCTYPE svg
  PUBLIC '-//W3C//DTD SVG 1.1//EN'
  'http://www.w3.org/Graphics/SVG/1.1/DTD/svg11.dtd'>
<svg enable_background="new 0 0 1000 556" height="556px" pretty_print="True" style="stroke-linejoin: round; stroke:#000; fill: none;" version="1.1" viewBox="0 0 1000 556" width="1000px" xmlns="http://www.w3.org/2000/svg" xmlns:xlink="http://www.w3.org/1999/xlink">
utf-8<defs>
utf-8utf-8<style type="text/css">
<![CDATA[path { fill-rule: evenodd; }]]>utf-8utf-8</style>
utf-8</defs>
utf-8<metadata>
utf-8utf-8<views>
utf-8utf-8utf-8<view h="556.938962789" padding="0" w="1000">
utf-8utf-8utf-8utf-8<proj flip="auto" id="robinson" lon0="24.0572893929"/>
utf-8utf-8utf-8utf-8<bbox h="40.41" w="72.68" x="258.04" y="-938.12"/>
utf-8utf-8utf-8</view>
utf-8utf-8</views>
utf-8</metadata>
utf-8<g class="" id="provinces">
utf-8utf-8<path d="M708.3,498.6L704.5,494.0L702.7,490.8L698.7,487.5L694.4,486.0L691.4,483.1L691.6,481.0L707.9,467.4L713.1,461.4L713.7,458.1L713.6,451.5L713.9,448.4L716.6,446.0L721.0,445.3L724.0,444.1L724.3,441.7L722.4,431.8L713.9,432.3L700.5,436.1L693.2,440.5L685.7,439.7L677.9,441.6L675.7,435.2L669.2,432.7L664.4,432.0L662.0,432.1L653.5,435.9L648.0,437.1L645.2,437.3L629.8,435.8L626.1,434.2L625.3,432.7L625.7,425.8L624.6,424.2L621.3,421.9L622.2,420.0L622.2,416.6L619.7,411.6L604.7,413.1L599.0,411.7L597.2,410.1L593.3,408.3L590.6,407.9L584.1,409.3L565.8,412.1L557.5,410.1L554.1,410.1L549.3,411.6L547.4,413.6L547.6,415.9L551.0,420.8L540.8,424.0L535.6,427.5L531.3,429.5L529.1,430.1L528.1,428.6L512.2,429.1L510.2,427.7L501.1,425.9L497.6,423.6L492.8,419.6L489.3,419.5L476.3,428.0L474.0,432.8L475.2,439.0L462.8,442.7L460.3,445.3L463.9,449.0L462.5,449.6L457.2,450.3L453.3,451.6L451.0,453.1L448.5,456.0L445.9,463.9L445.7,465.4L447.0,469.8L446.4,476.8L446.5,480.8L449.9,482.8L457.5,490.9L459.4,491.8L464.8,493.3L468.1,496.4L471.2,500.8L473.8,505.6L479.8,520.5L480.6,525.4L478.6,528.8L475.2,531.9L478.1,537.8L481.9,541.0L481.5,543.5L487.5,544.6L504.0,551.7L507.0,552.5L509.7,552.3L517.7,549.6L528.3,548.4L533.5,546.0L540.8,547.7L553.0,542.0L555.6,541.6L558.4,542.5L563.8,544.9L566.7,545.4L577.7,545.3L582.6,544.3L592.5,540.0L598.0,539.2L603.6,540.6L609.1,545.0L613.0,551.3L615.2,553.4L618.6,553.9L624.3,553.7L629.9,554.9L636.1,554.9L642.0,552.6L659.5,539.3L667.6,535.5L678.3,533.9L682.0,531.6L683.9,531.9L686.8,536.2L689.6,538.0L692.8,538.2L703.7,536.8L706.5,535.6L707.5,525.9L705.4,521.7L702.5,518.0L699.7,513.3L698.4,509.9L700.9,507.7L703.9,506.2L703.1,502.2L703.6,500.8L708.3,498.6Z " data-id="LT.AS" data-name="Alytaus" id="LT.AS"/>
utf-8utf-8<path d="M470.1,197.2L463.0,201.2L458.7,205.3L456.7,209.0L451.3,207.6L446.4,207.5L443.8,204.0L446.0,198.5L441.3,196.3L438.9,194.6L434.5,194.0L432.3,195.7L428.8,196.7L428.6,199.5L424.1,200.0L418.2,198.9L414.3,197.2L400.2,189.3L388.8,194.7L387.1,194.1L381.5,187.4L374.8,186.8L364.4,187.7L361.2,189.7L356.2,197.4L350.5,200.5L325.6,208.0L321.1,207.2L318.5,203.4L314.9,202.0L302.5,203.4L293.2,206.1L288.4,209.4L293.1,214.8L295.2,216.6L298.9,218.4L302.5,218.9L304.5,225.1L311.5,227.6L314.1,226.8L316.7,227.3L318.0,228.9L318.9,237.1L321.9,240.4L325.4,242.3L329.0,244.9L330.9,248.4L336.4,245.7L339.7,242.7L339.7,239.6L356.6,248.6L357.2,250.3L355.1,252.1L354.9,254.8L356.9,255.7L361.2,255.7L370.2,253.1L374.4,253.8L377.5,253.6L381.2,252.0L387.3,254.1L389.5,258.2L390.6,259.1L393.9,259.9L404.6,260.0L411.2,259.1L413.2,259.5L420.3,263.7L429.6,262.1L434.0,262.6L437.9,265.7L435.3,268.5L434.8,272.4L436.5,280.8L436.2,282.4L432.2,288.5L431.4,295.3L435.0,296.0L444.5,301.3L448.2,301.7L452.1,301.3L455.9,301.5L459.4,303.6L460.7,305.6L460.9,307.6L458.6,308.7L456.4,308.7L453.9,309.8L450.7,314.7L447.0,315.8L439.5,315.2L437.7,315.5L433.8,317.8L433.0,319.1L433.8,321.5L442.4,323.1L446.3,326.0L451.4,334.9L455.4,334.3L459.2,332.7L461.7,332.9L465.0,334.0L470.0,336.8L475.6,340.9L476.4,342.1L476.5,345.9L477.4,348.4L480.3,353.6L478.5,354.3L476.2,360.7L480.5,361.1L482.0,362.4L482.1,364.8L485.8,369.3L486.1,373.7L490.8,383.8L490.3,387.9L482.1,391.6L482.2,392.4L486.8,395.3L491.9,396.7L493.5,398.1L490.6,403.3L496.5,407.9L502.8,411.5L508.5,413.0L512.5,419.5L513.1,421.7L511.0,426.0L510.2,427.7L512.2,429.1L528.1,428.6L529.1,430.1L531.3,429.5L535.6,427.5L540.8,424.0L551.0,420.8L547.6,415.9L547.4,413.6L549.3,411.6L554.1,410.1L557.5,410.1L565.8,412.1L584.1,409.3L590.6,407.9L593.3,408.3L597.2,410.1L599.0,411.7L604.7,413.1L619.7,411.6L621.2,409.9L622.0,407.2L621.8,402.6L622.6,399.2L624.2,399.0L628.8,399.6L630.7,395.4L630.3,392.0L627.6,389.8L627.5,387.3L624.9,379.0L626.1,377.3L628.7,376.0L635.5,374.4L640.0,371.1L646.4,372.2L649.3,370.9L649.0,364.1L649.3,362.1L650.9,357.6L651.4,353.5L654.4,349.9L664.9,345.3L666.8,343.6L669.1,339.1L673.5,336.2L668.1,331.2L664.8,329.4L661.5,328.4L654.2,328.0L650.9,327.1L640.8,320.8L631.6,317.5L627.4,315.0L633.0,307.2L637.3,304.2L640.1,302.9L642.6,300.2L641.5,296.8L639.3,294.5L633.9,292.7L630.7,286.9L628.1,285.8L624.9,287.0L622.9,287.2L620.8,286.2L618.5,283.7L617.3,278.1L609.1,273.1L607.6,271.0L606.5,268.0L610.2,263.8L607.8,262.7L600.8,260.9L598.6,259.6L596.8,257.7L594.3,250.1L590.4,246.1L588.8,243.6L588.8,238.9L588.3,236.8L589.1,233.4L590.7,227.0L585.6,223.6L582.8,219.7L577.8,216.4L569.4,213.2L568.2,213.3L567.1,216.1L561.1,215.3L554.6,210.3L553.1,209.9L542.0,214.4L538.9,215.0L532.4,215.2L529.7,217.3L527.1,217.2L526.8,216.1L527.0,209.1L525.8,207.5L518.2,202.0L514.5,199.8L506.6,200.4L504.0,199.6L502.1,198.3L498.9,191.1L497.8,189.8L495.1,188.9L491.8,188.8L470.1,197.2Z " data-id="LT.KS" data-name="Kauno" id="LT.KS"/>
utf-8utf-8<path d="M415.9,296.9L360.8,289.5L355.7,290.5L352.7,291.6L348.5,294.2L339.0,292.3L330.5,293.2L322.4,295.3L320.6,296.4L315.7,298.0L301.7,300.0L295.1,298.0L293.6,296.8L289.0,298.5L290.9,299.8L293.4,304.2L297.7,314.0L300.6,318.9L303.0,321.5L306.0,322.6L315.5,322.6L317.2,322.9L321.7,326.7L324.1,327.3L322.6,330.3L324.3,332.0L334.9,335.5L337.3,337.3L339.1,340.0L342.9,348.8L344.2,352.8L344.3,356.7L342.7,360.5L340.5,362.6L335.6,365.4L332.5,369.5L326.1,372.5L327.1,376.4L323.9,380.5L323.7,384.3L326.1,391.6L325.9,395.6L323.7,405.9L324.9,422.8L327.2,431.4L332.8,438.9L345.1,452.5L348.0,450.5L355.7,442.7L359.4,443.1L370.2,447.1L375.9,446.6L379.7,448.3L383.2,453.1L385.3,454.1L391.2,454.6L392.4,455.8L391.5,460.4L391.8,462.7L395.4,465.9L399.3,465.9L403.2,464.6L406.5,464.0L409.8,465.1L421.4,471.8L428.4,474.7L442.7,478.6L446.5,480.8L446.4,476.8L447.0,469.8L445.7,465.4L445.9,463.9L448.5,456.0L451.0,453.1L453.3,451.6L457.2,450.3L462.5,449.6L463.9,449.0L460.3,445.3L462.8,442.7L475.2,439.0L474.0,432.8L476.3,428.0L489.3,419.5L492.8,419.6L497.6,423.6L501.1,425.9L510.2,427.7L511.0,426.0L513.1,421.7L512.5,419.5L508.5,413.0L502.8,411.5L496.5,407.9L490.6,403.3L493.5,398.1L491.9,396.7L486.8,395.3L482.2,392.4L482.1,391.6L490.3,387.9L490.8,383.8L486.1,373.7L485.8,369.3L482.1,364.8L482.0,362.4L480.5,361.1L476.2,360.7L478.5,354.3L480.3,353.6L477.4,348.4L476.5,345.9L476.4,342.1L475.6,340.9L470.0,336.8L465.0,334.0L461.7,332.9L459.2,332.7L455.4,334.3L451.4,334.9L446.3,326.0L442.4,323.1L433.8,321.5L433.0,319.1L433.8,317.8L437.7,315.5L439.5,315.2L447.0,315.8L450.7,314.7L453.9,309.8L456.4,308.7L458.6,308.7L460.9,307.6L460.7,305.6L459.4,303.6L455.9,301.5L452.1,301.3L448.2,301.7L444.5,301.3L435.0,296.0L431.4,295.3L415.9,296.9Z " data-id="LT.MA" data-name="Marijampoles" id="LT.MA"/>
utf-8utf-8<path d="M514.0,39.9L515.4,44.3L515.3,45.7L513.1,50.8L514.3,53.2L515.7,53.7L518.5,53.2L519.4,54.1L520.3,60.6L519.4,61.8L514.4,62.9L511.9,64.9L511.1,66.8L511.0,72.6L507.8,76.7L506.7,79.1L505.8,85.1L504.9,86.3L499.5,85.8L499.0,89.9L500.2,95.7L501.9,98.8L503.9,100.3L512.3,104.3L513.4,107.7L513.5,109.9L511.9,113.1L512.9,116.3L511.7,118.6L508.4,120.6L502.0,123.2L501.1,124.8L500.7,128.9L494.3,129.4L497.4,135.7L500.5,137.8L504.7,139.0L507.1,143.3L511.2,147.0L512.9,152.4L513.9,157.4L513.3,159.0L508.9,162.3L509.1,164.7L512.3,171.2L512.6,173.1L511.7,174.2L507.1,174.4L503.5,176.5L499.7,176.4L498.1,177.1L495.2,183.5L493.0,186.2L491.8,188.8L495.1,188.9L497.8,189.8L498.9,191.1L502.1,198.3L504.0,199.6L506.6,200.4L514.5,199.8L518.2,202.0L525.8,207.5L527.0,209.1L526.8,216.1L527.1,217.2L529.7,217.3L532.4,215.2L538.9,215.0L542.0,214.4L553.1,209.9L554.6,210.3L561.1,215.3L567.1,216.1L568.2,213.3L569.4,213.2L577.8,216.4L582.8,219.7L585.6,223.6L590.7,227.0L595.1,224.3L599.0,224.7L600.5,224.1L605.8,219.3L610.9,206.6L614.5,206.2L618.6,207.8L623.4,207.7L624.3,206.8L618.1,202.0L619.3,199.6L622.5,198.9L625.2,194.9L623.5,191.1L622.9,185.5L628.3,180.6L628.7,179.5L626.8,175.3L617.8,169.4L619.0,168.5L623.7,167.5L628.3,169.6L631.4,168.1L630.7,164.3L625.8,161.3L625.4,155.9L636.7,157.1L643.0,155.9L648.1,157.4L652.6,154.8L661.8,154.6L664.7,153.4L669.7,152.4L680.4,153.0L689.9,159.1L692.3,163.0L699.6,162.3L718.1,156.7L721.3,156.5L725.1,157.4L727.5,155.5L726.0,152.2L727.9,149.6L739.9,144.4L743.6,146.7L747.4,151.6L748.5,152.1L752.3,149.9L753.9,149.8L760.1,155.3L766.7,152.7L769.0,151.4L771.2,150.9L789.4,150.5L793.6,154.0L799.0,148.7L801.9,143.7L803.3,143.0L808.1,144.2L811.3,144.5L813.0,142.8L814.5,136.0L815.5,133.0L819.3,128.0L820.4,123.6L822.3,121.7L828.7,116.4L829.5,114.9L828.7,108.9L831.3,104.6L814.9,97.3L794.7,82.9L784.2,78.1L781.9,76.6L780.0,74.3L775.6,67.1L774.1,65.2L771.9,64.5L762.0,65.1L759.0,64.7L750.1,61.7L738.9,63.2L679.6,56.0L673.0,52.8L667.0,46.3L662.8,39.4L660.8,37.3L654.5,32.8L652.4,30.6L649.9,26.6L643.4,13.5L637.4,4.5L633.8,0.8L630.1,0.0L628.1,1.6L628.0,6.2L627.3,8.1L625.9,8.3L620.4,7.3L600.2,14.1L594.2,17.8L579.9,33.4L570.9,37.5L565.5,39.3L559.8,38.2L548.2,32.6L542.5,31.1L537.4,31.7L518.4,39.3L514.0,39.9Z " data-id="LT.PA" data-name="Panevezio" id="LT.PA"/>
utf-8utf-8<path d="M247.3,12.0L243.5,15.1L246.6,19.4L246.9,21.3L245.2,24.9L243.0,26.2L238.3,26.5L233.7,25.6L229.8,26.4L227.8,30.0L229.9,33.8L229.5,38.0L227.3,40.8L224.7,42.6L220.8,47.5L220.3,60.1L226.7,61.6L228.4,63.2L227.1,65.3L227.2,66.9L230.8,67.3L233.2,71.5L235.4,72.6L240.2,73.2L247.1,70.6L253.6,71.3L256.5,70.9L261.4,68.3L266.3,67.2L270.0,66.9L273.6,68.3L273.4,72.8L275.1,76.0L278.2,78.4L271.4,81.8L263.7,83.1L262.2,84.3L262.2,86.0L264.2,89.5L264.5,95.1L260.9,99.2L261.8,100.8L266.2,104.3L270.2,104.2L272.5,101.3L281.8,106.6L281.7,107.2L277.8,109.2L278.8,111.6L274.5,115.9L272.8,121.2L271.4,122.8L264.1,124.5L263.0,127.5L264.1,131.5L263.7,133.6L259.9,136.1L253.9,137.8L252.0,139.3L252.0,140.7L254.6,144.3L255.4,146.3L255.2,153.1L257.2,158.4L257.3,160.0L254.7,161.8L250.0,165.3L250.2,167.2L253.9,171.3L257.6,172.5L258.5,173.3L257.7,177.1L258.2,178.5L263.9,184.1L272.2,187.7L274.3,189.2L281.8,196.2L285.3,198.8L282.4,202.8L284.1,207.9L288.4,209.4L293.2,206.1L302.5,203.4L314.9,202.0L318.5,203.4L321.1,207.2L325.6,208.0L350.5,200.5L356.2,197.4L361.2,189.7L364.4,187.7L374.8,186.8L381.5,187.4L387.1,194.1L388.8,194.7L400.2,189.3L414.3,197.2L418.2,198.9L424.1,200.0L428.6,199.5L428.8,196.7L432.3,195.7L434.5,194.0L438.9,194.6L441.3,196.3L446.0,198.5L443.8,204.0L446.4,207.5L451.3,207.6L456.7,209.0L458.7,205.3L463.0,201.2L470.1,197.2L491.8,188.8L493.0,186.2L495.2,183.5L498.1,177.1L499.7,176.4L503.5,176.5L507.1,174.4L511.7,174.2L512.6,173.1L512.3,171.2L509.1,164.7L508.9,162.3L513.3,159.0L513.9,157.4L512.9,152.4L511.2,147.0L507.1,143.3L504.7,139.0L500.5,137.8L497.4,135.7L494.3,129.4L500.7,128.9L501.1,124.8L502.0,123.2L508.4,120.6L511.7,118.6L512.9,116.3L511.9,113.1L513.5,109.9L513.4,107.7L512.3,104.3L503.9,100.3L501.9,98.8L500.2,95.7L499.0,89.9L499.5,85.8L504.9,86.3L505.8,85.1L506.7,79.1L507.8,76.7L511.0,72.6L511.1,66.8L511.9,64.9L514.4,62.9L519.4,61.8L520.3,60.6L519.4,54.1L518.5,53.2L515.7,53.7L514.3,53.2L513.1,50.8L515.3,45.7L515.4,44.3L514.0,39.9L513.8,40.0L508.6,39.3L502.6,37.0L485.4,28.1L463.9,23.3L458.4,23.2L447.1,25.2L441.8,24.6L440.9,20.9L437.8,19.0L433.3,19.6L421.6,19.2L416.4,20.3L406.9,24.6L400.8,24.3L370.8,15.5L366.9,15.0L348.0,18.3L345.1,19.7L346.9,21.9L339.5,28.4L331.3,29.9L323.0,25.6L315.4,15.0L310.3,8.8L304.5,6.6L298.7,7.4L288.5,12.9L265.8,19.9L263.3,20.2L260.3,19.3L252.0,13.7L247.3,12.0Z " data-id="LT.SH" data-name="Šiauliai" id="LT.SH"/>
utf-8utf-8<path d="M237.3,166.8L231.2,165.3L219.7,163.3L201.8,164.9L196.2,166.8L193.5,168.3L185.0,168.8L183.7,172.5L183.4,177.0L179.7,180.0L173.4,179.8L154.5,181.8L155.5,183.7L153.3,187.0L144.9,189.8L145.6,191.9L148.3,193.5L149.0,194.6L151.1,201.8L155.0,205.4L156.0,207.0L161.1,217.6L163.1,219.1L164.8,219.0L167.5,217.2L181.7,222.0L187.4,223.0L189.5,226.1L187.0,227.2L186.5,233.2L181.0,238.8L169.8,249.3L168.5,252.2L169.2,253.9L171.3,254.7L176.8,255.3L193.7,260.5L196.6,263.0L199.4,267.9L202.6,272.1L202.7,278.0L205.1,279.3L210.9,275.7L215.2,275.2L218.7,276.0L222.2,278.3L235.4,279.5L236.8,279.4L240.0,280.6L240.6,283.1L237.1,291.1L237.7,297.3L266.3,299.8L283.6,295.9L288.0,297.6L289.0,298.5L293.6,296.8L295.1,298.0L301.7,300.0L315.7,298.0L320.6,296.4L322.4,295.3L330.5,293.2L339.0,292.3L348.5,294.2L352.7,291.6L355.7,290.5L360.8,289.5L415.9,296.9L431.4,295.3L432.2,288.5L436.2,282.4L436.5,280.8L434.8,272.4L435.3,268.5L437.9,265.7L434.0,262.6L429.6,262.1L420.3,263.7L413.2,259.5L411.2,259.1L404.6,260.0L393.9,259.9L390.6,259.1L389.5,258.2L387.3,254.1L381.2,252.0L377.5,253.6L374.4,253.8L370.2,253.1L361.2,255.7L356.9,255.7L354.9,254.8L355.1,252.1L357.2,250.3L356.6,248.6L339.7,239.6L339.7,242.7L336.4,245.7L330.9,248.4L329.0,244.9L325.4,242.3L321.9,240.4L318.9,237.1L318.0,228.9L316.7,227.3L314.1,226.8L311.5,227.6L304.5,225.1L302.5,218.9L298.9,218.4L295.2,216.6L293.1,214.8L288.4,209.4L284.1,207.9L282.4,202.8L285.3,198.8L281.8,196.2L274.3,189.2L272.2,187.7L263.9,184.1L258.2,178.5L257.7,177.1L258.5,173.3L257.6,172.5L253.9,171.3L250.2,167.2L250.0,165.3L237.3,166.8Z " data-id="LT.TG" data-name="Taurages" id="LT.TG"/>
utf-8utf-8<path d="M831.3,104.6L828.7,108.9L829.5,114.9L828.7,116.4L822.3,121.7L820.4,123.6L819.3,128.0L815.5,133.0L814.5,136.0L813.0,142.8L811.3,144.5L808.1,144.2L803.3,143.0L801.9,143.7L799.0,148.7L793.6,154.0L789.4,150.5L771.2,150.9L769.0,151.4L766.7,152.7L760.1,155.3L753.9,149.8L752.3,149.9L748.5,152.1L747.4,151.6L743.6,146.7L739.9,144.4L727.9,149.6L726.0,152.2L727.5,155.5L725.1,157.4L721.3,156.5L718.1,156.7L699.6,162.3L692.3,163.0L689.9,159.1L680.4,153.0L669.7,152.4L664.7,153.4L661.8,154.6L652.6,154.8L648.1,157.4L643.0,155.9L636.7,157.1L625.4,155.9L625.8,161.3L630.7,164.3L631.4,168.1L628.3,169.6L623.7,167.5L619.0,168.5L617.8,169.4L626.8,175.3L628.7,179.5L628.3,180.6L622.9,185.5L623.5,191.1L625.2,194.9L622.5,198.9L648.0,211.9L652.7,215.3L653.6,219.2L651.3,220.3L650.1,223.9L650.4,225.2L653.6,229.3L658.7,231.2L666.9,231.4L669.8,233.1L670.6,236.6L675.4,236.2L681.7,233.8L684.8,235.6L685.8,241.7L689.2,242.5L701.9,241.8L702.2,246.1L710.0,250.9L712.5,253.2L714.3,253.8L720.0,252.7L722.8,253.1L724.0,254.1L723.3,258.0L720.5,261.8L721.6,264.4L722.9,265.3L728.2,265.1L737.0,268.7L739.5,270.0L739.4,271.0L734.7,272.6L733.1,274.4L726.8,278.0L721.3,279.7L722.3,284.0L721.4,289.9L723.3,291.8L730.4,293.1L736.2,295.7L739.9,303.3L748.0,303.5L759.2,306.3L766.6,305.3L788.8,300.0L805.9,297.0L811.2,297.1L814.2,299.4L823.5,300.7L825.8,300.6L825.0,295.5L829.2,292.2L829.5,291.3L827.2,289.1L827.6,287.8L831.2,285.4L830.5,283.1L820.2,278.7L814.5,273.7L808.8,270.3L805.8,267.8L804.0,264.5L804.0,261.2L805.0,258.5L809.4,256.2L813.8,251.9L814.5,250.1L816.4,241.4L824.3,244.8L830.9,246.3L836.8,243.7L845.0,249.4L849.8,248.5L854.3,252.3L856.3,252.6L861.2,251.2L862.7,250.2L866.3,245.1L868.8,244.2L879.4,243.9L886.6,245.9L890.4,249.0L890.5,250.5L888.8,254.1L889.0,256.2L890.5,258.4L892.8,259.3L895.7,258.8L900.7,257.4L904.2,258.4L910.7,261.2L919.4,262.6L942.5,263.5L960.7,259.5L968.5,255.6L970.9,253.9L978.3,252.2L984.9,253.9L990.0,259.6L994.2,258.8L997.8,256.5L999.1,253.0L996.9,249.4L992.6,247.2L963.9,243.6L954.0,245.6L951.1,245.5L940.5,242.7L937.6,241.3L936.5,239.1L937.4,235.0L941.3,227.5L942.1,219.4L943.2,217.0L948.4,212.6L948.5,210.1L944.5,205.5L944.4,200.3L947.0,196.4L950.5,192.9L953.1,189.1L953.9,184.3L953.3,178.6L951.6,172.8L949.2,167.7L939.4,167.1L929.6,165.2L904.7,157.0L893.1,151.1L882.2,139.5L877.1,132.9L872.0,128.1L853.5,117.6L841.6,109.1L831.3,104.6Z " data-id="LT.UN" data-name="Utenos" id="LT.UN"/>
utf-8utf-8<path d="M622.5,198.9L619.3,199.6L618.1,202.0L624.3,206.8L623.4,207.7L618.6,207.8L614.5,206.2L610.9,206.6L605.8,219.3L600.5,224.1L599.0,224.7L595.1,224.3L590.7,227.0L589.1,233.4L588.3,236.8L588.8,238.9L588.8,243.6L590.4,246.1L594.3,250.1L596.8,257.7L598.6,259.6L600.8,260.9L607.8,262.7L610.2,263.8L606.5,268.0L607.6,271.0L609.1,273.1L617.3,278.1L618.5,283.7L620.8,286.2L622.9,287.2L624.9,287.0L628.1,285.8L630.7,286.9L633.9,292.7L639.3,294.5L641.5,296.8L642.6,300.2L640.1,302.9L637.3,304.2L633.0,307.2L627.4,315.0L631.6,317.5L640.8,320.8L650.9,327.1L654.2,328.0L661.5,328.4L664.8,329.4L668.1,331.2L673.5,336.2L669.1,339.1L666.8,343.6L664.9,345.3L654.4,349.9L651.4,353.5L650.9,357.6L649.3,362.1L649.0,364.1L649.3,370.9L646.4,372.2L640.0,371.1L635.5,374.4L628.7,376.0L626.1,377.3L624.9,379.0L627.5,387.3L627.6,389.8L630.3,392.0L630.7,395.4L628.8,399.6L624.2,399.0L622.6,399.2L621.8,402.6L622.0,407.2L621.2,409.9L619.7,411.6L622.2,416.6L622.2,420.0L621.3,421.9L624.6,424.2L625.7,425.8L625.3,432.7L626.1,434.2L629.8,435.8L645.2,437.3L648.0,437.1L653.5,435.9L662.0,432.1L664.4,432.0L669.2,432.7L675.7,435.2L677.9,441.6L685.7,439.7L693.2,440.5L700.5,436.1L713.9,432.3L722.4,431.8L724.3,441.7L724.0,444.1L721.0,445.3L716.6,446.0L713.9,448.4L713.6,451.5L713.7,458.1L713.1,461.4L707.9,467.4L691.6,481.0L691.4,483.1L694.4,486.0L698.7,487.5L702.7,490.8L704.5,494.0L708.3,498.6L709.1,498.2L716.9,497.5L724.9,498.4L739.0,502.3L746.5,501.4L753.4,497.7L759.5,491.9L761.6,487.3L763.4,477.0L765.1,474.2L768.1,473.8L779.4,476.7L793.4,476.1L797.2,474.1L802.8,466.5L806.9,465.0L811.4,467.4L825.5,479.7L824.1,480.6L820.1,480.3L816.9,481.8L816.8,484.0L821.2,485.6L822.5,487.5L821.5,489.1L816.8,490.4L815.8,491.9L817.7,495.8L822.1,498.6L827.0,500.3L842.4,502.2L846.2,502.1L847.8,501.3L850.0,498.5L851.8,497.9L858.3,498.5L860.3,498.3L863.9,496.1L864.7,492.6L863.2,482.7L865.5,478.7L864.8,477.3L862.1,475.9L860.6,473.5L855.3,468.5L851.1,468.0L846.5,460.2L844.0,459.2L841.5,459.7L832.0,463.7L824.6,464.1L820.7,463.0L817.9,460.2L817.3,454.7L819.7,450.0L826.4,442.9L828.6,438.2L828.6,434.0L827.7,429.5L827.5,423.8L828.6,419.3L830.8,416.7L840.5,412.1L843.3,409.6L845.1,406.2L845.3,401.9L843.6,397.7L838.1,390.0L836.3,385.7L836.0,382.9L837.2,376.4L837.1,374.2L834.7,363.1L834.7,360.2L836.2,358.2L839.5,355.8L843.0,354.7L843.0,351.1L840.3,344.8L841.4,340.7L844.3,338.1L847.9,335.8L850.9,332.8L851.9,326.9L853.7,325.7L859.8,323.7L862.9,323.7L869.3,324.8L872.4,324.8L892.5,321.7L898.2,319.1L900.4,317.0L905.1,310.5L909.6,300.4L910.0,296.0L908.9,290.6L908.9,288.1L913.2,281.9L920.7,280.9L940.1,284.5L943.1,284.1L946.1,280.9L948.4,280.7L967.4,286.6L971.0,286.1L973.1,283.0L973.9,276.6L973.9,270.6L974.7,268.3L976.9,265.6L981.2,262.1L983.6,260.9L990.0,259.6L984.9,253.9L978.3,252.2L970.9,253.9L968.5,255.6L960.7,259.5L942.5,263.5L919.4,262.6L910.7,261.2L904.2,258.4L900.7,257.4L895.7,258.8L892.8,259.3L890.5,258.4L889.0,256.2L888.8,254.1L890.5,250.5L890.4,249.0L886.6,245.9L879.4,243.9L868.8,244.2L866.3,245.1L862.7,250.2L861.2,251.2L856.3,252.6L854.3,252.3L849.8,248.5L845.0,249.4L836.8,243.7L830.9,246.3L824.3,244.8L816.4,241.4L814.5,250.1L813.8,251.9L809.4,256.2L805.0,258.5L804.0,261.2L804.0,264.5L805.8,267.8L808.8,270.3L814.5,273.7L820.2,278.7L830.5,283.1L831.2,285.4L827.6,287.8L827.2,289.1L829.5,291.3L829.2,292.2L825.0,295.5L825.8,300.6L823.5,300.7L814.2,299.4L811.2,297.1L805.9,297.0L788.8,300.0L766.6,305.3L759.2,306.3L748.0,303.5L739.9,303.3L736.2,295.7L730.4,293.1L723.3,291.8L721.4,289.9L722.3,284.0L721.3,279.7L726.8,278.0L733.1,274.4L734.7,272.6L739.4,271.0L739.5,270.0L737.0,268.7L728.2,265.1L722.9,265.3L721.6,264.4L720.5,261.8L723.3,258.0L724.0,254.1L722.8,253.1L720.0,252.7L714.3,253.8L712.5,253.2L710.0,250.9L702.2,246.1L701.9,241.8L689.2,242.5L685.8,241.7L684.8,235.6L681.7,233.8L675.4,236.2L670.6,236.6L669.8,233.1L666.9,231.4L658.7,231.2L653.6,229.3L650.4,225.2L650.1,223.9L651.3,220.3L653.6,219.2L652.7,215.3L648.0,211.9L622.5,198.9Z " data-id="LT.VI" data-name="Vilniaus" id="LT.VI"/>
utf-8utf-8<path d="M13.6,249.1L20.8,241.0L22.4,236.6L22.9,232.2L24.9,227.3L27.5,223.2L29.6,220.9L29.4,219.6L25.8,216.6L26.2,213.2L28.4,209.7L29.8,206.1L28.7,198.0L28.7,195.4L29.8,191.8L29.8,189.0L26.8,170.1L23.0,160.6L16.9,155.6L19.1,161.5L20.5,175.0L22.6,179.4L22.0,181.4L23.1,182.5L22.5,186.1L23.2,204.4L18.8,222.0L13.5,234.9L3.0,251.0L14.3,253.1L13.6,249.1Z M108.0,25.7L99.7,28.6L84.9,29.1L79.0,31.4L57.4,44.3L54.8,44.9L47.2,45.2L42.4,47.1L36.6,50.9L31.3,55.6L27.8,60.3L25.9,67.3L25.5,73.2L23.6,77.3L17.0,78.7L7.1,78.7L0.9,79.9L2.8,87.5L5.4,106.0L5.3,108.0L4.2,111.0L4.1,113.4L5.5,122.9L10.7,141.2L12.9,145.4L14.4,150.8L19.1,154.2L27.3,163.1L28.7,165.2L29.8,169.3L31.6,173.1L39.6,185.4L40.5,187.6L40.8,193.6L41.8,195.7L46.3,199.5L46.8,201.2L49.8,207.6L53.0,216.3L53.7,221.6L50.2,225.7L45.3,236.5L46.1,238.8L54.9,232.0L56.7,232.2L57.3,237.1L58.1,239.4L62.6,243.6L64.7,247.9L64.0,250.0L60.5,250.7L62.2,257.3L74.9,249.9L79.1,249.4L84.8,253.2L97.2,266.5L103.9,270.1L121.1,270.6L128.3,273.0L141.3,279.9L144.6,282.8L147.8,284.6L159.8,286.4L166.1,290.2L169.6,291.7L175.7,292.8L183.3,294.9L187.4,292.4L191.7,292.1L193.9,293.2L195.3,299.1L197.4,302.7L201.5,305.1L206.2,306.2L210.1,305.9L213.0,304.2L216.6,300.5L234.5,297.0L237.7,297.3L237.1,291.1L240.6,283.1L240.0,280.6L236.8,279.4L235.4,279.5L222.2,278.3L218.7,276.0L215.2,275.2L210.9,275.7L205.1,279.3L202.7,278.0L202.6,272.1L199.4,267.9L196.6,263.0L193.7,260.5L176.8,255.3L171.3,254.7L169.2,253.9L168.5,252.2L169.8,249.3L181.0,238.8L186.5,233.2L187.0,227.2L189.5,226.1L187.4,223.0L181.7,222.0L167.5,217.2L164.8,219.0L163.1,219.1L161.1,217.6L156.0,207.0L155.0,205.4L151.1,201.8L149.0,194.6L148.3,193.5L145.6,191.9L144.9,189.8L153.3,187.0L155.5,183.7L154.5,181.8L144.7,176.1L138.9,170.8L132.4,160.3L128.5,156.2L128.1,154.9L129.0,149.0L124.3,147.7L120.5,148.7L112.5,148.9L107.2,149.3L106.3,147.9L107.7,145.0L102.7,139.7L101.9,136.0L100.9,135.7L98.0,137.8L94.5,138.8L87.3,138.3L86.8,137.0L88.0,133.6L90.0,131.6L98.2,126.3L99.3,124.5L101.5,123.0L100.5,119.1L96.9,115.6L94.6,110.4L94.1,101.6L92.7,97.7L93.1,96.4L95.1,95.2L98.9,94.5L101.8,91.9L106.4,83.6L106.9,79.1L114.1,73.7L115.8,72.9L122.3,72.7L124.0,72.3L128.0,68.9L130.2,68.5L138.5,68.6L141.4,66.9L144.5,60.6L148.2,52.3L149.1,51.3L153.7,50.1L152.9,47.1L145.8,37.9L143.6,36.0L141.3,27.6L140.0,25.8L135.8,22.4L135.2,21.1L136.5,18.5L142.2,16.2L144.2,14.9L144.5,12.7L108.0,25.7Z " data-id="LT.KP" data-name="Klaipedos" id="LT.KP"/>
utf-8utf-8<path d="M246.8,11.8L235.8,10.1L186.2,11.3L182.7,10.3L176.0,7.0L172.6,5.8L165.0,5.4L147.3,11.7L144.5,12.7L144.2,14.9L142.2,16.2L136.5,18.5L135.2,21.1L135.8,22.4L140.0,25.8L141.3,27.6L143.6,36.0L145.8,37.9L152.9,47.1L153.7,50.1L149.1,51.3L148.2,52.3L144.5,60.6L141.4,66.9L138.5,68.6L130.2,68.5L128.0,68.9L124.0,72.3L122.3,72.7L115.8,72.9L114.1,73.7L106.9,79.1L106.4,83.6L101.8,91.9L98.9,94.5L95.1,95.2L93.1,96.4L92.7,97.7L94.1,101.6L94.6,110.4L96.9,115.6L100.5,119.1L101.5,123.0L99.3,124.5L98.2,126.3L90.0,131.6L88.0,133.6L86.8,137.0L87.3,138.3L94.5,138.8L98.0,137.8L100.9,135.7L101.9,136.0L102.7,139.7L107.7,145.0L106.3,147.9L107.2,149.3L112.5,148.9L120.5,148.7L124.3,147.7L129.0,149.0L128.1,154.9L128.5,156.2L132.4,160.3L138.9,170.8L144.7,176.1L154.5,181.8L173.4,179.8L179.7,180.0L183.4,177.0L183.7,172.5L185.0,168.8L193.5,168.3L196.2,166.8L201.8,164.9L219.7,163.3L231.2,165.3L237.3,166.8L250.0,165.3L254.7,161.8L257.3,160.0L257.2,158.4L255.2,153.1L255.4,146.3L254.6,144.3L252.0,140.7L252.0,139.3L253.9,137.8L259.9,136.1L263.7,133.6L264.1,131.5L263.0,127.5L264.1,124.5L271.4,122.8L272.8,121.2L274.5,115.9L278.8,111.6L277.8,109.2L281.7,107.2L281.8,106.6L272.5,101.3L270.2,104.2L266.2,104.3L261.8,100.8L260.9,99.2L264.5,95.1L264.2,89.5L262.2,86.0L262.2,84.3L263.7,83.1L271.4,81.8L278.2,78.4L275.1,76.0L273.4,72.8L273.6,68.3L270.0,66.9L266.3,67.2L261.4,68.3L256.5,70.9L253.6,71.3L247.1,70.6L240.2,73.2L235.4,72.6L233.2,71.5L230.8,67.3L227.2,66.9L227.1,65.3L228.4,63.2L226.7,61.6L220.3,60.1L220.8,47.5L224.7,42.6L227.3,40.8L229.5,38.0L229.9,33.8L227.8,30.0L229.8,26.4L233.7,25.6L238.3,26.5L243.0,26.2L245.2,24.9L246.9,21.3L246.6,19.4L243.5,15.1L247.3,12.0L246.8,11.8Z " data-id="LT.TL" data-name="Telšiai" id="LT.TL"/>
utf-8</g>
</svg>
