<?xml version="1.0" ?>
<!DOCTYPE svg
  PUBLIC '-//W3C//DTD SVG 1.1//EN'
  'http://www.w3.org/Graphics/SVG/1.1/DTD/svg11.dtd'>
<svg enable_background="new 0 0 1000 1173" height="1173px" pretty_print="True" style="stroke-linejoin: round; stroke:#000; fill: none;" version="1.1" viewBox="0 0 1000 1173" width="1000px" xmlns="http://www.w3.org/2000/svg" xmlns:xlink="http://www.w3.org/1999/xlink">
utf-8<defs>
utf-8utf-8<style type="text/css">
<![CDATA[path { fill-rule: evenodd; }]]>utf-8utf-8</style>
utf-8</defs>
utf-8<metadata>
utf-8utf-8<views>
utf-8utf-8utf-8<view h="1173.60885482" padding="0" w="1000">
utf-8utf-8utf-8utf-8<proj flip="auto" id="robinson" lon0="5.97373215453"/>
utf-8utf-8utf-8utf-8<bbox h="11.96" w="10.2" x="73.53" y="-838.03"/>
utf-8utf-8utf-8</view>
utf-8utf-8</views>
utf-8</metadata>
utf-8<g class="" id="provinces">
utf-8utf-8<path d="M187.9,748.7L212.3,742.0L266.7,740.5L285.8,736.1L317.1,723.5L360.4,711.8L359.4,694.9L360.6,677.4L364.6,660.1L364.6,637.5L366.8,628.1L382.0,613.6L387.9,602.4L400.6,588.1L403.4,577.4L405.9,570.8L417.2,559.1L438.1,550.9L450.2,550.7L464.9,553.3L483.5,563.2L495.0,567.7L506.8,570.1L548.8,560.5L561.3,560.1L596.2,567.2L608.1,578.4L634.8,598.3L675.4,613.3L699.0,578.7L699.8,573.1L699.7,566.2L692.9,562.8L688.7,560.0L685.8,553.3L687.9,545.8L694.8,532.6L701.9,526.4L711.1,523.0L734.4,520.6L728.9,509.5L722.6,500.7L703.9,491.0L660.6,475.4L640.4,459.1L596.1,377.4L573.5,348.8L560.7,370.7L550.2,356.8L529.6,311.9L506.9,284.9L501.0,271.9L503.9,254.2L495.0,220.9L486.3,207.8L472.4,201.4L483.5,182.8L488.0,177.6L485.1,177.3L477.6,177.8L475.4,176.7L481.8,131.9L487.2,109.9L495.1,86.9L476.1,80.0L472.8,67.4L473.7,52.4L467.8,37.7L451.1,24.9L441.4,26.0L433.5,33.1L422.8,38.6L394.3,42.3L380.1,40.7L363.2,34.1L355.2,22.4L350.5,7.2L342.2,0.0L323.2,12.6L296.5,14.9L286.3,29.6L281.9,51.5L272.6,74.4L254.4,90.3L208.2,109.0L187.9,124.4L183.6,134.6L182.0,160.4L179.2,171.3L171.9,180.4L153.9,193.4L146.7,203.3L148.7,221.7L149.2,236.7L146.5,249.4L137.6,257.3L112.4,266.5L104.9,275.0L104.2,297.0L113.3,305.9L118.7,314.7L105.6,336.7L95.4,344.7L76.9,348.2L68.2,353.1L58.6,363.8L54.2,372.1L51.5,380.2L46.7,390.4L5.0,452.3L0.4,467.5L15.5,473.3L43.9,490.7L56.1,505.3L22.9,502.5L23.3,511.7L21.7,516.5L19.4,520.2L17.4,526.0L29.8,535.2L15.1,543.5L9.9,558.7L12.4,577.8L20.7,597.8L34.6,616.0L47.5,621.1L61.1,623.0L77.4,631.1L86.1,641.3L117.4,689.5L119.6,697.0L123.0,719.3L122.6,723.0L130.9,728.4L148.6,732.7L156.3,736.2L163.4,737.3L171.4,735.0L179.6,735.5L187.2,745.0L187.9,748.7Z " data-id="LU.DI" data-name="Diekirch" id="LU.DI"/>
utf-8utf-8<path d="M734.4,520.6L711.1,523.0L701.9,526.4L694.8,532.6L687.9,545.8L685.8,553.3L688.7,560.0L692.9,562.8L699.7,566.2L699.8,573.1L699.0,578.7L675.4,613.3L696.1,631.6L702.3,634.8L709.5,641.2L712.2,646.0L698.8,683.4L680.0,684.0L671.2,682.7L655.4,691.0L645.3,699.0L590.5,773.9L687.1,775.9L704.5,779.9L721.9,789.5L731.4,799.0L744.8,841.1L767.5,874.3L741.7,892.4L736.7,897.6L734.4,903.2L739.5,909.0L746.5,914.2L753.2,920.3L755.6,928.0L752.8,937.7L730.0,941.9L720.6,946.0L681.1,978.5L672.7,992.0L674.6,1013.7L691.9,1067.9L697.9,1094.6L759.4,1131.8L793.6,1147.0L818.9,1149.2L818.6,1137.4L813.0,1088.9L821.4,1021.9L819.6,971.2L826.2,953.6L844.4,929.0L876.2,895.6L888.2,874.0L897.3,862.4L900.5,855.2L898.9,844.6L891.0,838.4L882.8,833.9L880.4,828.6L899.1,806.1L990.2,756.7L987.6,753.2L978.7,745.0L982.7,737.3L988.5,734.9L999.6,738.4L990.2,728.5L983.8,717.0L980.5,704.0L980.9,689.7L992.8,680.9L993.1,674.7L989.5,667.6L989.2,656.3L994.0,621.5L995.8,620.5L995.4,607.0L991.5,599.1L986.5,598.8L947.3,589.4L886.8,589.4L864.6,584.5L842.8,573.3L805.6,545.0L783.8,534.0L772.8,533.7L754.2,543.1L744.0,542.4L742.5,537.0L734.4,520.6Z " data-id="LU.GR" data-name="Grevenmacher" id="LU.GR"/>
utf-8utf-8<path d="M697.9,1094.6L691.9,1067.9L674.6,1013.7L672.7,992.0L681.1,978.5L720.6,946.0L730.0,941.9L752.8,937.7L755.6,928.0L753.2,920.3L746.5,914.2L739.5,909.0L734.4,903.2L736.7,897.6L741.7,892.4L767.5,874.3L744.8,841.1L731.4,799.0L721.9,789.5L704.5,779.9L687.1,775.9L590.5,773.9L645.3,699.0L655.4,691.0L671.2,682.7L680.0,684.0L698.8,683.4L712.2,646.0L709.5,641.2L702.3,634.8L696.1,631.6L675.4,613.3L634.8,598.3L608.1,578.4L596.2,567.2L561.3,560.1L548.8,560.5L506.8,570.1L495.0,567.7L483.5,563.2L464.9,553.3L450.2,550.7L438.1,550.9L417.2,559.1L405.9,570.8L403.4,577.4L400.6,588.1L387.9,602.4L382.0,613.6L366.8,628.1L364.6,637.5L364.6,660.1L360.6,677.4L359.4,694.9L360.4,711.8L317.1,723.5L285.8,736.1L266.7,740.5L212.3,742.0L187.9,748.7L189.3,757.3L184.8,763.9L178.9,769.6L177.2,778.4L176.9,788.8L173.3,793.9L171.6,799.6L176.4,811.4L185.2,816.7L210.6,819.1L220.0,825.5L227.7,848.2L221.1,862.1L208.9,871.7L199.2,881.4L184.2,918.3L174.6,934.3L160.7,945.4L182.5,955.0L171.2,980.0L143.1,1005.5L113.4,1017.3L154.5,1060.9L177.1,1077.9L209.2,1090.2L314.4,1125.8L333.3,1171.6L355.0,1165.6L462.7,1160.2L481.0,1154.5L492.8,1139.1L508.0,1134.3L510.5,1125.7L510.1,1115.5L516.4,1105.7L525.3,1102.7L560.9,1100.0L552.2,1085.3L624.6,1078.7L660.7,1081.8L695.7,1093.2L697.9,1094.6Z " data-id="LU.LU" data-name="Luxembourg" id="LU.LU"/>
utf-8</g>
</svg>
