<?xml version="1.0" ?>
<!DOCTYPE svg
  PUBLIC '-//W3C//DTD SVG 1.1//EN'
  'http://www.w3.org/Graphics/SVG/1.1/DTD/svg11.dtd'>
<svg enable_background="new 0 0 1000 991" height="991px" pretty_print="True" style="stroke-linejoin: round; stroke:#000; fill: none;" version="1.1" viewBox="0 0 1000 991" width="1000px" xmlns="http://www.w3.org/2000/svg" xmlns:xlink="http://www.w3.org/1999/xlink">
utf-8<defs>
utf-8utf-8<style type="text/css">
<![CDATA[path { fill-rule: evenodd; }]]>utf-8utf-8</style>
utf-8</defs>
utf-8<metadata>
utf-8utf-8<views>
utf-8utf-8utf-8<view h="991.805991668" padding="0" w="1000">
utf-8utf-8utf-8utf-8<proj flip="auto" id="robinson" lon0="10.7837105874"/>
utf-8utf-8utf-8utf-8<bbox h="229.3" w="231.43" x="132.01" y="-556.23"/>
utf-8utf-8utf-8</view>
utf-8utf-8</views>
utf-8</metadata>
utf-8<g class="" id="provinces">
utf-8utf-8<path d="M143.3,63.3L139.7,62.1L136.6,58.7L132.4,55.2L131.7,55.9L127.5,58.8L93.3,75.5L91.7,77.3L89.4,83.0L83.3,88.1L82.2,88.4L78.8,87.2L77.4,88.7L77.1,94.5L76.4,96.9L73.9,99.3L72.9,101.8L70.4,104.6L67.1,105.9L60.2,105.8L57.2,108.4L53.3,115.7L49.5,120.1L48.6,121.8L48.2,127.8L53.2,140.1L55.3,147.7L57.3,151.8L57.5,158.5L59.2,163.5L59.3,165.9L58.4,168.8L54.8,176.8L49.4,183.3L43.3,193.9L35.9,203.9L34.4,204.8L28.1,205.6L14.6,213.0L0.5,221.1L2.0,223.4L9.1,231.8L17.2,243.8L24.8,257.8L35.5,292.5L37.1,303.5L37.6,317.2L36.4,329.3L42.3,326.5L55.4,322.2L61.2,324.5L70.2,329.7L74.3,328.9L90.4,321.3L99.2,314.2L102.7,313.0L104.6,317.1L105.7,322.4L109.7,327.7L117.7,329.0L120.6,331.2L128.8,334.7L132.8,334.6L139.1,330.4L145.0,331.4L147.2,331.3L153.4,329.9L157.5,334.2L164.3,335.8L167.4,331.2L167.5,331.0L165.2,317.9L163.5,311.9L157.8,304.0L152.7,295.5L152.1,275.3L149.2,259.9L146.2,243.2L143.9,227.2L142.9,212.4L142.8,199.7L140.9,190.4L141.3,186.4L144.3,182.9L149.1,174.7L156.9,162.4L162.4,151.6L161.3,151.2L158.0,145.4L155.3,139.6L154.0,133.2L154.3,124.1L153.3,116.9L153.2,108.4L154.1,101.1L151.6,88.1L152.3,79.0L153.5,71.7L153.2,63.2L143.3,63.3Z " data-id="LY.GD" data-name="Ghadamis" id="LY.GD"/>
utf-8utf-8<path d="M437.4,270.2L422.7,265.6L416.9,267.7L411.1,271.1L407.3,274.5L398.7,273.3L393.8,268.0L389.6,261.3L387.5,259.3L383.4,257.3L376.2,257.4L370.8,255.5L364.9,254.2L355.5,251.0L350.6,245.7L345.7,241.1L342.9,239.5L341.1,243.3L337.6,248.5L336.2,252.4L336.5,257.8L337.8,262.9L338.2,268.7L337.9,272.5L335.6,276.0L330.8,279.1L323.3,285.0L318.0,286.6L318.0,293.8L317.8,302.6L319.0,310.5L322.1,316.3L325.9,322.0L334.3,329.1L345.7,336.4L353.3,344.6L355.7,352.7L356.0,358.3L357.6,363.6L364.2,364.7L371.9,363.9L379.9,359.1L387.6,358.3L392.8,358.5L405.4,362.8L411.0,368.4L412.1,374.4L410.9,380.2L406.8,392.7L406.8,394.3L406.8,396.4L417.8,412.7L422.0,424.3L424.5,426.8L428.7,429.2L432.7,433.1L436.9,435.5L438.5,440.5L438.5,441.1L438.1,446.3L438.2,451.6L439.0,457.7L441.9,461.5L454.3,468.1L457.9,473.2L457.7,480.7L461.3,488.1L468.1,495.3L473.0,498.3L478.0,502.0L481.8,507.1L502.0,511.7L511.2,515.2L516.3,512.9L520.7,509.9L528.8,509.1L533.7,507.6L541.6,501.4L544.3,497.7L550.9,494.0L559.6,491.7L566.9,495.1L572.9,502.0L579.5,508.1L585.7,508.9L592.9,510.7L602.7,512.8L611.2,515.0L617.8,517.4L620.4,518.7L619.0,482.1L617.6,445.6L613.4,348.9L603.0,348.2L603.0,348.0L585.1,342.5L571.4,337.7L571.4,339.0L564.3,336.6L554.3,333.9L545.6,327.8L538.7,321.0L535.7,310.9L532.8,302.8L527.2,296.1L521.7,290.0L518.8,283.3L517.3,277.9L511.8,273.2L507.2,273.2L502.7,275.9L497.1,281.3L491.0,279.3L481.7,276.7L474.9,270.6L467.0,270.0L460.5,272.7L448.7,273.5L441.4,271.5L440.4,272.2L437.4,270.2Z " data-id="LY.JU" data-name="Al Jufrah" id="LY.JU"/>
utf-8utf-8<path d="M977.2,442.9L932.7,444.1L860.4,445.4L788.0,446.0L713.7,444.9L659.6,445.4L638.6,445.5L617.6,445.6L619.0,482.1L620.4,518.7L622.0,554.7L624.9,626.8L628.8,734.7L630.1,770.7L631.7,818.4L638.2,822.1L716.9,866.2L858.9,945.7L938.0,989.8L936.8,953.7L975.6,953.7L999.5,953.2L998.2,917.1L994.5,818.0L992.4,766.7L988.9,682.2L988.0,661.1L985.1,597.7L984.1,576.5L981.0,513.1L978.0,456.7L977.2,442.9Z " data-id="LY.KF" data-name="Al Kufrah" id="LY.KF"/>
utf-8utf-8<path d="M327.1,52.8L321.2,49.6L310.0,47.4L307.1,44.4L301.6,39.8L298.2,37.7L295.9,35.5L281.4,31.6L279.2,30.6L275.4,34.0L270.9,39.2L270.7,40.5L264.4,41.2L256.6,44.9L249.3,47.2L246.5,53.9L245.6,57.7L243.6,59.1L236.7,61.3L237.7,62.4L240.8,65.8L244.9,70.8L246.9,77.4L247.4,81.7L251.1,81.6L260.7,81.9L264.4,81.3L270.4,79.5L273.8,78.1L277.8,78.0L281.7,79.8L283.5,80.0L288.0,79.1L291.3,75.1L301.5,82.0L306.6,87.0L313.1,89.3L325.0,87.7L325.7,81.3L327.5,75.4L329.7,72.4L329.7,68.1L327.9,64.2L327.2,60.4L328.9,52.9L327.1,52.8Z " data-id="LY.MB" data-name="Al Marqab" id="LY.MB"/>
utf-8utf-8<path d="M318.0,282.6L314.6,278.5L309.3,272.8L302.6,268.0L294.5,264.0L290.8,261.8L285.7,260.7L280.5,262.3L270.6,271.3L262.3,282.5L259.6,288.7L256.7,294.0L253.1,299.2L249.8,305.0L244.3,313.1L238.2,320.6L231.4,324.4L222.8,330.0L219.2,333.3L217.4,338.4L213.2,342.9L207.1,343.2L201.6,340.4L200.9,334.8L197.1,334.0L187.6,333.2L180.1,330.0L177.1,329.6L169.3,327.2L167.5,331.0L167.4,331.2L164.3,335.8L157.5,334.2L153.4,329.9L147.2,331.3L145.0,331.4L139.1,330.4L132.8,334.6L128.8,334.7L120.6,331.2L117.7,329.0L109.7,327.7L105.7,322.4L104.6,317.1L102.7,313.0L99.2,314.2L90.4,321.3L74.3,328.9L70.2,329.7L61.2,324.5L55.4,322.2L42.3,326.5L36.4,329.3L34.0,354.7L34.9,358.9L44.5,383.7L44.4,386.6L44.2,387.2L53.5,392.7L65.6,398.2L89.6,405.2L104.1,408.0L112.1,411.1L117.6,414.9L121.3,422.9L123.6,439.8L128.3,464.7L132.6,483.6L135.1,493.1L136.3,503.2L144.5,497.4L158.9,487.4L193.3,461.6L221.3,438.3L235.8,428.4L246.8,425.3L256.6,427.1L273.9,432.8L296.2,437.2L316.7,434.8L323.2,434.0L326.9,430.5L329.3,426.4L335.0,422.2L349.0,413.2L353.1,404.9L362.1,400.7L379.6,398.4L383.5,396.3L392.4,392.8L406.8,394.3L406.8,392.7L410.9,380.2L412.1,374.4L411.0,368.4L405.4,362.8L392.8,358.5L387.6,358.3L379.9,359.1L371.9,363.9L364.2,364.7L357.6,363.6L356.0,358.3L355.7,352.7L353.3,344.6L345.7,336.4L334.3,329.1L325.9,322.0L322.1,316.3L319.0,310.5L317.8,302.6L318.0,293.8L318.0,286.6L318.0,282.6Z " data-id="LY.SH" data-name="Ash Shati'" id="LY.SH"/>
utf-8utf-8<path d="M135.1,493.1L132.6,483.6L128.3,464.7L123.6,439.8L121.3,422.9L117.6,414.9L112.1,411.1L104.1,408.0L89.6,405.2L65.6,398.2L53.5,392.7L44.2,387.2L40.4,401.7L36.2,405.2L38.0,409.9L37.5,411.3L34.1,415.9L32.1,425.4L37.8,444.7L39.2,452.3L44.6,457.9L43.2,465.6L43.0,468.1L44.0,471.7L41.6,481.0L40.4,482.4L18.8,493.4L18.0,497.2L15.9,499.3L12.5,506.7L14.1,510.8L50.4,562.8L52.9,567.4L53.8,572.0L55.0,601.8L55.8,603.8L65.2,609.5L66.4,611.5L67.6,618.2L69.6,622.1L77.9,629.1L81.6,629.3L95.6,623.7L98.3,623.9L125.2,633.3L145.1,640.2L145.8,630.3L144.0,620.8L136.1,606.2L135.9,577.5L135.1,563.2L139.0,551.5L134.8,545.2L132.7,537.1L133.2,523.2L135.2,512.5L136.3,503.2L135.1,493.1Z " data-id="LY.GT" data-name="Ghat" id="LY.GT"/>
utf-8utf-8<path d="M617.8,517.4L611.2,515.0L602.7,512.8L592.9,510.7L585.7,508.9L579.5,508.1L572.9,502.0L566.9,495.1L559.6,491.7L550.9,494.0L544.3,497.7L541.6,501.4L533.7,507.6L528.8,509.1L520.7,509.9L516.3,512.9L511.2,515.2L502.0,511.7L481.8,507.1L478.0,502.0L473.0,498.3L468.1,495.3L461.3,488.1L457.7,480.7L457.9,473.2L454.3,468.1L441.9,461.5L439.0,457.7L438.2,451.6L438.1,446.3L438.5,441.1L406.7,450.3L400.2,451.7L388.6,453.9L376.9,455.4L358.3,460.5L349.3,464.0L338.2,476.5L332.0,484.1L325.2,491.7L314.4,496.7L307.4,499.6L295.1,501.2L295.1,501.1L278.8,507.4L267.3,510.4L262.9,514.6L256.8,523.0L250.6,527.9L235.7,529.0L219.8,535.0L214.8,539.2L207.1,540.1L198.6,538.4L186.2,549.7L179.1,550.6L167.5,551.7L162.3,549.9L150.9,544.2L139.0,551.5L135.1,563.2L135.9,577.5L136.1,606.2L144.0,620.8L145.8,630.3L145.1,640.2L147.7,641.1L149.8,642.3L151.4,644.5L177.6,698.8L272.6,723.2L280.0,727.6L315.6,760.8L319.4,764.0L320.4,763.9L366.4,736.6L427.1,704.2L428.4,704.1L520.4,755.9L567.5,782.4L630.3,817.7L631.7,818.4L630.1,770.7L628.8,734.7L624.9,626.8L622.0,554.7L620.4,518.7L617.8,517.4Z " data-id="LY.MQ" data-name="Murzuq" id="LY.MQ"/>
utf-8utf-8<path d="M411.4,137.6L393.7,129.5L389.0,125.9L384.9,121.6L377.8,112.1L376.3,109.5L368.1,90.4L367.4,87.8L366.8,78.0L367.3,75.4L366.9,72.7L364.2,69.2L361.4,62.5L358.3,60.3L355.9,57.2L350.9,55.6L338.4,53.3L328.9,52.9L327.2,60.4L327.9,64.2L329.7,68.1L329.7,72.4L327.5,75.4L325.7,81.3L325.0,87.7L313.1,89.3L306.6,87.0L301.5,82.0L291.3,75.1L288.0,79.1L283.5,80.0L281.7,79.8L277.8,78.0L273.8,78.1L270.4,79.5L264.4,81.3L260.7,81.9L251.1,81.6L247.4,81.7L251.0,88.2L253.7,98.8L257.9,106.6L261.0,113.1L263.3,120.8L266.9,125.8L274.0,134.2L282.5,139.9L291.2,155.1L301.0,177.5L310.1,182.4L316.0,184.9L322.9,189.8L336.6,193.6L347.2,200.0L348.9,210.9L350.0,220.0L350.1,228.3L347.4,233.8L343.5,238.1L342.9,239.5L345.7,241.1L350.6,245.7L355.5,251.0L364.9,254.2L370.8,255.5L376.2,257.4L383.4,257.3L387.5,259.3L389.6,261.3L393.8,268.0L398.7,273.3L407.3,274.5L411.1,271.1L416.9,267.7L422.7,265.6L437.4,270.2L440.4,272.2L445.6,263.4L446.6,256.0L444.2,246.6L441.7,235.2L435.7,220.5L430.4,207.2L427.8,193.8L424.4,179.8L416.5,153.9L415.9,141.9L417.1,138.6L411.4,137.6Z " data-id="LY.MI" data-name="Misratah" id="LY.MI"/>
utf-8utf-8<path d="M392.4,392.8L383.5,396.3L379.6,398.4L362.1,400.7L353.1,404.9L349.0,413.2L335.0,422.2L329.3,426.4L326.9,430.5L323.2,434.0L316.7,434.8L296.2,437.2L298.7,440.0L300.3,447.4L300.2,456.9L303.0,462.3L306.5,466.3L307.3,470.3L303.8,478.6L297.0,485.5L294.7,493.7L295.1,501.1L295.1,501.2L307.4,499.6L314.4,496.7L325.2,491.7L332.0,484.1L338.2,476.5L349.3,464.0L358.3,460.5L376.9,455.4L388.6,453.9L400.2,451.7L406.7,450.3L438.5,441.1L438.5,440.5L436.9,435.5L432.7,433.1L428.7,429.2L424.5,426.8L422.0,424.3L417.8,412.7L406.8,396.4L406.8,394.3L392.4,392.8Z " data-id="LY.SB" data-name="Sabha" id="LY.SB"/>
utf-8utf-8<path d="M233.6,57.2L233.6,52.1L232.3,44.4L231.4,38.5L225.9,33.3L225.7,33.7L219.5,37.1L215.5,44.9L211.4,56.0L212.0,61.0L211.6,66.6L220.2,65.3L225.6,65.2L231.9,64.2L234.0,62.8L237.7,62.4L236.7,61.3L233.6,57.2Z " data-id="LY.JI" data-name="Al Jifarah" id="LY.JI"/>
utf-8utf-8<path d="M132.4,55.2L136.6,58.7L139.7,62.1L143.3,63.3L153.2,63.2L167.3,59.8L168.7,56.0L178.5,51.1L181.4,47.0L188.9,42.0L191.1,37.9L193.9,27.6L195.0,26.7L181.3,25.2L178.6,24.5L173.7,22.1L169.7,19.5L167.3,18.8L164.7,16.2L150.1,7.1L143.5,4.9L140.5,3.3L141.6,4.6L145.6,5.9L144.6,6.4L137.2,5.2L130.4,0.3L129.3,3.2L127.8,10.1L127.8,15.3L126.9,20.2L127.6,27.7L127.0,35.3L127.2,39.3L128.5,42.1L132.7,46.1L134.2,48.7L134.6,51.8L133.6,54.0L132.4,55.2Z " data-id="LY.NQ" data-name="An Nuqat al Khams" id="LY.NQ"/>
utf-8utf-8<path d="M227.8,28.8L227.2,23.0L227.0,22.0L225.3,22.8L210.3,27.3L204.6,27.7L195.0,26.7L193.9,27.6L191.1,37.9L188.9,42.0L181.4,47.0L178.5,51.1L168.7,56.0L167.3,59.8L153.2,63.2L170.3,63.7L179.4,63.9L186.0,63.4L191.5,65.7L201.3,68.6L206.5,67.3L211.6,66.6L212.0,61.0L211.4,56.0L215.5,44.9L219.5,37.1L225.7,33.7L225.9,33.3L227.8,28.8Z " data-id="LY.ZA" data-name="Az Zawiyah" id="LY.ZA"/>
utf-8utf-8<path d="M246.9,77.4L244.9,70.8L240.8,65.8L237.7,62.4L234.0,62.8L231.9,64.2L225.6,65.2L220.2,65.3L211.6,66.6L206.5,67.3L201.3,68.6L191.5,65.7L186.0,63.4L179.4,63.9L170.3,63.7L153.2,63.2L153.5,71.7L152.3,79.0L151.6,88.1L154.1,101.1L153.2,108.4L153.3,116.9L154.3,124.1L154.0,133.2L155.3,139.6L158.0,145.4L161.3,151.2L162.4,151.6L156.9,162.4L149.1,174.7L144.3,182.9L141.3,186.4L140.9,190.4L142.8,199.7L142.9,212.4L143.9,227.2L146.2,243.2L149.2,259.9L152.1,275.3L152.7,295.5L157.8,304.0L163.5,311.9L165.2,317.9L167.5,331.0L169.3,327.2L177.1,329.6L180.1,330.0L187.6,333.2L197.1,334.0L200.9,334.8L201.6,340.4L207.1,343.2L213.2,342.9L217.4,338.4L219.2,333.3L222.8,330.0L231.4,324.4L238.2,320.6L244.3,313.1L249.8,305.0L253.1,299.2L256.7,294.0L259.6,288.7L262.3,282.5L270.6,271.3L280.5,262.3L285.7,260.7L290.8,261.8L294.5,264.0L302.6,268.0L309.3,272.8L314.6,278.5L318.0,282.6L318.0,286.6L323.3,285.0L330.8,279.1L335.6,276.0L337.9,272.5L338.2,268.7L337.8,262.9L336.5,257.8L336.2,252.4L337.6,248.5L341.1,243.3L342.9,239.5L343.5,238.1L347.4,233.8L350.1,228.3L350.0,220.0L348.9,210.9L347.2,200.0L336.6,193.6L322.9,189.8L316.0,184.9L310.1,182.4L301.0,177.5L291.2,155.1L282.5,139.9L274.0,134.2L266.9,125.8L263.3,120.8L261.0,113.1L257.9,106.6L253.7,98.8L251.0,88.2L247.4,81.7L246.9,77.4Z " data-id="LY.MZ" data-name="Mizdah" id="LY.MZ"/>
utf-8utf-8<path d="M276.7,29.6L268.9,27.6L258.5,28.1L255.7,27.4L243.4,20.9L236.3,19.0L232.1,19.2L227.8,21.6L227.0,22.0L227.2,23.0L227.8,28.8L225.9,33.3L231.4,38.5L232.3,44.4L233.6,52.1L233.6,57.2L236.7,61.3L243.6,59.1L245.6,57.7L246.5,53.9L249.3,47.2L256.6,44.9L264.4,41.2L270.7,40.5L270.9,39.2L275.4,34.0L279.2,30.6L276.7,29.6Z " data-id="LY.TN" data-name="Tajura' wa an Nawahi al Arba" id="LY.TN"/>
utf-8utf-8<path d="M727.6,29.4L724.9,29.7L713.3,29.0L710.6,29.6L703.7,33.2L695.7,38.9L682.7,44.7L682.9,45.8L682.5,53.8L680.1,58.4L675.0,63.3L670.9,69.5L668.6,77.5L668.8,82.8L671.8,90.5L676.1,98.5L679.6,104.2L682.6,111.9L685.4,115.6L693.7,117.1L698.6,114.9L703.2,114.6L711.3,115.8L718.5,115.3L721.8,114.4L726.3,118.4L727.2,124.4L728.7,131.8L731.9,137.5L734.9,154.9L739.7,155.1L755.4,154.3L759.1,152.7L757.8,137.1L755.7,135.4L753.9,132.0L751.0,123.3L750.7,115.0L752.8,108.7L752.9,101.8L751.8,92.1L749.6,85.4L742.8,80.3L738.6,75.8L736.0,68.8L731.7,61.8L729.5,54.4L728.9,48.4L732.1,44.2L736.2,39.6L735.7,35.0L731.5,29.9L729.1,29.0L727.6,29.4Z " data-id="LY.HZ" data-name="Al Marj" id="LY.HZ"/>
utf-8utf-8<path d="M760.2,20.1L751.9,18.1L750.2,16.7L743.7,18.1L734.9,26.7L732.6,28.1L729.1,29.0L731.5,29.9L735.7,35.0L736.2,39.6L732.1,44.2L728.9,48.4L729.5,54.4L731.7,61.8L736.0,68.8L738.6,75.8L742.8,80.3L749.6,85.4L751.8,92.1L752.9,101.8L752.8,108.7L750.7,115.0L751.0,123.3L753.9,132.0L755.7,135.4L757.8,137.1L759.1,152.7L763.6,150.7L774.5,149.7L783.0,148.8L770.4,137.1L772.6,124.2L771.8,112.5L773.0,108.6L773.1,100.6L772.5,93.3L772.0,81.7L770.1,75.0L769.6,68.6L768.0,62.3L768.9,60.0L769.4,54.7L770.9,49.4L771.4,45.5L770.5,40.1L768.4,36.1L766.5,30.7L766.7,19.4L760.2,20.1Z " data-id="LY.JA" data-name="Al Jabal al Akhdar" id="LY.JA"/>
utf-8utf-8<path d="M711.3,154.1L699.4,156.4L690.6,156.9L686.2,155.6L679.5,151.1L671.6,140.7L664.8,138.5L661.4,138.6L662.0,141.3L662.4,141.8L663.3,151.1L663.1,154.1L660.7,162.1L657.3,170.5L652.8,175.5L650.4,180.3L640.9,192.7L633.1,199.1L628.0,200.9L621.4,205.5L616.6,208.0L610.6,209.8L604.9,210.4L599.4,210.3L593.9,209.5L591.3,208.4L582.7,202.8L581.6,215.4L580.2,229.5L580.0,241.5L581.8,253.6L580.2,264.4L573.4,275.1L570.0,289.8L570.2,310.7L571.4,337.7L585.1,342.5L603.0,348.0L603.0,348.2L613.4,348.9L617.6,445.6L638.6,445.5L659.6,445.4L713.7,444.9L788.0,446.0L860.4,445.4L932.7,444.1L977.2,442.9L976.9,436.5L975.5,412.1L973.2,372.7L972.8,367.1L971.6,366.8L854.2,364.0L851.4,316.4L848.5,268.9L845.6,221.4L842.4,174.0L837.0,171.9L836.9,171.9L832.0,172.3L826.0,172.4L819.7,170.6L815.4,169.7L808.5,165.1L804.6,158.0L791.8,147.0L783.0,148.8L774.5,149.7L763.6,150.7L759.1,152.7L755.4,154.3L739.7,155.1L734.9,154.9L711.3,154.1Z " data-id="LY.AJ" data-name="Ajdabiya" id="LY.AJ"/>
utf-8utf-8<path d="M731.9,137.5L728.7,131.8L727.2,124.4L726.3,118.4L721.8,114.4L718.5,115.3L711.3,115.8L703.2,114.6L698.6,114.9L693.7,117.1L685.4,115.6L682.6,111.9L679.6,104.2L676.1,98.5L671.8,90.5L668.8,82.8L668.6,77.5L670.9,69.5L675.0,63.3L680.1,58.4L682.5,53.8L682.9,45.8L682.7,44.7L681.9,45.1L673.4,52.2L668.1,55.8L664.5,60.8L653.7,72.6L652.4,74.8L647.5,86.6L646.6,93.4L646.0,99.4L646.5,105.7L648.4,110.9L649.2,117.1L654.0,128.8L659.3,135.2L661.1,139.9L662.0,141.3L661.4,138.6L664.8,138.5L671.6,140.7L679.5,151.1L686.2,155.6L690.6,156.9L699.4,156.4L711.3,154.1L734.9,154.9L731.9,137.5Z " data-id="LY.BA" data-name="Benghazi" id="LY.BA"/>
utf-8utf-8<path d="M582.1,202.4L578.3,201.3L574.1,199.1L568.6,193.5L553.1,182.2L547.3,175.7L543.5,172.8L533.6,169.1L528.0,167.9L523.0,162.9L518.5,162.1L513.2,160.3L508.4,158.0L498.0,154.6L496.2,152.9L492.8,151.2L490.7,151.2L480.2,148.9L466.6,144.2L453.4,141.3L430.8,141.1L417.1,138.6L415.9,141.9L416.5,153.9L424.4,179.8L427.8,193.8L430.4,207.2L435.7,220.5L441.7,235.2L444.2,246.6L446.6,256.0L445.6,263.4L440.4,272.2L441.4,271.5L448.7,273.5L460.5,272.7L467.0,270.0L474.9,270.6L481.7,276.7L491.0,279.3L497.1,281.3L502.7,275.9L507.2,273.2L511.8,273.2L517.3,277.9L518.8,283.3L521.7,290.0L527.2,296.1L532.8,302.8L535.7,310.9L538.7,321.0L545.6,327.8L554.3,333.9L564.3,336.6L571.4,339.0L571.4,337.7L570.2,310.7L570.0,289.8L573.4,275.1L580.2,264.4L581.8,253.6L580.0,241.5L580.2,229.5L581.6,215.4L582.7,202.8L582.1,202.4Z " data-id="LY.SR" data-name="Surt" id="LY.SR"/>
utf-8utf-8<path d="M846.7,69.4L845.8,67.3L842.4,63.7L841.0,63.4L836.0,59.8L836.5,53.8L838.8,56.8L839.6,50.8L836.7,48.1L835.8,43.7L837.2,40.9L835.0,38.7L832.2,38.2L821.4,35.2L817.9,33.0L803.4,28.7L800.6,28.5L797.1,27.1L790.8,22.5L788.4,21.6L782.8,21.7L780.3,21.2L778.2,19.2L777.2,17.2L774.5,17.2L773.4,18.7L766.7,19.4L766.5,30.7L768.4,36.1L770.5,40.1L771.4,45.5L770.9,49.4L769.4,54.7L768.9,60.0L768.0,62.3L769.6,68.6L770.1,75.0L772.0,81.7L772.5,93.3L773.1,100.6L773.0,108.6L771.8,112.5L772.6,124.2L770.4,137.1L783.0,148.8L791.8,147.0L804.6,158.0L808.5,165.1L815.4,169.7L819.7,170.6L826.0,172.4L832.0,172.3L836.9,171.9L835.9,157.0L834.8,151.6L834.1,140.6L835.0,128.3L839.8,120.5L841.1,109.3L841.0,96.3L843.3,85.1L845.6,76.5L847.2,69.7L846.7,69.4Z " data-id="LY.QB" data-name="Al Qubbah" id="LY.QB"/>
utf-8utf-8<path d="M847.2,69.7L845.6,76.5L843.3,85.1L841.0,96.3L841.1,109.3L839.8,120.5L835.0,128.3L834.1,140.6L834.8,151.6L835.9,157.0L836.9,171.9L837.0,171.9L842.4,174.0L845.6,221.4L848.5,268.9L851.4,316.4L854.2,364.0L971.6,366.8L972.8,367.1L971.1,338.5L968.0,288.6L967.3,284.5L965.9,280.6L960.0,267.9L957.9,252.7L954.4,247.2L953.8,244.2L954.2,237.4L948.0,223.9L945.2,216.3L951.2,203.5L952.9,201.6L956.1,196.0L959.1,184.7L960.8,175.4L961.0,172.9L960.0,170.0L956.9,164.2L955.8,160.5L950.9,146.9L949.8,130.0L959.1,121.8L960.9,115.7L962.4,113.2L966.3,109.6L963.5,104.2L959.9,99.5L957.6,97.1L957.4,91.4L956.3,89.0L954.0,87.7L946.8,86.1L940.1,83.9L938.5,83.0L934.7,83.0L932.7,84.3L927.3,86.0L911.0,84.8L899.5,84.9L898.0,84.5L892.1,80.0L893.4,78.6L883.5,74.6L872.9,72.1L864.4,72.3L856.7,71.6L854.0,69.7L850.1,69.2L849.9,71.5L847.6,69.9L847.2,69.7Z " data-id="LY.BU" data-name="Al Butnan" id="LY.BU"/>
utf-8utf-8<path d="M273.9,432.8L256.6,427.1L246.8,425.3L235.8,428.4L221.3,438.3L193.3,461.6L158.9,487.4L144.5,497.4L136.3,503.2L135.2,512.5L133.2,523.2L132.7,537.1L134.8,545.2L139.0,551.5L150.9,544.2L162.3,549.9L167.5,551.7L179.1,550.6L186.2,549.7L198.6,538.4L207.1,540.1L214.8,539.2L219.8,535.0L235.7,529.0L250.6,527.9L256.8,523.0L262.9,514.6L267.3,510.4L278.8,507.4L295.1,501.1L294.7,493.7L297.0,485.5L303.8,478.6L307.3,470.3L306.5,466.3L303.0,462.3L300.2,456.9L300.3,447.4L298.7,440.0L296.2,437.2L273.9,432.8Z " data-id="LY.GT" data-name="Wadi al Hayaa" id="LY.GT"/>
utf-8</g>
</svg>
