<?xml version="1.0" ?>
<!DOCTYPE svg
  PUBLIC '-//W3C//DTD SVG 1.1//EN'
  'http://www.w3.org/Graphics/SVG/1.1/DTD/svg11.dtd'>
<svg enable_background="new 0 0 1000 1048" height="1048px" pretty_print="True" style="stroke-linejoin: round; stroke:#000; fill: none;" version="1.1" viewBox="0 0 1000 1048" width="1000px" xmlns="http://www.w3.org/2000/svg" xmlns:xlink="http://www.w3.org/1999/xlink">
utf-8<defs>
utf-8utf-8<style type="text/css">
<![CDATA[path { fill-rule: evenodd; }]]>utf-8utf-8</style>
utf-8</defs>
utf-8<metadata>
utf-8utf-8<views>
utf-8utf-8utf-8<view h="1048.86353839" padding="0" w="1000">
utf-8utf-8utf-8utf-8<proj flip="auto" id="robinson" lon0="-5.51398666206"/>
utf-8utf-8utf-8utf-8<bbox h="243.5" w="232.38" x="-246.93" y="-602.67"/>
utf-8utf-8utf-8</view>
utf-8utf-8</views>
utf-8</metadata>
utf-8<g class="" id="provinces">
utf-8utf-8<path d="M686.9,67.7L690.8,68.0L695.1,67.1L699.9,69.0L702.1,69.1L706.9,71.1L712.7,72.2L719.9,76.5L723.7,80.7L729.3,80.4L730.9,80.9L736.3,86.9L740.6,88.6L747.2,87.8L750.1,88.5L753.8,84.7L758.8,83.0L763.3,82.4L768.7,79.9L771.8,79.1L774.6,77.5L777.1,75.1L781.9,71.6L787.1,70.5L789.5,68.6L793.4,64.1L794.2,62.0L793.4,58.5L792.3,57.7L792.4,54.6L792.4,54.6L784.5,52.8L776.0,50.2L773.6,48.8L770.4,45.8L767.7,44.8L765.1,41.3L763.1,39.5L758.4,37.3L753.5,30.1L747.1,23.6L746.1,19.7L743.7,16.5L742.3,6.9L742.6,5.8L739.7,1.8L735.0,1.2L730.7,5.5L727.1,7.6L723.3,6.6L720.4,7.0L716.9,9.8L710.6,9.1L708.6,9.5L706.4,13.5L702.0,27.0L701.2,31.2L689.7,58.7L686.9,67.7Z " data-id="MA.TO" data-name="Tanger - Tétouan" id="MA.TO"/>
utf-8utf-8<path d="M860.5,152.2L853.4,147.3L851.1,147.2L846.4,150.7L832.8,166.3L831.9,171.3L829.5,175.5L827.5,172.9L826.1,172.8L822.1,174.0L817.5,172.5L815.6,169.6L815.8,164.5L816.8,161.6L812.7,154.4L809.6,149.9L808.5,146.7L804.1,147.9L798.3,148.0L792.2,147.5L787.2,143.9L786.9,139.9L785.1,137.9L781.6,136.5L777.6,134.1L770.4,124.5L768.4,124.6L766.3,121.3L764.4,121.3L761.6,119.2L756.6,119.5L754.6,120.5L751.7,118.0L743.9,120.6L741.7,121.0L736.8,120.7L735.7,120.2L738.2,123.9L739.7,126.2L741.0,133.1L741.9,134.0L745.9,132.6L749.1,140.4L754.1,149.5L755.2,152.4L751.3,158.7L751.4,160.9L753.2,162.7L761.7,164.7L764.4,166.7L766.0,169.9L766.3,173.7L761.3,179.6L760.4,182.7L767.9,203.6L772.9,211.0L774.3,216.3L776.5,218.1L781.3,219.4L786.3,219.8L790.1,221.1L795.8,227.0L801.6,235.4L802.8,237.8L805.4,239.5L808.4,240.6L813.3,240.1L815.5,240.5L819.8,240.3L821.0,237.3L825.4,230.6L828.3,225.5L839.6,210.6L844.4,206.5L850.9,205.3L854.5,205.8L861.3,205.4L878.6,202.0L882.0,200.2L885.2,197.5L884.4,193.5L881.8,188.1L875.4,181.0L868.0,175.8L866.6,173.5L867.7,171.6L874.3,165.4L877.4,161.0L878.0,158.3L876.9,157.2L874.9,156.1L860.5,152.2Z " data-id="MA.FB" data-name="Fès - Boulemane" id="MA.FB"/>
utf-8utf-8<path d="M832.8,52.7L827.9,52.2L827.0,48.3L824.5,49.5L819.4,50.6L814.3,52.9L806.0,54.3L799.5,56.7L792.5,54.6L792.4,54.6L792.3,57.7L793.4,58.5L794.2,62.0L793.4,64.1L789.5,68.6L787.1,70.5L781.9,71.6L777.1,75.1L774.6,77.5L771.8,79.1L768.7,79.9L763.3,82.4L758.8,83.0L753.8,84.7L750.1,88.5L750.8,90.9L750.8,94.7L748.3,99.9L746.4,100.7L741.9,104.5L740.2,107.3L732.9,112.4L731.6,113.7L732.9,116.1L735.7,120.2L736.8,120.7L741.7,121.0L743.9,120.6L751.7,118.0L754.6,120.5L756.6,119.5L761.6,119.2L764.4,121.3L766.3,121.3L768.4,124.6L770.4,124.5L777.6,134.1L781.6,136.5L785.1,137.9L786.9,139.9L787.2,143.9L792.2,147.5L798.3,148.0L804.1,147.9L808.5,146.7L809.6,149.9L812.7,154.4L816.8,161.6L815.8,164.5L815.6,169.6L817.5,172.5L822.1,174.0L826.1,172.8L827.5,172.9L829.5,175.5L831.9,171.3L832.8,166.3L846.4,150.7L851.1,147.2L853.4,147.3L860.5,152.2L874.9,156.1L869.5,144.4L868.6,140.8L869.1,138.7L874.7,136.1L876.3,133.6L877.2,129.9L875.7,125.8L874.8,121.8L871.1,116.7L869.7,114.1L870.4,110.5L875.7,106.6L877.8,103.5L880.2,96.2L884.0,96.2L884.8,95.4L883.5,90.7L882.6,89.2L869.9,84.1L865.5,84.3L859.9,90.5L850.9,97.4L848.9,97.5L844.3,93.8L844.2,89.6L845.2,88.4L846.0,82.7L845.1,79.4L838.0,77.2L835.0,75.1L833.2,72.9L832.6,58.4L833.2,55.9L832.8,52.7L832.8,52.7Z " data-id="MA.TH" data-name="Taza - Al Hoceima - Taounate" id="MA.TH"/>
utf-8utf-8<path d="M747.2,87.8L740.6,88.6L736.3,86.9L730.9,80.9L729.3,80.4L723.7,80.7L719.9,76.5L712.7,72.2L706.9,71.1L702.1,69.1L699.9,69.0L695.1,67.1L690.8,68.0L686.9,67.7L684.2,76.5L670.6,103.9L667.5,110.2L660.6,120.2L657.2,127.3L659.2,129.1L662.8,130.6L667.2,131.8L671.5,130.6L674.4,128.9L678.8,128.3L688.5,129.1L692.6,130.2L696.4,132.1L699.6,132.7L705.6,132.9L707.5,132.0L708.9,129.8L710.9,128.4L713.5,125.1L716.2,126.6L718.5,130.2L720.0,130.8L726.5,131.1L732.7,128.5L733.6,125.1L735.7,120.2L732.9,116.1L731.6,113.7L732.9,112.4L740.2,107.3L741.9,104.5L746.4,100.7L748.3,99.9L750.8,94.7L750.8,90.9L750.1,88.5L747.2,87.8Z " data-id="MA.GB" data-name="Gharb - Chrarda - Béni Hssen" id="MA.GB"/>
utf-8utf-8<path d="M668.8,198.5L665.7,199.2L662.3,197.5L655.2,195.2L650.7,192.3L649.9,188.9L650.8,183.0L650.4,179.1L650.8,177.1L652.5,174.2L652.2,172.9L642.5,169.3L640.8,168.4L636.3,156.1L632.8,152.5L630.7,152.8L628.2,153.7L626.0,154.9L623.7,157.0L619.1,160.0L615.8,167.0L615.4,169.1L615.6,174.8L613.6,178.7L608.0,182.5L604.0,186.6L602.7,186.1L602.3,183.5L604.4,181.5L603.6,180.6L598.1,180.9L594.1,178.7L587.3,177.0L585.9,176.0L585.5,176.4L584.0,177.1L581.2,177.8L578.2,179.1L578.2,179.1L580.1,182.8L580.6,188.6L579.6,191.7L574.6,196.6L571.2,200.6L573.6,206.7L574.1,215.8L575.7,221.4L577.7,222.3L578.3,224.7L579.6,227.0L585.2,234.1L587.8,235.7L592.5,239.6L598.6,248.4L602.8,250.2L610.7,250.6L615.2,251.7L625.7,259.1L629.8,259.8L633.4,255.4L636.3,248.6L638.2,240.8L639.2,238.7L641.2,238.2L646.7,235.0L654.7,234.7L658.6,235.4L659.8,234.4L663.6,232.8L681.0,234.2L685.6,233.3L693.2,230.9L694.9,230.0L696.3,227.6L696.2,224.6L696.6,223.0L695.4,220.2L693.7,219.2L690.7,219.2L689.7,218.1L691.0,211.9L686.9,207.1L679.8,201.9L674.9,198.7L674.0,195.6L668.8,198.5Z " data-id="MA.CO" data-name="Chaouia - Ouardigha" id="MA.CO"/>
utf-8utf-8<path d="M619.1,160.0L615.9,160.4L611.7,163.2L609.6,165.8L606.4,167.6L602.9,168.8L599.2,168.5L596.0,171.3L586.9,174.8L585.9,176.0L587.3,177.0L594.1,178.7L598.1,180.9L603.6,180.6L604.4,181.5L602.3,183.5L602.7,186.1L604.0,186.6L608.0,182.5L613.6,178.7L615.6,174.8L615.4,169.1L615.8,167.0L619.1,160.0L619.1,160.0Z " data-id="MA.GC" data-name="Grand Casablanca" id="MA.GC"/>
utf-8utf-8<path d="M705.6,132.9L699.6,132.7L696.4,132.1L692.6,130.2L688.5,129.1L678.8,128.3L674.4,128.9L671.5,130.6L667.2,131.8L662.8,130.6L659.2,129.1L657.2,127.3L656.5,128.7L650.9,137.6L644.5,144.5L638.0,149.6L635.8,150.4L632.9,152.5L632.8,152.5L636.3,156.1L640.8,168.4L642.5,169.3L652.2,172.9L652.5,174.2L650.8,177.1L650.4,179.1L650.8,183.0L649.9,188.9L650.7,192.3L655.2,195.2L662.3,197.5L665.7,199.2L668.8,198.5L674.0,195.6L675.6,193.4L675.2,190.1L675.5,185.2L678.3,179.0L685.5,180.0L686.8,181.1L686.9,185.3L687.6,186.4L693.6,188.1L698.0,190.0L702.6,188.8L709.4,189.1L711.7,186.4L711.6,176.6L712.5,174.4L712.6,168.0L714.0,163.9L715.8,160.9L716.8,155.9L713.1,148.8L714.9,143.7L711.8,138.4L711.7,136.9L709.7,133.2L707.5,132.0L705.6,132.9Z " data-id="MA.RZ" data-name="Rabat - Salé - Zemmour - Zaer" id="MA.RZ"/>
utf-8utf-8<path d="M815.5,240.5L813.3,240.1L808.4,240.6L805.4,239.5L802.8,237.8L801.6,235.4L795.8,227.0L790.1,221.1L786.3,219.8L781.3,219.4L776.5,218.1L774.3,216.3L772.9,211.0L767.9,203.6L760.4,182.7L761.3,179.6L766.3,173.7L766.0,169.9L764.4,166.7L761.7,164.7L753.2,162.7L751.4,160.9L751.3,158.7L755.2,152.4L754.1,149.5L749.1,140.4L745.9,132.6L741.9,134.0L741.0,133.1L739.7,126.2L738.2,123.9L735.7,120.2L733.6,125.1L732.7,128.5L726.5,131.1L720.0,130.8L718.5,130.2L716.2,126.6L713.5,125.1L710.9,128.4L708.9,129.8L707.5,132.0L709.7,133.2L711.7,136.9L711.8,138.4L714.9,143.7L713.1,148.8L716.8,155.9L715.8,160.9L714.0,163.9L712.6,168.0L712.5,174.4L711.6,176.6L711.7,186.4L709.4,189.1L702.6,188.8L698.0,190.0L693.6,188.1L687.6,186.4L686.9,185.3L686.8,181.1L685.5,180.0L678.3,179.0L675.5,185.2L675.2,190.1L675.6,193.4L674.0,195.6L674.9,198.7L679.8,201.9L686.9,207.1L691.0,211.9L689.7,218.1L690.7,219.2L693.7,219.2L695.4,220.2L696.6,223.0L696.2,224.6L696.3,227.6L704.8,231.2L712.2,238.4L719.6,241.3L727.4,246.7L732.5,248.2L728.1,253.0L726.9,256.7L728.3,259.3L728.6,261.8L730.3,265.8L729.8,267.1L725.0,267.2L720.0,269.3L713.2,274.5L708.7,277.3L706.8,280.5L706.3,283.7L708.1,285.7L709.4,289.7L718.4,286.9L722.6,289.1L723.6,293.7L720.5,299.1L714.8,305.9L713.3,310.6L715.9,311.6L719.1,311.7L723.7,310.7L730.4,312.8L733.3,315.9L742.5,322.4L744.8,326.9L743.5,334.8L739.0,348.5L738.6,353.0L738.9,356.6L737.1,361.6L735.4,363.2L735.2,369.1L739.1,372.9L740.1,375.6L744.5,381.4L744.3,385.0L743.1,388.1L743.5,392.5L746.9,395.6L750.1,396.8L754.9,400.9L770.6,411.8L779.6,407.8L788.3,400.8L795.2,391.7L801.2,388.2L808.5,386.2L817.9,385.7L828.1,383.2L839.7,377.2L839.0,368.2L842.0,365.2L845.4,359.6L842.2,354.3L841.3,350.3L837.3,347.5L835.7,344.8L832.9,344.0L831.1,345.7L828.2,345.5L828.0,344.3L829.9,339.0L829.6,333.6L834.0,328.8L838.5,328.5L839.6,310.0L843.7,307.8L848.6,308.2L866.4,305.0L869.9,303.9L870.5,296.3L868.2,294.4L865.3,287.7L864.7,283.1L864.9,277.1L866.1,273.6L863.7,272.9L858.0,273.7L850.4,271.3L847.9,271.4L843.6,273.8L840.1,274.5L838.5,273.7L837.8,271.1L835.5,268.8L834.8,265.8L832.3,264.2L831.5,260.6L828.9,255.2L825.0,249.3L823.4,246.0L819.8,240.3L815.5,240.5Z " data-id="MA.MT" data-name="Meknès - Tafilalet" id="MA.MT"/>
utf-8utf-8<path d="M708.1,285.7L706.3,283.7L706.8,280.5L708.7,277.3L713.2,274.5L720.0,269.3L725.0,267.2L729.8,267.1L730.3,265.8L728.6,261.8L728.3,259.3L726.9,256.7L728.1,253.0L732.5,248.2L727.4,246.7L719.6,241.3L712.2,238.4L704.8,231.2L696.3,227.6L694.9,230.0L693.2,230.9L685.6,233.3L681.0,234.2L663.6,232.8L659.8,234.4L658.6,235.4L654.7,234.7L646.7,235.0L641.2,238.2L639.2,238.7L638.2,240.8L636.3,248.6L633.4,255.4L629.8,259.8L630.9,262.7L630.5,265.5L630.7,269.0L630.4,273.7L631.2,280.0L633.5,286.2L635.1,293.2L634.3,297.0L631.8,300.1L623.0,302.0L620.3,303.7L619.3,306.4L620.9,309.4L625.5,314.7L627.2,316.1L624.8,324.4L627.3,325.9L629.4,327.6L633.2,328.4L637.1,329.7L642.8,329.8L648.0,328.3L651.4,325.5L654.3,321.0L667.9,315.3L671.0,314.6L674.9,311.9L694.0,302.4L706.0,294.1L709.4,289.7L708.1,285.7Z " data-id="MA.TD" data-name="Tadla - Azilal" id="MA.TD"/>
utf-8utf-8<path d="M832.8,52.7L833.2,55.9L832.6,58.4L833.2,72.9L835.0,75.1L838.0,77.2L845.1,79.4L846.0,82.7L845.2,88.4L844.2,89.6L844.3,93.8L848.9,97.5L850.9,97.4L859.9,90.5L865.5,84.3L869.9,84.1L882.6,89.2L883.5,90.7L884.8,95.4L884.0,96.2L880.2,96.2L877.8,103.5L875.7,106.6L870.4,110.5L869.7,114.1L871.1,116.7L874.8,121.8L875.7,125.8L877.2,129.9L876.3,133.6L874.7,136.1L869.1,138.7L868.6,140.8L869.5,144.4L874.9,156.1L876.9,157.2L878.0,158.3L877.4,161.0L874.3,165.4L867.7,171.6L866.6,173.5L868.0,175.8L875.4,181.0L881.8,188.1L884.4,193.5L885.2,197.5L882.0,200.2L878.6,202.0L861.3,205.4L854.5,205.8L850.9,205.3L844.4,206.5L839.6,210.6L828.3,225.5L825.4,230.6L821.0,237.3L819.8,240.3L823.4,246.0L825.0,249.3L828.9,255.2L831.5,260.6L832.3,264.2L834.8,265.8L835.5,268.8L837.8,271.1L838.5,273.7L840.1,274.5L843.6,273.8L847.9,271.4L850.4,271.3L858.0,273.7L863.7,272.9L866.1,273.6L864.9,277.1L864.7,283.1L865.3,287.7L868.2,294.4L870.5,296.3L869.9,303.9L879.6,300.9L890.2,299.4L883.7,281.2L887.2,279.2L898.4,278.2L909.4,275.2L986.2,278.8L988.6,278.2L989.8,275.7L989.5,274.2L986.1,272.9L983.8,273.8L982.8,272.2L984.6,270.2L985.8,261.6L986.6,259.0L989.2,255.9L991.7,255.6L996.0,253.1L999.5,249.1L998.6,247.5L981.7,234.4L977.9,233.0L975.9,231.3L967.7,217.5L971.1,214.6L971.4,208.4L967.0,204.7L965.8,202.9L963.9,198.6L960.9,195.6L960.3,193.2L960.4,186.1L963.0,178.4L964.7,175.1L964.4,172.7L960.0,164.6L958.0,163.8L956.7,162.0L959.3,157.7L958.2,151.3L958.4,147.9L961.3,136.2L961.2,132.8L957.0,119.5L955.5,116.2L953.2,113.5L959.6,105.7L956.8,104.6L949.6,97.2L953.2,91.1L954.7,87.8L954.7,85.6L948.4,81.5L942.3,76.7L941.8,73.8L938.3,72.9L932.2,68.3L930.4,67.6L928.7,61.3L917.1,56.9L915.9,57.2L912.5,60.2L908.3,60.8L902.1,59.9L896.4,57.4L889.2,50.4L890.0,51.9L894.6,57.2L897.2,59.4L892.8,58.9L889.2,57.1L887.5,54.2L887.3,51.8L888.2,48.8L887.4,47.6L885.6,48.3L884.4,46.9L884.5,40.5L885.1,38.3L884.9,35.6L881.9,39.1L879.5,44.8L877.6,46.8L874.5,46.7L870.4,50.4L863.0,53.1L860.4,53.6L852.8,52.4L851.2,51.5L846.7,50.8L841.8,46.8L837.4,48.6L834.9,52.5L832.8,52.7Z " data-id="MA.OR" data-name="Oriental" id="MA.OR"/>
utf-8utf-8<path d="M709.4,289.7L706.0,294.1L694.0,302.4L674.9,311.9L671.0,314.6L667.9,315.3L654.3,321.0L651.4,325.5L648.0,328.3L642.8,329.8L637.1,329.7L633.2,328.4L629.4,327.6L627.3,325.9L624.8,324.4L623.7,325.4L621.8,326.6L619.7,329.1L616.2,332.0L595.1,342.0L592.7,343.7L589.8,344.3L585.5,346.4L581.4,349.6L578.0,353.6L575.2,358.3L572.4,360.3L569.5,360.5L564.5,359.7L561.0,361.1L552.5,363.7L538.1,363.8L533.6,364.3L527.5,364.1L527.2,361.6L524.6,358.7L522.1,359.5L515.7,363.5L513.1,365.7L510.4,366.9L505.8,367.6L498.9,367.4L493.3,364.9L486.1,365.3L480.1,364.9L477.6,366.8L474.1,368.7L471.2,368.7L469.1,366.4L466.7,361.8L463.4,359.3L463.4,365.7L463.3,371.4L459.0,379.0L458.8,381.7L462.4,383.1L466.6,386.1L470.1,389.3L470.5,391.7L475.2,399.2L475.4,401.2L474.0,407.3L472.7,416.5L472.0,419.2L468.0,428.5L461.4,439.9L453.2,448.7L446.0,458.1L440.9,469.4L438.7,471.0L437.3,474.2L433.2,479.8L430.8,480.6L427.9,483.7L424.7,488.6L428.7,490.8L433.0,490.5L440.1,494.7L443.0,494.5L447.6,490.2L453.8,487.7L457.0,488.3L459.8,485.0L460.8,482.1L462.4,480.0L466.2,478.5L471.9,480.8L474.9,480.3L479.5,477.1L485.3,477.4L488.8,477.0L499.2,474.6L501.6,476.2L503.3,473.0L506.1,469.6L512.0,467.8L518.6,467.3L526.8,471.1L532.6,468.4L532.3,466.2L530.7,462.3L529.8,458.1L530.0,445.3L531.7,439.5L530.8,435.7L533.6,430.9L537.9,430.6L541.6,431.9L550.5,431.5L554.7,428.5L559.7,427.7L563.5,427.8L566.8,429.6L569.6,428.5L571.9,426.4L573.2,422.8L575.2,420.0L578.0,419.0L587.9,419.0L590.3,416.4L596.1,412.5L601.5,411.7L605.9,412.2L608.1,413.3L614.5,414.6L616.8,411.2L621.3,402.8L623.8,400.1L628.5,400.4L632.5,401.8L640.1,401.2L642.2,399.4L644.3,395.8L647.1,394.5L652.2,393.3L655.5,394.6L660.2,398.4L663.5,403.0L660.5,410.6L660.7,413.7L662.4,420.7L664.1,423.2L670.0,424.8L669.7,426.9L665.5,433.6L664.9,436.2L666.0,440.3L673.7,459.0L678.0,458.5L694.7,458.5L702.0,457.0L709.7,456.0L711.8,462.6L716.9,464.6L722.9,462.6L729.5,454.0L735.1,445.0L739.5,436.4L745.6,429.9L752.1,425.4L759.0,419.4L764.2,415.3L770.6,411.8L754.9,400.9L750.1,396.8L746.9,395.6L743.5,392.5L743.1,388.1L744.3,385.0L744.5,381.4L740.1,375.6L739.1,372.9L735.2,369.1L735.4,363.2L737.1,361.6L738.9,356.6L738.6,353.0L739.0,348.5L743.5,334.8L744.8,326.9L742.5,322.4L733.3,315.9L730.4,312.8L723.7,310.7L719.1,311.7L715.9,311.6L713.3,310.6L714.8,305.9L720.5,299.1L723.6,293.7L722.6,289.1L718.4,286.9L709.4,289.7Z " data-id="MA.SM" data-name="Souss - Massa - Draâ" id="MA.SM"/>
utf-8utf-8<path d="M625.7,259.1L615.2,251.7L610.7,250.6L602.8,250.2L598.6,248.4L592.5,239.6L587.8,235.7L585.2,234.1L579.6,227.0L578.3,224.7L575.8,226.2L574.6,228.1L572.9,234.9L573.0,238.7L571.8,242.8L568.5,246.5L565.1,249.4L559.3,253.4L556.8,254.5L549.5,260.6L549.5,263.9L552.9,270.2L559.6,274.4L560.5,276.7L559.7,280.7L556.0,285.4L548.6,300.9L545.3,302.6L541.4,303.0L534.5,301.8L527.2,301.4L523.8,301.6L517.0,299.2L514.8,296.3L514.0,293.7L512.0,291.2L504.2,289.7L495.1,291.7L487.6,288.7L486.0,290.2L480.2,297.9L474.5,304.0L472.9,310.9L471.4,313.6L467.8,318.3L466.3,322.6L462.8,327.6L465.0,330.1L464.9,335.9L463.1,346.1L462.3,347.8L463.4,351.6L463.4,359.3L466.7,361.8L469.1,366.4L471.2,368.7L474.1,368.7L477.6,366.8L480.1,364.9L486.1,365.3L493.3,364.9L498.9,367.4L505.8,367.6L510.4,366.9L513.1,365.7L515.7,363.5L522.1,359.5L524.6,358.7L527.2,361.6L527.5,364.1L533.6,364.3L538.1,363.8L552.5,363.7L561.0,361.1L564.5,359.7L569.5,360.5L572.4,360.3L575.2,358.3L578.0,353.6L581.4,349.6L585.5,346.4L589.8,344.3L592.7,343.7L595.1,342.0L616.2,332.0L619.7,329.1L621.8,326.6L623.7,325.4L624.8,324.4L627.2,316.1L625.5,314.7L620.9,309.4L619.3,306.4L620.3,303.7L623.0,302.0L631.8,300.1L634.3,297.0L635.1,293.2L633.5,286.2L631.2,280.0L630.4,273.7L630.7,269.0L630.5,265.5L630.9,262.7L629.8,259.8L625.7,259.1Z " data-id="MA.MK" data-name="Marrakech - Tensift - Al Haouz" id="MA.MK"/>
utf-8utf-8<path d="M577.7,222.3L575.7,221.4L574.1,215.8L573.6,206.7L571.2,200.6L574.6,196.6L579.6,191.7L580.6,188.6L580.1,182.8L578.2,179.1L572.4,181.7L564.1,183.6L561.6,184.6L559.4,186.4L555.7,190.8L553.5,192.6L546.5,193.4L541.4,199.3L540.2,203.5L532.4,212.0L525.3,221.3L523.2,223.2L517.2,227.4L510.1,235.6L500.9,243.2L499.7,245.4L501.5,250.7L500.9,253.6L499.1,256.8L500.1,260.9L499.6,268.3L498.2,272.5L495.9,275.3L493.4,282.8L487.6,288.7L495.1,291.7L504.2,289.7L512.0,291.2L514.0,293.7L514.8,296.3L517.0,299.2L523.8,301.6L527.2,301.4L534.5,301.8L541.4,303.0L545.3,302.6L548.6,300.9L556.0,285.4L559.7,280.7L560.5,276.7L559.6,274.4L552.9,270.2L549.5,263.9L549.5,260.6L556.8,254.5L559.3,253.4L565.1,249.4L568.5,246.5L571.8,242.8L573.0,238.7L572.9,234.9L574.6,228.1L575.8,226.2L578.3,224.7L577.7,222.3Z " data-id="MA.DA" data-name="Doukkala - Abda" id="MA.DA"/>
utf-8utf-8<path d="M337.9,557.1L324.0,563.4L320.5,565.8L303.6,568.9L292.5,572.6L283.6,572.4L272.4,574.4L266.5,576.7L263.6,579.9L262.0,585.2L258.2,590.8L255.9,591.6L251.3,595.0L249.3,600.6L248.8,603.5L246.6,610.8L243.0,619.0L242.5,621.0L237.2,628.9L236.0,631.6L233.9,640.7L232.0,644.9L230.6,650.8L229.2,654.6L225.3,662.5L221.5,666.8L213.8,672.0L202.4,680.4L194.6,684.5L187.8,685.3L186.3,685.9L184.0,689.5L178.7,694.8L175.3,696.7L168.2,702.6L166.4,707.0L167.1,710.2L166.0,716.5L162.5,725.3L157.7,732.2L155.0,738.9L153.3,746.1L151.4,750.8L147.0,756.5L142.4,773.3L142.8,775.1L142.5,781.5L143.2,786.3L142.6,794.6L140.8,801.0L139.2,805.3L138.5,810.0L137.7,811.4L133.4,814.6L131.8,816.6L131.0,818.2L138.5,820.4L145.0,822.9L147.5,825.1L149.3,828.2L151.4,830.5L154.2,831.6L156.8,831.5L174.6,826.9L184.8,825.9L189.9,826.2L196.7,827.6L205.3,830.0L210.4,832.2L213.0,832.5L215.6,831.9L236.2,824.4L241.2,823.4L246.4,823.1L251.7,823.5L259.0,825.0L259.0,825.0L273.9,815.4L278.9,811.8L287.1,805.4L291.6,801.0L293.5,797.4L296.2,790.9L299.5,780.8L305.0,758.4L307.0,751.2L309.1,742.6L311.7,736.0L313.7,728.8L315.0,725.9L315.1,722.3L316.5,717.3L316.8,716.9L292.7,717.0L289.9,699.8L285.6,685.9L285.4,683.4L288.7,672.0L291.4,667.3L302.5,655.7L305.8,650.8L312.9,635.8L320.8,612.6L327.7,602.9L334.9,596.6L343.8,591.1L351.7,587.4L351.2,584.2L344.9,571.3L342.3,567.1L337.9,557.1L337.9,557.1Z " data-id="MA.LB" data-name="Laâyoune - Boujdour - Sakia El Hamra" id="MA.LB"/>
utf-8utf-8<path d="M421.4,493.6L413.6,500.9L406.1,505.2L401.9,508.1L384.1,517.4L383.1,518.0L379.8,522.4L376.3,526.2L373.7,527.8L370.3,532.5L366.5,535.1L365.5,537.7L362.5,540.9L359.9,545.2L356.3,548.8L337.9,557.1L342.3,567.1L344.9,571.3L351.2,584.2L351.7,587.4L343.8,591.1L334.9,596.6L327.7,602.9L320.8,612.6L312.9,635.8L305.8,650.8L302.5,655.7L291.4,667.3L288.7,672.0L285.4,683.4L285.6,685.9L289.9,699.8L292.7,717.0L316.8,716.9L316.8,716.9L318.4,714.4L327.8,711.5L335.6,710.4L337.9,709.1L340.2,701.2L343.2,695.3L348.6,687.7L351.3,682.7L353.9,679.1L362.3,670.9L363.7,667.2L363.8,662.9L361.1,659.3L359.4,652.8L367.4,650.9L380.9,646.6L388.6,643.7L394.3,643.7L398.8,643.0L405.1,644.4L411.5,645.1L415.9,647.3L423.4,651.6L429.7,654.5L433.6,654.5L437.7,653.1L441.2,651.0L443.3,650.9L451.4,655.2L456.5,655.2L461.6,654.5L477.2,640.8L481.8,638.1L485.5,637.3L494.4,637.2L502.1,637.9L507.1,637.9L514.1,636.9L520.0,635.7L522.5,633.5L522.6,630.7L520.1,622.2L519.8,618.4L521.7,611.2L521.2,606.1L519.5,600.1L519.2,596.8L527.6,596.7L529.1,524.3L529.4,522.3L531.3,519.9L539.2,515.5L545.6,510.8L547.8,507.0L552.0,504.6L556.1,500.6L560.4,497.7L567.3,494.5L569.4,493.0L575.1,487.5L581.7,483.0L585.5,479.4L593.3,473.1L595.4,472.2L600.9,472.8L604.9,472.2L611.9,472.6L617.6,466.6L624.5,463.6L629.2,463.1L636.0,463.6L646.6,468.1L651.9,463.1L660.4,462.1L669.5,459.5L673.7,459.0L666.0,440.3L664.9,436.2L665.5,433.6L669.7,426.9L670.0,424.8L664.1,423.2L662.4,420.7L660.7,413.7L660.5,410.6L663.5,403.0L660.2,398.4L655.5,394.6L652.2,393.3L647.1,394.5L644.3,395.8L642.2,399.4L640.1,401.2L632.5,401.8L628.5,400.4L623.8,400.1L621.3,402.8L616.8,411.2L614.5,414.6L608.1,413.3L605.9,412.2L601.5,411.7L596.1,412.5L590.3,416.4L587.9,419.0L578.0,419.0L575.2,420.0L573.2,422.8L571.9,426.4L569.6,428.5L566.8,429.6L563.5,427.8L559.7,427.7L554.7,428.5L550.5,431.5L541.6,431.9L537.9,430.6L533.6,430.9L530.8,435.7L531.7,439.5L530.0,445.3L529.8,458.1L530.7,462.3L532.3,466.2L532.6,468.4L526.8,471.1L518.6,467.3L512.0,467.8L506.1,469.6L503.3,473.0L501.6,476.2L499.2,474.6L488.8,477.0L485.3,477.4L479.5,477.1L474.9,480.3L471.9,480.8L466.2,478.5L462.4,480.0L460.8,482.1L459.8,485.0L457.0,488.3L453.8,487.7L447.6,490.2L443.0,494.5L440.1,494.7L433.0,490.5L428.7,490.8L424.7,488.6L421.4,493.6Z " data-id="MA.GE" data-name="Guelmim - Es-Semara" id="MA.GE"/>
utf-8utf-8<path d="M259.0,825.0L251.7,823.5L246.4,823.1L241.2,823.4L236.2,824.4L215.6,831.9L213.0,832.5L210.4,832.2L205.3,830.0L196.7,827.6L189.9,826.2L184.8,825.9L174.6,826.9L156.8,831.5L154.2,831.6L151.4,830.5L149.3,828.2L147.5,825.1L145.0,822.9L138.5,820.4L131.0,818.2L131.0,818.2L130.8,820.3L120.9,825.2L117.3,829.1L112.8,836.0L109.3,839.9L103.5,844.9L101.4,848.1L99.0,849.9L97.2,852.6L92.2,859.0L88.5,860.3L82.9,863.8L78.2,867.9L71.9,877.1L67.7,884.5L68.2,886.5L71.8,882.1L74.7,875.4L81.4,870.7L81.6,867.8L82.3,867.2L82.8,871.2L81.5,877.5L76.8,885.3L73.6,889.0L69.6,896.0L68.6,900.8L65.7,905.9L63.5,908.1L55.3,923.0L53.0,927.5L55.6,926.8L57.3,928.7L55.8,934.9L53.6,937.4L50.1,939.8L48.7,939.9L44.8,952.3L44.5,958.4L43.6,963.0L38.8,969.5L36.4,977.9L32.8,982.4L25.9,985.3L23.5,983.8L21.2,985.2L19.4,988.7L14.1,995.6L7.2,1010.0L4.4,1019.8L5.0,1024.9L3.8,1026.9L3.5,1034.4L0.6,1045.0L4.5,1046.2L18.3,1043.3L27.6,1042.5L52.0,1042.5L61.4,1041.1L68.9,1041.1L79.5,1041.8L97.5,1044.7L108.1,1044.7L116.8,1045.4L128.0,1045.4L136.2,1044.7L141.9,1041.1L147.0,1033.9L151.0,1023.1L149.9,1015.1L153.1,1011.5L157.0,1005.8L160.8,1002.2L162.1,999.3L165.9,996.4L170.4,991.3L176.2,982.7L178.3,972.6L178.5,962.5L180.1,950.3L182.1,942.3L183.5,935.9L185.0,925.8L189.1,908.5L190.5,903.4L193.2,895.5L196.4,888.3L199.0,883.2L202.3,878.9L206.7,876.0L213.6,873.1L218.6,870.2L224.9,867.4L230.5,865.2L235.6,862.3L240.7,854.4L247.9,839.2L251.8,832.0L256.2,827.0L259.0,825.0Z " data-id="MA.OD" data-name="Oued el Dahab" id="MA.OD"/>
utf-8</g>
</svg>
