<?xml version="1.0" ?>
<!DOCTYPE svg
  PUBLIC '-//W3C//DTD SVG 1.1//EN'
  'http://www.w3.org/Graphics/SVG/1.1/DTD/svg11.dtd'>
<svg enable_background="new 0 0 1000 985" height="985px" pretty_print="True" style="stroke-linejoin: round; stroke:#000; fill: none;" version="1.1" viewBox="0 0 1000 985" width="1000px" xmlns="http://www.w3.org/2000/svg" xmlns:xlink="http://www.w3.org/1999/xlink">
utf-8<defs>
utf-8utf-8<style type="text/css">
<![CDATA[path { fill-rule: evenodd; }]]>utf-8utf-8</style>
utf-8</defs>
utf-8<metadata>
utf-8utf-8<views>
utf-8utf-8utf-8<view h="985.863548357" padding="0" w="1000">
utf-8utf-8utf-8utf-8<proj flip="auto" id="robinson" lon0="27.019541807"/>
utf-8utf-8utf-8utf-8<bbox h="49.55" w="50.31" x="346.24" y="-810.44"/>
utf-8utf-8utf-8</view>
utf-8utf-8</views>
utf-8</metadata>
utf-8<g class="" id="provinces">
utf-8utf-8<path d="M157.8,36.5L148.6,40.8L140.1,40.4L111.2,31.6L105.4,28.8L102.6,28.1L99.9,28.9L100.0,31.3L103.3,41.0L102.0,41.8L98.8,41.2L96.0,41.4L92.2,40.2L90.1,42.4L80.5,43.9L71.0,39.3L61.7,33.2L52.7,30.0L50.0,30.8L49.0,35.2L47.0,37.2L45.2,37.2L40.8,35.7L39.3,35.8L37.1,39.0L37.6,41.9L39.7,45.8L41.9,52.1L43.0,58.3L42.5,62.5L39.8,64.7L34.8,65.1L29.7,63.2L26.0,59.7L22.7,55.7L18.8,52.4L13.5,50.7L12.4,53.5L11.7,57.7L3.8,62.2L1.5,66.1L0.5,71.2L0.7,73.9L12.4,68.9L18.2,68.7L24.8,73.1L27.6,73.6L29.9,70.1L33.4,75.0L38.6,75.9L49.0,74.1L53.7,76.0L60.4,82.3L63.0,80.8L75.2,90.2L77.2,92.6L79.0,98.1L81.4,97.0L83.8,93.4L85.9,91.5L89.4,93.9L91.3,97.7L93.7,101.1L103.0,104.0L103.4,106.8L100.8,109.2L95.7,109.5L96.0,111.5L103.6,115.1L108.6,116.5L111.5,114.3L118.0,118.4L118.0,118.7L120.3,118.4L125.6,113.9L128.2,105.1L132.9,99.3L133.2,90.0L132.8,80.4L138.3,75.0L144.6,75.8L148.4,81.9L156.2,85.4L163.4,82.7L171.7,82.2L177.6,77.1L174.3,66.5L177.8,59.6L165.7,50.4L159.5,36.1L159.0,35.1L157.8,36.5Z " data-id="MD.BR" data-name="Briceni" id="MD.BR"/>
utf-8utf-8<path d="M345.9,51.1L334.9,47.7L328.1,40.2L325.9,38.7L322.4,35.0L316.8,38.5L303.9,44.2L276.4,42.2L264.1,44.8L247.6,42.1L244.2,47.7L242.4,56.0L238.4,61.9L234.7,75.3L232.1,81.0L244.9,93.1L247.9,97.6L246.5,100.9L241.5,110.1L246.9,119.0L256.1,123.8L263.9,132.7L275.2,134.9L286.7,140.4L292.3,142.3L295.7,140.8L293.8,137.7L293.2,134.1L297.2,130.7L301.7,128.1L302.3,122.0L306.0,117.3L315.9,115.6L326.3,117.1L335.2,115.4L335.0,110.2L332.1,107.9L330.5,103.9L329.1,98.9L322.6,96.4L322.1,90.1L330.2,92.0L339.3,96.4L348.3,94.6L352.4,83.9L362.7,79.9L360.8,66.0L355.3,52.1L345.9,51.1Z " data-id="MD.DO" data-name="Donduseni" id="MD.DO"/>
utf-8utf-8<path d="M204.1,77.7L177.8,59.6L174.3,66.5L177.6,77.1L171.7,82.2L163.4,82.7L156.2,85.4L148.4,81.9L144.6,75.8L138.3,75.0L132.8,80.4L133.2,90.0L132.9,99.3L128.2,105.1L125.6,113.9L120.3,118.4L118.0,118.7L118.1,120.3L115.8,123.3L115.4,125.1L118.4,133.1L123.8,139.3L130.7,144.0L137.9,147.3L138.3,149.7L133.3,151.8L135.7,156.4L142.0,153.9L146.0,158.1L148.9,162.5L152.2,160.9L155.6,163.8L156.3,166.8L154.9,169.6L152.1,172.0L159.8,176.4L159.9,177.1L169.2,176.3L176.0,173.8L180.3,166.6L182.9,157.2L188.7,150.4L196.2,148.5L201.7,154.5L208.6,157.1L212.7,154.0L218.2,154.5L223.9,154.5L233.6,151.4L252.5,138.5L251.8,135.3L248.3,127.0L246.9,119.0L241.5,110.1L246.5,100.9L247.9,97.6L244.9,93.1L232.1,81.0L204.1,77.7Z " data-id="MD.ED" data-name="Edineţ" id="MD.ED"/>
utf-8utf-8<path d="M159.0,35.1L159.5,36.1L165.7,50.4L177.8,59.6L204.1,77.7L232.1,81.0L234.7,75.3L238.4,61.9L242.4,56.0L244.2,47.7L247.6,42.1L264.1,44.8L276.4,42.2L303.9,44.2L316.8,38.5L322.4,35.0L316.2,28.4L311.8,24.9L293.6,14.5L284.5,11.1L252.3,11.3L246.8,9.2L245.1,0.6L239.3,0.0L233.2,3.8L230.2,4.4L214.6,11.3L200.6,22.4L196.5,24.3L192.8,23.1L184.7,17.3L179.6,16.2L170.8,20.3L159.0,35.1Z " data-id="MD.OC" data-name="Ocniţa" id="MD.OC"/>
utf-8utf-8<path d="M275.2,134.9L263.9,132.7L256.1,123.8L246.9,119.0L248.3,127.0L251.8,135.3L252.5,138.5L233.6,151.4L223.9,154.5L218.2,154.5L212.7,154.0L208.6,157.1L201.7,154.5L196.2,148.5L188.7,150.4L182.9,157.2L180.3,166.6L176.0,173.8L169.2,176.3L159.9,177.1L160.1,178.5L156.3,183.7L159.5,186.7L165.8,189.5L171.1,194.2L171.1,195.7L173.0,205.7L173.0,207.8L176.0,209.5L182.2,211.5L184.6,214.2L176.4,218.9L179.7,221.1L184.0,225.8L190.4,234.9L196.8,238.9L197.1,239.4L199.8,238.3L204.1,235.6L207.9,232.2L209.3,226.3L209.8,220.0L217.2,211.0L227.4,208.8L236.2,209.4L242.5,202.4L253.8,201.4L266.0,203.9L291.3,215.5L300.0,214.8L307.1,211.0L316.1,211.5L331.8,225.1L340.7,228.4L353.8,223.9L366.3,218.1L364.3,207.7L356.5,206.0L352.9,197.1L351.2,191.1L345.3,187.5L326.4,170.2L318.7,170.6L313.6,177.5L305.7,181.3L295.8,177.0L290.5,173.6L286.5,168.4L287.8,163.3L287.0,159.8L285.1,156.6L285.3,153.9L287.1,151.6L286.7,140.4L275.2,134.9Z " data-id="MD.RS" data-name="Rîşcani" id="MD.RS"/>
utf-8utf-8<path d="M380.2,243.6L386.4,252.9L391.2,252.8L394.8,249.5L396.7,245.6L394.8,241.7L391.6,229.2L383.1,225.6L373.8,227.0L366.3,218.1L353.8,223.9L340.7,228.4L344.0,233.3L345.3,239.4L357.3,243.4L373.0,244.2L380.2,243.6Z " data-id="MD.BT" data-name="Bălţi" id="MD.BT"/>
utf-8utf-8<path d="M339.3,96.4L330.2,92.0L322.1,90.1L322.6,96.4L329.1,98.9L330.5,103.9L332.1,107.9L335.0,110.2L335.2,115.4L326.3,117.1L315.9,115.6L306.0,117.3L302.3,122.0L301.7,128.1L297.2,130.7L293.2,134.1L293.8,137.7L295.7,140.8L292.3,142.3L286.7,140.4L287.1,151.6L285.3,153.9L285.1,156.6L287.0,159.8L287.8,163.3L286.5,168.4L290.5,173.6L295.8,177.0L305.7,181.3L313.6,177.5L318.7,170.6L326.4,170.2L345.3,187.5L351.2,191.1L352.9,197.1L356.5,206.0L364.3,207.7L370.7,205.9L377.8,205.9L392.2,190.4L393.9,187.0L395.1,183.8L394.0,180.7L392.0,178.4L388.5,170.8L388.4,163.1L376.7,156.8L378.7,151.3L384.0,140.7L390.3,138.1L395.1,134.3L390.1,120.4L378.8,110.3L348.3,94.6L339.3,96.4Z " data-id="MD.DR" data-name="Drochia" id="MD.DR"/>
utf-8utf-8<path d="M338.1,237.3L331.9,232.0L327.7,233.1L326.2,240.9L321.1,247.7L314.0,251.4L309.7,249.6L305.7,250.0L300.7,259.9L294.9,265.3L292.5,273.9L283.4,276.7L273.2,276.1L256.0,283.3L241.6,295.7L242.3,297.4L245.6,304.8L246.7,309.2L251.4,310.3L254.5,319.0L256.8,323.8L259.9,325.9L262.2,326.1L266.3,328.3L273.0,328.5L277.1,329.5L281.3,331.4L284.9,334.0L287.2,337.2L285.3,338.6L284.2,341.1L283.5,348.3L288.6,351.7L287.9,361.8L291.8,363.9L292.5,364.3L300.4,357.6L315.1,352.5L319.1,347.2L335.8,344.7L353.3,345.0L371.1,343.2L374.2,341.4L372.8,333.9L375.8,332.0L382.1,331.6L388.6,333.2L393.6,327.8L394.5,320.1L389.1,314.5L382.0,314.6L373.3,311.2L372.8,303.4L380.8,298.0L383.2,293.7L386.3,290.6L392.6,288.6L392.1,282.2L385.8,264.8L369.9,263.8L369.5,253.5L373.0,244.2L357.3,243.4L345.3,239.4L338.1,237.3Z " data-id="MD.FA" data-name="Făleşti" id="MD.FA"/>
utf-8utf-8<path d="M331.8,225.1L316.1,211.5L307.1,211.0L300.0,214.8L291.3,215.5L266.0,203.9L253.8,201.4L242.5,202.4L236.2,209.4L227.4,208.8L217.2,211.0L209.8,220.0L209.3,226.3L207.9,232.2L204.1,235.6L199.8,238.3L197.1,239.4L198.2,242.1L198.3,245.6L200.1,248.0L200.4,250.0L194.5,251.1L197.9,258.2L205.0,266.9L224.6,285.8L232.7,292.1L241.2,294.7L241.6,295.7L256.0,283.3L273.2,276.1L283.4,276.7L292.5,273.9L294.9,265.3L300.7,259.9L305.7,250.0L309.7,249.6L314.0,251.4L321.1,247.7L326.2,240.9L327.7,233.1L331.9,232.0L338.1,237.3L345.3,239.4L344.0,233.3L340.7,228.4L331.8,225.1Z " data-id="MD.GL" data-name="Glodeni" id="MD.GL"/>
utf-8utf-8<path d="M482.0,253.7L473.9,248.4L453.7,245.3L453.2,238.4L455.4,229.5L446.4,228.0L436.8,227.4L431.1,220.8L425.1,212.4L418.8,214.2L413.9,214.6L411.1,207.1L404.9,205.7L402.9,202.3L401.3,197.9L397.0,194.0L392.2,190.4L377.8,205.9L370.7,205.9L364.3,207.7L366.3,218.1L373.8,227.0L383.1,225.6L391.6,229.2L394.8,241.7L396.7,245.6L394.8,249.5L391.2,252.8L386.4,252.9L380.2,243.6L373.0,244.2L369.5,253.5L369.9,263.8L385.8,264.8L392.1,282.2L392.6,288.6L386.3,290.6L383.2,293.7L380.8,298.0L372.8,303.4L373.3,311.2L382.0,314.6L389.1,314.5L394.5,320.1L393.6,327.8L388.6,333.2L402.7,335.3L408.4,340.2L412.9,339.2L422.3,334.1L434.4,334.8L437.8,326.8L437.0,317.0L433.3,310.1L435.1,303.6L448.3,297.9L473.4,300.4L482.2,298.8L483.4,291.8L485.8,288.0L489.2,286.0L495.1,285.2L495.3,278.9L491.6,269.6L489.6,259.9L482.0,253.7Z " data-id="MD.SI" data-name="Sîngerei" id="MD.SI"/>
utf-8utf-8<path d="M382.1,331.6L375.8,332.0L372.8,333.9L374.2,341.4L371.1,343.2L353.3,345.0L335.8,344.7L319.1,347.2L315.1,352.5L300.4,357.6L292.5,364.3L295.7,366.5L303.8,379.3L307.8,384.1L309.9,385.0L317.1,386.3L324.5,390.3L331.2,391.7L334.2,394.2L340.6,402.1L340.9,406.2L344.2,410.3L351.8,417.4L356.2,426.3L358.8,431.1L358.5,432.4L355.7,433.2L359.3,436.9L371.3,442.1L371.6,444.3L370.3,446.7L376.8,449.9L385.9,457.5L393.8,461.6L397.4,464.1L398.1,468.8L404.6,469.9L411.2,473.2L417.2,475.4L422.0,473.2L425.1,478.6L425.5,478.9L428.5,476.0L431.2,470.3L426.2,467.8L419.3,467.0L415.8,460.1L415.0,455.6L413.6,451.3L409.3,449.8L404.7,445.7L401.8,438.6L401.6,421.6L405.5,406.8L412.3,405.5L419.9,405.2L428.4,402.3L435.2,392.9L443.7,388.3L432.5,385.8L423.7,377.2L432.8,373.0L446.1,362.4L452.6,360.7L456.5,355.9L455.6,347.4L444.8,341.7L434.4,334.8L422.3,334.1L412.9,339.2L408.4,340.2L402.7,335.3L388.6,333.2L382.1,331.6Z " data-id="MD.UG" data-name="Ungheni" id="MD.UG"/>
utf-8utf-8<path d="M553.9,964.5L553.7,961.1L553.7,943.8L572.3,942.6L592.7,949.7L612.5,949.8L613.2,950.1L613.4,949.7L614.7,948.5L621.3,945.6L617.1,941.3L615.3,936.8L614.2,932.3L612.1,927.7L608.3,924.7L603.9,922.6L601.2,920.3L602.5,916.5L607.5,908.7L610.1,906.0L614.2,903.4L621.5,901.3L622.8,898.7L621.2,895.1L621.1,895.1L617.6,894.5L613.3,881.6L605.4,873.3L602.1,879.6L603.8,889.1L601.9,899.5L595.8,907.7L581.8,918.9L564.8,916.2L552.3,903.4L551.4,887.0L556.3,876.9L568.5,862.4L570.2,852.9L573.1,844.4L580.8,842.0L585.3,839.2L587.6,834.0L584.7,829.4L580.5,825.8L577.1,816.0L576.0,805.6L577.7,793.0L577.7,780.7L574.6,780.5L572.5,777.8L560.7,781.7L548.0,781.5L536.9,774.7L526.5,774.9L524.3,780.3L520.9,784.5L510.3,780.4L497.9,779.9L485.9,776.3L485.4,778.1L484.2,782.6L482.3,783.8L482.1,787.2L483.9,788.1L484.2,789.9L482.5,801.3L482.5,804.5L484.0,809.1L492.7,825.4L497.9,835.8L497.0,843.3L501.1,852.7L497.9,854.8L497.0,856.6L499.0,866.0L504.5,875.8L510.2,883.6L512.8,886.6L519.6,919.1L519.8,924.3L522.0,928.5L518.5,930.2L509.9,930.1L506.6,931.2L502.6,933.9L498.8,937.5L496.0,941.1L511.6,947.9L518.2,952.0L526.0,962.3L527.7,973.2L530.0,976.5L538.0,983.9L539.4,977.5L541.2,973.6L553.9,964.5Z " data-id="MD.CH" data-name="Cahul" id="MD.CH"/>
utf-8utf-8<path d="M620.1,892.6L623.5,886.6L640.8,885.1L647.2,881.6L647.7,878.5L645.6,870.3L647.4,868.8L654.8,867.3L659.5,864.9L662.4,862.0L663.6,857.8L663.0,851.3L661.2,845.9L655.9,834.6L655.4,829.2L657.6,824.5L661.8,821.9L706.0,811.5L712.1,808.8L711.8,802.4L705.1,788.3L703.3,780.3L704.6,775.1L712.3,766.4L717.0,757.6L719.0,749.9L716.6,742.9L709.1,737.4L709.0,737.4L704.5,745.0L693.8,755.1L690.5,784.4L678.1,806.1L636.7,819.7L626.0,820.1L618.0,809.6L615.6,805.4L614.2,800.7L616.9,795.3L608.2,788.4L597.8,782.8L587.7,780.4L577.7,780.7L577.7,793.0L576.0,805.6L577.1,816.0L580.5,825.8L584.7,829.4L587.6,834.0L585.3,839.2L580.8,842.0L573.1,844.4L570.2,852.9L578.3,858.2L585.3,865.7L596.0,867.2L605.4,873.3L613.3,881.6L617.6,894.5L621.1,895.1L621.2,895.1L620.1,892.6Z " data-id="MD.TA" data-name="Taraclia" id="MD.TA"/>
utf-8utf-8<path d="M613.2,950.1L612.5,949.8L592.7,949.7L572.3,942.6L553.7,943.8L553.7,961.1L553.9,964.5L553.9,964.5L572.9,965.8L593.2,970.3L610.1,970.8L615.3,968.6L616.0,964.8L612.8,953.8L612.1,952.5L613.2,950.1Z M605.4,873.3L596.0,867.2L585.3,865.7L578.3,858.2L570.2,852.9L568.5,862.4L556.3,876.9L551.4,887.0L552.3,903.4L564.8,916.2L581.8,918.9L595.8,907.7L601.9,899.5L603.8,889.1L602.1,879.6L605.4,873.3Z M642.2,673.6L630.2,666.3L604.6,653.6L591.8,645.9L590.0,651.3L586.3,654.5L582.7,655.0L581.5,658.5L565.7,670.7L568.0,677.5L563.9,682.6L566.5,688.5L579.3,696.2L580.9,703.2L579.3,712.6L578.5,722.6L582.2,732.4L582.5,741.6L576.8,748.7L570.0,754.5L567.1,760.1L571.4,765.3L573.1,771.4L572.5,777.8L574.6,780.5L577.7,780.7L587.7,780.4L597.8,782.8L608.2,788.4L616.9,795.3L614.2,800.7L615.6,805.4L618.0,809.6L626.0,820.1L636.7,819.7L678.1,806.1L690.5,784.4L693.8,755.1L691.2,747.2L691.1,738.3L682.2,732.6L672.5,735.0L666.8,733.0L662.0,728.4L661.8,724.4L662.1,720.6L658.4,713.0L650.8,711.3L646.1,705.0L640.0,704.2L637.9,712.0L632.3,711.8L633.9,702.7L640.4,697.1L642.7,685.9L642.2,673.6Z " data-id="MD.GA" data-name="Comrat" id="MD.GA"/>
utf-8utf-8<path d="M620.3,457.7L608.1,455.7L595.3,444.9L582.0,438.6L583.6,448.1L604.8,463.3L614.7,466.7L619.6,472.4L621.5,481.0L619.5,484.3L619.3,487.9L623.5,489.3L628.0,489.2L654.5,496.6L659.5,485.1L669.5,480.6L669.9,469.9L665.3,464.6L664.2,470.8L662.1,475.2L648.3,461.0L638.7,460.4L631.1,452.9L620.3,457.7Z " data-id="MD.CV" data-name="Chişinău" id="MD.CV"/>
utf-8utf-8<path d="M757.5,383.6L756.0,379.0L755.2,374.3L753.1,369.1L749.0,364.8L744.8,363.3L740.6,362.6L736.7,360.8L734.1,357.3L732.4,353.4L730.1,350.0L721.4,345.4L715.7,338.6L711.8,336.9L707.7,338.5L705.8,342.0L703.4,344.0L698.2,340.9L695.6,337.4L690.1,327.6L689.1,326.3L689.1,327.8L687.3,332.3L682.3,331.1L682.3,331.1L683.2,332.8L682.8,336.0L679.2,341.5L678.7,351.6L674.5,353.0L671.4,356.8L664.1,353.4L659.9,354.9L658.5,361.3L654.6,365.6L660.7,369.6L666.4,375.5L681.0,387.6L683.7,396.1L684.0,403.8L694.1,407.9L704.2,404.2L696.1,394.7L698.1,393.1L708.2,389.4L713.4,398.5L708.1,408.8L708.1,408.8L713.8,419.8L709.9,421.5L706.4,430.9L698.6,435.2L694.7,440.0L691.5,445.9L693.9,451.8L697.9,453.9L705.4,459.8L706.6,457.4L710.5,452.5L711.8,447.0L718.0,448.3L720.5,447.6L721.1,443.6L716.5,436.6L715.7,433.1L717.7,430.9L721.0,430.9L724.5,432.5L726.9,435.4L728.5,435.4L730.4,431.1L734.1,432.4L738.2,435.7L742.2,437.6L745.6,438.3L746.2,439.8L746.3,439.7L747.8,439.1L739.2,420.0L744.8,411.7L752.4,404.9L754.9,401.9L756.5,398.1L754.5,390.4L758.5,384.8L757.5,383.6Z " data-id="MD.DB" data-name="Stîngă Nistrului" id="MD.DB"/>
utf-8utf-8<path d="M798.6,499.3L792.1,497.8L787.1,499.4L782.6,502.6L777.5,505.1L770.7,504.5L760.8,497.4L756.7,492.1L753.8,486.5L757.6,487.8L761.7,487.8L765.8,486.6L771.9,483.0L773.4,482.6L774.2,480.0L773.3,480.2L771.8,478.1L769.8,473.2L771.4,473.2L774.0,474.4L774.1,470.4L771.5,460.9L769.5,458.3L757.1,448.7L750.4,446.1L746.2,442.1L746.2,439.9L746.2,439.8L740.7,442.0L737.6,449.7L738.3,463.0L740.4,476.3L743.1,485.7L740.3,491.7L731.9,488.5L723.9,483.9L715.6,486.8L707.2,488.2L697.4,471.8L689.3,470.1L682.4,474.1L678.4,481.5L674.0,481.5L669.5,480.6L659.5,485.1L654.5,496.6L659.8,507.1L667.5,510.1L669.3,506.1L671.9,503.2L677.7,504.5L684.0,506.6L690.8,507.8L696.7,511.8L696.7,518.0L693.4,522.5L696.2,529.5L706.6,532.2L710.4,534.4L709.5,539.1L709.4,542.3L712.9,545.4L729.8,549.1L732.4,557.5L738.0,559.6L743.5,554.8L749.9,560.8L756.9,560.5L763.6,561.1L763.7,553.9L764.9,550.0L768.6,552.8L772.3,553.1L778.0,543.4L783.4,542.1L789.2,542.9L795.8,542.6L802.3,541.2L798.2,529.8L805.3,523.9L805.9,519.9L804.8,516.8L803.7,509.0L802.0,503.0L799.2,499.9L798.6,499.3Z " data-id="MD.AN" data-name="Anenii Noi" id="MD.AN"/>
utf-8utf-8<path d="M642.2,673.6L642.7,685.9L640.4,697.1L633.9,702.7L632.3,711.8L637.9,712.0L640.0,704.2L646.1,705.0L650.8,711.3L658.4,713.0L662.1,720.6L661.8,724.4L662.0,728.4L666.8,733.0L672.5,735.0L682.2,732.6L691.1,738.3L691.2,747.2L693.8,755.1L704.5,745.0L709.0,737.4L709.1,737.4L699.3,730.3L694.1,725.1L693.3,720.7L694.4,716.0L695.1,710.2L694.2,705.0L687.4,689.7L683.5,677.8L683.8,668.6L688.1,661.4L706.0,650.1L714.8,647.1L714.9,631.7L709.5,628.7L690.8,627.9L685.1,628.9L680.1,631.8L677.3,637.1L669.4,643.8L667.7,648.9L664.4,653.0L658.9,653.7L651.9,658.2L653.3,667.1L650.9,672.3L642.2,673.6Z " data-id="MD.BA" data-name="Basarabeasca" id="MD.BA"/>
utf-8utf-8<path d="M559.8,668.6L554.1,667.9L550.7,670.6L550.3,676.6L542.4,683.0L531.9,679.4L530.9,672.6L526.2,671.6L521.7,673.7L516.4,675.3L513.5,680.3L509.1,682.9L503.8,681.4L503.0,680.7L501.2,681.4L499.7,682.9L499.5,692.9L498.5,694.3L495.5,695.2L495.2,697.5L497.1,704.1L495.1,716.0L492.3,718.7L484.8,721.8L484.0,724.0L485.7,729.6L485.3,731.3L479.5,733.2L480.4,736.0L489.9,746.9L491.1,749.7L489.2,757.3L488.8,765.3L485.9,776.3L497.9,779.9L510.3,780.4L520.9,784.5L524.3,780.3L526.5,774.9L536.9,774.7L548.0,781.5L560.7,781.7L572.5,777.8L573.1,771.4L571.4,765.3L567.1,760.1L570.0,754.5L576.8,748.7L582.5,741.6L582.2,732.4L578.5,722.6L579.3,712.6L580.9,703.2L579.3,696.2L566.5,688.5L563.9,682.6L568.0,677.5L565.7,670.7L559.8,668.6Z " data-id="MD.CN" data-name="Cantemir" id="MD.CN"/>
utf-8utf-8<path d="M523.8,340.5L514.6,341.4L506.2,346.7L497.4,348.7L494.4,347.2L492.0,347.1L485.3,349.6L481.1,349.7L476.8,349.0L465.1,342.7L455.6,347.4L456.5,355.9L452.6,360.7L446.1,362.4L432.8,373.0L423.7,377.2L432.5,385.8L443.7,388.3L435.2,392.9L428.4,402.3L445.5,416.5L464.1,425.3L471.7,427.5L479.4,431.2L486.7,432.6L494.1,432.8L497.5,428.5L509.9,427.5L516.1,424.8L527.7,414.4L531.8,409.2L529.5,401.1L524.7,397.0L521.7,392.3L535.6,380.1L547.1,379.0L551.6,375.9L552.6,368.1L537.2,360.1L532.2,348.0L523.8,340.5Z " data-id="MD.CA" data-name="Calarasi" id="MD.CA"/>
utf-8utf-8<path d="M674.2,552.6L670.8,551.7L661.3,545.2L657.2,547.6L653.3,551.2L646.9,550.3L640.8,550.8L628.9,550.5L616.0,541.5L614.7,547.4L616.9,553.6L609.5,555.8L602.9,559.8L597.0,564.6L590.0,567.4L588.3,581.8L583.6,591.9L585.3,599.0L590.2,603.4L589.4,607.1L587.9,610.6L587.9,615.2L588.7,620.2L585.6,624.7L587.6,628.3L591.2,636.2L591.8,645.9L604.6,653.6L630.2,666.3L642.2,673.6L650.9,672.3L653.3,667.1L651.9,658.2L658.9,653.7L664.4,653.0L667.7,648.9L669.4,643.8L677.3,637.1L680.1,631.8L685.1,628.9L690.8,627.9L709.5,628.7L714.9,631.7L714.8,647.1L719.6,645.5L740.9,634.3L746.2,634.4L744.9,625.8L739.3,614.8L727.1,606.5L712.7,602.2L696.2,583.6L685.9,567.8L678.4,547.9L674.2,552.6Z " data-id="MD.CS" data-name="Cimişlia" id="MD.CS"/>
utf-8utf-8<path d="M694.1,407.9L684.0,403.8L683.7,396.1L681.0,387.6L666.4,375.5L658.4,383.2L647.9,386.7L639.2,394.1L629.3,399.1L619.1,397.7L613.7,406.2L616.2,415.5L612.4,418.0L611.0,429.0L614.0,438.9L623.8,444.5L631.1,452.9L638.7,460.4L648.3,461.0L662.1,475.2L664.2,470.8L665.3,464.6L669.9,469.9L669.5,480.6L674.0,481.5L678.4,481.5L682.4,474.1L689.3,470.1L697.4,471.8L707.2,488.2L715.6,486.8L723.9,483.9L731.9,488.5L740.3,491.7L743.1,485.7L740.4,476.3L738.3,463.0L737.6,449.7L740.7,442.0L746.2,439.8L745.6,438.3L742.2,437.6L738.2,435.7L734.1,432.4L730.4,431.1L728.5,435.4L726.9,435.4L724.5,432.5L721.0,430.9L717.7,430.9L715.7,433.1L716.5,436.6L721.1,443.6L720.5,447.6L718.0,448.3L711.8,447.0L710.5,452.5L706.6,457.4L705.4,459.8L697.9,453.9L693.9,451.8L691.5,445.9L694.7,440.0L698.6,435.2L706.4,430.9L709.9,421.5L713.8,419.8L708.1,408.8L704.2,404.2L694.1,407.9Z " data-id="MD.CR" data-name="Criuleni" id="MD.CR"/>
utf-8utf-8<path d="M483.6,162.5L475.6,158.2L470.9,160.6L466.1,161.8L453.2,157.6L448.3,154.9L443.5,153.3L440.7,159.6L432.6,161.2L423.9,160.5L405.8,160.5L388.4,163.1L388.5,170.8L392.0,178.4L394.0,180.7L395.1,183.8L393.9,187.0L392.2,190.4L397.0,194.0L401.3,197.9L402.9,202.3L404.9,205.7L411.1,207.1L413.9,214.6L418.8,214.2L425.1,212.4L431.1,220.8L436.8,227.4L446.4,228.0L455.4,229.5L453.2,238.4L453.7,245.3L473.9,248.4L482.0,253.7L489.6,259.9L493.1,256.0L498.0,253.9L502.9,256.7L507.6,258.8L513.9,249.3L519.7,237.8L514.1,225.4L504.4,221.2L500.2,218.4L496.2,217.7L492.7,221.5L487.8,208.3L498.9,194.5L502.3,185.8L502.7,171.7L498.9,162.2L490.7,159.2L483.6,162.5Z " data-id="MD.FL" data-name="Floreşti" id="MD.FL"/>
utf-8utf-8<path d="M825.0,492.3L825.1,480.2L827.4,476.6L830.1,473.5L831.4,469.1L830.4,464.1L827.9,459.7L824.4,456.2L820.6,454.2L815.8,454.6L813.3,458.3L811.7,462.5L809.2,464.5L806.6,462.5L796.7,449.7L795.7,446.6L796.1,445.7L803.3,445.1L808.7,443.7L811.9,439.8L812.2,431.8L807.0,414.8L806.9,407.7L812.9,404.8L815.0,399.2L813.7,391.6L810.2,384.1L805.8,378.4L801.0,375.1L795.8,373.6L790.6,373.3L785.5,373.8L783.5,378.9L783.1,383.8L782.0,388.4L778.0,392.1L774.0,393.2L769.8,392.9L765.6,391.2L761.7,388.6L758.5,384.8L754.5,390.4L756.5,398.1L754.9,401.9L752.4,404.9L744.8,411.7L739.2,420.0L747.8,439.1L746.3,439.7L746.2,439.8L746.2,439.9L746.2,442.1L750.4,446.1L757.1,448.7L769.5,458.3L771.5,460.9L774.1,470.4L774.0,474.4L771.4,473.2L769.8,473.2L771.8,478.1L773.3,480.2L774.2,480.0L773.4,482.6L771.9,483.0L765.8,486.6L761.7,487.8L757.6,487.8L753.8,486.5L756.7,492.1L760.8,497.4L770.7,504.5L777.5,505.1L782.6,502.6L787.1,499.4L792.1,497.8L798.6,499.3L799.2,499.9L799.2,499.9L803.1,497.2L824.3,496.6L824.5,496.6L825.0,492.3Z " data-id="MD.DU" data-name="Grigoriopol" id="MD.DU"/>
utf-8utf-8<path d="M708.1,408.8L713.4,398.5L708.2,389.4L698.1,393.1L696.1,394.7L704.2,404.2L708.1,408.8L708.1,408.8Z " data-id="MD.DB" data-name="Transnistria" id="MD.DB"/>
utf-8utf-8<path d="M611.1,528.0L602.4,521.1L599.1,526.3L594.8,529.0L592.5,525.0L591.7,520.2L589.9,515.5L586.5,512.5L572.1,502.9L558.5,491.4L559.6,486.2L559.5,480.4L550.1,475.5L540.7,468.0L537.1,470.0L534.9,473.5L543.3,478.4L538.0,491.8L529.6,504.6L522.3,501.7L523.7,492.6L519.4,486.2L503.4,470.2L500.2,476.8L503.4,481.2L505.9,486.0L502.2,491.5L495.9,492.8L485.6,503.1L478.7,514.8L449.6,510.5L447.2,510.0L447.5,510.8L445.9,515.7L450.6,518.3L451.6,525.8L454.9,529.0L455.5,537.9L461.0,547.1L473.7,562.6L474.5,568.7L492.7,593.9L496.6,602.7L497.0,604.0L501.4,602.3L509.5,600.5L512.7,607.6L518.8,610.1L531.8,607.3L533.8,604.7L531.3,600.7L530.2,597.2L530.3,591.0L524.2,584.7L527.0,582.6L531.0,582.4L532.8,574.0L542.7,576.2L552.4,583.2L561.4,581.5L570.7,576.0L579.9,579.0L583.6,591.9L588.3,581.8L590.0,567.4L597.0,564.6L602.9,559.8L609.5,555.8L616.9,553.6L614.7,547.4L616.0,541.5L611.1,528.0Z " data-id="MD.HI" data-name="Hîncesti" id="MD.HI"/>
utf-8utf-8<path d="M610.6,478.6L600.0,479.1L593.2,475.4L586.4,473.2L582.2,476.0L579.1,480.0L568.5,474.5L560.5,463.7L553.1,464.0L544.6,463.2L542.9,465.8L540.7,468.0L550.1,475.5L559.5,480.4L559.6,486.2L558.5,491.4L572.1,502.9L586.5,512.5L589.9,515.5L591.7,520.2L592.5,525.0L594.8,529.0L599.1,526.3L602.4,521.1L611.1,528.0L616.0,541.5L628.9,550.5L640.8,550.8L646.9,550.3L653.3,551.2L657.2,547.6L661.3,545.2L670.8,551.7L674.2,552.6L678.4,547.9L685.0,545.0L692.1,543.3L699.7,538.2L706.6,532.2L696.2,529.5L693.4,522.5L696.7,518.0L696.7,511.8L690.8,507.8L684.0,506.6L677.7,504.5L671.9,503.2L669.3,506.1L667.5,510.1L659.8,507.1L654.5,496.6L628.0,489.2L623.5,489.3L619.3,487.9L619.5,484.3L621.5,481.0L619.6,472.4L614.7,466.7L610.6,478.6Z " data-id="MD.IA" data-name="Ialoveni" id="MD.IA"/>
utf-8utf-8<path d="M579.9,579.0L570.7,576.0L561.4,581.5L552.4,583.2L542.7,576.2L532.8,574.0L531.0,582.4L527.0,582.6L524.2,584.7L530.3,591.0L530.2,597.2L531.3,600.7L533.8,604.7L531.8,607.3L518.8,610.1L512.7,607.6L509.5,600.5L501.4,602.3L497.0,604.0L498.1,607.4L498.6,611.9L497.4,615.4L495.4,619.4L494.7,624.1L497.7,629.5L495.5,630.9L494.9,633.3L496.0,645.5L496.9,648.1L501.1,653.9L504.3,654.7L505.0,657.4L506.5,667.5L506.5,670.2L505.4,672.7L501.9,674.3L504.4,678.7L503.4,680.5L503.0,680.7L503.8,681.4L509.1,682.9L513.5,680.3L516.4,675.3L521.7,673.7L526.2,671.6L530.9,672.6L531.9,679.4L542.4,683.0L550.3,676.6L550.7,670.6L554.1,667.9L559.8,668.6L565.7,670.7L581.5,658.5L582.7,655.0L586.3,654.5L590.0,651.3L591.8,645.9L591.2,636.2L587.6,628.3L585.6,624.7L588.7,620.2L587.9,615.2L587.9,610.6L589.4,607.1L590.2,603.4L585.3,599.0L583.6,591.9L579.9,579.0Z " data-id="MD.LE" data-name="Leova" id="MD.LE"/>
utf-8utf-8<path d="M486.7,432.6L479.4,431.2L471.7,427.5L464.1,425.3L445.5,416.5L428.4,402.3L419.9,405.2L412.3,405.5L405.5,406.8L401.6,421.6L401.8,438.6L404.7,445.7L409.3,449.8L413.6,451.3L415.0,455.6L415.8,460.1L419.3,467.0L426.2,467.8L431.2,470.3L428.5,476.0L425.5,478.9L434.7,487.7L439.1,493.3L445.8,505.1L447.2,510.0L449.6,510.5L478.7,514.8L485.6,503.1L495.9,492.8L502.2,491.5L505.9,486.0L503.4,481.2L500.2,476.8L503.4,470.2L519.4,486.2L523.7,492.6L522.3,501.7L529.6,504.6L538.0,491.8L543.3,478.4L534.9,473.5L537.1,470.0L540.7,468.0L542.9,465.8L544.6,463.2L538.0,457.3L530.7,460.1L525.8,458.9L521.3,456.1L516.2,456.7L511.6,459.1L503.4,458.2L498.3,449.6L500.4,445.6L501.7,440.9L497.8,436.0L494.1,432.8L486.7,432.6Z " data-id="MD.NI" data-name="Nisporeni" id="MD.NI"/>
utf-8utf-8<path d="M647.4,306.4L637.2,295.1L630.0,290.3L623.3,288.8L622.1,292.7L619.3,295.6L613.1,296.6L604.4,307.8L597.5,310.4L590.9,309.0L585.0,304.6L579.8,303.5L574.7,303.3L554.9,316.6L549.4,319.3L544.7,323.1L544.5,326.3L545.0,329.7L543.2,332.6L543.3,335.6L545.7,338.7L546.1,342.4L532.2,348.0L537.2,360.1L552.6,368.1L551.6,375.9L556.6,378.9L561.5,379.6L565.7,375.7L571.2,376.1L575.3,383.0L578.7,390.8L583.2,399.0L589.1,405.4L596.8,403.1L603.1,403.7L607.4,411.3L612.4,418.0L616.2,415.5L613.7,406.2L619.1,397.7L629.3,399.1L639.2,394.1L647.9,386.7L658.4,383.2L666.4,375.5L660.7,369.6L654.6,365.6L658.5,361.3L659.9,354.9L664.1,353.4L671.4,356.8L674.5,353.0L678.7,351.6L679.2,341.5L682.8,336.0L683.2,332.8L682.3,331.1L680.8,328.2L677.5,325.2L665.2,319.1L660.4,315.0L658.3,311.5L647.4,306.4Z " data-id="MD.OH" data-name="Orhei" id="MD.OH"/>
utf-8utf-8<path d="M657.6,310.3L655.9,304.7L654.7,298.0L652.9,294.4L645.9,287.0L643.4,281.3L644.4,275.9L644.3,271.9L641.9,268.7L638.6,260.1L634.7,241.8L634.9,234.6L641.6,214.6L640.4,205.9L629.6,198.8L619.3,196.3L619.3,196.3L623.6,202.2L626.7,209.8L622.1,208.3L617.4,207.3L614.8,210.6L614.3,215.5L595.7,212.9L592.0,218.5L596.3,219.9L596.9,222.7L590.7,224.9L585.0,227.8L580.9,244.4L561.4,241.4L548.2,250.4L543.9,266.8L559.5,273.8L563.4,277.0L566.6,282.0L574.7,287.0L573.8,294.3L574.7,303.3L579.8,303.5L585.0,304.6L590.9,309.0L597.5,310.4L604.4,307.8L613.1,296.6L619.3,295.6L622.1,292.7L623.3,288.8L630.0,290.3L637.2,295.1L647.4,306.4L658.3,311.5L657.6,310.3Z " data-id="MD.RZ" data-name="Rezina" id="MD.RZ"/>
utf-8utf-8<path d="M687.0,323.4L681.6,310.3L683.8,301.7L689.3,294.1L694.6,284.2L695.4,271.9L693.4,260.4L693.4,250.3L699.8,241.9L702.3,237.7L700.7,234.2L697.0,231.6L687.7,228.9L684.9,226.7L684.3,223.2L685.8,217.4L688.4,213.8L692.5,209.4L695.8,204.8L696.0,200.3L693.2,198.8L682.6,196.1L678.6,193.7L675.8,189.0L671.9,177.8L669.1,172.8L665.4,168.6L661.9,166.1L658.1,164.9L653.6,164.7L645.9,168.1L636.4,180.7L627.2,182.2L618.9,179.5L614.9,177.1L614.4,182.4L615.6,192.5L617.4,193.6L619.3,196.3L629.6,198.8L640.4,205.9L641.6,214.6L634.9,234.6L634.7,241.8L638.6,260.1L641.9,268.7L644.3,271.9L644.4,275.9L643.4,281.3L645.9,287.0L652.9,294.4L654.7,298.0L655.9,304.7L657.6,310.3L658.3,311.5L660.4,315.0L665.2,319.1L677.5,325.2L680.8,328.2L682.3,331.1L682.3,331.1L687.3,332.3L689.1,327.8L689.1,326.3L687.0,323.4Z " data-id="MD.RZ" data-name="Rezina" id="MD.RZ"/>
utf-8utf-8<path d="M597.5,190.9L588.3,185.2L587.5,177.4L581.9,169.5L573.9,163.9L570.6,167.8L567.4,172.2L563.2,173.5L558.5,173.6L549.8,179.8L545.0,191.2L545.7,198.2L549.8,204.5L542.3,209.7L531.9,202.9L522.6,195.0L512.3,193.1L505.8,196.2L498.9,194.5L487.8,208.3L492.7,221.5L496.2,217.7L500.2,218.4L504.4,221.2L514.1,225.4L519.7,237.8L533.5,245.8L548.2,250.4L561.4,241.4L580.9,244.4L585.0,227.8L590.7,224.9L596.9,222.7L596.3,219.9L592.0,218.5L595.7,212.9L614.3,215.5L614.8,210.6L617.4,207.3L622.1,208.3L626.7,209.8L623.6,202.2L619.3,196.3L619.3,196.3L597.5,190.9Z " data-id="MD.SD" data-name="Şoldăneşti" id="MD.SD"/>
utf-8utf-8<path d="M607.4,411.3L603.1,403.7L596.8,403.1L589.1,405.4L583.2,399.0L578.7,390.8L575.3,383.0L571.2,376.1L565.7,375.7L561.5,379.6L556.6,378.9L551.6,375.9L547.1,379.0L535.6,380.1L521.7,392.3L524.7,397.0L529.5,401.1L531.8,409.2L527.7,414.4L516.1,424.8L509.9,427.5L497.5,428.5L494.1,432.8L497.8,436.0L501.7,440.9L500.4,445.6L498.3,449.6L503.4,458.2L511.6,459.1L516.2,456.7L521.3,456.1L525.8,458.9L530.7,460.1L538.0,457.3L544.6,463.2L553.1,464.0L560.5,463.7L568.5,474.5L579.1,480.0L582.2,476.0L586.4,473.2L593.2,475.4L600.0,479.1L610.6,478.6L614.7,466.7L604.8,463.3L583.6,448.1L582.0,438.6L595.3,444.9L608.1,455.7L620.3,457.7L631.1,452.9L623.8,444.5L614.0,438.9L611.0,429.0L612.4,418.0L607.4,411.3Z " data-id="MD.ST" data-name="Străşeni" id="MD.ST"/>
utf-8utf-8<path d="M533.5,245.8L519.7,237.8L513.9,249.3L507.6,258.8L502.9,256.7L498.0,253.9L493.1,256.0L489.6,259.9L491.6,269.6L495.3,278.9L495.1,285.2L489.2,286.0L485.8,288.0L483.4,291.8L482.2,298.8L473.4,300.4L448.3,297.9L435.1,303.6L433.3,310.1L437.0,317.0L437.8,326.8L434.4,334.8L444.8,341.7L455.6,347.4L465.1,342.7L476.8,349.0L481.1,349.7L485.3,349.6L492.0,347.1L494.4,347.2L497.4,348.7L506.2,346.7L514.6,341.4L523.8,340.5L532.2,348.0L546.1,342.4L545.7,338.7L543.3,335.6L543.2,332.6L545.0,329.7L544.5,326.3L544.7,323.1L549.4,319.3L554.9,316.6L574.7,303.3L573.8,294.3L574.7,287.0L566.6,282.0L563.4,277.0L559.5,273.8L543.9,266.8L548.2,250.4L533.5,245.8Z " data-id="MD.TE" data-name="Teleneşti" id="MD.TE"/>
utf-8utf-8<path d="M795.8,542.6L789.2,542.9L783.4,542.1L778.0,543.4L772.3,553.1L768.6,552.8L764.9,550.0L763.7,553.9L763.6,561.1L756.9,560.5L749.9,560.8L743.5,554.8L738.0,559.6L732.4,557.5L729.8,549.1L712.9,545.4L709.4,542.3L709.5,539.1L710.4,534.4L706.6,532.2L699.7,538.2L692.1,543.3L685.0,545.0L678.4,547.9L685.9,567.8L696.2,583.6L712.7,602.2L727.1,606.5L739.3,614.8L744.9,625.8L746.2,634.4L746.5,634.4L751.3,638.9L754.1,645.9L758.3,673.4L758.3,677.3L757.1,680.4L753.8,686.5L754.4,689.9L759.3,693.2L764.7,690.2L772.9,681.1L775.9,680.1L779.0,680.1L780.2,675.9L779.9,673.0L777.7,666.4L778.0,662.5L781.6,655.8L785.4,656.9L793.2,668.2L798.7,674.1L802.0,674.0L811.2,658.9L815.4,654.3L820.2,651.8L818.9,647.8L815.0,639.8L808.2,633.5L806.2,627.5L808.4,621.5L807.6,616.8L807.4,612.3L813.3,606.7L820.1,602.7L829.3,604.5L831.9,599.2L834.0,593.8L838.3,593.8L842.0,592.6L841.9,583.4L838.4,573.9L831.9,559.8L825.5,554.3L825.2,554.7L817.4,550.3L815.6,552.3L812.2,551.4L807.9,545.1L802.3,541.2L795.8,542.6Z " data-id="MD.CU" data-name="Causeni" id="MD.CU"/>
utf-8utf-8<path d="M936.8,629.1L942.4,628.1L944.4,621.1L943.4,618.0L939.1,611.3L937.6,608.0L937.2,603.7L939.0,593.9L938.1,573.6L936.8,567.6L931.7,560.4L930.3,558.1L929.5,555.1L928.5,548.1L927.6,545.9L924.6,544.6L920.0,546.9L917.7,546.8L916.1,545.0L913.2,539.1L911.6,536.8L903.4,531.5L895.9,530.7L888.3,531.3L879.9,530.2L874.7,527.2L867.3,518.7L862.5,515.0L858.3,513.8L849.7,513.2L845.3,511.9L842.8,510.2L838.1,506.1L835.6,505.0L829.1,505.6L827.5,505.3L824.7,501.7L824.4,497.4L824.5,496.6L824.3,496.6L803.1,497.2L799.2,499.9L799.2,499.9L802.0,503.0L803.7,509.0L804.8,516.8L805.9,519.9L805.3,523.9L798.2,529.8L802.3,541.2L807.9,545.1L812.2,551.4L815.6,552.3L817.4,550.3L825.2,554.7L825.5,554.3L831.9,559.8L838.4,573.9L845.4,577.4L851.6,582.1L861.1,584.1L870.6,589.1L874.6,590.4L875.9,593.1L878.0,593.1L882.0,591.4L890.6,595.1L896.5,604.7L893.1,606.2L889.7,608.5L887.0,611.7L889.6,616.4L898.8,620.5L901.6,619.7L912.7,617.9L915.6,619.9L918.9,620.5L922.8,620.5L930.0,627.8L932.4,629.5L936.8,629.1Z " data-id="MD.BD" data-name="Bender" id="MD.BD"/>
utf-8utf-8<path d="M838.4,573.9L841.9,583.4L842.0,592.6L838.3,593.8L834.0,593.8L831.9,599.2L829.3,604.5L820.1,602.7L813.3,606.7L807.4,612.3L807.6,616.8L808.4,621.5L806.2,627.5L808.2,633.5L815.0,639.8L818.9,647.8L820.2,651.8L820.4,651.7L826.6,652.6L828.4,654.6L829.2,656.7L826.8,663.8L826.7,666.3L827.5,668.8L829.3,671.1L833.5,672.5L841.9,673.9L845.7,675.0L849.9,677.9L854.5,685.0L858.7,689.1L863.1,691.3L867.6,691.7L871.7,690.3L874.7,687.2L875.9,681.9L873.4,673.9L874.8,671.9L882.2,671.8L887.2,670.1L889.4,665.3L888.1,656.1L892.2,661.1L907.6,672.4L914.1,679.8L915.8,682.5L916.6,685.5L917.4,691.8L918.3,694.0L924.2,699.0L929.2,698.3L937.8,690.9L942.1,688.6L946.2,687.8L977.5,689.4L988.7,687.7L994.6,681.9L999.5,671.8L995.7,669.9L991.4,669.3L987.5,669.9L985.2,671.8L980.1,667.3L966.9,659.1L968.5,656.3L964.4,650.6L960.1,647.2L958.6,647.2L954.1,649.4L953.1,648.7L950.7,644.8L938.5,640.6L934.3,636.7L932.4,629.5L930.0,627.8L922.8,620.5L918.9,620.5L915.6,619.9L912.7,617.9L901.6,619.7L898.8,620.5L889.6,616.4L887.0,611.7L889.7,608.5L893.1,606.2L896.5,604.7L890.6,595.1L882.0,591.4L878.0,593.1L875.9,593.1L874.6,590.4L870.6,589.1L861.1,584.1L851.6,582.1L845.4,577.4L838.4,573.9Z " data-id="MD.SV" data-name="Ştefan Voda" id="MD.SV"/>
utf-8utf-8<path d="M494.0,122.8L506.3,129.6L501.7,141.2L492.8,147.4L490.7,159.2L498.9,162.2L502.7,171.7L502.3,185.8L498.9,194.5L505.8,196.2L512.3,193.1L522.6,195.0L531.9,202.9L542.3,209.7L549.8,204.5L545.7,198.2L545.0,191.2L549.8,179.8L558.5,173.6L563.2,173.5L567.4,172.2L570.6,167.8L573.9,163.9L581.9,169.5L587.5,177.4L588.3,185.2L597.5,190.9L619.3,196.3L617.4,193.6L615.6,192.5L614.4,182.4L614.9,177.1L608.8,173.5L599.4,165.8L590.9,155.7L586.1,152.3L584.1,150.2L583.3,148.2L581.2,139.7L575.8,131.2L573.4,124.4L571.3,121.8L563.4,117.7L553.9,116.3L535.9,116.1L510.9,107.8L502.5,107.4L497.1,109.7L494.1,121.5L494.0,122.8Z " data-id="MD.SD" data-name="Camenca" id="MD.SD"/>
utf-8utf-8<path d="M493.3,128.3L494.0,133.9L493.5,136.9L490.9,137.1L485.2,134.0L481.7,131.3L472.5,118.4L476.2,114.4L475.8,109.4L472.6,105.0L468.2,102.6L462.4,103.3L459.6,107.2L457.6,112.2L454.1,116.0L448.9,116.9L445.6,114.2L444.4,109.6L445.5,105.1L448.9,101.1L452.4,99.0L454.8,96.0L455.5,89.3L454.1,83.1L451.1,80.5L446.5,80.0L434.8,81.2L430.8,83.6L427.1,86.6L422.0,89.3L416.1,90.5L411.6,89.3L408.3,85.6L406.4,79.3L403.8,73.9L399.6,74.5L392.5,80.2L388.6,81.1L382.8,80.9L378.7,78.5L381.9,65.7L379.6,59.9L374.8,55.7L369.2,53.6L355.3,52.1L360.8,66.0L362.7,79.9L352.4,83.9L348.3,94.6L378.8,110.3L390.1,120.4L395.1,134.3L390.3,138.1L384.0,140.7L378.7,151.3L376.7,156.8L388.4,163.1L405.8,160.5L423.9,160.5L432.6,161.2L440.7,159.6L443.5,153.3L448.3,154.9L453.2,157.6L466.1,161.8L470.9,160.6L475.6,158.2L483.6,162.5L490.7,159.2L492.8,147.4L501.7,141.2L506.3,129.6L494.0,122.8L493.3,128.3Z " data-id="MD.SO" data-name="Soroca" id="MD.SO"/>
utf-8</g>
</svg>
