<?xml version="1.0" ?>
<!DOCTYPE svg
  PUBLIC '-//W3C//DTD SVG 1.1//EN'
  'http://www.w3.org/Graphics/SVG/1.1/DTD/svg11.dtd'>
<svg enable_background="new 0 0 1000 719" height="719px" pretty_print="True" style="stroke-linejoin: round; stroke:#000; fill: none;" version="1.1" viewBox="0 0 1000 719" width="1000px" xmlns="http://www.w3.org/2000/svg" xmlns:xlink="http://www.w3.org/1999/xlink">
utf-8<defs>
utf-8utf-8<style type="text/css">
<![CDATA[path { fill-rule: evenodd; }]]>utf-8utf-8</style>
utf-8</defs>
utf-8<metadata>
utf-8utf-8<views>
utf-8utf-8utf-8<view h="719.384824513" padding="0" w="1000">
utf-8utf-8utf-8utf-8<proj flip="auto" id="robinson" lon0="20.9900682803"/>
utf-8utf-8utf-8utf-8<bbox h="24.75" w="34.45" x="276.82" y="-710.73"/>
utf-8utf-8utf-8</view>
utf-8utf-8</views>
utf-8</metadata>
utf-8<g class="" id="provinces">
utf-8utf-8<path d="M237.3,715.9L235.6,714.9L235.8,717.2L237.3,715.9Z M346.0,713.6L347.4,709.6L348.3,704.1L348.8,698.9L349.9,696.0L350.1,692.8L349.0,690.5L344.7,688.1L344.6,682.1L342.3,676.0L340.1,674.5L330.4,674.2L326.3,673.1L326.0,669.3L324.0,666.2L319.2,660.6L313.6,658.0L297.2,658.3L294.1,656.0L293.7,652.2L292.5,649.4L286.0,643.3L283.8,639.8L282.4,635.8L282.0,631.4L280.2,630.1L273.2,629.0L270.2,626.1L269.7,620.7L270.8,616.0L273.9,613.9L277.5,610.6L280.8,604.5L281.1,599.0L279.8,594.7L275.9,591.1L275.7,588.6L275.9,588.5L274.5,586.9L269.9,581.1L267.1,573.6L266.5,567.6L263.7,557.7L261.7,554.0L254.2,553.7L251.3,550.8L249.8,546.8L249.4,547.6L246.3,553.7L242.0,558.6L234.2,564.4L226.5,568.4L211.5,577.1L207.3,581.1L200.3,590.4L198.1,597.9L197.2,608.0L197.9,619.3L197.8,623.0L194.6,624.5L192.9,626.2L193.7,633.1L196.1,635.5L198.6,640.1L199.0,644.4L198.8,649.6L196.0,652.8L186.0,653.7L181.8,656.9L180.4,662.4L179.5,668.7L180.4,678.6L182.2,684.7L182.5,684.6L203.6,687.3L223.6,692.7L230.8,698.5L232.1,701.6L236.1,699.6L241.0,691.0L238.4,686.2L234.0,685.0L222.7,676.4L217.5,677.0L213.2,675.4L208.9,670.0L207.8,663.1L210.7,657.1L221.2,645.6L228.7,640.8L237.0,641.4L255.1,647.1L255.0,644.9L252.3,643.9L255.2,643.3L257.5,643.6L259.5,644.9L260.6,647.1L266.8,655.1L268.1,659.3L270.5,660.6L273.3,661.1L275.7,663.4L283.2,684.3L287.6,691.2L296.5,714.2L296.0,717.4L321.0,710.3L331.3,710.8L346.0,713.6Z " data-id="MK.RE" data-name="Resen" id="MK.RE"/>
utf-8utf-8<path d="M36.3,536.4L42.4,548.4L74.2,543.2L83.9,539.0L85.9,534.8L83.9,531.5L74.2,529.1L62.3,527.8L33.8,529.4L36.3,536.4Z " data-id="MK.VV" data-name="Vevčani" id="MK.VV"/>
utf-8utf-8<path d="M354.9,548.1L352.0,546.3L349.4,543.8L347.5,544.3L346.8,544.5L343.5,547.1L340.2,553.2L333.5,558.2L329.2,560.4L325.6,560.8L321.3,568.7L316.3,569.1L310.6,572.3L306.6,577.7L297.7,581.7L288.6,582.8L280.0,586.8L275.9,588.5L275.7,588.6L275.9,591.1L279.8,594.7L281.1,599.0L280.8,604.5L277.5,610.6L273.9,613.9L270.8,616.0L269.7,620.7L270.2,626.1L273.2,629.0L280.2,630.1L282.0,631.4L282.4,635.8L283.8,639.8L286.0,643.3L292.5,649.4L293.7,652.2L294.1,656.0L297.2,658.3L313.6,658.0L319.2,660.6L324.0,666.2L326.0,669.3L326.3,673.1L330.4,674.2L340.1,674.5L342.3,676.0L344.6,682.1L344.7,688.1L349.0,690.5L350.1,692.8L349.9,696.0L348.8,698.9L348.3,704.1L347.4,709.6L346.0,713.6L352.1,714.7L365.7,714.7L378.8,712.1L384.6,708.9L397.7,695.8L406.7,691.9L416.3,691.8L446.7,695.6L448.3,690.0L447.9,685.7L446.0,679.9L445.3,675.6L443.8,671.6L439.0,665.8L433.3,660.7L427.7,655.2L425.7,651.8L421.9,650.6L417.1,649.8L415.6,639.4L414.5,635.1L407.9,628.5L406.7,623.7L406.7,620.2L407.9,618.2L408.6,615.3L408.1,610.5L408.7,608.4L407.7,607.6L401.8,606.9L399.9,607.4L393.3,611.6L388.1,610.9L384.8,609.2L382.7,607.4L381.5,604.8L380.8,595.7L380.9,592.2L379.3,585.9L376.8,583.8L371.4,582.1L367.3,579.8L363.5,576.0L361.0,571.8L359.2,567.6L358.8,563.0L360.5,560.2L361.7,556.9L361.3,552.9L358.0,548.9L357.4,548.4L354.9,548.1Z " data-id="MK.TL" data-name="Bitola" id="MK.TL"/>
utf-8utf-8<path d="M279.1,464.6L273.4,467.3L272.6,470.9L267.1,476.3L261.1,479.9L249.5,480.4L241.6,480.4L230.6,480.1L221.7,483.9L213.4,489.9L211.4,494.3L211.0,495.1L211.5,500.0L212.8,503.8L215.9,506.7L220.0,509.5L228.0,513.3L232.7,522.8L235.6,526.0L240.4,528.3L240.9,533.8L244.3,539.6L245.7,541.4L248.7,545.3L249.4,547.6L249.8,546.8L251.3,550.8L254.2,553.7L261.7,554.0L263.7,557.7L266.5,567.6L267.1,573.6L269.9,581.1L274.5,586.9L275.9,588.5L280.0,586.8L288.6,582.8L297.7,581.7L306.6,577.7L310.6,572.3L316.3,569.1L321.3,568.7L325.6,560.8L329.2,560.4L333.5,558.2L340.2,553.2L343.5,547.1L346.8,544.5L347.5,544.3L347.3,539.4L348.1,536.3L347.2,526.4L344.6,522.8L339.8,519.1L337.4,513.3L335.7,507.4L330.3,502.0L326.5,500.7L322.9,502.5L315.9,502.9L314.7,493.9L313.6,482.2L310.6,478.6L306.1,478.6L300.1,477.7L294.2,478.6L293.5,471.8L290.4,469.6L283.8,466.9L280.8,465.5L279.1,464.6Z " data-id="MK.DM" data-name="Demir Hisar" id="MK.DM"/>
utf-8utf-8<path d="M240.1,542.7L229.0,541.5L221.2,540.2L210.4,533.8L200.9,530.7L195.7,529.4L189.2,529.1L185.0,529.4L178.6,531.9L168.6,531.6L164.8,532.3L162.3,534.5L161.9,538.3L157.2,541.2L153.2,549.7L154.3,555.5L154.6,559.3L148.0,561.8L146.1,566.6L140.3,573.8L141.9,575.4L144.3,583.4L147.2,587.2L153.8,591.1L161.2,594.0L167.0,594.9L163.3,603.7L163.7,614.3L168.1,638.8L166.7,648.7L163.0,659.5L160.9,669.4L163.7,676.4L164.0,679.7L159.8,682.2L148.6,684.6L140.4,691.6L138.8,692.0L145.6,697.0L155.8,699.0L162.5,696.5L174.6,686.4L182.2,684.7L180.4,678.6L179.5,668.7L180.4,662.4L181.8,656.9L186.0,653.7L196.0,652.8L198.8,649.6L199.0,644.4L198.6,640.1L196.1,635.5L193.7,633.1L192.9,626.2L194.6,624.5L197.8,623.0L197.9,619.3L197.2,608.0L198.1,597.9L200.3,590.4L207.3,581.1L211.5,577.1L226.5,568.4L234.2,564.4L242.0,558.6L246.3,553.7L249.4,547.6L248.7,545.3L245.7,541.4L240.1,542.7Z " data-id="MK.OD" data-name="Ohrid" id="MK.OD"/>
utf-8utf-8<path d="M518.0,201.2L513.9,198.7L510.4,194.7L506.5,192.4L500.8,192.2L496.3,192.6L494.3,194.2L491.4,195.4L488.8,195.4L486.4,194.4L484.5,190.6L480.4,188.0L476.5,187.3L470.5,184.5L468.1,182.2L467.2,182.5L462.9,193.2L462.7,197.0L465.2,199.0L466.5,203.2L465.5,205.5L455.5,206.3L451.9,204.7L448.4,202.2L445.0,202.2L442.8,205.5L438.2,207.6L434.2,210.2L431.3,210.9L430.5,212.4L429.8,213.5L427.0,216.6L426.7,216.9L425.6,218.2L425.0,221.0L426.1,223.6L428.5,224.1L432.6,224.1L433.0,224.1L435.2,224.4L438.6,224.4L442.4,225.4L447.7,227.7L451.3,227.4L453.4,229.9L454.1,236.3L455.1,253.9L452.3,258.6L452.5,259.5L452.7,260.7L456.8,262.3L464.1,263.2L465.8,261.5L468.4,261.7L468.9,265.2L468.7,267.9L470.9,267.9L472.1,265.4L475.6,261.7L475.6,260.1L478.4,260.1L483.2,265.6L488.0,267.1L490.0,266.5L490.8,264.6L492.4,254.9L493.8,250.1L494.4,241.7L493.9,237.1L492.2,229.7L492.3,228.0L494.5,227.0L499.5,227.2L504.6,225.3L513.1,219.2L517.1,216.2L516.8,211.0L518.4,204.5L519.5,201.9L518.0,201.2Z " data-id="MK.PE" data-name="Skopje" id="MK.PE"/>
utf-8utf-8<path d="M300.8,443.2L299.1,439.4L295.2,437.3L291.1,436.8L286.3,435.1L282.1,430.5L281.5,428.7L280.6,421.4L278.6,420.1L273.8,420.1L265.6,424.2L262.1,425.4L256.3,425.7L252.6,426.7L252.4,426.7L245.2,424.7L239.2,425.4L238.3,427.3L238.4,430.4L240.6,434.6L241.8,438.7L242.1,442.2L245.1,446.0L249.7,444.7L252.2,444.7L252.6,444.7L255.8,443.1L259.0,442.8L263.8,450.1L275.5,454.5L277.7,455.9L278.3,454.6L281.1,452.8L295.1,447.7L300.5,444.7L300.9,444.5L300.8,443.2Z " data-id="MK.PN" data-name="Plasnica" id="MK.PN"/>
utf-8utf-8<path d="M524.6,437.2L520.7,430.9L516.9,429.1L509.8,426.3L508.0,423.9L503.1,423.2L498.4,426.0L488.3,426.7L486.2,429.3L486.5,438.6L484.2,444.2L478.5,446.1L474.9,445.8L473.8,443.3L471.4,440.2L468.3,438.4L461.9,437.7L460.2,437.7L460.0,437.7L455.9,439.5L453.1,442.6L451.4,448.4L451.1,454.0L442.7,456.8L438.6,462.2L434.7,464.0L421.8,464.5L412.9,467.0L404.8,467.0L400.2,471.0L396.7,476.8L394.0,477.3L390.1,480.6L388.9,481.7L387.2,483.1L383.1,486.6L383.6,491.1L385.4,492.2L385.8,494.8L387.5,496.7L395.5,497.4L397.4,498.5L397.8,502.7L396.6,506.0L394.8,508.3L394.9,512.5L394.0,519.8L389.3,524.9L386.7,528.4L383.6,530.5L378.0,530.7L375.7,531.3L375.2,531.4L375.9,534.5L378.1,537.0L384.2,538.2L387.9,538.4L393.2,541.2L398.4,548.0L403.6,551.5L405.4,555.3L407.9,557.4L416.5,557.8L419.1,558.8L422.2,563.2L430.1,566.9L438.8,567.2L443.5,563.9L446.4,563.9L454.1,569.0L459.7,570.9L465.7,571.8L470.5,573.2L472.1,574.8L475.2,572.1L478.0,571.8L479.9,573.5L481.8,576.9L484.3,580.1L490.8,584.1L496.2,585.8L516.4,588.4L529.9,594.1L539.6,595.8L543.4,598.1L547.9,603.0L551.4,605.0L557.0,606.5L566.0,606.2L567.3,603.3L569.8,603.6L571.5,606.5L575.1,609.6L579.7,613.1L584.0,613.9L593.1,617.6L592.6,609.7L593.8,605.2L596.6,602.0L602.6,597.6L601.2,591.9L600.8,587.7L599.5,585.3L591.8,585.1L588.7,584.3L586.3,582.9L585.2,579.2L584.0,572.4L583.7,563.1L583.0,557.2L579.5,552.5L577.4,551.6L574.6,547.4L574.2,541.8L574.4,537.4L578.1,529.9L578.5,526.0L579.8,524.5L578.8,522.6L572.1,522.1L562.1,522.6L558.5,521.6L556.4,518.2L552.4,507.7L551.5,500.7L551.3,492.9L551.8,489.5L553.7,485.6L553.2,478.8L552.0,474.7L547.1,468.7L545.9,464.6L545.4,455.3L546.5,452.7L545.9,446.8L544.9,444.4L543.0,445.4L540.5,451.2L536.7,451.2L534.6,450.0L529.9,445.9L527.2,442.5L526.8,438.7L524.6,437.2Z " data-id="MK.PP" data-name="Prilep" id="MK.PP"/>
utf-8utf-8<path d="M716.9,157.5L710.7,153.0L705.7,150.6L698.6,150.0L685.1,150.3L683.6,151.4L685.1,165.5L682.8,169.0L677.8,168.0L673.0,162.6L671.0,162.3L669.1,163.1L667.3,165.0L665.1,165.5L660.4,165.5L658.3,164.2L656.2,160.7L652.1,158.3L638.9,163.1L635.4,165.0L630.4,165.8L622.2,165.5L620.1,166.6L617.7,169.8L615.3,178.9L608.9,176.8L601.0,173.8L599.7,174.5L599.3,174.6L596.1,182.7L595.8,187.8L597.2,191.2L603.0,195.8L610.1,200.3L614.3,202.5L618.3,208.9L623.5,216.1L626.2,218.3L629.8,219.1L631.5,220.1L632.0,225.2L631.1,228.2L629.1,230.6L634.8,235.9L634.9,237.1L636.9,236.5L642.8,236.8L647.8,238.6L651.2,237.7L654.0,240.2L654.3,240.8L655.1,240.1L659.5,237.9L662.1,238.5L663.4,240.5L663.7,242.7L665.3,246.5L669.6,248.1L679.8,247.9L683.6,247.5L685.1,245.7L675.4,235.9L669.7,229.4L668.9,226.0L669.8,223.6L673.5,222.8L676.0,219.8L678.6,217.8L681.9,216.2L683.7,212.9L684.6,205.1L687.0,199.9L689.5,198.1L690.9,198.0L692.9,199.0L692.7,198.5L694.5,196.3L698.1,193.8L702.4,189.3L707.7,185.2L709.1,181.5L711.1,177.8L718.4,174.1L719.2,168.6L720.2,164.2L720.6,162.2L716.9,157.5Z " data-id="MK.PT" data-name="Probistip" id="MK.PT"/>
utf-8utf-8<path d="M846.0,303.4L839.8,303.0L834.8,301.2L830.2,298.0L824.5,293.3L817.7,290.6L815.3,289.3L812.6,284.5L811.1,283.4L808.4,283.6L807.0,288.1L804.9,290.1L799.7,291.3L790.9,291.5L787.4,290.1L782.7,285.9L779.7,283.9L776.1,283.0L775.8,283.1L773.4,283.9L769.0,286.8L765.6,289.7L766.2,296.0L765.9,300.7L764.7,304.5L762.1,307.2L760.9,310.2L760.3,311.7L755.3,319.8L752.9,325.2L750.5,331.3L747.6,331.7L743.3,331.5L735.2,329.0L729.6,325.7L727.3,326.1L721.3,332.2L720.3,334.9L725.2,344.3L726.8,346.1L728.0,350.0L728.8,358.3L731.0,361.6L734.6,363.7L735.9,364.1L740.0,365.7L742.6,365.7L746.3,366.6L753.3,371.8L756.3,372.2L774.4,373.3L778.0,375.8L783.9,381.2L788.0,386.6L793.9,392.5L794.2,395.2L793.5,397.4L789.8,399.7L789.8,402.2L792.1,403.7L795.9,404.6L800.9,404.6L808.4,406.4L811.0,407.4L812.1,406.4L811.9,404.0L808.5,398.8L808.3,397.0L809.7,395.9L814.7,395.2L818.2,392.7L819.8,388.2L823.6,387.3L830.1,390.7L842.7,401.0L845.0,401.3L849.8,394.9L849.3,386.8L848.4,383.7L846.6,381.0L846.1,377.6L845.0,374.5L842.1,372.9L835.9,365.0L835.4,362.3L836.2,359.2L840.3,351.1L841.6,349.7L844.2,349.3L849.0,349.3L853.2,348.6L854.2,347.4L852.4,344.1L851.2,340.2L851.2,337.1L853.2,334.3L855.9,328.6L857.7,326.1L857.7,323.6L855.7,321.6L852.5,320.2L849.4,318.0L847.4,311.8L846.6,306.9L846.4,303.4L846.0,303.4Z " data-id="MK.RV" data-name="Radovis" id="MK.RV"/>
utf-8utf-8<path d="M628.7,24.1L631.5,35.4L636.6,40.1L645.0,42.3L652.4,48.7L653.9,55.6L652.3,65.0L654.4,74.4L658.7,92.5L662.2,98.5L664.4,106.6L664.8,113.5L663.9,117.8L663.7,119.6L666.0,121.7L676.0,122.0L681.9,121.7L689.3,120.4L692.5,119.3L694.8,117.2L697.7,118.0L702.1,121.7L709.2,123.3L715.7,126.8L721.1,130.0L721.0,128.5L721.9,127.3L730.3,127.0L735.0,126.5L742.1,126.5L744.1,126.8L748.4,127.6L748.3,126.6L754.8,123.2L758.4,117.8L774.7,107.5L781.2,104.3L775.6,96.9L769.1,83.4L753.2,73.4L709.9,26.8L702.1,26.4L695.0,24.0L688.3,19.7L681.9,13.7L680.4,10.3L679.3,2.3L677.3,0.0L673.8,0.6L664.5,10.1L628.7,24.1Z " data-id="MK.KZ" data-name="Kriva Palanka" id="MK.KZ"/>
utf-8utf-8<path d="M601.4,384.4L598.2,384.4L594.9,386.4L594.6,393.1L589.0,393.1L586.4,391.2L581.7,390.2L579.4,391.9L577.3,394.6L576.2,398.2L574.2,400.7L568.2,400.7L562.1,398.0L559.9,396.3L556.6,395.3L553.8,395.6L552.7,396.5L555.3,408.9L552.6,412.1L546.2,412.6L542.1,416.0L542.0,416.7L541.1,420.6L540.9,423.5L540.8,429.6L541.0,431.5L543.5,434.7L548.1,439.8L551.8,443.2L558.9,443.9L562.0,443.9L564.5,443.2L576.6,442.9L579.2,441.0L579.4,434.9L581.1,433.2L584.5,433.2L590.5,435.7L594.0,438.1L596.3,438.8L598.2,438.1L598.1,434.4L599.5,432.5L605.9,428.6L606.2,420.8L605.1,414.5L606.0,410.6L607.1,409.5L607.1,409.4L606.6,400.9L605.0,391.0L604.6,386.1L604.6,386.0L601.4,384.4Z " data-id="MK.RM" data-name="Vardar" id="MK.RM"/>
utf-8utf-8<path d="M287.1,128.6L283.5,125.6L283.0,127.1L278.9,132.0L274.2,132.8L269.5,132.8L264.8,133.6L259.2,133.9L254.9,135.8L253.5,137.8L257.0,140.4L260.4,143.8L263.3,143.8L265.7,142.3L267.8,141.9L269.8,146.1L270.2,150.3L268.8,152.2L265.2,153.7L262.9,156.4L262.9,159.1L264.2,162.7L268.0,168.2L268.3,171.9L261.3,174.6L256.0,175.5L253.2,177.4L253.2,179.3L253.2,179.8L257.3,180.7L262.3,182.5L267.7,185.9L273.2,188.6L274.7,190.5L275.0,196.6L274.1,202.4L273.4,209.1L273.2,217.0L273.6,221.6L277.0,224.6L279.6,224.9L285.1,230.4L287.3,231.3L289.1,232.3L289.1,231.1L290.7,227.7L296.2,225.4L305.4,222.3L310.1,218.9L314.4,214.0L318.4,210.1L325.5,204.8L331.8,201.4L340.6,201.0L341.8,198.9L340.9,197.4L340.1,188.6L339.6,181.7L329.6,180.9L323.0,174.0L317.9,165.3L312.7,157.7L310.9,151.6L307.3,148.3L304.3,148.7L302.1,151.2L298.0,151.9L294.2,150.1L290.9,144.0L289.1,135.2L290.3,129.2L287.1,128.6Z " data-id="MK.AJ" data-name="Saraj" id="MK.AJ"/>
utf-8utf-8<path d="M367.3,200.3L360.1,200.3L351.8,200.3L342.7,200.3L341.8,198.9L340.6,201.0L331.8,201.4L325.5,204.8L318.4,210.1L314.4,214.0L310.1,218.9L305.4,222.3L296.2,225.4L290.7,227.7L289.1,231.1L289.1,232.3L289.2,234.9L292.4,238.4L299.4,242.6L299.8,246.7L299.6,254.4L298.0,260.5L298.4,260.8L302.8,264.7L308.1,269.6L314.5,278.0L322.7,287.2L329.8,297.9L338.0,304.0L344.4,304.8L346.7,303.0L345.6,302.7L343.1,297.3L342.5,291.9L343.3,284.8L345.8,280.0L343.7,275.5L340.0,274.2L338.1,272.4L338.2,268.8L339.6,267.2L342.1,267.2L343.5,266.3L343.8,261.1L345.2,252.0L346.3,248.0L350.1,245.2L353.6,245.2L353.9,242.8L351.7,241.0L348.6,240.7L343.2,239.1L338.3,239.1L336.2,234.9L335.6,228.8L338.1,226.0L344.0,224.5L349.4,224.5L353.5,225.4L359.8,228.2L375.9,227.2L376.8,223.3L377.5,215.3L377.1,209.7L375.3,207.3L375.0,203.8L374.7,201.5L372.2,200.3L368.8,200.3L367.3,200.3Z " data-id="MK.SS" data-name="Sopiste" id="MK.SS"/>
utf-8utf-8<path d="M586.3,31.3L573.1,27.2L551.2,17.5L546.3,16.6L542.2,18.4L530.0,28.6L527.3,29.2L511.7,29.1L504.0,30.7L467.9,51.5L471.9,54.7L480.3,57.9L481.1,59.3L490.9,62.3L493.7,65.1L494.3,69.0L493.7,71.3L485.8,73.9L485.3,76.4L485.5,80.1L488.1,83.5L489.2,92.8L487.1,97.1L486.8,99.3L488.1,109.8L489.8,113.5L493.8,118.3L501.0,125.3L504.2,126.4L507.3,126.4L509.0,123.8L512.7,122.0L516.3,121.4L518.8,119.4L526.3,117.6L528.9,117.8L532.8,121.0L543.8,124.1L548.2,124.0L549.8,122.0L550.4,117.3L552.4,116.0L555.8,115.7L558.6,116.8L560.8,120.6L562.3,124.8L564.2,128.6L564.6,128.1L569.5,127.9L574.0,126.4L577.3,121.1L580.4,114.4L580.3,109.5L578.7,98.2L580.6,96.9L588.9,97.1L591.5,97.4L592.7,97.6L598.8,97.1L600.4,95.0L600.1,92.0L598.3,88.6L592.9,81.5L592.3,79.2L591.4,68.9L588.0,64.0L586.9,60.8L588.1,58.0L595.6,56.9L598.0,54.2L595.8,42.2L594.1,38.9L593.3,32.0L586.3,31.3Z " data-id="MK.NA" data-name="Northeastern" id="MK.NA"/>
utf-8utf-8<path d="M654.0,240.2L651.2,237.7L647.8,238.6L642.8,236.8L636.9,236.5L634.9,237.1L635.1,238.9L634.2,240.8L630.0,242.9L629.5,244.8L630.3,248.3L635.4,255.2L636.4,257.9L636.2,260.8L631.7,263.5L629.3,268.1L623.8,275.6L621.7,279.3L614.8,281.2L613.6,282.5L613.6,284.4L615.7,287.7L617.9,290.0L619.4,293.5L619.5,296.8L617.5,297.3L616.5,300.5L620.1,302.7L621.3,306.1L620.1,307.5L617.9,307.5L615.1,306.4L612.6,303.5L608.8,301.0L608.2,300.7L607.0,301.0L605.6,301.4L605.8,302.9L607.3,304.3L607.0,307.4L601.5,308.0L600.4,312.1L599.0,312.4L596.6,310.9L595.1,308.9L589.8,305.3L587.7,305.3L585.4,306.4L584.1,309.7L580.6,313.8L579.8,319.8L581.1,321.7L589.6,327.8L590.3,333.0L590.7,333.3L592.0,334.2L598.7,333.6L602.8,334.0L608.7,336.9L610.6,338.2L611.8,339.0L615.6,341.7L619.3,341.9L623.3,343.3L628.3,349.7L631.8,353.0L635.6,352.2L636.7,350.7L639.3,344.2L642.0,343.9L647.6,351.1L649.6,356.5L650.6,361.7L652.8,366.2L655.4,367.9L658.5,367.1L669.2,367.7L675.6,369.7L677.1,372.8L677.9,379.6L681.2,381.3L685.7,383.1L696.3,389.3L703.4,391.0L710.7,390.8L713.7,390.3L713.2,389.8L713.4,387.5L722.0,380.3L726.2,375.8L730.4,370.9L734.5,367.1L735.9,364.1L734.6,363.7L731.0,361.6L728.8,358.3L728.0,350.0L726.8,346.1L725.2,344.3L720.3,334.9L721.3,332.2L727.3,326.1L729.6,325.7L735.2,329.0L743.3,331.5L747.6,331.7L750.5,331.3L752.9,325.2L755.3,319.8L760.3,311.7L760.9,310.2L758.7,308.0L753.0,307.8L747.5,309.6L739.1,310.2L728.9,312.2L720.7,312.2L715.7,306.8L709.4,301.4L700.8,295.2L692.9,294.0L687.5,288.9L679.8,283.1L673.9,279.9L668.0,279.1L660.2,278.9L655.7,278.1L651.9,273.5L648.6,266.6L646.6,258.4L645.9,251.8L648.6,245.7L654.3,240.8L654.0,240.2Z " data-id="MK.ST" data-name="Štip" id="MK.ST"/>
utf-8utf-8<path d="M423.7,212.8L421.2,209.1L419.3,208.4L418.9,208.6L416.3,210.0L413.9,212.2L412.2,212.9L411.7,213.1L407.2,215.1L405.5,217.1L404.1,222.6L402.8,225.0L400.1,226.3L395.1,224.6L394.0,222.4L393.0,212.2L389.0,208.5L385.1,208.5L381.9,210.2L377.5,210.2L377.1,209.7L377.5,215.3L376.8,223.3L375.9,227.2L359.8,228.2L353.5,225.4L349.4,224.5L344.0,224.5L338.1,226.0L335.6,228.8L336.2,234.9L338.3,239.1L343.2,239.1L348.6,240.7L351.7,241.0L353.9,242.8L353.6,245.2L350.1,245.2L346.3,248.0L345.2,252.0L343.8,261.1L343.5,266.3L342.1,267.2L339.6,267.2L338.2,268.8L338.1,272.4L340.0,274.2L343.7,275.5L345.8,280.0L343.3,284.8L342.5,291.9L343.1,297.3L345.6,302.7L346.7,303.0L349.6,303.9L354.1,303.9L357.9,307.4L359.5,323.6L364.7,331.9L368.5,334.9L368.8,333.5L370.0,327.7L370.7,321.2L372.3,318.5L376.6,317.0L379.2,314.3L384.9,301.3L388.7,298.3L396.1,296.4L399.5,295.2L399.2,294.9L398.8,291.0L400.2,284.8L398.4,281.5L393.0,275.9L391.3,272.5L390.9,268.6L389.8,262.6L391.9,257.4L394.8,254.1L397.7,254.3L399.1,259.5L400.3,260.7L406.1,261.0L407.7,259.1L408.1,256.2L407.8,251.8L409.4,249.4L412.2,247.1L414.3,242.5L414.7,235.9L419.6,233.4L423.4,230.3L426.8,228.3L431.6,226.8L433.0,224.1L432.6,224.1L428.5,224.1L426.1,223.6L425.0,221.0L425.6,218.2L426.7,216.9L423.7,212.8Z " data-id="MK.SU" data-name="Studenicani" id="MK.SU"/>
utf-8utf-8<path d="M371.2,174.5L366.9,172.3L365.9,171.8L365.9,173.2L366.2,176.9L366.1,178.7L366.4,180.8L367.4,180.5L369.5,180.5L370.9,182.6L372.4,182.2L373.3,182.7L373.4,178.1L373.2,175.9L371.2,174.5Z " data-id="MK.CI" data-name="Cair" id="MK.CI"/>
utf-8utf-8<path d="M599.6,174.1L597.2,173.7L594.3,174.3L586.5,174.7L584.5,174.7L584.7,175.2L584.1,178.8L580.7,181.4L573.8,183.8L568.4,186.5L564.2,186.8L561.7,184.6L558.7,180.1L554.2,176.1L548.8,174.8L542.9,175.0L538.2,175.8L535.6,178.4L530.5,182.5L528.6,185.0L528.1,188.3L528.4,191.7L526.7,194.0L523.7,196.4L522.8,199.0L519.9,200.9L519.5,201.9L518.4,204.5L516.8,211.0L517.1,216.2L517.2,217.2L517.7,222.3L521.1,231.4L523.4,237.0L534.8,248.8L538.7,252.5L538.7,252.5L544.3,252.8L548.3,254.1L554.1,260.6L558.2,264.6L564.1,266.7L568.5,267.5L572.2,270.0L579.1,277.5L586.3,284.7L594.8,291.9L602.2,297.3L608.2,300.7L608.8,301.0L612.6,303.5L615.1,306.4L617.9,307.5L620.1,307.5L621.3,306.1L620.1,302.7L616.5,300.5L617.5,297.3L619.5,296.8L619.4,293.5L617.9,290.0L615.7,287.7L613.6,284.4L613.6,282.5L614.8,281.2L621.7,279.3L623.8,275.6L629.3,268.1L631.7,263.5L636.2,260.8L636.4,257.9L635.4,255.2L630.3,248.3L629.5,244.8L630.0,242.9L634.2,240.8L635.1,238.9L634.9,237.1L634.8,235.9L629.1,230.6L631.1,228.2L632.0,225.2L631.5,220.1L629.8,219.1L626.2,218.3L623.5,216.1L618.3,208.9L614.3,202.5L610.1,200.3L603.0,195.8L597.2,191.2L595.8,187.8L596.1,182.7L599.3,174.6L599.7,174.5L599.6,174.1Z " data-id="MK.SL" data-name="Sveti Nikole" id="MK.SL"/>
utf-8utf-8<path d="M534.8,248.8L523.4,237.0L521.1,231.4L517.7,222.3L517.2,217.2L517.1,216.2L513.1,219.2L504.6,225.3L499.5,227.2L494.5,227.0L492.3,228.0L492.2,229.7L493.9,237.1L494.4,241.7L493.8,250.1L492.4,254.9L490.8,264.6L490.0,266.5L488.0,267.1L483.2,265.6L478.4,260.1L475.6,260.1L475.6,261.7L472.1,265.4L470.9,267.9L468.7,267.9L468.9,265.2L468.4,261.7L465.8,261.5L464.1,263.2L456.8,262.3L452.7,260.7L452.5,259.5L450.7,260.1L451.6,269.2L453.4,271.3L455.3,272.3L456.2,280.8L454.1,283.9L449.4,292.6L447.2,294.1L441.2,296.2L434.2,296.8L434.1,297.2L433.8,298.2L436.5,301.3L443.9,312.9L446.1,314.4L448.3,314.4L451.2,312.1L455.5,312.5L462.0,315.2L466.8,316.0L471.1,316.3L475.5,318.1L478.4,323.3L480.5,331.2L484.2,335.7L485.6,339.7L485.7,342.4L486.7,345.1L489.0,348.0L491.1,348.2L493.1,347.3L497.5,343.2L499.4,342.8L500.9,344.6L502.0,352.7L503.1,356.7L506.9,360.2L516.1,362.3L519.9,362.6L520.2,358.2L520.5,355.3L521.5,353.6L527.5,353.4L531.7,352.8L535.0,347.4L538.0,338.3L540.1,333.5L546.1,327.5L549.1,323.6L549.9,316.8L549.6,312.8L549.3,310.6L547.2,308.1L541.8,300.0L538.6,299.0L534.1,299.0L532.8,297.3L533.0,294.6L536.8,285.5L537.4,283.1L537.0,279.7L528.2,270.4L527.3,268.6L539.0,254.7L538.7,252.5L534.8,248.8Z " data-id="MK.VE" data-name="Veles" id="MK.VE"/>
utf-8utf-8<path d="M252.2,424.4L252.5,419.0L255.2,417.4L258.8,416.5L260.9,413.0L266.3,409.2L270.2,403.8L274.3,399.7L278.0,397.5L277.5,394.6L273.6,392.4L268.4,390.2L263.3,386.1L260.9,383.2L259.1,375.6L257.6,372.8L257.3,373.1L255.2,376.0L252.3,381.3L247.5,385.5L242.9,386.7L240.0,389.6L238.8,393.7L237.4,400.7L234.4,405.1L229.7,408.3L222.9,408.9L219.0,411.4L215.9,420.3L212.8,425.5L212.5,426.0L209.2,427.3L209.0,431.4L209.9,434.9L211.7,437.7L222.6,444.1L224.7,446.9L225.0,449.8L226.8,452.6L230.5,452.9L241.8,452.9L247.2,451.7L252.5,449.1L252.2,444.7L249.7,444.7L245.1,446.0L242.1,442.2L241.8,438.7L240.6,434.6L238.4,430.4L238.3,427.3L239.2,425.4L245.2,424.7L252.4,426.7L252.2,424.4Z " data-id="MK.VC" data-name="Vraneštica" id="MK.VC"/>
utf-8utf-8<path d="M452.3,258.6L455.1,253.9L454.1,236.3L453.4,229.9L451.3,227.4L447.7,227.7L442.4,225.4L438.6,224.4L435.2,224.4L433.0,224.1L431.6,226.8L426.8,228.3L423.4,230.3L419.6,233.4L414.7,235.9L414.3,242.5L412.2,247.1L409.4,249.4L407.8,251.8L408.1,256.2L407.7,259.1L406.1,261.0L400.3,260.7L399.1,259.5L397.7,254.3L394.8,254.1L391.9,257.4L389.8,262.6L390.9,268.6L391.3,272.5L393.0,275.9L398.4,281.5L400.2,284.8L398.8,291.0L399.2,294.9L399.5,295.2L401.9,297.2L407.4,297.0L431.1,296.4L434.1,297.2L434.2,296.8L441.2,296.2L447.2,294.1L449.4,292.6L454.1,283.9L456.2,280.8L455.3,272.3L453.4,271.3L451.6,269.2L450.7,260.1L452.5,259.5L452.3,258.6Z " data-id="MK.ZK" data-name="Zelenikovo" id="MK.ZK"/>
utf-8utf-8<path d="M250.7,179.5L246.9,179.5L245.0,180.5L243.2,183.3L240.3,183.3L232.4,182.6L227.6,181.2L226.5,179.5L228.7,177.4L228.4,174.2L226.2,172.8L223.4,174.2L219.0,174.2L212.2,172.5L210.6,171.4L210.5,171.0L208.1,171.5L204.5,176.9L206.3,179.7L209.8,180.7L212.9,185.4L217.2,186.7L218.6,187.6L218.7,191.1L214.3,192.0L211.0,193.3L208.5,196.8L208.5,196.9L210.0,199.0L213.0,203.1L217.9,207.2L221.3,207.5L223.5,208.5L223.9,212.6L225.4,219.5L229.2,221.4L234.4,221.4L236.7,225.5L236.0,229.3L232.6,229.9L231.9,233.4L232.1,238.1L232.8,242.2L236.7,242.9L247.5,243.2L255.7,249.2L265.4,249.2L268.2,248.9L269.3,244.1L272.1,243.2L275.0,243.2L277.4,246.0L277.8,250.5L281.6,251.4L286.6,254.2L291.4,258.0L295.5,259.6L298.4,260.8L298.0,260.5L299.6,254.4L299.8,246.7L299.4,242.6L292.4,238.4L289.2,234.9L289.1,232.3L287.3,231.3L285.1,230.4L279.6,224.9L277.0,224.6L273.6,221.6L273.2,217.0L273.4,209.1L274.1,202.4L275.0,196.6L274.7,190.5L273.2,188.6L267.7,185.9L262.3,182.5L257.3,180.7L253.2,179.8L253.2,179.3L250.7,179.5Z " data-id="MK.ZE" data-name="Želino" id="MK.ZE"/>
utf-8utf-8<path d="M431.9,148.0L430.3,156.8L428.2,157.5L421.7,156.2L418.6,154.1L415.1,149.1L409.3,144.0L407.0,141.4L406.3,143.2L407.1,148.7L411.3,153.6L412.9,159.9L413.7,166.9L411.2,169.2L409.7,171.9L410.0,180.1L410.5,180.5L411.5,181.3L413.4,181.1L415.1,179.0L421.4,175.6L425.2,174.7L428.7,174.4L431.0,171.9L435.2,166.6L438.1,162.3L442.6,157.4L444.7,155.6L444.3,154.9L443.7,150.3L440.4,148.5L435.5,146.5L432.1,146.5L431.9,148.0Z " data-id="MK.AR" data-name="Aracinovo" id="MK.AR"/>
utf-8utf-8<path d="M372.2,61.8L376.2,71.2L377.4,74.6L382.1,80.8L387.0,85.5L390.3,86.5L392.0,89.1L392.6,95.4L392.1,101.7L388.9,104.7L385.4,106.3L382.3,107.6L381.2,111.0L386.1,115.6L390.9,122.9L393.8,126.6L397.7,131.6L404.3,138.2L407.0,141.4L409.3,144.0L415.1,149.1L418.6,154.1L421.7,156.2L428.2,157.5L430.3,156.8L431.9,148.0L432.1,146.5L430.1,145.5L429.6,142.0L430.4,139.1L435.9,136.3L441.1,131.3L442.3,126.5L442.3,122.1L441.4,113.8L442.5,111.3L444.4,110.7L446.7,111.3L449.2,113.0L451.3,113.3L452.5,112.5L451.3,100.4L453.7,98.6L458.8,97.5L459.3,95.7L458.9,91.7L457.3,86.6L455.4,82.3L453.4,66.0L452.5,63.8L445.7,63.5L431.7,60.1L412.3,60.4L406.9,58.0L390.9,61.8L382.9,62.0L375.5,57.7L372.2,61.8Z " data-id="MK.LI" data-name="Lipkovo" id="MK.LI"/>
utf-8utf-8<path d="M380.0,107.0L374.3,108.7L371.7,116.3L366.8,125.6L365.5,132.0L365.6,142.5L368.1,158.9L364.8,160.0L364.3,161.1L362.7,159.6L362.2,159.2L363.1,165.2L364.8,169.8L363.2,171.1L360.5,170.7L357.8,167.8L356.6,164.9L354.0,162.4L350.6,162.1L349.3,161.0L346.9,164.2L349.7,168.6L354.7,173.3L360.9,174.7L364.1,174.7L365.9,173.2L365.9,171.8L366.9,172.3L371.2,174.5L373.2,175.9L373.1,175.2L378.9,175.2L380.9,170.5L379.3,154.2L379.3,144.9L383.0,137.3L389.4,129.1L393.8,126.6L390.9,122.9L386.1,115.6L381.2,111.0L382.3,107.6L380.0,107.0Z " data-id="MK.BU" data-name="Butel" id="MK.BU"/>
utf-8utf-8<path d="M431.1,296.4L407.4,297.0L401.9,297.2L399.5,295.2L396.1,296.4L388.7,298.3L384.9,301.3L379.2,314.3L376.6,317.0L372.3,318.5L370.7,321.2L370.0,327.7L368.8,333.5L369.6,336.8L367.5,341.0L361.2,348.3L361.2,351.3L363.2,355.2L363.8,365.5L363.8,366.9L367.1,366.9L383.4,372.0L387.0,375.3L388.5,379.2L390.8,382.5L393.1,384.1L397.4,385.5L399.8,389.9L401.3,395.5L401.9,402.0L402.9,406.7L405.9,410.9L408.9,413.7L413.1,415.5L423.1,415.3L425.2,413.7L427.7,413.5L430.5,414.1L434.3,423.2L435.8,425.1L438.4,426.3L452.8,429.5L456.7,432.3L459.6,435.8L460.2,437.7L461.9,437.7L468.3,438.4L471.4,440.2L473.8,443.3L474.9,445.8L478.5,446.1L484.2,444.2L486.5,438.6L486.2,429.3L488.3,426.7L498.4,426.0L503.1,423.2L508.0,423.9L509.8,426.3L516.9,429.1L520.7,430.9L524.6,437.2L526.8,438.7L526.8,438.1L529.8,434.4L531.7,430.5L533.9,428.4L538.6,429.1L540.6,431.0L541.0,431.5L540.8,429.6L540.9,423.5L541.1,420.6L542.0,416.7L540.0,415.8L530.7,410.8L529.1,406.7L528.8,401.7L529.0,397.3L533.8,391.9L535.2,388.4L534.8,383.9L533.0,381.0L528.0,378.3L522.9,375.0L520.2,371.8L519.9,363.4L519.9,362.6L516.1,362.3L506.9,360.2L503.1,356.7L502.0,352.7L500.9,344.6L499.4,342.8L497.5,343.2L493.1,347.3L491.1,348.2L489.0,348.0L486.7,345.1L485.7,342.4L485.6,339.7L484.2,335.7L480.5,331.2L478.4,323.3L475.5,318.1L471.1,316.3L466.8,316.0L462.0,315.2L455.5,312.5L451.2,312.1L448.3,314.4L446.1,314.4L443.9,312.9L436.5,301.3L433.8,298.2L434.1,297.2L431.1,296.4Z " data-id="MK.CA" data-name="Caška" id="MK.CA"/>
utf-8utf-8<path d="M369.5,180.5L367.4,180.5L366.4,180.8L363.3,181.3L360.9,184.1L360.4,189.5L363.5,192.0L368.1,195.7L368.3,189.8L369.9,187.8L368.9,186.9L370.5,182.8L370.9,182.6L369.5,180.5Z " data-id="MK.CE" data-name="Centar" id="MK.CE"/>
utf-8utf-8<path d="M774.8,271.7L774.9,263.2L773.1,249.7L770.6,241.0L768.3,238.9L766.8,236.7L766.8,236.1L765.4,236.1L762.1,237.1L759.4,240.8L758.2,243.4L756.5,244.1L754.4,243.6L753.7,241.8L752.0,240.6L749.9,240.6L746.9,243.8L743.5,246.7L739.8,246.9L737.0,246.9L737.7,253.1L739.1,257.0L743.3,260.4L748.2,265.4L753.0,272.7L753.1,272.7L757.4,273.0L765.2,273.8L773.4,274.0L775.1,274.0L774.8,271.7Z " data-id="MK.ZR" data-name="Zrnovci" id="MK.ZR"/>
utf-8utf-8<path d="M690.9,198.0L689.5,198.1L687.0,199.9L684.6,205.1L683.7,212.9L681.9,216.2L678.6,217.8L676.0,219.8L673.5,222.8L669.8,223.6L668.9,226.0L669.7,229.4L675.4,235.9L685.1,245.7L689.5,250.0L698.8,257.2L709.7,264.0L725.3,266.4L729.9,265.8L734.3,266.0L743.7,273.7L748.7,274.3L752.0,274.3L753.1,272.7L753.0,272.7L748.2,265.4L743.3,260.4L739.1,257.0L737.7,253.1L737.0,246.9L736.5,246.9L732.7,243.6L728.6,242.6L724.9,233.8L723.0,231.1L721.6,219.9L723.2,213.5L722.1,212.3L706.9,212.7L700.6,209.0L695.0,203.4L693.0,199.3L692.9,199.0L690.9,198.0Z " data-id="MK.CH" data-name="Cešinovo-Obleševo" id="MK.CH"/>
utf-8utf-8<path d="M370.6,63.7L366.5,62.8L362.5,59.4L357.9,58.1L351.8,61.3L352.8,65.5L356.0,69.6L356.8,72.8L352.6,73.1L338.5,68.5L331.7,69.0L327.0,72.7L307.1,104.3L307.0,108.4L309.5,113.5L310.5,117.5L311.8,127.1L311.7,128.1L316.1,130.3L329.1,140.8L337.2,154.2L337.8,160.8L342.4,161.3L346.9,164.2L349.3,161.0L349.0,157.7L348.8,153.0L351.3,150.5L354.5,149.8L357.8,152.3L361.2,157.0L362.7,159.6L364.3,161.1L364.8,160.0L368.1,158.9L365.6,142.5L365.5,132.0L366.8,125.6L371.7,116.3L374.3,108.7L380.0,107.0L382.3,107.6L385.4,106.3L388.9,104.7L392.1,101.7L392.6,95.4L392.0,89.1L390.3,86.5L387.0,85.5L382.1,80.8L377.4,74.6L376.2,71.2L372.2,61.8L370.6,63.7Z " data-id="MK.CS" data-name="Cucer Sandevo" id="MK.CS"/>
utf-8utf-8<path d="M745.5,444.9L744.0,439.3L743.4,435.5L743.8,432.6L746.9,429.6L747.3,426.3L745.1,422.6L736.9,418.8L733.3,418.4L731.9,416.0L730.1,418.0L726.2,421.7L721.8,424.4L718.9,431.1L717.6,432.3L715.6,432.3L711.9,431.3L701.3,426.3L696.8,422.7L694.5,422.0L690.9,422.0L688.4,423.7L684.6,428.4L680.9,431.1L679.4,433.9L678.1,440.2L677.2,445.9L674.7,452.3L670.7,455.4L668.7,455.5L667.2,458.8L668.4,460.9L674.0,466.9L675.4,469.5L675.6,471.5L674.3,479.6L673.3,481.5L667.6,482.7L661.6,482.7L656.3,482.2L654.0,482.4L653.3,482.4L657.4,485.3L670.9,496.0L672.5,496.6L678.0,500.6L680.5,500.9L682.5,503.6L685.0,508.7L697.8,515.9L705.0,516.8L711.4,515.9L720.7,510.8L731.1,503.8L733.5,503.0L733.5,501.3L738.0,495.3L739.8,493.7L747.8,493.3L756.3,493.7L758.2,493.1L757.6,483.5L755.4,478.7L751.9,474.9L751.3,469.9L751.5,468.7L749.4,466.7L746.7,461.0L745.6,457.2L745.4,452.6L745.8,449.3L746.8,446.6L745.5,444.9Z " data-id="MK.DK" data-name="Demir Kapija" id="MK.DK"/>
utf-8utf-8<path d="M459.6,435.8L456.7,432.3L452.8,429.5L438.4,426.3L435.8,425.1L434.3,423.2L430.5,414.1L427.7,413.5L425.2,413.7L423.1,415.3L413.1,415.5L408.9,413.7L405.9,410.9L402.9,406.7L401.9,402.0L401.3,395.5L399.8,389.9L397.4,385.5L393.1,384.1L390.8,382.5L388.5,379.2L387.0,375.3L383.4,372.0L367.1,366.9L363.8,366.9L362.7,366.9L360.7,366.9L360.7,372.7L361.1,381.3L359.2,386.9L351.4,396.5L349.6,400.0L348.8,403.2L350.4,415.5L348.4,415.1L342.9,412.3L338.7,410.9L334.2,411.6L332.7,413.5L331.5,416.7L329.4,417.9L326.8,417.9L324.0,419.5L323.8,423.5L324.3,424.1L326.5,427.2L331.7,433.0L338.4,439.5L340.9,440.9L342.5,443.7L342.6,448.9L329.5,448.6L328.1,450.5L328.2,453.8L332.9,455.9L338.6,461.5L343.7,465.9L345.3,468.4L348.5,470.0L348.9,468.9L350.7,467.5L353.2,467.3L355.9,464.9L357.5,464.2L360.1,465.2L363.6,476.8L364.9,478.9L372.1,479.4L374.9,478.2L383.4,478.0L388.0,480.6L388.9,481.7L390.1,480.6L394.0,477.3L396.7,476.8L400.2,471.0L404.8,467.0L412.9,467.0L421.8,464.5L434.7,464.0L438.6,462.2L442.7,456.8L451.1,454.0L451.4,448.4L453.1,442.6L455.9,439.5L460.0,437.7L460.2,437.7L459.6,435.8Z " data-id="MK.DE" data-name="Dolneni" id="MK.DE"/>
utf-8utf-8<path d="M404.3,138.2L397.7,131.6L393.8,126.6L389.4,129.1L383.0,137.3L379.3,144.9L379.3,154.2L380.9,170.5L378.9,175.2L373.1,175.2L373.2,175.9L373.4,178.1L373.3,182.7L375.9,184.0L378.0,185.1L381.9,185.7L388.0,188.6L396.8,194.5L407.9,199.1L415.2,203.8L418.9,208.6L419.3,208.4L421.2,209.1L423.7,212.8L426.7,216.9L427.0,216.6L429.8,213.5L430.5,212.4L430.3,211.9L429.1,204.2L424.8,198.0L415.4,192.1L412.6,191.4L408.6,189.2L407.3,186.0L409.1,183.0L410.5,180.5L410.0,180.1L409.7,171.9L411.2,169.2L413.7,166.9L412.9,159.9L411.3,153.6L407.1,148.7L406.3,143.2L407.0,141.4L404.3,138.2Z " data-id="MK.GB" data-name="Gazi Baba" id="MK.GB"/>
utf-8utf-8<path d="M589.5,336.0L586.0,339.3L582.0,341.8L574.9,341.4L569.8,340.2L567.3,338.9L565.6,336.0L563.0,327.5L562.0,318.4L559.5,313.0L558.6,308.9L557.4,307.2L555.0,306.6L549.4,307.5L549.2,309.7L549.3,310.6L549.6,312.8L549.9,316.8L549.1,323.6L546.1,327.5L540.1,333.5L538.0,338.3L535.0,347.4L531.7,352.8L527.5,353.4L521.5,353.6L520.5,355.3L520.2,358.2L519.9,362.6L519.9,363.4L520.2,371.8L522.9,375.0L528.0,378.3L533.0,381.0L534.8,383.9L535.2,388.4L533.8,391.9L529.0,397.3L528.8,401.7L529.1,406.7L530.7,410.8L540.0,415.8L542.0,416.7L542.1,416.0L546.2,412.6L552.6,412.1L555.3,408.9L552.7,396.5L553.8,395.6L556.6,395.3L559.9,396.3L562.1,398.0L568.2,400.7L574.2,400.7L576.2,398.2L577.3,394.6L579.4,391.9L581.7,390.2L586.4,391.2L589.0,393.1L594.6,393.1L594.9,386.4L598.2,384.4L601.4,384.4L604.6,386.0L605.7,385.1L608.1,385.1L610.1,387.1L610.6,392.4L611.8,396.1L613.3,397.8L618.2,397.6L619.1,396.1L621.4,388.9L621.2,386.6L617.5,383.8L617.7,379.2L619.8,375.9L622.1,369.9L621.1,365.2L618.5,363.5L616.5,363.5L607.7,367.3L604.8,367.3L602.1,366.0L600.6,363.8L600.5,358.6L601.9,355.1L604.4,352.4L606.7,351.2L608.5,346.8L610.4,344.1L611.2,341.1L610.6,338.2L608.7,336.9L602.8,334.0L598.7,333.6L592.0,334.2L590.7,333.3L589.5,336.0Z " data-id="MK.GR" data-name="Gradsko" id="MK.GR"/>
utf-8utf-8<path d="M602.2,297.3L594.8,291.9L586.3,284.7L579.1,277.5L572.2,270.0L568.5,267.5L564.1,266.7L558.2,264.6L554.1,260.6L548.3,254.1L544.3,252.8L538.7,252.5L538.7,252.5L539.0,254.7L527.3,268.6L528.2,270.4L537.0,279.7L537.4,283.1L536.8,285.5L533.0,294.6L532.8,297.3L534.1,299.0L538.6,299.0L541.8,300.0L547.2,308.1L549.3,310.6L549.2,309.7L549.4,307.5L555.0,306.6L557.4,307.2L558.6,308.9L559.5,313.0L562.0,318.4L563.0,327.5L565.6,336.0L567.3,338.9L569.8,340.2L574.9,341.4L582.0,341.8L586.0,339.3L589.5,336.0L590.7,333.3L590.3,333.0L589.6,327.8L581.1,321.7L579.8,319.8L580.6,313.8L584.1,309.7L585.4,306.4L587.7,305.3L589.8,305.3L595.1,308.9L596.6,310.9L599.0,312.4L600.4,312.1L601.5,308.0L607.0,307.4L607.3,304.3L605.8,302.9L605.6,301.4L607.0,301.0L608.2,300.7L602.2,297.3Z " data-id="MK.LO" data-name="Lozovo" id="MK.LO"/>
utf-8utf-8<path d="M808.4,406.4L800.9,404.6L795.9,404.6L792.1,403.7L789.8,402.2L789.8,399.7L793.5,397.4L794.2,395.2L793.9,392.5L788.0,386.6L783.9,381.2L778.0,375.8L774.4,373.3L756.3,372.2L753.3,371.8L746.3,366.6L742.6,365.7L740.0,365.7L735.9,364.1L734.5,367.1L730.4,370.9L726.2,375.8L722.0,380.3L713.4,387.5L713.2,389.8L713.7,390.3L716.6,393.1L721.3,397.4L728.3,406.2L730.6,410.0L731.2,414.8L731.9,416.0L733.3,418.4L736.9,418.8L745.1,422.6L747.3,426.3L746.9,429.6L743.8,432.6L743.4,435.5L744.0,439.3L745.5,444.9L746.8,446.6L747.4,447.4L749.1,447.4L749.4,445.2L750.6,442.7L759.8,439.3L776.8,435.5L783.8,435.3L789.2,435.9L791.2,436.5L791.2,435.7L793.5,433.2L798.9,430.8L803.4,429.4L806.2,429.4L808.4,430.8L813.1,431.4L814.8,429.9L815.0,426.7L814.4,426.3L813.4,422.0L811.7,418.1L810.6,407.8L811.0,407.4L808.4,406.4Z " data-id="MK.KN" data-name="Konce" id="MK.KN"/>
utf-8utf-8<path d="M467.6,181.7L467.9,174.1L467.5,169.9L466.3,168.1L461.0,168.1L451.1,161.0L446.2,158.5L444.7,155.6L442.6,157.4L438.1,162.3L435.2,166.6L431.0,171.9L428.7,174.4L425.2,174.7L421.4,175.6L415.1,179.0L413.4,181.1L411.5,181.3L410.5,180.5L409.1,183.0L407.3,186.0L408.6,189.2L412.6,191.4L415.4,192.1L424.8,198.0L429.1,204.2L430.3,211.9L430.5,212.4L431.3,210.9L434.2,210.2L438.2,207.6L442.8,205.5L445.0,202.2L448.4,202.2L451.9,204.7L455.5,206.3L465.5,205.5L466.5,203.2L465.2,199.0L462.7,197.0L462.9,193.2L467.2,182.5L468.1,182.2L467.6,181.7Z " data-id="MK.IL" data-name="Ilinden" id="MK.IL"/>
utf-8utf-8<path d="M683.6,247.5L679.8,247.9L669.6,248.1L665.3,246.5L663.7,242.7L663.4,240.5L662.1,238.5L659.5,237.9L655.1,240.1L654.3,240.8L648.6,245.7L645.9,251.8L646.6,258.4L648.6,266.6L651.9,273.5L655.7,278.1L660.2,278.9L668.0,279.1L673.9,279.9L679.8,283.1L687.5,288.9L692.9,294.0L700.8,295.2L709.4,301.4L715.7,306.8L720.7,312.2L728.9,312.2L739.1,310.2L747.5,309.6L753.0,307.8L758.7,308.0L760.9,310.2L762.1,307.2L764.7,304.5L765.9,300.7L766.2,296.0L765.6,289.7L769.0,286.8L773.4,283.9L775.8,283.1L775.6,279.6L775.1,274.0L773.4,274.0L765.2,273.8L757.4,273.0L753.1,272.7L752.0,274.3L748.7,274.3L743.7,273.7L734.3,266.0L729.9,265.8L725.3,266.4L709.7,264.0L698.8,257.2L689.5,250.0L685.1,245.7L683.6,247.5Z " data-id="MK.KB" data-name="Karbinci" id="MK.KB"/>
utf-8utf-8<path d="M342.4,161.3L337.8,160.8L338.1,164.1L339.2,174.6L339.6,181.7L340.1,188.6L340.9,197.4L341.8,198.9L342.7,200.3L351.8,200.3L360.1,200.3L367.3,200.3L368.8,200.3L368.0,197.4L368.0,197.3L368.1,195.7L363.5,192.0L360.4,189.5L360.9,184.1L363.3,181.3L366.4,180.8L366.1,178.7L366.2,176.9L365.9,173.2L364.1,174.7L360.9,174.7L354.7,173.3L349.7,168.6L346.9,164.2L342.4,161.3Z " data-id="MK.KX" data-name="Karpoš" id="MK.KX"/>
utf-8utf-8<path d="M651.5,480.9L647.5,478.9L647.0,473.8L645.8,469.9L641.9,464.6L639.4,457.3L638.3,448.5L637.7,440.5L631.9,422.5L631.1,412.8L628.9,410.1L624.7,408.7L621.5,409.2L617.7,411.4L610.1,411.6L607.1,409.5L606.0,410.6L605.1,414.5L606.2,420.8L605.9,428.6L599.5,432.5L598.1,434.4L598.2,438.1L596.3,438.8L594.0,438.1L590.5,435.7L584.5,433.2L581.1,433.2L579.4,434.9L579.2,441.0L576.6,442.9L564.5,443.2L562.0,443.9L558.9,443.9L551.8,443.2L548.1,439.8L543.5,434.7L541.0,431.5L540.6,431.0L538.6,429.1L533.9,428.4L531.7,430.5L529.8,434.4L526.8,438.1L526.8,438.7L527.2,442.5L529.9,445.9L534.6,450.0L536.7,451.2L540.5,451.2L543.0,445.4L544.9,444.4L545.9,446.8L546.5,452.7L545.4,455.3L545.9,464.6L547.1,468.7L552.0,474.7L553.2,478.8L553.7,485.6L551.8,489.5L551.3,492.9L551.5,500.7L552.4,507.7L556.4,518.2L558.5,521.6L562.1,522.6L572.1,522.1L578.8,522.6L579.8,524.5L578.5,526.0L578.1,529.9L574.4,537.4L574.2,541.8L574.6,547.4L577.4,551.6L579.5,552.5L583.0,557.2L583.7,563.1L584.0,572.4L585.2,579.2L586.3,582.9L588.7,584.3L591.8,585.1L599.5,585.3L600.8,587.7L601.2,591.9L602.6,597.6L606.0,595.1L617.4,589.2L641.9,582.4L643.6,581.2L647.2,577.0L648.8,576.1L651.8,577.1L655.2,583.1L668.9,589.6L671.9,590.6L679.9,587.9L692.9,576.1L701.5,572.3L710.3,571.6L713.4,571.9L710.8,566.5L711.5,561.3L712.6,558.7L714.8,557.7L721.4,556.7L730.7,556.1L730.5,553.7L728.3,549.3L727.2,545.1L724.3,539.0L724.3,536.0L729.1,535.6L733.5,533.6L740.1,528.0L743.8,526.6L743.7,523.8L742.5,522.6L740.6,522.6L738.3,521.6L736.7,510.2L736.1,507.4L733.5,503.4L733.5,503.0L731.1,503.8L720.7,510.8L711.4,515.9L705.0,516.8L697.8,515.9L685.0,508.7L682.5,503.6L680.5,500.9L678.0,500.6L672.5,496.6L670.9,496.0L657.4,485.3L653.3,482.4L654.0,482.4L651.5,480.9Z " data-id="MK.AV" data-name="Kavadartsi" id="MK.AV"/>
utf-8utf-8<path d="M372.4,182.2L370.9,182.6L370.5,182.8L368.9,186.9L369.9,187.8L373.8,191.5L378.6,192.1L383.5,197.4L388.2,200.3L396.7,203.2L402.2,204.4L408.4,208.5L412.2,212.9L413.9,212.2L416.3,210.0L418.9,208.6L415.2,203.8L407.9,199.1L396.8,194.5L388.0,188.6L381.9,185.7L378.0,185.1L375.9,184.0L373.3,182.7L372.4,182.2Z " data-id="MK.AD" data-name="Aerodrom" id="MK.AD"/>
utf-8utf-8<path d="M408.4,208.5L402.2,204.4L396.7,203.2L388.2,200.3L383.5,197.4L378.6,192.1L373.8,191.5L369.9,187.8L368.3,189.8L368.1,195.7L368.0,197.3L368.0,197.4L368.8,200.3L372.2,200.3L374.7,201.5L375.0,203.8L375.3,207.3L377.1,209.7L377.5,210.2L381.9,210.2L385.1,208.5L389.0,208.5L393.0,212.2L394.0,222.4L395.1,224.6L400.1,226.3L402.8,225.0L404.1,222.6L405.5,217.1L407.2,215.1L411.7,213.1L412.2,212.9L408.4,208.5Z " data-id="MK.VD" data-name="Kisela Voda" id="MK.VD"/>
utf-8utf-8<path d="M744.1,126.8L742.1,126.5L735.0,126.5L730.3,127.0L721.9,127.3L721.0,128.5L721.1,130.0L721.2,130.9L722.1,134.1L724.3,137.8L725.3,141.3L725.2,145.2L722.9,149.5L722.2,154.2L720.6,162.2L720.2,164.2L719.2,168.6L718.4,174.1L711.1,177.8L709.1,181.5L707.7,185.2L702.4,189.3L698.1,193.8L694.5,196.3L692.7,198.5L692.9,199.0L693.0,199.3L695.0,203.4L700.6,209.0L706.9,212.7L722.1,212.3L723.2,213.5L721.6,219.9L723.0,231.1L724.9,233.8L728.6,242.6L732.7,243.6L736.5,246.9L737.0,246.9L739.8,246.9L743.5,246.7L746.9,243.8L749.9,240.6L752.0,240.6L753.7,241.8L754.4,243.6L756.5,244.1L758.2,243.4L759.4,240.8L762.1,237.1L765.4,236.1L766.8,236.1L766.8,235.1L769.3,232.2L767.6,220.8L767.3,216.7L768.7,212.0L768.8,205.5L769.3,199.2L770.2,197.4L776.5,197.2L781.1,199.9L783.2,202.4L785.2,203.7L789.9,204.0L793.7,201.5L795.4,200.4L795.0,196.8L792.8,193.8L791.7,190.3L790.8,181.1L787.8,178.1L786.6,175.5L781.8,170.1L781.6,166.5L779.8,159.3L778.1,157.7L768.0,153.0L765.9,149.0L764.9,139.4L764.0,134.2L761.0,130.8L758.6,129.5L756.4,130.6L755.1,133.3L753.5,134.9L750.7,133.5L748.5,128.8L748.4,127.6L744.1,126.8Z " data-id="MK.OC" data-name="Kocani" id="MK.OC"/>
utf-8utf-8<path d="M588.9,97.1L580.6,96.9L578.7,98.2L580.3,109.5L580.4,114.4L577.3,121.1L574.0,126.4L569.5,127.9L564.6,128.1L564.2,128.6L562.9,130.3L562.5,137.1L558.6,142.2L556.6,146.7L557.3,149.9L559.1,152.1L569.1,152.7L570.6,155.3L573.0,163.9L575.0,165.6L578.0,167.1L583.0,171.1L584.5,174.7L586.5,174.7L594.3,174.3L597.2,173.7L599.6,174.1L599.7,174.5L601.0,173.8L608.9,176.8L615.3,178.9L617.7,169.8L620.1,166.6L622.2,165.5L630.4,165.8L635.4,165.0L638.9,163.1L652.1,158.3L656.2,160.7L658.3,164.2L660.4,165.5L665.1,165.5L667.3,165.0L669.1,163.1L671.0,162.3L673.0,162.6L677.8,168.0L682.8,169.0L685.1,165.5L683.6,151.4L685.1,150.3L698.6,150.0L705.7,150.6L710.7,153.0L716.9,157.5L720.6,162.2L722.2,154.2L722.9,149.5L725.2,145.2L725.3,141.3L724.3,137.8L722.1,134.1L721.2,130.9L721.1,130.0L715.7,126.8L709.2,123.3L702.1,121.7L697.7,118.0L694.8,117.2L692.5,119.3L689.3,120.4L681.9,121.7L676.0,122.0L666.0,121.7L663.7,119.6L663.9,117.8L662.8,117.9L659.9,119.1L659.8,123.2L660.3,126.4L659.8,127.9L656.4,129.4L651.5,130.5L647.8,132.2L641.2,132.4L633.7,126.8L626.7,122.4L621.8,117.2L615.1,114.2L606.2,113.8L604.5,111.7L603.2,104.2L602.0,103.1L598.2,103.1L594.5,100.3L591.5,97.4L588.9,97.1Z " data-id="MK.KY" data-name="Kratovo" id="MK.KY"/>
utf-8utf-8<path d="M388.0,480.6L383.4,478.0L374.9,478.2L372.1,479.4L364.9,478.9L363.6,476.8L360.1,465.2L357.5,464.2L355.9,464.9L353.2,467.3L350.7,467.5L348.9,468.9L348.5,470.0L348.2,471.2L349.5,487.6L351.8,491.1L357.1,496.0L360.0,499.9L361.0,504.8L360.9,509.7L359.5,515.6L358.3,517.0L357.8,519.8L362.7,520.9L363.2,523.3L364.1,523.3L368.4,525.1L371.8,529.3L373.9,530.7L375.7,531.3L378.0,530.7L383.6,530.5L386.7,528.4L389.3,524.9L394.0,519.8L394.9,512.5L394.8,508.3L396.6,506.0L397.8,502.7L397.4,498.5L395.5,497.4L387.5,496.7L385.8,494.8L385.4,492.2L383.6,491.1L383.1,486.6L387.2,483.1L388.9,481.7L388.0,480.6Z " data-id="MK.KG" data-name="Krivogaštani" id="MK.KG"/>
utf-8utf-8<path d="M322.7,423.9L319.1,424.2L318.6,427.2L319.2,434.3L318.1,438.1L312.9,440.1L305.9,442.2L300.9,444.5L300.5,444.7L295.1,447.7L281.1,452.8L278.3,454.6L277.7,455.9L277.0,457.9L280.2,463.5L280.8,465.5L283.8,466.9L290.4,469.6L293.5,471.8L294.2,478.6L300.1,477.7L306.1,478.6L310.6,478.6L313.6,482.2L314.7,493.9L315.9,502.9L322.9,502.5L326.5,500.7L330.3,502.0L335.7,507.4L337.4,513.3L339.8,519.1L344.6,522.8L347.2,526.4L348.1,536.3L347.3,539.4L347.5,544.3L349.4,543.8L352.0,546.3L354.9,548.1L357.4,548.4L355.1,546.4L352.7,544.0L352.7,539.6L355.1,535.9L357.2,527.7L358.4,524.4L361.4,523.5L363.2,523.3L362.7,520.9L357.8,519.8L358.3,517.0L359.5,515.6L360.9,509.7L361.0,504.8L360.0,499.9L357.1,496.0L351.8,491.1L349.5,487.6L348.2,471.2L348.5,470.0L345.3,468.4L343.7,465.9L338.6,461.5L332.9,455.9L328.2,453.8L328.1,450.5L329.5,448.6L342.6,448.9L342.5,443.7L340.9,440.9L338.4,439.5L331.7,433.0L326.5,427.2L324.3,424.1L322.7,423.9Z " data-id="MK.KS" data-name="Kruševo" id="MK.KS"/>
utf-8utf-8<path d="M562.3,124.8L560.8,120.6L558.6,116.8L555.8,115.7L552.4,116.0L550.4,117.3L549.8,122.0L548.2,124.0L543.8,124.1L532.8,121.0L528.9,117.8L526.3,117.6L518.8,119.4L516.3,121.4L512.7,122.0L509.0,123.8L507.3,126.4L504.2,126.4L501.0,125.3L493.8,118.3L489.8,113.5L488.1,109.8L486.8,99.3L487.1,97.1L489.2,92.8L488.1,83.5L485.5,80.1L485.3,76.4L485.8,73.9L493.7,71.3L494.3,69.0L493.7,65.1L490.9,62.3L481.1,59.3L480.3,57.9L471.9,54.7L467.9,51.5L463.1,54.3L458.1,60.4L452.5,63.8L452.5,63.8L453.4,66.0L455.4,82.3L457.3,86.6L458.9,91.7L459.3,95.7L458.8,97.5L453.7,98.6L451.3,100.4L452.5,112.5L451.3,113.3L449.2,113.0L446.7,111.3L444.4,110.7L442.5,111.3L441.4,113.8L442.3,122.1L442.3,126.5L441.1,131.3L435.9,136.3L430.4,139.1L429.6,142.0L430.1,145.5L432.1,146.5L435.5,146.5L440.4,148.5L443.7,150.3L444.3,154.9L444.7,155.6L446.2,158.5L451.1,161.0L461.0,168.1L466.3,168.1L467.5,169.9L467.9,174.1L467.6,181.7L468.1,182.2L470.5,184.5L476.5,187.3L480.4,188.0L484.5,190.6L486.4,194.4L488.8,195.4L491.4,195.4L494.3,194.2L496.3,192.6L500.8,192.2L506.5,192.4L510.4,194.7L513.9,198.7L518.0,201.2L519.5,201.9L519.9,200.9L522.8,199.0L523.7,196.4L526.7,194.0L528.4,191.7L528.1,188.3L528.6,185.0L530.5,182.5L535.6,178.4L538.2,175.8L542.9,175.0L548.8,174.8L554.2,176.1L558.7,180.1L561.7,184.6L564.2,186.8L568.4,186.5L573.8,183.8L580.7,181.4L584.1,178.8L584.7,175.2L584.5,174.7L583.0,171.1L578.0,167.1L575.0,165.6L573.0,163.9L570.6,155.3L569.1,152.7L559.1,152.1L557.3,149.9L556.6,146.7L558.6,142.2L562.5,137.1L562.9,130.3L564.2,128.6L562.3,124.8Z " data-id="MK.UM" data-name="Kumanovo" id="MK.UM"/>
utf-8utf-8<path d="M276.2,250.1L271.0,250.1L263.9,255.2L255.6,264.3L249.9,273.8L244.9,278.6L239.6,279.7L237.4,280.1L229.4,280.8L227.7,285.2L228.8,296.9L228.0,298.8L224.8,298.8L222.9,300.4L222.6,302.9L224.9,307.6L228.8,310.2L229.7,314.3L230.1,318.1L231.3,320.6L233.4,322.8L235.0,326.0L236.6,334.2L235.2,341.0L236.9,345.3L239.4,347.2L247.8,347.5L253.5,349.7L256.0,353.5L257.2,366.8L257.3,373.1L257.6,372.8L259.1,375.6L260.9,383.2L263.3,386.1L268.4,390.2L273.6,392.4L277.5,394.6L278.0,397.5L274.3,399.7L270.2,403.8L266.3,409.2L260.9,413.0L258.8,416.5L255.2,417.4L252.5,419.0L252.2,424.4L252.4,426.7L252.6,426.7L256.3,425.7L262.1,425.4L265.6,424.2L273.8,420.1L278.6,420.1L280.6,421.4L281.5,428.7L282.1,430.5L286.3,435.1L291.1,436.8L295.2,437.3L299.1,439.4L300.8,443.2L300.9,444.5L305.9,442.2L312.9,440.1L318.1,438.1L319.2,434.3L318.6,427.2L319.1,424.2L322.7,423.9L324.3,424.1L323.8,423.5L324.0,419.5L326.8,417.9L329.4,417.9L331.5,416.7L332.7,413.5L334.2,411.6L338.7,410.9L342.9,412.3L348.4,415.1L350.4,415.5L348.8,403.2L349.6,400.0L351.4,396.5L359.2,386.9L361.1,381.3L360.7,372.7L360.7,366.9L362.7,366.9L363.8,366.9L363.8,365.5L363.2,355.2L361.2,351.3L361.2,348.3L367.5,341.0L369.6,336.8L368.8,333.5L368.5,334.9L364.7,331.9L359.5,323.6L357.9,307.4L354.1,303.9L349.6,303.9L346.7,303.0L344.4,304.8L338.0,304.0L329.8,297.9L322.7,287.2L314.5,278.0L308.1,269.6L302.8,264.7L298.4,260.8L295.5,259.6L291.4,258.0L286.6,254.2L281.6,251.4L277.8,250.5L276.2,250.1Z " data-id="MK.MD" data-name="Brod" id="MK.MD"/>
utf-8utf-8<path d="M373.9,530.7L371.8,529.3L368.4,525.1L364.1,523.3L363.2,523.3L361.4,523.5L358.4,524.4L357.2,527.7L355.1,535.9L352.7,539.6L352.7,544.0L355.1,546.4L357.4,548.4L358.0,548.9L361.3,552.9L361.7,556.9L360.5,560.2L358.8,563.0L359.2,567.6L361.0,571.8L363.5,576.0L367.3,579.8L371.4,582.1L376.8,583.8L379.3,585.9L380.9,592.2L380.8,595.7L381.5,604.8L382.7,607.4L384.8,609.2L388.1,610.9L393.3,611.6L399.9,607.4L401.8,606.9L407.7,607.6L408.7,608.4L409.4,606.2L412.5,601.9L418.3,597.8L422.3,597.8L428.5,600.1L434.0,601.9L452.0,604.2L456.2,601.6L466.8,588.1L471.0,582.1L471.9,574.9L472.1,574.8L470.5,573.2L465.7,571.8L459.7,570.9L454.1,569.0L446.4,563.9L443.5,563.9L438.8,567.2L430.1,566.9L422.2,563.2L419.1,558.8L416.5,557.8L407.9,557.4L405.4,555.3L403.6,551.5L398.4,548.0L393.2,541.2L387.9,538.4L384.2,538.2L378.1,537.0L375.9,534.5L375.2,531.4L375.7,531.3L373.9,530.7Z " data-id="MK.MG" data-name="Pelagonia" id="MK.MG"/>
utf-8utf-8<path d="M710.7,390.8L703.4,391.0L696.3,389.3L685.7,383.1L681.2,381.3L677.9,379.6L677.1,372.8L675.6,369.7L669.2,367.7L658.5,367.1L655.4,367.9L652.8,366.2L650.6,361.7L649.6,356.5L647.6,351.1L642.0,343.9L639.3,344.2L636.7,350.7L635.6,352.2L631.8,353.0L628.3,349.7L623.3,343.3L619.3,341.9L615.6,341.7L611.8,339.0L610.6,338.2L611.2,341.1L610.4,344.1L608.5,346.8L606.7,351.2L604.4,352.4L601.9,355.1L600.5,358.6L600.6,363.8L602.1,366.0L604.8,367.3L607.7,367.3L616.5,363.5L618.5,363.5L621.1,365.2L622.1,369.9L619.8,375.9L617.7,379.2L617.5,383.8L621.2,386.6L621.4,388.9L619.1,396.1L618.2,397.6L613.3,397.8L611.8,396.1L610.6,392.4L610.1,387.1L608.1,385.1L605.7,385.1L604.6,386.0L604.6,386.1L605.0,391.0L606.6,400.9L607.1,409.4L607.1,409.5L610.1,411.6L617.7,411.4L621.5,409.2L624.7,408.7L628.9,410.1L631.1,412.8L631.9,422.5L637.7,440.5L638.3,448.5L639.4,457.3L641.9,464.6L645.8,469.9L647.0,473.8L647.5,478.9L651.5,480.9L654.0,482.4L656.3,482.2L661.6,482.7L667.6,482.7L673.3,481.5L674.3,479.6L675.6,471.5L675.4,469.5L674.0,466.9L668.4,460.9L667.2,458.8L668.7,455.5L670.7,455.4L674.7,452.3L677.2,445.9L678.1,440.2L679.4,433.9L680.9,431.1L684.6,428.4L688.4,423.7L690.9,422.0L694.5,422.0L696.8,422.7L701.3,426.3L711.9,431.3L715.6,432.3L717.6,432.3L718.9,431.1L721.8,424.4L726.2,421.7L730.1,418.0L731.9,416.0L731.2,414.8L730.6,410.0L728.3,406.2L721.3,397.4L716.6,393.1L713.7,390.3L710.7,390.8Z " data-id="MK.NG" data-name="Negotino" id="MK.NG"/>
utf-8utf-8<path d="M472.1,574.8L471.9,574.9L471.0,582.1L466.8,588.1L456.2,601.6L452.0,604.2L434.0,601.9L428.5,600.1L422.3,597.8L418.3,597.8L412.5,601.9L409.4,606.2L408.7,608.4L408.1,610.5L408.6,615.3L407.9,618.2L406.7,620.2L406.7,623.7L407.9,628.5L414.5,635.1L415.6,639.4L417.1,649.8L421.9,650.6L425.7,651.8L427.7,655.2L433.3,660.7L439.0,665.8L443.8,671.6L445.3,675.6L446.0,679.9L447.9,685.7L448.3,690.0L446.7,695.6L448.2,695.8L467.0,710.2L478.2,712.1L481.4,710.0L489.8,701.6L493.5,698.7L495.7,698.4L501.4,698.7L503.3,698.1L504.6,695.4L504.8,689.2L505.5,687.4L516.2,682.7L537.0,686.9L548.0,684.6L552.5,680.0L553.4,674.6L553.0,669.4L553.3,665.5L556.8,661.0L575.3,642.5L588.1,630.1L592.8,622.8L593.1,619.2L593.1,617.6L584.0,613.9L579.7,613.1L575.1,609.6L571.5,606.5L569.8,603.6L567.3,603.3L566.0,606.2L557.0,606.5L551.4,605.0L547.9,603.0L543.4,598.1L539.6,595.8L529.9,594.1L516.4,588.4L496.2,585.8L490.8,584.1L484.3,580.1L481.8,576.9L479.9,573.5L478.0,571.8L475.2,572.1L472.1,574.8Z " data-id="MK.NV" data-name="Novatsi" id="MK.NV"/>
utf-8utf-8<path d="M337.2,154.2L329.1,140.8L316.1,130.3L311.7,128.1L311.5,131.4L307.5,132.2L290.3,129.2L289.1,135.2L290.9,144.0L294.2,150.1L298.0,151.9L302.1,151.2L304.3,148.7L307.3,148.3L310.9,151.6L312.7,157.7L317.9,165.3L323.0,174.0L329.6,180.9L339.6,181.7L339.2,174.6L338.1,164.1L337.8,160.8L337.2,154.2Z " data-id="MK.GP" data-name="Gjorce Petrov" id="MK.GP"/>
utf-8utf-8<path d="M205.7,349.1L198.5,341.5L192.3,337.7L186.0,334.8L177.7,332.6L173.4,333.0L167.3,333.6L165.4,335.1L156.4,335.1L152.2,337.7L146.1,345.0L143.1,347.2L134.3,347.5L130.5,352.2L131.1,355.4L134.4,357.6L139.5,356.3L141.2,356.6L145.7,357.3L149.0,362.0L151.4,368.1L154.6,374.1L161.2,375.0L164.7,380.7L167.8,386.7L174.4,392.7L178.0,400.4L179.7,400.8L179.4,398.4L180.9,394.6L187.4,393.4L195.2,389.9L197.9,387.7L201.9,386.7L204.0,386.7L206.0,387.3L206.3,385.1L208.2,383.9L209.6,378.5L212.0,373.8L211.8,368.4L211.0,360.8L209.3,356.0L209.6,352.0L205.7,349.1Z " data-id="MK.ZA" data-name="Zajas" id="MK.ZA"/>
utf-8utf-8<path d="M95.3,441.7L89.0,440.8L87.8,426.9L84.1,418.5L79.6,418.5L75.2,415.0L71.9,406.1L66.8,400.2L59.8,399.2L50.3,399.2L46.5,406.1L38.3,411.1L29.7,415.0L24.4,421.2L18.9,425.9L19.8,427.3L21.5,430.9L23.0,438.7L24.0,441.2L27.0,443.4L33.6,444.3L36.7,446.1L42.0,452.2L44.3,456.9L50.0,456.2L62.1,456.4L75.2,456.4L86.6,457.1L91.8,454.2L95.8,448.8L98.1,446.2L95.3,441.7Z " data-id="MK.CZ" data-name="Centar župa" id="MK.CZ"/>
utf-8utf-8<path d="M114.9,418.5L113.1,413.0L107.6,410.6L98.7,407.6L92.8,402.1L87.7,395.7L79.0,389.3L74.5,389.3L61.1,386.8L50.7,380.4L42.2,372.5L34.6,369.5L34.7,370.5L33.0,375.4L30.0,378.5L25.0,381.4L19.5,383.6L0.7,387.4L2.8,394.1L2.8,406.9L6.2,413.9L10.8,415.8L14.0,418.6L18.9,425.9L24.4,421.2L29.7,415.0L38.3,411.1L46.5,406.1L50.3,399.2L59.8,399.2L66.8,400.2L71.9,406.1L75.2,415.0L79.6,418.5L84.1,418.5L87.8,426.9L89.0,440.8L95.3,441.7L98.1,446.2L99.1,445.0L100.6,446.5L103.2,441.2L105.1,427.3L106.3,423.1L108.6,420.0L111.7,419.4L113.6,420.3L115.6,421.0L114.9,418.5Z " data-id="MK.DB" data-name="Debar" id="MK.DB"/>
utf-8utf-8<path d="M178.0,400.4L174.4,392.7L167.8,386.7L164.7,380.7L161.2,375.0L154.6,374.1L151.4,368.1L149.0,362.0L145.7,357.3L141.2,356.6L142.2,359.6L145.8,372.5L147.7,392.3L143.2,397.2L143.2,401.7L143.8,407.6L139.1,410.1L135.2,418.1L131.4,421.9L126.5,423.5L120.1,422.5L115.6,421.0L113.6,420.3L111.7,419.4L108.6,420.0L106.3,423.1L105.1,427.3L103.2,441.2L100.6,446.5L101.7,447.6L104.9,444.7L117.6,445.3L135.1,445.0L145.1,444.7L157.2,445.6L165.8,447.5L180.8,447.9L184.0,454.5L189.0,462.4L190.9,468.5L190.6,473.9L194.0,479.3L201.5,481.5L205.0,484.7L209.0,491.3L211.4,494.3L213.4,489.9L221.7,483.9L230.6,480.1L241.6,480.4L249.5,480.4L261.1,479.9L267.1,476.3L272.6,470.9L273.4,467.3L279.1,464.6L280.8,465.5L280.2,463.5L277.0,457.9L277.7,455.9L275.5,454.5L263.8,450.1L259.0,442.8L255.8,443.1L252.6,444.7L252.2,444.7L252.5,449.1L247.2,451.7L241.8,452.9L230.5,452.9L226.8,452.6L225.0,449.8L224.7,446.9L222.6,444.1L211.7,437.7L209.9,434.9L209.0,431.4L209.2,427.3L212.5,426.0L212.8,425.5L210.9,422.8L204.7,419.0L198.8,417.4L193.1,415.2L186.7,411.7L183.9,409.5L181.2,406.4L179.8,402.6L179.7,400.8L178.0,400.4Z " data-id="MK.DR" data-name="Drugovo" id="MK.DR"/>
utf-8utf-8<path d="M204.0,386.7L201.9,386.7L197.9,387.7L195.2,389.9L187.4,393.4L180.9,394.6L179.4,398.4L179.7,400.8L179.8,402.6L181.2,406.4L183.9,409.5L186.7,411.7L193.1,415.2L198.8,417.4L204.7,419.0L210.9,422.8L212.8,425.5L215.9,420.3L219.0,411.4L222.9,408.9L222.5,404.5L222.2,400.7L219.7,397.2L216.4,395.0L214.6,395.3L212.4,397.2L209.7,397.2L207.6,391.2L205.8,388.9L206.0,387.3L204.0,386.7Z " data-id="MK.KH" data-name="Kicevo" id="MK.KH"/>
utf-8utf-8<path d="M172.2,328.8L165.9,322.8L160.2,315.5L156.9,310.5L161.9,305.4L161.6,302.9L146.7,302.6L142.2,305.1L138.2,301.3L136.5,292.1L130.8,284.2L128.2,281.7L122.1,281.4L114.4,280.1L107.0,279.2L98.9,279.2L92.3,287.7L88.2,290.9L80.0,290.2L71.7,289.0L65.3,284.2L56.0,280.4L51.6,276.3L43.3,273.4L31.3,268.9L31.9,272.0L29.7,276.2L21.3,284.2L17.9,288.8L15.3,295.1L14.7,300.1L21.0,334.3L23.9,344.4L34.2,366.4L34.6,369.5L42.2,372.5L50.7,380.4L61.1,386.8L74.5,389.3L79.0,389.3L87.7,395.7L92.8,402.1L98.7,407.6L107.6,410.6L113.1,413.0L114.9,418.5L115.6,421.0L120.1,422.5L126.5,423.5L131.4,421.9L135.2,418.1L139.1,410.1L143.8,407.6L143.2,401.7L143.2,397.2L147.7,392.3L145.8,372.5L142.2,359.6L141.2,356.6L139.5,356.3L134.4,357.6L131.1,355.4L130.5,352.2L134.3,347.5L143.1,347.2L146.1,345.0L152.2,337.7L156.4,335.1L165.4,335.1L167.3,333.6L173.4,333.0L172.2,328.8Z " data-id="MK.MR" data-name="Mavrovo and Rostusa" id="MK.MR"/>
utf-8utf-8<path d="M235.1,340.8L232.7,340.8L229.6,343.4L225.4,344.0L220.6,345.6L215.2,346.2L209.7,350.0L209.6,352.0L209.3,356.0L211.0,360.8L211.8,368.4L212.0,373.8L209.6,378.5L208.2,383.9L206.3,385.1L206.0,387.3L205.8,388.9L207.6,391.2L209.7,397.2L212.4,397.2L214.6,395.3L216.4,395.0L219.7,397.2L222.2,400.7L222.5,404.5L222.9,408.9L229.7,408.3L234.4,405.1L237.4,400.7L238.8,393.7L240.0,389.6L242.9,386.7L247.5,385.5L252.3,381.3L255.2,376.0L257.3,373.1L257.2,366.8L256.0,353.5L253.5,349.7L247.8,347.5L239.4,347.2L236.9,345.3L235.2,341.0L235.1,340.8Z " data-id="MK.OS" data-name="Oslomej" id="MK.OS"/>
utf-8utf-8<path d="M209.0,166.9L210.4,165.5L220.9,163.3L227.5,162.3L233.3,159.5L235.4,153.9L239.1,146.9L242.3,144.4L246.0,139.9L246.0,134.6L244.2,130.4L241.1,128.6L237.3,127.9L233.9,126.2L229.8,119.9L223.9,113.2L217.5,106.9L207.3,99.1L203.1,103.1L193.6,107.6L182.7,111.0L155.7,119.5L160.3,120.8L165.5,122.7L174.6,127.4L178.3,130.9L182.0,136.5L186.2,145.0L189.7,146.0L192.1,146.0L195.6,147.2L198.8,150.7L200.7,153.6L200.0,157.0L200.6,163.3L201.8,165.2L205.4,167.1L208.6,167.7L209.4,168.0L209.0,166.9Z " data-id="MK.TR" data-name="Tearce" id="MK.TR"/>
utf-8utf-8<path d="M208.6,167.7L205.4,167.1L201.8,165.2L200.6,163.3L200.0,157.0L200.7,153.6L198.8,150.7L195.6,147.2L192.1,146.0L189.7,146.0L186.2,145.0L182.0,136.5L178.3,130.9L174.6,127.4L165.5,122.7L160.3,120.8L155.7,119.5L120.2,130.7L110.6,135.8L103.8,144.2L100.8,154.3L98.2,177.6L98.8,188.3L103.9,202.7L105.0,201.2L110.8,198.7L114.8,194.6L120.6,191.7L127.2,189.5L131.6,186.4L135.1,182.9L139.4,180.4L145.4,180.1L156.1,182.6L168.3,184.8L172.2,186.7L182.6,196.8L184.2,196.9L185.8,197.1L188.1,191.4L190.3,190.1L192.7,190.5L201.3,195.8L204.5,196.1L208.5,196.9L208.5,196.8L211.0,193.3L214.3,192.0L218.7,191.1L218.6,187.6L217.2,186.7L212.9,185.4L209.8,180.7L206.3,179.7L204.5,176.9L208.1,171.5L210.5,171.0L209.4,168.0L208.6,167.7Z " data-id="MK.ET" data-name="Tetovo" id="MK.ET"/>
utf-8utf-8<path d="M182.4,234.3L179.5,232.1L174.2,231.2L163.7,225.8L152.0,220.4L138.8,216.7L126.3,214.4L114.1,212.9L109.7,214.1L105.1,216.9L105.0,218.5L101.7,227.4L96.2,237.5L93.0,241.0L98.4,245.6L108.6,249.5L119.1,249.8L124.4,250.4L127.3,253.3L130.3,259.3L132.9,262.5L140.1,265.9L147.2,266.9L151.6,263.1L161.4,261.8L174.2,264.7L181.4,262.5L184.9,258.3L182.3,250.8L185.4,246.7L188.1,245.6L185.7,244.8L185.2,241.6L184.9,236.2L184.0,234.3L182.4,234.3Z " data-id="MK.VH" data-name="Polog" id="MK.VH"/>
utf-8utf-8<path d="M182.6,196.8L172.2,186.7L168.3,184.8L156.1,182.6L145.4,180.1L139.4,180.4L135.1,182.9L131.6,186.4L127.2,189.5L120.6,191.7L114.8,194.6L110.8,198.7L105.0,201.2L103.9,202.7L105.5,207.1L105.1,216.9L109.7,214.1L114.1,212.9L126.3,214.4L138.8,216.7L152.0,220.4L163.7,225.8L174.2,231.2L179.5,232.1L182.4,234.3L184.0,234.3L186.3,234.3L184.0,227.4L185.7,224.9L189.8,224.2L192.5,222.3L194.8,218.9L197.0,211.9L196.9,208.5L187.2,208.1L185.4,205.9L184.5,199.0L184.2,196.9L182.6,196.8Z " data-id="MK.VJ" data-name="Bogovinje" id="MK.VJ"/>
utf-8utf-8<path d="M204.5,196.1L201.3,195.8L192.7,190.5L190.3,190.1L188.1,191.4L185.8,197.1L184.2,196.9L184.5,199.0L185.4,205.9L187.2,208.1L196.9,208.5L197.0,211.9L194.8,218.9L192.5,222.3L189.8,224.2L185.7,224.9L184.0,227.4L186.3,234.3L184.0,234.3L184.9,236.2L185.2,241.6L185.7,244.8L188.1,245.6L191.2,246.7L200.0,251.1L208.4,252.0L216.8,251.7L218.2,255.5L218.0,259.0L221.5,262.5L229.0,267.5L237.5,276.7L239.6,279.7L244.9,278.6L249.9,273.8L255.6,264.3L263.9,255.2L271.0,250.1L276.2,250.1L277.8,250.5L277.4,246.0L275.0,243.2L272.1,243.2L269.3,244.1L268.2,248.9L265.4,249.2L255.7,249.2L247.5,243.2L236.7,242.9L232.8,242.2L232.1,238.1L231.9,233.4L232.6,229.9L236.0,229.3L236.7,225.5L234.4,221.4L229.2,221.4L225.4,219.5L223.9,212.6L223.5,208.5L221.3,207.5L217.9,207.2L213.0,203.1L210.0,199.0L208.5,196.9L204.5,196.1Z " data-id="MK.BN" data-name="Brvenica" id="MK.BN"/>
utf-8utf-8<path d="M89.0,245.5L80.8,248.2L76.8,245.7L68.4,236.2L64.6,234.2L62.2,235.7L58.6,242.9L55.9,245.1L49.5,245.4L44.6,243.1L34.7,234.4L25.3,239.9L25.7,250.3L30.0,262.3L31.3,268.9L43.3,273.4L51.6,276.3L56.0,280.4L65.3,284.2L71.7,289.0L80.0,290.2L88.2,290.9L92.3,287.7L98.9,279.2L107.0,279.2L114.4,280.1L122.1,281.4L128.2,281.7L130.8,284.2L136.5,292.1L138.2,301.3L142.2,305.1L146.7,302.6L161.6,302.9L161.9,305.4L156.9,310.5L160.2,315.5L165.9,322.8L172.2,328.8L173.4,333.0L177.7,332.6L186.0,334.8L192.3,337.7L198.5,341.5L205.7,349.1L209.6,352.0L209.7,350.0L215.2,346.2L220.6,345.6L225.4,344.0L229.6,343.4L232.7,340.8L235.1,340.8L235.2,341.0L236.6,334.2L235.0,326.0L233.4,322.8L231.3,320.6L230.1,318.1L229.7,314.3L228.8,310.2L224.9,307.6L222.6,302.9L222.9,300.4L224.8,298.8L228.0,298.8L228.8,296.9L227.7,285.2L229.4,280.8L237.4,280.1L239.6,279.7L237.5,276.7L229.0,267.5L221.5,262.5L218.0,259.0L218.2,255.5L216.8,251.7L208.4,252.0L200.0,251.1L191.2,246.7L188.1,245.6L185.4,246.7L182.3,250.8L184.9,258.3L181.4,262.5L174.2,264.7L161.4,261.8L151.6,263.1L147.2,266.9L140.1,265.9L132.9,262.5L130.3,259.3L127.3,253.3L124.4,250.4L119.1,249.8L108.6,249.5L98.4,245.6L93.0,241.0L89.0,245.5Z " data-id="MK.GT" data-name="Gostivar" id="MK.GT"/>
utf-8utf-8<path d="M281.9,124.2L277.6,117.4L270.3,108.0L255.2,95.8L239.3,85.4L233.8,82.9L228.1,82.1L219.2,87.5L207.3,99.1L217.5,106.9L223.9,113.2L229.8,119.9L233.9,126.2L237.3,127.9L241.1,128.6L244.2,130.4L246.0,134.6L246.0,139.9L242.3,144.4L239.1,146.9L235.4,153.9L233.3,159.5L227.5,162.3L220.9,163.3L210.4,165.5L209.0,166.9L209.4,168.0L210.5,171.0L210.6,171.4L212.2,172.5L219.0,174.2L223.4,174.2L226.2,172.8L228.4,174.2L228.7,177.4L226.5,179.5L227.6,181.2L232.4,182.6L240.3,183.3L243.2,183.3L245.0,180.5L246.9,179.5L250.7,179.5L253.2,179.3L253.2,177.4L256.0,175.5L261.3,174.6L268.3,171.9L268.0,168.2L264.2,162.7L262.9,159.1L262.9,156.4L265.2,153.7L268.8,152.2L270.2,150.3L269.8,146.1L267.8,141.9L265.7,142.3L263.3,143.8L260.4,143.8L257.0,140.4L253.5,137.8L254.9,135.8L259.2,133.9L264.8,133.6L269.5,132.8L274.2,132.8L278.9,132.0L283.0,127.1L283.5,125.6L281.9,124.2Z " data-id="MK.JG" data-name="Jegunovce" id="MK.JG"/>
utf-8utf-8<path d="M877.3,424.9L872.9,428.5L863.1,431.4L851.7,431.2L842.7,421.8L837.8,419.7L834.4,417.5L831.8,417.5L827.1,415.2L823.2,415.7L821.2,420.2L815.6,427.2L815.0,426.7L814.8,429.9L813.1,431.4L808.4,430.8L806.2,429.4L803.4,429.4L798.9,430.8L793.5,433.2L791.2,435.7L791.2,436.5L791.2,437.7L794.1,440.4L797.9,444.7L802.4,448.8L806.4,451.9L811.5,454.0L819.1,453.7L822.9,454.2L825.1,455.8L827.3,458.5L827.5,460.7L826.3,463.9L823.7,467.3L822.5,470.9L822.7,472.9L825.1,476.5L829.0,481.2L831.0,484.6L832.3,491.6L844.0,491.6L848.3,490.1L851.0,490.3L858.7,496.4L859.0,499.5L862.1,500.4L870.1,500.4L872.7,499.5L873.9,497.3L875.9,496.1L878.5,496.4L880.0,498.2L883.1,497.3L885.4,494.3L888.8,485.1L891.4,483.5L894.0,482.8L898.7,483.9L913.6,490.7L921.4,495.1L928.2,489.2L934.3,488.2L933.0,486.4L931.4,474.9L931.1,467.7L930.2,462.8L927.3,460.5L927.2,459.6L925.6,459.6L922.4,459.8L916.7,462.3L913.3,461.9L910.0,460.3L906.0,456.7L904.1,450.6L902.4,448.8L896.7,449.2L895.5,450.6L892.4,451.3L890.6,449.7L886.7,448.6L886.5,445.9L888.9,440.0L888.8,437.5L884.9,428.3L881.6,425.1L879.6,423.8L877.3,424.9Z " data-id="MK.RU" data-name="Southeastern" id="MK.RU"/>
utf-8utf-8<path d="M789.2,435.9L783.8,435.3L776.8,435.5L759.8,439.3L750.6,442.7L749.4,445.2L749.1,447.4L747.4,447.4L746.8,446.6L745.8,449.3L745.4,452.6L745.6,457.2L746.7,461.0L749.4,466.7L751.5,468.7L751.8,469.0L763.6,470.0L767.9,473.8L773.1,476.1L777.3,476.6L780.1,478.5L783.7,483.1L790.6,489.7L794.7,494.7L797.6,497.1L801.9,498.7L806.3,499.4L807.5,502.7L808.7,516.3L811.2,520.5L814.3,527.4L815.1,536.0L818.4,537.1L819.9,539.0L820.1,541.2L824.5,547.1L825.4,547.1L825.9,547.1L832.2,542.4L832.2,531.0L833.6,528.2L840.4,528.1L842.5,531.2L846.4,533.4L848.3,533.5L849.2,533.6L852.1,532.6L855.3,530.5L862.2,519.6L870.4,519.9L876.4,519.8L878.6,518.7L879.4,516.0L879.1,513.2L880.9,510.1L883.5,508.5L887.5,508.9L892.4,510.1L903.6,509.4L909.7,510.3L915.2,511.9L917.5,498.5L921.4,495.1L913.6,490.7L898.7,483.9L894.0,482.8L891.4,483.5L888.8,485.1L885.4,494.3L883.1,497.3L880.0,498.2L878.5,496.4L875.9,496.1L873.9,497.3L872.7,499.5L870.1,500.4L862.1,500.4L859.0,499.5L858.7,496.4L851.0,490.3L848.3,490.1L844.0,491.6L832.3,491.6L831.0,484.6L829.0,481.2L825.1,476.5L822.7,472.9L822.5,470.9L823.7,467.3L826.3,463.9L827.5,460.7L827.3,458.5L825.1,455.8L822.9,454.2L819.1,453.7L811.5,454.0L806.4,451.9L802.4,448.8L797.9,444.7L794.1,440.4L791.2,437.7L791.2,436.5L789.2,435.9Z " data-id="MK.VA" data-name="Valandovo" id="MK.VA"/>
utf-8utf-8<path d="M894.5,377.8L884.0,375.6L875.5,375.8L874.9,371.8L879.6,370.0L880.3,367.7L879.7,360.5L878.1,357.6L876.1,356.0L871.3,354.9L865.2,349.5L862.4,348.9L860.7,350.3L859.1,354.8L856.1,355.6L854.6,352.3L854.7,348.3L854.2,347.4L853.2,348.6L849.0,349.3L844.2,349.3L841.6,349.7L840.3,351.1L836.2,359.2L835.4,362.3L835.9,365.0L842.1,372.9L845.0,374.5L846.1,377.6L846.6,381.0L848.4,383.7L849.3,386.8L849.8,394.9L845.0,401.3L842.7,401.0L830.1,390.7L823.6,387.3L819.8,388.2L818.2,392.7L814.7,395.2L809.7,395.9L808.3,397.0L808.5,398.8L811.9,404.0L812.1,406.4L811.0,407.4L810.6,407.8L811.7,418.1L813.4,422.0L814.4,426.3L815.0,426.7L815.6,427.2L821.2,420.2L823.2,415.7L827.1,415.2L831.8,417.5L834.4,417.5L837.8,419.7L842.7,421.8L851.7,431.2L863.1,431.4L872.9,428.5L877.3,424.9L879.6,423.8L879.3,423.6L879.6,422.2L882.6,420.4L889.3,418.6L891.6,415.7L894.9,413.2L898.7,403.5L898.6,397.0L899.1,392.5L898.6,387.7L897.2,381.2L896.1,378.0L894.5,377.8Z " data-id="MK.VL" data-name="Vasilevo" id="MK.VL"/>
utf-8utf-8<path d="M846.4,533.4L842.5,531.2L840.4,528.1L833.6,528.2L832.2,531.0L832.2,542.4L825.9,547.1L825.4,547.1L827.1,549.5L829.8,551.9L834.2,557.4L834.9,559.8L834.8,566.0L833.9,569.6L833.4,576.7L834.5,577.7L843.5,578.2L854.0,583.1L860.4,586.7L861.9,589.3L863.2,588.8L869.4,583.7L875.4,575.8L875.9,571.9L875.2,567.6L876.1,564.1L882.0,562.6L886.6,563.7L887.1,564.2L889.2,560.5L887.8,550.3L886.7,549.2L884.8,549.2L877.7,544.8L874.7,543.8L869.3,543.7L867.9,544.4L861.2,544.9L858.9,544.5L854.7,539.6L851.8,538.4L849.3,536.2L848.3,533.5L846.4,533.4Z " data-id="MK.BG" data-name="Bogdanci" id="MK.BG"/>
utf-8utf-8<path d="M947.8,402.8L943.7,398.3L940.0,396.1L926.6,395.4L919.6,394.5L914.8,393.6L908.6,390.0L904.9,386.4L903.4,382.1L900.2,378.5L896.1,378.0L897.2,381.2L898.6,387.7L899.1,392.5L898.6,397.0L898.7,403.5L894.9,413.2L891.6,415.7L889.3,418.6L882.6,420.4L879.6,422.2L879.3,423.6L879.6,423.8L881.6,425.1L884.9,428.3L888.8,437.5L888.9,440.0L886.5,445.9L886.7,448.6L890.6,449.7L892.4,451.3L895.5,450.6L896.7,449.2L902.4,448.8L904.1,450.6L906.0,456.7L910.0,460.3L913.3,461.9L916.7,462.3L922.4,459.8L925.6,459.6L927.2,459.6L927.2,459.4L927.5,458.2L932.0,454.6L932.3,449.0L930.7,435.3L932.4,433.0L941.4,426.0L944.3,422.2L948.0,416.3L950.3,414.6L951.0,410.7L950.2,405.1L949.6,402.8L947.8,402.8Z " data-id="MK.BS" data-name="Bosilovo" id="MK.BS"/>
utf-8utf-8<path d="M824.5,547.1L820.1,541.2L819.9,539.0L818.4,537.1L815.1,536.0L814.3,527.4L811.2,520.5L808.7,516.3L807.5,502.7L806.3,499.4L801.9,498.7L797.6,497.1L794.7,494.7L790.6,489.7L783.7,483.1L780.1,478.5L777.3,476.6L773.1,476.1L767.9,473.8L763.6,470.0L751.8,469.0L751.5,468.7L751.3,469.9L751.9,474.9L755.4,478.7L757.6,483.5L758.2,493.1L756.3,493.7L747.8,493.3L739.8,493.7L738.0,495.3L733.5,501.3L733.5,503.0L733.5,503.4L736.1,507.4L736.7,510.2L738.3,521.6L740.6,522.6L742.5,522.6L743.7,523.8L743.8,526.6L740.1,528.0L733.5,533.6L729.1,535.6L724.3,536.0L724.3,539.0L727.2,545.1L728.3,549.3L730.5,553.7L730.7,556.1L721.4,556.7L714.8,557.7L712.6,558.7L711.5,561.3L710.8,566.5L713.4,571.9L718.0,572.4L733.3,576.8L745.4,578.2L749.2,579.2L750.4,581.0L751.5,587.3L752.5,588.9L755.0,589.2L758.1,587.2L765.5,587.0L775.3,585.4L780.3,585.7L784.0,587.3L792.9,592.3L797.5,593.8L809.2,594.3L815.4,593.7L828.1,590.3L834.4,590.2L847.4,592.0L856.0,591.5L861.9,589.3L860.4,586.7L854.0,583.1L843.5,578.2L834.5,577.7L833.4,576.7L833.9,569.6L834.8,566.0L834.9,559.8L834.2,557.4L829.8,551.9L827.1,549.5L825.4,547.1L824.5,547.1Z " data-id="MK.GV" data-name="Southeastern" id="MK.GV"/>
utf-8utf-8<path d="M982.9,399.9L979.2,400.6L976.0,401.9L962.3,402.8L952.2,402.8L949.6,402.8L950.2,405.1L951.0,410.7L950.3,414.6L948.0,416.3L944.3,422.2L941.4,426.0L932.4,433.0L930.7,435.3L932.3,449.0L932.0,454.6L927.5,458.2L927.2,459.4L927.2,459.6L927.3,460.5L930.2,462.8L931.1,467.7L931.4,474.9L933.0,486.4L934.3,488.2L945.6,486.3L981.6,488.8L990.3,482.1L990.8,473.3L987.8,463.3L985.9,453.2L986.9,450.3L990.9,445.2L991.7,442.9L990.9,440.2L988.1,435.4L987.4,433.1L982.9,399.9Z " data-id="MK.NS" data-name="Novo Selo" id="MK.NS"/>
utf-8utf-8<path d="M848.3,533.5L849.3,536.2L851.8,538.4L854.7,539.6L858.9,544.5L861.2,544.9L867.9,544.4L869.3,543.7L874.7,543.8L877.7,544.8L884.8,549.2L886.7,549.2L887.8,550.3L889.2,560.5L887.1,564.2L889.2,566.4L891.3,570.1L894.7,573.9L902.3,579.6L907.6,581.9L911.6,579.1L915.2,569.5L917.1,551.2L914.9,513.5L915.2,511.9L909.7,510.3L903.6,509.4L892.4,510.1L887.5,508.9L883.5,508.5L880.9,510.1L879.1,513.2L879.4,516.0L878.6,518.7L876.4,519.8L870.4,519.9L862.2,519.6L855.3,530.5L852.1,532.6L849.2,533.6L848.3,533.5Z " data-id="MK.SD" data-name="Dojran" id="MK.SD"/>
utf-8utf-8<path d="M824.4,181.3L818.3,180.6L815.4,181.1L813.2,183.1L812.3,190.3L808.1,200.1L803.9,202.8L801.1,202.8L795.4,200.6L795.4,200.4L793.7,201.5L789.9,204.0L785.2,203.7L783.2,202.4L781.1,199.9L776.5,197.2L770.2,197.4L769.3,199.2L768.8,205.5L768.7,212.0L767.3,216.7L767.6,220.8L769.3,232.2L766.8,235.1L766.8,236.1L766.8,236.7L768.3,238.9L770.6,241.0L773.1,249.7L774.9,263.2L774.8,271.7L775.1,274.0L775.6,279.6L775.8,283.1L776.1,283.0L779.7,283.9L782.7,285.9L787.4,290.1L790.9,291.5L799.7,291.3L804.9,290.1L807.0,288.1L808.4,283.6L811.1,283.4L812.6,284.5L815.3,289.3L817.7,290.6L824.5,293.3L830.2,298.0L834.8,301.2L839.8,303.0L846.0,303.4L846.4,303.4L846.4,303.3L849.3,300.8L853.5,300.2L858.9,300.2L862.2,296.1L864.2,290.5L865.2,284.9L864.9,277.0L863.9,272.1L862.3,269.6L862.6,265.8L863.5,265.6L863.1,264.9L862.8,260.2L863.2,256.8L865.7,253.4L867.6,249.2L868.5,241.5L868.9,234.8L871.7,229.4L872.9,226.3L874.4,224.9L874.2,222.4L866.8,221.6L861.9,220.4L846.0,213.2L838.0,211.0L833.6,210.1L831.8,208.8L829.5,193.3L828.7,185.9L828.1,182.8L824.4,181.3Z " data-id="MK.NI" data-name="Vinitsa" id="MK.NI"/>
utf-8utf-8<path d="M896.1,274.3L889.3,270.9L883.5,269.4L868.6,267.8L864.7,268.0L863.5,265.6L862.6,265.8L862.3,269.6L863.9,272.1L864.9,277.0L865.2,284.9L864.2,290.5L862.2,296.1L858.9,300.2L853.5,300.2L849.3,300.8L846.4,303.3L846.4,303.4L846.6,306.9L847.4,311.8L849.4,318.0L852.5,320.2L855.7,321.6L857.7,323.6L857.7,326.1L855.9,328.6L853.2,334.3L851.2,337.1L851.2,340.2L852.4,344.1L854.2,347.4L854.7,348.3L854.6,352.3L856.1,355.6L859.1,354.8L860.7,350.3L862.4,348.9L865.2,349.5L871.3,354.9L876.1,356.0L878.1,357.6L879.7,360.5L880.3,367.7L879.6,370.0L874.9,371.8L875.5,375.8L884.0,375.6L894.5,377.8L896.1,378.0L900.2,378.5L903.4,382.1L904.9,386.4L908.6,390.0L914.8,393.6L919.6,394.5L926.6,395.4L940.0,396.1L943.7,398.3L947.8,402.8L949.6,402.8L952.2,402.8L962.3,402.8L976.0,401.9L979.2,400.6L982.9,399.9L981.9,392.6L983.0,384.8L983.1,382.0L981.8,378.8L977.6,373.5L976.0,370.8L974.7,364.5L974.4,357.7L974.9,351.2L976.2,345.7L978.0,344.1L984.0,342.5L986.0,341.3L987.0,338.9L988.8,332.1L991.8,327.0L984.8,322.4L973.8,319.2L965.8,313.6L959.5,310.3L953.3,309.8L947.9,310.0L947.5,306.7L945.2,303.3L940.5,301.5L923.0,298.6L917.7,298.8L915.6,300.4L915.5,302.9L914.4,303.5L911.2,302.9L909.4,299.7L908.7,295.2L907.7,292.5L904.8,291.2L901.9,284.9L898.0,278.1L897.0,274.4L896.1,274.3Z " data-id="MK.BR" data-name="Berovo" id="MK.BR"/>
utf-8utf-8<path d="M831.7,137.2L832.1,148.4L833.7,170.0L832.9,171.3L827.1,172.6L826.5,175.1L828.1,182.8L828.7,185.9L829.5,193.3L831.8,208.8L833.6,210.1L838.0,211.0L846.0,213.2L861.9,220.4L866.8,221.6L874.2,222.4L874.4,224.9L872.9,226.3L871.7,229.4L868.9,234.8L868.5,241.5L867.6,249.2L865.7,253.4L863.2,256.8L862.8,260.2L863.1,264.9L863.5,265.6L864.7,268.0L868.6,267.8L883.5,269.4L889.3,270.9L896.1,274.3L897.0,274.4L900.6,274.8L903.7,274.3L907.3,270.5L909.6,266.5L913.9,264.9L917.3,264.4L923.5,250.7L928.1,245.6L939.1,237.9L941.7,235.1L941.1,234.6L939.7,231.0L939.2,224.1L938.2,220.8L932.9,210.0L928.8,199.1L927.0,187.8L925.5,182.7L919.6,167.7L917.2,165.3L912.5,162.7L910.3,162.6L904.5,164.4L901.7,164.5L898.4,162.3L895.5,156.1L893.6,154.2L889.5,153.8L871.8,154.5L869.1,153.5L863.5,148.1L851.6,145.9L831.7,137.2Z " data-id="MK.DL" data-name="Delcevo" id="MK.DL"/>
utf-8utf-8<path d="M827.8,135.5L791.6,113.6L782.7,106.2L781.2,104.3L774.7,107.5L758.4,117.8L754.8,123.2L748.3,126.6L748.4,127.6L748.5,128.8L750.7,133.5L753.5,134.9L755.1,133.3L756.4,130.6L758.6,129.5L761.0,130.8L764.0,134.2L764.9,139.4L765.9,149.0L768.0,153.0L778.1,157.7L779.8,159.3L781.6,166.5L781.8,170.1L786.6,175.5L787.8,178.1L790.8,181.1L791.7,190.3L792.8,193.8L795.0,196.8L795.4,200.4L795.4,200.6L801.1,202.8L803.9,202.8L808.1,200.1L812.3,190.3L813.2,183.1L815.4,181.1L818.3,180.6L824.4,181.3L828.1,182.8L826.5,175.1L827.1,172.6L832.9,171.3L833.7,170.0L832.1,148.4L831.7,137.2L827.8,135.5Z " data-id="MK.MK" data-name="Makedonska Kamenica" id="MK.MK"/>
utf-8utf-8<path d="M996.2,319.5L999.3,308.5L997.9,297.4L989.9,287.4L985.5,285.6L976.2,285.2L971.7,283.5L968.9,280.0L958.7,262.2L952.8,246.0L949.8,240.4L947.8,238.5L943.0,236.3L941.7,235.1L939.1,237.9L928.1,245.6L923.5,250.7L917.3,264.4L913.9,264.9L909.6,266.5L907.3,270.5L903.7,274.3L900.6,274.8L897.0,274.4L898.0,278.1L901.9,284.9L904.8,291.2L907.7,292.5L908.7,295.2L909.4,299.7L911.2,302.9L914.4,303.5L915.5,302.9L915.6,300.4L917.7,298.8L923.0,298.6L940.5,301.5L945.2,303.3L947.5,306.7L947.9,310.0L953.3,309.8L959.5,310.3L965.8,313.6L973.8,319.2L984.8,322.4L991.8,327.0L996.2,319.5Z " data-id="MK.PH" data-name="Phecevo" id="MK.PH"/>
utf-8utf-8<path d="M99.1,445.0L98.1,446.2L95.8,448.8L91.8,454.2L86.6,457.1L75.2,456.4L62.1,456.4L50.0,456.2L44.3,456.9L44.9,458.0L45.4,464.4L43.4,472.3L40.2,478.8L35.6,484.7L30.3,487.8L24.5,486.2L23.9,496.5L27.3,510.8L33.8,529.4L62.3,527.8L74.2,529.1L83.9,531.5L85.9,534.8L83.9,539.0L74.2,543.2L42.4,548.4L58.6,567.2L65.8,578.2L68.8,589.0L69.3,597.4L72.7,603.9L84.3,608.7L89.7,609.2L95.4,609.1L98.3,569.8L99.7,565.3L105.2,562.9L126.4,565.3L133.1,568.7L133.9,567.1L132.8,565.0L133.3,559.6L133.2,557.7L129.4,554.2L128.3,550.7L128.1,547.5L129.0,544.0L134.4,537.0L136.5,528.4L136.9,518.0L136.0,513.8L132.7,509.4L127.1,503.4L124.4,499.6L123.4,488.5L120.7,476.7L116.1,469.1L110.9,461.8L106.1,454.5L102.0,447.9L101.7,447.6L100.6,446.5L99.1,445.0Z " data-id="MK.UG" data-name="Struga" id="MK.UG"/>
utf-8utf-8<path d="M664.8,113.5L664.4,106.6L662.2,98.5L658.7,92.5L654.4,74.4L652.3,65.0L653.9,55.6L652.4,48.7L645.0,42.3L636.6,40.1L631.5,35.4L628.7,24.1L612.7,30.4L599.4,32.6L593.3,32.0L594.1,38.9L595.8,42.2L598.0,54.2L595.6,56.9L588.1,58.0L586.9,60.8L588.0,64.0L591.4,68.9L592.3,79.2L592.9,81.5L598.3,88.6L600.1,92.0L600.4,95.0L598.8,97.1L592.7,97.6L591.5,97.4L594.5,100.3L598.2,103.1L602.0,103.1L603.2,104.2L604.5,111.7L606.2,113.8L615.1,114.2L621.8,117.2L626.7,122.4L633.7,126.8L641.2,132.4L647.8,132.2L651.5,130.5L656.4,129.4L659.8,127.9L660.3,126.4L659.8,123.2L659.9,119.1L662.8,117.9L663.9,117.8L664.8,113.5Z " data-id="MK.RN" data-name="Rankovce" id="MK.RN"/>
utf-8utf-8<path d="M361.2,157.0L357.8,152.3L354.5,149.8L351.3,150.5L348.8,153.0L349.0,157.7L349.3,161.0L350.6,162.1L354.0,162.4L356.6,164.9L357.8,167.8L360.5,170.7L363.2,171.1L364.8,169.8L363.1,165.2L362.2,159.2L362.7,159.6L361.2,157.0Z " data-id="MK.SO" data-name="Šuto Orizari" id="MK.SO"/>
utf-8</g>
</svg>
