<?xml version="1.0" ?>
<!DOCTYPE svg
  PUBLIC '-//W3C//DTD SVG 1.1//EN'
  'http://www.w3.org/Graphics/SVG/1.1/DTD/svg11.dtd'>
<svg enable_background="new 0 0 1000 1031" height="1031px" pretty_print="True" style="stroke-linejoin: round; stroke:#000; fill: none;" version="1.1" viewBox="0 0 1000 1031" width="1000px" xmlns="http://www.w3.org/2000/svg" xmlns:xlink="http://www.w3.org/1999/xlink">
utf-8<defs>
utf-8utf-8<style type="text/css">
<![CDATA[path { fill-rule: evenodd; }]]>utf-8utf-8</style>
utf-8</defs>
utf-8<metadata>
utf-8utf-8<views>
utf-8utf-8utf-8<view h="1031.03587441" padding="0" w="1000">
utf-8utf-8utf-8utf-8<proj flip="auto" id="robinson" lon0="-3.88800972514"/>
utf-8utf-8utf-8utf-8<bbox h="249.1" w="241.83" x="-179.9" y="-419.13"/>
utf-8utf-8utf-8</view>
utf-8utf-8</views>
utf-8</metadata>
utf-8<g class="" id="provinces">
utf-8utf-8<path d="M410.2,657.3L410.3,657.2L419.4,654.1L423.2,650.2L427.1,645.7L431.9,650.2L435.5,650.9L440.8,650.6L450.3,651.6L459.9,652.1L474.3,646.9L478.8,643.5L487.1,642.6L491.7,637.6L493.5,636.3L502.7,635.2L504.3,641.5L509.5,645.8L510.8,650.3L510.9,658.2L517.9,657.2L523.2,658.4L525.9,655.0L530.4,652.8L532.4,650.8L532.0,644.7L532.9,641.6L536.7,638.8L542.2,639.0L547.5,632.4L549.9,630.4L552.2,631.6L552.7,634.7L559.7,634.2L564.5,632.8L566.8,633.2L570.0,636.8L575.9,642.7L577.0,648.0L583.4,660.2L586.4,666.8L590.4,670.1L595.3,671.3L602.6,668.9L613.7,664.2L623.3,662.7L627.8,662.3L633.7,662.9L641.6,662.5L653.2,666.4L659.7,670.1L664.6,674.2L670.1,680.0L697.0,688.5L698.1,687.5L700.1,686.9L713.4,686.9L709.8,661.3L705.6,640.9L704.6,636.6L701.7,619.8L700.8,580.6L702.2,572.0L702.4,558.5L700.4,557.3L694.3,556.5L646.5,551.4L645.8,548.5L646.5,545.1L640.7,518.2L645.3,514.8L687.3,492.4L690.4,418.4L685.6,410.8L658.3,386.8L620.8,351.9L664.3,326.5L691.7,301.8L730.4,266.2L743.9,218.0L743.1,217.3L686.0,174.2L613.6,119.2L567.2,83.9L495.4,29.1L474.7,13.2L456.6,0.0L351.1,0.1L355.2,44.2L361.2,111.1L366.5,169.6L379.5,311.7L385.0,372.3L403.5,583.7L404.8,588.7L419.6,600.2L416.2,623.2L410.2,657.0L410.2,657.3Z " data-id="ML.TB" data-name="Timbuktu" id="ML.TB"/>
utf-8utf-8<path d="M743.9,218.0L730.4,266.2L691.7,301.8L664.3,326.5L620.8,351.9L658.3,386.8L685.6,410.8L690.4,418.4L747.6,435.5L765.5,460.2L778.0,475.3L816.3,510.3L852.1,501.4L862.8,486.3L998.9,486.3L998.9,482.5L998.2,405.4L957.1,414.2L945.9,416.9L944.3,417.0L941.4,415.6L937.9,411.7L935.1,410.4L931.5,407.5L930.5,405.9L931.0,403.4L934.7,397.8L935.8,392.7L939.3,390.0L939.9,388.4L937.7,383.4L938.1,381.0L936.1,376.9L936.0,374.2L937.1,360.3L936.0,358.4L931.9,356.7L928.4,353.7L920.8,350.1L904.3,346.3L901.0,346.1L893.6,344.6L891.5,343.3L884.8,336.5L880.6,330.9L876.9,327.7L873.5,327.0L869.7,330.5L867.2,331.1L863.4,329.7L857.3,330.0L856.0,326.4L855.1,325.6L851.8,325.6L850.5,324.9L843.3,318.5L842.7,317.5L842.8,312.3L842.4,309.8L841.2,307.8L837.3,304.6L835.0,303.3L825.6,300.5L822.3,296.0L818.8,294.8L816.5,295.4L813.0,294.9L812.5,294.0L813.7,284.7L814.5,277.1L813.2,271.1L812.5,269.7L748.2,221.3L743.9,218.0Z " data-id="ML.KD" data-name="Kidal" id="ML.KD"/>
utf-8utf-8<path d="M690.4,418.4L687.3,492.4L645.3,514.8L640.7,518.2L646.5,545.1L645.8,548.5L646.5,551.4L694.3,556.5L700.4,557.3L702.4,558.5L702.2,572.0L700.8,580.6L701.7,619.8L704.6,636.6L705.6,640.9L709.8,661.3L713.4,686.9L715.3,686.8L719.6,692.2L725.6,688.6L729.3,687.8L733.6,688.9L756.9,698.5L756.6,695.1L757.1,692.7L765.1,694.9L773.0,692.9L774.9,692.8L784.3,696.6L790.3,694.5L799.5,694.2L802.7,693.0L820.6,674.4L824.3,672.7L925.3,668.9L926.4,663.1L929.7,662.8L954.6,667.5L956.0,667.9L956.6,659.9L957.2,658.0L962.4,654.4L967.1,648.6L969.4,647.3L974.2,646.3L976.4,644.9L978.9,640.4L981.1,628.1L984.6,624.2L983.9,621.0L983.9,617.1L989.2,602.4L992.7,598.3L996.1,595.9L996.6,594.3L996.3,567.0L997.5,564.3L997.2,557.5L999.5,554.1L999.0,491.1L998.9,486.3L862.8,486.3L852.1,501.4L816.3,510.3L778.0,475.3L765.5,460.2L747.6,435.5L690.4,418.4Z " data-id="ML.GA" data-name="Gao" id="ML.GA"/>
utf-8utf-8<path d="M261.0,861.9L261.7,860.4L261.4,854.4L259.2,851.8L254.5,852.3L253.7,853.8L254.3,860.1L258.9,862.6L261.0,861.9Z " data-id="ML.KK" data-name="Bamako" id="ML.KK"/>
utf-8utf-8<path d="M188.2,658.0L177.7,658.0L178.1,651.7L179.0,647.0L178.9,644.7L177.4,644.0L176.2,644.9L172.5,649.8L171.5,653.6L173.1,661.9L158.1,662.5L150.5,666.0L148.1,666.7L141.1,666.0L134.1,667.1L124.7,664.5L119.5,662.2L105.9,661.8L101.5,663.0L95.3,662.3L93.4,664.4L93.4,667.3L88.0,672.4L87.0,676.1L82.5,685.2L80.6,681.8L78.4,679.4L76.7,675.8L74.8,673.7L59.7,661.1L58.5,659.7L53.1,650.7L50.1,648.5L46.0,647.9L46.7,650.1L42.8,652.3L40.6,654.9L33.8,654.9L33.8,657.3L31.2,662.1L30.2,667.0L26.2,680.0L25.2,689.0L28.0,690.4L28.2,691.4L26.9,697.5L27.5,699.3L24.9,702.5L22.9,704.0L20.4,704.6L17.0,708.4L11.5,710.4L9.0,707.9L6.8,707.5L4.2,708.6L0.5,708.0L5.5,713.7L4.7,715.5L6.4,717.2L6.3,718.3L4.3,720.9L3.9,723.3L1.9,725.7L2.8,731.5L2.7,734.5L9.1,737.1L8.3,739.2L10.1,741.7L12.5,742.7L13.9,744.3L16.1,750.1L14.3,759.8L14.2,762.7L17.9,767.9L17.9,773.5L16.9,776.6L14.8,778.9L9.6,782.1L12.4,787.0L13.1,789.5L15.6,793.2L19.0,796.1L22.4,799.5L22.0,805.4L23.6,806.3L26.3,809.3L28.8,807.1L30.0,803.2L31.8,802.8L33.2,804.6L34.9,804.4L38.7,805.9L38.7,807.4L40.6,811.1L41.9,812.5L41.2,817.1L43.1,819.6L43.3,823.2L48.3,825.7L47.8,827.1L49.9,830.3L49.0,833.8L52.1,833.8L52.2,835.6L49.5,840.2L49.2,842.3L50.8,846.0L51.0,849.5L48.8,850.9L47.4,854.6L48.5,855.3L48.7,860.7L47.3,862.1L49.9,863.5L50.8,866.4L52.3,866.9L51.6,873.6L48.0,874.3L48.1,880.1L46.9,882.9L44.2,886.9L45.2,889.7L54.6,898.4L58.2,900.5L63.3,899.2L64.9,896.8L65.3,894.8L66.7,894.3L70.6,889.8L71.4,886.9L76.8,885.1L80.5,886.3L82.9,890.6L86.8,893.5L88.2,900.5L90.6,905.7L92.4,907.8L95.8,907.2L98.4,902.4L101.7,900.5L101.3,899.0L104.4,896.5L104.7,892.0L108.7,891.8L114.3,888.7L114.3,887.7L119.6,885.1L120.8,886.3L126.1,888.1L128.6,888.4L132.1,890.0L138.1,893.5L149.2,898.3L152.6,898.4L155.5,890.9L158.4,888.4L165.3,885.9L170.0,882.5L174.7,883.1L176.3,879.0L177.9,876.3L175.6,872.7L174.0,871.7L171.7,868.7L172.6,867.4L176.5,865.8L180.6,865.9L187.8,868.0L195.0,872.2L196.1,870.8L194.0,869.2L196.6,864.0L201.5,859.6L203.5,855.2L205.8,853.9L211.4,852.4L213.7,850.7L216.3,847.3L221.4,844.3L219.2,840.7L219.9,837.3L222.6,832.4L223.9,817.3L225.6,813.7L228.5,804.8L230.6,802.9L230.4,798.9L225.3,791.5L224.5,783.6L224.8,782.2L227.6,778.5L230.5,773.9L230.9,769.2L227.3,765.0L225.2,765.0L222.4,770.0L222.3,772.8L220.8,772.9L215.6,772.0L214.5,771.0L212.8,767.4L208.9,765.7L206.5,762.4L208.8,757.7L208.8,754.3L212.1,754.1L212.5,752.1L209.5,741.7L214.8,741.7L219.2,739.9L221.2,736.7L222.6,733.4L226.6,735.3L228.3,739.1L230.0,740.8L238.8,739.8L242.1,740.5L248.8,739.5L250.6,738.1L249.0,731.6L249.6,727.8L248.8,726.8L244.4,725.6L240.6,721.4L230.8,713.3L229.5,710.9L230.2,701.0L229.2,696.4L228.3,694.9L224.4,694.0L218.0,693.6L214.2,690.6L211.4,682.5L210.5,675.4L207.8,672.1L199.3,666.9L197.7,665.0L190.3,658.0L188.2,658.0Z " data-id="ML.KY" data-name="Kayes" id="ML.KY"/>
utf-8utf-8<path d="M472.5,850.5L471.3,850.1L466.1,850.3L463.5,851.5L462.5,847.8L458.7,848.9L454.8,854.4L453.5,857.0L451.2,857.8L435.9,860.4L433.9,858.7L434.1,854.6L431.9,851.3L431.1,848.7L423.6,845.1L421.9,846.5L417.1,853.1L415.2,857.5L413.5,858.2L409.9,854.5L409.4,850.7L407.6,849.2L405.6,844.1L404.8,843.6L394.8,849.7L385.5,855.0L382.7,854.8L378.9,856.1L366.3,858.3L363.2,861.8L365.3,865.4L366.2,872.4L368.4,872.0L371.6,874.8L372.7,877.8L374.8,878.9L380.2,878.5L382.0,879.4L382.3,885.5L380.0,891.7L377.8,891.5L373.6,892.9L371.8,892.8L370.1,893.8L369.6,899.3L366.7,896.2L363.6,894.9L360.6,895.1L357.8,898.3L357.8,901.6L358.5,906.8L354.7,910.9L354.0,913.8L350.2,924.2L348.5,924.4L345.7,923.1L346.2,919.0L345.2,917.8L339.9,917.7L332.1,913.6L327.7,912.3L325.9,909.8L324.3,909.1L321.3,909.8L321.2,903.3L320.0,901.7L317.2,902.6L315.4,901.7L313.3,899.4L313.3,895.6L315.2,890.6L315.1,888.2L312.9,879.8L312.0,872.2L311.2,870.2L307.9,871.6L305.4,876.1L300.7,879.0L298.8,884.5L289.0,889.9L285.0,899.8L283.1,901.5L272.6,906.8L265.6,911.1L261.0,915.0L259.4,915.6L255.0,920.5L252.8,922.0L247.7,920.5L244.6,920.6L236.9,924.0L233.0,923.8L230.9,925.0L227.4,933.7L224.2,937.9L224.4,939.1L234.2,944.0L231.1,945.9L231.5,946.9L234.4,947.3L232.2,950.4L227.6,949.7L226.7,952.8L223.8,954.6L221.7,959.6L219.4,960.2L218.3,964.5L215.5,967.7L214.2,971.0L214.4,972.0L221.8,971.8L224.5,969.5L226.1,965.8L235.7,966.5L237.0,967.8L238.2,971.0L238.3,978.1L235.9,985.9L237.8,987.8L238.6,1001.5L242.6,1009.4L245.1,1010.1L248.3,1009.1L249.5,1013.8L250.7,1014.7L255.6,1015.2L257.6,1017.5L258.8,1022.6L257.1,1027.5L260.8,1027.6L266.9,1024.1L270.0,1019.5L270.1,1015.9L273.3,1013.6L272.6,1012.5L277.0,1008.5L278.3,1008.2L280.4,1009.7L286.1,1007.0L286.9,1007.0L290.4,1013.7L290.4,1015.6L294.8,1014.9L294.7,1018.7L296.3,1021.6L300.1,1021.7L304.9,1022.5L310.9,1024.4L311.9,1025.1L314.9,1029.0L316.4,1029.0L319.8,1025.9L319.7,1024.1L317.6,1021.2L319.1,1015.7L329.4,1013.0L337.1,1014.6L338.9,1008.8L336.0,1006.1L336.8,999.5L336.5,996.6L339.8,993.5L341.0,995.9L352.7,1000.2L354.1,997.7L352.4,991.2L353.5,990.6L357.6,990.8L361.4,988.6L362.9,988.4L364.3,999.9L362.5,1002.1L364.8,1004.5L367.0,1005.4L366.2,1007.7L367.3,1009.6L367.1,1013.9L363.6,1017.8L363.7,1021.3L364.6,1021.1L367.3,1023.8L371.9,1025.6L377.3,1025.6L378.5,1024.3L379.8,1019.8L380.6,1019.2L383.4,1020.3L384.1,1019.7L383.9,1015.9L385.8,1012.7L390.1,1010.1L398.0,1008.2L404.4,1007.6L405.8,1008.6L409.9,1001.7L411.3,994.1L410.3,993.7L409.9,991.3L410.8,986.6L412.1,985.5L412.1,977.9L410.2,971.2L408.8,971.5L409.2,969.7L408.7,964.4L409.6,963.8L415.7,962.9L419.2,961.0L420.8,955.7L422.7,953.5L423.6,950.9L423.2,943.7L424.4,941.5L425.7,940.8L425.9,932.0L425.3,929.6L423.2,927.6L421.3,927.5L422.5,921.0L422.2,916.9L418.1,914.4L417.1,914.7L414.6,912.4L422.9,911.5L431.3,903.4L433.4,902.1L439.4,901.5L442.5,899.8L446.4,900.3L454.2,899.7L460.8,895.4L461.8,892.1L466.5,889.8L464.9,886.5L470.3,881.6L471.6,877.5L474.1,879.3L475.9,878.9L475.3,875.9L473.1,870.0L476.7,864.4L476.8,863.0L471.3,855.4L470.8,854.3L471.8,850.6L472.5,850.5Z " data-id="ML.SK" data-name="Sikasso" id="ML.SK"/>
utf-8utf-8<path d="M419.4,654.1L420.2,657.8L426.8,658.1L429.8,659.8L431.5,667.7L434.8,678.8L428.2,690.7L424.3,694.3L419.6,694.0L410.3,696.9L407.7,697.2L406.0,703.2L403.9,708.8L404.6,714.1L403.5,715.9L403.0,720.7L400.5,722.9L400.3,724.8L409.5,731.2L419.8,738.2L423.3,740.9L429.1,749.8L427.4,759.2L427.8,762.3L432.7,764.6L437.3,765.4L446.5,763.7L449.2,763.8L449.9,766.6L449.1,770.2L447.5,771.8L447.4,773.8L449.0,777.0L447.7,782.9L447.7,786.8L449.0,790.1L452.6,787.6L456.4,787.7L459.5,786.9L464.3,791.1L469.9,787.6L477.4,786.1L478.6,783.1L483.8,773.0L490.8,767.0L494.1,765.9L495.8,766.7L498.5,772.8L500.3,782.4L503.5,789.5L503.0,797.0L503.0,797.1L505.9,799.7L505.8,800.4L502.6,804.1L507.4,804.7L513.1,806.9L517.6,810.9L520.3,812.8L525.3,817.1L530.2,818.9L534.2,819.2L534.8,818.1L534.3,812.5L535.6,811.9L545.6,811.3L546.4,810.6L544.4,793.4L545.9,785.3L544.2,782.6L545.4,781.3L547.0,781.9L549.7,784.2L554.0,784.0L556.6,786.2L557.5,788.9L560.5,786.8L561.9,786.9L568.0,785.8L566.3,779.2L566.0,775.5L568.1,770.9L571.4,758.7L580.3,753.1L586.2,746.3L591.1,743.1L594.4,742.2L599.0,743.3L613.2,750.8L615.1,751.3L621.0,747.9L622.1,730.9L622.6,729.0L624.4,728.1L632.3,728.4L636.6,728.2L640.8,727.3L661.8,712.1L664.4,710.8L676.0,707.6L678.3,706.5L696.3,689.0L697.0,688.5L670.1,680.0L664.6,674.2L659.7,670.1L653.2,666.4L641.6,662.5L633.7,662.9L627.8,662.3L623.3,662.7L613.7,664.2L602.6,668.9L595.3,671.3L590.4,670.1L586.4,666.8L583.4,660.2L577.0,648.0L575.9,642.7L570.0,636.8L566.8,633.2L564.5,632.8L559.7,634.2L552.7,634.7L552.2,631.6L549.9,630.4L547.5,632.4L542.2,639.0L536.7,638.8L532.9,641.6L532.0,644.7L532.4,650.8L530.4,652.8L525.9,655.0L523.2,658.4L517.9,657.2L510.9,658.2L510.8,650.3L509.5,645.8L504.3,641.5L502.7,635.2L493.5,636.3L491.7,637.6L487.1,642.6L478.8,643.5L474.3,646.9L459.9,652.1L450.3,651.6L440.8,650.6L435.5,650.9L431.9,650.2L427.1,645.7L423.2,650.2L419.4,654.1Z " data-id="ML.MO" data-name="Mopti" id="ML.MO"/>
utf-8utf-8<path d="M419.4,654.1L410.3,657.2L410.2,657.3L410.2,657.3L410.0,658.2L409.8,658.2L367.0,658.1L361.1,658.1L360.0,666.3L355.7,680.7L353.9,684.3L348.2,692.5L347.1,696.3L350.7,703.0L353.7,707.6L355.7,715.9L356.9,720.0L356.8,724.5L353.9,729.4L352.1,730.8L344.7,728.4L342.5,729.1L341.3,732.4L336.5,739.3L334.3,743.3L325.1,761.8L324.2,774.4L325.0,779.0L328.5,783.1L332.0,787.7L332.5,794.6L333.1,796.6L336.0,799.6L334.3,804.4L332.5,805.6L326.8,806.0L323.2,807.2L320.5,810.1L319.3,814.0L317.3,818.3L317.3,820.8L316.6,824.9L314.4,827.4L313.6,829.8L317.4,834.7L321.1,835.8L324.1,835.9L325.4,837.3L325.6,841.3L324.9,845.6L325.7,847.2L327.5,847.3L330.0,846.0L341.2,844.2L348.1,847.1L349.6,852.2L350.7,853.0L355.5,851.7L357.6,859.2L360.2,860.2L363.2,861.8L366.3,858.3L378.9,856.1L382.7,854.8L385.5,855.0L394.8,849.7L404.8,843.6L405.6,844.1L407.6,849.2L409.4,850.7L409.9,854.5L413.5,858.2L415.2,857.5L417.1,853.1L421.9,846.5L423.6,845.1L431.1,848.7L431.9,851.3L434.1,854.6L433.9,858.7L435.9,860.4L451.2,857.8L453.5,857.0L454.8,854.4L458.7,848.9L462.5,847.8L463.5,851.5L466.1,850.3L471.3,850.1L472.5,850.5L472.5,850.5L478.3,849.0L483.9,850.7L486.5,848.8L487.7,844.3L487.1,840.3L487.3,836.4L486.8,834.5L483.2,830.0L481.6,826.0L479.8,824.2L480.9,819.2L482.0,818.8L485.8,819.0L486.8,817.5L485.1,816.1L487.4,812.7L490.7,811.7L494.5,804.4L497.7,802.6L502.6,798.4L501.0,797.6L502.7,796.6L503.0,797.0L503.5,789.5L500.3,782.4L498.5,772.8L495.8,766.7L494.1,765.9L490.8,767.0L483.8,773.0L478.6,783.1L477.4,786.1L469.9,787.6L464.3,791.1L459.5,786.9L456.4,787.7L452.6,787.6L449.0,790.1L447.7,786.8L447.7,782.9L449.0,777.0L447.4,773.8L447.5,771.8L449.1,770.2L449.9,766.6L449.2,763.8L446.5,763.7L437.3,765.4L432.7,764.6L427.8,762.3L427.4,759.2L429.1,749.8L423.3,740.9L419.8,738.2L409.5,731.2L400.3,724.8L400.5,722.9L403.0,720.7L403.5,715.9L404.6,714.1L403.9,708.8L406.0,703.2L407.7,697.2L410.3,696.9L419.6,694.0L424.3,694.3L428.2,690.7L434.8,678.8L431.5,667.7L429.8,659.8L426.8,658.1L420.2,657.8L419.4,654.1Z " data-id="ML.SG" data-name="Ségou" id="ML.SG"/>
utf-8utf-8<path d="M190.3,658.0L197.7,665.0L199.3,666.9L207.8,672.1L210.5,675.4L211.4,682.5L214.2,690.6L218.0,693.6L224.4,694.0L228.3,694.9L229.2,696.4L230.2,701.0L229.5,710.9L230.8,713.3L240.6,721.4L244.4,725.6L248.8,726.8L249.6,727.8L249.0,731.6L250.6,738.1L248.8,739.5L242.1,740.5L238.8,739.8L230.0,740.8L228.3,739.1L226.6,735.3L222.6,733.4L221.2,736.7L219.2,739.9L214.8,741.7L209.5,741.7L212.5,752.1L212.1,754.1L208.8,754.3L208.8,757.7L206.5,762.4L208.9,765.7L212.8,767.4L214.5,771.0L215.6,772.0L220.8,772.9L222.3,772.8L222.4,770.0L225.2,765.0L227.3,765.0L230.9,769.2L230.5,773.9L227.6,778.5L224.8,782.2L224.5,783.6L225.3,791.5L230.4,798.9L230.6,802.9L228.5,804.8L225.6,813.7L223.9,817.3L222.6,832.4L219.9,837.3L219.2,840.7L221.4,844.3L216.3,847.3L213.7,850.7L211.4,852.4L205.8,853.9L203.5,855.2L201.5,859.6L196.6,864.0L194.0,869.2L196.1,870.8L195.0,872.2L197.1,873.4L198.8,876.2L198.9,877.7L196.9,882.1L198.2,887.2L200.1,886.6L202.3,890.0L201.3,897.1L202.4,898.1L206.4,898.2L207.5,899.3L208.8,906.2L205.6,923.9L206.7,923.8L209.8,925.4L213.8,925.1L215.1,930.1L217.1,935.1L220.4,936.8L223.9,936.4L224.2,937.9L227.4,933.7L230.9,925.0L233.0,923.8L236.9,924.0L244.6,920.6L247.7,920.5L252.8,922.0L255.0,920.5L259.4,915.6L261.0,915.0L265.6,911.1L272.6,906.8L283.1,901.5L285.0,899.8L289.0,889.9L298.8,884.5L300.7,879.0L305.4,876.1L307.9,871.6L311.2,870.2L312.0,872.2L312.9,879.8L315.1,888.2L315.2,890.6L313.3,895.6L313.3,899.4L315.4,901.7L317.2,902.6L320.0,901.7L321.2,903.3L321.3,909.8L324.3,909.1L325.9,909.8L327.7,912.3L332.1,913.6L339.9,917.7L345.2,917.8L346.2,919.0L345.7,923.1L348.5,924.4L350.2,924.2L354.0,913.8L354.7,910.9L358.5,906.8L357.8,901.6L357.8,898.3L360.6,895.1L363.6,894.9L366.7,896.2L369.6,899.3L370.1,893.8L371.8,892.8L373.6,892.9L377.8,891.5L380.0,891.7L382.3,885.5L382.0,879.4L380.2,878.5L374.8,878.9L372.7,877.8L371.6,874.8L368.4,872.0L366.2,872.4L365.3,865.4L363.2,861.8L360.2,860.2L357.6,859.2L355.5,851.7L350.7,853.0L349.6,852.2L348.1,847.1L341.2,844.2L330.0,846.0L327.5,847.3L325.7,847.2L324.9,845.6L325.6,841.3L325.4,837.3L324.1,835.9L321.1,835.8L317.4,834.7L313.6,829.8L314.4,827.4L316.6,824.9L317.3,820.8L317.3,818.3L319.3,814.0L320.5,810.1L323.2,807.2L326.8,806.0L332.5,805.6L334.3,804.4L336.0,799.6L333.1,796.6L332.5,794.6L332.0,787.7L328.5,783.1L325.0,779.0L324.2,774.4L325.1,761.8L334.3,743.3L336.5,739.3L341.3,732.4L342.5,729.1L344.7,728.4L352.1,730.8L353.9,729.4L356.8,724.5L356.9,720.0L355.7,715.9L353.7,707.6L350.7,703.0L347.1,696.3L348.2,692.5L353.9,684.3L355.7,680.7L360.0,666.3L361.1,658.1L358.4,658.1L319.6,658.1L197.7,658.0L190.3,658.0Z M261.0,861.9L258.9,862.6L254.3,860.1L253.7,853.8L254.5,852.3L259.2,851.8L261.4,854.4L261.7,860.4L261.0,861.9Z " data-id="ML.KK" data-name="Koulikoro" id="ML.KK"/>
utf-8</g>
</svg>
