<?xml version="1.0" encoding="UTF-8" standalone="no"?>
<svg
   xmlns:dc="http://purl.org/dc/elements/1.1/"
   xmlns:cc="http://creativecommons.org/ns#"
   xmlns:rdf="http://www.w3.org/1999/02/22-rdf-syntax-ns#"
   xmlns:svg="http://www.w3.org/2000/svg"
   xmlns="http://www.w3.org/2000/svg"
   xmlns:sodipodi="http://sodipodi.sourceforge.net/DTD/sodipodi-0.dtd"
   xmlns:inkscape="http://www.inkscape.org/namespaces/inkscape"
   enable_background="new 0 0 1000 1088"
   height="177"
   pretty_print="True"
   style="fill:none;stroke:#000000;stroke-linejoin:round"
   version="1.1"
   viewBox="0 0 73.699997 177"
   width="73.699997"
   id="svg3123"
   inkscape:version="0.48.4 r9939"
   sodipodi:docname="mm.svg"><sodipodi:namedview
   pagecolor="#ffffff"
   bordercolor="#666666"
   borderopacity="1"
   objecttolerance="10"
   gridtolerance="10"
   guidetolerance="10"
   inkscape:pageopacity="0"
   inkscape:pageshadow="2"
   inkscape:window-width="640"
   inkscape:window-height="480"
   id="namedview3153"
   showgrid="false"
   inkscape:zoom="0.21691176"
   inkscape:cx="-426.2"
   inkscape:cy="-367.4"
   inkscape:window-x="0"
   inkscape:window-y="0"
   inkscape:window-maximized="0"
   inkscape:current-layer="svg3123" />

utf-8<defs
   id="defs3125">
utf-8utf-8<style
   type="text/css"
   id="style3127">path { fill-rule: evenodd; }utf-8utf-8</style>

utf-8</defs>

utf-8<metadata
   id="metadata3129">
utf-8utf-8<views
   id="views3131">
utf-8utf-8utf-8<view
   h="1088.13517423"
   padding="0"
   w="1000"
   id="view3133">
utf-8utf-8utf-8utf-8<proj
   flip="auto"
   id="robinson"
   lon0="97.3149437654" />

utf-8utf-8utf-8utf-8<bbox
   h="1918.65"
   w="1764.87"
   x="-296.98"
   y="-478.59"
   id="bbox3136" />

utf-8utf-8utf-8</view>

utf-8utf-8</views>

utf-8<rdf:RDF>
  <cc:Work
     rdf:about="">
    <dc:format>image/svg+xml</dc:format>
    <dc:type
       rdf:resource="http://purl.org/dc/dcmitype/StillImage" />
  </cc:Work>
</rdf:RDF>
</metadata>

utf-8<g
   class=""
   id="provinces"
   transform="translate(-926.2,0.4)">
utf-8utf-8<path
   d="m 967.1,87.8 0,0.3 3.2,5.4 1.7,0.2 0.5,1.2 0.1,0 3,-0.8 -0.5,-8.9 0.1,0 -0.3,-0.7 -4.1,-2.9 -2,0.8 -1.7,5.4 0,0 z"
   data-id="MM.KH"
   data-name="Kayah"
   id="MM.KH"
   inkscape:connector-curvature="0" />

utf-8utf-8<path
   d="m 967.1,87.8 0,-0.5 -0.2,-0.2 -1.2,-1 -0.2,-0.2 -0.1,0 -0.5,0.6 -0.1,-0.1 -0.7,-0.4 -0.9,0.1 0.2,0.2 1.4,2.6 1.2,4.1 3.2,1.5 2.5,4.4 -0.4,1.3 1.2,4 0.2,0.2 0.1,0 1,-1.5 1.6,3.7 1,5.5 1.4,1.5 0,0 0.1,-0.1 0.2,0.2 0,0 2.2,1.3 -1,2.8 1.5,4.6 2.8,4.1 0.1,0 2.7,-1.3 -1,-6.6 2.6,-2 -0.6,-1.7 -1.8,-0.3 -6.6,-9.8 -2.2,-1.8 -4.5,-8.2 0.2,0.1 -0.5,-1.2 -1.7,-0.2 -3.2,-5.4 0,-0.3 0,0 z"
   data-id="MM.KN"
   data-name="Kayin"
   id="MM.KN"
   inkscape:connector-curvature="0" />

utf-8utf-8<path
   d="m 956.6,47.6 -2.8,1.7 0.8,1.8 0.2,3.9 2.1,7.2 -0.9,1.3 -4.3,2.2 -0.1,0.1 0,0.1 0.1,1.3 -3.5,2.2 0.2,2.8 5,2.1 1.6,-0.4 2.7,6 0.4,6.2 0.2,0.1 0.3,0 2.9,-0.2 1.2,0.1 0.5,0 0.9,-0.1 0.7,0.4 0.1,0.1 0.5,-0.6 0.1,0 0,-0.2 -2.4,-3.5 0.3,-3.4 -0.7,-6.1 -3.1,-1.2 1,-1.4 -0.7,-3.6 4.2,-1.9 -3.9,-4.1 -2.7,-4.5 0.1,-1.3 2.6,-0.3 0.8,-1.2 -4.3,-1.1 -0.5,-0.7 0.7,-3.5 0,-0.1 -0.3,-0.2 z"
   data-id="MM.MD"
   data-name="Mandalay"
   id="MM.MD"
   inkscape:connector-curvature="0" />

utf-8utf-8<path
   d="m 962.7,86.1 -1.2,-0.1 -2.9,0.2 -0.3,0 0,0.1 0.3,2.6 -3.9,1.3 -1,4.9 0.6,0.5 0.1,0.1 2.3,2.7 1.2,4.6 2.1,1.4 0.5,0.8 0.2,-0.5 2.1,-2.2 2.4,3.7 1.2,3.5 3.8,0.9 -0.1,0 0.5,-1.7 -0.3,-2.4 -0.5,-1.1 0.1,-0.2 -0.1,-1.1 2.9,0.4 0,-0.1 -0.2,-0.2 -1.2,-4 0.4,-1.3 -2.5,-4.4 -3.2,-1.5 -1.2,-4.1 -1.4,-2.6 -0.2,-0.2 -0.5,0 z"
   data-id="MM.BA"
   data-name="Bago"
   id="MM.BA"
   inkscape:connector-curvature="0" />

utf-8utf-8<path
   d="m 960.5,105.2 0,0.4 2.2,6.8 -0.3,2.1 1.7,1 -0.1,-0.1 2.3,0.2 -0.8,-3.2 1.9,2.1 2,-1.4 0.8,-2.5 0,0 -3.8,-0.9 -1.2,-3.5 -2.4,-3.7 -2.1,2.2 -0.2,0.5 z"
   data-id="MM.YA"
   data-name="Yangon"
   id="MM.YA"
   inkscape:connector-curvature="0" />

utf-8utf-8<path
   d="m 978.8,123.6 -0.3,-0.7 0.2,0.7 0.1,0 z m -1.7,-6.7 -0.7,-2.7 -0.5,0.6 1.2,2.1 z m 1,-3.2 -0.4,3.1 2.3,7.9 -0.3,1.3 0.8,3.7 0.1,0 0.6,-1.8 1.1,-0.2 1.4,0.9 0,-0.1 0.1,-0.2 -0.5,-1.9 0.3,0.1 -2.8,-4.1 -1.5,-4.6 1,-2.8 -2.2,-1.3 0,0 z m -5.4,-9.3 0,0.1 -2.9,-0.4 0.1,1.1 0,0 3.4,3.4 1.9,5.9 2.2,-0.6 0.4,-0.3 -1.4,-1.5 -1,-5.5 -1.6,-3.7 -1,1.5 -0.1,0 z"
   data-id="MM.MO"
   data-name="Mon"
   id="MM.MO"
   inkscape:connector-curvature="0" />

utf-8utf-8<path
   d="m 941.6,91.8 -1.5,0.3 1.5,1.5 0,-1.8 z m -2.5,-8.5 -0.8,-1.6 -0.3,0.1 1.1,1.5 z m 11.6,21.9 1.7,0.8 0.6,-4.5 -0.7,-4.1 -0.5,-0.7 0,0 -0.8,-3.3 -4.3,-8.1 -2,-5.3 -3.5,-4.4 -0.1,-1.2 -0.2,-0.1 -2.1,-1.3 0.2,1.5 -2,-0.1 -2.8,-3.2 -4.3,-2.5 0,0.1 -2.9,-1.6 -0.3,3.5 2.1,3.8 3.2,4.1 0,-1.8 3.8,4 1.8,-0.3 3.1,1.4 -0.6,1.5 3.4,3.3 -0.4,1 -3.8,-0.9 2.1,3.6 2.3,1.5 1.8,-0.1 1.2,3.1 1.7,2.2 2.3,7.9 0,0.2 z"
   data-id="MM.RA"
   data-name="Rakhine"
   id="MM.RA"
   inkscape:connector-curvature="0" />

utf-8utf-8<path
   d="m 938.3,44.6 -5.5,-1.1 -1.1,-1.2 1.3,4.2 -1.6,8.3 0.3,7.2 -2.6,-1.4 -0.4,4 1.1,4 0.1,0.1 4.3,2.5 2.8,3.2 2,0.1 -0.2,-1.5 2.1,1.3 0.2,0.1 0.6,0.5 1.1,-0.2 -0.5,-3.7 -1.7,-6.6 -1.3,-8.2 -0.1,-0.5 -0.2,-0.7 -0.3,-3.1 -0.3,-0.9 0,-6.5 -0.1,0.1 z"
   data-id="MM.CH"
   data-name="Chin"
   id="MM.CH"
   inkscape:connector-curvature="0" />

utf-8utf-8<path
   d="m 944.8,137.3 -0.1,-0.6 0,0.7 0.1,-0.1 z m 1.8,-7.5 0,-0.4 -0.2,0.5 0.2,-0.1 z m 8.1,-8.8 0,-1.4 -0.5,1 0.5,0.4 z m -3.3,-0.4 0.4,-1.2 0.8,-0.5 -1.2,1.7 z m 2.9,-25 -0.1,0 -0.7,1 -0.7,-0.4 -1,0.5 0,0 0.5,0.7 0.7,4.1 -0.6,4.5 -1.7,-0.8 0,0 -1.2,11.3 0.1,2.4 1.9,-0.9 2,-2.4 -0.5,4 1.2,-2.1 2.4,3.4 0,-2.6 0.9,2.7 4.2,-1.5 0.5,-1.8 2.3,-1.8 -0.4,-0.4 -1.7,-1 0.3,-2.1 -2.2,-6.8 0,-0.4 -0.5,-0.8 -2.1,-1.4 -1.2,-4.6 -2.3,-2.7 -0.1,-0.1 z"
   data-id="MM.AY"
   data-name="Ayeyarwady"
   id="MM.AY"
   inkscape:connector-curvature="0" />

utf-8utf-8<path
   d="m 951.3,65.7 -5.9,-1.9 -1,0.5 -1.8,-3.3 -1.5,-4.2 -1.7,-1.2 -0.2,0.1 0.1,0.5 1.3,8.2 1.7,6.6 0.5,3.7 -1.1,0.2 -0.6,-0.5 0.1,1.2 3.5,4.4 2,5.3 4.3,8.1 0.8,3.3 0,0 0,0 1,-0.5 0.7,0.4 0.7,-1 0.1,0 -0.6,-0.5 1,-4.9 3.9,-1.3 -0.3,-2.6 0,-0.1 -0.2,-0.1 -0.4,-6.2 -2.7,-6 -1.6,0.4 -5,-2.1 -0.2,-2.8 3.5,-2.2 -0.1,-1.3 0,-0.1 -0.3,-0.1 z"
   data-id="MM.MG"
   data-name="Magway"
   id="MM.MG"
   inkscape:connector-curvature="0" />

utf-8utf-8<path
   d="m 967.2,44.4 -4.9,2 -1.4,-3 -1.9,-1.4 -0.2,-0.2 -0.3,0 -1.1,1.1 0.8,1.4 -1.2,3.4 -0.1,0.1 0,0.1 -0.7,3.5 0.5,0.7 4.3,1.1 -0.8,1.2 -2.6,0.3 -0.1,1.3 2.7,4.5 3.9,4.1 -4.2,1.9 0.7,3.6 -1,1.4 3.1,1.2 0.7,6.1 -0.3,3.4 2.4,3.5 0,0.2 0.2,0.2 1.2,1 0.2,0.2 0,0.5 0,0 0,0 1.7,-5.4 2,-0.8 4.1,2.9 0.3,0.7 0.2,-0.1 0.7,-1.4 4,0.2 2.5,-1 0.7,0.6 0.7,-2.8 4,-1.2 0.5,-1.5 2.1,-1.1 1.6,0.9 0.6,-2.8 3.3,-2.4 -0.9,-0.1 1.8,-3.8 2.4,-2 0,-1.4 -3,0.3 -2.7,1.6 -2.2,0.2 -4.8,-5.7 -4.4,-0.9 0.9,-4.3 -0.7,-1.5 1.1,-2.9 -3.7,-0.5 -2.9,-4.1 -0.4,-2.2 -1,-0.3 -0.1,-3 -5,0.1 -3.3,2.2 0,0.1 z"
   data-id="MM.SH"
   data-name="Shan"
   id="MM.SH"
   inkscape:connector-curvature="0" />

utf-8utf-8<path
   d="m 989.5,166.8 0.1,-0.3 -0.1,0.1 0,0.2 z m -1.6,-2.6 -0.2,0.3 0.5,-0.3 -0.3,0 z m -2.2,-4.8 -0.3,0.4 0.4,0.3 -0.1,-0.7 z m -3.3,-1.1 -0.2,0 0.1,0.2 0.1,-0.2 z m 5.1,0 0,-0.3 -0.2,0.4 0.2,-0.1 z m 1.9,-1.3 -0.3,1.1 0.2,0 0.1,-1.1 z m -3.7,-1.9 0,-0.8 -0.6,0.6 0.6,0.2 z m -0.2,-1.5 -1.2,0.5 0.8,-0.1 0.4,-0.4 z m 3.4,-0.5 0.1,-0.1 -0.4,0 0.3,0.1 z m -1.9,-0.9 -0.5,-0.4 0,0.2 0.5,0.2 z m -0.5,-5.5 -0.2,0.3 0.3,0.9 -0.1,-1.2 z m -3.7,-6.6 0,-0.7 -0.2,0.3 0.2,0.4 z m -2.2,-10.4 4.8,10.7 3.4,5.4 1.4,6.2 -0.9,2.5 1.5,0.6 -0.5,2.8 1.8,0.8 -0.6,2.4 0.5,2.9 -1.4,9.7 0.5,2.4 1.1,-2.2 1.2,-5.5 0.8,-0.4 4,-10.6 -2,-5.8 -3,-4.4 0.4,-3.7 -1.6,-4.6 -6,-6.6 -2.3,-3.6 0,-0.1 -1.4,-0.9 -1.1,0.2 -0.6,1.8 0,0 z"
   data-id="MM.TN"
   data-name="Tanintharyi"
   id="MM.TN"
   inkscape:connector-curvature="0" />

utf-8utf-8<path
   d="m 956.5,13.7 -3.3,1.2 -3.1,0.1 -0.8,2.5 0.8,1.4 -0.8,1.2 0.9,1.3 0.7,3.8 1,2.6 -1.1,0.4 1.1,4.1 -0.6,1.3 1,3.2 2.7,1.8 1.1,-0.2 2.4,3 0.3,0.4 0.2,0.2 1.9,1.4 1.4,3 4.9,-2 -0.1,0 0.2,-2.9 -2.5,-5.3 1.7,-1 -0.3,-4.1 0.8,0.5 1.1,-2.7 1.4,-0.5 1.5,-2.7 0.8,0.3 -2.4,-14.3 -3.2,-3.6 -0.8,1.1 -5.2,-7.6 -3,-1.5 -0.7,5.9 -2.6,2.7 0.4,1.7 2.3,3.3 -0.1,0 z"
   data-id="MM.KC"
   data-name="Kachin"
   id="MM.KC"
   inkscape:connector-curvature="0" />

utf-8utf-8<path
   d="m 956.4,13.8 -2.9,-2.4 -5.7,1.4 -6.4,6.9 1.4,4.5 -0.4,2 -2.5,5.8 1,0.3 0.1,2.4 -2.6,9.8 0,0 0,6.5 0.3,0.9 0.3,3.1 0.2,0.7 0.2,-0.1 1.7,1.2 1.5,4.2 1.8,3.3 1,-0.5 5.9,1.9 0.3,0.1 0.1,-0.1 4.3,-2.2 0.9,-1.3 -2.1,-7.2 -0.2,-3.9 -0.8,-1.8 2.8,-1.7 0.3,0.2 0.1,-0.1 1.2,-3.4 -0.8,-1.4 1.1,-1.1 0.3,0 -0.3,-0.4 -2.4,-3 -1.1,0.2 -2.7,-1.8 -1,-3.2 0.6,-1.3 -1.1,-4.1 1.1,-0.4 -1,-2.6 -0.7,-3.8 -0.9,-1.3 0.8,-1.2 -0.8,-1.4 0.8,-2.5 3.1,-0.1 3.3,-1.2 -0.1,0.1 z"
   data-id="MM.SA"
   data-name="Sagaing"
   id="MM.SA"
   inkscape:connector-curvature="0" />

utf-8</g>
</svg>
