<?xml version="1.0" ?>
<!DOCTYPE svg
  PUBLIC '-//W3C//DTD SVG 1.1//EN'
  'http://www.w3.org/Graphics/SVG/1.1/DTD/svg11.dtd'>
<svg enable_background="new 0 0 1000 391" height="391px" pretty_print="True" style="stroke-linejoin: round; stroke:#000; fill: none;" version="1.1" viewBox="0 0 1000 391" width="1000px" xmlns="http://www.w3.org/2000/svg" xmlns:xlink="http://www.w3.org/1999/xlink">
utf-8<defs>
utf-8utf-8<style type="text/css">
<![CDATA[path { fill-rule: evenodd; }]]>utf-8utf-8</style>
utf-8</defs>
utf-8<metadata>
utf-8utf-8<views>
utf-8utf-8utf-8<view h="391.314221196" padding="0" w="1000">
utf-8utf-8utf-8utf-8<proj flip="auto" id="robinson" lon0="89.6772087799"/>
utf-8utf-8utf-8utf-8<bbox h="171.65" w="439.78" x="1135.47" y="-869.61"/>
utf-8utf-8utf-8</view>
utf-8utf-8</views>
utf-8</metadata>
utf-8<g class="" id="provinces">
utf-8utf-8<path d="M112.8,125.5L109.4,120.7L104.4,116.9L101.9,116.4L91.7,107.8L89.3,104.1L83.4,103.5L79.2,99.3L75.0,97.1L67.4,94.3L59.6,86.9L53.8,79.7L50.0,78.0L50.2,78.4L47.3,80.2L41.1,82.0L43.0,85.6L46.6,87.9L44.7,89.7L40.4,91.3L39.5,93.6L38.5,93.6L34.0,91.6L33.3,92.1L35.5,94.9L35.4,95.8L30.1,98.2L26.1,95.0L25.5,95.2L27.4,99.0L22.9,98.7L19.5,96.9L12.3,97.5L6.9,98.7L6.7,101.9L8.4,105.9L5.3,108.9L1.5,109.4L3.8,114.1L5.7,115.0L3.8,118.1L4.1,120.0L8.7,123.3L15.2,125.2L16.4,126.0L14.8,130.0L15.5,130.9L25.2,133.9L31.0,137.1L34.8,137.7L42.5,145.7L44.8,146.1L47.5,147.8L52.6,148.7L57.7,152.5L63.1,153.1L66.5,150.9L67.9,151.4L71.7,151.1L77.3,156.0L81.4,158.8L86.3,158.5L86.6,156.4L89.2,156.8L91.1,160.1L94.0,162.3L101.9,165.0L102.6,167.1L107.5,171.1L111.2,176.0L111.5,178.0L123.7,188.9L137.1,199.1L138.0,200.5L138.2,201.0L143.6,202.2L151.4,205.7L153.3,205.1L153.6,202.8L159.4,203.0L164.0,203.5L164.3,201.1L161.3,199.8L158.0,197.1L150.8,193.3L146.5,191.4L143.9,187.1L143.4,182.9L133.1,175.0L131.2,170.2L126.8,165.1L122.5,161.4L114.4,151.7L109.4,148.5L105.2,142.9L103.4,139.8L103.2,136.2L97.0,131.6L98.6,129.7L105.8,126.2L108.6,125.7L111.7,126.2L113.2,126.2L112.8,125.5Z " data-id="MN.BO" data-name="Bayan-Ölgiy" id="MN.BO"/>
utf-8utf-8<path d="M746.9,222.7L745.6,223.9L741.5,223.2L733.4,219.9L723.7,212.2L716.4,207.9L709.8,203.1L708.0,203.0L707.3,204.7L710.0,208.2L711.4,215.1L708.5,218.5L706.4,219.6L699.4,220.3L696.2,220.0L690.3,217.4L684.5,212.5L680.5,210.2L676.7,205.2L676.7,199.7L675.5,196.9L673.2,194.3L671.6,196.2L666.9,190.5L662.6,189.1L662.9,193.4L660.6,195.7L656.9,197.7L648.0,196.5L642.4,197.2L641.4,197.9L642.7,199.5L650.9,202.0L649.2,204.1L660.9,214.3L663.5,218.6L667.1,226.6L670.3,229.2L672.6,230.3L677.2,229.1L677.8,233.6L680.5,240.1L685.1,247.6L693.6,259.6L695.7,262.8L692.4,263.9L692.0,267.6L689.9,269.1L677.6,270.5L677.1,272.9L679.4,278.9L679.4,280.7L678.4,281.7L679.9,286.9L681.6,289.5L686.8,294.3L701.9,311.2L707.4,321.1L709.4,324.5L716.2,334.4L718.1,340.2L728.0,357.8L731.6,357.3L736.4,358.1L742.9,358.0L751.6,359.3L767.0,357.8L771.7,357.4L775.4,353.8L781.3,350.8L785.7,350.5L787.2,348.9L793.8,345.7L796.5,339.2L796.5,335.1L803.2,323.7L809.2,321.1L811.0,319.4L814.1,319.2L817.4,312.8L820.1,312.7L822.2,311.6L819.6,307.1L814.5,302.7L805.8,298.0L799.9,293.5L796.3,289.5L793.0,287.7L792.0,283.0L792.5,281.8L792.1,277.7L790.8,275.0L790.9,264.9L791.5,263.3L795.6,260.4L795.9,260.4L791.5,253.1L786.4,250.0L784.0,246.8L779.8,243.7L775.0,233.9L771.9,230.3L763.6,222.5L750.1,218.1L746.9,222.7Z " data-id="MN.DG" data-name="Dornogovi" id="MN.DG"/>
utf-8utf-8<path d="M674.2,283.0L670.8,283.3L665.7,282.2L651.1,287.4L647.8,290.3L646.0,291.2L633.6,293.2L632.5,293.0L623.5,289.2L615.2,281.2L608.2,275.1L605.4,274.3L583.4,272.4L569.1,270.5L564.4,268.6L562.0,266.4L558.2,257.9L556.9,256.9L546.9,256.7L547.0,257.3L546.0,263.1L542.6,266.6L537.9,269.5L537.6,281.9L538.0,283.7L537.6,288.7L542.8,294.8L531.1,294.0L516.4,295.0L508.8,297.5L506.8,298.4L495.8,306.5L493.9,307.0L470.4,306.7L467.9,307.2L465.5,306.5L459.1,302.6L453.8,298.6L446.6,294.5L445.3,294.2L437.2,296.3L438.1,299.3L454.1,329.8L467.7,352.0L477.0,349.1L478.4,349.1L517.7,354.5L523.3,353.9L530.7,355.0L534.6,357.0L542.4,363.8L546.3,366.3L548.6,367.2L583.5,373.8L606.8,382.9L607.7,383.0L629.6,378.8L633.1,386.4L636.7,387.1L645.6,387.1L649.1,389.3L650.2,388.9L655.4,383.0L660.0,379.9L669.4,374.2L691.6,363.4L715.9,359.7L728.0,357.8L718.1,340.2L716.2,334.4L709.4,324.5L707.4,321.1L701.9,311.2L686.8,294.3L681.6,289.5L679.9,286.9L678.4,281.7L674.2,283.0Z " data-id="MN.OG" data-name="Ömnögovi" id="MN.OG"/>
utf-8utf-8<path d="M756.4,154.7L750.2,149.4L745.8,143.1L744.5,139.0L743.3,136.8L736.3,129.5L725.3,120.6L721.6,117.0L720.6,113.6L717.1,109.9L708.1,98.8L705.9,99.9L695.4,100.4L691.9,102.3L687.3,101.5L682.4,104.3L679.2,107.4L676.6,109.1L673.9,110.0L670.0,109.7L663.7,107.6L661.4,106.2L660.3,107.9L657.2,109.1L648.2,107.2L641.7,105.2L634.2,105.1L631.6,103.9L623.3,102.3L616.5,102.2L611.4,102.5L607.6,103.1L606.4,103.0L607.6,106.7L609.4,110.5L610.8,111.5L617.2,115.0L621.0,117.7L630.8,127.4L634.2,131.7L641.1,139.4L642.3,143.3L641.6,145.0L642.1,149.6L636.9,154.8L635.7,155.2L633.9,155.5L634.0,156.0L638.2,163.7L638.1,165.4L639.1,167.9L639.6,168.8L639.6,169.4L644.2,174.5L647.0,176.2L656.0,185.1L659.8,187.8L662.6,189.1L666.9,190.5L671.6,196.2L673.2,194.3L675.5,196.9L676.7,199.7L676.7,205.2L680.5,210.2L684.5,212.5L690.3,217.4L696.2,220.0L699.4,220.3L706.4,219.6L708.5,218.5L711.4,215.1L710.0,208.2L707.3,204.7L708.0,203.0L709.8,203.1L716.4,207.9L723.7,212.2L733.4,219.9L741.5,223.2L745.6,223.9L746.9,222.7L750.1,218.1L749.3,217.0L748.2,210.6L745.8,207.8L742.8,202.9L742.4,201.5L743.0,192.4L742.4,189.9L739.4,182.9L739.3,179.4L742.0,175.1L744.0,174.5L751.8,175.3L750.0,173.1L747.3,168.4L746.9,165.4L748.6,163.4L758.4,159.7L760.4,159.3L756.4,154.7Z " data-id="MN.HN" data-name="Hentiy" id="MN.HN"/>
utf-8utf-8<path d="M405.0,116.2L400.5,115.6L391.4,111.4L378.5,107.2L377.6,112.2L374.6,112.9L373.1,112.3L373.5,114.2L378.7,116.3L379.7,118.0L376.6,120.0L376.9,124.1L378.0,127.2L379.6,129.1L382.9,130.7L383.1,132.4L377.8,133.9L378.3,137.4L375.4,137.1L369.8,134.9L364.8,136.3L366.0,139.3L365.3,140.7L351.9,142.0L348.2,139.7L340.9,143.3L338.0,144.6L337.9,146.3L334.6,148.5L326.7,150.2L326.9,152.2L329.8,155.3L331.7,158.5L332.2,162.0L335.8,164.9L340.3,165.3L341.5,163.8L342.3,163.2L350.1,163.3L354.4,168.6L361.0,171.4L366.5,171.7L370.2,170.4L370.9,168.7L377.5,164.8L379.7,168.9L382.6,171.1L393.8,185.0L395.7,185.9L407.2,182.7L409.2,183.0L410.7,185.3L414.8,189.4L419.7,191.3L424.4,195.4L434.4,195.1L438.6,194.7L441.2,196.3L455.7,193.2L458.4,190.2L468.3,187.7L474.2,191.1L475.4,190.5L474.0,185.3L475.6,184.0L475.9,178.8L475.5,177.7L470.7,174.3L472.2,173.6L475.2,174.8L477.6,174.8L483.6,176.4L489.0,181.0L496.7,182.3L502.5,181.9L504.7,180.2L503.8,178.6L502.5,176.9L493.5,172.1L489.0,169.1L481.1,163.0L478.1,162.6L473.5,158.1L466.7,154.9L463.6,150.3L458.6,145.9L454.1,142.9L449.4,142.4L444.8,139.9L441.3,136.2L439.4,135.3L432.9,127.1L428.2,122.2L425.7,123.6L423.7,123.1L420.8,120.7L415.7,119.3L411.5,116.5L410.4,115.1L405.0,116.2Z " data-id="MN.AR" data-name="Arhangay" id="MN.AR"/>
utf-8utf-8<path d="M438.6,194.7L434.4,195.1L424.4,195.4L419.7,191.3L414.8,189.4L410.7,185.3L409.2,183.0L407.2,182.7L395.7,185.9L393.8,185.0L382.6,171.1L379.7,168.9L377.5,164.8L370.9,168.7L370.2,170.4L366.5,171.7L361.0,171.4L354.4,168.6L350.1,163.3L342.3,163.2L341.5,163.8L340.3,165.3L340.6,165.6L341.4,167.9L341.1,170.8L340.9,180.6L333.5,182.3L334.4,186.3L335.8,198.6L336.1,202.1L337.2,204.2L338.7,206.8L340.0,209.8L344.4,215.0L346.1,215.6L358.2,223.7L364.0,225.8L373.1,232.7L376.3,236.5L383.0,247.0L384.1,250.4L385.7,260.7L385.5,268.1L388.4,273.0L390.8,279.5L389.0,283.7L386.0,285.5L387.5,290.1L399.6,316.3L401.0,328.1L411.5,347.4L424.6,348.8L437.6,350.3L450.7,351.8L463.8,353.2L467.7,352.0L454.1,329.8L438.1,299.3L437.2,296.3L445.3,294.2L446.6,294.5L453.8,298.6L459.1,302.6L465.5,306.5L467.9,307.2L470.4,306.7L493.9,307.0L495.8,306.5L506.8,298.4L493.4,281.1L487.9,275.3L487.1,273.8L486.8,269.1L485.6,268.1L478.2,264.7L472.0,262.6L469.4,259.5L463.1,249.1L462.7,247.4L464.3,244.2L462.8,239.1L462.1,235.1L457.4,226.4L457.6,224.1L460.6,222.1L459.9,218.8L456.0,214.4L457.0,209.8L453.0,204.5L448.7,201.5L443.3,198.2L441.2,196.3L438.6,194.7Z " data-id="MN.BH" data-name="Bayanhongor" id="MN.BH"/>
utf-8utf-8<path d="M259.7,85.0L255.6,82.3L247.3,81.3L234.8,80.8L233.0,80.0L225.3,79.9L224.0,80.1L219.7,77.4L212.8,82.3L212.1,82.1L212.0,82.0L213.7,85.4L216.2,91.5L220.4,96.3L228.4,101.7L229.4,103.7L233.3,118.6L233.1,120.4L228.8,121.0L227.4,122.8L223.0,125.4L219.6,126.3L214.8,126.8L194.4,122.4L193.2,122.4L183.7,127.8L182.9,130.5L180.6,133.5L180.8,137.5L182.0,138.1L183.0,140.3L183.0,143.6L178.5,149.0L182.7,153.8L184.7,157.2L190.9,162.1L195.4,166.0L202.3,165.3L208.5,162.3L210.5,160.7L214.0,160.8L218.5,162.6L224.7,163.9L232.2,164.2L235.6,163.7L239.6,164.7L244.7,168.6L247.5,167.8L255.2,168.2L264.7,172.5L281.0,179.3L285.6,183.7L289.3,186.5L294.7,193.7L295.8,193.8L302.5,191.7L308.0,193.5L311.3,198.0L316.4,201.8L317.6,204.0L326.0,204.7L327.9,202.7L329.9,201.7L334.5,203.7L337.2,204.2L336.1,202.1L335.8,198.6L334.4,186.3L333.5,182.3L340.9,180.6L341.1,170.8L341.4,167.9L340.6,165.6L340.3,165.3L335.8,164.9L332.2,162.0L331.7,158.5L329.8,155.3L326.9,152.2L326.7,150.2L334.6,148.5L337.9,146.3L338.0,144.6L340.9,143.3L348.2,139.7L346.7,137.3L339.9,127.6L340.5,124.7L340.1,121.0L337.5,117.9L333.0,111.1L331.0,109.3L322.3,110.1L322.3,112.7L319.8,115.6L314.1,113.9L307.4,112.9L300.1,114.0L287.5,108.3L285.5,107.6L276.7,107.2L272.2,105.9L262.4,100.3L260.0,94.3L260.7,92.9L264.3,88.7L260.6,85.3L259.7,85.0Z " data-id="MN.DZ" data-name="Dzavhan" id="MN.DZ"/>
utf-8utf-8<path d="M334.5,203.7L329.9,201.7L327.9,202.7L326.0,204.7L317.6,204.0L316.4,201.8L311.3,198.0L308.0,193.5L302.5,191.7L295.8,193.8L294.7,193.7L289.3,186.5L285.6,183.7L281.0,179.3L264.7,172.5L255.2,168.2L247.5,167.8L244.7,168.6L239.6,164.7L235.6,163.7L232.2,164.2L224.7,163.9L218.5,162.6L214.0,160.8L210.5,160.7L208.5,162.3L202.3,165.3L195.4,166.0L196.5,168.0L199.2,170.7L210.9,177.4L218.5,180.5L221.6,185.2L232.1,194.5L232.4,197.6L231.5,198.4L226.5,200.8L224.6,202.2L222.5,204.9L220.3,205.5L215.4,205.4L220.8,211.3L222.1,214.7L221.1,220.0L221.1,226.2L222.8,229.5L221.0,234.4L218.4,236.2L218.1,239.0L222.6,247.1L224.5,251.5L228.3,263.5L230.1,263.3L234.5,264.4L235.9,264.2L242.7,265.5L257.2,274.2L259.5,275.7L265.2,276.5L267.9,276.4L271.5,278.8L283.5,284.4L286.4,286.2L295.5,289.6L300.1,291.1L309.9,289.9L310.6,290.2L310.5,295.0L313.1,300.2L320.2,302.0L323.3,305.3L330.5,314.0L338.5,322.2L344.1,329.3L360.5,339.6L363.0,342.1L365.5,346.7L366.7,347.5L369.4,347.0L390.4,345.0L400.9,346.2L411.5,347.4L401.0,328.1L399.6,316.3L387.5,290.1L386.0,285.5L389.0,283.7L390.8,279.5L388.4,273.0L385.5,268.1L385.7,260.7L384.1,250.4L383.0,247.0L376.3,236.5L373.1,232.7L364.0,225.8L358.2,223.7L346.1,215.6L344.4,215.0L340.0,209.8L338.7,206.8L337.2,204.2L334.5,203.7Z " data-id="MN.GA" data-name="Govi-Altay" id="MN.GA"/>
utf-8utf-8<path d="M177.5,136.3L172.4,133.2L169.8,129.9L163.1,127.4L161.3,127.8L157.5,131.5L142.2,128.7L140.3,129.8L133.8,124.0L130.7,124.0L125.5,117.5L122.2,115.9L117.9,118.0L114.3,125.8L113.2,126.2L111.7,126.2L108.6,125.7L105.8,126.2L98.6,129.7L97.0,131.6L103.2,136.2L103.4,139.8L105.2,142.9L109.4,148.5L114.4,151.7L122.5,161.4L126.8,165.1L131.2,170.2L133.1,175.0L143.4,182.9L143.9,187.1L146.5,191.4L150.8,193.3L158.0,197.1L161.3,199.8L164.3,201.1L164.0,203.5L159.4,203.0L153.6,202.8L153.3,205.1L151.4,205.7L143.6,202.2L138.2,201.0L138.6,202.0L139.3,204.6L141.3,205.6L141.6,216.2L148.4,224.1L149.1,225.8L144.8,235.8L144.7,236.7L147.3,245.4L154.0,251.2L154.6,252.4L159.0,256.8L161.6,255.7L165.4,255.9L171.2,258.9L184.8,261.5L187.2,261.0L192.4,261.2L196.0,260.9L201.6,263.1L204.2,262.9L209.8,263.7L214.9,263.1L218.0,262.3L227.6,263.5L228.3,263.5L224.5,251.5L222.6,247.1L218.1,239.0L218.4,236.2L221.0,234.4L222.8,229.5L221.1,226.2L221.1,220.0L222.1,214.7L220.8,211.3L215.4,205.4L220.3,205.5L222.5,204.9L224.6,202.2L226.5,200.8L231.5,198.4L232.4,197.6L232.1,194.5L221.6,185.2L218.5,180.5L210.9,177.4L199.2,170.7L196.5,168.0L195.4,166.0L190.9,162.1L184.7,157.2L182.7,153.8L178.5,149.0L183.0,143.6L183.0,140.3L182.0,138.1L180.8,137.5L177.5,136.3Z " data-id="MN.HD" data-name="Hovd" id="MN.HD"/>
utf-8utf-8<path d="M260.6,85.3L264.3,88.7L260.7,92.9L260.0,94.3L262.4,100.3L272.2,105.9L276.7,107.2L285.5,107.6L287.5,108.3L300.1,114.0L307.4,112.9L314.1,113.9L319.8,115.6L322.3,112.7L322.3,110.1L331.0,109.3L333.0,111.1L337.5,117.9L340.1,121.0L340.5,124.7L339.9,127.6L346.7,137.3L348.2,139.7L351.9,142.0L365.3,140.7L366.0,139.3L364.8,136.3L369.8,134.9L375.4,137.1L378.3,137.4L377.8,133.9L383.1,132.4L382.9,130.7L379.6,129.1L378.0,127.2L376.9,124.1L376.6,120.0L379.7,118.0L378.7,116.3L373.5,114.2L373.1,112.3L374.6,112.9L377.6,112.2L378.5,107.2L391.4,111.4L400.5,115.6L405.0,116.2L410.4,115.1L410.2,114.8L407.5,110.3L407.8,106.5L409.8,105.8L413.8,100.7L418.0,99.8L422.2,97.4L423.3,91.4L426.2,91.6L429.4,89.5L423.6,86.8L406.1,81.6L403.9,79.5L404.7,74.9L406.6,70.1L406.1,68.6L407.2,65.0L409.7,63.4L409.6,63.4L404.4,59.5L398.1,58.0L394.8,55.2L394.4,51.6L389.4,48.7L388.4,47.6L387.6,44.5L380.9,37.7L377.5,32.5L377.8,30.8L371.9,27.2L369.6,27.1L366.9,26.0L361.7,25.0L353.6,24.0L351.3,24.8L345.7,22.4L341.8,22.0L339.9,21.0L324.5,16.0L320.0,14.7L311.4,14.7L307.9,14.3L305.4,14.5L302.5,13.9L292.6,8.8L289.0,8.7L280.4,6.8L277.5,4.9L268.2,1.8L267.1,0.6L264.6,0.0L265.7,10.4L264.4,12.7L259.6,14.0L257.5,15.0L257.1,17.3L259.4,23.9L256.8,23.5L254.5,25.4L254.6,30.8L255.7,32.1L257.5,38.1L257.4,41.3L261.0,44.3L265.7,46.9L266.1,49.6L271.9,55.1L275.8,57.1L280.5,58.3L282.8,61.1L283.1,63.3L285.4,67.6L285.2,75.7L284.4,77.2L281.2,79.1L276.5,79.6L272.5,81.2L274.0,83.7L270.7,87.4L269.6,87.9L265.5,87.9L261.1,85.4L260.6,85.3Z " data-id="MN.HG" data-name="Hövsgöl" id="MN.HG"/>
utf-8utf-8<path d="M211.3,81.7L207.3,80.0L199.3,80.1L197.5,79.5L192.8,76.4L187.8,76.6L184.0,77.4L181.9,75.5L173.6,70.6L162.7,57.3L142.0,56.6L138.2,55.6L129.2,56.0L126.0,55.1L123.5,52.5L121.5,49.5L116.5,49.1L114.5,53.3L110.4,50.7L106.3,49.1L103.1,46.2L101.3,46.6L101.8,51.6L100.0,52.7L97.2,52.8L92.1,52.0L88.2,52.9L83.1,58.3L82.8,61.1L75.1,62.4L71.7,62.4L65.9,67.3L65.2,70.5L60.0,70.2L50.1,75.0L49.7,77.2L50.0,78.0L53.8,79.7L59.6,86.9L67.4,94.3L75.0,97.1L79.2,99.3L83.4,103.5L89.3,104.1L91.7,107.8L101.9,116.4L104.4,116.9L109.4,120.7L112.8,125.5L113.2,126.2L114.3,125.8L117.9,118.0L122.2,115.9L125.5,117.5L130.7,124.0L133.8,124.0L140.3,129.8L142.2,128.7L157.5,131.5L161.3,127.8L163.1,127.4L169.8,129.9L172.4,133.2L177.5,136.3L180.8,137.5L180.6,133.5L182.9,130.5L183.7,127.8L193.2,122.4L194.4,122.4L214.8,126.8L219.6,126.3L223.0,125.4L227.4,122.8L228.8,121.0L233.1,120.4L233.3,118.6L229.4,103.7L228.4,101.7L220.4,96.3L216.2,91.5L213.7,85.4L212.0,82.0L211.3,81.7Z " data-id="MN.UV" data-name="Uvs" id="MN.UV"/>
utf-8utf-8<path d="M462.3,68.7L460.5,71.8L458.8,72.6L448.2,71.2L445.9,73.3L436.9,70.8L434.1,71.1L428.8,67.1L426.5,66.7L422.2,67.2L414.4,64.3L409.7,63.4L407.2,65.0L406.1,68.6L406.6,70.1L404.7,74.9L403.9,79.5L406.1,81.6L423.6,86.8L429.4,89.5L426.2,91.6L423.3,91.4L422.2,97.4L418.0,99.8L413.8,100.7L409.8,105.8L407.8,106.5L407.5,110.3L410.2,114.8L410.4,115.1L411.5,116.5L415.7,119.3L420.8,120.7L423.7,123.1L425.7,123.6L428.2,122.2L432.9,127.1L439.4,135.3L441.3,136.2L444.8,139.9L449.4,142.4L454.1,142.9L458.6,145.9L463.6,150.3L466.7,154.9L473.5,158.1L478.1,162.6L481.1,163.0L489.0,169.1L493.5,172.1L502.5,176.9L503.8,178.6L504.7,180.2L506.7,179.8L512.6,179.6L515.9,179.0L517.8,178.4L517.9,177.2L512.1,172.1L513.6,170.0L516.2,167.8L521.9,167.2L522.0,165.2L528.8,164.9L527.2,163.2L522.1,156.2L521.8,154.7L511.4,152.7L507.1,148.1L505.2,146.9L505.2,142.8L507.2,138.3L506.9,136.7L504.6,132.3L502.5,129.0L501.5,127.5L499.4,124.0L499.5,122.9L494.4,120.0L492.5,118.9L490.9,118.3L485.7,116.9L479.6,115.6L478.5,113.6L479.1,111.6L486.0,112.1L486.9,110.7L490.6,110.6L492.4,111.2L491.9,109.4L490.8,106.6L489.0,100.2L489.1,99.1L487.7,95.1L485.5,91.2L486.5,89.7L477.1,83.4L473.8,78.7L476.2,77.8L473.6,76.3L466.8,70.1L462.7,68.1L462.3,68.7Z " data-id="MN.BU" data-name="Bulgan" id="MN.BU"/>
utf-8utf-8<path d="M490.6,110.6L486.9,110.7L486.0,112.1L479.1,111.6L478.5,113.6L479.6,115.6L485.7,116.9L490.9,118.3L492.5,118.9L494.4,117.4L495.2,116.5L493.2,112.2L492.4,111.2L490.6,110.6Z " data-id="MN.ER" data-name="Orhon" id="MN.ER"/>
utf-8utf-8<path d="M679.4,280.7L679.4,278.9L677.1,272.9L677.6,270.5L689.9,269.1L692.0,267.6L692.4,263.9L695.7,262.8L693.6,259.6L685.1,247.6L680.5,240.1L677.8,233.6L677.2,229.1L672.6,230.3L670.3,229.2L667.1,226.6L663.5,218.6L660.9,214.3L649.2,204.1L650.9,202.0L642.7,199.5L641.4,197.9L638.7,198.4L640.8,203.5L641.0,205.0L635.8,207.1L634.7,209.8L632.2,210.8L623.3,211.7L620.9,210.6L614.7,207.1L611.2,205.9L608.0,205.4L591.9,205.3L590.0,203.8L582.6,201.5L579.9,200.0L574.3,200.3L572.1,206.6L571.7,210.4L569.7,209.2L555.9,204.7L554.8,207.6L550.6,212.5L549.7,211.9L548.4,211.0L547.6,212.5L548.2,218.5L547.9,220.7L546.3,221.4L542.6,221.6L544.3,231.4L545.4,234.0L545.0,236.2L536.8,237.1L534.8,239.3L534.5,242.0L536.9,245.3L544.5,250.3L545.4,251.4L545.6,254.3L546.9,256.7L556.9,256.9L558.2,257.9L562.0,266.4L564.4,268.6L569.1,270.5L583.4,272.4L605.4,274.3L608.2,275.1L615.2,281.2L623.5,289.2L632.5,293.0L633.6,293.2L646.0,291.2L647.8,290.3L651.1,287.4L665.7,282.2L670.8,283.3L674.2,283.0L678.4,281.7L679.4,280.7Z " data-id="MN.DU" data-name="Dundgovi" id="MN.DU"/>
utf-8utf-8<path d="M462.7,68.1L466.8,70.1L473.6,76.3L476.2,77.8L473.8,78.7L477.1,83.4L486.5,89.7L485.5,91.2L487.7,95.1L489.1,99.1L489.0,100.2L490.8,106.6L491.9,109.4L492.4,111.2L493.2,112.2L495.2,116.5L494.4,117.4L492.5,118.9L494.4,120.0L499.5,122.9L499.4,124.0L501.5,127.5L502.5,129.0L508.6,130.7L522.9,131.9L525.1,131.5L530.6,128.3L526.8,124.2L531.2,121.2L536.0,120.1L541.5,121.5L543.2,122.9L544.2,126.7L547.4,128.2L549.6,126.7L564.6,132.6L567.6,133.0L570.1,132.5L579.9,129.4L584.1,131.5L589.5,129.6L593.4,129.0L594.0,128.0L592.8,121.8L588.3,119.5L583.5,116.0L586.0,113.1L589.1,112.3L595.4,113.2L599.2,114.8L603.3,111.1L608.2,110.5L609.4,110.5L607.6,106.7L606.4,103.0L605.5,103.0L597.2,98.9L592.8,95.8L585.0,93.3L579.9,89.8L579.3,87.5L576.3,83.6L574.9,80.6L570.0,80.0L567.7,79.1L557.0,79.0L545.4,75.0L539.4,70.4L533.3,67.3L525.3,65.7L522.3,66.0L517.5,67.4L513.5,66.0L511.1,65.8L509.7,64.4L505.1,63.2L497.0,62.5L486.8,60.5L484.6,61.2L482.7,63.4L480.7,64.0L477.1,63.6L473.8,65.1L471.1,65.1L468.5,66.7L465.5,66.5L463.2,67.4L462.7,68.1Z M536.6,95.6L540.0,92.7L544.0,93.7L550.1,96.3L550.8,96.9L558.7,110.2L553.8,111.9L546.2,109.4L544.6,108.2L541.0,108.9L539.1,110.8L536.5,111.6L529.6,110.3L525.9,99.3L525.1,97.7L521.7,93.7L520.3,89.2L522.2,87.0L522.4,85.3L524.5,84.6L526.5,88.6L526.1,92.2L536.6,95.6Z " data-id="MN.SL" data-name="Selenge" id="MN.SL"/>
utf-8utf-8<path d="M502.5,181.9L496.7,182.3L489.0,181.0L483.6,176.4L477.6,174.8L475.2,174.8L472.2,173.6L470.7,174.3L475.5,177.7L475.9,178.8L475.6,184.0L474.0,185.3L475.4,190.5L474.2,191.1L468.3,187.7L458.4,190.2L455.7,193.2L441.2,196.3L443.3,198.2L448.7,201.5L453.0,204.5L457.0,209.8L456.0,214.4L459.9,218.8L460.6,222.1L457.6,224.1L457.4,226.4L462.1,235.1L462.8,239.1L464.3,244.2L462.7,247.4L463.1,249.1L469.4,259.5L472.0,262.6L478.2,264.7L485.6,268.1L486.8,269.1L487.1,273.8L487.9,275.3L493.4,281.1L506.8,298.4L508.8,297.5L516.4,295.0L531.1,294.0L542.8,294.8L537.6,288.7L538.0,283.7L537.6,281.9L537.9,269.5L542.6,266.6L546.0,263.1L547.0,257.3L546.9,256.7L545.6,254.3L545.4,251.4L544.5,250.3L536.9,245.3L534.5,242.0L534.8,239.3L536.8,237.1L545.0,236.2L545.4,234.0L544.3,231.4L542.6,221.6L546.3,221.4L547.9,220.7L548.2,218.5L547.6,212.5L548.4,211.0L546.6,210.0L541.5,207.7L535.8,200.2L529.0,195.0L531.3,193.0L529.8,189.6L528.2,188.0L523.9,185.5L520.5,182.8L518.4,179.6L517.8,178.4L515.9,179.0L512.6,179.6L506.7,179.8L504.7,180.2L502.5,181.9Z " data-id="MN.OH" data-name="Övörhangay" id="MN.OH"/>
utf-8utf-8<path d="M536.6,95.6L526.1,92.2L526.5,88.6L524.5,84.6L522.4,85.3L522.2,87.0L520.3,89.2L521.7,93.7L525.1,97.7L525.9,99.3L529.6,110.3L536.5,111.6L539.1,110.8L541.0,108.9L544.6,108.2L546.2,109.4L553.8,111.9L558.7,110.2L550.8,96.9L550.1,96.3L544.0,93.7L540.0,92.7L536.6,95.6Z " data-id="MN.DA" data-name="Darhan-Uul" id="MN.DA"/>
utf-8utf-8<path d="M608.2,110.5L603.3,111.1L599.2,114.8L595.4,113.2L589.1,112.3L586.0,113.1L583.5,116.0L588.3,119.5L592.8,121.8L594.0,128.0L593.4,129.0L589.5,129.6L584.1,131.5L579.9,129.4L570.1,132.5L567.6,133.0L564.6,132.6L549.6,126.7L547.4,128.2L544.2,126.7L543.2,122.9L541.5,121.5L536.0,120.1L531.2,121.2L526.8,124.2L530.6,128.3L525.1,131.5L522.9,131.9L508.6,130.7L502.5,129.0L504.6,132.3L506.9,136.7L507.2,138.3L505.2,142.8L505.2,146.9L507.1,148.1L511.4,152.7L521.8,154.7L522.1,156.2L527.2,163.2L528.8,164.9L522.0,165.2L521.9,167.2L516.2,167.8L513.6,170.0L512.1,172.1L517.9,177.2L517.8,178.4L518.4,179.6L520.5,182.8L523.9,185.5L528.2,188.0L529.8,189.6L531.3,193.0L529.0,195.0L535.8,200.2L541.5,207.7L546.6,210.0L548.4,211.0L549.7,211.9L550.6,212.5L554.8,207.6L555.9,204.7L569.7,209.2L571.7,210.4L572.1,206.6L574.3,200.3L579.9,200.0L582.6,201.5L590.0,203.8L591.9,205.3L608.0,205.4L611.2,205.9L614.7,207.1L620.9,210.6L623.3,211.7L632.2,210.8L634.7,209.8L635.8,207.1L641.0,205.0L640.8,203.5L638.7,198.4L641.4,197.9L642.4,197.2L648.0,196.5L656.9,197.7L660.6,195.7L662.9,193.4L662.6,189.1L659.8,187.8L656.0,185.1L647.0,176.2L644.2,174.5L639.6,169.4L639.6,168.8L635.5,168.2L632.3,166.3L628.5,160.4L628.7,157.1L629.9,155.3L633.9,155.5L635.7,155.2L636.9,154.8L642.1,149.6L641.6,145.0L642.3,143.3L641.1,139.4L634.2,131.7L630.8,127.4L621.0,117.7L617.2,115.0L610.8,111.5L609.4,110.5L608.2,110.5Z M580.4,145.8L584.3,145.2L586.6,144.1L594.9,150.5L599.9,153.5L607.7,156.6L610.4,165.2L601.8,165.1L595.9,162.4L591.6,162.2L584.2,163.0L580.2,162.1L578.2,160.9L575.1,156.0L572.0,153.5L569.1,148.6L563.9,142.8L574.8,144.5L580.4,145.8Z " data-id="MN.TO" data-name="Töv" id="MN.TO"/>
utf-8utf-8<path d="M629.9,155.3L628.7,157.1L628.5,160.4L632.3,166.3L635.5,168.2L639.6,168.8L639.1,167.9L638.1,165.4L638.2,163.7L634.0,156.0L633.9,155.5L629.9,155.3Z " data-id="MN.GS" data-name="Govĭ-Sümber" id="MN.GS"/>
utf-8utf-8<path d="M580.4,145.8L574.8,144.5L563.9,142.8L569.1,148.6L572.0,153.5L575.1,156.0L578.2,160.9L580.2,162.1L584.2,163.0L591.6,162.2L595.9,162.4L601.8,165.1L610.4,165.2L607.7,156.6L599.9,153.5L594.9,150.5L586.6,144.1L584.3,145.2L580.4,145.8Z " data-id="MN.UB" data-name="Ulaanbaatar" id="MN.UB"/>
utf-8utf-8<path d="M708.1,98.8L717.1,109.9L720.6,113.6L721.6,117.0L725.3,120.6L736.3,129.5L743.3,136.8L744.5,139.0L745.8,143.1L750.2,149.4L756.4,154.7L760.4,159.3L762.6,162.8L764.9,167.2L768.6,164.8L772.9,164.8L779.9,167.1L799.8,170.5L818.7,179.7L825.3,182.2L827.7,184.0L830.6,190.8L835.6,196.7L839.7,197.9L847.8,202.7L854.6,208.4L858.4,206.2L860.6,205.5L874.1,205.1L879.2,204.1L891.6,203.6L893.6,204.5L904.6,213.1L908.6,215.6L909.0,215.2L912.1,214.4L914.1,212.3L918.3,213.0L928.9,213.7L929.9,213.4L928.2,209.0L928.6,207.7L926.9,205.4L930.2,205.2L931.1,204.3L937.2,207.6L940.1,207.3L941.8,203.8L943.0,203.5L948.9,200.1L956.6,201.2L964.1,201.5L966.0,198.2L969.0,200.3L970.1,199.1L974.7,202.1L983.4,203.9L988.5,203.3L992.4,203.8L994.6,204.7L996.6,202.2L998.3,202.2L998.6,200.0L995.7,195.4L991.4,191.6L988.4,189.8L986.3,186.7L982.6,183.6L977.5,180.6L975.3,180.2L965.8,174.4L964.4,174.1L956.3,168.8L954.4,166.1L952.0,164.4L941.5,161.4L939.0,160.0L933.1,155.5L930.1,153.5L927.5,152.7L921.6,152.4L918.0,151.2L907.7,152.1L907.0,153.0L912.7,157.1L913.1,161.7L909.3,165.1L904.2,161.4L902.2,165.3L900.8,165.2L886.6,158.3L882.2,157.0L879.2,157.0L872.6,158.4L870.5,158.4L864.4,157.4L860.9,159.5L859.8,163.1L858.6,164.0L856.3,163.2L843.6,155.6L836.9,147.4L837.2,146.7L842.4,144.0L842.4,142.1L837.3,134.7L836.4,132.6L837.7,123.8L835.7,119.9L834.7,108.4L832.4,84.6L826.9,81.0L811.9,77.6L809.9,78.2L801.9,82.6L798.5,82.0L793.0,82.1L785.9,79.1L775.6,72.8L766.4,69.4L763.3,68.8L758.3,69.5L751.8,67.9L747.3,71.3L745.4,72.2L743.7,75.1L740.9,75.2L736.1,78.8L734.7,81.0L731.1,84.7L730.5,86.3L730.6,89.7L731.7,92.2L725.7,96.5L722.7,96.7L719.5,95.6L715.0,95.5L708.1,98.8Z " data-id="MN.DD" data-name="Dornod" id="MN.DD"/>
utf-8utf-8<path d="M760.4,159.3L758.4,159.7L748.6,163.4L746.9,165.4L747.3,168.4L750.0,173.1L751.8,175.3L744.0,174.5L742.0,175.1L739.3,179.4L739.4,182.9L742.4,189.9L743.0,192.4L742.4,201.5L742.8,202.9L745.8,207.8L748.2,210.6L749.3,217.0L750.1,218.1L763.6,222.5L771.9,230.3L775.0,233.9L779.8,243.7L784.0,246.8L786.4,250.0L791.5,253.1L795.9,260.4L796.7,260.4L800.0,261.2L810.4,261.7L818.5,267.0L823.4,268.6L835.6,271.2L847.2,272.1L851.8,273.3L856.2,268.5L861.2,265.9L863.5,261.4L866.8,256.2L866.5,249.4L869.8,248.0L884.1,249.1L890.4,249.1L898.4,247.2L904.2,239.3L908.3,238.0L909.2,233.9L905.9,230.1L906.0,222.7L908.4,218.2L908.3,215.9L908.6,215.6L904.6,213.1L893.6,204.5L891.6,203.6L879.2,204.1L874.1,205.1L860.6,205.5L858.4,206.2L854.6,208.4L847.8,202.7L839.7,197.9L835.6,196.7L830.6,190.8L827.7,184.0L825.3,182.2L818.7,179.7L799.8,170.5L779.9,167.1L772.9,164.8L768.6,164.8L764.9,167.2L762.6,162.8L760.4,159.3Z " data-id="MN.SB" data-name="Sühbaatar" id="MN.SB"/>
utf-8</g>
</svg>
