<?xml version="1.0" ?>
<!DOCTYPE svg
  PUBLIC '-//W3C//DTD SVG 1.1//EN'
  'http://www.w3.org/Graphics/SVG/1.1/DTD/svg11.dtd'>
<svg enable_background="new 0 0 1000 1179" height="1179px" pretty_print="True" style="stroke-linejoin: round; stroke:#000; fill: none;" version="1.1" viewBox="0 0 1000 1179" width="1000px" xmlns="http://www.w3.org/2000/svg" xmlns:xlink="http://www.w3.org/1999/xlink">
utf-8<defs>
utf-8utf-8<style type="text/css">
<![CDATA[path { fill-rule: evenodd; }]]>utf-8utf-8</style>
utf-8</defs>
utf-8<metadata>
utf-8utf-8<views>
utf-8utf-8utf-8<view h="1179.31382562" padding="0" w="1000">
utf-8utf-8utf-8utf-8<proj flip="auto" id="robinson" lon0="-9.26246339699"/>
utf-8utf-8utf-8utf-8<bbox h="210.5" w="178.65" x="-248.14" y="-457.58"/>
utf-8utf-8utf-8</view>
utf-8utf-8</views>
utf-8</metadata>
utf-8<g class="" id="provinces">
utf-8utf-8<path d="M330.7,535.2L332.9,536.0L383.4,556.8L512.7,541.0L863.0,282.5L862.3,274.9L856.8,215.1L999.6,215.0L944.0,174.8L865.1,120.2L786.3,65.5L692.2,0.0L691.0,68.3L690.1,119.4L688.0,121.1L421.9,121.2L420.4,185.0L418.0,291.5L416.7,355.8L416.3,359.0L415.2,360.5L406.9,362.9L389.0,372.0L386.0,372.9L372.4,375.0L367.4,376.8L334.8,400.5L326.1,413.1L323.4,419.1L322.2,425.4L322.9,431.4L326.6,443.4L327.5,449.5L329.2,496.4L330.7,535.2Z " data-id="MR.TZ" data-name="Tiris Zemmour" id="MR.TZ"/>
utf-8utf-8<path d="M374.0,931.5L363.2,918.7L366.0,887.0L365.8,887.0L367.2,871.2L369.9,845.3L354.8,818.8L289.9,871.1L266.6,889.8L247.9,908.2L217.4,956.6L194.9,975.9L192.4,978.4L186.0,981.3L174.7,988.1L166.5,993.8L165.2,995.7L165.8,997.1L170.6,997.9L184.6,999.0L189.8,998.3L192.1,999.5L201.5,999.3L204.1,998.9L209.5,996.6L214.7,998.9L215.6,1001.1L215.1,1002.9L216.0,1004.0L219.1,1003.7L221.5,1007.7L225.0,1008.4L226.4,1010.5L228.9,1012.6L231.6,1016.2L236.4,1021.0L244.5,1027.5L244.0,1031.1L244.8,1032.2L245.0,1037.0L252.4,1041.8L253.1,1044.4L257.3,1047.2L258.7,1046.3L263.4,1041.1L265.7,1040.9L265.5,1042.1L265.0,1043.7L269.1,1041.5L270.7,1039.3L271.2,1035.2L272.2,1031.4L275.7,1029.7L309.3,1019.8L310.9,1017.3L311.4,1009.8L315.5,1004.6L323.2,1003.7L330.1,1000.8L332.2,996.3L333.5,991.4L335.2,987.8L339.2,981.6L339.4,978.1L340.0,974.9L339.9,971.5L341.5,967.9L347.5,960.4L351.6,958.1L357.4,957.1L360.9,955.0L364.8,953.5L367.0,949.1L368.9,947.4L371.4,947.0L372.9,945.3L375.6,944.1L378.8,943.5L380.7,939.7L382.0,939.0L374.0,931.5Z " data-id="MR.BR" data-name="Brakna" id="MR.BR"/>
utf-8utf-8<path d="M53.3,721.0L61.1,709.5L59.6,708.9L56.4,713.7L53.5,719.4L53.3,721.0Z M46.7,713.0L47.3,711.6L46.9,708.7L45.2,711.1L46.7,713.0Z M58.6,697.0L57.9,695.8L55.2,701.0L52.9,700.3L51.0,704.3L51.1,707.0L47.8,713.1L48.9,715.7L48.6,718.2L50.2,720.9L53.6,715.5L55.8,709.6L58.6,697.0Z M51.2,629.6L51.4,626.5L49.5,626.4L49.1,627.8L51.2,629.6Z M225.2,558.5L11.5,558.5L10.7,559.3L7.3,576.4L3.5,587.2L0.8,598.7L0.4,601.5L2.1,611.6L3.7,608.5L4.7,602.8L3.1,598.8L6.8,596.1L7.6,588.0L6.7,588.5L7.4,584.9L11.0,579.8L13.3,575.5L14.4,574.8L16.9,579.5L17.8,583.7L20.3,588.8L22.2,591.0L23.2,595.6L24.3,596.9L25.4,595.6L27.7,602.0L28.5,606.5L33.4,614.4L34.3,618.0L33.1,618.9L33.8,620.6L36.3,622.1L43.5,630.9L44.7,627.4L44.3,618.3L44.9,614.2L48.3,618.0L47.7,618.7L50.0,620.5L52.9,620.0L49.8,621.9L51.4,623.8L52.8,623.1L53.2,627.1L55.8,630.1L59.8,642.7L58.8,643.4L60.9,646.3L63.1,652.5L67.6,656.3L69.9,660.2L70.2,665.2L69.5,667.0L65.4,670.8L68.7,678.1L69.0,680.4L68.2,683.1L66.8,685.4L61.9,690.7L61.2,695.4L64.4,691.6L66.3,693.9L65.0,696.2L67.0,696.4L65.7,699.6L66.9,701.8L62.1,710.6L54.1,723.4L50.9,726.3L50.1,729.8L47.9,732.3L46.9,736.8L47.5,738.9L49.0,738.8L52.2,729.7L56.8,726.0L53.2,733.7L55.6,731.7L60.3,726.3L61.5,726.0L60.8,730.7L58.8,734.3L58.6,734.6L59.1,734.8L62.2,730.8L66.9,721.8L122.2,614.3L101.9,575.6L237.2,576.2L227.7,558.5L225.2,558.5Z " data-id="MR.DN" data-name="Dakhlet Nouadhibou" id="MR.DN"/>
utf-8utf-8<path d="M101.9,575.6L122.2,614.3L66.9,721.8L62.2,730.8L59.1,734.8L58.6,734.6L55.8,738.3L51.7,740.8L47.2,741.5L42.5,740.1L41.3,741.5L44.6,746.2L44.8,747.9L47.9,753.8L51.1,754.8L54.9,757.1L61.4,765.0L64.8,771.5L67.0,777.6L67.0,777.6L225.8,777.2L229.0,777.2L229.7,751.3L230.1,737.1L238.7,578.7L237.2,576.2L101.9,575.6Z " data-id="MR.IN" data-name="Inchiri" id="MR.IN"/>
utf-8utf-8<path d="M79.4,857.8L79.9,874.8L79.1,881.7L99.5,881.7L100.2,855.6L100.6,834.2L77.9,834.4L79.4,857.8Z " data-id="MR.NO" data-name="Nouakchott" id="MR.NO"/>
utf-8utf-8<path d="M308.7,777.2L229.0,777.2L225.8,777.2L67.0,777.6L67.4,778.9L70.3,791.9L70.3,794.4L69.6,796.7L70.9,800.5L72.5,812.1L76.5,822.3L77.3,825.6L77.9,834.4L100.6,834.2L100.2,855.6L99.5,881.7L79.1,881.7L78.1,889.8L77.2,902.2L74.5,913.7L66.3,940.2L57.2,961.0L53.1,967.1L51.7,970.2L50.3,976.6L48.5,979.7L41.5,998.2L40.8,1002.3L40.6,1012.4L38.9,1016.2L38.2,1020.9L35.2,1027.4L34.2,1033.5L34.6,1052.4L34.6,1060.7L33.0,1076.5L35.0,1073.0L35.9,1067.8L36.3,1057.6L39.5,1048.6L40.0,1042.3L41.9,1039.3L44.9,1038.5L47.1,1035.5L50.8,1019.6L51.3,1015.9L54.7,1010.7L58.3,1009.1L61.0,1009.7L63.7,1009.2L66.2,1007.3L69.1,1006.8L72.8,1011.3L76.3,1012.4L82.9,1011.7L86.1,1010.1L94.2,1010.4L97.8,1011.8L104.4,1013.5L108.0,1012.2L109.8,1010.4L112.1,1009.5L115.6,1010.3L118.6,1008.8L120.6,1005.7L122.9,1004.1L124.1,1004.2L129.2,1006.9L132.7,1005.3L136.6,1004.9L140.4,1005.5L150.6,1004.0L152.3,1003.2L151.7,999.6L152.2,996.2L154.5,996.2L159.0,998.6L160.4,995.2L164.1,994.3L165.1,995.6L165.2,995.7L166.5,993.8L174.7,988.1L186.0,981.3L192.4,978.4L194.9,975.9L217.4,956.6L247.9,908.2L266.6,889.8L289.9,871.1L354.8,818.8L308.7,777.2Z " data-id="MR.TR" data-name="Trarza" id="MR.TR"/>
utf-8utf-8<path d="M493.0,841.9L490.4,843.8L488.1,843.6L482.1,846.4L479.4,848.4L476.8,851.8L474.6,853.7L476.6,855.9L473.7,860.1L473.0,862.0L470.7,861.8L465.9,863.5L463.9,865.0L458.1,863.7L450.6,863.7L450.1,866.7L445.5,866.3L445.3,870.9L442.7,872.4L441.5,875.2L443.2,877.0L448.5,888.4L446.7,888.2L449.6,894.0L454.2,899.9L454.5,902.9L455.7,905.5L455.1,908.3L452.6,909.1L447.5,912.6L450.8,913.4L451.1,917.0L447.8,918.6L449.1,923.7L446.9,929.0L446.0,942.0L445.9,948.2L442.3,953.2L427.4,951.8L414.4,956.7L402.8,952.7L389.8,947.3L382.0,939.0L380.7,939.7L378.8,943.5L375.6,944.1L372.9,945.3L371.4,947.0L368.9,947.4L367.0,949.1L364.8,953.5L360.9,955.0L357.4,957.1L351.6,958.1L347.5,960.4L341.5,967.9L339.9,971.5L340.0,974.9L339.4,978.1L341.1,981.5L339.5,985.1L338.3,989.0L338.0,993.2L338.4,995.4L342.7,998.4L343.9,1001.2L344.8,1005.6L346.1,1006.7L343.4,1012.3L343.7,1015.6L347.2,1016.1L350.3,1013.9L352.3,1013.1L367.9,1016.1L371.0,1017.1L370.8,1020.0L371.4,1021.5L372.1,1030.1L370.3,1036.5L370.7,1039.3L374.0,1039.0L380.2,1034.5L384.8,1036.4L386.1,1037.9L386.5,1045.4L387.4,1047.2L390.3,1047.2L391.6,1048.1L393.9,1047.3L397.5,1048.6L402.8,1053.8L404.7,1053.7L403.8,1060.5L405.0,1064.3L407.4,1064.8L410.5,1067.8L412.6,1067.2L418.9,1067.1L418.7,1065.6L421.5,1062.7L422.1,1061.2L420.2,1054.9L420.9,1053.4L422.7,1055.0L427.0,1054.4L428.1,1055.4L431.9,1055.7L437.6,1060.0L446.3,1061.5L445.0,1063.7L441.9,1066.1L441.6,1069.5L440.6,1071.8L438.7,1073.3L436.8,1080.4L433.6,1084.3L432.6,1088.9L432.0,1093.7L430.0,1098.0L429.2,1102.0L429.6,1102.1L433.9,1103.0L436.4,1101.6L439.3,1098.2L443.9,1096.1L443.7,1092.1L449.3,1093.0L453.3,1095.9L460.7,1108.2L462.2,1110.1L482.7,1127.1L485.3,1129.9L487.5,1134.8L490.5,1138.1L493.1,1142.8L499.1,1130.4L500.6,1125.4L501.9,1124.0L504.3,1123.5L507.9,1118.4L507.9,1114.6L510.4,1111.7L515.4,1112.6L520.4,1112.3L520.6,1112.2L514.5,1064.4L512.3,1060.8L507.1,1056.3L505.9,1051.2L506.9,1049.6L507.4,1044.4L507.3,1041.3L506.0,1038.4L503.7,1036.4L501.0,1035.3L501.5,1032.5L500.5,1030.3L501.7,1024.9L503.6,1021.0L503.5,1019.0L499.2,1017.1L498.4,1015.0L502.7,1013.4L507.0,1010.8L507.8,1009.2L509.6,1007.8L509.7,1005.5L511.6,1005.3L512.7,1002.8L512.3,1001.9L509.7,1002.8L508.8,1001.5L506.4,1003.0L501.4,1001.0L498.5,995.5L498.8,992.3L495.2,988.4L493.7,988.3L490.9,983.3L489.2,982.0L488.7,980.0L490.2,977.5L489.1,975.2L489.0,966.7L490.5,955.5L490.1,953.1L488.1,949.7L489.5,941.7L490.7,938.2L489.7,934.8L490.3,931.4L490.0,928.1L484.7,915.7L483.2,906.2L482.0,903.1L482.2,900.1L483.3,897.0L493.0,841.9Z " data-id="MR.AS" data-name="Assaba" id="MR.AS"/>
utf-8utf-8<path d="M429.2,1102.0L430.0,1098.0L432.0,1093.7L432.6,1088.9L433.6,1084.3L436.8,1080.4L438.7,1073.3L440.6,1071.8L441.6,1069.5L441.9,1066.1L445.0,1063.7L446.3,1061.5L437.6,1060.0L431.9,1055.7L428.1,1055.4L427.0,1054.4L422.7,1055.0L420.9,1053.4L420.2,1054.9L422.1,1061.2L421.5,1062.7L418.7,1065.6L418.9,1067.1L412.6,1067.2L410.5,1067.8L407.4,1064.8L405.0,1064.3L399.2,1066.4L393.7,1069.3L389.5,1068.7L385.8,1069.8L384.0,1071.6L381.2,1076.6L367.0,1090.6L365.0,1095.4L364.3,1099.1L361.1,1101.7L356.5,1108.0L349.2,1120.8L346.6,1127.0L343.0,1140.1L345.4,1142.7L348.5,1143.6L352.3,1142.5L354.8,1145.0L361.5,1149.8L363.4,1150.2L365.4,1152.6L367.2,1160.1L372.5,1166.8L377.6,1169.5L382.1,1173.5L387.1,1174.3L390.6,1172.9L393.6,1173.4L397.0,1176.8L399.7,1174.2L404.4,1174.2L405.9,1173.1L409.1,1168.9L412.4,1168.2L415.1,1166.1L417.3,1162.4L418.6,1161.8L417.8,1159.3L418.3,1155.9L419.6,1151.1L419.4,1149.7L415.5,1147.8L416.9,1135.6L422.3,1118.1L423.7,1111.4L427.2,1101.6L429.2,1102.0Z " data-id="MR.GD" data-name="Guidimaka" id="MR.GD"/>
utf-8utf-8<path d="M403.8,1060.5L404.7,1053.7L402.8,1053.8L397.5,1048.6L393.9,1047.3L391.6,1048.1L390.3,1047.2L387.4,1047.2L386.5,1045.4L386.1,1037.9L384.8,1036.4L380.2,1034.5L374.0,1039.0L370.7,1039.3L370.3,1036.5L372.1,1030.1L371.4,1021.5L370.8,1020.0L371.0,1017.1L367.9,1016.1L352.3,1013.1L350.3,1013.9L347.2,1016.1L343.7,1015.6L343.4,1012.3L346.1,1006.7L344.8,1005.6L343.9,1001.2L342.7,998.4L338.4,995.4L338.0,993.2L338.3,989.0L339.5,985.1L341.1,981.5L339.4,978.1L339.2,981.6L335.2,987.8L333.5,991.4L332.2,996.3L330.1,1000.8L323.2,1003.7L315.5,1004.6L311.4,1009.8L310.9,1017.3L309.3,1019.8L275.7,1029.7L272.2,1031.4L271.2,1035.2L270.7,1039.3L269.1,1041.5L265.0,1043.7L264.6,1044.9L268.4,1048.6L271.7,1047.2L274.7,1046.8L277.2,1045.7L281.5,1044.6L284.2,1045.4L283.4,1050.3L287.7,1049.1L292.2,1056.8L293.2,1060.0L295.1,1062.7L297.1,1064.4L297.8,1070.3L299.3,1072.2L299.7,1080.2L303.1,1083.4L304.3,1087.1L303.0,1089.2L302.7,1091.6L303.5,1093.9L308.9,1093.8L313.9,1096.5L315.5,1099.8L315.0,1103.3L318.4,1106.9L319.6,1106.7L323.1,1104.2L325.7,1104.6L328.3,1112.0L328.3,1115.2L330.2,1119.3L335.0,1123.0L336.5,1125.8L336.1,1127.1L331.9,1127.0L333.4,1131.0L335.6,1131.9L339.8,1132.3L340.4,1134.5L340.3,1138.7L342.4,1139.4L343.0,1140.1L346.6,1127.0L349.2,1120.8L356.5,1108.0L361.1,1101.7L364.3,1099.1L365.0,1095.4L367.0,1090.6L381.2,1076.6L384.0,1071.6L385.8,1069.8L389.5,1068.7L393.7,1069.3L399.2,1066.4L405.0,1064.3L403.8,1060.5Z " data-id="MR.GO" data-name="Gorgol" id="MR.GO"/>
utf-8utf-8<path d="M872.4,388.1L868.4,342.8L865.8,314.4L863.0,283.0L863.0,282.5L512.7,541.0L383.4,556.8L332.9,536.0L330.7,535.2L331.0,543.3L331.6,558.5L319.7,558.5L250.4,558.5L227.7,558.5L237.2,576.2L238.7,578.7L230.1,737.1L229.7,751.3L229.0,777.2L308.7,777.2L354.8,818.8L372.5,798.1L382.1,786.7L419.3,760.4L436.9,747.3L455.2,758.2L457.9,738.9L489.9,710.5L491.6,710.5L738.0,709.2L739.1,706.6L872.0,392.1L872.6,390.7L872.7,390.6L872.4,388.1Z " data-id="MR.AD" data-name="Adrar" id="MR.AD"/>
utf-8utf-8<path d="M872.7,390.6L872.6,390.7L872.0,392.1L739.1,706.6L738.0,709.2L640.6,937.8L640.4,938.3L685.5,931.9L710.4,962.7L691.4,985.4L672.2,1008.7L660.3,1021.9L662.2,1028.4L645.7,1052.8L653.5,1072.0L654.0,1101.8L650.3,1105.9L657.9,1105.9L936.6,1106.1L950.0,1029.4L949.1,1027.2L929.5,1012.1L928.1,1009.1L918.8,903.8L911.3,817.8L904.9,743.7L902.7,719.1L895.2,637.0L883.8,512.6L877.6,444.7L873.5,399.4L872.7,390.6Z " data-id="MR.HC" data-name="Hodh ech Chargui" id="MR.HC"/>
utf-8utf-8<path d="M594.5,913.2L593.9,912.6L544.0,916.2L509.2,905.4L483.3,897.0L482.2,900.1L482.0,903.1L483.2,906.2L484.7,915.7L490.0,928.1L490.3,931.4L489.7,934.8L490.7,938.2L489.5,941.7L488.1,949.7L490.1,953.1L490.5,955.5L489.0,966.7L489.1,975.2L490.2,977.5L488.7,980.0L489.2,982.0L490.9,983.3L493.7,988.3L495.2,988.4L498.8,992.3L498.5,995.5L501.4,1001.0L506.4,1003.0L508.8,1001.5L509.7,1002.8L512.3,1001.9L512.7,1002.8L511.6,1005.3L509.7,1005.5L509.6,1007.8L507.8,1009.2L507.0,1010.8L502.7,1013.4L498.4,1015.0L499.2,1017.1L503.5,1019.0L503.6,1021.0L501.7,1024.9L500.5,1030.3L501.5,1032.5L501.0,1035.3L503.7,1036.4L506.0,1038.4L507.3,1041.3L507.4,1044.4L506.9,1049.6L505.9,1051.2L507.1,1056.3L512.3,1060.8L514.5,1064.4L520.6,1112.2L523.4,1111.2L535.9,1111.3L538.2,1111.7L543.3,1111.6L550.2,1114.7L553.1,1114.4L557.7,1117.5L562.9,1118.2L572.5,1116.6L582.0,1117.6L585.1,1116.7L595.4,1112.0L615.8,1111.1L613.6,1100.0L613.7,1097.2L614.9,1094.7L620.0,1088.1L621.6,1087.0L623.6,1087.9L623.8,1090.9L622.6,1097.4L622.0,1105.9L649.1,1105.9L650.3,1105.9L654.0,1101.8L653.5,1072.0L645.7,1052.8L662.2,1028.4L660.3,1021.9L672.2,1008.7L691.4,985.4L710.4,962.7L685.5,931.9L640.4,938.3L594.5,913.2Z " data-id="MR.HG" data-name="Hodh el Gharbi" id="MR.HG"/>
utf-8utf-8<path d="M640.6,937.8L738.0,709.2L491.6,710.5L489.9,710.5L457.9,738.9L455.2,758.2L436.9,747.3L419.3,760.4L382.1,786.7L372.5,798.1L354.8,818.8L369.9,845.3L367.2,871.2L365.8,887.0L366.0,887.0L363.2,918.7L374.0,931.5L382.0,939.0L389.8,947.3L402.8,952.7L414.4,956.7L427.4,951.8L442.3,953.2L445.9,948.2L446.0,942.0L446.9,929.0L449.1,923.7L447.8,918.6L451.1,917.0L450.8,913.4L447.5,912.6L452.6,909.1L455.1,908.3L455.7,905.5L454.5,902.9L454.2,899.9L449.6,894.0L446.7,888.2L448.5,888.4L443.2,877.0L441.5,875.2L442.7,872.4L445.3,870.9L445.5,866.3L450.1,866.7L450.6,863.7L458.1,863.7L463.9,865.0L465.9,863.5L470.7,861.8L473.0,862.0L473.7,860.1L476.6,855.9L474.6,853.7L476.8,851.8L479.4,848.4L482.1,846.4L488.1,843.6L490.4,843.8L493.0,841.9L483.3,897.0L509.2,905.4L544.0,916.2L593.9,912.6L594.5,913.2L640.4,938.3L640.6,937.8Z " data-id="MR.TG" data-name="Tagant" id="MR.TG"/>
utf-8</g>
</svg>
