<?xml version="1.0" ?>
<!DOCTYPE svg
  PUBLIC '-//W3C//DTD SVG 1.1//EN'
  'http://www.w3.org/Graphics/SVG/1.1/DTD/svg11.dtd'>
<svg enable_background="new 0 0 1000 1906" height="1906px" pretty_print="True" style="stroke-linejoin: round; stroke:#000; fill: none;" version="1.1" viewBox="0 0 1000 1906" width="1000px" xmlns="http://www.w3.org/2000/svg" xmlns:xlink="http://www.w3.org/1999/xlink">
utf-8<defs>
utf-8utf-8<style type="text/css">
<![CDATA[path { fill-rule: evenodd; }]]>utf-8utf-8</style>
utf-8</defs>
utf-8<metadata>
utf-8utf-8<views>
utf-8utf-8utf-8<view h="1906.59443607" padding="0" w="1000">
utf-8utf-8utf-8utf-8<proj flip="auto" id="robinson" lon0="-62.1857381591"/>
utf-8utf-8utf-8utf-8<bbox h="2.41" w="1.27" x="-910.27" y="-282.04"/>
utf-8utf-8utf-8</view>
utf-8utf-8</views>
utf-8</metadata>
utf-8<g class="" id="provinces">
utf-8utf-8<path d="M907.9,1309.2L706.1,1269.7L592.6,1191.0L491.8,1063.1L343.9,984.4L76.6,946.1L0.3,1213.4L87.2,1728.0L660.8,1904.6L779.0,1878.8L876.9,1819.5L950.2,1734.5L999.7,1625.2L998.2,1554.1L974.6,1459.9L940.0,1368.4L907.9,1309.2Z " data-id="MS.SA" data-name="Saint Anthony" id="MS.SA"/>
utf-8utf-8<path d="M901.2,1254.3L962.1,1088.5L973.8,992.7L888.3,780.6L748.7,559.9L652.7,679.4L560.6,856.5L491.8,1063.1L592.6,1191.0L706.1,1269.7L907.9,1309.2L901.2,1254.3Z " data-id="MS.SG" data-name="Saint Georges" id="MS.SG"/>
utf-8utf-8<path d="M76.6,946.1L343.9,984.4L491.8,1063.1L560.6,856.5L652.7,679.4L748.7,559.9L661.1,328.4L735.4,81.8L639.6,87.2L566.4,64.6L426.8,0.0L184.5,569.0L76.6,946.1Z " data-id="MS.SP" data-name="Saint Peter" id="MS.SP"/>
utf-8</g>
</svg>
