<?xml version="1.0" ?>
<!DOCTYPE svg
  PUBLIC '-//W3C//DTD SVG 1.1//EN'
  'http://www.w3.org/Graphics/SVG/1.1/DTD/svg11.dtd'>
<svg enable_background="new 0 0 1000 2782" height="2782px" pretty_print="True" style="stroke-linejoin: round; stroke:#000; fill: none;" version="1.1" viewBox="0 0 1000 2782" width="1000px" xmlns="http://www.w3.org/2000/svg" xmlns:xlink="http://www.w3.org/1999/xlink">
utf-8<defs>
utf-8utf-8<style type="text/css">
<![CDATA[path { fill-rule: evenodd; }]]>utf-8utf-8</style>
utf-8</defs>
utf-8<metadata>
utf-8utf-8<views>
utf-8utf-8utf-8<view h="2782.6454764" padding="0" w="1000">
utf-8utf-8utf-8utf-8<proj flip="auto" id="robinson" lon0="33.8618912342"/>
utf-8utf-8utf-8utf-8<bbox h="130.03" w="46.74" x="479.85" y="157.31"/>
utf-8utf-8utf-8</view>
utf-8utf-8</views>
utf-8</metadata>
utf-8<g class="" id="provinces">
utf-8utf-8<path d="M522.7,80.9L522.5,80.8L552.5,117.3L522.7,80.9Z M352.1,82.4L357.9,95.0L360.4,99.7L360.1,103.8L359.0,110.0L360.1,115.8L363.3,123.3L363.6,130.0L364.2,133.7L366.1,139.8L365.9,143.6L364.6,145.8L356.8,147.7L348.7,155.7L345.3,158.6L344.1,160.3L341.1,167.5L336.7,174.0L332.4,178.2L325.8,180.0L321.0,186.0L305.6,196.8L297.4,199.6L295.5,202.0L295.2,206.5L295.7,209.4L297.1,212.0L306.7,220.2L309.1,224.5L311.4,227.1L314.8,229.2L323.7,230.7L326.1,232.5L336.6,242.6L340.5,245.2L343.5,246.5L350.7,246.4L362.0,245.1L364.3,246.0L366.6,249.6L369.9,257.8L438.7,384.0L482.2,426.1L488.8,430.8L490.9,430.6L498.0,428.2L500.8,428.4L507.7,430.9L512.2,431.6L511.5,429.1L514.2,422.9L516.5,420.5L524.2,415.5L526.4,412.9L526.3,410.3L524.5,404.4L524.3,393.1L526.1,389.8L531.6,384.8L534.3,383.6L538.4,383.7L540.4,379.9L539.8,378.8L536.4,369.9L533.5,357.4L531.1,352.5L520.3,338.0L517.0,332.4L515.6,327.0L513.6,322.0L508.6,316.9L498.9,308.7L481.9,288.8L457.0,246.6L448.4,222.5L445.5,198.0L445.8,185.8L445.1,182.3L443.2,181.3L440.7,180.9L438.3,179.6L431.4,159.9L429.6,135.1L431.3,123.4L433.7,120.7L430.1,117.7L426.9,110.6L419.5,103.4L410.7,97.4L403.4,94.0L395.3,87.9L387.5,78.8L379.0,72.8L368.8,75.9L360.3,81.2L352.3,82.4L352.1,82.4Z M488.5,46.5L488.1,46.2L491.4,50.6L488.5,46.5Z " data-id="MW.CT" data-name="Chitipa" id="MW.CT"/>
utf-8utf-8<path d="M351.0,427.4L360.0,423.4L438.7,384.0L369.9,257.8L366.6,249.6L364.3,246.0L362.0,245.1L350.7,246.4L343.5,246.5L340.5,245.2L336.6,242.6L326.1,232.5L323.7,230.7L314.8,229.2L311.4,227.1L309.1,224.5L306.7,220.2L297.1,212.0L295.7,209.4L295.2,206.5L295.5,202.0L297.4,199.6L305.6,196.8L321.0,186.0L325.8,180.0L332.4,178.2L336.7,174.0L341.1,167.5L344.1,160.3L345.3,158.6L348.7,155.7L356.8,147.7L364.6,145.8L365.9,143.6L366.1,139.8L364.2,133.7L363.6,130.0L363.3,123.3L360.1,115.8L359.0,110.0L360.1,103.8L360.4,99.7L357.9,95.0L352.1,82.4L343.9,80.7L334.3,77.3L323.7,76.1L315.9,79.6L308.4,84.5L298.5,87.2L285.4,86.2L279.4,84.1L274.6,80.2L271.0,73.5L265.9,60.2L260.2,54.0L242.8,39.8L237.2,37.6L234.3,38.2L229.3,41.9L226.5,42.8L222.8,42.4L216.3,40.2L211.9,40.2L209.8,41.4L205.3,45.4L202.4,46.5L201.3,45.8L192.1,41.7L183.7,39.5L180.8,38.2L161.8,21.3L146.4,3.6L141.0,0.0L134.8,0.3L128.8,3.7L123.8,9.6L124.0,30.5L125.4,35.4L128.4,38.2L132.4,35.7L136.1,35.5L138.2,37.0L142.7,41.8L145.4,43.3L145.3,53.0L139.2,78.9L142.8,88.7L146.9,90.2L150.4,88.4L154.0,85.7L158.3,84.5L161.7,86.4L162.9,90.2L163.5,94.5L165.1,97.9L172.0,100.8L174.9,94.2L176.2,83.6L178.3,74.3L185.5,78.3L202.5,79.3L208.6,84.3L213.0,93.3L214.3,98.1L214.6,103.5L213.6,107.4L211.9,110.3L210.8,113.6L211.6,118.9L214.4,124.0L222.2,129.5L225.6,133.7L229.9,143.4L232.5,147.8L236.2,151.5L240.0,153.8L251.5,158.7L253.5,161.4L258.1,175.6L259.9,185.6L257.5,193.2L247.7,209.5L241.4,226.4L239.5,235.5L239.1,244.7L243.1,251.3L268.6,264.2L275.0,270.5L280.0,276.8L285.6,282.1L293.7,285.4L299.3,294.0L305.5,299.0L309.8,304.8L310.3,316.1L307.8,336.1L308.7,344.7L316.4,366.9L319.0,371.1L327.5,379.9L329.9,383.0L335.6,399.0L340.3,405.3L348.9,406.6L348.7,416.0L350.7,422.5L350.9,426.0L351.0,427.4Z " data-id="MW.CT" data-name="Chitipa" id="MW.CT"/>
utf-8utf-8<path d="M376.5,1194.3L371.5,1198.0L370.0,1198.0L368.2,1196.5L361.5,1189.8L356.7,1187.5L351.4,1188.0L343.5,1193.4L336.5,1195.2L324.6,1193.0L319.9,1189.3L316.6,1185.0L311.4,1175.9L308.1,1172.3L302.4,1171.1L298.6,1171.6L297.1,1169.8L296.1,1166.0L296.7,1155.6L297.8,1151.3L299.1,1148.4L302.2,1144.3L301.5,1138.8L299.4,1134.3L295.6,1128.8L294.5,1122.5L294.9,1103.1L295.8,1098.7L298.4,1093.7L301.6,1089.7L304.0,1084.5L304.3,1082.2L300.6,1077.8L282.0,1073.3L273.6,1078.8L271.1,1084.8L266.3,1085.7L264.8,1088.4L264.3,1097.2L261.4,1101.5L251.7,1105.8L248.0,1109.5L242.8,1117.7L236.1,1125.0L228.8,1130.1L221.8,1131.8L219.3,1130.9L213.7,1127.4L209.8,1127.0L201.4,1128.6L198.8,1129.8L195.1,1134.4L189.4,1146.7L184.9,1150.1L181.7,1151.3L176.7,1155.0L174.7,1157.2L172.1,1161.4L168.8,1161.5L167.6,1159.7L164.1,1151.8L162.0,1149.3L159.0,1148.4L156.6,1148.7L151.6,1150.2L149.0,1151.8L146.1,1154.5L143.3,1155.9L141.2,1153.6L139.9,1150.8L138.3,1148.8L136.1,1148.3L133.5,1149.5L128.9,1153.9L125.5,1158.8L115.1,1180.2L103.2,1199.1L98.7,1208.9L97.3,1215.1L98.4,1241.4L100.3,1245.3L108.6,1251.3L116.0,1259.3L118.4,1268.0L116.6,1277.9L107.3,1299.8L101.1,1339.5L101.3,1345.8L102.4,1351.8L104.6,1357.9L109.4,1366.1L110.2,1370.2L108.3,1375.3L98.8,1378.3L90.6,1389.4L84.4,1403.4L79.3,1423.7L83.6,1423.1L153.0,1418.4L156.6,1421.7L157.9,1427.0L157.9,1430.7L156.2,1438.1L156.4,1442.5L157.7,1447.0L162.4,1459.1L165.5,1469.2L168.1,1475.2L171.6,1480.4L182.5,1492.1L186.6,1498.0L189.7,1501.3L198.2,1507.0L210.3,1522.9L216.1,1515.9L225.7,1507.3L228.0,1502.3L228.8,1496.4L228.8,1493.1L227.0,1487.3L227.5,1484.6L230.5,1477.0L232.6,1475.6L237.4,1473.7L240.1,1469.9L246.4,1457.5L248.9,1449.4L254.2,1440.1L256.9,1432.0L257.3,1429.9L256.1,1424.6L254.5,1421.6L253.4,1416.4L255.9,1413.6L258.8,1413.5L265.2,1418.8L270.5,1420.9L276.5,1418.8L278.9,1415.0L281.5,1412.9L285.3,1405.7L286.7,1404.2L291.3,1401.5L294.2,1399.3L296.8,1394.9L299.8,1387.1L304.9,1381.6L309.7,1381.1L314.8,1378.6L319.5,1375.5L324.9,1373.6L330.2,1372.4L335.0,1365.6L340.4,1362.7L344.0,1359.4L350.6,1351.3L354.8,1343.2L356.9,1340.6L361.2,1336.9L365.9,1334.7L369.0,1332.8L371.0,1330.8L372.8,1326.9L373.5,1324.2L379.2,1318.4L402.4,1305.8L406.6,1301.5L407.4,1300.1L409.9,1293.6L412.4,1289.7L425.2,1278.4L428.4,1276.7L427.3,1269.0L417.2,1255.4L414.2,1249.3L411.6,1245.3L407.8,1242.7L399.6,1241.1L381.7,1243.6L379.0,1243.4L376.8,1242.4L375.3,1240.5L373.3,1233.0L374.0,1221.8L379.2,1193.5L376.5,1194.3Z " data-id="MW.KS" data-name="Kasungu" id="MW.KS"/>
utf-8utf-8<path d="M462.6,598.7L458.8,592.4L454.5,586.5L434.8,568.3L432.6,567.5L430.6,571.8L428.0,587.4L425.3,589.4L420.8,590.1L391.2,585.3L381.5,586.6L369.9,590.0L368.3,591.3L367.6,593.4L370.3,600.9L368.9,605.6L366.9,608.1L364.7,609.8L356.8,611.0L353.9,608.9L352.3,606.4L349.9,600.5L348.1,598.9L345.3,598.3L333.3,600.4L329.8,600.4L326.1,599.6L321.9,597.0L318.7,594.2L315.5,590.6L312.4,588.0L309.2,586.9L305.0,588.0L302.7,589.8L300.9,592.2L296.8,599.9L294.9,602.6L290.0,608.1L284.4,613.4L277.8,618.5L275.0,619.5L272.5,618.7L271.5,615.0L274.1,606.5L275.0,599.5L274.3,593.2L273.1,587.0L271.5,584.8L268.9,583.5L258.3,583.0L246.8,580.9L226.5,571.5L227.1,582.1L229.9,592.9L234.2,602.8L239.8,611.8L246.6,619.7L256.1,639.6L253.1,650.3L248.5,660.3L225.3,698.5L224.8,700.9L225.7,704.9L225.2,707.1L223.4,708.8L218.6,711.1L217.1,713.0L216.4,718.1L216.9,722.7L216.7,727.3L213.9,732.2L206.1,724.8L203.0,729.8L203.6,760.4L203.1,764.8L200.9,771.5L195.9,782.7L196.9,785.4L202.1,787.6L207.3,787.7L212.9,786.9L218.0,787.9L222.1,793.3L223.8,799.1L225.7,857.4L224.2,870.5L219.6,884.0L219.5,889.8L222.8,897.6L223.9,902.7L222.7,908.3L220.7,914.0L217.2,932.3L203.8,965.1L202.4,977.0L202.4,989.1L204.6,994.9L213.2,1004.4L216.7,1009.3L220.3,1021.0L225.0,1046.0L230.8,1056.6L241.7,1061.0L265.1,1053.1L277.3,1057.9L282.6,1057.8L286.1,1059.3L286.4,1066.6L283.4,1072.4L282.0,1073.3L300.6,1077.8L304.3,1082.2L304.0,1084.5L301.6,1089.7L298.4,1093.7L295.8,1098.7L294.9,1103.1L294.5,1122.5L295.6,1128.8L299.4,1134.3L301.5,1138.8L302.2,1144.3L299.1,1148.4L297.8,1151.3L296.7,1155.6L296.1,1166.0L297.1,1169.8L298.6,1171.6L302.4,1171.1L308.1,1172.3L311.4,1175.9L316.6,1185.0L319.9,1189.3L324.6,1193.0L336.5,1195.2L343.5,1193.4L351.4,1188.0L356.7,1187.5L361.5,1189.8L368.2,1196.5L370.0,1198.0L371.5,1198.0L376.5,1194.3L379.2,1193.5L386.7,1182.7L395.7,1166.7L401.6,1160.8L404.2,1159.6L413.5,1158.0L424.0,1153.8L427.5,1151.5L432.6,1146.9L438.1,1144.0L444.9,1142.2L450.7,1141.4L454.1,1138.5L455.3,1135.8L457.8,1127.7L460.6,1124.3L465.5,1119.2L466.4,1116.1L465.5,1114.6L462.3,1112.8L459.4,1112.8L452.0,1114.9L448.2,1115.3L440.3,1113.8L436.8,1112.4L425.5,1105.9L421.5,1105.1L413.3,1105.4L410.2,1103.6L407.6,1100.2L405.3,1096.5L403.3,1092.2L401.9,1087.0L401.5,1079.0L400.7,1073.6L395.0,1066.2L392.0,1060.8L387.6,1049.9L383.6,1045.2L379.2,1042.3L369.3,1041.3L365.7,1039.7L363.3,1036.8L362.1,1032.6L361.2,1022.4L361.4,1019.3L367.1,1009.6L388.0,990.5L369.2,990.7L366.7,990.0L358.4,980.6L353.1,978.7L350.7,977.2L348.9,975.1L348.5,972.2L349.5,968.7L352.8,963.0L356.0,959.0L359.0,956.5L362.3,955.3L369.2,954.0L372.4,952.3L374.9,949.5L381.7,939.7L383.0,936.4L382.3,932.2L379.9,924.2L379.6,919.3L380.0,912.0L379.6,906.7L378.0,898.3L378.2,895.0L379.1,891.9L382.1,886.9L383.6,879.6L385.8,873.2L386.0,867.1L384.9,864.1L380.6,859.9L377.7,851.3L373.1,846.6L371.3,843.7L370.0,840.2L369.5,828.5L370.5,821.0L374.7,801.3L376.3,797.4L378.7,793.5L383.5,787.5L387.1,784.5L394.0,780.0L400.9,772.7L403.5,771.1L410.1,770.6L422.5,774.5L427.2,774.7L432.9,771.9L435.6,768.1L438.2,763.0L442.1,753.2L445.2,749.0L448.6,746.4L456.8,746.9L460.1,748.6L467.2,746.2L473.0,744.5L475.8,743.0L477.2,740.0L477.7,733.9L474.2,720.5L470.1,715.1L468.8,712.9L462.5,680.4L460.9,677.7L454.2,673.0L453.4,668.8L454.2,662.4L462.6,633.8L466.6,608.1L462.6,598.7Z " data-id="MW.MZ" data-name="Mzimba" id="MW.MZ"/>
utf-8utf-8<path d="M728.4,725.2L727.2,722.5L728.3,725.1L728.4,725.2Z M676.5,671.5L674.0,664.6L676.5,671.4L676.5,671.5Z M523.0,569.0L511.0,579.4L466.6,608.1L462.6,633.8L454.2,662.4L453.4,668.8L454.2,673.0L460.9,677.7L462.5,680.4L468.8,712.9L470.1,715.1L474.2,720.5L477.7,733.9L477.2,740.0L475.8,743.0L473.0,744.5L467.2,746.2L460.1,748.6L456.8,746.9L448.6,746.4L445.2,749.0L442.1,753.2L438.2,763.0L435.6,768.1L432.9,771.9L427.2,774.7L422.5,774.5L410.1,770.6L403.5,771.1L400.9,772.7L394.0,780.0L387.1,784.5L383.5,787.5L378.7,793.5L376.3,797.4L374.7,801.3L370.5,821.0L369.5,828.5L370.0,840.2L371.3,843.7L373.1,846.6L377.7,851.3L380.6,859.9L384.9,864.1L386.0,867.1L385.8,873.2L383.6,879.6L382.1,886.9L379.1,891.9L378.2,895.0L378.0,898.3L379.6,906.7L380.0,912.0L379.6,919.3L379.9,924.2L382.3,932.2L383.0,936.4L381.7,939.7L374.9,949.5L372.4,952.3L369.2,954.0L362.3,955.3L359.0,956.5L356.0,959.0L352.8,963.0L349.5,968.7L348.5,972.2L348.9,975.1L350.7,977.2L353.1,978.7L358.4,980.6L366.7,990.0L369.2,990.7L388.0,990.5L394.0,989.0L396.7,989.1L399.8,990.2L406.2,996.9L410.4,1000.1L423.0,1006.3L445.9,1012.5L446.4,1012.5L446.5,1006.5L450.8,989.1L452.3,977.6L456.6,959.7L458.6,946.0L460.8,939.8L465.0,934.0L501.7,903.1L498.0,895.9L498.3,885.4L501.2,874.6L504.9,866.6L508.1,863.3L515.7,858.5L519.3,855.4L520.4,853.5L521.7,849.1L525.1,844.7L528.6,842.4L541.8,828.7L544.8,821.5L545.4,809.9L544.0,800.3L542.6,795.3L540.5,791.7L539.2,788.0L539.6,777.5L534.2,752.1L533.4,707.2L527.7,686.9L525.0,683.4L522.2,681.2L520.0,678.1L519.3,672.4L520.4,663.4L520.4,659.7L518.7,656.4L515.5,647.1L517.9,638.0L527.1,620.7L522.9,613.9L521.2,602.1L523.0,569.0Z " data-id="MW.NA" data-name="Nkhata Bay" id="MW.NA"/>
utf-8utf-8<path d="M388.0,990.5L367.1,1009.6L361.4,1019.3L361.2,1022.4L362.1,1032.6L363.3,1036.8L365.7,1039.7L369.3,1041.3L379.2,1042.3L383.6,1045.2L387.6,1049.9L392.0,1060.8L395.0,1066.2L400.7,1073.6L401.5,1079.0L401.9,1087.0L403.3,1092.2L405.3,1096.5L407.6,1100.2L410.2,1103.6L413.3,1105.4L421.5,1105.1L425.5,1105.9L436.8,1112.4L440.3,1113.8L448.2,1115.3L452.0,1114.9L459.4,1112.8L462.3,1112.8L465.5,1114.6L466.4,1116.1L465.5,1119.2L460.6,1124.3L457.8,1127.7L455.3,1135.8L454.1,1138.5L450.7,1141.4L444.9,1142.2L438.1,1144.0L432.6,1146.9L427.5,1151.5L424.0,1153.8L413.5,1158.0L404.2,1159.6L401.6,1160.8L395.7,1166.7L386.7,1182.7L379.2,1193.5L374.0,1221.8L373.3,1233.0L375.3,1240.5L376.8,1242.4L379.0,1243.4L381.7,1243.6L399.6,1241.1L407.8,1242.7L411.6,1245.3L414.2,1249.3L417.2,1255.4L427.3,1269.0L428.4,1276.7L425.2,1278.4L412.4,1289.7L409.9,1293.6L407.4,1300.1L406.6,1301.5L402.4,1305.8L402.1,1323.4L404.1,1330.5L407.3,1335.3L410.5,1342.1L410.7,1345.5L410.1,1351.6L416.7,1358.5L418.9,1359.3L421.4,1358.7L426.4,1351.8L428.9,1342.7L430.9,1340.3L444.3,1335.8L445.8,1335.9L446.5,1337.8L444.4,1346.8L444.3,1350.3L445.4,1353.8L447.2,1355.5L456.3,1356.6L457.9,1359.4L458.7,1363.1L460.7,1381.9L460.3,1384.8L457.5,1392.7L456.9,1398.1L462.4,1425.8L463.5,1473.2L473.1,1468.2L476.9,1467.8L484.6,1466.0L497.8,1459.9L525.6,1442.5L526.3,1442.5L524.8,1439.6L521.3,1427.9L520.6,1415.9L524.9,1405.8L532.0,1395.1L534.0,1385.1L531.9,1360.3L533.3,1302.0L530.2,1284.0L530.9,1277.9L533.7,1267.2L532.9,1262.1L531.9,1265.7L530.1,1269.8L527.7,1272.0L525.4,1269.5L524.8,1265.2L527.0,1256.9L527.0,1252.2L523.7,1245.9L514.4,1236.4L512.7,1228.9L517.6,1211.5L517.5,1203.8L505.8,1198.0L501.2,1191.7L495.1,1178.4L490.7,1162.0L489.6,1152.9L489.8,1144.0L491.0,1135.2L492.5,1131.9L495.6,1128.1L497.8,1124.7L498.1,1121.4L497.2,1113.4L488.5,1081.4L481.4,1076.2L475.2,1076.2L468.9,1077.3L461.8,1075.4L462.5,1072.7L462.1,1069.3L460.6,1066.5L455.0,1064.0L454.1,1060.7L453.7,1053.2L448.6,1036.0L446.4,1012.8L446.4,1012.5L445.9,1012.5L423.0,1006.3L410.4,1000.1L406.2,996.9L399.8,990.2L396.7,989.1L394.0,989.0L388.0,990.5Z " data-id="MW.NK" data-name="Nkhotakota" id="MW.NK"/>
utf-8utf-8<path d="M438.7,384.0L360.0,423.4L351.0,427.4L351.1,428.8L345.6,437.5L340.6,442.5L328.0,452.6L323.9,454.6L319.6,457.7L303.8,477.0L298.3,491.5L294.6,497.7L288.1,502.1L283.3,503.1L277.4,509.6L273.2,511.7L268.3,511.4L258.0,509.1L253.6,509.9L249.2,511.9L241.2,513.6L236.9,515.3L232.9,519.0L226.7,529.1L222.0,532.3L218.2,532.2L214.9,531.2L211.9,532.3L209.0,538.6L208.6,543.8L211.0,545.7L214.9,545.7L219.3,545.0L223.7,549.4L225.8,560.7L226.5,571.5L246.8,580.9L258.3,583.0L268.9,583.5L271.5,584.8L273.1,587.0L274.3,593.2L275.0,599.5L274.1,606.5L271.5,615.0L272.5,618.7L275.0,619.5L277.8,618.5L284.4,613.4L290.0,608.1L294.9,602.6L296.8,599.9L300.9,592.2L302.7,589.8L305.0,588.0L309.2,586.9L312.4,588.0L315.5,590.6L318.7,594.2L321.9,597.0L326.1,599.6L329.8,600.4L333.3,600.4L345.3,598.3L348.1,598.9L349.9,600.5L352.3,606.4L353.9,608.9L356.8,611.0L364.7,609.8L366.9,608.1L368.9,605.6L370.3,600.9L367.6,593.4L368.3,591.3L369.9,590.0L381.5,586.6L391.2,585.3L420.8,590.1L425.3,589.4L428.0,587.4L430.6,571.8L432.6,567.5L434.8,568.3L454.5,586.5L458.8,592.4L462.6,598.7L466.6,608.1L511.0,579.4L523.0,569.0L523.6,556.9L520.2,487.9L516.3,468.5L516.7,462.9L518.9,450.5L519.2,446.2L516.7,440.2L513.2,434.7L512.2,431.6L507.7,430.9L500.8,428.4L498.0,428.2L490.9,430.6L488.8,430.8L482.2,426.1L438.7,384.0Z " data-id="MW.RU" data-name="Rumphi" id="MW.RU"/>
utf-8utf-8<path d="M957.5,2084.9L957.8,2076.5L960.2,2067.5L977.1,2027.9L999.8,1974.3L993.1,1974.5L989.0,1973.8L987.1,1970.6L987.0,1895.6L985.5,1889.5L982.0,1884.3L967.5,1867.1L956.7,1851.0L947.6,1858.9L940.5,1861.7L931.1,1862.1L923.4,1863.2L907.7,1867.4L900.9,1870.3L896.3,1873.5L891.3,1879.3L890.2,1883.5L891.3,1895.6L890.7,1900.6L889.1,1905.4L885.5,1910.2L882.3,1912.2L879.0,1913.4L874.1,1916.3L865.5,1925.9L860.8,1928.6L855.9,1929.6L851.4,1928.6L835.5,1922.4L832.1,1921.7L828.0,1918.8L824.9,1912.6L821.7,1908.4L816.6,1903.1L811.7,1900.2L809.6,1899.9L807.9,1901.9L807.2,1905.6L804.9,1910.1L803.6,1913.3L803.6,1919.1L805.0,1924.4L804.4,1927.2L805.3,1927.9L812.4,1936.7L815.3,1952.2L815.3,1969.1L811.0,1998.1L808.6,2005.8L805.1,2009.2L800.3,2012.8L790.0,2029.2L787.9,2033.6L786.9,2036.8L786.2,2042.3L785.4,2045.9L779.3,2058.5L777.0,2067.9L771.9,2081.4L770.5,2088.8L767.8,2094.7L765.1,2097.4L767.5,2103.3L768.7,2105.7L770.9,2107.4L774.0,2107.5L777.9,2104.5L780.6,2101.5L783.2,2099.6L786.4,2099.0L791.6,2100.2L796.6,2102.1L800.6,2103.0L803.5,2102.8L806.7,2100.7L813.0,2093.9L815.1,2092.2L818.6,2091.0L822.3,2090.8L828.4,2092.2L844.1,2099.6L849.8,2101.5L853.3,2101.6L857.5,2101.0L864.3,2098.7L868.3,2096.7L871.6,2094.5L877.7,2089.1L958.5,2090.7L957.5,2084.9Z " data-id="MW.MA" data-name="Machinga" id="MW.MA"/>
utf-8utf-8<path d="M505.9,1602.7L500.0,1613.2L494.0,1619.3L485.8,1625.6L481.9,1627.9L480.2,1630.3L478.6,1633.9L477.2,1638.2L467.9,1656.2L464.9,1660.6L460.2,1665.7L456.0,1672.0L451.1,1677.8L448.3,1682.3L446.2,1686.6L442.7,1696.8L437.6,1702.1L432.6,1706.2L428.8,1711.9L424.8,1716.4L420.9,1720.1L417.5,1721.9L405.4,1723.7L400.9,1726.4L398.3,1730.0L396.6,1735.0L394.6,1751.5L392.8,1757.5L390.1,1760.6L387.5,1761.9L381.6,1762.5L373.9,1765.9L370.8,1766.9L365.3,1766.4L361.4,1767.6L354.5,1773.0L350.6,1777.2L346.9,1780.2L324.7,1791.9L320.6,1794.7L317.6,1798.2L315.2,1802.4L313.4,1807.6L312.3,1813.2L310.8,1828.8L309.6,1832.5L302.1,1844.7L299.3,1847.5L296.0,1849.8L293.0,1854.5L287.4,1857.7L289.1,1863.6L291.6,1868.3L295.2,1872.0L300.6,1873.9L303.8,1871.5L305.0,1865.1L305.5,1852.7L308.6,1842.3L313.7,1834.2L320.4,1831.9L336.8,1846.3L345.6,1847.3L354.6,1843.7L373.3,1831.3L382.0,1828.9L391.2,1828.9L424.0,1833.8L426.6,1832.0L430.5,1823.0L433.0,1819.3L443.2,1814.6L466.1,1813.9L497.6,1801.5L500.0,1801.1L505.0,1801.8L507.6,1801.2L514.8,1795.7L517.6,1795.2L526.2,1800.4L528.6,1804.6L536.1,1798.1L539.3,1797.6L546.7,1799.2L551.4,1799.7L554.1,1800.6L560.2,1804.8L565.2,1807.4L568.8,1811.1L572.0,1811.4L577.0,1810.2L595.2,1802.0L619.6,1782.3L645.6,1765.0L646.2,1750.0L646.2,1749.5L644.1,1750.2L638.8,1753.4L633.8,1754.8L629.4,1751.2L628.9,1745.9L630.8,1741.3L631.1,1736.6L626.1,1731.4L620.6,1729.1L615.8,1728.6L611.3,1727.1L606.0,1722.7L603.7,1718.9L601.4,1713.5L599.7,1707.7L599.2,1703.0L597.5,1699.2L586.8,1684.6L586.3,1682.5L584.3,1683.2L579.2,1687.2L572.3,1695.1L569.2,1697.3L565.5,1694.7L560.7,1688.9L551.3,1672.4L541.6,1651.3L537.5,1645.5L518.9,1624.6L505.9,1602.7Z " data-id="MW.DE" data-name="Dedza" id="MW.DE"/>
utf-8utf-8<path d="M455.1,1480.3L446.2,1484.4L438.3,1484.3L420.7,1476.9L415.8,1476.7L406.9,1477.5L402.4,1476.5L394.7,1473.2L389.8,1472.1L384.9,1472.0L381.3,1472.7L364.0,1479.3L347.7,1479.0L345.5,1478.7L343.9,1477.3L342.2,1474.6L341.5,1468.4L341.2,1452.3L340.4,1447.4L334.2,1427.6L330.8,1420.3L326.7,1413.1L318.7,1403.9L314.4,1400.0L307.0,1394.3L304.9,1381.6L299.8,1387.1L296.8,1394.9L294.2,1399.3L291.3,1401.5L286.7,1404.2L285.3,1405.7L281.5,1412.9L278.9,1415.0L276.5,1418.8L270.5,1420.9L265.2,1418.8L258.8,1413.5L255.9,1413.6L253.4,1416.4L254.5,1421.6L256.1,1424.6L257.3,1429.9L256.9,1432.0L254.2,1440.1L248.9,1449.4L246.4,1457.5L240.1,1469.9L246.0,1474.4L248.8,1478.6L248.7,1481.3L246.3,1494.1L246.1,1499.6L250.4,1526.1L250.8,1531.0L251.8,1536.2L254.7,1541.4L269.1,1549.7L287.6,1550.0L337.7,1534.5L340.6,1534.2L342.3,1535.1L343.6,1545.1L345.3,1552.9L346.1,1561.4L347.4,1566.0L350.9,1569.5L356.5,1571.6L367.6,1571.3L382.8,1568.8L387.0,1568.5L391.9,1569.0L399.5,1570.9L408.6,1575.1L416.8,1578.0L420.6,1580.7L425.5,1587.3L428.1,1590.1L432.7,1592.9L449.0,1591.0L455.6,1589.2L461.4,1586.5L465.3,1584.0L468.9,1582.2L473.0,1581.4L484.3,1582.9L487.5,1582.9L496.4,1577.5L497.8,1575.9L500.0,1574.0L505.2,1572.4L513.0,1568.4L513.9,1567.0L514.6,1561.5L513.4,1559.8L510.5,1558.0L508.8,1556.1L508.0,1553.1L508.7,1543.5L507.9,1540.0L505.8,1538.2L501.9,1538.9L490.5,1545.6L484.7,1546.3L482.4,1545.5L477.3,1541.4L463.7,1525.8L457.9,1521.4L457.6,1520.2L460.6,1514.9L461.6,1509.2L461.8,1505.1L458.0,1478.6L455.1,1480.3Z " data-id="MW.DO" data-name="Dowa" id="MW.DO"/>
utf-8utf-8<path d="M487.5,1582.9L484.3,1582.9L473.0,1581.4L468.9,1582.2L465.3,1584.0L461.4,1586.5L455.6,1589.2L449.0,1591.0L432.7,1592.9L428.1,1590.1L425.5,1587.3L420.6,1580.7L416.8,1578.0L408.6,1575.1L399.5,1570.9L391.9,1569.0L387.0,1568.5L382.8,1568.8L367.6,1571.3L356.5,1571.6L350.9,1569.5L347.4,1566.0L346.1,1561.4L345.3,1552.9L343.6,1545.1L342.3,1535.1L340.6,1534.2L337.7,1534.5L287.6,1550.0L269.1,1549.7L254.7,1541.4L251.8,1536.2L250.8,1531.0L250.4,1526.1L246.1,1499.6L246.3,1494.1L248.7,1481.3L248.8,1478.6L246.0,1474.4L240.1,1469.9L237.4,1473.7L232.6,1475.6L230.5,1477.0L227.5,1484.6L227.0,1487.3L228.8,1493.1L228.8,1496.4L228.0,1502.3L225.7,1507.3L216.1,1515.9L210.3,1522.9L208.0,1528.1L202.7,1535.4L199.2,1544.8L194.8,1550.1L193.1,1555.4L193.9,1560.9L193.2,1564.9L187.6,1576.6L186.9,1585.7L185.1,1590.9L183.0,1593.6L182.4,1596.0L182.7,1599.1L185.6,1606.0L188.3,1610.1L195.1,1617.9L196.2,1620.4L200.6,1633.9L206.4,1644.5L207.7,1648.2L208.2,1652.6L205.8,1665.8L207.5,1676.8L206.7,1682.5L203.9,1690.5L203.2,1694.8L203.7,1699.8L207.9,1714.5L209.9,1738.9L213.9,1748.3L219.1,1756.9L233.7,1792.8L239.1,1801.2L243.0,1804.9L255.9,1811.5L260.0,1815.6L261.9,1819.9L263.3,1824.3L265.8,1829.0L269.3,1832.1L277.5,1836.5L281.0,1839.6L283.5,1844.2L287.4,1857.7L293.0,1854.5L296.0,1849.8L299.3,1847.5L302.1,1844.7L309.6,1832.5L310.8,1828.8L312.3,1813.2L313.4,1807.6L315.2,1802.4L317.6,1798.2L320.6,1794.7L324.7,1791.9L346.9,1780.2L350.6,1777.2L354.5,1773.0L361.4,1767.6L365.3,1766.4L370.8,1766.9L373.9,1765.9L381.6,1762.5L387.5,1761.9L390.1,1760.6L392.8,1757.5L394.6,1751.5L396.6,1735.0L398.3,1730.0L400.9,1726.4L405.4,1723.7L417.5,1721.9L420.9,1720.1L424.8,1716.4L428.8,1711.9L432.6,1706.2L437.6,1702.1L442.7,1696.8L446.2,1686.6L448.3,1682.3L451.1,1677.8L456.0,1672.0L460.2,1665.7L464.9,1660.6L467.9,1656.2L477.2,1638.2L478.6,1633.9L480.2,1630.3L481.9,1627.9L485.8,1625.6L494.0,1619.3L500.0,1613.2L505.9,1602.7L502.7,1601.4L493.8,1602.9L482.7,1609.1L479.4,1610.4L476.7,1610.2L475.1,1608.5L475.0,1603.8L476.4,1601.1L478.6,1598.6L482.9,1595.3L491.8,1591.3L495.4,1587.4L496.4,1577.5L487.5,1582.9Z " data-id="MW.LI" data-name="Lilongwe" id="MW.LI"/>
utf-8utf-8<path d="M946.1,1835.1L889.3,1750.5L870.1,1705.4L759.3,1550.2L701.9,1489.4L692.6,1482.8L689.1,1497.4L690.0,1513.8L686.9,1536.8L688.2,1546.2L695.0,1554.4L700.8,1557.6L705.4,1558.2L738.0,1557.1L749.7,1559.6L753.9,1566.4L755.2,1576.5L758.4,1589.0L761.7,1594.7L765.5,1599.9L766.5,1602.3L766.7,1608.3L768.6,1616.4L769.3,1623.3L769.5,1635.6L771.5,1645.8L782.0,1665.2L785.1,1674.8L784.7,1680.4L783.4,1686.3L782.9,1692.3L785.3,1698.2L794.5,1715.3L795.3,1728.2L798.0,1739.0L809.8,1768.3L814.5,1776.9L814.4,1780.4L812.4,1786.7L809.8,1792.6L807.4,1795.2L805.0,1796.2L800.2,1799.9L797.4,1800.2L795.8,1798.8L793.4,1792.8L778.9,1778.1L773.4,1767.7L769.8,1762.8L764.6,1760.8L763.4,1758.6L756.1,1748.3L754.4,1744.9L752.3,1734.6L746.7,1723.0L739.3,1715.4L732.1,1716.7L730.7,1714.7L727.1,1711.2L725.7,1709.1L715.4,1711.9L708.8,1702.0L706.7,1687.1L710.0,1674.8L705.8,1671.9L699.2,1663.9L695.3,1660.2L685.9,1657.1L679.7,1661.8L678.1,1671.0L682.7,1681.2L684.4,1689.8L678.6,1698.2L671.0,1707.0L667.6,1716.7L668.8,1720.0L673.0,1727.2L672.3,1730.2L668.7,1732.7L667.4,1734.4L666.8,1737.5L664.6,1741.6L659.5,1745.1L653.7,1747.5L649.2,1748.5L646.2,1749.5L646.2,1750.0L645.6,1765.0L646.3,1801.3L649.8,1826.5L657.3,1855.3L691.6,1909.5L695.5,1913.7L704.9,1918.4L715.1,1927.1L718.1,1927.2L804.4,1927.2L805.0,1924.4L803.6,1919.1L803.6,1913.3L804.9,1910.1L807.2,1905.6L807.9,1901.9L809.6,1899.9L811.7,1900.2L816.6,1903.1L821.7,1908.4L824.9,1912.6L828.0,1918.8L832.1,1921.7L835.5,1922.4L851.4,1928.6L855.9,1929.6L860.8,1928.6L865.5,1925.9L874.1,1916.3L879.0,1913.4L882.3,1912.2L885.5,1910.2L889.1,1905.4L890.7,1900.6L891.3,1895.6L890.2,1883.5L891.3,1879.3L896.3,1873.5L900.9,1870.3L907.7,1867.4L923.4,1863.2L931.1,1862.1L940.5,1861.7L947.6,1858.9L956.7,1851.0L946.1,1835.1Z " data-id="MW.MG" data-name="Mangochi" id="MW.MG"/>
utf-8utf-8<path d="M198.2,1507.0L189.7,1501.3L186.6,1498.0L182.5,1492.1L171.6,1480.4L168.1,1475.2L165.5,1469.2L162.4,1459.1L157.7,1447.0L156.4,1442.5L156.2,1438.1L157.9,1430.7L157.9,1427.0L156.6,1421.7L153.0,1418.4L83.6,1423.1L79.3,1423.7L74.4,1442.8L68.3,1456.6L59.2,1461.9L53.4,1462.9L50.6,1466.8L49.8,1472.4L49.7,1479.0L48.1,1487.1L43.9,1490.3L32.2,1492.2L27.9,1495.2L19.2,1503.3L15.2,1504.0L9.4,1501.7L4.9,1501.3L1.8,1504.0L0.2,1511.5L3.5,1522.9L13.3,1525.4L24.9,1525.5L33.0,1529.6L44.3,1548.4L45.9,1552.7L43.1,1556.6L31.3,1562.7L27.8,1566.7L29.3,1576.4L38.2,1580.9L49.7,1583.5L59.1,1587.4L63.6,1591.9L78.5,1613.4L79.5,1618.8L80.0,1624.2L81.7,1629.8L84.2,1632.2L89.9,1631.9L92.4,1633.3L94.1,1636.4L93.5,1640.3L91.7,1658.4L93.2,1663.8L100.1,1674.3L105.9,1672.8L116.4,1655.0L120.8,1649.7L125.3,1647.1L136.3,1643.5L139.3,1640.4L142.6,1631.4L145.9,1629.4L150.2,1633.5L159.2,1654.0L164.3,1661.2L181.2,1671.9L188.0,1678.1L191.1,1688.2L188.9,1706.1L190.0,1712.5L197.3,1726.9L199.8,1730.2L204.2,1733.5L207.0,1734.7L209.1,1737.1L209.9,1738.9L207.9,1714.5L203.7,1699.8L203.2,1694.8L203.9,1690.5L206.7,1682.5L207.5,1676.8L205.8,1665.8L208.2,1652.6L207.7,1648.2L206.4,1644.5L200.6,1633.9L196.2,1620.4L195.1,1617.9L188.3,1610.1L185.6,1606.0L182.7,1599.1L182.4,1596.0L183.0,1593.6L185.1,1590.9L186.9,1585.7L187.6,1576.6L193.2,1564.9L193.9,1560.9L193.1,1555.4L194.8,1550.1L199.2,1544.8L202.7,1535.4L208.0,1528.1L210.3,1522.9L198.2,1507.0Z " data-id="MW.MC" data-name="Mchinji" id="MW.MC"/>
utf-8utf-8<path d="M704.9,1918.4L695.5,1913.7L691.6,1909.5L657.3,1855.3L649.8,1826.5L646.3,1801.3L645.6,1765.0L619.6,1782.3L595.2,1802.0L577.0,1810.2L572.0,1811.4L568.8,1811.1L565.2,1807.4L560.2,1804.8L554.1,1800.6L551.4,1799.7L546.7,1799.2L539.3,1797.6L536.1,1798.1L528.6,1804.6L532.6,1811.3L541.9,1834.7L548.8,1844.7L564.4,1862.7L569.1,1874.1L569.0,1886.1L563.9,1907.4L566.4,1919.7L571.2,1931.2L574.1,1941.8L575.4,1953.1L574.4,1979.6L574.9,1985.6L576.5,1992.7L579.1,1998.5L582.3,2003.8L584.3,2009.3L583.5,2015.3L581.0,2020.6L574.2,2030.5L572.1,2035.5L572.6,2040.6L574.4,2045.1L575.1,2049.2L572.0,2053.1L571.0,2059.2L573.2,2086.6L577.5,2087.1L592.2,2090.3L610.5,2096.7L617.2,2095.9L626.4,2098.5L638.7,2101.1L643.3,2102.7L647.0,2104.6L651.9,2110.0L653.2,2115.1L653.7,2119.1L653.3,2131.4L656.8,2131.9L660.5,2127.4L688.7,2012.2L688.7,2006.5L688.0,2003.3L689.3,1999.2L706.4,1974.7L707.9,1971.5L714.0,1951.0L714.8,1946.3L714.8,1942.9L713.7,1936.9L713.2,1931.6L715.1,1927.1L704.9,1918.4Z " data-id="MW.NU" data-name="Ntcheu" id="MW.NU"/>
utf-8utf-8<path d="M462.4,1425.8L456.9,1398.1L457.5,1392.7L460.3,1384.8L460.7,1381.9L458.7,1363.1L457.9,1359.4L456.3,1356.6L447.2,1355.5L445.4,1353.8L444.3,1350.3L444.4,1346.8L446.5,1337.8L445.8,1335.9L444.3,1335.8L430.9,1340.3L428.9,1342.7L426.4,1351.8L421.4,1358.7L418.9,1359.3L416.7,1358.5L410.1,1351.6L410.7,1345.5L410.5,1342.1L407.3,1335.3L404.1,1330.5L402.1,1323.4L402.4,1305.8L379.2,1318.4L373.5,1324.2L372.8,1326.9L371.0,1330.8L369.0,1332.8L365.9,1334.7L361.2,1336.9L356.9,1340.6L354.8,1343.2L350.6,1351.3L344.0,1359.4L340.4,1362.7L335.0,1365.6L330.2,1372.4L324.9,1373.6L319.5,1375.5L314.8,1378.6L309.7,1381.1L304.9,1381.6L307.0,1394.3L314.4,1400.0L318.7,1403.9L326.7,1413.1L330.8,1420.3L334.2,1427.6L340.4,1447.4L341.2,1452.3L341.5,1468.4L342.2,1474.6L343.9,1477.3L345.5,1478.7L347.7,1479.0L364.0,1479.3L381.3,1472.7L384.9,1472.0L389.8,1472.1L394.7,1473.2L402.4,1476.5L406.9,1477.5L415.8,1476.7L420.7,1476.9L438.3,1484.3L446.2,1484.4L455.1,1480.3L458.0,1478.6L463.5,1473.2L462.4,1425.8Z " data-id="MW.NI" data-name="Ntchisi" id="MW.NI"/>
utf-8utf-8<path d="M692.3,1482.6L690.5,1481.9L689.7,1484.7L688.7,1490.4L689.1,1497.4L692.6,1482.8L692.3,1482.6Z M526.3,1442.5L525.6,1442.5L497.8,1459.9L484.6,1466.0L476.9,1467.8L473.1,1468.2L463.5,1473.2L458.0,1478.6L461.8,1505.1L461.6,1509.2L460.6,1514.9L457.6,1520.2L457.9,1521.4L463.7,1525.8L477.3,1541.4L482.4,1545.5L484.7,1546.3L490.5,1545.6L501.9,1538.9L505.8,1538.2L507.9,1540.0L508.7,1543.5L508.0,1553.1L508.8,1556.1L510.5,1558.0L513.4,1559.8L514.6,1561.5L513.9,1567.0L513.0,1568.4L505.2,1572.4L500.0,1574.0L497.8,1575.9L496.4,1577.5L495.4,1587.4L491.8,1591.3L482.9,1595.3L478.6,1598.6L476.4,1601.1L475.0,1603.8L475.1,1608.5L476.7,1610.2L479.4,1610.4L482.7,1609.1L493.8,1602.9L502.7,1601.4L505.9,1602.7L518.9,1624.6L537.5,1645.5L541.6,1651.3L551.3,1672.4L560.7,1688.9L565.5,1694.7L569.2,1697.3L572.3,1695.1L579.2,1687.2L584.3,1683.2L586.3,1682.5L585.5,1679.5L581.3,1648.6L583.2,1639.4L588.5,1631.7L597.0,1622.0L599.2,1617.9L605.3,1601.2L605.1,1598.3L603.1,1592.4L603.5,1589.0L605.3,1586.3L610.9,1581.7L612.5,1578.9L613.4,1572.3L612.5,1567.2L612.7,1562.2L616.4,1555.7L618.1,1549.9L614.7,1545.0L610.0,1540.9L607.7,1537.2L606.0,1532.3L597.1,1523.0L593.0,1517.7L589.3,1507.7L587.1,1503.4L583.0,1500.3L578.2,1499.8L568.2,1503.9L562.3,1505.0L558.0,1503.6L555.1,1500.0L552.7,1495.5L546.9,1487.4L540.8,1471.1L526.3,1442.5Z " data-id="MW.SA" data-name="Salima" id="MW.SA"/>
utf-8utf-8<path d="M718.1,1927.2L715.1,1927.1L713.2,1931.6L713.7,1936.9L714.8,1942.9L714.8,1946.3L714.0,1951.0L707.9,1971.5L706.4,1974.7L689.3,1999.2L688.0,2003.3L688.7,2006.5L688.7,2012.2L660.5,2127.4L726.7,2131.3L739.5,2127.7L743.6,2123.4L750.2,2112.2L765.1,2097.4L767.8,2094.7L770.5,2088.8L771.9,2081.4L777.0,2067.9L779.3,2058.5L785.4,2045.9L786.2,2042.3L786.9,2036.8L787.9,2033.6L790.0,2029.2L800.3,2012.8L805.1,2009.2L808.6,2005.8L811.0,1998.1L815.3,1969.1L815.3,1952.2L812.4,1936.7L805.3,1927.9L804.4,1927.2L718.1,1927.2Z " data-id="MW.BA" data-name="Balaka" id="MW.BA"/>
utf-8utf-8<path d="M557.0,2304.2L544.8,2299.9L501.5,2278.8L497.1,2276.8L497.0,2277.0L493.5,2279.2L486.9,2281.4L481.5,2284.2L475.7,2289.0L466.4,2299.7L462.6,2308.7L460.5,2321.2L460.5,2334.0L463.4,2343.9L467.2,2347.7L477.3,2353.2L481.8,2356.3L506.5,2386.8L511.4,2394.9L512.4,2405.0L505.2,2428.2L503.4,2440.4L514.9,2471.7L520.7,2478.6L531.4,2479.1L545.2,2481.3L551.8,2489.4L559.4,2514.2L562.6,2519.7L566.3,2524.0L576.0,2532.5L578.0,2535.1L579.5,2538.4L582.8,2549.0L606.3,2563.3L610.1,2568.2L615.2,2580.2L618.1,2585.0L632.0,2598.6L634.3,2603.6L636.2,2611.3L639.0,2616.8L643.7,2619.9L649.0,2622.5L651.8,2624.8L661.5,2609.6L667.0,2604.0L672.8,2600.3L676.7,2598.3L678.5,2596.4L678.1,2587.7L680.1,2581.4L682.2,2577.8L700.1,2556.7L706.4,2550.5L710.8,2545.0L723.5,2492.3L720.2,2477.1L720.3,2468.2L681.0,2415.1L664.5,2383.1L662.5,2384.8L660.8,2382.2L659.7,2376.7L660.3,2371.4L662.8,2368.0L663.1,2366.1L661.9,2364.2L658.6,2363.3L652.5,2363.6L651.0,2362.0L651.4,2358.0L656.6,2347.8L657.1,2344.8L657.0,2338.0L658.0,2334.2L661.9,2327.2L663.2,2323.9L662.2,2318.0L660.7,2313.1L659.0,2310.3L655.0,2309.4L623.5,2306.1L557.0,2304.2Z " data-id="MW.CK" data-name="Chikwawa" id="MW.CK"/>
utf-8utf-8<path d="M796.7,2254.4L793.4,2252.1L789.8,2248.2L785.7,2241.1L783.7,2236.2L781.6,2228.3L779.6,2225.0L776.7,2222.6L771.9,2220.2L768.8,2217.8L766.8,2214.0L766.7,2210.4L767.4,2205.4L767.0,2203.1L765.2,2202.5L757.4,2207.4L755.3,2206.6L750.9,2207.6L738.1,2231.7L737.6,2235.7L737.8,2240.7L739.8,2243.4L740.7,2250.2L741.0,2260.6L738.8,2295.4L738.9,2302.4L740.6,2308.8L746.9,2323.6L758.6,2323.8L761.5,2324.7L763.5,2326.3L767.6,2332.8L778.2,2344.4L779.9,2347.6L781.5,2352.6L782.8,2360.3L784.0,2363.6L786.3,2367.1L789.8,2371.3L796.0,2375.4L800.7,2363.8L802.3,2362.2L804.1,2358.1L804.6,2353.0L802.9,2293.4L803.7,2280.3L810.7,2260.0L796.7,2254.4Z " data-id="MW.CR" data-name="Chiradzulu" id="MW.CR"/>
utf-8utf-8<path d="M789.8,2371.3L786.3,2367.1L784.0,2363.6L782.8,2360.3L781.5,2352.6L779.9,2347.6L778.2,2344.4L767.6,2332.8L763.5,2326.3L761.5,2324.7L758.6,2323.8L746.9,2323.6L712.3,2346.2L707.9,2347.2L701.8,2347.6L695.9,2351.4L693.6,2354.6L687.1,2366.5L683.9,2370.7L675.7,2378.6L673.2,2380.4L664.5,2383.1L681.0,2415.1L720.3,2468.2L720.2,2477.1L723.5,2492.3L739.9,2513.5L742.3,2514.6L745.4,2515.2L746.8,2512.9L752.1,2511.5L766.6,2516.6L767.1,2514.8L774.9,2505.0L776.3,2501.3L773.1,2491.2L772.5,2487.5L775.4,2470.9L781.8,2457.4L789.1,2448.3L784.8,2442.4L784.5,2439.3L785.3,2435.4L787.8,2429.1L790.0,2425.7L796.6,2418.4L798.3,2408.2L796.0,2375.4L789.8,2371.3Z " data-id="MW.TH" data-name="Thyolo" id="MW.TH"/>
utf-8utf-8<path d="M766.6,2516.6L752.1,2511.5L746.8,2512.9L745.4,2515.2L742.3,2514.6L739.9,2513.5L723.5,2492.3L710.8,2545.0L706.4,2550.5L700.1,2556.7L682.2,2577.8L680.1,2581.4L678.1,2587.7L678.5,2596.4L676.7,2598.3L672.8,2600.3L667.0,2604.0L661.5,2609.6L651.8,2624.8L653.9,2626.6L655.1,2629.5L655.7,2636.5L657.0,2639.2L659.1,2640.5L663.8,2641.5L665.9,2642.4L670.0,2645.8L672.6,2649.0L677.9,2657.6L686.7,2665.6L695.6,2667.3L704.9,2666.3L715.2,2666.6L722.0,2672.4L724.4,2683.5L723.9,2696.5L722.4,2708.0L718.3,2717.9L711.2,2723.3L703.1,2727.6L696.0,2733.8L693.0,2745.0L702.3,2762.3L700.9,2771.5L705.4,2776.6L721.8,2779.5L753.2,2780.6L773.8,2774.4L775.7,2769.5L776.8,2763.5L776.7,2756.3L774.6,2742.8L775.3,2737.0L779.0,2730.4L780.8,2725.8L779.0,2722.7L769.2,2716.0L767.9,2714.4L767.8,2712.1L772.5,2707.0L772.5,2693.4L773.6,2685.9L781.7,2678.5L780.6,2669.6L775.0,2655.6L774.1,2648.5L774.3,2624.8L773.4,2622.9L766.3,2613.8L761.9,2611.1L759.4,2605.5L756.1,2602.5L749.4,2599.6L743.1,2597.8L741.4,2594.8L740.3,2591.1L735.7,2582.2L731.3,2566.3L735.4,2563.2L758.0,2547.1L762.5,2542.1L764.5,2535.7L765.1,2521.5L766.6,2516.6Z " data-id="MW.NS" data-name="Nsanje" id="MW.NS"/>
utf-8utf-8<path d="M765.1,2097.4L750.2,2112.2L743.6,2123.4L739.5,2127.7L726.7,2131.3L712.6,2140.7L718.6,2154.1L725.4,2160.9L735.2,2178.0L737.9,2181.8L740.7,2184.4L743.4,2184.9L748.8,2185.0L750.9,2185.5L750.4,2189.0L743.5,2197.6L741.6,2202.0L741.8,2204.7L743.2,2206.5L746.8,2207.7L750.9,2207.6L755.3,2206.6L757.4,2207.4L765.2,2202.5L767.0,2203.1L767.4,2205.4L766.7,2210.4L766.8,2214.0L768.8,2217.8L771.9,2220.2L776.7,2222.6L779.6,2225.0L781.6,2228.3L783.7,2236.2L785.7,2241.1L789.8,2248.2L793.4,2252.1L796.7,2254.4L810.7,2260.0L819.4,2259.3L826.4,2255.8L830.4,2255.0L843.6,2254.4L850.0,2252.8L859.9,2240.8L862.3,2238.5L870.2,2232.4L874.7,2221.3L877.4,2218.7L880.9,2216.0L884.7,2214.1L901.7,2202.1L909.4,2194.5L914.2,2189.0L922.1,2185.2L934.0,2181.1L970.0,2179.5L970.0,2179.2L971.6,2164.5L964.4,2124.2L958.5,2090.7L877.7,2089.1L871.6,2094.5L868.3,2096.7L864.3,2098.7L857.5,2101.0L853.3,2101.6L849.8,2101.5L844.1,2099.6L828.4,2092.2L822.3,2090.8L818.6,2091.0L815.1,2092.2L813.0,2093.9L806.7,2100.7L803.5,2102.8L800.6,2103.0L796.6,2102.1L791.6,2100.2L786.4,2099.0L783.2,2099.6L780.6,2101.5L777.9,2104.5L774.0,2107.5L770.9,2107.4L768.7,2105.7L767.5,2103.3L765.1,2097.4Z " data-id="MW.ZO" data-name="Zomba" id="MW.ZO"/>
utf-8utf-8<path d="M746.8,2207.7L743.2,2206.5L741.8,2204.7L741.6,2202.0L743.5,2197.6L750.4,2189.0L750.9,2185.5L748.8,2185.0L743.4,2184.9L740.7,2184.4L737.9,2181.8L735.2,2178.0L725.4,2160.9L718.6,2154.1L712.6,2140.7L711.6,2141.3L705.9,2144.3L695.9,2145.6L692.7,2146.7L683.6,2155.1L680.6,2156.5L675.1,2165.0L662.0,2202.1L656.9,2210.6L651.4,2212.8L635.7,2223.7L631.8,2227.7L630.8,2233.9L630.6,2256.1L629.8,2258.6L626.0,2263.9L621.1,2266.9L620.8,2271.3L622.8,2279.4L623.5,2306.1L655.0,2309.4L659.0,2310.3L660.7,2313.1L662.2,2318.0L663.2,2323.9L661.9,2327.2L658.0,2334.2L657.0,2338.0L657.1,2344.8L656.6,2347.8L651.4,2358.0L651.0,2362.0L652.5,2363.6L658.6,2363.3L661.9,2364.2L663.1,2366.1L662.8,2368.0L660.3,2371.4L659.7,2376.7L660.8,2382.2L662.5,2384.8L664.5,2383.1L673.2,2380.4L675.7,2378.6L683.9,2370.7L687.1,2366.5L693.6,2354.6L695.9,2351.4L701.8,2347.6L707.9,2347.2L712.3,2346.2L746.9,2323.6L740.6,2308.8L738.9,2302.4L738.8,2295.4L741.0,2260.6L740.7,2250.2L739.8,2243.4L737.8,2240.7L737.6,2235.7L738.1,2231.7L750.9,2207.6L746.8,2207.7Z " data-id="MW.BL" data-name="Blantyre" id="MW.BL"/>
utf-8utf-8<path d="M597.3,2229.9L560.6,2225.6L523.6,2221.2L522.0,2235.5L517.8,2246.8L497.1,2276.8L501.5,2278.8L544.8,2299.9L557.0,2304.2L623.5,2306.1L622.8,2279.4L620.8,2271.3L621.1,2266.9L626.0,2263.9L629.8,2258.6L630.6,2256.1L630.8,2233.9L597.3,2229.9Z " data-id="MW.MW" data-name="Mwanza" id="MW.MW"/>
utf-8utf-8<path d="M870.2,2232.4L862.3,2238.5L859.9,2240.8L850.0,2252.8L843.6,2254.4L830.4,2255.0L826.4,2255.8L819.4,2259.3L810.7,2260.0L803.7,2280.3L802.9,2293.4L804.6,2353.0L804.1,2358.1L802.3,2362.2L800.7,2363.8L796.0,2375.4L798.3,2408.2L796.6,2418.4L790.0,2425.7L787.8,2429.1L785.3,2435.4L784.5,2439.3L784.8,2442.4L789.1,2448.3L791.0,2445.9L813.9,2424.0L820.0,2419.6L827.1,2417.6L833.3,2417.9L839.6,2419.9L844.6,2423.7L846.6,2429.8L849.2,2432.5L853.3,2434.8L857.2,2434.9L859.4,2431.6L860.6,2426.1L862.2,2424.0L869.8,2423.1L900.2,2413.1L903.4,2413.0L909.3,2414.2L912.2,2413.9L915.5,2412.0L939.0,2394.6L944.0,2388.6L947.4,2380.9L948.0,2375.3L946.7,2364.3L946.8,2358.7L949.4,2349.5L942.1,2347.8L933.6,2352.1L932.0,2353.5L929.8,2353.2L923.6,2348.6L918.3,2343.7L913.8,2338.5L910.3,2335.6L909.0,2335.2L901.0,2338.2L888.0,2350.4L886.6,2348.1L878.7,2320.4L876.4,2318.4L873.9,2317.3L872.1,2314.5L868.7,2312.5L866.3,2305.1L865.4,2298.3L864.9,2265.3L864.2,2264.5L859.7,2263.1L860.5,2258.7L864.3,2251.9L868.5,2245.1L870.4,2243.1L871.9,2238.5L872.4,2235.5L870.2,2232.4Z " data-id="MW.MJ" data-name="Mulanje" id="MW.MJ"/>
utf-8utf-8<path d="M953.2,2336.1L958.7,2284.5L962.1,2252.8L966.9,2208.0L970.0,2179.5L934.0,2181.1L922.1,2185.2L914.2,2189.0L909.4,2194.5L901.7,2202.1L884.7,2214.1L880.9,2216.0L877.4,2218.7L874.7,2221.3L870.2,2232.4L872.4,2235.5L871.9,2238.5L870.4,2243.1L868.5,2245.1L864.3,2251.9L860.5,2258.7L859.7,2263.1L864.2,2264.5L864.9,2265.3L865.4,2298.3L866.3,2305.1L868.7,2312.5L872.1,2314.5L873.9,2317.3L876.4,2318.4L878.7,2320.4L886.6,2348.1L888.0,2350.4L901.0,2338.2L909.0,2335.2L910.3,2335.6L913.8,2338.5L918.3,2343.7L923.6,2348.6L929.8,2353.2L932.0,2353.5L933.6,2352.1L942.1,2347.8L949.4,2349.5L953.2,2336.1Z " data-id="MW.PH" data-name="Phalombe" id="MW.PH"/>
utf-8utf-8<path d="M671.0,970.9L672.5,966.4L671.4,961.8L671.8,957.8L676.9,954.8L668.2,949.9L664.8,953.0L662.1,962.8L659.3,967.0L664.0,971.5L667.5,972.6L671.0,970.9Z " data-id="MW.NA" data-name="Likoma" id="MW.NA"/>
utf-8utf-8<path d="M656.8,2131.9L653.3,2131.4L653.7,2119.1L653.2,2115.1L651.9,2110.0L647.0,2104.6L643.3,2102.7L638.7,2101.1L626.4,2098.5L617.2,2095.9L610.5,2096.7L592.2,2090.3L577.5,2087.1L573.2,2086.6L575.3,2112.1L573.7,2121.5L567.5,2130.8L563.1,2134.3L559.0,2136.7L555.0,2139.7L551.2,2144.9L549.5,2149.4L547.6,2158.5L545.3,2162.9L538.8,2167.2L532.2,2178.2L526.4,2181.5L522.3,2187.5L521.7,2199.5L523.6,2221.2L560.6,2225.6L597.3,2229.9L630.8,2233.9L631.8,2227.7L635.7,2223.7L651.4,2212.8L656.9,2210.6L662.0,2202.1L675.1,2165.0L680.6,2156.5L683.6,2155.1L692.7,2146.7L695.9,2145.6L705.9,2144.3L711.6,2141.3L712.6,2140.7L726.7,2131.3L660.5,2127.4L656.8,2131.9Z " data-id="MW.MW" data-name="Neno" id="MW.MW"/>
utf-8</g>
</svg>
