<?xml version="1.0" ?>
<!DOCTYPE svg
  PUBLIC '-//W3C//DTD SVG 1.1//EN'
  'http://www.w3.org/Graphics/SVG/1.1/DTD/svg11.dtd'>
<svg enable_background="new 0 0 1000 1759" height="1759px" pretty_print="True" style="stroke-linejoin: round; stroke:#000; fill: none;" version="1.1" viewBox="0 0 1000 1759" width="1000px" xmlns="http://www.w3.org/2000/svg" xmlns:xlink="http://www.w3.org/1999/xlink">
utf-8<defs>
utf-8utf-8<style type="text/css">
<![CDATA[path { fill-rule: evenodd; }]]>utf-8utf-8</style>
utf-8</defs>
utf-8<metadata>
utf-8utf-8<views>
utf-8utf-8utf-8<view h="1759.90582906" padding="0" w="1000">
utf-8utf-8utf-8utf-8<proj flip="auto" id="robinson" lon0="32.316276404"/>
utf-8utf-8utf-8utf-8<bbox h="274.89" w="156.29" x="443.08" y="175.55"/>
utf-8utf-8utf-8</view>
utf-8utf-8</views>
utf-8</metadata>
utf-8<g class="" id="provinces">
utf-8utf-8<path d="M251.6,741.5L254.1,740.4L254.9,737.4L254.2,734.4L256.2,731.2L260.0,723.6L260.9,713.3L264.2,707.0L271.6,702.7L274.5,698.9L275.1,696.4L283.0,677.6L284.2,671.3L290.0,665.1L296.2,656.6L296.1,649.0L300.2,643.2L307.3,638.3L310.4,637.9L319.8,638.8L330.3,636.6L332.1,638.5L334.6,643.2L337.6,647.5L340.2,652.6L341.9,654.2L348.0,656.6L349.4,660.6L350.9,661.0L355.7,660.2L360.4,661.8L364.9,666.3L368.0,668.1L374.3,668.4L380.4,669.7L385.4,671.5L402.5,682.2L409.3,686.4L416.3,688.6L418.5,689.8L426.5,697.6L428.4,702.0L430.2,712.6L433.6,719.6L435.2,724.1L437.0,731.5L438.4,734.2L442.1,745.1L442.7,749.7L444.9,753.1L446.3,761.2L447.5,763.0L456.6,772.0L462.5,775.3L464.5,777.2L465.5,778.0L466.6,773.4L467.8,752.6L467.0,746.5L468.5,735.1L466.6,730.3L466.2,728.3L466.3,715.9L466.0,714.2L460.7,714.9L451.2,714.5L446.4,713.7L445.0,712.1L445.4,709.4L442.6,704.2L443.5,700.9L450.2,696.1L451.5,693.2L452.0,685.8L451.3,682.5L449.3,680.8L443.4,681.0L440.8,680.5L438.1,678.1L435.8,674.5L431.5,671.8L431.3,669.7L426.5,665.9L424.4,660.4L420.3,656.4L417.9,651.3L416.7,649.9L409.7,645.6L407.7,640.7L404.7,638.1L402.7,635.2L400.4,627.8L398.4,625.4L391.1,624.6L389.4,622.5L385.9,613.1L386.5,609.5L388.6,602.5L388.4,599.5L386.9,597.1L379.5,588.0L374.0,584.3L373.1,581.3L373.1,577.5L373.7,573.7L374.9,571.0L381.0,565.6L383.0,564.9L390.3,555.2L391.5,551.8L392.0,547.6L391.4,541.1L391.6,537.5L394.6,534.7L396.5,531.4L398.5,530.1L400.2,524.8L401.4,523.2L405.1,520.5L407.0,517.8L407.4,515.0L406.2,499.1L407.4,496.1L406.5,492.1L409.9,486.0L410.1,484.2L407.8,479.3L407.3,477.1L407.5,467.4L407.1,464.0L404.8,457.4L404.0,453.7L405.6,447.4L405.6,443.8L404.2,440.4L399.5,435.0L397.5,432.0L394.7,425.0L392.8,421.7L389.4,420.3L374.8,425.8L368.0,426.0L364.9,427.4L362.2,431.7L352.4,430.3L349.7,430.3L347.1,431.0L341.5,434.7L338.8,435.8L336.1,435.5L331.2,431.2L329.2,431.8L327.7,434.3L325.3,443.7L322.6,442.1L320.2,434.8L319.4,433.5L314.9,430.3L313.2,426.3L305.3,419.5L300.9,408.7L297.3,402.1L296.5,401.7L292.2,395.5L291.9,393.5L292.6,388.2L291.6,385.2L289.6,383.3L284.5,380.1L191.7,415.0L184.1,416.5L180.5,417.8L173.3,421.4L137.6,434.4L122.1,443.3L113.9,446.6L82.1,455.1L80.4,455.2L57.6,461.0L26.2,473.6L10.2,482.3L1.9,483.4L0.3,484.6L0.8,487.8L0.7,492.6L1.0,497.3L4.0,510.7L6.1,515.8L10.4,518.6L11.5,520.0L13.3,526.1L14.8,538.5L13.0,542.2L12.4,546.1L15.4,550.1L16.4,553.2L14.8,554.1L13.9,593.2L56.5,592.9L60.6,593.9L64.3,596.8L67.0,599.8L68.6,600.0L75.1,595.0L77.3,595.9L78.1,594.4L80.5,592.8L84.7,593.1L94.1,595.6L98.6,599.4L101.3,604.6L103.1,605.7L105.1,609.1L106.6,608.9L107.0,610.5L114.1,612.2L117.6,614.2L133.2,615.3L135.4,616.5L137.9,618.8L143.3,625.7L150.7,632.6L150.9,636.7L153.1,639.1L162.8,640.8L181.3,640.3L188.6,641.6L223.6,657.4L224.6,658.5L225.7,666.8L228.1,668.9L230.8,668.0L235.2,667.9L240.9,669.3L245.3,669.0L251.0,666.2L247.1,680.6L243.7,686.2L236.7,693.4L236.8,694.1L245.2,712.1L247.3,718.3L248.3,724.9L248.4,732.3L249.3,734.4L252.7,737.4L252.1,740.8L251.6,741.5Z " data-id="MZ.TE" data-name="Tete" id="MZ.TE"/>
utf-8utf-8<path d="M385.4,671.5L380.4,669.7L374.3,668.4L368.0,668.1L364.9,666.3L360.4,661.8L355.7,660.2L350.9,661.0L349.4,660.6L348.0,656.6L341.9,654.2L340.2,652.6L337.6,647.5L334.6,643.2L332.1,638.5L330.3,636.6L319.8,638.8L310.4,637.9L307.3,638.3L300.2,643.2L296.1,649.0L296.2,656.6L290.0,665.1L284.2,671.3L283.0,677.6L275.1,696.4L274.5,698.9L271.6,702.7L264.2,707.0L260.9,713.3L260.0,723.6L256.2,731.2L254.2,734.4L254.9,737.4L254.1,740.4L251.6,741.5L250.2,743.8L246.2,751.7L244.0,753.8L244.0,755.0L246.8,760.9L250.2,762.7L251.4,764.5L249.5,772.8L248.9,776.9L249.0,781.6L248.4,785.5L244.4,788.1L243.3,789.9L242.2,796.3L242.9,802.6L240.8,804.7L241.3,812.6L244.1,823.7L244.1,828.1L241.6,833.5L243.3,837.3L247.4,841.2L249.2,846.5L246.4,848.8L244.1,852.9L245.2,854.4L244.8,857.7L243.0,859.1L232.7,865.0L233.6,872.9L236.1,879.0L236.7,881.9L234.4,890.6L232.7,892.1L226.5,892.0L223.6,892.4L214.4,897.1L214.6,903.8L216.3,906.2L213.1,908.7L213.5,916.4L216.5,917.7L222.3,916.7L224.9,917.4L228.5,923.8L228.9,927.5L225.6,940.8L225.3,943.4L222.6,949.5L218.9,953.8L217.9,964.6L218.8,965.8L223.6,966.2L223.0,978.3L223.2,981.7L222.0,987.1L223.1,988.3L229.0,988.2L231.9,985.1L233.7,984.4L235.3,985.5L235.3,987.6L234.3,991.8L235.0,993.7L240.4,997.7L241.3,998.9L240.2,1003.5L239.8,1007.9L237.7,1014.2L237.0,1022.1L237.6,1025.5L232.7,1025.3L231.3,1026.5L229.9,1031.3L225.9,1033.1L224.4,1040.0L223.0,1042.5L222.0,1051.4L221.2,1052.8L210.4,1066.4L203.8,1079.1L201.3,1081.9L197.3,1082.6L193.0,1082.0L188.9,1082.6L185.8,1086.7L184.6,1091.2L184.2,1095.7L185.7,1118.3L184.9,1122.4L182.5,1127.1L169.9,1143.6L178.7,1161.9L178.8,1162.4L182.6,1166.2L189.1,1170.4L195.1,1170.1L196.9,1170.4L200.5,1172.1L210.5,1180.8L215.2,1182.2L220.5,1181.4L224.8,1183.1L226.7,1186.2L226.8,1189.3L231.0,1190.3L233.4,1192.6L235.2,1193.2L236.8,1189.5L238.4,1187.5L242.1,1184.4L247.8,1181.8L251.6,1181.9L254.9,1183.3L255.2,1183.5L262.9,1181.0L266.7,1180.1L268.8,1178.8L275.4,1173.4L278.7,1172.1L282.4,1171.7L298.5,1172.5L306.1,1171.4L308.0,1172.0L309.2,1174.3L310.3,1174.1L319.8,1163.1L324.5,1162.6L325.4,1155.1L326.7,1151.7L328.1,1150.9L329.5,1144.8L335.2,1140.4L335.8,1138.8L334.8,1134.9L325.8,1127.0L317.4,1126.0L315.3,1124.2L316.0,1102.2L314.6,1098.6L303.8,1094.3L302.5,1093.5L280.6,1067.0L280.4,1060.2L282.9,1053.3L282.3,1050.4L281.3,1048.6L280.2,1043.1L276.5,1040.7L274.7,1031.7L275.1,1030.4L284.1,1022.7L289.4,1019.0L290.4,1017.8L295.9,1016.6L299.6,1015.1L300.4,1017.8L304.7,1022.1L307.2,1022.3L309.8,1017.7L317.2,1013.9L320.4,1012.7L322.7,1009.6L326.8,1006.0L331.1,1004.5L324.2,1000.5L323.6,999.0L320.4,998.3L319.7,995.0L320.6,989.8L320.6,986.3L318.5,982.3L318.5,978.6L321.3,977.5L323.7,977.4L325.7,974.7L327.1,947.9L338.4,909.9L339.0,906.5L337.2,906.1L335.4,903.1L331.2,901.5L328.1,894.7L323.0,889.3L311.4,884.6L310.7,880.7L313.8,873.9L316.8,870.8L322.1,863.9L326.0,857.6L323.2,853.0L324.5,845.5L322.2,840.1L322.2,838.2L328.0,831.7L333.1,827.1L334.5,822.3L338.8,823.1L341.7,825.6L342.6,827.6L347.9,835.5L350.2,836.3L354.7,831.4L360.9,830.9L362.5,829.3L363.8,825.9L366.5,816.5L367.6,802.8L367.4,801.7L363.8,797.0L356.3,793.8L355.3,790.4L357.1,780.0L357.0,778.6L354.8,767.1L355.1,764.3L359.3,754.3L360.0,747.2L361.0,741.8L365.5,729.0L365.5,722.9L366.0,720.6L372.1,708.0L374.3,705.9L382.7,702.6L389.7,699.0L393.4,695.5L396.6,689.3L402.5,682.2L385.4,671.5Z " data-id="MZ.MN" data-name="Manica" id="MZ.MN"/>
utf-8utf-8<path d="M791.6,101.3L787.9,106.8L782.3,126.0L781.5,133.6L782.0,137.0L783.5,140.4L785.3,143.3L785.7,147.0L784.9,152.4L783.6,157.4L780.2,161.5L779.7,164.0L778.0,167.3L776.0,168.1L775.0,171.0L773.9,177.3L763.8,186.0L762.1,187.2L759.3,195.4L758.4,202.0L750.1,211.2L748.4,213.8L744.1,217.5L745.4,221.6L745.5,225.1L743.6,233.2L744.4,236.6L744.5,241.5L742.8,245.9L743.0,249.1L741.3,254.1L740.4,268.3L738.9,275.6L736.7,278.6L744.6,282.5L746.9,285.0L751.7,286.4L755.1,284.0L758.3,283.5L758.9,284.7L758.5,289.0L757.6,290.2L756.3,295.0L756.2,296.8L752.3,303.2L752.0,304.5L743.9,312.2L742.3,314.1L741.6,316.4L742.2,321.0L743.6,323.1L747.9,323.2L749.5,330.6L748.7,334.6L749.1,336.8L752.0,342.6L753.1,351.6L755.7,359.9L758.3,363.6L761.6,373.6L766.7,382.8L768.6,386.8L774.0,392.2L776.9,391.6L779.7,392.1L786.8,394.8L798.6,394.4L800.8,394.1L813.6,390.0L819.0,385.6L822.0,384.5L826.1,381.3L832.7,379.4L833.4,376.9L838.8,372.4L845.3,372.1L848.7,373.7L851.0,372.6L854.4,369.6L857.8,367.2L862.7,365.5L863.7,364.0L870.1,362.0L874.0,358.6L875.4,355.4L876.9,354.3L884.1,351.8L886.1,349.9L894.5,348.2L900.1,343.7L902.1,343.1L906.1,343.1L910.2,343.8L913.3,341.9L918.9,334.7L921.6,332.0L925.7,329.2L927.1,326.3L933.8,323.1L936.2,320.3L938.4,320.0L941.9,320.6L945.1,323.3L948.9,323.7L956.8,321.1L960.4,320.3L964.9,320.3L966.5,321.3L967.8,326.0L970.0,327.2L972.5,327.2L974.6,326.2L974.6,326.2L976.5,322.3L976.8,317.7L977.6,315.9L980.6,312.5L981.1,310.1L979.1,310.7L979.5,301.9L975.8,304.7L975.6,303.4L979.1,299.6L979.7,297.5L980.6,289.4L979.7,282.0L980.2,278.5L982.7,272.3L983.4,268.8L982.9,266.9L980.0,267.4L976.0,265.8L973.8,266.6L975.5,271.3L974.2,273.2L971.3,273.2L966.7,268.4L966.2,265.2L967.0,263.6L970.6,260.3L973.4,258.7L975.8,259.2L977.0,261.7L979.7,257.1L980.1,255.0L977.7,252.0L978.2,251.2L980.8,251.4L983.1,249.2L985.1,249.8L987.2,249.3L989.2,245.2L985.9,239.4L983.0,239.9L982.3,235.2L983.9,232.8L985.5,234.8L987.1,233.3L986.6,232.5L982.1,229.9L981.8,228.4L982.2,221.0L981.7,220.5L975.7,219.6L974.4,217.9L974.7,216.1L977.3,212.2L978.8,208.9L981.0,208.3L982.7,205.7L979.9,206.1L977.9,204.9L977.6,203.2L979.1,199.1L978.6,196.4L977.2,193.6L975.2,191.8L972.8,192.4L973.1,190.2L976.7,191.0L978.1,190.2L980.3,184.3L978.2,179.6L979.8,167.6L982.0,163.8L979.3,159.3L978.1,156.1L977.6,152.9L978.3,149.8L981.0,146.9L978.4,146.9L976.8,143.4L976.8,138.2L974.7,135.1L973.0,126.6L976.0,121.8L972.9,117.3L973.4,115.6L975.4,112.7L976.5,109.4L978.0,101.6L977.6,98.2L974.8,99.0L971.4,94.1L970.0,93.2L969.2,95.4L966.8,90.9L971.4,90.3L974.5,84.1L980.9,78.9L982.1,77.0L981.6,71.9L988.3,61.5L988.4,58.4L986.0,57.3L983.8,60.6L982.0,59.9L982.9,56.2L982.0,52.2L983.2,49.2L987.0,44.7L992.3,41.9L994.1,39.9L992.5,37.7L986.0,34.0L984.2,32.2L982.2,35.2L981.7,31.4L989.8,24.4L992.9,23.4L996.5,23.8L997.9,23.4L995.8,20.8L992.1,20.3L990.1,17.7L990.0,14.0L989.4,12.4L984.3,10.4L983.7,8.7L986.9,4.3L986.5,2.1L985.0,0.9L982.4,3.3L980.6,2.9L981.7,1.5L978.1,0.6L976.5,3.7L973.4,7.1L969.9,9.8L963.7,12.2L960.1,15.2L954.3,21.4L936.5,36.7L924.8,42.4L915.2,49.7L912.7,50.8L896.8,54.7L889.5,55.3L886.4,56.9L867.4,73.5L862.7,75.6L860.2,75.6L854.5,72.4L852.3,71.9L849.4,73.4L846.1,74.1L833.8,74.1L830.5,74.9L823.0,80.1L819.1,84.1L812.1,84.7L807.4,86.5L803.6,91.0L794.1,98.0L791.6,101.3Z " data-id="MZ.CD" data-name="Cabo Delgado" id="MZ.CD"/>
utf-8utf-8<path d="M791.6,101.2L788.9,99.4L781.5,97.3L778.2,95.4L773.2,89.3L769.9,86.7L765.6,85.9L761.5,87.4L757.6,85.2L756.7,83.7L755.4,84.4L752.5,84.4L747.1,85.4L739.9,87.4L733.9,91.2L731.3,98.5L730.4,101.7L728.0,106.3L727.5,108.7L728.4,112.7L727.6,114.2L724.4,116.9L717.4,120.2L711.3,125.1L704.3,126.0L700.8,128.0L698.8,128.5L695.7,132.9L692.5,134.4L690.3,134.4L681.4,130.0L679.0,131.4L675.6,131.8L671.5,131.3L663.6,129.3L660.3,127.5L657.1,124.4L654.7,120.8L653.7,117.5L650.4,119.6L641.6,120.5L638.0,118.5L633.6,118.4L624.5,129.9L620.9,131.4L618.8,133.4L608.9,135.4L607.3,135.2L603.8,133.0L602.6,130.0L591.6,130.0L590.0,131.2L583.6,132.8L574.8,132.2L572.7,127.2L573.4,125.6L572.2,119.0L569.9,118.0L567.9,116.0L558.7,111.2L555.5,111.9L553.8,110.8L553.0,108.8L554.0,106.4L551.2,103.5L540.6,101.3L539.3,102.2L536.3,106.4L534.5,107.9L529.8,108.8L528.0,110.0L528.7,112.3L527.5,113.2L524.9,118.3L523.9,119.0L516.4,121.8L514.9,121.4L512.2,122.6L509.2,119.4L506.5,120.4L503.7,120.4L502.1,118.8L498.2,118.9L458.9,118.4L458.8,128.8L457.3,144.2L452.5,154.9L450.2,164.8L448.4,168.7L443.6,170.9L442.7,173.6L431.5,184.3L432.9,186.5L433.3,189.5L433.0,192.8L431.5,198.3L431.7,208.4L430.4,209.4L431.5,214.5L433.4,218.8L435.8,222.5L437.1,226.2L437.4,229.3L439.7,232.8L440.8,238.7L441.9,240.8L441.2,243.3L437.7,249.7L436.9,254.9L434.5,263.0L435.2,267.5L438.9,276.6L439.7,280.5L437.7,286.0L438.7,296.7L436.9,301.5L437.4,306.6L439.6,309.3L442.6,311.5L442.9,321.8L441.9,326.5L445.3,328.7L462.5,346.9L495.6,393.3L501.4,406.8L524.7,441.7L529.1,446.8L530.6,450.2L530.6,472.6L532.4,473.8L534.4,473.7L522.6,501.6L521.7,506.8L525.9,530.6L525.5,535.0L559.2,534.7L561.0,535.4L565.3,538.2L568.2,538.0L570.4,533.9L570.5,528.7L573.0,524.8L575.9,519.2L585.0,516.7L588.5,514.1L591.9,513.2L594.9,511.3L605.2,499.0L609.3,492.4L609.8,490.8L609.9,486.3L615.0,480.9L617.3,476.7L621.7,471.9L624.7,465.4L627.4,461.7L632.5,459.5L636.7,454.3L647.3,448.9L653.6,443.2L661.0,443.4L670.8,437.5L674.2,434.4L677.0,431.1L680.6,426.0L684.4,421.8L685.9,420.9L693.3,420.9L697.4,417.1L699.0,414.5L698.3,410.3L699.5,408.7L703.5,407.7L710.8,408.4L712.2,407.8L714.7,404.5L716.5,403.3L720.5,403.3L724.4,409.5L727.7,411.4L734.0,406.7L750.0,403.4L751.9,401.8L755.3,398.1L759.1,395.9L767.3,394.9L771.0,393.7L774.0,392.2L768.6,386.8L766.7,382.8L761.6,373.6L758.3,363.6L755.7,359.9L753.1,351.6L752.0,342.6L749.1,336.8L748.7,334.6L749.5,330.6L747.9,323.2L743.6,323.1L742.2,321.0L741.6,316.4L742.3,314.1L743.9,312.2L752.0,304.5L752.3,303.2L756.2,296.8L756.3,295.0L757.6,290.2L758.5,289.0L758.9,284.7L758.3,283.5L755.1,284.0L751.7,286.4L746.9,285.0L744.6,282.5L736.7,278.6L738.9,275.6L740.4,268.3L741.3,254.1L743.0,249.1L742.8,245.9L744.5,241.5L744.4,236.6L743.6,233.2L745.5,225.1L745.4,221.6L744.1,217.5L748.4,213.8L750.1,211.2L758.4,202.0L759.3,195.4L762.1,187.2L763.8,186.0L773.9,177.3L775.0,171.0L776.0,168.1L778.0,167.3L779.7,164.0L780.2,161.5L783.6,157.4L784.9,152.4L785.7,147.0L785.3,143.3L783.5,140.4L782.0,137.0L781.5,133.6L782.3,126.0L787.9,106.8L791.6,101.3L791.6,101.2Z " data-id="MZ.NS" data-name="Niassa" id="MZ.NS"/>
utf-8utf-8<path d="M901.3,637.1L902.7,630.5L905.4,627.7L905.8,623.1L902.6,622.7L898.0,623.8L895.3,625.3L894.1,627.2L893.6,631.3L894.8,635.0L896.9,637.1L898.9,637.8L901.3,637.1Z M774.0,392.2L771.0,393.7L767.3,394.9L759.1,395.9L755.3,398.1L751.9,401.8L750.0,403.4L734.0,406.7L727.7,411.4L724.4,409.5L720.5,403.3L716.5,403.3L714.7,404.5L712.2,407.8L710.8,408.4L703.5,407.7L699.5,408.7L698.3,410.3L699.0,414.5L697.4,417.1L693.3,420.9L685.9,420.9L684.4,421.8L680.6,426.0L677.0,431.1L674.2,434.4L670.8,437.5L661.0,443.4L653.6,443.2L647.3,448.9L636.7,454.3L632.5,459.5L627.4,461.7L624.7,465.4L621.7,471.9L617.3,476.7L615.0,480.9L609.9,486.3L656.7,487.1L662.3,494.0L663.9,497.8L665.5,503.6L671.2,509.2L678.2,506.4L681.5,501.5L682.9,500.4L688.4,501.9L692.2,505.9L694.9,509.3L697.2,509.9L699.9,511.9L702.1,511.5L707.0,507.8L709.5,507.4L713.9,505.8L715.4,506.7L718.9,511.1L724.6,510.7L728.1,515.0L742.0,523.5L742.2,526.3L743.5,527.3L746.5,532.6L750.2,534.8L755.2,535.6L760.3,534.8L763.0,536.4L767.7,540.8L770.8,545.0L772.2,546.1L776.1,547.2L777.8,549.0L779.5,554.1L784.8,557.1L790.3,558.8L792.3,563.3L798.8,568.7L802.5,575.8L802.9,578.2L804.5,581.8L804.8,583.8L806.9,586.9L806.6,590.0L810.8,599.0L812.5,605.4L811.0,609.8L810.3,614.9L812.9,623.2L817.4,633.0L817.8,636.0L820.0,640.6L820.4,642.9L820.3,650.2L815.4,652.3L814.4,653.5L813.7,658.2L814.1,661.0L818.0,664.2L819.5,666.1L821.8,672.0L822.5,674.5L824.7,677.7L826.4,682.7L826.2,686.6L826.2,686.2L827.9,687.1L829.3,686.2L831.9,682.2L833.6,680.7L848.3,670.7L865.3,661.3L872.6,656.6L875.5,654.1L883.1,648.4L883.5,645.8L888.1,642.9L886.4,640.7L890.2,639.9L890.7,642.9L896.7,639.2L892.5,634.8L891.9,632.6L892.2,627.4L890.7,625.5L893.6,622.8L899.6,619.4L901.3,618.8L907.3,618.7L910.7,617.0L913.4,613.0L917.7,604.7L922.1,600.0L925.3,591.7L924.9,589.2L921.4,592.9L919.3,594.1L918.8,592.0L923.1,590.1L924.4,586.6L928.5,584.1L948.3,562.5L954.6,551.8L956.1,549.9L960.0,546.9L961.5,545.0L962.0,542.2L964.3,542.9L967.9,541.2L969.0,540.0L969.2,536.1L974.8,524.6L974.7,522.9L978.9,518.0L978.1,515.0L980.1,513.9L980.7,510.9L980.1,507.4L979.0,505.1L976.7,503.5L974.3,503.2L972.3,504.4L971.4,507.7L965.1,505.4L967.3,498.8L968.7,498.4L973.8,499.6L975.8,496.4L978.4,495.3L981.4,494.8L984.3,493.7L981.1,488.4L980.1,485.3L981.0,483.4L986.1,484.9L989.2,484.3L990.6,485.6L990.7,484.0L988.3,477.5L981.3,477.5L979.7,476.1L979.0,470.2L980.0,471.4L980.9,474.7L985.1,474.6L986.7,473.7L992.7,466.8L998.1,463.7L997.4,460.5L999.0,454.2L998.3,448.7L996.9,447.4L996.0,444.4L998.3,438.2L998.1,434.9L997.0,434.1L994.1,436.5L992.7,436.5L991.7,435.1L993.0,433.8L998.6,431.6L999.7,428.4L998.5,425.2L996.1,422.7L992.3,421.9L986.5,425.0L985.8,425.8L982.8,434.8L981.3,437.3L979.2,439.4L981.0,429.1L980.7,426.2L982.3,426.8L981.0,415.1L982.4,415.5L984.1,417.6L990.0,415.1L990.5,409.2L991.6,407.7L989.7,405.5L990.0,402.2L987.4,398.2L982.7,400.4L980.2,402.4L980.1,405.5L977.1,406.9L976.2,406.2L978.2,404.8L977.2,403.8L977.1,400.7L973.8,403.3L974.5,400.3L972.7,396.3L975.5,394.4L980.4,392.3L980.7,390.8L978.4,387.8L982.1,386.2L983.2,384.9L982.9,372.5L980.3,368.1L979.0,362.9L978.1,350.2L977.7,348.2L975.4,342.1L975.2,339.6L976.4,337.5L980.8,332.0L978.9,331.3L976.2,327.7L974.6,326.2L972.5,327.2L970.0,327.2L967.8,326.0L966.5,321.3L964.9,320.3L960.4,320.3L956.8,321.1L948.9,323.7L945.1,323.3L941.9,320.6L938.4,320.0L936.2,320.3L933.8,323.1L927.1,326.3L925.7,329.2L921.6,332.0L918.9,334.7L913.3,341.9L910.2,343.8L906.1,343.1L902.1,343.1L900.1,343.7L894.5,348.2L886.1,349.9L884.1,351.8L876.9,354.3L875.4,355.4L874.0,358.6L870.1,362.0L863.7,364.0L862.7,365.5L857.8,367.2L854.4,369.6L851.0,372.6L848.7,373.7L845.3,372.1L838.8,372.4L833.4,376.9L832.7,379.4L826.1,381.3L822.0,384.5L819.0,385.6L813.6,390.0L800.8,394.1L798.6,394.4L786.8,394.8L779.7,392.1L776.9,391.6L774.0,392.2Z " data-id="MZ.NM" data-name="Nampula" id="MZ.NM"/>
utf-8utf-8<path d="M178.9,1162.9L175.4,1160.4L162.0,1175.6L79.7,1268.8L65.7,1279.0L64.7,1281.0L84.5,1360.5L84.9,1363.7L81.7,1388.2L82.0,1392.6L83.5,1396.5L91.8,1406.7L93.5,1410.6L96.3,1424.0L99.5,1433.4L102.3,1437.4L108.1,1442.1L109.1,1443.5L109.1,1463.9L109.4,1468.5L114.0,1480.6L115.5,1479.6L127.4,1473.6L137.1,1475.4L146.2,1479.1L156.9,1480.7L159.8,1482.6L164.4,1488.6L170.1,1491.8L174.4,1492.6L178.6,1491.3L184.6,1493.8L185.4,1497.5L185.2,1508.1L185.7,1509.8L189.0,1514.2L194.8,1525.7L195.1,1528.4L203.2,1534.0L204.1,1536.1L202.2,1542.0L201.5,1550.9L201.4,1562.2L202.5,1564.0L207.4,1565.6L207.6,1570.3L207.1,1579.3L218.0,1583.6L218.7,1585.1L217.9,1598.9L217.9,1598.9L220.0,1597.5L224.8,1595.3L227.1,1593.8L228.6,1591.5L226.1,1590.1L236.5,1586.2L231.9,1589.3L231.9,1590.1L235.7,1589.0L249.7,1581.1L261.1,1576.9L274.9,1569.5L315.2,1554.0L320.4,1553.1L331.0,1548.6L333.4,1547.8L345.8,1542.3L345.8,1542.3L343.3,1537.1L340.6,1535.9L333.4,1535.6L330.6,1533.0L330.0,1527.2L332.0,1525.4L345.6,1518.2L345.9,1516.8L339.4,1509.3L339.9,1505.4L342.9,1502.4L341.9,1500.0L339.4,1501.2L335.9,1501.7L331.6,1503.0L330.3,1504.0L324.5,1506.4L320.6,1507.3L315.4,1507.5L305.4,1486.6L305.0,1483.3L305.9,1460.2L301.9,1459.1L299.9,1460.2L299.2,1455.0L301.0,1449.6L301.3,1446.5L301.1,1439.2L302.6,1425.0L305.6,1418.4L303.8,1414.4L301.4,1415.0L300.0,1413.0L301.6,1411.7L303.2,1408.8L304.6,1407.9L305.4,1401.3L304.3,1398.6L298.0,1389.1L297.1,1383.9L302.6,1381.8L302.7,1381.1L299.5,1376.8L298.2,1369.2L297.7,1364.6L294.7,1358.7L292.1,1355.4L290.6,1354.5L284.1,1347.1L284.0,1342.6L283.5,1340.5L277.4,1330.3L275.4,1328.8L269.0,1322.0L265.0,1319.1L263.4,1317.3L259.2,1310.2L258.0,1309.3L251.9,1298.8L250.9,1293.5L252.1,1287.4L253.4,1283.6L253.8,1279.6L254.5,1278.2L258.6,1276.3L259.2,1274.8L258.2,1259.8L260.0,1252.8L260.4,1248.1L257.7,1243.2L257.2,1236.4L251.2,1231.0L241.9,1216.6L242.6,1211.0L241.6,1205.4L242.2,1202.3L243.8,1199.5L248.7,1194.1L254.2,1185.6L254.9,1183.3L251.6,1181.9L247.8,1181.8L242.1,1184.4L238.4,1187.5L236.8,1189.5L235.2,1193.2L233.4,1192.6L231.0,1190.3L226.8,1189.3L226.7,1186.2L224.8,1183.1L220.5,1181.4L215.2,1182.2L210.5,1180.8L200.5,1172.1L196.9,1170.4L195.1,1170.1L189.1,1170.4L182.6,1166.2L178.8,1162.4L178.9,1162.9Z " data-id="MZ.GA" data-name="Gaza" id="MZ.GA"/>
utf-8utf-8<path d="M464.5,777.2L462.5,775.3L456.6,772.0L447.5,763.0L446.3,761.2L444.9,753.1L442.7,749.7L442.1,745.1L438.4,734.2L437.0,731.5L435.2,724.1L433.6,719.6L430.2,712.6L428.4,702.0L426.5,697.6L418.5,689.8L416.3,688.6L409.3,686.4L402.5,682.2L396.6,689.3L393.4,695.5L389.7,699.0L382.7,702.6L374.3,705.9L372.1,708.0L366.0,720.6L365.5,722.9L365.5,729.0L361.0,741.8L360.0,747.2L359.3,754.3L355.1,764.3L354.8,767.1L357.0,778.6L357.1,780.0L355.3,790.4L356.3,793.8L363.8,797.0L367.4,801.7L367.6,802.8L366.5,816.5L363.8,825.9L362.5,829.3L360.9,830.9L354.7,831.4L350.2,836.3L347.9,835.5L342.6,827.6L341.7,825.6L338.8,823.1L334.5,822.3L333.1,827.1L328.0,831.7L322.2,838.2L322.2,840.1L324.5,845.5L323.2,853.0L326.0,857.6L322.1,863.9L316.8,870.8L313.8,873.9L310.7,880.7L311.4,884.6L323.0,889.3L328.1,894.7L331.2,901.5L335.4,903.1L337.2,906.1L339.0,906.5L338.4,909.9L327.1,947.9L325.7,974.7L323.7,977.4L321.3,977.5L318.5,978.6L318.5,982.3L320.6,986.3L320.6,989.8L319.7,995.0L320.4,998.3L323.6,999.0L324.2,1000.5L331.1,1004.5L326.8,1006.0L322.7,1009.6L320.4,1012.7L317.2,1013.9L309.8,1017.7L307.2,1022.3L304.7,1022.1L300.4,1017.8L299.6,1015.1L295.9,1016.6L290.4,1017.8L289.4,1019.0L284.1,1022.7L275.1,1030.4L274.7,1031.7L276.5,1040.7L280.2,1043.1L281.3,1048.6L282.3,1050.4L282.9,1053.3L280.4,1060.2L280.6,1067.0L302.5,1093.5L303.8,1094.3L314.6,1098.6L316.0,1102.2L315.3,1124.2L317.4,1126.0L325.8,1127.0L334.8,1134.9L335.8,1138.8L335.2,1140.4L329.5,1144.8L328.1,1150.9L326.7,1151.7L325.4,1155.1L324.5,1162.6L335.2,1161.6L339.0,1163.7L341.2,1162.4L344.0,1159.1L345.9,1158.0L353.8,1162.4L356.8,1160.5L359.7,1156.9L364.1,1149.8L366.8,1147.6L377.8,1144.0L382.4,1140.2L386.9,1139.2L390.8,1142.8L394.7,1142.8L398.5,1137.9L403.7,1134.2L405.9,1131.8L415.6,1127.5L424.2,1125.9L426.2,1124.3L428.3,1124.2L428.5,1123.4L425.5,1120.0L424.2,1120.3L421.5,1122.6L421.5,1121.0L423.1,1116.8L419.4,1112.4L420.9,1105.9L418.5,1105.7L418.5,1100.3L415.2,1096.6L410.8,1096.3L407.1,1096.5L409.7,1092.6L408.5,1091.8L405.7,1094.0L405.2,1090.7L403.3,1086.3L399.0,1083.1L398.3,1080.9L396.8,1082.1L396.1,1078.3L394.7,1077.7L389.4,1080.0L389.9,1078.7L393.7,1075.3L394.3,1073.9L393.7,1069.8L389.6,1068.0L387.7,1062.4L389.2,1063.4L393.1,1062.0L393.6,1060.9L391.5,1059.2L394.6,1054.3L395.8,1050.7L398.1,1046.3L391.5,1042.3L390.2,1040.5L395.0,1038.9L399.6,1041.4L401.4,1038.3L401.3,1034.9L400.1,1029.9L400.3,1027.6L399.7,1024.9L401.4,1021.3L401.0,1014.7L399.9,1010.3L396.9,1011.4L396.8,1009.6L399.2,1009.9L401.4,1008.0L403.0,1005.0L403.2,1001.2L401.2,998.5L396.0,994.5L391.4,986.6L390.2,981.7L386.5,979.4L383.0,981.6L382.8,980.2L383.9,977.3L386.8,976.8L390.7,978.7L391.9,983.9L393.3,984.6L397.4,991.5L402.8,994.1L407.9,999.2L409.9,1006.1L412.8,1007.4L425.6,998.4L431.0,992.7L436.7,990.4L446.1,980.2L457.5,970.7L467.6,959.6L472.7,952.6L474.8,949.4L481.1,943.4L481.9,941.9L480.0,941.9L484.8,936.9L490.1,933.1L487.5,933.1L489.7,929.1L491.1,927.7L492.2,928.0L495.7,923.7L509.6,913.6L510.3,911.9L508.1,912.5L508.1,910.4L510.5,908.8L513.5,911.6L516.7,909.8L518.5,904.5L519.6,903.3L520.2,906.8L523.3,906.3L525.3,904.7L530.2,897.4L533.2,894.0L535.4,893.8L535.4,894.3L539.4,891.9L541.2,889.1L538.0,883.9L535.7,884.8L533.7,883.3L535.5,882.4L534.6,876.9L535.2,873.6L538.7,871.8L538.2,868.4L538.6,863.5L534.5,849.1L532.4,845.3L530.5,844.3L527.4,840.6L523.5,839.0L517.9,835.8L516.2,833.7L511.8,823.6L512.9,821.5L511.1,819.7L506.6,817.4L503.4,814.2L498.6,812.3L496.5,810.8L489.4,810.6L486.7,807.5L483.4,805.4L479.9,798.9L476.6,796.8L474.6,788.3L466.7,778.8L465.5,778.0L464.5,777.2Z " data-id="MZ.SO" data-name="Sofala" id="MZ.SO"/>
utf-8utf-8<path d="M609.9,486.3L609.8,490.8L609.3,492.4L605.2,499.0L594.9,511.3L591.9,513.2L588.5,514.1L585.0,516.7L575.9,519.2L573.0,524.8L570.5,528.7L570.4,533.9L568.2,538.0L565.3,538.2L561.0,535.4L559.2,534.7L525.5,535.0L525.5,535.1L520.5,581.9L518.6,588.7L517.7,597.6L516.2,599.4L509.2,604.6L504.6,605.0L495.5,608.0L491.7,611.5L488.6,609.9L488.0,608.1L482.8,606.3L478.8,608.2L469.2,618.2L467.3,622.2L467.6,631.3L464.2,637.4L464.0,641.6L462.1,645.0L454.1,650.8L455.4,655.5L459.5,660.7L461.5,661.6L466.7,667.7L467.2,677.5L468.8,681.7L469.2,684.3L466.7,686.5L466.4,692.9L465.0,695.1L468.9,698.5L467.1,703.5L467.7,709.7L466.0,714.2L466.0,714.2L466.3,715.9L466.2,728.3L466.6,730.3L468.5,735.1L467.0,746.5L467.8,752.6L466.6,773.4L465.5,778.0L466.7,778.8L474.6,788.3L476.6,796.8L479.9,798.9L483.4,805.4L486.7,807.5L489.4,810.6L496.5,810.8L498.6,812.3L503.4,814.2L506.6,817.4L511.1,819.7L512.9,821.5L511.8,823.6L516.2,833.7L517.9,835.8L523.5,839.0L527.4,840.6L530.5,844.3L532.4,845.3L534.5,849.1L538.6,863.5L538.2,868.4L538.7,871.8L535.2,873.6L534.6,876.9L535.5,882.4L533.7,883.3L535.7,884.8L538.0,883.9L541.2,889.1L539.4,891.9L535.4,894.3L535.4,894.7L534.9,902.6L536.2,904.2L539.5,903.8L545.4,902.3L547.8,902.6L546.0,900.1L547.5,896.6L547.2,892.8L545.6,885.3L545.9,882.0L548.7,888.9L550.7,891.3L556.5,893.8L561.1,891.8L562.0,890.7L558.1,887.1L559.9,881.7L560.6,881.2L561.0,883.9L562.6,881.4L566.7,872.9L568.5,870.7L568.5,867.3L572.5,866.2L572.3,864.1L575.4,864.0L576.3,859.7L579.4,859.0L584.0,854.5L593.4,843.3L597.4,839.8L604.3,831.1L605.5,828.8L601.3,831.8L599.5,832.5L602.2,827.6L603.7,826.6L609.3,827.9L610.5,824.6L615.3,818.5L618.5,812.6L615.2,810.0L612.1,809.1L611.5,807.8L609.6,796.8L607.7,795.0L604.6,797.2L605.9,794.5L608.4,793.8L611.1,794.8L612.9,797.2L613.2,801.7L615.7,803.5L618.1,806.7L618.8,806.0L619.3,808.9L622.2,806.0L629.7,793.6L636.6,787.2L639.4,783.5L640.0,779.6L642.1,780.3L645.0,779.3L647.5,777.6L649.0,774.4L654.8,772.5L656.5,770.1L657.4,771.0L662.9,766.7L675.3,758.9L677.8,756.0L681.0,756.5L684.9,753.7L688.5,750.4L690.9,749.4L691.5,750.6L704.1,741.5L709.4,738.4L721.8,735.5L728.0,732.9L730.3,731.1L728.5,729.7L730.6,727.9L729.6,725.5L726.4,720.8L729.7,722.0L731.5,721.4L731.3,728.7L732.9,731.1L734.5,731.2L739.4,726.5L766.4,714.9L766.4,712.3L767.2,711.6L769.5,713.4L770.9,713.4L775.6,708.5L775.1,710.5L778.3,709.9L781.8,708.4L783.6,706.2L781.8,703.1L783.3,703.6L785.3,706.2L786.7,706.8L801.5,705.2L805.0,704.0L810.7,700.0L817.0,699.9L820.4,699.4L824.5,695.5L825.2,693.6L821.4,691.3L826.1,688.4L826.2,686.6L826.2,686.6L826.4,682.7L824.7,677.7L822.5,674.5L821.8,672.0L819.5,666.1L818.0,664.2L814.1,661.0L813.7,658.2L814.4,653.5L815.4,652.3L820.3,650.2L820.4,642.9L820.0,640.6L817.8,636.0L817.4,633.0L812.9,623.2L810.3,614.9L811.0,609.8L812.5,605.4L810.8,599.0L806.6,590.0L806.9,586.9L804.8,583.8L804.5,581.8L802.9,578.2L802.5,575.8L798.8,568.7L792.3,563.3L790.3,558.8L784.8,557.1L779.5,554.1L777.8,549.0L776.1,547.2L772.2,546.1L770.8,545.0L767.7,540.8L763.0,536.4L760.3,534.8L755.2,535.6L750.2,534.8L746.5,532.6L743.5,527.3L742.2,526.3L742.0,523.5L728.1,515.0L724.6,510.7L718.9,511.1L715.4,506.7L713.9,505.8L709.5,507.4L707.0,507.8L702.1,511.5L699.9,511.9L697.2,509.9L694.9,509.3L692.2,505.9L688.4,501.9L682.9,500.4L681.5,501.5L678.2,506.4L671.2,509.2L665.5,503.6L663.9,497.8L662.3,494.0L656.7,487.1L609.9,486.3Z " data-id="MZ.ZA" data-name="Zambezia" id="MZ.ZA"/>
utf-8utf-8<path d="M455.4,1213.0L459.5,1198.0L460.5,1190.3L459.3,1186.0L458.1,1188.1L454.4,1201.4L452.9,1209.5L453.5,1213.2L455.4,1213.0Z M428.3,1124.2L426.2,1124.3L424.2,1125.9L415.6,1127.5L405.9,1131.8L403.7,1134.2L398.5,1137.9L394.7,1142.8L390.8,1142.8L386.9,1139.2L382.4,1140.2L377.8,1144.0L366.8,1147.6L364.1,1149.8L359.7,1156.9L356.8,1160.5L353.8,1162.4L345.9,1158.0L344.0,1159.1L341.2,1162.4L339.0,1163.7L335.2,1161.6L324.5,1162.6L319.8,1163.1L310.3,1174.1L309.2,1174.3L308.0,1172.0L306.1,1171.4L298.5,1172.5L282.4,1171.7L278.7,1172.1L275.4,1173.4L268.8,1178.8L266.7,1180.1L262.9,1181.0L255.2,1183.5L254.9,1183.3L254.2,1185.6L248.7,1194.1L243.8,1199.5L242.2,1202.3L241.6,1205.4L242.6,1211.0L241.9,1216.6L251.2,1231.0L257.2,1236.4L257.7,1243.2L260.4,1248.1L260.0,1252.8L258.2,1259.8L259.2,1274.8L258.6,1276.3L254.5,1278.2L253.8,1279.6L253.4,1283.6L252.1,1287.4L250.9,1293.5L251.9,1298.8L258.0,1309.3L259.2,1310.2L263.4,1317.3L265.0,1319.1L269.0,1322.0L275.4,1328.8L277.4,1330.3L283.5,1340.5L284.0,1342.6L284.1,1347.1L290.6,1354.5L292.1,1355.4L294.7,1358.7L297.7,1364.6L298.2,1369.2L299.5,1376.8L302.7,1381.1L302.6,1381.8L297.1,1383.9L298.0,1389.1L304.3,1398.6L305.4,1401.3L304.6,1407.9L303.2,1408.8L301.6,1411.7L300.0,1413.0L301.4,1415.0L303.8,1414.4L305.6,1418.4L302.6,1425.0L301.1,1439.2L301.3,1446.5L301.0,1449.6L299.2,1455.0L299.9,1460.2L301.9,1459.1L305.9,1460.2L305.0,1483.3L305.4,1486.6L315.4,1507.5L320.6,1507.3L324.5,1506.4L330.3,1504.0L331.6,1503.0L335.9,1501.7L339.4,1501.2L341.9,1500.0L342.9,1502.4L339.9,1505.4L339.4,1509.3L345.9,1516.8L345.6,1518.2L332.0,1525.4L330.0,1527.2L330.6,1533.0L333.4,1535.6L340.6,1535.9L343.3,1537.1L345.8,1542.3L346.1,1542.2L361.7,1538.1L377.2,1530.4L405.4,1515.1L412.7,1507.8L413.9,1503.4L425.1,1491.2L440.8,1468.8L442.6,1464.6L444.8,1461.8L443.8,1457.0L444.2,1454.8L450.6,1436.2L449.7,1434.5L449.6,1429.8L448.7,1428.6L444.9,1427.6L445.2,1429.6L444.1,1437.1L440.6,1437.2L438.3,1434.8L434.7,1435.9L434.7,1437.8L435.9,1441.5L431.3,1447.0L430.5,1447.1L432.0,1442.7L432.0,1437.6L432.8,1436.1L435.3,1420.5L434.9,1418.0L433.1,1416.2L436.9,1416.3L436.5,1421.7L437.3,1423.9L439.2,1418.4L439.8,1409.2L442.1,1395.2L448.5,1377.7L449.5,1373.2L448.7,1364.8L455.9,1348.2L458.1,1345.0L461.9,1337.6L462.5,1334.5L460.7,1333.6L460.5,1335.8L457.4,1335.0L456.0,1338.0L454.7,1333.8L453.1,1310.4L454.2,1297.0L459.7,1280.4L460.1,1278.1L460.0,1268.9L462.0,1255.6L460.0,1260.0L459.3,1266.0L458.0,1269.7L457.1,1251.6L457.4,1246.8L454.6,1246.7L452.1,1249.3L452.0,1251.3L449.8,1254.4L450.1,1256.2L452.2,1260.8L450.9,1262.5L449.1,1258.6L448.3,1261.6L446.5,1265.6L446.3,1270.8L447.2,1276.0L449.2,1279.9L447.0,1281.3L446.2,1282.9L446.2,1287.6L445.5,1288.7L442.7,1283.6L438.3,1280.7L437.9,1278.1L438.2,1273.5L442.5,1246.0L442.2,1237.0L441.5,1231.9L441.2,1223.4L438.7,1216.8L438.1,1212.2L439.1,1202.9L439.1,1198.3L436.6,1191.0L434.2,1188.4L429.1,1177.9L426.6,1169.7L426.4,1160.3L427.4,1157.2L428.4,1150.3L428.4,1148.4L425.0,1161.1L422.5,1163.8L422.8,1158.0L420.6,1156.3L421.6,1155.0L424.6,1153.6L424.4,1152.1L422.0,1150.5L422.7,1149.2L421.6,1145.5L422.3,1144.6L419.9,1142.3L418.7,1139.6L419.5,1138.3L421.6,1139.6L424.5,1138.4L423.6,1131.2L425.9,1129.4L426.8,1130.1L429.0,1125.6L428.3,1124.2L428.3,1124.2Z " data-id="MZ.IN" data-name="Inhambane" id="MZ.IN"/>
utf-8utf-8<path d="M199.0,1666.6L200.0,1662.2L193.9,1665.7L191.6,1668.6L192.4,1671.8L193.2,1668.8L194.4,1668.6L196.1,1670.9L199.0,1666.6Z M157.3,1660.2L158.5,1656.8L161.2,1651.1L168.2,1653.5L170.6,1655.9L173.4,1653.3L175.4,1646.7L177.8,1644.5L179.2,1645.9L178.9,1640.6L180.3,1638.3L182.5,1631.4L184.9,1626.9L190.1,1619.7L192.9,1616.6L217.9,1598.9L218.7,1585.1L218.0,1583.6L207.1,1579.3L207.6,1570.3L207.4,1565.6L202.5,1564.0L201.4,1562.2L201.5,1550.9L202.2,1542.0L204.1,1536.1L203.2,1534.0L195.1,1528.4L194.8,1525.7L189.0,1514.2L185.7,1509.8L185.2,1508.1L185.4,1497.5L184.6,1493.8L178.6,1491.3L174.4,1492.6L170.1,1491.8L164.4,1488.6L159.8,1482.6L156.9,1480.7L146.2,1479.1L137.1,1475.4L127.4,1473.6L115.5,1479.6L114.0,1480.6L116.8,1488.1L118.6,1496.3L118.7,1504.6L117.5,1512.0L112.7,1598.2L110.8,1603.4L109.9,1609.7L110.1,1613.0L111.7,1624.2L111.1,1628.0L107.4,1631.7L102.8,1642.5L102.1,1645.5L102.2,1648.7L105.1,1661.1L107.3,1663.5L109.8,1664.9L115.8,1666.6L114.4,1670.0L114.6,1673.8L115.9,1681.5L115.3,1684.4L111.7,1692.9L111.1,1696.0L111.5,1707.1L111.9,1710.1L115.7,1719.3L116.0,1728.1L113.8,1755.7L116.4,1756.3L121.1,1755.8L123.8,1755.9L135.5,1757.9L185.2,1756.4L184.2,1752.7L186.9,1740.2L186.7,1735.8L188.0,1732.1L189.8,1724.0L192.9,1694.1L196.5,1676.9L196.6,1674.0L190.9,1677.9L187.6,1691.9L188.3,1695.3L184.8,1696.5L183.8,1696.0L178.1,1687.2L174.7,1684.7L172.4,1684.2L170.7,1685.8L168.9,1678.9L168.6,1675.6L164.0,1668.0L162.1,1667.2L159.9,1663.3L156.4,1662.2L155.8,1662.6L154.5,1667.1L153.4,1663.9L155.7,1660.7L157.3,1660.2Z " data-id="MZ.MP" data-name="Maputo" id="MZ.MP"/>
utf-8utf-8<path d="M158.9,1660.2L164.0,1662.2L164.9,1661.7L168.8,1657.7L170.6,1655.9L168.2,1653.5L161.2,1651.1L158.5,1656.8L157.3,1660.2L158.9,1660.2Z " data-id="MZ.MP" data-name="Maputo" id="MZ.MP"/>
utf-8</g>
</svg>
