<?xml version="1.0" ?>
<!DOCTYPE svg
  PUBLIC '-//W3C//DTD SVG 1.1//EN'
  'http://www.w3.org/Graphics/SVG/1.1/DTD/svg11.dtd'>
<svg enable_background="new 0 0 1000 1019" height="1019px" pretty_print="True" style="stroke-linejoin: round; stroke:#000; fill: none;" version="1.1" viewBox="0 0 1000 1019" width="1000px" xmlns="http://www.w3.org/2000/svg" xmlns:xlink="http://www.w3.org/1999/xlink">
utf-8<defs>
utf-8utf-8<style type="text/css">
<![CDATA[path { fill-rule: evenodd; }]]>utf-8utf-8</style>
utf-8</defs>
utf-8<metadata>
utf-8utf-8<views>
utf-8utf-8utf-8<view h="1019.78177323" padding="0" w="1000">
utf-8utf-8utf-8utf-8<proj flip="auto" id="robinson" lon0="17.6082106895"/>
utf-8utf-8utf-8utf-8<bbox h="201.4" w="197.68" x="171.18" y="284.25"/>
utf-8utf-8utf-8</view>
utf-8utf-8</views>
utf-8</metadata>
utf-8<g class="" id="provinces">
utf-8utf-8<path d="M588.8,734.6L585.4,735.1L584.4,734.2L581.9,734.6L573.6,738.7L561.2,736.3L557.3,733.9L551.5,732.6L548.0,732.5L541.0,734.5L535.0,724.3L531.1,725.9L523.2,729.9L491.5,727.0L486.1,724.0L484.6,722.5L479.7,719.8L463.4,721.3L427.9,730.1L418.3,731.0L404.4,729.5L402.7,728.7L396.6,731.6L395.8,746.4L384.0,740.9L382.9,740.8L379.0,742.3L376.8,742.3L369.9,744.2L366.3,738.5L363.1,737.4L360.0,737.0L356.5,734.6L343.8,731.8L341.0,731.6L337.6,726.2L333.7,734.0L332.5,735.7L329.3,738.1L328.4,734.1L329.0,731.7L327.1,730.0L325.3,729.8L320.3,731.8L320.2,733.4L323.3,754.5L315.2,754.0L312.4,755.0L311.4,754.2L297.4,733.0L296.0,731.5L289.3,731.3L284.8,689.4L283.2,682.6L215.5,682.1L215.5,682.1L217.1,687.5L216.8,691.0L215.1,697.0L215.3,698.0L212.9,704.4L213.8,713.2L215.5,718.4L216.1,724.4L217.6,726.0L217.6,731.1L215.3,735.5L214.9,737.2L214.6,746.8L215.8,749.1L219.4,753.8L218.6,756.9L219.0,759.7L222.1,765.4L223.8,771.9L223.7,775.5L222.7,778.2L220.6,779.4L222.3,782.3L221.8,788.7L222.1,795.3L222.7,796.1L227.0,798.0L229.7,800.0L232.0,802.6L233.6,805.7L234.4,810.8L236.0,818.0L234.1,824.2L233.5,820.1L230.4,821.0L229.8,822.2L229.6,825.9L231.9,830.7L234.5,843.0L239.5,847.1L239.8,848.8L240.1,855.9L241.4,859.0L240.9,860.2L243.2,879.1L246.4,884.0L248.4,888.5L251.0,891.1L252.1,893.8L258.6,905.5L260.1,915.1L267.0,922.7L268.9,925.5L269.1,931.7L271.7,934.9L273.8,938.6L279.8,944.1L283.3,949.0L285.1,951.0L294.4,958.3L304.7,971.2L312.2,979.3L315.3,983.6L322.3,988.2L324.0,986.1L328.7,983.1L333.5,981.1L339.2,975.5L341.3,978.4L345.4,975.5L347.1,969.0L349.0,967.5L346.4,960.5L348.1,958.4L350.1,959.5L350.2,954.6L353.3,953.4L352.1,950.8L355.6,950.3L356.4,943.5L361.2,942.3L362.3,941.2L365.1,941.5L368.4,939.2L371.4,939.2L375.3,944.4L377.1,945.0L377.5,954.2L379.0,956.2L381.3,956.6L387.8,955.4L388.6,955.8L392.2,967.7L391.9,970.0L386.5,975.2L386.2,976.4L388.5,980.6L389.4,983.9L392.0,984.9L392.7,986.8L391.0,993.6L391.1,996.2L393.7,996.6L400.0,995.5L404.1,994.1L405.1,994.9L405.5,1000.5L409.4,1001.9L413.3,1000.2L415.6,999.9L427.5,1002.7L432.5,1005.5L436.7,1009.2L439.4,1010.7L445.3,1012.9L455.7,1011.1L462.0,1012.7L467.7,1010.6L469.2,1011.8L473.4,1009.8L487.3,1007.7L502.3,1009.9L506.3,1015.2L508.8,1015.5L511.1,1017.8L513.9,1017.6L516.9,1016.6L521.1,1014.4L523.0,1012.1L525.4,1011.9L526.4,1010.3L523.9,1005.5L523.9,1001.9L527.1,997.5L531.6,998.5L537.5,997.0L541.2,994.0L543.6,987.2L548.0,981.5L556.7,980.2L561.1,977.8L566.7,976.9L570.1,973.9L578.2,972.3L578.5,969.8L581.3,909.4L583.2,866.6L585.3,819.1L587.1,776.3L588.7,738.2L588.8,734.6Z " data-id="NA.KA" data-name="Karas" id="NA.KA"/>
utf-8utf-8<path d="M480.9,551.7L479.3,551.8L474.2,555.0L467.2,558.7L466.5,562.1L454.3,566.6L451.7,566.0L448.8,567.4L447.6,566.7L445.1,563.2L440.1,561.1L426.2,561.5L424.2,563.8L410.6,563.9L410.1,564.2L409.4,555.7L407.0,554.4L406.2,549.3L406.6,548.0L409.2,547.1L409.8,546.1L409.6,541.7L410.3,539.5L413.0,536.7L407.4,537.8L402.5,538.0L395.9,539.2L393.4,538.6L392.3,536.7L392.0,530.9L391.3,529.7L386.9,527.9L383.9,527.9L379.0,528.9L374.5,532.3L370.8,534.0L364.8,535.6L361.6,534.6L354.3,534.5L353.0,533.3L349.3,534.1L340.6,553.9L345.6,556.8L346.4,562.2L338.6,570.2L337.1,570.8L332.3,570.8L331.6,570.0L331.4,565.8L329.6,563.8L325.0,572.4L323.7,577.3L324.2,579.0L330.4,580.6L333.1,579.8L338.6,581.5L340.5,585.1L339.6,587.3L328.4,586.9L325.6,589.9L324.7,592.1L326.6,599.4L322.5,598.4L318.6,595.1L318.3,593.0L321.4,591.2L321.7,587.4L322.5,585.9L313.3,588.2L303.8,591.3L299.5,591.9L297.1,594.9L289.6,595.0L285.2,592.6L284.2,588.1L284.9,581.5L264.0,571.3L253.1,569.0L245.8,567.6L238.0,567.8L234.6,563.5L193.6,559.2L194.3,561.6L194.6,564.6L193.3,576.8L194.7,582.3L194.5,587.1L195.0,588.1L193.7,591.0L192.0,591.7L190.3,596.3L190.8,598.2L190.6,605.6L191.5,610.8L192.9,613.6L194.2,619.4L198.0,627.6L201.3,636.7L201.2,640.2L199.6,642.8L200.0,645.0L202.4,648.0L203.3,650.6L206.8,654.3L208.5,656.9L212.5,665.4L213.3,668.7L213.3,675.4L214.1,678.8L215.5,682.1L283.2,682.6L284.8,689.4L289.3,731.3L296.0,731.5L297.4,733.0L311.4,754.2L312.4,755.0L315.2,754.0L323.3,754.5L320.2,733.4L320.3,731.8L325.3,729.8L327.1,730.0L329.0,731.7L328.4,734.1L329.3,738.1L332.5,735.7L333.7,734.0L337.6,726.2L341.0,731.6L343.8,731.8L356.5,734.6L360.0,737.0L363.1,737.4L366.3,738.5L369.9,744.2L376.8,742.3L379.0,742.3L382.9,740.8L384.0,740.9L395.8,746.4L396.6,731.6L402.7,728.7L404.4,729.5L418.3,731.0L427.9,730.1L463.4,721.3L479.7,719.8L484.6,722.5L486.1,724.0L491.5,727.0L523.2,729.9L531.1,725.9L535.0,724.3L541.0,734.5L548.0,732.5L551.5,732.6L557.3,733.9L561.2,736.3L573.6,738.7L581.9,734.6L584.4,734.2L585.4,735.1L588.8,734.6L588.8,733.5L590.7,685.9L592.6,631.9L594.1,588.2L594.2,585.8L547.8,585.6L542.7,584.9L542.9,569.8L540.2,567.9L538.3,568.5L534.1,573.5L527.3,573.3L521.0,570.1L507.2,576.0L498.9,574.4L497.8,573.6L492.7,568.3L489.1,570.5L482.8,556.3L483.0,555.2L480.9,551.7Z " data-id="NA.HA" data-name="Hardap" id="NA.HA"/>
utf-8utf-8<path d="M487.7,543.5L487.2,540.9L477.2,531.8L476.8,530.9L477.7,527.9L484.3,525.9L483.2,521.2L480.2,519.9L476.2,516.5L476.5,512.6L479.8,511.2L480.3,506.6L475.1,508.7L473.8,508.3L473.8,496.8L469.2,468.6L468.0,468.1L465.7,470.1L463.4,466.9L465.9,465.5L460.5,457.5L457.6,457.5L455.8,456.4L453.5,453.0L451.1,445.9L452.1,438.4L458.2,436.1L459.3,433.4L458.6,431.4L461.6,425.9L463.3,424.5L463.1,420.7L459.6,415.4L464.1,407.9L463.6,402.8L455.8,405.1L451.2,405.6L447.6,407.3L440.6,412.9L433.9,414.4L432.8,413.0L430.7,412.5L427.2,413.4L425.1,415.2L419.8,421.0L419.2,422.6L416.8,424.9L414.0,425.1L415.6,431.8L414.8,434.1L413.3,435.2L410.4,433.8L409.7,436.5L404.2,439.3L402.6,435.3L400.1,438.2L398.9,443.4L398.0,444.4L390.0,448.1L387.7,444.6L380.2,450.3L378.8,448.0L376.6,448.7L375.1,450.3L369.1,452.8L366.5,451.4L364.5,451.3L362.1,447.5L360.3,447.6L357.1,452.9L357.3,454.5L360.4,454.2L361.3,456.5L358.3,457.3L351.8,456.0L349.9,456.9L348.8,458.5L345.5,458.0L339.7,459.5L336.6,460.8L333.1,463.6L331.9,466.3L331.3,471.1L326.7,471.2L320.1,478.0L317.2,479.1L312.7,477.7L310.6,478.4L304.7,484.8L303.9,487.3L309.4,487.1L310.0,499.4L302.7,500.1L298.1,504.4L297.1,512.1L297.5,519.0L296.0,523.2L296.1,525.6L299.3,529.9L298.3,531.3L292.3,533.5L293.8,544.7L289.6,545.9L286.6,552.2L287.3,554.6L292.8,557.4L293.5,559.3L292.3,571.5L293.1,576.1L292.5,579.3L291.1,580.8L284.9,581.5L284.2,588.1L285.2,592.6L289.6,595.0L297.1,594.9L299.5,591.9L303.8,591.3L313.3,588.2L322.5,585.9L321.7,587.4L321.4,591.2L318.3,593.0L318.6,595.1L322.5,598.4L326.6,599.4L324.7,592.1L325.6,589.9L328.4,586.9L339.6,587.3L340.5,585.1L338.6,581.5L333.1,579.8L330.4,580.6L324.2,579.0L323.7,577.3L325.0,572.4L329.6,563.8L331.4,565.8L331.6,570.0L332.3,570.8L337.1,570.8L338.6,570.2L346.4,562.2L345.6,556.8L340.6,553.9L349.3,534.1L353.0,533.3L354.3,534.5L361.6,534.6L364.8,535.6L370.8,534.0L374.5,532.3L379.0,528.9L383.9,527.9L386.9,527.9L391.3,529.7L392.0,530.9L392.3,536.7L393.4,538.6L395.9,539.2L402.5,538.0L407.4,537.8L413.0,536.7L410.3,539.5L409.6,541.7L409.8,546.1L409.2,547.1L406.6,548.0L406.2,549.3L407.0,554.4L409.4,555.7L410.1,564.2L410.6,563.9L424.2,563.8L426.2,561.5L440.1,561.1L445.1,563.2L447.6,566.7L448.8,567.4L451.7,566.0L454.3,566.6L466.5,562.1L467.2,558.7L474.2,555.0L479.3,551.8L480.9,551.7L483.0,555.2L487.7,543.5Z " data-id="NA.KH" data-name="Khomas" id="NA.KH"/>
utf-8utf-8<path d="M135.4,359.0L145.8,351.9L150.4,350.7L151.2,349.1L155.9,346.2L161.5,344.0L164.8,343.9L170.5,341.6L173.6,341.0L177.0,339.6L178.3,339.6L182.9,341.9L190.4,340.2L194.3,340.9L195.8,342.1L203.2,341.9L205.8,343.1L216.5,343.0L221.9,340.7L226.8,336.7L230.8,335.0L234.1,331.5L235.3,331.0L240.5,326.3L245.7,323.1L247.3,320.5L262.6,303.6L265.6,299.6L270.9,300.3L273.5,303.3L278.1,305.3L281.4,306.0L286.4,306.3L292.4,307.7L299.1,305.4L300.3,304.6L308.6,295.8L313.9,293.6L319.8,293.3L323.5,291.4L329.6,292.6L333.8,290.4L334.2,289.3L334.0,277.5L335.2,276.2L348.5,268.9L351.8,268.7L350.6,263.4L350.8,258.6L357.9,258.1L360.0,257.5L364.2,254.5L363.6,251.3L365.2,220.3L364.6,216.6L364.6,215.3L363.7,214.5L359.4,211.9L354.7,210.6L350.3,210.5L336.7,208.3L326.9,205.1L322.7,204.6L317.6,203.1L308.7,201.6L303.0,198.2L300.4,197.6L297.7,197.7L291.5,196.9L282.2,194.4L279.2,193.9L276.6,194.3L262.8,194.5L263.2,189.8L255.3,192.5L250.9,192.2L246.3,191.1L229.3,193.6L209.0,193.8L205.6,194.5L205.6,201.5L209.7,201.3L209.5,205.9L208.1,209.0L198.8,208.8L199.6,205.2L201.3,202.6L201.1,198.9L199.5,196.0L196.0,191.8L193.1,182.0L193.9,173.2L195.4,164.5L194.1,159.8L192.2,155.2L189.5,145.0L189.2,139.2L190.1,127.2L189.5,95.6L187.6,85.3L180.8,69.2L179.8,65.2L181.3,63.5L182.6,58.4L182.3,56.4L179.2,54.4L179.0,52.2L183.0,46.4L185.6,40.3L185.4,37.0L185.4,37.0L183.8,39.1L178.9,38.8L169.9,39.0L168.7,39.9L165.0,38.7L160.8,32.8L146.9,24.2L140.5,18.3L134.3,14.5L135.1,12.1L133.4,9.5L132.5,6.2L131.4,5.0L126.8,3.6L122.9,1.1L115.8,2.9L115.8,2.3L109.7,1.1L108.4,0.0L97.1,2.3L93.2,4.8L87.6,6.7L79.9,13.9L76.6,15.6L73.9,18.1L68.8,19.8L65.5,23.0L60.1,23.5L52.7,21.4L49.8,22.8L45.0,22.6L39.7,23.2L35.5,19.2L33.8,16.5L32.2,17.4L29.7,16.5L24.0,16.8L20.6,17.9L17.6,19.4L14.0,22.3L9.6,24.9L8.6,26.6L5.5,25.8L3.6,26.7L0.9,43.8L0.5,50.4L2.4,62.1L3.4,70.8L5.0,77.0L5.8,85.2L7.8,92.2L8.3,97.2L9.3,101.0L15.7,108.6L18.4,116.8L22.3,131.7L27.4,135.2L32.6,142.1L40.8,148.0L52.5,165.5L53.1,167.3L53.9,173.4L57.2,176.8L60.8,182.3L64.2,192.1L68.8,200.2L70.5,208.4L82.6,234.0L85.6,238.5L86.3,241.0L91.7,252.9L93.9,263.4L96.3,268.0L99.4,270.4L102.4,271.4L104.0,274.4L106.5,281.5L107.8,288.4L108.2,292.0L109.8,299.5L115.9,313.0L117.7,320.5L118.3,327.5L120.5,333.2L123.4,336.1L124.3,339.3L127.3,343.7L133.6,356.5L135.4,359.0L135.4,359.0Z " data-id="NA.KU" data-name="Kunene" id="NA.KU"/>
utf-8utf-8<path d="M278.1,305.3L273.5,303.3L270.9,300.3L265.6,299.6L262.6,303.6L247.3,320.5L245.7,323.1L240.5,326.3L235.3,331.0L234.1,331.5L230.8,335.0L226.8,336.7L221.9,340.7L216.5,343.0L205.8,343.1L203.2,341.9L195.8,342.1L194.3,340.9L190.4,340.2L182.9,341.9L178.3,339.6L177.0,339.6L173.6,341.0L170.5,341.6L164.8,343.9L161.5,344.0L155.9,346.2L151.2,349.1L150.4,350.7L145.8,351.9L135.4,359.0L138.1,362.8L142.6,371.1L149.8,381.7L152.0,387.8L153.0,393.2L158.7,402.8L159.1,405.2L158.1,409.5L159.5,410.2L165.4,416.3L166.0,417.7L171.3,423.2L182.3,439.2L182.4,442.0L183.9,444.8L191.2,456.6L192.5,461.6L195.0,467.4L195.7,471.2L197.4,474.2L198.5,485.4L198.7,500.2L198.2,504.1L195.8,507.6L194.0,511.0L194.0,508.6L192.4,509.4L192.5,505.1L191.1,502.5L191.0,506.0L189.4,510.0L189.9,518.5L192.8,525.9L193.5,528.9L194.7,538.7L190.2,547.7L191.1,551.5L193.6,559.2L193.6,559.2L234.6,563.5L238.0,567.8L245.8,567.6L253.1,569.0L264.0,571.3L284.9,581.5L291.1,580.8L292.5,579.3L293.1,576.1L292.3,571.5L293.5,559.3L292.8,557.4L287.3,554.6L286.6,552.2L289.6,545.9L293.8,544.7L292.3,533.5L298.3,531.3L299.3,529.9L296.1,525.6L296.0,523.2L297.5,519.0L297.1,512.1L298.1,504.4L302.7,500.1L310.0,499.4L309.4,487.1L303.9,487.3L304.7,484.8L310.6,478.4L312.7,477.7L317.2,479.1L320.1,478.0L326.7,471.2L331.3,471.1L331.9,466.3L333.1,463.6L336.6,460.8L339.7,459.5L337.4,455.2L338.0,450.5L336.1,445.5L341.5,439.2L339.2,435.4L341.4,434.1L342.7,428.5L342.0,425.7L342.8,423.4L341.7,419.0L340.1,417.8L339.7,414.5L337.1,404.8L339.6,395.2L340.5,388.5L342.1,385.6L345.0,381.4L348.0,378.3L348.4,375.8L346.4,365.4L347.1,362.6L347.2,357.7L338.9,356.3L337.8,354.0L329.4,345.4L329.0,342.5L328.1,342.2L324.9,345.9L323.0,346.1L320.0,344.2L316.6,342.8L312.3,338.2L297.8,329.6L291.4,322.8L289.8,317.7L285.2,318.3L281.5,317.1L280.8,315.0L281.4,306.0L278.1,305.3Z " data-id="NA.ER" data-name="Erongo" id="NA.ER"/>
utf-8utf-8<path d="M476.0,153.3L474.6,160.6L473.9,169.5L469.5,172.6L467.6,175.0L462.6,176.8L462.8,185.7L460.9,195.5L457.0,197.5L456.2,200.3L453.5,201.8L451.9,205.9L452.7,209.3L455.2,212.8L454.2,215.3L450.8,217.4L447.6,214.5L441.5,216.4L436.9,216.1L431.2,211.9L429.4,212.0L424.8,207.2L422.3,205.5L417.0,204.6L416.1,202.8L416.0,199.3L418.5,197.9L418.1,193.3L414.2,194.0L413.1,196.9L411.2,196.7L411.5,193.6L410.4,190.5L404.0,188.1L401.8,186.2L396.5,187.7L393.3,193.0L386.0,202.5L365.6,213.8L364.6,215.1L364.6,215.3L364.6,216.6L365.2,220.3L363.6,251.3L364.2,254.5L360.0,257.5L357.9,258.1L350.8,258.6L350.6,263.4L351.8,268.7L348.5,268.9L335.2,276.2L334.0,277.5L334.2,289.3L333.8,290.4L329.6,292.6L323.5,291.4L319.8,293.3L313.9,293.6L308.6,295.8L300.3,304.6L299.1,305.4L292.4,307.7L286.4,306.3L281.4,306.0L280.8,315.0L281.5,317.1L285.2,318.3L289.8,317.7L291.4,322.8L297.8,329.6L312.3,338.2L316.6,342.8L320.0,344.2L323.0,346.1L324.9,345.9L328.1,342.2L329.0,342.5L329.4,345.4L337.8,354.0L338.9,356.3L347.2,357.7L347.1,362.6L346.4,365.4L348.4,375.8L348.0,378.3L345.0,381.4L342.1,385.6L340.5,388.5L339.6,395.2L337.1,404.8L339.7,414.5L340.1,417.8L341.7,419.0L342.8,423.4L342.0,425.7L342.7,428.5L341.4,434.1L339.2,435.4L341.5,439.2L336.1,445.5L338.0,450.5L337.4,455.2L339.7,459.5L345.5,458.0L348.8,458.5L349.9,456.9L351.8,456.0L358.3,457.3L361.3,456.5L360.4,454.2L357.3,454.5L357.1,452.9L360.3,447.6L362.1,447.5L364.5,451.3L366.5,451.4L369.1,452.8L375.1,450.3L376.6,448.7L378.8,448.0L380.2,450.3L387.7,444.6L390.0,448.1L398.0,444.4L398.9,443.4L400.1,438.2L402.6,435.3L404.2,439.3L409.7,436.5L410.4,433.8L413.3,435.2L414.8,434.1L415.6,431.8L414.0,425.1L416.8,424.9L419.2,422.6L419.8,421.0L425.1,415.2L427.2,413.4L430.7,412.5L432.8,413.0L433.9,414.4L440.6,412.9L447.6,407.3L451.2,405.6L455.8,405.1L463.6,402.8L464.5,402.0L470.8,398.6L472.9,395.8L473.2,393.7L472.7,390.1L472.8,384.5L474.7,383.4L474.8,376.6L476.0,375.5L475.1,370.4L471.1,370.0L472.2,363.8L475.2,363.0L482.9,365.2L481.9,359.9L486.5,356.0L486.8,355.1L482.8,352.9L484.1,346.3L485.6,345.3L492.1,344.0L493.8,346.2L495.9,341.8L499.5,327.2L513.3,303.6L518.9,298.2L554.6,283.7L562.8,279.0L567.3,278.9L628.6,286.4L636.5,289.0L643.6,288.6L651.4,289.8L655.1,290.9L657.9,291.2L668.0,289.4L677.0,288.1L677.2,279.6L678.7,226.7L679.6,194.9L679.8,188.2L679.8,188.2L551.6,189.6L552.6,158.0L476.0,153.3Z " data-id="NA.OD" data-name="Otjozondjupa" id="NA.OD"/>
utf-8utf-8<path d="M266.3,37.1L247.3,37.1L190.5,37.0L185.4,37.0L185.6,40.3L183.0,46.4L179.0,52.2L179.2,54.4L182.3,56.4L182.6,58.4L181.3,63.5L179.8,65.2L180.8,69.2L187.6,85.3L189.5,95.6L190.1,127.2L189.2,139.2L189.5,145.0L192.2,155.2L194.1,159.8L195.4,164.5L193.9,173.2L193.1,182.0L196.0,191.8L199.5,196.0L201.1,198.9L201.3,202.6L199.6,205.2L198.8,208.8L208.1,209.0L209.5,205.9L209.7,201.3L205.6,201.5L205.6,194.5L209.0,193.8L229.3,193.6L246.3,191.1L250.9,192.2L255.3,192.5L263.2,189.8L263.1,188.6L263.2,187.5L273.2,184.4L279.1,180.7L281.9,180.4L284.4,179.1L280.9,177.1L278.0,172.2L281.1,169.1L281.8,164.1L278.7,155.0L278.4,150.3L280.9,146.4L282.4,141.7L279.4,110.2L279.4,105.8L278.6,101.7L275.9,99.7L272.8,98.4L263.2,91.0L290.3,61.7L289.9,54.8L286.5,47.8L284.4,42.7L284.4,37.1L266.3,37.1Z " data-id="NA.OS" data-name="Omusati" id="NA.OS"/>
utf-8utf-8<path d="M316.3,63.1L302.8,65.1L291.6,66.8L290.4,62.2L290.3,61.7L263.2,91.0L272.8,98.4L275.9,99.7L278.6,101.7L279.4,105.8L279.4,110.2L282.4,141.7L280.9,146.4L278.4,150.3L278.7,155.0L281.8,164.1L281.1,169.1L278.0,172.2L280.9,177.1L284.4,179.1L281.9,180.4L279.1,180.7L273.2,184.4L263.2,187.5L263.1,188.6L263.2,189.8L262.8,194.5L276.6,194.3L279.2,193.9L282.2,194.4L291.5,196.9L297.7,197.7L300.4,197.6L303.0,198.2L308.7,201.6L308.9,199.7L308.2,197.7L307.4,189.3L310.1,187.5L310.8,184.9L308.4,183.2L305.2,176.7L302.9,170.9L302.3,167.6L302.4,162.3L303.9,156.9L306.8,152.8L310.1,149.3L312.5,146.1L315.6,145.5L317.1,144.2L316.8,141.9L313.7,137.7L311.1,129.2L311.7,123.0L310.9,119.2L311.0,115.5L313.3,113.1L316.7,108.0L317.6,105.8L318.3,100.8L318.0,94.0L315.7,90.8L316.3,63.1L316.3,63.1Z " data-id="NA.ON" data-name="Oshana" id="NA.ON"/>
utf-8utf-8<path d="M284.4,37.1L284.4,42.7L286.5,47.8L289.9,54.8L290.3,61.7L290.4,62.2L291.6,66.8L302.8,65.1L316.3,63.1L316.3,63.1L338.7,79.0L344.7,81.6L371.5,69.3L463.8,69.1L464.7,37.1L455.7,37.1L417.8,37.1L379.9,37.1L285.2,37.1L284.4,37.1Z " data-id="NA.OW" data-name="Ohangwena" id="NA.OW"/>
utf-8utf-8<path d="M463.6,402.8L464.1,407.9L459.6,415.4L463.1,420.7L463.3,424.5L461.6,425.9L458.6,431.4L459.3,433.4L458.2,436.1L452.1,438.4L451.1,445.9L453.5,453.0L455.8,456.4L457.6,457.5L460.5,457.5L465.9,465.5L463.4,466.9L465.7,470.1L468.0,468.1L469.2,468.6L473.8,496.8L473.8,508.3L475.1,508.7L480.3,506.6L479.8,511.2L476.5,512.6L476.2,516.5L480.2,519.9L483.2,521.2L484.3,525.9L477.7,527.9L476.8,530.9L477.2,531.8L487.2,540.9L487.7,543.5L483.0,555.2L482.8,556.3L489.1,570.5L492.7,568.3L497.8,573.6L498.9,574.4L507.2,576.0L521.0,570.1L527.3,573.3L534.1,573.5L538.3,568.5L540.2,567.9L542.9,569.8L542.7,584.9L547.8,585.6L594.2,585.8L594.6,573.6L596.1,529.9L599.2,427.8L672.0,427.8L673.1,424.7L676.9,290.2L677.0,288.1L668.0,289.4L657.9,291.2L655.1,290.9L651.4,289.8L643.6,288.6L636.5,289.0L628.6,286.4L567.3,278.9L562.8,279.0L554.6,283.7L518.9,298.2L513.3,303.6L499.5,327.2L495.9,341.8L493.8,346.2L492.1,344.0L485.6,345.3L484.1,346.3L482.8,352.9L486.8,355.1L486.5,356.0L481.9,359.9L482.9,365.2L475.2,363.0L472.2,363.8L471.1,370.0L475.1,370.4L476.0,375.5L474.8,376.6L474.7,383.4L472.8,384.5L472.7,390.1L473.2,393.7L472.9,395.8L470.8,398.6L464.5,402.0L463.6,402.8Z " data-id="NA.OH" data-name="Omaheke" id="NA.OH"/>
utf-8utf-8<path d="M677.9,87.7L676.8,90.0L670.3,91.6L665.3,88.3L662.9,89.2L657.4,86.9L654.5,87.1L649.6,85.4L647.1,84.0L643.4,79.9L641.6,79.1L639.7,79.6L631.7,76.6L629.1,79.0L627.4,78.2L622.5,79.6L622.0,79.0L613.6,80.1L607.6,77.2L596.0,77.2L594.2,79.6L589.2,77.5L588.6,76.0L581.2,76.8L568.5,77.0L556.9,73.1L555.7,72.3L547.8,72.4L545.3,73.5L539.0,73.8L529.4,71.9L522.9,68.3L517.7,64.4L513.6,59.5L509.9,54.6L505.0,49.5L502.6,44.1L500.5,42.5L498.1,37.2L474.6,37.1L464.7,37.1L463.8,69.1L462.4,152.4L476.0,153.3L552.6,158.0L551.6,189.6L679.8,188.2L679.8,188.2L679.9,184.3L680.2,173.7L682.0,116.0L683.3,115.9L683.3,115.9L683.3,115.9L683.7,86.0L677.9,87.7Z " data-id="NA.OK" data-name="Kavango" id="NA.OK"/>
utf-8utf-8<path d="M371.5,69.3L344.7,81.6L338.7,79.0L316.3,63.1L315.7,90.8L318.0,94.0L318.3,100.8L317.6,105.8L316.7,108.0L313.3,113.1L311.0,115.5L310.9,119.2L311.7,123.0L311.1,129.2L313.7,137.7L316.8,141.9L317.1,144.2L315.6,145.5L312.5,146.1L310.1,149.3L306.8,152.8L303.9,156.9L302.4,162.3L302.3,167.6L302.9,170.9L305.2,176.7L308.4,183.2L310.8,184.9L310.1,187.5L307.4,189.3L308.2,197.7L308.9,199.7L308.7,201.6L317.6,203.1L322.7,204.6L326.9,205.1L336.7,208.3L350.3,210.5L354.7,210.6L359.4,211.9L363.7,214.5L364.6,215.3L364.6,215.1L365.6,213.8L386.0,202.5L393.3,193.0L396.5,187.7L401.8,186.2L404.0,188.1L410.4,190.5L411.5,193.6L411.2,196.7L413.1,196.9L414.2,194.0L418.1,193.3L418.5,197.9L416.0,199.3L416.1,202.8L417.0,204.6L422.3,205.5L424.8,207.2L429.4,212.0L431.2,211.9L436.9,216.1L441.5,216.4L447.6,214.5L450.8,217.4L454.2,215.3L455.2,212.8L452.7,209.3L451.9,205.9L453.5,201.8L456.2,200.3L457.0,197.5L460.9,195.5L462.8,185.7L462.6,176.8L467.6,175.0L469.5,172.6L473.9,169.5L474.6,160.6L476.0,153.3L462.4,152.4L463.8,69.1L371.5,69.3Z " data-id="NA.OT" data-name="Oshikoto" id="NA.OT"/>
utf-8utf-8<path d="M683.7,86.0L683.3,115.9L683.3,115.9L683.3,115.9L685.6,115.8L718.9,114.3L830.7,90.6L851.0,88.7L853.8,88.8L856.7,92.6L856.5,94.6L858.4,99.0L860.5,101.9L862.5,105.7L863.3,104.9L868.5,109.0L869.6,113.8L871.9,116.6L872.5,118.4L871.4,120.2L873.1,125.0L873.6,128.5L879.3,127.7L881.1,125.5L883.8,124.4L891.0,116.2L893.1,114.8L894.5,112.6L898.8,108.9L899.2,105.9L907.0,101.7L910.4,98.7L913.1,98.1L915.7,96.1L919.4,91.4L923.5,89.7L927.7,91.1L930.7,86.5L933.0,84.7L938.1,86.1L940.6,91.4L943.1,94.0L948.2,93.2L953.9,85.7L957.7,82.9L959.8,80.1L967.0,75.3L969.7,74.8L976.9,71.0L979.0,73.7L983.8,72.5L984.4,74.3L986.7,74.2L989.2,73.1L991.7,70.4L994.7,70.4L999.5,71.4L994.5,68.2L990.9,62.3L989.7,63.3L988.0,61.5L987.1,58.5L985.6,56.8L983.8,56.4L984.0,53.7L981.5,54.0L978.0,50.9L976.4,51.7L975.5,50.2L973.6,49.2L957.9,45.9L954.6,45.9L951.0,48.9L936.2,44.1L930.3,45.0L921.5,45.3L868.4,57.2L867.0,57.3L794.4,72.9L714.5,89.7L713.1,90.1L711.6,88.2L705.3,85.4L696.7,83.0L692.8,84.2L691.7,83.6L684.8,85.7L683.7,86.0Z " data-id="NA.CA" data-name="Caprivi" id="NA.CA"/>
utf-8</g>
</svg>
