<?xml version="1.0" ?>
<!DOCTYPE svg
  PUBLIC '-//W3C//DTD SVG 1.1//EN'
  'http://www.w3.org/Graphics/SVG/1.1/DTD/svg11.dtd'>
<svg enable_background="new 0 0 1000 823" height="823px" pretty_print="True" style="stroke-linejoin: round; stroke:#000; fill: none;" version="1.1" viewBox="0 0 1000 823" width="1000px" xmlns="http://www.w3.org/2000/svg" xmlns:xlink="http://www.w3.org/1999/xlink">
utf-8<defs>
utf-8utf-8<style type="text/css">
<![CDATA[path { fill-rule: evenodd; }]]>utf-8utf-8</style>
utf-8</defs>
utf-8<metadata>
utf-8utf-8<views>
utf-8utf-8utf-8<view h="823.862443078" padding="0" w="1000">
utf-8utf-8utf-8utf-8<proj flip="auto" id="robinson" lon0="167.179447675"/>
utf-8utf-8utf-8utf-8<bbox h="38.77" w="47.11" x="2384.88" y="336.76"/>
utf-8utf-8utf-8</view>
utf-8utf-8</views>
utf-8</metadata>
utf-8<g class="" id="provinces">
utf-8utf-8<path d="M720.1,226.3L712.3,226.0L701.4,227.0L698.7,228.7L701.5,229.5L705.8,233.6L714.3,231.1L717.7,229.5L720.1,226.3Z M980.3,223.9L976.3,223.3L956.6,209.3L945.2,212.9L943.8,216.6L941.4,220.2L938.4,222.8L935.0,223.9L927.0,222.3L925.4,220.2L923.4,219.6L912.5,221.5L905.4,224.9L899.9,232.5L896.6,240.1L896.3,243.5L920.3,240.6L934.7,248.2L937.9,250.6L937.7,258.3L932.9,265.4L920.7,277.2L912.9,286.8L908.2,290.9L901.5,294.5L894.8,296.1L876.3,294.5L877.4,299.3L886.7,311.5L883.5,316.3L882.2,321.0L883.1,324.6L888.9,327.2L889.4,330.0L889.2,335.7L894.4,344.3L900.5,351.8L908.9,355.1L936.2,358.4L937.4,360.3L936.4,366.3L937.8,369.7L942.5,371.1L947.4,371.9L949.3,373.6L949.2,384.2L954.7,386.9L961.7,386.9L966.3,389.3L971.9,385.9L976.1,382.8L979.1,378.3L981.6,371.1L985.0,357.5L988.3,352.5L999.4,348.5L998.9,343.9L995.7,338.9L992.6,335.7L989.6,334.6L986.1,334.1L983.2,332.7L981.6,328.7L982.3,325.7L984.2,322.3L989.2,316.1L988.2,314.5L985.9,305.1L983.9,304.2L977.3,304.0L970.2,300.8L965.8,295.6L963.3,293.6L958.4,291.0L958.1,288.3L960.1,284.0L965.9,276.9L968.2,272.4L966.6,262.7L967.1,253.5L967.9,249.3L971.5,242.5L977.0,236.4L980.9,230.2L980.3,223.9Z M799.1,112.9L797.7,108.9L794.5,106.8L789.9,107.4L784.7,109.9L780.5,113.3L779.0,116.5L782.6,114.7L784.5,117.9L788.2,126.7L787.9,133.5L784.8,139.9L779.9,147.3L774.3,154.3L769.5,159.4L766.6,164.4L761.8,186.1L759.3,192.4L755.8,196.9L748.8,204.5L738.8,213.4L733.7,216.9L728.4,219.0L731.6,223.9L737.8,223.3L745.7,220.9L753.4,217.5L759.1,214.0L765.9,206.9L783.7,182.4L774.5,183.8L770.5,183.7L769.4,181.2L770.8,171.2L772.3,165.8L775.3,161.7L783.4,148.1L784.5,147.2L786.0,143.7L788.6,140.1L792.2,137.3L796.4,136.1L805.4,136.6L809.0,135.2L811.4,131.3L810.5,128.9L803.9,124.3L801.1,121.5L799.8,117.5L799.1,112.9Z " data-id="NC.IL" data-name="Îles Loyauté" id="NC.IL"/>
utf-8utf-8<path d="M680.4,821.9L677.7,821.7L677.1,821.9L680.4,821.9Z M532.6,512.3L528.1,520.0L522.3,524.6L517.6,527.3L513.4,532.5L509.2,539.7L504.0,541.6L494.0,541.0L488.9,539.1L484.8,536.7L481.4,533.7L477.9,534.0L472.3,535.5L467.5,537.6L461.0,537.6L455.1,529.7L451.0,527.3L445.1,520.4L437.1,514.0L430.1,513.7L420.7,508.2L414.3,511.6L405.5,511.3L402.0,506.4L395.2,503.1L390.5,496.4L388.8,494.8L382.3,490.0L379.8,478.3L377.3,475.9L374.7,475.7L368.0,477.9L365.6,477.9L360.7,472.7L358.4,472.1L354.4,473.7L345.8,479.0L343.4,480.2L337.7,480.0L325.9,472.9L325.7,457.2L326.1,453.5L321.2,449.1L315.6,446.4L306.5,442.8L304.3,439.1L298.8,437.9L280.3,439.4L271.7,442.5L262.1,449.4L256.5,451.9L249.5,456.4L247.5,458.5L249.1,460.5L247.1,463.9L246.8,467.2L252.7,489.2L256.4,495.2L256.7,497.5L263.8,499.0L270.6,506.1L273.8,508.2L279.5,508.9L279.7,511.1L279.8,522.3L281.1,527.1L284.4,530.8L312.8,546.4L317.9,547.5L323.4,545.7L329.4,542.4L334.8,541.1L338.7,545.1L333.9,546.4L333.0,548.3L335.3,549.2L340.1,547.5L339.5,550.1L333.9,557.5L341.0,566.9L376.4,588.9L380.1,588.3L381.6,584.1L387.6,583.6L389.5,585.1L388.8,589.2L386.7,596.5L392.0,595.0L396.9,591.8L401.2,587.3L405.1,581.7L407.4,581.7L405.7,588.5L407.1,592.5L409.5,595.5L411.2,599.1L410.5,604.9L408.7,610.1L408.7,614.2L413.4,616.1L413.2,612.3L413.9,609.2L415.7,607.0L419.1,606.2L421.6,607.4L420.6,610.0L418.4,613.3L417.7,616.1L424.0,625.2L425.2,628.7L419.5,625.6L418.8,631.0L421.3,632.9L430.2,633.1L436.0,630.7L437.6,631.9L440.6,635.5L448.2,640.4L451.5,652.0L460.1,656.0L462.1,659.1L464.8,665.7L468.3,668.4L471.0,665.6L472.4,661.3L471.6,659.5L477.2,660.5L480.5,660.5L482.5,658.3L484.5,649.2L487.1,645.9L492.8,642.6L491.5,646.9L491.8,650.3L493.4,653.0L496.2,654.7L491.9,658.1L490.7,661.0L492.5,662.0L496.8,659.5L506.5,663.1L509.6,666.4L510.0,674.3L508.8,675.4L506.5,679.7L504.8,684.3L505.8,686.5L509.1,686.7L511.2,687.8L512.0,690.0L511.3,693.7L508.8,692.2L505.6,691.4L497.2,691.4L498.9,694.9L504.2,697.8L505.1,701.2L503.6,706.8L500.7,708.2L497.7,706.7L496.0,703.4L494.1,703.4L491.1,711.5L489.2,713.4L491.7,716.1L494.4,718.3L500.9,711.3L504.4,712.1L507.0,715.9L510.2,718.3L514.1,719.5L517.3,723.1L518.8,728.4L517.2,735.2L522.6,735.2L526.7,738.1L531.3,740.2L537.8,737.6L538.1,734.3L545.6,736.2L549.6,732.8L551.5,732.8L547.8,739.1L545.5,740.3L545.0,742.5L550.4,750.4L553.0,752.4L549.4,756.1L547.9,759.9L548.7,762.1L551.9,760.8L554.9,757.5L556.5,754.9L558.4,753.1L562.5,752.4L563.7,751.1L566.7,744.6L568.2,742.5L571.4,741.6L577.7,742.8L580.8,742.5L576.7,753.9L577.8,757.0L583.2,757.3L579.8,761.0L575.1,762.3L565.3,761.9L567.0,766.0L569.8,768.6L573.6,769.7L578.1,769.5L577.5,771.8L574.5,775.5L571.6,784.5L569.9,787.6L569.7,790.7L573.3,792.3L576.9,790.6L576.3,784.0L577.4,783.9L578.8,781.5L584.4,783.3L589.0,777.7L593.1,769.8L597.9,764.6L601.1,764.3L609.7,765.7L612.2,766.8L614.7,770.3L610.1,774.4L610.3,777.9L612.5,779.7L619.2,783.3L621.5,784.0L625.0,783.0L632.8,779.7L634.0,780.3L635.6,785.3L640.7,790.4L647.0,793.3L652.1,791.5L653.6,793.7L649.9,800.2L653.4,803.5L659.9,804.3L665.6,803.6L665.0,805.8L658.1,809.4L656.4,814.3L659.4,818.7L666.6,820.6L674.3,816.3L675.6,814.4L684.4,816.6L688.0,815.7L682.8,810.9L682.8,806.9L684.5,803.2L688.3,792.9L691.6,788.2L694.6,787.2L696.3,791.5L691.5,793.7L692.5,797.1L693.6,804.4L695.8,805.8L697.0,803.2L700.2,798.3L702.8,795.7L702.7,799.9L703.6,801.3L704.8,806.4L705.2,811.0L706.8,813.9L709.1,813.2L713.9,813.1L711.3,816.3L708.4,818.1L701.4,820.6L708.6,821.9L715.1,819.3L727.0,810.9L726.7,805.9L728.5,804.7L732.6,803.0L736.7,800.3L737.3,803.6L740.3,800.9L746.1,793.7L750.5,785.1L754.0,779.5L752.0,774.1L751.8,771.8L753.9,769.6L758.2,768.9L759.9,765.7L759.2,761.9L750.8,752.4L748.5,745.3L746.9,741.7L744.5,740.3L740.2,739.4L740.9,737.3L745.5,732.8L748.3,723.6L748.6,720.7L747.0,714.0L745.2,709.6L733.0,696.4L729.3,693.7L712.7,688.9L706.4,688.1L701.9,686.4L699.4,683.0L698.8,676.5L696.7,678.0L691.6,675.3L687.9,674.3L678.6,675.6L676.4,674.3L677.1,671.7L685.9,668.8L688.7,667.1L689.4,664.4L685.8,662.8L677.2,654.7L672.9,659.8L667.0,654.0L661.1,644.9L656.8,640.2L651.8,636.8L642.4,620.1L637.1,613.5L640.0,611.2L635.1,608.8L633.6,607.4L632.5,604.3L633.1,597.9L632.4,595.4L622.9,585.8L621.1,579.0L617.4,576.6L607.6,573.6L603.5,573.2L601.7,572.2L601.0,566.3L599.2,564.7L599.9,562.3L608.4,562.3L609.0,560.0L586.7,551.7L576.8,545.8L568.0,538.0L566.5,531.8L565.4,530.6L561.6,529.4L560.0,528.3L548.1,512.8L543.7,509.7L538.0,509.7L532.6,512.3Z " data-id="NC.SU" data-name="Sud" id="NC.SU"/>
utf-8utf-8<path d="M247.5,458.5L249.5,456.4L256.5,451.9L262.1,449.4L271.7,442.5L280.3,439.4L298.8,437.9L304.3,439.1L306.5,442.8L315.6,446.4L321.2,449.1L326.1,453.5L325.7,457.2L325.9,472.9L337.7,480.0L343.4,480.2L345.8,479.0L354.4,473.7L358.4,472.1L360.7,472.7L365.6,477.9L368.0,477.9L374.7,475.7L377.3,475.9L379.8,478.3L382.3,490.0L388.8,494.8L390.5,496.4L395.2,503.1L402.0,506.4L405.5,511.3L414.3,511.6L420.7,508.2L430.1,513.7L437.1,514.0L445.1,520.4L451.0,527.3L455.1,529.7L461.0,537.6L467.5,537.6L472.3,535.5L477.9,534.0L481.4,533.7L484.8,536.7L488.9,539.1L494.0,541.0L504.0,541.6L509.2,539.7L513.4,532.5L517.6,527.3L522.3,524.6L528.1,520.0L532.6,512.3L530.0,513.5L530.2,509.3L531.3,502.7L531.5,499.0L527.0,497.9L526.1,496.3L527.4,494.8L532.7,492.9L532.6,490.5L530.2,488.8L522.8,487.8L519.9,486.8L513.3,475.7L508.1,471.7L505.2,474.2L504.2,480.7L504.6,489.2L506.9,494.7L507.9,498.0L507.5,502.6L505.3,503.8L501.2,505.0L498.9,504.6L501.5,501.4L491.0,492.9L489.7,489.2L495.8,490.9L498.0,487.8L497.5,481.8L492.2,460.2L489.3,454.2L484.2,452.6L486.4,456.2L486.7,460.2L485.3,464.1L482.8,467.2L481.8,462.8L479.7,460.6L476.9,460.5L473.6,462.3L471.5,465.0L471.1,467.6L472.5,474.7L468.0,468.7L468.6,453.7L462.8,455.1L462.6,446.8L458.6,438.2L451.6,433.3L442.0,435.9L437.8,429.7L420.5,424.5L414.2,421.1L413.2,417.3L412.6,411.6L411.6,406.4L409.0,404.1L405.8,402.7L402.9,399.4L401.0,395.4L400.5,392.0L404.0,395.3L407.8,397.8L412.2,399.2L417.4,399.2L414.7,394.2L414.4,390.4L411.5,385.7L404.2,377.2L399.3,379.9L401.5,376.0L401.4,373.7L399.5,372.6L391.6,372.1L389.6,371.0L386.8,366.3L383.6,362.7L376.2,357.7L368.1,349.4L366.5,345.6L366.3,332.3L369.7,327.7L373.6,319.6L377.9,307.8L376.7,305.9L371.6,304.0L355.9,301.5L353.6,300.4L353.4,294.9L350.5,291.2L346.5,288.3L342.8,284.6L340.8,279.5L341.3,264.9L344.0,259.5L342.9,254.8L337.1,247.9L333.9,242.1L330.5,240.6L328.4,240.8L323.2,243.5L321.7,242.5L319.3,238.5L288.5,231.4L279.5,221.3L274.3,219.0L270.3,214.0L257.9,213.4L253.5,209.3L256.1,204.7L252.6,199.7L244.8,193.4L241.9,193.1L229.7,177.6L222.8,160.6L220.7,158.1L216.6,155.5L211.0,143.0L207.7,138.5L199.2,135.0L196.4,133.5L189.1,123.9L184.2,122.4L178.6,118.7L173.6,113.9L170.3,109.4L159.4,86.5L151.9,77.2L102.1,53.9L99.2,54.0L97.9,56.7L97.1,68.3L98.7,80.3L100.4,84.7L95.1,83.9L92.7,80.2L91.0,70.3L89.1,70.3L81.6,73.1L75.7,71.9L63.6,63.1L60.1,58.4L44.4,29.1L38.4,25.7L36.0,23.7L34.9,15.3L31.6,9.3L26.9,3.8L22.0,0.0L17.7,0.4L15.4,0.0L12.7,5.0L11.2,9.4L12.0,12.7L16.1,14.3L10.1,21.6L9.5,24.3L14.5,23.4L19.0,21.1L22.9,20.3L26.5,24.3L27.4,29.1L25.9,33.7L22.8,37.1L18.7,38.8L22.6,47.1L22.8,51.4L18.9,55.6L10.2,52.6L3.4,57.4L0.6,64.4L4.3,67.9L6.6,69.4L7.2,76.0L11.4,77.4L14.6,76.1L18.4,72.8L21.2,68.8L20.7,65.3L25.6,63.3L26.9,65.7L25.6,70.3L22.4,75.0L25.6,76.6L39.9,77.4L42.9,79.4L45.6,83.8L47.7,88.5L48.3,91.0L45.6,101.9L43.0,107.9L39.1,111.6L31.6,108.4L27.9,109.2L27.6,116.5L29.9,119.8L33.6,121.5L36.6,124.2L36.7,130.0L36.1,135.0L36.1,149.6L38.9,157.3L55.1,171.3L56.6,177.6L61.5,176.4L63.6,175.1L66.8,199.6L71.6,203.4L74.3,220.1L77.9,223.9L83.1,225.1L86.8,228.3L87.5,232.9L83.8,238.5L78.4,240.5L74.1,239.6L72.0,239.9L73.7,245.6L76.6,250.3L84.2,257.0L93.9,272.0L98.5,275.8L105.0,277.2L106.9,285.1L107.8,287.0L110.7,288.4L117.0,288.6L120.0,289.6L125.4,297.6L129.5,300.2L135.2,296.7L137.1,296.7L135.9,302.2L138.1,303.7L142.0,304.2L145.2,306.6L146.0,310.1L144.8,313.3L141.7,315.6L136.7,316.1L140.9,320.3L146.6,323.2L148.5,326.3L141.5,330.9L145.8,334.3L148.0,341.1L149.5,357.8L154.9,353.0L153.9,349.3L156.9,347.3L160.9,346.6L162.7,346.9L162.5,352.4L164.7,355.2L168.3,354.6L170.1,350.5L174.0,348.7L176.2,348.7L176.2,350.2L173.7,353.0L179.6,355.1L179.0,357.8L174.9,365.1L181.3,362.9L182.8,366.6L181.7,372.9L180.1,378.5L178.6,386.1L178.9,391.0L194.2,420.9L195.3,424.9L196.5,427.2L198.7,429.0L202.9,430.1L204.5,433.2L202.0,436.2L200.2,439.3L199.2,442.3L197.3,445.1L198.1,448.9L199.9,451.6L202.7,452.4L206.6,450.2L210.1,445.5L211.0,438.0L215.0,433.2L220.9,438.9L221.4,442.4L217.5,447.8L224.6,446.4L228.6,449.6L227.9,455.5L220.3,462.3L223.3,464.3L226.1,463.9L231.8,459.9L232.0,464.9L234.4,466.6L237.5,465.0L239.8,459.9L244.8,457.8L247.5,458.5L247.5,458.5Z M68.4,0.0L66.6,7.8L66.6,14.3L72.4,19.9L79.9,25.0L85.4,26.7L82.4,19.4L81.2,12.4L75.6,0.0L68.4,0.0Z " data-id="NC.NO" data-name="Nord" id="NC.NO"/>
utf-8</g>
</svg>
