<?xml version="1.0" ?>
<!DOCTYPE svg
  PUBLIC '-//W3C//DTD SVG 1.1//EN'
  'http://www.w3.org/Graphics/SVG/1.1/DTD/svg11.dtd'>
<svg enable_background="new 0 0 1000 862" height="862px" pretty_print="True" style="stroke-linejoin: round; stroke:#000; fill: none;" version="1.1" viewBox="0 0 1000 862" width="1000px" xmlns="http://www.w3.org/2000/svg" xmlns:xlink="http://www.w3.org/1999/xlink">
utf-8<defs>
utf-8utf-8<style type="text/css">
<![CDATA[path { fill-rule: evenodd; }]]>utf-8utf-8</style>
utf-8</defs>
utf-8<metadata>
utf-8utf-8<views>
utf-8utf-8utf-8<view h="862.920048129" padding="0" w="1000">
utf-8utf-8utf-8utf-8<proj flip="auto" id="robinson" lon0="2.01326963201"/>
utf-8utf-8utf-8utf-8<bbox h="198.22" w="229.97" x="2.24" y="-394.34"/>
utf-8utf-8utf-8</view>
utf-8utf-8</views>
utf-8</metadata>
utf-8<g class="" id="provinces">
utf-8utf-8<path d="M252.8,628.5L252.1,623.9L252.3,613.7L237.8,568.8L237.3,567.8L237.1,568.2L235.6,570.4L233.2,571.8L228.1,572.9L225.8,574.3L220.8,580.4L215.3,584.1L214.7,586.1L214.1,594.5L212.6,594.1L186.4,589.2L182.9,589.5L181.8,595.6L75.6,599.6L71.7,601.3L52.9,620.9L49.6,622.2L39.8,622.5L33.5,624.7L23.6,620.7L21.6,620.8L13.3,622.9L4.9,620.6L4.4,621.3L4.9,628.4L2.6,633.4L4.4,637.6L4.8,639.8L0.6,653.3L1.0,657.0L12.9,670.7L15.6,674.8L14.3,680.4L12.7,683.1L12.7,684.8L15.0,688.0L14.4,690.3L19.4,698.9L24.0,705.4L29.1,709.9L27.9,713.9L28.7,715.8L30.4,716.4L39.5,716.3L41.6,720.3L45.1,720.2L48.1,721.1L51.5,723.5L54.1,726.5L54.4,729.8L55.6,732.0L57.7,733.7L70.6,739.2L71.8,740.7L70.1,741.5L66.6,739.4L65.4,743.1L60.1,741.6L53.6,739.1L52.8,742.0L52.9,761.0L53.1,762.4L55.5,764.7L60.0,765.1L62.0,766.2L88.9,791.6L92.8,793.3L107.5,794.8L108.6,794.6L112.2,789.4L115.1,787.7L116.8,786.0L123.0,786.6L125.5,787.4L130.4,793.6L131.6,796.3L132.4,801.6L134.1,804.3L133.8,808.7L127.5,809.0L127.0,809.7L123.0,810.8L121.9,813.9L123.2,816.4L140.3,843.1L143.6,846.3L143.0,842.6L146.1,840.2L147.8,838.1L144.6,835.4L142.4,828.5L141.7,822.8L142.3,821.6L147.0,820.6L148.0,819.3L151.6,818.3L152.1,819.2L158.8,816.9L161.1,817.5L164.1,813.2L166.0,813.0L167.0,811.6L171.8,810.8L172.6,809.7L166.1,806.5L165.4,804.8L164.5,799.2L163.0,799.5L161.9,801.6L159.0,801.2L157.9,791.3L158.3,784.5L157.0,778.1L163.7,771.0L164.8,770.2L164.8,768.0L163.0,767.1L152.8,765.8L148.9,756.0L151.0,751.9L156.2,751.7L157.9,751.1L163.8,746.0L166.8,745.5L170.0,746.7L171.3,746.4L173.8,741.0L174.4,736.8L173.7,733.8L175.1,728.3L179.7,726.3L181.0,722.9L182.5,721.5L187.0,721.6L189.4,720.1L190.7,712.8L192.7,708.6L195.2,708.2L201.8,711.3L203.5,711.5L214.1,706.4L216.2,705.1L227.9,692.8L229.6,689.6L231.8,678.5L234.3,673.8L243.0,665.4L248.6,664.2L253.5,661.6L255.4,660.0L256.0,657.7L258.8,656.2L260.7,653.9L261.9,645.2L252.8,628.5Z M123.0,720.3L126.1,721.1L133.0,720.9L132.9,723.1L136.1,724.2L135.5,731.3L134.8,734.4L131.2,739.3L129.9,735.9L127.9,736.1L121.4,734.5L116.8,727.4L118.3,721.3L120.5,720.3L123.0,720.3Z " data-id="NE.TL" data-name="Tillabéri" id="NE.TL"/>
utf-8utf-8<path d="M752.1,438.2L755.5,648.8L750.2,652.0L749.7,656.5L754.1,661.8L749.9,665.1L748.2,665.7L742.9,665.4L741.4,666.0L725.6,677.6L714.0,681.6L711.9,681.4L709.3,679.8L706.3,680.6L680.8,707.2L680.4,712.6L679.6,714.6L668.7,727.4L668.1,730.3L670.4,739.0L672.1,738.6L678.3,738.1L689.9,739.6L721.0,739.4L740.3,744.9L747.4,748.1L756.4,754.1L760.6,757.4L764.4,758.4L769.8,756.8L774.2,759.7L776.2,758.8L778.4,759.8L787.2,761.3L788.1,760.8L792.6,748.3L797.0,743.3L798.9,745.1L800.8,743.2L804.0,741.5L805.6,739.3L808.1,738.8L808.9,736.3L812.2,732.3L810.4,730.3L812.8,731.0L813.0,729.8L816.6,729.9L823.9,726.0L825.6,725.8L830.0,727.9L834.9,726.0L836.5,720.9L839.8,716.8L840.7,714.8L843.2,713.9L859.0,714.7L851.6,679.8L848.1,665.4L848.1,661.1L850.1,657.9L854.0,655.9L859.1,655.1L861.3,653.1L860.5,645.8L863.8,642.3L867.8,640.7L868.4,639.0L867.1,631.4L867.4,630.0L871.9,618.8L905.1,565.7L972.3,483.6L973.1,482.3L973.8,475.5L977.8,402.4L977.9,401.8L815.1,401.8L767.1,426.7L754.4,436.4L753.4,437.4L752.1,438.2Z " data-id="NE.DF" data-name="Diffa" id="NE.DF"/>
utf-8utf-8<path d="M258.8,354.8L292.9,355.2L298.9,357.2L290.7,376.2L290.9,384.6L290.5,386.0L291.0,396.1L289.0,402.2L292.1,405.2L298.8,405.7L300.1,407.1L301.5,414.4L302.9,416.5L314.0,426.6L322.4,439.2L325.2,441.8L359.3,465.3L373.6,477.2L379.6,484.7L393.8,521.7L395.8,525.5L400.2,529.2L411.4,532.8L412.5,533.4L411.5,547.4L415.6,589.1L440.9,588.0L444.3,588.3L457.1,595.9L462.1,579.8L464.6,576.7L490.2,581.0L501.0,580.9L506.0,578.0L520.1,577.9L523.9,577.5L535.5,572.9L561.4,556.9L583.6,547.4L686.5,472.6L705.1,466.4L730.7,446.8L752.1,438.2L753.4,437.4L754.4,436.4L767.1,426.7L815.1,401.8L977.9,401.8L978.0,399.1L983.4,299.4L985.4,263.1L987.2,257.4L999.4,231.6L999.3,230.4L979.8,207.2L974.6,202.8L971.7,197.9L971.1,194.7L971.6,191.3L973.1,188.5L975.6,186.9L955.4,154.1L953.1,151.2L947.9,147.5L946.2,111.0L932.4,38.0L886.0,65.5L885.0,65.6L881.2,62.4L845.4,29.0L838.0,24.6L742.4,0.0L674.9,46.8L628.3,78.9L573.2,116.9L535.0,143.2L463.0,192.6L434.1,220.0L431.7,222.4L360.0,294.1L357.3,296.2L354.5,297.4L258.4,318.6L258.8,354.6L258.8,354.8Z " data-id="NE.AG" data-name="Agadez" id="NE.AG"/>
utf-8utf-8<path d="M444.3,588.3L440.9,588.0L415.6,589.1L406.9,625.8L406.9,628.6L403.4,662.9L403.9,667.0L405.9,672.3L407.2,681.0L406.7,688.8L404.7,691.2L402.6,691.7L394.8,698.7L394.9,706.1L392.9,708.4L391.6,712.0L391.8,717.3L392.9,717.6L397.2,720.3L406.2,729.8L416.7,742.5L423.6,756.4L427.4,761.3L433.8,766.3L440.7,766.5L443.5,765.5L446.5,762.5L450.4,757.4L451.8,757.1L458.5,758.4L462.8,757.7L485.8,742.1L490.2,740.8L506.4,743.4L517.2,750.5L517.3,750.5L521.4,742.1L521.7,739.6L520.1,729.4L521.6,721.6L515.0,715.8L516.3,711.3L534.5,701.0L535.2,700.3L535.6,695.6L534.5,687.5L533.1,684.0L525.1,677.8L522.6,671.6L514.0,665.0L512.0,664.7L505.4,660.6L503.8,658.9L501.7,655.2L495.3,655.6L489.5,661.4L486.6,661.9L483.4,660.2L482.1,657.5L481.7,648.5L480.0,646.1L474.5,642.7L472.5,640.7L471.1,636.1L468.3,631.8L466.2,619.8L465.4,617.5L462.8,612.6L462.6,611.2L462.2,601.0L461.3,598.6L457.1,595.9L444.3,588.3Z " data-id="NE.MA" data-name="Maradi" id="NE.MA"/>
utf-8utf-8<path d="M752.1,438.2L730.7,446.8L705.1,466.4L686.5,472.6L583.6,547.4L561.4,556.9L535.5,572.9L523.9,577.5L520.1,577.9L506.0,578.0L501.0,580.9L490.2,581.0L464.6,576.7L462.1,579.8L457.1,595.9L461.3,598.6L462.2,601.0L462.6,611.2L462.8,612.6L465.4,617.5L466.2,619.8L468.3,631.8L471.1,636.1L472.5,640.7L474.5,642.7L480.0,646.1L481.7,648.5L482.1,657.5L483.4,660.2L486.6,661.9L489.5,661.4L495.3,655.6L501.7,655.2L503.8,658.9L505.4,660.6L512.0,664.7L514.0,665.0L522.6,671.6L525.1,677.8L533.1,684.0L534.5,687.5L535.6,695.6L535.2,700.3L534.5,701.0L516.3,711.3L515.0,715.8L521.6,721.6L520.1,729.4L521.7,739.6L521.4,742.1L517.3,750.5L518.1,751.0L520.6,753.9L527.0,760.4L534.1,760.4L538.5,763.6L542.7,770.0L545.1,771.5L561.9,777.1L582.8,779.8L585.2,779.8L589.7,778.6L603.3,780.4L606.5,778.9L617.8,763.8L619.9,761.5L622.9,759.8L623.7,756.5L624.8,755.3L636.8,747.7L639.5,746.5L670.4,739.0L668.1,730.3L668.7,727.4L679.6,714.6L680.4,712.6L680.8,707.2L706.3,680.6L709.3,679.8L711.9,681.4L714.0,681.6L725.6,677.6L741.4,666.0L742.9,665.4L748.2,665.7L749.9,665.1L754.1,661.8L749.7,656.5L750.2,652.0L755.5,648.8L752.1,438.2Z " data-id="NE.ZI" data-name="Zinder" id="NE.ZI"/>
utf-8utf-8<path d="M261.9,645.2L260.7,653.9L258.8,656.2L256.0,657.7L255.4,660.0L253.5,661.6L248.6,664.2L243.0,665.4L234.3,673.8L231.8,678.5L229.6,689.6L227.9,692.8L216.2,705.1L214.1,706.4L203.5,711.5L201.8,711.3L195.2,708.2L192.7,708.6L190.7,712.8L189.4,720.1L187.0,721.6L182.5,721.5L181.0,722.9L179.7,726.3L175.1,728.3L173.7,733.8L174.4,736.8L173.8,741.0L171.3,746.4L170.0,746.7L166.8,745.5L163.8,746.0L157.9,751.1L156.2,751.7L151.0,751.9L148.9,756.0L152.8,765.8L163.0,767.1L164.8,768.0L164.8,770.2L163.7,771.0L157.0,778.1L158.3,784.5L157.9,791.3L159.0,801.2L161.9,801.6L163.0,799.5L164.5,799.2L165.4,804.8L166.1,806.5L172.6,809.7L175.6,812.8L178.1,815.2L178.5,816.9L180.5,818.2L182.6,818.5L186.6,824.7L197.6,835.9L199.9,841.9L201.3,844.7L204.5,847.3L206.2,846.2L214.8,851.1L218.0,855.5L220.8,860.9L224.8,857.8L224.2,853.5L221.6,849.8L221.2,845.6L224.4,839.7L224.1,837.2L222.5,831.9L222.5,828.7L224.2,819.2L223.5,801.0L223.7,800.3L237.7,788.5L241.8,784.1L251.9,766.2L254.1,748.9L254.1,731.5L261.9,729.9L271.9,719.2L274.9,716.9L278.4,715.3L285.9,713.3L282.2,700.5L276.1,689.5L275.8,688.6L273.1,664.0L272.5,661.1L267.6,650.1L266.2,648.2L261.9,645.2Z " data-id="NE.DS" data-name="Dosso" id="NE.DS"/>
utf-8utf-8<path d="M123.0,720.3L120.5,720.3L118.3,721.3L116.8,727.4L121.4,734.5L127.9,736.1L129.9,735.9L131.2,739.3L134.8,734.4L135.5,731.3L136.1,724.2L132.9,723.1L133.0,720.9L126.1,721.1L123.0,720.3Z " data-id="NE.NI" data-name="Niamey" id="NE.NI"/>
utf-8utf-8<path d="M411.5,547.4L412.5,533.4L411.4,532.8L400.2,529.2L395.8,525.5L393.8,521.7L379.6,484.7L373.6,477.2L359.3,465.3L325.2,441.8L322.4,439.2L314.0,426.6L302.9,416.5L301.5,414.4L300.1,407.1L298.8,405.7L292.1,405.2L289.0,402.2L291.0,396.1L290.5,386.0L290.9,384.6L290.7,376.2L298.9,357.2L292.9,355.2L258.8,354.8L258.8,363.6L259.8,474.9L259.0,475.6L257.7,485.6L256.5,488.5L256.8,517.1L256.3,518.8L252.6,521.3L249.0,525.7L243.4,541.2L243.4,545.2L244.2,548.6L240.5,552.7L239.1,555.7L238.1,565.6L237.3,567.8L237.8,568.8L252.3,613.7L252.1,623.9L252.8,628.5L261.9,645.2L266.2,648.2L267.6,650.1L272.5,661.1L273.1,664.0L275.8,688.6L276.1,689.5L282.2,700.5L285.9,713.3L298.6,709.8L300.7,709.6L305.0,712.5L308.7,712.8L315.2,711.5L324.3,711.9L329.2,709.6L333.6,703.6L343.0,701.8L345.1,702.3L381.3,718.3L383.4,719.1L388.3,716.5L391.8,717.3L391.6,712.0L392.9,708.4L394.9,706.1L394.8,698.7L402.6,691.7L404.7,691.2L406.7,688.8L407.2,681.0L405.9,672.3L403.9,667.0L403.4,662.9L406.9,628.6L406.9,625.8L415.6,589.1L411.5,547.4Z " data-id="NE.TH" data-name="Tahoua" id="NE.TH"/>
utf-8</g>
</svg>
