<?xml version="1.0" ?>
<!DOCTYPE svg
  PUBLIC '-//W3C//DTD SVG 1.1//EN'
  'http://www.w3.org/Graphics/SVG/1.1/DTD/svg11.dtd'>
<svg enable_background="new 0 0 1000 914" height="914px" pretty_print="True" style="stroke-linejoin: round; stroke:#000; fill: none;" version="1.1" viewBox="0 0 1000 914" width="1000px" xmlns="http://www.w3.org/2000/svg" xmlns:xlink="http://www.w3.org/1999/xlink">
utf-8<defs>
utf-8utf-8<style type="text/css">
<![CDATA[path { fill-rule: evenodd; }]]>utf-8utf-8</style>
utf-8</defs>
utf-8<metadata>
utf-8utf-8<views>
utf-8utf-8utf-8<view h="914.25958112" padding="0" w="1000">
utf-8utf-8utf-8utf-8<proj flip="auto" id="robinson" lon0="13.456882886"/>
utf-8utf-8utf-8utf-8<bbox h="161.11" w="176.42" x="39.45" y="-232.75"/>
utf-8utf-8utf-8</view>
utf-8utf-8</views>
utf-8</metadata>
utf-8<g class="" id="provinces">
utf-8utf-8<path d="M808.2,76.1L806.4,94.5L808.0,100.5L811.7,105.1L816.3,108.8L817.1,114.7L815.0,120.4L811.4,126.1L802.4,135.8L804.3,150.1L800.8,182.0L802.9,191.5L802.5,195.6L797.6,206.8L797.2,210.5L799.4,211.3L802.2,210.8L805.6,212.1L808.0,215.2L809.6,218.5L810.0,222.0L801.7,233.7L798.3,240.7L796.1,243.4L794.4,246.5L794.0,254.5L794.5,262.5L792.0,269.0L786.9,273.4L767.3,281.2L762.6,287.0L761.5,294.6L762.1,302.5L761.3,305.8L759.3,308.7L756.8,311.0L753.6,312.0L754.7,320.3L748.6,331.5L748.5,335.7L750.2,339.8L752.9,343.4L756.1,345.9L759.7,347.5L762.8,349.8L768.5,360.0L774.5,364.2L787.9,365.0L798.5,356.6L807.0,344.0L811.7,339.5L817.8,337.9L824.5,337.1L830.5,334.1L832.8,331.2L834.3,327.8L836.3,326.1L839.4,325.9L844.3,320.9L848.7,314.9L855.6,313.2L862.8,314.3L868.5,317.1L873.2,321.7L878.0,325.2L883.7,326.6L887.9,324.0L890.8,311.3L895.2,298.6L896.3,292.0L896.2,285.5L896.9,280.1L899.7,279.7L904.5,281.9L907.2,282.3L919.3,279.3L924.2,278.9L924.8,277.4L924.2,273.8L926.7,269.0L929.9,266.9L934.2,257.7L936.9,253.7L940.0,250.1L943.2,247.2L945.8,247.2L949.1,248.3L954.9,251.1L956.7,251.4L961.8,248.6L964.0,245.9L967.9,244.8L975.3,237.1L976.8,236.1L981.7,234.4L988.2,229.0L993.9,226.3L994.9,224.6L996.6,218.0L996.6,215.6L995.1,212.1L989.5,206.9L989.4,206.1L992.7,200.7L993.3,199.1L995.0,189.5L995.9,186.5L996.0,181.6L994.3,177.5L994.2,175.6L995.4,173.5L996.8,166.7L999.5,162.6L997.9,160.1L995.0,161.5L990.9,156.9L989.2,155.6L986.2,150.2L986.6,148.8L984.0,146.5L978.7,145.0L961.5,144.4L959.1,143.4L958.3,141.9L958.7,136.1L957.9,126.7L947.9,76.2L909.0,16.7L888.4,15.8L885.1,16.9L885.2,18.5L883.9,19.5L879.7,24.8L880.0,27.2L877.8,28.7L879.1,29.4L877.6,31.5L871.2,34.0L871.4,31.5L870.6,31.3L867.6,33.1L866.0,33.2L865.5,31.3L861.1,32.4L853.7,36.6L851.4,37.1L849.0,36.5L848.7,38.0L845.6,37.1L848.0,39.8L846.9,40.8L844.4,45.0L843.6,44.9L842.7,48.2L839.5,48.9L837.4,51.8L833.2,54.0L830.6,56.4L828.2,54.1L826.2,57.5L825.9,57.0L822.5,60.5L820.7,65.2L822.0,65.8L821.1,68.9L817.9,70.3L816.5,76.9L815.4,77.5L810.5,76.2L808.2,76.1Z " data-id="NG.BO" data-name="Borno" id="NG.BO"/>
utf-8utf-8<path d="M402.4,746.1L398.3,746.3L394.4,747.0L394.1,746.7L393.6,746.2L388.0,749.6L384.1,755.2L385.9,756.9L390.1,759.4L392.5,760.0L395.7,763.2L396.8,773.8L396.0,778.2L395.3,779.5L396.8,783.8L397.2,791.6L396.6,793.8L393.7,800.6L390.5,804.7L384.5,824.7L386.2,828.2L385.7,832.8L377.2,847.8L378.3,855.1L381.7,856.3L388.6,854.7L391.9,854.7L395.1,856.1L399.5,856.2L405.1,860.5L404.5,856.6L402.6,852.8L403.4,849.5L402.3,844.9L404.1,841.5L406.8,838.4L407.3,834.1L406.8,829.7L407.1,825.6L408.3,819.7L407.2,816.1L407.4,814.2L411.1,813.0L415.4,813.7L417.8,811.9L418.3,810.1L417.5,808.3L415.4,807.6L415.5,806.3L417.5,801.1L417.0,794.6L419.2,792.8L422.4,793.4L426.5,796.7L429.4,801.7L434.1,804.6L438.5,808.5L442.5,809.3L443.5,806.0L439.4,797.2L437.5,787.2L438.2,781.9L436.8,777.6L433.7,776.3L430.9,774.0L429.6,771.1L428.9,767.8L424.4,765.4L412.3,765.2L407.3,762.4L408.0,756.3L407.9,750.8L402.4,746.1Z " data-id="NG.AB" data-name="Abia" id="NG.AB"/>
utf-8utf-8<path d="M434.1,804.6L429.4,801.7L426.5,796.7L422.4,793.4L419.2,792.8L417.0,794.6L417.5,801.1L415.5,806.3L415.4,807.6L417.5,808.3L418.3,810.1L417.8,811.9L415.4,813.7L411.1,813.0L407.4,814.2L407.2,816.1L408.3,819.7L407.1,825.6L406.8,829.7L407.3,834.1L406.8,838.4L404.1,841.5L402.3,844.9L403.4,849.5L402.6,852.8L404.5,856.6L405.1,860.5L406.1,862.9L407.6,865.5L408.4,869.1L408.3,871.4L408.3,871.4L409.7,870.6L408.2,875.0L408.0,877.4L409.2,879.1L410.4,888.2L417.8,888.8L420.1,890.4L425.2,890.7L427.0,890.2L424.8,888.5L427.7,888.8L442.0,886.9L447.3,886.7L450.1,885.0L455.2,885.6L462.3,885.6L467.1,886.2L472.4,885.6L473.5,882.7L477.2,878.7L477.0,876.5L474.4,874.9L474.1,873.5L475.2,870.0L474.1,868.4L472.9,864.3L472.4,863.8L468.2,860.9L458.3,849.3L455.3,844.5L453.0,839.8L451.8,834.5L452.4,822.9L451.0,821.1L447.3,818.4L445.1,817.8L440.2,818.7L436.2,811.5L438.5,808.5L434.1,804.6Z " data-id="NG.AK" data-name="Akwa Ibom" id="NG.AK"/>
utf-8utf-8<path d="M390.5,804.7L393.7,800.6L396.6,793.8L397.2,791.6L396.8,783.8L395.3,779.5L396.0,778.2L396.8,773.8L395.7,763.2L392.5,760.0L390.1,759.4L385.9,756.9L384.1,755.2L380.7,756.0L377.2,757.3L369.7,755.5L365.8,756.0L362.0,757.0L358.9,759.2L357.8,763.2L354.5,770.8L351.2,771.9L347.6,770.1L341.1,772.2L335.5,777.2L334.6,780.5L332.0,795.5L332.6,797.6L335.6,797.8L338.6,797.0L342.1,801.1L341.4,807.8L340.2,810.9L340.3,814.2L343.7,818.2L352.6,824.6L364.4,825.6L374.9,824.4L379.3,825.8L382.0,825.5L384.5,824.7L390.5,804.7Z " data-id="NG.IM" data-name="Imo" id="NG.IM"/>
utf-8utf-8<path d="M401.5,893.0L397.5,890.8L393.5,892.2L392.4,895.7L393.6,896.4L399.8,896.8L411.4,894.5L412.6,892.1L411.7,891.8L401.5,893.0Z M385.3,890.9L382.8,887.5L378.7,895.4L376.0,898.6L375.2,900.4L376.0,901.5L378.9,901.8L386.3,900.1L389.4,897.8L390.4,891.0L386.6,891.4L385.3,890.9Z M335.5,777.2L332.8,777.0L330.3,774.5L328.1,785.5L326.5,789.8L325.4,795.6L324.8,796.7L319.5,801.7L320.9,805.8L328.7,806.6L331.6,810.8L330.0,813.4L328.4,813.8L327.4,816.4L324.6,820.3L320.7,823.9L319.6,827.0L319.1,831.3L318.4,833.3L316.9,834.2L315.5,839.4L315.5,841.4L317.3,845.3L313.0,853.4L312.1,856.6L312.1,860.5L314.0,863.4L317.1,865.3L316.7,867.1L317.6,870.0L320.2,869.7L327.1,866.8L332.3,870.5L333.0,873.9L334.3,877.0L336.7,879.0L339.4,880.4L340.4,882.0L341.5,880.4L339.4,895.1L340.2,895.8L339.8,904.4L341.7,905.6L350.8,905.1L352.8,903.8L350.0,900.8L350.2,898.6L348.2,894.3L346.5,885.0L349.0,881.0L347.4,878.0L344.5,875.1L343.1,866.5L340.7,863.6L339.7,858.9L342.6,858.9L343.8,861.5L345.8,861.3L344.1,865.0L345.6,873.2L347.1,876.4L350.9,879.8L348.6,884.8L349.7,892.0L351.0,894.5L352.4,895.3L351.8,896.9L353.6,901.2L355.5,900.4L359.2,901.9L364.2,902.5L365.0,902.1L364.6,898.8L361.6,892.1L361.4,889.9L362.2,883.3L358.2,880.7L355.8,876.0L355.2,873.2L358.6,877.9L362.7,880.4L360.8,874.7L360.0,870.2L360.4,868.7L362.3,872.4L363.9,870.0L365.7,877.8L364.7,882.3L363.8,883.0L365.6,887.2L366.3,894.4L370.2,896.0L369.3,894.6L369.1,891.3L370.2,890.2L370.4,893.4L371.5,894.5L373.1,893.3L374.8,894.1L376.2,893.4L378.6,890.5L379.1,888.8L376.0,884.9L378.1,883.7L377.8,880.6L375.9,877.3L371.0,873.9L370.1,870.6L368.6,869.7L369.6,866.1L372.5,872.9L374.0,874.3L376.8,875.2L378.0,874.6L379.5,880.0L384.9,886.6L387.2,890.2L390.9,889.5L391.1,887.2L388.8,886.7L386.3,884.9L387.1,881.0L388.6,880.9L392.6,883.0L396.9,883.6L399.8,885.4L401.6,885.6L402.4,883.6L404.7,884.3L406.4,883.0L407.8,880.2L406.9,873.5L407.8,871.8L408.3,871.4L408.4,869.1L407.6,865.5L406.1,862.9L405.1,860.5L399.5,856.2L395.1,856.1L391.9,854.7L388.6,854.7L381.7,856.3L378.3,855.1L377.2,847.8L385.7,832.8L386.2,828.2L384.5,824.7L382.0,825.5L379.3,825.8L374.9,824.4L364.4,825.6L352.6,824.6L343.7,818.2L340.3,814.2L340.2,810.9L341.4,807.8L342.1,801.1L338.6,797.0L335.6,797.8L332.6,797.6L332.0,795.5L334.6,780.5L335.5,777.2Z " data-id="NG.RI" data-name="Rivers" id="NG.RI"/>
utf-8utf-8<path d="M340.4,882.0L339.4,880.4L336.7,879.0L334.3,877.0L333.0,873.9L332.3,870.5L327.1,866.8L320.2,869.7L317.6,870.0L316.7,867.1L317.1,865.3L314.0,863.4L312.1,860.5L312.1,856.6L313.0,853.4L317.3,845.3L315.5,841.4L315.5,839.4L316.9,834.2L318.4,833.3L319.1,831.3L319.6,827.0L320.7,823.9L324.6,820.3L327.4,816.4L328.4,813.8L330.0,813.4L331.6,810.8L328.7,806.6L320.9,805.8L321.1,807.9L319.8,808.8L308.9,810.6L307.6,811.1L303.8,818.1L298.8,818.5L297.2,819.2L297.3,825.7L283.9,833.2L278.2,830.9L275.3,828.0L274.2,828.6L271.5,833.0L269.2,834.4L265.1,834.6L260.4,836.5L254.5,840.6L249.7,840.5L243.8,836.4L240.0,835.0L234.5,830.5L234.5,830.5L235.8,834.2L233.2,831.1L229.7,829.6L228.6,832.7L232.2,842.1L232.9,846.6L235.3,853.9L238.0,857.3L238.7,859.6L236.7,858.8L240.2,866.3L243.9,868.8L243.9,870.6L242.7,870.0L243.5,874.0L245.9,877.7L253.7,885.9L258.9,892.1L262.2,893.5L261.6,894.8L265.0,897.0L268.6,896.6L267.8,899.0L268.8,901.3L275.4,906.3L276.7,906.4L277.3,903.8L276.1,900.5L278.8,900.2L280.2,904.0L279.6,907.8L282.2,908.4L285.1,910.1L285.3,908.0L283.8,904.4L284.5,898.2L287.3,899.1L287.0,903.1L288.7,902.5L287.3,906.1L287.2,910.7L289.3,912.3L290.5,911.0L292.6,911.6L295.7,911.4L298.5,909.6L296.2,909.6L296.2,908.3L297.9,907.0L299.2,901.3L296.8,896.0L298.3,896.4L300.8,899.2L300.1,897.5L299.6,890.8L300.2,890.8L301.5,895.4L301.9,900.5L307.7,896.6L302.3,903.6L300.6,907.7L302.6,910.3L304.2,909.6L308.1,909.5L314.7,907.5L314.0,905.7L316.3,905.1L318.6,906.9L323.4,907.4L327.6,906.3L327.8,903.1L328.9,899.5L329.2,895.6L328.3,892.3L326.0,890.2L328.5,889.9L329.8,892.3L330.3,903.1L331.7,906.7L338.1,905.1L338.1,904.0L335.2,895.3L334.6,889.5L336.3,887.5L336.8,888.7L337.3,895.8L338.1,897.9L338.7,894.1L338.1,890.9L338.6,886.6L339.9,882.6L340.4,882.0Z " data-id="NG.BY" data-name="Bayelsa" id="NG.BY"/>
utf-8utf-8<path d="M527.9,553.0L524.9,553.8L515.7,553.5L509.6,552.0L492.7,545.6L481.7,547.1L477.0,551.5L475.7,558.2L477.7,565.0L481.7,574.8L482.2,578.1L481.2,579.7L478.6,578.6L476.5,576.8L472.6,574.4L470.7,572.0L462.9,570.0L456.1,566.5L449.1,565.1L443.5,561.7L440.6,560.8L434.7,560.0L427.8,557.7L422.4,557.1L418.2,555.9L417.7,561.3L418.0,566.3L419.0,571.1L421.5,575.3L424.0,578.1L425.7,581.5L426.0,584.9L425.9,595.9L427.2,607.2L428.2,610.9L430.9,612.6L434.1,612.1L436.2,613.7L433.6,619.8L433.4,622.9L432.0,630.5L428.5,637.0L417.4,643.8L416.1,647.6L415.9,651.9L413.6,652.7L410.9,651.3L407.3,648.0L404.1,646.2L405.0,650.0L408.2,657.6L410.6,660.8L413.4,663.8L416.5,666.4L419.7,668.1L423.1,667.6L425.5,665.5L428.5,664.7L432.0,666.6L434.1,670.3L435.1,674.9L435.1,679.5L432.2,688.4L435.0,694.9L440.8,698.9L444.4,693.3L445.2,685.3L446.5,682.1L453.4,681.6L456.6,680.7L459.7,676.0L463.5,675.6L466.5,673.2L467.4,674.8L469.1,681.6L471.1,684.1L473.8,683.8L476.3,682.2L478.6,679.5L481.0,677.4L487.7,678.0L491.4,677.9L494.9,676.9L497.7,675.2L499.1,672.5L498.3,668.9L499.4,665.9L504.8,663.5L510.5,664.1L516.6,666.5L526.6,673.2L528.7,678.1L527.9,683.8L529.6,685.3L531.8,685.9L536.6,685.8L549.8,683.0L557.2,687.2L567.3,700.5L571.3,708.5L574.7,707.1L577.7,704.7L579.6,700.5L580.9,699.3L583.3,698.7L584.4,698.7L586.3,689.5L587.2,673.5L586.9,667.5L589.5,651.0L592.0,645.5L595.4,640.7L599.6,637.3L603.3,633.4L603.8,622.2L607.0,610.9L603.2,599.9L594.6,591.2L587.1,580.7L577.5,573.3L564.8,571.6L551.9,572.0L548.6,572.8L543.0,575.6L540.3,576.3L539.3,574.2L543.9,566.4L527.9,553.0Z " data-id="NG.BE" data-name="Benue" id="NG.BE"/>
utf-8utf-8<path d="M471.1,684.1L472.3,689.3L475.5,693.4L478.4,696.2L480.1,699.0L481.4,704.6L483.2,707.1L483.5,710.1L478.3,713.4L477.7,716.6L479.3,719.4L478.6,725.8L473.9,731.2L470.4,736.9L468.9,744.0L467.5,746.5L465.1,745.3L462.9,745.3L460.5,749.2L456.6,751.2L455.1,752.9L453.0,753.0L451.3,748.7L448.2,747.7L444.8,748.9L443.8,751.3L445.2,754.3L444.2,758.5L441.2,763.6L440.1,764.9L440.3,769.4L437.1,775.2L436.8,777.6L438.2,781.9L437.5,787.2L439.4,797.2L443.5,806.0L442.5,809.3L438.5,808.5L436.2,811.5L440.2,818.7L445.1,817.8L447.3,818.4L451.0,821.1L452.4,822.9L451.8,834.5L453.0,839.8L455.3,844.5L458.3,849.3L468.2,860.9L472.4,863.8L472.0,863.5L471.2,862.9L468.8,858.9L470.2,857.8L469.9,855.6L466.5,849.5L461.9,844.5L461.9,844.0L467.3,848.4L468.2,850.4L473.1,855.3L473.4,857.6L475.1,858.7L475.1,860.2L477.3,862.4L479.7,862.5L481.6,860.9L481.6,867.0L487.9,867.1L486.6,870.5L490.8,871.3L492.1,865.2L494.9,859.9L496.9,860.2L498.6,859.1L497.7,854.4L500.7,851.1L501.2,849.3L505.7,841.5L509.9,831.4L513.5,829.2L514.1,828.0L516.3,815.1L515.4,810.5L518.3,802.1L517.8,796.4L518.3,794.4L522.4,788.9L522.7,786.7L521.9,784.1L516.7,778.8L515.6,776.4L519.2,771.7L519.5,769.3L517.7,764.2L518.6,762.7L521.6,760.4L524.1,757.3L529.2,758.1L529.5,756.9L542.0,739.4L553.4,729.0L555.5,725.6L557.9,719.9L560.2,717.7L563.5,717.6L565.9,716.0L568.4,710.4L570.8,708.7L571.3,708.5L567.3,700.5L557.2,687.2L549.8,683.0L536.6,685.8L531.8,685.9L529.6,685.3L527.9,683.8L528.7,678.1L526.6,673.2L516.6,666.5L510.5,664.1L504.8,663.5L499.4,665.9L498.3,668.9L499.1,672.5L497.7,675.2L494.9,676.9L491.4,677.9L487.7,678.0L481.0,677.4L478.6,679.5L476.3,682.2L473.8,683.8L471.1,684.1Z " data-id="NG.CR" data-name="Cross River" id="NG.CR"/>
utf-8utf-8<path d="M695.8,407.7L690.0,406.1L684.5,407.2L674.2,412.6L663.7,413.0L659.2,416.2L661.0,420.8L661.7,425.8L661.1,431.9L662.0,439.0L662.8,441.8L664.1,444.4L666.6,453.4L666.1,459.1L667.2,465.0L667.3,468.6L664.5,474.7L651.3,482.1L632.0,487.4L628.0,492.8L626.1,496.2L621.8,502.2L619.5,504.5L613.5,508.2L608.0,512.7L603.2,518.2L597.8,522.9L591.8,524.8L585.5,525.3L581.0,525.0L578.7,529.1L575.3,531.5L573.0,531.7L565.7,530.0L559.6,527.2L557.6,528.2L555.0,535.7L559.5,542.0L559.8,546.9L560.6,552.8L558.9,554.5L546.8,563.7L543.9,566.4L539.3,574.2L540.3,576.3L543.0,575.6L548.6,572.8L551.9,572.0L564.8,571.6L577.5,573.3L587.1,580.7L594.6,591.2L603.2,599.9L607.0,610.9L603.8,622.2L603.3,633.4L599.6,637.3L595.4,640.7L592.0,645.5L589.5,651.0L586.9,667.5L587.2,673.5L586.3,689.5L584.4,698.7L587.3,698.7L594.7,674.7L596.3,672.7L601.5,674.3L603.5,673.4L623.8,653.8L625.8,652.5L627.7,654.3L628.9,661.3L631.5,664.7L633.9,665.5L655.4,665.2L656.5,660.3L658.8,657.8L659.3,650.5L662.2,640.8L663.8,643.1L664.2,647.7L673.8,653.4L680.7,656.4L683.5,658.5L684.9,662.2L685.7,666.6L687.4,670.7L690.0,673.7L697.9,675.4L700.7,677.9L702.4,681.7L702.8,693.7L704.3,701.0L705.9,705.6L707.3,707.0L709.6,707.4L721.8,706.1L723.6,706.6L728.8,704.9L730.4,703.2L731.4,697.1L732.6,693.9L734.8,691.9L738.1,691.5L740.4,690.1L742.3,687.0L744.7,680.6L745.5,675.5L745.0,673.7L742.6,670.0L743.1,667.4L744.6,665.0L749.7,659.7L757.6,653.8L759.5,653.5L761.6,650.1L765.1,646.4L767.2,645.4L769.6,646.1L771.2,643.6L770.1,641.2L766.8,637.2L762.6,630.4L759.0,628.3L762.8,624.3L767.9,615.6L772.8,610.2L771.7,605.3L769.6,600.3L768.5,593.9L768.5,587.6L764.4,576.7L756.2,568.0L754.1,565.2L751.1,563.7L748.5,565.0L742.8,572.6L740.1,572.3L737.8,569.7L734.4,562.9L730.7,552.8L731.4,549.8L736.0,543.7L741.4,538.2L762.8,509.0L768.4,503.8L769.1,500.7L768.7,497.2L769.3,490.6L777.5,471.1L776.9,464.5L773.4,459.6L768.1,456.8L765.2,451.2L765.5,444.6L764.6,441.7L763.1,438.9L760.1,432.0L755.3,427.1L749.7,425.6L747.6,423.5L739.8,407.2L710.5,408.5L701.6,407.7L695.8,407.7Z " data-id="NG.TA" data-name="Taraba" id="NG.TA"/>
utf-8utf-8<path d="M292.0,490.0L286.3,486.3L277.2,486.4L272.5,488.2L266.5,487.8L262.1,487.9L257.4,481.3L254.2,480.2L249.3,480.1L248.0,479.6L244.4,474.6L242.6,472.8L237.6,469.4L232.9,468.4L228.5,464.4L221.7,464.5L211.5,461.8L210.3,456.4L206.3,451.6L201.9,449.2L197.5,445.8L193.2,444.4L187.8,446.4L184.0,448.7L180.7,449.9L178.1,450.1L175.8,449.2L174.2,447.4L174.4,439.2L173.4,437.3L164.2,433.9L163.5,432.5L162.6,423.3L155.3,422.1L149.2,423.0L146.4,417.7L146.5,410.6L147.3,403.0L145.9,396.6L143.1,396.5L140.5,394.5L112.3,357.2L109.9,355.0L104.2,354.1L90.9,354.6L83.1,356.2L83.1,356.7L82.3,358.8L78.8,361.7L78.2,363.3L77.7,371.4L76.9,373.3L74.2,376.9L72.0,381.4L70.5,383.0L65.5,382.4L62.3,383.3L56.3,386.1L54.2,389.1L56.0,399.0L55.4,401.5L52.7,403.2L48.3,403.2L47.6,405.5L48.1,407.9L43.0,415.4L40.4,417.0L38.8,419.9L38.5,422.6L40.4,429.8L40.4,436.0L38.2,441.6L35.5,451.4L34.2,454.3L32.1,455.9L25.5,457.6L22.9,456.0L18.5,456.2L16.1,458.4L8.6,457.9L8.8,460.5L8.7,466.5L7.0,477.4L7.1,482.0L5.2,483.3L4.7,485.1L6.4,508.2L11.3,503.5L14.6,503.6L21.2,501.9L29.3,494.0L31.2,493.2L38.2,486.5L43.2,484.5L44.6,484.8L47.2,487.5L48.3,487.3L58.1,482.3L61.9,479.1L65.2,477.2L68.8,474.2L86.0,464.4L89.5,460.8L90.3,454.7L92.4,450.0L96.2,447.0L100.2,446.5L104.0,448.5L106.4,451.9L108.3,456.1L111.5,459.2L115.2,461.4L125.1,465.3L131.3,466.9L133.6,466.9L137.7,464.1L139.1,467.7L136.2,472.3L133.5,474.1L128.2,480.9L127.2,486.7L128.3,492.5L135.7,511.0L138.7,516.1L141.6,528.8L144.7,533.7L148.8,537.3L151.8,542.9L154.3,551.8L155.3,553.8L156.7,554.1L158.1,555.1L163.5,554.8L168.9,555.4L183.5,552.1L186.8,550.6L190.3,550.7L192.1,553.9L194.6,555.8L199.4,555.1L200.6,555.4L201.6,556.1L202.0,557.7L203.7,558.5L209.0,556.8L214.5,560.6L219.9,561.4L223.4,560.8L225.9,558.5L226.3,555.5L228.1,553.1L231.1,552.0L240.1,551.7L239.4,546.0L233.8,542.1L230.4,538.6L226.9,533.8L224.4,528.4L225.0,525.3L234.5,511.8L238.2,507.9L241.5,509.4L245.8,514.1L254.2,517.7L262.4,519.8L274.0,520.5L283.2,522.8L286.0,522.2L287.7,519.9L288.5,517.1L289.8,507.3L293.1,494.1L296.7,489.0L292.0,490.0Z " data-id="NG.KW" data-name="Kwara" id="NG.KW"/>
utf-8utf-8<path d="M3.5,707.4L22.2,711.3L35.2,712.0L46.2,710.5L55.6,711.0L60.5,710.4L60.9,708.3L59.2,705.5L60.5,703.7L62.2,699.5L61.6,696.6L64.2,695.2L66.1,693.0L68.4,692.4L69.1,697.6L74.4,697.5L77.4,695.7L79.7,695.6L83.8,694.1L88.3,691.1L93.0,689.1L100.0,691.0L93.1,692.2L91.6,694.7L86.9,698.2L85.7,697.8L76.0,699.8L76.0,702.8L74.9,704.2L72.2,705.3L68.1,705.0L65.1,708.0L64.1,704.7L60.5,706.0L65.4,709.2L101.1,707.2L122.5,709.2L140.6,713.0L140.6,713.0L140.8,707.6L138.5,706.7L133.7,706.5L131.8,707.0L129.2,704.8L124.9,702.8L124.8,700.4L129.6,697.4L130.3,695.4L129.5,693.4L127.1,692.5L124.4,693.1L119.3,696.5L116.9,694.3L116.0,690.8L116.7,688.5L118.7,686.7L119.6,684.2L114.6,682.7L65.7,683.0L63.7,686.8L59.1,687.0L57.2,684.2L51.4,681.3L48.8,682.4L47.0,688.7L44.5,692.2L43.6,696.8L42.4,698.4L37.5,699.2L19.2,698.3L16.8,702.2L14.5,703.9L10.3,703.2L4.2,703.2L3.5,707.4Z " data-id="NG.LA" data-name="Lagos" id="NG.LA"/>
utf-8utf-8<path d="M277.3,261.1L274.4,261.2L270.2,266.5L268.1,268.4L262.3,269.5L247.9,276.4L242.4,277.5L234.0,277.5L231.8,276.7L230.7,273.3L230.6,269.6L231.0,262.3L229.7,259.1L227.0,257.2L224.0,251.2L222.9,244.1L217.9,240.8L211.8,240.6L187.2,246.2L175.8,251.9L174.4,257.9L179.7,262.4L185.8,265.2L194.7,267.1L195.4,268.7L198.8,270.3L200.6,276.9L200.8,280.7L196.8,286.4L200.3,291.2L202.1,297.4L199.9,299.4L194.0,301.3L188.4,304.3L182.6,303.4L180.0,304.5L178.6,310.8L179.0,317.9L178.7,321.2L179.2,324.4L183.1,330.2L185.7,336.6L183.6,342.9L181.2,344.8L178.4,345.9L168.7,348.2L165.8,349.3L164.9,352.6L164.9,356.4L163.9,359.0L158.2,358.6L156.1,356.6L157.4,349.6L157.9,342.7L153.9,338.7L152.6,335.4L152.3,331.8L152.8,324.7L155.9,318.6L165.6,312.5L165.7,310.8L167.8,308.4L168.6,301.9L171.3,284.9L171.1,282.6L165.7,280.7L155.6,273.3L147.2,270.8L138.5,272.2L115.7,272.9L111.3,272.3L101.9,267.5L94.5,262.3L86.9,261.3L86.3,262.0L86.9,262.1L87.6,262.8L87.1,270.4L90.4,282.3L90.3,285.1L88.5,290.1L88.8,292.9L90.9,295.2L92.9,300.3L96.2,301.6L96.9,303.5L97.4,311.5L96.8,314.0L93.9,321.3L93.9,326.2L92.0,329.7L90.7,329.9L85.4,326.8L82.0,327.0L80.4,328.9L75.4,341.3L76.7,345.2L83.3,354.5L83.1,356.2L90.9,354.6L104.2,354.1L109.9,355.0L112.3,357.2L140.5,394.5L143.1,396.5L145.9,396.6L147.3,403.0L146.5,410.6L146.4,417.7L149.2,423.0L155.3,422.1L162.6,423.3L163.5,432.5L164.2,433.9L173.4,437.3L174.4,439.2L174.2,447.4L175.8,449.2L178.1,450.1L180.7,449.9L184.0,448.7L187.8,446.4L193.2,444.4L197.5,445.8L201.9,449.2L206.3,451.6L210.3,456.4L211.5,461.8L221.7,464.5L228.5,464.4L232.9,468.4L237.6,469.4L242.6,472.8L244.4,474.6L248.0,479.6L249.3,480.1L254.2,480.2L257.4,481.3L262.1,487.9L266.5,487.8L272.5,488.2L277.2,486.4L286.3,486.3L292.0,490.0L296.7,489.0L300.3,488.2L305.5,491.3L307.2,491.6L309.6,493.7L311.7,497.6L313.9,503.9L315.7,512.9L317.6,517.3L326.6,524.7L330.8,531.9L336.6,538.7L338.0,537.0L340.5,531.2L341.7,531.9L341.9,528.3L345.0,526.1L347.4,523.4L348.5,519.7L344.7,519.2L342.1,513.5L341.1,445.7L341.4,443.1L343.4,442.0L358.9,441.3L363.9,443.1L371.8,451.6L376.2,453.9L387.9,435.1L385.9,434.6L383.8,435.3L383.2,433.8L384.3,429.6L380.1,423.8L380.8,420.3L385.4,416.6L386.1,412.8L390.0,407.7L389.5,404.7L386.9,403.2L385.8,400.9L386.4,398.2L384.6,396.5L381.6,395.6L379.9,393.0L381.7,391.4L384.3,391.2L386.4,389.2L386.6,385.7L384.9,370.5L380.9,367.4L368.5,367.6L362.3,366.8L356.3,363.9L352.5,358.4L354.5,355.8L357.2,353.8L359.5,350.7L364.9,346.3L366.9,343.3L367.1,340.0L364.6,338.2L358.6,335.7L356.8,333.6L357.9,330.2L357.7,322.6L353.1,318.2L350.2,319.2L348.8,318.8L348.2,311.1L347.5,309.3L344.9,308.1L341.9,307.9L339.2,309.2L339.6,312.9L337.8,314.4L334.6,313.8L331.4,314.5L325.3,317.7L322.7,317.1L321.6,314.2L319.4,312.5L313.5,314.0L303.6,322.5L299.2,327.8L297.5,331.0L295.3,333.7L292.5,334.1L291.0,330.9L288.9,328.0L286.2,325.8L285.7,322.6L286.9,314.6L288.0,311.4L288.3,307.0L286.9,302.2L286.8,299.8L287.2,291.9L287.9,289.5L289.6,287.4L291.2,286.5L289.9,280.2L283.5,268.1L279.9,262.9L277.3,261.1Z " data-id="NG.NI" data-name="Niger" id="NG.NI"/>
utf-8utf-8<path d="M115.8,643.1L113.3,643.3L110.6,644.3L108.3,646.0L103.1,647.6L92.8,649.0L87.8,648.8L90.0,644.4L93.1,639.6L90.8,627.6L85.9,624.1L85.7,617.2L82.9,612.6L74.5,612.3L69.6,615.1L67.1,613.5L65.7,608.9L62.6,606.3L59.1,608.9L55.7,618.3L52.4,621.6L47.7,621.8L43.1,620.0L37.3,614.0L33.5,606.3L30.7,602.3L27.2,599.0L25.6,594.1L25.5,592.1L28.6,582.5L28.0,574.1L24.9,574.2L23.7,578.4L22.8,583.2L20.5,582.8L19.0,577.7L18.6,567.1L16.5,562.6L8.4,562.3L0.6,568.4L0.6,568.8L2.3,572.7L5.3,577.9L4.3,593.8L4.7,597.6L6.4,601.1L8.9,604.4L10.7,607.9L10.0,613.5L8.2,613.0L6.5,614.5L8.3,637.9L6.0,644.1L6.4,645.4L9.8,649.3L9.4,650.4L6.5,651.8L4.4,655.2L4.6,658.6L5.8,662.3L6.2,666.2L5.5,674.1L9.3,676.5L9.7,681.9L6.7,685.2L5.7,687.3L6.4,693.2L6.3,695.2L4.5,701.3L4.2,703.2L10.3,703.2L14.5,703.9L16.8,702.2L19.2,698.3L37.5,699.2L42.4,698.4L43.6,696.8L44.5,692.2L47.0,688.7L48.8,682.4L51.4,681.3L57.2,684.2L59.1,687.0L63.7,686.8L65.7,683.0L114.6,682.7L119.6,684.2L118.7,686.7L116.7,688.5L116.0,690.8L116.9,694.3L119.3,696.5L124.4,693.1L127.1,692.5L129.5,693.4L130.3,695.4L129.6,697.4L124.8,700.4L124.9,702.8L129.2,704.8L131.8,707.0L133.7,706.5L138.5,706.7L140.8,707.6L140.6,713.0L145.9,714.1L153.3,717.8L158.4,718.1L159.7,716.3L159.6,713.8L154.9,711.5L152.4,711.5L151.0,709.6L155.0,708.6L159.3,705.1L161.8,702.1L161.0,697.7L161.0,690.9L159.4,688.5L157.3,689.6L156.0,691.8L152.4,694.3L144.0,692.9L141.6,689.6L141.7,686.7L143.7,680.4L147.8,675.4L155.3,669.2L156.9,666.8L158.8,654.4L157.5,652.6L151.2,654.1L147.6,653.4L144.7,655.2L142.3,655.1L140.9,649.7L139.8,647.4L137.1,644.7L133.2,644.9L130.0,647.2L126.6,647.7L126.0,643.4L124.2,639.4L118.3,642.6L115.8,643.1Z " data-id="NG.OG" data-name="Ogun" id="NG.OG"/>
utf-8utf-8<path d="M276.1,592.4L271.9,585.1L272.5,581.4L269.9,580.1L263.2,581.5L261.7,584.2L259.6,585.1L257.3,583.9L255.2,585.3L253.3,588.6L251.1,590.0L247.5,594.4L246.4,597.2L245.0,606.2L240.4,618.3L231.6,626.7L226.9,624.6L225.1,618.0L223.1,613.4L218.8,611.9L212.9,612.3L203.7,611.6L200.6,611.7L194.7,613.9L194.7,617.7L190.6,618.9L186.9,621.1L185.5,625.5L184.8,630.0L184.8,637.2L184.6,643.9L183.7,644.7L173.1,639.3L169.8,640.4L166.2,643.6L162.0,652.5L158.8,654.4L156.9,666.8L155.3,669.2L147.8,675.4L143.7,680.4L141.7,686.7L141.6,689.6L144.0,692.9L152.4,694.3L156.0,691.8L157.3,689.6L159.4,688.5L161.0,690.9L161.0,697.7L161.8,702.1L159.3,705.1L155.0,708.6L151.0,709.6L152.4,711.5L154.9,711.5L159.6,713.8L159.7,716.3L158.4,718.1L153.3,717.8L153.3,717.8L157.8,720.8L163.0,726.2L172.0,732.7L174.6,735.0L177.5,738.5L181.2,744.2L184.5,745.8L186.2,747.6L196.0,762.0L196.0,762.0L196.1,761.9L205.4,736.2L205.4,733.2L203.8,730.5L199.9,727.5L194.4,722.1L194.0,721.2L195.2,718.7L195.6,715.9L196.7,713.9L200.7,711.9L202.4,706.8L203.8,704.4L205.7,699.4L204.3,694.4L201.7,690.6L202.3,683.2L205.8,677.6L208.8,674.4L211.2,669.8L211.2,667.4L213.6,665.4L237.0,665.4L240.9,668.8L238.6,673.9L240.9,680.1L242.7,679.8L246.8,676.1L249.2,676.3L250.3,677.4L253.0,678.0L254.4,677.5L256.9,673.3L257.9,667.2L258.6,664.8L260.5,664.3L260.1,657.1L260.2,653.8L261.3,650.3L265.1,643.8L268.9,633.8L268.8,631.6L270.6,629.3L275.1,624.9L275.9,621.8L274.8,615.4L275.7,613.3L275.3,611.7L272.8,609.8L273.6,606.5L279.9,601.7L281.4,598.8L276.1,592.4Z " data-id="NG.ON" data-name="Ondo" id="NG.ON"/>
utf-8utf-8<path d="M259.4,580.2L250.3,575.3L247.5,572.5L246.3,568.4L246.9,564.4L249.3,561.0L251.2,559.7L251.3,557.6L245.4,556.7L242.4,557.5L240.1,559.0L238.5,558.4L238.4,554.4L240.1,551.7L231.1,552.0L228.1,553.1L226.3,555.5L225.9,558.5L223.4,560.8L219.9,561.4L214.5,560.6L209.0,556.8L203.7,558.5L202.0,557.7L201.6,556.1L200.6,555.4L198.7,563.1L196.2,565.7L193.0,567.4L189.1,573.2L188.5,584.6L187.6,588.8L188.0,593.7L194.7,613.9L200.6,611.7L203.7,611.6L212.9,612.3L218.8,611.9L223.1,613.4L225.1,618.0L226.9,624.6L231.6,626.7L240.4,618.3L245.0,606.2L246.4,597.2L247.5,594.4L251.1,590.0L253.3,588.6L255.2,585.3L257.3,583.9L259.6,585.1L261.7,584.2L263.2,581.5L259.4,580.2Z " data-id="NG.EK" data-name="Ekiti" id="NG.EK"/>
utf-8utf-8<path d="M199.4,555.1L194.6,555.8L192.1,553.9L190.3,550.7L186.8,550.6L183.5,552.1L168.9,555.4L163.5,554.8L158.1,555.1L158.7,558.3L158.6,561.5L157.4,563.3L155.6,563.7L151.1,566.7L145.1,572.5L141.7,571.7L138.6,566.1L136.3,563.8L133.7,562.7L128.7,568.9L128.8,571.0L124.6,574.5L118.9,572.8L117.5,577.1L116.1,588.8L114.7,591.1L114.6,593.9L116.3,596.1L118.6,597.7L123.5,605.6L123.9,608.2L118.3,642.6L124.2,639.4L126.0,643.4L126.6,647.7L130.0,647.2L133.2,644.9L137.1,644.7L139.8,647.4L140.9,649.7L142.3,655.1L144.7,655.2L147.6,653.4L151.2,654.1L157.5,652.6L158.8,654.4L162.0,652.5L166.2,643.6L169.8,640.4L173.1,639.3L183.7,644.7L184.6,643.9L184.8,637.2L184.8,630.0L185.5,625.5L186.9,621.1L190.6,618.9L194.7,617.7L194.7,613.9L188.0,593.7L187.6,588.8L188.5,584.6L189.1,573.2L193.0,567.4L196.2,565.7L198.7,563.1L200.6,555.4L199.4,555.1Z " data-id="NG.OS" data-name="Osun" id="NG.OS"/>
utf-8utf-8<path d="M156.7,554.1L155.3,553.8L154.3,551.8L151.8,542.9L148.8,537.3L144.7,533.7L141.6,528.8L138.7,516.1L135.7,511.0L128.3,492.5L127.2,486.7L128.2,480.9L133.5,474.1L136.2,472.3L139.1,467.7L137.7,464.1L133.6,466.9L131.3,466.9L125.1,465.3L115.2,461.4L111.5,459.2L108.3,456.1L106.4,451.9L104.0,448.5L100.2,446.5L96.2,447.0L92.4,450.0L90.3,454.7L89.5,460.8L86.0,464.4L68.8,474.2L65.2,477.2L61.9,479.1L58.1,482.3L48.3,487.3L47.2,487.5L44.6,484.8L43.2,484.5L38.2,486.5L31.2,493.2L29.3,494.0L21.2,501.9L14.6,503.6L11.3,503.5L6.4,508.2L6.6,511.0L3.4,522.1L2.8,526.0L3.6,532.2L5.8,540.3L3.6,545.2L3.2,552.6L2.2,558.6L1.9,564.6L0.5,568.0L0.6,568.4L8.4,562.3L16.5,562.6L18.6,567.1L19.0,577.7L20.5,582.8L22.8,583.2L23.7,578.4L24.9,574.2L28.0,574.1L28.6,582.5L25.5,592.1L25.6,594.1L27.2,599.0L30.7,602.3L33.5,606.3L37.3,614.0L43.1,620.0L47.7,621.8L52.4,621.6L55.7,618.3L59.1,608.9L62.6,606.3L65.7,608.9L67.1,613.5L69.6,615.1L74.5,612.3L82.9,612.6L85.7,617.2L85.9,624.1L90.8,627.6L93.1,639.6L90.0,644.4L87.8,648.8L92.8,649.0L103.1,647.6L108.3,646.0L110.6,644.3L113.3,643.3L115.8,643.1L118.3,642.6L123.9,608.2L123.5,605.6L118.6,597.7L116.3,596.1L114.6,593.9L114.7,591.1L116.1,588.8L117.5,577.1L118.9,572.8L124.6,574.5L128.8,571.0L128.7,568.9L133.7,562.7L136.3,563.8L138.6,566.1L141.7,571.7L145.1,572.5L151.1,566.7L155.6,563.7L157.4,563.3L158.6,561.5L158.7,558.3L158.1,555.1L156.7,554.1Z " data-id="NG.OY" data-name="Oyo" id="NG.OY"/>
utf-8utf-8<path d="M392.8,746.0L392.4,745.0L385.4,744.2L383.5,741.9L380.2,733.6L380.7,730.3L378.7,728.6L378.3,726.3L376.9,725.3L374.4,726.7L373.8,725.6L374.2,720.9L375.1,718.8L371.9,711.1L370.2,708.4L364.9,706.4L364.1,704.0L366.4,696.9L371.0,691.2L371.4,684.8L366.1,682.9L361.3,680.6L356.8,680.8L355.7,680.2L355.8,677.2L355.1,674.5L349.4,680.6L347.4,685.1L345.6,694.4L342.9,697.5L336.7,697.2L336.0,697.4L336.0,700.4L336.3,703.2L338.7,712.5L339.2,717.7L340.7,722.4L343.1,732.3L342.5,737.8L338.4,741.0L338.0,743.1L338.3,748.1L336.9,757.2L333.5,762.2L330.6,770.4L330.3,774.5L332.8,777.0L335.5,777.2L341.1,772.2L347.6,770.1L351.2,771.9L354.5,770.8L357.8,763.2L358.9,759.2L362.0,757.0L365.8,756.0L369.7,755.5L377.2,757.3L380.7,756.0L384.1,755.2L388.0,749.6L393.6,746.2L392.8,746.0Z " data-id="NG.AN" data-name="Anambra" id="NG.AN"/>
utf-8utf-8<path d="M691.6,244.8L689.4,241.6L692.1,226.9L691.6,218.9L681.3,191.2L678.6,176.0L678.5,169.4L677.9,165.3L674.5,158.6L673.9,151.4L672.5,143.9L671.4,140.3L666.6,135.2L660.8,130.8L649.9,139.0L645.5,137.8L642.9,135.9L636.7,137.1L634.1,138.2L632.2,140.3L630.3,148.6L624.5,167.5L624.0,170.6L624.8,174.5L623.4,177.7L598.1,188.6L592.6,192.0L585.6,192.7L581.2,197.2L579.5,204.2L583.1,206.9L588.1,205.3L591.1,204.9L594.0,205.6L595.3,208.8L596.6,215.6L596.8,218.8L594.0,224.6L593.7,227.7L595.4,230.3L599.5,229.8L603.1,236.6L611.2,248.6L617.3,251.3L630.6,254.1L637.7,254.4L643.7,256.6L643.4,259.7L641.4,262.3L638.5,264.3L629.3,268.3L627.7,274.7L628.6,278.2L626.4,279.8L620.2,276.8L607.0,277.9L602.3,275.7L600.3,270.4L601.0,264.3L600.9,258.2L599.0,252.4L595.3,248.7L590.5,250.0L579.8,250.9L575.5,249.2L572.2,244.5L567.0,245.4L561.7,245.1L556.5,242.6L551.5,241.1L546.4,241.0L540.1,243.9L535.9,242.5L530.4,245.4L521.9,255.3L518.7,260.8L516.4,263.6L513.5,265.1L508.5,265.4L506.0,271.4L505.5,278.6L505.8,286.5L508.2,293.7L512.1,298.8L512.7,305.4L510.4,311.6L506.6,316.3L505.8,322.5L503.0,328.2L504.1,330.7L506.7,332.2L508.6,334.2L510.4,336.6L515.2,335.6L520.1,337.1L523.1,341.2L524.8,346.4L525.3,351.1L525.3,366.2L528.4,368.5L538.0,366.6L543.4,368.8L545.2,375.3L545.6,383.1L545.0,385.9L542.5,391.2L542.1,394.2L544.1,396.4L547.1,397.5L550.9,402.4L553.8,408.1L559.0,410.0L570.8,412.4L584.0,411.7L587.3,410.9L590.3,409.5L592.7,403.7L594.8,401.6L600.3,399.2L601.0,396.1L599.9,392.8L596.6,387.6L601.5,383.9L642.6,405.3L656.6,415.0L659.2,416.2L663.7,413.0L674.2,412.6L684.5,407.2L690.0,406.1L695.8,407.7L701.6,407.7L702.1,405.4L700.2,402.8L697.8,397.3L696.4,391.4L695.8,385.3L693.2,379.1L675.9,364.7L672.4,359.2L672.9,356.1L682.3,350.6L682.2,345.0L682.2,331.8L680.5,326.1L675.1,322.4L669.1,319.2L668.1,311.7L665.5,305.2L656.5,300.9L656.7,298.2L661.0,291.3L662.2,287.8L665.0,276.6L667.5,269.5L669.9,267.2L676.3,265.0L679.0,262.6L682.9,256.5L690.7,251.4L694.0,246.9L695.7,245.5L691.6,244.8Z " data-id="NG.BA" data-name="Bauchi" id="NG.BA"/>
utf-8utf-8<path d="M750.4,312.4L744.6,311.7L743.8,308.9L743.2,302.1L744.0,280.3L743.5,277.1L741.7,274.5L732.9,264.6L728.7,258.5L724.1,253.0L718.7,248.3L707.2,242.1L695.7,245.5L694.0,246.9L690.7,251.4L682.9,256.5L679.0,262.6L676.3,265.0L669.9,267.2L667.5,269.5L665.0,276.6L662.2,287.8L661.0,291.3L656.7,298.2L656.5,300.9L665.5,305.2L668.1,311.7L669.1,319.2L675.1,322.4L680.5,326.1L682.2,331.8L682.2,345.0L682.3,350.6L672.9,356.1L672.4,359.2L675.9,364.7L693.2,379.1L695.8,385.3L696.4,391.4L697.8,397.3L700.2,402.8L702.1,405.4L701.6,407.7L710.5,408.5L739.8,407.2L747.4,405.8L754.5,402.2L769.9,391.8L773.0,388.9L774.2,385.0L773.7,372.4L774.5,364.2L768.5,360.0L762.8,349.8L759.7,347.5L756.1,345.9L752.9,343.4L750.2,339.8L748.5,335.7L748.6,331.5L754.7,320.3L753.6,312.0L750.4,312.4Z " data-id="NG.GO" data-name="Gombe" id="NG.GO"/>
utf-8utf-8<path d="M330.6,770.4L333.5,762.2L336.9,757.2L338.3,748.1L338.0,743.1L338.4,741.0L342.5,737.8L343.1,732.3L340.7,722.4L339.2,717.7L338.7,712.5L336.3,703.2L336.0,700.4L336.0,697.4L333.4,701.0L331.0,701.9L328.0,701.3L325.0,701.4L320.0,703.8L309.8,710.7L301.9,714.4L299.7,716.0L296.2,721.0L293.9,720.9L292.2,717.8L290.1,715.3L287.2,715.0L285.3,717.1L284.1,719.8L283.8,723.1L286.5,728.5L286.8,731.7L287.8,735.4L290.4,740.2L295.4,745.4L298.1,746.9L298.1,750.6L297.1,754.2L293.7,758.7L289.0,762.7L285.6,767.3L281.3,770.8L273.1,772.8L270.2,772.3L270.4,769.7L268.7,766.6L270.5,763.3L270.8,759.8L265.6,756.0L261.1,750.4L251.3,744.4L246.1,744.6L241.5,747.9L241.0,749.2L237.8,749.1L234.5,746.4L231.4,746.2L228.9,746.6L223.5,746.3L222.6,748.6L223.1,751.8L218.3,756.5L216.8,757.2L215.1,755.7L214.4,750.8L215.2,744.5L211.2,739.4L205.4,736.2L196.1,761.9L196.0,762.0L196.0,762.0L196.4,762.5L199.6,770.3L200.4,770.4L212.2,761.1L215.5,760.0L218.3,757.1L220.1,756.7L218.2,760.4L211.3,763.2L208.7,765.8L208.7,769.2L205.4,767.1L204.4,767.8L202.9,773.7L203.2,775.9L208.0,785.4L210.9,787.8L219.3,784.5L221.3,781.4L223.6,774.4L224.0,777.5L222.5,782.7L224.7,786.7L226.1,786.8L229.9,784.7L233.3,780.8L237.9,784.5L237.1,788.0L236.2,784.7L232.7,783.6L231.6,784.1L228.7,789.9L226.4,788.8L223.3,788.2L215.1,787.8L211.9,790.6L212.4,795.5L216.8,799.6L217.9,801.7L227.4,805.3L232.2,805.6L230.9,802.2L235.1,804.4L238.5,800.4L238.0,797.9L239.2,795.8L241.2,794.7L243.1,795.2L244.3,793.8L245.8,794.3L249.4,791.9L246.3,795.8L243.5,795.7L241.1,796.8L240.6,797.9L240.8,802.3L243.6,805.7L240.2,806.5L237.3,807.8L235.1,810.8L233.9,808.1L232.4,808.7L226.8,808.8L224.8,809.2L224.4,810.5L226.2,819.0L226.5,823.4L227.4,828.1L230.6,828.3L234.6,825.7L236.9,828.5L234.0,829.0L234.5,830.5L240.0,835.0L243.8,836.4L249.7,840.5L254.5,840.6L260.4,836.5L265.1,834.6L269.2,834.4L271.5,833.0L274.2,828.6L275.3,828.0L278.2,830.9L283.9,833.2L297.3,825.7L297.2,819.2L298.8,818.5L303.8,818.1L307.6,811.1L308.9,810.6L319.8,808.8L321.1,807.9L320.9,805.8L319.5,801.7L324.8,796.7L325.4,795.6L326.5,789.8L328.1,785.5L330.3,774.5L330.6,770.4Z " data-id="NG.DE" data-name="Delta" id="NG.DE"/>
utf-8utf-8<path d="M336.0,696.1L334.1,689.3L333.7,685.2L334.1,673.1L334.5,662.8L336.7,657.5L338.0,644.4L339.3,639.1L337.4,632.3L334.1,630.8L333.9,629.2L331.7,626.8L329.4,627.0L326.1,628.6L321.9,629.5L319.3,624.2L317.4,618.9L315.3,616.8L313.5,616.5L310.4,617.4L308.4,617.3L306.0,614.3L301.1,609.3L299.5,609.7L294.0,612.7L290.1,612.7L288.1,609.5L289.0,605.3L288.3,603.2L285.6,602.2L285.9,600.3L284.5,599.3L282.8,599.7L281.4,598.8L279.9,601.7L273.6,606.5L272.8,609.8L275.3,611.7L275.7,613.3L274.8,615.4L275.9,621.8L275.1,624.9L270.6,629.3L268.8,631.6L268.9,633.8L265.1,643.8L261.3,650.3L260.2,653.8L260.1,657.1L260.5,664.3L258.6,664.8L257.9,667.2L256.9,673.3L254.4,677.5L253.0,678.0L250.3,677.4L249.2,676.3L246.8,676.1L242.7,679.8L240.9,680.1L238.6,673.9L240.9,668.8L237.0,665.4L213.6,665.4L211.2,667.4L211.2,669.8L208.8,674.4L205.8,677.6L202.3,683.2L201.7,690.6L204.3,694.4L205.7,699.4L203.8,704.4L202.4,706.8L200.7,711.9L196.7,713.9L195.6,715.9L195.2,718.7L194.0,721.2L194.4,722.1L199.9,727.5L203.8,730.5L205.4,733.2L205.4,736.2L211.2,739.4L215.2,744.5L214.4,750.8L215.1,755.7L216.8,757.2L218.3,756.5L223.1,751.8L222.6,748.6L223.5,746.3L228.9,746.6L231.4,746.2L234.5,746.4L237.8,749.1L241.0,749.2L241.5,747.9L246.1,744.6L251.3,744.4L261.1,750.4L265.6,756.0L270.8,759.8L270.5,763.3L268.7,766.6L270.4,769.7L270.2,772.3L273.1,772.8L281.3,770.8L285.6,767.3L289.0,762.7L293.7,758.7L297.1,754.2L298.1,750.6L298.1,746.9L295.4,745.4L290.4,740.2L287.8,735.4L286.8,731.7L286.5,728.5L283.8,723.1L284.1,719.8L285.3,717.1L287.2,715.0L290.1,715.3L292.2,717.8L293.9,720.9L296.2,721.0L299.7,716.0L301.9,714.4L309.8,710.7L320.0,703.8L325.0,701.4L328.0,701.3L331.0,701.9L333.4,701.0L336.0,697.4L336.0,696.1Z " data-id="NG.ED" data-name="Edo" id="NG.ED"/>
utf-8utf-8<path d="M401.3,643.3L397.3,643.0L394.2,644.8L391.5,647.2L388.9,648.2L387.4,649.8L382.6,656.9L378.5,661.2L371.5,666.7L368.4,671.1L364.7,674.3L362.6,673.2L360.1,667.5L357.3,669.5L355.1,674.5L355.8,677.2L355.7,680.2L356.8,680.8L361.3,680.6L366.1,682.9L371.4,684.8L371.0,691.2L366.4,696.9L364.1,704.0L364.9,706.4L370.2,708.4L371.9,711.1L375.1,718.8L374.2,720.9L373.8,725.6L374.4,726.7L376.9,725.3L378.3,726.3L378.7,728.6L380.7,730.3L380.2,733.6L383.5,741.9L385.4,744.2L392.4,745.0L392.8,746.0L393.6,746.2L394.1,746.7L394.4,747.0L398.3,746.3L402.4,746.1L407.9,750.8L412.0,749.3L419.0,755.0L421.2,753.7L420.3,748.8L420.8,744.0L424.5,738.6L423.5,729.9L420.9,722.1L424.5,709.5L424.5,702.7L421.2,690.6L423.9,688.7L426.7,689.0L432.2,688.4L435.1,679.5L435.1,674.9L434.1,670.3L432.0,666.6L428.5,664.7L425.5,665.5L423.1,667.6L419.7,668.1L416.5,666.4L413.4,663.8L410.6,660.8L408.2,657.6L405.0,650.0L404.1,646.2L401.3,643.3Z " data-id="NG.EN" data-name="Enugu" id="NG.EN"/>
utf-8utf-8<path d="M469.1,681.6L467.4,674.8L466.5,673.2L463.5,675.6L459.7,676.0L456.6,680.7L453.4,681.6L446.5,682.1L445.2,685.3L444.4,693.3L440.8,698.9L435.0,694.9L432.2,688.4L426.7,689.0L423.9,688.7L421.2,690.6L424.5,702.7L424.5,709.5L420.9,722.1L423.5,729.9L424.5,738.6L420.8,744.0L420.3,748.8L421.2,753.7L419.0,755.0L412.0,749.3L407.9,750.8L408.0,756.3L407.3,762.4L412.3,765.2L424.4,765.4L428.9,767.8L429.6,771.1L430.9,774.0L433.7,776.3L436.8,777.6L437.1,775.2L440.3,769.4L440.1,764.9L441.2,763.6L444.2,758.5L445.2,754.3L443.8,751.3L444.8,748.9L448.2,747.7L451.3,748.7L453.0,753.0L455.1,752.9L456.6,751.2L460.5,749.2L462.9,745.3L465.1,745.3L467.5,746.5L468.9,744.0L470.4,736.9L473.9,731.2L478.6,725.8L479.3,719.4L477.7,716.6L478.3,713.4L483.5,710.1L483.2,707.1L481.4,704.6L480.1,699.0L478.4,696.2L475.5,693.4L472.3,689.3L471.1,684.1L469.1,681.6Z " data-id="NG.EB" data-name="Ebonyi" id="NG.EB"/>
utf-8utf-8<path d="M504.9,316.7L499.8,314.9L496.1,309.9L489.4,309.0L484.8,304.7L486.5,302.1L490.1,301.1L491.2,297.5L489.9,286.2L491.4,278.9L489.7,265.7L481.1,255.5L474.7,253.6L468.9,251.1L466.8,247.9L464.1,245.5L458.2,243.2L455.5,241.2L453.8,238.1L454.1,234.7L455.7,231.6L455.8,228.0L452.8,226.4L441.1,230.6L431.4,238.8L425.6,239.4L422.8,244.3L416.0,247.4L413.6,246.2L412.0,243.7L409.1,241.4L405.9,239.8L399.8,238.5L394.6,241.9L393.2,244.9L392.8,248.3L390.5,249.7L387.5,248.6L381.1,248.5L379.8,253.5L381.2,256.0L381.3,258.7L379.3,261.2L376.6,262.8L373.8,262.4L369.4,257.3L366.5,255.4L360.4,253.6L360.3,250.9L364.1,245.2L363.1,243.0L361.3,241.5L356.9,241.4L354.9,240.8L351.0,238.7L349.7,241.6L348.0,243.4L342.2,247.5L340.5,249.9L339.6,252.8L338.0,261.3L337.2,263.4L333.4,267.2L326.4,270.3L317.2,272.6L308.0,269.9L306.2,269.7L301.1,276.8L297.4,278.9L296.3,283.8L295.1,285.1L291.2,286.5L289.6,287.4L287.9,289.5L287.2,291.9L286.8,299.8L286.9,302.2L288.3,307.0L288.0,311.4L286.9,314.6L285.7,322.6L286.2,325.8L288.9,328.0L291.0,330.9L292.5,334.1L295.3,333.7L297.5,331.0L299.2,327.8L303.6,322.5L313.5,314.0L319.4,312.5L321.6,314.2L322.7,317.1L325.3,317.7L331.4,314.5L334.6,313.8L337.8,314.4L339.6,312.9L339.2,309.2L341.9,307.9L344.9,308.1L347.5,309.3L348.2,311.1L348.8,318.8L350.2,319.2L353.1,318.2L357.7,322.6L357.9,330.2L356.8,333.6L358.6,335.7L364.6,338.2L367.1,340.0L366.9,343.3L364.9,346.3L359.5,350.7L357.2,353.8L354.5,355.8L352.5,358.4L356.3,363.9L362.3,366.8L368.5,367.6L380.9,367.4L384.9,370.5L386.6,385.7L386.4,389.2L384.3,391.2L381.7,391.4L379.9,393.0L381.6,395.6L384.6,396.5L386.4,398.2L385.8,400.9L386.9,403.2L389.5,404.7L390.0,407.7L386.1,412.8L385.4,416.6L380.8,420.3L380.1,423.8L384.3,429.6L383.2,433.8L383.8,435.3L385.9,434.6L387.9,435.1L395.8,434.2L402.6,435.6L404.4,434.1L407.0,430.0L410.0,431.3L411.6,434.5L414.2,433.9L416.5,432.6L417.8,435.1L419.8,436.3L422.5,436.1L424.5,437.9L430.2,439.6L433.0,438.1L436.2,431.4L441.3,430.5L444.1,433.4L444.8,437.9L447.5,440.4L450.8,442.6L451.8,453.7L454.0,462.9L460.6,458.8L465.3,451.2L467.6,448.8L470.3,450.0L477.8,452.3L481.2,457.2L486.0,463.4L489.3,463.0L492.8,458.9L495.5,453.7L497.6,448.0L500.6,443.9L502.3,438.5L502.7,432.7L499.5,427.6L495.5,423.0L492.1,417.4L492.0,403.8L494.3,401.9L494.5,398.6L498.0,393.2L497.2,390.0L497.7,386.3L497.6,379.1L500.8,366.6L498.6,359.4L500.1,352.4L504.2,347.1L507.3,345.5L509.3,342.5L509.6,339.3L510.4,336.6L508.6,334.2L506.7,332.2L504.1,330.7L503.0,328.2L505.8,322.5L506.6,316.3L504.9,316.7Z " data-id="NG.KD" data-name="Kaduna" id="NG.KD"/>
utf-8utf-8<path d="M347.4,523.4L345.0,526.1L341.9,528.3L341.7,531.9L340.5,531.2L338.0,537.0L336.6,538.7L330.8,531.9L326.6,524.7L317.6,517.3L315.7,512.9L313.9,503.9L311.7,497.6L309.6,493.7L307.2,491.6L305.5,491.3L300.3,488.2L296.7,489.0L293.1,494.1L289.8,507.3L288.5,517.1L287.7,519.9L286.0,522.2L283.2,522.8L274.0,520.5L262.4,519.8L254.2,517.7L245.8,514.1L241.5,509.4L238.2,507.9L234.5,511.8L225.0,525.3L224.4,528.4L226.9,533.8L230.4,538.6L233.8,542.1L239.4,546.0L240.1,551.7L238.4,554.4L238.5,558.4L240.1,559.0L242.4,557.5L245.4,556.7L251.3,557.6L251.2,559.7L249.3,561.0L246.9,564.4L246.3,568.4L247.5,572.5L250.3,575.3L259.4,580.2L263.2,581.5L269.9,580.1L272.5,581.4L271.9,585.1L276.1,592.4L281.4,598.8L282.8,599.7L284.5,599.3L285.9,600.3L285.6,602.2L288.3,603.2L289.0,605.3L288.1,609.5L290.1,612.7L294.0,612.7L299.5,609.7L301.1,609.3L306.0,614.3L308.4,617.3L310.4,617.4L313.5,616.5L315.3,616.8L317.4,618.9L319.3,624.2L321.9,629.5L326.1,628.6L329.4,627.0L331.7,626.8L333.9,629.2L334.1,630.8L337.4,632.3L339.3,639.1L338.0,644.4L336.7,657.5L334.5,662.8L334.1,673.1L333.7,685.2L334.1,689.3L336.0,696.1L336.0,697.4L336.7,697.2L342.9,697.5L345.6,694.4L347.4,685.1L349.4,680.6L355.1,674.5L357.3,669.5L360.1,667.5L362.6,673.2L364.7,674.3L368.4,671.1L371.5,666.7L378.5,661.2L382.6,656.9L387.4,649.8L388.9,648.2L391.5,647.2L394.2,644.8L397.3,643.0L401.3,643.3L404.1,646.2L407.3,648.0L410.9,651.3L413.6,652.7L415.9,651.9L416.1,647.6L417.4,643.8L428.5,637.0L432.0,630.5L433.4,622.9L433.6,619.8L436.2,613.7L434.1,612.1L430.9,612.6L428.2,610.9L427.2,607.2L425.9,595.9L426.0,584.9L425.7,581.5L424.0,578.1L421.5,575.3L419.0,571.1L418.0,566.3L417.7,561.3L418.2,555.9L417.1,555.6L415.7,555.5L403.9,556.8L389.2,555.3L386.4,555.6L369.5,562.1L365.2,565.0L362.9,567.5L360.1,569.5L357.4,570.2L357.5,566.3L358.4,562.5L361.0,556.8L362.2,542.9L361.8,536.7L357.7,528.6L359.8,522.4L360.5,519.2L359.7,519.3L356.8,519.9L353.6,519.5L348.5,519.7L347.4,523.4Z " data-id="NG.KO" data-name="Kogi" id="NG.KO"/>
utf-8utf-8<path d="M656.6,415.0L642.6,405.3L601.5,383.9L596.6,387.6L599.9,392.8L601.0,396.1L600.3,399.2L594.8,401.6L592.7,403.7L590.3,409.5L587.3,410.9L584.0,411.7L570.8,412.4L559.0,410.0L553.8,408.1L550.9,402.4L547.1,397.5L544.1,396.4L542.1,394.2L542.5,391.2L545.0,385.9L545.6,383.1L545.2,375.3L543.4,368.8L538.0,366.6L528.4,368.5L525.3,366.2L525.3,351.1L524.8,346.4L523.1,341.2L520.1,337.1L515.2,335.6L510.4,336.6L509.6,339.3L509.3,342.5L507.3,345.5L504.2,347.1L500.1,352.4L498.6,359.4L500.8,366.6L497.6,379.1L497.7,386.3L497.2,390.0L498.0,393.2L494.5,398.6L494.3,401.9L492.0,403.8L492.1,417.4L495.5,423.0L499.5,427.6L502.7,432.7L502.3,438.5L500.6,443.9L505.5,446.6L509.6,450.0L510.9,456.5L515.0,461.1L520.5,462.3L526.2,462.2L531.5,460.5L533.8,462.2L535.3,464.3L534.9,467.1L533.7,470.4L530.2,475.7L528.2,477.9L525.2,479.0L521.1,485.3L519.7,489.2L521.3,493.8L523.4,497.0L524.0,501.0L523.6,505.6L525.4,509.5L532.4,513.6L537.5,515.2L545.4,515.2L553.0,513.7L558.3,511.9L563.5,512.1L573.4,516.8L577.9,520.0L581.0,525.0L585.5,525.3L591.8,524.8L597.8,522.9L603.2,518.2L608.0,512.7L613.5,508.2L619.5,504.5L621.8,502.2L626.1,496.2L628.0,492.8L632.0,487.4L651.3,482.1L664.5,474.7L667.3,468.6L667.2,465.0L666.1,459.1L666.6,453.4L664.1,444.4L662.8,441.8L662.0,439.0L661.1,431.9L661.7,425.8L661.0,420.8L659.2,416.2L656.6,415.0Z " data-id="NG.PL" data-name="Plateau" id="NG.PL"/>
utf-8utf-8<path d="M497.6,448.0L495.5,453.7L492.8,458.9L489.3,463.0L486.0,463.4L481.2,457.2L477.8,452.3L470.3,450.0L467.6,448.8L465.3,451.2L460.6,458.8L454.0,462.9L451.8,453.7L450.8,442.6L447.5,440.4L444.8,437.9L444.1,433.4L441.3,430.5L436.2,431.4L433.0,438.1L430.2,439.6L424.5,437.9L422.5,436.1L419.8,436.3L417.8,435.1L416.5,432.6L414.2,433.9L414.4,435.8L412.2,438.6L410.7,441.7L408.8,451.9L408.6,457.8L409.0,467.1L405.1,486.3L401.6,497.6L398.7,502.9L395.0,507.5L384.3,513.5L372.5,517.1L360.5,519.2L359.8,522.4L357.7,528.6L361.8,536.7L362.2,542.9L361.0,556.8L358.4,562.5L357.5,566.3L357.4,570.2L360.1,569.5L362.9,567.5L365.2,565.0L369.5,562.1L386.4,555.6L389.2,555.3L403.9,556.8L415.7,555.5L417.1,555.6L418.2,555.9L422.4,557.1L427.8,557.7L434.7,560.0L440.6,560.8L443.5,561.7L449.1,565.1L456.1,566.5L462.9,570.0L470.7,572.0L472.6,574.4L476.5,576.8L478.6,578.6L481.2,579.7L482.2,578.1L481.7,574.8L477.7,565.0L475.7,558.2L477.0,551.5L481.7,547.1L492.7,545.6L509.6,552.0L515.7,553.5L524.9,553.8L527.9,553.0L543.9,566.4L546.8,563.7L558.9,554.5L560.6,552.8L559.8,546.9L559.5,542.0L555.0,535.7L557.6,528.2L559.6,527.2L565.7,530.0L573.0,531.7L575.3,531.5L578.7,529.1L581.0,525.0L577.9,520.0L573.4,516.8L563.5,512.1L558.3,511.9L553.0,513.7L545.4,515.2L537.5,515.2L532.4,513.6L525.4,509.5L523.6,505.6L524.0,501.0L523.4,497.0L521.3,493.8L519.7,489.2L521.1,485.3L525.2,479.0L528.2,477.9L530.2,475.7L533.7,470.4L534.9,467.1L535.3,464.3L533.8,462.2L531.5,460.5L526.2,462.2L520.5,462.3L515.0,461.1L510.9,456.5L509.6,450.0L505.5,446.6L500.6,443.9L497.6,448.0Z " data-id="NG.NA" data-name="Nassarawa" id="NG.NA"/>
utf-8utf-8<path d="M659.0,124.6L657.3,111.2L654.7,105.1L652.4,103.2L649.6,103.3L646.5,102.5L643.5,100.9L640.7,100.7L635.3,102.5L631.7,101.8L630.8,99.5L628.6,90.0L626.4,86.3L622.9,85.1L619.2,86.2L611.4,89.7L607.3,90.9L601.6,93.6L600.1,94.8L597.9,99.7L590.6,103.3L580.4,99.7L579.9,100.4L577.4,102.3L575.7,102.4L558.0,100.1L552.0,101.6L549.0,101.6L524.7,98.5L524.2,100.8L522.7,101.5L519.5,107.3L515.8,110.6L511.8,113.0L507.3,114.1L504.0,113.8L501.8,111.1L499.2,112.8L497.3,112.9L493.2,110.6L490.9,106.3L489.4,101.4L487.8,99.7L475.0,100.4L469.5,99.6L463.6,99.8L454.7,101.3L453.6,103.7L452.9,110.1L453.1,116.2L457.5,119.3L464.2,119.4L466.0,121.6L467.0,124.4L471.3,132.8L472.2,137.2L473.7,138.2L476.0,131.7L478.5,127.5L482.7,125.0L487.6,124.0L492.6,124.8L500.0,127.3L500.3,133.4L501.0,136.8L507.3,141.4L508.4,144.0L508.3,147.3L509.0,150.2L513.7,151.9L519.0,152.6L522.5,157.5L522.7,166.2L520.7,170.6L521.9,172.7L525.5,172.9L528.9,172.3L530.3,177.4L535.5,177.4L538.4,175.2L542.3,175.7L544.5,184.0L544.3,187.3L542.3,194.8L539.3,199.8L538.2,205.5L539.6,206.9L546.4,207.6L548.3,213.0L551.8,217.8L556.8,220.8L556.0,222.9L548.7,230.4L547.4,233.0L546.6,239.7L546.4,241.0L551.5,241.1L556.5,242.6L561.7,245.1L567.0,245.4L572.2,244.5L575.5,249.2L579.8,250.9L590.5,250.0L595.3,248.7L599.0,252.4L600.9,258.2L601.0,264.3L600.3,270.4L602.3,275.7L607.0,277.9L620.2,276.8L626.4,279.8L628.6,278.2L627.7,274.7L629.3,268.3L638.5,264.3L641.4,262.3L643.4,259.7L643.7,256.6L637.7,254.4L630.6,254.1L617.3,251.3L611.2,248.6L603.1,236.6L599.5,229.8L595.4,230.3L593.7,227.7L594.0,224.6L596.8,218.8L596.6,215.6L595.3,208.8L594.0,205.6L591.1,204.9L588.1,205.3L583.1,206.9L579.5,204.2L581.2,197.2L585.6,192.7L592.6,192.0L598.1,188.6L623.4,177.7L624.8,174.5L624.0,170.6L624.5,167.5L630.3,148.6L632.2,140.3L634.1,138.2L636.7,137.1L642.9,135.9L645.5,137.8L649.9,139.0L660.8,130.8L659.0,124.6Z " data-id="NG.JI" data-name="Jigawa" id="NG.JI"/>
utf-8utf-8<path d="M546.6,239.7L547.4,233.0L548.7,230.4L556.0,222.9L556.8,220.8L551.8,217.8L548.3,213.0L546.4,207.6L539.6,206.9L538.2,205.5L539.3,199.8L542.3,194.8L544.3,187.3L544.5,184.0L542.3,175.7L538.4,175.2L535.5,177.4L530.3,177.4L528.9,172.3L525.5,172.9L521.9,172.7L520.7,170.6L522.7,166.2L522.5,157.5L519.0,152.6L513.7,151.9L509.0,150.2L508.3,147.3L508.4,144.0L507.3,141.4L501.0,136.8L500.3,133.4L500.0,127.3L492.6,124.8L487.6,124.0L482.7,125.0L478.5,127.5L476.0,131.7L473.7,138.2L472.2,137.2L471.3,132.8L467.0,124.4L462.9,124.5L459.1,125.8L457.1,129.8L454.4,139.0L451.4,142.2L436.8,148.3L430.4,153.3L429.5,157.5L430.4,166.8L430.0,186.7L431.8,192.7L431.7,199.4L434.9,207.9L435.2,211.7L431.5,212.7L426.8,215.3L423.0,216.4L420.4,219.9L419.1,224.5L418.5,229.1L419.8,233.9L425.6,239.4L431.4,238.8L441.1,230.6L452.8,226.4L455.8,228.0L455.7,231.6L454.1,234.7L453.8,238.1L455.5,241.2L458.2,243.2L464.1,245.5L466.8,247.9L468.9,251.1L474.7,253.6L481.1,255.5L489.7,265.7L491.4,278.9L489.9,286.2L491.2,297.5L490.1,301.1L486.5,302.1L484.8,304.7L489.4,309.0L496.1,309.9L499.8,314.9L504.9,316.7L506.6,316.3L510.4,311.6L512.7,305.4L512.1,298.8L508.2,293.7L505.8,286.5L505.5,278.6L506.0,271.4L508.5,265.4L513.5,265.1L516.4,263.6L518.7,260.8L521.9,255.3L530.4,245.4L535.9,242.5L540.1,243.9L546.4,241.0L546.6,239.7Z " data-id="NG.KN" data-name="Kano" id="NG.KN"/>
utf-8utf-8<path d="M365.1,84.0L363.8,94.0L366.7,133.1L368.5,137.9L368.2,143.6L370.5,148.6L371.7,153.4L372.2,158.3L373.6,163.9L373.0,166.4L369.9,174.9L371.6,177.2L374.4,178.7L379.0,182.9L380.0,188.5L377.5,189.5L374.9,188.7L373.4,190.4L373.0,193.5L367.5,198.7L366.2,199.5L364.5,198.2L358.3,198.2L353.4,200.7L350.4,217.7L353.3,223.6L352.8,226.7L353.0,230.1L352.3,234.5L351.0,238.7L354.9,240.8L356.9,241.4L361.3,241.5L363.1,243.0L364.1,245.2L360.3,250.9L360.4,253.6L366.5,255.4L369.4,257.3L373.8,262.4L376.6,262.8L379.3,261.2L381.3,258.7L381.2,256.0L379.8,253.5L381.1,248.5L387.5,248.6L390.5,249.7L392.8,248.3L393.2,244.9L394.6,241.9L399.8,238.5L405.9,239.8L409.1,241.4L412.0,243.7L413.6,246.2L416.0,247.4L422.8,244.3L425.6,239.4L419.8,233.9L418.5,229.1L419.1,224.5L420.4,219.9L423.0,216.4L426.8,215.3L431.5,212.7L435.2,211.7L434.9,207.9L431.7,199.4L431.8,192.7L430.0,186.7L430.4,166.8L429.5,157.5L430.4,153.3L436.8,148.3L451.4,142.2L454.4,139.0L457.1,129.8L459.1,125.8L462.9,124.5L467.0,124.4L466.0,121.6L464.2,119.4L457.5,119.3L453.1,116.2L452.9,110.1L453.6,103.7L454.7,101.3L463.6,99.8L469.5,99.6L475.0,100.4L487.8,99.7L489.4,101.4L490.9,106.3L493.2,110.6L497.3,112.9L499.2,112.8L501.8,111.1L504.0,113.8L507.3,114.1L511.8,113.0L515.8,110.6L519.5,107.3L522.7,101.5L524.2,100.8L524.7,98.5L521.7,98.1L499.7,90.8L496.7,88.9L492.8,82.5L491.2,80.5L487.5,77.4L485.5,76.4L480.2,76.1L476.8,76.9L467.8,68.0L464.6,64.1L459.7,62.1L456.9,59.6L449.3,54.1L428.2,50.8L425.4,51.1L422.5,52.5L392.4,72.9L389.8,73.8L386.9,73.8L378.2,72.0L376.3,72.4L371.3,79.1L367.4,83.0L365.6,84.0L365.1,84.0Z " data-id="NG.KT" data-name="Katsina" id="NG.KT"/>
utf-8utf-8<path d="M120.1,63.6L127.1,63.2L132.6,64.2L135.4,62.6L138.4,61.9L143.5,66.9L148.7,70.3L154.4,72.7L160.3,74.7L163.1,76.8L166.1,78.4L169.2,78.7L171.8,77.0L174.6,72.2L176.8,71.4L178.2,73.5L177.9,76.4L176.7,79.2L174.8,89.1L174.3,92.9L177.1,98.3L179.0,104.2L178.3,111.1L177.2,118.2L179.8,133.4L179.5,140.6L175.8,142.8L170.1,140.7L164.1,142.4L161.1,148.3L161.9,184.8L159.1,199.6L155.4,208.5L154.8,217.5L157.5,221.0L161.2,222.4L164.9,219.8L167.8,215.8L183.6,207.7L190.3,207.8L192.5,210.2L194.3,210.0L195.9,208.9L196.4,164.3L199.4,153.0L211.7,155.2L237.1,154.0L241.3,149.1L240.9,141.7L239.2,134.7L239.7,128.5L243.6,125.5L247.9,119.3L251.0,113.7L255.2,110.0L273.9,108.0L280.0,105.5L282.4,100.4L280.9,84.1L281.8,81.5L287.0,78.1L293.1,77.3L296.3,78.7L298.4,78.1L299.8,69.3L301.0,68.1L304.9,68.1L309.8,69.4L312.5,72.6L320.6,74.8L328.7,74.8L335.1,70.7L339.3,67.0L332.4,53.1L318.7,36.5L307.0,24.1L301.4,20.6L295.4,19.1L293.8,19.5L289.0,22.5L286.3,21.5L239.1,0.7L236.4,0.0L224.1,2.4L221.8,3.7L219.5,8.6L218.3,10.1L212.0,13.2L200.1,12.6L191.6,14.3L186.8,14.0L184.9,13.0L183.0,11.0L181.1,10.1L178.5,10.4L152.0,17.6L147.5,19.6L143.7,22.7L130.6,36.7L125.8,38.5L120.4,38.7L120.4,61.4L120.1,63.6Z " data-id="NG.SO" data-name="Sokoto" id="NG.SO"/>
utf-8utf-8<path d="M363.6,84.3L357.4,84.4L354.7,84.0L352.1,82.9L346.4,77.6L341.4,71.2L339.3,67.0L335.1,70.7L328.7,74.8L320.6,74.8L312.5,72.6L309.8,69.4L304.9,68.1L301.0,68.1L299.8,69.3L298.4,78.1L296.3,78.7L293.1,77.3L287.0,78.1L281.8,81.5L280.9,84.1L282.4,100.4L280.0,105.5L273.9,108.0L255.2,110.0L251.0,113.7L247.9,119.3L243.6,125.5L239.7,128.5L239.2,134.7L240.9,141.7L241.3,149.1L237.1,154.0L211.7,155.2L199.4,153.0L196.4,164.3L195.9,208.9L199.4,208.2L205.9,211.3L213.7,209.0L214.3,206.7L215.8,205.1L221.4,206.1L226.1,205.3L228.1,207.1L229.3,209.9L236.6,213.4L241.5,214.6L254.2,213.6L256.9,212.4L263.1,213.6L266.2,214.8L270.2,219.1L269.8,225.5L267.7,232.7L269.3,235.6L272.6,237.0L279.1,248.4L279.9,262.9L283.5,268.1L289.9,280.2L291.2,286.5L295.1,285.1L296.3,283.8L297.4,278.9L301.1,276.8L306.2,269.7L308.0,269.9L317.2,272.6L326.4,270.3L333.4,267.2L337.2,263.4L338.0,261.3L339.6,252.8L340.5,249.9L342.2,247.5L348.0,243.4L349.7,241.6L351.0,238.7L352.3,234.5L353.0,230.1L352.8,226.7L353.3,223.6L350.4,217.7L353.4,200.7L358.3,198.2L364.5,198.2L366.2,199.5L367.5,198.7L373.0,193.5L373.4,190.4L374.9,188.7L377.5,189.5L380.0,188.5L379.0,182.9L374.4,178.7L371.6,177.2L369.9,174.9L373.0,166.4L373.6,163.9L372.2,158.3L371.7,153.4L370.5,148.6L368.2,143.6L368.5,137.9L366.7,133.1L363.8,94.0L365.1,84.0L363.6,84.3Z " data-id="NG.ZA" data-name="Zamfara" id="NG.ZA"/>
utf-8utf-8<path d="M805.3,76.0L803.1,76.1L801.0,74.3L798.4,75.4L792.7,71.7L785.7,73.8L780.8,72.5L779.1,71.6L775.2,68.2L763.6,60.3L754.3,56.1L729.1,49.0L688.6,49.2L673.4,47.2L665.4,48.0L622.8,58.2L619.3,59.8L603.7,69.7L602.2,71.3L601.2,75.6L597.3,77.8L594.5,80.8L580.4,99.7L590.6,103.3L597.9,99.7L600.1,94.8L601.6,93.6L607.3,90.9L611.4,89.7L619.2,86.2L622.9,85.1L626.4,86.3L628.6,90.0L630.8,99.5L631.7,101.8L635.3,102.5L640.7,100.7L643.5,100.9L646.5,102.5L649.6,103.3L652.4,103.2L654.7,105.1L657.3,111.2L659.0,124.6L660.8,130.8L666.6,135.2L671.4,140.3L672.5,143.9L673.9,151.4L674.5,158.6L677.9,165.3L678.5,169.4L678.6,176.0L681.3,191.2L691.6,218.9L692.1,226.9L689.4,241.6L691.6,244.8L695.7,245.5L707.2,242.1L718.7,248.3L724.1,253.0L728.7,258.5L732.9,264.6L741.7,274.5L743.5,277.1L744.0,280.3L743.2,302.1L743.8,308.9L744.6,311.7L750.4,312.4L753.6,312.0L756.8,311.0L759.3,308.7L761.3,305.8L762.1,302.5L761.5,294.6L762.6,287.0L767.3,281.2L786.9,273.4L792.0,269.0L794.5,262.5L794.0,254.5L794.4,246.5L796.1,243.4L798.3,240.7L801.7,233.7L810.0,222.0L809.6,218.5L808.0,215.2L805.6,212.1L802.2,210.8L799.4,211.3L797.2,210.5L797.6,206.8L802.5,195.6L802.9,191.5L800.8,182.0L804.3,150.1L802.4,135.8L811.4,126.1L815.0,120.4L817.1,114.7L816.3,108.8L811.7,105.1L808.0,100.5L806.4,94.5L808.2,76.1L805.3,76.0Z " data-id="NG.YO" data-name="Yobe" id="NG.YO"/>
utf-8utf-8<path d="M194.3,210.0L192.5,210.2L190.3,207.8L183.6,207.7L167.8,215.8L164.9,219.8L161.2,222.4L157.5,221.0L154.8,217.5L155.4,208.5L159.1,199.6L161.9,184.8L161.1,148.3L164.1,142.4L170.1,140.7L175.8,142.8L179.5,140.6L179.8,133.4L177.2,118.2L178.3,111.1L179.0,104.2L177.1,98.3L174.3,92.9L174.8,89.1L176.7,79.2L177.9,76.4L178.2,73.5L176.8,71.4L174.6,72.2L171.8,77.0L169.2,78.7L166.1,78.4L163.1,76.8L160.3,74.7L154.4,72.7L148.7,70.3L143.5,66.9L138.4,61.9L135.4,62.6L132.6,64.2L127.1,63.2L120.1,63.6L117.6,83.9L104.4,107.3L99.0,113.0L80.8,128.3L80.5,129.3L81.4,153.0L79.2,165.5L79.2,169.6L81.3,176.5L81.7,179.8L80.3,182.9L77.5,187.5L78.0,192.9L81.4,197.7L82.3,203.4L81.3,204.5L77.0,207.4L75.2,209.6L69.4,220.6L66.2,231.5L66.4,233.6L67.6,236.2L82.7,259.9L86.2,262.0L86.3,262.0L86.9,261.3L94.5,262.3L101.9,267.5L111.3,272.3L115.7,272.9L138.5,272.2L147.2,270.8L155.6,273.3L165.7,280.7L171.1,282.6L171.3,284.9L168.6,301.9L167.8,308.4L165.7,310.8L165.6,312.5L155.9,318.6L152.8,324.7L152.3,331.8L152.6,335.4L153.9,338.7L157.9,342.7L157.4,349.6L156.1,356.6L158.2,358.6L163.9,359.0L164.9,356.4L164.9,352.6L165.8,349.3L168.7,348.2L178.4,345.9L181.2,344.8L183.6,342.9L185.7,336.6L183.1,330.2L179.2,324.4L178.7,321.2L179.0,317.9L178.6,310.8L180.0,304.5L182.6,303.4L188.4,304.3L194.0,301.3L199.9,299.4L202.1,297.4L200.3,291.2L196.8,286.4L200.8,280.7L200.6,276.9L198.8,270.3L195.4,268.7L194.7,267.1L185.8,265.2L179.7,262.4L174.4,257.9L175.8,251.9L187.2,246.2L211.8,240.6L217.9,240.8L222.9,244.1L224.0,251.2L227.0,257.2L229.7,259.1L231.0,262.3L230.6,269.6L230.7,273.3L231.8,276.7L234.0,277.5L242.4,277.5L247.9,276.4L262.3,269.5L268.1,268.4L270.2,266.5L274.4,261.2L277.3,261.1L279.9,262.9L279.1,248.4L272.6,237.0L269.3,235.6L267.7,232.7L269.8,225.5L270.2,219.1L266.2,214.8L263.1,213.6L256.9,212.4L254.2,213.6L241.5,214.6L236.6,213.4L229.3,209.9L228.1,207.1L226.1,205.3L221.4,206.1L215.8,205.1L214.3,206.7L213.7,209.0L205.9,211.3L199.4,208.2L195.9,208.9L194.3,210.0Z " data-id="NG.KE" data-name="Kebbi" id="NG.KE"/>
utf-8utf-8<path d="M924.2,278.9L919.3,279.3L907.2,282.3L904.5,281.9L899.7,279.7L896.9,280.1L896.2,285.5L896.3,292.0L895.2,298.6L890.8,311.3L887.9,324.0L883.7,326.6L878.0,325.2L873.2,321.7L868.5,317.1L862.8,314.3L855.6,313.2L848.7,314.9L844.3,320.9L839.4,325.9L836.3,326.1L834.3,327.8L832.8,331.2L830.5,334.1L824.5,337.1L817.8,337.9L811.7,339.5L807.0,344.0L798.5,356.6L787.9,365.0L774.5,364.2L773.7,372.4L774.2,385.0L773.0,388.9L769.9,391.8L754.5,402.2L747.4,405.8L739.8,407.2L747.6,423.5L749.7,425.6L755.3,427.1L760.1,432.0L763.1,438.9L764.6,441.7L765.5,444.6L765.2,451.2L768.1,456.8L773.4,459.6L776.9,464.5L777.5,471.1L769.3,490.6L768.7,497.2L769.1,500.7L768.4,503.8L762.8,509.0L741.4,538.2L736.0,543.7L731.4,549.8L730.7,552.8L734.4,562.9L737.8,569.7L740.1,572.3L742.8,572.6L748.5,565.0L751.1,563.7L754.1,565.2L756.2,568.0L764.4,576.7L768.5,587.6L768.5,593.9L769.6,600.3L771.7,605.3L772.8,610.2L778.0,604.4L782.9,596.6L781.7,591.0L782.3,585.0L785.3,578.8L793.5,565.8L796.6,562.0L797.1,560.7L795.8,553.1L796.2,547.1L799.6,541.6L800.3,537.7L798.9,530.0L798.6,525.7L799.3,521.6L801.1,518.5L803.0,517.7L807.9,518.0L810.7,514.0L814.0,511.2L811.6,501.8L810.9,500.4L820.4,499.1L825.5,501.2L826.8,500.8L835.3,495.7L836.7,493.9L839.3,487.0L840.2,486.5L843.5,486.8L844.6,486.2L846.4,483.4L847.3,479.4L849.0,461.5L848.4,458.0L848.4,454.2L850.1,449.7L853.9,441.8L854.7,434.7L853.2,429.9L851.0,427.5L856.4,424.4L861.5,418.3L867.3,415.5L873.8,414.3L879.3,411.9L881.5,405.1L881.9,399.0L882.9,392.6L884.7,387.2L880.2,378.6L882.8,373.2L881.7,364.1L883.2,360.9L885.9,359.7L892.5,358.9L897.7,355.3L900.0,350.6L899.4,345.1L901.2,339.2L903.9,321.3L906.9,309.4L909.1,303.9L923.7,280.1L924.2,278.9Z " data-id="NG.AD" data-name="Adamawa" id="NG.AD"/>
utf-8utf-8<path d="M411.6,434.5L410.0,431.3L407.0,430.0L404.4,434.1L402.6,435.6L395.8,434.2L387.9,435.1L376.2,453.9L371.8,451.6L363.9,443.1L358.9,441.3L343.4,442.0L341.4,443.1L341.1,445.7L342.1,513.5L344.7,519.2L348.5,519.7L353.6,519.5L356.8,519.9L359.7,519.3L360.5,519.2L372.5,517.1L384.3,513.5L395.0,507.5L398.7,502.9L401.6,497.6L405.1,486.3L409.0,467.1L408.6,457.8L408.8,451.9L410.7,441.7L412.2,438.6L414.4,435.8L414.2,433.9L411.6,434.5Z " data-id="NG.FC" data-name="Federal Capital Territory" id="NG.FC"/>
utf-8</g>
</svg>
