<?xml version="1.0" ?>
<!DOCTYPE svg
  PUBLIC '-//W3C//DTD SVG 1.1//EN'
  'http://www.w3.org/Graphics/SVG/1.1/DTD/svg11.dtd'>
<svg enable_background="new 0 0 1000 552" height="552px" pretty_print="True" style="stroke-linejoin: round; stroke:#000; fill: none;" version="1.1" viewBox="0 0 1000 552" width="1000px" xmlns="http://www.w3.org/2000/svg" xmlns:xlink="http://www.w3.org/1999/xlink">
utf-8<defs>
utf-8utf-8<style type="text/css">
<![CDATA[path { fill-rule: evenodd; }]]>utf-8utf-8</style>
utf-8</defs>
utf-8<metadata>
utf-8utf-8<views>
utf-8utf-8utf-8<view h="552.934439644" padding="0" w="1000">
utf-8utf-8utf-8utf-8<proj flip="auto" id="robinson" lon0="84.402115514"/>
utf-8utf-8utf-8utf-8<bbox h="68.25" w="123.66" x="1141.89" y="-510.02"/>
utf-8utf-8utf-8</view>
utf-8utf-8</views>
utf-8</metadata>
utf-8<g class="" id="provinces">
utf-8utf-8<path d="M598.6,277.6L598.0,275.0L595.5,267.6L596.0,266.3L598.5,264.4L598.8,258.3L600.6,257.4L601.9,254.4L601.8,247.7L600.6,246.1L594.6,244.2L589.7,241.1L587.2,240.1L584.7,240.8L580.5,246.9L577.5,248.9L575.4,253.7L574.4,254.1L569.6,253.0L563.3,253.4L557.9,250.9L554.2,247.4L551.7,246.2L546.4,245.9L544.7,244.8L543.9,238.5L540.1,236.9L533.9,232.1L527.3,231.0L520.5,228.1L517.9,228.2L514.8,227.3L512.8,224.6L509.7,218.4L505.6,215.0L503.0,211.7L500.0,210.0L491.8,208.4L485.2,204.8L483.7,202.9L479.4,204.2L476.7,206.3L470.6,207.5L469.1,208.2L464.9,212.6L462.3,214.7L452.8,215.9L450.4,220.9L444.4,227.5L441.8,229.0L439.7,231.5L440.5,232.9L446.6,238.8L448.0,241.8L444.1,246.3L443.6,249.6L444.3,256.5L441.2,262.0L440.2,269.6L437.0,273.0L440.6,277.6L442.6,282.2L445.3,285.4L446.8,287.8L450.9,292.3L451.7,295.7L450.8,299.9L448.6,302.8L445.4,312.6L444.0,320.4L441.9,324.0L435.7,326.1L434.7,329.0L431.4,331.1L427.3,331.8L421.7,330.8L420.2,331.8L419.8,333.6L425.2,337.3L427.5,335.7L439.3,337.3L443.7,338.9L446.3,337.5L455.6,337.4L458.4,337.7L460.6,338.9L464.5,342.3L467.5,343.2L469.9,342.2L480.3,342.3L484.9,339.3L487.6,339.0L490.2,340.0L495.1,343.7L497.6,345.1L502.7,346.3L513.2,346.4L518.3,347.4L520.6,348.6L522.7,354.0L526.8,359.2L528.6,359.5L532.2,356.0L534.2,355.8L535.6,357.0L537.4,359.3L538.9,358.7L543.4,358.8L540.4,354.7L541.0,351.5L545.7,349.2L551.1,344.8L554.7,342.2L559.6,344.1L561.3,345.7L563.1,348.0L564.5,348.8L569.2,352.4L573.2,352.1L574.3,349.9L572.5,343.2L569.5,339.2L568.3,335.6L568.6,334.3L572.7,328.6L576.3,316.7L579.6,313.0L586.7,309.3L587.5,306.4L587.8,298.8L589.7,294.7L594.5,289.5L595.8,284.7L597.0,282.9L598.9,281.7L598.6,277.6Z " data-id="NP.PM" data-name="Gandaki" id="NP.PM"/>
utf-8utf-8<path d="M283.2,190.3L280.6,190.1L277.1,192.3L270.4,188.1L270.3,182.2L269.1,179.4L263.4,176.9L254.6,176.7L252.9,177.1L242.6,182.4L237.4,190.1L235.7,193.6L231.7,193.6L228.9,190.6L226.4,189.8L217.1,194.7L207.6,193.8L200.4,190.8L191.8,189.1L181.7,185.7L175.2,184.2L173.2,178.0L169.5,174.3L163.1,180.0L160.5,181.7L156.4,188.0L156.7,190.9L158.1,193.9L160.1,196.3L161.9,197.3L169.7,206.6L174.8,211.2L176.9,213.9L181.5,220.9L182.1,222.4L179.7,224.2L175.9,225.1L174.7,217.2L168.5,211.2L166.0,207.4L163.6,205.0L161.5,204.3L151.7,205.6L146.1,202.8L143.5,202.7L136.3,203.7L133.8,203.1L126.9,198.2L116.7,194.5L114.6,195.1L111.0,198.4L110.8,200.0L117.7,206.2L124.8,211.0L129.2,209.4L130.8,210.7L133.1,214.3L134.1,214.0L139.3,216.7L135.7,210.3L140.9,214.8L142.5,219.3L144.6,223.5L150.1,232.2L151.3,237.5L151.2,240.5L149.8,242.8L137.3,261.1L132.8,264.6L131.9,266.4L131.6,271.7L131.9,273.9L143.8,276.2L146.8,277.7L149.8,280.8L153.8,288.9L156.1,292.6L164.3,300.6L166.5,303.9L165.6,306.8L167.6,307.3L167.6,309.2L170.8,309.5L172.3,308.6L173.7,304.1L175.4,303.9L178.3,304.8L183.6,309.0L185.6,311.5L187.7,316.1L189.7,317.6L201.0,323.1L203.7,324.8L205.6,327.3L208.3,329.1L214.4,330.5L217.3,331.6L220.2,333.7L225.8,338.8L232.2,342.3L239.5,346.8L242.7,347.0L245.0,345.1L248.5,339.4L251.6,337.8L257.7,338.4L260.5,339.4L260.8,337.8L263.7,334.2L268.6,333.8L272.6,332.3L273.2,326.7L270.5,321.0L263.2,315.4L260.2,314.9L250.3,306.4L250.5,301.1L251.2,296.3L256.6,292.9L253.2,288.7L251.3,285.6L248.4,282.9L240.8,279.8L239.8,278.6L238.8,273.6L235.7,268.8L237.2,266.2L239.8,265.0L241.3,262.3L241.4,260.6L239.8,255.6L237.2,251.5L237.2,246.2L240.3,241.1L249.3,243.8L254.3,243.7L256.8,242.0L259.2,235.2L261.1,234.0L264.1,230.2L267.0,223.7L268.0,222.4L273.8,218.2L284.2,207.9L285.3,206.1L286.5,198.3L290.8,193.3L283.2,190.3Z " data-id="NP.MP" data-name="Bheri" id="NP.MP"/>
utf-8utf-8<path d="M480.8,199.3L481.2,187.8L479.5,186.0L473.8,183.5L472.2,179.3L467.5,174.4L466.3,171.8L468.3,165.3L467.2,163.4L462.1,163.0L459.5,157.9L458.1,156.6L452.1,157.8L448.9,154.8L447.4,154.5L444.8,155.6L443.2,152.8L439.1,151.9L433.1,153.9L429.2,157.0L424.7,159.6L416.2,159.7L413.7,160.7L411.8,163.1L411.0,169.6L410.9,169.6L412.6,174.3L409.8,179.5L409.6,181.1L410.9,191.5L409.6,195.8L405.0,204.3L403.7,208.1L402.2,219.2L401.0,221.5L391.6,225.5L387.0,227.9L381.8,229.1L368.0,227.3L364.6,226.8L364.9,230.7L364.1,233.4L361.5,238.9L356.0,241.7L350.2,243.4L346.6,245.9L349.6,250.5L349.3,251.9L344.2,253.2L342.6,255.2L344.2,258.9L342.3,263.3L344.6,265.7L346.6,268.9L350.6,272.7L352.6,276.4L365.1,285.0L370.1,289.7L371.4,293.3L380.1,291.6L384.8,293.2L392.3,299.0L396.6,300.9L399.7,301.0L405.8,303.9L409.4,307.7L422.0,311.6L428.3,316.4L430.6,322.0L433.4,322.5L435.7,326.1L441.9,324.0L444.0,320.4L445.4,312.6L448.6,302.8L450.8,299.9L451.7,295.7L450.9,292.3L446.8,287.8L445.3,285.4L442.6,282.2L440.6,277.6L437.0,273.0L440.2,269.6L441.2,262.0L444.3,256.5L443.6,249.6L444.1,246.3L448.0,241.8L446.6,238.8L440.5,232.9L439.7,231.5L441.8,229.0L444.4,227.5L450.4,220.9L452.8,215.9L462.3,214.7L464.9,212.6L469.1,208.2L470.6,207.5L476.7,206.3L479.4,204.2L483.7,202.9L480.8,199.3Z " data-id="NP.PM" data-name="Dhawalagiri" id="NP.PM"/>
utf-8utf-8<path d="M109.8,46.5L113.9,49.0L116.6,50.1L125.3,52.4L129.0,52.9L134.0,60.4L135.3,66.9L136.1,68.0L142.2,70.2L144.1,65.8L148.7,63.8L157.2,63.6L171.0,68.0L172.4,68.9L173.6,72.8L170.5,77.5L171.3,88.0L170.3,98.4L172.2,103.5L176.9,107.5L182.0,109.2L183.6,111.2L184.5,119.1L183.1,120.9L179.2,124.0L178.4,125.8L178.9,133.9L180.1,137.0L183.5,141.7L183.3,144.1L179.5,145.4L174.9,145.1L171.4,142.4L167.3,141.7L161.3,143.5L156.3,150.1L156.1,151.4L158.6,156.3L159.3,164.6L161.0,168.5L167.6,172.6L169.5,174.3L173.2,178.0L175.2,184.2L181.7,185.7L191.8,189.1L200.4,190.8L207.6,193.8L217.1,194.7L226.4,189.8L228.9,190.6L231.7,193.6L235.7,193.6L237.4,190.1L242.6,182.4L252.9,177.1L254.6,176.7L263.4,176.9L269.1,179.4L270.3,182.2L270.4,188.1L277.1,192.3L280.6,190.1L283.2,190.3L290.8,193.3L297.9,195.4L307.4,202.8L310.2,210.9L311.1,212.0L317.4,215.9L319.2,216.5L323.6,215.6L329.7,216.1L336.5,215.6L340.9,216.8L359.9,225.7L364.6,226.8L368.0,227.3L381.8,229.1L387.0,227.9L391.6,225.5L401.0,221.5L402.2,219.2L403.7,208.1L405.0,204.3L409.6,195.8L410.9,191.5L409.6,181.1L409.8,179.5L412.6,174.3L410.9,169.6L409.3,170.4L402.7,169.4L399.7,167.5L395.1,166.5L390.5,156.0L389.0,154.0L381.6,150.0L379.8,146.2L375.1,143.1L373.3,138.1L369.2,135.2L367.7,129.0L363.8,125.7L356.8,127.4L354.2,124.4L354.1,122.8L355.1,120.1L353.1,116.3L348.8,112.9L346.7,112.3L343.9,108.6L339.2,106.8L333.0,108.2L332.5,113.0L329.4,112.1L325.9,107.5L318.0,101.6L314.2,101.7L308.6,98.3L304.4,101.3L302.2,102.1L298.8,98.0L294.4,96.0L290.0,91.4L281.8,85.8L280.3,83.5L280.2,79.5L278.7,78.6L274.1,79.3L271.8,77.8L260.5,66.6L258.2,65.3L252.2,63.6L249.8,62.4L243.2,57.0L241.1,55.8L235.7,55.8L231.6,51.9L228.9,51.3L224.1,50.9L218.2,47.5L214.3,48.7L211.9,48.4L210.5,46.9L206.9,39.4L208.4,34.3L208.4,31.8L206.2,30.1L203.0,29.0L200.5,27.4L198.8,25.1L197.6,21.5L197.1,13.8L196.2,11.7L194.2,10.7L191.4,10.5L186.7,10.8L183.7,12.1L182.5,11.9L178.5,8.5L176.2,8.0L172.3,8.3L166.9,6.2L159.8,7.9L157.2,7.3L141.8,0.8L139.1,0.0L136.6,0.4L135.6,3.5L131.1,6.3L131.0,11.5L129.8,11.9L126.7,11.5L124.0,10.2L118.9,6.0L116.5,5.1L114.4,5.8L115.1,11.5L114.4,15.6L115.6,20.3L117.6,24.8L116.6,28.6L117.0,32.8L115.7,36.9L114.2,38.2L109.1,38.4L110.0,45.4L109.8,46.5Z " data-id="NP.MP" data-name="Karnali" id="NP.MP"/>
utf-8utf-8<path d="M433.4,322.5L430.6,322.0L428.3,316.4L422.0,311.6L409.4,307.7L405.8,303.9L399.7,301.0L396.6,300.9L392.3,299.0L384.8,293.2L380.1,291.6L371.4,293.3L370.3,295.1L365.6,297.7L364.4,299.1L364.7,303.1L368.7,309.1L365.2,314.0L364.6,318.7L364.5,326.5L368.9,332.4L369.5,333.8L362.2,338.8L358.0,339.5L355.2,338.9L352.5,339.8L348.3,344.5L344.9,350.3L346.6,351.4L352.4,354.0L355.6,356.9L350.9,358.6L345.1,358.0L340.2,359.7L338.7,361.9L338.1,367.7L338.8,367.9L341.4,371.3L343.8,376.5L346.9,386.7L349.1,391.8L352.3,395.0L366.9,396.0L369.9,396.9L375.8,400.1L383.5,401.9L397.6,401.8L402.2,403.6L408.9,408.7L410.7,410.4L415.0,416.2L417.9,417.2L420.4,417.0L422.4,415.7L424.0,413.7L426.1,406.4L423.8,403.9L423.6,399.4L426.4,398.3L437.3,398.4L450.2,400.2L459.3,403.5L477.1,412.4L482.8,414.5L485.9,413.0L484.5,409.3L480.4,405.4L479.0,403.2L481.1,402.3L486.4,401.9L488.8,401.1L490.4,399.5L490.4,393.4L491.3,391.7L486.9,389.5L487.4,388.3L490.4,387.2L498.4,388.3L500.9,388.0L503.0,386.4L507.5,389.3L508.6,387.6L511.7,379.4L513.7,376.3L515.8,377.1L517.0,375.9L518.5,372.6L519.8,372.0L524.5,372.6L527.4,371.4L529.9,369.1L532.5,367.6L536.0,368.9L538.8,366.8L538.9,361.7L537.4,359.3L535.6,357.0L534.2,355.8L532.2,356.0L528.6,359.5L526.8,359.2L522.7,354.0L520.6,348.6L518.3,347.4L513.2,346.4L502.7,346.3L497.6,345.1L495.1,343.7L490.2,340.0L487.6,339.0L484.9,339.3L480.3,342.3L469.9,342.2L467.5,343.2L464.5,342.3L460.6,338.9L458.4,337.7L455.6,337.4L446.3,337.5L443.7,338.9L439.3,337.3L427.5,335.7L425.2,337.3L419.8,333.6L420.2,331.8L421.7,330.8L427.3,331.8L431.4,331.1L434.7,329.0L435.7,326.1L433.4,322.5Z " data-id="NP.PM" data-name="Lumbini" id="NP.PM"/>
utf-8utf-8<path d="M65.0,234.6L63.1,224.4L60.3,218.6L58.1,215.9L55.8,210.7L54.4,200.6L51.8,193.1L54.6,182.6L55.3,174.4L58.6,169.6L60.4,168.4L65.6,166.7L69.8,161.1L71.1,150.5L72.8,143.5L74.1,141.7L78.7,140.1L82.0,137.9L84.6,133.1L77.6,127.3L74.4,123.7L70.3,122.6L64.9,119.5L66.9,113.4L66.3,110.3L63.3,104.5L63.4,103.3L66.1,100.2L72.3,99.2L74.2,97.4L77.2,95.9L81.3,94.9L88.6,92.3L93.2,91.4L94.4,87.7L93.3,83.2L87.2,69.7L83.3,65.8L84.3,61.0L86.6,56.1L90.0,52.5L87.6,46.5L82.6,40.0L80.2,35.6L74.9,29.7L66.8,32.4L64.7,31.9L61.6,27.8L60.1,29.2L57.4,33.3L59.7,36.9L58.2,40.4L52.4,45.8L51.2,47.5L49.0,53.2L39.0,61.9L35.0,62.4L33.5,63.4L32.6,70.6L30.9,74.8L26.7,82.4L24.7,84.5L18.3,86.4L15.8,88.9L14.9,92.6L15.6,96.1L21.6,106.6L22.0,109.6L21.3,112.4L19.3,115.3L16.8,118.1L17.7,120.4L12.8,126.6L11.8,130.5L7.6,132.6L7.7,134.9L12.3,141.6L14.3,147.1L15.2,148.5L18.3,149.4L19.2,151.9L19.3,155.1L18.8,163.9L16.0,162.5L14.0,162.8L13.9,164.7L17.0,170.4L17.7,172.5L16.6,174.2L10.1,174.6L6.9,176.4L5.7,181.5L6.0,187.6L6.8,194.4L2.2,198.2L1.2,200.4L1.5,207.8L3.3,213.3L5.8,215.1L13.2,218.0L18.2,223.3L22.5,225.5L26.7,226.2L32.4,231.5L36.7,233.2L41.2,240.0L42.8,241.7L45.3,242.6L51.9,241.8L54.3,243.1L60.3,249.2L62.9,250.5L63.1,248.7L60.4,240.1L60.2,237.7L61.0,235.9L63.1,234.6L65.0,234.6Z " data-id="NP.SP" data-name="Mahakali" id="NP.SP"/>
utf-8utf-8<path d="M167.6,172.6L161.0,168.5L159.3,164.6L158.6,156.3L156.1,151.4L156.3,150.1L161.3,143.5L167.3,141.7L171.4,142.4L174.9,145.1L179.5,145.4L183.3,144.1L183.5,141.7L180.1,137.0L178.9,133.9L178.4,125.8L179.2,124.0L183.1,120.9L184.5,119.1L183.6,111.2L182.0,109.2L176.9,107.5L172.2,103.5L170.3,98.4L171.3,88.0L170.5,77.5L173.6,72.8L172.4,68.9L171.0,68.0L157.2,63.6L148.7,63.8L144.1,65.8L142.2,70.2L136.1,68.0L135.3,66.9L134.0,60.4L129.0,52.9L125.3,52.4L116.6,50.1L113.9,49.0L109.8,46.5L109.7,46.8L105.6,49.4L106.6,53.2L105.8,55.1L103.4,55.6L97.5,53.1L91.9,53.9L90.1,52.7L90.0,52.5L86.6,56.1L84.3,61.0L83.3,65.8L87.2,69.7L93.3,83.2L94.4,87.7L93.2,91.4L88.6,92.3L81.3,94.9L77.2,95.9L74.2,97.4L72.3,99.2L66.1,100.2L63.4,103.3L63.3,104.5L66.3,110.3L66.9,113.4L64.9,119.5L70.3,122.6L74.4,123.7L77.6,127.3L84.6,133.1L82.0,137.9L78.7,140.1L74.1,141.7L72.8,143.5L71.1,150.5L69.8,161.1L65.6,166.7L60.4,168.4L58.6,169.6L55.3,174.4L54.6,182.6L51.8,193.1L54.4,200.6L55.8,210.7L58.1,215.9L60.3,218.6L63.1,224.4L65.0,234.6L67.5,234.7L68.3,237.9L69.2,239.0L78.1,241.6L79.8,242.7L82.9,247.2L90.5,250.8L92.6,252.1L98.0,256.9L107.1,258.6L108.9,259.3L111.7,265.3L114.2,266.9L120.8,268.1L122.5,267.4L124.0,268.2L126.3,272.8L131.9,273.9L131.6,271.7L131.9,266.4L132.8,264.6L137.3,261.1L149.8,242.8L151.2,240.5L151.3,237.5L150.1,232.2L144.6,223.5L142.5,219.3L140.9,214.8L135.7,210.3L139.3,216.7L134.1,214.0L133.1,214.3L130.8,210.7L129.2,209.4L124.8,211.0L117.7,206.2L110.8,200.0L111.0,198.4L114.6,195.1L116.7,194.5L126.9,198.2L133.8,203.1L136.3,203.7L143.5,202.7L146.1,202.8L151.7,205.6L161.5,204.3L163.6,205.0L166.0,207.4L168.5,211.2L174.7,217.2L175.9,225.1L179.7,224.2L182.1,222.4L181.5,220.9L176.9,213.9L174.8,211.2L169.7,206.6L161.9,197.3L160.1,196.3L158.1,193.9L156.7,190.9L156.4,188.0L160.5,181.7L163.1,180.0L169.5,174.3L167.6,172.6Z " data-id="NP.SP" data-name="Seti" id="NP.SP"/>
utf-8utf-8<path d="M723.2,341.8L720.2,341.5L715.0,342.1L712.8,341.3L710.8,337.9L709.8,329.8L707.8,327.3L703.0,323.5L701.4,321.7L699.9,318.6L698.8,314.4L696.3,311.6L692.2,305.1L689.4,303.5L683.8,301.1L680.4,299.1L677.3,296.6L674.5,293.6L672.0,290.1L670.5,284.1L669.3,281.2L667.8,281.5L668.1,285.1L664.5,287.6L662.3,292.6L660.9,292.6L656.3,289.3L648.3,288.3L645.9,288.8L638.4,286.5L637.0,287.5L634.9,290.6L633.3,291.4L631.3,291.2L626.9,288.3L621.3,290.4L614.7,288.9L610.3,285.4L606.1,287.1L603.2,287.0L600.4,285.4L599.1,283.4L598.9,281.7L597.0,282.9L595.8,284.7L594.5,289.5L589.7,294.7L587.8,298.8L587.5,306.4L586.7,309.3L579.6,313.0L576.3,316.7L572.7,328.6L568.6,334.3L568.3,335.6L569.5,339.2L572.5,343.2L574.3,349.9L573.2,352.1L569.2,352.4L564.5,348.8L563.1,348.0L563.0,348.9L563.0,353.0L567.5,359.4L567.1,360.4L569.9,362.0L578.5,362.4L581.6,364.7L583.8,369.0L591.2,369.8L596.5,367.4L605.5,365.1L613.3,364.7L623.6,368.4L629.4,369.6L632.3,371.9L634.8,376.9L638.0,387.0L641.0,391.1L642.7,395.7L646.1,398.5L654.1,402.8L666.8,405.5L670.1,407.0L673.4,409.9L676.4,412.0L678.0,412.7L694.9,413.8L697.6,413.0L698.6,407.7L699.8,406.9L706.3,405.7L708.4,402.5L705.4,394.2L708.1,388.1L708.3,386.1L712.4,379.0L715.9,373.9L718.8,365.2L719.9,362.8L724.5,360.1L722.9,351.0L722.6,347.8L723.5,341.7L723.2,341.8Z " data-id="NP.MM" data-name="Bagmati" id="NP.MM"/>
utf-8utf-8<path d="M774.6,330.4L774.4,333.0L773.3,335.0L767.3,338.6L763.3,337.8L757.6,333.9L753.7,334.7L748.9,330.3L746.7,328.8L737.5,326.2L734.8,320.7L732.0,316.9L732.7,311.9L731.9,308.5L730.2,305.9L727.8,305.4L720.0,316.2L722.1,319.6L723.3,326.4L725.9,328.5L726.4,332.3L728.8,335.1L729.2,336.5L725.8,340.8L724.3,341.6L723.5,341.7L722.6,347.8L722.9,351.0L724.5,360.1L719.9,362.8L718.8,365.2L715.9,373.9L712.4,379.0L708.3,386.1L708.1,388.1L705.4,394.2L708.4,402.5L706.3,405.7L699.8,406.9L698.6,407.7L697.6,413.0L694.9,413.8L678.0,412.7L676.4,412.0L673.4,409.9L668.9,413.9L667.5,416.3L668.3,419.6L676.8,426.1L679.4,432.6L679.3,442.6L674.0,453.3L672.8,459.6L674.9,465.6L674.6,471.1L671.9,476.9L671.1,481.9L670.8,486.2L672.3,494.5L673.6,492.5L675.2,490.7L679.4,491.5L681.4,490.8L689.7,485.5L698.1,481.7L699.5,482.2L709.5,487.5L711.6,489.6L713.3,494.2L714.3,504.2L716.5,509.0L718.5,511.1L725.7,516.3L728.9,515.8L730.0,516.7L731.1,520.0L733.9,520.5L736.1,518.9L742.7,511.8L744.5,510.5L747.1,510.2L751.0,508.8L754.8,510.1L763.7,515.3L767.8,516.0L768.0,516.0L771.4,502.3L771.3,501.0L764.3,488.9L763.0,482.1L760.9,477.6L760.9,474.0L764.1,471.5L767.4,472.9L772.7,472.4L775.1,467.3L777.7,465.1L782.3,463.6L782.0,456.4L778.7,449.1L776.1,445.9L778.7,443.0L781.3,438.5L780.8,436.3L776.7,434.0L772.9,430.6L767.2,429.1L760.8,429.3L758.6,427.8L760.5,422.5L760.3,417.4L758.6,414.5L758.1,411.2L759.5,403.6L760.8,400.9L769.1,390.8L773.5,384.0L778.0,378.8L784.6,376.5L787.3,370.9L789.3,361.1L787.8,356.1L786.0,352.3L784.0,345.4L783.3,341.7L781.7,338.3L777.2,332.7L774.6,330.4L774.6,330.4Z " data-id="NP.MM" data-name="Janakpur" id="NP.MM"/>
utf-8utf-8<path d="M561.3,345.7L559.6,344.1L554.7,342.2L551.1,344.8L545.7,349.2L541.0,351.5L540.4,354.7L543.4,358.8L538.9,358.7L537.4,359.3L538.9,361.7L538.8,366.8L536.0,368.9L532.5,367.6L529.9,369.1L527.4,371.4L524.5,372.6L519.8,372.0L518.5,372.6L517.0,375.9L515.8,377.1L513.7,376.3L511.7,379.4L508.6,387.6L507.5,389.3L503.0,386.4L500.9,388.0L498.4,388.3L490.4,387.2L487.4,388.3L486.9,389.5L491.3,391.7L490.4,393.4L490.4,399.5L488.8,401.1L488.9,401.1L495.3,402.4L498.9,402.3L501.0,400.5L505.4,393.0L507.6,392.0L509.7,392.5L510.7,395.0L516.4,398.0L517.7,399.3L519.6,402.6L524.1,402.4L525.9,403.6L530.3,409.4L533.2,411.1L567.7,417.4L571.6,419.9L575.4,424.5L578.2,429.4L580.3,434.5L581.5,439.6L581.9,445.0L579.8,454.2L581.0,457.1L582.7,458.2L597.4,462.1L601.8,460.1L603.7,460.6L608.4,464.4L614.5,466.5L617.4,468.0L619.6,470.6L622.2,475.9L630.4,479.0L631.2,482.9L634.2,483.2L640.2,480.5L642.7,480.2L647.6,482.2L649.7,491.0L653.8,494.7L665.0,497.7L666.8,497.6L670.5,496.3L672.2,494.9L672.3,494.5L670.8,486.2L671.1,481.9L671.9,476.9L674.6,471.1L674.9,465.6L672.8,459.6L674.0,453.3L679.3,442.6L679.4,432.6L676.8,426.1L668.3,419.6L667.5,416.3L668.9,413.9L673.4,409.9L670.1,407.0L666.8,405.5L654.1,402.8L646.1,398.5L642.7,395.7L641.0,391.1L638.0,387.0L634.8,376.9L632.3,371.9L629.4,369.6L623.6,368.4L613.3,364.7L605.5,365.1L596.5,367.4L591.2,369.8L583.8,369.0L581.6,364.7L578.5,362.4L569.9,362.0L567.1,360.4L567.5,359.4L563.0,353.0L563.0,348.9L563.1,348.0L561.3,345.7Z " data-id="NP.MM" data-name="Narayani" id="NP.MM"/>
utf-8utf-8<path d="M827.7,333.7L824.3,334.3L821.3,334.0L818.6,332.8L810.8,324.6L802.7,324.9L799.0,323.7L797.7,321.8L797.3,317.8L796.5,316.2L789.7,312.3L787.6,312.1L784.2,315.3L782.6,315.7L776.9,312.1L775.2,312.5L774.4,314.0L775.0,320.2L773.9,327.3L774.6,330.4L777.2,332.7L781.7,338.3L783.3,341.7L784.0,345.4L786.0,352.3L787.8,356.1L789.3,361.1L787.3,370.9L784.6,376.5L778.0,378.8L773.5,384.0L769.1,390.8L760.8,400.9L759.5,403.6L758.1,411.2L758.6,414.5L760.3,417.4L760.5,422.5L758.6,427.8L760.8,429.3L767.2,429.1L772.9,430.6L776.7,434.0L780.8,436.3L781.3,438.5L778.7,443.0L776.1,445.9L778.7,449.1L782.0,456.4L782.3,463.6L777.7,465.1L775.1,467.3L772.7,472.4L767.4,472.9L764.1,471.5L760.9,474.0L760.9,477.6L763.0,482.1L764.3,488.9L771.3,501.0L771.4,502.3L768.0,516.0L768.7,516.1L774.2,518.6L777.2,516.6L781.3,515.0L783.7,514.6L788.2,518.8L792.5,518.6L796.2,519.9L804.0,523.9L812.3,527.0L818.6,531.9L827.1,535.7L836.2,540.8L838.4,541.3L840.5,537.4L842.1,537.1L850.4,538.1L852.9,536.2L854.6,533.5L855.2,530.5L858.4,528.2L861.5,527.0L863.7,523.5L864.0,519.3L862.7,513.9L863.8,510.9L864.3,499.5L865.8,497.8L868.2,496.6L874.6,487.7L878.8,484.1L879.5,475.1L878.6,472.7L876.5,471.9L872.4,472.1L859.3,475.4L855.3,474.7L850.3,454.1L845.3,448.4L843.6,444.7L842.6,434.0L840.7,427.9L844.1,422.7L843.1,417.8L836.9,409.5L834.6,404.6L834.7,402.6L837.4,397.7L837.8,389.0L837.3,375.4L837.4,364.2L835.3,358.6L834.3,350.8L830.4,342.0L828.9,333.3L827.7,333.7Z " data-id="NP.PW" data-name="Sagarmatha" id="NP.PW"/>
utf-8utf-8<path d="M947.0,542.0L945.5,538.0L940.3,508.5L940.6,497.2L937.4,490.4L930.1,482.2L922.7,479.0L920.2,476.3L916.1,468.4L912.8,464.6L914.6,462.3L918.7,455.2L923.8,448.2L927.6,445.1L932.3,443.1L934.0,441.8L934.8,437.2L936.7,434.6L935.6,431.3L933.6,429.9L928.3,428.0L916.1,423.1L908.4,420.8L899.8,412.9L898.1,410.1L897.8,408.0L897.9,402.2L897.4,394.2L897.7,388.7L900.5,381.2L903.1,368.9L907.5,370.6L910.7,365.4L912.1,360.0L913.2,351.8L910.9,351.0L908.0,350.4L903.2,353.0L898.0,349.3L895.6,348.7L879.8,353.1L877.7,353.1L877.3,351.1L878.3,347.0L875.7,346.2L872.7,347.4L870.7,349.8L868.3,351.5L861.3,349.6L855.5,350.3L852.5,350.2L847.4,347.6L839.3,339.0L834.9,335.0L831.6,333.1L829.6,333.0L828.9,333.3L830.4,342.0L834.3,350.8L835.3,358.6L837.4,364.2L837.3,375.4L837.8,389.0L837.4,397.7L834.7,402.6L834.6,404.6L836.9,409.5L843.1,417.8L844.1,422.7L840.7,427.9L842.6,434.0L843.6,444.7L845.3,448.4L850.3,454.1L855.3,474.7L859.3,475.4L872.4,472.1L876.5,471.9L878.6,472.7L879.5,475.1L878.8,484.1L874.6,487.7L868.2,496.6L865.8,497.8L864.3,499.5L863.8,510.9L862.7,513.9L864.0,519.3L863.7,523.5L861.5,527.0L865.5,525.4L870.9,519.0L872.3,518.9L873.6,523.8L876.2,530.5L878.1,534.4L880.9,539.0L884.2,542.7L887.8,544.1L893.9,543.4L897.2,542.2L901.2,547.3L908.2,550.6L909.8,550.9L911.0,549.6L912.3,544.8L913.2,542.8L916.1,540.8L919.6,539.7L923.4,539.4L927.1,540.1L936.4,545.1L940.6,546.3L944.5,544.3L947.0,542.0Z " data-id="NP.PW" data-name="Bhojpur" id="NP.PW"/>
utf-8utf-8<path d="M913.2,351.8L912.1,360.0L910.7,365.4L907.5,370.6L903.1,368.9L900.5,381.2L897.7,388.7L897.4,394.2L897.9,402.2L897.8,408.0L898.1,410.1L899.8,412.9L908.4,420.8L916.1,423.1L928.3,428.0L933.6,429.9L935.6,431.3L936.7,434.6L934.8,437.2L934.0,441.8L932.3,443.1L927.6,445.1L923.8,448.2L918.7,455.2L914.6,462.3L912.8,464.6L916.1,468.4L920.2,476.3L922.7,479.0L930.1,482.2L937.4,490.4L940.6,497.2L940.3,508.5L945.5,538.0L947.0,542.0L948.1,540.9L950.4,540.0L954.3,542.5L956.3,542.8L957.8,541.9L958.5,537.0L959.9,536.3L964.3,538.3L966.3,538.2L969.3,535.1L971.4,535.1L974.7,537.5L979.8,543.8L984.0,546.2L986.0,547.8L989.5,547.4L993.0,542.5L995.2,536.0L994.2,527.4L995.1,518.7L998.3,507.9L999.1,502.0L998.1,494.1L996.1,488.8L993.6,480.6L981.6,463.1L978.5,459.6L972.3,455.8L969.3,451.0L967.1,449.1L965.9,445.9L966.8,441.9L965.4,432.4L967.9,421.6L967.9,418.3L965.3,414.1L964.0,409.3L964.4,406.2L965.5,402.7L963.5,400.4L961.9,395.0L963.4,388.1L968.0,375.4L968.4,364.1L969.9,357.2L968.2,351.6L969.0,349.1L967.4,346.7L960.0,344.8L954.4,341.9L946.0,342.7L940.5,340.7L931.3,340.3L928.8,339.0L927.6,339.2L925.7,345.1L924.2,348.3L922.0,350.9L918.9,352.6L916.0,352.9L913.2,351.8Z " data-id="NP.PW" data-name="Mechi" id="NP.PW"/>
utf-8utf-8<path d="M359.9,225.7L340.9,216.8L336.5,215.6L329.7,216.1L323.6,215.6L319.2,216.5L317.4,215.9L311.1,212.0L310.2,210.9L307.4,202.8L297.9,195.4L290.8,193.3L286.5,198.3L285.3,206.1L284.2,207.9L273.8,218.2L268.0,222.4L267.0,223.7L264.1,230.2L261.1,234.0L259.2,235.2L256.8,242.0L254.3,243.7L249.3,243.8L240.3,241.1L237.2,246.2L237.2,251.5L239.8,255.6L241.4,260.6L241.3,262.3L239.8,265.0L237.2,266.2L235.7,268.8L238.8,273.6L239.8,278.6L240.8,279.8L248.4,282.9L251.3,285.6L253.2,288.7L256.6,292.9L251.2,296.3L250.5,301.1L250.3,306.4L260.2,314.9L263.2,315.4L270.5,321.0L273.2,326.7L272.6,332.3L268.6,333.8L263.7,334.2L260.8,337.8L260.5,339.4L260.7,339.4L266.0,343.9L273.7,347.1L289.8,359.0L299.6,363.7L307.1,370.3L311.9,371.7L321.5,370.5L335.3,366.6L338.1,367.7L338.7,361.9L340.2,359.7L345.1,358.0L350.9,358.6L355.6,356.9L352.4,354.0L346.6,351.4L344.9,350.3L348.3,344.5L352.5,339.8L355.2,338.9L358.0,339.5L362.2,338.8L369.5,333.8L368.9,332.4L364.5,326.5L364.6,318.7L365.2,314.0L368.7,309.1L364.7,303.1L364.4,299.1L365.6,297.7L370.3,295.1L371.4,293.3L370.1,289.7L365.1,285.0L352.6,276.4L350.6,272.7L346.6,268.9L344.6,265.7L342.3,263.3L344.2,258.9L342.6,255.2L344.2,253.2L349.3,251.9L349.6,250.5L346.6,245.9L350.2,243.4L356.0,241.7L361.5,238.9L364.1,233.4L364.9,230.7L364.6,226.8L359.9,225.7Z " data-id="NP.MP" data-name="Rapti" id="NP.MP"/>
utf-8</g>
</svg>
