<?xml version="1.0" ?>
<!DOCTYPE svg
  PUBLIC '-//W3C//DTD SVG 1.1//EN'
  'http://www.w3.org/Graphics/SVG/1.1/DTD/svg11.dtd'>
<svg enable_background="new 0 0 1000 1355" height="1355px" pretty_print="True" style="stroke-linejoin: round; stroke:#000; fill: none;" version="1.1" viewBox="0 0 1000 1355" width="1000px" xmlns="http://www.w3.org/2000/svg" xmlns:xlink="http://www.w3.org/1999/xlink">
utf-8<defs>
utf-8utf-8<style type="text/css">
<![CDATA[path { fill-rule: evenodd; }]]>utf-8utf-8</style>
utf-8</defs>
utf-8<metadata>
utf-8utf-8<views>
utf-8utf-8utf-8<view h="1355.40566268" padding="0" w="1000">
utf-8utf-8utf-8utf-8<proj flip="auto" id="robinson" lon0="166.925895715"/>
utf-8utf-8utf-8utf-8<bbox h="1.03" w="0.76" x="2472.28" y="8.22"/>
utf-8utf-8utf-8</view>
utf-8utf-8</views>
utf-8</metadata>
utf-8<g class="" id="provinces">
utf-8utf-8<path d="M418.4,713.3L261.8,666.9L192.6,744.2L177.8,852.5L210.5,984.0L252.0,1065.9L354.2,968.5L553.4,868.0L567.3,766.2L418.4,713.3Z " data-id="NR.BU" data-name="Buada" id="NR.BU"/>
utf-8utf-8<path d="M210.5,984.0L94.8,1025.5L177.0,1258.4L216.1,1100.0L252.0,1065.9L210.5,984.0Z " data-id="NR.BO" data-name="Boe" id="NR.BO"/>
utf-8utf-8<path d="M177.8,852.5L192.6,744.2L0.4,758.3L94.8,1025.5L210.5,984.0L177.8,852.5Z " data-id="NR.AI" data-name="Aiwo" id="NR.AI"/>
utf-8utf-8<path d="M67.9,477.9L0.4,758.3L192.6,744.2L261.8,666.9L67.9,477.9Z " data-id="NR.DE" data-name="Denigomodu" id="NR.DE"/>
utf-8utf-8<path d="M131.1,215.1L67.9,477.9L261.8,666.9L418.4,713.3L567.3,766.2L575.6,705.6L581.4,656.2L131.1,215.1Z " data-id="NR.NI" data-name="Nibok" id="NR.NI"/>
utf-8utf-8<path d="M221.9,175.8L131.1,215.1L581.4,656.2L590.8,575.0L221.9,175.8Z " data-id="NR.UA" data-name="Uaboe" id="NR.UA"/>
utf-8utf-8<path d="M359.9,116.0L221.9,175.8L590.8,575.0L598.2,512.2L608.0,443.0L359.9,116.0Z " data-id="NR.BA" data-name="Baiti" id="NR.BA"/>
utf-8utf-8<path d="M478.5,64.5L359.9,116.0L608.0,443.0L627.7,303.4L478.5,64.5Z " data-id="NR.EW" data-name="Ewa" id="NR.EW"/>
utf-8utf-8<path d="M951.9,166.7L627.7,303.4L776.9,403.9L984.3,460.8L951.9,166.7Z " data-id="NR.IJ" data-name="Ijuw" id="NR.IJ"/>
utf-8utf-8<path d="M627.7,303.4L608.0,443.0L598.2,512.2L590.8,575.0L581.4,656.2L575.6,705.6L567.3,766.2L553.4,868.0L744.1,922.1L897.5,946.6L999.6,600.5L984.3,460.8L776.9,403.9L627.7,303.4Z " data-id="NR.AR" data-name="Anibare" id="NR.AR"/>
utf-8utf-8<path d="M897.5,946.6L744.1,922.1L553.4,868.0L354.2,968.5L493.2,1327.3L613.0,1353.4L859.9,1073.8L897.5,946.6Z " data-id="NR.ME" data-name="Meneng" id="NR.ME"/>
utf-8utf-8<path d="M354.2,968.5L252.0,1065.9L216.1,1100.0L177.0,1258.4L493.2,1327.3L354.2,968.5Z " data-id="NR.YA" data-name="Yaren" id="NR.YA"/>
utf-8</g>
</svg>
