<?xml version="1.0" ?>
<!DOCTYPE svg
  PUBLIC '-//W3C//DTD SVG 1.1//EN'
  'http://www.w3.org/Graphics/SVG/1.1/DTD/svg11.dtd'>
<svg enable_background="new 0 0 1000 43" height="43px" pretty_print="True" style="stroke-linejoin: round; stroke:#000; fill: none;" version="1.1" viewBox="0 0 1000 43" width="1000px" xmlns="http://www.w3.org/2000/svg" xmlns:xlink="http://www.w3.org/1999/xlink">
utf-8<defs>
utf-8utf-8<style type="text/css">
<![CDATA[path { fill-rule: evenodd; }]]>utf-8utf-8</style>
utf-8</defs>
utf-8<metadata>
utf-8utf-8<views>
utf-8utf-8utf-8<view h="43.2758594486" padding="0" w="1000">
utf-8utf-8utf-8utf-8<proj flip="auto" id="robinson" lon0="175.578650009"/>
utf-8utf-8utf-8utf-8<bbox h="204.15" w="4829.0" x="-2364.26" y="576.7"/>
utf-8utf-8utf-8</view>
utf-8utf-8</views>
utf-8</metadata>
utf-8<g class="" id="provinces">
utf-8utf-8<path d="M978.1,16.3L977.3,15.2L977.1,14.4L975.5,15.0L975.4,15.1L975.3,15.1L975.0,15.8L974.0,16.9L972.6,18.8L972.7,18.8L973.1,19.5L971.2,21.8L971.1,21.9L974.1,21.7L974.4,21.9L974.5,21.8L974.8,21.6L976.2,20.8L976.2,20.8L975.9,19.2L978.3,16.7L978.1,16.5L978.2,16.3L978.1,16.3Z " data-id="NZ.MW" data-name="Manawatu-Wanganui" id="NZ.MW"/>
utf-8utf-8<path d="M983.5,15.6L986.9,12.5L988.0,11.6L987.7,10.9L987.1,10.9L984.9,12.5L984.8,12.8L982.7,14.1L982.6,14.2L982.9,14.6L983.1,14.8L983.2,15.3L983.4,15.7L983.5,15.6Z " data-id="NZ.GI" data-name="Gisborne District" id="NZ.GI"/>
utf-8utf-8<path d="M982.6,14.2L982.5,14.2L979.0,16.2L978.5,16.3L978.5,16.2L978.2,16.3L978.1,16.5L978.3,16.7L975.9,19.2L976.2,20.8L976.4,20.5L979.5,18.2L979.2,17.9L983.3,15.8L983.4,15.7L983.2,15.3L983.1,14.8L982.9,14.6L982.6,14.2Z " data-id="NZ.HB" data-name="Hawke's Bay" id="NZ.HB"/>
utf-8utf-8<path d="M980.7,8.2L980.3,8.2L980.5,8.4L980.7,8.2Z M980.6,6.0L980.6,6.0L980.1,6.2L980.0,6.3L980.0,6.3L978.8,7.6L978.8,7.0L978.2,9.8L978.2,10.0L979.6,9.6L979.9,9.6L980.6,9.0L980.6,9.0L980.1,8.9L979.8,7.7L980.6,6.0L980.6,6.0Z M982.9,5.9L982.8,5.7L982.4,6.3L982.9,5.9Z " data-id="NZ.AU" data-name="Auckland" id="NZ.AU"/>
utf-8utf-8<path d="M987.0,10.9L984.9,12.1L983.6,12.3L981.6,10.3L981.6,10.2L980.8,13.7L979.7,14.0L978.7,16.0L978.5,16.2L978.5,16.3L979.0,16.2L982.5,14.2L982.6,14.2L982.7,14.1L984.8,12.8L984.9,12.5L987.1,10.9L987.0,10.9Z " data-id="NZ.BP" data-name="Bay of Plenty" id="NZ.BP"/>
utf-8utf-8<path d="M961.2,26.3L961.2,26.3L960.6,26.6L960.2,26.8L960.1,26.8L960.1,26.9L956.8,28.5L955.1,29.1L948.3,32.2L948.0,32.4L947.9,32.5L946.5,33.8L949.4,35.6L949.5,35.5L957.4,31.1L959.0,29.6L965.0,26.0L965.3,25.8L964.5,25.6L961.2,26.3L961.2,26.3Z " data-id="NZ.CA" data-name="Canterbury" id="NZ.CA"/>
utf-8utf-8<path d="M968.3,23.0L968.2,23.0L967.8,23.3L968.3,23.0Z M966.3,22.8L965.6,23.3L965.1,23.7L964.7,23.8L964.7,23.9L964.6,23.9L962.0,25.7L961.5,26.0L961.2,26.3L961.2,26.3L964.5,25.6L965.3,25.8L965.3,25.8L968.1,22.5L966.3,23.5L966.4,22.7L966.3,22.8Z M968.0,21.8L967.5,22.1L967.4,22.0L968.0,21.8Z " data-id="NZ.MA" data-name="Marlborough District" id="NZ.MA"/>
utf-8utf-8<path d="M964.7,23.8L965.1,23.7L965.6,23.3L966.3,22.8L966.3,22.8L965.6,23.1L964.6,23.6L964.6,23.6L964.6,23.6L964.6,23.7L964.6,23.8L964.7,23.9L964.7,23.8Z " data-id="NZ.NE" data-name="Nelson City" id="NZ.NE"/>
utf-8utf-8<path d="M964.5,23.6L964.3,23.6L963.3,21.8L963.3,21.8L963.3,23.4L959.7,26.1L960.1,26.8L960.1,26.8L960.2,26.8L960.6,26.6L961.2,26.3L961.2,26.3L961.5,26.0L962.0,25.7L964.6,23.9L964.7,23.9L964.6,23.8L964.6,23.7L964.6,23.6L964.6,23.6L964.5,23.6Z " data-id="NZ.TS" data-name="Tasman District" id="NZ.TS"/>
utf-8utf-8<path d="M980.0,6.3L980.1,6.2L980.6,6.0L980.6,6.0L980.6,6.0L978.4,0.2L978.3,3.8L978.8,6.8L980.0,6.3L980.0,6.3Z " data-id="NZ.NO" data-name="Northland" id="NZ.NO"/>
utf-8utf-8<path d="M975.4,15.0L975.3,14.9L975.2,15.0L974.9,14.8L974.9,14.8L971.6,16.4L971.2,17.7L972.6,18.8L972.6,18.8L974.0,16.9L975.0,15.8L975.3,15.1L975.4,15.1L975.4,15.0Z " data-id="NZ.TK" data-name="Taranaki" id="NZ.TK"/>
utf-8utf-8<path d="M963.3,21.8L954.2,28.7L952.0,29.5L943.1,33.4L943.1,33.4L943.4,33.3L943.5,33.4L943.3,33.8L943.0,34.0L943.4,34.0L944.7,33.6L948.0,32.3L948.0,32.4L948.3,32.2L955.1,29.1L956.8,28.5L960.1,26.9L960.1,26.8L960.1,26.8L959.7,26.1L963.3,23.4L963.3,21.8L963.3,21.8Z " data-id="NZ.WC" data-name="West Coast" id="NZ.WC"/>
utf-8utf-8<path d="M948.0,32.3L944.7,33.6L943.4,34.0L943.0,34.0L942.9,34.1L941.1,36.8L941.8,36.6L939.5,41.1L939.5,41.1L940.8,40.9L945.9,38.6L949.3,35.6L949.4,35.6L946.5,33.8L947.9,32.5L948.0,32.4L948.0,32.3Z " data-id="NZ.OT" data-name="Otago" id="NZ.OT"/>
utf-8utf-8<path d="M933.7,40.9L933.7,40.8L933.6,40.8L933.7,40.9Z M934.1,39.1L934.1,39.1L934.0,39.1L934.1,39.1Z M934.3,39.0L934.3,39.0L934.2,39.0L934.3,39.0Z M935.4,38.2L935.3,38.2L935.0,38.3L935.4,38.2Z M934.7,38.3L934.9,38.2L934.7,38.2L934.7,38.3Z M935.6,38.2L935.8,38.1L935.5,38.2L935.6,38.2Z M935.7,37.8L935.3,37.9L935.3,38.1L935.7,37.8Z M937.4,36.7L937.6,36.2L937.1,36.6L937.4,36.7Z M939.5,41.1L941.8,36.6L941.1,36.8L942.9,34.1L943.0,34.0L943.3,33.8L943.5,33.4L943.4,33.3L943.1,33.4L943.1,33.4L934.4,38.5L936.5,40.3L939.5,41.1L939.5,41.1Z " data-id="NZ.SO" data-name="Southland" id="NZ.SO"/>
utf-8utf-8<path d="M982.9,7.7L982.9,7.5L982.8,7.6L982.9,7.7Z M980.6,9.0L979.9,9.6L979.6,9.6L978.2,10.0L978.2,10.1L977.9,11.7L977.4,11.8L974.9,14.8L974.9,14.8L975.2,15.0L975.3,14.9L975.4,15.0L975.4,15.1L975.5,15.0L977.1,14.4L977.3,15.2L978.1,16.3L978.2,16.3L978.5,16.2L978.7,16.0L979.7,14.0L980.8,13.7L981.6,10.2L981.6,10.2L982.1,8.4L981.9,7.8L980.6,9.0L980.6,9.0Z " data-id="NZ.WK" data-name="Waikato" id="NZ.WK"/>
utf-8utf-8<path d="M970.4,22.2L970.6,22.0L970.6,22.0L970.4,22.2Z M970.9,22.0L969.9,24.5L974.1,22.1L974.4,21.9L974.1,21.7L971.1,21.9L970.9,22.0Z " data-id="NZ.WG" data-name="Wellington" id="NZ.WG"/>
utf-8utf-8<path d="M15.1,33.5L15.1,33.3L14.7,33.2L15.1,33.5Z " data-id="NZ.CI" data-name="Chatham Islands Territory" id="NZ.CI"/>
utf-8</g>
</svg>
