<?xml version="1.0" ?>
<!DOCTYPE svg
  PUBLIC '-//W3C//DTD SVG 1.1//EN'
  'http://www.w3.org/Graphics/SVG/1.1/DTD/svg11.dtd'>
<svg enable_background="new 0 0 1000 1494" height="1494px" pretty_print="True" style="stroke-linejoin: round; stroke:#000; fill: none;" version="1.1" viewBox="0 0 1000 1494" width="1000px" xmlns="http://www.w3.org/2000/svg" xmlns:xlink="http://www.w3.org/1999/xlink">
utf-8<defs>
utf-8utf-8<style type="text/css">
<![CDATA[path { fill-rule: evenodd; }]]>utf-8utf-8</style>
utf-8</defs>
utf-8<metadata>
utf-8utf-8<views>
utf-8utf-8utf-8<view h="1494.33367621" padding="0" w="1000">
utf-8utf-8utf-8utf-8<proj flip="auto" id="robinson" lon0="57.2237071772"/>
utf-8utf-8utf-8utf-8<bbox h="163.41" w="109.43" x="757.52" y="-442.48"/>
utf-8utf-8utf-8</view>
utf-8utf-8</views>
utf-8</metadata>
utf-8<g class="" id="provinces">
utf-8utf-8<path d="M730.2,473.5L727.1,483.0L693.8,488.9L688.5,486.3L673.0,484.4L629.8,441.7L591.8,443.7L577.9,565.2L562.9,633.1L539.9,669.6L768.4,787.1L812.6,810.5L793.7,764.3L776.7,716.3L732.6,591.9L742.9,562.6L770.8,537.0L778.9,536.0L799.4,520.8L818.9,515.5L821.6,480.7L784.7,444.0L756.5,448.1L756.5,448.1L730.2,473.5Z " data-id="OM.DA" data-name="Ad Dakhliyah" id="OM.DA"/>
utf-8utf-8<path d="M768.4,787.1L539.9,669.6L449.0,691.9L445.9,692.5L445.4,694.8L440.4,719.7L436.9,736.9L423.2,804.3L422.0,810.2L424.0,813.1L610.2,1105.9L728.6,1139.7L728.6,1139.7L735.9,1138.4L763.8,1139.9L766.6,1138.4L769.1,1135.4L775.0,1134.5L780.2,1128.9L780.0,1126.7L774.1,1116.8L774.0,1113.7L774.6,1107.3L773.6,1104.8L769.9,1100.5L768.4,1098.1L765.0,1090.2L764.4,1086.7L764.7,1083.6L766.3,1076.5L766.6,1072.7L766.3,1068.6L765.1,1064.3L763.9,1061.8L756.5,1050.2L755.2,1047.3L755.3,1044.2L756.4,1036.0L755.3,1029.2L751.8,1024.5L750.9,1019.8L751.8,1015.8L759.1,1002.2L760.3,998.4L761.8,989.8L764.2,981.7L763.9,975.0L765.3,966.6L767.0,961.1L765.8,957.3L762.8,951.1L762.6,947.4L766.1,938.3L767.8,935.8L772.1,932.1L777.6,929.6L779.8,927.6L780.5,924.2L777.3,919.0L779.2,913.7L782.1,910.5L786.6,907.5L792.4,904.7L790.8,899.9L792.5,892.7L794.8,890.1L800.1,888.6L804.1,885.6L807.8,884.3L811.7,883.9L814.5,884.9L827.4,818.3L812.6,810.5L768.4,787.1Z " data-id="OM.WU" data-name="Al Wusta" id="OM.WU"/>
utf-8utf-8<path d="M873.0,952.1L874.5,951.9L877.7,946.4L882.0,945.2L885.2,940.2L889.2,935.4L891.0,920.1L892.2,916.5L894.9,911.2L897.1,908.9L902.2,905.6L908.0,900.3L907.0,896.2L902.2,888.2L901.2,885.6L900.9,879.3L901.6,876.5L899.7,871.3L897.8,871.9L896.8,873.7L895.7,878.7L893.7,884.3L888.2,893.4L886.6,898.6L886.1,906.7L882.6,910.8L876.0,912.2L875.4,915.8L871.8,918.8L869.3,923.7L869.4,935.8L870.4,944.7L871.5,949.5L873.0,952.1Z M949.4,577.2L943.0,585.4L943.9,593.0L947.2,601.0L947.8,621.5L943.1,639.9L927.7,649.3L900.5,666.1L809.7,702.9L776.7,716.3L793.7,764.3L812.6,810.5L827.4,818.3L814.5,884.9L814.5,884.9L815.9,888.2L816.0,892.7L815.0,897.2L812.5,903.3L814.4,910.2L814.2,913.3L811.0,908.9L810.8,906.9L809.7,913.2L810.2,916.2L813.2,917.5L815.9,917.8L820.7,919.3L820.4,921.8L826.9,919.6L831.3,919.8L839.3,923.1L843.1,923.3L845.8,921.6L846.4,917.5L847.5,916.3L852.0,914.4L852.5,908.1L853.2,906.9L852.8,904.5L854.2,899.1L856.9,891.8L856.9,887.7L857.6,883.5L858.7,879.6L860.1,876.6L865.2,872.4L868.0,863.9L869.4,865.5L871.7,864.8L874.0,862.8L875.1,860.8L875.0,857.7L871.6,860.9L869.7,861.9L868.3,861.2L865.6,857.1L867.4,854.4L868.0,851.4L873.2,848.3L875.3,846.2L874.5,843.0L881.6,836.2L886.0,818.3L887.8,815.0L890.7,812.3L895.4,803.1L911.5,782.7L925.1,769.5L928.8,767.0L946.6,758.1L948.5,750.7L958.9,729.4L960.9,723.1L963.6,709.3L972.7,694.0L974.3,688.4L975.7,685.7L980.7,683.3L981.8,680.3L981.7,672.9L983.4,665.6L983.5,662.0L984.2,659.3L986.2,656.7L989.8,653.1L996.3,641.7L998.3,635.6L999.4,628.9L999.7,603.8L998.5,599.2L996.1,594.1L992.9,590.1L989.2,589.1L985.2,589.6L984.9,591.6L988.0,595.6L987.6,596.4L984.3,595.4L983.3,594.3L981.9,589.1L978.3,589.1L972.6,584.8L968.9,583.2L959.1,587.0L954.5,586.0L954.3,583.9L957.1,584.3L956.8,582.7L952.7,580.1L949.4,577.2Z " data-id="OM.SS" data-name="Ash Sharqiyah South" id="OM.SS"/>
utf-8utf-8<path d="M539.3,1360.3L535.4,1358.1L531.6,1360.9L532.2,1362.4L533.4,1361.6L537.4,1361.6L539.3,1360.3Z M560.3,1362.0L562.5,1361.1L566.5,1358.1L562.6,1356.1L561.2,1354.2L560.6,1351.8L557.2,1353.7L552.3,1355.6L548.9,1357.9L550.3,1361.2L552.3,1362.1L558.2,1362.4L560.3,1362.0Z M728.6,1139.7L610.2,1105.9L424.0,813.1L422.0,810.2L418.0,829.4L403.2,901.6L387.2,978.9L279.7,1021.5L103.1,1091.4L0.3,1132.0L26.4,1188.5L94.5,1336.3L119.9,1391.6L120.9,1393.3L125.9,1393.6L128.3,1394.5L129.8,1396.6L175.3,1492.3L186.2,1485.9L207.5,1478.2L218.6,1476.3L239.9,1475.9L244.2,1474.6L251.1,1470.6L253.1,1466.1L255.8,1462.7L261.3,1457.8L263.8,1458.6L271.5,1454.8L274.1,1454.5L281.9,1452.7L288.0,1452.3L291.3,1451.5L294.8,1447.1L295.1,1445.8L294.4,1442.4L296.1,1439.8L301.8,1436.5L304.0,1435.9L314.6,1435.9L339.2,1432.7L341.9,1433.8L344.4,1431.5L347.7,1431.8L354.2,1433.8L359.0,1431.7L365.6,1432.7L371.4,1431.7L377.1,1433.4L382.6,1434.5L384.3,1436.5L386.4,1442.1L387.3,1441.0L392.1,1444.2L393.5,1443.6L396.0,1444.0L397.5,1443.1L399.1,1445.0L401.3,1445.0L405.6,1443.1L411.1,1442.3L413.5,1441.4L415.4,1439.0L417.3,1439.5L423.1,1438.0L427.5,1433.5L429.8,1435.9L435.4,1431.1L440.4,1424.3L441.9,1423.4L444.0,1418.0L446.0,1416.8L449.9,1415.4L453.2,1405.3L458.9,1399.7L458.7,1398.5L456.8,1397.2L456.7,1391.8L461.5,1383.6L462.2,1380.7L461.6,1373.7L460.4,1370.5L457.6,1367.5L452.8,1364.8L451.3,1362.7L450.4,1358.6L450.5,1355.1L451.2,1352.0L454.4,1344.5L465.8,1333.2L467.9,1329.9L469.5,1323.6L472.8,1317.3L474.2,1311.3L477.0,1308.1L483.9,1306.8L486.9,1304.6L489.9,1304.3L503.0,1300.5L537.0,1298.7L541.7,1297.4L550.1,1293.6L552.7,1293.1L564.2,1294.1L567.1,1293.5L570.9,1291.5L573.5,1291.0L594.6,1293.9L596.1,1293.6L595.9,1289.0L601.5,1281.5L605.1,1279.5L608.5,1271.5L611.2,1269.6L616.8,1266.9L619.2,1264.6L620.9,1261.6L620.9,1258.4L618.7,1255.3L624.2,1237.7L624.9,1231.2L624.3,1224.8L626.0,1217.7L627.7,1214.8L626.4,1206.0L626.4,1198.8L628.4,1193.3L641.4,1177.7L643.4,1172.9L646.2,1170.2L651.7,1167.1L659.7,1160.3L681.3,1150.2L697.4,1145.1L728.6,1139.7Z " data-id="OM.JA" data-name="Dhofar" id="OM.JA"/>
utf-8utf-8<path d="M589.2,440.5L572.2,390.8L529.4,353.9L507.9,344.2L505.0,359.5L489.4,359.5L470.5,363.7L463.7,369.1L464.9,381.9L457.1,386.1L452.3,393.6L459.0,416.0L450.5,422.4L433.5,427.7L420.5,436.2L402.2,434.3L400.7,437.3L394.2,447.0L393.2,452.1L391.8,467.4L389.8,476.7L379.4,500.3L376.6,515.0L379.4,541.9L380.0,564.3L447.3,668.3L448.9,671.7L449.3,675.2L445.9,692.5L449.0,691.9L539.9,669.6L562.9,633.1L577.9,565.2L591.8,443.7L589.2,440.5Z " data-id="OM.ZA" data-name="Al Dhahira" id="OM.ZA"/>
utf-8utf-8<path d="M670.4,390.4L645.6,383.5L626.0,375.8L621.4,372.8L608.1,362.2L591.0,348.0L576.3,331.4L574.7,327.0L573.2,324.2L569.9,319.3L553.5,300.6L545.4,293.5L541.8,289.7L523.0,258.4L521.5,252.0L520.2,248.5L518.6,246.9L508.2,228.2L504.0,215.8L496.9,216.7L495.8,218.2L495.9,223.2L495.5,228.5L492.1,231.3L487.6,236.6L485.3,237.8L480.5,238.5L477.0,245.2L474.6,248.8L473.0,253.0L467.8,253.9L467.6,253.9L468.1,260.1L488.1,284.2L505.8,330.9L507.9,344.2L529.4,353.9L572.2,390.8L589.2,440.5L591.8,443.7L629.8,441.7L645.5,436.0L661.1,420.5L673.6,391.8L670.4,390.4Z " data-id="OM.BS" data-name="Al Batnah North" id="OM.BS"/>
utf-8utf-8<path d="M494.3,167.4L488.9,166.3L486.0,162.3L482.0,161.7L478.8,164.6L480.8,169.9L479.7,171.5L476.4,173.3L476.9,178.6L480.7,180.1L482.8,179.1L487.7,174.8L494.1,171.6L494.3,167.4Z M482.8,170.2L486.6,170.8L486.2,173.3L483.7,174.3L482.8,170.2Z M477.0,0.0L477.5,5.6L475.6,9.5L473.4,10.3L473.0,11.7L474.6,12.2L479.0,16.3L478.5,18.6L476.7,17.9L472.5,14.6L472.8,17.1L472.8,25.2L474.3,25.8L478.6,21.9L482.8,22.1L485.7,25.0L485.5,26.3L480.4,25.2L479.1,25.6L475.8,28.3L472.2,27.7L471.5,29.4L470.8,26.7L469.0,25.0L462.5,25.9L460.4,27.3L461.0,24.3L459.2,21.8L456.9,20.1L455.7,21.5L453.4,28.3L446.4,42.8L445.3,49.8L448.3,49.5L454.8,47.7L456.3,47.9L459.0,53.8L460.1,56.9L459.8,64.3L460.8,78.1L460.2,80.3L458.1,84.0L457.7,86.3L458.6,88.9L462.1,93.3L462.9,95.2L462.2,97.2L459.5,100.2L459.6,102.8L461.0,109.6L462.8,111.9L465.9,112.5L467.2,113.5L469.9,117.8L472.1,118.4L479.4,116.3L477.0,109.4L477.3,103.8L478.6,98.8L480.0,95.5L480.4,98.8L485.1,91.4L487.4,88.8L488.1,80.8L489.9,77.5L490.4,74.2L487.9,70.5L489.0,69.0L493.1,69.4L495.2,70.5L496.7,67.3L493.7,66.4L489.8,62.2L489.0,60.6L491.7,58.5L491.3,55.6L489.3,53.9L486.2,55.8L485.5,53.3L486.5,52.0L490.1,50.4L493.9,47.9L496.6,44.1L484.8,44.2L482.1,43.1L482.3,37.8L481.4,36.8L479.1,39.0L478.4,42.1L477.0,36.3L477.5,34.6L476.3,32.7L477.9,29.8L480.9,27.8L484.0,28.3L482.4,30.9L482.7,32.5L486.0,30.5L486.4,33.0L487.6,34.9L489.2,35.6L491.0,34.6L495.1,36.8L496.6,36.8L495.4,34.0L491.3,31.2L489.5,29.4L489.7,26.7L489.0,25.2L491.8,25.2L493.0,28.2L494.1,27.7L496.0,23.1L494.3,21.0L490.6,23.1L488.7,22.5L483.7,18.0L490.0,10.4L492.1,9.5L497.2,9.5L497.3,8.0L495.5,4.2L492.9,5.2L494.2,8.4L487.8,7.4L485.2,5.2L484.1,6.3L483.7,3.2L480.1,4.2L477.9,0.0L477.0,0.0Z " data-id="OM.MU" data-name="Musandam" id="OM.MU"/>
utf-8utf-8<path d="M914.2,532.3L911.4,527.6L907.7,523.4L902.9,519.8L895.4,515.4L890.1,510.4L888.2,504.6L878.9,495.4L876.9,486.3L874.6,483.3L870.2,479.1L868.7,476.7L865.8,470.2L863.6,467.4L858.6,465.1L850.1,457.3L848.1,454.4L846.1,447.4L844.8,445.3L845.0,443.0L843.9,440.4L840.3,435.9L837.5,435.9L837.0,437.3L834.7,434.8L834.1,436.9L833.1,436.9L829.2,432.7L826.3,432.7L822.6,429.2L819.3,423.1L818.0,421.2L815.2,419.8L812.1,419.2L806.4,419.0L802.7,418.3L802.0,421.1L798.2,423.3L792.9,424.5L786.5,424.6L780.3,423.8L775.6,422.2L773.0,420.1L767.6,414.9L762.9,413.3L754.4,409.6L753.9,409.5L753.4,411.1L753.7,411.1L751.6,433.0L756.5,448.1L756.5,448.1L784.7,444.0L821.6,480.7L818.9,515.5L861.3,544.3L905.3,550.4L913.1,540.1L915.7,535.7L914.2,532.3Z " data-id="OM.MA" data-name="Muscat" id="OM.MA"/>
utf-8utf-8<path d="M402.2,434.3L420.5,436.2L433.5,427.7L450.5,422.4L459.0,416.0L452.3,393.6L457.1,386.1L464.9,381.9L463.7,369.1L470.5,363.7L489.4,359.5L505.0,359.5L507.9,344.2L505.8,330.9L488.1,284.2L468.1,260.1L467.6,253.9L465.7,253.6L461.3,250.2L456.3,239.6L450.9,234.9L449.7,232.6L450.0,230.7L452.2,229.9L455.9,231.3L459.3,233.8L456.6,223.7L454.6,219.2L445.1,215.9L440.1,217.3L432.0,224.6L428.6,229.9L427.7,234.7L430.0,246.5L430.4,255.0L434.2,264.2L435.0,267.1L431.6,270.7L431.4,275.9L428.6,280.1L432.0,298.1L438.0,306.1L438.2,313.5L437.6,315.7L433.5,325.4L432.7,328.1L433.1,330.4L434.8,331.3L443.2,333.2L445.5,333.3L452.5,330.1L456.7,331.9L459.3,337.4L461.5,343.9L467.3,353.3L466.1,355.7L458.0,357.9L443.3,364.6L440.8,364.2L437.1,361.4L430.6,362.8L426.3,362.0L421.9,361.9L418.2,362.6L414.7,364.2L408.7,367.9L403.3,370.2L397.7,371.4L397.4,373.6L398.8,376.3L401.2,378.5L406.3,381.6L408.8,384.9L409.8,389.3L411.3,400.9L411.0,403.0L405.7,412.7L404.8,415.3L402.2,434.3Z " data-id="OM.BU" data-name="Al Buraymi" id="OM.BU"/>
utf-8utf-8<path d="M818.9,515.5L799.4,520.8L778.9,536.0L770.8,537.0L742.9,562.6L732.6,591.9L776.7,716.3L809.7,702.9L900.5,666.1L927.7,649.3L943.1,639.9L947.8,621.5L947.2,601.0L943.9,593.0L943.0,585.4L949.4,577.2L945.0,574.9L939.0,569.3L937.0,566.9L936.0,564.5L929.9,555.4L924.8,552.6L922.2,550.6L920.2,545.4L915.7,535.7L913.1,540.1L905.3,550.4L861.3,544.3L818.9,515.5Z " data-id="OM.SN" data-name="Ash Sharqiyah North" id="OM.SN"/>
utf-8utf-8<path d="M748.4,408.3L742.6,407.9L725.5,408.9L722.1,408.5L718.2,406.4L714.9,405.5L713.4,404.4L709.0,399.1L706.6,398.5L697.7,399.1L694.6,398.9L689.1,397.8L681.0,395.2L673.6,391.8L661.1,420.5L645.5,436.0L629.8,441.7L673.0,484.4L688.5,486.3L693.8,488.9L727.1,483.0L730.2,473.5L756.5,448.1L751.6,433.0L753.7,411.1L753.4,411.1L753.9,409.5L748.4,408.3Z " data-id="OM.BS" data-name="Al Batnah South" id="OM.BS"/>
utf-8</g>
</svg>
