<?xml version="1.0" ?>
<!DOCTYPE svg
  PUBLIC '-//W3C//DTD SVG 1.1//EN'
  'http://www.w3.org/Graphics/SVG/1.1/DTD/svg11.dtd'>
<svg enable_background="new 0 0 1000 469" height="469px" pretty_print="True" style="stroke-linejoin: round; stroke:#000; fill: none;" version="1.1" viewBox="0 0 1000 469" width="1000px" xmlns="http://www.w3.org/2000/svg" xmlns:xlink="http://www.w3.org/1999/xlink">
utf-8<defs>
utf-8utf-8<style type="text/css">
<![CDATA[path { fill-rule: evenodd; }]]>utf-8utf-8</style>
utf-8</defs>
utf-8<metadata>
utf-8utf-8<views>
utf-8utf-8utf-8<view h="469.92813848" padding="0" w="1000">
utf-8utf-8utf-8utf-8<proj flip="auto" id="robinson" lon0="-82.5162347079"/>
utf-8utf-8utf-8utf-8<bbox h="40.64" w="86.67" x="-1226.15" y="-161.47"/>
utf-8utf-8utf-8</view>
utf-8utf-8</views>
utf-8</metadata>
utf-8<g class="" id="provinces">
utf-8utf-8<path d="M118.9,297.5L123.9,295.3L123.8,289.4L121.8,289.5L119.9,290.8L116.4,297.8L118.9,297.5Z M141.7,273.6L132.8,269.5L127.1,271.3L125.5,273.1L126.6,276.1L132.4,277.5L136.9,281.5L135.9,275.5L137.1,274.7L143.0,276.1L141.7,273.6Z M125.7,262.9L125.9,261.0L124.0,259.0L120.4,257.9L111.2,264.9L106.3,264.4L107.2,267.0L109.2,270.0L111.5,272.4L113.4,273.5L116.3,272.7L122.4,269.2L125.9,268.2L121.3,264.4L121.4,262.9L124.0,263.8L125.7,262.9Z M61.2,141.2L56.0,144.7L38.0,152.8L35.9,154.4L34.1,156.8L36.2,158.7L36.0,161.3L34.3,163.4L29.1,166.9L27.6,168.6L27.3,171.5L29.3,176.7L34.3,183.5L36.9,188.0L38.8,193.0L39.8,198.8L40.1,212.3L39.3,219.1L37.4,224.8L33.4,230.0L28.8,232.4L23.9,234.1L18.9,236.9L10.9,245.0L2.9,249.9L1.4,251.3L1.1,253.7L2.5,255.6L7.1,258.8L10.4,263.4L15.1,262.8L18.0,264.6L19.0,266.6L19.5,272.7L27.4,294.8L26.1,303.5L28.2,310.0L29.8,308.3L31.0,305.1L33.3,302.6L33.4,301.4L30.0,288.3L29.2,280.2L30.1,272.3L32.9,265.5L37.1,260.8L42.4,257.5L54.7,253.3L61.4,252.2L68.2,252.3L74.3,253.7L85.9,259.1L92.7,261.2L97.1,260.3L102.9,260.3L100.9,255.0L101.0,253.7L104.2,252.1L105.5,247.2L107.3,245.8L107.9,250.4L109.3,252.3L106.1,253.5L106.4,255.8L108.7,258.0L111.8,259.0L114.1,258.3L119.0,255.5L121.8,255.0L121.0,249.7L123.9,250.9L126.9,250.7L132.8,248.3L131.8,252.4L132.9,254.9L135.5,256.1L138.8,256.4L142.0,249.0L149.0,248.3L146.2,249.1L144.8,250.5L143.3,254.8L142.8,263.6L144.5,269.5L142.0,271.0L141.9,272.3L143.6,273.0L145.6,275.5L147.0,276.1L149.4,275.6L152.4,273.7L154.7,273.5L153.5,275.3L152.2,278.9L153.8,278.2L153.8,279.6L152.0,284.1L154.4,283.7L159.2,273.0L159.7,269.5L160.7,269.5L163.4,272.0L168.8,274.0L174.3,274.4L176.9,272.3L180.3,275.7L182.6,277.4L183.7,276.8L184.6,274.2L186.6,271.9L191.0,269.5L187.9,274.8L187.1,277.6L188.9,278.9L191.2,279.2L198.2,281.1L199.7,282.2L212.7,288.1L215.6,290.7L216.7,290.7L221.7,284.1L219.9,283.5L221.0,277.5L222.1,277.5L222.4,281.1L223.9,284.1L227.4,289.4L232.6,301.4L228.3,301.1L224.4,300.0L224.4,301.4L226.9,303.0L227.0,308.5L228.7,310.5L230.2,304.0L231.1,306.0L233.2,313.3L234.3,315.1L234.3,315.1L237.9,314.0L245.3,288.5L246.9,285.2L251.3,280.6L262.3,266.1L263.0,260.3L262.8,254.6L262.1,248.6L261.9,241.3L257.6,240.1L250.0,242.8L246.7,247.4L244.0,254.0L242.2,257.2L238.3,260.2L234.1,261.0L232.7,257.3L230.1,257.6L228.0,260.9L225.1,264.0L216.3,263.6L211.6,259.1L209.0,253.1L204.6,251.5L188.9,251.3L180.8,248.9L177.6,243.0L177.3,237.0L174.9,233.9L172.3,228.3L170.6,225.5L169.0,224.3L158.8,227.8L153.5,227.9L150.9,226.2L151.9,221.4L158.2,207.0L156.6,204.8L156.2,200.7L157.8,195.0L160.2,178.7L158.5,167.3L142.0,165.5L136.8,164.6L133.8,163.6L130.8,161.8L123.6,158.6L123.3,158.4L109.6,151.1L101.9,148.3L95.6,148.0L93.9,143.7L92.1,142.0L89.5,140.9L79.8,140.3L68.2,141.9L63.8,136.9L61.2,141.2Z " data-id="PA.CH" data-name="Chiriquí" id="PA.CH"/>
utf-8utf-8<path d="M500.9,130.3L497.6,126.1L496.7,117.3L494.6,112.3L492.7,116.2L491.5,121.8L490.2,124.2L484.5,128.5L470.3,143.0L467.5,145.3L465.1,146.2L459.3,145.0L455.7,143.8L453.6,142.2L438.4,135.7L435.7,137.5L433.5,144.6L433.1,146.4L434.4,150.0L434.5,156.0L432.5,161.9L427.8,165.0L424.9,166.0L417.4,165.2L413.7,166.5L409.0,172.0L405.6,180.6L405.6,188.7L405.1,190.7L401.3,196.1L397.3,195.8L395.0,201.4L390.0,207.7L384.6,208.7L382.5,210.7L386.0,214.4L389.2,219.7L392.7,227.6L398.4,247.2L402.1,254.9L401.2,261.1L398.2,270.7L393.3,279.7L393.9,283.0L401.6,289.0L405.6,290.6L408.4,290.4L414.8,288.1L417.9,287.8L420.2,288.9L424.7,294.1L428.7,292.1L434.5,296.2L436.7,296.9L437.1,296.3L437.4,294.0L437.7,275.5L439.3,272.0L450.6,259.9L453.8,257.6L454.5,254.5L458.4,257.6L463.0,259.0L467.4,256.9L473.5,257.6L481.7,256.4L486.8,254.2L506.9,242.8L513.9,237.7L513.9,237.7L507.4,228.5L505.9,223.7L505.8,212.9L504.5,208.1L505.2,200.3L504.9,193.6L504.1,190.4L500.9,168.7L497.3,154.2L497.4,149.6L498.0,146.2L499.2,143.0L503.4,136.5L502.9,131.3L500.9,130.3Z " data-id="PA.CC" data-name="Coclé" id="PA.CC"/>
utf-8utf-8<path d="M379.1,143.7L379.1,149.8L380.5,153.8L386.3,159.6L395.2,164.1L398.5,168.7L400.3,173.6L397.6,181.2L400.2,189.8L397.3,195.8L401.3,196.1L405.1,190.7L405.6,188.7L405.6,180.6L409.0,172.0L413.7,166.5L417.4,165.2L424.9,166.0L427.8,165.0L432.5,161.9L434.5,156.0L434.4,150.0L433.1,146.4L433.5,144.6L435.7,137.5L438.4,135.7L453.6,142.2L455.7,143.8L459.3,145.0L465.1,146.2L467.5,145.3L470.3,143.0L484.5,128.5L490.2,124.2L491.5,121.8L492.7,116.2L494.6,112.3L496.7,117.3L497.6,126.1L500.9,130.3L502.9,131.3L510.9,124.6L517.9,127.6L522.7,128.0L529.0,125.8L534.2,122.1L536.3,116.9L536.4,114.0L534.0,105.4L542.1,87.7L544.7,84.7L547.6,84.1L552.8,86.9L557.4,88.1L560.9,91.0L563.8,97.1L565.6,99.4L569.3,100.4L578.1,100.3L581.0,99.1L584.2,96.8L589.3,90.1L590.7,84.8L596.1,81.5L599.0,80.5L602.6,76.9L602.1,73.5L603.6,66.6L606.2,60.0L607.3,50.9L612.6,33.8L619.1,30.9L626.8,29.0L633.6,31.5L635.0,32.8L638.3,38.8L633.1,43.7L633.5,45.1L638.3,44.2L648.7,41.4L651.7,41.4L657.2,43.8L657.9,44.9L656.1,49.0L659.2,51.3L659.4,55.9L658.1,57.6L658.6,59.6L659.3,59.6L662.7,56.7L667.6,53.4L673.8,50.7L675.3,49.7L677.4,46.2L677.8,43.2L682.1,36.7L683.9,35.4L687.9,34.4L688.7,33.2L689.9,13.0L688.9,13.1L682.7,14.9L675.9,14.4L672.7,15.4L669.4,17.3L661.6,16.2L656.1,14.0L645.6,10.6L636.2,9.4L629.8,7.7L626.1,8.1L625.3,6.4L623.8,11.6L618.1,8.9L614.4,11.6L612.2,8.9L612.3,7.7L614.1,6.6L612.7,1.0L609.7,0.0L605.2,2.2L601.8,3.4L599.1,3.0L596.0,4.0L592.4,7.7L589.9,8.9L586.7,12.5L587.6,13.7L591.1,12.4L591.8,13.4L590.4,14.9L587.3,16.2L584.5,25.8L580.3,28.9L577.1,34.0L574.2,36.1L569.0,38.2L566.3,40.8L564.5,44.2L564.4,46.8L565.6,54.0L561.7,46.0L558.0,44.1L554.7,44.4L552.9,43.5L551.2,45.3L553.1,48.7L551.1,50.3L551.6,55.2L548.4,52.7L547.3,54.5L546.9,58.4L545.4,62.0L543.6,63.0L541.9,62.8L539.3,58.6L540.1,51.3L538.5,49.4L534.1,51.3L530.5,57.4L530.0,59.6L525.4,64.2L518.4,70.8L511.9,78.6L506.9,81.7L501.1,84.2L494.7,86.1L488.7,86.9L481.3,91.3L478.6,92.3L458.9,94.0L441.8,100.1L429.2,105.9L419.1,111.5L416.2,114.7L413.7,115.8L407.3,119.9L403.3,122.0L400.6,125.4L399.0,126.0L396.8,129.3L395.0,130.5L385.9,142.6L382.1,143.8L379.1,143.7Z " data-id="PA.CL" data-name="Colón" id="PA.CL"/>
utf-8utf-8<path d="M401.6,289.0L397.7,289.3L392.2,289.5L388.1,294.8L385.2,297.6L372.6,303.0L374.8,311.5L374.5,314.5L371.0,320.4L365.9,325.3L362.2,329.7L357.8,330.9L355.8,333.6L354.2,355.4L354.7,359.8L358.7,358.6L362.3,362.2L363.2,365.3L364.1,370.8L364.9,373.4L377.0,395.4L381.9,398.8L386.4,400.3L390.6,405.4L400.4,395.0L409.7,379.6L413.0,378.3L417.9,374.3L419.9,370.8L420.6,368.2L420.1,363.1L417.6,358.3L417.6,352.2L416.8,351.0L422.8,345.2L425.0,342.4L430.6,331.7L432.9,329.4L438.5,327.6L443.8,327.8L446.0,327.3L447.9,325.8L449.9,322.9L450.8,319.4L453.3,315.1L452.1,314.7L450.2,313.1L443.9,309.9L441.4,309.3L439.9,307.6L438.2,300.1L435.6,298.6L436.6,296.9L436.7,296.9L434.5,296.2L428.7,292.1L424.7,294.1L420.2,288.9L417.9,287.8L414.8,288.1L408.4,290.4L405.6,290.6L401.6,289.0Z " data-id="PA.HE" data-name="Herrera" id="PA.HE"/>
utf-8utf-8<path d="M407.7,461.9L429.9,458.7L436.2,460.1L437.6,458.9L438.6,454.8L443.1,452.3L443.6,450.2L446.6,447.3L452.1,446.2L452.7,444.4L450.0,439.0L450.9,433.9L455.6,430.2L468.0,425.7L466.9,424.5L462.0,426.7L459.8,427.0L459.9,425.7L468.1,423.0L469.7,424.7L474.2,425.9L476.2,427.0L478.3,425.6L489.0,425.7L501.3,420.6L509.3,419.4L510.7,417.8L513.7,410.4L514.0,406.7L512.2,401.0L505.0,384.6L490.5,362.3L480.7,351.7L465.1,337.1L463.1,331.7L461.0,323.6L457.7,316.6L453.3,315.1L450.8,319.4L449.9,322.9L447.9,325.8L446.0,327.3L443.8,327.8L438.5,327.6L432.9,329.4L430.6,331.7L425.0,342.4L422.8,345.2L416.8,351.0L417.6,352.2L417.6,358.3L420.1,363.1L420.6,368.2L419.9,370.8L417.9,374.3L413.0,378.3L409.7,379.6L400.4,395.0L390.6,405.4L389.9,410.8L390.8,419.0L393.0,428.3L397.1,435.1L398.0,439.6L397.6,445.3L400.0,446.2L404.9,450.3L406.6,452.5L407.6,455.2L407.7,461.9L407.7,461.9Z " data-id="PA.LS" data-name="Los Santos" id="PA.LS"/>
utf-8utf-8<path d="M716.6,262.4L716.4,259.8L714.8,261.0L714.9,262.9L716.6,262.4Z M678.4,264.2L675.6,261.6L675.0,257.5L673.0,253.3L671.0,253.3L668.8,256.0L667.8,259.1L668.4,261.0L666.2,264.9L665.6,267.4L668.2,274.2L670.5,273.9L672.5,270.2L671.8,265.7L674.0,264.4L675.8,265.4L678.4,264.2Z M723.0,242.4L720.1,238.3L718.8,240.4L722.3,243.4L723.0,242.4Z M673.2,233.7L671.0,231.7L668.8,236.4L674.9,241.7L676.3,240.7L677.4,237.6L676.2,236.7L677.0,234.3L674.8,236.1L673.2,233.7Z M714.7,227.0L710.3,223.0L709.1,227.3L707.0,223.8L700.0,227.2L698.5,226.0L696.4,226.1L695.6,228.8L697.1,233.9L696.8,235.8L697.4,239.2L695.7,243.2L698.0,247.7L697.3,251.0L696.0,252.6L695.1,255.7L700.0,260.0L701.0,261.8L701.9,266.3L701.5,269.1L705.5,272.2L704.4,269.4L704.3,265.6L702.7,263.3L703.3,260.0L706.8,254.9L707.5,257.1L711.1,256.4L714.0,257.5L715.1,254.3L716.8,252.7L718.5,248.4L716.4,243.4L716.9,241.0L718.4,239.9L718.8,237.7L717.8,235.2L715.7,234.8L715.4,229.1L714.7,227.0Z M693.9,225.2L693.2,223.0L696.0,220.3L694.7,220.4L688.7,224.0L693.3,226.3L695.1,227.9L693.9,225.2Z M681.3,221.1L682.4,220.4L681.5,217.5L680.1,218.9L680.3,221.6L681.3,221.1Z M688.2,199.2L686.6,201.1L688.6,201.8L688.2,199.2Z M590.0,196.2L588.9,198.2L592.1,200.2L591.4,197.1L590.0,196.2Z M682.5,197.2L684.0,194.1L682.0,191.8L680.9,194.9L682.5,197.2Z M599.0,159.2L597.8,160.4L598.9,163.7L600.2,163.4L602.1,164.8L602.5,163.7L599.0,159.2Z M608.0,159.1L608.0,157.0L606.5,158.4L608.0,159.1Z M674.5,132.4L674.1,129.3L673.7,130.8L674.5,132.4Z M502.9,131.3L503.4,136.5L499.2,143.0L498.0,146.2L497.4,149.6L497.3,154.2L500.9,168.7L504.1,190.4L504.9,193.6L505.2,200.3L504.5,208.1L505.8,212.9L505.9,223.7L507.4,228.5L513.9,237.7L526.4,228.8L531.4,223.7L533.3,220.1L537.0,217.9L539.8,215.2L545.4,207.9L552.0,206.2L561.0,202.7L568.1,195.7L574.1,190.7L574.8,187.7L574.0,187.7L566.0,192.7L560.4,195.2L554.7,193.7L552.7,191.3L555.5,189.7L558.5,188.9L558.9,186.5L563.3,184.9L566.0,181.4L568.5,175.0L566.3,172.3L566.2,160.8L567.1,157.1L568.6,154.3L571.1,151.6L573.9,150.0L576.8,150.5L575.8,147.9L579.7,147.1L583.8,149.1L583.1,145.6L585.6,144.2L593.4,142.6L597.2,144.2L599.8,142.2L600.8,138.0L599.8,133.3L600.0,129.3L601.1,129.3L601.9,132.7L604.0,136.3L606.6,139.4L608.7,141.2L608.2,138.9L605.5,133.3L607.4,132.6L608.1,128.0L613.1,124.7L614.8,121.8L619.5,120.3L625.8,118.8L627.2,120.1L631.2,117.9L640.7,118.9L645.0,117.4L650.4,117.8L664.0,120.5L666.9,119.4L667.4,117.1L669.2,120.1L676.9,122.6L679.4,120.3L682.2,114.7L682.0,110.6L680.1,108.9L677.9,108.2L677.3,105.4L678.2,104.6L682.7,103.7L685.7,100.7L689.1,96.2L693.0,99.0L697.2,94.8L698.6,94.3L701.1,95.2L696.0,97.6L693.1,100.1L691.4,100.2L690.1,97.6L689.0,97.6L687.8,100.8L685.8,103.5L682.9,105.2L679.2,105.5L679.1,106.9L682.3,107.3L683.6,109.4L683.4,116.7L681.7,120.7L682.5,123.7L686.6,127.1L695.4,129.3L717.0,142.5L718.3,149.4L719.3,152.4L722.4,156.8L724.1,157.6L726.7,157.1L729.5,155.6L730.7,153.6L730.5,151.1L729.3,147.9L733.7,153.6L736.2,154.5L734.8,157.1L737.3,159.8L740.3,168.0L743.5,170.3L748.2,170.2L753.0,177.9L756.0,174.4L758.6,174.9L758.8,172.1L758.3,168.1L758.7,165.0L760.0,165.0L760.6,168.6L760.6,172.6L759.5,176.1L757.0,178.3L759.3,185.3L760.7,186.2L764.6,185.2L765.9,186.2L768.4,185.0L766.9,188.9L777.3,192.2L776.7,198.9L777.6,200.9L780.2,203.4L778.1,204.4L772.1,203.4L774.0,205.8L778.6,213.3L779.6,216.7L778.0,223.2L778.6,228.1L781.0,232.6L782.4,228.4L783.7,227.3L785.4,233.3L785.3,236.7L784.3,239.1L786.1,240.3L789.8,245.8L790.8,246.4L790.8,246.4L790.6,237.8L788.3,226.6L788.1,222.3L786.2,216.4L785.8,211.6L786.1,209.1L784.4,206.4L785.9,199.1L786.9,191.2L788.3,186.2L789.4,184.0L790.9,176.6L789.9,170.1L788.2,156.3L790.3,154.3L798.3,151.3L803.5,152.1L807.5,153.7L810.1,157.8L812.2,158.8L815.5,157.0L817.3,151.9L819.0,149.9L824.0,147.4L827.6,146.5L833.7,146.7L837.0,145.1L839.4,140.9L842.4,138.1L845.5,136.5L849.8,135.4L851.7,134.2L852.6,132.4L853.0,121.3L855.3,114.8L859.0,109.7L860.1,107.4L856.6,100.7L853.6,98.6L842.1,95.4L840.7,93.4L843.5,88.1L842.9,84.0L840.5,81.8L838.2,84.8L828.7,84.2L824.8,84.6L822.6,81.9L821.3,76.8L819.0,71.8L812.7,75.2L806.8,74.8L801.9,75.0L798.7,73.6L798.1,67.6L795.2,64.6L793.5,61.2L790.8,59.5L787.1,61.9L786.4,61.3L783.0,54.0L781.5,53.7L777.9,57.5L768.8,59.9L766.2,60.1L763.2,59.4L760.9,57.7L755.2,52.6L751.6,49.9L748.9,49.8L748.4,53.2L746.4,55.0L744.1,53.8L741.4,50.3L732.8,52.6L727.6,51.8L721.0,52.8L718.8,55.0L714.6,55.6L710.9,55.0L710.3,58.2L709.2,58.8L704.7,58.2L700.4,60.3L698.9,62.3L699.9,66.6L697.6,67.9L689.9,68.1L687.3,67.9L683.8,64.1L678.0,61.8L670.9,62.1L659.0,66.2L653.3,67.5L651.9,64.9L652.4,62.9L654.8,59.4L658.1,57.6L659.4,55.9L659.2,51.3L656.1,49.0L657.9,44.9L657.2,43.8L651.7,41.4L648.7,41.4L638.3,44.2L633.5,45.1L633.1,43.7L638.3,38.8L635.0,32.8L633.6,31.5L626.8,29.0L619.1,30.9L612.6,33.8L607.3,50.9L606.2,60.0L603.6,66.6L602.1,73.5L602.6,76.9L599.0,80.5L596.1,81.5L590.7,84.8L589.3,90.1L584.2,96.8L581.0,99.1L578.1,100.3L569.3,100.4L565.6,99.4L563.8,97.1L560.9,91.0L557.4,88.1L552.8,86.9L547.6,84.1L544.7,84.7L542.1,87.7L534.0,105.4L536.4,114.0L536.3,116.9L534.2,122.1L529.0,125.8L522.7,128.0L517.9,127.6L510.9,124.6L502.9,131.3Z " data-id="PA.SB" data-name="Panama" id="PA.SB"/>
utf-8utf-8<path d="M203.5,451.4L201.5,451.9L201.8,455.3L204.1,464.0L204.2,461.5L208.2,454.1L210.4,452.2L203.5,451.4Z M335.5,400.7L337.7,396.5L328.4,395.4L323.2,396.7L317.8,399.3L313.3,405.0L307.1,406.1L305.0,407.0L299.7,413.0L300.8,413.0L305.6,411.2L310.1,412.4L313.7,408.5L318.6,405.8L321.1,402.4L324.4,402.0L328.9,404.6L334.0,402.5L335.5,400.7Z M218.3,383.3L214.7,383.3L215.7,388.6L214.4,388.6L207.7,392.9L204.5,393.7L202.2,396.4L201.2,401.9L198.5,407.2L192.7,407.9L193.7,413.0L195.4,415.3L198.9,424.5L205.7,431.3L208.8,433.5L212.7,438.6L214.4,440.3L217.6,441.1L224.9,441.7L230.6,445.6L234.3,445.6L241.2,442.9L236.9,433.0L235.9,431.6L230.7,432.2L226.4,432.0L225.3,431.4L223.8,425.8L220.9,422.7L219.9,420.3L222.1,412.4L227.7,410.0L228.7,409.1L228.0,404.9L225.0,403.1L223.6,403.3L218.3,383.3Z M407.7,461.9L407.6,455.2L406.6,452.5L404.9,450.3L400.0,446.2L397.6,445.3L398.0,439.6L397.1,435.1L393.0,428.3L390.8,419.0L389.9,410.8L390.6,405.4L386.4,400.3L381.9,398.8L377.0,395.4L364.9,373.4L364.1,370.8L363.2,365.3L362.3,362.2L358.7,358.6L354.7,359.8L354.2,355.4L355.8,333.6L357.8,330.9L362.2,329.7L365.9,325.3L371.0,320.4L374.5,314.5L374.8,311.5L372.6,303.0L385.2,297.6L388.1,294.8L392.2,289.5L397.7,289.3L401.6,289.0L393.9,283.0L393.3,279.7L398.2,270.7L401.2,261.1L402.1,254.9L398.4,247.2L392.7,227.6L389.2,219.7L386.0,214.4L382.5,210.7L384.6,208.7L390.0,207.7L395.0,201.4L397.3,195.8L400.2,189.8L397.6,181.2L400.3,173.6L398.5,168.7L395.2,164.1L386.3,159.6L380.5,153.8L379.1,149.8L379.1,143.7L375.8,143.6L372.8,144.7L359.6,150.8L346.0,155.8L341.3,159.2L340.0,158.4L332.7,159.8L318.6,161.7L318.0,161.7L316.6,168.3L317.8,182.5L316.6,194.2L316.9,201.4L317.7,205.4L320.3,209.5L322.8,215.9L325.3,218.9L320.6,220.1L306.9,215.8L304.1,213.7L296.6,206.8L295.1,206.4L290.6,207.4L282.7,206.7L279.1,203.2L274.0,201.8L269.8,199.3L269.1,207.2L267.2,214.9L262.7,225.7L261.7,231.7L261.9,241.3L262.1,248.6L262.8,254.6L263.0,260.3L262.3,266.1L251.3,280.6L246.9,285.2L245.3,288.5L237.9,314.0L234.3,315.1L237.1,319.8L238.1,324.4L240.2,325.2L240.0,318.1L243.4,317.2L242.7,319.6L242.8,322.4L242.0,323.8L245.2,329.1L242.3,327.8L241.2,329.6L240.2,335.8L242.7,335.8L244.0,338.2L242.4,339.6L244.6,342.4L245.7,341.4L249.3,342.4L249.3,343.7L246.7,347.1L245.4,352.3L246.1,354.5L248.4,357.8L247.2,360.8L249.1,361.6L252.9,364.8L253.3,361.4L255.2,360.8L261.7,363.0L259.7,365.0L255.0,367.4L255.1,370.3L258.8,372.1L263.8,372.6L267.8,371.5L271.4,375.9L272.0,378.1L276.7,377.6L290.5,382.0L294.5,382.0L296.5,382.9L297.3,385.3L298.5,385.5L305.3,390.1L310.2,386.0L310.4,380.7L311.6,372.3L310.9,370.2L305.0,372.7L302.8,368.7L307.5,368.7L305.7,365.2L303.0,363.5L303.1,362.0L307.8,362.0L306.9,365.9L307.6,367.4L311.3,364.4L315.3,360.3L317.2,355.3L314.4,348.6L315.6,344.4L312.2,342.4L309.4,339.5L309.0,337.9L311.3,337.1L309.1,334.4L312.2,335.1L313.2,341.0L319.5,342.8L321.5,344.6L323.1,345.0L330.8,345.0L329.4,342.9L327.6,338.3L328.7,338.3L330.5,342.0L333.2,339.4L337.2,331.7L336.3,343.7L337.2,348.8L341.2,346.3L342.2,346.3L341.9,348.8L335.1,350.7L330.7,354.3L330.5,357.2L332.0,360.0L335.8,360.8L335.5,362.8L340.4,363.5L336.9,369.3L337.2,370.2L342.6,373.7L343.3,375.3L341.3,374.7L337.4,378.1L337.0,379.9L340.6,382.0L348.4,391.3L347.0,393.9L350.8,397.7L352.3,400.4L350.5,407.8L348.4,409.2L356.7,419.9L357.4,422.4L355.3,428.3L355.1,432.0L359.3,434.9L359.9,438.1L359.6,441.7L355.0,449.8L355.0,453.9L352.5,456.8L352.5,458.1L355.7,459.0L359.3,461.5L361.8,466.6L363.6,467.9L366.1,465.3L368.0,466.5L375.3,466.4L389.0,465.9L407.7,461.9Z " data-id="PA.VR" data-name="Veraguas" id="PA.VR"/>
utf-8utf-8<path d="M916.4,162.8L915.4,160.1L913.6,157.4L907.3,150.4L902.8,147.3L898.3,143.6L893.9,140.7L890.4,132.8L881.5,122.1L876.6,117.5L864.7,107.4L860.1,107.4L859.0,109.7L855.3,114.8L853.0,121.3L852.6,132.4L851.7,134.2L849.8,135.4L845.5,136.5L842.4,138.1L839.4,140.9L837.0,145.1L833.7,146.7L827.6,146.5L824.0,147.4L819.0,149.9L817.3,151.9L815.5,157.0L812.2,158.8L810.1,157.8L807.5,153.7L803.5,152.1L798.3,151.3L790.3,154.3L788.2,156.3L789.9,170.1L790.9,176.6L789.4,184.0L788.3,186.2L786.9,191.2L785.9,199.1L784.4,206.4L786.1,209.1L785.8,211.6L786.2,216.4L788.1,222.3L788.3,226.6L790.6,237.8L790.8,246.4L791.1,246.6L794.2,249.7L799.4,238.5L798.8,235.3L795.8,232.3L794.6,223.1L792.0,213.5L792.8,208.8L793.9,208.8L793.7,212.7L794.9,214.0L796.0,217.9L797.2,229.4L798.6,232.6L801.1,231.8L804.4,228.4L806.9,224.6L807.2,222.1L808.5,220.6L809.8,226.9L811.2,229.0L813.9,228.5L816.5,223.3L818.7,220.4L818.0,218.0L820.7,219.0L820.8,220.9L818.8,224.6L817.1,225.6L817.6,227.3L820.1,229.6L820.8,231.2L823.2,230.0L822.2,226.4L824.6,221.4L825.0,218.0L821.6,212.7L823.0,210.0L824.2,210.0L826.5,220.4L827.1,226.3L826.6,232.6L824.3,231.2L819.3,233.9L817.8,238.4L819.8,240.5L822.9,240.0L826.1,238.5L828.8,236.2L829.9,233.3L830.7,229.2L832.4,226.2L834.8,224.6L837.4,224.6L841.0,229.1L843.9,235.2L845.7,231.4L843.6,225.1L843.0,216.3L840.8,214.6L840.0,212.8L840.1,207.9L839.5,206.1L841.4,207.2L842.7,212.7L844.4,214.5L846.9,215.6L847.0,218.0L844.8,222.7L845.4,225.9L846.7,228.4L852.2,233.9L849.5,236.8L850.3,242.0L853.6,250.4L854.1,254.8L855.9,258.5L858.7,261.3L862.3,262.9L877.2,266.0L881.3,269.0L889.5,281.5L892.4,280.9L898.3,289.5L903.0,289.4L901.4,292.1L898.6,293.0L896.0,292.2L894.9,290.1L894.4,286.8L893.1,284.1L891.2,283.0L889.4,284.1L887.7,283.1L886.2,276.8L885.4,275.5L881.4,273.0L878.7,269.3L874.3,267.4L865.9,265.6L866.9,267.9L868.7,270.1L871.0,271.6L873.6,272.3L873.5,273.5L871.2,273.5L867.1,271.4L865.9,268.6L861.4,269.5L858.9,268.8L856.9,267.0L855.3,264.4L852.8,255.2L851.4,252.3L849.6,251.1L841.5,247.4L839.9,245.8L839.0,237.2L838.4,236.3L834.3,238.5L832.9,245.8L828.8,251.8L828.8,257.1L825.7,261.6L820.5,261.6L816.1,257.6L814.9,259.7L813.6,260.3L815.8,264.4L812.1,266.1L807.5,265.6L807.4,267.0L809.4,268.4L818.1,280.9L818.2,284.8L815.4,291.9L809.2,299.0L802.5,302.8L797.8,300.0L795.7,301.8L792.9,302.3L790.5,301.1L788.9,294.8L786.8,296.2L784.6,299.7L783.6,303.3L783.9,305.7L786.7,311.9L786.4,318.4L787.4,324.6L789.4,330.5L792.3,335.0L796.3,339.6L799.8,344.8L801.8,353.2L806.5,362.0L807.6,365.3L807.6,367.8L804.8,374.1L808.6,377.4L808.1,379.5L811.3,380.0L813.7,382.2L820.3,392.6L819.1,398.2L819.9,400.7L820.4,397.3L822.1,395.8L823.9,396.5L824.6,400.0L824.4,406.8L824.7,408.7L825.6,405.8L826.7,405.8L827.6,409.6L831.0,413.2L831.8,415.1L834.6,418.9L837.2,421.7L841.0,427.0L843.8,425.4L844.8,426.1L846.7,429.6L845.9,431.8L847.2,432.4L848.6,430.8L850.3,433.6L848.6,439.6L849.1,441.8L853.0,445.7L859.9,456.0L864.6,461.0L868.4,462.3L883.3,415.6L887.3,416.7L891.1,416.0L894.4,413.8L897.1,410.2L898.8,405.3L898.5,401.1L895.0,392.7L893.8,386.7L893.3,378.5L894.7,371.4L898.9,368.9L900.6,369.9L908.8,378.1L910.3,380.2L917.3,394.2L919.0,403.9L920.7,406.1L924.6,405.6L929.0,401.7L937.1,392.9L961.7,376.2L966.9,371.1L966.0,367.5L962.7,363.8L960.7,358.1L961.3,355.8L966.7,348.6L971.5,337.5L975.3,333.5L980.6,330.4L986.5,328.2L991.6,327.0L997.9,327.1L998.9,326.3L997.7,323.3L992.9,318.0L991.9,315.2L991.8,310.6L988.8,295.5L984.4,284.8L982.9,282.2L963.3,288.2L956.0,289.9L953.6,291.6L951.2,295.1L949.3,295.9L943.2,296.0L939.6,296.7L936.4,298.8L934.0,298.2L931.0,293.2L929.5,291.5L926.1,290.4L924.6,287.4L925.4,284.3L922.7,276.0L916.5,270.1L911.8,267.5L906.9,266.1L905.1,264.7L904.8,259.1L901.2,257.5L896.5,248.9L894.6,242.2L891.9,237.1L893.6,230.6L892.8,226.6L888.8,221.6L888.9,218.3L885.5,217.0L883.5,214.6L883.1,213.1L884.3,210.8L884.0,207.2L879.8,201.9L878.8,198.5L878.5,194.5L880.6,190.7L884.0,188.6L889.6,180.4L891.7,176.3L894.3,173.1L899.7,171.7L901.8,169.9L903.5,167.4L907.3,165.3L911.5,164.6L915.0,165.6L916.6,165.4L916.4,162.8Z M838.1,317.1L841.3,319.9L842.3,330.5L846.5,327.8L850.8,324.1L853.8,327.8L858.3,346.3L858.7,352.4L861.9,354.3L863.3,357.2L863.9,360.5L862.4,364.9L863.6,381.8L862.4,388.2L859.1,391.5L855.2,393.7L853.0,390.7L850.7,388.4L847.3,390.4L845.4,393.8L841.4,391.5L840.3,383.1L838.9,381.7L836.2,380.9L830.9,376.9L823.7,379.2L820.9,376.8L813.2,366.5L809.4,358.6L807.2,349.4L804.3,341.7L801.4,340.1L800.0,335.3L799.9,330.8L800.6,326.9L799.8,325.2L800.9,322.3L803.6,321.4L806.6,321.2L809.8,317.9L813.4,315.3L818.7,317.6L822.9,314.3L821.4,309.8L821.4,306.4L818.9,304.9L819.5,301.2L823.9,299.0L826.9,296.5L829.5,298.8L834.2,306.9L837.2,311.4L838.1,317.1Z " data-id="PA.DR" data-name="Darién" id="PA.DR"/>
utf-8utf-8<path d="M733.4,11.3L733.0,11.1L732.5,12.1L733.4,11.3Z M689.9,13.0L688.7,33.2L687.9,34.4L683.9,35.4L682.1,36.7L677.8,43.2L677.4,46.2L675.3,49.7L673.8,50.7L667.6,53.4L662.7,56.7L659.3,59.6L658.6,59.6L658.1,57.6L654.8,59.4L652.4,62.9L651.9,64.9L653.3,67.5L659.0,66.2L670.9,62.1L678.0,61.8L683.8,64.1L687.3,67.9L689.9,68.1L697.6,67.9L699.9,66.6L698.9,62.3L700.4,60.3L704.7,58.2L709.2,58.8L710.3,58.2L710.9,55.0L714.6,55.6L718.8,55.0L721.0,52.8L727.6,51.8L732.8,52.6L741.4,50.3L744.1,53.8L746.4,55.0L748.4,53.2L748.9,49.8L751.6,49.9L755.2,52.6L760.9,57.7L763.2,59.4L766.2,60.1L768.8,59.9L777.9,57.5L781.5,53.7L783.0,54.0L786.4,61.3L787.1,61.9L790.8,59.5L793.5,61.2L795.2,64.6L798.1,67.6L798.7,73.6L801.9,75.0L806.8,74.8L812.7,75.2L819.0,71.8L821.3,76.8L822.6,81.9L824.8,84.6L828.7,84.2L838.2,84.8L840.5,81.8L842.9,84.0L843.5,88.1L840.7,93.4L842.1,95.4L853.6,98.6L856.6,100.7L860.1,107.4L864.7,107.4L876.6,117.5L881.5,122.1L890.4,132.8L893.9,140.7L898.3,143.6L902.8,147.3L907.3,150.4L913.6,157.4L915.4,160.1L916.4,162.8L916.6,165.4L916.7,166.5L918.7,170.0L922.8,173.5L927.3,178.1L929.8,182.5L934.8,188.1L936.4,191.0L937.7,197.5L939.7,200.6L946.0,203.8L948.1,204.5L952.3,210.7L957.4,205.0L959.7,200.2L959.2,193.3L962.0,191.3L967.6,190.3L969.4,188.9L969.8,186.2L966.3,183.6L963.1,185.9L957.8,186.3L952.3,185.2L948.3,182.9L943.2,178.8L941.2,176.6L943.2,168.3L941.9,165.0L940.3,164.6L939.1,167.9L936.1,164.9L936.9,161.5L932.1,157.1L928.1,151.5L927.2,152.4L927.5,154.3L930.3,158.4L927.1,156.7L923.5,151.8L920.2,148.2L914.6,144.4L913.0,142.3L910.9,136.3L907.8,132.0L909.7,128.5L909.2,126.8L906.1,123.0L905.6,120.7L901.1,116.8L899.5,114.7L899.1,110.3L894.7,106.7L891.5,100.2L888.6,98.5L888.6,101.5L891.6,111.0L886.0,106.6L881.6,99.0L879.0,93.9L873.7,86.6L870.8,85.0L868.6,84.7L865.2,80.3L864.7,77.8L862.7,75.9L859.5,74.5L854.1,73.6L849.8,72.5L848.3,70.1L845.3,67.9L843.1,67.5L839.5,65.5L836.8,66.0L834.2,65.4L826.5,60.2L818.5,57.1L816.1,55.0L812.7,52.8L804.3,49.7L799.8,47.3L796.3,43.4L793.9,42.6L792.0,43.4L789.3,41.2L783.7,41.2L781.3,40.1L778.2,37.6L775.7,36.9L772.8,38.1L770.7,39.9L768.2,41.1L765.5,40.6L763.4,38.7L759.6,39.2L754.0,37.4L751.8,37.7L749.2,36.2L747.5,33.7L741.3,36.1L738.4,35.4L737.0,37.2L732.1,38.3L729.0,37.4L727.1,37.9L726.1,39.7L722.3,39.5L717.5,39.8L716.7,38.3L712.3,35.1L709.4,33.7L705.3,33.2L699.0,34.4L697.3,33.5L694.5,34.2L691.5,33.1L690.8,22.3L692.9,18.8L702.8,17.3L704.6,15.9L706.7,16.3L709.7,14.5L709.8,12.4L707.6,10.8L700.4,11.4L694.3,12.6L689.9,13.0Z " data-id="PA.SB" data-name="Kuna Yala" id="PA.SB"/>
utf-8utf-8<path d="M185.1,95.0L187.0,93.0L184.4,90.5L183.9,88.8L180.8,88.2L179.4,90.3L180.0,93.3L183.8,95.8L185.1,95.0Z M159.7,54.7L157.5,53.0L154.7,54.0L154.7,55.2L157.8,57.0L160.9,57.7L163.3,59.1L164.7,63.2L162.4,62.0L162.3,63.2L164.0,64.3L164.5,66.0L164.2,70.5L163.5,71.6L166.0,74.1L167.7,69.7L170.6,66.8L174.1,65.3L177.4,65.8L175.7,63.1L173.7,61.4L169.5,59.2L165.7,55.0L164.1,54.0L159.7,54.7Z M149.5,56.2L149.0,52.6L151.6,49.4L150.7,44.5L146.4,36.7L143.2,36.8L140.4,38.0L135.6,41.9L143.3,49.2L146.6,53.3L148.7,57.8L149.5,56.2Z M63.8,136.9L68.2,141.9L79.8,140.3L89.5,140.9L92.1,142.0L93.9,143.7L95.6,148.0L101.9,148.3L109.6,151.1L123.3,158.4L124.8,154.8L128.3,142.9L129.8,140.0L129.3,136.0L127.4,131.3L123.7,127.7L114.1,123.7L112.3,121.5L114.7,119.0L120.5,116.4L127.6,109.6L128.2,104.8L130.7,99.8L133.4,96.9L135.0,97.2L135.5,99.4L134.4,102.3L135.6,103.8L140.2,105.9L136.1,111.7L133.4,113.9L132.3,116.8L132.5,119.7L135.9,121.1L139.3,121.9L142.3,125.8L148.3,127.3L152.3,130.2L153.1,132.7L152.3,136.0L150.3,137.4L150.4,141.1L152.6,142.5L153.8,149.4L155.0,151.5L156.6,150.8L157.8,146.5L160.2,142.5L163.5,140.7L168.6,140.3L175.6,140.3L180.1,139.2L183.4,137.1L185.3,131.8L183.0,132.1L174.8,134.9L169.0,134.7L164.7,126.7L164.9,125.1L162.8,123.6L156.8,121.4L153.8,123.2L149.7,122.8L145.7,120.6L143.0,117.4L145.3,118.8L147.2,106.2L146.4,104.1L142.4,101.7L141.7,99.0L145.2,99.0L144.0,96.8L143.7,93.2L144.4,89.8L146.4,88.3L150.7,88.7L153.3,89.9L158.3,93.5L159.5,91.1L159.5,85.8L160.1,82.9L157.7,84.2L155.9,80.7L153.2,79.0L151.8,83.6L151.1,84.3L148.6,82.8L148.6,80.3L147.4,80.3L147.5,83.4L146.8,85.4L145.5,86.2L143.7,85.7L141.5,79.7L139.3,79.0L141.1,82.5L138.0,83.4L136.6,85.7L135.5,85.7L129.6,81.5L126.3,72.4L122.7,69.9L124.2,66.3L128.4,66.6L130.8,64.6L131.1,62.5L126.6,57.8L126.2,55.1L126.8,52.9L131.9,43.9L133.4,38.0L128.7,41.4L122.6,37.5L113.2,26.1L97.7,11.6L95.8,10.3L97.2,17.5L95.9,17.6L93.3,16.0L90.8,15.6L89.5,17.7L88.3,25.1L87.1,27.5L84.8,27.9L77.2,25.4L75.5,23.1L73.6,18.5L72.0,16.3L70.6,17.0L69.0,16.3L62.3,9.5L52.7,5.1L49.5,5.5L46.2,8.5L44.1,11.6L43.7,13.4L45.5,17.5L46.4,22.8L48.9,24.8L48.5,26.4L45.9,28.0L36.7,29.4L33.5,30.7L31.9,33.4L31.3,37.1L28.0,110.0L33.2,107.6L35.9,108.6L37.5,112.7L42.2,115.3L49.7,121.8L57.2,124.8L59.4,126.5L63.4,134.8L63.9,136.7L63.8,136.9Z " data-id="PA.BC" data-name="Bocas del Toro" id="PA.BC"/>
utf-8utf-8<path d="M261.9,101.1L260.7,104.2L265.4,104.4L266.5,103.1L264.0,101.1L261.9,101.1Z M185.3,131.8L183.4,137.1L180.1,139.2L175.6,140.3L168.6,140.3L163.5,140.7L160.2,142.5L157.8,146.5L156.6,150.8L155.0,151.5L153.8,149.4L152.6,142.5L150.4,141.1L150.3,137.4L152.3,136.0L153.1,132.7L152.3,130.2L148.3,127.3L142.3,125.8L139.3,121.9L135.9,121.1L132.5,119.7L132.3,116.8L133.4,113.9L136.1,111.7L140.2,105.9L135.6,103.8L134.4,102.3L135.5,99.4L135.0,97.2L133.4,96.9L130.7,99.8L128.2,104.8L127.6,109.6L120.5,116.4L114.7,119.0L112.3,121.5L114.1,123.7L123.7,127.7L127.4,131.3L129.3,136.0L129.8,140.0L128.3,142.9L124.8,154.8L123.3,158.4L123.6,158.6L130.8,161.8L133.8,163.6L136.8,164.6L142.0,165.5L158.5,167.3L160.2,178.7L157.8,195.0L156.2,200.7L156.6,204.8L158.2,207.0L151.9,221.4L150.9,226.2L153.5,227.9L158.8,227.8L169.0,224.3L170.6,225.5L172.3,228.3L174.9,233.9L177.3,237.0L177.6,243.0L180.8,248.9L188.9,251.3L204.6,251.5L209.0,253.1L211.6,259.1L216.3,263.6L225.1,264.0L228.0,260.9L230.1,257.6L232.7,257.3L234.1,261.0L238.3,260.2L242.2,257.2L244.0,254.0L246.7,247.4L250.0,242.8L257.6,240.1L261.9,241.3L261.7,231.7L262.7,225.7L267.2,214.9L269.1,207.2L269.8,199.3L274.0,201.8L279.1,203.2L282.7,206.7L290.6,207.4L295.1,206.4L296.6,206.8L304.1,213.7L306.9,215.8L320.6,220.1L325.3,218.9L322.8,215.9L320.3,209.5L317.7,205.4L316.9,201.4L316.6,194.2L317.8,182.5L316.6,168.3L318.0,161.7L309.5,162.2L302.9,163.6L293.9,163.0L290.0,160.1L285.3,160.1L283.2,160.8L274.5,158.8L271.4,159.9L269.3,159.9L263.4,157.6L261.5,155.7L258.9,151.7L255.6,149.2L249.2,141.0L239.9,124.5L236.8,121.7L234.7,115.3L232.1,114.4L228.1,109.2L219.4,108.4L218.2,107.9L217.5,105.0L214.9,101.5L215.0,100.2L219.4,100.6L219.7,99.0L215.3,94.8L211.6,89.3L208.8,86.8L205.3,86.9L204.0,89.0L206.5,91.2L211.8,94.1L209.9,96.5L205.9,96.1L201.7,94.8L199.1,94.8L199.6,96.6L205.2,101.8L207.3,102.9L208.8,104.6L214.2,114.7L225.3,122.0L225.5,129.7L224.5,133.0L221.4,134.7L211.6,129.5L209.0,131.3L205.4,128.0L203.0,127.1L199.6,128.0L200.0,130.2L198.4,132.3L195.8,134.0L193.3,134.7L190.6,134.0L186.8,131.6L185.3,131.8Z " data-id="PA.NB" data-name="Ngöbe Buglé" id="PA.NB"/>
utf-8utf-8<path d="M838.1,317.1L837.2,311.4L834.2,306.9L829.5,298.8L826.9,296.5L823.9,299.0L819.5,301.2L818.9,304.9L821.4,306.4L821.4,309.8L822.9,314.3L818.7,317.6L813.4,315.3L809.8,317.9L806.6,321.2L803.6,321.4L800.9,322.3L799.8,325.2L800.6,326.9L799.9,330.8L800.0,335.3L801.4,340.1L804.3,341.7L807.2,349.4L809.4,358.6L813.2,366.5L820.9,376.8L823.7,379.2L830.9,376.9L836.2,380.9L838.9,381.7L840.3,383.1L841.4,391.5L845.4,393.8L847.3,390.4L850.7,388.4L853.0,390.7L855.2,393.7L859.1,391.5L862.4,388.2L863.6,381.8L862.4,364.9L863.9,360.5L863.3,357.2L861.9,354.3L858.7,352.4L858.3,346.3L853.8,327.8L850.8,324.1L846.5,327.8L842.3,330.5L841.3,319.9L838.1,317.1Z M978.9,274.9L975.6,266.1L974.4,264.1L972.3,263.1L967.9,262.0L966.2,258.7L965.0,251.8L964.2,238.6L962.1,231.8L959.5,226.5L957.9,224.8L955.0,223.7L949.9,224.2L948.4,223.1L948.6,218.7L950.3,213.0L952.3,210.7L948.1,204.5L946.0,203.8L939.7,200.6L937.7,197.5L936.4,191.0L934.8,188.1L929.8,182.5L927.3,178.1L922.8,173.5L918.7,170.0L916.7,166.5L916.6,165.4L915.0,165.6L911.5,164.6L907.3,165.3L903.5,167.4L901.8,169.9L899.7,171.7L894.3,173.1L891.7,176.3L889.6,180.4L884.0,188.6L880.6,190.7L878.5,194.5L878.8,198.5L879.8,201.9L884.0,207.2L884.3,210.8L883.1,213.1L883.5,214.6L885.5,217.0L888.9,218.3L888.8,221.6L892.8,226.6L893.6,230.6L891.9,237.1L894.6,242.2L896.5,248.9L901.2,257.5L904.8,259.1L905.1,264.7L906.9,266.1L911.8,267.5L916.5,270.1L922.7,276.0L925.4,284.3L924.6,287.4L926.1,290.4L929.5,291.5L931.0,293.2L934.0,298.2L936.4,298.8L939.6,296.7L943.2,296.0L949.3,295.9L951.2,295.1L953.6,291.6L956.0,289.9L963.3,288.2L982.9,282.2L978.9,274.9Z " data-id="PA.EM" data-name="Emberá" id="PA.EM"/>
utf-8</g>
</svg>
