<?xml version="1.0" ?>
<!DOCTYPE svg
  PUBLIC '-//W3C//DTD SVG 1.1//EN'
  'http://www.w3.org/Graphics/SVG/1.1/DTD/svg11.dtd'>
<svg enable_background="new 0 0 1000 1585" height="1585px" pretty_print="True" style="stroke-linejoin: round; stroke:#000; fill: none;" version="1.1" viewBox="0 0 1000 1585" width="1000px" xmlns="http://www.w3.org/2000/svg" xmlns:xlink="http://www.w3.org/1999/xlink">
utf-8<defs>
utf-8utf-8<style type="text/css">
<![CDATA[path { fill-rule: evenodd; }]]>utf-8utf-8</style>
utf-8</defs>
utf-8<metadata>
utf-8utf-8<views>
utf-8utf-8utf-8<view h="1585.21431143" padding="0" w="1000">
utf-8utf-8utf-8utf-8<proj flip="auto" id="robinson" lon0="-80.0286400104"/>
utf-8utf-8utf-8utf-8<bbox h="307.01" w="193.79" x="-1203.32" y="0.49"/>
utf-8utf-8utf-8</view>
utf-8utf-8</views>
utf-8</metadata>
utf-8<g class="" id="provinces">
utf-8utf-8<path d="M146.7,512.6L142.1,510.5L136.9,511.4L133.8,510.6L130.9,505.7L129.8,504.6L123.4,501.8L123.2,501.0L124.9,495.2L120.3,487.2L114.6,482.3L111.2,478.8L108.4,477.6L108.1,479.5L109.7,488.0L110.3,497.0L110.0,499.5L106.4,503.7L83.0,511.4L81.2,512.8L72.4,524.9L69.7,532.9L63.7,543.8L59.6,549.0L72.9,556.3L85.5,563.4L95.6,569.8L99.5,572.6L108.6,580.4L111.8,584.4L113.1,587.2L113.5,590.0L114.7,592.7L118.9,596.7L119.9,598.4L132.5,612.0L134.0,614.1L134.0,616.4L133.9,616.7L135.7,614.1L147.9,600.1L150.2,599.4L157.4,601.7L159.6,603.7L160.5,603.6L161.3,593.9L163.5,591.5L167.0,589.3L169.3,585.2L172.2,583.2L172.5,578.5L165.0,574.9L160.4,574.3L155.0,563.2L151.5,562.6L149.8,557.3L150.5,553.3L148.9,550.3L148.8,547.5L153.3,542.4L161.1,540.4L163.6,537.2L163.8,533.0L160.9,531.3L161.1,527.6L165.4,522.9L165.9,518.7L159.0,514.8L158.2,514.8L154.9,517.6L154.1,515.8L149.3,516.4L148.2,515.4L146.7,512.6Z " data-id="PE.LB" data-name="Lambayeque" id="PE.LB"/>
utf-8utf-8<path d="M44.0,557.4L43.7,553.4L43.0,552.6L43.4,549.3L42.6,548.7L41.1,553.8L42.2,557.5L44.0,557.4Z M61.6,349.0L52.3,358.5L48.4,361.6L41.0,358.4L30.1,358.0L24.9,356.0L19.7,350.6L19.7,350.8L16.1,352.7L13.7,356.9L12.0,358.9L5.5,364.0L2.9,369.1L2.6,370.8L3.9,375.7L3.9,377.7L0.7,383.3L0.4,384.6L2.2,389.6L1.7,395.4L2.7,399.0L0.3,402.0L3.0,405.7L9.4,413.1L15.4,422.7L20.5,427.6L22.2,431.8L22.0,434.8L20.9,436.7L18.7,436.9L17.4,435.4L14.8,436.1L14.2,437.4L15.0,440.8L13.9,441.1L14.8,444.1L14.3,445.8L12.5,447.8L17.9,455.8L19.8,457.3L22.5,457.4L23.8,459.2L31.2,467.0L33.6,470.0L37.8,479.5L40.0,486.1L39.7,494.2L36.9,500.3L34.2,503.4L26.6,500.6L25.1,498.0L23.0,500.4L22.3,502.4L18.3,506.2L18.5,514.2L20.3,519.3L22.7,522.6L29.6,528.3L36.4,532.7L42.2,537.0L47.1,542.2L52.0,544.8L59.6,549.0L63.7,543.8L69.7,532.9L72.4,524.9L81.2,512.8L83.0,511.4L106.4,503.7L110.0,499.5L110.3,497.0L109.7,488.0L108.1,479.5L108.4,477.6L111.2,478.8L114.6,482.3L120.3,487.2L124.9,495.2L123.2,501.0L123.4,501.8L129.8,504.6L130.9,505.7L133.8,510.6L136.9,511.4L142.1,510.5L146.7,512.6L148.2,515.4L149.5,514.5L155.3,508.3L154.4,504.8L149.7,492.7L150.7,487.1L151.0,482.2L150.2,475.9L151.2,473.0L156.3,473.2L156.5,471.4L155.5,459.5L152.6,455.6L152.4,450.9L150.4,445.9L151.0,443.3L155.0,438.3L156.1,434.9L158.7,433.6L161.6,426.9L158.1,427.0L152.6,421.1L151.1,420.4L149.0,416.7L144.7,413.4L141.6,405.6L140.6,400.5L138.2,396.8L138.2,395.0L139.8,391.4L138.0,388.3L136.1,388.3L133.9,386.8L129.9,382.5L127.8,381.3L125.0,381.7L122.5,383.5L117.4,385.3L114.6,384.8L110.9,379.9L108.9,377.8L102.9,377.0L99.2,374.5L96.7,371.4L90.3,367.9L87.3,368.4L82.1,376.8L76.4,381.9L73.3,383.8L70.6,384.7L69.3,384.1L64.1,379.1L64.3,377.6L73.9,362.4L74.7,360.5L71.2,361.0L67.9,362.1L65.2,361.8L63.5,358.0L61.5,350.6L61.6,349.0Z " data-id="PE.PI" data-name="Piura" id="PE.PI"/>
utf-8utf-8<path d="M19.7,350.6L24.9,356.0L30.1,358.0L41.0,358.4L48.4,361.6L52.3,358.5L61.6,349.0L61.6,348.9L63.8,343.3L64.9,342.3L69.4,341.9L75.7,344.7L77.3,343.8L80.6,338.5L86.5,335.4L87.6,333.9L85.7,331.1L85.4,328.0L83.0,323.4L82.6,321.7L83.1,313.3L82.3,308.1L80.4,306.9L80.9,303.9L78.5,298.9L77.7,292.8L74.8,292.0L71.1,297.2L69.9,298.3L66.9,299.4L61.6,299.2L58.4,300.6L57.9,302.4L54.9,307.8L52.8,310.1L40.9,318.3L38.2,320.8L36.3,323.8L35.0,326.8L34.0,332.4L27.0,338.1L24.7,341.0L20.8,348.0L19.7,350.6Z " data-id="PE.TU" data-name="Tumbes" id="PE.TU"/>
utf-8utf-8<path d="M657.1,1159.0L655.4,1162.9L654.6,1162.9L639.1,1159.7L636.8,1158.6L632.2,1154.0L618.3,1144.7L615.6,1141.3L612.7,1139.4L610.3,1144.5L611.6,1147.9L609.4,1154.3L610.0,1157.3L611.2,1159.9L615.0,1176.1L615.6,1177.1L622.1,1182.8L623.9,1185.0L622.8,1187.1L619.6,1188.1L620.1,1190.1L630.1,1208.2L631.2,1213.9L633.9,1220.6L638.7,1227.7L640.6,1238.7L640.4,1249.9L640.6,1251.5L644.2,1257.6L644.5,1259.6L643.3,1266.8L639.6,1268.6L643.4,1277.7L644.6,1279.0L650.2,1277.9L652.0,1276.5L655.9,1268.6L662.3,1270.2L664.1,1270.0L673.0,1267.1L674.0,1266.0L678.6,1265.2L680.1,1262.4L689.6,1268.8L694.7,1271.4L696.3,1268.2L699.5,1265.3L700.6,1265.1L703.7,1266.6L709.8,1267.1L712.6,1268.3L715.5,1268.3L721.7,1266.4L721.8,1264.3L721.2,1260.4L719.9,1258.0L721.1,1252.8L725.8,1250.4L728.3,1246.7L735.5,1244.1L738.5,1237.7L742.7,1231.7L745.2,1229.8L746.7,1226.9L748.2,1217.7L747.0,1202.7L739.7,1189.4L731.1,1181.8L726.1,1181.8L720.6,1177.6L721.1,1177.0L717.4,1172.9L702.7,1168.5L697.0,1165.1L691.6,1160.6L689.1,1159.2L683.1,1158.7L681.2,1155.8L675.6,1156.5L669.8,1158.7L667.0,1161.2L662.9,1158.7L660.1,1159.0L657.4,1158.1L657.1,1159.0Z " data-id="PE.AP" data-name="Apurímac" id="PE.AP"/>
utf-8utf-8<path d="M715.5,1268.3L712.6,1268.3L709.8,1267.1L703.7,1266.6L700.6,1265.1L699.5,1265.3L696.3,1268.2L694.7,1271.4L695.1,1274.1L696.0,1276.2L694.9,1277.9L691.3,1278.5L687.9,1278.0L683.2,1280.5L682.5,1281.8L681.9,1286.7L684.4,1291.3L683.6,1305.8L675.1,1320.0L673.4,1320.4L669.3,1319.0L666.1,1319.3L665.6,1322.6L666.9,1328.7L663.7,1328.8L658.0,1328.1L653.4,1326.1L645.0,1330.6L641.8,1331.5L638.4,1331.7L630.7,1333.0L622.7,1332.9L619.9,1334.4L615.5,1343.7L610.1,1347.0L607.4,1344.4L607.6,1340.6L605.9,1337.4L603.1,1333.6L599.6,1336.3L596.2,1337.3L590.8,1335.2L587.9,1332.1L586.6,1328.0L581.1,1325.0L578.8,1320.0L575.9,1315.2L575.7,1311.5L565.6,1308.0L559.7,1307.0L555.5,1303.3L555.3,1302.2L540.4,1313.3L538.7,1315.2L531.7,1332.4L532.6,1333.5L533.9,1334.4L539.4,1336.3L548.2,1341.1L550.0,1343.5L557.6,1346.9L563.2,1350.1L574.4,1355.3L580.3,1357.4L586.1,1366.1L591.5,1367.9L594.3,1367.2L596.2,1367.9L600.0,1371.7L604.5,1372.5L614.6,1378.7L615.2,1382.1L617.5,1384.3L630.6,1393.7L639.1,1397.5L642.0,1400.1L642.2,1402.2L643.9,1400.8L649.8,1401.8L659.0,1405.2L663.7,1406.4L671.9,1410.5L673.2,1414.1L678.9,1416.3L681.9,1416.3L689.8,1420.8L692.6,1423.9L706.1,1429.0L714.8,1435.5L721.8,1438.2L729.6,1438.1L734.2,1440.2L741.3,1442.8L747.5,1446.9L752.3,1452.3L753.7,1457.2L755.7,1458.5L759.4,1459.4L762.9,1462.5L766.2,1464.5L768.8,1469.5L773.5,1469.9L781.4,1473.9L787.3,1480.4L790.0,1482.6L793.0,1484.1L807.6,1488.7L811.7,1491.2L814.6,1491.7L817.3,1493.2L818.1,1495.0L821.9,1491.4L825.8,1481.3L826.8,1473.6L827.6,1471.5L821.3,1465.8L818.2,1459.7L817.2,1454.1L817.8,1452.5L821.8,1447.7L826.9,1444.6L826.9,1440.1L825.9,1436.1L828.6,1431.5L831.5,1425.6L833.5,1423.6L837.1,1421.7L844.4,1420.8L847.8,1423.0L850.3,1421.7L850.5,1410.9L855.6,1403.8L856.0,1398.9L855.3,1380.0L855.8,1377.3L855.3,1373.1L851.9,1370.5L847.2,1360.1L848.9,1356.5L848.7,1353.4L842.7,1347.0L839.3,1341.6L838.6,1335.1L837.2,1331.9L837.3,1326.2L836.7,1323.5L835.3,1322.2L833.4,1319.5L828.6,1315.6L826.4,1314.8L824.3,1312.6L824.1,1304.9L822.1,1301.8L819.9,1300.8L817.2,1301.8L815.3,1304.3L811.9,1303.9L807.1,1299.5L797.9,1296.4L798.2,1300.9L793.0,1301.2L789.4,1302.4L784.3,1303.1L774.6,1300.4L771.5,1298.3L771.1,1289.3L772.0,1287.2L773.4,1286.4L774.2,1283.0L770.7,1282.1L767.9,1279.5L766.7,1276.8L761.0,1268.7L757.5,1266.0L755.6,1266.7L755.2,1269.3L756.9,1272.3L757.4,1275.8L756.4,1280.9L754.7,1284.1L751.2,1281.7L750.1,1279.1L747.2,1277.1L743.2,1278.9L734.3,1281.0L729.4,1279.7L727.5,1278.5L722.3,1271.9L721.6,1267.9L721.7,1266.4L715.5,1268.3Z " data-id="PE.AR" data-name="Arequipa" id="PE.AR"/>
utf-8utf-8<path d="M722.5,975.2L718.0,975.8L715.0,974.1L709.2,976.1L706.6,977.4L701.9,981.8L700.1,982.7L696.9,985.4L694.3,985.8L689.2,984.3L685.1,981.9L683.9,979.4L681.7,979.2L679.6,980.6L674.3,980.3L668.6,977.1L666.5,975.4L663.9,970.1L663.0,967.3L660.3,966.8L657.8,971.1L654.3,973.3L651.4,974.2L641.6,975.7L636.2,975.6L630.9,977.3L628.6,976.7L628.1,979.2L625.3,987.5L621.4,994.7L611.4,1004.3L614.6,1005.7L621.7,1008.1L623.8,1009.4L626.9,1013.2L626.3,1023.8L619.8,1036.0L619.4,1039.4L619.9,1043.1L619.3,1048.7L615.6,1054.8L613.1,1055.8L604.4,1058.6L601.7,1059.0L594.1,1059.1L596.4,1063.2L601.1,1071.5L602.9,1073.9L603.2,1078.8L606.0,1081.0L606.7,1083.4L611.3,1089.5L612.4,1090.5L612.8,1088.7L614.1,1089.5L618.8,1094.9L623.4,1108.8L625.1,1111.6L628.1,1120.4L630.1,1127.1L629.2,1129.0L641.6,1139.7L645.9,1145.2L650.7,1152.6L654.5,1155.1L656.7,1157.2L657.4,1158.1L660.1,1159.0L662.9,1158.7L667.0,1161.2L669.8,1158.7L675.6,1156.5L681.2,1155.8L683.1,1158.7L689.1,1159.2L691.6,1160.6L697.0,1165.1L702.7,1168.5L717.4,1172.9L721.1,1177.0L720.6,1177.6L726.1,1181.8L731.1,1181.8L739.7,1189.4L747.0,1202.7L748.2,1217.7L746.7,1226.9L745.2,1229.8L742.7,1231.7L738.5,1237.7L735.5,1244.1L728.3,1246.7L725.8,1250.4L721.1,1252.8L719.9,1258.0L721.2,1260.4L721.8,1264.3L721.7,1266.4L721.6,1267.9L722.3,1271.9L727.5,1278.5L729.4,1279.7L734.3,1281.0L743.2,1278.9L747.2,1277.1L750.1,1279.1L751.2,1281.7L754.7,1284.1L756.4,1280.9L757.4,1275.8L756.9,1272.3L755.2,1269.3L755.6,1266.7L757.5,1266.0L761.0,1268.7L766.7,1276.8L767.9,1279.5L770.7,1282.1L774.2,1283.0L773.4,1286.4L772.0,1287.2L771.1,1289.3L771.5,1298.3L774.6,1300.4L784.3,1303.1L789.4,1302.4L793.0,1301.2L798.2,1300.9L797.9,1296.4L807.1,1299.5L811.9,1303.9L815.3,1304.3L817.2,1301.8L819.9,1300.8L822.1,1301.8L824.1,1304.9L824.3,1312.6L826.4,1314.8L828.6,1315.6L833.4,1319.5L835.3,1322.2L836.7,1323.5L837.6,1322.7L840.1,1320.8L839.8,1312.7L838.2,1307.6L836.5,1304.4L836.8,1298.8L835.4,1296.2L835.2,1293.6L837.1,1287.8L835.2,1280.5L835.7,1276.6L834.8,1274.5L827.3,1270.8L825.3,1267.9L824.5,1265.5L824.9,1264.2L829.1,1263.5L834.1,1257.7L832.7,1252.9L833.0,1250.4L835.3,1245.3L839.3,1245.5L840.6,1243.6L842.3,1232.9L843.7,1227.8L844.5,1216.3L840.9,1209.1L841.8,1201.9L842.1,1193.1L843.2,1192.3L849.2,1191.2L853.2,1187.4L858.9,1168.3L860.9,1163.8L869.4,1152.8L870.4,1150.9L872.0,1145.9L872.2,1141.7L870.7,1136.5L870.7,1133.3L872.0,1123.7L869.5,1123.1L867.0,1122.8L863.0,1123.3L859.4,1122.5L855.2,1122.9L855.3,1125.2L859.8,1129.2L857.6,1131.8L848.2,1132.5L826.6,1128.2L820.8,1127.6L810.9,1120.8L809.6,1120.1L797.9,1116.6L788.2,1112.3L786.2,1110.7L782.8,1110.0L778.9,1110.5L775.9,1110.2L761.3,1105.2L756.8,1102.3L751.8,1092.9L751.6,1090.7L752.9,1085.3L752.8,1083.4L750.7,1076.5L747.8,1070.0L744.1,1063.7L738.1,1062.0L735.9,1060.9L733.3,1057.5L730.6,1048.6L727.8,1044.5L722.2,1041.5L715.7,1037.1L713.4,1034.0L711.6,1026.7L713.2,1011.0L714.3,1006.4L722.8,985.6L723.8,981.1L723.9,975.8L722.5,975.2Z " data-id="PE.CS" data-name="Cusco" id="PE.CS"/>
utf-8utf-8<path d="M834.4,858.4L824.8,866.7L821.4,871.0L820.3,876.8L820.2,888.8L819.0,894.5L816.8,898.6L810.1,908.3L802.6,915.2L798.8,917.9L794.7,922.0L784.0,927.0L751.4,946.6L748.9,947.3L738.3,947.8L735.8,946.9L732.5,944.2L726.7,942.9L725.4,943.5L724.8,946.3L729.3,952.1L729.8,956.0L724.9,967.2L723.7,973.7L723.8,975.7L723.9,975.8L723.8,981.1L722.8,985.6L714.3,1006.4L713.2,1011.0L711.6,1026.7L713.4,1034.0L715.7,1037.1L722.2,1041.5L727.8,1044.5L730.6,1048.6L733.3,1057.5L735.9,1060.9L738.1,1062.0L744.1,1063.7L747.8,1070.0L750.7,1076.5L752.8,1083.4L752.9,1085.3L751.6,1090.7L751.8,1092.9L756.8,1102.3L761.3,1105.2L775.9,1110.2L778.9,1110.5L782.8,1110.0L786.2,1110.7L788.2,1112.3L797.9,1116.6L809.6,1120.1L810.9,1120.8L820.8,1127.6L826.6,1128.2L848.2,1132.5L857.6,1131.8L859.8,1129.2L855.3,1125.2L855.2,1122.9L859.4,1122.5L863.0,1123.3L867.0,1122.8L869.5,1123.1L872.0,1123.7L873.3,1122.6L874.6,1122.9L927.6,1151.2L930.8,1151.3L976.8,1124.4L975.3,1115.9L975.3,1110.2L977.6,1108.1L979.0,1104.4L980.7,1104.7L984.0,1099.3L990.2,1097.4L992.2,1092.7L988.1,1090.2L989.7,1086.5L991.9,1085.2L995.7,1078.6L966.4,1027.1L939.8,980.1L920.3,945.6L918.3,944.5L909.0,945.6L906.4,945.1L902.1,942.4L890.8,941.7L873.0,952.2L870.0,953.4L866.2,954.3L862.3,954.5L858.5,953.8L854.8,951.9L852.8,949.9L849.2,945.3L847.0,943.3L845.4,943.7L839.2,949.6L836.5,898.6L834.8,865.6L834.4,858.4Z " data-id="PE.MD" data-name="Madre de Dios" id="PE.MD"/>
utf-8utf-8<path d="M872.0,1123.7L870.7,1133.3L870.7,1136.5L872.2,1141.7L872.0,1145.9L870.4,1150.9L869.4,1152.8L860.9,1163.8L858.9,1168.3L853.2,1187.4L849.2,1191.2L843.2,1192.3L842.1,1193.1L841.8,1201.9L840.9,1209.1L844.5,1216.3L843.7,1227.8L842.3,1232.9L840.6,1243.6L839.3,1245.5L835.3,1245.3L833.0,1250.4L832.7,1252.9L834.1,1257.7L829.1,1263.5L824.9,1264.2L824.5,1265.5L825.3,1267.9L827.3,1270.8L834.8,1274.5L835.7,1276.6L835.2,1280.5L837.1,1287.8L835.2,1293.6L835.4,1296.2L836.8,1298.8L836.5,1304.4L838.2,1307.6L839.8,1312.7L840.1,1320.8L837.6,1322.7L836.7,1323.5L837.3,1326.2L837.2,1331.9L838.6,1335.1L839.3,1341.6L842.7,1347.0L848.7,1353.4L848.9,1356.5L847.2,1360.1L851.9,1370.5L855.3,1373.1L855.8,1377.3L855.3,1380.0L857.0,1379.8L858.7,1380.5L864.1,1384.5L866.1,1385.4L869.5,1385.9L871.8,1385.0L874.5,1382.9L876.8,1382.0L881.9,1385.2L887.5,1385.4L888.6,1385.9L890.4,1389.4L890.7,1392.0L892.3,1397.6L895.4,1399.5L896.6,1402.7L895.8,1405.7L895.8,1410.0L901.4,1422.4L904.8,1424.5L909.1,1430.3L913.3,1434.7L916.7,1437.0L921.5,1437.8L923.6,1440.8L923.1,1442.2L917.1,1448.0L914.9,1448.4L912.9,1455.2L913.2,1456.3L915.0,1460.1L920.6,1468.2L925.6,1476.9L928.2,1479.9L929.7,1480.4L936.0,1485.7L943.0,1489.0L946.2,1488.2L950.2,1493.2L951.8,1493.5L955.4,1492.5L955.2,1492.5L956.3,1490.3L957.6,1483.6L959.7,1483.1L963.4,1479.0L965.5,1477.2L971.5,1475.0L973.2,1471.6L972.1,1469.5L976.3,1465.6L977.9,1460.8L984.7,1451.8L985.5,1450.0L987.1,1444.1L988.2,1443.2L992.3,1442.6L996.4,1440.1L999.5,1435.9L997.2,1432.8L996.6,1428.7L991.8,1423.8L992.1,1421.0L994.5,1417.8L995.5,1414.0L994.8,1408.1L991.0,1404.0L993.7,1403.9L994.7,1404.6L996.7,1403.8L999.7,1400.2L998.1,1399.2L996.1,1400.0L991.9,1399.4L985.5,1403.2L978.3,1404.0L976.3,1405.6L974.9,1404.0L968.9,1401.7L966.8,1397.9L964.5,1396.9L958.7,1398.4L958.0,1397.5L959.5,1394.4L963.9,1388.8L963.9,1386.3L961.5,1381.5L958.2,1382.0L952.6,1379.7L946.1,1379.4L943.2,1378.4L941.3,1375.4L943.0,1373.9L940.9,1371.5L940.0,1374.1L938.3,1373.6L936.5,1371.8L934.4,1365.9L929.9,1362.9L928.9,1364.6L927.8,1369.0L931.9,1371.0L933.8,1373.9L931.1,1373.7L927.9,1374.7L926.2,1370.6L923.8,1370.8L922.1,1369.3L917.4,1368.6L916.3,1367.3L917.4,1364.7L915.0,1360.9L914.4,1356.6L916.7,1354.9L919.4,1355.4L919.8,1351.5L921.9,1346.5L920.4,1343.6L924.3,1346.5L924.9,1348.0L927.7,1351.0L927.4,1352.4L929.3,1355.4L931.0,1356.5L935.9,1357.1L933.0,1354.3L931.0,1350.0L918.9,1330.1L919.2,1327.2L923.1,1326.6L925.0,1324.6L927.9,1325.5L928.8,1324.0L923.6,1322.4L924.3,1320.1L927.4,1319.8L930.5,1321.1L934.7,1320.5L935.6,1318.6L934.2,1318.3L933.5,1315.7L934.9,1315.3L940.1,1320.2L941.3,1323.9L944.0,1325.3L946.5,1325.2L955.1,1331.8L956.8,1333.8L958.1,1337.5L961.6,1335.2L963.2,1335.7L963.2,1337.5L961.8,1337.0L963.6,1339.5L964.4,1337.9L965.0,1332.8L965.8,1331.3L969.0,1329.6L967.9,1326.3L970.6,1321.7L973.0,1320.7L973.8,1317.4L977.0,1317.4L978.2,1314.8L966.6,1303.4L961.6,1296.0L958.5,1293.0L957.9,1291.5L959.2,1286.0L958.3,1278.9L960.5,1275.1L965.7,1273.0L966.5,1270.5L966.1,1259.4L967.0,1257.8L971.8,1258.0L971.8,1251.6L974.0,1250.5L976.7,1246.7L982.7,1242.4L984.1,1240.9L981.8,1235.9L981.7,1229.4L983.5,1227.8L991.1,1226.4L992.4,1224.6L991.8,1221.6L987.4,1210.3L983.1,1207.3L982.0,1205.7L980.6,1196.8L979.1,1194.6L978.1,1186.7L977.1,1185.5L972.8,1181.8L971.0,1179.3L971.9,1177.3L976.1,1177.5L976.7,1176.5L979.9,1165.0L979.5,1163.0L979.2,1146.1L977.6,1139.3L977.2,1135.9L977.0,1125.6L976.8,1124.4L930.8,1151.3L927.6,1151.2L874.6,1122.9L873.3,1122.6L872.0,1123.7Z " data-id="PE.CL" data-name="Callao" id="PE.CL"/>
utf-8utf-8<path d="M912.9,1455.2L914.9,1448.4L917.1,1448.0L923.1,1442.2L923.6,1440.8L921.5,1437.8L916.7,1437.0L913.3,1434.7L909.1,1430.3L904.8,1424.5L901.4,1422.4L895.8,1410.0L895.8,1405.7L896.6,1402.7L895.4,1399.5L892.3,1397.6L890.7,1392.0L890.4,1389.4L888.6,1385.9L887.5,1385.4L881.9,1385.2L876.8,1382.0L874.5,1382.9L871.8,1385.0L869.5,1385.9L866.1,1385.4L864.1,1384.5L858.7,1380.5L857.0,1379.8L855.3,1380.0L856.0,1398.9L855.6,1403.8L850.5,1410.9L850.3,1421.7L847.8,1423.0L844.4,1420.8L837.1,1421.7L833.5,1423.6L831.5,1425.6L828.6,1431.5L825.9,1436.1L826.9,1440.1L826.9,1444.6L821.8,1447.7L817.8,1452.5L817.2,1454.1L818.2,1459.7L821.3,1465.8L827.6,1471.5L826.8,1473.6L825.8,1481.3L821.9,1491.4L818.1,1495.0L818.6,1495.9L821.7,1498.2L824.0,1501.2L825.5,1502.2L826.1,1505.1L828.0,1510.1L829.6,1518.8L830.6,1522.3L829.3,1527.9L833.7,1527.7L838.3,1530.8L843.4,1533.5L845.8,1536.1L848.9,1529.9L854.2,1525.5L863.6,1520.0L864.6,1515.8L870.1,1507.2L871.0,1500.7L875.2,1493.2L875.8,1491.4L877.9,1488.3L884.4,1485.1L889.7,1477.5L891.6,1474.2L890.9,1467.2L890.3,1465.2L892.1,1455.5L895.4,1452.0L899.4,1452.0L902.8,1454.6L905.1,1459.6L907.9,1462.0L912.0,1460.8L913.2,1456.3L912.9,1455.2Z " data-id="PE.MQ" data-name="Moquegua" id="PE.MQ"/>
utf-8utf-8<path d="M955.4,1492.5L951.8,1493.5L950.2,1493.2L946.2,1488.2L943.0,1489.0L936.0,1485.7L929.7,1480.4L928.2,1479.9L925.6,1476.9L920.6,1468.2L915.0,1460.1L913.2,1456.3L912.0,1460.8L907.9,1462.0L905.1,1459.6L902.8,1454.6L899.4,1452.0L895.4,1452.0L892.1,1455.5L890.3,1465.2L890.9,1467.2L891.6,1474.2L889.7,1477.5L884.4,1485.1L877.9,1488.3L875.8,1491.4L875.2,1493.2L871.0,1500.7L870.1,1507.2L864.6,1515.8L863.6,1520.0L854.2,1525.5L848.9,1529.9L845.8,1536.1L846.0,1536.4L848.9,1538.5L853.2,1542.7L861.0,1545.4L867.7,1551.1L869.0,1554.5L874.3,1557.2L886.1,1568.0L895.8,1573.4L898.3,1575.0L909.4,1583.2L911.1,1582.1L915.0,1581.8L923.1,1582.7L928.8,1581.6L933.8,1578.3L940.5,1575.7L943.6,1571.0L948.9,1563.8L952.3,1552.4L951.2,1547.5L949.3,1544.3L947.3,1537.0L944.6,1531.0L944.8,1527.3L946.9,1524.5L950.1,1524.3L953.6,1524.9L957.0,1524.3L960.2,1521.7L968.8,1511.3L966.7,1499.5L960.5,1493.5L959.3,1493.1L955.4,1492.5Z " data-id="PE.TA" data-name="Tacna" id="PE.TA"/>
utf-8utf-8<path d="M319.7,732.3L317.3,726.9L311.5,719.3L306.3,710.8L302.4,708.1L296.7,702.4L295.5,700.5L294.8,697.3L295.3,696.5L292.6,691.8L292.9,690.2L287.6,693.3L280.9,695.9L274.1,694.8L272.9,696.6L271.9,700.8L270.0,704.1L258.8,715.3L257.6,719.5L256.0,722.3L255.5,726.4L253.0,731.6L250.3,736.1L251.5,740.9L249.4,746.2L242.8,747.2L238.9,750.5L228.3,754.6L225.5,757.0L224.1,760.6L223.7,768.0L222.0,772.3L220.7,772.6L220.7,774.1L219.9,775.4L222.5,776.9L221.6,780.6L222.4,782.0L225.5,782.4L227.5,784.8L228.0,789.6L227.2,794.2L229.2,796.9L228.3,792.3L230.2,790.7L233.2,792.1L234.0,795.9L233.5,797.6L231.4,799.1L234.9,804.3L240.3,807.1L239.2,809.7L239.6,812.0L242.3,813.4L243.0,814.8L241.5,817.0L243.3,823.0L244.8,823.9L244.4,826.3L244.9,829.0L250.1,836.1L250.7,838.2L253.3,841.3L256.5,844.4L256.6,847.1L255.9,851.5L257.2,856.6L256.8,858.1L258.6,859.9L260.3,864.0L261.6,865.9L262.4,869.2L263.0,874.4L266.4,877.7L269.2,882.0L268.9,883.0L270.5,887.0L272.0,888.3L272.4,892.3L275.4,894.4L279.9,903.5L279.8,904.9L284.6,910.2L284.5,911.2L286.3,914.3L292.3,908.1L293.1,898.1L293.1,894.7L295.2,893.3L299.5,893.8L301.9,897.4L301.6,898.9L296.1,906.5L298.3,908.4L302.0,908.3L308.1,912.5L308.7,915.3L308.3,917.1L311.4,926.8L316.1,926.9L321.0,925.0L323.4,923.2L325.7,917.7L333.2,912.7L338.6,907.0L340.8,901.5L341.0,897.2L344.7,893.2L357.6,887.0L357.1,882.3L357.5,877.2L358.6,873.9L358.3,871.5L353.9,869.4L351.7,866.1L351.0,862.9L350.7,857.7L349.5,854.2L346.7,847.8L344.9,845.1L344.3,842.3L345.8,839.0L351.2,831.2L352.1,828.4L351.9,823.9L358.5,804.0L359.2,802.7L366.9,793.4L367.0,790.6L361.3,786.2L355.6,783.6L346.6,776.9L343.9,772.8L340.3,768.9L331.1,762.5L329.2,759.2L329.5,755.9L326.6,751.3L322.9,748.5L322.4,747.4L320.2,736.4L319.8,735.4L319.7,732.3Z " data-id="PE.AN" data-name="Ancash" id="PE.AN"/>
utf-8utf-8<path d="M261.9,602.9L260.4,597.4L261.0,592.1L259.3,589.8L260.8,587.7L260.6,583.8L259.5,580.3L255.0,572.5L251.5,563.1L248.4,559.5L247.0,556.0L242.2,553.6L239.8,551.4L235.4,548.9L233.4,546.6L230.0,539.0L227.1,534.3L225.9,530.8L216.7,522.9L212.4,521.9L211.0,519.2L205.1,512.2L201.7,505.3L200.1,503.2L199.2,498.2L199.6,496.5L202.6,492.7L200.8,489.8L202.8,488.0L208.1,478.0L210.1,475.6L210.7,461.9L208.9,450.1L207.2,445.6L206.8,441.0L208.8,432.4L211.1,429.7L211.7,425.4L210.9,420.7L207.6,414.5L206.5,411.1L204.9,403.3L201.7,397.0L200.6,394.0L199.8,394.6L192.9,397.7L189.8,399.8L186.4,403.4L184.3,408.0L184.4,410.4L186.3,414.3L186.7,416.3L186.0,418.0L180.7,418.9L179.9,420.4L178.7,426.4L174.7,430.8L171.6,428.1L167.4,428.1L163.5,426.8L161.6,426.9L158.7,433.6L156.1,434.9L155.0,438.3L151.0,443.3L150.4,445.9L152.4,450.9L152.6,455.6L155.5,459.5L156.5,471.4L156.3,473.2L151.2,473.0L150.2,475.9L151.0,482.2L150.7,487.1L149.7,492.7L154.4,504.8L155.3,508.3L149.5,514.5L148.2,515.4L149.3,516.4L154.1,515.8L154.9,517.6L158.2,514.8L159.0,514.8L165.9,518.7L165.4,522.9L161.1,527.6L160.9,531.3L163.8,533.0L163.6,537.2L161.1,540.4L153.3,542.4L148.8,547.5L148.9,550.3L150.5,553.3L149.8,557.3L151.5,562.6L155.0,563.2L160.4,574.3L165.0,574.9L172.5,578.5L172.2,583.2L169.3,585.2L167.0,589.3L163.5,591.5L161.3,593.9L160.5,603.6L159.6,603.7L159.2,616.8L161.1,621.3L160.3,625.0L158.2,628.6L157.8,631.0L159.2,632.9L172.5,637.6L174.3,639.0L179.9,644.3L183.8,654.4L183.3,656.7L183.8,659.9L187.8,663.3L192.4,655.8L196.1,653.7L198.1,653.8L205.5,650.7L211.4,653.4L217.3,651.9L219.7,652.4L227.2,658.2L230.6,659.0L234.5,658.7L236.5,661.0L240.6,663.0L241.9,664.7L242.7,669.2L246.8,668.2L250.8,664.9L254.0,661.0L255.9,660.5L259.3,663.2L265.4,661.0L268.4,661.1L270.4,657.4L270.0,647.8L270.3,646.8L274.3,643.8L277.1,643.2L282.7,643.3L281.3,640.2L275.9,635.4L275.0,629.2L272.8,626.6L272.8,624.3L270.1,618.9L267.7,616.5L266.1,609.3L264.1,605.2L262.9,603.9L261.9,602.9Z " data-id="PE.CJ" data-name="Cajamarca" id="PE.CJ"/>
utf-8utf-8<path d="M420.6,740.9L418.8,743.3L416.5,748.2L413.1,752.8L407.9,749.5L407.4,746.1L404.1,737.2L398.7,729.1L398.2,725.4L395.0,722.1L392.8,724.7L392.6,726.6L393.0,732.9L392.8,736.9L391.0,740.5L385.9,741.2L375.2,739.3L361.7,735.8L355.4,737.3L354.7,739.3L351.4,742.1L348.2,741.1L345.0,741.4L344.3,740.6L342.2,733.4L340.6,732.3L331.6,735.3L324.6,735.2L319.8,735.4L320.2,736.4L322.4,747.4L322.9,748.5L326.6,751.3L329.5,755.9L329.2,759.2L331.1,762.5L340.3,768.9L343.9,772.8L346.6,776.9L355.6,783.6L361.3,786.2L367.0,790.6L366.9,793.4L359.2,802.7L358.5,804.0L351.9,823.9L352.1,828.4L351.2,831.2L345.8,839.0L344.3,842.3L344.9,845.1L346.7,847.8L349.5,854.2L350.7,857.7L351.0,862.9L351.7,866.1L353.9,869.4L358.3,871.5L358.6,873.9L357.5,877.2L357.1,882.3L357.6,887.0L358.1,889.8L364.9,892.7L367.3,898.3L370.8,900.4L372.2,900.6L377.2,896.8L378.9,895.0L383.4,887.2L389.3,884.8L398.5,884.9L401.7,885.4L406.7,888.4L410.0,893.2L426.2,894.9L429.9,896.4L433.2,899.0L443.5,893.7L446.1,890.7L444.2,886.2L440.5,870.6L440.3,866.5L440.7,862.4L443.5,857.1L445.8,855.4L450.1,853.6L455.6,852.9L464.9,853.4L469.7,852.9L477.8,850.6L491.9,842.8L494.3,842.7L503.3,844.2L519.9,841.0L536.5,831.9L525.7,815.4L523.0,811.6L521.7,808.3L521.4,805.7L522.0,802.0L523.7,794.7L524.4,790.7L523.7,779.9L526.6,772.8L527.0,769.9L527.0,761.4L534.5,754.0L534.1,749.4L531.5,744.9L528.4,743.4L521.4,742.8L512.1,746.2L498.4,757.5L494.8,761.7L492.4,765.3L485.5,777.9L484.8,780.6L482.8,784.2L477.0,795.7L474.5,797.5L471.0,799.0L466.6,800.3L457.8,808.9L453.4,810.9L450.9,810.8L448.9,808.8L444.9,800.8L441.2,797.5L439.4,794.4L438.7,791.5L438.5,785.5L434.5,777.7L431.5,775.9L431.1,774.8L429.2,759.7L428.2,756.6L424.6,751.0L423.4,748.5L422.9,745.1L424.2,738.4L420.6,740.9Z " data-id="PE.HC" data-name="Huánuco" id="PE.HC"/>
utf-8utf-8<path d="M157.4,601.7L150.2,599.4L147.9,600.1L135.7,614.1L133.9,616.7L133.6,618.2L140.3,625.8L143.8,636.2L142.7,638.4L143.4,642.9L145.6,645.7L151.4,654.1L155.4,661.1L155.4,662.8L153.3,664.7L158.9,671.3L160.0,674.9L162.6,679.0L166.8,684.0L176.0,691.5L180.6,694.9L180.8,697.0L189.2,704.9L191.8,708.1L191.6,709.3L193.6,712.2L193.8,714.1L198.9,721.8L198.7,725.4L196.6,725.8L196.2,726.9L198.4,729.3L200.8,730.3L205.8,734.9L210.7,741.9L212.5,753.3L211.1,756.3L217.8,765.6L220.1,770.0L220.7,772.2L220.7,772.6L222.0,772.3L223.7,768.0L224.1,760.6L225.5,757.0L228.3,754.6L238.9,750.5L242.8,747.2L249.4,746.2L251.5,740.9L250.3,736.1L253.0,731.6L255.5,726.4L256.0,722.3L257.6,719.5L258.8,715.3L270.0,704.1L271.9,700.8L272.9,696.6L274.1,694.8L280.9,695.9L287.6,693.3L292.9,690.2L292.6,691.8L295.3,696.5L294.8,697.3L295.5,700.5L296.7,702.4L302.4,708.1L306.3,710.8L311.5,719.3L317.3,726.9L319.7,732.3L319.8,735.4L324.6,735.2L331.6,735.3L340.6,732.3L342.2,733.4L344.3,740.6L345.0,741.4L348.2,741.1L351.4,742.1L354.7,739.3L355.4,737.3L354.1,735.6L353.4,733.5L350.8,714.0L349.9,710.6L344.7,704.0L339.1,700.5L333.1,698.0L322.1,695.2L320.7,696.0L316.1,695.9L311.4,689.6L312.3,683.1L311.3,680.5L308.0,675.5L305.4,668.7L304.8,665.1L304.9,660.1L306.4,655.3L305.5,651.1L303.2,648.4L294.7,637.5L292.3,632.1L291.5,627.2L293.3,622.5L292.7,618.5L286.9,613.4L284.8,606.9L282.9,603.5L281.9,602.3L277.6,602.9L271.8,601.6L267.6,602.7L264.4,603.4L262.9,603.9L264.1,605.2L266.1,609.3L267.7,616.5L270.1,618.9L272.8,624.3L272.8,626.6L275.0,629.2L275.9,635.4L281.3,640.2L282.7,643.3L277.1,643.2L274.3,643.8L270.3,646.8L270.0,647.8L270.4,657.4L268.4,661.1L265.4,661.0L259.3,663.2L255.9,660.5L254.0,661.0L250.8,664.9L246.8,668.2L242.7,669.2L241.9,664.7L240.6,663.0L236.5,661.0L234.5,658.7L230.6,659.0L227.2,658.2L219.7,652.4L217.3,651.9L211.4,653.4L205.5,650.7L198.1,653.8L196.1,653.7L192.4,655.8L187.8,663.3L183.8,659.9L183.3,656.7L183.8,654.4L179.9,644.3L174.3,639.0L172.5,637.6L159.2,632.9L157.8,631.0L158.2,628.6L160.3,625.0L161.1,621.3L159.2,616.8L159.6,603.7L157.4,601.7Z " data-id="PE.LL" data-name="La Libertad" id="PE.LL"/>
utf-8utf-8<path d="M547.7,933.6L551.5,929.7L555.6,924.7L561.3,918.3L569.2,913.5L569.2,912.4L560.3,906.5L558.8,905.2L557.6,901.0L555.2,896.2L552.5,889.5L552.0,886.8L552.3,874.2L551.0,869.5L546.9,862.2L545.6,858.3L545.5,851.9L544.8,849.0L541.4,840.0L538.5,834.4L536.5,831.9L519.9,841.0L503.3,844.2L494.3,842.7L491.9,842.8L477.8,850.6L469.7,852.9L464.9,853.4L455.6,852.9L450.1,853.6L445.8,855.4L443.5,857.1L440.7,862.4L440.3,866.5L440.5,870.6L444.2,886.2L446.1,890.7L443.5,893.7L433.2,899.0L429.9,896.4L426.2,894.9L410.0,893.2L406.7,888.4L401.7,885.4L398.5,884.9L389.3,884.8L383.4,887.2L378.9,895.0L377.2,896.8L372.2,900.6L374.3,904.1L375.1,905.8L376.8,912.5L381.0,920.9L382.2,926.4L387.7,933.9L388.5,941.4L388.6,946.2L389.6,948.9L393.4,951.4L395.6,956.0L395.5,957.1L399.9,957.6L401.7,957.6L411.4,955.8L411.0,948.0L410.4,943.4L410.7,940.4L416.5,941.8L422.1,940.4L427.8,935.6L432.0,939.2L450.2,938.8L466.7,932.7L473.1,930.8L480.5,930.7L483.2,930.2L485.7,928.8L497.3,925.5L501.8,921.7L506.4,921.6L513.6,925.9L523.8,933.5L531.2,935.8L544.6,935.6L547.7,933.6Z " data-id="PE.PA" data-name="Pasco" id="PE.PA"/>
utf-8utf-8<path d="M425.9,730.1L426.3,725.4L427.7,718.1L434.5,708.2L435.9,704.3L435.4,699.2L432.5,690.4L412.0,646.1L410.1,640.5L409.0,636.1L408.3,631.2L408.6,612.2L406.2,602.2L407.3,597.5L410.8,588.3L413.1,584.2L414.6,582.8L418.7,581.4L420.8,581.4L427.2,583.4L431.6,586.9L438.6,596.3L441.6,597.9L442.8,597.7L445.1,595.3L446.5,591.8L451.0,583.1L452.1,576.1L451.9,572.0L453.2,547.2L452.1,542.7L444.3,532.8L442.0,531.2L437.1,529.1L423.5,525.7L418.5,525.3L405.3,526.6L402.5,525.5L399.5,523.4L393.2,516.4L389.4,511.2L385.4,509.1L381.9,509.9L371.1,518.8L369.0,519.9L363.7,520.4L361.6,519.6L357.8,517.2L355.3,514.3L353.4,510.3L350.6,501.6L349.3,498.9L347.1,496.1L343.0,492.7L336.6,489.5L320.7,488.6L318.5,488.1L315.5,486.3L311.4,482.5L305.7,476.3L300.7,473.4L291.6,469.5L286.1,465.3L284.4,463.1L281.6,465.9L279.6,469.4L279.0,473.3L280.5,481.6L280.2,486.2L278.9,488.7L279.7,492.4L287.5,507.5L289.7,512.9L292.9,517.1L295.1,518.4L308.1,522.3L312.1,524.1L317.8,528.9L319.8,532.4L323.6,542.9L323.7,545.7L321.9,548.6L315.4,555.0L310.8,566.0L308.2,568.2L303.1,569.7L298.1,569.3L294.0,569.8L290.3,568.7L288.0,567.2L284.4,565.7L282.4,567.1L281.0,572.4L281.2,577.3L280.6,585.7L278.8,593.3L278.8,597.9L280.6,601.2L281.9,602.3L282.9,603.5L284.8,606.9L286.9,613.4L292.7,618.5L293.3,622.5L291.5,627.2L292.3,632.1L294.7,637.5L303.2,648.4L305.5,651.1L306.4,655.3L304.9,660.1L304.8,665.1L305.4,668.7L308.0,675.5L311.3,680.5L312.3,683.1L311.4,689.6L316.1,695.9L320.7,696.0L322.1,695.2L333.1,698.0L339.1,700.5L344.7,704.0L349.9,710.6L350.8,714.0L353.4,733.5L354.1,735.6L355.4,737.3L361.7,735.8L375.2,739.3L385.9,741.2L391.0,740.5L392.8,736.9L393.0,732.9L392.6,726.6L392.8,724.7L395.0,722.1L398.2,725.4L398.7,729.1L404.1,737.2L407.4,746.1L407.9,749.5L413.1,752.8L416.5,748.2L418.8,743.3L420.6,740.9L424.2,738.4L425.9,730.1Z " data-id="PE.SM" data-name="San Martín" id="PE.SM"/>
utf-8utf-8<path d="M422.9,745.1L423.4,748.5L424.6,751.0L428.2,756.6L429.2,759.7L431.1,774.8L431.5,775.9L434.5,777.7L438.5,785.5L438.7,791.5L439.4,794.4L441.2,797.5L444.9,800.8L448.9,808.8L450.9,810.8L453.4,810.9L457.8,808.9L466.6,800.3L471.0,799.0L474.5,797.5L477.0,795.7L482.8,784.2L484.8,780.6L485.5,777.9L492.4,765.3L494.8,761.7L498.4,757.5L512.1,746.2L521.4,742.8L528.4,743.4L531.5,744.9L534.1,749.4L534.5,754.0L527.0,761.4L527.0,769.9L526.6,772.8L523.7,779.9L524.4,790.7L523.7,794.7L522.0,802.0L521.4,805.7L521.7,808.3L523.0,811.6L525.7,815.4L536.5,831.9L538.5,834.4L541.4,840.0L544.8,849.0L545.5,851.9L545.6,858.3L546.9,862.2L551.0,869.5L552.3,874.2L552.0,886.8L552.5,889.5L555.2,896.2L557.6,901.0L558.8,905.2L560.3,906.5L569.2,912.4L569.2,913.5L561.3,918.3L555.6,924.7L551.5,929.7L547.7,933.6L544.6,935.6L546.5,943.7L547.9,947.9L550.2,951.5L555.0,953.0L558.1,952.1L561.7,949.8L567.4,949.8L575.6,947.2L580.3,946.6L589.3,946.1L592.3,943.5L597.5,934.5L600.2,928.6L601.1,927.7L605.6,929.4L609.2,930.2L616.3,937.1L619.4,942.3L622.6,952.3L621.7,963.7L623.9,970.8L627.0,975.6L628.6,976.7L630.9,977.3L636.2,975.6L641.6,975.7L651.4,974.2L654.3,973.3L657.8,971.1L660.3,966.8L663.0,967.3L663.9,970.1L666.5,975.4L668.6,977.1L674.3,980.3L679.6,980.6L681.7,979.2L683.9,979.4L685.1,981.9L689.2,984.3L694.3,985.8L696.9,985.4L700.1,982.7L701.9,981.8L706.6,977.4L709.2,976.1L715.0,974.1L718.0,975.8L722.5,975.2L723.9,975.8L723.8,975.7L723.7,973.7L724.9,967.2L729.8,956.0L729.3,952.1L724.8,946.3L725.4,943.5L726.7,942.9L732.5,944.2L735.8,946.9L738.3,947.8L748.9,947.3L751.4,946.6L784.0,927.0L794.7,922.0L798.8,917.9L802.6,915.2L810.1,908.3L816.8,898.6L819.0,894.5L820.2,888.8L820.3,876.8L821.4,871.0L824.8,866.7L834.4,858.4L834.2,854.6L834.0,849.4L834.9,845.0L838.6,843.6L840.7,838.6L839.2,834.0L836.8,832.0L833.8,824.7L838.4,824.6L837.2,822.6L838.3,819.1L839.7,818.4L840.8,813.0L837.6,813.4L834.7,814.6L833.2,816.1L829.4,821.4L824.5,824.6L818.8,830.5L815.1,832.9L807.8,842.0L807.0,844.2L805.2,846.4L800.5,847.8L795.6,850.4L794.4,851.5L791.9,857.0L788.3,858.4L784.3,861.6L780.2,860.6L777.4,862.8L716.3,862.7L717.0,860.9L716.8,856.1L718.3,853.6L717.2,848.9L715.4,845.4L709.9,841.6L708.8,838.4L709.2,831.9L706.2,827.7L705.7,822.5L702.8,821.8L696.1,817.4L691.5,817.8L666.6,811.3L636.1,811.1L637.6,808.2L641.4,803.7L644.9,796.9L649.0,795.0L649.3,791.6L652.7,788.5L654.1,783.1L653.0,775.9L650.2,770.9L645.0,766.5L638.7,756.9L634.9,750.1L633.4,749.3L628.9,748.2L625.8,745.8L622.4,741.0L621.7,738.0L622.2,734.1L621.5,730.8L620.3,729.5L614.3,725.3L608.1,721.5L605.0,712.8L601.6,707.6L600.6,699.0L597.9,695.2L595.9,690.5L589.7,687.3L585.8,679.9L585.8,678.4L589.5,679.4L591.9,677.7L592.6,674.4L591.7,670.9L589.4,668.9L581.9,665.1L571.4,653.4L568.3,651.3L567.5,649.8L570.1,648.6L563.6,644.1L550.9,638.9L539.7,637.3L536.1,636.1L528.6,631.0L525.6,630.5L522.6,632.2L522.1,635.8L523.9,640.7L526.2,652.4L526.4,660.9L527.9,668.7L528.0,676.4L526.8,680.3L525.8,681.4L517.8,686.1L500.7,689.5L494.6,691.8L492.1,693.2L487.9,696.7L480.9,699.3L471.3,699.4L468.3,698.3L466.7,701.0L466.0,704.9L462.9,706.8L459.9,707.3L457.6,709.5L456.8,714.5L457.8,717.8L459.7,721.2L463.9,726.4L464.6,730.1L463.7,730.8L459.2,729.5L453.3,724.1L450.0,722.4L447.1,723.2L442.9,728.9L437.8,732.9L433.3,738.1L430.4,741.0L422.9,745.1Z " data-id="PE.UC" data-name="Ucayali" id="PE.UC"/>
utf-8utf-8<path d="M278.6,449.6L276.6,441.4L275.1,429.1L273.2,422.2L272.4,416.9L273.1,409.4L274.8,404.2L280.3,396.2L282.2,392.5L286.9,378.7L287.0,372.5L286.7,367.1L287.1,352.0L287.6,348.8L287.3,340.5L286.5,334.9L284.7,330.3L281.2,325.1L280.1,321.2L279.9,311.5L278.2,306.2L277.1,298.4L276.2,295.1L273.9,289.2L269.9,281.7L266.7,263.5L265.3,254.1L262.3,255.2L260.9,256.1L255.4,261.6L248.0,273.3L243.4,278.1L240.2,284.8L236.6,288.3L236.7,290.2L239.8,294.0L239.4,298.2L234.7,300.7L231.1,291.5L227.8,290.4L224.9,290.6L224.1,292.2L224.7,295.4L224.2,299.2L221.9,306.5L221.2,316.2L219.9,318.1L221.0,323.6L220.6,325.3L216.8,328.7L215.6,332.0L215.0,338.4L210.2,341.6L209.9,343.0L210.1,348.2L209.4,352.0L201.9,371.6L203.8,379.8L205.7,381.0L203.3,386.0L203.3,391.0L202.6,392.4L200.6,394.0L201.7,397.0L204.9,403.3L206.5,411.1L207.6,414.5L210.9,420.7L211.7,425.4L211.1,429.7L208.8,432.4L206.8,441.0L207.2,445.6L208.9,450.1L210.7,461.9L210.1,475.6L208.1,478.0L202.8,488.0L200.8,489.8L202.6,492.7L199.6,496.5L199.2,498.2L200.1,503.2L201.7,505.3L205.1,512.2L211.0,519.2L212.4,521.9L216.7,522.9L225.9,530.8L227.1,534.3L230.0,539.0L233.4,546.6L235.4,548.9L239.8,551.4L242.2,553.6L247.0,556.0L248.4,559.5L251.5,563.1L255.0,572.5L259.5,580.3L260.6,583.8L260.8,587.7L259.3,589.8L261.0,592.1L260.4,597.4L261.9,602.9L262.9,603.9L264.4,603.4L267.6,602.7L271.8,601.6L277.6,602.9L281.9,602.3L280.6,601.2L278.8,597.9L278.8,593.3L280.6,585.7L281.2,577.3L281.0,572.4L282.4,567.1L284.4,565.7L288.0,567.2L290.3,568.7L294.0,569.8L298.1,569.3L303.1,569.7L308.2,568.2L310.8,566.0L315.4,555.0L321.9,548.6L323.7,545.7L323.6,542.9L319.8,532.4L317.8,528.9L312.1,524.1L308.1,522.3L295.1,518.4L292.9,517.1L289.7,512.9L287.5,507.5L279.7,492.4L278.9,488.7L280.2,486.2L280.5,481.6L279.0,473.3L279.6,469.4L281.6,465.9L284.4,463.1L278.6,449.6Z " data-id="PE.AM" data-name="Amazonas" id="PE.AM"/>
utf-8utf-8<path d="M265.3,254.1L266.7,263.5L269.9,281.7L273.9,289.2L276.2,295.1L277.1,298.4L278.2,306.2L279.9,311.5L280.1,321.2L281.2,325.1L284.7,330.3L286.5,334.9L287.3,340.5L287.6,348.8L287.1,352.0L286.7,367.1L287.0,372.5L286.9,378.7L282.2,392.5L280.3,396.2L274.8,404.2L273.1,409.4L272.4,416.9L273.2,422.2L275.1,429.1L276.6,441.4L278.6,449.6L284.4,463.1L286.1,465.3L291.6,469.5L300.7,473.4L305.7,476.3L311.4,482.5L315.5,486.3L318.5,488.1L320.7,488.6L336.6,489.5L343.0,492.7L347.1,496.1L349.3,498.9L350.6,501.6L353.4,510.3L355.3,514.3L357.8,517.2L361.6,519.6L363.7,520.4L369.0,519.9L371.1,518.8L381.9,509.9L385.4,509.1L389.4,511.2L393.2,516.4L399.5,523.4L402.5,525.5L405.3,526.6L418.5,525.3L423.5,525.7L437.1,529.1L442.0,531.2L444.3,532.8L452.1,542.7L453.2,547.2L451.9,572.0L452.1,576.1L451.0,583.1L446.5,591.8L445.1,595.3L442.8,597.7L441.6,597.9L438.6,596.3L431.6,586.9L427.2,583.4L420.8,581.4L418.7,581.4L414.6,582.8L413.1,584.2L410.8,588.3L407.3,597.5L406.2,602.2L408.6,612.2L408.3,631.2L409.0,636.1L410.1,640.5L412.0,646.1L432.5,690.4L435.4,699.2L435.9,704.3L434.5,708.2L427.7,718.1L426.3,725.4L425.9,730.1L424.2,738.4L422.9,745.1L430.4,741.0L433.3,738.1L437.8,732.9L442.9,728.9L447.1,723.2L450.0,722.4L453.3,724.1L459.2,729.5L463.7,730.8L464.6,730.1L463.9,726.4L459.7,721.2L457.8,717.8L456.8,714.5L457.6,709.5L459.9,707.3L462.9,706.8L466.0,704.9L466.7,701.0L468.3,698.3L471.3,699.4L480.9,699.3L487.9,696.7L492.1,693.2L494.6,691.8L500.7,689.5L517.8,686.1L525.8,681.4L526.8,680.3L528.0,676.4L527.9,668.7L526.4,660.9L526.2,652.4L523.9,640.7L522.1,635.8L522.6,632.2L525.6,630.5L528.6,631.0L536.1,636.1L539.7,637.3L550.9,638.9L563.6,644.1L570.1,648.6L571.0,648.1L571.9,646.2L572.8,641.6L572.3,639.4L569.9,635.2L569.6,633.6L577.5,634.4L580.2,632.5L589.1,630.9L589.9,629.1L588.0,622.3L582.4,613.7L582.0,609.6L583.0,607.1L584.6,599.3L584.6,594.5L593.4,584.1L597.1,580.7L603.1,576.7L608.1,571.6L611.0,569.6L613.6,566.8L615.2,566.2L620.6,566.1L624.0,565.1L626.6,563.5L628.6,561.1L630.3,557.5L631.4,554.0L631.0,548.2L629.2,544.2L627.1,533.8L623.3,529.1L622.5,527.0L622.4,523.0L625.1,516.8L629.0,505.8L631.6,503.1L639.1,491.1L640.8,486.2L641.8,478.2L640.6,470.2L641.2,467.4L643.5,460.7L643.9,457.0L645.9,453.3L645.4,446.7L643.6,442.5L643.9,441.3L650.4,438.2L653.5,437.5L656.6,434.6L659.7,435.3L665.2,434.3L665.7,431.8L668.8,429.6L671.7,426.2L676.1,424.8L682.3,417.8L682.7,413.0L683.5,412.0L695.1,408.1L698.9,404.8L703.0,402.2L707.1,395.7L709.2,396.5L713.9,393.7L717.4,389.8L728.6,384.9L732.0,386.2L734.4,385.3L737.8,387.3L740.9,385.1L741.4,386.6L744.9,384.9L748.9,384.8L749.8,382.2L757.8,380.9L760.7,383.1L762.7,381.3L765.1,380.3L765.0,377.5L766.2,376.3L769.8,376.2L772.0,378.9L774.0,375.6L775.3,374.7L777.3,377.9L782.0,374.9L786.0,376.7L787.5,375.4L787.7,373.4L790.6,376.7L793.7,371.8L796.0,369.3L797.6,365.1L800.1,363.2L799.4,361.1L800.6,358.9L804.1,356.9L811.1,358.3L814.6,353.4L815.8,353.7L815.8,357.8L819.4,360.2L820.8,356.2L823.2,356.1L824.7,359.1L828.9,355.9L832.3,355.1L836.5,357.9L837.8,355.4L840.3,358.1L840.8,365.9L848.8,373.0L850.2,371.6L852.3,366.7L856.9,366.4L858.2,370.1L860.5,372.5L865.2,370.6L867.1,366.2L866.9,363.8L864.6,359.0L859.3,352.6L851.4,348.2L849.3,345.9L846.9,336.9L842.5,331.0L839.5,328.6L836.6,327.5L829.9,331.9L825.9,332.9L810.5,324.9L807.1,324.5L855.6,235.3L856.8,232.0L855.9,231.3L853.7,225.1L848.8,227.8L848.4,225.3L846.9,224.0L844.3,225.1L842.9,224.5L839.9,217.7L838.2,216.7L833.4,218.9L834.4,213.4L831.8,212.3L825.8,213.0L823.7,209.6L816.4,205.5L811.2,209.4L807.1,202.4L806.5,198.8L800.3,197.0L797.6,195.1L793.6,190.3L791.2,188.7L789.6,189.5L784.5,187.5L782.3,187.4L781.7,190.6L782.4,192.8L779.9,193.1L777.9,191.8L773.1,193.2L771.7,197.3L768.2,199.8L764.8,198.7L760.6,200.5L760.0,199.3L754.6,202.3L752.0,202.9L751.1,201.1L752.7,198.7L748.4,192.2L744.8,197.0L742.8,189.7L738.4,188.7L733.9,185.5L732.1,185.1L728.0,186.8L725.2,182.7L719.7,186.9L717.0,191.6L710.3,198.8L705.5,198.1L703.0,198.1L700.9,199.0L698.8,201.1L695.5,205.5L694.4,205.9L689.5,204.6L686.3,205.5L686.4,207.3L680.8,209.2L677.6,209.0L676.3,208.2L674.1,205.5L666.3,204.1L664.8,203.6L658.6,199.3L655.7,205.4L653.0,206.7L651.8,202.2L649.7,205.2L646.4,203.1L640.4,206.5L637.2,207.2L635.1,205.2L633.7,201.2L632.3,199.6L627.0,196.4L625.0,200.3L619.2,195.8L618.3,192.1L617.3,191.2L616.9,185.7L619.7,182.8L622.5,176.8L621.5,175.7L619.9,170.3L618.5,168.0L618.2,159.9L616.3,157.5L616.4,153.1L611.7,148.2L606.4,150.1L603.8,152.3L601.0,149.8L598.2,149.5L596.5,147.8L591.5,144.4L589.9,142.2L590.0,138.9L593.4,133.5L592.6,128.2L589.2,121.5L586.3,120.0L585.6,118.7L587.2,116.1L585.9,115.5L584.2,110.3L583.2,110.5L581.4,106.0L574.1,102.7L572.3,99.8L570.0,102.5L566.6,103.0L562.7,100.5L558.4,93.3L556.0,93.9L555.0,93.3L555.4,90.3L554.8,89.7L552.2,91.9L551.3,91.4L548.4,84.1L547.6,83.2L546.4,85.7L544.3,85.8L539.6,83.8L535.1,82.8L533.0,81.6L531.3,79.0L530.2,75.1L527.0,71.7L527.5,70.7L530.8,70.8L531.2,69.8L529.6,66.8L527.0,64.4L524.4,61.2L523.9,58.3L525.4,56.0L521.7,47.0L518.7,42.6L506.9,31.6L504.0,26.9L500.7,28.0L492.7,24.5L495.4,21.5L492.8,15.6L489.2,12.5L487.3,15.9L484.4,16.2L481.8,15.6L479.1,13.9L476.0,10.0L471.9,8.1L468.9,3.5L465.8,1.2L462.4,0.2L459.7,0.3L457.4,5.2L452.4,9.4L449.2,10.4L446.6,10.0L443.9,11.6L441.9,11.4L436.5,8.1L428.0,7.1L427.5,8.6L429.4,13.1L433.4,13.9L435.0,15.6L438.8,17.6L439.7,18.9L442.1,28.7L443.6,32.3L448.1,37.9L450.5,38.7L455.7,42.8L457.2,46.1L456.9,49.5L455.5,53.6L454.7,54.2L454.2,62.1L457.7,75.1L459.7,81.3L450.4,81.8L446.0,76.6L442.4,91.8L434.8,127.4L433.8,130.4L432.0,132.9L427.9,137.3L395.0,181.6L354.9,216.9L350.5,220.0L267.3,253.2L265.3,254.1Z " data-id="PE.LO" data-name="Loreto" id="PE.LO"/>
utf-8utf-8<path d="M590.9,1059.5L586.4,1057.8L584.5,1058.2L580.7,1061.8L578.1,1062.3L574.8,1061.2L570.8,1058.0L569.2,1056.1L563.8,1052.9L562.5,1049.6L561.0,1047.9L556.3,1052.0L552.8,1057.0L551.2,1064.4L549.8,1069.0L553.5,1074.4L554.3,1074.9L558.4,1074.5L562.7,1081.4L566.9,1086.7L568.6,1090.4L569.0,1096.2L571.4,1100.9L571.0,1106.8L569.0,1107.5L569.5,1110.2L569.3,1113.7L571.3,1115.8L574.5,1125.3L574.0,1126.3L570.4,1123.9L566.6,1122.9L564.8,1124.4L564.4,1129.1L566.1,1135.2L563.3,1137.8L560.7,1138.5L555.0,1138.9L553.6,1138.1L552.1,1138.9L550.2,1142.6L546.7,1145.0L546.1,1147.4L548.1,1149.8L551.8,1152.2L549.3,1155.3L543.5,1154.0L541.0,1152.5L539.2,1149.2L536.9,1148.7L529.7,1152.0L528.2,1160.1L529.6,1161.9L533.1,1164.1L535.4,1168.0L536.7,1169.0L539.3,1173.1L539.6,1179.7L540.2,1182.4L543.5,1189.3L545.8,1195.1L546.7,1199.6L546.7,1209.8L545.5,1213.1L540.2,1213.0L527.8,1215.8L523.1,1218.7L522.5,1220.5L521.8,1221.9L521.5,1225.6L523.2,1229.0L523.4,1232.1L519.4,1242.5L526.2,1249.4L525.3,1254.8L528.0,1261.5L531.9,1260.7L533.7,1259.3L535.2,1256.6L537.3,1255.8L542.7,1261.2L542.8,1264.3L544.5,1267.4L548.0,1270.0L551.3,1279.1L552.9,1280.9L556.5,1287.3L557.2,1294.7L555.3,1302.2L555.5,1303.3L559.7,1307.0L565.6,1308.0L575.7,1311.5L575.9,1315.2L578.8,1320.0L581.1,1325.0L586.6,1328.0L587.9,1332.1L590.8,1335.2L596.2,1337.3L599.6,1336.3L603.1,1333.6L605.9,1337.4L607.6,1340.6L607.4,1344.4L610.1,1347.0L615.5,1343.7L619.9,1334.4L622.7,1332.9L630.7,1333.0L638.4,1331.7L641.8,1331.5L645.0,1330.6L653.4,1326.1L658.0,1328.1L663.7,1328.8L666.9,1328.7L665.6,1322.6L666.1,1319.3L669.3,1319.0L673.4,1320.4L675.1,1320.0L683.6,1305.8L684.4,1291.3L681.9,1286.7L682.5,1281.8L683.2,1280.5L687.9,1278.0L691.3,1278.5L694.9,1277.9L696.0,1276.2L695.1,1274.1L694.7,1271.4L689.6,1268.8L680.1,1262.4L678.6,1265.2L674.0,1266.0L673.0,1267.1L664.1,1270.0L662.3,1270.2L655.9,1268.6L652.0,1276.5L650.2,1277.9L644.6,1279.0L643.4,1277.7L639.6,1268.6L643.3,1266.8L644.5,1259.6L644.2,1257.6L640.6,1251.5L640.4,1249.9L640.6,1238.7L638.7,1227.7L633.9,1220.6L631.2,1213.9L630.1,1208.2L620.1,1190.1L619.6,1188.1L622.8,1187.1L623.9,1185.0L622.1,1182.8L615.6,1177.1L615.0,1176.1L611.2,1159.9L610.0,1157.3L609.4,1154.3L611.6,1147.9L610.3,1144.5L612.7,1139.4L615.6,1141.3L618.3,1144.7L632.2,1154.0L636.8,1158.6L639.1,1159.7L654.6,1162.9L655.4,1162.9L657.1,1159.0L657.4,1158.1L656.7,1157.2L654.5,1155.1L650.7,1152.6L645.9,1145.2L641.6,1139.7L629.2,1129.0L630.1,1127.1L628.1,1120.4L625.1,1111.6L623.4,1108.8L618.8,1094.9L614.1,1089.5L612.8,1088.7L612.4,1090.5L611.3,1089.5L606.7,1083.4L606.0,1081.0L603.2,1078.8L602.9,1073.9L601.1,1071.5L596.4,1063.2L594.1,1059.1L590.9,1059.5Z " data-id="PE.AY" data-name="Ayacucho" id="PE.AY"/>
utf-8utf-8<path d="M345.2,1008.5L347.3,1012.3L347.7,1014.1L346.6,1020.0L347.1,1021.8L353.4,1036.8L353.9,1041.0L358.4,1045.0L359.9,1048.4L359.4,1050.8L362.7,1054.7L367.2,1056.8L374.8,1061.3L377.2,1065.6L380.0,1068.1L380.9,1071.4L380.5,1074.6L379.1,1076.9L380.2,1079.2L383.1,1076.1L383.3,1070.9L387.4,1068.8L387.7,1063.9L390.1,1057.5L385.3,1049.0L382.7,1043.8L384.5,1041.8L386.7,1043.0L380.8,1037.4L380.5,1034.7L383.9,1031.9L384.1,1029.3L380.4,1024.3L378.2,1023.0L374.6,1027.7L372.3,1029.6L366.7,1031.4L366.2,1025.7L364.6,1023.0L366.1,1016.5L369.0,1015.8L370.8,1012.8L370.1,1011.3L364.4,1010.7L362.8,1012.3L360.3,1009.9L359.4,1006.8L355.8,1005.3L355.6,1003.4L356.5,1000.1L353.1,996.7L347.0,1005.8L344.9,1007.5L345.2,1008.5Z " data-id="PE.LR" data-name="Lima Province" id="PE.LR"/>
utf-8utf-8<path d="M556.8,1044.4L551.5,1039.0L548.0,1038.5L543.0,1034.7L530.2,1038.6L527.3,1038.6L524.1,1037.7L518.5,1039.2L514.6,1038.4L511.8,1036.4L510.2,1034.2L505.4,1038.3L506.5,1043.5L508.4,1045.2L510.0,1051.5L507.8,1057.2L506.1,1059.3L502.9,1060.5L505.4,1066.9L506.4,1067.6L501.7,1068.8L500.0,1069.9L497.3,1074.6L487.9,1083.0L485.3,1089.1L483.1,1090.3L482.3,1093.6L482.3,1094.5L482.5,1097.0L481.1,1100.9L479.3,1104.0L476.3,1107.4L473.8,1109.1L472.3,1116.9L471.5,1120.1L472.1,1120.9L470.1,1126.9L467.3,1128.5L466.4,1131.1L467.7,1135.9L466.8,1142.1L464.3,1144.0L463.6,1148.8L461.6,1155.2L464.8,1157.1L473.1,1156.9L481.4,1159.9L484.1,1160.1L486.2,1161.9L484.5,1168.1L482.1,1172.1L485.3,1179.8L483.3,1184.9L482.3,1186.4L483.6,1194.4L484.6,1197.5L486.3,1199.4L490.9,1201.4L496.9,1204.6L499.8,1204.9L507.5,1210.5L511.2,1214.7L515.6,1215.3L519.1,1216.8L520.9,1218.2L522.5,1220.5L523.1,1218.7L527.8,1215.8L540.2,1213.0L545.5,1213.1L546.7,1209.8L546.7,1199.6L545.8,1195.1L543.5,1189.3L540.2,1182.4L539.6,1179.7L539.3,1173.1L536.7,1169.0L535.4,1168.0L533.1,1164.1L529.6,1161.9L528.2,1160.1L529.7,1152.0L536.9,1148.7L539.2,1149.2L541.0,1152.5L543.5,1154.0L549.3,1155.3L551.8,1152.2L548.1,1149.8L546.1,1147.4L546.7,1145.0L550.2,1142.6L552.1,1138.9L553.6,1138.1L555.0,1138.9L560.7,1138.5L563.3,1137.8L566.1,1135.2L564.4,1129.1L564.8,1124.4L566.6,1122.9L570.4,1123.9L574.0,1126.3L574.5,1125.3L571.3,1115.8L569.3,1113.7L569.5,1110.2L569.0,1107.5L571.0,1106.8L571.4,1100.9L569.0,1096.2L568.6,1090.4L566.9,1086.7L562.7,1081.4L558.4,1074.5L554.3,1074.9L553.5,1074.4L549.8,1069.0L551.2,1064.4L552.8,1057.0L556.3,1052.0L561.0,1047.9L556.8,1044.4Z " data-id="PE.HV" data-name="Huancavelica" id="PE.HV"/>
utf-8utf-8<path d="M439.6,1233.0L438.0,1230.9L436.1,1231.8L439.4,1233.6L439.6,1233.0Z M416.3,1195.5L415.8,1192.9L415.0,1192.8L414.2,1195.5L416.3,1195.5Z M471.5,1120.1L469.6,1121.1L459.5,1124.1L454.4,1124.3L447.6,1121.6L446.5,1123.0L444.6,1127.8L434.5,1137.6L430.5,1146.4L427.2,1149.3L429.6,1152.5L432.0,1158.6L432.8,1161.8L433.8,1168.3L433.1,1175.5L431.7,1183.3L431.9,1185.1L430.0,1196.1L426.7,1193.6L427.4,1191.2L424.7,1190.0L421.0,1193.9L420.3,1200.1L425.6,1201.3L427.5,1198.9L427.9,1199.5L430.1,1207.0L429.2,1207.4L430.6,1209.8L430.9,1212.4L429.3,1215.1L430.2,1217.1L430.5,1220.3L430.0,1222.6L431.7,1225.5L433.0,1222.8L433.0,1220.9L435.7,1222.0L438.6,1226.3L442.2,1229.0L444.9,1235.4L442.3,1236.5L443.4,1239.2L447.4,1240.8L451.1,1245.2L455.7,1248.0L457.1,1250.7L456.7,1252.1L460.2,1258.3L460.9,1264.2L465.4,1267.3L468.4,1270.9L470.7,1271.8L475.6,1274.8L479.2,1277.8L484.9,1281.2L491.4,1284.6L496.6,1292.4L499.5,1294.4L500.8,1297.0L507.7,1307.1L511.7,1307.7L513.3,1308.5L517.3,1312.3L516.0,1316.2L518.3,1318.5L523.8,1321.5L523.5,1325.0L522.6,1326.5L523.9,1326.9L530.1,1330.6L531.7,1332.4L538.7,1315.2L540.4,1313.3L555.3,1302.2L557.2,1294.7L556.5,1287.3L552.9,1280.9L551.3,1279.1L548.0,1270.0L544.5,1267.4L542.8,1264.3L542.7,1261.2L537.3,1255.8L535.2,1256.6L533.7,1259.3L531.9,1260.7L528.0,1261.5L525.3,1254.8L526.2,1249.4L519.4,1242.5L523.4,1232.1L523.2,1229.0L521.5,1225.6L521.8,1221.9L522.5,1220.5L520.9,1218.2L519.1,1216.8L515.6,1215.3L511.2,1214.7L507.5,1210.5L499.8,1204.9L496.9,1204.6L490.9,1201.4L486.3,1199.4L484.6,1197.5L483.6,1194.4L482.3,1186.4L483.3,1184.9L485.3,1179.8L482.1,1172.1L484.5,1168.1L486.2,1161.9L484.1,1160.1L481.4,1159.9L473.1,1156.9L464.8,1157.1L461.6,1155.2L463.6,1148.8L464.3,1144.0L466.8,1142.1L467.7,1135.9L466.4,1131.1L467.3,1128.5L470.1,1126.9L472.1,1120.9L471.5,1120.1Z " data-id="PE.IC" data-name="Ica" id="PE.IC"/>
utf-8utf-8<path d="M531.2,935.8L523.8,933.5L513.6,925.9L506.4,921.6L501.8,921.7L497.3,925.5L485.7,928.8L483.2,930.2L480.5,930.7L473.1,930.8L466.7,932.7L450.2,938.8L432.0,939.2L427.8,935.6L422.1,940.4L416.5,941.8L410.7,940.4L410.4,943.4L411.0,948.0L411.4,955.8L401.7,957.6L399.9,957.6L395.5,957.1L395.5,963.1L396.7,971.9L397.6,975.7L401.6,979.8L406.2,992.2L409.2,996.1L411.1,997.2L417.2,998.6L418.8,1001.2L419.0,1005.1L421.2,1014.5L426.2,1022.0L431.6,1026.8L434.9,1034.4L437.6,1036.5L442.5,1034.3L446.0,1034.1L452.3,1037.1L455.8,1039.5L461.8,1042.0L466.6,1047.5L465.4,1050.6L466.8,1053.9L473.1,1066.7L474.2,1068.0L475.3,1071.2L475.2,1078.8L473.6,1086.4L473.8,1087.8L477.8,1091.0L482.3,1094.5L482.3,1093.6L483.1,1090.3L485.3,1089.1L487.9,1083.0L497.3,1074.6L500.0,1069.9L501.7,1068.8L506.4,1067.6L505.4,1066.9L502.9,1060.5L506.1,1059.3L507.8,1057.2L510.0,1051.5L508.4,1045.2L506.5,1043.5L505.4,1038.3L510.2,1034.2L511.8,1036.4L514.6,1038.4L518.5,1039.2L524.1,1037.7L527.3,1038.6L530.2,1038.6L543.0,1034.7L548.0,1038.5L551.5,1039.0L556.8,1044.4L561.0,1047.9L562.5,1049.6L563.8,1052.9L569.2,1056.1L570.8,1058.0L574.8,1061.2L578.1,1062.3L580.7,1061.8L584.5,1058.2L586.4,1057.8L590.9,1059.5L594.1,1059.1L601.7,1059.0L604.4,1058.6L613.1,1055.8L615.6,1054.8L619.3,1048.7L619.9,1043.1L619.4,1039.4L619.8,1036.0L626.3,1023.8L626.9,1013.2L623.8,1009.4L621.7,1008.1L614.6,1005.7L611.4,1004.3L621.4,994.7L625.3,987.5L628.1,979.2L628.6,976.7L627.0,975.6L623.9,970.8L621.7,963.7L622.6,952.3L619.4,942.3L616.3,937.1L609.2,930.2L605.6,929.4L601.1,927.7L600.2,928.6L597.5,934.5L592.3,943.5L589.3,946.1L580.3,946.6L575.6,947.2L567.4,949.8L561.7,949.8L558.1,952.1L555.0,953.0L550.2,951.5L547.9,947.9L546.5,943.7L544.6,935.6L531.2,935.8Z " data-id="PE.JU" data-name="Junín" id="PE.JU"/>
utf-8utf-8<path d="M370.8,900.4L367.3,898.3L364.9,892.7L358.1,889.8L357.6,887.0L344.7,893.2L341.0,897.2L340.8,901.5L338.6,907.0L333.2,912.7L325.7,917.7L323.4,923.2L321.0,925.0L316.1,926.9L311.4,926.8L308.3,917.1L308.7,915.3L308.1,912.5L302.0,908.3L298.3,908.4L296.1,906.5L301.6,898.9L301.9,897.4L299.5,893.8L295.2,893.3L293.1,894.7L293.1,898.1L292.3,908.1L286.3,914.3L289.9,920.5L298.2,930.7L297.8,931.5L301.4,935.9L301.3,937.3L304.8,942.4L307.0,948.4L305.9,949.9L308.5,956.7L310.2,958.7L311.8,963.0L312.1,965.2L310.3,967.4L307.9,969.2L308.6,974.0L311.7,976.6L323.9,983.6L326.5,985.9L331.3,988.6L334.5,991.4L338.2,997.6L337.7,998.4L343.7,1004.6L344.7,1006.6L344.9,1007.5L347.0,1005.8L353.1,996.7L356.5,1000.1L355.6,1003.4L355.8,1005.3L359.4,1006.8L360.3,1009.9L362.8,1012.3L364.4,1010.7L370.1,1011.3L370.8,1012.8L369.0,1015.8L366.1,1016.5L364.6,1023.0L366.2,1025.7L366.7,1031.4L372.3,1029.6L374.6,1027.7L378.2,1023.0L380.4,1024.3L384.1,1029.3L383.9,1031.9L380.5,1034.7L380.8,1037.4L386.7,1043.0L384.5,1041.8L382.7,1043.8L385.3,1049.0L390.1,1057.5L387.7,1063.9L387.4,1068.8L383.3,1070.9L383.1,1076.1L380.2,1079.2L381.7,1080.4L385.3,1082.9L389.9,1089.5L390.0,1091.8L394.6,1100.1L396.2,1102.1L404.0,1110.4L404.6,1113.9L404.4,1117.0L405.6,1120.8L407.6,1124.8L410.2,1127.8L422.4,1143.9L425.1,1146.5L427.2,1149.3L430.5,1146.4L434.5,1137.6L444.6,1127.8L446.5,1123.0L447.6,1121.6L454.4,1124.3L459.5,1124.1L469.6,1121.1L471.5,1120.1L472.3,1116.9L473.8,1109.1L476.3,1107.4L479.3,1104.0L481.1,1100.9L482.5,1097.0L482.3,1094.5L477.8,1091.0L473.8,1087.8L473.6,1086.4L475.2,1078.8L475.3,1071.2L474.2,1068.0L473.1,1066.7L466.8,1053.9L465.4,1050.6L466.6,1047.5L461.8,1042.0L455.8,1039.5L452.3,1037.1L446.0,1034.1L442.5,1034.3L437.6,1036.5L434.9,1034.4L431.6,1026.8L426.2,1022.0L421.2,1014.5L419.0,1005.1L418.8,1001.2L417.2,998.6L411.1,997.2L409.2,996.1L406.2,992.2L401.6,979.8L397.6,975.7L396.7,971.9L395.5,963.1L395.5,957.1L395.6,956.0L393.4,951.4L389.6,948.9L388.6,946.2L388.5,941.4L387.7,933.9L382.2,926.4L381.0,920.9L376.8,912.5L375.1,905.8L374.3,904.1L372.2,900.6L370.8,900.4Z " data-id="PE.LR" data-name="Lima" id="PE.LR"/>
utf-8</g>
</svg>
