<?xml version="1.0" ?>
<!DOCTYPE svg
  PUBLIC '-//W3C//DTD SVG 1.1//EN'
  'http://www.w3.org/Graphics/SVG/1.1/DTD/svg11.dtd'>
<svg enable_background="new 0 0 1000 653" height="653px" pretty_print="True" style="stroke-linejoin: round; stroke:#000; fill: none;" version="1.1" viewBox="0 0 1000 653" width="1000px" xmlns="http://www.w3.org/2000/svg" xmlns:xlink="http://www.w3.org/1999/xlink">
utf-8<defs>
utf-8utf-8<style type="text/css">
<![CDATA[path { fill-rule: evenodd; }]]>utf-8utf-8</style>
utf-8</defs>
utf-8<metadata>
utf-8utf-8<views>
utf-8utf-8utf-8<view h="653.921614044" padding="0" w="1000">
utf-8utf-8utf-8utf-8<proj flip="auto" id="robinson" lon0="143.425170848"/>
utf-8utf-8utf-8utf-8<bbox h="146.8" w="224.83" x="2080.11" y="32.65"/>
utf-8utf-8utf-8</view>
utf-8utf-8</views>
utf-8</metadata>
utf-8<g class="" id="provinces">
utf-8utf-8<path d="M235.7,245.1L233.4,243.2L232.0,237.0L225.7,233.6L220.6,227.4L220.5,225.9L168.5,230.6L160.6,232.7L156.5,232.9L150.0,231.9L141.1,228.8L140.5,265.0L146.8,275.1L165.2,282.7L169.4,285.3L175.7,292.1L181.3,296.9L186.4,299.0L194.9,296.7L198.3,296.0L201.2,296.2L205.2,297.1L205.0,296.2L203.3,293.1L204.1,291.4L207.8,289.4L217.3,285.7L222.3,282.5L226.2,277.5L227.1,274.2L227.0,269.6L223.5,260.4L224.2,258.4L235.1,252.3L235.9,250.1L237.5,246.9L235.7,245.1Z " data-id="PG.EG" data-name="Enga" id="PG.EG"/>
utf-8utf-8<path d="M269.4,116.9L267.6,116.1L267.6,116.6L269.4,116.9Z M169.1,104.7L168.1,114.8L166.5,117.2L162.7,116.7L150.9,111.2L149.0,109.8L141.1,111.2L140.2,111.9L136.6,119.8L136.3,132.6L137.9,138.2L137.5,142.8L136.4,145.7L132.2,148.8L128.8,157.5L125.1,158.5L85.0,159.2L83.4,158.9L81.6,159.9L82.6,157.4L79.6,153.8L76.5,154.5L52.5,172.2L50.9,174.3L50.3,177.6L49.8,190.0L50.1,193.6L51.4,196.7L54.9,198.0L59.6,198.5L105.7,198.9L112.1,203.3L112.5,225.0L122.0,225.3L125.9,226.2L132.9,226.5L137.7,226.3L141.1,228.8L150.0,231.9L156.5,232.9L160.6,232.7L168.5,230.6L220.5,225.9L223.3,225.6L225.7,224.8L253.2,202.7L261.8,188.6L264.9,152.7L265.0,152.6L264.5,152.2L263.1,150.5L263.2,142.7L261.2,139.3L250.9,137.8L245.7,138.5L244.8,141.3L243.0,143.1L239.1,141.8L235.8,139.0L237.9,138.6L231.1,138.4L227.3,137.5L224.4,132.2L218.5,129.1L216.3,124.7L211.7,123.6L209.6,121.7L210.2,120.8L203.4,119.0L202.2,116.0L198.7,111.8L194.6,109.7L180.7,106.9L172.8,104.8L170.2,104.6L169.1,104.7Z M201.9,106.6L202.5,104.4L198.0,101.8L196.8,104.3L197.8,105.3L201.9,106.6Z M238.5,95.5L236.1,92.5L233.7,94.4L234.9,96.2L237.2,96.9L238.5,95.5Z " data-id="PG.ES" data-name="East Sepik" id="PG.ES"/>
utf-8utf-8<path d="M432.2,258.9L432.8,255.0L433.9,253.8L431.9,246.0L430.4,245.2L427.4,241.6L426.0,241.6L422.7,244.1L420.2,244.9L419.0,247.2L418.4,249.8L419.3,253.4L421.6,255.4L424.0,258.9L425.8,260.4L428.0,260.5L432.2,258.9Z M372.0,214.0L370.8,211.5L369.6,211.5L368.0,214.3L368.5,215.6L372.0,214.0Z M352.7,209.1L357.8,205.9L359.2,199.4L358.9,196.5L356.6,193.5L353.0,193.0L348.8,198.2L347.1,204.0L347.3,205.2L350.0,209.1L352.7,209.1Z M298.6,157.0L296.4,156.3L293.8,158.1L294.5,162.0L298.6,161.5L299.2,157.8L298.6,157.0Z M265.0,152.6L264.9,152.7L261.8,188.6L253.2,202.7L225.7,224.8L223.3,225.6L220.5,225.9L220.6,227.4L225.7,233.6L232.0,237.0L233.4,243.2L235.7,245.1L237.5,246.9L239.7,247.8L244.9,245.7L254.2,249.7L260.3,256.8L265.1,259.0L267.8,263.4L269.2,264.9L276.2,269.4L277.2,272.6L282.5,278.2L285.7,284.4L286.9,286.0L290.5,287.2L292.2,289.0L294.9,292.5L299.8,292.2L308.8,292.0L311.2,296.9L312.3,298.1L317.2,299.1L320.7,295.9L324.9,296.0L327.5,298.5L336.1,298.9L338.5,300.3L340.3,301.5L380.5,301.7L401.7,288.3L402.0,288.1L402.0,288.1L397.6,284.5L393.3,283.1L385.6,275.8L383.3,275.0L381.2,272.0L374.0,270.3L369.8,270.7L368.0,269.2L366.8,269.6L361.3,266.6L359.7,266.6L356.4,265.1L354.4,265.1L350.7,263.3L349.6,262.0L346.7,263.0L344.0,265.6L343.2,263.3L341.6,262.8L337.6,263.6L335.8,262.9L333.9,258.8L336.0,248.9L339.1,243.8L340.2,234.2L341.1,232.3L339.9,225.0L341.1,218.3L342.1,217.0L340.1,213.5L337.9,212.8L334.5,210.1L327.9,201.0L326.7,197.5L323.8,195.9L319.9,189.6L316.1,185.8L313.6,181.9L311.1,180.8L302.8,181.9L296.1,179.4L294.4,178.3L292.2,174.4L291.1,173.4L291.3,170.7L282.9,164.9L284.1,161.7L283.4,160.3L277.2,155.9L274.7,154.8L266.5,153.4L265.0,152.6L265.0,152.6Z " data-id="PG.MD" data-name="Madang" id="PG.MD"/>
utf-8utf-8<path d="M23.9,226.5L25.8,227.1L102.9,257.6L104.8,256.0L107.5,254.6L109.4,251.4L113.8,239.5L112.2,232.2L112.5,225.0L112.1,203.3L105.7,198.9L59.6,198.5L54.9,198.0L51.4,196.7L50.1,193.6L49.8,190.0L50.3,177.6L50.9,174.3L52.5,172.2L76.5,154.5L79.6,153.8L82.6,157.4L81.6,159.9L83.4,158.9L85.0,159.2L125.1,158.5L128.8,157.5L132.2,148.8L136.4,145.7L137.5,142.8L137.9,138.2L136.3,132.6L136.6,119.8L140.2,111.9L141.1,111.2L149.0,109.8L150.9,111.2L162.7,116.7L166.5,117.2L168.1,114.8L169.1,104.7L169.1,104.7L165.4,104.9L160.2,103.4L158.3,102.1L155.7,101.8L153.5,100.5L151.3,100.1L131.3,93.0L124.4,89.2L110.6,84.4L107.8,82.6L105.6,83.4L102.9,82.9L103.2,79.1L99.1,75.1L91.5,75.7L88.7,73.4L88.2,71.4L86.2,71.0L71.7,63.1L59.2,57.1L56.3,56.2L54.5,53.9L53.7,54.3L52.4,51.8L49.3,51.2L47.9,50.1L37.2,47.9L34.9,49.2L32.7,48.7L31.4,78.6L29.4,121.7L27.2,165.8L24.8,210.5L23.9,226.5Z " data-id="PG.SA" data-name="Sandaun" id="PG.SA"/>
utf-8utf-8<path d="M285.0,286.8L282.2,287.4L276.1,287.1L271.2,285.8L270.9,287.0L270.9,297.5L269.0,299.7L264.3,303.6L263.9,308.2L265.4,310.2L265.2,312.8L262.1,320.6L258.5,324.5L256.4,327.6L255.3,331.2L254.4,331.7L251.2,329.2L251.2,332.8L244.8,337.8L244.2,340.4L244.7,344.4L250.3,345.7L251.6,346.9L252.6,351.1L259.9,355.0L260.6,356.8L260.8,356.8L267.9,358.0L270.6,358.0L273.7,356.5L277.6,360.0L283.2,361.2L290.8,364.5L295.6,364.9L298.5,367.0L301.8,357.0L299.6,352.8L293.3,352.3L285.2,343.2L280.2,340.2L279.9,337.3L281.4,334.4L284.3,332.7L290.2,332.9L292.6,331.5L294.7,328.7L298.4,325.3L299.3,321.0L298.1,312.5L295.6,311.2L293.4,309.1L292.8,306.6L293.7,296.5L294.9,292.5L292.2,289.0L290.5,287.2L286.9,286.0L285.0,286.8Z " data-id="PG.CH" data-name="Chimbu" id="PG.CH"/>
utf-8utf-8<path d="M338.5,300.3L336.1,298.9L327.5,298.5L324.9,296.0L320.7,295.9L317.2,299.1L312.3,298.1L311.2,296.9L308.8,292.0L299.8,292.2L294.9,292.5L293.7,296.5L292.8,306.6L293.4,309.1L295.6,311.2L298.1,312.5L299.3,321.0L298.4,325.3L294.7,328.7L292.6,331.5L290.2,332.9L284.3,332.7L281.4,334.4L279.9,337.3L280.2,340.2L285.2,343.2L293.3,352.3L299.6,352.8L301.8,357.0L298.5,367.0L332.1,393.9L335.7,384.0L336.9,381.9L339.2,375.2L341.0,372.2L343.9,369.5L345.6,366.3L345.0,360.8L344.3,357.7L347.9,352.1L356.1,320.4L355.4,316.6L346.3,308.7L346.2,307.5L344.2,308.5L341.1,302.5L340.3,301.5L338.5,300.3Z " data-id="PG.EH" data-name="Eastern Highlands" id="PG.EH"/>
utf-8utf-8<path d="M295.6,364.9L290.8,364.5L283.2,361.2L277.6,360.0L273.7,356.5L270.6,358.0L267.9,358.0L260.8,356.8L260.6,356.8L192.5,364.1L147.5,364.2L146.6,379.1L202.6,450.1L202.6,450.1L203.6,448.7L202.8,445.6L198.1,436.5L197.6,429.9L193.1,419.7L192.2,416.7L192.5,415.3L188.4,413.6L189.5,412.6L192.7,413.3L194.2,414.3L196.5,420.5L198.7,424.8L203.2,428.0L215.1,432.8L221.7,435.6L225.9,433.5L223.9,430.4L224.8,428.9L226.3,423.3L228.4,427.9L230.1,427.6L229.1,421.7L231.0,425.4L232.0,431.7L236.6,431.4L239.2,436.0L240.9,435.7L237.2,427.4L236.1,418.7L236.2,415.9L243.3,425.6L243.7,424.8L242.1,421.8L242.8,419.4L243.7,413.2L244.5,414.6L244.5,417.9L245.1,421.5L246.8,424.8L251.2,424.6L251.9,423.5L251.4,419.5L251.9,418.1L254.5,422.2L258.8,427.0L259.9,427.4L263.2,426.5L262.9,425.3L264.9,418.7L265.6,421.6L264.9,428.8L265.7,434.5L270.4,434.0L272.8,437.1L276.9,437.1L278.6,434.3L279.7,437.2L283.9,438.6L285.2,436.3L288.7,440.6L291.4,440.1L293.8,440.5L295.6,441.6L299.1,445.7L302.7,446.7L312.5,445.7L319.3,447.8L320.5,447.2L319.7,445.7L323.0,445.4L323.9,444.2L322.6,448.5L324.2,451.3L328.2,452.8L329.4,453.9L333.3,453.4L336.9,454.4L343.5,457.0L342.3,459.0L343.1,459.8L342.9,463.1L348.2,469.2L350.3,470.2L351.9,473.8L352.4,477.9L352.2,480.9L352.8,483.2L357.5,492.5L359.0,494.2L359.1,494.3L363.3,450.1L364.6,446.1L373.7,438.1L379.9,433.7L366.8,423.0L348.2,417.0L344.2,412.2L343.1,409.1L332.1,393.9L298.5,367.0L295.6,364.9Z " data-id="PG.GU" data-name="Gulf" id="PG.GU"/>
utf-8utf-8<path d="M930.2,263.4L928.0,260.8L925.4,259.1L923.2,259.5L923.0,261.0L925.6,264.2L926.9,270.2L924.3,269.7L924.9,272.8L924.3,274.4L923.0,280.7L921.4,284.5L922.2,286.5L924.3,289.5L924.1,297.9L926.4,300.0L931.9,307.5L934.9,309.1L936.5,311.5L937.4,316.2L938.8,317.8L943.8,321.3L950.2,323.5L952.2,325.4L953.2,328.9L951.8,339.1L950.5,341.6L948.3,341.1L949.0,343.1L956.2,352.9L957.4,355.4L959.3,357.4L962.0,358.9L964.6,361.5L969.4,364.3L975.0,366.1L977.9,366.1L980.6,367.1L982.0,366.8L986.4,362.0L989.0,360.1L991.5,359.4L992.9,361.5L995.2,356.7L996.1,358.7L995.1,362.1L998.7,357.7L999.1,354.1L997.8,351.2L997.5,343.2L997.1,340.4L993.3,334.0L992.1,330.6L987.8,327.4L985.7,323.5L982.8,321.5L980.8,315.1L979.1,318.0L977.4,318.2L974.3,314.6L972.2,316.1L968.8,312.0L966.8,306.1L966.3,302.3L964.4,298.6L961.8,297.2L958.8,293.1L955.6,291.8L954.6,292.1L953.2,287.0L953.8,284.4L951.1,280.0L949.9,276.5L948.4,274.3L947.9,271.7L946.2,271.0L946.5,268.1L944.3,269.6L943.5,267.7L937.5,267.1L935.1,268.7L934.6,267.3L931.3,265.6L930.2,263.4Z M924.4,235.5L923.7,230.8L922.4,228.8L920.3,228.3L914.4,235.0L913.9,237.6L915.8,235.9L916.9,237.8L916.7,241.8L915.6,249.0L917.8,256.4L918.6,261.5L920.4,258.8L920.9,260.0L922.5,259.2L923.2,257.1L923.7,252.3L925.9,245.4L924.4,235.5Z M976.9,211.2L976.4,211.2L976.6,211.5L976.9,211.2Z M894.5,187.5L897.5,192.2L896.6,196.1L898.2,194.2L896.3,188.4L894.5,187.5Z M892.4,185.5L891.8,180.4L891.1,181.0L892.0,185.5L892.4,185.5Z M934.7,111.3L933.5,107.7L930.5,101.5L928.3,95.3L926.3,94.2L923.5,93.8L927.3,96.4L931.5,104.5L934.3,112.7L934.7,111.3Z " data-id="PG.NS" data-name="North Solomons" id="PG.NS"/>
utf-8utf-8<path d="M137.7,226.3L132.9,226.5L125.9,226.2L122.0,225.3L112.5,225.0L112.2,232.2L113.8,239.5L109.4,251.4L107.5,254.6L104.8,256.0L102.9,257.6L100.6,262.4L100.5,264.0L101.8,266.9L122.3,291.2L127.2,295.4L128.6,297.3L129.0,301.2L125.6,354.8L125.8,358.7L126.7,362.1L130.4,363.6L135.3,364.2L147.5,364.2L192.5,364.1L260.6,356.8L259.9,355.0L252.6,351.1L251.6,346.9L250.3,345.7L244.7,344.4L244.2,340.4L244.8,337.8L251.2,332.8L251.2,329.2L218.4,303.1L214.9,302.7L212.9,303.0L210.5,299.7L205.2,297.1L201.2,296.2L198.3,296.0L194.9,296.7L186.4,299.0L181.3,296.9L175.7,292.1L169.4,285.3L165.2,282.7L146.8,275.1L140.5,265.0L141.1,228.8L137.7,226.3Z " data-id="PG.SH" data-name="Southern Highlands" id="PG.SH"/>
utf-8utf-8<path d="M285.7,284.4L282.5,278.2L277.2,272.6L276.2,269.4L269.2,264.9L267.8,263.4L265.1,259.0L260.3,256.8L254.2,249.7L244.9,245.7L239.7,247.8L237.5,246.9L235.9,250.1L235.1,252.3L224.2,258.4L223.5,260.4L227.0,269.6L227.1,274.2L226.2,277.5L222.3,282.5L217.3,285.7L207.8,289.4L204.1,291.4L203.3,293.1L205.0,296.2L205.2,297.1L210.5,299.7L212.9,303.0L214.9,302.7L218.4,303.1L251.2,329.2L254.4,331.7L255.3,331.2L256.4,327.6L258.5,324.5L262.1,320.6L265.2,312.8L265.4,310.2L263.9,308.2L264.3,303.6L269.0,299.7L270.9,297.5L270.9,287.0L271.2,285.8L276.1,287.1L282.2,287.4L285.0,286.8L286.9,286.0L285.7,284.4Z " data-id="PG.WH" data-name="Western Highlands" id="PG.WH"/>
utf-8utf-8<path d="M190.6,490.3L191.4,488.0L188.5,489.0L190.6,490.3Z M178.1,504.8L178.6,500.0L177.8,498.8L175.1,497.8L169.4,491.9L167.8,489.6L161.1,487.1L155.5,485.7L152.4,481.7L149.7,482.0L152.3,484.5L153.6,486.9L159.5,489.6L163.3,493.5L167.7,497.3L175.0,501.4L178.1,504.8Z M162.3,478.1L160.6,477.4L159.1,478.5L161.5,481.6L162.8,482.5L167.1,483.5L168.0,484.9L175.7,487.0L177.0,486.8L177.5,484.0L175.9,478.6L170.1,477.8L162.3,478.1Z M182.5,482.1L181.5,477.2L177.9,475.5L174.7,475.8L173.9,476.8L177.0,478.4L179.1,481.5L182.5,482.1Z M184.9,462.2L182.1,458.1L180.3,457.8L179.3,459.0L181.2,463.0L183.4,463.2L184.9,462.2Z M185.9,457.5L183.5,453.7L180.8,452.3L178.5,452.1L177.5,453.0L180.0,456.8L185.9,457.5Z M102.9,257.6L25.8,227.1L23.9,226.5L23.9,227.3L17.5,326.8L16.5,327.7L13.4,334.6L13.9,336.5L14.9,336.5L12.6,341.1L12.4,343.0L10.7,343.9L11.4,345.7L7.6,348.3L8.6,348.8L7.2,354.9L9.2,358.0L8.2,359.8L10.2,363.5L12.3,365.6L12.3,368.0L14.5,368.6L10.5,420.0L9.4,433.8L4.2,496.3L0.8,533.1L2.7,534.5L9.0,541.5L11.4,542.5L14.5,542.2L16.7,541.1L22.3,536.6L24.7,535.8L27.2,535.8L34.1,539.7L34.9,541.2L38.4,541.6L39.5,541.1L47.3,541.2L52.9,540.1L57.0,541.4L61.4,541.2L65.5,539.6L76.2,538.5L82.0,537.2L85.3,538.6L88.0,540.4L91.5,541.2L93.1,542.2L95.1,542.0L97.3,543.1L104.1,549.3L106.3,550.1L109.0,549.8L112.8,547.5L121.8,542.8L124.3,540.8L127.5,539.4L135.7,532.8L149.2,527.9L156.6,526.4L160.2,523.6L160.9,522.4L160.9,518.7L161.8,509.0L157.3,499.8L154.0,494.9L146.2,487.0L142.0,484.5L133.9,482.6L131.5,481.5L123.5,475.3L120.9,474.3L119.7,474.8L114.6,473.8L112.2,474.6L107.5,478.0L105.1,478.9L102.4,478.6L100.4,477.2L99.1,475.2L97.2,464.8L95.6,464.4L86.6,466.4L84.1,468.7L83.3,466.9L88.8,463.7L94.9,462.6L97.7,463.2L98.9,465.2L99.8,472.6L101.2,474.9L102.6,475.3L108.2,474.8L112.2,472.1L118.3,470.8L119.4,470.2L128.5,472.2L134.6,475.6L137.3,475.8L153.1,471.2L158.7,470.8L161.3,469.2L178.0,468.8L181.0,466.5L180.7,464.6L177.5,457.1L176.5,453.1L171.3,450.4L169.1,445.5L166.5,445.2L165.2,443.0L169.8,444.0L172.8,449.9L177.7,450.6L182.0,449.4L187.5,451.3L190.8,453.8L196.9,453.8L200.6,451.3L198.4,448.5L194.7,446.9L194.2,446.1L198.7,446.2L201.3,449.9L202.5,450.3L202.6,450.1L146.6,379.1L147.5,364.2L135.3,364.2L130.4,363.6L126.7,362.1L125.8,358.7L125.6,354.8L129.0,301.2L128.6,297.3L127.2,295.4L122.3,291.2L101.8,266.9L100.5,264.0L100.6,262.4L102.9,257.6Z " data-id="PG.WE" data-name="Western" id="PG.WE"/>
utf-8utf-8<path d="M401.7,451.2L398.8,451.2L395.2,449.5L389.6,449.0L388.4,447.9L385.5,442.6L385.9,440.2L385.0,437.9L379.9,433.7L373.7,438.1L364.6,446.1L363.3,450.1L359.1,494.3L361.9,496.2L363.2,499.3L366.0,503.3L368.6,507.8L369.6,510.5L369.0,511.7L371.8,510.5L371.9,511.8L369.6,514.7L368.5,514.1L367.7,520.8L370.1,525.7L380.5,529.3L387.1,533.2L390.3,532.3L392.6,530.0L392.6,528.3L394.3,527.7L394.7,529.9L389.7,534.5L387.9,535.0L389.1,537.1L388.0,538.7L387.4,545.2L387.9,546.2L390.7,545.6L393.3,549.3L393.7,552.9L396.3,559.5L399.2,561.1L399.2,561.1L397.0,557.6L405.5,553.7L408.0,555.6L409.4,555.5L411.1,558.6L411.1,564.0L411.7,564.5L412.8,568.2L414.5,568.4L416.0,571.8L417.6,573.8L422.6,582.4L423.0,589.6L426.5,595.6L428.6,598.2L431.6,599.1L434.3,600.8L434.7,607.0L438.0,604.1L439.6,603.7L442.2,604.4L443.3,605.5L445.0,602.9L448.6,607.0L450.1,611.2L451.2,612.1L454.2,609.0L456.6,609.8L459.8,609.2L464.8,607.0L470.8,610.0L472.6,609.2L474.7,612.8L478.7,614.6L480.1,614.1L486.2,613.9L488.7,612.7L493.3,613.1L496.5,611.9L498.3,607.5L498.7,609.9L502.5,610.4L503.0,611.5L500.2,613.6L500.5,616.8L509.2,617.4L513.3,619.9L515.8,620.3L518.1,618.5L522.0,617.2L528.6,618.3L533.0,621.0L538.4,622.8L541.4,620.3L544.1,621.5L544.5,623.6L546.1,624.0L549.8,626.9L551.8,626.9L554.2,624.8L555.8,625.5L559.3,624.8L561.2,624.7L562.7,609.9L561.6,606.4L556.7,603.9L546.3,595.1L541.7,594.0L539.3,588.6L534.9,585.6L530.1,583.7L519.6,583.2L518.4,583.7L517.8,584.2L519.1,589.8L519.1,592.9L516.6,595.0L512.9,594.9L508.1,596.7L503.4,594.8L500.1,594.4L499.5,591.7L497.1,593.0L494.3,591.0L490.7,589.2L485.5,585.2L481.6,581.4L476.5,581.7L472.4,577.3L464.7,570.1L461.9,569.3L459.5,565.4L460.9,558.0L460.5,556.7L456.0,548.2L453.2,546.8L448.3,537.6L442.9,536.3L441.2,530.4L433.9,520.7L430.4,514.0L430.6,510.5L431.4,506.9L438.3,496.7L439.9,492.6L438.7,488.4L436.5,484.3L433.8,480.8L431.1,478.5L426.6,476.1L420.9,472.1L402.5,450.8L401.7,451.2Z " data-id="PG.CE" data-name="Central" id="PG.CE"/>
utf-8utf-8<path d="M725.1,223.6L727.6,226.8L726.5,228.1L712.4,228.7L705.4,232.4L704.7,233.3L697.5,245.0L691.2,258.8L696.2,261.2L695.0,264.3L693.6,265.9L689.0,269.0L685.3,272.9L678.7,272.3L677.6,274.9L677.0,279.7L670.0,281.2L666.2,283.6L659.1,284.0L655.8,285.2L652.3,287.2L651.6,290.1L651.5,293.7L655.6,301.4L660.9,307.8L661.5,311.5L662.4,311.3L663.2,310.8L664.8,307.1L664.3,305.4L665.9,302.9L667.9,305.1L675.3,303.4L679.0,304.2L681.1,304.0L685.0,299.7L688.8,298.2L689.4,299.2L696.8,291.1L703.6,287.3L706.0,281.2L709.4,278.4L711.0,278.8L714.0,276.9L713.9,275.5L711.7,273.3L710.1,273.3L708.7,269.8L711.1,266.8L717.8,267.2L720.1,270.2L723.8,266.8L728.2,267.1L731.0,270.9L734.1,271.5L738.6,268.5L740.8,267.6L751.6,261.4L752.2,261.3L756.0,254.9L756.0,253.1L754.6,249.0L752.2,245.2L746.4,239.6L745.5,236.5L745.9,227.7L747.6,225.2L749.9,226.4L750.6,225.8L757.0,227.3L763.3,226.1L767.5,222.5L774.4,211.8L776.5,203.8L776.1,197.7L774.4,193.1L774.0,190.6L774.5,188.0L778.2,179.7L777.3,177.4L774.5,178.3L768.4,177.6L766.9,175.7L763.4,175.9L763.3,168.6L767.5,171.0L767.0,167.1L764.1,163.5L762.5,163.9L760.6,168.1L751.6,168.6L753.8,172.0L753.3,173.5L750.2,177.3L748.8,177.5L743.5,175.6L742.5,170.7L741.9,170.1L736.0,168.2L729.6,167.3L726.1,167.2L721.6,166.0L719.4,168.7L719.6,176.8L721.5,182.4L724.1,185.3L725.6,189.7L725.4,192.9L727.3,198.2L727.8,201.0L727.1,207.0L728.1,213.3L728.3,217.1L726.0,222.4L725.1,223.6Z M784.0,168.6L784.9,164.3L783.1,162.0L780.2,165.0L781.4,167.9L784.0,168.6Z M757.6,162.1L755.7,160.3L755.6,161.9L757.6,162.1Z " data-id="PG.EN" data-name="East New Britain" id="PG.EN"/>
utf-8utf-8<path d="M487.8,25.2L484.3,21.6L482.0,23.7L482.4,25.6L479.0,29.4L483.3,29.8L484.9,29.3L487.8,25.2Z M423.6,0.4L418.8,0.8L416.2,2.5L407.7,1.3L406.0,4.8L404.2,3.8L402.8,4.6L403.4,7.0L405.4,10.9L405.1,11.9L398.7,14.3L400.6,20.4L402.8,20.7L403.6,18.0L407.0,16.6L408.7,18.0L412.3,16.0L409.9,13.2L414.5,13.8L417.1,16.6L427.1,18.4L431.4,17.9L434.7,17.9L439.3,16.3L441.7,17.6L444.3,17.6L448.3,13.0L449.6,8.7L458.7,8.5L459.8,4.3L456.7,0.8L458.2,7.4L455.2,6.1L452.4,6.4L446.2,3.8L443.4,3.8L441.8,2.5L440.2,4.3L437.9,1.2L426.7,0.6L425.0,1.2L423.6,0.4Z " data-id="PG.MN" data-name="Manus" id="PG.MN"/>
utf-8utf-8<path d="M760.5,651.9L764.9,651.1L767.3,649.2L761.9,646.0L755.1,648.9L747.0,645.8L746.0,646.3L748.4,648.9L760.5,651.9Z M647.9,644.6L639.8,645.8L639.3,647.2L639.7,650.4L641.0,646.8L645.0,647.0L646.9,649.7L649.5,647.3L648.0,647.1L650.2,644.8L647.9,644.6Z M633.9,640.1L632.2,641.3L636.1,645.6L630.6,644.2L630.1,644.8L631.5,647.3L632.9,646.9L637.2,648.4L639.3,641.6L637.8,639.6L633.9,640.1Z M705.1,624.6L704.5,624.9L704.5,625.4L705.1,624.6Z M654.2,594.9L650.1,592.5L646.5,587.1L642.0,584.4L640.4,579.8L637.5,577.6L636.3,582.6L637.7,585.0L639.4,585.5L642.1,588.4L644.5,599.5L645.9,599.5L647.6,596.3L650.1,599.2L647.1,602.2L646.9,607.5L653.1,608.5L659.5,610.6L664.0,614.6L667.5,605.3L668.4,602.1L670.5,597.3L669.7,594.3L667.3,593.9L664.5,594.9L659.6,599.3L659.6,602.4L657.3,602.4L653.0,598.5L652.9,597.0L654.2,594.9Z M553.0,569.5L548.8,571.5L528.6,577.7L521.6,576.8L520.4,577.7L518.6,581.1L518.4,583.7L519.6,583.2L530.1,583.7L534.9,585.6L539.3,588.6L541.7,594.0L546.3,595.1L556.7,603.9L561.6,606.4L562.7,609.9L561.2,624.7L563.6,624.6L571.7,628.0L574.2,630.7L575.9,636.1L578.2,631.6L581.1,632.2L584.6,634.5L583.9,636.6L580.2,638.0L577.3,637.1L574.8,637.4L573.6,638.9L570.9,640.7L573.6,640.2L577.2,641.8L578.4,643.5L580.8,641.7L584.0,647.3L585.2,647.0L586.9,649.3L591.4,647.6L592.0,648.1L592.9,651.9L594.3,650.7L597.1,650.8L600.3,649.0L602.7,649.2L603.3,650.9L607.4,649.9L611.6,646.0L615.8,645.9L624.1,642.6L625.2,642.0L624.7,636.6L623.4,635.2L615.8,632.5L614.2,631.2L609.7,629.7L605.3,629.5L604.7,626.9L606.3,624.0L608.7,622.1L615.3,623.3L619.4,625.0L622.4,625.3L627.4,623.9L640.4,616.4L638.7,616.1L634.2,618.7L629.9,619.0L625.5,620.1L621.1,617.2L622.7,615.1L620.0,614.7L617.6,615.8L613.4,614.4L609.8,615.0L603.3,613.0L598.1,608.8L596.6,606.5L592.6,607.5L590.5,605.9L587.9,605.3L584.1,605.5L575.4,600.8L575.8,597.8L574.1,595.1L569.8,590.7L568.1,587.1L574.2,583.0L579.6,582.5L584.3,581.5L589.4,578.9L590.8,576.2L589.4,575.3L588.7,573.0L586.3,572.2L582.1,572.9L577.6,571.4L574.6,571.0L572.1,570.0L565.5,570.5L563.2,571.5L553.0,569.5L553.0,569.5Z M655.3,574.4L655.3,569.3L651.2,569.3L651.5,571.4L655.3,574.4Z M632.5,557.3L627.0,552.6L623.4,550.4L618.4,552.4L617.6,556.4L619.1,561.6L622.4,564.4L621.4,567.8L619.7,568.7L616.4,572.2L624.0,571.6L630.8,574.3L636.4,573.8L639.1,574.9L640.3,573.8L643.4,573.9L642.4,578.4L646.1,575.0L646.7,575.8L647.5,571.4L647.2,569.5L645.0,568.0L646.3,566.9L646.1,563.4L643.8,561.6L643.7,559.1L639.5,555.0L634.5,557.7L632.5,557.3Z M614.0,552.3L612.6,546.3L606.8,541.1L603.7,541.0L598.8,545.5L597.9,547.5L597.5,552.7L599.8,555.2L605.5,559.4L606.1,562.1L607.6,563.1L611.0,563.9L612.9,560.5L611.8,560.5L614.0,555.0L614.8,554.0L614.0,552.3Z M755.1,521.5L753.9,521.1L750.6,523.1L749.4,524.6L750.6,527.7L750.8,531.5L751.9,523.9L753.7,522.6L755.0,523.4L756.4,526.9L754.0,528.0L756.7,528.1L760.8,531.0L762.5,530.3L766.5,534.4L768.9,536.0L767.8,538.0L765.2,537.7L765.3,540.4L769.3,542.5L770.1,544.6L771.5,541.9L770.0,541.5L771.3,538.7L775.1,544.2L780.6,543.9L782.5,542.3L785.9,543.5L785.7,542.3L783.3,539.5L784.5,538.2L789.1,536.3L785.1,534.1L785.5,532.3L783.5,530.4L782.2,531.1L779.0,529.6L775.9,525.5L772.1,525.3L770.0,525.7L763.2,524.4L757.8,525.0L755.1,521.5Z M671.0,482.3L671.0,482.0L665.2,483.8L661.7,489.3L669.4,494.2L667.2,499.4L663.3,505.3L666.7,508.0L668.3,511.7L667.2,505.2L670.4,494.7L670.7,491.5L669.0,489.1L671.0,482.3Z " data-id="PG.MB" data-name="Milne Bay" id="PG.MB"/>
utf-8utf-8<path d="M402.0,288.1L401.7,288.3L380.5,301.7L340.3,301.5L341.1,302.5L344.2,308.5L346.2,307.5L346.3,308.7L355.4,316.6L356.1,320.4L347.9,352.1L344.3,357.7L345.0,360.8L345.6,366.3L343.9,369.5L341.0,372.2L339.2,375.2L336.9,381.9L335.7,384.0L332.1,393.9L343.1,409.1L344.2,412.2L348.2,417.0L366.8,423.0L379.9,433.7L385.0,437.9L385.9,440.2L385.5,442.6L388.4,447.9L389.6,449.0L395.2,449.5L398.8,451.2L401.7,451.2L402.5,450.8L467.1,451.1L467.0,450.5L463.8,448.6L455.3,445.8L453.3,446.3L450.4,444.8L449.8,438.8L446.1,433.5L447.2,436.6L444.0,437.1L442.2,428.1L438.7,427.5L438.1,426.8L437.4,422.2L429.3,414.7L423.6,412.5L422.9,411.0L420.4,412.4L419.4,408.9L417.3,404.6L416.7,397.2L417.3,393.7L416.0,390.1L412.8,387.2L413.2,384.4L412.0,378.8L408.4,375.9L406.5,372.9L406.1,367.6L406.3,364.1L408.1,357.4L419.5,354.8L423.4,356.8L433.6,357.4L439.3,356.4L443.6,358.0L447.6,358.0L450.1,356.0L461.6,355.3L466.9,353.3L467.8,347.2L466.6,346.2L468.0,345.0L468.1,339.1L466.9,329.9L467.3,327.8L465.5,324.9L460.9,322.1L458.0,314.8L454.9,309.8L450.6,304.8L448.5,303.4L448.2,301.8L437.5,296.7L436.1,297.7L429.6,299.5L423.6,298.7L421.8,298.8L421.1,297.2L419.3,296.2L415.5,296.2L412.3,293.7L411.0,290.1L410.1,289.6L402.2,289.4L402.0,288.1Z M471.6,263.7L467.4,266.2L467.1,272.9L472.6,280.9L473.7,284.2L476.8,285.0L479.8,286.5L480.4,291.1L482.7,290.1L486.0,283.0L487.1,276.3L486.9,274.4L485.5,272.5L479.3,268.1L476.7,267.7L472.8,263.6L471.6,263.7Z M492.8,260.7L492.8,258.6L491.7,256.5L490.0,255.4L488.5,256.9L488.2,259.3L489.0,261.4L490.9,262.0L492.8,260.7Z M460.6,251.3L459.2,248.9L458.0,248.7L455.0,250.3L457.2,254.4L459.2,253.2L460.6,251.3Z " data-id="PG.MR" data-name="Morobe" id="PG.MR"/>
utf-8utf-8<path d="M399.5,561.0L399.8,559.0L398.2,557.5L401.7,558.0L402.4,562.3L407.6,565.3L409.1,565.2L408.5,563.7L410.6,563.6L411.1,564.0L411.1,558.6L409.4,555.5L408.0,555.6L405.5,553.7L397.0,557.6L399.2,561.1L399.5,561.0Z " data-id="PG.CE" data-name="National Capital District" id="PG.CE"/>
utf-8utf-8<path d="M861.9,159.6L861.6,154.5L860.5,154.6L857.5,157.7L856.6,159.4L859.1,162.6L860.9,162.0L861.9,159.6Z M867.3,154.0L865.5,152.8L863.9,154.6L866.2,155.9L867.3,154.0Z M837.4,114.3L835.1,111.8L833.0,113.5L837.4,115.6L837.4,114.3Z M843.6,107.9L842.3,105.9L840.6,105.9L838.2,108.4L843.2,109.4L843.6,107.9Z M798.6,94.4L799.5,90.5L798.7,86.0L799.0,81.9L796.5,81.1L794.0,81.4L790.7,85.7L791.7,88.2L797.3,94.8L798.6,94.4Z M689.7,74.9L687.1,72.7L683.2,71.2L678.7,75.0L679.0,76.7L681.4,75.4L684.6,76.2L689.8,76.1L690.2,77.2L692.5,76.2L689.7,74.9Z M759.8,78.1L761.7,75.2L759.6,71.7L758.3,70.7L755.8,66.7L755.1,67.1L756.1,74.3L758.1,78.1L759.8,78.1Z M756.7,63.7L757.9,61.5L757.8,60.1L751.6,56.5L751.2,60.1L751.4,66.8L752.1,67.4L756.1,65.8L756.7,63.7Z M758.6,53.3L760.0,51.2L757.7,48.2L756.1,48.9L754.9,52.5L758.6,53.3Z M694.5,56.9L689.2,54.6L687.6,52.3L682.7,48.5L681.1,46.2L679.8,46.7L678.3,49.7L684.0,51.9L683.0,53.8L684.7,54.2L683.4,57.0L682.1,55.8L679.5,57.6L675.8,56.9L675.0,57.4L675.6,61.2L677.9,62.0L680.7,62.0L685.8,60.9L691.3,62.5L694.2,65.4L696.5,65.7L698.8,67.1L701.0,70.6L702.9,70.7L704.7,73.6L718.8,82.4L721.4,87.2L725.2,89.0L730.3,90.8L742.5,105.3L751.2,111.5L753.7,112.6L763.3,114.7L769.3,117.6L773.9,122.9L777.6,127.6L777.4,130.1L782.6,137.9L785.2,141.3L787.2,142.1L787.6,144.4L791.0,149.7L792.6,155.2L797.3,167.7L796.6,169.1L797.5,174.5L794.6,186.5L795.4,193.7L797.8,201.3L803.1,206.6L802.7,208.4L804.9,209.8L807.3,213.8L807.7,216.1L809.7,212.0L811.1,212.5L814.2,208.3L815.1,205.8L817.5,202.8L818.3,199.5L820.5,197.7L821.0,194.2L818.9,190.5L819.8,186.6L823.8,183.0L825.6,180.9L826.1,172.9L825.6,171.4L822.9,168.2L821.7,167.6L818.8,159.9L816.0,157.0L814.8,151.8L811.1,152.7L808.4,149.0L807.2,143.3L804.1,145.2L798.9,143.6L795.6,140.4L791.1,139.6L789.7,137.1L790.4,134.7L788.0,128.8L785.6,127.4L783.1,128.2L779.3,122.1L778.8,122.0L775.8,116.5L771.3,114.0L765.5,108.4L762.5,103.0L759.1,98.0L757.3,96.6L749.7,93.6L743.5,92.4L741.5,88.5L739.7,88.9L738.3,87.9L735.6,83.4L730.6,79.8L729.9,79.9L726.2,76.7L723.8,76.5L721.9,73.7L718.5,71.0L712.9,69.1L707.9,69.3L705.3,68.7L704.2,66.8L703.8,64.0L702.6,62.4L697.0,59.8L694.5,56.9Z M642.0,32.5L633.9,34.7L631.2,35.0L626.2,38.7L623.9,38.4L627.1,42.1L628.6,41.6L632.2,46.1L633.1,49.8L639.2,54.4L648.3,53.4L649.9,54.7L655.7,53.0L656.6,51.8L656.2,46.8L657.3,44.7L655.9,40.0L650.9,37.5L647.5,35.3L645.4,35.0L642.0,32.5Z " data-id="PG.NI" data-name="New Ireland" id="PG.NI"/>
utf-8utf-8<path d="M402.5,450.8L420.9,472.1L426.6,476.1L431.1,478.5L433.8,480.8L436.5,484.3L438.7,488.4L439.9,492.6L438.3,496.7L431.4,506.9L430.6,510.5L430.4,514.0L433.9,520.7L441.2,530.4L442.9,536.3L448.3,537.6L453.2,546.8L456.0,548.2L460.5,556.7L460.9,558.0L459.5,565.4L461.9,569.3L464.7,570.1L472.4,577.3L476.5,581.7L481.6,581.4L485.5,585.2L490.7,589.2L494.3,591.0L497.1,593.0L499.5,591.7L500.1,594.4L503.4,594.8L508.1,596.7L512.9,594.9L516.6,595.0L519.1,592.9L519.1,589.8L517.8,584.2L518.4,583.7L518.6,581.1L520.4,577.7L521.6,576.8L528.6,577.7L548.8,571.5L553.0,569.5L552.7,569.5L552.4,568.2L549.2,566.1L548.4,566.2L545.3,563.6L540.7,562.7L538.5,561.5L536.6,554.3L537.2,550.8L540.5,546.0L543.8,538.1L544.9,538.5L548.1,536.0L548.4,534.5L546.5,534.0L548.1,529.7L547.9,526.9L544.5,526.4L543.3,525.0L537.3,525.5L536.7,523.3L531.5,527.8L525.4,529.1L520.1,528.2L516.9,531.3L511.3,532.7L507.4,532.6L501.8,531.5L499.6,530.0L498.1,527.6L496.8,521.3L495.4,517.2L494.8,511.6L495.5,506.4L492.7,500.4L486.9,496.1L484.1,496.3L480.4,493.2L480.0,487.6L480.9,484.9L479.5,477.4L480.4,473.6L477.9,463.1L477.3,455.2L477.9,454.2L472.5,455.4L472.0,454.6L468.1,454.9L467.1,451.1L467.1,451.1L402.5,450.8Z " data-id="PG.NO" data-name="Northern" id="PG.NO"/>
utf-8utf-8<path d="M661.5,311.5L660.9,307.8L655.6,301.4L651.5,293.7L651.6,290.1L652.3,287.2L655.8,285.2L659.1,284.0L666.2,283.6L670.0,281.2L677.0,279.7L677.6,274.9L678.7,272.3L685.3,272.9L689.0,269.0L693.6,265.9L695.0,264.3L696.2,261.2L691.2,258.8L697.5,245.0L704.7,233.3L705.4,232.4L712.4,228.7L726.5,228.1L727.6,226.8L725.1,223.6L724.0,224.4L722.7,224.8L717.8,221.1L716.2,222.6L712.3,222.2L707.0,220.2L706.5,222.4L698.2,227.8L692.6,234.5L688.8,237.2L685.2,242.3L683.2,246.6L681.1,257.9L677.5,261.1L676.1,261.5L673.7,263.8L671.7,264.1L667.6,260.4L664.6,263.0L661.2,267.1L655.5,268.8L654.5,267.8L653.1,263.6L651.8,262.7L645.6,260.7L642.2,261.4L635.9,266.1L632.9,269.5L625.9,268.5L622.6,265.8L621.8,260.3L618.8,252.9L618.4,250.5L617.3,249.3L620.7,247.2L620.8,242.4L619.8,240.8L623.6,236.5L628.1,235.0L629.4,230.9L626.8,228.9L624.0,227.9L621.1,228.3L618.7,229.9L617.4,233.3L617.6,236.5L616.9,237.9L617.3,244.1L616.4,245.8L611.0,250.3L610.0,254.3L611.4,256.9L613.4,257.8L613.2,260.0L608.3,265.7L605.7,266.6L603.1,266.6L600.5,265.1L598.8,268.1L595.3,269.7L593.1,268.5L593.9,266.2L593.6,263.7L592.6,263.0L592.6,265.4L588.8,265.6L582.2,268.6L581.5,270.6L578.7,269.7L578.2,270.7L576.4,269.2L571.1,270.9L562.7,272.0L560.9,269.0L547.2,262.0L538.3,267.6L533.6,266.1L531.7,264.1L524.8,263.8L521.1,267.1L519.2,267.6L517.5,266.4L511.3,260.5L508.4,262.2L506.4,264.4L505.1,267.1L503.4,275.5L503.5,278.3L504.4,281.4L510.0,286.5L513.1,286.7L517.3,289.7L518.5,290.1L522.0,287.5L524.4,289.9L528.2,290.5L528.5,291.4L531.6,292.4L531.8,296.7L536.7,297.2L538.4,298.2L536.8,299.6L546.6,303.9L549.8,303.6L547.7,306.9L549.2,307.4L550.5,312.2L548.6,312.6L548.5,313.9L554.5,312.6L556.3,309.0L563.8,307.6L566.7,305.9L569.7,307.5L575.9,309.5L577.3,310.8L580.7,316.4L583.3,322.0L586.0,324.8L590.4,324.5L598.4,323.4L606.0,323.7L609.4,322.2L610.6,325.7L612.5,324.0L611.8,323.2L613.7,321.0L615.3,322.1L616.7,324.4L620.9,321.2L624.1,321.9L626.2,323.9L631.3,322.7L632.8,323.5L636.0,323.3L640.6,322.2L646.7,317.7L649.2,315.1L653.2,312.8L655.9,313.3L661.2,311.5L661.5,311.5Z M695.4,223.8L697.4,221.3L694.4,218.9L690.5,221.8L692.6,223.9L695.4,223.8Z M563.1,219.5L562.7,217.1L559.5,218.6L559.3,219.7L561.5,221.7L563.1,219.5Z M588.6,202.0L584.9,201.4L582.2,204.5L583.7,205.9L586.0,204.4L585.2,202.5L586.1,202.3L588.4,206.5L589.0,206.3L588.6,202.0Z " data-id="PG.WN" data-name="West New Britain" id="PG.WN"/>
utf-8</g>
</svg>
