<?xml version="1.0" ?>
<!DOCTYPE svg
  PUBLIC '-//W3C//DTD SVG 1.1//EN'
  'http://www.w3.org/Graphics/SVG/1.1/DTD/svg11.dtd'>
<svg enable_background="new 0 0 1000 1070" height="1070px" pretty_print="True" style="stroke-linejoin: round; stroke:#000; fill: none;" version="1.1" viewBox="0 0 1000 1070" width="1000px" xmlns="http://www.w3.org/2000/svg" xmlns:xlink="http://www.w3.org/1999/xlink">
utf-8<defs>
utf-8utf-8<style type="text/css">
<![CDATA[path { fill-rule: evenodd; }]]>utf-8utf-8</style>
utf-8</defs>
utf-8<metadata>
utf-8utf-8<views>
utf-8utf-8utf-8<view h="1070.69336744" padding="0" w="1000">
utf-8utf-8utf-8utf-8<proj flip="auto" id="robinson" lon0="65.6240564416"/>
utf-8utf-8utf-8utf-8<bbox h="224.63" w="210.0" x="865.6" y="-621.95"/>
utf-8utf-8utf-8</view>
utf-8utf-8</views>
utf-8</metadata>
utf-8<g class="" id="provinces">
utf-8utf-8<path d="M616.4,477.7L615.3,472.7L615.0,465.9L613.8,460.6L613.7,455.5L611.7,452.3L610.5,448.4L608.9,448.6L605.3,453.2L600.9,453.0L599.2,460.3L595.5,450.1L594.1,448.2L589.8,446.7L588.2,443.4L588.4,441.6L587.4,433.7L584.8,422.8L584.2,415.1L581.4,418.3L579.9,418.6L577.3,414.8L578.3,411.1L573.4,407.3L573.3,402.1L571.2,401.9L563.0,404.2L560.9,407.7L558.2,410.8L544.9,411.9L540.2,411.4L540.1,411.7L536.0,416.1L531.0,427.6L527.1,432.7L523.3,435.2L520.9,435.0L514.9,438.0L512.3,438.3L510.3,437.0L503.3,429.3L502.5,426.1L497.0,423.9L490.1,420.8L484.6,422.9L483.5,424.0L486.7,425.5L492.8,426.3L489.7,428.5L487.2,428.1L479.6,425.6L472.7,425.3L468.8,422.0L464.0,420.6L462.1,426.5L460.3,428.5L460.0,431.5L456.8,433.5L454.7,435.9L447.3,436.6L444.1,441.3L439.1,444.8L437.0,445.0L432.5,444.0L430.4,444.1L429.8,445.5L432.9,449.2L433.9,452.3L438.0,454.8L443.5,454.0L446.0,454.8L447.0,458.1L445.7,460.1L442.9,460.0L436.6,464.6L432.0,465.8L429.8,466.9L425.9,467.4L420.4,469.7L409.9,468.8L407.2,467.4L400.6,467.7L397.5,466.7L397.3,462.7L395.5,461.1L391.6,461.2L389.2,461.9L385.1,464.2L380.7,469.1L378.2,469.5L376.8,470.6L376.3,479.6L375.3,481.4L370.2,488.0L368.9,488.7L360.1,490.6L358.7,492.3L356.8,517.8L357.3,521.3L359.0,524.4L361.0,526.6L362.9,530.9L363.5,541.3L364.5,547.7L361.8,556.7L362.0,562.1L364.7,563.8L371.1,569.1L370.0,569.9L367.7,574.7L363.0,578.7L288.6,602.2L285.2,602.1L273.5,600.0L250.3,599.8L233.0,605.4L230.8,606.6L229.6,608.7L227.9,613.7L226.2,614.4L217.9,611.0L189.7,605.6L116.9,612.7L109.7,611.4L25.7,585.1L0.5,576.9L35.7,612.8L40.1,615.4L41.0,617.4L41.0,623.3L44.5,627.4L47.7,633.4L49.8,634.1L52.0,637.7L54.3,639.5L53.3,642.4L55.7,643.8L60.4,651.4L61.9,655.5L64.2,657.7L66.8,662.1L69.2,664.6L77.2,671.2L80.6,675.0L85.6,679.1L99.4,686.2L106.2,687.0L112.3,689.7L121.6,691.5L123.6,692.6L129.9,697.8L131.8,701.0L136.8,705.8L138.3,706.7L149.1,704.3L150.8,705.3L151.5,708.1L152.0,725.3L157.0,738.5L163.2,765.3L163.3,768.6L160.9,777.0L163.0,779.5L162.6,782.9L160.9,783.5L165.4,786.8L167.8,786.3L171.7,787.7L179.2,786.5L182.6,785.3L186.4,785.3L190.0,784.1L196.2,787.3L198.9,790.0L202.0,795.4L198.0,795.5L196.6,800.5L198.2,809.5L200.8,813.5L195.8,818.3L196.9,829.9L196.6,833.1L187.5,834.0L184.8,833.6L168.6,833.2L165.5,836.4L158.4,838.3L147.2,839.5L145.3,841.6L142.6,841.8L136.5,851.4L138.2,855.8L136.8,856.6L128.4,854.8L127.0,859.5L124.2,860.0L119.5,862.8L111.6,865.3L110.1,866.6L109.1,876.1L109.0,897.6L108.0,900.3L104.1,901.0L102.9,903.1L104.7,909.2L104.9,911.9L103.3,915.5L105.1,948.5L110.7,948.5L117.0,951.5L116.1,955.3L114.2,959.8L116.7,963.4L119.1,963.1L122.8,961.5L124.5,956.3L127.7,955.7L137.8,956.4L139.3,955.9L136.1,951.6L138.7,948.1L141.5,947.1L147.0,947.4L152.2,949.7L154.1,953.2L150.2,956.6L158.9,957.5L159.2,956.4L155.7,954.5L155.6,952.1L158.2,949.1L162.0,947.4L165.1,947.4L163.8,943.8L172.5,943.3L183.9,943.6L196.0,946.3L202.0,946.9L203.5,946.6L207.5,944.1L211.9,943.9L216.6,945.2L228.2,946.7L232.4,948.6L235.0,948.9L235.6,947.4L232.7,943.7L231.5,941.4L232.7,941.8L235.7,937.0L240.0,934.6L244.3,933.9L249.0,933.7L253.7,934.5L261.0,937.2L263.6,937.8L271.9,936.8L272.6,935.3L270.0,931.2L267.1,932.4L265.8,930.5L269.4,928.5L271.9,929.1L275.0,928.3L277.0,928.8L272.3,930.4L272.5,932.3L274.3,933.7L273.9,937.7L280.2,939.0L284.4,939.2L286.7,940.9L289.7,941.2L297.0,945.3L298.5,945.8L303.6,942.5L304.8,942.5L310.1,944.4L311.6,947.6L310.2,950.7L314.0,951.3L317.5,949.3L314.1,947.2L314.5,942.4L315.5,940.7L318.6,938.6L322.8,938.3L326.6,939.2L328.5,938.3L346.2,940.9L348.6,940.2L351.5,934.9L353.3,934.1L355.7,935.3L360.3,933.3L362.5,933.2L361.8,934.9L363.1,935.2L367.5,933.7L368.9,933.9L379.0,936.8L388.0,934.3L393.9,931.2L398.4,931.1L403.8,930.2L408.1,928.9L414.2,928.8L420.3,926.7L422.2,927.2L424.4,926.6L427.8,927.3L433.4,929.9L438.0,932.7L438.7,931.4L434.6,928.3L436.7,926.1L432.8,925.3L432.0,926.1L426.6,921.7L426.1,920.9L421.4,920.6L420.0,921.1L420.2,922.6L418.1,924.6L411.3,926.5L409.5,926.6L414.5,918.0L418.1,916.6L424.8,915.9L431.7,916.8L435.0,920.6L436.3,923.1L438.9,923.1L442.0,929.4L443.8,930.5L444.3,932.6L443.7,934.2L441.9,933.7L442.7,936.6L445.3,938.1L454.1,945.4L456.6,950.0L455.0,957.7L455.4,962.5L455.1,968.6L455.5,971.6L457.2,972.6L457.3,973.1L466.9,963.7L471.1,962.6L473.7,961.1L475.1,959.2L479.4,946.8L482.7,943.3L484.3,935.9L483.8,931.2L486.8,923.7L488.5,922.7L490.4,918.1L495.0,910.8L497.1,900.9L497.5,895.7L496.0,887.9L496.1,880.8L494.5,875.7L472.2,841.6L469.1,832.4L462.5,792.3L460.6,784.5L460.2,778.1L460.9,766.4L461.7,760.2L465.0,751.8L468.7,745.4L471.3,735.8L473.7,734.3L481.2,733.2L489.6,730.9L504.8,723.1L507.1,718.3L508.7,715.8L521.7,703.8L525.4,700.2L532.0,696.5L534.4,690.7L538.2,688.0L545.1,687.1L556.9,687.9L589.0,686.4L598.0,686.1L593.5,680.4L594.2,677.2L598.5,674.8L601.0,669.7L603.2,660.6L601.4,649.4L605.0,645.3L607.3,639.7L610.9,634.9L611.2,622.9L607.2,621.7L605.4,619.5L604.4,614.0L601.5,611.8L598.5,611.5L597.0,609.5L597.3,599.7L596.6,597.1L596.3,592.8L598.7,590.0L603.9,588.8L605.1,587.5L606.9,583.5L608.3,582.4L610.3,579.4L612.0,570.9L614.1,563.4L614.4,554.6L617.3,548.8L616.1,545.6L611.4,546.6L608.9,542.6L609.6,536.0L609.3,531.6L609.7,529.5L613.5,519.4L612.0,511.3L615.1,509.0L619.1,501.3L621.3,499.5L619.7,496.1L617.5,480.4L616.4,477.7Z " data-id="PK.BA" data-name="Baluchistan" id="PK.BA"/>
utf-8utf-8<path d="M804.7,158.7L803.2,159.2L801.8,162.3L803.7,164.3L804.4,166.5L803.7,170.8L802.2,175.8L794.5,182.0L790.2,182.0L786.5,183.5L783.7,185.8L781.6,192.8L783.0,196.3L782.3,201.4L779.5,199.9L770.5,202.0L770.8,209.8L771.4,212.2L771.6,218.7L775.3,222.6L780.2,231.3L781.1,235.2L785.7,246.5L785.8,246.5L791.7,254.3L792.5,257.0L792.9,262.9L795.1,266.2L796.9,270.5L796.2,274.1L796.5,276.5L799.1,278.7L801.9,282.6L802.3,284.7L801.4,285.6L803.6,291.0L802.2,291.9L801.2,296.2L805.6,307.4L804.3,308.0L810.4,312.4L810.5,315.7L809.3,317.2L823.6,325.9L824.8,326.1L830.1,324.7L832.7,325.7L836.3,329.6L861.4,341.2L861.7,340.6L861.8,337.5L860.1,333.4L859.0,329.3L857.8,327.6L855.7,326.4L849.3,325.3L846.5,323.9L841.5,318.7L833.8,312.9L832.3,310.5L831.7,307.0L837.5,299.6L838.2,293.7L838.2,287.7L836.1,283.2L831.8,280.4L827.0,278.1L823.2,275.3L821.3,271.8L821.1,266.5L822.4,262.4L823.6,260.9L830.5,259.7L832.6,258.6L836.9,252.8L836.9,250.2L835.4,247.6L833.0,246.1L825.9,247.0L820.6,245.6L816.4,246.8L814.2,246.4L809.9,242.8L808.7,240.4L808.7,238.0L809.9,236.3L813.3,234.2L814.3,233.0L811.9,228.1L809.4,224.1L808.0,222.8L804.1,222.8L798.6,220.9L796.8,219.3L795.7,215.4L796.3,213.6L798.8,211.5L798.9,205.7L801.5,203.4L802.1,201.8L800.1,195.6L802.5,193.5L812.6,191.7L818.2,187.1L822.0,185.4L826.1,185.0L830.5,185.7L848.8,191.9L873.5,196.6L879.6,196.3L883.7,195.3L887.0,195.9L887.0,195.9L887.7,191.2L886.2,185.9L878.4,177.9L872.7,180.4L866.9,181.8L859.4,180.6L854.5,178.7L844.0,173.3L841.7,171.5L835.6,163.0L830.9,158.2L828.5,157.0L823.5,157.7L819.8,159.2L805.6,158.7L804.7,158.7Z " data-id="PK.JK" data-name="Azad Kashmir" id="PK.JK"/>
utf-8utf-8<path d="M746.1,272.3L745.0,274.2L745.2,276.4L749.6,281.2L751.3,281.5L756.9,278.2L761.4,277.0L762.9,277.4L766.8,282.0L766.7,285.2L767.4,286.0L771.8,287.8L773.0,287.5L775.7,283.1L777.9,271.4L770.1,265.7L764.1,263.2L763.4,262.8L763.1,263.5L761.4,264.7L757.7,265.5L754.7,268.4L751.6,269.0L746.1,272.3Z " data-id="PK.IS" data-name="F.C.T." id="PK.IS"/>
utf-8utf-8<path d="M740.3,13.0L741.0,15.7L754.5,23.1L755.3,25.0L754.9,27.9L748.8,26.5L742.5,28.4L738.3,28.0L736.3,26.2L732.5,26.2L723.8,24.6L717.7,27.1L711.6,27.8L708.8,26.1L706.5,27.7L702.6,28.8L705.3,35.5L704.8,41.1L701.3,46.4L701.0,47.5L695.5,48.2L695.4,50.1L696.2,53.0L695.9,54.5L692.7,56.1L690.9,59.0L687.0,61.7L686.0,63.7L680.4,63.6L678.5,67.0L678.6,70.4L679.9,73.5L678.8,77.8L680.1,79.8L682.6,81.7L684.4,84.7L681.8,93.5L684.8,94.7L698.5,98.3L702.4,98.8L702.9,97.8L706.0,95.9L712.5,95.6L717.7,97.4L719.5,96.7L722.0,97.4L724.6,102.3L725.3,106.5L726.7,108.9L739.6,117.1L743.2,118.4L748.2,122.4L750.1,121.3L758.7,122.9L762.9,122.8L772.8,124.5L775.1,130.4L772.7,132.1L770.7,137.8L774.4,145.4L775.0,148.5L781.3,147.9L784.9,150.2L788.4,150.3L791.6,152.8L797.1,154.6L802.1,155.3L804.7,158.7L804.7,158.7L805.6,158.7L819.8,159.2L823.5,157.7L828.5,157.0L830.9,158.2L835.6,163.0L841.7,171.5L844.0,173.3L854.5,178.7L859.4,180.6L866.9,181.8L872.7,180.4L878.4,177.9L886.2,185.9L887.7,191.2L887.0,195.9L888.0,196.4L893.8,201.1L896.9,202.4L915.6,207.2L918.6,207.3L927.7,206.4L931.6,201.3L937.8,196.1L938.6,193.7L941.6,192.3L946.3,194.1L948.5,194.0L955.1,192.2L963.0,186.8L965.2,185.9L967.9,186.3L973.7,188.8L979.8,187.1L984.4,181.3L984.7,179.8L983.3,175.4L983.4,173.6L984.7,172.3L991.0,171.8L993.0,172.9L995.7,171.0L998.9,167.8L999.3,163.9L997.4,159.8L998.7,157.8L969.4,114.4L968.4,114.4L963.8,110.6L961.3,109.0L956.0,107.2L953.5,105.9L951.5,103.3L950.7,96.6L949.3,94.0L948.0,93.6L946.2,96.2L940.7,99.4L937.1,99.4L935.1,101.2L925.5,101.5L923.2,99.8L919.2,90.5L916.8,87.5L914.6,86.4L909.5,86.1L907.1,85.1L904.6,83.2L902.4,80.6L902.1,75.7L904.8,73.6L905.2,71.6L904.1,69.3L906.4,67.0L905.9,65.6L901.9,61.2L901.0,57.9L900.6,51.5L898.9,48.1L888.8,35.4L886.6,33.3L881.8,29.8L876.9,26.9L871.1,24.4L865.6,23.4L861.9,25.0L861.4,27.1L857.4,27.0L855.4,25.0L851.8,15.5L850.1,13.0L847.9,11.3L845.1,10.2L836.9,8.6L829.6,4.9L821.7,5.7L817.8,7.5L816.5,12.0L808.9,3.2L804.0,3.1L799.5,0.0L792.3,2.7L793.2,7.5L792.3,7.8L788.4,4.5L787.0,4.1L783.1,4.9L777.2,9.8L774.6,12.4L773.2,13.0L768.7,12.4L766.8,14.5L766.8,18.2L763.3,19.4L757.1,18.2L750.8,14.8L744.4,13.2L740.3,13.0Z " data-id="PK.NA" data-name="Northern Areas" id="PK.NA"/>
utf-8utf-8<path d="M606.7,428.7L605.0,426.4L597.9,407.2L594.8,404.9L588.1,392.9L590.5,389.0L592.8,387.3L595.7,382.4L597.8,382.2L603.6,379.1L604.5,376.8L607.6,372.9L608.8,366.8L610.8,366.7L615.8,369.3L617.2,367.4L616.3,365.9L601.7,351.3L599.0,349.1L597.3,340.7L601.6,330.9L601.9,325.6L605.2,322.9L609.8,323.7L612.7,323.2L617.9,320.0L620.3,319.0L624.2,312.6L623.0,310.8L621.2,310.3L614.5,309.2L611.0,307.9L611.1,306.6L603.2,304.5L601.0,302.1L598.4,298.1L594.2,295.3L595.4,292.8L599.8,292.2L606.3,288.4L609.3,287.2L608.7,283.0L609.2,280.7L610.9,279.8L614.6,281.7L626.0,282.6L632.1,279.7L631.8,276.1L634.0,275.2L631.4,267.8L636.7,269.5L637.7,271.0L646.9,276.5L656.1,275.4L664.8,276.0L668.1,277.3L667.7,278.1L663.8,280.0L664.0,281.7L666.9,282.9L669.8,283.2L672.8,282.2L676.1,279.9L679.6,275.6L676.9,274.0L676.6,272.8L679.6,265.8L678.9,264.8L673.5,263.8L670.7,260.4L669.2,261.5L666.0,266.3L662.7,268.3L656.5,267.3L655.1,264.1L649.3,258.0L647.6,253.1L643.6,248.8L643.1,244.7L639.6,236.9L638.2,236.3L646.6,229.0L648.6,226.0L647.7,221.9L650.2,217.8L652.3,218.7L652.3,216.7L654.3,215.7L653.9,213.8L650.5,204.1L651.5,202.6L651.7,197.2L653.7,194.9L656.0,194.1L655.3,190.0L656.8,186.2L655.4,184.4L649.3,183.0L645.1,185.1L643.2,184.6L641.4,182.7L638.8,178.0L634.4,176.5L629.9,171.8L622.7,175.0L620.7,176.8L619.7,182.0L617.4,187.0L614.5,189.3L610.2,194.0L612.0,198.7L612.2,200.7L610.8,202.9L608.0,202.5L605.6,203.0L605.5,206.2L609.1,211.6L614.1,215.9L619.4,218.5L620.2,220.5L619.5,226.1L622.1,233.9L620.2,238.7L621.1,242.8L620.3,243.8L615.9,245.0L613.9,247.1L610.7,246.4L609.4,250.0L604.9,250.9L595.8,250.8L587.2,252.1L585.1,252.0L570.0,249.1L566.2,248.7L550.6,243.7L548.3,243.5L543.3,244.7L542.4,245.8L542.4,253.0L544.8,255.0L548.0,260.3L550.2,262.7L552.9,267.0L560.7,269.5L563.4,269.0L565.5,273.0L568.5,275.7L569.9,278.6L569.7,283.6L571.4,288.1L581.4,296.5L583.1,299.0L583.2,301.7L573.9,311.2L568.9,311.6L567.2,316.6L559.6,320.0L556.8,320.2L551.8,318.0L549.3,318.4L545.5,321.0L543.6,320.4L537.5,321.1L535.6,322.6L533.6,327.6L536.7,336.2L533.7,342.5L531.8,344.2L532.8,348.0L534.6,349.0L536.6,353.6L533.7,361.5L527.5,366.9L526.9,369.9L527.3,373.2L528.7,376.6L531.4,381.1L533.7,396.3L536.6,403.9L540.4,410.9L540.2,411.4L544.9,411.9L558.2,410.8L560.9,407.7L563.0,404.2L571.2,401.9L573.3,402.1L573.4,407.3L578.3,411.1L577.3,414.8L579.9,418.6L581.4,418.3L584.2,415.1L584.8,422.8L587.4,433.7L588.4,441.6L588.2,443.4L589.8,446.7L594.1,448.2L595.5,450.1L599.2,460.3L600.9,453.0L605.3,453.2L608.9,448.6L610.5,448.4L611.7,452.3L613.7,455.5L613.8,460.6L615.0,465.9L615.3,472.7L616.4,477.7L617.5,480.4L617.8,480.8L618.8,477.9L617.9,473.8L623.5,471.2L626.3,471.0L626.8,470.0L625.6,466.5L606.7,428.7Z " data-id="PK.TA" data-name="F.A.T.A." id="PK.TA"/>
utf-8utf-8<path d="M751.3,268.0L745.3,266.3L744.9,264.4L746.3,261.5L744.7,260.9L742.4,256.4L741.0,256.5L738.8,252.4L737.5,251.3L735.4,253.2L734.6,255.2L731.4,258.8L722.1,250.0L719.3,245.5L715.4,245.5L713.1,246.3L708.6,250.3L701.8,252.1L701.6,255.1L704.4,262.8L704.6,265.9L703.7,265.2L701.4,265.9L694.1,264.1L693.2,265.9L690.8,267.5L690.2,279.3L687.4,288.7L685.7,294.9L678.9,297.1L678.0,298.7L678.6,302.9L678.5,306.6L682.6,310.7L683.3,314.1L682.0,316.8L681.8,322.2L678.3,320.8L673.3,315.2L672.6,312.8L668.0,309.1L664.4,309.9L660.2,307.4L659.8,310.3L661.9,314.3L663.6,316.5L666.3,322.7L665.7,325.2L659.9,327.0L655.7,326.0L651.8,327.8L648.7,330.1L647.7,332.7L648.3,340.9L646.8,343.7L650.7,349.5L654.0,358.4L656.8,360.1L659.7,359.5L661.3,366.1L663.0,367.5L665.1,364.0L668.3,366.8L669.3,372.3L666.6,381.1L666.8,384.2L666.0,386.5L665.7,392.2L665.1,393.5L662.3,395.5L660.5,398.3L660.1,404.3L658.1,406.8L656.9,411.5L654.7,414.8L654.2,421.1L652.6,427.0L652.6,433.4L651.1,442.3L653.2,446.3L654.3,451.5L651.7,454.7L650.2,462.8L647.2,460.9L644.6,460.7L641.8,462.0L637.0,460.7L634.4,460.6L632.6,462.3L628.9,462.6L626.7,466.7L625.6,466.5L626.8,470.0L626.3,471.0L623.5,471.2L617.9,473.8L618.8,477.9L617.8,480.8L617.5,480.4L619.7,496.1L621.3,499.5L619.1,501.3L615.1,509.0L612.0,511.3L613.5,519.4L609.7,529.5L609.3,531.6L609.6,536.0L608.9,542.6L611.4,546.6L616.1,545.6L617.3,548.8L614.4,554.6L614.1,563.4L612.0,570.9L610.3,579.4L608.3,582.4L606.9,583.5L605.1,587.5L603.9,588.8L598.7,590.0L596.3,592.8L596.6,597.1L597.3,599.7L597.0,609.5L598.5,611.5L601.5,611.8L604.4,614.0L605.4,619.5L607.2,621.7L611.2,622.9L610.9,634.9L607.3,639.7L605.0,645.3L601.4,649.4L603.2,660.6L601.0,669.7L598.5,674.8L594.2,677.2L593.5,680.4L598.0,686.1L604.7,682.9L609.2,683.1L611.8,684.1L612.6,685.9L621.9,687.8L624.0,691.2L628.6,695.4L629.0,698.1L631.6,702.9L638.0,716.1L639.4,718.3L644.8,724.8L647.5,727.1L652.2,729.8L660.6,733.6L661.2,732.8L665.3,729.3L668.4,724.9L670.6,723.6L678.3,722.0L680.4,722.6L684.5,725.1L691.2,732.0L691.9,736.5L694.8,741.6L698.1,745.6L702.0,748.1L706.9,748.8L712.3,747.5L727.0,739.1L731.9,737.3L737.4,736.0L743.2,735.4L748.7,735.9L754.3,735.4L773.7,728.9L774.6,726.9L773.7,717.2L774.4,714.1L778.5,706.8L785.6,699.6L787.8,696.7L789.0,693.3L789.7,689.5L790.9,673.5L791.9,670.1L795.8,663.8L797.4,662.4L829.2,643.4L833.1,632.9L836.3,627.0L843.9,602.5L847.2,571.4L847.9,570.2L858.5,564.6L870.2,561.8L872.6,560.3L881.8,550.6L881.7,548.3L880.0,544.9L876.0,539.4L872.3,537.6L873.4,534.8L875.9,534.2L875.1,532.1L877.6,531.8L880.1,526.8L883.9,523.4L882.9,518.6L883.3,517.1L885.7,514.3L888.9,512.8L892.1,504.9L893.8,503.0L894.1,500.1L895.2,499.0L895.6,494.6L896.2,494.1L901.1,494.6L902.9,490.4L907.9,489.1L910.2,485.8L909.9,484.2L911.8,481.7L915.3,479.5L911.9,477.0L907.7,477.5L906.5,477.0L904.0,473.8L903.4,472.2L904.1,455.2L906.0,451.2L905.5,448.2L902.8,445.1L899.2,437.5L893.1,429.4L894.8,425.2L894.7,421.7L895.8,419.4L900.0,415.4L902.8,410.7L907.4,411.6L908.7,411.3L909.5,409.2L909.4,406.4L910.2,404.7L913.5,405.8L914.2,404.4L919.3,403.7L922.0,399.2L923.2,398.9L927.6,400.5L931.8,398.0L933.0,396.5L937.2,394.7L939.3,394.9L939.6,390.0L940.8,384.1L930.8,376.5L928.2,375.1L923.2,374.0L917.6,370.5L915.3,369.6L910.6,371.0L907.9,371.3L902.7,368.9L895.4,370.1L892.8,369.2L890.5,367.1L887.2,361.5L886.7,359.9L887.5,355.7L885.6,347.4L886.6,342.3L883.7,340.1L882.8,341.3L882.3,345.4L881.1,346.4L875.1,347.4L868.9,344.3L867.1,345.6L864.4,345.7L860.9,342.3L861.3,341.3L861.4,341.2L836.3,329.6L832.7,325.7L830.1,324.7L824.8,326.1L823.6,325.9L809.3,317.2L810.5,315.7L810.4,312.4L804.3,308.0L805.6,307.4L801.2,296.2L802.2,291.9L803.6,291.0L801.4,285.6L802.3,284.7L801.9,282.6L799.1,278.7L796.5,276.5L796.2,274.1L796.9,270.5L795.1,266.2L792.9,262.9L792.5,257.0L791.7,254.3L785.8,246.5L785.1,246.3L783.8,245.7L781.2,247.4L780.5,249.5L776.3,249.9L776.6,252.4L775.3,255.2L767.8,262.5L764.6,262.3L763.4,262.8L764.1,263.2L770.1,265.7L777.9,271.4L775.7,283.1L773.0,287.5L771.8,287.8L767.4,286.0L766.7,285.2L766.8,282.0L762.9,277.4L761.4,277.0L756.9,278.2L751.3,281.5L749.6,281.2L745.2,276.4L745.0,274.2L746.1,272.3L751.6,269.0L751.3,268.0Z " data-id="PK.PB" data-name="Punjab" id="PK.PB"/>
utf-8utf-8<path d="M518.5,1040.2L517.1,1039.3L512.5,1040.4L514.2,1043.2L517.6,1042.2L518.5,1040.2Z M660.6,733.6L652.2,729.8L647.5,727.1L644.8,724.8L639.4,718.3L638.0,716.1L631.6,702.9L629.0,698.1L628.6,695.4L624.0,691.2L621.9,687.8L612.6,685.9L611.8,684.1L609.2,683.1L604.7,682.9L598.0,686.1L589.0,686.4L556.9,687.9L545.1,687.1L538.2,688.0L534.4,690.7L532.0,696.5L525.4,700.2L521.7,703.8L508.7,715.8L507.1,718.3L504.8,723.1L489.6,730.9L481.2,733.2L473.7,734.3L471.3,735.8L468.7,745.4L465.0,751.8L461.7,760.2L460.9,766.4L460.2,778.1L460.6,784.5L462.5,792.3L469.1,832.4L472.2,841.6L494.5,875.7L496.1,880.8L496.0,887.9L497.5,895.7L497.1,900.9L495.0,910.8L490.4,918.1L488.5,922.7L486.8,923.7L483.8,931.2L484.3,935.9L482.7,943.3L479.4,946.8L475.1,959.2L473.7,961.1L471.1,962.6L466.9,963.7L457.3,973.1L455.5,974.1L454.3,977.3L464.5,977.3L467.9,976.3L469.9,976.4L474.3,979.5L476.0,979.7L475.6,977.0L478.7,979.4L483.6,980.8L484.0,980.2L488.6,980.5L490.3,983.6L495.6,983.5L496.4,985.2L491.6,989.3L490.4,993.6L490.7,995.2L494.6,995.3L497.9,997.2L493.1,997.2L494.3,1000.6L497.0,1002.4L495.8,1003.7L499.6,1008.8L500.0,1010.9L501.7,1009.2L501.3,1014.9L502.2,1015.8L506.0,1016.7L502.7,1018.0L503.4,1020.1L502.7,1021.9L505.1,1029.5L507.3,1032.8L509.8,1038.7L515.8,1038.7L520.7,1040.2L519.7,1042.1L518.7,1041.7L517.3,1045.3L521.2,1046.4L521.2,1050.3L521.7,1052.9L525.0,1054.6L523.7,1052.4L524.7,1052.4L530.8,1055.8L530.8,1051.0L531.8,1056.2L531.4,1060.0L535.8,1060.8L538.4,1060.7L539.1,1059.6L537.0,1056.8L541.0,1058.6L545.1,1059.5L546.4,1052.1L547.3,1056.2L549.8,1055.5L549.8,1056.6L553.3,1059.6L556.3,1059.4L558.0,1062.8L560.2,1057.9L559.1,1056.1L556.4,1049.2L560.0,1050.4L560.3,1055.3L563.7,1059.5L562.8,1059.5L562.2,1063.1L561.0,1064.8L561.8,1066.4L564.4,1067.5L564.4,1065.6L568.0,1068.7L568.6,1068.6L567.0,1063.4L568.1,1057.1L566.6,1051.9L569.0,1056.8L570.3,1054.1L572.4,1052.8L573.6,1049.4L576.4,1051.5L578.5,1049.0L577.9,1047.0L579.8,1049.2L581.8,1047.5L584.9,1046.9L605.0,1047.1L602.0,1021.2L603.0,1017.9L606.6,1018.1L607.8,1019.7L608.8,1024.3L610.9,1024.8L613.9,1018.7L615.8,1020.2L618.5,1023.8L624.2,1021.6L635.3,1023.7L640.1,1021.7L659.6,1022.2L661.7,1023.2L667.8,1029.3L671.1,1030.9L674.9,1031.3L688.8,1031.1L691.7,1030.4L694.5,1026.7L695.5,1021.8L699.2,1019.7L703.0,1018.3L716.9,1012.2L723.9,1010.4L726.7,1010.5L726.2,1015.4L729.9,1023.7L732.6,1025.1L741.9,1025.8L748.5,1022.6L747.5,1021.3L747.9,1018.5L751.7,1015.4L757.2,1015.9L761.8,1009.5L754.8,1007.2L752.5,999.9L753.0,993.3L757.2,990.9L756.2,986.8L753.0,979.8L747.9,973.0L745.5,968.8L743.4,964.3L739.6,953.4L737.2,949.9L732.3,945.9L729.6,943.1L727.2,937.7L722.7,932.8L721.8,930.0L720.3,913.9L719.6,910.6L717.8,908.5L714.9,907.9L707.4,910.5L699.5,910.7L695.5,909.8L690.2,906.1L688.2,901.7L683.5,897.5L680.3,894.1L677.6,890.2L675.3,876.7L678.0,870.2L678.6,867.3L678.5,864.3L677.2,859.6L677.7,855.0L677.0,851.8L676.5,845.2L675.7,842.3L673.3,839.7L668.0,837.6L651.7,838.3L648.5,837.1L642.9,832.5L639.8,830.5L628.6,825.9L626.0,823.4L625.0,820.1L624.9,800.8L625.8,794.7L627.9,789.7L633.0,783.2L636.9,780.0L643.6,772.0L646.6,765.1L651.5,759.2L652.7,756.8L655.2,741.4L655.8,740.0L660.6,733.6Z " data-id="PK.SD" data-name="Sind" id="PK.SD"/>
utf-8utf-8<path d="M740.3,13.0L735.5,12.8L727.3,14.3L722.9,13.7L718.7,14.2L715.5,14.0L712.5,15.2L706.4,14.4L696.8,15.5L692.9,17.3L690.7,16.4L686.0,18.2L680.2,18.5L674.5,17.7L670.2,18.0L666.3,19.0L663.5,20.6L660.2,24.1L655.9,24.3L653.4,25.2L650.5,25.4L645.0,26.7L641.6,28.7L641.6,29.7L643.8,32.6L642.8,33.3L636.9,34.8L637.3,37.5L636.5,38.5L629.3,42.8L627.4,45.2L622.2,45.8L621.1,46.7L621.8,49.3L623.9,52.6L623.4,53.5L620.3,53.6L617.9,51.5L610.8,48.5L609.6,53.9L608.3,55.5L610.0,59.1L605.3,61.3L601.6,66.9L600.5,68.0L596.5,70.0L596.6,71.7L591.9,75.5L591.6,78.6L589.7,82.0L591.3,84.2L594.0,85.5L597.2,88.0L604.5,91.2L606.5,95.1L614.4,102.4L615.7,105.8L619.6,110.0L620.3,111.4L619.0,116.0L620.0,117.4L626.9,121.1L627.8,122.3L628.1,126.8L629.0,128.6L632.1,132.0L632.0,134.8L629.5,137.6L628.1,140.2L628.5,142.4L630.2,144.5L634.8,148.7L637.3,150.3L636.6,155.6L632.7,158.8L631.5,160.9L632.6,166.7L630.8,171.4L629.9,171.8L634.4,176.5L638.8,178.0L641.4,182.7L643.2,184.6L645.1,185.1L649.3,183.0L655.4,184.4L656.8,186.2L655.3,190.0L656.0,194.1L653.7,194.9L651.7,197.2L651.5,202.6L650.5,204.1L653.9,213.8L654.3,215.7L652.3,216.7L652.3,218.7L650.2,217.8L647.7,221.9L648.6,226.0L646.6,229.0L638.2,236.3L639.6,236.9L643.1,244.7L643.6,248.8L647.6,253.1L649.3,258.0L655.1,264.1L656.5,267.3L662.7,268.3L666.0,266.3L669.2,261.5L670.7,260.4L673.5,263.8L678.9,264.8L679.6,265.8L676.6,272.8L676.9,274.0L679.6,275.6L676.1,279.9L672.8,282.2L669.8,283.2L666.9,282.9L664.0,281.7L663.8,280.0L667.7,278.1L668.1,277.3L664.8,276.0L656.1,275.4L646.9,276.5L637.7,271.0L636.7,269.5L631.4,267.8L634.0,275.2L631.8,276.1L632.1,279.7L626.0,282.6L614.6,281.7L610.9,279.8L609.2,280.7L608.7,283.0L609.3,287.2L606.3,288.4L599.8,292.2L595.4,292.8L594.2,295.3L598.4,298.1L601.0,302.1L603.2,304.5L611.1,306.6L611.0,307.9L614.5,309.2L621.2,310.3L623.0,310.8L624.2,312.6L620.3,319.0L617.9,320.0L612.7,323.2L609.8,323.7L605.2,322.9L601.9,325.6L601.6,330.9L597.3,340.7L599.0,349.1L601.7,351.3L616.3,365.9L617.2,367.4L615.8,369.3L610.8,366.7L608.8,366.8L607.6,372.9L604.5,376.8L603.6,379.1L597.8,382.2L595.7,382.4L592.8,387.3L590.5,389.0L588.1,392.9L594.8,404.9L597.9,407.2L605.0,426.4L606.7,428.7L625.6,466.5L626.7,466.7L628.9,462.6L632.6,462.3L634.4,460.6L637.0,460.7L641.8,462.0L644.6,460.7L647.2,460.9L650.2,462.8L651.7,454.7L654.3,451.5L653.2,446.3L651.1,442.3L652.6,433.4L652.6,427.0L654.2,421.1L654.7,414.8L656.9,411.5L658.1,406.8L660.1,404.3L660.5,398.3L662.3,395.5L665.1,393.5L665.7,392.2L666.0,386.5L666.8,384.2L666.6,381.1L669.3,372.3L668.3,366.8L665.1,364.0L663.0,367.5L661.3,366.1L659.7,359.5L656.8,360.1L654.0,358.4L650.7,349.5L646.8,343.7L648.3,340.9L647.7,332.7L648.7,330.1L651.8,327.8L655.7,326.0L659.9,327.0L665.7,325.2L666.3,322.7L663.6,316.5L661.9,314.3L659.8,310.3L660.2,307.4L664.4,309.9L668.0,309.1L672.6,312.8L673.3,315.2L678.3,320.8L681.8,322.2L682.0,316.8L683.3,314.1L682.6,310.7L678.5,306.6L678.6,302.9L678.0,298.7L678.9,297.1L685.7,294.9L687.4,288.7L690.2,279.3L690.8,267.5L693.2,265.9L694.1,264.1L701.4,265.9L703.7,265.2L704.6,265.9L704.4,262.8L701.6,255.1L701.8,252.1L708.6,250.3L713.1,246.3L715.4,245.5L719.3,245.5L722.1,250.0L731.4,258.8L734.6,255.2L735.4,253.2L737.5,251.3L738.8,252.4L741.0,256.5L742.4,256.4L744.7,260.9L746.3,261.5L744.9,264.4L745.3,266.3L751.3,268.0L751.6,269.0L754.7,268.4L757.7,265.5L761.4,264.7L763.1,263.5L763.4,262.8L764.6,262.3L767.8,262.5L775.3,255.2L776.6,252.4L776.3,249.9L780.5,249.5L781.2,247.4L783.8,245.7L785.1,246.3L785.8,246.5L785.7,246.5L781.1,235.2L780.2,231.3L775.3,222.6L771.6,218.7L771.4,212.2L770.8,209.8L770.5,202.0L779.5,199.9L782.3,201.4L783.0,196.3L781.6,192.8L783.7,185.8L786.5,183.5L790.2,182.0L794.5,182.0L802.2,175.8L803.7,170.8L804.4,166.5L803.7,164.3L801.8,162.3L803.2,159.2L804.7,158.7L804.7,158.7L802.1,155.3L797.1,154.6L791.6,152.8L788.4,150.3L784.9,150.2L781.3,147.9L775.0,148.5L774.4,145.4L770.7,137.8L772.7,132.1L775.1,130.4L772.8,124.5L762.9,122.8L758.7,122.9L750.1,121.3L748.2,122.4L743.2,118.4L739.6,117.1L726.7,108.9L725.3,106.5L724.6,102.3L722.0,97.4L719.5,96.7L717.7,97.4L712.5,95.6L706.0,95.9L702.9,97.8L702.4,98.8L698.5,98.3L684.8,94.7L681.8,93.5L684.4,84.7L682.6,81.7L680.1,79.8L678.8,77.8L679.9,73.5L678.6,70.4L678.5,67.0L680.4,63.6L686.0,63.7L687.0,61.7L690.9,59.0L692.7,56.1L695.9,54.5L696.2,53.0L695.4,50.1L695.5,48.2L701.0,47.5L701.3,46.4L704.8,41.1L705.3,35.5L702.6,28.8L706.5,27.7L708.8,26.1L711.6,27.8L717.7,27.1L723.8,24.6L732.5,26.2L736.3,26.2L738.3,28.0L742.5,28.4L748.8,26.5L754.9,27.9L755.3,25.0L754.5,23.1L741.0,15.7L740.3,13.0L740.3,13.0Z " data-id="PK.NW" data-name="N.W.F.P." id="PK.NW"/>
utf-8</g>
</svg>
