<?xml version="1.0" ?>
<!DOCTYPE svg
  PUBLIC '-//W3C//DTD SVG 1.1//EN'
  'http://www.w3.org/Graphics/SVG/1.1/DTD/svg11.dtd'>
<svg enable_background="new 0 0 1000 714" height="714px" pretty_print="True" style="stroke-linejoin: round; stroke:#000; fill: none;" version="1.1" viewBox="0 0 1000 714" width="1000px" xmlns="http://www.w3.org/2000/svg" xmlns:xlink="http://www.w3.org/1999/xlink">
utf-8<defs>
utf-8utf-8<style type="text/css">
<![CDATA[path { fill-rule: evenodd; }]]>utf-8utf-8</style>
utf-8</defs>
utf-8<metadata>
utf-8utf-8<views>
utf-8utf-8utf-8<view h="714.481297724" padding="0" w="1000">
utf-8utf-8utf-8utf-8<proj flip="auto" id="robinson" lon0="20.9973535395"/>
utf-8utf-8utf-8utf-8<bbox h="94.05" w="131.82" x="176.91" y="-912.81"/>
utf-8utf-8utf-8</view>
utf-8utf-8</views>
utf-8</metadata>
utf-8<g class="" id="provinces">
utf-8utf-8<path d="M520.5,48.5L520.1,48.7L519.6,50.1L519.7,50.4L519.8,50.7L520.0,51.0L519.1,51.1L518.5,51.2L518.2,51.8L517.9,52.4L517.7,53.4L517.6,53.7L517.4,53.9L514.3,54.9L508.6,58.2L505.0,58.6L496.1,62.6L495.4,62.8L494.3,63.4L492.1,65.0L492.0,65.1L490.1,67.9L490.0,68.0L489.5,68.4L489.3,68.7L489.0,69.1L487.8,72.2L487.7,72.4L486.6,73.3L486.6,73.3L486.6,70.1L486.9,69.5L487.2,69.0L487.7,68.6L485.7,67.7L477.2,66.9L475.1,68.8L475.0,72.9L477.6,77.5L479.9,80.1L481.3,83.1L479.2,87.3L475.5,90.4L474.2,92.1L474.7,94.5L477.1,99.6L480.7,103.6L485.5,105.6L490.4,106.1L493.2,108.6L492.0,113.3L495.5,114.6L504.8,114.0L509.6,115.0L509.7,118.9L507.2,121.9L505.3,128.6L500.1,130.4L492.4,130.0L488.7,131.9L485.7,134.6L474.1,154.3L483.8,166.5L486.7,171.7L491.8,177.5L503.4,180.1L514.1,184.7L525.3,186.9L530.9,189.7L537.0,199.2L539.7,210.3L543.0,209.6L545.5,207.9L547.5,204.2L551.1,203.3L552.8,203.5L556.1,206.2L586.6,209.7L593.6,208.7L596.3,207.6L598.5,205.4L599.6,201.3L602.3,199.5L606.0,199.8L609.4,199.0L621.9,193.2L624.7,190.3L627.9,188.2L634.7,188.2L640.6,187.3L647.2,184.2L656.2,184.2L664.5,182.2L670.9,175.6L679.4,176.2L683.6,175.7L687.2,173.6L689.4,169.6L691.6,168.6L703.0,167.9L709.6,165.6L723.2,166.2L729.0,164.6L731.5,162.9L734.4,162.0L741.4,161.2L756.5,152.7L764.7,144.8L789.3,132.4L794.1,128.0L796.4,121.0L799.4,115.5L799.0,109.8L787.4,99.3L782.1,95.8L779.6,88.8L768.7,79.3L776.2,69.8L796.9,67.6L802.7,64.5L807.5,60.3L809.0,54.4L808.6,53.5L806.7,56.8L805.1,57.9L798.9,59.5L540.0,49.3L520.5,48.5Z " data-id="PL.WN" data-name="Warmian-Masurian" id="PL.WN"/>
utf-8utf-8<path d="M486.4,71.5L486.6,70.1L486.9,69.5L486.6,70.1L486.6,73.3L486.4,71.5Z M489.0,69.1L487.8,72.2L489.0,69.1L489.3,68.7L489.0,69.1Z M490.1,67.9L490.0,68.0L490.1,67.9L492.0,65.1L490.1,67.9Z M516.8,54.3L514.3,54.9L508.6,58.2L503.5,59.1L496.6,62.5L496.1,62.6L505.0,58.6L508.6,58.2L514.3,54.9L517.4,53.9L516.8,54.3Z M517.9,52.4L517.7,53.4L517.9,52.4L518.2,51.8L517.9,52.4Z M520.0,51.0L519.1,51.1L520.0,51.0L519.8,50.7L520.0,51.0Z M520.5,48.5L520.1,48.7L519.1,48.6L519.3,49.1L519.6,50.1L520.1,48.7L520.5,48.5L520.5,48.5Z M238.8,31.4L246.6,41.5L255.3,49.8L258.6,54.3L260.0,60.0L259.3,63.2L257.0,65.2L256.6,67.3L259.8,70.9L260.5,73.9L259.2,75.6L246.3,78.0L253.8,91.7L255.2,98.4L256.0,105.0L260.2,107.2L262.7,109.2L266.9,114.7L269.7,116.5L272.2,118.8L274.3,121.7L269.0,121.2L264.4,122.9L264.8,125.2L266.7,125.9L269.9,130.5L267.5,134.3L263.9,137.3L266.9,150.4L271.9,154.7L276.4,160.0L282.3,162.5L301.6,163.1L306.9,165.2L311.6,169.1L314.1,167.9L316.1,160.3L318.0,156.4L320.4,153.7L323.8,153.4L337.3,156.0L343.0,154.2L343.3,148.3L346.1,146.2L352.4,144.3L355.6,139.0L358.0,137.5L370.2,139.2L386.1,137.4L389.4,137.6L392.5,140.4L395.9,142.6L413.2,144.7L421.7,148.4L425.0,146.6L430.3,145.1L438.1,146.0L443.1,148.7L450.0,153.6L453.1,155.0L458.4,156.6L469.2,156.1L474.1,154.3L485.7,134.6L488.7,131.9L492.4,130.0L500.1,130.4L505.3,128.6L507.2,121.9L509.7,118.9L509.6,115.0L504.8,114.0L495.5,114.6L492.0,113.3L493.2,108.6L490.4,106.1L485.5,105.6L480.7,103.6L477.1,99.6L474.7,94.5L474.2,92.1L475.5,90.4L479.2,87.3L481.3,83.1L479.9,80.1L477.6,77.5L475.0,72.9L475.1,68.8L477.2,66.9L485.7,67.7L487.7,68.6L488.0,68.4L487.8,67.5L485.7,67.7L477.2,66.9L474.7,65.8L474.7,63.0L472.1,60.1L475.9,59.0L484.0,58.5L487.8,57.6L491.7,56.0L507.3,46.5L504.6,46.3L499.4,50.8L492.9,52.5L485.5,55.3L450.6,59.3L445.9,57.6L443.1,58.8L439.6,58.6L423.3,54.8L420.8,52.1L414.9,50.6L410.3,48.6L408.8,46.6L407.6,42.1L407.0,34.6L403.1,28.0L400.8,25.0L401.2,23.0L399.8,24.5L398.0,24.8L396.8,23.8L397.1,21.4L395.9,20.6L396.0,18.1L394.4,15.9L389.6,12.8L390.4,6.8L390.9,6.2L396.1,7.8L397.1,8.8L402.9,10.7L408.8,13.6L411.6,14.3L412.6,15.4L417.7,16.5L426.0,25.8L427.8,26.7L429.6,28.8L431.1,28.2L428.5,23.4L422.0,17.8L388.2,3.6L381.2,0.6L379.1,0.0L363.6,0.0L338.8,1.7L323.3,5.7L288.4,10.7L261.1,20.6L252.9,27.9L249.5,28.8L245.5,29.3L238.8,31.4Z " data-id="PL.PM" data-name="Pomeranian" id="PL.PM"/>
utf-8utf-8<path d="M230.5,379.6L225.1,383.6L217.6,385.0L211.7,379.6L211.0,375.4L208.2,373.2L193.4,371.1L191.7,373.1L190.6,376.3L188.0,378.6L184.7,379.5L182.7,380.7L174.6,395.3L165.0,406.4L158.3,407.7L144.2,401.8L137.3,403.8L134.4,406.8L130.1,413.5L127.3,413.3L121.3,409.4L118.5,409.4L101.9,416.6L102.9,421.8L103.9,425.0L108.3,429.5L109.9,431.9L110.5,436.2L109.1,438.8L107.6,445.5L107.6,450.1L105.9,452.4L105.9,457.3L102.3,466.1L98.2,475.4L95.1,478.4L93.9,480.2L94.0,482.5L99.5,481.8L110.6,482.4L110.3,475.2L111.0,470.2L107.7,467.5L107.6,465.7L110.5,464.2L111.1,462.6L113.0,464.0L118.0,464.8L121.5,467.5L122.6,467.3L123.5,464.5L124.7,463.8L127.6,467.9L133.1,467.9L135.8,469.0L137.5,471.0L136.3,475.7L136.7,477.4L140.3,483.0L145.7,485.8L147.0,488.1L147.0,491.7L147.8,492.7L150.1,492.1L151.8,489.9L155.8,489.7L175.6,495.1L180.0,498.1L187.9,496.5L191.0,498.3L196.5,505.0L199.8,505.1L205.4,503.4L208.4,504.6L211.6,509.9L210.3,513.8L214.4,513.2L219.9,508.5L224.1,508.8L228.8,511.3L230.4,511.0L232.7,507.0L237.4,506.8L240.6,507.5L243.7,508.8L252.7,515.9L253.8,518.2L250.8,519.2L251.3,520.2L250.9,523.8L245.9,527.7L242.7,527.0L241.2,527.4L239.2,530.0L234.2,532.5L232.5,535.9L233.6,538.1L236.8,538.5L238.9,542.4L240.2,543.2L242.7,542.3L248.8,543.7L249.4,547.0L251.3,548.9L255.7,550.2L265.3,560.0L268.5,562.5L271.2,569.0L277.7,574.9L282.0,576.6L285.9,576.4L288.6,573.1L290.7,571.8L294.2,566.6L296.2,565.1L302.3,564.5L306.5,561.3L308.4,561.8L311.0,559.5L314.5,562.2L312.8,555.2L311.6,553.0L305.2,548.8L301.8,541.5L298.3,537.8L298.1,536.1L300.6,534.8L302.9,535.0L305.7,536.3L306.0,534.9L311.7,520.8L316.4,517.6L322.2,516.9L325.3,512.0L326.8,505.1L332.7,494.5L339.8,484.9L342.7,478.4L346.8,473.7L349.7,472.0L350.9,468.3L351.9,462.1L356.5,451.8L358.7,449.6L361.8,448.8L365.1,449.0L368.4,448.3L371.5,446.8L369.6,440.7L367.2,428.1L369.4,423.0L365.7,420.8L361.9,420.0L356.1,420.9L350.3,419.8L347.6,415.4L346.5,410.1L347.5,407.5L349.8,406.2L351.4,399.7L341.3,394.8L330.4,392.5L319.1,392.5L315.2,393.1L312.2,399.7L292.6,402.5L281.1,399.3L275.4,394.7L265.7,390.6L260.9,384.8L260.2,380.8L258.2,377.8L246.9,373.1L242.9,372.3L234.7,373.6L230.5,379.6Z " data-id="PL.DS" data-name="Lower Silesian" id="PL.DS"/>
utf-8utf-8<path d="M263.9,137.3L267.5,134.3L269.9,130.5L266.7,125.9L264.8,125.2L264.4,122.9L269.0,121.2L274.3,121.7L272.2,118.8L269.7,116.5L266.9,114.7L262.7,109.2L260.2,107.2L256.0,105.0L255.2,98.4L253.8,91.7L246.3,78.0L259.2,75.6L260.5,73.9L259.8,70.9L256.6,67.3L257.0,65.2L259.3,63.2L260.0,60.0L258.6,54.3L255.3,49.8L246.6,41.5L238.8,31.4L238.2,31.6L218.7,33.7L212.6,36.7L209.6,39.2L208.0,42.0L211.1,41.2L210.7,42.8L208.1,44.2L207.4,42.0L197.6,52.5L194.2,57.6L198.1,55.9L199.4,57.6L198.3,58.7L195.1,59.8L193.9,61.0L189.9,61.9L193.6,57.6L188.3,62.7L181.5,65.8L186.5,64.6L188.7,64.7L189.4,67.5L184.9,67.5L185.7,69.1L177.5,70.2L175.4,69.1L179.9,67.5L181.0,66.6L170.8,69.3L155.8,70.7L138.1,76.9L103.2,84.1L77.7,92.4L56.6,96.6L32.4,105.0L25.9,108.7L22.4,110.2L18.7,110.8L9.3,110.2L3.6,108.2L2.3,111.4L0.7,112.0L3.6,115.4L5.9,116.2L10.9,121.2L15.2,122.7L17.4,122.4L16.0,121.1L21.1,119.5L22.0,120.0L24.0,118.5L24.1,117.0L21.6,115.7L18.8,115.3L21.4,112.9L25.6,112.9L24.7,115.3L26.2,116.5L36.8,117.3L39.1,118.3L40.9,122.8L43.7,118.7L44.4,118.7L43.7,125.5L44.6,128.6L41.3,129.3L40.1,128.6L38.3,133.8L37.9,136.5L41.3,141.8L46.1,144.3L44.9,145.1L43.9,148.9L35.2,141.0L30.0,139.6L25.8,139.1L22.7,136.9L18.6,135.1L17.3,132.8L13.7,131.0L13.4,133.6L15.1,134.4L13.9,136.3L11.3,137.0L11.5,142.2L13.2,144.6L15.6,149.3L16.3,157.6L17.2,160.1L19.8,162.8L21.0,165.3L23.2,167.8L24.8,174.1L29.8,188.6L33.1,191.1L30.9,194.8L28.5,197.1L27.8,200.2L29.4,205.6L25.9,215.7L23.2,218.0L17.9,221.5L12.3,223.8L7.9,226.4L10.6,234.2L9.5,238.0L7.1,239.7L10.1,242.4L16.3,243.6L19.6,246.5L22.3,247.5L33.0,253.3L34.6,254.6L38.3,259.6L41.2,261.0L44.2,263.9L50.1,265.7L56.1,270.5L57.8,264.0L59.7,261.6L67.7,260.6L72.4,259.0L79.1,250.9L84.3,240.6L93.2,236.7L109.4,240.7L114.4,240.2L119.8,234.9L122.9,229.6L120.3,229.3L118.2,227.3L123.6,227.1L139.3,222.9L158.9,222.9L163.5,220.2L171.2,211.8L175.9,208.8L181.0,208.3L185.9,209.1L189.0,215.0L187.8,220.7L193.2,222.1L199.3,224.8L205.2,224.1L210.9,222.4L219.4,215.7L226.1,206.5L239.3,200.3L246.1,198.6L248.6,196.7L250.6,193.6L253.2,190.9L252.2,187.4L249.0,184.5L245.3,183.1L238.0,181.7L231.6,177.3L229.6,173.0L229.0,168.2L230.9,165.8L248.4,166.2L251.3,165.8L252.9,158.1L254.3,154.1L256.4,150.8L259.7,149.7L263.3,149.6L266.9,150.4L263.9,137.3Z " data-id="PL.ZP" data-name="West Pomeranian" id="PL.ZP"/>
utf-8utf-8<path d="M189.0,215.0L185.9,209.1L181.0,208.3L175.9,208.8L171.2,211.8L163.5,220.2L158.9,222.9L139.3,222.9L123.6,227.1L118.2,227.3L120.3,229.3L122.9,229.6L119.8,234.9L114.4,240.2L109.4,240.7L93.2,236.7L84.3,240.6L79.1,250.9L72.4,259.0L67.7,260.6L59.7,261.6L57.8,264.0L56.1,270.5L56.6,271.0L59.8,272.9L57.5,277.2L57.0,280.0L59.5,282.6L58.1,285.4L56.1,288.3L51.4,291.7L52.4,296.5L55.1,301.8L57.4,305.4L57.1,307.6L59.4,309.5L68.3,312.2L70.0,314.3L70.1,316.8L68.5,319.5L70.0,321.2L68.7,328.3L69.8,330.0L76.4,333.7L74.1,336.4L73.5,339.8L71.3,343.9L71.6,351.4L68.1,357.8L63.0,362.2L61.9,364.3L62.4,366.9L67.4,371.2L68.1,374.4L69.4,377.5L71.7,379.5L76.7,382.6L79.3,387.8L79.7,391.0L77.1,395.8L77.3,400.3L79.6,402.1L86.0,403.7L90.4,405.9L95.0,407.0L100.8,410.2L101.9,411.9L101.2,413.4L101.9,416.6L118.5,409.4L121.3,409.4L127.3,413.3L130.1,413.5L134.4,406.8L137.3,403.8L144.2,401.8L158.3,407.7L165.0,406.4L174.6,395.3L182.7,380.7L184.7,379.5L188.0,378.6L190.6,376.3L191.7,373.1L193.4,371.1L208.2,373.2L211.0,375.4L211.7,379.6L217.6,385.0L225.1,383.6L230.5,379.6L234.7,373.6L230.8,364.5L224.0,359.1L217.3,362.8L212.9,361.7L208.5,359.5L206.8,356.2L206.8,352.0L207.5,349.7L207.1,347.2L205.4,346.4L203.8,347.0L200.2,347.0L196.6,344.3L194.0,341.1L192.0,337.3L186.5,335.1L183.6,333.0L181.1,330.4L180.0,326.5L179.7,322.4L180.8,315.3L183.2,308.1L182.3,300.6L180.0,297.0L175.4,291.4L177.4,290.3L180.0,290.3L179.6,286.7L176.9,278.0L172.8,270.8L171.8,264.0L172.3,257.6L173.8,257.7L182.6,255.5L184.4,254.6L185.1,252.7L182.4,246.7L179.3,244.6L187.7,235.5L186.6,227.7L187.8,220.7L189.0,215.0Z " data-id="PL.LB" data-name="Lubusz" id="PL.LB"/>
utf-8utf-8<path d="M263.3,149.6L259.7,149.7L256.4,150.8L254.3,154.1L252.9,158.1L251.3,165.8L248.4,166.2L230.9,165.8L229.0,168.2L229.6,173.0L231.6,177.3L238.0,181.7L245.3,183.1L249.0,184.5L252.2,187.4L253.2,190.9L250.6,193.6L248.6,196.7L246.1,198.6L239.3,200.3L226.1,206.5L219.4,215.7L210.9,222.4L205.2,224.1L199.3,224.8L193.2,222.1L187.8,220.7L186.6,227.7L187.7,235.5L179.3,244.6L182.4,246.7L185.1,252.7L184.4,254.6L182.6,255.5L173.8,257.7L172.3,257.6L171.8,264.0L172.8,270.8L176.9,278.0L179.6,286.7L180.0,290.3L177.4,290.3L175.4,291.4L180.0,297.0L182.3,300.6L183.2,308.1L180.8,315.3L179.7,322.4L180.0,326.5L181.1,330.4L183.6,333.0L186.5,335.1L192.0,337.3L194.0,341.1L196.6,344.3L200.2,347.0L203.8,347.0L205.4,346.4L207.1,347.2L207.5,349.7L206.8,352.0L206.8,356.2L208.5,359.5L212.9,361.7L217.3,362.8L224.0,359.1L230.8,364.5L234.7,373.6L242.9,372.3L246.9,373.1L258.2,377.8L260.2,380.8L260.9,384.8L265.7,390.6L275.4,394.7L281.1,399.3L292.6,402.5L312.2,399.7L315.2,393.1L319.1,392.5L330.4,392.5L341.3,394.8L351.4,399.7L349.8,406.2L347.5,407.5L346.5,410.1L347.6,415.4L350.3,419.8L356.1,420.9L361.9,420.0L365.7,420.8L369.4,423.0L367.2,428.1L369.6,440.7L371.5,446.8L374.8,446.6L378.1,447.9L379.7,450.6L380.5,453.6L386.0,456.8L392.1,457.1L403.2,453.8L413.7,448.5L412.5,442.8L411.2,439.4L405.2,435.5L403.1,432.1L402.4,428.1L403.6,425.4L410.6,424.2L412.7,421.1L413.9,417.3L418.6,416.2L424.0,418.2L428.3,415.6L430.4,409.8L429.5,403.3L427.9,396.6L427.4,388.5L429.1,381.1L432.7,372.7L434.9,370.0L440.1,367.9L454.2,369.1L455.2,368.2L459.1,361.8L459.0,357.9L456.8,354.0L455.2,349.7L455.5,345.6L456.4,341.8L462.7,341.9L469.0,340.7L473.4,336.3L473.4,328.6L474.0,325.2L483.2,322.0L488.6,317.6L486.8,316.1L484.6,313.0L484.0,309.1L474.2,303.7L470.9,304.1L461.2,307.4L457.8,307.6L454.7,303.0L437.7,292.9L434.5,290.3L431.1,289.1L425.4,291.8L423.0,291.2L419.6,287.2L418.6,285.0L415.3,283.8L410.3,288.9L407.1,290.0L397.2,288.1L393.9,285.8L390.8,283.1L387.5,282.1L383.9,281.9L380.3,280.5L369.8,273.6L362.3,270.6L355.6,270.3L349.3,268.7L345.7,263.8L342.5,261.9L341.0,263.1L337.3,264.1L333.3,263.5L329.4,258.3L325.7,255.7L326.0,252.6L330.7,251.3L331.6,249.7L332.7,241.1L327.2,233.2L319.5,229.0L311.6,226.9L315.0,219.3L315.6,211.8L312.1,207.4L310.8,202.3L318.9,196.7L313.4,188.8L304.8,184.0L303.3,180.4L309.4,173.5L311.6,169.1L306.9,165.2L301.6,163.1L282.3,162.5L276.4,160.0L271.9,154.7L266.9,150.4L263.3,149.6Z " data-id="PL.WP" data-name="Greater Poland" id="PL.WP"/>
utf-8utf-8<path d="M469.2,156.1L458.4,156.6L453.1,155.0L450.0,153.6L443.1,148.7L438.1,146.0L430.3,145.1L425.0,146.6L421.7,148.4L413.2,144.7L395.9,142.6L392.5,140.4L389.4,137.6L386.1,137.4L370.2,139.2L358.0,137.5L355.6,139.0L352.4,144.3L346.1,146.2L343.3,148.3L343.0,154.2L337.3,156.0L323.8,153.4L320.4,153.7L318.0,156.4L316.1,160.3L314.1,167.9L311.6,169.1L309.4,173.5L303.3,180.4L304.8,184.0L313.4,188.8L318.9,196.7L310.8,202.3L312.1,207.4L315.6,211.8L315.0,219.3L311.6,226.9L319.5,229.0L327.2,233.2L332.7,241.1L331.6,249.7L330.7,251.3L326.0,252.6L325.7,255.7L329.4,258.3L333.3,263.5L337.3,264.1L341.0,263.1L342.5,261.9L345.7,263.8L349.3,268.7L355.6,270.3L362.3,270.6L369.8,273.6L380.3,280.5L383.9,281.9L387.5,282.1L390.8,283.1L393.9,285.8L397.2,288.1L407.1,290.0L410.3,288.9L415.3,283.8L418.6,285.0L419.6,287.2L423.0,291.2L425.4,291.8L431.1,289.1L434.5,290.3L437.7,292.9L454.7,303.0L457.8,307.6L461.2,307.4L470.9,304.1L474.2,303.7L484.0,309.1L484.8,308.2L486.9,306.3L498.7,306.2L502.2,305.3L504.0,302.6L505.8,302.3L507.6,302.3L508.0,300.3L508.2,298.2L514.2,289.2L513.5,286.9L511.4,285.4L511.3,280.7L513.4,276.7L518.1,262.2L522.1,261.4L521.5,257.3L515.0,247.4L515.5,245.0L517.2,243.3L517.1,238.9L515.0,233.9L519.8,234.3L523.4,231.8L526.8,228.2L530.6,229.8L532.4,229.9L533.3,223.1L530.9,214.9L535.5,213.1L539.7,210.3L537.0,199.2L530.9,189.7L525.3,186.9L514.1,184.7L503.4,180.1L491.8,177.5L486.7,171.7L483.8,166.5L474.1,154.3L469.2,156.1Z " data-id="PL.KP" data-name="Kuyavian-Pomeranian" id="PL.KP"/>
utf-8utf-8<path d="M561.9,484.9L552.3,485.3L548.9,484.5L538.6,473.0L532.3,468.7L525.7,467.7L522.6,470.0L514.9,470.1L508.5,469.0L495.3,463.6L492.0,461.2L488.6,460.6L482.7,463.5L469.1,463.9L464.4,465.8L462.1,475.2L460.5,478.2L461.4,481.0L462.9,483.3L462.7,487.6L455.5,491.6L453.4,495.9L452.5,503.6L450.7,508.6L453.1,513.3L456.0,516.1L459.3,518.1L462.7,520.8L464.3,525.2L450.2,525.1L447.4,525.6L446.4,528.4L447.7,530.6L447.7,532.8L443.6,533.9L443.0,536.4L446.3,552.2L446.8,558.5L446.2,562.1L437.1,565.7L431.7,569.3L419.6,571.4L414.7,580.6L414.8,582.6L416.2,582.9L422.2,586.0L421.8,588.2L423.2,589.4L429.5,590.4L439.1,594.7L441.1,598.2L443.1,599.5L444.5,599.2L447.0,597.3L450.3,596.5L454.1,597.6L461.7,600.8L464.0,600.8L467.6,598.8L469.1,599.5L470.5,605.2L473.2,606.3L470.8,608.9L471.2,612.2L473.2,615.9L479.4,625.1L482.4,625.3L488.6,629.0L493.0,628.1L498.6,638.7L500.5,643.9L500.9,648.6L510.6,649.3L513.6,650.7L513.0,652.8L514.3,658.1L514.3,662.1L515.0,663.5L519.4,663.7L523.0,661.9L530.1,663.3L535.4,661.9L536.6,657.0L538.4,656.6L537.8,654.7L539.0,650.7L540.1,648.9L544.8,646.8L547.8,646.9L550.8,645.8L559.3,637.2L559.9,637.4L559.2,636.0L556.8,634.7L555.3,632.5L555.9,629.9L557.2,627.1L557.2,623.9L550.5,622.9L546.7,621.6L543.3,619.1L541.4,615.4L539.1,612.4L534.0,610.8L530.6,606.5L530.0,602.4L527.7,600.2L525.0,600.0L522.9,597.9L523.5,593.8L525.3,590.2L527.2,587.6L548.0,566.5L542.9,561.4L537.3,557.2L540.1,555.3L546.7,556.0L550.4,551.2L552.6,546.8L554.9,543.6L560.5,546.1L565.5,545.7L573.5,540.2L578.7,539.6L584.2,539.9L587.2,539.5L598.8,533.3L598.3,531.1L597.3,528.4L594.5,527.6L587.8,526.8L584.3,525.4L585.8,521.9L592.0,517.4L595.9,516.9L590.7,512.4L587.5,507.6L583.9,505.5L576.4,503.8L573.5,501.3L576.5,495.7L583.0,494.8L582.7,491.0L581.4,490.5L573.0,489.2L561.9,484.9Z " data-id="PL.SL" data-name="Silesian" id="PL.SL"/>
utf-8utf-8<path d="M505.8,302.3L504.0,302.6L502.2,305.3L498.7,306.2L486.9,306.3L484.8,308.2L484.0,309.1L484.6,313.0L486.8,316.1L488.6,317.6L483.2,322.0L474.0,325.2L473.4,328.6L473.4,336.3L469.0,340.7L462.7,341.9L456.4,341.8L455.5,345.6L455.2,349.7L456.8,354.0L459.0,357.9L459.1,361.8L455.2,368.2L454.2,369.1L440.1,367.9L434.9,370.0L432.7,372.7L429.1,381.1L427.4,388.5L427.9,396.6L429.5,403.3L430.4,409.8L428.3,415.6L424.0,418.2L418.6,416.2L413.9,417.3L412.7,421.1L410.6,424.2L403.6,425.4L402.4,428.1L403.1,432.1L405.2,435.5L411.2,439.4L412.5,442.8L413.7,448.5L416.2,451.6L419.3,453.4L441.3,457.9L448.2,457.7L451.2,455.1L454.0,457.6L456.7,461.1L464.4,465.8L469.1,463.9L482.7,463.5L488.6,460.6L492.0,461.2L495.3,463.6L508.5,469.0L514.9,470.1L522.6,470.0L525.7,467.7L532.3,468.7L538.6,473.0L548.9,484.5L552.3,485.3L561.9,484.9L573.0,489.2L574.9,486.1L580.6,482.2L581.8,478.6L580.6,470.8L581.4,466.8L584.7,466.3L598.4,473.8L600.3,471.7L600.6,467.7L599.2,463.6L596.0,461.7L591.0,456.4L592.5,449.0L594.6,446.5L597.5,445.6L608.3,446.8L611.4,446.1L617.5,441.0L620.4,439.9L623.6,439.4L626.6,438.3L629.3,431.3L631.9,429.7L631.1,426.1L632.0,422.7L637.6,418.2L638.8,414.8L638.3,410.9L637.0,409.8L633.2,408.4L632.3,406.4L631.5,402.5L630.1,398.8L626.5,393.3L628.2,386.5L635.7,386.5L641.8,388.9L648.9,389.7L649.9,387.7L649.7,384.8L647.9,381.7L642.2,377.4L640.9,373.9L642.7,369.9L641.8,367.9L635.4,361.9L628.0,357.7L621.3,355.4L611.2,356.3L607.7,355.4L606.6,353.4L606.6,351.1L601.1,346.1L600.0,343.6L603.0,342.1L603.3,336.0L601.8,334.7L597.8,332.7L590.9,330.6L588.0,330.4L585.7,327.0L584.8,322.7L583.2,319.6L580.4,318.1L573.8,316.1L571.1,313.0L568.2,310.4L564.7,310.7L561.9,313.1L542.4,316.3L532.9,310.8L527.7,309.0L517.5,307.3L507.6,302.3L505.8,302.3Z " data-id="PL.LD" data-name="Łódź" id="PL.LD"/>
utf-8utf-8<path d="M869.9,308.2L866.7,307.8L867.6,305.3L864.6,302.8L862.7,302.0L860.8,302.8L859.5,300.1L857.1,298.4L854.2,297.7L846.8,298.5L831.6,296.1L826.6,296.3L824.2,295.9L822.9,294.5L821.3,295.0L816.5,290.8L814.8,286.0L812.8,282.9L812.8,278.6L801.5,270.0L801.4,267.3L800.5,262.8L798.8,258.5L797.3,252.2L795.0,246.5L789.7,247.7L784.6,249.8L781.4,248.2L778.6,245.6L779.2,238.9L774.2,236.2L770.0,240.2L762.9,241.0L755.7,238.3L752.7,234.7L750.8,230.3L749.0,227.3L746.4,225.4L742.6,223.9L739.7,220.6L738.9,217.5L740.2,215.3L735.4,212.7L730.1,212.1L724.8,210.0L720.6,204.9L713.9,194.7L709.7,180.8L707.5,176.0L704.8,172.1L703.0,167.9L691.6,168.6L689.4,169.6L687.2,173.6L683.6,175.7L679.4,176.2L670.9,175.6L664.5,182.2L656.2,184.2L647.2,184.2L640.6,187.3L634.7,188.2L627.9,188.2L624.7,190.3L621.9,193.2L609.4,199.0L606.0,199.8L602.3,199.5L599.6,201.3L598.5,205.4L596.3,207.6L593.6,208.7L586.6,209.7L556.1,206.2L552.8,203.5L551.1,203.3L547.5,204.2L545.5,207.9L543.0,209.6L539.7,210.3L535.5,213.1L530.9,214.9L533.3,223.1L532.4,229.9L530.6,229.8L526.8,228.2L523.4,231.8L519.8,234.3L515.0,233.9L517.1,238.9L517.2,243.3L515.5,245.0L515.0,247.4L521.5,257.3L522.1,261.4L518.1,262.2L513.4,276.7L511.3,280.7L511.4,285.4L513.5,286.9L514.2,289.2L508.2,298.2L508.0,300.3L507.6,302.3L517.5,307.3L527.7,309.0L532.9,310.8L542.4,316.3L561.9,313.1L564.7,310.7L568.2,310.4L571.1,313.0L573.8,316.1L580.4,318.1L583.2,319.6L584.8,322.7L585.7,327.0L588.0,330.4L590.9,330.6L597.8,332.7L601.8,334.7L603.3,336.0L603.0,342.1L600.0,343.6L601.1,346.1L606.6,351.1L606.6,353.4L607.7,355.4L611.2,356.3L621.3,355.4L628.0,357.7L635.4,361.9L641.8,367.9L642.7,369.9L640.9,373.9L642.2,377.4L647.9,381.7L649.7,384.8L649.9,387.7L648.9,389.7L641.8,388.9L635.7,386.5L628.2,386.5L626.5,393.3L630.1,398.8L631.5,402.5L632.3,406.4L633.2,408.4L637.0,409.8L638.3,410.9L638.8,414.8L637.6,418.2L632.0,422.7L631.1,426.1L631.9,429.7L637.4,431.2L641.0,437.0L657.8,444.7L662.6,449.4L665.3,450.9L677.2,452.8L690.4,451.1L693.5,449.6L695.9,446.5L698.7,444.2L701.7,445.0L703.0,449.1L706.2,451.7L707.7,455.6L714.8,459.0L722.2,459.6L738.7,463.6L769.0,458.4L766.1,453.7L763.3,446.6L764.1,442.4L764.9,434.8L767.7,432.1L767.2,429.5L768.0,422.3L763.7,418.6L763.5,415.6L765.6,414.2L767.6,411.6L767.0,406.6L764.0,406.4L765.2,404.2L762.7,400.6L761.7,396.4L760.1,395.6L755.2,396.5L750.1,395.6L747.3,394.6L744.0,390.4L744.6,387.3L748.0,386.6L751.6,387.7L758.7,388.5L765.3,386.6L767.5,384.9L767.7,382.1L762.1,376.2L765.3,372.1L770.3,369.6L766.4,365.5L763.5,361.0L762.6,357.8L758.3,351.2L757.3,348.1L763.6,344.1L770.7,342.5L784.6,342.5L797.5,340.5L802.4,341.2L805.7,340.3L814.1,335.0L817.8,334.6L828.4,335.4L833.3,332.0L835.3,327.4L836.9,326.4L840.9,327.2L852.8,331.7L856.4,330.6L859.1,327.4L861.2,322.4L868.8,311.9L871.3,307.4L869.9,308.2Z " data-id="PL.MZ" data-name="Masovian" id="PL.MZ"/>
utf-8utf-8<path d="M738.7,463.6L722.2,459.6L714.8,459.0L707.7,455.6L706.2,451.7L703.0,449.1L701.7,445.0L698.7,444.2L695.9,446.5L693.5,449.6L690.4,451.1L677.2,452.8L665.3,450.9L662.6,449.4L657.8,444.7L641.0,437.0L637.4,431.2L631.9,429.7L629.3,431.3L626.6,438.3L623.6,439.4L620.4,439.9L617.5,441.0L611.4,446.1L608.3,446.8L597.5,445.6L594.6,446.5L592.5,449.0L591.0,456.4L596.0,461.7L599.2,463.6L600.6,467.7L600.3,471.7L598.4,473.8L584.7,466.3L581.4,466.8L580.6,470.8L581.8,478.6L580.6,482.2L574.9,486.1L573.0,489.2L581.4,490.5L582.7,491.0L583.0,494.8L576.5,495.7L573.5,501.3L576.4,503.8L583.9,505.5L587.5,507.6L590.7,512.4L595.9,516.9L592.0,517.4L585.8,521.9L584.3,525.4L587.8,526.8L594.5,527.6L597.3,528.4L606.5,528.5L610.5,530.1L614.1,532.9L622.5,535.0L630.4,539.0L635.7,546.1L637.9,551.8L640.0,554.6L644.9,559.7L647.1,562.8L654.7,566.3L667.5,566.6L670.1,564.1L671.4,561.2L674.4,560.0L677.6,556.0L679.4,554.3L680.4,551.4L684.4,554.3L688.3,551.9L689.9,552.7L697.2,549.4L704.4,549.2L705.8,548.9L708.5,546.7L713.2,545.0L716.7,547.0L723.9,540.9L724.2,539.2L725.8,539.8L727.0,537.4L728.4,537.5L728.7,537.4L734.2,533.2L736.1,533.9L740.8,532.3L742.5,530.7L740.8,528.2L749.7,524.8L755.8,523.5L760.0,519.4L761.0,517.5L761.7,513.2L765.7,508.8L768.0,505.1L773.7,503.0L776.3,497.1L776.5,492.2L775.8,487.7L775.3,486.0L774.5,483.4L770.7,474.8L769.5,473.8L769.8,466.0L769.2,463.6L767.2,462.6L769.6,460.1L769.0,458.4L738.7,463.6Z " data-id="PL.SK" data-name="Świętokrzyskie" id="PL.SK"/>
utf-8utf-8<path d="M808.6,53.5L809.0,54.4L807.5,60.3L802.7,64.5L796.9,67.6L776.2,69.8L768.7,79.3L779.6,88.8L782.1,95.8L787.4,99.3L799.0,109.8L799.4,115.5L796.4,121.0L794.1,128.0L789.3,132.4L764.7,144.8L756.5,152.7L741.4,161.2L734.4,162.0L731.5,162.9L729.0,164.6L723.2,166.2L709.6,165.6L703.0,167.9L704.8,172.1L707.5,176.0L709.7,180.8L713.9,194.7L720.6,204.9L724.8,210.0L730.1,212.1L735.4,212.7L740.2,215.3L738.9,217.5L739.7,220.6L742.6,223.9L746.4,225.4L749.0,227.3L750.8,230.3L752.7,234.7L755.7,238.3L762.9,241.0L770.0,240.2L774.2,236.2L779.2,238.9L778.6,245.6L781.4,248.2L784.6,249.8L789.7,247.7L795.0,246.5L797.3,252.2L798.8,258.5L800.5,262.8L801.4,267.3L801.5,270.0L812.8,278.6L812.8,282.9L814.8,286.0L816.5,290.8L821.3,295.0L822.9,294.5L824.2,295.9L826.6,296.3L831.6,296.1L846.8,298.5L854.2,297.7L857.1,298.4L859.5,300.1L860.8,302.8L862.7,302.0L864.6,302.8L867.6,305.3L866.7,307.8L869.9,308.2L871.3,307.4L872.5,307.0L874.3,307.3L877.5,308.7L879.9,308.3L879.2,307.9L878.8,307.8L882.3,300.7L887.1,294.9L896.7,281.0L904.4,275.6L912.3,271.8L927.8,268.3L939.5,261.6L942.7,257.9L943.3,252.8L939.6,234.4L938.1,229.9L938.9,226.6L937.6,223.2L937.2,220.0L935.9,218.2L932.6,215.4L931.5,213.3L931.2,211.0L933.4,206.1L933.2,203.2L928.3,199.3L924.7,194.0L922.7,192.2L920.5,188.8L915.0,177.3L912.6,173.5L907.0,166.4L896.2,147.7L892.7,139.2L891.4,131.8L888.7,129.3L887.3,126.8L885.5,120.4L881.0,111.6L880.6,106.7L878.5,105.0L876.9,101.7L879.9,98.1L879.4,95.4L874.7,84.5L873.0,82.1L867.1,79.1L864.0,75.7L859.0,72.3L851.1,70.2L847.2,68.5L840.8,64.9L839.0,64.2L832.9,65.3L830.9,63.5L831.2,59.7L823.1,54.8L819.0,54.9L813.0,52.7L811.0,52.5L808.7,53.3L808.6,53.5Z " data-id="PL.PD" data-name="Podlachian" id="PL.PD"/>
utf-8utf-8<path d="M871.3,307.4L868.8,311.9L861.2,322.4L859.1,327.4L856.4,330.6L852.8,331.7L840.9,327.2L836.9,326.4L835.3,327.4L833.3,332.0L828.4,335.4L817.8,334.6L814.1,335.0L805.7,340.3L802.4,341.2L797.5,340.5L784.6,342.5L770.7,342.5L763.6,344.1L757.3,348.1L758.3,351.2L762.6,357.8L763.5,361.0L766.4,365.5L770.3,369.6L765.3,372.1L762.1,376.2L767.7,382.1L767.5,384.9L765.3,386.6L758.7,388.5L751.6,387.7L748.0,386.6L744.6,387.3L744.0,390.4L747.3,394.6L750.1,395.6L755.2,396.5L760.1,395.6L761.7,396.4L762.7,400.6L765.2,404.2L764.0,406.4L767.0,406.6L767.6,411.6L765.6,414.2L763.5,415.6L763.7,418.6L768.0,422.3L767.2,429.5L767.7,432.1L764.9,434.8L764.1,442.4L763.3,446.6L766.1,453.7L769.0,458.4L769.6,460.1L767.2,462.6L769.2,463.6L769.8,466.0L769.5,473.8L770.7,474.8L774.5,483.4L775.3,486.0L789.0,493.0L796.3,493.3L802.2,489.7L806.0,489.6L809.8,490.7L813.5,492.4L816.9,494.6L815.9,497.7L812.4,504.4L814.5,506.9L837.7,511.5L853.8,518.2L855.4,522.7L858.1,526.1L859.6,529.1L857.1,530.4L854.1,530.1L851.1,530.9L847.8,536.0L848.9,539.1L851.8,542.2L855.3,543.5L868.6,541.3L871.4,542.8L866.7,544.2L867.9,546.0L881.6,549.0L903.5,549.6L910.7,548.3L916.5,544.2L923.5,536.9L925.9,536.0L931.4,535.5L938.7,536.2L945.2,539.4L948.9,543.2L959.3,547.8L960.0,544.5L960.9,542.7L966.9,540.1L984.4,540.0L989.3,538.2L990.9,534.2L990.7,527.4L996.6,524.8L998.2,523.2L998.8,521.2L997.8,519.5L996.1,513.7L994.7,505.8L993.6,503.2L993.8,500.4L991.1,499.9L988.3,498.5L986.7,496.6L987.6,493.7L982.4,492.6L980.8,491.1L980.3,488.7L981.2,486.6L983.2,485.2L985.8,485.0L988.5,486.1L990.4,485.4L996.5,484.9L997.4,482.8L995.9,481.2L987.4,477.7L980.2,472.8L978.5,470.9L977.0,467.2L975.8,465.9L972.5,464.3L970.8,457.5L965.0,450.3L966.7,448.5L965.4,447.0L960.3,443.3L955.0,440.8L952.6,438.7L945.9,429.4L940.7,427.9L939.7,425.3L942.6,420.4L944.3,419.9L943.5,418.2L945.0,415.7L944.0,414.2L939.5,409.6L940.4,406.4L935.5,404.3L933.7,400.2L930.7,399.2L930.6,397.2L928.1,394.4L926.4,390.9L926.2,386.4L924.9,385.5L927.3,383.0L925.2,377.9L925.4,375.1L927.3,371.4L930.8,369.0L931.5,366.2L927.6,362.1L928.6,361.1L929.3,355.7L928.8,351.8L929.1,349.5L932.9,343.7L931.5,341.7L927.6,332.7L923.3,329.1L921.4,328.2L916.8,328.3L914.9,327.9L911.7,323.7L911.5,320.9L910.1,322.1L907.9,320.4L906.8,321.6L894.2,316.8L892.8,315.8L891.4,316.3L884.3,314.8L882.0,313.7L880.7,308.8L879.9,308.3L877.5,308.7L874.3,307.3L872.5,307.0L871.3,307.4Z " data-id="PL.LU" data-name="Lublin" id="PL.LU"/>
utf-8utf-8<path d="M959.3,547.8L948.9,543.2L945.2,539.4L938.7,536.2L931.4,535.5L925.9,536.0L923.5,536.9L916.5,544.2L910.7,548.3L903.5,549.6L881.6,549.0L867.9,546.0L866.7,544.2L871.4,542.8L868.6,541.3L855.3,543.5L851.8,542.2L848.9,539.1L847.8,536.0L851.1,530.9L854.1,530.1L857.1,530.4L859.6,529.1L858.1,526.1L855.4,522.7L853.8,518.2L837.7,511.5L814.5,506.9L812.4,504.4L815.9,497.7L816.9,494.6L813.5,492.4L809.8,490.7L806.0,489.6L802.2,489.7L796.3,493.3L789.0,493.0L775.3,486.0L775.8,487.7L776.5,492.2L776.3,497.1L773.7,503.0L768.0,505.1L765.7,508.8L761.7,513.2L761.0,517.5L760.0,519.4L755.8,523.5L749.7,524.8L740.8,528.2L742.5,530.7L740.8,532.3L736.1,533.9L734.2,533.2L728.7,537.4L728.4,537.5L728.5,547.8L726.3,553.7L723.2,558.7L723.5,565.6L728.3,584.2L728.1,589.7L728.6,594.5L732.9,599.6L735.7,599.8L739.6,601.4L741.3,604.9L732.3,611.1L731.0,614.1L734.1,616.3L745.1,620.0L751.5,625.2L755.9,633.8L756.8,638.2L756.7,642.4L759.6,651.5L764.2,660.1L765.7,659.6L772.6,658.9L775.5,659.9L777.5,661.3L783.6,663.3L787.4,667.5L789.0,668.5L792.7,665.3L794.7,665.0L800.5,668.6L806.0,670.8L809.8,673.5L813.1,677.3L814.8,681.6L816.0,685.6L818.9,687.3L826.0,688.4L829.4,690.1L835.9,691.4L836.1,693.9L841.7,695.6L847.1,695.4L849.2,696.1L854.7,700.2L858.4,701.1L866.1,701.4L869.7,702.8L871.5,701.1L873.5,701.6L877.6,705.0L880.2,706.4L892.3,707.0L894.4,709.1L901.8,712.5L902.7,710.5L899.8,706.4L900.2,701.2L898.9,700.0L892.3,696.8L889.1,693.7L884.5,690.8L883.3,692.2L882.6,690.3L883.8,687.6L886.0,677.6L883.3,666.3L882.0,663.4L879.6,661.5L877.2,657.8L876.0,652.5L872.7,646.3L874.5,641.5L880.9,633.3L882.7,628.3L888.2,625.4L893.1,616.5L897.2,613.9L898.4,609.5L902.0,606.0L911.0,593.4L914.4,589.9L917.7,587.6L920.1,583.9L939.8,564.2L951.3,556.3L958.1,549.6L959.2,548.0L959.3,547.8Z " data-id="PL.PK" data-name="Subcarpathian" id="PL.PK"/>
utf-8utf-8<path d="M403.2,453.8L392.1,457.1L386.0,456.8L380.5,453.6L379.7,450.6L378.1,447.9L374.8,446.6L371.5,446.8L368.4,448.3L365.1,449.0L361.8,448.8L358.7,449.6L356.5,451.8L351.9,462.1L350.9,468.3L349.7,472.0L346.8,473.7L342.7,478.4L339.8,484.9L332.7,494.5L326.8,505.1L325.3,512.0L322.2,516.9L316.4,517.6L311.7,520.8L306.0,534.9L305.7,536.3L307.2,537.0L309.5,536.8L319.7,539.1L336.3,548.4L338.6,548.9L343.2,548.8L345.2,549.5L345.1,553.3L347.7,556.9L348.5,554.6L350.6,554.5L352.9,555.9L354.0,558.2L358.6,555.4L363.2,555.0L372.0,556.3L375.8,554.7L379.6,549.3L381.3,549.8L383.1,555.8L383.1,556.9L386.3,561.3L385.5,563.1L377.2,567.4L372.6,567.5L371.2,570.1L376.4,575.0L378.0,575.5L382.1,575.1L386.2,576.4L385.2,578.1L391.4,586.2L398.2,591.3L401.8,591.9L405.2,591.1L407.9,589.0L413.5,588.5L416.6,587.7L413.9,585.1L413.2,582.3L414.8,582.6L414.7,580.6L419.6,571.4L431.7,569.3L437.1,565.7L446.2,562.1L446.8,558.5L446.3,552.2L443.0,536.4L443.6,533.9L447.7,532.8L447.7,530.6L446.4,528.4L447.4,525.6L450.2,525.1L464.3,525.2L462.7,520.8L459.3,518.1L456.0,516.1L453.1,513.3L450.7,508.6L452.5,503.6L453.4,495.9L455.5,491.6L462.7,487.6L462.9,483.3L461.4,481.0L460.5,478.2L462.1,475.2L464.4,465.8L456.7,461.1L454.0,457.6L451.2,455.1L448.2,457.7L441.3,457.9L419.3,453.4L416.2,451.6L413.7,448.5L403.2,453.8Z " data-id="PL.OP" data-name="Opole" id="PL.OP"/>
utf-8utf-8<path d="M727.0,537.4L725.8,539.8L724.2,539.2L723.9,540.9L716.7,547.0L713.2,545.0L708.5,546.7L705.8,548.9L704.4,549.2L697.2,549.4L689.9,552.7L688.3,551.9L684.4,554.3L680.4,551.4L679.4,554.3L677.6,556.0L674.4,560.0L671.4,561.2L670.1,564.1L667.5,566.6L654.7,566.3L647.1,562.8L644.9,559.7L640.0,554.6L637.9,551.8L635.7,546.1L630.4,539.0L622.5,535.0L614.1,532.9L610.5,530.1L606.5,528.5L597.3,528.4L598.3,531.1L598.8,533.3L587.2,539.5L584.2,539.9L578.7,539.6L573.5,540.2L565.5,545.7L560.5,546.1L554.9,543.6L552.6,546.8L550.4,551.2L546.7,556.0L540.1,555.3L537.3,557.2L542.9,561.4L548.0,566.5L527.2,587.6L525.3,590.2L523.5,593.8L522.9,597.9L525.0,600.0L527.7,600.2L530.0,602.4L530.6,606.5L534.0,610.8L539.1,612.4L541.4,615.4L543.3,619.1L546.7,621.6L550.5,622.9L557.2,623.9L557.2,627.1L555.9,629.9L555.3,632.5L556.8,634.7L559.2,636.0L559.9,637.4L560.7,637.7L565.9,642.0L567.3,644.5L569.7,650.7L574.1,656.6L580.1,657.1L579.9,660.5L585.7,663.6L592.9,662.5L595.1,665.4L595.8,667.5L596.9,673.9L596.6,675.8L598.1,676.6L597.7,679.6L594.5,684.6L595.7,687.7L598.2,688.4L602.8,688.7L604.9,688.0L609.5,684.1L612.6,683.9L615.5,685.0L621.0,689.0L624.3,690.3L626.1,689.1L626.8,686.0L626.9,681.6L630.4,674.1L633.3,673.9L637.5,670.3L645.0,669.8L646.6,663.9L647.6,663.2L652.9,664.5L657.9,664.3L657.6,662.2L659.1,661.9L667.8,665.4L670.0,665.8L673.2,664.3L674.6,662.7L683.8,662.1L693.4,670.7L695.1,671.7L700.5,672.0L707.8,675.8L710.0,675.1L711.9,673.6L714.7,669.7L716.5,668.1L721.9,667.5L722.5,666.4L721.1,664.5L717.4,662.2L719.2,660.4L724.5,659.2L726.1,659.3L731.1,662.4L733.1,662.1L734.7,660.8L737.3,657.1L746.1,658.8L755.9,661.0L761.0,660.3L762.5,660.7L764.2,660.1L759.6,651.5L756.7,642.4L756.8,638.2L755.9,633.8L751.5,625.2L745.1,620.0L734.1,616.3L731.0,614.1L732.3,611.1L741.3,604.9L739.6,601.4L735.7,599.8L732.9,599.6L728.6,594.5L728.1,589.7L728.3,584.2L723.5,565.6L723.2,558.7L726.3,553.7L728.5,547.8L728.4,537.5L727.0,537.4Z " data-id="PL.MA" data-name="Lesser Poland" id="PL.MA"/>
utf-8</g>
</svg>
