<?xml version="1.0" encoding="UTF-8" standalone="no"?>
<svg
   xmlns:dc="http://purl.org/dc/elements/1.1/"
   xmlns:cc="http://creativecommons.org/ns#"
   xmlns:rdf="http://www.w3.org/1999/02/22-rdf-syntax-ns#"
   xmlns:svg="http://www.w3.org/2000/svg"
   xmlns="http://www.w3.org/2000/svg"
   xmlns:sodipodi="http://sodipodi.sourceforge.net/DTD/sodipodi-0.dtd"
   xmlns:inkscape="http://www.inkscape.org/namespaces/inkscape"
   enable_background="new 0 0 1000 587"
   height="585.90002"
   pretty_print="True"
   style="fill:none;stroke:#000000;stroke-linejoin:round"
   version="1.1"
   viewBox="0 0 999.20001 585.90002"
   width="999.20001"
   id="svg3207"
   inkscape:version="0.48.4 r9939"
   sodipodi:docname="pt.svg"><sodipodi:namedview
   pagecolor="#ffffff"
   bordercolor="#666666"
   borderopacity="1"
   objecttolerance="10"
   gridtolerance="10"
   guidetolerance="10"
   inkscape:pageopacity="0"
   inkscape:pageshadow="2"
   inkscape:window-width="640"
   inkscape:window-height="480"
   id="namedview3243"
   showgrid="false"
   inkscape:zoom="0.316"
   inkscape:cx="499.6"
   inkscape:cy="292.89998"
   inkscape:window-x="0"
   inkscape:window-y="0"
   inkscape:window-maximized="0"
   inkscape:current-layer="svg3207" />


utf-8<defs
   id="defs3209">
utf-8utf-8<style
   type="text/css"
   id="style3211">path { fill-rule: evenodd; }utf-8utf-8</style>


utf-8</defs>


utf-8<metadata
   id="metadata3213">
utf-8utf-8<views
   id="views3215">
utf-8utf-8utf-8<view
   h="587.898420265"
   padding="0"
   w="1000"
   id="view3217">
utf-8utf-8utf-8utf-8<proj
   flip="auto"
   id="robinson"
   lon0="-8.46485359663" />


utf-8utf-8utf-8utf-8<bbox
   h="160.03"
   w="272.66"
   x="-356.69"
   y="-707.21"
   id="bbox3220" />


utf-8utf-8utf-8</view>


utf-8utf-8</views>


utf-8<rdf:RDF>
  <cc:Work
     rdf:about="">
    <dc:format>image/svg+xml</dc:format>
    <dc:type
       rdf:resource="http://purl.org/dc/dcmitype/StillImage" />
  </cc:Work>
</rdf:RDF>
</metadata>


utf-8<g
   class=""
   id="provinces"
   transform="translate(-0.4,-0.50000156)">
utf-8utf-8<path
   d="m 858.1,204.8 -0.4,-0.1 -0.6,0.2 -0.2,0.1 -5.5,4.6 -10.1,2.1 3.2,7.1 -0.5,4.9 -2.3,3 1.7,0.7 2.7,-1.1 5,-0.6 4.8,-4 2.5,-0.5 5.8,1.9 -0.1,-3.2 1.9,-1.8 0.1,5.5 0.7,1.4 6.5,2 -2.6,0.8 -5,-1.3 -2.1,0.1 -5.2,-3.8 -0.5,0.9 4.5,4.6 1.3,2.4 0.6,10.8 -2.3,7.7 -2.8,5.6 0.6,2.5 1.7,0.3 1,5.2 -0.3,1.1 5.2,3.2 0.7,1.1 4.4,-0.1 2.1,-4.1 6.4,-2.6 3.7,0.5 1.5,0.8 1.6,-3.9 0.4,-2.7 -0.8,-3.8 -4.1,-2.6 -0.4,-1.3 3.9,-4.7 1.2,0.6 1.4,-2.4 1.8,0 1,-1.4 4.4,-1.3 0,-3.3 -1.1,-2.6 -1.9,-1.4 -2.3,-0.5 -3.1,-2.2 1.1,-2.5 -4.2,-7.1 -6.8,1 -6.3,-1.7 1.3,-5.7 4.3,-2.9 1.5,-4.5 -2.1,-0.4 -1.3,-0.2 -3.5,-2.8 -2.9,-1.2 -3.2,6 -7,-0.1 -1.1,-1.6 0.1,-0.7 z"
   data-id="PT.SE"
   data-name="Setúbal"
   id="PT.SE"
   inkscape:connector-curvature="0" />


utf-8utf-8<path
   d="m 38.4,317.4 -2.3,-3.2 -5.2,0.4 -0.4,4.4 2.6,-0.4 5.4,0.2 -0.1,-1.4 z M 9.8,262.9 8.9,260.4 2.1,259 l -1.2,3.2 1.5,2.4 5.6,4.5 4.5,0.2 5.4,2.1 0.9,-0.4 5.9,-0.3 2.3,-0.6 6.8,-0.8 2,-0.9 1.4,-2 0,-2.2 -1,-1.9 -1.9,-0.7 -7.2,0.1 -6.1,2 -2,-1.3 -9.2,0.5 z"
   data-id="PT.AC"
   data-name="Azores"
   id="PT.AC"
   inkscape:connector-curvature="0" />


utf-8utf-8<path
   d="m 435,585.9 4.7,-0.9 1.4,-2.4 3.7,-3.9 -4.8,-1.3 -5.5,-3.7 -7.8,1.6 -3.2,-1.5 -2.9,-2.1 -3.4,3.6 1.8,3.9 3.5,2.8 8.4,3.6 4.1,0.3 z m 31.4,-28.8 -2.4,1.3 -0.7,1.9 -1.3,0.8 1.7,0.7 2.1,-1.9 2.6,0.3 -0.6,-3 -1.4,-0.1 z"
   data-id="PT.MA"
   data-name="Madeira"
   id="PT.MA"
   inkscape:connector-curvature="0" />


utf-8utf-8<path
   d="m 890.1,105.1 1.3,-5 4,-1.8 -2.3,-4.4 0.7,-1.2 -0.2,-4.3 -1.4,-2.9 4.6,-5.9 -0.5,-1.9 6.2,0.2 0.8,-1.2 1.2,-7.3 -0.4,-1 -2,1.7 -4.2,-1.7 -0.2,-2.6 -2.9,-1.8 -0.3,0.7 -2.6,1.7 -2.3,0.2 -0.4,1.7 -2.4,-2.6 -2.4,2.3 -1.5,-0.9 -6.4,0.9 -0.1,1.4 -5.5,20.5 1.3,-2 2.8,-8.3 -0.5,2.5 0.7,2.1 1.1,0.5 3.7,-1 -2.5,1.5 -2.7,3.9 -0.7,-0.7 -3,3.2 0.1,-1.3 -2.3,6.7 -0.2,0.8 5.4,5.3 1.7,0.2 1.8,-3.1 1.8,1.2 -0.2,3.1 2.8,-0.4 1.4,2.1 -1.6,5.7 2.9,0.3 3.4,-3.6 1.7,-1.2 0.4,-0.5 -0.1,-1.8 z"
   data-id="PT.AV"
   data-name="Aveiro"
   id="PT.AV"
   inkscape:connector-curvature="0" />


utf-8utf-8<path
   d="m 830.5,165.1 -0.3,-0.1 -0.2,0.6 0.5,-0.5 z m 26.4,-26 -4.3,10 -1,5.1 -2.5,5 -2.5,1.4 -1.6,4 0.3,0.8 -2.7,-0.2 -4.8,3.1 -2.2,-0.6 2.1,3.8 0.2,1.5 2.4,-0.1 3.9,-1.2 1.7,4.9 0.8,0.7 4.5,-5.1 3.1,0 1.4,0.3 -0.1,-2 0,-1.8 1.1,-1.8 1.9,-1.1 1.7,-3.1 2.2,-1.2 6.5,-0.5 0,-2.8 1.7,0 1.7,-2 -1,-4.7 2.6,-2.3 -1.2,-2.1 -0.2,-2.8 2.9,-1.8 2.4,-0.4 5.1,-2.6 1.2,5.8 4.8,-1.6 1.5,-1.8 2,0.2 -0.2,-0.7 3.6,-3 3,-1.8 0.5,-0.4 1,-1.8 0.2,-0.8 0.9,-1.9 -3.1,-7.4 -1.6,1.9 -1.5,-0.5 -3,2.9 1.1,1.9 -6.5,3.2 0.7,-1.5 -0.7,-2 -2.5,-1.4 -4.3,3.5 -1.1,-4.3 -5.9,-0.1 -4.5,-0.6 -4,0.7 -2.7,-1.3 -5,12.4 z"
   data-id="PT.LE"
   data-name="Leiria"
   id="PT.LE"
   inkscape:connector-curvature="0" />


utf-8utf-8<path
   d="m 869.7,32 1.7,0.1 7.4,-2.1 4.2,1.3 0.9,-1.4 1.8,-4.9 4.2,-1.6 6.4,-0.7 5.6,-2.4 0.2,-1.4 -2.7,-3 2.7,-4.7 4.3,-3.4 0.1,-1.1 -2,-1.9 -2.7,0.7 -0.5,-4 -2.3,-0.5 -4.8,2.1 -13.9,3 -6.4,4.9 -0.6,2.2 -5.4,4.4 -0.9,7.3 0.9,1.9 2.6,0.4 5.6,-1.5 -2.4,1.5 -4.2,0.9 0.2,3.1 0,0.8 z"
   data-id="PT.VC"
   data-name="Viana do Castelo"
   id="PT.VC"
   inkscape:connector-curvature="0" />


utf-8utf-8<path
   d="m 895.5,233.3 1.1,2.6 0,3.3 -4.4,1.3 -1,1.4 -1.8,0 -1.4,2.4 -1.2,-0.6 -3.9,4.7 0.4,1.3 4.1,2.6 0.8,3.8 -0.4,2.7 -1.6,3.9 -1.5,-0.8 -3.7,-0.5 -6.4,2.6 -2.1,4.1 -4.4,0.1 -0.7,-1.1 -5.2,-3.2 -0.4,2.2 1.1,4.3 -0.8,1.6 -1.6,6 1.5,4.1 -0.6,4.5 -0.2,0.9 4.3,3.1 7.4,-0.4 3.2,1.6 2.2,0.3 2.7,-2.4 6.8,-0.9 1.9,3.1 3.5,2.6 5.8,0.3 13.9,-8.9 4,-1.6 2.7,0 7.1,-1.7 0,-0.1 2.7,-7.7 0.5,-3 1.7,-3.1 4.7,-3.9 3.6,-8.5 -0.2,-1.8 2.5,-1 1.9,0.3 2.8,-2.7 5.4,0.6 4.2,-10.8 -0.9,-0.6 -7,2 -0.7,-0.6 -2.4,0 -4.3,-5.8 -1.7,-3.5 -5.7,2 -0.4,1.5 -5.6,5 -2.3,-0.1 -13.1,-3.3 -4.2,-1.9 -1.1,-1.3 -2.5,-0.8 -1.1,0.6 -7.8,-1.3 -0.2,0.5 z"
   data-id="PT.BE"
   data-name="Beja"
   id="PT.BE"
   inkscape:connector-curvature="0" />


utf-8utf-8<path
   d="m 895.1,190.9 -0.5,0.8 2.3,10.5 1.1,0.6 -2.1,1.4 -1.8,-2.2 -4.1,-2.4 -2.4,0.9 -1.5,-0.4 -4.4,2.9 -2.2,0.5 -2.5,1.9 2.1,0.4 -1.5,4.5 -4.3,2.9 -1.3,5.7 6.3,1.7 6.8,-1 4.2,7.1 -1.1,2.5 3.1,2.2 2.3,0.5 1.9,1.4 0.2,-0.5 7.8,1.3 1.1,-0.6 2.5,0.8 1.1,1.3 4.2,1.9 13.1,3.3 2.3,0.1 5.6,-5 0.4,-1.5 5.7,-2 1.7,3.5 4.3,5.8 2.4,0 -0.5,-0.5 -2.1,-5.3 -7.1,-9.2 -1.3,-4.3 1.5,-3.9 2.5,-3.8 -0.9,-3.8 1.1,-3.6 2.3,-1.8 -1.6,-4.8 -3.7,2.4 -1.8,0.2 -3,-6.5 -1.1,-1 -0.5,-2.7 -4.1,-1.6 0.5,1.2 -3.3,1.5 -2.2,1.9 -3.8,-0.8 -1.7,1.4 -4.2,0.5 -5.2,-4.2 -2.4,1.5 -1.2,-0.1 -0.3,-2.3 -3.1,-1.1 -0.7,1.4 -0.2,-2.8 -3.7,0.5 -1,0.8 z"
   data-id="PT.EV"
   data-name="Évora"
   id="PT.EV"
   inkscape:connector-curvature="0" />


utf-8utf-8<path
   d="m 906,316.7 -0.2,-0.4 0,0.7 0.2,-0.3 z m 2.3,0.1 -4.9,0.5 1.2,0.4 3.7,-0.9 z m 18.4,-34.2 -7.1,1.7 -2.7,0 -4,1.6 -13.9,8.9 -5.8,-0.3 -3.5,-2.6 -1.9,-3.1 -6.8,0.9 -2.7,2.4 -2.2,-0.3 -3.2,-1.6 -7.4,0.4 -4.3,-3.1 -0.5,2 -1.3,3.6 -1.5,1.5 -0.1,3.7 -0.8,2.7 -2.2,2.1 0.4,1.9 -4.1,7.5 2.2,2.6 3.5,-2.5 0.9,0.4 8.9,-2.6 1.6,-1.7 3.8,-0.9 2.2,0.4 4.9,2.2 3.8,-0.9 3.6,1.2 4.1,-0.5 5.3,1.1 7.4,4.1 4.5,-0.3 2.6,0.6 1.7,-1.5 7.8,-5.2 0.4,-0.5 10.4,-3.9 -0.7,-13.2 -2.9,-8.2 -0.4,-0.6 z"
   data-id="PT.FA"
   data-name="Faro"
   id="PT.FA"
   inkscape:connector-curvature="0" />


utf-8utf-8<path
   d="m 851.6,201.3 1.1,-1.9 -1.4,0.7 0.3,1.2 z m 1.9,-3.8 0.3,-1.2 -0.2,-0.3 -0.1,1.5 z m 11.9,-10.9 -1.9,1.4 -4.1,0.8 -5.5,7.6 1.2,3.9 2,4.2 0,0.4 0.6,-0.2 0.4,0.1 -0.3,-1.5 0.7,-5 1.9,-4.6 5,-6.5 0,-0.6 0,0 z m -27.2,-12.1 -4.5,11.6 -0.4,9.1 -1.8,5.1 -2.2,2.5 0,6.3 6.6,1.1 1.9,1.2 1.9,-1.7 3.3,0.3 5.4,-1.3 0.8,-1.5 2.3,-8.2 2.9,-5.4 4.3,-5.6 4.4,-0.5 2.2,-1.6 -5.3,-5.5 4.4,-1.8 -2.8,-3.3 -2.1,0.6 -3.4,-1 0.1,-0.9 -0.5,-1.5 -1.4,-0.3 -3.1,0 -4.5,5.1 -0.8,-0.7 -1.7,-4.9 -3.9,1.2 -2.4,0.1 0.3,1.5 z"
   data-id="PT.LI"
   data-name="Lisboa"
   id="PT.LI"
   inkscape:connector-curvature="0" />


utf-8utf-8<path
   d="m 915.8,156.7 -1.1,0.6 -1.9,1.5 -2.7,-1.7 -2.5,0.8 -2.3,4.2 3,3.3 -1,1.5 -2.9,1.9 -1.1,2.3 -2.8,2.5 -2.1,0.5 -0.6,1.3 -4.3,3.6 -2.9,1.9 -2.2,2.9 0,1 4.4,5.4 2.3,0.7 1,-0.8 3.7,-0.5 0.2,2.8 0.7,-1.4 3.1,1.1 0.3,2.3 1.2,0.1 2.4,-1.5 5.2,4.2 4.2,-0.5 1.7,-1.4 3.8,0.8 2.2,-1.9 3.3,-1.5 -0.5,-1.2 4.1,1.6 0.5,2.7 1.1,1 3,6.5 1.8,-0.2 3.7,-2.4 1.6,4.8 0.8,-0.6 3.1,-2.7 3.1,-0.9 1.7,-1.3 1.9,-5.5 2.5,-4.9 -0.5,-2.7 -2.6,-2.6 -1.3,-0.4 -3.9,1 -1.2,-4.4 -3.7,-1.6 -0.7,-0.9 0.5,-3.7 -2.5,-2.9 -1.4,-2.8 0.7,-6.4 -3.9,-1.6 -5.6,-6.2 -1.5,-4.2 -0.4,-0.9 -1.5,0.2 -2.7,2 -3.7,-0.1 -1.5,2.4 -2.5,2.1 -0.8,0.8 z"
   data-id="PT.PA"
   data-name="Portalegre"
   id="PT.PA"
   inkscape:connector-curvature="0" />


utf-8utf-8<path
   d="m 890.5,141.9 -1.5,1.8 -4.8,1.6 -1.2,-5.8 -5.1,2.6 -2.4,0.4 -2.9,1.8 0.2,2.8 1.2,2.1 -2.6,2.3 1,4.7 -1.7,2 -1.7,0 0,2.8 -6.5,0.5 -2.2,1.2 -1.7,3.1 -1.9,1.1 -1.1,1.8 0,1.8 0.1,2 0.5,1.5 -0.1,0.9 3.4,1 2.1,-0.6 2.8,3.3 -4.4,1.8 5.3,5.5 0,0 1.4,-0.9 -0.5,0.8 -0.8,0.8 0,0.6 -5,6.5 -1.9,4.6 -0.7,5 0.3,1.5 -0.1,0.7 1.1,1.6 7,0.1 3.2,-6 2.9,1.2 3.5,2.8 1.3,0.2 2.5,-1.9 2.2,-0.5 4.4,-2.9 1.5,0.4 2.4,-0.9 4.1,2.4 1.8,2.2 2.1,-1.4 -1.1,-0.6 -2.3,-10.5 0.5,-0.8 -2.3,-0.7 -4.4,-5.4 0,-1 2.2,-2.9 2.9,-1.9 4.3,-3.6 0.6,-1.3 2.1,-0.5 2.8,-2.5 1.1,-2.3 2.9,-1.9 1,-1.5 -3,-3.3 2.3,-4.2 2.5,-0.8 2.7,1.7 1.9,-1.5 1.1,-0.6 -0.4,-0.6 -2.5,-4.3 -4.2,-1.8 -0.3,-4.1 -4.3,-0.2 -1,6.9 -1.1,0.3 -4.1,-0.7 -5.1,-9.2 -0.3,-0.9 -2,-0.2 z"
   data-id="PT.SA"
   data-name="Santarém"
   id="PT.SA"
   inkscape:connector-curvature="0" />


utf-8utf-8<path
   d="m 911.5,45.7 1.3,-3.8 4.5,-4.4 2,-2.7 -1.4,-2.6 -3.1,1.4 -4.4,-1.2 0.3,-4.6 -1.9,-0.9 -2.9,0.5 2.4,-7.3 -2.2,0.6 -4.3,-0.3 0.1,-0.1 -5.6,2.4 -6.4,0.7 -4.2,1.6 -1.8,4.9 -0.9,1.4 -4.2,-1.3 -7.4,2.1 -1.7,-0.1 0,0.3 1.3,7.2 0.6,1.4 0,0.1 5.3,1.4 1.5,1.4 2,4.1 2.8,0 14,-2.1 1.8,-1.7 2.4,0.9 2.8,3 4.2,1.5 2.4,-2.1 0.2,-0.6 0.5,-1.1 z"
   data-id="PT.BR"
   data-name="Braga"
   id="PT.BR"
   inkscape:connector-curvature="0" />


utf-8utf-8<path
   d="m 950,15.8 0.7,6 0.9,1.1 -2.5,4.9 -2,7.3 -2.5,5.4 -3,2 -0.1,2.9 1,2.5 1.1,0.7 -3.7,3.6 -1.9,3 -0.3,0.8 0.7,0 0.7,0.5 3.7,3 1.3,-0.1 3.9,-0.3 3,-0.2 2.5,-1.4 0.9,2.6 5.1,5.7 2.9,0.3 1.1,-0.5 3,0.3 4.1,-3.4 1.2,-3.8 1.8,-1.4 2.6,-3.8 4.7,-0.8 3.4,-1.4 5.9,-5 0.2,-1.1 2.8,-1.4 3.5,-5.8 2.4,-3.2 -3.1,-3.5 -4.6,-2.1 -4,-0.7 -4.7,1 -1.7,-4.8 0.9,-1.6 2,-6 -2.5,-1 0.5,-2.5 -2.1,-2.2 -0.7,1.3 -6.6,0.2 -1.8,-2.5 -1.5,-0.3 -4.6,2.7 -3.7,-1.6 -2.9,1.4 -4.6,-2.7 -0.7,0.1 -2.1,5 -0.6,0.8 z"
   data-id="PT.BA"
   data-name="Bragança"
   id="PT.BA"
   inkscape:connector-curvature="0" />


utf-8utf-8<path
   d="m 918.3,115.4 -1.2,2.4 1.6,3.1 1.4,0.9 0,2 -1.5,1 -1.3,-0.5 -1.6,2 -3.4,0.4 -3.6,3.8 -5.4,1.7 -2,1.4 -0.9,0.8 -1,1.8 -0.5,0.4 -3,1.8 -3.6,3 0.2,0.7 0.3,0.9 5.1,9.2 4.1,0.7 1.1,-0.3 1,-6.9 4.3,0.2 0.3,4.1 4.2,1.8 2.5,4.3 0.4,0.6 0.8,-0.8 2.5,-2.1 1.5,-2.4 3.7,0.1 2.7,-2 1.5,-0.2 -0.1,-0.2 10.8,0.5 8,-0.2 7.4,-0.8 1.3,-1.6 4.8,-11.5 1.1,-4.5 1.1,-2 -3.6,-5.7 -4.2,-4.8 1.4,-2.7 3.1,-1.7 0.7,-0.1 -3.6,-1.9 -0.8,0.2 -4.5,-1.7 -0.7,1.4 -5.6,1.3 -1.5,-5.1 0.5,-3.5 -2.7,0 -1.1,1.1 -3.4,0.1 -1.9,-1.5 -4.6,5.4 -2.9,-0.1 -3.5,3.2 -4.7,2.2 -1,0.3 z"
   data-id="PT.CB"
   data-name="Castelo Branco"
   id="PT.CB"
   inkscape:connector-curvature="0" />


utf-8utf-8<path
   d="m 865.3,120.6 0.5,1.4 0.6,0.1 -1.1,-1.5 z m 2.8,-19.9 -3.8,12.1 -2.3,4.5 1.3,2.8 2.3,0.2 -1.8,1.7 -1.9,4.7 2.7,1.3 4,-0.7 4.5,0.6 5.9,0.1 1.1,4.3 4.3,-3.5 2.5,1.4 0.7,2 -0.7,1.5 6.5,-3.2 -1.1,-1.9 3,-2.9 1.5,0.5 1.6,-1.9 3.1,7.4 -0.9,1.9 -0.2,0.8 0.9,-0.8 2,-1.4 5.4,-1.7 3.6,-3.8 3.4,-0.4 1.6,-2 1.3,0.5 1.5,-1 0,-2 -1.4,-0.9 -1.6,-3.1 1.2,-2.4 -0.8,-1 -1.3,-0.7 1.7,-3.3 1.2,-0.7 -1.1,-1.8 -0.2,-6.1 -0.6,-1.1 -0.5,-1.4 -1,0.3 -2.9,2.1 -1.2,1.7 -5.9,3 -3.9,2.6 -11,-1.8 -0.6,-0.3 -0.4,0.5 -1.7,1.2 -3.4,3.6 -2.9,-0.3 1.6,-5.7 -1.4,-2.1 -2.8,0.4 0.2,-3.1 -1.8,-1.2 -1.8,3.1 -1.7,-0.2 -5.4,-5.3 -0.6,2.9 z"
   data-id="PT.CO"
   data-name="Coimbra"
   id="PT.CO"
   inkscape:connector-curvature="0" />


utf-8utf-8<path
   d="m 944.1,59.4 -1.4,3.9 -1.1,9.5 -1.6,1.3 -2.5,-0.1 0.5,2.8 -1.3,2.4 -1.3,0.7 -2.2,-2.4 -2.5,-0.8 -1.2,0.9 -1.9,4.2 1.6,1.4 -0.3,2.2 2.4,2.6 -2.3,5.6 0.1,1.2 -11.9,4.1 -0.5,0.4 0.5,1.4 0.6,1.1 0.2,6.1 1.1,1.8 -1.2,0.7 -1.7,3.3 1.3,0.7 0.8,1 1,-0.3 4.7,-2.2 3.5,-3.2 2.9,0.1 4.6,-5.4 1.9,1.5 3.4,-0.1 1.1,-1.1 2.7,0 -0.5,3.5 1.5,5.1 5.6,-1.3 0.7,-1.4 4.5,1.7 0.8,-0.2 3.6,1.9 0.3,0 6.3,-4.6 0.9,-1.5 -2.7,-3.2 -0.3,-2 2.4,-4.4 -1.8,-4.1 1.5,-7.8 -0.3,-7.8 0.8,-0.2 -5.8,-10.4 0.8,-1.9 0,0 -2.9,-0.3 -5.1,-5.7 -0.9,-2.6 -2.5,1.4 -3,0.2 -3.9,0.3 z"
   data-id="PT.GU"
   data-name="Guarda"
   id="PT.GU"
   inkscape:connector-curvature="0" />


utf-8utf-8<path
   d="m 910.8,47.4 -2.4,2.1 -4.2,-1.5 -2.8,-3 -2.4,-0.9 -1.8,1.7 -14,2.1 -2.8,0 -2,-4.1 -1.5,-1.4 -5.3,-1.4 -0.6,1.9 0.2,3.3 1.5,3.1 0.2,4.7 1.5,3.8 1.8,3.2 0.3,6.2 0,0.8 6.4,-0.9 1.5,0.9 2.4,-2.3 2.4,2.6 0.4,-1.7 2.3,-0.2 2.6,-1.7 0.3,-0.7 3.3,-1.2 1.7,-0.4 12.5,-1.7 2.2,-1.3 0.3,-1.4 0.1,-4.3 -2.8,-4.4 -0.3,-1.6 -0.8,-0.9 -0.2,0.6 z"
   data-id="PT.PO"
   data-name="Porto"
   id="PT.PO"
   inkscape:connector-curvature="0" />


utf-8utf-8<path
   d="m 942.8,59.5 -3.7,-3 -0.7,-0.5 -0.7,0 -6,2 -10.3,1.8 -3.2,-2 -1,0.1 -2.7,1.5 -2.2,1.3 -12.5,1.7 -1.7,0.4 -3.3,1.2 2.9,1.8 0.2,2.6 4.2,1.7 2,-1.7 0.4,1 -1.2,7.3 -0.8,1.2 -6.2,-0.2 0.5,1.9 -4.6,5.9 1.4,2.9 0.2,4.3 -0.7,1.2 2.3,4.4 -4,1.8 -1.3,5 0.1,1.8 0.6,0.3 11,1.8 3.9,-2.6 5.9,-3 1.2,-1.7 2.9,-2.1 1,-0.3 0.5,-0.4 11.9,-4.1 -0.1,-1.2 2.3,-5.6 -2.4,-2.6 0.3,-2.2 -1.6,-1.4 1.9,-4.2 1.2,-0.9 2.5,0.8 2.2,2.4 1.3,-0.7 1.3,-2.4 -0.5,-2.8 2.5,0.1 1.6,-1.3 1.1,-9.5 1.4,-3.9 -1.3,0.1 z"
   data-id="PT.VI"
   data-name="Viseu"
   id="PT.VI"
   inkscape:connector-curvature="0" />


utf-8utf-8<path
   d="m 949.6,16.4 -5.3,2 -6.2,1.4 -3.7,-2.3 -0.4,1.2 -4.5,0.5 0.8,-2.5 -2.7,-0.1 -2.9,-1.4 -7.2,2.4 -1.5,0 -0.4,-3.3 -2,2.8 -1.7,-0.1 -3.6,3.1 0,0 -2.4,7.3 2.9,-0.5 1.9,0.9 -0.3,4.6 4.4,1.2 3.1,-1.4 1.4,2.6 -2,2.7 -4.5,4.4 -1.3,3.8 -0.5,1.1 0.8,0.9 0.3,1.6 2.8,4.4 -0.1,4.3 -0.3,1.4 2.7,-1.5 1,-0.1 3.2,2 10.3,-1.8 6,-2 0.3,-0.8 1.9,-3 3.7,-3.6 -1.1,-0.7 -1,-2.5 0.1,-2.9 3,-2 2.5,-5.4 2,-7.3 2.5,-4.9 -0.9,-1.1 -0.7,-6 -0.4,0.6 z"
   data-id="PT.VR"
   data-name="Vila Real"
   id="PT.VR"
   inkscape:connector-curvature="0" />


utf-8</g>
</svg>
