<?xml version="1.0" ?>
<!DOCTYPE svg
  PUBLIC '-//W3C//DTD SVG 1.1//EN'
  'http://www.w3.org/Graphics/SVG/1.1/DTD/svg11.dtd'>
<svg enable_background="new 0 0 1000 1118" height="1118px" pretty_print="True" style="stroke-linejoin: round; stroke:#000; fill: none;" version="1.1" viewBox="0 0 1000 1118" width="1000px" xmlns="http://www.w3.org/2000/svg" xmlns:xlink="http://www.w3.org/1999/xlink">
utf-8<defs>
utf-8utf-8<style type="text/css">
<![CDATA[path { fill-rule: evenodd; }]]>utf-8utf-8</style>
utf-8</defs>
utf-8<metadata>
utf-8utf-8<views>
utf-8utf-8utf-8<view h="1118.82575207" padding="0" w="1000">
utf-8utf-8utf-8utf-8<proj flip="auto" id="robinson" lon0="-57.5973996537"/>
utf-8utf-8utf-8utf-8<bbox h="139.22" w="124.55" x="-907.94" y="323.41"/>
utf-8utf-8utf-8</view>
utf-8utf-8</views>
utf-8</metadata>
utf-8<g class="" id="provinces">
utf-8utf-8<path d="M629.7,800.1L628.4,800.8L625.2,802.0L620.3,807.5L620.4,807.6L625.0,817.0L625.2,818.7L630.7,822.8L635.6,816.8L636.1,811.4L635.0,806.4L632.9,803.0L629.7,800.1Z " data-id="PY.AS" data-name="Asunción" id="PY.AS"/>
utf-8utf-8<path d="M57.4,104.7L59.1,106.2L70.6,113.7L294.8,183.6L303.2,187.3L306.5,189.8L305.0,200.3L305.9,202.5L308.6,205.9L311.0,210.4L312.1,219.4L315.5,226.1L322.6,235.5L324.8,239.6L332.7,274.2L332.4,278.8L320.4,287.5L318.8,289.0L316.3,293.6L310.4,344.1L309.3,352.5L312.3,364.8L314.4,370.8L325.1,370.5L331.4,369.4L373.6,371.1L377.1,372.3L383.1,376.0L396.9,383.8L406.2,386.7L424.0,386.0L449.1,388.2L455.0,387.5L510.0,391.5L513.1,392.4L514.8,393.7L516.3,400.1L519.1,402.7L561.0,421.8L560.5,420.3L563.1,417.1L562.5,415.6L556.4,408.3L554.8,403.9L553.6,402.4L546.6,401.1L545.3,399.4L543.4,393.2L543.9,384.8L542.8,382.7L541.5,377.0L542.3,375.8L540.7,374.9L540.2,369.6L542.0,361.7L545.7,352.1L544.6,349.0L541.5,344.9L543.4,339.6L542.4,332.0L546.6,323.0L542.9,319.0L540.8,314.3L543.2,306.2L539.8,304.1L538.6,301.7L538.4,295.9L539.8,291.3L546.4,278.4L547.0,274.9L543.7,272.9L540.8,269.1L544.3,263.7L546.6,259.5L547.7,253.8L547.6,247.5L546.4,241.5L544.2,237.4L543.9,235.5L546.6,230.2L547.5,227.1L547.0,224.2L544.7,222.1L543.6,224.5L540.7,221.4L534.6,216.2L535.6,214.5L540.1,211.6L541.2,210.2L540.7,207.8L539.2,205.7L537.1,204.3L531.7,203.5L535.3,197.7L537.7,197.1L539.4,194.1L536.4,191.7L533.7,187.2L530.1,185.7L528.7,186.7L528.0,191.4L527.0,191.5L524.8,187.5L525.4,184.9L522.9,179.4L522.1,173.1L520.5,169.9L519.3,160.5L520.8,156.6L520.9,154.2L514.1,151.0L509.4,146.5L506.6,137.5L507.4,133.8L504.9,131.0L501.9,132.8L499.5,131.1L498.5,128.6L499.2,126.4L503.3,124.8L503.0,123.3L500.0,120.6L499.1,120.8L497.7,114.6L498.8,107.5L498.1,99.0L498.2,96.0L497.4,91.8L494.7,84.1L494.1,79.8L494.1,75.4L492.2,71.9L388.9,5.9L381.6,0.6L379.2,0.0L272.2,1.5L177.5,24.4L100.1,43.1L74.1,47.5L72.3,48.3L71.5,49.9L60.4,96.0L58.0,103.0L57.4,104.7Z " data-id="PY.AG" data-name="Alto Paraguay" id="PY.AG"/>
utf-8utf-8<path d="M377.1,372.3L373.6,371.1L331.4,369.4L325.1,370.5L314.4,370.8L312.3,364.8L309.3,352.5L310.4,344.1L316.3,293.6L318.8,289.0L320.4,287.5L332.4,278.8L332.7,274.2L324.8,239.6L322.6,235.5L315.5,226.1L312.1,219.4L311.0,210.4L308.6,205.9L305.9,202.5L305.0,200.3L306.5,189.8L303.2,187.3L294.8,183.6L70.6,113.7L59.1,106.2L57.4,104.7L56.8,106.5L55.6,109.9L49.1,122.8L26.9,163.3L23.3,170.3L22.7,173.9L28.6,230.5L29.0,239.4L16.0,312.0L6.4,365.0L2.4,389.7L0.4,396.4L1.6,396.6L4.3,399.2L4.4,401.0L3.3,404.7L5.8,406.8L11.6,408.2L13.7,410.0L16.9,414.0L23.3,416.2L27.6,421.3L36.3,427.3L46.0,430.0L46.6,432.8L49.2,434.1L52.0,437.3L53.2,439.7L52.8,441.9L51.4,444.4L51.6,446.1L56.2,448.8L58.9,449.4L59.6,450.8L59.2,455.5L61.6,457.0L60.5,460.1L62.6,461.4L65.0,465.5L68.6,469.2L70.1,472.4L74.0,475.2L80.6,483.9L85.1,492.2L84.8,495.3L87.2,499.1L91.8,504.0L105.6,512.5L109.7,517.6L114.0,520.5L117.6,524.5L119.2,531.0L124.2,534.1L126.2,536.3L128.9,537.4L134.3,537.4L136.1,538.3L142.6,544.9L147.2,545.8L146.4,549.8L148.4,551.1L149.8,554.2L155.7,555.5L157.6,556.4L162.3,559.9L166.6,560.5L174.5,564.1L177.9,569.8L185.2,574.3L189.1,574.3L194.3,579.1L198.0,581.0L198.7,583.8L198.6,586.8L197.8,589.0L201.3,593.8L204.6,595.7L211.6,606.6L216.7,610.2L221.0,608.9L225.5,611.1L229.7,614.5L233.3,616.7L235.7,617.0L239.1,616.9L236.7,599.6L238.4,593.4L238.7,588.7L242.0,585.3L243.6,584.7L251.7,583.3L262.1,578.2L299.5,576.0L303.4,575.1L306.1,574.0L316.9,567.4L317.7,554.6L318.2,549.4L319.2,544.5L323.3,533.2L324.3,527.0L322.1,521.2L324.4,512.1L324.8,507.1L323.3,500.7L323.0,494.5L321.9,487.8L322.7,480.2L322.4,476.7L323.4,471.9L342.4,436.0L343.0,434.3L341.6,425.5L341.7,424.0L345.8,421.6L352.5,421.5L355.4,420.3L355.9,416.6L353.6,411.4L354.2,407.7L356.5,404.6L367.7,396.9L369.3,396.2L373.1,397.2L374.3,398.3L380.3,398.4L387.1,393.6L388.5,389.4L383.1,376.0L377.1,372.3Z " data-id="PY.BQ" data-name="Boquerón" id="PY.BQ"/>
utf-8utf-8<path d="M676.3,403.7L674.8,404.3L672.0,403.9L670.1,398.8L668.6,396.7L667.6,400.2L661.5,398.6L661.5,396.5L649.0,396.6L648.2,397.0L637.2,392.5L635.0,393.6L630.4,390.6L627.7,393.2L625.5,393.6L618.4,392.1L617.6,394.1L612.3,393.6L608.3,390.9L597.3,390.3L593.5,387.9L587.3,389.2L585.2,388.7L583.6,387.1L582.0,384.3L579.7,378.9L578.5,378.4L575.6,379.6L565.8,379.4L564.5,382.3L561.2,382.1L559.5,383.9L554.6,381.2L550.7,382.2L546.6,380.8L542.4,375.8L542.3,375.8L541.5,377.0L542.8,382.7L543.9,384.8L543.4,393.2L545.3,399.4L546.6,401.1L553.6,402.4L554.8,403.9L556.4,408.3L562.5,415.6L563.1,417.1L560.5,420.3L561.0,421.8L561.9,424.9L564.8,440.1L566.8,444.2L571.6,450.1L572.4,453.0L571.4,454.4L568.9,454.4L563.7,453.5L558.5,454.3L554.9,457.2L554.0,461.2L556.9,465.3L561.9,467.3L565.5,473.9L569.2,474.2L571.6,478.4L573.6,483.0L570.2,486.7L570.5,488.1L574.8,491.9L576.5,494.1L577.4,496.9L575.4,502.3L577.3,504.1L582.7,506.7L584.9,510.8L586.9,511.6L591.5,511.6L593.7,512.7L595.4,519.4L596.3,521.6L607.4,529.1L610.6,533.0L614.6,536.9L614.8,539.8L612.9,544.7L614.0,548.8L619.5,555.5L621.4,561.9L621.1,563.2L624.1,563.6L629.9,566.7L632.5,567.3L640.2,566.7L648.7,563.8L654.1,563.9L662.3,562.5L669.6,559.1L675.1,559.6L680.0,557.9L684.0,558.0L686.3,556.1L690.9,556.1L696.8,557.6L706.4,557.5L709.3,559.1L715.0,558.8L718.3,560.2L721.1,560.1L728.3,558.7L733.2,555.9L743.6,553.2L748.5,546.7L752.2,545.1L752.7,544.6L753.4,538.0L758.5,531.2L762.7,528.6L763.2,526.4L764.3,515.2L769.0,513.6L768.6,506.4L747.7,460.0L742.4,458.0L739.7,460.4L735.5,463.1L732.8,467.6L725.1,469.6L722.4,471.7L721.6,476.8L719.4,481.9L715.1,484.2L713.0,484.3L708.8,481.3L705.6,482.9L703.5,483.2L702.0,478.9L704.4,477.2L703.9,472.4L702.5,467.0L697.4,460.1L696.9,455.2L694.7,451.5L695.0,446.1L693.5,435.9L694.9,433.2L694.1,429.4L695.3,427.2L699.6,423.7L703.9,416.0L707.5,413.6L702.6,411.6L677.4,405.0L676.3,403.7L676.3,403.7Z " data-id="PY.CN" data-name="Concepción" id="PY.CN"/>
utf-8utf-8<path d="M747.9,769.4L741.9,763.4L739.8,762.0L728.4,757.3L726.6,757.1L718.9,758.1L712.8,760.0L694.9,763.6L691.3,765.8L691.4,770.9L689.7,772.7L683.2,773.5L679.1,772.3L671.2,768.6L668.9,767.0L666.4,766.7L663.1,765.8L660.5,766.1L659.7,769.3L654.9,777.2L650.1,780.0L646.6,783.6L642.8,783.6L645.9,787.8L652.5,792.5L656.8,798.9L660.7,803.0L662.4,805.3L664.8,811.6L669.7,819.4L671.0,821.0L673.5,822.0L676.3,820.1L678.5,821.7L681.3,825.8L688.3,837.0L691.4,839.3L701.7,841.3L710.3,840.7L713.0,841.1L713.8,842.1L716.7,849.3L716.9,851.0L713.8,855.7L714.2,856.6L727.7,854.5L732.8,856.5L732.2,855.5L723.8,840.5L723.3,836.7L749.3,815.5L750.7,807.1L752.5,771.4L747.9,769.4Z " data-id="PY.CR" data-name="Cordillera" id="PY.CR"/>
utf-8utf-8<path d="M519.1,402.7L516.3,400.1L514.8,393.7L513.1,392.4L510.0,391.5L455.0,387.5L449.1,388.2L424.0,386.0L406.2,386.7L396.9,383.8L383.1,376.0L388.5,389.4L387.1,393.6L380.3,398.4L374.3,398.3L373.1,397.2L369.3,396.2L367.7,396.9L356.5,404.6L354.2,407.7L353.6,411.4L355.9,416.6L355.4,420.3L352.5,421.5L345.8,421.6L341.7,424.0L341.6,425.5L343.0,434.3L342.4,436.0L323.4,471.9L322.4,476.7L322.7,480.2L321.9,487.8L323.0,494.5L323.3,500.7L324.8,507.1L324.4,512.1L322.1,521.2L324.3,527.0L323.3,533.2L319.2,544.5L318.2,549.4L317.7,554.6L316.9,567.4L306.1,574.0L303.4,575.1L299.5,576.0L262.1,578.2L251.7,583.3L243.6,584.7L242.0,585.3L238.7,588.7L238.4,593.4L236.7,599.6L239.1,616.9L245.8,616.7L250.7,619.6L256.0,619.3L262.1,622.1L264.4,626.4L269.3,626.9L275.6,630.9L283.0,632.4L289.5,633.2L292.0,635.4L298.0,636.1L307.3,637.6L315.9,637.3L318.6,636.6L323.8,634.6L328.3,634.9L373.2,664.2L382.6,673.3L385.6,673.7L389.8,675.5L393.6,678.7L399.8,682.2L401.3,685.4L404.2,686.7L410.4,692.3L413.3,697.0L415.5,699.5L419.4,701.0L422.3,703.4L424.1,703.6L426.9,706.2L431.9,708.0L435.5,710.4L438.3,711.5L443.0,714.5L449.5,716.3L453.3,719.6L457.1,720.6L481.2,738.5L483.7,739.1L489.6,739.3L494.0,741.5L495.0,743.2L521.2,748.5L528.7,755.5L537.1,764.3L539.1,767.4L540.7,767.9L544.6,765.8L547.4,762.2L549.2,760.7L551.3,760.6L562.6,768.2L564.0,770.2L565.4,770.2L573.9,774.5L578.7,774.5L581.1,778.5L582.8,779.1L591.9,779.1L594.3,780.0L596.1,781.5L601.9,787.8L607.6,791.1L609.2,792.9L613.9,801.6L616.6,805.0L620.3,807.5L625.2,802.0L628.4,800.8L629.7,800.1L631.2,798.4L633.7,792.1L634.8,783.2L639.4,783.6L642.8,783.6L646.6,783.6L650.1,780.0L654.9,777.2L659.7,769.3L660.5,766.1L663.1,765.8L666.4,766.7L668.9,767.0L670.4,766.4L670.9,765.6L667.7,761.3L667.8,757.3L667.3,755.2L663.4,753.9L668.4,745.2L669.6,736.5L670.9,735.9L674.4,736.5L676.0,735.1L676.7,730.5L678.6,725.1L677.6,722.9L673.9,720.2L671.3,715.1L670.8,706.8L671.5,701.2L669.1,695.9L666.8,686.3L665.5,682.3L664.0,674.0L660.8,668.3L658.3,665.8L657.3,659.8L659.2,657.3L659.9,655.0L661.6,652.4L662.4,649.7L660.4,647.1L655.2,647.1L653.3,645.5L654.5,640.7L653.3,638.4L651.3,637.1L649.1,637.9L647.6,634.6L646.2,627.7L643.8,625.0L639.6,624.6L638.9,623.6L641.3,618.6L643.8,616.6L644.4,606.1L641.5,602.3L644.4,599.2L641.6,594.5L637.7,591.2L628.9,586.2L625.3,582.5L621.9,576.6L620.0,568.7L621.0,564.7L621.1,563.2L621.4,561.9L619.5,555.5L614.0,548.8L612.9,544.7L614.8,539.8L614.6,536.9L610.6,533.0L607.4,529.1L596.3,521.6L595.4,519.4L593.7,512.7L591.5,511.6L586.9,511.6L584.9,510.8L582.7,506.7L577.3,504.1L575.4,502.3L577.4,496.9L576.5,494.1L574.8,491.9L570.5,488.1L570.2,486.7L573.6,483.0L571.6,478.4L569.2,474.2L565.5,473.9L561.9,467.3L556.9,465.3L554.0,461.2L554.9,457.2L558.5,454.3L563.7,453.5L568.9,454.4L571.4,454.4L572.4,453.0L571.6,450.1L566.8,444.2L564.8,440.1L561.9,424.9L561.0,421.8L519.1,402.7Z " data-id="PY.PH" data-name="Presidente Hayes" id="PY.PH"/>
utf-8utf-8<path d="M787.6,613.4L792.3,609.8L794.7,602.7L795.2,599.8L793.5,589.8L797.5,583.6L798.1,580.1L796.9,570.7L794.1,570.6L787.2,572.1L785.7,573.7L785.4,578.3L781.2,581.6L778.7,581.1L777.1,579.4L772.2,569.3L772.6,568.6L781.4,560.2L783.1,557.0L782.8,555.1L781.3,552.8L779.2,550.9L776.0,542.4L774.3,541.9L767.9,541.3L766.0,540.7L758.6,542.8L753.5,546.0L752.2,545.1L748.5,546.7L743.6,553.2L733.2,555.9L728.3,558.7L721.1,560.1L718.3,560.2L715.0,558.8L709.3,559.1L706.4,557.5L696.8,557.6L690.9,556.1L686.3,556.1L684.0,558.0L680.0,557.9L675.1,559.6L669.6,559.1L662.3,562.5L654.1,563.9L648.7,563.8L640.2,566.7L632.5,567.3L629.9,566.7L624.1,563.6L621.1,563.2L621.0,564.7L620.0,568.7L621.9,576.6L625.3,582.5L628.9,586.2L637.7,591.2L641.6,594.5L644.4,599.2L641.5,602.3L644.4,606.1L643.8,616.6L641.3,618.6L638.9,623.6L639.6,624.6L643.8,625.0L646.2,627.7L647.6,634.6L649.1,637.9L651.3,637.1L653.3,638.4L654.5,640.7L653.3,645.5L655.2,647.1L660.4,647.1L662.4,649.7L661.6,652.4L659.9,655.0L659.2,657.3L657.3,659.8L658.3,665.8L660.8,668.3L664.0,674.0L665.5,682.3L666.8,686.3L669.1,695.9L671.5,701.2L670.8,706.8L671.3,715.1L673.9,720.2L677.6,722.9L678.6,725.1L676.7,730.5L676.0,735.1L674.4,736.5L670.9,735.9L669.6,736.5L668.4,745.2L663.4,753.9L667.3,755.2L667.8,757.3L667.7,761.3L670.9,765.6L670.4,766.4L668.9,767.0L671.2,768.6L679.1,772.3L683.2,773.5L689.7,772.7L691.4,770.9L691.3,765.8L694.9,763.6L712.8,760.0L718.9,758.1L726.6,757.1L728.4,757.3L739.8,762.0L741.9,763.4L747.9,769.4L752.5,771.4L759.9,762.2L764.3,759.3L765.4,758.0L767.0,753.7L772.8,749.5L776.8,741.3L777.8,740.1L781.6,740.9L782.5,748.1L785.1,750.9L790.6,753.0L796.6,758.8L802.6,764.2L805.4,762.1L809.3,751.5L812.9,747.2L821.8,743.1L835.1,739.2L828.5,735.3L827.2,734.3L823.9,727.8L821.4,725.3L815.7,721.3L814.2,719.4L810.4,710.8L807.4,705.4L800.3,696.3L797.3,690.4L795.0,688.4L792.8,687.6L788.6,684.3L786.4,679.3L785.4,674.9L783.7,671.4L781.0,669.1L780.4,658.5L780.0,655.5L780.6,652.8L782.5,649.5L786.7,647.8L794.7,637.9L796.8,637.0L795.9,633.9L786.8,613.5L787.6,613.4Z " data-id="PY.SP" data-name="San Pedro" id="PY.SP"/>
utf-8utf-8<path d="M639.4,783.6L634.8,783.2L633.7,792.1L631.2,798.4L629.7,800.1L632.9,803.0L635.0,806.4L636.1,811.4L635.6,816.8L630.7,822.8L633.0,824.6L636.2,830.4L636.0,842.1L635.7,844.5L631.8,847.4L631.7,850.5L629.2,851.4L625.7,850.9L625.0,855.6L624.0,856.4L620.4,856.5L618.0,857.6L616.8,859.1L614.8,863.0L615.7,864.1L619.1,865.7L614.3,871.4L610.7,873.3L611.4,875.9L613.7,880.5L612.7,882.3L611.9,882.9L615.8,883.6L616.4,883.1L616.1,877.6L617.7,877.2L620.1,878.1L624.7,877.5L630.1,882.7L639.2,889.7L644.0,892.9L644.3,894.3L649.0,900.8L651.0,904.7L655.7,899.2L658.0,895.6L660.3,889.4L659.9,884.1L656.2,874.9L655.6,867.9L658.6,858.5L662.2,854.3L665.5,849.6L673.3,833.1L677.0,828.9L681.3,825.8L678.5,821.7L676.3,820.1L673.5,822.0L671.0,821.0L669.7,819.4L664.8,811.6L662.4,805.3L660.7,803.0L656.8,798.9L652.5,792.5L645.9,787.8L642.8,783.6L639.4,783.6Z " data-id="PY.CE" data-name="Central" id="PY.CE"/>
utf-8utf-8<path d="M860.7,854.3L859.0,854.0L852.4,857.1L845.7,859.3L842.1,859.9L839.1,859.6L829.9,851.7L825.3,850.3L812.9,850.6L811.1,850.3L807.2,847.7L776.3,846.3L772.2,847.2L768.9,849.5L759.4,853.1L754.5,858.6L747.5,862.6L745.1,864.2L743.4,866.1L743.3,873.1L744.5,877.2L748.2,885.0L754.1,894.5L752.9,898.5L748.1,899.8L747.1,903.0L748.3,908.2L749.9,911.9L759.4,926.8L763.1,926.9L766.0,927.2L768.4,925.4L768.5,919.5L769.0,917.2L772.6,913.4L778.2,913.1L780.9,911.4L781.4,906.7L782.1,905.0L786.5,905.2L791.8,902.6L794.8,902.1L804.8,908.8L807.0,909.1L813.1,905.7L815.7,903.6L816.2,902.0L817.4,891.6L820.1,888.2L823.8,887.1L828.3,883.4L832.4,882.5L837.6,878.6L847.4,874.1L852.5,867.0L856.9,867.2L858.2,866.8L859.7,864.3L861.7,857.5L862.2,856.1L860.7,854.3Z " data-id="PY.GU" data-name="Guairá" id="PY.GU"/>
utf-8utf-8<path d="M737.6,969.1L731.5,968.2L722.3,961.7L715.0,958.0L708.2,958.7L706.6,960.2L703.1,968.0L701.9,968.6L697.4,973.5L696.9,974.8L697.2,980.2L695.3,982.5L689.6,984.7L679.7,987.1L676.6,986.8L672.0,984.2L668.8,983.4L663.1,979.3L654.5,977.3L652.9,976.4L650.1,973.3L647.0,971.5L643.7,966.0L640.6,963.7L638.4,960.8L634.2,958.7L648.5,1008.3L650.9,1013.3L662.2,1027.6L677.5,1043.8L678.4,1044.3L699.8,1047.6L703.2,1048.6L704.4,1050.7L704.3,1055.8L698.0,1086.5L697.0,1095.6L698.0,1096.5L710.5,1102.3L711.7,1103.0L721.2,1103.9L724.9,1103.0L735.4,1096.4L739.3,1094.7L747.7,1095.9L755.8,1103.4L764.5,1105.2L769.7,1100.4L774.7,1098.8L772.9,1089.3L773.7,1085.4L772.5,1083.6L767.9,1079.6L765.6,1075.2L765.6,1072.3L766.5,1066.8L767.2,1064.7L770.1,1061.7L772.6,1058.2L780.1,1056.4L780.9,1054.1L780.6,1049.5L769.9,1000.4L769.5,999.3L770.0,995.7L768.5,993.4L759.3,991.6L754.0,988.1L751.9,986.3L746.1,978.2L742.5,976.0L737.6,969.1Z " data-id="PY.MI" data-name="Misiones" id="PY.MI"/>
utf-8utf-8<path d="M649.0,900.8L644.3,894.3L644.0,892.9L639.2,889.7L630.1,882.7L624.7,877.5L620.1,878.1L617.7,877.2L616.1,877.6L616.4,883.1L615.8,883.6L611.9,882.9L610.5,884.1L608.3,885.5L606.2,888.4L608.9,889.4L608.1,893.4L604.5,896.9L603.9,898.9L609.4,900.6L609.6,902.4L608.4,904.6L596.3,915.1L592.7,917.4L585.6,920.3L584.6,921.6L582.5,930.4L579.0,927.6L579.6,930.0L584.9,933.6L585.2,935.4L583.4,937.0L578.3,939.6L579.7,946.1L579.3,950.2L576.3,957.4L575.8,959.5L576.4,961.2L579.5,964.0L577.9,966.7L577.1,974.2L578.6,977.3L581.4,979.3L584.3,982.9L581.5,985.7L581.7,987.3L583.7,990.8L578.1,991.0L576.7,992.2L576.5,994.8L577.5,1005.3L573.1,1006.7L575.1,1010.7L573.7,1012.4L569.6,1011.4L567.8,1012.1L566.7,1015.0L570.7,1018.5L571.7,1020.9L570.4,1022.2L565.1,1022.7L563.3,1025.7L556.1,1028.2L553.7,1031.2L554.2,1033.0L556.1,1034.6L553.7,1039.1L552.6,1043.0L552.4,1045.9L550.5,1045.1L549.9,1043.3L546.8,1047.5L547.2,1053.4L541.5,1054.5L539.1,1056.1L537.8,1058.9L537.7,1062.7L543.6,1068.3L545.3,1070.9L546.7,1080.0L556.3,1075.3L587.3,1072.4L600.1,1074.1L608.6,1072.7L621.4,1074.8L625.2,1076.4L632.1,1077.9L649.4,1082.2L650.8,1082.7L670.7,1092.6L676.4,1093.9L687.8,1092.1L693.8,1093.0L694.9,1093.7L697.0,1095.6L698.0,1086.5L704.3,1055.8L704.4,1050.7L703.2,1048.6L699.8,1047.6L678.4,1044.3L677.5,1043.8L662.2,1027.6L650.9,1013.3L648.5,1008.3L634.2,958.7L636.1,956.0L638.3,954.0L639.4,951.9L642.8,942.8L656.2,926.6L656.5,924.3L651.0,904.7L649.0,900.8Z " data-id="PY.NE" data-name="Ñeembucú" id="PY.NE"/>
utf-8utf-8<path d="M727.7,854.5L714.2,856.6L713.8,855.7L716.9,851.0L716.7,849.3L713.8,842.1L713.0,841.1L710.3,840.7L701.7,841.3L691.4,839.3L688.3,837.0L681.3,825.8L677.0,828.9L673.3,833.1L665.5,849.6L662.2,854.3L658.6,858.5L655.6,867.9L656.2,874.9L659.9,884.1L660.3,889.4L658.0,895.6L655.7,899.2L651.0,904.7L656.5,924.3L656.2,926.6L642.8,942.8L639.4,951.9L638.3,954.0L636.1,956.0L634.2,958.7L638.4,960.8L640.6,963.7L643.7,966.0L647.0,971.5L650.1,973.3L652.9,976.4L654.5,977.3L663.1,979.3L668.8,983.4L672.0,984.2L676.6,986.8L679.7,987.1L689.6,984.7L695.3,982.5L697.2,980.2L696.9,974.8L697.4,973.5L701.9,968.6L703.1,968.0L706.6,960.2L708.2,958.7L715.0,958.0L722.3,961.7L731.5,968.2L737.6,969.1L742.5,976.0L743.3,973.0L748.0,968.5L748.8,967.0L749.3,962.2L751.5,956.7L751.3,952.7L753.5,950.9L753.9,943.8L754.5,938.8L755.2,937.2L758.6,932.4L759.0,931.2L759.4,926.8L749.9,911.9L748.3,908.2L747.1,903.0L748.1,899.8L752.9,898.5L754.1,894.5L748.2,885.0L744.5,877.2L743.3,873.1L743.4,866.1L745.1,864.2L741.4,863.6L740.6,863.3L739.6,862.7L736.7,859.3L732.8,856.5L727.7,854.5Z " data-id="PY.PG" data-name="Paraguarí" id="PY.PG"/>
utf-8utf-8<path d="M842.5,566.7L841.7,562.0L844.2,554.6L844.0,550.4L842.5,547.9L838.5,543.8L837.5,540.8L837.6,538.6L839.8,532.4L839.6,530.2L835.6,519.0L832.2,516.9L830.8,515.1L830.6,508.0L829.7,505.4L824.9,499.5L824.4,497.2L824.5,490.3L820.9,480.0L820.2,474.9L821.4,470.8L823.0,467.0L822.3,456.8L822.7,454.6L822.1,450.8L821.1,449.2L813.0,445.0L809.7,441.5L807.3,437.1L806.0,432.2L804.6,420.9L803.3,417.6L802.0,416.2L797.0,412.4L790.4,403.8L789.2,407.6L786.9,406.1L779.6,405.4L774.3,402.2L771.3,403.5L751.2,402.4L747.0,400.6L743.3,397.0L736.4,392.8L732.6,389.1L729.4,384.7L725.6,376.5L724.3,375.1L722.6,374.9L714.4,376.5L710.4,379.5L705.1,390.5L700.3,395.1L697.5,396.8L699.0,399.2L698.5,400.3L696.6,399.8L692.2,394.9L690.2,393.9L688.5,397.7L687.3,398.6L686.0,397.5L679.8,398.2L678.7,400.6L676.3,403.7L677.4,405.0L702.6,411.6L707.5,413.6L703.9,416.0L699.6,423.7L695.3,427.2L694.1,429.4L694.9,433.2L693.5,435.9L695.0,446.1L694.7,451.5L696.9,455.2L697.4,460.1L702.5,467.0L703.9,472.4L704.4,477.2L702.0,478.9L703.5,483.2L705.6,482.9L708.8,481.3L713.0,484.3L715.1,484.2L719.4,481.9L721.6,476.8L722.4,471.7L725.1,469.6L732.8,467.6L735.5,463.1L739.7,460.4L742.4,458.0L747.7,460.0L768.6,506.4L769.0,513.6L764.3,515.2L763.2,526.4L762.7,528.6L758.5,531.2L753.4,538.0L752.7,544.6L752.2,545.1L753.5,546.0L758.6,542.8L766.0,540.7L767.9,541.3L774.3,541.9L776.0,542.4L779.2,550.9L781.3,552.8L782.8,555.1L783.1,557.0L781.4,560.2L772.6,568.6L772.2,569.3L777.1,579.4L778.7,581.1L781.2,581.6L785.4,578.3L785.7,573.7L787.2,572.1L794.1,570.6L796.9,570.7L798.1,580.1L797.5,583.6L793.5,589.8L795.2,599.8L794.7,602.7L792.3,609.8L787.6,613.4L786.8,613.5L788.2,614.5L790.8,615.6L794.5,614.4L801.4,613.3L804.3,612.0L808.3,606.1L813.0,603.1L824.1,593.7L828.0,591.3L831.3,591.3L833.3,590.6L837.7,587.6L839.6,584.9L840.0,579.7L841.5,573.7L843.6,570.7L842.5,566.7Z " data-id="PY.AM" data-name="Amambay" id="PY.AM"/>
utf-8utf-8<path d="M891.8,701.5L889.2,706.0L886.2,710.4L885.4,713.8L887.1,721.3L885.7,724.9L886.4,732.0L883.8,735.9L886.0,745.5L884.4,749.8L885.5,753.8L886.3,760.2L886.1,761.8L890.2,769.9L891.9,771.9L894.4,773.1L898.0,772.9L905.0,776.6L915.3,785.9L925.8,793.3L928.4,801.1L931.6,802.4L932.7,804.0L933.7,809.2L935.6,814.0L933.1,814.8L927.0,814.3L925.1,811.4L923.1,806.8L917.4,804.7L914.5,801.1L915.9,806.5L914.6,806.6L908.9,804.4L903.4,799.7L902.0,799.6L899.0,803.7L876.4,843.3L880.4,842.1L883.2,842.6L885.2,847.5L887.9,851.5L883.4,859.5L883.3,864.4L881.2,872.6L879.1,874.7L876.6,883.0L876.7,884.4L878.6,887.7L879.8,898.1L881.8,901.1L890.3,904.6L891.7,903.8L898.7,903.5L904.9,902.0L909.1,905.4L913.1,906.3L913.9,907.3L912.8,910.6L907.2,914.4L912.7,927.4L915.3,929.9L923.8,929.4L928.3,930.1L935.2,932.4L940.1,935.1L942.2,931.7L947.5,931.0L953.1,922.8L954.7,922.7L954.8,927.2L956.4,928.8L960.8,926.9L964.3,926.1L970.7,928.4L972.2,929.7L972.9,933.6L973.6,934.4L981.9,935.3L981.9,935.0L984.3,929.7L983.7,927.9L981.3,925.3L980.6,923.3L982.0,914.6L981.8,911.6L980.0,907.3L978.2,900.5L978.8,899.0L983.4,898.0L984.2,896.0L982.2,887.4L984.4,880.7L984.3,877.7L980.4,872.7L979.0,868.2L976.1,861.1L975.7,857.6L976.6,856.3L980.7,856.5L982.4,855.3L981.7,852.6L979.4,848.3L979.7,839.2L977.2,834.2L976.4,831.2L976.2,826.6L972.0,825.7L972.0,819.0L974.7,813.0L974.5,810.5L966.7,804.8L968.6,804.8L976.8,806.8L977.9,806.5L980.9,803.5L981.5,802.1L980.9,797.0L983.0,796.2L982.9,793.1L984.6,791.6L986.0,788.5L981.2,786.2L975.2,786.8L976.8,783.3L975.5,781.3L970.3,780.4L968.1,780.5L962.1,782.8L960.9,782.5L960.2,779.4L950.4,780.2L952.4,777.1L957.9,773.4L959.8,771.1L962.3,771.2L963.8,772.6L966.9,773.7L970.6,773.1L981.4,777.8L982.5,777.9L980.8,769.8L983.4,763.0L983.0,759.3L969.5,755.8L966.8,755.5L959.9,755.7L951.1,753.6L941.0,753.9L942.1,752.6L952.2,748.8L957.3,750.7L957.8,752.0L960.9,753.5L974.3,751.5L982.9,753.0L985.3,752.9L984.8,744.7L986.5,739.6L985.8,737.9L983.5,736.1L976.0,734.1L963.9,729.7L976.8,729.3L976.8,729.3L972.8,728.1L963.9,726.7L961.0,724.0L959.4,720.7L957.3,720.0L950.7,719.2L948.0,720.6L947.4,721.9L944.0,723.5L940.0,718.9L935.7,718.7L933.0,717.4L932.5,712.3L928.7,709.5L919.5,706.5L916.8,706.9L914.2,708.1L909.5,707.4L907.7,705.6L906.7,697.5L904.1,696.8L891.8,701.5Z " data-id="PY.AA" data-name="Alto Paraná" id="PY.AA"/>
utf-8utf-8<path d="M899.0,803.7L902.0,799.6L903.4,799.7L908.9,804.4L914.6,806.6L915.9,806.5L914.5,801.1L917.4,804.7L923.1,806.8L925.1,811.4L927.0,814.3L933.1,814.8L935.6,814.0L933.7,809.2L932.7,804.0L931.6,802.4L928.4,801.1L925.8,793.3L915.3,785.9L905.0,776.6L898.0,772.9L894.4,773.1L891.9,771.9L890.2,769.9L886.1,761.8L886.3,760.2L885.5,753.8L884.4,749.8L886.0,745.5L883.8,735.9L886.4,732.0L885.7,724.9L887.1,721.3L885.4,713.8L886.2,710.4L889.2,706.0L891.8,701.5L862.0,707.0L858.3,708.7L847.1,723.2L841.9,727.9L840.4,729.9L837.7,735.3L835.1,739.2L821.8,743.1L812.9,747.2L809.3,751.5L805.4,762.1L802.6,764.2L796.6,758.8L790.6,753.0L785.1,750.9L782.5,748.1L781.6,740.9L777.8,740.1L776.8,741.3L772.8,749.5L767.0,753.7L765.4,758.0L764.3,759.3L759.9,762.2L752.5,771.4L750.7,807.1L749.3,815.5L723.3,836.7L723.8,840.5L732.2,855.5L732.8,856.5L736.7,859.3L739.6,862.7L740.6,863.3L741.4,863.6L745.1,864.2L747.5,862.6L754.5,858.6L759.4,853.1L768.9,849.5L772.2,847.2L776.3,846.3L807.2,847.7L811.1,850.3L812.9,850.6L825.3,850.3L829.9,851.7L839.1,859.6L842.1,859.9L845.7,859.3L852.4,857.1L859.0,854.0L860.7,854.3L862.2,856.1L865.3,857.1L870.7,854.7L871.9,853.9L874.9,846.5L876.4,843.3L899.0,803.7Z " data-id="PY.CG" data-name="Caaguazú" id="PY.CG"/>
utf-8utf-8<path d="M912.8,910.6L913.9,907.3L913.1,906.3L909.1,905.4L904.9,902.0L898.7,903.5L891.7,903.8L890.3,904.6L881.8,901.1L879.8,898.1L878.6,887.7L876.7,884.4L876.6,883.0L879.1,874.7L881.2,872.6L883.3,864.4L883.4,859.5L887.9,851.5L885.2,847.5L883.2,842.6L880.4,842.1L876.4,843.3L874.9,846.5L871.9,853.9L870.7,854.7L865.3,857.1L862.2,856.1L861.7,857.5L859.7,864.3L858.2,866.8L856.9,867.2L852.5,867.0L847.4,874.1L837.6,878.6L832.4,882.5L828.3,883.4L823.8,887.1L820.1,888.2L817.4,891.6L816.2,902.0L815.7,903.6L813.1,905.7L807.0,909.1L804.8,908.8L794.8,902.1L791.8,902.6L786.5,905.2L782.1,905.0L781.4,906.7L780.9,911.4L778.2,913.1L772.6,913.4L769.0,917.2L768.5,919.5L768.4,925.4L766.0,927.2L763.1,926.9L759.4,926.8L759.0,931.2L758.6,932.4L755.2,937.2L754.5,938.8L753.9,943.8L753.5,950.9L751.3,952.7L751.5,956.7L749.3,962.2L748.8,967.0L748.0,968.5L743.3,973.0L742.5,976.0L746.1,978.2L751.9,986.3L754.0,988.1L759.3,991.6L768.5,993.4L770.0,995.7L769.5,999.3L769.9,1000.4L778.8,1002.5L785.4,1007.2L789.2,1007.6L801.9,1002.1L811.1,996.5L823.8,991.7L824.3,987.6L829.2,980.3L832.4,971.6L833.9,970.2L839.5,968.3L847.3,966.7L850.9,964.4L855.5,958.4L859.8,951.2L866.2,948.2L870.9,946.7L875.4,946.4L877.0,946.8L880.9,946.2L888.4,943.1L890.3,941.9L899.1,933.8L903.3,928.9L904.8,925.4L904.0,919.0L905.7,914.1L907.2,914.4L912.8,910.6Z " data-id="PY.CZ" data-name="Caazapá" id="PY.CZ"/>
utf-8utf-8<path d="M843.6,570.7L841.5,573.7L840.0,579.7L839.6,584.9L837.7,587.6L833.3,590.6L831.3,591.3L828.0,591.3L824.1,593.7L813.0,603.1L808.3,606.1L804.3,612.0L801.4,613.3L794.5,614.4L790.8,615.6L788.2,614.5L786.8,613.5L795.9,633.9L796.8,637.0L794.7,637.9L786.7,647.8L782.5,649.5L780.6,652.8L780.0,655.5L780.4,658.5L781.0,669.1L783.7,671.4L785.4,674.9L786.4,679.3L788.6,684.3L792.8,687.6L795.0,688.4L797.3,690.4L800.3,696.3L807.4,705.4L810.4,710.8L814.2,719.4L815.7,721.3L821.4,725.3L823.9,727.8L827.2,734.3L828.5,735.3L835.1,739.2L837.7,735.3L840.4,729.9L841.9,727.9L847.1,723.2L858.3,708.7L862.0,707.0L891.8,701.5L904.1,696.8L906.7,697.5L907.7,705.6L909.5,707.4L914.2,708.1L916.8,706.9L919.5,706.5L928.7,709.5L932.5,712.3L933.0,717.4L935.7,718.7L940.0,718.9L944.0,723.5L947.4,721.9L948.0,720.6L950.7,719.2L957.3,720.0L959.4,720.7L961.0,724.0L963.9,726.7L972.8,728.1L976.8,729.3L985.6,730.5L988.6,729.7L991.1,727.4L992.7,717.2L991.9,714.3L989.2,711.4L979.5,708.6L981.5,708.0L989.4,707.0L990.7,705.5L990.0,703.2L990.8,701.1L987.6,693.2L981.9,688.4L986.5,689.6L993.0,692.5L995.1,687.7L995.4,684.5L997.8,680.4L991.9,669.7L990.7,668.0L985.3,664.8L989.0,660.7L987.1,651.8L990.5,645.3L991.5,644.3L997.3,642.8L999.6,640.7L996.1,638.8L984.5,631.8L977.2,622.3L974.7,620.4L953.9,608.5L950.8,607.6L949.1,608.5L946.5,611.9L944.6,613.1L930.0,618.7L923.0,623.2L919.4,628.5L917.6,629.8L911.7,630.3L906.4,632.4L899.1,632.4L892.5,636.2L888.4,636.5L884.2,635.6L879.9,634.0L876.1,633.1L868.8,632.5L865.0,630.8L862.1,627.8L860.7,624.3L856.4,598.3L853.1,589.9L847.4,584.0L844.9,580.6L844.1,576.0L843.7,571.2L843.6,570.7Z " data-id="PY.CY" data-name="Canindeyú" id="PY.CY"/>
utf-8utf-8<path d="M981.9,935.3L973.6,934.4L972.9,933.6L972.2,929.7L970.7,928.4L964.3,926.1L960.8,926.9L956.4,928.8L954.8,927.2L954.7,922.7L953.1,922.8L947.5,931.0L942.2,931.7L940.1,935.1L935.2,932.4L928.3,930.1L923.8,929.4L915.3,929.9L912.7,927.4L907.2,914.4L905.7,914.1L904.0,919.0L904.8,925.4L903.3,928.9L899.1,933.8L890.3,941.9L888.4,943.1L880.9,946.2L877.0,946.8L875.4,946.4L870.9,946.7L866.2,948.2L859.8,951.2L855.5,958.4L850.9,964.4L847.3,966.7L839.5,968.3L833.9,970.2L832.4,971.6L829.2,980.3L824.3,987.6L823.8,991.7L811.1,996.5L801.9,1002.1L789.2,1007.6L785.4,1007.2L778.8,1002.5L769.9,1000.4L780.6,1049.5L780.9,1054.1L780.1,1056.4L772.6,1058.2L770.1,1061.7L767.2,1064.7L766.5,1066.8L765.6,1072.3L765.6,1075.2L767.9,1079.6L772.5,1083.6L773.7,1085.4L772.9,1089.3L774.7,1098.8L777.5,1097.9L790.7,1105.2L793.3,1108.8L796.7,1112.4L800.6,1115.3L808.0,1116.0L809.6,1112.7L810.7,1108.6L814.4,1102.6L815.4,1099.9L815.4,1096.9L814.5,1093.2L814.8,1090.3L817.2,1088.8L822.8,1086.6L826.4,1081.5L831.1,1078.1L836.9,1078.9L845.1,1082.0L847.7,1082.6L855.9,1082.0L858.3,1082.9L860.4,1085.4L862.7,1090.5L876.1,1097.6L879.9,1094.0L883.3,1088.9L886.2,1086.3L889.0,1085.8L891.3,1084.3L892.9,1082.0L893.6,1079.0L892.8,1075.1L894.0,1072.4L893.0,1067.9L889.5,1062.4L889.4,1060.4L894.1,1058.5L894.6,1053.3L895.6,1051.2L903.9,1051.0L904.8,1048.9L904.3,1042.7L905.8,1037.3L911.5,1033.0L916.8,1032.2L922.0,1029.0L924.8,1029.0L931.5,1031.8L936.1,1032.1L938.7,1031.6L940.4,1030.0L940.4,1027.1L938.2,1021.8L938.7,1019.5L945.2,1011.6L947.4,1010.7L953.0,1010.2L954.8,1009.3L957.6,1002.8L958.4,996.6L959.3,993.9L961.0,992.0L963.7,991.3L968.8,991.3L971.0,992.8L973.5,990.0L974.1,983.7L973.8,980.6L972.0,974.3L974.3,969.7L977.2,966.9L980.2,962.7L981.3,958.6L981.5,950.4L983.1,944.7L981.8,936.0L981.9,935.3Z " data-id="PY.IT" data-name="Itapúa" id="PY.IT"/>
utf-8</g>
</svg>
