<?xml version="1.0" ?>
<!DOCTYPE svg
  PUBLIC '-//W3C//DTD SVG 1.1//EN'
  'http://www.w3.org/Graphics/SVG/1.1/DTD/svg11.dtd'>
<svg enable_background="new 0 0 1000 2039" height="2039px" pretty_print="True" style="stroke-linejoin: round; stroke:#000; fill: none;" version="1.1" viewBox="0 0 1000 2039" width="1000px" xmlns="http://www.w3.org/2000/svg" xmlns:xlink="http://www.w3.org/1999/xlink">
utf-8<defs>
utf-8utf-8<style type="text/css">
<![CDATA[path { fill-rule: evenodd; }]]>utf-8utf-8</style>
utf-8</defs>
utf-8<metadata>
utf-8utf-8<views>
utf-8utf-8utf-8<view h="2039.85491864" padding="0" w="1000">
utf-8utf-8utf-8utf-8<proj flip="auto" id="robinson" lon0="51.4994712446"/>
utf-8utf-8utf-8utf-8<bbox h="26.86" w="13.17" x="730.64" y="-438.69"/>
utf-8utf-8utf-8</view>
utf-8utf-8</views>
utf-8</metadata>
utf-8<g class="" id="provinces">
utf-8utf-8<path d="M851.6,1248.3L802.4,1203.5L779.1,1226.7L819.5,1277.4L834.3,1261.7L851.6,1248.3Z M850.0,990.0L775.7,1019.5L860.7,1146.3L877.8,1161.4L901.1,1199.7L931.3,1167.8L965.2,1174.1L972.7,1175.0L972.7,1175.0L966.7,1152.6L954.9,1127.5L943.8,1116.2L878.5,1105.4L864.3,1099.2L856.7,1085.0L852.6,1057.0L850.0,990.0L850.0,990.0Z " data-id="QA.DA" data-name="Ad Dawhah" id="QA.DA"/>
utf-8utf-8<path d="M619.4,1930.5L574.9,1465.3L697.3,1465.3L686.0,1363.1L768.1,1400.0L784.7,1357.0L796.4,1302.0L819.5,1277.4L779.1,1226.7L802.4,1203.5L851.6,1248.3L876.7,1229.0L901.1,1199.7L877.8,1161.4L860.7,1146.3L775.7,1019.5L705.1,995.0L618.8,988.0L586.9,857.8L577.0,757.0L526.4,689.3L489.6,611.8L474.7,544.8L355.7,544.8L350.1,490.2L180.8,490.1L178.9,475.2L173.4,460.6L165.8,449.5L157.9,445.1L148.5,452.1L146.3,465.8L142.2,475.9L126.7,472.0L130.6,510.3L132.4,515.6L138.8,523.3L140.7,528.6L138.9,535.2L129.3,544.6L127.2,550.3L125.4,610.4L128.5,628.5L147.7,662.3L171.9,672.2L199.2,667.0L228.2,654.6L221.4,670.3L209.9,707.4L203.9,716.3L188.7,715.5L178.8,706.8L170.9,702.8L159.8,716.3L156.4,729.9L158.7,760.4L157.3,790.1L158.6,796.4L156.8,799.7L146.2,803.2L137.6,796.0L131.7,789.1L120.5,764.9L118.4,755.4L115.7,728.9L119.4,694.4L119.3,672.9L112.7,663.3L104.3,660.6L96.1,648.7L88.7,645.9L84.6,649.9L79.7,669.5L76.9,676.7L63.1,685.2L48.1,687.2L34.1,691.4L23.3,707.6L36.6,713.9L61.1,718.8L70.6,725.0L78.9,740.8L79.8,756.5L77.4,771.5L76.7,785.8L80.4,808.9L86.3,830.8L108.8,882.3L79.1,876.6L76.6,851.9L66.0,842.2L60.2,818.8L46.1,802.7L25.6,806.3L0.2,847.5L15.9,863.2L16.9,888.3L9.8,943.1L34.8,1038.8L38.1,1065.5L36.2,1134.5L40.3,1162.3L47.9,1190.6L52.2,1217.4L46.6,1240.4L59.5,1270.5L65.7,1317.3L77.9,1360.5L108.9,1379.5L116.6,1389.4L120.1,1412.3L119.9,1437.2L111.6,1472.9L117.1,1491.8L172.8,1584.4L184.9,1616.5L205.8,1737.8L201.4,1770.3L175.4,1797.5L155.1,1800.1L248.3,1940.4L306.3,2003.1L363.6,2027.9L430.2,2037.9L492.1,2037.5L547.1,2017.0L615.4,1953.9L611.5,1943.9L619.4,1930.5Z " data-id="QA.RA" data-name="Ar RayyÄn" id="QA.RA"/>
utf-8utf-8<path d="M901.1,1199.7L876.7,1229.0L851.6,1248.3L834.3,1261.7L819.5,1277.4L796.4,1302.0L784.7,1357.0L768.1,1400.0L686.0,1363.1L697.3,1465.3L574.9,1465.3L619.4,1930.5L636.2,1923.1L655.3,1920.8L669.3,1915.2L679.6,1906.6L686.7,1907.2L690.5,1929.5L728.5,1925.4L748.5,1928.0L758.3,1942.1L755.0,1968.1L747.1,1988.2L744.7,2006.1L759.2,2025.1L767.6,2007.4L781.2,1991.4L793.1,1971.6L796.2,1942.1L804.6,1932.7L846.2,1904.7L858.8,1885.2L861.1,1831.9L864.7,1807.7L876.6,1797.5L881.0,1783.8L899.3,1661.7L903.6,1650.6L910.3,1645.7L920.0,1642.3L928.2,1637.4L936.8,1606.3L970.3,1561.0L982.0,1536.8L991.3,1459.9L999.8,1449.0L992.5,1433.9L991.4,1302.8L978.8,1197.6L972.7,1175.0L965.2,1174.1L931.3,1167.8L901.1,1199.7Z " data-id="QA.WA" data-name="Al Wakrah" id="QA.WA"/>
utf-8utf-8<path d="M854.6,673.7L855.5,645.9L847.8,633.0L833.2,620.1L815.5,609.3L798.8,602.4L833.9,581.0L848.3,576.4L856.0,609.4L876.9,600.5L888.3,570.9L867.7,541.5L864.7,551.0L858.2,558.5L848.9,559.7L838.1,550.3L835.3,538.4L837.9,523.8L844.3,511.3L852.4,505.9L862.3,510.2L870.4,528.6L877.2,532.8L885.3,526.6L887.0,511.8L885.5,494.5L852.1,355.7L842.0,333.4L828.0,313.8L811.8,298.1L792.2,283.8L771.9,272.6L749.3,265.2L722.3,262.5L675.6,266.5L666.9,264.9L667.3,270.0L683.6,420.9L606.3,421.6L601.0,372.8L548.3,372.7L543.9,332.1L486.2,332.1L482.4,295.2L329.0,295.2L342.8,427.8L199.3,426.6L199.2,426.7L204.5,441.1L203.4,461.8L195.1,479.2L180.8,490.1L350.1,490.2L355.7,544.8L474.7,544.8L489.6,611.8L526.4,689.3L577.0,757.0L594.8,775.6L702.5,776.0L700.4,699.6L745.4,640.0L810.7,666.5L840.9,684.9L854.6,673.7Z " data-id="QA.KH" data-name="Al Khawr" id="QA.KH"/>
utf-8utf-8<path d="M199.2,426.7L199.3,426.6L342.8,427.8L329.0,295.2L482.4,295.2L486.2,332.1L543.9,332.1L548.3,372.7L601.0,372.8L606.3,421.6L683.6,420.9L667.3,270.0L666.9,264.9L666.9,264.9L653.0,262.4L634.3,245.9L626.4,222.3L622.5,196.1L613.9,174.8L592.3,166.1L579.6,154.2L575.8,126.6L574.7,94.8L570.3,70.3L550.6,49.6L458.6,0.0L421.7,26.4L400.1,33.8L379.4,26.1L375.4,45.2L352.9,72.6L349.1,92.1L340.3,99.4L296.5,118.6L280.4,122.5L250.7,136.4L232.3,169.6L215.6,245.9L208.9,245.9L204.9,238.5L201.2,234.8L191.4,227.7L194.4,285.6L192.4,310.3L171.5,383.2L172.4,410.3L190.0,428.5L196.6,419.8L199.2,426.7Z " data-id="QA.MS" data-name="Madinat ach Shamal" id="QA.MS"/>
utf-8utf-8<path d="M594.8,775.6L577.0,757.0L586.9,857.8L618.8,988.0L705.1,995.0L775.7,1019.5L727.2,935.0L715.3,845.5L702.5,776.0L594.8,775.6Z " data-id="QA.US" data-name="Umm Salal" id="QA.US"/>
utf-8utf-8<path d="M702.5,776.0L715.3,845.5L727.2,935.0L775.7,1019.5L850.0,990.0L847.7,934.7L843.9,917.0L835.6,899.0L788.0,825.3L784.2,813.5L789.1,801.2L797.0,789.2L801.9,778.0L802.2,756.9L792.9,690.2L800.7,693.1L808.7,698.1L822.7,689.6L840.9,684.9L810.7,666.5L745.4,640.0L700.4,699.6L702.5,776.0Z " data-id="QA.DY" data-name="Al Daayen" id="QA.DY"/>
utf-8</g>
</svg>
