<?xml version="1.0" ?>
<!DOCTYPE svg
  PUBLIC '-//W3C//DTD SVG 1.1//EN'
  'http://www.w3.org/Graphics/SVG/1.1/DTD/svg11.dtd'>
<svg enable_background="new 0 0 1000 595" height="595px" pretty_print="True" style="stroke-linejoin: round; stroke:#000; fill: none;" version="1.1" viewBox="0 0 1000 595" width="1000px" xmlns="http://www.w3.org/2000/svg" xmlns:xlink="http://www.w3.org/1999/xlink">
utf-8<defs>
utf-8utf-8<style type="text/css">
<![CDATA[path { fill-rule: evenodd; }]]>utf-8utf-8</style>
utf-8</defs>
utf-8<metadata>
utf-8utf-8<views>
utf-8utf-8utf-8<view h="595.759029687" padding="0" w="1000">
utf-8utf-8utf-8utf-8<proj flip="auto" id="robinson" lon0="23.6707256488"/>
utf-8utf-8utf-8utf-8<bbox h="75.51" w="126.95" x="266.93" y="-806.98"/>
utf-8utf-8utf-8</view>
utf-8utf-8</views>
utf-8</metadata>
utf-8<g class="" id="provinces">
utf-8utf-8<path d="M386.7,456.1L383.6,456.2L383.4,457.3L384.4,462.8L383.9,470.2L379.0,470.4L369.4,473.1L360.5,479.0L359.2,480.5L353.3,480.2L348.0,482.1L341.5,482.5L339.8,483.5L342.3,484.2L337.8,489.7L334.4,491.0L332.7,496.1L334.2,498.4L337.6,498.8L340.5,500.7L336.4,501.5L331.2,504.3L330.4,505.4L329.4,513.6L327.6,517.7L329.5,525.9L329.3,527.4L324.3,528.5L316.5,536.4L319.0,537.3L320.4,541.3L319.0,545.2L315.6,546.9L307.1,548.7L305.1,549.9L304.3,552.8L302.8,562.3L303.2,565.2L304.7,567.6L307.6,569.6L310.9,570.3L333.1,568.6L336.1,567.4L339.7,566.7L343.4,564.8L352.8,563.6L369.7,564.4L381.7,569.9L386.3,570.6L395.0,568.8L397.4,569.2L403.7,572.3L441.4,580.4L445.9,569.7L448.3,567.4L449.1,564.7L450.9,562.9L451.5,557.4L449.7,555.3L450.7,552.5L452.6,551.5L452.6,548.2L451.9,547.1L449.0,545.7L445.7,545.6L442.9,543.4L443.7,536.3L448.9,536.5L446.9,532.0L445.3,527.0L445.9,522.4L445.1,521.2L434.9,515.6L429.0,508.7L426.5,507.1L422.0,501.7L420.4,500.3L416.7,499.1L405.9,490.8L405.2,488.0L406.3,485.7L409.8,481.7L406.5,479.0L403.1,474.8L400.2,468.5L398.1,466.6L389.8,462.3L389.0,460.0L387.9,457.1L386.7,456.1Z " data-id="RO.DJ" data-name="Dolj" id="RO.DJ"/>
utf-8utf-8<path d="M388.4,449.7L388.1,442.9L384.9,428.2L387.7,411.2L386.7,405.1L388.1,399.0L384.8,389.8L384.7,387.3L385.5,382.3L384.0,379.9L380.1,378.3L373.8,378.9L362.0,377.3L358.7,376.4L352.5,378.3L343.3,382.7L338.0,380.4L324.0,383.8L318.6,386.8L315.7,387.1L312.4,385.9L308.2,385.8L301.9,388.3L296.3,386.4L291.9,386.2L286.2,383.8L264.8,390.8L258.3,396.3L255.8,399.7L255.0,402.8L257.8,404.8L261.8,405.0L264.3,407.1L264.0,409.8L268.3,411.4L273.3,416.5L277.0,417.6L281.8,417.2L294.6,425.0L294.7,430.6L297.7,440.4L298.5,441.8L308.9,451.1L317.7,457.7L322.3,460.0L341.0,464.5L343.5,465.5L350.7,469.5L357.2,474.6L358.4,475.9L360.5,479.0L369.4,473.1L379.0,470.4L383.9,470.2L384.4,462.8L383.4,457.3L383.6,456.2L386.7,456.1L387.9,457.1L388.4,449.7Z " data-id="RO.GJ" data-name="Gorj" id="RO.GJ"/>
utf-8utf-8<path d="M358.4,475.9L357.2,474.6L350.7,469.5L343.5,465.5L341.0,464.5L322.3,460.0L317.7,457.7L308.9,451.1L298.5,441.8L297.7,440.4L294.7,430.6L294.6,425.0L281.8,417.2L277.0,417.6L273.3,416.5L268.3,411.4L264.0,409.8L260.1,413.9L257.2,418.5L255.9,427.0L255.0,430.0L251.4,436.3L249.4,442.1L248.5,448.2L245.8,453.3L244.3,453.5L241.8,452.5L241.0,451.1L238.5,450.0L235.1,450.1L232.4,449.2L228.5,446.1L224.8,445.7L223.8,450.0L220.3,457.7L219.5,462.8L221.8,470.0L220.7,472.5L217.2,473.1L214.6,472.4L207.5,473.2L207.8,474.0L212.5,479.0L214.1,482.7L216.0,484.2L223.2,484.8L224.4,483.5L234.3,464.8L234.7,462.8L236.1,461.8L240.4,460.9L242.3,459.9L246.6,455.6L252.8,456.9L260.8,463.9L264.7,466.4L268.4,467.9L276.7,468.8L278.3,469.8L284.2,474.9L283.8,477.2L282.2,478.8L275.6,479.7L271.6,477.4L265.1,477.1L263.7,478.4L262.5,484.0L255.9,485.5L255.6,486.7L256.1,491.1L258.5,492.9L261.7,501.4L264.9,504.7L268.7,507.3L272.9,508.9L277.3,509.5L279.3,510.3L280.4,512.0L280.6,518.2L305.5,533.5L309.5,535.0L314.3,535.6L316.5,536.4L324.3,528.5L329.3,527.4L329.5,525.9L327.6,517.7L329.4,513.6L330.4,505.4L331.2,504.3L336.4,501.5L340.5,500.7L337.6,498.8L334.2,498.4L332.7,496.1L334.4,491.0L337.8,489.7L342.3,484.2L339.8,483.5L341.5,482.5L348.0,482.1L353.3,480.2L359.2,480.5L360.5,479.0L358.4,475.9Z " data-id="RO.MH" data-name="Mehedinti" id="RO.MH"/>
utf-8utf-8<path d="M454.7,434.8L452.0,432.6L448.6,434.9L446.2,439.5L445.2,447.0L442.7,452.3L440.9,454.1L443.9,463.4L443.7,465.6L447.8,472.5L448.3,474.8L445.8,475.6L444.3,473.9L443.8,470.9L440.8,471.0L440.0,474.8L439.3,475.7L434.3,477.5L431.8,476.9L428.1,477.6L424.4,482.8L421.5,482.6L420.3,481.1L413.6,479.5L409.8,481.7L406.3,485.7L405.2,488.0L405.9,490.8L416.7,499.1L420.4,500.3L422.0,501.7L426.5,507.1L429.0,508.7L434.9,515.6L445.1,521.2L445.9,522.4L445.3,527.0L446.9,532.0L448.9,536.5L443.7,536.3L442.9,543.4L445.7,545.6L449.0,545.7L451.9,547.1L452.6,548.2L452.6,551.5L450.7,552.5L449.7,555.3L451.5,557.4L450.9,562.9L449.1,564.7L448.3,567.4L445.9,569.7L441.4,580.4L442.5,580.7L465.0,579.3L470.4,575.4L474.0,574.4L477.6,574.7L495.3,580.3L497.2,577.6L503.3,572.8L502.5,570.8L497.1,564.3L492.7,557.6L488.5,550.3L488.6,546.0L490.5,543.5L498.2,541.1L501.0,538.1L506.9,536.4L508.6,534.4L507.0,528.0L506.7,524.6L507.4,520.2L507.3,517.4L504.5,502.4L505.5,499.5L503.1,498.1L498.0,497.8L495.3,494.2L494.1,488.6L492.4,484.3L492.6,479.6L490.9,473.9L487.1,464.2L484.1,460.5L487.6,455.8L486.1,454.6L481.0,454.9L479.3,454.4L475.6,451.2L469.9,442.7L468.3,436.2L465.9,435.9L463.2,441.1L459.3,444.3L456.7,443.8L455.2,440.8L454.7,434.8Z " data-id="RO.OT" data-name="Olt" id="RO.OT"/>
utf-8utf-8<path d="M608.5,585.0L605.1,572.0L604.3,570.3L601.4,567.2L599.7,564.0L595.4,550.8L593.4,539.8L595.5,530.8L600.1,528.8L599.0,521.9L598.5,516.6L596.1,512.4L590.6,508.7L589.0,508.2L579.6,507.2L577.0,504.8L575.2,501.3L572.5,497.4L574.4,490.9L575.4,486.3L573.0,484.7L570.4,484.5L564.2,482.1L560.4,481.9L561.0,485.2L554.7,493.7L551.8,494.3L549.5,493.5L546.0,492.0L540.0,491.4L535.3,492.2L527.3,496.4L524.0,496.0L519.1,499.4L515.7,499.8L509.9,498.5L505.5,499.5L504.5,502.4L507.3,517.4L507.4,520.2L506.7,524.6L507.0,528.0L508.6,534.4L506.9,536.4L501.0,538.1L498.2,541.1L490.5,543.5L488.6,546.0L488.5,550.3L492.7,557.6L497.1,564.3L502.5,570.8L503.3,572.8L497.2,577.6L495.3,580.3L500.0,581.8L505.1,582.5L527.1,581.1L540.0,585.0L553.7,585.9L558.2,586.8L566.1,591.3L570.2,593.2L574.9,593.8L581.4,591.5L590.7,591.2L596.7,589.0L602.0,585.2L608.5,585.0Z " data-id="RO.TR" data-name="Teleorman" id="RO.TR"/>
utf-8utf-8<path d="M647.2,493.9L642.2,490.4L643.9,483.9L635.5,482.2L633.5,473.6L626.7,475.9L622.7,483.6L628.4,485.7L628.9,489.7L622.1,490.2L622.6,494.3L630.3,500.7L636.3,501.9L642.0,507.6L644.6,505.5L640.4,498.5L640.9,496.5L646.1,497.9L647.2,493.9Z " data-id="RO.BI" data-name="Bucharest" id="RO.BI"/>
utf-8utf-8<path d="M821.9,499.5L811.9,496.0L807.2,493.4L801.5,489.4L795.5,488.3L792.3,487.0L777.4,484.6L774.2,484.5L767.0,486.3L748.3,486.0L742.3,486.9L736.6,486.5L728.5,483.7L723.9,483.1L718.0,484.0L712.7,482.1L705.7,482.1L701.8,480.7L698.0,477.7L695.4,478.2L694.1,480.0L689.9,482.0L685.3,481.6L681.7,479.4L677.0,478.7L669.1,482.5L667.4,483.6L667.2,486.0L672.6,488.8L671.9,491.6L670.9,492.7L664.9,495.3L659.2,501.1L657.0,504.9L656.3,508.2L661.8,513.2L671.7,518.1L674.4,520.4L677.3,525.6L677.6,532.6L675.0,536.4L674.7,541.1L695.2,538.4L704.7,535.4L709.5,535.4L713.1,534.4L722.3,529.3L734.5,528.2L737.0,526.6L745.2,530.8L756.5,532.7L758.9,533.8L761.4,533.6L761.6,533.7L765.3,529.9L781.5,532.1L785.2,530.6L788.4,527.2L793.5,524.3L797.4,523.0L806.3,523.1L810.5,522.5L815.8,518.6L830.6,515.3L833.9,513.4L836.2,510.4L838.4,504.0L821.9,499.5Z " data-id="RO.CL" data-name="Calarasi" id="RO.CL"/>
utf-8utf-8<path d="M622.0,454.8L618.4,452.8L610.2,445.2L606.6,443.7L601.6,443.1L599.4,441.2L598.7,438.8L598.5,433.3L597.8,431.6L594.9,428.5L590.1,428.8L586.5,427.1L585.4,425.7L583.2,420.9L581.9,415.4L580.3,412.7L575.4,408.5L568.5,398.9L564.8,395.4L562.9,392.9L561.9,386.4L561.1,384.9L555.1,380.1L554.2,378.9L552.1,371.7L549.2,363.6L547.2,364.5L545.5,368.3L543.9,370.4L537.7,371.8L539.7,374.3L541.1,378.3L539.0,384.2L537.8,389.3L536.8,397.0L534.4,399.8L533.5,400.0L527.8,397.7L527.1,400.0L526.6,405.0L528.3,410.0L530.0,412.2L533.7,415.5L535.2,418.0L535.7,421.9L533.1,424.8L533.2,430.6L536.3,439.6L536.7,450.0L535.3,457.9L539.3,461.2L536.9,465.7L541.4,471.5L546.6,474.9L549.1,475.2L551.5,477.1L551.5,478.2L549.6,482.6L551.3,487.5L551.3,489.9L549.5,493.5L551.8,494.3L554.7,493.7L561.0,485.2L560.4,481.9L564.2,482.1L570.4,484.5L573.0,484.7L575.4,481.5L576.5,480.4L578.4,479.5L581.2,478.7L613.3,477.1L615.4,475.4L619.8,470.3L620.5,466.9L616.8,465.8L616.5,463.5L618.5,462.1L619.8,458.6L620.9,457.8L623.2,455.1L622.0,454.8Z " data-id="RO.DB" data-name="Dâmbovita" id="RO.DB"/>
utf-8utf-8<path d="M651.3,513.4L647.7,515.9L646.4,516.2L641.6,515.7L638.1,514.0L629.3,507.8L624.7,507.0L622.8,504.8L616.2,502.1L614.0,498.1L614.2,492.4L616.2,487.0L616.5,482.0L613.3,477.1L581.2,478.7L578.4,479.5L576.5,480.4L575.4,481.5L573.0,484.7L575.4,486.3L574.4,490.9L572.5,497.4L575.2,501.3L577.0,504.8L579.6,507.2L589.0,508.2L590.6,508.7L596.1,512.4L598.5,516.6L599.0,521.9L600.1,528.8L595.5,530.8L593.4,539.8L595.4,550.8L599.7,564.0L601.4,567.2L604.3,570.3L605.1,572.0L608.5,585.0L609.2,585.0L613.3,583.3L618.6,576.1L621.5,574.6L625.8,569.0L627.2,565.7L638.8,557.6L640.9,553.1L644.3,549.3L647.7,547.6L656.0,545.7L663.8,542.5L666.1,542.2L674.7,541.1L675.0,536.4L677.6,532.6L677.3,525.6L674.4,520.4L671.7,518.1L661.8,513.2L656.3,508.2L651.3,513.4Z " data-id="RO.GR" data-name="Giurgiu" id="RO.GR"/>
utf-8utf-8<path d="M742.2,445.7L741.9,447.0L745.3,449.6L738.8,452.2L735.7,447.2L731.3,444.8L727.2,444.3L723.7,446.8L722.2,446.8L714.8,443.8L709.2,444.4L698.9,442.7L692.0,443.2L687.6,442.6L683.7,439.9L681.2,438.8L678.9,441.7L677.9,443.8L673.5,446.2L667.7,445.8L666.4,446.1L660.1,449.2L654.8,447.8L651.4,449.3L648.0,452.3L650.1,452.8L656.1,454.3L658.7,461.9L659.9,463.1L666.7,466.2L667.7,467.1L667.2,469.7L662.1,474.0L661.5,477.2L663.0,479.3L666.4,480.8L669.1,482.5L677.0,478.7L681.7,479.4L685.3,481.6L689.9,482.0L694.1,480.0L695.4,478.2L698.0,477.7L701.8,480.7L705.7,482.1L712.7,482.1L718.0,484.0L723.9,483.1L728.5,483.7L736.6,486.5L742.3,486.9L748.3,486.0L767.0,486.3L774.2,484.5L777.4,484.6L792.3,487.0L795.5,488.3L801.5,489.4L807.2,493.4L811.9,496.0L821.9,499.5L838.4,504.0L840.3,498.4L845.0,494.3L846.0,492.8L843.3,485.9L842.4,484.9L837.7,483.7L835.2,482.6L834.3,479.9L834.8,478.8L834.2,474.2L834.7,472.9L834.3,468.0L828.0,462.6L821.3,460.6L816.3,454.3L817.8,451.1L819.4,450.3L815.8,447.7L810.6,445.3L805.8,445.8L799.6,448.1L795.6,448.8L767.0,448.1L761.1,446.3L757.1,447.9L753.4,447.7L744.4,444.7L742.2,445.7Z " data-id="RO.IL" data-name="Ialomita" id="RO.IL"/>
utf-8utf-8<path d="M834.4,450.1L832.5,451.9L830.4,452.5L828.4,452.1L825.0,450.3L821.0,450.0L819.4,450.3L817.8,451.1L816.3,454.3L821.3,460.6L828.0,462.6L834.3,468.0L834.7,472.9L834.2,474.2L834.8,478.8L834.3,479.9L835.2,482.6L837.7,483.7L842.4,484.9L843.3,485.9L846.0,492.8L845.0,494.3L840.3,498.4L838.4,504.0L836.2,510.4L833.9,513.4L830.6,515.3L815.8,518.6L810.5,522.5L806.3,523.1L797.4,523.0L793.5,524.3L788.4,527.2L785.2,530.6L781.5,532.1L765.3,529.9L761.6,533.7L763.5,534.9L763.3,537.8L765.8,540.0L772.1,542.4L775.9,546.6L777.2,547.3L797.2,547.1L803.1,545.4L805.6,546.2L813.8,555.7L820.5,554.2L827.2,550.6L836.0,553.7L842.7,568.4L846.6,570.8L869.5,579.5L892.4,582.9L907.4,582.1L907.7,580.9L907.6,572.2L908.3,565.2L910.5,559.6L910.6,557.8L912.5,548.8L909.8,542.2L906.7,531.9L905.6,529.5L906.9,527.3L909.0,525.7L906.4,519.8L903.7,515.5L903.2,510.7L904.5,505.9L907.3,504.2L908.8,505.1L909.6,500.6L917.5,489.6L921.9,486.3L927.2,474.7L920.3,478.6L917.7,482.3L914.8,484.5L913.5,489.9L912.6,489.7L911.8,487.2L913.6,478.8L910.5,477.0L909.2,478.8L909.0,476.8L910.4,475.5L914.4,474.4L911.2,472.2L910.5,469.3L914.3,468.3L912.7,472.6L914.0,471.5L920.5,468.3L925.1,464.0L928.6,463.1L929.6,460.4L932.2,461.6L932.2,463.7L929.3,468.3L931.7,467.7L933.2,465.6L933.7,463.1L933.0,460.9L931.1,459.8L923.6,457.8L925.4,460.4L919.3,466.1L913.8,467.0L912.3,464.4L912.5,462.5L906.4,461.3L900.0,458.6L893.4,460.4L885.2,460.4L877.2,457.7L871.2,452.2L865.2,452.2L863.7,457.7L859.3,458.6L849.2,451.2L843.7,449.4L834.4,450.1Z " data-id="RO.CT" data-name="Constanta" id="RO.CT"/>
utf-8utf-8<path d="M248.3,246.1L243.3,245.8L235.3,244.3L225.9,244.1L222.6,243.1L219.2,238.3L211.2,235.8L205.9,232.1L199.3,229.6L197.5,227.9L192.3,219.1L191.4,218.2L185.7,215.1L182.9,214.6L173.7,214.3L167.9,211.5L163.2,211.1L157.3,208.5L123.0,210.2L115.7,208.5L115.2,210.2L113.3,212.6L111.2,213.6L107.4,213.4L105.2,213.9L103.8,215.5L103.6,222.9L99.8,229.2L99.8,231.9L103.3,236.9L104.3,239.7L102.1,241.3L97.7,241.4L95.7,242.0L94.2,243.8L93.4,246.6L93.6,252.3L92.0,256.8L83.0,262.9L81.2,263.5L79.0,262.0L73.5,261.3L69.5,259.9L64.5,260.5L60.6,258.4L58.5,258.3L54.4,259.8L50.6,262.7L51.0,269.3L48.3,269.1L47.8,270.0L47.9,271.6L49.5,272.1L65.0,281.0L69.1,284.2L70.4,286.7L74.9,289.7L81.4,290.7L85.4,290.2L87.7,290.7L89.6,294.3L94.1,296.7L96.3,295.0L96.2,293.5L98.6,290.8L100.1,290.6L102.4,294.1L108.7,297.3L110.9,295.5L115.3,294.9L119.4,296.8L121.5,294.7L125.1,288.9L126.1,288.4L133.0,289.1L133.9,289.8L136.5,293.9L141.5,294.3L147.9,299.8L147.6,302.4L152.4,305.8L153.8,303.2L156.5,299.8L157.9,299.8L163.7,302.5L165.2,304.3L167.4,300.2L173.1,301.7L174.8,300.5L175.2,297.6L176.5,295.8L181.7,296.0L185.3,298.6L192.4,299.8L194.8,302.6L196.6,303.2L199.5,305.5L206.2,305.8L209.8,307.1L216.3,304.2L219.1,303.3L220.3,300.6L222.1,299.7L226.3,294.4L227.2,292.1L227.2,287.1L225.8,284.1L227.5,278.6L227.8,274.8L227.0,270.6L228.1,267.9L230.3,266.0L233.5,265.1L239.4,266.3L245.7,265.2L247.7,263.5L251.8,254.6L258.1,250.3L252.6,245.8L248.3,246.1Z " data-id="RO.AR" data-name="Arad" id="RO.AR"/>
utf-8utf-8<path d="M224.4,120.7L220.8,115.1L213.1,111.3L208.8,112.9L200.8,112.1L197.6,106.9L190.5,98.6L186.0,95.9L183.7,93.7L182.1,91.2L179.2,87.7L179.1,87.8L177.4,89.7L172.5,90.8L166.6,94.9L163.9,97.7L162.3,100.9L163.0,104.9L164.4,109.3L165.0,113.6L163.3,117.2L158.9,118.4L155.5,121.1L152.0,126.1L149.2,136.7L149.9,140.6L146.6,145.1L145.2,149.7L142.7,152.6L138.0,155.5L135.9,157.4L132.3,161.5L136.3,165.4L135.0,171.8L129.9,176.1L129.6,184.1L128.7,184.9L125.0,185.7L123.0,187.5L121.9,189.6L120.3,194.8L120.3,198.5L123.3,200.1L123.2,202.7L121.6,205.1L116.8,206.5L115.9,208.0L115.7,208.5L123.0,210.2L157.3,208.5L163.2,211.1L167.9,211.5L173.7,214.3L182.9,214.6L185.7,215.1L191.4,218.2L192.3,219.1L197.5,227.9L199.3,229.6L205.9,232.1L211.2,235.8L219.2,238.3L222.6,243.1L225.9,244.1L235.3,244.3L243.3,245.8L248.3,246.1L252.6,245.8L249.9,239.0L248.8,231.1L249.8,224.8L253.1,220.5L258.1,220.7L259.8,221.6L259.3,216.8L258.8,212.5L255.4,210.3L254.3,208.7L251.8,202.7L248.6,198.1L244.1,194.9L242.3,192.3L242.4,191.2L244.7,188.7L249.8,185.7L251.0,181.8L251.1,179.4L249.0,177.1L243.6,175.3L242.6,172.7L244.4,168.9L245.0,167.1L243.0,164.6L238.6,161.2L231.8,158.0L225.6,149.8L220.4,143.8L218.9,141.2L218.6,139.4L225.0,126.6L225.6,123.0L224.4,120.7Z " data-id="RO.BH" data-name="Bihor" id="RO.BH"/>
utf-8utf-8<path d="M264.6,388.3L265.2,386.3L267.1,383.3L266.4,377.8L263.6,373.7L265.4,368.7L263.9,362.2L262.2,358.5L259.2,354.9L253.4,351.5L250.5,348.9L247.0,348.5L246.1,345.0L241.7,344.1L240.2,343.2L236.7,339.5L235.6,336.6L224.3,338.5L220.7,340.9L218.4,346.1L213.8,346.4L209.8,344.1L202.5,347.8L194.4,348.7L193.8,349.2L194.2,356.3L192.3,356.9L187.7,356.5L186.7,355.9L183.2,350.9L179.5,350.0L176.0,352.0L171.4,353.9L166.3,353.9L164.8,352.4L157.9,349.7L152.9,349.3L147.5,352.6L147.3,356.7L145.4,359.3L141.2,361.4L138.6,364.0L139.2,367.5L138.0,370.5L138.5,373.7L146.8,381.1L147.8,387.2L145.9,389.5L145.9,391.8L146.8,395.3L146.1,398.9L144.4,401.1L142.5,402.0L143.6,403.0L142.8,407.3L141.5,407.4L138.1,414.3L137.9,416.1L136.4,418.5L132.7,419.0L130.7,421.8L134.3,423.3L134.6,425.5L137.2,426.9L142.3,427.7L148.8,430.0L150.5,431.2L151.5,433.3L151.5,435.7L150.1,436.8L143.1,438.3L137.0,438.0L132.2,441.3L132.0,443.1L136.0,445.0L138.1,448.4L139.9,449.1L148.9,450.0L155.2,449.5L157.3,450.0L159.3,451.5L162.6,458.2L166.7,461.5L172.0,462.9L177.4,462.8L189.2,460.4L199.1,464.8L202.5,465.2L203.6,466.1L207.2,472.3L207.5,473.2L214.6,472.4L217.2,473.1L220.7,472.5L221.8,470.0L219.5,462.8L220.3,457.7L223.8,450.0L224.8,445.7L228.5,446.1L232.4,449.2L235.1,450.1L238.5,450.0L241.0,451.1L241.8,452.5L244.3,453.5L245.8,453.3L248.5,448.2L249.4,442.1L251.4,436.3L255.0,430.0L255.9,427.0L257.2,418.5L260.1,413.9L264.0,409.8L264.3,407.1L261.8,405.0L257.8,404.8L255.0,402.8L255.8,399.7L258.3,396.3L264.8,390.8L264.6,388.3Z " data-id="RO.CS" data-name="Caras-Severin" id="RO.CS"/>
utf-8utf-8<path d="M47.9,271.9L44.1,275.6L38.4,276.6L35.2,275.6L32.0,273.2L27.7,271.7L23.4,270.9L21.2,274.4L4.6,274.8L0.8,279.4L8.1,286.4L9.5,288.3L12.3,294.2L14.1,296.3L22.2,300.1L28.1,304.5L37.9,307.7L41.8,313.1L45.4,315.5L46.8,320.4L51.8,326.3L55.9,327.2L59.5,323.3L61.8,325.1L61.5,328.8L62.3,335.5L60.5,344.0L61.1,346.1L64.6,350.6L66.2,353.6L66.1,355.4L62.6,358.4L63.5,360.2L68.8,362.3L74.2,367.9L81.5,373.2L86.0,377.8L96.6,382.4L101.0,385.0L104.5,382.7L106.3,383.8L112.3,390.1L117.9,392.9L122.3,393.0L133.7,396.0L139.6,399.3L142.5,402.0L144.4,401.1L146.1,398.9L146.8,395.3L145.9,391.8L145.9,389.5L147.8,387.2L146.8,381.1L138.5,373.7L138.0,370.5L139.2,367.5L138.6,364.0L141.2,361.4L145.4,359.3L147.3,356.7L147.5,352.6L152.9,349.3L157.9,349.7L164.8,352.4L166.3,353.9L171.4,353.9L176.0,352.0L179.5,350.0L183.2,350.9L186.7,355.9L187.7,356.5L192.3,356.9L194.2,356.3L193.8,349.2L194.4,348.7L202.5,347.8L209.8,344.1L213.8,346.4L218.4,346.1L220.7,340.9L224.3,338.5L235.6,336.6L236.4,336.3L237.4,331.9L239.6,328.2L243.4,324.9L243.9,322.2L242.7,321.6L239.9,322.3L235.6,316.6L229.3,310.9L227.2,305.1L226.0,303.0L222.1,299.7L220.3,300.6L219.1,303.3L216.3,304.2L209.8,307.1L206.2,305.8L199.5,305.5L196.6,303.2L194.8,302.6L192.4,299.8L185.3,298.6L181.7,296.0L176.5,295.8L175.2,297.6L174.8,300.5L173.1,301.7L167.4,300.2L165.2,304.3L163.7,302.5L157.9,299.8L156.5,299.8L153.8,303.2L152.4,305.8L147.6,302.4L147.9,299.8L141.5,294.3L136.5,293.9L133.9,289.8L133.0,289.1L126.1,288.4L125.1,288.9L121.5,294.7L119.4,296.8L115.3,294.9L110.9,295.5L108.7,297.3L102.4,294.1L100.1,290.6L98.6,290.8L96.2,293.5L96.3,295.0L94.1,296.7L89.6,294.3L87.7,290.7L85.4,290.2L81.4,290.7L74.9,289.7L70.4,286.7L69.1,284.2L65.0,281.0L49.5,272.1L47.9,271.6L47.9,271.9Z " data-id="RO.TM" data-name="Timis" id="RO.TM"/>
utf-8utf-8<path d="M576.8,38.2L579.6,46.1L585.2,50.3L589.7,53.3L595.3,55.8L598.0,57.9L611.3,70.5L613.7,73.3L621.4,80.5L623.0,82.3L626.7,85.2L631.8,96.3L632.7,102.8L633.4,104.1L639.1,108.9L643.5,109.4L647.1,106.0L650.1,100.8L656.0,102.9L673.3,103.0L676.3,104.4L680.6,107.9L682.6,108.4L687.3,104.8L685.0,101.3L685.5,98.3L686.5,97.6L693.3,99.3L698.5,101.1L701.3,101.1L706.8,93.2L707.8,92.5L715.0,92.8L720.3,90.6L720.0,89.9L716.5,88.5L713.3,86.0L705.6,78.5L702.7,75.0L701.4,72.2L702.9,70.1L701.7,67.0L699.8,65.8L694.2,59.5L697.5,57.6L692.9,55.1L692.1,49.7L690.0,47.8L686.3,45.5L687.8,43.5L684.6,40.9L686.0,37.6L684.6,36.5L683.3,37.1L680.6,33.7L677.1,32.9L679.0,31.1L673.4,28.0L671.3,25.5L670.2,21.6L671.1,20.4L668.5,18.0L667.4,18.9L662.4,17.0L662.3,16.1L665.1,14.0L661.5,12.8L659.8,10.0L658.4,9.0L655.6,11.6L654.9,9.5L649.3,4.8L648.3,5.4L645.6,2.9L643.8,2.1L639.7,2.8L637.6,2.5L636.2,0.5L629.3,0.1L621.7,3.3L609.1,5.7L601.0,6.7L597.8,8.1L593.3,8.1L593.1,12.4L593.7,15.3L593.1,19.4L590.8,26.1L586.2,30.6L583.8,36.3L579.2,38.2L576.8,38.2Z " data-id="RO.BT" data-name="Botosani" id="RO.BT"/>
utf-8utf-8<path d="M258.1,220.7L253.1,220.5L249.8,224.8L248.8,231.1L249.9,239.0L252.6,245.8L258.1,250.3L263.4,253.1L264.4,253.3L273.8,252.4L277.2,255.7L279.3,259.3L281.7,265.1L283.7,266.2L288.5,266.8L292.5,269.6L294.0,271.6L296.4,276.7L293.4,277.3L294.5,279.8L305.8,291.2L311.7,293.3L316.8,302.4L322.9,309.1L326.7,319.0L331.4,329.0L331.4,331.4L334.8,335.7L335.3,336.9L334.9,340.8L338.3,346.0L349.6,352.7L355.2,357.0L356.8,360.0L357.2,364.3L361.5,363.7L363.9,360.0L363.0,357.1L360.0,353.3L358.6,350.5L359.6,342.4L359.2,340.0L356.1,332.7L356.2,330.4L358.8,321.7L363.4,320.3L365.6,319.0L369.7,311.9L367.7,309.6L365.0,309.0L363.2,307.8L362.2,303.5L374.7,303.7L378.8,300.2L378.9,298.7L376.9,295.0L376.8,292.9L378.5,290.9L386.7,289.6L391.8,292.9L393.7,291.9L394.0,289.6L395.4,286.1L403.1,278.1L406.6,274.8L408.5,273.8L409.8,270.4L408.2,261.9L406.5,260.9L404.7,259.0L403.4,255.0L402.2,253.0L399.8,251.5L389.2,245.8L388.9,243.3L391.8,239.2L389.6,236.5L388.0,235.6L384.7,235.4L384.1,236.4L381.1,237.1L374.4,235.3L372.3,235.1L367.1,236.0L362.4,235.9L358.3,237.2L351.8,238.1L352.4,241.3L348.5,241.2L345.0,237.6L346.8,234.2L344.8,232.1L341.4,232.4L337.2,231.9L331.9,230.1L322.4,225.4L312.2,227.1L308.7,229.6L305.5,231.1L298.9,229.6L296.0,230.0L292.0,232.2L289.6,234.7L288.9,234.5L282.9,227.5L277.8,224.3L263.2,224.0L259.8,221.6L258.1,220.7Z " data-id="RO.AB" data-name="Alba" id="RO.AB"/>
utf-8utf-8<path d="M457.1,89.3L453.7,90.3L446.3,95.2L427.1,95.8L407.3,91.9L405.5,92.3L398.8,95.1L392.4,103.4L383.9,105.0L382.5,105.5L381.3,111.4L376.0,119.3L372.4,122.6L371.9,126.3L369.8,129.1L366.8,131.5L367.1,135.7L369.0,142.8L371.8,146.7L373.2,147.4L379.2,148.8L388.5,153.8L390.8,157.3L390.7,164.1L391.6,164.9L394.9,171.3L400.0,173.9L402.2,175.7L402.6,181.3L402.6,186.6L402.2,188.2L400.4,192.2L409.3,195.8L416.4,197.3L420.3,197.1L424.7,195.5L431.6,193.7L432.4,188.6L436.6,180.5L438.4,178.1L442.5,175.6L446.2,176.1L449.5,177.8L454.3,178.1L454.9,177.1L456.2,170.0L458.4,166.7L460.5,161.6L465.2,157.7L468.3,155.8L471.0,155.0L477.6,153.9L485.2,151.2L483.5,142.2L484.0,135.0L480.0,133.9L478.7,132.6L480.6,123.8L477.5,119.1L475.2,116.9L474.2,113.8L478.0,113.3L478.5,111.7L476.8,108.3L480.0,106.5L481.5,103.6L479.0,98.8L475.9,96.1L467.1,90.5L465.8,89.3L457.1,89.3Z " data-id="RO.BN" data-name="Bistrita-Nasaud" id="RO.BN"/>
utf-8utf-8<path d="M355.2,121.5L352.5,123.6L354.4,125.6L353.4,132.6L353.8,135.1L351.6,136.8L345.6,137.4L342.3,138.3L338.9,140.0L336.2,144.7L335.4,145.2L328.7,146.5L324.2,148.1L322.0,154.8L319.9,155.3L319.9,157.7L321.5,159.2L323.6,163.9L322.4,165.9L316.1,166.5L314.4,169.5L309.5,169.7L309.1,170.6L312.4,174.9L311.0,178.4L310.1,178.5L307.8,176.5L302.1,176.1L301.3,174.1L298.3,172.8L296.6,176.1L296.6,180.2L294.5,180.8L292.0,180.0L285.7,181.0L281.8,180.1L277.3,180.5L274.5,178.2L268.3,177.1L262.7,169.3L258.6,167.7L246.2,167.5L245.0,167.1L244.4,168.9L242.6,172.7L243.6,175.3L249.0,177.1L251.1,179.4L251.0,181.8L249.8,185.7L244.7,188.7L242.4,191.2L242.3,192.3L244.1,194.9L248.6,198.1L251.8,202.7L254.3,208.7L255.4,210.3L258.8,212.5L259.3,216.8L259.8,221.6L263.2,224.0L277.8,224.3L282.9,227.5L288.9,234.5L289.6,234.7L292.0,232.2L296.0,230.0L298.9,229.6L305.5,231.1L308.7,229.6L312.2,227.1L322.4,225.4L331.9,230.1L337.2,231.9L341.4,232.4L344.8,232.1L346.8,234.2L345.0,237.6L348.5,241.2L352.4,241.3L351.8,238.1L358.3,237.2L362.4,235.9L367.1,236.0L372.3,235.1L374.4,235.3L381.1,237.1L384.1,236.4L384.7,235.4L382.1,233.4L381.7,230.4L383.4,227.6L387.3,224.5L387.3,223.0L385.7,219.7L385.8,218.3L388.9,212.3L393.8,211.2L395.2,209.0L394.9,206.8L392.2,203.6L392.4,201.0L395.5,194.6L397.3,192.5L400.4,192.2L402.2,188.2L402.6,186.6L402.6,181.3L402.2,175.7L400.0,173.9L394.9,171.3L391.6,164.9L390.7,164.1L390.8,157.3L388.5,153.8L379.2,148.8L373.2,147.4L371.8,146.7L369.0,142.8L367.1,135.7L366.8,131.5L369.8,129.1L371.9,126.3L372.4,122.6L355.2,121.5Z " data-id="RO.CJ" data-name="Cluj" id="RO.CJ"/>
utf-8utf-8<path d="M356.8,360.0L355.2,357.0L349.6,352.7L338.3,346.0L334.9,340.8L335.3,336.9L334.8,335.7L331.4,331.4L331.4,329.0L326.7,319.0L322.9,309.1L316.8,302.4L311.7,293.3L305.8,291.2L294.5,279.8L293.4,277.3L296.4,276.7L294.0,271.6L292.5,269.6L288.5,266.8L283.7,266.2L281.7,265.1L279.3,259.3L277.2,255.7L273.8,252.4L264.4,253.3L263.4,253.1L258.1,250.3L251.8,254.6L247.7,263.5L245.7,265.2L239.4,266.3L233.5,265.1L230.3,266.0L228.1,267.9L227.0,270.6L227.8,274.8L227.5,278.6L225.8,284.1L227.2,287.1L227.2,292.1L226.3,294.4L222.1,299.7L226.0,303.0L227.2,305.1L229.3,310.9L235.6,316.6L239.9,322.3L242.7,321.6L243.9,322.2L243.4,324.9L239.6,328.2L237.4,331.9L236.4,336.3L235.6,336.6L236.7,339.5L240.2,343.2L241.7,344.1L246.1,345.0L247.0,348.5L250.5,348.9L253.4,351.5L259.2,354.9L262.2,358.5L263.9,362.2L265.4,368.7L263.6,373.7L266.4,377.8L267.1,383.3L265.2,386.3L264.6,388.3L264.8,390.8L286.2,383.8L291.9,386.2L296.3,386.4L301.9,388.3L308.2,385.8L312.4,385.9L315.7,387.1L318.6,386.8L324.0,383.8L338.0,380.4L343.3,382.7L352.5,378.3L358.7,376.4L359.8,372.7L359.3,371.3L357.4,367.4L357.0,366.2L357.2,364.3L356.8,360.0Z " data-id="RO.HD" data-name="Hunedoara" id="RO.HD"/>
utf-8utf-8<path d="M308.7,38.8L311.0,43.9L316.5,49.8L324.4,54.7L325.0,59.2L311.6,68.6L306.9,70.0L297.5,67.8L290.2,67.8L287.6,69.5L287.3,71.3L289.6,73.9L296.8,75.5L300.6,78.3L300.9,81.6L298.1,88.9L293.1,95.0L291.3,96.0L282.9,92.8L279.7,90.0L277.0,90.1L271.7,96.6L269.6,102.6L264.5,106.4L263.8,108.9L267.2,110.8L276.8,112.3L281.8,110.7L292.6,110.7L301.9,113.6L315.2,117.3L317.5,117.7L333.3,117.1L337.2,118.1L339.3,121.2L341.5,122.0L346.2,124.9L350.1,124.8L352.5,123.6L355.2,121.5L372.4,122.6L376.0,119.3L381.3,111.4L382.5,105.5L383.9,105.0L392.4,103.4L398.8,95.1L405.5,92.3L407.3,91.9L427.1,95.8L446.3,95.2L453.7,90.3L457.1,89.3L465.8,89.3L471.7,87.5L472.8,84.1L466.8,79.0L464.0,75.6L462.2,72.1L460.9,72.3L457.6,72.8L455.6,71.7L445.5,60.7L436.9,57.9L433.2,56.1L431.2,54.3L429.2,49.0L424.6,45.5L417.4,42.7L411.7,42.8L405.7,41.6L401.5,42.7L397.8,45.6L392.8,45.8L386.3,48.7L384.1,48.7L375.8,46.5L371.7,43.5L364.3,41.5L362.5,40.4L359.3,40.3L349.4,43.9L347.2,43.9L346.2,41.9L340.4,37.8L338.6,37.1L331.6,37.4L324.8,35.9L318.1,35.2L316.1,34.7L311.2,35.6L308.9,38.6L308.7,38.8Z " data-id="RO.MM" data-name="Maramures" id="RO.MM"/>
utf-8utf-8<path d="M494.7,152.7L485.2,151.2L477.6,153.9L471.0,155.0L468.3,155.8L465.2,157.7L460.5,161.6L458.4,166.7L456.2,170.0L454.9,177.1L454.3,178.1L449.5,177.8L446.2,176.1L442.5,175.6L438.4,178.1L436.6,180.5L432.4,188.6L431.6,193.7L424.7,195.5L420.3,197.1L416.4,197.3L409.3,195.8L400.4,192.2L397.3,192.5L395.5,194.6L392.4,201.0L392.2,203.6L394.9,206.8L395.2,209.0L393.8,211.2L388.9,212.3L385.8,218.3L385.7,219.7L387.3,223.0L387.3,224.5L383.4,227.6L381.7,230.4L382.1,233.4L384.7,235.4L388.0,235.6L389.6,236.5L391.8,239.2L388.9,243.3L389.2,245.8L399.8,251.5L402.2,253.0L403.4,255.0L404.7,259.0L406.5,260.9L408.2,261.9L415.9,261.8L419.6,261.2L425.6,263.2L427.5,263.4L434.3,261.9L444.9,261.6L447.4,259.3L451.5,260.0L456.9,259.0L458.3,259.5L457.1,262.1L458.3,266.8L459.7,274.2L462.1,280.4L464.1,282.3L470.5,282.6L473.1,281.2L483.3,280.3L487.7,282.7L493.0,285.1L492.0,282.4L493.6,278.9L498.5,276.2L508.0,275.8L513.1,274.8L504.0,267.3L498.0,263.6L496.3,263.1L491.4,263.2L487.3,261.2L478.0,252.6L477.9,249.9L482.5,247.4L484.9,246.9L486.4,244.2L482.5,241.6L483.0,239.8L489.2,237.5L490.6,235.6L490.5,230.8L491.4,228.1L496.8,222.7L505.0,218.1L508.2,213.2L513.5,208.6L514.3,206.1L513.5,202.6L513.6,195.6L509.7,188.2L508.8,185.3L509.3,176.6L508.0,168.7L505.3,164.0L502.8,162.0L501.0,159.5L499.7,154.6L494.7,152.7Z " data-id="RO.MS" data-name="Mures" id="RO.MS"/>
utf-8utf-8<path d="M350.1,124.8L346.2,124.9L341.5,122.0L339.3,121.2L337.2,118.1L333.3,117.1L317.5,117.7L315.2,117.3L301.9,113.6L292.6,110.7L281.8,110.7L276.8,112.3L278.3,114.1L279.3,115.8L279.1,118.6L275.4,121.5L273.6,123.9L269.1,121.0L264.8,120.1L259.0,116.5L247.3,113.8L242.6,114.4L229.7,120.0L225.6,123.0L225.0,126.6L218.6,139.4L218.9,141.2L220.4,143.8L225.6,149.8L231.8,158.0L238.6,161.2L243.0,164.6L245.0,167.1L246.2,167.5L258.6,167.7L262.7,169.3L268.3,177.1L274.5,178.2L277.3,180.5L281.8,180.1L285.7,181.0L292.0,180.0L294.5,180.8L296.6,180.2L296.6,176.1L298.3,172.8L301.3,174.1L302.1,176.1L307.8,176.5L310.1,178.5L311.0,178.4L312.4,174.9L309.1,170.6L309.5,169.7L314.4,169.5L316.1,166.5L322.4,165.9L323.6,163.9L321.5,159.2L319.9,157.7L319.9,155.3L322.0,154.8L324.2,148.1L328.7,146.5L335.4,145.2L336.2,144.7L338.9,140.0L342.3,138.3L345.6,137.4L351.6,136.8L353.8,135.1L353.4,132.6L354.4,125.6L352.5,123.6L350.1,124.8Z " data-id="RO.SJ" data-name="Salaj" id="RO.SJ"/>
utf-8utf-8<path d="M308.3,39.0L306.2,39.1L298.9,36.3L297.1,36.7L287.6,30.5L282.9,26.3L281.0,25.2L273.6,23.1L271.3,22.8L269.3,23.6L267.6,26.3L266.0,32.3L264.9,34.5L260.8,37.4L252.2,34.7L250.7,34.8L250.0,36.3L251.2,39.0L250.5,40.7L246.8,42.3L245.3,44.0L243.2,48.0L241.7,49.3L236.2,51.6L235.3,53.3L236.4,56.2L235.7,57.7L230.9,59.0L227.6,62.7L224.8,64.9L221.2,66.3L217.4,66.8L213.8,66.3L205.8,62.9L202.7,63.5L201.6,68.6L197.8,70.1L193.0,69.5L188.1,71.1L182.1,77.5L181.6,82.0L179.4,85.1L179.2,86.9L179.2,87.7L182.1,91.2L183.7,93.7L186.0,95.9L190.5,98.6L197.6,106.9L200.8,112.1L208.8,112.9L213.1,111.3L220.8,115.1L224.4,120.7L225.6,123.0L229.7,120.0L242.6,114.4L247.3,113.8L259.0,116.5L264.8,120.1L269.1,121.0L273.6,123.9L275.4,121.5L279.1,118.6L279.3,115.8L278.3,114.1L276.8,112.3L267.2,110.8L263.8,108.9L264.5,106.4L269.6,102.6L271.7,96.6L277.0,90.1L279.7,90.0L282.9,92.8L291.3,96.0L293.1,95.0L298.1,88.9L300.9,81.6L300.6,78.3L296.8,75.5L289.6,73.9L287.3,71.3L287.6,69.5L290.2,67.8L297.5,67.8L306.9,70.0L311.6,68.6L325.0,59.2L324.4,54.7L316.5,49.8L311.0,43.9L308.7,38.8L308.3,39.0Z " data-id="RO.SM" data-name="Satu Mare" id="RO.SM"/>
utf-8utf-8<path d="M533.8,368.2L526.7,357.1L524.9,355.4L519.5,352.9L515.2,349.9L512.5,348.6L500.8,347.3L488.9,348.0L486.0,349.4L481.5,345.3L478.4,344.3L471.9,344.8L453.6,349.6L455.3,353.7L454.6,359.4L452.1,364.4L452.2,367.3L455.6,378.0L453.7,380.9L455.2,386.6L455.6,394.0L459.8,399.3L461.2,404.2L459.4,416.2L459.2,424.0L458.7,426.7L461.7,431.4L461.2,434.8L457.6,439.0L455.2,440.8L456.7,443.8L459.3,444.3L463.2,441.1L465.9,435.9L468.3,436.2L469.9,442.7L475.6,451.2L479.3,454.4L481.0,454.9L486.1,454.6L487.6,455.8L484.1,460.5L487.1,464.2L490.9,473.9L492.6,479.6L492.4,484.3L494.1,488.6L495.3,494.2L498.0,497.8L503.1,498.1L505.5,499.5L509.9,498.5L515.7,499.8L519.1,499.4L524.0,496.0L527.3,496.4L535.3,492.2L540.0,491.4L546.0,492.0L549.5,493.5L551.3,489.9L551.3,487.5L549.6,482.6L551.5,478.2L551.5,477.1L549.1,475.2L546.6,474.9L541.4,471.5L536.9,465.7L539.3,461.2L535.3,457.9L536.7,450.0L536.3,439.6L533.2,430.6L533.1,424.8L535.7,421.9L535.2,418.0L533.7,415.5L530.0,412.2L528.3,410.0L526.6,405.0L527.1,400.0L527.8,397.7L533.5,400.0L534.4,399.8L536.8,397.0L537.8,389.3L539.0,384.2L541.1,378.3L539.7,374.3L537.7,371.8L533.8,368.2Z " data-id="RO.AG" data-name="Arges" id="RO.AG"/>
utf-8utf-8<path d="M487.7,282.7L483.3,280.3L473.1,281.2L470.5,282.6L464.1,282.3L462.1,280.4L459.7,274.2L458.3,266.8L457.1,262.1L458.3,259.5L456.9,259.0L451.5,260.0L447.4,259.3L444.9,261.6L434.3,261.9L427.5,263.4L425.6,263.2L419.6,261.2L415.9,261.8L408.2,261.9L409.8,270.4L408.5,273.8L406.6,274.8L403.1,278.1L395.4,286.1L394.0,289.6L393.7,291.9L391.8,292.9L386.7,289.6L378.5,290.9L376.8,292.9L376.9,295.0L378.9,298.7L378.8,300.2L374.7,303.7L362.2,303.5L363.2,307.8L365.0,309.0L367.7,309.6L369.7,311.9L365.6,319.0L363.4,320.3L358.8,321.7L356.2,330.4L356.1,332.7L359.2,340.0L359.6,342.4L358.6,350.5L360.0,353.3L363.0,357.1L363.9,360.0L361.5,363.7L363.6,363.9L366.8,362.3L369.8,360.1L374.1,359.3L376.6,357.0L378.1,356.5L395.4,356.0L399.4,356.4L406.8,358.0L416.7,352.8L418.1,352.3L432.2,349.4L453.6,349.6L471.9,344.8L471.4,342.2L467.1,329.2L463.2,323.3L464.7,319.8L473.2,316.4L473.5,315.0L467.8,305.2L468.3,304.4L472.7,302.3L475.8,300.0L480.2,300.1L479.3,296.2L485.4,292.1L491.1,287.7L493.0,285.1L487.7,282.7Z " data-id="RO.SB" data-name="Sibiu" id="RO.SB"/>
utf-8utf-8<path d="M432.2,349.4L418.1,352.3L416.7,352.8L406.8,358.0L399.4,356.4L395.4,356.0L378.1,356.5L376.6,357.0L374.1,359.3L369.8,360.1L366.8,362.3L363.6,363.9L361.5,363.7L357.2,364.3L357.0,366.2L357.4,367.4L359.3,371.3L359.8,372.7L358.7,376.4L362.0,377.3L373.8,378.9L380.1,378.3L384.0,379.9L385.5,382.3L384.7,387.3L384.8,389.8L388.1,399.0L386.7,405.1L387.7,411.2L384.9,428.2L388.1,442.9L388.4,449.7L387.9,457.1L389.0,460.0L389.8,462.3L398.1,466.6L400.2,468.5L403.1,474.8L406.5,479.0L409.8,481.7L413.6,479.5L420.3,481.1L421.5,482.6L424.4,482.8L428.1,477.6L431.8,476.9L434.3,477.5L439.3,475.7L440.0,474.8L440.8,471.0L443.8,470.9L444.3,473.9L445.8,475.6L448.3,474.8L447.8,472.5L443.7,465.6L443.9,463.4L440.9,454.1L442.7,452.3L445.2,447.0L446.2,439.5L448.6,434.9L452.0,432.6L454.7,434.8L455.2,440.8L457.6,439.0L461.2,434.8L461.7,431.4L458.7,426.7L459.2,424.0L459.4,416.2L461.2,404.2L459.8,399.3L455.6,394.0L455.2,386.6L453.7,380.9L455.6,378.0L452.2,367.3L452.1,364.4L454.6,359.4L455.3,353.7L453.6,349.6L432.2,349.4Z " data-id="RO.VL" data-name="Vâlcea" id="RO.VL"/>
utf-8utf-8<path d="M538.1,276.9L533.3,275.5L527.5,272.1L523.9,271.8L518.5,274.0L513.1,274.8L508.0,275.8L498.5,276.2L493.6,278.9L492.0,282.4L493.0,285.1L491.1,287.7L485.4,292.1L479.3,296.2L480.2,300.1L475.8,300.0L472.7,302.3L468.3,304.4L467.8,305.2L473.5,315.0L473.2,316.4L464.7,319.8L463.2,323.3L467.1,329.2L471.4,342.2L471.9,344.8L478.4,344.3L481.5,345.3L486.0,349.4L488.9,348.0L500.8,347.3L512.5,348.6L515.2,349.9L519.5,352.9L524.9,355.4L526.7,357.1L533.8,368.2L537.7,371.8L543.9,370.4L545.5,368.3L547.2,364.5L549.2,363.6L550.8,362.7L552.1,362.2L569.3,359.5L571.7,359.4L576.2,360.2L582.4,361.9L586.4,360.9L591.3,365.2L596.3,363.5L597.1,362.0L597.7,357.4L598.4,356.4L602.0,356.2L607.9,359.0L612.9,359.8L617.2,349.3L614.7,347.2L611.0,342.9L608.8,341.4L603.4,338.9L599.5,333.8L596.1,331.1L593.3,329.6L583.2,326.4L581.3,325.6L579.4,323.5L578.9,324.3L574.5,325.2L572.9,324.3L569.5,325.2L568.8,320.9L565.1,318.0L557.3,313.7L555.4,310.0L554.2,301.7L554.0,294.8L554.7,290.5L554.1,288.3L548.4,287.0L547.6,287.8L546.1,286.2L542.4,283.9L540.9,281.4L541.3,279.7L538.1,276.9Z " data-id="RO.BV" data-name="Brasov" id="RO.BV"/>
utf-8utf-8<path d="M596.9,279.0L587.2,278.4L584.1,277.1L580.1,273.6L575.6,270.7L570.8,264.2L569.6,260.6L564.5,256.4L562.8,255.6L554.5,261.0L548.1,268.5L543.3,275.2L541.3,279.7L540.9,281.4L542.4,283.9L546.1,286.2L547.6,287.8L548.4,287.0L554.1,288.3L554.7,290.5L554.0,294.8L554.2,301.7L555.4,310.0L557.3,313.7L565.1,318.0L568.8,320.9L569.5,325.2L572.9,324.3L574.5,325.2L578.9,324.3L579.4,323.5L581.3,325.6L583.2,326.4L593.3,329.6L596.1,331.1L599.5,333.8L603.4,338.9L608.8,341.4L611.0,342.9L614.7,347.2L617.2,349.3L621.1,348.2L627.5,347.6L628.0,346.8L629.2,341.8L630.2,341.4L635.7,344.3L639.3,343.5L640.1,342.4L642.9,333.7L643.3,329.0L644.8,325.4L643.6,321.3L642.4,318.6L642.5,312.3L643.1,305.8L643.0,303.9L644.1,299.7L649.6,290.5L647.7,289.8L644.1,283.7L639.8,281.1L640.4,277.7L638.7,274.7L634.6,272.6L631.2,270.1L627.4,272.7L623.2,273.9L596.9,279.0Z " data-id="RO.CV" data-name="Covasna" id="RO.CV"/>
utf-8utf-8<path d="M542.8,157.7L537.6,158.2L535.8,157.2L532.0,153.8L519.6,147.1L515.9,146.4L513.5,146.8L510.0,148.6L509.1,150.1L507.8,155.4L503.7,155.9L499.7,154.6L501.0,159.5L502.8,162.0L505.3,164.0L508.0,168.7L509.3,176.6L508.8,185.3L509.7,188.2L513.6,195.6L513.5,202.6L514.3,206.1L513.5,208.6L508.2,213.2L505.0,218.1L496.8,222.7L491.4,228.1L490.5,230.8L490.6,235.6L489.2,237.5L483.0,239.8L482.5,241.6L486.4,244.2L484.9,246.9L482.5,247.4L477.9,249.9L478.0,252.6L487.3,261.2L491.4,263.2L496.3,263.1L498.0,263.6L504.0,267.3L513.1,274.8L518.5,274.0L523.9,271.8L527.5,272.1L533.3,275.5L538.1,276.9L541.3,279.7L543.3,275.2L548.1,268.5L554.5,261.0L562.8,255.6L564.5,256.4L569.6,260.6L570.8,264.2L575.6,270.7L580.1,273.6L584.1,277.1L587.2,278.4L596.9,279.0L623.2,273.9L623.4,269.1L624.9,264.1L625.7,254.4L624.6,252.1L622.8,251.2L619.8,251.3L616.0,253.2L611.0,253.1L611.2,248.2L608.4,243.8L606.9,243.0L601.3,242.4L596.9,241.4L594.5,238.3L594.6,234.7L595.2,233.0L598.8,230.6L598.5,229.1L593.5,222.7L591.0,216.9L589.4,207.3L580.8,205.5L578.8,206.4L580.3,211.4L580.0,212.2L577.6,211.5L573.8,208.6L570.3,204.0L566.4,182.6L566.3,181.2L571.5,178.8L570.6,175.7L564.1,170.9L562.1,168.8L556.8,160.9L550.5,157.5L548.1,157.0L542.8,157.7Z " data-id="RO.HR" data-name="Harghita" id="RO.HR"/>
utf-8utf-8<path d="M720.3,90.6L715.0,92.8L707.8,92.5L706.8,93.2L701.3,101.1L698.5,101.1L693.3,99.3L686.5,97.6L685.5,98.3L685.0,101.3L687.3,104.8L682.6,108.4L680.6,107.9L676.3,104.4L673.3,103.0L656.0,102.9L650.1,100.8L647.1,106.0L643.5,109.4L645.2,111.2L645.5,113.8L643.7,119.6L641.5,120.0L630.6,118.9L628.7,120.5L630.1,122.6L637.1,127.6L636.0,130.2L628.3,131.7L636.3,137.7L642.4,144.3L648.5,154.6L649.9,155.3L656.0,155.2L659.1,155.9L663.3,157.7L669.9,161.8L672.7,163.0L678.5,163.7L682.7,159.3L687.7,160.3L691.7,159.1L694.8,155.6L700.0,154.8L701.4,155.4L703.4,158.7L710.9,165.5L710.7,166.4L703.6,169.1L702.3,170.3L703.4,174.5L706.0,177.0L708.9,180.9L709.7,182.6L721.7,183.3L729.3,182.1L731.2,182.1L737.8,183.7L744.3,181.6L745.7,178.9L753.1,180.1L756.3,179.3L756.6,176.9L753.7,176.6L751.5,175.5L751.7,173.6L750.3,168.7L753.7,168.4L760.4,172.5L763.5,175.1L768.1,179.5L770.1,180.2L769.9,177.0L771.5,175.0L774.3,177.2L773.4,183.3L774.8,184.9L779.0,185.1L782.5,186.9L786.5,188.0L790.2,185.9L793.2,187.3L795.7,187.7L798.8,185.7L804.7,184.8L804.7,183.3L802.8,178.0L801.0,177.0L800.9,172.8L798.2,168.1L791.5,160.2L789.6,161.1L784.6,158.9L782.0,158.4L781.7,156.6L777.2,154.0L773.6,151.0L771.0,149.7L771.4,147.9L766.6,145.8L765.2,144.4L766.3,144.0L763.7,138.1L759.4,133.6L759.3,132.0L755.5,127.9L752.9,127.4L750.0,125.8L747.1,125.2L744.7,123.0L741.5,117.9L738.4,116.1L738.6,112.1L736.6,110.7L737.3,106.9L735.8,104.0L732.5,102.9L729.8,102.8L727.3,101.8L725.2,99.1L723.9,95.7L721.0,92.2L720.3,90.6Z " data-id="RO.IS" data-name="Iasi" id="RO.IS"/>
utf-8utf-8<path d="M624.3,128.2L622.6,127.2L616.6,126.1L614.4,126.6L605.3,130.9L601.6,131.7L590.0,131.7L584.9,132.9L582.9,132.8L578.3,131.1L576.8,131.2L569.6,134.3L565.1,133.6L559.9,129.8L556.0,128.6L555.3,130.7L559.7,134.5L560.9,137.8L560.3,139.0L553.6,143.9L549.6,148.6L547.8,154.1L548.1,157.0L550.5,157.5L556.8,160.9L562.1,168.8L564.1,170.9L570.6,175.7L571.5,178.8L566.3,181.2L566.4,182.6L570.3,204.0L573.8,208.6L577.6,211.5L580.0,212.2L580.3,211.4L578.8,206.4L580.8,205.5L589.4,207.3L593.1,206.3L597.0,206.8L600.1,208.3L606.0,207.3L611.9,203.3L615.7,203.1L619.4,207.6L620.1,211.5L629.5,211.7L631.2,211.5L634.4,207.9L639.5,207.5L643.0,206.8L647.4,207.5L652.5,203.7L658.6,201.4L661.1,198.0L663.1,197.8L665.9,198.7L670.7,201.2L672.3,201.2L675.4,198.7L674.9,195.6L678.3,191.9L678.5,188.5L681.8,189.9L683.8,194.9L687.6,197.5L694.7,196.5L697.2,196.5L705.8,198.2L710.0,199.4L713.9,197.6L714.7,195.5L714.5,194.1L713.9,192.1L710.8,186.6L709.7,182.6L708.9,180.9L706.0,177.0L703.4,174.5L702.3,170.3L703.6,169.1L710.7,166.4L710.9,165.5L703.4,158.7L701.4,155.4L700.0,154.8L694.8,155.6L691.7,159.1L687.7,160.3L682.7,159.3L678.5,163.7L672.7,163.0L669.9,161.8L663.3,157.7L659.1,155.9L656.0,155.2L649.9,155.3L648.5,154.6L642.4,144.3L636.3,137.7L628.3,131.7L624.3,128.2Z " data-id="RO.NT" data-name="Neamt" id="RO.NT"/>
utf-8utf-8<path d="M607.9,359.0L602.0,356.2L598.4,356.4L597.7,357.4L597.1,362.0L596.3,363.5L591.3,365.2L586.4,360.9L582.4,361.9L576.2,360.2L571.7,359.4L569.3,359.5L552.1,362.2L550.8,362.7L549.2,363.6L552.1,371.7L554.2,378.9L555.1,380.1L561.1,384.9L561.9,386.4L562.9,392.9L564.8,395.4L568.5,398.9L575.4,408.5L580.3,412.7L581.9,415.4L583.2,420.9L585.4,425.7L586.5,427.1L590.1,428.8L594.9,428.5L597.8,431.6L598.5,433.3L598.7,438.8L599.4,441.2L601.6,443.1L606.6,443.7L610.2,445.2L618.4,452.8L622.0,454.8L623.2,455.1L623.8,454.5L624.4,453.1L630.8,453.1L636.8,451.2L643.6,452.1L648.0,452.3L651.4,449.3L654.8,447.8L660.1,449.2L666.4,446.1L667.7,445.8L673.5,446.2L677.9,443.8L678.9,441.7L681.2,438.8L678.9,435.8L674.5,432.3L673.8,429.9L676.7,426.2L676.7,424.5L675.0,422.4L672.4,420.4L666.6,418.4L665.0,415.2L664.2,410.3L662.2,405.2L656.7,400.9L656.1,396.2L651.6,397.9L647.3,394.3L642.8,394.6L638.9,392.7L637.7,389.3L633.1,385.3L632.4,383.9L633.0,380.8L632.2,378.8L627.8,372.1L620.0,366.3L612.9,359.8L607.9,359.0Z " data-id="RO.PH" data-name="Prahova" id="RO.PH"/>
utf-8utf-8<path d="M639.1,108.9L633.4,104.1L632.7,102.8L631.8,96.3L626.7,85.2L623.0,82.3L621.4,80.5L613.7,73.3L611.3,70.5L598.0,57.9L595.3,55.8L589.7,53.3L585.2,50.3L579.6,46.1L576.8,38.2L569.3,38.3L563.0,40.0L558.1,39.6L553.4,41.0L548.1,41.6L541.7,43.9L492.0,48.5L487.9,51.1L479.8,65.1L475.9,68.6L469.8,71.0L462.2,72.1L464.0,75.6L466.8,79.0L472.8,84.1L471.7,87.5L465.8,89.3L467.1,90.5L475.9,96.1L479.0,98.8L481.5,103.6L480.0,106.5L476.8,108.3L478.5,111.7L478.0,113.3L474.2,113.8L475.2,116.9L477.5,119.1L480.6,123.8L478.7,132.6L480.0,133.9L484.0,135.0L483.5,142.2L485.2,151.2L494.7,152.7L499.7,154.6L503.7,155.9L507.8,155.4L509.1,150.1L510.0,148.6L513.5,146.8L515.9,146.4L519.6,147.1L532.0,153.8L535.8,157.2L537.6,158.2L542.8,157.7L548.1,157.0L547.8,154.1L549.6,148.6L553.6,143.9L560.3,139.0L560.9,137.8L559.7,134.5L555.3,130.7L556.0,128.6L559.9,129.8L565.1,133.6L569.6,134.3L576.8,131.2L578.3,131.1L582.9,132.8L584.9,132.9L590.0,131.7L601.6,131.7L605.3,130.9L614.4,126.6L616.6,126.1L622.6,127.2L624.3,128.2L628.3,131.7L636.0,130.2L637.1,127.6L630.1,122.6L628.7,120.5L630.6,118.9L641.5,120.0L643.7,119.6L645.5,113.8L645.2,111.2L643.5,109.4L639.1,108.9Z " data-id="RO.SV" data-name="Suceava" id="RO.SV"/>
utf-8utf-8<path d="M710.0,199.4L705.8,198.2L697.2,196.5L694.7,196.5L687.6,197.5L683.8,194.9L681.8,189.9L678.5,188.5L678.3,191.9L674.9,195.6L675.4,198.7L672.3,201.2L670.7,201.2L665.9,198.7L663.1,197.8L661.1,198.0L658.6,201.4L652.5,203.7L647.4,207.5L643.0,206.8L639.5,207.5L634.4,207.9L631.2,211.5L629.5,211.7L620.1,211.5L619.4,207.6L615.7,203.1L611.9,203.3L606.0,207.3L600.1,208.3L597.0,206.8L593.1,206.3L589.4,207.3L591.0,216.9L593.5,222.7L598.5,229.1L598.8,230.6L595.2,233.0L594.6,234.7L594.5,238.3L596.9,241.4L601.3,242.4L606.9,243.0L608.4,243.8L611.2,248.2L611.0,253.1L616.0,253.2L619.8,251.3L622.8,251.2L624.6,252.1L625.7,254.4L624.9,264.1L623.4,269.1L623.2,273.9L627.4,272.7L631.2,270.1L634.6,272.6L638.7,274.7L640.4,277.7L639.8,281.1L644.1,283.7L647.7,289.8L649.6,290.5L661.8,292.1L664.7,290.8L664.6,285.9L665.2,284.8L667.9,283.4L677.8,282.9L695.3,284.0L700.4,285.3L703.7,281.3L712.4,283.1L713.6,282.9L716.3,279.3L718.9,277.7L722.3,273.5L724.7,272.3L732.2,270.9L736.9,271.2L741.7,273.5L744.7,273.5L746.6,271.2L751.3,272.0L754.5,272.4L751.5,256.1L749.6,250.1L746.1,242.1L741.2,234.2L728.2,218.0L727.3,215.1L726.8,209.0L725.2,206.7L715.5,199.2L713.9,197.6L710.0,199.4Z " data-id="RO.BC" data-name="Bacau" id="RO.BC"/>
utf-8utf-8<path d="M814.6,370.2L809.4,369.1L802.6,369.4L798.8,368.8L792.7,366.1L784.1,360.2L778.6,360.7L772.4,358.4L766.5,360.4L760.7,366.0L758.5,369.5L757.9,372.1L757.9,374.5L755.5,382.1L754.7,383.1L750.2,383.2L748.4,383.9L748.2,391.6L745.4,390.6L733.8,391.1L725.8,393.7L724.4,394.8L723.9,397.7L725.9,401.2L728.8,401.7L729.7,398.4L733.1,398.0L734.7,400.7L735.9,405.5L739.2,406.9L741.2,413.7L746.9,414.6L747.5,415.4L747.9,421.4L746.3,429.5L740.3,432.0L740.5,434.4L743.7,437.8L743.9,443.8L744.4,444.7L753.4,447.7L757.1,447.9L761.1,446.3L767.0,448.1L795.6,448.8L799.6,448.1L805.8,445.8L810.6,445.3L815.8,447.7L819.4,450.3L821.0,450.0L825.0,450.3L828.4,452.1L830.4,452.5L832.5,451.9L834.4,450.1L835.6,447.7L835.9,441.9L836.7,440.0L839.0,436.8L839.6,434.3L838.7,428.6L840.2,426.7L839.8,423.8L838.1,419.2L838.1,414.4L836.9,410.2L839.8,407.7L840.9,404.4L837.8,401.0L831.7,398.0L831.9,395.5L834.2,391.2L831.7,388.5L828.3,389.8L824.5,388.5L818.2,384.2L819.7,381.5L820.7,372.1L821.0,370.9L814.6,370.2Z " data-id="RO.BR" data-name="Braila" id="RO.BR"/>
utf-8utf-8<path d="M753.2,372.3L744.6,370.4L742.6,366.5L738.6,365.7L735.4,364.1L732.6,364.0L730.2,366.3L728.4,366.5L727.5,362.2L724.2,362.0L721.9,363.3L717.9,363.4L712.9,359.9L710.8,354.4L705.6,352.1L700.8,352.2L701.1,354.2L699.9,355.2L693.9,353.9L689.2,351.7L685.3,349.4L682.7,346.9L675.4,342.0L667.9,341.9L664.9,341.5L660.7,338.2L652.5,327.9L647.5,322.4L642.4,318.6L643.6,321.3L644.8,325.4L643.3,329.0L642.9,333.7L640.1,342.4L639.3,343.5L635.7,344.3L630.2,341.4L629.2,341.8L628.0,346.8L627.5,347.6L621.1,348.2L617.2,349.3L612.9,359.8L620.0,366.3L627.8,372.1L632.2,378.8L633.0,380.8L632.4,383.9L633.1,385.3L637.7,389.3L638.9,392.7L642.8,394.6L647.3,394.3L651.6,397.9L656.1,396.2L656.7,400.9L662.2,405.2L664.2,410.3L665.0,415.2L666.6,418.4L672.4,420.4L675.0,422.4L676.7,424.5L676.7,426.2L673.8,429.9L674.5,432.3L678.9,435.8L681.2,438.8L683.7,439.9L687.6,442.6L692.0,443.2L698.9,442.7L709.2,444.4L714.8,443.8L722.2,446.8L723.7,446.8L727.2,444.3L731.3,444.8L735.7,447.2L738.8,452.2L745.3,449.6L741.9,447.0L742.2,445.7L744.4,444.7L743.9,443.8L743.7,437.8L740.5,434.4L740.3,432.0L746.3,429.5L747.9,421.4L747.5,415.4L746.9,414.6L741.2,413.7L739.2,406.9L735.9,405.5L734.7,400.7L733.1,398.0L729.7,398.4L728.8,401.7L725.9,401.2L723.9,397.7L724.4,394.8L725.8,393.7L733.8,391.1L745.4,390.6L748.2,391.6L748.4,383.9L750.2,383.2L754.7,383.1L755.5,382.1L757.9,374.5L757.9,372.1L753.2,372.3Z " data-id="RO.BZ" data-name="Buzau" id="RO.BZ"/>
utf-8utf-8<path d="M756.7,278.3L750.8,278.7L746.4,282.7L738.3,283.9L734.5,286.6L729.7,293.0L729.9,297.2L731.3,300.7L745.6,324.8L748.2,329.5L751.3,332.8L761.1,340.0L763.5,343.3L765.5,349.8L769.3,355.8L772.4,358.4L778.6,360.7L784.1,360.2L792.7,366.1L798.8,368.8L802.6,369.4L809.4,369.1L814.6,370.2L821.0,370.9L822.1,368.9L828.2,366.9L832.1,367.2L837.0,368.5L839.2,363.9L839.0,363.9L833.3,358.2L832.7,353.9L829.6,349.8L827.0,348.2L820.8,345.5L825.0,341.6L829.7,341.2L831.1,340.5L830.1,336.8L827.5,323.9L824.2,319.6L822.0,315.7L821.6,311.3L822.8,310.5L821.2,306.8L821.6,303.8L816.1,293.2L816.1,282.7L816.6,280.9L808.6,281.2L804.5,279.4L796.4,277.2L792.5,278.6L790.5,282.2L788.6,282.8L787.3,280.1L784.7,278.8L766.7,276.9L765.3,279.5L767.9,282.9L769.3,286.5L769.4,291.9L767.8,293.8L763.9,288.4L762.4,284.7L760.8,282.5L756.7,278.3Z " data-id="RO.GL" data-name="Galati" id="RO.GL"/>
utf-8utf-8<path d="M709.7,182.6L710.8,186.6L713.9,192.1L714.5,194.1L714.7,195.5L713.9,197.6L715.5,199.2L725.2,206.7L726.8,209.0L727.3,215.1L728.2,218.0L741.2,234.2L746.1,242.1L749.6,250.1L751.5,256.1L754.5,272.4L756.7,278.3L760.8,282.5L762.4,284.7L763.9,288.4L767.8,293.8L769.4,291.9L769.3,286.5L767.9,282.9L765.3,279.5L766.7,276.9L784.7,278.8L787.3,280.1L788.6,282.8L790.5,282.2L792.5,278.6L796.4,277.2L804.5,279.4L808.6,281.2L816.6,280.9L816.8,280.2L817.9,275.9L818.9,269.7L818.4,268.6L814.6,264.3L814.3,263.2L816.7,261.7L816.3,258.6L820.4,256.3L821.3,251.6L820.5,249.0L822.2,247.2L822.2,243.2L824.1,241.6L823.1,239.8L824.5,239.2L824.1,232.1L822.8,231.7L820.8,228.4L821.5,222.1L820.3,219.9L821.8,215.1L821.6,213.3L819.5,208.0L812.3,198.0L812.0,195.6L806.9,189.4L804.7,185.8L804.7,184.8L798.8,185.7L795.7,187.7L793.2,187.3L790.2,185.9L786.5,188.0L782.5,186.9L779.0,185.1L774.8,184.9L773.4,183.3L774.3,177.2L771.5,175.0L769.9,177.0L770.1,180.2L768.1,179.5L763.5,175.1L760.4,172.5L753.7,168.4L750.3,168.7L751.7,173.6L751.5,175.5L753.7,176.6L756.6,176.9L756.3,179.3L753.1,180.1L745.7,178.9L744.3,181.6L737.8,183.7L731.2,182.1L729.3,182.1L721.7,183.3L709.7,182.6Z " data-id="RO.VS" data-name="Vaslui" id="RO.VS"/>
utf-8utf-8<path d="M751.3,272.0L746.6,271.2L744.7,273.5L741.7,273.5L736.9,271.2L732.2,270.9L724.7,272.3L722.3,273.5L718.9,277.7L716.3,279.3L713.6,282.9L712.4,283.1L703.7,281.3L700.4,285.3L695.3,284.0L677.8,282.9L667.9,283.4L665.2,284.8L664.6,285.9L664.7,290.8L661.8,292.1L649.6,290.5L644.1,299.7L643.0,303.9L643.1,305.8L642.5,312.3L642.4,318.6L647.5,322.4L652.5,327.9L660.7,338.2L664.9,341.5L667.9,341.9L675.4,342.0L682.7,346.9L685.3,349.4L689.2,351.7L693.9,353.9L699.9,355.2L701.1,354.2L700.8,352.2L705.6,352.1L710.8,354.4L712.9,359.9L717.9,363.4L721.9,363.3L724.2,362.0L727.5,362.2L728.4,366.5L730.2,366.3L732.6,364.0L735.4,364.1L738.6,365.7L742.6,366.5L744.6,370.4L753.2,372.3L757.9,372.1L758.5,369.5L760.7,366.0L766.5,360.4L772.4,358.4L769.3,355.8L765.5,349.8L763.5,343.3L761.1,340.0L751.3,332.8L748.2,329.5L745.6,324.8L731.3,300.7L729.9,297.2L729.7,293.0L734.5,286.6L738.3,283.9L746.4,282.7L750.8,278.7L756.7,278.3L754.5,272.4L751.3,272.0Z " data-id="RO.VN" data-name="Vrancea" id="RO.VN"/>
utf-8utf-8<path d="M643.6,452.1L636.8,451.2L630.8,453.1L624.4,453.1L623.8,454.5L623.2,455.1L620.9,457.8L619.8,458.6L618.5,462.1L616.5,463.5L616.8,465.8L620.5,466.9L619.8,470.3L615.4,475.4L613.3,477.1L616.5,482.0L616.2,487.0L614.2,492.4L614.0,498.1L616.2,502.1L622.8,504.8L624.7,507.0L629.3,507.8L638.1,514.0L641.6,515.7L646.4,516.2L647.7,515.9L651.3,513.4L656.3,508.2L657.0,504.9L659.2,501.1L664.9,495.3L670.9,492.7L671.9,491.6L672.6,488.8L667.2,486.0L667.4,483.6L669.1,482.5L666.4,480.8L663.0,479.3L661.5,477.2L662.1,474.0L667.2,469.7L667.7,467.1L666.7,466.2L659.9,463.1L658.7,461.9L656.1,454.3L650.1,452.8L648.0,452.3L643.6,452.1Z M647.2,493.9L646.1,497.9L640.9,496.5L640.4,498.5L644.6,505.5L642.0,507.6L636.3,501.9L630.3,500.7L622.6,494.3L622.1,490.2L628.9,489.7L628.4,485.7L622.7,483.6L626.7,475.9L633.5,473.6L635.5,482.2L643.9,483.9L642.2,490.4L647.2,493.9Z " data-id="RO.IF" data-name="Ilfov" id="RO.IF"/>
utf-8utf-8<path d="M839.2,363.9L837.0,368.5L832.1,367.2L828.2,366.9L822.1,368.9L821.0,370.9L820.7,372.1L819.7,381.5L818.2,384.2L824.5,388.5L828.3,389.8L831.7,388.5L834.2,391.2L831.9,395.5L831.7,398.0L837.8,401.0L840.9,404.4L839.8,407.7L836.9,410.2L838.1,414.4L838.1,419.2L839.8,423.8L840.2,426.7L838.7,428.6L839.6,434.3L839.0,436.8L836.7,440.0L835.9,441.9L835.6,447.7L834.4,450.1L843.7,449.4L849.2,451.2L859.3,458.6L863.7,457.7L865.2,452.2L871.2,452.2L877.2,457.7L885.2,460.4L893.4,460.4L900.0,458.6L906.4,461.3L912.5,462.5L914.4,461.9L912.4,460.8L914.0,456.5L927.8,451.6L926.2,450.5L925.2,448.1L926.4,447.3L927.3,443.8L921.6,439.1L917.3,436.6L916.3,431.5L916.5,428.8L917.4,427.4L925.2,423.2L926.1,420.2L940.1,424.1L941.2,425.4L940.2,427.1L935.6,428.7L934.8,431.1L936.2,438.8L938.5,443.0L941.2,441.7L942.9,442.0L941.5,437.6L945.0,440.5L947.4,443.8L947.2,446.6L945.6,448.9L943.5,450.3L939.4,451.2L935.8,452.9L931.1,454.2L933.8,458.5L934.8,461.4L937.1,458.1L939.8,455.4L949.4,449.2L953.0,448.1L965.8,447.3L985.8,444.5L995.7,440.9L996.2,439.3L994.5,436.9L996.7,433.4L995.6,430.7L996.1,429.4L996.0,423.7L997.1,417.9L996.3,406.6L997.1,403.1L999.2,400.9L995.7,400.6L993.7,398.8L990.3,393.9L994.3,393.0L993.4,390.3L994.2,386.6L993.0,381.7L990.6,377.3L981.3,371.0L966.2,366.5L958.0,365.7L954.6,364.7L950.8,367.5L945.2,367.3L940.2,371.8L937.7,371.9L933.9,374.3L929.8,375.4L925.0,379.2L919.8,380.6L919.0,385.1L916.8,385.9L911.2,382.4L908.7,382.0L904.1,379.8L901.4,380.4L902.0,384.2L899.2,385.5L899.1,386.5L901.0,389.1L904.1,390.3L898.6,392.1L894.8,392.5L880.5,389.8L871.4,385.9L861.8,383.8L853.5,380.2L851.0,377.0L847.0,370.1L847.2,367.6L844.8,365.2L841.6,363.7L839.2,363.9Z " data-id="RO.TL" data-name="Tulcea" id="RO.TL"/>
utf-8</g>
</svg>
