<?xml version="1.0" ?>
<!DOCTYPE svg
  PUBLIC '-//W3C//DTD SVG 1.1//EN'
  'http://www.w3.org/Graphics/SVG/1.1/DTD/svg11.dtd'>
<svg enable_background="new 0 0 1000 1077" height="1077px" pretty_print="True" style="stroke-linejoin: round; stroke:#000; fill: none;" version="1.1" viewBox="0 0 1000 1077" width="1000px" xmlns="http://www.w3.org/2000/svg" xmlns:xlink="http://www.w3.org/1999/xlink">
utf-8<defs>
utf-8utf-8<style type="text/css">
<![CDATA[path { fill-rule: evenodd; }]]>utf-8utf-8</style>
utf-8</defs>
utf-8<metadata>
utf-8utf-8<views>
utf-8utf-8utf-8<view h="1077.13093149" padding="0" w="1000">
utf-8utf-8utf-8utf-8<proj flip="auto" id="robinson" lon0="19.7913997696"/>
utf-8utf-8utf-8utf-8<bbox h="63.99" w="59.47" x="248.94" y="-772.53"/>
utf-8utf-8utf-8</view>
utf-8utf-8</views>
utf-8</metadata>
utf-8<g class="" id="provinces">
utf-8utf-8<path d="M284.2,123.0L278.6,118.4L271.9,115.4L259.4,115.2L255.6,114.6L251.8,112.6L236.8,109.5L230.1,110.2L227.0,110.4L226.7,110.5L223.4,113.2L216.8,114.8L213.5,114.8L208.1,116.2L203.3,118.8L205.6,122.8L205.9,125.4L204.5,128.8L205.9,130.2L204.3,135.0L202.6,142.7L203.6,146.9L202.9,148.0L197.5,151.0L191.9,152.4L182.5,147.6L180.3,147.1L172.3,142.7L169.2,141.2L167.5,144.6L166.6,147.4L165.0,148.8L164.6,154.5L165.4,155.7L165.4,161.9L161.4,163.2L159.0,163.1L156.5,166.0L156.4,167.9L154.4,172.4L152.6,173.9L148.3,175.7L141.7,172.1L139.5,171.5L135.5,173.7L129.7,175.3L131.2,179.7L131.6,182.9L129.1,183.3L125.4,185.0L122.2,187.9L123.6,194.3L125.9,197.4L125.5,201.9L118.9,200.6L117.1,200.5L111.7,201.7L109.6,201.3L105.1,196.8L102.5,196.6L100.6,200.7L97.1,200.7L93.9,202.1L87.9,203.1L86.7,202.6L85.7,199.7L83.6,197.6L79.5,195.8L71.6,196.8L67.8,195.8L65.1,191.9L61.1,191.4L56.8,188.6L50.0,189.5L47.1,187.0L47.0,185.6L45.1,185.4L42.8,192.2L44.8,197.3L51.7,203.1L53.3,206.3L51.6,209.1L40.3,213.8L43.5,218.1L47.2,221.7L51.3,224.2L55.8,225.0L64.9,225.0L67.2,226.2L69.5,234.4L75.9,240.4L84.5,243.9L130.2,254.0L134.0,259.1L138.5,260.8L141.4,266.4L141.4,272.8L139.1,275.0L145.0,281.1L146.8,281.9L149.1,280.4L151.4,277.2L152.1,274.9L153.2,274.5L165.1,277.8L174.3,281.5L187.2,284.1L190.4,283.3L194.8,283.1L207.8,283.2L215.8,280.0L218.8,279.8L223.7,276.2L230.1,282.2L232.0,281.7L242.1,281.5L252.1,282.2L255.4,282.9L264.5,281.4L266.7,280.5L268.2,274.1L270.4,270.0L283.4,273.3L288.4,273.9L315.0,271.3L323.5,273.9L331.8,279.1L336.8,283.4L337.3,279.9L337.4,275.6L338.1,271.7L344.0,268.4L344.1,264.7L341.9,257.9L338.9,251.2L327.2,243.4L323.0,238.1L326.2,230.5L328.3,228.7L324.4,224.6L316.2,218.0L313.0,213.8L318.0,200.7L312.2,194.5L289.7,177.6L287.2,174.7L286.0,171.6L286.5,167.5L291.0,161.2L289.7,158.1L287.3,157.1L280.8,157.4L276.5,156.7L276.6,154.8L280.9,149.9L283.8,143.0L283.9,137.1L282.2,131.5L279.9,125.4L282.3,124.1L284.6,123.5L284.2,123.0Z " data-id="RS.JC" data-name="Južno-Backi" id="RS.JC"/>
utf-8utf-8<path d="M496.4,234.0L494.9,237.9L489.5,239.0L487.6,238.4L479.2,239.3L475.8,239.4L464.6,245.7L458.4,249.6L454.8,250.7L454.1,252.7L460.0,256.5L453.7,261.1L450.5,264.5L444.9,266.5L444.1,268.0L437.9,272.3L437.0,278.2L436.3,279.4L433.8,279.7L431.6,277.9L426.1,272.1L425.5,272.1L417.5,267.2L410.7,264.4L397.7,263.0L394.5,270.3L392.2,270.1L390.2,268.6L385.5,269.7L383.5,268.5L383.2,267.2L377.6,272.9L376.1,276.6L373.6,280.1L373.7,281.4L376.6,284.7L376.4,286.3L371.4,290.3L372.6,294.2L366.1,301.5L365.1,304.1L365.1,304.1L365.1,304.1L366.0,311.0L368.2,315.8L374.7,320.0L378.1,322.9L378.6,324.1L383.6,328.9L389.0,330.3L390.9,332.0L391.4,336.0L396.9,341.5L398.3,342.3L407.7,345.8L410.3,347.4L415.6,352.4L416.2,353.5L415.2,356.3L415.3,360.7L421.8,361.6L425.6,366.4L424.6,379.7L424.9,382.8L429.2,388.6L435.6,391.8L438.8,394.7L447.7,404.9L453.0,409.5L458.2,412.5L465.2,413.5L465.2,413.5L472.4,414.5L484.8,411.3L507.3,399.3L517.7,397.8L517.7,397.8L526.8,396.6L533.9,391.6L536.9,391.4L542.6,391.8L545.4,390.8L550.1,382.5L557.1,377.5L567.1,372.8L577.8,369.7L586.9,369.3L586.9,369.3L583.0,367.8L583.4,364.1L585.1,361.1L587.8,358.8L593.5,357.0L606.6,357.6L612.8,356.7L621.6,354.5L624.5,352.2L624.6,346.9L622.3,342.5L618.8,340.0L610.7,337.3L604.9,334.9L594.0,333.3L588.5,330.3L588.6,327.0L587.7,325.6L583.9,325.4L580.8,324.7L580.1,322.4L580.9,319.6L582.3,317.4L584.4,316.4L590.1,316.1L592.3,315.4L594.9,313.3L595.9,306.3L598.6,302.0L597.7,296.5L600.9,292.6L603.1,291.6L605.9,291.4L608.5,289.3L609.0,285.9L607.6,282.2L599.2,274.3L593.1,270.3L586.5,267.3L562.1,260.9L552.7,260.6L548.6,259.2L540.7,254.7L536.7,250.9L528.1,241.2L524.2,238.8L522.0,239.3L518.8,242.8L516.7,243.7L514.0,243.1L507.4,238.1L496.4,234.0Z " data-id="RS.JN" data-name="Južno-Banatski" id="RS.JN"/>
utf-8utf-8<path d="M488.3,230.9L484.6,228.5L475.0,218.6L459.5,207.3L451.3,198.1L447.8,195.2L444.0,193.7L439.9,192.6L436.5,190.7L434.6,186.9L439.3,183.4L442.2,180.5L442.4,176.7L438.9,170.3L431.4,160.6L430.1,156.1L431.1,149.2L433.7,141.8L433.9,138.0L432.3,123.7L433.2,118.3L433.0,115.8L430.8,113.1L428.0,111.9L425.6,112.7L423.9,115.1L422.9,118.3L420.3,120.3L417.4,121.0L414.4,120.5L411.5,118.4L409.0,114.6L403.4,109.0L400.9,105.8L400.2,104.1L397.6,106.0L397.9,107.1L400.3,109.7L401.2,112.3L397.7,116.4L397.1,118.4L397.2,129.4L390.5,130.3L384.2,128.5L382.7,128.7L378.2,132.9L374.2,135.2L371.9,140.4L371.8,142.9L374.2,146.9L379.8,154.0L372.8,154.8L370.2,153.9L360.8,153.6L350.6,155.8L342.7,158.0L338.5,155.2L334.2,153.9L336.3,148.1L339.9,147.3L340.4,146.1L337.4,142.6L335.8,142.3L334.5,140.5L334.4,138.3L337.5,135.6L338.1,137.5L337.2,139.8L338.5,141.2L341.5,140.5L345.8,136.7L350.4,136.9L351.1,134.1L353.9,129.5L351.0,127.1L348.6,126.0L342.9,121.0L338.3,114.4L335.1,105.9L334.0,105.4L329.0,106.6L324.1,105.3L321.1,105.7L305.4,106.7L295.9,105.6L294.0,105.0L290.0,108.2L290.7,112.3L292.6,115.0L294.5,116.7L294.8,118.5L291.6,121.5L289.1,122.5L284.6,123.5L282.3,124.1L279.9,125.4L282.2,131.5L283.9,137.1L283.8,143.0L280.9,149.9L276.6,154.8L276.5,156.7L280.8,157.4L287.3,157.1L289.7,158.1L291.0,161.2L286.5,167.5L286.0,171.6L287.2,174.7L289.7,177.6L312.2,194.5L318.0,200.7L313.0,213.8L316.2,218.0L324.4,224.6L328.3,228.7L326.2,230.5L323.0,238.1L327.2,243.4L338.9,251.2L341.9,257.9L344.1,264.7L344.0,268.4L338.1,271.7L337.4,275.6L337.3,279.9L336.8,283.4L339.7,285.8L352.1,300.0L352.1,300.0L354.9,299.5L357.5,299.8L360.5,301.1L364.7,303.7L365.1,304.1L365.1,304.1L366.1,301.5L372.6,294.2L371.4,290.3L376.4,286.3L376.6,284.7L373.7,281.4L373.6,280.1L376.1,276.6L377.6,272.9L383.2,267.2L383.5,268.5L385.5,269.7L390.2,268.6L392.2,270.1L394.5,270.3L397.7,263.0L410.7,264.4L417.5,267.2L425.5,272.1L426.1,272.1L431.6,277.9L433.8,279.7L436.3,279.4L437.0,278.2L437.9,272.3L444.1,268.0L444.9,266.5L450.5,264.5L453.7,261.1L460.0,256.5L454.1,252.7L454.8,250.7L458.4,249.6L464.6,245.7L475.8,239.4L479.2,239.3L487.6,238.4L489.5,239.0L494.9,237.9L496.4,234.0L488.3,230.9Z " data-id="RS.SD" data-name="Srednje-Banatski" id="RS.SD"/>
utf-8utf-8<path d="M919.5,757.4L912.7,766.1L908.7,768.2L903.1,774.8L903.9,776.5L902.2,778.1L894.7,776.9L886.3,771.2L883.8,767.8L882.4,766.8L880.9,767.4L880.0,769.8L876.6,772.4L872.9,772.8L867.3,769.3L861.0,767.9L852.9,764.3L847.6,762.6L848.3,765.9L847.6,770.9L848.0,772.3L846.9,777.8L843.5,779.1L833.8,779.8L831.0,779.7L826.0,777.4L823.9,777.1L815.3,773.9L812.9,773.4L803.9,774.9L807.1,784.9L807.0,786.2L812.5,794.1L812.1,795.1L807.3,797.2L805.0,801.4L805.7,803.4L802.4,811.4L807.9,813.5L810.1,815.1L819.2,819.6L822.2,821.7L828.0,824.4L830.2,825.9L834.6,826.2L836.0,825.6L838.9,826.1L841.0,827.8L841.9,830.7L846.1,836.7L837.1,841.3L833.6,843.9L833.2,846.0L833.2,846.5L834.8,847.8L838.9,850.7L836.6,854.3L833.5,855.7L827.6,860.5L827.4,862.0L838.4,866.8L841.7,869.0L847.1,868.8L855.0,871.9L865.6,875.5L868.5,876.8L873.8,880.1L874.8,881.7L865.6,885.8L867.5,887.1L874.6,891.0L875.5,892.6L883.7,898.0L889.4,899.5L892.8,899.8L896.2,899.3L899.8,899.5L904.2,900.7L909.2,901.5L910.2,900.0L913.1,898.1L919.2,897.4L936.6,901.5L943.3,900.0L949.9,897.4L953.4,891.1L956.0,877.9L957.0,874.4L958.3,872.1L960.8,870.7L966.9,869.4L981.0,856.6L981.9,854.5L983.0,849.5L985.7,846.1L991.1,843.3L995.0,837.1L998.2,828.2L999.5,819.1L998.1,812.4L994.2,811.0L982.9,808.8L978.6,806.6L975.2,803.9L968.4,796.7L962.4,791.9L957.6,780.8L954.4,777.1L936.7,762.8L929.6,759.4L923.1,759.4L920.9,758.7L919.5,757.4Z " data-id="RS.PI" data-name="Pirotski" id="RS.PI"/>
utf-8utf-8<path d="M744.9,434.0L740.8,436.3L731.4,445.8L728.3,452.2L726.2,452.6L723.3,454.5L724.7,456.7L724.7,460.6L724.0,461.7L721.8,468.3L724.3,474.8L722.8,478.3L715.2,479.0L709.3,486.9L703.6,486.2L702.8,486.7L701.0,494.0L698.5,495.5L697.6,497.6L698.2,501.3L702.5,505.4L701.9,509.9L704.0,513.4L711.8,512.0L714.3,513.4L717.6,514.4L721.5,517.8L723.3,524.3L724.8,534.6L729.9,537.2L733.0,533.7L734.8,532.6L737.5,533.3L736.8,537.3L738.4,540.4L738.8,544.8L739.8,552.8L737.5,555.4L737.5,556.6L741.9,564.6L740.6,566.9L730.7,568.5L728.4,569.2L722.4,572.7L719.3,575.8L714.6,575.9L711.5,576.7L711.1,576.7L710.1,579.8L709.7,582.7L705.2,585.9L705.2,589.5L703.4,591.3L702.9,593.6L703.1,596.8L704.4,597.0L707.3,597.6L712.9,596.4L718.8,598.1L725.1,596.6L730.4,597.6L731.8,598.4L735.4,602.5L744.9,608.7L750.7,609.9L753.0,611.2L756.5,611.6L758.9,607.9L763.1,607.8L767.2,613.9L767.4,615.2L771.8,622.2L780.4,625.4L784.8,628.4L785.0,626.9L787.5,621.9L789.2,621.5L793.4,617.9L793.9,615.2L793.1,611.5L793.7,608.7L800.9,595.9L801.3,593.6L807.0,589.0L806.2,582.6L803.5,579.8L800.6,575.4L799.7,568.4L793.7,563.8L793.7,561.9L795.2,559.4L799.2,554.3L801.2,548.7L804.0,551.7L810.5,556.3L817.0,557.8L826.6,559.1L836.0,556.0L839.4,556.9L843.5,559.8L844.7,561.6L852.2,564.3L856.4,565.4L859.8,570.5L859.5,572.3L855.7,577.2L854.3,577.8L853.4,581.1L857.5,588.4L857.9,589.7L861.3,589.3L866.3,589.1L868.5,586.3L869.8,582.4L872.0,579.0L876.5,577.6L881.1,577.8L885.0,577.1L887.2,572.9L886.9,570.6L884.8,564.8L884.4,559.1L885.9,551.0L884.6,548.7L884.7,547.0L888.4,543.0L891.3,538.1L900.4,528.2L899.9,515.1L897.7,511.4L893.2,509.7L883.8,508.5L874.9,505.1L866.8,499.5L860.0,492.4L855.2,484.5L853.2,474.2L848.1,470.4L847.2,468.2L847.0,461.0L847.7,458.4L851.1,456.6L858.9,456.3L861.7,455.2L863.3,452.5L863.4,447.8L864.2,443.3L867.3,440.5L871.6,439.4L876.3,439.5L881.1,441.2L889.8,446.0L894.7,447.0L899.0,446.3L903.7,444.2L907.3,440.8L908.0,435.8L895.5,424.8L892.1,422.8L874.2,420.9L866.3,417.7L858.1,412.3L840.9,397.3L837.4,395.6L833.2,394.8L827.7,394.7L825.5,396.3L818.6,403.7L814.5,406.0L805.4,407.8L802.3,410.0L801.5,414.3L780.3,454.3L777.7,456.9L772.5,458.1L767.6,457.7L762.4,455.8L758.2,452.4L755.0,444.6L747.5,439.5L746.0,437.4L744.9,434.0Z " data-id="RS.BO" data-name="Borski" id="RS.BO"/>
utf-8utf-8<path d="M313.4,569.6L309.9,568.1L307.4,568.0L304.6,566.2L298.2,574.0L292.8,573.2L282.8,568.0L280.8,565.3L282.1,562.7L281.4,561.5L276.5,559.5L271.0,559.3L269.4,562.8L267.4,563.5L264.1,566.0L255.6,561.4L253.3,561.8L261.0,575.9L260.9,579.2L258.8,580.3L253.5,579.2L252.6,574.9L249.2,571.3L248.6,570.1L242.8,565.3L240.9,565.4L234.8,561.7L224.5,556.8L217.8,555.1L215.8,555.4L216.0,556.3L214.0,561.5L212.1,562.4L206.5,561.5L201.3,563.1L197.7,568.1L194.3,569.7L195.8,571.4L203.4,575.2L207.5,579.1L209.7,580.5L211.6,578.1L213.6,577.5L216.6,579.7L218.8,584.8L217.3,589.3L213.8,593.0L205.2,599.1L200.0,600.7L194.6,601.2L181.7,600.0L169.8,600.8L166.6,601.7L163.3,601.8L160.3,600.2L154.0,595.5L148.0,592.0L145.0,591.0L141.7,591.2L137.2,592.5L135.4,594.0L134.4,596.6L136.0,601.9L135.7,603.9L133.4,606.1L136.1,607.5L144.3,612.7L151.9,620.5L165.5,637.5L190.5,659.3L195.8,668.2L202.6,683.3L203.7,690.5L198.4,695.5L197.7,698.7L197.7,702.7L198.3,706.4L201.8,713.0L200.1,714.0L191.3,711.0L188.6,711.2L186.4,717.2L184.7,719.5L182.7,717.1L180.4,712.5L176.7,707.3L172.5,702.9L168.5,701.0L166.1,701.6L161.3,705.2L158.8,706.5L156.1,706.6L150.3,705.8L147.9,706.5L145.2,710.9L143.7,717.0L141.4,721.6L136.4,721.6L132.5,727.9L133.3,735.8L137.7,742.9L144.0,747.4L176.0,759.7L180.0,762.1L190.5,774.5L204.9,786.8L208.0,790.4L212.6,798.0L215.1,801.1L231.9,815.5L236.1,818.6L240.9,820.8L251.2,823.5L256.1,823.9L258.9,823.0L260.6,821.4L262.4,821.5L270.0,832.2L274.6,837.0L279.5,840.3L285.0,842.1L292.5,842.6L300.1,842.0L302.6,840.6L307.4,835.8L309.4,834.7L312.3,835.6L317.7,843.2L320.1,845.2L334.5,853.7L342.9,860.6L344.3,858.3L344.3,856.1L345.5,852.2L350.6,843.3L355.9,840.5L360.9,839.7L360.5,833.9L365.4,828.4L371.5,828.6L376.0,828.4L382.3,825.3L390.8,823.9L382.6,817.1L379.1,816.0L377.1,813.4L373.2,811.1L371.1,806.5L376.5,802.5L377.7,800.8L377.6,798.1L378.8,793.6L382.3,787.3L383.8,785.4L383.5,784.3L379.9,780.7L378.1,780.2L369.7,782.3L362.4,782.8L352.4,785.7L351.0,785.9L343.4,779.8L344.1,774.9L332.9,760.5L332.1,758.7L328.6,754.9L322.4,746.2L321.7,740.5L320.7,739.6L319.2,735.6L317.6,734.3L309.5,733.0L307.2,729.8L297.5,726.5L296.4,725.5L293.4,720.6L297.0,717.0L295.8,709.9L304.6,715.4L307.2,715.9L311.5,714.0L312.2,712.2L315.4,708.7L324.2,702.3L325.8,701.7L330.5,703.0L334.7,699.9L334.0,693.1L333.1,692.1L335.3,691.8L342.5,691.9L350.3,694.6L353.4,688.8L352.9,686.2L348.5,683.0L350.9,676.3L350.9,674.6L349.5,670.6L341.1,666.4L339.7,663.5L337.9,655.3L339.9,652.6L339.9,651.3L334.0,645.7L329.3,638.1L329.9,633.5L334.7,628.9L337.3,629.0L343.4,628.0L334.2,624.3L327.0,617.5L327.1,616.2L329.2,614.6L330.3,612.8L328.1,608.2L326.1,607.9L322.2,605.8L320.7,603.1L321.3,602.1L318.2,599.0L321.8,592.4L317.0,587.6L318.4,584.4L317.4,582.3L319.0,577.4L319.1,575.2L317.3,572.3L316.9,571.3L313.4,569.6Z " data-id="RS.ZL" data-name="Zlatiborski" id="RS.ZL"/>
utf-8utf-8<path d="M171.8,139.5L174.0,135.7L171.7,132.6L169.2,130.8L165.3,129.6L161.5,127.0L160.9,123.8L165.0,119.1L159.4,116.4L156.7,114.0L149.1,114.4L148.1,116.0L144.7,117.7L134.3,111.6L130.4,104.7L131.0,102.8L130.0,100.9L122.0,93.3L117.3,90.7L115.1,88.8L111.2,83.6L111.3,82.2L109.6,72.9L105.5,65.8L105.1,63.9L105.8,61.7L107.8,59.7L105.8,53.2L106.1,51.4L104.9,50.0L103.1,49.9L98.4,44.0L95.7,41.7L93.3,43.4L92.0,46.8L91.3,50.1L89.0,52.9L83.0,53.9L63.4,52.2L54.4,44.2L49.3,42.6L44.3,44.5L41.3,49.7L41.8,57.8L38.0,58.8L32.3,58.1L27.4,61.3L27.0,64.3L28.9,66.7L28.1,69.3L23.7,67.6L10.0,66.7L11.7,71.0L4.6,76.6L9.5,79.7L12.0,81.9L12.9,84.1L11.5,85.9L8.7,86.4L1.7,87.0L1.8,94.5L0.5,98.4L1.4,100.1L5.1,103.1L6.9,105.5L14.0,112.4L15.4,116.5L17.1,124.9L19.3,128.4L22.6,130.5L26.5,132.4L30.0,134.8L31.6,138.8L30.6,141.1L25.2,148.5L20.4,152.3L20.0,157.5L20.2,162.7L19.7,165.0L21.7,166.3L26.7,172.6L29.0,174.4L33.1,174.3L35.8,172.4L37.8,170.0L45.2,166.6L47.4,167.9L50.9,172.7L53.3,174.4L57.2,175.9L60.4,176.5L63.4,177.9L66.3,181.9L60.3,187.3L47.0,185.6L47.1,187.0L50.0,189.5L56.8,188.6L61.1,191.4L65.1,191.9L67.8,195.8L71.6,196.8L79.5,195.8L83.6,197.6L85.7,199.7L86.7,202.6L87.9,203.1L93.9,202.1L97.1,200.7L100.6,200.7L102.5,196.6L105.1,196.8L109.6,201.3L111.7,201.7L117.1,200.5L118.9,200.6L125.5,201.9L125.9,197.4L123.6,194.3L122.2,187.9L125.4,185.0L129.1,183.3L131.6,182.9L131.2,179.7L129.7,175.3L135.5,173.7L139.5,171.5L141.7,172.1L148.3,175.7L152.6,173.9L154.4,172.4L156.4,167.9L156.5,166.0L159.0,163.1L161.4,163.2L165.4,161.9L165.4,155.7L164.6,154.5L165.0,148.8L166.6,147.4L167.5,144.6L169.2,141.2L171.8,139.5Z " data-id="RS.ZC" data-name="Zapadno-Backi" id="RS.ZC"/>
utf-8utf-8<path d="M95.7,41.7L98.4,44.0L103.1,49.9L104.9,50.0L106.1,51.4L105.8,53.2L107.8,59.7L105.8,61.7L105.1,63.9L105.5,65.8L109.6,72.9L111.3,82.2L111.2,83.6L115.1,88.8L117.3,90.7L122.0,93.3L130.0,100.9L131.0,102.8L130.4,104.7L134.3,111.6L144.7,117.7L148.1,116.0L149.1,114.4L156.7,114.0L159.4,116.4L165.0,119.1L160.9,123.8L161.5,127.0L165.3,129.6L169.2,130.8L171.7,132.6L174.0,135.7L171.8,139.5L169.2,141.2L172.3,142.7L180.3,147.1L182.5,147.6L191.9,152.4L197.5,151.0L202.9,148.0L203.6,146.9L202.6,142.7L204.3,135.0L205.9,130.2L204.5,128.8L205.9,125.4L205.6,122.8L203.3,118.8L208.1,116.2L213.5,114.8L216.8,114.8L223.4,113.2L226.7,110.5L227.0,110.4L226.7,109.4L223.6,101.8L219.8,95.1L217.4,95.3L214.2,94.3L213.3,92.5L212.6,88.0L211.0,86.2L207.5,80.5L202.3,74.6L209.2,70.6L211.3,68.9L208.8,62.0L209.3,58.7L207.6,50.7L209.0,43.0L211.3,38.9L213.2,36.8L216.4,34.3L218.3,28.2L218.3,22.9L215.9,16.8L221.0,10.1L221.4,8.7L219.7,5.7L201.9,12.3L198.0,11.6L178.6,1.5L173.9,0.2L169.1,0.0L156.5,2.2L151.7,2.0L147.7,2.7L142.4,4.8L137.6,7.8L134.7,10.9L135.3,13.2L137.2,15.7L137.9,17.9L132.4,20.7L128.7,26.5L125.2,29.1L120.9,30.1L118.3,31.2L115.3,36.4L113.2,38.5L109.6,39.6L101.4,39.7L97.5,40.5L95.7,41.7Z " data-id="RS.SC" data-name="Severno-Backi" id="RS.SC"/>
utf-8utf-8<path d="M219.7,5.7L221.4,8.7L221.0,10.1L215.9,16.8L218.3,22.9L218.3,28.2L216.4,34.3L213.2,36.8L211.3,38.9L209.0,43.0L207.6,50.7L209.3,58.7L208.8,62.0L211.3,68.9L209.2,70.6L202.3,74.6L207.5,80.5L211.0,86.2L212.6,88.0L213.3,92.5L214.2,94.3L217.4,95.3L219.8,95.1L223.6,101.8L226.7,109.4L227.0,110.4L230.1,110.2L236.8,109.5L251.8,112.6L255.6,114.6L259.4,115.2L271.9,115.4L278.6,118.4L284.2,123.0L284.6,123.5L289.1,122.5L291.6,121.5L294.8,118.5L294.5,116.7L292.6,115.0L290.7,112.3L290.0,108.2L294.0,105.0L295.9,105.6L305.4,106.7L321.1,105.7L324.1,105.3L329.0,106.6L334.0,105.4L335.1,105.9L338.3,114.4L342.9,121.0L348.6,126.0L351.0,127.1L353.9,129.5L351.1,134.1L350.4,136.9L345.8,136.7L341.5,140.5L338.5,141.2L337.2,139.8L338.1,137.5L337.5,135.6L334.4,138.3L334.5,140.5L335.8,142.3L337.4,142.6L340.4,146.1L339.9,147.3L336.3,148.1L334.2,153.9L338.5,155.2L342.7,158.0L350.6,155.8L360.8,153.6L370.2,153.9L372.8,154.8L379.8,154.0L374.2,146.9L371.8,142.9L371.9,140.4L374.2,135.2L378.2,132.9L382.7,128.7L384.2,128.5L390.5,130.3L397.2,129.4L397.1,118.4L397.7,116.4L401.2,112.3L400.3,109.7L397.9,107.1L397.6,106.0L400.2,104.1L399.8,103.2L398.8,97.6L397.8,95.3L396.1,93.6L390.3,90.1L381.8,78.7L378.1,75.7L373.8,74.3L365.2,73.4L361.0,71.8L348.4,62.4L344.0,60.0L334.9,56.6L330.9,54.2L327.1,49.8L321.2,37.2L318.1,33.1L302.7,18.1L289.8,9.2L285.6,7.8L280.3,10.1L276.9,9.5L273.1,6.0L269.4,5.2L267.3,5.4L261.9,7.9L255.7,8.5L246.0,4.0L231.7,2.8L223.0,4.5L219.7,5.7Z " data-id="RS.SN" data-name="Severno-Banatski" id="RS.SN"/>
utf-8utf-8<path d="M586.9,369.3L577.8,369.7L567.1,372.8L557.1,377.5L550.1,382.5L545.4,390.8L542.6,391.8L536.9,391.4L533.9,391.6L526.8,396.6L517.7,397.8L517.7,397.8L518.1,400.7L519.1,403.1L520.8,404.5L523.3,404.8L522.2,410.6L524.1,411.8L529.0,416.0L526.5,419.1L532.0,425.7L531.9,430.9L536.5,430.9L539.3,431.5L541.2,433.1L543.3,436.7L545.3,441.0L545.7,444.4L544.5,447.1L541.6,449.7L541.8,451.6L545.3,452.4L548.6,458.2L550.2,457.2L550.7,462.7L555.4,464.8L553.9,465.3L550.9,464.8L549.8,470.3L555.6,473.9L556.5,475.9L550.2,476.0L547.1,478.6L545.9,482.6L545.4,487.1L543.9,493.5L544.9,496.4L549.4,500.6L548.7,504.0L552.3,505.9L553.3,508.2L551.7,509.7L547.7,509.4L547.9,511.4L549.5,511.4L549.6,513.1L548.1,513.1L548.3,515.0L551.6,516.5L554.6,516.0L557.3,516.3L560.8,518.0L563.0,518.3L566.6,519.9L573.2,527.1L581.3,529.5L583.0,529.4L584.6,527.6L587.5,519.5L595.5,524.9L597.2,526.8L597.8,530.1L600.6,534.1L605.0,535.5L606.2,536.7L604.8,541.7L603.8,543.0L604.6,544.9L606.6,545.6L612.8,545.3L615.1,542.5L617.0,541.9L622.5,541.7L628.4,545.7L630.0,545.9L633.9,545.1L648.2,556.6L650.6,561.6L658.9,563.8L662.7,563.2L673.8,565.0L677.2,567.7L677.9,569.7L686.7,571.2L692.2,570.1L694.2,571.0L698.3,574.5L699.9,575.1L706.6,574.3L709.1,575.7L711.1,576.7L711.5,576.7L714.6,575.9L719.3,575.8L722.4,572.7L728.4,569.2L730.7,568.5L740.6,566.9L741.9,564.6L737.5,556.6L737.5,555.4L739.8,552.8L738.8,544.8L738.4,540.4L736.8,537.3L737.5,533.3L734.8,532.6L733.0,533.7L729.9,537.2L724.8,534.6L723.3,524.3L721.5,517.8L717.6,514.4L714.3,513.4L711.8,512.0L704.0,513.4L701.9,509.9L702.5,505.4L698.2,501.3L697.6,497.6L698.5,495.5L701.0,494.0L702.8,486.7L703.6,486.2L709.3,486.9L715.2,479.0L722.8,478.3L724.3,474.8L721.8,468.3L724.0,461.7L724.7,460.6L724.7,456.7L723.3,454.5L726.2,452.6L728.3,452.2L731.4,445.8L740.8,436.3L744.9,434.0L744.2,432.2L743.6,430.2L735.9,417.1L733.5,415.1L726.2,414.1L705.1,404.9L701.3,404.3L697.5,405.2L689.7,408.2L679.9,410.0L668.3,410.1L657.1,407.2L648.2,400.0L645.5,395.1L643.7,390.2L641.3,385.8L637.0,382.6L632.5,381.6L619.0,382.5L599.8,380.7L596.0,379.2L591.4,372.0L587.1,369.3L586.9,369.3Z " data-id="RS.BR" data-name="Branicevski" id="RS.BR"/>
utf-8utf-8<path d="M138.4,275.6L119.2,276.4L115.0,272.8L113.4,273.4L111.1,276.6L101.9,277.6L97.1,277.4L92.7,276.0L90.1,273.8L85.4,268.6L82.7,267.4L77.8,268.4L79.8,272.4L83.1,277.6L82.6,282.0L77.9,282.9L65.3,281.8L62.2,284.4L62.7,286.8L68.9,292.6L70.9,296.1L71.9,298.7L73.3,305.3L75.9,313.3L76.4,316.2L75.0,325.4L75.7,328.2L78.3,330.1L82.7,328.6L84.9,330.6L86.2,334.7L84.8,336.7L80.3,338.8L77.3,344.0L75.5,346.3L72.9,347.7L69.6,347.3L64.8,343.1L61.7,342.2L55.9,345.2L57.1,350.7L62.6,358.6L69.6,356.7L74.1,356.1L77.6,355.0L96.4,342.3L99.2,341.7L103.0,347.0L105.3,347.0L111.3,345.1L121.3,347.0L127.1,345.9L131.9,349.6L134.2,350.3L138.0,350.4L138.0,350.4L130.1,343.2L133.6,343.4L140.8,345.5L144.0,345.0L146.3,342.8L145.7,340.6L147.7,337.9L150.7,338.2L155.4,341.1L159.9,348.3L163.4,349.2L167.9,345.1L170.7,345.1L174.2,347.5L180.7,349.0L182.8,349.0L191.0,345.6L194.5,345.3L201.7,345.8L207.6,339.8L213.7,341.1L218.8,343.5L224.9,344.2L227.4,347.9L226.5,351.4L218.5,368.3L217.0,374.5L221.2,384.2L224.6,388.1L228.4,389.6L239.9,389.8L251.5,394.7L257.7,398.5L261.9,402.0L267.6,405.1L282.9,405.0L284.9,409.7L272.3,415.0L275.2,422.5L282.3,419.9L282.3,419.9L289.2,414.3L293.3,409.6L297.1,406.5L307.5,401.6L309.0,395.5L309.8,388.4L309.2,387.5L303.6,385.1L302.6,381.9L306.8,379.4L310.5,377.9L313.2,364.5L315.2,360.1L316.7,352.5L317.6,351.7L326.8,350.9L334.3,345.4L338.6,345.0L343.5,344.0L351.6,339.8L347.6,334.3L344.1,328.1L345.8,328.1L346.7,323.6L352.7,319.0L357.4,312.5L352.1,300.0L352.1,300.0L352.1,300.0L339.7,285.8L336.8,283.4L331.8,279.1L323.5,273.9L315.0,271.3L288.4,273.9L283.4,273.3L270.4,270.0L268.2,274.1L266.7,280.5L264.5,281.4L255.4,282.9L252.1,282.2L242.1,281.5L232.0,281.7L230.1,282.2L223.7,276.2L218.8,279.8L215.8,280.0L207.8,283.2L194.8,283.1L190.4,283.3L187.2,284.1L174.3,281.5L165.1,277.8L153.2,274.5L152.1,274.9L151.4,277.2L149.1,280.4L146.8,281.9L145.0,281.1L139.1,275.0L138.4,275.6Z " data-id="RS.SM" data-name="Sremski" id="RS.SM"/>
utf-8utf-8<path d="M446.6,631.4L443.4,627.9L438.7,621.6L434.6,619.8L429.6,616.4L429.2,613.5L424.7,609.0L427.1,607.8L432.9,603.6L433.2,598.7L433.9,597.4L438.9,591.2L440.1,591.4L445.7,590.6L447.5,589.0L441.0,583.0L440.3,581.9L436.1,578.8L433.2,577.7L424.0,572.4L423.6,568.1L418.7,561.8L414.9,556.2L411.3,553.7L404.6,552.1L404.0,550.4L404.1,546.6L400.4,545.3L397.0,538.1L396.5,531.9L394.6,530.0L393.6,528.7L392.5,530.2L388.1,539.2L386.1,539.4L384.3,541.5L384.6,544.5L376.9,548.8L376.3,553.2L375.4,554.1L368.0,557.7L366.3,561.5L360.5,561.9L352.3,564.1L349.8,563.5L345.4,564.2L343.1,563.9L340.7,564.6L339.0,566.8L331.6,568.2L330.5,570.7L331.7,573.5L327.7,573.3L319.8,571.4L316.9,571.3L317.3,572.3L319.1,575.2L319.0,577.4L317.4,582.3L318.4,584.4L317.0,587.6L321.8,592.4L318.2,599.0L321.3,602.1L320.7,603.1L322.2,605.8L326.1,607.9L328.1,608.2L330.3,612.8L329.2,614.6L327.1,616.2L327.0,617.5L334.2,624.3L343.4,628.0L337.3,629.0L334.7,628.9L329.9,633.5L329.3,638.1L334.0,645.7L339.9,651.3L339.9,652.6L337.9,655.3L339.7,663.5L341.1,666.4L349.5,670.6L350.9,674.6L350.9,676.3L348.5,683.0L352.9,686.2L353.4,688.8L350.3,694.6L342.5,691.9L335.3,691.8L333.1,692.1L334.0,693.1L334.7,699.9L330.5,703.0L325.8,701.7L324.2,702.3L315.4,708.7L312.2,712.2L311.5,714.0L307.2,715.9L304.6,715.4L295.8,709.9L297.0,717.0L293.4,720.6L296.4,725.5L297.5,726.5L307.2,729.8L309.5,733.0L317.6,734.3L319.2,735.6L320.7,739.6L321.7,740.5L322.4,746.2L328.6,754.9L332.1,758.7L332.9,760.5L344.1,774.9L343.4,779.8L351.0,785.9L352.4,785.7L362.4,782.8L369.7,782.3L378.1,780.2L379.9,780.7L383.5,784.3L383.8,785.4L386.4,788.0L388.8,791.2L392.5,793.8L398.5,795.7L399.3,789.8L400.1,788.7L406.0,784.9L409.4,778.4L410.2,777.6L415.3,776.1L416.9,772.2L415.2,769.7L414.0,763.9L412.3,763.4L410.7,760.5L411.9,758.8L409.3,751.1L409.9,749.8L410.2,743.8L405.3,737.6L398.9,731.8L391.4,726.4L386.2,721.1L394.2,716.7L395.3,715.8L398.6,709.8L398.4,703.4L399.3,700.6L395.4,695.9L395.4,694.8L401.7,690.8L410.6,688.8L415.3,691.2L418.2,690.2L418.7,685.5L417.3,682.8L416.5,676.7L415.1,675.5L411.0,673.6L412.1,670.1L415.4,667.9L417.5,667.6L421.6,665.6L425.7,666.0L428.5,665.0L430.9,662.5L428.7,657.7L430.6,653.6L433.5,652.3L436.6,649.5L436.6,646.7L435.7,645.6L435.8,643.3L437.6,642.0L443.2,636.2L448.3,632.9L446.6,631.4Z " data-id="RS.MR" data-name="Moravicki" id="RS.MR"/>
utf-8utf-8<path d="M847.4,762.4L848.1,759.9L848.8,754.8L848.6,748.7L845.8,745.9L842.3,744.7L837.8,741.8L835.3,742.1L831.9,747.2L827.7,744.9L825.4,744.1L823.8,742.1L816.9,739.1L811.6,740.6L806.8,741.2L803.7,740.6L789.9,733.9L785.9,732.7L781.3,733.5L779.2,733.1L777.6,729.6L772.9,725.5L773.2,722.1L772.5,720.9L767.8,718.1L765.4,716.0L765.1,714.8L761.2,711.5L755.5,711.9L755.0,713.9L756.5,717.9L761.1,721.7L764.2,723.3L764.7,724.2L763.0,725.6L760.4,725.6L757.5,724.4L754.5,725.6L748.3,726.9L744.9,723.2L742.0,721.2L740.0,718.6L736.6,712.3L734.5,711.0L728.2,711.5L723.7,709.4L719.4,709.7L714.0,709.2L709.9,706.4L708.4,701.6L702.8,697.1L697.2,690.8L696.7,689.0L694.2,686.1L693.3,684.2L691.4,675.5L693.8,673.6L694.8,671.6L691.7,667.9L688.1,665.4L688.4,664.5L694.4,660.8L688.4,655.2L684.2,652.8L680.1,648.2L678.7,649.0L673.2,651.2L670.4,651.3L667.2,650.3L664.4,650.4L658.7,651.6L652.8,655.9L643.7,660.6L641.1,662.7L641.8,663.6L644.2,668.8L649.5,670.6L651.4,674.0L652.2,676.6L644.3,684.7L645.7,684.7L648.8,691.2L648.1,694.2L653.0,695.9L650.6,698.1L650.9,702.4L649.0,703.8L649.1,707.1L656.8,709.6L659.4,714.5L663.1,717.1L663.8,720.0L670.2,725.5L670.2,729.4L667.0,733.6L666.5,735.0L666.8,741.9L669.0,745.8L672.2,749.7L672.7,754.1L670.8,756.7L665.6,758.0L663.3,759.7L662.4,762.4L653.6,766.1L652.6,766.5L655.2,769.6L656.6,771.4L658.6,772.1L666.0,772.3L669.4,773.4L677.5,772.8L681.1,771.6L679.1,782.6L681.1,786.2L684.2,790.4L690.4,793.3L687.7,798.5L689.8,802.2L696.9,804.1L707.5,809.9L709.1,808.6L708.2,805.5L708.0,800.0L709.5,797.0L711.0,797.1L717.8,799.6L720.0,800.0L722.8,799.5L724.3,803.4L726.6,806.7L726.2,807.9L723.3,810.1L722.9,811.4L733.8,823.4L734.5,829.1L734.8,829.1L738.5,828.8L744.6,828.7L747.7,828.0L754.0,824.8L756.4,822.1L764.5,830.4L766.8,828.9L771.5,827.6L773.7,825.8L775.9,825.2L777.3,825.8L785.1,827.8L785.8,829.3L790.8,832.8L797.2,838.8L804.7,843.0L810.2,845.4L814.5,849.4L822.0,850.8L828.9,851.1L831.7,848.6L833.2,846.5L833.2,846.0L833.6,843.9L837.1,841.3L846.1,836.7L841.9,830.7L841.0,827.8L838.9,826.1L836.0,825.6L834.6,826.2L830.2,825.9L828.0,824.4L822.2,821.7L819.2,819.6L810.1,815.1L807.9,813.5L802.4,811.4L805.7,803.4L805.0,801.4L807.3,797.2L812.1,795.1L812.5,794.1L807.0,786.2L807.1,784.9L803.9,774.9L812.9,773.4L815.3,773.9L823.9,777.1L826.0,777.4L831.0,779.7L833.8,779.8L843.5,779.1L846.9,777.8L848.0,772.3L847.6,770.9L848.3,765.9L847.6,762.6L847.4,762.4Z " data-id="RS.NS" data-name="Nišavski" id="RS.NS"/>
utf-8utf-8<path d="M548.3,515.0L548.1,513.1L549.6,513.1L549.5,511.4L547.9,511.4L547.7,509.4L551.7,509.7L553.3,508.2L552.3,505.9L548.7,504.0L549.4,500.6L544.9,496.4L543.9,493.5L545.4,487.1L545.9,482.6L547.1,478.6L550.2,476.0L556.5,475.9L555.6,473.9L549.8,470.3L550.9,464.8L553.9,465.3L555.4,464.8L550.7,462.7L550.2,457.2L548.6,458.2L545.3,452.4L541.8,451.6L541.6,449.7L544.5,447.1L545.7,444.4L545.3,441.0L543.3,436.7L541.2,433.1L539.3,431.5L536.5,430.9L531.9,430.9L532.0,425.7L526.5,419.1L529.0,416.0L524.1,411.8L522.2,410.6L523.3,404.8L520.8,404.5L519.1,403.1L518.1,400.7L517.7,397.8L507.3,399.3L484.8,411.3L472.4,414.5L465.2,413.5L465.2,413.5L462.4,422.2L461.1,425.4L464.9,431.1L465.1,431.9L470.3,439.9L468.9,442.4L461.7,444.8L456.0,449.4L460.8,454.1L462.5,459.1L468.5,461.6L472.7,465.5L476.7,468.2L481.5,476.0L481.1,477.8L478.1,481.0L476.6,481.4L471.6,479.6L469.4,479.2L464.2,480.6L463.4,481.8L463.3,484.8L462.4,486.5L459.5,488.8L458.7,490.5L461.8,495.4L465.6,498.9L469.6,498.3L472.3,500.7L468.9,503.6L468.0,505.5L470.1,511.5L470.3,513.5L474.6,513.8L481.7,515.9L482.2,516.9L480.7,518.9L481.3,524.4L488.7,523.9L493.1,526.6L501.3,528.7L507.9,527.3L516.5,524.0L517.5,530.2L521.7,534.1L528.1,536.1L535.6,540.1L540.7,540.3L542.4,539.7L551.7,542.1L554.2,543.9L555.7,544.6L555.6,544.0L556.5,542.0L558.8,541.3L553.7,537.5L558.4,537.5L556.5,535.4L557.3,533.1L555.8,528.2L560.3,526.3L560.1,524.3L556.4,523.0L551.6,516.5L548.3,515.0Z " data-id="RS.PD" data-name="Podunavski" id="RS.PD"/>
utf-8utf-8<path d="M709.1,575.7L706.6,574.3L699.9,575.1L698.3,574.5L694.2,571.0L692.2,570.1L686.7,571.2L677.9,569.7L677.2,567.7L673.8,565.0L662.7,563.2L658.9,563.8L650.6,561.6L648.2,556.6L633.9,545.1L630.0,545.9L628.4,545.7L622.5,541.7L617.0,541.9L615.1,542.5L612.8,545.3L606.6,545.6L604.6,544.9L603.8,543.0L604.8,541.7L606.2,536.7L605.0,535.5L600.6,534.1L597.8,530.1L597.2,526.8L595.5,524.9L587.5,519.5L584.6,527.6L583.0,529.4L581.3,529.5L573.2,527.1L566.6,519.9L563.0,518.3L560.8,518.0L557.3,516.3L554.6,516.0L551.6,516.5L556.4,523.0L560.1,524.3L560.3,526.3L555.8,528.2L557.3,533.1L556.5,535.4L558.4,537.5L553.7,537.5L558.8,541.3L556.5,542.0L555.6,544.0L555.7,544.6L555.7,547.0L557.4,552.8L554.8,557.7L554.0,562.4L557.9,566.5L557.8,569.3L554.1,573.8L546.2,577.0L540.4,581.6L547.0,583.0L551.4,586.4L552.0,589.4L550.9,591.6L550.7,595.4L549.7,596.5L544.2,596.9L540.0,600.1L539.4,601.2L544.6,608.1L544.4,611.2L540.7,614.1L541.9,616.9L542.0,620.2L538.4,619.5L533.8,621.6L532.5,623.9L533.3,625.9L537.0,631.1L537.1,632.6L532.1,638.9L522.7,643.3L519.8,647.7L515.4,647.0L514.3,647.0L514.8,649.8L519.0,660.3L519.4,661.2L523.9,665.3L527.4,668.5L528.0,668.8L535.3,668.6L543.6,670.8L547.0,670.9L555.4,672.7L557.2,672.5L563.0,675.1L564.2,676.2L571.5,679.7L568.2,672.4L567.4,668.4L568.2,663.0L572.5,663.9L574.4,665.3L577.7,665.4L583.5,660.8L589.6,657.3L590.9,651.6L588.8,643.3L591.7,641.9L592.5,637.8L594.5,638.9L596.6,641.2L596.1,642.5L596.4,647.1L595.2,651.4L594.3,656.3L595.4,658.1L599.1,659.6L603.9,658.7L607.8,657.2L620.0,656.9L618.5,658.6L622.0,668.4L623.4,669.7L628.9,669.6L635.1,666.5L636.6,665.3L640.4,663.9L641.1,662.7L643.7,660.6L652.8,655.9L658.7,651.6L664.4,650.4L667.2,650.3L670.4,651.3L673.2,651.2L678.7,649.0L680.1,648.2L680.3,647.4L683.3,644.7L688.5,635.5L684.4,631.8L683.2,627.2L685.3,624.2L691.5,621.7L693.5,621.6L696.0,619.0L694.2,615.7L694.5,614.5L698.1,609.7L698.1,608.4L703.9,599.6L702.8,596.9L703.1,596.8L702.9,593.6L703.4,591.3L705.2,589.5L705.2,585.9L709.7,582.7L710.1,579.8L711.1,576.7L709.1,575.7Z " data-id="RS.PM" data-name="Pomoravski" id="RS.PM"/>
utf-8utf-8<path d="M640.4,663.9L636.6,665.3L635.1,666.5L628.9,669.6L623.4,669.7L622.0,668.4L618.5,658.6L620.0,656.9L607.8,657.2L603.9,658.7L599.1,659.6L595.4,658.1L594.3,656.3L595.2,651.4L596.4,647.1L596.1,642.5L596.6,641.2L594.5,638.9L592.5,637.8L591.7,641.9L588.8,643.3L590.9,651.6L589.6,657.3L583.5,660.8L577.7,665.4L574.4,665.3L572.5,663.9L568.2,663.0L567.4,668.4L568.2,672.4L571.5,679.7L564.2,676.2L563.0,675.1L557.2,672.5L555.4,672.7L547.0,670.9L543.6,670.8L535.3,668.6L528.0,668.8L527.4,668.5L524.3,668.6L522.2,669.7L518.3,668.8L519.7,672.2L518.3,676.0L518.3,677.4L519.9,682.9L513.6,688.4L511.9,691.3L520.7,693.0L523.4,696.3L525.3,696.7L529.3,700.3L529.1,700.8L521.8,706.5L520.3,710.9L522.9,715.8L524.4,721.7L527.0,725.4L530.8,728.9L525.1,731.5L518.5,732.5L511.9,731.7L509.7,730.4L504.8,726.3L501.7,728.4L497.0,729.4L490.9,727.4L490.6,730.1L492.0,732.8L494.5,735.7L495.5,742.5L494.6,744.3L493.7,751.7L494.5,759.9L495.7,761.1L501.1,762.9L505.5,761.7L508.0,762.4L508.8,769.8L509.5,773.2L511.4,776.3L507.3,783.1L505.3,784.6L505.0,786.8L506.3,790.1L507.0,796.0L509.2,796.6L518.0,803.6L520.5,807.5L517.5,806.8L515.1,808.9L515.1,817.8L514.2,818.0L515.9,820.2L533.4,828.8L542.0,818.9L540.4,812.2L539.8,805.5L541.6,803.5L545.5,797.5L546.5,797.2L552.1,799.1L558.5,797.3L562.3,799.4L562.9,800.6L566.8,802.4L570.3,802.3L580.2,797.3L582.9,794.1L585.5,785.4L586.6,784.0L592.2,774.9L592.2,773.4L597.1,769.7L603.4,768.6L613.6,763.4L619.7,762.7L622.9,761.4L626.9,762.3L630.8,763.8L636.4,763.0L639.3,761.9L641.2,762.3L644.5,765.7L651.3,766.8L652.6,766.5L653.6,766.1L662.4,762.4L663.3,759.7L665.6,758.0L670.8,756.7L672.7,754.1L672.2,749.7L669.0,745.8L666.8,741.9L666.5,735.0L667.0,733.6L670.2,729.4L670.2,725.5L663.8,720.0L663.1,717.1L659.4,714.5L656.8,709.6L649.1,707.1L649.0,703.8L650.9,702.4L650.6,698.1L653.0,695.9L648.1,694.2L648.8,691.2L645.7,684.7L644.3,684.7L652.2,676.6L651.4,674.0L649.5,670.6L644.2,668.8L641.8,663.6L641.1,662.7L640.4,663.9Z " data-id="RS.RN" data-name="Pomoravski" id="RS.RN"/>
utf-8utf-8<path d="M513.6,646.0L511.4,642.8L503.2,638.2L498.0,641.1L496.8,641.2L488.2,640.3L480.7,643.1L480.9,645.1L482.7,646.5L483.8,651.2L478.5,654.9L474.0,655.7L466.8,652.8L453.5,637.6L449.7,634.2L448.3,632.9L443.2,636.2L437.6,642.0L435.8,643.3L435.7,645.6L436.6,646.7L436.6,649.5L433.5,652.3L430.6,653.6L428.7,657.7L430.9,662.5L428.5,665.0L425.7,666.0L421.6,665.6L417.5,667.6L415.4,667.9L412.1,670.1L411.0,673.6L415.1,675.5L416.5,676.7L417.3,682.8L418.7,685.5L418.2,690.2L415.3,691.2L410.6,688.8L401.7,690.8L395.4,694.8L395.4,695.9L399.3,700.6L398.4,703.4L398.6,709.8L395.3,715.8L394.2,716.7L386.2,721.1L391.4,726.4L398.9,731.8L405.3,737.6L410.2,743.8L409.9,749.8L409.3,751.1L411.9,758.8L410.7,760.5L412.3,763.4L414.0,763.9L415.2,769.7L416.9,772.2L415.3,776.1L410.2,777.6L409.4,778.4L406.0,784.9L400.1,788.7L399.3,789.8L398.5,795.7L392.5,793.8L388.8,791.2L386.4,788.0L383.8,785.4L382.3,787.3L378.8,793.6L377.6,798.1L377.7,800.8L376.5,802.5L371.1,806.5L373.2,811.1L377.1,813.4L379.1,816.0L382.6,817.1L390.8,823.9L382.3,825.3L376.0,828.4L371.5,828.6L365.4,828.4L360.5,833.9L360.9,839.7L355.9,840.5L350.6,843.3L345.5,852.2L344.3,856.1L344.3,858.3L342.9,860.6L343.4,860.9L358.2,873.0L363.8,874.5L376.0,875.6L382.7,878.1L395.3,885.7L409.7,891.9L413.9,896.3L414.9,903.0L413.7,913.6L432.0,910.0L442.5,905.9L447.0,899.8L444.2,894.0L438.9,891.2L435.1,887.8L436.2,880.2L439.6,875.8L443.4,874.7L447.4,874.7L451.6,873.4L456.0,865.9L457.9,864.0L465.6,864.7L469.9,860.6L475.1,852.4L479.0,843.4L479.3,836.7L477.5,835.0L472.8,835.2L470.7,834.7L467.7,830.3L465.2,824.4L462.0,819.3L461.2,816.3L462.3,812.7L464.0,811.6L471.3,811.3L476.1,809.5L492.6,797.8L497.9,795.6L503.4,795.0L507.0,796.0L506.3,790.1L505.0,786.8L505.3,784.6L507.3,783.1L511.4,776.3L509.5,773.2L508.8,769.8L508.0,762.4L505.5,761.7L501.1,762.9L495.7,761.1L494.5,759.9L493.7,751.7L494.6,744.3L495.5,742.5L494.5,735.7L492.0,732.8L490.6,730.1L490.9,727.4L497.0,729.4L501.7,728.4L504.8,726.3L509.7,730.4L511.9,731.7L518.5,732.5L525.1,731.5L530.8,728.9L527.0,725.4L524.4,721.7L522.9,715.8L520.3,710.9L521.8,706.5L529.1,700.8L529.3,700.3L525.3,696.7L523.4,696.3L520.7,693.0L511.9,691.3L513.6,688.4L519.9,682.9L518.3,677.4L518.3,676.0L519.7,672.2L518.3,668.8L522.2,669.7L524.3,668.6L527.4,668.5L523.9,665.3L519.4,661.2L519.0,660.3L514.8,649.8L514.3,647.0L513.6,646.0Z " data-id="RS.RS" data-name="Raški" id="RS.RS"/>
utf-8utf-8<path d="M651.3,766.8L644.5,765.7L641.2,762.3L639.3,761.9L636.4,763.0L630.8,763.8L626.9,762.3L622.9,761.4L619.7,762.7L613.6,763.4L603.4,768.6L597.1,769.7L592.2,773.4L592.2,774.9L586.6,784.0L585.5,785.4L582.9,794.1L580.2,797.3L570.3,802.3L566.8,802.4L562.9,800.6L562.3,799.4L558.5,797.3L552.1,799.1L546.5,797.2L545.5,797.5L541.6,803.5L539.8,805.5L540.4,812.2L542.0,818.9L533.4,828.8L552.6,838.3L555.4,839.6L560.2,841.2L575.3,841.9L579.2,844.4L583.3,850.7L588.2,865.0L590.5,868.6L594.6,870.7L600.5,867.2L604.3,867.7L608.5,873.8L609.6,882.2L611.8,890.9L618.8,897.5L621.3,898.1L626.6,898.1L629.2,898.6L631.8,899.9L636.5,903.2L639.0,904.5L646.3,906.0L650.9,906.2L653.3,908.3L653.4,909.7L658.4,905.2L659.5,899.2L661.2,896.3L660.8,890.2L663.7,888.0L665.7,883.9L662.9,879.3L661.7,878.3L664.7,871.2L670.2,867.8L675.0,862.6L679.6,859.9L688.9,859.7L692.3,858.9L697.3,854.9L697.8,853.4L700.8,851.9L703.4,853.3L709.6,851.7L713.9,846.8L717.8,844.0L720.3,842.9L729.1,840.6L737.1,833.3L736.2,830.8L734.8,829.1L734.5,829.1L733.8,823.4L722.9,811.4L723.3,810.1L726.2,807.9L726.6,806.7L724.3,803.4L722.8,799.5L720.0,800.0L717.8,799.6L711.0,797.1L709.5,797.0L708.0,800.0L708.2,805.5L709.1,808.6L707.5,809.9L696.9,804.1L689.8,802.2L687.7,798.5L690.4,793.3L684.2,790.4L681.1,786.2L679.1,782.6L681.1,771.6L677.5,772.8L669.4,773.4L666.0,772.3L658.6,772.1L656.6,771.4L655.2,769.6L652.6,766.5L651.3,766.8Z " data-id="RS.TO" data-name="Toplicki" id="RS.TO"/>
utf-8utf-8<path d="M364.7,303.7L360.5,301.1L357.5,299.8L354.9,299.5L352.1,300.0L352.1,300.0L357.4,312.5L352.7,319.0L346.7,323.6L345.8,328.1L344.1,328.1L347.6,334.3L351.6,339.8L343.5,344.0L338.6,345.0L334.3,345.4L326.8,350.9L317.6,351.7L316.7,352.5L315.2,360.1L313.2,364.5L310.5,377.9L306.8,379.4L302.6,381.9L303.6,385.1L309.2,387.5L309.8,388.4L309.0,395.5L307.5,401.6L297.1,406.5L293.3,409.6L289.2,414.3L282.3,419.9L282.3,419.9L281.8,428.4L282.1,430.4L280.9,432.3L283.5,437.7L283.8,440.7L283.9,441.8L283.2,445.7L284.1,447.5L290.1,452.8L295.2,453.9L296.5,454.6L302.4,456.3L305.2,454.8L307.9,451.6L314.7,452.3L319.2,458.7L321.2,459.6L325.7,456.8L329.1,450.7L329.2,448.9L332.8,447.6L335.0,453.7L336.5,456.5L337.2,461.2L341.2,464.2L343.9,471.6L343.0,476.3L344.9,480.7L345.0,483.5L343.5,488.8L339.9,492.7L340.2,494.1L338.7,496.0L340.5,499.8L341.2,503.0L338.6,507.4L340.1,510.7L344.7,516.5L354.7,524.2L356.2,526.7L360.5,529.0L362.1,528.9L363.0,524.8L367.0,526.1L368.8,526.2L371.6,524.7L375.5,519.0L376.7,516.4L383.6,514.9L384.6,514.4L384.6,514.1L386.7,510.1L386.5,505.6L392.6,497.0L390.0,494.3L387.8,493.1L383.7,488.8L385.8,485.3L388.4,484.3L393.1,480.5L394.5,480.6L401.4,484.6L408.7,486.5L415.4,489.5L415.2,496.9L417.4,497.7L422.2,496.2L431.1,492.8L434.3,495.4L435.4,501.2L440.0,504.7L442.2,506.9L449.7,503.4L457.5,506.4L459.7,506.6L466.8,511.4L470.3,513.5L470.1,511.5L468.0,505.5L468.9,503.6L472.3,500.7L469.6,498.3L465.6,498.9L461.8,495.4L458.7,490.5L459.5,488.8L462.4,486.5L463.3,484.8L463.4,481.8L464.2,480.6L469.4,479.2L471.6,479.6L476.6,481.4L478.1,481.0L481.1,477.8L481.5,476.0L476.7,468.2L472.7,465.5L468.5,461.6L462.5,459.1L460.8,454.1L456.0,449.4L461.7,444.8L468.9,442.4L470.3,439.9L465.1,431.9L464.9,431.1L461.1,425.4L462.4,422.2L465.2,413.5L458.2,412.5L453.0,409.5L447.7,404.9L438.8,394.7L435.6,391.8L429.2,388.6L424.9,382.8L424.6,379.7L425.6,366.4L421.8,361.6L415.3,360.7L415.2,356.3L416.2,353.5L415.6,352.4L410.3,347.4L407.7,345.8L398.3,342.3L396.9,341.5L391.4,336.0L390.9,332.0L389.0,330.3L383.6,328.9L378.6,324.1L378.1,322.9L374.7,320.0L368.2,315.8L366.0,311.0L365.1,304.1L365.1,304.1L364.7,303.7Z " data-id="RS.BG" data-name="Grad Beograd" id="RS.BG"/>
utf-8utf-8<path d="M282.7,440.7L273.1,444.2L268.7,442.1L267.1,442.5L262.7,445.6L261.2,446.1L258.2,449.9L257.8,451.8L261.4,458.8L262.6,460.0L263.4,462.5L261.0,465.1L262.7,470.9L263.0,475.2L262.2,476.0L257.8,475.4L255.2,477.6L260.9,484.1L258.4,488.4L255.4,489.0L247.4,489.0L244.8,488.7L244.1,485.8L241.2,482.4L222.1,475.3L212.8,476.6L208.5,478.4L203.6,479.5L201.8,479.1L199.1,475.8L195.2,473.2L182.5,474.7L179.6,475.4L178.6,477.3L182.8,479.7L182.9,480.8L181.1,489.8L179.4,493.1L177.5,494.4L173.3,494.7L173.6,499.2L175.3,500.4L182.9,506.8L182.8,507.4L176.5,510.3L174.1,514.7L173.5,517.3L170.9,519.3L169.9,525.4L174.9,528.6L184.8,531.1L188.0,533.1L191.6,534.3L194.9,534.6L200.9,537.9L205.4,543.0L206.5,547.8L210.1,549.6L214.9,555.1L215.8,555.4L217.8,555.1L224.5,556.8L234.8,561.7L240.9,565.4L242.8,565.3L248.6,570.1L249.2,571.3L252.6,574.9L253.5,579.2L258.8,580.3L260.9,579.2L261.0,575.9L253.3,561.8L255.6,561.4L264.1,566.0L267.4,563.5L269.4,562.8L271.0,559.3L276.5,559.5L281.4,561.5L282.1,562.7L280.8,565.3L282.8,568.0L292.8,573.2L298.2,574.0L304.6,566.2L307.4,568.0L309.9,568.1L313.4,569.6L316.9,571.3L319.8,571.4L327.7,573.3L331.7,573.5L330.5,570.7L331.6,568.2L339.0,566.8L340.7,564.6L343.1,563.9L345.4,564.2L349.8,563.5L352.3,564.1L360.5,561.9L366.3,561.5L368.0,557.7L375.4,554.1L376.3,553.2L376.9,548.8L384.6,544.5L384.3,541.5L386.1,539.4L388.1,539.2L392.5,530.2L393.6,528.7L393.7,527.0L391.0,521.0L390.8,517.2L387.2,514.8L384.6,514.4L383.6,514.9L376.7,516.4L375.5,519.0L371.6,524.7L368.8,526.2L367.0,526.1L363.0,524.8L362.1,528.9L360.5,529.0L356.2,526.7L354.7,524.2L344.7,516.5L340.1,510.7L338.6,507.4L341.2,503.0L340.5,499.8L338.7,496.0L340.2,494.1L339.9,492.7L343.5,488.8L345.0,483.5L344.9,480.7L343.0,476.3L343.9,471.6L341.2,464.2L337.2,461.2L336.5,456.5L335.0,453.7L332.8,447.6L329.2,448.9L329.1,450.7L325.7,456.8L321.2,459.6L319.2,458.7L314.7,452.3L307.9,451.6L305.2,454.8L302.4,456.3L296.5,454.6L295.2,453.9L290.1,452.8L284.1,447.5L283.2,445.7L283.9,441.8L283.8,440.7L282.7,440.7Z " data-id="RS.KB" data-name="Kolubarski" id="RS.KB"/>
utf-8utf-8<path d="M275.2,422.5L272.3,415.0L284.9,409.7L282.9,405.0L267.6,405.1L261.9,402.0L257.7,398.5L251.5,394.7L239.9,389.8L228.4,389.6L224.6,388.1L221.2,384.2L217.0,374.5L218.5,368.3L226.5,351.4L227.4,347.9L224.9,344.2L218.8,343.5L213.7,341.1L207.6,339.8L201.7,345.8L194.5,345.3L191.0,345.6L182.8,349.0L180.7,349.0L174.2,347.5L170.7,345.1L167.9,345.1L163.4,349.2L159.9,348.3L155.4,341.1L150.7,338.2L147.7,337.9L145.7,340.6L146.3,342.8L144.0,345.0L140.8,345.5L133.6,343.4L130.1,343.2L138.0,350.4L139.4,351.7L142.7,356.6L143.2,359.3L140.5,361.6L135.7,394.6L133.9,399.6L132.0,402.4L127.8,405.7L125.7,408.0L124.2,410.5L121.8,418.7L112.7,434.3L108.5,437.7L108.2,439.5L108.8,443.9L108.6,445.8L104.6,451.1L96.9,453.4L96.7,457.7L101.4,469.8L101.7,477.2L99.4,481.2L96.6,484.7L95.2,490.3L96.1,495.5L98.4,501.0L104.2,510.3L108.7,514.6L113.3,516.4L123.1,518.3L133.1,521.0L140.2,519.5L142.8,519.9L146.9,522.7L151.2,527.6L154.5,533.5L155.5,539.0L157.3,542.5L161.8,546.3L172.2,552.7L177.8,555.2L180.1,553.0L181.4,553.0L183.5,555.1L184.5,560.0L189.8,564.5L194.3,569.7L197.7,568.1L201.3,563.1L206.5,561.5L212.1,562.4L214.0,561.5L216.0,556.3L215.8,555.4L214.9,555.1L210.1,549.6L206.5,547.8L205.4,543.0L200.9,537.9L194.9,534.6L191.6,534.3L188.0,533.1L184.8,531.1L174.9,528.6L169.9,525.4L170.9,519.3L173.5,517.3L174.1,514.7L176.5,510.3L182.8,507.4L182.9,506.8L175.3,500.4L173.6,499.2L173.3,494.7L177.5,494.4L179.4,493.1L181.1,489.8L182.9,480.8L182.8,479.7L178.6,477.3L179.6,475.4L182.5,474.7L195.2,473.2L199.1,475.8L201.8,479.1L203.6,479.5L208.5,478.4L212.8,476.6L222.1,475.3L241.2,482.4L244.1,485.8L244.8,488.7L247.4,489.0L255.4,489.0L258.4,488.4L260.9,484.1L255.2,477.6L257.8,475.4L262.2,476.0L263.0,475.2L262.7,470.9L261.0,465.1L263.4,462.5L262.6,460.0L261.4,458.8L257.8,451.8L258.2,449.9L261.2,446.1L262.7,445.6L267.1,442.5L268.7,442.1L273.1,444.2L282.7,440.7L283.8,440.7L283.5,437.7L280.9,432.3L282.1,430.4L281.8,428.4L282.3,419.9L275.2,422.5Z " data-id="RS.MA" data-name="Macvanski" id="RS.MA"/>
utf-8utf-8<path d="M466.8,511.4L459.7,506.6L457.5,506.4L449.7,503.4L442.2,506.9L440.0,504.7L435.4,501.2L434.3,495.4L431.1,492.8L422.2,496.2L417.4,497.7L415.2,496.9L415.4,489.5L408.7,486.5L401.4,484.6L394.5,480.6L393.1,480.5L388.4,484.3L385.8,485.3L383.7,488.8L387.8,493.1L390.0,494.3L392.6,497.0L386.5,505.6L386.7,510.1L384.6,514.1L384.6,514.4L387.2,514.8L390.8,517.2L391.0,521.0L393.7,527.0L393.6,528.7L394.6,530.0L396.5,531.9L397.0,538.1L400.4,545.3L404.1,546.6L404.0,550.4L404.6,552.1L411.3,553.7L414.9,556.2L418.7,561.8L423.6,568.1L424.0,572.4L433.2,577.7L436.1,578.8L440.3,581.9L441.0,583.0L447.5,589.0L445.7,590.6L440.1,591.4L438.9,591.2L433.9,597.4L433.2,598.7L432.9,603.6L427.1,607.8L424.7,609.0L429.2,613.5L429.6,616.4L434.6,619.8L438.7,621.6L443.4,627.9L446.6,631.4L448.3,632.9L449.7,634.2L453.5,637.6L466.8,652.8L474.0,655.7L478.5,654.9L483.8,651.2L482.7,646.5L480.9,645.1L480.7,643.1L488.2,640.3L496.8,641.2L498.0,641.1L503.2,638.2L511.4,642.8L513.6,646.0L514.3,647.0L515.4,647.0L519.8,647.7L522.7,643.3L532.1,638.9L537.1,632.6L537.0,631.1L533.3,625.9L532.5,623.9L533.8,621.6L538.4,619.5L542.0,620.2L541.9,616.9L540.7,614.1L544.4,611.2L544.6,608.1L539.4,601.2L540.0,600.1L544.2,596.9L549.7,596.5L550.7,595.4L550.9,591.6L552.0,589.4L551.4,586.4L547.0,583.0L540.4,581.6L546.2,577.0L554.1,573.8L557.8,569.3L557.9,566.5L554.0,562.4L554.8,557.7L557.4,552.8L555.7,547.0L555.7,544.6L554.2,543.9L551.7,542.1L542.4,539.7L540.7,540.3L535.6,540.1L528.1,536.1L521.7,534.1L517.5,530.2L516.5,524.0L507.9,527.3L501.3,528.7L493.1,526.6L488.7,523.9L481.3,524.4L480.7,518.9L482.2,516.9L481.7,515.9L474.6,513.8L470.3,513.5L466.8,511.4Z " data-id="RS.SU" data-name="Šumadijski" id="RS.SU"/>
utf-8utf-8<path d="M884.9,916.4L878.3,919.1L875.0,920.0L870.3,926.1L868.0,927.4L861.3,930.1L857.8,933.6L849.7,935.1L848.4,935.6L833.2,928.0L828.0,924.5L827.3,921.4L826.0,920.6L822.5,920.6L820.0,923.2L818.5,923.8L813.5,923.1L814.3,920.0L812.6,916.2L805.5,915.6L797.3,919.7L795.1,920.2L791.6,918.7L789.6,916.9L784.7,920.9L783.7,922.6L776.0,925.2L772.9,925.1L766.5,926.1L764.2,925.8L759.8,926.9L752.8,927.7L746.5,931.7L747.4,934.5L742.4,938.3L742.1,944.2L742.5,946.3L741.7,947.7L735.9,951.4L733.8,953.9L738.6,956.6L741.1,962.6L740.1,965.0L733.2,968.9L733.4,969.7L732.7,975.3L730.4,978.0L733.0,982.6L731.3,988.9L721.7,1005.5L713.5,1013.6L711.8,1016.6L711.7,1020.8L713.7,1029.5L713.2,1033.7L708.9,1037.7L695.8,1041.4L691.4,1045.9L691.8,1052.5L701.8,1064.5L704.9,1072.0L707.5,1073.2L718.7,1073.0L726.9,1075.0L734.0,1073.2L736.9,1069.6L760.6,1056.0L765.1,1055.0L774.2,1055.1L775.7,1054.8L782.8,1048.8L785.1,1047.8L788.0,1048.3L800.7,1053.9L808.4,1056.3L816.0,1057.1L823.7,1055.8L853.7,1044.0L859.1,1038.5L861.1,1038.2L862.3,1039.5L862.9,1044.1L863.8,1046.1L867.5,1049.6L871.3,1052.1L875.5,1053.5L880.0,1053.7L884.1,1051.6L893.5,1051.5L897.5,1050.3L900.4,1046.4L903.0,1036.4L906.0,1032.3L909.3,1030.9L912.1,1030.3L914.5,1028.7L916.4,1024.4L918.5,1014.4L918.7,1008.7L915.2,1000.7L912.0,997.6L904.6,993.1L891.8,983.3L890.8,982.9L891.0,977.5L893.5,957.0L891.5,953.3L896.3,943.3L898.7,937.4L895.1,935.1L891.6,931.0L885.0,919.4L884.4,917.3L884.9,916.4Z " data-id="RS.PC" data-name="Pcinjski" id="RS.PC"/>
utf-8utf-8<path d="M831.7,848.6L828.9,851.1L822.0,850.8L814.5,849.4L810.2,845.4L804.7,843.0L797.2,838.8L790.8,832.8L785.8,829.3L785.1,827.8L777.3,825.8L775.9,825.2L773.7,825.8L771.5,827.6L766.8,828.9L764.5,830.4L756.4,822.1L754.0,824.8L747.7,828.0L744.6,828.7L738.5,828.8L734.8,829.1L736.2,830.8L737.1,833.3L729.1,840.6L720.3,842.9L717.8,844.0L713.9,846.8L709.6,851.7L703.4,853.3L700.8,851.9L697.8,853.4L697.3,854.9L692.3,858.9L688.9,859.7L679.6,859.9L675.0,862.6L670.2,867.8L664.7,871.2L661.7,878.3L662.9,879.3L665.7,883.9L663.7,888.0L660.8,890.2L661.2,896.3L659.5,899.2L658.4,905.2L653.4,909.7L654.0,915.4L653.5,920.0L651.3,929.1L651.0,933.3L649.4,936.3L651.8,937.7L655.7,938.7L663.9,938.5L686.9,941.3L692.2,942.8L695.9,945.5L704.0,953.6L708.0,955.9L711.3,955.8L720.7,951.9L725.6,951.8L732.4,953.2L733.8,953.9L735.9,951.4L741.7,947.7L742.5,946.3L742.1,944.2L742.4,938.3L747.4,934.5L746.5,931.7L752.8,927.7L759.8,926.9L764.2,925.8L766.5,926.1L772.9,925.1L776.0,925.2L783.7,922.6L784.7,920.9L789.6,916.9L791.6,918.7L795.1,920.2L797.3,919.7L805.5,915.6L812.6,916.2L814.3,920.0L813.5,923.1L818.5,923.8L820.0,923.2L822.5,920.6L826.0,920.6L827.3,921.4L828.0,924.5L833.2,928.0L848.4,935.6L849.7,935.1L857.8,933.6L861.3,930.1L868.0,927.4L870.3,926.1L875.0,920.0L878.3,919.1L884.9,916.4L886.2,914.4L888.0,912.8L893.4,910.1L895.6,908.3L898.6,903.5L900.5,902.0L907.7,902.4L909.1,901.6L909.2,901.5L904.2,900.7L899.8,899.5L896.2,899.3L892.8,899.8L889.4,899.5L883.7,898.0L875.5,892.6L874.6,891.0L867.5,887.1L865.6,885.8L874.8,881.7L873.8,880.1L868.5,876.8L865.6,875.5L855.0,871.9L847.1,868.8L841.7,869.0L838.4,866.8L827.4,862.0L827.6,860.5L833.5,855.7L836.6,854.3L838.9,850.7L834.8,847.8L833.2,846.5L831.7,848.6Z " data-id="RS.JA" data-name="Jablanicki" id="RS.JA"/>
utf-8utf-8<path d="M703.1,596.8L702.8,596.9L703.9,599.6L698.1,608.4L698.1,609.7L694.5,614.5L694.2,615.7L696.0,619.0L693.5,621.6L691.5,621.7L685.3,624.2L683.2,627.2L684.4,631.8L688.5,635.5L683.3,644.7L680.3,647.4L680.1,648.2L684.2,652.8L688.4,655.2L694.4,660.8L688.4,664.5L688.1,665.4L691.7,667.9L694.8,671.6L693.8,673.6L691.4,675.5L693.3,684.2L694.2,686.1L696.7,689.0L697.2,690.8L702.8,697.1L708.4,701.6L709.9,706.4L714.0,709.2L719.4,709.7L723.7,709.4L728.2,711.5L734.5,711.0L736.6,712.3L740.0,718.6L742.0,721.2L744.9,723.2L748.3,726.9L754.5,725.6L757.5,724.4L760.4,725.6L763.0,725.6L764.7,724.2L764.2,723.3L761.1,721.7L756.5,717.9L755.0,713.9L755.5,711.9L761.2,711.5L765.1,714.8L765.4,716.0L767.8,718.1L772.5,720.9L773.2,722.1L772.9,725.5L777.6,729.6L779.2,733.1L781.3,733.5L785.9,732.7L789.9,733.9L803.7,740.6L806.8,741.2L811.6,740.6L816.9,739.1L823.8,742.1L825.4,744.1L827.7,744.9L831.9,747.2L835.3,742.1L837.8,741.8L842.3,744.7L845.8,745.9L848.6,748.7L848.8,754.8L848.1,759.9L847.4,762.4L847.6,762.6L852.9,764.3L861.0,767.9L867.3,769.3L872.9,772.8L876.6,772.4L880.0,769.8L880.9,767.4L882.4,766.8L883.8,767.8L886.3,771.2L894.7,776.9L902.2,778.1L903.9,776.5L903.1,774.8L908.7,768.2L912.7,766.1L919.5,757.4L918.9,756.9L915.9,752.2L914.0,750.6L911.8,750.1L907.0,750.3L904.5,749.8L902.2,748.4L897.0,743.3L889.2,740.1L885.8,737.6L883.1,732.4L877.5,719.4L874.2,714.5L873.0,705.7L873.7,703.2L871.6,699.8L870.7,693.6L868.8,690.0L866.3,688.0L859.3,684.8L856.3,682.5L853.9,679.7L848.6,669.2L848.3,667.0L848.6,662.4L848.2,660.3L841.7,654.2L837.9,646.8L838.5,640.9L840.7,634.6L841.9,626.2L841.5,618.1L844.3,611.9L844.3,607.6L843.6,599.7L843.7,596.4L846.1,592.7L850.9,590.7L857.9,589.7L857.5,588.4L853.4,581.1L854.3,577.8L855.7,577.2L859.5,572.3L859.8,570.5L856.4,565.4L852.2,564.3L844.7,561.6L843.5,559.8L839.4,556.9L836.0,556.0L826.6,559.1L817.0,557.8L810.5,556.3L804.0,551.7L801.2,548.7L799.2,554.3L795.2,559.4L793.7,561.9L793.7,563.8L799.7,568.4L800.6,575.4L803.5,579.8L806.2,582.6L807.0,589.0L801.3,593.6L800.9,595.9L793.7,608.7L793.1,611.5L793.9,615.2L793.4,617.9L789.2,621.5L787.5,621.9L785.0,626.9L784.8,628.4L780.4,625.4L771.8,622.2L767.4,615.2L767.2,613.9L763.1,607.8L758.9,607.9L756.5,611.6L753.0,611.2L750.7,609.9L744.9,608.7L735.4,602.5L731.8,598.4L730.4,597.6L725.1,596.6L718.8,598.1L712.9,596.4L707.3,597.6L704.4,597.0L703.1,596.8Z " data-id="RS.ZJ" data-name="Zajecarski" id="RS.ZJ"/>
utf-8</g>
</svg>
