<?xml version="1.0" ?>
<!DOCTYPE svg
  PUBLIC '-//W3C//DTD SVG 1.1//EN'
  'http://www.w3.org/Graphics/SVG/1.1/DTD/svg11.dtd'>
<svg enable_background="new 0 0 1000 310" height="310px" pretty_print="True" style="stroke-linejoin: round; stroke:#000; fill: none;" version="1.1" viewBox="0 0 1000 310" width="1000px" xmlns="http://www.w3.org/2000/svg" xmlns:xlink="http://www.w3.org/1999/xlink">
utf-8<defs>
utf-8utf-8<style type="text/css">
<![CDATA[path { fill-rule: evenodd; }]]>utf-8utf-8</style>
utf-8</defs>
utf-8<metadata>
utf-8utf-8<views>
utf-8utf-8utf-8<view h="310.323488154" padding="0" w="1000">
utf-8utf-8utf-8utf-8<proj flip="auto" id="robinson" lon0="81.5754385266"/>
utf-8utf-8utf-8utf-8<bbox h="551.9" w="1784.2" x="243.64" y="-1243.42"/>
utf-8utf-8utf-8</view>
utf-8utf-8</views>
utf-8</metadata>
utf-8<g class="" id="provinces">
utf-8utf-8<path d="M416.2,132.6L411.8,130.7L409.6,130.9L406.4,133.5L405.9,135.1L403.6,134.3L394.9,132.9L392.2,133.9L385.9,133.5L384.8,132.6L371.0,132.4L370.9,135.5L371.8,138.7L373.8,141.8L371.0,143.7L369.9,145.5L369.3,150.1L368.4,151.1L368.5,151.3L368.6,151.5L368.6,151.6L368.4,151.9L370.2,152.7L369.4,154.1L370.5,156.0L381.0,163.3L381.3,163.5L386.2,163.8L397.6,164.3L397.8,164.6L406.4,166.3L414.7,170.5L418.8,169.8L423.1,172.2L427.9,171.3L432.1,169.6L437.1,176.4L440.1,177.1L440.1,175.5L443.6,174.5L443.6,174.1L443.7,174.0L448.4,172.3L451.4,172.4L451.5,171.2L453.7,168.9L465.3,168.6L468.1,167.5L468.3,167.1L468.2,166.7L466.2,164.8L467.7,160.4L469.1,160.2L467.1,157.4L464.1,157.3L458.1,155.9L454.7,152.6L455.6,149.1L457.8,148.0L454.8,145.7L450.7,146.0L441.9,140.8L438.3,140.1L433.9,140.1L431.1,140.6L425.7,140.5L424.4,139.2L423.7,136.4L418.1,132.5L417.8,132.4L416.2,132.6Z " data-id="RU.TO" data-name="Tomsk" id="RU.TO"/>
utf-8utf-8<path d="M160.0,272.6L156.4,273.9L152.3,273.4L155.7,275.5L158.6,275.6L158.5,273.5L160.7,274.0L162.1,276.6L161.9,278.9L163.7,282.1L161.6,281.8L166.3,285.1L166.3,280.8L165.3,277.5L168.0,277.9L167.2,275.9L164.0,273.0L160.0,272.6Z " data-id="RU.AD" data-name="Adygey" id="RU.AD"/>
utf-8utf-8<path d="M184.1,284.4L181.0,282.1L181.2,280.4L176.3,278.7L176.0,278.7L175.9,278.7L175.9,281.7L173.9,283.0L170.3,281.6L171.1,283.0L169.9,287.2L170.3,287.4L175.4,288.9L177.9,289.9L182.9,289.8L183.0,289.8L183.0,286.4L184.2,285.9L184.3,284.8L184.3,284.6L184.1,284.4Z " data-id="RU.KC" data-name="Karachay-Cherkess" id="RU.KC"/>
utf-8utf-8<path d="M200.6,286.7L198.5,286.8L199.5,289.7L202.4,291.2L201.0,294.2L201.0,294.2L202.6,294.1L204.3,294.7L204.3,294.7L204.1,290.5L202.8,287.7L201.0,286.7L200.8,286.6L200.6,286.7Z " data-id="RU.IN" data-name="Ingush" id="RU.IN"/>
utf-8utf-8<path d="M196.2,284.0L196.9,282.9L192.2,284.2L184.4,284.5L184.3,284.6L184.3,284.8L184.2,285.9L183.0,286.4L183.0,289.8L183.4,289.8L184.9,290.6L186.3,290.3L189.8,292.6L191.3,292.9L193.5,290.7L197.9,288.1L197.4,285.8L196.3,285.1L196.2,284.5L196.2,284.0Z " data-id="RU.KB" data-name="Kabardin-Balkar" id="RU.KB"/>
utf-8utf-8<path d="M200.6,285.8L200.3,284.7L196.4,284.5L196.2,284.5L196.3,285.1L197.4,285.8L197.9,288.1L193.5,290.7L191.3,292.9L192.0,293.1L194.8,294.4L194.3,295.0L197.5,295.3L200.7,294.2L201.0,294.2L202.4,291.2L199.5,289.7L198.5,286.8L200.6,286.7L200.8,286.6L200.7,285.9L200.6,285.8Z " data-id="RU.NO" data-name="North Ossetia" id="RU.NO"/>
utf-8utf-8<path d="M204.5,274.0L203.3,272.3L197.0,269.6L193.9,269.0L191.5,267.7L188.5,265.0L181.0,263.0L175.4,265.0L173.0,264.7L172.8,264.8L170.8,264.7L170.6,265.1L169.0,265.1L169.0,265.2L170.2,266.9L167.4,268.4L169.5,271.8L171.5,271.7L173.1,273.9L174.4,273.9L173.4,276.3L175.9,278.4L176.0,278.7L176.3,278.7L181.2,280.4L181.0,282.1L184.1,284.4L184.3,284.6L184.4,284.5L192.2,284.2L196.9,282.9L196.2,284.0L196.2,284.5L196.4,284.5L200.3,284.7L200.6,285.8L200.7,285.9L201.1,286.0L201.7,285.0L202.8,283.3L204.6,282.8L205.0,282.7L204.8,281.9L204.8,281.2L201.7,281.0L203.3,278.8L204.2,274.5L204.5,274.0L204.5,274.0Z " data-id="RU.ST" data-name="Stavropol'" id="RU.ST"/>
utf-8utf-8<path d="M19.3,182.7L12.2,181.1L11.1,184.0L7.1,183.5L3.3,184.2L4.4,187.1L23.2,189.1L23.6,184.8L19.3,182.7Z " data-id="RU.KN" data-name="Kaliningrad" id="RU.KN"/>
utf-8utf-8<path d="M69.8,84.7L69.8,84.7L70.0,84.8L70.6,84.9L70.6,84.9L72.8,85.0L72.1,84.6L70.2,84.7L69.8,84.7Z M64.7,80.4L64.2,80.2L64.2,80.3L64.7,80.4Z M46.9,84.3L57.7,83.9L62.8,86.3L65.9,86.3L68.8,84.6L68.6,84.5L69.1,83.8L63.2,80.0L66.0,80.2L67.7,81.5L77.8,84.3L78.4,84.9L81.1,84.5L84.1,85.7L91.2,87.0L94.3,87.1L101.2,88.7L105.2,88.9L110.5,87.9L116.0,86.1L119.7,82.1L119.4,79.5L116.2,76.7L115.6,75.4L111.8,74.2L108.1,72.2L105.8,72.6L101.4,70.7L95.8,69.2L92.4,67.5L80.9,63.7L76.5,63.1L67.7,62.7L66.7,63.8L61.0,61.3L58.8,61.9L57.5,60.1L61.9,60.7L63.2,60.1L54.7,58.5L54.6,59.4L49.4,59.2L47.7,61.0L42.0,62.8L41.2,64.4L36.9,66.3L39.1,66.6L37.6,69.1L40.0,71.8L43.8,72.6L48.7,76.6L44.4,82.0L46.6,83.9L46.9,84.3Z " data-id="RU.MM" data-name="Murmansk" id="RU.MM"/>
utf-8utf-8<path d="M96.3,147.3L93.5,146.6L91.8,146.9L89.6,145.6L83.6,146.7L77.6,144.9L75.2,145.2L74.4,148.4L72.1,147.8L70.7,150.5L67.3,150.3L66.7,153.1L66.5,153.1L66.3,153.3L65.2,156.1L67.0,157.4L71.2,157.9L70.7,158.8L72.0,161.0L72.2,162.9L75.5,166.0L76.1,166.0L76.6,166.1L82.2,164.9L86.7,162.1L90.8,161.9L92.4,157.1L91.5,156.6L94.9,155.1L97.5,155.7L101.6,155.0L102.5,153.6L107.8,152.5L107.9,152.4L107.8,152.3L105.9,150.4L100.2,149.9L97.1,147.7L97.0,147.4L96.3,147.3Z " data-id="RU.NG" data-name="Novgorod" id="RU.NG"/>
utf-8utf-8<path d="M65.8,153.1L53.9,149.2L53.2,148.4L50.6,148.5L50.5,148.6L51.1,154.3L53.1,155.4L55.1,158.2L51.7,156.6L50.2,160.7L53.8,165.1L53.7,167.1L54.8,166.9L58.4,172.2L58.3,173.3L60.9,173.6L62.5,174.9L64.8,174.2L67.1,176.6L73.2,175.9L77.8,178.0L78.0,178.2L78.6,177.1L78.6,176.5L81.5,176.9L81.6,176.8L81.5,176.6L80.7,171.8L77.1,170.0L76.1,166.1L76.1,166.0L75.5,166.0L72.2,162.9L72.0,161.0L70.7,158.8L71.2,157.9L67.0,157.4L65.2,156.1L66.3,153.3L66.5,153.1L65.8,153.1Z " data-id="RU.PS" data-name="Pskov" id="RU.PS"/>
utf-8utf-8<path d="M51.7,145.4L52.2,145.5L52.4,145.5L51.7,145.4Z M45.6,141.1L45.5,140.8L45.4,140.9L45.6,141.1Z M52.9,139.4L53.1,139.6L53.1,139.6L52.9,139.4Z M53.0,136.0L52.7,135.9L53.1,136.3L53.0,136.0Z M48.6,135.4L48.5,135.6L48.7,135.6L48.6,135.4Z M54.3,135.6L53.7,135.2L53.4,135.1L54.3,135.6Z M53.7,134.5L53.1,134.3L53.1,134.4L53.7,134.5Z M53.1,134.3L52.8,134.1L53.0,134.4L53.1,134.3Z M56.5,128.7L48.3,135.1L50.5,135.1L54.2,133.7L53.2,135.3L59.6,138.2L59.6,138.2L60.8,137.4L65.6,138.5L67.9,141.1L61.9,140.1L60.5,139.9L57.8,139.8L52.6,142.3L51.0,141.8L52.4,144.8L54.0,145.7L50.6,148.4L50.6,148.5L53.2,148.4L53.9,149.2L65.8,153.1L66.5,153.1L66.7,153.1L67.3,150.3L70.7,150.5L72.1,147.8L74.4,148.4L75.2,145.2L77.6,144.9L83.6,146.7L89.6,145.6L91.8,146.9L93.5,146.6L96.3,147.3L97.0,147.4L97.1,147.4L99.8,144.0L101.0,144.1L99.0,139.9L97.3,139.3L97.2,134.7L96.5,133.5L98.2,129.6L98.1,129.5L98.1,129.5L96.4,128.9L91.8,128.7L87.3,129.1L86.8,131.3L82.9,132.5L80.3,134.2L60.7,129.6L56.6,128.5L56.5,128.7Z " data-id="RU.LN" data-name="Leningrad" id="RU.LN"/>
utf-8utf-8<path d="M62.4,139.9L61.8,139.5L62.4,139.9L62.4,139.9Z M59.9,138.2L62.7,138.4L62.6,140.2L61.9,140.1L67.9,141.1L65.6,138.5L60.8,137.4L59.6,138.2L59.9,138.2Z " data-id="RU.SP" data-name="City of St. Petersburg" id="RU.SP"/>
utf-8utf-8<path d="M111.2,198.2L107.9,197.4L104.0,193.1L103.0,193.4L99.1,191.9L98.9,192.0L98.6,192.1L95.5,197.0L94.5,197.2L94.5,197.8L90.7,200.3L85.6,199.4L88.4,207.2L91.0,209.2L93.9,207.1L98.1,207.8L99.6,206.8L104.9,207.4L108.9,211.4L109.1,211.6L109.0,209.9L110.6,208.2L112.0,207.0L111.8,206.8L111.7,206.7L112.5,203.7L111.9,201.4L113.1,200.2L111.5,198.5L111.4,198.3L111.2,198.2Z " data-id="RU.BR" data-name="Bryansk" id="RU.BR"/>
utf-8utf-8<path d="M106.2,174.9L102.9,175.2L97.6,173.8L95.5,176.6L92.1,177.5L82.0,176.8L81.6,176.8L81.5,176.9L78.6,176.5L78.6,177.1L78.0,178.2L78.1,178.2L78.7,181.6L79.7,183.1L78.4,185.0L80.1,185.9L83.3,190.1L87.1,191.7L88.0,194.1L94.5,197.1L94.5,197.2L95.5,197.0L98.6,192.1L98.9,192.0L98.8,191.9L99.0,188.8L102.2,187.3L104.1,188.4L108.9,182.7L109.3,181.4L109.4,181.2L109.1,180.9L108.9,178.2L108.1,177.0L106.9,175.0L106.6,174.9L106.2,174.9Z " data-id="RU.SM" data-name="Smolensk" id="RU.SM"/>
utf-8utf-8<path d="M91.5,97.4L91.9,97.2L91.2,97.2L91.5,97.4Z M90.3,96.3L90.2,97.8L90.7,97.2L90.3,96.3Z M91.3,96.0L91.8,96.6L93.1,96.3L91.3,96.0Z M46.9,84.3L52.6,90.5L51.3,92.3L51.9,93.1L51.0,95.7L51.5,97.7L55.7,100.8L54.7,101.1L59.7,105.5L56.6,108.2L65.1,112.3L68.3,115.0L67.4,117.3L64.6,120.5L56.6,128.4L56.6,128.5L60.7,129.6L80.3,134.2L82.9,132.5L86.8,131.3L87.3,129.1L91.8,128.7L96.4,128.9L98.1,129.5L98.1,129.5L103.1,127.7L104.1,126.4L105.6,126.5L108.3,126.9L111.5,126.7L111.2,126.0L111.4,122.9L110.8,122.7L106.6,117.0L102.1,116.6L98.3,114.2L97.7,112.3L94.2,109.2L97.6,108.8L97.6,106.1L97.5,106.1L90.6,102.5L89.0,102.9L86.8,101.8L80.2,94.4L81.3,94.0L81.8,91.3L83.3,91.8L79.8,88.4L75.9,87.5L70.3,84.9L70.6,84.9L70.0,84.8L69.8,84.7L69.8,84.7L68.9,84.7L68.8,84.6L65.9,86.3L62.8,86.3L57.7,83.9L46.9,84.3L46.9,84.3Z " data-id="RU.KI" data-name="Karelia" id="RU.KI"/>
utf-8utf-8<path d="M115.0,131.0L114.3,130.8L114.4,131.0L115.0,131.0Z M118.0,100.1L121.0,101.2L120.9,100.9L118.0,100.1Z M117.6,99.8L117.3,99.7L117.3,99.8L117.6,99.8Z M120.5,100.7L118.9,99.4L118.2,99.4L120.5,100.7Z M97.6,106.1L97.6,108.8L94.2,109.2L97.7,112.3L98.3,114.2L102.1,116.6L106.6,117.0L110.8,122.7L111.4,122.9L111.2,126.0L111.5,126.7L111.8,126.9L113.6,129.8L120.1,133.6L134.8,134.0L139.1,132.4L143.6,133.1L146.2,132.4L149.0,133.0L153.6,130.5L156.6,131.6L161.8,131.9L162.0,129.4L165.2,130.8L169.7,130.6L173.2,132.3L173.9,132.4L174.0,132.3L174.3,130.7L177.0,130.6L180.4,132.1L182.9,132.4L182.8,131.9L182.9,130.7L185.1,129.9L187.4,126.1L184.4,125.3L185.0,121.4L184.6,116.2L178.7,115.8L176.6,116.7L177.1,120.0L174.0,119.9L172.3,121.0L170.5,119.4L169.9,117.7L168.2,115.6L163.8,108.0L160.8,106.8L153.7,104.6L160.6,103.2L174.4,103.0L174.9,101.8L178.1,102.0L178.8,101.0L183.6,101.4L180.6,98.5L172.1,94.1L169.9,88.4L164.6,88.3L163.0,90.8L159.1,90.9L153.7,89.2L149.8,88.8L139.3,86.1L139.3,86.1L140.6,90.3L139.3,88.8L135.5,86.8L130.3,86.2L127.6,85.2L122.5,88.9L119.3,89.5L117.8,90.9L113.9,93.1L115.4,95.3L120.8,99.5L121.4,101.4L116.7,100.3L115.4,101.4L107.5,99.1L105.1,98.8L97.1,96.4L94.8,98.3L100.4,102.6L105.7,102.9L106.9,106.3L102.7,107.3L97.8,106.1L97.6,106.1Z M129.0,84.0L127.4,83.1L127.8,83.6L129.0,84.0Z M176.8,46.9L177.1,47.3L177.9,47.5L176.8,46.9Z M173.8,46.5L171.1,47.3L176.9,49.1L176.4,47.7L173.8,46.5Z M180.9,31.9L176.3,31.6L174.8,32.4L169.5,33.1L166.6,36.4L170.4,36.8L168.7,41.4L164.6,41.3L164.2,42.4L167.2,45.6L170.9,46.0L171.8,44.8L173.9,46.3L176.6,46.1L182.9,48.9L180.8,49.6L182.6,51.0L186.6,51.7L186.7,51.1L191.9,52.8L191.3,52.2L199.2,53.1L204.6,52.4L203.9,51.0L198.3,49.5L194.1,47.6L188.6,43.6L184.7,38.6L188.0,36.0L187.1,34.6L188.2,33.9L185.1,34.0L187.8,32.7L180.9,31.9Z M190.8,12.7L188.2,12.9L188.7,13.0L190.8,12.7Z M233.9,5.4L226.2,5.9L222.7,7.5L224.7,8.5L221.2,8.6L217.1,9.7L212.9,10.0L207.6,11.0L203.7,10.2L199.2,10.3L200.3,11.7L194.9,11.8L193.7,12.8L191.8,12.7L186.8,15.2L183.7,15.8L185.6,17.1L183.6,16.8L180.1,19.0L176.7,18.0L178.1,21.2L176.4,23.7L178.7,24.7L176.1,25.1L179.0,25.5L174.4,27.3L172.4,27.6L171.9,29.7L178.1,29.1L173.9,30.6L174.9,31.9L178.8,31.1L181.6,31.9L189.5,32.5L189.4,31.7L192.6,29.9L185.6,27.8L193.8,28.4L190.3,26.4L193.9,26.5L195.2,25.2L193.4,23.2L197.5,23.5L196.2,21.6L200.8,22.3L202.7,21.3L205.5,17.6L211.7,15.8L217.1,14.9L230.1,12.3L239.5,9.0L233.9,5.4Z " data-id="RU.VO" data-name="Arkhangel'sk" id="RU.VO"/>
utf-8utf-8<path d="M161.3,161.5L159.8,160.0L155.6,162.2L154.1,159.5L150.5,160.7L147.2,159.2L146.8,161.3L143.2,162.7L140.0,163.3L139.5,163.3L138.9,163.2L135.7,164.1L134.5,165.2L133.6,167.6L133.8,167.7L134.1,167.7L135.1,167.2L137.1,168.3L138.1,170.2L145.9,170.3L151.1,169.8L156.0,170.8L156.2,170.8L156.5,170.6L156.9,167.4L160.2,166.9L162.0,165.1L160.7,164.5L161.3,161.9L161.3,161.6L161.3,161.5Z " data-id="RU.IV" data-name="Ivanovo" id="RU.IV"/>
utf-8utf-8<path d="M161.9,146.9L161.6,146.5L161.3,146.6L161.9,146.9Z M139.6,151.9L139.6,152.0L141.7,153.9L140.1,156.2L139.4,162.9L139.5,163.3L140.0,163.3L143.2,162.7L146.8,161.3L147.2,159.2L150.5,160.7L154.1,159.5L155.6,162.2L159.8,160.0L161.3,161.5L161.3,161.6L162.1,161.9L165.7,160.7L167.8,157.9L167.2,157.3L176.2,156.4L177.3,156.3L177.3,156.2L177.6,152.6L180.0,151.6L181.2,149.1L183.1,149.2L182.3,147.6L178.3,145.0L178.0,143.0L176.4,142.8L173.3,142.8L173.7,145.3L165.8,146.7L165.3,147.2L149.4,146.0L147.0,146.0L140.8,148.4L139.6,151.8L139.6,151.9Z " data-id="RU.KT" data-name="Kostroma" id="RU.KT"/>
utf-8utf-8<path d="M176.2,156.4L167.2,157.3L167.8,157.9L165.7,160.7L162.1,161.9L161.3,161.6L161.3,161.9L160.7,164.5L162.0,165.1L160.2,166.9L156.9,167.4L156.5,170.6L156.2,170.8L156.3,170.8L159.1,172.7L155.0,179.0L154.1,182.1L153.9,182.2L153.9,182.3L155.5,182.5L155.5,183.3L159.2,184.1L159.3,184.4L159.7,184.7L163.7,185.2L165.3,183.7L175.2,187.1L175.1,187.9L178.6,187.7L178.0,185.1L181.1,181.7L183.5,183.0L183.6,182.9L183.8,182.7L183.6,178.6L181.0,177.1L182.0,174.2L182.0,174.0L181.6,174.1L179.4,172.4L178.2,166.8L182.7,166.0L182.9,166.0L183.1,165.9L181.5,162.0L186.4,161.1L186.5,158.4L187.4,157.8L184.5,156.8L177.4,156.4L177.3,156.3L176.2,156.4Z " data-id="RU.NZ" data-name="Nizhegorod" id="RU.NZ"/>
utf-8utf-8<path d="M117.4,152.5L115.6,151.4L111.6,150.4L108.2,152.5L107.9,152.4L107.8,152.5L102.5,153.6L101.6,155.0L97.5,155.7L94.9,155.1L91.5,156.6L92.4,157.1L90.8,161.9L86.7,162.1L82.2,164.9L76.6,166.1L76.1,166.0L76.1,166.1L77.1,170.0L80.7,171.8L81.5,176.6L81.6,176.8L82.0,176.8L92.1,177.5L95.5,176.6L97.6,173.8L102.9,175.2L106.2,174.9L106.6,174.9L106.6,174.8L107.5,170.5L109.6,170.9L119.2,167.8L121.4,166.2L124.5,167.7L125.9,167.7L125.9,167.6L124.9,162.7L121.0,160.2L118.9,156.4L116.3,153.9L117.9,152.9L117.7,152.7L117.4,152.5Z " data-id="RU.TV" data-name="Tver'" id="RU.TV"/>
utf-8utf-8<path d="M108.3,126.9L105.6,126.5L104.1,126.4L103.1,127.7L98.1,129.5L98.2,129.6L96.5,133.5L97.2,134.7L97.3,139.3L99.0,139.9L101.0,144.1L99.8,144.0L97.1,147.4L97.0,147.4L97.1,147.7L100.2,149.9L105.9,150.4L107.8,152.3L107.9,152.4L108.2,152.5L111.6,150.4L115.6,151.4L117.4,152.5L117.7,152.7L117.7,152.7L119.9,150.6L125.7,150.3L125.4,148.8L129.8,149.1L134.5,152.1L139.3,151.9L139.6,151.9L139.6,151.8L140.8,148.4L147.0,146.0L149.4,146.0L165.3,147.2L165.8,146.7L173.7,145.3L173.3,142.8L176.4,142.8L178.0,143.0L177.9,142.3L176.5,141.6L174.8,139.0L171.6,138.6L173.7,137.4L173.9,132.4L173.9,132.4L173.2,132.3L169.7,130.6L165.2,130.8L162.0,129.4L161.8,131.9L156.6,131.6L153.6,130.5L149.0,133.0L146.2,132.4L143.6,133.1L139.1,132.4L134.8,134.0L120.1,133.6L113.6,129.8L111.8,126.9L111.5,126.7L108.3,126.9Z M115.0,131.0L114.4,131.0L114.3,130.8L115.0,131.0Z M161.9,146.9L161.3,146.6L161.6,146.5L161.9,146.9Z " data-id="RU.VO" data-name="Vologda" id="RU.VO"/>
utf-8utf-8<path d="M139.3,151.9L134.5,152.1L129.8,149.1L125.4,148.8L125.7,150.3L119.9,150.6L117.7,152.7L117.7,152.7L117.9,152.9L116.3,153.9L118.9,156.4L121.0,160.2L124.9,162.7L125.9,167.6L125.9,167.7L126.0,167.7L126.3,167.9L126.3,168.0L126.5,168.2L126.8,168.3L127.9,168.8L130.3,169.2L131.5,169.7L133.4,167.7L133.8,167.7L133.6,167.6L134.5,165.2L135.7,164.1L138.9,163.2L139.5,163.3L139.4,162.9L140.1,156.2L141.7,153.9L139.6,152.0L139.6,151.9L139.3,151.9Z " data-id="RU.YS" data-name="Yaroslavl'" id="RU.YS"/>
utf-8utf-8<path d="M120.0,181.3L114.8,181.6L110.7,180.7L109.7,181.2L109.4,181.2L109.3,181.4L108.9,182.7L104.1,188.4L102.2,187.3L99.0,188.8L98.8,191.9L98.9,192.0L99.1,191.9L103.0,193.4L104.0,193.1L107.9,197.4L111.2,198.2L111.4,198.3L112.0,198.4L113.0,198.4L114.6,196.4L116.6,195.3L117.2,195.5L117.0,195.3L116.3,194.0L116.1,190.6L119.6,189.5L121.9,189.6L123.3,184.8L123.3,184.7L122.8,184.5L122.7,184.4L122.4,183.9L122.3,183.7L122.0,183.3L121.7,182.9L121.2,182.3L121.1,182.1L120.1,181.2L120.0,181.2L120.0,181.3Z " data-id="RU.KG" data-name="Kaluga" id="RU.KG"/>
utf-8utf-8<path d="M132.5,210.1L129.8,210.4L126.0,208.9L122.1,206.7L119.1,207.5L116.3,206.1L112.6,207.0L111.8,206.8L112.0,207.0L110.6,208.2L109.0,209.9L109.1,211.6L109.2,211.6L108.1,213.8L110.1,216.7L112.3,217.5L114.3,217.1L117.1,219.2L117.2,219.4L121.7,217.6L126.5,218.3L129.8,216.8L129.6,216.2L137.3,216.2L138.0,216.4L138.1,216.2L136.2,213.4L138.6,212.4L136.7,210.5L136.7,210.3L136.5,210.4L133.8,211.0L133.8,210.7L132.7,209.9L132.6,209.8L132.5,210.1Z " data-id="RU.KS" data-name="Kursk" id="RU.KS"/>
utf-8utf-8<path d="M146.4,197.8L143.4,195.9L141.4,197.3L138.5,196.1L137.4,196.0L137.4,196.0L136.2,199.7L136.5,200.6L131.4,200.9L131.2,201.0L131.2,201.3L132.0,202.9L131.2,204.5L134.0,207.0L132.7,209.7L132.6,209.8L132.7,209.9L133.8,210.7L133.8,211.0L136.5,210.4L136.7,210.3L137.2,210.0L139.1,209.1L141.6,210.1L151.3,210.3L152.3,210.4L152.3,210.1L152.9,207.4L150.4,206.5L146.9,204.2L146.6,198.2L146.8,198.0L146.4,197.8Z " data-id="RU.LP" data-name="Lipetsk" id="RU.LP"/>
utf-8utf-8<path d="M124.5,167.7L121.4,166.2L119.2,167.8L109.6,170.9L107.5,170.5L106.6,174.8L106.6,174.9L106.9,175.0L108.1,177.0L108.9,178.2L109.1,180.9L109.4,181.2L109.7,181.2L110.7,180.7L114.8,181.6L120.0,181.3L120.0,181.2L120.6,180.6L124.3,175.6L124.3,180.1L123.5,179.9L122.6,183.1L122.0,183.3L122.3,183.7L122.4,183.9L122.7,184.4L122.8,184.5L123.3,184.7L124.2,184.8L126.9,185.7L127.4,184.7L130.3,186.3L132.1,186.5L134.1,189.9L134.4,190.0L134.6,189.9L136.1,186.6L136.8,186.6L142.2,181.0L142.6,180.5L142.5,180.4L140.9,177.7L135.7,176.6L129.8,174.1L126.8,168.4L126.8,168.3L126.5,168.2L126.3,168.0L126.3,167.9L126.0,167.7L125.9,167.7L124.5,167.7Z M121.1,174.5L120.2,174.5L120.3,173.9L121.1,174.5Z " data-id="RU.MS" data-name="Moskovsskaya" id="RU.MS"/>
utf-8utf-8<path d="M120.0,181.2L120.1,181.2L121.1,182.1L121.2,182.3L121.7,182.9L122.0,183.3L122.6,183.1L123.5,179.9L124.3,180.1L124.3,175.6L120.6,180.6L120.0,181.2Z M121.1,174.5L120.3,173.9L120.2,174.5L121.1,174.5Z " data-id="RU.MS" data-name="Moskva" id="RU.MS"/>
utf-8utf-8<path d="M116.6,195.3L114.6,196.4L113.0,198.4L112.0,198.4L111.4,198.3L111.5,198.5L113.1,200.2L111.9,201.4L112.5,203.7L111.7,206.7L111.8,206.8L112.6,207.0L116.3,206.1L119.1,207.5L122.1,206.7L126.0,208.9L129.8,210.4L132.5,210.1L132.6,209.8L132.7,209.7L134.0,207.0L131.2,204.5L132.0,202.9L131.2,201.3L131.2,201.0L131.1,200.7L123.1,198.3L121.0,197.5L117.2,195.6L117.2,195.5L116.6,195.3Z " data-id="RU.OL" data-name="Orel" id="RU.OL"/>
utf-8utf-8<path d="M184.7,251.2L178.6,250.2L171.0,242.8L175.0,241.0L171.4,235.8L169.4,235.7L169.1,231.1L164.5,228.4L163.3,227.3L162.1,226.0L161.7,226.4L160.6,229.9L159.9,230.8L154.5,231.8L154.6,231.9L155.3,234.9L153.5,236.8L152.9,241.0L154.2,241.0L155.3,245.6L154.9,248.1L150.5,247.9L148.1,248.4L148.1,249.3L145.4,249.9L145.1,253.5L152.7,253.1L153.1,255.4L149.2,256.8L149.1,256.8L150.9,259.3L155.0,257.3L159.5,257.8L159.6,259.5L160.9,259.8L165.5,262.5L166.7,262.5L169.0,264.9L169.0,265.1L170.6,265.1L170.8,264.7L172.8,264.8L173.0,264.7L173.0,264.6L175.6,261.1L175.3,259.4L181.0,260.7L184.8,263.1L187.8,261.2L187.5,259.5L190.0,254.5L189.3,251.2L185.2,251.4L184.9,251.1L184.7,251.2Z " data-id="RU.RO" data-name="Rostov" id="RU.RO"/>
utf-8utf-8<path d="M134.1,189.9L132.1,186.5L130.3,186.3L127.4,184.7L126.9,185.7L124.2,184.8L123.3,184.7L123.3,184.8L121.9,189.6L119.6,189.5L116.1,190.6L116.3,194.0L117.0,195.3L117.2,195.5L117.2,195.6L121.0,197.5L123.1,198.3L131.1,200.7L131.2,201.0L131.4,200.9L136.5,200.6L136.2,199.7L137.4,196.0L137.4,196.0L137.4,195.9L136.0,193.2L134.9,191.5L134.5,190.4L134.4,190.0L134.1,189.9Z " data-id="RU.TL" data-name="Tula" id="RU.TL"/>
utf-8utf-8<path d="M170.5,216.9L163.0,218.8L160.7,221.5L162.4,222.6L162.7,224.8L162.1,226.0L163.3,227.3L164.5,228.4L169.1,231.1L169.4,235.7L171.4,235.8L175.0,241.0L171.0,242.8L178.6,250.2L184.7,251.2L184.9,251.1L184.2,250.5L184.3,249.2L186.6,247.2L188.9,247.5L188.0,244.0L191.3,245.8L192.4,244.4L193.8,245.3L195.1,245.4L194.9,245.1L192.5,242.7L194.6,241.9L198.9,238.4L200.7,238.7L203.4,240.2L203.8,238.0L203.0,234.2L202.8,229.3L205.2,227.1L205.2,225.0L205.3,224.6L200.2,222.7L195.3,223.3L194.5,221.8L191.1,222.9L188.8,221.4L187.2,218.4L180.9,217.4L176.7,218.0L171.5,217.3L170.7,216.9L170.5,216.9Z " data-id="RU.VG" data-name="Volgograd" id="RU.VG"/>
utf-8utf-8<path d="M137.3,216.2L129.6,216.2L129.8,216.8L126.5,218.3L121.7,217.6L117.2,219.4L117.2,219.4L119.0,223.5L127.3,225.6L133.6,224.2L136.3,227.4L139.4,228.8L139.7,227.5L147.0,229.2L147.2,229.3L147.3,227.6L144.7,224.1L144.9,222.3L142.1,221.0L142.3,218.6L139.3,218.4L138.0,216.4L138.0,216.4L137.3,216.2Z " data-id="RU.BL" data-name="Belgorod" id="RU.BL"/>
utf-8utf-8<path d="M169.0,264.9L166.7,262.5L165.5,262.5L160.9,259.8L159.6,259.5L159.5,257.8L155.0,257.3L150.9,259.3L149.1,256.8L148.6,256.8L147.9,258.7L143.5,260.3L149.7,264.4L147.4,263.4L143.3,268.3L143.7,270.0L140.5,270.8L138.4,269.9L136.5,272.0L141.3,273.9L149.6,279.2L154.3,280.5L164.7,288.3L166.4,286.7L169.8,287.1L169.9,287.2L171.1,283.0L170.3,281.6L173.9,283.0L175.9,281.7L175.9,278.7L176.0,278.7L175.9,278.4L173.4,276.3L174.4,273.9L173.1,273.9L171.5,271.7L169.5,271.8L167.4,268.4L170.2,266.9L169.0,265.2L169.0,265.1L169.0,264.9Z M160.0,272.6L164.0,273.0L167.2,275.9L168.0,277.9L165.3,277.5L166.3,280.8L166.3,285.1L161.6,281.8L163.7,282.1L161.9,278.9L162.1,276.6L160.7,274.0L158.5,273.5L158.6,275.6L155.7,275.5L152.3,273.4L156.4,273.9L160.0,272.6Z " data-id="RU.KD" data-name="Krasnodar" id="RU.KD"/>
utf-8utf-8<path d="M183.5,183.0L181.1,181.7L178.0,185.1L178.6,187.7L175.1,187.9L175.2,187.1L165.3,183.7L163.7,185.2L159.7,184.7L159.3,184.4L159.2,184.5L161.6,188.7L158.8,189.8L161.8,190.6L160.5,191.7L160.8,193.3L160.6,193.5L160.9,193.6L163.7,194.3L170.4,192.5L171.7,193.8L177.9,194.8L176.6,193.3L179.0,192.4L184.2,192.8L184.4,192.2L184.5,192.1L184.6,192.0L188.9,189.5L188.8,187.7L187.1,185.4L187.0,185.3L186.8,185.1L184.5,182.7L184.6,183.4L183.9,183.1L183.6,182.9L183.5,183.0Z M159.8,185.4L159.3,184.9L159.5,185.0L159.8,185.4Z " data-id="RU.MR" data-name="Mordovia" id="RU.MR"/>
utf-8utf-8<path d="M184.4,192.2L184.2,192.8L179.0,192.4L176.6,193.3L177.9,194.8L171.7,193.8L170.4,192.5L163.7,194.3L160.9,193.6L160.6,193.5L160.0,193.7L159.5,193.8L159.6,193.9L160.4,196.5L168.6,202.6L170.0,204.1L168.8,205.7L169.5,206.4L169.8,206.3L178.6,207.2L181.7,205.9L183.5,207.1L187.6,205.4L189.9,206.3L191.5,203.9L195.3,204.5L195.4,204.5L195.3,204.4L194.1,198.1L190.4,196.1L184.9,192.4L184.5,192.1L184.4,192.2Z " data-id="RU.PZ" data-name="Penza" id="RU.PZ"/>
utf-8utf-8<path d="M159.8,185.4L159.5,185.0L159.3,184.9L159.8,185.4Z M142.6,180.5L142.2,181.0L136.8,186.6L136.1,186.6L134.6,189.9L134.4,190.0L134.5,190.4L134.9,191.5L136.0,193.2L137.4,195.9L137.4,196.0L138.5,196.1L141.4,197.3L143.4,195.9L146.4,197.8L146.8,198.0L147.0,198.1L150.0,196.0L154.6,196.0L154.2,194.4L159.4,193.9L159.5,193.8L160.0,193.7L160.6,193.5L160.8,193.3L160.5,191.7L161.8,190.6L158.8,189.8L161.6,188.7L159.2,184.5L159.3,184.4L159.2,184.1L155.5,183.3L155.5,182.5L153.9,182.3L153.9,182.2L153.5,182.2L149.0,181.6L148.1,181.0L142.7,180.3L142.6,180.5Z " data-id="RU.RZ" data-name="Ryazan'" id="RU.RZ"/>
utf-8utf-8<path d="M159.4,193.9L154.2,194.4L154.6,196.0L150.0,196.0L147.0,198.1L146.8,198.0L146.6,198.2L146.9,204.2L150.4,206.5L152.9,207.4L152.3,210.1L152.3,210.4L153.9,210.5L155.5,212.3L159.5,211.9L166.8,213.3L167.1,213.5L167.2,213.4L167.8,211.6L168.4,206.7L169.2,206.5L169.5,206.4L168.8,205.7L170.0,204.1L168.6,202.6L160.4,196.5L159.6,193.9L159.5,193.8L159.4,193.9Z " data-id="RU.TB" data-name="Tambov" id="RU.TB"/>
utf-8utf-8<path d="M156.0,170.8L151.1,169.8L145.9,170.3L138.1,170.2L137.1,168.3L135.1,167.2L134.1,167.7L133.8,167.7L133.4,167.7L131.5,169.7L130.3,169.2L127.9,168.8L126.8,168.3L126.8,168.4L129.8,174.1L135.7,176.6L140.9,177.7L142.5,180.4L142.6,180.5L142.7,180.3L148.1,181.0L149.0,181.6L153.5,182.2L153.9,182.2L154.1,182.1L155.0,179.0L159.1,172.7L156.3,170.8L156.2,170.8L156.0,170.8Z " data-id="RU.VL" data-name="Vladimir" id="RU.VL"/>
utf-8utf-8<path d="M151.3,210.3L141.6,210.1L139.1,209.1L137.2,210.0L136.7,210.3L136.7,210.5L138.6,212.4L136.2,213.4L138.1,216.2L138.0,216.4L138.0,216.4L139.3,218.4L142.3,218.6L142.1,221.0L144.9,222.3L144.7,224.1L147.3,227.6L147.2,229.3L147.2,229.4L148.2,230.5L150.2,230.6L154.4,231.8L154.5,231.8L159.9,230.8L160.6,229.9L161.7,226.4L162.1,226.0L162.7,224.8L162.4,222.6L160.7,221.5L163.0,218.8L170.5,216.9L170.7,216.9L170.9,216.8L170.3,215.6L169.7,215.1L167.5,213.8L167.1,213.5L166.8,213.3L159.5,211.9L155.5,212.3L153.9,210.5L152.3,210.4L151.3,210.3Z " data-id="RU.VR" data-name="Voronezh" id="RU.VR"/>
utf-8utf-8<path d="M257.3,171.7L256.6,173.1L248.3,171.6L246.9,170.6L241.1,171.6L237.6,169.7L237.0,171.3L236.8,171.3L236.7,171.3L237.0,172.2L235.6,173.9L233.3,175.0L233.3,175.3L233.4,175.3L238.1,177.2L236.8,179.5L232.3,182.0L236.2,184.1L236.6,185.5L236.0,188.7L237.7,191.5L237.9,191.7L238.2,191.9L240.4,194.5L249.3,198.8L249.8,198.6L257.2,206.2L259.8,206.1L263.1,204.7L264.4,208.6L271.7,213.8L275.7,211.4L280.7,212.0L280.5,206.2L280.5,206.1L280.3,206.1L278.7,201.0L280.0,200.9L277.8,198.1L276.5,194.4L278.0,190.7L281.0,189.5L279.6,187.8L279.0,184.5L277.9,184.1L272.5,187.9L270.3,187.3L267.3,188.2L261.3,185.0L260.3,181.0L261.5,180.4L264.7,180.7L266.9,182.4L267.9,181.7L271.0,182.2L273.2,180.1L274.2,177.7L273.1,178.2L269.6,173.1L269.3,173.0L269.3,173.1L266.3,173.1L260.2,173.3L257.8,171.6L257.7,171.6L257.3,171.7Z " data-id="RU.BK" data-name="Bashkortostan" id="RU.BK"/>
utf-8utf-8<path d="M289.8,173.2L284.7,171.2L283.2,172.7L273.5,171.8L269.2,172.9L269.3,173.0L269.6,173.1L273.1,178.2L274.2,177.7L273.2,180.1L271.0,182.2L267.9,181.7L266.9,182.4L264.7,180.7L261.5,180.4L260.3,181.0L261.3,185.0L267.3,188.2L270.3,187.3L272.5,187.9L277.9,184.1L279.0,184.5L279.6,187.8L281.0,189.5L278.0,190.7L276.5,194.4L277.8,198.1L280.0,200.9L278.7,201.0L280.3,206.1L280.5,206.1L280.5,206.0L283.3,207.4L285.6,205.9L289.9,206.3L290.4,210.1L291.6,210.1L294.5,208.7L296.4,207.0L292.7,203.4L294.4,201.3L301.6,201.3L297.6,198.9L294.0,198.4L293.8,196.6L291.8,195.4L292.5,193.7L291.3,192.5L293.2,191.6L296.9,192.7L297.4,192.0L301.3,191.7L305.3,190.5L306.1,190.7L303.9,188.7L303.7,186.4L301.3,186.0L295.3,185.8L293.7,183.0L295.3,183.1L294.8,181.4L293.2,180.9L296.0,178.7L290.4,173.3L290.3,173.3L289.8,173.2Z " data-id="RU.CL" data-name="Chelyabinsk" id="RU.CL"/>
utf-8utf-8<path d="M307.6,167.7L305.3,167.3L303.7,168.4L303.5,169.8L292.4,169.5L291.1,170.3L290.3,173.1L290.3,173.3L290.4,173.3L296.0,178.7L293.2,180.9L294.8,181.4L295.3,183.1L293.7,183.0L295.3,185.8L301.3,186.0L303.7,186.4L303.9,188.7L306.1,190.7L306.2,190.7L310.0,190.3L311.0,189.2L314.0,188.7L318.6,189.1L319.4,187.2L322.9,186.7L334.7,183.5L335.7,183.8L336.4,181.6L337.9,181.7L339.0,180.2L339.0,180.2L334.0,177.3L328.7,176.8L326.9,175.2L322.7,174.1L321.1,174.9L316.5,173.9L314.7,172.5L309.0,170.2L307.9,167.8L307.9,167.7L307.6,167.7Z " data-id="RU.KU" data-name="Kurgan" id="RU.KU"/>
utf-8utf-8<path d="M194.8,70.7L194.5,71.3L195.1,71.2L194.8,70.7Z M192.8,70.9L192.6,70.4L192.2,70.3L192.8,70.9Z M175.3,69.6L177.0,69.4L173.4,70.0L175.3,69.6Z M162.2,67.9L160.2,67.7L159.9,67.7L162.2,67.9Z M164.3,66.9L164.6,66.7L164.0,66.9L164.3,66.9Z M193.6,67.0L192.7,66.7L192.5,66.9L193.6,67.0Z M165.3,66.2L165.7,66.1L165.7,66.0L165.3,66.2Z M196.9,65.9L196.5,65.7L196.2,65.7L196.9,65.9Z M199.6,65.8L198.7,65.7L198.1,66.0L199.6,65.8Z M166.9,65.7L166.8,65.7L166.6,65.8L166.9,65.7Z M167.3,63.8L160.2,61.3L157.5,61.4L156.0,66.1L159.5,67.2L165.0,66.1L167.3,63.8Z M139.3,86.1L149.8,88.8L153.7,89.2L159.1,90.9L163.0,90.8L164.6,88.3L169.9,88.4L183.2,83.0L185.5,81.0L196.4,81.3L243.5,81.3L250.4,78.1L249.9,76.6L252.6,75.1L254.7,74.6L254.0,73.2L256.8,71.6L256.6,70.5L261.6,69.8L262.0,69.8L262.2,69.7L262.6,68.8L259.4,66.8L254.5,66.3L255.6,63.1L255.5,63.1L251.8,61.7L244.0,60.0L233.9,59.3L229.1,58.6L227.2,58.8L224.8,60.3L231.4,64.3L232.1,66.0L230.9,67.3L226.7,67.7L228.0,68.9L223.6,70.0L223.0,68.9L223.9,67.1L216.6,66.2L213.1,67.3L199.6,69.0L198.7,71.7L194.3,71.3L194.3,70.7L189.9,71.1L190.4,67.3L191.1,66.5L188.4,66.0L184.8,66.9L184.7,69.7L183.2,70.5L177.6,69.4L172.6,70.8L165.0,74.3L164.5,75.7L160.8,75.7L158.0,76.4L159.0,78.0L158.7,82.4L149.3,82.6L146.3,80.8L141.1,78.7L142.5,76.5L150.3,74.5L148.3,72.2L143.7,69.7L131.5,68.8L127.1,68.2L133.2,70.5L134.6,75.4L135.1,75.7L134.0,79.0L139.7,81.9L139.3,86.0L139.3,86.1Z M217.0,54.7L211.8,55.4L216.2,57.9L220.9,59.6L226.3,59.6L222.6,56.9L218.8,55.8L217.0,54.7Z " data-id="RU.NN" data-name="Nenets" id="RU.NN"/>
utf-8utf-8<path d="M292.8,82.9L296.9,85.1L298.2,84.2L292.8,82.9Z M268.0,61.8L266.9,60.9L266.5,61.3L268.0,61.8Z M256.9,51.0L257.2,50.3L257.0,49.8L256.9,51.0Z M315.0,39.7L317.6,38.2L312.0,37.2L309.7,39.1L310.2,39.7L315.0,39.7Z M255.6,63.1L254.5,66.3L259.4,66.8L262.6,68.8L262.2,69.7L262.0,69.8L262.0,69.8L263.4,73.5L265.8,73.8L269.2,76.6L266.6,82.1L260.6,84.1L257.5,86.7L258.2,87.4L256.7,89.6L252.9,91.7L252.4,91.7L254.5,92.5L257.1,94.8L259.0,95.1L261.4,99.8L260.6,100.8L268.5,103.6L273.7,102.8L273.9,102.3L282.3,100.9L285.3,101.6L289.5,104.2L295.1,105.2L299.0,103.4L302.2,103.1L303.7,102.2L314.2,104.3L314.5,106.5L317.6,108.5L321.9,109.3L324.2,112.7L327.1,111.8L330.5,111.9L332.6,110.6L335.9,112.6L346.2,113.9L348.6,113.3L354.7,114.1L355.3,114.6L360.2,114.6L361.4,115.8L367.6,117.9L373.1,117.5L379.8,117.6L382.2,113.6L390.4,116.1L398.0,116.4L400.9,118.2L403.5,118.5L405.7,117.9L411.7,121.0L411.9,121.1L411.8,121.0L413.8,115.3L413.3,111.2L408.9,109.2L410.7,104.6L406.2,99.4L401.9,99.5L400.3,98.7L395.9,98.3L395.0,96.8L395.6,95.2L393.4,93.2L389.2,91.0L386.7,91.2L383.2,88.8L384.0,87.8L379.6,85.4L379.9,84.1L369.4,79.3L370.4,78.6L369.2,76.8L367.6,76.5L363.4,74.0L367.0,73.7L364.2,68.7L366.8,67.8L363.5,66.8L360.5,63.9L357.2,63.8L355.1,61.9L354.1,63.2L344.0,62.3L340.1,60.1L335.5,58.5L342.1,53.5L337.4,48.9L334.5,48.6L328.8,47.0L328.6,44.9L331.3,45.0L332.4,42.8L331.4,42.4L322.8,41.1L318.8,39.1L318.6,39.0L315.9,39.5L314.0,41.3L317.1,41.1L317.5,43.3L311.3,41.6L307.5,42.5L310.5,45.2L320.7,47.4L323.5,47.6L324.5,48.6L330.3,50.1L323.3,49.7L322.4,48.8L317.1,48.9L316.2,48.2L309.0,47.6L305.7,46.8L305.4,44.5L302.5,42.3L303.3,41.5L301.4,38.4L294.8,35.7L297.2,37.0L299.9,40.1L299.8,41.2L293.1,43.3L293.5,45.2L292.3,46.2L300.6,50.8L303.3,51.8L304.0,55.0L303.0,56.0L304.0,59.4L307.4,61.5L310.4,64.5L311.5,64.1L326.5,64.2L328.3,65.2L332.8,65.9L337.9,70.1L337.0,73.3L338.0,74.9L342.7,76.0L348.2,76.3L345.6,76.8L340.6,76.7L336.0,75.1L333.3,69.0L328.0,67.1L325.1,65.3L315.1,67.5L316.3,70.4L319.2,71.8L321.1,73.7L321.9,75.6L318.7,78.9L319.6,81.7L318.6,82.7L313.4,84.4L313.6,87.0L301.6,86.7L292.5,84.4L293.3,82.6L296.3,82.6L302.8,85.2L304.5,85.0L307.3,83.4L305.5,82.1L308.2,80.6L309.4,78.6L308.7,77.4L312.0,75.4L310.0,72.7L310.1,68.6L301.1,63.0L296.5,56.8L293.7,50.4L291.9,48.8L287.7,47.4L284.9,45.9L286.9,44.2L286.4,41.5L284.3,36.6L278.4,35.9L276.7,35.3L264.8,35.3L263.5,34.6L262.4,36.9L263.7,41.7L261.6,45.7L257.6,49.6L257.4,50.6L261.5,51.0L264.1,56.1L263.7,59.3L265.9,61.0L268.4,60.3L272.7,60.9L274.3,63.5L279.8,65.9L281.9,66.2L281.5,70.7L279.9,71.6L279.1,70.4L269.1,66.2L267.2,66.1L255.8,63.2L255.6,63.1Z M293.7,33.7L289.8,33.7L291.8,34.9L293.7,33.7Z M300.6,32.8L301.8,33.3L303.4,32.9L300.6,32.8Z M272.4,31.9L271.4,31.3L271.9,32.3L272.4,31.9Z M269.1,30.5L266.5,30.7L264.3,31.6L266.0,34.2L274.8,32.7L269.1,30.5Z M297.2,30.6L294.6,30.7L295.3,30.7L297.2,30.6Z " data-id="RU.YN" data-name="Yamal-Nenets" id="RU.YN"/>
utf-8utf-8<path d="M261.6,69.8L256.6,70.5L256.8,71.6L254.0,73.2L254.7,74.6L252.6,75.1L249.9,76.6L250.4,78.1L243.5,81.3L196.4,81.3L185.5,81.0L183.2,83.0L169.9,88.4L172.1,94.1L180.6,98.5L183.6,101.4L178.8,101.0L178.1,102.0L174.9,101.8L174.4,103.0L160.6,103.2L153.7,104.6L160.8,106.8L163.8,108.0L168.2,115.6L169.9,117.7L170.5,119.4L172.3,121.0L174.0,119.9L177.1,120.0L176.6,116.7L178.7,115.8L184.6,116.2L185.0,121.4L184.4,125.3L187.4,126.1L185.1,129.9L182.9,130.7L182.8,131.9L182.9,132.4L183.0,132.5L184.5,134.9L186.5,136.5L185.2,138.0L187.3,142.3L190.8,142.6L195.6,146.4L197.0,146.3L196.6,141.6L198.1,141.8L201.6,140.9L202.6,139.6L205.9,140.2L208.7,137.0L210.3,137.6L210.2,136.7L208.4,135.2L205.7,134.5L205.7,132.1L208.7,132.4L208.8,131.3L211.2,131.6L211.3,130.3L214.9,131.8L225.9,132.3L227.2,130.1L229.7,130.4L230.1,129.0L233.2,129.3L234.8,126.7L247.8,126.9L251.1,125.4L251.4,125.3L251.4,124.8L251.3,124.6L250.9,124.3L251.1,122.9L251.1,122.7L250.7,122.3L250.1,118.2L249.1,117.9L246.9,114.7L246.0,114.5L244.7,111.5L244.9,108.8L243.0,103.0L241.7,101.2L241.7,98.8L244.3,97.0L247.3,98.4L251.7,91.8L252.4,91.7L252.9,91.7L256.7,89.6L258.2,87.4L257.5,86.7L260.6,84.1L266.6,82.1L269.2,76.6L265.8,73.8L263.4,73.5L262.0,69.8L262.0,69.8L261.6,69.8Z " data-id="RU.KO" data-name="Komi" id="RU.KO"/>
utf-8utf-8<path d="M180.4,132.1L177.0,130.6L174.3,130.7L174.0,132.3L173.9,132.4L173.9,132.4L173.7,137.4L171.6,138.6L174.8,139.0L176.5,141.6L177.9,142.3L178.0,143.0L178.3,145.0L182.3,147.6L183.1,149.2L181.2,149.1L180.0,151.6L177.6,152.6L177.3,156.2L177.3,156.3L177.4,156.4L184.5,156.8L187.4,157.8L186.5,158.4L186.4,161.1L181.5,162.0L183.1,165.9L182.9,166.0L183.1,166.1L186.3,167.3L192.5,164.6L203.5,166.3L206.7,168.8L206.7,169.0L207.3,169.0L208.5,168.6L211.3,171.4L212.2,170.9L215.1,173.3L217.1,173.3L217.5,173.2L217.3,172.8L214.4,170.2L214.3,168.6L215.9,166.9L214.3,166.1L211.8,161.8L215.3,160.9L214.9,157.4L213.3,155.8L213.2,153.7L220.1,153.4L220.0,152.3L225.2,153.2L226.1,153.1L225.9,152.8L223.6,147.1L219.3,144.9L219.7,142.4L220.7,141.8L220.4,139.6L217.9,138.0L211.5,138.0L210.3,137.6L208.7,137.0L205.9,140.2L202.6,139.6L201.6,140.9L198.1,141.8L196.6,141.6L197.0,146.3L195.6,146.4L190.8,142.6L187.3,142.3L185.2,138.0L186.5,136.5L184.5,134.9L183.0,132.5L182.9,132.4L180.4,132.1Z " data-id="RU.KV" data-name="Kirov" id="RU.KV"/>
utf-8utf-8<path d="M206.7,168.8L203.5,166.3L192.5,164.6L186.3,167.3L183.1,166.1L182.9,166.0L182.7,166.0L178.2,166.8L179.4,172.4L181.6,174.1L182.0,174.0L182.1,173.9L188.5,171.5L190.0,172.8L192.8,173.2L197.3,176.0L197.7,176.0L197.7,175.9L200.7,171.0L202.7,170.4L205.8,170.6L206.8,169.1L206.7,169.0L206.7,168.8Z " data-id="RU.ME" data-name="Mariy-El" id="RU.ME"/>
utf-8utf-8<path d="M306.5,151.5L304.9,151.2L298.3,145.7L289.5,144.3L278.7,134.3L277.0,131.1L274.6,129.3L263.2,125.3L258.2,124.8L251.3,122.8L251.1,122.7L251.1,122.9L250.9,124.3L251.3,124.6L251.4,124.8L251.4,125.3L251.4,125.4L252.8,127.5L252.5,129.0L255.0,131.6L255.6,135.3L255.2,139.9L252.9,142.2L255.8,145.8L259.6,146.8L260.7,150.4L263.1,151.1L264.0,152.8L260.0,156.9L262.1,158.3L261.2,160.6L258.2,159.7L257.8,161.5L259.6,165.2L257.0,166.5L257.4,171.3L257.7,171.6L257.8,171.6L260.2,173.3L266.3,173.1L269.3,173.1L269.3,173.0L269.2,172.9L273.5,171.8L283.2,172.7L284.7,171.2L289.8,173.2L290.3,173.3L290.3,173.1L291.1,170.3L292.4,169.5L303.5,169.8L303.7,168.4L305.3,167.3L307.6,167.7L307.9,167.7L308.8,167.7L304.2,161.8L303.9,159.8L311.0,156.6L308.6,154.4L307.2,152.0L306.9,151.6L306.5,151.5Z " data-id="RU.SV" data-name="Sverdlovsk" id="RU.SV"/>
utf-8utf-8<path d="M225.2,153.2L220.0,152.3L220.1,153.4L213.2,153.7L213.3,155.8L214.9,157.4L215.3,160.9L211.8,161.8L214.3,166.1L215.9,166.9L214.3,168.6L214.4,170.2L217.3,172.8L217.5,173.2L218.0,173.2L218.2,175.1L223.3,175.2L223.2,173.8L226.2,174.3L227.3,173.4L225.7,172.5L227.1,171.1L228.3,172.7L231.3,174.2L230.2,175.1L233.2,175.3L233.3,175.3L233.3,175.0L235.6,173.9L237.0,172.2L236.7,171.3L236.8,171.3L236.3,170.6L231.7,167.4L233.5,165.7L233.6,163.3L231.0,160.4L229.8,157.2L227.0,155.0L226.2,153.4L226.1,153.1L225.2,153.2Z " data-id="RU.UD" data-name="Udmurt" id="RU.UD"/>
utf-8utf-8<path d="M220.5,269.7L219.8,267.9L219.5,268.1L220.5,269.7Z M195.1,245.4L195.6,245.5L198.5,246.3L199.8,248.9L203.7,251.5L212.0,257.9L207.8,261.6L210.7,264.0L212.4,263.6L212.0,268.0L215.0,267.8L216.6,268.6L216.6,268.6L218.9,267.2L223.8,265.0L224.8,266.2L224.3,263.5L226.1,263.7L228.3,262.1L223.5,258.4L225.0,257.6L216.8,249.0L211.0,248.6L208.1,246.6L207.9,244.0L202.9,242.6L203.4,240.2L200.7,238.7L198.9,238.4L194.6,241.9L192.5,242.7L194.9,245.1L195.1,245.4Z " data-id="RU.AS" data-name="Astrakhan'" id="RU.AS"/>
utf-8utf-8<path d="M197.3,176.0L192.8,173.2L190.0,172.8L188.5,171.5L182.1,173.9L182.0,174.0L182.0,174.2L181.0,177.1L183.6,178.6L183.8,182.7L183.6,182.9L183.9,183.1L184.6,183.4L184.5,182.7L186.8,185.1L187.0,185.3L187.8,185.5L190.4,186.5L192.6,186.3L192.8,186.1L193.3,185.8L195.9,184.3L197.0,181.5L194.2,180.4L197.7,176.2L197.7,176.0L197.3,176.0Z " data-id="RU.CV" data-name="Chuvash" id="RU.CV"/>
utf-8utf-8<path d="M193.8,245.3L192.4,244.4L191.3,245.8L188.0,244.0L188.9,247.5L186.6,247.2L184.3,249.2L184.2,250.5L184.9,251.1L185.2,251.4L189.3,251.2L190.0,254.5L187.5,259.5L187.8,261.2L184.8,263.1L181.0,260.7L175.3,259.4L175.6,261.1L173.0,264.6L173.0,264.7L175.4,265.0L181.0,263.0L188.5,265.0L191.5,267.7L193.9,269.0L197.0,269.6L203.3,272.3L204.5,274.0L204.5,274.0L205.6,273.8L210.0,274.4L212.9,275.8L213.8,276.0L213.8,276.0L215.2,275.0L216.6,268.7L216.6,268.6L215.0,267.8L212.0,268.0L212.4,263.6L210.7,264.0L207.8,261.6L212.0,257.9L203.7,251.5L199.8,248.9L198.5,246.3L195.6,245.5L195.1,245.4L193.8,245.3Z " data-id="RU.KL" data-name="Kalmyk" id="RU.KL"/>
utf-8utf-8<path d="M237.6,192.0L234.7,191.0L233.7,190.2L230.9,189.0L230.4,188.8L230.4,189.0L228.8,189.2L229.2,190.8L231.0,191.6L230.3,196.1L231.0,197.8L229.6,202.8L228.5,203.9L228.7,206.2L226.2,211.3L225.5,212.2L225.9,212.2L228.6,213.0L231.5,214.6L233.5,212.9L235.5,212.5L239.1,214.8L244.2,214.5L246.8,215.7L247.6,217.0L254.5,220.4L254.3,222.4L256.4,222.9L255.0,218.8L258.4,220.1L262.2,222.2L264.3,222.7L266.3,221.3L266.3,219.8L268.0,218.3L270.0,219.3L272.9,218.2L275.7,220.3L277.1,217.9L280.1,218.5L280.8,217.6L284.3,220.8L291.6,223.8L296.5,221.9L299.6,222.1L303.8,221.0L303.3,216.1L302.7,215.4L298.1,213.6L293.9,213.0L294.3,211.9L290.2,210.1L290.4,210.1L289.9,206.3L285.6,205.9L283.3,207.4L280.5,206.0L280.5,206.1L280.5,206.2L280.7,212.0L275.7,211.4L271.7,213.8L264.4,208.6L263.1,204.7L259.8,206.1L257.2,206.2L249.8,198.6L249.3,198.8L240.4,194.5L238.2,191.9L237.9,191.7L237.6,192.0Z M231.7,197.9L231.5,198.0L231.3,197.9L231.7,197.9Z " data-id="RU.OB" data-name="Orenburg" id="RU.OB"/>
utf-8utf-8<path d="M231.7,197.9L231.3,197.9L231.5,198.0L231.7,197.9Z M212.9,187.5L213.1,187.8L214.5,189.1L215.2,191.5L211.6,193.7L207.5,193.4L203.1,195.1L203.7,195.8L201.2,197.7L203.6,199.7L204.2,201.0L206.9,202.6L206.3,203.0L206.2,203.1L210.1,205.7L215.0,206.6L220.6,208.8L225.2,211.9L225.5,212.2L226.2,211.3L228.7,206.2L228.5,203.9L229.6,202.8L231.0,197.8L230.3,196.1L231.0,191.6L229.2,190.8L228.8,189.2L230.4,189.0L230.4,188.8L230.1,188.6L226.0,188.3L225.7,187.4L222.9,186.6L219.3,187.3L219.4,188.8L213.2,187.6L212.9,187.5Z " data-id="RU.SA" data-name="Samara" id="RU.SA"/>
utf-8utf-8<path d="M205.8,202.8L199.8,204.9L195.9,204.3L195.4,204.5L195.3,204.5L191.5,203.9L189.9,206.3L187.6,205.4L183.5,207.1L181.7,205.9L178.6,207.2L169.8,206.3L169.5,206.4L169.2,206.5L168.4,206.7L167.8,211.6L167.2,213.4L167.1,213.5L167.5,213.8L169.7,215.1L170.3,215.6L170.9,216.8L170.7,216.9L171.5,217.3L176.7,218.0L180.9,217.4L187.2,218.4L188.8,221.4L191.1,222.9L194.5,221.8L195.3,223.3L200.2,222.7L205.3,224.6L205.3,224.6L210.7,227.4L213.7,229.8L216.0,228.7L213.6,222.8L218.2,220.1L217.7,218.0L220.5,217.6L225.4,212.3L225.5,212.2L225.2,211.9L220.6,208.8L215.0,206.6L210.1,205.7L206.2,203.1L206.3,203.0L205.8,202.8Z " data-id="RU.SR" data-name="Saratov" id="RU.SR"/>
utf-8utf-8<path d="M217.1,173.3L215.1,173.3L212.2,170.9L211.3,171.4L208.5,168.6L207.3,169.0L206.7,169.0L206.8,169.1L205.8,170.6L202.7,170.4L200.7,171.0L197.7,175.9L197.7,176.0L197.7,176.2L194.2,180.4L197.0,181.5L195.9,184.3L193.3,185.8L192.8,186.1L193.1,186.3L198.4,185.3L199.9,186.0L206.4,184.3L212.8,187.5L212.9,187.5L213.2,187.6L219.4,188.8L219.3,187.3L222.9,186.6L225.7,187.4L226.0,188.3L230.1,188.6L230.4,188.8L230.9,189.0L233.7,190.2L234.7,191.0L237.6,192.0L237.9,191.7L237.7,191.5L236.0,188.7L236.6,185.5L236.2,184.1L232.3,182.0L236.8,179.5L238.1,177.2L233.4,175.3L233.3,175.3L233.2,175.3L230.2,175.1L231.3,174.2L228.3,172.7L227.1,171.1L225.7,172.5L227.3,173.4L226.2,174.3L223.2,173.8L223.3,175.2L218.2,175.1L218.0,173.2L217.5,173.2L217.1,173.3Z M197.6,183.6L197.9,183.3L197.8,183.5L197.6,183.6Z " data-id="RU.TT" data-name="Tatarstan" id="RU.TT"/>
utf-8utf-8<path d="M192.8,186.1L192.6,186.3L190.4,186.5L187.8,185.5L187.0,185.3L187.1,185.4L188.8,187.7L188.9,189.5L184.6,192.0L184.5,192.1L184.9,192.4L190.4,196.1L194.1,198.1L195.3,204.4L195.4,204.5L195.9,204.3L199.8,204.9L205.8,202.8L206.3,203.0L206.9,202.6L204.2,201.0L203.6,199.7L201.2,197.7L203.7,195.8L203.1,195.1L207.5,193.4L211.6,193.7L215.2,191.5L214.5,189.1L213.1,187.8L212.9,187.5L212.8,187.5L206.4,184.3L199.9,186.0L198.4,185.3L193.1,186.3L192.8,186.1Z M197.6,183.6L197.8,183.5L197.9,183.3L197.6,183.6Z " data-id="RU.UL" data-name="Ul'yanovsk" id="RU.UL"/>
utf-8utf-8<path d="M411.7,121.0L405.7,117.9L403.5,118.5L400.9,118.2L398.0,116.4L390.4,116.1L382.2,113.6L379.8,117.6L373.1,117.5L367.6,117.9L361.4,115.8L360.2,114.6L355.3,114.6L354.7,114.1L348.6,113.3L346.2,113.9L335.9,112.6L332.6,110.6L330.5,111.9L327.1,111.8L324.2,112.7L321.9,109.3L317.6,108.5L314.5,106.5L314.2,104.3L303.7,102.2L302.2,103.1L299.0,103.4L295.1,105.2L289.5,104.2L285.3,101.6L282.3,100.9L273.9,102.3L273.7,102.8L268.5,103.6L260.6,100.8L261.4,99.8L259.0,95.1L257.1,94.8L254.5,92.5L252.4,91.7L251.7,91.8L247.3,98.4L244.3,97.0L241.7,98.8L241.7,101.2L243.0,103.0L244.9,108.8L244.7,111.5L246.0,114.5L246.9,114.7L249.1,117.9L250.1,118.2L250.7,122.3L251.1,122.7L251.3,122.8L258.2,124.8L263.2,125.3L274.6,129.3L277.0,131.1L278.7,134.3L289.5,144.3L298.3,145.7L304.9,151.2L306.5,151.5L306.9,151.6L308.2,151.7L312.1,151.1L316.5,146.5L324.4,141.5L322.6,140.2L324.9,139.8L331.5,141.2L336.4,140.5L342.5,143.3L343.4,143.5L353.3,149.5L357.3,149.6L365.3,150.5L367.9,151.1L368.5,151.3L368.4,151.1L369.3,150.1L369.9,145.5L371.0,143.7L373.8,141.8L371.8,138.7L370.9,135.5L371.0,132.4L384.8,132.6L385.9,133.5L392.2,133.9L394.9,132.9L403.6,134.3L405.9,135.1L406.4,133.5L409.6,130.9L411.8,130.7L416.2,132.6L417.8,132.4L419.4,131.1L424.7,128.7L425.6,127.2L413.6,122.6L411.9,121.1L411.7,121.0Z " data-id="RU.KM" data-name="Khanty-Mansiy" id="RU.KM"/>
utf-8utf-8<path d="M350.5,175.0L350.3,174.8L350.1,174.9L350.5,175.0Z M350.5,174.5L350.4,174.1L350.2,174.3L350.5,174.5Z M368.4,151.9L367.7,152.6L364.5,155.8L351.1,156.7L349.9,156.0L344.2,155.5L341.7,152.4L340.6,152.2L340.2,158.2L343.4,161.1L342.2,162.1L345.1,164.0L345.0,162.9L352.1,166.1L353.0,167.2L349.4,168.5L348.5,170.4L350.5,175.3L348.9,175.4L352.0,178.3L351.3,180.7L351.8,180.9L355.6,182.6L357.1,185.3L358.8,185.8L360.2,189.3L358.7,189.4L364.4,190.4L366.7,188.9L370.0,191.0L370.1,192.8L374.1,191.8L376.9,192.7L378.6,191.7L379.1,193.4L377.5,193.7L377.2,195.4L378.8,196.4L384.8,196.1L387.2,193.6L391.1,192.3L392.1,191.3L392.4,191.1L390.5,187.3L391.2,187.2L382.8,179.9L383.4,178.3L382.0,176.7L385.2,173.3L387.3,172.5L383.1,170.1L384.9,168.1L381.5,163.8L381.3,163.5L381.0,163.3L370.5,156.0L369.4,154.1L370.2,152.7L368.4,151.9Z " data-id="RU.OM" data-name="Omsk" id="RU.OM"/>
utf-8utf-8<path d="M367.9,151.1L365.3,150.5L357.3,149.6L353.3,149.5L343.4,143.5L342.5,143.3L336.4,140.5L331.5,141.2L324.9,139.8L322.6,140.2L324.4,141.5L316.5,146.5L312.1,151.1L308.2,151.7L306.9,151.6L307.2,152.0L308.6,154.4L311.0,156.6L303.9,159.8L304.2,161.8L308.8,167.7L307.9,167.7L307.9,167.8L309.0,170.2L314.7,172.5L316.5,173.9L321.1,174.9L322.7,174.1L326.9,175.2L328.7,176.8L334.0,177.3L339.0,180.2L339.7,180.2L339.9,179.6L345.6,180.3L350.0,182.1L351.2,180.7L351.3,180.7L352.0,178.3L348.9,175.4L350.5,175.3L348.5,170.4L349.4,168.5L353.0,167.2L352.1,166.1L345.0,162.9L345.1,164.0L342.2,162.1L343.4,161.1L340.2,158.2L340.6,152.2L341.7,152.4L344.2,155.5L349.9,156.0L351.1,156.7L364.5,155.8L367.7,152.6L368.4,151.9L368.6,151.6L368.6,151.5L368.5,151.3L367.9,151.1Z M350.5,174.5L350.2,174.3L350.4,174.1L350.5,174.5Z M350.5,175.0L350.1,174.9L350.3,174.8L350.5,175.0Z " data-id="RU.TY" data-name="Tyumen'" id="RU.TY"/>
utf-8utf-8<path d="M479.6,204.4L476.2,200.3L473.5,199.3L473.8,196.6L468.4,194.0L465.7,192.2L460.0,190.3L456.1,187.9L456.0,188.0L453.9,189.1L453.6,190.6L451.5,190.2L447.1,191.0L446.8,192.6L445.5,191.5L442.7,196.0L437.5,194.6L435.8,192.4L431.1,191.2L428.6,189.8L423.6,191.5L420.4,194.9L416.9,195.0L410.5,195.9L411.5,196.6L410.4,198.1L411.2,198.6L431.3,215.6L436.0,220.1L437.8,220.6L439.1,219.6L438.2,217.5L443.5,217.4L443.5,218.7L446.1,219.4L447.3,221.3L450.8,221.1L452.7,221.7L456.0,220.7L455.7,220.1L460.5,219.1L463.4,220.1L465.7,221.8L466.7,222.3L469.6,221.1L466.3,219.0L465.3,216.4L472.5,213.7L472.2,213.4L475.7,209.8L477.2,209.8L478.5,207.4L476.7,206.5L479.3,204.3L479.6,204.5L479.6,204.4Z " data-id="RU.AL" data-name="Altay" id="RU.AL"/>
utf-8utf-8<path d="M479.3,204.3L476.7,206.5L478.5,207.4L477.2,209.8L475.7,209.8L472.2,213.4L472.5,213.7L465.3,216.4L466.3,219.0L469.6,221.1L466.7,222.3L466.8,222.4L469.5,225.7L475.5,227.4L476.1,228.9L478.3,230.5L486.7,233.0L488.7,229.9L489.2,231.8L496.6,236.4L497.5,236.5L502.6,232.8L511.0,230.5L509.6,229.0L509.7,228.9L507.4,226.2L506.0,225.7L508.0,223.0L506.8,222.8L499.9,218.0L496.5,214.3L495.6,214.0L495.2,214.2L493.2,215.8L490.0,213.6L490.3,212.6L488.1,211.7L488.7,209.8L490.2,208.8L490.1,208.5L490.0,208.2L489.1,205.9L486.4,205.5L479.6,204.6L479.6,204.5L479.3,204.3Z " data-id="RU.GA" data-name="Gorno-Altay" id="RU.GA"/>
utf-8utf-8<path d="M475.5,179.3L477.8,175.1L476.7,174.1L470.8,170.8L468.7,168.9L468.5,167.2L468.3,167.1L468.1,167.5L465.3,168.6L453.7,168.9L451.5,171.2L451.4,172.4L448.4,172.3L443.7,174.0L443.6,174.1L444.4,174.1L448.6,178.5L452.4,183.6L454.0,184.4L454.4,186.8L456.0,188.0L456.1,187.9L460.0,190.3L465.7,192.2L468.4,194.0L473.8,196.6L473.5,199.3L476.2,200.3L479.6,204.4L479.6,204.5L479.6,204.6L486.4,205.5L489.1,205.9L490.0,208.2L490.1,208.5L490.7,208.4L493.1,202.7L489.8,200.6L489.7,198.8L487.1,197.4L486.8,195.7L488.3,193.5L486.6,192.5L485.9,190.0L479.3,188.6L479.7,184.7L475.8,181.5L475.5,179.6L475.5,179.3L475.5,179.3Z " data-id="RU.KE" data-name="Kemerovo" id="RU.KE"/>
utf-8utf-8<path d="M505.0,208.2L505.2,205.9L508.1,202.2L506.7,200.3L509.0,198.5L503.1,194.3L502.9,192.4L498.1,187.8L496.3,187.0L494.8,185.1L488.0,181.9L481.9,183.4L478.6,180.7L475.5,179.3L475.5,179.3L475.5,179.6L475.8,181.5L479.7,184.7L479.3,188.6L485.9,190.0L486.6,192.5L488.3,193.5L486.8,195.7L487.1,197.4L489.7,198.8L489.8,200.6L493.1,202.7L490.7,208.4L490.1,208.5L490.2,208.8L488.7,209.8L488.1,211.7L490.3,212.6L490.0,213.6L493.2,215.8L495.2,214.2L495.6,214.0L497.6,213.6L502.3,213.9L504.4,212.1L502.8,210.2L504.7,208.4L505.0,208.3L505.0,208.2Z " data-id="RU.KK" data-name="Khakass" id="RU.KK"/>
utf-8utf-8<path d="M443.6,174.5L440.1,175.5L440.1,177.1L437.1,176.4L432.1,169.6L427.9,171.3L423.1,172.2L418.8,169.8L414.7,170.5L406.4,166.3L397.8,164.6L397.6,164.3L386.2,163.8L381.3,163.5L381.5,163.8L384.9,168.1L383.1,170.1L387.3,172.5L385.2,173.3L382.0,176.7L383.4,178.3L382.8,179.9L391.2,187.2L390.5,187.3L392.4,191.1L392.7,191.0L399.2,188.0L399.2,190.6L397.6,190.7L398.8,192.5L409.9,197.8L410.4,198.1L411.5,196.6L410.5,195.9L416.9,195.0L420.4,194.9L423.6,191.5L428.6,189.8L431.1,191.2L435.8,192.4L437.5,194.6L442.7,196.0L445.5,191.5L446.8,192.6L447.1,191.0L451.5,190.2L453.6,190.6L453.9,189.1L456.0,188.0L454.4,186.8L454.0,184.4L452.4,183.6L448.6,178.5L444.4,174.1L443.6,174.1L443.6,174.5Z " data-id="RU.NS" data-name="Novosibirsk" id="RU.NS"/>
utf-8utf-8<path d="M205.0,282.7L204.6,282.8L202.8,283.3L201.7,285.0L201.1,286.0L200.7,285.9L200.8,286.6L201.0,286.7L202.8,287.7L204.1,290.5L204.3,294.7L204.5,294.6L207.7,296.0L209.7,296.7L209.7,296.7L211.5,295.6L212.0,293.2L214.2,292.9L212.6,287.6L214.0,284.8L211.3,282.9L209.4,284.5L205.3,282.8L205.0,282.7Z " data-id="RU.CN" data-name="Chechnya" id="RU.CN"/>
utf-8utf-8<path d="M213.8,276.0L212.9,275.8L210.0,274.4L205.6,273.8L204.5,274.0L204.2,274.5L203.3,278.8L201.7,281.0L204.8,281.2L204.8,281.9L205.0,282.7L205.3,282.8L209.4,284.5L211.3,282.9L214.0,284.8L212.6,287.6L214.2,292.9L212.0,293.2L211.5,295.6L209.7,296.7L209.8,296.9L209.3,298.9L215.8,301.7L222.6,305.6L224.2,307.6L228.3,308.2L228.6,306.8L231.6,304.3L232.4,302.4L230.8,301.5L221.4,290.0L221.3,284.4L219.8,284.0L215.4,279.5L213.6,279.3L212.7,277.1L213.6,276.1L213.8,276.0Z " data-id="RU.DA" data-name="Dagestan" id="RU.DA"/>
utf-8utf-8<path d="M665.4,154.5L652.6,144.1L649.3,143.0L644.7,144.0L642.3,143.1L640.5,139.5L633.3,136.6L624.6,135.5L623.6,137.4L621.9,138.6L622.6,139.7L619.3,143.4L619.7,147.0L617.1,147.4L616.2,148.9L614.1,145.6L610.6,144.0L605.7,146.7L604.9,146.2L602.2,148.0L598.3,148.5L594.1,145.8L591.2,142.3L589.4,138.1L589.0,133.2L587.9,130.0L581.9,128.4L580.7,126.4L577.2,124.2L577.0,122.8L573.3,119.1L570.6,118.6L569.1,115.1L564.3,111.3L557.9,109.2L555.1,107.3L557.5,107.4L553.8,104.8L550.1,103.9L550.2,104.0L550.7,103.9L552.4,106.0L549.5,106.0L548.9,107.0L543.6,106.4L545.0,107.4L546.3,112.0L547.6,113.3L546.2,113.8L553.6,117.6L555.0,122.4L554.0,122.6L554.0,125.4L549.8,127.9L551.6,129.6L549.8,130.6L552.1,134.3L554.6,136.2L560.9,137.5L563.7,141.0L561.2,140.9L561.3,143.3L567.6,147.5L565.8,148.7L566.7,151.2L564.9,151.7L556.7,148.6L553.7,147.1L550.1,146.0L548.0,147.1L550.1,149.1L546.6,155.0L546.1,155.1L546.8,160.4L544.2,160.9L536.1,156.9L536.0,158.7L532.9,159.4L525.9,158.6L526.6,165.3L533.6,171.0L531.9,171.1L532.9,172.6L530.0,174.3L530.5,177.3L533.3,180.6L532.8,183.0L534.5,184.6L532.7,187.3L531.7,187.0L530.2,189.2L540.9,195.4L541.1,195.3L541.1,195.3L544.3,195.6L548.7,197.5L551.6,197.9L557.5,200.1L560.5,200.7L562.8,201.5L562.7,201.2L565.2,198.7L567.2,198.1L581.2,205.1L582.9,206.3L589.0,207.7L592.4,209.7L596.9,211.7L599.8,215.0L601.5,214.7L603.7,215.5L605.1,217.8L610.1,216.1L608.3,213.6L612.7,211.2L622.2,194.1L622.3,188.4L618.5,187.3L615.7,181.3L613.1,177.9L612.4,175.2L609.6,172.3L607.7,172.0L606.8,169.4L613.0,167.3L613.4,165.9L616.1,166.5L622.6,166.5L623.7,165.6L625.8,166.3L640.8,169.1L642.3,169.8L643.9,168.4L647.2,168.2L646.4,164.9L650.4,164.5L651.7,165.6L651.7,166.0L652.9,166.3L663.3,166.5L664.3,167.2L663.9,164.0L662.0,163.3L655.0,158.5L656.3,158.3L654.1,154.2L657.0,153.5L662.2,155.1L665.2,154.9L665.7,155.0L665.4,154.5Z " data-id="RU.IR" data-name="Irkutsk" id="RU.IR"/>
utf-8utf-8<path d="M358.0,54.5L357.6,52.0L355.9,51.2L358.0,54.5Z M321.6,35.0L319.6,34.1L316.7,35.2L317.6,36.0L322.6,36.1L321.6,35.0Z M358.5,29.9L358.6,29.2L358.3,29.2L358.5,29.9Z M342.1,26.8L339.7,27.0L341.3,27.0L342.1,26.8Z M494.1,28.7L495.6,28.0L495.6,27.9L494.1,27.1L493.3,27.6L488.6,26.8L486.2,28.4L487.4,29.1L493.1,28.6L494.1,28.7Z M332.2,26.4L329.9,25.9L330.4,26.3L332.2,26.4Z M342.2,23.4L339.4,23.5L340.8,23.4L342.2,23.4Z M345.2,23.2L345.0,22.7L343.3,22.7L345.2,23.2Z M311.5,22.6L309.0,22.1L311.1,23.1L311.5,22.6Z M351.2,19.9L349.8,19.6L346.6,20.3L351.2,19.9Z M322.4,18.8L321.9,18.4L321.6,18.6L322.4,18.8Z M320.0,16.2L317.1,16.8L319.3,17.4L320.0,16.2Z M314.0,12.8L314.9,13.1L317.7,13.3L314.0,12.8Z M321.0,12.5L317.1,12.5L322.6,12.6L321.0,12.5Z M384.5,10.4L382.1,10.6L382.4,10.9L384.5,10.4Z M391.4,10.1L391.0,10.6L386.9,10.8L392.1,11.2L393.7,10.4L391.4,10.1Z M483.2,9.4L482.7,9.6L482.8,9.6L483.2,9.4Z M477.1,7.9L474.2,8.0L479.1,9.0L477.1,7.9Z M389.1,7.2L386.8,7.4L386.7,7.9L389.1,7.2Z M384.6,7.4L383.8,7.5L385.3,7.6L384.6,7.4Z M381.8,7.2L380.6,7.5L380.9,7.7L381.8,7.2Z M396.1,8.1L394.0,7.2L393.8,7.3L396.1,8.1Z M395.1,6.9L392.6,7.0L394.1,7.0L395.1,6.9Z M346.3,5.2L346.1,4.3L345.5,4.2L346.3,5.2Z M386.0,4.6L384.4,4.0L380.2,5.2L386.0,4.6Z M435.1,3.2L434.4,3.2L435.1,3.4L435.1,3.2Z M437.6,3.0L437.7,2.9L437.2,2.8L437.6,3.0Z M443.6,2.8L442.5,3.4L443.3,3.5L443.6,2.8Z M438.3,1.8L437.4,2.4L438.4,2.5L438.3,1.8Z M318.8,39.1L322.8,41.1L331.4,42.4L332.4,42.8L331.3,45.0L328.6,44.9L328.8,47.0L334.5,48.6L337.4,48.9L342.1,53.5L335.5,58.5L340.1,60.1L344.0,62.3L354.1,63.2L355.1,61.9L357.2,63.8L360.5,63.9L363.5,66.8L366.8,67.8L364.2,68.7L367.0,73.7L363.4,74.0L367.6,76.5L369.2,76.8L370.4,78.6L369.4,79.3L379.9,84.1L379.6,85.4L384.0,87.8L383.2,88.8L386.7,91.2L389.2,91.0L393.4,93.2L395.6,95.2L395.0,96.8L395.9,98.3L400.3,98.7L401.9,99.5L406.2,99.4L410.7,104.6L408.9,109.2L413.3,111.2L413.8,115.3L411.8,121.0L411.9,121.1L413.6,122.6L425.6,127.2L424.7,128.7L419.4,131.1L417.8,132.4L418.1,132.5L423.7,136.4L424.4,139.2L425.7,140.5L431.1,140.6L433.9,140.1L438.3,140.1L441.9,140.8L450.7,146.0L454.8,145.7L457.8,148.0L455.6,149.1L454.7,152.6L458.1,155.9L464.1,157.3L467.1,157.4L469.1,160.2L467.7,160.4L466.2,164.8L468.2,166.7L468.3,167.1L468.5,167.2L468.7,168.9L470.8,170.8L476.7,174.1L477.8,175.1L475.5,179.3L475.5,179.3L475.5,179.3L478.6,180.7L481.9,183.4L488.0,181.9L494.8,185.1L496.3,187.0L498.1,187.8L502.9,192.4L503.1,194.3L509.0,198.5L506.7,200.3L508.1,202.2L505.2,205.9L505.0,208.2L505.0,208.3L505.0,208.3L509.3,210.7L513.9,210.9L519.1,211.7L522.0,211.7L524.6,210.4L527.4,207.9L527.9,202.3L529.1,198.7L530.3,197.5L540.0,196.5L541.1,195.4L541.1,195.3L540.9,195.4L530.2,189.2L531.7,187.0L532.7,187.3L534.5,184.6L532.8,183.0L533.3,180.6L530.5,177.3L530.0,174.3L532.9,172.6L531.9,171.1L533.6,171.0L526.6,165.3L525.9,158.6L532.9,159.4L536.0,158.7L536.1,156.9L544.2,160.9L546.8,160.4L546.1,155.1L546.6,155.0L550.1,149.1L548.0,147.1L550.1,146.0L553.7,147.1L556.7,148.6L564.9,151.7L566.7,151.2L565.8,148.7L567.6,147.5L561.3,143.3L561.2,140.9L563.7,141.0L560.9,137.5L554.6,136.2L552.1,134.3L549.8,130.6L551.6,129.6L549.8,127.9L554.0,125.4L554.0,122.6L555.0,122.4L553.6,117.6L546.2,113.8L547.6,113.3L546.3,112.0L545.0,107.4L543.6,106.4L548.9,107.0L549.5,106.0L552.4,106.0L550.7,103.9L550.2,104.0L550.3,104.4L546.5,103.4L545.5,103.8L538.3,102.2L537.2,102.5L532.6,99.7L531.6,97.3L534.4,93.6L531.0,92.3L523.0,85.1L519.2,82.5L515.1,81.3L516.8,80.9L520.2,78.5L512.7,69.7L509.6,66.3L501.0,61.9L509.7,59.9L510.4,58.6L515.6,57.0L513.8,55.9L521.2,50.1L526.0,48.8L524.4,47.6L520.2,46.5L514.3,41.0L512.9,40.9L506.6,38.9L507.1,38.1L502.5,37.0L500.0,34.3L493.2,31.4L494.9,29.2L494.9,29.3L487.2,30.9L486.5,31.8L481.7,33.0L473.1,33.3L471.6,36.1L471.4,32.0L473.9,32.1L474.3,29.7L478.7,29.3L480.8,27.3L484.6,25.7L482.6,24.6L491.4,21.8L495.3,18.2L495.5,17.2L489.0,14.6L492.8,14.7L492.1,13.5L485.3,10.7L480.7,10.0L471.2,7.4L464.0,6.9L460.4,7.1L452.6,7.0L452.4,8.5L445.1,8.7L445.9,7.1L444.9,5.0L442.1,4.8L435.1,5.2L436.2,4.7L428.2,4.5L431.1,3.8L434.3,2.2L424.6,0.2L419.5,0.7L417.4,0.5L415.2,1.6L411.4,4.5L411.5,6.0L414.2,7.0L415.5,8.6L407.6,8.9L403.6,8.6L413.1,12.1L406.5,10.7L402.5,12.3L397.8,13.1L390.9,13.1L390.5,11.3L383.2,11.1L378.6,11.3L380.8,11.9L377.8,12.1L380.0,13.3L362.3,15.3L358.9,15.9L355.3,18.5L349.1,18.4L349.2,19.0L354.1,19.6L351.2,21.9L347.0,20.9L350.0,22.6L354.4,23.6L354.2,24.7L351.0,23.5L349.8,25.0L354.8,25.6L358.7,27.7L361.1,28.0L360.5,29.9L356.6,27.7L348.3,29.0L339.5,29.5L328.5,29.6L325.4,30.0L324.0,31.3L324.0,33.1L326.1,33.3L330.5,37.8L334.2,39.2L341.4,40.1L342.3,40.9L350.6,43.3L353.0,44.8L353.3,48.2L360.9,53.7L358.6,55.8L355.9,56.0L356.6,54.1L354.7,50.5L351.2,50.3L352.3,54.7L347.2,47.5L349.8,46.6L350.7,45.1L349.6,44.0L341.6,44.3L333.3,41.7L334.1,41.3L322.9,39.0L318.8,39.1L318.8,39.1Z " data-id="RU.KY" data-name="Krasnoyarsk" id="RU.KY"/>
utf-8utf-8<path d="M560.5,200.7L557.5,200.1L551.6,197.9L548.7,197.5L544.3,195.6L541.1,195.3L541.1,195.3L541.1,195.4L540.0,196.5L530.3,197.5L529.1,198.7L527.9,202.3L527.4,207.9L524.6,210.4L522.0,211.7L519.1,211.7L513.9,210.9L509.3,210.7L505.0,208.3L505.0,208.3L504.7,208.4L502.8,210.2L504.4,212.1L502.3,213.9L497.6,213.6L495.6,214.0L496.5,214.3L499.9,218.0L506.8,222.8L508.0,223.0L506.0,225.7L507.4,226.2L509.7,228.9L509.8,228.7L515.6,226.2L524.2,221.8L530.0,221.8L533.6,222.5L539.8,223.0L548.2,228.4L563.3,229.7L564.9,230.5L569.6,227.9L569.2,223.9L562.9,219.0L562.2,215.1L563.4,214.7L565.0,208.8L565.1,208.9L561.4,206.3L562.1,204.0L561.3,202.8L562.8,201.6L562.8,201.5L560.5,200.7Z " data-id="RU.TU" data-name="Tuva" id="RU.TU"/>
utf-8utf-8<path d="M651.7,165.6L650.4,164.5L646.4,164.9L647.2,168.2L643.9,168.4L642.3,169.8L640.8,169.1L625.8,166.3L623.7,165.6L622.6,166.5L616.1,166.5L613.4,165.9L613.0,167.3L606.8,169.4L607.7,172.0L609.6,172.3L612.4,175.2L613.1,177.9L615.7,181.3L618.5,187.3L622.3,188.4L622.2,194.1L612.7,211.2L608.3,213.6L610.1,216.1L605.1,217.8L603.7,215.5L601.5,214.7L599.8,215.0L596.9,211.7L592.4,209.7L589.0,207.7L582.9,206.3L581.2,205.1L567.2,198.1L565.2,198.7L562.7,201.2L562.8,201.5L562.8,201.6L561.3,202.8L562.1,204.0L561.4,206.3L565.1,208.9L565.3,209.0L576.2,212.5L578.4,212.5L586.1,214.9L586.6,214.7L592.6,216.4L592.5,216.8L602.8,225.2L604.6,225.3L608.9,226.9L613.0,226.5L613.8,225.3L617.9,224.6L619.4,223.7L627.0,225.4L628.2,225.1L632.4,226.2L635.6,228.1L639.4,228.3L639.5,228.4L638.9,226.2L640.4,224.4L643.2,223.9L637.5,221.2L637.8,218.5L639.0,217.9L637.0,214.4L641.1,214.9L647.1,213.6L651.8,214.5L653.6,211.6L655.7,210.7L657.4,207.3L659.8,208.1L660.5,206.8L668.2,204.3L668.0,200.6L664.6,198.9L660.7,195.4L664.3,193.4L666.6,190.3L669.9,187.7L673.4,187.5L674.2,184.3L667.9,180.3L662.6,178.5L658.1,173.5L651.8,168.2L651.6,166.1L651.7,166.0L651.7,165.6Z " data-id="RU.BU" data-name="Buryat" id="RU.BU"/>
utf-8utf-8<path d="M764.6,177.2L754.7,177.1L752.3,177.5L752.0,179.0L747.0,177.5L743.2,177.3L742.3,178.4L740.2,177.3L735.6,177.5L734.4,178.2L728.6,176.2L718.9,175.3L711.8,171.1L703.8,169.7L701.4,169.7L697.6,168.3L693.3,167.9L690.3,165.9L682.6,165.6L680.7,166.6L680.7,166.6L680.7,166.8L684.1,170.2L686.2,170.4L689.3,171.9L687.3,173.6L689.8,175.6L695.9,174.3L703.5,178.0L707.4,181.7L710.1,186.3L713.5,188.5L710.8,189.0L717.2,194.7L719.6,197.2L720.0,197.2L725.1,196.8L727.2,196.0L731.9,196.6L736.9,198.6L742.9,199.2L748.7,201.2L748.6,201.9L753.5,204.9L755.1,205.2L766.7,215.1L770.2,218.4L774.8,221.3L777.7,224.6L780.5,226.2L781.0,227.8L784.6,231.0L789.2,232.3L792.8,231.9L793.7,232.9L798.5,234.0L799.4,233.4L807.8,238.3L810.9,238.3L810.9,238.3L812.9,237.4L812.6,234.9L814.1,234.9L814.1,235.0L813.8,233.4L811.1,231.0L810.3,228.7L807.0,225.7L803.6,224.6L801.4,222.0L798.4,216.9L800.1,215.0L798.2,213.5L803.8,211.3L804.4,208.5L807.8,207.3L806.4,206.7L812.6,205.8L815.2,205.9L814.0,203.6L811.7,201.6L811.8,200.6L809.1,197.0L805.8,195.5L803.3,197.2L799.5,196.2L797.1,198.9L787.0,199.0L783.0,194.3L779.0,194.1L774.0,191.4L775.2,189.2L775.5,185.8L777.5,185.1L777.7,182.9L779.8,182.6L779.5,180.0L774.8,177.0L773.5,177.4L765.2,177.3L765.0,177.3L764.6,177.2Z " data-id="RU.AM" data-name="Amur" id="RU.AM"/>
utf-8utf-8<path d="M665.2,154.9L662.2,155.1L657.0,153.5L654.1,154.2L656.3,158.3L655.0,158.5L662.0,163.3L663.9,164.0L664.3,167.2L663.3,166.5L652.9,166.3L651.7,166.0L651.6,166.1L651.8,168.2L658.1,173.5L662.6,178.5L667.9,180.3L674.2,184.3L673.4,187.5L669.9,187.7L666.6,190.3L664.3,193.4L660.7,195.4L664.6,198.9L668.0,200.6L668.2,204.3L660.5,206.8L659.8,208.1L657.4,207.3L655.7,210.7L653.6,211.6L651.8,214.5L647.1,213.6L641.1,214.9L637.0,214.4L639.0,217.9L637.8,218.5L637.5,221.2L643.2,223.9L640.4,224.4L638.9,226.2L639.5,228.4L639.6,228.4L640.8,228.7L645.6,232.4L649.2,234.2L661.4,235.7L662.5,235.0L666.2,235.7L668.8,233.8L673.4,233.4L679.8,231.5L679.5,230.9L684.7,225.6L688.3,225.9L694.9,229.1L705.0,229.9L708.1,231.0L715.0,232.0L718.0,228.4L721.5,228.0L721.9,227.2L718.8,224.6L719.2,221.8L718.0,214.5L719.9,210.4L719.6,209.3L716.4,205.1L712.3,204.8L713.7,198.5L718.6,197.2L719.6,197.2L717.2,194.7L710.8,189.0L713.5,188.5L710.1,186.3L707.4,181.7L703.5,178.0L695.9,174.3L689.8,175.6L687.3,173.6L689.3,171.9L686.2,170.4L684.1,170.2L680.7,166.8L680.7,166.6L680.6,166.6L677.9,165.5L672.3,160.3L671.4,161.3L666.0,155.2L665.7,155.0L665.2,154.9Z " data-id="RU.CT" data-name="Chita" id="RU.CT"/>
utf-8utf-8<path d="M854.8,291.4L854.2,291.4L855.0,292.2L854.8,291.4Z M849.4,258.9L851.7,268.1L850.3,269.3L851.9,272.4L850.4,274.5L850.8,276.4L849.9,278.0L845.8,275.4L845.4,273.9L841.4,270.7L840.4,274.1L837.7,275.1L844.5,282.4L846.8,287.2L848.0,287.8L849.3,293.3L846.8,293.4L848.0,296.6L850.2,297.9L849.8,295.9L851.1,294.9L852.6,296.0L852.1,292.8L852.6,289.2L853.4,289.0L855.2,291.2L857.7,291.1L862.4,292.8L865.7,294.7L870.9,292.9L874.9,289.0L877.2,283.9L876.7,279.6L878.3,277.8L879.2,272.6L881.5,266.7L881.9,264.0L881.7,259.2L880.5,255.6L881.5,252.0L881.5,251.9L877.7,250.7L876.0,249.4L875.7,246.8L872.3,243.9L864.7,244.5L867.5,248.4L871.2,248.9L873.1,252.0L871.2,253.7L867.8,253.3L868.6,255.2L867.4,257.5L857.7,256.3L857.6,255.3L851.3,255.1L852.3,258.4L849.4,258.8L849.4,258.9Z " data-id="RU.PR" data-name="Primor'ye" id="RU.PR"/>
utf-8utf-8<path d="M830.3,61.0L830.2,62.2L834.0,64.6L833.7,63.5L830.3,61.0Z M832.0,62.0L830.7,60.4L830.1,60.7L832.0,62.0Z M832.9,60.9L832.5,60.3L831.7,60.1L832.9,60.9Z M823.7,52.2L822.9,52.2L822.7,52.3L823.7,52.2Z M669.8,45.2L665.6,45.7L668.2,46.4L671.1,45.8L669.8,45.2Z M607.4,37.1L602.8,37.2L607.0,38.0L607.4,37.1Z M608.6,36.1L606.4,35.0L602.3,35.8L608.6,36.1Z M551.4,34.1L551.5,33.1L550.2,33.2L551.4,34.1Z M671.0,27.9L669.1,27.6L664.3,27.8L665.1,30.8L661.6,31.3L663.8,32.0L667.5,31.3L672.9,32.2L685.3,32.7L673.2,28.2L671.0,27.9Z M495.6,27.9L495.6,28.0L494.1,28.7L494.1,28.7L494.3,28.7L494.9,29.1L494.9,29.2L493.2,31.4L500.0,34.3L502.5,37.0L507.1,38.1L506.6,38.9L512.9,40.9L514.3,41.0L520.2,46.5L524.4,47.6L526.0,48.8L521.2,50.1L513.8,55.9L515.6,57.0L510.4,58.6L509.7,59.9L501.0,61.9L509.6,66.3L512.7,69.7L520.2,78.5L516.8,80.9L515.1,81.3L519.2,82.5L523.0,85.1L531.0,92.3L534.4,93.6L531.6,97.3L532.6,99.7L537.2,102.5L538.3,102.2L545.5,103.8L546.5,103.4L550.3,104.4L550.2,104.0L550.1,103.9L553.8,104.8L557.5,107.4L555.1,107.3L557.9,109.2L564.3,111.3L569.1,115.1L570.6,118.6L573.3,119.1L577.0,122.8L577.2,124.2L580.7,126.4L581.9,128.4L587.9,130.0L589.0,133.2L589.4,138.1L591.2,142.3L594.1,145.8L598.3,148.5L602.2,148.0L604.9,146.2L605.7,146.7L610.6,144.0L614.1,145.6L616.2,148.9L617.1,147.4L619.7,147.0L619.3,143.4L622.6,139.7L621.9,138.6L623.6,137.4L624.6,135.5L633.3,136.6L640.5,139.5L642.3,143.1L644.7,144.0L649.3,143.0L652.6,144.1L665.4,154.5L665.7,155.0L666.0,155.2L671.4,161.3L672.3,160.3L677.9,165.5L680.6,166.6L680.7,166.6L680.7,166.6L682.6,165.6L690.3,165.9L693.3,167.9L697.6,168.3L701.4,169.7L703.8,169.7L711.8,171.1L718.9,175.3L728.6,176.2L734.4,178.2L735.6,177.5L740.2,177.3L742.3,178.4L743.2,177.3L747.0,177.5L752.0,179.0L752.3,177.5L754.7,177.1L764.6,177.2L765.0,177.3L764.9,177.1L760.8,171.0L763.7,170.5L762.7,167.9L756.0,164.3L756.1,162.3L757.2,160.0L751.1,156.4L752.7,155.3L752.9,152.7L752.4,149.3L750.8,147.4L752.3,146.3L757.6,146.1L761.6,147.0L765.8,147.3L766.0,144.0L770.0,144.6L776.2,144.4L779.3,141.7L781.7,142.1L775.0,135.1L771.0,132.1L771.3,128.3L774.7,127.0L774.0,125.2L774.3,122.2L771.8,119.4L775.5,118.6L781.2,121.1L792.9,123.1L792.7,122.3L798.8,122.9L801.7,124.9L802.9,124.9L803.1,122.3L803.3,122.2L802.8,122.0L803.9,120.3L802.2,118.2L803.4,118.0L800.4,116.2L795.5,112.2L793.9,109.7L794.2,106.4L804.3,106.1L805.3,104.8L802.1,102.8L803.8,101.7L812.3,101.3L818.2,104.1L820.6,104.4L819.1,103.1L826.3,101.7L826.7,99.2L823.1,95.7L826.1,94.7L822.1,90.6L826.3,91.1L826.5,90.0L824.1,88.8L825.1,87.7L827.2,88.2L837.4,88.8L837.6,87.7L841.8,89.5L844.5,89.4L845.2,88.6L850.1,88.5L847.8,86.5L847.2,86.3L846.1,85.5L844.4,82.3L841.5,80.9L834.0,79.1L829.2,75.8L831.1,72.1L833.8,71.3L841.9,70.8L843.2,69.9L850.5,70.7L846.0,66.8L846.8,66.4L842.5,64.7L842.5,63.7L837.5,61.6L835.3,60.4L833.0,61.1L837.6,65.3L838.9,69.0L836.9,65.4L831.4,63.3L827.7,60.7L818.3,59.3L813.6,56.4L814.6,55.3L807.5,52.2L803.1,51.0L793.2,49.3L788.8,49.1L779.1,49.1L766.2,50.9L756.7,49.7L758.6,49.3L752.0,47.1L746.9,46.6L739.3,44.5L732.7,44.5L733.2,42.8L736.7,43.7L737.7,43.1L735.6,42.0L727.2,40.1L721.5,39.5L715.8,39.6L715.5,43.3L712.5,44.5L707.0,42.1L710.2,43.0L710.1,40.7L713.9,43.1L714.7,39.6L701.7,40.6L698.8,39.9L701.4,39.6L702.2,38.7L705.2,39.3L703.3,37.8L690.7,36.7L683.4,36.7L676.2,35.4L672.7,35.2L677.4,37.7L670.2,40.2L675.7,40.7L675.0,42.3L681.8,46.1L679.8,46.1L673.8,44.7L671.6,45.0L671.4,46.6L673.0,47.0L674.2,48.7L663.2,46.0L662.1,45.3L653.6,45.5L653.2,46.6L650.2,46.8L641.9,45.0L635.7,42.9L636.8,45.7L638.8,48.9L638.4,51.7L628.6,49.0L626.3,49.0L617.3,44.2L618.1,43.8L614.5,41.9L616.3,43.8L607.2,40.2L602.3,38.7L609.2,40.4L614.4,41.3L613.5,39.3L602.3,37.2L608.9,37.0L609.4,36.6L602.7,36.0L601.1,35.2L603.4,34.6L607.5,34.8L604.8,33.7L602.6,33.9L601.7,32.8L595.1,31.8L594.9,31.3L588.8,30.4L588.1,31.3L578.5,30.1L569.9,28.7L568.0,29.9L566.3,29.7L571.3,32.9L570.1,35.7L565.6,35.2L551.5,34.3L557.1,35.3L551.7,34.7L540.9,32.3L539.6,31.2L527.4,29.4L520.3,29.1L513.9,29.9L511.1,30.6L515.7,31.8L515.9,34.7L509.1,29.3L505.6,27.7L505.5,28.4L501.8,29.1L496.9,28.3L495.6,27.9Z M518.7,24.8L518.3,24.3L517.3,24.2L518.7,24.8Z M503.0,24.3L494.1,22.9L492.9,24.8L498.1,25.9L502.0,26.3L503.0,24.3Z M677.0,16.0L675.0,16.7L677.1,18.1L693.3,21.0L699.7,21.3L705.9,20.2L699.1,17.9L692.4,17.8L687.1,16.5L681.2,17.1L677.0,16.0Z M621.6,15.1L622.1,14.8L621.6,15.0L621.6,15.1Z M618.0,16.8L612.6,14.3L614.5,15.4L618.0,16.8Z M703.0,11.6L702.0,10.9L700.9,11.1L703.0,11.6Z M627.8,11.6L625.3,10.7L621.1,12.2L622.8,13.7L620.9,14.3L625.5,16.4L624.2,16.7L628.0,18.6L633.4,19.7L635.4,20.7L645.3,21.9L643.4,20.1L652.6,20.2L657.1,19.9L660.6,20.8L666.7,19.9L658.9,18.8L652.1,16.1L653.8,14.4L654.1,16.3L661.3,18.7L669.0,19.2L669.2,17.4L666.8,16.6L667.8,15.3L655.0,13.2L642.4,12.2L643.0,14.5L640.2,14.8L637.0,13.7L627.8,11.6Z M676.5,7.7L675.6,6.8L672.9,7.2L676.5,7.7Z " data-id="RU.CK" data-name="Sakha (Yakutia)" id="RU.CK"/>
utf-8utf-8<path d="M814.1,235.0L814.1,234.9L812.6,234.9L812.9,237.4L810.9,238.3L811.1,238.3L811.8,240.5L815.8,243.3L815.9,245.1L821.4,249.3L823.8,248.7L825.5,249.4L831.0,248.8L834.2,245.2L836.5,245.5L841.2,242.9L841.3,242.8L844.2,242.9L843.2,240.8L837.3,240.6L834.6,239.5L830.7,238.8L827.4,235.6L823.4,234.0L820.7,234.1L818.5,235.0L814.3,235.0L814.1,235.0Z " data-id="RU.YV" data-name="Yevrey" id="RU.YV"/>
utf-8utf-8<path d="M822.7,188.6L821.9,187.8L822.2,188.3L822.7,188.6Z M822.9,185.9L822.9,185.8L822.7,185.9L822.9,185.9Z M812.7,182.4L810.4,183.7L812.0,183.6L812.7,182.4Z M816.5,182.1L815.0,184.5L820.1,186.6L820.6,185.1L816.5,182.1Z M765.0,177.3L765.2,177.3L773.5,177.4L774.8,177.0L779.5,180.0L779.8,182.6L777.7,182.9L777.5,185.1L775.5,185.8L775.2,189.2L774.0,191.4L779.0,194.1L783.0,194.3L787.0,199.0L797.1,198.9L799.5,196.2L803.3,197.2L805.8,195.5L809.1,197.0L811.8,200.6L811.7,201.6L814.0,203.6L815.2,205.9L812.6,205.8L806.4,206.7L807.8,207.3L804.4,208.5L803.8,211.3L798.2,213.5L800.1,215.0L798.4,216.9L801.4,222.0L803.6,224.6L807.0,225.7L810.3,228.7L811.1,231.0L813.8,233.4L814.1,235.0L814.3,235.0L818.5,235.0L820.7,234.1L823.4,234.0L827.4,235.6L830.7,238.8L834.6,239.5L837.3,240.6L843.2,240.8L844.2,242.9L841.3,242.8L841.6,242.9L845.7,246.9L848.3,251.1L846.5,252.5L849.4,258.8L849.4,258.8L852.3,258.4L851.3,255.1L857.6,255.3L857.7,256.3L867.4,257.5L868.6,255.2L867.8,253.3L871.2,253.7L873.1,252.0L871.2,248.9L867.5,248.4L864.7,244.5L872.3,243.9L875.7,246.8L876.0,249.4L877.7,250.7L881.5,251.9L881.5,251.9L880.8,247.2L882.8,242.2L881.2,239.6L881.0,237.6L876.8,230.9L875.1,227.2L869.4,221.8L869.0,219.6L867.0,216.6L866.5,212.2L865.2,208.7L865.6,208.0L860.9,206.0L860.6,204.1L856.8,201.2L857.6,199.7L852.1,196.6L849.2,195.9L845.0,194.0L843.6,192.7L837.9,190.2L837.1,189.5L834.5,190.4L829.7,189.6L834.0,195.8L832.1,195.2L826.0,196.3L826.2,193.0L821.2,191.0L822.2,193.8L818.9,193.5L818.0,191.6L813.7,186.4L812.3,186.1L802.3,185.7L800.9,184.8L801.1,182.8L803.8,180.2L804.0,178.1L805.3,177.4L808.0,173.3L807.7,168.9L811.9,159.0L810.6,154.6L813.3,150.3L813.4,147.2L816.0,145.7L822.1,144.8L829.4,145.1L834.7,144.8L838.5,146.8L840.0,146.7L842.0,145.1L842.0,145.1L842.9,144.6L839.1,140.9L836.7,140.3L831.2,137.9L827.4,137.8L822.8,135.6L824.6,133.4L826.7,134.0L826.2,131.5L818.9,125.7L815.7,124.1L809.3,122.3L808.9,123.0L803.6,122.2L803.3,122.2L803.1,122.3L802.9,124.9L801.7,124.9L798.8,122.9L792.7,122.3L792.9,123.1L781.2,121.1L775.5,118.6L771.8,119.4L774.3,122.2L774.0,125.2L774.7,127.0L771.3,128.3L771.0,132.1L775.0,135.1L781.7,142.1L779.3,141.7L776.2,144.4L770.0,144.6L766.0,144.0L765.8,147.3L761.6,147.0L757.6,146.1L752.3,146.3L750.8,147.4L752.4,149.3L752.9,152.7L752.7,155.3L751.1,156.4L757.2,160.0L756.1,162.3L756.0,164.3L762.7,167.9L763.7,170.5L760.8,171.0L764.9,177.1L765.0,177.3Z " data-id="RU.KH" data-name="Khabarovsk" id="RU.KH"/>
utf-8utf-8<path d="M803.3,122.2L803.6,122.2L808.9,123.0L809.3,122.3L815.7,124.1L818.9,125.7L826.2,131.5L826.7,134.0L824.6,133.4L822.8,135.6L827.4,137.8L831.2,137.9L836.7,140.3L839.1,140.9L842.9,144.6L842.0,145.1L842.6,145.1L849.1,146.0L848.3,145.0L852.2,145.2L855.6,145.9L854.0,142.7L856.4,141.8L866.2,143.7L869.8,143.1L876.0,145.7L879.7,146.5L874.1,146.8L873.9,148.1L876.7,149.7L880.8,149.4L881.9,148.1L886.4,149.1L885.6,147.8L889.5,146.7L892.8,147.8L894.1,146.4L898.0,146.8L897.7,145.7L894.2,144.3L889.4,144.3L886.4,139.5L886.0,136.5L889.0,133.7L887.0,131.8L888.0,128.8L886.7,126.7L887.7,125.4L894.9,124.4L896.6,123.5L905.0,123.7L905.5,123.2L908.5,126.0L914.8,130.8L915.7,132.2L918.5,133.6L920.7,133.2L920.1,132.0L922.4,125.5L922.5,125.5L916.2,121.6L915.5,120.6L917.3,120.3L912.5,116.7L907.8,114.9L906.4,113.4L908.0,112.7L904.8,109.0L901.9,107.9L898.3,104.8L899.5,103.8L898.3,102.0L893.6,99.5L894.1,100.0L884.5,99.0L881.6,97.5L875.9,96.2L872.9,96.2L864.7,93.3L856.8,91.5L853.2,87.5L847.9,86.5L847.8,86.5L850.1,88.5L845.2,88.6L844.5,89.4L841.8,89.5L837.6,87.7L837.4,88.8L827.2,88.2L825.1,87.7L824.1,88.8L826.5,90.0L826.3,91.1L822.1,90.6L826.1,94.7L823.1,95.7L826.7,99.2L826.3,101.7L819.1,103.1L820.6,104.4L818.2,104.1L812.3,101.3L803.8,101.7L802.1,102.8L805.3,104.8L804.3,106.1L794.2,106.4L793.9,109.7L795.5,112.2L800.4,116.2L803.4,118.0L802.2,118.2L803.9,120.3L802.8,122.0L803.3,122.2Z " data-id="RU.MG" data-name="Maga Buryatdan" id="RU.MG"/>
utf-8utf-8<path d="M959.0,288.0L958.8,288.0L958.7,288.0L959.0,288.0Z M957.4,287.8L957.4,287.9L957.7,288.0L957.4,287.8Z M958.8,286.9L959.3,287.7L959.6,287.5L958.8,286.9Z M959.3,286.0L959.1,286.2L959.7,286.3L959.3,286.0Z M954.5,279.0L952.4,278.3L951.5,283.8L951.9,284.9L953.5,283.3L953.4,281.7L955.7,279.4L954.5,279.0Z M967.0,270.7L963.6,271.3L961.1,270.9L959.9,269.8L959.1,272.9L959.0,277.0L960.1,277.6L961.0,275.4L962.7,274.1L963.4,272.0L967.0,270.7Z M973.9,262.5L970.7,264.7L969.9,268.4L972.6,266.3L973.9,262.5Z M974.5,260.6L973.9,260.2L973.9,260.3L974.5,260.6Z M979.5,254.2L978.3,257.3L979.2,257.7L980.2,254.2L979.5,254.2Z M980.7,252.5L980.1,252.0L979.6,252.0L980.7,252.5Z M981.7,249.0L980.8,248.6L981.2,249.1L981.7,249.0Z M981.1,246.0L979.6,245.2L979.8,245.5L981.1,246.0Z M982.4,236.4L982.3,235.8L982.3,236.5L982.4,236.4Z M980.6,231.4L980.7,233.6L982.2,234.8L980.6,231.4Z M976.8,230.4L976.0,229.7L976.1,230.2L976.8,230.4Z M982.8,223.5L981.0,221.5L979.6,221.8L979.4,226.8L981.2,227.0L983.0,225.8L982.8,223.5Z M977.1,220.7L974.8,219.7L975.7,220.6L977.1,220.7Z M858.4,189.6L855.8,190.1L863.1,196.1L862.5,197.7L859.5,196.6L858.3,197.6L862.7,202.0L866.1,207.5L870.7,211.7L870.5,212.5L875.1,214.8L879.8,220.0L881.7,223.1L886.0,227.3L892.8,237.7L893.0,238.7L898.1,243.4L900.8,246.6L905.9,255.0L907.4,259.7L913.0,265.4L913.3,263.9L911.8,258.4L919.1,259.8L922.6,263.9L921.8,261.2L918.6,257.9L915.1,256.7L911.9,253.6L906.6,250.2L902.4,244.6L899.0,235.1L902.5,234.1L906.0,235.1L910.5,237.5L914.7,240.5L912.9,238.5L910.0,237.1L907.1,234.9L886.4,216.4L885.0,214.8L878.8,210.3L875.7,206.8L873.4,202.2L870.6,199.7L862.5,193.8L860.9,191.1L858.4,189.6Z " data-id="RU.SL" data-name="Sakhalin" id="RU.SL"/>
utf-8utf-8<path d="M257.4,171.3L257.0,166.5L259.6,165.2L257.8,161.5L258.2,159.7L261.2,160.6L262.1,158.3L260.0,156.9L264.0,152.8L263.1,151.1L260.7,150.4L259.6,146.8L255.8,145.8L252.9,142.2L255.2,139.9L255.6,135.3L255.0,131.6L252.5,129.0L252.8,127.5L251.4,125.4L251.4,125.3L251.1,125.4L247.8,126.9L234.8,126.7L233.2,129.3L230.1,129.0L229.7,130.4L227.2,130.1L225.9,132.3L214.9,131.8L211.3,130.3L211.2,131.6L208.8,131.3L208.7,132.4L205.7,132.1L205.7,134.5L208.4,135.2L210.2,136.7L210.3,137.6L211.5,138.0L217.9,138.0L220.4,139.6L220.7,141.8L219.7,142.4L219.3,144.9L223.6,147.1L225.9,152.8L226.1,153.1L226.2,153.4L227.0,155.0L229.8,157.2L231.0,160.4L233.6,163.3L233.5,165.7L231.7,167.4L236.3,170.6L236.8,171.3L237.0,171.3L237.6,169.7L241.1,171.6L246.9,170.6L248.3,171.6L256.6,173.1L257.3,171.7L257.7,171.6L257.4,171.3Z " data-id="RU.PE" data-name="Perm'" id="RU.PE"/>
utf-8utf-8<path d="M961.5,146.7L957.8,148.2L960.1,150.2L960.2,152.1L961.7,153.1L962.5,149.8L965.0,149.1L961.5,146.7Z M893.6,99.5L898.3,102.0L899.5,103.8L898.3,104.8L901.9,107.9L904.8,109.0L908.0,112.7L906.4,113.4L907.8,114.9L912.5,116.7L917.3,120.3L915.5,120.6L916.2,121.6L922.5,125.5L922.7,125.6L924.1,125.1L925.9,126.2L927.4,125.1L924.6,124.5L922.7,122.2L920.4,120.8L918.3,118.2L925.3,117.0L930.0,119.1L927.5,121.2L932.2,125.3L932.8,127.4L936.1,129.1L937.4,132.3L932.0,135.1L933.4,137.9L932.3,139.4L930.8,148.0L932.2,149.4L932.0,153.4L930.5,155.7L930.9,156.7L926.5,156.7L927.5,158.7L923.7,158.2L923.2,158.9L927.9,162.0L929.3,165.3L927.9,164.7L927.6,167.7L930.6,172.3L937.1,180.0L943.0,185.3L961.4,200.7L973.4,210.4L977.6,214.9L981.4,217.2L983.5,219.1L985.0,214.3L985.9,214.1L986.1,210.3L981.9,203.6L978.0,201.0L980.0,201.3L982.7,199.5L988.7,200.2L981.5,194.4L979.7,192.3L979.2,190.0L980.5,187.5L987.3,187.6L988.1,185.5L983.3,182.6L977.6,177.9L975.5,171.5L980.5,174.0L981.6,171.6L973.5,167.8L967.8,162.3L967.9,159.5L960.4,157.4L961.6,159.2L954.4,155.2L951.9,149.4L953.4,148.9L950.9,146.9L951.6,145.7L948.8,143.9L949.0,142.8L947.1,141.3L946.5,139.2L949.5,139.5L950.8,140.3L952.1,139.0L957.0,141.5L956.8,138.2L958.2,135.8L959.8,135.6L965.7,141.2L966.1,140.7L965.5,136.3L970.4,134.8L978.7,134.9L983.1,136.5L988.0,139.2L992.0,140.1L989.1,136.0L991.7,133.3L991.3,132.4L993.0,130.3L991.4,129.2L994.2,128.8L991.6,127.1L994.5,126.9L996.2,125.1L995.6,124.0L998.1,123.7L992.9,121.7L990.1,120.0L985.4,118.1L983.0,119.4L975.3,118.8L972.9,119.9L965.8,120.1L960.7,117.2L945.6,113.4L945.7,109.9L946.6,108.7L941.8,106.3L940.3,106.3L932.7,103.3L920.3,101.3L917.9,101.3L906.1,98.8L905.8,100.2L894.2,98.2L893.3,99.4L893.6,99.5Z " data-id="RU.KA" data-name="Kamchatka" id="RU.KA"/>
utf-8</g>
</svg>
