<?xml version="1.0" ?>
<!DOCTYPE svg
  PUBLIC '-//W3C//DTD SVG 1.1//EN'
  'http://www.w3.org/Graphics/SVG/1.1/DTD/svg11.dtd'>
<svg enable_background="new 0 0 1000 846" height="846px" pretty_print="True" style="stroke-linejoin: round; stroke:#000; fill: none;" version="1.1" viewBox="0 0 1000 846" width="1000px" xmlns="http://www.w3.org/2000/svg" xmlns:xlink="http://www.w3.org/1999/xlink">
utf-8<defs>
utf-8utf-8<style type="text/css">
<![CDATA[path { fill-rule: evenodd; }]]>utf-8utf-8</style>
utf-8</defs>
utf-8<metadata>
utf-8utf-8<views>
utf-8utf-8utf-8<view h="846.303291915" padding="0" w="1000">
utf-8utf-8utf-8utf-8<proj flip="auto" id="robinson" lon0="45.6177559113"/>
utf-8utf-8utf-8utf-8<bbox h="263.97" w="312.27" x="494.41" y="-538.48"/>
utf-8utf-8utf-8</view>
utf-8utf-8</views>
utf-8</metadata>
utf-8<g class="" id="provinces">
utf-8utf-8<path d="M642.8,674.8L636.9,676.7L528.6,689.5L516.5,688.6L506.1,684.6L492.5,675.8L493.0,682.5L492.9,684.3L491.5,686.8L487.5,689.6L486.4,694.3L488.5,701.1L488.8,703.5L486.4,713.1L484.4,714.6L480.3,716.6L477.1,717.3L474.1,719.8L472.7,724.0L470.3,727.7L465.4,732.6L458.4,741.3L457.3,743.1L456.2,747.9L458.5,757.0L458.0,773.8L459.2,777.1L459.5,780.0L458.5,785.4L458.6,787.0L461.2,790.0L463.2,791.7L470.8,792.3L470.7,793.4L473.1,794.2L475.9,790.8L479.8,792.1L482.6,788.8L486.4,789.5L490.0,788.6L494.5,788.1L500.6,789.0L505.7,787.4L530.0,787.6L532.7,788.2L540.6,793.0L542.8,793.8L584.8,798.5L602.7,795.8L604.5,796.9L616.0,812.9L616.6,813.3L623.4,813.6L625.0,813.4L636.9,805.6L636.9,805.6L636.9,805.5L642.8,674.8Z " data-id="SA.NJ" data-name="Najran" id="SA.NJ"/>
utf-8utf-8<path d="M647.8,569.2L652.0,453.7L651.3,441.7L650.0,435.2L648.6,431.3L646.3,426.6L641.9,420.7L629.2,408.2L611.8,395.7L609.8,392.8L609.1,390.4L601.4,318.4L597.9,312.6L582.6,306.4L579.2,302.8L570.8,295.0L567.6,293.9L560.8,295.2L556.5,294.1L544.3,285.6L537.0,282.7L529.4,282.4L524.2,280.1L519.4,275.8L516.2,272.1L513.1,270.5L507.5,269.5L493.7,261.7L490.6,257.7L488.9,253.1L485.1,248.8L480.9,245.8L480.4,245.5L478.8,248.3L475.7,249.4L472.6,247.0L471.7,246.2L469.1,247.2L466.1,250.8L464.6,254.6L465.1,261.5L465.5,262.2L468.6,263.5L473.8,267.7L476.4,272.2L476.3,275.7L473.9,277.9L471.8,278.7L467.8,282.2L466.3,284.2L463.4,289.3L459.4,291.1L457.7,293.0L458.5,299.0L458.2,306.0L465.3,315.6L474.5,329.7L474.6,335.0L477.5,340.9L478.2,349.6L477.7,350.4L471.7,350.5L460.8,351.4L450.9,350.0L446.7,350.6L442.9,354.7L439.8,360.8L431.6,367.3L416.6,371.2L410.5,377.3L406.5,383.5L405.9,386.3L408.6,392.0L407.2,396.7L406.2,397.7L403.3,398.5L397.4,397.3L388.7,398.4L380.2,397.5L374.8,395.8L369.7,393.2L366.6,393.7L362.2,400.3L361.4,402.3L361.6,404.2L361.2,406.6L357.9,413.4L358.8,416.4L358.4,423.8L358.5,432.9L359.1,437.9L358.9,443.0L359.8,447.4L365.7,453.3L368.8,461.8L372.6,473.5L379.6,488.8L384.9,492.6L386.6,492.9L393.8,492.8L403.9,493.7L408.4,495.2L410.5,497.5L410.1,501.9L410.2,507.4L410.8,510.0L411.9,512.0L418.2,514.4L423.6,512.8L434.0,515.7L433.2,523.6L433.4,525.8L436.9,543.7L435.8,549.2L434.5,551.1L433.7,554.3L434.9,563.3L433.4,573.4L434.5,577.8L447.9,597.3L455.1,603.9L462.5,613.7L466.7,618.3L467.7,620.8L467.3,625.0L464.1,631.7L462.9,640.9L464.2,645.2L467.1,648.7L472.2,656.8L491.7,675.2L492.5,675.8L506.1,684.6L516.5,688.6L528.6,689.5L636.9,676.7L642.8,674.8L647.8,569.2Z " data-id="SA.RI" data-name="Ar Riyad" id="SA.RI"/>
utf-8utf-8<path d="M691.1,255.2L686.9,255.7L686.2,257.1L691.4,258.1L691.9,257.6L697.0,257.1L691.1,255.2Z M536.9,162.8L536.4,163.5L515.8,171.9L509.8,175.5L505.8,179.8L502.7,183.9L500.5,188.1L487.8,219.6L485.9,223.0L479.3,232.6L477.6,237.4L477.5,240.9L479.7,244.8L480.4,245.5L480.9,245.8L485.1,248.8L488.9,253.1L490.6,257.7L493.7,261.7L507.5,269.5L513.1,270.5L516.2,272.1L519.4,275.8L524.2,280.1L529.4,282.4L537.0,282.7L544.3,285.6L556.5,294.1L560.8,295.2L567.6,293.9L570.8,295.0L579.2,302.8L582.6,306.4L597.9,312.6L601.4,318.4L609.1,390.4L609.8,392.8L611.8,395.7L629.2,408.2L641.9,420.7L646.3,426.6L648.6,431.3L650.0,435.2L651.3,441.7L652.0,453.7L647.8,569.2L642.8,674.8L636.9,805.5L636.9,805.6L638.2,803.5L642.5,787.4L643.1,785.7L667.4,748.9L668.4,748.1L706.6,725.8L710.8,724.1L842.2,703.5L977.7,649.9L986.6,606.4L993.6,572.3L999.4,543.6L998.7,541.2L975.1,504.7L972.4,509.0L945.7,505.5L853.5,492.5L848.5,487.8L802.3,431.0L801.5,429.7L800.3,421.4L798.2,420.8L792.7,417.8L789.7,419.2L786.5,418.0L787.6,412.9L788.6,411.1L791.1,409.0L792.6,406.2L795.4,403.8L790.4,401.3L790.5,402.5L788.0,406.6L786.7,407.4L784.6,401.6L782.3,402.0L779.2,404.2L776.9,405.1L769.1,403.6L766.6,401.0L762.7,395.1L759.3,393.2L758.9,389.9L756.0,386.1L754.8,382.6L750.3,379.2L748.7,375.1L748.8,372.9L744.7,360.4L743.6,358.0L740.6,356.6L738.2,354.5L737.7,355.6L731.7,348.5L729.6,344.6L732.0,345.0L727.5,339.5L724.3,332.4L725.1,331.4L724.1,329.1L722.0,328.0L718.4,327.7L718.2,324.1L718.9,323.7L717.8,319.6L718.7,317.2L721.3,319.2L721.5,320.7L725.2,325.9L725.5,320.2L725.0,318.9L727.6,316.3L727.0,310.4L723.9,304.9L719.8,303.4L717.5,301.2L715.6,296.3L715.5,293.0L714.2,291.1L714.2,288.9L719.2,290.8L722.7,293.5L721.5,291.2L717.9,288.7L712.8,282.6L711.3,281.7L708.1,281.5L700.0,276.7L693.1,268.8L692.1,266.6L689.1,265.6L690.5,267.0L686.2,265.2L685.1,267.0L684.4,262.9L683.7,262.3L681.7,263.9L680.5,262.1L679.6,255.6L675.5,256.3L675.3,251.9L671.6,251.0L671.8,249.5L678.9,250.0L675.8,245.5L671.8,244.3L671.0,244.8L666.9,244.2L662.1,240.8L657.8,241.2L655.7,236.1L654.7,237.2L654.2,234.2L653.0,234.1L654.1,229.6L653.8,233.5L655.6,230.2L655.5,235.0L656.1,234.5L656.9,229.7L650.2,223.2L649.7,221.4L651.5,219.9L645.8,218.4L642.0,212.5L642.4,208.8L637.4,203.3L635.9,196.4L633.1,192.6L623.8,191.5L597.0,191.8L596.4,190.4L592.4,186.6L590.1,179.1L586.7,172.0L583.4,167.1L562.3,164.3L541.6,161.7L537.7,162.6L536.9,162.8Z " data-id="SA.SH" data-name="Ash Sharqiyah" id="SA.SH"/>
utf-8utf-8<path d="M245.8,290.1L242.7,288.6L223.9,291.7L215.2,290.8L209.3,286.4L201.6,283.3L200.5,282.3L197.8,278.1L195.7,283.0L185.7,280.8L181.8,284.3L178.3,285.2L176.4,279.2L172.2,275.5L168.6,271.2L163.9,271.0L159.4,269.0L156.5,264.9L154.4,260.8L152.7,255.9L148.5,253.0L140.3,257.8L137.3,258.3L135.3,258.0L127.7,253.9L124.0,254.0L112.7,259.8L107.6,261.2L105.7,263.4L107.8,264.9L110.7,264.3L115.5,267.7L116.5,271.0L116.8,275.3L116.5,282.6L116.7,284.9L119.5,290.6L122.8,292.8L128.2,294.4L130.7,297.3L130.4,300.5L128.0,305.4L127.3,307.6L127.8,312.0L130.9,317.7L133.2,323.6L137.4,321.8L146.0,326.7L147.2,327.8L148.2,330.8L150.2,334.0L156.6,339.3L159.0,342.9L164.6,355.1L167.5,355.2L170.4,358.5L169.6,370.7L171.5,388.3L169.2,392.4L166.9,393.2L160.6,392.8L151.6,399.2L147.9,399.2L144.2,406.2L148.0,411.5L146.4,413.6L147.0,415.5L148.7,416.9L151.7,420.8L152.7,420.4L156.6,421.9L156.4,420.1L158.7,419.5L162.7,422.2L163.2,423.3L167.9,427.1L170.2,424.4L171.5,424.1L171.2,427.7L176.6,431.5L177.7,431.2L185.1,437.7L186.8,438.1L193.8,445.1L195.6,445.8L198.8,454.2L201.1,457.1L201.3,459.7L204.0,458.3L205.5,461.6L206.3,465.2L206.5,466.3L213.6,465.7L216.8,464.8L219.5,465.1L231.1,478.1L235.0,480.2L243.0,479.1L243.9,479.6L246.7,485.1L250.2,484.4L259.9,481.1L264.1,480.6L267.0,481.7L268.4,486.3L266.0,498.4L266.7,499.3L274.8,504.1L275.4,505.1L275.5,514.0L276.1,514.9L280.3,516.1L284.7,514.9L289.2,510.7L293.5,509.2L300.8,511.6L304.1,509.6L307.0,504.1L308.7,501.8L321.2,490.7L329.7,481.6L334.9,479.5L336.7,477.8L337.1,476.3L335.9,474.3L330.7,471.4L328.4,468.5L328.8,467.2L332.0,464.0L337.8,460.3L345.7,456.5L348.9,452.4L349.6,449.6L349.1,445.0L347.6,441.5L348.2,438.3L352.9,436.9L359.1,437.9L358.5,432.9L358.4,423.8L358.8,416.4L357.9,413.4L361.2,406.6L361.6,404.2L361.4,402.3L357.2,399.2L354.6,395.2L351.4,385.1L350.5,383.0L339.8,377.5L338.0,373.6L337.8,359.7L336.2,356.1L335.3,355.4L327.0,353.1L325.9,352.7L321.8,351.5L308.8,349.4L300.8,349.7L296.9,351.5L292.0,357.8L288.0,359.8L280.5,359.8L278.2,360.3L267.1,364.5L262.9,364.3L259.0,358.8L258.3,344.6L254.7,330.3L255.8,312.3L254.0,309.2L250.7,309.6L247.7,308.3L247.1,307.1L249.1,298.4L248.5,294.8L247.5,292.5L245.8,290.1Z " data-id="SA.MD" data-name="Al Madinah" id="SA.MD"/>
utf-8utf-8<path d="M463.7,264.0L460.7,269.1L458.5,270.4L446.3,267.8L439.9,262.8L433.3,257.0L429.1,256.8L426.9,257.8L410.5,267.1L407.3,269.4L403.8,273.8L400.9,280.5L399.4,281.7L389.4,286.4L384.2,290.1L373.1,300.4L368.3,306.9L365.8,313.2L358.7,314.8L356.9,323.4L358.1,327.8L357.7,330.9L354.6,330.9L350.9,329.4L348.1,329.8L346.5,332.3L347.0,335.9L349.5,340.1L349.9,342.5L340.6,345.3L333.6,349.5L327.5,351.0L325.9,352.7L327.0,353.1L335.3,355.4L336.2,356.1L337.8,359.7L338.0,373.6L339.8,377.5L350.5,383.0L351.4,385.1L354.6,395.2L357.2,399.2L361.4,402.3L362.2,400.3L366.6,393.7L369.7,393.2L374.8,395.8L380.2,397.5L388.7,398.4L397.4,397.3L403.3,398.5L406.2,397.7L407.2,396.7L408.6,392.0L405.9,386.3L406.5,383.5L410.5,377.3L416.6,371.2L431.6,367.3L439.8,360.8L442.9,354.7L446.7,350.6L450.9,350.0L460.8,351.4L471.7,350.5L477.7,350.4L478.2,349.6L477.5,340.9L474.6,335.0L474.5,329.7L465.3,315.6L458.2,306.0L458.5,299.0L457.7,293.0L459.4,291.1L463.4,289.3L466.3,284.2L467.8,282.2L471.8,278.7L473.9,277.9L476.3,275.7L476.4,272.2L473.8,267.7L468.6,263.5L465.5,262.2L463.7,264.0Z " data-id="SA.QS" data-name="Al Quassim" id="SA.QS"/>
utf-8utf-8<path d="M470.9,244.6L469.5,243.2L461.2,236.0L456.3,233.4L441.9,231.2L436.4,227.9L434.6,225.6L429.6,215.0L420.4,200.6L417.1,198.2L415.5,198.3L407.6,203.4L403.6,202.8L398.4,200.1L395.5,199.6L391.0,200.1L386.8,198.5L385.7,197.3L384.1,193.8L383.5,189.8L381.9,188.3L377.8,189.2L374.3,191.3L370.2,192.3L368.6,192.0L363.1,189.0L356.8,182.1L352.4,179.7L336.4,175.9L330.3,176.1L325.0,177.6L321.0,177.5L309.5,173.8L302.9,173.9L279.2,179.7L275.4,178.9L270.0,176.7L267.0,176.0L266.0,176.1L249.5,183.4L233.5,193.4L225.8,195.7L209.3,204.2L207.3,205.8L202.8,211.4L203.7,212.6L205.7,213.5L220.7,217.1L225.1,219.1L227.6,221.6L232.0,224.0L237.8,228.6L242.0,233.7L248.9,254.7L251.1,257.5L258.8,261.9L261.3,265.2L259.6,269.5L254.4,274.6L252.6,277.5L251.5,280.5L249.6,289.1L248.2,292.0L247.5,292.5L248.5,294.8L249.1,298.4L247.1,307.1L247.7,308.3L250.7,309.6L254.0,309.2L255.8,312.3L254.7,330.3L258.3,344.6L259.0,358.8L262.9,364.3L267.1,364.5L278.2,360.3L280.5,359.8L288.0,359.8L292.0,357.8L296.9,351.5L300.8,349.7L308.8,349.4L321.8,351.5L325.9,352.7L327.5,351.0L333.6,349.5L340.6,345.3L349.9,342.5L349.5,340.1L347.0,335.9L346.5,332.3L348.1,329.8L350.9,329.4L354.6,330.9L357.7,330.9L358.1,327.8L356.9,323.4L358.7,314.8L365.8,313.2L368.3,306.9L373.1,300.4L384.2,290.1L389.4,286.4L399.4,281.7L400.9,280.5L403.8,273.8L407.3,269.4L410.5,267.1L426.9,257.8L429.1,256.8L433.3,257.0L439.9,262.8L446.3,267.8L458.5,270.4L460.7,269.1L463.7,264.0L465.5,262.2L465.1,261.5L464.6,254.6L466.1,250.8L469.1,247.2L471.7,246.2L470.9,244.6Z " data-id="SA.HA" data-name="Ha'il" id="SA.HA"/>
utf-8utf-8<path d="M123.0,356.3L120.6,357.4L124.8,360.1L124.1,357.2L123.0,356.3Z M115.0,356.8L113.7,357.2L116.0,359.7L119.5,361.6L120.6,359.0L119.0,360.3L115.0,356.8Z M116.2,352.7L116.0,351.0L114.8,352.1L116.2,352.7Z M110.1,351.1L109.8,351.7L115.5,356.4L115.6,355.2L110.1,351.1Z M119.3,350.1L117.9,349.5L118.2,352.0L119.3,350.1Z M102.7,348.0L101.1,343.8L99.3,345.9L99.3,348.0L101.4,349.9L102.7,349.4L107.5,352.0L107.3,350.3L102.7,348.0Z M103.2,343.1L100.7,338.4L101.5,342.8L103.2,343.1Z M9.5,173.5L9.4,176.7L7.5,184.8L9.3,192.2L6.9,198.4L4.3,208.4L4.2,211.3L0.6,214.4L2.2,215.3L3.8,218.7L4.1,215.5L6.7,212.9L9.1,215.1L17.0,216.2L17.7,215.3L22.5,214.0L24.7,215.6L30.4,218.4L28.1,219.9L28.9,220.3L36.0,227.1L37.3,230.4L39.7,232.4L42.2,237.1L45.6,241.9L45.8,243.8L48.7,249.6L51.6,253.2L55.7,256.7L59.9,261.5L61.4,264.3L62.7,269.1L66.8,274.1L72.7,279.1L73.9,282.4L75.4,285.0L83.0,294.2L87.1,301.0L91.2,309.8L94.6,314.5L98.1,321.8L105.7,325.4L106.9,326.6L107.6,330.8L105.9,334.3L106.0,335.6L109.3,341.0L113.0,342.5L113.5,340.8L119.8,347.4L121.2,350.6L126.0,357.1L127.9,363.0L129.4,365.4L134.8,371.1L136.2,374.3L136.3,378.7L137.9,383.4L137.1,385.7L136.7,389.3L132.3,389.5L133.9,392.3L135.7,392.1L136.2,394.1L141.0,401.7L144.2,406.2L147.9,399.2L151.6,399.2L160.6,392.8L166.9,393.2L169.2,392.4L171.5,388.3L169.6,370.7L170.4,358.5L167.5,355.2L164.6,355.1L159.0,342.9L156.6,339.3L150.2,334.0L148.2,330.8L147.2,327.8L146.0,326.7L137.4,321.8L133.2,323.6L130.9,317.7L127.8,312.0L127.3,307.6L128.0,305.4L130.4,300.5L130.7,297.3L128.2,294.4L122.8,292.8L119.5,290.6L116.7,284.9L116.5,282.6L116.8,275.3L116.5,271.0L115.5,267.7L110.7,264.3L107.8,264.9L105.7,263.4L107.6,261.2L112.7,259.8L124.0,254.0L127.7,253.9L135.3,258.0L137.3,258.3L140.3,257.8L148.5,253.0L152.7,255.9L154.4,260.8L156.5,264.9L159.4,269.0L163.9,271.0L168.6,271.2L172.2,275.5L176.4,279.2L178.3,285.2L181.8,284.3L185.7,280.8L195.7,283.0L197.8,278.1L200.5,282.3L201.6,283.3L209.3,286.4L215.2,290.8L223.9,291.7L242.7,288.6L245.8,290.1L247.5,292.5L248.2,292.0L249.6,289.1L251.5,280.5L252.6,277.5L254.4,274.6L259.6,269.5L261.3,265.2L258.8,261.9L251.1,257.5L248.9,254.7L242.0,233.7L237.8,228.6L232.0,224.0L227.6,221.6L225.1,219.1L220.7,217.1L205.7,213.5L203.7,212.6L202.8,211.4L200.9,209.9L198.2,209.3L188.6,213.1L185.7,211.4L184.1,208.2L180.2,207.8L177.5,206.6L173.4,208.1L171.8,208.2L162.6,207.2L159.7,206.6L154.5,204.8L149.0,201.0L145.8,195.9L143.9,185.8L143.5,177.2L141.6,174.2L140.6,173.9L134.2,179.1L132.4,182.2L131.0,187.1L128.8,189.7L127.6,190.0L119.7,189.5L115.8,188.7L108.7,186.3L102.4,185.9L91.7,188.3L85.0,190.3L82.4,189.2L69.2,173.3L64.3,169.9L55.1,167.7L52.1,167.7L48.6,168.4L42.6,168.8L33.4,170.6L26.7,174.3L20.2,173.6L9.4,173.0L9.5,173.5Z " data-id="SA.TB" data-name="Tabuk" id="SA.TB"/>
utf-8utf-8<path d="M136.8,19.7L133.7,40.0L133.7,41.8L135.0,47.6L136.2,49.4L140.4,52.2L143.7,55.7L149.0,63.6L152.2,65.5L156.5,66.1L176.4,64.1L190.2,62.0L196.2,62.1L227.4,66.9L231.3,68.7L234.9,71.8L242.1,74.0L267.0,74.6L274.1,74.2L277.5,75.3L287.4,82.7L292.8,84.2L296.5,84.2L303.3,85.5L305.1,86.6L308.1,89.9L310.8,94.7L315.7,100.5L323.2,105.8L324.4,108.9L323.8,110.0L318.6,115.2L283.2,139.5L276.9,145.6L276.1,149.0L276.8,166.8L275.7,170.1L270.0,176.7L275.4,178.9L279.2,179.7L302.9,173.9L309.5,173.8L321.0,177.5L325.0,177.6L330.3,176.1L336.4,175.9L352.4,179.7L356.8,182.1L363.1,189.0L368.6,192.0L370.2,192.3L374.3,191.3L377.8,189.2L381.9,188.3L383.5,189.8L384.1,193.8L385.7,197.3L386.8,198.5L391.0,200.1L395.5,199.6L398.4,200.1L403.6,202.8L407.6,203.4L415.5,198.3L417.1,198.2L420.4,200.6L429.6,215.0L434.6,225.6L436.4,227.9L441.9,231.2L456.3,233.4L461.2,236.0L469.5,243.2L470.9,244.6L471.7,246.2L472.6,247.0L475.7,249.4L478.8,248.3L480.4,245.5L479.7,244.8L477.5,240.9L477.6,237.4L479.3,232.6L485.9,223.0L487.8,219.6L500.5,188.1L502.7,183.9L505.8,179.8L509.8,175.5L515.8,171.9L536.4,163.5L536.9,162.8L535.7,163.0L533.8,163.5L458.2,156.5L453.1,153.1L370.7,90.9L361.7,83.9L326.2,55.6L246.0,10.7L243.4,9.8L224.0,6.2L187.5,0.0L185.8,1.0L181.0,6.1L145.1,17.2L136.8,19.7Z " data-id="SA.HS" data-name="Al Hudud ash Shamaliyah" id="SA.HS"/>
utf-8utf-8<path d="M275.7,170.1L276.8,166.8L276.1,149.0L276.9,145.6L283.2,139.5L318.6,115.2L323.8,110.0L324.4,108.9L323.2,105.8L315.7,100.5L310.8,94.7L308.1,89.9L305.1,86.6L303.3,85.5L296.5,84.2L292.8,84.2L287.4,82.7L277.5,75.3L274.1,74.2L267.0,74.6L242.1,74.0L234.9,71.8L231.3,68.7L227.4,66.9L196.2,62.1L190.2,62.0L176.4,64.1L156.5,66.1L152.2,65.5L149.0,63.6L143.7,55.7L140.4,52.2L136.2,49.4L135.0,47.6L133.7,41.8L133.7,40.0L136.8,19.7L135.3,20.1L91.9,33.7L118.3,59.5L143.9,86.6L130.7,94.7L129.7,95.6L124.4,112.7L123.5,113.6L95.6,119.7L90.5,121.2L89.6,122.3L80.9,140.4L63.8,156.1L61.5,156.7L12.0,148.0L12.5,150.5L11.7,150.6L12.2,153.4L10.8,154.5L9.9,162.3L9.2,165.2L9.8,166.5L9.3,172.7L9.4,173.0L20.2,173.6L26.7,174.3L33.4,170.6L42.6,168.8L48.6,168.4L52.1,167.7L55.1,167.7L64.3,169.9L69.2,173.3L82.4,189.2L85.0,190.3L91.7,188.3L102.4,185.9L108.7,186.3L115.8,188.7L119.7,189.5L127.6,190.0L128.8,189.7L131.0,187.1L132.4,182.2L134.2,179.1L140.6,173.9L141.6,174.2L143.5,177.2L143.9,185.8L145.8,195.9L149.0,201.0L154.5,204.8L159.7,206.6L162.6,207.2L171.8,208.2L173.4,208.1L177.5,206.6L180.2,207.8L184.1,208.2L185.7,211.4L188.6,213.1L198.2,209.3L200.9,209.9L202.8,211.4L207.3,205.8L209.3,204.2L225.8,195.7L233.5,193.4L249.5,183.4L266.0,176.1L267.0,176.0L270.0,176.7L275.7,170.1Z " data-id="SA.JF" data-name="Al Jawf" id="SA.JF"/>
utf-8utf-8<path d="M370.3,613.7L367.2,613.5L361.1,616.9L356.1,616.9L349.8,619.0L348.2,618.7L346.2,616.1L344.5,611.7L341.2,609.0L340.0,608.8L336.4,611.0L336.2,617.7L337.2,620.9L337.2,624.5L334.3,630.9L332.7,635.5L329.6,637.4L325.1,638.2L321.5,640.2L317.6,646.2L319.7,648.5L323.2,649.6L325.5,654.4L325.3,659.9L326.7,665.6L327.6,673.3L332.7,676.6L337.0,682.0L340.5,683.7L345.3,681.9L346.9,674.1L349.4,665.6L350.5,663.2L359.1,661.2L360.3,660.5L364.3,649.5L364.9,643.0L366.7,639.1L372.0,634.9L373.9,632.2L372.0,627.4L371.4,624.4L373.1,616.2L370.3,613.7Z " data-id="SA.BA" data-name="Al Bahah" id="SA.BA"/>
utf-8utf-8<path d="M491.7,675.2L472.2,656.8L467.1,648.7L464.2,645.2L462.9,640.9L464.1,631.7L467.3,625.0L467.7,620.8L466.7,618.3L462.5,613.7L455.1,603.9L447.9,597.3L443.1,599.4L436.1,604.1L433.2,604.8L430.1,603.6L425.6,603.5L421.4,605.3L415.2,606.2L410.0,610.8L401.1,616.2L390.0,627.8L384.6,631.1L383.3,631.2L379.5,628.3L374.0,617.7L373.1,616.2L371.4,624.4L372.0,627.4L373.9,632.2L372.0,634.9L366.7,639.1L364.9,643.0L364.3,649.5L360.3,660.5L362.4,659.6L364.3,659.5L367.9,662.4L368.4,665.7L367.4,672.7L367.9,676.5L370.1,680.1L370.6,682.7L369.3,688.2L365.3,691.5L360.1,690.8L357.1,691.5L352.0,695.2L348.2,694.1L348.5,707.6L350.3,713.1L351.1,714.0L362.2,715.3L365.5,718.2L369.4,728.8L369.8,733.3L368.5,740.1L373.8,739.6L375.6,740.2L376.5,743.1L375.9,749.5L376.6,753.5L383.6,754.5L384.9,755.2L387.2,759.7L390.4,761.9L397.7,762.0L400.2,763.1L403.8,768.9L409.6,774.7L412.5,774.8L415.1,764.1L417.3,760.0L419.2,758.4L423.5,757.3L425.6,764.0L429.4,767.3L431.4,769.7L433.1,773.1L434.8,774.8L438.5,776.2L444.6,784.7L446.8,783.1L455.6,784.7L457.7,786.0L458.6,787.0L458.5,785.4L459.5,780.0L459.2,777.1L458.0,773.8L458.5,757.0L456.2,747.9L457.3,743.1L458.4,741.3L465.4,732.6L470.3,727.7L472.7,724.0L474.1,719.8L477.1,717.3L480.3,716.6L484.4,714.6L486.4,713.1L488.8,703.5L488.5,701.1L486.4,694.3L487.5,689.6L491.5,686.8L492.9,684.3L493.0,682.5L492.5,675.8L491.7,675.2Z " data-id="SA.AS" data-name="`Asir" id="SA.AS"/>
utf-8utf-8<path d="M379.4,823.9L375.8,818.1L372.3,817.1L373.7,820.3L379.3,826.1L383.3,828.6L388.3,827.0L389.6,827.7L387.9,830.1L390.6,831.1L392.0,832.8L393.4,831.7L393.0,826.4L391.2,825.5L388.9,821.7L382.0,824.9L379.4,823.9Z M381.0,813.7L379.7,811.0L376.4,810.0L376.2,810.7L379.8,811.7L380.2,813.0L379.0,814.9L376.4,817.0L380.2,821.8L384.2,823.4L383.8,821.5L381.1,820.1L380.7,819.2L383.2,818.4L381.1,816.8L381.0,813.7Z M444.6,784.7L438.5,776.2L434.8,774.8L433.1,773.1L431.4,769.7L429.4,767.3L425.6,764.0L423.5,757.3L419.2,758.4L417.3,760.0L415.1,764.1L412.5,774.8L409.6,774.7L403.8,768.9L400.2,763.1L397.7,762.0L390.4,761.9L387.2,759.7L384.9,755.2L383.6,754.5L376.6,753.5L375.9,749.5L376.5,743.1L375.6,740.2L373.8,739.6L368.5,740.1L367.8,742.2L366.5,744.0L363.7,745.7L361.1,750.4L361.3,750.8L365.3,759.0L367.4,761.8L370.3,764.4L370.9,765.9L373.7,767.0L374.7,766.6L377.7,769.4L381.2,772.1L384.3,775.7L385.4,775.4L394.4,785.2L396.1,786.2L396.9,789.1L397.5,794.0L400.3,809.2L400.7,808.2L400.1,804.7L401.0,804.1L399.5,800.8L401.7,801.8L404.2,807.9L407.3,808.6L409.1,811.2L409.1,817.1L411.3,819.3L413.7,820.5L417.6,825.0L417.1,825.4L419.0,829.2L418.6,831.5L419.5,836.1L421.9,838.9L422.2,844.2L424.4,843.4L427.6,840.9L427.4,838.5L433.3,835.4L434.8,831.0L435.2,828.1L439.6,828.6L438.9,824.7L439.8,820.5L438.1,819.9L436.5,802.7L436.8,799.3L441.0,797.0L439.6,794.0L436.8,793.1L439.0,789.8L442.9,785.9L444.6,784.7Z " data-id="SA.JZ" data-name="Jizan" id="SA.JZ"/>
utf-8utf-8<path d="M352.9,436.9L348.2,438.3L347.6,441.5L349.1,445.0L349.6,449.6L348.9,452.4L345.7,456.5L337.8,460.3L332.0,464.0L328.8,467.2L328.4,468.5L330.7,471.4L335.9,474.3L337.1,476.3L336.7,477.8L334.9,479.5L329.7,481.6L321.2,490.7L308.7,501.8L307.0,504.1L304.1,509.6L300.8,511.6L293.5,509.2L289.2,510.7L284.7,514.9L280.3,516.1L276.1,514.9L275.5,514.0L275.4,505.1L274.8,504.1L266.7,499.3L266.0,498.4L268.4,486.3L267.0,481.7L264.1,480.6L259.9,481.1L250.2,484.4L246.7,485.1L243.9,479.6L243.0,479.1L235.0,480.2L231.1,478.1L219.5,465.1L216.8,464.8L213.6,465.7L206.5,466.3L206.7,467.3L208.6,472.5L215.2,483.8L214.5,486.0L215.9,489.7L221.8,493.5L222.7,495.1L220.9,496.2L219.1,492.6L220.5,497.2L223.9,501.5L223.4,498.7L225.9,501.7L224.8,502.9L229.7,513.1L229.6,516.1L230.1,519.0L229.7,521.3L231.2,522.0L233.1,520.8L230.6,525.6L230.3,527.9L228.6,531.2L229.4,534.3L228.1,540.1L227.1,542.3L225.8,540.6L225.7,546.6L227.2,549.8L229.8,553.1L230.7,555.4L232.4,557.1L233.2,555.3L232.9,560.4L233.4,565.1L237.6,572.7L237.2,575.7L233.7,579.2L239.3,590.8L241.3,592.3L243.5,597.7L245.0,599.9L247.6,600.3L247.1,602.1L251.4,606.4L253.0,608.9L255.3,609.6L254.8,611.8L259.9,618.1L259.7,620.1L262.7,624.9L267.5,629.2L268.3,630.9L277.3,635.6L275.1,633.1L279.4,635.4L283.6,634.7L286.9,638.0L290.3,639.5L292.7,642.9L305.0,651.1L305.7,654.8L307.2,655.8L311.3,661.2L315.0,661.0L316.0,661.6L319.0,668.9L318.9,671.0L322.1,674.6L326.2,676.2L327.0,678.8L326.1,680.2L327.2,684.9L330.3,688.6L331.7,692.9L334.0,697.2L337.9,698.9L336.9,705.6L338.8,710.2L342.0,711.4L341.2,719.5L344.1,724.7L351.2,729.8L352.5,732.0L352.8,734.9L354.7,741.9L356.3,742.3L359.0,747.6L360.4,749.7L361.1,750.4L363.7,745.7L366.5,744.0L367.8,742.2L368.5,740.1L369.8,733.3L369.4,728.8L365.5,718.2L362.2,715.3L351.1,714.0L350.3,713.1L348.5,707.6L348.2,694.1L352.0,695.2L357.1,691.5L360.1,690.8L365.3,691.5L369.3,688.2L370.6,682.7L370.1,680.1L367.9,676.5L367.4,672.7L368.4,665.7L367.9,662.4L364.3,659.5L362.4,659.6L360.3,660.5L359.1,661.2L350.5,663.2L349.4,665.6L346.9,674.1L345.3,681.9L340.5,683.7L337.0,682.0L332.7,676.6L327.6,673.3L326.7,665.6L325.3,659.9L325.5,654.4L323.2,649.6L319.7,648.5L317.6,646.2L321.5,640.2L325.1,638.2L329.6,637.4L332.7,635.5L334.3,630.9L337.2,624.5L337.2,620.9L336.2,617.7L336.4,611.0L340.0,608.8L341.2,609.0L344.5,611.7L346.2,616.1L348.2,618.7L349.8,619.0L356.1,616.9L361.1,616.9L367.2,613.5L370.3,613.7L373.1,616.2L374.0,617.7L379.5,628.3L383.3,631.2L384.6,631.1L390.0,627.8L401.1,616.2L410.0,610.8L415.2,606.2L421.4,605.3L425.6,603.5L430.1,603.6L433.2,604.8L436.1,604.1L443.1,599.4L447.9,597.3L434.5,577.8L433.4,573.4L434.9,563.3L433.7,554.3L434.5,551.1L435.8,549.2L436.9,543.7L433.4,525.8L433.2,523.6L434.0,515.7L423.6,512.8L418.2,514.4L411.9,512.0L410.8,510.0L410.2,507.4L410.1,501.9L410.5,497.5L408.4,495.2L403.9,493.7L393.8,492.8L386.6,492.9L384.9,492.6L379.6,488.8L372.6,473.5L368.8,461.8L365.7,453.3L359.8,447.4L358.9,443.0L359.1,437.9L352.9,436.9Z " data-id="SA.MK" data-name="Makkah" id="SA.MK"/>
utf-8</g>
</svg>
