<?xml version="1.0" ?>
<!DOCTYPE svg
  PUBLIC '-//W3C//DTD SVG 1.1//EN'
  'http://www.w3.org/Graphics/SVG/1.1/DTD/svg11.dtd'>
<svg enable_background="new 0 0 1000 646" height="646px" pretty_print="True" style="stroke-linejoin: round; stroke:#000; fill: none;" version="1.1" viewBox="0 0 1000 646" width="1000px" xmlns="http://www.w3.org/2000/svg" xmlns:xlink="http://www.w3.org/1999/xlink">
utf-8<defs>
utf-8utf-8<style type="text/css">
<![CDATA[path { fill-rule: evenodd; }]]>utf-8utf-8</style>
utf-8</defs>
utf-8<metadata>
utf-8utf-8<views>
utf-8utf-8utf-8<view h="646.932792637" padding="0" w="1000">
utf-8utf-8utf-8utf-8<proj flip="auto" id="robinson" lon0="160.96492213"/>
utf-8utf-8utf-8utf-8<bbox h="87.97" w="136.19" x="2312.1" y="110.67"/>
utf-8utf-8utf-8</view>
utf-8utf-8</views>
utf-8</metadata>
utf-8<g class="" id="provinces">
utf-8utf-8<path d="M563.7,379.5L559.6,380.2L557.9,383.6L558.2,392.2L560.0,398.3L561.4,399.7L562.4,395.6L562.2,385.4L561.7,383.7L563.7,379.5Z M507.9,345.7L507.1,342.5L503.6,340.0L502.4,338.3L500.3,337.4L502.1,341.7L502.3,346.7L504.5,345.8L505.3,352.4L503.2,355.9L501.2,374.9L501.6,377.4L505.9,385.4L507.2,383.3L508.4,379.9L509.6,379.5L511.9,384.5L515.8,390.0L515.9,392.5L519.1,387.1L519.1,384.4L518.1,369.4L517.0,366.6L514.7,362.6L514.2,359.9L512.6,357.1L510.6,350.9L507.9,345.7Z M663.8,219.7L665.4,218.7L664.1,218.1L663.8,219.7Z M453.8,216.2L449.8,211.1L445.2,209.3L442.9,211.5L446.0,214.0L445.5,216.0L442.4,216.6L440.4,214.3L436.6,212.7L432.6,212.1L430.3,214.0L431.1,219.5L432.1,221.3L435.3,225.4L440.7,233.7L442.7,240.2L442.6,241.3L440.5,241.9L435.0,246.4L437.6,255.1L437.1,262.8L437.3,264.5L440.7,274.6L441.9,277.3L443.0,283.4L442.5,288.5L443.6,291.4L444.9,297.4L451.0,313.8L453.1,316.6L458.9,319.7L461.1,322.2L461.1,326.0L465.7,327.6L468.3,331.5L467.5,333.6L472.5,334.4L474.7,337.8L481.6,342.0L486.0,348.0L487.7,356.2L491.2,362.5L491.9,366.5L492.9,366.6L498.0,371.0L501.6,369.9L501.9,367.3L501.7,357.7L500.1,353.5L496.9,349.0L494.6,339.4L489.0,329.6L490.1,329.0L492.1,331.5L493.6,330.6L492.5,329.2L492.3,324.8L491.0,321.7L491.0,320.3L495.6,318.8L495.7,318.0L492.9,317.1L493.4,315.5L491.7,314.0L490.2,314.6L487.4,312.1L490.4,309.7L486.9,305.3L487.0,301.7L485.8,300.3L486.5,298.5L486.1,296.5L482.9,293.7L484.6,291.3L485.9,291.9L484.3,288.9L482.1,286.1L474.5,281.5L475.4,279.2L470.9,275.0L466.6,276.7L465.7,274.3L463.9,272.2L463.6,265.4L465.7,262.1L465.0,257.2L471.9,253.6L473.0,251.0L472.0,246.4L469.8,242.6L465.9,238.4L461.0,231.6L453.8,216.2Z M442.4,163.1L440.3,156.7L439.1,157.0L438.9,160.0L440.7,163.2L442.4,163.1Z " data-id="SB.ML" data-name="Malaita" id="SB.ML"/>
utf-8utf-8<path d="M369.7,644.9L372.5,640.7L373.9,640.1L376.9,640.7L379.7,638.7L378.2,636.0L372.3,631.4L361.8,621.8L357.7,619.6L351.0,616.8L348.3,614.1L344.7,612.0L341.9,609.3L336.3,606.1L331.5,601.8L328.9,601.9L325.7,600.4L323.0,597.6L318.6,602.8L317.7,604.9L319.1,609.1L322.8,614.8L324.7,615.3L329.3,613.7L331.1,615.3L329.9,617.1L332.0,617.9L337.5,621.3L342.0,621.3L344.7,617.9L348.9,618.8L350.0,619.9L349.6,625.4L357.1,629.1L358.7,637.3L362.3,640.3L365.3,639.8L368.2,644.8L369.7,644.9Z M309.1,578.8L306.2,576.9L301.5,575.8L303.0,578.1L309.1,580.8L309.1,578.8Z " data-id="SB.RB" data-name="Rennell and Bellona" id="SB.RB"/>
utf-8utf-8<path d="M339.7,307.8L337.3,308.7L336.3,311.1L336.9,315.5L338.4,316.3L339.9,315.3L339.7,307.8Z M400.7,312.8L402.2,311.3L401.5,310.4L397.6,309.6L396.5,308.7L394.2,302.9L392.4,302.7L391.0,305.2L389.0,311.3L385.8,314.2L380.3,316.3L381.5,316.5L381.5,318.8L383.8,318.6L388.1,317.0L387.8,315.5L390.0,314.7L396.3,318.0L398.8,316.1L400.7,312.8Z M273.5,304.3L275.3,299.5L272.4,301.8L271.3,302.0L269.0,306.5L268.0,312.1L273.1,309.5L274.9,307.5L275.5,304.5L273.5,304.3Z M375.9,294.4L374.1,297.9L373.5,297.0L372.1,298.7L367.2,299.9L369.4,302.5L369.5,305.4L372.8,306.7L378.3,305.1L379.6,306.3L381.0,309.6L381.2,307.1L382.5,307.2L383.9,308.9L383.9,310.3L386.0,311.3L388.0,309.3L389.8,306.1L390.9,302.6L390.5,299.9L386.9,296.2L385.0,295.8L383.0,297.9L381.6,295.4L377.8,295.3L375.9,294.4Z M265.5,293.6L265.0,294.6L261.0,294.4L262.7,297.4L262.7,298.7L260.4,299.5L259.1,298.8L258.0,302.0L254.6,302.1L254.3,303.5L256.6,307.8L257.9,306.9L260.2,309.6L265.5,307.8L267.3,306.1L271.8,297.9L269.6,297.1L267.3,298.7L266.3,297.6L265.5,293.6Z M371.8,291.9L369.9,287.8L366.2,296.7L367.4,297.9L370.0,293.7L371.4,294.4L371.8,291.9Z " data-id="SB.GC" data-name="Central" id="SB.GC"/>
utf-8utf-8<path d="M345.0,347.5L342.4,344.2L340.7,339.3L336.7,335.7L331.5,329.7L328.0,327.0L324.4,325.5L317.1,330.1L313.7,331.4L312.8,333.2L312.0,337.4L310.8,338.7L311.9,345.4L310.8,348.6L312.3,355.1L309.0,358.1L309.1,359.2L312.7,363.5L315.7,371.0L315.4,374.2L317.9,374.9L319.6,379.0L319.7,382.0L324.2,385.1L328.6,390.8L330.6,392.7L336.3,391.3L341.4,394.1L350.7,395.9L351.3,396.4L361.4,396.3L370.7,394.7L382.7,395.3L389.8,400.7L391.1,400.5L393.8,404.4L395.2,404.8L399.7,403.9L402.0,404.4L408.5,408.1L416.1,410.3L420.7,407.2L425.1,405.7L433.4,403.8L436.5,401.7L437.1,398.0L435.5,389.6L434.2,389.0L434.2,384.5L429.9,382.8L425.5,380.3L423.7,380.9L422.1,379.9L422.4,374.8L421.7,370.2L419.3,366.7L415.2,362.9L410.5,360.4L406.4,361.0L404.0,355.7L402.5,353.5L398.3,351.8L396.5,348.3L392.6,345.9L382.8,346.7L381.4,345.9L379.1,347.3L376.3,347.2L373.0,346.1L366.4,348.3L362.0,347.5L359.7,346.4L357.4,346.2L356.6,347.0L358.0,348.1L357.0,351.8L355.3,352.5L354.4,351.4L351.1,351.8L348.2,350.4L346.9,348.3L345.0,347.5Z " data-id="SB.GC" data-name="Guadalcanal" id="SB.GC"/>
utf-8utf-8<path d="M328.7,231.5L327.6,229.7L327.2,227.1L328.1,221.3L327.4,219.4L324.3,218.5L321.2,218.9L319.0,220.0L317.3,222.1L316.2,225.3L316.0,228.6L320.0,233.0L321.6,231.8L325.7,237.2L329.2,238.7L332.8,235.9L328.7,231.5Z M205.3,120.5L200.8,118.4L199.7,118.4L198.8,121.3L194.4,120.0L194.9,122.6L197.0,123.3L198.2,127.6L200.8,127.6L204.5,128.3L203.3,124.2L207.2,127.0L209.2,127.6L210.5,125.9L213.7,130.3L215.4,130.1L215.8,128.7L213.4,125.0L206.4,122.4L205.3,120.5Z M224.0,121.2L223.2,120.5L212.9,116.4L210.8,114.9L209.0,114.6L208.9,120.0L214.2,123.4L221.9,131.4L221.5,136.5L220.6,140.3L222.5,143.6L227.0,146.5L227.8,148.7L229.7,148.2L234.1,152.0L235.2,156.4L236.2,157.9L237.5,156.3L240.3,158.8L239.3,160.6L240.8,161.7L244.0,162.6L245.9,162.0L246.6,164.2L246.7,168.9L252.7,172.2L257.0,175.7L256.9,178.2L260.1,176.4L260.2,178.2L262.8,179.8L263.3,182.4L266.2,182.4L269.0,184.0L271.4,183.1L271.7,186.6L274.8,186.6L284.1,194.9L288.4,196.8L290.9,195.9L291.8,198.6L295.8,199.9L297.5,204.3L299.3,203.6L301.3,204.3L304.7,206.8L306.2,206.2L311.8,210.0L314.4,211.3L318.0,213.9L326.8,216.1L331.4,221.1L334.1,222.3L334.1,225.3L342.2,233.5L343.3,235.7L351.5,241.1L354.0,239.8L353.0,237.8L350.1,235.0L349.4,228.9L345.8,222.8L342.7,224.4L340.4,220.3L341.4,219.5L344.7,220.3L350.8,213.4L350.4,212.2L331.3,194.4L321.9,187.7L317.0,181.8L309.5,176.0L306.9,170.0L305.1,171.4L301.6,168.9L299.4,170.9L295.9,170.5L293.2,166.5L291.2,168.0L285.5,163.1L286.7,161.3L280.4,160.9L277.8,162.2L275.1,159.6L273.5,160.3L272.1,155.9L266.7,152.9L265.1,153.6L263.6,152.4L262.9,150.2L264.3,147.8L262.1,146.4L257.3,141.9L253.6,140.3L250.1,135.8L248.2,134.5L246.8,130.9L242.1,126.3L240.8,122.1L236.6,124.2L232.6,122.2L231.2,120.6L230.6,118.2L227.5,118.5L224.0,121.2Z M193.7,108.5L189.3,107.8L193.7,112.0L196.8,112.9L199.5,116.6L205.4,118.2L205.0,116.7L207.2,114.1L202.9,111.4L200.6,111.2L199.2,112.4L194.2,109.9L193.7,108.5Z M190.8,97.2L188.7,97.7L185.6,100.8L182.2,102.3L184.4,103.2L187.7,107.4L188.9,103.1L190.9,104.8L191.5,100.9L190.5,100.6L190.8,97.2Z " data-id="SB.IS" data-name="Isabel" id="SB.IS"/>
utf-8utf-8<path d="M990.5,498.4L986.9,497.5L983.2,499.3L975.6,498.4L970.7,498.8L967.0,502.2L964.8,505.0L962.9,511.7L960.6,509.4L961.6,505.1L957.9,508.8L955.6,510.4L955.0,517.9L956.1,520.8L959.3,521.0L962.8,517.9L965.1,519.9L964.3,523.3L965.5,524.8L969.4,519.3L974.8,513.4L978.7,512.7L982.5,511.1L985.1,512.3L988.0,512.3L992.9,508.9L997.1,507.1L997.9,504.7L999.2,503.3L999.1,500.3L992.8,500.6L990.5,498.4Z M960.1,469.8L960.6,466.4L959.1,465.9L957.8,468.8L958.2,469.9L960.1,469.8Z " data-id="SB.TE" data-name="Temotu" id="SB.TE"/>
utf-8utf-8<path d="M102.1,259.5L97.9,257.2L95.5,259.9L94.9,259.0L87.5,259.0L87.0,260.9L89.4,263.0L94.9,265.8L99.9,267.4L104.5,270.0L107.5,268.8L107.8,266.2L106.5,263.6L102.1,259.5Z M166.9,274.3L169.3,272.2L171.9,271.5L173.2,268.7L170.4,267.4L171.0,265.7L169.8,258.2L169.0,257.4L167.3,261.5L163.8,264.2L162.0,270.1L165.1,275.0L166.9,274.3Z M149.9,239.2L149.7,236.2L150.7,234.6L150.0,233.7L143.8,237.1L144.2,241.4L143.2,243.0L141.9,241.3L141.3,243.4L140.1,243.3L137.4,241.3L137.3,243.0L135.5,245.5L134.3,249.8L133.7,256.0L137.0,259.9L138.3,262.4L141.2,265.1L143.3,265.9L150.0,265.2L153.2,261.5L158.1,257.1L159.3,254.2L157.1,251.4L160.4,248.1L158.1,248.9L154.7,247.2L158.3,244.1L161.6,243.8L162.5,242.7L162.0,237.3L159.8,236.5L154.8,237.1L151.2,239.9L149.9,239.2Z M80.8,242.1L85.5,229.8L84.6,226.7L83.2,224.4L81.4,222.9L79.4,222.8L75.9,225.2L72.5,228.6L70.0,233.2L65.2,236.3L62.2,239.9L61.7,241.7L64.3,245.1L69.4,248.2L71.8,252.6L72.2,257.7L74.7,258.9L77.1,261.3L82.8,261.5L78.4,258.3L75.0,253.6L76.1,246.4L76.2,243.7L77.7,242.7L79.8,243.2L80.8,242.1Z M59.3,212.7L57.2,210.0L57.0,206.0L56.2,199.7L55.2,197.2L49.8,196.3L48.4,195.0L46.8,195.8L49.2,199.2L50.9,200.1L49.2,201.7L53.5,202.8L55.1,207.0L56.3,211.5L59.2,213.6L59.3,212.7Z M55.4,191.7L55.9,194.1L60.4,198.7L62.2,205.2L65.7,207.6L66.1,204.3L64.7,195.0L62.8,192.7L57.9,192.7L55.4,191.7Z M25.5,178.9L23.2,178.9L22.4,182.7L25.3,185.9L28.1,186.0L26.8,180.7L25.7,181.0L25.5,178.9Z M113.3,195.4L111.0,192.9L110.8,191.4L112.1,189.1L111.5,184.9L112.1,180.3L111.1,175.3L112.1,173.1L109.2,172.8L101.5,167.2L94.6,169.6L92.8,170.9L87.7,176.0L80.6,186.8L79.8,188.5L79.2,193.8L77.0,196.2L76.0,194.1L74.9,195.2L68.0,199.7L67.6,211.1L69.5,210.7L73.0,213.1L74.9,213.6L77.3,212.2L80.8,206.0L82.0,205.6L89.7,206.0L93.0,204.4L95.0,205.2L95.8,203.6L97.9,205.2L103.1,204.3L104.8,206.1L107.8,215.9L110.1,218.6L109.2,222.6L108.4,222.8L107.7,220.4L105.2,219.6L104.0,211.9L103.2,219.5L104.0,225.8L106.7,229.6L111.1,233.4L113.7,234.7L119.5,235.3L122.2,237.1L125.1,241.7L125.3,243.4L127.1,246.1L127.1,248.1L128.7,245.8L128.5,243.8L126.4,240.5L129.3,240.8L135.6,243.8L136.0,237.5L138.5,233.5L136.3,223.2L133.0,217.8L133.4,213.6L132.5,211.8L129.9,209.7L128.8,207.6L128.6,205.0L127.6,202.8L124.7,200.2L121.3,199.6L119.1,200.1L116.0,201.7L113.1,201.7L112.9,200.3L114.0,197.4L113.3,195.4Z M0.0,196.5L1.6,195.6L3.1,193.1L3.7,190.1L3.1,187.5L3.9,184.2L3.2,175.0L2.0,172.2L1.2,168.0L0.0,196.5Z M65.3,185.3L68.0,178.1L68.4,172.2L67.8,166.3L66.1,161.1L62.9,156.7L58.2,153.8L51.7,155.3L48.2,156.8L43.2,163.8L41.1,169.6L42.2,175.5L45.9,182.8L51.0,188.0L58.7,187.5L60.7,190.4L63.2,188.8L65.3,185.3Z M0.0,150.0L0.5,149.7L1.1,147.8L0.0,150.0Z M0.0,139.2L3.6,142.8L4.7,146.1L7.4,149.2L5.8,154.3L6.0,156.3L11.0,157.9L10.4,164.7L12.5,163.8L16.3,164.8L17.1,163.7L15.9,158.0L17.9,154.6L23.0,149.6L27.5,143.4L29.5,139.5L28.9,137.7L22.3,134.2L19.8,135.3L18.4,133.5L19.3,132.6L16.2,131.0L15.6,128.2L13.0,124.3L11.3,124.1L9.3,119.2L8.2,120.2L4.9,119.2L0.0,122.5L0.0,139.2Z " data-id="SB.WE" data-name="Western" id="SB.WE"/>
utf-8utf-8<path d="M108.5,97.2L104.6,99.8L110.4,100.9L114.6,102.3L112.2,104.8L115.5,104.9L116.9,102.3L119.7,104.8L119.1,103.5L120.1,99.8L118.6,99.8L117.1,97.5L111.2,97.8L108.5,97.2Z M138.1,105.7L136.5,98.5L131.5,96.4L127.6,101.2L126.2,104.3L134.3,107.5L138.8,107.4L138.1,105.7Z M7.7,0.0L5.8,0.4L2.0,3.8L0.8,8.0L1.1,14.7L1.7,16.4L15.1,30.8L22.9,35.1L24.5,36.5L27.7,43.8L29.9,46.0L33.6,52.6L36.6,56.8L37.5,57.4L38.4,61.5L47.4,74.9L54.8,78.5L57.1,82.2L56.0,83.9L60.8,82.2L62.0,82.9L64.4,86.3L65.2,90.0L75.6,90.6L81.5,93.4L83.5,94.8L84.3,92.6L85.1,93.1L88.2,90.6L87.0,93.5L87.2,95.8L88.5,97.4L90.6,98.1L98.0,99.3L99.3,100.6L101.3,100.9L101.4,102.3L104.7,96.5L106.0,95.6L110.5,94.8L111.0,87.3L109.7,86.1L107.5,86.2L102.4,88.1L100.0,88.1L97.0,86.9L95.3,87.3L91.8,83.9L87.4,81.9L86.4,77.1L85.5,75.3L80.1,73.2L78.9,71.6L75.8,71.2L75.4,68.9L72.6,64.5L71.3,59.8L70.5,54.3L69.9,45.0L66.1,41.2L64.0,37.6L59.8,36.2L59.0,33.9L54.9,31.5L51.0,30.7L46.7,28.2L40.4,23.0L35.8,21.6L29.8,16.4L24.8,9.2L22.2,6.8L15.5,6.1L14.2,3.3L12.3,1.3L7.7,0.0Z " data-id="SB.CH" data-name="Choiseul" id="SB.CH"/>
utf-8utf-8<path d="M532.7,452.2L532.9,449.0L531.6,445.6L529.5,443.4L527.8,444.8L527.7,446.5L529.0,453.0L532.7,452.2Z M486.8,443.7L485.1,442.7L482.9,443.5L481.8,445.8L482.0,450.4L480.3,452.0L480.6,453.3L479.3,456.0L481.4,459.2L484.2,459.7L490.7,458.5L494.4,460.4L497.4,460.4L503.4,462.9L504.0,463.7L500.3,469.7L502.0,470.3L500.7,474.1L499.6,475.5L503.7,475.1L505.0,479.7L501.8,487.4L506.1,487.7L507.1,486.5L508.5,489.0L508.2,489.9L510.2,491.4L510.1,492.5L511.8,494.8L514.2,494.1L517.2,497.4L518.8,497.9L520.0,501.6L524.1,501.9L525.8,506.4L526.8,505.9L528.0,508.4L533.0,510.1L534.0,507.5L534.6,509.7L538.2,512.6L540.2,511.7L546.4,514.1L549.7,512.9L558.0,516.8L560.0,519.0L566.4,520.2L569.1,517.7L571.7,517.3L579.0,520.7L584.1,521.9L585.7,521.0L589.6,521.9L591.1,521.1L589.5,519.3L586.2,518.6L581.9,518.7L578.6,518.1L578.2,515.1L581.5,512.0L582.4,505.0L581.3,501.6L575.9,495.4L575.9,491.4L572.3,482.4L569.4,478.7L567.1,474.1L565.1,473.0L562.2,473.9L561.4,476.5L555.5,476.8L554.3,476.4L551.1,472.2L547.7,472.8L543.8,471.3L539.5,473.1L537.2,473.0L532.9,468.6L531.6,468.0L527.0,467.8L525.5,466.7L523.8,462.9L522.5,462.0L520.4,462.9L514.7,457.0L504.1,448.8L493.3,443.1L487.2,444.3L486.8,443.7Z " data-id="SB.MK" data-name="Makira" id="SB.MK"/>
utf-8utf-8<path d="M355.6,347.6L354.5,348.2L353.4,348.3L349.1,348.5L346.9,348.3L348.2,350.4L351.1,351.8L354.4,351.4L355.3,352.5L357.0,351.8L358.0,348.1L356.6,347.0L355.6,347.6Z " data-id="SB.CT" data-name="Capital Territory (Honiara)" id="SB.CT"/>
utf-8</g>
</svg>
