<?xml version="1.0" ?>
<!DOCTYPE svg
  PUBLIC '-//W3C//DTD SVG 1.1//EN'
  'http://www.w3.org/Graphics/SVG/1.1/DTD/svg11.dtd'>
<svg enable_background="new 0 0 1000 1293" height="1293px" pretty_print="True" style="stroke-linejoin: round; stroke:#000; fill: none;" version="1.1" viewBox="0 0 1000 1293" width="1000px" xmlns="http://www.w3.org/2000/svg" xmlns:xlink="http://www.w3.org/1999/xlink">
utf-8<defs>
utf-8utf-8<style type="text/css">
<![CDATA[path { fill-rule: evenodd; }]]>utf-8utf-8</style>
utf-8</defs>
utf-8<metadata>
utf-8utf-8<views>
utf-8utf-8utf-8<view h="1293.36909317" padding="0" w="1000">
utf-8utf-8utf-8utf-8<proj flip="auto" id="robinson" lon0="34.0502236016"/>
utf-8utf-8utf-8utf-8<bbox h="313.82" w="242.82" x="320.7" y="-372.7"/>
utf-8utf-8utf-8</view>
utf-8utf-8</views>
utf-8</metadata>
utf-8<g class="" id="provinces">
utf-8utf-8<path d="M691.5,691.1L691.3,696.8L688.1,710.2L688.4,718.2L687.0,730.0L685.1,734.3L692.5,785.5L690.6,790.8L690.8,793.2L704.3,798.7L705.5,799.5L710.5,806.1L737.3,830.4L738.3,831.6L741.2,839.2L741.6,843.6L741.1,848.2L742.0,854.8L738.3,863.6L737.2,869.9L737.0,875.2L737.3,878.2L738.5,881.2L748.8,881.3L748.5,876.0L750.1,865.8L757.0,841.9L760.5,838.1L762.6,831.2L762.9,825.1L759.5,809.9L759.6,804.6L764.6,796.3L768.7,788.8L775.9,783.1L777.6,783.0L785.2,790.2L788.1,796.5L788.8,796.7L793.2,793.3L794.4,789.3L798.7,785.3L800.1,781.3L797.3,777.1L800.9,763.9L801.1,761.8L798.5,757.2L798.7,755.7L805.7,736.8L804.4,731.3L803.4,723.1L805.1,718.2L808.3,715.1L809.6,714.5L807.2,709.0L800.8,703.4L793.8,696.0L786.1,685.9L772.0,662.5L766.7,657.0L764.3,655.6L760.1,655.2L752.5,659.1L709.5,689.5L706.7,689.9L699.8,687.9L693.2,689.6L691.5,691.1Z " data-id="SD.BN" data-name="Blue Nile" id="SD.BN"/>
utf-8utf-8<path d="M908.8,101.9L909.7,96.2L908.5,94.6L907.7,96.0L907.5,100.3L908.8,101.9Z M659.1,16.0L683.7,35.6L667.6,50.4L671.2,54.6L672.9,62.8L671.8,69.0L670.0,71.6L670.5,79.9L669.2,85.7L670.3,89.8L679.6,99.3L682.5,101.1L685.2,101.6L694.0,117.1L695.4,122.1L695.2,125.1L695.6,130.2L696.2,131.2L694.2,137.5L693.4,144.7L693.6,150.0L694.2,153.9L697.6,164.3L699.2,175.6L698.6,183.7L696.9,188.5L697.0,190.4L729.0,265.1L730.4,266.6L739.4,269.4L750.8,274.6L765.2,283.7L772.8,291.2L776.3,295.7L784.9,312.5L791.2,322.6L794.7,326.4L825.4,348.4L847.5,360.7L849.2,361.3L850.3,361.4L905.1,356.3L905.1,356.3L905.4,355.8L920.8,358.9L923.6,357.0L925.3,356.8L931.1,358.6L934.2,354.1L936.0,348.6L936.3,343.0L935.5,339.9L944.1,335.9L946.5,335.5L948.9,334.1L951.2,328.9L953.2,327.7L956.4,330.0L960.3,329.1L962.1,326.4L967.4,322.8L969.4,323.5L969.9,327.5L972.3,323.0L974.7,322.2L979.2,324.3L980.1,323.2L980.3,319.0L986.8,312.4L989.9,301.8L991.4,299.2L999.5,291.3L998.2,286.3L995.4,284.1L995.1,286.7L992.4,281.9L988.9,281.8L989.4,280.9L986.1,276.1L985.3,278.5L979.3,276.3L979.1,274.9L980.6,270.5L977.4,272.2L977.2,274.8L974.8,275.2L971.6,274.4L968.5,271.5L966.7,267.6L966.9,265.2L969.2,263.1L968.3,262.1L961.2,257.0L959.3,253.9L956.7,251.2L949.8,249.1L948.8,248.0L946.5,248.2L946.8,245.6L945.2,242.7L943.9,242.8L941.1,240.5L939.1,241.5L935.6,242.1L932.1,240.7L930.0,238.7L926.2,232.2L925.5,228.6L918.2,204.5L915.0,189.8L912.5,184.1L911.6,176.4L912.8,172.8L912.1,166.0L907.7,155.1L907.1,150.9L908.9,145.4L907.3,137.4L905.7,133.3L905.0,129.5L905.0,121.7L906.9,122.0L907.8,119.1L907.4,114.6L904.3,106.4L903.2,102.1L902.1,93.0L901.1,88.7L899.3,84.7L897.1,81.8L897.0,80.7L898.8,77.9L897.6,70.3L898.5,69.2L900.1,69.6L901.5,74.6L903.7,75.2L908.0,80.3L906.8,80.8L903.0,77.9L907.1,84.2L909.4,83.8L910.6,80.7L910.0,79.5L903.2,70.7L897.8,65.5L889.3,52.5L882.9,39.8L883.3,37.9L881.4,28.4L880.9,20.1L878.8,18.0L881.1,17.0L881.3,16.0L659.1,16.0L659.1,16.0Z " data-id="SD.RS" data-name="Red Sea" id="SD.RS"/>
utf-8utf-8<path d="M198.3,633.2L188.2,632.8L169.7,629.8L138.7,665.1L135.3,670.3L134.2,673.0L134.2,675.1L132.1,700.6L120.9,746.3L108.2,755.8L92.9,767.2L75.7,796.3L82.1,801.3L93.3,813.3L114.2,850.0L115.5,853.1L117.5,865.0L117.2,867.7L113.5,875.6L114.9,882.6L116.1,883.3L114.6,890.4L115.3,892.5L111.8,898.4L108.8,900.6L106.8,900.5L104.9,902.6L103.7,911.4L106.4,915.5L108.0,915.3L110.3,912.8L111.3,912.9L111.0,920.7L106.8,927.6L108.3,932.6L113.8,931.0L117.5,932.7L126.4,931.8L130.2,932.8L133.6,932.4L145.3,934.6L148.7,934.1L149.4,932.1L152.9,929.1L154.7,928.1L161.3,923.4L168.2,922.4L172.1,920.5L171.9,913.1L172.3,911.6L177.7,901.1L178.0,900.1L178.9,886.9L185.1,878.3L185.6,875.9L185.2,857.6L185.4,856.2L192.5,851.2L196.7,844.7L199.1,837.7L201.3,824.7L204.5,822.5L211.7,821.4L220.3,820.9L232.3,817.8L239.8,816.3L242.3,816.4L247.3,814.7L247.9,814.6L248.0,807.2L242.1,788.1L232.6,762.1L222.4,752.6L206.9,734.2L205.3,687.3L211.2,677.8L211.9,658.7L207.8,632.2L198.3,633.2Z " data-id="SD.SD" data-name="Southern Darfur" id="SD.SD"/>
utf-8utf-8<path d="M319.2,715.7L295.5,716.1L290.3,714.0L287.2,711.4L281.1,705.7L277.7,704.4L275.1,704.0L269.0,704.4L266.7,703.2L263.5,700.0L257.3,689.5L252.1,683.6L248.2,680.1L245.7,676.4L246.9,674.1L253.5,671.8L255.3,669.8L253.4,665.9L239.9,653.8L236.8,652.3L228.6,646.9L216.9,635.3L210.5,632.5L207.8,632.2L211.9,658.7L211.2,677.8L205.3,687.3L206.9,734.2L222.4,752.6L232.6,762.1L242.1,788.1L248.0,807.2L247.9,814.6L248.1,814.8L251.4,819.8L252.0,830.5L256.3,834.0L257.9,834.5L263.6,843.5L264.4,844.5L264.5,844.5L269.2,846.5L292.6,876.7L296.9,879.5L301.0,879.8L324.3,870.8L340.0,870.4L342.8,870.9L351.5,870.9L356.4,871.6L358.4,871.1L366.2,872.4L373.1,871.9L373.8,871.6L369.3,861.3L359.8,839.5L358.6,833.8L336.0,774.7L331.6,753.3L330.4,745.5L330.0,728.8L327.8,717.6L319.2,715.7Z " data-id="SD.SD" data-name="Eastern Darfur" id="SD.SD"/>
utf-8utf-8<path d="M126.6,448.9L125.9,451.0L124.3,450.9L117.2,448.2L109.8,447.0L102.9,447.0L99.0,447.9L91.2,451.1L86.6,451.6L77.3,449.4L71.4,451.3L67.7,456.4L63.1,459.7L61.6,463.4L62.1,465.4L65.8,470.7L66.7,475.2L66.1,483.2L58.2,493.7L52.9,500.0L51.6,505.6L48.3,508.5L48.5,515.1L49.7,520.1L49.1,520.6L37.0,524.2L32.1,527.7L31.0,530.1L32.5,532.7L34.9,535.2L35.9,542.6L34.8,546.5L36.2,550.4L41.8,552.4L42.8,558.0L41.9,559.2L34.2,564.2L24.8,569.3L23.1,570.6L16.3,580.1L14.9,582.8L17.3,586.3L17.5,589.9L18.6,592.6L22.5,596.6L23.5,599.3L24.8,606.2L27.7,610.7L27.3,613.6L25.2,616.7L19.8,623.3L9.3,629.9L7.6,632.6L2.9,643.2L0.7,651.7L2.4,654.0L4.8,659.0L8.3,661.5L10.8,662.1L18.5,660.8L20.8,659.3L22.7,657.2L24.4,654.4L32.1,660.0L38.3,662.6L39.2,663.5L36.3,671.4L37.2,678.1L42.0,693.5L42.2,696.0L40.7,703.6L49.7,700.3L50.0,700.6L53.9,686.7L50.1,661.9L66.3,641.0L84.5,609.9L88.8,607.4L96.1,606.7L102.8,598.2L101.5,597.7L100.7,595.5L100.8,592.2L102.5,585.4L106.6,576.8L125.4,553.0L137.5,529.3L138.9,521.6L138.6,518.6L137.2,512.4L135.5,508.0L133.5,504.2L126.5,495.1L125.5,491.2L125.1,487.2L124.9,476.8L124.5,473.4L127.6,450.4L126.6,448.8L126.6,448.9Z " data-id="SD.WD" data-name="Western Darfur" id="SD.WD"/>
utf-8utf-8<path d="M158.6,628.9L153.8,625.4L153.8,623.4L155.8,619.1L163.9,610.2L166.2,606.8L167.6,602.4L167.3,600.9L164.8,598.2L162.9,597.6L156.0,598.4L146.2,602.6L136.8,608.8L129.7,609.8L125.1,607.5L118.6,605.2L115.0,602.9L113.1,601.0L107.9,598.5L104.5,598.5L102.8,598.2L96.1,606.7L88.8,607.4L84.5,609.9L66.3,641.0L50.1,661.9L53.9,686.7L50.0,700.6L50.1,701.7L49.0,706.4L46.0,727.7L46.4,731.0L47.6,734.2L49.6,737.1L51.8,739.5L58.8,742.5L60.6,746.8L61.2,747.1L69.3,747.3L70.2,752.2L71.8,757.3L71.8,761.5L68.8,770.5L66.7,780.2L66.8,782.1L75.7,796.3L92.9,767.2L108.2,755.8L120.9,746.3L132.1,700.6L134.2,675.1L134.2,673.0L135.3,670.3L138.7,665.1L169.7,629.8L158.6,628.9Z " data-id="SD.WD" data-name="Central Darfur" id="SD.WD"/>
utf-8utf-8<path d="M732.5,429.9L730.4,431.2L722.6,434.5L718.5,435.5L712.1,435.3L706.9,433.5L699.3,429.1L669.1,420.3L649.6,408.7L646.6,407.6L614.7,401.9L611.5,400.4L608.8,397.9L600.4,388.3L599.3,386.5L598.1,383.3L595.8,383.9L583.5,392.5L600.1,429.9L609.9,443.5L623.9,468.2L625.8,472.4L629.8,484.2L630.8,484.8L635.3,486.3L641.5,484.9L648.3,485.3L648.4,484.6L650.2,481.9L663.0,477.7L673.6,476.0L677.3,476.7L681.9,472.8L687.0,471.0L689.4,471.0L703.7,468.8L706.4,462.2L711.3,454.1L713.9,451.3L716.3,449.9L718.1,449.9L731.7,455.1L752.6,458.8L743.6,438.5L741.6,432.3L741.3,428.4L732.5,429.9Z " data-id="SD.KH" data-name="Khartoum" id="SD.KH"/>
utf-8utf-8<path d="M731.9,562.4L730.5,560.8L729.1,556.4L730.4,552.9L748.3,515.1L747.5,511.0L738.3,497.2L733.3,486.8L723.2,481.1L711.3,476.7L709.3,475.4L703.7,468.8L689.4,471.0L687.0,471.0L681.9,472.8L677.3,476.7L673.6,476.0L663.0,477.7L650.2,481.9L648.4,484.6L648.3,485.3L650.0,489.7L650.1,494.8L649.5,495.4L644.6,496.1L645.0,500.0L650.3,502.7L652.0,505.2L652.4,507.7L653.1,518.3L652.9,520.8L649.1,527.1L645.8,531.5L642.3,538.9L639.6,546.4L639.2,550.8L641.4,558.1L643.9,563.6L649.5,573.3L652.8,580.2L653.7,585.4L654.0,597.1L656.8,600.3L658.3,599.2L663.7,592.4L664.0,586.4L665.5,582.2L668.2,581.6L671.2,585.0L673.1,585.0L674.3,583.2L677.0,573.2L679.5,568.0L683.4,564.5L685.9,563.8L688.5,564.1L690.9,565.6L696.2,572.5L701.0,571.9L705.7,566.4L711.4,561.6L713.0,560.9L722.8,564.7L727.2,564.5L731.4,565.5L733.9,565.9L731.9,562.4Z " data-id="SD.GZ" data-name="Gezira" id="SD.GZ"/>
utf-8utf-8<path d="M731.7,455.1L718.1,449.9L716.3,449.9L713.9,451.3L711.3,454.1L706.4,462.2L703.7,468.8L709.3,475.4L711.3,476.7L723.2,481.1L733.3,486.8L738.3,497.2L747.5,511.0L748.3,515.1L730.4,552.9L729.1,556.4L730.5,560.8L731.9,562.4L733.9,565.9L734.3,566.8L736.6,571.6L739.3,574.0L739.3,576.7L740.6,579.4L741.9,580.4L744.1,584.1L747.5,585.6L750.7,585.3L751.3,586.1L754.1,586.2L754.1,589.1L751.6,591.9L752.0,594.7L753.8,597.6L757.4,605.0L762.3,611.8L770.8,616.3L774.2,620.2L783.2,624.5L785.7,626.6L789.1,631.0L795.0,637.4L808.1,645.6L812.6,650.3L815.0,652.0L820.9,654.6L841.3,659.7L841.4,659.7L842.9,659.1L861.6,656.1L865.3,657.7L866.7,655.9L867.6,648.2L865.8,642.7L865.6,641.2L866.9,635.7L866.8,634.4L871.8,611.7L880.2,597.2L880.9,590.0L884.1,580.1L883.8,576.6L882.6,573.2L882.4,568.3L887.0,549.5L882.6,519.6L881.6,512.9L878.1,512.4L857.2,512.9L852.4,514.0L824.7,525.4L821.2,526.1L818.5,525.8L815.5,523.4L801.0,506.4L791.9,484.0L787.1,477.2L778.6,469.7L768.7,464.0L761.3,461.1L752.6,458.8L731.7,455.1Z " data-id="SD.GD" data-name="Gedarif" id="SD.GD"/>
utf-8utf-8<path d="M794.7,326.4L791.2,322.6L784.9,312.5L776.3,295.7L772.8,291.2L765.2,283.7L750.8,274.6L739.4,269.4L730.4,266.6L729.0,265.1L697.0,190.4L696.9,188.5L698.6,183.7L699.2,175.6L697.6,164.3L694.2,153.9L693.6,150.0L693.4,144.7L694.2,137.5L696.2,131.2L695.6,130.2L695.2,125.1L695.4,122.1L694.0,117.1L685.2,101.6L682.5,101.1L679.6,99.3L670.3,89.8L669.2,85.7L670.5,79.9L670.0,71.6L671.8,69.0L672.9,62.8L671.2,54.6L667.6,50.4L683.7,35.6L659.1,16.0L653.0,16.0L634.7,16.0L628.5,16.0L622.4,16.0L621.2,16.0L610.1,228.2L610.5,229.3L635.7,244.3L636.1,245.0L636.0,273.5L643.1,292.1L643.1,295.4L644.6,300.9L638.6,314.5L598.1,383.3L599.3,386.5L600.4,388.3L608.8,397.9L611.5,400.4L614.7,401.9L646.6,407.6L649.6,408.7L669.1,420.3L699.3,429.1L706.9,433.5L712.1,435.3L718.5,435.5L722.6,434.5L730.4,431.2L732.5,429.9L741.3,428.4L743.6,423.5L757.6,400.7L759.3,399.7L762.5,399.3L803.5,399.3L808.3,398.5L812.8,396.8L817.8,393.6L821.5,390.6L825.0,386.0L827.1,379.0L827.5,370.9L825.4,348.4L794.7,326.4Z " data-id="SD.RN" data-name="River Nile" id="SD.RN"/>
utf-8utf-8<path d="M176.2,153.0L177.4,153.6L326.1,153.6L335.9,382.8L550.9,390.8L571.7,388.7L574.8,389.2L583.5,392.5L595.8,383.9L598.1,383.3L638.6,314.5L644.6,300.9L643.1,295.4L643.1,292.1L636.0,273.5L636.1,245.0L635.7,244.3L610.5,229.3L610.1,228.2L621.2,16.0L616.3,16.0L556.2,16.0L559.0,5.4L558.4,2.2L557.0,0.8L553.6,0.2L551.0,2.7L545.8,15.5L545.0,16.0L171.1,16.0L174.1,93.3L176.0,145.3L176.2,153.0Z " data-id="SD.NO" data-name="Northern" id="SD.NO"/>
utf-8utf-8<path d="M641.5,484.9L635.3,486.3L630.8,484.8L629.8,484.2L610.8,493.3L609.4,494.7L609.6,499.0L602.5,504.9L596.6,520.6L588.5,526.4L586.4,530.1L584.3,543.9L584.8,553.3L585.9,559.4L589.4,569.0L598.1,576.1L601.9,585.4L606.2,592.7L610.2,597.3L613.7,600.0L618.4,601.9L619.0,602.7L617.5,609.9L618.3,619.3L616.9,621.2L611.7,623.5L602.3,630.7L596.6,636.7L595.2,641.8L598.7,664.8L602.5,688.4L604.9,690.9L610.3,691.5L613.9,694.0L623.6,705.7L643.8,705.6L663.9,705.5L663.7,702.1L662.3,696.5L662.5,690.7L691.5,691.1L682.4,659.9L681.9,655.7L682.2,652.0L683.4,646.4L682.6,642.0L676.0,632.2L671.2,622.6L670.0,618.7L669.2,612.5L668.6,601.6L668.2,599.1L665.9,594.6L663.7,592.4L658.3,599.2L656.8,600.3L654.0,597.1L653.7,585.4L652.8,580.2L649.5,573.3L643.9,563.6L641.4,558.1L639.2,550.8L639.6,546.4L642.3,538.9L645.8,531.5L649.1,527.1L652.9,520.8L653.1,518.3L652.4,507.7L652.0,505.2L650.3,502.7L645.0,500.0L644.6,496.1L649.5,495.4L650.1,494.8L650.0,489.7L648.3,485.3L641.5,484.9Z " data-id="SD.WN" data-name="White Nile" id="SD.WN"/>
utf-8utf-8<path d="M731.4,565.5L727.2,564.5L722.8,564.7L713.0,560.9L711.4,561.6L705.7,566.4L701.0,571.9L696.2,572.5L690.9,565.6L688.5,564.1L685.9,563.8L683.4,564.5L679.5,568.0L677.0,573.2L674.3,583.2L673.1,585.0L671.2,585.0L668.2,581.6L665.5,582.2L664.0,586.4L663.7,592.4L665.9,594.6L668.2,599.1L668.6,601.6L669.2,612.5L670.0,618.7L671.2,622.6L676.0,632.2L682.6,642.0L683.4,646.4L682.2,652.0L681.9,655.7L682.4,659.9L691.5,691.1L693.2,689.6L699.8,687.9L706.7,689.9L709.5,689.5L752.5,659.1L760.1,655.2L764.3,655.6L766.7,657.0L772.0,662.5L786.1,685.9L793.8,696.0L800.8,703.4L807.2,709.0L809.6,714.5L813.6,712.8L816.2,707.0L818.4,705.5L821.4,695.6L825.1,689.2L825.7,687.2L836.4,666.0L839.1,664.7L840.5,660.2L841.3,659.7L820.9,654.6L815.0,652.0L812.6,650.3L808.1,645.6L795.0,637.4L789.1,631.0L785.7,626.6L783.2,624.5L774.2,620.2L770.8,616.3L762.3,611.8L757.4,605.0L753.8,597.6L752.0,594.7L751.6,591.9L754.1,589.1L754.1,586.2L751.3,586.1L750.7,585.3L747.5,585.6L744.1,584.1L741.9,580.4L740.6,579.4L739.3,576.7L739.3,574.0L736.6,571.6L734.3,566.8L733.9,565.9L731.4,565.5Z " data-id="SD.SI" data-name="Sennar" id="SD.SI"/>
utf-8utf-8<path d="M326.1,153.6L177.4,153.6L176.2,153.0L176.3,153.5L175.5,154.0L116.5,153.9L119.4,236.5L121.7,300.6L123.3,348.7L125.9,428.8L126.4,444.8L126.6,448.8L127.6,450.4L124.5,473.4L124.9,476.8L125.1,487.2L125.5,491.2L126.5,495.1L133.5,504.2L135.5,508.0L137.2,512.4L138.6,518.6L138.9,521.6L137.5,529.3L125.4,553.0L106.6,576.8L102.5,585.4L100.8,592.2L100.7,595.5L101.5,597.7L102.8,598.2L104.5,598.5L107.9,598.5L113.1,601.0L115.0,602.9L118.6,605.2L125.1,607.5L129.7,609.8L136.8,608.8L146.2,602.6L156.0,598.4L162.9,597.6L164.8,598.2L167.3,600.9L167.6,602.4L166.2,606.8L163.9,610.2L155.8,619.1L153.8,623.4L153.8,625.4L158.6,628.9L169.7,629.8L188.2,632.8L198.3,633.2L207.8,632.2L210.5,632.5L216.9,635.3L228.6,646.9L236.8,652.3L239.9,653.8L253.4,665.9L255.3,669.8L253.5,671.8L246.9,674.1L245.7,676.4L248.2,680.1L252.1,683.6L257.3,689.5L263.5,700.0L266.7,703.2L269.0,704.4L275.1,704.0L277.7,704.4L281.1,705.7L287.2,711.4L290.3,714.0L295.5,716.1L319.2,715.7L327.8,717.6L323.6,709.3L322.2,703.8L319.0,698.6L318.8,689.4L316.3,680.0L316.4,676.7L319.5,670.6L321.1,665.5L321.4,662.8L320.7,654.5L322.9,639.9L331.7,626.9L335.7,613.3L336.9,610.7L342.8,602.5L344.4,597.3L344.5,594.8L343.8,592.2L339.7,585.2L339.3,583.3L341.4,567.6L331.5,539.1L324.3,516.1L321.6,510.5L318.2,507.2L301.1,385.0L302.2,383.2L334.3,383.0L335.9,382.8L326.1,153.6Z " data-id="SD.ND" data-name="North Darfur" id="SD.ND"/>
utf-8utf-8<path d="M586.6,657.6L581.8,657.7L575.1,662.4L570.5,663.4L567.3,662.6L562.2,664.9L560.9,666.8L557.8,673.3L552.4,677.9L549.0,679.3L546.6,681.2L541.3,686.6L536.5,686.4L534.5,685.5L530.2,681.7L524.8,673.3L521.7,671.2L517.2,670.5L501.5,671.2L499.7,670.8L497.4,667.8L497.6,661.0L496.8,658.3L493.1,655.1L491.2,654.9L484.3,656.4L482.3,658.4L466.7,686.2L460.7,685.1L457.3,686.5L451.3,685.1L447.0,682.2L434.6,672.0L432.7,671.3L428.9,672.7L426.2,676.3L424.0,680.0L419.7,683.2L417.8,686.5L416.7,692.3L414.7,699.2L414.1,702.9L414.8,705.0L414.6,707.2L412.7,708.7L408.9,710.1L401.9,711.6L395.9,711.9L390.7,709.4L386.2,709.0L383.0,707.9L380.5,707.9L378.3,709.4L374.7,719.9L370.5,730.1L364.6,736.3L355.9,746.8L352.8,749.0L345.8,751.1L339.4,751.1L334.0,748.6L330.4,745.5L331.6,753.3L336.0,774.7L358.6,833.8L359.8,839.5L369.3,861.3L373.8,871.6L380.2,886.1L383.2,889.8L407.4,890.0L431.6,890.3L431.7,890.3L430.9,888.6L430.7,883.2L431.9,880.5L435.7,876.2L441.4,871.0L448.8,866.6L456.0,863.6L469.9,860.1L474.9,854.6L477.6,849.6L477.5,839.6L482.6,835.7L498.6,826.9L501.3,825.0L530.4,845.6L546.8,861.9L552.1,861.0L558.9,860.7L559.0,860.7L571.9,859.9L576.2,858.0L601.6,828.9L608.0,819.6L609.6,817.7L613.3,811.1L617.0,799.7L617.7,798.4L645.6,771.1L646.8,767.3L642.2,758.1L641.1,753.4L640.8,746.3L641.3,735.1L640.8,728.0L640.2,725.7L623.6,705.7L613.9,694.0L610.3,691.5L604.9,690.9L602.5,688.4L598.7,664.8L586.6,657.6Z " data-id="SD.KS" data-name="South Kordufan" id="SD.KS"/>
utf-8utf-8<path d="M574.8,389.2L571.7,388.7L550.9,390.8L335.9,382.8L334.3,383.0L302.2,383.2L301.1,385.0L318.2,507.2L321.6,510.5L324.3,516.1L331.5,539.1L341.4,567.6L339.3,583.3L339.7,585.2L343.8,592.2L344.5,594.8L344.4,597.3L342.8,602.5L336.9,610.7L335.7,613.3L331.7,626.9L322.9,639.9L320.7,654.5L321.4,662.8L321.1,665.5L319.5,670.6L316.4,676.7L316.3,680.0L318.8,689.4L319.0,698.6L322.2,703.8L323.6,709.3L327.8,717.6L330.0,728.8L330.4,745.5L334.0,748.6L339.4,751.1L345.8,751.1L352.8,749.0L355.9,746.8L364.6,736.3L370.5,730.1L374.7,719.9L378.3,709.4L380.5,707.9L383.0,707.9L386.2,709.0L390.7,709.4L395.9,711.9L401.9,711.6L408.9,710.1L412.7,708.7L414.6,707.2L414.8,705.0L414.1,702.9L414.7,699.2L416.7,692.3L417.8,686.5L419.7,683.2L424.0,680.0L426.2,676.3L428.9,672.7L432.7,671.3L434.6,672.0L447.0,682.2L451.3,685.1L457.3,686.5L460.7,685.1L466.7,686.2L482.3,658.4L484.3,656.4L491.2,654.9L493.1,655.1L496.8,658.3L497.6,661.0L497.4,667.8L499.7,670.8L501.5,671.2L517.2,670.5L521.7,671.2L524.8,673.3L530.2,681.7L534.5,685.5L536.5,686.4L541.3,686.6L546.6,681.2L549.0,679.3L552.4,677.9L557.8,673.3L560.9,666.8L562.2,664.9L567.3,662.6L570.5,663.4L575.1,662.4L581.8,657.7L586.6,657.6L598.7,664.8L595.2,641.8L596.6,636.7L602.3,630.7L611.7,623.5L616.9,621.2L618.3,619.3L617.5,609.9L619.0,602.7L618.4,601.9L613.7,600.0L610.2,597.3L606.2,592.7L601.9,585.4L598.1,576.1L589.4,569.0L585.9,559.4L584.8,553.3L584.3,543.9L586.4,530.1L588.5,526.4L596.6,520.6L602.5,504.9L609.6,499.0L609.4,494.7L610.8,493.3L629.8,484.2L625.8,472.4L623.9,468.2L609.9,443.5L600.1,429.9L583.5,392.5L574.8,389.2Z " data-id="SD.KN" data-name="North Kordufan" id="SD.KN"/>
utf-8utf-8<path d="M825.4,348.4L827.5,370.9L827.1,379.0L825.0,386.0L821.5,390.6L817.8,393.6L812.8,396.8L808.3,398.5L803.5,399.3L762.5,399.3L759.3,399.7L757.6,400.7L743.6,423.5L741.3,428.4L741.6,432.3L743.6,438.5L752.6,458.8L761.3,461.1L768.7,464.0L778.6,469.7L787.1,477.2L791.9,484.0L801.0,506.4L815.5,523.4L818.5,525.8L821.2,526.1L824.7,525.4L852.4,514.0L857.2,512.9L878.1,512.4L881.6,512.9L881.1,509.1L878.4,489.4L878.8,488.2L883.0,483.4L884.0,481.5L886.6,471.5L887.7,469.4L889.6,467.9L888.7,464.9L888.7,462.0L891.4,448.7L894.8,443.8L896.3,440.8L902.8,416.9L906.1,412.2L906.4,409.0L905.1,406.2L903.5,398.1L902.5,397.0L901.1,393.2L901.7,390.5L901.7,385.7L902.1,384.4L905.5,380.9L906.8,376.8L906.8,372.7L907.4,371.5L906.6,366.6L905.2,364.3L906.7,360.7L905.0,356.9L905.1,356.3L850.3,361.4L849.2,361.3L847.5,360.7L825.4,348.4Z " data-id="SD.KA" data-name="Kassala" id="SD.KA"/>
utf-8utf-8<path d="M373.1,871.9L366.2,872.4L358.4,871.1L356.4,871.6L351.5,870.9L342.8,870.9L340.0,870.4L324.3,870.8L301.0,879.8L296.9,879.5L292.6,876.7L269.2,846.5L264.5,844.5L264.4,844.5L264.5,844.5L264.8,850.2L263.3,873.7L263.9,919.2L267.5,942.5L267.9,952.1L269.3,961.6L271.6,969.3L275.4,975.2L279.0,978.9L299.2,993.6L303.8,995.0L308.5,993.8L312.3,991.5L318.9,986.4L355.0,966.9L363.6,964.3L367.2,944.5L371.9,935.0L372.6,932.0L373.2,921.5L374.4,917.4L378.6,913.6L381.2,912.9L388.1,912.1L405.3,912.6L431.5,910.5L432.1,908.6L433.5,901.1L435.6,897.7L439.8,895.9L441.3,893.9L436.1,890.7L434.7,891.1L431.8,890.3L431.7,890.3L431.6,890.3L407.4,890.0L383.2,889.8L380.2,886.1L373.8,871.6L373.1,871.9Z " data-id="SD.NB" data-name="North Bahr-al-Ghazal" id="SD.NB"/>
utf-8utf-8<path d="M524.9,1044.3L517.7,1041.7L497.6,996.6L494.9,994.8L485.6,994.0L477.9,1007.6L458.4,1032.5L454.5,1039.0L453.5,1041.6L446.4,1069.3L442.7,1073.9L440.7,1074.9L434.4,1075.9L432.3,1075.5L427.4,1073.2L422.4,1068.9L421.0,1078.1L421.4,1081.2L420.8,1083.6L421.3,1086.4L420.4,1088.8L421.8,1095.0L422.2,1101.2L424.7,1105.3L426.9,1111.4L428.6,1113.5L431.3,1115.2L435.0,1119.6L436.6,1122.5L441.2,1129.2L442.8,1130.8L444.9,1131.5L449.0,1134.1L450.0,1135.5L454.2,1137.5L480.9,1140.5L485.1,1140.4L488.1,1138.4L490.6,1128.7L491.9,1126.1L496.0,1119.9L500.4,1112.4L501.3,1105.6L501.3,1102.5L499.9,1095.4L500.0,1089.5L501.6,1087.4L513.9,1087.2L516.6,1086.8L521.0,1090.7L523.1,1093.6L529.5,1107.8L532.2,1111.4L545.6,1110.1L551.1,1108.9L555.5,1106.3L558.6,1106.4L570.1,1117.2L577.5,1120.9L598.2,1125.1L602.3,1127.6L604.6,1127.8L607.6,1124.7L607.2,1123.7L605.0,1122.6L604.1,1119.5L601.6,1113.1L599.5,1110.9L598.2,1106.0L596.7,1102.5L596.4,1099.8L595.2,1096.5L591.2,1091.2L590.3,1086.5L587.1,1083.8L583.8,1074.1L581.9,1072.0L580.6,1068.6L578.2,1066.9L570.2,1058.6L570.0,1057.1L563.9,1053.4L559.7,1049.5L556.2,1048.3L554.5,1045.6L554.3,1045.1L524.9,1044.3Z " data-id="SD.EB" data-name="Lakes" id="SD.EB"/>
utf-8utf-8<path d="M391.5,1071.8L389.4,1071.1L379.5,1063.3L286.7,1075.8L285.0,1076.1L285.1,1076.9L281.8,1082.6L279.7,1088.0L279.3,1091.5L279.8,1093.0L289.7,1100.3L290.0,1103.8L293.3,1105.5L292.8,1108.1L288.5,1111.9L289.2,1114.4L291.7,1112.4L292.8,1112.8L294.6,1116.7L295.5,1117.5L301.1,1119.2L305.4,1119.0L311.5,1122.6L313.8,1127.7L317.0,1127.3L317.6,1128.9L319.7,1130.1L322.3,1129.4L325.3,1134.2L330.5,1135.2L331.9,1138.0L333.1,1138.5L335.9,1143.3L336.9,1144.1L336.5,1147.2L339.6,1150.7L337.2,1158.3L338.1,1165.3L341.1,1172.8L342.3,1174.5L347.5,1178.8L348.6,1181.5L351.1,1184.7L352.3,1188.9L354.2,1190.5L355.6,1194.0L363.3,1196.2L364.4,1197.0L366.1,1202.6L370.8,1205.4L371.1,1206.9L371.1,1215.4L371.5,1216.6L376.7,1219.6L380.2,1219.8L383.1,1219.2L386.3,1219.7L386.6,1225.7L388.5,1228.8L391.7,1227.2L396.4,1233.7L398.8,1234.1L404.0,1233.4L406.1,1235.1L407.4,1238.2L408.8,1238.7L412.6,1236.4L415.8,1232.2L419.5,1231.9L420.2,1229.7L425.3,1226.4L427.7,1220.9L432.2,1219.7L433.1,1221.1L433.5,1224.0L435.1,1224.7L445.5,1223.5L453.1,1229.2L457.0,1233.7L458.4,1234.4L461.2,1231.0L464.9,1231.0L467.0,1226.7L472.1,1218.6L473.2,1217.4L473.5,1212.3L475.0,1211.3L483.1,1213.2L487.1,1215.3L488.9,1217.1L494.8,1219.3L496.0,1219.4L507.1,1209.5L512.1,1204.1L516.6,1203.1L523.3,1208.8L528.4,1209.9L530.5,1208.7L538.4,1199.8L541.2,1197.4L548.1,1193.4L556.5,1190.3L559.3,1185.6L559.9,1165.2L561.6,1158.9L564.3,1154.0L564.9,1151.6L564.7,1148.6L561.4,1141.7L556.9,1137.1L553.4,1134.4L548.9,1127.4L546.5,1124.8L539.7,1119.0L532.2,1111.4L529.5,1107.8L523.1,1093.6L521.0,1090.7L516.6,1086.8L513.9,1087.2L501.6,1087.4L500.0,1089.5L499.9,1095.4L501.3,1102.5L501.3,1105.6L500.4,1112.4L496.0,1119.9L491.9,1126.1L490.6,1128.7L488.1,1138.4L485.1,1140.4L480.9,1140.5L454.2,1137.5L450.0,1135.5L449.0,1134.1L444.9,1131.5L442.8,1130.8L441.2,1129.2L436.6,1122.5L435.0,1119.6L431.3,1115.2L428.6,1113.5L426.9,1111.4L424.7,1105.3L422.2,1101.2L421.8,1095.0L420.4,1088.8L421.3,1086.4L420.8,1083.6L421.4,1081.2L421.0,1078.1L422.4,1068.9L391.5,1071.8Z " data-id="SD.WE" data-name="West Equatoria" id="SD.WE"/>
utf-8utf-8<path d="M662.5,690.7L662.3,696.5L663.7,702.1L663.9,705.5L643.8,705.6L623.6,705.7L640.2,725.7L640.8,728.0L641.3,735.1L640.8,746.3L641.1,753.4L642.2,758.1L646.8,767.3L645.6,771.1L617.7,798.4L617.0,799.7L613.3,811.1L609.6,817.7L608.0,819.6L601.6,828.9L576.2,858.0L571.9,859.9L559.0,860.7L558.9,860.7L558.6,876.9L559.9,877.2L562.6,878.2L570.0,882.8L579.7,885.6L582.4,886.0L585.9,888.4L595.3,888.3L616.1,918.7L618.2,920.7L620.7,921.8L624.9,921.2L632.9,916.8L640.2,911.7L644.2,910.5L646.7,913.1L650.1,921.1L661.3,942.4L665.0,947.2L670.2,952.2L676.7,955.7L679.2,959.4L679.6,962.7L678.2,971.0L676.4,975.5L676.2,979.3L679.1,982.0L686.5,985.5L686.7,984.9L688.6,980.7L692.0,976.8L696.6,972.9L697.0,971.9L696.2,966.9L698.3,964.2L696.9,963.4L695.3,960.6L696.1,958.0L696.0,953.8L697.7,953.1L699.6,950.2L700.7,950.0L707.3,951.7L710.4,950.6L714.5,950.1L716.0,948.9L718.9,950.8L723.0,949.9L724.9,951.7L727.7,955.9L731.4,956.1L733.9,953.7L744.3,950.9L751.4,943.3L752.6,938.4L750.0,898.5L748.8,881.3L738.5,881.2L737.3,878.2L737.0,875.2L737.2,869.9L738.3,863.6L742.0,854.8L741.1,848.2L741.6,843.6L741.2,839.2L738.3,831.6L737.3,830.4L710.5,806.1L705.5,799.5L704.3,798.7L690.8,793.2L690.6,790.8L692.5,785.5L685.1,734.3L687.0,730.0L688.4,718.2L688.1,710.2L691.3,696.8L691.5,691.1L662.5,690.7Z " data-id="SD.UN" data-name="Upper Nile" id="SD.UN"/>
utf-8utf-8<path d="M557.7,877.5L551.2,878.1L548.6,877.8L540.8,875.7L533.4,875.4L532.3,875.6L527.0,880.1L526.3,882.3L524.2,884.8L524.0,886.4L521.6,888.7L522.4,890.4L524.2,897.0L523.8,898.9L521.5,901.0L518.0,907.3L517.8,908.5L514.5,911.3L514.1,912.2L515.4,917.8L515.5,919.7L517.0,922.8L517.2,928.5L516.5,929.2L519.9,933.4L521.2,936.4L520.0,938.1L520.2,940.9L519.7,943.1L523.1,948.3L524.6,951.9L522.9,956.6L524.2,959.9L523.8,963.2L522.8,964.7L523.4,966.6L522.4,967.0L523.2,973.5L527.3,974.4L527.4,977.4L529.6,982.1L533.3,987.0L536.6,996.8L535.1,999.0L534.5,1002.6L535.9,1009.3L537.3,1009.9L538.6,1012.3L539.4,1019.4L543.4,1024.3L546.3,1032.7L547.9,1035.7L548.2,1037.8L550.6,1040.8L553.5,1042.5L554.1,1044.6L554.3,1045.1L554.5,1045.6L556.2,1048.3L559.7,1049.5L563.9,1053.4L570.0,1057.1L570.2,1058.6L578.2,1066.9L580.6,1068.6L581.9,1072.0L583.8,1074.1L587.1,1083.8L590.3,1086.5L591.2,1091.2L595.2,1096.5L596.4,1099.8L596.7,1102.5L598.2,1106.0L599.5,1110.9L601.6,1113.1L604.1,1119.5L605.0,1122.6L607.2,1123.7L607.6,1124.7L640.3,1126.8L760.9,1135.2L808.1,1119.1L808.1,1119.1L807.5,1115.4L807.0,1114.1L803.7,1110.1L802.5,1106.7L799.4,1095.3L796.4,1089.2L795.8,1085.2L793.1,1075.7L791.2,1072.4L787.0,1069.3L781.0,1068.4L780.2,1067.7L778.8,1058.3L774.8,1055.2L766.2,1052.8L764.5,1050.4L760.0,1046.2L759.8,1041.8L758.8,1039.1L755.9,1039.4L753.0,1036.1L749.6,1033.0L749.4,1026.6L747.9,1022.4L740.2,1013.7L738.4,1012.5L735.9,1012.0L732.7,1009.4L730.8,1006.4L725.1,1003.0L721.1,1003.4L718.3,1001.2L714.4,998.9L704.0,1000.1L701.9,997.7L696.2,995.4L693.6,996.6L689.3,995.4L685.4,987.4L686.4,985.6L686.5,985.5L679.1,982.0L676.2,979.3L676.4,975.5L678.2,971.0L679.6,962.7L679.2,959.4L676.7,955.7L670.2,952.2L665.0,947.2L661.3,942.4L650.1,921.1L646.7,913.1L644.2,910.5L640.2,911.7L632.9,916.8L624.9,921.2L620.7,921.8L618.2,920.7L616.1,918.7L595.3,888.3L585.9,888.4L582.4,886.0L579.7,885.6L570.0,882.8L562.6,878.2L559.9,877.2L558.6,876.9L557.7,877.5Z " data-id="SD.JG" data-name="Jungoli" id="SD.JG"/>
utf-8utf-8<path d="M552.1,861.0L546.8,861.9L530.4,845.6L501.3,825.0L498.6,826.9L482.6,835.7L477.5,839.6L477.6,849.6L474.9,854.6L469.9,860.1L456.0,863.6L448.8,866.6L441.4,871.0L435.7,876.2L431.9,880.5L430.7,883.2L430.9,888.6L431.7,890.3L431.8,890.3L434.7,891.1L436.1,890.7L441.3,893.9L439.8,895.9L435.6,897.7L433.5,901.1L432.1,908.6L431.5,910.5L443.9,909.3L447.4,910.6L463.4,937.4L481.0,950.9L482.6,953.8L485.6,994.0L494.9,994.8L497.6,996.6L517.7,1041.7L524.9,1044.3L554.3,1045.1L554.1,1044.6L553.5,1042.5L550.6,1040.8L548.2,1037.8L547.9,1035.7L546.3,1032.7L543.4,1024.3L539.4,1019.4L538.6,1012.3L537.3,1009.9L535.9,1009.3L534.5,1002.6L535.1,999.0L536.6,996.8L533.3,987.0L529.6,982.1L527.4,977.4L527.3,974.4L523.2,973.5L522.4,967.0L523.4,966.6L522.8,964.7L523.8,963.2L524.2,959.9L522.9,956.6L524.6,951.9L523.1,948.3L519.7,943.1L520.2,940.9L520.0,938.1L521.2,936.4L519.9,933.4L516.5,929.2L517.2,928.5L517.0,922.8L515.5,919.7L515.4,917.8L514.1,912.2L514.5,911.3L517.8,908.5L518.0,907.3L521.5,901.0L523.8,898.9L524.2,897.0L522.4,890.4L521.6,888.7L524.0,886.4L524.2,884.8L526.3,882.3L527.0,880.1L532.3,875.6L533.4,875.4L540.8,875.7L548.6,877.8L551.2,878.1L557.7,877.5L558.6,876.9L558.9,860.7L552.1,861.0Z " data-id="SD.WH" data-name="Unity" id="SD.WH"/>
utf-8utf-8<path d="M482.6,953.8L481.0,950.9L463.4,937.4L447.4,910.6L443.9,909.3L431.5,910.5L405.3,912.6L388.1,912.1L381.2,912.9L378.6,913.6L374.4,917.4L373.2,921.5L372.6,932.0L371.9,935.0L367.2,944.5L363.6,964.3L366.3,967.5L374.5,982.2L378.3,987.5L381.9,990.4L391.1,992.1L394.1,993.6L398.5,996.6L403.6,1001.1L411.4,1005.8L416.0,1008.1L416.4,1015.9L418.8,1018.1L419.9,1022.5L419.9,1033.7L419.0,1044.5L419.7,1053.1L422.4,1068.9L427.4,1073.2L432.3,1075.5L434.4,1075.9L440.7,1074.9L442.7,1073.9L446.4,1069.3L453.5,1041.6L454.5,1039.0L458.4,1032.5L477.9,1007.6L485.6,994.0L482.6,953.8Z " data-id="SD.WR" data-name="Warap" id="SD.WR"/>
utf-8utf-8<path d="M263.6,843.5L257.9,834.5L256.3,834.0L252.0,830.5L251.4,819.8L248.1,814.8L247.9,814.6L247.3,814.7L242.3,816.4L239.8,816.3L232.3,817.8L220.3,820.9L211.7,821.4L204.5,822.5L201.3,824.7L199.1,837.7L196.7,844.7L192.5,851.2L185.4,856.2L185.2,857.6L185.6,875.9L185.1,878.3L178.9,886.9L178.0,900.1L177.7,901.1L172.3,911.6L171.9,913.1L172.1,920.5L168.2,922.4L161.3,923.4L154.7,928.1L152.9,929.1L149.4,932.1L148.7,934.1L149.3,934.0L152.7,934.6L151.7,939.4L153.4,940.8L147.0,951.4L146.1,956.0L146.7,958.0L151.3,962.1L162.9,963.2L165.0,962.9L170.0,967.4L176.2,966.7L182.0,967.6L184.0,968.8L187.5,969.2L189.5,970.2L194.8,975.7L195.5,979.2L201.7,987.3L205.4,989.6L209.0,989.1L213.1,991.0L214.5,993.0L216.5,999.2L215.6,1007.7L211.6,1009.3L210.5,1012.6L211.9,1016.1L218.2,1021.2L219.2,1021.5L220.5,1024.9L222.4,1027.5L225.8,1029.4L232.9,1032.7L235.6,1035.5L241.5,1037.7L243.0,1039.0L245.3,1039.5L250.3,1043.8L254.1,1044.6L254.8,1047.1L259.2,1049.0L259.7,1050.4L263.2,1050.9L264.5,1057.6L266.2,1057.9L267.3,1062.4L270.8,1064.1L272.7,1066.8L278.3,1071.2L281.9,1072.7L284.9,1074.6L285.0,1076.1L286.7,1075.8L379.5,1063.3L389.4,1071.1L391.5,1071.8L422.4,1068.9L419.7,1053.1L419.0,1044.5L419.9,1033.7L419.9,1022.5L418.8,1018.1L416.4,1015.9L416.0,1008.1L411.4,1005.8L403.6,1001.1L398.5,996.6L394.1,993.6L391.1,992.1L381.9,990.4L378.3,987.5L374.5,982.2L366.3,967.5L363.6,964.3L355.0,966.9L318.9,986.4L312.3,991.5L308.5,993.8L303.8,995.0L299.2,993.6L279.0,978.9L275.4,975.2L271.6,969.3L269.3,961.6L267.9,952.1L267.5,942.5L263.9,919.2L263.3,873.7L264.8,850.2L264.5,844.5L264.4,844.5L263.6,843.5Z " data-id="SD.WB" data-name="West Bahr-al-Ghazal" id="SD.WB"/>
utf-8utf-8<path d="M808.1,1119.1L808.1,1119.1L760.9,1135.2L640.3,1126.8L638.9,1134.5L640.1,1177.9L642.5,1186.7L647.5,1196.2L649.1,1201.1L649.0,1203.2L647.2,1208.2L643.7,1214.0L638.3,1228.0L636.1,1238.2L631.5,1245.4L625.2,1250.5L623.0,1254.6L619.1,1267.2L617.6,1269.8L619.3,1272.6L623.7,1278.1L626.3,1285.9L631.6,1286.3L634.4,1289.9L640.0,1291.3L641.1,1284.0L652.3,1276.2L654.9,1275.5L675.7,1273.6L680.7,1271.9L685.5,1269.1L691.5,1266.2L699.2,1273.3L702.4,1274.4L717.8,1275.3L720.4,1274.9L722.9,1273.3L749.6,1242.5L773.8,1214.9L791.0,1204.9L796.9,1202.5L826.1,1189.9L827.2,1192.2L836.1,1186.6L837.5,1188.4L835.3,1193.8L841.4,1193.8L846.0,1195.3L843.1,1203.8L845.7,1208.9L854.2,1217.0L854.8,1212.0L856.5,1210.7L858.8,1210.9L859.1,1214.9L867.6,1214.9L859.1,1204.9L857.6,1202.1L857.0,1198.7L857.1,1184.3L860.1,1178.7L858.1,1171.7L859.7,1166.7L856.4,1165.3L852.3,1162.5L850.8,1162.0L847.1,1163.2L845.7,1162.8L841.6,1159.5L836.9,1159.2L831.7,1164.4L830.3,1164.6L826.2,1159.3L827.3,1155.6L826.5,1153.4L824.1,1151.2L819.2,1148.0L816.5,1145.7L815.2,1140.4L814.3,1138.5L809.3,1130.6L808.5,1128.2L808.9,1125.7L807.4,1122.9L808.2,1119.9L808.1,1119.1Z " data-id="SD.EE" data-name="East Equatoria" id="SD.EE"/>
utf-8</g>
</svg>
