<?xml version="1.0" ?>
<!DOCTYPE svg
  PUBLIC '-//W3C//DTD SVG 1.1//EN'
  'http://www.w3.org/Graphics/SVG/1.1/DTD/svg11.dtd'>
<svg enable_background="new 0 0 1000 1508" height="1508px" pretty_print="True" style="stroke-linejoin: round; stroke:#000; fill: none;" version="1.1" viewBox="0 0 1000 1508" width="1000px" xmlns="http://www.w3.org/2000/svg" xmlns:xlink="http://www.w3.org/1999/xlink">
utf-8<defs>
utf-8utf-8<style type="text/css">
<![CDATA[path { fill-rule: evenodd; }]]>utf-8utf-8</style>
utf-8</defs>
utf-8<metadata>
utf-8utf-8<views>
utf-8utf-8utf-8<view h="1508.53349119" padding="0" w="1000">
utf-8utf-8utf-8utf-8<proj flip="auto" id="robinson" lon0="16.370951094"/>
utf-8utf-8utf-8utf-8<bbox h="206.32" w="136.86" x="132.69" y="-1127.11"/>
utf-8utf-8utf-8</view>
utf-8utf-8</views>
utf-8</metadata>
utf-8<g class="" id="provinces">
utf-8utf-8<path d="M518.8,888.0L515.3,886.1L515.0,888.6L518.8,888.0Z M506.8,861.7L504.2,858.9L503.1,861.1L506.8,861.7Z M511.2,848.5L511.8,845.8L509.6,846.2L511.2,848.5Z M515.4,803.0L510.1,802.3L508.9,802.6L511.7,804.6L516.5,804.9L515.4,803.0Z M502.2,803.2L503.2,801.3L500.8,800.5L500.4,802.8L502.2,803.2Z M522.9,784.2L520.2,783.7L521.5,785.1L522.9,784.2Z M513.9,759.6L513.7,758.3L513.0,758.2L513.9,759.6Z M517.2,759.3L514.0,757.9L516.1,759.4L517.2,759.3Z M511.8,737.4L490.8,735.0L486.9,734.0L470.1,733.8L424.8,726.0L401.2,724.9L350.7,714.5L346.8,714.2L342.6,715.2L329.0,722.6L331.4,727.2L337.5,733.5L338.7,736.0L338.2,738.2L336.0,740.8L313.5,753.1L312.9,753.7L314.7,758.1L315.1,763.8L314.0,764.6L314.8,770.1L313.8,771.6L311.6,771.5L309.0,770.0L304.6,769.5L300.7,769.9L299.0,772.2L296.0,772.4L292.6,770.7L290.5,771.4L291.9,774.3L291.6,775.7L288.6,775.0L281.8,767.9L277.1,768.2L270.8,774.5L268.5,778.6L267.1,784.4L266.2,794.5L263.3,798.9L279.4,802.1L281.0,806.4L284.1,809.9L317.3,809.9L320.7,807.2L323.7,804.1L329.3,809.5L348.9,826.1L366.0,837.2L369.8,840.5L371.9,844.2L373.2,850.4L379.3,855.5L382.4,857.5L392.9,861.2L410.5,863.8L413.6,864.7L418.9,869.7L422.7,874.5L424.1,876.9L428.1,880.0L433.2,883.2L438.1,889.0L438.1,890.5L433.6,897.3L427.4,903.8L422.8,906.4L423.2,911.4L428.3,917.2L433.1,920.1L442.3,929.5L447.5,932.8L452.4,934.4L455.5,936.3L460.7,940.5L467.0,947.9L471.5,950.9L472.5,952.1L476.1,953.2L480.5,952.7L489.1,948.8L490.3,944.6L491.6,943.6L494.1,943.1L499.1,943.9L506.2,944.5L509.4,943.0L515.0,941.7L513.2,933.3L513.5,931.1L517.8,926.4L520.2,921.9L523.5,906.5L523.5,906.5L518.9,906.0L518.8,905.2L522.1,903.7L517.1,901.0L514.2,900.3L512.3,898.7L506.4,897.8L511.4,895.8L513.5,894.0L517.1,892.2L517.9,890.6L514.5,889.9L513.2,889.0L512.7,885.4L510.7,885.1L512.3,882.3L508.4,876.0L505.8,875.8L504.3,873.3L504.3,872.0L502.1,871.6L500.1,870.3L500.3,865.5L501.9,864.1L506.9,863.2L505.7,862.1L499.7,862.1L501.3,860.9L499.4,859.4L499.7,856.5L501.5,854.5L500.0,852.2L497.7,852.2L499.7,850.9L497.3,848.0L499.1,843.3L495.9,841.9L497.3,840.1L500.7,838.4L499.3,835.7L491.9,830.3L489.7,829.7L492.9,829.4L497.7,832.2L503.0,832.6L495.7,830.3L494.2,828.1L499.7,829.7L502.5,830.1L505.0,829.7L498.3,827.1L498.0,825.9L495.1,825.0L492.4,823.5L489.3,819.1L490.8,818.1L491.3,816.0L494.1,818.3L498.3,814.8L496.1,816.0L492.2,812.9L493.5,809.2L489.2,807.6L489.1,806.9L492.7,806.9L485.7,802.8L493.9,803.0L493.8,802.3L484.8,801.1L482.4,799.9L486.3,799.6L489.8,798.5L484.4,797.0L484.3,796.2L498.3,797.0L496.3,795.5L485.1,793.9L486.8,792.9L490.9,793.9L493.2,793.3L490.7,791.7L495.9,791.0L498.4,789.7L498.9,787.9L492.8,785.6L487.3,784.0L494.6,783.9L498.3,784.5L501.7,786.3L501.6,788.0L502.8,788.9L506.1,789.4L503.8,784.9L506.6,785.9L508.6,787.7L513.6,793.6L517.9,794.8L520.3,787.8L518.2,784.0L516.5,783.0L509.6,784.4L508.1,781.8L507.7,777.1L506.1,775.7L508.4,774.5L508.7,773.5L504.4,774.3L503.6,770.0L502.8,769.6L504.1,767.0L502.5,763.5L502.0,759.5L505.0,757.9L505.9,754.2L510.7,753.3L507.4,750.8L509.9,748.3L510.5,746.8L508.6,746.2L510.2,745.3L511.8,737.4L511.8,737.4Z " data-id="SE.GV" data-name="Gävleborg" id="SE.GV"/>
utf-8utf-8<path d="M371.9,1233.6L369.9,1233.2L365.7,1229.2L363.0,1225.1L360.1,1218.5L355.2,1213.3L354.7,1208.9L356.0,1202.5L358.0,1202.1L359.2,1198.9L356.6,1196.7L352.5,1188.4L348.8,1184.5L344.2,1185.5L342.2,1189.5L335.6,1191.4L314.6,1189.5L307.1,1186.9L304.2,1184.7L298.4,1176.7L284.1,1202.0L285.8,1207.5L282.9,1211.7L274.0,1215.6L269.7,1216.9L267.7,1221.4L263.2,1220.5L258.8,1218.6L249.8,1219.4L242.9,1218.9L244.9,1223.9L242.1,1234.0L243.0,1238.9L241.2,1242.4L240.6,1250.1L240.0,1251.7L236.4,1255.1L233.1,1259.4L229.0,1266.4L223.4,1270.8L218.5,1275.6L215.0,1277.9L208.8,1281.4L207.6,1284.6L201.5,1288.9L197.2,1295.5L195.9,1296.9L194.2,1298.2L192.9,1299.5L192.4,1303.6L193.6,1306.6L198.6,1311.8L199.6,1311.5L202.2,1308.6L205.1,1306.7L205.8,1305.0L219.3,1302.4L227.7,1303.8L230.4,1305.4L233.9,1306.4L237.4,1308.4L238.4,1310.2L239.2,1313.7L242.3,1316.1L247.3,1318.1L251.8,1312.7L254.4,1312.1L262.8,1315.7L269.5,1311.7L274.7,1311.2L276.8,1310.4L281.6,1311.2L288.2,1314.5L291.7,1318.2L295.9,1325.6L301.3,1328.6L305.2,1328.4L308.1,1324.6L309.8,1319.2L309.1,1317.3L305.7,1313.6L306.0,1308.1L306.0,1302.0L306.6,1299.9L308.4,1298.3L310.8,1297.5L320.8,1296.0L335.5,1291.0L339.9,1290.2L343.4,1290.1L351.2,1293.2L353.5,1296.7L356.9,1298.7L363.2,1298.0L367.6,1294.8L372.1,1293.2L376.2,1293.7L374.4,1288.9L374.8,1288.5L381.0,1289.4L393.1,1288.9L397.1,1289.2L409.4,1292.0L408.5,1288.6L404.5,1284.6L403.4,1281.7L405.7,1276.8L404.8,1273.4L404.8,1264.4L405.4,1263.3L407.9,1262.6L411.2,1265.1L413.3,1263.5L415.6,1256.9L414.2,1254.5L412.1,1253.9L410.9,1251.6L414.5,1247.4L414.5,1246.2L412.5,1245.8L410.5,1243.6L406.9,1241.9L404.0,1241.3L395.8,1236.8L393.8,1235.0L371.9,1233.6Z " data-id="SE.JO" data-name="Jönköping" id="SE.JO"/>
utf-8utf-8<path d="M504.6,1303.5L504.3,1304.2L507.3,1305.4L504.6,1303.5Z M499.5,1296.0L497.1,1296.2L496.4,1297.5L497.6,1299.2L500.1,1298.0L499.5,1296.0Z M519.5,1287.9L518.7,1286.8L518.2,1287.5L519.5,1287.9Z M542.6,1277.0L541.6,1275.3L537.7,1276.8L533.6,1281.4L533.4,1283.3L533.9,1289.8L529.7,1294.2L529.1,1302.7L526.1,1309.4L522.3,1315.7L519.0,1322.8L518.0,1327.2L516.9,1328.5L510.0,1329.6L508.6,1330.8L496.7,1357.7L496.1,1361.0L494.4,1363.6L493.1,1368.3L493.5,1378.2L496.2,1384.6L495.7,1386.4L496.2,1396.6L497.8,1399.7L498.3,1404.5L499.9,1405.8L505.2,1403.3L508.8,1395.7L510.7,1389.9L510.6,1384.2L513.3,1377.3L514.6,1370.1L514.0,1369.7L517.7,1362.7L518.5,1356.8L522.3,1345.1L522.8,1339.4L523.2,1338.4L528.6,1334.0L529.4,1328.0L531.3,1325.8L531.2,1323.5L529.6,1319.7L534.5,1314.2L531.1,1311.8L534.9,1310.3L536.3,1308.9L536.9,1304.3L540.0,1299.3L540.7,1295.4L542.5,1294.7L543.5,1290.3L543.1,1288.5L540.7,1285.2L543.2,1281.3L545.0,1279.9L547.4,1279.7L544.5,1275.9L542.6,1277.0Z M508.5,1247.3L503.8,1247.3L502.1,1249.9L504.9,1250.1L508.5,1247.3Z M504.5,1227.2L505.0,1224.4L500.7,1223.6L500.1,1224.9L504.5,1227.2Z M505.3,1218.8L502.9,1220.5L507.5,1223.9L510.8,1223.7L505.3,1218.8Z M393.8,1235.0L395.8,1236.8L404.0,1241.3L406.9,1241.9L410.5,1243.6L412.5,1245.8L414.5,1246.2L414.5,1247.4L410.9,1251.6L412.1,1253.9L414.2,1254.5L415.6,1256.9L413.3,1263.5L411.2,1265.1L407.9,1262.6L405.4,1263.3L404.8,1264.4L404.8,1273.4L405.7,1276.8L403.4,1281.7L404.5,1284.6L408.5,1288.6L409.4,1292.0L411.8,1293.4L415.1,1299.2L421.2,1301.3L428.9,1308.8L434.3,1313.8L437.9,1319.4L438.2,1324.5L436.2,1326.2L433.7,1326.7L425.6,1326.7L422.4,1327.3L416.7,1325.0L415.0,1324.9L411.6,1326.3L414.9,1336.3L414.7,1337.3L411.8,1339.2L407.6,1339.2L401.4,1342.0L400.8,1342.8L404.1,1353.1L404.3,1366.7L401.4,1369.8L400.7,1374.3L401.5,1375.5L403.8,1373.6L407.9,1373.3L409.9,1374.1L416.2,1374.5L417.8,1372.4L422.1,1373.2L429.0,1378.3L434.4,1381.7L441.8,1387.8L447.4,1390.6L458.4,1393.4L466.0,1392.2L466.0,1392.2L467.6,1382.7L469.1,1378.6L472.8,1372.5L473.5,1369.2L476.1,1369.0L476.6,1360.3L478.2,1357.1L482.9,1354.7L485.1,1356.0L489.2,1354.9L488.9,1347.5L486.9,1343.2L490.0,1341.9L495.2,1342.7L496.2,1342.4L496.4,1339.7L495.6,1339.3L492.7,1341.0L491.5,1340.4L490.6,1338.1L492.6,1331.4L491.7,1326.3L494.1,1322.0L491.2,1318.8L490.7,1314.6L493.5,1312.6L490.2,1310.3L495.8,1311.6L497.0,1309.1L498.5,1308.9L498.7,1310.3L503.0,1311.0L500.0,1306.9L501.3,1306.3L498.5,1302.7L496.5,1302.5L492.5,1298.5L490.8,1295.9L489.9,1292.9L490.3,1290.1L492.6,1288.4L489.9,1284.7L491.1,1282.5L497.7,1279.7L496.2,1278.6L497.9,1276.6L494.7,1275.0L495.5,1272.5L497.6,1271.9L503.0,1272.7L502.2,1270.6L506.1,1268.7L504.3,1268.3L502.4,1266.3L502.7,1264.9L505.5,1263.7L504.2,1261.8L506.8,1262.3L500.4,1252.6L497.1,1251.7L490.2,1251.5L490.9,1248.2L493.0,1244.6L494.1,1248.5L498.9,1243.0L495.9,1241.8L495.0,1240.6L498.1,1241.1L498.2,1240.1L493.8,1235.2L499.5,1237.2L505.5,1237.6L504.2,1236.0L506.1,1236.0L505.0,1234.4L500.2,1232.9L501.2,1232.1L488.2,1222.0L482.9,1219.6L477.5,1214.1L489.0,1220.5L496.9,1227.9L498.2,1228.8L504.7,1230.5L501.8,1229.0L481.1,1214.1L481.0,1213.3L484.0,1213.3L482.7,1211.8L488.4,1213.7L490.2,1214.9L491.1,1212.3L490.4,1211.1L492.0,1209.5L486.7,1207.8L483.0,1204.0L484.6,1202.3L497.0,1211.1L494.0,1211.2L494.4,1214.1L497.9,1214.6L500.4,1211.4L503.2,1214.5L507.6,1216.2L507.9,1213.7L505.2,1212.0L504.2,1210.3L507.7,1211.8L509.2,1211.8L505.2,1208.3L504.3,1205.4L501.9,1206.5L501.0,1205.5L499.8,1203.4L496.1,1203.0L492.5,1198.5L490.7,1193.2L487.7,1190.8L482.1,1191.0L476.3,1187.9L469.9,1188.5L464.2,1188.0L456.8,1189.8L455.3,1190.6L453.5,1193.9L446.9,1193.9L441.6,1193.1L440.0,1194.0L441.5,1195.7L441.2,1199.2L446.2,1204.9L443.9,1209.7L445.7,1214.7L441.5,1221.0L435.4,1222.7L432.7,1221.7L426.3,1220.7L417.0,1217.9L415.0,1217.9L408.9,1219.7L402.6,1227.4L395.5,1229.9L394.5,1232.4L393.8,1235.0Z " data-id="SE.KA" data-name="Kalmar" id="SE.KA"/>
utf-8utf-8<path d="M254.9,799.9L247.4,798.0L188.1,791.5L182.6,788.5L180.2,784.4L177.5,781.0L173.0,776.5L169.3,771.8L161.6,764.1L163.4,755.9L165.1,753.2L156.5,748.5L148.1,748.9L136.0,744.7L129.3,739.3L113.4,730.8L74.1,723.4L72.0,723.7L72.6,727.9L64.6,784.1L65.9,785.6L76.3,792.3L80.5,794.3L87.7,799.9L93.5,801.4L99.3,801.6L102.1,802.3L104.9,803.8L129.2,823.4L130.3,825.7L128.5,836.2L127.5,839.3L126.0,841.8L120.4,847.7L118.5,857.8L118.3,858.2L122.7,864.5L154.0,885.0L158.0,888.4L160.4,891.0L164.3,897.4L169.5,900.0L182.6,913.5L191.6,924.3L195.0,926.3L204.9,929.4L207.5,930.8L224.4,947.0L234.2,953.5L236.3,954.2L239.7,952.1L235.3,948.1L236.9,947.4L241.5,948.6L248.9,949.1L253.7,953.2L256.5,957.3L259.5,960.9L261.7,964.3L279.2,972.2L302.4,974.3L307.1,973.8L304.9,969.6L305.9,965.3L309.6,963.3L312.5,962.9L314.0,965.4L319.9,967.9L327.8,969.1L347.5,974.6L350.2,976.0L367.8,989.4L368.5,987.7L372.0,984.0L375.4,978.5L378.6,978.6L384.8,980.3L386.4,979.8L389.6,976.3L388.5,970.1L387.4,969.3L390.6,962.0L389.9,959.9L395.2,956.4L399.8,956.8L404.6,955.4L412.1,955.7L413.9,956.4L415.7,956.0L422.7,958.1L424.7,959.6L427.5,965.5L431.7,967.0L440.1,967.6L443.8,967.3L448.8,966.1L452.8,963.9L456.2,959.0L458.9,956.7L471.2,954.4L472.8,953.7L472.5,952.1L471.5,950.9L467.0,947.9L460.7,940.5L455.5,936.3L452.4,934.4L447.5,932.8L442.3,929.5L433.1,920.1L428.3,917.2L423.2,911.4L422.8,906.4L427.4,903.8L433.6,897.3L438.1,890.5L438.1,889.0L433.2,883.2L428.1,880.0L424.1,876.9L422.7,874.5L418.9,869.7L413.6,864.7L410.5,863.8L392.9,861.2L382.4,857.5L379.3,855.5L373.2,850.4L371.9,844.2L369.8,840.5L366.0,837.2L348.9,826.1L329.3,809.5L323.7,804.1L320.7,807.2L317.3,809.9L284.1,809.9L281.0,806.4L279.4,802.1L263.3,798.9L254.9,799.9Z " data-id="SE.KO" data-name="Dalarna" id="SE.KO"/>
utf-8utf-8<path d="M397.1,1289.2L393.1,1288.9L381.0,1289.4L374.8,1288.5L374.4,1288.9L376.2,1293.7L372.1,1293.2L367.6,1294.8L363.2,1298.0L356.9,1298.7L353.5,1296.7L351.2,1293.2L343.4,1290.1L339.9,1290.2L335.5,1291.0L320.8,1296.0L310.8,1297.5L308.4,1298.3L306.6,1299.9L306.0,1302.0L306.0,1308.1L305.7,1313.6L309.1,1317.3L309.8,1319.2L308.1,1324.6L305.2,1328.4L301.3,1328.6L295.9,1325.6L291.7,1318.2L288.2,1314.5L281.6,1311.2L276.8,1310.4L274.7,1311.2L269.5,1311.7L262.8,1315.7L254.4,1312.1L251.8,1312.7L247.3,1318.1L247.9,1320.2L246.3,1323.7L241.7,1326.8L234.5,1328.3L231.1,1329.8L218.2,1331.3L215.8,1335.4L216.1,1345.9L216.5,1347.7L220.2,1353.9L226.8,1361.6L230.0,1366.7L233.2,1379.4L236.1,1382.2L242.8,1382.2L279.4,1375.8L283.6,1374.3L285.1,1370.5L286.3,1369.5L290.3,1369.0L294.0,1370.8L304.2,1370.7L307.0,1371.1L311.7,1372.6L328.2,1376.0L333.3,1377.5L343.2,1383.8L345.5,1384.7L358.7,1387.3L362.7,1387.0L365.4,1385.1L368.2,1381.9L374.5,1378.7L378.6,1377.7L381.4,1378.0L384.2,1379.3L388.8,1380.0L391.3,1377.2L393.1,1376.7L399.8,1376.9L401.5,1375.5L400.7,1374.3L401.4,1369.8L404.3,1366.7L404.1,1353.1L400.8,1342.8L401.4,1342.0L407.6,1339.2L411.8,1339.2L414.7,1337.3L414.9,1336.3L411.6,1326.3L415.0,1324.9L416.7,1325.0L422.4,1327.3L425.6,1326.7L433.7,1326.7L436.2,1326.2L438.2,1324.5L437.9,1319.4L434.3,1313.8L428.9,1308.8L421.2,1301.3L415.1,1299.2L411.8,1293.4L409.4,1292.0L397.1,1289.2Z " data-id="SE.KR" data-name="Kronoberg" id="SE.KR"/>
utf-8utf-8<path d="M350.2,976.0L347.5,974.6L327.8,969.1L319.9,967.9L314.0,965.4L312.5,962.9L309.6,963.3L305.9,965.3L304.9,969.6L307.1,973.8L302.4,974.3L279.2,972.2L280.1,976.1L273.0,979.2L271.8,980.1L273.2,982.2L277.7,984.7L278.8,986.8L280.6,996.8L281.1,1004.2L282.9,1011.5L286.1,1018.3L286.9,1025.5L284.3,1025.2L283.6,1026.1L284.0,1030.4L287.7,1034.5L283.8,1038.9L280.2,1046.3L278.5,1050.4L277.3,1055.0L276.7,1061.7L276.7,1065.5L279.9,1078.0L280.0,1082.5L279.1,1087.0L280.8,1090.1L285.3,1097.0L288.0,1100.8L288.5,1104.7L289.6,1106.4L295.1,1111.8L297.6,1117.7L298.4,1118.9L305.1,1120.3L306.8,1121.8L310.5,1119.7L312.3,1117.8L315.8,1118.9L319.0,1124.2L321.0,1126.0L327.0,1129.0L331.0,1126.2L333.9,1124.9L343.9,1122.9L348.0,1119.4L354.1,1112.5L356.5,1110.6L365.5,1106.3L370.5,1106.0L373.7,1106.8L378.6,1106.3L387.9,1103.1L390.1,1101.9L392.1,1099.3L392.4,1097.7L391.7,1094.7L392.4,1093.7L398.8,1091.7L402.5,1090.6L396.6,1087.2L394.6,1084.8L394.8,1083.7L399.3,1079.5L400.2,1078.2L406.6,1075.9L407.8,1073.3L404.0,1066.7L404.5,1065.6L406.2,1063.4L405.1,1062.1L401.6,1062.3L396.8,1058.4L390.3,1054.2L392.1,1049.8L389.3,1046.1L390.3,1042.7L396.8,1041.3L398.4,1040.5L398.3,1035.9L395.5,1032.4L396.9,1030.1L396.9,1028.0L395.8,1027.3L391.5,1027.1L388.7,1019.6L387.2,1018.2L379.9,1017.0L379.1,1012.8L379.7,1003.2L376.1,998.0L370.3,996.0L370.5,992.4L368.8,990.8L367.8,989.4L350.2,976.0Z " data-id="SE.OR" data-name="Orebro" id="SE.OR"/>
utf-8utf-8<path d="M509.9,1190.9L510.0,1189.6L508.2,1188.7L506.7,1190.2L508.0,1191.3L509.9,1190.9Z M517.9,1179.2L516.8,1181.2L519.1,1181.9L520.1,1181.0L517.9,1179.2Z M516.1,1173.8L517.5,1172.0L516.7,1171.6L516.1,1173.8Z M512.0,1171.2L512.8,1168.9L509.4,1166.9L508.9,1169.2L512.0,1171.2Z M509.5,1156.7L503.5,1158.0L504.8,1161.5L509.4,1165.9L511.1,1166.2L514.5,1165.1L514.8,1163.8L511.3,1164.3L507.5,1161.8L507.2,1160.9L509.5,1156.7Z M518.4,1154.5L518.9,1152.9L517.0,1153.7L518.4,1154.5Z M519.1,1147.2L516.5,1145.6L516.4,1146.5L519.1,1147.2Z M515.8,1144.7L512.1,1142.1L510.9,1143.1L515.7,1145.2L515.8,1144.7Z M402.5,1090.6L398.8,1091.7L392.4,1093.7L391.7,1094.7L392.4,1097.7L392.1,1099.3L390.1,1101.9L387.9,1103.1L378.6,1106.3L373.7,1106.8L370.5,1106.0L365.5,1106.3L356.5,1110.6L354.1,1112.5L348.0,1119.4L343.9,1122.9L333.9,1124.9L331.0,1126.2L327.0,1129.0L298.4,1176.7L304.2,1184.7L307.1,1186.9L314.6,1189.5L335.6,1191.4L342.2,1189.5L344.2,1185.5L348.8,1184.5L352.5,1188.4L356.6,1196.7L359.2,1198.9L358.0,1202.1L356.0,1202.5L354.7,1208.9L355.2,1213.3L360.1,1218.5L363.0,1225.1L365.7,1229.2L369.9,1233.2L371.9,1233.6L393.8,1235.0L394.5,1232.4L395.5,1229.9L402.6,1227.4L408.9,1219.7L415.0,1217.9L417.0,1217.9L426.3,1220.7L432.7,1221.7L435.4,1222.7L441.5,1221.0L445.7,1214.7L443.9,1209.7L446.2,1204.9L441.2,1199.2L441.5,1195.7L440.0,1194.0L441.6,1193.1L446.9,1193.9L453.5,1193.9L455.3,1190.6L456.8,1189.8L464.2,1188.0L469.9,1188.5L476.3,1187.9L482.1,1191.0L487.7,1190.8L490.7,1193.2L492.5,1198.5L496.1,1203.0L499.8,1203.4L499.8,1203.4L497.4,1203.3L494.4,1199.0L496.7,1198.2L498.9,1201.6L502.3,1199.3L504.7,1200.3L505.3,1199.3L498.8,1195.5L501.5,1194.6L501.1,1193.1L502.9,1192.5L495.3,1185.4L497.7,1185.4L496.2,1183.4L492.4,1181.1L490.9,1179.1L495.0,1181.1L500.7,1185.1L505.9,1187.3L509.2,1180.3L506.6,1174.4L497.7,1170.6L501.8,1169.8L502.7,1167.4L505.2,1165.4L503.5,1165.2L498.4,1165.9L499.1,1167.0L496.7,1167.9L496.6,1165.9L490.1,1162.0L502.9,1163.6L497.3,1161.3L496.9,1157.3L495.9,1155.9L491.8,1155.1L472.5,1148.3L469.3,1148.0L471.7,1147.0L480.6,1149.0L485.9,1151.3L499.4,1153.5L501.2,1151.9L506.2,1150.9L508.1,1149.6L507.1,1148.0L508.9,1147.4L513.3,1147.3L515.3,1146.4L510.1,1143.3L506.7,1142.7L506.2,1140.2L503.8,1140.2L504.8,1138.7L502.5,1138.4L500.7,1137.2L500.0,1135.4L500.6,1133.3L496.3,1132.5L497.2,1134.9L495.5,1133.8L486.9,1131.1L476.6,1131.3L469.4,1128.7L468.5,1129.6L467.4,1134.5L466.7,1135.0L461.4,1130.1L456.3,1132.3L452.2,1130.9L450.6,1131.7L449.9,1130.6L446.9,1130.9L448.4,1129.9L453.4,1130.2L453.9,1129.2L451.2,1127.1L451.1,1126.3L481.6,1128.7L499.5,1130.2L495.1,1126.8L490.7,1125.1L485.5,1124.0L470.0,1123.7L465.7,1121.0L463.6,1117.0L458.8,1113.2L454.7,1108.8L439.8,1101.3L434.2,1097.3L419.3,1090.1L414.7,1087.7L413.1,1087.8L410.3,1089.5L409.4,1091.7L407.4,1092.3L402.5,1090.6Z " data-id="SE.OG" data-name="Östergötland" id="SE.OG"/>
utf-8utf-8<path d="M560.3,1116.5L558.7,1115.8L555.0,1119.1L556.9,1120.9L558.3,1118.2L560.6,1117.9L560.3,1116.5Z M577.5,1111.8L574.3,1109.5L568.3,1106.8L568.6,1107.7L573.5,1110.8L577.5,1111.8Z M498.6,1031.2L493.5,1031.4L445.5,1037.7L444.4,1040.1L446.4,1042.4L448.4,1043.2L445.7,1046.6L439.7,1048.2L435.1,1048.4L429.4,1047.4L425.6,1047.4L422.2,1048.4L415.3,1056.4L414.6,1061.5L411.2,1063.8L404.5,1065.6L404.0,1066.7L407.8,1073.3L406.6,1075.9L400.2,1078.2L399.3,1079.5L394.8,1083.7L394.6,1084.8L396.6,1087.2L402.5,1090.6L407.4,1092.3L409.4,1091.7L410.3,1089.5L413.1,1087.8L414.7,1087.7L419.3,1090.1L434.2,1097.3L439.8,1101.3L454.7,1108.8L458.8,1113.2L463.6,1117.0L465.7,1121.0L470.0,1123.7L485.5,1124.0L490.7,1125.1L495.1,1126.8L499.5,1130.2L512.1,1131.2L519.7,1129.4L521.7,1129.4L518.3,1126.4L514.1,1126.3L515.7,1124.4L518.9,1124.8L524.4,1127.1L526.4,1127.2L530.5,1123.2L530.4,1122.5L524.9,1122.5L523.1,1121.6L523.5,1117.7L519.5,1117.0L524.4,1115.5L531.5,1119.2L541.4,1119.3L541.2,1117.3L543.7,1116.9L548.3,1117.0L549.8,1115.5L549.1,1113.9L545.7,1110.7L556.6,1112.4L559.0,1111.5L555.4,1109.7L556.3,1103.5L554.1,1100.7L557.1,1101.7L564.1,1105.4L567.1,1104.6L562.8,1101.3L561.7,1099.9L567.3,1100.8L568.9,1099.9L569.4,1098.2L567.7,1095.3L564.9,1093.3L565.2,1092.8L562.5,1091.0L559.5,1090.0L547.3,1089.1L543.8,1084.1L541.1,1075.2L538.2,1071.3L535.2,1064.0L539.1,1060.2L539.3,1057.9L538.9,1052.2L540.6,1050.0L546.4,1049.3L547.8,1048.7L548.0,1046.5L546.9,1045.4L544.2,1042.0L538.8,1039.0L533.2,1037.2L530.4,1035.4L527.6,1032.2L523.9,1030.5L519.2,1029.4L512.6,1030.1L503.4,1028.9L498.6,1031.2Z " data-id="SE.SD" data-name="Södermanland" id="SE.SD"/>
utf-8utf-8<path d="M502.4,1027.2L501.3,1025.4L497.6,1016.6L495.8,1013.5L485.2,1000.5L484.5,998.0L488.3,996.2L489.4,995.0L489.2,989.3L497.4,990.8L502.3,991.5L505.3,994.1L506.4,994.4L517.0,989.3L518.1,987.8L518.7,981.2L518.2,980.0L514.8,978.3L514.1,977.3L517.4,971.6L522.6,970.7L525.3,967.7L530.3,953.8L530.7,951.2L530.0,949.4L528.2,948.2L515.0,941.7L509.4,943.0L506.2,944.5L499.1,943.9L494.1,943.1L491.6,943.6L490.3,944.6L489.1,948.8L480.5,952.7L476.1,953.2L472.5,952.1L472.8,953.7L471.2,954.4L458.9,956.7L456.2,959.0L452.8,963.9L448.8,966.1L443.8,967.3L440.1,967.6L431.7,967.0L427.5,965.5L424.7,959.6L422.7,958.1L415.7,956.0L413.9,956.4L412.1,955.7L404.6,955.4L399.8,956.8L395.2,956.4L389.9,959.9L390.6,962.0L387.4,969.3L388.5,970.1L389.6,976.3L386.4,979.8L384.8,980.3L378.6,978.6L375.4,978.5L372.0,984.0L368.5,987.7L367.8,989.4L368.8,990.8L370.5,992.4L370.3,996.0L376.1,998.0L379.7,1003.2L379.1,1012.8L379.9,1017.0L387.2,1018.2L388.7,1019.6L391.5,1027.1L395.8,1027.3L396.9,1028.0L396.9,1030.1L395.5,1032.4L398.3,1035.9L398.4,1040.5L396.8,1041.3L390.3,1042.7L389.3,1046.1L392.1,1049.8L390.3,1054.2L396.8,1058.4L401.6,1062.3L405.1,1062.1L406.2,1063.4L404.5,1065.6L411.2,1063.8L414.6,1061.5L415.3,1056.4L422.2,1048.4L425.6,1047.4L429.4,1047.4L435.1,1048.4L439.7,1048.2L445.7,1046.6L448.4,1043.2L446.4,1042.4L444.4,1040.1L445.5,1037.7L493.5,1031.4L498.6,1031.2L503.4,1028.9L502.4,1027.2Z " data-id="SE.VM" data-name="Västmanland" id="SE.VM"/>
utf-8utf-8<path d="M188.7,1297.0L179.3,1293.4L177.9,1292.3L177.0,1289.6L178.4,1287.1L178.4,1284.6L170.6,1283.7L165.7,1281.6L163.4,1282.3L160.1,1281.6L155.7,1277.8L146.1,1276.1L142.4,1278.7L139.5,1282.1L134.5,1282.9L132.3,1281.2L128.2,1273.9L129.6,1268.3L128.5,1265.4L121.9,1260.1L121.2,1258.3L120.5,1249.5L117.6,1245.8L104.1,1249.9L97.5,1250.8L87.3,1249.2L83.5,1249.6L84.4,1254.6L87.2,1260.2L84.1,1263.0L84.0,1264.9L85.4,1270.1L88.2,1271.9L87.5,1275.0L90.8,1274.6L91.6,1276.6L92.7,1274.4L93.2,1266.6L97.1,1263.4L100.7,1267.9L101.0,1269.2L98.4,1271.1L102.6,1271.1L97.8,1276.1L99.5,1277.4L102.2,1276.6L106.6,1280.7L106.7,1284.2L104.8,1284.7L102.8,1287.6L107.0,1287.8L108.3,1288.4L103.5,1289.1L105.3,1290.4L111.7,1291.9L108.2,1294.7L112.5,1295.0L113.5,1299.3L116.3,1302.3L116.8,1303.8L115.3,1305.6L118.1,1309.2L120.4,1311.3L126.9,1314.6L128.5,1318.5L127.5,1320.4L130.9,1326.2L136.6,1328.0L151.6,1336.7L151.6,1340.4L153.9,1344.8L158.5,1348.9L160.3,1352.8L165.2,1356.6L169.4,1356.9L172.8,1355.9L177.6,1356.3L179.0,1357.7L181.1,1362.8L184.3,1368.0L183.6,1375.1L182.9,1376.4L184.7,1377.9L189.0,1379.9L189.5,1386.3L193.3,1388.3L205.9,1389.9L209.4,1391.9L212.7,1391.5L220.2,1385.5L226.3,1382.7L231.6,1381.7L236.1,1382.2L233.2,1379.4L230.0,1366.7L226.8,1361.6L220.2,1353.9L216.5,1347.7L216.1,1345.9L215.8,1335.4L218.2,1331.3L231.1,1329.8L234.5,1328.3L241.7,1326.8L246.3,1323.7L247.9,1320.2L247.3,1318.1L242.3,1316.1L239.2,1313.7L238.4,1310.2L237.4,1308.4L233.9,1306.4L230.4,1305.4L227.7,1303.8L219.3,1302.4L205.8,1305.0L205.1,1306.7L202.2,1308.6L199.6,1311.5L198.6,1311.8L193.6,1306.6L192.4,1303.6L192.9,1299.5L194.2,1298.2L188.7,1297.0Z " data-id="SE.HA" data-name="Halland" id="SE.HA"/>
utf-8utf-8<path d="M261.7,964.3L259.5,960.9L256.5,957.3L253.7,953.2L248.9,949.1L241.5,948.6L236.9,947.4L235.3,948.1L239.7,952.1L236.3,954.2L234.2,953.5L224.4,947.0L207.5,930.8L204.9,929.4L195.0,926.3L191.6,924.3L182.6,913.5L169.5,900.0L164.3,897.4L160.4,891.0L158.0,888.4L154.0,885.0L122.7,864.5L118.3,858.2L117.8,859.5L116.0,860.1L106.3,859.0L101.3,859.1L82.0,862.9L79.7,864.4L80.2,866.7L84.0,871.8L85.9,875.5L88.5,883.7L90.1,887.6L92.8,892.0L102.9,902.8L114.0,918.7L115.5,921.9L116.2,925.3L115.9,929.4L112.5,936.0L108.2,939.9L107.0,943.2L108.1,947.0L111.0,954.2L111.6,958.2L110.9,963.1L108.9,967.2L106.0,970.6L93.5,981.0L81.4,987.7L77.9,988.2L63.9,987.3L59.5,988.4L56.2,990.6L55.9,994.5L61.6,1000.4L61.8,1002.1L61.4,1009.4L58.4,1013.0L56.4,1014.5L45.1,1018.7L43.6,1020.5L43.5,1023.4L44.3,1025.9L55.4,1048.2L58.9,1060.7L58.8,1060.8L66.6,1062.5L70.9,1061.1L81.9,1066.2L83.7,1066.1L85.0,1064.6L84.8,1061.8L86.4,1060.8L91.4,1060.1L95.6,1061.3L99.3,1065.4L107.6,1067.7L115.0,1066.2L116.5,1066.3L116.5,1067.7L112.4,1068.3L113.0,1070.2L116.7,1071.6L124.7,1072.5L126.1,1074.2L129.5,1073.6L131.1,1071.1L133.9,1069.2L137.1,1069.7L143.0,1075.1L145.6,1083.0L152.7,1090.2L160.5,1109.8L192.7,1118.0L200.4,1118.0L206.3,1116.0L206.0,1114.9L201.6,1110.3L200.2,1108.4L202.5,1097.7L207.8,1088.9L212.9,1084.5L215.6,1083.1L217.8,1082.7L271.3,1083.8L273.6,1084.5L279.1,1087.0L280.0,1082.5L279.9,1078.0L276.7,1065.5L276.7,1061.7L277.3,1055.0L278.5,1050.4L280.2,1046.3L283.8,1038.9L287.7,1034.5L284.0,1030.4L283.6,1026.1L284.3,1025.2L286.9,1025.5L286.1,1018.3L282.9,1011.5L281.1,1004.2L280.6,996.8L278.8,986.8L277.7,984.7L273.2,982.2L271.8,980.1L273.0,979.2L280.1,976.1L279.2,972.2L261.7,964.3Z " data-id="SE.VR" data-name="Värmland" id="SE.VR"/>
utf-8utf-8<path d="M378.2,506.8L369.1,504.8L363.3,506.0L359.9,502.9L357.3,498.7L353.8,496.2L336.5,488.2L334.3,486.2L333.1,483.8L331.8,479.5L328.9,477.0L325.7,477.4L323.6,483.3L321.6,483.9L319.1,481.4L318.3,479.5L313.7,475.9L299.1,468.8L297.4,467.4L292.6,464.7L293.2,463.9L298.1,462.3L296.7,460.7L288.2,455.4L281.1,452.8L276.3,452.6L273.1,450.1L269.7,444.5L263.0,441.3L258.7,440.4L256.2,439.3L244.9,429.2L240.0,426.3L207.7,413.9L207.7,414.0L206.3,417.3L176.7,449.2L157.3,471.2L183.0,481.2L193.1,482.8L196.2,484.1L198.1,486.7L204.7,512.2L204.0,516.2L192.1,532.4L190.7,533.5L188.7,533.5L129.2,524.7L108.7,528.1L90.6,535.5L84.9,539.3L69.9,555.2L55.7,571.9L46.1,578.3L51.2,589.3L51.5,591.8L50.5,593.9L34.4,612.0L56.6,643.5L47.5,652.1L46.7,653.8L47.3,656.1L53.8,672.9L53.9,675.4L52.9,678.5L50.4,683.8L49.6,686.9L49.9,689.1L71.8,722.1L72.0,723.7L74.1,723.4L113.4,730.8L129.3,739.3L136.0,744.7L148.1,748.9L156.5,748.5L165.1,753.2L163.4,755.9L161.6,764.1L169.3,771.8L173.0,776.5L177.5,781.0L180.2,784.4L182.6,788.5L188.1,791.5L247.4,798.0L254.9,799.9L263.3,798.9L266.2,794.5L267.1,784.4L268.5,778.6L270.8,774.5L277.1,768.2L281.8,767.9L288.6,775.0L291.6,775.7L291.9,774.3L290.5,771.4L292.6,770.7L296.0,772.4L299.0,772.2L300.7,769.9L304.6,769.5L309.0,770.0L311.6,771.5L313.8,771.6L314.8,770.1L314.0,764.6L315.1,763.8L314.7,758.1L312.9,753.7L313.5,753.1L336.0,740.8L338.2,738.2L338.7,736.0L337.5,733.5L331.4,727.2L329.0,722.6L321.4,721.9L315.2,723.4L309.4,722.4L304.1,720.8L298.2,717.5L294.1,714.7L288.5,709.3L284.4,706.8L282.8,703.6L285.0,702.0L280.8,688.3L283.0,687.4L294.1,686.4L309.2,687.2L345.3,681.7L367.8,675.4L403.6,673.9L407.0,673.1L409.9,671.6L413.5,667.1L429.8,652.2L434.9,650.0L454.7,645.9L454.9,644.4L383.5,602.3L379.3,597.7L374.9,595.3L371.5,594.5L368.9,593.1L365.0,582.3L362.8,579.0L357.5,573.7L359.3,571.1L365.3,570.0L372.7,567.6L377.5,566.9L385.9,568.0L404.5,566.4L407.7,565.5L412.8,563.1L414.2,557.0L414.3,550.6L421.5,532.6L378.2,506.8Z " data-id="SE.JA" data-name="Jämtland" id="SE.JA"/>
utf-8utf-8<path d="M805.1,415.8L803.4,415.0L805.2,417.0L805.1,415.8Z M814.4,412.8L815.0,412.0L812.5,410.8L814.4,412.8Z M811.5,412.3L809.0,410.0L808.3,410.7L809.9,412.3L811.5,412.3Z M826.8,405.5L825.0,405.3L828.3,406.9L826.8,405.5Z M823.2,405.5L822.2,403.1L819.1,401.2L815.4,401.3L820.5,404.4L823.2,405.5Z M822.9,398.7L815.6,395.6L813.3,395.7L816.0,398.7L820.0,399.2L822.9,398.7Z M817.6,391.9L816.2,391.0L812.7,391.3L818.1,392.5L817.6,391.9Z M823.8,388.4L822.8,389.3L825.0,389.1L823.8,388.4Z M870.8,388.2L869.8,387.4L869.3,387.8L870.8,388.2Z M871.1,385.7L869.6,384.3L869.2,385.4L871.1,385.7Z M811.5,384.4L804.1,384.3L803.9,384.7L812.1,387.4L814.2,388.3L818.2,388.9L811.5,384.4Z M867.7,387.6L863.9,385.6L865.4,386.5L867.7,387.6Z M834.2,386.3L831.0,383.7L829.9,383.9L831.7,386.2L834.2,386.3Z M874.3,383.6L874.0,382.3L871.5,382.0L874.3,383.6Z M836.4,383.5L835.5,381.9L834.5,382.1L836.4,383.5Z M841.7,380.2L839.6,380.6L840.5,381.2L841.7,380.2Z M864.8,377.9L860.7,376.9L857.9,378.7L854.6,377.6L855.1,380.3L861.7,380.0L864.8,377.9Z M881.8,377.8L882.1,377.5L880.8,376.5L881.8,377.8Z M882.2,375.4L883.7,376.5L883.5,375.4L882.2,375.4Z M850.2,380.7L847.5,377.9L847.5,376.2L842.3,375.9L842.3,378.4L850.2,380.7Z M890.5,375.0L890.2,373.3L888.9,374.0L890.5,375.0Z M835.7,373.2L834.6,373.4L836.9,374.5L835.7,373.2Z M831.9,372.0L828.5,372.1L828.7,372.5L831.9,372.0Z M876.6,375.3L876.9,374.1L873.6,371.6L871.8,371.7L871.1,373.9L872.7,375.1L876.6,375.3Z M837.2,373.8L839.0,371.7L835.9,371.1L837.2,373.8Z M888.4,370.7L886.2,369.7L886.7,370.7L888.4,370.7Z M956.1,369.3L954.9,369.5L956.5,370.4L956.1,369.3Z M879.6,371.3L879.7,370.7L874.6,368.5L875.7,370.8L879.6,371.3Z M860.4,370.6L856.2,368.3L860.2,371.5L860.4,370.6Z M863.6,368.9L862.8,367.9L862.5,368.6L863.6,368.9Z M854.0,370.1L847.3,367.9L844.2,368.5L847.4,371.8L851.7,374.5L852.2,371.2L857.9,373.6L854.0,370.1Z M894.5,367.9L889.5,367.0L892.9,368.4L893.6,369.7L894.5,367.9Z M885.0,367.3L882.2,366.3L881.2,368.1L885.0,367.3Z M894.6,367.1L891.3,365.9L891.6,366.6L894.6,367.1Z M880.3,363.0L879.0,362.6L871.4,364.4L875.1,366.7L877.4,366.8L880.3,363.0Z M858.9,361.1L858.1,360.6L857.7,361.9L858.9,361.1Z M877.1,361.8L876.1,360.5L873.9,360.5L874.4,362.4L877.1,361.8Z M993.6,361.4L993.3,360.3L992.7,361.5L993.6,361.4Z M865.0,361.5L862.3,359.4L861.6,359.3L865.0,361.5Z M880.0,358.0L879.6,357.1L877.0,357.2L880.0,358.0Z M907.8,357.6L905.8,356.0L905.3,356.0L907.8,357.6Z M974.3,357.7L971.7,356.2L972.8,357.9L974.3,357.7Z M860.9,355.8L860.0,355.2L859.1,355.1L860.9,355.8Z M976.5,356.3L974.9,354.5L975.9,356.2L976.5,356.3Z M890.6,354.5L888.9,354.9L891.0,356.3L890.6,354.5Z M1000.0,354.3L999.1,354.2L999.3,354.7L1000.0,354.3Z M909.2,353.7L907.2,353.9L908.6,354.9L909.2,353.7Z M863.6,353.5L865.0,354.7L864.7,353.6L863.6,353.5Z M885.3,354.1L882.7,353.4L885.0,354.7L885.3,354.1Z M898.2,353.0L898.7,354.1L899.8,354.3L898.2,353.0Z M878.5,355.7L876.8,352.5L875.4,355.6L878.5,355.7Z M986.0,351.4L986.4,352.7L989.3,352.1L986.0,351.4Z M860.7,351.1L858.1,349.7L857.8,350.3L860.7,351.1Z M870.7,349.0L869.4,348.4L870.1,349.3L870.7,349.0Z M922.5,348.7L922.2,348.1L922.4,349.1L922.5,348.7Z M921.5,348.2L921.0,347.5L920.2,347.5L921.5,348.2Z M952.7,348.6L950.5,346.7L950.2,347.6L952.7,348.6Z M906.2,351.1L902.4,348.5L903.1,347.6L897.4,347.1L897.4,349.0L899.1,351.0L905.7,354.7L906.2,351.1Z M928.6,346.4L926.5,345.9L923.8,347.1L928.3,350.3L927.2,347.5L930.7,349.3L931.2,348.6L928.6,346.4Z M972.0,346.5L964.5,345.6L964.5,346.8L962.5,348.8L964.3,350.3L967.7,351.5L972.0,346.5Z M941.4,346.5L940.6,344.7L939.7,345.9L941.4,346.5Z M925.9,345.2L922.0,346.3L922.5,346.5L925.9,345.2Z M979.2,345.4L978.6,344.4L978.5,345.1L979.2,345.4Z M928.6,345.7L925.8,344.7L926.2,345.2L928.6,345.7Z M891.7,349.6L889.3,345.8L885.3,343.6L884.5,344.0L887.7,350.2L891.4,350.6L891.7,349.6Z M875.8,342.0L873.7,343.4L874.4,343.5L875.8,342.0Z M984.8,342.4L984.0,341.7L983.4,342.4L984.8,342.4Z M944.8,341.8L944.0,340.8L943.7,341.3L944.8,341.8Z M1000.0,340.8L999.8,340.5L998.8,340.5L1000.0,340.8Z M857.9,341.4L856.0,340.4L855.5,341.0L857.9,341.4Z M996.7,341.6L995.3,341.6L996.3,342.0L996.7,341.6Z M886.0,341.2L884.4,339.7L882.6,339.4L886.0,341.2Z M863.5,340.8L862.7,340.2L861.4,339.1L863.5,340.8Z M886.8,339.7L886.6,340.5L887.4,340.9L886.8,339.7Z M284.9,281.3L317.3,289.6L371.6,311.0L403.8,318.4L455.7,345.2L482.3,355.7L514.7,363.7L516.3,363.9L518.4,366.0L522.7,369.2L527.3,371.6L532.1,373.1L540.9,374.5L546.5,377.7L549.5,378.6L560.9,378.8L571.8,386.0L586.0,389.5L590.9,393.1L599.8,394.5L604.7,396.5L607.3,398.1L608.6,400.0L609.7,403.3L611.5,404.2L624.7,409.1L631.3,407.7L640.8,403.9L646.2,399.4L678.8,392.8L775.8,408.6L800.7,418.1L803.5,419.0L803.8,418.9L800.1,417.4L801.1,414.3L799.2,411.5L803.7,411.3L805.1,410.4L803.9,408.1L796.9,401.5L791.8,398.2L786.0,393.1L783.2,391.7L772.5,390.1L773.4,388.7L776.8,388.5L777.6,387.2L775.8,386.4L778.5,386.2L784.4,390.5L790.1,392.5L794.1,395.8L797.1,399.7L800.0,400.7L803.7,400.4L807.2,399.1L809.3,397.1L809.3,395.6L798.8,390.1L799.0,391.8L797.6,392.3L790.9,388.9L787.2,387.9L790.3,386.4L788.6,385.7L789.9,384.0L792.9,383.7L798.9,384.2L794.2,382.7L794.0,382.0L799.3,381.3L801.4,383.3L807.2,383.5L805.8,382.0L807.2,381.8L814.4,383.3L821.4,381.3L822.3,382.5L825.6,382.9L826.6,382.0L825.2,378.9L825.8,377.6L830.8,380.5L831.9,379.9L832.8,376.1L830.5,375.1L825.1,371.6L825.7,373.1L823.9,373.7L821.5,372.4L817.0,368.8L818.7,368.6L830.2,370.7L832.3,369.9L838.8,368.3L843.3,368.3L837.7,363.6L832.1,362.1L824.7,358.5L814.2,355.3L808.8,352.6L806.1,348.2L815.6,354.1L820.8,355.1L823.9,356.9L831.6,360.0L838.0,361.5L846.9,364.8L849.3,365.2L848.5,363.7L856.9,365.1L861.9,368.1L863.7,367.3L861.1,363.7L857.8,363.0L855.2,360.5L858.6,358.9L858.1,358.2L853.5,357.0L853.9,356.4L850.2,354.0L849.7,354.9L853.2,358.5L852.1,360.6L848.9,360.6L842.7,359.3L848.6,359.1L850.4,358.5L847.5,354.9L847.0,351.9L848.7,351.0L850.9,351.1L852.9,352.3L854.2,354.9L858.0,354.1L856.5,351.1L855.0,349.4L853.0,348.6L847.5,347.9L841.7,344.6L844.6,344.7L848.3,346.5L851.7,347.3L854.0,344.6L849.9,340.2L852.6,340.8L853.7,339.4L849.7,336.5L853.0,335.8L852.9,333.9L855.7,333.6L861.7,334.4L867.1,339.4L865.4,342.2L866.1,343.1L870.4,340.9L875.3,341.5L877.5,342.8L877.6,345.3L878.8,345.0L880.9,341.6L880.8,340.0L878.5,333.8L873.5,329.2L876.7,329.2L886.6,333.6L888.6,335.3L892.0,339.6L898.5,340.9L905.3,344.3L909.9,344.6L913.9,348.2L913.7,350.4L915.7,350.7L917.6,349.5L917.2,347.5L925.4,343.8L920.2,340.2L920.0,338.3L923.7,338.0L930.9,340.9L933.7,338.2L935.4,338.0L936.1,341.5L937.3,343.1L941.4,344.0L941.2,341.3L940.2,339.5L942.1,337.4L944.5,338.8L948.2,339.4L954.7,339.4L957.2,340.9L961.0,337.2L965.0,337.3L967.0,338.1L969.2,341.2L975.2,341.6L976.5,341.0L978.1,343.3L982.5,344.6L985.3,341.0L989.4,341.5L989.3,339.4L995.4,340.3L998.2,340.0L999.7,338.0L999.3,336.1L995.5,333.1L992.9,328.8L988.2,324.6L987.5,320.7L984.4,315.3L978.2,310.4L972.4,303.2L970.3,301.9L961.6,300.2L958.4,298.9L956.0,297.0L952.1,291.7L948.7,285.3L948.9,280.3L944.9,270.2L950.7,267.2L950.4,265.5L955.9,262.9L955.8,261.7L961.3,259.1L961.8,257.5L959.9,251.9L960.3,250.1L960.0,243.9L958.3,240.0L961.1,235.0L965.9,234.4L961.4,227.5L958.6,224.6L953.1,220.8L947.4,215.5L945.1,214.0L938.8,211.1L935.2,207.6L933.3,203.7L924.8,196.7L923.8,194.6L926.2,190.3L923.9,187.1L924.3,185.4L925.6,184.5L934.3,182.3L936.2,180.5L937.3,177.3L934.4,176.3L933.9,173.9L933.9,168.6L925.4,166.9L919.6,165.0L910.4,166.1L907.3,164.3L905.8,161.7L908.9,155.6L907.8,154.4L913.5,151.0L906.6,138.2L904.8,135.3L901.9,121.9L902.9,120.1L905.4,118.9L910.8,117.9L913.2,116.8L914.8,114.8L914.5,112.9L912.7,111.6L907.0,110.5L899.0,106.1L890.2,102.4L884.4,94.4L882.1,92.5L879.4,92.6L873.1,95.0L870.2,94.1L869.8,89.1L868.7,87.5L868.6,85.0L867.1,83.3L860.1,77.4L858.8,76.6L846.2,72.6L843.7,71.1L839.7,67.6L837.5,66.5L832.9,67.5L827.7,64.3L825.2,63.2L821.0,63.4L817.4,62.2L813.9,62.0L808.5,60.6L802.2,60.4L801.4,58.9L795.8,58.1L777.6,58.0L770.8,52.9L763.7,48.5L748.9,46.5L746.7,43.2L742.0,41.7L734.3,38.2L728.1,37.4L719.6,29.8L717.9,29.2L711.1,28.7L710.4,27.8L703.4,22.7L691.0,17.3L677.4,14.7L675.5,13.4L675.4,11.3L677.6,10.7L678.6,9.0L678.3,7.2L676.2,5.8L672.4,5.2L666.5,2.6L657.0,1.9L652.5,0.0L611.8,1.5L632.7,13.1L633.6,14.8L635.8,24.0L635.1,28.0L629.0,39.1L623.3,44.5L609.5,51.3L633.1,58.0L616.5,69.8L613.6,71.1L610.4,71.2L573.5,63.5L537.0,55.0L510.5,56.1L506.0,55.5L492.1,49.2L488.3,47.9L467.3,52.5L467.1,53.7L467.0,63.3L467.5,66.4L474.9,87.0L473.8,91.2L457.2,110.6L455.3,110.9L407.5,96.7L405.9,97.5L400.4,103.5L369.6,117.1L366.5,120.6L357.7,144.7L356.3,146.9L348.9,154.1L344.9,156.6L340.2,157.9L327.0,159.3L325.6,160.5L322.4,168.3L350.5,191.7L351.3,193.6L350.9,207.3L349.8,209.1L347.6,210.3L343.1,211.8L329.3,219.8L322.9,224.8L297.2,255.3L279.0,266.8L279.6,269.7L284.9,281.3Z " data-id="SE.NB" data-name="Norrbotten" id="SE.NB"/>
utf-8utf-8<path d="M529.1,732.9L531.6,730.4L531.4,729.2L526.8,729.3L528.0,733.2L529.1,732.9Z M539.8,697.2L539.3,697.4L539.5,697.7L539.8,697.2Z M554.9,681.7L552.3,679.7L548.1,680.0L547.4,681.2L554.3,683.1L554.9,681.7Z M552.9,671.3L548.4,670.6L547.5,671.6L546.3,676.0L548.3,678.3L552.8,678.8L556.5,677.9L558.7,673.8L558.8,672.3L555.8,670.9L552.9,671.3Z M562.4,670.5L564.6,667.4L563.5,667.4L561.4,669.8L562.4,670.5Z M545.5,670.0L545.2,667.5L541.9,668.6L544.2,670.5L545.5,670.0Z M533.3,655.6L534.2,654.0L532.4,654.5L533.3,655.6Z M596.0,645.4L595.7,641.8L593.6,645.9L596.0,645.4Z M584.0,641.8L586.4,640.4L587.4,638.3L585.6,636.7L583.0,637.7L582.7,641.5L584.0,641.8Z M592.4,637.7L592.0,634.9L591.1,635.6L592.4,637.7Z M601.8,636.1L600.9,634.9L601.9,636.9L601.8,636.1Z M596.6,629.1L594.7,626.9L594.1,627.6L596.6,629.1Z M609.7,627.6L611.3,626.3L609.9,626.2L609.7,627.6Z M613.6,623.4L613.8,622.3L612.3,622.4L613.6,623.4Z M636.2,614.3L635.0,613.1L634.1,613.3L636.2,614.3Z M421.5,532.6L414.3,550.6L414.2,557.0L412.8,563.1L407.7,565.5L404.5,566.4L385.9,568.0L377.5,566.9L372.7,567.6L365.3,570.0L359.3,571.1L357.5,573.7L362.8,579.0L365.0,582.3L368.9,593.1L371.5,594.5L374.9,595.3L379.3,597.7L383.5,602.3L454.9,644.4L454.7,645.9L434.9,650.0L429.8,652.2L413.5,667.1L409.9,671.6L407.0,673.1L403.6,673.9L367.8,675.4L345.3,681.7L309.2,687.2L294.1,686.4L283.0,687.4L280.8,688.3L285.0,702.0L282.8,703.6L284.4,706.8L288.5,709.3L294.1,714.7L298.2,717.5L304.1,720.8L309.4,722.4L315.2,723.4L321.4,721.9L329.0,722.6L342.6,715.2L346.8,714.2L350.7,714.5L401.2,724.9L424.8,726.0L470.1,733.8L486.9,734.0L490.8,735.0L511.8,737.4L512.0,737.1L512.4,735.6L511.4,731.2L511.6,729.6L515.1,727.5L516.5,728.1L516.9,731.1L523.6,728.1L516.0,725.7L514.3,726.2L506.7,723.6L507.8,721.4L505.5,718.2L497.9,715.8L497.0,714.5L496.6,710.7L494.4,709.1L497.2,708.9L497.1,705.5L492.8,701.6L493.4,698.8L497.7,697.3L498.3,694.7L505.1,697.9L514.0,705.1L525.1,705.5L520.7,702.8L520.4,700.9L526.4,697.9L530.7,697.9L534.2,700.1L535.8,699.7L539.4,695.5L538.0,694.0L540.6,690.5L541.0,687.0L542.9,685.9L545.3,691.9L551.0,688.4L550.6,684.7L537.3,681.2L535.5,679.8L541.7,680.0L543.7,681.1L545.9,681.0L545.9,675.6L545.0,673.5L541.1,669.6L540.9,667.5L538.3,665.5L534.5,664.0L535.5,661.3L534.0,657.9L526.8,650.0L515.7,644.4L517.0,643.9L521.6,645.9L525.2,643.8L527.1,643.7L525.6,645.9L528.9,647.6L532.4,653.4L535.9,652.9L536.6,654.6L535.7,656.4L537.8,663.2L541.5,664.7L543.0,662.8L548.1,659.8L556.3,663.2L554.4,665.0L547.0,664.3L545.1,666.2L550.1,666.3L551.2,668.5L558.0,667.8L559.8,664.3L561.1,664.7L560.0,667.4L564.8,665.7L567.4,661.0L565.6,660.3L563.1,662.4L561.2,661.7L561.7,659.1L560.6,658.0L564.7,658.0L565.6,656.4L570.1,659.5L575.5,661.6L579.4,659.7L581.4,659.3L583.0,657.2L581.9,656.0L577.7,654.9L576.2,653.4L582.4,654.4L585.8,654.2L586.3,651.9L580.6,651.9L575.0,649.7L575.6,647.5L576.8,647.0L582.0,648.8L584.4,649.2L589.6,648.8L587.7,645.2L585.4,644.5L563.8,644.7L561.5,643.7L566.3,642.9L570.2,639.6L571.8,641.4L577.5,642.1L571.7,638.4L573.0,637.7L576.9,638.4L580.1,641.1L581.7,640.8L581.8,638.2L586.8,635.4L583.9,635.4L585.1,634.4L586.2,630.9L587.8,630.0L593.2,631.6L594.4,630.1L591.6,626.5L585.8,624.2L589.7,624.1L602.1,626.4L599.3,622.7L597.7,619.7L596.4,618.9L598.7,618.3L606.9,619.6L607.0,620.4L601.1,620.9L603.4,625.2L604.6,625.3L605.0,622.7L610.6,622.6L613.1,622.0L614.5,620.4L600.8,617.1L598.9,616.0L605.1,615.1L609.9,616.3L611.0,616.0L610.2,614.2L611.2,613.8L618.5,617.5L619.2,619.8L626.7,624.1L627.6,621.5L630.5,620.9L631.0,619.6L626.2,618.9L624.6,617.5L625.7,615.1L629.4,617.6L631.1,617.8L632.2,616.0L630.4,616.0L633.2,611.5L633.1,608.7L637.2,608.0L638.8,606.2L639.4,608.0L642.2,606.2L641.7,599.1L641.1,595.2L643.7,593.3L644.1,593.6L643.8,592.8L632.7,578.7L620.6,567.8L615.6,564.5L611.3,563.2L607.0,558.4L598.3,557.1L590.4,554.4L578.5,552.9L571.5,550.6L568.7,548.2L562.8,542.4L562.7,541.1L565.6,541.2L566.2,539.1L565.2,537.7L561.6,536.4L556.3,536.4L505.2,546.5L435.3,538.9L425.0,534.8L421.5,532.6Z " data-id="SE.VN" data-name="Västernorrland" id="SE.VN"/>
utf-8utf-8<path d="M652.5,595.2L652.0,593.8L651.7,594.5L652.5,595.2Z M661.0,594.3L658.4,592.1L658.9,593.6L662.0,595.9L661.0,594.3Z M692.1,590.0L691.2,590.6L692.7,591.6L692.1,590.0Z M689.9,584.6L690.2,583.7L689.0,582.8L689.9,584.6Z M763.9,577.6L764.0,576.1L762.7,577.7L763.9,577.6Z M768.3,573.3L770.2,570.5L766.9,572.3L768.3,573.3Z M744.8,563.5L743.2,563.0L743.4,563.8L744.8,563.5Z M772.9,567.7L774.6,565.5L774.0,559.2L769.7,562.6L769.0,567.9L772.9,567.7Z M743.2,559.0L744.5,557.6L743.7,557.0L743.2,559.0Z M772.5,559.1L770.8,557.0L767.4,556.6L765.8,559.8L768.6,559.5L769.4,560.6L772.5,559.1Z M806.5,470.0L805.5,469.3L805.8,470.2L806.5,470.0Z M775.5,460.0L774.1,460.4L778.9,461.8L779.4,460.3L777.5,459.2L775.5,460.0Z M783.8,439.8L782.6,437.4L780.7,436.5L780.3,438.5L783.8,439.8Z M285.5,282.8L286.4,289.8L253.3,302.7L212.0,305.7L224.0,335.9L224.9,340.2L224.2,342.5L219.6,349.4L219.0,351.0L217.9,376.4L218.6,381.5L219.8,387.1L220.1,392.1L217.8,395.3L211.5,398.8L210.0,400.5L209.2,403.1L208.1,413.1L207.7,413.9L240.0,426.3L244.9,429.2L256.2,439.3L258.7,440.4L263.0,441.3L269.7,444.5L273.1,450.1L276.3,452.6L281.1,452.8L288.2,455.4L296.7,460.7L298.1,462.3L293.2,463.9L292.6,464.7L297.4,467.4L299.1,468.8L313.7,475.9L318.3,479.5L319.1,481.4L321.6,483.9L323.6,483.3L325.7,477.4L328.9,477.0L331.8,479.5L333.1,483.8L334.3,486.2L336.5,488.2L353.8,496.2L357.3,498.7L359.9,502.9L363.3,506.0L369.1,504.8L378.2,506.8L421.5,532.6L425.0,534.8L435.3,538.9L505.2,546.5L556.3,536.4L561.6,536.4L565.2,537.7L566.2,539.1L565.6,541.2L562.7,541.1L562.8,542.4L568.7,548.2L571.5,550.6L578.5,552.9L590.4,554.4L598.3,557.1L607.0,558.4L611.3,563.2L615.6,564.5L620.6,567.8L632.7,578.7L643.8,592.8L644.1,593.6L645.5,594.6L647.4,595.5L649.1,595.0L646.3,591.4L646.2,590.5L648.5,591.2L656.2,596.5L660.9,598.6L661.6,598.3L656.3,591.9L661.0,590.5L654.9,588.0L655.6,585.2L651.4,583.7L653.3,582.3L655.3,582.3L660.5,585.6L665.0,586.7L668.5,590.5L670.6,591.3L671.4,595.0L675.6,596.5L680.0,593.6L681.9,593.3L681.3,590.3L679.5,587.4L679.5,586.3L694.5,576.0L701.3,577.8L699.2,574.4L699.7,572.9L703.8,570.8L705.4,571.0L708.1,573.4L710.8,572.5L716.2,572.2L718.2,572.5L717.2,570.0L717.7,567.4L720.3,563.6L720.6,564.9L719.7,569.2L719.9,570.4L723.6,572.1L724.0,569.5L722.8,562.8L724.5,561.7L727.0,565.4L726.9,568.4L730.3,569.2L731.8,565.2L730.9,562.8L733.8,559.3L736.9,553.9L740.2,556.2L741.0,559.0L742.5,556.5L746.0,553.9L748.7,554.7L750.9,557.2L752.6,556.4L754.0,553.9L750.6,553.1L751.5,551.0L755.2,550.9L758.9,548.7L761.5,540.5L764.3,538.3L766.8,535.2L766.9,528.3L769.5,524.2L769.8,522.3L768.4,520.4L769.6,518.3L775.3,513.7L776.9,510.4L780.8,510.5L789.7,501.2L796.9,500.3L794.8,495.0L800.0,498.7L806.2,494.2L813.6,487.3L816.7,486.5L816.7,484.0L813.7,482.4L814.5,484.0L810.5,483.6L809.8,485.1L806.4,484.5L806.7,481.7L805.1,478.7L804.0,478.5L798.9,479.7L794.1,476.8L794.2,476.2L797.6,478.0L803.4,475.1L807.9,478.0L811.0,476.5L809.3,476.6L805.5,474.3L805.0,471.7L803.0,470.9L802.5,473.5L796.7,469.2L794.9,468.6L794.7,472.5L793.1,472.4L789.2,468.4L784.1,467.1L784.1,464.7L782.2,462.9L774.5,461.7L772.8,460.5L771.8,455.5L773.7,455.1L785.9,461.8L786.9,459.5L788.2,458.8L780.4,453.5L786.2,453.4L786.4,451.3L784.2,450.4L778.7,449.0L773.6,449.9L768.9,449.5L767.5,446.9L763.1,444.4L765.2,441.3L766.6,441.7L768.1,444.9L769.5,445.4L774.9,444.0L773.9,442.1L776.8,440.1L775.5,437.3L778.7,434.7L777.8,431.4L778.8,431.0L788.8,430.6L790.0,429.9L788.6,428.8L791.4,424.7L795.6,425.3L798.0,424.0L794.3,420.3L795.2,419.6L802.1,419.7L803.5,419.0L800.7,418.1L775.8,408.6L678.8,392.8L646.2,399.4L640.8,403.9L631.3,407.7L624.7,409.1L611.5,404.2L609.7,403.3L608.6,400.0L607.3,398.1L604.7,396.5L599.8,394.5L590.9,393.1L586.0,389.5L571.8,386.0L560.9,378.8L549.5,378.6L546.5,377.7L540.9,374.5L532.1,373.1L527.3,371.6L522.7,369.2L518.4,366.0L516.3,363.9L514.7,363.7L482.3,355.7L455.7,345.2L403.8,318.4L371.6,311.0L317.3,289.6L284.9,281.3L285.5,282.8Z " data-id="SE.VB" data-name="Västerbotten" id="SE.VB"/>
utf-8utf-8<path d="M686.6,1220.4L684.5,1217.5L684.6,1214.9L681.8,1211.5L680.0,1210.9L674.6,1213.3L673.3,1215.1L670.0,1221.3L666.0,1220.4L661.7,1221.9L658.8,1224.6L648.6,1239.4L635.5,1250.2L633.0,1253.6L632.1,1257.8L633.5,1263.1L638.7,1271.7L639.6,1272.1L638.9,1274.2L639.6,1276.0L638.5,1280.4L635.4,1282.2L634.4,1284.4L634.6,1286.6L640.3,1289.9L643.8,1299.6L647.7,1300.9L646.8,1303.2L648.0,1305.3L646.3,1308.7L648.4,1309.3L651.8,1306.5L653.8,1305.6L652.4,1311.4L648.0,1313.2L647.0,1314.2L647.7,1317.7L642.8,1325.1L645.7,1326.2L648.7,1325.9L656.7,1322.9L657.8,1322.1L661.4,1317.4L659.9,1315.7L664.9,1315.7L659.0,1312.6L658.8,1306.7L660.0,1305.2L666.0,1302.8L667.9,1301.6L661.8,1301.6L665.5,1298.5L675.9,1294.2L677.9,1293.8L676.5,1292.2L678.7,1291.2L686.5,1289.9L689.2,1288.4L688.5,1284.8L685.1,1284.5L684.3,1282.3L685.3,1280.7L688.3,1278.6L692.4,1274.5L695.0,1273.2L701.7,1271.9L704.4,1271.9L705.4,1268.4L700.8,1264.9L700.1,1266.5L692.9,1264.9L692.3,1262.7L691.1,1262.3L691.0,1259.4L689.5,1258.2L691.4,1253.6L691.3,1251.8L692.4,1246.9L688.0,1244.6L690.1,1239.1L690.8,1235.2L690.2,1232.4L691.4,1232.1L695.5,1233.6L702.1,1232.9L701.1,1231.7L702.0,1226.9L705.0,1228.3L704.9,1224.1L707.2,1222.4L713.3,1222.0L712.6,1221.0L706.2,1215.7L705.4,1212.6L704.2,1212.2L699.5,1213.3L699.7,1214.8L697.6,1214.9L695.8,1213.8L696.8,1211.1L690.2,1212.2L691.8,1214.5L691.4,1216.5L688.8,1219.1L688.5,1222.0L686.6,1220.4Z M722.9,1203.3L721.6,1204.1L717.8,1203.6L716.6,1204.6L712.2,1204.8L710.1,1209.1L708.5,1210.8L707.9,1212.9L711.5,1217.2L715.5,1219.4L716.9,1219.6L719.2,1214.8L716.9,1212.6L718.6,1210.6L722.3,1209.5L725.7,1207.6L730.1,1208.6L731.2,1207.1L733.6,1206.3L727.6,1204.8L723.6,1205.2L722.9,1203.3Z M723.4,1162.4L726.7,1160.4L724.3,1159.2L719.2,1158.3L716.7,1157.3L713.7,1157.3L716.6,1161.9L720.0,1163.2L723.4,1162.4Z " data-id="SE.GT" data-name="Gotland" id="SE.GT"/>
utf-8utf-8<path d="M592.7,1115.7L592.2,1114.7L592.9,1118.7L592.7,1115.7Z M578.7,1106.4L576.3,1104.6L578.6,1107.8L578.7,1106.4Z M612.5,1104.7L613.4,1104.5L614.9,1101.7L611.9,1102.7L610.9,1104.5L612.5,1104.7Z M590.0,1105.4L589.0,1103.3L590.2,1102.0L588.4,1100.5L587.1,1102.1L586.3,1105.9L587.2,1110.1L585.8,1111.7L591.0,1111.9L591.7,1107.3L590.0,1105.4Z M615.7,1099.5L620.2,1096.1L618.8,1095.7L615.7,1099.5Z M604.2,1095.5L603.7,1093.6L604.4,1091.9L601.0,1095.8L601.1,1096.5L604.2,1095.5Z M632.2,1092.6L631.7,1091.2L629.3,1092.4L624.2,1093.4L619.0,1097.9L619.0,1098.9L621.1,1099.5L622.8,1098.6L629.5,1097.1L626.9,1095.5L631.0,1093.6L632.2,1092.6Z M619.3,1086.1L611.4,1086.5L609.5,1086.3L606.1,1090.6L605.8,1093.3L609.8,1091.3L611.5,1092.6L613.9,1092.4L613.5,1088.4L617.5,1089.6L616.2,1087.6L619.3,1086.1Z M615.7,1083.1L613.3,1084.0L614.2,1084.3L615.7,1083.1Z M647.5,1082.0L644.8,1083.2L644.9,1085.4L647.5,1082.0Z M574.6,1097.4L575.7,1093.9L575.1,1087.9L573.6,1084.5L570.7,1081.6L568.9,1081.9L569.8,1087.8L568.5,1091.0L570.3,1096.7L572.1,1097.6L574.6,1097.4Z M664.0,1078.6L665.5,1076.6L664.2,1076.3L664.0,1078.6Z M639.7,1082.4L642.2,1078.8L640.9,1075.7L639.7,1075.6L635.7,1078.4L632.3,1080.0L631.9,1082.3L630.5,1082.9L633.6,1088.1L636.7,1087.6L637.7,1086.0L638.1,1083.3L639.7,1082.4Z M649.9,1075.0L649.7,1073.7L648.7,1074.8L649.9,1075.0Z M662.2,1066.6L663.1,1065.7L659.0,1065.0L657.9,1065.3L655.7,1068.9L656.5,1069.2L662.2,1066.6Z M634.9,1064.9L632.9,1063.8L634.2,1065.1L634.9,1064.9Z M677.6,1058.0L676.1,1055.9L675.2,1057.1L677.6,1058.0Z M664.8,1059.5L666.9,1056.9L663.9,1055.3L662.4,1055.6L659.9,1059.3L664.6,1060.4L664.8,1059.5Z M642.1,1056.3L636.6,1055.2L626.4,1055.1L632.7,1057.4L634.5,1059.7L637.9,1060.4L642.8,1063.1L645.5,1063.4L647.6,1061.3L643.6,1061.6L642.2,1060.8L641.8,1058.3L650.3,1059.7L642.1,1056.3Z M673.9,1054.0L672.3,1053.6L671.2,1054.0L673.9,1054.0Z M675.1,1048.8L671.7,1049.8L673.2,1052.3L675.1,1048.8Z M656.0,1046.7L650.9,1047.4L655.3,1051.5L654.9,1054.6L659.4,1053.7L660.9,1051.4L660.5,1050.0L656.0,1046.7Z M617.1,1047.5L616.0,1046.8L605.8,1045.0L606.3,1048.6L607.9,1049.6L614.3,1050.4L615.0,1049.2L613.2,1047.6L617.1,1047.5Z M670.3,1044.9L669.2,1043.5L668.6,1044.2L670.3,1044.9Z M677.7,1046.2L677.4,1045.0L675.0,1043.1L673.3,1044.5L675.3,1046.1L677.7,1046.2Z M630.0,1042.5L626.2,1041.6L627.5,1044.0L632.5,1044.6L630.0,1042.5Z M677.8,1041.2L676.7,1043.7L677.4,1044.4L678.8,1041.8L677.8,1041.2Z M624.0,1041.3L623.0,1039.2L621.9,1038.9L621.1,1041.5L624.0,1041.3Z M700.5,1040.1L700.3,1038.7L699.1,1038.9L700.5,1040.1Z M673.7,1041.7L672.4,1038.6L670.3,1039.3L669.4,1041.0L670.6,1042.8L672.5,1043.0L673.7,1041.7Z M725.7,1039.2L725.4,1038.4L724.5,1038.6L725.7,1039.2Z M658.0,1037.2L656.2,1036.7L652.0,1037.4L650.5,1039.6L658.0,1037.2Z M665.6,1035.1L657.8,1035.2L656.1,1036.5L665.5,1035.5L665.6,1035.1Z M652.4,1028.6L649.6,1026.9L647.7,1026.9L644.4,1028.1L641.1,1032.6L638.3,1033.5L638.1,1034.4L642.5,1041.2L645.0,1040.3L644.3,1036.6L646.4,1037.4L645.3,1034.0L648.6,1033.7L652.3,1030.1L657.0,1028.6L657.1,1028.0L652.4,1028.6Z M683.6,1023.5L681.1,1024.3L681.9,1024.9L683.6,1023.5Z M676.3,1018.7L675.0,1015.9L672.6,1015.7L667.3,1020.6L667.2,1023.1L669.2,1023.7L671.3,1022.1L672.1,1018.7L676.3,1018.7Z M682.4,1016.0L681.0,1015.1L679.9,1016.4L682.6,1017.0L682.4,1016.0Z M660.4,1024.1L666.1,1021.1L671.5,1015.8L671.3,1014.9L666.6,1017.6L661.3,1022.5L660.4,1024.1Z M691.4,1015.4L690.4,1014.4L689.0,1015.0L691.4,1015.4Z M694.2,1014.6L694.9,1013.8L693.2,1013.4L694.2,1014.6Z M668.7,1013.5L667.2,1012.5L664.7,1013.2L667.5,1014.8L668.7,1013.5Z M712.1,1009.6L712.5,1009.0L711.4,1009.7L712.1,1009.6Z M689.5,1005.0L689.1,1004.1L686.5,1003.5L686.7,1005.0L689.5,1005.0Z M692.3,1002.9L690.0,1001.2L689.8,1001.7L692.3,1002.9Z M684.3,1001.6L683.6,999.7L682.7,1000.4L684.3,1001.6Z M674.8,997.3L674.7,994.3L673.9,993.1L669.9,993.4L666.7,997.7L666.5,1000.4L674.8,1000.0L675.8,998.1L674.8,997.3Z M686.1,993.7L686.4,991.5L683.1,994.6L686.1,993.7Z M632.3,962.7L628.6,967.6L625.4,972.6L628.4,975.5L623.4,978.6L623.1,980.3L623.8,985.0L623.2,987.5L621.7,989.6L617.9,991.5L612.2,993.4L606.8,994.3L604.1,995.5L602.2,997.3L597.6,1004.1L590.6,1004.2L579.3,1009.0L570.7,1010.8L567.6,1009.4L562.1,1009.0L557.8,1012.9L554.9,1013.8L553.8,1018.7L554.1,1020.3L557.1,1025.4L553.5,1030.5L553.3,1035.5L552.7,1037.7L549.6,1039.6L548.3,1042.9L546.9,1045.4L548.0,1046.5L547.8,1048.7L546.4,1049.3L540.6,1050.0L538.9,1052.2L539.3,1057.9L539.1,1060.2L535.2,1064.0L538.2,1071.3L541.1,1075.2L543.8,1084.1L547.3,1089.1L559.5,1090.0L562.5,1091.0L565.2,1092.8L565.2,1092.8L567.0,1092.7L568.4,1086.8L566.7,1085.2L566.7,1080.7L565.6,1078.3L567.2,1077.6L570.4,1073.7L568.7,1069.8L571.7,1072.8L572.2,1074.0L570.6,1078.1L570.5,1079.8L575.7,1082.2L575.6,1077.1L577.9,1074.7L578.3,1079.3L579.4,1084.7L579.6,1095.4L580.0,1097.5L583.1,1098.4L583.3,1102.3L585.0,1099.2L581.6,1093.3L585.7,1097.0L591.1,1099.9L590.7,1101.4L593.5,1104.6L593.0,1101.3L593.3,1098.4L594.5,1099.1L598.6,1097.6L599.2,1096.1L598.0,1093.0L599.0,1090.4L602.1,1086.3L600.5,1084.5L602.4,1083.8L604.7,1084.5L603.7,1082.1L608.4,1082.3L609.4,1081.8L612.6,1077.9L615.5,1077.7L618.6,1075.4L621.3,1075.3L620.3,1076.7L621.6,1077.4L617.1,1079.8L619.7,1079.4L627.5,1076.7L626.9,1075.7L624.3,1075.3L625.7,1074.1L631.9,1072.2L634.9,1073.1L636.2,1070.2L633.4,1067.5L631.8,1068.2L629.5,1065.2L624.9,1063.8L624.7,1062.5L626.6,1062.3L635.1,1066.7L633.6,1064.6L626.6,1061.3L621.3,1059.3L624.3,1057.4L620.3,1053.6L624.2,1051.2L625.9,1051.2L625.6,1053.6L628.0,1054.3L636.4,1053.6L641.6,1055.2L650.2,1054.1L651.8,1053.3L652.2,1051.6L650.7,1049.7L642.7,1047.4L647.8,1048.0L648.6,1046.6L642.3,1044.3L641.4,1042.0L636.6,1039.9L631.5,1039.7L632.7,1041.6L638.1,1044.3L634.0,1044.3L637.6,1049.7L635.6,1051.0L633.0,1050.5L634.6,1049.0L629.3,1047.2L623.0,1046.5L617.7,1048.0L615.3,1052.8L613.0,1051.2L611.1,1052.0L604.3,1052.0L608.6,1050.5L595.7,1042.8L600.7,1044.1L603.4,1042.8L603.1,1038.6L604.0,1037.6L611.0,1037.3L612.7,1041.3L611.6,1040.7L608.5,1041.3L611.3,1042.9L616.5,1044.0L621.7,1044.1L624.2,1042.8L618.7,1041.2L619.0,1039.7L617.0,1037.9L620.5,1037.3L617.3,1035.8L617.2,1035.0L623.9,1035.5L626.8,1035.2L629.5,1033.5L632.9,1030.0L635.0,1028.6L639.8,1027.3L644.3,1024.2L647.8,1023.1L651.5,1020.6L648.8,1017.2L652.5,1018.8L655.7,1015.7L651.5,1015.7L652.9,1013.0L656.4,1012.6L656.4,1011.0L658.3,1009.8L664.5,1008.5L668.2,1006.1L668.9,1004.2L671.8,1007.3L679.9,1006.8L682.9,1004.4L683.5,1001.9L679.6,1000.5L657.8,1001.1L653.1,1002.3L653.3,1000.7L656.5,999.5L660.3,999.6L663.7,998.4L668.3,992.9L669.0,991.1L668.4,989.2L663.8,984.2L666.6,985.2L669.7,987.6L676.9,994.3L681.0,995.0L680.4,988.0L677.3,987.3L678.2,989.6L675.0,988.0L674.8,986.5L666.9,983.7L665.0,982.3L661.3,977.0L655.3,965.4L655.3,963.6L653.7,962.7L650.7,963.9L650.0,967.1L651.2,970.1L654.1,974.4L649.8,970.8L646.5,962.2L643.4,961.7L640.2,959.7L634.0,960.4L635.0,962.0L635.8,966.4L635.6,968.0L632.3,962.7L632.3,962.7Z M651.2,956.6L651.5,955.7L648.1,952.9L645.7,954.3L645.2,956.9L647.5,959.2L651.4,959.1L651.2,956.6Z " data-id="SE.ST" data-name="Stockholm" id="SE.ST"/>
utf-8utf-8<path d="M633.9,952.4L631.7,953.2L636.7,954.7L633.9,952.4Z M631.2,954.7L630.6,952.8L627.4,951.5L623.8,951.1L626.0,953.2L629.9,955.2L631.2,954.7Z M617.3,925.3L612.2,919.2L611.1,920.3L613.9,932.5L615.4,934.9L620.5,936.7L625.8,940.4L630.7,940.8L628.8,939.7L626.4,935.1L624.7,936.5L621.4,933.5L615.8,926.6L620.7,928.1L619.8,926.8L617.3,925.3Z M613.9,919.0L611.8,916.8L610.6,918.5L613.9,919.0Z M523.5,906.5L520.2,921.9L517.8,926.4L513.5,931.1L513.2,933.3L515.0,941.7L528.2,948.2L530.0,949.4L530.7,951.2L530.3,953.8L525.3,967.7L522.6,970.7L517.4,971.6L514.1,977.3L514.8,978.3L518.2,980.0L518.7,981.2L518.1,987.8L517.0,989.3L506.4,994.4L505.3,994.1L502.3,991.5L497.4,990.8L489.2,989.3L489.4,995.0L488.3,996.2L484.5,998.0L485.2,1000.5L495.8,1013.5L497.6,1016.6L501.3,1025.4L502.4,1027.2L503.4,1028.9L512.6,1030.1L519.2,1029.4L523.9,1030.5L527.6,1032.2L530.4,1035.4L533.2,1037.2L538.8,1039.0L544.2,1042.0L546.9,1045.4L548.3,1042.9L549.6,1039.6L552.7,1037.7L553.3,1035.5L553.5,1030.5L557.1,1025.4L554.1,1020.3L553.8,1018.7L554.9,1013.8L557.8,1012.9L562.1,1009.0L567.6,1009.4L570.7,1010.8L579.3,1009.0L590.6,1004.2L597.6,1004.1L602.2,997.3L604.1,995.5L606.8,994.3L612.2,993.4L617.9,991.5L621.7,989.6L623.2,987.5L623.8,985.0L623.1,980.3L623.4,978.6L628.4,975.5L625.4,972.6L628.6,967.6L632.3,962.7L631.8,961.9L630.7,957.9L630.0,958.5L626.4,958.3L624.0,956.6L619.6,954.6L617.6,953.0L616.6,950.3L621.7,952.7L618.5,950.0L614.3,947.4L610.5,944.3L608.8,940.4L613.9,945.1L616.9,947.2L631.4,950.8L634.8,949.6L631.1,947.3L618.8,944.3L622.8,943.5L619.7,938.1L617.9,937.3L611.9,937.4L606.5,936.6L601.6,939.7L598.8,936.6L603.1,933.5L595.7,931.7L592.4,930.0L589.4,927.4L587.8,924.3L575.9,919.0L577.7,915.8L577.6,914.4L575.4,910.6L573.0,909.3L570.4,909.2L561.8,910.8L557.5,913.3L554.9,916.5L556.6,920.5L550.5,919.9L547.5,918.6L544.0,912.6L543.5,911.0L547.9,908.3L546.6,907.1L540.2,903.8L537.7,903.7L526.5,905.0L523.8,906.5L523.5,906.5Z " data-id="SE.UP" data-name="Uppsala" id="SE.UP"/>
utf-8utf-8<path d="M361.0,1430.8L361.5,1429.3L359.6,1428.8L361.0,1430.8Z M444.7,1427.2L443.7,1428.3L445.2,1429.4L446.8,1427.1L444.7,1427.2Z M433.7,1417.0L431.0,1418.8L431.9,1420.5L436.2,1422.3L436.0,1419.3L433.7,1417.0Z M416.2,1419.3L416.8,1416.4L412.6,1417.9L413.3,1419.4L416.2,1419.3Z M423.7,1418.6L423.9,1417.2L420.4,1416.1L419.8,1416.5L423.3,1419.3L423.7,1418.6Z M429.7,1418.9L430.0,1415.5L428.3,1415.8L427.0,1418.9L429.7,1418.9Z M441.0,1415.5L437.1,1415.6L441.8,1418.3L442.7,1416.0L441.0,1415.5Z M401.5,1375.5L399.8,1376.9L393.1,1376.7L391.3,1377.2L388.8,1380.0L384.2,1379.3L381.4,1378.0L378.6,1377.7L374.5,1378.7L368.2,1381.9L365.4,1385.1L362.7,1387.0L358.7,1387.3L345.5,1384.7L343.2,1383.8L333.3,1377.5L328.2,1376.0L322.8,1382.2L321.5,1384.0L318.4,1393.0L320.5,1395.6L322.5,1400.4L323.6,1401.5L330.3,1403.2L332.5,1404.5L334.5,1407.8L335.8,1415.0L333.9,1419.8L334.1,1424.6L334.4,1424.5L335.5,1424.2L336.8,1425.8L338.5,1424.2L338.6,1425.6L340.7,1428.0L340.7,1429.7L348.2,1428.9L349.2,1430.6L353.5,1427.3L351.5,1423.9L348.7,1421.1L346.9,1418.3L344.9,1417.4L344.9,1413.9L346.1,1412.3L348.2,1411.6L352.6,1411.5L357.9,1414.4L359.5,1413.9L359.2,1412.0L368.5,1411.0L371.7,1411.4L377.3,1413.2L375.7,1410.0L379.9,1409.9L380.4,1411.9L384.5,1412.3L386.5,1411.5L390.1,1413.3L393.9,1412.8L397.2,1411.2L398.9,1409.2L401.1,1412.1L399.4,1413.9L405.8,1414.6L407.9,1410.7L411.4,1410.3L415.9,1413.4L416.7,1410.6L420.3,1409.2L424.7,1406.8L425.6,1407.4L424.2,1410.8L425.8,1412.4L429.0,1409.5L435.5,1411.3L436.5,1410.8L438.3,1412.8L440.6,1412.8L444.8,1411.5L446.8,1412.5L446.3,1414.7L444.0,1418.6L449.9,1420.9L451.7,1419.0L456.0,1410.8L461.9,1405.6L463.0,1402.5L464.5,1401.5L466.0,1392.2L458.4,1393.4L447.4,1390.6L441.8,1387.8L434.4,1381.7L429.0,1378.3L422.1,1373.2L417.8,1372.4L416.2,1374.5L409.9,1374.1L407.9,1373.3L403.8,1373.6L401.5,1375.5Z " data-id="SE.BL" data-name="Blekinge" id="SE.BL"/>
utf-8utf-8<path d="M71.0,1241.4L66.9,1242.1L70.5,1243.8L71.0,1241.4Z M59.7,1236.2L58.8,1233.7L57.7,1235.9L55.8,1236.8L60.7,1238.9L59.7,1236.2Z M56.2,1215.2L52.9,1213.6L50.1,1214.8L51.0,1215.8L53.1,1215.8L49.8,1217.7L53.0,1219.4L56.7,1216.5L56.2,1215.2Z M63.7,1195.5L61.7,1194.8L56.9,1197.0L48.8,1197.0L45.0,1196.4L43.4,1196.9L42.8,1199.0L43.7,1200.7L49.2,1201.7L44.6,1202.1L45.9,1206.0L52.2,1209.5L54.2,1207.4L56.0,1207.7L57.6,1206.3L58.1,1203.3L60.3,1200.5L61.8,1200.9L61.8,1203.0L64.0,1201.8L64.6,1198.6L63.7,1195.5Z M66.4,1174.2L62.8,1172.3L61.6,1169.8L57.0,1169.1L55.5,1171.9L55.4,1175.2L51.5,1175.2L46.8,1177.2L43.8,1178.0L35.6,1183.9L33.9,1185.6L38.9,1194.0L39.4,1194.0L39.1,1190.0L43.9,1192.4L45.3,1190.0L49.7,1188.2L52.1,1188.7L53.7,1190.8L55.9,1189.9L60.7,1191.0L64.8,1188.7L68.9,1187.9L69.5,1185.8L68.1,1176.0L66.4,1174.2Z M58.2,1062.4L54.4,1073.1L54.6,1078.5L51.2,1091.9L49.2,1097.9L44.8,1100.9L39.3,1101.9L33.6,1101.7L30.9,1100.6L30.4,1093.3L28.0,1089.8L24.6,1086.7L22.9,1084.2L20.6,1078.5L17.6,1077.6L8.9,1078.7L6.6,1079.8L1.5,1085.4L1.2,1089.5L2.9,1090.1L6.6,1089.8L1.0,1092.4L0.3,1094.1L1.5,1095.6L3.9,1096.6L8.4,1097.6L8.9,1104.2L9.5,1105.3L12.1,1106.5L10.6,1114.8L11.0,1116.3L9.3,1116.8L9.4,1121.6L11.6,1121.6L11.7,1125.1L15.4,1128.6L17.7,1135.0L17.5,1136.4L19.3,1136.4L16.6,1140.0L16.8,1143.3L16.0,1145.2L17.6,1147.5L20.9,1148.8L17.4,1152.0L18.3,1154.3L15.1,1153.9L13.9,1154.6L13.7,1156.6L15.6,1162.9L16.6,1163.6L18.3,1160.6L23.0,1161.3L25.4,1160.4L31.9,1153.1L27.0,1161.6L28.8,1162.7L29.7,1162.0L31.6,1158.2L33.1,1158.1L33.2,1160.9L35.6,1163.4L32.6,1163.6L30.2,1166.0L30.8,1167.5L35.4,1166.6L35.5,1167.5L32.4,1170.5L31.7,1172.1L37.6,1168.8L42.2,1164.0L43.6,1160.7L44.2,1156.8L44.0,1152.9L43.2,1149.6L47.4,1156.6L50.6,1153.2L52.6,1152.5L54.3,1154.3L49.1,1157.3L50.4,1158.1L45.9,1161.9L43.9,1164.3L40.6,1172.8L41.6,1174.6L44.6,1175.2L43.2,1172.9L46.9,1173.9L56.2,1167.3L60.2,1165.0L62.4,1164.7L67.2,1165.1L70.8,1163.3L72.6,1163.0L73.8,1164.4L69.0,1166.2L67.6,1167.9L68.3,1170.6L71.2,1173.4L72.1,1176.4L75.5,1177.6L71.5,1180.2L71.0,1188.4L70.3,1190.4L68.2,1190.8L69.0,1192.4L67.5,1194.3L69.6,1198.0L68.6,1202.4L65.1,1207.2L64.7,1209.1L67.4,1210.3L67.0,1213.3L62.5,1214.5L61.4,1215.7L62.5,1218.0L58.5,1220.4L61.2,1220.6L67.4,1226.6L72.4,1226.3L71.9,1227.9L64.0,1233.8L64.2,1236.5L68.3,1236.8L67.7,1234.8L69.8,1234.9L74.4,1236.8L81.5,1236.7L83.4,1236.0L82.3,1237.8L76.6,1238.2L75.9,1240.6L78.2,1244.0L78.7,1245.7L81.4,1246.2L81.7,1244.6L83.5,1245.3L83.3,1248.2L83.5,1249.6L87.3,1249.2L97.5,1250.8L104.1,1249.9L117.6,1245.8L120.5,1249.5L121.2,1258.3L121.9,1260.1L128.5,1265.4L129.6,1268.3L128.2,1273.9L132.3,1281.2L134.5,1282.9L139.5,1282.1L142.4,1278.7L146.1,1276.1L155.7,1277.8L160.1,1281.6L163.4,1282.3L165.7,1281.6L170.6,1283.7L178.4,1284.6L178.4,1287.1L177.0,1289.6L177.9,1292.3L179.3,1293.4L188.7,1297.0L194.2,1298.2L195.9,1296.9L197.2,1295.5L201.5,1288.9L207.6,1284.6L208.8,1281.4L215.0,1277.9L218.5,1275.6L223.4,1270.8L229.0,1266.4L233.1,1259.4L236.4,1255.1L240.0,1251.7L240.6,1250.1L241.2,1242.4L243.0,1238.9L242.1,1234.0L244.9,1223.9L242.9,1218.9L249.8,1219.4L258.8,1218.6L263.2,1220.5L267.7,1221.4L269.7,1216.9L274.0,1215.6L282.9,1211.7L285.8,1207.5L284.1,1202.0L298.4,1176.7L327.0,1129.0L321.0,1126.0L319.0,1124.2L315.8,1118.9L312.3,1117.8L310.5,1119.7L306.8,1121.8L305.1,1120.3L298.4,1118.9L297.6,1117.7L295.1,1111.8L289.6,1106.4L288.5,1104.7L288.0,1100.8L285.3,1097.0L280.8,1090.1L279.1,1087.0L273.6,1084.5L271.3,1083.8L217.8,1082.7L215.6,1083.1L212.9,1084.5L207.8,1088.9L202.5,1097.7L200.2,1108.4L201.6,1110.3L206.0,1114.9L206.3,1116.0L200.4,1118.0L192.7,1118.0L160.5,1109.8L152.7,1090.2L145.6,1083.0L143.0,1075.1L137.1,1069.7L133.9,1069.2L131.1,1071.1L129.5,1073.6L126.1,1074.2L124.7,1072.5L116.7,1071.6L113.0,1070.2L112.4,1068.3L116.5,1067.7L116.5,1066.3L115.0,1066.2L107.6,1067.7L99.3,1065.4L95.6,1061.3L91.4,1060.1L86.4,1060.8L84.8,1061.8L85.0,1064.6L83.7,1066.1L81.9,1066.2L70.9,1061.1L66.6,1062.5L58.8,1060.8L58.2,1062.4Z " data-id="SE.VG" data-name="Västra Götaland" id="SE.VG"/>
utf-8utf-8<path d="M334.1,1424.6L333.9,1419.8L335.8,1415.0L334.5,1407.8L332.5,1404.5L330.3,1403.2L323.6,1401.5L322.5,1400.4L320.5,1395.6L318.4,1393.0L321.5,1384.0L322.8,1382.2L328.2,1376.0L311.7,1372.6L307.0,1371.1L304.2,1370.7L294.0,1370.8L290.3,1369.0L286.3,1369.5L285.1,1370.5L283.6,1374.3L279.4,1375.8L242.8,1382.2L236.1,1382.2L231.6,1381.7L226.3,1382.7L220.2,1385.5L212.7,1391.5L209.4,1391.9L205.9,1389.9L193.3,1388.3L189.5,1386.3L189.0,1379.9L184.7,1377.9L182.9,1376.4L182.4,1377.2L181.2,1378.6L176.3,1380.0L165.4,1377.2L160.4,1378.6L157.6,1382.7L159.8,1385.3L168.0,1389.5L171.3,1394.6L173.3,1397.1L177.6,1398.8L178.1,1400.3L175.2,1404.6L169.7,1404.5L167.0,1405.3L163.4,1403.3L161.4,1401.3L143.5,1395.9L144.9,1397.3L148.6,1399.2L153.9,1410.0L168.0,1424.9L169.3,1428.4L173.4,1431.2L176.8,1437.6L179.1,1439.5L180.7,1443.9L183.6,1446.3L187.3,1447.7L190.6,1449.9L192.2,1454.9L192.1,1456.4L190.0,1458.0L191.1,1459.7L195.1,1460.0L196.0,1462.3L199.3,1462.1L203.6,1466.0L204.2,1469.9L201.8,1473.8L195.8,1477.1L193.4,1479.3L192.7,1483.0L193.9,1486.1L198.6,1491.3L199.8,1494.4L197.5,1494.4L198.1,1495.9L192.8,1497.9L188.6,1495.9L186.1,1499.9L186.7,1501.9L195.6,1501.3L196.8,1500.4L201.6,1499.9L207.3,1502.1L212.1,1502.2L227.4,1506.2L230.3,1506.5L236.4,1506.1L239.0,1505.4L247.0,1501.3L250.0,1500.7L254.0,1501.2L255.3,1500.7L258.0,1497.8L259.6,1497.5L271.5,1496.8L275.9,1497.5L281.9,1495.9L287.3,1496.8L294.8,1500.3L300.2,1501.4L306.0,1501.4L311.1,1498.3L314.7,1492.9L317.3,1491.2L321.8,1487.2L322.9,1485.7L323.1,1483.2L322.0,1481.1L317.9,1476.6L314.8,1474.2L313.9,1472.8L313.3,1469.1L312.0,1467.6L306.8,1464.4L305.3,1456.1L305.8,1451.4L307.7,1446.6L310.6,1443.0L314.1,1441.5L316.7,1436.2L325.0,1430.5L327.7,1427.2L332.4,1425.6L334.1,1424.6Z " data-id="SE.SN" data-name="Skåne" id="SE.SN"/>
utf-8</g>
</svg>
