<?xml version="1.0" ?>
<!DOCTYPE svg
  PUBLIC '-//W3C//DTD SVG 1.1//EN'
  'http://www.w3.org/Graphics/SVG/1.1/DTD/svg11.dtd'>
<svg enable_background="new 0 0 1000 577" height="577px" pretty_print="True" style="stroke-linejoin: round; stroke:#000; fill: none;" version="1.1" viewBox="0 0 1000 577" width="1000px" xmlns="http://www.w3.org/2000/svg" xmlns:xlink="http://www.w3.org/1999/xlink">
utf-8<defs>
utf-8utf-8<style type="text/css">
<![CDATA[path { fill-rule: evenodd; }]]>utf-8utf-8</style>
utf-8</defs>
utf-8<metadata>
utf-8utf-8<views>
utf-8utf-8utf-8<view h="577.353547351" padding="0" w="1000">
utf-8utf-8utf-8utf-8<proj flip="auto" id="robinson" lon0="103.849030785"/>
utf-8utf-8utf-8utf-8<bbox h="3.09" w="5.36" x="1535.0" y="-24.29"/>
utf-8utf-8utf-8</view>
utf-8utf-8</views>
utf-8</metadata>
utf-8<g class="" id="provinces">
utf-8utf-8<path d="M660.2,68.8L640.9,95.3L608.8,99.4L574.9,97.4L549.9,99.4L528.9,123.6L522.2,149.9L540.5,172.1L551.6,196.4L555.5,220.6L534.5,240.8L506.2,259.0L492.3,283.2L505.2,305.5L505.7,337.8L481.2,366.1L458.3,386.3L462.5,426.7L461.1,452.9L468.7,483.3L496.0,515.6L521.2,531.7L553.6,545.9L572.8,551.6L588.4,534.8L683.7,460.0L712.2,447.6L703.5,430.7L683.3,394.4L663.1,360.0L646.5,329.7L640.7,297.4L640.2,267.1L650.4,236.8L669.6,214.5L687.3,204.4L710.4,194.3L715.2,162.0L725.4,131.7L738.0,112.4L660.2,68.8Z " data-id="SG.CS" data-name="Central Singapore" id="SG.CS"/>
utf-8utf-8<path d="M572.8,551.6L553.6,545.9L521.2,531.7L496.0,515.6L468.7,483.3L461.1,452.9L462.5,426.7L458.3,386.3L434.6,358.0L412.9,337.8L391.4,329.7L385.8,315.6L396.3,303.4L406.8,289.3L404.6,269.1L377.5,244.8L357.6,226.7L337.6,204.4L322.9,182.2L322.3,145.8L323.7,119.6L328.4,85.2L331.2,55.1L269.4,64.0L209.1,55.1L182.7,60.1L146.6,85.2L116.2,120.9L103.1,154.2L92.2,213.2L12.0,345.2L0.9,394.5L21.5,437.7L70.4,451.1L190.2,447.6L249.3,454.8L318.5,473.0L376.1,502.7L400.3,545.5L414.8,564.2L448.1,573.8L515.5,575.4L550.8,569.3L565.1,562.3L572.8,551.6Z " data-id="SG.SW" data-name="South West" id="SG.SW"/>
utf-8utf-8<path d="M331.2,55.1L328.4,85.2L323.7,119.6L322.3,145.8L322.9,182.2L337.6,204.4L357.6,226.7L377.5,244.8L404.6,269.1L406.8,289.3L396.3,303.4L385.8,315.6L391.4,329.7L412.9,337.8L434.6,358.0L458.3,386.3L481.2,366.1L505.7,337.8L505.2,305.5L492.3,283.2L506.2,259.0L534.5,240.8L555.5,220.6L551.6,196.4L540.5,172.1L522.2,149.9L528.9,123.6L549.9,99.4L574.9,97.4L608.8,99.4L640.9,95.3L660.2,68.8L592.6,31.0L521.5,4.8L448.0,0.0L407.2,13.6L331.2,55.1Z " data-id="SG.NW" data-name="North West" id="SG.NW"/>
utf-8utf-8<path d="M880.7,179.6L802.1,148.3L738.0,112.4L725.4,131.7L715.2,162.0L710.4,194.3L707.4,230.7L730.9,250.9L761.5,263.0L797.4,281.2L811.9,295.4L831.6,295.4L839.9,261.0L839.5,236.8L864.3,224.6L885.4,204.4L894.6,183.2L880.7,179.6Z " data-id="SG.NE" data-name="North East" id="SG.NE"/>
utf-8utf-8<path d="M737.2,436.7L805.1,428.1L866.7,407.4L922.4,356.4L968.3,292.5L999.1,232.4L988.0,213.2L949.6,197.2L894.6,183.2L885.4,204.4L864.3,224.6L839.5,236.8L839.9,261.0L831.6,295.4L811.9,295.4L797.4,281.2L761.5,263.0L730.9,250.9L707.4,230.7L710.4,194.3L687.3,204.4L669.6,214.5L650.4,236.8L640.2,267.1L640.7,297.4L646.5,329.7L663.1,360.0L683.3,394.4L703.5,430.7L712.2,447.6L737.2,436.7Z " data-id="SG.SE" data-name="South East" id="SG.SE"/>
utf-8</g>
</svg>
