<?xml version="1.0" ?>
<!DOCTYPE svg
  PUBLIC '-//W3C//DTD SVG 1.1//EN'
  'http://www.w3.org/Graphics/SVG/1.1/DTD/svg11.dtd'>
<svg enable_background="new 0 0 1000 572" height="572px" pretty_print="True" style="stroke-linejoin: round; stroke:#000; fill: none;" version="1.1" viewBox="0 0 1000 572" width="1000px" xmlns="http://www.w3.org/2000/svg" xmlns:xlink="http://www.w3.org/1999/xlink">
utf-8<defs>
utf-8utf-8<style type="text/css">
<![CDATA[path { fill-rule: evenodd; }]]>utf-8utf-8</style>
utf-8</defs>
utf-8<metadata>
utf-8utf-8<views>
utf-8utf-8utf-8<view h="572.904894475" padding="0" w="1000">
utf-8utf-8utf-8utf-8<proj flip="auto" id="robinson" lon0="14.5681719318"/>
utf-8utf-8utf-8utf-8<bbox h="23.57" w="41.21" x="176.04" y="-783.83"/>
utf-8utf-8utf-8</view>
utf-8utf-8</views>
utf-8</metadata>
utf-8<g class="" id="provinces">
utf-8utf-8<path d="M414.7,387.9L413.1,384.6L406.1,378.9L404.2,381.8L404.1,383.6L403.5,384.4L401.4,383.9L402.2,389.4L400.7,392.5L397.4,395.3L390.8,394.2L388.4,393.3L384.4,390.9L377.0,388.6L371.4,390.0L374.3,394.2L373.9,397.4L374.5,401.5L377.3,405.9L386.0,416.9L397.7,426.0L404.9,424.6L417.8,422.7L426.1,420.0L431.0,416.4L436.4,414.9L429.9,407.3L424.1,403.7L419.9,402.5L419.1,400.7L419.9,397.2L419.6,392.4L414.7,387.9Z " data-id="SI.LJ.VL" data-name="Velike Lašče" id="SI.LJ.VL"/>
utf-8utf-8<path d="M554.0,172.0L549.7,170.8L547.7,170.7L546.9,173.7L547.2,184.3L545.9,189.7L542.3,195.4L541.9,203.4L546.8,205.5L548.9,208.1L553.9,210.9L556.7,214.8L560.9,217.2L563.2,212.9L565.3,210.9L567.7,209.7L571.7,209.6L579.4,213.9L584.1,212.9L586.8,207.2L586.7,205.8L585.9,202.5L584.6,199.9L580.3,188.8L575.5,186.6L575.4,183.3L575.0,180.6L568.3,179.1L558.0,175.5L554.0,172.0Z " data-id="SI.SA.VE" data-name="Velenje" id="SI.SA.VE"/>
utf-8utf-8<path d="M632.7,190.9L633.6,185.1L632.6,183.1L627.4,179.7L622.1,172.6L622.3,168.7L625.3,166.0L624.4,165.6L621.3,163.9L612.8,164.4L607.5,165.7L605.2,167.0L603.3,169.4L599.8,178.6L593.6,187.2L605.7,198.1L625.9,198.0L632.7,190.9Z " data-id="SI.SA.VI" data-name="Vitanje" id="SI.SA.VI"/>
utf-8utf-8<path d="M353.5,261.1L355.1,264.0L355.0,264.3L352.5,266.2L357.3,286.0L359.7,287.8L363.2,287.5L371.5,285.1L374.5,283.2L375.6,280.6L378.4,278.9L378.3,273.8L374.0,272.6L365.7,262.4L353.5,261.1Z " data-id="SI.LJ.VO" data-name="Vodice" id="SI.LJ.VO"/>
utf-8utf-8<path d="M331.9,350.6L330.5,345.2L332.4,341.8L334.5,339.7L338.1,338.5L337.5,333.3L333.6,330.1L327.8,331.9L325.7,334.6L320.3,337.3L312.0,339.2L309.8,340.0L301.7,341.3L300.0,342.1L299.1,345.2L297.0,345.0L289.8,342.2L287.5,339.3L289.8,337.7L288.8,334.8L271.5,333.0L273.9,339.6L277.0,340.4L285.0,344.8L281.9,347.1L280.9,352.6L281.6,355.5L280.0,359.8L281.2,361.6L286.3,363.1L289.3,364.9L296.6,370.9L305.3,379.5L310.2,388.1L313.3,385.9L318.6,387.5L331.7,395.3L335.2,393.7L331.0,389.4L328.7,386.7L321.3,372.3L320.1,368.8L319.6,365.3L320.6,360.7L322.5,358.2L329.2,356.5L331.9,350.6Z " data-id="SI.LJ.VR" data-name="Vrhnika" id="SI.LJ.VR"/>
utf-8utf-8<path d="M572.8,131.0L571.0,127.6L571.5,123.0L573.0,120.4L573.9,117.2L572.6,113.9L576.3,113.0L578.1,112.0L580.4,108.0L579.8,102.9L574.1,99.8L571.2,97.1L562.4,103.4L558.0,104.9L553.4,104.3L549.0,105.4L548.1,106.8L546.8,110.1L547.7,113.1L547.2,116.7L550.6,120.7L555.3,123.9L559.0,128.1L561.0,131.2L575.9,137.7L578.9,132.9L572.8,131.0Z " data-id="SI.KO.VU" data-name="Vuzenica" id="SI.KO.VU"/>
utf-8utf-8<path d="M505.4,266.8L503.0,266.1L498.1,263.0L496.1,259.4L492.6,260.1L494.0,267.1L491.5,271.8L489.3,272.6L468.5,274.7L470.3,277.0L471.5,279.3L475.7,283.8L475.5,285.3L475.7,286.8L474.2,288.5L475.9,291.5L489.5,291.6L492.3,292.2L493.5,293.4L493.1,297.8L493.4,299.7L497.4,304.9L498.9,305.7L506.1,305.6L511.3,304.7L515.0,302.8L517.7,299.8L520.1,298.4L527.5,295.6L531.3,296.6L534.5,295.5L537.3,292.9L537.1,290.8L535.6,287.3L530.7,281.0L525.8,276.2L521.6,276.7L523.6,274.2L529.8,270.6L525.1,263.9L515.9,264.4L505.4,266.8Z " data-id="SI.ZS" data-name="Zasavska" id="SI.ZS"/>
utf-8utf-8<path d="M617.4,151.6L618.5,156.5L620.8,159.2L621.8,161.0L621.3,163.9L624.4,165.6L625.3,166.0L622.3,168.7L622.1,172.6L627.4,179.7L632.6,183.1L633.6,185.1L632.7,190.9L625.9,198.0L627.9,200.7L628.8,204.3L632.6,207.5L638.8,210.4L642.6,203.4L644.3,201.6L646.1,200.7L652.1,202.1L655.7,195.6L650.3,191.8L650.5,190.7L653.1,186.9L649.8,182.0L651.6,177.3L653.3,174.4L645.1,169.2L639.9,168.0L635.2,165.3L630.1,163.4L625.2,158.2L623.8,153.5L617.4,151.6Z " data-id="SI.SA.ZR" data-name="Zrece" id="SI.SA.ZR"/>
utf-8utf-8<path d="M232.7,182.8L231.1,182.4L226.3,180.6L223.2,178.4L196.7,166.4L192.7,167.5L190.6,169.9L186.9,171.5L182.9,174.0L174.1,181.2L152.4,191.7L162.7,197.5L169.2,197.5L184.6,200.2L190.3,203.1L196.5,205.0L201.5,208.8L205.1,209.4L209.4,211.8L216.6,217.8L221.3,219.1L228.2,217.3L230.4,217.5L232.0,219.7L234.1,223.5L235.6,224.3L238.4,221.2L239.7,216.7L243.6,213.6L245.5,209.4L250.0,205.3L250.3,203.3L246.8,197.7L245.0,195.3L239.1,187.1L241.0,181.5L232.7,182.8Z " data-id="SI.GO.BL" data-name="Bled" id="SI.GO.BL"/>
utf-8utf-8<path d="M150.4,191.3L146.4,196.5L126.7,206.0L122.3,209.9L120.2,213.6L116.1,223.2L119.5,229.4L131.0,239.0L147.6,247.0L162.2,251.0L167.0,251.6L171.5,251.6L203.9,247.9L203.9,248.0L207.7,245.1L213.8,243.7L231.9,246.1L234.5,245.1L235.1,243.0L235.6,236.8L236.8,234.1L238.9,231.3L246.1,230.3L256.8,231.3L260.7,230.2L260.7,224.4L258.9,222.4L254.0,222.7L238.4,221.2L235.6,224.3L234.1,223.5L232.0,219.7L230.4,217.5L228.2,217.3L221.3,219.1L216.6,217.8L209.4,211.8L205.1,209.4L201.5,208.8L196.5,205.0L190.3,203.1L184.6,200.2L169.2,197.5L162.7,197.5L152.4,191.7L150.4,191.3Z " data-id="SI.GO.BO" data-name="Bohinj" id="SI.GO.BO"/>
utf-8utf-8<path d="M228.3,276.5L219.6,274.2L207.5,273.2L202.7,271.2L202.5,269.0L202.6,265.7L193.1,272.1L182.3,275.2L177.1,278.0L173.2,281.7L171.2,287.3L171.3,289.5L172.9,293.3L176.2,298.0L177.1,301.1L177.2,304.2L179.8,312.6L179.6,313.8L175.9,316.0L180.3,318.3L185.2,318.5L187.3,314.5L188.9,315.4L191.9,315.2L195.4,311.4L196.2,308.2L197.7,308.4L203.5,312.7L209.5,316.2L212.5,317.2L219.1,316.6L219.0,313.8L216.6,311.5L216.1,310.2L216.6,306.1L217.5,302.5L230.6,280.2L228.3,276.5Z " data-id="SI.SP.CE" data-name="Cerkno" id="SI.SP.CE"/>
utf-8utf-8<path d="M275.2,304.3L272.7,302.2L272.0,295.3L273.9,291.3L273.0,288.1L271.5,286.9L273.7,281.3L275.5,279.7L277.8,275.1L274.5,271.8L271.7,271.1L265.8,271.4L261.9,272.2L258.2,271.7L237.9,275.3L236.9,276.4L230.6,280.2L217.5,302.5L216.6,306.1L216.1,310.2L216.6,311.5L219.0,313.8L219.7,310.5L225.1,309.1L250.9,313.8L254.4,315.2L256.4,316.6L263.0,323.0L270.0,327.8L275.8,319.0L275.9,316.3L276.5,313.7L276.4,307.9L275.2,304.3Z " data-id="SI.GO.GV" data-name="Gorenja vas-Poljane" id="SI.GO.GV"/>
utf-8utf-8<path d="M219.1,316.6L212.5,317.2L209.5,316.2L203.5,312.7L197.7,308.4L196.2,308.2L195.4,311.4L191.9,315.2L188.9,315.4L187.3,314.5L185.2,318.5L180.3,318.3L175.9,316.0L173.6,315.6L170.3,317.9L167.2,317.1L165.3,319.5L169.7,324.3L168.1,326.7L168.4,332.6L168.3,340.1L164.1,342.0L168.8,347.3L169.2,348.8L174.6,352.5L180.6,355.1L188.3,362.3L196.4,368.0L200.8,369.1L204.0,371.5L210.5,375.0L214.9,378.7L228.1,386.3L253.3,390.9L248.9,381.9L247.3,380.0L245.9,376.9L245.8,370.4L247.8,366.7L249.4,362.0L249.5,358.0L247.5,353.4L250.5,351.3L255.5,345.9L255.5,340.5L246.6,337.8L241.3,330.1L236.5,329.0L226.9,317.8L219.0,313.8L219.1,316.6Z " data-id="SI.SP.ID" data-name="Idrija" id="SI.SP.ID"/>
utf-8utf-8<path d="M327.7,227.4L324.6,228.1L321.8,226.5L320.1,222.4L320.7,221.4L325.2,222.5L326.3,221.1L328.0,213.5L331.0,203.4L316.4,203.7L313.6,204.7L309.9,207.9L307.5,209.3L306.6,215.4L307.6,218.3L305.8,219.3L305.3,221.4L302.8,223.6L304.0,227.4L309.1,232.9L310.8,235.6L310.4,239.5L309.7,241.1L308.1,241.8L299.2,236.5L291.5,233.8L278.6,234.5L276.6,233.8L260.7,230.2L256.8,231.3L265.4,236.5L270.8,241.4L275.3,243.6L284.0,246.5L292.9,250.0L293.9,253.0L291.4,255.8L291.5,257.8L293.7,259.3L314.0,266.4L317.7,266.5L322.7,265.3L322.1,268.3L322.6,270.2L327.7,270.9L329.5,272.9L332.7,279.3L339.0,275.2L337.9,273.5L335.9,266.8L329.6,256.8L327.5,253.8L327.8,251.5L330.0,247.5L332.4,237.1L336.1,232.2L336.6,228.3L327.7,227.4Z " data-id="SI.GO.KR" data-name="Kranj" id="SI.GO.KR"/>
utf-8utf-8<path d="M197.8,152.3L192.5,151.7L162.5,139.8L152.8,138.5L132.3,141.4L128.0,141.4L106.6,137.0L101.8,136.7L102.0,139.8L99.0,147.2L99.2,157.3L98.5,158.8L100.2,162.8L99.7,171.6L101.4,172.6L107.9,171.4L115.9,168.2L119.9,169.1L125.3,171.1L135.7,176.3L139.9,179.1L141.9,181.2L144.4,185.1L150.4,191.3L152.4,191.7L174.1,181.2L182.9,174.0L186.9,171.5L190.6,169.9L192.7,167.5L196.7,166.4L198.8,163.2L202.6,160.2L203.0,156.8L202.9,151.5L197.8,152.3Z " data-id="SI.GO.KG" data-name="Kranjska Gora" id="SI.GO.KG"/>
utf-8utf-8<path d="M298.6,216.4L296.8,216.1L294.8,215.0L287.7,213.5L288.1,225.0L288.8,227.7L291.5,233.8L299.2,236.5L308.1,241.8L309.7,241.1L310.4,239.5L310.8,235.6L309.1,232.9L304.0,227.4L302.8,223.6L305.3,221.4L305.8,219.3L307.6,218.3L306.6,215.4L298.6,216.4Z " data-id="SI.GO.NA" data-name="Naklo" id="SI.GO.NA"/>
utf-8utf-8<path d="M285.3,211.8L283.9,209.0L284.4,207.1L281.0,202.7L282.0,188.1L280.7,178.9L275.6,174.2L270.9,175.6L268.3,177.5L264.1,182.7L261.5,189.4L258.3,191.4L251.7,191.5L245.0,195.3L246.8,197.7L250.3,203.3L250.0,205.3L245.5,209.4L243.6,213.6L239.7,216.7L238.4,221.2L254.0,222.7L258.9,222.4L260.7,224.4L260.7,230.2L276.6,233.8L278.6,234.5L291.5,233.8L288.8,227.7L288.1,225.0L287.7,213.5L285.3,211.8Z " data-id="SI.GO.RA" data-name="Radovljica" id="SI.GO.RA"/>
utf-8utf-8<path d="M329.5,272.9L327.7,270.9L322.6,270.2L322.1,268.3L322.7,265.3L317.7,266.5L314.0,266.4L293.7,259.3L291.5,257.8L291.4,255.8L293.9,253.0L292.9,250.0L284.0,246.5L282.5,250.2L280.2,252.4L279.2,259.3L274.7,261.7L269.4,264.0L267.0,266.0L260.4,268.0L258.2,271.7L261.9,272.2L265.8,271.4L271.7,271.1L274.5,271.8L277.8,275.1L275.5,279.7L273.7,281.3L271.5,286.9L273.0,288.1L273.9,291.3L272.0,295.3L272.7,302.2L275.2,304.3L276.4,307.9L282.7,303.2L293.8,300.6L312.5,303.9L313.9,297.9L312.8,295.8L313.6,292.5L315.6,289.5L321.5,285.2L325.2,284.5L327.8,283.3L329.7,280.1L332.7,279.3L329.5,272.9Z " data-id="SI.GO.SL" data-name="Škofja Loka" id="SI.GO.SL"/>
utf-8utf-8<path d="M203.9,247.9L171.5,251.6L167.0,251.6L162.2,251.0L147.6,247.0L131.0,239.0L119.5,229.4L116.3,229.5L113.8,230.1L110.9,232.9L108.9,236.3L107.2,243.5L106.7,248.2L104.5,250.1L98.8,250.2L96.3,250.7L92.9,252.9L88.4,252.6L85.3,256.0L84.9,259.5L85.4,263.4L90.2,267.1L87.4,270.8L90.6,271.3L92.1,274.9L100.1,273.4L106.6,282.0L107.4,284.9L110.8,288.8L113.2,290.0L114.8,292.1L134.8,302.6L138.3,299.6L142.2,299.8L144.6,301.7L147.8,310.6L147.7,313.4L148.3,318.1L149.7,323.0L153.0,328.6L156.6,332.8L159.2,335.2L168.3,340.1L168.4,332.6L168.1,326.7L169.7,324.3L165.3,319.5L167.2,317.1L170.3,317.9L173.6,315.6L175.9,316.0L179.6,313.8L179.8,312.6L177.2,304.2L177.1,301.1L176.2,298.0L172.9,293.3L171.3,289.5L171.2,287.3L173.2,281.7L177.1,278.0L182.3,275.2L193.1,272.1L202.6,265.7L206.9,255.7L206.8,253.0L203.9,248.0L203.9,247.9Z " data-id="SI.SP.TO" data-name="Tolmin" id="SI.SP.TO"/>
utf-8utf-8<path d="M333.6,174.5L331.7,172.7L328.9,168.6L325.4,167.9L314.9,170.0L276.6,169.0L276.6,169.3L276.5,169.5L275.6,174.2L280.7,178.9L282.0,188.1L281.0,202.7L284.4,207.1L283.9,209.0L285.3,211.8L287.7,213.5L294.8,215.0L296.8,216.1L298.6,216.4L306.6,215.4L307.5,209.3L309.9,207.9L313.6,204.7L316.4,203.7L331.0,203.4L331.7,198.4L331.3,194.9L334.3,189.4L335.3,185.6L338.4,177.8L339.2,176.7L333.6,174.5Z " data-id="SI.GO.TR" data-name="Tržič" id="SI.GO.TR"/>
utf-8utf-8<path d="M246.1,230.3L238.9,231.3L236.8,234.1L235.6,236.8L235.1,243.0L234.5,245.1L231.9,246.1L213.8,243.7L207.7,245.1L203.9,248.0L206.8,253.0L206.9,255.7L202.6,265.7L202.5,269.0L202.7,271.2L207.5,273.2L219.6,274.2L228.3,276.5L230.6,280.2L236.9,276.4L237.9,275.3L258.2,271.7L260.4,268.0L267.0,266.0L269.4,264.0L274.7,261.7L279.2,259.3L280.2,252.4L282.5,250.2L284.0,246.5L275.3,243.6L270.8,241.4L265.4,236.5L256.8,231.3L246.1,230.3Z " data-id="SI.GO.ZE" data-name="Železniki" id="SI.GO.ZE"/>
utf-8utf-8<path d="M263.0,323.0L256.4,316.6L254.4,315.2L250.9,313.8L225.1,309.1L219.7,310.5L219.0,313.8L226.9,317.8L236.5,329.0L241.3,330.1L246.6,337.8L255.5,340.5L265.5,334.8L270.0,327.8L263.0,323.0Z " data-id="SI.GO.ZI" data-name="Žiri" id="SI.GO.ZI"/>
utf-8utf-8<path d="M228.1,386.3L214.9,378.7L210.5,375.0L204.0,371.5L200.8,369.1L196.4,368.0L188.3,362.3L180.6,355.1L174.6,352.5L169.2,348.8L168.8,347.3L164.1,342.0L161.7,345.4L162.0,349.3L148.1,358.3L141.1,369.8L134.7,376.8L132.7,377.4L128.5,380.1L133.2,383.1L136.0,385.9L140.6,388.3L146.7,393.2L150.5,397.3L151.5,398.9L158.1,402.4L159.0,403.2L162.7,408.0L170.7,411.5L172.5,411.7L179.5,410.7L181.1,405.9L185.9,402.5L190.3,400.0L193.5,396.9L200.9,392.9L206.2,391.5L210.5,391.3L213.9,392.0L216.5,393.1L219.8,396.2L222.5,403.0L230.6,407.4L245.3,402.7L246.3,401.5L255.3,394.8L253.3,390.9L228.1,386.3Z " data-id="SI.SP.AJ" data-name="Ajdovščina" id="SI.SP.AJ"/>
utf-8utf-8<path d="M144.4,185.1L141.9,181.2L139.9,179.1L135.7,176.3L125.3,171.1L119.9,169.1L115.9,168.2L107.9,171.4L101.4,172.6L99.7,171.6L100.2,162.8L98.5,158.8L96.1,163.5L90.4,166.3L82.5,166.1L71.8,167.3L64.4,173.6L58.1,181.8L50.8,188.8L36.5,195.7L29.2,200.5L25.4,202.1L21.2,202.5L17.9,206.1L14.2,214.5L10.1,221.2L17.9,225.7L22.3,226.8L27.7,229.0L36.8,231.4L49.1,232.9L52.8,231.2L53.6,229.4L52.1,226.1L54.0,224.7L59.5,223.1L70.6,224.0L84.9,223.7L92.0,225.4L98.5,225.9L116.1,223.2L120.2,213.6L122.3,209.9L126.7,206.0L146.4,196.5L150.4,191.3L144.4,185.1Z " data-id="SI.SP.BO" data-name="Bovec" id="SI.SP.BO"/>
utf-8utf-8<path d="M78.7,331.7L73.2,327.5L70.1,323.3L68.1,319.6L64.5,316.6L59.9,315.0L56.8,313.0L51.4,316.7L44.7,325.1L47.4,327.4L48.4,329.9L47.7,332.7L45.4,335.5L43.8,336.5L43.6,344.5L55.4,355.7L65.0,355.1L75.0,350.8L84.2,348.9L84.4,348.7L87.3,346.3L92.0,344.2L84.4,337.7L78.7,331.7Z " data-id="SI.SP.BR" data-name="Brda" id="SI.SP.BR"/>
utf-8utf-8<path d="M222.7,433.7L221.5,433.5L219.3,433.4L218.5,433.9L214.5,435.9L210.4,442.4L207.0,444.1L204.6,445.8L204.4,448.4L206.0,452.9L208.0,456.0L209.1,459.5L207.6,462.4L200.0,473.3L202.6,477.0L201.4,484.3L205.5,487.0L212.2,488.1L217.6,490.4L223.8,494.1L230.0,496.7L234.9,500.2L241.4,501.3L245.2,499.8L246.8,497.3L250.7,495.6L250.6,491.6L247.1,490.1L247.9,487.1L242.8,477.6L242.2,472.1L239.9,467.0L240.4,464.2L242.4,460.6L246.0,459.0L249.1,456.0L244.8,448.1L241.5,444.5L229.8,437.5L222.7,433.7Z " data-id="SI.JP.DI" data-name="Divaca" id="SI.JP.DI"/>
utf-8utf-8<path d="M191.9,483.9L187.3,487.8L187.7,488.6L185.6,493.8L179.9,500.3L180.9,502.2L184.6,512.1L189.6,517.1L194.9,520.2L208.4,522.6L219.3,533.0L220.6,536.0L229.2,537.6L234.0,539.7L246.9,548.5L255.5,551.0L263.2,551.4L263.1,544.0L260.9,540.2L253.2,534.7L252.4,533.6L254.4,528.4L256.5,520.8L257.0,514.6L255.0,513.6L253.2,514.1L251.6,511.2L252.7,506.5L254.2,503.5L255.6,499.3L250.7,495.6L246.8,497.3L245.2,499.8L241.4,501.3L234.9,500.2L230.0,496.7L223.8,494.1L217.6,490.4L212.2,488.1L205.5,487.0L201.4,484.3L191.9,483.9Z " data-id="SI.JP.HK" data-name="Hrpelje-Kozina" id="SI.JP.HK"/>
utf-8utf-8<path d="M120.0,532.5L119.6,523.0L119.6,523.0L99.2,525.7L99.5,527.5L101.4,530.6L103.7,538.1L107.5,540.9L112.0,545.4L115.4,543.8L116.7,538.0L120.0,532.5Z " data-id="SI.JP.IZ" data-name="Izola" id="SI.JP.IZ"/>
utf-8utf-8<path d="M114.8,292.1L113.2,290.0L110.8,288.8L107.4,284.9L106.6,282.0L100.1,273.4L92.1,274.9L93.6,278.7L85.4,293.3L56.8,313.0L59.9,315.0L64.5,316.6L68.1,319.6L70.1,323.3L73.2,327.5L78.7,331.7L84.4,337.7L88.0,338.2L93.9,342.2L95.2,342.4L97.3,340.9L90.8,333.5L90.9,332.0L93.2,330.5L99.6,321.1L103.2,318.5L107.7,316.3L115.4,316.8L124.2,319.9L126.6,319.8L130.3,317.2L134.7,310.4L134.8,302.6L114.8,292.1Z " data-id="SI.SP.KA" data-name="Kanal" id="SI.SP.KA"/>
utf-8utf-8<path d="M98.5,225.9L92.0,225.4L84.9,223.7L70.6,224.0L59.5,223.1L54.0,224.7L52.1,226.1L53.6,229.4L52.8,231.2L49.1,232.9L36.8,231.4L27.7,229.0L22.3,226.8L17.9,225.7L10.1,221.2L8.9,223.3L0.9,227.7L3.6,231.7L5.7,236.4L8.3,246.4L12.9,251.4L14.4,256.9L17.4,260.4L26.0,259.2L20.9,252.2L25.9,253.7L35.5,254.3L40.1,256.4L49.1,258.0L55.4,261.6L65.5,269.8L73.7,271.0L83.1,270.1L87.4,270.8L90.2,267.1L85.4,263.4L84.9,259.5L85.3,256.0L88.4,252.6L92.9,252.9L96.3,250.7L98.8,250.2L104.5,250.1L106.7,248.2L107.2,243.5L108.9,236.3L110.9,232.9L113.8,230.1L116.3,229.5L119.5,229.4L116.1,223.2L98.5,225.9Z " data-id="SI.SP.KO" data-name="Kobarid" id="SI.SP.KO"/>
utf-8utf-8<path d="M155.5,405.4L152.1,405.8L145.2,405.8L139.6,404.4L122.0,396.3L121.6,403.7L117.9,407.7L114.2,409.5L110.6,413.1L103.9,414.1L85.7,413.7L80.0,414.5L82.6,418.4L91.8,422.6L102.9,423.8L108.3,425.2L121.6,433.7L123.2,430.1L129.3,426.1L131.2,425.5L138.1,425.7L169.7,422.2L185.4,418.0L179.5,410.7L172.5,411.7L170.7,411.5L162.7,408.0L155.5,405.4Z " data-id="SI.JP.KM" data-name="Komen" id="SI.JP.KM"/>
utf-8utf-8<path d="M220.6,536.0L219.3,533.0L208.4,522.6L194.9,520.2L189.6,517.1L184.6,512.1L180.9,502.2L179.9,500.3L173.9,507.2L158.9,508.6L145.8,502.7L130.1,503.9L140.5,513.1L144.2,517.4L144.4,519.8L119.6,523.0L120.0,532.5L116.7,538.0L125.5,540.9L126.7,542.5L122.1,547.5L120.6,550.9L117.3,554.0L117.0,556.5L148.8,555.3L164.5,563.6L169.0,567.4L174.2,568.7L191.4,570.9L194.7,568.7L197.3,564.9L201.7,560.9L216.3,555.4L220.1,550.5L212.8,543.4L212.5,539.2L213.5,536.4L215.6,535.1L220.6,536.0Z " data-id="SI.JP.KP" data-name="Koper" id="SI.JP.KP"/>
utf-8utf-8<path d="M90.4,380.8L85.6,377.6L77.3,396.5L77.1,410.0L80.0,414.5L85.7,413.7L103.9,414.1L110.6,413.1L114.2,409.5L117.9,407.7L121.6,403.7L122.0,396.3L112.3,394.9L107.9,395.1L99.4,392.6L96.1,390.8L93.1,388.0L93.0,386.7L99.0,385.4L101.3,383.5L90.4,380.8Z " data-id="SI.SP.MK" data-name="Miren-Kostanjevica" id="SI.SP.MK"/>
utf-8utf-8<path d="M92.5,526.6L85.6,525.2L87.2,528.9L89.3,531.5L91.8,533.0L95.0,533.6L95.1,536.0L93.2,540.1L94.2,543.4L93.7,545.1L107.1,556.9L117.0,556.5L117.3,554.0L120.6,550.9L122.1,547.5L126.7,542.5L125.5,540.9L116.7,538.0L115.4,543.8L112.0,545.4L107.5,540.9L103.7,538.1L101.4,530.6L99.5,527.5L99.2,525.7L92.5,526.6Z " data-id="SI.JP.PI" data-name="Piran" id="SI.JP.PI"/>
utf-8utf-8<path d="M212.3,432.8L195.0,424.7L185.4,418.0L169.7,422.2L138.1,425.7L131.2,425.5L129.3,426.1L123.2,430.1L121.6,433.7L124.8,435.8L147.5,444.4L175.6,481.7L179.2,484.9L184.2,487.3L187.1,487.5L187.3,487.8L191.9,483.9L201.4,484.3L202.6,477.0L200.0,473.3L207.6,462.4L209.1,459.5L208.0,456.0L206.0,452.9L204.4,448.4L204.6,445.8L207.0,444.1L210.4,442.4L214.5,435.9L212.3,432.8Z " data-id="SI.JP.SE" data-name="Sežana" id="SI.JP.SE"/>
utf-8utf-8<path d="M222.5,403.0L219.8,396.2L216.5,393.1L213.9,392.0L210.5,391.3L206.2,391.5L200.9,392.9L193.5,396.9L190.3,400.0L185.9,402.5L181.1,405.9L179.5,410.7L185.4,418.0L195.0,424.7L212.3,432.8L214.5,435.9L218.5,433.9L219.3,433.4L221.5,433.5L222.7,433.7L229.8,437.5L231.5,432.8L233.1,430.7L233.6,423.2L235.4,418.6L230.6,407.4L222.5,403.0Z " data-id="SI.SP.VI" data-name="Vipava" id="SI.SP.VI"/>
utf-8utf-8<path d="M920.3,82.6L918.0,82.1L915.7,84.4L906.8,83.6L896.3,93.2L892.2,94.7L889.5,98.8L882.8,102.5L896.9,108.0L901.4,111.1L912.1,123.1L917.5,117.1L916.0,114.2L915.0,111.4L915.6,109.1L919.1,105.4L927.6,105.9L926.2,97.7L921.1,93.8L921.9,90.4L921.7,88.5L925.1,85.8L920.3,82.6Z " data-id="SI.PM.BE" data-name="Beltinci" id="SI.PM.BE"/>
utf-8utf-8<path d="M849.0,164.7L848.7,157.0L841.9,148.2L838.5,154.9L837.3,157.8L835.2,160.9L829.4,165.8L821.6,164.0L819.3,176.1L832.2,177.6L834.5,174.1L835.8,172.8L840.8,170.3L845.4,171.4L849.0,164.7Z " data-id="SI.PD.DO" data-name="Dornava" id="SI.PD.DO"/>
utf-8utf-8<path d="M840.8,170.3L835.8,172.8L834.5,174.1L832.2,177.6L834.2,183.2L834.7,186.7L837.7,191.6L838.5,194.9L835.6,197.8L832.1,199.2L829.5,199.3L829.3,204.4L832.5,209.8L832.5,212.9L837.9,225.7L839.5,227.6L841.0,227.2L847.4,224.3L853.4,220.5L856.7,217.2L853.8,210.3L852.8,205.8L849.4,200.7L849.3,198.4L851.7,192.3L856.1,188.9L862.8,190.4L859.0,182.6L853.5,174.3L845.4,171.4L840.8,170.3Z " data-id="SI.PD.GO" data-name="Gorišnica" id="SI.PD.GO"/>
utf-8utf-8<path d="M836.6,134.8L829.0,136.9L825.4,139.0L822.6,140.2L818.8,143.9L818.6,149.6L817.8,152.3L818.2,160.4L821.6,164.0L829.4,165.8L835.2,160.9L837.3,157.8L838.5,154.9L841.9,148.2L839.2,141.5L841.1,140.0L836.6,134.8Z " data-id="SI.PD.DO" data-name="Juršinci" id="SI.PD.DO"/>
utf-8utf-8<path d="M945.0,66.4L944.6,67.2L942.5,71.2L945.3,75.1L948.4,77.0L954.7,79.3L958.0,79.8L960.3,77.7L958.0,70.2L953.0,67.4L947.0,67.1L945.3,66.5L945.0,66.4Z " data-id="SI.PM.KO" data-name="Kobilje" id="SI.PM.KO"/>
utf-8utf-8<path d="M908.1,33.3L903.2,40.4L900.7,42.4L898.4,46.5L896.6,47.5L894.2,47.3L888.3,54.3L886.4,54.4L884.7,56.8L883.9,57.7L885.6,66.1L890.3,73.3L890.7,76.2L894.6,79.6L902.0,82.8L906.8,83.6L915.7,84.4L918.0,82.1L920.3,82.6L925.1,85.8L930.5,86.9L931.0,80.7L933.6,74.6L937.5,69.5L941.0,70.7L942.5,71.2L944.6,67.2L945.0,66.4L942.5,65.5L941.8,58.8L937.5,59.5L934.3,56.5L931.2,51.9L927.2,47.9L921.1,35.0L921.4,33.5L921.2,33.7L920.4,34.1L918.6,34.5L908.1,33.3Z " data-id="SI.PM.MT" data-name="Moravske Toplice" id="SI.PM.MT"/>
utf-8utf-8<path d="M902.0,82.8L894.6,79.6L890.7,76.2L890.3,73.3L885.6,66.1L877.2,69.1L874.8,68.4L863.4,68.9L862.2,74.3L864.4,80.4L866.3,82.4L869.6,87.4L869.0,90.2L866.2,95.3L869.5,97.2L882.8,102.5L889.5,98.8L892.2,94.7L896.3,93.2L906.8,83.6L902.0,82.8Z " data-id="SI.PM.MS" data-name="Murska Sobota" id="SI.PM.MS"/>
utf-8utf-8<path d="M919.1,105.4L915.6,109.1L915.0,111.4L916.0,114.2L917.5,117.1L921.6,114.2L923.9,113.5L927.6,109.0L927.6,105.9L919.1,105.4Z " data-id="SI.PM.OD" data-name="Odranci" id="SI.PM.OD"/>
utf-8utf-8<path d="M841.1,140.0L839.2,141.5L841.9,148.2L848.7,157.0L849.0,164.7L845.4,171.4L853.5,174.3L859.0,182.6L862.8,190.4L867.2,194.9L869.1,195.2L872.8,194.6L875.6,192.4L877.8,189.4L880.3,187.0L884.2,186.3L887.4,187.6L895.5,193.9L900.2,196.2L905.7,197.3L908.4,197.2L919.6,194.8L926.9,194.9L927.4,189.2L925.8,187.3L920.1,184.2L918.0,182.2L916.9,178.9L916.9,172.5L916.4,169.3L911.8,158.4L910.1,153.0L910.1,150.5L904.9,154.6L902.8,154.0L900.2,155.1L896.6,150.9L893.7,148.7L889.5,146.2L884.8,147.2L882.4,149.1L878.8,148.8L871.3,146.2L856.5,143.9L851.2,142.0L841.1,140.0Z " data-id="SI.PD.OR" data-name="Ormož" id="SI.PD.OR"/>
utf-8utf-8<path d="M855.2,109.6L853.1,108.5L851.2,104.0L849.4,102.5L847.2,102.3L840.8,109.0L836.4,107.3L825.3,110.4L822.9,118.3L829.2,126.0L836.6,134.8L841.1,140.0L842.7,136.0L844.7,129.0L848.1,126.6L858.4,127.9L861.4,119.1L861.5,116.9L857.3,107.5L855.2,109.6Z " data-id="SI.PM.SJ" data-name="Sveti Jurij" id="SI.PM.SJ"/>
utf-8utf-8<path d="M925.1,85.8L921.7,88.5L921.9,90.4L921.1,93.8L926.2,97.7L927.6,105.9L936.9,111.3L938.7,107.2L943.0,104.6L947.8,105.9L952.3,104.9L942.1,98.7L930.5,86.9L925.1,85.8Z " data-id="SI.PM.TU" data-name="Turnišče" id="SI.PM.TU"/>
utf-8utf-8<path d="M856.1,188.9L851.7,192.3L849.3,198.4L849.4,200.7L852.8,205.8L853.8,210.3L856.7,217.2L857.4,216.5L859.3,211.1L858.9,205.9L857.7,200.2L857.3,193.1L867.2,194.9L862.8,190.4L856.1,188.9Z " data-id="SI.PD.ZA" data-name="Zavrc" id="SI.PD.ZA"/>
utf-8utf-8<path d="M880.7,2.2L896.8,11.8L902.4,14.4L907.2,18.3L909.6,21.6L910.2,24.6L909.5,28.8L908.7,30.3L908.1,33.3L918.6,34.5L920.4,34.1L921.2,33.7L921.4,33.5L922.0,30.6L924.5,26.4L920.2,23.8L919.3,21.4L920.7,18.8L921.1,16.5L920.7,11.3L918.5,6.7L913.3,1.6L909.9,0.0L880.7,2.2Z " data-id="SI.PM.SA" data-name="Šalovci" id="SI.PM.SA"/>
utf-8utf-8<path d="M853.4,0.5L840.8,7.1L842.8,19.0L847.9,17.9L849.5,16.5L853.8,13.4L855.9,12.7L864.2,12.3L863.2,8.2L865.1,2.9L853.4,0.5Z " data-id="SI.PM.KU" data-name="Kuzma" id="SI.PM.KU"/>
utf-8utf-8<path d="M818.1,109.5L814.4,112.3L812.7,112.9L809.2,115.3L807.3,118.6L810.9,127.9L816.4,130.3L817.2,131.3L819.3,131.4L820.9,131.3L829.2,126.0L822.9,118.3L825.3,110.4L818.1,109.5Z " data-id="SI.PD.CE" data-name="Cerkvenjak" id="SI.PD.CE"/>
utf-8utf-8<path d="M804.8,100.5L803.4,95.3L808.0,91.5L808.7,89.6L806.0,88.7L804.6,89.0L798.9,88.1L794.7,86.6L790.8,90.4L788.3,95.6L787.8,100.5L791.9,102.5L798.1,109.5L801.2,111.4L805.2,110.4L808.6,108.4L810.7,106.3L804.8,100.5Z " data-id="SI.PD.BE" data-name="Benedikt" id="SI.PD.BE"/>
utf-8utf-8<path d="M790.4,77.7L784.6,76.4L774.1,70.5L770.9,66.6L766.4,65.2L766.8,72.1L765.7,74.5L765.6,76.8L763.8,78.8L764.6,83.1L766.7,86.2L772.5,86.8L775.0,90.4L776.9,97.3L782.1,101.2L786.0,101.9L787.8,100.5L788.3,95.6L790.8,90.4L794.7,86.6L794.4,79.9L790.4,77.7Z " data-id="SI.PD.SA" data-name="Sveta Ana" id="SI.PD.SA"/>
utf-8utf-8<path d="M925.6,24.6L927.4,20.1L928.8,15.3L929.3,11.7L927.7,9.7L923.0,9.5L920.1,8.2L918.5,6.7L920.7,11.3L921.1,16.5L920.7,18.8L919.3,21.4L920.2,23.8L924.5,26.4L925.6,24.6Z " data-id="SI.PM.HO" data-name="Hodoš" id="SI.PM.HO"/>
utf-8utf-8<path d="M864.2,12.3L855.9,12.7L853.8,13.4L849.5,16.5L847.9,17.9L842.8,19.0L842.7,35.1L843.0,37.3L846.8,39.6L852.8,39.4L857.7,40.5L862.1,38.4L866.2,30.4L867.9,13.7L864.2,12.3Z " data-id="SI.PM.GD" data-name="Grad" id="SI.PM.GD"/>
utf-8utf-8<path d="M799.3,144.6L792.7,144.5L788.4,142.0L778.9,146.5L786.2,151.3L794.8,160.4L799.7,163.0L802.3,163.5L807.0,160.2L811.2,156.0L817.8,152.3L818.6,149.6L812.1,142.9L799.3,144.6Z " data-id="SI.PD.DE" data-name="Destrnik" id="SI.PD.DE"/>
utf-8utf-8<path d="M293.8,300.6L282.7,303.2L276.4,307.9L276.5,313.7L275.9,316.3L275.8,319.0L270.0,327.8L272.1,329.1L271.5,333.0L288.8,334.8L288.3,330.4L291.0,327.1L292.4,326.5L300.4,324.8L313.5,325.9L318.1,327.9L320.2,331.3L320.5,335.1L320.3,337.3L325.7,334.6L327.8,331.9L333.6,330.1L340.6,328.6L342.2,329.0L347.6,331.3L350.9,329.4L351.1,326.6L350.6,322.9L344.7,311.8L341.7,310.0L339.6,310.0L327.7,307.1L321.0,309.8L317.0,308.4L315.3,307.0L312.5,303.9L293.8,300.6Z " data-id="SI.LJ.DP" data-name="Dobrova-Polhov Gradec" id="SI.LJ.DP"/>
utf-8utf-8<path d="M415.7,260.9L409.9,262.7L407.7,264.6L400.8,268.1L394.6,267.9L392.9,272.9L395.7,284.3L391.6,289.5L390.3,293.5L390.3,300.1L397.7,301.0L398.6,304.5L405.9,303.8L409.6,302.3L416.9,298.0L421.0,296.2L427.7,296.3L428.1,293.0L423.4,290.2L423.0,287.8L425.8,285.8L423.2,283.1L416.2,279.1L415.0,278.8L415.0,275.3L418.1,269.2L424.0,263.9L415.7,260.9Z " data-id="SI.LJ.DM" data-name="Domžale" id="SI.LJ.DM"/>
utf-8utf-8<path d="M395.9,199.3L391.4,199.5L382.6,196.6L372.4,200.0L375.7,203.0L376.3,205.5L375.8,209.4L379.0,215.4L376.4,219.1L376.6,224.4L379.0,228.1L380.3,232.4L382.1,234.0L386.1,239.2L385.4,243.7L384.6,244.8L381.1,246.4L385.6,252.4L387.4,257.7L392.0,264.3L391.2,266.5L394.6,267.9L400.8,268.1L407.7,264.6L409.9,262.7L415.7,260.9L424.0,263.9L434.4,262.7L440.6,264.5L445.0,265.1L451.8,265.2L456.8,263.6L492.6,260.1L496.1,259.4L502.3,256.1L487.2,247.5L477.3,242.6L463.3,242.0L456.2,242.5L444.7,242.0L432.0,238.5L428.6,235.9L428.7,229.1L422.3,229.3L420.4,227.6L419.1,224.0L416.8,219.7L408.5,210.4L405.4,197.6L395.9,199.3Z " data-id="SI.LJ.KA" data-name="Kamnik" id="SI.LJ.KA"/>
utf-8utf-8<path d="M518.2,433.3L514.2,434.2L505.1,443.8L499.1,444.2L496.6,440.9L494.1,439.6L488.9,438.0L485.4,437.7L482.7,438.8L478.5,438.8L473.2,444.6L482.1,450.6L473.1,471.9L473.0,476.1L470.1,481.9L468.0,484.6L463.0,485.5L455.4,482.6L454.0,486.2L449.3,490.1L454.2,502.4L456.9,510.8L458.2,512.3L458.3,516.4L460.5,519.5L466.1,522.9L479.6,533.2L486.9,540.2L491.5,540.8L493.7,539.0L496.3,531.2L499.3,529.0L503.2,528.7L508.1,531.2L513.5,532.3L517.3,532.0L526.9,530.7L534.2,536.2L538.6,544.0L541.5,544.3L545.2,545.8L548.5,548.3L564.2,548.7L567.6,551.0L569.9,545.1L573.4,541.0L578.7,538.2L583.2,537.3L584.2,536.1L583.8,534.2L581.2,532.7L577.6,533.0L570.7,535.0L568.5,534.0L567.3,531.7L568.1,527.2L570.6,523.9L573.1,522.4L576.5,522.5L576.4,520.7L572.4,517.6L570.5,515.6L570.3,511.2L568.5,507.5L568.6,505.2L566.2,500.4L560.6,498.5L553.8,488.8L549.2,482.4L547.2,475.5L533.8,463.0L530.5,457.0L532.2,445.2L533.1,442.2L532.1,435.4L518.2,433.3Z " data-id="SI.LJ.KC" data-name="Kocevje" id="SI.LJ.KC"/>
utf-8utf-8<path d="M759.7,85.7L759.1,86.9L758.3,87.6L757.7,91.2L755.1,98.9L754.6,103.8L755.7,109.5L754.5,115.4L756.5,117.7L757.6,118.7L758.4,120.2L759.6,120.9L755.0,125.9L759.9,125.8L765.0,126.7L767.3,130.8L773.4,134.5L775.4,136.5L776.4,138.6L774.4,142.0L776.5,145.6L778.9,146.5L788.4,142.0L788.9,138.3L791.7,131.1L793.3,129.5L799.1,126.1L809.7,130.9L810.9,127.9L807.3,118.6L809.2,115.3L812.7,112.9L814.4,112.3L818.1,109.5L810.7,106.3L808.6,108.4L805.2,110.4L801.2,111.4L798.1,109.5L791.9,102.5L787.8,100.5L786.0,101.9L782.1,101.2L776.9,97.3L775.0,90.4L772.5,86.8L766.7,86.2L759.7,85.7Z " data-id="SI.PD.LE" data-name="Lenart" id="SI.PD.LE"/>
utf-8utf-8<path d="M388.3,449.7L386.9,450.2L381.4,449.3L371.4,442.7L350.7,457.6L343.0,458.7L345.8,465.9L353.8,473.2L357.0,476.8L357.6,483.8L357.0,491.7L357.0,494.5L359.2,497.8L363.7,501.2L364.7,503.3L364.7,506.1L363.5,508.8L370.3,509.0L372.8,509.5L380.3,509.4L380.5,507.7L382.1,502.7L384.8,498.9L392.4,491.0L395.4,486.8L398.9,478.8L401.2,476.4L402.8,475.8L399.0,469.0L398.1,464.7L390.7,448.0L388.3,449.7Z " data-id="SI.NO.LD" data-name="Loška dolina" id="SI.NO.LD"/>
utf-8utf-8<path d="M446.8,171.6L445.0,171.8L440.4,175.7L436.2,181.4L436.3,184.8L437.5,187.0L432.5,190.8L414.9,198.3L405.4,197.6L408.5,210.4L416.8,219.7L419.1,224.0L420.4,227.6L422.3,229.3L428.7,229.1L436.2,219.6L451.1,208.6L458.0,188.8L458.4,184.6L457.0,180.7L456.1,174.2L446.8,171.6Z " data-id="SI.SA.LU" data-name="Luce" id="SI.SA.LU"/>
utf-8utf-8<path d="M770.5,199.6L765.6,198.7L737.3,197.0L736.5,199.3L737.6,201.4L740.9,204.6L746.9,205.4L749.3,206.4L751.3,209.3L751.6,213.9L751.4,219.4L749.4,225.1L741.5,234.2L747.9,238.1L759.8,237.3L765.2,238.9L765.7,229.5L768.9,224.8L777.2,215.7L780.5,208.4L779.8,207.1L778.9,206.1L776.5,202.1L770.5,199.6Z " data-id="SI.PD.MJ" data-name="Majšperk" id="SI.PD.MJ"/>
utf-8utf-8<path d="M631.2,392.4L632.4,389.9L626.3,383.0L619.6,379.7L609.5,372.8L606.4,378.8L607.2,384.1L604.2,390.5L601.8,392.8L594.0,395.3L581.1,393.0L578.7,402.6L576.7,404.2L573.6,405.2L574.2,409.2L571.3,415.4L568.8,416.0L567.4,418.0L564.2,419.6L556.0,429.5L557.9,434.6L562.6,440.1L564.3,444.1L575.8,454.3L579.3,458.9L578.8,460.7L573.9,464.5L573.2,467.8L580.7,468.8L590.3,468.2L595.2,468.6L601.3,467.8L612.8,460.5L619.1,456.4L619.4,456.2L620.8,452.3L623.3,449.6L635.7,443.4L644.2,440.8L640.0,429.0L631.8,419.1L625.6,414.0L623.6,410.2L622.4,405.5L625.1,400.0L632.2,396.5L631.2,392.4Z " data-id="SI.DO.NM" data-name="Novo Mesto" id="SI.DO.NM"/>
utf-8utf-8<path d="M720.8,261.9L710.5,271.8L707.4,277.5L700.7,281.3L698.4,291.2L702.0,293.7L706.0,294.5L711.6,298.4L714.6,299.8L720.0,308.7L718.9,311.6L720.4,315.4L723.2,316.7L728.0,312.6L728.0,312.5L721.3,306.8L716.1,297.8L715.4,287.9L719.1,276.6L724.3,266.8L725.3,265.4L725.2,265.3L720.8,261.9Z " data-id="SI.SA.BS" data-name="Bistrica ob Sotli" id="SI.SA.BS"/>
utf-8utf-8<path d="M645.2,89.8L635.6,86.7L618.0,87.5L618.2,90.9L617.6,97.2L615.1,99.0L608.0,101.7L604.0,105.4L600.3,115.7L608.1,121.9L611.1,126.0L616.3,128.4L617.3,129.7L616.6,133.6L618.9,140.3L620.4,134.7L623.4,130.8L625.8,124.2L631.0,117.2L631.7,114.6L631.4,111.2L633.4,109.3L637.4,109.7L644.5,111.8L649.6,114.7L652.9,114.8L655.0,110.9L653.9,108.7L652.1,107.8L653.1,101.0L653.3,97.1L651.2,94.0L645.2,89.8Z " data-id="SI.KO.PO" data-name="Podvelka" id="SI.KO.PO"/>
utf-8utf-8<path d="M351.0,198.4L343.1,197.6L341.9,198.2L339.5,202.6L338.0,203.8L331.0,203.4L328.0,213.5L326.3,221.1L325.2,222.5L320.7,221.4L320.1,222.4L321.8,226.5L324.6,228.1L327.7,227.4L336.6,228.3L352.4,227.2L357.6,225.4L363.0,225.2L367.6,224.0L376.4,219.1L379.0,215.4L375.8,209.4L376.3,205.5L375.7,203.0L372.4,200.0L351.0,198.4Z " data-id="SI.GO.PR" data-name="Preddvor" id="SI.GO.PR"/>
utf-8utf-8<path d="M776.5,145.6L773.8,150.3L770.2,152.5L766.3,157.3L770.9,156.7L772.7,157.2L773.8,157.7L778.6,162.5L788.5,172.0L792.5,178.3L792.9,185.1L797.4,188.3L797.0,190.6L805.2,185.5L807.7,186.7L817.3,181.3L818.4,180.0L819.5,178.6L819.3,176.1L821.6,164.0L818.2,160.4L817.8,152.3L811.2,156.0L807.0,160.2L802.3,163.5L799.7,163.0L794.8,160.4L786.2,151.3L778.9,146.5L776.5,145.6Z " data-id="SI.PD.PT" data-name="Ptuj" id="SI.PD.PT"/>
utf-8utf-8<path d="M519.1,121.1L516.6,117.2L513.5,115.5L508.1,112.0L502.7,106.1L500.7,105.0L495.3,104.5L487.5,99.4L487.3,98.9L480.6,102.6L479.4,102.8L482.7,107.6L488.0,110.2L493.5,117.9L496.1,118.4L499.7,132.4L499.1,136.0L492.0,142.6L497.6,147.5L498.5,148.2L505.7,148.7L512.2,146.2L513.8,145.0L515.6,142.2L516.6,138.9L516.6,131.9L518.1,124.5L519.1,121.1Z " data-id="SI.KO.RK" data-name="Ravne na Koroškem" id="SI.KO.RK"/>
utf-8utf-8<path d="M436.4,414.9L431.0,416.4L426.1,420.0L417.8,422.7L404.9,424.6L409.1,427.8L423.6,432.1L429.8,433.1L433.8,434.8L435.0,438.1L435.1,441.6L431.5,452.5L429.7,455.9L426.3,458.7L433.5,465.8L436.7,468.3L447.0,471.3L451.2,473.6L454.6,474.6L456.4,480.6L455.4,482.6L463.0,485.5L468.0,484.6L470.1,481.9L473.0,476.1L473.1,471.9L482.1,450.6L473.2,444.6L436.4,414.9Z " data-id="SI.LJ.RI" data-name="Ribnica" id="SI.LJ.RI"/>
utf-8utf-8<path d="M691.1,137.4L693.0,119.9L673.2,129.5L669.1,130.8L661.1,129.2L661.3,124.7L658.4,127.9L658.5,132.0L656.1,137.2L648.6,144.7L647.1,153.4L675.8,144.8L688.3,145.5L695.7,140.6L691.1,137.4Z " data-id="SI.PD.RU" data-name="Ruše" id="SI.PD.RU"/>
utf-8utf-8<path d="M686.1,230.7L684.3,231.5L682.3,231.8L648.6,223.1L642.0,219.4L641.4,223.7L643.6,226.0L643.1,228.0L638.9,231.8L637.8,239.5L637.3,243.4L636.0,245.0L633.6,247.0L632.6,252.0L640.0,254.7L640.7,256.0L641.7,258.4L641.2,260.9L641.7,271.0L645.8,276.3L645.6,280.2L643.9,283.5L645.5,289.0L655.4,282.5L658.1,282.6L658.6,283.7L666.0,289.3L667.9,291.9L667.2,295.4L665.4,295.9L661.5,293.0L660.5,293.3L655.1,299.4L652.4,300.2L650.1,299.9L649.2,304.1L649.8,307.5L649.1,309.6L646.6,314.2L662.9,317.7L686.4,316.0L683.9,308.0L680.2,302.3L681.5,298.2L687.3,299.5L689.8,298.2L692.9,294.6L698.4,291.2L700.7,281.3L696.2,278.8L687.7,280.6L683.2,279.1L680.6,277.1L677.8,271.8L671.5,264.2L668.4,258.4L667.2,255.0L670.5,249.8L675.9,246.3L679.4,244.8L684.0,242.0L690.3,234.9L692.0,233.2L686.1,230.7Z " data-id="SI.SA.SC" data-name="Šentjur pri Celju" id="SI.SA.SC"/>
utf-8utf-8<path d="M675.8,144.8L647.1,153.4L641.7,155.6L637.3,156.7L632.9,153.2L631.3,152.4L623.8,153.5L625.2,158.2L630.1,163.4L635.2,165.3L639.9,168.0L645.1,169.2L653.3,174.4L659.2,176.7L665.1,184.3L666.1,185.1L671.1,185.1L675.7,186.2L678.6,195.4L680.9,200.3L688.0,203.8L690.5,204.1L693.5,206.1L696.0,210.4L699.1,220.5L700.4,226.5L699.2,232.7L703.5,234.3L705.1,232.1L710.3,230.2L717.0,230.3L731.4,234.3L741.5,234.2L749.4,225.1L751.4,219.4L751.6,213.9L751.3,209.3L749.3,206.4L746.9,205.4L740.9,204.6L737.6,201.4L736.5,199.3L737.3,197.0L736.2,194.0L737.5,192.1L738.2,189.2L735.2,183.3L738.2,180.8L731.4,174.8L726.7,172.9L722.9,171.9L722.3,170.5L694.8,157.0L691.7,154.7L691.6,153.8L690.7,151.2L688.3,145.5L675.8,144.8Z " data-id="SI.PD.SB" data-name="Slovenska Bistrica" id="SI.PD.SB"/>
utf-8utf-8<path d="M805.2,185.5L797.0,190.6L790.9,191.4L784.5,186.3L783.1,195.5L782.2,197.7L781.6,200.4L776.5,202.1L778.9,206.1L779.8,207.1L780.5,208.4L777.2,215.7L785.2,220.5L785.9,213.0L785.5,210.5L788.0,206.0L797.8,203.4L801.4,203.9L810.1,207.7L812.6,211.1L812.8,212.9L811.8,216.2L812.1,217.7L815.1,223.0L815.6,228.5L815.1,230.6L816.2,234.7L825.4,230.1L835.9,228.5L839.5,227.6L837.9,225.7L832.5,212.9L832.5,209.8L829.3,204.4L829.5,199.3L823.7,197.8L820.8,196.3L815.7,189.4L807.7,186.7L805.2,185.5Z " data-id="SI.PD.VI" data-name="Videm" id="SI.PD.VI"/>
utf-8utf-8<path d="M632.6,207.5L628.8,204.3L627.9,200.7L625.9,198.0L605.7,198.1L606.4,200.0L604.0,203.1L604.1,205.6L603.8,209.8L598.2,215.7L608.2,221.0L614.2,228.2L615.9,231.7L622.3,234.8L623.4,234.3L627.0,234.9L637.8,239.5L638.9,231.8L643.1,228.0L643.6,226.0L641.4,223.7L642.0,219.4L639.7,217.7L639.0,216.9L638.2,215.4L637.7,214.3L638.8,210.4L632.6,207.5Z " data-id="SI.SA.VO" data-name="Vojnik" id="SI.SA.VO"/>
utf-8utf-8<path d="M579.4,213.9L571.7,209.6L567.7,209.7L565.3,210.9L563.2,212.9L560.9,217.2L561.2,226.4L557.3,235.2L558.4,237.4L556.7,241.7L563.4,247.1L568.0,249.3L569.9,251.0L567.4,254.8L567.8,260.8L567.1,265.5L563.3,268.4L561.0,268.6L561.8,270.1L581.9,269.7L590.6,268.2L594.3,264.2L595.6,249.2L592.7,235.7L592.9,234.2L594.8,229.7L593.8,217.0L584.1,212.9L579.4,213.9Z " data-id="SI.SA.ZA" data-name="Žalec" id="SI.SA.ZA"/>
utf-8utf-8<path d="M387.4,257.7L385.6,252.4L381.1,246.4L365.7,262.4L374.0,272.6L378.3,273.8L392.0,264.3L387.4,257.7Z " data-id="SI.LJ.KM" data-name="Komenda" id="SI.LJ.KM"/>
utf-8utf-8<path d="M678.6,195.4L675.7,186.2L671.1,185.1L666.1,185.1L665.1,184.3L659.2,176.7L653.3,174.4L651.6,177.3L649.8,182.0L653.1,186.9L650.5,190.7L650.3,191.8L655.7,195.6L665.2,200.1L667.7,200.8L680.9,200.3L678.6,195.4Z " data-id="SI.PD.OP" data-name="Oplotnica" id="SI.PD.OP"/>
utf-8utf-8<path d="M797.4,188.3L792.9,185.1L792.5,178.3L788.5,172.0L778.6,162.5L774.6,164.7L774.1,166.4L775.1,169.3L773.5,171.7L784.5,186.3L790.9,191.4L797.0,190.6L797.4,188.3Z " data-id="SI.PD.HA" data-name="Hajdina" id="SI.PD.HA"/>
utf-8utf-8<path d="M737.9,139.7L737.4,142.1L739.6,145.3L738.2,149.8L739.2,151.9L743.5,158.4L746.0,160.4L750.6,154.7L747.1,147.8L747.4,146.6L749.8,143.2L749.3,142.6L737.9,139.7Z " data-id="SI.PD.MD" data-name="Miklavž na Dravskem polju" id="SI.PD.MD"/>
utf-8utf-8<path d="M709.7,137.9L695.7,140.6L688.3,145.5L690.7,151.2L699.0,152.0L704.0,153.8L712.4,153.8L720.2,156.9L723.7,159.3L727.5,160.5L733.0,160.3L736.4,159.5L743.5,158.4L739.2,151.9L738.2,149.8L739.6,145.3L737.4,142.1L737.9,139.7L709.7,137.9Z " data-id="SI.PD.HS" data-name="Hoce-Slivnica" id="SI.PD.HS"/>
utf-8utf-8<path d="M799.1,126.1L793.3,129.5L791.7,131.1L788.9,138.3L788.4,142.0L792.7,144.5L799.3,144.6L812.1,142.9L813.4,137.0L813.1,135.5L812.6,133.7L811.8,132.7L809.7,130.9L799.1,126.1Z " data-id="SI.PD.TV" data-name="Trnovska vas" id="SI.PD.TV"/>
utf-8utf-8<path d="M777.2,215.7L768.9,224.8L765.7,229.5L765.2,238.9L778.7,244.2L778.9,244.3L780.0,243.5L784.7,241.5L789.7,240.4L804.0,240.0L804.5,240.0L802.5,237.4L799.4,231.1L797.8,230.3L785.2,220.5L777.2,215.7Z " data-id="SI.PD.ZE" data-name="Žetale" id="SI.PD.ZE"/>
utf-8utf-8<path d="M785.2,220.5L797.8,230.3L799.4,231.1L802.5,237.4L804.5,240.0L805.4,240.0L816.2,234.7L815.1,230.6L815.6,228.5L815.1,223.0L812.1,217.7L811.8,216.2L812.8,212.9L812.6,211.1L810.1,207.7L801.4,203.9L797.8,203.4L788.0,206.0L785.5,210.5L785.9,213.0L785.2,220.5Z " data-id="SI.PD.PO" data-name="Podlehnik" id="SI.PD.PO"/>
utf-8utf-8<path d="M499.1,136.0L499.7,132.4L496.1,118.4L493.5,117.9L488.0,110.2L482.7,107.6L479.4,102.8L474.1,103.4L469.6,102.9L465.7,104.4L460.8,111.0L457.7,117.7L455.7,124.1L459.2,123.6L465.0,124.0L467.9,123.3L471.2,123.9L472.5,125.8L476.2,127.8L477.7,132.3L484.8,137.9L484.2,142.8L492.0,142.6L499.1,136.0Z " data-id="SI.KO.PR" data-name="Prevalje" id="SI.KO.PR"/>
utf-8utf-8<path d="M688.9,115.8L687.9,109.5L682.9,106.1L680.2,102.3L680.0,99.3L678.2,94.0L676.0,91.9L675.3,93.6L669.7,97.6L660.2,99.0L652.7,95.1L651.2,94.0L653.3,97.1L653.1,101.0L652.1,107.8L653.9,108.7L655.0,110.9L657.6,112.3L659.7,114.1L661.4,117.4L661.3,124.7L661.1,129.2L669.1,130.8L673.2,129.5L693.0,119.9L688.9,115.8Z " data-id="SI.PD.SD" data-name="Selnica ob Dravi" id="SI.PD.SD"/>
utf-8utf-8<path d="M652.9,114.8L649.6,114.7L644.5,111.8L637.4,109.7L633.4,109.3L631.4,111.2L631.7,114.6L631.0,117.2L625.8,124.2L623.4,130.8L620.4,134.7L618.9,140.3L616.0,147.5L617.4,151.6L623.8,153.5L631.3,152.4L632.9,153.2L637.3,156.7L641.7,155.6L647.1,153.4L648.6,144.7L656.1,137.2L658.5,132.0L658.4,127.9L661.3,124.7L661.4,117.4L659.7,114.1L657.6,112.3L655.0,110.9L652.9,114.8Z " data-id="SI.PD.LP" data-name="Lovrenc na Pohorju" id="SI.PD.LP"/>
utf-8utf-8<path d="M390.3,293.5L391.6,289.5L395.7,284.3L374.0,290.4L380.6,296.8L390.3,300.1L390.3,293.5Z " data-id="SI.LJ.TR" data-name="Trzin" id="SI.LJ.TR"/>
utf-8utf-8<path d="M378.7,190.6L373.3,192.7L368.8,188.9L364.7,182.1L360.0,176.9L349.2,179.2L343.8,178.5L339.2,176.7L338.4,177.8L335.3,185.6L334.3,189.4L331.3,194.9L331.7,198.4L331.0,203.4L338.0,203.8L339.5,202.6L341.9,198.2L343.1,197.6L351.0,198.4L372.4,200.0L382.6,196.6L380.2,188.3L379.9,187.5L378.7,190.6Z " data-id="SI.GO.JZ" data-name="Jezersko" id="SI.GO.JZ"/>
utf-8utf-8<path d="M544.0,407.0L542.0,406.3L540.5,404.3L535.4,402.6L528.9,405.3L525.0,404.7L522.3,403.0L518.6,396.8L515.2,394.9L512.2,394.1L495.5,394.5L495.7,399.4L487.5,400.8L486.6,401.9L486.7,404.2L490.1,412.1L490.5,418.9L488.5,422.2L484.9,423.6L480.7,422.8L474.4,423.0L474.2,429.8L474.8,431.8L478.5,438.8L482.7,438.8L485.4,437.7L488.9,438.0L494.1,439.6L496.6,440.9L499.1,444.2L505.1,443.8L514.2,434.2L518.2,433.3L532.1,435.4L536.3,430.1L538.5,429.0L542.1,428.1L548.1,429.5L556.0,429.5L564.2,419.6L553.0,412.7L551.7,411.7L547.6,405.9L544.0,407.0Z " data-id="SI.DO.ZU" data-name="Žužemberk" id="SI.DO.ZU"/>
utf-8utf-8<path d="M593.6,187.2L580.3,188.8L584.6,199.9L585.9,202.5L586.7,205.8L586.8,207.2L584.1,212.9L593.8,217.0L598.2,215.7L603.8,209.8L604.1,205.6L604.0,203.1L606.4,200.0L605.7,198.1L593.6,187.2Z " data-id="SI.SA.DR" data-name="Dobrna" id="SI.SA.DR"/>
utf-8utf-8<path d="M538.6,248.6L537.4,246.8L533.3,242.4L526.6,240.6L516.6,256.2L516.0,258.9L515.9,264.4L525.1,263.9L531.3,267.0L539.7,266.2L541.4,260.5L541.6,259.0L540.7,253.2L538.6,248.6Z " data-id="SI.SA.TA" data-name="Tabor" id="SI.SA.TA"/>
utf-8utf-8<path d="M513.2,230.3L509.0,230.5L506.9,231.1L507.0,232.6L505.6,233.9L499.4,236.2L497.2,237.6L491.5,238.5L490.8,242.0L487.2,247.5L502.3,256.1L496.1,259.4L498.1,263.0L503.0,266.1L505.4,266.8L515.9,264.4L516.0,258.9L516.6,256.2L526.6,240.6L513.2,230.3Z " data-id="SI.SA.VR" data-name="Vransko" id="SI.SA.VR"/>
utf-8utf-8<path d="M575.5,391.0L567.9,385.7L564.2,385.2L561.0,389.6L553.9,391.1L550.9,393.3L547.2,397.9L547.6,405.9L551.7,411.7L553.0,412.7L564.2,419.6L567.4,418.0L568.8,416.0L571.3,415.4L574.2,409.2L573.6,405.2L576.7,404.2L578.7,402.6L581.1,393.0L575.5,391.0Z " data-id="SI.DO.MP" data-name="Mirna Pec" id="SI.DO.MP"/>
utf-8utf-8<path d="M553.8,240.7L545.5,251.4L540.7,253.2L541.6,259.0L541.4,260.5L539.7,266.2L550.4,269.7L561.0,268.6L563.3,268.4L567.1,265.5L567.8,260.8L567.4,254.8L569.9,251.0L568.0,249.3L563.4,247.1L556.7,241.7L553.8,240.7Z " data-id="SI.SA.PR" data-name="Prebold" id="SI.SA.PR"/>
utf-8utf-8<path d="M556.7,214.8L553.9,210.9L548.9,208.1L546.8,205.5L541.9,203.4L540.3,209.2L540.5,214.1L540.3,218.1L538.3,221.0L553.8,240.7L556.7,241.7L558.4,237.4L557.3,235.2L561.2,226.4L560.9,217.2L556.7,214.8Z " data-id="SI.SA.PL" data-name="Polzela" id="SI.SA.PL"/>
utf-8utf-8<path d="M454.2,502.4L441.0,510.6L435.8,513.0L435.8,513.0L435.9,513.0L437.9,515.2L438.7,518.3L438.1,525.3L438.4,527.3L445.1,532.0L481.6,554.5L495.1,556.9L508.5,552.7L514.0,543.4L514.6,535.0L520.4,534.8L528.0,538.9L533.8,543.4L538.6,544.0L534.2,536.2L526.9,530.7L517.3,532.0L513.5,532.3L508.1,531.2L503.2,528.7L499.3,529.0L496.3,531.2L493.7,539.0L491.5,540.8L486.9,540.2L479.6,533.2L466.1,522.9L460.5,519.5L458.3,516.4L458.2,512.3L456.9,510.8L454.2,502.4Z " data-id="SI.LJ.KS" data-name="Kostel" id="SI.LJ.KS"/>
utf-8utf-8<path d="M533.4,214.2L523.8,209.1L521.2,210.7L518.4,214.9L518.1,217.2L517.0,219.0L512.7,222.7L513.2,230.3L526.6,240.6L533.3,242.4L537.4,246.8L538.6,248.6L540.7,253.2L545.5,251.4L553.8,240.7L538.3,221.0L533.4,214.2Z " data-id="SI.SA.BR" data-name="Braslovce" id="SI.SA.BR"/>
utf-8utf-8<path d="M429.7,455.9L431.5,452.5L435.1,441.6L435.0,438.1L433.8,434.8L429.8,433.1L423.6,432.1L409.1,427.8L404.9,424.6L397.7,426.0L394.4,429.4L398.9,435.2L400.3,438.1L400.5,441.0L403.1,447.6L410.5,449.9L417.1,450.2L420.5,451.9L422.2,453.6L426.3,458.7L429.7,455.9Z " data-id="SI.LJ.SO" data-name="Sodražica" id="SI.LJ.SO"/>
utf-8utf-8<path d="M548.1,429.5L542.1,428.1L538.5,429.0L536.3,430.1L532.1,435.4L533.1,442.2L532.2,445.2L530.5,457.0L533.8,463.0L547.2,475.5L549.2,482.4L553.8,488.8L554.3,480.8L555.5,478.6L560.9,471.3L563.6,468.7L567.2,467.0L573.2,467.8L573.9,464.5L578.8,460.7L579.3,458.9L575.8,454.3L564.3,444.1L562.6,440.1L557.9,434.6L556.0,429.5L548.1,429.5Z " data-id="SI.DO.DT" data-name="Dolenjske Toplice" id="SI.DO.DT"/>
utf-8utf-8<path d="M320.5,335.1L320.2,331.3L318.1,327.9L313.5,325.9L300.4,324.8L292.4,326.5L291.0,327.1L288.3,330.4L288.8,334.8L289.8,337.7L287.5,339.3L289.8,342.2L297.0,345.0L299.1,345.2L300.0,342.1L301.7,341.3L309.8,340.0L312.0,339.2L320.3,337.3L320.5,335.1Z " data-id="SI.LJ.HO" data-name="Horjul" id="SI.LJ.HO"/>
utf-8utf-8<path d="M411.2,160.2L409.8,160.5L403.8,166.3L400.6,168.1L397.5,168.9L390.6,169.5L387.6,170.5L383.3,176.4L381.2,184.1L379.9,187.5L380.2,188.3L382.6,196.6L391.4,199.5L395.9,199.3L405.4,197.6L414.9,198.3L432.5,190.8L437.5,187.0L436.3,184.8L436.2,181.4L440.4,175.7L433.1,167.4L429.3,165.2L414.3,162.6L413.1,160.5L411.2,160.2Z " data-id="SI.SA.SL" data-name="Solcava" id="SI.SA.SL"/>
utf-8utf-8<path d="M652.4,300.2L655.1,299.4L660.5,293.3L661.5,293.0L665.4,295.9L667.2,295.4L667.9,291.9L666.0,289.3L658.6,283.7L658.1,282.6L655.4,282.5L645.5,289.0L650.1,299.9L652.4,300.2Z " data-id="SI.SA.DJ" data-name="Dobje" id="SI.SA.DJ"/>
utf-8utf-8<path d="M448.7,391.8L446.0,391.8L433.5,388.1L429.2,386.4L427.0,386.9L425.6,389.1L419.6,392.4L419.9,397.2L419.1,400.7L419.9,402.5L424.1,403.7L429.9,407.3L436.4,414.9L473.2,444.6L478.5,438.8L474.8,431.8L474.2,429.8L474.4,423.0L467.7,418.7L466.6,416.0L462.9,412.9L458.6,407.2L458.7,401.9L460.7,395.6L455.0,389.1L448.7,391.8Z " data-id="SI.LJ.DB" data-name="Dobrepolje" id="SI.LJ.DB"/>
utf-8utf-8<path d="M386.0,416.9L377.3,405.9L373.6,408.0L370.6,409.0L362.6,415.2L358.3,421.8L358.5,423.7L360.1,426.3L365.9,431.8L371.8,435.6L373.6,436.3L375.7,439.6L371.4,442.7L381.4,449.3L386.9,450.2L388.3,449.7L390.7,448.0L394.6,446.5L396.5,447.9L403.1,447.6L400.5,441.0L400.3,438.1L398.9,435.2L394.4,429.4L397.7,426.0L386.0,416.9Z " data-id="SI.NO.BL" data-name="Bloke" id="SI.NO.BL"/>
utf-8utf-8<path d="M748.1,322.6L744.0,320.1L734.8,316.9L730.7,314.9L728.0,312.5L728.0,312.6L723.2,316.7L727.8,326.6L734.2,330.0L742.0,330.1L743.7,332.4L748.6,327.0L751.1,326.3L751.2,326.3L748.1,322.6Z " data-id="SI.SA.PD" data-name="Podcetrtek" id="SI.SA.PD"/>
utf-8utf-8<path d="M714.2,103.8L712.8,101.0L708.2,97.6L705.5,96.1L703.1,93.7L700.6,92.8L694.2,92.9L683.2,90.4L677.6,85.9L677.0,89.6L676.0,91.9L678.2,94.0L680.0,99.3L680.2,102.3L682.9,106.1L687.9,109.5L688.9,115.8L693.0,119.9L691.1,137.4L695.7,140.6L709.7,137.9L737.9,139.7L749.3,142.6L746.7,139.1L745.6,137.2L745.9,133.8L750.5,131.6L755.0,125.9L759.6,120.9L758.4,120.2L757.6,118.7L756.5,117.7L754.5,115.4L751.5,117.3L743.8,117.0L736.6,113.0L730.1,107.7L719.6,107.2L714.2,103.8Z " data-id="SI.PD.MB" data-name="Maribor" id="SI.PD.MB"/>
utf-8utf-8<path d="M616.6,133.6L617.3,129.7L616.3,128.4L611.1,126.0L608.1,121.9L600.3,115.7L585.0,124.3L583.3,125.7L582.0,127.4L581.9,130.4L578.9,132.9L575.9,137.7L578.4,140.2L587.4,145.7L592.4,146.7L598.8,146.3L616.0,147.5L618.9,140.3L616.6,133.6Z " data-id="SI.KO.RP" data-name="Ribnica na Pohorju" id="SI.KO.RP"/>
utf-8utf-8<path d="M243.0,167.4L224.1,154.1L219.3,152.0L214.0,150.7L208.4,150.6L202.9,151.5L203.0,156.8L202.6,160.2L198.8,163.2L196.7,166.4L223.2,178.4L226.3,180.6L231.1,182.4L232.7,182.8L241.0,181.5L241.0,174.2L243.4,170.7L244.3,169.8L246.4,168.2L243.0,167.4Z " data-id="SI.GO.JS" data-name="Jesenice" id="SI.GO.JS"/>
utf-8utf-8<path d="M247.1,168.3L246.4,168.2L244.3,169.8L243.4,170.7L241.0,174.2L241.0,181.5L239.1,187.1L245.0,195.3L251.7,191.5L258.3,191.4L261.5,189.4L264.1,182.7L268.3,177.5L270.9,175.6L275.6,174.2L276.5,169.5L276.6,169.3L276.6,169.0L247.1,168.3Z " data-id="SI.GO.ZV" data-name="Žirovnica" id="SI.GO.ZV"/>
utf-8utf-8<path d="M159.2,335.2L156.6,332.8L153.0,328.6L149.7,323.0L148.3,318.1L147.7,313.4L147.8,310.6L144.6,301.7L142.2,299.8L138.3,299.6L134.8,302.6L134.7,310.4L130.3,317.2L126.6,319.8L124.2,319.9L115.4,316.8L107.7,316.3L103.2,318.5L99.6,321.1L93.2,330.5L90.9,332.0L90.8,333.5L97.3,340.9L95.2,342.4L93.9,342.2L88.0,338.2L84.4,337.7L92.0,344.2L87.3,346.3L84.4,348.7L84.2,348.9L85.8,348.6L91.7,356.1L89.8,364.3L100.1,367.4L103.2,369.8L107.6,370.6L113.1,372.2L113.5,373.6L112.2,377.8L110.5,377.4L107.2,378.5L101.3,383.5L99.0,385.4L93.0,386.7L93.1,388.0L96.1,390.8L99.4,392.6L107.9,395.1L112.3,394.9L122.0,396.3L139.6,404.4L145.2,405.8L152.1,405.8L155.5,405.4L162.7,408.0L159.0,403.2L158.1,402.4L151.5,398.9L150.5,397.3L146.7,393.2L140.6,388.3L136.0,385.9L133.2,383.1L128.5,380.1L132.7,377.4L134.7,376.8L141.1,369.8L148.1,358.3L162.0,349.3L161.7,345.4L164.1,342.0L168.3,340.1L159.2,335.2Z " data-id="SI.SP" data-name="Nova Goriška" id="SI.SP"/>
utf-8utf-8<path d="M107.2,378.5L110.5,377.4L112.2,377.8L113.5,373.6L113.1,372.2L107.6,370.6L103.2,369.8L100.1,367.4L89.8,364.3L88.1,371.9L85.6,377.6L90.4,380.8L101.3,383.5L107.2,378.5Z " data-id="SI.SP.SV" data-name="Šempeter-Vrtojba" id="SI.SP.SV"/>
utf-8utf-8<path d="M927.6,105.9L927.6,109.0L923.9,113.5L921.6,114.2L917.5,117.1L912.1,123.1L914.4,125.7L919.1,128.7L923.2,125.8L927.0,130.7L933.0,132.2L939.0,130.5L942.0,127.1L941.8,127.1L940.2,126.6L938.1,125.2L939.8,122.1L940.6,119.2L939.1,113.7L936.9,111.3L927.6,105.9Z " data-id="SI.PM.CR" data-name="Črenšovci" id="SI.PM.CR"/>
utf-8utf-8<path d="M949.2,90.4L949.1,90.4L947.6,91.2L942.1,98.7L952.3,104.9L959.1,113.5L954.8,116.7L950.0,119.5L944.9,121.6L942.9,122.0L939.8,122.1L938.1,125.2L940.2,126.6L941.8,127.1L942.0,127.1L943.1,125.9L947.5,125.9L951.4,128.4L955.5,128.9L959.5,128.6L963.2,128.9L966.1,130.4L971.9,135.3L974.7,137.0L977.5,137.2L984.3,136.5L987.7,137.0L991.0,138.5L999.1,143.8L993.1,126.7L981.7,118.8L968.7,103.1L956.9,97.3L950.7,93.3L949.2,90.4Z " data-id="SI.PM.LE" data-name="Lendava" id="SI.PM.LE"/>
utf-8utf-8<path d="M901.4,111.1L897.9,117.5L897.1,118.1L894.9,118.1L893.5,118.2L889.4,120.7L888.7,123.1L890.3,124.7L889.3,131.4L887.0,133.5L883.3,134.4L879.6,134.3L873.0,133.0L864.9,129.0L858.4,127.9L848.1,126.6L844.7,129.0L842.7,136.0L841.1,140.0L851.2,142.0L856.5,143.9L871.3,146.2L878.8,148.8L882.4,149.1L884.8,147.2L889.5,146.2L893.7,148.7L896.6,150.9L900.2,155.1L902.8,154.0L904.9,154.6L910.1,150.5L910.0,147.2L917.7,139.1L917.1,136.9L922.3,131.1L930.2,133.8L933.0,132.2L927.0,130.7L923.2,125.8L919.1,128.7L914.4,125.7L912.1,123.1L901.4,111.1Z " data-id="SI.PM.LJ" data-name="Ljutomer" id="SI.PM.LJ"/>
utf-8utf-8<path d="M869.5,97.2L866.2,95.3L864.8,98.0L867.2,101.6L862.0,101.9L857.3,107.5L861.5,116.9L861.4,119.1L858.4,127.9L864.9,129.0L873.0,133.0L879.6,134.3L883.3,134.4L887.0,133.5L889.3,131.4L890.3,124.7L888.7,123.1L889.4,120.7L883.3,117.3L882.0,113.5L878.2,110.8L875.2,103.6L879.6,104.3L882.8,102.5L869.5,97.2Z " data-id="SI.PM.KR" data-name="Križevci" id="SI.PM.KR"/>
utf-8utf-8<path d="M896.9,108.0L882.8,102.5L879.6,104.3L875.2,103.6L878.2,110.8L882.0,113.5L883.3,117.3L889.4,120.7L893.5,118.2L894.9,118.1L897.1,118.1L897.9,117.5L901.4,111.1L896.9,108.0Z " data-id="SI.PM.VE" data-name="Veržej" id="SI.PM.VE"/>
utf-8utf-8<path d="M829.2,126.0L820.9,131.3L819.3,131.4L817.2,131.3L816.4,130.3L810.9,127.9L809.7,130.9L811.8,132.7L812.6,133.7L813.1,135.5L813.4,137.0L812.1,142.9L818.6,149.6L818.8,143.9L822.6,140.2L825.4,139.0L829.0,136.9L836.6,134.8L829.2,126.0Z " data-id="SI.PD.SS" data-name="Sveti Andraž v Slovenskih Goricah" id="SI.PD.SS"/>
utf-8utf-8<path d="M918.6,138.2L928.3,134.8L930.2,133.8L922.3,131.1L917.1,136.9L917.7,139.1L918.6,138.2Z " data-id="SI.PM.RZ" data-name="Razkrižje" id="SI.PM.RZ"/>
utf-8utf-8<path d="M947.8,105.9L943.0,104.6L938.7,107.2L936.9,111.3L939.1,113.7L940.6,119.2L939.8,122.1L942.9,122.0L944.9,121.6L950.0,119.5L954.8,116.7L959.1,113.5L952.3,104.9L947.8,105.9Z " data-id="SI.PM.VP" data-name="Velika Polana" id="SI.PM.VP"/>
utf-8utf-8<path d="M941.0,70.7L937.5,69.5L933.6,74.6L931.0,80.7L930.5,86.9L942.1,98.7L947.6,91.2L949.1,90.4L949.2,90.4L947.8,87.8L950.4,83.8L956.2,81.3L958.0,79.8L954.7,79.3L948.4,77.0L945.3,75.1L942.5,71.2L941.0,70.7Z " data-id="SI.PM.DO" data-name="Dobrovnik" id="SI.PM.DO"/>
utf-8utf-8<path d="M819.3,176.1L819.5,178.6L818.4,180.0L817.3,181.3L807.7,186.7L815.7,189.4L820.8,196.3L823.7,197.8L829.5,199.3L832.1,199.2L835.6,197.8L838.5,194.9L837.7,191.6L834.7,186.7L834.2,183.2L832.2,177.6L819.3,176.1Z " data-id="SI.PD.MK" data-name="Markovci" id="SI.PD.MK"/>
utf-8utf-8<path d="M811.7,66.3L789.3,56.9L780.4,55.4L771.6,56.1L759.7,60.3L760.4,61.2L766.4,65.2L770.9,66.6L774.1,70.5L784.6,76.4L790.4,77.7L794.4,79.9L801.5,79.6L808.1,78.9L812.5,75.3L818.5,67.3L811.7,66.3Z " data-id="SI.PM.GR" data-name="Apace" id="SI.PM.GR"/>
utf-8utf-8<path d="M515.2,345.2L510.0,335.6L502.2,329.7L494.1,321.2L486.0,315.1L479.1,313.9L467.2,319.2L449.8,316.5L444.8,316.8L444.1,319.8L443.7,322.7L449.7,329.3L450.7,331.7L449.7,333.9L450.9,341.7L458.2,341.0L460.9,339.4L470.4,339.7L480.8,342.6L487.2,342.5L489.8,340.7L491.8,342.0L501.6,353.6L508.9,357.5L512.7,356.2L517.2,352.7L515.2,345.2Z " data-id="SI.LJ.LI" data-name="Šmartno in Litiji" id="SI.LJ.LI"/>
utf-8utf-8<path d="M834.7,41.7L832.6,40.6L828.7,37.2L827.9,35.7L822.3,35.0L817.0,35.3L817.1,41.1L817.9,48.0L822.3,57.8L829.4,61.5L833.5,67.6L834.9,76.8L838.6,79.0L843.1,79.9L843.2,79.9L851.8,87.2L866.2,95.3L869.0,90.2L869.6,87.4L866.3,82.4L864.4,80.4L862.2,74.3L863.4,68.9L858.2,67.1L855.4,65.3L849.7,63.4L847.2,61.5L845.0,57.3L845.9,51.1L844.5,42.9L834.7,41.7Z " data-id="SI.PM.CA" data-name="Cankova" id="SI.PM.CA"/>
utf-8utf-8<path d="M834.9,76.8L834.9,76.7L828.4,70.3L824.7,68.2L818.5,67.3L812.5,75.3L808.1,78.9L801.5,79.6L794.4,79.9L794.7,86.6L798.9,88.1L804.6,89.0L806.0,88.7L808.7,89.6L808.0,91.5L803.4,95.3L804.8,100.5L810.7,106.3L818.1,109.5L825.3,110.4L836.4,107.3L833.3,96.3L833.2,91.8L843.1,79.9L838.6,79.0L834.9,76.8L834.9,76.8Z " data-id="SI.PM.GR" data-name="Gornja Radgona" id="SI.PM.GR"/>
utf-8utf-8<path d="M908.7,30.3L909.5,28.8L910.2,24.6L909.6,21.6L907.2,18.3L902.4,14.4L896.8,11.8L880.7,2.2L866.7,3.2L865.1,2.9L863.2,8.2L864.2,12.3L867.9,13.7L872.4,14.9L876.0,18.3L877.5,21.2L884.0,26.4L890.0,29.3L890.9,32.6L888.2,40.4L889.6,42.3L894.2,47.3L896.6,47.5L898.4,46.5L900.7,42.4L903.2,40.4L908.1,33.3L908.7,30.3Z " data-id="SI.PM.GP" data-name="Gornji Petrovci" id="SI.PM.GP"/>
utf-8utf-8<path d="M889.6,42.3L888.2,40.4L890.9,32.6L890.0,29.3L884.0,26.4L877.5,21.2L876.0,18.3L872.4,14.9L867.9,13.7L866.2,30.4L862.1,38.4L857.7,40.5L852.8,39.4L846.8,39.6L844.5,42.9L845.9,51.1L845.0,57.3L847.2,61.5L849.7,63.4L855.4,65.3L858.2,67.1L863.4,68.9L874.8,68.4L877.2,69.1L885.6,66.1L883.9,57.7L884.7,56.8L886.4,54.4L888.3,54.3L894.2,47.3L889.6,42.3Z " data-id="SI.PM.PU" data-name="Puconci" id="SI.PM.PU"/>
utf-8utf-8<path d="M851.8,87.2L843.2,79.9L843.1,79.9L833.2,91.8L833.3,96.3L836.4,107.3L840.8,109.0L847.2,102.3L849.4,102.5L851.2,104.0L853.1,108.5L855.2,109.6L857.3,107.5L862.0,101.9L867.2,101.6L864.8,98.0L866.2,95.3L851.8,87.2Z " data-id="SI.PM.RD" data-name="Radenci" id="SI.PM.RD"/>
utf-8utf-8<path d="M840.8,7.1L834.5,10.5L820.6,13.5L818.8,14.4L815.9,17.2L817.8,19.0L818.2,21.8L817.0,34.1L817.0,35.3L822.3,35.0L827.9,35.7L828.7,37.2L832.6,40.6L834.7,41.7L844.5,42.9L846.8,39.6L843.0,37.3L842.7,35.1L842.8,19.0L840.8,7.1Z " data-id="SI.PM.RO" data-name="Rogašovci" id="SI.PM.RO"/>
utf-8utf-8<path d="M344.5,385.8L345.3,382.9L346.1,373.5L343.4,370.9L341.7,370.9L338.5,369.1L335.9,366.9L331.0,361.9L329.2,356.5L322.5,358.2L320.6,360.7L319.6,365.3L320.1,368.8L321.3,372.3L328.7,386.7L331.0,389.4L335.2,393.7L338.1,396.3L340.9,398.1L343.1,397.8L344.9,395.4L348.5,394.0L344.5,385.8Z " data-id="SI.LJ.BO" data-name="Borovnica" id="SI.LJ.BO"/>
utf-8utf-8<path d="M751.2,326.3L751.1,326.3L748.6,327.0L743.7,332.4L730.3,341.4L722.2,345.0L717.8,345.2L714.5,353.8L715.8,367.9L715.4,372.0L714.7,374.5L712.2,375.8L711.7,379.2L703.5,382.2L698.9,384.8L697.6,389.5L697.8,392.7L699.0,395.5L702.6,401.1L710.3,410.1L712.1,412.7L724.2,414.4L736.6,414.0L742.7,412.5L749.1,409.5L752.0,405.5L751.3,399.9L747.0,391.9L745.2,386.9L746.1,382.1L748.0,377.4L749.3,372.5L749.2,365.9L746.8,345.5L748.6,337.5L752.0,332.6L753.0,328.5L751.2,326.3Z " data-id="SI.PS.BR" data-name="Brežice" id="SI.PS.BR"/>
utf-8utf-8<path d="M342.2,329.0L340.6,328.6L333.6,330.1L337.5,333.3L338.1,338.5L334.5,339.7L332.4,341.8L330.5,345.2L331.9,350.6L329.2,356.5L331.0,361.9L335.9,366.9L338.5,369.1L341.7,370.9L343.4,370.9L346.1,373.5L345.3,382.9L344.5,385.8L348.5,394.0L354.5,397.1L356.6,396.9L371.4,390.0L363.3,380.1L361.9,374.3L359.8,367.7L359.6,363.4L354.4,353.1L351.2,350.8L351.1,348.1L353.2,345.2L357.5,340.7L356.7,339.0L352.6,336.5L347.6,331.3L342.2,329.0Z " data-id="SI.LJ.BR" data-name="Brezovica" id="SI.LJ.BR"/>
utf-8utf-8<path d="M627.0,234.9L623.4,234.3L622.3,234.8L615.9,231.7L614.2,228.2L608.2,221.0L598.2,215.7L593.8,217.0L594.8,229.7L592.9,234.2L592.7,235.7L595.6,249.2L594.3,264.2L595.0,266.3L598.5,266.7L604.6,264.5L607.4,264.7L609.8,266.0L621.7,267.9L624.3,266.0L623.6,263.8L623.0,256.3L624.8,254.5L630.3,251.8L632.6,252.0L633.6,247.0L636.0,245.0L637.3,243.4L637.8,239.5L627.0,234.9Z " data-id="SI.SA.CE" data-name="Celje" id="SI.SA.CE"/>
utf-8utf-8<path d="M384.6,244.8L385.4,243.7L386.1,239.2L382.1,234.0L380.3,232.4L379.0,228.1L376.6,224.4L376.4,219.1L367.6,224.0L363.0,225.2L357.6,225.4L352.4,227.2L350.3,230.1L347.1,233.3L345.7,237.0L345.5,241.7L346.4,250.5L347.2,254.4L353.5,261.1L365.7,262.4L381.1,246.4L384.6,244.8Z " data-id="SI.GO.CG" data-name="Cerklje na Gorenjskem" id="SI.GO.CG"/>
utf-8utf-8<path d="M331.7,395.3L318.6,387.5L313.3,385.9L310.2,388.1L304.0,403.8L305.2,407.3L299.8,421.5L299.8,425.8L303.7,431.4L309.9,436.7L313.8,439.0L321.5,440.2L323.4,445.9L343.0,458.7L350.7,457.6L371.4,442.7L375.7,439.6L373.6,436.3L371.8,435.6L365.9,431.8L360.1,426.3L358.5,423.7L358.3,421.8L362.6,415.2L370.6,409.0L373.6,408.0L377.3,405.9L374.5,401.5L373.9,397.4L374.3,394.2L371.4,390.0L356.6,396.9L354.5,397.1L348.5,394.0L344.9,395.4L343.1,397.8L340.9,398.1L338.1,396.3L335.2,393.7L331.7,395.3Z " data-id="SI.NO.CE" data-name="Cerknica" id="SI.NO.CE"/>
utf-8utf-8<path d="M482.8,145.4L480.1,145.9L476.0,145.6L468.9,143.6L462.2,139.1L456.2,137.7L450.9,136.8L448.7,141.9L447.1,143.2L440.2,146.0L432.1,147.2L429.2,145.4L424.0,147.5L422.2,149.4L420.9,152.1L417.4,155.9L415.5,160.8L413.1,160.5L414.3,162.6L429.3,165.2L433.1,167.4L440.4,175.7L445.0,171.8L446.8,171.6L456.1,174.2L484.0,174.9L499.6,168.3L503.8,165.5L503.6,160.5L505.7,148.7L498.5,148.2L497.6,147.5L492.0,142.6L484.2,142.8L482.8,145.4Z " data-id="SI.KO.CK" data-name="Črna na Koroškem" id="SI.KO.CK"/>
utf-8utf-8<path d="M608.5,495.4L602.6,494.5L597.9,494.3L592.3,497.0L589.5,500.9L585.5,502.6L576.6,503.4L566.2,500.4L568.6,505.2L568.5,507.5L570.3,511.2L570.5,515.6L572.4,517.6L576.4,520.7L576.5,522.5L573.1,522.4L570.6,523.9L568.1,527.2L567.3,531.7L568.5,534.0L570.7,535.0L577.6,533.0L581.2,532.7L583.8,534.2L584.2,536.1L583.2,537.3L578.7,538.2L573.4,541.0L569.9,545.1L567.6,551.0L592.3,568.4L606.9,570.1L637.3,560.1L647.8,560.3L651.3,559.4L653.9,557.1L659.1,550.2L662.0,547.8L645.2,538.4L640.0,531.6L636.8,523.1L634.1,512.8L634.0,512.5L630.2,510.6L627.0,508.1L623.9,502.4L622.5,501.9L619.4,502.6L614.4,501.2L614.6,497.9L608.5,495.4Z " data-id="SI.DO.CR" data-name="Crnomelj" id="SI.DO.CR"/>
utf-8utf-8<path d="M421.0,296.2L416.9,298.0L409.6,302.3L405.9,303.8L398.6,304.5L399.3,307.8L405.8,311.1L411.5,312.4L419.3,311.9L425.7,310.1L427.6,310.4L430.4,312.0L436.8,311.4L446.8,306.9L448.4,305.9L449.5,303.1L443.4,303.6L440.6,303.1L439.0,300.7L437.1,299.2L433.0,298.6L427.7,296.3L421.0,296.2Z " data-id="SI.LJ.DL" data-name="Dol pri Ljubljani" id="SI.LJ.DL"/>
utf-8utf-8<path d="M531.6,85.2L513.6,90.2L502.9,104.7L496.2,97.2L491.6,96.4L487.3,98.9L487.5,99.4L495.3,104.5L500.7,105.0L502.7,106.1L508.1,112.0L513.5,115.5L516.6,117.2L519.1,121.1L518.1,124.5L523.0,129.4L530.5,126.8L534.3,128.1L537.4,124.5L547.2,116.7L547.7,113.1L546.8,110.1L548.1,106.8L549.0,105.4L553.4,104.3L546.4,100.2L542.4,94.7L540.6,91.2L539.2,85.9L531.6,85.2Z " data-id="SI.KO.DR" data-name="Dravograd" id="SI.KO.DR"/>
utf-8utf-8<path d="M774.4,142.0L776.4,138.6L775.4,136.5L773.4,134.5L767.3,130.8L765.0,126.7L759.9,125.8L755.0,125.9L750.5,131.6L745.9,133.8L745.6,137.2L746.7,139.1L749.3,142.6L749.8,143.2L751.6,147.0L755.8,149.3L757.8,150.2L766.3,157.3L770.2,152.5L773.8,150.3L776.5,145.6L774.4,142.0Z " data-id="SI.PD.DU" data-name="Duplek" id="SI.PD.DU"/>
utf-8utf-8<path d="M473.2,217.5L460.7,209.2L457.5,207.6L456.4,206.7L451.1,208.6L436.2,219.6L428.7,229.1L428.6,235.9L432.0,238.5L444.7,242.0L456.2,242.5L463.3,242.0L477.3,242.6L477.6,236.3L478.8,232.2L481.7,228.6L482.9,223.5L479.3,217.7L473.2,217.5Z " data-id="SI.SA.GG" data-name="Gornji Grad" id="SI.SA.GG"/>
utf-8utf-8<path d="M442.9,341.3L437.9,338.4L435.2,338.5L430.7,340.8L427.8,344.3L422.8,346.9L413.3,347.1L408.4,344.1L405.5,346.2L404.6,346.1L401.8,348.9L400.9,350.7L402.4,355.2L402.8,358.5L402.5,371.1L406.1,378.9L413.1,384.6L414.7,387.9L419.6,392.4L425.6,389.1L427.0,386.9L429.2,386.4L433.5,388.1L446.0,391.8L448.7,391.8L455.0,389.1L453.3,385.4L453.8,379.3L448.9,371.7L447.1,366.1L447.3,363.8L441.2,361.6L441.7,356.4L446.2,349.9L448.0,343.6L442.9,341.3Z " data-id="SI.LJ.GR" data-name="Grosuplje" id="SI.LJ.GR"/>
utf-8utf-8<path d="M576.1,304.4L573.3,301.5L574.1,299.4L583.4,302.3L587.0,300.3L588.0,298.9L587.8,296.8L584.8,291.6L581.8,288.1L577.5,283.9L569.3,278.8L568.0,276.5L561.8,270.1L558.5,273.9L553.0,277.2L549.2,283.5L547.8,286.7L547.8,288.7L549.1,291.6L553.5,296.9L555.8,297.8L559.0,300.3L559.6,301.9L562.3,305.8L569.5,308.8L580.5,306.2L576.1,304.4Z " data-id="SI.ZS.HR" data-name="Hrastnik" id="SI.ZS.HR"/>
utf-8utf-8<path d="M531.3,267.0L525.1,263.9L529.8,270.6L523.6,274.2L521.6,276.7L525.8,276.2L530.7,281.0L535.6,287.3L537.1,290.8L537.3,292.9L534.5,295.5L531.3,296.6L527.5,295.6L529.6,303.6L527.7,307.8L526.3,309.0L528.0,315.8L529.7,318.4L530.1,320.5L534.8,321.6L538.0,321.3L552.0,317.2L557.5,315.9L556.8,312.1L559.8,311.3L561.2,310.6L562.3,305.8L559.6,301.9L559.0,300.3L555.8,297.8L553.5,296.9L549.1,291.6L547.8,288.7L547.8,286.7L549.2,283.5L553.0,277.2L558.5,273.9L561.8,270.1L561.0,268.6L550.4,269.7L539.7,266.2L531.3,267.0Z " data-id="SI.ZS" data-name="Trbovlje" id="SI.ZS"/>
utf-8utf-8<path d="M375.5,343.6L372.2,343.8L365.2,346.0L363.5,349.5L354.4,353.1L359.6,363.4L359.8,367.7L361.9,374.3L363.3,380.1L371.4,390.0L377.0,388.6L384.4,390.9L388.4,393.3L390.8,394.2L397.4,395.3L400.7,392.5L402.2,389.4L401.4,383.9L395.3,381.7L394.5,378.3L391.6,374.1L392.5,365.1L391.6,360.6L389.3,353.8L382.1,346.7L375.5,343.6Z " data-id="SI.LJ.IG" data-name="Ig" id="SI.LJ.IG"/>
utf-8utf-8<path d="M342.1,480.6L338.9,477.6L331.5,472.6L326.9,472.7L325.7,475.9L322.2,477.7L312.2,479.4L300.1,483.7L297.4,485.1L294.0,488.0L290.5,488.8L283.7,489.5L270.1,488.8L262.3,489.2L256.9,490.9L254.6,492.2L250.6,491.6L250.7,495.6L255.6,499.3L254.2,503.5L252.7,506.5L251.6,511.2L253.2,514.1L255.0,513.6L257.0,514.6L256.5,520.8L254.4,528.4L252.4,533.6L253.2,534.7L260.9,540.2L263.1,544.0L263.2,551.4L263.3,551.4L272.3,550.1L287.1,543.9L295.2,541.8L302.3,543.4L315.4,548.2L330.5,550.6L345.1,549.5L357.0,543.4L362.6,538.6L374.6,530.6L378.4,523.9L379.7,518.3L380.3,509.4L372.8,509.5L370.3,509.0L363.5,508.8L364.7,506.1L364.7,503.3L363.7,501.2L359.2,497.8L357.0,494.5L357.0,491.7L357.6,483.8L342.1,480.6Z " data-id="SI.NO.IB" data-name="Ilirska Bistrica" id="SI.NO.IB"/>
utf-8utf-8<path d="M501.6,353.6L491.8,342.0L489.8,340.7L487.2,342.5L480.8,342.6L470.4,339.7L460.9,339.4L458.2,341.0L450.9,341.7L448.0,343.6L446.2,349.9L441.7,356.4L441.2,361.6L447.3,363.8L447.1,366.1L448.9,371.7L453.8,379.3L453.3,385.4L455.0,389.1L460.7,395.6L458.7,401.9L458.6,407.2L462.9,412.9L466.6,416.0L467.7,418.7L474.4,423.0L480.7,422.8L484.9,423.6L488.5,422.2L490.5,418.9L490.1,412.1L486.7,404.2L486.6,401.9L487.5,400.8L495.7,399.4L495.5,394.5L493.5,391.3L492.3,387.4L493.7,382.9L494.4,372.5L495.2,369.5L497.2,366.1L503.4,363.0L508.9,357.5L501.6,353.6Z " data-id="SI.LJ.IV" data-name="Ivancna Gorica" id="SI.LJ.IV"/>
utf-8utf-8<path d="M767.6,170.4L763.8,171.9L758.1,171.4L752.6,173.0L738.2,180.8L735.2,183.3L738.2,189.2L737.5,192.1L736.2,194.0L737.3,197.0L765.6,198.7L770.5,199.6L776.5,202.1L781.6,200.4L782.2,197.7L783.1,195.5L784.5,186.3L773.5,171.7L767.6,170.4Z " data-id="SI.PD.KI" data-name="Kidricevo" id="SI.PD.KI"/>
utf-8utf-8<path d="M720.4,315.4L718.9,311.6L720.0,308.7L714.6,299.8L711.6,298.4L706.0,294.5L702.0,293.7L698.4,291.2L692.9,294.6L689.8,298.2L687.3,299.5L681.5,298.2L680.2,302.3L683.9,308.0L686.4,316.0L694.6,319.1L697.0,319.3L701.3,322.0L705.0,325.3L709.3,336.0L711.8,335.8L717.4,334.5L721.9,334.0L723.4,335.6L717.8,345.2L722.2,345.0L730.3,341.4L743.7,332.4L742.0,330.1L734.2,330.0L727.8,326.6L723.2,316.7L720.4,315.4Z " data-id="SI.SA.KO" data-name="Kozje" id="SI.SA.KO"/>
utf-8utf-8<path d="M686.4,316.0L662.9,317.7L663.9,323.0L663.0,326.3L663.2,329.7L665.6,335.7L667.4,337.8L668.3,342.6L666.8,345.2L656.4,354.8L651.3,362.2L649.0,368.7L646.7,375.9L646.9,382.6L646.3,385.7L649.9,388.9L658.8,391.7L661.8,399.4L662.8,408.0L664.1,412.7L664.9,418.1L673.2,430.0L675.1,431.7L678.6,429.1L677.8,425.3L676.2,421.2L677.4,417.5L680.8,416.0L684.5,416.4L691.9,418.0L695.0,417.0L700.6,412.8L703.6,411.4L712.1,412.7L710.3,410.1L702.6,401.1L699.0,395.5L697.8,392.7L697.6,389.5L698.9,384.8L703.5,382.2L711.7,379.2L712.2,375.8L714.7,374.5L715.4,372.0L715.8,367.9L714.5,353.8L717.8,345.2L712.8,343.7L711.5,342.8L711.1,341.0L709.3,336.0L705.0,325.3L701.3,322.0L697.0,319.3L694.6,319.1L686.4,316.0Z " data-id="SI.PS.KS" data-name="Krško" id="SI.PS.KS"/>
utf-8utf-8<path d="M709.5,78.3L708.9,73.8L707.4,74.8L703.4,75.8L698.5,74.7L691.7,74.7L685.0,76.3L680.4,79.5L677.7,85.1L677.6,85.9L683.2,90.4L694.2,92.9L700.6,92.8L703.1,93.7L705.5,96.1L708.2,97.6L712.8,101.0L714.2,103.8L719.6,107.2L724.8,103.4L717.7,87.9L709.5,78.3Z " data-id="SI.PD.KU" data-name="Kungota" id="SI.PD.KU"/>
utf-8utf-8<path d="M609.8,266.0L607.4,264.7L604.6,264.5L598.5,266.7L595.0,266.3L594.3,264.2L590.6,268.2L581.9,269.7L561.8,270.1L568.0,276.5L569.3,278.8L577.5,283.9L581.8,288.1L584.8,291.6L587.8,296.8L588.0,298.9L587.0,300.3L583.4,302.3L574.1,299.4L573.3,301.5L576.1,304.4L580.5,306.2L593.8,318.7L594.5,316.5L593.1,314.1L590.6,311.7L593.6,309.7L609.7,309.8L614.6,311.3L617.2,312.7L620.0,318.3L622.6,319.4L625.8,317.2L630.2,315.6L646.6,314.2L649.1,309.6L649.8,307.5L649.2,304.1L650.1,299.9L645.5,289.0L643.9,283.5L645.6,280.2L645.8,276.3L641.7,271.0L625.9,276.9L620.0,277.2L618.7,276.5L622.4,270.6L621.7,267.9L609.8,266.0Z " data-id="SI.SA.LA" data-name="Laško" id="SI.SA.LA"/>
utf-8utf-8<path d="M520.1,298.4L517.7,299.8L515.0,302.8L511.3,304.7L506.1,305.6L498.9,305.7L497.4,304.9L493.4,299.7L493.1,297.8L493.5,293.4L492.3,292.2L489.5,291.6L475.9,291.5L474.2,288.5L465.7,297.1L449.5,303.1L448.4,305.9L446.8,306.9L436.8,311.4L440.5,313.7L441.2,315.3L444.8,316.8L449.8,316.5L467.2,319.2L479.1,313.9L486.0,315.1L494.1,321.2L502.2,329.7L510.0,335.6L515.2,345.2L517.2,352.7L521.6,352.9L526.1,353.7L532.0,356.9L539.6,354.6L542.0,351.8L543.2,348.5L544.0,342.6L548.5,342.0L556.3,342.3L559.4,340.3L563.6,340.9L568.0,341.2L559.9,330.6L559.9,326.9L554.6,323.6L553.4,321.6L552.0,317.2L538.0,321.3L534.8,321.6L530.1,320.5L529.7,318.4L528.0,315.8L526.3,309.0L527.7,307.8L529.6,303.6L527.5,295.6L520.1,298.4Z " data-id="SI.LJ.LI" data-name="Litija" id="SI.LJ.LI"/>
utf-8utf-8<path d="M371.5,285.1L363.2,287.5L359.7,287.8L357.3,286.0L354.7,289.7L350.4,292.0L346.2,291.9L343.0,294.0L345.1,299.7L348.6,304.2L346.3,305.5L339.6,310.0L341.7,310.0L344.7,311.8L350.6,322.9L351.1,326.6L350.9,329.4L347.6,331.3L352.6,336.5L356.7,339.0L357.5,340.7L353.2,345.2L351.1,348.1L351.2,350.8L354.4,353.1L363.5,349.5L365.2,346.0L372.2,343.8L375.5,343.6L382.1,346.7L382.6,341.3L382.2,337.7L384.1,336.4L390.8,335.4L398.6,336.7L408.4,344.1L413.3,347.1L422.8,346.9L427.8,344.3L430.7,340.8L435.2,338.5L437.9,338.4L442.9,341.3L448.0,343.6L450.9,341.7L449.7,333.9L450.7,331.7L449.7,329.3L443.7,322.7L444.1,319.8L444.8,316.8L441.2,315.3L440.5,313.7L436.8,311.4L430.4,312.0L427.6,310.4L425.7,310.1L419.3,311.9L411.5,312.4L405.8,311.1L399.3,307.8L398.6,304.5L397.7,301.0L390.3,300.1L380.6,296.8L374.0,290.4L371.5,285.1Z " data-id="SI.LJ" data-name="Ljubljana" id="SI.LJ"/>
utf-8utf-8<path d="M456.1,174.2L457.0,180.7L458.4,184.6L458.0,188.8L451.1,208.6L456.4,206.7L457.5,207.6L460.7,209.2L473.2,217.5L479.3,217.7L483.3,208.9L482.9,203.1L488.2,186.6L487.1,177.2L484.0,174.9L456.1,174.2Z " data-id="SI.SA.LJ" data-name="Ljubno" id="SI.SA.LJ"/>
utf-8utf-8<path d="M272.1,329.1L270.0,327.8L265.5,334.8L255.5,340.5L255.5,345.9L250.5,351.3L247.5,353.4L249.5,358.0L249.4,362.0L247.8,366.7L245.8,370.4L245.9,376.9L247.3,380.0L248.9,381.9L253.3,390.9L255.3,394.8L272.0,392.1L278.7,393.4L286.1,397.2L304.0,403.8L310.2,388.1L305.3,379.5L296.6,370.9L289.3,364.9L286.3,363.1L281.2,361.6L280.0,359.8L281.6,355.5L280.9,352.6L281.9,347.1L285.0,344.8L277.0,340.4L273.9,339.6L271.5,333.0L272.1,329.1Z " data-id="SI.LJ.LO" data-name="Logatec" id="SI.LJ.LO"/>
utf-8utf-8<path d="M396.5,447.9L394.6,446.5L390.7,448.0L398.1,464.7L399.0,469.0L402.8,475.8L406.5,474.4L410.1,476.1L411.3,482.2L411.4,489.4L412.1,494.8L415.4,499.8L419.8,503.5L431.4,511.1L433.7,511.9L435.8,513.0L435.8,513.0L441.0,510.6L454.2,502.4L449.3,490.1L454.0,486.2L455.4,482.6L456.4,480.6L454.6,474.6L451.2,473.6L447.0,471.3L436.7,468.3L433.5,465.8L426.3,458.7L422.2,453.6L420.5,451.9L417.1,450.2L410.5,449.9L403.1,447.6L396.5,447.9Z " data-id="SI.LJ.LP" data-name="Loški Potok" id="SI.LJ.LP"/>
utf-8utf-8<path d="M470.3,277.0L468.5,274.7L489.3,272.6L491.5,271.8L494.0,267.1L492.6,260.1L456.8,263.6L451.8,265.2L445.0,265.1L440.6,264.5L434.4,262.7L424.0,263.9L418.1,269.2L415.0,275.3L415.0,278.8L416.2,279.1L423.2,283.1L425.8,285.8L434.3,282.6L440.0,278.5L453.3,276.1L463.8,277.3L471.5,279.3L470.3,277.0Z " data-id="SI.LJ.LU" data-name="Lukovica" id="SI.LJ.LU"/>
utf-8utf-8<path d="M352.5,266.2L335.9,266.8L337.9,273.5L339.0,275.2L332.7,279.3L329.7,280.1L327.8,283.3L325.2,284.5L321.5,285.2L315.6,289.5L313.6,292.5L312.8,295.8L313.9,297.9L312.5,303.9L315.3,307.0L317.0,308.4L321.0,309.8L327.7,307.1L339.6,310.0L346.3,305.5L348.6,304.2L345.1,299.7L343.0,294.0L346.2,291.9L350.4,292.0L354.7,289.7L357.3,286.0L352.5,266.2Z " data-id="SI.LJ.MD" data-name="Medvode" id="SI.LJ.MD"/>
utf-8utf-8<path d="M391.2,266.5L392.0,264.3L378.3,273.8L378.4,278.9L375.6,280.6L374.5,283.2L371.5,285.1L374.0,290.4L395.7,284.3L392.9,272.9L394.6,267.9L391.2,266.5Z " data-id="SI.LJ.MN" data-name="Mengeš" id="SI.LJ.MN"/>
utf-8utf-8<path d="M619.4,456.2L619.1,456.4L612.8,460.5L615.4,460.6L620.7,469.0L625.3,472.3L628.8,476.2L632.3,481.4L632.3,484.0L631.0,485.9L626.6,488.2L625.0,492.6L620.6,496.1L617.3,497.9L614.6,497.9L614.4,501.2L619.4,502.6L622.5,501.9L623.9,502.4L627.0,508.1L630.2,510.6L634.0,512.5L631.9,508.0L629.3,503.8L628.7,500.5L632.6,498.7L634.6,497.1L635.6,494.0L637.2,491.0L646.4,488.4L650.3,486.6L654.6,485.2L661.3,485.3L659.2,481.8L647.2,468.5L646.2,467.7L641.2,469.2L638.3,472.6L634.0,471.3L631.0,469.5L629.2,467.5L625.6,462.2L622.3,459.6L619.9,458.6L619.1,456.9L619.4,456.2Z " data-id="SI.DO.CR" data-name="Metlika" id="SI.DO.CR"/>
utf-8utf-8<path d="M484.8,137.9L477.7,132.3L476.2,127.8L472.5,125.8L471.2,123.9L467.9,123.3L465.0,124.0L459.2,123.6L455.7,124.1L453.8,130.2L450.9,136.8L456.2,137.7L462.2,139.1L468.9,143.6L476.0,145.6L480.1,145.9L482.8,145.4L484.2,142.8L484.8,137.9Z " data-id="SI.KO.ME" data-name="Mežica" id="SI.KO.ME"/>
utf-8utf-8<path d="M598.8,146.3L592.4,146.7L587.4,145.7L578.4,140.2L575.9,147.8L569.0,157.3L565.7,160.3L565.4,164.5L564.0,166.3L561.0,166.8L558.0,175.5L568.3,179.1L575.0,180.6L575.4,183.3L575.5,186.6L580.3,188.8L593.6,187.2L599.8,178.6L603.3,169.4L605.2,167.0L607.5,165.7L612.8,164.4L621.3,163.9L621.8,161.0L620.8,159.2L618.5,156.5L617.4,151.6L616.0,147.5L598.8,146.3Z " data-id="SI.KO.MI" data-name="Mislinja" id="SI.KO.MI"/>
utf-8utf-8<path d="M463.8,277.3L453.3,276.1L440.0,278.5L434.3,282.6L425.8,285.8L423.0,287.8L423.4,290.2L428.1,293.0L427.7,296.3L433.0,298.6L437.1,299.2L439.0,300.7L440.6,303.1L443.4,303.6L449.5,303.1L465.7,297.1L474.2,288.5L475.7,286.8L475.5,285.3L475.7,283.8L471.5,279.3L463.8,277.3Z " data-id="SI.LJ.MO" data-name="Moravce" id="SI.LJ.MO"/>
utf-8utf-8<path d="M520.5,189.6L514.8,185.9L510.5,186.8L503.3,185.5L499.9,183.7L488.2,186.6L482.9,203.1L483.3,208.9L479.3,217.7L482.9,223.5L497.9,219.9L504.8,214.5L506.7,213.6L508.7,214.1L510.9,216.5L512.7,222.7L517.0,219.0L518.1,217.2L518.4,214.9L521.2,210.7L523.8,209.1L520.8,204.1L520.1,201.7L519.9,193.2L520.5,189.6Z " data-id="SI.SA.MO" data-name="Mozirje" id="SI.SA.MO"/>
utf-8utf-8<path d="M539.2,85.9L540.6,91.2L542.4,94.7L546.4,100.2L553.4,104.3L558.0,104.9L562.4,103.4L571.2,97.1L571.2,94.7L570.3,93.1L567.5,89.8L567.1,88.4L545.6,86.4L539.2,85.9Z " data-id="SI.KO.MU" data-name="Muta" id="SI.KO.MU"/>
utf-8utf-8<path d="M510.9,216.5L508.7,214.1L506.7,213.6L504.8,214.5L497.9,219.9L482.9,223.5L481.7,228.6L478.8,232.2L477.6,236.3L477.3,242.6L487.2,247.5L490.8,242.0L491.5,238.5L497.2,237.6L499.4,236.2L505.6,233.9L507.0,232.6L506.9,231.1L509.0,230.5L513.2,230.3L512.7,222.7L510.9,216.5Z " data-id="SI.SA.NA" data-name="Nazarje" id="SI.SA.NA"/>
utf-8utf-8<path d="M754.2,87.3L746.7,80.2L745.3,76.9L743.7,75.7L739.2,74.6L735.4,74.9L731.2,74.5L730.2,75.8L729.5,78.7L727.6,82.1L726.1,86.5L717.7,87.9L724.8,103.4L719.6,107.2L730.1,107.7L736.6,113.0L743.8,117.0L751.5,117.3L754.5,115.4L755.7,109.5L754.6,103.8L755.1,98.9L757.7,91.2L754.2,87.3Z " data-id="SI.PD.PE" data-name="Pesnica" id="SI.PD.PE"/>
utf-8utf-8<path d="M323.4,445.9L321.5,440.2L305.5,447.8L300.9,451.0L289.4,454.9L283.7,455.2L274.5,458.9L267.4,460.2L262.3,460.2L256.9,458.9L249.1,456.0L246.0,459.0L242.4,460.6L240.4,464.2L239.9,467.0L242.2,472.1L242.8,477.6L247.9,487.1L247.1,490.1L250.6,491.6L254.6,492.2L256.9,490.9L262.3,489.2L270.1,488.8L283.7,489.5L290.5,488.8L294.0,488.0L297.4,485.1L300.1,483.7L312.2,479.4L322.2,477.7L325.7,475.9L326.9,472.7L331.5,472.6L338.9,477.6L342.1,480.6L357.6,483.8L357.0,476.8L353.8,473.2L345.8,465.9L343.0,458.7L323.4,445.9Z " data-id="SI.SP.PI" data-name="Pivka" id="SI.SP.PI"/>
utf-8utf-8<path d="M286.1,397.2L278.7,393.4L272.0,392.1L255.3,394.8L246.3,401.5L245.3,402.7L230.6,407.4L235.4,418.6L233.6,423.2L233.1,430.7L231.5,432.8L229.8,437.5L241.5,444.5L244.8,448.1L249.1,456.0L256.9,458.9L262.3,460.2L267.4,460.2L274.5,458.9L283.7,455.2L289.4,454.9L300.9,451.0L305.5,447.8L321.5,440.2L313.8,439.0L309.9,436.7L303.7,431.4L299.8,425.8L299.8,421.5L305.2,407.3L304.0,403.8L286.1,397.2Z " data-id="SI.SP.PO" data-name="Postojna" id="SI.SP.PO"/>
utf-8utf-8<path d="M736.4,159.5L733.0,160.3L727.5,160.5L723.7,159.3L720.2,156.9L712.4,153.8L704.0,153.8L699.0,152.0L690.7,151.2L691.6,153.8L691.7,154.7L694.8,157.0L722.3,170.5L722.9,171.9L726.7,172.9L731.4,174.8L738.2,180.8L752.6,173.0L748.1,167.0L748.5,165.8L748.4,164.5L746.0,160.4L743.5,158.4L736.4,159.5Z " data-id="SI.PD.RF" data-name="Race-Fram" id="SI.PD.RF"/>
utf-8utf-8<path d="M569.5,308.8L562.3,305.8L561.2,310.6L559.8,311.3L556.8,312.1L557.5,315.9L552.0,317.2L553.4,321.6L554.6,323.6L559.9,326.9L576.0,326.0L600.7,331.1L605.2,330.7L606.8,329.5L599.4,324.0L596.7,323.4L594.8,321.8L593.8,318.7L580.5,306.2L569.5,308.8Z " data-id="SI.SA.RA" data-name="Radece" id="SI.SA.RA"/>
utf-8utf-8<path d="M604.0,105.4L608.0,101.7L615.1,99.0L617.6,97.2L618.2,90.9L618.0,87.5L577.4,89.4L567.1,88.4L567.5,89.8L570.3,93.1L571.2,94.7L571.2,97.1L574.1,99.8L579.8,102.9L580.4,108.0L578.1,112.0L576.3,113.0L572.6,113.9L573.9,117.2L573.0,120.4L571.5,123.0L571.0,127.6L572.8,131.0L578.9,132.9L581.9,130.4L582.0,127.4L583.3,125.7L585.0,124.3L600.3,115.7L604.0,105.4Z " data-id="SI.KO.RD" data-name="Radlje ob Dravi" id="SI.KO.RD"/>
utf-8utf-8<path d="M731.4,234.3L717.0,230.3L710.3,230.2L705.1,232.1L703.5,234.3L711.1,249.3L714.9,253.5L717.3,254.6L718.4,255.6L720.8,261.9L725.2,265.3L725.3,265.4L729.2,260.5L735.8,257.5L741.2,257.8L741.1,255.6L744.9,248.7L747.8,247.0L749.7,243.0L753.7,240.0L759.8,237.3L747.9,238.1L741.5,234.2L731.4,234.3Z " data-id="SI.SA.RS" data-name="Rogaška Slatina" id="SI.SA.RS"/>
utf-8utf-8<path d="M759.8,237.3L753.7,240.0L749.7,243.0L747.8,247.0L744.9,248.7L741.1,255.6L741.2,257.8L764.2,259.3L770.0,255.9L775.8,246.5L778.9,244.3L778.7,244.2L765.2,238.9L759.8,237.3Z " data-id="SI.SA.RO" data-name="Rogatec" id="SI.SA.RO"/>
utf-8utf-8<path d="M617.3,497.9L620.6,496.1L625.0,492.6L626.6,488.2L631.0,485.9L632.3,484.0L632.3,481.4L628.8,476.2L625.3,472.3L620.7,469.0L615.4,460.6L612.8,460.5L601.3,467.8L595.2,468.6L590.3,468.2L580.7,468.8L573.2,467.8L567.2,467.0L563.6,468.7L560.9,471.3L555.5,478.6L554.3,480.8L553.8,488.8L560.6,498.5L566.2,500.4L576.6,503.4L585.5,502.6L589.5,500.9L592.3,497.0L597.9,494.3L602.6,494.5L608.5,495.4L614.6,497.9L617.3,497.9Z " data-id="SI.DO.SM" data-name="Semic" id="SI.DO.SM"/>
utf-8utf-8<path d="M347.2,254.4L346.4,250.5L345.5,241.7L345.7,237.0L347.1,233.3L350.3,230.1L352.4,227.2L336.6,228.3L336.1,232.2L332.4,237.1L330.0,247.5L327.8,251.5L327.5,253.8L329.6,256.8L335.9,266.8L352.5,266.2L355.0,264.3L355.1,264.0L353.5,261.1L347.2,254.4Z " data-id="SI.GO.SE" data-name="Šenčur" id="SI.GO.SE"/>
utf-8utf-8<path d="M750.6,63.5L742.2,63.9L717.6,60.8L712.2,58.1L711.7,64.1L712.2,69.2L710.5,72.7L708.9,73.8L709.5,78.3L717.7,87.9L726.1,86.5L727.6,82.1L729.5,78.7L730.2,75.8L731.2,74.5L735.4,74.9L739.2,74.6L743.7,75.7L745.3,76.9L746.7,80.2L754.2,87.3L757.7,91.2L758.3,87.6L759.1,86.9L759.7,85.7L766.7,86.2L764.6,83.1L763.8,78.8L765.6,76.8L765.7,74.5L766.8,72.1L766.4,65.2L760.4,61.2L759.7,60.3L750.6,63.5Z " data-id="SI.PD.SE" data-name="Šentilj" id="SI.PD.SE"/>
utf-8utf-8<path d="M649.9,388.9L648.5,392.7L644.1,394.9L643.6,394.0L640.1,392.5L632.2,396.5L625.1,400.0L622.4,405.5L623.6,410.2L625.6,414.0L631.8,419.1L640.0,429.0L644.2,440.8L674.9,431.8L675.1,431.7L673.2,430.0L664.9,418.1L664.1,412.7L662.8,408.0L661.8,399.4L658.8,391.7L649.9,388.9Z " data-id="SI.DO.SN" data-name="Šentjernej" id="SI.DO.SN"/>
utf-8utf-8<path d="M630.2,315.6L625.8,317.2L622.6,319.4L620.0,318.3L617.2,312.7L614.6,311.3L609.7,309.8L593.6,309.7L590.6,311.7L593.1,314.1L594.5,316.5L593.8,318.7L594.8,321.8L596.7,323.4L599.4,324.0L606.8,329.5L605.2,330.7L600.7,331.1L576.0,326.0L559.9,326.9L559.9,330.6L568.0,341.2L573.7,344.2L575.1,346.3L577.2,347.1L584.3,344.4L585.2,345.1L584.9,347.3L582.7,350.6L582.6,353.1L585.2,357.0L590.2,362.1L598.0,367.6L609.5,372.8L609.2,369.7L614.4,367.2L615.7,364.6L617.7,364.7L622.2,368.1L623.7,368.3L624.4,366.4L623.8,364.4L625.0,361.1L626.8,360.2L633.7,359.8L642.0,362.1L643.4,364.8L649.0,368.7L651.3,362.2L656.4,354.8L666.8,345.2L668.3,342.6L667.4,337.8L665.6,335.7L663.2,329.7L663.0,326.3L663.9,323.0L662.9,317.7L646.6,314.2L630.2,315.6Z " data-id="SI.PS.SE" data-name="Sevnica" id="SI.PS.SE"/>
utf-8utf-8<path d="M643.4,364.8L642.0,362.1L633.7,359.8L626.8,360.2L625.0,361.1L623.8,364.4L624.4,366.4L623.7,368.3L622.2,368.1L617.7,364.7L615.7,364.6L614.4,367.2L609.2,369.7L609.5,372.8L619.6,379.7L626.3,383.0L632.4,389.9L631.2,392.4L632.2,396.5L640.1,392.5L643.6,394.0L644.1,394.9L648.5,392.7L649.9,388.9L646.3,385.7L646.9,382.6L646.7,375.9L649.0,368.7L643.4,364.8Z " data-id="SI.DO.SK" data-name="Škocjan" id="SI.DO.SK"/>
utf-8utf-8<path d="M398.6,336.7L390.8,335.4L384.1,336.4L382.2,337.7L382.6,341.3L382.1,346.7L389.3,353.8L391.6,360.6L392.5,365.1L391.6,374.1L394.5,378.3L395.3,381.7L401.4,383.9L403.5,384.4L404.1,383.6L404.2,381.8L406.1,378.9L402.5,371.1L402.8,358.5L402.4,355.2L400.9,350.7L401.8,348.9L404.6,346.1L405.5,346.2L408.4,344.1L398.6,336.7Z " data-id="SI.LJ.SK" data-name="Škofljica" id="SI.LJ.SK"/>
utf-8utf-8<path d="M561.0,131.2L559.0,128.1L555.3,123.9L550.6,120.7L547.2,116.7L537.4,124.5L534.3,128.1L530.5,126.8L523.0,129.4L518.1,124.5L516.6,131.9L516.6,138.9L515.6,142.2L513.8,145.0L512.2,146.2L505.7,148.7L503.6,160.5L517.8,165.6L546.9,173.7L547.7,170.7L549.7,170.8L554.0,172.0L558.0,175.5L561.0,166.8L564.0,166.3L565.4,164.5L565.7,160.3L569.0,157.3L575.9,147.8L578.4,140.2L575.9,137.7L561.0,131.2Z " data-id="SI.KO" data-name="Slovenj Gradec" id="SI.KO"/>
utf-8utf-8<path d="M667.7,200.8L665.2,200.1L655.7,195.6L652.1,202.1L646.1,200.7L644.3,201.6L642.6,203.4L638.8,210.4L637.7,214.3L638.2,215.4L639.0,216.9L639.7,217.7L642.0,219.4L648.6,223.1L682.3,231.8L684.3,231.5L686.1,230.7L692.0,233.2L699.2,232.7L700.4,226.5L699.1,220.5L696.0,210.4L693.5,206.1L690.5,204.1L688.0,203.8L680.9,200.3L667.7,200.8Z " data-id="SI.SA.SK" data-name="Slovenske Konjice" id="SI.SA.SK"/>
utf-8utf-8<path d="M699.2,232.7L692.0,233.2L690.3,234.9L684.0,242.0L679.4,244.8L675.9,246.3L670.5,249.8L667.2,255.0L668.4,258.4L671.5,264.2L677.8,271.8L680.6,277.1L683.2,279.1L687.7,280.6L696.2,278.8L700.7,281.3L707.4,277.5L710.5,271.8L720.8,261.9L718.4,255.6L717.3,254.6L714.9,253.5L711.1,249.3L703.5,234.3L699.2,232.7Z " data-id="SI.SA.SJ" data-name="Šmarje pri Jelšah" id="SI.SA.SJ"/>
utf-8utf-8<path d="M533.0,201.9L524.7,198.3L519.9,193.2L520.1,201.7L520.8,204.1L523.8,209.1L533.4,214.2L538.3,221.0L540.3,218.1L540.5,214.1L540.3,209.2L541.9,203.4L533.0,201.9Z " data-id="SI.SA.SP" data-name="Šmartno ob Paki" id="SI.SA.SP"/>
utf-8utf-8<path d="M517.8,165.6L503.6,160.5L503.8,165.5L499.6,168.3L484.0,174.9L487.1,177.2L488.2,186.6L499.9,183.7L503.3,185.5L510.5,186.8L514.8,185.9L520.5,189.6L519.9,193.2L524.7,198.3L533.0,201.9L541.9,203.4L542.3,195.4L545.9,189.7L547.2,184.3L546.9,173.7L517.8,165.6Z " data-id="SI.SA.SS" data-name="Šoštanj" id="SI.SA.SS"/>
utf-8utf-8<path d="M757.8,150.2L755.8,149.3L751.6,147.0L749.8,143.2L747.4,146.6L747.1,147.8L750.6,154.7L746.0,160.4L748.4,164.5L748.5,165.8L748.1,167.0L752.6,173.0L758.1,171.4L763.8,171.9L767.6,170.4L773.5,171.7L775.1,169.3L774.1,166.4L774.6,164.7L778.6,162.5L773.8,157.7L772.7,157.2L770.9,156.7L766.3,157.3L757.8,150.2Z " data-id="SI.PD.ST" data-name="Starše" id="SI.PD.ST"/>
utf-8utf-8<path d="M630.3,251.8L624.8,254.5L623.0,256.3L623.6,263.8L624.3,266.0L621.7,267.9L622.4,270.6L618.7,276.5L620.0,277.2L625.9,276.9L641.7,271.0L641.2,260.9L641.7,258.4L640.7,256.0L640.0,254.7L632.6,252.0L630.3,251.8Z " data-id="SI.SA.ST" data-name="Štore" id="SI.SA.ST"/>
utf-8utf-8<path d="M563.6,340.9L559.4,340.3L556.3,342.3L548.5,342.0L544.0,342.6L543.2,348.5L542.0,351.8L539.6,354.6L532.0,356.9L526.1,353.7L521.6,352.9L517.2,352.7L512.7,356.2L508.9,357.5L503.4,363.0L497.2,366.1L495.2,369.5L494.4,372.5L493.7,382.9L492.3,387.4L493.5,391.3L495.5,394.5L512.2,394.1L515.2,394.9L518.6,396.8L522.3,403.0L525.0,404.7L528.9,405.3L535.4,402.6L540.5,404.3L542.0,406.3L544.0,407.0L547.6,405.9L547.2,397.9L550.9,393.3L553.9,391.1L561.0,389.6L564.2,385.2L567.9,385.7L575.5,391.0L581.1,393.0L594.0,395.3L601.8,392.8L604.2,390.5L607.2,384.1L606.4,378.8L609.5,372.8L598.0,367.6L590.2,362.1L585.2,357.0L582.6,353.1L582.7,350.6L584.9,347.3L585.2,345.1L584.3,344.4L577.2,347.1L575.1,346.3L573.7,344.2L568.0,341.2L563.6,340.9Z " data-id="SI.DO.TR" data-name="Trebnje" id="SI.DO.TR"/>
utf-8</g>
</svg>
