<?xml version="1.0" ?>
<!DOCTYPE svg
  PUBLIC '-//W3C//DTD SVG 1.1//EN'
  'http://www.w3.org/Graphics/SVG/1.1/DTD/svg11.dtd'>
<svg enable_background="new 0 0 1000 418" height="418px" pretty_print="True" style="stroke-linejoin: round; stroke:#000; fill: none;" version="1.1" viewBox="0 0 1000 418" width="1000px" xmlns="http://www.w3.org/2000/svg" xmlns:xlink="http://www.w3.org/1999/xlink">
utf-8<defs>
utf-8utf-8<style type="text/css">
<![CDATA[path { fill-rule: evenodd; }]]>utf-8utf-8</style>
utf-8</defs>
utf-8<metadata>
utf-8utf-8<views>
utf-8utf-8utf-8<view h="418.259765699" padding="0" w="1000">
utf-8utf-8utf-8utf-8<proj flip="auto" id="robinson" lon0="17.183097768"/>
utf-8utf-8utf-8utf-8<bbox h="30.32" w="72.67" x="218.96" y="-828.69"/>
utf-8utf-8utf-8</view>
utf-8utf-8</views>
utf-8</metadata>
utf-8<g class="" id="provinces">
utf-8utf-8<path d="M16.1,238.5L10.6,243.1L8.8,248.2L4.7,253.8L3.1,256.8L2.7,260.1L2.1,272.1L1.2,275.2L1.3,277.6L3.4,279.7L7.0,280.0L12.1,283.5L13.0,285.3L11.9,288.8L15.0,293.2L22.7,298.5L23.2,303.1L26.7,311.2L27.9,315.2L28.3,320.1L29.9,323.6L34.8,327.8L37.3,329.1L40.2,329.4L42.2,330.5L48.7,338.0L47.1,339.9L45.7,346.3L48.7,348.2L48.1,351.9L52.3,353.8L58.3,355.6L62.7,358.7L69.0,355.4L75.5,356.6L83.1,358.3L83.6,352.5L86.6,349.2L89.3,344.9L89.2,343.6L92.4,342.7L97.2,338.4L93.5,338.3L90.1,336.2L88.7,331.5L89.8,331.0L94.0,331.9L98.4,330.7L100.4,329.1L102.9,328.2L101.2,324.0L101.5,321.7L106.1,321.8L106.0,324.2L108.5,324.4L112.4,325.9L117.0,324.1L122.3,320.4L126.4,318.7L127.3,316.2L126.1,313.5L124.5,312.5L124.1,308.2L120.3,306.8L118.6,305.6L118.0,303.5L118.8,301.0L123.3,296.1L113.0,289.5L111.7,286.9L114.5,279.8L110.3,275.2L109.3,275.2L102.1,266.7L97.8,260.4L94.7,260.3L89.6,257.3L84.4,256.5L83.5,254.0L87.2,247.8L90.2,245.3L79.8,237.2L80.4,234.0L82.9,232.5L83.9,229.6L86.5,229.0L90.7,223.4L91.5,220.8L89.9,216.0L86.9,213.8L81.8,213.1L74.7,222.4L70.1,227.1L68.5,227.7L65.9,230.9L59.2,232.0L56.9,233.3L46.9,235.7L38.8,232.6L35.3,232.1L36.1,234.1L27.5,234.5L16.4,237.3L16.1,238.5Z " data-id="SK.BL" data-name="Bratislavský" id="SK.BL"/>
utf-8utf-8<path d="M548.5,154.5L546.8,154.5L543.8,155.7L541.2,156.0L524.2,155.7L517.4,154.5L509.4,156.5L506.8,157.5L498.3,152.9L486.5,149.3L472.9,147.9L443.4,152.2L438.1,158.3L434.6,160.1L432.7,163.0L432.6,164.5L430.1,166.5L422.0,167.3L422.9,162.6L420.4,159.6L419.0,159.6L390.0,163.1L381.5,162.7L378.6,168.0L375.8,169.2L377.0,175.5L375.8,177.6L379.8,182.0L380.0,186.8L377.6,191.9L362.4,191.1L359.2,190.2L357.7,188.2L355.0,188.0L347.8,192.5L347.8,194.0L345.0,199.5L342.9,202.6L337.9,203.7L333.6,211.4L329.8,215.0L330.4,217.0L328.3,218.2L318.3,216.0L314.1,221.7L311.7,224.3L310.4,226.7L309.9,230.9L292.6,232.7L291.0,236.3L293.9,239.7L295.2,240.4L292.2,247.2L296.5,246.4L300.3,247.5L300.6,252.0L302.1,253.8L300.7,255.5L301.0,258.9L302.7,261.1L303.6,265.7L305.3,266.3L307.9,269.5L309.3,275.7L307.5,279.7L306.4,280.5L303.1,285.4L305.1,287.9L310.7,282.3L312.9,281.7L323.9,280.2L329.5,278.7L330.1,276.1L331.5,273.4L337.3,267.1L341.2,266.7L346.9,273.1L353.1,277.5L361.4,291.0L359.8,299.2L357.8,301.1L355.4,305.2L357.2,306.7L358.4,311.5L359.3,313.0L355.7,317.3L356.4,321.7L357.1,322.3L360.5,320.4L368.5,323.7L374.5,324.2L378.1,323.8L380.4,320.3L386.4,318.5L388.8,317.4L393.9,316.7L399.8,313.4L402.7,316.1L401.3,322.8L402.9,328.1L401.4,332.7L395.6,339.5L396.0,345.2L399.6,345.3L410.1,344.0L432.5,346.3L434.5,346.0L444.6,340.2L468.7,340.6L477.7,334.9L477.2,329.6L479.0,326.0L479.8,317.3L481.4,314.0L484.3,312.5L500.4,308.8L506.3,310.8L510.6,314.8L512.5,315.6L520.6,314.3L524.8,314.9L528.3,318.1L528.6,320.3L527.6,324.2L529.5,326.3L531.2,326.5L537.4,324.4L542.0,325.6L549.3,330.8L553.1,332.0L557.2,330.7L564.6,324.3L568.5,322.1L582.4,316.4L588.2,312.3L589.3,306.7L591.3,304.4L597.8,305.0L600.7,303.9L605.6,299.7L607.6,299.0L611.3,300.5L613.5,302.3L615.7,303.1L619.6,301.3L624.4,296.9L628.2,291.2L631.3,284.7L636.3,266.8L638.0,263.3L640.3,260.4L645.2,255.6L642.0,253.6L629.6,255.3L621.9,253.9L617.2,251.1L615.2,245.3L615.4,243.8L617.5,239.4L618.6,232.9L620.2,229.5L620.4,224.4L613.3,222.5L610.5,220.9L610.7,219.1L609.1,215.0L604.4,205.9L603.2,204.3L591.0,197.4L589.4,196.3L587.5,190.9L590.0,187.0L589.2,176.4L589.8,175.1L597.0,164.6L601.0,163.6L593.3,160.0L582.8,156.4L580.2,158.4L576.9,158.6L551.0,156.0L548.5,154.5Z " data-id="SK.BC" data-name="Banskobystrický" id="SK.BC"/>
utf-8utf-8<path d="M251.0,60.9L251.9,61.9L255.2,62.8L255.9,65.8L268.3,80.8L270.7,86.7L275.4,92.0L290.2,99.1L293.4,102.6L294.1,106.5L296.5,109.2L292.9,114.7L295.5,115.4L299.8,119.9L300.3,127.1L297.2,132.6L293.9,135.8L286.6,138.5L285.2,140.9L278.6,144.8L281.4,147.6L289.2,148.6L293.7,146.3L297.9,141.4L302.1,144.0L307.7,142.6L315.3,144.2L318.7,144.5L324.4,149.2L323.6,149.9L321.0,155.0L322.4,158.4L324.0,169.4L328.4,172.5L332.5,174.0L335.6,176.2L338.4,181.8L347.1,190.3L347.8,192.5L355.0,188.0L357.7,188.2L359.2,190.2L362.4,191.1L377.6,191.9L380.0,186.8L379.8,182.0L375.8,177.6L377.0,175.5L375.8,169.2L378.6,168.0L381.5,162.7L390.0,163.1L419.0,159.6L420.4,159.6L422.9,162.6L422.0,167.3L430.1,166.5L432.6,164.5L432.7,163.0L434.6,160.1L438.1,158.3L443.4,152.2L472.9,147.9L486.5,149.3L498.3,152.9L506.8,157.5L509.4,156.5L517.4,154.5L524.2,155.7L541.2,156.0L543.8,155.7L546.8,154.5L548.5,154.5L551.0,156.0L556.8,153.7L560.3,150.8L557.2,148.8L554.3,142.6L544.7,133.2L549.2,130.9L551.2,128.8L551.4,118.4L551.8,111.8L550.9,109.1L546.7,110.4L542.6,110.9L540.7,109.0L538.0,108.4L535.6,104.9L534.5,104.2L530.1,105.5L529.5,105.2L525.8,95.9L521.2,89.9L519.0,92.1L515.1,93.3L506.9,92.7L502.3,91.4L500.1,85.8L505.9,76.7L508.7,75.4L509.0,74.2L506.6,71.4L504.0,69.9L503.3,68.2L504.7,65.6L502.5,54.7L501.2,51.0L497.3,45.7L491.6,47.7L488.0,48.0L484.1,47.7L473.7,42.1L473.3,38.6L474.1,36.0L467.0,35.9L463.2,35.1L460.0,33.1L455.3,24.4L450.8,13.1L448.2,8.6L442.4,5.2L438.9,0.8L435.4,0.4L434.8,1.5L420.9,15.4L415.5,17.4L410.0,17.4L406.7,18.0L403.9,19.2L401.5,21.2L399.5,24.4L397.4,31.6L398.8,33.6L398.6,35.1L395.1,35.8L394.2,42.9L393.1,44.7L387.8,46.5L383.4,47.3L374.4,43.8L370.6,44.6L364.1,47.9L359.6,48.2L356.1,47.6L354.9,45.1L354.9,37.8L352.9,31.4L352.4,28.2L353.5,24.4L348.1,21.8L330.5,20.5L323.2,20.7L320.0,21.7L313.3,27.2L308.4,27.5L303.1,26.2L297.1,23.7L289.8,25.9L281.9,25.0L278.4,26.9L277.7,28.8L277.7,32.9L275.6,36.1L270.1,38.7L263.3,46.3L259.5,48.5L254.3,47.5L254.9,58.2L251.0,60.9Z " data-id="SK.ZI" data-name="Žilinský" id="SK.ZI"/>
utf-8utf-8<path d="M396.0,345.2L395.6,339.5L401.4,332.7L402.9,328.1L401.3,322.8L402.7,316.1L399.8,313.4L393.9,316.7L388.8,317.4L386.4,318.5L380.4,320.3L378.1,323.8L374.5,324.2L368.5,323.7L360.5,320.4L357.1,322.3L356.4,321.7L355.7,317.3L359.3,313.0L358.4,311.5L357.2,306.7L355.4,305.2L357.8,301.1L359.8,299.2L361.4,291.0L353.1,277.5L346.9,273.1L341.2,266.7L337.3,267.1L331.5,273.4L330.1,276.1L329.5,278.7L323.9,280.2L312.9,281.7L310.7,282.3L305.1,287.9L303.1,285.4L306.4,280.5L307.5,279.7L309.3,275.7L307.9,269.5L305.3,266.3L303.6,265.7L302.7,261.1L301.0,258.9L300.7,255.5L302.1,253.8L300.6,252.0L300.3,247.5L296.5,246.4L292.2,247.2L295.2,240.4L293.9,239.7L291.0,236.3L279.0,242.7L273.7,246.9L270.2,249.3L267.3,246.8L266.1,248.8L260.4,247.4L257.9,242.3L255.0,238.4L248.9,234.9L246.8,234.9L243.8,231.3L243.8,229.9L247.2,223.6L247.0,222.2L243.1,218.5L240.0,217.8L231.9,214.2L222.8,205.0L221.3,204.2L208.4,202.0L206.5,199.0L202.8,198.8L201.8,205.2L206.4,216.0L206.0,218.0L203.2,218.1L200.1,221.3L200.7,222.7L199.9,224.6L191.9,227.4L185.8,225.9L177.7,242.3L185.8,245.7L191.2,248.7L199.8,255.5L196.2,259.1L185.4,278.2L182.7,280.7L181.5,290.3L180.8,292.3L186.1,296.3L185.0,298.1L184.7,301.5L183.7,303.4L185.4,306.7L188.7,309.0L189.9,311.9L188.3,314.9L182.8,317.6L180.1,315.0L177.4,315.7L180.5,321.2L180.2,323.5L174.9,323.4L170.4,324.4L170.0,325.9L178.5,333.2L179.7,336.6L178.4,341.2L181.1,342.9L184.9,342.0L187.0,342.9L186.4,344.7L191.6,346.9L192.8,349.3L192.4,354.2L194.3,362.0L194.4,367.8L196.4,370.4L195.8,375.3L197.7,378.9L193.8,381.5L189.8,384.7L182.8,392.3L183.2,397.1L181.3,399.1L178.1,401.3L175.7,402.3L173.4,401.6L172.3,402.7L171.5,408.0L169.6,410.9L173.9,412.8L189.2,416.3L240.3,413.4L262.6,415.4L269.2,414.9L282.2,410.2L318.5,406.6L326.6,407.1L333.3,409.5L338.8,410.4L343.9,410.0L348.1,407.7L353.5,401.9L356.4,400.0L364.9,397.7L357.6,393.4L351.9,389.1L350.4,384.9L350.4,380.1L351.3,370.8L350.4,368.2L348.8,366.5L350.9,364.0L355.8,362.7L357.4,361.5L361.4,353.1L364.3,350.9L389.5,346.1L392.0,345.0L396.0,345.2Z " data-id="SK.NI" data-name="Nitriansky" id="SK.NI"/>
utf-8utf-8<path d="M347.1,190.3L338.4,181.8L335.6,176.2L332.5,174.0L328.4,172.5L324.0,169.4L322.4,158.4L321.0,155.0L323.6,149.9L324.4,149.2L318.7,144.5L315.3,144.2L307.7,142.6L302.1,144.0L297.9,141.4L293.7,146.3L289.2,148.6L281.4,147.6L278.6,144.8L285.2,140.9L286.6,138.5L293.9,135.8L297.2,132.6L300.3,127.1L299.8,119.9L295.5,115.4L292.9,114.7L296.5,109.2L294.1,106.5L293.4,102.6L290.2,99.1L275.4,92.0L270.7,86.7L268.3,80.8L255.9,65.8L255.2,62.8L251.9,61.9L251.0,60.9L244.8,65.1L221.7,72.8L216.9,76.9L213.2,82.7L210.5,89.5L209.0,96.9L210.3,114.3L209.6,119.2L206.4,124.4L201.6,128.4L195.9,130.7L186.3,130.1L182.0,130.6L178.5,132.6L176.5,136.6L175.7,139.9L175.0,146.8L173.9,149.9L170.9,152.6L167.5,152.7L163.7,152.2L159.4,152.8L156.7,154.8L151.4,163.6L148.4,165.8L115.3,177.0L108.7,176.2L102.8,171.4L100.1,170.3L96.0,171.4L92.9,173.1L91.2,177.8L89.5,179.9L84.3,184.4L92.1,185.5L94.8,182.4L100.9,187.5L103.8,188.5L106.8,191.3L108.6,194.1L108.6,195.7L106.0,201.2L108.9,206.2L114.4,211.5L118.9,218.5L128.1,215.5L133.7,214.0L134.6,212.6L134.9,208.6L139.8,209.6L140.8,208.8L149.1,206.1L151.6,207.1L155.5,211.7L160.0,213.8L163.3,214.2L170.5,213.9L170.4,212.4L180.5,216.1L182.5,218.1L200.1,221.3L203.2,218.1L206.0,218.0L206.4,216.0L201.8,205.2L202.8,198.8L206.5,199.0L208.4,202.0L221.3,204.2L222.8,205.0L231.9,214.2L240.0,217.8L243.1,218.5L247.0,222.2L247.2,223.6L243.8,229.9L243.8,231.3L246.8,234.9L248.9,234.9L255.0,238.4L257.9,242.3L260.4,247.4L266.1,248.8L267.3,246.8L270.2,249.3L273.7,246.9L279.0,242.7L291.0,236.3L292.6,232.7L309.9,230.9L310.4,226.7L311.7,224.3L314.1,221.7L318.3,216.0L328.3,218.2L330.4,217.0L329.8,215.0L333.6,211.4L337.9,203.7L342.9,202.6L345.0,199.5L347.8,194.0L347.8,192.5L347.1,190.3Z " data-id="SK.TC" data-name="Trenciansky" id="SK.TC"/>
utf-8utf-8<path d="M89.6,175.0L86.6,175.5L65.5,166.9L56.8,165.1L48.9,166.5L39.9,172.3L38.5,174.4L37.8,178.6L35.5,181.4L29.8,185.8L25.9,192.0L18.9,213.7L17.1,216.8L14.6,219.7L14.5,224.0L17.1,234.5L16.4,237.3L27.5,234.5L36.1,234.1L35.3,232.1L38.8,232.6L46.9,235.7L56.9,233.3L59.2,232.0L65.9,230.9L68.5,227.7L70.1,227.1L74.7,222.4L81.8,213.1L86.9,213.8L89.9,216.0L91.5,220.8L90.7,223.4L86.5,229.0L83.9,229.6L82.9,232.5L80.4,234.0L79.8,237.2L90.2,245.3L87.2,247.8L83.5,254.0L84.4,256.5L89.6,257.3L94.7,260.3L97.8,260.4L102.1,266.7L109.3,275.2L110.3,275.2L114.5,279.8L111.7,286.9L113.0,289.5L123.3,296.1L118.8,301.0L118.0,303.5L118.6,305.6L120.3,306.8L124.1,308.2L124.5,312.5L126.1,313.5L127.3,316.2L126.4,318.7L122.3,320.4L117.0,324.1L112.4,325.9L108.5,324.4L106.0,324.2L106.1,321.8L101.5,321.7L101.2,324.0L102.9,328.2L100.4,329.1L98.4,330.7L94.0,331.9L89.8,331.0L88.7,331.5L90.1,336.2L93.5,338.3L97.2,338.4L92.4,342.7L89.2,343.6L89.3,344.9L86.6,349.2L83.6,352.5L83.1,358.3L85.0,358.8L96.8,360.2L102.8,364.2L123.0,385.0L131.4,387.8L133.1,388.8L139.8,396.4L142.2,398.3L147.8,397.3L154.5,400.7L158.0,403.4L161.7,407.4L169.6,410.9L171.5,408.0L172.3,402.7L173.4,401.6L175.7,402.3L178.1,401.3L181.3,399.1L183.2,397.1L182.8,392.3L189.8,384.7L193.8,381.5L197.7,378.9L195.8,375.3L196.4,370.4L194.4,367.8L194.3,362.0L192.4,354.2L192.8,349.3L191.6,346.9L186.4,344.7L187.0,342.9L184.9,342.0L181.1,342.9L178.4,341.2L179.7,336.6L178.5,333.2L170.0,325.9L170.4,324.4L174.9,323.4L180.2,323.5L180.5,321.2L177.4,315.7L180.1,315.0L182.8,317.6L188.3,314.9L189.9,311.9L188.7,309.0L185.4,306.7L183.7,303.4L184.7,301.5L185.0,298.1L186.1,296.3L180.8,292.3L181.5,290.3L182.7,280.7L185.4,278.2L196.2,259.1L199.8,255.5L191.2,248.7L185.8,245.7L177.7,242.3L185.8,225.9L191.9,227.4L199.9,224.6L200.7,222.7L200.1,221.3L182.5,218.1L180.5,216.1L170.4,212.4L170.5,213.9L163.3,214.2L160.0,213.8L155.5,211.7L151.6,207.1L149.1,206.1L140.8,208.8L139.8,209.6L134.9,208.6L134.6,212.6L133.7,214.0L128.1,215.5L118.9,218.5L114.4,211.5L108.9,206.2L106.0,201.2L108.6,195.7L108.6,194.1L106.8,191.3L103.8,188.5L100.9,187.5L94.8,182.4L92.1,185.5L84.3,184.4L89.5,179.9L91.2,177.8L92.9,173.1L89.6,175.0Z " data-id="SK.TA" data-name="Trnavský" id="SK.TA"/>
utf-8utf-8<path d="M601.0,163.6L597.0,164.6L589.8,175.1L589.2,176.4L590.0,187.0L587.5,190.9L589.4,196.3L591.0,197.4L603.2,204.3L604.4,205.9L609.1,215.0L610.7,219.1L610.5,220.9L613.3,222.5L620.4,224.4L620.2,229.5L618.6,232.9L617.5,239.4L615.4,243.8L615.2,245.3L617.2,251.1L621.9,253.9L629.6,255.3L642.0,253.6L645.2,255.6L645.6,255.2L647.7,252.2L646.5,241.5L651.5,239.8L662.5,239.2L699.4,231.9L702.3,231.8L705.2,233.1L710.9,237.1L719.2,238.2L729.5,243.1L735.9,243.6L740.3,243.3L745.6,244.1L750.8,246.0L754.8,249.0L759.4,249.9L772.6,244.3L778.3,243.2L781.7,244.4L786.2,246.7L788.7,245.4L790.5,242.9L792.5,238.4L795.8,236.7L798.7,236.2L804.8,236.1L813.8,233.6L816.4,234.3L822.7,237.3L826.1,238.3L829.1,241.4L831.3,245.8L832.6,247.4L835.6,248.5L842.2,248.4L845.3,249.0L847.1,251.5L850.5,260.8L852.2,263.2L863.7,276.1L868.4,280.3L873.4,283.2L879.2,284.8L884.6,284.4L893.4,280.4L900.9,279.5L906.1,276.9L908.6,276.0L917.8,275.6L921.0,274.6L924.2,274.5L935.0,275.4L938.2,274.5L941.1,272.5L944.1,268.8L942.4,252.6L943.9,249.0L944.1,245.4L941.0,236.3L940.8,231.7L943.1,228.1L953.8,220.2L957.3,213.4L959.3,212.1L963.9,210.9L966.0,209.7L968.4,206.5L970.1,202.3L970.7,197.6L969.9,192.7L970.1,189.7L974.2,185.3L975.3,181.2L974.0,173.6L974.2,167.3L974.5,166.8L966.0,165.0L960.7,166.2L953.9,166.2L952.6,163.1L949.3,157.7L944.4,152.6L939.6,152.6L933.9,160.2L929.3,162.6L931.5,169.4L930.4,170.4L920.1,170.6L914.9,171.3L911.6,171.3L907.7,170.5L899.1,166.4L893.9,163.3L876.2,158.7L869.5,158.5L869.9,164.2L873.9,180.9L869.1,183.0L866.4,185.2L862.4,185.8L858.7,188.7L853.6,188.2L850.0,186.2L839.4,185.0L827.8,181.3L819.6,170.8L815.5,161.7L810.5,163.9L804.3,160.6L803.9,163.6L801.3,161.9L798.1,162.2L797.3,163.0L798.4,165.1L797.6,170.6L795.8,171.5L786.7,172.7L785.5,173.8L786.9,176.1L780.1,176.1L776.6,173.7L774.4,171.1L774.2,169.6L775.9,164.1L772.9,164.3L771.6,163.6L765.9,162.3L762.4,162.9L761.3,162.5L757.1,158.9L754.8,157.7L745.8,158.0L738.9,156.1L735.3,156.6L732.6,154.6L727.2,149.0L725.9,145.0L721.7,144.9L719.0,146.0L713.7,143.2L709.9,142.8L706.1,140.2L698.6,140.9L695.7,139.0L696.4,138.3L685.9,134.9L685.4,135.0L687.0,141.8L675.7,140.2L670.6,141.0L670.4,144.2L667.5,145.6L662.1,145.3L658.3,141.4L653.0,140.7L648.5,138.6L642.0,134.2L642.2,132.6L640.3,131.9L638.5,134.6L639.5,136.0L634.5,138.1L635.0,140.0L632.1,137.5L627.9,135.2L624.7,134.5L621.4,137.2L610.9,141.1L604.0,147.4L609.0,149.2L611.9,152.0L605.0,157.1L603.4,161.5L601.0,163.6Z " data-id="SK.KI" data-name="Košický" id="SK.KI"/>
utf-8utf-8<path d="M521.2,89.9L525.8,95.9L529.5,105.2L530.1,105.5L534.5,104.2L535.6,104.9L538.0,108.4L540.7,109.0L542.6,110.9L546.7,110.4L550.9,109.1L551.8,111.8L551.4,118.4L551.2,128.8L549.2,130.9L544.7,133.2L554.3,142.6L557.2,148.8L560.3,150.8L556.8,153.7L551.0,156.0L576.9,158.6L580.2,158.4L582.8,156.4L593.3,160.0L601.0,163.6L603.4,161.5L605.0,157.1L611.9,152.0L609.0,149.2L604.0,147.4L610.9,141.1L621.4,137.2L624.7,134.5L627.9,135.2L632.1,137.5L635.0,140.0L634.5,138.1L639.5,136.0L638.5,134.6L640.3,131.9L642.2,132.6L642.0,134.2L648.5,138.6L653.0,140.7L658.3,141.4L662.1,145.3L667.5,145.6L670.4,144.2L670.6,141.0L675.7,140.2L687.0,141.8L685.4,135.0L685.9,134.9L696.4,138.3L695.7,139.0L698.6,140.9L706.1,140.2L709.9,142.8L713.7,143.2L719.0,146.0L721.7,144.9L725.9,145.0L727.2,149.0L732.6,154.6L735.3,156.6L738.9,156.1L745.8,158.0L754.8,157.7L757.1,158.9L761.3,162.5L762.4,162.9L765.9,162.3L771.6,163.6L772.9,164.3L775.9,164.1L774.2,169.6L774.4,171.1L776.6,173.7L780.1,176.1L786.9,176.1L785.5,173.8L786.7,172.7L795.8,171.5L797.6,170.6L798.4,165.1L797.3,163.0L798.1,162.2L801.3,161.9L803.9,163.6L804.3,160.6L810.5,163.9L815.5,161.7L819.6,170.8L827.8,181.3L839.4,185.0L850.0,186.2L853.6,188.2L858.7,188.7L862.4,185.8L866.4,185.2L869.1,183.0L873.9,180.9L869.9,164.2L869.5,158.5L876.2,158.7L893.9,163.3L899.1,166.4L907.7,170.5L911.6,171.3L914.9,171.3L920.1,170.6L930.4,170.4L931.5,169.4L929.3,162.6L933.9,160.2L939.6,152.6L944.4,152.6L949.3,157.7L952.6,163.1L953.9,166.2L960.7,166.2L966.0,165.0L974.5,166.8L975.7,165.2L979.6,162.2L981.0,160.2L980.9,154.8L982.7,150.8L985.4,141.4L988.3,139.4L995.0,138.5L997.5,136.6L997.0,132.8L997.2,127.6L997.9,122.5L998.8,118.8L992.3,116.3L978.4,115.8L971.7,114.1L961.8,106.6L957.9,105.4L948.1,105.7L939.5,103.6L938.1,102.6L937.6,98.2L935.4,96.4L925.8,95.7L919.7,92.6L906.9,90.7L901.5,87.6L899.5,80.5L896.3,72.5L890.4,65.7L883.4,60.7L873.4,56.8L866.3,51.9L862.9,50.3L859.4,50.9L854.4,55.7L852.6,56.7L849.7,54.8L842.8,47.3L839.6,44.7L831.8,43.6L826.3,40.0L822.9,39.3L810.3,40.5L804.6,42.4L802.0,41.8L795.5,43.0L792.6,43.0L774.9,39.0L764.4,34.6L761.9,34.1L758.9,36.0L754.2,42.7L751.4,45.1L747.7,45.6L744.8,44.1L742.0,41.7L738.6,39.9L735.8,39.7L728.7,40.9L726.1,42.0L722.9,45.3L725.3,47.3L729.6,49.4L732.2,52.8L731.0,54.8L721.3,55.9L718.0,58.8L713.0,65.8L709.5,68.6L705.4,69.8L702.1,69.3L699.0,67.6L695.9,65.1L692.3,63.1L686.5,62.9L682.5,62.3L679.5,60.7L662.0,45.1L659.2,44.7L652.6,45.6L645.3,46.1L641.0,50.5L636.9,51.8L633.0,51.0L617.3,44.7L614.6,45.2L615.0,49.0L605.9,49.3L598.4,47.1L596.3,47.1L594.6,48.2L593.4,54.9L591.7,59.0L578.1,60.0L575.6,61.2L570.5,66.4L565.2,66.8L562.5,73.1L560.8,78.2L558.9,80.4L558.7,88.3L557.5,93.9L554.2,96.1L548.1,93.7L538.2,86.6L533.0,84.5L527.4,85.0L524.4,86.9L521.2,89.9Z " data-id="SK.PV" data-name="Prešov" id="SK.PV"/>
utf-8</g>
</svg>
