<?xml version="1.0" ?>
<!DOCTYPE svg
  PUBLIC '-//W3C//DTD SVG 1.1//EN'
  'http://www.w3.org/Graphics/SVG/1.1/DTD/svg11.dtd'>
<svg enable_background="new 0 0 1000 1160" height="1160px" pretty_print="True" style="stroke-linejoin: round; stroke:#000; fill: none;" version="1.1" viewBox="0 0 1000 1160" width="1000px" xmlns="http://www.w3.org/2000/svg" xmlns:xlink="http://www.w3.org/1999/xlink">
utf-8<defs>
utf-8utf-8<style type="text/css">
<![CDATA[path { fill-rule: evenodd; }]]>utf-8utf-8</style>
utf-8</defs>
utf-8<metadata>
utf-8utf-8<views>
utf-8utf-8utf-8<view h="1160.72117165" padding="0" w="1000">
utf-8utf-8utf-8utf-8<proj flip="auto" id="robinson" lon0="-11.9911466657"/>
utf-8utf-8utf-8utf-8<bbox h="51.59" w="44.48" x="-196.27" y="-167.62"/>
utf-8utf-8utf-8</view>
utf-8utf-8</views>
utf-8</metadata>
utf-8<g class="" id="provinces">
utf-8utf-8<path d="M230.0,897.6L235.0,891.1L228.5,888.0L221.6,887.4L201.8,889.3L189.2,893.0L183.7,893.9L147.5,893.9L134.7,896.2L129.8,898.3L125.7,903.1L124.3,908.3L111.9,911.7L111.9,914.4L145.8,924.7L173.9,929.5L184.7,935.8L214.8,944.8L219.7,945.3L226.5,948.1L233.0,955.2L238.8,964.4L243.2,973.8L236.5,973.8L239.4,979.4L244.8,981.6L250.5,980.6L254.8,976.2L255.1,971.5L252.3,959.0L252.7,953.0L255.7,946.9L258.6,943.1L260.9,939.2L261.9,932.4L259.9,921.4L260.2,917.1L264.0,914.4L260.6,909.0L256.7,904.3L252.0,901.0L246.1,899.0L233.3,899.5L230.0,897.6Z M711.0,998.4L686.7,987.4L678.1,981.8L666.8,976.5L658.2,973.7L645.8,972.4L642.2,971.3L640.3,968.5L640.7,960.1L639.9,951.3L640.1,941.0L639.1,924.1L640.1,917.2L647.8,908.1L648.4,906.9L643.5,899.3L639.5,896.2L637.7,895.7L633.9,895.9L630.8,897.6L628.1,899.7L617.6,913.7L610.2,921.3L605.7,924.0L603.9,924.0L599.1,921.9L597.5,917.3L596.3,909.1L595.0,888.8L593.2,880.1L591.6,875.2L587.0,872.0L596.2,866.0L607.0,857.3L609.4,856.7L612.5,863.2L615.0,864.9L619.3,862.3L621.1,859.2L622.4,855.5L623.7,846.8L625.3,841.0L625.0,838.3L619.5,822.1L616.7,823.1L611.8,830.4L609.3,829.7L609.0,826.6L609.2,817.4L612.7,800.0L614.3,796.7L635.9,779.2L641.0,772.9L643.7,770.9L646.9,766.8L648.3,763.2L650.1,755.2L650.5,751.0L650.5,746.9L649.3,736.8L649.2,722.5L648.0,714.9L640.0,689.5L639.6,680.5L636.4,674.3L614.0,648.9L600.0,628.3L594.3,622.0L592.9,621.1L585.9,613.5L584.1,608.2L583.8,602.3L584.3,596.0L582.8,590.5L578.0,584.2L575.2,581.4L572.7,576.2L569.3,560.4L561.8,566.0L556.9,567.0L538.1,565.9L530.4,567.6L523.2,571.3L521.2,572.8L519.1,578.1L518.4,587.4L516.7,595.8L513.0,602.0L505.2,610.2L503.0,611.8L487.4,619.4L481.3,621.3L472.5,622.0L464.2,621.3L451.6,617.6L445.7,613.5L443.4,612.7L441.1,613.4L437.6,615.4L433.3,616.2L429.1,615.1L423.8,615.4L420.8,616.7L415.9,617.8L409.9,626.7L408.8,632.2L409.4,634.0L412.5,640.9L416.2,644.0L417.1,645.5L418.5,653.1L417.8,657.2L416.5,659.3L410.0,658.3L408.3,657.7L403.8,652.4L401.2,645.0L398.9,642.4L382.6,635.2L362.4,622.3L360.1,621.3L353.5,620.3L348.6,620.2L343.5,621.3L334.0,625.9L329.1,626.0L323.6,623.8L314.1,624.1L308.7,625.7L301.2,632.3L291.0,637.3L287.4,640.9L285.3,646.3L282.5,650.2L279.3,652.1L276.2,650.6L273.3,646.1L271.9,645.2L246.6,643.6L244.3,642.9L243.2,641.6L241.3,636.0L241.0,629.4L235.4,625.5L229.5,624.6L223.4,624.7L220.5,623.9L217.1,619.1L215.7,618.1L212.2,617.0L192.3,617.3L189.4,618.0L182.5,621.8L178.3,621.7L177.2,620.4L174.8,615.3L173.7,614.0L168.4,611.8L162.2,610.9L159.1,611.3L156.9,612.3L145.9,630.9L140.3,637.5L136.5,641.1L130.9,648.3L126.3,652.3L122.6,654.0L106.3,658.4L105.7,658.9L104.8,660.6L103.4,665.2L102.6,670.1L102.4,675.5L103.9,681.6L107.6,684.8L112.1,686.9L115.8,689.8L120.9,699.3L123.4,706.6L127.9,711.3L138.5,712.9L135.0,717.0L132.0,721.8L129.9,727.0L129.1,732.3L127.0,737.3L126.4,740.2L128.5,742.7L134.0,761.1L141.1,768.5L149.5,775.1L156.1,782.8L145.1,777.5L139.7,775.7L134.5,774.9L128.2,776.5L116.9,783.7L110.4,785.2L117.3,794.5L121.7,798.8L125.3,800.6L130.3,802.3L133.4,806.4L137.7,816.3L153.3,827.7L170.2,819.9L176.2,818.8L170.3,822.0L167.0,825.3L165.9,829.9L167.0,836.8L170.0,843.7L174.0,847.2L178.8,849.7L192.0,860.2L199.6,862.1L220.9,866.7L223.4,866.5L228.2,870.8L239.0,866.4L255.6,854.8L265.5,837.6L271.5,831.7L278.2,836.8L273.6,838.2L271.6,842.2L271.8,847.3L273.8,852.3L271.7,854.8L269.9,853.0L264.5,849.7L251.6,869.6L247.4,882.2L255.4,891.1L255.4,885.7L257.7,885.7L259.6,887.9L261.8,887.7L266.7,883.4L266.8,890.0L265.8,892.2L264.2,893.9L264.2,896.2L269.7,901.6L271.3,909.5L273.7,916.7L281.2,919.8L284.9,920.2L291.5,921.9L293.7,922.2L297.7,921.0L304.8,917.7L312.0,916.2L318.9,912.5L322.2,911.7L328.5,911.4L332.5,909.3L338.3,907.5L340.5,905.9L341.4,902.7L342.7,900.4L349.6,899.7L352.9,899.0L355.3,903.9L357.6,902.5L364.2,901.4L366.7,901.4L365.2,908.8L360.7,911.4L354.6,912.4L348.5,914.4L350.5,919.8L341.7,920.3L335.3,923.7L329.6,927.6L323.0,929.6L321.6,928.9L317.6,925.5L315.1,924.7L312.9,925.1L307.2,927.1L298.8,927.0L295.0,927.7L291.3,929.6L285.4,927.4L281.0,931.5L277.5,937.2L271.2,943.4L266.9,950.5L263.9,957.5L265.0,960.8L267.7,962.2L270.4,964.9L273.2,966.6L279.1,963.0L282.6,963.3L288.8,966.1L291.5,968.4L294.1,973.0L300.0,974.3L302.5,975.8L304.0,978.2L304.6,981.5L293.7,976.0L281.4,971.5L269.2,972.0L259.1,981.5L322.5,1004.5L402.3,1040.4L479.8,1072.3L526.5,1103.1L544.0,1119.8L548.6,1125.3L551.6,1133.7L553.6,1133.7L556.4,1131.6L560.4,1130.9L569.7,1131.2L565.9,1135.7L562.9,1136.3L567.9,1141.3L574.1,1146.2L580.7,1150.2L594.4,1153.7L599.8,1158.7L610.4,1153.3L613.0,1151.5L612.3,1142.0L613.8,1135.6L622.9,1129.7L626.1,1123.6L628.2,1116.4L629.0,1110.8L627.8,1103.2L628.9,1100.7L636.1,1099.8L638.6,1098.8L640.4,1096.7L641.1,1093.4L640.0,1088.7L635.4,1080.0L634.5,1076.1L635.6,1074.7L641.6,1068.4L653.3,1047.9L658.9,1046.6L686.3,1032.7L689.2,1029.6L711.0,998.4Z " data-id="SL.SO" data-name="Southern" id="SL.SO"/>
utf-8utf-8<path d="M78.1,611.4L69.8,604.7L61.8,596.1L50.5,589.3L43.8,576.6L39.6,571.3L34.5,568.0L28.6,565.9L22.6,565.8L17.0,568.5L14.8,564.4L12.5,565.9L10.5,564.6L3.5,563.3L4.8,566.8L9.0,573.9L9.9,577.5L9.3,582.3L7.9,585.3L3.2,591.9L7.4,593.2L9.4,596.8L10.8,600.5L13.2,602.1L21.5,614.7L23.2,618.7L23.8,621.6L28.3,624.0L39.6,644.9L43.5,648.4L41.8,652.7L42.0,657.3L43.4,665.3L44.0,681.3L43.2,687.2L45.3,687.2L50.3,680.3L58.6,673.1L67.7,667.2L75.3,663.9L89.9,661.3L95.7,661.8L97.9,661.3L104.1,656.8L107.1,656.1L105.7,658.9L106.3,658.4L122.6,654.0L126.3,652.3L130.9,648.3L126.5,640.7L125.4,635.4L125.9,628.5L125.0,624.6L121.9,622.8L117.0,621.1L96.4,616.5L94.2,614.3L90.7,611.6L85.2,611.0L84.1,610.4L78.1,611.4Z " data-id="SL.WE" data-name="Western" id="SL.WE"/>
utf-8utf-8<path d="M84.1,610.4L85.2,611.0L90.7,611.6L94.2,614.3L96.4,616.5L117.0,621.1L121.9,622.8L125.0,624.6L125.9,628.5L125.4,635.4L126.5,640.7L130.9,648.3L136.5,641.1L140.3,637.5L145.9,630.9L156.9,612.3L159.1,611.3L162.2,610.9L168.4,611.8L173.7,614.0L174.8,615.3L177.2,620.4L178.3,621.7L182.5,621.8L189.4,618.0L192.3,617.3L212.2,617.0L215.7,618.1L217.1,619.1L220.5,623.9L223.4,624.7L229.5,624.6L235.4,625.5L241.0,629.4L241.3,636.0L243.2,641.6L244.3,642.9L246.6,643.6L271.9,645.2L273.3,646.1L276.2,650.6L279.3,652.1L282.5,650.2L285.3,646.3L287.4,640.9L291.0,637.3L301.2,632.3L308.7,625.7L314.1,624.1L323.6,623.8L329.1,626.0L334.0,625.9L343.5,621.3L348.6,620.2L353.5,620.3L360.1,621.3L362.4,622.3L382.6,635.2L398.9,642.4L401.2,645.0L403.8,652.4L408.3,657.7L410.0,658.3L416.5,659.3L417.8,657.2L418.5,653.1L417.1,645.5L416.2,644.0L412.5,640.9L409.4,634.0L408.8,632.2L409.9,626.7L415.9,617.8L420.8,616.7L423.8,615.4L429.1,615.1L433.3,616.2L437.6,615.4L441.1,613.4L443.4,612.7L445.7,613.5L451.6,617.6L464.2,621.3L472.5,622.0L481.3,621.3L487.4,619.4L503.0,611.8L505.2,610.2L513.0,602.0L516.7,595.8L518.4,587.4L519.1,578.1L521.2,572.8L523.2,571.3L530.4,567.6L538.1,565.9L556.9,567.0L561.8,566.0L569.3,560.4L576.6,552.9L582.0,548.6L586.0,546.6L589.9,546.0L594.7,546.2L599.7,548.2L605.3,548.7L622.0,544.0L626.9,545.4L629.3,547.8L635.7,549.9L639.3,553.3L640.7,554.1L644.4,552.3L646.3,549.4L648.2,545.1L652.6,530.3L652.4,525.7L649.0,517.3L649.8,513.3L653.3,501.8L654.0,497.6L652.8,491.5L651.1,488.3L650.2,484.5L650.5,475.1L649.2,459.1L652.3,454.6L660.0,448.9L662.9,446.2L665.8,441.8L669.4,432.9L675.7,411.7L677.6,408.7L680.6,406.9L704.9,397.3L708.0,395.6L717.8,388.3L720.1,385.7L722.0,382.7L723.6,377.2L724.1,369.7L725.0,365.6L726.3,361.9L730.0,355.6L734.4,351.5L737.6,349.9L742.5,348.7L776.3,353.6L781.5,355.7L786.1,360.8L792.2,369.4L794.5,372.0L819.7,392.4L824.1,395.2L828.7,396.1L832.5,395.6L842.4,392.5L846.5,392.3L854.0,394.0L858.1,394.3L862.4,394.0L866.7,391.3L868.8,387.4L867.8,383.6L859.5,377.7L859.5,375.0L879.6,360.4L885.4,359.0L898.2,359.4L897.9,357.2L897.6,354.7L893.7,351.1L886.0,348.6L872.8,347.1L859.1,347.6L847.3,343.6L845.0,329.9L848.7,313.6L854.7,301.9L858.0,299.3L861.7,297.4L865.2,295.0L867.9,290.6L868.3,287.1L867.1,280.7L867.0,277.5L868.6,272.7L870.6,268.6L871.8,264.4L871.5,259.7L857.4,245.8L854.0,244.0L849.6,240.6L845.7,236.7L841.7,230.0L838.7,229.2L831.9,228.8L829.7,229.3L823.9,229.0L819.8,227.4L823.0,224.1L826.6,221.4L825.9,219.2L820.8,215.4L815.9,209.3L812.3,203.7L811.0,197.0L812.8,187.6L813.2,182.3L810.7,179.8L807.3,178.0L805.0,174.5L803.4,164.1L802.2,161.0L799.0,157.3L790.6,150.7L788.2,147.0L786.0,137.1L784.6,134.2L782.5,132.3L777.1,130.0L775.2,128.7L773.3,125.1L769.5,112.3L761.7,95.4L750.3,78.7L736.8,64.0L712.4,46.4L710.0,42.0L705.7,17.2L703.3,8.8L699.7,5.2L695.1,4.8L683.9,1.0L675.5,0.0L464.4,1.3L462.6,24.3L460.3,27.8L387.5,45.6L381.8,45.3L376.4,44.0L370.2,41.4L362.4,35.9L356.4,29.8L350.5,25.5L342.8,25.1L292.9,37.1L277.8,43.2L265.9,51.1L263.8,54.5L264.0,63.3L259.2,91.3L260.7,98.5L259.7,99.4L256.4,99.1L255.7,101.0L255.7,105.6L254.2,107.2L243.8,114.3L240.8,117.7L235.3,128.5L234.3,129.7L233.7,145.6L232.4,148.9L226.5,148.7L223.4,149.9L221.8,153.1L218.8,165.5L216.1,168.8L211.7,170.9L212.0,176.0L200.4,216.9L194.5,225.1L193.2,227.4L188.5,225.5L182.9,229.1L181.0,230.9L178.3,234.9L178.3,237.9L179.6,241.3L179.4,244.2L174.8,245.6L169.0,248.9L161.0,263.7L155.4,268.9L148.4,270.2L142.1,269.7L135.6,270.2L128.3,274.6L121.9,267.0L114.9,272.5L109.6,284.1L108.0,295.0L109.4,298.7L113.9,305.0L114.2,308.1L107.8,309.1L105.9,310.2L102.7,315.4L99.9,320.8L95.4,332.7L90.9,339.0L84.8,343.3L72.0,350.3L61.8,358.6L56.8,359.5L49.3,356.5L36.8,347.6L31.6,346.2L22.9,348.0L8.4,353.0L0.5,359.5L0.4,361.8L5.7,368.7L4.4,386.6L11.5,393.2L13.7,388.2L15.5,387.8L20.3,393.2L21.5,389.5L22.8,387.8L25.1,396.8L31.6,402.1L39.9,404.1L47.6,403.2L61.8,397.5L69.3,396.0L75.0,398.0L75.0,400.9L67.5,401.3L59.2,403.0L52.6,406.5L49.2,413.9L47.2,415.7L47.5,418.6L53.4,419.8L56.5,426.3L61.3,427.0L66.6,425.8L70.3,424.0L74.2,426.1L80.4,427.4L86.0,427.4L90.8,424.2L104.4,428.9L85.4,428.5L75.8,429.5L69.1,432.9L63.8,433.8L38.3,434.1L35.6,431.7L34.5,429.2L33.1,427.9L29.3,428.9L19.9,440.7L21.2,480.6L19.6,480.8L18.9,492.4L19.1,498.6L20.6,502.7L23.7,507.1L27.0,513.5L29.6,520.4L31.7,531.4L34.1,537.4L42.7,553.9L44.7,556.8L47.4,557.9L50.8,556.9L52.4,554.2L52.5,550.9L51.1,547.7L58.2,541.0L63.1,532.9L62.7,524.5L53.6,516.8L58.2,514.3L52.8,512.2L47.8,509.6L45.1,505.4L46.8,499.0L48.0,503.1L49.8,505.7L52.4,506.1L55.8,504.0L61.8,513.0L66.4,517.5L71.7,519.4L75.5,517.5L77.9,513.0L81.1,501.4L83.2,501.4L84.2,503.9L90.1,506.5L90.1,509.1L84.2,513.2L80.9,518.6L76.9,523.2L69.4,524.8L72.8,529.9L78.3,532.1L84.2,531.5L92.9,525.7L97.2,525.7L102.2,526.8L108.1,527.1L119.9,523.1L126.5,515.4L131.9,505.1L140.3,493.7L128.1,523.2L122.6,536.2L128.8,536.9L135.9,535.9L141.9,537.4L138.9,539.0L132.2,544.2L129.4,545.3L125.8,544.9L119.5,543.0L97.6,541.2L94.4,540.2L92.3,543.4L90.7,547.2L89.7,551.3L89.7,555.6L85.4,553.4L82.7,555.5L80.7,559.6L78.1,563.3L73.9,566.0L63.9,570.3L60.0,573.6L56.7,582.6L61.5,588.4L70.7,591.9L80.4,594.4L80.3,597.0L75.8,597.0L77.1,601.4L79.6,604.4L83.0,606.3L87.1,607.3L87.0,609.9L84.1,610.4L84.1,610.4Z " data-id="SL.NO" data-name="Northern" id="SL.NO"/>
utf-8utf-8<path d="M569.3,560.4L572.7,576.2L575.2,581.4L578.0,584.2L582.8,590.5L584.3,596.0L583.8,602.3L584.1,608.2L585.9,613.5L592.9,621.1L594.3,622.0L600.0,628.3L614.0,648.9L636.4,674.3L639.6,680.5L640.0,689.5L648.0,714.9L649.2,722.5L649.3,736.8L650.5,746.9L650.5,751.0L650.1,755.2L648.3,763.2L646.9,766.8L643.7,770.9L641.0,772.9L635.9,779.2L614.3,796.7L612.7,800.0L609.2,817.4L609.0,826.6L609.3,829.7L611.8,830.4L616.7,823.1L619.5,822.1L625.0,838.3L625.3,841.0L623.7,846.8L622.4,855.5L621.1,859.2L619.3,862.3L615.0,864.9L612.5,863.2L609.4,856.7L607.0,857.3L596.2,866.0L587.0,872.0L591.6,875.2L593.2,880.1L595.0,888.8L596.3,909.1L597.5,917.3L599.1,921.9L603.9,924.0L605.7,924.0L610.2,921.3L617.6,913.7L628.1,899.7L630.8,897.6L633.9,895.9L637.7,895.7L639.5,896.2L643.5,899.3L648.4,906.9L647.8,908.1L640.1,917.2L639.1,924.1L640.1,941.0L639.9,951.3L640.7,960.1L640.3,968.5L642.2,971.3L645.8,972.4L658.2,973.7L666.8,976.5L678.1,981.8L686.7,987.4L711.0,998.4L717.0,989.8L766.5,945.7L780.1,937.1L792.7,933.8L797.2,931.7L800.9,928.4L849.0,862.7L861.7,850.6L877.4,841.0L879.8,840.1L887.5,838.7L887.2,747.7L887.7,743.3L889.1,739.7L892.1,737.0L900.5,731.7L904.1,727.9L911.9,711.8L916.8,704.9L924.6,700.6L931.3,699.4L958.0,699.3L964.8,698.2L971.4,695.9L977.8,691.7L986.0,682.8L987.0,675.8L984.4,668.3L982.1,657.7L982.8,649.2L988.7,634.9L999.2,588.7L999.6,569.2L995.8,569.8L990.3,567.1L981.3,564.0L979.0,563.8L968.9,565.4L963.9,567.5L959.7,570.6L955.8,574.7L952.6,579.8L944.4,598.2L940.3,604.0L920.6,625.7L908.9,634.3L902.8,637.0L899.3,636.2L889.9,629.2L885.0,626.9L874.0,626.2L864.6,629.7L858.0,637.6L855.5,650.2L848.9,643.5L852.4,631.3L860.1,618.6L866.2,610.6L871.1,601.4L876.1,568.9L879.7,568.4L880.6,565.4L880.6,560.9L881.4,555.9L883.8,551.4L888.9,545.9L894.3,534.9L899.6,527.0L906.0,521.0L912.7,519.5L920.4,518.8L926.6,513.9L931.2,506.5L933.8,498.5L919.8,477.0L918.0,473.4L913.0,469.3L899.6,448.9L896.3,446.2L895.2,444.7L895.3,437.6L892.4,427.0L891.8,423.2L891.4,395.8L893.1,382.7L898.4,360.4L898.2,359.4L885.4,359.0L879.6,360.4L859.5,375.0L859.5,377.7L867.8,383.6L868.8,387.4L866.7,391.3L862.4,394.0L858.1,394.3L854.0,394.0L846.5,392.3L842.4,392.5L832.5,395.6L828.7,396.1L824.1,395.2L819.7,392.4L794.5,372.0L792.2,369.4L786.1,360.8L781.5,355.7L776.3,353.6L742.5,348.7L737.6,349.9L734.4,351.5L730.0,355.6L726.3,361.9L725.0,365.6L724.1,369.7L723.6,377.2L722.0,382.7L720.1,385.7L717.8,388.3L708.0,395.6L704.9,397.3L680.6,406.9L677.6,408.7L675.7,411.7L669.4,432.9L665.8,441.8L662.9,446.2L660.0,448.9L652.3,454.6L649.2,459.1L650.5,475.1L650.2,484.5L651.1,488.3L652.8,491.5L654.0,497.6L653.3,501.8L649.8,513.3L649.0,517.3L652.4,525.7L652.6,530.3L648.2,545.1L646.3,549.4L644.4,552.3L640.7,554.1L639.3,553.3L635.7,549.9L629.3,547.8L626.9,545.4L622.0,544.0L605.3,548.7L599.7,548.2L594.7,546.2L589.9,546.0L586.0,546.6L582.0,548.6L576.6,552.9L569.3,560.4Z " data-id="SL.EA" data-name="Eastern" id="SL.EA"/>
utf-8</g>
</svg>
