<?xml version="1.0" ?>
<!DOCTYPE svg
  PUBLIC '-//W3C//DTD SVG 1.1//EN'
  'http://www.w3.org/Graphics/SVG/1.1/DTD/svg11.dtd'>
<svg enable_background="new 0 0 1000 819" height="819px" pretty_print="True" style="stroke-linejoin: round; stroke:#000; fill: none;" version="1.1" viewBox="0 0 1000 819" width="1000px" xmlns="http://www.w3.org/2000/svg" xmlns:xlink="http://www.w3.org/1999/xlink">
utf-8<defs>
utf-8utf-8<style type="text/css">
<![CDATA[path { fill-rule: evenodd; }]]>utf-8utf-8</style>
utf-8</defs>
utf-8<metadata>
utf-8utf-8<views>
utf-8utf-8utf-8<view h="819.283490657" padding="0" w="1000">
utf-8utf-8utf-8utf-8<proj flip="auto" id="robinson" lon0="-15.5664248729"/>
utf-8utf-8utf-8utf-8<bbox h="73.55" w="89.88" x="-257.24" y="-279.89"/>
utf-8utf-8utf-8</view>
utf-8utf-8</views>
utf-8</metadata>
utf-8<g class="" id="provinces">
utf-8utf-8<path d="M347.8,620.3L330.1,616.1L325.0,615.9L321.1,617.5L317.3,619.8L312.4,621.6L309.7,621.9L298.7,620.7L296.6,620.7L289.3,623.4L277.9,624.6L276.0,625.7L275.3,628.4L274.1,657.8L273.0,658.7L266.9,658.6L262.6,658.6L261.0,661.5L258.1,665.0L257.4,668.8L260.8,670.5L261.7,673.2L254.8,688.4L247.3,701.5L248.0,708.8L246.4,716.8L243.3,721.0L241.8,732.5L241.1,734.2L240.9,738.4L241.7,740.5L242.3,744.5L244.2,746.1L247.4,752.6L252.0,754.3L251.9,757.7L255.9,760.8L262.2,762.4L265.0,760.6L269.0,760.8L271.4,764.1L274.3,763.3L282.2,757.7L293.8,759.8L298.7,762.3L297.7,767.9L302.7,770.0L304.9,768.5L313.3,760.1L314.6,758.3L318.6,754.5L319.2,748.7L317.2,739.8L317.3,729.0L318.4,726.2L320.6,724.9L327.7,723.8L331.7,720.5L334.2,719.3L336.8,719.7L339.3,720.9L341.7,721.0L344.3,718.0L343.8,723.2L341.7,725.2L338.6,724.2L335.3,720.6L331.9,725.8L329.6,726.9L322.6,727.0L320.7,728.3L319.2,733.0L319.7,738.8L321.1,744.5L322.6,748.7L321.2,750.2L324.9,753.2L324.4,755.8L319.6,759.6L314.5,766.8L311.4,770.3L303.9,773.7L300.1,774.1L298.6,773.6L295.6,770.3L294.5,767.1L293.3,765.5L290.6,765.8L288.3,764.0L285.3,765.5L281.9,763.8L279.6,765.3L277.8,767.7L275.9,769.0L270.2,770.4L266.4,766.6L255.9,766.4L254.0,766.0L250.1,762.0L250.1,762.0L250.3,768.0L252.6,773.5L255.5,778.4L257.0,782.4L262.7,791.8L290.9,793.7L296.5,792.4L338.1,770.8L347.4,763.3L357.4,758.2L367.0,750.6L371.2,748.4L375.9,747.6L383.9,747.7L382.8,736.2L384.3,730.8L386.8,724.7L387.0,709.4L384.2,704.0L380.9,699.6L380.5,693.0L381.1,688.1L370.2,679.9L369.4,669.5L366.2,659.7L363.9,655.3L356.2,653.6L350.5,649.3L349.7,642.7L351.7,635.6L353.3,628.5L353.8,620.3L347.8,620.3Z " data-id="SN.KD" data-name="Sédhiou" id="SN.KD"/>
utf-8utf-8<path d="M916.0,616.7L906.5,618.6L900.7,620.3L896.3,625.7L892.0,629.0L888.6,629.0L886.8,620.8L882.5,619.2L876.8,617.5L872.0,614.3L867.3,611.5L863.0,607.7L858.2,604.4L854.4,606.1L854.3,610.4L851.9,613.2L852.8,616.5L857.5,623.0L858.4,627.4L856.0,630.7L851.7,630.7L846.4,629.6L844.5,630.7L843.5,635.0L842.0,637.2L841.0,640.5L839.1,641.1L837.2,639.4L834.8,636.1L831.0,635.0L826.7,636.1L824.3,638.3L823.3,641.1L819.9,641.6L818.0,644.3L817.4,648.2L815.5,652.0L812.6,654.2L807.3,655.8L803.4,655.3L798.7,652.0L793.9,655.3L787.1,655.8L784.7,658.0L784.7,662.4L785.6,666.8L783.1,670.0L779.2,672.8L777.8,676.1L777.7,679.3L775.3,679.9L772.9,678.8L769.6,678.3L768.1,679.9L767.6,683.2L765.2,684.3L762.3,684.3L760.9,685.9L760.8,688.1L759.4,690.8L756.0,689.7L751.7,686.5L748.0,682.1L745.6,682.1L742.7,678.8L739.4,677.2L730.3,677.2L723.5,681.0L720.2,681.0L717.2,685.4L714.4,685.4L711.5,682.6L707.2,681.0L700.0,680.4L695.4,682.4L688.2,684.7L685.0,683.8L681.9,679.7L681.2,675.0L681.6,669.4L681.1,664.8L677.7,663.1L677.7,661.9L684.4,659.3L682.3,657.2L683.4,652.3L681.8,647.9L682.4,645.3L679.4,643.2L679.0,642.0L674.6,636.4L674.5,633.5L678.1,627.3L676.7,624.3L675.2,624.1L671.5,626.2L665.2,624.8L658.5,624.8L657.0,625.8L655.6,630.3L653.5,631.2L654.6,627.2L652.5,626.4L649.3,627.4L645.0,632.1L643.4,632.4L640.6,630.5L641.1,627.3L638.3,629.5L638.1,639.5L634.3,641.5L634.3,643.1L635.0,643.6L636.1,649.7L635.5,657.4L636.3,658.8L636.6,663.6L637.7,666.4L642.2,671.1L642.4,675.5L645.0,677.3L652.5,694.3L651.4,696.9L653.5,703.7L657.9,708.0L658.8,715.0L655.9,716.1L657.1,718.7L655.1,722.9L656.6,726.7L657.6,730.6L657.2,737.5L655.9,741.0L657.3,743.7L662.3,746.7L664.4,747.1L673.0,745.5L675.1,746.6L676.4,750.3L675.8,753.2L676.3,753.3L681.8,753.8L686.7,752.6L689.6,752.9L691.5,754.4L699.3,753.9L700.8,755.8L709.3,756.3L710.8,754.2L713.8,755.9L719.6,755.3L722.1,755.7L724.1,758.3L724.8,761.8L723.9,768.7L721.4,775.1L720.8,778.1L721.5,781.8L723.3,784.8L725.7,786.2L728.5,786.5L731.7,786.2L734.6,787.4L737.3,787.2L739.2,785.4L739.8,781.8L742.6,774.4L748.5,774.3L754.9,778.0L758.9,782.0L758.9,785.6L762.1,788.0L767.0,788.4L769.5,789.8L771.2,793.2L774.5,793.7L785.1,793.0L788.5,793.4L791.6,794.9L794.3,797.3L798.8,803.1L800.4,806.9L804.1,806.5L809.0,803.5L814.9,801.5L817.8,801.7L821.2,802.6L828.2,805.4L831.1,807.8L835.7,815.8L838.3,817.3L866.0,809.2L872.1,805.5L877.6,799.9L880.5,798.3L884.6,798.2L894.4,801.8L897.9,802.2L900.1,801.7L910.5,796.7L920.3,801.4L923.7,802.2L937.1,802.8L943.3,801.7L955.9,796.4L962.7,795.0L976.8,793.8L982.3,794.4L993.0,798.8L997.5,799.0L997.9,794.0L999.0,789.1L999.4,784.7L997.4,781.5L995.7,784.9L993.1,775.6L989.6,778.2L987.8,774.5L984.8,773.0L989.4,770.0L989.8,767.9L989.2,763.3L989.3,753.5L986.2,751.5L986.0,748.8L988.3,746.4L990.1,741.5L994.6,740.3L995.9,737.9L995.1,730.5L995.4,726.2L993.8,721.4L991.2,718.5L992.4,715.9L991.9,712.9L994.1,707.1L992.2,703.1L993.3,702.4L996.2,703.5L999.2,700.4L998.9,695.5L996.5,689.8L996.1,693.1L994.9,695.2L993.0,696.1L990.4,695.5L991.4,688.5L993.1,686.1L991.7,685.4L987.3,677.7L988.8,673.9L984.4,672.4L978.2,667.8L975.3,667.1L974.5,664.0L974.5,657.5L969.6,650.8L969.1,647.4L969.8,645.4L971.9,642.1L971.5,638.2L967.9,634.6L963.9,628.3L962.8,624.7L962.8,620.7L957.8,621.6L957.6,617.1L956.9,616.3L948.0,617.0L944.3,612.3L942.0,611.9L939.5,613.4L937.8,616.5L936.3,623.9L929.4,629.7L925.6,628.8L922.1,621.5L916.4,618.7L916.0,616.7Z " data-id="SN.TC" data-name="Kédougou" id="SN.TC"/>
utf-8utf-8<path d="M166.8,165.1L193.4,164.4L199.6,162.7L203.2,159.8L213.1,157.8L218.3,146.6L220.0,145.1L228.4,139.4L228.9,137.5L230.9,134.6L268.7,109.6L272.7,104.0L273.3,102.2L282.1,95.0L284.2,96.4L287.5,99.9L320.1,142.3L321.8,143.5L347.4,141.6L348.9,129.1L442.0,129.3L444.7,130.4L457.6,138.2L466.2,137.5L484.2,151.7L492.2,165.2L499.1,176.1L512.6,184.2L524.9,190.9L531.3,196.3L555.8,175.4L582.3,151.7L600.9,133.5L603.4,126.7L620.0,119.3L627.1,103.6L626.6,101.6L628.4,96.0L628.8,93.6L624.2,94.0L614.8,104.4L612.1,106.1L608.2,106.4L606.7,105.4L603.7,100.5L602.4,95.5L598.1,90.6L596.7,89.7L590.4,87.6L587.7,86.0L587.1,83.0L587.3,76.4L585.7,74.1L586.7,67.1L579.7,62.5L575.9,57.6L570.5,54.2L561.0,44.5L555.7,37.4L550.7,33.2L548.0,29.2L541.0,27.6L536.3,19.7L530.0,20.3L528.3,18.1L529.2,14.6L527.4,10.2L517.2,5.7L506.5,10.2L501.3,10.9L494.7,9.4L493.0,9.5L486.1,11.6L482.6,11.3L478.0,8.9L475.0,8.5L467.6,10.4L439.9,8.1L434.9,9.5L431.9,8.9L426.9,1.0L425.0,0.0L419.7,2.9L418.6,4.6L417.6,8.4L416.8,9.6L413.4,11.1L412.3,10.7L407.9,4.9L405.6,4.1L403.3,4.8L401.8,6.7L401.4,9.1L402.4,11.6L405.4,15.6L403.6,18.8L400.1,20.3L382.6,23.3L380.0,23.4L372.3,22.1L367.1,22.3L364.5,22.9L357.6,26.0L352.9,26.7L350.9,25.8L347.5,20.7L345.0,20.5L342.6,21.7L340.6,23.6L336.5,29.9L332.9,32.6L330.5,32.8L323.6,31.3L321.1,31.7L319.1,33.0L315.5,36.7L308.3,39.3L295.3,35.8L288.0,33.1L285.4,33.0L280.0,33.8L274.4,32.2L272.1,32.5L265.5,35.7L259.9,34.6L256.3,36.4L252.4,37.0L248.8,36.5L245.5,34.8L238.3,25.9L236.2,25.5L232.4,26.8L227.5,30.6L222.2,31.7L216.8,30.5L213.1,31.3L209.6,33.7L206.5,36.9L204.2,40.4L202.9,43.9L201.9,51.3L194.5,82.9L192.7,87.0L190.2,88.8L184.1,90.4L181.7,92.7L180.4,96.4L179.4,109.0L176.5,116.5L174.0,124.8L173.0,126.9L172.2,147.2L170.4,157.5L166.6,164.5L166.8,165.1Z " data-id="SN.SL" data-name="Saint-Louis" id="SN.SL"/>
utf-8utf-8<path d="M35.8,345.2L27.7,352.4L0.6,360.4L3.1,363.1L13.8,378.2L15.9,379.7L18.1,375.8L16.0,373.3L18.2,372.1L19.5,369.4L17.5,368.8L16.2,367.0L19.9,364.1L24.0,363.8L28.6,364.4L34.0,364.3L35.1,365.7L41.9,369.8L48.0,371.2L51.2,372.9L54.0,375.0L58.6,379.8L63.3,387.3L66.9,361.7L66.7,360.0L63.2,351.8L62.3,343.0L58.9,334.4L35.8,345.2Z " data-id="SN.DK" data-name="Dakar" id="SN.DK"/>
utf-8utf-8<path d="M229.5,323.3L228.1,324.4L220.2,328.9L212.2,328.1L210.4,322.5L206.0,320.2L200.6,315.3L199.2,315.0L194.2,316.4L190.1,315.5L186.8,313.0L147.3,325.6L144.2,327.4L141.6,333.0L140.8,337.2L146.6,344.2L146.4,348.9L145.8,351.9L147.2,356.6L148.8,357.4L151.0,361.6L150.4,363.6L151.5,368.7L153.0,369.5L154.5,375.4L153.6,377.2L149.3,383.1L152.2,388.1L160.3,392.2L163.8,393.4L165.8,389.9L167.9,389.1L175.2,388.4L189.0,389.2L190.6,389.6L197.2,393.4L205.7,391.4L212.8,392.0L221.9,396.4L223.6,398.4L227.5,399.9L245.2,403.5L247.5,403.4L261.2,401.8L266.7,400.3L271.5,397.7L280.5,388.0L281.9,384.1L282.9,368.3L287.9,363.3L295.9,369.9L299.3,369.4L303.8,367.7L306.9,368.1L310.6,372.5L315.8,375.1L337.2,384.6L341.0,388.0L343.1,394.5L348.1,388.5L351.9,371.4L346.1,367.5L342.0,362.3L341.0,358.3L340.4,347.1L338.0,345.0L335.9,344.8L325.1,346.0L321.1,344.7L317.6,342.2L313.1,341.8L304.5,342.1L300.2,343.5L297.4,341.0L296.6,336.1L295.5,333.5L292.8,331.4L288.7,329.4L287.0,327.5L286.1,324.7L282.2,321.3L281.7,315.1L279.3,314.6L239.3,314.9L235.5,315.9L230.2,321.0L229.5,323.3Z " data-id="SN.DB" data-name="Diourbel" id="SN.DB"/>
utf-8utf-8<path d="M201.4,473.1L198.7,471.5L188.2,471.3L182.9,474.5L178.9,471.6L176.9,472.4L174.3,476.0L169.1,477.7L166.7,479.9L162.4,485.7L159.7,488.3L152.2,493.4L153.8,495.4L155.8,495.9L160.1,494.6L155.7,497.7L154.4,499.5L154.4,503.6L150.7,502.1L148.4,503.7L146.6,506.4L144.2,508.7L144.5,506.2L142.9,504.7L140.7,503.9L133.8,503.4L131.9,504.2L126.4,510.6L126.2,513.8L126.6,519.8L128.2,525.2L127.1,527.6L126.8,531.5L127.5,535.2L131.1,537.6L131.8,543.7L133.4,544.6L134.7,543.3L136.4,539.9L140.3,536.8L143.8,530.3L147.0,529.2L153.3,527.7L155.0,525.2L158.4,525.9L160.6,522.8L162.3,518.2L163.8,510.5L165.3,506.9L169.0,501.1L168.7,504.1L164.8,521.4L163.9,523.9L166.3,525.3L167.0,529.0L167.2,533.7L168.3,538.0L165.9,538.4L164.1,536.3L163.0,532.9L162.8,529.2L157.1,530.3L158.3,534.2L153.9,531.6L152.8,534.2L146.9,541.9L144.5,550.8L143.0,558.1L143.7,561.5L146.5,564.9L149.6,566.0L152.8,565.0L155.4,562.3L156.6,558.4L159.0,558.6L160.8,556.1L161.6,552.5L161.2,549.5L164.5,550.0L164.8,552.2L163.2,555.1L161.1,557.3L164.5,559.7L160.3,563.3L156.1,565.7L153.3,568.6L153.1,573.8L155.5,578.5L233.2,578.8L231.8,573.9L229.7,570.6L224.5,565.3L221.8,558.9L221.1,552.8L220.5,550.4L210.6,541.3L208.5,537.9L208.4,536.3L209.1,531.0L212.5,527.6L215.2,523.4L215.9,519.1L214.3,506.4L208.0,497.7L208.5,494.8L210.3,492.0L211.0,486.2L210.4,482.1L206.0,476.5L201.4,473.1Z M163.8,393.4L162.4,399.0L155.9,410.6L147.9,416.9L146.3,419.1L136.5,422.0L127.8,448.3L125.3,459.0L127.6,461.8L126.8,464.3L122.1,470.7L123.4,473.2L122.5,475.1L117.8,476.7L116.5,478.3L117.9,481.4L120.4,490.4L121.1,495.8L121.4,531.6L122.4,531.6L122.0,513.9L122.9,508.7L123.6,507.0L126.9,502.9L128.7,497.2L131.6,493.6L131.8,492.0L129.9,489.5L136.2,488.2L138.0,487.4L140.2,483.7L142.4,483.0L137.7,488.6L135.0,489.5L134.8,490.8L130.8,498.5L134.8,498.9L138.3,500.3L141.7,501.0L145.4,499.7L147.1,497.8L149.2,493.5L152.6,490.0L159.4,486.3L163.7,478.0L165.2,473.4L166.6,472.8L171.8,474.1L173.9,472.8L172.1,470.9L171.6,468.1L172.6,465.4L175.2,463.9L174.9,468.0L179.2,469.8L189.4,466.7L191.1,460.4L199.6,446.8L204.1,440.9L207.6,438.3L212.9,437.7L222.8,435.4L231.2,434.5L233.5,436.5L247.3,439.1L250.7,437.8L253.8,434.3L257.2,432.6L277.3,433.5L282.5,429.8L286.9,426.1L290.8,420.9L297.3,412.7L301.5,412.3L305.3,410.1L316.5,400.2L337.0,396.3L343.1,394.5L341.0,388.0L337.2,384.6L315.8,375.1L310.6,372.5L306.9,368.1L303.8,367.7L299.3,369.4L295.9,369.9L287.9,363.3L282.9,368.3L281.9,384.1L280.5,388.0L271.5,397.7L266.7,400.3L261.2,401.8L247.5,403.4L245.2,403.5L227.5,399.9L223.6,398.4L221.9,396.4L212.8,392.0L205.7,391.4L197.2,393.4L190.6,389.6L189.0,389.2L175.2,388.4L167.9,389.1L165.8,389.9L163.8,393.4Z " data-id="SN.FK" data-name="Fatick" id="SN.FK"/>
utf-8utf-8<path d="M484.2,151.7L466.2,137.5L457.6,138.2L444.7,130.4L442.0,129.3L348.9,129.1L347.4,141.6L321.8,143.5L320.1,142.3L287.5,99.9L284.2,96.4L282.1,95.0L273.3,102.2L272.7,104.0L268.7,109.6L230.9,134.6L228.9,137.5L228.4,139.4L220.0,145.1L218.3,146.6L213.1,157.8L203.2,159.8L199.6,162.7L193.4,164.4L166.8,165.1L167.5,167.1L167.8,169.0L167.0,170.9L144.9,210.5L133.8,226.2L139.5,231.1L140.9,236.9L140.1,240.5L137.0,246.9L135.8,251.3L134.8,259.1L135.2,262.7L136.1,264.7L140.2,266.8L144.2,273.7L151.3,279.5L151.8,282.3L150.7,285.2L150.8,288.2L151.6,289.8L154.7,291.4L158.2,287.5L159.1,285.9L166.6,277.4L169.7,269.1L178.3,256.8L180.2,254.9L182.5,254.6L190.1,256.8L197.0,256.0L199.1,258.9L199.9,267.8L200.9,271.3L201.6,271.7L205.4,269.6L206.6,270.7L209.6,278.1L210.0,280.7L209.7,291.2L212.0,297.4L216.7,303.8L218.1,307.3L220.5,315.2L223.0,317.3L226.6,318.9L230.2,321.0L235.5,315.9L239.3,314.9L279.3,314.6L281.7,315.1L282.2,321.3L286.1,324.7L287.0,327.5L288.7,329.4L292.8,331.4L295.5,333.5L296.6,336.1L297.4,341.0L300.2,343.5L304.5,342.1L313.1,341.8L317.6,342.2L321.1,344.7L325.1,346.0L335.9,344.8L338.0,345.0L340.4,347.1L341.0,358.3L342.0,362.3L346.1,367.5L351.9,371.4L364.8,380.2L372.9,383.6L397.7,389.1L403.3,389.8L407.1,388.8L410.3,387.4L424.9,377.5L427.7,376.1L430.4,375.4L432.4,377.1L436.0,382.7L442.3,377.5L445.0,362.7L452.2,357.3L458.3,343.7L451.5,326.2L447.1,307.9L458.4,303.2L476.8,300.5L489.8,296.2L482.9,292.3L486.2,272.1L491.9,246.4L478.3,248.4L451.4,232.8L457.5,222.7L459.3,188.9L472.4,183.5L479.0,178.8L492.2,165.2L484.2,151.7Z " data-id="SN.LG" data-name="Louga" id="SN.LG"/>
utf-8utf-8<path d="M627.1,103.6L620.0,119.3L603.4,126.7L600.9,133.5L582.3,151.7L555.8,175.4L531.3,196.3L524.9,190.9L512.6,184.2L499.1,176.1L492.2,165.2L479.0,178.8L472.4,183.5L459.3,188.9L457.5,222.7L451.4,232.8L478.3,248.4L491.9,246.4L486.2,272.1L482.9,292.3L489.8,296.2L476.8,300.5L458.4,303.2L447.1,307.9L451.5,326.2L458.3,343.7L452.2,357.3L445.0,362.7L442.3,377.5L436.0,382.7L439.0,385.6L443.3,387.9L469.7,396.7L473.3,399.0L473.4,403.5L473.1,406.3L493.4,400.9L501.3,394.7L506.3,388.3L509.3,385.4L511.8,384.0L518.5,381.6L525.5,389.0L526.9,392.5L532.5,396.7L603.0,426.7L611.0,428.1L655.7,427.3L657.5,426.3L700.8,392.1L703.9,390.8L747.8,399.8L754.8,399.7L779.4,396.2L781.4,395.1L783.5,392.6L797.1,369.9L810.1,335.0L809.8,327.6L808.7,324.6L791.9,299.3L791.6,298.0L791.5,298.0L787.1,295.9L781.1,289.4L777.1,287.9L776.3,284.3L777.3,279.5L776.0,275.3L774.6,274.1L771.2,273.6L767.7,274.4L763.3,272.6L759.7,268.4L758.7,266.1L760.4,264.7L766.0,265.4L768.7,264.9L769.6,262.3L768.6,259.3L766.5,256.8L757.0,249.5L755.0,247.1L753.7,244.2L753.1,241.2L753.2,235.0L748.1,220.3L745.5,219.0L742.9,219.4L735.8,224.5L733.5,224.8L728.5,223.4L727.6,222.6L726.8,217.7L727.8,210.6L727.5,208.0L724.6,204.1L722.6,202.7L717.7,201.1L714.7,198.7L711.2,198.0L703.9,199.0L702.4,194.4L703.0,189.6L705.6,185.4L705.0,181.1L703.2,178.1L700.9,175.7L698.4,174.0L696.5,171.8L696.3,170.2L697.6,165.5L697.6,161.9L696.9,158.7L695.5,155.8L692.6,152.0L691.7,148.1L692.3,144.9L691.2,140.4L687.1,136.9L683.5,131.5L681.4,125.3L680.7,119.1L679.7,117.8L675.3,114.5L672.5,109.9L670.0,109.8L664.1,112.4L662.4,111.1L662.8,108.2L665.6,102.6L665.3,100.0L664.3,99.7L660.2,101.1L651.6,103.1L646.6,105.5L640.8,106.2L634.1,108.9L630.9,106.7L630.3,105.4L627.9,104.1L627.1,103.6Z " data-id="SN.SL" data-name="Matam" id="SN.SL"/>
utf-8utf-8<path d="M226.6,318.9L223.0,317.3L220.5,315.2L218.1,307.3L216.7,303.8L212.0,297.4L209.7,291.2L210.0,280.7L209.6,278.1L206.6,270.7L205.4,269.6L201.6,271.7L200.9,271.3L199.9,267.8L199.1,258.9L197.0,256.0L190.1,256.8L182.5,254.6L180.2,254.9L178.3,256.8L169.7,269.1L166.6,277.4L159.1,285.9L158.2,287.5L154.7,291.4L151.6,289.8L150.8,288.2L150.7,285.2L151.8,282.3L151.3,279.5L144.2,273.7L140.2,266.8L136.1,264.7L135.2,262.7L134.8,259.1L135.8,251.3L137.0,246.9L140.1,240.5L140.9,236.9L139.5,231.1L133.8,226.2L133.2,227.2L109.6,271.8L98.0,285.8L92.6,294.3L66.0,328.7L60.3,333.7L58.9,334.4L62.3,343.0L63.2,351.8L66.7,360.0L66.9,361.7L63.3,387.3L64.9,389.9L69.0,402.7L74.6,412.4L75.4,414.8L77.2,417.0L88.7,423.1L93.7,428.8L95.7,432.2L96.4,435.2L95.0,442.9L95.2,445.4L98.4,447.3L101.4,450.8L103.7,456.3L104.9,466.3L105.7,469.0L107.3,470.7L111.5,471.7L113.6,472.8L115.0,474.8L116.5,478.3L117.8,476.7L122.5,475.1L123.4,473.2L122.1,470.7L126.8,464.3L127.6,461.8L125.3,459.0L127.8,448.3L136.5,422.0L146.3,419.1L147.9,416.9L155.9,410.6L162.4,399.0L163.8,393.4L160.3,392.2L152.2,388.1L149.3,383.1L153.6,377.2L154.5,375.4L153.0,369.5L151.5,368.7L150.4,363.6L151.0,361.6L148.8,357.4L147.2,356.6L145.8,351.9L146.4,348.9L146.6,344.2L140.8,337.2L141.6,333.0L144.2,327.4L147.3,325.6L186.8,313.0L190.1,315.5L194.2,316.4L199.2,315.0L200.6,315.3L206.0,320.2L210.4,322.5L212.2,328.1L220.2,328.9L228.1,324.4L229.5,323.3L230.2,321.0L226.6,318.9Z " data-id="SN.TH" data-name="Thiès" id="SN.TH"/>
utf-8utf-8<path d="M353.8,620.3L353.3,628.5L351.7,635.6L349.7,642.7L350.5,649.3L356.2,653.6L363.9,655.3L366.2,659.7L369.4,669.5L370.2,679.9L381.1,688.1L380.5,693.0L380.9,699.6L384.2,704.0L387.0,709.4L386.8,724.7L384.3,730.8L382.8,736.2L383.9,747.7L428.7,747.9L615.6,748.8L668.5,750.9L675.8,753.2L676.4,750.3L675.1,746.6L673.0,745.5L664.4,747.1L662.3,746.7L657.3,743.7L655.9,741.0L657.2,737.5L657.6,730.6L656.6,726.7L655.1,722.9L657.1,718.7L655.9,716.1L658.8,715.0L657.9,708.0L653.5,703.7L651.4,696.9L652.5,694.3L645.0,677.3L642.4,675.5L642.2,671.1L637.7,666.4L636.6,663.6L636.3,658.8L635.5,657.4L636.1,649.7L635.0,643.6L634.3,643.1L632.3,643.1L630.1,642.0L628.7,636.9L624.1,634.2L623.3,632.0L623.9,627.4L621.2,624.3L623.3,619.2L619.7,618.3L615.8,619.2L611.6,618.7L610.5,616.4L612.6,612.4L612.9,608.1L617.2,602.5L616.9,600.7L611.9,598.9L605.8,600.5L604.7,599.5L606.7,590.3L605.7,588.1L600.7,588.6L599.6,591.2L592.6,594.0L593.7,595.1L599.0,599.1L602.8,607.9L602.0,617.4L597.3,625.3L589.1,629.3L576.8,630.5L570.2,632.4L563.6,632.5L556.6,635.4L553.7,635.3L551.3,636.5L543.3,643.1L539.7,645.1L535.0,645.3L526.2,643.4L516.9,644.4L512.5,644.0L508.2,642.6L502.3,639.2L496.0,632.3L493.9,631.6L488.8,631.4L486.4,630.6L478.2,622.8L476.3,622.1L471.0,623.6L464.9,624.4L459.0,623.6L453.6,621.0L449.1,616.5L445.9,611.3L444.1,610.1L437.8,608.3L432.4,604.6L430.0,603.8L423.7,603.2L418.2,601.6L399.6,588.9L392.4,581.2L387.9,578.0L384.2,579.6L376.9,587.8L374.6,592.0L373.8,603.5L372.7,608.7L369.3,613.5L364.5,617.0L359.2,619.2L353.8,620.3Z " data-id="SN.KD" data-name="Kolda" id="SN.KD"/>
utf-8utf-8<path d="M245.8,758.2L243.0,756.4L239.4,756.3L234.8,759.4L232.3,760.2L228.3,760.5L225.4,761.3L212.6,766.6L209.5,761.2L203.8,764.7L200.6,764.3L197.4,763.0L193.6,762.8L190.7,764.5L186.6,770.0L183.4,771.7L180.6,771.4L175.2,768.6L170.3,767.1L164.9,763.6L161.7,762.8L158.8,763.7L157.1,766.0L156.9,768.9L154.7,767.3L152.5,760.2L149.5,756.3L143.2,761.4L140.4,766.2L138.6,767.9L133.1,771.7L128.0,771.2L124.4,771.4L116.2,776.8L114.6,780.5L113.0,782.1L112.6,783.8L112.5,791.5L113.1,793.9L114.8,796.3L118.5,800.4L121.9,803.6L122.6,807.4L124.3,812.3L128.1,809.4L134.1,807.8L156.3,809.4L159.3,809.3L167.9,806.9L176.1,806.8L181.1,804.6L205.7,789.8L207.4,789.4L214.0,791.6L216.6,790.1L229.0,787.7L234.8,788.3L245.0,792.1L248.1,792.8L261.1,791.7L262.7,791.8L257.0,782.4L255.5,778.4L252.6,773.5L250.3,768.0L250.1,762.0L245.8,758.2Z M252.1,658.5L135.8,657.3L130.1,658.7L127.1,665.0L122.7,671.5L122.4,675.8L123.3,680.4L122.9,685.4L121.1,693.1L120.7,697.0L121.7,705.9L121.0,708.2L115.0,717.9L113.6,722.5L114.0,725.4L116.9,723.1L118.1,723.1L118.9,726.4L118.1,729.2L114.5,734.7L115.4,739.4L114.4,740.9L116.4,741.4L118.3,739.9L121.8,735.3L124.7,734.2L128.0,735.0L130.3,737.0L130.0,739.8L124.4,737.7L120.1,741.3L117.4,747.9L116.4,754.5L116.6,760.8L117.8,765.6L120.8,767.6L126.3,765.5L133.5,758.8L138.5,756.4L138.9,753.4L137.8,746.8L138.1,742.8L138.8,740.4L146.0,732.1L147.2,725.7L148.1,732.2L145.9,736.5L142.6,740.1L140.2,745.0L142.0,750.8L143.9,751.2L146.5,750.5L151.3,745.0L151.9,748.7L157.9,754.5L160.0,757.7L161.2,757.7L162.6,742.3L164.0,747.2L165.5,748.6L168.0,748.7L168.0,750.1L163.8,753.3L164.3,756.5L167.9,758.3L168.9,760.8L171.4,763.1L176.8,766.6L183.4,769.0L184.9,767.8L187.5,762.8L191.3,760.6L193.1,760.2L198.3,761.4L207.0,758.9L213.2,758.9L217.1,760.0L225.0,756.4L231.7,755.2L236.3,751.9L237.1,745.6L237.8,744.4L239.9,738.4L240.9,738.4L241.1,734.2L241.8,732.5L243.3,721.0L246.4,716.8L248.0,708.8L247.3,701.5L254.8,688.4L261.7,673.2L260.8,670.5L257.4,668.8L258.1,665.0L261.0,661.5L262.6,658.6L252.1,658.5Z " data-id="SN.ZG" data-name="Ziguinchor" id="SN.ZG"/>
utf-8utf-8<path d="M791.6,298.0L791.9,299.3L808.7,324.6L809.8,327.6L810.1,335.0L797.1,369.9L783.5,392.6L781.4,395.1L779.4,396.2L754.8,399.7L747.8,399.8L703.9,390.8L700.8,392.1L657.5,426.3L655.7,427.3L611.0,428.1L603.0,426.7L532.5,396.7L526.9,392.5L525.5,389.0L518.5,381.6L511.8,384.0L509.3,385.4L506.3,388.3L501.3,394.7L493.4,400.9L473.1,406.3L472.4,441.4L475.9,453.5L477.9,457.0L478.7,460.3L479.2,474.4L480.5,482.7L480.8,489.5L479.2,497.2L477.8,499.6L473.9,501.8L473.2,505.1L473.2,508.4L472.0,512.9L462.3,523.2L457.6,527.0L441.7,531.4L434.4,542.8L433.7,545.2L436.3,547.6L438.4,550.8L439.8,554.2L442.7,566.3L443.9,567.8L450.5,572.3L452.8,573.2L454.8,572.5L464.9,566.2L471.6,564.3L478.3,564.8L485.2,568.5L488.3,571.3L490.5,574.4L492.0,578.0L494.0,586.0L495.1,588.5L509.7,601.1L513.6,603.1L516.6,603.6L519.4,602.8L529.1,599.0L538.2,592.7L541.3,591.2L550.8,588.8L558.4,584.5L568.0,583.5L573.3,580.4L575.5,580.0L578.9,580.6L583.0,582.2L586.9,584.5L589.6,587.0L592.3,593.7L592.6,594.0L599.6,591.2L600.7,588.6L605.7,588.1L606.7,590.3L604.7,599.5L605.8,600.5L611.9,598.9L616.9,600.7L617.2,602.5L612.9,608.1L612.6,612.4L610.5,616.4L611.6,618.7L615.8,619.2L619.7,618.3L623.3,619.2L621.2,624.3L623.9,627.4L623.3,632.0L624.1,634.2L628.7,636.9L630.1,642.0L632.3,643.1L634.3,643.1L634.3,641.5L638.1,639.5L638.3,629.5L641.1,627.3L640.6,630.5L643.4,632.4L645.0,632.1L649.3,627.4L652.5,626.4L654.6,627.2L653.5,631.2L655.6,630.3L657.0,625.8L658.5,624.8L665.2,624.8L671.5,626.2L675.2,624.1L676.7,624.3L678.1,627.3L674.5,633.5L674.6,636.4L679.0,642.0L679.4,643.2L682.4,645.3L681.8,647.9L683.4,652.3L682.3,657.2L684.4,659.3L677.7,661.9L677.7,663.1L681.1,664.8L681.6,669.4L681.2,675.0L681.9,679.7L685.0,683.8L688.2,684.7L695.4,682.4L700.0,680.4L707.2,681.0L711.5,682.6L714.4,685.4L717.2,685.4L720.2,681.0L723.5,681.0L730.3,677.2L739.4,677.2L742.7,678.8L745.6,682.1L748.0,682.1L751.7,686.5L756.0,689.7L759.4,690.8L760.8,688.1L760.9,685.9L762.3,684.3L765.2,684.3L767.6,683.2L768.1,679.9L769.6,678.3L772.9,678.8L775.3,679.9L777.7,679.3L777.8,676.1L779.2,672.8L783.1,670.0L785.6,666.8L784.7,662.4L784.7,658.0L787.1,655.8L793.9,655.3L798.7,652.0L803.4,655.3L807.3,655.8L812.6,654.2L815.5,652.0L817.4,648.2L818.0,644.3L819.9,641.6L823.3,641.1L824.3,638.3L826.7,636.1L831.0,635.0L834.8,636.1L837.2,639.4L839.1,641.1L841.0,640.5L842.0,637.2L843.5,635.0L844.5,630.7L846.4,629.6L851.7,630.7L856.0,630.7L858.4,627.4L857.5,623.0L852.8,616.5L851.9,613.2L854.3,610.4L854.4,606.1L858.2,604.4L863.0,607.7L867.3,611.5L872.0,614.3L876.8,617.5L882.5,619.2L886.8,620.8L888.6,629.0L892.0,629.0L896.3,625.7L900.7,620.3L906.5,618.6L916.0,616.7L918.5,606.7L918.9,603.4L917.8,601.2L913.3,599.4L909.9,594.2L900.6,586.5L897.6,582.7L894.1,576.4L892.1,569.7L888.9,562.4L886.7,558.8L884.5,556.6L898.5,547.9L904.1,541.6L906.8,533.3L907.8,525.8L907.9,522.0L907.0,518.5L904.2,514.7L901.2,512.1L898.5,509.1L897.0,504.3L897.1,496.6L900.9,482.3L902.2,474.7L901.9,470.6L896.1,454.9L894.6,452.2L892.3,450.5L885.9,447.9L881.1,441.1L883.5,440.1L884.3,437.8L883.2,435.4L868.0,429.1L866.0,428.6L866.4,420.6L866.0,416.8L864.2,408.6L863.9,404.7L864.9,401.5L869.2,398.3L870.3,392.1L871.5,390.1L874.7,386.7L875.7,385.0L875.9,381.9L871.8,379.3L871.5,377.3L873.5,372.4L866.6,370.5L864.4,365.8L861.2,362.6L860.0,357.1L851.1,349.3L840.9,343.9L838.1,341.2L832.7,333.9L830.5,332.4L830.4,330.4L826.9,315.6L823.0,310.9L819.2,309.9L814.7,306.4L805.8,300.5L801.0,295.6L798.5,296.0L793.3,297.7L791.6,298.0Z " data-id="SN.TC" data-name="Tambacounda" id="SN.TC"/>
utf-8</g>
</svg>
