<?xml version="1.0" ?>
<!DOCTYPE svg
  PUBLIC '-//W3C//DTD SVG 1.1//EN'
  'http://www.w3.org/Graphics/SVG/1.1/DTD/svg11.dtd'>
<svg enable_background="new 0 0 1000 1517" height="1517px" pretty_print="True" style="stroke-linejoin: round; stroke:#000; fill: none;" version="1.1" viewBox="0 0 1000 1517" width="1000px" xmlns="http://www.w3.org/2000/svg" xmlns:xlink="http://www.w3.org/1999/xlink">
utf-8<defs>
utf-8utf-8<style type="text/css">
<![CDATA[path { fill-rule: evenodd; }]]>utf-8utf-8</style>
utf-8</defs>
utf-8<metadata>
utf-8utf-8<views>
utf-8utf-8utf-8<view h="1517.49842697" padding="0" w="1000">
utf-8utf-8utf-8utf-8<proj flip="auto" id="robinson" lon0="49.9210276019"/>
utf-8utf-8utf-8utf-8<bbox h="229.48" w="151.32" x="606.5" y="-201.04"/>
utf-8utf-8utf-8</view>
utf-8utf-8</views>
utf-8</metadata>
utf-8<g class="" id="provinces">
utf-8utf-8<path d="M762.0,268.7L773.8,267.9L777.3,315.5L781.1,342.1L788.4,356.5L799.4,365.3L815.3,376.4L837.8,377.5L847.7,383.1L854.2,405.2L858.9,397.5L862.5,390.8L874.3,393.0L886.0,404.8L892.0,395.5L894.3,389.4L898.8,385.9L900.5,379.8L900.0,373.0L900.6,370.7L905.0,364.3L906.4,360.5L907.9,351.3L909.1,346.8L910.7,343.4L913.0,339.8L915.9,336.3L926.2,326.8L928.9,322.9L930.2,318.8L930.2,316.3L929.2,309.3L929.7,307.6L935.2,299.4L939.2,297.4L941.1,295.6L946.8,284.5L947.2,278.2L944.6,271.1L943.7,265.2L943.6,261.9L945.3,258.9L945.8,252.2L945.7,245.9L947.5,240.6L949.8,230.7L949.4,229.5L951.2,217.6L949.9,214.1L949.2,209.1L951.8,200.7L950.4,194.3L951.0,187.5L952.5,184.0L961.0,178.0L968.0,175.2L982.6,173.1L984.2,173.7L985.9,178.4L988.7,179.0L996.0,179.6L995.6,178.0L998.0,176.4L999.7,170.7L998.3,169.7L997.4,167.2L992.6,167.1L991.7,167.7L987.4,167.1L980.2,162.1L975.7,157.9L976.8,160.3L978.1,167.4L980.4,169.2L980.6,171.3L977.6,170.9L962.9,174.2L961.0,173.8L960.1,172.2L960.8,170.2L962.5,168.5L967.9,166.9L969.2,163.2L968.5,158.4L969.0,156.4L973.5,155.2L974.1,154.0L971.5,145.3L969.4,125.6L967.8,110.3L968.0,107.7L972.1,96.6L974.4,94.2L972.8,92.0L968.6,91.7L964.1,88.7L962.6,83.6L963.0,79.0L962.9,71.7L966.1,62.3L966.8,57.4L966.0,53.6L971.5,45.4L974.4,42.2L975.9,39.1L977.6,37.3L978.2,34.0L977.4,28.8L978.9,25.5L979.7,20.9L981.0,17.3L976.5,15.7L970.1,14.8L964.8,12.2L957.1,12.2L955.2,11.5L949.2,6.3L939.1,5.1L932.2,0.0L925.2,2.0L921.2,4.0L917.1,3.8L915.8,5.4L909.6,9.0L906.7,14.4L905.5,24.1L898.6,33.1L896.8,34.4L892.4,35.5L884.6,42.8L882.7,44.3L878.5,45.5L875.9,47.2L872.4,47.1L869.6,49.7L864.0,53.2L862.2,52.9L853.3,53.2L852.0,52.5L845.5,55.5L842.7,58.0L838.2,58.8L829.6,57.7L822.6,58.6L818.2,58.4L814.3,59.3L813.0,61.2L811.0,65.9L807.8,67.3L802.8,70.7L799.4,71.8L793.2,72.5L790.0,71.3L787.7,74.4L784.0,76.3L771.3,78.9L758.6,81.7L755.5,94.4L757.0,131.7L762.0,268.6L762.0,268.7Z " data-id="SO.BR" data-name="Bari" id="SO.BR"/>
utf-8utf-8<path d="M346.8,782.8L290.2,779.1L286.6,780.0L278.2,783.4L247.4,791.5L207.8,813.0L192.5,827.4L189.9,833.4L188.3,841.1L186.9,844.7L184.1,848.4L186.1,852.6L207.3,892.5L211.3,901.3L209.7,921.2L238.2,932.3L254.7,927.9L264.3,915.7L270.9,901.3L274.8,898.0L283.5,893.6L290.4,893.6L313.0,901.3L324.1,927.9L326.2,932.3L326.5,952.3L323.6,957.8L336.4,966.7L356.0,965.5L360.9,967.8L372.6,965.5L370.9,917.9L373.5,900.2L368.3,877.0L360.8,839.3L351.6,783.1L346.8,782.8Z " data-id="SO.BK" data-name="Bakool" id="SO.BK"/>
utf-8utf-8<path d="M356.0,965.5L336.4,966.7L323.6,957.8L326.5,952.3L326.2,932.3L324.1,927.9L313.0,901.3L290.4,893.6L283.5,893.6L274.8,898.0L270.9,901.3L264.3,915.7L254.7,927.9L238.2,932.3L209.7,921.2L208.4,970.0L208.7,988.8L192.1,991.0L159.8,987.7L154.4,1024.2L151.7,1043.1L141.6,1111.7L153.4,1119.5L190.9,1159.3L198.8,1166.0L231.9,1147.2L257.2,1132.8L286.4,1119.5L361.4,1081.8L358.1,1053.0L361.6,1023.1L359.6,1016.5L364.1,989.9L360.9,967.8L356.0,965.5Z " data-id="SO.BY" data-name="Bay" id="SO.BY"/>
utf-8utf-8<path d="M211.3,901.3L207.3,892.5L186.1,852.6L184.1,848.4L184.0,848.5L180.4,851.2L176.3,853.1L128.3,862.4L112.5,862.5L109.4,863.4L106.0,865.4L100.6,870.4L93.8,875.2L92.0,876.9L91.4,879.0L91.5,882.4L88.4,887.2L51.5,948.6L36.7,973.2L1.7,1012.9L0.3,1016.0L1.0,1051.1L1.6,1106.5L1.9,1148.0L2.2,1189.5L2.2,1191.4L46.4,1188.1L67.3,1112.8L141.6,1111.7L151.7,1043.1L154.4,1024.2L159.8,987.7L192.1,991.0L208.7,988.8L208.4,970.0L209.7,921.2L211.3,901.3Z " data-id="SO.GE" data-name="Gedo" id="SO.GE"/>
utf-8utf-8<path d="M190.9,1159.3L153.4,1119.5L141.6,1111.7L67.3,1112.8L46.4,1188.1L122.6,1182.6L145.1,1181.5L165.0,1247.9L174.9,1293.3L219.4,1292.6L219.4,1292.6L229.2,1281.7L247.0,1258.9L252.2,1253.2L251.9,1252.8L235.3,1225.8L227.5,1213.6L198.8,1166.0L190.9,1159.3Z " data-id="SO.JD" data-name="Jubbada Dhexe" id="SO.JD"/>
utf-8utf-8<path d="M372.6,965.5L360.9,967.8L364.1,989.9L359.6,1016.5L361.6,1023.1L358.1,1053.0L361.4,1081.8L286.4,1119.5L257.2,1132.8L231.9,1147.2L198.8,1166.0L227.5,1213.6L235.3,1225.8L251.9,1252.8L252.2,1253.2L265.6,1238.5L270.0,1234.6L273.0,1233.0L277.6,1225.6L281.3,1222.5L292.3,1215.8L296.8,1209.3L302.0,1206.1L308.9,1198.3L313.0,1191.5L314.2,1190.3L320.4,1186.4L331.2,1173.7L352.3,1155.0L364.6,1146.3L396.1,1121.0L415.4,1110.6L418.6,1109.8L421.9,1107.6L421.9,1107.6L421.9,1107.5L433.8,1089.6L427.9,1086.3L428.2,1026.5L406.2,991.0L401.0,967.8L372.6,965.5Z " data-id="SO.SH" data-name="Shabeellaha Hoose" id="SO.SH"/>
utf-8utf-8<path d="M454.9,1085.9L454.7,1085.9L440.6,1087.4L433.8,1089.6L421.9,1107.5L421.9,1107.6L454.9,1085.9Z " data-id="SO.BN" data-name="Banaadir" id="SO.BN"/>
utf-8utf-8<path d="M526.4,608.2L480.0,663.6L449.4,702.5L440.3,714.1L455.9,752.9L460.0,761.8L492.4,770.6L510.8,765.1L509.2,780.6L499.8,802.8L504.4,837.1L529.2,859.2L528.9,896.9L592.8,943.2L593.2,943.5L609.2,924.1L621.5,909.2L636.2,891.7L644.7,878.1L669.7,846.9L669.7,846.9L669.2,846.7L636.2,830.4L645.4,752.9L630.8,710.8L618.7,690.9L641.7,632.2L530.5,603.6L526.4,608.2Z " data-id="SO.GA" data-name="Galguduud" id="SO.GA"/>
utf-8utf-8<path d="M529.2,859.2L504.4,837.1L499.8,802.8L509.2,780.6L510.8,765.1L492.4,770.6L460.0,761.8L455.9,752.9L440.3,714.1L439.2,715.5L392.9,774.3L385.3,783.8L382.5,785.1L351.9,783.1L351.6,783.1L360.8,839.3L368.3,877.0L373.5,900.2L370.9,917.9L372.6,965.5L401.0,967.8L408.9,972.2L420.6,973.3L486.0,967.8L494.4,937.9L499.2,932.3L528.9,896.9L529.2,859.2Z " data-id="SO.HI" data-name="Hiiraan" id="SO.HI"/>
utf-8utf-8<path d="M528.9,896.9L499.2,932.3L494.4,937.9L486.0,967.8L420.6,973.3L408.9,972.2L401.0,967.8L406.2,991.0L428.2,1026.5L427.9,1086.3L433.8,1089.6L440.6,1087.4L454.7,1085.9L454.9,1085.9L454.9,1085.9L476.3,1072.0L495.8,1057.7L497.7,1055.8L499.2,1052.6L503.3,1049.6L506.8,1043.2L515.9,1032.2L521.0,1029.1L523.7,1022.9L525.4,1022.2L527.0,1018.8L533.1,1013.9L540.1,1005.5L553.4,992.8L560.6,982.9L573.5,969.7L590.6,946.6L593.2,943.5L593.2,943.5L592.8,943.2L528.9,896.9Z " data-id="SO.SD" data-name="Shabeellaha Dhexe" id="SO.SD"/>
utf-8utf-8<path d="M627.9,494.0L600.2,525.2L577.2,551.1L532.5,601.4L530.5,603.6L641.7,632.2L618.7,690.9L630.8,710.8L645.4,752.9L636.2,830.4L669.2,846.7L669.7,846.9L680.0,834.1L690.2,816.8L703.9,784.0L715.8,765.1L727.2,750.8L736.6,732.4L743.4,724.8L745.9,720.8L750.5,708.9L764.9,682.7L782.3,647.2L785.5,638.9L786.7,629.2L785.3,617.2L796.7,588.6L801.1,573.5L805.4,565.7L812.2,549.6L826.5,525.9L832.7,517.6L837.7,507.2L823.5,489.4L817.6,488.3L792.9,475.0L777.2,473.9L726.4,507.1L634.8,490.5L631.6,489.8L627.9,494.0Z " data-id="SO.MU" data-name="Mudug" id="SO.MU"/>
utf-8utf-8<path d="M762.4,281.0L734.9,331.4L718.3,361.6L673.9,442.1L632.5,488.8L631.6,489.8L634.8,490.5L726.4,507.1L777.2,473.9L792.9,475.0L817.6,488.3L823.5,489.4L837.7,507.2L837.7,507.2L847.3,487.2L847.9,480.5L848.7,478.6L851.5,475.0L854.1,470.5L854.8,465.8L854.3,463.3L852.3,460.9L853.0,453.1L854.0,449.1L855.6,445.9L863.9,436.0L876.2,427.3L879.3,423.9L881.3,419.6L883.7,409.9L886.0,404.8L886.0,404.8L874.3,393.0L862.5,390.8L858.9,397.5L854.2,405.2L847.7,383.1L837.8,377.5L815.3,376.4L799.4,365.3L788.4,356.5L781.1,342.1L777.3,315.5L773.8,267.9L762.0,268.7L762.4,281.0Z " data-id="SO.NU" data-name="Nugaal" id="SO.NU"/>
utf-8utf-8<path d="M219.4,1292.6L174.9,1293.3L165.0,1247.9L145.1,1181.5L122.6,1182.6L46.4,1188.1L2.2,1191.4L2.3,1203.4L2.6,1300.3L2.6,1314.1L2.8,1344.5L3.5,1424.1L56.2,1501.8L57.7,1506.4L57.3,1515.5L61.2,1510.7L64.8,1504.1L68.8,1501.0L72.6,1492.6L76.8,1486.1L87.1,1467.4L87.7,1463.3L86.5,1459.3L89.7,1461.9L91.9,1461.6L93.1,1458.7L90.7,1460.0L90.8,1457.9L94.5,1452.9L98.7,1446.0L100.5,1441.0L98.9,1437.6L97.9,1432.1L98.9,1428.4L99.8,1428.6L99.7,1433.0L101.6,1437.7L104.9,1434.9L106.9,1429.5L111.2,1423.2L111.3,1421.1L109.4,1420.6L111.8,1419.1L114.7,1419.2L119.6,1416.5L122.2,1413.6L126.5,1406.2L127.4,1406.0L127.9,1403.6L137.7,1390.3L140.9,1386.9L143.8,1382.0L149.1,1377.4L151.1,1377.4L149.9,1376.2L150.4,1374.4L155.0,1367.8L157.4,1367.3L157.9,1364.4L160.3,1360.6L166.9,1353.0L178.9,1342.0L190.7,1327.3L210.2,1302.9L219.4,1292.6Z " data-id="SO.JH" data-name="Jubbada Hoose" id="SO.JH"/>
utf-8</g>
</svg>
