<?xml version="1.0" ?>
<!DOCTYPE svg
  PUBLIC '-//W3C//DTD SVG 1.1//EN'
  'http://www.w3.org/Graphics/SVG/1.1/DTD/svg11.dtd'>
<svg enable_background="new 0 0 1000 1149" height="1149px" pretty_print="True" style="stroke-linejoin: round; stroke:#000; fill: none;" version="1.1" viewBox="0 0 1000 1149" width="1000px" xmlns="http://www.w3.org/2000/svg" xmlns:xlink="http://www.w3.org/1999/xlink">
utf-8<defs>
utf-8utf-8<style type="text/css">
<![CDATA[path { fill-rule: evenodd; }]]>utf-8utf-8</style>
utf-8</defs>
utf-8<metadata>
utf-8utf-8<views>
utf-8utf-8utf-8<view h="1149.43897263" padding="0" w="1000">
utf-8utf-8utf-8utf-8<proj flip="auto" id="robinson" lon0="-56.8494862643"/>
utf-8utf-8utf-8utf-8<bbox h="70.06" w="61.0" x="-859.26" y="-100.81"/>
utf-8utf-8utf-8</view>
utf-8utf-8</views>
utf-8</metadata>
utf-8<g class="" id="provinces">
utf-8utf-8<path d="M233.8,86.0L232.8,82.8L232.9,79.7L231.9,74.5L234.1,67.2L235.0,62.2L234.8,55.5L232.8,59.7L231.2,65.3L228.9,69.9L227.7,73.7L232.1,86.4L233.8,86.0Z M210.0,206.3L222.0,204.2L236.1,203.3L333.7,186.3L391.7,190.8L394.4,187.6L396.2,186.3L397.4,183.8L397.4,181.2L393.3,170.9L391.5,168.0L389.9,167.1L386.5,170.0L385.0,175.4L383.5,176.0L375.9,173.3L377.2,168.7L377.4,165.7L381.1,160.6L382.3,158.0L382.6,154.2L380.9,149.3L373.1,140.0L372.3,137.2L372.7,135.5L377.2,135.4L381.3,131.4L382.9,131.1L387.3,133.6L389.9,128.7L389.0,124.0L380.4,111.9L374.7,97.9L374.2,95.0L373.9,88.8L370.4,81.6L366.9,72.2L366.4,65.3L367.2,16.8L365.4,15.9L358.0,10.5L353.9,8.7L343.5,8.1L324.6,7.2L312.6,7.1L303.7,6.0L288.9,2.0L282.2,0.0L280.4,0.7L277.7,3.7L271.5,6.5L268.3,10.4L262.9,14.2L257.3,15.3L255.3,16.9L252.7,22.4L246.0,34.4L243.0,41.9L239.8,53.1L239.1,60.0L237.2,69.1L235.4,95.2L228.8,124.8L227.1,128.7L224.7,132.1L221.4,135.1L213.5,138.4L207.9,144.6L205.5,150.4L204.6,154.7L204.2,160.6L203.1,167.0L200.5,171.4L188.4,184.8L186.3,187.8L185.4,190.8L186.3,193.3L188.5,193.3L192.0,191.7L196.7,193.1L196.6,212.3L198.2,215.9L200.3,216.6L204.0,215.1L204.7,213.3L202.3,210.0L201.1,207.3L201.6,204.7L203.7,203.3L206.4,203.2L208.8,204.0L209.8,205.7L210.0,206.3Z " data-id="SR.NI" data-name="Nickerie" id="SR.NI"/>
utf-8utf-8<path d="M783.0,284.6L781.4,284.6L779.8,283.3L780.4,274.8L780.6,263.8L779.5,258.3L775.9,253.9L774.7,251.4L774.7,248.9L776.0,243.1L775.8,240.2L771.9,231.8L769.6,229.4L757.1,219.5L754.9,217.1L753.5,214.4L752.9,211.4L752.5,194.8L751.5,192.2L749.9,190.1L745.0,189.2L672.6,189.9L666.3,191.4L663.8,195.3L663.2,198.0L666.4,203.7L666.7,205.5L665.6,209.8L656.6,225.9L648.3,235.1L636.4,244.9L627.8,255.7L651.3,299.4L654.3,307.7L657.0,318.0L660.0,363.0L657.0,415.9L657.4,418.1L660.2,422.1L663.2,428.3L664.6,432.7L665.3,436.5L668.1,533.3L669.6,542.4L670.8,545.1L672.8,547.3L677.6,549.2L682.7,548.2L698.7,539.0L701.2,536.8L711.8,525.6L720.1,521.7L728.0,520.6L730.4,519.7L732.7,517.8L734.7,515.1L741.3,505.2L743.4,504.8L745.1,505.5L747.9,508.2L751.9,515.5L754.2,517.0L756.5,515.9L758.4,513.6L761.3,504.8L762.6,501.6L769.2,489.5L775.0,473.0L775.5,470.6L775.5,464.6L775.2,461.8L771.2,447.3L770.2,441.2L770.5,431.5L771.8,428.1L773.8,425.1L782.1,416.7L786.8,410.8L789.7,404.8L790.8,398.4L790.9,374.2L792.0,368.2L796.0,359.9L796.8,356.8L799.4,344.7L802.4,338.7L804.3,332.2L804.8,325.4L805.4,322.2L806.7,319.3L810.0,313.6L811.4,307.9L807.5,296.9L801.1,290.2L785.0,283.0L783.0,284.6Z " data-id="SR.BR" data-name="Brokopondo" id="SR.BR"/>
utf-8utf-8<path d="M827.2,10.1L824.0,19.4L825.2,41.3L823.4,45.2L818.5,51.6L817.5,54.6L817.1,58.0L819.8,73.1L821.6,77.5L823.5,85.7L825.3,90.3L832.4,102.9L837.1,114.3L842.9,124.2L846.3,134.0L847.3,143.5L846.6,153.0L843.4,162.2L835.1,174.9L878.8,193.6L882.0,195.6L895.3,206.0L903.9,209.4L909.4,212.7L915.0,219.5L917.4,215.8L927.9,203.9L947.3,188.4L962.9,164.0L965.5,156.2L967.9,153.5L972.2,149.3L976.7,143.3L979.9,137.0L982.8,126.2L986.6,104.9L988.2,94.0L991.1,88.6L997.2,76.1L999.6,73.0L998.3,68.1L992.8,55.4L993.2,52.6L991.9,49.8L989.4,48.7L988.0,46.5L981.9,47.0L978.9,45.8L973.4,45.1L956.1,39.5L936.1,32.1L913.0,26.9L883.4,19.4L834.7,11.6L827.2,10.1Z " data-id="SR.MA" data-name="Marowijne" id="SR.MA"/>
utf-8utf-8<path d="M732.0,90.6L725.9,90.2L699.8,95.9L691.7,96.1L668.3,93.1L669.6,95.9L668.9,101.2L666.4,102.4L662.3,103.5L659.5,105.8L658.9,107.6L661.8,112.5L662.0,114.4L657.7,120.3L656.2,126.2L654.5,129.8L655.5,133.5L659.0,136.7L660.2,140.2L659.7,142.2L656.8,147.5L656.3,150.9L650.1,155.5L648.0,155.5L645.3,160.2L644.0,160.7L639.5,157.0L636.0,159.0L633.1,159.8L559.3,166.4L549.9,163.5L546.9,163.3L535.9,166.5L533.8,166.0L532.1,164.5L531.6,160.1L530.7,156.7L530.9,152.9L532.8,148.4L535.2,145.6L536.7,142.8L537.0,140.1L534.6,137.1L533.7,133.7L530.6,129.5L516.8,173.2L507.9,235.4L507.5,244.7L507.8,249.6L519.2,252.9L524.4,252.9L536.3,249.0L541.9,247.8L547.1,247.4L551.9,248.2L567.2,253.8L572.6,257.5L575.6,260.8L576.9,263.7L578.2,274.3L579.9,280.4L582.3,282.8L585.0,283.8L595.6,281.3L603.0,277.8L611.0,273.0L613.7,272.1L616.2,269.5L617.5,264.6L621.8,258.5L625.9,257.0L627.8,255.7L636.4,244.9L648.3,235.1L656.6,225.9L665.6,209.8L666.7,205.5L666.4,203.7L663.2,198.0L663.8,195.3L666.3,191.4L672.6,189.9L745.0,189.2L749.9,190.1L751.5,192.2L752.5,194.8L752.9,211.4L753.5,214.4L754.9,217.1L757.1,219.5L769.6,229.4L771.9,231.8L775.8,240.2L776.0,243.1L774.7,248.9L774.7,251.4L775.9,253.9L779.5,258.3L780.6,263.8L780.4,274.8L779.8,283.3L781.4,284.6L783.0,284.6L785.0,283.0L789.4,270.0L792.2,254.2L797.8,233.2L800.7,228.5L809.5,220.0L811.0,217.5L814.2,208.7L829.3,177.7L831.7,173.6L835.1,174.9L843.4,162.2L846.6,153.0L847.3,143.5L846.3,134.0L842.9,124.2L750.1,131.9L745.2,131.7L740.7,130.0L741.6,114.7L740.7,110.7L739.8,110.2L740.0,106.9L738.5,106.8L735.0,108.8L732.6,108.4L735.2,99.4L744.0,94.7L732.0,90.6Z " data-id="SR.PR" data-name="Para" id="SR.PR"/>
utf-8utf-8<path d="M915.0,219.5L909.4,212.7L903.9,209.4L895.3,206.0L882.0,195.6L878.8,193.6L835.1,174.9L831.7,173.6L829.3,177.7L814.2,208.7L811.0,217.5L809.5,220.0L800.7,228.5L797.8,233.2L792.2,254.2L789.4,270.0L785.0,283.0L801.1,290.2L807.5,296.9L811.4,307.9L810.0,313.6L806.7,319.3L805.4,322.2L804.8,325.4L804.3,332.2L802.4,338.7L799.4,344.7L796.8,356.8L796.0,359.9L792.0,368.2L790.9,374.2L790.8,398.4L789.7,404.8L786.8,410.8L782.1,416.7L773.8,425.1L771.8,428.1L770.5,431.5L770.2,441.2L771.2,447.3L775.2,461.8L775.5,464.6L775.5,470.6L775.0,473.0L769.2,489.5L762.6,501.6L761.3,504.8L758.4,513.6L756.5,515.9L754.2,517.0L751.9,515.5L747.9,508.2L745.1,505.5L743.4,504.8L741.3,505.2L734.7,515.1L732.7,517.8L730.4,519.7L728.0,520.6L720.1,521.7L711.8,525.6L701.2,536.8L698.7,539.0L682.7,548.2L677.6,549.2L672.8,547.3L670.8,545.1L669.6,542.4L668.1,533.3L665.3,436.5L664.6,432.7L663.2,428.3L660.2,422.1L657.4,418.1L657.0,415.9L660.0,363.0L657.0,318.0L654.3,307.7L651.3,299.4L627.8,255.7L625.9,257.0L621.8,258.5L617.5,264.6L616.2,269.5L613.7,272.1L611.0,273.0L603.0,277.8L595.6,281.3L585.0,283.8L582.3,282.8L579.9,280.4L578.2,274.3L576.9,263.7L575.6,260.8L572.6,257.5L567.2,253.8L551.9,248.2L547.1,247.4L541.9,247.8L536.3,249.0L524.4,252.9L519.2,252.9L507.8,249.6L507.5,244.7L507.9,235.4L516.8,173.2L530.6,129.5L520.6,133.1L517.4,135.4L517.0,137.9L519.1,142.7L518.8,145.5L518.0,146.6L514.7,147.7L508.8,151.5L507.1,153.5L505.0,157.6L503.9,158.5L499.4,160.0L494.9,169.3L492.7,170.3L477.8,171.5L454.0,170.1L440.0,171.3L435.0,173.0L431.3,175.4L426.9,180.5L421.7,185.3L418.6,187.7L414.5,189.8L391.7,190.8L333.7,186.3L236.1,203.3L222.0,204.2L210.0,206.3L211.5,210.9L219.3,222.0L221.0,227.5L219.7,231.3L216.7,234.5L212.8,237.0L209.0,238.8L207.8,233.3L205.8,230.5L202.8,229.4L198.5,229.2L195.7,230.8L194.0,234.6L192.2,242.5L188.4,251.8L187.2,258.5L188.2,261.6L196.8,270.6L194.3,272.2L188.4,270.6L184.9,271.2L178.4,274.4L172.2,276.2L153.0,278.5L148.9,279.9L145.8,280.2L144.2,279.3L139.3,274.4L133.0,274.8L127.5,275.9L116.7,280.2L107.3,275.5L98.2,276.1L90.0,280.6L83.3,287.7L79.5,295.5L76.6,298.0L70.6,298.9L67.6,298.3L63.0,296.2L59.9,297.1L58.1,299.0L52.9,308.3L49.5,312.9L45.0,318.3L40.9,324.6L39.0,333.8L40.8,337.6L44.8,339.9L48.7,342.9L51.7,354.2L58.0,363.6L59.9,368.5L59.4,373.7L57.3,378.5L52.8,385.5L48.7,399.5L44.4,407.3L39.6,419.5L37.6,428.6L32.4,435.7L29.9,439.9L28.8,444.9L29.5,449.3L30.7,453.4L31.3,458.0L30.6,464.9L28.9,470.3L26.1,475.0L4.5,499.4L1.0,505.3L0.4,510.9L3.2,522.8L5.9,546.1L8.1,555.8L13.8,564.2L29.4,578.4L33.2,583.6L45.1,604.0L50.0,616.5L50.9,621.8L51.3,634.3L52.6,640.1L55.2,645.2L59.2,648.1L71.0,653.6L80.1,660.3L82.0,667.1L85.4,674.5L89.2,675.4L95.6,680.1L99.5,685.2L99.0,690.0L95.2,698.1L95.5,705.2L94.1,710.1L94.4,715.3L97.3,721.1L99.4,722.1L106.2,723.6L117.7,731.0L120.3,731.9L122.6,731.5L125.0,726.1L128.1,726.8L132.6,730.0L136.4,730.5L137.8,731.4L139.2,734.0L141.0,732.8L143.4,730.0L150.3,728.0L152.0,725.6L151.9,720.7L159.4,724.4L165.9,726.7L172.4,725.4L180.2,718.6L185.9,732.7L186.6,736.5L185.9,746.1L185.5,747.8L183.4,751.2L183.9,753.5L185.4,755.7L186.2,759.0L185.8,762.3L184.4,767.9L184.1,771.3L184.6,774.3L187.1,780.7L186.4,784.0L184.3,788.0L187.0,790.2L189.4,790.7L195.6,786.5L197.1,788.2L193.2,796.2L195.4,801.2L199.5,805.6L201.6,811.7L203.2,819.4L202.3,820.5L199.0,820.3L198.2,821.2L199.3,829.1L195.9,835.2L199.0,837.2L207.0,838.2L208.1,842.3L205.4,846.1L201.6,849.5L199.3,852.3L202.3,866.5L203.2,869.3L205.1,870.5L206.9,875.6L209.8,876.8L212.1,876.2L217.0,873.7L219.8,873.1L221.5,874.9L217.2,884.8L218.7,889.9L219.5,889.3L227.8,887.9L230.1,889.2L229.5,892.2L226.8,898.4L228.0,902.0L234.2,909.4L236.5,914.5L237.8,925.3L239.7,926.9L244.8,923.7L246.3,927.2L244.4,934.0L244.5,938.7L245.7,941.2L251.7,949.3L252.1,951.3L250.7,960.5L252.2,963.1L255.6,961.7L260.6,957.6L262.6,960.2L262.2,963.1L260.5,968.9L261.2,972.6L262.3,975.0L266.3,979.3L267.4,981.9L266.9,984.8L265.3,988.7L267.1,993.7L275.6,1002.3L278.2,1008.4L278.0,1018.3L279.0,1020.8L281.2,1022.0L286.8,1023.2L288.9,1024.5L291.9,1029.9L294.2,1042.0L295.9,1047.9L297.6,1056.1L320.4,1093.6L327.0,1096.7L350.8,1097.1L359.9,1102.5L364.9,1108.1L370.0,1110.0L372.1,1111.9L373.6,1114.6L374.3,1117.7L386.9,1122.9L390.4,1123.8L394.9,1123.2L402.1,1121.2L406.7,1121.9L411.4,1124.1L420.0,1130.4L424.6,1132.6L428.4,1133.1L440.1,1132.3L455.7,1136.9L470.8,1143.9L486.1,1147.4L502.1,1142.0L509.9,1133.0L511.3,1123.1L510.1,1112.1L509.9,1099.9L512.1,1091.4L511.4,1087.9L509.6,1084.8L501.4,1076.7L492.9,1064.0L490.8,1061.9L484.3,1056.8L481.1,1051.0L479.1,1040.2L474.5,1035.4L470.1,1034.2L459.5,1033.5L456.7,1031.4L457.5,1026.3L460.5,1018.1L464.2,1010.2L467.5,1005.9L470.5,1005.1L474.8,1007.7L477.5,1007.9L480.4,1006.4L482.3,1004.2L489.6,992.2L490.9,987.4L491.3,975.2L494.0,963.5L495.9,958.7L497.5,957.1L500.4,956.1L506.2,956.7L511.5,960.1L524.5,972.4L528.5,974.7L545.6,979.5L547.9,980.9L549.7,983.3L552.4,989.3L554.9,991.6L559.7,992.7L578.9,987.3L588.0,982.5L593.0,982.6L597.7,983.3L611.5,981.9L620.5,982.0L629.8,983.4L638.6,983.6L645.5,980.2L647.6,975.9L648.3,970.9L649.7,965.8L653.9,961.3L658.1,959.4L662.4,959.0L666.2,960.6L669.0,964.6L674.6,965.0L694.3,948.1L702.6,947.3L703.7,949.9L702.7,955.1L704.6,957.3L706.5,957.6L708.6,956.8L717.4,952.0L726.9,943.0L731.8,939.5L741.8,935.0L746.1,934.5L747.4,937.2L745.7,940.9L741.0,946.2L740.1,950.0L741.1,952.6L764.6,978.9L773.8,982.7L785.9,978.6L793.9,973.8L797.9,973.6L803.2,975.9L807.5,979.3L807.6,984.8L809.2,990.9L808.8,992.6L805.7,993.3L804.2,998.5L806.3,1004.7L806.3,1010.3L806.8,1012.5L809.6,1014.1L814.4,1014.9L819.1,1014.8L823.8,1013.8L828.4,1012.1L832.3,1006.7L835.9,1006.1L844.0,1008.9L848.7,1008.3L851.5,1005.9L858.3,987.2L863.4,984.0L868.7,983.9L872.4,983.3L875.3,982.0L887.1,968.9L891.1,962.2L901.0,935.1L909.8,915.5L927.8,888.5L929.8,884.3L933.8,871.5L935.5,869.2L938.4,867.4L933.8,862.6L933.6,857.9L934.6,854.7L938.8,847.6L940.6,839.2L940.6,835.4L939.3,834.9L936.7,831.5L935.5,827.7L938.3,825.8L939.4,824.1L939.0,820.3L937.7,813.6L934.4,810.8L934.9,809.3L937.8,807.1L938.4,801.3L938.0,795.1L935.4,791.1L929.7,792.1L935.0,778.2L938.5,772.0L947.6,759.8L954.0,748.7L965.1,737.3L966.8,731.9L967.5,727.1L968.6,723.4L977.6,713.0L981.8,702.0L981.4,681.2L983.5,669.7L985.6,663.5L986.0,659.3L984.6,655.8L981.3,651.9L979.2,650.9L971.3,652.8L971.2,651.2L965.7,641.4L961.1,621.9L958.7,618.9L953.8,610.5L951.3,608.5L943.1,605.8L939.0,603.3L936.6,600.0L934.4,594.6L932.6,591.4L931.8,591.5L930.8,589.2L926.3,586.4L920.6,573.7L915.6,568.7L914.1,566.2L911.7,556.7L910.2,554.0L902.1,545.6L899.9,541.0L899.7,534.2L900.8,529.9L904.2,520.4L905.0,516.3L904.2,510.6L901.8,508.4L893.7,505.9L890.7,503.6L888.0,499.8L887.1,495.2L889.9,490.0L891.5,485.3L891.4,478.3L889.5,466.5L882.5,449.1L879.0,419.5L879.8,412.5L884.8,402.5L886.1,397.7L886.3,386.5L885.9,383.3L883.1,374.3L883.1,367.5L884.0,362.3L884.0,357.6L881.3,352.6L876.5,350.3L874.6,348.7L873.9,345.0L874.6,311.1L873.2,307.3L872.8,304.5L874.0,301.8L880.6,296.6L881.7,295.2L882.3,291.1L880.5,280.2L881.2,275.5L882.8,271.1L887.5,263.2L901.1,246.3L902.6,241.5L903.7,239.7L907.5,236.7L909.1,234.9L912.2,223.9L915.0,219.5Z " data-id="SR.SI" data-name="Sipaliwini" id="SR.SI"/>
utf-8utf-8<path d="M825.3,9.7L815.0,8.4L810.6,7.2L752.5,5.0L745.0,5.1L735.2,5.7L727.5,7.2L720.7,10.3L718.5,11.8L716.9,14.7L718.2,16.5L719.1,19.4L720.8,22.4L724.9,25.5L729.7,28.2L743.7,32.8L747.4,34.9L751.0,38.3L754.6,38.5L758.5,36.0L761.9,36.9L765.6,39.5L771.1,39.0L776.2,35.0L778.4,34.7L781.6,35.4L783.5,36.6L788.0,42.9L783.8,39.3L779.2,37.4L776.3,38.1L773.3,41.5L771.3,42.9L764.8,43.9L759.5,40.1L755.6,42.0L752.4,42.9L747.5,41.7L739.7,35.3L734.3,35.4L733.0,37.5L732.6,43.6L730.2,49.7L723.5,52.2L719.5,56.1L716.4,57.7L717.9,63.6L719.4,67.4L720.1,69.1L722.9,74.3L726.4,78.7L730.7,82.4L740.3,85.8L745.0,88.2L747.0,91.9L745.4,94.0L744.0,94.7L735.2,99.4L732.6,108.4L735.0,108.8L738.5,106.8L740.0,106.9L739.8,110.2L740.7,110.7L741.6,114.7L740.7,130.0L745.2,131.7L750.1,131.9L842.9,124.2L837.1,114.3L832.4,102.9L825.3,90.3L823.5,85.7L821.6,77.5L819.8,73.1L817.1,58.0L817.5,54.6L818.5,51.6L823.4,45.2L825.2,41.3L824.0,19.4L827.2,10.1L825.3,9.7Z " data-id="SR.CM" data-name="Commewijne" id="SR.CM"/>
utf-8utf-8<path d="M536.2,92.0L536.8,68.3L535.5,64.6L532.1,62.3L527.8,56.8L512.6,55.2L503.3,51.5L498.3,50.5L492.4,48.7L482.6,44.9L466.3,40.9L450.7,36.0L439.4,32.7L427.0,32.1L411.8,27.5L385.7,20.6L374.3,19.4L369.7,18.1L367.2,16.8L366.4,65.3L366.9,72.2L370.4,81.6L373.9,88.8L374.2,95.0L374.7,97.9L380.4,111.9L389.0,124.0L389.9,128.7L387.3,133.6L382.9,131.1L381.3,131.4L377.2,135.4L372.7,135.5L372.3,137.2L373.1,140.0L380.9,149.3L382.6,154.2L382.3,158.0L381.1,160.6L377.4,165.7L377.2,168.7L375.9,173.3L383.5,176.0L385.0,175.4L386.5,170.0L389.9,167.1L391.5,168.0L393.3,170.9L397.4,181.2L397.4,183.8L396.2,186.3L394.4,187.6L391.7,190.8L414.5,189.8L418.6,187.7L421.7,185.3L426.9,180.5L431.3,175.4L435.0,173.0L440.0,171.3L454.0,170.1L477.8,171.5L492.7,170.3L494.9,169.3L499.4,160.0L503.9,158.5L505.0,157.6L507.1,153.5L508.8,151.5L514.7,147.7L518.0,146.6L518.8,145.5L519.1,142.7L517.0,137.9L517.4,135.4L520.6,133.1L530.6,129.5L529.4,124.4L520.5,113.4L517.4,106.2L517.3,104.4L520.0,99.9L522.0,99.1L528.6,98.2L532.3,97.2L535.8,93.2L536.3,92.0L536.2,92.0Z " data-id="SR.CR" data-name="Coronie" id="SR.CR"/>
utf-8utf-8<path d="M723.5,52.2L726.9,47.9L730.0,39.9L728.2,35.8L719.4,28.4L715.5,28.8L709.5,31.4L701.6,30.6L699.6,30.0L699.0,35.2L699.4,45.3L701.0,52.9L705.0,60.5L709.1,63.6L719.4,67.4L717.9,63.6L716.4,57.7L719.5,56.1L723.5,52.2L723.5,52.2Z " data-id="SR.PM" data-name="Paramaribo" id="SR.PM"/>
utf-8utf-8<path d="M691.5,23.4L680.9,18.7L674.3,13.4L660.1,10.4L601.5,7.0L591.5,7.2L579.2,8.3L551.3,9.8L545.5,11.5L541.1,13.4L537.5,16.4L531.7,23.0L525.9,31.6L524.7,35.7L525.4,41.2L528.7,44.4L534.5,44.1L536.8,46.6L533.0,52.1L539.3,69.2L540.0,74.1L539.9,83.4L539.4,87.6L538.0,92.0L536.3,92.0L536.3,92.0L535.8,93.2L532.3,97.2L528.6,98.2L522.0,99.1L520.0,99.9L517.3,104.4L517.4,106.2L520.5,113.4L529.4,124.4L530.6,129.5L533.7,133.7L534.6,137.1L537.0,140.1L536.7,142.8L535.2,145.6L532.8,148.4L530.9,152.9L530.7,156.7L531.6,160.1L532.1,164.5L533.8,166.0L535.9,166.5L546.9,163.3L549.9,163.5L559.3,166.4L633.1,159.8L636.0,159.0L639.5,157.0L644.0,160.7L645.3,160.2L648.0,155.5L650.1,155.5L656.3,150.9L656.8,147.5L659.7,142.2L660.2,140.2L659.0,136.7L655.5,133.5L654.5,129.8L656.2,126.2L657.7,120.3L662.0,114.4L661.8,112.5L658.9,107.6L659.5,105.8L662.3,103.5L666.4,102.4L668.9,101.2L669.6,95.9L668.3,93.1L667.1,83.1L667.5,76.6L668.2,73.4L670.2,71.8L677.3,63.5L693.8,26.3L694.0,25.8L691.5,23.4Z " data-id="SR.SA" data-name="Saramacca" id="SR.SA"/>
utf-8utf-8<path d="M699.6,30.0L698.8,29.7L696.4,28.1L694.0,25.8L694.0,25.8L693.8,26.3L677.3,63.5L670.2,71.8L668.2,73.4L667.5,76.6L667.1,83.1L668.3,93.1L691.7,96.1L699.8,95.9L725.9,90.2L732.0,90.6L744.0,94.7L745.4,94.0L747.0,91.9L745.0,88.2L740.3,85.8L730.7,82.4L726.4,78.7L722.9,74.3L720.1,69.1L719.4,67.4L709.1,63.6L705.0,60.5L701.0,52.9L699.4,45.3L699.0,35.2L699.6,30.0L699.6,30.0Z " data-id="SR.WA" data-name="Wanica" id="SR.WA"/>
utf-8</g>
</svg>
