<?xml version="1.0" ?>
<!DOCTYPE svg
  PUBLIC '-//W3C//DTD SVG 1.1//EN'
  'http://www.w3.org/Graphics/SVG/1.1/DTD/svg11.dtd'>
<svg enable_background="new 0 0 1000 609" height="609px" pretty_print="True" style="stroke-linejoin: round; stroke:#000; fill: none;" version="1.1" viewBox="0 0 1000 609" width="1000px" xmlns="http://www.w3.org/2000/svg" xmlns:xlink="http://www.w3.org/1999/xlink">
utf-8<defs>
utf-8utf-8<style type="text/css">
<![CDATA[path { fill-rule: evenodd; }]]>utf-8utf-8</style>
utf-8</defs>
utf-8<metadata>
utf-8utf-8<views>
utf-8utf-8utf-8<view h="609.894674207" padding="0" w="1000">
utf-8utf-8utf-8utf-8<proj flip="auto" id="robinson" lon0="-89.9337480137"/>
utf-8utf-8utf-8utf-8<bbox h="21.58" w="35.44" x="-1323.54" y="-242.23"/>
utf-8utf-8utf-8</view>
utf-8utf-8</views>
utf-8</metadata>
utf-8<g class="" id="provinces">
utf-8utf-8<path d="M164.1,190.0L163.6,192.6L157.2,196.2L151.4,193.5L141.6,184.2L134.3,182.0L128.2,182.5L109.1,190.2L104.4,193.5L94.6,203.2L51.8,234.2L45.1,240.2L40.9,246.8L37.5,253.7L33.0,260.3L27.5,264.9L15.5,271.6L10.0,277.3L6.0,284.1L3.1,291.5L1.3,299.2L0.8,306.7L6.6,338.5L34.8,354.4L61.4,368.6L70.2,355.4L73.7,351.3L82.9,347.8L84.3,348.0L93.4,357.9L99.4,362.4L111.8,363.2L115.3,362.7L117.4,361.7L120.8,351.2L121.7,348.9L128.1,338.4L129.2,332.8L131.5,328.2L135.0,324.1L137.2,320.0L137.0,317.4L134.7,305.1L136.1,300.6L145.9,286.4L146.3,284.7L144.8,279.3L144.3,276.6L144.2,267.7L145.2,262.7L147.5,260.5L152.6,259.6L161.9,256.8L169.6,253.4L181.0,221.8L183.0,213.4L180.7,208.6L179.1,207.2L177.0,203.4L176.5,199.5L174.1,196.1L167.1,190.8L163.8,189.2L164.1,190.0Z " data-id="SV.AH" data-name="Ahuachapán" id="SV.AH"/>
utf-8utf-8<path d="M599.6,204.8L580.3,208.1L571.3,212.6L567.7,217.3L564.6,219.7L559.5,222.3L533.1,231.5L526.6,234.2L520.8,235.8L510.1,234.6L497.9,235.0L490.7,245.7L487.2,250.5L485.5,251.9L479.6,255.5L475.9,261.9L478.2,268.9L485.1,281.7L487.3,284.7L490.5,287.2L492.3,289.7L493.8,297.5L495.5,301.6L496.9,308.5L498.4,311.0L501.9,315.8L504.4,321.5L507.9,323.9L521.8,328.2L523.7,314.7L525.9,311.5L528.6,311.6L535.1,313.8L542.1,311.9L555.6,305.5L558.4,304.7L563.7,305.8L569.1,300.1L572.0,299.1L577.5,303.9L582.4,304.8L595.6,304.6L598.2,305.2L603.9,305.5L617.2,313.8L621.4,315.5L629.4,320.4L630.3,325.2L632.5,326.5L642.8,328.0L646.6,329.1L653.8,324.1L653.8,324.0L658.3,315.8L662.8,309.2L662.6,302.7L667.3,299.5L670.7,294.8L671.8,289.2L669.8,283.3L672.6,280.7L676.9,274.0L677.3,266.5L674.0,254.1L673.3,249.6L674.8,242.6L676.8,236.9L677.6,231.3L675.7,225.1L677.3,225.3L678.8,222.2L675.5,218.1L671.7,216.2L653.6,214.7L623.3,203.6L612.9,202.8L602.1,204.6L599.5,205.7L599.6,204.8Z " data-id="SV.CA" data-name="Cabañas" id="SV.CA"/>
utf-8utf-8<path d="M491.1,234.2L485.0,231.4L477.4,232.1L469.0,227.4L465.9,224.4L463.2,218.2L463.1,209.5L462.4,208.3L454.5,196.3L452.5,191.7L446.0,186.2L443.3,183.2L441.4,181.9L431.1,177.6L426.2,174.7L423.5,174.5L415.8,178.8L415.1,183.3L412.8,189.0L409.7,197.1L410.2,204.8L410.1,209.4L407.2,220.5L403.2,225.3L403.8,232.9L406.8,241.8L413.9,257.5L416.4,262.2L413.4,265.8L409.5,268.0L410.3,271.6L419.5,290.9L422.8,295.7L425.4,298.3L428.1,298.4L431.0,299.9L435.4,308.4L439.4,312.0L440.2,315.4L438.5,325.5L438.9,327.8L444.7,343.0L446.4,345.8L447.6,350.7L446.6,364.9L464.1,372.3L470.9,376.6L478.5,379.4L483.5,378.3L485.4,375.1L488.3,373.3L493.5,372.6L495.9,371.7L498.9,369.8L507.8,361.0L508.9,359.4L510.1,357.2L512.2,350.6L521.8,328.2L507.9,323.9L504.4,321.5L501.9,315.8L498.4,311.0L496.9,308.5L495.5,301.6L493.8,297.5L492.3,289.7L490.5,287.2L487.3,284.7L485.1,281.7L478.2,268.9L475.9,261.9L479.6,255.5L485.5,251.9L487.2,250.5L490.7,245.7L497.9,235.0L491.1,234.2Z " data-id="SV.CU" data-name="Cuscatlán" id="SV.CU"/>
utf-8utf-8<path d="M359.3,183.8L351.3,182.2L344.3,177.5L340.1,176.6L335.8,180.0L331.8,182.3L326.8,183.3L323.2,184.8L321.5,188.0L319.4,191.2L312.4,217.4L309.5,234.7L307.8,237.5L305.6,238.5L300.6,239.2L296.7,245.1L295.3,246.1L291.0,246.1L288.5,250.3L286.8,262.9L286.3,271.5L284.6,281.5L275.2,303.5L272.0,316.7L276.6,318.3L279.4,321.3L279.0,325.5L277.7,327.4L271.7,332.4L265.2,336.3L262.7,338.6L257.2,345.3L253.7,347.6L250.8,347.9L247.1,350.1L244.9,354.4L243.1,360.0L241.9,365.5L241.5,375.9L237.6,382.8L224.7,396.0L223.5,398.3L222.3,402.2L221.3,407.9L217.9,412.2L206.5,422.3L203.9,426.3L197.0,440.5L205.8,442.4L230.3,449.4L289.2,448.8L299.7,451.7L313.8,451.7L343.4,459.7L370.3,473.5L388.8,487.0L391.9,479.8L395.7,473.4L400.6,466.8L399.2,463.8L395.3,462.0L390.3,461.4L389.2,459.4L388.5,451.7L385.6,450.2L380.6,449.9L373.7,452.2L370.3,451.5L368.0,445.0L362.5,433.1L364.1,425.0L367.3,417.6L367.7,416.1L368.7,396.5L370.3,389.4L372.3,386.7L371.9,385.6L368.1,382.8L371.0,376.0L371.0,372.7L368.6,368.6L366.4,366.3L360.7,362.8L359.3,360.7L357.4,352.2L355.9,350.9L354.5,347.8L354.7,343.3L355.5,338.6L353.7,335.6L350.7,334.2L350.8,332.3L353.1,326.4L357.5,317.2L358.7,309.6L359.9,305.3L362.8,298.2L364.4,289.9L366.2,285.4L367.6,283.6L372.6,280.8L374.0,277.0L378.6,250.7L381.1,248.0L384.2,248.1L387.0,241.4L381.7,236.1L378.2,235.2L371.8,235.4L368.6,234.3L364.2,230.3L359.8,218.2L357.6,216.1L357.8,211.9L361.0,201.7L363.0,185.8L359.3,183.8Z " data-id="SV.LI" data-name="La Libertad" id="SV.LI"/>
utf-8utf-8<path d="M495.9,371.7L493.5,372.6L488.3,373.3L485.4,375.1L483.5,378.3L478.5,379.4L470.9,376.6L464.1,372.3L446.6,364.9L430.2,380.6L416.1,398.2L413.8,400.0L411.3,399.7L404.9,397.3L401.2,397.3L400.2,397.9L399.1,401.6L399.5,405.7L400.3,409.5L402.9,415.7L403.5,418.0L401.6,426.4L397.0,438.1L394.4,443.2L389.8,447.7L388.5,451.7L389.2,459.4L390.3,461.4L395.3,462.0L399.2,463.8L400.6,466.8L395.7,473.4L391.9,479.8L388.8,487.0L416.3,507.1L508.3,557.1L510.6,542.9L513.6,537.3L515.3,535.9L524.5,531.2L527.0,528.8L528.0,525.1L527.9,505.8L530.3,499.8L533.0,497.6L535.1,491.3L534.2,486.9L531.8,483.0L529.2,479.9L523.6,475.3L521.2,471.9L520.5,467.3L520.9,456.9L523.5,446.6L528.9,432.3L529.7,429.6L529.8,423.9L521.9,399.6L520.9,398.1L514.2,396.5L504.0,399.9L500.1,400.0L499.4,394.9L500.6,386.9L501.2,379.1L498.9,369.8L495.9,371.7Z " data-id="SV.PA" data-name="La Paz" id="SV.PA"/>
utf-8utf-8<path d="M252.7,312.5L247.6,310.5L244.7,301.7L239.8,296.0L231.7,288.7L225.3,284.7L224.1,285.0L221.2,288.6L218.7,294.5L218.3,298.7L215.4,301.8L212.3,302.6L209.1,301.5L206.9,297.3L204.4,293.6L200.2,291.1L201.9,287.9L203.6,286.5L205.4,279.5L203.9,276.2L199.7,270.7L197.7,265.4L191.7,258.1L187.6,255.1L182.7,256.0L179.0,256.1L169.6,253.4L161.9,256.8L152.6,259.6L147.5,260.5L145.2,262.7L144.2,267.7L144.3,276.6L144.8,279.3L146.3,284.7L145.9,286.4L136.1,300.6L134.7,305.1L137.0,317.4L137.2,320.0L135.0,324.1L131.5,328.2L129.2,332.8L128.1,338.4L121.7,348.9L120.8,351.2L117.4,361.7L115.3,362.7L111.8,363.2L99.4,362.4L93.4,357.9L84.3,348.0L82.9,347.8L73.7,351.3L70.2,355.4L61.4,368.6L62.3,369.1L93.8,390.3L101.8,396.1L106.5,400.9L107.1,411.7L109.6,429.1L115.4,433.9L154.8,433.4L168.9,430.2L194.2,439.8L197.0,440.5L203.9,426.3L206.5,422.3L217.9,412.2L221.3,407.9L222.3,402.2L223.5,398.3L224.7,396.0L237.6,382.8L241.5,375.9L241.9,365.5L243.1,360.0L244.9,354.4L247.1,350.1L250.8,347.9L253.7,347.6L257.2,345.3L262.7,338.6L265.2,336.3L271.7,332.4L277.7,327.4L279.0,325.5L279.4,321.3L276.6,318.3L272.0,316.7L252.7,312.5Z " data-id="SV.SO" data-name="Sonsonate" id="SV.SO"/>
utf-8utf-8<path d="M403.8,184.6L399.2,183.3L393.9,178.2L390.7,184.0L385.0,184.0L376.8,179.8L373.5,181.0L367.7,185.3L365.9,186.3L363.0,185.8L361.0,201.7L357.8,211.9L357.6,216.1L359.8,218.2L364.2,230.3L368.6,234.3L371.8,235.4L378.2,235.2L381.7,236.1L387.0,241.4L384.2,248.1L381.1,248.0L378.6,250.7L374.0,277.0L372.6,280.8L367.6,283.6L366.2,285.4L364.4,289.9L362.8,298.2L359.9,305.3L358.7,309.6L357.5,317.2L353.1,326.4L350.8,332.3L350.7,334.2L353.7,335.6L355.5,338.6L354.7,343.3L354.5,347.8L355.9,350.9L357.4,352.2L359.3,360.7L360.7,362.8L366.4,366.3L368.6,368.6L371.0,372.7L371.0,376.0L368.1,382.8L371.9,385.6L372.3,386.7L370.3,389.4L368.7,396.5L367.7,416.1L367.3,417.6L364.1,425.0L362.5,433.1L368.0,445.0L370.3,451.5L373.7,452.2L380.6,449.9L385.6,450.2L388.5,451.7L389.8,447.7L394.4,443.2L397.0,438.1L401.6,426.4L403.5,418.0L402.9,415.7L400.3,409.5L399.5,405.7L399.1,401.6L400.2,397.9L401.2,397.3L404.9,397.3L411.3,399.7L413.8,400.0L416.1,398.2L430.2,380.6L446.6,364.9L447.6,350.7L446.4,345.8L444.7,343.0L438.9,327.8L438.5,325.5L440.2,315.4L439.4,312.0L435.4,308.4L431.0,299.9L428.1,298.4L425.4,298.3L422.8,295.7L419.5,290.9L410.3,271.6L409.5,268.0L413.4,265.8L416.4,262.2L413.9,257.5L406.8,241.8L403.8,232.9L403.2,225.3L407.2,220.5L410.1,209.4L410.2,204.8L409.7,197.1L412.8,189.0L415.1,183.3L415.8,178.8L403.8,184.6Z " data-id="SV.SS" data-name="San Salvador" id="SV.SS"/>
utf-8utf-8<path d="M974.4,598.7L974.8,591.5L972.0,582.8L966.5,580.7L963.3,583.1L963.1,589.1L961.7,595.1L963.5,600.2L963.0,605.3L966.7,603.5L971.8,605.6L975.5,603.5L974.4,598.7Z M951.2,578.6L954.0,574.7L951.9,567.8L948.8,565.7L945.3,566.0L942.6,568.7L943.3,576.2L948.2,581.6L951.2,578.6Z M899.6,261.4L900.1,270.7L901.1,278.4L900.7,291.7L896.3,320.4L896.8,324.2L898.4,326.9L899.4,330.2L899.5,333.1L898.6,342.1L896.3,353.1L892.6,365.8L880.6,393.1L879.1,402.0L875.6,407.1L861.4,422.3L858.3,426.4L856.9,432.3L855.8,446.6L856.8,453.4L856.0,456.6L854.3,458.6L849.1,462.5L847.7,467.4L846.8,479.5L847.9,490.2L851.2,497.1L851.9,500.5L843.5,534.5L843.8,539.2L843.3,542.1L836.1,561.8L835.0,562.9L830.3,563.2L826.1,561.5L818.8,555.9L816.4,564.2L810.8,601.2L821.1,603.5L877.8,607.9L892.8,604.1L883.9,596.8L886.0,589.2L895.0,581.8L927.3,564.5L936.2,557.3L940.5,547.2L941.0,541.5L940.6,538.8L933.3,532.9L920.9,518.2L916.2,516.2L909.1,510.3L913.4,497.0L927.1,474.5L929.3,484.7L931.0,488.5L934.0,490.7L968.4,474.2L976.4,465.1L977.9,459.1L977.8,452.8L976.2,447.1L973.3,443.0L967.6,440.4L958.5,443.6L954.4,441.9L951.0,431.1L954.7,418.1L967.1,391.4L968.8,382.8L970.1,365.2L972.4,356.9L976.5,351.1L981.1,346.7L983.6,341.6L981.6,333.8L984.4,326.1L994.8,304.7L999.2,297.8L992.2,294.6L975.6,277.1L973.2,275.5L967.7,273.1L965.7,271.6L962.8,266.0L960.0,253.6L956.4,250.2L950.2,250.4L945.6,254.3L941.8,259.1L937.5,262.3L933.4,262.6L925.5,260.7L921.4,260.4L918.1,261.7L912.3,266.2L910.3,267.3L907.6,266.4L901.9,261.9L899.6,261.4Z " data-id="SV.UN" data-name="La Unión" id="SV.UN"/>
utf-8utf-8<path d="M767.8,248.6L769.7,252.1L773.4,264.8L774.2,272.2L776.4,279.7L775.8,283.9L774.0,287.1L770.0,291.0L768.2,296.3L768.4,303.3L771.8,307.4L786.3,319.3L788.5,325.1L787.9,328.3L785.3,330.6L780.0,333.0L765.4,343.9L763.9,347.0L763.5,358.9L766.4,363.8L771.2,369.1L772.3,371.4L772.8,374.2L777.8,379.1L785.4,391.9L785.2,395.5L782.4,399.2L782.4,401.6L784.7,400.8L792.9,397.2L809.0,395.7L812.0,397.3L813.5,399.9L815.1,405.6L815.5,414.0L817.3,416.8L823.0,420.9L826.5,426.6L831.6,426.5L848.3,421.0L852.6,420.7L861.4,422.3L875.6,407.1L879.1,402.0L880.6,393.1L892.6,365.8L896.3,353.1L898.6,342.1L899.5,333.1L899.4,330.2L898.4,326.9L896.8,324.2L896.3,320.4L900.7,291.7L901.1,278.4L900.1,270.7L899.6,261.4L898.7,261.2L892.4,263.1L872.5,273.5L870.2,261.8L864.3,252.9L857.4,245.1L852.2,237.1L847.8,219.6L843.4,215.2L832.6,214.5L810.8,217.4L804.2,217.2L787.3,213.8L783.1,215.5L782.7,217.1L782.2,226.4L782.9,228.1L786.9,233.2L784.3,239.6L781.6,240.3L778.0,239.7L772.8,242.0L769.8,245.4L767.8,248.6Z " data-id="SV.MO" data-name="Morazán" id="SV.MO"/>
utf-8utf-8<path d="M852.6,420.7L848.3,421.0L831.6,426.5L826.5,426.6L823.0,420.9L817.3,416.8L815.5,414.0L815.1,405.6L813.5,399.9L812.0,397.3L809.0,395.7L792.9,397.2L784.7,400.8L782.4,401.6L782.4,399.2L785.2,395.5L785.4,391.9L777.8,379.1L772.8,374.2L772.3,371.4L771.2,369.1L766.4,363.8L763.5,358.9L763.9,347.0L765.4,343.9L780.0,333.0L785.3,330.6L787.9,328.3L788.5,325.1L786.3,319.3L771.8,307.4L768.4,303.3L768.2,296.3L770.0,291.0L774.0,287.1L775.8,283.9L776.4,279.7L774.2,272.2L773.4,264.8L769.7,252.1L767.8,248.6L766.1,251.4L762.5,254.8L757.9,256.5L752.8,257.0L748.2,258.8L744.7,264.7L735.7,261.7L733.0,261.9L731.6,263.6L730.1,270.7L727.1,270.4L720.8,267.5L716.9,267.2L699.8,271.3L691.9,274.9L683.7,280.1L672.6,280.7L669.8,283.3L671.8,289.2L670.7,294.8L667.3,299.5L662.6,302.7L662.8,309.2L658.3,315.8L653.8,324.0L653.8,324.1L653.8,335.2L665.2,349.4L669.2,357.7L686.3,355.5L691.2,355.9L693.4,359.4L696.3,365.5L698.9,368.5L702.2,371.3L705.3,372.6L715.3,373.9L719.0,376.0L718.8,377.4L715.8,386.3L716.2,390.3L717.5,397.2L715.3,401.5L710.2,404.3L708.9,407.9L708.9,413.4L712.9,425.1L713.1,428.0L711.9,431.7L711.9,436.1L713.0,444.1L712.7,445.2L708.9,449.7L707.5,453.4L706.8,459.3L704.9,461.1L702.0,459.4L701.3,460.2L700.5,464.2L700.5,473.6L701.0,482.3L702.6,484.4L704.6,483.6L706.2,484.2L706.7,496.4L708.1,504.9L709.9,509.9L713.4,517.3L715.9,521.5L720.5,524.3L722.6,524.9L730.6,526.0L734.3,529.1L739.1,535.8L751.1,540.2L757.4,536.9L760.4,537.0L761.6,538.6L762.5,542.9L761.9,549.9L764.2,553.0L766.8,554.6L767.7,557.4L764.0,563.7L763.0,569.1L764.7,570.3L776.1,568.3L779.6,569.1L802.0,602.0L805.2,600.6L808.0,600.6L810.8,601.2L816.4,564.2L818.8,555.9L826.1,561.5L830.3,563.2L835.0,562.9L836.1,561.8L843.3,542.1L843.8,539.2L843.5,534.5L851.9,500.5L851.2,497.1L847.9,490.2L846.8,479.5L847.7,467.4L849.1,462.5L854.3,458.6L856.0,456.6L856.8,453.4L855.8,446.6L856.9,432.3L858.3,426.4L861.4,422.3L852.6,420.7Z " data-id="SV.SM" data-name="San Miguel" id="SV.SM"/>
utf-8utf-8<path d="M646.6,329.1L642.8,328.0L632.5,326.5L630.3,325.2L629.4,320.4L621.4,315.5L617.2,313.8L603.9,305.5L598.2,305.2L595.6,304.6L582.4,304.8L577.5,303.9L572.0,299.1L569.1,300.1L563.7,305.8L558.4,304.7L555.6,305.5L542.1,311.9L535.1,313.8L528.6,311.6L525.9,311.5L523.7,314.7L521.8,328.2L512.2,350.6L510.1,357.2L508.9,359.4L507.8,361.0L498.9,369.8L501.2,379.1L500.6,386.9L499.4,394.9L500.1,400.0L504.0,399.9L514.2,396.5L520.9,398.1L521.9,399.6L529.8,423.9L529.7,429.6L528.9,432.3L523.5,446.6L520.9,456.9L520.5,467.3L521.2,471.9L523.6,475.3L529.2,479.9L531.8,483.0L534.2,486.9L535.1,491.3L533.0,497.6L530.3,499.8L527.9,505.8L528.0,525.1L527.0,528.8L524.5,531.2L515.3,535.9L513.6,537.3L510.6,542.9L508.3,557.1L514.0,560.2L516.3,552.6L519.9,547.8L525.0,545.8L533.3,544.4L537.5,540.9L540.4,535.7L544.9,529.3L552.8,521.5L554.2,518.3L556.0,503.7L557.6,497.7L559.8,492.7L582.3,452.7L587.1,438.7L589.4,424.4L592.1,420.6L599.1,419.4L599.9,416.4L613.3,400.0L622.2,402.4L631.1,396.5L638.1,387.1L641.3,378.8L669.2,357.7L665.2,349.4L653.8,335.2L653.8,324.1L646.6,329.1Z " data-id="SV.SV" data-name="San Vicente" id="SV.SV"/>
utf-8utf-8<path d="M669.2,357.7L641.3,378.8L638.1,387.1L631.1,396.5L622.2,402.4L613.3,400.0L599.9,416.4L599.1,419.4L592.1,420.6L589.4,424.4L587.1,438.7L582.3,452.7L559.8,492.7L557.6,497.7L556.0,503.7L554.2,518.3L552.8,521.5L544.9,529.3L540.4,535.7L537.5,540.9L533.3,544.4L525.0,545.8L519.9,547.8L516.3,552.6L514.0,560.2L514.2,560.3L526.4,567.0L631.4,589.1L637.2,592.6L642.2,597.1L650.0,602.0L657.3,603.3L660.7,597.7L653.5,589.0L636.4,582.6L603.2,574.8L603.5,571.6L615.4,575.7L628.5,578.3L628.9,574.8L625.6,571.9L621.1,564.9L618.5,561.9L613.4,558.7L609.8,558.0L576.2,562.0L564.8,559.0L561.9,560.3L558.9,559.8L556.1,558.0L553.5,555.5L558.9,552.9L582.3,552.2L599.4,548.7L605.5,548.7L618.9,551.8L623.7,552.2L626.7,554.5L632.3,568.1L639.5,572.5L656.5,577.4L662.2,581.3L664.5,576.4L663.7,571.4L661.9,565.8L661.1,559.0L666.0,562.6L672.7,574.8L679.4,578.3L679.2,581.3L672.9,587.7L667.6,584.5L669.1,596.1L676.9,601.8L687.5,602.1L697.5,597.7L697.8,594.2L692.0,594.3L684.7,596.1L680.8,594.2L687.4,591.2L694.8,590.4L709.7,590.9L708.2,586.2L703.9,578.5L702.6,574.8L709.6,580.7L713.8,589.7L712.5,597.0L703.1,597.7L702.9,600.6L708.7,602.1L713.9,604.1L724.2,600.5L761.9,607.0L798.0,603.7L802.0,602.0L779.6,569.1L776.1,568.3L764.7,570.3L763.0,569.1L764.0,563.7L767.7,557.4L766.8,554.6L764.2,553.0L761.9,549.9L762.5,542.9L761.6,538.6L760.4,537.0L757.4,536.9L751.1,540.2L739.1,535.8L734.3,529.1L730.6,526.0L722.6,524.9L720.5,524.3L715.9,521.5L713.4,517.3L709.9,509.9L708.1,504.9L706.7,496.4L706.2,484.2L704.6,483.6L702.6,484.4L701.0,482.3L700.5,473.6L700.5,464.2L701.3,460.2L702.0,459.4L704.9,461.1L706.8,459.3L707.5,453.4L708.9,449.7L712.7,445.2L713.0,444.1L711.9,436.1L711.9,431.7L713.1,428.0L712.9,425.1L708.9,413.4L708.9,407.9L710.2,404.3L715.3,401.5L717.5,397.2L716.2,390.3L715.8,386.3L718.8,377.4L719.0,376.0L715.3,373.9L705.3,372.6L702.2,371.3L698.9,368.5L696.3,365.5L693.4,359.4L691.2,355.9L686.3,355.5L669.2,357.7Z " data-id="SV.US" data-name="Usulután" id="SV.US"/>
utf-8utf-8<path d="M347.4,15.3L361.5,31.6L366.8,42.9L369.0,45.2L374.8,48.8L377.3,52.6L384.3,57.9L377.3,75.0L374.7,84.5L370.6,89.0L354.5,96.0L353.5,105.4L352.0,114.6L342.8,127.0L340.3,129.2L337.0,130.7L329.2,131.7L326.4,133.6L320.6,143.4L319.4,144.9L316.4,146.8L308.7,146.2L297.8,176.6L298.1,186.7L302.2,191.4L308.3,192.7L314.4,192.7L319.4,191.2L321.5,188.0L323.2,184.8L326.8,183.3L331.8,182.3L335.8,180.0L340.1,176.6L344.3,177.5L351.3,182.2L359.3,183.8L363.0,185.8L365.9,186.3L367.7,185.3L373.5,181.0L376.8,179.8L385.0,184.0L390.7,184.0L393.9,178.2L399.2,183.3L403.8,184.6L415.8,178.8L423.5,174.5L426.2,174.7L431.1,177.6L441.4,181.9L443.3,183.2L446.0,186.2L452.5,191.7L454.5,196.3L462.4,208.3L463.1,209.5L463.2,218.2L465.9,224.4L469.0,227.4L477.4,232.1L485.0,231.4L491.1,234.2L497.9,235.0L510.1,234.6L520.8,235.8L526.6,234.2L533.1,231.5L559.5,222.3L564.6,219.7L567.7,217.3L571.3,212.6L580.3,208.1L599.6,204.8L600.0,202.4L599.5,198.5L597.7,195.3L595.0,192.4L593.2,191.7L584.4,190.3L578.4,185.6L579.3,179.0L582.5,171.2L583.7,163.2L581.2,157.8L577.6,158.2L573.0,161.2L567.9,163.3L549.9,161.8L542.5,163.0L541.1,149.6L536.3,135.5L528.8,123.4L519.3,116.1L512.9,116.0L506.8,118.7L501.6,121.9L497.5,122.9L494.1,120.0L493.3,115.0L493.2,108.9L492.3,103.0L489.2,96.0L485.9,90.9L476.3,82.1L474.9,77.8L474.7,63.3L472.6,57.5L466.4,53.8L452.5,52.0L448.2,47.5L450.3,42.8L451.2,38.0L450.7,33.3L449.1,29.0L447.1,25.4L445.3,23.3L442.9,22.8L439.1,24.0L435.5,27.7L428.2,40.5L423.9,44.4L405.5,38.1L395.8,29.9L375.2,24.9L363.1,18.1L347.4,15.3Z " data-id="SV.CH" data-name="Chalatenango" id="SV.CH"/>
utf-8utf-8<path d="M163.8,189.2L167.1,190.8L174.1,196.1L176.5,199.5L177.0,203.4L179.1,207.2L180.7,208.6L183.0,213.4L181.0,221.8L169.6,253.4L179.0,256.1L182.7,256.0L187.6,255.1L191.7,258.1L197.7,265.4L199.7,270.7L203.9,276.2L205.4,279.5L203.6,286.5L201.9,287.9L200.2,291.1L204.4,293.6L206.9,297.3L209.1,301.5L212.3,302.6L215.4,301.8L218.3,298.7L218.7,294.5L221.2,288.6L224.1,285.0L225.3,284.7L231.7,288.7L239.8,296.0L244.7,301.7L247.6,310.5L252.7,312.5L272.0,316.7L275.2,303.5L284.6,281.5L286.3,271.5L286.8,262.9L288.5,250.3L291.0,246.1L295.3,246.1L296.7,245.1L300.6,239.2L305.6,238.5L307.8,237.5L309.5,234.7L312.4,217.4L319.4,191.2L314.4,192.7L308.3,192.7L302.2,191.4L298.1,186.7L297.8,176.6L308.7,146.2L316.4,146.8L319.4,144.9L320.6,143.4L326.4,133.6L329.2,131.7L337.0,130.7L340.3,129.2L342.8,127.0L352.0,114.6L353.5,105.4L354.5,96.0L370.6,89.0L374.7,84.5L377.3,75.0L384.3,57.9L377.3,52.6L374.8,48.8L369.0,45.2L366.8,42.9L361.5,31.6L347.4,15.3L341.1,14.1L330.1,4.4L327.1,9.1L327.4,0.0L323.1,1.8L312.6,12.6L305.9,14.1L301.4,12.2L297.0,9.4L290.6,8.5L282.9,12.0L271.3,25.7L265.2,30.2L264.9,21.4L260.9,16.3L254.9,15.8L248.5,20.6L245.0,28.1L246.3,33.4L248.8,38.1L249.5,43.6L246.4,48.2L241.9,51.5L239.1,55.5L240.9,62.1L249.5,63.4L252.2,64.8L257.2,74.2L257.5,76.4L257.6,83.6L258.0,86.7L259.6,88.7L264.6,91.6L265.7,93.5L265.0,100.9L262.1,103.8L216.5,115.7L205.1,121.2L193.7,130.1L184.5,140.1L163.3,174.9L161.8,178.7L161.8,182.3L163.8,189.2Z " data-id="SV.SA" data-name="Santa Ana" id="SV.SA"/>
utf-8</g>
</svg>
