<?xml version="1.0" ?>
<!DOCTYPE svg
  PUBLIC '-//W3C//DTD SVG 1.1//EN'
  'http://www.w3.org/Graphics/SVG/1.1/DTD/svg11.dtd'>
<svg enable_background="new 0 0 1000 955" height="955px" pretty_print="True" style="stroke-linejoin: round; stroke:#000; fill: none;" version="1.1" viewBox="0 0 1000 955" width="1000px" xmlns="http://www.w3.org/2000/svg" xmlns:xlink="http://www.w3.org/1999/xlink">
utf-8<defs>
utf-8utf-8<style type="text/css">
<![CDATA[path { fill-rule: evenodd; }]]>utf-8utf-8</style>
utf-8</defs>
utf-8<metadata>
utf-8utf-8<views>
utf-8utf-8utf-8<view h="955.1038301" padding="0" w="1000">
utf-8utf-8utf-8utf-8<proj flip="auto" id="robinson" lon0="35.9811862161"/>
utf-8utf-8utf-8utf-8<bbox h="84.88" w="88.96" x="497.65" y="-626.57"/>
utf-8utf-8utf-8</view>
utf-8utf-8</views>
utf-8</metadata>
utf-8<g class="" id="provinces">
utf-8utf-8<path d="M59.9,288.8L49.9,282.2L45.1,280.0L40.1,279.9L37.7,279.3L35.7,277.7L34.8,270.5L32.6,268.2L29.6,268.7L23.6,270.5L22.0,270.0L18.7,276.1L18.5,279.8L17.3,282.6L13.6,283.5L6.0,283.0L8.4,285.8L11.1,290.0L13.3,294.5L14.4,298.1L14.8,303.6L10.2,315.2L6.7,316.5L6.0,317.9L6.6,320.2L8.3,322.8L8.9,325.0L8.4,328.4L6.4,331.2L3.5,333.1L0.5,334.3L0.7,335.4L3.6,334.3L3.1,338.2L9.0,341.1L10.0,342.1L9.7,349.2L11.5,350.0L17.1,348.3L19.3,351.2L24.4,354.0L33.2,364.2L34.9,365.7L34.9,368.5L37.6,380.8L38.7,384.1L37.4,390.5L40.5,395.5L47.5,397.8L50.1,399.4L55.1,403.3L56.2,403.6L79.6,401.7L83.3,399.6L85.4,399.8L91.8,402.8L90.5,395.4L84.1,376.1L80.6,368.7L79.0,364.3L79.4,343.2L78.4,330.5L77.2,324.5L75.3,320.0L73.2,317.4L73.2,315.1L76.7,311.8L76.8,304.9L77.3,303.2L79.5,301.0L83.1,298.3L84.1,296.8L81.7,293.1L71.1,293.7L66.5,294.7L64.2,294.5L62.4,288.3L59.9,288.8Z " data-id="SY.LA" data-name="Lattakia" id="SY.LA"/>
utf-8utf-8<path d="M85.4,399.8L83.3,399.6L79.6,401.7L56.2,403.6L55.1,403.3L50.1,399.4L47.5,397.8L40.5,395.5L44.8,402.6L46.8,407.7L43.9,411.0L37.9,422.3L37.2,424.6L38.3,433.7L41.2,441.3L40.7,444.1L37.9,449.5L38.4,453.4L39.9,455.9L38.1,459.9L44.8,473.5L47.0,479.4L50.9,485.3L51.8,493.1L54.2,497.6L55.9,502.6L59.4,508.5L60.5,512.1L65.2,512.9L68.2,515.1L71.7,516.1L75.3,516.2L79.4,515.7L83.3,515.9L83.4,508.8L91.8,489.5L99.7,479.5L103.8,473.1L103.3,471.2L105.9,465.2L108.7,464.3L107.9,463.0L102.7,459.2L101.0,456.9L100.1,454.2L96.4,451.1L90.5,451.7L87.9,451.6L80.4,450.1L78.7,445.0L81.8,443.9L85.0,443.8L85.9,443.0L93.3,440.6L97.2,431.9L96.8,428.9L92.3,406.4L91.8,402.8L85.4,399.8Z " data-id="SY.TA" data-name="Tartus" id="SY.TA"/>
utf-8utf-8<path d="M522.5,127.3L514.2,127.7L489.1,119.7L481.1,120.3L477.8,121.3L452.7,122.5L441.5,121.1L431.4,116.2L426.2,111.5L429.5,122.9L427.5,125.8L419.8,126.9L418.7,128.5L419.0,130.1L421.7,136.1L425.4,136.3L433.1,131.4L434.9,134.3L436.4,147.2L436.4,152.6L435.7,164.8L435.2,168.1L433.8,171.9L429.1,180.8L426.3,184.0L417.0,191.2L405.2,198.2L379.9,202.5L374.2,202.7L370.0,203.8L364.0,207.1L359.3,211.0L358.0,213.4L355.6,220.6L352.8,225.9L352.2,229.9L353.7,235.3L356.4,241.1L364.8,250.7L374.3,259.4L375.3,261.4L374.4,268.0L372.8,272.2L370.1,275.4L363.1,287.8L360.1,298.5L358.4,315.8L358.7,324.5L359.2,325.8L362.8,330.2L397.0,362.2L403.9,366.9L405.9,368.8L408.8,372.5L422.5,370.8L468.9,374.4L559.4,397.9L612.8,300.7L613.8,298.1L606.3,294.1L606.1,292.1L606.1,280.2L611.9,210.6L615.8,165.3L615.1,162.8L613.3,159.9L611.3,158.1L600.9,152.7L585.7,146.8L582.9,146.9L576.5,148.5L571.8,147.3L569.4,145.5L560.1,135.4L558.3,132.2L553.1,121.4L522.5,127.3Z " data-id="SY.RA" data-name="Ar Raqqah" id="SY.RA"/>
utf-8utf-8<path d="M407.4,94.2L399.1,90.0L368.4,81.2L358.0,79.9L352.7,80.5L342.8,84.5L326.5,95.8L322.3,96.9L298.9,108.3L273.8,113.8L264.9,117.9L243.9,132.5L237.4,132.5L211.5,127.9L208.1,128.1L198.5,130.7L190.3,129.3L187.5,130.6L184.4,134.9L183.1,135.3L179.8,133.6L176.5,131.0L175.6,128.8L176.2,122.6L175.5,118.6L173.9,116.2L165.9,109.6L162.8,107.9L156.5,106.0L146.6,105.4L115.0,95.2L113.5,95.3L114.7,100.0L113.4,103.7L111.3,107.1L109.9,110.9L110.0,122.6L108.8,127.1L107.7,135.2L108.9,143.8L109.2,152.1L105.5,159.5L105.2,162.3L106.1,165.5L110.3,175.9L111.3,177.4L116.0,180.0L116.9,181.3L118.1,185.7L117.4,188.6L117.8,191.9L123.0,192.5L125.7,193.5L127.8,195.6L127.8,195.6L129.6,194.5L134.9,193.4L140.7,193.2L143.6,190.7L147.1,192.7L148.8,197.3L154.2,201.8L159.0,207.0L159.2,212.0L158.5,213.0L145.8,226.7L144.3,230.0L148.1,234.2L149.5,236.5L154.2,240.3L168.1,246.4L169.7,247.4L171.7,251.0L173.5,260.1L183.4,272.3L193.1,286.6L195.7,289.6L199.6,290.4L205.2,294.7L211.1,298.7L211.6,299.5L211.4,303.6L209.4,305.9L205.8,309.1L208.9,316.3L210.7,319.1L213.5,325.3L220.2,332.4L224.4,334.6L227.9,337.4L234.8,340.1L248.7,344.8L257.4,349.5L266.6,349.7L292.0,347.8L306.7,357.2L309.5,358.4L316.8,360.4L330.3,362.4L397.0,362.2L362.8,330.2L359.2,325.8L358.7,324.5L358.4,315.8L360.1,298.5L363.1,287.8L370.1,275.4L372.8,272.2L374.4,268.0L375.3,261.4L374.3,259.4L364.8,250.7L356.4,241.1L353.7,235.3L352.2,229.9L352.8,225.9L355.6,220.6L358.0,213.4L359.3,211.0L364.0,207.1L370.0,203.8L374.2,202.7L379.9,202.5L405.2,198.2L417.0,191.2L426.3,184.0L429.1,180.8L433.8,171.9L435.2,168.1L435.7,164.8L436.4,152.6L436.4,147.2L434.9,134.3L433.1,131.4L425.4,136.3L421.7,136.1L419.0,130.1L418.7,128.5L419.8,126.9L427.5,125.8L429.5,122.9L426.2,111.5L407.4,94.2Z " data-id="SY.HL" data-name="Aleppo" id="SY.HL"/>
utf-8utf-8<path d="M232.1,341.8L230.2,347.2L227.2,354.1L220.4,358.7L219.0,361.0L216.8,367.6L216.7,370.4L218.7,372.2L220.8,372.0L223.8,367.5L225.7,367.9L227.1,370.9L227.9,379.4L224.7,379.1L223.2,380.0L221.5,383.4L219.6,384.5L210.5,385.0L207.9,383.8L205.9,376.8L205.8,374.6L206.9,371.4L206.4,366.9L205.4,365.2L202.7,364.9L201.8,367.3L198.3,371.3L196.1,375.6L194.2,376.6L190.6,377.0L186.8,374.2L183.9,370.6L178.7,366.3L176.0,365.8L157.8,371.0L149.7,370.7L138.9,367.8L134.3,367.8L131.2,367.2L127.2,362.0L124.3,360.7L117.4,363.0L113.9,362.1L112.7,360.9L111.5,357.6L107.2,349.9L107.9,347.1L105.0,334.1L104.9,330.7L105.8,320.4L105.8,312.0L105.2,309.6L104.0,308.9L97.2,308.6L95.0,308.0L93.2,304.5L90.9,302.7L86.7,304.0L83.5,304.1L80.5,302.3L79.5,301.0L77.3,303.2L76.8,304.9L76.7,311.8L73.2,315.1L73.2,317.4L75.3,320.0L77.2,324.5L78.4,330.5L79.4,343.2L79.0,364.3L80.6,368.7L84.1,376.1L90.5,395.4L91.8,402.8L92.3,406.4L96.8,428.9L97.2,431.9L93.3,440.6L85.9,443.0L85.0,443.8L81.8,443.9L78.7,445.0L80.4,450.1L87.9,451.6L90.5,451.7L96.4,451.1L100.1,454.2L101.0,456.9L102.7,459.2L107.9,463.0L108.7,464.3L109.9,466.0L108.6,468.5L115.1,473.4L116.6,470.8L119.1,470.1L121.5,472.6L126.5,473.7L129.1,471.4L129.1,469.0L130.4,465.7L130.0,462.9L133.3,458.7L134.3,456.6L137.4,454.1L139.1,454.4L140.3,459.8L142.9,460.7L143.2,462.3L146.6,464.1L150.0,462.6L153.4,461.8L161.1,462.1L172.7,455.8L174.1,455.3L183.7,454.8L190.7,451.7L192.9,450.1L196.4,449.8L198.5,450.4L201.1,452.3L208.1,463.3L213.1,471.9L226.3,462.9L230.2,462.2L233.3,459.2L238.8,461.8L239.3,460.3L244.9,456.0L246.8,456.3L248.9,457.9L250.4,460.6L255.0,462.8L257.0,461.9L258.4,457.4L260.8,452.2L263.7,451.6L266.2,452.2L267.1,449.9L275.7,449.5L279.2,448.0L285.9,447.9L287.1,448.6L289.5,451.8L293.4,451.9L293.6,450.0L291.5,441.3L292.4,436.2L301.2,429.7L307.2,428.5L314.1,425.9L326.8,422.8L330.4,424.5L332.5,426.7L334.6,427.7L338.5,427.9L344.0,433.6L347.0,442.4L350.5,445.6L360.2,452.8L370.2,463.9L371.1,464.8L373.5,464.0L376.3,459.9L376.8,452.8L379.1,447.0L385.8,438.2L405.3,429.0L406.7,427.1L404.8,419.2L405.5,413.9L409.1,406.9L411.4,400.2L411.7,397.0L409.4,375.8L408.8,372.5L405.9,368.8L403.9,366.9L397.0,362.2L330.3,362.4L316.8,360.4L309.5,358.4L306.7,357.2L292.0,347.8L266.6,349.7L257.4,349.5L248.7,344.8L234.8,340.1L232.1,341.8Z " data-id="SY.HM" data-name="Hamah" id="SY.HM"/>
utf-8utf-8<path d="M468.9,374.4L422.5,370.8L408.8,372.5L409.4,375.8L411.7,397.0L411.4,400.2L409.1,406.9L405.5,413.9L404.8,419.2L406.7,427.1L405.3,429.0L385.8,438.2L379.1,447.0L376.8,452.8L376.3,459.9L373.5,464.0L371.1,464.8L370.2,463.9L360.2,452.8L350.5,445.6L347.0,442.4L344.0,433.6L338.5,427.9L334.6,427.7L332.5,426.7L330.4,424.5L326.8,422.8L314.1,425.9L307.2,428.5L301.2,429.7L292.4,436.2L291.5,441.3L293.6,450.0L293.4,451.9L289.5,451.8L287.1,448.6L285.9,447.9L279.2,448.0L275.7,449.5L267.1,449.9L266.2,452.2L263.7,451.6L260.8,452.2L258.4,457.4L257.0,461.9L255.0,462.8L250.4,460.6L248.9,457.9L246.8,456.3L244.9,456.0L239.3,460.3L238.8,461.8L233.3,459.2L230.2,462.2L226.3,462.9L213.1,471.9L208.1,463.3L201.1,452.3L198.5,450.4L196.4,449.8L192.9,450.1L190.7,451.7L183.7,454.8L174.1,455.3L172.7,455.8L161.1,462.1L153.4,461.8L150.0,462.6L146.6,464.1L143.2,462.3L142.9,460.7L140.3,459.8L139.1,454.4L137.4,454.1L134.3,456.6L133.3,458.7L130.0,462.9L130.4,465.7L129.1,469.0L129.1,471.4L126.5,473.7L121.5,472.6L119.1,470.1L116.6,470.8L115.1,473.4L108.6,468.5L109.9,466.0L108.7,464.3L105.9,465.2L103.3,471.2L103.8,473.1L99.7,479.5L91.8,489.5L83.4,508.8L83.3,515.9L90.2,516.4L93.6,514.8L97.4,516.9L106.8,516.4L109.9,512.4L109.9,507.2L112.9,504.9L115.4,506.4L119.9,513.2L123.4,516.0L127.3,517.3L131.2,517.2L134.8,516.0L134.9,522.0L133.9,522.8L132.1,521.5L129.7,520.8L127.5,522.3L128.0,527.3L127.7,530.3L124.9,532.7L120.9,535.1L118.6,537.9L125.7,540.7L130.3,540.5L134.6,540.8L140.1,547.3L142.4,549.0L145.2,550.2L152.9,555.2L154.0,556.8L153.9,562.0L152.9,566.8L158.4,574.5L160.3,576.4L163.6,577.0L164.6,578.5L164.6,581.0L162.5,585.5L165.0,591.8L169.2,595.6L170.3,597.4L173.4,596.5L176.9,594.3L179.4,593.8L186.9,595.5L198.2,596.9L205.1,593.7L209.7,592.3L215.6,596.9L222.1,603.4L224.8,606.9L230.3,613.1L235.9,620.6L239.2,625.6L241.9,628.5L249.8,634.7L267.4,644.2L271.5,644.9L274.5,644.5L278.8,646.3L291.2,664.4L295.0,667.0L309.2,679.7L312.1,681.3L330.7,696.7L337.7,710.1L350.0,724.5L361.8,732.8L370.7,737.5L378.5,739.6L381.2,740.0L393.9,747.7L464.5,799.3L495.6,778.0L531.4,753.9L628.2,691.2L724.6,628.4L735.0,621.6L629.7,494.3L599.0,457.6L596.9,452.6L596.4,441.7L595.4,438.1L582.6,417.0L576.9,410.7L559.4,397.9L468.9,374.4Z " data-id="SY.HI" data-name="Homs (Hims)" id="SY.HI"/>
utf-8utf-8<path d="M227.9,337.4L224.4,334.6L220.2,332.4L213.5,325.3L210.7,319.1L208.9,316.3L205.8,309.1L209.4,305.9L211.4,303.6L211.6,299.5L211.1,298.7L205.2,294.7L199.6,290.4L195.7,289.6L193.1,286.6L183.4,272.3L173.5,260.1L171.7,251.0L169.7,247.4L168.1,246.4L154.2,240.3L149.5,236.5L148.1,234.2L144.3,230.0L145.8,226.7L158.5,213.0L159.2,212.0L159.0,207.0L154.2,201.8L148.8,197.3L147.1,192.7L143.6,190.7L140.7,193.2L134.9,193.4L129.6,194.5L127.8,195.6L129.7,198.5L132.1,204.4L132.8,208.7L132.1,210.3L121.3,212.4L118.4,212.3L106.3,210.5L103.5,211.0L100.7,215.3L97.7,215.6L93.3,215.0L86.7,210.6L85.1,212.4L87.7,215.0L85.9,219.4L85.9,222.2L88.9,249.9L90.0,255.4L86.8,256.5L80.4,254.1L76.9,262.1L74.5,262.7L70.6,261.7L65.8,263.5L63.1,269.0L63.8,282.6L62.8,288.2L62.4,288.3L64.2,294.5L66.5,294.7L71.1,293.7L81.7,293.1L84.1,296.8L83.1,298.3L79.5,301.0L80.5,302.3L83.5,304.1L86.7,304.0L90.9,302.7L93.2,304.5L95.0,308.0L97.2,308.6L104.0,308.9L105.2,309.6L105.8,312.0L105.8,320.4L104.9,330.7L105.0,334.1L107.9,347.1L107.2,349.9L111.5,357.6L112.7,360.9L113.9,362.1L117.4,363.0L124.3,360.7L127.2,362.0L131.2,367.2L134.3,367.8L138.9,367.8L149.7,370.7L157.8,371.0L176.0,365.8L178.7,366.3L183.9,370.6L186.8,374.2L190.6,377.0L194.2,376.6L196.1,375.6L198.3,371.3L201.8,367.3L202.7,364.9L205.4,365.2L206.4,366.9L206.9,371.4L205.8,374.6L205.9,376.8L207.9,383.8L210.5,385.0L219.6,384.5L221.5,383.4L223.2,380.0L224.7,379.1L227.9,379.4L227.1,370.9L225.7,367.9L223.8,367.5L220.8,372.0L218.7,372.2L216.7,370.4L216.8,367.6L219.0,361.0L220.4,358.7L227.2,354.1L230.2,347.2L232.1,341.8L234.8,340.1L227.9,337.4Z " data-id="SY.ID" data-name="Idlib" id="SY.ID"/>
utf-8utf-8<path d="M553.1,121.4L558.3,132.2L560.1,135.4L569.4,145.5L571.8,147.3L576.5,148.5L582.9,146.9L585.7,146.8L600.9,152.7L611.3,158.1L613.3,159.9L615.1,162.8L615.8,165.3L620.2,172.8L634.5,192.0L656.7,211.8L789.6,325.8L795.0,328.8L798.0,330.1L808.0,332.2L813.9,334.3L826.2,336.7L857.0,337.5L875.0,340.0L879.2,332.0L880.8,326.3L880.8,320.3L876.5,293.9L874.8,287.6L872.3,281.5L856.5,255.3L851.1,246.0L849.6,239.5L847.7,191.3L848.3,186.2L860.7,155.2L865.0,153.0L874.8,151.4L921.6,141.2L925.6,139.2L929.2,135.7L973.1,80.5L995.2,54.1L999.0,47.6L995.0,41.2L993.3,33.1L989.8,29.5L990.9,18.8L989.6,16.3L982.5,11.6L979.7,7.6L978.7,7.4L976.2,9.7L971.1,7.4L969.0,7.1L968.1,2.1L966.0,0.0L961.5,3.6L955.2,13.7L945.2,24.6L939.0,28.6L859.6,47.8L816.6,49.9L813.1,49.0L805.8,46.2L767.6,38.8L739.1,43.1L731.8,46.0L712.7,57.4L705.9,59.4L699.0,60.3L695.9,61.6L693.1,63.5L664.4,84.5L659.0,87.2L653.3,88.3L648.0,90.2L633.8,99.4L602.2,111.8L553.1,121.4Z " data-id="SY.HA" data-name="Hasaka (Al Haksa)" id="SY.HA"/>
utf-8utf-8<path d="M615.8,165.3L611.9,210.6L606.1,280.2L606.1,292.1L606.3,294.1L613.8,298.1L612.8,300.7L559.4,397.9L576.9,410.7L582.6,417.0L595.4,438.1L596.4,441.7L596.9,452.6L599.0,457.6L629.7,494.3L735.0,621.6L740.6,617.9L809.9,572.5L847.1,562.2L851.3,559.2L854.2,554.1L878.0,489.5L878.7,484.8L878.4,479.8L872.5,446.6L866.5,410.7L866.5,399.1L869.7,375.5L868.5,356.8L869.2,351.1L875.0,340.0L857.0,337.5L826.2,336.7L813.9,334.3L808.0,332.2L798.0,330.1L795.0,328.8L789.6,325.8L656.7,211.8L634.5,192.0L620.2,172.8L615.8,165.3Z " data-id="SY.DY" data-name="Dayr Az Zawr" id="SY.DY"/>
utf-8utf-8<path d="M344.5,882.3L339.8,877.2L331.4,871.5L307.4,849.8L304.7,839.4L304.0,837.5L301.3,834.1L298.7,833.2L294.2,833.0L292.0,834.3L289.6,833.4L281.0,828.7L278.3,824.6L276.5,822.7L274.4,817.4L269.9,814.6L259.4,812.4L255.1,811.7L251.1,808.8L250.0,805.1L248.4,802.1L242.2,796.4L239.8,791.2L237.8,789.2L230.9,785.3L226.8,781.7L187.5,787.4L184.6,789.0L183.4,789.3L177.2,788.9L173.3,792.8L172.6,795.4L176.8,809.2L177.2,812.1L183.7,812.9L184.8,814.5L187.5,823.2L186.3,823.7L176.9,823.1L170.5,823.5L163.4,828.3L157.0,836.0L157.9,838.9L156.9,841.5L158.2,847.3L161.8,854.1L162.5,860.3L165.2,872.9L164.2,879.5L164.7,880.3L170.5,882.5L176.3,883.8L178.5,885.2L179.9,887.5L179.7,888.9L176.2,892.3L173.3,893.6L174.2,898.7L173.8,903.2L179.2,904.1L183.3,903.8L185.1,905.4L189.0,905.6L191.1,908.5L189.9,913.2L190.9,915.5L193.3,918.0L195.9,922.0L195.2,928.8L196.8,944.8L218.8,947.5L225.0,951.9L227.5,950.2L231.0,950.3L241.4,953.0L245.6,952.4L269.1,934.9L307.8,907.8L332.9,890.3L344.5,882.3Z " data-id="SY.SU" data-name="As Suwayda'" id="SY.SU"/>
utf-8utf-8<path d="M170.4,597.6L166.5,602.5L163.6,608.6L157.3,614.6L154.7,618.5L153.4,625.2L151.0,626.5L148.8,626.6L143.5,625.1L140.4,626.8L135.9,633.5L130.3,639.0L126.4,645.4L123.8,652.2L126.6,655.9L131.6,659.5L137.9,660.6L140.8,662.2L141.6,666.1L140.0,668.6L137.0,669.1L130.9,667.7L122.4,663.7L119.6,663.2L117.3,664.1L112.9,667.4L109.6,667.5L104.9,663.5L99.6,667.0L91.8,670.0L88.8,676.1L84.1,680.5L81.6,685.9L79.0,688.6L78.7,697.1L75.5,699.2L75.3,703.3L77.6,704.6L81.1,705.2L93.3,711.3L94.9,713.5L94.8,717.0L92.7,719.8L86.9,723.3L83.2,723.3L79.6,724.5L78.1,727.0L80.7,730.8L78.9,736.9L74.4,741.0L71.7,742.7L72.5,745.5L67.3,752.7L68.2,760.1L69.8,763.2L76.8,766.6L77.8,769.3L77.0,771.2L77.3,775.9L79.0,778.7L80.4,775.9L87.3,776.3L90.0,776.9L91.2,784.1L91.0,785.4L94.6,786.8L97.6,790.2L104.9,789.1L107.3,786.8L122.6,784.3L130.3,781.4L131.6,777.6L130.9,771.9L131.5,770.1L133.4,769.9L140.1,778.4L141.6,779.3L145.3,779.9L147.4,782.4L151.2,785.2L155.4,786.4L157.8,786.5L158.9,781.7L171.0,772.0L174.6,768.5L179.4,774.3L185.5,780.5L186.4,782.4L186.9,785.5L187.5,787.4L226.8,781.7L230.9,785.3L237.8,789.2L239.8,791.2L242.2,796.4L248.4,802.1L250.0,805.1L251.1,808.8L255.1,811.7L259.4,812.4L269.9,814.6L274.4,817.4L276.5,822.7L278.3,824.6L281.0,828.7L289.6,833.4L292.0,834.3L294.2,833.0L298.7,833.2L301.3,834.1L304.0,837.5L304.7,839.4L307.4,849.8L331.4,871.5L339.8,877.2L344.5,882.3L358.0,872.9L383.0,855.5L408.0,838.0L452.1,807.7L464.5,799.3L393.9,747.7L381.2,740.0L378.5,739.6L370.7,737.5L361.8,732.8L350.0,724.5L337.7,710.1L330.7,696.7L312.1,681.3L309.2,679.7L295.0,667.0L291.2,664.4L278.8,646.3L274.5,644.5L271.5,644.9L267.4,644.2L249.8,634.7L241.9,628.5L239.2,625.6L235.9,620.6L230.3,613.1L224.8,606.9L222.1,603.4L215.6,596.9L209.7,592.3L205.1,593.7L198.2,596.9L186.9,595.5L179.4,593.8L176.9,594.3L173.4,596.5L170.3,597.4L170.4,597.6Z M145.2,723.5L146.0,727.0L145.0,731.2L141.8,734.8L141.5,737.2L138.5,736.6L128.3,731.8L125.1,734.2L124.0,732.3L127.0,728.8L123.0,726.9L120.5,727.3L118.9,723.8L124.6,720.4L129.3,720.3L137.8,717.7L142.2,718.0L145.2,721.5L145.2,723.5Z " data-id="SY.RD" data-name="Rif Dimashq" id="SY.RD"/>
utf-8utf-8<path d="M91.2,784.1L90.0,776.9L87.3,776.3L80.4,775.9L79.0,778.7L77.3,775.9L77.0,771.2L77.8,769.3L76.8,766.6L69.8,763.2L69.9,763.3L70.0,768.3L67.1,771.1L71.2,771.4L72.1,772.0L75.5,781.4L79.7,786.6L79.0,789.2L80.4,790.7L81.3,790.0L83.9,792.7L82.1,799.8L83.8,803.3L78.4,803.8L78.3,808.6L82.2,825.4L85.7,826.7L90.1,830.0L88.7,833.9L85.7,837.4L82.0,846.5L80.7,854.7L80.7,854.9L81.7,853.1L89.1,845.4L93.4,841.5L94.2,839.2L92.6,833.7L91.8,832.7L93.5,830.8L96.3,830.7L97.6,826.8L93.6,821.1L92.5,817.9L93.1,806.1L95.6,800.2L90.6,792.6L91.0,785.4L91.2,784.1Z " data-id="SY.QU" data-name="Quneitra" id="SY.QU"/>
utf-8utf-8<path d="M186.9,785.5L186.4,782.4L185.5,780.5L179.4,774.3L174.6,768.5L171.0,772.0L158.9,781.7L157.8,786.5L155.4,786.4L151.2,785.2L147.4,782.4L145.3,779.9L141.6,779.3L140.1,778.4L133.4,769.9L131.5,770.1L130.9,771.9L131.6,777.6L130.3,781.4L122.6,784.3L107.3,786.8L104.9,789.1L97.6,790.2L94.6,786.8L91.0,785.4L90.6,792.6L95.6,800.2L93.1,806.1L92.5,817.9L93.6,821.1L97.6,826.8L96.3,830.7L93.5,830.8L91.8,832.7L92.6,833.7L94.2,839.2L93.4,841.5L89.1,845.4L81.7,853.1L80.7,854.9L81.1,855.9L76.8,864.1L73.2,866.5L70.4,871.4L73.6,873.9L91.0,877.9L95.7,881.6L99.2,882.1L99.6,883.4L98.5,885.3L100.1,887.1L103.3,889.0L105.6,888.6L109.3,888.8L110.3,891.0L110.2,894.2L110.7,897.7L112.5,900.9L120.9,911.7L122.1,914.7L126.9,915.0L132.6,914.2L136.3,915.1L141.3,913.8L147.0,919.0L158.0,926.1L173.4,939.3L179.1,941.6L188.2,942.5L190.9,944.1L196.8,944.8L195.2,928.8L195.9,922.0L193.3,918.0L190.9,915.5L189.9,913.2L191.1,908.5L189.0,905.6L185.1,905.4L183.3,903.8L179.2,904.1L173.8,903.2L174.2,898.7L173.3,893.6L176.2,892.3L179.7,888.9L179.9,887.5L178.5,885.2L176.3,883.8L170.5,882.5L164.7,880.3L164.2,879.5L165.2,872.9L162.5,860.3L161.8,854.1L158.2,847.3L156.9,841.5L157.9,838.9L157.0,836.0L163.4,828.3L170.5,823.5L176.9,823.1L186.3,823.7L187.5,823.2L184.8,814.5L183.7,812.9L177.2,812.1L176.8,809.2L172.6,795.4L173.3,792.8L177.2,788.9L183.4,789.3L184.6,789.0L187.5,787.4L186.9,785.5Z " data-id="SY.DR" data-name="Dar`a" id="SY.DR"/>
utf-8utf-8<path d="M145.2,723.5L145.2,721.5L142.2,718.0L137.8,717.7L129.3,720.3L124.6,720.4L118.9,723.8L120.5,727.3L123.0,726.9L127.0,728.8L124.0,732.3L125.1,734.2L128.3,731.8L138.5,736.6L141.5,737.2L141.8,734.8L145.0,731.2L146.0,727.0L145.2,723.5Z " data-id="SY.DI" data-name="Damascus" id="SY.DI"/>
utf-8</g>
</svg>
