<?xml version="1.0" ?>
<!DOCTYPE svg
  PUBLIC '-//W3C//DTD SVG 1.1//EN'
  'http://www.w3.org/Graphics/SVG/1.1/DTD/svg11.dtd'>
<svg enable_background="new 0 0 1000 1377" height="1377px" pretty_print="True" style="stroke-linejoin: round; stroke:#000; fill: none;" version="1.1" viewBox="0 0 1000 1377" width="1000px" xmlns="http://www.w3.org/2000/svg" xmlns:xlink="http://www.w3.org/1999/xlink">
utf-8<defs>
utf-8utf-8<style type="text/css">
<![CDATA[path { fill-rule: evenodd; }]]>utf-8utf-8</style>
utf-8</defs>
utf-8<metadata>
utf-8utf-8<views>
utf-8utf-8utf-8<view h="1377.44473002" padding="0" w="1000">
utf-8utf-8utf-8utf-8<proj flip="auto" id="robinson" lon0="31.369715518"/>
utf-8utf-8utf-8utf-8<bbox h="26.53" w="19.27" x="441.9" y="431.57"/>
utf-8utf-8utf-8</view>
utf-8utf-8</views>
utf-8</metadata>
utf-8<g class="" id="provinces">
utf-8utf-8<path d="M107.9,483.7L116.7,487.8L221.6,561.2L225.5,567.0L230.9,579.9L235.9,589.0L239.1,592.7L243.4,594.9L247.5,595.4L280.7,603.5L288.3,603.9L294.7,600.8L299.5,599.5L306.1,598.9L315.6,599.4L319.8,600.2L322.3,601.5L325.9,606.3L331.6,612.0L346.4,624.0L355.2,626.8L363.4,627.2L369.5,625.2L373.5,622.3L375.7,618.2L375.8,611.9L375.1,597.4L376.4,589.2L378.8,581.3L380.2,573.5L379.8,566.5L378.9,560.8L379.3,556.3L382.0,551.8L391.1,543.0L394.0,538.4L395.2,533.4L395.2,526.6L394.1,515.2L394.7,510.7L396.7,507.1L400.0,503.1L405.1,499.5L412.6,495.9L435.3,488.7L443.0,485.2L446.2,483.4L447.5,481.9L449.2,478.1L453.6,472.6L456.9,471.7L482.7,475.4L489.5,474.6L494.6,472.6L499.1,469.3L507.4,464.8L551.9,448.4L557.4,445.1L560.9,440.4L562.3,436.7L565.6,422.2L567.7,418.2L571.2,415.6L583.4,409.5L590.6,404.4L595.2,398.3L599.8,388.2L603.5,383.9L610.1,378.9L615.9,377.1L620.9,376.4L650.6,376.0L666.2,373.1L691.5,362.0L697.3,353.5L700.8,332.1L702.1,188.2L704.9,180.7L716.2,185.6L720.6,186.5L725.2,186.5L729.8,185.4L738.3,181.9L742.4,180.8L746.8,180.7L751.9,179.2L755.9,177.5L761.6,169.6L749.9,161.2L684.5,114.4L608.9,60.5L533.3,6.7L514.7,0.0L492.7,0.4L466.5,7.6L444.8,18.6L365.1,89.3L295.1,151.5L284.2,169.7L269.9,215.6L223.3,317.0L166.6,411.9L107.9,483.7Z " data-id="SZ.HH" data-name="Hhohho" id="SZ.HH"/>
utf-8utf-8<path d="M761.6,169.6L755.9,177.5L751.9,179.2L746.8,180.7L742.4,180.8L738.3,181.9L729.8,185.4L725.2,186.5L720.6,186.5L716.2,185.6L704.9,180.7L702.1,188.2L700.8,332.1L697.3,353.5L691.5,362.0L703.3,412.8L704.2,429.5L702.9,434.9L703.8,439.4L706.6,446.7L699.0,469.3L695.8,491.1L692.2,504.8L686.5,517.9L678.9,527.8L671.1,536.3L656.0,549.5L650.5,556.1L648.9,562.2L648.3,569.6L645.6,573.5L641.0,577.0L630.8,582.9L629.1,585.4L629.0,589.1L631.3,600.2L631.9,607.3L629.6,627.7L625.2,636.2L624.0,642.9L623.9,648.0L625.5,657.4L625.7,662.0L624.7,669.1L619.7,673.3L613.1,676.8L606.1,679.5L602.2,682.8L602.5,687.7L608.1,699.3L610.5,708.2L612.9,734.8L612.5,766.2L609.0,773.7L603.3,778.7L558.4,800.1L555.3,802.5L552.0,806.0L549.1,810.3L528.7,855.4L522.4,875.8L520.6,893.2L563.7,891.5L568.7,894.4L572.4,898.3L569.7,904.0L562.9,915.9L561.2,922.1L560.6,928.7L561.6,938.9L559.4,945.8L555.4,952.5L540.8,969.8L535.1,981.2L524.6,997.1L521.5,1002.8L518.7,1010.4L520.4,1016.5L533.8,1045.9L537.4,1051.9L546.3,1063.1L551.2,1067.8L555.3,1069.6L559.8,1068.5L564.2,1065.6L568.0,1064.4L573.2,1066.3L577.7,1067.5L583.5,1071.5L590.2,1077.8L602.2,1093.0L619.4,1107.6L651.3,1129.1L657.9,1132.4L664.5,1134.7L671.8,1135.5L679.0,1134.8L701.1,1128.8L707.3,1128.6L714.2,1131.3L718.3,1136.8L729.5,1171.1L733.3,1174.7L739.0,1176.2L745.8,1177.0L752.9,1179.1L775.7,1189.0L778.1,1191.0L779.0,1193.7L777.1,1208.8L777.3,1212.7L778.7,1217.4L783.5,1219.3L789.4,1220.5L802.4,1221.2L808.3,1222.4L810.1,1224.4L810.1,1228.1L809.0,1232.7L808.3,1237.7L810.5,1239.5L813.6,1240.2L835.3,1241.5L837.6,1187.8L856.3,1107.9L873.0,1036.4L891.0,959.5L891.2,933.4L941.1,933.7L952.8,936.1L969.8,955.3L981.4,961.0L999.6,736.6L996.8,665.3L966.8,590.9L962.8,566.5L959.6,476.7L964.9,451.4L994.2,382.5L998.4,359.3L995.3,329.2L988.6,297.0L986.8,265.7L998.4,238.3L949.6,224.9L929.0,212.8L910.9,193.3L866.6,215.7L845.0,221.0L824.0,214.2L761.6,169.6Z " data-id="SZ.LU" data-name="Lubombo" id="SZ.LU"/>
utf-8utf-8<path d="M522.4,875.8L528.7,855.4L549.1,810.3L552.0,806.0L555.3,802.5L558.4,800.1L603.3,778.7L609.0,773.7L612.5,766.2L612.9,734.8L610.5,708.2L608.1,699.3L602.5,687.7L602.2,682.8L606.1,679.5L613.1,676.8L619.7,673.3L624.7,669.1L625.7,662.0L625.5,657.4L623.9,648.0L624.0,642.9L625.2,636.2L629.6,627.7L631.9,607.3L631.3,600.2L629.0,589.1L629.1,585.4L630.8,582.9L641.0,577.0L645.6,573.5L648.3,569.6L648.9,562.2L650.5,556.1L656.0,549.5L671.1,536.3L678.9,527.8L686.5,517.9L692.2,504.8L695.8,491.1L699.0,469.3L706.6,446.7L703.8,439.4L702.9,434.9L704.2,429.5L703.3,412.8L691.5,362.0L666.2,373.1L650.6,376.0L620.9,376.4L615.9,377.1L610.1,378.9L603.5,383.9L599.8,388.2L595.2,398.3L590.6,404.4L583.4,409.5L571.2,415.6L567.7,418.2L565.6,422.2L562.3,436.7L560.9,440.4L557.4,445.1L551.9,448.4L507.4,464.8L499.1,469.3L494.6,472.6L489.5,474.6L482.7,475.4L456.9,471.7L453.6,472.6L449.2,478.1L447.5,481.9L446.2,483.4L443.0,485.2L435.3,488.7L412.6,495.9L405.1,499.5L400.0,503.1L396.7,507.1L394.7,510.7L394.1,515.2L395.2,526.6L395.2,533.4L394.0,538.4L391.1,543.0L382.0,551.8L379.3,556.3L378.9,560.8L379.8,566.5L380.2,573.5L378.8,581.3L376.4,589.2L375.1,597.4L375.8,611.9L375.7,618.2L373.5,622.3L369.5,625.2L363.4,627.2L355.2,626.8L346.4,624.0L331.6,612.0L325.9,606.3L322.3,601.5L319.8,600.2L315.6,599.4L306.1,598.9L299.5,599.5L294.7,600.8L288.3,603.9L280.7,603.5L247.5,595.4L243.4,594.9L239.1,592.7L235.9,589.0L230.9,579.9L225.5,567.0L221.6,561.2L116.7,487.8L107.9,483.7L107.9,483.8L32.8,575.8L12.4,641.0L7.2,733.7L0.4,853.9L3.8,913.6L7.5,933.9L20.4,933.1L33.0,930.6L46.1,923.2L58.2,913.1L67.5,902.0L70.5,913.7L81.8,901.7L107.2,895.1L110.6,893.4L111.6,891.6L113.5,891.6L116.6,893.9L124.2,901.3L132.4,905.2L149.5,904.4L175.8,898.3L182.6,898.3L189.4,900.1L195.2,907.0L197.4,911.1L198.3,916.0L198.4,928.6L197.8,935.9L196.2,941.8L194.7,945.9L194.8,949.3L196.7,953.6L206.1,967.8L206.4,971.2L205.4,974.4L202.1,982.6L200.3,991.6L201.4,993.8L204.6,993.2L239.7,965.7L281.1,943.5L291.1,940.4L299.5,940.4L305.9,938.9L312.8,935.4L320.1,932.9L328.6,934.6L336.1,939.3L368.1,965.9L372.9,967.2L375.3,966.5L376.8,954.6L377.7,950.7L379.8,947.0L382.8,943.1L390.3,937.4L393.2,933.5L395.1,929.8L395.9,926.2L398.7,923.8L403.9,921.5L439.1,917.9L446.2,915.1L452.8,908.9L457.6,903.5L463.0,899.0L475.4,890.9L491.0,887.7L520.6,893.2L522.4,875.8Z " data-id="SZ.MA" data-name="Manzini" id="SZ.MA"/>
utf-8utf-8<path d="M835.3,1241.5L813.6,1240.2L810.5,1239.5L808.3,1237.7L809.0,1232.7L810.1,1228.1L810.1,1224.4L808.3,1222.4L802.4,1221.2L789.4,1220.5L783.5,1219.3L778.7,1217.4L777.3,1212.7L777.1,1208.8L779.0,1193.7L778.1,1191.0L775.7,1189.0L752.9,1179.1L745.8,1177.0L739.0,1176.2L733.3,1174.7L729.5,1171.1L718.3,1136.8L714.2,1131.3L707.3,1128.6L701.1,1128.8L679.0,1134.8L671.8,1135.5L664.5,1134.7L657.9,1132.4L651.3,1129.1L619.4,1107.6L602.2,1093.0L590.2,1077.8L583.5,1071.5L577.7,1067.5L573.2,1066.3L568.0,1064.4L564.2,1065.6L559.8,1068.5L555.3,1069.6L551.2,1067.8L546.3,1063.1L537.4,1051.9L533.8,1045.9L520.4,1016.5L518.7,1010.4L521.5,1002.8L524.6,997.1L535.1,981.2L540.8,969.8L555.4,952.5L559.4,945.8L561.6,938.9L560.6,928.7L561.2,922.1L562.9,915.9L569.7,904.0L572.4,898.3L568.7,894.4L563.7,891.5L520.6,893.2L491.0,887.7L475.4,890.9L463.0,899.0L457.6,903.5L452.8,908.9L446.2,915.1L439.1,917.9L403.9,921.5L398.7,923.8L395.9,926.2L395.1,929.8L393.2,933.5L390.3,937.4L382.8,943.1L379.8,947.0L377.7,950.7L376.8,954.6L375.3,966.5L372.9,967.2L368.1,965.9L336.1,939.3L328.6,934.6L320.1,932.9L312.8,935.4L305.9,938.9L299.5,940.4L291.1,940.4L281.1,943.5L239.7,965.7L204.6,993.2L201.4,993.8L200.3,991.6L202.1,982.6L205.4,974.4L206.4,971.2L206.1,967.8L196.7,953.6L194.8,949.3L194.7,945.9L196.2,941.8L197.8,935.9L198.4,928.6L198.3,916.0L197.4,911.1L195.2,907.0L189.4,900.1L182.6,898.3L175.8,898.3L149.5,904.4L132.4,905.2L124.2,901.3L116.6,893.9L113.5,891.6L111.6,891.6L110.6,893.4L107.2,895.1L81.8,901.7L70.5,913.7L80.7,953.4L89.4,969.2L109.1,992.8L116.2,1005.7L119.4,1023.0L117.0,1044.7L107.0,1078.8L108.6,1100.5L123.2,1130.7L194.6,1203.1L226.2,1259.2L236.8,1271.2L247.5,1279.1L392.1,1332.6L466.5,1360.2L515.6,1370.8L705.7,1373.5L777.0,1374.5L843.5,1375.4L844.0,1363.9L842.5,1354.0L839.5,1344.8L835.1,1335.3L831.8,1322.6L834.6,1258.1L835.3,1241.5Z " data-id="SZ.SH" data-name="Shiselweni" id="SZ.SH"/>
utf-8</g>
</svg>
