<?xml version="1.0" ?>
<!DOCTYPE svg
  PUBLIC '-//W3C//DTD SVG 1.1//EN'
  'http://www.w3.org/Graphics/SVG/1.1/DTD/svg11.dtd'>
<svg enable_background="new 0 0 1000 1742" height="1742px" pretty_print="True" style="stroke-linejoin: round; stroke:#000; fill: none;" version="1.1" viewBox="0 0 1000 1742" width="1000px" xmlns="http://www.w3.org/2000/svg" xmlns:xlink="http://www.w3.org/1999/xlink">
utf-8<defs>
utf-8utf-8<style type="text/css">
<![CDATA[path { fill-rule: evenodd; }]]>utf-8utf-8</style>
utf-8</defs>
utf-8<metadata>
utf-8utf-8<views>
utf-8utf-8utf-8<view h="1742.10125772" padding="0" w="1000">
utf-8utf-8utf-8utf-8<proj flip="auto" id="robinson" lon0="15.4610867241"/>
utf-8utf-8utf-8utf-8<bbox h="268.1" w="153.98" x="197.38" y="-393.12"/>
utf-8utf-8utf-8</view>
utf-8utf-8</views>
utf-8</metadata>
utf-8<g class="" id="provinces">
utf-8utf-8<path d="M192.0,1102.0L184.9,1092.6L183.8,1092.6L171.8,1095.2L170.8,1097.3L179.3,1110.4L180.4,1111.3L185.1,1112.3L186.4,1116.5L181.5,1121.0L179.0,1120.3L177.6,1121.0L176.1,1125.6L173.7,1124.1L173.0,1121.9L167.9,1117.8L167.5,1115.7L163.0,1113.0L159.2,1112.0L150.5,1108.4L148.9,1109.7L151.6,1117.9L152.5,1119.2L154.3,1125.4L154.0,1129.2L152.1,1135.6L150.3,1136.7L120.0,1136.6L119.8,1137.2L120.1,1139.1L115.9,1139.6L114.2,1137.8L112.2,1137.1L103.0,1139.5L103.5,1144.1L102.1,1149.0L103.0,1152.0L107.7,1156.5L107.8,1160.6L109.7,1161.8L110.3,1164.4L113.7,1162.5L115.0,1164.8L118.9,1167.6L121.7,1166.7L123.2,1167.3L123.9,1169.1L122.6,1172.7L123.7,1174.5L126.5,1171.8L129.0,1176.6L130.7,1176.8L133.8,1176.0L134.9,1178.2L138.3,1191.6L137.0,1194.6L139.7,1196.9L141.0,1201.7L142.8,1209.9L142.6,1210.9L142.6,1218.5L151.5,1217.3L158.3,1217.3L167.0,1215.1L176.8,1212.9L180.6,1208.4L186.5,1209.5L190.4,1215.1L199.2,1216.2L204.0,1211.8L219.6,1207.3L235.2,1208.4L244.9,1205.1L252.5,1195.1L296.7,1214.0L308.5,1220.7L311.6,1232.9L311.8,1245.1L321.8,1258.4L323.0,1274.0L327.9,1278.4L335.7,1278.4L342.6,1279.6L349.5,1286.2L355.5,1292.9L369.2,1300.7L387.5,1281.8L403.3,1276.5L393.2,1254.7L392.8,1249.6L397.0,1231.5L396.3,1228.6L395.5,1228.3L392.4,1226.4L386.6,1225.0L385.6,1225.3L380.8,1224.3L379.1,1218.5L375.0,1211.0L372.7,1210.1L370.1,1206.9L367.0,1191.8L366.1,1188.3L358.2,1183.1L357.3,1180.4L353.7,1177.3L345.3,1155.2L336.4,1147.6L335.7,1145.2L338.5,1139.9L349.6,1127.9L353.6,1121.0L346.7,1118.1L340.4,1117.1L332.3,1120.1L328.8,1121.1L324.2,1119.3L322.1,1120.1L314.3,1124.4L292.4,1127.8L287.9,1131.2L284.9,1129.9L276.8,1128.6L273.6,1129.3L269.4,1131.0L245.8,1131.5L244.5,1131.1L242.4,1123.4L234.5,1116.2L233.4,1118.0L231.1,1118.3L224.2,1118.0L221.1,1116.9L203.5,1107.9L192.0,1102.0Z " data-id="TD.HD" data-name="Hadjer-Lamis" id="TD.HD"/>
utf-8utf-8<path d="M189.0,712.4L187.4,711.7L187.1,712.8L177.6,725.0L136.0,775.8L85.4,837.4L35.9,916.9L29.2,933.5L28.7,935.6L30.4,944.8L30.6,947.0L29.8,949.6L23.7,951.9L20.7,955.7L18.9,957.2L20.1,960.0L19.9,968.1L16.8,971.1L15.3,971.4L16.0,971.6L28.6,972.0L32.2,976.0L48.0,977.1L52.3,978.6L53.5,980.5L55.3,981.4L58.6,981.5L61.1,982.5L62.8,985.0L65.6,987.4L66.3,992.1L67.8,994.8L71.1,996.7L76.7,1003.5L78.0,1004.6L82.4,1006.2L87.2,1013.2L95.4,1014.6L98.8,1016.5L107.4,1029.2L112.3,1034.3L115.0,1037.8L129.9,1063.6L131.8,1063.9L134.0,1062.0L141.3,1062.8L169.5,1055.0L185.0,1054.8L203.5,1107.9L221.1,1116.9L224.2,1118.0L231.1,1118.3L233.4,1118.0L234.5,1116.2L235.7,1112.0L235.9,1109.4L235.3,1079.9L234.5,1077.5L232.5,1075.2L229.6,1065.2L231.3,1061.8L231.4,1057.2L229.4,1053.3L223.1,1051.1L220.9,1050.7L217.5,1054.5L206.5,1054.6L204.9,1019.5L222.3,1011.7L247.9,976.1L253.5,965.0L255.0,939.5L266.7,890.6L286.3,806.1L302.9,772.9L189.0,712.4Z " data-id="TD.KM" data-name="Kanem" id="TD.KM"/>
utf-8utf-8<path d="M185.0,1054.8L169.5,1055.0L141.3,1062.8L134.0,1062.0L131.8,1063.9L129.9,1063.6L115.0,1037.8L112.3,1034.3L107.4,1029.2L98.8,1016.5L95.4,1014.6L87.2,1013.2L82.4,1006.2L78.0,1004.6L76.7,1003.5L71.1,996.7L67.8,994.8L66.3,992.1L65.6,987.4L62.8,985.0L61.1,982.5L58.6,981.5L55.3,981.4L53.5,980.5L52.3,978.6L48.0,977.1L32.2,976.0L28.6,972.0L16.0,971.6L15.3,971.4L13.0,971.9L9.2,972.3L3.3,975.2L0.3,980.1L0.4,986.5L4.8,1004.6L16.5,1060.0L61.1,1128.2L85.1,1127.9L83.2,1123.8L81.5,1121.9L84.1,1122.9L88.5,1127.9L90.6,1127.9L90.3,1125.5L87.8,1123.8L83.7,1118.7L87.0,1119.4L89.5,1119.0L90.4,1115.6L96.5,1112.4L99.0,1111.6L103.6,1109.3L105.9,1109.1L113.1,1115.2L112.9,1113.0L116.9,1113.2L118.4,1114.3L121.9,1122.0L123.4,1122.8L123.5,1125.9L126.0,1128.4L128.2,1129.1L121.7,1132.4L120.9,1135.6L120.1,1136.5L120.0,1136.6L150.3,1136.7L152.1,1135.6L154.0,1129.2L154.3,1125.4L152.5,1119.2L151.6,1117.9L148.9,1109.7L150.5,1108.4L159.2,1112.0L163.0,1113.0L167.5,1115.7L167.9,1117.8L173.0,1121.9L173.7,1124.1L176.1,1125.6L177.6,1121.0L179.0,1120.3L181.5,1121.0L186.4,1116.5L185.1,1112.3L180.4,1111.3L179.3,1110.4L170.8,1097.3L171.8,1095.2L183.8,1092.6L184.9,1092.6L192.0,1102.0L203.5,1107.9L185.0,1054.8Z " data-id="TD.LC" data-name="Lac" id="TD.LC"/>
utf-8utf-8<path d="M607.7,832.1L602.7,830.5L598.9,828.6L587.2,824.6L579.7,823.2L578.1,822.5L565.4,813.6L562.8,809.5L561.3,799.4L559.8,795.6L557.2,793.5L553.9,792.4L549.3,792.6L547.2,790.7L545.0,791.3L545.7,802.2L544.9,816.7L538.2,839.5L535.5,845.5L530.5,852.1L520.2,862.2L516.1,865.1L506.6,870.0L487.8,876.5L485.1,877.2L477.2,877.2L457.2,872.0L451.2,869.2L439.2,861.1L430.3,851.9L392.3,1047.4L363.7,1057.5L361.8,1060.9L359.2,1082.2L360.2,1107.2L359.5,1111.1L353.6,1121.0L349.6,1127.9L338.5,1139.9L335.7,1145.2L336.4,1147.6L345.3,1155.2L353.7,1177.3L357.3,1180.4L358.2,1183.1L366.1,1188.3L367.0,1191.8L370.1,1206.9L372.7,1210.1L375.0,1211.0L379.1,1218.5L380.8,1224.3L385.6,1225.3L386.6,1225.0L392.4,1226.4L395.5,1228.3L396.3,1228.6L394.8,1222.8L396.6,1219.8L421.1,1195.8L424.4,1194.6L435.2,1193.4L437.7,1191.8L442.0,1185.7L444.7,1183.5L478.7,1162.4L482.3,1161.6L540.4,1164.1L543.4,1163.7L548.6,1161.0L577.2,1141.7L599.4,1130.6L626.7,1139.9L625.9,1139.1L626.4,1138.2L650.9,1132.6L653.0,1131.1L655.5,1126.6L656.0,1125.0L656.3,1123.8L656.1,1112.4L653.5,1092.8L653.3,1075.4L649.5,1068.5L648.2,1063.8L648.3,1040.2L647.0,1038.8L625.3,1026.7L624.9,1010.9L620.7,833.7L607.7,832.1Z " data-id="TD.BA" data-name="Batha" id="TD.BA"/>
utf-8utf-8<path d="M666.9,841.6L658.3,842.8L654.5,844.7L649.9,846.1L647.4,845.7L638.3,840.9L628.4,834.8L620.7,833.7L624.9,1010.9L639.5,992.3L646.2,986.4L647.3,983.8L649.6,983.1L651.7,979.8L654.7,979.1L657.8,980.0L666.2,980.1L675.8,976.6L677.4,976.8L694.4,983.0L698.1,985.0L702.1,988.1L704.8,989.2L705.8,990.4L707.9,995.6L710.3,999.0L716.1,1005.6L719.1,1006.3L727.0,1011.6L736.4,1016.8L742.5,1017.7L752.0,1012.3L754.7,1011.7L761.7,1011.4L787.2,1015.8L819.9,1027.9L829.2,1036.8L833.3,1036.5L834.2,1035.2L836.5,1032.6L839.2,1030.5L854.1,1022.5L859.4,1017.4L861.5,1016.0L866.2,1014.5L867.6,1012.6L867.6,1009.4L866.0,1003.8L864.3,1002.7L858.9,1001.6L856.1,999.0L854.9,994.5L856.8,988.3L855.1,976.6L854.3,975.2L851.3,972.7L849.1,968.7L850.8,964.8L854.5,961.6L858.5,959.4L877.5,953.6L878.5,952.9L875.6,939.0L875.6,936.2L876.3,934.5L881.5,929.9L882.5,923.5L883.5,921.2L891.9,911.2L899.0,906.8L899.7,905.8L903.7,897.1L904.4,894.6L905.2,882.0L905.0,878.3L903.9,874.9L898.0,866.6L897.2,863.5L897.8,860.1L899.5,857.6L906.9,852.5L912.7,844.3L915.2,842.3L917.5,842.0L912.5,833.6L911.4,832.6L905.6,830.1L901.7,829.6L895.9,832.0L893.2,832.1L890.1,830.7L887.7,830.3L884.7,828.2L876.4,828.6L866.5,829.9L865.2,830.7L862.1,829.8L859.1,824.9L856.8,823.4L855.2,820.1L850.2,818.4L846.1,815.9L844.2,815.8L840.5,817.9L838.4,818.1L834.1,816.6L830.1,813.2L827.4,810.3L823.9,812.5L821.5,811.7L816.0,811.1L812.0,811.7L802.9,816.1L799.9,815.7L795.5,813.4L787.6,810.4L784.7,810.2L776.3,812.8L752.3,818.5L745.8,822.2L743.3,822.1L732.7,817.1L725.8,812.3L723.9,811.9L718.7,816.1L713.1,817.9L709.8,820.9L708.2,824.4L705.7,827.6L699.8,832.0L683.6,838.8L676.8,843.6L672.9,844.2L667.6,841.6L666.9,841.6Z " data-id="TD.BI" data-name="Wadi Fira" id="TD.BI"/>
utf-8utf-8<path d="M599.4,1130.6L577.2,1141.7L548.6,1161.0L543.4,1163.7L540.4,1164.1L482.3,1161.6L478.7,1162.4L444.7,1183.5L442.0,1185.7L437.7,1191.8L435.2,1193.4L424.4,1194.6L421.1,1195.8L396.6,1219.8L394.8,1222.8L396.3,1228.6L397.0,1231.5L392.8,1249.6L393.2,1254.7L403.3,1276.5L387.5,1281.8L369.2,1300.7L368.7,1328.5L373.0,1357.4L375.3,1381.8L373.6,1399.6L396.5,1412.7L424.6,1411.6L425.9,1412.5L434.0,1421.2L445.4,1425.6L446.2,1424.8L455.2,1426.0L457.3,1429.9L459.8,1431.4L461.7,1431.5L463.6,1434.1L467.3,1436.4L471.3,1436.5L475.4,1437.8L478.9,1441.4L484.1,1443.1L487.6,1447.5L490.1,1452.1L492.6,1453.2L496.2,1456.7L498.1,1459.9L499.1,1460.2L500.1,1463.0L499.4,1472.4L499.9,1473.1L504.9,1474.4L506.9,1476.6L509.8,1477.5L515.3,1474.9L517.3,1464.9L519.0,1463.3L532.1,1463.2L537.4,1462.4L543.6,1457.8L547.4,1451.6L549.8,1449.5L553.0,1448.2L553.8,1445.1L556.2,1440.6L561.0,1434.8L565.7,1430.0L564.9,1429.3L564.9,1426.7L563.9,1425.2L567.2,1424.3L567.6,1421.5L569.0,1420.7L569.1,1417.5L570.4,1415.3L575.2,1410.4L579.0,1408.5L581.2,1410.7L587.8,1409.3L590.7,1403.1L591.7,1404.3L594.7,1400.5L595.3,1398.4L597.8,1397.4L599.5,1395.9L601.1,1386.4L599.8,1367.6L600.5,1365.0L602.0,1363.7L601.8,1362.0L599.2,1360.4L596.8,1355.9L588.4,1351.4L583.7,1350.2L579.8,1347.5L576.1,1348.0L573.8,1347.6L571.2,1344.3L568.5,1342.9L566.9,1343.3L557.8,1338.3L553.0,1335.9L551.9,1334.8L548.1,1334.0L546.2,1332.4L542.7,1330.9L532.5,1323.8L529.8,1322.3L526.3,1319.6L520.5,1312.0L521.8,1280.4L523.8,1277.5L534.3,1277.3L536.4,1278.9L539.2,1286.2L541.9,1287.0L550.2,1283.4L552.9,1281.0L561.7,1262.4L561.8,1257.7L555.0,1245.6L571.0,1228.2L575.4,1229.0L595.2,1234.9L612.3,1236.0L612.1,1229.9L612.3,1227.8L618.0,1208.1L621.2,1200.3L623.4,1197.9L626.3,1193.3L629.7,1189.5L634.1,1183.4L635.6,1182.6L636.8,1178.6L633.7,1175.2L632.9,1172.8L633.5,1171.5L643.2,1161.1L644.7,1158.0L640.9,1151.9L626.7,1139.9L599.4,1130.6Z " data-id="TD.GR" data-name="Guéra" id="TD.GR"/>
utf-8utf-8<path d="M624.9,1010.9L625.3,1026.7L647.0,1038.8L648.3,1040.2L648.2,1063.8L649.5,1068.5L653.3,1075.4L653.5,1092.8L656.1,1112.4L656.3,1123.8L656.0,1125.0L655.5,1126.6L666.6,1131.7L691.9,1131.7L693.2,1146.2L700.1,1148.4L707.9,1149.5L709.0,1157.3L709.2,1167.3L722.0,1172.9L732.7,1169.5L742.4,1170.6L746.4,1171.8L751.2,1169.5L759.8,1159.5L769.4,1152.9L778.1,1149.5L789.9,1155.1L800.7,1159.1L800.9,1158.5L802.4,1155.1L804.6,1146.9L812.1,1130.2L814.7,1126.0L817.9,1122.5L819.6,1121.4L829.7,1116.9L831.3,1115.6L839.9,1105.2L843.1,1100.3L843.8,1095.7L842.6,1093.2L839.1,1088.7L837.4,1084.0L837.1,1077.7L835.7,1073.5L829.4,1067.2L827.6,1063.0L827.4,1057.2L823.5,1052.7L825.8,1047.5L833.3,1036.5L829.2,1036.8L819.9,1027.9L787.2,1015.8L761.7,1011.4L754.7,1011.7L752.0,1012.3L742.5,1017.7L736.4,1016.8L727.0,1011.6L719.1,1006.3L716.1,1005.6L710.3,999.0L707.9,995.6L705.8,990.4L704.8,989.2L702.1,988.1L698.1,985.0L694.4,983.0L677.4,976.8L675.8,976.6L666.2,980.1L657.8,980.0L654.7,979.1L651.7,979.8L649.6,983.1L647.3,983.8L646.2,986.4L639.5,992.3L624.9,1010.9Z " data-id="TD.OA" data-name="Ouaddaï" id="TD.OA"/>
utf-8utf-8<path d="M293.0,1557.2L291.7,1552.3L287.6,1547.5L284.7,1546.6L281.9,1549.8L279.5,1551.4L271.7,1554.5L265.0,1562.4L255.5,1559.3L251.6,1559.6L249.4,1560.5L235.2,1568.9L228.1,1568.5L212.9,1572.6L207.9,1573.0L204.6,1572.2L201.8,1570.6L200.2,1569.1L196.8,1570.5L195.8,1571.5L192.1,1584.7L191.7,1591.7L192.3,1594.7L191.8,1600.1L186.5,1606.0L185.5,1607.7L181.7,1626.2L182.4,1630.7L182.6,1632.0L186.4,1634.7L189.8,1636.4L196.7,1641.6L206.5,1646.8L206.1,1647.8L207.4,1650.6L210.0,1650.6L211.8,1652.8L215.4,1652.3L218.0,1651.0L220.7,1650.5L223.5,1647.0L227.1,1645.7L232.3,1646.7L235.0,1646.1L238.3,1641.7L239.6,1635.8L242.0,1633.1L250.3,1627.9L254.2,1624.5L261.6,1619.8L266.0,1615.8L279.5,1611.2L287.0,1610.3L288.4,1609.3L289.5,1605.3L291.2,1603.9L298.9,1601.1L301.1,1598.9L308.9,1585.0L307.6,1579.6L301.9,1574.3L298.5,1569.7L294.9,1561.5L293.6,1559.3L293.1,1558.1L293.0,1557.2Z " data-id="TD.LO" data-name="Logone Occidental" id="TD.LO"/>
utf-8utf-8<path d="M371.1,1701.4L357.1,1667.7L356.3,1665.2L360.5,1663.9L363.9,1663.9L370.2,1654.4L370.8,1651.2L372.1,1649.2L351.6,1614.3L351.0,1612.0L352.4,1608.8L357.5,1600.1L358.9,1595.6L359.4,1572.5L359.2,1571.4L357.3,1564.4L347.2,1567.9L339.6,1568.1L323.4,1563.7L320.5,1562.4L315.4,1561.1L310.2,1558.5L305.9,1557.2L300.8,1556.7L294.8,1558.1L293.1,1558.1L293.6,1559.3L294.9,1561.5L298.5,1569.7L301.9,1574.3L307.6,1579.6L308.9,1585.0L301.1,1598.9L298.9,1601.1L291.2,1603.9L289.5,1605.3L288.4,1609.3L287.0,1610.3L279.5,1611.2L266.0,1615.8L261.6,1619.8L254.2,1624.5L250.3,1627.9L242.0,1633.1L239.6,1635.8L238.3,1641.7L235.0,1646.1L232.3,1646.7L227.1,1645.7L223.5,1647.0L220.7,1650.5L218.0,1651.0L215.4,1652.3L211.8,1652.8L210.0,1650.6L207.4,1650.6L206.1,1647.8L206.5,1646.8L196.7,1641.6L189.8,1636.4L186.4,1634.7L182.6,1632.0L178.3,1634.0L176.6,1634.9L189.8,1666.0L195.9,1689.4L199.2,1698.3L203.8,1702.1L211.0,1703.4L211.0,1714.6L209.8,1721.0L207.3,1727.0L203.4,1732.7L206.7,1733.9L210.2,1734.2L217.2,1733.1L221.4,1733.5L226.4,1738.7L230.1,1740.1L233.5,1739.8L246.0,1736.6L252.2,1732.1L254.3,1728.7L259.3,1725.3L265.4,1724.4L268.7,1723.2L272.9,1722.9L278.1,1718.7L280.1,1717.8L288.6,1716.5L290.1,1714.1L290.0,1706.7L290.5,1704.4L291.9,1703.0L294.8,1703.9L296.1,1703.5L298.5,1698.7L305.4,1695.0L305.1,1701.2L306.6,1704.8L312.2,1709.8L311.5,1713.3L312.9,1716.9L321.1,1721.4L324.7,1725.8L326.8,1729.8L328.2,1730.8L330.4,1730.5L335.0,1727.9L334.3,1725.3L335.0,1723.1L341.2,1719.6L345.3,1718.9L347.2,1719.1L349.7,1717.0L352.6,1717.6L353.2,1715.2L354.5,1713.9L358.6,1715.9L360.0,1714.9L365.2,1708.3L366.9,1706.5L369.0,1706.1L369.9,1702.8L371.1,1701.4Z " data-id="TD.LR" data-name="Logone Oriental" id="TD.LR"/>
utf-8utf-8<path d="M268.9,1440.1L267.4,1435.4L264.0,1432.3L262.1,1428.9L260.2,1414.6L262.7,1383.2L262.2,1381.9L259.0,1380.2L256.5,1379.7L254.6,1381.1L249.5,1377.3L241.9,1378.7L238.2,1378.3L230.5,1376.2L226.9,1375.8L225.0,1374.9L219.2,1368.3L217.2,1366.4L210.1,1365.1L206.0,1362.4L204.4,1359.5L202.5,1353.3L198.4,1351.8L196.7,1350.5L194.6,1347.1L194.6,1341.7L188.6,1337.4L181.5,1334.6L174.5,1334.9L167.7,1341.5L164.5,1343.1L156.1,1345.6L156.8,1354.9L161.1,1365.4L159.7,1372.8L160.0,1376.9L167.5,1392.7L168.3,1395.4L166.7,1401.6L167.3,1406.4L171.9,1408.1L175.0,1410.2L177.2,1416.1L180.8,1420.3L183.2,1429.3L196.5,1443.0L200.1,1448.7L205.9,1454.4L212.3,1458.7L215.7,1459.9L219.9,1464.1L218.2,1464.7L196.8,1470.6L191.4,1470.8L175.3,1464.9L169.6,1464.6L165.2,1465.2L157.9,1469.4L155.0,1469.2L149.4,1467.7L145.0,1467.5L133.0,1471.7L129.2,1471.5L128.4,1486.3L130.0,1499.5L135.3,1499.9L144.6,1497.7L149.4,1496.3L154.6,1498.9L157.6,1502.2L157.3,1507.7L162.1,1514.6L164.0,1529.1L167.9,1532.1L176.6,1540.2L184.2,1545.4L191.4,1548.8L197.6,1551.7L198.3,1550.7L201.2,1545.8L205.6,1536.5L212.6,1526.4L219.5,1518.5L223.7,1506.3L234.5,1491.3L240.0,1491.4L242.3,1492.4L248.3,1497.7L265.7,1478.9L266.5,1477.7L270.7,1468.1L272.8,1460.6L273.6,1455.4L273.4,1452.8L273.8,1446.9L272.0,1442.9L271.1,1441.9L268.9,1440.1Z " data-id="TD.ME" data-name="Mayo-Kebbi Est" id="TD.ME"/>
utf-8utf-8<path d="M376.5,1483.3L370.9,1481.6L368.1,1481.5L362.0,1477.5L359.4,1472.9L348.9,1469.8L345.6,1469.6L340.8,1470.0L338.7,1468.5L338.0,1466.5L334.6,1463.2L331.7,1463.2L324.0,1460.5L321.2,1460.3L318.4,1457.4L311.9,1453.8L308.3,1446.7L308.4,1443.9L307.4,1439.2L303.9,1435.9L298.0,1441.0L292.3,1442.2L271.1,1441.9L272.0,1442.9L273.8,1446.9L273.4,1452.8L273.6,1455.4L272.8,1460.6L270.7,1468.1L266.5,1477.7L265.7,1478.9L248.3,1497.7L242.3,1492.4L240.0,1491.4L234.5,1491.3L223.7,1506.3L219.5,1518.5L212.6,1526.4L205.6,1536.5L201.2,1545.8L198.3,1550.7L197.6,1551.7L197.6,1551.9L198.9,1555.6L198.8,1564.7L199.1,1566.6L200.2,1569.1L201.8,1570.6L204.6,1572.2L207.9,1573.0L212.9,1572.6L228.1,1568.5L235.2,1568.9L249.4,1560.5L251.6,1559.6L255.5,1559.3L265.0,1562.4L271.7,1554.5L279.5,1551.4L281.9,1549.8L284.7,1546.6L287.6,1547.5L291.7,1552.3L293.0,1557.2L293.1,1558.1L294.8,1558.1L300.8,1556.7L305.9,1557.2L310.2,1558.5L315.4,1561.1L320.5,1562.4L323.4,1563.7L339.6,1568.1L347.2,1567.9L357.3,1564.4L364.5,1556.0L363.7,1553.2L354.7,1545.6L353.9,1542.0L366.2,1531.0L367.0,1530.0L366.8,1520.9L367.6,1518.0L367.1,1514.3L365.8,1512.7L367.1,1509.2L371.0,1506.6L375.4,1506.8L385.2,1504.0L387.5,1502.4L390.1,1502.2L392.4,1504.8L397.7,1508.0L398.0,1508.1L398.3,1507.6L400.1,1502.3L398.6,1497.6L396.5,1495.3L387.3,1487.7L378.9,1483.3L377.9,1483.2L376.5,1483.3Z " data-id="TD.TA" data-name="Tandjilé" id="TD.TA"/>
utf-8utf-8<path d="M397.7,1508.0L392.4,1504.8L390.1,1502.2L387.5,1502.4L385.2,1504.0L375.4,1506.8L371.0,1506.6L367.1,1509.2L365.8,1512.7L367.1,1514.3L367.6,1518.0L366.8,1520.9L367.0,1530.0L366.2,1531.0L353.9,1542.0L354.7,1545.6L363.7,1553.2L364.5,1556.0L357.3,1564.4L359.2,1571.4L359.4,1572.5L358.9,1595.6L357.5,1600.1L352.4,1608.8L351.0,1612.0L351.6,1614.3L372.1,1649.2L370.8,1651.2L370.2,1654.4L363.9,1663.9L360.5,1663.9L356.3,1665.2L357.1,1667.7L371.1,1701.4L371.2,1701.4L372.8,1700.1L385.6,1694.9L388.8,1691.9L393.4,1693.5L394.5,1692.6L395.3,1690.2L406.1,1686.2L408.0,1683.2L413.7,1682.5L426.9,1685.0L430.9,1685.2L434.6,1684.4L442.2,1681.2L451.1,1678.8L461.2,1678.5L459.3,1672.1L457.9,1664.3L456.3,1657.5L456.8,1644.0L456.3,1639.6L453.9,1634.7L452.5,1630.0L452.3,1624.1L450.2,1620.7L446.7,1618.1L444.8,1613.2L444.2,1606.4L444.8,1600.2L445.6,1597.0L444.8,1593.4L442.7,1591.2L437.7,1588.4L437.3,1587.3L439.0,1582.8L440.0,1571.2L441.0,1570.1L443.6,1572.1L445.3,1570.2L449.3,1569.7L451.9,1567.5L454.6,1563.7L456.6,1559.5L457.0,1556.2L458.8,1554.6L456.5,1551.6L450.4,1550.6L442.5,1550.2L428.7,1542.3L423.2,1540.3L421.9,1536.3L419.2,1529.4L417.1,1525.1L415.1,1522.4L406.6,1522.8L404.8,1515.8L402.1,1511.2L398.0,1508.1L397.7,1508.0Z " data-id="TD.MA" data-name="Mandoul" id="TD.MA"/>
utf-8utf-8<path d="M595.2,1234.9L575.4,1229.0L571.0,1228.2L555.0,1245.6L561.8,1257.7L561.7,1262.4L552.9,1281.0L550.2,1283.4L541.9,1287.0L539.2,1286.2L536.4,1278.9L534.3,1277.3L523.8,1277.5L521.8,1280.4L520.5,1312.0L526.3,1319.6L529.8,1322.3L532.5,1323.8L542.7,1330.9L546.2,1332.4L548.1,1334.0L551.9,1334.8L553.0,1335.9L557.8,1338.3L566.9,1343.3L568.5,1342.9L571.2,1344.3L573.8,1347.6L576.1,1348.0L579.8,1347.5L583.7,1350.2L588.4,1351.4L596.8,1355.9L599.2,1360.4L601.8,1362.0L602.0,1363.7L600.5,1365.0L599.8,1367.6L601.1,1386.4L599.5,1395.9L594.9,1424.1L596.0,1431.4L597.2,1432.9L597.6,1441.2L597.0,1441.9L596.2,1446.2L595.0,1448.2L594.9,1451.8L593.2,1452.9L592.5,1456.2L599.9,1471.0L628.1,1565.1L629.2,1564.8L631.6,1563.0L633.9,1562.8L635.2,1560.0L636.9,1562.2L637.5,1560.0L640.3,1557.4L645.0,1555.6L647.7,1558.8L649.3,1559.3L654.9,1556.2L659.1,1559.3L661.0,1558.9L668.9,1559.3L670.8,1558.9L674.0,1556.6L676.2,1557.0L678.1,1554.7L680.5,1549.7L683.0,1548.8L683.5,1547.6L681.8,1542.5L685.4,1540.5L686.1,1537.0L698.2,1539.1L696.9,1534.7L700.8,1532.5L705.1,1531.0L710.5,1525.9L713.2,1526.5L714.5,1519.3L717.7,1517.3L721.3,1512.8L723.3,1509.2L725.3,1507.9L726.4,1505.6L727.9,1506.3L731.0,1491.1L737.0,1489.0L738.2,1487.7L741.8,1479.6L747.0,1475.7L748.7,1472.2L753.5,1465.8L754.9,1464.6L761.4,1467.5L764.8,1466.1L767.8,1462.6L770.3,1458.2L775.1,1445.3L777.6,1441.4L780.7,1439.2L791.3,1437.7L794.3,1431.7L797.1,1430.9L797.5,1429.9L796.9,1426.2L797.2,1423.9L800.0,1418.4L799.3,1417.6L797.0,1412.2L795.4,1405.3L795.4,1400.9L796.9,1393.9L801.2,1392.2L802.8,1390.3L807.4,1389.2L810.3,1390.5L813.3,1387.1L817.8,1383.9L823.6,1382.3L824.6,1381.1L823.6,1378.8L825.9,1373.0L827.7,1372.1L835.7,1373.0L837.2,1372.8L839.9,1374.3L841.2,1372.1L842.2,1368.6L847.1,1363.6L850.4,1363.5L852.1,1361.7L857.3,1359.4L857.7,1359.3L829.4,1289.6L825.9,1286.3L811.1,1281.4L804.2,1278.4L750.9,1289.4L728.6,1283.6L679.6,1256.5L655.5,1238.5L650.7,1237.0L625.7,1237.9L624.7,1238.1L624.2,1240.8L625.3,1246.9L619.5,1248.2L617.0,1248.3L613.7,1238.7L612.3,1236.0L595.2,1234.9Z " data-id="TD.SA" data-name="Salamat" id="TD.SA"/>
utf-8utf-8<path d="M154.8,1234.5L156.6,1236.3L156.2,1237.0L155.8,1238.2L155.8,1239.5L161.9,1237.8L163.6,1235.6L163.8,1233.2L162.1,1228.7L158.9,1226.0L155.2,1226.5L153.0,1233.7L154.8,1234.5Z " data-id="TD.NJ" data-name="Ville de N'Djamena" id="TD.NJ"/>
utf-8utf-8<path d="M101.2,1463.7L76.4,1465.6L75.6,1465.9L75.2,1468.9L70.6,1479.3L67.7,1483.9L59.9,1491.6L54.2,1501.0L54.4,1502.6L63.0,1510.1L90.6,1545.5L91.6,1550.2L93.4,1553.7L136.3,1592.3L137.8,1592.8L141.3,1592.6L147.3,1597.6L147.8,1599.0L151.3,1604.2L151.9,1607.3L159.2,1609.2L162.8,1612.9L166.9,1620.4L172.5,1626.6L174.0,1628.7L176.6,1634.9L178.3,1634.0L182.6,1632.0L182.4,1630.7L181.7,1626.2L185.5,1607.7L186.5,1606.0L191.8,1600.1L192.3,1594.7L191.7,1591.7L192.1,1584.7L195.8,1571.5L196.8,1570.5L200.2,1569.1L199.1,1566.6L198.8,1564.7L198.9,1555.6L197.6,1551.9L197.6,1551.7L191.4,1548.8L184.2,1545.4L176.6,1540.2L167.9,1532.1L164.0,1529.1L162.1,1514.6L157.3,1507.7L157.6,1502.2L154.6,1498.9L149.4,1496.3L144.6,1497.7L135.3,1499.9L130.0,1499.5L128.4,1486.3L129.2,1471.5L101.2,1463.7Z " data-id="TD.MW" data-name="Mayo-Kebbi Ouest" id="TD.MW"/>
utf-8utf-8<path d="M499.4,157.6L481.2,173.6L487.4,227.3L485.7,251.5L430.4,273.1L412.1,283.8L400.8,297.3L389.2,299.9L361.2,299.9L357.3,329.5L308.8,433.3L259.6,538.1L188.9,687.8L188.7,692.7L187.8,707.6L187.7,710.4L187.4,711.7L189.0,712.4L302.9,772.9L415.6,832.7L416.8,833.6L417.6,834.5L422.1,841.9L430.3,851.9L439.2,861.1L451.2,869.2L457.2,872.0L477.2,877.2L485.1,877.2L487.8,876.5L506.6,870.0L516.1,865.1L520.2,862.2L530.5,852.1L535.5,845.5L538.2,839.5L544.9,816.7L545.7,802.2L545.0,791.3L547.2,790.7L549.3,792.6L553.9,792.4L557.2,793.5L559.8,795.6L561.3,799.4L562.8,809.5L565.4,813.6L578.1,822.5L579.7,823.2L587.2,824.6L598.9,828.6L602.7,830.5L607.7,832.1L620.7,833.7L628.4,834.8L638.3,840.9L647.4,845.7L649.9,846.1L654.5,844.7L658.3,842.8L666.9,841.6L681.1,827.2L672.0,802.9L646.5,727.6L654.6,681.9L655.5,633.4L654.5,595.8L626.4,517.8L610.5,453.2L688.7,263.7L676.9,257.1L558.5,190.7L511.2,164.2L499.4,157.6Z " data-id="TD.BR" data-name="Borkou" id="TD.BR"/>
utf-8utf-8<path d="M188.9,687.8L259.6,538.1L308.8,433.3L357.3,329.5L361.2,299.9L389.2,299.9L400.8,297.3L412.1,283.8L430.4,273.1L485.7,251.5L487.4,227.3L481.2,173.6L499.4,157.6L487.5,150.9L428.5,117.7L357.7,77.9L251.6,18.2L219.4,0.0L217.5,0.3L126.3,48.9L146.9,157.9L149.0,210.8L150.9,214.2L157.3,218.1L160.6,222.4L190.8,271.4L187.0,273.8L184.8,278.0L184.2,283.0L185.0,287.9L189.3,295.1L197.2,301.7L216.8,324.8L226.2,336.4L226.4,338.2L208.2,376.8L205.4,385.3L195.5,568.6L189.2,682.8L188.9,687.8Z " data-id="TD.TI" data-name="Tibesti" id="TD.TI"/>
utf-8utf-8<path d="M688.7,263.7L610.5,453.2L626.4,517.8L654.5,595.8L655.5,633.4L654.6,681.9L646.5,727.6L672.0,802.9L681.1,827.2L666.9,841.6L667.6,841.6L672.9,844.2L676.8,843.6L683.6,838.8L699.8,832.0L705.7,827.6L708.2,824.4L709.8,820.9L713.1,817.9L718.7,816.1L723.9,811.9L725.8,812.3L732.7,817.1L743.3,822.1L745.8,822.2L752.3,818.5L776.3,812.8L784.7,810.2L787.6,810.4L795.5,813.4L799.9,815.7L802.9,816.1L812.0,811.7L816.0,811.1L821.5,811.7L823.9,812.5L827.4,810.3L830.1,813.2L834.1,816.6L838.4,818.1L840.5,817.9L844.2,815.8L846.1,815.9L850.2,818.4L855.2,820.1L856.8,823.4L859.1,824.9L862.1,829.8L865.2,830.7L866.5,829.9L876.4,828.6L884.7,828.2L887.7,830.3L890.1,830.7L893.2,832.1L895.9,832.0L901.7,829.6L905.6,830.1L911.4,832.6L912.5,833.6L917.5,842.0L922.0,841.4L936.7,844.8L943.9,844.1L956.2,839.0L962.4,837.5L973.3,837.5L984.9,839.4L996.1,843.7L998.7,843.8L999.5,834.1L998.7,808.9L994.6,682.4L992.0,606.6L988.4,505.5L985.7,429.7L866.7,363.3L759.9,303.6L700.6,270.4L688.7,263.7Z " data-id="TD.EN" data-name="Ennedi" id="TD.EN"/>
utf-8utf-8<path d="M355.5,1292.9L349.5,1286.2L342.6,1279.6L335.7,1278.4L327.9,1278.4L323.0,1274.0L321.8,1258.4L311.8,1245.1L311.6,1232.9L308.5,1220.7L296.7,1214.0L252.5,1195.1L244.9,1205.1L235.2,1208.4L219.6,1207.3L204.0,1211.8L199.2,1216.2L190.4,1215.1L186.5,1209.5L180.6,1208.4L176.8,1212.9L167.0,1215.1L158.3,1217.3L151.5,1217.3L142.6,1218.5L142.6,1218.5L141.7,1227.3L142.1,1228.9L145.0,1231.5L147.2,1234.3L151.3,1233.9L153.0,1233.7L155.2,1226.5L158.9,1226.0L162.1,1228.7L163.8,1233.2L163.6,1235.6L161.9,1237.8L155.8,1239.5L156.3,1240.5L157.0,1241.4L156.7,1244.2L159.8,1248.6L156.7,1249.6L158.2,1253.4L156.2,1256.1L156.4,1258.9L158.2,1261.5L159.9,1261.7L162.9,1269.1L160.9,1271.9L161.3,1275.7L159.7,1275.8L159.0,1278.2L159.1,1282.4L160.7,1287.3L164.5,1293.1L165.7,1296.6L164.4,1299.6L160.1,1305.0L158.7,1309.1L158.1,1314.7L159.0,1320.6L156.3,1326.0L155.8,1327.7L155.2,1334.5L156.1,1345.6L164.5,1343.1L167.7,1341.5L174.5,1334.9L181.5,1334.6L188.6,1337.4L194.6,1341.7L194.6,1347.1L196.7,1350.5L198.4,1351.8L202.5,1353.3L204.4,1359.5L206.0,1362.4L210.1,1365.1L217.2,1366.4L219.2,1368.3L225.0,1374.9L226.9,1375.8L230.5,1376.2L238.2,1378.3L241.9,1378.7L249.5,1377.3L254.6,1381.1L256.5,1379.7L259.0,1380.2L262.2,1381.9L262.7,1383.2L260.2,1414.6L262.1,1428.9L264.0,1432.3L267.4,1435.4L268.9,1440.1L271.1,1441.9L292.3,1442.2L298.0,1441.0L303.9,1435.9L307.4,1439.2L308.4,1443.9L308.3,1446.7L311.9,1453.8L318.4,1457.4L321.2,1460.3L324.0,1460.5L331.7,1463.2L334.6,1463.2L338.0,1466.5L338.7,1468.5L340.8,1470.0L345.6,1469.6L348.9,1469.8L359.4,1472.9L362.0,1477.5L368.1,1481.5L370.9,1481.6L376.5,1483.3L377.9,1483.2L396.5,1412.7L373.6,1399.6L375.3,1381.8L373.0,1357.4L368.7,1328.5L369.2,1300.7L355.5,1292.9Z " data-id="TD.CG" data-name="Chari-Baguirmi" id="TD.CG"/>
utf-8utf-8<path d="M422.1,841.9L417.6,834.5L416.8,833.6L415.6,832.7L302.9,772.9L286.3,806.1L266.7,890.6L255.0,939.5L253.5,965.0L247.9,976.1L222.3,1011.7L204.9,1019.5L206.5,1054.6L217.5,1054.5L220.9,1050.7L223.1,1051.1L229.4,1053.3L231.4,1057.2L231.3,1061.8L229.6,1065.2L232.5,1075.2L234.5,1077.5L235.3,1079.9L235.9,1109.4L235.7,1112.0L234.5,1116.2L242.4,1123.4L244.5,1131.1L245.8,1131.5L269.4,1131.0L273.6,1129.3L276.8,1128.6L284.9,1129.9L287.9,1131.2L292.4,1127.8L314.3,1124.4L322.1,1120.1L324.2,1119.3L328.8,1121.1L332.3,1120.1L340.4,1117.1L346.7,1118.1L353.6,1121.0L359.5,1111.1L360.2,1107.2L359.2,1082.2L361.8,1060.9L363.7,1057.5L392.3,1047.4L430.3,851.9L422.1,841.9Z " data-id="TD.BG" data-name="Barh El Gazel" id="TD.BG"/>
utf-8utf-8<path d="M655.5,1126.6L653.0,1131.1L650.9,1132.6L626.4,1138.2L625.9,1139.1L626.7,1139.9L640.9,1151.9L644.7,1158.0L643.2,1161.1L633.5,1171.5L632.9,1172.8L633.7,1175.2L636.8,1178.6L635.6,1182.6L634.1,1183.4L629.7,1189.5L626.3,1193.3L623.4,1197.9L621.2,1200.3L618.0,1208.1L612.3,1227.8L612.1,1229.9L612.3,1236.0L613.7,1238.7L617.0,1248.3L619.5,1248.2L625.3,1246.9L624.2,1240.8L624.7,1238.1L625.7,1237.9L650.7,1237.0L655.5,1238.5L679.6,1256.5L728.6,1283.6L750.9,1289.4L804.2,1278.4L811.1,1281.4L825.9,1286.3L829.4,1289.6L857.7,1359.3L860.3,1358.9L866.8,1354.3L870.8,1355.2L871.7,1354.3L873.9,1356.5L877.9,1356.0L891.6,1358.2L894.1,1360.5L899.9,1362.6L905.2,1363.1L908.7,1347.8L911.8,1337.4L913.4,1333.6L913.4,1327.0L910.8,1319.0L909.4,1311.2L908.0,1309.9L905.7,1309.9L896.7,1310.9L895.7,1310.5L892.8,1303.6L885.1,1300.7L881.7,1298.9L878.2,1295.2L875.2,1290.6L873.2,1285.5L872.7,1280.2L877.3,1246.7L878.9,1241.2L878.5,1237.1L877.7,1238.6L876.4,1237.7L872.7,1238.5L866.6,1240.7L864.4,1242.2L866.6,1230.2L866.3,1226.3L858.7,1202.0L855.5,1196.4L855.2,1195.1L857.4,1191.5L861.9,1179.0L860.6,1177.6L850.7,1173.5L838.6,1164.6L835.9,1169.2L832.9,1172.5L829.3,1174.7L824.9,1176.2L821.1,1176.8L817.1,1176.7L813.1,1175.9L809.7,1174.1L807.7,1171.9L803.8,1164.0L801.1,1160.4L800.7,1159.1L789.9,1155.1L778.1,1149.5L769.4,1152.9L759.8,1159.5L751.2,1169.5L746.4,1171.8L742.4,1170.6L732.7,1169.5L722.0,1172.9L709.2,1167.3L709.0,1157.3L707.9,1149.5L700.1,1148.4L693.2,1146.2L691.9,1131.7L666.6,1131.7L655.5,1126.6Z " data-id="TD.SI" data-name="Sila" id="TD.SI"/>
utf-8utf-8<path d="M599.5,1395.9L597.8,1397.4L595.3,1398.4L594.7,1400.5L591.7,1404.3L590.7,1403.1L587.8,1409.3L581.2,1410.7L579.0,1408.5L575.2,1410.4L570.4,1415.3L569.1,1417.5L569.0,1420.7L567.6,1421.5L567.2,1424.3L563.9,1425.2L564.9,1426.7L564.9,1429.3L565.7,1430.0L561.0,1434.8L556.2,1440.6L553.8,1445.1L553.0,1448.2L549.8,1449.5L547.4,1451.6L543.6,1457.8L537.4,1462.4L532.1,1463.2L519.0,1463.3L517.3,1464.9L515.3,1474.9L509.8,1477.5L506.9,1476.6L504.9,1474.4L499.9,1473.1L499.4,1472.4L500.1,1463.0L499.1,1460.2L498.1,1459.9L496.2,1456.7L492.6,1453.2L490.1,1452.1L487.6,1447.5L484.1,1443.1L478.9,1441.4L475.4,1437.8L471.3,1436.5L467.3,1436.4L463.6,1434.1L461.7,1431.5L459.8,1431.4L457.3,1429.9L455.2,1426.0L446.2,1424.8L445.4,1425.6L434.0,1421.2L425.9,1412.5L424.6,1411.6L396.5,1412.7L377.9,1483.2L378.9,1483.3L387.3,1487.7L396.5,1495.3L398.6,1497.6L400.1,1502.3L398.3,1507.6L398.0,1508.1L402.1,1511.2L404.8,1515.8L406.6,1522.8L415.1,1522.4L417.1,1525.1L419.2,1529.4L421.9,1536.3L423.2,1540.3L428.7,1542.3L442.5,1550.2L450.4,1550.6L456.5,1551.6L458.8,1554.6L457.0,1556.2L456.6,1559.5L454.6,1563.7L451.9,1567.5L449.3,1569.7L445.3,1570.2L443.6,1572.1L441.0,1570.1L440.0,1571.2L439.0,1582.8L437.3,1587.3L437.7,1588.4L442.7,1591.2L444.8,1593.4L445.6,1597.0L444.8,1600.2L444.2,1606.4L444.8,1613.2L446.7,1618.1L450.2,1620.7L452.3,1624.1L452.5,1630.0L453.9,1634.7L456.3,1639.6L456.8,1644.0L456.3,1657.5L457.9,1664.3L459.3,1672.1L461.2,1678.5L493.0,1677.5L500.8,1675.6L503.5,1671.0L503.5,1665.8L505.4,1661.5L508.6,1658.3L522.0,1650.8L525.9,1643.9L529.0,1640.5L532.1,1633.8L541.5,1621.5L545.3,1612.8L548.2,1609.8L551.2,1607.4L549.3,1604.9L543.9,1599.7L532.4,1594.2L531.3,1593.2L529.8,1588.9L528.3,1589.9L526.7,1588.4L526.6,1586.8L528.8,1583.1L530.5,1583.5L532.2,1580.5L536.3,1578.7L538.9,1575.3L544.7,1571.6L548.5,1570.4L555.1,1571.8L557.3,1569.8L564.1,1568.9L567.2,1571.0L568.1,1569.7L569.2,1570.6L574.3,1572.0L579.2,1570.1L580.1,1570.6L591.9,1570.6L597.6,1568.6L600.2,1570.5L601.8,1569.7L607.3,1568.8L609.6,1567.7L616.0,1566.4L624.0,1567.0L626.4,1564.5L627.8,1565.2L628.1,1565.1L599.9,1471.0L592.5,1456.2L593.2,1452.9L594.9,1451.8L595.0,1448.2L596.2,1446.2L597.0,1441.9L597.6,1441.2L597.2,1432.9L596.0,1431.4L594.9,1424.1L599.5,1395.9Z " data-id="TD.MO" data-name="Moyen-Chari" id="TD.MO"/>
utf-8</g>
</svg>
