<?xml version="1.0" ?>
<!DOCTYPE svg
  PUBLIC '-//W3C//DTD SVG 1.1//EN'
  'http://www.w3.org/Graphics/SVG/1.1/DTD/svg11.dtd'>
<svg enable_background="new 0 0 1000 2932" height="2932px" pretty_print="True" style="stroke-linejoin: round; stroke:#000; fill: none;" version="1.1" viewBox="0 0 1000 2932" width="1000px" xmlns="http://www.w3.org/2000/svg" xmlns:xlink="http://www.w3.org/1999/xlink">
utf-8<defs>
utf-8utf-8<style type="text/css">
<![CDATA[path { fill-rule: evenodd; }]]>utf-8utf-8</style>
utf-8</defs>
utf-8<metadata>
utf-8utf-8<views>
utf-8utf-8utf-8<view h="2932.9127708" padding="0" w="1000">
utf-8utf-8utf-8utf-8<proj flip="auto" id="robinson" lon0="1.06366850158"/>
utf-8utf-8utf-8utf-8<bbox h="84.42" w="28.79" x="-2.45" y="-186.72"/>
utf-8utf-8utf-8</view>
utf-8utf-8</views>
utf-8</metadata>
utf-8<g class="" id="provinces">
utf-8utf-8<path d="M394.5,1890.1L394.1,1925.0L398.7,1958.2L397.6,1988.7L399.1,2000.1L384.2,1997.2L377.7,2009.1L376.1,2027.1L376.3,2043.0L373.3,2050.8L366.4,2054.8L358.2,2057.3L351.5,2060.7L346.3,2066.4L343.1,2072.7L341.2,2079.8L339.3,2113.7L341.8,2142.3L350.1,2168.0L366.3,2184.1L375.6,2185.6L385.8,2183.5L404.7,2175.6L408.0,2180.7L416.3,2218.9L415.6,2231.5L408.8,2252.8L404.1,2279.8L391.7,2314.7L390.0,2337.5L392.3,2363.7L391.9,2389.1L382.1,2409.1L375.5,2413.3L353.8,2419.6L346.3,2420.3L338.8,2422.9L344.7,2431.8L359.3,2444.6L365.4,2456.9L364.1,2466.7L353.3,2487.1L349.9,2499.3L351.5,2504.9L356.5,2508.2L362.7,2513.7L377.6,2544.9L381.0,2550.0L389.8,2552.1L398.7,2557.7L406.2,2565.7L410.6,2575.1L411.1,2584.6L406.7,2614.0L409.5,2626.1L416.3,2633.1L423.5,2639.1L428.0,2648.4L432.8,2648.9L447.1,2648.4L451.8,2649.5L458.4,2656.7L458.1,2662.2L454.5,2667.6L451.2,2675.0L451.0,2678.6L477.6,2674.2L486.1,2670.5L504.0,2657.9L505.9,2656.0L509.2,2651.3L514.5,2641.6L519.3,2634.9L534.4,2619.2L537.9,2614.4L540.5,2610.3L542.7,2604.6L546.0,2591.7L548.1,2569.1L547.0,2541.4L547.9,2534.5L549.8,2527.5L551.8,2523.6L554.2,2520.9L559.0,2518.0L564.1,2515.7L573.9,2513.1L657.6,2518.5L660.0,2519.2L661.0,2520.9L659.9,2525.0L660.7,2527.0L662.9,2528.2L671.8,2529.6L674.2,2530.9L678.7,2537.5L680.9,2539.1L686.1,2541.3L689.2,2543.1L691.1,2545.3L697.2,2557.0L701.0,2560.7L717.4,2567.0L721.8,2569.2L750.6,2537.0L786.2,2507.2L796.2,2503.0L807.7,2500.1L813.9,2499.5L818.7,2499.9L830.2,2504.1L836.6,2505.4L842.8,2505.7L845.8,2505.2L854.6,2501.7L863.9,2496.2L867.1,2492.9L870.2,2488.4L880.7,2469.3L885.2,2465.0L887.6,2463.7L886.8,2463.0L881.0,2453.3L871.0,2411.9L909.7,2412.2L919.1,2409.1L918.6,2323.6L917.8,2152.2L917.3,2034.6L916.7,1919.2L916.3,1827.1L918.3,1667.6L912.8,1617.7L910.2,1612.3L907.2,1611.1L907.2,1611.1L718.8,1608.5L718.7,1614.6L716.5,1619.7L715.9,1622.5L715.6,1647.7L716.6,1654.3L720.1,1662.4L720.7,1665.6L721.2,1672.8L723.3,1682.2L723.7,1685.4L722.7,1695.1L724.1,1701.0L725.3,1703.4L730.9,1709.4L732.1,1711.9L733.3,1718.4L733.3,1729.7L732.9,1733.3L730.4,1742.7L729.4,1749.5L729.0,1760.7L726.6,1773.7L726.9,1787.9L725.7,1794.4L718.8,1810.6L718.0,1813.3L718.2,1816.1L722.3,1821.9L721.0,1825.1L705.4,1837.4L690.0,1842.6L646.8,1852.5L637.4,1853.1L629.1,1852.2L621.6,1850.2L616.3,1847.5L612.2,1845.9L590.5,1840.9L584.7,1838.6L577.3,1838.6L528.1,1845.7L520.8,1845.6L515.8,1843.7L513.2,1844.6L508.0,1853.2L504.1,1856.4L498.8,1858.0L457.8,1864.2L453.1,1866.2L445.1,1872.0L441.1,1875.6L438.2,1878.8L430.3,1882.5L404.6,1885.2L394.1,1887.3L394.5,1890.1Z " data-id="TG.PL" data-name="Plateaux" id="TG.PL"/>
utf-8utf-8<path d="M887.6,2463.7L885.2,2465.0L880.7,2469.3L870.2,2488.4L867.1,2492.9L863.9,2496.2L854.6,2501.7L845.8,2505.2L842.8,2505.7L836.6,2505.4L830.2,2504.1L818.7,2499.9L813.9,2499.5L807.7,2500.1L796.2,2503.0L786.2,2507.2L750.6,2537.0L721.8,2569.2L717.4,2567.0L701.0,2560.7L697.2,2557.0L691.1,2545.3L689.2,2543.1L686.1,2541.3L680.9,2539.1L678.7,2537.5L674.2,2530.9L671.8,2529.6L662.9,2528.2L660.7,2527.0L659.9,2525.0L661.0,2520.9L660.0,2519.2L657.6,2518.5L573.9,2513.1L564.1,2515.7L559.0,2518.0L554.2,2520.9L551.8,2523.6L549.8,2527.5L547.9,2534.5L547.0,2541.4L548.1,2569.1L546.0,2591.7L542.7,2604.6L540.5,2610.3L537.9,2614.4L534.4,2619.2L519.3,2634.9L514.5,2641.6L509.2,2651.3L505.9,2656.0L504.0,2657.9L486.1,2670.5L477.6,2674.2L451.0,2678.6L450.3,2690.5L453.5,2704.8L459.7,2718.7L467.8,2732.7L478.6,2745.3L504.0,2759.4L516.9,2768.6L533.6,2791.4L540.2,2797.1L550.7,2800.3L589.9,2800.4L603.3,2847.1L611.3,2860.0L615.4,2863.3L619.2,2865.1L623.0,2867.5L627.0,2872.6L633.7,2884.4L639.2,2891.7L646.3,2895.7L688.8,2901.2L694.8,2910.4L693.5,2930.9L696.7,2930.1L700.8,2929.7L737.5,2911.6L818.8,2883.5L916.2,2864.9L912.6,2852.7L923.3,2846.4L989.2,2828.7L999.8,2828.0L990.1,2785.3L980.1,2741.6L966.9,2717.5L962.5,2713.8L951.5,2707.4L948.1,2704.2L946.9,2699.2L948.2,2686.7L947.6,2680.8L944.3,2675.9L935.8,2667.9L934.5,2663.9L933.8,2657.2L930.0,2655.7L925.0,2656.3L920.2,2655.6L916.1,2652.9L911.8,2649.0L907.8,2644.4L904.7,2639.6L903.1,2633.7L903.4,2628.3L904.3,2623.4L904.2,2618.9L898.6,2607.3L891.9,2601.2L888.6,2594.6L892.9,2581.6L904.5,2563.9L906.6,2554.9L903.5,2540.8L899.6,2528.9L897.4,2518.9L897.0,2508.9L900.9,2484.5L899.8,2476.4L895.2,2470.1L887.6,2463.7Z " data-id="TG.MA" data-name="Maritime" id="TG.MA"/>
utf-8utf-8<path d="M595.4,534.7L586.3,550.5L579.8,555.3L576.7,555.4L563.1,552.9L559.0,552.7L553.9,553.2L550.7,555.3L544.7,562.0L542.0,562.6L539.6,561.8L535.6,558.3L532.9,557.2L521.5,556.1L517.9,557.5L508.4,563.4L500.2,569.7L497.4,569.9L495.4,568.6L491.7,560.9L489.1,559.3L485.9,558.0L470.3,556.9L464.7,559.4L462.3,561.8L462.1,564.5L463.0,567.6L464.4,575.6L463.1,582.8L460.7,588.6L445.7,612.3L440.7,623.6L438.7,630.2L437.3,637.4L437.0,655.2L436.5,666.4L435.0,670.1L432.3,674.9L430.9,679.0L429.4,686.6L427.0,694.2L426.8,697.6L427.3,700.6L433.4,720.0L434.0,727.0L433.4,731.2L432.8,731.6L428.1,730.4L422.9,732.0L420.0,731.2L415.4,728.1L412.4,727.0L396.3,728.9L389.7,728.8L381.9,730.9L375.9,733.2L371.8,733.5L368.9,732.6L366.9,730.9L362.6,723.7L358.7,720.0L354.0,717.2L349.8,710.1L349.3,707.3L349.8,704.6L352.2,699.8L352.5,697.6L351.2,695.7L348.8,694.7L345.8,694.5L341.1,694.7L332.9,692.9L326.7,693.1L322.7,692.5L319.8,691.2L316.0,687.4L313.6,686.2L304.7,684.5L302.6,683.0L301.1,680.7L300.3,674.2L301.0,667.6L301.1,664.4L300.5,661.0L299.2,657.9L293.8,648.3L290.1,642.9L287.1,640.0L286.8,641.8L281.0,643.5L273.1,642.0L264.2,644.0L267.2,649.7L266.9,653.4L265.2,657.0L264.2,662.4L265.0,666.3L271.1,680.1L274.6,691.6L274.3,696.3L270.7,699.9L264.2,707.9L260.1,716.7L259.0,724.9L261.3,748.2L261.2,754.8L250.2,800.1L250.9,810.9L253.6,817.2L257.3,821.7L260.7,827.5L263.1,836.1L264.3,846.6L262.8,856.8L257.5,864.0L248.3,865.3L239.7,859.9L226.1,843.8L218.7,860.3L219.1,877.3L227.3,889.5L243.2,891.5L264.0,885.5L274.1,887.7L278.5,899.8L275.0,907.8L266.7,910.4L257.3,908.6L250.2,903.4L241.1,910.2L228.8,911.0L203.0,907.7L201.7,911.4L199.3,927.8L199.5,931.6L204.5,936.9L209.6,940.9L214.9,943.5L228.0,940.7L235.2,941.2L239.7,947.5L237.8,953.5L231.2,958.6L223.2,962.1L201.9,967.0L201.9,975.3L205.5,984.5L201.3,991.2L203.6,999.0L213.1,1000.2L222.6,998.0L246.0,988.8L249.9,985.1L251.9,980.1L253.5,968.4L256.1,963.8L263.8,959.9L275.3,957.6L295.9,956.3L305.6,958.1L332.7,969.3L336.0,974.4L336.9,980.2L335.8,986.1L332.4,992.7L332.7,994.4L348.0,1000.3L357.3,1009.4L360.4,1023.0L355.7,1052.6L354.8,1069.6L352.7,1076.9L347.5,1083.0L341.8,1086.8L337.6,1092.3L337.1,1103.8L343.5,1124.7L343.6,1133.9L337.5,1145.8L325.9,1157.5L322.6,1163.1L322.7,1172.2L320.0,1190.9L311.3,1209.0L306.1,1226.8L312.9,1244.9L337.8,1292.3L344.2,1320.7L332.9,1339.0L347.0,1334.5L357.8,1329.9L368.0,1319.3L370.8,1318.0L378.7,1317.9L382.1,1316.8L384.8,1314.6L387.0,1310.2L387.0,1306.8L385.8,1304.3L382.5,1300.6L382.2,1297.6L383.0,1294.7L385.9,1291.5L406.4,1276.3L407.9,1274.0L411.8,1258.3L413.9,1256.0L416.7,1254.2L425.9,1252.3L429.5,1250.7L434.7,1244.5L437.0,1240.5L438.6,1238.9L449.5,1230.4L452.0,1227.2L453.8,1224.2L457.6,1216.1L459.7,1214.6L462.3,1213.8L469.6,1215.5L474.1,1215.7L480.7,1215.0L483.7,1216.4L485.5,1218.9L488.5,1227.6L504.7,1234.4L508.1,1235.0L514.6,1235.5L517.8,1236.1L526.2,1239.5L535.8,1240.2L554.9,1235.8L564.2,1234.7L568.2,1233.0L572.7,1230.2L580.1,1223.4L586.9,1215.4L595.6,1206.8L597.5,1203.1L598.0,1199.9L592.3,1186.3L591.1,1180.3L591.2,1158.9L590.2,1148.1L590.4,1141.3L591.7,1134.4L593.8,1128.3L597.7,1123.1L615.1,1118.5L653.6,1112.6L661.5,1112.6L687.0,1118.8L693.2,1119.1L703.0,1118.6L773.7,1096.2L782.8,1096.6L792.4,1091.0L812.5,1072.7L802.8,1055.9L795.3,1032.7L791.8,973.7L785.9,957.1L777.1,962.0L769.5,953.3L764.3,939.0L762.7,927.2L764.8,919.6L773.9,903.8L777.1,896.5L777.7,890.5L777.5,878.8L778.7,873.0L779.5,866.0L775.4,838.8L774.7,793.6L773.7,729.9L773.0,682.6L766.5,662.8L639.0,567.3L595.4,534.7Z " data-id="TG.KA" data-name="Kara" id="TG.KA"/>
utf-8utf-8<path d="M812.5,1072.7L792.4,1091.0L782.8,1096.6L773.7,1096.2L703.0,1118.6L693.2,1119.1L687.0,1118.8L661.5,1112.6L653.6,1112.6L615.1,1118.5L597.7,1123.1L593.8,1128.3L591.7,1134.4L590.4,1141.3L590.2,1148.1L591.2,1158.9L591.1,1180.3L592.3,1186.3L598.0,1199.9L597.5,1203.1L595.6,1206.8L586.9,1215.4L580.1,1223.4L572.7,1230.2L568.2,1233.0L564.2,1234.7L554.9,1235.8L535.8,1240.2L526.2,1239.5L517.8,1236.1L514.6,1235.5L508.1,1235.0L504.7,1234.4L488.5,1227.6L485.5,1218.9L483.7,1216.4L480.7,1215.0L474.1,1215.7L469.6,1215.5L462.3,1213.8L459.7,1214.6L457.6,1216.1L453.8,1224.2L452.0,1227.2L449.5,1230.4L438.6,1238.9L437.0,1240.5L434.7,1244.5L429.5,1250.7L425.9,1252.3L416.7,1254.2L413.9,1256.0L411.8,1258.3L407.9,1274.0L406.4,1276.3L385.9,1291.5L383.0,1294.7L382.2,1297.6L382.5,1300.6L385.8,1304.3L387.0,1306.8L387.0,1310.2L384.8,1314.6L382.1,1316.8L378.7,1317.9L370.8,1318.0L368.0,1319.3L357.8,1329.9L347.0,1334.5L332.9,1339.0L332.9,1339.1L330.3,1346.3L329.5,1355.4L327.7,1363.1L322.1,1366.1L315.4,1364.9L310.3,1363.1L305.5,1362.4L300.1,1364.4L302.9,1366.7L299.4,1376.4L294.1,1383.2L288.6,1370.1L282.5,1367.4L276.1,1368.8L272.6,1374.3L277.0,1403.1L292.0,1439.6L312.4,1471.8L332.9,1487.5L341.6,1498.9L354.0,1511.8L367.4,1522.7L401.0,1540.5L409.9,1561.9L416.6,1584.0L436.2,1602.3L437.3,1608.4L437.2,1615.1L438.5,1623.6L438.0,1629.4L438.4,1632.2L440.4,1634.2L446.5,1635.3L448.4,1637.3L450.4,1651.6L446.6,1660.5L438.4,1666.2L415.8,1677.5L407.2,1683.9L390.1,1701.2L385.8,1703.5L381.9,1704.1L379.3,1706.3L378.7,1713.9L380.8,1720.0L384.8,1724.3L388.3,1729.3L389.2,1737.4L386.4,1744.9L382.4,1748.4L379.9,1752.5L382.6,1766.8L384.5,1794.2L389.2,1815.9L389.5,1827.1L389.1,1848.8L394.1,1887.3L404.6,1885.2L430.3,1882.5L438.2,1878.8L441.1,1875.6L445.1,1872.0L453.1,1866.2L457.8,1864.2L498.8,1858.0L504.1,1856.4L508.0,1853.2L513.2,1844.6L515.8,1843.7L520.8,1845.6L528.1,1845.7L577.3,1838.6L584.7,1838.6L590.5,1840.9L612.2,1845.9L616.3,1847.5L621.6,1850.2L629.1,1852.2L637.4,1853.1L646.8,1852.5L690.0,1842.6L705.4,1837.4L721.0,1825.1L722.3,1821.9L718.2,1816.1L718.0,1813.3L718.8,1810.6L725.7,1794.4L726.9,1787.9L726.6,1773.7L729.0,1760.7L729.4,1749.5L730.4,1742.7L732.9,1733.3L733.3,1729.7L733.3,1718.4L732.1,1711.9L730.9,1709.4L725.3,1703.4L724.1,1701.0L722.7,1695.1L723.7,1685.4L723.3,1682.2L721.2,1672.8L720.7,1665.6L720.1,1662.4L716.6,1654.3L715.6,1647.7L715.9,1622.5L716.5,1619.7L718.7,1614.6L718.8,1608.5L907.2,1611.1L905.7,1608.7L908.3,1594.5L908.2,1584.4L909.0,1579.5L925.8,1548.1L927.7,1537.8L925.6,1532.1L912.3,1513.1L909.7,1506.6L909.0,1499.8L907.8,1404.5L905.4,1214.1L902.6,1198.2L898.5,1184.2L888.0,1163.3L856.1,1125.6L815.1,1077.3L812.5,1072.7Z " data-id="TG.CE" data-name="Centre" id="TG.CE"/>
utf-8utf-8<path d="M287.1,640.0L290.1,642.9L293.8,648.3L299.2,657.9L300.5,661.0L301.1,664.4L301.0,667.6L300.3,674.2L301.1,680.7L302.6,683.0L304.7,684.5L313.6,686.2L316.0,687.4L319.8,691.2L322.7,692.5L326.7,693.1L332.9,692.9L341.1,694.7L345.8,694.5L348.8,694.7L351.2,695.7L352.5,697.6L352.2,699.8L349.8,704.6L349.3,707.3L349.8,710.1L354.0,717.2L358.7,720.0L362.6,723.7L366.9,730.9L368.9,732.6L371.8,733.5L375.9,733.2L381.9,730.9L389.7,728.8L396.3,728.9L412.4,727.0L415.4,728.1L420.0,731.2L422.9,732.0L428.1,730.4L432.8,731.6L433.4,731.2L434.0,727.0L433.4,720.0L427.3,700.6L426.8,697.6L427.0,694.2L429.4,686.6L430.9,679.0L432.3,674.9L435.0,670.1L436.5,666.4L437.0,655.2L437.3,637.4L438.7,630.2L440.7,623.6L445.7,612.3L460.7,588.6L463.1,582.8L464.4,575.6L463.0,567.6L462.1,564.5L462.3,561.8L464.7,559.4L470.3,556.9L485.9,558.0L489.1,559.3L491.7,560.9L495.4,568.6L497.4,569.9L500.2,569.7L508.4,563.4L517.9,557.5L521.5,556.1L532.9,557.2L535.6,558.3L539.6,561.8L542.0,562.6L544.7,562.0L550.7,555.3L553.9,553.2L559.0,552.7L563.1,552.9L576.7,555.4L579.8,555.3L586.3,550.5L595.4,534.7L565.9,512.6L478.5,447.0L474.4,438.3L474.0,424.9L481.1,364.9L488.6,332.5L488.9,309.7L484.8,257.3L492.1,237.8L519.9,208.0L526.5,197.3L528.1,191.3L528.9,178.0L529.9,171.8L537.9,154.6L537.1,148.3L532.8,136.5L531.6,130.2L533.1,118.7L546.2,82.8L479.7,84.2L430.5,85.3L398.4,92.2L334.5,117.4L340.7,92.7L332.5,90.4L334.3,88.1L336.1,80.7L334.0,76.7L232.2,53.3L115.6,26.5L0.2,0.0L4.0,9.6L12.5,18.4L22.9,24.9L32.3,27.6L41.6,26.5L59.0,21.4L68.6,21.2L85.7,28.5L93.4,42.1L95.0,60.2L93.6,80.8L92.4,88.1L88.8,92.1L84.3,95.3L80.2,100.1L77.7,105.6L66.7,164.1L67.1,169.7L69.7,181.2L68.7,187.3L64.3,192.1L53.9,200.0L46.6,210.3L42.8,220.5L40.0,244.8L35.1,267.8L34.8,279.9L40.0,291.9L44.5,296.2L50.1,299.2L56.2,301.0L68.1,302.7L71.7,305.4L74.9,308.9L79.5,312.5L95.5,318.4L100.2,321.6L104.2,327.1L110.2,340.0L114.4,345.7L141.5,364.9L149.6,374.5L175.7,429.2L177.2,431.3L181.1,430.8L183.2,427.4L184.6,423.6L186.0,421.9L199.5,427.9L204.5,428.7L210.3,427.0L215.1,424.3L219.7,422.7L224.9,424.0L230.0,429.7L230.2,436.2L228.5,442.3L227.8,447.3L233.5,457.9L242.3,466.7L247.6,476.0L243.1,487.8L250.3,487.7L272.7,483.5L277.6,486.1L288.1,495.9L275.5,506.4L273.1,515.3L271.6,524.9L267.9,532.7L268.8,552.3L266.1,593.5L271.1,608.5L277.6,613.2L283.3,614.8L287.4,618.6L288.9,630.4L287.1,640.0Z " data-id="TG.SA" data-name="Savanes" id="TG.SA"/>
utf-8</g>
</svg>
