<?xml version="1.0" ?>
<!DOCTYPE svg
  PUBLIC '-//W3C//DTD SVG 1.1//EN'
  'http://www.w3.org/Graphics/SVG/1.1/DTD/svg11.dtd'>
<svg enable_background="new 0 0 1000 633" height="633px" pretty_print="True" style="stroke-linejoin: round; stroke:#000; fill: none;" version="1.1" viewBox="0 0 1000 633" width="1000px" xmlns="http://www.w3.org/2000/svg" xmlns:xlink="http://www.w3.org/1999/xlink">
utf-8<defs>
utf-8utf-8<style type="text/css">
<![CDATA[path { fill-rule: evenodd; }]]>utf-8utf-8</style>
utf-8</defs>
utf-8<metadata>
utf-8utf-8<views>
utf-8utf-8utf-8<view h="633.40414838" padding="0" w="1000">
utf-8utf-8utf-8utf-8<proj flip="auto" id="robinson" lon0="73.0550811876"/>
utf-8utf-8utf-8utf-8<bbox h="73.5" w="116.22" x="922.67" y="-689.02"/>
utf-8utf-8utf-8</view>
utf-8utf-8</views>
utf-8</metadata>
utf-8<g class="" id="provinces">
utf-8utf-8<path d="M579.2,264.4L580.8,271.9L578.9,275.4L575.3,276.9L571.6,280.6L573.0,286.3L572.5,287.9L567.5,294.1L565.0,298.2L564.8,302.0L565.7,308.6L566.7,310.6L570.9,316.1L575.3,319.7L572.6,322.3L570.4,327.3L567.8,330.2L564.2,332.1L558.5,332.4L553.8,333.7L548.8,338.5L547.0,339.0L545.1,343.3L541.1,342.1L536.2,343.8L529.2,344.1L527.5,345.3L525.0,351.8L522.2,353.8L523.4,359.0L521.7,361.5L518.0,361.3L514.5,364.5L513.7,368.2L507.5,363.1L505.7,362.6L497.7,366.5L494.5,365.4L491.5,362.4L487.7,360.2L486.1,358.6L482.6,351.4L479.0,348.8L471.8,349.8L466.7,350.1L462.9,349.1L461.0,345.8L461.5,343.6L460.4,335.6L459.3,333.7L452.8,325.6L451.9,321.4L450.9,320.5L444.6,320.7L439.5,323.2L436.3,326.0L433.4,326.6L424.3,326.1L422.2,322.5L420.1,320.6L415.6,321.8L411.2,323.3L409.7,324.5L404.7,330.0L400.7,333.8L404.9,336.4L408.0,341.6L406.7,345.0L401.5,351.1L399.8,357.4L395.3,362.3L395.5,364.4L394.7,366.4L388.4,373.0L387.7,376.5L392.9,388.4L392.8,397.8L395.7,406.7L397.8,414.8L397.6,420.8L394.9,429.3L394.5,432.4L395.0,434.1L398.8,437.9L400.8,436.7L401.6,436.0L405.1,429.1L410.0,422.9L413.6,421.2L415.2,417.5L416.2,409.5L417.9,402.8L418.0,399.2L421.8,397.4L422.1,392.4L420.8,388.2L429.0,382.8L429.4,381.1L426.6,379.4L426.4,378.4L428.2,377.0L434.9,376.3L436.2,372.8L438.0,372.4L448.8,371.4L454.3,373.7L457.3,374.4L458.2,372.9L456.9,369.6L457.5,368.5L461.8,368.8L466.4,371.9L470.2,376.9L471.7,377.9L480.1,379.4L485.6,382.6L494.8,390.0L505.7,394.0L510.4,396.6L514.4,400.9L516.9,407.4L517.1,410.7L516.7,417.0L517.1,421.3L516.0,425.4L516.0,431.4L514.2,437.9L514.3,446.5L515.3,448.4L518.1,448.6L523.5,452.2L526.4,453.2L530.1,450.3L543.3,445.5L547.6,445.7L551.8,448.1L556.6,452.5L555.9,453.5L558.7,461.9L558.9,464.6L557.7,467.2L554.1,469.9L557.1,480.1L557.0,484.7L557.7,490.7L556.3,494.7L557.5,501.1L562.2,512.9L562.6,518.8L562.3,524.2L564.6,529.8L566.5,536.0L566.7,540.9L567.7,545.0L565.2,552.4L566.5,555.9L565.9,559.5L566.5,565.5L568.6,574.4L573.3,580.9L574.1,582.6L575.6,588.7L576.8,591.8L578.5,594.5L588.0,605.3L590.0,608.3L592.5,615.1L598.4,623.4L603.5,627.6L609.2,630.2L615.1,631.4L620.9,631.4L626.4,630.3L630.6,628.4L658.6,602.9L660.9,599.5L664.3,597.2L667.0,592.2L670.9,589.0L681.7,584.2L686.7,583.1L695.3,584.6L698.8,582.6L715.9,580.0L716.6,575.8L719.5,568.1L722.1,556.7L724.4,551.9L728.3,549.0L733.6,548.0L736.3,547.0L738.1,543.9L745.3,538.8L753.6,538.0L755.6,536.4L757.3,530.0L758.6,527.8L762.2,524.3L765.9,524.9L767.1,524.3L771.2,518.2L777.8,515.7L780.7,516.1L785.1,517.8L791.5,513.8L796.7,513.6L812.3,518.8L821.1,521.0L826.2,520.8L830.6,521.3L832.7,532.4L832.4,534.6L828.0,539.4L823.5,539.9L821.3,540.8L819.3,542.9L818.6,545.8L819.9,548.9L822.1,550.0L826.7,548.4L829.2,548.6L833.6,552.4L836.4,550.8L842.2,551.1L843.8,550.7L847.2,546.5L849.4,545.8L854.3,545.2L860.2,542.1L862.6,541.6L870.7,538.4L883.2,535.8L885.7,534.5L887.2,532.0L886.1,527.0L887.5,525.0L890.6,525.0L894.3,525.9L897.1,525.5L897.4,521.6L898.6,523.5L902.4,523.2L904.9,526.0L911.1,527.1L915.3,526.4L918.2,527.6L924.9,529.1L936.7,528.3L939.7,526.4L957.4,535.6L961.7,539.2L969.6,548.3L973.7,550.3L975.8,549.1L976.9,544.2L978.7,542.9L981.4,542.5L991.4,538.4L991.9,536.6L990.7,531.2L991.5,528.7L993.9,527.3L999.2,525.4L994.7,522.8L990.5,519.6L982.3,511.7L979.7,509.9L967.3,503.7L962.8,500.5L958.9,496.3L956.4,491.1L956.1,488.3L958.8,482.2L958.7,478.4L960.8,471.6L959.7,469.0L957.8,467.6L950.9,464.3L948.9,462.4L948.0,460.5L950.2,456.1L947.3,453.4L945.1,447.7L943.0,438.5L940.4,434.4L930.8,429.8L927.4,425.7L920.3,408.9L916.4,395.0L916.5,390.0L920.0,384.5L920.7,382.2L919.8,376.7L916.6,369.9L912.0,367.1L907.9,363.0L905.6,361.7L897.9,361.1L890.4,355.7L868.3,348.3L849.2,340.3L846.6,339.9L839.2,342.7L834.2,342.4L826.2,339.9L824.2,339.9L822.8,340.9L821.8,343.4L822.5,347.0L821.9,348.0L817.0,350.2L817.9,353.0L821.6,357.7L820.8,360.2L818.9,360.6L807.5,360.3L805.3,359.2L800.9,356.0L793.8,353.2L788.5,349.6L786.8,347.3L783.9,341.3L782.5,339.2L776.4,332.3L775.3,330.1L774.2,323.7L773.0,320.9L771.1,318.8L766.6,315.1L764.6,312.9L763.5,310.3L763.7,307.7L765.9,303.7L768.2,302.5L773.9,302.5L776.2,301.6L777.4,299.9L777.3,297.7L776.3,295.2L774.4,292.8L772.4,291.7L767.3,287.5L758.8,282.4L753.0,273.2L751.3,271.2L745.0,266.5L740.8,261.8L739.0,257.7L738.7,253.4L739.4,243.3L738.0,238.1L734.3,229.8L733.5,227.0L729.7,225.4L718.5,224.3L714.5,224.6L702.5,227.7L700.2,229.6L699.9,235.3L693.6,236.5L682.8,240.4L679.1,240.7L669.4,238.5L664.4,241.4L652.7,239.4L650.2,239.2L643.6,240.3L620.3,234.9L618.3,234.8L611.0,239.8L604.5,238.0L601.9,241.8L593.9,241.0L591.9,241.1L588.1,243.2L583.7,244.3L582.9,246.5L582.5,254.3L580.6,264.4L579.2,264.5L579.2,264.4Z " data-id="TJ.BK" data-name="Gorno-Badakhshan" id="TJ.BK"/>
utf-8utf-8<path d="M394.1,360.1L390.2,354.6L381.6,349.0L374.8,349.7L369.2,349.6L366.8,350.5L364.4,353.5L362.1,357.5L360.4,356.3L359.3,347.6L357.9,345.4L352.4,342.8L346.9,338.0L337.3,331.0L334.9,330.4L325.4,334.7L320.2,342.0L318.0,349.6L314.5,351.4L313.4,351.3L308.1,347.5L305.2,348.3L297.8,365.6L293.9,370.4L288.9,374.1L278.6,388.7L275.7,390.4L270.2,389.1L269.1,387.5L267.7,381.5L257.9,381.2L255.0,376.2L249.3,373.9L244.5,376.4L228.6,377.4L221.4,380.2L219.4,381.6L215.7,388.8L211.6,389.9L210.3,389.7L206.7,386.4L205.6,386.0L199.1,391.2L192.9,390.7L188.3,389.4L184.7,391.5L183.4,393.7L183.4,396.0L186.2,401.0L188.1,410.2L185.1,418.1L184.4,423.4L188.5,425.3L189.8,432.0L189.7,436.3L186.5,438.0L185.4,440.1L185.0,443.1L184.9,449.8L183.8,451.2L180.3,451.6L178.1,449.6L167.4,451.5L164.4,451.3L156.9,446.0L156.4,446.4L149.4,447.7L146.0,448.9L144.4,451.0L143.2,466.0L141.4,472.7L135.7,484.5L130.8,490.5L126.6,498.1L123.7,506.7L122.6,515.8L123.6,521.9L128.8,533.5L130.8,539.7L131.4,545.0L131.3,549.9L130.1,554.3L130.1,556.5L131.4,565.9L132.0,568.1L134.0,570.0L140.5,573.5L146.2,574.8L152.8,582.2L158.8,585.7L164.1,590.7L166.7,594.4L168.0,595.1L178.1,587.1L181.3,585.3L184.5,581.5L187.5,581.1L192.8,582.7L195.6,582.7L196.4,580.6L193.2,571.5L193.5,569.1L195.4,567.4L202.8,569.1L205.8,568.7L207.8,567.6L208.1,565.4L205.5,562.0L212.8,561.4L219.3,560.0L223.9,555.6L230.1,553.9L230.3,550.5L231.3,548.3L233.9,547.9L231.5,544.9L232.4,543.4L244.9,544.5L250.0,547.3L251.4,547.4L251.6,546.0L250.5,542.8L248.0,538.4L248.0,536.7L250.4,535.9L253.1,536.5L258.6,542.8L260.5,543.6L262.1,541.9L261.1,539.8L257.1,536.8L256.1,535.1L257.5,534.9L265.8,535.9L268.5,537.2L271.4,539.4L273.9,541.9L277.0,547.3L285.6,552.9L289.0,558.2L294.2,561.5L307.3,569.0L309.7,568.7L311.8,567.6L316.0,566.5L318.4,563.1L322.4,560.0L323.9,558.2L326.3,551.4L326.2,549.5L321.7,548.2L321.8,544.9L320.5,543.6L318.5,538.5L314.8,532.7L314.8,529.8L312.8,528.3L310.9,520.0L314.3,511.7L318.6,507.9L320.6,505.4L321.1,499.3L323.2,498.2L339.7,499.7L342.2,499.2L346.7,497.0L350.5,496.8L355.8,498.9L365.5,493.5L368.3,493.7L370.7,495.4L374.2,499.8L379.4,501.7L382.6,504.1L386.5,504.8L385.4,503.7L388.8,504.2L392.7,505.5L396.4,506.1L399.5,504.8L403.0,497.9L403.6,493.7L406.5,493.7L407.5,491.7L407.4,487.3L408.3,485.1L408.2,480.8L407.5,478.7L404.4,472.4L404.6,470.7L400.4,466.2L398.5,462.8L392.7,461.0L389.9,458.0L387.2,453.7L385.4,449.2L385.8,445.5L388.7,447.4L391.5,448.0L396.7,446.5L394.4,442.9L394.5,441.5L397.7,440.3L398.3,438.2L398.8,437.9L395.0,434.1L394.5,432.4L394.9,429.3L397.6,420.8L397.8,414.8L395.7,406.7L392.8,397.8L392.9,388.4L387.7,376.5L388.4,373.0L394.7,366.4L395.5,364.4L395.3,362.3L394.1,360.1Z " data-id="TJ.KL" data-name="Khatlon" id="TJ.KL"/>
utf-8utf-8<path d="M381.5,220.3L376.6,224.5L373.3,229.1L367.1,229.9L366.2,232.5L363.8,233.8L352.6,237.2L347.8,237.4L343.1,235.2L341.6,235.8L339.9,239.7L329.0,245.5L326.2,247.5L324.4,243.5L321.8,242.4L320.1,242.7L314.4,246.5L311.1,244.0L309.9,243.8L297.5,245.6L294.1,252.1L290.2,253.7L288.4,253.3L285.4,251.1L283.9,249.2L281.6,249.4L274.6,254.0L278.3,257.7L280.5,265.6L279.6,269.9L277.5,272.1L278.4,276.0L272.0,278.7L268.8,281.4L267.1,279.4L266.6,274.2L264.4,269.8L263.3,268.6L256.3,264.7L244.8,266.4L243.6,267.8L243.2,270.9L244.4,276.2L241.5,277.7L230.0,277.3L225.8,278.9L218.4,283.5L216.2,285.9L213.0,287.5L194.8,283.2L188.1,282.6L181.1,283.1L176.9,280.7L175.3,280.9L165.3,285.1L157.1,284.7L155.5,287.3L155.6,291.2L152.4,294.4L150.7,299.0L144.7,301.2L141.3,301.0L137.5,302.6L129.1,301.9L127.3,302.4L119.4,305.5L113.6,305.7L110.6,306.5L112.3,308.2L114.3,311.1L115.0,314.3L114.6,316.8L110.5,321.4L104.7,322.7L105.1,325.8L107.8,329.9L108.1,331.6L105.3,334.5L105.0,336.7L106.0,339.3L109.0,344.8L110.0,347.7L111.8,356.1L112.9,359.3L118.3,365.5L123.6,376.5L129.4,380.8L135.8,388.6L138.3,390.6L145.3,393.9L156.8,402.1L160.8,406.5L162.8,412.2L163.0,420.7L162.2,428.8L159.3,435.7L157.9,445.1L156.9,446.0L164.4,451.3L167.4,451.5L178.1,449.6L180.3,451.6L183.8,451.2L184.9,449.8L185.0,443.1L185.4,440.1L186.5,438.0L189.7,436.3L189.8,432.0L188.5,425.3L184.4,423.4L185.1,418.1L188.1,410.2L186.2,401.0L183.4,396.0L183.4,393.7L184.7,391.5L188.3,389.4L192.9,390.7L199.1,391.2L205.6,386.0L206.7,386.4L210.3,389.7L211.6,389.9L215.7,388.8L219.4,381.6L221.4,380.2L228.6,377.4L244.5,376.4L249.3,373.9L255.0,376.2L257.9,381.2L267.7,381.5L269.1,387.5L270.2,389.1L275.7,390.4L278.6,388.7L288.9,374.1L293.9,370.4L297.8,365.6L305.2,348.3L308.1,347.5L313.4,351.3L314.5,351.4L318.0,349.6L320.2,342.0L325.4,334.7L334.9,330.4L337.3,331.0L346.9,338.0L352.4,342.8L357.9,345.4L359.3,347.6L360.4,356.3L362.1,357.5L364.4,353.5L366.8,350.5L369.2,349.6L374.8,349.7L381.6,349.0L390.2,354.6L394.1,360.1L395.3,362.3L399.8,357.4L401.5,351.1L406.7,345.0L408.0,341.6L404.9,336.4L400.7,333.8L404.7,330.0L409.7,324.5L411.2,323.3L415.6,321.8L420.1,320.6L422.2,322.5L424.3,326.1L433.4,326.6L436.3,326.0L439.5,323.2L444.6,320.7L450.9,320.5L451.9,321.4L452.8,325.6L459.3,333.7L460.4,335.6L461.5,343.6L461.0,345.8L462.9,349.1L466.7,350.1L471.8,349.8L479.0,348.8L482.6,351.4L486.1,358.6L487.7,360.2L491.5,362.4L494.5,365.4L497.7,366.5L505.7,362.6L507.5,363.1L513.7,368.2L514.5,364.5L518.0,361.3L521.7,361.5L523.4,359.0L522.2,353.8L525.0,351.8L527.5,345.3L529.2,344.1L536.2,343.8L541.1,342.1L545.1,343.3L547.0,339.0L548.8,338.5L553.8,333.7L558.5,332.4L564.2,332.1L567.8,330.2L570.4,327.3L572.6,322.3L575.3,319.7L570.9,316.1L566.7,310.6L565.7,308.6L564.8,302.0L565.0,298.2L567.5,294.1L572.5,287.9L573.0,286.3L571.6,280.6L575.3,276.9L578.9,275.4L580.8,271.9L579.2,264.4L577.5,262.8L575.8,260.4L574.1,257.0L567.9,253.8L562.6,253.0L559.9,252.0L558.2,249.9L555.4,243.1L553.1,240.0L550.7,238.5L548.6,238.8L545.1,240.9L541.0,241.8L539.3,242.8L529.9,250.6L526.1,252.4L521.9,252.8L519.5,252.2L516.9,250.6L514.5,248.3L512.8,245.4L512.2,242.4L514.8,236.9L514.4,234.0L513.0,230.3L511.0,227.0L508.6,225.4L506.3,225.5L495.1,227.9L489.3,227.6L483.8,225.5L479.9,220.5L480.3,218.2L482.0,214.1L482.0,211.9L480.7,209.6L475.7,205.7L471.1,203.4L469.0,203.6L465.5,205.4L462.3,206.0L454.1,212.5L451.5,216.6L442.0,216.2L437.1,216.5L432.5,217.8L429.4,220.2L428.1,224.2L427.7,228.9L426.7,232.9L423.4,234.7L420.0,233.9L413.7,231.0L411.7,232.0L410.8,233.6L402.7,236.1L399.6,236.6L395.9,236.0L392.2,234.2L389.6,231.3L388.9,225.5L387.6,223.6L381.6,220.4L381.5,220.3Z M197.9,348.9L198.9,351.2L200.1,351.1L200.4,352.8L204.0,353.9L205.2,355.8L207.4,356.3L206.2,360.3L203.1,361.6L200.6,364.5L201.7,368.4L197.4,369.1L194.8,367.6L193.2,362.2L191.5,360.4L191.9,358.8L190.7,357.1L188.3,358.2L187.3,357.3L189.9,355.2L188.1,352.6L188.1,351.3L193.2,349.0L193.4,347.3L192.0,341.5L193.3,342.5L197.9,348.9Z " data-id="TJ.RR" data-name="Tadzhikistan Territories" id="TJ.RR"/>
utf-8utf-8<path d="M362.6,169.1L347.0,164.7L345.3,164.6L345.8,166.8L349.5,171.3L354.3,173.9L361.6,181.2L366.3,176.6L369.2,175.0L372.8,174.3L373.7,173.2L373.2,170.7L371.5,168.0L370.0,167.7L366.7,169.3L362.6,169.1Z M318.2,12.4L313.3,6.6L309.9,4.3L306.3,3.0L304.5,3.5L309.5,8.3L314.2,12.6L316.7,14.3L319.2,14.8L318.2,12.4Z M110.6,306.5L113.6,305.7L119.4,305.5L127.3,302.4L129.1,301.9L137.5,302.6L141.3,301.0L144.7,301.2L150.7,299.0L152.4,294.4L155.6,291.2L155.5,287.3L157.1,284.7L165.3,285.1L175.3,280.9L176.9,280.7L181.1,283.1L188.1,282.6L194.8,283.2L213.0,287.5L216.2,285.9L218.4,283.5L225.8,278.9L230.0,277.3L241.5,277.7L244.4,276.2L243.2,270.9L243.6,267.8L244.8,266.4L256.3,264.7L263.3,268.6L264.4,269.8L266.6,274.2L267.1,279.4L268.8,281.4L272.0,278.7L278.4,276.0L277.5,272.1L279.6,269.9L280.5,265.6L278.3,257.7L274.6,254.0L281.6,249.4L283.9,249.2L285.4,251.1L288.4,253.3L290.2,253.7L294.1,252.1L297.5,245.6L309.9,243.8L311.1,244.0L314.4,246.5L320.1,242.7L321.8,242.4L324.4,243.5L326.2,247.5L329.0,245.5L339.9,239.7L341.6,235.8L343.1,235.2L347.8,237.4L352.6,237.2L363.8,233.8L366.2,232.5L367.1,229.9L373.3,229.1L376.6,224.5L381.5,220.3L377.2,213.4L374.7,210.4L371.3,208.4L369.2,208.1L365.1,208.9L356.2,205.0L347.9,207.4L346.5,209.4L340.0,209.0L331.6,216.3L329.7,216.8L327.5,216.1L326.7,214.1L326.5,208.9L324.4,203.8L322.9,202.4L321.5,203.7L320.1,210.4L319.5,211.7L317.7,212.4L311.1,209.5L306.0,209.0L303.7,209.7L300.3,214.6L296.3,213.1L291.4,212.6L282.8,214.3L277.9,213.0L272.2,210.4L267.1,208.9L262.2,208.4L252.1,209.0L250.3,209.7L245.6,214.1L234.1,216.0L231.4,215.2L227.0,211.9L226.0,212.4L225.5,215.5L221.3,217.3L218.7,213.8L214.4,196.7L211.7,191.6L204.6,186.1L203.1,183.4L201.8,177.8L201.6,172.2L202.6,156.9L203.7,149.6L205.4,149.9L209.9,153.5L218.2,162.6L228.4,158.8L227.7,156.9L223.6,152.3L219.6,144.1L219.3,140.4L221.7,133.9L221.9,129.8L227.7,133.2L229.5,132.9L271.2,117.5L275.4,117.9L295.1,128.1L297.9,128.9L303.6,128.6L306.4,128.8L309.3,130.0L316.0,135.6L318.4,136.6L322.7,137.1L327.7,139.0L337.4,140.3L340.6,141.2L343.8,142.9L345.8,145.4L345.0,148.6L340.4,152.0L339.4,154.0L339.5,159.2L340.9,161.1L343.7,161.9L346.0,155.6L351.0,155.4L356.6,151.2L357.4,148.6L357.0,143.7L355.6,139.2L355.0,135.6L357.3,132.8L364.1,130.5L365.4,129.6L369.7,124.7L371.6,125.4L375.5,123.2L382.1,124.5L385.4,123.3L388.5,120.6L389.4,117.1L386.0,113.7L383.5,113.5L373.4,114.3L358.1,119.1L353.2,119.5L348.1,119.2L342.5,116.1L338.6,110.0L335.1,103.4L330.5,98.7L327.6,97.7L321.0,98.7L318.3,98.1L311.8,95.6L311.9,90.7L307.3,86.3L305.8,82.7L306.8,79.9L309.7,77.8L317.2,76.1L320.4,69.8L321.6,68.3L326.1,66.4L327.3,65.3L329.9,60.6L338.8,52.0L340.6,51.6L341.1,49.8L342.6,48.8L342.0,42.7L336.8,40.4L325.4,38.1L322.9,35.9L321.9,33.5L322.4,31.7L324.7,31.4L329.8,34.7L332.3,35.5L331.7,32.9L330.4,31.6L302.3,9.5L291.9,2.0L286.1,0.0L282.1,1.1L283.4,16.0L279.1,22.9L272.1,27.6L261.3,32.0L252.6,39.8L233.0,46.1L229.0,49.1L225.8,54.8L223.7,57.1L220.9,58.0L216.9,56.8L208.5,49.2L203.3,46.3L196.8,39.8L193.5,37.5L189.6,37.2L183.7,33.5L181.5,33.3L175.2,36.7L173.3,40.2L172.6,43.9L173.1,48.2L174.6,53.4L177.6,60.9L177.7,62.8L176.3,63.8L169.4,64.3L166.0,67.0L166.8,69.9L180.5,87.8L187.1,95.6L188.8,98.8L189.9,105.8L186.3,106.4L181.4,104.8L178.4,105.1L180.1,109.3L190.7,116.5L191.7,119.9L187.9,121.8L182.0,121.6L170.6,118.6L161.8,115.0L159.0,114.6L140.8,117.3L135.2,120.4L132.6,120.8L125.5,119.7L122.9,119.9L112.5,122.7L110.5,124.3L114.4,127.4L120.5,130.5L125.1,132.0L152.2,126.7L158.7,130.4L161.5,136.7L161.0,138.4L158.5,138.9L149.6,137.6L147.4,138.3L144.2,141.7L142.8,142.2L138.9,137.7L136.6,136.3L135.9,138.9L141.9,148.6L156.0,162.0L157.3,165.2L152.9,167.1L149.1,163.2L145.5,157.0L141.8,152.1L138.9,150.5L138.4,151.6L141.6,157.4L145.7,162.7L146.2,164.7L145.6,167.4L143.7,168.1L143.4,173.6L141.6,172.8L137.1,168.0L134.8,166.6L131.7,170.0L128.6,169.3L128.3,172.4L133.6,195.5L133.9,199.0L133.2,201.8L131.1,204.6L126.9,207.7L125.9,209.8L128.0,212.6L125.9,213.6L119.2,215.4L113.5,215.9L107.7,215.5L97.1,212.3L79.4,211.8L36.5,201.9L31.0,201.8L27.0,203.1L18.1,210.5L9.1,211.9L7.3,214.1L9.6,221.0L3.4,221.6L2.7,222.9L2.7,228.5L3.5,234.3L4.8,239.6L4.6,244.5L5.0,249.3L2.0,249.6L0.8,251.2L1.2,254.3L7.7,263.0L23.2,267.8L32.9,268.2L38.0,270.0L40.9,272.8L44.4,272.8L46.7,276.5L48.3,287.8L50.0,291.4L52.6,293.4L68.3,295.7L71.4,295.7L82.6,291.6L84.3,291.6L89.7,294.5L91.8,294.8L95.1,292.8L97.9,292.5L101.4,294.9L107.6,303.3L110.6,306.5Z " data-id="TJ.LE" data-name="Leninabad" id="TJ.LE"/>
utf-8utf-8<path d="M197.9,348.9L193.3,342.5L192.0,341.5L193.4,347.3L193.2,349.0L188.1,351.3L188.1,352.6L189.9,355.2L187.3,357.3L188.3,358.2L190.7,357.1L191.9,358.8L191.5,360.4L193.2,362.2L194.8,367.6L197.4,369.1L201.7,368.4L200.6,364.5L203.1,361.6L206.2,360.3L207.4,356.3L205.2,355.8L204.0,353.9L200.4,352.8L200.1,351.1L198.9,351.2L197.9,348.9Z " data-id="TJ.DU" data-name="Dushanbe" id="TJ.DU"/>
utf-8</g>
</svg>
