<?xml version="1.0" ?>
<!DOCTYPE svg
  PUBLIC '-//W3C//DTD SVG 1.1//EN'
  'http://www.w3.org/Graphics/SVG/1.1/DTD/svg11.dtd'>
<svg enable_background="new 0 0 1000 610" height="610px" pretty_print="True" style="stroke-linejoin: round; stroke:#000; fill: none;" version="1.1" viewBox="0 0 1000 610" width="1000px" xmlns="http://www.w3.org/2000/svg" xmlns:xlink="http://www.w3.org/1999/xlink">
utf-8<defs>
utf-8utf-8<style type="text/css">
<![CDATA[path { fill-rule: evenodd; }]]>utf-8utf-8</style>
utf-8</defs>
utf-8<metadata>
utf-8utf-8<views>
utf-8utf-8utf-8<view h="610.922557777" padding="0" w="1000">
utf-8utf-8utf-8utf-8<proj flip="auto" id="robinson" lon0="55.2501676834"/>
utf-8utf-8utf-8utf-8<bbox h="128.28" w="210.31" x="709.26" y="-717.56"/>
utf-8utf-8utf-8</view>
utf-8utf-8</views>
utf-8</metadata>
utf-8<g class="" id="provinces">
utf-8utf-8<path d="M96.3,316.4L95.8,314.3L93.0,307.7L88.6,294.6L88.3,291.4L89.9,290.1L86.8,290.3L86.5,291.9L89.4,303.4L91.9,307.6L96.3,316.4Z M108.4,250.0L105.9,250.9L108.9,256.1L111.4,254.6L111.5,253.7L108.4,250.0Z M368.1,356.1L361.3,350.7L354.2,346.6L350.7,342.9L348.3,339.6L337.2,340.7L331.2,338.6L326.6,335.4L325.6,328.0L327.8,323.8L327.2,322.1L328.5,317.6L328.4,313.3L334.3,251.5L336.2,249.4L340.0,247.9L340.9,245.4L330.9,225.8L326.7,216.6L329.8,213.6L336.7,209.8L334.8,206.6L329.5,203.3L330.4,195.6L330.3,193.1L325.7,186.0L320.5,175.8L319.1,173.5L314.3,169.1L310.0,165.7L307.5,161.7L295.6,144.0L292.8,141.8L284.4,132.1L281.5,131.1L274.4,120.0L272.7,115.3L259.2,114.7L232.0,113.2L229.9,113.3L224.8,115.9L219.0,116.7L215.5,118.0L207.5,118.4L201.8,116.0L200.4,114.6L195.2,108.3L185.3,101.8L173.8,88.5L161.3,76.8L159.5,73.9L158.8,69.5L155.8,66.2L142.7,57.3L102.7,36.4L97.7,34.9L92.7,34.3L57.8,40.3L53.8,41.1L40.9,46.1L37.7,48.0L28.5,51.2L17.3,61.5L2.9,78.0L1.9,81.5L3.6,81.9L8.3,85.1L10.9,86.2L13.4,92.4L13.0,98.2L16.7,100.3L19.6,103.0L22.9,104.0L25.7,107.9L28.4,109.2L31.4,113.6L37.3,124.4L39.2,129.3L39.2,131.7L41.8,133.0L42.7,130.7L42.0,127.7L37.1,121.2L33.3,111.8L32.1,109.8L31.9,104.6L33.8,94.6L31.8,85.0L26.9,84.1L23.5,86.1L23.3,84.1L25.2,79.2L29.0,64.4L30.0,62.2L35.3,57.6L38.3,54.0L40.8,53.0L44.8,54.7L54.3,52.8L73.2,49.9L76.3,51.3L78.9,50.5L82.3,51.4L89.2,56.1L91.0,61.3L90.6,63.2L91.8,66.1L92.2,69.2L94.2,69.9L99.7,76.7L103.8,84.6L105.4,91.3L107.8,97.0L109.7,99.5L113.5,102.4L118.4,105.2L121.4,107.8L135.2,114.5L150.3,123.6L153.1,125.9L153.7,128.2L159.2,129.6L161.2,133.6L158.5,134.0L164.3,140.0L164.6,143.9L163.0,147.6L160.1,149.4L159.4,151.2L156.5,152.1L149.3,153.5L146.8,152.9L148.2,150.2L147.7,149.1L144.6,148.0L140.0,145.1L136.0,145.2L133.5,148.4L135.2,148.6L137.3,154.4L139.0,156.6L140.8,160.4L148.1,160.4L144.9,162.0L147.2,164.1L137.4,163.9L135.2,163.1L135.4,160.0L131.2,159.7L127.7,161.0L126.3,163.9L122.2,165.4L117.2,164.3L114.8,165.7L113.2,167.8L109.3,167.3L104.0,167.9L102.5,166.0L103.1,163.0L96.5,155.5L97.4,153.4L93.0,147.4L90.6,147.1L89.7,150.1L90.6,156.3L85.9,159.3L79.5,155.9L78.6,154.4L78.4,151.8L76.3,153.1L76.6,155.7L71.4,156.7L71.2,152.9L68.0,156.1L62.5,156.6L61.7,156.3L57.7,150.8L60.9,148.6L55.4,147.5L52.3,142.1L48.7,138.8L47.7,137.3L47.1,133.9L43.8,132.0L44.5,135.1L46.7,140.5L46.8,143.2L45.8,149.1L44.5,158.5L44.8,161.2L47.7,162.5L48.0,165.3L46.8,168.7L44.1,173.8L42.9,178.9L43.7,192.5L44.2,195.5L47.6,201.3L50.8,205.0L50.4,209.5L50.6,212.9L54.7,216.8L62.0,221.5L62.7,222.3L65.6,228.3L75.6,237.6L75.9,237.1L72.7,234.3L76.1,235.9L72.8,233.2L69.5,228.9L65.8,225.4L61.6,216.4L62.5,215.4L65.2,218.6L69.7,218.9L72.5,219.7L77.1,219.1L79.7,217.3L84.6,220.5L88.3,221.7L90.4,220.4L93.4,216.9L96.8,216.9L100.8,219.1L105.5,220.2L106.1,221.1L104.1,224.0L105.1,225.3L101.9,226.2L103.2,227.8L101.6,229.9L99.2,234.4L100.5,235.9L100.7,242.0L101.6,244.9L104.1,246.3L101.8,242.0L103.9,243.0L102.8,241.3L104.3,241.2L106.4,242.8L109.5,246.3L108.7,242.5L111.5,245.5L112.3,247.6L117.3,248.2L118.1,249.4L116.8,251.2L121.0,252.8L124.1,256.1L121.2,255.0L118.4,257.2L117.2,257.2L113.9,254.6L115.2,259.4L108.4,257.7L105.6,254.4L100.1,253.8L93.3,255.1L90.8,254.8L90.0,252.8L94.8,244.2L92.2,243.7L90.5,246.0L89.5,249.4L87.9,257.1L86.8,258.1L86.6,260.8L85.1,262.4L84.4,264.8L84.9,266.1L89.1,271.1L93.1,282.4L94.0,279.7L92.5,276.3L92.2,272.7L93.0,270.9L89.5,269.2L90.7,268.6L95.7,267.8L100.1,270.3L103.5,270.3L105.6,269.7L105.7,271.9L110.7,270.3L113.4,270.2L117.8,271.4L117.3,274.2L118.7,272.5L118.6,279.4L119.3,281.3L120.4,277.4L121.2,277.9L121.5,281.3L122.9,281.4L124.6,285.7L128.7,290.1L126.2,281.3L125.1,280.7L128.6,277.4L128.0,281.1L128.3,282.8L130.3,282.9L128.7,284.1L129.4,286.8L129.2,289.0L131.1,291.7L132.3,292.2L130.2,288.4L133.3,292.4L136.1,293.4L140.9,294.0L146.5,300.4L148.9,301.2L151.0,303.5L149.6,310.3L148.6,312.5L149.7,314.9L149.2,317.8L147.2,322.5L146.6,328.4L147.4,334.9L154.3,355.9L154.0,358.4L154.7,360.6L154.2,374.7L160.0,397.9L169.3,420.3L172.2,430.5L190.4,432.1L194.9,429.5L199.3,429.7L201.5,428.9L211.3,422.6L212.8,422.3L219.3,422.7L225.1,417.7L226.6,414.5L226.2,408.3L224.5,405.5L225.8,398.7L227.3,396.6L235.8,390.0L238.6,384.7L241.2,383.2L241.6,381.8L259.2,371.2L260.6,370.5L264.7,370.4L277.1,367.7L283.3,368.6L295.7,372.0L304.7,370.3L316.4,370.8L317.3,370.1L317.0,365.9L314.8,363.9L315.0,362.8L318.3,359.1L322.4,356.7L332.5,358.4L338.2,355.9L341.9,355.5L344.9,357.6L358.7,360.9L362.9,362.2L366.5,359.4L367.9,356.3L368.1,356.1Z " data-id="TM.BA" data-name="Balkan" id="TM.BA"/>
utf-8utf-8<path d="M557.6,258.9L555.5,258.7L551.5,254.2L548.3,247.8L545.8,246.7L544.7,247.5L540.4,247.0L536.9,249.9L534.7,249.8L529.9,245.6L528.9,243.9L522.6,218.4L520.9,217.1L485.6,217.1L469.2,216.8L464.1,215.8L454.4,208.4L427.1,202.5L419.3,200.2L414.2,200.2L413.2,201.9L413.9,203.9L412.5,204.8L405.3,204.2L390.6,208.5L383.2,209.5L356.9,209.0L351.9,211.3L350.0,213.7L345.2,214.6L337.3,210.8L336.7,209.8L329.8,213.6L326.7,216.6L330.9,225.8L340.9,245.4L340.0,247.9L336.2,249.4L334.3,251.5L328.4,313.3L328.5,317.6L327.2,322.1L327.8,323.8L325.6,328.0L326.6,335.4L331.2,338.6L337.2,340.7L348.3,339.6L350.7,342.9L354.2,346.6L361.3,350.7L368.1,356.1L368.5,355.5L369.6,355.0L373.3,355.9L374.2,357.7L381.7,366.4L384.7,370.7L385.1,377.8L387.2,379.9L397.4,383.6L408.3,384.0L412.2,385.0L418.3,388.0L421.4,387.6L423.8,388.2L435.1,393.0L444.8,395.5L450.7,404.6L456.0,405.4L459.8,407.2L465.6,406.6L466.7,406.1L468.1,402.3L469.0,401.5L471.4,402.0L475.3,404.8L479.9,406.2L486.1,404.8L486.9,402.0L491.2,404.2L496.6,405.3L499.4,406.5L506.8,410.3L516.9,416.4L518.3,416.6L521.6,414.9L523.2,415.3L527.0,419.3L528.1,422.7L527.7,425.1L530.7,432.4L531.7,433.5L538.6,438.8L539.8,441.8L545.0,442.3L546.4,443.4L548.5,447.6L549.5,448.3L551.6,446.1L562.4,449.2L567.5,452.8L570.2,454.2L575.8,455.2L578.5,456.2L581.0,458.8L584.5,464.0L588.6,468.6L597.3,477.0L599.2,479.2L602.2,484.2L604.0,486.5L606.5,487.8L654.5,486.9L660.7,487.8L663.4,493.6L662.8,497.8L663.8,499.9L663.8,506.5L664.3,510.5L665.7,512.8L665.5,513.9L668.1,516.4L669.2,519.9L670.5,521.5L672.6,526.5L673.4,529.9L672.8,534.5L671.5,539.8L669.8,541.8L673.9,543.2L679.2,549.5L681.6,558.1L681.9,561.9L681.6,566.0L685.0,570.3L690.3,569.6L690.6,571.2L694.3,575.6L695.6,576.0L696.1,576.2L700.1,571.9L701.6,569.5L701.0,561.7L702.7,558.2L700.7,556.9L694.7,551.4L693.2,549.3L695.1,546.2L697.2,546.2L700.9,543.3L699.3,538.7L694.6,537.7L693.3,533.5L682.6,485.6L677.8,478.3L637.4,429.7L637.1,429.1L643.2,428.4L646.2,428.9L650.0,431.9L654.1,438.4L655.1,442.4L657.1,444.4L659.3,445.2L663.7,444.6L666.1,442.1L666.5,437.3L665.2,435.0L663.2,433.8L660.2,433.2L654.2,435.0L649.6,429.1L646.5,427.4L634.1,426.6L625.3,408.2L624.2,404.0L624.3,401.6L627.2,400.2L626.1,397.8L620.9,388.7L620.4,387.7L625.5,386.1L625.1,383.6L617.5,373.3L614.0,369.5L593.8,352.9L591.7,349.2L576.0,316.5L580.6,316.8L581.6,316.4L581.9,313.7L581.3,305.5L582.7,302.8L586.6,302.2L588.0,298.9L586.8,277.0L588.3,274.4L596.1,272.0L600.0,271.1L600.7,268.2L598.0,255.7L568.5,257.9L565.7,257.7L557.6,258.9Z " data-id="TM.AL" data-name="Ahal" id="TM.AL"/>
utf-8utf-8<path d="M272.7,115.3L274.4,120.0L281.5,131.1L284.4,132.1L292.8,141.8L295.6,144.0L307.5,161.7L310.0,165.7L314.3,169.1L319.1,173.5L320.5,175.8L325.7,186.0L330.3,193.1L330.4,195.6L329.5,203.3L334.8,206.6L336.7,209.8L337.3,210.8L345.2,214.6L350.0,213.7L351.9,211.3L356.9,209.0L383.2,209.5L390.6,208.5L405.3,204.2L412.5,204.8L413.9,203.9L413.2,201.9L414.2,200.2L419.3,200.2L427.1,202.5L454.4,208.4L464.1,215.8L469.2,216.8L485.6,217.1L520.9,217.1L522.6,218.4L528.9,243.9L529.9,245.6L534.7,249.8L536.9,249.9L540.4,247.0L544.7,247.5L545.8,246.7L548.3,247.8L551.5,254.2L555.5,258.7L557.6,258.9L565.7,257.7L565.0,257.1L554.4,217.1L548.0,193.3L546.1,191.2L533.2,190.8L531.5,189.3L517.9,138.6L518.4,138.5L565.1,138.4L565.6,135.7L561.9,120.7L561.4,122.1L560.8,122.8L556.9,119.9L552.1,118.9L539.4,119.6L532.2,122.0L528.4,122.1L514.9,114.5L500.0,108.3L497.7,106.7L496.8,104.8L495.9,98.6L497.5,95.3L499.8,94.1L499.4,91.7L493.7,86.2L490.8,82.8L489.4,80.1L493.9,76.7L501.5,79.0L501.5,76.9L498.5,74.3L495.0,72.6L490.8,68.7L488.5,67.2L481.1,64.9L476.8,64.7L476.1,61.8L480.6,60.2L479.6,57.1L477.3,53.3L476.9,49.8L479.8,47.9L479.7,46.6L473.8,43.8L471.0,42.0L466.0,37.5L460.2,37.5L454.6,37.1L441.6,38.9L436.5,38.3L433.2,35.8L428.3,35.1L424.9,32.8L422.6,26.9L415.2,20.4L406.6,21.0L403.6,20.5L398.6,18.7L393.4,15.2L375.7,0.8L373.9,0.0L373.2,1.7L374.1,8.3L373.4,10.5L370.9,11.2L364.2,10.4L356.6,7.9L353.9,8.2L347.6,12.9L349.9,15.3L358.8,18.6L361.5,20.2L364.2,22.9L366.8,26.5L373.5,33.4L376.8,36.1L372.3,38.8L371.3,37.7L370.8,33.8L369.4,31.1L364.7,27.7L357.6,25.0L351.9,25.9L347.6,22.6L343.5,22.4L342.5,22.9L340.5,26.3L338.1,27.8L341.4,35.5L340.3,40.8L337.3,42.4L337.1,43.4L339.3,46.2L338.1,47.1L326.9,49.3L327.3,51.9L325.2,54.7L325.6,55.6L334.8,60.0L333.1,64.5L333.6,67.1L341.0,70.1L345.9,73.5L348.1,78.3L349.9,85.0L346.8,86.7L342.5,87.0L339.4,89.2L339.1,90.7L332.5,91.3L329.0,93.9L326.0,92.2L322.5,95.4L319.4,96.1L312.0,91.0L310.3,87.5L310.1,84.8L301.6,76.7L299.4,82.6L300.2,86.7L297.8,84.7L296.1,81.2L296.5,76.7L294.5,66.7L289.4,69.1L288.2,71.4L289.0,74.3L292.0,80.4L293.2,88.3L298.3,95.2L300.7,102.4L303.8,106.4L307.7,108.9L311.1,109.6L307.4,113.5L305.3,118.2L304.2,118.8L289.6,116.2L275.1,115.4L272.7,115.3Z " data-id="TM.DA" data-name="Tashauz" id="TM.DA"/>
utf-8utf-8<path d="M561.9,120.7L565.6,135.7L565.1,138.4L518.4,138.5L517.9,138.6L531.5,189.3L533.2,190.8L546.1,191.2L548.0,193.3L554.4,217.1L565.0,257.1L565.7,257.7L568.5,257.9L598.0,255.7L611.3,256.8L641.7,280.8L708.3,335.0L734.3,356.7L741.4,361.7L748.7,364.1L765.1,369.9L770.0,372.4L798.5,397.5L809.9,408.2L811.4,411.7L805.2,423.1L800.6,430.4L809.9,467.8L810.9,470.0L812.9,470.4L862.5,470.4L875.9,470.5L891.2,470.4L892.6,466.0L892.9,463.3L891.9,460.1L889.2,454.0L888.8,450.8L889.5,448.7L891.1,447.3L901.5,441.0L906.0,439.4L936.7,437.5L940.7,428.7L938.9,423.4L939.0,419.9L939.8,416.9L942.0,415.4L944.7,415.4L945.2,411.4L948.3,412.5L949.9,414.9L952.7,417.1L968.7,422.6L974.0,427.1L980.2,428.7L983.4,430.5L986.7,431.6L990.9,430.2L995.4,432.1L999.1,428.8L997.2,427.5L997.0,426.1L999.2,421.8L998.6,420.5L994.3,416.0L993.8,413.1L993.9,407.6L993.4,404.4L991.3,398.0L990.8,394.9L992.1,390.9L994.6,386.3L995.9,381.7L993.5,377.8L990.9,376.2L985.6,374.5L980.6,374.4L978.4,373.8L971.0,370.8L967.0,367.1L957.7,363.1L952.9,360.0L950.8,359.0L946.3,358.4L939.0,355.3L935.0,355.8L931.0,359.2L926.7,359.6L921.9,358.1L891.6,341.0L873.5,327.9L868.4,325.3L858.0,322.0L848.4,317.3L831.9,306.2L822.7,298.2L820.8,298.4L816.4,300.8L812.8,300.8L810.6,299.8L779.1,281.5L774.2,277.6L764.9,268.3L759.8,264.6L692.4,225.8L687.0,221.9L680.9,216.4L677.3,209.8L676.7,208.0L676.7,203.5L676.0,201.8L672.9,197.8L671.0,192.5L665.7,183.2L658.8,179.6L653.8,177.8L644.5,165.2L640.8,161.9L633.3,149.1L631.9,145.8L630.2,140.3L628.7,137.4L622.0,130.1L620.4,128.9L603.3,119.2L597.1,117.0L590.4,115.5L588.0,115.2L586.4,120.2L585.1,121.1L584.5,123.5L583.2,125.3L581.3,126.4L578.8,126.4L575.9,125.5L568.2,121.2L563.4,121.7L562.1,120.1L561.9,120.7Z " data-id="TM.LE" data-name="Chardzhou" id="TM.LE"/>
utf-8utf-8<path d="M891.2,470.4L875.9,470.5L862.5,470.4L812.9,470.4L810.9,470.0L809.9,467.8L800.6,430.4L805.2,423.1L811.4,411.7L809.9,408.2L798.5,397.5L770.0,372.4L765.1,369.9L748.7,364.1L741.4,361.7L734.3,356.7L708.3,335.0L641.7,280.8L611.3,256.8L598.0,255.7L600.7,268.2L600.0,271.1L596.1,272.0L588.3,274.4L586.8,277.0L588.0,298.9L586.6,302.2L582.7,302.8L581.3,305.5L581.9,313.7L581.6,316.4L580.6,316.8L576.0,316.5L591.7,349.2L593.8,352.9L614.0,369.5L617.5,373.3L625.1,383.6L625.5,386.1L620.4,387.7L620.9,388.7L626.1,397.8L627.2,400.2L624.3,401.6L624.2,404.0L625.3,408.2L634.1,426.6L646.5,427.4L649.6,429.1L654.2,435.0L660.2,433.2L663.2,433.8L665.2,435.0L666.5,437.3L666.1,442.1L663.7,444.6L659.3,445.2L657.1,444.4L655.1,442.4L654.1,438.4L650.0,431.9L646.2,428.9L643.2,428.4L637.1,429.1L637.4,429.7L677.8,478.3L682.6,485.6L693.3,533.5L694.6,537.7L699.3,538.7L700.9,543.3L697.2,546.2L695.1,546.2L693.2,549.3L694.7,551.4L700.7,556.9L702.7,558.2L701.0,561.7L701.6,569.5L700.1,571.9L696.1,576.2L696.7,576.4L701.8,580.4L705.6,583.8L710.3,585.5L719.5,586.9L723.4,586.6L730.8,583.8L734.7,583.9L738.8,586.0L747.0,592.7L753.1,595.6L754.3,596.6L756.4,600.7L756.9,603.9L760.3,608.9L761.3,608.4L765.9,599.6L767.6,597.6L769.4,597.5L777.3,601.7L781.1,602.3L785.5,600.2L789.0,595.9L798.0,588.9L801.9,586.8L807.2,585.9L807.8,585.0L807.7,577.9L806.0,576.1L804.4,569.8L805.7,568.1L810.5,566.4L812.0,565.1L811.7,563.4L809.9,562.7L804.2,558.1L801.4,553.5L801.3,552.1L803.5,550.7L817.9,551.1L823.4,549.9L828.2,547.4L831.9,542.7L841.2,541.9L843.7,541.3L849.1,537.6L853.0,536.7L854.9,537.1L861.8,539.5L859.8,533.2L860.7,530.9L864.3,527.6L868.7,526.0L874.1,526.5L874.4,523.3L876.9,521.1L883.6,519.2L886.4,515.8L889.8,507.8L890.3,505.0L889.4,497.1L887.8,494.0L886.5,489.1L887.1,483.3L891.2,470.4Z " data-id="TM.MA" data-name="Mary" id="TM.MA"/>
utf-8</g>
</svg>
