<?xml version="1.0" ?>
<!DOCTYPE svg
  PUBLIC '-//W3C//DTD SVG 1.1//EN'
  'http://www.w3.org/Graphics/SVG/1.1/DTD/svg11.dtd'>
<svg enable_background="new 0 0 1000 2064" height="2064px" pretty_print="True" style="stroke-linejoin: round; stroke:#000; fill: none;" version="1.1" viewBox="0 0 1000 2064" width="1000px" xmlns="http://www.w3.org/2000/svg" xmlns:xlink="http://www.w3.org/1999/xlink">
utf-8<defs>
utf-8utf-8<style type="text/css">
<![CDATA[path { fill-rule: evenodd; }]]>utf-8utf-8</style>
utf-8</defs>
utf-8<metadata>
utf-8utf-8<views>
utf-8utf-8utf-8<view h="2064.88808341" padding="0" w="1000">
utf-8utf-8utf-8utf-8<proj flip="auto" id="robinson" lon0="8.04736208236"/>
utf-8utf-8utf-8utf-8<bbox h="120.03" w="58.16" x="104.91" y="-626.91"/>
utf-8utf-8utf-8</view>
utf-8utf-8</views>
utf-8</metadata>
utf-8<g class="" id="provinces">
utf-8utf-8<path d="M272.2,949.2L263.0,948.4L210.3,951.6L207.9,948.7L205.6,941.9L202.8,934.9L199.6,931.6L193.9,927.6L175.6,921.4L166.7,920.6L163.3,918.4L158.3,910.4L154.5,905.2L147.8,898.8L129.9,887.1L129.0,884.3L131.6,879.2L139.9,868.6L143.1,867.0L154.6,865.5L156.5,864.0L156.6,862.7L154.4,859.2L145.7,850.9L145.1,847.0L148.6,831.9L148.4,829.1L146.4,823.7L145.4,822.7L143.4,824.5L120.9,834.9L111.0,842.1L90.4,851.3L81.2,858.1L76.7,868.3L68.5,902.6L66.5,907.3L63.6,911.0L59.1,913.4L43.8,915.9L34.6,920.6L28.2,927.4L22.5,935.2L7.9,950.7L4.8,958.6L4.5,979.9L0.2,1009.0L1.7,1020.2L5.4,1036.1L7.2,1041.1L14.5,1054.6L17.3,1069.6L19.5,1077.0L54.8,1136.1L58.7,1147.4L58.8,1148.6L62.7,1146.1L108.8,1123.0L254.2,1003.1L266.9,986.8L285.3,951.9L272.2,949.2Z " data-id="TN.TO" data-name="Tozeur" id="TN.TO"/>
utf-8utf-8<path d="M652.5,125.3L649.9,123.6L640.9,119.3L629.6,108.2L620.0,93.4L617.6,79.0L627.5,69.0L629.3,73.2L630.6,69.6L629.7,66.8L627.5,63.5L625.9,63.7L614.7,67.6L602.3,68.9L596.7,74.0L592.1,81.4L590.7,85.7L583.0,102.6L581.2,105.5L577.6,112.7L576.0,117.6L574.2,120.5L570.9,122.1L562.6,121.5L549.8,115.6L545.2,114.3L540.4,113.7L531.7,114.2L527.8,116.5L523.8,120.2L520.7,124.0L518.0,129.1L514.3,131.3L501.8,134.1L481.5,143.4L472.3,151.5L501.0,177.3L514.7,181.9L521.1,182.5L522.5,183.2L526.2,192.2L534.6,208.3L544.4,222.0L547.1,227.6L554.3,225.3L556.5,223.1L560.1,213.9L563.8,206.9L566.4,204.3L570.4,204.0L572.8,206.3L573.9,208.5L577.5,207.7L581.7,204.6L593.2,192.6L593.8,189.4L593.1,185.8L590.3,182.8L584.3,177.7L583.2,173.6L580.4,171.7L578.7,169.4L578.8,168.3L585.3,164.5L595.3,160.5L624.2,144.5L657.3,133.8L658.3,133.1L652.5,125.3Z " data-id="TN.MN" data-name="Manubah" id="TN.MN"/>
utf-8utf-8<path d="M469.7,152.4L465.3,155.6L443.2,179.6L439.9,181.9L436.8,182.3L430.2,179.3L427.3,174.9L425.2,169.4L424.4,164.9L428.2,153.2L428.5,147.6L427.9,146.2L421.7,140.9L413.0,138.2L408.5,135.5L400.3,128.1L397.8,124.4L394.4,115.9L388.2,103.4L385.8,96.2L382.3,90.8L379.2,88.2L376.0,86.6L361.1,86.9L357.8,84.6L355.9,78.7L356.2,74.6L357.3,68.3L357.5,63.8L356.7,53.7L356.3,52.4L349.2,55.3L346.7,56.8L340.3,63.8L334.9,67.0L328.1,81.0L320.9,89.9L315.8,95.0L314.0,95.8L314.0,95.8L324.7,106.7L326.3,109.7L319.7,112.7L318.9,113.6L319.4,118.5L328.7,128.7L333.5,136.0L334.5,138.5L333.2,142.5L324.7,149.8L322.7,153.2L321.8,160.5L320.2,164.7L321.5,167.1L325.3,169.3L339.0,171.5L345.0,175.4L346.3,176.9L346.9,179.6L345.9,194.3L346.5,199.8L350.2,205.8L358.9,227.1L360.4,232.5L360.8,235.8L356.5,241.1L354.1,245.5L353.8,248.2L353.8,256.7L352.4,259.8L351.3,260.6L346.9,263.1L366.9,281.6L372.9,285.5L375.3,285.1L388.9,280.0L392.3,279.5L398.9,280.6L403.3,283.6L416.0,290.3L418.9,290.8L420.9,290.5L429.8,273.4L435.3,266.9L437.4,265.9L444.5,264.6L458.1,263.7L461.1,263.9L468.9,267.8L474.3,273.3L478.0,275.6L482.9,275.7L485.0,274.9L495.1,269.3L498.9,267.8L504.1,266.6L518.5,265.0L521.2,257.9L527.8,247.8L529.2,244.0L533.4,239.3L547.1,227.6L544.4,222.0L534.6,208.3L526.2,192.2L522.5,183.2L521.1,182.5L514.7,181.9L501.0,177.3L472.3,151.5L469.7,152.4Z " data-id="TN.BJ" data-name="Béja" id="TN.BJ"/>
utf-8utf-8<path d="M675.8,181.6L664.4,180.3L655.8,175.2L649.2,166.7L643.7,155.4L640.3,161.9L639.6,162.6L639.6,162.6L640.2,164.0L637.6,174.5L636.3,177.3L633.2,179.7L630.1,183.0L628.2,184.2L622.2,185.5L616.2,184.6L613.0,186.2L609.6,190.8L606.9,192.9L601.7,193.8L596.0,193.3L593.2,192.6L581.7,204.6L577.5,207.7L573.9,208.5L579.0,217.3L583.2,221.5L588.0,222.1L590.5,221.0L597.5,223.0L607.2,227.4L614.0,232.2L614.6,233.4L637.0,253.2L639.1,256.0L639.0,259.8L641.6,264.3L645.3,264.0L653.9,258.8L658.3,257.5L663.8,256.9L667.2,230.9L665.4,221.8L665.8,218.9L674.2,200.9L678.8,182.4L679.0,180.8L675.8,181.6Z " data-id="TN.BA" data-name="Ben Arous (Tunis Sud)" id="TN.BA"/>
utf-8utf-8<path d="M356.3,52.4L356.7,53.7L357.5,63.8L357.3,68.3L356.2,74.6L355.9,78.7L357.8,84.6L361.1,86.9L376.0,86.6L379.2,88.2L382.3,90.8L385.8,96.2L388.2,103.4L394.4,115.9L397.8,124.4L400.3,128.1L408.5,135.5L413.0,138.2L421.7,140.9L427.9,146.2L428.5,147.6L428.2,153.2L424.4,164.9L425.2,169.4L427.3,174.9L430.2,179.3L436.8,182.3L439.9,181.9L443.2,179.6L465.3,155.6L469.7,152.4L472.3,151.5L481.5,143.4L501.8,134.1L514.3,131.3L518.0,129.1L520.7,124.0L523.8,120.2L527.8,116.5L531.7,114.2L540.4,113.7L545.2,114.3L549.8,115.6L562.6,121.5L570.9,122.1L574.2,120.5L576.0,117.6L577.6,112.7L581.2,105.5L583.0,102.6L590.7,85.7L592.1,81.4L596.7,74.0L602.3,68.9L614.7,67.6L625.9,63.7L627.5,63.5L627.5,63.5L625.7,60.9L621.2,62.2L614.0,61.9L607.6,59.6L605.7,54.8L609.8,51.1L617.4,49.1L624.0,49.9L625.5,54.8L628.7,52.4L632.2,50.9L639.8,48.9L635.1,45.2L617.2,38.9L609.2,31.9L592.4,29.4L588.4,23.6L586.3,23.1L573.8,28.7L569.5,29.1L546.2,24.0L542.7,24.5L539.5,28.1L537.2,28.7L531.6,32.7L531.6,34.5L534.4,34.5L539.2,33.0L541.5,32.7L556.9,38.8L557.1,43.6L554.7,49.0L551.9,52.9L546.8,57.3L542.0,58.2L531.6,56.8L529.6,55.8L528.0,51.7L525.3,49.0L520.4,38.7L525.2,31.5L534.1,27.6L541.2,21.7L540.6,8.5L539.9,4.8L519.6,4.3L517.1,3.4L512.6,0.0L509.7,0.5L504.5,2.7L494.1,2.9L490.1,3.9L485.2,6.5L476.7,12.4L472.3,13.2L467.4,10.5L464.1,13.9L459.2,17.2L453.7,19.7L446.8,21.4L441.7,23.1L436.0,20.4L432.7,22.5L427.1,28.7L418.2,32.3L386.8,32.7L382.6,35.0L377.8,43.0L375.0,44.7L356.3,52.4L356.3,52.4Z " data-id="TN.BZ" data-name="Bizerte" id="TN.BZ"/>
utf-8utf-8<path d="M351.3,260.6L352.4,259.8L353.8,256.7L353.8,248.2L354.1,245.5L356.5,241.1L360.8,235.8L360.4,232.5L358.9,227.1L350.2,205.8L346.5,199.8L345.9,194.3L346.9,179.6L346.3,176.9L345.0,175.4L339.0,171.5L325.3,169.3L321.5,167.1L320.2,164.7L321.8,160.5L322.7,153.2L324.7,149.8L333.2,142.5L334.5,138.5L333.5,136.0L328.7,128.7L319.4,118.5L318.9,113.6L319.7,112.7L326.3,109.7L324.7,106.7L314.0,95.8L306.9,99.1L297.4,107.4L292.1,109.3L271.8,109.3L266.0,110.4L249.3,117.3L245.9,126.9L245.8,130.4L246.7,133.5L255.3,145.9L255.2,149.4L251.0,152.5L234.7,159.0L226.6,160.7L217.6,160.1L208.5,161.2L201.2,164.8L199.8,169.5L208.3,173.9L213.3,179.9L211.5,190.2L206.4,200.5L201.2,206.3L172.9,223.7L157.6,229.5L150.9,233.8L145.5,240.7L155.1,254.8L175.9,257.4L180.6,259.8L185.1,261.1L188.9,263.3L191.1,268.7L191.7,274.3L191.7,286.4L191.2,290.5L195.0,290.1L210.0,291.4L214.8,291.1L235.9,280.1L244.9,276.7L247.1,276.3L303.9,273.4L324.5,266.4L334.5,262.5L339.0,261.7L343.0,262.1L346.9,263.1L351.3,260.6Z " data-id="TN.JE" data-name="Jendouba" id="TN.JE"/>
utf-8utf-8<path d="M714.8,284.3L722.9,278.2L731.3,280.5L753.9,267.5L773.4,262.4L779.3,254.2L790.9,222.2L806.5,191.3L816.1,176.5L822.6,163.6L835.2,152.7L844.6,148.8L847.7,144.2L848.8,139.4L841.3,130.3L837.6,122.4L836.9,116.2L836.2,113.3L834.6,110.4L830.2,104.3L828.7,99.6L826.2,95.4L825.5,92.1L826.0,89.0L828.3,85.5L828.5,83.0L826.1,77.8L821.8,75.7L816.9,76.5L808.0,83.4L796.1,84.6L791.0,87.0L789.0,90.0L790.4,94.0L790.0,97.2L788.1,99.6L774.8,110.7L773.3,114.9L771.2,115.9L764.2,123.6L752.6,132.0L743.5,135.6L733.6,137.5L722.5,136.7L717.5,137.7L713.3,141.5L710.4,153.4L707.5,168.3L703.1,173.1L695.7,174.9L683.9,181.0L679.0,180.8L679.0,180.8L678.8,182.4L674.2,200.9L665.8,218.9L665.4,221.8L667.2,230.9L663.8,256.9L664.1,277.6L665.0,283.6L669.3,287.7L670.7,287.9L678.5,286.5L685.4,285.3L690.2,286.3L694.3,288.8L695.9,288.8L702.3,285.5L704.1,285.1L710.0,292.2L714.8,284.3Z " data-id="TN.NB" data-name="Nabeul" id="TN.NB"/>
utf-8utf-8<path d="M638.1,164.1L634.9,162.5L627.4,162.3L623.9,160.8L625.0,156.5L628.9,150.8L631.1,149.0L638.8,146.5L642.9,145.9L645.1,147.1L643.5,151.6L646.7,154.2L650.0,153.7L652.4,151.4L654.5,145.3L659.7,140.0L660.8,136.5L658.3,133.1L658.3,133.1L657.3,133.8L624.2,144.5L595.3,160.5L585.3,164.5L578.8,168.3L578.7,169.4L580.4,171.7L583.2,173.6L584.3,177.7L590.3,182.8L593.1,185.8L593.8,189.4L593.2,192.6L596.0,193.3L601.7,193.8L606.9,192.9L609.6,190.8L613.0,186.2L616.2,184.6L622.2,185.5L628.2,184.2L630.1,183.0L633.2,179.7L636.3,177.3L637.6,174.5L640.2,164.0L639.6,162.6L638.1,164.1Z " data-id="TN.TU" data-name="Tunis" id="TN.TU"/>
utf-8utf-8<path d="M354.4,470.8L355.4,457.7L355.0,446.1L355.2,443.7L357.4,439.3L365.6,432.2L367.8,427.4L369.0,420.5L369.8,418.4L373.1,413.1L378.6,406.9L381.1,401.4L382.6,394.9L383.6,387.0L383.7,381.8L381.4,376.4L377.5,370.5L373.5,366.3L358.6,358.8L355.3,356.6L353.5,353.0L353.0,336.6L350.8,330.1L345.9,322.4L339.5,314.9L336.9,310.8L336.1,307.1L336.2,303.2L338.0,298.4L339.7,292.8L339.5,290.5L336.1,283.2L324.5,266.4L303.9,273.4L247.1,276.3L244.9,276.7L235.9,280.1L214.8,291.1L210.0,291.4L195.0,290.1L191.2,290.5L191.0,292.0L180.6,323.5L179.8,335.7L181.1,341.5L183.0,346.9L183.8,352.2L181.8,357.8L179.2,362.6L174.8,384.2L174.5,400.4L169.1,422.2L168.4,445.6L169.8,458.0L172.9,468.3L185.1,487.4L189.5,497.0L190.6,506.0L202.0,504.7L205.1,503.4L209.1,499.6L217.4,493.1L222.2,490.8L226.7,491.5L237.3,497.1L240.1,497.9L251.1,498.6L256.2,497.9L258.7,493.1L259.2,489.3L259.9,477.3L261.0,472.1L263.9,466.9L266.1,464.7L271.4,460.4L275.9,458.2L278.3,458.4L297.9,463.8L339.6,481.2L351.4,482.0L354.4,470.8Z " data-id="TN.KF" data-name="Le Kef" id="TN.KF"/>
utf-8utf-8<path d="M339.6,481.2L297.9,463.8L278.3,458.4L275.9,458.2L271.4,460.4L266.1,464.7L263.9,466.9L261.0,472.1L259.9,477.3L259.2,489.3L258.7,493.1L256.2,497.9L251.1,498.6L240.1,497.9L237.3,497.1L226.7,491.5L222.2,490.8L217.4,493.1L209.1,499.6L205.1,503.4L202.0,504.7L190.6,506.0L193.6,530.5L193.8,539.1L185.8,559.9L183.5,570.1L183.3,580.8L185.2,592.7L191.0,603.2L200.2,607.6L210.2,610.7L218.7,617.1L216.5,622.9L202.6,645.1L191.6,657.6L188.7,667.9L185.1,689.4L179.8,705.0L177.7,716.3L178.4,727.1L183.7,756.5L183.1,760.4L181.3,763.1L193.2,764.4L196.7,766.1L199.7,768.7L204.6,771.3L231.1,780.0L234.5,782.4L251.4,791.9L254.8,793.2L256.9,793.3L259.7,783.9L264.1,780.4L288.4,768.1L290.4,767.4L301.2,765.8L305.7,764.1L312.7,760.3L370.6,726.5L372.7,724.5L371.4,722.7L368.0,720.8L364.7,716.7L366.5,711.4L374.1,702.6L375.5,700.3L379.4,691.6L381.6,688.3L384.3,686.5L388.4,687.6L391.7,687.7L400.9,682.8L412.9,679.0L419.0,675.5L420.7,673.8L421.7,667.1L418.4,659.6L417.4,647.9L419.1,635.7L419.1,632.5L413.2,625.7L395.0,620.0L392.2,618.2L390.7,615.8L390.6,611.5L391.6,607.0L395.0,597.8L399.9,592.7L403.5,589.5L405.4,586.5L407.9,578.5L411.7,572.9L414.0,571.1L422.2,566.2L425.3,563.2L430.0,556.5L430.8,552.3L431.2,547.2L430.9,545.2L428.5,539.9L423.1,534.3L414.3,529.0L409.3,526.7L403.2,525.6L398.6,520.7L395.5,513.9L391.7,511.0L382.1,506.7L379.0,507.0L375.8,508.3L371.6,508.2L366.9,503.1L351.4,482.0L339.6,481.2Z " data-id="TN.KS" data-name="Kassérine" id="TN.KS"/>
utf-8utf-8<path d="M534.5,903.7L531.6,899.4L529.3,897.5L524.4,894.4L517.7,893.9L508.1,897.1L505.1,899.1L498.1,905.1L493.8,907.3L489.5,908.8L479.7,914.2L475.4,914.6L448.1,911.2L443.1,912.4L428.5,918.9L430.2,923.9L432.6,927.5L438.2,933.1L449.5,939.8L450.5,941.2L449.8,944.3L445.7,948.6L436.8,955.2L432.5,959.1L429.8,963.0L429.3,965.0L428.2,976.8L428.8,989.2L431.2,1002.1L434.5,1012.9L438.7,1023.3L445.5,1037.0L458.8,1059.1L461.6,1061.7L472.5,1066.2L474.9,1067.5L479.6,1072.5L483.1,1078.7L489.4,1082.5L492.6,1081.8L496.0,1082.7L507.9,1094.8L511.0,1099.6L510.8,1104.5L503.3,1118.8L502.5,1121.9L502.5,1124.6L504.0,1127.8L523.5,1145.4L527.0,1150.0L537.1,1168.2L540.6,1172.6L550.6,1183.1L555.0,1183.2L565.8,1183.9L575.9,1180.7L580.3,1179.9L593.6,1181.0L597.8,1180.9L599.8,1180.4L606.9,1177.2L624.7,1173.3L627.3,1172.3L654.3,1149.2L662.0,1145.8L677.8,1141.1L680.8,1138.3L685.6,1127.9L698.3,1106.6L700.9,1101.6L715.3,1083.1L721.0,1078.7L721.0,1078.7L717.6,1077.9L698.4,1069.7L689.2,1064.2L653.4,1029.8L650.0,1028.0L647.6,1025.6L624.4,993.8L618.6,983.0L616.0,973.6L615.1,968.3L611.2,957.0L610.2,951.7L609.9,939.6L608.8,933.8L606.4,928.8L607.5,928.1L602.2,923.4L599.9,922.9L598.9,924.1L598.6,930.0L597.2,932.8L595.9,933.2L588.5,932.4L584.2,930.2L579.6,926.9L575.8,923.4L570.7,916.3L566.7,914.5L556.4,915.7L547.1,915.4L540.6,912.7L538.5,910.7L535.4,906.2L534.5,903.7Z " data-id="TN.GB" data-name="Gabès" id="TN.GB"/>
utf-8utf-8<path d="M498.0,870.8L495.7,867.0L492.8,865.1L481.4,859.7L473.2,853.7L466.0,844.4L461.9,840.9L446.6,835.3L442.5,832.7L435.9,827.2L430.7,821.8L425.4,812.7L424.8,810.4L425.2,804.3L430.5,789.6L429.9,786.4L428.7,785.8L424.9,786.8L421.5,788.6L417.0,789.2L415.1,788.4L400.1,780.6L375.1,776.0L352.0,775.8L312.7,760.3L305.7,764.1L301.2,765.8L290.4,767.4L288.4,768.1L264.1,780.4L259.7,783.9L256.9,793.3L254.8,793.2L251.4,791.9L234.5,782.4L231.1,780.0L204.6,771.3L199.7,768.7L196.7,766.1L193.2,764.4L181.3,763.1L181.0,763.5L173.5,771.7L170.8,776.0L170.3,780.6L176.7,790.3L175.0,793.6L166.5,799.0L165.0,801.4L160.6,810.4L155.1,813.8L145.4,822.7L146.4,823.7L148.4,829.1L148.6,831.9L145.1,847.0L145.7,850.9L154.4,859.2L156.6,862.7L156.5,864.0L154.6,865.5L143.1,867.0L139.9,868.6L131.6,879.2L129.0,884.3L129.9,887.1L147.8,898.8L154.5,905.2L158.3,910.4L163.3,918.4L166.7,920.6L175.6,921.4L193.9,927.6L199.6,931.6L202.8,934.9L205.6,941.9L207.9,948.7L210.3,951.6L263.0,948.4L272.2,949.2L285.3,951.9L326.6,948.1L335.0,944.4L338.9,944.0L348.2,946.4L363.4,948.0L364.9,947.9L368.0,945.2L368.8,934.4L370.0,931.1L371.8,929.0L377.1,926.4L386.5,922.8L388.6,922.3L392.9,923.7L396.6,924.0L428.5,918.9L443.1,912.4L448.1,911.2L475.4,914.6L479.7,914.2L489.5,908.8L493.8,907.3L498.1,905.1L498.0,870.8Z " data-id="TN.GF" data-name="Gafsa" id="TN.GF"/>
utf-8utf-8<path d="M448.3,543.5L443.8,543.6L431.2,547.2L430.8,552.3L430.0,556.5L425.3,563.2L422.2,566.2L414.0,571.1L411.7,572.9L407.9,578.5L405.4,586.5L403.5,589.5L399.9,592.7L395.0,597.8L391.6,607.0L390.6,611.5L390.7,615.8L392.2,618.2L395.0,620.0L413.2,625.7L419.1,632.5L419.1,635.7L417.4,647.9L418.4,659.6L421.7,667.1L420.7,673.8L419.0,675.5L412.9,679.0L400.9,682.8L391.7,687.7L388.4,687.6L384.3,686.5L381.6,688.3L379.4,691.6L375.5,700.3L374.1,702.6L366.5,711.4L364.7,716.7L368.0,720.8L371.4,722.7L372.7,724.5L370.6,726.5L312.7,760.3L352.0,775.8L375.1,776.0L400.1,780.6L415.1,788.4L417.0,789.2L421.5,788.6L424.9,786.8L428.7,785.8L429.9,786.4L430.5,789.6L425.2,804.3L424.8,810.4L425.4,812.7L430.7,821.8L435.9,827.2L442.5,832.7L446.6,835.3L461.9,840.9L466.0,844.4L473.2,853.7L481.4,859.7L492.8,865.1L495.7,867.0L498.0,870.8L498.1,905.1L505.1,899.1L508.1,897.1L517.7,893.9L524.4,894.4L529.3,897.5L531.6,899.4L534.5,903.7L535.4,906.2L540.2,908.6L542.2,909.3L545.2,909.3L547.3,906.1L546.1,899.5L541.2,891.1L535.7,885.6L536.0,884.3L539.0,879.9L541.9,877.1L548.5,873.4L562.7,868.5L567.4,866.0L569.6,864.5L578.3,856.6L579.9,855.5L585.1,854.0L590.5,854.1L593.8,852.6L597.3,848.4L599.4,846.6L610.7,840.7L615.6,829.7L616.3,824.5L614.7,820.6L613.6,819.7L593.8,809.9L588.6,808.5L562.4,805.3L560.0,802.3L558.5,796.5L558.4,793.5L561.0,782.6L566.0,771.1L592.1,725.6L609.4,683.6L604.6,677.2L603.3,674.8L593.8,645.1L590.9,641.9L579.1,646.2L575.7,646.1L554.0,639.2L536.3,635.8L529.4,633.2L525.2,630.5L521.3,626.1L518.5,620.9L503.2,605.4L501.7,604.8L490.1,603.8L488.4,603.0L469.8,586.1L467.4,580.7L468.6,571.9L469.5,568.4L470.3,557.2L468.4,553.6L461.6,545.1L448.3,543.5Z " data-id="TN.SZ" data-name="Sidi Bou Zid" id="TN.SZ"/>
utf-8utf-8<path d="M863.9,790.5L867.4,786.9L865.0,783.5L837.5,783.3L832.2,787.7L836.9,790.8L849.9,797.1L854.6,798.1L863.9,790.5Z M907.0,756.8L905.6,754.6L903.4,753.7L903.8,750.2L906.1,746.6L912.3,744.4L911.0,741.8L904.1,740.8L900.1,738.5L896.2,744.8L893.4,747.4L891.7,751.3L893.5,754.7L893.2,761.2L887.5,762.3L883.8,759.9L883.1,757.1L881.3,758.2L881.0,766.8L876.9,773.1L873.1,776.9L869.9,780.8L872.1,785.8L876.5,784.0L888.4,776.6L911.4,766.7L913.1,762.8L907.0,756.8Z M650.6,644.9L644.6,645.5L641.7,646.7L636.7,650.0L627.5,658.4L615.4,672.9L611.2,680.0L609.4,683.6L592.1,725.6L566.0,771.1L561.0,782.6L558.4,793.5L558.5,796.5L560.0,802.3L562.4,805.3L588.6,808.5L593.8,809.9L613.6,819.7L614.7,820.6L616.3,824.5L615.6,829.7L610.7,840.7L599.4,846.6L597.3,848.4L593.8,852.6L590.5,854.1L585.1,854.0L579.9,855.5L578.3,856.6L569.6,864.5L567.4,866.0L562.7,868.5L548.5,873.4L541.9,877.1L539.0,879.9L536.0,884.3L535.7,885.6L541.2,891.1L546.1,899.5L547.3,906.1L545.2,909.3L542.2,909.3L540.2,908.6L535.4,906.2L538.5,910.7L540.6,912.7L547.1,915.4L556.4,915.7L566.7,914.5L570.7,916.3L575.8,923.4L579.6,926.9L584.2,930.2L588.5,932.4L595.9,933.2L597.2,932.8L598.6,930.0L598.9,924.1L599.9,922.9L602.2,923.4L607.5,928.1L607.5,928.1L609.5,925.9L612.9,924.8L617.7,916.5L625.7,899.1L628.4,890.1L634.1,883.9L643.6,880.0L648.3,876.2L659.6,871.2L662.7,870.4L664.9,868.3L672.1,858.2L674.9,857.1L677.6,857.4L679.9,858.4L682.3,858.6L693.8,855.6L705.9,834.3L713.9,829.8L736.2,826.4L741.5,823.7L745.1,820.2L745.3,815.1L746.9,811.8L747.1,806.1L748.8,803.1L749.9,799.6L750.1,796.5L751.0,794.5L753.1,793.2L769.0,787.9L772.8,785.3L776.8,780.7L778.8,775.5L783.4,771.2L786.8,763.6L794.3,755.0L799.8,750.8L808.4,746.7L807.3,742.8L804.4,737.0L808.8,731.7L818.4,724.5L818.0,713.0L819.8,706.9L817.8,700.1L824.3,692.5L833.4,687.9L841.1,677.7L841.8,668.9L839.9,660.6L839.9,660.6L828.2,658.4L824.7,656.4L817.6,645.0L812.1,638.3L808.2,638.6L805.3,642.8L802.1,644.1L798.7,643.8L794.1,639.3L790.5,630.5L789.5,627.2L787.4,616.9L784.8,612.5L781.8,609.0L779.2,608.5L775.7,616.5L774.3,618.9L771.3,622.0L768.9,623.4L765.9,623.2L744.3,616.9L741.3,619.2L740.8,621.1L738.7,624.0L734.3,626.7L733.0,630.7L733.3,632.7L727.8,640.0L723.2,643.4L697.0,656.0L693.7,656.9L688.4,655.7L681.5,650.9L678.3,649.7L650.6,644.9Z " data-id="TN.SF" data-name="Sfax" id="TN.SF"/>
utf-8utf-8<path d="M343.0,262.1L339.0,261.7L334.5,262.5L324.5,266.4L336.1,283.2L339.5,290.5L339.7,292.8L338.0,298.4L336.2,303.2L336.1,307.1L336.9,310.8L339.5,314.9L345.9,322.4L350.8,330.1L353.0,336.6L353.5,353.0L355.3,356.6L358.6,358.8L373.5,366.3L377.5,370.5L381.4,376.4L383.7,381.8L383.6,387.0L382.6,394.9L381.1,401.4L378.6,406.9L373.1,413.1L369.8,418.4L369.0,420.5L367.8,427.4L365.6,432.2L357.4,439.3L355.2,443.7L355.0,446.1L355.4,457.7L354.4,470.8L351.4,482.0L366.9,503.1L371.6,508.2L375.8,508.3L379.0,507.0L382.1,506.7L391.7,511.0L395.5,513.9L398.6,520.7L403.2,525.6L409.3,526.7L414.3,529.0L423.1,534.3L428.5,539.9L430.9,545.2L431.2,547.2L443.8,543.6L448.3,543.5L461.6,545.1L461.2,542.6L460.9,541.6L450.8,523.4L417.4,484.1L416.0,480.8L417.3,478.2L423.2,476.6L440.0,482.2L448.1,482.4L450.7,481.6L460.5,475.2L464.9,473.3L471.0,471.9L472.6,470.2L472.6,467.6L466.2,458.6L465.3,456.1L465.2,451.7L468.4,442.5L468.6,436.4L466.1,424.7L470.9,418.4L521.6,375.5L525.8,369.4L527.6,364.9L528.2,362.4L527.6,357.1L526.1,350.7L525.1,347.8L520.7,343.5L508.8,339.2L497.9,336.4L492.8,333.0L483.8,324.7L482.6,322.2L482.9,320.8L491.7,315.9L507.0,306.2L511.5,301.9L516.1,296.2L519.2,291.7L521.0,288.3L523.2,280.7L523.4,277.0L522.1,271.4L518.5,265.0L504.1,266.6L498.9,267.8L495.1,269.3L485.0,274.9L482.9,275.7L478.0,275.6L474.3,273.3L468.9,267.8L461.1,263.9L458.1,263.7L444.5,264.6L437.4,265.9L435.3,266.9L429.8,273.4L420.9,290.5L418.9,290.8L416.0,290.3L403.3,283.6L398.9,280.6L392.3,279.5L388.9,280.0L375.3,285.1L372.9,285.5L366.9,281.6L346.9,263.1L343.0,262.1Z " data-id="TN.SL" data-name="Siliana" id="TN.SL"/>
utf-8utf-8<path d="M734.3,549.7L732.8,552.3L727.1,555.5L722.1,565.0L717.9,565.4L703.8,559.2L701.3,555.5L700.8,550.1L698.6,546.2L696.0,544.7L687.5,542.3L685.3,542.1L677.8,543.9L674.7,542.9L671.8,539.4L664.1,533.0L663.4,531.6L663.1,526.2L664.6,519.3L654.3,522.7L649.8,525.9L648.3,528.1L647.6,532.0L651.5,541.7L651.7,546.1L650.7,548.2L645.9,554.4L643.4,558.8L636.6,577.1L635.7,580.5L636.6,586.1L638.7,590.1L640.8,599.0L641.0,601.9L640.5,610.0L640.9,614.3L642.7,618.3L648.7,626.6L650.6,633.7L650.6,644.9L678.3,649.7L681.5,650.9L688.4,655.7L693.7,656.9L697.0,656.0L723.2,643.4L727.8,640.0L733.3,632.7L733.0,630.7L734.3,626.7L738.7,624.0L740.8,621.1L741.3,619.2L744.3,616.9L765.9,623.2L768.9,623.4L771.3,622.0L774.3,618.9L775.7,616.5L779.2,608.5L781.8,609.0L784.8,612.5L787.4,616.9L789.5,627.2L790.5,630.5L794.1,639.3L798.7,643.8L802.1,644.1L805.3,642.8L808.2,638.6L812.1,638.3L817.6,645.0L824.7,656.4L828.2,658.4L839.9,660.6L844.4,656.4L847.4,649.4L850.6,642.8L857.4,636.9L861.7,627.7L866.3,624.1L872.9,623.8L873.1,618.1L863.7,613.6L858.5,609.8L849.7,599.1L843.6,590.0L842.0,579.4L844.7,573.4L843.3,560.7L844.3,553.3L845.7,545.5L852.0,539.6L840.9,536.2L837.1,531.7L834.7,525.4L834.4,523.2L834.4,523.2L814.8,530.5L809.5,533.6L804.4,537.5L796.4,547.6L794.5,552.3L789.9,553.8L780.8,553.4L764.3,550.2L736.2,541.0L734.3,549.7Z " data-id="TN.MH" data-name="Mahdia" id="TN.MH"/>
utf-8utf-8<path d="M833.7,518.4L834.7,511.6L843.6,508.1L840.0,501.2L832.9,495.3L823.3,496.4L801.4,488.0L791.5,483.4L788.6,479.2L787.2,473.2L788.4,467.4L790.9,463.5L786.3,459.4L781.6,457.5L767.4,462.6L760.0,459.8L755.3,457.3L754.7,456.7L745.1,469.0L743.0,473.3L743.2,480.1L744.4,489.2L744.4,491.3L743.2,500.9L741.2,506.2L735.6,510.2L727.1,513.2L721.8,514.3L717.2,517.1L716.6,519.6L719.6,524.1L719.8,526.2L716.3,530.2L708.8,533.6L707.3,535.9L707.0,539.2L707.9,542.6L712.8,546.1L717.8,546.6L721.2,545.3L722.9,542.0L723.6,539.3L725.5,536.9L728.2,536.7L733.9,538.9L736.2,541.0L764.3,550.2L780.8,553.4L789.9,553.8L794.5,552.3L796.4,547.6L804.4,537.5L809.5,533.6L814.8,530.5L834.4,523.2L833.7,518.4Z " data-id="TN.MS" data-name="Monastir" id="TN.MS"/>
utf-8utf-8<path d="M661.4,509.7L659.4,506.0L657.0,502.7L627.9,447.9L627.1,445.8L628.6,441.2L639.4,427.0L643.7,417.4L646.1,406.7L647.8,393.2L646.6,389.0L644.3,385.0L641.5,381.7L628.1,374.7L627.9,370.4L635.2,356.0L621.2,360.7L617.3,363.4L610.6,372.6L607.3,373.3L604.6,370.1L603.9,370.6L602.8,374.2L601.6,384.6L598.7,391.3L597.3,392.3L594.6,391.7L588.0,385.3L582.8,382.2L573.3,380.4L571.1,379.5L563.4,374.9L554.9,375.1L533.8,378.1L526.7,377.3L521.6,375.5L470.9,418.4L466.1,424.7L468.6,436.4L468.4,442.5L465.2,451.7L465.3,456.1L466.2,458.6L472.6,467.6L472.6,470.2L471.0,471.9L464.9,473.3L460.5,475.2L450.7,481.6L448.1,482.4L440.0,482.2L423.2,476.6L417.3,478.2L416.0,480.8L417.4,484.1L450.8,523.4L460.9,541.6L461.2,542.6L461.6,545.1L468.4,553.6L470.3,557.2L469.5,568.4L468.6,571.9L467.4,580.7L469.8,586.1L488.4,603.0L490.1,603.8L501.7,604.8L503.2,605.4L518.5,620.9L521.3,626.1L525.2,630.5L529.4,633.2L536.3,635.8L554.0,639.2L575.7,646.1L579.1,646.2L590.9,641.9L593.8,645.1L603.3,674.8L604.6,677.2L609.4,683.6L611.2,680.0L615.4,672.9L627.5,658.4L636.7,650.0L641.7,646.7L644.6,645.5L650.6,644.9L650.6,633.7L648.7,626.6L642.7,618.3L640.9,614.3L640.5,610.0L641.0,601.9L640.8,599.0L638.7,590.1L636.6,586.1L635.7,580.5L636.6,577.1L643.4,558.8L645.9,554.4L650.7,548.2L651.7,546.1L651.5,541.7L647.6,532.0L648.3,528.1L649.8,525.9L654.3,522.7L664.6,519.3L661.4,509.7Z " data-id="TN.KR" data-name="Kairouan" id="TN.KR"/>
utf-8utf-8<path d="M670.7,287.9L671.5,304.7L670.7,309.6L666.3,313.6L666.2,314.8L669.2,319.1L670.0,322.2L668.8,324.9L651.7,328.5L648.3,331.2L649.6,336.0L648.3,345.2L647.5,347.7L643.7,352.0L641.4,353.3L635.2,356.0L627.9,370.4L628.1,374.7L641.5,381.7L644.3,385.0L646.6,389.0L647.8,393.2L646.1,406.7L643.7,417.4L639.4,427.0L628.6,441.2L627.1,445.8L627.9,447.9L657.0,502.7L659.4,506.0L661.4,509.7L664.6,519.3L663.1,526.2L663.4,531.6L664.1,533.0L671.8,539.4L674.7,542.9L677.8,543.9L685.3,542.1L687.5,542.3L696.0,544.7L698.6,546.2L700.8,550.1L701.3,555.5L703.8,559.2L717.9,565.4L722.1,565.0L727.1,555.5L732.8,552.3L734.3,549.7L736.2,541.0L733.9,538.9L728.2,536.7L725.5,536.9L723.6,539.3L722.9,542.0L721.2,545.3L717.8,546.6L712.8,546.1L707.9,542.6L707.0,539.2L707.3,535.9L708.8,533.6L716.3,530.2L719.8,526.2L719.6,524.1L716.6,519.6L717.2,517.1L721.8,514.3L727.1,513.2L735.6,510.2L741.2,506.2L743.2,500.9L744.4,491.3L744.4,489.2L743.2,480.1L743.0,473.3L745.1,469.0L754.7,456.7L754.7,456.7L737.6,441.2L734.2,437.3L727.2,418.0L724.3,415.1L720.9,413.2L716.9,408.9L711.4,400.9L710.4,398.2L708.8,391.8L706.4,387.0L701.0,371.8L699.5,362.0L699.5,331.4L701.8,319.3L704.7,307.2L707.7,296.0L710.0,292.2L704.1,285.1L702.3,285.5L695.9,288.8L694.3,288.8L690.2,286.3L685.4,285.3L678.5,286.5L670.7,287.9Z " data-id="TN.SS" data-name="Sousse" id="TN.SS"/>
utf-8utf-8<path d="M572.8,206.3L570.4,204.0L566.4,204.3L563.8,206.9L560.1,213.9L556.5,223.1L554.3,225.3L547.1,227.6L533.4,239.3L529.2,244.0L527.8,247.8L521.2,257.9L518.5,265.0L522.1,271.4L523.4,277.0L523.2,280.7L521.0,288.3L519.2,291.7L516.1,296.2L511.5,301.9L507.0,306.2L491.7,315.9L482.9,320.8L482.6,322.2L483.8,324.7L492.8,333.0L497.9,336.4L508.8,339.2L520.7,343.5L525.1,347.8L526.1,350.7L527.6,357.1L528.2,362.4L527.6,364.9L525.8,369.4L521.6,375.5L526.7,377.3L533.8,378.1L554.9,375.1L563.4,374.9L571.1,379.5L573.3,380.4L582.8,382.2L588.0,385.3L594.6,391.7L597.3,392.3L598.7,391.3L601.6,384.6L602.8,374.2L603.9,370.6L604.6,370.1L607.3,373.3L610.6,372.6L617.3,363.4L621.2,360.7L635.2,356.0L641.4,353.3L643.7,352.0L647.5,347.7L648.3,345.2L649.6,336.0L648.3,331.2L651.7,328.5L668.8,324.9L670.0,322.2L669.2,319.1L666.2,314.8L666.3,313.6L670.7,309.6L671.5,304.7L670.7,287.9L669.3,287.7L665.0,283.6L664.1,277.6L663.8,256.9L658.3,257.5L653.9,258.8L645.3,264.0L641.6,264.3L639.0,259.8L639.1,256.0L637.0,253.2L614.6,233.4L614.0,232.2L607.2,227.4L597.5,223.0L590.5,221.0L588.0,222.1L583.2,221.5L579.0,217.3L573.9,208.5L572.8,206.3Z " data-id="TN.ZA" data-name="Zaghouan" id="TN.ZA"/>
utf-8utf-8<path d="M721.0,1078.7L715.3,1083.1L700.9,1101.6L698.3,1106.6L685.6,1127.9L680.8,1138.3L677.8,1141.1L662.0,1145.8L654.3,1149.2L627.3,1172.3L624.7,1173.3L606.9,1177.2L599.8,1180.4L597.8,1180.9L593.6,1181.0L580.3,1179.9L575.9,1180.7L565.8,1183.9L555.0,1183.2L550.6,1183.1L565.1,1197.9L569.8,1201.8L575.0,1203.7L588.0,1205.3L592.8,1206.9L594.9,1208.3L596.7,1211.5L597.4,1233.3L596.5,1237.5L593.4,1245.5L614.3,1245.0L619.5,1244.2L625.4,1242.6L633.5,1239.1L635.3,1237.5L640.1,1230.2L645.9,1225.5L649.0,1224.2L653.5,1224.5L665.9,1226.9L668.9,1226.9L675.3,1221.8L691.6,1214.7L694.8,1212.6L736.5,1193.8L740.6,1193.0L749.1,1194.1L767.8,1191.9L770.1,1192.2L770.8,1193.1L770.4,1196.1L768.6,1199.1L767.5,1203.1L762.7,1204.8L761.8,1207.6L764.0,1210.7L768.8,1213.8L773.1,1215.2L784.3,1216.5L789.6,1217.8L857.6,1249.3L861.6,1253.6L865.2,1267.1L869.5,1273.1L880.0,1282.5L887.9,1287.3L890.4,1290.5L891.0,1292.4L890.7,1300.3L889.5,1305.0L886.7,1313.4L886.2,1317.9L888.0,1342.7L887.8,1346.2L885.8,1355.2L886.1,1358.6L886.9,1359.7L952.5,1412.6L958.4,1414.8L965.2,1413.5L968.4,1414.3L968.9,1415.5L966.6,1420.0L964.5,1422.2L956.0,1428.6L952.3,1430.5L941.0,1434.8L936.3,1437.7L932.0,1440.9L927.9,1444.8L924.0,1449.5L909.2,1479.3L971.6,1448.7L988.2,1437.4L995.8,1429.8L999.8,1420.8L998.5,1408.7L992.5,1398.4L975.7,1382.4L970.3,1371.2L969.6,1355.4L972.0,1325.1L969.2,1295.2L972.9,1275.7L972.4,1259.6L972.8,1255.1L978.8,1227.7L976.3,1214.4L962.7,1208.0L940.2,1192.4L944.1,1196.3L947.7,1200.5L950.5,1202.4L954.9,1203.9L959.1,1207.4L960.5,1211.2L956.7,1214.1L945.9,1214.1L925.3,1206.5L914.9,1204.2L904.4,1206.2L899.1,1206.2L896.7,1203.3L894.8,1197.1L890.9,1193.0L886.9,1189.8L884.4,1186.3L887.0,1177.2L898.7,1178.6L922.7,1186.3L925.9,1184.3L919.9,1182.2L907.2,1175.8L901.4,1174.5L895.7,1171.4L890.7,1165.0L885.7,1159.9L878.8,1162.1L880.6,1153.7L875.0,1136.1L881.0,1125.7L879.3,1111.3L878.4,1108.5L869.6,1095.5L866.2,1091.5L861.9,1088.8L851.6,1084.1L847.6,1081.5L846.0,1081.5L844.5,1084.7L842.0,1085.9L838.9,1085.4L836.0,1083.5L829.0,1089.2L829.8,1091.7L834.1,1096.5L835.8,1101.4L834.2,1106.9L830.5,1111.4L826.4,1113.2L817.8,1115.8L799.9,1126.9L789.8,1129.2L784.7,1127.6L781.3,1124.0L775.2,1114.2L773.7,1109.7L774.7,1104.8L777.5,1100.8L781.4,1099.2L788.3,1093.1L788.3,1073.3L782.3,1063.0L777.8,1064.3L762.7,1072.7L744.6,1077.8L728.1,1080.3L721.0,1078.7Z M831.8,1008.3L824.3,1013.2L813.7,1012.5L794.0,1008.3L785.2,1011.6L785.4,1020.6L788.7,1032.4L784.4,1040.6L784.5,1048.2L786.2,1056.2L787.9,1060.6L793.7,1065.0L798.1,1064.0L800.0,1059.7L804.3,1055.1L808.5,1056.4L812.5,1059.9L816.6,1061.8L821.2,1068.5L819.8,1073.2L820.1,1078.2L824.3,1082.3L825.5,1077.1L829.4,1072.6L833.5,1066.0L836.2,1056.9L840.0,1055.7L839.3,1058.1L838.8,1065.7L840.3,1065.7L842.3,1056.3L843.4,1053.9L844.8,1052.6L848.8,1050.7L864.3,1035.9L861.3,1031.9L857.0,1029.2L852.0,1027.0L847.2,1024.1L839.3,1017.0L831.8,1008.3Z " data-id="TN.ME" data-name="Médenine" id="TN.ME"/>
utf-8utf-8<path d="M540.6,1172.6L537.1,1168.2L527.0,1150.0L523.5,1145.4L504.0,1127.8L502.5,1124.6L502.5,1121.9L503.3,1118.8L510.8,1104.5L511.0,1099.6L507.9,1094.8L496.0,1082.7L492.6,1081.8L489.4,1082.5L483.1,1078.7L479.6,1072.5L474.9,1067.5L472.5,1066.2L461.6,1061.7L458.8,1059.1L445.5,1037.0L438.7,1023.3L434.5,1012.9L431.2,1002.1L428.8,989.2L428.2,976.8L429.3,965.0L429.8,963.0L432.5,959.1L436.8,955.2L445.7,948.6L449.8,944.3L450.5,941.2L449.5,939.8L438.2,933.1L432.6,927.5L430.2,923.9L428.5,918.9L396.6,924.0L392.9,923.7L388.6,922.3L386.5,922.8L377.1,926.4L371.8,929.0L370.0,931.1L368.8,934.4L368.0,945.2L364.9,947.9L363.4,948.0L348.2,946.4L338.9,944.0L335.0,944.4L326.6,948.1L285.3,951.9L266.9,986.8L254.2,1003.1L108.8,1123.0L62.7,1146.1L58.8,1148.6L60.0,1186.8L64.1,1200.3L70.5,1207.2L79.4,1209.9L91.0,1211.0L99.9,1214.0L127.2,1233.4L131.9,1235.8L136.9,1237.3L142.0,1237.7L147.0,1236.5L152.5,1239.9L201.8,1314.1L205.4,1323.3L209.7,1363.8L212.8,1393.5L215.8,1403.0L216.2,1403.3L220.6,1402.0L503.1,1343.2L511.6,1338.9L521.3,1330.5L526.2,1327.3L532.0,1325.3L538.3,1323.9L546.1,1323.2L552.9,1324.3L557.3,1325.9L562.6,1329.8L570.5,1339.4L597.3,1360.5L603.5,1364.0L606.2,1365.1L609.6,1365.3L611.2,1363.7L609.7,1360.3L599.5,1343.1L598.8,1339.5L598.9,1327.8L599.4,1321.8L606.3,1312.3L609.0,1307.7L609.1,1303.7L605.9,1298.3L605.2,1296.2L603.8,1286.9L603.5,1281.7L607.0,1276.5L610.0,1275.6L613.2,1272.6L612.1,1270.5L606.0,1264.2L593.6,1254.2L592.7,1252.5L592.3,1249.6L593.4,1245.5L596.5,1237.5L597.4,1233.3L596.7,1211.5L594.9,1208.3L592.8,1206.9L588.0,1205.3L575.0,1203.7L569.8,1201.8L565.1,1197.9L550.6,1183.1L540.6,1172.6Z " data-id="TN.KB" data-name="Kebili" id="TN.KB"/>
utf-8utf-8<path d="M909.2,1479.3L924.0,1449.5L927.9,1444.8L932.0,1440.9L936.3,1437.7L941.0,1434.8L952.3,1430.5L956.0,1428.6L964.5,1422.2L966.6,1420.0L968.9,1415.5L968.4,1414.3L965.2,1413.5L958.4,1414.8L952.5,1412.6L886.9,1359.7L886.1,1358.6L885.8,1355.2L887.8,1346.2L888.0,1342.7L886.2,1317.9L886.7,1313.4L889.5,1305.0L890.7,1300.3L891.0,1292.4L890.4,1290.5L887.9,1287.3L880.0,1282.5L869.5,1273.1L865.2,1267.1L861.6,1253.6L857.6,1249.3L789.6,1217.8L784.3,1216.5L773.1,1215.2L768.8,1213.8L764.0,1210.7L761.8,1207.6L762.7,1204.8L767.5,1203.1L768.6,1199.1L770.4,1196.1L770.8,1193.1L770.1,1192.2L767.8,1191.9L749.1,1194.1L740.6,1193.0L736.5,1193.8L694.8,1212.6L691.6,1214.7L675.3,1221.8L668.9,1226.9L665.9,1226.9L653.5,1224.5L649.0,1224.2L645.9,1225.5L640.1,1230.2L635.3,1237.5L633.5,1239.1L625.4,1242.6L619.5,1244.2L614.3,1245.0L593.4,1245.5L592.3,1249.6L592.7,1252.5L593.6,1254.2L606.0,1264.2L612.1,1270.5L613.2,1272.6L610.0,1275.6L607.0,1276.5L603.5,1281.7L603.8,1286.9L605.2,1296.2L605.9,1298.3L609.1,1303.7L609.0,1307.7L606.3,1312.3L599.4,1321.8L598.9,1327.8L598.8,1339.5L599.5,1343.1L609.7,1360.3L611.2,1363.7L609.6,1365.3L606.2,1365.1L603.5,1364.0L597.3,1360.5L570.5,1339.4L562.6,1329.8L557.3,1325.9L552.9,1324.3L546.1,1323.2L538.3,1323.9L532.0,1325.3L526.2,1327.3L521.3,1330.5L511.6,1338.9L503.1,1343.2L220.6,1402.0L216.2,1403.3L223.0,1410.6L253.2,1429.7L292.7,1457.9L386.0,1524.5L389.5,1528.5L392.4,1534.0L421.4,1652.3L444.6,1747.1L452.3,1778.7L483.3,1905.0L498.9,1968.1L522.1,2062.9L576.0,2033.5L583.1,2031.5L600.9,2030.3L607.0,2026.6L636.2,1986.6L660.8,1944.4L682.2,1918.7L696.4,1887.0L699.9,1875.4L699.7,1865.8L693.0,1845.7L691.6,1835.5L692.7,1824.5L692.2,1819.2L684.0,1802.8L675.7,1772.5L656.1,1723.4L655.5,1718.4L657.5,1699.7L661.1,1693.1L676.1,1675.6L691.6,1646.3L703.8,1636.2L731.2,1636.5L744.3,1631.2L748.2,1628.0L751.6,1624.4L754.4,1620.0L758.2,1610.1L768.1,1600.5L771.0,1590.9L772.3,1567.9L777.6,1562.0L782.2,1562.7L786.6,1565.2L791.1,1566.9L795.8,1565.5L803.7,1558.8L812.3,1553.3L820.0,1545.3L829.1,1522.5L835.5,1515.3L909.2,1479.3Z " data-id="TN.TA" data-name="Tataouine" id="TN.TA"/>
utf-8</g>
</svg>
