<?xml version="1.0" ?>
<!DOCTYPE svg
  PUBLIC '-//W3C//DTD SVG 1.1//EN'
  'http://www.w3.org/Graphics/SVG/1.1/DTD/svg11.dtd'>
<svg enable_background="new 0 0 1000 398" height="398px" pretty_print="True" style="stroke-linejoin: round; stroke:#000; fill: none;" version="1.1" viewBox="0 0 1000 398" width="1000px" xmlns="http://www.w3.org/2000/svg" xmlns:xlink="http://www.w3.org/1999/xlink">
utf-8<defs>
utf-8utf-8<style type="text/css">
<![CDATA[path { fill-rule: evenodd; }]]>utf-8utf-8</style>
utf-8</defs>
utf-8<metadata>
utf-8utf-8<views>
utf-8utf-8utf-8<view h="398.192160479" padding="0" w="1000">
utf-8utf-8utf-8utf-8<proj flip="auto" id="robinson" lon0="28.0683564051"/>
utf-8utf-8utf-8utf-8<bbox h="105.47" w="265.54" x="354.04" y="-706.32"/>
utf-8utf-8utf-8</view>
utf-8utf-8</views>
utf-8</metadata>
utf-8<g class="" id="provinces">
utf-8utf-8<path d="M156.6,249.7L149.5,249.5L141.7,252.4L134.2,255.1L124.2,255.2L112.5,258.3L99.7,257.3L97.1,257.8L91.1,261.8L87.1,263.4L83.6,263.5L83.6,263.7L82.6,265.0L84.2,268.9L83.9,272.7L77.9,276.3L72.4,276.4L72.1,277.7L74.1,278.7L78.8,280.0L82.0,281.9L83.0,284.3L82.0,290.5L84.2,289.9L84.8,294.0L83.3,297.5L86.4,298.9L90.6,297.9L93.2,294.0L94.0,294.0L97.3,285.9L100.5,284.9L108.8,287.4L112.7,289.9L115.1,290.2L119.8,289.7L122.1,290.8L125.7,290.9L132.0,290.5L133.9,288.9L135.3,285.3L137.9,283.4L141.8,284.2L145.3,286.9L149.3,288.9L156.2,289.8L155.8,288.9L154.2,287.4L153.3,285.0L154.1,282.6L157.6,281.6L161.7,282.1L164.2,279.5L166.2,276.1L168.2,276.0L169.7,274.9L169.0,271.7L165.6,271.0L162.1,266.2L162.1,264.6L163.4,262.4L161.2,254.5L158.1,252.6L157.3,251.2L156.6,249.7Z " data-id="TR.AY" data-name="Aydin" id="TR.AY"/>
utf-8utf-8<path d="M33.2,228.4L33.1,227.4L31.6,228.2L33.2,228.4Z M53.1,226.7L52.0,223.1L50.4,222.3L50.7,225.9L53.1,226.7Z M81.8,168.6L80.0,165.7L77.5,163.8L74.6,163.2L65.9,168.9L63.0,170.4L60.5,174.2L50.2,181.8L50.2,181.8L54.3,184.9L55.8,188.6L52.6,190.5L52.5,194.3L55.9,197.9L59.8,197.0L62.4,197.7L65.3,196.4L66.2,197.1L65.6,199.5L66.8,199.8L65.4,201.5L64.3,200.8L62.5,204.1L60.7,203.4L58.7,204.3L60.4,207.7L59.6,209.5L55.0,208.1L50.1,210.3L50.6,214.7L52.8,215.6L54.8,218.2L57.7,218.2L57.3,221.3L59.6,222.7L62.7,227.2L74.9,227.4L71.3,230.6L69.5,230.0L63.0,232.2L59.0,232.6L56.4,233.4L54.9,233.1L53.7,230.5L51.2,228.9L49.8,231.7L51.5,236.3L50.5,236.7L46.6,229.8L45.3,229.6L47.5,225.8L42.8,218.7L42.5,217.7L38.6,213.9L34.1,213.1L31.6,214.8L31.7,216.7L33.7,222.6L36.4,226.3L41.4,228.7L40.8,230.3L38.2,229.1L39.9,232.9L37.1,234.8L35.2,234.4L33.4,235.3L30.1,233.4L30.4,236.0L29.5,238.0L28.1,237.4L28.0,238.8L30.8,239.7L34.5,241.8L36.4,240.3L36.4,242.0L43.3,244.9L44.9,248.0L46.0,247.1L47.7,249.7L48.9,247.5L49.2,243.3L55.5,242.5L59.4,247.1L62.6,254.1L67.7,252.2L70.4,253.2L75.4,256.7L76.8,257.2L81.8,257.1L83.7,263.2L83.6,263.5L87.1,263.4L91.1,261.8L97.1,257.8L99.7,257.3L112.5,258.3L124.2,255.2L134.2,255.1L141.7,252.4L149.5,249.5L146.8,246.2L144.0,239.6L142.3,237.8L136.9,236.6L135.7,235.4L127.5,236.6L125.7,233.4L123.4,231.1L115.2,230.4L113.6,234.5L111.0,235.1L108.7,233.1L106.8,229.2L102.6,227.4L98.7,225.0L97.5,221.4L88.9,219.9L85.2,219.6L81.9,217.0L80.1,212.7L76.3,209.5L76.4,208.1L79.0,204.3L79.7,202.2L80.1,197.4L82.8,195.5L85.9,194.2L90.2,190.0L90.2,186.7L86.9,181.0L84.3,173.4L81.8,168.6Z " data-id="TR.IZ" data-name="Izmir" id="TR.IZ"/>
utf-8utf-8<path d="M85.1,100.5L85.1,98.8L83.4,98.1L83.2,101.0L85.8,101.7L85.1,100.5Z M83.0,109.9L83.0,113.2L80.7,114.6L77.5,118.0L77.4,120.7L80.4,121.6L80.1,126.9L78.9,129.8L80.9,131.9L79.5,139.3L77.6,140.8L71.6,143.8L67.7,142.6L63.8,142.0L58.5,142.6L56.5,144.3L52.9,145.7L51.2,147.2L49.1,147.9L44.4,147.4L42.3,147.8L41.2,152.7L41.9,157.8L41.9,157.8L49.0,156.5L50.4,157.4L53.3,155.7L54.8,155.8L56.3,158.5L55.7,161.9L52.8,162.8L52.7,164.3L50.5,167.3L45.5,171.3L43.9,174.7L42.6,173.8L40.8,175.2L46.5,176.0L49.8,181.7L50.2,181.8L60.5,174.2L63.0,170.4L65.9,168.9L74.6,163.2L77.5,163.8L80.0,165.7L81.8,168.6L85.5,166.6L90.4,169.4L94.1,170.4L99.9,170.0L102.0,171.0L105.3,170.8L106.8,172.8L105.1,177.6L107.3,178.6L111.0,177.2L117.0,182.9L120.3,188.6L122.8,189.4L128.8,187.0L130.0,185.2L138.1,184.3L142.6,182.0L147.2,182.7L147.4,182.0L147.0,177.5L152.5,175.4L154.0,174.2L157.6,167.3L158.2,161.0L159.0,157.2L159.8,155.4L158.4,154.1L150.0,153.5L147.8,151.2L146.8,151.1L144.6,148.4L144.4,145.4L141.2,146.0L137.1,145.6L122.4,136.1L121.2,134.2L119.8,129.8L118.7,128.2L115.7,126.4L111.8,120.0L113.2,115.5L111.9,113.5L110.7,113.2L110.1,111.0L112.7,108.6L114.9,104.7L110.0,104.9L105.9,106.4L101.7,106.7L99.7,106.2L99.3,104.6L104.7,101.5L105.4,100.0L101.9,98.2L93.3,97.0L90.9,96.1L87.3,98.3L89.8,100.8L91.0,101.0L93.6,105.1L94.8,104.6L97.4,105.5L94.1,109.6L90.1,109.3L88.9,110.0L84.1,109.1L83.0,109.9Z M83.4,88.3L78.2,89.8L79.0,92.1L82.7,93.6L88.9,90.6L88.5,89.6L83.4,88.3Z " data-id="TR.BK" data-name="Balikesir" id="TR.BK"/>
utf-8utf-8<path d="M7.7,139.3L4.6,140.0L9.9,143.1L10.2,142.1L7.7,139.3Z M0.0,121.7L4.2,120.5L4.1,119.2L1.7,119.8L1.7,115.8L0.0,114.6L0.0,121.7Z M41.9,157.8L41.2,152.7L42.3,147.8L44.4,147.4L49.1,147.9L51.2,147.2L52.9,145.7L56.5,144.3L58.5,142.6L63.8,142.0L67.7,142.6L71.6,143.8L77.6,140.8L79.5,139.3L80.9,131.9L78.9,129.8L80.1,126.9L80.4,121.6L77.4,120.7L77.5,118.0L80.7,114.6L83.0,113.2L83.0,109.9L82.5,110.2L76.8,109.5L70.6,106.5L68.1,104.2L69.8,103.8L67.3,100.4L64.8,101.4L57.6,101.4L52.7,105.3L41.6,104.3L38.5,105.2L31.6,112.7L29.7,115.5L25.9,117.3L24.2,117.5L23.7,118.8L24.3,122.0L22.4,126.3L20.4,128.4L17.5,129.9L12.8,133.7L13.3,135.9L12.7,139.8L13.7,142.1L13.3,144.9L15.0,148.1L14.7,153.1L13.0,154.8L11.6,161.2L11.9,162.6L20.0,162.6L23.3,161.7L26.1,162.2L31.3,159.7L41.9,157.8Z M39.8,84.4L39.9,84.6L40.0,88.2L40.0,88.5L40.0,88.5L42.9,92.1L42.4,93.4L38.2,94.5L35.4,97.7L32.9,97.5L28.7,99.3L26.7,101.1L23.8,102.2L19.2,105.5L13.6,108.9L13.8,111.1L15.4,112.2L17.0,115.2L16.6,117.4L12.3,126.1L16.0,125.5L22.8,120.0L21.0,117.1L25.7,114.5L27.1,112.5L34.2,104.6L36.2,103.0L36.5,101.2L43.2,98.2L47.5,95.3L49.4,94.7L50.0,94.6L47.9,90.0L47.3,85.1L39.8,84.4Z " data-id="TR.CK" data-name="Çanakkale" id="TR.CK"/>
utf-8utf-8<path d="M32.8,7.9L27.3,8.6L22.4,7.9L19.5,10.0L19.4,14.8L16.2,17.5L10.9,17.3L8.5,20.4L9.6,23.6L17.1,25.9L16.7,27.6L22.8,31.1L23.6,29.8L24.2,34.4L26.9,41.6L27.3,45.4L25.5,47.2L22.7,45.8L20.4,48.3L18.0,50.0L12.8,51.8L13.0,59.4L14.2,60.4L13.5,62.0L15.1,64.9L16.6,65.5L15.8,70.3L13.2,72.0L13.9,73.1L10.0,73.7L9.6,76.9L7.1,79.1L5.2,83.1L1.3,83.8L2.8,88.4L4.4,91.5L16.0,92.1L19.5,91.3L20.9,91.9L26.4,92.3L30.0,90.2L36.6,89.0L40.0,88.5L40.0,88.2L39.9,84.6L39.8,84.4L38.0,80.4L35.6,76.5L34.7,71.5L35.1,67.1L36.3,63.4L38.4,60.5L38.7,56.8L37.3,48.2L36.6,47.1L34.8,44.3L36.6,39.6L36.9,35.2L38.6,32.3L39.0,26.4L37.7,20.5L35.4,14.7L33.2,7.6L32.8,7.9Z " data-id="TR.ED" data-name="Edirne" id="TR.ED"/>
utf-8utf-8<path d="M33.2,7.6L35.4,14.7L37.7,20.5L39.0,26.4L38.6,32.3L36.9,35.2L36.6,39.6L34.8,44.3L36.6,47.1L44.1,45.6L52.3,45.0L58.2,45.0L61.3,46.7L63.9,49.4L66.9,51.1L70.1,50.3L72.8,48.3L74.2,44.9L76.2,41.6L86.4,39.0L95.1,38.0L103.9,37.2L104.0,37.2L105.9,34.2L105.9,34.2L104.5,33.1L98.5,26.8L98.4,24.9L96.2,22.8L94.9,20.1L92.0,16.9L91.5,15.3L92.4,12.6L93.1,7.7L88.0,7.4L82.3,6.4L82.3,8.5L81.1,9.3L78.3,8.0L72.5,8.9L69.8,10.7L69.8,12.1L66.8,9.5L62.8,7.6L54.4,0.4L50.9,0.7L49.7,2.5L41.9,1.5L41.0,3.4L38.2,6.3L33.8,7.1L33.2,7.6Z " data-id="TR.KL" data-name="Kirklareli" id="TR.KL"/>
utf-8utf-8<path d="M103.9,37.2L95.1,38.0L86.4,39.0L76.2,41.6L74.2,44.9L72.8,48.3L70.1,50.3L66.9,51.1L63.9,49.4L61.3,46.7L58.2,45.0L52.3,45.0L44.1,45.6L36.6,47.1L37.3,48.2L38.7,56.8L38.4,60.5L36.3,63.4L35.1,67.1L34.7,71.5L35.6,76.5L38.0,80.4L39.8,84.4L47.3,85.1L47.9,90.0L50.0,94.6L50.0,94.6L54.0,91.4L57.4,91.4L65.6,85.8L67.4,82.2L71.6,77.9L72.5,76.0L73.2,71.0L74.1,69.0L75.5,68.1L86.3,66.7L92.8,68.8L97.0,69.2L98.9,66.0L100.9,64.5L107.5,62.2L108.0,62.5L105.7,54.3L106.0,50.6L106.8,45.6L105.8,41.5L103.9,37.2Z " data-id="TR.TG" data-name="Tekirdag" id="TR.TG"/>
utf-8utf-8<path d="M236.4,108.3L232.6,108.4L230.2,105.9L228.5,105.0L222.3,104.7L215.5,106.4L210.8,105.2L206.4,101.7L204.3,99.1L202.5,96.3L200.0,97.7L197.4,101.2L196.6,106.4L198.2,113.1L193.9,118.0L193.2,124.2L193.7,127.4L196.8,131.0L198.2,132.0L199.4,135.1L196.9,136.0L193.9,135.5L193.8,140.8L194.3,143.5L196.5,146.8L207.7,153.7L210.0,154.2L213.9,153.2L217.7,152.7L219.5,152.3L222.0,149.1L223.8,145.4L223.5,139.0L227.5,134.6L230.0,133.6L232.8,133.6L235.2,131.8L236.5,128.9L237.3,122.4L241.0,119.3L246.3,119.1L244.1,116.8L240.3,111.7L239.2,108.9L236.4,108.3Z " data-id="TR.BC" data-name="Bilecik" id="TR.BC"/>
utf-8utf-8<path d="M130.6,97.5L130.4,94.4L129.6,94.6L130.6,97.5Z M201.4,93.6L194.1,91.3L190.7,91.9L181.6,95.2L178.7,95.3L175.7,94.5L172.4,93.9L169.5,97.0L166.3,97.7L158.2,94.5L153.0,93.9L153.9,100.6L154.9,99.7L158.1,99.5L162.9,102.5L160.5,103.2L159.0,106.1L153.5,106.9L148.1,105.2L144.7,104.6L137.1,106.8L129.9,105.2L129.2,104.6L124.7,104.8L122.0,104.4L114.9,104.7L112.7,108.6L110.1,111.0L110.7,113.2L111.9,113.5L113.2,115.5L111.8,120.0L115.7,126.4L118.7,128.2L119.8,129.8L121.2,134.2L122.4,136.1L137.1,145.6L141.2,146.0L144.4,145.4L144.6,148.4L146.8,151.1L147.8,151.2L150.0,153.5L158.4,154.1L159.8,155.4L161.9,156.8L171.6,157.7L174.3,156.0L174.1,151.8L174.9,149.0L177.0,147.3L177.8,142.3L179.7,136.1L182.1,134.4L187.7,136.4L192.4,135.6L193.9,135.5L196.9,136.0L199.4,135.1L198.2,132.0L196.8,131.0L193.7,127.4L193.2,124.2L193.9,118.0L198.2,113.1L196.6,106.4L197.4,101.2L200.0,97.7L202.5,96.3L201.8,95.0L201.4,93.6Z " data-id="TR.BU" data-name="Bursa" id="TR.BU"/>
utf-8utf-8<path d="M158.1,76.8L158.4,75.5L157.3,76.5L158.1,76.8Z M164.7,75.1L166.1,73.0L173.7,66.9L176.4,67.1L179.1,69.1L181.0,72.1L182.7,73.2L184.5,73.0L185.4,70.1L188.1,68.2L193.8,65.6L194.9,62.5L193.5,58.1L180.9,56.4L170.4,54.2L160.7,52.6L157.6,53.1L155.7,54.4L153.1,58.0L153.7,60.4L153.3,62.7L150.9,65.6L155.3,69.9L158.8,72.8L164.7,75.1L164.7,75.1Z M105.9,34.2L105.9,34.2L104.0,37.2L103.9,37.2L105.8,41.5L106.8,45.6L106.0,50.6L105.7,54.3L108.0,62.5L108.4,62.7L111.2,62.2L112.7,63.1L123.0,65.4L125.9,67.9L128.0,67.6L128.1,65.2L127.3,62.5L129.1,64.6L128.9,66.0L130.4,66.9L130.3,68.8L131.9,69.4L143.8,68.8L145.7,68.4L147.9,66.9L149.8,67.4L150.0,65.5L151.9,64.1L154.5,53.0L151.0,51.7L150.1,52.5L144.0,51.0L127.4,44.2L115.9,39.9L107.6,35.5L105.9,34.2Z " data-id="TR.IB" data-name="Istanbul" id="TR.IB"/>
utf-8utf-8<path d="M219.1,56.3L214.4,54.2L207.6,58.6L194.7,58.3L193.5,58.1L194.9,62.5L193.8,65.6L188.1,68.2L185.4,70.1L184.5,73.0L182.7,73.2L181.0,72.1L179.1,69.1L176.4,67.1L173.7,66.9L166.1,73.0L164.7,75.1L165.2,75.5L169.6,79.3L172.0,82.5L174.4,81.3L187.5,81.0L192.9,83.0L198.1,82.1L200.1,82.4L200.8,83.8L191.4,84.5L181.8,86.6L177.4,84.5L175.1,86.6L175.1,86.6L175.1,86.6L175.8,92.1L175.7,94.5L178.7,95.3L181.6,95.2L190.7,91.9L194.1,91.3L201.4,93.6L204.9,93.3L211.2,91.2L214.0,89.3L215.6,85.5L216.4,76.3L219.3,73.0L217.3,71.1L222.0,71.7L225.8,69.3L226.7,67.4L226.1,65.4L222.3,64.8L221.0,61.7L222.3,56.9L219.1,56.3Z " data-id="TR.KC" data-name="Kocaeli" id="TR.KC"/>
utf-8utf-8<path d="M243.6,62.5L239.2,61.8L238.3,61.3L236.4,60.0L222.3,56.9L221.0,61.7L222.3,64.8L226.1,65.4L226.7,67.4L225.8,69.3L222.0,71.7L217.3,71.1L219.3,73.0L216.4,76.3L215.6,85.5L214.0,89.3L211.2,91.2L204.9,93.3L201.4,93.6L201.8,95.0L202.5,96.3L204.3,99.1L206.4,101.7L210.8,105.2L215.5,106.4L222.3,104.7L228.5,105.0L230.2,105.9L232.6,108.4L236.4,108.3L239.2,108.9L239.9,106.7L237.2,103.2L236.6,101.6L237.9,100.5L238.8,96.7L240.5,93.8L244.1,93.9L247.2,92.5L246.6,86.7L249.5,84.3L250.3,82.4L248.4,79.4L248.9,77.6L246.8,72.3L248.1,68.6L250.6,66.1L249.8,62.4L243.6,62.5Z " data-id="TR.SK" data-name="Sakarya" id="TR.SK"/>
utf-8utf-8<path d="M300.3,66.0L297.0,65.2L293.2,64.9L293.1,70.2L291.0,73.0L279.9,75.0L277.7,76.7L277.9,80.0L276.7,84.5L273.1,87.2L268.2,87.7L262.1,85.5L253.9,85.7L249.5,84.3L246.6,86.7L247.2,92.5L244.1,93.9L240.5,93.8L238.8,96.7L237.9,100.5L236.6,101.6L237.2,103.2L239.9,106.7L239.2,108.9L240.3,111.7L244.1,116.8L246.3,119.1L249.5,120.2L252.9,120.7L255.5,116.7L259.4,114.5L260.6,111.3L259.9,107.6L260.1,105.3L261.2,103.9L266.2,105.4L271.1,108.0L279.6,107.1L281.5,108.9L287.6,110.3L292.0,108.6L300.3,108.5L304.5,107.5L307.9,106.1L313.7,104.7L317.7,102.7L324.9,103.7L328.8,101.6L332.1,96.0L329.5,91.0L329.2,87.7L330.5,86.4L332.2,85.7L332.6,82.3L332.5,81.3L332.5,80.5L332.4,78.9L330.1,75.6L318.4,70.6L318.2,67.2L313.8,66.3L311.2,66.3L300.3,66.0Z " data-id="TR.BL" data-name="Bolu" id="TR.BL"/>
utf-8utf-8<path d="M249.5,120.2L246.3,119.1L241.0,119.3L237.3,122.4L236.5,128.9L235.2,131.8L232.8,133.6L230.0,133.6L227.5,134.6L223.5,139.0L223.8,145.4L222.0,149.1L219.5,152.3L221.8,155.3L228.2,160.4L230.0,164.2L231.2,169.1L237.2,175.6L238.6,179.5L240.5,180.0L244.4,184.8L248.7,187.1L256.0,183.7L260.5,179.3L263.2,180.4L265.8,182.8L269.3,181.3L272.7,178.5L277.9,175.4L280.0,174.8L284.1,178.4L287.3,184.0L291.5,186.8L298.1,186.2L302.1,186.3L304.1,186.7L307.2,187.1L311.2,186.4L311.8,185.4L312.0,183.6L311.9,181.8L313.1,180.9L318.6,177.9L320.4,175.2L319.8,173.3L316.8,170.6L315.9,167.0L316.2,163.2L313.9,156.8L310.1,153.4L306.7,146.8L306.0,143.6L307.8,141.4L307.5,139.7L305.4,137.4L300.5,134.6L298.3,130.0L298.1,128.1L295.8,128.4L293.5,127.1L291.8,127.7L282.9,128.1L280.5,126.0L278.0,126.6L273.2,126.0L270.6,128.1L264.8,126.6L260.2,128.6L258.1,128.7L255.4,123.3L252.9,120.7L249.5,120.2Z " data-id="TR.ES" data-name="Eskisehir" id="TR.ES"/>
utf-8utf-8<path d="M396.8,7.1L390.3,7.6L376.9,6.4L362.0,4.9L354.5,8.7L346.9,11.1L343.0,13.3L338.2,14.3L336.8,14.6L337.8,18.3L342.2,25.5L339.2,27.6L340.3,32.0L342.3,33.7L348.9,32.2L353.0,34.7L355.2,40.1L357.1,43.1L352.3,44.0L349.9,46.4L348.1,49.3L347.9,51.4L349.9,58.0L352.8,58.4L355.6,59.5L356.9,60.9L357.5,61.7L358.9,63.1L359.7,63.7L366.3,64.3L371.4,67.2L373.6,69.2L376.0,69.9L377.9,69.3L382.8,66.4L386.7,65.7L396.8,61.5L397.7,63.9L395.0,69.1L397.4,72.1L400.5,73.0L406.4,76.0L408.5,76.1L412.8,75.2L419.7,72.4L420.4,69.4L417.4,67.3L416.1,65.0L417.8,61.8L419.0,57.8L422.1,54.5L423.0,51.2L424.4,48.8L427.0,48.3L426.1,40.3L425.0,35.5L425.7,33.5L428.5,31.1L429.6,27.0L426.2,23.6L422.7,22.7L416.5,22.4L409.3,21.5L405.8,20.3L405.6,18.3L407.7,15.5L408.6,11.9L407.8,8.5L396.8,7.1Z " data-id="TR.KS" data-name="Kastamonu" id="TR.KS"/>
utf-8utf-8<path d="M219.9,376.2L219.6,375.9L219.7,376.2L219.9,376.2Z M214.7,376.9L216.8,375.6L215.4,374.3L214.7,376.9Z M231.6,372.9L231.6,372.4L230.6,372.7L231.6,372.9Z M203.5,370.9L202.9,370.9L203.1,371.3L203.5,370.9Z M297.9,293.4L295.1,293.0L292.6,293.9L290.3,295.6L287.6,296.1L282.4,297.9L277.6,296.0L274.3,299.2L273.7,301.9L270.9,305.3L265.0,305.8L260.2,305.3L253.0,305.6L251.7,305.1L248.1,301.3L244.9,300.9L237.6,304.1L234.5,304.6L225.6,309.4L223.2,313.2L222.9,318.1L221.3,321.8L217.6,325.7L216.1,326.0L211.8,338.7L212.9,342.6L212.3,346.2L207.8,350.2L208.0,353.7L205.2,353.6L202.1,354.9L200.7,358.4L200.1,363.8L198.0,365.8L198.0,365.8L203.0,369.7L203.7,368.7L207.2,369.2L210.7,371.1L216.3,371.4L218.1,372.3L218.3,374.6L220.2,375.4L222.7,374.2L225.0,374.6L226.0,375.7L229.0,372.4L232.4,370.7L236.4,370.7L242.6,369.2L248.6,364.8L249.7,364.9L257.7,368.7L257.9,371.4L263.3,362.7L261.9,362.2L260.5,358.9L262.3,353.2L264.6,350.8L264.6,346.8L263.4,344.9L263.9,341.1L262.9,334.5L264.1,330.8L268.2,327.4L273.1,330.1L281.6,329.6L302.8,332.7L304.8,333.8L305.1,335.4L306.6,335.6L316.9,340.0L318.7,341.6L325.4,344.1L326.5,345.5L334.1,348.5L337.3,348.6L340.4,349.8L344.0,353.0L346.7,356.5L347.8,357.0L350.4,361.6L353.9,364.4L357.9,370.0L360.8,373.2L363.7,374.4L369.0,378.0L372.1,378.6L372.1,378.6L374.3,370.4L374.8,367.4L373.7,360.3L373.8,356.5L372.5,354.5L366.8,350.4L364.2,346.0L361.9,341.4L361.7,337.0L360.4,332.8L359.2,331.2L352.7,329.8L351.7,328.1L353.3,325.1L352.9,323.1L349.0,321.3L345.1,318.1L336.2,309.6L332.3,307.1L328.6,304.1L323.9,301.3L310.3,298.6L305.1,298.5L299.2,294.8L297.9,293.4Z " data-id="TR.AL" data-name="Antalya" id="TR.AL"/>
utf-8utf-8<path d="M302.1,186.3L298.1,186.2L291.5,186.8L287.3,184.0L284.1,178.4L280.0,174.8L277.9,175.4L272.7,178.5L269.3,181.3L265.8,182.8L263.2,180.4L260.5,179.3L256.0,183.7L248.7,187.1L244.4,184.8L240.5,180.0L238.6,179.5L235.6,184.9L229.8,187.5L226.7,199.9L223.8,205.1L213.8,211.2L213.8,213.9L213.3,216.3L210.5,219.2L208.4,225.8L208.7,227.6L216.0,229.2L222.6,238.2L224.2,239.8L225.4,244.1L224.2,245.7L211.4,255.9L208.2,257.3L207.6,259.2L208.3,265.7L212.0,266.2L215.6,267.8L218.4,271.7L222.4,270.3L227.1,270.6L231.1,270.5L234.6,268.5L235.9,265.4L235.9,258.8L236.8,256.8L240.0,254.8L244.2,250.3L248.5,246.8L250.7,244.0L254.5,242.7L257.1,240.4L263.1,238.6L266.0,235.6L268.8,232.0L274.6,227.0L277.8,223.4L281.2,225.0L283.9,228.3L285.1,228.9L286.5,229.3L294.9,223.5L298.3,219.5L302.2,213.8L301.6,209.8L302.0,206.5L303.1,203.5L306.3,197.2L306.5,194.7L305.4,194.1L304.0,191.0L304.1,186.7L302.1,186.3Z " data-id="TR.AF" data-name="Afyonkarahisar" id="TR.AF"/>
utf-8utf-8<path d="M276.7,294.2L275.4,292.7L272.0,291.5L267.7,285.7L266.0,282.6L263.7,277.4L260.3,275.5L257.1,275.6L253.4,275.0L246.0,268.0L243.2,266.2L233.1,274.5L231.3,275.3L229.2,274.6L228.0,272.8L227.1,270.6L222.4,270.3L218.4,271.7L215.0,274.7L210.9,277.2L210.0,280.0L203.7,283.5L204.8,289.5L205.7,291.9L207.1,292.7L205.5,298.6L201.2,306.2L200.1,309.2L199.6,312.6L199.5,316.0L201.1,319.3L200.6,323.0L202.7,323.8L204.9,320.7L211.1,319.9L216.1,326.0L217.6,325.7L221.3,321.8L222.9,318.1L223.2,313.2L225.6,309.4L234.5,304.6L237.6,304.1L244.9,300.9L248.1,301.3L251.7,305.1L253.0,305.6L260.2,305.3L265.0,305.8L270.9,305.3L273.7,301.9L274.3,299.2L277.6,296.0L276.7,294.2Z " data-id="TR.BD" data-name="Burdur" id="TR.BD"/>
utf-8utf-8<path d="M215.6,267.8L212.0,266.2L208.3,265.7L207.6,259.2L208.2,257.3L211.4,255.9L224.2,245.7L225.4,244.1L224.2,239.8L222.6,238.2L216.0,229.2L208.7,227.6L202.4,228.9L202.4,232.8L203.2,236.6L199.9,238.6L192.3,238.3L189.9,240.3L188.8,242.4L187.4,241.6L184.5,242.8L182.8,242.7L180.9,240.9L179.0,240.6L176.6,242.3L173.7,242.3L170.7,240.7L167.6,240.0L162.9,241.1L161.1,245.4L160.9,248.7L158.9,249.7L156.6,249.7L157.3,251.2L158.1,252.6L161.2,254.5L163.4,262.4L162.1,264.6L162.1,266.2L165.6,271.0L169.0,271.7L169.7,274.9L168.2,276.0L166.2,276.1L164.2,279.5L161.7,282.1L157.6,281.6L154.1,282.6L153.3,285.0L154.2,287.4L155.8,288.9L156.2,289.8L156.9,290.9L157.8,295.9L163.5,297.4L165.4,300.0L166.3,303.0L168.3,305.5L172.3,306.0L174.8,309.1L178.8,310.8L182.2,313.8L183.2,316.2L184.5,321.9L186.0,323.1L188.8,323.3L194.4,326.1L197.3,322.2L197.3,318.0L199.5,316.0L199.6,312.6L200.1,309.2L201.2,306.2L205.5,298.6L207.1,292.7L205.7,291.9L204.8,289.5L203.7,283.5L210.0,280.0L210.9,277.2L215.0,274.7L218.4,271.7L215.6,267.8Z " data-id="TR.DN" data-name="Denizli" id="TR.DN"/>
utf-8utf-8<path d="M285.1,228.9L283.9,228.3L281.2,225.0L277.8,223.4L274.6,227.0L268.8,232.0L266.0,235.6L263.1,238.6L257.1,240.4L254.5,242.7L250.7,244.0L248.5,246.8L244.2,250.3L240.0,254.8L236.8,256.8L235.9,258.8L235.9,265.4L234.6,268.5L231.1,270.5L227.1,270.6L228.0,272.8L229.2,274.6L231.3,275.3L233.1,274.5L243.2,266.2L246.0,268.0L253.4,275.0L257.1,275.6L260.3,275.5L263.7,277.4L266.0,282.6L267.7,285.7L272.0,291.5L275.4,292.7L276.7,294.2L277.6,296.0L282.4,297.9L287.6,296.1L290.3,295.6L292.6,293.9L295.1,293.0L297.9,293.4L298.9,289.8L298.9,286.0L296.5,281.7L296.2,279.5L298.4,278.8L299.8,276.7L299.7,273.7L301.4,270.4L300.7,265.3L299.0,260.3L299.6,256.2L304.6,253.8L307.7,251.7L307.8,249.6L303.7,246.4L302.3,244.8L300.5,244.0L296.5,241.1L292.9,237.2L288.5,234.0L286.5,229.3L285.1,228.9Z " data-id="TR.IP" data-name="Isparta" id="TR.IP"/>
utf-8utf-8<path d="M192.4,135.6L187.7,136.4L182.1,134.4L179.7,136.1L177.8,142.3L177.0,147.3L174.9,149.0L174.1,151.8L174.3,156.0L171.6,157.7L161.9,156.8L159.8,155.4L159.0,157.2L158.2,161.0L157.6,167.3L154.0,174.2L152.5,175.4L147.0,177.5L147.4,182.0L147.2,182.7L150.0,185.4L151.2,186.2L159.2,187.8L160.8,188.8L165.7,195.9L165.7,199.8L169.2,205.7L169.4,209.8L172.0,207.4L175.0,207.4L178.4,209.3L181.9,209.8L185.6,209.7L191.9,207.9L194.9,207.7L195.8,204.7L196.3,201.2L202.2,199.9L210.3,202.0L213.1,204.7L213.8,211.2L223.8,205.1L226.7,199.9L229.8,187.5L235.6,184.9L238.6,179.5L237.2,175.6L231.2,169.1L230.0,164.2L228.2,160.4L221.8,155.3L219.5,152.3L217.7,152.7L213.9,153.2L210.0,154.2L207.7,153.7L196.5,146.8L194.3,143.5L193.8,140.8L193.9,135.5L192.4,135.6Z " data-id="TR.KU" data-name="Kütahya" id="TR.KU"/>
utf-8utf-8<path d="M142.6,182.0L138.1,184.3L130.0,185.2L128.8,187.0L122.8,189.4L120.3,188.6L117.0,182.9L111.0,177.2L107.3,178.6L105.1,177.6L106.8,172.8L105.3,170.8L102.0,171.0L99.9,170.0L94.1,170.4L90.4,169.4L85.5,166.6L81.8,168.6L84.3,173.4L86.9,181.0L90.2,186.7L90.2,190.0L85.9,194.2L82.8,195.5L80.1,197.4L79.7,202.2L79.0,204.3L76.4,208.1L76.3,209.5L80.1,212.7L81.9,217.0L85.2,219.6L88.9,219.9L97.5,221.4L98.7,225.0L102.6,227.4L106.8,229.2L108.7,233.1L111.0,235.1L113.6,234.5L115.2,230.4L123.4,231.1L125.7,233.4L127.5,236.6L135.7,235.4L136.9,236.6L142.3,237.8L144.0,239.6L146.8,246.2L149.5,249.5L156.6,249.7L158.9,249.7L160.9,248.7L161.1,245.4L162.9,241.1L167.6,240.0L165.4,238.0L162.4,237.0L164.9,233.1L165.5,228.2L164.1,222.2L161.3,220.3L160.9,218.0L164.1,214.6L167.8,211.6L169.4,209.8L169.2,205.7L165.7,199.8L165.7,195.9L160.8,188.8L159.2,187.8L151.2,186.2L150.0,185.4L147.2,182.7L142.6,182.0Z " data-id="TR.MN" data-name="Manisa" id="TR.MN"/>
utf-8utf-8<path d="M100.9,322.9L98.1,320.7L99.0,322.4L100.9,322.9Z M156.2,289.8L149.3,288.9L145.3,286.9L141.8,284.2L137.9,283.4L135.3,285.3L133.9,288.9L132.0,290.5L125.7,290.9L122.1,290.8L119.8,289.7L115.1,290.2L112.7,289.9L108.8,287.4L100.5,284.9L97.3,285.9L94.0,294.0L94.0,294.0L96.0,295.4L93.7,298.3L94.3,299.7L96.9,300.8L99.2,299.4L98.2,304.3L100.4,303.2L101.8,305.3L102.7,302.9L104.8,302.2L104.9,305.4L106.1,307.6L104.5,309.0L101.9,308.1L103.7,312.1L101.1,313.5L98.2,314.2L93.9,310.8L93.0,312.1L91.4,310.3L89.7,314.1L87.6,315.1L89.6,322.8L92.0,323.1L93.3,319.3L94.6,319.0L95.6,320.9L98.3,318.7L105.1,322.2L105.2,320.7L108.9,321.7L109.8,320.7L113.1,320.1L114.2,320.9L122.9,318.7L125.6,318.9L126.8,318.2L132.4,319.1L143.2,317.2L143.1,318.8L138.2,321.7L136.9,326.1L134.3,324.4L130.3,324.4L129.4,326.1L130.1,329.4L129.5,331.0L131.8,332.7L130.5,334.5L129.5,333.7L125.9,333.6L123.5,332.5L117.8,333.2L116.6,334.5L110.5,332.9L109.3,333.2L109.0,335.5L101.1,336.1L98.4,339.4L96.0,338.9L96.9,341.1L103.1,341.9L106.5,340.7L106.8,341.3L112.7,342.4L112.7,341.0L114.6,336.1L120.2,336.0L122.2,337.1L124.7,336.2L125.1,337.1L132.7,334.9L133.5,333.5L135.1,333.3L136.1,336.2L134.9,334.9L133.9,337.1L135.5,338.5L134.8,339.1L131.7,338.5L127.9,340.4L129.7,341.1L132.2,340.7L134.6,343.3L132.0,346.0L128.6,346.6L129.3,348.3L132.9,348.1L133.5,346.4L136.0,345.9L138.2,341.5L144.8,338.4L144.4,337.0L142.1,335.4L141.4,333.4L142.1,330.3L142.8,330.0L144.9,332.3L149.6,334.0L150.9,331.4L148.2,329.8L152.2,328.3L152.5,331.5L154.9,332.3L156.5,334.0L158.8,332.0L161.0,334.2L160.8,337.6L168.5,339.9L171.8,342.6L173.4,346.0L175.7,344.2L174.6,340.2L176.4,339.8L177.4,337.1L183.5,339.6L186.9,341.9L188.2,343.9L186.3,343.7L184.4,344.6L183.5,346.8L183.4,349.5L187.0,348.7L188.6,349.2L190.4,358.2L191.2,361.4L196.4,363.8L197.7,365.6L198.0,365.8L200.1,363.8L200.7,358.4L202.1,354.9L205.2,353.6L208.0,353.7L207.8,350.2L212.3,346.2L212.9,342.6L211.8,338.7L216.1,326.0L211.1,319.9L204.9,320.7L202.7,323.8L200.6,323.0L201.1,319.3L199.5,316.0L197.3,318.0L197.3,322.2L194.4,326.1L188.8,323.3L186.0,323.1L184.5,321.9L183.2,316.2L182.2,313.8L178.8,310.8L174.8,309.1L172.3,306.0L168.3,305.5L166.3,303.0L165.4,300.0L163.5,297.4L157.8,295.9L156.9,290.9L156.2,289.8Z " data-id="TR.MG" data-name="Mugla" id="TR.MG"/>
utf-8utf-8<path d="M692.9,246.7L690.3,248.0L679.7,250.6L672.4,250.1L667.4,248.3L666.8,247.0L669.4,244.4L668.9,242.3L665.9,241.7L662.9,242.6L659.3,242.7L656.1,246.8L653.5,251.6L649.8,253.8L648.8,256.3L649.2,259.6L646.4,262.4L636.5,264.6L634.2,264.0L629.5,264.6L625.2,266.4L618.0,267.8L615.9,270.9L613.4,273.4L611.7,275.9L612.2,279.7L614.5,282.6L617.7,283.7L623.8,287.2L629.4,286.0L635.0,286.1L641.4,288.3L646.0,291.8L646.8,292.4L652.9,293.1L654.6,291.3L661.2,288.7L662.9,289.4L669.1,288.3L675.8,280.4L687.1,278.7L683.2,275.7L687.2,274.6L689.4,274.7L687.9,272.2L691.1,271.6L690.2,269.1L688.3,267.5L691.1,265.0L690.5,262.4L693.9,260.2L694.5,256.4L698.3,255.0L700.1,253.6L701.8,252.3L701.5,250.6L702.1,244.9L700.3,243.2L696.3,244.9L694.8,244.0L692.9,246.7Z " data-id="TR.AD" data-name="Adiyaman" id="TR.AD"/>
utf-8utf-8<path d="M752.8,222.9L751.8,220.1L748.4,216.1L749.8,209.3L753.2,210.2L753.9,208.5L754.2,203.7L752.9,201.6L749.2,198.0L747.2,193.1L747.5,188.6L749.6,185.2L751.1,181.1L749.0,178.1L743.4,180.4L732.5,186.4L729.8,186.6L725.9,188.9L727.4,193.5L727.2,196.5L726.2,199.2L723.6,202.6L719.1,204.4L710.5,204.9L709.4,206.6L706.7,207.3L694.2,201.6L688.2,200.7L686.5,199.8L684.5,200.0L682.1,199.1L678.1,199.4L672.7,200.4L670.2,198.4L670.1,193.1L667.7,190.2L666.1,190.5L664.9,191.2L661.3,191.3L660.1,193.1L660.5,195.7L662.6,199.2L663.6,204.5L664.0,208.6L658.2,208.1L656.8,211.2L652.8,214.2L651.5,218.3L654.1,223.2L659.5,225.9L665.2,227.6L666.2,227.4L670.7,229.5L678.1,229.1L677.8,229.6L685.4,235.2L687.2,235.5L691.2,234.1L693.4,234.4L700.3,233.2L704.8,234.3L709.2,234.6L711.3,233.7L715.2,233.1L716.5,232.3L724.4,232.2L727.5,230.6L729.8,224.6L732.1,224.2L736.2,226.4L753.4,225.8L752.8,222.9Z " data-id="TR.EG" data-name="Elazig" id="TR.EG"/>
utf-8utf-8<path d="M585.0,218.8L583.5,218.2L582.1,217.4L575.3,216.4L568.7,218.1L567.1,219.1L566.4,221.1L566.3,224.4L565.0,227.0L560.3,233.8L558.7,235.7L556.2,238.4L555.1,242.4L554.1,253.6L553.1,257.8L553.9,266.9L556.1,270.9L556.3,273.5L553.9,275.7L552.7,277.5L553.4,282.5L551.2,286.0L551.0,288.0L553.4,291.2L554.2,295.5L557.1,298.0L559.1,296.6L560.1,297.6L569.1,295.4L571.2,295.9L576.3,299.8L579.0,303.0L584.9,300.2L586.9,296.9L589.6,298.5L591.9,304.2L596.1,305.5L600.1,300.6L602.9,299.2L609.2,298.0L615.8,295.7L622.3,295.3L624.3,293.9L624.6,291.0L623.9,289.1L623.8,287.2L617.7,283.7L614.5,282.6L612.2,279.7L611.7,275.9L613.4,273.4L615.9,270.9L618.0,267.8L619.7,264.0L621.0,254.6L623.3,250.4L623.4,248.5L625.2,241.2L625.1,238.6L622.0,234.2L617.7,232.4L614.0,231.4L606.9,227.6L599.0,226.0L595.2,226.5L594.1,222.7L596.4,217.8L585.0,218.8Z " data-id="TR.KM" data-name="K. Maras" id="TR.KM"/>
utf-8utf-8<path d="M661.0,187.4L658.6,186.2L656.1,185.3L651.2,185.0L646.9,183.1L643.1,184.4L639.8,187.1L636.6,188.0L633.0,187.5L629.6,188.6L625.6,188.7L618.6,192.7L614.5,193.6L609.8,191.5L607.6,192.1L606.8,194.6L607.8,197.6L610.4,203.1L609.9,205.5L606.8,209.3L603.7,211.2L599.3,216.5L596.4,217.8L594.1,222.7L595.2,226.5L599.0,226.0L606.9,227.6L614.0,231.4L617.7,232.4L622.0,234.2L625.1,238.6L625.2,241.2L623.4,248.5L623.3,250.4L621.0,254.6L619.7,264.0L618.0,267.8L625.2,266.4L629.5,264.6L634.2,264.0L636.5,264.6L646.4,262.4L649.2,259.6L648.8,256.3L649.8,253.8L653.5,251.6L656.1,246.8L659.3,242.7L662.9,242.6L665.9,241.7L668.9,242.3L669.4,244.4L666.8,247.0L667.4,248.3L672.4,250.1L679.7,250.6L690.3,248.0L692.9,246.7L694.8,244.0L695.7,238.2L695.3,236.7L694.5,235.3L693.4,234.4L691.2,234.1L687.2,235.5L685.4,235.2L677.8,229.6L678.1,229.1L670.7,229.5L666.2,227.4L665.2,227.6L659.5,225.9L654.1,223.2L651.5,218.3L652.8,214.2L656.8,211.2L658.2,208.1L664.0,208.6L663.6,204.5L662.6,199.2L660.5,195.7L660.1,193.1L661.3,191.3L664.9,191.2L661.0,187.4Z " data-id="TR.ML" data-name="Malatya" id="TR.ML"/>
utf-8utf-8<path d="M474.1,294.7L470.6,296.2L469.2,297.2L467.5,297.8L463.6,297.9L463.2,299.9L458.3,302.3L456.2,304.5L447.8,308.4L446.3,310.5L442.8,311.9L438.9,312.2L437.1,313.0L432.6,316.7L419.7,318.4L415.8,320.0L409.3,320.6L407.2,321.2L402.3,325.1L400.5,325.7L399.0,327.7L398.8,330.6L397.9,332.4L395.9,331.9L394.5,330.3L388.2,333.0L388.5,335.1L392.5,341.5L396.2,344.2L399.0,344.9L401.6,346.7L403.1,348.7L401.9,350.3L396.4,349.1L395.6,353.5L383.8,356.9L380.7,356.9L377.2,356.1L373.8,356.5L373.7,360.3L374.8,367.4L374.3,370.4L372.1,378.6L375.5,380.7L377.6,381.6L384.7,382.9L391.3,378.0L399.2,379.3L401.2,376.2L406.8,376.2L411.1,375.0L415.1,375.7L416.8,374.7L423.1,376.5L426.2,372.7L428.1,372.5L430.3,375.4L430.5,373.7L432.4,371.0L434.1,370.2L435.5,367.5L438.3,364.4L442.6,367.6L442.7,371.0L443.7,370.9L445.1,365.2L449.0,363.5L448.3,358.1L452.6,354.7L453.6,352.6L457.4,347.0L458.8,345.6L464.0,342.1L470.2,335.6L477.3,332.4L481.3,332.3L485.8,334.5L488.3,336.8L490.5,337.9L490.5,337.9L493.0,335.9L495.1,335.3L496.9,333.6L495.3,326.4L494.8,322.8L495.8,318.8L493.6,316.7L490.4,316.9L487.7,315.1L486.1,311.4L485.1,304.8L482.4,302.9L480.0,299.4L477.8,295.6L474.1,294.7Z " data-id="TR.IC" data-name="Mersin" id="TR.IC"/>
utf-8utf-8<path d="M456.3,164.3L453.8,162.5L451.1,162.1L448.7,160.7L440.4,152.4L437.8,148.4L433.7,148.3L431.3,147.6L425.3,142.4L422.5,142.4L421.3,141.5L420.2,140.5L413.0,148.0L411.5,154.4L408.7,159.7L401.3,166.1L396.8,175.7L398.3,179.3L404.6,182.8L411.3,187.7L414.1,187.9L420.0,190.4L419.9,192.5L420.7,193.6L426.2,194.7L427.2,197.2L429.5,199.0L435.2,197.5L436.3,197.3L442.6,201.9L444.6,201.4L443.2,197.1L443.9,193.7L449.8,191.2L455.4,188.2L457.2,185.6L453.8,180.6L453.9,176.5L452.8,173.2L451.5,171.3L451.7,167.0L455.2,167.8L458.0,167.3L456.3,164.3Z " data-id="TR.KH" data-name="Kirsehir" id="TR.KH"/>
utf-8utf-8<path d="M568.5,215.5L569.7,211.3L574.4,189.8L571.7,184.2L567.3,182.1L562.8,181.3L558.0,181.3L553.6,182.8L550.9,181.9L548.1,180.1L539.4,178.9L535.7,180.2L530.5,179.6L525.1,176.2L521.6,175.3L519.7,172.9L517.0,171.6L514.3,171.4L510.8,177.2L495.5,187.5L493.4,188.2L488.1,191.8L476.1,190.0L475.6,191.2L475.5,195.6L473.9,202.3L477.0,206.9L481.2,211.4L481.4,214.3L482.3,217.2L482.5,220.2L478.8,227.3L477.0,229.4L476.0,232.1L480.9,241.8L484.4,245.0L492.7,245.0L494.7,249.3L494.6,252.0L495.2,254.8L497.4,259.3L495.2,260.8L495.3,264.1L495.0,268.0L504.0,268.7L508.9,269.9L515.6,272.3L518.1,271.0L515.4,259.3L532.9,246.4L535.2,242.7L536.8,238.3L538.0,236.4L539.5,231.1L541.5,229.3L545.2,227.1L549.2,226.0L552.1,227.2L554.4,230.2L556.2,233.5L558.7,235.7L560.3,233.8L565.0,227.0L566.3,224.4L566.4,221.1L567.1,219.1L568.7,218.1L568.5,215.5Z " data-id="TR.KY" data-name="Kayseri" id="TR.KY"/>
utf-8utf-8<path d="M455.2,167.8L451.7,167.0L451.5,171.3L452.8,173.2L453.9,176.5L453.8,180.6L457.2,185.6L455.4,188.2L449.8,191.2L443.9,193.7L443.2,197.1L444.6,201.4L442.6,201.9L436.3,197.3L436.1,199.8L438.5,205.5L438.1,208.7L436.7,211.6L437.8,214.8L440.4,216.3L443.1,217.0L446.4,216.9L447.2,219.8L446.1,223.0L446.5,226.1L451.8,230.3L453.9,231.5L457.0,231.9L461.2,230.6L464.1,230.5L468.1,233.4L470.9,234.1L476.0,232.1L477.0,229.4L478.8,227.3L482.5,220.2L482.3,217.2L481.4,214.3L481.2,211.4L477.0,206.9L473.9,202.3L475.5,195.6L475.6,191.2L476.1,190.0L475.3,188.4L473.2,184.1L473.5,182.6L472.0,180.7L467.6,178.3L465.3,173.8L462.0,171.5L460.5,168.1L458.9,167.5L458.0,167.3L455.2,167.8Z " data-id="TR.NV" data-name="Nevsehir" id="TR.NV"/>
utf-8utf-8<path d="M579.5,331.5L579.5,331.5L577.5,330.3L576.8,329.0L571.4,326.3L567.6,323.0L565.1,323.3L562.5,323.2L558.3,320.2L555.9,319.5L549.1,319.5L546.9,319.8L545.7,319.4L543.7,319.8L540.0,324.6L540.3,327.3L541.3,328.6L542.1,327.4L545.5,325.2L547.5,325.7L551.6,328.8L555.3,333.2L557.9,342.4L555.6,346.6L550.5,350.1L542.1,359.1L541.7,360.7L539.5,362.0L538.4,365.1L541.6,369.0L542.5,370.9L548.5,379.0L550.5,383.5L547.9,389.9L551.4,389.3L560.6,396.2L561.9,394.1L561.6,389.6L562.6,387.7L566.3,387.3L567.4,384.6L570.6,385.0L569.9,371.5L569.5,370.0L573.2,371.7L584.7,369.9L583.9,366.0L580.0,363.8L580.0,361.7L575.8,352.9L577.1,350.5L576.6,344.8L577.3,340.6L577.3,336.7L579.5,331.5L579.5,331.5Z " data-id="TR.HT" data-name="Hatay" id="TR.HT"/>
utf-8utf-8<path d="M525.7,71.8L522.1,67.6L520.2,67.0L518.3,68.2L517.9,71.0L516.7,73.5L513.0,76.4L510.9,76.9L506.7,75.1L494.0,74.9L492.3,74.5L490.1,71.7L481.9,66.5L480.1,65.6L477.0,66.2L460.6,62.1L461.3,63.8L459.5,68.5L460.3,74.6L460.2,78.7L465.3,86.7L467.1,87.6L475.8,89.0L479.9,91.1L484.4,94.6L484.7,96.8L484.2,101.4L480.7,107.6L480.7,110.7L480.8,115.0L481.3,115.2L485.3,117.3L487.9,117.1L490.5,117.8L492.0,113.8L493.2,112.3L498.4,110.2L499.7,108.6L503.5,99.6L504.6,98.1L508.8,97.8L513.0,98.8L519.3,101.9L523.1,100.5L528.3,96.9L528.2,93.8L532.2,92.9L534.0,90.0L535.6,83.2L534.1,80.7L531.2,78.9L530.4,76.2L531.7,75.5L525.7,71.8Z " data-id="TR.AM" data-name="Amasya" id="TR.AM"/>
utf-8utf-8<path d="M448.5,51.3L446.6,55.0L440.6,53.3L437.5,51.1L428.6,49.8L427.0,48.3L424.4,48.8L423.0,51.2L422.1,54.5L419.0,57.8L417.8,61.8L416.1,65.0L417.4,67.3L420.4,69.4L419.7,72.4L412.8,75.2L408.5,76.1L411.6,79.9L410.7,84.8L411.4,87.5L412.9,89.8L414.8,96.5L416.4,98.5L418.8,103.2L418.9,104.8L416.3,110.2L414.4,110.9L410.7,113.0L411.7,116.0L414.4,120.4L418.2,122.8L419.6,126.0L419.7,128.1L417.8,132.2L418.4,135.4L421.1,134.1L429.0,133.2L433.6,131.1L438.4,129.5L446.4,130.8L449.3,129.7L455.5,129.7L462.7,126.2L467.2,127.4L469.5,127.1L473.2,124.9L474.3,123.2L474.6,119.5L473.8,118.8L474.0,116.0L478.8,115.7L480.8,115.0L480.7,110.7L480.7,107.6L484.2,101.4L484.7,96.8L484.4,94.6L479.9,91.1L475.8,89.0L467.1,87.6L465.3,86.7L460.2,78.7L460.3,74.6L459.5,68.5L461.3,63.8L460.6,62.1L458.6,61.6L454.7,62.1L451.8,55.1L448.6,50.8L448.5,51.3Z " data-id="TR.CM" data-name="Çorum" id="TR.CM"/>
utf-8utf-8<path d="M669.3,79.2L667.9,73.6L667.5,70.5L667.7,63.0L666.9,63.7L662.6,64.8L656.8,64.8L654.4,66.3L650.9,67.0L645.0,70.6L643.3,69.0L638.2,72.0L630.5,72.0L628.7,72.5L618.6,70.4L616.1,70.0L615.0,78.9L616.2,80.7L617.2,91.9L622.8,97.0L629.5,111.8L629.9,115.3L632.2,118.0L635.3,119.3L642.3,123.3L647.3,122.1L652.9,123.7L658.5,126.2L660.8,126.3L665.2,126.0L667.1,125.1L667.2,123.0L665.5,121.3L664.7,119.1L663.8,112.7L664.7,111.5L670.7,107.6L670.6,105.4L666.2,102.6L660.0,101.3L658.3,99.6L657.8,97.4L658.1,93.5L660.1,90.3L659.1,88.4L659.5,86.8L663.4,84.4L664.7,82.3L670.7,81.6L669.3,79.2Z " data-id="TR.GI" data-name="Giresun" id="TR.GI"/>
utf-8utf-8<path d="M615.5,69.9L609.1,68.1L606.6,67.8L604.8,68.6L602.2,66.0L598.3,63.8L597.6,59.9L595.2,60.4L592.6,58.8L590.1,62.2L589.7,63.8L585.3,65.2L582.5,63.3L580.4,62.7L577.0,60.5L570.8,58.3L565.1,58.4L563.0,62.1L560.6,64.9L559.0,68.7L555.3,70.8L551.2,74.4L546.2,75.6L545.2,76.0L544.6,77.6L548.5,80.3L551.6,81.9L556.1,83.2L562.6,86.1L566.2,86.4L569.6,85.9L573.1,86.1L586.0,93.7L593.0,94.1L595.2,97.1L596.7,100.8L600.3,105.9L604.7,108.9L610.7,104.4L615.0,104.5L615.2,100.4L621.5,98.2L622.8,97.0L617.2,91.9L616.2,80.7L615.0,78.9L616.1,70.0L615.5,69.9Z " data-id="TR.OR" data-name="Ordu" id="TR.OR"/>
utf-8utf-8<path d="M407.8,8.5L408.6,11.9L407.7,15.5L405.6,18.3L405.8,20.3L409.3,21.5L416.5,22.4L422.7,22.7L426.2,23.6L429.6,27.0L428.5,31.1L425.7,33.5L425.0,35.5L426.1,40.3L427.0,48.3L428.6,49.8L437.5,51.1L440.6,53.3L446.6,55.0L448.5,51.3L448.6,50.8L449.3,50.3L451.0,49.0L450.5,47.9L458.8,42.8L460.7,46.4L463.9,49.4L467.8,50.7L473.9,51.4L476.2,50.0L479.0,50.6L479.8,49.9L475.0,35.2L474.8,32.1L476.1,28.0L475.3,27.8L470.6,24.9L468.3,24.6L460.9,20.6L452.6,10.4L453.0,5.6L448.9,2.9L447.5,0.4L443.6,0.0L443.6,1.8L441.5,5.6L434.8,9.1L432.2,9.3L425.4,9.0L421.2,7.6L419.3,7.7L413.8,9.2L407.8,8.5Z " data-id="TR.SP" data-name="Sinop" id="TR.SP"/>
utf-8utf-8<path d="M652.9,123.7L647.3,122.1L642.3,123.3L635.3,119.3L632.2,118.0L629.9,115.3L629.5,111.8L622.8,97.0L621.5,98.2L615.2,100.4L615.0,104.5L610.7,104.4L604.7,108.9L600.3,105.9L596.7,100.8L594.9,105.7L592.5,109.8L587.5,111.1L584.2,113.4L580.0,114.0L575.6,113.8L570.9,114.4L562.7,116.8L556.8,116.1L553.2,117.6L551.3,127.4L549.9,129.0L542.7,131.7L534.3,132.1L522.7,134.4L524.8,139.0L530.9,146.9L530.2,152.0L526.9,155.5L523.0,158.8L518.0,167.6L515.9,169.2L514.3,171.4L517.0,171.6L519.7,172.9L521.6,175.3L525.1,176.2L530.5,179.6L535.7,180.2L539.4,178.9L548.1,180.1L550.9,181.9L553.6,182.8L558.0,181.3L562.8,181.3L567.3,182.1L571.7,184.2L574.4,189.8L569.7,211.3L568.5,215.5L568.7,218.1L575.3,216.4L582.1,217.4L583.5,218.2L585.0,218.8L596.4,217.8L599.3,216.5L603.7,211.2L606.8,209.3L609.9,205.5L610.4,203.1L607.8,197.6L606.8,194.6L607.6,192.1L609.8,191.5L614.5,193.6L618.6,192.7L625.6,188.7L629.6,188.6L633.0,187.5L636.6,188.0L639.8,187.1L643.1,184.4L646.9,183.1L647.8,181.4L647.9,179.3L644.4,167.4L648.0,164.5L648.2,163.5L642.9,159.3L641.9,156.9L642.8,154.8L642.3,148.2L645.3,142.9L649.4,140.1L648.1,138.9L644.5,139.7L641.0,139.8L640.2,137.9L641.3,132.7L643.4,131.4L646.1,133.2L648.6,133.5L650.8,131.9L653.4,131.4L658.1,131.7L658.8,129.4L658.5,126.2L652.9,123.7Z " data-id="TR.SV" data-name="Sivas" id="TR.SV"/>
utf-8utf-8<path d="M564.3,58.4L559.1,56.3L558.0,52.5L555.1,49.3L547.0,45.8L542.9,44.9L538.5,44.9L535.7,44.4L531.7,51.3L529.7,52.4L526.0,51.8L516.4,45.3L514.3,42.4L512.8,41.6L509.1,37.0L508.8,30.6L507.8,28.8L499.5,22.6L497.3,22.4L488.1,26.6L485.0,27.0L480.1,28.7L477.7,28.4L476.1,28.0L474.8,32.1L475.0,35.2L479.8,49.9L479.0,50.6L476.2,50.0L473.9,51.4L467.8,50.7L463.9,49.4L460.7,46.4L458.8,42.8L450.5,47.9L451.0,49.0L449.3,50.3L448.6,50.8L451.8,55.1L454.7,62.1L458.6,61.6L460.6,62.1L477.0,66.2L480.1,65.6L481.9,66.5L490.1,71.7L492.3,74.5L494.0,74.9L506.7,75.1L510.9,76.9L513.0,76.4L516.7,73.5L517.9,71.0L518.3,68.2L520.2,67.0L522.1,67.6L525.7,71.8L531.7,75.5L537.1,74.2L538.8,73.5L542.1,73.3L544.0,74.5L545.2,76.0L546.2,75.6L551.2,74.4L555.3,70.8L559.0,68.7L560.6,64.9L563.0,62.1L565.1,58.4L564.3,58.4Z " data-id="TR.SS" data-name="Samsun" id="TR.SS"/>
utf-8utf-8<path d="M544.0,74.5L542.1,73.3L538.8,73.5L537.1,74.2L531.7,75.5L530.4,76.2L531.2,78.9L534.1,80.7L535.6,83.2L534.0,90.0L532.2,92.9L528.2,93.8L528.3,96.9L523.1,100.5L519.3,101.9L513.0,98.8L508.8,97.8L504.6,98.1L503.5,99.6L499.7,108.6L498.4,110.2L493.2,112.3L492.0,113.8L490.5,117.8L494.6,121.5L499.0,124.2L503.8,123.8L507.9,124.6L510.3,124.4L516.7,122.4L519.1,124.4L519.6,130.4L521.9,133.0L522.7,134.4L534.3,132.1L542.7,131.7L549.9,129.0L551.3,127.4L553.2,117.6L556.8,116.1L562.7,116.8L570.9,114.4L575.6,113.8L580.0,114.0L584.2,113.4L587.5,111.1L592.5,109.8L594.9,105.7L596.7,100.8L595.2,97.1L593.0,94.1L586.0,93.7L573.1,86.1L569.6,85.9L566.2,86.4L562.6,86.1L556.1,83.2L551.6,81.9L548.5,80.3L544.6,77.6L545.2,76.0L544.0,74.5Z " data-id="TR.TT" data-name="Tokat" id="TR.TT"/>
utf-8utf-8<path d="M831.3,40.9L821.8,37.8L815.5,36.7L809.4,37.6L805.5,36.3L803.0,37.6L801.8,39.6L798.9,41.2L796.6,39.5L789.5,37.9L783.7,35.8L780.2,39.7L780.2,41.0L778.6,44.1L773.5,45.7L769.7,48.9L771.8,52.3L772.6,54.7L777.8,60.4L781.8,62.8L780.9,65.7L778.4,67.3L776.8,70.8L775.7,71.4L771.8,76.5L771.5,79.0L775.9,81.1L782.4,82.0L784.3,82.6L785.0,84.6L784.1,86.8L784.4,92.1L788.4,95.0L792.8,93.3L796.7,90.7L800.5,89.6L804.6,90.7L809.4,93.0L811.2,89.7L810.8,87.0L811.3,84.5L813.0,82.6L813.8,80.1L813.0,77.4L813.2,75.0L816.2,72.9L819.6,72.6L823.2,73.0L826.1,72.3L829.0,72.1L831.1,66.2L834.8,61.8L838.6,59.8L839.2,55.7L837.0,51.4L834.2,47.0L832.0,40.9L831.3,40.9Z " data-id="TR.AV" data-name="Artvin" id="TR.AV"/>
utf-8utf-8<path d="M843.9,89.7L839.6,85.8L838.1,83.4L834.3,80.5L830.9,76.8L829.0,72.1L826.1,72.3L823.2,73.0L819.6,72.6L816.2,72.9L813.2,75.0L813.0,77.4L813.8,80.1L813.0,82.6L811.3,84.5L810.8,87.0L811.2,89.7L809.4,93.0L804.6,90.7L800.5,89.6L796.7,90.7L792.8,93.3L788.4,95.0L784.4,92.1L784.1,86.8L785.0,84.6L784.3,82.6L782.4,82.0L775.9,81.1L771.5,79.0L768.0,81.2L763.3,85.5L757.3,86.8L756.4,90.4L749.5,92.0L741.9,95.8L744.2,99.6L747.1,108.0L749.0,111.9L752.5,113.5L761.0,115.1L761.3,116.4L759.3,120.3L753.3,122.4L750.6,123.7L746.8,127.3L745.0,127.6L736.5,126.6L735.5,130.0L735.6,133.6L738.6,134.9L747.4,135.0L751.5,139.3L752.2,142.7L756.4,146.5L758.7,147.4L760.7,149.2L758.7,155.1L759.2,159.0L763.9,159.6L768.1,157.7L770.8,155.9L772.6,156.8L778.3,161.2L782.4,163.0L785.6,163.3L788.3,165.9L791.1,169.5L799.1,168.2L803.4,169.1L805.5,170.3L811.3,175.0L815.0,179.1L816.3,180.0L821.0,181.8L825.5,181.9L829.2,179.3L835.3,178.2L840.7,173.7L841.7,171.3L840.9,168.5L841.5,165.7L848.0,162.3L851.8,161.9L852.8,161.5L854.0,159.0L854.0,156.0L852.4,147.5L853.3,145.4L845.5,142.6L840.5,137.8L842.1,137.1L846.1,137.7L847.9,137.1L848.7,135.6L853.4,134.1L854.6,132.6L852.7,130.3L849.3,125.9L846.1,124.8L841.5,120.8L835.2,119.6L830.2,114.6L831.2,111.2L838.2,108.9L847.9,102.7L845.5,96.5L846.0,94.4L845.9,92.3L843.9,89.7Z " data-id="TR.EM" data-name="Erzurum" id="TR.EM"/>
utf-8utf-8<path d="M727.8,125.0L725.6,125.9L723.8,127.7L718.3,127.7L715.7,128.7L714.2,131.4L712.3,133.7L706.8,134.9L704.3,136.2L695.3,136.6L692.1,136.3L685.6,134.0L681.6,130.9L679.5,130.2L673.4,127.1L668.7,125.9L667.1,125.1L665.2,126.0L660.8,126.3L658.5,126.2L658.8,129.4L658.1,131.7L653.4,131.4L650.8,131.9L648.6,133.5L646.1,133.2L643.4,131.4L641.3,132.7L640.2,137.9L641.0,139.8L644.5,139.7L648.1,138.9L649.4,140.1L645.3,142.9L642.3,148.2L642.8,154.8L641.9,156.9L642.9,159.3L648.2,163.5L648.0,164.5L644.4,167.4L647.9,179.3L647.8,181.4L646.9,183.1L651.2,185.0L656.1,185.3L658.6,186.2L661.0,187.4L664.9,191.2L666.1,190.5L667.7,190.2L666.7,186.3L665.3,182.6L666.9,181.7L667.1,178.1L670.8,176.3L669.0,173.2L669.5,171.2L672.4,170.1L674.0,167.7L675.4,167.8L678.5,164.4L683.3,162.6L685.9,162.0L688.7,162.5L692.7,160.9L696.7,161.2L700.7,162.1L704.8,162.1L712.5,160.9L715.9,159.8L717.8,157.1L719.6,156.5L722.6,158.0L726.8,159.0L735.7,155.9L739.5,156.9L747.2,157.2L751.5,157.8L755.7,157.9L759.2,159.0L758.7,155.1L760.7,149.2L758.7,147.4L756.4,146.5L752.2,142.7L751.5,139.3L747.4,135.0L738.6,134.9L735.6,133.6L735.5,130.0L736.5,126.6L727.8,125.0Z " data-id="TR.EN" data-name="Erzincan" id="TR.EN"/>
utf-8utf-8<path d="M771.8,76.5L775.7,71.4L776.8,70.8L778.4,67.3L780.9,65.7L781.8,62.8L777.8,60.4L772.6,54.7L771.8,52.3L769.7,48.9L769.3,49.2L761.5,53.7L751.9,55.3L748.8,57.7L746.5,61.4L743.0,62.4L738.5,65.2L735.1,64.3L730.0,67.8L732.5,71.7L734.5,75.8L735.8,80.2L740.3,87.7L740.5,91.9L741.9,95.8L749.5,92.0L756.4,90.4L757.3,86.8L763.3,85.5L768.0,81.2L771.5,79.0L771.8,76.5Z " data-id="TR.RI" data-name="Rize" id="TR.RI"/>
utf-8utf-8<path d="M727.6,69.4L719.2,72.4L712.1,68.6L707.8,69.7L705.1,69.7L701.7,67.4L698.0,66.4L695.0,67.3L690.8,65.9L685.0,61.2L680.4,61.4L677.9,62.9L673.1,64.2L671.3,63.0L668.1,62.7L667.7,63.0L667.5,70.5L667.9,73.6L669.3,79.2L670.7,81.6L671.7,82.3L674.4,80.4L676.8,81.6L678.2,85.2L682.1,88.5L694.8,93.0L699.6,92.3L699.8,89.8L701.2,88.6L705.0,90.8L708.1,94.6L709.2,94.6L709.2,92.2L711.8,92.0L715.5,95.3L717.8,96.4L722.2,96.5L726.6,97.8L733.7,96.6L738.9,96.6L740.9,96.0L741.9,95.8L740.5,91.9L740.3,87.7L735.8,80.2L734.5,75.8L732.5,71.7L730.0,67.8L727.6,69.4Z " data-id="TR.TB" data-name="Trabzon" id="TR.TB"/>
utf-8utf-8<path d="M890.1,130.4L887.9,130.9L885.4,130.3L879.8,130.3L864.8,134.5L854.6,132.6L853.4,134.1L848.7,135.6L847.9,137.1L846.1,137.7L842.1,137.1L840.5,137.8L845.5,142.6L853.3,145.4L852.4,147.5L854.0,156.0L854.0,159.0L852.8,161.5L854.9,165.5L857.6,169.0L861.4,172.2L862.6,173.9L866.3,177.7L867.4,189.2L868.1,192.5L870.1,191.2L872.4,190.4L874.1,189.4L875.6,188.1L884.8,186.0L890.4,183.7L891.4,182.4L891.1,178.0L890.4,176.1L886.1,174.2L886.2,172.3L892.0,170.7L893.5,168.3L895.4,166.7L899.4,166.9L903.3,168.4L906.7,171.4L909.3,172.8L915.7,173.6L920.0,171.1L930.6,173.1L937.6,171.3L937.6,171.2L935.9,168.2L936.9,167.6L944.7,166.7L948.5,168.4L953.4,167.1L954.2,166.4L955.3,152.3L955.3,152.0L952.2,151.0L943.4,152.9L939.4,152.5L935.3,151.3L930.4,152.0L925.5,151.2L924.5,149.4L921.1,148.7L916.2,146.6L912.7,142.4L905.5,139.7L902.2,141.0L899.4,143.2L896.5,141.9L895.4,139.5L894.9,135.1L893.1,131.5L890.1,130.4Z " data-id="TR.AG" data-name="Agri" id="TR.AG"/>
utf-8utf-8<path d="M788.3,165.9L785.6,163.3L782.4,163.0L778.3,161.2L772.6,156.8L770.8,155.9L768.1,157.7L763.9,159.6L759.2,159.0L755.7,157.9L754.1,160.2L747.8,160.9L746.1,164.3L744.0,166.0L741.5,165.9L739.3,166.8L738.1,169.4L734.4,169.2L732.0,170.0L731.5,171.2L731.3,177.6L733.2,182.4L733.1,184.5L732.5,186.4L743.4,180.4L749.0,178.1L751.1,181.1L749.6,185.2L747.5,188.6L747.2,193.1L749.2,198.0L752.9,201.6L754.2,203.7L753.9,208.5L753.2,210.2L749.8,209.3L748.4,216.1L751.8,220.1L752.8,222.9L753.4,225.8L759.4,225.6L761.4,224.7L762.4,222.6L762.2,218.9L764.9,217.5L769.8,216.8L774.3,217.7L783.2,218.0L786.4,217.1L792.1,213.3L798.1,210.9L800.3,209.2L799.7,207.5L798.8,206.0L795.6,203.4L793.9,199.7L794.7,194.8L797.6,190.6L797.8,188.0L797.0,185.2L792.5,179.8L790.0,173.3L790.0,171.9L791.1,169.5L788.3,165.9Z " data-id="TR.BG" data-name="Bingöl" id="TR.BG"/>
utf-8utf-8<path d="M809.0,221.8L808.2,220.0L808.3,217.5L807.4,214.9L803.5,212.5L800.3,209.2L798.1,210.9L792.1,213.3L786.4,217.1L783.2,218.0L774.3,217.7L769.8,216.8L764.9,217.5L762.2,218.9L762.4,222.6L761.4,224.7L759.4,225.6L753.4,225.8L736.2,226.4L732.1,224.2L729.8,224.6L727.5,230.6L724.4,232.2L716.5,232.3L715.2,233.1L711.3,233.7L709.2,234.6L704.8,234.3L700.3,233.2L693.4,234.4L694.5,235.3L695.3,236.7L695.7,238.2L694.8,244.0L696.3,244.9L700.3,243.2L702.1,244.9L701.5,250.6L701.8,252.3L700.1,253.6L704.5,255.8L711.9,256.5L714.9,257.8L718.5,261.1L725.8,265.2L728.1,267.0L730.7,268.0L731.5,266.4L736.5,269.0L737.5,270.6L738.2,277.5L740.7,285.2L743.4,290.3L745.6,293.7L748.4,296.3L752.5,289.9L754.5,287.8L759.6,283.9L762.0,283.0L767.2,278.6L771.3,278.3L773.6,273.6L779.2,272.4L797.4,272.9L800.5,271.4L799.0,269.4L797.7,263.6L800.0,261.9L801.7,259.6L802.9,251.8L804.2,249.0L804.1,245.4L802.3,238.4L802.9,229.0L803.8,227.4L809.5,225.4L811.3,224.4L810.7,222.2L809.0,221.8Z " data-id="TR.DY" data-name="Diyarbakir" id="TR.DY"/>
utf-8utf-8<path d="M867.4,189.2L866.3,177.7L862.6,173.9L861.4,172.2L857.6,169.0L854.9,165.5L852.8,161.5L851.8,161.9L848.0,162.3L841.5,165.7L840.9,168.5L841.7,171.3L840.7,173.7L835.3,178.2L829.2,179.3L825.5,181.9L821.0,181.8L816.3,180.0L815.0,179.1L811.3,175.0L805.5,170.3L803.4,169.1L799.1,168.2L791.1,169.5L790.0,171.9L790.0,173.3L792.5,179.8L797.0,185.2L797.8,188.0L797.6,190.6L794.7,194.8L793.9,199.7L795.6,203.4L798.8,206.0L799.7,207.5L800.3,209.2L803.5,212.5L807.4,214.9L808.3,217.5L808.2,220.0L809.0,221.8L810.7,222.2L813.4,221.4L816.2,220.9L816.6,220.1L824.1,217.2L833.0,217.9L836.3,215.9L840.7,210.8L840.0,208.1L837.9,205.6L838.5,203.3L843.1,203.4L844.0,202.5L844.1,199.6L847.2,198.6L852.4,196.1L860.9,197.0L864.9,195.4L868.1,192.5L867.4,189.2Z " data-id="TR.MS" data-name="Mus" id="TR.MS"/>
utf-8utf-8<path d="M882.0,243.8L880.6,240.6L880.7,238.4L877.0,230.5L877.8,226.8L882.8,223.8L885.7,221.6L887.1,217.9L890.7,211.0L893.1,208.2L896.3,205.4L897.0,200.7L894.4,197.6L887.8,194.1L885.7,190.8L884.8,186.0L875.6,188.1L874.1,189.4L872.4,190.4L870.1,191.2L868.1,192.5L864.9,195.4L860.9,197.0L852.4,196.1L847.2,198.6L844.1,199.6L844.0,202.5L843.1,203.4L838.5,203.3L837.9,205.6L840.0,208.1L840.7,210.8L836.3,215.9L833.0,217.9L824.1,217.2L816.6,220.1L816.2,220.9L820.9,222.6L824.0,231.2L825.8,234.7L826.7,240.8L827.1,242.2L832.7,244.2L838.4,244.6L842.7,243.5L846.9,241.8L850.6,243.4L854.1,246.4L857.9,248.9L868.1,252.2L871.6,254.6L877.3,257.5L881.2,259.9L883.2,259.8L884.4,257.5L883.5,252.6L884.1,249.0L884.9,244.8L882.0,243.8Z " data-id="TR.BT" data-name="Bitlis" id="TR.BT"/>
utf-8utf-8<path d="M383.9,106.3L382.2,105.4L378.6,105.2L378.3,108.5L374.6,108.9L370.9,106.5L368.7,102.7L361.4,98.3L356.3,92.6L340.4,86.1L336.3,85.5L332.2,85.7L330.5,86.4L329.2,87.7L329.5,91.0L332.1,96.0L328.8,101.6L324.9,103.7L317.7,102.7L313.7,104.7L307.9,106.1L304.5,107.5L300.3,108.5L292.0,108.6L287.6,110.3L281.5,108.9L279.6,107.1L271.1,108.0L266.2,105.4L261.2,103.9L260.1,105.3L259.9,107.6L260.6,111.3L259.4,114.5L255.5,116.7L252.9,120.7L255.4,123.3L258.1,128.7L260.2,128.6L264.8,126.6L270.6,128.1L273.2,126.0L278.0,126.6L280.5,126.0L282.9,128.1L291.8,127.7L293.5,127.1L295.8,128.4L298.1,128.1L298.3,130.0L300.5,134.6L305.4,137.4L307.5,139.7L307.8,141.4L306.0,143.6L306.7,146.8L310.1,153.4L313.9,156.8L316.2,163.2L315.9,167.0L316.8,170.6L319.8,173.3L320.4,175.2L318.6,177.9L313.1,180.9L311.9,181.8L314.3,182.7L316.7,184.0L324.8,189.9L326.7,190.4L331.9,188.9L334.5,188.6L342.9,192.6L345.1,192.8L347.9,190.4L351.0,188.9L355.0,190.5L357.2,189.2L358.8,186.8L363.5,182.7L366.1,183.4L369.3,185.6L371.6,186.0L372.2,184.8L373.4,178.6L375.5,178.5L382.0,181.5L387.5,185.0L391.1,191.2L391.9,201.7L392.5,205.4L397.5,212.7L399.0,215.3L403.3,214.1L407.2,211.8L411.6,210.6L416.2,210.7L418.0,209.8L421.8,205.8L421.5,202.1L418.7,196.7L419.9,192.5L420.0,190.4L414.1,187.9L411.3,187.7L404.6,182.8L398.3,179.3L396.8,175.7L391.6,168.1L388.4,159.1L386.7,156.7L381.9,152.0L379.9,146.7L381.3,136.0L382.9,130.7L386.4,129.2L392.3,128.6L392.5,125.0L391.0,117.0L391.2,113.5L391.1,108.4L383.9,106.3Z " data-id="TR.AN" data-name="Ankara" id="TR.AN"/>
utf-8utf-8<path d="M406.4,76.0L400.5,73.0L397.4,72.1L395.0,69.1L397.7,63.9L396.8,61.5L386.7,65.7L382.8,66.4L377.9,69.3L376.0,69.9L373.6,69.2L371.4,67.2L366.3,64.3L359.7,63.7L358.9,63.1L357.5,61.7L356.1,66.7L351.5,69.2L346.5,68.7L344.7,69.7L342.9,73.8L337.5,78.2L332.5,80.5L332.5,81.3L332.6,82.3L332.2,85.7L336.3,85.5L340.4,86.1L356.3,92.6L361.4,98.3L368.7,102.7L370.9,106.5L374.6,108.9L378.3,108.5L378.6,105.2L382.2,105.4L383.9,106.3L391.1,108.4L405.8,112.6L410.7,113.0L414.4,110.9L416.3,110.2L418.9,104.8L418.8,103.2L416.4,98.5L414.8,96.5L412.9,89.8L411.4,87.5L410.7,84.8L411.6,79.9L408.5,76.1L406.4,76.0Z " data-id="TR.CI" data-name="Çankiri" id="TR.CI"/>
utf-8utf-8<path d="M315.8,41.9L311.8,34.4L308.6,33.2L305.4,30.6L300.8,32.0L298.6,33.6L292.8,36.4L283.0,42.9L275.7,45.7L270.7,48.0L271.8,50.2L271.5,55.0L270.6,56.7L269.2,58.2L269.2,58.2L271.3,59.9L280.6,63.8L293.2,64.9L297.0,65.2L300.3,66.0L311.2,66.3L310.5,60.8L311.4,55.8L311.8,52.5L313.3,50.6L315.5,47.1L315.8,41.9Z " data-id="TR.ZO" data-name="Zinguldak" id="TR.ZO"/>
utf-8utf-8<path d="M397.5,212.7L392.5,205.4L391.9,201.7L391.1,191.2L387.5,185.0L382.0,181.5L375.5,178.5L373.4,178.6L372.2,184.8L371.6,186.0L369.3,185.6L366.1,183.4L363.5,182.7L358.8,186.8L357.2,189.2L355.0,190.5L351.0,188.9L347.9,190.4L345.1,192.8L342.9,192.6L334.5,188.6L331.9,188.9L326.7,190.4L324.8,189.9L316.7,184.0L314.3,182.7L311.9,181.8L312.0,183.6L311.8,185.4L311.2,186.4L307.2,187.1L304.1,186.7L304.0,191.0L305.4,194.1L306.5,194.7L306.3,197.2L303.1,203.5L302.0,206.5L301.6,209.8L302.2,213.8L298.3,219.5L294.9,223.5L286.5,229.3L288.5,234.0L292.9,237.2L296.5,241.1L300.5,244.0L302.3,244.8L303.7,246.4L307.8,249.6L307.7,251.7L304.6,253.8L299.6,256.2L299.0,260.3L300.7,265.3L301.4,270.4L299.7,273.7L299.8,276.7L298.4,278.8L296.2,279.5L296.5,281.7L298.9,286.0L298.9,289.8L297.9,293.4L299.2,294.8L305.1,298.5L310.3,298.6L323.9,301.3L328.6,304.1L332.3,307.1L336.2,309.6L345.1,318.1L349.0,321.3L352.9,323.1L353.3,325.1L351.7,328.1L352.7,329.8L359.2,331.2L360.4,332.8L361.7,337.0L361.9,341.4L367.2,337.0L373.8,329.7L375.1,327.3L374.1,323.7L370.9,323.4L367.6,322.0L367.0,319.7L367.9,315.4L372.0,309.2L377.3,300.7L384.9,291.0L389.6,289.1L397.3,288.1L405.3,287.6L410.3,285.7L413.8,280.4L415.9,278.9L421.0,279.2L423.3,279.9L424.0,284.0L425.7,288.1L440.5,302.1L444.7,307.9L446.3,310.5L447.8,308.4L456.2,304.5L458.3,302.3L463.2,299.9L463.6,297.9L462.1,295.1L458.5,292.0L456.1,289.2L455.8,284.4L457.4,281.4L458.2,278.1L457.2,274.4L452.9,270.2L448.4,264.3L443.2,262.1L441.2,259.5L440.1,256.2L436.1,255.6L432.3,256.5L428.5,258.0L424.6,259.0L420.5,258.8L412.5,259.4L406.4,260.7L404.2,260.6L401.8,258.7L397.8,254.5L392.1,243.3L391.8,238.1L393.2,230.2L394.7,227.4L394.8,222.4L395.6,220.3L398.2,217.0L399.0,215.3L397.5,212.7Z " data-id="TR.KO" data-name="Konya" id="TR.KO"/>
utf-8utf-8<path d="M444.7,307.9L440.5,302.1L425.7,288.1L424.0,284.0L423.3,279.9L421.0,279.2L415.9,278.9L413.8,280.4L410.3,285.7L405.3,287.6L397.3,288.1L389.6,289.1L384.9,291.0L377.3,300.7L372.0,309.2L367.9,315.4L367.0,319.7L367.6,322.0L370.9,323.4L374.1,323.7L375.1,327.3L373.8,329.7L367.2,337.0L361.9,341.4L364.2,346.0L366.8,350.4L372.5,354.5L373.8,356.5L377.2,356.1L380.7,356.9L383.8,356.9L395.6,353.5L396.4,349.1L401.9,350.3L403.1,348.7L401.6,346.7L399.0,344.9L396.2,344.2L392.5,341.5L388.5,335.1L388.2,333.0L394.5,330.3L395.9,331.9L397.9,332.4L398.8,330.6L399.0,327.7L400.5,325.7L402.3,325.1L407.2,321.2L409.3,320.6L415.8,320.0L419.7,318.4L432.6,316.7L437.1,313.0L438.9,312.2L442.8,311.9L446.3,310.5L444.7,307.9Z " data-id="TR.KR" data-name="Karaman" id="TR.KR"/>
utf-8utf-8<path d="M213.1,204.7L210.3,202.0L202.2,199.9L196.3,201.2L195.8,204.7L194.9,207.7L191.9,207.9L185.6,209.7L181.9,209.8L178.4,209.3L175.0,207.4L172.0,207.4L169.4,209.8L167.8,211.6L164.1,214.6L160.9,218.0L161.3,220.3L164.1,222.2L165.5,228.2L164.9,233.1L162.4,237.0L165.4,238.0L167.6,240.0L170.7,240.7L173.7,242.3L176.6,242.3L179.0,240.6L180.9,240.9L182.8,242.7L184.5,242.8L187.4,241.6L188.8,242.4L189.9,240.3L192.3,238.3L199.9,238.6L203.2,236.6L202.4,232.8L202.4,228.9L208.7,227.6L208.4,225.8L210.5,219.2L213.3,216.3L213.8,213.9L213.8,211.2L213.1,204.7Z " data-id="TR.US" data-name="Usak" id="TR.US"/>
utf-8utf-8<path d="M641.4,288.3L635.0,286.1L629.4,286.0L623.8,287.2L623.9,289.1L624.6,291.0L624.3,293.9L622.3,295.3L615.8,295.7L609.2,298.0L602.9,299.2L600.1,300.6L596.1,305.5L591.9,304.2L589.6,298.5L586.9,296.9L584.9,300.2L579.0,303.0L577.0,305.7L575.4,308.7L573.3,314.2L570.3,318.8L568.6,320.6L567.6,323.0L571.4,326.3L576.8,329.0L577.5,330.3L579.5,331.5L579.5,331.5L582.0,328.9L586.1,326.9L589.3,324.5L589.2,320.2L590.7,318.9L592.7,319.9L594.8,323.6L598.4,324.2L602.7,326.9L607.6,331.2L610.1,333.8L611.6,332.8L620.8,337.5L625.8,341.4L629.1,339.0L632.1,337.6L640.5,335.8L648.3,332.0L649.7,331.6L650.6,331.0L650.7,327.6L649.6,326.6L645.8,319.5L646.3,317.2L641.2,316.9L639.6,310.7L638.5,309.3L639.2,305.4L637.2,303.3L638.8,297.9L642.7,292.5L645.1,292.0L646.0,291.8L641.4,288.3Z " data-id="TR.GA" data-name="Gaziantep" id="TR.GA"/>
utf-8utf-8<path d="M745.6,293.7L743.4,290.3L740.7,285.2L738.2,277.5L737.5,270.6L736.5,269.0L731.5,266.4L730.7,268.0L728.1,267.0L725.8,265.2L718.5,261.1L714.9,257.8L711.9,256.5L704.5,255.8L700.1,253.6L698.3,255.0L694.5,256.4L693.9,260.2L690.5,262.4L691.1,265.0L688.3,267.5L690.2,269.1L691.1,271.6L687.9,272.2L689.4,274.7L687.2,274.6L683.2,275.7L687.1,278.7L675.8,280.4L669.1,288.3L662.9,289.4L661.2,288.7L654.6,291.3L652.9,293.1L646.8,292.4L646.0,291.8L645.1,292.0L642.7,292.5L638.8,297.9L637.2,303.3L639.2,305.4L638.5,309.3L639.6,310.7L641.2,316.9L646.3,317.2L645.8,319.5L649.6,326.6L650.7,327.6L650.6,331.0L655.2,327.9L663.8,326.8L674.1,329.7L676.8,331.1L684.8,338.5L688.2,340.1L692.0,340.6L700.4,340.2L704.2,339.6L712.5,342.3L715.3,342.2L742.0,337.0L752.6,332.8L757.3,329.8L762.8,327.9L766.2,325.4L763.7,324.2L757.8,316.0L757.6,310.9L756.8,309.6L750.2,303.9L748.4,296.3L745.6,293.7Z " data-id="TR.SU" data-name="Sanliurfa" id="TR.SU"/>
utf-8utf-8<path d="M556.2,233.5L554.4,230.2L552.1,227.2L549.2,226.0L545.2,227.1L541.5,229.3L539.5,231.1L538.0,236.4L536.8,238.3L535.2,242.7L532.9,246.4L515.4,259.3L518.1,271.0L515.6,272.3L508.9,269.9L504.0,268.7L495.0,268.0L489.1,274.7L484.1,275.5L478.7,274.5L477.3,276.8L478.0,280.0L480.3,285.0L479.8,287.7L477.4,291.1L477.3,292.5L477.8,295.6L480.0,299.4L482.4,302.9L485.1,304.8L486.1,311.4L487.7,315.1L490.4,316.9L493.6,316.7L495.8,318.8L494.8,322.8L495.3,326.4L496.9,333.6L495.1,335.3L493.0,335.9L490.5,337.9L491.2,337.9L496.4,340.0L510.5,347.9L512.9,349.6L521.6,345.3L523.4,346.8L527.4,346.0L526.8,340.9L530.9,338.4L527.7,337.6L524.5,340.7L524.0,339.7L525.9,337.4L529.3,335.6L535.5,334.9L539.6,331.0L541.3,328.6L540.3,327.3L540.0,324.6L543.7,319.8L545.7,319.4L546.9,319.8L547.9,315.9L548.2,312.6L545.0,306.9L540.4,306.3L538.2,301.7L537.6,296.7L542.1,281.8L543.9,277.8L548.7,277.5L552.7,277.5L553.9,275.7L556.3,273.5L556.1,270.9L553.9,266.9L553.1,257.8L554.1,253.6L555.1,242.4L556.2,238.4L558.7,235.7L556.2,233.5Z " data-id="TR.AA" data-name="Adana" id="TR.AA"/>
utf-8utf-8<path d="M405.8,112.6L391.1,108.4L391.2,113.5L391.0,117.0L392.5,125.0L392.3,128.6L386.4,129.2L382.9,130.7L381.3,136.0L379.9,146.7L381.9,152.0L386.7,156.7L388.4,159.1L391.6,168.1L396.8,175.7L401.3,166.1L408.7,159.7L411.5,154.4L413.0,148.0L420.2,140.5L419.5,139.3L419.4,137.9L419.0,136.6L418.4,135.4L417.8,132.2L419.7,128.1L419.6,126.0L418.2,122.8L414.4,120.4L411.7,116.0L410.7,113.0L405.8,112.6Z " data-id="TR.KK" data-name="Kinkkale" id="TR.KK"/>
utf-8utf-8<path d="M470.9,234.1L468.1,233.4L464.1,230.5L461.2,230.6L457.0,231.9L453.9,231.5L440.1,256.2L441.2,259.5L443.2,262.1L448.4,264.3L452.9,270.2L457.2,274.4L458.2,278.1L457.4,281.4L455.8,284.4L456.1,289.2L458.5,292.0L462.1,295.1L463.6,297.9L467.5,297.8L469.2,297.2L470.6,296.2L474.1,294.7L477.8,295.6L477.3,292.5L477.4,291.1L479.8,287.7L480.3,285.0L478.0,280.0L477.3,276.8L478.7,274.5L484.1,275.5L489.1,274.7L495.0,268.0L495.3,264.1L495.2,260.8L497.4,259.3L495.2,254.8L494.6,252.0L494.7,249.3L492.7,245.0L484.4,245.0L480.9,241.8L476.0,232.1L470.9,234.1Z " data-id="TR.NG" data-name="Nigde" id="TR.NG"/>
utf-8utf-8<path d="M435.2,197.5L429.5,199.0L427.2,197.2L426.2,194.7L420.7,193.6L419.9,192.5L418.7,196.7L421.5,202.1L421.8,205.8L418.0,209.8L416.2,210.7L411.6,210.6L407.2,211.8L403.3,214.1L399.0,215.3L398.2,217.0L395.6,220.3L394.8,222.4L394.7,227.4L393.2,230.2L391.8,238.1L392.1,243.3L397.8,254.5L401.8,258.7L404.2,260.6L406.4,260.7L412.5,259.4L420.5,258.8L424.6,259.0L428.5,258.0L432.3,256.5L436.1,255.6L440.1,256.2L453.9,231.5L451.8,230.3L446.5,226.1L446.1,223.0L447.2,219.8L446.4,216.9L443.1,217.0L440.4,216.3L437.8,214.8L436.7,211.6L438.1,208.7L438.5,205.5L436.1,199.8L436.3,197.3L435.2,197.5Z " data-id="TR.AK" data-name="Aksaray" id="TR.AK"/>
utf-8utf-8<path d="M487.9,117.1L485.3,117.3L481.3,115.2L480.8,115.0L478.8,115.7L474.0,116.0L473.8,118.8L474.6,119.5L474.3,123.2L473.2,124.9L469.5,127.1L467.2,127.4L462.7,126.2L455.5,129.7L449.3,129.7L446.4,130.8L438.4,129.5L433.6,131.1L429.0,133.2L421.1,134.1L418.4,135.4L419.0,136.6L419.4,137.9L419.5,139.3L420.2,140.5L421.3,141.5L422.5,142.4L425.3,142.4L431.3,147.6L433.7,148.3L437.8,148.4L440.4,152.4L448.7,160.7L451.1,162.1L453.8,162.5L456.3,164.3L458.0,167.3L458.9,167.5L460.5,168.1L462.0,171.5L465.3,173.8L467.6,178.3L472.0,180.7L473.5,182.6L473.2,184.1L475.3,188.4L476.1,190.0L488.1,191.8L493.4,188.2L495.5,187.5L510.8,177.2L514.3,171.4L515.9,169.2L518.0,167.6L523.0,158.8L526.9,155.5L530.2,152.0L530.9,146.9L524.8,139.0L522.7,134.4L521.9,133.0L519.6,130.4L519.1,124.4L516.7,122.4L510.3,124.4L507.9,124.6L503.8,123.8L499.0,124.2L494.6,121.5L490.5,117.8L487.9,117.1Z " data-id="TR.YZ" data-name="Yozgat" id="TR.YZ"/>
utf-8utf-8<path d="M705.0,90.8L701.2,88.6L699.8,89.8L699.6,92.3L694.8,93.0L682.1,88.5L678.2,85.2L676.8,81.6L674.4,80.4L671.7,82.3L670.7,81.6L664.7,82.3L663.4,84.4L659.5,86.8L659.1,88.4L660.1,90.3L658.1,93.5L657.8,97.4L658.3,99.6L660.0,101.3L666.2,102.6L670.6,105.4L670.7,107.6L664.7,111.5L663.8,112.7L664.7,119.1L665.5,121.3L667.2,123.0L667.1,125.1L668.7,125.9L673.4,127.1L679.5,130.2L681.6,130.9L685.6,134.0L692.1,136.3L695.3,136.6L704.3,136.2L706.8,134.9L712.3,133.7L714.2,131.4L715.7,128.7L713.2,124.8L711.4,120.6L712.6,112.9L711.4,103.8L708.1,94.6L705.0,90.8Z " data-id="TR.GU" data-name="Gümüshane" id="TR.GU"/>
utf-8utf-8<path d="M740.9,96.0L738.9,96.6L733.7,96.6L726.6,97.8L722.2,96.5L717.8,96.4L715.5,95.3L711.8,92.0L709.2,92.2L709.2,94.6L708.1,94.6L711.4,103.8L712.6,112.9L711.4,120.6L713.2,124.8L715.7,128.7L718.3,127.7L723.8,127.7L725.6,125.9L727.8,125.0L736.5,126.6L745.0,127.6L746.8,127.3L750.6,123.7L753.3,122.4L759.3,120.3L761.3,116.4L761.0,115.1L752.5,113.5L749.0,111.9L747.1,108.0L744.2,99.6L741.9,95.8L740.9,96.0Z " data-id="TR.BB" data-name="Bayburt" id="TR.BB"/>
utf-8utf-8<path d="M886.2,60.9L883.1,61.9L878.4,64.6L863.0,71.1L857.5,74.0L857.2,78.8L857.8,86.2L857.6,90.6L851.6,91.2L845.9,92.3L846.0,94.4L845.5,96.5L847.9,102.7L838.2,108.9L831.2,111.2L830.2,114.6L835.2,119.6L841.5,120.8L846.1,124.8L849.3,125.9L852.7,130.3L854.6,132.6L864.8,134.5L879.8,130.3L885.4,130.3L887.9,130.9L890.1,130.4L893.1,131.5L894.6,129.4L894.2,127.0L896.7,125.8L902.9,124.9L909.3,122.7L908.3,120.9L911.1,119.8L908.0,113.0L905.2,110.2L903.1,107.0L903.6,103.4L901.3,101.7L901.0,97.9L903.8,96.6L903.4,95.1L905.6,91.5L904.9,90.1L906.0,87.4L904.9,83.1L898.2,71.6L891.6,67.2L889.3,66.9L886.2,62.3L886.2,60.9Z " data-id="TR.KA" data-name="Kars" id="TR.KA"/>
utf-8utf-8<path d="M830.9,281.3L825.7,285.6L818.0,287.2L811.9,283.7L807.2,276.3L802.8,271.8L801.8,271.3L800.5,271.4L797.4,272.9L779.2,272.4L773.6,273.6L771.3,278.3L767.2,278.6L762.0,283.0L759.6,283.9L754.5,287.8L752.5,289.9L748.4,296.3L750.2,303.9L756.8,309.6L757.6,310.9L757.8,316.0L763.7,324.2L766.2,325.4L772.4,320.8L778.9,318.8L785.3,315.0L787.8,314.0L797.3,312.6L810.1,315.0L813.7,316.3L828.1,315.6L849.0,310.5L847.3,306.5L843.7,303.9L837.4,302.0L836.2,299.4L837.9,297.0L846.1,292.5L846.1,288.2L843.7,282.7L839.4,274.7L830.9,281.3Z " data-id="TR.MR" data-name="Mardin" id="TR.MR"/>
utf-8utf-8<path d="M826.7,240.8L825.8,234.7L824.0,231.2L820.9,222.6L816.2,220.9L813.4,221.4L810.7,222.2L811.3,224.4L809.5,225.4L803.8,227.4L802.9,229.0L802.3,238.4L804.1,245.4L804.2,249.0L802.9,251.8L801.7,259.6L800.0,261.9L797.7,263.6L799.0,269.4L800.5,271.4L801.8,271.3L802.8,271.8L807.2,276.3L811.9,283.7L818.0,287.2L825.7,285.6L830.9,281.3L839.4,274.7L833.0,268.6L823.0,264.9L816.6,259.9L815.6,255.7L816.8,252.8L822.6,251.2L824.7,248.3L825.2,244.8L827.1,242.2L826.7,240.8Z " data-id="TR.BM" data-name="Batman" id="TR.BM"/>
utf-8utf-8<path d="M884.1,249.0L883.5,252.6L884.4,257.5L883.2,259.8L881.2,259.9L877.3,257.5L871.6,254.6L868.1,252.2L857.9,248.9L854.1,246.4L850.6,243.4L846.9,241.8L842.7,243.5L838.4,244.6L832.7,244.2L827.1,242.2L825.2,244.8L824.7,248.3L822.6,251.2L816.8,252.8L815.6,255.7L816.6,259.9L823.0,264.9L833.0,268.6L839.4,274.7L847.3,278.2L857.7,279.0L861.2,275.0L868.0,275.3L878.9,277.9L890.2,279.5L899.1,280.3L901.8,277.1L901.8,273.5L898.9,268.7L899.7,265.4L898.3,251.2L897.1,246.6L893.2,245.3L888.9,244.5L884.9,244.8L884.1,249.0Z " data-id="TR.SI" data-name="Siirt" id="TR.SI"/>
utf-8utf-8<path d="M918.2,273.7L910.1,271.9L905.5,271.3L901.8,273.5L901.8,277.1L899.1,280.3L890.2,279.5L878.9,277.9L868.0,275.3L861.2,275.0L857.7,279.0L847.3,278.2L839.4,274.7L843.7,282.7L846.1,288.2L846.1,292.5L837.9,297.0L836.2,299.4L837.4,302.0L843.7,303.9L847.3,306.5L849.0,310.5L854.7,309.2L856.7,307.8L860.1,304.2L863.7,299.6L865.4,302.1L871.2,304.9L872.0,305.9L871.6,309.5L873.4,313.4L882.9,311.4L889.2,299.6L889.3,298.2L892.3,296.4L894.3,297.9L899.3,299.6L901.4,299.9L906.6,297.3L911.1,296.9L918.5,300.5L922.2,299.9L923.7,300.9L925.0,296.2L924.5,290.6L922.1,286.4L920.7,282.9L921.2,279.2L920.6,273.4L918.2,273.7Z " data-id="TR.SR" data-name="Sirnak" id="TR.SR"/>
utf-8utf-8<path d="M751.5,157.8L747.2,157.2L739.5,156.9L735.7,155.9L726.8,159.0L722.6,158.0L719.6,156.5L717.8,157.1L715.9,159.8L712.5,160.9L704.8,162.1L700.7,162.1L696.7,161.2L692.7,160.9L688.7,162.5L685.9,162.0L683.3,162.6L678.5,164.4L675.4,167.8L674.0,167.7L672.4,170.1L669.5,171.2L669.0,173.2L670.8,176.3L667.1,178.1L666.9,181.7L665.3,182.6L666.7,186.3L667.7,190.2L670.1,193.1L670.2,198.4L672.7,200.4L678.1,199.4L682.1,199.1L684.5,200.0L686.5,199.8L688.2,200.7L694.2,201.6L706.7,207.3L709.4,206.6L710.5,204.9L719.1,204.4L723.6,202.6L726.2,199.2L727.2,196.5L727.4,193.5L725.9,188.9L729.8,186.6L732.5,186.4L733.1,184.5L733.2,182.4L731.3,177.6L731.5,171.2L732.0,170.0L734.4,169.2L738.1,169.4L739.3,166.8L741.5,165.9L744.0,166.0L746.1,164.3L747.8,160.9L754.1,160.2L755.7,157.9L751.5,157.8Z " data-id="TR.TC" data-name="Tunceli" id="TR.TC"/>
utf-8utf-8<path d="M920.6,273.4L921.2,279.2L920.7,282.9L922.1,286.4L924.5,290.6L925.0,296.2L923.7,300.9L924.5,301.5L929.5,304.5L936.5,305.7L944.4,305.6L949.4,306.5L952.1,306.0L954.6,302.0L956.2,300.4L961.3,300.5L966.6,302.5L969.7,305.3L971.1,309.6L968.4,312.2L968.4,314.8L972.8,321.9L976.1,321.9L977.3,317.7L981.5,316.3L986.5,311.2L990.8,309.0L996.3,309.7L998.3,311.3L998.4,310.1L996.9,306.6L998.7,303.7L998.6,301.7L993.9,298.4L992.3,296.1L990.4,296.3L984.7,291.8L985.1,289.8L984.0,281.9L981.5,279.9L981.4,277.9L983.5,274.5L978.2,270.5L974.7,271.2L971.9,267.8L970.7,265.7L962.3,264.3L961.2,262.9L961.2,262.4L956.6,261.9L952.9,262.7L951.4,266.2L950.6,269.7L948.1,271.4L944.9,272.1L941.5,272.0L939.2,271.2L927.6,273.3L920.6,273.4Z " data-id="TR.HK" data-name="Hakkari" id="TR.HK"/>
utf-8utf-8<path d="M884.8,186.0L885.7,190.8L887.8,194.1L894.4,197.6L897.0,200.7L896.3,205.4L893.1,208.2L890.7,211.0L887.1,217.9L885.7,221.6L882.8,223.8L877.8,226.8L877.0,230.5L880.7,238.4L880.6,240.6L882.0,243.8L884.9,244.8L888.9,244.5L893.2,245.3L897.1,246.6L898.3,251.2L899.7,265.4L898.9,268.7L901.8,273.5L905.5,271.3L910.1,271.9L918.2,273.7L920.6,273.4L927.6,273.3L939.2,271.2L941.5,272.0L944.9,272.1L948.1,271.4L950.6,269.7L951.4,266.2L952.9,262.7L956.6,261.9L961.2,262.4L961.3,262.2L961.8,260.1L961.6,257.6L963.7,252.1L965.8,249.9L965.2,248.7L967.0,243.5L966.2,240.4L969.9,235.7L969.2,233.7L966.7,231.9L964.5,233.0L959.7,223.7L958.7,220.5L958.3,216.6L955.8,213.0L955.3,204.4L954.8,202.5L950.0,199.6L946.6,191.8L947.7,190.4L947.6,185.0L946.9,183.4L940.7,179.9L940.5,177.7L937.9,171.9L937.6,171.3L930.6,173.1L920.0,171.1L915.7,173.6L909.3,172.8L906.7,171.4L903.3,168.4L899.4,166.9L895.4,166.7L893.5,168.3L892.0,170.7L886.2,172.3L886.1,174.2L890.4,176.1L891.1,178.0L891.4,182.4L890.4,183.7L884.8,186.0Z " data-id="TR.VA" data-name="Van" id="TR.VA"/>
utf-8utf-8<path d="M886.4,59.3L885.4,57.8L880.6,55.5L874.7,56.8L870.9,52.5L867.3,52.1L869.8,50.8L870.8,49.0L869.3,48.9L860.6,43.9L857.2,40.1L852.4,36.7L848.6,37.1L847.1,36.4L848.0,31.8L840.8,31.3L838.3,31.5L835.8,33.6L835.8,36.1L833.5,40.2L832.6,40.9L832.0,40.9L834.2,47.0L837.0,51.4L839.2,55.7L838.6,59.8L834.8,61.8L831.1,66.2L829.0,72.1L830.9,76.8L834.3,80.5L838.1,83.4L839.6,85.8L843.9,89.7L845.9,92.3L851.6,91.2L857.6,90.6L857.8,86.2L857.2,78.8L857.5,74.0L863.0,71.1L878.4,64.6L883.1,61.9L886.2,60.9L886.4,59.3Z " data-id="TR.AR" data-name="Ardahan" id="TR.AR"/>
utf-8utf-8<path d="M909.3,122.7L902.9,124.9L896.7,125.8L894.2,127.0L894.6,129.4L893.1,131.5L894.9,135.1L895.4,139.5L896.5,141.9L899.4,143.2L902.2,141.0L905.5,139.7L912.7,142.4L916.2,146.6L921.1,148.7L924.5,149.4L925.5,151.2L930.4,152.0L935.3,151.3L939.4,152.5L943.4,152.9L952.2,151.0L955.3,152.0L955.2,151.3L954.7,148.5L959.4,144.3L960.6,143.9L964.1,147.2L967.4,148.5L969.8,147.0L965.9,143.0L964.2,142.4L958.8,138.0L955.2,133.7L951.8,131.3L944.0,127.4L942.0,126.9L933.9,128.1L933.1,127.5L929.2,129.0L922.9,128.1L916.8,125.2L911.8,123.9L909.3,122.7Z " data-id="TR.IG" data-name="Iğdir" id="TR.IG"/>
utf-8utf-8<path d="M579.5,331.5L589.6,334.8L595.0,335.7L599.2,339.3L600.7,344.3L601.8,344.9L604.2,342.9L606.9,343.3L611.3,342.4L620.0,343.9L622.1,343.9L625.8,341.4L620.8,337.5L611.6,332.8L610.1,333.8L607.6,331.2L602.7,326.9L598.4,324.2L594.8,323.6L592.7,319.9L590.7,318.9L589.2,320.2L589.3,324.5L586.1,326.9L582.0,328.9L579.5,331.5Z " data-id="TR.KI" data-name="Kilis" id="TR.KI"/>
utf-8utf-8<path d="M548.7,277.5L543.9,277.8L542.1,281.8L537.6,296.7L538.2,301.7L540.4,306.3L545.0,306.9L548.2,312.6L547.9,315.9L546.9,319.8L549.1,319.5L555.9,319.5L558.3,320.2L562.5,323.2L565.1,323.3L567.6,323.0L568.6,320.6L570.3,318.8L573.3,314.2L575.4,308.7L577.0,305.7L579.0,303.0L576.3,299.8L571.2,295.9L569.1,295.4L560.1,297.6L559.1,296.6L557.1,298.0L554.2,295.5L553.4,291.2L551.0,288.0L551.2,286.0L553.4,282.5L552.7,277.5L548.7,277.5Z " data-id="TR.OS" data-name="Osmaniye" id="TR.OS"/>
utf-8utf-8<path d="M174.5,86.8L167.7,88.1L152.8,89.4L148.7,92.7L143.6,95.1L142.9,97.0L145.8,97.6L150.6,100.2L153.4,100.8L153.9,100.6L153.0,93.9L158.2,94.5L166.3,97.7L169.5,97.0L172.4,93.9L175.7,94.5L175.8,92.1L175.1,86.6L175.1,86.6L174.5,86.8Z " data-id="TR.YL" data-name="Yalova" id="TR.YL"/>
utf-8utf-8<path d="M280.6,63.8L271.3,59.9L269.2,58.2L269.2,58.2L268.1,59.2L266.6,60.2L260.6,61.8L256.7,62.2L249.8,62.4L250.6,66.1L248.1,68.6L246.8,72.3L248.9,77.6L248.4,79.4L250.3,82.4L249.5,84.3L253.9,85.7L262.1,85.5L268.2,87.7L273.1,87.2L276.7,84.5L277.9,80.0L277.7,76.7L279.9,75.0L291.0,73.0L293.1,70.2L293.2,64.9L280.6,63.8Z " data-id="TR.DU" data-name="Düzce" id="TR.DU"/>
utf-8utf-8<path d="M356.9,60.9L355.6,59.5L352.8,58.4L349.9,58.0L347.9,51.4L348.1,49.3L349.9,46.4L352.3,44.0L357.1,43.1L355.2,40.1L353.0,34.7L348.9,32.2L342.3,33.7L340.3,32.0L336.1,36.1L333.4,36.9L331.8,41.4L326.3,46.1L321.1,47.3L315.5,47.1L313.3,50.6L311.8,52.5L311.4,55.8L310.5,60.8L311.2,66.3L313.8,66.3L318.2,67.2L318.4,70.6L330.1,75.6L332.4,78.9L332.5,80.5L337.5,78.2L342.9,73.8L344.7,69.7L346.5,68.7L351.5,69.2L356.1,66.7L357.5,61.7L356.9,60.9Z " data-id="TR.KB" data-name="Karabük" id="TR.KB"/>
utf-8utf-8<path d="M339.2,27.6L342.2,25.5L337.8,18.3L336.8,14.6L335.4,14.7L328.8,15.6L326.0,17.6L325.2,17.2L319.4,20.3L318.4,21.4L310.9,23.2L307.3,28.3L306.7,29.8L305.4,30.6L308.6,33.2L311.8,34.4L315.8,41.9L315.5,47.1L321.1,47.3L326.3,46.1L331.8,41.4L333.4,36.9L336.1,36.1L340.3,32.0L339.2,27.6Z " data-id="TR.BR" data-name="Bartın" id="TR.BR"/>
utf-8</g>
</svg>
