<?xml version="1.0" ?>
<!DOCTYPE svg
  PUBLIC '-//W3C//DTD SVG 1.1//EN'
  'http://www.w3.org/Graphics/SVG/1.1/DTD/svg11.dtd'>
<svg enable_background="new 0 0 1000 860" height="860px" pretty_print="True" style="stroke-linejoin: round; stroke:#000; fill: none;" version="1.1" viewBox="0 0 1000 860" width="1000px" xmlns="http://www.w3.org/2000/svg" xmlns:xlink="http://www.w3.org/1999/xlink">
utf-8<defs>
utf-8utf-8<style type="text/css">
<![CDATA[path { fill-rule: evenodd; }]]>utf-8utf-8</style>
utf-8</defs>
utf-8<metadata>
utf-8utf-8<views>
utf-8utf-8utf-8<view h="860.327250273" padding="0" w="1000">
utf-8utf-8utf-8utf-8<proj flip="auto" id="robinson" lon0="-61.5708109266"/>
utf-8utf-8utf-8utf-8<bbox h="13.47" w="15.67" x="-913.06" y="-181.86"/>
utf-8utf-8utf-8</view>
utf-8utf-8</views>
utf-8</metadata>
utf-8<g class="" id="provinces">
utf-8utf-8<path d="M202.7,162.8L193.9,161.7L189.2,166.2L187.7,170.0L185.0,183.4L185.0,187.8L190.3,186.8L198.0,187.1L200.2,183.7L194.8,179.5L193.7,175.9L196.1,172.8L199.0,171.5L201.4,172.1L207.5,176.4L209.7,172.8L202.7,162.8Z M256.2,178.4L257.5,174.9L264.6,170.9L264.8,163.8L266.2,158.8L264.8,154.6L258.0,154.5L250.6,157.8L242.6,176.1L244.9,178.2L253.8,180.0L256.2,178.4Z M447.9,96.9L424.4,96.5L380.6,107.9L342.3,104.2L329.3,110.2L278.7,148.0L284.0,160.4L288.4,166.2L294.2,168.3L341.9,171.9L361.8,176.7L387.9,190.4L391.8,188.5L402.3,179.4L410.1,178.8L423.8,181.1L442.0,148.3L448.5,123.6L448.0,101.3L447.9,96.9L447.9,96.9Z " data-id="TT.DM" data-name="Diego Martin" id="TT.DM"/>
utf-8utf-8<path d="M400.1,829.0L406.6,789.3L410.5,777.6L415.7,768.6L428.2,753.1L433.0,742.7L437.8,723.2L439.0,704.8L436.8,697.2L432.4,687.3L421.1,679.0L396.6,653.7L392.9,646.7L392.9,646.7L355.8,648.2L307.7,638.8L293.5,639.0L281.2,646.1L280.5,678.3L280.0,678.8L281.6,681.2L286.3,687.0L288.6,692.1L287.2,697.8L278.1,711.1L274.0,718.3L267.9,727.3L247.0,746.2L236.2,750.2L227.2,751.1L216.7,730.7L213.9,726.0L213.9,726.0L209.4,728.4L135.8,752.7L119.7,761.3L104.5,773.8L93.9,789.8L87.4,796.6L56.7,803.0L46.2,806.6L41.5,810.6L10.4,828.5L0.6,842.9L20.1,858.3L36.5,858.1L56.1,849.8L74.9,837.6L89.2,825.5L106.7,816.3L129.1,813.4L210.5,813.5L229.7,816.1L246.9,821.9L257.4,828.8L265.6,836.0L274.7,841.5L287.9,843.8L297.4,842.6L316.1,837.6L326.7,836.4L354.0,824.3L362.9,821.9L400.1,829.0Z " data-id="TT.SI" data-name="Siparia" id="TT.SI"/>
utf-8utf-8<path d="M647.2,253.0L650.1,251.7L651.7,247.6L651.8,241.1L648.4,226.1L647.5,218.7L634.8,204.4L633.3,214.0L634.3,219.6L632.0,223.6L631.5,225.3L631.5,231.2L630.2,237.2L628.6,239.6L624.9,243.3L623.7,249.2L625.9,250.9L634.4,254.0L642.7,254.2L647.2,253.0Z " data-id="TT.TP" data-name="Arima" id="TT.TP"/>
utf-8utf-8<path d="M749.5,44.2L753.1,47.5L761.4,62.3L761.9,71.8L761.2,81.3L755.4,87.1L747.1,91.6L740.8,96.4L724.5,115.8L718.9,120.3L710.3,123.3L683.5,126.2L681.5,130.4L685.4,132.4L690.1,134.2L696.0,134.6L699.9,136.8L704.7,141.7L705.2,150.6L703.9,169.5L699.1,185.7L701.3,203.3L704.5,210.9L711.0,221.3L712.7,227.8L712.4,235.5L710.5,243.3L704.2,251.6L699.9,258.3L675.1,271.2L685.0,281.1L688.3,292.6L688.9,337.6L691.4,346.3L698.3,354.9L697.3,371.9L688.4,395.9L688.5,405.1L689.7,409.8L707.7,415.6L804.0,401.5L857.1,407.8L854.8,388.3L855.7,358.3L884.1,332.1L881.8,300.5L866.7,235.5L867.1,204.8L873.7,172.8L885.8,152.4L903.1,155.9L955.7,87.4L999.4,8.7L960.8,0.0L838.3,15.3L821.0,23.3L765.9,30.8L749.5,44.2L749.5,44.2Z " data-id="TT.SN" data-name="Sangre Grande" id="TT.SN"/>
utf-8utf-8<path d="M707.7,415.6L693.9,441.6L688.6,462.8L680.1,523.9L671.1,553.1L656.6,575.1L662.3,599.0L668.1,603.8L671.1,612.9L679.0,614.7L687.2,626.9L701.3,657.4L707.2,822.9L707.2,822.9L716.9,821.9L759.7,810.5L781.4,801.5L798.6,789.1L815.9,773.1L837.9,758.3L860.9,750.6L880.9,755.5L876.5,701.2L879.8,638.7L894.2,583.5L922.9,550.6L889.3,522.9L873.8,494.9L868.1,481.3L864.0,466.7L857.1,407.8L804.0,401.5L707.7,415.6Z " data-id="TT.MR" data-name="Rio Claro-Mayaro" id="TT.MR"/>
utf-8utf-8<path d="M506.2,216.6L507.8,190.0L503.4,143.0L506.3,124.5L512.0,113.8L520.2,111.1L545.1,115.1L551.1,114.5L558.1,112.3L565.0,112.8L581.0,117.1L586.8,115.1L593.1,107.1L594.8,95.2L588.0,77.5L582.2,50.8L579.6,44.0L566.4,45.2L560.1,51.0L541.2,74.4L533.1,82.3L531.4,81.7L513.3,82.3L510.8,84.8L506.9,89.9L501.2,94.8L493.3,96.9L500.7,89.0L498.3,84.9L496.2,82.6L494.8,79.7L494.4,74.4L488.6,74.4L488.4,85.4L487.9,89.0L480.9,89.0L476.7,75.8L471.7,80.2L464.0,90.9L451.9,96.9L447.9,96.9L448.0,101.3L448.5,123.6L442.0,148.3L423.8,181.1L436.7,189.0L440.0,197.0L441.3,201.6L436.4,224.0L442.6,228.9L435.4,235.5L456.3,267.6L464.0,306.8L462.9,328.2L462.9,328.2L464.4,328.2L484.1,299.5L513.6,298.1L506.2,216.6Z " data-id="TT.SL" data-name="San Juan-Laventille" id="TT.SL"/>
utf-8utf-8<path d="M648.7,566.2L637.5,560.8L630.0,558.2L622.2,554.0L610.3,550.4L594.1,547.4L567.2,547.9L535.4,554.6L502.6,569.8L483.6,572.0L468.3,626.4L514.1,649.3L523.9,659.9L530.7,670.9L517.8,825.4L555.6,829.2L616.0,815.9L636.8,813.9L694.0,824.4L707.2,822.9L701.3,657.4L687.2,626.9L679.0,614.7L671.1,612.9L668.1,603.8L662.3,599.0L656.6,575.1L648.7,566.2Z " data-id="TT.PT" data-name="Princes Town" id="TT.PT"/>
utf-8utf-8<path d="M689.7,409.8L688.5,405.1L688.4,395.9L697.3,371.9L698.3,354.9L691.4,346.3L688.9,337.6L688.3,292.6L685.0,281.1L675.1,271.2L647.7,280.8L607.1,282.7L593.7,286.1L581.8,292.0L570.0,292.7L560.9,290.6L556.4,290.6L551.8,299.0L555.0,321.7L547.4,346.4L545.7,357.0L538.9,363.7L514.8,365.6L503.5,361.6L496.8,355.0L487.9,353.1L481.2,348.1L475.1,346.4L462.0,344.8L461.8,348.8L453.6,389.4L439.6,422.6L433.2,443.6L434.6,459.0L437.7,466.3L442.2,487.3L442.7,495.6L441.0,498.7L437.7,499.4L435.1,501.0L435.2,506.8L437.9,511.5L445.7,519.3L447.2,525.0L448.8,545.1L452.7,562.4L453.8,572.3L453.8,572.3L458.6,573.8L483.6,572.0L502.6,569.8L535.4,554.6L567.2,547.9L594.1,547.4L610.3,550.4L622.2,554.0L630.0,558.2L637.5,560.8L648.7,566.2L656.6,575.1L671.1,553.1L680.1,523.9L688.6,462.8L693.9,441.6L707.7,415.6L689.7,409.8Z " data-id="TT.CT" data-name="Couva-Tabaquite-Talparo" id="TT.CT"/>
utf-8utf-8<path d="M468.3,626.4L423.2,638.3L422.3,636.9L417.1,641.4L406.2,646.1L395.7,646.5L392.9,646.7L396.6,653.7L421.1,679.0L432.4,687.3L436.8,697.2L439.0,704.8L437.8,723.2L433.0,742.7L428.2,753.1L415.7,768.6L410.5,777.6L406.6,789.3L400.1,829.0L400.1,829.0L401.1,829.2L481.9,821.9L517.8,825.4L530.7,670.9L523.9,659.9L514.1,649.3L468.3,626.4Z " data-id="TT.PD" data-name="Penal-Debe" id="TT.PD"/>
utf-8utf-8<path d="M280.0,678.8L250.8,706.6L213.9,726.0L216.7,730.7L227.2,751.1L236.2,750.2L247.0,746.2L267.9,727.3L274.0,718.3L278.1,711.1L287.2,697.8L288.6,692.1L286.3,687.0L281.6,681.2L280.0,678.8L280.0,678.8Z " data-id="TT.PF" data-name="Point Fortin" id="TT.PF"/>
utf-8utf-8<path d="M741.2,51.0L632.3,50.5L582.9,43.7L579.6,44.0L579.6,44.0L582.2,50.8L588.0,77.5L594.8,95.2L593.1,107.1L586.8,115.1L581.0,117.1L565.0,112.8L558.1,112.3L551.1,114.5L545.1,115.1L520.2,111.1L512.0,113.8L506.3,124.5L503.4,143.0L507.8,190.0L506.2,216.6L513.6,298.1L551.8,299.0L556.4,290.6L560.9,290.6L570.0,292.7L581.8,292.0L593.7,286.1L607.1,282.7L647.7,280.8L675.1,271.2L699.9,258.3L704.2,251.6L710.5,243.3L712.4,235.5L712.7,227.8L711.0,221.3L704.5,210.9L701.3,203.3L699.1,185.7L703.9,169.5L705.2,150.6L704.7,141.7L699.9,136.8L696.0,134.6L690.1,134.2L685.4,132.4L681.5,130.4L683.5,126.2L710.3,123.3L718.9,120.3L724.5,115.8L740.8,96.4L747.1,91.6L755.4,87.1L761.2,81.3L761.9,71.8L761.4,62.3L753.1,47.5L749.5,44.2L741.2,51.0Z M647.2,253.0L642.7,254.2L634.4,254.0L625.9,250.9L623.7,249.2L624.9,243.3L628.6,239.6L630.2,237.2L631.5,231.2L631.5,225.3L632.0,223.6L634.3,219.6L633.3,214.0L634.8,204.4L647.5,218.7L648.4,226.1L651.8,241.1L651.7,247.6L650.1,251.7L647.2,253.0Z " data-id="TT.TP" data-name="Tunapuna/Piarco" id="TT.TP"/>
utf-8utf-8<path d="M483.6,572.0L458.6,573.8L453.8,572.3L454.6,580.3L450.0,601.7L442.2,615.5L430.1,630.0L422.3,636.9L423.2,638.3L468.3,626.4L483.6,572.0Z " data-id="TT.SF" data-name="San Fernando" id="TT.SF"/>
utf-8utf-8<path d="M513.6,298.1L484.1,299.5L464.4,328.2L462.9,328.2L462.9,328.2L462.0,344.8L475.1,346.4L481.2,348.1L487.9,353.1L496.8,355.0L503.5,361.6L514.8,365.6L538.9,363.7L545.7,357.0L547.4,346.4L555.0,321.7L551.8,299.0L513.6,298.1Z " data-id="TT.CH" data-name="Chaguanas" id="TT.CH"/>
utf-8utf-8<path d="M410.1,178.8L402.3,179.4L391.8,188.5L387.9,190.4L387.9,190.4L406.5,200.2L436.4,224.0L441.3,201.6L440.0,197.0L436.7,189.0L423.8,181.1L410.1,178.8Z " data-id="TT.PS" data-name="Port of Spain" id="TT.PS"/>
utf-8</g>
</svg>
