<?xml version="1.0" ?>
<!DOCTYPE svg
  PUBLIC '-//W3C//DTD SVG 1.1//EN'
  'http://www.w3.org/Graphics/SVG/1.1/DTD/svg11.dtd'>
<svg enable_background="new 0 0 1000 1384" height="1384px" pretty_print="True" style="stroke-linejoin: round; stroke:#000; fill: none;" version="1.1" viewBox="0 0 1000 1384" width="1000px" xmlns="http://www.w3.org/2000/svg" xmlns:xlink="http://www.w3.org/1999/xlink">
utf-8<defs>
utf-8utf-8<style type="text/css">
<![CDATA[path { fill-rule: evenodd; }]]>utf-8utf-8</style>
utf-8</defs>
utf-8<metadata>
utf-8utf-8<views>
utf-8utf-8utf-8<view h="1384.20718923" padding="0" w="1000">
utf-8utf-8utf-8utf-8<proj flip="auto" id="robinson" lon0="120.651373816"/>
utf-8utf-8utf-8utf-8<bbox h="71.55" w="51.73" x="1706.69" y="-438.85"/>
utf-8utf-8utf-8</view>
utf-8utf-8</views>
utf-8</metadata>
utf-8<g class="" id="provinces">
utf-8utf-8<path d="M833.5,883.7L827.7,877.2L821.0,874.6L816.2,873.4L798.7,884.1L791.3,891.8L789.0,899.5L785.7,905.1L778.5,910.0L771.4,916.9L767.9,923.0L756.5,931.3L750.4,931.9L743.0,931.1L740.0,935.1L740.9,940.7L743.5,945.9L746.1,953.4L746.1,953.4L745.2,960.9L737.5,978.0L730.7,997.3L725.7,1006.7L719.4,1015.0L713.8,1021.1L708.7,1028.4L704.6,1036.3L702.6,1042.3L701.3,1048.5L695.6,1053.5L689.3,1056.5L686.1,1059.4L682.0,1061.1L672.8,1060.0L664.2,1061.0L647.1,1058.4L641.5,1055.7L635.1,1045.3L629.3,1049.5L634.6,1065.0L635.9,1067.2L640.0,1072.7L641.1,1075.4L645.2,1079.4L645.4,1082.1L644.6,1086.2L645.1,1089.5L647.2,1094.7L654.4,1106.2L661.3,1114.9L665.4,1121.4L668.3,1128.0L668.0,1132.6L666.7,1137.9L669.5,1143.2L674.1,1148.1L685.5,1157.6L692.5,1164.4L698.1,1172.6L701.3,1181.0L684.4,1163.5L701.0,1183.0L717.2,1194.6L722.9,1193.7L725.9,1194.9L730.1,1171.6L727.9,1162.3L723.3,1153.7L721.9,1145.6L723.2,1121.5L721.2,1110.8L719.1,1102.8L720.1,1093.8L719.9,1085.7L720.7,1080.2L739.9,1081.4L747.8,1078.2L753.0,1070.1L762.0,1065.0L777.4,1072.5L783.1,1065.8L790.4,1063.8L800.4,1073.9L807.9,1080.2L815.5,1072.5L820.0,1072.3L825.7,1073.3L825.8,1073.3L829.8,1072.8L827.3,1067.2L819.4,1060.0L815.2,1054.7L811.9,1045.5L812.2,1034.4L819.7,1026.2L822.9,1019.6L820.4,1006.9L820.7,991.9L816.1,980.7L815.5,972.9L822.5,968.4L824.2,962.8L820.4,956.0L820.1,949.5L827.2,943.9L830.5,939.4L836.4,934.8L852.2,930.5L851.2,927.6L846.5,919.0L838.6,913.2L831.9,909.1L829.9,904.6L830.6,901.0L836.0,898.2L838.0,892.6L834.7,886.0L833.5,883.7Z " data-id="TW.KH.KC" data-name="Kaohsiung City" id="TW.KH.KC"/>
utf-8utf-8<path d="M722.4,1236.2L719.6,1236.7L717.4,1240.8L716.5,1243.9L718.2,1247.6L720.8,1244.6L725.1,1240.6L722.4,1236.2Z M871.0,1274.3L866.2,1274.7L854.3,1269.4L848.4,1263.8L843.7,1257.0L841.8,1250.2L840.7,1243.7L836.4,1238.6L832.4,1236.7L828.6,1232.3L828.2,1227.1L829.6,1222.6L834.6,1219.0L836.4,1214.7L830.2,1208.3L826.3,1202.6L825.1,1196.5L822.5,1188.4L819.0,1181.5L816.3,1174.1L813.9,1157.4L815.5,1148.9L818.0,1141.4L819.0,1133.9L823.8,1128.8L831.6,1126.9L836.1,1123.8L845.5,1119.1L846.5,1113.5L845.6,1107.6L845.4,1092.0L838.7,1087.8L832.8,1086.3L830.9,1080.8L825.8,1073.3L825.7,1073.3L820.0,1072.3L815.5,1072.5L807.9,1080.2L800.4,1073.9L790.4,1063.8L783.1,1065.8L777.4,1072.5L762.0,1065.0L753.0,1070.1L747.8,1078.2L739.9,1081.4L720.7,1080.2L719.9,1085.7L720.1,1093.8L719.1,1102.8L721.2,1110.8L723.2,1121.5L721.9,1145.6L723.3,1153.7L727.9,1162.3L730.1,1171.6L725.9,1194.9L726.3,1195.1L729.0,1196.7L735.0,1201.5L740.5,1205.1L752.2,1210.5L757.5,1213.8L760.3,1219.5L766.8,1222.9L776.8,1230.2L779.6,1233.5L786.4,1244.7L793.8,1252.5L796.1,1255.8L828.5,1314.6L828.5,1318.1L826.7,1322.1L826.7,1325.7L830.7,1346.8L838.6,1357.3L838.7,1365.3L839.5,1368.0L844.0,1371.6L847.9,1372.5L849.8,1369.8L848.7,1362.3L857.6,1364.5L866.7,1368.6L875.0,1374.4L881.3,1382.2L880.4,1375.4L876.9,1365.0L875.0,1355.4L878.5,1351.2L881.5,1348.4L882.9,1341.6L883.0,1333.2L871.0,1274.3Z " data-id="TW.TW.PT" data-name="Pingtung" id="TW.TW.PT"/>
utf-8utf-8<path d="M587.8,1011.6L587.7,1010.5L581.9,1004.5L581.8,1006.0L584.6,1010.7L587.4,1013.0L587.8,1011.6Z M582.2,980.3L582.5,973.2L581.8,973.0L580.6,988.1L582.2,980.3Z M582.9,965.8L585.6,956.7L584.5,954.7L582.9,965.8Z M584.6,940.4L583.6,931.3L583.0,931.2L584.6,940.4Z M589.5,929.1L594.0,931.9L591.5,932.6L590.2,934.6L588.6,944.7L588.6,947.3L589.7,949.9L587.8,952.8L586.9,960.4L589.1,964.0L590.8,968.5L590.0,971.4L584.9,974.0L585.1,978.5L588.8,982.2L594.2,986.3L595.6,989.3L587.3,989.4L587.7,991.6L598.2,994.2L600.0,996.0L599.6,999.5L596.6,1000.6L592.7,1001.1L589.9,1002.9L589.2,1005.5L589.3,1009.4L590.8,1013.3L594.5,1016.1L597.2,1015.3L598.6,1012.0L600.5,1009.7L605.2,1011.7L606.7,1014.5L607.7,1022.4L609.6,1025.0L613.1,1025.1L614.4,1022.1L614.8,1018.2L615.7,1016.1L622.6,1017.2L624.9,1023.1L623.5,1030.0L619.2,1033.8L624.2,1038.3L626.9,1042.4L629.3,1049.5L629.3,1049.5L635.1,1045.3L641.5,1055.7L647.1,1058.4L664.2,1061.0L672.8,1060.0L682.0,1061.1L686.1,1059.4L689.3,1056.5L695.6,1053.5L701.3,1048.5L702.6,1042.3L704.6,1036.3L708.7,1028.4L713.8,1021.1L719.4,1015.0L725.7,1006.7L730.7,997.3L737.5,978.0L745.2,960.9L746.1,953.4L737.0,952.3L732.8,951.0L727.6,951.8L722.5,954.5L718.5,954.4L712.9,950.5L710.2,945.3L708.8,929.3L706.0,920.7L693.2,909.3L690.2,903.5L687.0,898.8L682.2,896.0L674.0,893.4L665.1,893.9L649.6,897.1L642.2,901.1L636.7,906.2L632.8,911.6L626.9,917.5L621.6,921.5L620.1,927.1L614.1,930.3L606.0,928.2L596.3,926.7L590.3,924.5L589.5,929.1Z " data-id="TW.TW.TN" data-name="Tainan City" id="TW.TW.TN"/>
utf-8utf-8<path d="M731.6,468.3L732.6,462.0L735.2,457.2L740.7,454.5L746.0,453.5L748.1,452.0L748.2,447.9L745.4,443.8L740.3,439.5L733.8,436.3L716.6,430.9L706.9,426.9L706.9,426.9L705.6,428.9L704.7,432.3L708.1,438.7L706.2,443.8L703.1,456.5L703.0,461.1L711.0,464.1L716.1,467.0L719.9,471.3L725.0,473.2L729.6,472.0L729.7,471.7L731.6,468.3Z " data-id="TW.TW.HS" data-name="Hsinchu City" id="TW.TW.HS"/>
utf-8utf-8<path d="M858.7,508.1L850.0,503.5L845.0,500.2L838.9,499.2L831.4,495.0L825.0,490.6L823.3,485.7L826.6,478.4L826.6,469.8L823.1,461.6L821.5,456.0L817.2,453.1L812.0,450.6L808.1,445.6L803.6,441.6L799.6,442.0L795.4,441.2L791.3,437.7L786.1,434.3L778.6,432.0L774.0,427.8L773.7,421.3L768.9,416.6L761.1,414.1L756.2,411.9L751.3,410.5L745.5,408.3L739.1,398.6L733.4,395.2L719.2,396.2L715.6,395.0L715.6,395.0L714.2,398.7L713.4,405.5L714.0,410.2L711.5,411.1L709.3,413.5L707.8,416.7L708.0,424.3L707.0,426.8L706.9,426.9L716.6,430.9L733.8,436.3L740.3,439.5L745.4,443.8L748.2,447.9L748.1,452.0L746.0,453.5L740.7,454.5L735.2,457.2L732.6,462.0L731.6,468.3L729.7,471.7L737.2,484.1L742.4,489.1L749.9,494.2L764.2,500.6L769.1,504.3L771.3,510.2L771.9,514.6L771.6,522.0L775.4,529.7L775.2,534.9L775.5,540.6L780.1,541.7L787.7,539.3L794.8,538.8L800.0,539.4L812.5,535.8L818.8,540.2L821.3,545.2L825.6,548.8L832.4,557.6L834.2,563.1L834.9,562.4L845.9,561.3L849.1,562.2L851.1,550.4L862.4,534.5L865.0,528.0L863.3,523.1L863.5,517.8L864.3,510.5L858.7,508.1Z " data-id="TW.TW.HH" data-name="Hsinchu" id="TW.TW.HH"/>
utf-8utf-8<path d="M993.1,426.9L990.4,428.8L989.3,428.5L991.9,431.5L993.5,432.3L997.6,432.5L997.7,429.9L995.5,427.4L993.1,426.9Z M991.5,383.6L990.4,382.3L986.4,380.2L980.4,381.6L972.7,386.6L969.5,389.3L958.2,391.9L957.5,395.2L961.1,399.1L960.3,403.4L956.2,406.7L952.8,408.0L949.4,410.2L947.0,414.8L945.0,420.4L940.6,424.5L934.5,426.6L922.3,435.6L909.8,441.6L906.3,444.1L902.3,448.6L901.6,454.1L902.8,458.8L905.6,464.6L902.2,467.7L895.9,471.3L891.6,475.2L888.4,478.9L883.6,480.9L877.9,482.7L874.9,483.7L870.2,488.1L876.6,502.0L875.2,506.3L871.9,507.7L868.3,507.0L864.5,508.8L864.3,510.5L863.5,517.8L863.3,523.1L865.0,528.0L862.4,534.5L851.1,550.4L849.1,562.2L853.2,563.3L853.9,569.6L856.3,573.7L861.8,574.9L867.1,577.8L871.6,580.6L875.6,580.0L880.2,577.4L885.3,577.4L892.7,582.7L895.8,585.0L903.5,588.5L920.4,592.8L929.9,596.3L936.9,596.3L941.0,591.3L942.0,584.6L945.8,583.6L968.1,596.0L981.5,597.9L981.2,597.6L979.7,595.8L980.8,590.9L979.8,583.8L979.9,580.1L981.2,574.6L979.1,566.8L978.5,563.3L984.0,554.2L989.7,550.1L991.8,547.5L990.4,544.3L988.0,541.3L986.4,538.0L986.3,535.2L991.8,531.4L991.2,525.1L988.2,517.8L984.1,512.2L985.8,510.7L988.3,509.7L991.5,509.4L995.0,509.7L994.6,507.7L986.1,506.2L978.2,501.6L973.0,494.7L970.8,485.6L971.3,481.2L970.5,476.7L963.1,459.4L960.9,451.1L959.5,442.5L959.2,433.9L959.9,426.4L961.8,421.0L975.8,395.5L980.4,390.2L991.5,383.6Z " data-id="TW.TW.IL" data-name="Yilan" id="TW.TW.IL"/>
utf-8utf-8<path d="M908.5,330.1L904.0,328.5L901.8,326.6L900.7,325.5L899.0,324.4L895.1,327.7L888.3,331.2L885.5,333.6L886.9,336.8L890.9,340.9L893.6,344.9L897.5,348.7L902.3,352.6L906.0,355.0L918.3,359.9L924.0,360.7L927.8,359.0L930.0,356.9L929.8,354.2L924.8,349.8L923.9,346.5L921.1,333.1L908.5,330.1Z " data-id="TW.TW.CL" data-name="Keelung City" id="TW.TW.CL"/>
utf-8utf-8<path d="M729.6,472.0L725.0,473.2L719.9,471.3L716.1,467.0L711.0,464.1L703.0,461.1L702.9,462.6L699.6,464.6L698.6,473.1L695.6,477.3L693.7,481.5L696.1,487.6L688.1,486.1L682.6,487.7L678.5,491.5L675.2,496.4L673.8,502.1L672.3,504.5L665.6,506.8L664.7,509.8L664.5,516.8L660.8,528.5L659.9,534.7L660.6,542.1L659.6,546.7L653.9,555.7L653.9,555.7L667.2,571.7L673.4,577.3L681.4,583.5L700.1,596.0L708.8,600.0L716.0,601.3L729.9,608.8L742.7,608.1L747.5,605.0L746.7,596.7L751.7,593.0L762.3,593.8L769.3,596.6L776.0,602.8L782.3,605.2L790.5,599.9L797.1,596.7L807.1,586.3L812.6,582.7L816.3,577.8L820.1,574.4L825.7,574.6L830.4,572.3L830.9,566.0L834.2,563.1L832.4,557.6L825.6,548.8L821.3,545.2L818.8,540.2L812.5,535.8L800.0,539.4L794.8,538.8L787.7,539.3L780.1,541.7L775.5,540.6L775.2,534.9L775.4,529.7L771.6,522.0L771.9,514.6L771.3,510.2L769.1,504.3L764.2,500.6L749.9,494.2L742.4,489.1L737.2,484.1L729.7,471.7L729.6,472.0Z " data-id="TW.TW.ML" data-name="Miaoli" id="TW.TW.ML"/>
utf-8utf-8<path d="M893.9,386.9L899.5,376.2L900.5,371.5L895.7,367.9L890.2,365.0L888.7,359.3L888.7,352.0L885.8,347.0L880.8,343.1L875.6,331.9L870.4,324.3L869.0,320.5L868.7,316.4L865.9,314.0L861.5,312.6L857.8,314.8L855.3,317.6L845.5,324.8L842.8,329.3L841.7,334.4L839.5,340.4L844.6,345.1L852.2,351.3L855.0,358.3L855.3,366.6L861.2,374.1L868.5,379.1L873.6,384.0L878.4,387.6L883.7,388.8L889.9,388.9L893.9,386.9Z " data-id="TW.TP.TC" data-name="Taipei City" id="TW.TP.TC"/>
utf-8utf-8<path d="M790.6,339.3L796.3,344.4L803.7,347.8L809.5,351.2L813.7,354.4L818.2,355.5L823.3,358.0L830.6,366.3L832.2,370.9L832.2,375.5L829.6,379.4L816.7,383.7L813.9,388.2L815.7,395.2L816.0,401.6L818.5,407.3L825.4,413.0L827.8,418.7L828.1,426.3L834.3,429.5L842.0,429.0L847.9,431.3L859.9,445.1L859.7,450.9L857.3,455.1L859.5,460.9L862.4,467.2L874.0,476.6L877.9,482.7L883.6,480.9L888.4,478.9L891.6,475.2L895.9,471.3L902.2,467.7L905.6,464.6L902.8,458.8L901.6,454.1L902.3,448.6L906.3,444.1L909.8,441.6L922.3,435.6L934.5,426.6L940.6,424.5L945.0,420.4L947.0,414.8L949.4,410.2L952.8,408.0L956.2,406.7L960.3,403.4L961.1,399.1L957.5,395.2L958.2,391.9L969.5,389.3L972.7,386.6L980.4,381.6L986.4,380.2L990.4,382.3L991.5,383.6L999.6,378.7L996.8,375.9L992.4,373.8L987.7,372.5L983.8,372.1L976.6,373.3L974.1,372.2L970.3,367.7L965.5,358.0L963.4,352.2L963.1,348.9L963.8,344.8L959.9,342.5L921.1,333.1L923.9,346.5L924.8,349.8L929.8,354.2L930.0,356.9L927.8,359.0L924.0,360.7L918.3,359.9L906.0,355.0L902.3,352.6L897.5,348.7L893.6,344.9L890.9,340.9L886.9,336.8L885.5,333.6L888.3,331.2L895.1,327.7L899.0,324.4L896.1,322.6L894.7,321.2L894.0,318.8L895.3,314.4L892.8,313.7L885.9,315.5L880.1,307.1L865.8,291.4L860.2,287.6L848.4,286.2L837.4,289.0L828.5,294.4L823.1,301.1L821.3,307.6L820.4,313.3L816.5,317.1L816.3,320.1L820.0,322.2L827.7,328.8L833.0,335.1L829.7,336.7L827.7,335.0L825.7,331.9L823.0,329.0L819.0,327.6L811.7,329.2L806.6,334.9L802.0,337.0L790.6,339.3L790.6,339.3Z M841.7,334.4L842.8,329.3L845.5,324.8L855.3,317.6L857.8,314.8L861.5,312.6L865.9,314.0L868.7,316.4L869.0,320.5L870.4,324.3L875.6,331.9L880.8,343.1L885.8,347.0L888.7,352.0L888.7,359.3L890.2,365.0L895.7,367.9L900.5,371.5L899.5,376.2L893.9,386.9L889.9,388.9L883.7,388.8L878.4,387.6L873.6,384.0L868.5,379.1L861.2,374.1L855.3,366.6L855.0,358.3L852.2,351.3L844.6,345.1L839.5,340.4L841.7,334.4Z M971.9,175.0L968.9,173.3L970.1,176.6L971.9,175.0Z " data-id="TW.TW.TP" data-name="New Taipei City" id="TW.TW.TP"/>
utf-8utf-8<path d="M874.0,476.6L862.4,467.2L859.5,460.9L857.3,455.1L859.7,450.9L859.9,445.1L847.9,431.3L842.0,429.0L834.3,429.5L828.1,426.3L827.8,418.7L825.4,413.0L818.5,407.3L816.0,401.6L815.7,395.2L813.9,388.2L816.7,383.7L829.6,379.4L832.2,375.5L832.2,370.9L830.6,366.3L823.3,358.0L818.2,355.5L813.7,354.4L809.5,351.2L803.7,347.8L796.3,344.4L790.6,339.3L770.3,343.3L761.6,346.9L757.5,349.7L754.4,353.3L750.6,356.3L732.6,363.1L726.6,369.9L721.4,379.1L715.6,395.0L719.2,396.2L733.4,395.2L739.1,398.6L745.5,408.3L751.3,410.5L756.2,411.9L761.1,414.1L768.9,416.6L773.7,421.3L774.0,427.8L778.6,432.0L786.1,434.3L791.3,437.7L795.4,441.2L799.6,442.0L803.6,441.6L808.1,445.6L812.0,450.6L817.2,453.1L821.5,456.0L823.1,461.6L826.6,469.8L826.6,478.4L823.3,485.7L825.0,490.6L831.4,495.0L838.9,499.2L845.0,500.2L850.0,503.5L858.7,508.1L864.3,510.5L864.5,508.8L868.3,507.0L871.9,507.7L875.2,506.3L876.6,502.0L870.2,488.1L874.9,483.7L877.9,482.7L874.0,476.6Z " data-id="TW.TW.TY" data-name="Taoyuan" id="TW.TW.TY"/>
utf-8utf-8<path d="M696.8,695.4L690.1,691.4L685.4,690.5L683.3,686.7L682.3,682.3L679.2,677.8L674.6,672.2L669.2,668.2L655.7,664.2L649.7,658.1L646.8,649.6L642.4,642.4L637.3,638.5L630.7,636.4L621.9,651.3L619.6,654.2L619.3,657.3L621.1,668.6L620.6,672.1L616.1,676.6L615.5,679.7L615.6,683.0L610.0,687.7L607.5,691.1L605.7,696.4L603.4,714.6L600.9,723.3L599.9,732.0L598.4,735.2L592.4,742.9L591.9,746.2L591.8,754.2L591.4,755.8L600.5,760.8L623.2,757.8L631.3,758.3L638.8,760.3L652.1,765.3L673.6,767.8L687.9,774.6L694.1,774.5L707.3,777.2L708.3,776.4L710.4,774.6L712.5,772.1L716.2,770.3L716.4,766.3L709.8,763.2L705.4,761.6L700.7,757.8L697.1,750.7L694.8,735.6L694.5,728.2L693.3,721.8L693.7,715.7L694.8,710.6L693.2,706.0L693.8,702.7L698.0,701.0L697.1,697.0L696.8,695.4Z " data-id="TW.TW.CG" data-name="Changhua" id="TW.TW.CG"/>
utf-8utf-8<path d="M587.6,926.6L589.6,920.9L587.7,920.8L587.2,923.4L585.4,926.9L586.0,928.1L587.6,926.6Z M587.2,912.3L587.5,907.3L586.2,911.5L587.2,912.3Z M590.3,902.1L589.8,897.6L589.2,897.2L590.3,902.1Z M589.5,891.2L588.1,890.7L589.1,893.0L589.5,891.2Z M586.8,884.3L584.7,883.4L586.5,885.8L586.8,884.3Z M555.3,885.4L561.9,879.1L565.1,874.8L567.4,870.7L571.1,865.7L577.3,849.1L574.8,850.0L566.7,865.2L555.1,881.1L552.4,887.3L555.3,885.4Z M581.4,868.8L590.4,868.2L587.3,874.2L586.9,877.1L585.5,879.4L585.5,881.4L589.1,883.0L589.5,885.3L588.3,889.4L594.6,898.5L600.8,910.3L591.3,910.5L589.9,916.9L590.7,920.6L595.4,921.3L597.4,919.5L599.0,923.1L597.4,922.5L594.3,924.2L590.3,924.5L596.3,926.7L606.0,928.2L614.1,930.3L620.1,927.1L621.6,921.5L626.9,917.5L632.8,911.6L636.7,906.2L642.2,901.1L649.6,897.1L665.1,893.9L674.0,893.4L682.2,896.0L687.0,898.8L690.2,903.5L693.2,909.3L706.0,920.7L708.8,929.3L710.2,945.3L712.9,950.5L718.5,954.4L722.5,954.5L727.6,951.8L732.8,951.0L737.0,952.3L746.1,953.4L746.1,953.4L743.5,945.9L740.9,940.7L740.0,935.1L743.0,931.1L750.4,931.9L756.5,931.3L767.9,923.0L771.4,916.9L778.5,910.0L785.7,905.1L789.0,899.5L791.3,891.8L798.7,884.1L816.2,873.4L815.1,873.2L787.9,873.0L779.5,871.5L777.5,867.1L775.7,860.5L771.4,853.2L769.0,847.8L770.9,841.9L770.1,836.0L764.0,832.8L759.3,831.5L751.5,828.5L744.9,827.8L744.4,827.7L746.0,837.2L742.1,838.7L730.2,841.4L723.6,842.1L720.2,837.6L714.4,833.9L706.1,836.6L702.3,837.2L687.8,832.0L681.2,825.3L674.5,820.1L667.2,820.5L654.4,823.2L647.2,825.4L632.1,836.0L629.0,840.3L624.8,843.0L618.7,849.4L613.2,850.4L611.7,853.7L611.1,859.3L607.6,862.8L601.1,862.8L591.2,857.5L579.2,859.0L581.4,868.8Z M653.5,862.5L663.0,860.7L671.2,859.9L677.7,862.3L682.5,864.8L686.0,869.3L690.3,877.0L687.6,879.4L683.0,880.1L676.4,883.2L668.2,881.3L659.7,876.2L652.7,873.5L650.5,867.1L653.5,862.5Z " data-id="TW.TW.CH" data-name="Chiayi" id="TW.TW.CH"/>
utf-8utf-8<path d="M683.0,880.1L687.6,879.4L690.3,877.0L686.0,869.3L682.5,864.8L677.7,862.3L671.2,859.9L663.0,860.7L653.5,862.5L650.5,867.1L652.7,873.5L659.7,876.2L668.2,881.3L676.4,883.2L683.0,880.1Z " data-id="TW.TW.CS" data-name="Chiayi City" id="TW.TW.CS"/>
utf-8utf-8<path d="M892.7,582.7L889.0,588.1L889.5,592.8L888.5,599.7L881.7,605.1L879.7,610.6L879.6,616.4L877.3,620.6L874.1,622.6L873.3,624.9L870.8,627.2L870.8,627.2L873.8,634.2L874.9,638.3L870.0,641.0L863.5,643.5L860.3,646.7L862.9,657.9L866.7,661.4L873.0,665.2L875.7,670.3L876.3,674.6L870.3,686.3L867.5,698.3L866.8,706.9L869.8,710.7L872.8,715.7L873.9,724.2L874.7,735.4L873.5,745.3L871.4,754.9L870.4,762.8L871.0,767.0L867.2,777.6L870.4,782.1L874.7,786.7L877.3,792.8L880.0,800.9L880.6,810.3L880.2,824.6L879.6,830.3L875.7,833.9L868.2,837.0L865.2,842.8L865.7,852.5L861.2,857.8L853.4,858.1L845.9,860.0L841.3,864.3L840.7,868.9L839.7,871.9L842.9,878.9L840.3,882.1L834.7,886.0L838.0,892.6L836.0,898.2L830.6,901.0L829.9,904.6L831.9,909.1L838.6,913.2L846.5,919.0L851.2,927.6L852.2,930.5L855.0,938.8L862.3,948.0L871.2,951.2L878.3,954.4L884.7,959.9L891.7,960.9L898.0,962.6L911.4,980.7L926.1,991.7L935.1,993.0L941.1,988.8L940.7,981.7L939.0,974.1L941.0,967.3L943.1,952.3L945.2,943.6L945.8,934.1L947.2,926.6L949.6,920.7L951.9,912.9L949.7,905.1L946.3,897.4L949.1,891.2L959.4,885.3L963.3,886.5L963.3,886.5L960.1,814.1L962.9,803.0L962.0,757.9L964.7,738.6L964.2,720.3L963.1,713.1L963.0,709.1L965.5,702.7L965.8,698.6L965.0,695.0L960.0,689.8L956.8,683.9L955.5,678.6L956.0,673.6L961.2,661.4L961.3,647.7L962.8,640.9L964.9,638.2L970.7,632.5L971.3,630.8L970.0,628.5L971.1,626.2L975.1,622.1L979.6,612.3L984.4,606.0L985.3,603.3L984.8,602.1L981.5,597.9L981.5,597.9L968.1,596.0L945.8,583.6L942.0,584.6L941.0,591.3L936.9,596.3L929.9,596.3L920.4,592.8L903.5,588.5L895.8,585.0L892.7,582.7Z " data-id="TW.TW.HL" data-name="Hualien" id="TW.TW.HL"/>
utf-8utf-8<path d="M856.3,625.8L851.1,624.6L846.2,624.9L835.5,629.9L829.1,631.0L822.6,631.3L814.4,636.5L809.9,637.4L805.2,640.7L798.7,649.2L793.8,651.4L786.8,651.2L782.8,655.7L781.3,661.8L777.8,662.8L766.7,655.3L764.0,657.4L759.7,666.1L753.4,666.4L742.3,664.7L736.2,668.2L734.3,677.7L729.7,693.9L725.6,699.2L721.3,700.0L701.6,697.1L697.1,697.0L698.0,701.0L693.8,702.7L693.2,706.0L694.8,710.6L693.7,715.7L693.3,721.8L694.5,728.2L694.8,735.6L697.1,750.7L700.7,757.8L705.4,761.6L709.8,763.2L716.4,766.3L716.2,770.3L712.5,772.1L710.4,774.6L708.3,776.4L712.0,784.6L711.0,789.9L711.5,798.0L714.4,806.6L713.6,812.5L714.0,819.0L719.3,824.3L726.0,827.1L732.8,824.8L741.3,823.8L744.9,827.8L751.5,828.5L759.3,831.5L764.0,832.8L770.1,836.0L770.9,841.9L769.0,847.8L771.4,853.2L775.7,860.5L777.5,867.1L779.5,871.5L787.9,873.0L815.1,873.2L816.2,873.4L821.0,874.6L827.7,877.2L833.5,883.7L834.7,886.0L840.3,882.1L842.9,878.9L839.7,871.9L840.7,868.9L841.3,864.3L845.9,860.0L853.4,858.1L861.2,857.8L865.7,852.5L865.2,842.8L868.2,837.0L875.7,833.9L879.6,830.3L880.2,824.6L880.6,810.3L880.0,800.9L877.3,792.8L874.7,786.7L870.4,782.1L867.2,777.6L871.0,767.0L870.4,762.8L871.4,754.9L873.5,745.3L874.7,735.4L873.9,724.2L872.8,715.7L869.8,710.7L866.8,706.9L867.5,698.3L870.3,686.3L876.3,674.6L875.7,670.3L873.0,665.2L866.7,661.4L862.9,657.9L860.3,646.7L863.5,643.5L870.0,641.0L874.9,638.3L873.8,634.2L870.8,627.2L856.3,625.8Z " data-id="TW.TW.NT" data-name="Nantou" id="TW.TW.NT"/>
utf-8utf-8<path d="M830.9,566.0L830.4,572.3L825.7,574.6L820.1,574.4L816.3,577.8L812.6,582.7L807.1,586.3L797.1,596.7L790.5,599.9L782.3,605.2L776.0,602.8L769.3,596.6L762.3,593.8L751.7,593.0L746.7,596.7L747.5,605.0L742.7,608.1L729.9,608.8L716.0,601.3L708.8,600.0L700.1,596.0L681.4,583.5L673.4,577.3L667.2,571.7L653.9,555.7L643.4,572.3L641.2,578.4L640.7,589.6L634.7,607.7L634.8,621.5L634.0,628.7L631.2,631.8L630.7,636.4L630.7,636.4L637.3,638.5L642.4,642.4L646.8,649.6L649.7,658.1L655.7,664.2L669.2,668.2L674.6,672.2L679.2,677.8L682.3,682.3L683.3,686.7L685.4,690.5L690.1,691.4L696.8,695.4L697.1,697.0L701.6,697.1L721.3,700.0L725.6,699.2L729.7,693.9L734.3,677.7L736.2,668.2L742.3,664.7L753.4,666.4L759.7,666.1L764.0,657.4L766.7,655.3L777.8,662.8L781.3,661.8L782.8,655.7L786.8,651.2L793.8,651.4L798.7,649.2L805.2,640.7L809.9,637.4L814.4,636.5L822.6,631.3L829.1,631.0L835.5,629.9L846.2,624.9L851.1,624.6L856.3,625.8L870.8,627.2L870.8,627.2L873.3,624.9L874.1,622.6L877.3,620.6L879.6,616.4L879.7,610.6L881.7,605.1L888.5,599.7L889.5,592.8L889.0,588.1L892.7,582.7L885.3,577.4L880.2,577.4L875.6,580.0L871.6,580.6L867.1,577.8L861.8,574.9L856.3,573.7L853.9,569.6L853.2,563.3L849.1,562.2L845.9,561.3L834.9,562.4L834.2,563.1L830.9,566.0Z " data-id="TW.TW.TG" data-name="Taichung City" id="TW.TW.TG"/>
utf-8utf-8<path d="M707.3,777.2L694.1,774.5L687.9,774.6L673.6,767.8L652.1,765.3L638.8,760.3L631.3,758.3L623.2,757.8L600.5,760.8L591.4,755.8L590.8,757.6L585.9,762.5L585.0,767.3L580.4,776.4L579.7,779.8L579.3,789.7L580.3,801.0L577.5,809.7L576.8,820.8L578.9,834.6L582.9,853.2L579.2,859.0L591.2,857.5L601.1,862.8L607.6,862.8L611.1,859.3L611.7,853.7L613.2,850.4L618.7,849.4L624.8,843.0L629.0,840.3L632.1,836.0L647.2,825.4L654.4,823.2L667.2,820.5L674.5,820.1L681.2,825.3L687.8,832.0L702.3,837.2L706.1,836.6L714.4,833.9L720.2,837.6L723.6,842.1L730.2,841.4L742.1,838.7L746.0,837.2L744.4,827.7L744.9,827.8L741.3,823.8L732.8,824.8L726.0,827.1L719.3,824.3L714.0,819.0L713.6,812.5L714.4,806.6L711.5,798.0L711.0,789.9L712.0,784.6L708.3,776.4L707.3,777.2Z " data-id="TW.TW.YL" data-name="Yunlin" id="TW.TW.YL"/>
utf-8utf-8<path d="M963.3,886.5L959.4,885.3L949.1,891.2L946.3,897.4L949.7,905.1L951.9,912.9L949.6,920.7L947.2,926.6L945.8,934.1L945.2,943.6L943.1,952.3L941.0,967.3L939.0,974.1L940.7,981.7L941.1,988.8L935.1,993.0L926.1,991.7L911.4,980.7L898.0,962.6L891.7,960.9L884.7,959.9L878.3,954.4L871.2,951.2L862.3,948.0L855.0,938.8L852.2,930.5L836.4,934.8L830.5,939.4L827.2,943.9L820.1,949.5L820.4,956.0L824.2,962.8L822.5,968.4L815.5,972.9L816.1,980.7L820.7,991.9L820.4,1006.9L822.9,1019.6L819.7,1026.2L812.2,1034.4L811.9,1045.5L815.2,1054.7L819.4,1060.0L827.3,1067.2L829.8,1072.8L825.8,1073.3L830.9,1080.8L832.8,1086.3L838.7,1087.8L845.4,1092.0L845.6,1107.6L846.5,1113.5L845.5,1119.1L836.1,1123.8L831.6,1126.9L823.8,1128.8L819.0,1133.9L818.0,1141.4L815.5,1148.9L813.9,1157.4L816.3,1174.1L819.0,1181.5L822.5,1188.4L825.1,1196.5L826.3,1202.6L830.2,1208.3L836.4,1214.7L834.6,1219.0L829.6,1222.6L828.2,1227.1L828.6,1232.3L832.4,1236.7L836.4,1238.6L840.7,1243.7L841.8,1250.2L843.7,1257.0L848.4,1263.8L854.3,1269.4L866.2,1274.7L871.0,1274.3L867.5,1257.6L865.8,1239.3L866.0,1232.8L872.5,1213.8L873.9,1194.7L873.2,1180.7L875.4,1173.9L881.7,1162.5L883.4,1156.8L886.0,1141.5L887.6,1138.4L890.1,1136.8L899.0,1123.3L913.8,1111.1L917.8,1106.0L921.5,1099.1L923.0,1095.2L923.6,1091.5L923.1,1088.4L921.1,1081.2L921.0,1078.2L923.6,1073.9L935.8,1060.6L936.5,1057.5L944.1,1040.7L945.0,1034.0L945.2,1019.2L948.4,1009.6L948.9,1003.0L949.5,1000.5L951.2,998.0L955.5,994.0L957.2,991.6L960.1,980.3L959.0,969.4L956.5,957.9L955.5,945.0L956.3,938.0L958.0,932.5L963.3,921.8L964.6,916.3L963.3,886.5Z " data-id="TW.TW.TT" data-name="Taitung" id="TW.TW.TT"/>
utf-8utf-8<path d="M405.0,964.3L406.2,961.8L406.5,956.3L403.4,955.4L399.7,956.9L399.0,958.3L401.6,963.6L403.3,965.3L405.0,964.3Z M401.1,950.7L398.5,947.2L394.9,946.7L393.9,947.9L394.8,950.8L397.5,953.5L400.0,954.2L401.1,950.7Z M452.3,947.1L454.3,946.9L453.0,944.6L450.4,944.9L452.3,947.1Z M466.0,941.9L468.0,947.4L468.8,942.1L466.0,941.9Z M463.9,941.3L463.3,942.2L464.3,942.7L463.9,941.3Z M422.2,939.6L421.3,938.5L420.5,940.5L422.2,939.6Z M365.9,922.9L365.6,922.1L365.1,922.4L365.9,922.9Z M423.7,908.4L423.7,906.9L421.9,905.9L418.8,908.6L419.2,910.5L423.7,908.4Z M413.3,900.8L411.8,900.0L408.1,895.8L406.4,896.2L405.4,902.0L406.5,904.6L409.3,903.2L410.5,907.9L409.7,911.4L411.5,912.2L415.0,912.6L416.4,911.9L416.6,906.6L413.9,903.5L413.3,900.8Z M359.4,894.3L358.5,897.3L359.9,898.6L362.0,897.9L359.4,894.3Z M416.0,866.4L413.0,865.7L409.3,868.0L407.2,867.4L407.4,870.1L408.8,870.7L413.7,868.3L416.0,866.4Z M430.2,834.7L430.5,829.7L425.9,831.5L419.1,836.8L414.9,836.2L415.5,840.7L416.7,845.2L418.2,843.0L420.2,845.5L427.3,849.7L424.2,852.9L419.9,854.3L415.5,853.3L411.9,849.7L411.1,852.5L417.4,858.0L422.9,860.1L427.9,859.3L432.3,856.3L434.7,847.8L437.6,847.4L441.3,844.9L444.4,845.5L447.5,847.4L450.0,849.7L449.9,846.3L447.6,841.7L440.7,832.0L439.6,835.0L433.9,834.8L429.9,836.2L430.2,834.7Z M389.9,845.2L391.0,844.1L399.2,842.5L397.6,836.2L398.6,826.7L399.6,822.6L401.9,820.9L396.6,816.8L394.0,820.2L393.0,832.0L394.0,837.3L393.8,839.6L386.2,842.9L386.0,845.2L389.9,845.2Z M421.7,825.1L422.7,822.5L420.9,818.5L422.9,815.8L420.8,812.5L416.8,809.4L412.9,807.4L407.9,812.0L413.5,816.9L416.3,820.2L418.0,824.1L419.6,825.8L421.7,825.1Z M417.5,790.7L419.0,788.0L421.1,786.6L421.1,784.5L416.9,782.8L416.3,785.2L414.8,786.8L417.1,791.4L417.5,790.7Z " data-id="TW.TW.PH" data-name="Penghu" id="TW.TW.PH"/>
utf-8utf-8<path d="M45.1,539.6L36.0,532.4L28.5,534.1L27.3,540.2L28.3,550.0L21.1,551.0L8.9,543.6L0.4,548.8L1.1,551.2L4.0,555.8L6.8,565.7L4.4,571.1L6.2,573.4L8.9,574.6L11.8,574.8L16.5,576.9L19.6,575.0L22.3,568.2L28.7,563.1L37.1,562.2L42.9,564.0L51.1,568.8L54.1,563.6L53.1,553.8L45.1,539.6Z M296.3,385.6L296.7,383.2L296.0,381.0L294.1,380.7L291.9,382.3L292.0,385.8L293.7,387.2L296.3,385.6Z " data-id="TW.FK.KM" data-name="Kinmen" id="TW.FK.KM"/>
utf-8utf-8<path d="M364.3,65.0L363.3,66.5L360.5,65.9L359.5,72.1L363.2,69.8L364.7,67.6L364.3,65.0Z M351.5,64.1L353.3,62.9L350.0,61.3L346.6,62.7L350.0,66.5L351.5,64.1Z M329.7,0.0L328.6,0.2L328.1,2.4L328.3,5.5L329.8,8.1L332.9,10.0L334.6,9.7L339.6,6.5L341.7,3.0L341.2,1.0L338.3,1.0L334.3,3.8L330.0,1.5L329.7,0.0Z " data-id="TW.FK.LK" data-name="Lienchiang" id="TW.FK.LK"/>
utf-8</g>
</svg>
