<?xml version="1.0" ?>
<!DOCTYPE svg
  PUBLIC '-//W3C//DTD SVG 1.1//EN'
  'http://www.w3.org/Graphics/SVG/1.1/DTD/svg11.dtd'>
<svg enable_background="new 0 0 1000 1138" height="1138px" pretty_print="True" style="stroke-linejoin: round; stroke:#000; fill: none;" version="1.1" viewBox="0 0 1000 1138" width="1000px" xmlns="http://www.w3.org/2000/svg" xmlns:xlink="http://www.w3.org/1999/xlink">
utf-8<defs>
utf-8utf-8<style type="text/css">
<![CDATA[path { fill-rule: evenodd; }]]>utf-8utf-8</style>
utf-8</defs>
utf-8<metadata>
utf-8utf-8<views>
utf-8utf-8utf-8<view h="1138.01737078" padding="0" w="1000">
utf-8utf-8utf-8utf-8<proj flip="auto" id="robinson" lon0="33.7451918468"/>
utf-8utf-8utf-8utf-8<bbox h="180.18" w="158.47" x="437.76" y="16.53"/>
utf-8utf-8utf-8</view>
utf-8utf-8</views>
utf-8</metadata>
utf-8<g class="" id="provinces">
utf-8utf-8<path d="M339.7,631.1L332.3,629.2L325.9,624.3L318.3,621.8L310.3,623.9L307.3,625.1L305.1,627.4L301.9,629.6L297.8,629.1L295.5,630.2L294.3,632.9L288.2,643.7L285.7,645.7L279.4,647.0L272.9,646.8L268.0,649.8L246.7,658.0L246.4,669.2L242.5,680.7L239.0,688.2L229.4,692.3L226.0,697.9L222.2,706.5L219.5,715.5L221.0,719.3L245.8,734.0L262.8,747.0L267.1,752.0L287.9,784.3L288.5,791.3L285.0,790.5L281.4,791.1L277.6,790.7L270.0,779.6L269.6,773.4L268.3,770.8L268.7,767.6L268.4,765.5L266.0,764.2L254.1,773.2L248.4,773.4L244.9,778.0L244.4,784.1L245.9,789.8L245.2,801.7L238.1,811.7L232.6,815.4L220.9,820.1L218.9,824.3L223.1,827.5L226.3,831.4L224.4,834.4L231.6,842.0L232.7,846.3L230.3,847.7L230.9,854.7L231.8,855.2L235.1,859.1L240.8,861.7L252.9,861.4L256.6,862.5L259.9,865.0L260.9,866.5L262.6,871.3L265.2,874.6L268.7,874.9L276.6,876.9L283.3,877.5L284.4,878.2L286.8,882.9L289.7,883.2L294.0,886.4L300.9,889.4L302.3,890.4L307.3,887.6L309.0,888.6L313.5,893.9L319.1,898.9L325.5,901.3L329.6,899.4L331.5,900.1L337.4,899.3L342.5,903.5L344.2,905.3L345.7,909.2L349.9,913.0L353.8,913.3L356.7,912.5L361.2,910.0L364.4,910.4L367.2,911.4L372.0,911.5L374.5,910.0L377.5,909.0L380.0,910.8L382.3,913.5L389.5,918.1L391.6,920.2L393.7,923.2L395.3,920.6L396.7,919.6L398.9,910.1L397.3,905.4L398.7,902.8L403.7,897.7L406.9,899.1L409.7,901.2L410.1,897.8L406.5,893.5L402.9,892.4L400.2,888.1L395.3,878.2L393.3,875.1L393.1,871.8L392.2,870.4L389.0,869.6L389.6,867.4L391.6,866.2L390.1,861.5L388.1,857.0L385.1,853.0L384.6,847.9L390.2,838.1L394.1,834.3L399.2,833.1L406.0,835.8L408.6,834.8L409.6,831.8L414.4,829.6L419.8,830.2L425.2,830.1L434.5,827.5L443.4,828.9L448.2,828.8L452.6,826.9L455.9,823.0L458.5,817.4L461.5,815.1L465.1,813.6L468.1,814.0L470.2,812.4L472.7,805.5L473.9,798.6L472.5,795.0L470.6,791.7L469.2,787.4L471.2,783.0L474.0,778.5L477.5,774.9L481.4,773.4L484.8,770.5L487.3,766.0L490.9,757.2L493.2,754.1L498.3,752.3L502.5,748.8L504.8,745.3L502.3,742.4L498.1,740.7L493.6,741.1L491.2,740.6L491.6,737.9L490.7,734.7L465.6,730.2L461.6,728.7L458.3,726.0L444.5,722.3L439.8,721.8L396.4,724.3L392.8,723.8L391.6,720.7L392.4,716.4L394.2,712.5L396.8,708.7L399.0,704.6L401.7,697.8L403.6,695.3L405.0,692.3L403.5,690.4L401.2,688.6L397.0,686.4L393.2,683.3L389.8,681.8L389.6,677.4L388.0,673.0L387.7,670.2L386.6,667.7L381.3,665.9L376.0,656.7L372.8,653.1L368.8,651.4L366.7,647.2L366.1,641.5L364.8,636.0L362.8,632.5L360.0,629.8L339.7,631.1Z " data-id="TZ.MB" data-name="Mbeya" id="TZ.MB"/>
utf-8utf-8<path d="M200.3,715.3L185.1,713.0L173.0,710.7L171.3,695.7L169.5,679.6L168.7,668.1L163.7,661.2L148.5,660.0L135.4,658.9L131.4,652.0L131.6,642.8L127.7,628.9L119.7,625.5L99.4,626.6L89.2,630.1L87.8,631.2L87.9,631.2L89.0,633.4L88.9,637.7L87.0,640.2L87.2,646.6L85.9,647.5L83.3,647.5L81.7,646.2L81.1,647.5L83.6,649.8L84.5,651.7L84.5,656.4L87.2,661.2L91.0,670.9L91.5,675.0L89.8,683.0L90.8,683.9L88.7,689.5L94.3,698.8L96.2,703.9L100.6,706.9L102.3,711.3L103.3,712.0L108.1,728.3L111.3,732.0L111.9,735.7L117.5,743.6L118.5,751.5L121.4,751.8L123.0,757.2L122.5,759.0L121.3,757.6L121.7,761.2L123.4,769.3L126.8,771.3L128.8,775.8L130.5,776.4L132.1,779.3L137.6,783.2L139.3,786.6L138.1,793.2L138.1,797.1L140.9,799.3L142.4,802.9L144.7,802.9L148.4,807.3L151.1,806.7L158.3,803.6L159.1,804.2L160.0,807.5L161.2,808.4L165.1,808.5L166.5,809.4L169.9,813.0L173.5,814.2L175.3,815.9L175.9,818.6L175.8,822.6L176.4,827.1L178.5,830.3L187.3,838.1L188.9,838.8L195.9,836.1L198.0,835.9L211.8,840.1L210.0,844.4L209.9,849.6L211.7,853.8L215.6,854.9L220.4,852.1L222.8,852.5L225.4,854.3L229.9,854.1L230.9,854.7L230.3,847.7L232.7,846.3L231.6,842.0L224.4,834.4L226.3,831.4L223.1,827.5L218.9,824.3L220.9,820.1L232.6,815.4L238.1,811.7L245.2,801.7L245.9,789.8L244.4,784.1L244.9,778.0L248.4,773.4L254.1,773.2L266.0,764.2L268.4,765.5L268.7,767.6L268.3,770.8L269.6,773.4L270.0,779.6L277.6,790.7L281.4,791.1L285.0,790.5L288.5,791.3L287.9,784.3L267.1,752.0L262.8,747.0L245.8,734.0L221.0,719.3L200.3,715.3Z " data-id="TZ.RK" data-name="Rukwa" id="TZ.RK"/>
utf-8utf-8<path d="M904.8,556.9L907.6,562.0L910.0,564.9L910.0,568.5L913.2,566.7L911.8,562.7L914.0,562.0L913.7,563.5L915.4,572.6L918.8,577.9L922.2,579.0L925.6,577.8L928.0,574.6L928.5,570.0L925.7,564.1L924.3,548.6L923.5,545.6L922.0,543.2L922.0,550.9L918.1,551.0L918.0,552.5L915.5,549.8L914.2,550.4L916.2,546.8L915.0,541.4L915.7,535.9L913.2,535.2L912.2,530.3L912.1,530.1L912.1,530.2L911.6,530.5L908.0,533.2L901.2,533.7L901.3,535.8L901.8,537.9L901.0,546.2L901.1,548.9L902.0,551.3L903.6,553.3L904.0,556.1L904.8,556.9Z " data-id="TZ.ZS" data-name="Zanzibar South and Central" id="TZ.ZS"/>
utf-8utf-8<path d="M268.9,136.5L268.5,135.3L266.0,143.4L267.7,145.5L269.0,151.2L270.0,151.7L272.8,149.7L273.8,150.0L276.7,146.1L275.7,145.2L278.0,139.7L276.9,137.1L274.2,137.4L274.8,141.2L272.2,141.5L271.3,140.4L271.6,136.0L268.9,136.5Z M242.9,162.3L247.7,164.1L250.6,168.6L266.3,171.6L261.2,182.3L277.4,193.0L275.0,201.0L283.0,208.7L274.7,233.9L276.7,237.0L277.5,240.9L276.7,246.8L276.7,252.2L280.0,255.0L287.4,260.2L290.9,260.3L291.0,257.4L288.8,257.0L288.4,253.6L290.5,246.7L293.2,246.9L295.9,245.5L297.4,242.1L299.3,240.9L301.7,241.6L307.5,239.9L312.9,245.2L314.4,249.1L316.9,251.3L319.9,252.4L330.4,258.7L336.6,255.4L340.2,247.6L343.5,246.3L347.0,247.2L351.0,246.6L354.7,245.4L359.8,241.9L362.2,234.3L364.5,231.8L365.8,228.5L366.5,223.5L369.2,214.3L370.1,210.1L367.3,198.2L368.7,195.5L370.9,194.9L373.9,191.4L376.1,190.6L378.7,188.8L385.1,190.9L388.7,187.7L392.2,187.1L394.1,185.0L394.4,182.0L392.2,177.2L388.0,174.2L383.7,172.0L376.3,164.0L369.3,154.7L367.2,154.6L365.6,153.3L360.1,156.6L360.4,157.7L364.2,160.3L361.0,165.7L357.9,164.7L357.8,163.1L354.4,163.4L353.3,162.7L352.3,160.3L351.9,161.8L350.1,160.6L347.8,161.3L341.8,162.0L337.3,158.8L337.4,157.3L332.3,151.2L332.3,149.5L328.7,148.3L321.2,147.4L317.7,148.3L314.3,150.5L312.1,153.6L312.4,157.0L309.4,157.7L311.9,163.5L311.8,165.8L308.5,170.8L308.4,172.5L312.2,179.3L309.8,180.3L309.7,181.7L312.2,184.5L313.4,187.5L316.0,188.9L316.6,190.4L314.0,194.0L319.1,196.9L321.7,196.6L323.0,197.6L322.9,200.5L320.0,200.1L314.6,197.3L312.2,194.4L310.6,194.1L305.9,197.2L305.1,198.8L304.1,203.4L304.4,204.8L298.5,214.2L296.9,211.4L299.2,204.3L301.7,203.4L297.0,200.0L295.4,200.5L295.1,198.4L302.7,195.3L306.6,194.4L306.3,191.1L308.4,187.0L309.0,184.3L308.0,183.1L305.4,182.7L304.8,180.4L306.5,178.7L303.9,177.5L303.3,177.9L302.0,174.4L303.9,175.1L303.9,169.6L305.9,169.3L303.6,165.4L305.9,162.0L303.0,158.5L298.9,160.0L296.3,163.5L296.4,159.2L295.8,158.5L290.6,162.0L292.7,157.3L290.3,153.1L289.4,147.4L287.8,150.1L286.1,156.6L279.0,164.1L276.7,165.7L274.6,165.0L279.0,158.2L279.2,153.3L275.3,157.0L272.9,155.4L268.3,155.5L269.0,153.3L264.7,153.4L262.5,152.9L261.3,151.2L261.6,149.9L257.8,144.6L258.2,142.5L261.2,142.5L258.6,140.6L256.9,136.0L253.2,136.9L250.5,136.7L248.4,133.7L248.0,134.3L248.6,141.2L246.9,141.2L244.4,146.4L242.7,148.3L239.3,147.6L239.0,146.4L235.1,146.1L234.5,146.9L233.8,150.9L234.2,152.1L239.9,156.9L244.0,161.3L242.9,162.3Z M232.3,133.3L232.1,131.7L230.4,131.9L223.0,137.4L226.2,138.2L226.5,139.9L223.7,144.0L231.4,144.3L232.6,143.3L234.5,138.2L233.6,135.3L232.2,135.7L233.3,133.1L232.3,133.3Z M350.5,120.1L351.9,121.0L350.5,120.1L349.0,119.5L350.5,120.1Z M340.8,119.4L341.0,120.1L340.9,119.4L340.9,118.6L340.8,119.4Z M341.8,116.8L341.0,118.2L341.8,116.8L342.2,115.7L342.2,115.7L341.8,116.8Z M342.0,113.8L342.1,114.6L342.0,113.8L341.9,113.4L342.0,113.8Z M345.4,112.1L345.4,112.2L345.4,112.2L345.4,112.1Z M347.7,112.8L345.4,112.1L345.4,112.1L347.7,112.8L348.2,113.2L348.2,113.2L347.7,112.8Z M357.2,112.1L356.9,112.9L356.9,112.9L357.2,112.1L357.5,111.8L357.2,112.1Z M342.2,111.8L342.4,111.9L342.8,112.1L345.0,112.2L342.8,112.1L342.4,111.9L342.2,111.8Z M342.1,111.6L341.9,111.7L341.7,112.5L342.0,111.7L342.1,111.6L342.1,111.6Z M358.9,111.4L358.9,111.3L358.1,111.6L358.9,111.4Z M351.2,112.1L350.6,110.8L351.2,112.1L351.8,112.1L351.8,112.1L351.2,112.1Z M351.8,109.0L353.3,109.2L355.8,111.8L353.3,109.2L351.8,109.0Z M373.5,108.8L373.3,109.5L373.5,108.8L374.2,107.9L373.5,108.8Z M346.7,108.5L347.8,107.3L349.2,108.4L350.3,110.2L349.2,108.4L347.8,107.3L346.7,108.4L346.7,108.5Z M375.1,105.9L374.9,106.5L375.1,105.9L374.6,105.3L375.1,105.9Z M356.3,107.0L358.9,104.3L361.8,105.2L367.9,109.9L372.7,110.2L372.2,109.9L367.9,109.9L361.8,105.2L358.9,104.3L356.3,107.0L356.3,107.0Z M372.4,103.3L372.4,103.3L372.2,103.7L372.4,103.3Z M350.6,97.2L350.3,97.4L350.2,97.5L350.3,97.4L350.6,97.2L350.6,96.4L350.6,97.2Z M315.6,100.5L316.7,97.6L314.2,96.1L310.4,99.5L307.7,101.2L305.3,99.7L307.7,104.1L312.1,104.8L311.0,107.5L307.5,111.6L307.0,113.5L307.8,114.8L310.5,114.6L312.6,116.3L314.8,117.0L319.5,117.1L321.1,117.7L325.5,121.5L326.6,122.1L328.8,120.1L331.0,121.4L334.6,124.8L337.6,125.1L337.6,119.4L334.1,115.0L335.2,113.5L331.7,112.6L330.9,111.8L332.8,108.4L331.4,103.7L320.8,106.3L316.1,103.3L315.6,100.5Z M364.7,94.7L364.4,94.6L364.7,94.7L364.7,94.7Z M351.4,93.5L351.4,93.5L350.9,94.5L351.4,93.5Z M330.7,86.9L330.2,86.0L322.2,86.6L322.5,88.1L322.1,93.4L325.1,96.1L330.1,91.3L329.0,87.5L330.7,86.9Z " data-id="TZ.MW" data-name="Mwanza" id="TZ.MW"/>
utf-8utf-8<path d="M354.7,245.4L351.0,246.6L347.0,247.2L343.5,246.3L340.2,247.6L336.6,255.4L330.4,258.7L319.9,252.4L316.9,251.3L314.4,249.1L312.9,245.2L307.5,239.9L301.7,241.6L299.3,240.9L297.4,242.1L295.9,245.5L293.2,246.9L290.5,246.7L288.4,253.6L288.8,257.0L291.0,257.4L290.9,260.3L287.4,260.2L280.0,255.0L276.7,252.2L276.7,246.8L277.5,240.9L276.7,237.0L274.7,233.9L271.7,234.5L265.8,237.7L263.0,240.3L260.8,243.2L259.3,246.7L256.3,246.3L253.9,244.1L253.2,240.1L250.4,237.9L246.8,239.1L243.9,241.7L239.8,247.6L237.7,254.7L238.9,265.5L240.5,275.9L239.1,284.0L230.5,284.8L221.0,286.3L211.1,291.5L202.8,299.7L197.4,308.6L196.0,315.3L197.2,322.7L208.1,326.5L216.3,328.4L219.4,331.0L222.1,333.9L222.7,339.3L222.4,345.1L222.7,350.5L224.0,355.7L223.7,360.1L222.9,364.1L229.9,360.5L237.7,353.9L245.4,352.2L253.0,354.9L256.5,357.3L260.2,359.4L263.6,358.6L267.5,353.9L267.9,351.6L267.3,347.6L268.0,343.4L269.5,340.7L271.9,340.3L275.3,338.0L278.3,339.6L280.1,341.7L281.0,344.7L281.0,348.5L283.3,348.4L292.4,345.4L294.1,339.8L290.0,338.1L286.5,334.1L287.2,332.3L289.9,328.7L292.2,328.4L293.6,322.6L292.7,316.5L297.8,314.6L303.9,311.7L306.8,309.2L313.5,310.8L318.0,308.7L321.7,310.1L325.9,314.1L331.5,314.6L336.5,314.4L344.8,309.9L355.6,307.0L360.8,308.5L367.2,308.5L375.1,305.9L380.4,307.3L380.7,310.0L382.6,311.6L388.9,311.0L395.8,313.7L404.4,314.3L406.8,316.0L408.7,319.0L411.2,321.0L414.3,321.9L417.2,322.0L419.4,321.3L427.8,324.5L431.0,326.0L433.5,326.0L434.8,323.4L437.0,322.1L439.6,322.5L443.2,319.1L448.9,317.4L451.3,314.5L446.9,310.9L443.0,306.7L437.9,299.1L434.1,288.7L431.0,276.7L428.1,271.1L420.5,268.6L411.8,268.3L404.9,267.5L400.5,264.4L397.8,258.5L395.1,257.1L391.9,259.1L388.4,259.9L383.7,258.5L375.6,254.0L364.6,242.5L359.8,241.9L354.7,245.4Z " data-id="TZ.SH" data-name="Shinyanga" id="TZ.SH"/>
utf-8utf-8<path d="M437.0,322.1L434.8,323.4L433.5,326.0L431.0,326.0L427.8,324.5L419.4,321.3L417.2,322.0L414.3,321.9L411.2,321.0L408.7,319.0L406.8,316.0L404.4,314.3L395.8,313.7L388.9,311.0L382.6,311.6L380.7,310.0L380.4,307.3L375.1,305.9L367.2,308.5L360.8,308.5L355.6,307.0L344.8,309.9L336.5,314.4L331.5,314.6L325.9,314.1L321.7,310.1L318.0,308.7L313.5,310.8L306.8,309.2L303.9,311.7L297.8,314.6L292.7,316.5L293.6,322.6L292.2,328.4L289.9,328.7L287.2,332.3L286.5,334.1L290.0,338.1L294.1,339.8L292.4,345.4L283.3,348.4L281.0,348.5L281.0,344.7L280.1,341.7L278.3,339.6L275.3,338.0L271.9,340.3L269.5,340.7L268.0,343.4L267.3,347.6L267.9,351.6L267.5,353.9L263.6,358.6L260.2,359.4L256.5,357.3L253.0,354.9L245.4,352.2L237.7,353.9L229.9,360.5L222.9,364.1L223.7,360.1L224.0,355.7L222.7,350.5L222.4,345.1L222.7,339.3L222.1,333.9L219.4,331.0L216.3,328.4L208.1,326.5L197.2,322.7L193.5,329.0L192.1,332.2L192.8,334.1L194.6,335.4L196.2,341.1L189.7,344.7L180.7,343.6L176.9,344.8L174.4,348.2L173.4,352.6L171.2,356.3L171.2,361.2L171.8,366.0L174.4,365.7L175.5,368.3L176.3,376.2L177.8,384.3L176.3,389.1L175.5,390.1L170.2,392.3L168.5,393.7L168.0,395.6L168.8,406.6L168.1,407.9L162.1,411.3L160.2,414.9L158.1,415.7L153.4,421.8L154.5,423.5L154.8,426.3L150.1,440.6L149.1,452.8L152.4,469.5L150.6,473.2L143.8,474.9L136.6,477.1L136.3,479.7L133.6,481.4L135.2,486.1L141.3,491.4L143.6,491.8L143.5,493.9L144.7,497.6L144.0,500.0L145.5,504.7L151.1,503.2L152.9,504.0L156.0,509.1L159.4,507.9L163.3,508.4L165.0,507.6L170.2,511.0L172.3,511.3L177.6,510.1L179.0,511.3L181.0,509.4L187.9,511.8L194.7,509.1L204.8,500.4L207.6,499.7L213.3,502.4L217.6,503.4L220.7,503.3L228.6,505.9L229.5,509.1L233.0,514.8L232.9,520.0L234.6,523.7L236.1,530.8L237.6,534.6L239.7,538.2L244.3,543.2L252.6,548.2L252.6,550.4L253.5,552.1L260.0,556.5L264.3,558.8L267.6,564.9L270.4,568.3L274.2,569.9L287.7,571.2L289.3,572.3L291.2,577.4L290.6,579.4L287.8,584.0L285.1,585.8L279.5,593.6L276.6,603.4L276.0,614.4L276.4,625.4L275.3,636.2L272.9,646.8L279.4,647.0L285.7,645.7L288.2,643.7L294.3,632.9L295.5,630.2L297.8,629.1L301.9,629.6L305.1,627.4L307.3,625.1L310.3,623.9L318.3,621.8L325.9,624.3L332.3,629.2L339.7,631.1L360.0,629.8L364.2,620.5L363.9,609.3L364.7,598.0L363.7,595.7L368.3,589.7L369.7,588.8L376.5,585.9L386.2,575.0L389.9,572.0L395.3,569.8L398.7,563.8L404.2,558.7L410.7,553.3L410.4,549.8L409.4,546.2L409.8,537.4L415.0,516.8L415.3,507.6L416.1,503.6L418.6,501.4L420.6,497.0L420.4,492.2L417.7,489.9L415.7,487.1L419.9,480.0L426.0,474.2L429.6,470.2L432.2,465.6L430.3,462.7L422.1,453.3L416.0,448.2L411.9,445.4L407.1,443.4L404.5,440.3L403.1,431.4L405.9,423.1L405.1,419.0L403.7,413.9L403.7,408.6L407.2,398.4L407.1,389.3L406.2,380.4L408.3,370.7L419.6,354.5L423.8,344.7L428.7,335.4L430.9,333.3L433.9,334.4L436.8,334.1L439.2,327.1L439.6,322.5L437.0,322.1Z " data-id="TZ.TB" data-name="Tabora" id="TZ.TB"/>
utf-8utf-8<path d="M209.7,122.6L211.4,121.6L208.0,119.4L207.2,115.7L206.1,120.0L206.5,121.5L209.2,123.2L209.7,122.6Z M213.4,85.6L214.4,81.7L213.2,81.0L213.1,83.4L210.6,88.1L213.4,85.6Z M220.9,67.9L218.0,66.0L215.2,67.2L216.5,74.5L215.8,75.5L215.1,80.2L218.0,74.6L219.0,68.6L222.8,71.5L220.9,67.9Z M117.0,211.9L119.5,210.5L121.4,208.1L123.2,205.3L132.4,195.9L131.4,189.2L126.8,184.8L122.6,179.5L125.9,169.1L136.2,163.6L150.2,136.8L153.1,137.5L159.4,136.4L164.3,134.6L168.6,135.3L187.2,144.6L193.7,144.9L193.5,143.5L193.6,141.4L199.5,122.2L198.6,118.4L199.9,116.5L199.0,114.0L200.8,107.7L199.2,107.9L191.8,111.3L192.6,104.5L193.7,101.7L197.8,96.1L198.8,93.2L201.4,81.4L202.3,73.0L203.8,69.5L205.5,67.0L206.1,64.6L204.4,61.4L205.4,58.3L205.1,53.7L205.7,50.7L209.5,52.7L211.9,38.2L213.9,33.9L214.7,30.9L215.5,20.8L216.4,18.3L214.8,13.5L214.8,9.4L214.2,7.7L217.0,4.1L213.8,4.1L212.4,1.8L212.0,3.8L208.3,7.3L207.1,6.5L207.0,4.6L208.5,1.8L119.3,1.8L114.6,0.0L111.0,2.1L106.1,4.1L101.6,9.3L99.3,8.5L86.9,7.7L84.5,10.6L86.4,18.5L88.1,17.9L93.7,30.4L93.2,33.5L94.9,36.2L97.6,37.5L100.9,40.4L110.7,44.5L111.2,47.3L110.2,51.9L113.8,57.8L115.6,64.0L117.1,65.3L119.3,64.3L120.0,66.6L119.9,69.3L118.6,77.6L118.7,84.6L119.8,90.0L117.8,95.0L118.5,96.9L115.9,99.7L118.7,100.3L119.0,103.0L117.7,109.2L119.4,108.8L123.5,112.9L124.3,115.9L121.0,127.7L120.1,132.4L120.5,139.6L120.1,141.8L114.8,146.4L106.4,144.6L103.1,145.4L100.7,149.2L94.7,148.4L92.9,149.6L88.5,156.2L82.8,171.8L80.5,174.2L79.4,178.1L80.4,179.2L82.2,179.2L89.7,175.9L89.1,177.9L83.7,184.3L82.5,190.0L79.4,195.4L79.6,197.3L83.3,202.2L85.0,202.7L86.7,206.7L88.6,203.8L91.8,202.4L101.4,210.5L104.5,209.8L111.1,212.0L115.5,210.7L117.7,210.7L117.0,211.9Z " data-id="TZ.KR" data-name="Kagera" id="TZ.KR"/>
utf-8utf-8<path d="M168.2,350.8L164.9,341.9L163.9,335.3L164.2,330.1L167.4,320.3L168.0,315.2L166.4,306.5L161.0,292.5L155.8,286.8L153.6,280.2L153.5,273.0L152.3,266.0L152.6,262.0L147.3,251.2L145.0,243.8L144.0,236.2L139.1,232.1L136.0,235.2L134.1,234.1L134.3,228.2L137.9,222.0L140.6,214.4L140.4,206.4L138.6,204.0L138.5,202.3L136.3,197.7L132.4,195.9L123.2,205.3L121.4,208.1L119.5,210.5L117.0,211.9L116.8,212.5L113.8,216.3L116.6,226.8L117.8,227.8L118.1,231.2L115.9,235.9L116.4,239.1L115.0,242.0L112.7,243.7L110.1,244.0L107.7,242.6L105.8,245.4L104.7,245.6L98.3,250.0L96.5,252.3L100.0,254.5L99.8,257.3L97.3,260.0L92.9,262.3L90.3,264.9L87.8,265.6L87.4,267.0L85.6,267.1L80.4,271.3L79.9,272.6L79.3,278.6L75.4,285.4L74.6,289.4L75.4,296.3L71.2,294.7L68.9,296.4L65.2,303.5L60.2,309.1L59.1,311.3L57.4,318.9L53.4,327.8L50.5,331.7L44.1,337.7L43.1,339.3L40.7,345.7L39.5,347.4L33.2,351.7L29.8,355.2L22.5,357.9L20.5,357.1L15.1,366.7L14.0,367.6L6.7,366.3L6.2,372.5L1.5,399.1L0.4,414.3L5.9,415.6L14.6,422.0L16.0,424.3L17.8,429.1L21.5,437.1L21.6,439.6L20.2,444.2L20.6,446.9L19.3,449.1L19.5,452.6L17.7,453.9L17.7,459.1L13.9,467.6L13.5,470.0L14.3,473.4L16.2,476.3L20.4,480.9L22.2,483.6L31.8,508.6L32.7,513.4L31.9,521.4L27.6,523.3L21.4,529.7L17.2,528.6L12.0,534.9L11.3,537.0L11.0,543.7L11.6,550.8L10.0,557.3L14.7,562.0L22.8,573.6L27.3,577.9L30.5,579.8L31.6,581.3L31.7,583.7L38.9,579.3L42.9,578.0L47.1,577.9L50.9,579.7L52.3,581.3L53.7,585.5L58.8,591.1L61.0,587.8L63.9,578.5L72.9,571.7L72.6,566.9L71.0,562.6L72.1,556.0L69.2,552.2L64.9,549.2L62.1,540.1L56.7,528.3L54.2,519.6L48.6,479.4L45.2,470.3L36.8,462.1L38.5,459.8L58.4,459.5L63.0,458.3L66.7,454.7L72.9,447.0L76.1,444.5L101.8,444.3L106.1,444.6L115.7,451.5L118.4,456.0L120.4,457.7L121.8,456.2L123.9,452.0L125.6,451.1L127.2,451.9L128.0,458.3L130.5,462.0L131.6,464.6L134.5,468.5L136.6,477.1L143.8,474.9L150.6,473.2L152.4,469.5L149.1,452.8L150.1,440.6L154.8,426.3L154.5,423.5L153.4,421.8L158.1,415.7L160.2,414.9L162.1,411.3L168.1,407.9L168.8,406.6L168.0,395.6L168.5,393.7L170.2,392.3L175.5,390.1L176.3,389.1L177.8,384.3L176.3,376.2L175.5,368.3L174.4,365.7L171.8,366.0L171.2,361.2L171.2,356.3L168.2,350.8Z " data-id="TZ.KM" data-name="Kigoma" id="TZ.KM"/>
utf-8utf-8<path d="M913.9,654.9L917.9,651.8L918.8,654.5L919.7,654.6L923.0,648.2L924.4,648.3L924.6,645.5L923.9,638.8L925.3,635.9L920.7,628.5L919.9,625.4L917.3,620.8L913.8,620.8L911.3,619.5L908.5,619.2L903.1,616.4L901.4,616.3L902.0,619.9L900.1,617.9L900.7,610.0L900.3,607.0L898.8,608.8L897.2,607.4L895.8,604.5L894.9,599.2L894.3,598.0L891.1,595.1L889.8,592.4L886.6,589.5L886.4,589.2L882.4,593.6L880.6,598.3L880.0,603.4L878.7,608.0L876.0,611.8L875.8,613.4L878.0,613.5L879.2,614.7L879.8,620.3L882.4,622.2L883.6,626.6L882.6,628.6L880.7,629.8L879.0,634.5L876.1,639.3L877.2,640.4L879.0,639.7L880.9,641.7L883.1,640.2L884.4,637.8L886.3,636.2L889.4,637.6L891.7,634.3L894.5,634.4L896.7,630.9L899.8,630.5L904.7,630.8L907.1,631.6L909.6,635.0L911.6,638.8L911.4,653.8L912.7,653.3L913.8,655.0L913.9,654.9Z " data-id="TZ.DS" data-name="Dar-Es-Salaam" id="TZ.DS"/>
utf-8utf-8<path d="M762.7,520.5L760.5,519.8L759.0,521.1L759.1,524.1L755.3,525.4L750.5,525.1L747.9,528.0L745.7,525.8L739.8,518.0L738.8,513.1L735.6,511.6L726.1,507.8L724.7,510.7L722.8,522.8L719.7,525.8L716.3,527.4L713.3,531.4L709.3,534.8L707.4,539.0L704.8,541.8L702.3,540.0L700.3,537.4L699.7,533.0L701.7,529.9L696.4,527.3L695.2,516.1L681.4,528.5L676.4,530.3L673.5,535.4L673.3,541.5L675.4,566.4L670.2,575.0L666.3,577.2L663.8,587.5L661.2,595.0L660.1,596.9L657.4,596.3L657.1,598.0L658.2,599.7L658.2,602.3L656.7,604.6L654.3,612.5L654.4,631.5L653.9,636.2L646.1,641.5L642.0,651.0L640.7,655.7L641.2,660.9L642.3,666.0L641.5,671.0L637.9,675.0L639.8,685.7L641.3,688.8L644.0,690.2L648.6,689.8L656.4,693.4L666.9,698.5L666.4,701.8L669.0,704.8L673.8,703.2L678.4,703.7L683.0,705.0L678.3,711.7L671.5,718.7L667.1,727.5L663.5,736.9L656.4,739.2L648.2,736.5L639.5,735.5L631.2,738.9L624.3,744.8L621.3,747.9L621.1,752.2L622.1,757.5L620.5,760.6L612.0,762.4L608.6,761.6L600.3,767.2L592.9,774.7L586.3,783.8L582.6,794.7L575.8,801.4L567.1,805.9L564.3,808.9L560.5,822.3L560.6,827.4L559.3,832.2L557.4,830.2L557.1,821.3L555.7,818.8L545.1,816.8L536.6,814.0L529.2,814.3L528.6,819.0L530.0,823.2L530.0,827.9L527.6,831.8L527.7,833.5L529.3,834.4L530.1,836.5L529.6,844.0L530.6,848.2L532.4,847.2L534.0,845.8L536.0,846.8L542.1,857.8L559.3,873.4L560.5,878.2L560.6,883.2L564.4,882.2L568.1,880.6L573.7,874.8L579.9,867.2L580.1,880.6L581.0,884.4L582.5,887.9L581.0,893.2L577.1,897.1L575.6,900.3L575.2,903.6L576.0,905.9L575.3,908.1L572.0,912.6L567.7,919.9L565.8,921.6L563.8,921.7L562.2,923.1L561.5,929.5L565.4,933.0L578.4,932.4L581.7,933.0L585.0,932.8L586.6,930.5L587.6,927.7L591.9,923.6L596.0,922.2L595.7,923.6L600.1,926.7L608.3,924.3L614.0,925.4L621.7,924.2L624.7,920.9L629.0,914.3L629.9,911.7L630.0,906.9L633.0,905.7L634.1,908.7L633.9,912.1L636.6,920.1L640.2,927.8L637.0,936.4L631.8,943.9L634.0,948.9L640.3,948.7L649.0,943.4L656.7,936.1L662.3,928.9L668.6,922.6L676.1,917.4L679.1,915.9L687.6,908.9L694.5,906.6L702.5,881.0L705.2,874.9L706.2,868.2L710.6,864.2L715.8,862.3L716.6,858.2L713.9,853.6L714.9,847.1L712.6,840.2L712.7,836.7L711.6,827.1L712.3,824.0L716.6,814.7L718.9,806.6L719.0,800.7L717.5,797.4L718.3,794.3L723.8,787.0L726.6,781.6L733.4,773.1L734.6,770.1L738.0,764.3L743.2,761.4L745.0,756.7L747.4,753.6L751.9,744.5L754.5,741.6L756.9,740.1L759.3,736.4L759.9,735.6L760.7,734.5L765.2,722.3L765.1,717.1L766.3,712.2L766.3,706.6L767.2,701.3L770.0,698.5L773.7,697.1L782.0,695.3L788.6,696.7L793.3,695.7L797.9,693.9L812.9,691.0L813.5,687.2L811.8,682.7L808.0,669.6L810.5,661.7L813.2,657.8L816.7,655.5L820.4,655.0L822.5,650.5L826.0,645.7L828.5,640.4L827.1,637.8L826.8,634.0L825.1,632.5L822.7,632.7L821.3,631.6L816.6,632.2L813.0,629.5L810.9,629.6L807.4,623.7L808.4,617.5L810.9,611.2L809.5,603.3L807.8,602.9L799.7,604.6L790.5,600.7L787.8,599.2L783.4,597.8L780.9,592.1L781.0,589.7L782.8,587.6L785.3,581.4L787.5,565.3L787.4,556.7L785.7,554.4L783.3,553.1L783.9,552.2L780.7,550.6L778.3,545.8L776.0,542.3L773.6,536.1L771.9,534.1L771.3,528.2L768.6,522.8L764.2,519.0L762.7,520.5Z " data-id="TZ.MO" data-name="Morogoro" id="TZ.MO"/>
utf-8utf-8<path d="M957.1,442.4L957.7,436.5L956.5,435.9L956.4,438.5L955.5,438.9L954.6,435.2L955.9,429.1L955.5,427.2L959.5,423.1L958.5,419.1L958.8,414.4L957.6,413.5L956.9,419.0L956.1,420.7L955.6,418.6L954.5,419.9L954.8,422.9L954.2,423.7L946.3,414.9L944.1,417.1L943.2,414.6L941.6,412.8L940.8,418.6L944.4,421.9L944.0,423.6L942.4,422.5L940.6,424.6L941.3,426.5L942.7,425.8L940.7,429.1L944.6,433.3L943.5,432.7L942.1,435.4L941.8,438.9L942.9,438.2L945.5,440.9L946.5,441.5L950.1,441.1L950.9,442.3L950.8,445.3L952.6,445.7L957.1,443.7L957.1,442.4Z " data-id="TZ.PN" data-name="Kaskazini-Pemba" id="TZ.PN"/>
utf-8utf-8<path d="M938.2,474.7L938.5,473.4L934.7,471.0L933.6,469.1L930.5,466.1L929.9,467.3L934.1,473.4L935.7,474.9L938.2,474.7Z M946.9,443.2L946.8,446.1L941.0,445.3L940.1,445.8L937.9,444.6L938.5,445.9L941.6,446.7L945.8,449.8L948.1,450.5L950.0,449.7L948.4,452.1L946.7,451.1L941.5,451.9L944.8,454.0L943.9,455.0L938.9,454.7L939.5,456.4L942.1,460.6L938.2,461.3L936.8,468.2L937.3,469.6L941.9,470.0L942.6,471.2L945.7,470.0L945.6,472.1L951.5,466.0L951.6,464.2L952.9,462.0L957.0,448.6L957.1,443.7L952.6,445.7L950.8,445.3L950.9,442.3L950.1,441.1L946.5,441.5L946.9,443.2Z " data-id="TZ.PS" data-name="Kusini-Pemba" id="TZ.PS"/>
utf-8utf-8<path d="M941.0,748.5L946.0,742.2L945.6,740.8L940.5,741.0L937.8,744.5L936.1,749.5L936.6,751.2L938.1,751.3L941.0,748.5Z M955.1,715.6L956.8,708.4L957.0,705.0L955.4,704.3L954.4,707.0L949.8,714.6L943.9,717.8L943.9,718.5L947.7,719.2L943.2,721.1L938.4,721.6L936.8,724.2L937.6,725.4L936.2,727.8L932.1,732.2L930.4,732.6L927.6,737.1L930.0,740.0L931.9,740.9L939.1,738.7L941.8,732.6L944.6,731.6L948.2,732.5L950.7,726.5L951.1,724.3L952.3,722.4L955.1,715.6Z M764.2,519.0L768.6,522.8L771.3,528.2L771.9,534.1L773.6,536.1L776.0,542.3L778.3,545.8L780.7,550.6L783.9,552.2L783.3,553.1L785.7,554.4L787.4,556.7L787.5,565.3L785.3,581.4L782.8,587.6L781.0,589.7L780.9,592.1L783.4,597.8L787.8,599.2L790.5,600.7L799.7,604.6L807.8,602.9L809.5,603.3L810.9,611.2L808.4,617.5L807.4,623.7L810.9,629.6L813.0,629.5L816.6,632.2L821.3,631.6L822.7,632.7L825.1,632.5L826.8,634.0L827.1,637.8L828.5,640.4L826.0,645.7L822.5,650.5L820.4,655.0L816.7,655.5L813.2,657.8L810.5,661.7L808.0,669.6L811.8,682.7L813.5,687.2L812.9,691.0L797.9,693.9L793.3,695.7L788.6,696.7L782.0,695.3L773.7,697.1L770.0,698.5L767.2,701.3L766.3,706.6L766.3,712.2L765.1,717.1L765.2,722.3L760.7,734.5L759.9,735.6L772.7,746.7L777.3,750.0L788.2,754.3L799.7,757.2L804.8,760.1L813.1,768.6L817.6,772.2L824.3,779.6L825.6,789.6L827.0,793.9L832.3,794.1L836.7,791.1L838.8,785.3L841.3,780.9L847.8,779.2L849.6,779.8L852.0,782.0L857.9,780.6L869.5,776.2L887.7,771.8L892.4,771.6L895.8,774.7L897.1,775.2L896.7,774.2L898.7,771.5L901.2,772.8L903.1,770.6L903.2,765.0L902.6,763.4L904.5,763.4L906.0,760.5L909.3,751.0L912.4,745.6L913.6,742.7L912.1,740.9L911.7,734.9L910.8,731.2L913.1,723.9L912.8,722.4L907.1,718.1L903.6,718.5L905.1,716.9L902.5,712.6L900.3,719.5L898.2,722.2L895.3,722.9L899.6,717.4L900.1,715.6L898.8,711.7L899.7,708.6L897.9,698.9L899.8,687.2L901.0,683.2L903.5,680.7L905.8,675.0L905.9,672.8L903.5,668.5L907.4,668.3L907.3,664.5L909.4,663.8L911.7,661.3L913.0,656.2L913.8,655.0L913.8,655.0L912.7,653.3L911.4,653.8L911.6,638.8L909.6,635.0L907.1,631.6L904.7,630.8L899.8,630.5L896.7,630.9L894.5,634.4L891.7,634.3L889.4,637.6L886.3,636.2L884.4,637.8L883.1,640.2L880.9,641.7L879.0,639.7L877.2,640.4L876.1,639.3L879.0,634.5L880.7,629.8L882.6,628.6L883.6,626.6L882.4,622.2L879.8,620.3L879.2,614.7L878.0,613.5L875.8,613.4L876.0,611.8L878.7,608.0L880.0,603.4L880.6,598.3L882.4,593.6L886.4,589.2L883.6,585.3L878.6,579.8L874.0,577.9L878.2,581.2L877.2,581.6L871.5,580.1L870.5,578.2L868.7,577.8L866.9,576.3L865.5,571.8L862.4,569.6L861.3,567.0L861.1,561.0L860.4,558.4L862.2,554.6L862.5,552.1L862.1,547.4L857.7,542.9L856.9,538.8L855.0,535.9L855.0,533.4L856.6,528.9L857.2,526.2L849.4,524.7L847.9,526.1L843.4,526.7L841.7,528.7L834.3,532.0L833.1,531.3L829.8,531.7L828.2,530.9L826.2,532.6L823.1,531.8L820.1,529.2L817.1,529.4L814.6,528.1L812.2,524.3L804.8,521.7L802.3,518.4L796.5,515.1L789.9,514.5L787.4,515.8L784.7,516.3L778.4,514.7L764.2,519.0Z " data-id="TZ.PW" data-name="Pwani" id="TZ.PW"/>
utf-8utf-8<path d="M898.2,514.9L897.7,511.4L898.3,510.3L897.3,505.7L896.1,506.6L896.0,515.1L898.2,514.9Z M894.1,533.7L894.5,533.7L897.9,533.3L901.2,533.7L908.0,533.2L911.6,530.5L912.1,530.2L912.1,530.1L910.5,527.0L909.2,520.8L909.8,513.1L909.3,509.4L906.5,503.6L905.5,500.3L903.8,502.2L903.0,510.1L902.1,513.4L897.2,518.6L895.6,521.4L894.3,519.2L893.1,529.5L894.1,533.7Z " data-id="TZ.ZN" data-name="Kaskazini-Unguja" id="TZ.ZN"/>
utf-8utf-8<path d="M897.9,533.3L894.5,533.7L894.1,533.7L894.7,536.1L895.4,542.2L891.9,546.8L893.8,553.4L894.7,555.1L899.2,561.2L902.2,562.7L901.2,561.5L901.3,557.4L902.6,558.4L904.0,556.1L904.0,556.1L903.6,553.3L902.0,551.3L901.1,548.9L901.0,546.2L901.8,537.9L901.3,535.8L901.2,533.7L897.9,533.3Z " data-id="TZ.ZW" data-name="Zanzibar West" id="TZ.ZW"/>
utf-8utf-8<path d="M670.0,528.2L663.8,525.4L659.2,520.8L655.9,514.8L653.3,508.7L649.7,503.6L643.8,500.3L638.1,496.4L634.9,491.6L632.4,486.3L628.1,481.4L623.3,477.0L619.8,472.8L618.7,467.9L620.3,462.0L619.4,455.3L621.6,449.7L624.6,444.5L626.7,437.0L630.6,411.6L632.0,390.1L631.5,386.7L629.4,381.3L628.0,375.5L627.2,369.6L627.0,338.2L603.5,345.7L597.4,350.4L594.4,355.8L589.8,355.7L585.2,358.7L582.0,357.0L575.4,364.3L568.0,370.0L565.1,369.7L564.7,371.5L566.9,378.8L566.0,382.8L561.1,391.3L554.5,406.0L552.4,409.7L547.5,410.7L539.0,409.8L537.8,409.2L536.6,409.0L536.9,412.7L534.4,419.0L511.4,436.6L510.9,440.2L512.7,443.7L512.8,451.6L513.9,455.9L515.5,460.0L516.9,467.2L519.0,470.7L521.5,473.8L524.2,480.2L528.1,483.4L528.7,487.2L530.9,491.6L534.0,495.4L535.0,498.4L533.0,501.1L530.1,503.9L528.6,512.3L526.1,516.2L522.6,525.0L522.1,537.3L519.9,546.8L520.5,556.0L522.3,559.7L523.1,563.9L523.0,567.7L521.4,571.1L520.3,580.6L521.6,598.7L518.9,605.7L507.2,606.3L508.5,616.2L508.7,627.4L517.7,633.6L527.1,631.9L529.0,629.7L531.7,628.9L538.0,628.3L542.4,628.8L546.8,630.5L548.8,631.7L549.9,635.5L551.2,636.4L555.7,637.0L560.2,638.8L566.7,643.0L573.0,643.0L582.1,645.6L583.8,646.8L590.4,649.2L592.3,649.6L597.8,648.2L600.9,649.1L604.2,649.1L612.5,652.9L616.5,654.0L619.0,660.5L621.5,662.8L623.9,669.7L633.1,669.2L637.5,672.4L637.9,675.0L641.5,671.0L642.3,666.0L641.2,660.9L640.7,655.7L642.0,651.0L646.1,641.5L653.9,636.2L654.4,631.5L654.3,612.5L656.7,604.6L658.2,602.3L658.2,599.7L657.1,598.0L657.4,596.3L660.1,596.9L661.2,595.0L663.8,587.5L666.3,577.2L670.2,575.0L675.4,566.4L673.3,541.5L673.5,535.4L676.4,530.3L670.0,528.2Z " data-id="TZ.DO" data-name="Dodoma" id="TZ.DO"/>
utf-8utf-8<path d="M505.0,626.1L501.2,625.6L497.3,624.5L493.7,624.2L483.1,631.7L479.6,634.8L478.3,645.0L474.7,652.4L447.2,658.9L442.4,665.3L442.5,668.6L440.6,670.3L436.2,671.0L431.9,670.8L427.7,669.0L423.5,669.0L420.2,673.0L417.3,677.5L409.4,683.4L401.2,688.6L403.5,690.4L405.0,692.3L403.6,695.3L401.7,697.8L399.0,704.6L396.8,708.7L394.2,712.5L392.4,716.4L391.6,720.7L392.8,723.8L396.4,724.3L439.8,721.8L444.5,722.3L458.3,726.0L461.6,728.7L465.6,730.2L490.7,734.7L491.6,737.9L491.2,740.6L493.6,741.1L498.1,740.7L502.3,742.4L504.8,745.3L502.5,748.8L498.3,752.3L493.2,754.1L490.9,757.2L487.3,766.0L484.8,770.5L481.4,773.4L477.5,774.9L474.0,778.5L471.2,783.0L469.2,787.4L470.6,791.7L472.5,795.0L473.9,798.6L472.7,805.5L485.8,810.0L485.7,815.3L507.8,824.2L506.3,843.1L515.0,850.1L523.8,850.7L530.6,848.2L529.6,844.0L530.1,836.5L529.3,834.4L527.7,833.5L527.6,831.8L530.0,827.9L530.0,823.2L528.6,819.0L529.2,814.3L536.6,814.0L545.1,816.8L555.7,818.8L557.1,821.3L557.4,830.2L559.3,832.2L560.6,827.4L560.5,822.3L564.3,808.9L567.1,805.9L575.8,801.4L582.6,794.7L586.3,783.8L592.9,774.7L600.3,767.2L608.6,761.6L612.0,762.4L620.5,760.6L622.1,757.5L621.1,752.2L621.3,747.9L624.3,744.8L631.2,738.9L639.5,735.5L648.2,736.5L656.4,739.2L663.5,736.9L667.1,727.5L671.5,718.7L678.3,711.7L683.0,705.0L678.4,703.7L673.8,703.2L669.0,704.8L666.4,701.8L666.9,698.5L656.4,693.4L648.6,689.8L644.0,690.2L641.3,688.8L639.8,685.7L637.9,675.0L637.5,672.4L633.1,669.2L623.9,669.7L621.5,662.8L619.0,660.5L616.5,654.0L612.5,652.9L604.2,649.1L600.9,649.1L597.8,648.2L592.3,649.6L590.4,649.2L583.8,646.8L582.1,645.6L573.0,643.0L566.7,643.0L560.2,638.8L555.7,637.0L551.2,636.4L549.9,635.5L548.8,631.7L546.8,630.5L542.4,628.8L538.0,628.3L531.7,628.9L529.0,629.7L527.1,631.9L517.7,633.6L508.7,627.4L505.0,626.1Z " data-id="TZ.IR" data-name="Iringa" id="TZ.IR"/>
utf-8utf-8<path d="M926.1,855.4L925.6,853.5L920.9,850.9L920.9,852.6L925.1,857.3L926.1,855.4Z M918.9,797.4L915.7,795.2L916.0,797.2L919.1,798.9L918.9,797.4Z M759.9,735.6L759.3,736.4L756.9,740.1L754.5,741.6L751.9,744.5L747.4,753.6L745.0,756.7L743.2,761.4L738.0,764.3L734.6,770.1L733.4,773.1L726.6,781.6L723.8,787.0L718.3,794.3L717.5,797.4L719.0,800.7L718.9,806.6L716.6,814.7L712.3,824.0L711.6,827.1L712.7,836.7L712.6,840.2L714.9,847.1L713.9,853.6L716.6,858.2L715.8,862.3L710.6,864.2L706.2,868.2L705.2,874.9L702.5,881.0L694.5,906.6L693.1,912.9L690.7,919.1L686.5,925.6L679.2,934.5L671.3,942.3L668.7,948.1L667.9,954.6L668.1,962.2L667.6,969.8L672.0,974.3L694.2,983.9L745.4,998.1L754.9,1005.7L758.5,1014.8L760.8,1019.5L762.0,1024.4L765.5,1029.7L769.8,1039.4L786.1,1038.1L789.4,1035.6L794.2,1027.9L800.2,1021.3L825.2,1009.9L833.6,1009.1L836.5,1007.5L839.7,1007.7L842.3,1009.8L845.9,1010.9L852.4,1010.3L856.8,1006.1L864.1,1002.4L868.5,1000.8L876.3,995.9L880.1,994.2L883.2,994.9L883.7,998.2L884.8,1001.1L888.9,1000.1L890.0,995.7L891.1,993.2L894.1,993.5L897.0,991.9L899.5,988.9L904.1,988.4L911.1,993.5L913.8,1003.2L916.6,1006.2L919.1,1013.6L922.8,1015.9L925.9,1012.7L928.2,1008.9L927.9,1005.2L925.5,1002.9L925.6,1000.0L927.3,995.9L928.0,991.4L930.5,987.9L934.5,986.3L949.8,976.7L956.1,971.8L956.1,967.1L950.8,956.6L948.6,954.6L944.7,954.2L942.8,952.0L940.0,952.2L936.9,951.2L932.4,957.1L930.0,957.6L933.2,953.8L933.5,951.8L932.5,947.9L935.4,947.1L939.6,943.9L936.2,940.2L938.9,940.6L940.7,939.5L941.4,937.4L940.9,934.4L935.9,926.3L932.2,926.4L931.9,925.1L933.5,923.5L936.2,922.0L935.4,919.9L935.3,916.6L933.3,913.4L931.4,902.8L930.7,900.7L927.9,897.4L928.1,894.3L924.9,892.2L924.2,893.8L920.3,894.6L920.6,890.1L925.0,889.3L927.6,886.2L927.9,885.0L928.5,877.1L926.9,874.6L928.5,870.5L928.2,867.3L926.7,864.2L922.8,858.5L920.4,857.2L916.2,860.1L914.8,860.4L914.1,844.3L914.7,840.8L910.6,839.4L912.3,836.6L906.6,837.2L905.2,836.6L907.2,833.5L911.0,832.3L914.2,835.9L920.0,838.1L917.4,835.9L914.7,829.0L911.4,826.7L909.8,820.8L905.8,818.1L902.5,817.0L903.1,815.0L903.5,806.1L901.3,798.6L898.3,795.0L898.1,792.0L898.9,785.9L897.8,777.0L897.1,775.2L895.8,774.7L892.4,771.6L887.7,771.8L869.5,776.2L857.9,780.6L852.0,782.0L849.6,779.8L847.8,779.2L841.3,780.9L838.8,785.3L836.7,791.1L832.3,794.1L827.0,793.9L825.6,789.6L824.3,779.6L817.6,772.2L813.1,768.6L804.8,760.1L799.7,757.2L788.2,754.3L777.3,750.0L772.7,746.7L759.9,735.6Z " data-id="TZ.LI" data-name="Lindi" id="TZ.LI"/>
utf-8utf-8<path d="M956.1,971.8L949.8,976.7L934.5,986.3L930.5,987.9L928.0,991.4L927.3,995.9L925.6,1000.0L925.5,1002.9L927.9,1005.2L928.2,1008.9L925.9,1012.7L922.8,1015.9L919.1,1013.6L916.6,1006.2L913.8,1003.2L911.1,993.5L904.1,988.4L899.5,988.9L897.0,991.9L894.1,993.5L891.1,993.2L890.0,995.7L888.9,1000.1L884.8,1001.1L883.7,998.2L883.2,994.9L880.1,994.2L876.3,995.9L868.5,1000.8L864.1,1002.4L856.8,1006.1L852.4,1010.3L845.9,1010.9L842.3,1009.8L839.7,1007.7L836.5,1007.5L833.6,1009.1L825.2,1009.9L800.2,1021.3L794.2,1027.9L789.4,1035.6L786.1,1038.1L769.8,1039.4L772.0,1060.8L777.7,1085.8L777.7,1085.8L778.4,1085.8L779.7,1085.1L780.7,1086.5L784.4,1088.7L788.5,1087.3L792.8,1088.0L796.0,1090.6L800.9,1096.6L804.2,1098.5L811.5,1100.6L816.6,1099.2L826.0,1092.2L829.7,1087.9L834.4,1086.0L841.3,1085.5L845.1,1081.6L852.5,1076.4L855.7,1075.6L867.8,1075.6L871.1,1074.9L874.0,1073.5L876.2,1074.0L881.8,1077.1L884.3,1077.1L888.8,1075.0L907.6,1058.6L910.7,1057.1L917.9,1056.5L933.6,1052.7L936.0,1051.6L945.5,1044.4L957.0,1038.7L974.5,1023.7L980.2,1017.6L983.8,1014.6L989.9,1012.3L993.3,1009.6L996.4,1006.2L998.2,994.5L995.8,994.5L999.6,989.5L997.6,984.7L996.8,984.4L994.4,986.0L994.8,987.2L996.4,986.9L997.5,988.5L997.0,990.6L994.0,991.6L990.2,990.8L989.3,989.9L986.5,982.3L982.2,978.6L981.1,974.6L979.8,974.2L976.5,978.6L979.5,983.4L974.2,980.0L972.9,982.6L969.2,981.7L968.8,980.8L970.7,979.2L971.0,972.1L970.0,970.9L961.7,967.5L957.4,966.9L957.2,967.8L958.3,973.4L956.8,976.3L956.1,973.2L956.1,971.8Z " data-id="TZ.MT" data-name="Mtwara" id="TZ.MT"/>
utf-8utf-8<path d="M777.7,1085.8L777.7,1085.8L772.0,1060.8L769.8,1039.4L765.5,1029.7L762.0,1024.4L760.8,1019.5L758.5,1014.8L754.9,1005.7L745.4,998.1L694.2,983.9L672.0,974.3L667.6,969.8L668.1,962.2L667.9,954.6L668.7,948.1L671.3,942.3L679.2,934.5L686.5,925.6L690.7,919.1L693.1,912.9L694.5,906.6L687.6,908.9L679.1,915.9L676.1,917.4L668.6,922.6L662.3,928.9L656.7,936.1L649.0,943.4L640.3,948.7L634.0,948.9L631.8,943.9L637.0,936.4L640.2,927.8L636.6,920.1L633.9,912.1L634.1,908.7L633.0,905.7L630.0,906.9L629.9,911.7L629.0,914.3L624.7,920.9L621.7,924.2L614.0,925.4L608.3,924.3L600.1,926.7L595.7,923.6L596.0,922.2L591.9,923.6L587.6,927.7L586.6,930.5L585.0,932.8L581.7,933.0L578.4,932.4L565.4,933.0L561.5,929.5L562.2,923.1L563.8,921.7L565.8,921.6L567.7,919.9L572.0,912.6L575.3,908.1L576.0,905.9L575.2,903.6L575.6,900.3L577.1,897.1L581.0,893.2L582.5,887.9L581.0,884.4L580.1,880.6L579.9,867.2L573.7,874.8L568.1,880.6L564.4,882.2L560.6,883.2L557.8,886.2L554.4,889.0L550.0,891.3L546.4,893.8L543.6,897.1L540.0,899.6L531.7,908.1L525.5,911.7L516.2,922.6L509.4,925.7L506.2,927.6L505.3,930.5L506.9,933.4L508.9,935.5L510.2,939.3L509.8,944.5L513.3,950.5L514.1,957.4L505.9,969.7L504.6,973.2L501.3,974.0L497.9,974.0L494.7,975.3L492.4,978.0L491.8,984.9L483.6,991.9L476.6,995.7L472.2,1002.4L464.0,1008.2L461.3,1009.6L458.4,1009.8L457.3,1009.0L453.6,1009.2L453.7,1010.0L455.3,1014.1L457.6,1014.7L460.6,1025.7L459.4,1027.9L461.6,1031.2L460.0,1034.4L460.3,1037.1L458.9,1043.8L458.6,1049.5L456.7,1053.9L453.9,1057.8L453.4,1060.4L455.7,1071.4L460.0,1075.6L461.1,1078.3L462.8,1078.7L464.3,1081.1L464.5,1083.5L467.9,1088.1L465.9,1090.1L467.8,1094.4L471.7,1093.8L475.6,1095.3L479.5,1098.4L482.2,1103.0L486.0,1111.4L486.2,1119.3L524.9,1119.8L528.7,1119.7L530.3,1121.2L533.0,1121.3L535.7,1120.3L538.6,1123.5L541.3,1122.3L542.8,1122.7L550.2,1119.8L551.2,1119.2L553.8,1114.1L554.9,1113.3L554.3,1111.0L556.0,1109.9L560.7,1108.9L562.4,1107.5L565.4,1103.4L566.7,1102.4L577.1,1104.6L579.9,1107.5L578.9,1109.8L579.7,1111.8L581.4,1112.9L584.6,1112.2L593.6,1116.9L595.5,1118.9L597.8,1119.9L599.0,1126.4L598.4,1128.0L600.4,1132.9L609.1,1133.5L615.4,1131.9L617.0,1130.7L627.8,1130.7L629.0,1133.7L632.4,1135.8L634.0,1136.0L643.7,1134.1L645.9,1132.1L649.3,1130.7L658.4,1119.3L662.7,1119.4L666.3,1121.4L674.9,1120.5L678.1,1118.4L679.1,1121.7L681.5,1125.2L684.7,1128.3L687.9,1130.0L695.7,1132.1L699.7,1132.5L703.1,1132.1L705.5,1130.8L714.3,1135.1L716.4,1135.1L719.6,1133.6L722.7,1129.3L724.6,1128.8L728.0,1126.8L735.0,1125.9L741.0,1121.1L747.9,1117.8L751.1,1115.1L751.9,1113.7L750.9,1109.7L751.5,1107.3L753.8,1102.9L757.2,1092.4L763.2,1088.7L770.2,1086.8L775.6,1085.8L777.7,1085.8Z " data-id="TZ.RV" data-name="Ruvuma" id="TZ.RV"/>
utf-8utf-8<path d="M489.8,303.8L484.0,297.7L480.6,298.4L478.1,300.7L476.8,303.0L460.9,310.3L454.1,312.2L451.3,314.5L448.9,317.4L443.2,319.1L439.6,322.5L439.2,327.1L436.8,334.1L433.9,334.4L430.9,333.3L428.7,335.4L423.8,344.7L419.6,354.5L408.3,370.7L406.2,380.4L407.1,389.3L407.2,398.4L403.7,408.6L403.7,413.9L405.1,419.0L405.9,423.1L403.1,431.4L404.5,440.3L407.1,443.4L411.9,445.4L416.0,448.2L422.1,453.3L430.3,462.7L432.2,465.6L429.6,470.2L426.0,474.2L419.9,480.0L415.7,487.1L417.7,489.9L420.4,492.2L420.6,497.0L418.6,501.4L416.1,503.6L415.3,507.6L415.0,516.8L409.8,537.4L409.4,546.2L410.4,549.8L410.7,553.3L404.2,558.7L398.7,563.8L395.3,569.8L389.9,572.0L386.2,575.0L376.5,585.9L369.7,588.8L368.3,589.7L363.7,595.7L364.7,598.0L363.9,609.3L364.2,620.5L360.0,629.8L362.8,632.5L364.8,636.0L366.1,641.5L366.7,647.2L368.8,651.4L372.8,653.1L376.0,656.7L381.3,665.9L386.6,667.7L387.7,670.2L388.0,673.0L389.6,677.4L389.8,681.8L393.2,683.3L397.0,686.4L401.2,688.6L409.4,683.4L417.3,677.5L420.2,673.0L423.5,669.0L427.7,669.0L431.9,670.8L436.2,671.0L440.6,670.3L442.5,668.6L442.4,665.3L447.2,658.9L474.7,652.4L478.3,645.0L479.6,634.8L483.1,631.7L493.7,624.2L497.3,624.5L501.2,625.6L505.0,626.1L508.7,627.4L508.5,616.2L507.2,606.3L518.9,605.7L521.6,598.7L520.3,580.6L521.4,571.1L523.0,567.7L523.1,563.9L522.3,559.7L520.5,556.0L519.9,546.8L522.1,537.3L522.6,525.0L526.1,516.2L528.6,512.3L530.1,503.9L533.0,501.1L535.0,498.4L534.0,495.4L530.9,491.6L528.7,487.2L528.1,483.4L524.2,480.2L521.5,473.8L519.0,470.7L516.9,467.2L515.5,460.0L513.9,455.9L512.8,451.6L512.7,443.7L510.9,440.2L511.4,436.6L534.4,419.0L536.9,412.7L536.6,409.0L531.0,406.6L527.6,399.2L522.2,398.1L518.5,395.2L518.6,390.7L517.8,386.5L511.6,383.1L508.3,374.6L503.7,368.5L497.4,364.2L493.3,359.0L496.9,348.3L502.0,338.1L507.5,330.0L507.3,326.9L499.4,317.1L496.1,309.1L489.8,303.8Z " data-id="TZ.SD" data-name="Singida" id="TZ.SD"/>
utf-8utf-8<path d="M726.6,200.3L666.8,162.2L607.1,124.2L547.2,86.2L531.5,76.2L529.2,117.9L529.9,122.6L533.4,125.2L538.7,127.0L539.9,132.3L538.5,138.5L536.1,144.2L531.2,146.3L527.2,158.7L527.9,168.9L521.5,199.0L518.8,204.4L513.7,207.0L510.7,209.5L507.1,208.2L504.9,204.3L501.4,201.1L498.2,200.6L496.5,276.0L494.0,278.8L491.8,278.1L489.9,279.0L489.2,282.1L485.9,285.4L483.4,289.4L483.0,293.6L484.0,297.7L489.8,303.8L496.1,309.1L499.3,307.1L506.2,303.5L511.7,301.6L514.2,297.2L523.1,291.0L526.0,291.1L528.6,290.1L531.9,287.6L535.7,286.0L541.9,278.9L545.9,278.9L549.5,281.1L553.2,282.0L556.1,283.3L553.7,286.4L551.8,290.0L554.6,293.3L558.8,293.9L560.5,291.1L560.2,287.1L571.4,283.7L573.0,280.0L573.7,272.6L576.1,273.0L577.3,278.0L574.9,285.6L574.2,293.3L576.1,300.6L578.0,300.0L578.3,296.8L580.9,293.2L584.2,289.9L588.8,283.2L594.2,281.1L597.2,286.1L601.6,295.5L622.2,330.1L626.8,332.3L631.1,331.7L632.1,329.6L636.3,328.6L640.7,328.2L643.2,327.3L647.4,328.1L648.7,327.3L648.9,321.3L647.0,307.9L646.4,295.8L648.0,291.6L653.7,283.3L657.2,282.1L659.1,280.2L661.0,279.5L662.4,275.8L669.2,275.4L672.6,277.3L674.3,280.8L677.1,280.1L682.0,273.5L689.0,273.4L691.1,271.3L692.9,268.5L695.9,266.2L699.2,264.9L699.2,245.7L695.8,238.4L689.4,233.6L686.4,232.1L684.2,229.6L683.4,224.7L683.3,219.6L685.5,212.6L691.8,210.6L694.9,209.1L697.3,206.3L702.9,201.1L707.3,197.9L712.0,197.7L713.6,198.3L715.4,197.6L718.8,198.1L721.8,200.1L729.5,203.7L733.7,204.8L726.6,200.3Z " data-id="TZ.AS" data-name="Arusha" id="TZ.AS"/>
utf-8utf-8<path d="M785.3,382.9L778.3,378.7L772.7,378.5L770.6,378.8L767.1,381.2L765.0,381.6L762.7,380.7L756.3,375.1L748.3,370.0L746.1,369.7L741.4,365.2L738.4,359.2L738.3,351.1L739.0,342.9L738.9,336.2L740.4,332.4L737.9,318.6L736.8,316.4L736.0,311.1L736.5,299.3L734.9,294.6L728.9,282.5L723.9,276.3L721.2,268.6L721.6,266.6L720.2,265.2L717.5,265.0L714.9,264.1L712.6,260.6L708.9,261.4L706.4,264.2L701.5,264.2L699.2,264.9L695.9,266.2L692.9,268.5L691.1,271.3L689.0,273.4L682.0,273.5L677.1,280.1L674.3,280.8L672.6,277.3L669.2,275.4L662.4,275.8L661.0,279.5L659.1,280.2L657.2,282.1L653.7,283.3L648.0,291.6L646.4,295.8L647.0,307.9L648.9,321.3L648.7,327.3L647.4,328.1L643.2,327.3L640.7,328.2L636.3,328.6L632.1,329.6L631.1,331.7L626.8,332.3L622.2,330.1L601.6,295.5L597.2,286.1L594.2,281.1L588.8,283.2L584.2,289.9L580.9,293.2L578.3,296.8L578.0,300.0L576.1,300.6L574.2,293.3L574.9,285.6L577.3,278.0L576.1,273.0L573.7,272.6L573.0,280.0L571.4,283.7L560.2,287.1L560.5,291.1L558.8,293.9L554.6,293.3L551.8,290.0L553.7,286.4L556.1,283.3L553.2,282.0L549.5,281.1L545.9,278.9L541.9,278.9L535.7,286.0L531.9,287.6L528.6,290.1L526.0,291.1L523.1,291.0L514.2,297.2L511.7,301.6L506.2,303.5L499.3,307.1L496.1,309.1L499.4,317.1L507.3,326.9L507.5,330.0L502.0,338.1L496.9,348.3L493.3,359.0L497.4,364.2L503.7,368.5L508.3,374.6L511.6,383.1L517.8,386.5L518.6,390.7L518.5,395.2L522.2,398.1L527.6,399.2L531.0,406.6L536.6,409.0L537.8,409.2L539.0,409.8L547.5,410.7L552.4,409.7L554.5,406.0L561.1,391.3L566.0,382.8L566.9,378.8L564.7,371.5L565.1,369.7L568.0,370.0L575.4,364.3L582.0,357.0L585.2,358.7L589.8,355.7L594.4,355.8L597.4,350.4L603.5,345.7L627.0,338.2L627.2,369.6L628.0,375.5L629.4,381.3L631.5,386.7L632.0,390.1L630.6,411.6L626.7,437.0L624.6,444.5L621.6,449.7L619.4,455.3L620.3,462.0L618.7,467.9L619.8,472.8L623.3,477.0L628.1,481.4L632.4,486.3L634.9,491.6L638.1,496.4L643.8,500.3L649.7,503.6L653.3,508.7L655.9,514.8L659.2,520.8L663.8,525.4L670.0,528.2L676.4,530.3L681.4,528.5L695.2,516.1L706.4,507.6L709.5,502.2L711.7,489.8L713.6,484.1L722.3,471.6L724.5,464.6L726.8,454.3L726.9,451.3L726.2,448.6L727.0,446.1L741.1,427.3L746.3,422.1L750.9,422.1L755.4,423.8L761.0,425.3L766.7,423.8L771.4,422.0L779.4,420.4L784.4,424.1L788.9,424.3L788.2,420.3L785.0,411.1L783.2,408.3L782.0,403.8L782.1,398.7L783.0,391.7L787.7,386.2L785.3,382.9Z " data-id="TZ.MY" data-name="Manyara" id="TZ.MY"/>
utf-8utf-8<path d="M699.2,264.9L701.5,264.2L706.4,264.2L708.9,261.4L712.6,260.6L714.9,264.1L717.5,265.0L720.2,265.2L721.6,266.6L721.2,268.6L723.9,276.3L728.9,282.5L734.9,294.6L736.5,299.3L736.0,311.1L736.8,316.4L737.9,318.6L740.4,332.4L738.9,336.2L739.0,342.9L738.3,351.1L738.4,359.2L741.4,365.2L746.1,369.7L748.3,370.0L756.3,375.1L762.7,380.7L765.0,381.6L767.1,381.2L770.6,378.8L772.7,378.5L778.3,378.7L785.3,382.9L787.7,386.2L792.0,382.9L824.6,331.4L824.6,331.3L817.3,325.4L765.1,282.2L762.9,278.2L760.7,270.0L759.4,268.7L753.7,266.9L749.2,267.2L750.1,262.0L747.5,260.1L748.6,255.7L749.9,254.0L754.3,250.7L756.0,250.6L757.2,246.3L758.9,246.2L755.5,220.4L754.1,217.8L746.5,212.9L733.7,204.8L729.5,203.7L721.8,200.1L718.8,198.1L715.4,197.6L713.6,198.3L712.0,197.7L707.3,197.9L702.9,201.1L697.3,206.3L694.9,209.1L691.8,210.6L685.5,212.6L683.3,219.6L683.4,224.7L684.2,229.6L686.4,232.1L689.4,233.6L695.8,238.4L699.2,245.7L699.2,264.9Z " data-id="TZ.KL" data-name="Kilimanjaro" id="TZ.KL"/>
utf-8utf-8<path d="M351.4,93.5L351.4,93.5L350.9,94.5L350.7,94.9L350.6,95.7L350.6,96.4L350.6,97.2L350.3,97.4L350.2,97.5L348.0,99.0L350.4,100.9L350.9,101.3L354.5,99.3L358.3,96.3L361.5,96.1L363.6,94.5L364.4,94.6L364.7,94.7L364.7,94.7L364.7,94.7L364.6,96.8L366.6,98.3L367.2,100.1L364.7,101.9L365.7,102.0L368.7,102.3L372.4,103.3L372.4,103.3L372.4,103.3L372.2,103.7L372.2,103.8L372.1,103.9L372.0,103.9L371.9,103.9L371.7,104.1L372.4,104.4L372.6,104.6L372.9,104.5L373.7,104.1L374.6,105.3L375.1,105.9L374.9,106.5L374.7,107.4L374.2,107.9L373.5,108.8L373.3,109.5L372.9,110.3L372.7,110.2L367.9,109.9L361.8,105.2L358.9,104.3L356.3,107.0L358.9,111.3L358.9,111.3L358.9,111.4L358.1,111.6L357.5,111.7L357.5,111.8L357.2,112.1L356.9,112.9L356.9,112.9L356.9,112.9L355.8,111.8L353.3,109.2L351.8,109.0L351.8,109.0L351.8,112.1L351.8,112.1L351.8,112.1L351.2,112.1L350.6,110.8L350.5,110.5L350.3,110.2L349.2,108.4L347.8,107.3L346.7,108.5L348.1,109.2L348.8,110.6L348.8,112.0L348.2,113.2L348.2,113.2L348.2,113.2L347.7,112.8L345.4,112.1L345.4,112.1L345.4,112.2L345.4,112.2L345.4,112.2L345.0,112.2L342.8,112.1L342.4,111.9L342.2,111.8L342.1,111.6L342.0,111.7L341.7,112.5L341.5,112.9L341.5,112.9L341.8,112.9L341.9,113.4L342.0,113.8L342.1,114.6L342.1,114.9L342.2,115.7L342.2,115.7L342.2,115.7L341.8,116.8L341.0,118.2L341.0,118.2L340.9,118.6L340.9,119.4L341.0,120.1L341.1,120.2L342.1,122.2L343.8,120.1L345.7,119.0L347.8,119.0L349.0,119.5L350.5,120.1L351.9,121.0L352.9,121.6L354.8,124.9L356.2,124.8L358.1,124.0L358.8,123.7L359.8,123.6L363.4,123.2L368.4,123.4L369.0,123.4L369.7,123.6L374.3,124.5L377.9,126.6L380.1,123.9L383.7,121.8L386.3,119.6L387.9,118.3L388.7,117.8L391.4,116.3L394.9,117.2L397.6,120.2L397.6,120.2L399.0,125.4L402.7,127.7L405.1,126.4L411.4,126.9L415.2,126.5L415.8,122.8L418.1,121.2L424.0,127.5L430.6,127.9L437.8,132.4L440.4,132.9L442.5,134.4L444.7,137.9L447.7,140.5L454.6,145.0L457.1,148.4L459.2,152.1L461.9,153.7L467.3,153.4L472.5,157.4L475.9,159.2L527.2,158.7L531.2,146.3L536.1,144.2L538.5,138.5L539.9,132.3L538.7,127.0L533.4,125.2L529.9,122.6L529.2,117.9L531.5,76.2L527.3,73.5L422.4,7.0L418.6,10.2L417.7,12.1L413.2,12.6L414.8,16.1L412.0,19.7L404.8,25.1L403.6,28.6L404.7,30.9L406.9,31.7L408.6,30.9L408.6,33.1L413.7,36.7L414.3,38.5L413.4,41.3L413.1,38.9L411.8,37.5L407.5,35.7L404.4,35.3L398.7,36.0L397.1,35.3L396.0,36.8L396.6,38.4L402.1,44.7L396.4,42.5L395.8,46.0L397.0,46.9L400.2,46.9L402.9,51.3L404.0,51.2L405.3,54.1L408.5,52.7L410.9,56.8L408.5,56.3L407.6,57.5L403.1,56.2L400.5,56.3L396.4,51.2L392.5,51.9L389.7,53.4L385.5,50.8L383.0,51.2L382.3,52.5L384.2,55.6L385.6,55.3L384.5,59.6L379.0,61.4L382.2,61.4L382.4,62.6L384.8,62.9L385.2,67.0L384.2,67.9L387.3,67.9L388.0,71.3L386.0,72.9L376.4,73.0L373.0,72.6L373.7,75.1L375.7,76.6L377.6,79.5L378.3,78.7L382.1,82.1L381.6,83.5L374.4,85.3L372.2,87.4L370.9,87.5L363.8,90.0L362.8,88.8L363.5,86.0L358.0,85.9L355.8,86.5L351.6,93.0L351.4,93.5Z " data-id="TZ.MA" data-name="Mara" id="TZ.MA"/>
utf-8utf-8<path d="M824.6,331.3L824.6,331.4L792.0,382.9L787.7,386.2L783.0,391.7L782.1,398.7L782.0,403.8L783.2,408.3L785.0,411.1L788.2,420.3L788.9,424.3L784.4,424.1L779.4,420.4L771.4,422.0L766.7,423.8L761.0,425.3L755.4,423.8L750.9,422.1L746.3,422.1L741.1,427.3L727.0,446.1L726.2,448.6L726.9,451.3L726.8,454.3L724.5,464.6L722.3,471.6L713.6,484.1L711.7,489.8L709.5,502.2L706.4,507.6L695.2,516.1L696.4,527.3L701.7,529.9L699.7,533.0L700.3,537.4L702.3,540.0L704.8,541.8L707.4,539.0L709.3,534.8L713.3,531.4L716.3,527.4L719.7,525.8L722.8,522.8L724.7,510.7L726.1,507.8L735.6,511.6L738.8,513.1L739.8,518.0L745.7,525.8L747.9,528.0L750.5,525.1L755.3,525.4L759.1,524.1L759.0,521.1L760.5,519.8L762.7,520.5L764.2,519.0L778.4,514.7L784.7,516.3L787.4,515.8L789.9,514.5L796.5,515.1L802.3,518.4L804.8,521.7L812.2,524.3L814.6,528.1L817.1,529.4L820.1,529.2L823.1,531.8L826.2,532.6L828.2,530.9L829.8,531.7L833.1,531.3L834.3,532.0L841.7,528.7L843.4,526.7L847.9,526.1L849.4,524.7L857.2,526.2L857.2,526.2L859.2,522.2L859.4,515.4L860.5,510.6L862.6,507.1L866.5,499.5L866.7,494.6L867.3,492.4L866.1,491.7L869.2,489.5L872.5,484.0L875.3,477.8L876.6,473.6L876.5,471.9L874.8,470.0L875.1,468.5L878.0,466.4L880.4,462.1L884.7,448.8L884.1,447.5L881.6,450.5L884.2,444.1L886.7,438.8L890.3,435.3L889.5,429.4L885.2,430.9L885.4,429.4L887.5,426.5L888.9,427.0L889.9,425.5L889.7,419.5L887.9,415.6L889.9,415.7L891.3,413.8L893.1,408.3L893.6,410.2L892.3,416.3L892.8,417.9L894.0,416.6L897.1,410.9L898.3,405.1L898.1,402.8L893.8,401.1L896.4,399.7L898.2,397.9L898.7,394.4L898.2,391.5L895.9,390.3L825.2,331.9L824.6,331.3Z " data-id="TZ.TN" data-name="Tanga" id="TZ.TN"/>
utf-8utf-8<path d="M134.5,468.5L131.6,464.6L130.5,462.0L128.0,458.3L127.2,451.9L125.6,451.1L123.9,452.0L121.8,456.2L120.4,457.7L118.4,456.0L115.7,451.5L106.1,444.6L101.8,444.3L76.1,444.5L72.9,447.0L66.7,454.7L63.0,458.3L58.4,459.5L38.5,459.8L36.8,462.1L45.2,470.3L48.6,479.4L54.2,519.6L56.7,528.3L62.1,540.1L64.9,549.2L69.2,552.2L72.1,556.0L71.0,562.6L72.6,566.9L72.9,571.7L63.9,578.5L61.0,587.8L58.8,591.1L63.1,595.7L67.1,598.4L69.1,604.0L72.5,609.1L74.5,617.0L80.5,624.8L82.7,626.4L83.3,627.8L87.8,631.2L89.2,630.1L99.4,626.6L119.7,625.5L127.7,628.9L131.6,642.8L131.4,652.0L135.4,658.9L148.5,660.0L163.7,661.2L168.7,668.1L169.5,679.6L171.3,695.7L173.0,710.7L185.1,713.0L200.3,715.3L221.0,719.3L219.5,715.5L222.2,706.5L226.0,697.9L229.4,692.3L239.0,688.2L242.5,680.7L246.4,669.2L246.7,658.0L268.0,649.8L272.9,646.8L275.3,636.2L276.4,625.4L276.0,614.4L276.6,603.4L279.5,593.6L285.1,585.8L287.8,584.0L290.6,579.4L291.2,577.4L289.3,572.3L287.7,571.2L274.2,569.9L270.4,568.3L267.6,564.9L264.3,558.8L260.0,556.5L253.5,552.1L252.6,550.4L252.6,548.2L244.3,543.2L239.7,538.2L237.6,534.6L236.1,530.8L234.6,523.7L232.9,520.0L233.0,514.8L229.5,509.1L228.6,505.9L220.7,503.3L217.6,503.4L213.3,502.4L207.6,499.7L204.8,500.4L194.7,509.1L187.9,511.8L181.0,509.4L179.0,511.3L177.6,510.1L172.3,511.3L170.2,511.0L165.0,507.6L163.3,508.4L159.4,507.9L156.0,509.1L152.9,504.0L151.1,503.2L145.5,504.7L144.0,500.0L144.7,497.6L143.5,493.9L143.6,491.8L141.3,491.4L135.2,486.1L133.6,481.4L136.3,479.7L136.6,477.1L134.5,468.5Z " data-id="TZ.KA" data-name="Katavi" id="TZ.KA"/>
utf-8utf-8<path d="M359.8,123.6L358.8,123.7L358.1,124.0L358.8,123.7L359.8,123.6Z M369.0,123.4L369.7,123.6L369.0,123.4L368.4,123.4L369.0,123.4Z M399.0,124.4L399.6,130.5L392.3,135.7L388.1,136.7L383.6,140.3L381.8,139.8L378.4,144.0L370.9,147.2L368.8,150.1L370.6,153.8L369.3,154.7L376.3,164.0L383.7,172.0L388.0,174.2L392.2,177.2L394.4,182.0L394.1,185.0L392.2,187.1L388.7,187.7L385.1,190.9L378.7,188.8L376.1,190.6L373.9,191.4L370.9,194.9L368.7,195.5L367.3,198.2L370.1,210.1L369.2,214.3L366.5,223.5L365.8,228.5L364.5,231.8L362.2,234.3L359.8,241.9L364.6,242.5L375.6,254.0L383.7,258.5L388.4,259.9L391.9,259.1L395.1,257.1L397.8,258.5L400.5,264.4L404.9,267.5L411.8,268.3L420.5,268.6L428.1,271.1L431.0,276.7L434.1,288.7L437.9,299.1L443.0,306.7L446.9,310.9L451.3,314.5L454.1,312.2L460.9,310.3L476.8,303.0L478.1,300.7L480.6,298.4L484.0,297.7L483.0,293.6L483.4,289.4L485.9,285.4L489.2,282.1L489.9,279.0L491.8,278.1L494.0,278.8L496.5,276.0L498.2,200.6L501.4,201.1L504.9,204.3L507.1,208.2L510.7,209.5L513.7,207.0L518.8,204.4L521.5,199.0L527.9,168.9L527.2,158.7L475.9,159.2L472.5,157.4L467.3,153.4L461.9,153.7L459.2,152.1L457.1,148.4L454.6,145.0L447.7,140.5L444.7,137.9L442.5,134.4L440.4,132.9L437.8,132.4L430.6,127.9L424.0,127.5L418.1,121.2L415.8,122.8L415.2,126.5L411.4,126.9L405.1,126.4L402.7,127.7L399.0,125.4L397.6,120.2L399.0,124.4Z M388.7,117.8L387.9,118.3L386.3,119.6L388.0,118.3L388.7,117.8Z " data-id="TZ.SI" data-name="Simiyu" id="TZ.SI"/>
utf-8utf-8<path d="M132.4,195.9L136.3,197.7L138.5,202.3L138.6,204.0L140.4,206.4L140.6,214.4L137.9,222.0L134.3,228.2L134.1,234.1L136.0,235.2L139.1,232.1L144.0,236.2L145.0,243.8L147.3,251.2L152.6,262.0L152.3,266.0L153.5,273.0L153.6,280.2L155.8,286.8L161.0,292.5L166.4,306.5L168.0,315.2L167.4,320.3L164.2,330.1L163.9,335.3L164.9,341.9L168.2,350.8L171.2,356.3L173.4,352.6L174.4,348.2L176.9,344.8L180.7,343.6L189.7,344.7L196.2,341.1L194.6,335.4L192.8,334.1L192.1,332.2L193.5,329.0L197.2,322.7L196.0,315.3L197.4,308.6L202.8,299.7L211.1,291.5L221.0,286.3L230.5,284.8L239.1,284.0L240.5,275.9L238.9,265.5L237.7,254.7L239.8,247.6L243.9,241.7L246.8,239.1L250.4,237.9L253.2,240.1L253.9,244.1L256.3,246.3L259.3,246.7L260.8,243.2L263.0,240.3L265.8,237.7L271.7,234.5L274.7,233.9L283.0,208.7L275.0,201.0L277.4,193.0L261.2,182.3L266.3,171.6L250.6,168.6L247.7,164.1L242.9,162.3L242.8,163.9L242.4,165.5L240.1,163.5L238.9,163.9L237.5,161.3L235.0,160.4L234.3,162.7L230.6,157.0L227.2,159.1L226.4,160.9L226.9,168.9L226.1,169.7L221.5,170.1L223.7,172.6L225.5,176.9L227.1,178.7L227.6,183.0L229.3,184.6L229.0,187.6L225.7,188.2L224.6,186.7L223.8,180.8L221.7,180.2L221.3,175.8L218.9,176.6L217.7,175.0L218.8,182.4L215.6,183.1L215.9,181.5L214.3,178.9L211.4,180.9L211.2,182.0L213.0,190.4L212.4,191.8L208.5,195.4L207.2,193.4L207.2,190.8L208.0,185.6L207.1,183.0L205.4,183.1L205.5,180.5L206.7,177.9L207.0,175.5L210.8,172.6L214.4,170.7L209.0,171.5L206.1,172.6L204.2,171.9L204.2,166.1L201.6,164.2L201.4,160.9L204.9,160.6L206.4,159.9L208.8,156.2L208.2,153.8L208.8,152.1L206.9,151.2L205.4,148.8L205.0,145.4L206.5,145.7L204.4,143.3L205.1,141.7L202.3,141.1L198.5,144.1L194.4,145.5L193.7,144.9L187.2,144.6L168.6,135.3L164.3,134.6L159.4,136.4L153.1,137.5L150.2,136.8L136.2,163.6L125.9,169.1L122.6,179.5L126.8,184.8L131.4,189.2L132.4,195.9Z M214.6,133.9L210.4,126.6L208.5,132.0L208.2,134.7L210.3,133.9L208.4,137.8L207.0,137.4L207.6,141.2L212.1,141.3L210.8,142.5L214.0,148.3L213.0,150.7L213.6,155.3L214.7,155.9L220.4,151.2L220.5,149.3L218.5,144.7L218.2,141.2L215.7,140.0L214.6,133.9Z " data-id="TZ.GE" data-name="Geita" id="TZ.GE"/>
utf-8utf-8<path d="M523.8,850.7L515.0,850.1L506.3,843.1L507.8,824.2L485.7,815.3L485.8,810.0L472.7,805.5L470.2,812.4L468.1,814.0L465.1,813.6L461.5,815.1L458.5,817.4L455.9,823.0L452.6,826.9L448.2,828.8L443.4,828.9L434.5,827.5L425.2,830.1L419.8,830.2L414.4,829.6L409.6,831.8L408.6,834.8L406.0,835.8L399.2,833.1L394.1,834.3L390.2,838.1L384.6,847.9L385.1,853.0L388.1,857.0L390.1,861.5L391.6,866.2L389.6,867.4L389.0,869.6L392.2,870.4L393.1,871.8L393.3,875.1L395.3,878.2L400.2,888.1L402.9,892.4L406.5,893.5L410.1,897.8L409.7,901.2L409.8,901.3L411.9,903.3L417.2,910.0L419.9,911.4L428.7,922.2L431.4,923.3L432.6,928.6L437.2,934.4L446.2,947.3L449.9,953.9L450.9,957.5L450.3,966.6L453.2,974.4L454.7,984.8L452.5,996.3L452.9,998.6L454.6,1002.0L454.9,1003.9L453.5,1008.6L453.6,1009.2L457.3,1009.0L458.4,1009.8L461.3,1009.6L464.0,1008.2L472.2,1002.4L476.6,995.7L483.6,991.9L491.8,984.9L492.4,978.0L494.7,975.3L497.9,974.0L501.3,974.0L504.6,973.2L505.9,969.7L514.1,957.4L513.3,950.5L509.8,944.5L510.2,939.3L508.9,935.5L506.9,933.4L505.3,930.5L506.2,927.6L509.4,925.7L516.2,922.6L525.5,911.7L531.7,908.1L540.0,899.6L543.6,897.1L546.4,893.8L550.0,891.3L554.4,889.0L557.8,886.2L560.6,883.2L560.5,878.2L559.3,873.4L542.1,857.8L536.0,846.8L534.0,845.8L532.4,847.2L530.6,848.2L523.8,850.7Z " data-id="TZ.NJ" data-name="Njombe" id="TZ.NJ"/>
utf-8</g>
</svg>
