<?xml version="1.0" ?>
<!DOCTYPE svg
  PUBLIC '-//W3C//DTD SVG 1.1//EN'
  'http://www.w3.org/Graphics/SVG/1.1/DTD/svg11.dtd'>
<svg enable_background="new 0 0 1000 559" height="559px" pretty_print="True" style="stroke-linejoin: round; stroke:#000; fill: none;" version="1.1" viewBox="0 0 1000 559" width="1000px" xmlns="http://www.w3.org/2000/svg" xmlns:xlink="http://www.w3.org/1999/xlink">
utf-8<defs>
utf-8utf-8<style type="text/css">
<![CDATA[path { fill-rule: evenodd; }]]>utf-8utf-8</style>
utf-8</defs>
utf-8<metadata>
utf-8utf-8<views>
utf-8utf-8utf-8<view h="559.963544305" padding="0" w="1000">
utf-8utf-8utf-8utf-8<proj flip="auto" id="robinson" lon0="34.158525063"/>
utf-8utf-8utf-8utf-8<bbox h="130.14" w="232.83" x="287.4" y="-873.46"/>
utf-8utf-8utf-8</view>
utf-8utf-8</views>
utf-8</metadata>
utf-8<g class="" id="provinces">
utf-8utf-8<path d="M752.1,463.9L750.8,464.7L750.8,464.7L752.6,467.7L754.1,468.5L756.2,471.4L761.3,476.2L775.9,491.1L779.1,493.5L783.3,495.4L780.7,497.3L777.2,494.9L770.3,492.9L765.8,491.1L763.7,491.7L757.2,486.0L756.8,484.6L760.2,482.9L757.8,475.6L751.5,468.5L743.2,465.7L743.5,463.5L741.6,464.6L736.0,464.2L738.0,460.1L735.4,458.0L731.3,459.9L732.5,455.6L736.4,454.2L735.8,451.8L734.5,453.3L730.5,454.8L725.5,459.5L720.9,460.4L722.5,459.5L724.7,456.2L724.7,454.5L727.9,452.7L728.8,450.2L728.2,448.6L723.4,447.4L725.7,449.8L723.1,450.5L721.9,453.4L719.3,451.2L719.2,449.4L718.1,449.7L717.1,452.0L717.3,453.7L714.2,451.4L715.9,449.4L713.7,446.7L714.1,445.5L710.6,443.2L709.6,445.1L707.3,441.7L705.6,444.4L701.1,441.7L698.0,441.5L702.5,444.3L704.0,447.2L703.8,448.4L701.6,449.4L699.9,448.1L701.6,445.1L698.1,442.6L696.1,441.7L690.9,437.8L689.0,439.3L690.7,439.5L690.1,440.7L691.2,442.9L690.0,443.5L686.6,440.7L685.1,442.2L683.8,440.7L684.9,440.3L681.7,436.8L681.9,433.7L679.0,432.5L679.3,435.9L678.7,436.4L671.6,430.2L670.9,429.7L671.5,432.8L671.2,434.5L669.7,436.2L670.8,437.6L670.5,440.9L671.7,443.4L672.1,447.1L671.2,448.4L674.7,447.8L680.4,449.8L675.8,450.9L676.3,454.7L674.5,454.8L673.3,453.6L669.8,454.2L666.8,456.1L663.7,455.4L657.2,459.9L653.4,462.2L651.5,462.4L647.2,460.4L647.8,463.4L635.8,468.6L632.3,470.8L630.8,475.6L620.8,478.4L614.8,482.9L613.3,484.4L615.4,491.1L624.2,492.5L628.6,489.5L637.2,490.1L641.9,492.1L649.7,497.5L651.2,498.3L654.6,501.1L657.2,501.8L659.9,504.0L667.3,501.6L671.9,504.5L676.1,506.7L677.8,508.3L682.9,519.6L683.0,523.8L682.6,524.7L681.1,525.2L682.0,527.5L684.1,527.7L687.7,529.4L688.9,532.0L684.9,534.3L686.3,538.5L691.1,538.1L693.9,541.1L692.3,544.0L693.5,545.9L695.8,545.8L696.5,547.4L698.2,547.8L701.9,554.4L698.2,554.9L695.3,556.8L696.0,556.9L699.8,557.0L702.3,556.5L706.1,557.8L708.5,557.8L714.3,555.3L723.4,549.2L724.3,547.5L727.5,546.7L729.8,540.6L733.7,533.7L735.3,532.8L743.5,530.4L747.1,528.0L749.0,527.4L753.1,528.0L757.6,527.4L758.7,526.3L763.0,526.4L765.3,528.9L767.8,529.2L769.0,527.1L770.7,521.8L774.9,520.0L779.3,517.0L782.3,518.8L781.6,516.7L782.9,512.4L786.2,507.8L788.2,506.9L795.4,506.9L799.8,508.3L807.8,514.9L809.1,515.4L812.9,514.8L817.3,515.0L819.8,511.5L825.1,513.4L830.3,514.3L831.8,512.2L838.0,511.5L842.5,509.5L839.7,505.9L838.8,502.9L839.1,495.9L841.3,492.8L841.3,491.4L844.3,490.6L846.2,491.4L849.3,491.1L847.4,486.3L844.6,485.2L843.7,486.1L840.0,483.9L831.3,482.9L829.9,483.9L828.8,481.8L826.3,482.6L819.8,482.6L818.7,482.9L814.4,489.2L812.4,489.5L810.0,488.9L804.3,486.0L803.8,482.1L802.4,482.0L798.9,487.9L798.6,489.7L796.3,491.8L786.6,494.2L784.5,494.1L775.2,488.9L755.2,468.0L752.1,463.9Z " data-id="UA.KR" data-name="Crimea" id="UA.KR"/>
utf-8utf-8<path d="M563.3,411.0L563.3,411.0L563.3,411.0L564.8,408.3L564.8,408.3L559.1,406.0L549.4,406.6L544.8,403.7L545.9,405.3L553.4,411.1L556.5,414.7L557.2,410.1L560.6,410.1L563.3,411.0Z M459.5,294.8L459.8,296.0L461.1,298.0L458.0,298.4L455.7,300.0L456.8,301.0L457.4,305.0L458.9,305.4L461.9,308.2L464.4,315.8L469.0,319.0L468.6,322.1L470.9,324.1L470.7,326.9L472.0,329.1L475.4,330.9L477.9,330.5L480.3,331.0L481.5,329.9L486.6,331.1L487.0,332.4L488.8,332.5L488.9,331.4L492.3,330.1L493.4,333.6L496.2,334.3L498.2,336.5L498.7,337.9L498.0,345.7L503.8,355.2L509.7,356.0L510.5,356.9L517.0,355.5L518.2,356.7L517.5,359.4L516.0,360.1L516.4,362.1L522.9,363.6L526.1,367.2L527.0,367.3L527.6,371.1L526.1,374.8L524.5,376.3L518.3,376.4L517.0,377.8L514.2,378.0L515.9,381.9L522.6,387.0L526.2,400.8L530.3,401.6L535.0,402.7L539.7,400.1L543.2,394.3L538.6,388.7L543.8,392.0L547.6,386.9L548.4,387.8L546.4,391.1L542.6,399.5L543.0,400.5L547.2,401.7L548.4,401.6L550.0,399.3L553.4,399.1L559.1,400.9L564.0,400.7L565.6,396.2L565.5,393.1L562.7,390.1L562.9,386.8L566.3,384.6L566.8,379.1L563.5,379.8L562.8,378.6L564.9,374.7L560.5,374.8L558.6,374.1L558.5,370.9L559.7,368.1L556.4,366.4L555.5,362.0L554.8,361.1L550.0,359.2L555.3,360.8L556.2,361.5L561.1,369.9L560.0,372.8L566.0,373.5L564.8,376.9L568.3,378.9L569.2,382.0L566.5,388.7L567.2,391.6L568.7,393.8L569.0,394.2L571.9,393.9L575.4,392.6L580.3,392.5L582.6,388.4L589.5,389.1L591.6,386.0L593.4,385.5L599.1,386.4L599.6,383.6L606.2,385.0L609.5,387.0L613.3,386.7L621.0,385.2L622.3,384.4L620.5,383.9L615.8,384.0L615.0,382.5L620.4,381.7L622.6,380.0L625.6,378.9L622.4,378.1L621.6,375.3L625.8,376.8L627.2,374.1L624.2,371.1L618.6,369.0L620.3,361.9L623.2,362.3L628.5,360.4L629.1,358.9L626.7,355.0L627.2,351.7L625.2,347.8L621.1,346.6L622.4,343.1L624.0,345.5L624.6,338.1L622.6,336.1L622.2,334.3L622.2,333.7L617.4,333.1L617.4,330.6L616.5,327.2L615.4,325.8L617.7,323.6L620.2,323.4L618.4,320.6L617.7,315.8L618.1,311.7L616.8,310.4L615.3,307.1L614.6,306.7L613.6,306.1L612.8,304.1L607.2,301.7L605.8,304.8L603.7,305.3L595.6,306.4L595.4,308.8L597.4,310.5L595.5,310.9L595.7,314.5L594.5,318.4L584.5,319.7L580.6,318.5L577.9,318.7L573.6,316.7L570.6,317.7L568.7,321.4L567.7,322.0L556.8,317.7L556.7,318.5L551.4,318.8L550.4,318.2L549.8,311.6L544.0,307.7L540.0,303.2L542.8,301.2L541.9,297.8L534.2,296.1L529.4,298.2L527.1,296.0L522.1,296.7L513.1,295.8L511.6,293.5L509.1,292.0L508.7,290.2L501.5,288.8L497.5,290.3L496.8,291.7L493.5,293.3L490.8,291.3L486.8,291.8L482.0,291.6L478.4,292.9L477.7,294.1L470.9,292.8L462.3,292.8L461.2,294.9L459.5,294.8Z " data-id="UA.MY" data-name="Mykolayiv" id="UA.MY"/>
utf-8utf-8<path d="M437.8,77.7L436.3,78.8L437.3,82.6L437.0,86.4L438.9,94.0L442.0,94.1L447.1,97.0L447.2,100.5L448.0,102.3L452.2,103.6L455.0,107.1L454.9,111.5L456.4,111.1L463.8,112.1L466.8,111.3L472.3,110.6L474.5,113.5L477.3,114.3L479.2,116.4L480.5,123.5L489.2,128.7L492.3,128.4L496.7,129.3L498.6,128.0L504.5,128.1L508.1,125.7L512.1,125.2L515.1,120.8L516.3,120.7L520.0,122.8L522.4,125.0L526.8,125.9L527.4,129.3L525.3,130.0L528.3,134.9L532.3,135.8L532.1,138.0L535.8,139.7L539.1,139.7L542.0,139.1L542.8,137.6L546.6,135.7L550.3,136.7L552.9,135.7L554.9,137.7L562.5,138.8L568.0,139.2L576.2,135.5L576.9,134.2L582.6,129.9L584.0,126.6L585.1,122.2L584.6,118.1L585.7,117.1L585.7,114.2L587.0,112.0L584.2,109.5L584.9,96.6L583.2,95.3L585.0,92.0L584.9,90.7L583.1,90.5L582.4,92.4L577.5,91.8L577.3,89.7L574.7,89.3L570.0,87.4L570.9,85.6L570.4,81.9L573.1,81.2L573.2,71.6L571.2,70.7L569.6,68.1L572.1,68.5L576.2,67.9L574.4,62.2L574.4,59.4L577.0,60.0L574.6,50.3L573.1,49.0L573.7,46.6L570.2,44.2L567.3,39.7L568.8,36.2L572.2,31.8L574.7,31.9L581.8,29.1L582.2,28.3L580.5,26.2L581.2,25.1L581.4,21.4L582.3,22.3L586.5,20.8L586.0,19.5L583.8,19.1L579.5,15.6L577.0,15.0L575.5,10.9L577.8,4.7L578.1,1.7L576.7,0.9L572.2,0.8L566.7,0.0L560.8,4.5L558.6,4.5L553.8,8.4L547.5,7.4L542.8,8.0L531.3,3.6L528.8,4.3L523.8,2.9L521.7,3.3L521.4,5.6L523.4,8.4L521.4,11.5L521.6,15.7L520.5,18.3L518.4,19.8L511.5,22.6L501.6,23.4L500.5,22.9L499.3,19.5L497.8,18.5L486.5,18.7L476.8,17.3L471.8,17.3L467.8,18.7L465.6,22.3L456.7,19.9L449.3,20.3L447.4,23.9L449.0,24.0L444.0,29.1L443.3,31.0L438.7,34.6L433.4,47.0L432.5,51.6L431.1,52.8L432.1,55.6L435.7,57.0L434.8,58.4L436.7,61.2L437.3,64.9L439.1,65.5L441.2,69.1L441.2,71.3L438.4,73.5L437.8,77.7L437.8,77.7Z " data-id="UA.CH" data-name="Chernihiv" id="UA.CH"/>
utf-8utf-8<path d="M157.2,31.0L158.3,32.5L163.6,33.1L162.9,33.5L163.4,37.3L162.8,38.9L160.2,41.4L157.6,45.1L158.1,51.0L162.9,53.6L163.4,55.7L162.0,57.1L161.9,60.2L162.8,62.1L163.8,70.6L167.0,69.3L173.2,67.6L176.7,68.6L177.5,68.0L177.6,71.8L181.4,75.2L185.1,77.9L189.6,79.6L192.7,81.8L191.7,85.8L188.0,86.5L188.3,89.6L192.1,89.4L195.2,92.0L196.7,96.2L195.2,97.0L191.3,97.4L191.5,104.8L192.9,105.3L192.7,106.7L190.2,106.6L186.9,108.9L186.6,110.2L187.5,115.3L186.3,119.8L184.1,119.7L179.1,117.6L179.0,117.0L175.7,114.9L172.8,114.9L165.4,118.4L160.1,116.9L160.1,118.8L161.4,120.9L160.8,121.7L156.8,121.2L157.6,125.8L156.2,126.5L148.8,125.7L148.0,127.0L151.0,129.2L150.3,134.3L152.0,136.3L153.8,136.8L150.2,141.0L147.3,143.6L147.7,144.3L154.1,143.8L154.9,144.3L154.0,149.7L155.1,150.7L156.3,156.9L162.6,161.2L166.8,163.2L166.8,162.1L169.0,162.2L168.9,160.1L170.5,158.3L171.0,156.1L169.7,154.3L170.0,152.8L177.2,153.9L178.3,153.0L180.2,153.6L181.7,152.4L190.5,151.0L195.0,146.5L197.5,145.8L200.4,146.4L203.7,145.8L208.4,147.2L211.3,145.9L212.6,151.4L213.1,153.5L215.6,152.5L221.2,146.8L224.8,146.8L233.6,138.9L233.5,137.8L240.8,132.0L240.7,129.8L245.5,127.1L250.1,127.9L252.0,126.4L255.1,125.0L256.9,123.2L259.0,125.9L261.7,126.4L263.4,124.6L261.0,121.4L261.6,118.6L263.0,116.6L264.0,112.8L261.2,109.3L260.4,106.7L260.7,103.4L259.0,100.4L260.0,99.3L257.9,93.1L262.4,90.9L264.3,87.6L264.3,84.7L268.1,76.8L265.9,73.3L269.8,72.0L270.3,70.8L269.0,69.1L268.7,64.6L273.8,67.3L272.9,62.3L277.2,60.6L277.1,60.4L278.3,56.9L276.6,53.4L273.5,53.3L265.4,51.4L261.0,53.7L257.7,53.2L254.4,53.9L253.6,53.3L254.2,49.5L249.3,48.6L247.7,42.9L246.2,42.2L239.0,41.6L233.8,43.2L230.1,42.7L219.3,39.1L207.3,38.8L204.7,35.7L192.0,35.3L190.3,34.7L186.4,32.3L180.9,32.1L169.1,30.3L164.6,31.1L157.2,31.0Z " data-id="UA.RV" data-name="Rivne" id="UA.RV"/>
utf-8utf-8<path d="M236.1,268.5L229.4,266.8L226.3,267.3L224.4,266.4L223.7,262.4L222.8,261.5L222.6,266.2L221.6,266.3L218.4,259.2L215.9,261.1L214.5,260.5L213.3,262.4L210.7,263.0L207.9,262.1L203.4,257.2L201.5,259.9L199.5,258.0L195.3,257.2L194.5,256.7L192.6,258.1L191.3,261.5L192.2,263.5L194.8,273.9L194.1,276.9L189.1,276.0L186.6,276.2L182.5,277.6L178.6,280.4L170.8,289.2L171.5,291.6L169.7,292.4L163.6,299.4L161.6,303.4L162.8,309.2L164.5,311.4L165.9,315.6L163.8,321.4L163.9,324.5L164.7,324.3L168.8,323.7L172.1,322.4L174.2,320.5L178.7,312.9L180.9,311.5L208.0,308.9L211.5,307.7L219.6,306.8L223.1,305.9L230.9,304.8L232.3,301.7L234.8,299.3L235.4,297.8L236.1,289.4L238.6,289.4L251.6,286.8L253.2,286.1L253.9,283.6L255.6,282.6L256.0,281.1L260.6,284.2L262.4,282.8L261.1,278.6L264.4,276.7L270.5,279.6L274.6,276.4L283.3,278.9L285.2,279.0L290.0,274.6L296.4,275.0L300.5,271.1L300.5,271.1L299.9,270.4L298.0,265.9L293.7,260.7L291.5,260.1L290.9,260.5L289.1,262.1L287.4,261.0L284.2,261.8L285.8,262.5L285.2,264.2L282.0,263.6L277.9,265.0L268.3,263.5L265.3,266.1L263.9,266.4L261.5,263.5L261.6,262.0L259.0,265.6L256.1,262.5L256.9,266.3L254.6,266.4L251.1,264.8L251.4,266.8L253.6,267.3L256.0,269.4L250.3,269.7L251.5,272.1L250.7,272.6L247.6,271.6L243.4,267.1L242.3,266.5L238.6,266.8L237.5,268.0L236.1,268.5Z " data-id="UA.CV" data-name="Chernivtsi" id="UA.CV"/>
utf-8utf-8<path d="M134.5,199.7L127.6,197.3L123.5,198.2L120.0,198.2L119.3,200.4L119.9,203.1L118.5,206.7L120.6,208.7L117.6,211.5L113.9,212.1L114.4,214.1L117.9,213.1L118.3,217.2L123.5,219.5L122.5,221.1L112.7,223.6L107.2,224.6L103.2,224.1L99.8,225.9L97.7,225.2L95.3,226.2L91.7,226.7L86.0,226.0L82.3,228.3L80.7,233.3L77.4,236.3L77.0,242.9L78.5,245.7L77.1,253.5L79.5,254.0L81.7,254.9L85.6,258.3L87.6,259.1L91.1,259.0L96.6,265.0L98.8,265.7L100.7,271.0L102.2,271.3L105.2,269.2L108.6,268.5L112.6,269.2L113.2,275.2L115.4,279.0L118.0,279.7L124.7,278.0L126.2,280.7L127.6,280.7L134.8,285.6L137.8,289.4L137.1,292.6L138.4,294.9L142.6,298.1L144.8,301.0L141.9,308.8L144.2,309.8L146.7,311.7L147.7,314.6L150.9,316.6L155.6,318.1L162.2,324.7L163.9,324.5L163.8,321.4L165.9,315.6L164.5,311.4L162.8,309.2L161.6,303.4L163.6,299.4L169.7,292.4L171.5,291.6L170.8,289.2L178.6,280.4L182.5,277.6L186.6,276.2L189.1,276.0L194.1,276.9L194.8,273.9L192.2,263.5L191.3,261.5L192.6,258.1L194.5,256.7L194.5,256.3L194.1,252.0L193.4,250.9L188.5,248.2L184.7,247.1L182.7,245.6L183.6,243.7L181.4,243.4L181.5,244.7L177.3,244.3L176.1,247.1L173.6,249.4L172.2,249.9L171.7,246.9L174.8,246.1L175.8,245.2L171.4,244.0L170.1,245.2L170.1,240.3L169.0,239.0L167.9,239.9L166.6,243.5L163.7,239.9L164.0,238.7L155.2,235.7L153.6,233.1L150.0,231.1L150.0,229.9L154.7,230.6L155.1,230.1L149.8,225.5L148.5,226.3L147.1,225.2L146.6,221.2L147.7,219.9L144.4,214.6L143.7,210.9L140.6,205.4L135.3,199.6L134.5,199.7Z " data-id="UA.IF" data-name="Ivano-Frankivs'k" id="UA.IF"/>
utf-8utf-8<path d="M259.0,125.9L256.9,123.2L255.1,125.0L252.0,126.4L250.1,127.9L245.5,127.1L240.7,129.8L240.8,132.0L233.5,137.8L233.6,138.9L224.8,146.8L221.2,146.8L215.6,152.5L213.1,153.5L212.0,154.0L215.5,155.9L212.5,157.8L214.7,164.2L210.8,166.0L211.7,169.6L213.9,175.1L213.8,176.2L216.1,178.5L217.1,180.7L216.2,185.3L219.2,188.4L217.3,194.7L215.4,196.0L216.7,201.2L218.6,205.0L220.1,205.8L221.5,210.1L221.5,211.7L223.0,213.5L220.8,221.1L222.4,226.4L223.5,228.0L222.3,231.2L223.7,233.6L223.3,240.7L225.0,241.3L225.0,244.8L227.8,247.2L226.7,250.2L228.0,251.5L227.9,256.6L231.8,259.6L232.5,261.8L235.6,264.6L236.4,266.4L237.5,268.0L238.6,266.8L242.3,266.5L243.4,267.1L247.6,271.6L250.7,272.6L251.5,272.1L250.3,269.7L256.0,269.4L253.6,267.3L251.4,266.8L251.1,264.8L254.6,266.4L256.9,266.3L256.1,262.5L259.0,265.6L261.6,262.0L261.5,263.5L263.9,266.4L265.3,266.1L268.3,263.5L277.9,265.0L282.0,263.6L285.2,264.2L285.8,262.5L284.2,261.8L287.4,261.0L289.1,262.1L290.9,260.5L291.5,260.1L292.2,256.3L291.4,247.1L289.5,240.6L288.5,239.0L289.6,237.4L288.7,235.7L288.8,233.2L292.2,229.1L293.1,225.8L298.1,225.2L299.0,223.4L301.9,223.4L308.5,226.0L310.7,224.1L314.6,223.2L313.4,218.9L312.1,216.6L312.8,215.3L307.9,208.0L309.5,206.5L308.5,204.0L304.1,203.7L304.2,200.8L302.5,199.9L302.0,198.0L305.1,196.5L304.3,193.6L305.7,189.6L302.3,187.3L301.7,186.0L302.7,184.7L305.3,184.5L304.7,182.5L306.5,181.9L307.3,180.9L295.4,178.1L291.7,173.8L290.4,171.2L288.3,170.6L288.0,168.0L289.8,163.9L292.9,162.5L292.9,160.4L290.4,158.8L291.3,156.0L290.0,154.5L290.7,152.3L288.4,150.3L287.1,146.2L285.3,148.3L282.1,148.7L278.2,145.7L276.2,145.0L275.4,143.1L265.5,137.4L265.3,136.6L266.0,130.0L262.6,126.8L261.7,126.4L259.0,125.9Z " data-id="UA.KM" data-name="Khmel'nyts'kyy" id="UA.KM"/>
utf-8utf-8<path d="M147.1,141.6L145.1,139.7L143.5,140.0L139.8,138.4L139.1,139.7L134.9,139.4L127.5,140.0L125.8,137.8L123.4,136.7L122.5,135.3L120.1,135.0L117.5,133.9L117.5,135.5L115.4,135.5L114.8,133.5L112.3,132.0L112.5,130.7L116.3,129.3L116.1,128.0L113.9,126.1L110.2,125.9L106.0,121.9L105.0,121.6L100.3,124.0L98.0,123.1L95.1,120.8L94.6,119.5L91.5,120.2L91.6,120.2L90.5,122.0L91.5,125.3L90.8,128.3L87.5,129.8L87.6,133.6L86.7,135.9L84.0,136.9L74.0,137.0L70.6,138.4L69.0,142.3L65.2,146.1L58.7,150.6L47.6,161.7L46.2,163.8L42.4,167.1L37.3,174.3L35.3,176.2L32.3,180.2L29.5,185.2L25.4,189.7L21.8,194.3L20.7,197.0L22.6,200.6L23.3,203.5L26.7,208.4L28.3,214.8L26.7,223.0L30.0,223.9L35.5,227.4L36.0,230.1L37.5,233.0L37.6,233.2L38.6,233.7L39.7,238.6L46.2,244.2L52.1,243.1L56.9,248.8L63.9,250.0L64.7,251.6L66.9,250.2L68.4,252.5L71.2,253.2L75.7,253.0L77.1,253.5L78.5,245.7L77.0,242.9L77.4,236.3L80.7,233.3L82.3,228.3L86.0,226.0L91.7,226.7L95.3,226.2L97.7,225.2L99.8,225.9L103.2,224.1L107.2,224.6L112.7,223.6L122.5,221.1L123.5,219.5L118.3,217.2L117.9,213.1L114.4,214.1L113.9,212.1L117.6,211.5L120.6,208.7L118.5,206.7L119.9,203.1L119.3,200.4L120.0,198.2L123.5,198.2L127.6,197.3L134.5,199.7L135.3,199.6L135.8,198.3L136.4,194.6L138.4,194.6L147.4,190.2L150.8,183.7L153.4,184.2L154.7,181.5L153.6,180.4L153.2,177.7L153.9,176.9L161.8,175.5L167.2,173.5L169.6,171.8L168.9,170.4L171.1,167.9L166.9,163.7L166.8,163.2L162.6,161.2L156.3,156.9L155.1,150.7L154.0,149.7L154.9,144.3L154.1,143.8L147.7,144.3L147.3,143.6L147.1,141.6Z " data-id="UA.LV" data-name="L'viv" id="UA.LV"/>
utf-8utf-8<path d="M212.6,151.4L211.3,145.9L208.4,147.2L203.7,145.8L200.4,146.4L197.5,145.8L195.0,146.5L190.5,151.0L181.7,152.4L180.2,153.6L178.3,153.0L177.2,153.9L170.0,152.8L169.7,154.3L171.0,156.1L170.5,158.3L168.9,160.1L169.0,162.2L166.8,162.1L166.8,163.2L166.9,163.7L171.1,167.9L168.9,170.4L169.6,171.8L167.2,173.5L161.8,175.5L153.9,176.9L153.2,177.7L153.6,180.4L154.7,181.5L153.4,184.2L150.8,183.7L147.4,190.2L138.4,194.6L136.4,194.6L135.8,198.3L135.3,199.6L140.6,205.4L143.7,210.9L144.4,214.6L147.7,219.9L146.6,221.2L147.1,225.2L148.5,226.3L149.8,225.5L155.1,230.1L154.7,230.6L150.0,229.9L150.0,231.1L153.6,233.1L155.2,235.7L164.0,238.7L163.7,239.9L166.6,243.5L167.9,239.9L169.0,239.0L170.1,240.3L170.1,245.2L171.4,244.0L175.8,245.2L174.8,246.1L171.7,246.9L172.2,249.9L173.6,249.4L176.1,247.1L177.3,244.3L181.5,244.7L181.4,243.4L183.6,243.7L182.7,245.6L184.7,247.1L188.5,248.2L193.4,250.9L194.1,252.0L194.5,256.3L194.5,256.7L195.3,257.2L199.5,258.0L201.5,259.9L203.4,257.2L207.9,262.1L210.7,263.0L213.3,262.4L214.5,260.5L215.9,261.1L218.4,259.2L221.6,266.3L222.6,266.2L222.8,261.5L223.7,262.4L224.4,266.4L226.3,267.3L229.4,266.8L236.1,268.5L237.5,268.0L236.4,266.4L235.6,264.6L232.5,261.8L231.8,259.6L227.9,256.6L228.0,251.5L226.7,250.2L227.8,247.2L225.0,244.8L225.0,241.3L223.3,240.7L223.7,233.6L222.3,231.2L223.5,228.0L222.4,226.4L220.8,221.1L223.0,213.5L221.5,211.7L221.5,210.1L220.1,205.8L218.6,205.0L216.7,201.2L215.4,196.0L217.3,194.7L219.2,188.4L216.2,185.3L217.1,180.7L216.1,178.5L213.8,176.2L213.9,175.1L211.7,169.6L210.8,166.0L214.7,164.2L212.5,157.8L215.5,155.9L212.0,154.0L213.1,153.5L212.6,151.4Z " data-id="UA.TP" data-name="Ternopil'" id="UA.TP"/>
utf-8utf-8<path d="M37.7,233.4L33.0,232.6L31.8,231.4L23.5,230.3L21.2,228.4L19.0,229.0L18.6,234.6L14.8,236.1L13.4,240.3L13.5,242.0L11.8,243.5L11.3,249.8L9.5,256.4L4.9,260.7L1.6,263.2L0.9,265.7L1.9,268.6L1.4,270.8L1.9,275.9L3.9,275.6L9.7,276.0L9.1,278.1L12.6,283.7L15.7,287.2L20.9,287.6L22.7,287.3L27.3,291.9L30.4,297.2L35.6,297.2L37.5,296.4L41.8,297.9L45.1,301.0L45.3,304.8L47.2,308.1L49.6,306.3L50.2,303.9L54.9,305.4L59.5,297.9L65.9,298.7L75.6,304.8L79.6,306.4L81.8,304.8L85.0,303.9L97.3,305.2L103.2,309.0L108.5,307.0L110.3,307.1L115.3,308.7L117.6,310.4L123.3,311.6L126.8,310.0L129.6,309.9L133.8,307.7L137.1,308.3L141.4,308.5L141.9,308.8L144.8,301.0L142.6,298.1L138.4,294.9L137.1,292.6L137.8,289.4L134.8,285.6L127.6,280.7L126.2,280.7L124.7,278.0L118.0,279.7L115.4,279.0L113.2,275.2L112.6,269.2L108.6,268.5L105.2,269.2L102.2,271.3L100.7,271.0L98.8,265.7L96.6,265.0L91.1,259.0L87.6,259.1L85.6,258.3L81.7,254.9L79.5,254.0L77.1,253.5L75.7,253.0L71.2,253.2L68.4,252.5L66.9,250.2L64.7,251.6L63.9,250.0L56.9,248.8L52.1,243.1L46.2,244.2L39.7,238.6L38.6,233.7L37.6,233.2L37.7,233.4Z " data-id="UA.ZK" data-name="Transcarpathia" id="UA.ZK"/>
utf-8utf-8<path d="M146.6,30.8L137.1,28.9L127.7,31.6L112.7,33.5L108.1,32.8L94.7,33.7L91.0,37.3L90.3,38.6L89.7,43.1L88.4,44.8L82.7,48.2L75.4,54.0L73.2,54.3L69.8,51.6L67.5,51.0L60.9,49.9L55.8,51.0L54.1,53.2L56.7,57.8L56.3,60.1L59.0,61.3L58.4,62.7L61.7,66.5L58.7,72.0L59.2,73.4L62.2,74.3L65.9,79.6L73.9,85.1L73.9,87.5L76.2,90.2L77.2,94.1L79.8,95.7L80.6,97.8L85.6,101.6L90.5,103.6L90.8,105.7L86.3,106.4L84.7,105.7L81.6,107.9L82.8,110.1L84.2,110.6L86.2,113.4L89.3,114.5L89.8,117.5L91.5,120.2L94.6,119.5L95.1,120.8L98.0,123.1L100.3,124.0L105.0,121.6L106.0,121.9L110.2,125.9L113.9,126.1L116.1,128.0L116.3,129.3L112.5,130.7L112.3,132.0L114.8,133.5L115.4,135.5L117.5,135.5L117.5,133.9L120.1,135.0L122.5,135.3L123.4,136.7L125.8,137.8L127.5,140.0L134.9,139.4L139.1,139.7L139.8,138.4L143.5,140.0L145.1,139.7L147.1,141.6L147.3,143.6L150.2,141.0L153.8,136.8L152.0,136.3L150.3,134.3L151.0,129.2L148.0,127.0L148.8,125.7L156.2,126.5L157.6,125.8L156.8,121.2L160.8,121.7L161.4,120.9L160.1,118.8L160.1,116.9L165.4,118.4L172.8,114.9L175.7,114.9L179.0,117.0L179.1,117.6L184.1,119.7L186.3,119.8L187.5,115.3L186.6,110.2L186.9,108.9L190.2,106.6L192.7,106.7L192.9,105.3L191.5,104.8L191.3,97.4L195.2,97.0L196.7,96.2L195.2,92.0L192.1,89.4L188.3,89.6L188.0,86.5L191.7,85.8L192.7,81.8L189.6,79.6L185.1,77.9L181.4,75.2L177.6,71.8L177.5,68.0L176.7,68.6L173.2,67.6L167.0,69.3L163.8,70.6L162.8,62.1L161.9,60.2L162.0,57.1L163.4,55.7L162.9,53.6L158.1,51.0L157.6,45.1L160.2,41.4L162.8,38.9L163.4,37.3L162.9,33.5L163.6,33.1L158.3,32.5L157.2,31.0L146.6,30.8Z " data-id="UA.VO" data-name="Volyn" id="UA.VO"/>
utf-8utf-8<path d="M532.6,147.2L529.6,146.7L528.6,147.7L530.0,151.6L525.9,153.8L525.4,155.4L523.1,157.7L525.1,162.5L522.4,163.4L520.6,169.8L518.2,174.8L512.9,174.0L511.8,171.4L510.9,171.4L509.1,174.0L507.6,173.4L505.8,174.6L503.0,170.9L498.3,171.1L493.3,173.8L490.5,174.8L489.5,177.0L490.5,177.6L490.1,179.9L491.0,180.8L491.0,184.1L490.4,188.2L489.0,191.0L491.2,193.9L487.7,199.7L485.5,201.0L481.4,205.3L480.0,209.8L474.9,209.4L470.4,211.5L468.0,209.6L463.9,209.0L462.5,211.0L460.8,210.3L457.4,211.4L454.7,209.6L453.5,210.0L452.6,217.4L450.6,216.2L440.1,214.3L439.9,211.4L438.7,211.0L436.0,213.0L436.7,214.8L433.4,214.2L431.4,215.4L428.7,215.6L424.1,221.9L418.5,221.8L417.2,221.2L416.6,218.7L414.3,218.2L413.2,219.4L416.0,224.5L414.6,227.5L411.3,229.7L412.3,233.1L415.5,234.2L414.0,237.6L416.2,239.1L418.2,239.5L419.3,241.6L418.3,242.5L421.5,245.3L423.2,249.7L427.4,250.5L430.1,252.1L428.9,254.6L429.6,255.6L435.6,260.6L439.5,265.6L438.2,272.2L440.7,271.2L443.0,271.6L443.9,272.3L445.7,272.5L450.1,269.7L453.6,270.2L460.3,267.0L462.8,264.1L465.6,265.4L469.6,265.0L470.2,262.1L468.4,261.1L470.8,257.7L471.0,253.6L475.3,250.6L481.0,251.0L482.0,251.6L488.5,251.2L495.0,253.0L498.7,253.2L504.4,251.4L508.4,251.8L511.5,252.9L516.6,251.6L518.6,247.3L520.3,245.7L519.8,239.9L526.2,239.9L527.4,238.3L530.0,238.0L535.0,239.4L539.3,243.8L540.8,243.5L542.5,241.4L546.9,239.1L548.5,240.0L552.4,240.4L553.2,239.7L552.5,236.6L555.0,234.4L557.4,230.4L560.0,230.6L560.4,228.6L564.3,230.7L567.5,231.0L568.8,230.1L570.2,233.4L572.8,235.8L574.1,238.9L576.0,238.8L576.0,237.4L579.8,238.0L581.4,237.2L589.3,235.8L591.8,232.6L590.0,232.0L586.1,222.9L584.1,220.9L584.9,217.7L585.2,215.7L584.8,212.4L576.2,200.3L577.9,197.3L579.8,195.3L577.0,191.2L574.8,187.0L568.5,185.1L566.6,180.7L563.0,179.5L560.7,177.6L558.4,177.6L554.0,172.4L556.1,171.8L555.3,165.8L553.9,165.2L550.0,160.5L546.6,160.2L545.5,159.4L545.7,153.8L544.9,152.9L542.5,153.8L538.8,151.9L535.5,148.3L533.9,147.6L533.3,147.5L532.6,147.2Z " data-id="UA.CK" data-name="Cherkasy" id="UA.CK"/>
utf-8utf-8<path d="M651.5,242.1L647.2,241.1L644.3,239.5L639.7,241.2L639.2,243.3L636.4,240.4L633.4,239.6L627.7,239.2L626.2,238.2L623.0,237.4L622.6,238.1L620.0,237.1L617.5,232.3L618.5,231.0L615.8,229.5L609.8,228.6L607.3,225.6L600.0,221.3L585.2,215.7L584.9,217.7L584.1,220.9L586.1,222.9L590.0,232.0L591.8,232.6L589.3,235.8L581.4,237.2L579.8,238.0L576.0,237.4L576.0,238.8L574.1,238.9L572.8,235.8L570.2,233.4L568.8,230.1L567.5,231.0L564.3,230.7L560.4,228.6L560.0,230.6L557.4,230.4L555.0,234.4L552.5,236.6L553.2,239.7L552.4,240.4L548.5,240.0L546.9,239.1L542.5,241.4L540.8,243.5L539.3,243.8L535.0,239.4L530.0,238.0L527.4,238.3L526.2,239.9L519.8,239.9L520.3,245.7L518.6,247.3L516.6,251.6L511.5,252.9L508.4,251.8L504.4,251.4L498.7,253.2L495.0,253.0L488.5,251.2L482.0,251.6L481.0,251.0L475.3,250.6L471.0,253.6L470.8,257.7L468.4,261.1L470.2,262.1L469.6,265.0L465.6,265.4L462.8,264.1L460.3,267.0L453.6,270.2L450.1,269.7L445.7,272.5L443.9,272.3L442.8,273.9L440.3,274.5L437.2,277.9L433.4,273.9L428.4,279.7L428.7,281.2L427.9,286.0L430.3,288.0L429.7,289.5L429.9,290.1L431.3,289.8L436.6,291.3L437.6,289.3L440.1,289.6L442.1,288.8L443.2,290.3L447.8,294.2L459.5,294.8L461.2,294.9L462.3,292.8L470.9,292.8L477.7,294.1L478.4,292.9L482.0,291.6L486.8,291.8L490.8,291.3L493.5,293.3L496.8,291.7L497.5,290.3L501.5,288.8L508.7,290.2L509.1,292.0L511.6,293.5L513.1,295.8L522.1,296.7L527.1,296.0L529.4,298.2L534.2,296.1L541.9,297.8L542.8,301.2L540.0,303.2L544.0,307.7L549.8,311.6L550.4,318.2L551.4,318.8L556.7,318.5L556.8,317.7L567.7,322.0L568.7,321.4L570.6,317.7L573.6,316.7L577.9,318.7L580.6,318.5L584.5,319.7L594.5,318.4L595.7,314.5L595.5,310.9L597.4,310.5L595.4,308.8L595.6,306.4L603.7,305.3L605.8,304.8L607.2,301.7L612.8,304.1L613.6,306.1L614.6,306.7L614.8,304.3L617.7,299.8L619.6,298.6L621.8,298.7L624.4,292.4L625.3,296.6L626.6,295.7L629.3,291.4L631.7,292.3L635.2,289.5L635.8,288.3L638.1,287.3L638.1,284.0L636.4,282.5L634.0,273.4L630.6,267.7L632.3,266.3L636.9,264.7L637.4,265.2L639.6,263.4L645.0,261.0L649.4,257.1L647.2,256.6L637.1,253.7L634.9,251.8L634.8,248.7L639.4,247.6L642.2,249.4L645.4,247.8L647.3,248.6L649.0,251.0L651.8,245.3L652.9,243.5L651.5,242.1Z " data-id="UA.KH" data-name="Kirovohrad" id="UA.KH"/>
utf-8utf-8<path d="M437.6,78.1L432.7,76.4L429.4,74.2L426.1,73.4L424.1,71.7L423.4,67.2L416.0,62.2L412.6,61.0L405.0,61.2L398.0,62.7L395.9,64.8L390.8,64.1L387.2,60.5L383.7,60.9L380.2,63.8L378.8,63.9L376.6,67.9L371.8,67.4L370.6,68.4L373.2,73.9L372.8,74.8L370.9,85.7L371.5,86.4L373.9,84.7L376.9,86.5L378.6,88.4L380.0,88.8L379.4,95.9L377.7,96.0L378.0,97.6L379.5,98.3L385.1,104.3L384.9,109.2L389.4,110.4L391.6,115.3L389.3,117.3L386.7,122.7L388.6,124.1L387.5,128.2L389.0,129.8L387.8,133.4L385.8,134.7L387.2,135.4L391.8,134.5L394.6,136.8L395.3,138.8L401.4,144.9L402.1,145.1L403.4,151.9L405.1,152.9L405.2,156.8L403.4,157.2L403.2,159.0L404.4,161.5L404.3,163.5L408.2,167.8L406.6,170.4L405.3,171.1L402.4,174.0L397.2,176.9L393.8,178.2L394.4,182.7L397.2,186.2L395.7,187.5L395.7,188.5L398.5,188.8L399.7,194.6L403.4,196.6L403.8,197.6L402.7,199.9L404.8,203.0L404.7,205.2L401.7,207.8L407.2,212.5L411.4,217.0L413.6,217.2L414.3,218.2L416.6,218.7L417.2,221.2L418.5,221.8L424.1,221.9L428.7,215.6L431.4,215.4L433.4,214.2L436.7,214.8L436.0,213.0L438.7,211.0L439.9,211.4L440.1,214.3L450.6,216.2L452.6,217.4L453.5,210.0L454.7,209.6L457.4,211.4L460.8,210.3L462.5,211.0L463.9,209.0L468.0,209.6L470.4,211.5L474.9,209.4L480.0,209.8L481.4,205.3L485.5,201.0L487.7,199.7L491.2,193.9L489.0,191.0L490.4,188.2L491.0,184.1L491.0,180.8L490.1,179.9L490.5,177.6L489.5,177.0L490.5,174.8L493.3,173.8L498.3,171.1L503.0,170.9L505.8,174.6L507.6,173.4L509.1,174.0L510.9,171.4L511.8,171.4L512.9,174.0L518.2,174.8L520.6,169.8L522.4,163.4L525.1,162.5L523.1,157.7L525.4,155.4L525.9,153.8L530.0,151.6L528.6,147.7L529.6,146.7L532.6,147.2L533.3,147.5L534.5,145.7L534.0,144.2L534.1,144.0L534.9,142.8L535.8,139.7L532.1,138.0L532.3,135.8L528.3,134.9L525.3,130.0L527.4,129.3L526.8,125.9L522.4,125.0L520.0,122.8L516.3,120.7L515.1,120.8L512.1,125.2L508.1,125.7L504.5,128.1L498.6,128.0L496.7,129.3L492.3,128.4L489.2,128.7L480.5,123.5L479.2,116.4L477.3,114.3L474.5,113.5L472.3,110.6L466.8,111.3L463.8,112.1L456.4,111.1L454.9,111.5L455.0,107.1L452.2,103.6L448.0,102.3L447.2,100.5L447.1,97.0L442.0,94.1L438.9,94.0L437.0,86.4L437.3,82.6L436.3,78.8L437.8,77.7L437.6,78.1Z M461.6,123.4L458.4,126.2L458.9,133.5L464.6,139.5L464.0,140.9L461.8,140.9L462.4,143.7L460.3,143.9L458.5,142.5L458.7,145.8L457.6,146.1L454.3,144.9L452.4,145.5L452.9,147.2L456.4,153.2L455.6,157.4L457.4,159.9L457.6,161.8L454.3,163.1L452.5,157.8L450.9,157.3L450.1,153.9L448.7,153.9L448.7,150.9L444.7,148.6L444.4,147.3L441.8,145.8L441.4,142.9L436.2,138.4L435.0,135.7L430.5,135.2L430.0,137.5L427.9,137.1L428.2,133.1L427.8,127.5L429.8,124.7L431.1,121.7L429.6,120.0L433.0,119.7L432.8,117.9L438.2,118.0L438.8,119.9L440.2,120.2L441.4,122.6L445.9,125.9L445.7,123.7L451.0,124.0L451.6,122.1L454.3,120.7L453.8,118.7L454.9,117.6L460.5,119.6L461.6,123.4Z " data-id="UA.KV" data-name="Kiev" id="UA.KV"/>
utf-8utf-8<path d="M458.9,471.9L464.1,468.3L475.0,458.1L472.3,459.5L463.6,467.3L462.2,468.9L457.5,472.2L458.9,471.9Z M429.9,290.1L426.9,291.6L425.0,291.5L424.6,293.1L426.4,295.5L425.3,298.0L420.6,298.2L416.3,298.0L411.9,296.4L406.8,298.3L400.3,297.9L396.7,296.6L393.1,294.2L390.1,294.7L390.6,298.3L387.5,301.1L381.1,304.3L382.5,306.0L384.5,307.6L388.5,309.5L390.5,309.2L392.5,306.5L394.2,305.7L397.5,307.5L399.6,312.0L403.4,313.4L400.8,318.4L404.4,320.7L402.8,324.2L403.0,331.5L400.7,335.3L400.3,337.2L405.0,344.4L408.8,344.8L410.7,345.7L415.7,349.9L418.4,354.7L421.1,354.8L422.7,350.9L426.0,351.2L427.1,351.9L429.1,356.4L428.6,357.6L428.4,365.1L425.0,366.4L429.2,368.3L430.3,368.2L432.6,371.5L431.2,373.9L431.1,378.5L431.8,379.3L436.5,381.0L438.4,381.1L443.1,384.7L448.1,384.9L453.4,388.1L455.3,392.7L455.8,398.4L457.0,404.3L454.8,407.7L465.8,415.2L468.9,415.2L466.5,418.7L464.1,419.0L457.4,418.7L452.6,421.1L450.4,417.0L449.0,415.4L445.1,413.8L444.6,414.9L441.7,415.7L441.3,419.2L438.5,419.0L436.6,416.5L431.6,414.0L431.6,411.1L429.1,411.5L426.2,415.7L422.7,412.0L420.0,417.2L418.2,419.2L415.9,409.6L415.3,408.1L413.0,407.1L408.4,409.6L405.5,410.6L401.7,413.0L400.7,414.5L402.9,426.7L407.8,430.6L408.3,432.1L406.9,435.6L405.2,437.5L405.5,445.4L396.0,447.6L394.6,449.2L396.4,455.4L391.4,461.3L387.7,461.6L387.3,464.8L385.7,465.2L383.2,468.1L385.2,470.5L385.9,479.3L381.2,479.7L376.8,478.7L369.3,482.1L369.2,482.6L373.3,484.1L374.4,486.8L378.0,492.3L382.5,494.3L387.7,495.4L392.7,497.5L400.5,499.0L405.6,497.8L403.9,497.2L404.1,492.4L405.6,492.1L412.5,495.4L413.7,495.0L414.2,492.5L416.3,492.1L419.6,489.7L425.3,487.7L428.0,485.3L431.1,485.4L433.1,483.9L439.4,484.8L447.7,487.3L452.7,490.7L454.0,493.1L454.8,499.3L455.5,500.0L459.0,492.4L458.4,489.4L456.4,485.8L457.6,485.9L457.1,482.5L456.1,481.6L455.4,484.4L453.1,483.5L451.8,481.7L451.2,484.0L449.6,480.6L453.1,475.6L447.1,475.8L447.2,472.6L446.6,466.5L448.3,465.2L447.3,461.5L448.2,460.3L446.9,458.0L447.4,457.0L450.2,459.5L450.3,462.3L451.1,465.6L453.7,468.2L454.8,471.9L461.1,467.3L457.2,464.7L457.4,463.3L460.0,462.4L465.0,462.3L463.5,460.1L464.1,458.9L465.6,460.9L465.7,456.2L466.9,455.6L473.1,457.9L473.3,454.5L474.7,452.7L475.6,457.5L479.0,455.0L481.7,452.2L486.9,445.1L493.0,439.3L494.1,435.5L495.9,433.6L500.1,426.7L501.3,423.9L500.8,421.9L499.4,421.1L503.4,419.8L506.2,413.6L503.4,409.6L503.3,408.1L504.7,406.1L515.0,403.0L526.2,400.7L526.2,400.8L522.6,387.0L515.9,381.9L514.2,378.0L517.0,377.8L518.3,376.4L524.5,376.3L526.1,374.8L527.6,371.1L527.0,367.3L526.1,367.2L522.9,363.6L516.4,362.1L516.0,360.1L517.5,359.4L518.2,356.7L517.0,355.5L510.5,356.9L509.7,356.0L503.8,355.2L498.0,345.7L498.7,337.9L498.2,336.5L496.2,334.3L493.4,333.6L492.3,330.1L488.9,331.4L488.8,332.5L487.0,332.4L486.6,331.1L481.5,329.9L480.3,331.0L477.9,330.5L475.4,330.9L472.0,329.1L470.7,326.9L470.9,324.1L468.6,322.1L469.0,319.0L464.4,315.8L461.9,308.2L458.9,305.4L457.4,305.0L456.8,301.0L455.7,300.0L458.0,298.4L461.1,298.0L459.8,296.0L459.5,294.8L447.8,294.2L443.2,290.3L442.1,288.8L440.1,289.6L437.6,289.3L436.6,291.3L431.3,289.8L429.9,290.1Z M469.2,418.7L475.5,418.1L475.3,419.5L478.1,422.9L479.3,423.1L479.4,418.6L480.2,419.6L482.0,424.6L487.6,431.3L492.7,434.9L491.7,437.9L489.4,439.0L484.8,432.6L480.6,429.2L474.1,427.2L469.8,423.5L468.7,421.9L469.2,418.7Z " data-id="UA.MY" data-name="Odessa" id="UA.MY"/>
utf-8utf-8<path d="M394.3,188.5L391.9,190.5L390.0,190.8L384.9,193.0L379.1,193.3L371.3,192.5L369.6,188.0L367.9,186.9L370.2,182.4L367.5,180.5L365.2,175.2L362.9,172.8L359.4,172.4L358.3,174.1L345.8,179.0L337.1,177.8L336.3,179.3L332.9,180.0L330.1,179.0L312.1,180.4L307.3,180.9L306.5,181.9L304.7,182.5L305.3,184.5L302.7,184.7L301.7,186.0L302.3,187.3L305.7,189.6L304.3,193.6L305.1,196.5L302.0,198.0L302.5,199.9L304.2,200.8L304.1,203.7L308.5,204.0L309.5,206.5L307.9,208.0L312.8,215.3L312.1,216.6L313.4,218.9L314.6,223.2L310.7,224.1L308.5,226.0L301.9,223.4L299.0,223.4L298.1,225.2L293.1,225.8L292.2,229.1L288.8,233.2L288.7,235.7L289.6,237.4L288.5,239.0L289.5,240.6L291.4,247.1L292.2,256.3L291.5,260.1L293.7,260.7L298.0,265.9L299.9,270.4L300.5,271.1L302.8,271.1L306.0,270.3L306.4,272.2L307.6,272.6L314.5,272.6L320.4,275.5L325.4,280.5L332.8,281.7L335.5,284.4L334.8,287.1L337.8,287.5L340.3,286.1L341.9,289.5L347.0,287.7L349.5,287.5L351.4,289.5L350.0,295.4L351.1,295.2L352.9,292.5L354.2,292.3L355.9,294.9L355.1,295.7L359.1,299.8L359.6,299.7L360.4,293.9L363.4,293.4L368.8,295.2L376.4,296.5L379.6,303.1L380.7,303.8L381.1,304.3L387.5,301.1L390.6,298.3L390.1,294.7L393.1,294.2L396.7,296.6L400.3,297.9L406.8,298.3L411.9,296.4L416.3,298.0L420.6,298.2L425.3,298.0L426.4,295.5L424.6,293.1L425.0,291.5L426.9,291.6L429.9,290.1L429.7,289.5L430.3,288.0L427.9,286.0L428.7,281.2L428.4,279.7L433.4,273.9L437.2,277.9L440.3,274.5L442.8,273.9L443.9,272.3L443.0,271.6L440.7,271.2L438.2,272.2L439.5,265.6L435.6,260.6L429.6,255.6L428.9,254.6L430.1,252.1L427.4,250.5L423.2,249.7L421.5,245.3L418.3,242.5L419.3,241.6L418.2,239.5L416.2,239.1L414.0,237.6L415.5,234.2L412.3,233.1L411.3,229.7L414.6,227.5L416.0,224.5L413.2,219.4L414.3,218.2L413.6,217.2L411.4,217.0L407.2,212.5L401.7,207.8L404.7,205.2L404.8,203.0L402.7,199.9L403.8,197.6L403.4,196.6L399.7,194.6L398.5,188.8L395.7,188.5L394.3,188.5Z " data-id="UA.VI" data-name="Vinnytsya" id="UA.VI"/>
utf-8utf-8<path d="M369.9,68.9L367.5,68.7L365.1,64.6L362.3,62.2L362.5,60.4L357.3,52.8L355.1,51.3L352.8,50.9L349.8,52.0L348.9,54.2L346.6,55.5L343.3,55.6L338.5,57.7L336.5,61.0L337.0,65.9L336.2,66.8L334.4,63.9L331.3,64.1L328.3,57.2L326.1,55.8L321.1,54.9L318.3,55.4L313.2,58.0L311.4,54.8L307.6,52.1L306.1,49.5L302.8,50.7L298.5,55.9L293.2,55.9L286.1,52.0L283.4,54.0L283.8,58.7L281.0,62.3L277.5,61.0L277.2,60.6L272.9,62.3L273.8,67.3L268.7,64.6L269.0,69.1L270.3,70.8L269.8,72.0L265.9,73.3L268.1,76.8L264.3,84.7L264.3,87.6L262.4,90.9L257.9,93.1L260.0,99.3L259.0,100.4L260.7,103.4L260.4,106.7L261.2,109.3L264.0,112.8L263.0,116.6L261.6,118.6L261.0,121.4L263.4,124.6L261.7,126.4L262.6,126.8L266.0,130.0L265.3,136.6L265.5,137.4L275.4,143.1L276.2,145.0L278.2,145.7L282.1,148.7L285.3,148.3L287.1,146.2L288.4,150.3L290.7,152.3L290.0,154.5L291.3,156.0L290.4,158.8L292.9,160.4L292.9,162.5L289.8,163.9L288.0,168.0L288.3,170.6L290.4,171.2L291.7,173.8L295.4,178.1L307.3,180.9L312.1,180.4L330.1,179.0L332.9,180.0L336.3,179.3L337.1,177.8L345.8,179.0L358.3,174.1L359.4,172.4L362.9,172.8L365.2,175.2L367.5,180.5L370.2,182.4L367.9,186.9L369.6,188.0L371.3,192.5L379.1,193.3L384.9,193.0L390.0,190.8L391.9,190.5L394.3,188.5L395.7,188.5L395.7,187.5L397.2,186.2L394.4,182.7L393.8,178.2L397.2,176.9L402.4,174.0L405.3,171.1L406.6,170.4L408.2,167.8L404.3,163.5L404.4,161.5L403.2,159.0L403.4,157.2L405.2,156.8L405.1,152.9L403.4,151.9L402.1,145.1L401.4,144.9L395.3,138.8L394.6,136.8L391.8,134.5L387.2,135.4L385.8,134.7L387.8,133.4L389.0,129.8L387.5,128.2L388.6,124.1L386.7,122.7L389.3,117.3L391.6,115.3L389.4,110.4L384.9,109.2L385.1,104.3L379.5,98.3L378.0,97.6L377.7,96.0L379.4,95.9L380.0,88.8L378.6,88.4L376.9,86.5L373.9,84.7L371.5,86.4L370.9,85.7L372.8,74.8L373.2,73.9L370.6,68.4L369.9,68.9Z " data-id="UA.ZT" data-name="Zhytomyr" id="UA.ZT"/>
utf-8utf-8<path d="M578.1,1.7L577.8,4.7L575.5,10.9L577.0,15.0L579.5,15.6L583.8,19.1L586.0,19.5L586.5,20.8L582.3,22.3L581.4,21.4L581.2,25.1L580.5,26.2L582.2,28.3L581.8,29.1L574.7,31.9L572.2,31.8L568.8,36.2L567.3,39.7L570.2,44.2L573.7,46.6L573.1,49.0L574.6,50.3L577.0,60.0L574.4,59.4L574.4,62.2L576.2,67.9L572.1,68.5L569.6,68.1L571.2,70.7L573.2,71.6L573.1,81.2L570.4,81.9L570.9,85.6L570.0,87.4L574.7,89.3L577.3,89.7L577.5,91.8L582.4,92.4L583.1,90.5L584.9,90.7L585.0,92.0L583.2,95.3L584.9,96.6L584.2,109.5L587.0,112.0L585.7,114.2L585.7,117.1L584.6,118.1L585.1,122.2L584.0,126.6L586.2,127.6L592.2,128.0L592.9,126.8L595.6,126.0L597.5,126.8L616.8,130.3L621.2,131.9L627.3,130.1L625.3,128.8L630.0,127.0L634.6,129.7L639.7,131.2L639.6,130.0L646.8,126.3L649.6,127.5L651.1,133.7L658.4,139.3L658.5,142.5L659.2,144.8L662.6,145.1L665.0,148.4L667.2,149.5L667.8,152.3L665.9,153.0L667.2,156.2L670.6,155.4L678.6,155.6L680.2,153.8L681.2,154.3L685.4,153.0L690.8,153.9L692.7,153.0L694.1,150.7L694.9,151.4L697.1,150.7L698.2,149.2L702.7,147.1L706.0,148.0L711.4,143.1L715.2,142.9L716.1,140.9L721.6,143.1L721.0,141.7L728.0,141.8L731.2,140.1L730.2,140.4L725.5,139.0L724.0,137.9L722.4,133.9L721.4,132.7L715.8,130.9L714.3,129.2L710.4,119.1L714.4,117.6L711.4,111.0L707.6,108.6L707.0,106.1L701.0,98.9L699.4,95.1L703.1,92.8L702.5,92.0L698.3,91.2L692.9,91.7L691.1,90.5L689.5,88.2L685.4,80.2L681.2,80.5L678.1,79.7L671.6,82.4L667.9,83.1L662.9,82.6L660.2,79.0L654.2,78.6L646.1,76.7L640.3,78.6L636.1,77.3L638.9,75.6L640.7,73.7L641.6,71.4L640.6,69.0L636.0,68.7L633.7,66.7L635.4,65.0L634.4,58.9L630.1,54.7L624.8,50.0L625.0,48.4L626.9,47.4L635.8,45.7L641.7,43.6L641.0,40.7L639.0,38.0L633.2,34.1L629.9,33.8L625.3,29.4L621.5,27.1L617.0,18.1L617.7,16.6L613.9,11.8L610.0,9.9L606.0,5.7L599.8,1.0L598.4,0.6L593.5,0.9L589.1,2.6L586.0,5.5L583.7,4.5L583.5,1.9L582.3,0.8L578.3,1.8L578.1,1.7Z " data-id="UA.SM" data-name="Sumy" id="UA.SM"/>
utf-8utf-8<path d="M706.3,221.7L705.0,221.3L702.9,223.9L701.3,223.6L701.4,221.9L699.7,221.4L694.0,223.9L687.8,225.2L678.6,228.9L674.9,233.1L676.0,234.9L672.8,236.6L672.0,241.0L674.5,243.4L675.2,245.3L673.4,247.4L673.4,251.0L667.4,249.2L664.4,248.8L653.4,243.9L652.9,243.5L651.8,245.3L649.0,251.0L647.3,248.6L645.4,247.8L642.2,249.4L639.4,247.6L634.8,248.7L634.9,251.8L637.1,253.7L647.2,256.6L649.4,257.1L645.0,261.0L639.6,263.4L637.4,265.2L636.9,264.7L632.3,266.3L630.6,267.7L634.0,273.4L636.4,282.5L638.1,284.0L638.1,287.3L635.8,288.3L635.2,289.5L631.7,292.3L629.3,291.4L626.6,295.7L625.3,296.6L624.4,292.4L621.8,298.7L619.6,298.6L617.7,299.8L614.8,304.3L614.6,306.7L615.3,307.1L616.8,310.4L618.1,311.7L617.7,315.8L618.4,320.6L620.2,323.4L617.7,323.6L615.4,325.8L616.5,327.2L617.4,330.6L617.4,333.1L622.2,333.7L626.7,334.7L628.4,335.7L632.7,336.5L636.9,339.8L638.8,338.4L644.6,337.4L645.0,335.2L648.8,334.2L650.1,336.4L654.4,340.3L660.5,340.1L668.6,338.5L677.7,340.9L683.4,341.3L685.9,341.0L692.1,339.1L699.0,337.9L709.6,335.0L714.7,336.8L720.6,337.7L724.3,337.9L725.2,337.3L724.2,326.0L724.2,322.7L721.1,321.5L720.3,318.5L720.3,316.0L715.1,313.4L716.7,309.7L719.9,308.7L719.7,307.1L715.5,305.1L713.3,302.9L714.5,301.4L713.5,296.7L714.1,295.7L716.3,298.6L719.8,298.6L729.6,295.3L736.0,295.2L741.7,297.0L750.7,298.3L753.9,298.1L755.0,297.0L760.0,295.4L763.7,297.6L768.3,299.6L772.2,298.6L776.7,298.1L777.7,301.3L779.5,302.4L781.5,301.2L781.0,304.0L782.7,304.6L785.1,308.4L787.0,308.6L787.6,310.5L786.5,313.7L784.9,313.2L793.0,314.0L797.2,317.3L802.1,315.6L804.0,316.6L814.1,315.3L813.4,313.7L813.6,310.1L815.1,308.0L811.2,300.2L811.5,299.0L815.8,298.1L819.3,299.0L821.1,300.6L825.4,302.0L826.9,301.5L827.2,295.6L826.3,293.0L828.9,289.9L825.9,283.1L821.2,282.1L819.8,274.8L821.4,273.8L820.5,273.0L821.2,269.7L820.6,268.3L822.0,267.4L821.8,264.2L820.5,263.4L818.1,263.6L816.9,266.9L814.7,267.1L815.2,261.8L813.3,262.1L812.3,261.0L812.0,260.3L808.8,260.7L807.0,261.9L804.0,261.8L803.0,260.9L798.3,258.9L796.8,259.5L792.8,265.1L793.6,266.3L788.7,267.2L789.3,264.7L786.9,261.6L787.2,259.6L777.9,252.3L778.9,251.7L776.4,248.6L772.9,246.1L768.6,244.3L766.8,244.4L769.1,240.9L766.1,237.5L763.1,235.7L755.5,238.7L751.2,237.3L737.6,235.9L730.9,232.5L721.8,226.3L720.4,224.7L717.3,223.3L710.0,222.9L708.1,222.6L706.3,221.7Z " data-id="UA.DP" data-name="Dnipropetrovs'k" id="UA.DP"/>
utf-8utf-8<path d="M865.9,217.8L865.8,218.5L862.0,219.8L854.6,218.1L848.7,218.6L847.4,221.0L852.1,221.7L853.4,223.9L842.1,230.4L841.0,233.2L839.8,233.7L838.6,235.8L840.5,239.5L838.0,239.9L834.1,244.5L834.0,246.3L829.9,245.2L827.4,247.4L826.0,247.0L824.9,248.2L827.0,250.9L819.5,248.2L816.1,249.5L808.4,251.1L809.9,254.1L810.8,258.7L812.0,260.3L812.3,261.0L813.3,262.1L815.2,261.8L814.7,267.1L816.9,266.9L818.1,263.6L820.5,263.4L821.8,264.2L822.0,267.4L820.6,268.3L821.2,269.7L820.5,273.0L821.4,273.8L819.8,274.8L821.2,282.1L825.9,283.1L828.9,289.9L826.3,293.0L827.2,295.6L826.9,301.5L825.4,302.0L821.1,300.6L819.3,299.0L815.8,298.1L811.5,299.0L811.2,300.2L815.1,308.0L813.6,310.1L813.4,313.7L814.1,315.3L814.7,318.2L815.2,319.0L818.9,319.1L822.1,324.3L826.7,330.1L827.4,332.5L829.6,331.8L835.0,335.6L841.0,335.8L843.2,337.8L851.0,342.2L855.2,342.5L854.2,348.2L850.5,348.6L849.8,349.2L848.7,353.8L846.8,354.5L841.4,353.2L842.8,359.5L838.9,361.8L845.3,365.2L848.7,370.1L850.9,371.4L855.7,376.4L854.4,377.8L852.9,377.4L850.5,380.4L852.7,383.3L853.2,383.3L859.3,381.1L861.5,379.3L866.6,380.3L868.1,381.7L868.2,383.4L871.1,379.3L875.6,372.1L878.6,368.9L880.4,368.3L887.9,369.5L890.3,369.4L896.0,367.5L901.2,368.3L907.8,367.7L909.9,368.9L910.9,372.8L912.7,372.0L915.9,367.4L914.7,365.5L914.8,359.5L917.9,357.7L917.7,354.5L912.5,354.2L911.7,353.5L914.3,347.0L913.1,340.0L915.0,333.1L916.7,332.0L928.2,330.6L930.4,329.3L932.1,327.3L937.1,327.0L937.7,319.8L938.6,317.0L940.1,315.0L942.5,314.1L951.5,314.4L951.4,309.2L950.9,308.9L948.9,303.9L943.4,302.9L939.5,302.9L935.5,300.4L936.0,297.1L931.9,294.9L924.5,292.7L922.8,291.7L922.6,289.8L919.0,284.7L913.5,285.2L910.0,281.6L912.4,277.9L910.0,276.1L907.4,273.2L902.1,272.1L901.6,267.5L898.7,266.4L898.7,264.7L896.2,257.7L898.4,254.4L897.2,249.3L895.7,246.8L888.1,238.9L881.7,238.5L878.8,237.3L881.9,233.8L879.6,230.6L878.9,223.5L876.6,223.4L873.9,224.8L868.8,222.3L866.5,217.9L865.9,217.8Z " data-id="UA.DT" data-name="Donets'k" id="UA.DT"/>
utf-8utf-8<path d="M864.7,171.1L864.1,169.6L858.5,163.9L847.0,158.6L840.3,152.0L837.6,146.7L836.8,143.8L834.8,142.3L829.5,140.4L825.8,134.5L824.6,134.0L817.7,135.2L813.7,138.8L806.1,140.7L802.0,140.3L798.4,140.5L795.1,141.5L786.8,145.9L784.0,149.7L780.2,149.3L778.8,145.9L777.8,145.0L771.2,142.9L769.6,142.9L765.2,145.0L763.8,144.5L756.9,137.4L752.8,134.8L743.2,134.1L738.1,134.6L735.1,137.1L733.2,137.5L731.4,140.0L731.2,140.1L728.0,141.8L721.0,141.7L721.6,143.1L716.1,140.9L715.2,142.9L711.4,143.1L706.0,148.0L702.7,147.1L698.2,149.2L697.1,150.7L694.9,151.4L694.1,150.7L692.7,153.0L690.8,153.9L691.5,154.9L692.2,158.7L692.0,160.6L689.1,164.1L692.8,169.9L696.8,171.8L699.8,171.9L705.6,174.7L708.3,174.2L710.8,176.3L712.1,181.3L715.6,185.1L717.2,185.3L721.9,187.3L723.1,185.9L725.6,186.4L725.6,189.0L730.0,194.8L725.8,195.2L727.1,196.7L730.1,198.6L728.0,200.4L724.7,199.7L722.3,201.3L723.7,203.6L724.9,204.2L725.9,206.6L723.7,210.1L718.9,213.5L711.2,212.9L708.3,211.9L705.9,214.4L705.5,217.3L706.9,218.9L708.3,222.2L708.1,222.6L710.0,222.9L717.3,223.3L720.4,224.7L721.8,226.3L730.9,232.5L737.6,235.9L751.2,237.3L755.5,238.7L763.1,235.7L766.1,237.5L769.1,240.9L766.8,244.4L768.6,244.3L772.9,246.1L776.4,248.6L778.9,251.7L777.9,252.3L787.2,259.6L786.9,261.6L789.3,264.7L788.7,267.2L793.6,266.3L792.8,265.1L796.8,259.5L798.3,258.9L803.0,260.9L804.0,261.8L807.0,261.9L808.8,260.7L812.0,260.3L810.8,258.7L809.9,254.1L808.4,251.1L816.1,249.5L819.5,248.2L827.0,250.9L824.9,248.2L826.0,247.0L827.4,247.4L829.9,245.2L834.0,246.3L834.1,244.5L838.0,239.9L840.5,239.5L838.6,235.8L839.8,233.7L841.0,233.2L842.1,230.4L853.4,223.9L852.1,221.7L847.4,221.0L848.7,218.6L854.6,218.1L862.0,219.8L865.8,218.5L865.9,217.8L867.0,216.8L868.9,215.3L869.5,213.3L866.8,212.1L865.7,206.8L864.4,203.1L868.1,197.6L867.5,194.6L866.1,192.7L868.2,188.4L866.9,183.7L864.6,184.1L863.9,182.9L865.3,181.3L867.1,181.5L868.6,178.7L865.9,177.1L866.9,175.8L869.7,174.6L868.5,174.1L865.8,170.4L864.7,171.1Z " data-id="UA.KK" data-name="Kharkiv" id="UA.KK"/>
utf-8utf-8<path d="M865.8,170.4L868.5,174.1L869.7,174.6L866.9,175.8L865.9,177.1L868.6,178.7L867.1,181.5L865.3,181.3L863.9,182.9L864.6,184.1L866.9,183.7L868.2,188.4L866.1,192.7L867.5,194.6L868.1,197.6L864.4,203.1L865.7,206.8L866.8,212.1L869.5,213.3L868.9,215.3L867.0,216.8L865.9,217.8L866.5,217.9L868.8,222.3L873.9,224.8L876.6,223.4L878.9,223.5L879.6,230.6L881.9,233.8L878.8,237.3L881.7,238.5L888.1,238.9L895.7,246.8L897.2,249.3L898.4,254.4L896.2,257.7L898.7,264.7L898.7,266.4L901.6,267.5L902.1,272.1L907.4,273.2L910.0,276.1L912.4,277.9L910.0,281.6L913.5,285.2L919.0,284.7L922.6,289.8L922.8,291.7L924.5,292.7L931.9,294.9L936.0,297.1L935.5,300.4L939.5,302.9L943.4,302.9L948.9,303.9L950.9,308.9L951.4,309.2L951.5,314.4L951.7,314.4L955.0,316.1L967.5,315.2L973.1,316.8L975.4,316.2L978.4,316.8L981.7,316.2L989.3,317.6L991.1,317.3L992.8,314.3L992.5,307.1L989.7,303.3L993.5,301.8L992.7,298.9L994.7,291.5L997.9,288.7L999.0,285.1L997.9,283.9L992.8,284.7L988.6,282.7L993.6,277.9L987.2,269.3L988.5,269.1L987.9,267.1L984.2,263.3L977.4,262.6L974.2,263.1L975.9,251.9L977.5,250.8L978.3,248.6L981.6,247.0L988.2,249.1L990.4,248.8L992.5,247.2L993.5,243.3L990.8,242.0L988.0,244.4L984.7,242.5L982.8,242.8L976.8,241.4L974.3,238.5L971.0,236.2L970.6,232.7L974.3,232.3L978.6,230.9L983.4,230.7L984.1,225.4L989.1,221.3L990.4,218.9L992.8,216.9L991.6,209.6L988.4,207.1L984.0,202.2L983.2,200.0L987.1,194.9L986.1,192.7L980.4,191.5L978.1,191.9L975.4,194.6L971.0,196.2L964.9,193.4L958.5,191.1L956.6,188.7L953.2,183.4L949.9,183.1L946.5,181.6L938.3,182.8L935.0,180.5L928.8,172.9L924.7,176.6L917.8,177.8L912.2,173.5L906.1,172.1L901.5,169.2L900.2,166.7L891.4,167.7L883.1,165.5L879.7,160.7L872.7,159.7L871.8,162.0L872.8,165.2L873.2,168.3L867.9,169.2L865.8,170.4Z " data-id="UA.LH" data-name="Luhans'k" id="UA.LH"/>
utf-8utf-8<path d="M685.4,153.0L681.2,154.3L680.2,153.8L678.6,155.6L670.6,155.4L667.2,156.2L665.9,153.0L667.8,152.3L667.2,149.5L665.0,148.4L662.6,145.1L659.2,144.8L658.5,142.5L658.4,139.3L651.1,133.7L649.6,127.5L646.8,126.3L639.6,130.0L639.7,131.2L634.6,129.7L630.0,127.0L625.3,128.8L627.3,130.1L621.2,131.9L616.8,130.3L597.5,126.8L595.6,126.0L592.9,126.8L592.2,128.0L586.2,127.6L584.0,126.6L582.6,129.9L576.9,134.2L576.2,135.5L568.0,139.2L562.5,138.8L554.9,137.7L552.9,135.7L550.3,136.7L546.6,135.7L542.8,137.6L542.0,139.1L539.1,139.7L535.8,139.7L534.9,142.8L534.1,144.0L534.0,144.2L534.5,145.7L533.3,147.5L533.9,147.6L535.5,148.3L538.8,151.9L542.5,153.8L544.9,152.9L545.7,153.8L545.5,159.4L546.6,160.2L550.0,160.5L553.9,165.2L555.3,165.8L556.1,171.8L554.0,172.4L558.4,177.6L560.7,177.6L563.0,179.5L566.6,180.7L568.5,185.1L574.8,187.0L577.0,191.2L579.8,195.3L577.9,197.3L576.2,200.3L584.8,212.4L585.2,215.7L600.0,221.3L607.3,225.6L609.8,228.6L615.8,229.5L618.5,231.0L617.5,232.3L620.0,237.1L622.6,238.1L623.0,237.4L626.2,238.2L627.7,239.2L633.4,239.6L636.4,240.4L639.2,243.3L639.7,241.2L644.3,239.5L647.2,241.1L651.5,242.1L652.9,243.5L653.4,243.9L664.4,248.8L667.4,249.2L673.4,251.0L673.4,247.4L675.2,245.3L674.5,243.4L672.0,241.0L672.8,236.6L676.0,234.9L674.9,233.1L678.6,228.9L687.8,225.2L694.0,223.9L699.7,221.4L701.4,221.9L701.3,223.6L702.9,223.9L705.0,221.3L706.3,221.7L708.1,222.6L708.3,222.2L706.9,218.9L705.5,217.3L705.9,214.4L708.3,211.9L711.2,212.9L718.9,213.5L723.7,210.1L725.9,206.6L724.9,204.2L723.7,203.6L722.3,201.3L724.7,199.7L728.0,200.4L730.1,198.6L727.1,196.7L725.8,195.2L730.0,194.8L725.6,189.0L725.6,186.4L723.1,185.9L721.9,187.3L717.2,185.3L715.6,185.1L712.1,181.3L710.8,176.3L708.3,174.2L705.6,174.7L699.8,171.9L696.8,171.8L692.8,169.9L689.1,164.1L692.0,160.6L692.2,158.7L691.5,154.9L690.8,153.9L685.4,153.0Z " data-id="UA.PL" data-name="Poltava" id="UA.PL"/>
utf-8utf-8<path d="M804.0,316.6L802.1,315.6L797.2,317.3L793.0,314.0L784.9,313.2L786.5,313.7L787.6,310.5L787.0,308.6L785.1,308.4L782.7,304.6L781.0,304.0L781.5,301.2L779.5,302.4L777.7,301.3L776.7,298.1L772.2,298.6L768.3,299.6L763.7,297.6L760.0,295.4L755.0,297.0L753.9,298.1L750.7,298.3L741.7,297.0L736.0,295.2L729.6,295.3L719.8,298.6L716.3,298.6L714.1,295.7L713.5,296.7L714.5,301.4L713.3,302.9L715.5,305.1L719.7,307.1L719.9,308.7L716.7,309.7L715.1,313.4L720.3,316.0L720.3,318.5L721.1,321.5L724.2,322.7L724.2,326.0L725.2,337.3L724.3,337.9L720.6,337.7L714.7,336.8L709.6,335.0L699.0,337.9L692.1,339.1L685.9,341.0L688.0,344.3L693.8,355.5L699.2,355.2L700.6,352.7L705.1,352.8L703.6,355.2L705.6,357.3L705.3,359.5L710.9,371.0L711.4,373.4L715.4,377.7L721.5,379.7L723.3,382.7L727.1,386.5L724.5,388.4L724.0,392.2L720.0,394.4L719.4,396.3L724.9,397.9L726.4,399.7L725.7,402.6L728.0,405.6L731.4,406.7L734.1,406.9L735.4,410.0L738.0,409.8L744.3,412.0L747.4,417.9L751.1,424.2L751.1,424.2L755.8,416.0L752.1,410.3L753.1,408.9L755.2,412.4L759.0,414.0L758.8,418.7L761.1,421.3L763.9,419.6L764.0,421.4L761.6,424.3L760.5,426.6L760.5,426.6L760.7,426.7L761.4,427.0L761.4,427.0L765.7,419.1L772.0,412.8L778.1,409.9L783.4,403.9L791.6,399.1L800.4,397.9L809.6,399.0L813.4,402.3L814.1,398.6L817.3,395.2L823.2,392.8L825.3,391.6L829.0,391.6L834.7,390.1L838.5,391.6L840.9,393.7L841.8,399.0L844.1,390.4L843.3,388.7L845.1,388.5L847.6,386.0L852.2,383.4L852.7,383.3L850.5,380.4L852.9,377.4L854.4,377.8L855.7,376.4L850.9,371.4L848.7,370.1L845.3,365.2L838.9,361.8L842.8,359.5L841.4,353.2L846.8,354.5L848.7,353.8L849.8,349.2L850.5,348.6L854.2,348.2L855.2,342.5L851.0,342.2L843.2,337.8L841.0,335.8L835.0,335.6L829.6,331.8L827.4,332.5L826.7,330.1L822.1,324.3L818.9,319.1L815.2,319.0L814.7,318.2L814.1,315.3L804.0,316.6Z " data-id="UA.ZP" data-name="Zaporizhzhya" id="UA.ZP"/>
utf-8utf-8<path d="M461.6,123.4L460.5,119.6L454.9,117.6L453.8,118.7L454.3,120.7L451.6,122.1L451.0,124.0L445.7,123.7L445.9,125.9L441.4,122.6L440.2,120.2L438.8,119.9L438.2,118.0L432.8,117.9L433.0,119.7L429.6,120.0L431.1,121.7L429.8,124.7L427.8,127.5L428.2,133.1L427.9,137.1L430.0,137.5L430.5,135.2L435.0,135.7L436.2,138.4L441.4,142.9L441.8,145.8L444.4,147.3L444.7,148.6L448.7,150.9L448.7,153.9L450.1,153.9L450.9,157.3L452.5,157.8L454.3,163.1L457.6,161.8L457.4,159.9L455.6,157.4L456.4,153.2L452.9,147.2L452.4,145.5L454.3,144.9L457.6,146.1L458.7,145.8L458.5,142.5L460.3,143.9L462.4,143.7L461.8,140.9L464.0,140.9L464.6,139.5L458.9,133.5L458.4,126.2L461.6,123.4Z " data-id="UA.KM" data-name="Kiev City" id="UA.KM"/>
utf-8utf-8<path d="M614.5,440.7L613.4,440.7L637.7,444.1L637.7,442.3L635.1,442.4L632.4,441.3L630.2,442.2L622.8,441.7L614.5,440.7Z M761.4,427.0L760.7,426.7L760.5,426.6L760.5,426.6L760.4,426.9L757.8,432.1L755.1,433.4L749.5,435.0L746.8,438.8L747.8,439.7L754.1,436.6L756.3,435.9L760.7,427.9L761.4,427.0Z M585.9,434.0L581.0,432.1L554.6,426.7L552.1,425.6L547.9,419.1L546.9,418.7L548.5,422.9L552.4,426.5L561.7,429.4L582.9,433.2L585.9,434.0Z M622.2,333.7L622.2,334.3L622.6,336.1L624.6,338.1L624.0,345.5L622.4,343.1L621.1,346.6L625.2,347.8L627.2,351.7L626.7,355.0L629.1,358.9L628.5,360.4L623.2,362.3L620.3,361.9L618.6,369.0L624.2,371.1L627.2,374.1L625.8,376.8L621.6,375.3L622.4,378.1L625.6,378.9L622.6,380.0L620.4,381.7L615.0,382.5L615.8,384.0L620.5,383.9L622.3,384.4L621.0,385.2L613.3,386.7L609.5,387.0L606.2,385.0L599.6,383.6L599.1,386.4L593.4,385.5L591.6,386.0L589.5,389.1L582.6,388.4L580.3,392.5L575.4,392.6L571.9,393.9L569.0,394.2L569.4,394.9L574.3,401.1L577.9,401.7L581.0,405.6L585.6,402.5L591.7,405.5L595.7,405.0L602.7,401.3L604.1,401.5L608.1,399.3L607.7,400.5L597.5,406.8L596.3,408.6L597.5,409.9L596.2,411.3L589.3,411.9L586.0,410.1L575.3,409.4L570.3,408.5L565.4,408.5L564.8,408.3L563.3,411.0L563.3,411.0L563.3,411.0L568.9,412.9L574.5,413.4L576.4,417.6L573.8,420.0L569.2,421.0L565.9,420.4L562.9,421.6L562.8,423.7L565.7,425.2L569.0,422.5L574.2,425.6L577.2,426.8L578.9,426.2L583.1,429.9L587.4,431.1L592.0,430.6L592.4,435.9L594.8,436.7L606.6,439.6L611.1,437.6L618.0,436.5L622.2,435.5L625.9,436.5L629.3,436.8L635.1,436.0L635.8,435.0L635.0,433.0L642.1,435.0L643.7,434.2L645.2,430.4L646.3,429.2L646.2,435.9L650.6,435.4L651.7,437.5L654.6,437.6L658.9,441.2L662.4,441.2L663.3,439.3L666.0,438.3L664.3,436.4L667.5,434.0L668.6,434.7L669.7,436.2L671.2,434.5L671.5,432.8L670.9,429.7L670.8,429.6L673.4,429.5L675.5,427.7L679.5,429.2L683.4,428.7L686.9,429.9L695.2,435.6L698.5,436.2L694.4,432.0L698.7,432.1L699.5,434.2L701.4,432.0L698.2,429.5L698.0,425.1L702.8,428.5L708.8,437.0L708.8,432.5L706.3,431.1L711.4,431.6L715.7,434.2L717.8,434.7L719.5,433.5L720.1,431.6L722.6,433.7L723.0,436.4L721.5,438.0L718.9,438.3L717.9,435.9L716.2,437.4L716.9,440.9L714.7,444.1L719.0,445.4L718.6,447.0L719.9,447.2L721.3,445.3L723.8,446.1L724.7,445.1L725.3,433.5L726.8,432.0L729.5,432.2L734.0,435.0L735.6,438.3L731.7,437.2L728.5,438.8L732.2,442.4L734.6,444.1L736.8,442.9L738.8,448.7L741.2,451.0L740.5,458.0L743.2,455.1L743.9,455.2L748.3,461.8L750.8,464.7L752.1,463.9L748.9,459.7L744.7,452.7L742.5,450.1L739.0,441.6L737.8,439.4L736.8,435.0L737.1,430.3L739.4,429.4L739.4,427.9L741.0,428.2L747.4,427.2L749.7,425.9L751.1,424.2L747.4,417.9L744.3,412.0L738.0,409.8L735.4,410.0L734.1,406.9L731.4,406.7L728.0,405.6L725.7,402.6L726.4,399.7L724.9,397.9L719.4,396.3L720.0,394.4L724.0,392.2L724.5,388.4L727.1,386.5L723.3,382.7L721.5,379.7L715.4,377.7L711.4,373.4L710.9,371.0L705.3,359.5L705.6,357.3L703.6,355.2L705.1,352.8L700.6,352.7L699.2,355.2L693.8,355.5L688.0,344.3L685.9,341.0L683.4,341.3L677.7,340.9L668.6,338.5L660.5,340.1L654.4,340.3L650.1,336.4L648.8,334.2L645.0,335.2L644.6,337.4L638.8,338.4L636.9,339.8L632.7,336.5L628.4,335.7L626.7,334.7L622.2,333.7Z " data-id="UA.KS" data-name="Kherson" id="UA.KS"/>
utf-8utf-8<path d="M680.5,525.3L678.7,529.8L679.4,530.7L681.5,537.0L680.4,540.3L683.8,541.3L676.7,542.3L674.6,543.4L673.4,545.2L682.1,550.3L686.3,550.4L689.3,554.3L694.8,556.7L695.3,556.8L698.2,554.9L701.9,554.4L698.2,547.8L696.5,547.4L695.8,545.8L693.5,545.9L692.3,544.0L693.9,541.1L691.1,538.1L686.3,538.5L684.9,534.3L688.9,532.0L687.7,529.4L684.1,527.7L682.0,527.5L681.1,525.2L680.5,525.3Z " data-id="UA.SC" data-name="Sevastopol" id="UA.SC"/>
utf-8</g>
</svg>
