<?xml version="1.0" ?>
<!DOCTYPE svg
  PUBLIC '-//W3C//DTD SVG 1.1//EN'
  'http://www.w3.org/Graphics/SVG/1.1/DTD/svg11.dtd'>
<svg enable_background="new 0 0 1000 1593" height="1593px" pretty_print="True" style="stroke-linejoin: round; stroke:#000; fill: none;" version="1.1" viewBox="0 0 1000 1593" width="1000px" xmlns="http://www.w3.org/2000/svg" xmlns:xlink="http://www.w3.org/1999/xlink">
utf-8<defs>
utf-8utf-8<style type="text/css">
<![CDATA[path { fill-rule: evenodd; }]]>utf-8utf-8</style>
utf-8</defs>
utf-8<metadata>
utf-8utf-8<views>
utf-8utf-8utf-8<view h="1593.60972096" padding="0" w="1000">
utf-8utf-8utf-8utf-8<proj flip="auto" id="robinson" lon0="31.4282009953"/>
utf-8utf-8utf-8utf-8<bbox h="128.61" w="80.75" x="437.66" y="-103.87"/>
utf-8utf-8utf-8</view>
utf-8utf-8</views>
utf-8</metadata>
utf-8<g class="" id="provinces">
utf-8utf-8<path d="M233.2,561.2L233.9,557.9L237.8,549.0L249.7,529.0L252.0,521.9L254.0,519.9L255.9,519.2L263.9,517.7L269.4,512.6L271.1,511.8L274.6,511.0L276.3,510.3L287.8,500.0L292.6,498.5L301.2,498.5L308.8,499.6L316.0,502.2L354.8,526.0L358.1,526.7L362.4,521.6L365.6,519.8L374.6,518.3L384.5,516.6L387.9,515.0L389.6,513.2L403.9,494.7L408.6,495.5L408.6,495.5L409.2,492.0L413.5,483.9L425.2,446.1L428.5,438.6L432.0,433.9L450.9,418.5L456.9,411.7L461.3,405.2L464.8,396.8L471.2,366.1L487.7,324.0L498.0,306.5L501.5,298.7L503.5,291.7L503.7,285.2L501.8,277.7L498.9,270.5L483.8,241.8L481.1,233.7L476.7,215.4L473.1,85.0L477.3,61.9L379.0,55.6L369.8,64.9L363.1,64.1L350.8,56.7L288.5,43.9L266.1,33.0L231.6,0.3L222.2,0.0L209.0,7.8L192.7,11.5L152.2,15.4L174.7,38.3L195.1,55.7L202.5,63.6L206.9,70.1L212.1,79.7L215.9,84.5L226.6,92.6L240.1,106.6L245.7,117.2L249.9,127.4L250.7,136.2L248.8,143.7L240.5,158.3L237.4,167.2L235.7,177.4L233.6,238.7L231.4,247.8L229.3,250.1L225.2,252.8L199.9,262.2L179.2,274.2L170.9,281.3L147.1,308.1L140.6,311.7L134.8,312.9L130.1,311.6L125.4,308.5L113.4,296.2L109.3,293.0L105.2,291.2L100.5,291.0L96.6,292.0L91.9,294.1L87.8,297.4L83.4,301.9L76.6,310.5L43.3,340.2L38.2,343.4L36.3,346.7L37.9,355.9L36.3,362.1L36.3,371.2L38.5,378.8L43.5,383.4L51.9,383.3L56.0,384.0L60.7,387.1L64.8,391.3L66.6,395.5L63.6,401.9L63.8,404.4L65.3,406.4L71.5,407.3L75.8,410.2L78.7,414.0L83.0,423.3L85.8,427.8L88.6,429.7L96.3,431.5L100.5,434.1L102.4,438.2L103.5,443.0L105.2,447.8L109.7,453.7L110.9,456.0L111.7,462.5L113.0,464.5L116.1,465.7L128.0,465.9L140.3,470.3L155.3,480.3L163.9,483.2L167.6,483.3L173.0,482.2L174.8,482.9L177.3,488.3L182.1,518.7L182.0,522.8L180.7,530.8L178.6,535.7L180.5,537.5L187.7,537.7L190.0,537.0L195.7,533.4L206.1,531.8L210.0,529.3L213.0,525.2L215.8,522.9L219.2,525.6L219.9,527.6L220.6,534.7L221.9,537.8L224.3,539.9L230.0,542.4L232.7,546.1L231.0,556.8L233.2,561.2Z " data-id="UG.MY" data-name="Central Equatoria" id="UG.MY"/>
utf-8utf-8<path d="M549.7,1363.0L544.7,1365.8L542.1,1366.6L539.8,1372.3L536.2,1372.7L533.3,1374.4L537.5,1377.1L536.7,1381.1L533.6,1384.9L530.9,1387.2L531.4,1388.8L534.6,1390.2L538.2,1387.6L539.2,1385.4L538.3,1383.0L541.8,1380.6L545.6,1372.7L546.0,1367.4L547.2,1367.4L548.4,1370.2L549.7,1363.0Z M525.8,1360.2L523.4,1359.5L521.5,1355.8L519.5,1354.4L517.8,1354.8L518.4,1359.5L519.5,1361.6L514.6,1360.2L516.2,1363.4L521.2,1361.8L525.8,1361.6L525.8,1360.2Z M451.5,1337.6L452.4,1341.0L453.9,1343.3L456.1,1348.6L455.5,1346.6L453.9,1343.3L451.7,1338.0L451.5,1337.6Z M448.3,1336.2L447.2,1336.1L447.2,1336.2L448.3,1336.2L448.6,1336.2L448.3,1336.2Z M465.9,1333.5L463.6,1333.3L461.9,1334.3L461.9,1338.3L459.3,1338.9L459.3,1340.2L464.2,1342.1L466.9,1343.7L468.3,1346.8L470.5,1348.9L469.2,1352.3L471.4,1353.9L476.5,1355.6L481.6,1356.2L484.4,1354.4L485.5,1354.4L487.2,1356.3L490.0,1358.1L491.9,1360.3L490.6,1363.0L495.5,1367.8L495.5,1370.2L491.3,1370.4L489.7,1368.2L487.8,1370.1L486.2,1372.9L486.2,1374.4L481.3,1375.9L480.5,1377.2L481.3,1380.6L480.7,1383.3L478.0,1388.7L474.9,1392.4L474.2,1394.5L475.3,1397.2L480.4,1397.2L480.6,1394.1L481.8,1390.2L485.5,1391.5L484.4,1383.0L491.3,1381.5L494.3,1381.7L493.3,1384.5L497.5,1387.2L499.8,1383.5L501.9,1383.0L500.4,1375.3L499.7,1365.7L501.9,1358.8L509.4,1358.9L508.5,1355.5L504.5,1350.7L503.2,1347.5L501.5,1348.4L501.9,1353.1L500.2,1354.0L495.6,1351.5L496.9,1348.9L489.0,1352.2L484.4,1353.4L480.5,1353.1L478.1,1350.1L478.7,1346.0L481.9,1338.9L481.7,1335.2L478.9,1334.1L470.6,1334.7L465.9,1333.5Z M514.6,1335.6L512.3,1330.3L510.2,1327.8L507.4,1326.6L504.5,1327.6L509.5,1331.1L510.8,1333.3L509.0,1334.3L509.2,1337.3L510.8,1338.9L511.9,1337.4L512.3,1338.8L514.6,1341.8L517.9,1341.5L517.0,1339.0L514.6,1335.6Z M446.5,1326.1L446.4,1328.0L445.4,1333.3L446.3,1335.4L447.0,1336.0L446.3,1335.4L445.4,1333.3L446.4,1328.0L446.5,1326.1Z M443.0,1323.6L436.6,1326.1L436.6,1326.1L443.0,1323.6L443.8,1323.5L443.0,1323.6Z M435.4,1313.3L435.4,1313.3L438.1,1314.4L439.1,1314.6L439.1,1314.6L438.1,1314.3L435.4,1313.3Z " data-id="UG.KN" data-name="Kalangala" id="UG.KN"/>
utf-8utf-8<path d="M669.6,1144.9L666.6,1143.3L662.2,1144.4L657.7,1144.1L656.7,1148.4L651.0,1147.2L647.0,1150.2L642.2,1147.8L642.5,1152.2L648.8,1168.9L651.4,1172.5L662.2,1182.8L666.5,1188.9L667.7,1196.6L667.0,1204.1L672.7,1208.9L678.9,1211.1L681.8,1209.1L682.8,1208.0L683.0,1205.3L675.7,1203.1L671.8,1202.8L668.7,1201.2L667.7,1196.6L672.0,1197.7L676.6,1196.8L679.2,1194.1L677.6,1189.7L683.5,1186.5L685.2,1185.3L686.6,1194.2L691.7,1194.7L696.7,1190.8L697.8,1186.9L700.4,1182.3L703.9,1183.6L704.7,1184.9L701.6,1189.7L697.5,1197.9L700.4,1201.0L697.4,1204.1L693.1,1204.7L690.2,1206.2L691.6,1212.4L693.6,1210.9L700.5,1208.0L701.2,1209.9L699.2,1215.1L702.5,1214.3L705.7,1214.6L708.9,1216.1L711.7,1218.1L710.5,1214.3L709.2,1213.7L714.4,1211.5L716.9,1211.2L719.3,1212.4L716.8,1213.7L718.4,1216.3L723.3,1215.3L725.8,1213.5L729.1,1203.3L733.8,1198.2L737.0,1191.9L736.1,1188.4L733.2,1185.5L732.4,1181.2L732.8,1176.7L728.1,1171.8L724.8,1176.4L719.5,1172.3L713.4,1171.9L708.2,1169.5L706.1,1162.1L702.0,1159.3L694.5,1153.1L689.7,1150.8L683.2,1144.6L673.8,1146.0L669.6,1144.9Z " data-id="UG.JI" data-name="Jinja" id="UG.JI"/>
utf-8utf-8<path d="M823.3,944.7L814.6,946.0L805.5,948.6L796.5,945.5L790.0,948.2L786.4,955.4L788.1,975.2L787.1,988.4L780.2,991.5L776.0,997.5L777.4,1012.9L782.4,1013.4L785.7,1017.7L789.2,1021.3L794.0,1022.9L799.1,1023.8L802.6,1026.9L809.0,1021.5L816.4,1016.7L815.8,1004.7L815.8,996.3L819.5,992.7L824.8,988.4L823.6,975.2L831.6,969.8L842.7,967.4L857.8,962.6L858.6,947.9L856.8,947.1L854.4,946.9L823.3,944.7Z " data-id="UG.KU" data-name="Kumi" id="UG.KU"/>
utf-8utf-8<path d="M692.8,862.4L685.1,862.2L683.7,878.9L682.7,881.0L681.0,882.6L678.8,886.8L676.0,890.4L659.6,902.0L657.3,903.0L655.7,905.0L654.6,911.8L650.9,923.8L649.6,929.1L643.9,932.2L637.2,932.7L630.3,929.5L628.5,940.1L621.9,944.0L626.1,961.2L626.0,979.7L628.7,982.0L632.1,981.3L635.2,982.5L645.2,988.3L651.7,993.4L657.1,999.4L670.8,1001.4L670.5,981.9L671.8,959.2L677.5,950.1L677.9,941.9L679.0,932.8L689.7,932.8L697.2,929.2L705.7,921.9L712.4,917.4L712.5,909.4L715.7,902.7L715.2,898.1L713.3,893.8L708.4,887.6L708.2,879.2L705.7,876.6L702.3,874.6L700.7,870.7L699.8,866.4L692.8,862.4Z " data-id="UG.KD" data-name="Kaberamaido" id="UG.KD"/>
utf-8utf-8<path d="M620.2,1030.0L618.5,1023.3L614.2,1017.6L613.1,1013.3L605.4,1003.6L601.6,994.7L598.0,979.3L575.3,980.3L575.9,997.4L581.3,999.5L584.7,1001.7L586.6,1002.4L588.1,1005.4L591.0,1007.0L591.7,1009.3L592.1,1019.1L595.0,1040.0L592.6,1061.1L592.0,1085.7L595.1,1110.1L600.6,1123.1L607.3,1135.3L614.5,1141.7L624.3,1146.4L629.9,1151.5L639.1,1163.7L641.5,1166.9L651.4,1172.5L648.8,1168.9L642.5,1152.2L642.2,1147.8L642.5,1138.5L641.6,1128.6L639.3,1119.8L635.7,1111.8L626.9,1096.3L624.7,1088.3L621.2,1060.8L621.8,1056.3L625.7,1052.7L626.5,1048.7L626.5,1044.0L625.8,1040.2L620.2,1030.0Z " data-id="UG.KY" data-name="Kayunga" id="UG.KY"/>
utf-8utf-8<path d="M747.3,1125.1L739.0,1121.3L735.0,1120.0L732.5,1116.3L730.6,1102.7L723.5,1106.8L720.5,1106.3L717.4,1105.1L711.4,1104.6L713.4,1116.4L710.8,1126.0L710.3,1134.4L716.6,1140.4L727.3,1147.0L727.3,1157.8L728.1,1171.8L732.8,1176.7L732.4,1181.2L733.2,1185.5L736.1,1188.4L737.0,1191.9L744.9,1193.7L745.1,1191.4L744.9,1181.1L746.5,1172.9L751.1,1167.2L754.5,1160.9L755.8,1152.7L755.3,1144.4L750.3,1138.8L748.8,1133.4L747.3,1125.1Z " data-id="UG.IN" data-name="Iganga" id="UG.IN"/>
utf-8utf-8<path d="M680.4,1085.8L675.1,1079.7L666.5,1071.9L661.8,1070.1L657.5,1066.5L656.4,1057.5L653.7,1049.1L639.9,1041.9L625.8,1040.2L626.5,1044.0L626.5,1048.7L625.7,1052.7L621.8,1056.3L621.2,1060.8L624.7,1088.3L626.9,1096.3L635.7,1111.8L639.3,1119.8L641.6,1128.6L642.5,1138.5L642.2,1147.8L647.0,1150.2L651.0,1147.2L656.7,1148.4L657.7,1144.1L662.2,1144.4L666.6,1143.3L669.6,1144.9L673.8,1146.0L673.3,1139.9L675.3,1130.4L676.7,1127.0L681.6,1123.4L683.8,1119.6L684.6,1114.8L686.5,1110.4L685.4,1107.3L685.8,1104.2L687.0,1100.8L687.5,1097.2L687.5,1089.6L680.4,1085.8Z " data-id="UG.KX" data-name="Kamuli" id="UG.KX"/>
utf-8utf-8<path d="M611.6,910.2L590.6,911.6L576.4,925.9L564.4,938.5L558.0,942.7L512.9,942.0L504.5,943.4L507.3,948.5L519.5,952.8L527.8,958.8L532.3,960.2L536.3,963.5L542.0,969.8L545.7,970.9L551.0,969.9L554.6,976.6L559.4,981.9L575.3,980.3L598.0,979.3L626.0,979.7L626.1,961.2L621.9,944.0L628.5,940.1L630.3,929.5L611.6,910.2Z " data-id="UG.LI.KO" data-name="Amolatar" id="UG.LI.KO"/>
utf-8utf-8<path d="M744.9,1053.6L742.2,1046.4L738.3,1041.5L733.5,1037.1L728.9,1035.9L724.2,1028.5L719.4,1022.9L713.9,1018.3L713.4,1024.1L711.9,1029.3L708.3,1034.5L705.9,1040.5L702.6,1045.7L699.9,1051.1L699.9,1057.0L695.0,1061.5L698.8,1063.8L701.4,1067.7L705.1,1074.2L708.0,1081.0L705.0,1095.3L706.1,1101.9L711.4,1104.6L717.4,1105.1L720.5,1106.3L723.5,1106.8L730.6,1102.7L738.6,1079.3L741.7,1075.1L743.9,1070.4L746.0,1064.9L748.9,1059.8L744.9,1053.6Z " data-id="UG.RO.BL" data-name="Kaliro" id="UG.RO.BL"/>
utf-8utf-8<path d="M762.6,1084.2L760.5,1080.3L760.5,1070.3L757.6,1066.9L748.9,1059.8L746.0,1064.9L743.9,1070.4L741.7,1075.1L738.6,1079.3L730.6,1102.7L732.5,1116.3L735.0,1120.0L739.0,1121.3L747.3,1125.1L748.8,1133.4L754.6,1136.9L760.7,1139.8L766.2,1140.6L769.6,1135.5L775.3,1144.6L781.0,1144.4L786.7,1142.4L784.0,1135.3L779.6,1131.4L778.1,1124.8L775.5,1117.7L774.9,1110.5L775.1,1102.9L773.6,1096.2L769.2,1091.2L762.6,1084.2Z " data-id="UG.BK.BS" data-name="Namutumba" id="UG.BK.BS"/>
utf-8utf-8<path d="M778.6,928.5L777.0,926.1L776.4,921.6L775.4,917.3L770.1,910.4L763.7,904.6L760.3,900.0L756.3,897.8L752.9,894.6L750.9,887.4L747.3,885.7L743.3,884.8L737.2,880.9L732.6,875.2L729.1,867.7L722.0,866.0L717.7,869.6L716.7,876.4L714.6,884.9L713.3,893.8L715.2,898.1L715.7,902.7L712.5,909.4L712.4,917.4L705.7,921.9L697.2,929.2L699.9,934.1L712.2,937.7L717.6,950.4L725.7,956.5L738.6,960.1L750.4,958.9L763.5,955.2L764.7,949.9L766.8,943.9L770.6,940.6L776.3,941.7L780.9,939.3L779.9,935.7L780.5,931.0L778.6,928.5Z " data-id="UG.SR" data-name="Soroti" id="UG.SR"/>
utf-8utf-8<path d="M629.9,1151.5L624.3,1146.4L614.5,1141.7L607.3,1135.3L600.6,1123.1L595.1,1110.1L594.4,1129.4L591.6,1149.7L588.1,1163.5L572.8,1170.0L572.9,1175.7L570.9,1180.9L573.1,1185.4L572.2,1190.0L571.6,1197.0L572.4,1203.9L575.8,1216.0L571.8,1225.8L571.7,1226.0L572.3,1228.0L571.7,1230.8L568.8,1234.1L568.9,1237.6L570.4,1239.4L573.5,1236.4L574.9,1239.4L570.6,1247.5L571.3,1249.8L576.7,1250.7L578.3,1249.3L579.7,1246.5L581.1,1242.2L583.0,1242.7L586.0,1249.4L583.6,1250.9L580.4,1255.5L579.1,1256.4L575.8,1256.2L571.5,1257.9L569.8,1257.8L571.2,1260.6L571.3,1265.0L572.3,1266.4L575.2,1267.0L582.0,1263.2L586.5,1261.4L588.7,1259.3L591.6,1260.5L596.1,1263.5L597.3,1254.3L598.7,1252.0L599.9,1252.0L600.8,1254.4L605.0,1254.0L607.6,1255.0L606.2,1247.9L607.6,1247.9L608.1,1249.5L613.5,1242.6L618.5,1232.2L629.1,1220.5L637.1,1210.8L638.6,1199.4L633.5,1191.3L630.6,1179.6L631.1,1169.5L639.1,1163.7L629.9,1151.5Z " data-id="UG.MN" data-name="Mukono" id="UG.MN"/>
utf-8utf-8<path d="M771.9,1014.0L768.4,1010.8L766.6,1007.3L762.2,1007.4L735.2,1009.4L724.0,1011.8L719.6,1010.7L716.0,1012.5L713.0,1011.7L711.2,1007.6L706.9,1008.3L708.8,1015.9L713.9,1018.3L719.4,1022.9L724.2,1028.5L728.9,1035.9L733.5,1037.1L738.3,1041.5L742.2,1046.4L744.9,1053.6L748.9,1059.8L763.0,1059.9L775.8,1054.5L789.5,1047.3L798.5,1043.1L812.8,1042.5L825.1,1046.7L832.0,1050.3L840.0,1054.2L839.7,1049.1L837.7,1045.4L837.5,1041.0L828.9,1038.5L825.3,1036.2L821.5,1034.7L805.5,1031.0L802.6,1026.9L799.1,1023.8L794.0,1022.9L789.2,1021.3L785.7,1017.7L782.4,1013.4L777.4,1012.9L771.9,1014.0Z " data-id="UG.PL" data-name="Pallisa" id="UG.PL"/>
utf-8utf-8<path d="M319.8,1244.3L314.3,1250.4L306.7,1250.1L300.7,1245.0L295.6,1238.2L288.7,1237.5L281.7,1241.5L275.2,1242.8L268.4,1242.6L266.9,1243.5L270.0,1251.8L273.9,1259.6L274.6,1267.9L274.8,1281.2L273.2,1285.7L270.8,1288.4L269.7,1291.9L274.8,1292.7L281.0,1294.7L285.0,1293.1L287.5,1291.2L291.8,1292.1L301.7,1295.8L302.3,1299.4L312.0,1304.7L314.4,1297.5L319.5,1301.2L323.4,1306.3L322.6,1312.1L323.5,1315.1L323.8,1318.2L323.1,1323.8L321.2,1328.8L319.8,1334.5L317.8,1339.6L328.0,1346.4L351.2,1350.8L361.5,1350.6L374.0,1348.4L377.5,1347.0L378.1,1339.9L374.4,1321.0L370.3,1296.8L367.7,1281.7L375.3,1275.2L361.7,1264.8L347.3,1255.9L343.6,1254.1L339.5,1246.8L336.4,1244.5L328.1,1243.9L319.8,1244.3Z " data-id="UG.SE" data-name="Sembabule" id="UG.SE"/>
utf-8utf-8<path d="M498.2,1195.3L499.2,1206.4L498.8,1210.5L499.3,1218.7L498.6,1230.0L499.1,1238.3L495.5,1242.4L490.3,1247.1L481.4,1253.6L473.6,1259.0L464.2,1257.2L454.8,1261.3L448.0,1269.6L436.5,1279.6L423.7,1287.0L428.1,1292.7L438.3,1311.8L439.1,1311.3L449.2,1303.3L452.3,1304.7L459.6,1305.2L462.9,1306.1L461.4,1301.2L454.8,1299.4L453.0,1294.7L456.9,1296.3L464.2,1293.0L469.2,1294.9L474.3,1298.6L481.3,1300.5L484.6,1299.7L486.8,1297.4L487.9,1294.2L488.2,1290.5L486.0,1285.0L488.2,1277.8L487.7,1281.0L486.8,1282.0L489.6,1286.2L491.0,1287.3L490.4,1279.5L491.7,1275.2L495.3,1272.6L499.3,1269.0L501.1,1263.2L504.4,1260.9L508.4,1259.6L511.9,1256.2L514.2,1251.6L515.7,1247.4L518.4,1244.6L522.8,1242.3L525.2,1238.4L527.7,1230.5L530.6,1210.8L517.7,1195.3L498.2,1195.3Z " data-id="UG.MI" data-name="Mpigi" id="UG.MI"/>
utf-8utf-8<path d="M453.2,542.6L451.1,541.3L449.6,541.2L447.2,542.9L438.0,546.0L435.9,548.9L435.0,553.4L432.6,557.0L429.0,559.3L424.8,559.7L422.6,559.0L416.6,554.6L411.4,554.5L411.8,551.8L405.9,553.9L401.5,558.4L399.7,559.7L395.5,560.7L391.5,561.1L389.6,562.0L387.5,565.9L384.3,568.7L383.1,573.3L382.3,578.6L381.2,582.5L374.9,589.6L372.3,593.5L370.8,600.6L367.5,605.0L366.2,612.2L364.2,621.0L359.4,632.9L357.2,638.3L350.6,649.8L342.4,659.8L339.7,664.2L337.4,672.1L345.0,674.4L349.4,678.7L353.3,684.3L358.1,685.8L359.8,688.8L362.1,690.2L365.5,690.1L368.1,688.2L378.2,671.7L397.5,668.3L434.1,655.4L435.1,647.1L441.8,634.6L442.0,630.2L443.1,626.2L445.8,623.4L449.8,616.4L450.8,612.5L449.9,608.0L450.2,603.7L453.8,596.3L453.3,592.7L451.7,589.1L451.2,584.7L451.5,580.5L453.8,579.1L455.0,576.5L455.5,546.8L453.2,542.6Z " data-id="UG.AD" data-name="Adjumani" id="UG.AD"/>
utf-8utf-8<path d="M341.0,635.8L340.1,626.4L336.2,617.4L331.2,616.7L326.8,615.2L324.6,610.3L321.1,606.9L311.8,603.9L304.2,597.7L300.6,593.4L295.2,591.5L290.5,590.7L286.9,593.1L285.4,598.0L281.9,601.1L276.7,602.3L272.8,598.0L268.2,607.7L267.0,618.4L261.9,624.7L254.3,630.5L247.9,638.6L228.1,637.6L220.0,637.3L217.3,647.0L216.6,651.4L216.8,655.4L219.0,658.4L227.6,665.2L230.8,668.5L235.1,676.8L237.2,685.1L237.0,693.3L232.6,707.3L227.7,710.8L227.0,715.1L222.2,730.2L233.8,727.3L240.0,722.7L250.3,718.7L257.9,717.4L259.7,725.8L262.2,733.4L262.3,742.8L273.2,748.2L285.4,745.9L292.7,741.1L310.4,738.5L317.0,732.7L318.9,729.7L318.5,725.5L319.5,722.3L322.1,720.0L324.5,714.0L327.9,712.3L336.0,707.4L331.9,700.0L331.2,691.4L332.8,682.9L337.4,672.1L339.7,664.2L342.4,659.8L350.6,649.8L357.2,638.3L341.0,635.8Z " data-id="UG.AW.AU" data-name="Arua" id="UG.AW.AU"/>
utf-8utf-8<path d="M271.7,574.8L269.3,552.3L271.7,525.0L274.6,511.0L271.1,511.8L269.4,512.6L263.9,517.7L255.9,519.2L254.0,519.9L252.0,521.9L249.7,529.0L237.8,549.0L233.9,557.9L233.2,561.2L237.1,559.5L240.6,556.1L243.5,555.0L246.0,559.9L246.0,561.8L244.9,567.7L245.2,570.0L247.0,574.4L247.4,576.8L246.3,581.3L245.4,582.8L250.0,588.3L254.9,593.3L260.7,596.4L265.2,592.3L272.8,598.0L271.7,574.8Z " data-id="UG.OK.KB" data-name="Koboko" id="UG.OK.KB"/>
utf-8utf-8<path d="M342.6,926.7L354.0,927.6L366.3,920.7L371.5,911.7L371.4,897.8L376.7,892.8L381.9,891.8L383.7,886.8L381.0,880.8L375.7,875.9L370.3,865.9L364.1,856.9L364.0,841.0L365.6,827.1L364.9,812.8L362.2,813.7L356.0,817.7L347.1,820.3L338.1,827.9L332.2,830.3L333.7,832.2L336.4,837.0L337.4,841.9L334.5,845.4L339.2,858.3L339.5,865.3L336.0,871.0L339.4,880.1L339.8,883.1L339.8,888.1L338.7,891.2L337.8,898.8L335.4,904.1L331.4,906.9L326.1,905.1L325.2,907.6L325.5,907.6L331.7,914.0L331.9,924.8L342.6,926.7Z " data-id="UG.BL" data-name="Buliisa" id="UG.BL"/>
utf-8utf-8<path d="M340.6,737.9L341.1,733.0L346.2,728.9L346.5,726.4L345.2,721.6L344.2,714.3L342.4,711.8L339.6,710.2L336.0,707.4L327.9,712.3L324.5,714.0L322.1,720.0L319.5,722.3L318.5,725.5L318.9,729.7L317.0,732.7L310.4,738.5L292.7,741.1L285.4,745.9L273.2,748.2L277.2,761.5L274.6,769.4L269.0,773.3L268.0,780.8L260.3,782.0L258.8,786.3L261.9,788.5L272.4,801.7L272.3,808.6L275.0,810.2L283.0,811.8L288.6,811.4L297.4,807.6L297.7,816.5L298.4,820.9L299.8,824.5L303.6,827.8L314.1,834.5L314.4,835.1L318.9,830.8L320.6,827.7L321.1,823.4L322.5,819.5L324.5,816.0L332.2,806.1L335.6,803.5L345.2,799.6L347.4,798.2L349.3,795.8L350.1,793.3L350.7,787.9L351.7,785.7L351.7,785.8L351.7,782.7L352.6,778.1L354.3,774.4L359.1,772.4L360.4,770.9L361.4,766.5L360.6,764.7L355.3,765.8L352.0,762.7L349.2,753.8L346.9,749.5L344.3,746.2L341.9,742.3L340.6,737.9Z " data-id="UG.NE" data-name="Nebbi" id="UG.NE"/>
utf-8utf-8<path d="M374.6,518.3L369.8,531.7L360.4,546.1L347.6,567.9L346.4,589.7L347.5,617.4L359.4,632.9L364.2,621.0L366.2,612.2L367.5,605.0L370.8,600.6L372.3,593.5L374.9,589.6L381.2,582.5L382.3,578.6L383.1,573.3L384.3,568.7L387.5,565.9L389.6,562.0L391.5,561.1L395.5,560.7L399.7,559.7L401.5,558.4L405.9,553.9L411.8,551.8L411.4,554.5L416.6,554.6L422.6,559.0L424.8,559.7L429.0,559.3L432.6,557.0L435.0,553.4L435.9,548.9L438.0,546.0L447.2,542.9L449.6,541.2L435.2,540.2L432.7,538.7L431.4,535.2L430.7,525.7L430.0,521.7L427.3,516.7L414.1,500.2L409.7,496.1L408.6,495.5L403.9,494.7L389.6,513.2L387.9,515.0L384.5,516.6L374.6,518.3Z " data-id="UG.MY" data-name="Moyo" id="UG.MY"/>
utf-8utf-8<path d="M365.6,519.8L362.4,521.6L358.1,526.7L354.8,526.0L316.0,502.2L308.8,499.6L301.2,498.5L292.6,498.5L287.8,500.0L276.3,510.3L274.6,511.0L271.7,525.0L269.3,552.3L271.7,574.8L272.8,598.0L276.7,602.3L281.9,601.1L285.4,598.0L286.9,593.1L290.5,590.7L295.2,591.5L300.6,593.4L304.2,597.7L311.8,603.9L321.1,606.9L324.6,610.3L326.8,615.2L331.2,616.7L336.2,617.4L340.1,626.4L341.0,635.8L357.2,638.3L359.4,632.9L347.5,617.4L346.4,589.7L347.6,567.9L360.4,546.1L369.8,531.7L374.6,518.3L365.6,519.8Z " data-id="UG.YU" data-name="Yumbe" id="UG.YU"/>
utf-8utf-8<path d="M265.2,592.3L260.7,596.4L254.9,593.3L250.0,588.3L245.4,582.8L244.0,585.1L238.8,591.7L234.1,603.0L230.4,604.5L227.2,611.9L220.0,637.3L228.1,637.6L247.9,638.6L254.3,630.5L261.9,624.7L267.0,618.4L268.2,607.7L272.8,598.0L265.2,592.3Z " data-id="UG.MH" data-name="Maracha" id="UG.MH"/>
utf-8utf-8<path d="M575.8,1216.0L572.4,1203.9L571.6,1197.0L572.2,1190.0L573.1,1185.4L570.9,1180.9L567.0,1181.5L563.4,1182.6L562.2,1186.3L559.5,1188.7L556.2,1188.9L553.9,1186.7L550.6,1185.1L548.2,1193.6L549.8,1196.2L552.6,1198.8L551.9,1200.3L553.6,1204.8L552.5,1210.5L550.0,1214.2L546.0,1222.5L550.4,1228.7L561.4,1225.6L568.0,1225.7L568.4,1225.1L571.6,1225.5L571.6,1225.8L571.8,1225.8L575.8,1216.0Z " data-id="UG.KM" data-name="Kampala" id="UG.KM"/>
utf-8utf-8<path d="M488.5,1133.7L490.6,1127.8L490.0,1117.8L480.3,1108.1L469.5,1105.8L457.7,1096.7L449.8,1081.7L450.0,1077.4L449.6,1073.6L441.0,1056.4L426.7,1060.2L420.9,1066.7L418.8,1076.4L413.1,1082.1L405.2,1087.0L398.0,1094.3L390.2,1105.7L402.4,1115.5L412.5,1115.6L419.7,1118.8L434.8,1142.7L435.1,1145.6L436.8,1147.8L439.3,1149.2L441.4,1150.9L446.0,1152.1L455.7,1153.8L463.1,1153.5L475.5,1143.8L483.6,1139.7L488.5,1133.7Z " data-id="UG.KG" data-name="Kiboga" id="UG.KG"/>
utf-8utf-8<path d="M492.1,939.3L487.9,937.6L481.6,937.3L474.9,939.5L468.1,943.5L464.9,947.3L461.8,956.0L456.6,963.6L452.5,966.4L448.2,968.3L441.8,979.2L464.3,992.2L494.8,1026.8L513.3,1036.4L522.2,1046.3L524.0,1059.2L535.6,1074.5L552.3,1082.9L564.1,1084.6L563.3,1074.0L564.7,1061.0L566.9,1049.8L573.3,1047.9L578.3,1053.6L582.7,1062.3L592.6,1061.1L595.0,1040.0L592.1,1019.1L591.7,1009.3L591.0,1007.0L588.1,1005.4L586.6,1002.4L584.7,1001.7L581.3,999.5L575.9,997.4L575.3,980.3L559.4,981.9L554.6,976.6L551.0,969.9L545.7,970.9L542.0,969.8L536.3,963.5L532.3,960.2L527.8,958.8L519.5,952.8L507.3,948.5L504.5,943.4L492.1,939.3Z " data-id="UG.NA" data-name="Nakasongola" id="UG.NA"/>
utf-8utf-8<path d="M490.8,1166.3L490.2,1181.0L498.2,1195.3L517.7,1195.3L530.6,1210.8L527.7,1230.5L525.2,1238.4L522.8,1242.3L518.4,1244.6L515.7,1247.4L514.2,1251.6L511.9,1256.2L508.4,1259.6L504.4,1260.9L501.1,1263.2L499.3,1269.0L495.3,1272.6L491.7,1275.2L490.4,1279.5L491.0,1287.3L494.3,1289.9L499.4,1291.5L503.2,1289.1L503.6,1285.1L501.3,1281.5L495.6,1276.3L497.0,1274.8L502.5,1277.7L509.5,1279.9L514.7,1283.5L514.6,1290.5L519.6,1290.5L517.7,1286.2L518.8,1274.3L517.1,1267.7L520.9,1266.4L523.6,1269.3L527.3,1268.3L530.6,1264.9L532.1,1260.8L534.3,1262.9L534.0,1265.7L531.0,1270.7L527.0,1274.0L527.5,1275.4L530.3,1278.5L533.0,1279.2L535.0,1276.9L541.0,1267.7L541.9,1268.7L543.5,1274.8L545.0,1273.7L546.1,1270.1L547.3,1269.3L549.0,1269.9L550.4,1271.8L552.3,1276.3L554.6,1272.9L549.8,1264.2L551.0,1260.8L556.1,1263.6L557.9,1263.1L554.9,1257.8L559.8,1256.4L559.8,1255.0L554.9,1252.0L555.6,1249.2L553.3,1246.1L554.2,1244.3L556.2,1243.7L559.1,1244.8L559.8,1242.2L563.0,1241.6L564.9,1235.7L566.4,1228.8L568.0,1225.7L561.4,1225.6L550.4,1228.7L546.0,1222.5L550.0,1214.2L552.5,1210.5L553.6,1204.8L551.9,1200.3L552.6,1198.8L549.8,1196.2L548.2,1193.6L550.6,1185.1L553.9,1186.7L556.2,1188.9L559.5,1188.7L562.2,1186.3L563.4,1182.6L567.0,1181.5L570.9,1180.9L572.9,1175.7L572.8,1170.0L564.4,1170.1L556.3,1166.9L549.3,1172.8L542.4,1170.7L533.4,1170.8L516.0,1168.6L513.3,1170.0L510.5,1172.1L505.4,1173.6L501.0,1171.2L496.1,1167.8L490.8,1166.3Z " data-id="UG.WA" data-name="Wakiso" id="UG.WA"/>
utf-8utf-8<path d="M582.7,1062.3L578.3,1053.6L573.3,1047.9L566.9,1049.8L564.7,1061.0L563.3,1074.0L564.1,1084.6L552.3,1082.9L535.6,1074.5L524.0,1059.2L523.1,1076.4L525.3,1089.5L534.7,1105.7L534.9,1131.3L536.5,1134.8L538.9,1137.1L539.7,1140.6L537.3,1143.8L535.3,1147.7L533.3,1149.9L529.7,1149.5L525.2,1149.7L520.9,1150.6L517.6,1153.3L514.8,1156.6L511.3,1164.0L510.5,1172.1L513.3,1170.0L516.0,1168.6L533.4,1170.8L542.4,1170.7L549.3,1172.8L556.3,1166.9L564.4,1170.1L572.8,1170.0L588.1,1163.5L591.6,1149.7L594.4,1129.4L595.1,1110.1L592.0,1085.7L592.6,1061.1L582.7,1062.3Z " data-id="UG.LW.BM" data-name="Luweero" id="UG.LW.BM"/>
utf-8utf-8<path d="M439.3,1149.2L436.8,1147.8L435.1,1145.6L434.8,1142.7L419.7,1118.8L412.5,1115.6L402.4,1115.5L390.2,1105.7L383.7,1105.7L373.4,1110.1L346.8,1106.7L344.3,1111.8L344.4,1115.7L342.0,1118.1L340.2,1121.2L338.4,1132.4L333.4,1140.4L325.0,1136.6L317.0,1138.6L305.9,1156.3L310.6,1161.4L313.1,1167.9L312.5,1171.1L311.3,1174.2L311.4,1176.7L308.8,1178.3L296.0,1180.8L291.9,1184.8L290.3,1191.7L286.8,1198.8L287.0,1206.8L288.8,1210.3L289.9,1213.9L285.4,1219.0L281.5,1225.4L276.8,1231.3L271.6,1236.0L268.4,1242.6L275.2,1242.8L281.7,1241.5L288.7,1237.5L295.6,1238.2L300.7,1245.0L306.7,1250.1L314.3,1250.4L319.8,1244.3L328.1,1243.9L328.5,1233.0L335.3,1230.0L346.8,1227.6L358.2,1223.5L372.1,1215.4L380.1,1215.8L386.9,1218.2L399.5,1222.9L408.4,1231.9L417.3,1226.7L440.7,1224.1L443.9,1215.4L441.8,1205.8L442.5,1201.0L444.3,1197.2L442.7,1191.1L439.5,1185.6L438.8,1181.0L435.8,1176.8L436.3,1174.7L438.8,1171.3L438.5,1169.1L433.8,1167.3L432.0,1161.8L434.5,1156.3L439.2,1154.5L441.4,1150.9L439.3,1149.2Z " data-id="UG.MD" data-name="Mubende" id="UG.MD"/>
utf-8utf-8<path d="M489.6,1160.7L487.0,1148.5L483.6,1139.7L475.5,1143.8L463.1,1153.5L455.7,1153.8L446.0,1152.1L441.4,1150.9L439.2,1154.5L434.5,1156.3L432.0,1161.8L433.8,1167.3L438.5,1169.1L438.8,1171.3L436.3,1174.7L435.8,1176.8L438.8,1181.0L439.5,1185.6L442.7,1191.1L444.3,1197.2L442.5,1201.0L441.8,1205.8L443.9,1215.4L440.7,1224.1L417.3,1226.7L422.1,1228.4L426.3,1236.1L429.7,1238.3L433.8,1239.6L437.4,1239.2L440.0,1237.0L444.1,1238.1L447.4,1236.8L449.4,1234.6L453.2,1234.3L476.0,1232.4L479.4,1232.1L492.3,1233.0L498.6,1230.0L499.3,1218.7L498.8,1210.5L499.2,1206.4L498.2,1195.3L490.2,1181.0L490.8,1166.3L489.6,1160.7Z " data-id="UG.TY.BS" data-name="Mityana" id="UG.TY.BS"/>
utf-8utf-8<path d="M522.2,1046.3L513.3,1036.4L494.8,1026.8L464.3,992.2L441.8,979.2L435.5,985.6L428.0,990.6L416.8,1003.8L430.4,1018.8L437.2,1032.0L441.0,1056.4L449.6,1073.6L450.0,1077.4L449.8,1081.7L457.7,1096.7L469.5,1105.8L480.3,1108.1L490.0,1117.8L490.6,1127.8L488.5,1133.7L483.6,1139.7L487.0,1148.5L489.6,1160.7L490.8,1166.3L496.1,1167.8L501.0,1171.2L505.4,1173.6L510.5,1172.1L511.3,1164.0L514.8,1156.6L517.6,1153.3L520.9,1150.6L525.2,1149.7L529.7,1149.5L533.3,1149.9L535.3,1147.7L537.3,1143.8L539.7,1140.6L538.9,1137.1L536.5,1134.8L534.9,1131.3L534.7,1105.7L525.3,1089.5L523.1,1076.4L524.0,1059.2L522.2,1046.3Z " data-id="UG.NK" data-name="Nakaseke" id="UG.NK"/>
utf-8utf-8<path d="M760.2,577.9L752.6,568.0L749.0,556.6L744.2,546.0L732.0,526.9L724.9,502.8L718.2,507.3L710.3,508.4L680.8,506.7L676.6,506.5L673.0,521.5L674.2,528.2L678.5,534.9L680.8,546.4L680.6,573.7L670.4,573.1L670.3,562.2L662.1,551.9L657.3,551.9L653.6,554.3L651.5,562.8L648.9,565.8L617.8,565.8L615.7,570.7L615.8,574.9L611.5,578.6L604.6,580.4L586.9,581.6L584.9,587.0L585.0,596.8L588.8,605.2L588.9,613.7L589.9,625.6L593.1,627.8L600.0,628.9L609.9,636.1L616.6,640.4L617.1,625.6L627.6,626.9L641.6,635.4L647.4,643.9L653.3,649.5L658.5,659.2L664.7,639.8L668.9,623.9L679.6,625.9L686.9,623.1L695.6,622.2L693.8,608.5L705.8,608.9L700.7,600.8L715.6,602.5L718.9,604.6L721.9,607.4L726.0,607.8L730.2,607.1L736.9,606.9L743.6,608.3L748.8,611.0L754.3,610.7L759.8,606.3L764.0,600.8L762.8,594.9L763.9,592.2L765.4,589.6L760.2,577.9Z " data-id="UG.TG" data-name="Kitgum" id="UG.TG"/>
utf-8utf-8<path d="M539.8,630.1L517.0,607.7L511.7,603.4L504.7,610.6L498.0,621.3L486.5,632.4L483.2,638.8L479.4,651.9L479.1,664.0L482.4,672.7L486.8,707.2L486.4,712.0L484.2,719.0L481.9,725.6L478.5,731.0L477.2,736.8L479.9,743.1L485.0,746.5L496.6,747.4L495.8,750.0L496.2,754.1L497.1,758.2L500.0,763.6L504.9,767.2L510.8,769.2L514.2,773.0L520.8,773.2L528.4,771.1L536.6,744.3L552.4,741.4L569.2,745.1L569.4,741.3L572.1,738.9L574.5,735.4L573.6,730.8L572.3,727.3L573.9,724.6L578.7,723.0L581.5,718.5L579.1,715.4L575.7,713.4L573.4,708.6L571.6,703.4L569.3,701.1L567.0,699.8L564.2,695.6L545.4,656.6L533.4,638.9L535.3,637.2L538.8,637.2L540.9,634.7L539.8,630.1Z " data-id="UG.GL.AW" data-name="Gulu" id="UG.GL.AW"/>
utf-8utf-8<path d="M627.8,761.6L625.1,758.7L621.4,758.2L618.9,747.9L614.0,746.1L610.5,743.6L606.1,743.0L602.7,741.2L600.6,738.0L598.2,738.1L595.3,745.5L589.7,750.4L598.5,763.3L596.4,771.9L593.7,783.6L590.1,791.5L587.4,799.4L591.8,806.1L596.5,817.2L599.9,823.3L598.8,827.2L597.4,848.3L600.2,851.4L603.4,853.6L607.4,853.3L611.2,854.9L618.6,855.6L625.4,857.0L631.6,861.5L637.9,865.2L643.4,863.4L647.5,856.7L646.0,824.3L642.2,817.0L635.2,812.7L628.2,806.7L625.5,799.4L619.0,797.0L611.0,797.0L612.0,792.1L620.0,788.5L624.8,782.4L624.7,776.3L630.6,772.1L633.2,765.4L633.6,759.8L627.8,761.6Z " data-id="UG.LA" data-name="Lira" id="UG.LA"/>
utf-8utf-8<path d="M682.7,857.5L679.8,853.5L670.7,851.5L663.4,847.3L660.2,848.8L656.6,848.0L653.4,854.1L647.5,856.7L643.4,863.4L637.9,865.2L631.6,861.5L625.4,857.0L618.6,855.6L611.2,854.9L609.7,864.4L607.0,873.5L607.8,880.8L615.9,882.2L622.2,885.4L621.6,898.0L636.6,908.3L630.3,929.5L637.2,932.7L643.9,932.2L649.6,929.1L650.9,923.8L654.6,911.8L655.7,905.0L657.3,903.0L659.6,902.0L676.0,890.4L678.8,886.8L681.0,882.6L682.7,881.0L683.7,878.9L685.1,862.2L682.7,857.5Z " data-id="UG.DO.DK" data-name="Dokolo" id="UG.DO.DK"/>
utf-8utf-8<path d="M653.3,649.5L647.4,643.9L641.6,635.4L627.6,626.9L617.1,625.6L616.6,640.4L609.9,636.1L600.0,628.9L593.1,627.8L589.9,625.6L581.2,627.6L571.1,634.5L540.9,634.7L538.8,637.2L535.3,637.2L533.4,638.9L545.4,656.6L564.2,695.6L567.0,699.8L569.3,701.1L571.6,703.4L573.4,708.6L575.7,713.4L579.1,715.4L581.5,718.5L578.7,723.0L573.9,724.6L572.3,727.3L573.6,730.8L574.5,735.4L572.1,738.9L569.4,741.3L569.2,745.1L589.7,750.4L595.3,745.5L598.2,738.1L600.6,738.0L602.7,741.2L606.1,743.0L610.5,743.6L614.0,746.1L618.9,747.9L621.4,758.2L625.1,758.7L627.8,761.6L633.6,759.8L638.9,752.4L646.2,747.3L654.4,743.5L645.2,730.2L640.9,722.9L645.6,716.9L669.2,715.7L675.0,708.4L676.0,694.4L672.1,687.1L660.3,686.5L650.7,684.7L649.5,677.4L654.8,672.6L658.5,667.7L658.5,659.2L653.3,649.5Z " data-id="UG.PD" data-name="Pader" id="UG.PD"/>
utf-8utf-8<path d="M461.4,935.6L453.5,936.6L453.5,944.6L447.4,945.6L443.8,939.6L436.8,937.6L431.5,934.6L431.4,926.7L428.7,918.7L424.3,909.7L424.2,899.8L425.9,886.8L425.8,877.8L418.7,865.9L413.4,863.9L406.4,862.9L402.8,857.9L401.7,834.0L403.3,808.5L386.1,815.1L382.6,815.6L379.1,813.2L377.5,812.8L364.9,812.8L365.6,827.1L364.0,841.0L364.1,856.9L370.3,865.9L375.7,875.9L381.0,880.8L383.7,886.8L381.9,891.8L376.7,892.8L371.4,897.8L371.5,911.7L366.3,920.7L354.0,927.6L342.6,926.7L331.9,924.8L332.6,927.4L332.8,930.4L334.4,932.9L332.4,944.1L334.8,951.9L339.1,950.4L343.2,949.5L344.5,953.8L347.8,993.3L351.0,997.1L355.2,1000.7L360.2,1003.0L389.0,1007.1L397.4,1009.8L405.6,1010.8L409.6,1005.8L413.1,1004.5L416.8,1003.8L428.0,990.6L435.5,985.6L441.8,979.2L448.2,968.3L452.5,966.4L456.6,963.6L461.8,956.0L464.9,947.3L468.1,943.5L467.6,939.8L461.4,935.6Z " data-id="UG.MC" data-name="Masindi" id="UG.MC"/>
utf-8utf-8<path d="M552.4,741.4L536.6,744.3L528.4,771.1L520.8,773.2L514.2,773.0L506.7,774.0L499.1,773.1L492.2,774.9L491.3,783.4L492.3,800.5L495.8,817.1L498.9,818.7L501.7,822.6L505.1,829.8L507.1,844.3L508.4,847.6L510.5,850.9L512.0,855.3L526.0,861.9L534.8,859.9L545.9,840.5L549.0,833.0L551.2,827.9L554.4,823.2L558.7,819.4L554.6,795.0L561.8,792.7L574.3,774.3L582.1,774.7L590.1,777.6L596.4,771.9L598.5,763.3L589.7,750.4L569.2,745.1L552.4,741.4Z " data-id="UG.OY.OA" data-name="Oyam" id="UG.OY.OA"/>
utf-8utf-8<path d="M117.1,1129.9L120.3,1125.7L121.6,1115.7L124.8,1110.9L129.4,1108.5L121.0,1099.7L116.8,1087.4L113.5,1094.3L111.5,1096.9L109.8,1098.0L90.2,1103.1L82.5,1107.0L75.9,1112.8L73.5,1114.3L70.1,1122.6L69.8,1124.7L70.9,1135.4L68.6,1152.9L68.6,1157.2L72.0,1174.0L72.5,1182.1L69.2,1190.0L65.8,1194.5L71.0,1200.3L73.6,1201.3L83.0,1195.5L84.9,1190.5L87.6,1186.1L92.2,1183.5L95.8,1178.0L99.3,1168.2L103.8,1159.3L107.7,1154.6L109.4,1148.2L111.7,1142.5L114.5,1137.2L117.1,1129.9Z " data-id="UG.BN" data-name="Bundibugyo" id="UG.BN"/>
utf-8utf-8<path d="M331.7,914.0L325.5,907.6L325.2,907.6L324.6,909.4L323.5,920.3L322.4,925.0L319.9,930.2L317.4,933.6L310.0,939.3L299.5,950.4L288.5,957.2L286.2,957.8L279.7,956.3L277.4,957.8L274.9,956.2L272.6,962.5L267.4,965.5L261.2,967.4L256.1,970.5L252.9,975.7L247.4,988.0L216.9,1028.2L215.0,1031.4L214.7,1037.9L213.9,1041.6L193.8,1065.9L193.3,1068.4L191.3,1068.7L191.9,1069.1L206.9,1066.7L219.2,1060.9L224.1,1054.9L230.6,1052.2L242.8,1056.1L260.3,1048.9L268.8,1047.7L275.9,1043.3L284.1,1044.5L288.2,1037.9L293.1,1037.6L298.2,1038.1L301.9,1036.2L304.7,1032.4L311.6,1032.3L319.5,1033.6L324.4,1029.2L330.6,1027.0L341.1,1021.0L346.4,1018.7L360.2,1003.0L355.2,1000.7L351.0,997.1L347.8,993.3L344.5,953.8L343.2,949.5L339.1,950.4L334.8,951.9L332.4,944.1L334.4,932.9L332.8,930.4L332.6,927.4L331.9,924.8L331.7,914.0Z " data-id="UG.HO" data-name="Hoima" id="UG.HO"/>
utf-8utf-8<path d="M179.7,1080.9L169.5,1089.5L162.4,1100.1L148.8,1115.5L140.1,1107.4L135.8,1122.9L127.2,1129.4L114.5,1137.2L111.7,1142.5L109.4,1148.2L107.7,1154.6L103.8,1159.3L99.3,1168.2L95.8,1178.0L92.2,1183.5L87.6,1186.1L84.9,1190.5L83.0,1195.5L73.6,1201.3L71.0,1200.3L65.8,1194.5L56.1,1207.2L54.0,1211.1L52.7,1215.5L74.9,1214.1L94.3,1209.2L108.7,1214.1L113.7,1223.9L123.1,1223.1L128.1,1227.1L132.7,1230.8L137.2,1234.4L149.8,1238.2L152.9,1221.0L154.8,1208.5L154.3,1203.1L150.4,1197.6L153.1,1191.1L152.3,1184.8L155.0,1179.6L159.6,1175.8L161.8,1173.2L164.4,1168.6L167.0,1167.6L159.1,1161.1L156.3,1157.8L156.1,1152.6L159.1,1148.3L161.9,1145.3L163.0,1139.0L164.0,1127.3L168.1,1124.2L171.7,1118.2L174.0,1111.2L172.2,1108.4L175.1,1102.5L178.8,1097.3L183.1,1092.6L179.7,1080.9Z " data-id="UG.BR" data-name="Kabarole" id="UG.BR"/>
utf-8utf-8<path d="M251.9,1137.5L249.6,1132.8L240.5,1119.1L233.3,1112.1L224.7,1110.0L216.5,1105.5L199.1,1100.7L183.1,1092.6L178.8,1097.3L175.1,1102.5L172.2,1108.4L174.0,1111.2L171.7,1118.2L168.1,1124.2L164.0,1127.3L163.0,1139.0L161.9,1145.3L159.1,1148.3L156.1,1152.6L156.3,1157.8L159.1,1161.1L167.0,1167.6L164.4,1168.6L161.8,1173.2L168.5,1179.2L170.7,1188.1L173.6,1193.1L179.4,1196.1L179.4,1203.1L181.6,1210.4L182.1,1218.3L184.3,1223.7L189.0,1223.0L199.1,1218.0L207.9,1211.6L215.2,1203.4L226.5,1198.4L236.3,1202.0L241.5,1199.8L245.4,1199.5L245.7,1189.5L252.0,1189.2L252.0,1170.3L253.8,1167.4L257.9,1166.7L257.9,1154.2L248.8,1148.9L246.5,1144.6L250.3,1143.5L255.1,1140.7L251.9,1137.5Z " data-id="UG.KJ" data-name="Kyenjojo" id="UG.KJ"/>
utf-8utf-8<path d="M311.6,1032.3L304.7,1032.4L301.9,1036.2L298.2,1038.1L293.1,1037.6L288.2,1037.9L284.1,1044.5L275.9,1043.3L268.8,1047.7L260.3,1048.9L242.8,1056.1L230.6,1052.2L224.1,1054.9L219.2,1060.9L206.9,1066.7L191.9,1069.1L193.0,1069.9L193.8,1071.4L191.4,1072.3L188.9,1072.1L186.7,1071.0L185.0,1068.7L183.3,1070.1L180.9,1075.1L180.9,1075.1L179.7,1080.9L183.1,1092.6L199.1,1100.7L216.5,1105.5L224.7,1110.0L233.3,1112.1L240.5,1119.1L249.6,1132.8L251.9,1137.5L255.1,1140.7L265.1,1142.8L273.3,1144.2L282.1,1146.7L290.3,1151.2L295.3,1151.9L299.5,1154.4L302.9,1154.1L305.9,1156.3L317.0,1138.6L325.0,1136.6L333.4,1140.4L338.4,1132.4L340.2,1121.2L342.0,1118.1L344.4,1115.7L344.3,1111.8L346.8,1106.7L346.8,1100.0L344.8,1093.3L347.6,1089.3L352.2,1085.9L353.8,1083.1L356.8,1082.5L359.7,1080.9L361.5,1077.8L361.9,1072.3L358.6,1068.1L348.5,1058.2L340.9,1045.7L335.9,1043.3L330.4,1041.7L324.7,1038.1L319.5,1033.6L311.6,1032.3Z " data-id="UG.KI" data-name="Kibale" id="UG.KI"/>
utf-8utf-8<path d="M916.2,1020.9L920.4,1008.9L919.8,1000.5L913.4,995.7L901.7,992.1L895.3,985.5L886.6,989.9L881.0,994.1L876.3,999.5L873.5,1005.1L872.6,1011.3L876.2,1015.7L895.1,1024.2L907.5,1031.9L912.3,1037.2L912.2,1044.3L909.2,1056.7L912.3,1057.5L915.3,1059.4L918.9,1058.6L918.9,1058.6L918.4,1057.3L916.3,1046.9L916.6,1036.4L916.2,1020.9Z " data-id="UG.KP" data-name="Kapchorwa" id="UG.KP"/>
utf-8utf-8<path d="M951.9,990.9L949.2,1001.4L943.4,1009.9L939.9,1011.8L936.0,1012.5L931.2,1014.7L926.7,1018.0L920.6,1026.4L916.6,1036.4L916.3,1046.9L918.4,1057.3L918.9,1058.6L918.9,1058.6L919.1,1058.6L921.0,1054.8L921.3,1050.1L922.6,1046.3L931.4,1044.0L937.7,1037.2L941.5,1034.6L956.5,1032.8L962.3,1029.8L964.6,1021.4L962.7,1013.1L959.4,1004.7L959.0,1000.8L959.0,1000.7L951.9,990.9Z " data-id="UG.BW.KO" data-name="Bukwa" id="UG.BW.KO"/>
utf-8utf-8<path d="M906.7,1043.1L899.3,1041.3L890.3,1040.1L885.5,1034.7L871.7,1030.5L855.3,1027.8L851.3,1037.9L844.9,1044.1L849.1,1046.1L853.8,1045.1L856.0,1049.4L858.8,1053.3L861.7,1054.3L864.4,1056.3L867.0,1056.5L869.7,1055.7L875.8,1057.4L881.7,1060.0L887.5,1056.1L902.5,1057.6L909.2,1056.7L912.2,1044.3L906.7,1043.1Z " data-id="UG.SI.BD" data-name="Sironko" id="UG.SI.BD"/>
utf-8utf-8<path d="M841.0,1043.3L837.5,1041.0L837.7,1045.4L839.7,1049.1L840.0,1054.2L837.0,1063.7L834.2,1066.9L830.4,1067.4L829.0,1070.9L833.7,1071.5L837.6,1073.4L835.4,1081.2L834.9,1090.1L832.0,1098.2L836.7,1100.5L840.9,1103.5L844.4,1107.8L846.4,1113.6L852.0,1107.7L853.8,1098.6L855.3,1094.0L857.6,1089.9L864.1,1086.3L863.9,1082.5L864.6,1078.1L867.6,1073.9L869.9,1069.0L874.3,1062.5L881.7,1060.0L875.8,1057.4L869.7,1055.7L867.0,1056.5L864.4,1056.3L861.7,1054.3L858.8,1053.3L856.0,1049.4L853.8,1045.1L849.1,1046.1L844.9,1044.1L841.0,1043.3Z " data-id="UG.ME.BN" data-name="Mbale" id="UG.ME.BN"/>
utf-8utf-8<path d="M864.6,1078.1L863.9,1082.5L864.1,1086.3L857.6,1089.9L855.3,1094.0L853.8,1098.6L852.0,1107.7L846.4,1113.6L858.6,1124.6L870.7,1130.5L870.8,1130.5L871.2,1127.9L872.7,1126.1L884.4,1119.4L887.6,1116.2L890.2,1107.8L895.4,1100.0L900.1,1086.7L901.2,1082.5L901.2,1077.9L897.1,1076.3L880.3,1076.3L879.9,1080.8L876.7,1080.8L876.7,1077.9L864.6,1078.1Z " data-id="UG.MF" data-name="Manafwa" id="UG.MF"/>
utf-8utf-8<path d="M781.0,1144.4L775.3,1144.6L769.6,1135.5L766.2,1140.6L760.7,1139.8L754.6,1136.9L748.8,1133.4L750.3,1138.8L755.3,1144.4L755.8,1152.7L754.5,1160.9L751.1,1167.2L746.5,1172.9L744.9,1181.1L745.1,1191.4L744.9,1193.7L742.8,1198.1L747.0,1201.1L750.7,1206.5L760.5,1209.0L759.0,1217.9L759.1,1217.8L760.6,1217.0L762.1,1216.7L767.0,1213.7L773.5,1208.4L779.6,1205.5L785.3,1205.9L787.1,1197.0L790.7,1191.3L796.9,1187.1L797.3,1182.5L803.8,1172.6L807.2,1171.8L808.7,1168.4L797.4,1159.2L795.0,1150.9L791.8,1143.4L789.3,1142.6L786.7,1142.4L781.0,1144.4Z " data-id="UG.BG" data-name="Bugiri" id="UG.BG"/>
utf-8utf-8<path d="M808.7,1168.4L807.2,1171.8L803.8,1172.6L797.3,1182.5L796.9,1187.1L801.1,1196.4L801.6,1201.7L799.4,1205.4L796.4,1208.8L794.1,1214.0L795.0,1220.3L799.2,1229.8L804.4,1237.9L810.5,1232.3L813.1,1230.6L815.9,1234.4L824.1,1222.0L830.7,1216.2L832.3,1213.5L832.8,1209.2L830.7,1201.7L830.5,1197.8L831.3,1196.0L836.3,1187.8L840.7,1167.3L822.0,1165.8L818.8,1167.0L815.7,1169.0L812.3,1168.9L808.7,1168.4Z " data-id="UG.BU" data-name="Busia" id="UG.BU"/>
utf-8utf-8<path d="M834.9,1090.1L835.4,1081.2L837.6,1073.4L833.7,1071.5L829.0,1070.9L818.0,1079.0L808.0,1088.7L798.2,1093.0L787.7,1090.6L778.0,1088.6L769.2,1091.2L773.6,1096.2L775.1,1102.9L774.9,1110.5L775.5,1117.7L778.1,1124.8L779.6,1131.4L784.0,1135.3L786.7,1142.4L789.3,1142.6L791.8,1143.4L793.2,1141.6L793.3,1139.1L802.4,1116.0L806.6,1109.4L812.6,1104.9L819.4,1104.4L822.5,1103.0L825.2,1100.4L828.2,1098.5L832.0,1098.2L834.9,1090.1Z " data-id="UG.BJ.BN" data-name="Butaleja" id="UG.BJ.BN"/>
utf-8utf-8<path d="M737.0,1191.9L733.8,1198.2L729.1,1203.3L725.8,1213.5L723.3,1215.3L718.4,1216.3L718.8,1216.8L724.0,1219.3L723.0,1222.2L726.5,1223.1L726.5,1226.7L724.1,1229.4L720.6,1227.9L723.0,1226.6L717.5,1224.4L714.8,1224.2L713.0,1225.1L706.7,1223.7L709.2,1226.6L713.0,1227.9L710.5,1229.4L715.5,1232.2L711.5,1234.9L714.0,1238.3L718.7,1242.1L721.8,1246.5L723.1,1246.5L722.6,1240.6L722.8,1237.7L723.7,1236.4L725.3,1237.3L725.7,1239.5L725.5,1244.9L729.1,1240.2L730.7,1239.4L729.7,1243.8L728.0,1247.9L731.4,1245.7L731.8,1243.6L733.1,1243.6L733.5,1246.9L735.2,1248.2L737.2,1247.3L738.2,1244.3L739.7,1242.4L743.2,1240.7L746.6,1238.3L748.2,1234.4L746.8,1223.4L747.0,1220.9L748.8,1218.9L751.1,1218.4L753.6,1219.1L755.8,1220.9L759.0,1217.9L760.5,1209.0L750.7,1206.5L747.0,1201.1L742.8,1198.1L744.9,1193.7L737.0,1191.9Z " data-id="UG.MG" data-name="Mayuge" id="UG.MG"/>
utf-8utf-8<path d="M844.4,1107.8L840.9,1103.5L836.7,1100.5L832.0,1098.2L828.2,1098.5L825.2,1100.4L822.5,1103.0L819.4,1104.4L812.6,1104.9L806.6,1109.4L802.4,1116.0L793.3,1139.1L793.2,1141.6L791.8,1143.4L795.0,1150.9L797.4,1159.2L808.7,1168.4L812.3,1168.9L815.7,1169.0L818.8,1167.0L822.0,1165.8L840.7,1167.3L840.9,1166.6L844.0,1160.2L849.4,1156.0L856.8,1153.0L862.8,1149.5L867.2,1144.2L870.1,1135.3L870.8,1130.5L870.7,1130.5L858.6,1124.6L846.4,1113.6L844.4,1107.8Z " data-id="UG.TR" data-name="Tororo" id="UG.TR"/>
utf-8utf-8<path d="M853.8,857.5L852.1,847.3L845.2,840.9L797.3,807.3L793.9,816.9L792.5,827.0L793.6,830.4L795.7,833.2L797.6,842.2L797.9,847.0L795.0,855.1L795.3,859.0L797.0,863.3L794.9,867.5L794.8,870.9L796.2,874.0L795.4,883.4L796.5,887.8L796.4,891.9L790.4,897.2L788.2,902.5L791.3,909.7L791.6,917.9L787.4,925.4L780.5,931.0L779.9,935.7L780.9,939.3L789.3,940.1L796.5,945.5L805.5,948.6L814.6,946.0L823.3,944.7L854.4,946.9L854.0,879.8L853.8,857.5Z " data-id="UG.KK.UU" data-name="Katakwi" id="UG.KK.UU"/>
utf-8utf-8<path d="M873.2,645.7L863.8,640.0L841.7,622.0L819.3,613.2L795.5,612.3L796.7,606.1L794.9,601.4L789.7,600.1L784.3,602.7L775.0,597.4L765.4,589.6L763.9,592.2L762.8,594.9L764.0,600.8L759.8,606.3L754.3,610.7L748.8,611.0L743.6,608.3L736.9,606.9L730.2,607.1L731.3,622.3L741.1,623.4L746.5,626.5L754.0,625.9L754.1,644.7L752.8,651.7L759.1,656.9L761.2,664.1L784.5,676.8L784.4,697.7L786.0,731.7L790.4,733.6L805.0,742.4L807.1,720.5L815.8,713.5L832.2,715.2L840.2,714.4L855.2,720.1L859.7,697.6L860.8,688.4L863.7,680.0L874.8,663.7L883.8,646.0L873.2,645.7Z " data-id="UG.KF.JE" data-name="Kotido" id="UG.KF.JE"/>
utf-8utf-8<path d="M768.4,787.0L763.8,784.7L754.6,795.3L748.1,795.6L743.1,801.5L736.8,800.4L731.3,796.6L731.2,802.0L731.9,810.3L726.6,816.1L720.2,821.3L712.8,821.5L714.8,824.7L717.7,827.4L718.8,831.4L716.7,839.5L717.9,843.8L715.4,847.3L711.7,848.5L709.6,845.1L706.7,844.4L699.5,851.4L698.6,859.6L699.8,866.4L700.7,870.7L702.3,874.6L705.7,876.6L708.2,879.2L708.4,887.6L713.3,893.8L714.6,884.9L716.7,876.4L717.7,869.6L722.0,866.0L729.1,867.7L732.6,875.2L737.2,880.9L743.3,884.8L747.3,885.7L750.9,887.4L752.9,894.6L756.3,897.8L760.3,900.0L763.7,904.6L770.1,910.4L775.4,917.3L776.4,921.6L777.0,926.1L778.6,928.5L780.5,931.0L787.4,925.4L791.6,917.9L791.3,909.7L788.2,902.5L790.4,897.2L796.4,891.9L796.5,887.8L795.4,883.4L796.2,874.0L794.8,870.9L794.9,867.5L797.0,863.3L795.3,859.0L795.0,855.1L797.9,847.0L797.6,842.2L795.7,833.2L793.6,830.4L792.5,827.0L793.9,816.9L797.3,807.3L768.4,787.0Z " data-id="UG.AM" data-name="Amuria" id="UG.AM"/>
utf-8utf-8<path d="M910.8,638.3L906.9,635.4L898.2,632.6L894.4,629.9L892.3,625.1L890.2,599.6L887.8,591.4L883.2,584.8L882.7,582.3L885.0,574.9L885.3,572.9L882.2,566.2L882.0,563.9L883.0,562.1L888.2,559.8L891.6,553.7L893.3,545.4L893.5,528.7L892.2,524.3L889.5,522.4L886.1,521.2L882.6,519.1L876.6,512.0L873.3,510.5L868.3,512.1L866.4,514.1L864.8,517.0L862.7,515.6L859.8,507.2L855.7,501.3L839.3,501.9L840.5,500.3L844.2,497.7L841.8,494.5L838.9,493.3L838.6,492.2L847.3,487.0L849.2,484.3L848.7,481.4L844.6,479.0L841.1,479.0L833.8,481.9L831.0,482.6L826.7,480.8L826.9,477.2L829.2,472.5L831.1,467.1L830.6,463.8L828.4,461.4L823.5,457.1L822.0,453.8L823.5,446.8L824.0,442.0L823.3,437.1L818.0,430.4L817.7,427.6L817.9,421.2L815.6,416.4L811.4,412.7L806.0,409.8L725.8,502.2L724.9,502.8L732.0,526.9L744.2,546.0L749.0,556.6L752.6,568.0L760.2,577.9L765.4,589.6L775.0,597.4L784.3,602.7L789.7,600.1L794.9,601.4L796.7,606.1L795.5,612.3L819.3,613.2L841.7,622.0L863.8,640.0L873.2,645.7L883.8,646.0L891.1,647.1L897.9,645.3L902.0,644.8L906.2,646.6L909.6,645.2L913.0,642.7L910.8,638.3Z " data-id="UG.AB" data-name="Kaabong" id="UG.AB"/>
utf-8utf-8<path d="M790.4,733.6L786.0,731.7L784.4,697.7L784.5,676.8L761.2,664.1L759.1,656.9L752.8,651.7L754.1,644.7L754.0,625.9L746.5,626.5L741.1,623.4L731.3,622.3L732.1,633.7L735.1,671.1L734.8,677.3L736.1,682.9L736.9,689.1L739.7,694.4L741.0,700.7L741.1,707.9L731.8,717.8L726.8,731.7L728.7,746.7L740.9,765.1L746.5,769.6L750.4,775.7L756.1,775.3L761.4,773.5L772.4,766.4L784.4,766.6L796.2,768.1L809.7,766.3L815.4,766.2L817.9,764.5L817.4,762.0L813.2,758.1L811.0,752.3L806.9,747.0L805.0,742.4L790.4,733.6Z " data-id="UG.AI.LB" data-name="Abim" id="UG.AI.LB"/>
utf-8utf-8<path d="M980.4,817.7L973.1,798.3L971.9,790.2L973.4,785.0L976.7,782.1L980.4,779.8L983.1,776.1L983.5,771.4L981.8,767.8L976.8,762.0L975.7,758.1L974.5,747.7L972.7,744.9L971.0,745.2L968.3,748.5L965.8,748.2L964.1,746.3L956.2,728.1L953.2,710.1L949.3,697.0L946.4,693.2L939.0,687.6L934.5,692.2L930.9,691.9L929.2,690.0L926.4,685.0L920.5,677.7L918.6,674.1L913.0,642.7L913.0,642.7L909.6,645.2L906.2,646.6L902.0,644.8L897.9,645.3L891.1,647.1L883.8,646.0L874.8,663.7L863.7,680.0L860.8,688.4L859.7,697.6L870.2,702.6L883.4,704.5L894.0,709.5L907.4,722.5L917.1,732.4L932.1,737.4L932.3,750.4L942.8,754.3L950.0,762.3L952.6,770.0L958.1,786.2L964.4,806.1L966.1,835.6L969.2,847.0L977.0,839.0L983.8,826.7L980.4,817.7Z " data-id="UG.MT" data-name="Moroto" id="UG.MT"/>
utf-8utf-8<path d="M966.1,835.6L964.4,806.1L958.1,786.2L952.6,770.0L930.7,771.3L930.4,845.0L925.2,853.9L897.1,855.9L886.6,863.9L880.5,867.9L878.8,874.9L871.8,877.8L861.2,879.8L854.0,879.8L854.4,946.9L856.8,947.1L858.6,947.9L857.8,962.6L860.7,961.6L863.5,961.2L866.0,963.0L868.7,964.3L884.9,962.3L895.1,962.7L907.8,955.1L912.8,956.7L917.3,959.8L923.9,959.8L932.5,965.7L943.6,957.5L953.2,950.6L960.1,936.6L962.6,916.7L962.5,889.8L963.2,871.9L972.9,870.9L969.2,847.0L966.1,835.6Z " data-id="UG.NP" data-name="Nakapiripirit" id="UG.NP"/>
utf-8utf-8<path d="M419.9,1492.0L417.5,1489.7L420.0,1493.5L419.9,1492.0Z M310.1,1381.8L308.6,1394.2L300.8,1396.0L291.4,1395.1L288.2,1404.7L280.3,1420.9L289.0,1426.8L296.4,1434.6L299.8,1439.5L301.4,1445.4L300.7,1450.7L303.3,1460.0L300.0,1464.7L302.4,1469.1L306.6,1472.2L310.4,1476.5L311.7,1481.8L312.4,1487.0L317.8,1493.5L347.5,1493.5L409.9,1493.5L410.6,1488.9L408.0,1487.5L407.6,1485.6L406.9,1476.4L407.5,1464.7L405.9,1461.1L402.3,1460.3L398.1,1460.5L395.0,1459.7L394.3,1456.6L394.7,1451.4L396.0,1446.4L398.1,1444.2L398.1,1442.6L403.5,1436.1L400.1,1431.5L396.3,1421.9L393.1,1417.8L390.6,1412.5L390.9,1407.2L392.9,1404.3L391.5,1398.9L393.1,1393.4L387.7,1384.5L380.6,1383.0L376.4,1388.3L370.2,1391.9L363.2,1392.3L359.2,1396.6L357.6,1407.2L350.8,1410.8L342.3,1407.3L330.0,1401.9L318.0,1392.4L310.1,1381.8Z " data-id="UG.RA" data-name="Rakai" id="UG.RA"/>
utf-8utf-8<path d="M445.4,1333.3L438.1,1335.7L430.2,1340.5L398.9,1339.9L394.2,1345.2L394.2,1355.2L388.0,1359.4L380.1,1364.1L379.1,1368.8L382.2,1375.9L380.6,1383.0L387.7,1384.5L393.1,1393.4L391.5,1398.9L392.9,1404.3L390.9,1407.2L390.6,1412.5L393.1,1417.8L396.3,1421.9L400.1,1431.5L403.5,1436.1L405.0,1434.1L409.4,1424.4L412.7,1419.3L410.6,1415.3L410.5,1413.4L412.0,1405.0L412.7,1402.9L418.4,1393.9L419.7,1391.0L420.3,1388.0L421.9,1383.3L425.9,1380.3L434.1,1375.9L436.5,1373.1L442.9,1363.9L445.9,1355.6L449.7,1350.7L453.5,1349.0L455.5,1353.1L456.9,1353.1L456.6,1350.1L456.1,1348.6L453.9,1343.3L452.4,1341.0L451.5,1337.6L451.2,1336.7L450.7,1336.5L449.8,1336.1L448.6,1336.2L448.3,1336.2L447.2,1336.2L447.2,1336.1L447.2,1336.1L447.0,1336.0L446.3,1335.4L445.4,1333.3Z " data-id="UG.MA" data-name="Masaka" id="UG.MA"/>
utf-8utf-8<path d="M100.0,1368.8L93.6,1359.9L87.8,1358.3L80.6,1362.3L73.4,1367.2L67.7,1368.8L72.9,1377.4L73.8,1381.9L73.4,1387.1L72.8,1390.3L80.6,1396.5L87.0,1399.0L92.8,1397.3L98.5,1397.3L102.8,1402.2L104.3,1408.8L106.4,1414.5L113.6,1416.9L128.7,1415.3L141.0,1413.6L143.1,1401.4L143.2,1387.6L135.3,1384.3L122.3,1376.2L108.7,1372.1L100.0,1368.8Z " data-id="UG.BS" data-name="Bushenyi" id="UG.BS"/>
utf-8utf-8<path d="M128.1,1227.1L123.1,1223.1L113.7,1223.9L108.7,1214.1L94.3,1209.2L74.9,1214.1L52.7,1215.5L46.9,1249.7L46.3,1251.3L44.4,1252.6L39.7,1249.7L38.7,1252.1L30.6,1264.8L29.0,1270.4L28.8,1274.0L30.9,1283.1L31.1,1287.0L30.1,1290.9L27.4,1298.6L26.4,1305.0L27.4,1302.9L29.8,1300.5L34.4,1299.9L38.5,1301.6L41.2,1305.1L42.3,1309.8L43.2,1311.7L47.6,1311.8L48.5,1312.6L48.9,1317.0L49.5,1318.1L53.3,1318.3L55.0,1318.6L55.2,1318.6L58.5,1316.1L63.2,1314.8L65.4,1314.6L65.3,1316.3L64.2,1320.2L73.1,1321.7L84.3,1321.6L107.8,1301.1L117.2,1301.1L121.3,1301.9L126.7,1258.1L132.7,1230.8L128.1,1227.1Z " data-id="UG.KS" data-name="Kasese" id="UG.KS"/>
utf-8utf-8<path d="M241.5,1199.8L236.3,1202.0L226.5,1198.4L215.2,1203.4L207.9,1211.6L199.1,1218.0L189.0,1223.0L184.3,1223.7L182.1,1218.3L181.6,1210.4L179.4,1203.1L179.4,1196.1L173.6,1193.1L170.7,1188.1L168.5,1179.2L161.8,1173.2L159.6,1175.8L155.0,1179.6L152.3,1184.8L153.1,1191.1L150.4,1197.6L154.3,1203.1L154.8,1208.5L152.9,1221.0L149.8,1238.2L137.2,1234.4L132.7,1230.8L126.7,1258.1L121.3,1301.9L120.5,1303.8L119.8,1305.7L129.2,1310.4L134.5,1310.8L139.7,1312.0L154.7,1319.6L159.8,1321.3L164.1,1319.3L168.5,1317.8L165.3,1313.1L161.8,1310.5L159.7,1298.7L156.9,1291.4L170.5,1264.6L176.0,1261.8L185.9,1259.0L192.2,1255.5L201.5,1251.6L209.5,1247.3L216.5,1246.9L231.3,1246.9L239.8,1246.9L241.3,1235.2L243.5,1231.9L250.2,1230.5L252.0,1226.6L251.1,1220.5L248.9,1215.2L251.7,1210.9L252.0,1202.7L249.8,1199.9L245.4,1199.5L241.5,1199.8Z " data-id="UG.KE" data-name="Kamwenge" id="UG.KE"/>
utf-8utf-8<path d="M198.4,1326.8L201.7,1322.7L206.3,1320.0L190.7,1314.3L194.3,1300.4L200.8,1288.2L209.7,1278.4L218.1,1260.5L205.8,1260.5L201.5,1251.6L192.2,1255.5L185.9,1259.0L176.0,1261.8L170.5,1264.6L156.9,1291.4L159.7,1298.7L161.8,1310.5L165.3,1313.1L168.5,1317.8L164.1,1319.3L159.8,1321.3L154.7,1319.6L139.7,1312.0L134.5,1310.8L129.2,1310.4L133.3,1317.4L135.2,1325.4L137.9,1325.8L142.7,1329.4L158.2,1341.1L159.5,1343.8L161.5,1345.7L164.3,1345.1L165.7,1342.4L166.4,1339.6L168.3,1338.0L172.3,1337.0L175.8,1338.6L186.3,1334.3L197.4,1332.6L198.4,1326.8Z " data-id="UG.IB.IA" data-name="Ibanda" id="UG.IB.IA"/>
utf-8utf-8<path d="M216.9,1410.9L213.0,1412.9L209.5,1413.6L202.0,1412.5L200.5,1419.6L200.8,1423.5L199.8,1427.3L200.5,1436.2L200.6,1454.4L191.4,1452.7L191.1,1463.9L188.7,1469.3L185.2,1474.2L182.3,1475.4L178.6,1481.4L176.2,1483.9L175.0,1487.2L174.5,1490.5L171.7,1497.8L167.9,1504.6L167.5,1506.2L169.5,1506.9L171.2,1505.3L173.5,1505.5L176.8,1508.2L182.4,1507.1L191.7,1506.2L195.7,1506.7L200.1,1508.2L202.4,1506.0L209.0,1498.2L211.7,1496.6L218.6,1494.1L225.5,1490.1L232.0,1491.9L234.9,1493.5L313.9,1493.5L317.8,1493.5L312.4,1487.0L311.7,1481.8L310.4,1476.5L306.6,1472.2L302.4,1469.1L300.0,1464.7L303.3,1460.0L300.7,1450.7L301.4,1445.4L299.8,1439.5L296.4,1434.6L289.0,1426.8L280.3,1420.9L273.8,1427.0L266.1,1429.1L258.0,1429.3L249.9,1428.5L245.9,1428.7L241.9,1429.7L239.8,1426.5L238.3,1422.1L231.9,1415.3L223.6,1411.0L216.9,1410.9Z " data-id="UG.NG.BK" data-name="Isingiro" id="UG.NG.BK"/>
utf-8utf-8<path d="M274.8,1292.7L269.7,1291.9L270.8,1288.4L273.2,1285.7L274.8,1281.2L274.6,1267.9L273.9,1259.6L270.0,1251.8L266.9,1243.5L254.0,1246.2L239.8,1246.9L231.3,1246.9L216.5,1246.9L209.5,1247.3L201.5,1251.6L205.8,1260.5L218.1,1260.5L209.7,1278.4L200.8,1288.2L194.3,1300.4L190.7,1314.3L206.3,1320.0L201.7,1322.7L198.4,1326.8L197.4,1332.6L194.4,1345.1L200.4,1352.5L205.5,1353.8L208.0,1358.3L207.2,1365.8L211.6,1371.1L231.8,1388.8L226.3,1398.3L225.3,1404.6L223.6,1411.0L231.9,1415.3L238.3,1422.1L239.8,1426.5L241.9,1429.7L245.9,1428.7L249.9,1428.5L258.0,1429.3L266.1,1429.1L273.8,1427.0L280.3,1420.9L288.2,1404.7L291.4,1395.1L293.8,1387.7L292.3,1380.1L288.9,1373.4L283.7,1356.9L280.5,1350.0L278.8,1342.8L278.6,1329.2L282.2,1311.9L281.0,1294.7L274.8,1292.7Z " data-id="UG.RR" data-name="Mbarara" id="UG.RR"/>
utf-8utf-8<path d="M112.0,1434.1L107.6,1438.2L103.4,1442.7L98.5,1442.3L93.9,1443.2L94.6,1451.2L93.7,1459.2L90.6,1466.7L90.1,1472.4L94.1,1475.3L97.4,1478.8L96.8,1483.3L97.1,1487.7L95.6,1491.4L92.0,1494.9L91.2,1498.2L90.9,1502.0L92.0,1506.8L95.6,1511.0L97.0,1517.0L99.2,1522.1L105.5,1524.3L112.2,1524.9L115.8,1527.1L115.4,1533.2L121.3,1531.4L125.9,1526.4L131.5,1524.4L136.3,1524.7L137.0,1524.0L141.2,1521.4L142.1,1518.3L143.3,1509.7L144.9,1506.7L147.7,1505.6L156.9,1507.6L162.2,1505.6L164.7,1505.2L167.5,1506.2L167.9,1504.6L171.7,1497.8L174.5,1490.5L175.0,1487.2L176.2,1483.9L178.6,1481.4L182.3,1475.4L185.2,1474.2L188.7,1469.3L191.1,1463.9L191.4,1452.7L186.5,1452.9L182.1,1456.4L180.2,1456.8L177.5,1455.2L174.6,1456.0L171.7,1457.5L166.8,1456.3L162.8,1452.9L159.0,1451.0L155.3,1453.7L149.9,1455.2L137.7,1454.0L131.4,1451.6L130.6,1447.6L133.2,1442.1L126.9,1442.3L121.6,1441.0L117.6,1435.9L112.0,1434.1Z " data-id="UG.NT" data-name="Ntungamo" id="UG.NT"/>
utf-8utf-8<path d="M55.2,1362.3L50.6,1362.0L49.5,1363.2L43.5,1366.3L36.9,1372.6L33.4,1373.9L29.7,1374.5L26.3,1375.7L30.2,1375.2L30.4,1387.3L29.2,1399.6L30.0,1406.4L33.3,1412.0L37.7,1413.1L42.2,1412.8L41.7,1419.0L43.3,1424.6L53.8,1443.0L50.8,1459.9L54.3,1464.4L55.0,1469.1L52.6,1472.9L52.0,1477.2L64.7,1502.1L70.5,1503.4L95.6,1511.0L92.0,1506.8L90.9,1502.0L91.2,1498.2L92.0,1494.9L95.6,1491.4L97.1,1487.7L96.8,1483.3L97.4,1478.8L94.1,1475.3L90.1,1472.4L90.6,1466.7L93.7,1459.2L94.6,1451.2L93.9,1443.2L83.0,1434.2L79.7,1425.3L74.4,1418.4L67.4,1414.5L64.5,1406.7L69.8,1403.9L70.3,1400.9L72.4,1396.1L72.8,1390.3L73.4,1387.1L73.8,1381.9L72.9,1377.4L67.7,1368.8L55.2,1362.3Z " data-id="UG.RK" data-name="Rukungiri" id="UG.RK"/>
utf-8utf-8<path d="M225.3,1404.6L226.3,1398.3L231.8,1388.8L211.6,1371.1L207.2,1365.8L208.0,1358.3L205.5,1353.8L200.4,1352.5L194.4,1345.1L197.4,1332.6L186.3,1334.3L175.8,1338.6L173.8,1351.0L174.5,1365.1L169.0,1371.1L169.5,1378.0L169.3,1386.6L165.2,1401.8L164.1,1408.4L161.2,1416.3L145.3,1433.7L133.2,1442.1L130.6,1447.6L131.4,1451.6L137.7,1454.0L149.9,1455.2L155.3,1453.7L159.0,1451.0L162.8,1452.9L166.8,1456.3L171.7,1457.5L174.6,1456.0L177.5,1455.2L180.2,1456.8L182.1,1456.4L186.5,1452.9L191.4,1452.7L200.6,1454.4L200.5,1436.2L199.8,1427.3L200.8,1423.5L200.5,1419.6L202.0,1412.5L209.5,1413.6L213.0,1412.9L216.9,1410.9L223.6,1411.0L225.3,1404.6Z " data-id="UG.RR.KS" data-name="Mbarara" id="UG.RR.KS"/>
utf-8utf-8<path d="M136.3,1524.7L131.5,1524.4L125.9,1526.4L121.3,1531.4L115.4,1533.2L115.8,1527.1L112.2,1524.9L105.5,1524.3L99.2,1522.1L97.0,1517.0L95.6,1511.0L70.5,1503.4L64.7,1502.1L61.5,1502.7L59.2,1506.3L55.0,1503.4L51.2,1498.9L41.2,1498.2L40.3,1504.3L38.3,1506.0L38.0,1508.7L35.9,1512.3L33.0,1515.4L33.6,1517.6L40.1,1526.0L45.7,1531.0L40.8,1535.2L50.2,1558.4L50.7,1560.2L50.8,1560.2L52.8,1561.4L57.9,1569.8L58.7,1574.2L59.1,1582.7L60.8,1587.1L64.0,1590.5L67.5,1591.6L71.4,1591.1L75.4,1589.4L87.9,1581.6L89.8,1581.2L91.5,1576.7L100.3,1570.0L107.8,1566.7L109.8,1564.6L110.7,1561.5L111.9,1553.4L113.2,1550.6L114.6,1549.6L118.9,1548.8L121.8,1546.8L130.0,1538.1L132.4,1534.6L134.4,1530.8L135.7,1525.2L136.3,1524.7Z " data-id="UG.KA" data-name="Kabale" id="UG.KA"/>
utf-8utf-8<path d="M29.5,1504.5L25.1,1504.6L20.3,1502.0L12.7,1498.6L10.5,1498.4L8.9,1497.4L8.0,1495.0L6.1,1493.6L0.9,1491.0L0.9,1491.0L0.3,1493.5L0.8,1497.2L3.5,1505.2L4.2,1509.2L4.0,1512.9L1.7,1525.7L1.7,1530.7L5.1,1537.2L6.2,1541.7L6.0,1543.5L4.2,1548.7L4.3,1550.9L6.4,1555.1L7.1,1557.4L7.2,1561.4L5.4,1573.6L12.8,1574.0L16.6,1573.7L20.0,1572.7L26.6,1568.0L29.7,1566.2L34.2,1565.3L36.4,1565.8L41.5,1569.0L43.0,1568.0L44.2,1563.9L49.1,1559.9L50.7,1560.2L50.2,1558.4L40.8,1535.2L45.7,1531.0L40.1,1526.0L33.6,1517.6L33.0,1515.4L35.9,1512.3L38.0,1508.7L29.5,1504.5Z " data-id="UG.KR" data-name="Kisoro" id="UG.KR"/>
utf-8utf-8<path d="M52.0,1477.2L52.6,1472.9L55.0,1469.1L54.3,1464.4L50.8,1459.9L53.8,1443.0L43.3,1424.6L41.7,1419.0L42.2,1412.8L37.7,1413.1L33.3,1412.0L30.0,1406.4L29.2,1399.6L30.4,1387.3L30.2,1375.2L26.3,1375.7L25.8,1375.9L23.3,1378.3L19.0,1384.5L17.6,1385.2L19.2,1390.1L19.7,1402.8L19.3,1405.7L14.2,1407.6L13.5,1409.9L15.6,1414.6L15.4,1416.2L12.8,1419.1L10.5,1435.5L10.3,1439.8L11.9,1447.9L12.3,1452.3L11.8,1464.8L11.3,1467.8L9.2,1470.6L3.8,1472.6L1.8,1476.3L2.5,1487.2L1.8,1489.2L0.9,1491.0L6.1,1493.6L8.0,1495.0L8.9,1497.4L10.5,1498.4L12.7,1498.6L20.3,1502.0L25.1,1504.6L29.5,1504.5L38.0,1508.7L38.3,1506.0L40.3,1504.3L41.2,1498.2L51.2,1498.9L55.0,1503.4L59.2,1506.3L61.5,1502.7L64.7,1502.1L52.0,1477.2Z " data-id="UG.UU" data-name="Kanungu" id="UG.UU"/>
utf-8utf-8<path d="M262.3,742.8L262.2,733.4L259.7,725.8L257.9,717.4L250.3,718.7L240.0,722.7L233.8,727.3L222.2,730.2L221.0,733.8L220.1,738.9L216.6,745.2L215.8,747.3L215.6,751.2L216.4,758.9L216.3,762.6L212.6,770.2L211.0,774.5L211.6,778.1L214.2,779.0L227.0,779.1L228.9,780.3L229.8,789.0L231.7,792.4L234.8,796.5L238.2,799.9L241.3,801.5L246.5,798.6L249.0,792.0L252.0,786.3L258.8,786.3L260.3,782.0L268.0,780.8L269.0,773.3L274.6,769.4L277.2,761.5L273.2,748.2L262.3,742.8Z " data-id="UG.ZO" data-name="Zombo" id="UG.ZO"/>
utf-8utf-8<path d="M789.3,940.1L780.9,939.3L776.3,941.7L770.6,940.6L766.8,943.9L764.7,949.9L763.5,955.2L754.8,992.2L747.3,996.5L745.0,998.0L742.8,998.2L740.7,999.8L737.2,1004.3L735.2,1009.4L762.2,1007.4L766.6,1007.3L768.4,1010.8L771.9,1014.0L777.4,1012.9L776.0,997.5L780.2,991.5L787.1,988.4L788.1,975.2L786.4,955.4L790.0,948.2L796.5,945.5L789.3,940.1Z " data-id="UG.NR" data-name="Ngora" id="UG.NR"/>
utf-8utf-8<path d="M858.4,1022.8L860.5,1017.3L861.5,1011.5L863.1,1006.1L865.1,995.0L860.3,984.8L857.9,981.4L857.6,976.4L857.8,962.6L842.7,967.4L831.6,969.8L823.6,975.2L824.8,988.4L819.5,992.7L815.8,996.3L815.8,1004.7L816.4,1016.7L809.0,1021.5L802.6,1026.9L805.5,1031.0L821.5,1034.7L825.3,1036.2L828.9,1038.5L837.5,1041.0L841.0,1043.3L844.9,1044.1L851.3,1037.9L855.3,1027.8L858.4,1022.8Z " data-id="UG.BE" data-name="Bukedea" id="UG.BE"/>
utf-8utf-8<path d="M706.1,1101.9L705.0,1095.3L708.0,1081.0L705.1,1074.2L701.4,1067.7L698.8,1063.8L695.0,1061.5L691.8,1066.1L692.0,1068.9L693.1,1071.9L690.9,1077.1L688.1,1082.2L687.5,1089.6L687.5,1097.2L687.0,1100.8L685.8,1104.2L685.4,1107.3L686.5,1110.4L684.6,1114.8L683.8,1119.6L681.6,1123.4L676.7,1127.0L675.3,1130.4L673.3,1139.9L673.8,1146.0L683.2,1144.6L689.7,1150.8L694.5,1153.1L702.0,1159.3L706.1,1162.1L708.2,1169.5L713.4,1171.9L719.5,1172.3L724.8,1176.4L728.1,1171.8L727.3,1157.8L727.3,1147.0L716.6,1140.4L710.3,1134.4L710.8,1126.0L713.4,1116.4L711.4,1104.6L706.1,1101.9Z " data-id="UG.LK" data-name="Luuka" id="UG.LK"/>
utf-8utf-8<path d="M598.0,979.3L601.6,994.7L605.4,1003.6L613.1,1013.3L614.2,1017.6L618.5,1023.3L620.2,1030.0L625.8,1040.2L639.9,1041.9L653.7,1049.1L656.4,1057.5L657.5,1066.5L661.8,1070.1L666.5,1071.9L675.1,1079.7L680.4,1085.8L687.5,1089.6L688.1,1082.2L690.9,1077.1L693.1,1071.9L692.0,1068.9L691.8,1066.1L695.0,1061.5L699.9,1057.0L699.9,1051.1L702.6,1045.7L705.9,1040.5L708.3,1034.5L711.9,1029.3L713.4,1024.1L713.9,1018.3L708.8,1015.9L706.9,1008.3L704.6,1004.3L702.0,1001.0L693.6,1001.5L685.4,1004.2L670.8,1001.4L657.1,999.4L651.7,993.4L645.2,988.3L635.2,982.5L632.1,981.3L628.7,982.0L626.0,979.7L598.0,979.3Z " data-id="UG.BY" data-name="Buyende" id="UG.BY"/>
utf-8utf-8<path d="M832.0,1050.3L825.1,1046.7L812.8,1042.5L798.5,1043.1L797.5,1049.1L795.4,1052.7L797.0,1056.9L800.7,1059.3L798.1,1063.5L791.7,1067.1L788.6,1071.9L787.7,1090.6L798.2,1093.0L808.0,1088.7L818.0,1079.0L829.0,1070.9L830.4,1067.4L834.2,1066.9L837.0,1063.7L840.0,1054.2L832.0,1050.3Z " data-id="UG.BD" data-name="Budaka" id="UG.BD"/>
utf-8utf-8<path d="M788.6,1071.9L791.7,1067.1L798.1,1063.5L800.7,1059.3L797.0,1056.9L795.4,1052.7L797.5,1049.1L798.5,1043.1L789.5,1047.3L775.8,1054.5L763.0,1059.9L748.9,1059.8L757.6,1066.9L760.5,1070.3L760.5,1080.3L762.6,1084.2L769.2,1091.2L778.0,1088.6L787.7,1090.6L788.6,1071.9Z " data-id="UG.QB" data-name="Kibuku" id="UG.QB"/>
utf-8utf-8<path d="M750.4,958.9L738.6,960.1L725.7,956.5L717.6,950.4L712.2,937.7L699.9,934.1L697.2,929.2L689.7,932.8L679.0,932.8L677.9,941.9L677.5,950.1L671.8,959.2L670.5,981.9L670.8,1001.4L685.4,1004.2L693.6,1001.5L702.0,1001.0L704.6,1004.3L706.9,1008.3L711.2,1007.6L713.0,1011.7L716.0,1012.5L719.6,1010.7L724.0,1011.8L735.2,1009.4L737.2,1004.3L740.7,999.8L742.8,998.2L745.0,998.0L747.3,996.5L754.8,992.2L763.5,955.2L750.4,958.9Z " data-id="UG.SX" data-name="Serere" id="UG.SX"/>
utf-8utf-8<path d="M590.5,1301.5L589.2,1297.9L587.0,1295.0L584.8,1293.3L588.6,1302.0L588.6,1303.3L586.8,1302.7L584.8,1297.6L584.0,1299.5L581.4,1300.3L579.8,1299.0L581.0,1305.8L579.8,1307.6L578.2,1307.4L575.5,1305.0L573.5,1307.6L571.0,1306.1L572.1,1308.5L573.6,1309.9L578.6,1310.5L581.8,1311.5L585.9,1309.3L588.6,1310.5L586.1,1311.9L586.1,1313.3L590.5,1312.6L594.3,1310.7L597.4,1307.6L599.9,1303.3L597.5,1302.1L595.5,1302.1L594.0,1303.5L593.7,1306.1L589.9,1304.8L590.5,1301.5Z M598.7,1281.5L594.8,1277.8L594.8,1282.0L591.9,1281.2L590.7,1283.1L590.4,1286.2L591.2,1289.1L588.3,1289.3L587.5,1291.1L588.2,1293.8L589.9,1296.3L593.5,1293.1L597.3,1287.3L598.7,1281.5Z M678.9,1211.1L672.7,1208.9L667.0,1204.1L667.7,1196.6L666.5,1188.9L662.2,1182.8L651.4,1172.5L641.5,1166.9L639.1,1163.7L631.1,1169.5L630.6,1179.6L633.5,1191.3L638.6,1199.4L637.1,1210.8L629.1,1220.5L618.5,1232.2L613.5,1242.6L608.1,1249.5L608.5,1250.4L611.0,1245.9L612.9,1246.4L612.4,1247.9L613.4,1249.9L612.5,1252.0L612.8,1253.8L614.9,1255.0L611.0,1257.2L609.8,1259.1L610.7,1261.4L612.9,1263.2L613.8,1267.1L615.3,1269.5L618.9,1269.3L630.9,1264.5L634.9,1262.1L647.6,1251.0L650.3,1246.8L652.7,1239.4L646.5,1239.1L641.3,1238.0L647.8,1233.6L646.4,1230.9L651.5,1233.2L656.1,1234.2L656.0,1235.7L654.1,1238.7L654.8,1241.0L658.9,1238.0L658.8,1234.1L664.1,1230.9L662.1,1228.1L661.0,1223.7L661.6,1219.8L664.6,1218.1L668.0,1217.2L673.7,1213.4L677.7,1211.9L678.9,1211.1Z " data-id="UG.BZ" data-name="Buikwe" id="UG.BZ"/>
utf-8utf-8<path d="M685.6,1275.4L686.6,1272.3L681.8,1273.5L679.3,1275.2L678.8,1278.1L680.4,1283.3L685.6,1280.9L687.7,1279.1L689.1,1276.3L685.3,1276.3L685.6,1275.4Z M666.6,1261.1L667.2,1254.4L669.1,1252.0L665.8,1252.0L663.8,1255.0L663.5,1259.4L665.2,1263.5L666.6,1261.1Z M692.0,1235.6L691.0,1234.0L691.6,1230.9L687.6,1230.8L687.3,1228.6L689.1,1225.6L691.6,1223.7L688.1,1222.2L684.3,1222.3L677.1,1223.7L676.1,1224.4L672.1,1230.2L671.0,1232.4L674.0,1235.1L680.1,1242.3L681.4,1245.7L680.4,1247.2L671.5,1246.5L675.2,1253.6L676.5,1253.6L678.6,1251.2L681.9,1253.7L684.6,1258.5L685.3,1263.5L687.3,1262.7L689.1,1256.4L690.4,1256.4L690.3,1264.7L691.4,1267.9L694.4,1269.3L696.6,1267.7L692.9,1265.3L691.9,1260.8L693.0,1256.1L695.4,1253.6L693.0,1252.2L691.6,1249.9L691.5,1247.3L692.9,1244.9L691.8,1241.7L692.9,1240.0L695.0,1240.4L696.6,1243.6L700.5,1240.0L701.6,1240.7L704.3,1233.3L706.7,1232.2L704.6,1228.9L703.2,1225.8L701.4,1223.7L697.9,1223.7L697.9,1225.1L701.2,1227.7L701.6,1229.4L698.8,1228.5L697.5,1230.0L697.0,1232.7L697.9,1235.1L695.4,1233.6L693.7,1235.8L692.0,1235.6Z " data-id="UG.BV" data-name="Buvuma" id="UG.BV"/>
utf-8utf-8<path d="M436.5,1279.6L448.0,1269.6L454.8,1261.3L464.2,1257.2L473.6,1259.0L481.4,1253.6L490.3,1247.1L495.5,1242.4L499.1,1238.3L498.6,1230.0L492.3,1233.0L479.4,1232.1L476.0,1232.4L473.0,1237.1L462.6,1240.1L450.6,1247.7L443.8,1257.8L435.0,1262.5L421.4,1269.0L412.2,1275.1L415.8,1276.8L423.7,1287.0L436.5,1279.6Z " data-id="UG.BT" data-name="Butambala" id="UG.BT"/>
utf-8utf-8<path d="M408.4,1231.9L399.5,1222.9L386.9,1218.2L380.1,1215.8L372.1,1215.4L358.2,1223.5L346.8,1227.6L335.3,1230.0L328.5,1233.0L328.1,1243.9L336.4,1244.5L339.5,1246.8L343.6,1254.1L347.3,1255.9L361.7,1264.8L375.3,1275.2L380.6,1276.5L385.7,1275.7L389.9,1272.5L394.6,1269.8L405.4,1271.7L412.2,1275.1L421.4,1269.0L435.0,1262.5L443.8,1257.8L450.6,1247.7L462.6,1240.1L473.0,1237.1L476.0,1232.4L453.2,1234.3L449.4,1234.6L447.4,1236.8L444.1,1238.1L440.0,1237.0L437.4,1239.2L433.8,1239.6L429.7,1238.3L426.3,1236.1L422.1,1228.4L417.3,1226.7L408.4,1231.9Z " data-id="UG.GM" data-name="Gomba" id="UG.GM"/>
utf-8utf-8<path d="M477.7,554.8L476.5,556.6L474.3,556.7L462.7,554.1L459.6,552.3L456.8,549.0L455.5,546.8L455.0,576.5L453.8,579.1L451.5,580.5L451.2,584.7L451.7,589.1L453.3,592.7L453.8,596.3L450.2,603.7L449.9,608.0L450.8,612.5L449.8,616.4L445.8,623.4L443.1,626.2L442.0,630.2L441.8,634.6L435.1,647.1L434.1,655.4L397.5,668.3L378.2,671.7L368.1,688.2L365.5,690.1L362.1,690.2L359.8,688.8L358.1,685.8L353.3,684.3L349.4,678.7L345.0,674.4L337.4,672.1L332.8,682.9L331.2,691.4L331.9,700.0L336.0,707.4L339.6,710.2L342.4,711.8L344.2,714.3L345.2,721.6L346.5,726.4L346.2,728.9L341.1,733.0L340.6,737.9L341.9,742.3L349.9,739.6L355.7,733.0L364.1,722.7L371.8,718.3L393.3,718.3L395.8,710.2L400.9,705.1L444.4,704.3L451.0,708.7L457.5,709.5L465.9,709.5L472.5,714.6L480.3,716.8L484.2,719.0L486.4,712.0L486.8,707.2L482.4,672.7L479.1,664.0L479.4,651.9L483.2,638.8L486.5,632.4L498.0,621.3L504.7,610.6L511.7,603.4L504.8,597.8L495.2,585.3L492.9,578.6L485.6,570.3L484.5,566.2L482.5,562.8L481.7,558.9L477.9,553.5L477.7,554.8Z " data-id="UG.AY" data-name="Amuru" id="UG.AY"/>
utf-8utf-8<path d="M413.1,1004.5L409.6,1005.8L405.6,1010.8L397.4,1009.8L389.0,1007.1L360.2,1003.0L346.4,1018.7L341.1,1021.0L330.6,1027.0L324.4,1029.2L319.5,1033.6L324.7,1038.1L330.4,1041.7L335.9,1043.3L340.9,1045.7L348.5,1058.2L358.6,1068.1L361.9,1072.3L361.5,1077.8L359.7,1080.9L356.8,1082.5L353.8,1083.1L352.2,1085.9L347.6,1089.3L344.8,1093.3L346.8,1100.0L346.8,1106.7L373.4,1110.1L383.7,1105.7L390.2,1105.7L398.0,1094.3L405.2,1087.0L413.1,1082.1L418.8,1076.4L420.9,1066.7L426.7,1060.2L441.0,1056.4L437.2,1032.0L430.4,1018.8L416.8,1003.8L413.1,1004.5Z " data-id="UG.QZ" data-name="Kyankwanzi" id="UG.QZ"/>
utf-8utf-8<path d="M664.1,505.8L658.4,504.6L654.5,502.3L631.2,480.9L627.5,479.1L624.3,480.4L613.3,489.8L599.0,498.1L583.7,503.3L521.3,509.1L513.3,511.2L479.9,534.4L477.7,537.2L477.6,539.9L478.4,547.3L478.4,550.6L477.9,553.5L481.7,558.9L482.5,562.8L484.5,566.2L485.6,570.3L492.9,578.6L495.2,585.3L504.8,597.8L511.7,603.4L517.0,607.7L539.8,630.1L540.9,634.7L571.1,634.5L581.2,627.6L589.9,625.6L588.9,613.7L588.8,605.2L585.0,596.8L584.9,587.0L586.9,581.6L604.6,580.4L611.5,578.6L615.8,574.9L615.7,570.7L617.8,565.8L648.9,565.8L651.5,562.8L653.6,554.3L657.3,551.9L662.1,551.9L670.3,562.2L670.4,573.1L680.6,573.7L680.8,546.4L678.5,534.9L674.2,528.2L673.0,521.5L676.6,506.5L664.1,505.8Z " data-id="UG.LM" data-name="Lamwo" id="UG.LM"/>
utf-8utf-8<path d="M589.4,845.5L585.6,841.8L578.7,841.2L574.9,837.6L571.6,833.4L558.2,833.4L549.0,833.0L545.9,840.5L534.8,859.9L526.0,861.9L512.0,855.3L512.9,860.0L513.0,863.9L512.3,866.4L509.8,871.9L509.3,874.7L509.9,877.2L515.6,879.6L513.1,882.7L511.8,885.9L511.8,890.5L510.6,893.7L511.3,897.8L507.9,900.2L503.1,901.6L500.0,902.9L498.4,910.0L491.5,913.2L489.4,912.2L487.2,914.4L478.7,916.5L475.7,920.6L470.1,926.6L468.1,929.5L469.5,933.3L467.6,939.8L468.1,943.5L474.9,939.5L481.6,937.3L487.9,937.6L492.1,939.3L504.5,943.4L512.9,942.0L558.0,942.7L564.4,938.5L576.4,925.9L590.6,911.6L611.6,910.2L630.3,929.5L636.6,908.3L621.6,898.0L622.2,885.4L615.9,882.2L607.8,880.8L607.0,873.5L609.7,864.4L611.2,854.9L607.4,853.3L603.4,853.6L600.2,851.4L597.4,848.3L589.4,845.5Z " data-id="UG.AC" data-name="Apac" id="UG.AC"/>
utf-8utf-8<path d="M598.8,827.2L599.9,823.3L596.5,817.2L591.8,806.1L587.4,799.4L590.1,791.5L593.7,783.6L596.4,771.9L590.1,777.6L582.1,774.7L574.3,774.3L561.8,792.7L554.6,795.0L558.7,819.4L554.4,823.2L551.2,827.9L549.0,833.0L558.2,833.4L571.6,833.4L574.9,837.6L578.7,841.2L585.6,841.8L589.4,845.5L597.4,848.3L598.8,827.2Z " data-id="UG.QL" data-name="Kole" id="UG.QL"/>
utf-8utf-8<path d="M725.6,796.3L720.8,800.0L703.2,800.0L700.5,797.6L691.3,793.9L677.4,793.3L668.8,790.9L665.0,786.6L662.3,778.8L654.2,775.1L647.2,775.1L643.0,778.8L634.4,778.8L624.7,776.3L624.8,782.4L620.0,788.5L612.0,792.1L611.0,797.0L619.0,797.0L625.5,799.4L628.2,806.7L635.2,812.7L642.2,817.0L646.0,824.3L647.5,856.7L653.4,854.1L656.6,848.0L660.2,848.8L663.4,847.3L670.7,851.5L679.8,853.5L682.7,857.5L685.1,862.2L692.8,862.4L699.8,866.4L698.6,859.6L699.5,851.4L706.7,844.4L709.6,845.1L711.7,848.5L715.4,847.3L717.9,843.8L716.7,839.5L718.8,831.4L717.7,827.4L714.8,824.7L712.8,821.5L720.2,821.3L726.6,816.1L731.9,810.3L731.2,802.0L731.3,796.6L725.6,796.3Z " data-id="UG.AL" data-name="Alebtong" id="UG.AL"/>
utf-8utf-8<path d="M718.2,747.2L709.9,739.8L707.1,743.3L703.8,745.0L699.5,743.2L695.6,742.6L692.6,746.1L689.1,748.3L681.6,745.5L673.9,746.3L670.9,745.3L668.0,745.0L663.8,746.7L660.7,744.8L658.0,742.6L654.4,743.5L646.2,747.3L638.9,752.4L633.6,759.8L633.2,765.4L630.6,772.1L624.7,776.3L634.4,778.8L643.0,778.8L647.2,775.1L654.2,775.1L662.3,778.8L665.0,786.6L668.8,790.9L677.4,793.3L691.3,793.9L700.5,797.6L703.2,800.0L720.8,800.0L725.6,796.3L731.3,796.6L736.8,800.4L743.1,801.5L748.1,795.6L751.5,786.1L750.4,775.7L746.5,769.6L740.9,765.1L728.7,746.7L718.2,747.2Z " data-id="UG.OT" data-name="Otuke" id="UG.OT"/>
utf-8utf-8<path d="M726.0,607.8L721.9,607.4L718.9,604.6L715.6,602.5L700.7,600.8L705.8,608.9L693.8,608.5L695.6,622.2L686.9,623.1L679.6,625.9L668.9,623.9L664.7,639.8L658.5,659.2L658.5,667.7L654.8,672.6L649.5,677.4L650.7,684.7L660.3,686.5L672.1,687.1L676.0,694.4L675.0,708.4L669.2,715.7L645.6,716.9L640.9,722.9L645.2,730.2L654.4,743.5L658.0,742.6L660.7,744.8L663.8,746.7L668.0,745.0L670.9,745.3L673.9,746.3L681.6,745.5L689.1,748.3L692.6,746.1L695.6,742.6L699.5,743.2L703.8,745.0L707.1,743.3L709.9,739.8L718.2,747.2L728.7,746.7L726.8,731.7L731.8,717.8L741.1,707.9L741.0,700.7L739.7,694.4L736.9,689.1L736.1,682.9L734.8,677.3L735.1,671.1L732.1,633.7L731.3,622.3L730.2,607.1L726.0,607.8Z " data-id="UG.AG" data-name="Agago" id="UG.AG"/>
utf-8utf-8<path d="M495.6,817.0L489.2,816.6L483.2,821.4L481.2,822.6L476.9,822.4L470.8,817.0L465.0,815.0L458.6,811.4L452.9,810.6L451.1,809.9L443.7,802.5L439.8,800.6L433.3,795.8L427.7,795.3L425.8,794.2L422.8,795.8L415.3,797.3L411.9,798.6L409.1,801.1L403.3,808.5L401.7,834.0L402.8,857.9L406.4,862.9L413.4,863.9L418.7,865.9L425.8,877.8L425.9,886.8L424.2,899.8L424.3,909.7L428.7,918.7L431.4,926.7L431.5,934.6L436.8,937.6L443.8,939.6L447.4,945.6L453.5,944.6L453.5,936.6L461.4,935.6L467.6,939.8L469.5,933.3L468.1,929.5L470.1,926.6L475.7,920.6L478.7,916.5L487.2,914.4L489.4,912.2L491.5,913.2L498.4,910.0L500.0,902.9L503.1,901.6L507.9,900.2L511.3,897.8L510.6,893.7L511.8,890.5L511.8,885.9L513.1,882.7L515.6,879.6L509.9,877.2L509.3,874.7L509.8,871.9L512.3,866.4L513.0,863.9L512.9,860.0L512.0,855.3L510.5,850.9L508.4,847.6L507.1,844.3L505.1,829.8L501.7,822.6L498.9,818.7L495.8,817.1L495.6,817.0Z " data-id="UG.QD" data-name="Kiryandongo" id="UG.QD"/>
utf-8utf-8<path d="M180.3,1072.9L181.2,1065.9L177.9,1069.3L175.9,1070.8L174.3,1070.8L173.2,1068.6L176.1,1062.9L176.5,1058.3L175.6,1055.5L172.4,1048.7L173.5,1044.8L172.3,1040.4L172.1,1036.6L176.0,1034.6L176.0,1033.2L173.3,1031.6L166.9,1031.9L164.6,1033.8L156.1,1036.3L149.8,1036.0L146.8,1038.7L144.6,1042.9L142.3,1045.6L139.1,1043.9L137.1,1042.1L132.3,1043.2L126.8,1049.7L126.3,1051.1L124.8,1059.5L122.5,1061.9L122.6,1066.0L123.6,1074.4L122.3,1078.3L118.2,1083.2L116.8,1087.3L116.8,1087.4L121.0,1099.7L129.4,1108.5L124.8,1110.9L121.6,1115.7L120.3,1125.7L117.1,1129.9L114.5,1137.2L127.2,1129.4L135.8,1122.9L140.1,1107.4L148.8,1115.5L162.4,1100.1L169.5,1089.5L179.7,1080.9L180.9,1075.1L180.3,1072.9Z " data-id="UG.NO" data-name="Ntoroko" id="UG.NO"/>
utf-8utf-8<path d="M302.9,1154.1L299.5,1154.4L295.3,1151.9L290.3,1151.2L282.1,1146.7L273.3,1144.2L265.1,1142.8L255.1,1140.7L250.3,1143.5L246.5,1144.6L248.8,1148.9L257.9,1154.2L257.9,1166.7L253.8,1167.4L252.0,1170.3L252.0,1189.2L245.7,1189.5L245.4,1199.5L249.8,1199.9L252.0,1202.7L251.7,1210.9L248.9,1215.2L251.1,1220.5L252.0,1226.6L250.2,1230.5L243.5,1231.9L241.3,1235.2L239.8,1246.9L254.0,1246.2L266.9,1243.5L268.4,1242.6L271.6,1236.0L276.8,1231.3L281.5,1225.4L285.4,1219.0L289.9,1213.9L288.8,1210.3L287.0,1206.8L286.8,1198.8L290.3,1191.7L291.9,1184.8L296.0,1180.8L308.8,1178.3L311.4,1176.7L311.3,1174.2L312.5,1171.1L313.1,1167.9L310.6,1161.4L305.9,1156.3L302.9,1154.1Z " data-id="UG.QG" data-name="Kyegegwa" id="UG.QG"/>
utf-8utf-8<path d="M923.9,959.8L917.3,959.8L912.8,956.7L907.8,955.1L895.1,962.7L884.9,962.3L893.0,968.3L898.8,976.9L895.3,985.5L901.7,992.1L913.4,995.7L919.8,1000.5L920.4,1008.9L916.2,1020.9L916.6,1036.4L920.6,1026.4L926.7,1018.0L931.2,1014.7L936.0,1012.5L939.9,1011.8L943.4,1009.9L949.2,1001.4L951.9,990.9L940.6,971.3L932.5,965.7L923.9,959.8Z " data-id="UG.QW" data-name="Kween" id="UG.QW"/>
utf-8utf-8<path d="M868.7,964.3L866.0,963.0L863.5,961.2L860.7,961.6L857.8,962.6L857.6,976.4L857.9,981.4L860.3,984.8L865.1,995.0L863.1,1006.1L861.5,1011.5L860.5,1017.3L858.4,1022.8L855.3,1027.8L871.7,1030.5L885.5,1034.7L890.3,1040.1L899.3,1041.3L906.7,1043.1L912.2,1044.3L912.3,1037.2L907.5,1031.9L895.1,1024.2L876.2,1015.7L872.6,1011.3L873.5,1005.1L876.3,999.5L881.0,994.1L886.6,989.9L895.3,985.5L898.8,976.9L893.0,968.3L884.9,962.3L868.7,964.3Z " data-id="UG.BB" data-name="Bulambuli" id="UG.BB"/>
utf-8utf-8<path d="M766.5,1312.4L767.0,1308.0L765.2,1306.1L762.6,1307.1L756.5,1311.8L753.3,1313.3L753.3,1314.6L758.4,1314.5L759.8,1316.0L760.8,1319.1L762.1,1317.5L764.6,1320.4L766.5,1312.4Z M782.3,1261.6L777.5,1261.4L773.7,1264.6L774.5,1269.3L776.6,1270.4L785.8,1272.3L789.7,1270.3L791.7,1270.2L794.6,1272.3L795.2,1269.1L792.3,1266.7L788.1,1265.6L784.6,1266.4L782.3,1261.6Z M796.9,1187.1L790.7,1191.3L787.1,1197.0L785.3,1205.9L779.6,1205.5L773.5,1208.4L767.0,1213.7L762.1,1216.7L763.3,1216.5L770.7,1219.2L771.9,1220.9L767.8,1221.8L764.5,1223.6L762.0,1226.5L760.8,1230.9L762.9,1229.9L769.6,1230.9L769.6,1232.2L765.5,1237.1L763.5,1240.8L763.3,1243.6L765.7,1245.4L773.4,1245.9L775.8,1246.5L777.8,1244.4L777.5,1239.7L778.2,1236.4L780.9,1239.8L781.8,1248.7L783.3,1253.6L784.4,1250.9L785.0,1245.3L785.8,1242.2L791.4,1246.4L797.3,1249.4L797.5,1245.6L801.3,1243.1L802.2,1240.0L804.4,1237.9L799.2,1229.8L795.0,1220.3L794.1,1214.0L796.4,1208.8L799.4,1205.4L801.6,1201.7L801.1,1196.4L796.9,1187.1Z " data-id="UG.NY" data-name="Namayingo" id="UG.NY"/>
utf-8utf-8<path d="M950.0,762.3L942.8,754.3L932.3,750.4L932.1,737.4L917.1,732.4L907.4,722.5L894.0,709.5L883.4,704.5L870.2,702.6L859.7,697.6L855.2,720.1L840.2,714.4L832.2,715.2L815.8,713.5L807.1,720.5L805.0,742.4L806.9,747.0L811.0,752.3L813.2,758.1L817.4,762.0L817.9,764.5L815.4,766.2L809.7,766.3L796.2,768.1L784.4,766.6L772.4,766.4L761.4,773.5L756.1,775.3L750.4,775.7L751.5,786.1L748.1,795.6L754.6,795.3L763.8,784.7L768.4,787.0L797.3,807.3L845.2,840.9L852.1,847.3L853.8,857.5L854.0,879.8L861.2,879.8L871.8,877.8L878.8,874.9L880.5,867.9L886.6,863.9L897.1,855.9L925.2,853.9L930.4,845.0L930.7,771.3L952.6,770.0L950.0,762.3Z " data-id="UG.NQ" data-name="Napak" id="UG.NQ"/>
utf-8utf-8<path d="M958.7,997.3L969.5,987.2L973.3,970.5L977.5,963.3L979.3,962.3L983.2,961.4L988.1,956.1L993.9,942.2L994.9,937.7L994.9,897.3L995.6,894.8L999.0,889.9L999.7,887.7L998.7,885.4L992.8,878.7L991.4,875.0L990.7,870.9L990.4,866.6L990.6,862.5L992.3,853.3L992.2,849.3L983.8,826.7L977.0,839.0L969.2,847.0L972.9,870.9L963.2,871.9L962.5,889.8L962.6,916.7L960.1,936.6L953.2,950.6L943.6,957.5L932.5,965.7L940.6,971.3L951.9,990.9L959.0,1000.7L959.0,1000.8L958.7,997.3Z " data-id="UG.AZ" data-name="Amudat" id="UG.AZ"/>
utf-8utf-8<path d="M377.5,1347.0L374.0,1348.4L361.5,1350.6L351.2,1350.8L328.0,1346.4L317.8,1339.6L315.8,1341.2L314.6,1343.5L312.8,1354.1L309.7,1363.5L307.6,1373.0L310.1,1381.8L318.0,1392.4L330.0,1401.9L342.3,1407.3L350.8,1410.8L357.6,1407.2L359.2,1396.6L363.2,1392.3L370.2,1391.9L376.4,1388.3L380.6,1383.0L382.2,1375.9L379.1,1368.8L380.1,1364.1L388.0,1359.4L394.2,1355.2L394.2,1345.2L398.9,1339.9L378.1,1339.9L377.5,1347.0Z " data-id="UG.LE" data-name="Lwengo" id="UG.LE"/>
utf-8utf-8<path d="M319.8,1334.5L321.2,1328.8L323.1,1323.8L323.8,1318.2L323.5,1315.1L322.6,1312.1L323.4,1306.3L319.5,1301.2L314.4,1297.5L312.0,1304.7L302.3,1299.4L301.7,1295.8L291.8,1292.1L287.5,1291.2L285.0,1293.1L281.0,1294.7L282.2,1311.9L278.6,1329.2L278.8,1342.8L280.5,1350.0L283.7,1356.9L288.9,1373.4L292.3,1380.1L293.8,1387.7L291.4,1395.1L300.8,1396.0L308.6,1394.2L310.1,1381.8L307.6,1373.0L309.7,1363.5L312.8,1354.1L314.6,1343.5L315.8,1341.2L317.8,1339.6L319.8,1334.5Z " data-id="UG.LY" data-name="Lyantonde" id="UG.LY"/>
utf-8utf-8<path d="M380.6,1276.5L375.3,1275.2L367.7,1281.7L370.3,1296.8L374.4,1321.0L378.1,1339.9L398.9,1339.9L404.2,1332.8L405.2,1328.1L401.6,1319.8L400.0,1310.3L390.1,1283.2L385.7,1275.7L380.6,1276.5Z " data-id="UG.BM" data-name="Bukomansimbi" id="UG.BM"/>
utf-8utf-8<path d="M405.4,1271.7L394.6,1269.8L389.9,1272.5L385.7,1275.7L390.1,1283.2L400.0,1310.3L401.6,1319.8L405.2,1328.1L404.2,1332.8L398.9,1339.9L430.2,1340.5L438.1,1335.7L445.4,1333.3L446.4,1328.0L446.5,1326.1L446.5,1324.8L444.8,1323.4L443.8,1323.5L443.0,1323.6L436.6,1326.1L436.6,1326.1L436.6,1326.1L438.2,1317.7L439.1,1314.6L438.1,1314.4L435.4,1313.3L435.4,1313.3L435.4,1313.3L438.3,1311.8L428.1,1292.7L423.7,1287.0L415.8,1276.8L412.2,1275.1L405.4,1271.7Z " data-id="UG.QA" data-name="Kalungu" id="UG.QA"/>
utf-8utf-8<path d="M49.6,1318.2L51.0,1319.1L53.4,1319.4L55.0,1318.6L53.3,1318.3L49.5,1318.1L49.6,1318.2Z M129.2,1310.4L119.8,1305.7L120.5,1303.8L121.3,1301.9L117.2,1301.1L107.8,1301.1L84.3,1321.6L73.1,1321.7L64.2,1320.2L62.9,1325.1L61.3,1338.4L59.0,1346.5L55.9,1353.7L52.3,1360.2L50.6,1362.0L55.2,1362.3L67.7,1368.8L73.4,1367.2L80.6,1362.3L87.8,1358.3L93.6,1359.9L100.0,1368.8L108.7,1372.1L110.1,1349.3L114.4,1345.2L123.1,1339.5L135.3,1336.3L142.7,1329.4L137.9,1325.8L135.2,1325.4L133.3,1317.4L129.2,1310.4Z " data-id="UG.RZ" data-name="Rubirizi" id="UG.RZ"/>
utf-8utf-8<path d="M106.4,1414.5L104.3,1408.8L102.8,1402.2L98.5,1397.3L92.8,1397.3L87.0,1399.0L80.6,1396.5L72.8,1390.3L72.4,1396.1L70.3,1400.9L69.8,1403.9L64.5,1406.7L67.4,1414.5L74.4,1418.4L79.7,1425.3L83.0,1434.2L93.9,1443.2L98.5,1442.3L103.4,1442.7L107.6,1438.2L112.0,1434.1L117.6,1435.9L119.3,1428.3L113.6,1416.9L106.4,1414.5Z " data-id="UG.MM" data-name="Mitooma" id="UG.MM"/>
utf-8utf-8<path d="M145.3,1433.7L161.2,1416.3L164.1,1408.4L165.2,1401.8L169.3,1386.6L169.5,1378.0L145.3,1380.2L143.2,1387.6L143.1,1401.4L141.0,1413.6L128.7,1415.3L113.6,1416.9L119.3,1428.3L117.6,1435.9L121.6,1441.0L126.9,1442.3L133.2,1442.1L145.3,1433.7Z " data-id="UG.SH" data-name="Sheema" id="UG.SH"/>
utf-8utf-8<path d="M172.3,1337.0L168.3,1338.0L166.4,1339.6L165.7,1342.4L164.3,1345.1L161.5,1345.7L159.5,1343.8L158.2,1341.1L142.7,1329.4L135.3,1336.3L123.1,1339.5L114.4,1345.2L110.1,1349.3L108.7,1372.1L122.3,1376.2L135.3,1384.3L143.2,1387.6L145.3,1380.2L169.5,1378.0L169.0,1371.1L174.5,1365.1L173.8,1351.0L175.8,1338.6L172.3,1337.0Z " data-id="UG.BH" data-name="Buhweju" id="UG.BH"/>
utf-8utf-8<path d="M480.3,716.8L472.5,714.6L465.9,709.5L457.5,709.5L451.0,708.7L444.4,704.3L400.9,705.1L395.8,710.2L393.3,718.3L371.8,718.3L364.1,722.7L355.7,733.0L349.9,739.6L341.9,742.3L344.3,746.2L346.9,749.5L349.2,753.8L352.0,762.7L355.3,765.8L360.6,764.7L361.4,766.5L360.4,770.9L359.1,772.4L354.3,774.4L352.6,778.1L351.7,782.7L351.7,785.8L351.7,796.0L350.5,800.7L347.4,802.7L344.0,803.8L340.3,806.2L334.2,811.3L331.0,816.0L330.6,817.8L330.9,827.2L331.3,829.1L332.2,830.3L338.1,827.9L347.1,820.3L356.0,817.7L362.2,813.7L364.9,812.8L377.5,812.8L379.1,813.2L382.6,815.6L386.1,815.1L403.3,808.5L409.1,801.1L411.9,798.6L415.3,797.3L422.8,795.8L425.8,794.2L427.7,795.3L433.3,795.8L439.8,800.6L443.7,802.5L451.1,809.9L452.9,810.6L458.6,811.4L465.0,815.0L470.8,817.0L476.9,822.4L481.2,822.6L483.2,821.4L489.2,816.6L495.6,817.0L495.8,817.1L492.3,800.5L491.3,783.4L492.2,774.9L499.1,773.1L506.7,774.0L514.2,773.0L510.8,769.2L504.9,767.2L500.0,763.6L497.1,758.2L496.2,754.1L495.8,750.0L496.6,747.4L485.0,746.5L479.9,743.1L477.2,736.8L478.5,731.0L481.9,725.6L484.2,719.0L480.3,716.8Z " data-id="UG.NW" data-name="Nwoya" id="UG.NW"/>
utf-8utf-8<path d="M902.5,1057.6L887.5,1056.1L881.7,1060.0L874.3,1062.5L869.9,1069.0L867.6,1073.9L864.6,1078.1L876.7,1077.9L876.7,1080.8L879.9,1080.8L880.3,1076.3L897.1,1076.3L901.2,1077.9L901.3,1073.2L902.2,1068.8L903.7,1064.5L905.5,1060.8L909.2,1056.7L902.5,1057.6Z " data-id="UG.BA" data-name="Bududa" id="UG.BA"/>
utf-8</g>
</svg>
