<?xml version="1.0" ?>
<!DOCTYPE svg
  PUBLIC '-//W3C//DTD SVG 1.1//EN'
  'http://www.w3.org/Graphics/SVG/1.1/DTD/svg11.dtd'>
<svg enable_background="new 0 0 1000 1116" height="1116px" pretty_print="True" style="stroke-linejoin: round; stroke:#000; fill: none;" version="1.1" viewBox="0 0 1000 1116" width="1000px" xmlns="http://www.w3.org/2000/svg" xmlns:xlink="http://www.w3.org/1999/xlink">
utf-8<defs>
utf-8utf-8<style type="text/css">
<![CDATA[path { fill-rule: evenodd; }]]>utf-8utf-8</style>
utf-8</defs>
utf-8<metadata>
utf-8utf-8<views>
utf-8utf-8utf-8<view h="1116.6668522" padding="0" w="1000">
utf-8utf-8utf-8utf-8<proj flip="auto" id="robinson" lon0="-57.0615022858"/>
utf-8utf-8utf-8utf-8<bbox h="81.77" w="73.29" x="-822.4" y="504.67"/>
utf-8utf-8utf-8</view>
utf-8utf-8</views>
utf-8</metadata>
utf-8<g class="" id="provinces">
utf-8utf-8<path d="M37.5,163.8L39.2,173.3L38.7,184.6L36.5,185.5L31.9,184.9L24.1,187.1L20.9,189.6L20.0,193.6L21.7,196.2L31.8,208.4L35.1,219.0L32.9,226.8L29.2,234.4L28.5,244.4L31.5,254.5L32.4,260.4L31.0,263.0L28.4,271.7L23.4,277.2L22.4,281.9L23.2,292.2L22.1,296.5L19.5,299.1L13.0,303.6L9.9,306.7L8.6,313.7L14.3,319.6L16.9,321.3L20.3,319.4L23.1,318.6L29.7,319.8L32.8,319.6L34.1,314.5L41.0,312.7L44.5,313.0L49.9,315.0L63.9,322.2L67.4,325.6L71.2,333.6L77.0,338.3L106.4,344.6L121.4,351.7L135.8,359.4L140.6,360.0L146.1,360.2L153.0,362.8L158.3,369.4L163.0,373.2L167.7,375.3L183.8,379.8L186.1,380.9L194.1,386.4L196.5,387.0L213.1,389.0L219.2,389.5L227.4,385.7L236.4,388.9L240.6,389.9L242.8,389.8L258.8,386.2L261.1,386.2L267.9,387.9L272.1,390.5L274.7,391.1L282.8,391.2L286.6,392.0L297.4,398.2L311.4,399.6L325.7,403.8L332.1,403.3L336.2,400.6L337.2,395.0L338.1,393.3L342.9,387.0L345.1,381.5L347.6,379.3L357.3,376.6L356.6,370.3L353.8,362.3L351.6,352.7L349.6,347.9L345.3,342.1L345.5,339.7L348.6,323.8L349.2,322.2L354.5,316.1L357.3,307.8L359.3,305.5L362.6,304.2L365.6,301.3L370.3,294.0L370.5,283.1L371.6,279.2L372.1,274.9L370.0,272.6L365.6,268.1L364.7,264.1L366.4,260.7L371.2,257.5L383.9,253.6L387.8,250.2L390.2,242.1L392.4,224.2L392.2,224.3L390.8,222.5L382.5,216.7L371.0,206.5L368.3,203.8L363.0,197.3L358.5,193.8L353.7,191.4L321.9,184.5L310.5,180.5L303.5,180.2L300.4,181.4L298.5,185.2L297.6,188.6L294.8,193.0L287.5,197.2L285.3,200.7L281.6,202.8L275.3,203.6L271.6,205.5L261.8,215.1L255.9,217.5L246.8,218.4L242.4,219.7L239.7,219.6L217.1,215.6L212.4,215.3L199.9,216.9L197.1,218.4L192.5,222.5L189.2,223.5L187.3,223.3L175.1,219.8L170.0,217.3L165.9,214.7L152.1,203.2L150.5,202.3L140.8,199.3L112.9,185.5L105.8,180.9L100.9,177.2L93.0,175.4L86.2,175.5L82.5,174.5L80.0,173.0L68.0,161.6L53.9,152.1L48.8,149.8L43.4,149.2L39.4,151.1L35.9,158.1L37.5,163.8Z " data-id="UY.SA" data-name="Salto" id="UY.SA"/>
utf-8utf-8<path d="M255.3,690.1L251.0,693.1L243.1,696.9L241.0,697.3L238.6,696.3L237.1,693.8L234.9,687.7L233.4,690.7L230.9,694.1L228.2,694.9L224.4,685.9L221.6,683.1L217.9,681.3L209.6,678.7L203.4,679.5L199.9,682.5L197.8,683.1L195.6,682.1L194.2,679.9L191.9,672.7L189.9,671.3L180.7,666.9L176.3,666.2L172.4,667.1L161.7,672.1L160.6,673.2L159.6,678.1L158.5,679.9L154.9,680.7L147.0,677.7L141.0,676.3L137.8,674.2L127.3,675.3L124.1,674.2L118.2,671.0L114.7,670.4L111.4,671.4L105.7,678.5L103.1,679.7L97.6,681.2L96.1,683.1L96.0,686.6L97.0,689.3L96.5,691.3L92.4,692.3L89.1,691.9L83.2,690.2L80.3,691.0L78.6,692.7L78.8,694.3L81.7,698.8L82.7,704.2L84.0,705.5L88.4,711.9L88.3,715.7L87.1,717.7L83.8,715.8L80.0,712.7L77.4,711.3L71.6,714.8L70.0,716.8L69.8,719.1L71.3,727.8L71.1,731.7L69.2,732.7L63.5,731.7L54.4,731.7L51.3,734.0L43.4,747.5L27.1,758.4L28.6,759.5L30.7,763.9L30.3,768.9L25.3,777.6L23.6,782.0L23.6,787.5L25.1,792.3L27.1,796.8L28.6,801.5L29.7,821.2L34.3,841.0L41.9,861.8L50.5,859.9L66.3,852.7L81.8,840.3L84.7,839.4L88.1,839.8L110.7,845.4L115.5,851.1L116.6,853.4L121.9,858.7L128.9,859.2L134.4,858.2L149.4,858.6L155.9,861.6L159.2,864.9L162.4,867.1L190.2,876.1L195.6,876.6L207.0,875.5L238.3,866.5L242.0,867.5L246.5,869.4L250.5,871.6L259.6,878.0L265.1,878.7L280.9,878.7L301.4,881.9L299.4,879.3L295.2,874.7L292.7,870.3L290.8,864.5L288.0,858.9L286.9,855.5L283.0,848.8L272.5,835.1L271.3,830.6L270.0,808.1L270.9,802.3L270.7,800.9L267.5,797.9L261.9,796.5L256.6,793.2L249.1,785.2L245.9,775.6L242.0,771.5L240.7,769.4L236.8,759.6L227.9,752.7L225.6,749.7L224.8,746.1L226.3,742.5L242.0,718.4L244.1,716.3L254.6,698.8L255.5,696.7L256.8,689.4L255.3,690.1Z " data-id="UY.SO" data-name="Soriano" id="UY.SO"/>
utf-8utf-8<path d="M711.5,356.8L710.7,358.1L708.9,363.5L705.7,367.5L703.7,372.2L704.4,377.7L709.4,387.8L711.2,393.3L710.9,397.3L708.2,408.8L706.3,413.8L705.0,420.4L700.0,429.9L703.4,432.4L709.3,433.9L710.6,437.7L709.9,440.5L705.6,444.4L704.1,447.1L706.7,450.7L706.7,454.8L704.5,458.2L700.3,459.6L696.3,460.1L692.4,461.2L688.5,462.4L685.7,462.7L677.2,458.1L672.2,456.4L670.5,458.8L670.7,464.1L669.7,467.1L666.1,472.2L664.8,480.0L668.8,487.5L668.4,490.0L666.5,494.6L663.9,504.0L661.5,508.1L654.4,512.8L650.9,519.7L644.4,521.8L641.9,524.8L639.1,531.5L635.9,536.1L631.5,540.0L626.0,542.8L619.4,543.8L612.6,542.4L599.3,537.4L592.7,537.8L577.0,545.8L582.2,553.2L584.8,563.8L584.1,575.8L582.7,583.0L583.4,589.6L590.4,601.2L591.0,605.1L590.4,605.9L586.1,607.4L584.9,610.3L590.8,618.8L592.6,622.8L594.0,636.4L598.1,642.5L602.5,646.7L605.4,649.0L625.7,660.7L629.1,664.6L635.1,666.1L648.8,665.6L658.9,667.0L658.2,662.9L657.7,661.3L654.1,656.5L653.1,652.8L655.3,648.4L664.2,641.0L672.6,636.3L675.0,633.0L677.8,630.1L688.1,624.3L695.8,623.2L702.0,623.2L704.9,622.6L713.2,618.9L717.5,618.7L727.4,621.0L730.2,620.4L732.6,618.8L735.4,613.4L736.3,612.8L740.7,613.4L744.8,612.2L747.2,605.3L763.1,604.2L766.9,602.9L775.5,597.5L781.0,596.8L782.9,598.4L786.4,600.0L793.8,600.9L806.7,604.7L812.0,605.9L816.0,605.6L819.7,606.6L831.3,613.7L835.2,615.4L837.9,615.2L839.1,613.1L835.4,606.7L836.3,603.7L839.9,600.0L846.5,594.6L848.6,594.0L853.8,595.6L867.6,605.6L872.6,607.7L874.5,607.9L906.2,605.3L913.2,606.6L917.9,606.8L938.1,604.3L941.9,606.4L943.5,608.2L946.9,609.2L950.5,608.9L954.2,609.6L957.1,611.7L960.1,612.9L962.6,613.2L965.7,612.6L968.5,610.7L975.3,610.6L970.4,608.0L966.5,604.8L967.5,603.9L975.9,604.8L980.2,604.3L983.2,603.0L988.7,598.7L992.6,596.8L995.8,595.9L997.7,593.8L997.6,583.5L994.5,580.7L991.2,578.5L984.5,575.6L977.5,571.7L971.3,571.6L967.9,570.6L958.7,565.5L947.3,561.8L933.8,549.1L920.3,540.4L915.0,535.7L910.1,530.3L905.9,524.4L903.4,521.6L897.8,517.2L895.6,514.3L894.0,510.4L891.6,498.9L889.0,491.2L885.6,484.8L873.5,470.2L865.8,456.9L864.3,448.9L862.6,445.8L859.5,444.0L847.8,441.5L842.0,438.1L836.7,433.5L833.1,426.4L830.5,424.0L824.4,420.1L817.9,417.9L811.5,417.2L807.5,414.9L803.8,410.0L800.1,407.5L796.2,405.9L792.3,405.5L788.9,406.8L785.9,410.1L784.5,412.5L782.4,412.7L777.4,409.5L766.4,400.6L754.5,393.0L739.3,380.7L732.3,373.8L725.6,368.2L718.5,363.6L712.4,358.5L711.5,356.8Z " data-id="UY.CL" data-name="Cerro Largo" id="UY.CL"/>
utf-8utf-8<path d="M571.2,546.9L567.7,544.7L560.3,540.8L556.6,540.6L554.9,539.2L550.5,531.6L547.0,530.6L544.2,532.2L542.9,534.6L542.4,544.9L540.4,547.9L536.6,549.2L532.3,549.6L527.3,549.1L522.7,547.9L518.3,546.1L515.3,546.5L513.4,549.7L512.0,556.3L509.1,557.8L505.7,558.1L497.4,552.2L493.6,551.9L491.6,553.1L491.6,555.8L493.9,560.0L494.6,563.2L493.0,565.3L492.2,571.8L489.6,574.8L486.0,577.7L480.5,575.9L474.9,570.6L470.8,570.8L466.7,573.3L464.0,577.1L462.1,581.3L457.6,586.7L453.4,592.8L446.9,594.0L440.3,594.5L432.8,597.4L424.5,598.7L422.8,603.4L420.1,608.2L417.8,614.2L417.8,620.9L411.6,621.2L404.2,620.9L397.5,619.5L391.2,619.0L386.7,623.3L384.4,629.6L380.2,629.2L375.3,625.0L370.9,622.7L366.0,622.3L361.2,622.9L354.0,622.9L349.5,623.8L346.6,625.2L343.4,628.0L340.1,628.9L333.8,625.5L329.9,624.3L326.6,625.5L324.9,628.3L321.5,630.0L315.8,630.2L312.7,631.7L309.2,636.0L307.9,641.0L308.9,646.1L306.6,646.9L302.9,646.3L299.8,647.2L299.1,649.3L301.3,655.8L300.9,658.4L299.0,657.8L290.8,651.9L288.8,651.9L286.9,653.5L288.6,658.2L281.8,659.1L278.8,659.9L279.5,662.1L282.9,665.5L283.1,667.1L280.9,667.6L276.5,667.6L272.6,666.9L264.2,663.5L260.5,662.8L257.3,663.7L254.3,665.9L248.2,672.2L244.9,672.7L244.1,673.7L244.5,676.2L246.1,677.5L248.1,677.7L249.8,676.8L254.3,678.5L254.3,681.2L256.6,688.1L256.8,689.4L267.5,698.4L276.1,702.9L278.3,703.4L288.4,702.0L294.9,702.8L306.4,705.4L311.6,708.7L317.6,719.9L320.3,722.1L324.0,723.6L331.6,724.0L338.2,725.6L349.6,729.7L357.7,738.9L371.9,751.9L375.9,756.2L378.1,760.9L379.4,766.4L381.6,770.4L386.0,774.7L401.2,775.0L404.3,773.8L406.5,771.8L407.4,768.7L406.3,762.9L404.2,754.8L404.6,753.7L407.5,753.5L414.9,758.6L420.2,760.1L428.9,759.1L435.0,762.9L437.3,767.5L443.7,771.4L454.4,770.6L459.8,771.2L469.7,774.0L473.9,771.6L477.4,768.6L479.8,761.2L481.4,760.5L487.8,759.9L497.5,757.9L501.6,758.4L505.0,760.2L510.4,761.1L517.9,758.8L528.7,753.4L533.1,750.2L536.9,745.3L538.2,744.7L550.9,745.7L555.0,743.9L587.9,723.1L592.1,716.5L601.6,711.1L605.5,708.3L609.4,706.2L612.5,706.7L615.9,708.4L620.5,707.9L622.8,706.0L631.6,695.9L634.4,693.7L643.2,688.3L643.9,683.5L645.2,681.5L654.7,674.5L657.7,670.6L658.9,667.0L648.8,665.6L635.1,666.1L629.1,664.6L625.7,660.7L605.4,649.0L602.5,646.7L598.1,642.5L594.0,636.4L592.6,622.8L590.8,618.8L584.9,610.3L586.1,607.4L590.4,605.9L591.0,605.1L590.4,601.2L583.4,589.6L582.7,583.0L584.1,575.8L584.8,563.8L582.2,553.2L577.0,545.8L571.2,546.9Z " data-id="UY.DU" data-name="Durazno" id="UY.DU"/>
utf-8utf-8<path d="M708.7,351.7L706.9,342.5L705.5,338.5L702.5,334.3L699.2,331.3L687.7,323.0L685.0,319.9L680.4,312.8L677.5,310.2L674.4,309.3L667.8,309.3L635.1,304.7L628.9,302.3L626.1,300.6L617.6,292.5L609.2,288.8L602.7,283.2L596.7,276.5L592.7,271.1L588.6,266.8L586.2,267.6L583.8,275.0L581.8,278.5L579.5,280.0L576.5,279.4L572.3,276.9L561.8,268.5L557.8,266.2L549.8,263.3L546.2,261.3L542.6,257.6L540.3,253.5L536.2,244.1L533.4,240.6L526.3,236.3L523.8,234.2L521.8,230.3L519.9,222.1L518.2,218.4L514.7,214.1L497.8,197.8L487.5,189.6L482.4,184.2L478.8,181.6L471.2,177.5L464.7,171.1L460.5,170.0L456.6,170.9L454.0,174.0L453.7,178.0L455.9,187.4L456.2,191.7L454.1,194.1L449.7,193.7L444.8,192.7L441.2,193.2L439.1,196.2L438.3,204.0L437.3,207.5L435.0,210.2L425.6,217.4L423.5,221.4L420.4,223.1L415.8,223.1L410.0,224.4L397.1,223.5L392.4,224.2L390.2,242.1L387.8,250.2L383.9,253.6L371.2,257.5L366.4,260.7L364.7,264.1L365.6,268.1L370.0,272.6L372.1,274.9L375.5,267.7L377.6,265.5L381.9,263.9L385.6,263.9L389.6,265.2L407.5,277.9L417.6,283.2L432.5,289.1L438.3,293.7L440.9,297.8L443.2,304.1L444.0,309.7L448.3,318.5L451.5,322.8L459.0,328.9L472.7,334.3L477.5,338.5L481.6,348.1L482.8,350.3L483.4,354.3L482.7,364.8L484.1,368.4L486.6,372.6L486.8,376.7L490.6,383.6L496.6,388.9L500.5,388.8L503.4,387.4L517.0,389.1L533.7,388.0L538.3,386.7L541.1,386.6L546.8,387.2L566.4,392.0L578.4,392.9L586.2,392.0L592.2,392.3L595.3,392.9L603.2,396.2L607.3,397.5L622.3,398.8L624.8,399.4L633.6,402.5L638.3,404.7L651.7,416.8L655.1,420.1L659.5,426.1L669.0,435.3L672.9,439.9L681.1,446.9L684.2,450.7L689.1,458.1L692.4,461.2L696.3,460.1L700.3,459.6L704.5,458.2L706.7,454.8L706.7,450.7L704.1,447.1L705.6,444.4L709.9,440.5L710.6,437.7L709.3,433.9L703.4,432.4L700.0,429.9L705.0,420.4L706.3,413.8L708.2,408.8L710.9,397.3L711.2,393.3L709.4,387.8L704.4,377.7L703.7,372.2L705.7,367.5L708.9,363.5L710.7,358.1L711.5,356.8L708.7,351.7Z " data-id="UY.RV" data-name="Rivera" id="UY.RV"/>
utf-8utf-8<path d="M689.1,458.1L684.2,450.7L681.1,446.9L672.9,439.9L669.0,435.3L659.5,426.1L655.1,420.1L651.7,416.8L638.3,404.7L633.6,402.5L624.8,399.4L622.3,398.8L607.3,397.5L603.2,396.2L595.3,392.9L592.2,392.3L586.2,392.0L578.4,392.9L566.4,392.0L546.8,387.2L541.1,386.6L538.3,386.7L533.7,388.0L517.0,389.1L503.4,387.4L500.5,388.8L496.6,388.9L490.6,383.6L486.8,376.7L486.6,372.6L484.1,368.4L482.7,364.8L483.4,354.3L482.8,350.3L481.6,348.1L477.5,338.5L472.7,334.3L459.0,328.9L451.5,322.8L448.3,318.5L444.0,309.7L443.2,304.1L440.9,297.8L438.3,293.7L432.5,289.1L417.6,283.2L407.5,277.9L389.6,265.2L385.6,263.9L381.9,263.9L377.6,265.5L375.5,267.7L372.1,274.9L371.6,279.2L370.5,283.1L370.3,294.0L365.6,301.3L362.6,304.2L359.3,305.5L357.3,307.8L354.5,316.1L349.2,322.2L348.6,323.8L345.5,339.7L345.3,342.1L349.6,347.9L351.6,352.7L353.8,362.3L356.6,370.3L357.3,376.6L364.9,384.2L367.7,390.0L368.2,394.9L369.3,400.3L370.9,403.5L376.5,409.3L378.2,413.7L377.9,414.8L373.1,416.8L371.1,419.7L371.0,422.0L372.7,431.7L373.7,443.0L373.2,447.7L371.1,454.0L370.6,456.7L369.4,482.1L368.7,486.1L364.1,492.9L358.7,499.0L352.4,504.2L347.6,509.5L345.3,514.5L340.4,545.5L341.3,555.9L339.5,584.7L336.5,589.2L335.1,592.6L335.2,596.9L336.9,604.2L336.4,611.9L334.2,618.7L333.8,625.5L340.1,628.9L343.4,628.0L346.6,625.2L349.5,623.8L354.0,622.9L361.2,622.9L366.0,622.3L370.9,622.7L375.3,625.0L380.2,629.2L384.4,629.6L386.7,623.3L391.2,619.0L397.5,619.5L404.2,620.9L411.6,621.2L417.8,620.9L417.8,614.2L420.1,608.2L422.8,603.4L424.5,598.7L432.8,597.4L440.3,594.5L446.9,594.0L453.4,592.8L457.6,586.7L462.1,581.3L464.0,577.1L466.7,573.3L470.8,570.8L474.9,570.6L480.5,575.9L486.0,577.7L489.6,574.8L492.2,571.8L493.0,565.3L494.6,563.2L493.9,560.0L491.6,555.8L491.6,553.1L493.6,551.9L497.4,552.2L505.7,558.1L509.1,557.8L512.0,556.3L513.4,549.7L515.3,546.5L518.3,546.1L522.7,547.9L527.3,549.1L532.3,549.6L536.6,549.2L540.4,547.9L542.4,544.9L542.9,534.6L544.2,532.2L547.0,530.6L550.5,531.6L554.9,539.2L556.6,540.6L560.3,540.8L567.7,544.7L571.2,546.9L577.0,545.8L592.7,537.8L599.3,537.4L612.6,542.4L619.4,543.8L626.0,542.8L631.5,540.0L635.9,536.1L639.1,531.5L641.9,524.8L644.4,521.8L650.9,519.7L654.4,512.8L661.5,508.1L663.9,504.0L666.5,494.6L668.4,490.0L668.8,487.5L664.8,480.0L666.1,472.2L669.7,467.1L670.7,464.1L670.5,458.8L672.2,456.4L677.2,458.1L685.7,462.7L688.5,462.4L692.4,461.2L689.1,458.1Z " data-id="UY.TA" data-name="Tacuarembó" id="UY.TA"/>
utf-8utf-8<path d="M658.9,667.0L657.7,670.6L654.7,674.5L645.2,681.5L643.9,683.5L643.2,688.3L647.1,700.8L648.7,708.7L652.4,719.0L652.3,724.2L651.1,729.6L649.1,733.5L646.6,735.5L645.1,739.9L646.5,743.8L651.1,748.6L659.5,743.1L663.0,741.4L672.6,739.7L680.2,741.9L685.6,744.8L692.3,744.8L700.2,740.4L704.7,738.5L708.1,738.6L716.6,741.7L722.9,747.4L730.2,751.9L736.3,753.5L752.3,756.0L758.9,759.7L772.6,763.8L776.6,763.9L786.3,757.7L787.7,750.7L792.3,747.9L797.7,743.0L804.4,741.0L808.4,741.1L811.3,743.2L814.0,747.5L817.7,752.3L827.6,759.4L835.0,762.2L840.6,765.4L845.8,767.8L846.4,766.3L848.3,764.2L857.9,761.7L862.1,758.9L866.0,755.1L869.1,750.6L872.2,740.4L873.9,738.5L880.1,736.6L884.0,733.6L888.6,725.1L891.4,721.4L898.0,717.8L899.7,715.7L900.9,708.0L903.4,704.6L917.9,700.2L930.9,694.2L930.3,692.7L925.6,686.2L929.5,684.2L929.6,681.9L927.8,678.7L926.3,674.5L926.4,672.1L927.5,670.8L929.1,670.7L931.1,672.1L931.8,673.9L932.7,681.5L935.5,678.7L947.0,654.8L950.1,650.5L955.6,648.8L978.2,650.3L979.2,649.5L972.5,644.1L973.4,642.2L975.8,640.4L980.7,637.7L980.5,636.3L976.2,634.5L976.0,633.1L980.2,631.4L982.2,629.6L982.6,626.7L981.9,621.3L977.8,611.9L975.3,610.6L968.5,610.7L965.7,612.6L962.6,613.2L960.1,612.9L957.1,611.7L954.2,609.6L950.5,608.9L946.9,609.2L943.5,608.2L941.9,606.4L938.1,604.3L917.9,606.8L913.2,606.6L906.2,605.3L874.5,607.9L872.6,607.7L867.6,605.6L853.8,595.6L848.6,594.0L846.5,594.6L839.9,600.0L836.3,603.7L835.4,606.7L839.1,613.1L837.9,615.2L835.2,615.4L831.3,613.7L819.7,606.6L816.0,605.6L812.0,605.9L806.7,604.7L793.8,600.9L786.4,600.0L782.9,598.4L781.0,596.8L775.5,597.5L766.9,602.9L763.1,604.2L747.2,605.3L744.8,612.2L740.7,613.4L736.3,612.8L735.4,613.4L732.6,618.8L730.2,620.4L727.4,621.0L717.5,618.7L713.2,618.9L704.9,622.6L702.0,623.2L695.8,623.2L688.1,624.3L677.8,630.1L675.0,633.0L672.6,636.3L664.2,641.0L655.3,648.4L653.1,652.8L654.1,656.5L657.7,661.3L658.2,662.9L658.9,667.0Z " data-id="UY.TT" data-name="Treinta y Tres" id="UY.TT"/>
utf-8utf-8<path d="M634.5,1027.1L632.8,1023.7L628.5,1017.7L618.9,1008.1L615.8,1000.3L615.6,998.3L615.8,986.8L613.9,981.3L603.3,966.5L599.4,958.9L590.4,938.1L567.1,941.5L562.2,943.2L550.6,951.2L547.1,952.4L542.8,953.0L539.0,952.6L528.0,947.7L523.9,946.5L519.5,946.5L504.5,957.7L501.7,961.7L500.6,969.2L498.4,974.2L496.6,975.1L487.5,977.2L482.1,977.2L472.8,972.5L465.7,971.3L460.1,971.7L453.1,974.7L451.8,978.3L450.6,989.9L451.3,994.3L451.4,1001.5L455.1,1008.3L455.3,1011.6L450.7,1018.5L448.6,1020.8L445.5,1022.8L444.2,1027.7L446.4,1034.1L447.9,1040.4L450.5,1044.0L457.3,1047.6L465.3,1053.6L468.8,1057.1L470.6,1059.4L476.2,1055.6L479.5,1054.6L484.8,1055.5L488.6,1058.7L491.6,1062.5L496.9,1065.7L501.5,1065.6L505.4,1060.6L511.6,1057.2L513.3,1057.2L517.7,1062.3L526.0,1068.5L534.4,1068.8L535.1,1073.8L533.9,1078.5L534.9,1085.7L536.3,1090.0L539.2,1094.4L545.1,1090.6L553.2,1083.7L564.1,1075.4L569.5,1073.0L581.4,1068.6L588.5,1070.6L599.7,1066.4L609.3,1070.2L617.5,1068.2L625.9,1071.8L636.2,1074.4L644.0,1073.5L661.6,1074.9L662.3,1075.3L658.9,1068.6L650.8,1059.3L650.1,1050.2L645.4,1044.7L642.2,1042.5L639.7,1040.0L635.6,1033.5L634.5,1027.1Z " data-id="UY.CA" data-name="Canelones" id="UY.CA"/>
utf-8utf-8<path d="M646.5,743.8L645.1,739.9L646.6,735.5L649.1,733.5L651.1,729.6L652.3,724.2L652.4,719.0L648.7,708.7L647.1,700.8L643.2,688.3L634.4,693.7L631.6,695.9L622.8,706.0L620.5,707.9L615.9,708.4L612.5,706.7L609.4,706.2L605.5,708.3L601.6,711.1L592.1,716.5L587.9,723.1L555.0,743.9L550.9,745.7L538.2,744.7L536.9,745.3L533.1,750.2L528.7,753.4L517.9,758.8L510.4,761.1L505.0,760.2L501.6,758.4L497.5,757.9L487.8,759.9L481.4,760.5L479.8,761.2L477.4,768.6L473.9,771.6L469.7,774.0L459.8,771.2L454.4,770.6L443.7,771.4L437.3,767.5L435.0,762.9L428.9,759.1L420.2,760.1L414.9,758.6L407.5,753.5L404.6,753.7L404.2,754.8L406.3,762.9L407.4,768.7L406.5,771.8L404.3,773.8L401.2,775.0L386.0,774.7L390.1,780.7L408.2,820.6L411.9,825.0L416.4,831.5L418.4,835.9L421.2,857.3L419.7,864.3L418.4,866.0L416.4,867.9L420.4,875.4L431.3,903.1L433.8,912.6L434.0,918.2L431.2,925.6L431.0,930.0L436.7,940.1L438.8,945.7L440.8,960.9L440.8,963.1L439.2,965.8L435.9,967.8L434.3,969.7L433.9,971.7L434.8,974.2L447.4,985.6L448.6,987.0L450.6,989.9L451.8,978.3L453.1,974.7L460.1,971.7L465.7,971.3L472.8,972.5L482.1,977.2L487.5,977.2L496.6,975.1L498.4,974.2L500.6,969.2L501.7,961.7L504.5,957.7L519.5,946.5L523.9,946.5L528.0,947.7L539.0,952.6L542.8,953.0L547.1,952.4L550.6,951.2L562.2,943.2L567.1,941.5L590.4,938.1L594.5,930.1L598.8,924.5L600.3,920.9L600.9,916.7L603.1,909.4L604.9,906.9L612.7,898.8L613.7,897.4L614.0,887.4L619.0,878.9L620.3,872.7L623.4,867.6L626.7,865.0L629.8,859.6L629.0,852.0L629.3,849.7L633.2,834.8L633.3,832.0L632.2,823.2L630.5,819.8L624.3,812.1L622.5,808.4L622.6,800.9L626.1,798.1L631.9,796.5L633.9,795.6L637.6,791.8L638.3,790.3L640.0,780.8L640.8,778.0L642.4,775.2L645.6,772.9L651.8,770.6L655.4,765.7L656.0,759.0L655.1,754.7L652.7,750.4L651.1,748.6L646.5,743.8Z " data-id="UY.FD" data-name="Florida" id="UY.FD"/>
utf-8utf-8<path d="M840.6,765.4L835.0,762.2L827.6,759.4L817.7,752.3L814.0,747.5L811.3,743.2L808.4,741.1L804.4,741.0L797.7,743.0L792.3,747.9L787.7,750.7L786.3,757.7L776.6,763.9L772.6,763.8L758.9,759.7L752.3,756.0L736.3,753.5L730.2,751.9L722.9,747.4L716.6,741.7L708.1,738.6L704.7,738.5L700.2,740.4L692.3,744.8L685.6,744.8L680.2,741.9L672.6,739.7L663.0,741.4L659.5,743.1L651.1,748.6L652.7,750.4L655.1,754.7L656.0,759.0L655.4,765.7L651.8,770.6L645.6,772.9L642.4,775.2L640.8,778.0L640.0,780.8L638.3,790.3L637.6,791.8L633.9,795.6L631.9,796.5L626.1,798.1L622.6,800.9L622.5,808.4L624.3,812.1L630.5,819.8L632.2,823.2L633.3,832.0L633.2,834.8L629.3,849.7L629.0,852.0L629.8,859.6L626.7,865.0L623.4,867.6L620.3,872.7L619.0,878.9L614.0,887.4L613.7,897.4L612.7,898.8L604.9,906.9L603.1,909.4L600.9,916.7L600.3,920.9L598.8,924.5L594.5,930.1L590.4,938.1L599.4,958.9L603.3,966.5L613.9,981.3L615.8,986.8L615.6,998.3L615.8,1000.3L618.9,1008.1L628.5,1017.7L632.8,1023.7L634.5,1027.1L635.6,1033.5L661.1,1032.1L665.8,1030.8L671.2,1027.7L689.5,1009.4L695.7,1008.4L701.7,1008.8L707.4,1006.3L716.1,996.3L721.5,992.2L725.5,991.8L727.7,991.0L733.0,987.9L739.5,985.6L741.9,983.2L746.6,979.5L746.9,977.2L746.3,969.5L747.7,958.0L752.1,951.6L752.3,949.3L750.6,934.9L753.5,927.8L755.2,921.5L759.2,913.1L760.8,908.5L762.3,906.9L769.8,902.4L778.9,901.2L783.1,899.5L785.3,895.8L786.8,890.5L787.5,882.6L789.1,879.4L796.0,873.4L799.4,865.9L804.0,859.2L804.6,855.2L803.7,848.3L803.7,844.6L805.5,839.7L808.5,832.7L808.9,828.3L804.8,815.2L804.8,810.5L806.0,806.9L809.3,802.4L823.1,793.4L829.2,786.9L830.8,772.7L833.9,771.2L838.4,771.1L842.9,770.4L845.1,768.8L845.8,767.8L840.6,765.4Z " data-id="UY.LA" data-name="Lavalleja" id="UY.LA"/>
utf-8utf-8<path d="M823.0,1076.2L821.2,1072.3L821.0,1070.5L821.8,1066.8L822.9,1064.8L822.9,1061.6L818.8,1053.0L817.9,1050.4L815.8,1041.2L815.4,1036.1L816.3,1028.4L818.3,1023.3L818.8,1018.0L818.3,1016.1L812.5,1007.1L811.0,1001.0L809.3,997.5L807.7,995.7L805.9,987.3L805.9,984.5L806.7,981.6L807.9,981.0L813.0,980.2L812.8,973.8L811.1,959.9L808.3,950.8L805.3,936.6L805.4,921.5L806.8,917.1L807.0,912.2L796.0,873.4L789.1,879.4L787.5,882.6L786.8,890.5L785.3,895.8L783.1,899.5L778.9,901.2L769.8,902.4L762.3,906.9L760.8,908.5L759.2,913.1L755.2,921.5L753.5,927.8L750.6,934.9L752.3,949.3L752.1,951.6L747.7,958.0L746.3,969.5L746.9,977.2L746.6,979.5L741.9,983.2L739.5,985.6L733.0,987.9L727.7,991.0L725.5,991.8L721.5,992.2L716.1,996.3L707.4,1006.3L701.7,1008.8L695.7,1008.4L689.5,1009.4L671.2,1027.7L665.8,1030.8L661.1,1032.1L635.6,1033.5L639.7,1040.0L642.2,1042.5L645.4,1044.7L650.1,1050.2L650.8,1059.3L658.9,1068.6L662.3,1075.3L669.7,1078.9L682.0,1092.2L687.9,1097.1L695.5,1098.6L712.3,1094.4L721.3,1094.0L729.6,1097.1L731.3,1099.2L732.0,1101.6L739.7,1102.5L743.4,1104.3L746.5,1106.9L749.0,1109.9L748.6,1114.7L752.1,1113.9L755.9,1108.2L759.5,1106.8L763.4,1106.1L793.4,1090.2L801.1,1087.7L804.7,1085.9L809.9,1080.7L821.1,1077.3L823.0,1076.2Z " data-id="UY.MA" data-name="Maldonado" id="UY.MA"/>
utf-8utf-8<path d="M470.6,1059.4L474.1,1067.6L474.3,1069.2L473.1,1073.1L473.9,1073.8L469.2,1075.0L463.9,1081.1L465.0,1084.5L468.5,1087.2L481.2,1094.0L488.2,1099.1L492.5,1098.5L498.6,1099.1L501.8,1096.0L502.3,1092.6L505.4,1093.0L507.9,1094.8L508.1,1097.4L506.9,1099.5L510.7,1100.8L514.1,1101.5L519.2,1107.2L519.5,1102.4L527.1,1097.3L533.9,1097.9L539.2,1094.4L536.3,1090.0L534.9,1085.7L533.9,1078.5L535.1,1073.8L534.4,1068.8L526.0,1068.5L517.7,1062.3L513.3,1057.2L511.6,1057.2L505.4,1060.6L501.5,1065.6L496.9,1065.7L491.6,1062.5L488.6,1058.7L484.8,1055.5L479.5,1054.6L476.2,1055.6L470.6,1059.4Z " data-id="UY.MO" data-name="Montevideo" id="UY.MO"/>
utf-8utf-8<path d="M930.9,694.2L917.9,700.2L903.4,704.6L900.9,708.0L899.7,715.7L898.0,717.8L891.4,721.4L888.6,725.1L884.0,733.6L880.1,736.6L873.9,738.5L872.2,740.4L869.1,750.6L866.0,755.1L862.1,758.9L857.9,761.7L848.3,764.2L846.4,766.3L845.8,767.8L845.1,768.8L842.9,770.4L838.4,771.1L833.9,771.2L830.8,772.7L829.2,786.9L823.1,793.4L809.3,802.4L806.0,806.9L804.8,810.5L804.8,815.2L808.9,828.3L808.5,832.7L805.5,839.7L803.7,844.6L803.7,848.3L804.6,855.2L804.0,859.2L799.4,865.9L796.0,873.4L807.0,912.2L806.8,917.1L805.4,921.5L805.3,936.6L808.3,950.8L811.1,959.9L812.8,973.8L813.0,980.2L807.9,981.0L806.7,981.6L805.9,984.5L805.9,987.3L807.7,995.7L809.3,997.5L811.0,1001.0L812.5,1007.1L818.3,1016.1L818.8,1018.0L818.3,1023.3L816.3,1028.4L815.4,1036.1L815.8,1041.2L817.9,1050.4L818.8,1053.0L822.9,1061.6L822.9,1064.8L821.8,1066.8L821.0,1070.5L821.2,1072.3L823.0,1076.2L861.6,1053.3L864.6,1050.3L865.6,1047.4L862.9,1042.3L858.9,1039.4L855.9,1038.7L856.5,1040.5L853.5,1041.1L851.7,1038.6L851.2,1035.5L852.0,1034.0L854.8,1032.9L857.9,1030.4L860.4,1027.2L861.4,1024.3L853.8,1021.2L851.4,1019.6L855.1,1019.7L860.8,1021.0L866.4,1023.3L869.7,1026.1L868.5,1032.7L869.5,1037.5L873.7,1041.8L871.0,1044.8L869.6,1048.3L873.9,1047.9L890.6,1044.0L891.1,1041.4L890.4,1037.9L890.5,1034.0L892.3,1030.8L916.3,1002.4L928.6,992.5L944.5,982.6L951.9,980.1L951.4,976.0L946.8,967.6L948.6,954.4L948.6,951.9L949.9,949.5L954.4,936.0L957.0,932.1L965.9,924.3L973.1,912.3L975.8,909.4L981.7,904.7L982.9,901.4L982.1,890.9L983.8,879.4L984.3,860.4L985.3,852.4L988.2,844.8L993.7,836.3L996.6,833.1L999.6,830.8L993.5,831.2L990.7,828.6L988.6,824.6L986.1,820.9L982.6,818.6L979.5,818.6L976.1,819.3L972.2,819.3L965.2,809.9L960.6,783.2L957.7,776.7L952.4,770.2L948.6,764.4L947.2,757.1L947.8,749.9L950.1,744.4L945.5,741.4L942.8,737.8L942.2,733.8L944.1,729.3L945.6,723.9L941.8,721.7L936.6,720.2L933.4,716.9L932.4,714.5L929.1,711.1L928.1,708.9L928.0,700.4L929.4,698.9L931.5,698.4L931.1,694.9L930.9,694.2Z " data-id="UY.RO" data-name="Rocha" id="UY.RO"/>
utf-8utf-8<path d="M280.9,878.7L265.1,878.7L259.6,878.0L250.5,871.6L246.5,869.4L242.0,867.5L238.3,866.5L207.0,875.5L195.6,876.6L190.2,876.1L162.4,867.1L159.2,864.9L155.9,861.6L149.4,858.6L134.4,858.2L128.9,859.2L121.9,858.7L116.6,853.4L115.5,851.1L110.7,845.4L88.1,839.8L84.7,839.4L81.8,840.3L66.3,852.7L50.5,859.9L41.9,861.8L44.1,867.9L46.4,872.6L49.9,877.1L53.6,879.9L61.6,884.2L65.7,887.3L86.3,910.8L89.4,915.6L93.3,924.3L96.2,927.0L101.6,928.0L106.0,928.3L111.3,929.2L116.4,931.2L120.4,934.5L124.8,942.0L127.7,945.5L134.5,948.5L151.9,965.4L156.9,971.7L162.7,976.9L163.9,986.1L168.5,991.7L174.1,993.4L176.4,996.8L174.9,998.7L181.3,999.6L186.8,999.0L192.4,999.5L196.7,996.5L200.3,996.9L210.2,992.8L217.2,989.4L222.6,988.2L227.5,988.4L234.7,994.7L245.7,989.1L250.6,989.6L253.5,992.6L257.8,989.6L266.6,989.4L270.7,992.3L281.0,991.6L298.0,992.0L305.1,993.5L314.9,983.3L315.6,978.7L314.3,971.7L316.4,966.1L316.9,961.3L315.7,958.4L311.1,953.9L309.2,950.4L308.9,948.5L310.2,942.6L314.1,939.3L316.9,937.6L324.6,935.3L333.8,927.1L334.8,925.5L333.2,919.6L324.1,908.4L316.5,901.0L309.1,896.3L307.9,894.3L305.0,887.5L301.4,881.9L280.9,878.7Z " data-id="UY.CO" data-name="Colonia" id="UY.CO"/>
utf-8utf-8<path d="M393.6,857.3L387.4,855.9L380.8,862.2L377.3,864.6L373.3,866.3L360.8,869.6L356.9,873.1L350.7,882.8L347.3,885.0L342.9,886.8L338.3,887.7L309.7,882.3L301.4,881.9L305.0,887.5L307.9,894.3L309.1,896.3L316.5,901.0L324.1,908.4L333.2,919.6L334.8,925.5L333.8,927.1L324.6,935.3L316.9,937.6L314.1,939.3L310.2,942.6L308.9,948.5L309.2,950.4L311.1,953.9L315.7,958.4L316.9,961.3L316.4,966.1L314.3,971.7L315.6,978.7L314.9,983.3L305.1,993.5L308.2,994.1L314.8,996.8L318.8,999.8L327.7,1006.9L329.2,1008.5L329.5,1011.6L332.8,1014.2L338.5,1017.4L342.6,1020.1L347.3,1024.1L352.8,1029.2L359.9,1033.8L363.4,1036.6L367.1,1042.3L370.7,1044.6L386.9,1051.2L402.9,1053.1L416.4,1056.7L420.2,1059.0L423.8,1060.6L431.8,1065.1L435.0,1066.5L438.2,1067.0L441.7,1064.2L448.4,1063.9L455.6,1065.0L470.5,1070.6L473.1,1073.1L474.3,1069.2L474.1,1067.6L470.6,1059.4L468.8,1057.1L465.3,1053.6L457.3,1047.6L450.5,1044.0L447.9,1040.4L446.4,1034.1L444.2,1027.7L445.5,1022.8L448.6,1020.8L450.7,1018.5L455.3,1011.6L455.1,1008.3L451.4,1001.5L451.3,994.3L450.6,989.9L448.6,987.0L447.4,985.6L434.8,974.2L433.9,971.7L434.3,969.7L435.9,967.8L439.2,965.8L440.8,963.1L440.8,960.9L438.8,945.7L436.7,940.1L431.0,930.0L431.2,925.6L434.0,918.2L433.8,912.6L431.3,903.1L420.4,875.4L416.4,867.9L393.6,857.3Z " data-id="UY.SJ" data-name="San José" id="UY.SJ"/>
utf-8utf-8<path d="M35.9,158.1L39.4,151.1L43.4,149.2L48.8,149.8L53.9,152.1L68.0,161.6L80.0,173.0L82.5,174.5L86.2,175.5L93.0,175.4L100.9,177.2L105.8,180.9L112.9,185.5L140.8,199.3L150.5,202.3L152.1,203.2L165.9,214.7L170.0,217.3L175.1,219.8L187.3,223.3L189.2,223.5L192.5,222.5L197.1,218.4L199.9,216.9L212.4,215.3L217.1,215.6L239.7,219.6L242.4,219.7L246.8,218.4L255.9,217.5L261.8,215.1L271.6,205.5L275.3,203.6L281.6,202.8L285.3,200.7L287.5,197.2L294.8,193.0L297.6,188.6L298.5,185.2L300.4,181.4L303.5,180.2L310.5,180.5L321.9,184.5L353.7,191.4L358.5,193.8L363.0,197.3L368.3,203.8L371.0,206.5L382.5,216.7L390.8,222.5L389.5,220.9L388.7,216.0L388.2,205.6L386.0,190.6L386.0,185.7L388.4,179.5L388.3,172.8L385.9,166.0L381.8,159.7L367.5,149.2L364.0,145.5L355.6,132.8L345.5,125.0L341.9,117.9L334.7,110.4L330.2,106.7L323.3,103.4L310.5,93.7L300.8,88.6L297.8,86.3L294.4,82.4L288.5,74.4L284.7,71.0L273.3,64.3L266.9,59.3L258.4,50.9L255.0,46.8L252.7,45.5L246.9,44.7L243.5,42.8L243.3,38.9L241.9,34.3L239.7,31.2L236.3,28.3L232.7,26.1L226.2,23.1L212.9,14.7L210.6,12.3L206.1,6.1L198.3,1.2L191.0,1.4L184.0,2.7L174.2,0.0L170.4,0.1L158.7,4.0L156.7,4.0L152.8,2.3L150.8,2.1L146.5,5.5L142.2,12.1L139.2,19.5L138.7,25.3L138.8,32.4L135.9,38.9L131.0,43.4L125.0,44.7L121.1,41.4L119.4,40.6L116.4,44.2L115.0,44.7L112.0,43.6L106.9,40.0L103.1,39.9L100.8,41.1L97.1,45.1L95.3,46.1L92.2,45.3L88.5,40.7L85.7,39.3L81.1,39.4L72.9,41.0L67.9,40.4L61.2,36.3L55.6,24.4L50.0,19.6L45.7,19.8L44.4,21.9L46.1,26.9L50.4,36.7L50.3,45.6L47.3,52.9L14.9,88.4L10.6,95.2L9.5,103.4L11.7,112.3L17.5,121.1L21.1,125.5L26.9,135.0L29.4,140.1L34.7,154.0L35.9,158.1Z " data-id="UY.AR" data-name="Artigas" id="UY.AR"/>
utf-8utf-8<path d="M381.6,770.4L379.4,766.4L378.1,760.9L375.9,756.2L371.9,751.9L357.7,738.9L349.6,729.7L338.2,725.6L331.6,724.0L324.0,723.6L320.3,722.1L317.6,719.9L311.6,708.7L306.4,705.4L294.9,702.8L288.4,702.0L278.3,703.4L276.1,702.9L267.5,698.4L256.8,689.4L255.5,696.7L254.6,698.8L244.1,716.3L242.0,718.4L226.3,742.5L224.8,746.1L225.6,749.7L227.9,752.7L236.8,759.6L240.7,769.4L242.0,771.5L245.9,775.6L249.1,785.2L256.6,793.2L261.9,796.5L267.5,797.9L270.7,800.9L270.9,802.3L270.0,808.1L271.3,830.6L272.5,835.1L283.0,848.8L286.9,855.5L288.0,858.9L290.8,864.5L292.7,870.3L295.2,874.7L299.4,879.3L301.4,881.9L309.7,882.3L338.3,887.7L342.9,886.8L347.3,885.0L350.7,882.8L356.9,873.1L360.8,869.6L373.3,866.3L377.3,864.6L380.8,862.2L387.4,855.9L393.6,857.3L416.4,867.9L418.4,866.0L419.7,864.3L421.2,857.3L418.4,835.9L416.4,831.5L411.9,825.0L408.2,820.6L390.1,780.7L386.0,774.7L381.6,770.4Z " data-id="UY.FS" data-name="Flores" id="UY.FS"/>
utf-8utf-8<path d="M347.6,379.3L345.1,381.5L342.9,387.0L338.1,393.3L337.2,395.0L336.2,400.6L332.1,403.3L325.7,403.8L311.4,399.6L297.4,398.2L286.6,392.0L282.8,391.2L274.7,391.1L272.1,390.5L267.9,387.9L261.1,386.2L258.8,386.2L242.8,389.8L240.6,389.9L236.4,388.9L227.4,385.7L219.2,389.5L213.1,389.0L196.5,387.0L194.1,386.4L186.1,380.9L183.8,379.8L167.7,375.3L163.0,373.2L158.3,369.4L153.0,362.8L146.1,360.2L140.6,360.0L135.8,359.4L121.4,351.7L106.4,344.6L77.0,338.3L71.2,333.6L67.4,325.6L63.9,322.2L49.9,315.0L44.5,313.0L41.0,312.7L34.1,314.5L32.8,319.6L29.7,319.8L23.1,318.6L20.3,319.4L16.9,321.3L22.5,325.2L28.7,331.7L31.9,341.9L31.8,351.9L26.3,387.0L24.8,390.3L20.5,392.2L11.7,394.0L7.8,395.9L5.1,398.2L0.9,404.2L0.4,408.9L3.6,413.5L10.9,420.4L14.0,427.6L16.4,437.3L17.7,447.6L17.2,456.4L14.2,463.4L13.9,468.1L16.9,472.9L33.2,490.6L36.4,497.2L36.6,504.2L27.6,522.0L24.6,532.1L23.2,534.6L24.6,540.3L26.7,545.3L32.1,544.3L41.8,543.7L48.2,546.5L55.3,553.4L62.0,557.1L65.1,560.8L67.0,564.7L69.6,566.6L76.7,567.6L80.9,568.8L83.0,570.1L85.5,570.6L102.6,572.3L106.9,573.1L109.6,571.7L111.4,569.2L111.2,564.6L112.8,560.5L145.3,555.4L148.7,551.5L150.5,544.7L152.7,542.7L161.0,536.6L162.5,535.2L167.9,534.6L176.8,535.9L181.7,535.1L190.4,532.1L194.9,533.9L198.7,534.7L202.1,534.2L205.2,532.9L216.2,523.8L219.8,522.4L232.0,522.2L237.1,520.2L240.2,517.5L245.1,516.2L248.1,517.0L259.4,521.9L266.2,525.6L271.0,526.7L275.3,527.0L279.5,526.7L284.1,525.6L293.9,527.1L296.4,527.3L301.9,526.6L305.3,527.0L316.4,530.3L318.6,531.5L330.7,540.4L333.7,542.2L340.4,545.5L345.3,514.5L347.6,509.5L352.4,504.2L358.7,499.0L364.1,492.9L368.7,486.1L369.4,482.1L370.6,456.7L371.1,454.0L373.2,447.7L373.7,443.0L372.7,431.7L371.0,422.0L371.1,419.7L373.1,416.8L377.9,414.8L378.2,413.7L376.5,409.3L370.9,403.5L369.3,400.3L368.2,394.9L367.7,390.0L364.9,384.2L357.3,376.6L347.6,379.3Z " data-id="UY.PA" data-name="Paysandú" id="UY.PA"/>
utf-8utf-8<path d="M333.7,542.2L330.7,540.4L318.6,531.5L316.4,530.3L305.3,527.0L301.9,526.6L296.4,527.3L293.9,527.1L284.1,525.6L279.5,526.7L275.3,527.0L271.0,526.7L266.2,525.6L259.4,521.9L248.1,517.0L245.1,516.2L240.2,517.5L237.1,520.2L232.0,522.2L219.8,522.4L216.2,523.8L205.2,532.9L202.1,534.2L198.7,534.7L194.9,533.9L190.4,532.1L181.7,535.1L176.8,535.9L167.9,534.6L162.5,535.2L161.0,536.6L152.7,542.7L150.5,544.7L148.7,551.5L145.3,555.4L112.8,560.5L111.2,564.6L111.4,569.2L109.6,571.7L106.9,573.1L102.6,572.3L85.5,570.6L83.0,570.1L80.9,568.8L76.7,567.6L69.6,566.6L67.0,564.7L65.1,560.8L62.0,557.1L55.3,553.4L48.2,546.5L41.8,543.7L32.1,544.3L26.7,545.3L31.6,557.5L33.8,561.1L36.6,564.3L41.6,580.2L44.3,586.1L43.2,587.8L45.3,591.8L46.6,597.0L48.1,607.3L49.3,612.1L51.1,616.2L53.7,620.0L63.6,628.8L68.5,634.3L71.4,641.1L71.6,650.3L70.4,658.9L70.2,663.0L70.9,668.3L70.3,672.2L67.9,676.3L61.9,683.1L55.5,686.6L47.4,687.3L29.4,686.2L22.0,689.1L20.4,696.5L22.4,706.1L29.2,726.0L29.9,731.2L28.8,735.8L23.1,742.6L20.9,746.3L20.4,750.5L22.5,755.0L27.1,758.4L43.4,747.5L51.3,734.0L54.4,731.7L63.5,731.7L69.2,732.7L71.1,731.7L71.3,727.8L69.8,719.1L70.0,716.8L71.6,714.8L77.4,711.3L80.0,712.7L83.8,715.8L87.1,717.7L88.3,715.7L88.4,711.9L84.0,705.5L82.7,704.2L81.7,698.8L78.8,694.3L78.6,692.7L80.3,691.0L83.2,690.2L89.1,691.9L92.4,692.3L96.5,691.3L97.0,689.3L96.0,686.6L96.1,683.1L97.6,681.2L103.1,679.7L105.7,678.5L111.4,671.4L114.7,670.4L118.2,671.0L124.1,674.2L127.3,675.3L137.8,674.2L141.0,676.3L147.0,677.7L154.9,680.7L158.5,679.9L159.6,678.1L160.6,673.2L161.7,672.1L172.4,667.1L176.3,666.2L180.7,666.9L189.9,671.3L191.9,672.7L194.2,679.9L195.6,682.1L197.8,683.1L199.9,682.5L203.4,679.5L209.6,678.7L217.9,681.3L221.6,683.1L224.4,685.9L228.2,694.9L230.9,694.1L233.4,690.7L234.9,687.7L237.1,693.8L238.6,696.3L241.0,697.3L243.1,696.9L251.0,693.1L255.3,690.1L256.8,689.4L256.6,688.1L254.3,681.2L254.3,678.5L249.8,676.8L248.1,677.7L246.1,677.5L244.5,676.2L244.1,673.7L244.9,672.7L248.2,672.2L254.3,665.9L257.3,663.7L260.5,662.8L264.2,663.5L272.6,666.9L276.5,667.6L280.9,667.6L283.1,667.1L282.9,665.5L279.5,662.1L278.8,659.9L281.8,659.1L288.6,658.2L286.9,653.5L288.8,651.9L290.8,651.9L299.0,657.8L300.9,658.4L301.3,655.8L299.1,649.3L299.8,647.2L302.9,646.3L306.6,646.9L308.9,646.1L307.9,641.0L309.2,636.0L312.7,631.7L315.8,630.2L321.5,630.0L324.9,628.3L326.6,625.5L329.9,624.3L333.8,625.5L334.2,618.7L336.4,611.9L336.9,604.2L335.2,596.9L335.1,592.6L336.5,589.2L339.5,584.7L341.3,555.9L340.4,545.5L333.7,542.2Z " data-id="UY.RN" data-name="Río Negro" id="UY.RN"/>
utf-8</g>
</svg>
