<?xml version="1.0" ?>
<!DOCTYPE svg
  PUBLIC '-//W3C//DTD SVG 1.1//EN'
  'http://www.w3.org/Graphics/SVG/1.1/DTD/svg11.dtd'>
<svg enable_background="new 0 0 1000 2635" height="2635px" pretty_print="True" style="stroke-linejoin: round; stroke:#000; fill: none;" version="1.1" viewBox="0 0 1000 2635" width="1000px" xmlns="http://www.w3.org/2000/svg" xmlns:xlink="http://www.w3.org/1999/xlink">
utf-8<defs>
utf-8utf-8<style type="text/css">
<![CDATA[path { fill-rule: evenodd; }]]>utf-8utf-8</style>
utf-8</defs>
utf-8<metadata>
utf-8utf-8<views>
utf-8utf-8utf-8<view h="2635.13885645" padding="0" w="1000">
utf-8utf-8utf-8utf-8<proj flip="auto" id="robinson" lon0="-61.1477253037"/>
utf-8utf-8utf-8utf-8<bbox h="6.81" w="2.58" x="-900.86" y="-224.37"/>
utf-8utf-8utf-8</view>
utf-8utf-8</views>
utf-8</metadata>
utf-8<g class="" id="provinces">
utf-8utf-8<path d="M972.2,867.8L999.8,470.3L962.0,181.6L932.3,86.8L912.4,43.3L872.6,25.9L760.0,5.3L751.2,139.4L805.5,165.0L803.9,250.0L754.9,258.5L728.8,377.6L726.9,466.9L727.7,573.2L712.6,696.5L692.4,781.5L618.9,764.5L572.3,853.8L546.0,917.6L531.9,1023.9L571.4,1064.2L598.5,1091.9L669.3,1151.4L737.2,1138.7L821.9,1155.7L889.2,1186.4L972.2,867.8Z " data-id="VC.CH" data-name="Charlotte" id="VC.CH"/>
utf-8utf-8<path d="M192.6,2633.1L237.9,2584.8L195.6,2584.8L290.8,2514.1L405.7,2318.8L492.5,2230.7L469.8,2208.8L463.3,2186.3L462.2,2162.8L455.6,2137.8L385.7,2198.5L220.5,2312.5L170.2,2363.7L185.5,2396.9L220.3,2444.7L216.9,2497.0L86.0,2525.7L3.1,2496.2L0.2,2544.5L66.2,2542.9L123.1,2555.8L166.4,2585.6L192.6,2633.1Z " data-id="VC.GT" data-name="Grenadines" id="VC.GT"/>
utf-8utf-8<path d="M531.9,1023.9L546.0,917.6L470.6,930.3L424.6,951.6L312.3,1079.1L191.0,1172.7L112.5,1260.0L293.4,1410.1L395.5,1300.3L532.0,1142.9L571.4,1064.2L531.9,1023.9Z " data-id="VC.AN" data-name="Saint Andrew" id="VC.AN"/>
utf-8utf-8<path d="M161.5,745.0L263.8,781.5L387.3,813.6L466.6,756.0L549.7,679.5L618.9,764.5L692.4,781.5L712.6,696.5L727.7,573.2L726.9,466.9L728.8,377.6L754.9,258.5L803.9,250.0L805.5,165.0L751.2,139.4L760.0,5.3L731.3,0.0L670.1,2.1L600.4,24.3L523.8,77.1L440.8,227.0L389.9,413.8L315.1,560.3L160.0,588.0L183.5,652.2L196.8,676.7L161.5,745.0Z " data-id="VC.DA" data-name="Saint David" id="VC.DA"/>
utf-8utf-8<path d="M571.4,1064.2L532.0,1142.9L395.5,1300.3L293.4,1410.1L443.2,1534.4L580.6,1610.2L687.6,1522.3L870.7,1257.3L889.2,1186.4L821.9,1155.7L737.2,1138.7L669.3,1151.4L598.5,1091.9L571.4,1064.2Z " data-id="VC.GE" data-name="Saint George" id="VC.GE"/>
utf-8utf-8<path d="M549.7,679.5L466.6,756.0L387.3,813.6L263.8,781.5L161.5,745.0L107.8,848.8L78.8,1069.4L112.5,1260.0L191.0,1172.7L312.3,1079.1L424.6,951.6L470.6,930.3L546.0,917.6L572.3,853.8L618.9,764.5L549.7,679.5Z " data-id="VC.PA" data-name="Saint Patrick" id="VC.PA"/>
utf-8</g>
</svg>
