<?xml version="1.0" ?>
<!DOCTYPE svg
  PUBLIC '-//W3C//DTD SVG 1.1//EN'
  'http://www.w3.org/Graphics/SVG/1.1/DTD/svg11.dtd'>
<svg enable_background="new 0 0 1000 970" height="970px" pretty_print="True" style="stroke-linejoin: round; stroke:#000; fill: none;" version="1.1" viewBox="0 0 1000 970" width="1000px" xmlns="http://www.w3.org/2000/svg" xmlns:xlink="http://www.w3.org/1999/xlink">
utf-8<defs>
utf-8utf-8<style type="text/css">
<![CDATA[path { fill-rule: evenodd; }]]>utf-8utf-8</style>
utf-8</defs>
utf-8<metadata>
utf-8utf-8<views>
utf-8utf-8utf-8<view h="970.659010072" padding="0" w="1000">
utf-8utf-8utf-8utf-8<proj flip="auto" id="robinson" lon0="-69.5252491869"/>
utf-8utf-8utf-8utf-8<bbox h="193.67" w="199.73" x="-1082.83" y="-204.56"/>
utf-8utf-8utf-8</view>
utf-8utf-8</views>
utf-8</metadata>
utf-8<g class="" id="provinces">
utf-8utf-8<path d="M164.2,101.3L166.5,108.2L169.7,111.3L177.4,120.1L178.1,122.2L177.3,125.3L177.3,130.9L180.2,135.0L181.2,140.2L185.6,145.8L197.0,145.8L201.1,149.6L201.3,155.5L201.9,156.6L205.4,158.3L207.0,158.9L207.5,158.1L212.1,154.9L216.3,154.0L221.5,145.5L225.8,143.8L229.0,140.1L234.1,137.0L238.4,137.6L248.8,129.6L252.3,130.5L260.1,126.4L266.5,126.2L270.4,123.2L271.3,123.2L270.5,125.6L272.0,125.7L278.9,122.9L282.4,120.3L287.7,121.7L291.6,122.2L293.2,123.8L299.7,124.7L310.1,125.7L321.6,127.3L324.7,127.3L329.7,126.2L336.6,125.9L338.4,127.2L339.3,129.1L343.7,127.6L347.6,123.2L355.7,122.7L360.9,124.0L361.0,127.5L366.2,130.9L384.2,131.2L384.2,131.2L383.4,129.2L381.5,121.9L380.8,116.8L382.5,112.5L385.8,112.5L388.0,110.2L386.3,108.7L380.4,108.1L378.0,107.3L382.3,105.9L384.5,107.9L385.2,106.8L384.6,104.5L380.7,94.5L378.1,89.8L377.5,87.6L378.1,86.0L376.2,85.5L371.4,83.2L369.1,79.6L362.2,75.1L356.9,70.6L352.3,69.2L344.7,62.6L333.1,63.1L330.0,62.5L326.8,59.3L325.9,59.5L313.6,55.8L307.1,59.1L304.2,59.0L298.0,57.9L295.3,58.7L291.3,61.7L288.7,61.3L285.8,58.8L283.5,55.2L280.5,47.5L276.8,33.2L276.5,29.6L276.9,22.3L276.7,18.8L276.0,15.4L270.1,3.3L268.8,2.0L261.8,0.4L260.0,1.5L255.1,5.9L249.2,7.3L247.5,13.2L245.1,16.1L242.6,21.7L242.3,30.9L244.8,36.6L246.2,34.4L247.4,36.6L247.2,38.9L246.2,39.5L246.0,41.7L244.8,45.8L244.9,47.9L246.1,49.5L248.0,50.0L251.6,48.1L256.4,47.6L260.0,45.9L262.2,45.8L266.1,44.1L265.7,45.5L270.9,44.1L273.2,42.4L277.3,46.4L279.1,53.8L278.7,55.5L280.1,58.3L274.5,64.9L272.3,64.0L269.0,60.4L268.6,59.0L264.4,57.7L259.5,57.4L252.4,53.7L249.6,52.9L257.2,58.1L257.0,59.2L258.2,63.6L255.1,62.2L253.5,64.5L251.6,61.8L249.7,61.9L250.1,64.6L247.3,69.0L243.4,71.1L239.3,70.6L236.5,72.6L230.6,75.6L222.1,79.3L213.5,80.5L211.0,80.5L209.4,79.7L207.3,80.7L195.6,84.1L180.9,93.0L172.2,97.7L164.2,101.3Z " data-id="VE.FA" data-name="Falcón" id="VE.FA"/>
utf-8utf-8<path d="M427.5,355.3L423.6,352.4L414.8,350.7L407.8,350.3L404.4,349.2L402.7,349.9L397.7,347.6L390.3,348.1L386.2,350.1L383.9,350.7L381.5,352.7L378.9,353.3L375.0,355.8L372.1,354.7L368.8,355.0L366.4,352.9L362.6,353.9L359.9,356.6L356.3,357.1L347.2,354.7L346.0,355.0L340.0,359.2L333.0,360.3L328.4,359.6L324.1,357.5L322.5,352.2L320.5,352.7L314.7,352.7L312.0,351.6L309.1,348.2L306.6,346.2L304.8,345.8L296.0,347.0L286.3,347.3L277.5,356.3L265.6,365.2L258.8,367.6L255.9,367.9L250.4,372.5L244.6,372.8L239.0,376.4L237.7,378.1L235.3,383.2L230.3,385.5L227.9,384.3L223.7,385.4L222.9,386.5L221.1,392.7L219.5,395.7L217.4,398.2L214.6,399.9L210.5,400.5L209.9,403.1L207.4,403.8L206.8,405.0L203.7,408.0L199.6,408.5L197.5,411.3L194.8,411.9L191.4,411.7L188.0,410.9L185.4,409.6L179.5,411.9L175.4,409.8L174.2,410.2L171.7,407.6L165.9,404.3L162.9,403.3L159.8,403.6L159.0,402.6L152.3,397.9L150.9,398.7L145.6,397.4L140.0,397.5L135.9,397.2L131.3,399.1L129.9,398.2L124.1,399.0L123.4,399.8L117.8,398.9L115.5,395.9L109.6,394.1L108.7,394.5L108.8,394.9L106.0,400.7L99.0,404.6L95.7,405.6L89.6,403.2L86.6,401.5L84.4,398.8L82.9,398.3L72.1,399.0L67.4,401.9L69.3,402.6L72.8,403.3L78.9,403.2L81.4,404.0L84.3,408.4L83.5,411.9L83.9,417.5L84.6,419.9L88.4,428.8L89.6,430.4L93.3,432.8L95.0,434.4L104.1,437.2L107.7,437.2L112.1,433.6L117.8,433.1L119.9,433.7L121.1,431.6L123.6,431.7L125.4,433.5L127.5,432.7L138.8,433.4L143.5,434.4L148.4,434.4L148.8,437.3L153.4,437.9L155.5,439.2L159.2,436.7L164.4,437.3L168.4,436.8L172.1,435.2L175.4,432.7L177.2,430.3L181.6,429.2L184.8,428.9L189.3,427.7L191.5,427.6L193.7,429.2L201.2,429.4L204.7,434.7L205.4,435.2L219.4,441.2L221.7,441.3L226.0,438.7L233.5,438.3L235.8,440.7L281.7,509.6L284.5,509.0L288.1,507.2L290.1,506.8L291.5,507.6L294.6,511.7L296.2,513.1L300.5,510.5L305.0,505.6L308.8,502.3L310.2,501.6L316.3,503.3L317.6,502.9L322.6,504.4L327.3,504.1L339.7,508.3L341.5,508.5L345.3,505.6L349.9,505.4L355.4,503.5L363.4,505.1L366.1,505.1L374.6,501.6L377.9,501.1L387.3,502.1L390.3,501.6L395.0,499.6L395.9,496.8L399.4,495.7L400.8,494.1L408.8,494.5L420.3,497.6L426.3,503.0L429.2,503.3L432.2,499.7L436.4,499.5L441.0,492.8L446.7,486.3L452.0,482.8L453.7,480.0L452.5,475.6L454.3,466.4L456.4,461.1L460.5,456.6L461.1,454.3L460.8,449.3L459.9,448.5L462.1,443.3L461.9,441.5L460.0,437.7L458.9,434.1L458.4,430.5L459.7,428.2L465.7,422.9L468.8,422.4L476.7,417.9L480.8,414.3L486.3,413.0L488.5,410.8L495.8,407.5L500.6,400.2L502.2,396.3L504.1,394.6L507.0,389.7L508.0,387.3L513.3,382.4L515.3,381.6L516.3,381.6L516.3,381.6L516.5,377.0L505.8,372.2L506.4,371.3L502.9,367.9L501.4,367.7L495.2,370.5L492.2,370.4L484.6,372.7L481.8,371.8L472.3,370.9L470.9,369.9L466.1,371.5L463.1,369.1L458.7,371.1L450.6,369.1L447.7,366.5L438.5,359.6L435.7,360.2L430.4,359.1L428.0,359.1L428.3,357.0L427.7,355.6L427.5,355.3Z " data-id="VE.AP" data-name="Apure" id="VE.AP"/>
utf-8utf-8<path d="M234.3,267.5L230.2,266.3L224.4,267.0L217.4,266.6L213.5,268.3L211.3,271.1L210.5,272.0L208.8,274.5L207.7,279.2L205.6,280.8L198.7,283.1L196.5,287.1L192.5,286.6L188.1,290.4L182.7,298.1L178.0,301.2L176.6,305.5L176.8,306.3L175.0,310.9L173.0,312.3L170.7,317.5L168.7,319.4L168.4,324.7L171.2,328.8L172.4,334.8L169.5,339.9L168.5,342.9L166.1,346.5L160.1,352.3L156.4,355.0L154.5,357.7L150.8,360.4L140.1,368.7L137.6,371.5L138.0,376.1L136.9,378.2L135.8,378.6L135.7,380.2L137.5,385.7L146.1,395.0L144.2,395.3L136.4,392.8L133.8,393.0L130.2,392.0L124.8,391.2L119.9,390.0L115.1,390.2L108.5,394.1L108.7,394.5L109.6,394.1L115.5,395.9L117.8,398.9L123.4,399.8L124.1,399.0L129.9,398.2L131.3,399.1L135.9,397.2L140.0,397.5L145.6,397.4L150.9,398.7L152.3,397.9L159.0,402.6L159.8,403.6L162.9,403.3L165.9,404.3L171.7,407.6L174.2,410.2L175.4,409.8L179.5,411.9L185.4,409.6L188.0,410.9L191.4,411.7L194.8,411.9L197.5,411.3L199.6,408.5L203.7,408.0L206.8,405.0L207.4,403.8L209.9,403.1L210.5,400.5L214.6,399.9L217.4,398.2L219.5,395.7L221.1,392.7L222.9,386.5L223.7,385.4L227.9,384.3L230.3,385.5L235.3,383.2L237.7,378.1L239.0,376.4L244.6,372.8L250.4,372.5L255.9,367.9L258.8,367.6L265.6,365.2L277.5,356.3L286.3,347.3L296.0,347.0L304.8,345.8L306.6,346.2L309.1,348.2L312.0,351.6L314.7,352.7L320.5,352.7L322.5,352.2L324.1,357.5L328.4,359.6L333.0,360.3L340.0,359.2L346.0,355.0L347.2,354.7L356.3,357.1L359.9,356.6L362.6,353.9L366.4,352.9L368.8,355.0L372.1,354.7L375.0,355.8L378.9,353.3L381.5,352.7L383.9,350.7L386.2,350.1L390.3,348.1L397.7,347.6L402.7,349.9L404.4,349.2L407.8,350.3L414.8,350.7L423.6,352.4L427.5,355.3L427.7,355.6L428.6,355.2L428.6,352.7L426.4,352.6L425.7,349.9L425.8,345.2L423.3,343.9L419.4,338.1L418.7,334.6L411.8,331.8L411.8,328.8L408.6,328.0L408.4,325.7L405.4,324.6L406.4,321.4L404.6,321.2L395.5,309.8L393.3,307.0L392.7,306.7L391.5,303.9L385.5,301.4L378.7,301.9L372.2,301.7L367.1,300.3L365.7,301.4L362.8,300.7L359.2,300.8L354.0,298.9L354.0,300.0L352.4,307.2L351.3,310.2L347.3,316.7L345.4,319.2L341.3,321.6L337.5,324.3L334.9,330.5L333.6,335.3L334.4,340.0L332.8,342.6L330.7,342.5L329.0,339.4L325.6,337.4L323.2,334.0L319.3,329.8L316.0,327.9L312.1,322.7L311.3,320.4L312.2,315.5L309.8,315.1L309.1,310.2L302.5,301.7L301.4,298.6L299.1,297.7L290.8,296.7L283.1,293.2L280.6,290.6L278.5,289.5L277.1,286.9L272.4,290.8L270.8,291.4L266.0,289.2L264.2,289.5L256.1,285.9L249.2,281.1L246.6,277.4L237.3,269.0L236.7,267.6L234.3,267.5Z " data-id="VE.BA" data-name="Barinas" id="VE.BA"/>
utf-8utf-8<path d="M209.9,270.8L208.1,265.3L205.2,265.8L202.6,268.3L198.7,269.5L195.2,263.0L193.0,262.7L190.0,259.4L187.5,257.5L183.6,242.9L179.6,238.8L176.6,238.5L173.3,239.9L173.0,240.9L168.8,243.6L166.9,243.9L162.0,248.8L160.9,252.6L165.9,257.6L166.2,258.8L165.4,265.5L162.4,268.9L159.8,264.2L158.6,264.4L150.7,271.1L130.3,287.4L125.5,291.9L122.8,295.8L121.6,300.0L117.5,299.5L115.2,300.2L115.5,296.6L111.8,296.1L109.0,298.6L105.6,300.1L105.0,300.9L113.9,302.6L115.5,304.7L115.5,307.2L117.4,311.8L117.2,312.8L112.7,319.0L113.9,323.7L113.2,326.1L109.9,330.1L107.1,335.1L107.3,337.8L111.8,337.5L114.3,339.4L120.8,348.2L122.0,347.1L129.3,347.4L135.1,351.7L135.5,354.7L134.0,356.9L134.7,361.8L134.6,366.4L132.4,372.4L135.3,376.3L135.8,378.6L136.9,378.2L138.0,376.1L137.6,371.5L140.1,368.7L150.8,360.4L154.5,357.7L156.4,355.0L160.1,352.3L166.1,346.5L168.5,342.9L169.5,339.9L172.4,334.8L171.2,328.8L168.4,324.7L168.7,319.4L170.7,317.5L173.0,312.3L175.0,310.9L176.8,306.3L176.6,305.5L178.0,301.2L182.7,298.1L188.1,290.4L192.5,286.6L196.5,287.1L198.7,283.1L205.6,280.8L207.7,279.2L208.8,274.5L210.5,272.0L209.9,270.8Z " data-id="VE.ME" data-name="Mérida" id="VE.ME"/>
utf-8utf-8<path d="M135.3,376.3L132.4,372.4L134.6,366.4L134.7,361.8L134.0,356.9L135.5,354.7L135.1,351.7L129.3,347.4L122.0,347.1L120.8,348.2L114.3,339.4L111.8,337.5L107.3,337.8L107.1,335.1L109.9,330.1L113.2,326.1L113.9,323.7L112.7,319.0L117.2,312.8L117.4,311.8L115.5,307.2L115.5,304.7L113.9,302.6L105.0,300.9L101.1,307.5L98.0,310.8L93.7,312.1L91.9,313.3L87.1,315.0L83.5,318.5L82.2,318.2L82.5,316.1L82.0,308.6L79.9,306.7L77.4,308.3L74.9,311.3L74.3,314.1L71.6,315.6L69.4,320.1L69.5,320.1L71.4,323.8L71.5,325.2L70.4,330.6L70.7,332.5L73.0,337.7L74.3,343.4L74.3,346.7L73.0,348.6L68.8,348.5L66.0,354.1L62.2,357.4L64.5,361.1L64.7,362.5L62.8,372.8L61.8,381.6L63.0,388.2L61.4,393.4L61.6,395.4L63.4,399.1L66.1,401.3L67.4,401.9L72.1,399.0L82.9,398.3L84.4,398.8L86.6,401.5L89.6,403.2L95.7,405.6L99.0,404.6L106.0,400.7L108.8,394.9L108.7,394.5L108.5,394.1L115.1,390.2L119.9,390.0L124.8,391.2L130.2,392.0L133.8,393.0L136.4,392.8L144.2,395.3L146.1,395.0L137.5,385.7L135.7,380.2L135.8,378.6L135.3,376.3Z " data-id="VE.TA" data-name="Táchira" id="VE.TA"/>
utf-8utf-8<path d="M247.7,227.4L243.6,223.0L242.6,218.1L243.9,215.0L248.1,212.3L251.9,210.4L251.3,208.8L245.1,202.9L242.4,202.8L240.9,201.9L239.3,199.0L237.5,197.3L235.2,198.9L233.0,195.0L229.4,194.0L227.9,190.6L224.1,191.0L215.8,190.4L212.7,185.3L212.5,181.9L211.6,181.4L208.3,182.5L205.2,188.1L205.0,192.4L206.6,197.8L206.0,201.9L201.8,205.7L198.5,204.7L196.8,208.2L190.4,217.3L186.8,218.1L182.4,217.8L180.4,216.7L177.9,217.2L174.2,216.5L173.8,217.8L171.9,221.7L172.6,233.1L173.6,237.8L173.5,239.4L173.3,239.9L176.6,238.5L179.6,238.8L183.6,242.9L187.5,257.5L190.0,259.4L193.0,262.7L195.2,263.0L198.7,269.5L202.6,268.3L205.2,265.8L208.1,265.3L209.9,270.8L210.5,272.0L211.3,271.1L213.5,268.3L217.4,266.6L224.4,267.0L230.2,266.3L234.3,267.5L236.7,267.6L237.8,267.1L241.0,266.6L246.0,256.2L246.6,248.4L246.3,247.1L245.0,248.0L241.0,247.1L245.1,240.1L247.5,237.0L249.4,232.2L247.7,227.4Z " data-id="VE.TR" data-name="Trujillo" id="VE.TR"/>
utf-8utf-8<path d="M164.2,101.3L160.2,102.2L154.1,102.2L151.1,102.7L147.9,103.9L150.1,106.1L152.4,107.4L154.3,107.3L151.0,111.3L152.1,115.7L151.2,117.6L146.6,116.3L141.2,116.6L144.2,120.6L144.9,122.3L144.2,127.7L146.1,131.5L143.1,137.0L144.1,138.7L148.5,143.4L147.3,149.9L150.8,155.6L151.3,158.1L154.6,166.0L161.4,171.7L162.8,174.8L163.9,178.5L165.1,186.0L166.8,185.7L168.3,186.9L174.5,196.3L173.1,198.1L173.3,200.2L176.3,204.5L176.7,206.2L175.4,211.9L174.2,216.5L177.9,217.2L180.4,216.7L182.4,217.8L186.8,218.1L190.4,217.3L196.8,208.2L198.5,204.7L201.8,205.7L206.0,201.9L206.6,197.8L205.0,192.4L203.6,192.2L194.6,185.8L191.3,180.8L191.2,178.5L192.1,176.0L193.9,174.2L201.5,169.2L203.6,166.1L206.5,159.5L207.0,158.9L205.4,158.3L201.9,156.6L201.3,155.5L201.1,149.6L197.0,145.8L185.6,145.8L181.2,140.2L180.2,135.0L177.3,130.9L177.3,125.3L178.1,122.2L177.4,120.1L169.7,111.3L166.5,108.2L164.2,101.3L164.2,101.3Z M69.4,320.1L71.6,315.6L74.3,314.1L74.9,311.3L77.4,308.3L79.9,306.7L82.0,308.6L82.5,316.1L82.2,318.2L83.5,318.5L87.1,315.0L91.9,313.3L93.7,312.1L98.0,310.8L101.1,307.5L105.0,300.9L105.6,300.1L109.0,298.6L111.8,296.1L115.5,296.6L115.2,300.2L117.5,299.5L121.6,300.0L122.8,295.8L125.5,291.9L130.3,287.4L150.7,271.1L158.6,264.4L159.8,264.2L162.4,268.9L165.4,265.5L166.2,258.8L165.9,257.6L160.9,252.6L160.7,253.3L159.1,255.2L156.6,257.0L149.2,260.5L138.5,264.2L135.3,264.8L125.9,263.1L120.6,257.3L122.7,254.4L122.9,251.0L119.3,248.1L117.0,248.7L121.5,244.5L122.2,245.2L123.8,238.5L123.6,236.0L121.6,237.7L118.3,233.9L116.5,232.6L112.2,232.6L111.0,236.0L110.5,233.7L111.6,231.8L115.2,230.6L113.1,229.5L109.2,226.3L104.7,229.8L103.5,224.6L106.9,226.5L107.5,224.9L105.3,220.5L104.2,220.0L105.9,217.1L107.3,222.1L108.6,222.9L105.3,213.4L103.7,210.8L99.0,205.0L96.7,199.0L98.0,196.5L103.1,190.3L104.9,185.6L106.8,182.3L107.6,178.8L110.7,174.5L113.7,173.6L119.8,164.8L124.5,155.8L128.4,151.6L136.1,145.5L136.3,140.9L138.4,135.6L138.1,134.3L141.2,123.9L138.2,122.1L136.0,119.8L132.1,110.7L131.6,107.3L132.1,104.1L128.5,99.3L131.1,97.7L134.9,99.2L134.9,101.6L139.0,100.5L137.1,97.1L128.8,91.6L127.0,89.5L123.0,82.4L117.7,68.6L116.1,57.7L116.3,54.0L117.3,51.0L121.8,48.4L124.7,47.9L138.8,43.1L151.3,41.0L154.3,40.0L158.6,37.6L161.0,36.9L161.7,34.9L164.3,34.4L165.2,29.3L163.0,29.2L159.0,32.4L156.0,33.8L123.2,43.2L115.4,46.1L114.0,48.2L95.8,81.9L92.5,87.6L91.1,87.9L85.5,87.3L81.3,89.0L75.2,90.4L73.8,94.5L68.7,104.1L62.4,110.2L60.3,112.7L58.4,116.4L54.2,127.8L52.0,131.5L47.1,137.4L45.5,141.8L41.8,146.5L41.0,151.4L38.5,169.7L33.8,184.5L32.7,192.7L33.9,198.0L30.6,205.5L26.2,212.6L21.9,221.2L17.7,224.4L16.1,228.1L9.7,237.9L6.8,245.1L1.6,250.3L0.5,253.8L10.6,254.2L13.7,253.7L16.5,252.3L19.1,249.6L24.1,247.0L27.5,243.6L29.6,244.1L31.2,252.2L30.9,255.7L32.4,259.6L39.4,256.8L42.0,256.4L44.9,259.7L43.8,261.6L45.2,264.8L51.3,297.5L52.6,300.3L66.5,318.3L68.8,319.6L69.4,320.1Z " data-id="VE.ZU" data-name="Zulia" id="VE.ZU"/>
utf-8utf-8<path d="M413.4,199.1L405.7,199.3L402.6,198.5L401.0,195.8L401.0,193.8L396.2,196.5L390.7,191.4L385.5,187.5L383.1,182.6L386.8,179.1L383.7,174.0L379.6,178.6L376.7,184.2L374.3,185.3L371.6,186.9L362.1,193.1L362.4,190.9L358.7,188.8L358.2,187.1L358.9,184.9L358.2,183.6L355.8,183.5L349.3,187.3L342.2,187.7L340.4,192.5L337.7,196.7L335.8,196.9L329.0,196.4L328.5,200.8L328.4,201.8L328.4,202.6L328.4,202.7L328.4,203.8L327.6,207.7L328.5,208.7L330.2,214.0L330.7,217.1L333.3,226.6L334.1,227.2L335.0,231.4L338.7,233.1L346.0,240.8L351.4,245.0L353.5,247.9L353.6,253.3L351.3,265.7L349.4,272.9L350.4,276.9L353.5,279.4L353.6,281.2L348.0,284.7L345.4,284.5L341.6,286.0L344.5,287.2L346.1,290.5L349.8,296.0L354.0,298.9L359.2,300.8L362.8,300.7L365.7,301.4L367.1,300.3L372.2,301.7L378.7,301.9L385.5,301.4L391.5,303.9L392.7,306.7L393.3,307.0L394.2,307.5L395.8,306.3L395.5,302.7L396.5,297.7L395.7,290.4L397.6,282.4L398.9,280.7L400.1,275.4L404.7,271.0L407.0,267.0L408.8,261.1L407.9,253.0L405.5,246.3L403.3,242.7L403.4,240.9L405.4,234.1L405.4,229.1L402.4,222.8L406.3,216.6L408.2,215.1L413.8,214.3L416.5,211.5L418.3,211.0L418.3,208.8L416.4,201.3L416.5,198.9L413.4,199.1Z " data-id="VE.CO" data-name="Cojedes" id="VE.CO"/>
utf-8utf-8<path d="M413.3,145.1L410.4,144.4L408.0,145.3L403.3,143.5L394.2,143.5L391.2,142.2L388.5,139.4L386.3,135.9L385.7,134.5L380.5,139.1L379.3,138.2L376.7,139.0L375.1,143.0L374.1,154.4L376.1,162.5L371.2,169.9L371.6,176.2L371.3,177.7L372.9,183.8L374.3,185.3L376.7,184.2L379.6,178.6L383.7,174.0L386.8,179.1L383.1,182.6L385.5,187.5L390.7,191.4L396.2,196.5L401.0,193.8L401.0,195.8L402.6,198.5L405.7,199.3L413.4,199.1L416.5,198.9L415.7,196.8L415.0,191.3L418.1,190.4L421.3,193.8L427.0,196.2L428.3,195.4L430.4,196.3L433.3,191.4L436.3,191.2L435.8,188.5L434.6,184.9L432.1,184.2L426.7,181.7L424.8,182.6L427.6,175.2L427.0,164.7L428.5,160.0L427.2,157.2L420.1,155.8L417.1,157.6L413.5,154.5L412.6,152.6L413.3,145.7L413.3,145.1Z " data-id="VE.CA" data-name="Carabobo" id="VE.CA"/>
utf-8utf-8<path d="M338.4,127.2L336.6,125.9L329.7,126.2L324.7,127.3L321.6,127.3L310.1,125.7L299.7,124.7L293.2,123.8L291.6,122.2L287.7,121.7L282.4,120.3L278.9,122.9L272.0,125.7L270.5,125.6L271.3,123.2L270.4,123.2L266.5,126.2L260.1,126.4L252.3,130.5L248.8,129.6L238.4,137.6L234.1,137.0L229.0,140.1L225.8,143.8L221.5,145.5L216.3,154.0L212.1,154.9L207.5,158.1L207.0,158.9L206.5,159.5L203.6,166.1L201.5,169.2L193.9,174.2L192.1,176.0L191.2,178.5L191.3,180.8L194.6,185.8L203.6,192.2L205.0,192.4L205.2,188.1L208.3,182.5L211.6,181.4L212.5,181.9L212.7,185.3L215.8,190.4L224.1,191.0L227.9,190.6L229.4,194.0L233.0,195.0L235.2,198.9L237.5,197.3L239.3,199.0L240.9,201.9L242.4,202.8L245.1,202.9L251.3,208.8L251.9,210.4L248.1,212.3L243.9,215.0L242.6,218.1L243.6,223.0L247.7,227.4L249.4,232.2L250.1,231.5L251.6,226.6L256.5,220.9L258.1,220.3L260.2,222.0L264.1,220.7L267.7,223.1L265.0,226.0L262.3,229.6L261.2,232.0L262.7,233.7L269.2,233.3L271.5,232.0L273.3,235.1L278.0,233.5L279.4,231.5L279.3,228.7L280.4,225.9L280.2,222.7L280.9,218.5L282.7,216.4L294.6,215.4L298.6,213.1L302.1,203.8L304.1,201.8L305.7,198.5L307.2,197.5L307.7,203.6L307.1,205.9L309.0,209.3L311.0,210.5L313.8,210.7L317.4,210.2L323.6,206.3L325.5,205.6L328.4,202.7L328.4,202.7L328.4,202.6L328.4,201.8L328.5,200.8L329.0,196.4L330.2,193.7L333.2,190.2L331.4,185.9L329.5,183.6L323.8,186.7L322.3,189.3L321.6,194.0L319.4,193.3L317.3,189.5L317.2,183.3L311.1,173.5L312.5,170.0L316.2,173.8L318.4,171.4L320.1,167.4L323.3,165.2L327.9,163.6L328.2,159.7L327.1,153.6L327.8,149.5L324.7,148.8L327.9,139.3L328.9,137.9L332.1,138.0L337.8,134.3L339.3,130.2L339.3,129.1L338.4,127.2Z " data-id="VE.LA" data-name="Lara" id="VE.LA"/>
utf-8utf-8<path d="M328.4,202.7L325.5,205.6L323.6,206.3L317.4,210.2L313.8,210.7L311.0,210.5L309.0,209.3L307.1,205.9L307.7,203.6L307.2,197.5L305.7,198.5L304.1,201.8L302.1,203.8L298.6,213.1L294.6,215.4L282.7,216.4L280.9,218.5L280.2,222.7L280.4,225.9L279.3,228.7L279.4,231.5L278.0,233.5L273.3,235.1L271.5,232.0L269.2,233.3L262.7,233.7L261.2,232.0L262.3,229.6L265.0,226.0L267.7,223.1L264.1,220.7L260.2,222.0L258.1,220.3L256.5,220.9L251.6,226.6L250.1,231.5L249.4,232.2L247.5,237.0L245.1,240.1L241.0,247.1L245.0,248.0L246.3,247.1L246.6,248.4L246.0,256.2L241.0,266.6L237.8,267.1L236.7,267.6L237.3,269.0L246.6,277.4L249.2,281.1L256.1,285.9L264.2,289.5L266.0,289.2L270.8,291.4L272.4,290.8L277.1,286.9L278.5,289.5L280.6,290.6L283.1,293.2L290.8,296.7L299.1,297.7L301.4,298.6L302.5,301.7L309.1,310.2L309.8,315.1L312.2,315.5L311.3,320.4L312.1,322.7L316.0,327.9L319.3,329.8L323.2,334.0L325.6,337.4L329.0,339.4L330.7,342.5L332.8,342.6L334.4,340.0L333.6,335.3L334.9,330.5L337.5,324.3L341.3,321.6L345.4,319.2L347.3,316.7L351.3,310.2L352.4,307.2L354.0,300.0L354.0,298.9L349.8,296.0L346.1,290.5L344.5,287.2L341.6,286.0L345.4,284.5L348.0,284.7L353.6,281.2L353.5,279.4L350.4,276.9L349.4,272.9L351.3,265.7L353.6,253.3L353.5,247.9L351.4,245.0L346.0,240.8L338.7,233.1L335.0,231.4L334.1,227.2L333.3,226.6L330.7,217.1L330.2,214.0L328.5,208.7L327.6,207.7L328.4,203.8L328.4,202.7L328.4,202.7Z " data-id="VE.PO" data-name="Portuguesa" id="VE.PO"/>
utf-8utf-8<path d="M339.3,129.1L339.3,130.2L337.8,134.3L332.1,138.0L328.9,137.9L327.9,139.3L324.7,148.8L327.8,149.5L327.1,153.6L328.2,159.7L327.9,163.6L323.3,165.2L320.1,167.4L318.4,171.4L316.2,173.8L312.5,170.0L311.1,173.5L317.2,183.3L317.3,189.5L319.4,193.3L321.6,194.0L322.3,189.3L323.8,186.7L329.5,183.6L331.4,185.9L333.2,190.2L330.2,193.7L329.0,196.4L335.8,196.9L337.7,196.7L340.4,192.5L342.2,187.7L349.3,187.3L355.8,183.5L358.2,183.6L358.9,184.9L358.2,187.1L358.7,188.8L362.4,190.9L362.1,193.1L371.6,186.9L374.3,185.3L372.9,183.8L371.3,177.7L371.6,176.2L371.2,169.9L376.1,162.5L374.1,154.4L375.1,143.0L376.7,139.0L379.3,138.2L380.5,139.1L385.7,134.5L384.2,131.2L366.2,130.9L361.0,127.5L360.9,124.0L355.7,122.7L347.6,123.2L343.7,127.6L339.3,129.1Z " data-id="VE.YA" data-name="Yaracuy" id="VE.YA"/>
utf-8utf-8<path d="M631.8,670.2L633.4,663.5L633.1,657.0L632.3,646.1L628.6,638.4L625.9,637.8L619.3,637.5L610.9,635.2L600.7,620.6L598.7,615.5L596.3,611.0L593.9,603.8L591.4,591.7L587.1,584.8L588.5,580.1L594.5,579.8L598.2,577.7L599.7,573.0L599.0,571.4L595.5,568.4L595.6,565.9L597.6,564.6L598.8,561.6L598.1,558.7L592.1,553.5L589.9,546.6L592.7,542.7L592.7,540.1L589.7,538.9L577.0,538.8L575.3,539.0L569.3,545.2L567.5,546.1L564.8,544.9L562.3,537.6L563.3,527.8L564.8,524.7L567.2,511.8L566.6,509.7L563.5,507.5L554.1,508.0L552.4,508.4L549.1,510.7L546.5,516.8L538.9,530.8L536.6,536.5L532.6,538.4L526.8,537.9L518.0,542.5L515.1,538.2L513.8,529.8L510.2,526.4L501.0,534.8L495.8,540.6L490.9,542.9L483.8,545.1L475.6,545.4L469.8,547.4L464.6,550.8L461.5,551.8L458.4,550.7L457.4,546.4L456.5,544.6L451.0,544.0L448.6,544.6L446.6,538.2L450.8,527.4L451.0,519.1L450.0,513.6L448.3,510.6L442.0,510.4L437.3,508.0L434.7,509.9L428.8,503.7L427.3,504.9L426.0,510.3L428.6,515.1L430.5,516.7L430.8,521.7L426.0,524.6L421.7,530.2L417.1,534.9L415.3,538.0L414.0,541.3L413.3,544.9L413.2,548.7L413.9,555.3L415.5,557.3L413.8,560.2L412.9,563.2L409.3,566.3L404.6,569.5L403.7,569.3L400.6,572.0L398.6,575.3L397.8,578.8L399.8,586.1L399.8,588.1L398.6,592.8L401.0,598.5L399.9,600.8L400.0,604.5L398.1,612.6L398.0,614.5L399.0,617.1L398.0,625.3L396.2,629.8L395.2,640.2L393.8,641.8L393.9,643.9L397.5,647.5L399.2,655.3L400.1,657.1L398.7,662.0L398.3,665.1L399.5,673.1L400.0,674.7L402.7,677.7L404.1,681.3L405.4,686.6L405.8,693.6L408.6,699.4L411.3,709.4L412.7,710.2L416.9,709.8L419.7,711.3L421.7,714.5L426.4,729.2L431.2,732.9L433.6,735.8L433.1,739.3L431.1,742.8L426.5,749.2L422.3,751.1L395.0,779.1L391.8,783.4L391.6,789.1L394.1,786.0L398.0,785.6L399.5,784.8L403.9,787.7L408.6,787.2L410.0,788.4L411.5,791.8L411.8,795.6L413.1,798.2L418.9,799.9L419.9,802.8L427.1,810.9L430.4,815.6L434.7,819.0L437.3,820.0L440.6,823.1L441.5,827.2L438.1,833.1L441.5,843.5L445.1,845.4L445.7,851.3L443.9,855.1L447.0,859.9L448.8,864.3L454.9,883.4L455.1,888.9L458.2,897.2L458.0,902.5L461.3,907.8L461.9,911.9L460.5,915.0L462.3,920.6L496.7,955.8L501.2,959.4L505.7,960.6L511.4,959.1L515.3,961.6L518.6,960.9L521.0,957.9L522.6,957.1L525.9,956.9L530.4,953.7L533.3,949.8L536.4,946.9L542.9,943.5L545.8,941.4L556.9,940.6L559.6,942.8L561.3,945.2L562.7,950.8L561.5,954.7L557.4,961.1L557.6,965.1L560.7,968.7L562.4,968.5L567.5,965.2L568.9,962.7L571.3,954.6L572.2,953.0L576.8,946.8L586.0,945.6L587.8,943.0L588.6,939.5L589.3,932.5L591.0,928.6L593.7,927.8L596.8,928.1L601.3,924.8L608.8,920.8L614.5,916.6L618.2,918.6L621.2,918.5L630.6,911.5L633.2,906.1L634.7,904.1L646.9,896.5L648.5,897.6L648.6,899.2L646.2,906.4L646.6,908.3L648.0,909.2L653.2,901.8L658.4,897.6L662.5,893.0L666.0,890.8L668.8,887.0L670.4,881.8L670.2,876.7L671.4,871.5L672.0,864.3L673.3,861.5L676.4,858.9L679.1,857.8L681.9,857.5L690.7,857.7L693.6,856.6L704.5,846.9L708.7,844.8L712.5,844.9L717.5,843.9L719.8,842.8L720.5,839.6L722.9,833.0L723.9,821.8L722.2,820.1L712.9,819.8L708.2,818.9L698.6,818.7L693.9,819.4L689.1,819.4L680.2,816.7L673.1,815.8L673.0,810.5L676.0,804.7L677.0,794.5L675.0,788.5L669.6,775.9L667.3,772.6L664.7,767.2L662.4,764.0L661.2,761.1L661.1,757.6L661.9,750.4L661.7,746.9L660.0,736.4L661.1,732.8L663.2,729.8L664.0,723.7L663.5,721.6L659.0,716.8L654.8,710.8L646.7,706.2L639.7,699.9L636.6,694.8L631.7,689.9L627.1,680.7L625.8,675.8L624.7,674.5L620.4,671.8L619.6,670.0L620.3,664.8L621.3,663.8L624.7,663.5L628.1,665.5L630.9,668.6L631.8,670.2Z " data-id="VE.AM" data-name="Amazonas" id="VE.AM"/>
utf-8utf-8<path d="M794.6,314.6L788.5,319.4L787.9,319.8L787.0,320.3L783.5,320.3L780.5,321.5L775.8,327.5L773.2,329.2L769.0,329.5L767.2,328.3L766.1,326.2L758.8,325.3L751.5,325.9L744.2,329.4L741.2,333.2L739.7,334.2L735.9,333.3L733.4,334.3L728.9,339.6L727.6,339.9L723.4,339.4L718.6,339.8L714.6,338.8L707.6,342.0L702.6,341.8L699.5,347.9L690.9,354.9L684.6,353.7L680.2,355.0L678.9,352.4L672.7,346.2L670.2,345.1L666.7,346.7L663.6,351.4L657.5,352.8L652.2,352.2L650.9,352.5L648.5,358.4L648.9,360.8L653.5,365.3L653.7,367.7L652.3,369.7L646.8,371.8L643.0,371.1L636.7,375.1L632.5,377.1L626.6,380.7L625.2,380.7L621.5,377.0L619.6,376.0L615.3,371.4L611.6,368.4L607.5,366.0L601.0,365.1L592.7,362.6L589.0,363.1L584.3,363.8L580.3,363.3L575.3,360.5L571.3,359.7L567.5,360.6L560.1,364.3L557.0,367.0L553.3,372.5L545.3,379.1L542.0,379.9L534.8,378.7L531.2,378.7L527.8,380.1L524.8,382.2L517.2,381.7L516.3,381.6L515.3,381.6L513.3,382.4L508.0,387.3L507.0,389.7L504.1,394.6L502.2,396.3L500.6,400.2L495.8,407.5L488.5,410.8L486.3,413.0L480.8,414.3L476.7,417.9L468.8,422.4L465.7,422.9L459.7,428.2L458.4,430.5L458.9,434.1L460.0,437.7L461.9,441.5L462.1,443.3L459.9,448.5L460.8,449.3L461.1,454.3L460.5,456.6L456.4,461.1L454.3,466.4L452.5,475.6L453.7,480.0L452.0,482.8L446.7,486.3L441.0,492.8L436.4,499.5L432.2,499.7L429.2,503.3L429.3,503.3L428.8,503.7L434.7,509.9L437.3,508.0L442.0,510.4L448.3,510.6L450.0,513.6L451.0,519.1L450.8,527.4L446.6,538.2L448.6,544.6L451.0,544.0L456.5,544.6L457.4,546.4L458.4,550.7L461.5,551.8L464.6,550.8L469.8,547.4L475.6,545.4L483.8,545.1L490.9,542.9L495.8,540.6L501.0,534.8L510.2,526.4L513.8,529.8L515.1,538.2L518.0,542.5L526.8,537.9L532.6,538.4L536.6,536.5L538.9,530.8L546.5,516.8L549.1,510.7L552.4,508.4L554.1,508.0L563.5,507.5L566.6,509.7L567.2,511.8L564.8,524.7L563.3,527.8L562.3,537.6L564.8,544.9L567.5,546.1L569.3,545.2L575.3,539.0L577.0,538.8L589.7,538.9L592.7,540.1L592.7,542.7L589.9,546.6L592.1,553.5L598.1,558.7L598.8,561.6L597.6,564.6L595.6,565.9L595.5,568.4L599.0,571.4L599.7,573.0L598.2,577.7L594.5,579.8L588.5,580.1L587.1,584.8L591.4,591.7L593.9,603.8L596.3,611.0L598.7,615.5L600.7,620.6L610.9,635.2L619.3,637.5L625.9,637.8L628.6,638.4L632.3,646.1L633.1,657.0L633.4,663.5L631.8,670.2L632.6,671.6L635.9,677.7L652.6,674.9L661.8,675.7L666.8,677.3L668.7,678.4L672.3,685.6L673.4,691.6L674.4,695.1L676.3,697.5L679.4,697.6L685.3,693.6L688.5,691.8L691.7,691.9L698.0,693.5L702.1,692.3L707.1,693.1L712.1,698.1L715.3,699.8L718.4,698.8L720.0,692.7L721.8,690.3L724.3,690.0L727.2,691.1L732.0,694.3L734.5,697.2L738.7,703.8L743.2,707.6L750.8,718.0L754.4,722.6L757.6,724.2L762.0,724.1L768.4,720.8L771.2,716.1L772.0,712.8L772.1,709.3L771.5,705.8L769.0,698.3L768.8,696.1L770.6,690.6L770.7,685.9L777.8,684.0L783.8,685.1L785.9,684.5L787.9,677.1L791.8,676.0L796.0,672.3L799.3,673.1L813.3,679.7L816.2,680.1L819.3,678.8L825.1,674.2L828.4,673.7L832.7,675.4L834.4,675.4L839.0,673.7L840.2,672.8L844.2,668.1L848.7,666.3L855.4,667.2L857.5,666.3L859.9,666.8L863.3,662.7L863.9,656.2L865.0,653.9L869.7,652.3L874.0,652.6L879.4,651.3L880.6,650.1L880.4,648.3L878.5,645.0L884.8,644.4L891.2,646.4L895.3,645.1L901.5,644.2L904.1,642.8L910.5,628.2L913.2,627.9L920.4,624.3L923.8,621.9L926.7,619.0L931.9,612.1L933.5,608.0L933.1,604.0L928.6,589.5L925.2,587.1L923.1,586.8L877.4,527.8L876.3,524.5L880.7,521.0L884.3,514.8L886.1,510.9L891.7,508.8L893.3,505.5L897.2,504.2L898.0,498.6L896.9,496.1L895.6,495.2L894.7,491.2L896.3,482.2L894.4,477.2L891.6,474.5L891.5,472.8L893.3,466.8L894.8,463.8L897.9,459.9L902.3,460.2L903.0,458.7L906.2,459.5L907.6,458.3L912.9,458.2L915.0,455.8L914.3,452.8L915.6,451.6L919.7,453.9L923.0,453.3L929.8,455.6L933.3,450.7L941.3,447.5L950.9,440.9L952.9,440.3L954.1,441.2L955.6,435.6L959.9,431.5L960.9,427.2L949.5,420.2L947.6,420.2L943.0,425.5L942.0,425.5L935.3,417.5L935.3,415.0L936.3,412.7L938.5,410.3L938.6,408.3L936.8,403.8L935.0,402.6L934.6,399.4L931.7,398.0L930.1,394.4L930.8,389.8L934.2,388.6L937.7,383.2L938.8,383.5L941.2,374.3L947.3,367.2L953.6,367.3L956.8,367.0L958.7,365.4L959.3,363.5L964.7,359.1L965.0,358.8L944.9,359.1L940.3,361.4L933.9,366.4L927.7,372.3L925.4,372.5L915.4,358.8L911.9,356.7L910.0,356.9L906.0,360.0L901.6,360.7L897.0,363.0L892.7,365.7L887.0,367.2L885.3,366.2L881.7,362.4L870.4,347.5L866.5,342.2L864.5,336.6L865.1,328.1L820.0,325.8L815.3,324.4L801.6,318.0L794.6,314.6Z " data-id="VE.BO" data-name="Bolívar" id="VE.BO"/>
utf-8utf-8<path d="M658.1,163.3L656.9,164.1L654.3,162.6L651.1,163.6L646.9,168.8L644.7,165.3L644.5,170.0L643.5,173.0L639.7,176.8L636.9,177.3L631.5,176.9L627.5,176.0L621.9,178.8L616.9,180.4L613.7,180.1L610.3,177.4L617.2,179.8L610.8,176.3L600.5,174.1L592.1,172.4L590.1,177.7L584.6,180.9L582.6,183.1L578.4,184.9L573.4,186.3L571.3,188.3L570.5,195.0L570.5,197.3L573.0,203.4L570.4,211.2L585.2,220.5L589.8,213.7L592.7,220.3L595.2,222.6L604.9,225.8L605.8,230.5L604.5,233.2L600.7,235.3L599.4,237.7L600.7,244.0L602.6,246.2L607.3,253.0L608.7,253.7L613.5,253.5L615.5,254.6L617.4,257.0L621.2,258.9L622.1,260.0L623.6,264.2L623.5,266.6L633.2,276.0L634.2,278.5L630.9,281.2L629.4,284.0L629.1,289.1L627.4,289.8L622.8,289.8L617.5,290.2L612.9,288.7L608.0,290.2L607.1,291.4L605.4,298.8L606.5,301.0L606.5,303.4L605.4,310.2L603.6,316.2L601.7,321.2L594.2,331.3L589.3,336.6L586.9,342.7L583.2,347.4L580.3,350.1L579.2,356.9L581.3,358.4L586.7,358.8L588.8,362.3L589.0,363.1L592.7,362.6L601.0,365.1L607.5,366.0L611.6,368.4L615.3,371.4L619.6,376.0L621.5,377.0L625.2,380.7L626.6,380.7L632.5,377.1L636.7,375.1L643.0,371.1L646.8,371.8L652.3,369.7L653.7,367.7L653.5,365.3L648.9,360.8L648.5,358.4L650.9,352.5L652.2,352.2L657.5,352.8L663.6,351.4L666.7,346.7L670.2,345.1L672.7,346.2L678.9,352.4L680.2,355.0L684.6,353.7L690.9,354.9L699.5,347.9L702.6,341.8L707.6,342.0L714.6,338.8L718.6,339.8L723.4,339.4L727.6,339.9L728.9,339.6L733.4,334.3L735.9,333.3L739.7,334.2L741.2,333.2L744.2,329.4L751.5,325.9L758.8,325.3L766.1,326.2L767.2,328.3L769.0,329.5L773.2,329.2L775.8,327.5L780.5,321.5L783.5,320.3L787.0,320.3L787.9,319.8L787.3,318.6L783.9,312.5L766.1,305.8L762.3,302.2L761.5,299.0L761.5,293.1L765.5,288.0L767.0,288.6L769.7,287.4L767.8,285.5L746.1,287.2L743.7,286.9L741.0,284.3L739.0,275.1L736.9,269.1L735.9,267.6L729.3,262.6L722.7,258.0L721.0,254.6L717.2,253.1L711.4,248.8L707.4,249.5L705.6,249.0L702.2,251.0L699.7,246.0L697.0,242.9L696.1,241.1L696.9,233.3L705.4,223.6L706.2,222.1L699.7,209.4L698.3,203.9L699.6,201.2L700.3,197.4L701.5,196.9L701.7,194.9L700.3,193.1L692.4,188.4L692.3,180.6L698.1,179.1L700.2,177.9L700.8,177.5L699.5,175.4L695.2,173.7L690.0,176.3L685.6,177.8L681.1,178.3L677.3,177.6L675.2,176.1L671.4,176.5L668.1,174.6L665.0,171.8L665.0,169.0L659.6,165.7L658.1,163.3L658.1,163.3Z " data-id="VE.AN" data-name="Anzoátegui" id="VE.AN"/>
utf-8utf-8<path d="M459.9,148.7L455.9,148.5L451.9,150.9L448.8,139.2L436.4,140.1L430.0,142.0L420.2,142.8L417.2,143.5L413.3,145.7L413.3,145.7L412.6,152.6L413.5,154.5L417.1,157.6L420.1,155.8L427.2,157.2L428.5,160.0L427.0,164.7L427.6,175.2L424.8,182.6L426.7,181.7L432.1,184.2L434.6,184.9L435.8,188.5L441.3,186.4L443.8,185.5L448.5,189.7L450.0,190.6L454.1,190.2L455.2,191.8L461.7,191.1L462.7,192.4L467.1,201.2L475.4,205.4L478.0,210.3L480.8,211.7L484.0,211.6L484.6,212.9L484.3,218.0L481.9,222.5L476.9,224.4L474.9,225.6L473.1,229.7L482.0,229.7L493.4,233.5L496.6,235.3L500.8,235.4L504.4,233.9L506.0,228.0L507.5,217.0L507.5,215.1L505.7,212.3L503.9,210.9L502.2,205.0L505.3,199.1L503.8,187.2L499.9,186.7L496.2,185.2L493.9,185.2L492.2,183.6L487.6,183.4L485.4,184.4L481.1,183.6L478.3,179.4L476.2,178.1L472.6,180.0L469.2,177.5L466.2,171.5L468.5,163.3L468.1,161.7L464.3,159.6L463.0,158.2L462.9,153.4L460.9,149.5L459.9,148.7Z " data-id="VE.AR" data-name="Aragua" id="VE.AR"/>
utf-8utf-8<path d="M486.3,138.5L483.5,137.9L481.3,138.3L479.9,137.6L476.4,137.4L476.4,138.9L473.5,140.9L473.4,144.4L468.0,145.9L466.0,147.5L473.3,151.3L476.5,151.3L482.6,149.0L484.7,149.5L487.2,143.1L488.2,142.0L487.0,138.5L486.3,138.5Z " data-id="VE.DF" data-name="Distrito Capital" id="VE.DF"/>
utf-8utf-8<path d="M608.9,104.4L604.5,102.5L602.7,102.4L599.2,103.4L597.3,104.9L596.5,106.9L598.1,108.5L599.3,108.0L603.3,109.7L608.6,110.2L610.4,109.4L610.9,105.6L608.9,104.4Z M497.5,37.5L501.9,35.3L497.4,37.4L497.5,37.5Z M512.3,34.9L512.9,33.9L512.0,31.4L510.7,33.8L505.3,34.9L507.0,36.3L509.8,36.7L512.4,36.2L512.3,34.9Z M549.4,31.3L544.1,31.5L543.0,32.0L544.3,33.7L546.6,35.0L548.7,35.1L549.4,31.3Z M497.6,27.3L502.0,28.2L505.1,27.8L497.6,27.3Z M663.9,31.5L663.3,27.7L661.1,25.7L656.8,30.9L663.1,32.1L663.9,31.5Z M437.6,18.4L435.1,17.3L434.9,17.6L437.6,18.4Z M434.8,14.3L434.6,14.5L434.6,14.6L434.8,14.3Z M434.8,11.3L434.5,11.4L434.8,11.5L434.8,11.3Z M434.4,11.0L434.2,10.9L434.3,11.2L434.4,11.0Z " data-id="VE.DP" data-name="Dependencias Federales" id="VE.DP"/>
utf-8utf-8<path d="M567.7,189.5L564.2,189.6L559.2,188.0L555.4,189.6L545.6,188.4L540.7,188.8L539.2,187.2L533.5,188.0L531.0,186.3L526.5,185.9L521.8,183.1L519.9,182.9L516.8,185.3L510.1,187.1L503.8,187.2L505.3,199.1L502.2,205.0L503.9,210.9L505.7,212.3L507.5,215.1L507.5,217.0L506.0,228.0L504.4,233.9L500.8,235.4L496.6,235.3L493.4,233.5L482.0,229.7L473.1,229.7L474.9,225.6L476.9,224.4L481.9,222.5L484.3,218.0L484.6,212.9L484.0,211.6L480.8,211.7L478.0,210.3L475.4,205.4L467.1,201.2L462.7,192.4L461.7,191.1L455.2,191.8L454.1,190.2L450.0,190.6L448.5,189.7L443.8,185.5L441.3,186.4L435.8,188.5L436.3,191.2L433.3,191.4L430.4,196.3L428.3,195.4L427.0,196.2L421.3,193.8L418.1,190.4L415.0,191.3L415.7,196.8L416.5,198.9L416.4,201.3L418.3,208.8L418.3,211.0L416.5,211.5L413.8,214.3L408.2,215.1L406.3,216.6L402.4,222.8L405.4,229.1L405.4,234.1L403.4,240.9L403.3,242.7L405.5,246.3L407.9,253.0L408.8,261.1L407.0,267.0L404.7,271.0L400.1,275.4L398.9,280.7L397.6,282.4L395.7,290.4L396.5,297.7L395.5,302.7L395.8,306.3L394.2,307.5L393.3,307.0L395.5,309.8L404.6,321.2L406.4,321.4L405.4,324.6L408.4,325.7L408.6,328.0L411.8,328.8L411.8,331.8L418.7,334.6L419.4,338.1L423.3,343.9L425.8,345.2L425.7,349.9L426.4,352.6L428.6,352.7L428.6,355.2L427.7,355.6L428.3,357.0L428.0,359.1L430.4,359.1L435.7,360.2L438.5,359.6L447.7,366.5L450.6,369.1L458.7,371.1L463.1,369.1L466.1,371.5L470.9,369.9L472.3,370.9L481.8,371.8L484.6,372.7L492.2,370.4L495.2,370.5L501.4,367.7L502.9,367.9L506.4,371.3L505.8,372.2L516.5,377.0L516.3,381.6L516.3,381.6L517.2,381.7L524.8,382.2L527.8,380.1L531.2,378.7L534.8,378.7L542.0,379.9L545.3,379.1L553.3,372.5L557.0,367.0L560.1,364.3L567.5,360.6L571.3,359.7L575.3,360.5L580.3,363.3L584.3,363.8L589.0,363.1L588.8,362.3L586.7,358.8L581.3,358.4L579.2,356.9L580.3,350.1L583.2,347.4L586.9,342.7L589.3,336.6L594.2,331.3L601.7,321.2L603.6,316.2L605.4,310.2L606.5,303.4L606.5,301.0L605.4,298.8L607.1,291.4L608.0,290.2L612.9,288.7L617.5,290.2L622.8,289.8L627.4,289.8L629.1,289.1L629.4,284.0L630.9,281.2L634.2,278.5L633.2,276.0L623.5,266.6L623.6,264.2L622.1,260.0L621.2,258.9L617.4,257.0L615.5,254.6L613.5,253.5L608.7,253.7L607.3,253.0L602.6,246.2L600.7,244.0L599.4,237.7L600.7,235.3L604.5,233.2L605.8,230.5L604.9,225.8L595.2,222.6L592.7,220.3L589.8,213.7L585.2,220.5L570.4,211.2L573.0,203.4L570.5,197.3L570.5,195.0L571.3,188.3L567.7,189.5Z " data-id="VE.GU" data-name="Guárico" id="VE.GU"/>
utf-8utf-8<path d="M820.0,196.0L820.0,192.0L818.1,191.7L818.6,197.4L820.0,196.0Z M814.9,186.3L815.3,185.0L812.2,180.5L813.1,185.9L814.9,186.3Z M700.8,177.5L700.2,177.9L698.1,179.1L692.3,180.6L692.4,188.4L700.3,193.1L701.7,194.9L701.5,196.9L700.3,197.4L699.6,201.2L698.3,203.9L699.7,209.4L706.2,222.1L705.4,223.6L696.9,233.3L696.1,241.1L697.0,242.9L699.7,246.0L702.2,251.0L705.6,249.0L707.4,249.5L711.4,248.8L717.2,253.1L721.0,254.6L722.7,258.0L729.3,262.6L735.9,267.6L736.9,269.1L739.0,275.1L741.0,284.3L743.7,286.9L746.1,287.2L767.8,285.5L769.7,287.4L767.0,288.6L765.5,288.0L761.5,293.1L761.5,299.0L762.3,302.2L766.1,305.8L783.9,312.5L787.3,318.6L787.9,319.8L788.5,319.4L794.6,314.6L794.9,314.3L797.1,311.7L799.7,310.2L800.0,309.1L802.0,308.5L804.8,309.3L806.7,309.1L811.1,306.9L814.4,303.3L816.3,302.4L820.3,302.3L825.7,295.4L828.5,293.2L830.4,292.6L834.1,290.6L835.6,284.4L839.7,279.0L839.5,277.1L836.9,276.6L834.9,274.8L834.4,269.3L836.8,263.7L834.2,262.3L832.2,263.4L829.0,260.5L827.3,261.6L824.8,261.8L821.0,257.1L818.0,256.9L818.8,248.8L818.3,247.7L818.0,241.3L817.5,237.2L814.3,234.8L813.0,227.9L809.6,225.6L809.5,224.2L811.6,220.2L814.8,216.7L815.8,213.3L819.1,208.0L819.0,207.7L819.8,203.9L819.4,202.4L815.9,194.1L812.7,190.1L811.3,190.1L812.4,186.0L811.6,182.7L809.8,178.6L808.2,171.7L806.7,169.0L800.6,165.1L799.3,165.6L800.0,173.2L799.8,175.2L795.4,179.3L788.1,178.0L786.5,178.6L786.9,182.9L784.4,184.1L785.4,182.0L783.9,181.8L781.4,179.8L778.3,180.7L777.2,180.0L776.5,177.5L775.7,179.5L776.3,183.8L775.1,183.7L774.2,177.0L772.0,178.6L770.0,176.6L769.8,176.3L767.2,172.7L767.1,171.1L765.1,168.6L764.4,169.1L762.6,167.1L762.9,166.1L754.4,168.1L751.4,166.6L747.6,166.2L746.2,164.2L742.9,163.6L741.5,160.6L736.5,158.2L732.0,161.1L730.9,164.7L716.7,167.5L715.5,168.5L711.8,173.7L709.8,174.7L701.8,177.3L700.8,177.5Z " data-id="VE.MO" data-name="Monagas" id="VE.MO"/>
utf-8utf-8<path d="M592.1,172.4L589.7,171.9L580.9,168.9L560.1,158.5L561.6,160.8L568.8,164.4L570.9,166.0L562.8,164.8L559.8,161.5L557.9,160.3L556.0,160.8L554.6,158.5L559.1,158.5L554.1,154.9L552.9,152.6L544.7,145.3L542.5,142.7L542.5,138.9L543.9,139.1L547.5,137.3L548.1,136.1L543.9,135.4L542.5,133.9L537.7,132.6L533.3,130.0L530.1,130.2L529.0,131.2L528.3,138.6L527.4,139.9L524.4,138.8L518.8,139.3L512.7,137.6L509.0,137.5L506.5,138.6L499.4,138.7L498.2,138.1L487.8,138.1L487.0,138.5L488.2,142.0L487.2,143.1L484.7,149.5L482.6,149.0L476.5,151.3L473.3,151.3L466.0,147.5L460.9,149.5L462.9,153.4L463.0,158.2L464.3,159.6L468.1,161.7L468.5,163.3L466.2,171.5L469.2,177.5L472.6,180.0L476.2,178.1L478.3,179.4L481.1,183.6L485.4,184.4L487.6,183.4L492.2,183.6L493.9,185.2L496.2,185.2L499.9,186.7L503.8,187.2L510.1,187.1L516.8,185.3L519.9,182.9L521.8,183.1L526.5,185.9L531.0,186.3L533.5,188.0L539.2,187.2L540.7,188.8L545.6,188.4L555.4,189.6L559.2,188.0L564.2,189.6L567.7,189.5L571.3,188.3L573.4,186.3L578.4,184.9L582.6,183.1L584.6,180.9L590.1,177.7L592.1,172.4L592.1,172.4Z " data-id="VE.MI" data-name="Miranda" id="VE.MI"/>
utf-8utf-8<path d="M706.4,122.7L707.5,121.1L706.9,119.2L701.7,116.6L699.5,118.3L699.5,119.4L703.0,120.5L702.9,122.0L706.4,122.7Z M686.0,115.0L683.7,116.8L685.1,117.6L688.5,116.3L688.3,115.2L686.0,115.0Z M716.0,100.5L713.9,95.5L712.7,89.2L710.6,87.0L710.4,85.5L706.1,90.1L703.1,90.6L701.9,93.5L699.8,95.8L699.8,98.4L698.4,100.9L697.2,101.3L687.6,97.7L686.6,93.2L681.2,94.1L678.9,93.8L676.5,95.2L673.2,96.1L670.6,103.3L684.0,105.6L685.6,105.2L687.7,103.3L691.9,106.5L693.3,109.7L696.1,110.0L695.8,112.5L697.1,111.6L703.6,109.4L707.8,110.2L710.0,105.8L713.9,104.4L714.0,102.2L716.3,102.8L716.0,100.5Z " data-id="VE.NE" data-name="Nueva Esparta" id="VE.NE"/>
utf-8utf-8<path d="M796.7,158.4L797.6,155.5L788.5,143.1L787.4,146.9L796.7,158.4Z M658.1,163.3L659.6,165.7L665.0,169.0L665.0,171.8L668.1,174.6L671.4,176.5L675.2,176.1L677.3,177.6L681.1,178.3L685.6,177.8L690.0,176.3L695.2,173.7L699.5,175.4L700.8,177.5L701.8,177.3L709.8,174.7L711.8,173.7L715.5,168.5L716.7,167.5L730.9,164.7L732.0,161.1L736.5,158.2L741.5,160.6L742.9,163.6L746.2,164.2L747.6,166.2L751.4,166.6L754.4,168.1L762.9,166.1L762.6,167.1L764.4,169.1L765.1,168.6L767.1,171.1L767.2,172.7L769.8,176.3L769.8,176.3L772.4,176.2L773.6,175.2L775.5,177.4L778.6,176.3L778.5,178.6L781.7,177.7L783.6,180.9L784.9,180.3L787.1,177.2L788.5,177.1L791.9,178.6L794.9,178.0L798.1,174.8L797.4,170.1L796.1,169.1L795.9,161.2L793.9,157.6L792.2,156.3L791.3,152.7L787.9,150.7L780.7,153.3L777.6,150.4L776.2,150.4L775.3,153.3L775.6,155.7L777.0,159.0L775.5,161.1L771.2,161.3L773.2,158.3L772.9,156.7L774.2,155.0L773.7,151.0L772.4,150.2L774.7,149.6L784.1,151.0L784.5,150.3L784.1,141.5L783.1,139.8L780.3,140.0L778.0,141.5L773.7,145.4L771.4,146.4L780.2,139.3L797.6,136.9L801.6,137.2L807.9,138.9L811.5,138.6L812.9,139.3L821.5,140.0L823.2,138.5L829.0,130.9L833.8,130.6L840.1,131.5L846.4,130.3L847.2,129.7L855.7,126.9L855.4,125.1L858.5,122.3L857.1,122.0L851.8,123.9L851.2,123.0L849.1,123.8L848.4,122.8L844.3,124.5L834.3,126.8L832.0,126.0L826.7,125.8L817.7,124.4L807.2,122.3L800.1,122.1L796.8,121.5L795.2,120.5L786.0,123.8L780.3,125.5L772.3,123.9L767.2,124.4L766.0,123.9L762.2,124.8L755.4,127.0L750.9,127.6L749.7,127.0L748.1,128.0L744.7,125.8L743.2,128.6L740.7,128.1L740.5,129.2L738.7,128.4L733.8,131.5L732.1,131.7L724.8,130.6L717.3,128.6L715.6,127.7L712.9,124.6L712.6,126.2L710.6,129.7L709.5,130.2L703.9,130.8L696.9,130.9L695.7,129.7L688.5,132.6L684.8,130.9L681.5,130.2L679.4,128.0L677.2,132.4L679.9,137.5L680.4,140.8L686.5,136.6L692.6,136.9L701.5,135.7L706.3,137.7L711.9,138.3L718.6,142.7L724.1,142.9L721.9,144.2L711.7,146.9L698.1,146.9L693.3,146.5L690.1,144.7L686.4,144.1L684.7,144.4L682.9,147.6L680.1,149.2L673.2,151.7L671.7,156.0L670.8,152.4L670.0,155.6L666.3,157.3L663.8,156.5L663.3,157.3L667.7,158.9L670.1,159.2L665.3,161.2L663.1,163.6L661.4,164.2L658.5,163.1L658.1,163.3Z " data-id="VE.SU" data-name="Sucre" id="VE.SU"/>
utf-8utf-8<path d="M884.1,303.5L882.3,303.3L880.5,304.5L873.0,304.7L876.7,305.9L880.7,309.0L883.2,309.5L887.7,309.4L889.2,312.3L893.1,313.9L893.5,312.6L890.4,309.0L889.7,304.2L884.1,303.5Z M913.5,303.8L913.3,301.6L911.4,300.9L905.8,301.6L901.9,306.5L899.6,304.4L896.1,304.2L892.8,309.0L895.6,308.9L903.4,309.6L909.7,308.7L909.1,305.6L910.8,306.6L912.4,305.7L913.5,303.8Z M937.0,294.0L936.5,292.6L937.5,288.2L934.5,290.6L931.1,292.0L927.2,298.3L930.0,299.2L931.1,298.7L941.4,298.8L942.1,297.3L942.0,294.8L937.0,294.0Z M934.0,278.5L933.7,277.3L930.3,279.2L924.1,279.2L920.8,282.2L914.0,283.3L911.4,284.4L904.2,288.7L901.0,293.5L900.5,302.2L901.7,302.2L906.2,299.0L912.9,298.5L915.4,299.4L924.5,298.7L927.5,295.7L930.5,290.0L932.1,288.4L936.8,286.0L934.0,278.5Z M908.8,282.7L918.8,278.0L924.1,273.2L926.3,268.2L925.1,267.0L922.0,265.5L920.3,265.9L916.3,271.4L915.4,274.1L912.7,278.3L907.0,283.2L908.8,282.7Z M925.2,262.4L925.6,260.2L918.5,262.7L914.2,268.2L909.1,270.1L906.9,276.6L910.8,275.7L912.2,272.6L919.8,265.2L923.7,264.6L925.2,262.4Z M924.9,257.7L926.4,253.0L925.8,252.0L921.8,252.7L919.6,254.5L918.8,259.6L917.4,262.5L922.8,260.0L924.9,257.7Z M935.0,252.1L933.0,249.0L931.3,249.1L927.6,252.5L926.2,258.5L927.8,258.0L929.9,253.9L932.0,252.4L935.0,252.1Z M819.1,208.0L815.8,213.3L814.8,216.7L811.6,220.2L809.5,224.2L809.6,225.6L813.0,227.9L814.3,234.8L817.5,237.2L818.0,241.3L818.3,247.7L818.8,248.8L818.0,256.9L821.0,257.1L824.8,261.8L827.3,261.6L829.0,260.5L832.2,263.4L834.2,262.3L836.8,263.7L834.4,269.3L834.9,274.8L836.9,276.6L839.5,277.1L839.7,279.0L835.6,284.4L834.1,290.6L830.4,292.6L828.5,293.2L825.7,295.4L820.3,302.3L816.3,302.4L814.4,303.3L811.1,306.9L806.7,309.1L804.8,309.3L802.0,308.5L800.0,309.1L799.7,310.2L797.1,311.7L794.9,314.3L794.6,314.6L801.6,318.0L815.3,324.4L820.0,325.8L865.1,328.1L864.5,336.6L866.5,342.2L870.4,347.5L881.7,362.4L885.3,366.2L887.0,367.2L892.7,365.7L897.0,363.0L901.6,360.7L906.0,360.0L910.0,356.9L911.9,356.7L915.4,358.8L925.4,372.5L927.7,372.3L933.9,366.4L940.3,361.4L944.9,359.1L965.0,358.8L966.1,357.6L967.8,355.2L971.4,353.6L975.5,349.7L977.1,349.2L982.9,348.6L984.5,343.7L985.4,342.5L986.0,338.0L990.1,334.7L993.8,333.7L998.3,331.6L999.5,328.0L996.7,322.6L989.4,312.9L982.0,304.8L972.3,299.8L959.5,298.9L957.1,299.9L951.3,307.5L946.5,306.2L940.5,305.6L935.7,301.4L914.0,304.3L913.3,309.2L908.8,313.1L906.3,318.0L906.2,314.5L906.8,313.0L909.6,312.5L910.9,311.3L900.9,310.4L896.9,312.4L893.8,317.0L891.4,318.8L888.0,315.4L886.9,312.0L884.9,311.4L882.0,312.2L877.9,309.9L875.2,307.5L873.1,307.9L872.1,306.4L868.7,305.6L864.2,302.1L864.4,300.4L868.4,299.3L871.2,301.3L874.4,302.1L887.3,301.0L892.5,302.8L895.8,302.7L897.6,301.1L898.5,298.1L899.0,294.1L900.2,290.4L904.4,283.8L905.6,280.3L905.3,276.4L909.0,268.5L911.7,265.3L914.0,264.2L915.8,258.0L918.0,253.0L916.1,254.2L909.8,260.3L906.2,264.8L908.4,259.7L909.9,257.2L913.1,255.4L917.3,251.0L928.4,245.4L929.4,241.8L930.3,243.6L931.4,239.9L931.1,237.7L924.9,229.0L920.6,226.9L918.9,227.4L918.5,223.4L919.1,223.1L912.4,219.5L908.1,219.4L906.7,220.3L902.8,217.6L901.1,217.6L902.2,219.4L901.1,219.9L899.7,217.9L899.1,215.3L891.9,208.6L884.8,199.6L883.4,200.1L885.5,204.2L885.8,206.5L882.1,201.0L879.6,199.0L870.6,192.9L868.4,192.8L872.9,198.1L874.8,201.6L873.4,202.7L861.8,199.2L856.2,198.9L858.8,203.7L860.2,204.1L862.8,210.1L861.6,218.3L861.5,211.2L862.0,209.6L859.5,204.6L858.2,204.5L856.9,209.1L854.7,213.7L854.6,211.9L856.2,208.9L856.9,204.7L852.6,199.2L850.5,195.8L842.1,188.0L836.0,184.6L829.7,182.8L826.6,187.2L828.6,188.9L833.0,189.1L840.9,194.2L841.7,195.0L836.4,194.2L835.0,191.0L829.5,190.1L831.7,197.0L831.7,207.4L831.0,211.1L829.4,213.9L826.9,214.8L829.0,212.7L830.1,209.2L830.4,197.3L830.0,195.5L827.5,189.6L825.1,186.6L824.9,189.6L825.9,194.9L825.6,197.6L823.3,204.0L821.7,206.8L819.5,209.1L819.1,208.0L819.1,208.0Z M822.8,185.4L827.2,182.1L826.0,180.1L823.1,182.4L822.8,185.4Z " data-id="VE.DA" data-name="Delta Amacuro" id="VE.DA"/>
utf-8</g>
</svg>
