<?xml version="1.0" ?>
<!DOCTYPE svg
  PUBLIC '-//W3C//DTD SVG 1.1//EN'
  'http://www.w3.org/Graphics/SVG/1.1/DTD/svg11.dtd'>
<svg enable_background="new 0 0 1000 706" height="706px" pretty_print="True" style="stroke-linejoin: round; stroke:#000; fill: none;" version="1.1" viewBox="0 0 1000 706" width="1000px" xmlns="http://www.w3.org/2000/svg" xmlns:xlink="http://www.w3.org/1999/xlink">
utf-8<defs>
utf-8utf-8<style type="text/css">
<![CDATA[path { fill-rule: evenodd; }]]>utf-8utf-8</style>
utf-8</defs>
utf-8<metadata>
utf-8utf-8<views>
utf-8utf-8utf-8<view h="706.636128038" padding="0" w="1000">
utf-8utf-8utf-8utf-8<proj flip="auto" id="robinson" lon0="43.9109823746"/>
utf-8utf-8utf-8utf-8<bbox h="107.28" w="152.04" x="624.65" y="-318.53"/>
utf-8utf-8utf-8</view>
utf-8utf-8</views>
utf-8</metadata>
utf-8<g class="" id="provinces">
utf-8utf-8<path d="M47.3,254.5L49.4,255.9L65.8,261.0L69.6,262.4L76.8,261.9L87.6,262.9L99.9,259.6L105.6,256.0L108.1,255.2L111.8,255.2L118.8,257.1L128.8,261.6L133.2,262.5L137.3,262.7L144.0,260.4L145.2,256.6L146.0,251.0L148.9,245.1L150.9,243.3L155.2,240.9L159.1,238.0L165.6,230.1L169.2,224.1L170.8,222.1L183.0,215.0L188.2,213.0L194.5,211.4L200.6,211.2L206.3,211.9L214.0,207.5L213.9,172.5L202.1,172.4L182.6,172.2L180.6,172.7L174.7,175.2L172.0,175.4L165.3,173.9L159.5,173.7L150.2,174.7L143.0,176.6L141.2,176.8L135.1,175.2L133.7,176.3L131.2,181.0L129.4,182.0L126.9,181.6L123.0,179.5L121.4,179.3L119.4,180.5L115.6,186.2L110.8,184.5L110.9,182.3L102.5,181.3L95.3,181.0L91.1,177.5L83.9,169.3L79.7,166.6L72.4,163.2L65.7,162.2L61.6,163.4L53.5,169.2L45.6,177.1L41.2,183.9L46.8,185.9L48.7,187.5L49.9,189.8L49.7,192.0L43.0,195.0L41.1,196.7L40.4,203.7L38.7,208.0L38.3,210.3L40.3,216.3L40.4,218.7L38.4,227.8L38.8,229.7L41.1,234.0L42.5,238.0L43.7,239.0L47.3,240.1L49.3,243.6L48.9,244.8L46.6,246.5L45.3,248.7L46.6,251.9L47.3,254.5Z " data-id="YE.SD" data-name="Sa`dah" id="YE.SD"/>
utf-8utf-8<path d="M16.7,587.3L21.9,584.5L23.5,581.1L26.3,577.7L26.5,575.6L25.2,574.5L23.2,575.3L19.3,578.6L17.0,583.4L16.7,587.3Z M25.0,558.3L24.8,552.9L25.9,548.9L25.2,546.1L22.3,542.4L17.9,545.2L15.3,548.8L16.1,551.1L18.4,553.6L20.8,555.0L21.7,559.0L24.4,559.0L25.0,558.3Z M0.0,407.5L1.6,397.5L1.6,396.2L0.0,396.4L0.0,407.5Z M0.0,392.5L2.0,391.0L0.0,390.2L0.0,392.5Z M18.1,341.8L17.2,343.7L12.2,348.0L11.0,350.2L10.4,357.1L6.5,361.1L5.9,362.8L8.0,363.6L8.4,365.2L7.6,369.1L7.9,370.9L10.5,374.9L9.3,377.3L13.6,383.2L15.8,388.6L15.8,393.6L18.0,398.3L19.1,402.2L19.7,410.6L19.3,413.1L17.2,413.6L16.4,411.4L12.3,407.7L8.9,405.8L10.4,401.2L9.8,399.7L6.9,406.1L8.3,409.1L7.7,412.9L1.4,414.8L1.7,417.2L3.7,419.1L6.9,419.7L7.4,417.4L10.6,416.5L17.0,419.0L22.3,423.4L25.8,425.1L27.7,428.8L27.6,434.7L28.7,439.2L33.9,445.8L34.5,449.4L35.7,453.4L35.5,460.9L33.6,459.6L30.6,455.3L29.8,453.3L29.6,449.6L29.1,452.9L30.3,456.9L35.3,463.3L37.6,472.2L41.5,478.5L41.7,484.0L43.7,487.3L45.0,491.0L43.8,495.5L44.8,501.5L43.2,500.1L41.8,495.1L40.7,492.9L38.5,492.4L41.5,497.3L42.1,500.9L43.4,504.0L45.0,509.7L52.4,532.7L53.8,541.0L56.2,544.4L60.9,555.3L67.6,562.8L68.2,563.8L69.6,572.9L73.6,580.8L74.2,584.7L74.2,587.1L81.0,580.9L83.8,579.6L89.2,578.1L91.1,574.6L97.9,563.9L103.6,561.4L111.5,559.9L114.0,559.0L115.1,559.3L112.6,554.2L112.9,552.9L114.6,552.0L117.0,553.4L118.5,552.3L121.9,545.6L122.3,542.6L121.8,540.7L121.4,537.7L119.9,538.3L116.2,541.6L112.7,541.0L107.1,537.4L104.1,536.3L100.1,533.1L98.7,529.4L98.4,525.7L94.4,510.6L95.0,509.1L96.9,509.0L100.1,504.4L100.3,502.4L98.0,493.7L93.6,482.6L93.1,473.1L94.5,469.8L92.9,461.6L94.1,456.8L100.2,448.9L100.8,447.4L104.9,448.7L106.4,448.5L107.6,447.4L109.6,443.0L107.1,440.7L100.8,440.3L97.7,438.5L94.4,435.2L91.9,433.7L88.7,430.5L81.6,416.1L77.4,414.9L72.7,410.8L69.9,406.4L68.9,400.9L68.7,394.1L67.4,388.6L66.9,383.9L65.0,374.3L65.7,365.4L64.4,361.8L64.3,359.8L66.0,353.6L65.9,350.1L64.6,347.1L62.0,345.0L52.2,345.8L48.5,346.8L45.1,349.1L41.0,348.8L34.6,349.7L18.4,339.4L18.1,341.8Z " data-id="YE.HU" data-name="Al Hudaydah" id="YE.HU"/>
utf-8utf-8<path d="M125.2,381.3L119.4,378.0L117.6,379.4L113.5,381.4L108.5,381.2L106.7,381.9L104.5,382.1L101.9,381.2L93.0,380.1L89.0,380.0L72.2,381.8L66.9,383.9L67.4,388.6L68.7,394.1L68.9,400.9L69.9,406.4L72.7,410.8L77.4,414.9L81.6,416.1L88.7,430.5L91.9,433.7L94.4,435.2L96.6,430.7L98.5,426.9L97.9,421.4L98.5,418.6L100.0,416.2L105.8,412.2L106.8,410.9L113.1,409.4L116.6,405.5L123.1,400.0L125.0,399.0L128.7,396.0L130.2,394.1L130.5,389.4L131.5,384.5L125.2,381.3Z " data-id="YE.MW" data-name="Al Mahwit" id="YE.MW"/>
utf-8utf-8<path d="M220.8,463.2L219.6,460.7L215.5,454.7L213.5,450.7L211.7,443.2L208.6,438.8L206.4,437.1L199.0,436.9L197.0,437.2L194.8,438.8L191.2,444.6L185.4,447.5L182.8,447.2L180.2,445.3L178.4,443.0L176.0,442.6L173.6,448.4L170.8,449.4L163.4,447.7L158.9,443.3L154.5,440.8L145.5,443.0L140.5,447.2L134.7,451.2L131.6,454.5L125.8,455.6L121.1,455.1L119.9,456.6L120.0,458.6L121.4,462.4L123.8,465.8L130.5,473.6L132.6,477.0L133.8,479.9L136.5,484.3L135.7,487.0L133.1,491.2L129.9,494.5L122.7,499.8L118.6,500.7L115.0,499.6L112.1,499.8L106.4,505.1L100.8,508.7L99.2,508.9L96.9,509.0L95.0,509.1L94.4,510.6L98.4,525.7L98.7,529.4L100.1,533.1L104.1,536.3L107.1,537.4L112.7,541.0L116.2,541.6L119.9,538.3L121.4,537.7L122.7,534.2L123.9,532.0L125.2,527.3L128.1,523.0L128.6,524.1L128.8,528.4L130.5,529.2L135.2,527.3L137.5,522.0L136.8,512.3L140.5,511.6L142.5,508.5L145.1,506.1L147.2,503.4L150.4,502.8L152.8,510.0L155.3,510.6L159.6,508.7L162.3,501.7L165.1,502.0L171.3,507.9L173.6,509.1L178.4,510.5L180.6,512.0L185.7,514.0L190.3,517.2L198.9,520.7L200.8,519.8L202.8,513.9L206.2,511.8L209.2,508.4L211.4,503.1L212.4,487.6L214.2,476.8L221.1,466.9L220.8,463.2Z " data-id="YE.DH" data-name="Dhamar" id="YE.DH"/>
utf-8utf-8<path d="M76.8,261.9L69.6,262.4L65.8,261.0L49.4,255.9L47.3,254.5L47.4,254.7L46.9,256.7L45.3,257.1L38.9,255.3L37.7,255.9L37.1,261.8L35.0,269.0L31.9,272.6L21.8,277.1L22.1,282.0L21.4,283.8L19.0,285.7L11.2,289.1L13.3,294.7L14.3,303.7L17.8,319.2L18.4,324.2L18.4,339.3L18.4,339.4L34.6,349.7L41.0,348.8L45.1,349.1L48.5,346.8L52.2,345.8L62.0,345.0L64.6,347.1L65.9,350.1L66.0,353.6L64.3,359.8L64.4,361.8L65.7,365.4L65.0,374.3L66.9,383.9L72.2,381.8L89.0,380.0L93.0,380.1L101.9,381.2L104.5,382.1L106.2,378.0L106.3,376.5L104.8,373.9L104.7,372.4L106.1,368.8L107.4,367.9L112.2,367.9L113.1,366.6L114.0,359.6L111.5,357.0L110.5,352.2L110.8,346.1L108.7,337.6L106.1,333.2L102.9,332.0L99.5,336.7L97.2,335.7L98.9,332.4L100.1,331.4L100.9,328.6L96.7,320.1L95.8,311.6L94.6,309.7L91.6,307.5L90.5,303.1L90.6,297.0L88.3,281.9L87.6,262.9L76.8,261.9Z " data-id="YE.HJ" data-name="Hajjah" id="YE.HJ"/>
utf-8utf-8<path d="M137.3,262.7L133.2,262.5L128.8,261.6L118.8,257.1L111.8,255.2L108.1,255.2L105.6,256.0L99.9,259.6L87.6,262.9L88.3,281.9L90.6,297.0L90.5,303.1L91.6,307.5L94.6,309.7L95.8,311.6L96.7,320.1L100.9,328.6L100.1,331.4L98.9,332.4L97.2,335.7L99.5,336.7L102.9,332.0L106.1,333.2L108.7,337.6L110.8,346.1L110.5,352.2L111.5,357.0L114.0,359.6L113.1,366.6L112.2,367.9L107.4,367.9L106.1,368.8L104.7,372.4L104.8,373.9L106.3,376.5L106.2,378.0L104.5,382.1L106.7,381.9L108.5,381.2L113.5,381.4L117.6,379.4L119.4,378.0L125.2,381.3L131.5,384.5L132.4,381.7L132.1,380.0L133.4,378.5L137.1,378.8L140.2,378.4L142.8,376.8L148.4,371.7L149.1,367.1L149.0,362.1L150.6,359.3L153.2,357.0L155.1,353.9L154.6,347.3L153.9,344.2L153.1,338.2L154.6,332.8L160.0,329.6L165.4,327.2L170.7,326.8L168.1,323.8L164.7,317.7L163.7,311.4L162.6,308.4L164.3,301.3L162.8,297.2L163.2,295.2L162.9,290.6L161.3,287.9L159.3,280.9L157.7,277.8L158.8,272.9L156.6,269.5L150.8,264.9L149.2,264.1L144.0,260.4L137.3,262.7Z " data-id="YE.AM" data-name="Amran" id="YE.AM"/>
utf-8utf-8<path d="M198.9,520.7L190.3,517.2L185.7,514.0L180.6,512.0L178.4,510.5L173.6,509.1L171.3,507.9L165.1,502.0L162.3,501.7L159.6,508.7L155.3,510.6L152.8,510.0L150.4,502.8L147.2,503.4L145.1,506.1L142.5,508.5L140.5,511.6L136.8,512.3L137.5,522.0L135.2,527.3L130.5,529.2L128.8,528.4L128.6,524.1L128.1,523.0L125.2,527.3L123.9,532.0L122.7,534.2L121.4,537.7L121.8,540.7L122.3,542.6L121.9,545.6L118.5,552.3L117.0,553.4L114.6,552.0L112.9,552.9L112.6,554.2L115.1,559.3L114.0,559.0L111.5,559.9L114.4,565.5L120.2,565.7L122.3,564.5L124.8,565.4L126.7,564.4L131.2,563.7L132.8,568.4L137.1,566.4L138.5,567.1L139.0,572.1L150.4,575.6L155.3,576.2L157.8,577.8L165.1,580.4L168.6,580.5L174.0,582.9L176.4,582.7L179.9,579.8L181.1,578.1L182.0,576.5L182.4,573.8L182.9,571.1L184.4,570.0L185.7,565.6L188.8,564.2L189.5,559.0L190.9,556.2L195.7,553.3L201.6,552.3L202.5,550.3L200.6,548.4L199.9,546.1L200.5,543.8L202.9,538.2L203.7,537.3L207.6,537.1L209.0,535.9L209.9,532.4L206.4,530.1L205.3,529.8L204.3,528.2L204.1,522.0L200.8,519.8L198.9,520.7Z " data-id="YE.IB" data-name="Ibb" id="YE.IB"/>
utf-8utf-8<path d="M188.2,696.3L194.4,684.9L198.5,682.0L207.1,678.5L226.9,674.6L244.4,669.4L252.5,668.7L252.5,668.5L255.0,642.4L260.5,622.9L264.9,619.2L265.4,615.5L261.3,611.5L260.8,608.4L260.9,604.0L263.3,599.4L268.4,592.7L266.9,589.4L262.1,589.1L260.5,586.9L265.9,582.7L265.5,577.6L267.3,574.5L273.5,571.8L274.1,562.7L277.6,561.6L277.8,553.2L276.3,547.7L274.8,546.7L272.6,547.1L267.8,550.6L265.7,552.7L262.8,554.6L261.2,554.2L255.5,554.2L250.3,568.9L247.0,572.6L243.1,574.7L239.0,577.9L231.1,581.5L225.8,582.4L225.9,590.4L226.4,593.1L225.9,595.3L223.8,595.7L219.9,594.0L216.9,597.2L210.5,600.3L207.2,602.9L204.6,603.4L200.5,600.2L199.1,598.4L195.2,596.8L194.5,599.1L191.4,602.4L187.3,603.6L186.5,606.6L180.6,608.9L180.0,610.7L180.8,612.4L186.7,614.4L188.3,617.8L187.3,619.0L181.1,619.1L179.0,619.8L178.5,621.3L180.1,630.2L179.8,632.7L177.6,634.6L172.7,636.0L168.6,636.1L164.4,635.3L162.2,638.8L161.6,643.1L157.2,644.6L156.0,649.1L155.0,650.2L152.7,649.8L148.8,647.3L148.1,648.0L148.8,653.4L148.3,655.2L146.5,655.0L143.9,653.7L141.9,651.9L134.6,647.9L132.7,647.6L129.0,649.1L127.6,650.8L124.5,652.5L121.1,653.0L119.8,654.1L121.3,659.0L121.0,661.4L117.9,667.2L112.7,673.3L105.8,686.0L102.7,693.9L102.7,693.9L107.9,687.7L109.1,687.2L116.9,689.5L124.0,693.3L126.1,693.5L131.6,695.5L134.4,697.5L139.5,699.4L141.4,703.3L143.3,704.6L147.6,703.1L150.1,704.0L154.4,703.1L160.0,699.6L163.0,698.3L165.6,698.6L167.4,700.1L166.7,700.9L161.6,700.1L162.8,701.7L166.8,702.3L170.3,700.2L176.2,700.1L182.4,696.8L187.8,695.2L188.2,696.3Z " data-id="YE.LA" data-name="Lahij" id="YE.LA"/>
utf-8utf-8<path d="M95.0,698.6L93.0,696.3L90.8,696.4L91.4,698.6L93.8,700.9L95.0,698.6Z M111.5,559.9L103.6,561.4L97.9,563.9L91.1,574.6L89.2,578.1L83.8,579.6L81.0,580.9L74.2,587.1L74.2,592.4L75.6,595.9L74.6,596.4L72.0,602.4L72.3,621.9L70.5,629.1L73.0,636.9L80.6,648.7L82.7,653.5L86.3,657.8L88.5,663.6L88.7,665.7L91.3,670.7L94.3,673.7L96.4,677.3L97.4,681.1L97.5,685.3L96.1,694.1L96.7,695.2L102.2,694.5L102.7,693.9L105.8,686.0L112.7,673.3L117.9,667.2L121.0,661.4L121.3,659.0L119.8,654.1L121.1,653.0L124.5,652.5L127.6,650.8L129.0,649.1L132.7,647.6L134.6,647.9L141.9,651.9L143.9,653.7L146.5,655.0L148.3,655.2L148.8,653.4L148.1,648.0L148.8,647.3L152.7,649.8L155.0,650.2L156.0,649.1L157.2,644.6L161.6,643.1L162.2,638.8L164.4,635.3L168.6,636.1L172.7,636.0L177.6,634.6L179.8,632.7L180.1,630.2L178.5,621.3L179.0,619.8L181.1,619.1L187.3,619.0L188.3,617.8L186.7,614.4L180.8,612.4L180.0,610.7L180.6,608.9L186.5,606.6L187.3,603.6L191.4,602.4L194.5,599.1L195.2,596.8L194.8,594.6L194.2,593.2L191.1,591.5L186.9,591.8L184.9,591.3L183.3,589.5L184.3,582.0L183.9,579.6L182.0,576.5L181.1,578.1L179.9,579.8L176.4,582.7L174.0,582.9L168.6,580.5L165.1,580.4L157.8,577.8L155.3,576.2L150.4,575.6L139.0,572.1L138.5,567.1L137.1,566.4L132.8,568.4L131.2,563.7L126.7,564.4L124.8,565.4L122.3,564.5L120.2,565.7L114.4,565.5L111.5,559.9Z " data-id="YE.TA" data-name="Ta`izz" id="YE.TA"/>
utf-8utf-8<path d="M874.3,1.8L851.3,44.0L838.2,89.4L834.7,122.4L828.0,153.7L818.3,182.6L807.2,203.0L771.0,238.0L764.3,247.7L756.9,253.4L740.6,261.2L736.7,264.0L734.6,266.1L732.8,268.9L731.4,273.2L731.7,275.7L732.9,278.0L734.0,282.1L728.6,313.9L728.7,318.0L733.9,323.0L735.3,325.9L736.0,329.7L733.1,341.0L730.2,346.1L729.6,350.0L729.8,352.7L729.0,355.9L730.1,363.5L729.3,365.8L728.3,373.0L729.4,376.8L731.2,379.2L741.2,381.8L742.9,385.1L742.7,389.5L740.3,392.6L736.4,400.0L737.2,405.8L738.8,407.7L744.9,410.0L749.8,410.1L757.2,409.3L761.7,407.7L768.2,407.3L774.7,409.3L780.0,410.1L782.3,411.3L786.4,418.3L787.3,421.1L790.2,426.6L790.7,429.4L795.1,428.0L815.9,423.6L834.7,417.9L841.5,413.9L844.0,414.8L850.1,411.5L854.0,410.3L856.1,407.3L860.9,404.5L871.0,403.4L873.0,402.6L871.4,398.5L872.9,395.6L880.2,391.0L886.8,388.5L890.4,390.5L891.0,385.9L894.5,383.3L907.0,377.3L924.6,371.6L925.4,367.6L924.0,365.8L922.8,361.1L922.0,356.3L922.1,346.8L918.8,345.0L917.1,343.4L917.9,338.9L914.4,331.7L914.7,329.7L916.9,326.7L917.5,322.2L919.5,319.5L920.1,317.4L919.1,313.6L922.9,306.9L924.4,303.1L927.8,297.9L937.0,289.0L947.2,280.7L953.2,277.4L966.3,273.6L973.0,269.5L977.0,268.7L983.4,264.8L985.1,262.7L988.3,261.8L989.3,260.8L992.9,261.7L997.3,260.3L999.3,259.2L966.6,190.3L963.8,188.2L960.1,187.9L959.5,186.8L941.2,147.0L877.5,8.8L874.3,1.8Z " data-id="YE.MR" data-name="Al Mahrah" id="YE.MR"/>
utf-8utf-8<path d="M288.4,477.9L286.4,479.6L283.1,476.9L282.3,479.7L284.2,483.1L284.3,485.1L278.0,484.5L274.6,484.8L268.9,487.6L267.0,487.8L266.2,491.3L262.1,490.3L255.9,495.4L252.8,495.3L250.9,494.1L247.2,484.8L246.9,481.2L244.7,471.9L243.9,465.6L241.8,463.2L239.1,461.6L233.9,460.5L230.1,464.3L226.1,466.1L221.1,466.9L214.2,476.8L212.4,487.6L211.4,503.1L209.2,508.4L206.2,511.8L202.8,513.9L200.8,519.8L204.1,522.0L204.3,528.2L205.3,529.8L206.4,530.1L209.9,532.4L214.0,530.6L215.8,529.4L221.3,528.8L227.7,525.8L234.3,526.4L237.5,527.6L241.6,533.9L244.5,537.7L252.0,545.2L254.7,548.6L255.3,551.3L255.5,554.2L261.2,554.2L262.8,554.6L265.7,552.7L267.8,550.6L272.6,547.1L274.8,546.7L276.3,547.7L277.8,553.2L277.6,561.6L278.7,562.2L292.2,563.6L295.2,564.7L296.9,567.8L300.3,569.7L306.9,568.8L309.8,567.4L313.7,564.8L329.5,551.2L332.9,547.6L334.2,542.4L336.6,538.3L337.5,529.1L335.3,526.9L331.0,516.4L326.8,514.5L322.3,513.6L318.8,511.1L316.5,507.3L310.2,491.1L307.9,489.1L303.7,488.1L301.8,486.4L301.8,483.7L303.8,477.2L299.7,474.3L288.9,474.3L288.4,477.9Z " data-id="YE.BA" data-name="Al Bayda'" id="YE.BA"/>
utf-8utf-8<path d="M255.3,551.3L254.7,548.6L252.0,545.2L244.5,537.7L241.6,533.9L237.5,527.6L234.3,526.4L227.7,525.8L221.3,528.8L215.8,529.4L214.0,530.6L209.9,532.4L209.0,535.9L207.6,537.1L203.7,537.3L202.9,538.2L200.5,543.8L199.9,546.1L200.6,548.4L202.5,550.3L201.6,552.3L195.7,553.3L190.9,556.2L189.5,559.0L188.8,564.2L185.7,565.6L184.4,570.0L182.9,571.1L182.4,573.8L182.0,576.5L183.9,579.6L184.3,582.0L183.3,589.5L184.9,591.3L186.9,591.8L191.1,591.5L194.2,593.2L194.8,594.6L195.2,596.8L199.1,598.4L200.5,600.2L204.6,603.4L207.2,602.9L210.5,600.3L216.9,597.2L219.9,594.0L223.8,595.7L225.9,595.3L226.4,593.1L225.9,590.4L225.8,582.4L231.1,581.5L239.0,577.9L243.1,574.7L247.0,572.6L250.3,568.9L255.5,554.2L255.3,551.3Z " data-id="YE.DL" data-name="Al Dali'" id="YE.DL"/>
utf-8utf-8<path d="M410.3,225.4L409.0,224.5L385.5,191.7L381.8,189.5L345.0,195.1L258.7,185.4L254.2,183.8L238.0,173.8L232.4,172.6L216.3,172.5L213.9,172.5L214.0,207.5L206.3,211.9L200.6,211.2L194.5,211.4L188.2,213.0L183.0,215.0L170.8,222.1L169.2,224.1L165.6,230.1L159.1,238.0L155.2,240.9L150.9,243.3L148.9,245.1L146.0,251.0L145.2,256.6L144.0,260.4L149.2,264.1L150.8,264.9L156.6,269.5L158.8,272.9L157.7,277.8L159.3,280.9L161.3,287.9L162.9,290.6L163.2,295.2L162.8,297.2L164.3,301.3L162.6,308.4L163.7,311.4L164.7,317.7L168.1,323.8L170.7,326.8L175.9,325.5L176.7,324.6L178.6,323.7L186.8,324.3L193.4,328.7L226.3,337.0L250.3,350.5L270.8,354.2L281.7,353.0L293.4,341.2L321.8,329.9L401.4,313.5L419.8,291.9L411.7,225.5L410.3,225.4Z " data-id="YE.JA" data-name="Al Jawf" id="YE.JA"/>
utf-8utf-8<path d="M357.8,377.2L303.8,421.0L291.1,433.5L286.7,445.2L286.0,452.9L284.8,453.8L284.3,462.4L284.4,468.4L285.5,471.4L286.7,473.0L288.9,474.3L299.7,474.3L303.8,477.2L301.8,483.7L301.8,486.4L303.7,488.1L307.9,489.1L310.2,491.1L316.5,507.3L318.8,511.1L322.3,513.6L326.8,514.5L331.0,516.4L335.3,526.9L337.5,529.1L346.3,528.3L350.6,526.7L354.1,524.7L356.9,522.3L365.1,518.9L368.1,517.2L370.9,516.9L373.3,520.0L374.9,524.0L378.6,530.9L379.4,533.8L381.2,536.4L392.3,534.4L399.8,530.7L409.3,527.7L416.6,526.7L423.5,527.7L429.9,530.2L436.5,531.8L449.8,532.5L453.4,535.1L454.9,539.7L455.1,544.6L455.7,548.2L452.6,555.5L458.2,567.3L461.7,578.0L462.1,582.3L464.2,590.6L471.2,588.2L474.7,585.7L486.4,573.5L493.8,564.2L495.8,562.7L510.4,557.0L514.6,554.5L519.2,547.9L527.2,544.8L528.6,543.9L537.3,546.3L540.0,547.7L540.6,546.9L546.0,551.0L545.7,553.6L556.6,550.0L560.6,549.9L559.8,548.4L567.2,548.4L570.7,549.1L572.6,551.4L575.8,549.9L579.9,545.8L581.5,545.2L591.9,545.4L591.5,543.0L585.7,529.7L581.9,524.6L572.8,520.0L564.5,517.6L557.0,517.8L550.6,517.1L543.3,513.3L538.3,508.0L536.7,505.0L534.2,501.5L533.0,498.1L530.8,493.7L528.9,491.3L523.9,488.8L516.7,488.6L506.7,487.0L499.1,484.1L491.4,478.6L484.2,471.1L473.0,462.8L472.1,460.0L474.2,457.0L489.0,442.2L490.3,439.0L490.1,435.7L485.7,429.7L483.2,427.0L483.1,421.2L485.3,411.8L485.2,409.1L486.0,405.3L487.9,399.9L491.8,394.3L503.0,372.6L501.6,369.0L492.7,365.7L357.8,377.2Z " data-id="YE.SH" data-name="Shabwah" id="YE.SH"/>
utf-8utf-8<path d="M401.4,313.5L321.8,329.9L293.4,341.2L281.7,353.0L270.8,354.2L250.3,350.5L226.3,337.0L193.4,328.7L198.7,339.2L201.0,349.4L201.4,357.0L203.1,362.1L209.9,370.8L212.1,374.5L210.5,378.7L208.1,381.8L197.1,390.6L195.3,392.7L195.8,394.4L201.8,396.1L205.2,399.2L208.7,403.6L212.0,404.9L215.2,403.8L217.3,399.3L219.2,397.9L222.4,398.9L226.9,402.5L232.9,408.9L236.3,409.8L240.7,410.3L243.7,411.7L245.7,413.8L246.9,417.6L247.3,424.8L245.2,430.8L240.5,433.2L239.0,434.5L237.5,439.2L234.3,444.3L232.8,447.7L234.0,450.1L233.7,453.9L233.9,460.5L239.1,461.6L241.8,463.2L243.9,465.6L244.7,471.9L246.9,481.2L247.2,484.8L250.9,494.1L252.8,495.3L255.9,495.4L262.1,490.3L266.2,491.3L267.0,487.8L268.9,487.6L274.6,484.8L278.0,484.5L284.3,485.1L284.2,483.1L282.3,479.7L283.1,476.9L286.4,479.6L288.4,477.9L288.9,474.3L286.7,473.0L285.5,471.4L284.4,468.4L284.3,462.4L284.8,453.8L286.0,452.9L286.7,445.2L291.1,433.5L303.8,421.0L357.8,377.2L401.4,313.5Z " data-id="YE.MA" data-name="Ma'rib" id="YE.MA"/>
utf-8utf-8<path d="M186.8,324.3L178.6,323.7L176.7,324.6L175.9,325.5L170.7,326.8L165.4,327.2L160.0,329.6L154.6,332.8L153.1,338.2L153.9,344.2L154.6,347.3L155.1,353.9L153.2,357.0L150.6,359.3L149.0,362.1L149.1,367.1L148.4,371.7L142.8,376.8L140.2,378.4L137.1,378.8L133.4,378.5L132.1,380.0L132.4,381.7L131.5,384.5L130.5,389.4L130.2,394.1L128.7,396.0L125.0,399.0L123.1,400.0L116.6,405.5L113.1,409.4L106.8,410.9L105.8,412.2L100.0,416.2L98.5,418.6L97.9,421.4L98.5,426.9L96.6,430.7L94.4,435.2L97.7,438.5L100.8,440.3L107.1,440.7L109.6,443.0L107.6,447.4L109.4,450.0L110.2,453.3L115.3,454.1L115.7,455.3L119.9,456.6L121.1,455.1L125.8,455.6L131.6,454.5L134.7,451.2L140.5,447.2L145.5,443.0L154.5,440.8L158.9,443.3L163.4,447.7L170.8,449.4L173.6,448.4L176.0,442.6L178.4,443.0L180.2,445.3L182.8,447.2L185.4,447.5L191.2,444.6L194.8,438.8L197.0,437.2L199.0,436.9L206.4,437.1L208.6,438.8L211.7,443.2L213.5,450.7L215.5,454.7L219.6,460.7L220.8,463.2L221.1,466.9L226.1,466.1L230.1,464.3L233.9,460.5L233.7,453.9L234.0,450.1L232.8,447.7L234.3,444.3L237.5,439.2L239.0,434.5L240.5,433.2L245.2,430.8L247.3,424.8L246.9,417.6L245.7,413.8L243.7,411.7L240.7,410.3L236.3,409.8L232.9,408.9L226.9,402.5L222.4,398.9L219.2,397.9L217.3,399.3L215.2,403.8L212.0,404.9L208.7,403.6L205.2,399.2L201.8,396.1L195.8,394.4L195.3,392.7L197.1,390.6L208.1,381.8L210.5,378.7L212.1,374.5L209.9,370.8L203.1,362.1L201.4,357.0L201.0,349.4L198.7,339.2L193.4,328.7L186.8,324.3Z M171.0,378.7L169.8,381.3L168.3,381.3L167.2,378.8L165.5,379.9L164.9,382.8L160.1,383.6L160.0,388.2L156.3,391.8L156.1,396.1L159.2,403.8L157.0,407.6L151.2,407.2L151.5,404.8L147.6,401.3L147.1,399.4L149.4,394.7L145.4,391.0L145.0,388.9L148.6,387.7L152.3,384.4L152.1,380.5L152.9,379.3L156.0,377.2L157.3,377.2L159.6,373.9L163.1,372.7L164.7,373.3L171.0,378.7Z " data-id="YE.SN" data-name="Sana'a" id="YE.SN"/>
utf-8utf-8<path d="M411.7,225.5L419.8,291.9L401.4,313.5L357.8,377.2L492.7,365.7L501.6,369.0L503.0,372.6L491.8,394.3L487.9,399.9L486.0,405.3L485.2,409.1L485.3,411.8L483.1,421.2L483.2,427.0L485.7,429.7L490.1,435.7L490.3,439.0L489.0,442.2L474.2,457.0L472.1,460.0L473.0,462.8L484.2,471.1L491.4,478.6L499.1,484.1L506.7,487.0L516.7,488.6L523.9,488.8L528.9,491.3L530.8,493.7L533.0,498.1L534.2,501.5L536.7,505.0L538.3,508.0L543.3,513.3L550.6,517.1L557.0,517.8L564.5,517.6L572.8,520.0L581.9,524.6L585.7,529.7L591.5,543.0L591.9,545.4L592.7,545.4L593.5,545.6L598.1,542.7L603.4,534.8L608.5,531.8L609.4,528.8L610.9,526.9L610.8,524.4L612.9,521.8L622.1,514.5L622.4,511.2L621.6,510.6L622.3,506.0L623.8,502.2L628.2,494.5L631.5,491.8L633.7,491.6L638.1,493.3L638.7,489.8L642.3,486.9L650.1,482.7L655.7,478.7L660.0,477.9L664.0,476.0L674.9,469.0L695.8,463.0L709.3,457.8L715.5,457.2L718.4,457.8L719.1,460.1L722.7,459.3L726.6,457.2L728.9,456.6L732.2,457.3L738.1,452.5L743.5,449.2L747.4,448.4L748.8,447.4L755.5,440.6L758.1,438.9L766.9,434.7L777.2,433.6L790.7,429.4L790.2,426.6L787.3,421.1L786.4,418.3L782.3,411.3L780.0,410.1L774.7,409.3L768.2,407.3L761.7,407.7L757.2,409.3L749.8,410.1L744.9,410.0L738.8,407.7L737.2,405.8L736.4,400.0L740.3,392.6L742.7,389.5L742.9,385.1L741.2,381.8L731.2,379.2L729.4,376.8L728.3,373.0L729.3,365.8L730.1,363.5L729.0,355.9L729.8,352.7L729.6,350.0L730.2,346.1L733.1,341.0L736.0,329.7L735.3,325.9L733.9,323.0L728.7,318.0L728.6,313.9L734.0,282.1L732.9,278.0L731.7,275.7L731.4,273.2L732.8,268.9L734.6,266.1L736.7,264.0L740.6,261.2L756.9,253.4L764.3,247.7L771.0,238.0L807.2,203.0L818.3,182.6L828.0,153.7L834.7,122.4L838.2,89.4L851.3,44.0L874.3,1.8L873.5,0.0L767.6,16.6L603.7,42.2L595.0,45.8L516.7,91.6L514.6,93.3L464.8,168.8L463.4,172.2L454.6,205.4L441.5,216.7L430.2,224.3L427.4,225.6L424.3,226.1L411.7,225.5Z " data-id="YE.HD" data-name="Hadramawt" id="YE.HD"/>
utf-8utf-8<path d="M188.3,696.7L189.8,694.1L195.1,687.5L200.0,682.7L202.8,681.1L206.4,680.2L210.4,680.4L214.5,682.0L217.8,686.1L218.1,688.8L221.6,686.2L223.5,685.4L228.9,688.6L234.6,689.4L235.9,688.1L236.1,685.2L233.1,684.8L231.9,685.7L231.3,683.0L232.9,681.2L234.3,682.8L236.1,682.5L239.6,678.3L243.8,678.9L244.7,676.2L245.9,676.1L246.1,677.9L247.7,680.1L247.5,682.0L242.3,682.7L242.2,684.3L248.1,687.2L249.9,686.6L250.2,685.0L249.5,680.5L252.5,668.7L252.5,668.7L244.4,669.4L226.9,674.6L207.1,678.5L198.5,682.0L194.4,684.9L188.2,696.3L188.3,696.7Z " data-id="YE.AD" data-name="`Adan" id="YE.AD"/>
utf-8</g>
</svg>
