<?xml version="1.0" ?>
<!DOCTYPE svg
  PUBLIC '-//W3C//DTD SVG 1.1//EN'
  'http://www.w3.org/Graphics/SVG/1.1/DTD/svg11.dtd'>
<svg enable_background="new 0 0 1000 947" height="947px" pretty_print="True" style="stroke-linejoin: round; stroke:#000; fill: none;" version="1.1" viewBox="0 0 1000 947" width="1000px" xmlns="http://www.w3.org/2000/svg" xmlns:xlink="http://www.w3.org/1999/xlink">
utf-8<defs>
utf-8utf-8<style type="text/css">
<![CDATA[path { fill-rule: evenodd; }]]>utf-8utf-8</style>
utf-8</defs>
utf-8<metadata>
utf-8utf-8<views>
utf-8utf-8utf-8<view h="947.621725393" padding="0" w="1000">
utf-8utf-8utf-8utf-8<proj flip="auto" id="robinson" lon0="29.0375345127"/>
utf-8utf-8utf-8utf-8<bbox h="165.13" w="174.44" x="321.82" y="137.87"/>
utf-8utf-8utf-8</view>
utf-8utf-8</views>
utf-8</metadata>
utf-8<g class="" id="provinces">
utf-8utf-8<path d="M725.7,314.7L725.2,312.4L699.5,291.2L696.7,290.1L686.2,289.9L683.8,291.2L683.4,293.3L679.4,296.9L677.4,301.5L674.9,302.5L673.5,304.7L679.3,268.6L678.8,261.5L676.6,257.1L673.0,253.6L670.8,248.6L658.8,241.7L635.1,255.6L632.8,257.9L634.7,262.2L634.7,265.7L637.5,270.8L636.0,278.2L631.1,275.7L626.6,275.2L619.3,266.7L611.4,263.2L612.2,261.0L618.2,253.9L618.3,242.7L618.9,241.4L629.3,234.1L631.9,231.9L633.6,232.1L636.1,227.6L639.6,222.5L640.0,220.9L638.6,218.3L641.9,211.5L643.0,207.0L652.1,201.1L658.3,197.7L661.0,194.7L667.0,191.7L670.9,192.0L675.6,193.5L677.8,192.8L680.0,189.9L681.5,182.8L682.9,180.1L685.2,177.7L683.0,171.6L685.1,162.5L684.6,156.1L683.2,154.4L680.6,153.4L679.0,149.3L678.0,148.4L674.4,142.8L668.7,142.5L667.4,141.5L663.1,140.4L660.8,139.0L657.2,138.0L655.8,138.3L651.9,136.4L651.0,134.8L648.0,132.8L645.4,128.4L643.3,126.8L640.5,127.3L637.4,125.0L634.7,115.6L635.3,112.3L636.9,111.4L637.8,109.0L636.4,101.6L636.8,99.3L636.2,96.1L635.3,95.3L630.9,93.7L628.8,90.2L625.0,89.7L617.3,83.5L617.5,81.4L622.6,70.6L624.3,69.1L626.8,68.3L632.4,57.2L634.5,48.0L637.3,40.6L645.2,28.3L652.1,25.4L653.4,24.1L658.0,14.5L640.2,17.6L601.9,24.1L601.4,25.1L603.8,27.5L609.1,29.8L612.5,32.7L617.9,36.5L621.4,41.9L621.2,43.6L615.8,58.1L612.3,64.6L610.2,70.9L607.9,74.5L604.2,77.0L601.3,78.3L598.8,84.1L593.5,89.4L592.3,93.4L591.1,94.7L583.3,105.1L583.2,106.7L584.4,109.7L583.2,114.5L584.8,115.0L583.7,117.5L582.2,116.8L579.1,113.1L575.7,112.3L571.9,113.5L566.9,115.7L567.2,112.4L566.6,111.1L566.4,116.0L566.7,117.5L569.7,120.3L571.2,126.5L574.8,126.9L572.2,129.8L573.8,131.8L576.8,145.3L578.9,146.8L579.4,151.9L577.7,157.8L574.9,164.0L574.6,166.1L575.0,173.0L574.6,180.6L573.8,184.4L572.4,187.3L569.5,191.8L573.9,197.3L574.3,199.2L573.2,204.2L573.4,206.6L575.4,211.7L575.3,214.1L574.0,216.9L575.4,222.4L577.4,224.9L576.7,229.2L579.0,234.4L577.9,236.2L574.9,238.9L573.8,238.8L571.6,241.9L570.9,244.0L567.7,248.7L564.6,262.5L563.1,264.2L562.2,270.1L559.8,274.3L560.5,281.5L559.1,285.2L559.2,288.4L555.4,296.6L556.0,300.2L553.3,302.5L548.8,309.7L548.5,311.4L549.3,318.8L550.2,321.6L552.5,324.9L553.8,330.6L554.0,332.8L555.2,334.1L556.1,341.7L559.1,344.4L559.6,349.1L560.5,350.6L562.5,350.0L564.4,351.8L565.6,354.5L567.6,353.2L568.7,354.2L570.1,357.8L575.3,361.3L577.0,361.8L580.0,361.3L580.7,362.1L582.5,367.2L585.4,369.0L588.4,373.5L589.5,376.4L594.4,379.5L596.5,382.6L603.0,396.7L606.4,399.7L609.2,398.7L610.0,400.6L615.3,398.1L622.2,398.0L624.5,400.3L627.3,401.9L631.3,402.1L634.8,404.3L639.3,405.2L640.4,406.2L642.6,406.3L645.1,402.2L644.8,400.5L641.2,399.3L638.7,395.7L639.3,391.1L642.3,385.0L649.0,381.2L652.0,381.3L653.5,383.0L660.3,380.9L663.2,378.6L668.6,377.6L668.6,377.8L670.1,375.6L670.3,371.0L667.2,364.7L667.6,360.5L667.5,354.2L668.5,353.1L707.1,346.1L709.7,344.2L724.7,323.4L725.3,315.5L725.7,315.0L725.7,314.7Z " data-id="ZM.LP" data-name="Luapula" id="ZM.LP"/>
utf-8utf-8<path d="M658.0,14.5L653.4,24.1L652.1,25.4L645.2,28.3L637.3,40.6L634.5,48.0L632.4,57.2L626.8,68.3L624.3,69.1L622.6,70.6L617.5,81.4L617.3,83.5L625.0,89.7L628.8,90.2L630.9,93.7L635.3,95.3L636.2,96.1L636.8,99.3L636.4,101.6L637.8,109.0L636.9,111.4L635.3,112.3L634.7,115.6L637.4,125.0L640.5,127.3L643.3,126.8L645.4,128.4L648.0,132.8L651.0,134.8L651.9,136.4L655.8,138.3L657.2,138.0L660.8,139.0L663.1,140.4L667.4,141.5L668.7,142.5L674.4,142.8L678.0,148.4L679.0,149.3L680.6,153.4L683.2,154.4L684.6,156.1L685.1,162.5L683.0,171.6L685.2,177.7L682.9,180.1L681.5,182.8L680.0,189.9L677.8,192.8L675.6,193.5L670.9,192.0L667.0,191.7L661.0,194.7L658.3,197.7L652.1,201.1L643.0,207.0L641.9,211.5L638.6,218.3L640.0,220.9L639.6,222.5L636.1,227.6L633.6,232.1L631.9,231.9L629.3,234.1L618.9,241.4L618.3,242.7L618.2,253.9L612.2,261.0L611.4,263.2L619.3,266.7L626.6,275.2L631.1,275.7L636.0,278.2L637.5,270.8L634.7,265.7L634.7,262.2L632.8,257.9L635.1,255.6L658.8,241.7L670.8,248.6L673.0,253.6L676.6,257.1L678.8,261.5L679.3,268.6L673.5,304.7L674.9,302.5L677.4,301.5L679.4,296.9L683.4,293.3L683.8,291.2L686.2,289.9L696.7,290.1L699.5,291.2L725.2,312.4L725.7,314.7L725.7,315.0L728.1,313.9L731.3,311.1L733.7,305.2L737.1,303.8L739.7,298.5L743.5,298.5L747.8,293.8L750.5,287.3L757.6,277.6L761.5,270.9L764.1,271.6L762.5,269.6L763.7,269.5L769.6,267.2L773.1,259.1L774.8,259.1L776.1,261.9L777.4,261.4L778.0,258.2L778.8,259.1L779.1,262.1L778.2,263.1L781.4,262.5L785.2,258.8L787.5,254.6L785.6,251.9L786.0,249.2L789.1,249.3L790.5,248.6L786.6,246.4L784.4,242.8L789.4,239.1L791.0,238.8L795.8,239.8L799.9,237.0L799.8,233.2L801.8,232.2L802.0,229.6L806.7,228.3L813.7,223.8L815.0,225.6L820.5,224.3L820.8,200.4L818.1,197.2L809.7,193.2L803.4,188.3L800.8,177.1L797.5,166.6L791.4,154.5L785.2,147.3L791.1,139.2L793.3,133.6L797.6,131.2L802.7,126.4L807.0,123.1L812.6,127.2L819.0,126.6L824.6,129.6L826.8,123.1L833.1,125.5L839.5,124.7L845.3,120.7L852.5,116.7L862.4,115.1L870.9,115.9L879.3,118.3L888.5,119.1L888.0,109.4L884.0,99.0L880.9,87.6L879.3,86.9L872.9,80.9L868.8,81.1L866.4,79.5L864.2,79.1L859.9,81.6L856.3,80.7L854.7,76.9L854.8,72.1L856.4,68.3L843.9,64.4L842.0,64.6L835.6,67.0L834.2,66.4L826.2,59.3L824.3,56.4L823.7,52.3L823.8,48.7L823.3,46.3L821.6,44.7L814.0,39.5L810.5,39.4L809.4,38.6L807.8,35.1L801.3,37.9L798.9,38.4L795.4,34.5L793.4,34.5L792.4,36.2L794.3,37.5L794.6,39.8L793.8,41.3L793.4,49.7L792.3,50.5L790.3,46.7L787.9,49.6L786.7,50.1L786.4,52.5L781.2,55.6L779.7,55.4L765.9,38.0L761.9,34.9L760.7,32.4L755.6,32.1L751.3,29.1L750.8,24.9L748.2,25.1L747.0,26.8L749.2,26.8L747.9,29.0L742.8,33.4L738.4,34.7L741.7,31.4L742.1,28.2L740.1,26.5L736.9,28.1L734.8,28.3L733.3,27.5L733.6,25.4L731.4,23.5L731.1,20.3L732.0,16.7L733.3,13.7L735.0,11.5L742.1,7.8L741.4,6.6L742.2,3.2L742.3,0.0L659.3,14.3L658.0,14.5Z " data-id="ZM.NO" data-name="Northern" id="ZM.NO"/>
utf-8utf-8<path d="M802.3,495.9L802.3,490.0L799.4,486.1L797.4,480.8L796.8,459.8L794.7,455.7L786.5,453.8L783.6,454.9L781.6,460.9L779.1,462.8L776.4,461.9L767.1,454.0L759.2,451.9L756.5,452.6L751.8,450.5L746.2,445.8L746.3,441.2L745.2,436.3L748.5,429.2L747.7,426.1L746.1,425.3L741.4,419.6L737.7,422.8L732.0,417.9L732.6,411.7L730.9,409.9L727.3,407.5L726.6,406.1L728.1,394.0L727.7,393.0L720.8,389.9L719.5,389.0L715.7,388.9L713.0,387.5L711.5,387.5L699.1,382.2L696.9,379.3L693.3,377.5L690.1,371.9L690.1,370.2L688.4,366.1L686.2,363.2L681.5,363.6L673.3,368.8L672.8,373.7L670.3,377.7L668.6,378.1L668.6,378.1L664.9,499.6L663.6,502.6L656.9,502.8L650.5,500.1L648.6,496.1L648.6,494.8L651.5,489.4L653.6,488.5L653.6,483.8L651.2,483.9L644.8,480.3L642.8,481.3L637.8,486.5L636.0,487.7L624.0,492.8L619.0,496.4L612.0,500.5L610.1,496.7L608.2,495.7L604.1,496.1L603.4,496.1L602.7,497.5L599.3,501.2L593.7,508.7L589.6,510.7L582.0,518.4L569.6,528.7L568.9,529.9L569.2,540.5L567.9,541.4L561.1,541.7L554.5,543.9L549.0,544.4L540.0,542.9L535.0,543.7L529.8,542.1L527.3,542.2L525.0,544.1L521.2,544.8L511.5,545.7L507.6,547.1L506.6,546.6L503.2,541.5L498.0,525.9L495.2,524.1L488.1,523.5L482.5,521.0L481.2,522.5L481.2,526.3L478.6,527.8L478.8,529.5L475.2,534.8L475.1,536.9L472.5,534.6L469.7,535.1L469.3,536.3L469.9,539.8L469.0,542.2L464.7,546.4L463.2,547.1L461.6,545.6L460.3,538.4L458.2,535.0L457.6,532.6L457.9,529.9L450.6,528.8L416.3,527.6L417.0,528.0L419.7,533.2L424.5,537.3L423.4,541.3L421.6,544.2L420.3,551.2L420.3,554.9L415.9,558.5L424.4,568.1L425.0,569.3L425.4,575.5L423.8,577.8L423.2,590.8L420.7,594.2L410.3,594.7L406.1,597.5L404.5,598.0L397.6,597.4L394.5,598.5L392.1,597.4L390.6,597.5L387.4,600.0L383.7,605.9L378.2,610.5L374.7,615.1L373.6,617.0L373.0,622.0L369.1,623.7L366.6,621.0L362.9,619.0L358.7,617.7L356.7,614.5L310.5,608.2L306.4,609.6L304.3,611.0L303.7,611.2L300.0,616.5L298.0,621.2L298.3,625.5L297.8,630.7L295.2,632.9L292.8,640.9L293.0,642.6L295.5,648.6L295.3,652.8L291.4,659.6L291.6,662.3L284.0,667.7L283.5,669.5L283.7,673.0L283.4,679.6L402.6,683.2L410.8,684.6L421.7,691.9L422.5,693.3L420.4,695.2L420.8,696.1L440.4,697.2L442.5,698.6L446.2,719.5L447.8,722.4L449.6,720.6L457.0,706.6L458.0,705.4L462.7,704.9L463.9,704.3L469.3,697.0L471.3,697.6L471.7,699.2L475.9,700.7L476.7,703.1L478.6,705.0L478.5,706.8L480.4,714.4L486.1,713.4L486.4,713.2L490.3,704.8L499.3,701.9L501.6,699.5L501.9,697.5L500.7,691.6L498.7,686.8L488.8,683.0L489.3,679.6L493.7,676.5L496.6,675.9L510.8,678.5L524.8,683.6L529.6,684.7L532.3,683.7L534.7,679.2L537.1,672.4L540.0,666.5L542.4,664.9L556.1,669.0L563.4,668.7L570.8,667.8L577.6,665.2L588.3,654.9L593.0,652.7L597.3,651.7L612.2,646.7L619.2,648.7L626.1,648.5L631.7,647.3L634.2,642.6L636.1,635.1L637.4,633.2L642.0,632.5L648.2,628.5L650.0,626.9L668.1,621.5L670.5,617.6L671.6,618.5L676.2,617.3L678.1,619.0L682.3,619.3L681.9,618.7L677.8,613.1L679.2,604.7L681.7,597.3L684.2,595.3L686.4,590.9L693.5,585.0L697.0,581.3L697.4,580.2L700.8,576.8L703.1,575.5L706.7,568.6L705.4,564.4L698.2,560.7L695.2,558.8L693.2,551.1L691.9,549.6L688.6,548.3L753.9,548.1L761.4,540.7L762.4,536.8L770.2,533.1L769.8,531.6L773.5,527.4L775.8,519.1L776.9,517.2L784.3,514.7L785.2,512.3L789.1,508.1L790.9,507.3L796.2,503.1L800.3,502.1L802.2,500.7L802.3,495.9Z " data-id="ZM.CE" data-name="Central" id="ZM.CE"/>
utf-8utf-8<path d="M601.9,496.2L598.8,497.2L597.4,496.8L593.9,492.5L592.6,488.6L590.4,474.4L586.3,472.0L585.6,468.7L584.4,468.2L584.6,464.3L580.2,456.6L574.7,448.2L571.5,444.4L567.6,443.4L566.5,444.2L563.0,448.8L560.9,447.8L560.7,442.9L556.0,436.0L555.5,433.5L558.7,429.5L558.9,427.0L558.0,425.2L555.3,421.8L552.8,414.9L551.7,412.9L544.9,406.1L541.9,404.6L536.3,404.8L532.0,401.4L529.9,402.0L527.4,404.0L525.4,402.2L523.8,399.1L514.9,398.8L513.0,398.1L512.3,393.7L511.1,391.9L506.4,388.7L502.5,387.8L498.8,391.3L496.1,392.0L492.3,392.2L488.5,391.9L486.2,391.0L482.7,386.5L482.2,386.1L476.6,389.9L475.4,391.7L471.8,390.5L471.7,388.8L468.6,386.2L462.7,389.8L461.0,391.9L458.2,393.5L455.6,396.0L445.0,394.8L436.7,394.9L437.7,403.0L436.7,408.0L438.3,412.0L437.5,412.9L432.6,414.5L427.1,422.2L422.0,424.0L420.1,427.1L418.5,434.6L419.5,435.8L423.2,442.1L421.7,445.6L421.1,448.5L425.0,451.8L427.2,452.8L433.6,457.4L433.9,458.2L438.6,458.9L436.0,469.9L434.0,473.4L426.8,480.7L427.0,483.8L428.2,488.6L427.6,491.0L425.7,494.0L423.7,495.1L422.1,498.3L418.8,500.3L413.5,510.0L411.7,514.4L411.2,520.6L413.5,525.5L416.3,527.6L450.6,528.8L457.9,529.9L457.6,532.6L458.2,535.0L460.3,538.4L461.6,545.6L463.2,547.1L464.7,546.4L469.0,542.2L469.9,539.8L469.3,536.3L469.7,535.1L472.5,534.6L475.1,536.9L475.2,534.8L478.8,529.5L478.6,527.8L481.2,526.3L481.2,522.5L482.5,521.0L488.1,523.5L495.2,524.1L498.0,525.9L503.2,541.5L506.6,546.6L507.6,547.1L511.5,545.7L521.2,544.8L525.0,544.1L527.3,542.2L529.8,542.1L535.0,543.7L540.0,542.9L549.0,544.4L554.5,543.9L561.1,541.7L567.9,541.4L569.2,540.5L568.9,529.9L569.6,528.7L582.0,518.4L589.6,510.7L593.7,508.7L599.3,501.2L602.7,497.5L603.4,496.1L601.9,496.2Z " data-id="ZM.CO" data-name="Copperbelt" id="ZM.CO"/>
utf-8utf-8<path d="M965.5,328.6L961.4,329.8L957.9,331.4L956.3,334.1L956.1,338.7L950.2,349.2L946.4,358.0L934.9,362.1L915.6,368.5L905.0,369.3L900.0,369.3L896.3,373.4L894.8,379.0L890.4,383.8L885.4,383.8L878.5,382.1L877.0,388.1L875.2,391.1L868.7,398.9L866.3,402.1L864.9,406.1L864.8,410.3L862.7,419.7L860.3,425.6L860.2,428.8L859.2,434.2L857.9,438.1L855.9,439.4L853.3,447.0L849.0,449.2L846.3,451.9L844.5,452.6L843.7,457.9L844.2,461.8L841.8,462.9L840.7,462.4L839.4,464.3L837.6,464.5L835.2,467.0L827.9,472.7L822.0,483.6L820.1,491.1L817.9,494.0L811.1,499.7L809.7,500.3L804.9,499.3L803.1,500.0L802.2,500.7L800.3,502.1L796.2,503.1L790.9,507.3L789.1,508.1L785.2,512.3L784.3,514.7L776.9,517.2L775.8,519.1L773.5,527.4L769.8,531.6L770.2,533.1L762.4,536.8L761.4,540.7L753.9,548.1L688.6,548.3L691.9,549.6L693.2,551.1L695.2,558.8L698.2,560.7L705.4,564.4L706.7,568.6L703.1,575.5L700.8,576.8L697.4,580.2L697.0,581.3L693.5,585.0L686.4,590.9L684.2,595.3L681.7,597.3L679.2,604.7L677.8,613.1L681.9,618.7L682.3,619.3L682.6,620.0L686.2,624.0L689.4,628.9L691.5,630.5L694.8,634.6L695.2,637.5L695.0,649.1L695.0,649.1L703.8,647.7L718.1,639.9L746.2,628.6L766.6,623.5L768.2,623.3L796.7,615.7L804.0,612.7L817.9,604.7L849.8,593.1L856.3,589.9L859.5,588.8L866.3,587.4L949.5,556.2L948.1,554.3L945.7,548.8L942.0,551.4L936.6,554.5L933.8,559.3L932.3,559.7L930.0,555.4L930.5,550.6L930.2,548.7L927.4,547.8L926.5,543.4L922.5,537.6L913.3,533.5L912.9,530.9L917.0,528.2L914.3,520.9L912.1,519.8L909.0,519.8L906.4,519.1L905.5,516.1L905.9,514.1L910.6,513.9L918.3,509.5L919.0,504.1L919.8,503.1L923.8,501.4L925.4,497.7L928.1,487.1L929.7,483.4L931.9,480.4L934.5,479.6L934.8,477.2L933.5,474.9L932.5,470.0L934.2,459.4L936.7,453.5L937.2,450.9L936.5,448.5L931.8,443.8L931.5,436.7L933.1,432.4L936.3,427.4L939.1,421.6L941.9,418.8L943.8,420.9L946.1,419.3L948.8,419.1L950.7,422.4L951.5,422.3L956.2,418.4L957.7,415.1L961.6,413.1L964.9,414.4L968.7,412.6L972.9,407.4L975.5,406.3L978.7,400.2L982.2,396.9L982.1,395.0L976.5,393.3L970.2,395.4L967.3,394.3L965.7,391.4L964.4,384.8L960.3,377.8L959.7,376.2L960.1,369.8L963.6,361.0L965.1,351.7L964.2,349.6L965.5,344.4L965.9,340.9L965.5,328.6Z " data-id="ZM.EA" data-name="Eastern" id="ZM.EA"/>
utf-8utf-8<path d="M678.1,619.0L676.2,617.3L671.6,618.5L670.5,617.6L668.1,621.5L650.0,626.9L648.2,628.5L642.0,632.5L637.4,633.2L636.1,635.1L634.2,642.6L631.7,647.3L626.1,648.5L619.2,648.7L612.2,646.7L597.3,651.7L593.0,652.7L588.3,654.9L577.6,665.2L570.8,667.8L563.4,668.7L556.1,669.0L542.4,664.9L540.0,666.5L537.1,672.4L534.7,679.2L532.3,683.7L529.6,684.7L524.8,683.6L510.8,678.5L496.6,675.9L493.7,676.5L489.3,679.6L488.8,683.0L498.7,686.8L500.7,691.6L501.9,697.5L501.6,699.5L499.3,701.9L490.3,704.8L486.4,713.2L490.0,713.1L493.5,714.6L494.6,717.1L497.5,715.6L500.9,714.7L504.3,714.8L507.3,716.5L509.9,721.2L513.2,722.0L521.3,725.6L526.9,729.3L530.8,726.8L539.2,726.2L550.1,731.2L553.5,735.4L556.6,736.8L562.7,736.9L568.2,741.9L578.8,741.4L580.3,739.8L585.2,742.8L585.5,742.6L593.2,741.8L598.5,734.5L605.8,728.9L624.6,719.5L633.2,718.4L637.9,714.5L640.0,713.9L645.1,714.9L647.1,714.6L652.0,712.8L655.6,712.2L661.1,709.9L664.8,710.3L671.9,712.5L675.5,712.9L685.6,710.8L688.9,711.6L692.0,713.6L696.1,711.3L702.1,713.5L704.5,713.4L709.3,711.2L708.5,708.4L705.8,704.8L706.3,701.3L707.9,698.0L706.6,686.9L705.0,681.4L704.0,680.1L700.1,677.7L698.2,673.1L695.5,661.1L695.4,652.6L694.9,649.8L695.0,649.1L695.2,637.5L694.8,634.6L691.5,630.5L689.4,628.9L686.2,624.0L682.6,620.0L682.3,619.3L678.1,619.0Z " data-id="ZM.LS" data-name="Lusaka" id="ZM.LS"/>
utf-8utf-8<path d="M477.8,382.0L476.5,380.0L472.8,366.8L472.5,363.0L468.8,355.3L453.3,344.5L451.5,336.1L451.4,328.2L450.7,323.8L446.3,322.6L442.7,322.9L439.5,324.1L436.0,324.0L434.9,325.3L435.8,331.2L435.6,333.8L432.1,338.7L431.2,342.5L430.7,350.4L428.9,354.1L425.9,357.3L422.6,359.4L419.0,360.2L412.9,359.8L409.3,364.0L407.5,364.5L403.1,361.4L400.0,360.7L393.1,360.1L390.1,359.0L386.0,355.0L384.0,354.3L377.6,355.0L374.1,357.2L371.4,356.2L368.3,356.4L363.1,353.4L348.6,353.7L346.0,352.7L344.9,349.7L341.9,348.0L337.4,343.8L327.7,344.0L326.2,343.6L323.0,341.6L320.4,338.8L317.5,336.8L313.7,336.6L312.4,339.1L308.5,341.3L306.8,341.3L305.1,339.4L305.7,335.5L304.3,334.0L299.5,331.4L297.9,329.2L293.7,327.6L293.0,326.0L290.9,318.1L291.1,314.6L292.2,313.1L289.4,304.8L291.8,298.8L290.0,296.3L292.8,294.7L293.4,291.1L293.4,286.5L292.4,285.5L289.7,286.0L281.7,290.5L276.6,291.7L264.5,292.9L261.3,292.6L257.7,293.8L251.4,297.3L248.1,298.1L241.7,298.1L238.5,299.6L235.1,303.8L229.0,309.5L226.3,309.6L222.8,311.1L217.3,310.4L214.6,307.4L207.6,305.8L205.6,303.4L206.7,302.4L210.2,301.2L214.8,293.6L215.3,287.7L214.9,286.0L212.5,282.6L212.6,281.2L214.2,278.4L213.3,276.4L208.8,272.5L207.0,271.6L200.6,271.1L197.5,270.1L192.7,270.9L192.1,269.7L191.5,261.6L192.0,259.9L190.2,257.0L186.6,255.5L182.6,254.6L179.8,254.5L182.6,265.1L181.2,277.7L181.7,279.0L183.3,279.3L182.7,293.0L183.1,295.4L186.7,304.7L182.2,310.9L181.7,318.2L179.3,322.2L177.2,327.9L177.2,330.4L179.3,336.4L179.7,346.9L177.7,351.6L176.1,377.4L176.5,381.7L180.3,387.2L181.1,389.6L181.3,395.4L182.1,399.8L181.8,401.4L174.2,414.0L173.1,416.7L169.6,430.5L167.9,434.8L167.3,438.6L168.0,441.7L169.6,444.4L174.1,449.7L177.2,455.5L178.1,459.0L8.0,459.0L6.8,516.8L6.6,525.5L8.1,525.8L14.9,531.4L16.7,532.0L19.5,531.7L22.0,530.4L26.2,525.0L31.3,525.9L32.2,526.6L44.2,538.1L49.8,542.0L53.2,546.1L59.0,547.9L61.8,551.5L63.8,552.0L67.3,553.9L69.0,552.1L70.2,546.6L71.1,545.6L78.0,542.6L79.5,542.3L81.6,543.3L88.8,548.7L91.1,553.2L94.1,553.9L96.2,552.9L100.0,554.1L100.8,559.2L103.2,561.0L110.5,562.2L107.0,567.8L106.6,569.7L110.1,568.3L110.0,571.0L113.4,571.0L117.0,568.1L122.2,567.7L125.7,564.4L128.1,563.1L136.8,560.5L141.3,557.1L144.8,556.1L149.1,553.9L153.2,556.0L156.0,554.1L158.9,553.3L161.8,550.6L161.7,552.5L166.9,554.6L180.2,551.7L181.8,552.6L182.9,550.0L189.5,548.0L191.3,548.0L194.6,545.8L199.0,548.8L201.1,548.9L201.6,544.5L208.3,550.8L209.8,549.7L214.5,550.5L215.0,548.4L217.0,547.0L222.3,553.2L227.6,551.5L228.6,554.4L228.9,552.3L231.1,550.9L232.1,551.4L236.6,559.9L236.5,562.3L238.1,566.4L238.8,566.8L249.1,569.9L258.4,575.2L260.7,575.9L264.0,575.2L266.5,578.7L266.5,582.1L263.8,588.5L262.7,595.8L258.7,598.9L256.8,599.6L255.5,604.4L255.6,610.4L258.3,614.1L262.8,615.8L264.5,615.2L270.0,615.3L274.0,614.4L278.2,612.5L285.8,610.2L295.3,612.7L298.7,612.6L302.1,610.9L304.3,611.0L306.4,609.6L310.5,608.2L356.7,614.5L358.7,617.7L362.9,619.0L366.6,621.0L369.1,623.7L373.0,622.0L373.6,617.0L374.7,615.1L378.2,610.5L383.7,605.9L387.4,600.0L390.6,597.5L392.1,597.4L394.5,598.5L397.6,597.4L404.5,598.0L406.1,597.5L410.3,594.7L420.7,594.2L423.2,590.8L423.8,577.8L425.4,575.5L425.0,569.3L424.4,568.1L415.9,558.5L420.3,554.9L420.3,551.2L421.6,544.2L423.4,541.3L424.5,537.3L419.7,533.2L417.0,528.0L416.3,527.6L413.5,525.5L411.2,520.6L411.7,514.4L413.5,510.0L418.8,500.3L422.1,498.3L423.7,495.1L425.7,494.0L427.6,491.0L428.2,488.6L427.0,483.8L426.8,480.7L434.0,473.4L436.0,469.9L438.6,458.9L433.9,458.2L433.6,457.4L427.2,452.8L425.0,451.8L421.1,448.5L421.7,445.6L423.2,442.1L419.5,435.8L418.5,434.6L420.1,427.1L422.0,424.0L427.1,422.2L432.6,414.5L437.5,412.9L438.3,412.0L436.7,408.0L437.7,403.0L436.7,394.9L445.0,394.8L455.6,396.0L458.2,393.5L461.0,391.9L462.7,389.8L468.6,386.2L471.7,388.8L471.8,390.5L475.4,391.7L476.6,389.9L482.2,386.1L477.8,382.0Z " data-id="ZM.NW" data-name="North-Western" id="ZM.NW"/>
utf-8utf-8<path d="M585.2,742.8L580.3,739.8L578.8,741.4L568.2,741.9L562.7,736.9L556.6,736.8L553.5,735.4L550.1,731.2L539.2,726.2L530.8,726.8L526.9,729.3L521.3,725.6L513.2,722.0L509.9,721.2L507.3,716.5L504.3,714.8L500.9,714.7L497.5,715.6L494.6,717.1L493.5,714.6L490.0,713.1L486.4,713.2L486.1,713.4L480.4,714.4L478.5,706.8L478.6,705.0L476.7,703.1L475.9,700.7L471.7,699.2L471.3,697.6L469.3,697.0L463.9,704.3L462.7,704.9L458.0,705.4L457.0,706.6L449.6,720.6L447.8,722.4L446.2,719.5L442.5,698.6L440.4,697.2L420.8,696.1L420.4,695.2L422.5,693.3L421.7,691.9L410.8,684.6L402.6,683.2L283.4,679.6L283.8,680.9L285.0,683.5L282.5,688.1L282.5,691.2L280.6,695.8L276.1,697.4L278.0,702.6L276.8,704.8L274.4,706.9L276.6,711.1L277.3,711.5L276.1,718.0L276.5,720.1L280.1,724.0L283.0,722.7L285.2,720.4L286.5,720.8L288.1,723.5L286.4,735.0L283.5,742.0L284.2,743.6L282.3,746.1L282.2,749.1L286.1,753.9L289.5,755.0L289.1,756.5L285.0,760.3L280.8,767.8L277.4,775.0L270.8,779.6L268.7,780.4L264.8,783.5L254.0,797.3L252.7,797.6L254.9,802.5L257.8,804.7L259.0,808.4L260.9,811.5L269.7,812.7L272.6,814.3L272.8,816.7L272.4,824.7L274.5,833.9L270.8,840.6L264.1,844.3L261.4,853.5L259.1,854.9L257.7,857.4L256.6,867.4L251.9,873.3L251.2,880.3L251.3,884.0L248.1,888.1L246.5,896.7L246.6,896.8L249.6,899.5L252.3,899.1L252.1,902.1L254.2,902.6L255.8,904.5L256.9,907.9L258.8,910.0L260.1,908.8L264.3,915.5L268.5,916.9L270.5,919.9L274.5,922.9L279.5,923.7L283.1,925.0L289.4,925.0L298.6,923.2L303.1,921.1L312.0,924.6L315.1,928.2L318.8,930.0L320.0,931.7L318.6,932.2L319.8,936.2L324.8,938.9L329.3,938.9L334.0,936.2L338.0,935.4L339.3,933.0L341.2,932.4L349.2,927.7L352.2,930.7L356.0,931.2L365.5,933.1L371.7,937.0L378.7,939.3L382.2,942.9L383.5,943.7L390.4,945.3L392.8,942.9L397.4,941.5L405.4,937.5L407.4,938.2L411.4,935.6L415.3,935.4L419.5,931.2L420.2,929.0L426.4,923.1L426.7,921.8L422.7,923.7L422.1,922.9L422.8,919.8L424.6,919.2L422.9,917.9L427.4,912.9L429.5,909.0L430.7,909.3L433.1,905.0L435.1,904.1L435.3,902.1L440.1,901.0L441.2,896.5L442.1,896.1L444.9,897.4L445.5,896.1L444.3,895.3L446.7,894.8L447.5,893.4L448.1,888.0L447.0,886.2L443.6,887.6L442.8,886.5L449.4,878.0L453.5,874.5L454.8,872.9L453.3,872.5L452.3,869.5L453.5,868.6L456.9,868.1L460.8,864.5L460.6,862.5L461.6,859.3L466.4,851.7L468.5,850.7L471.5,846.7L473.3,849.8L472.4,851.4L475.2,850.6L477.7,848.7L473.3,845.4L474.5,844.0L478.1,843.0L479.7,841.5L478.3,838.2L480.0,834.9L480.8,836.7L483.2,836.4L491.5,832.6L483.9,828.2L485.6,824.3L491.0,825.4L491.8,821.9L490.8,821.1L494.8,821.1L496.2,820.3L495.9,823.8L499.7,822.8L500.5,823.8L499.8,827.2L500.9,828.4L503.1,828.9L506.0,828.3L508.6,826.7L510.2,824.4L508.1,823.4L509.2,822.1L509.9,818.4L512.6,818.7L513.8,819.8L516.9,815.3L519.0,814.0L520.4,811.9L517.9,813.3L518.3,809.8L517.2,808.6L520.0,808.0L521.6,810.5L522.2,809.3L523.8,810.0L524.1,805.3L525.7,806.3L531.1,804.0L529.2,801.1L526.7,798.7L530.8,799.4L531.2,801.0L534.8,800.3L534.0,801.9L536.4,803.7L540.0,800.5L540.5,799.0L544.0,798.0L544.6,796.1L546.1,796.9L546.4,800.7L549.6,799.0L550.8,799.4L552.0,797.4L549.3,797.2L555.9,795.0L559.4,792.8L560.9,793.1L561.2,796.6L562.2,798.1L564.7,797.9L565.7,798.7L572.9,792.1L576.1,784.2L576.2,782.0L575.0,774.3L577.2,769.1L575.9,766.4L576.5,762.5L578.3,755.3L577.6,751.7L581.0,746.5L583.9,743.4L585.2,742.8Z " data-id="ZM.SO" data-name="Southern" id="ZM.SO"/>
utf-8utf-8<path d="M302.1,610.9L298.7,612.6L295.3,612.7L285.8,610.2L278.2,612.5L274.0,614.4L270.0,615.3L264.5,615.2L262.8,615.8L258.3,614.1L255.6,610.4L255.5,604.4L256.8,599.6L258.7,598.9L262.7,595.8L263.8,588.5L266.5,582.1L266.5,578.7L264.0,575.2L260.7,575.9L258.4,575.2L249.1,569.9L238.8,566.8L238.1,566.4L236.5,562.3L236.6,559.9L232.1,551.4L231.1,550.9L228.9,552.3L228.6,554.4L227.6,551.5L222.3,553.2L217.0,547.0L215.0,548.4L214.5,550.5L209.8,549.7L208.3,550.8L201.6,544.5L201.1,548.9L199.0,548.8L194.6,545.8L191.3,548.0L189.5,548.0L182.9,550.0L181.8,552.6L180.2,551.7L166.9,554.6L161.7,552.5L161.8,550.6L158.9,553.3L156.0,554.1L153.2,556.0L149.1,553.9L144.8,556.1L141.3,557.1L136.8,560.5L128.1,563.1L125.7,564.4L122.2,567.7L117.0,568.1L113.4,571.0L110.0,571.0L110.1,568.3L106.6,569.7L107.0,567.8L110.5,562.2L103.2,561.0L100.8,559.2L100.0,554.1L96.2,552.9L94.1,553.9L91.1,553.2L88.8,548.7L81.6,543.3L79.5,542.3L78.0,542.6L71.1,545.6L70.2,546.6L69.0,552.1L67.3,553.9L63.8,552.0L61.8,551.5L59.0,547.9L53.2,546.1L49.8,542.0L44.2,538.1L32.2,526.6L31.3,525.9L26.2,525.0L22.0,530.4L19.5,531.7L16.7,532.0L14.9,531.4L8.1,525.8L6.6,525.5L6.4,531.3L4.0,632.6L2.1,703.5L1.3,732.9L0.5,760.8L0.7,762.8L2.8,765.9L5.6,771.1L2.8,771.1L4.3,776.3L6.0,779.2L8.9,782.6L7.9,790.9L10.0,796.1L10.0,799.1L12.5,800.0L13.5,804.3L20.5,810.8L22.3,811.2L25.4,810.2L32.5,817.7L35.3,819.4L43.7,834.8L46.3,835.7L47.5,837.7L47.4,839.3L54.2,842.8L55.4,843.8L61.7,853.3L62.5,857.8L70.1,865.1L72.3,866.8L77.2,869.2L82.4,871.2L85.7,875.3L86.8,879.0L88.3,881.8L92.2,886.2L95.8,887.8L96.7,888.9L96.6,893.3L99.0,894.9L103.4,894.1L106.1,894.4L110.2,896.8L113.5,900.7L113.3,904.5L121.3,903.1L184.0,889.0L191.5,889.3L198.2,888.2L214.9,893.7L219.0,890.2L222.8,890.2L229.9,891.5L240.6,893.9L242.8,895.1L243.8,896.8L245.5,895.9L246.5,896.7L248.1,888.1L251.3,884.0L251.2,880.3L251.9,873.3L256.6,867.4L257.7,857.4L259.1,854.9L261.4,853.5L264.1,844.3L270.8,840.6L274.5,833.9L272.4,824.7L272.8,816.7L272.6,814.3L269.7,812.7L260.9,811.5L259.0,808.4L257.8,804.7L254.9,802.5L252.7,797.6L254.0,797.3L264.8,783.5L268.7,780.4L270.8,779.6L277.4,775.0L280.8,767.8L285.0,760.3L289.1,756.5L289.5,755.0L286.1,753.9L282.2,749.1L282.3,746.1L284.2,743.6L283.5,742.0L286.4,735.0L288.1,723.5L286.5,720.8L285.2,720.4L283.0,722.7L280.1,724.0L276.5,720.1L276.1,718.0L277.3,711.5L276.6,711.1L274.4,706.9L276.8,704.8L278.0,702.6L276.1,697.4L280.6,695.8L282.5,691.2L282.5,688.1L285.0,683.5L283.8,680.9L283.4,679.6L283.7,673.0L283.5,669.5L284.0,667.7L291.6,662.3L291.4,659.6L295.3,652.8L295.5,648.6L293.0,642.6L292.8,640.9L295.2,632.9L297.8,630.7L298.3,625.5L298.0,621.2L300.0,616.5L303.7,611.2L304.3,611.0L302.1,610.9Z " data-id="ZM.WE" data-name="Western" id="ZM.WE"/>
utf-8utf-8<path d="M880.9,87.6L884.0,99.0L888.0,109.4L888.5,119.1L879.3,118.3L870.9,115.9L862.4,115.1L852.5,116.7L845.3,120.7L839.5,124.7L833.1,125.5L826.8,123.1L824.6,129.6L819.0,126.6L812.6,127.2L807.0,123.1L802.7,126.4L797.6,131.2L793.3,133.6L791.1,139.2L785.2,147.3L791.4,154.5L797.5,166.6L800.8,177.1L803.4,188.3L809.7,193.2L818.1,197.2L820.8,200.4L820.5,224.3L815.0,225.6L813.7,223.8L806.7,228.3L802.0,229.6L801.8,232.2L799.8,233.2L799.9,237.0L795.8,239.8L791.0,238.8L789.4,239.1L784.4,242.8L786.6,246.4L790.5,248.6L789.1,249.3L786.0,249.2L785.6,251.9L787.5,254.6L785.2,258.8L781.4,262.5L778.2,263.1L779.1,262.1L778.8,259.1L778.0,258.2L777.4,261.4L776.1,261.9L774.8,259.1L773.1,259.1L769.6,267.2L763.7,269.5L762.5,269.6L764.1,271.6L761.5,270.9L757.6,277.6L750.5,287.3L747.8,293.8L743.5,298.5L739.7,298.5L737.1,303.8L733.7,305.2L731.3,311.1L728.1,313.9L725.7,315.0L725.3,315.5L724.7,323.4L709.7,344.2L707.1,346.1L668.5,353.1L667.5,354.2L667.6,360.5L667.2,364.7L670.3,371.0L670.1,375.6L668.6,377.8L668.6,378.1L670.3,377.7L672.8,373.7L673.3,368.8L681.5,363.6L686.2,363.2L688.4,366.1L690.1,370.2L690.1,371.9L693.3,377.5L696.9,379.3L699.1,382.2L711.5,387.5L713.0,387.5L715.7,388.9L719.5,389.0L720.8,389.9L727.7,393.0L728.1,394.0L726.6,406.1L727.3,407.5L730.9,409.9L732.6,411.7L732.0,417.9L737.7,422.8L741.4,419.6L746.1,425.3L747.7,426.1L748.5,429.2L745.2,436.3L746.3,441.2L746.2,445.8L751.8,450.5L756.5,452.6L759.2,451.9L767.1,454.0L776.4,461.9L779.1,462.8L781.6,460.9L783.6,454.9L786.5,453.8L794.7,455.7L796.8,459.8L797.4,480.8L799.4,486.1L802.3,490.0L802.3,495.9L802.2,500.7L803.1,500.0L804.9,499.3L809.7,500.3L811.1,499.7L817.9,494.0L820.1,491.1L822.0,483.6L827.9,472.7L835.2,467.0L837.6,464.5L839.4,464.3L840.7,462.4L841.8,462.9L844.2,461.8L843.7,457.9L844.5,452.6L846.3,451.9L849.0,449.2L853.3,447.0L855.9,439.4L857.9,438.1L859.2,434.2L860.2,428.8L860.3,425.6L862.7,419.7L864.8,410.3L864.9,406.1L866.3,402.1L868.7,398.9L875.2,391.1L877.0,388.1L878.5,382.1L885.4,383.8L890.4,383.8L894.8,379.0L896.3,373.4L900.0,369.3L905.0,369.3L915.6,368.5L934.9,362.1L946.4,358.0L950.2,349.2L956.1,338.7L956.3,334.1L957.9,331.4L961.4,329.8L965.5,328.6L965.4,325.3L963.8,322.3L959.6,322.2L957.9,320.9L960.0,315.0L959.8,306.8L960.7,305.4L962.7,307.4L963.5,306.1L964.0,301.8L965.9,300.1L965.8,298.4L972.0,288.2L974.0,282.6L971.5,277.3L967.0,270.1L966.3,267.2L965.4,258.5L964.2,257.3L961.3,256.9L962.2,253.9L964.9,253.9L966.2,253.0L968.9,249.3L974.5,247.7L977.3,248.3L982.6,245.8L986.8,239.1L991.1,233.9L996.7,229.8L999.5,226.2L998.9,220.2L996.6,219.9L995.3,218.2L993.8,213.9L990.2,209.6L988.1,203.7L987.9,201.3L988.6,196.0L988.4,193.0L984.1,187.8L981.9,186.9L977.4,182.1L970.6,178.6L969.5,176.9L971.8,167.4L974.4,163.1L975.1,161.0L972.8,153.8L969.7,152.5L967.0,149.7L965.9,147.1L962.1,143.2L961.3,133.9L959.7,132.6L955.1,132.3L953.2,131.2L951.5,138.3L949.7,137.6L948.8,134.5L947.9,134.0L944.8,135.5L943.7,135.1L942.7,132.5L944.4,125.5L944.4,122.9L941.9,120.9L939.0,120.8L938.7,119.5L938.6,113.9L937.3,113.0L931.1,110.3L927.2,107.3L921.3,102.2L915.3,101.6L908.1,99.8L904.9,99.5L897.1,88.5L893.8,87.6L882.7,87.8L880.9,87.6Z " data-id="ZM.MU" data-name="Muchinga" id="ZM.MU"/>
utf-8</g>
</svg>
