<?xml version="1.0" ?>
<!DOCTYPE svg
  PUBLIC '-//W3C//DTD SVG 1.1//EN'
  'http://www.w3.org/Graphics/SVG/1.1/DTD/svg11.dtd'>
<svg enable_background="new 0 0 1000 995" height="995px" pretty_print="True" style="stroke-linejoin: round; stroke:#000; fill: none;" version="1.1" viewBox="0 0 1000 995" width="1000px" xmlns="http://www.w3.org/2000/svg" xmlns:xlink="http://www.w3.org/1999/xlink">
utf-8<defs>
utf-8utf-8<style type="text/css">
<![CDATA[path { fill-rule: evenodd; }]]>utf-8utf-8</style>
utf-8</defs>
utf-8<metadata>
utf-8utf-8<views>
utf-8utf-8utf-8<view h="995.490491638" padding="0" w="1000">
utf-8utf-8utf-8utf-8<proj flip="auto" id="robinson" lon0="31.5977771671"/>
utf-8utf-8utf-8utf-8<bbox h="113.72" w="114.35" x="368.2" y="261.84"/>
utf-8utf-8utf-8</view>
utf-8utf-8</views>
utf-8</metadata>
utf-8<g class="" id="provinces">
utf-8utf-8<path d="M965.8,159.9L962.6,157.1L961.6,151.3L961.1,145.8L959.7,144.3L911.9,122.6L901.9,120.9L876.6,121.6L863.4,119.3L861.5,118.2L860.4,116.0L860.0,110.4L859.0,107.8L857.6,106.4L852.3,103.3L850.0,100.9L842.6,91.6L839.2,88.4L836.1,86.8L814.9,85.2L810.0,82.5L808.2,81.0L800.4,80.2L797.9,78.2L795.0,73.6L792.6,72.1L791.1,70.0L788.9,65.1L787.1,62.5L782.7,59.9L769.9,56.5L764.2,56.0L760.9,58.2L759.8,60.2L756.8,59.0L754.9,60.1L747.9,65.9L745.8,65.5L742.0,61.5L737.0,57.5L731.4,56.2L673.2,56.6L674.4,3.1L669.3,5.4L665.6,5.5L661.6,3.6L661.1,11.1L661.5,13.2L664.5,19.8L662.8,23.7L628.2,55.7L627.5,58.8L629.1,61.0L632.3,62.6L632.1,68.4L633.2,73.1L634.0,74.0L634.2,77.3L639.4,80.8L638.8,83.7L633.0,89.6L632.3,92.9L631.5,102.3L629.9,103.5L625.9,111.2L625.7,112.7L628.6,114.7L630.5,114.3L632.8,110.5L635.6,109.8L638.4,110.6L640.9,108.6L647.0,105.3L647.3,104.6L647.1,98.3L648.3,96.6L654.3,95.4L657.5,95.9L658.1,96.6L660.0,102.6L662.1,105.4L663.7,106.2L671.0,105.8L673.6,108.5L675.0,113.5L674.7,117.3L672.9,120.6L671.8,126.1L667.8,137.5L666.6,143.7L666.8,146.0L669.9,151.3L681.9,158.3L683.6,163.2L683.3,167.0L685.1,168.1L687.1,171.6L687.3,174.8L683.5,182.3L683.7,195.2L684.6,197.5L686.6,199.4L687.4,201.4L685.4,203.4L688.1,211.5L692.0,211.2L693.7,212.1L699.7,209.2L701.4,212.7L704.9,211.0L707.8,211.7L709.2,214.6L707.3,226.7L704.7,231.2L699.5,237.2L701.1,239.7L700.9,241.2L693.1,256.2L694.5,264.5L694.5,268.9L692.4,281.0L692.3,284.5L693.5,285.4L711.4,285.4L712.3,286.1L710.3,293.9L711.9,295.7L718.8,298.8L728.0,304.2L731.2,301.3L733.5,302.2L736.7,308.7L738.7,310.8L741.2,311.5L746.4,310.8L748.9,309.2L750.0,306.8L750.7,300.5L753.8,288.3L751.8,285.2L754.2,279.1L756.4,274.4L759.9,271.6L779.9,273.5L780.7,275.6L775.9,288.0L775.5,289.5L776.6,294.1L777.4,295.2L783.0,292.7L787.3,294.7L798.6,284.6L800.9,285.3L806.3,276.6L818.2,269.7L820.6,267.3L823.2,262.4L834.6,250.5L836.8,247.5L838.2,244.2L838.1,232.4L839.3,230.3L846.3,224.4L847.5,222.2L855.5,214.6L859.3,207.8L860.3,203.0L864.3,195.6L866.3,193.8L870.5,191.6L872.4,188.9L874.2,182.0L877.8,175.9L885.5,172.2L889.9,173.7L892.7,173.5L898.7,171.5L905.9,167.5L911.1,167.7L916.3,166.1L922.6,162.1L925.9,160.8L929.1,160.4L946.3,162.7L950.6,164.9L957.9,165.6L962.5,164.2L966.6,160.3L965.8,159.9Z " data-id="ZW.MC" data-name="Mashonaland Central" id="ZW.MC"/>
utf-8utf-8<path d="M725.4,345.4L734.2,349.3L740.3,353.8L746.4,356.9L751.4,355.1L753.6,353.2L752.4,350.7L756.2,346.4L756.7,340.7L756.4,339.1L763.3,334.3L764.3,330.8L766.4,326.5L765.3,323.7L764.9,318.5L763.8,313.8L764.4,311.3L764.2,306.5L763.6,305.8L755.9,305.1L755.0,304.6L753.1,300.7L750.7,300.5L750.0,306.8L748.9,309.2L746.4,310.8L741.2,311.5L738.7,310.8L736.7,308.7L735.0,313.2L731.3,317.8L727.1,320.0L725.8,330.5L726.5,333.2L729.1,334.8L730.6,338.2L725.6,341.2L722.1,342.0L725.4,345.4Z " data-id="ZW.HA" data-name="Harare" id="ZW.HA"/>
utf-8utf-8<path d="M365.0,213.9L362.8,210.5L361.0,210.3L360.7,207.9L354.6,207.5L355.4,209.2L354.0,211.0L351.8,209.8L350.7,210.2L351.3,212.8L349.1,217.0L343.1,221.1L337.7,222.8L340.2,226.9L338.4,227.5L335.0,223.9L333.4,224.2L328.8,227.8L322.3,230.8L320.2,232.4L322.5,232.8L318.7,238.0L316.1,236.7L315.9,238.6L317.3,243.0L314.3,244.5L313.3,246.0L314.3,249.2L311.2,252.0L308.8,256.2L303.5,273.0L302.6,273.0L302.0,269.4L300.7,275.5L293.2,278.0L288.5,278.4L288.3,281.0L283.7,287.1L285.7,286.9L289.9,283.0L287.0,287.8L284.7,289.2L282.8,288.1L281.8,289.1L279.1,286.9L274.1,291.0L256.6,310.8L255.5,313.7L258.0,315.1L258.0,317.3L255.8,316.4L254.0,316.8L248.5,321.3L249.8,326.1L247.9,329.5L240.0,336.5L239.6,339.3L238.3,338.4L235.2,342.4L236.4,342.6L238.5,345.2L236.0,344.3L234.1,346.2L232.3,345.6L230.5,347.1L229.9,345.2L228.1,344.0L222.1,344.3L215.9,348.3L212.9,347.2L200.7,353.3L193.8,355.4L190.0,359.1L186.6,359.2L179.5,356.6L177.5,355.5L172.3,349.9L161.6,346.4L152.0,340.5L137.6,337.5L130.6,336.3L128.4,332.8L127.2,332.3L115.1,339.4L112.1,340.4L110.1,343.9L105.7,344.5L104.9,346.3L104.0,345.3L96.8,349.3L89.9,349.3L82.3,345.3L80.3,341.2L80.5,339.1L82.6,338.3L80.9,335.8L75.2,333.1L70.5,327.4L67.8,325.9L63.0,324.5L60.0,321.8L56.8,322.2L49.9,325.4L36.0,328.2L26.4,328.2L20.9,326.2L13.2,324.8L9.4,321.5L6.3,319.3L0.7,331.8L0.5,336.0L1.2,339.5L4.6,349.6L9.5,359.5L12.8,363.6L17.0,366.4L20.7,369.8L23.2,375.2L26.9,386.5L30.8,393.9L34.8,407.9L42.8,417.7L47.0,420.9L48.7,422.9L54.4,432.4L57.9,435.9L62.7,438.6L65.8,441.8L67.1,446.9L67.4,457.7L71.6,468.7L87.0,484.4L89.4,499.1L87.1,504.5L86.6,507.5L86.9,511.1L87.9,513.8L90.8,519.6L94.4,525.2L97.1,531.6L107.8,569.3L110.8,574.6L115.7,578.0L121.3,579.6L128.1,579.8L129.4,580.5L132.8,584.5L133.1,585.7L131.0,590.6L131.6,592.5L136.5,593.7L139.3,595.4L142.5,601.3L144.9,603.8L147.2,604.8L152.1,606.1L154.5,607.1L159.5,610.8L161.6,613.2L163.3,619.3L165.0,621.2L167.3,622.4L173.0,624.2L174.8,625.3L175.2,625.8L183.7,621.1L208.8,614.6L216.2,615.3L234.0,612.9L242.3,615.2L243.7,614.9L247.9,615.3L252.0,615.0L253.8,613.4L256.9,612.3L263.7,613.3L274.5,619.8L282.2,621.5L283.3,622.0L285.2,624.9L286.8,626.2L288.5,635.0L293.2,641.7L297.4,647.1L302.6,651.3L311.6,661.2L316.5,664.8L318.4,667.2L326.7,669.8L330.7,669.8L333.1,658.9L336.2,651.4L341.0,659.8L348.2,657.1L359.3,654.8L362.7,658.6L364.5,659.4L370.5,671.3L373.0,673.6L373.7,675.7L376.3,677.9L380.5,685.9L381.0,688.2L383.7,691.5L401.4,677.5L404.8,676.0L406.6,672.0L406.4,670.6L403.4,667.2L399.3,668.1L392.1,666.8L394.9,662.1L396.2,654.9L395.2,649.6L397.3,647.0L404.3,651.2L407.4,651.0L412.6,648.7L416.3,648.0L416.2,654.0L418.1,654.4L420.8,656.4L425.2,655.2L426.0,658.0L428.5,659.7L427.1,666.5L430.4,669.3L429.1,673.3L426.0,675.0L417.4,677.1L423.8,682.9L426.4,682.9L430.0,678.9L430.9,676.7L435.5,672.5L448.7,656.1L449.2,654.4L448.9,648.5L455.6,645.0L464.7,639.5L466.3,638.2L468.6,634.3L469.0,632.5L468.0,629.3L466.0,618.3L474.7,619.4L477.8,618.3L480.9,616.0L483.4,610.1L484.6,600.8L484.3,598.1L481.7,595.9L480.2,590.7L486.0,585.3L487.9,582.4L488.4,580.2L488.0,576.7L484.4,571.6L485.6,568.6L488.2,568.3L497.3,571.8L500.3,569.9L501.5,567.3L486.2,550.6L485.7,549.6L489.1,543.6L488.1,539.4L477.2,525.8L474.7,522.8L474.7,517.8L477.0,513.8L473.6,502.6L469.4,499.3L468.4,495.9L462.5,458.9L462.7,456.2L464.9,454.3L471.8,452.5L494.6,442.1L495.8,441.2L496.0,436.5L494.4,433.1L492.4,432.2L444.7,432.8L436.2,430.9L433.6,431.9L429.1,432.5L421.1,432.4L415.1,434.2L409.9,434.5L405.7,433.9L399.1,433.9L396.2,434.5L392.2,434.1L379.5,433.7L365.4,430.7L358.5,431.7L352.8,429.0L352.3,424.9L354.5,382.0L359.3,379.9L366.2,379.1L366.8,377.2L361.9,375.2L360.0,372.3L363.5,367.0L362.1,357.9L358.6,358.2L357.4,357.4L355.7,350.5L355.8,349.4L360.1,344.9L361.4,341.0L363.7,338.3L363.6,335.1L366.8,326.3L365.6,319.4L367.2,313.5L370.7,310.2L374.4,311.1L382.1,303.3L381.7,296.8L384.6,288.4L384.3,284.3L384.6,281.2L389.1,268.3L389.6,262.9L388.4,256.5L380.1,249.1L378.7,243.1L378.7,239.4L377.2,235.7L377.9,234.0L376.6,227.5L377.1,225.8L376.4,223.8L371.3,223.1L365.5,214.3L365.0,213.9Z " data-id="ZW.MN" data-name="Matabeleland North" id="ZW.MN"/>
utf-8utf-8<path d="M646.2,470.9L642.6,468.8L639.7,468.1L633.1,464.8L630.5,461.6L626.3,458.8L621.9,457.6L616.2,457.5L607.7,454.7L601.6,452.2L599.5,452.9L591.1,453.4L587.0,451.2L580.6,446.9L572.4,443.3L570.9,442.2L564.9,440.8L562.3,441.5L556.2,437.6L552.6,436.2L550.5,432.5L550.8,426.8L550.6,420.0L552.3,417.0L553.3,412.2L554.8,408.4L554.8,404.9L549.4,401.8L532.4,389.4L528.1,387.7L524.6,382.9L521.9,381.4L516.2,373.0L513.0,369.5L509.2,361.2L508.3,357.6L508.4,354.3L510.0,344.1L513.8,335.0L516.6,329.3L519.8,321.8L522.6,318.5L524.5,315.3L522.4,311.1L526.0,306.9L526.8,304.4L527.6,297.2L526.9,292.4L525.5,290.7L525.4,288.2L529.2,283.9L536.6,274.0L535.4,272.7L531.2,270.7L523.1,259.9L519.9,250.2L518.8,249.2L510.6,248.7L502.7,245.5L500.0,243.3L496.4,242.3L493.0,239.0L484.3,235.8L482.5,233.7L478.6,223.8L469.5,226.1L466.0,225.5L450.9,232.7L449.7,234.6L447.4,235.7L444.7,235.2L441.6,236.9L436.3,243.5L433.5,249.1L428.2,256.0L422.9,260.8L414.1,259.0L410.1,259.1L397.1,262.4L393.8,263.8L389.6,262.9L389.1,268.3L384.6,281.2L384.3,284.3L384.6,288.4L381.7,296.8L382.1,303.3L374.4,311.1L370.7,310.2L367.2,313.5L365.6,319.4L366.8,326.3L363.6,335.1L363.7,338.3L361.4,341.0L360.1,344.9L355.8,349.4L355.7,350.5L357.4,357.4L358.6,358.2L362.1,357.9L363.5,367.0L360.0,372.3L361.9,375.2L366.8,377.2L366.2,379.1L359.3,379.9L354.5,382.0L352.3,424.9L352.8,429.0L358.5,431.7L365.4,430.7L379.5,433.7L392.2,434.1L396.2,434.5L399.1,433.9L405.7,433.9L409.9,434.5L415.1,434.2L421.1,432.4L429.1,432.5L433.6,431.9L436.2,430.9L444.7,432.8L492.4,432.2L494.4,433.1L496.0,436.5L495.8,441.2L494.6,442.1L471.8,452.5L464.9,454.3L462.7,456.2L462.5,458.9L468.4,495.9L469.4,499.3L473.6,502.6L477.0,513.8L474.7,517.8L474.7,522.8L477.2,525.8L488.1,539.4L489.1,543.6L485.7,549.6L486.2,550.6L501.5,567.3L507.6,573.9L509.3,576.2L510.4,580.2L514.1,588.1L516.9,591.0L519.8,599.2L523.0,602.9L525.1,609.6L523.4,616.7L523.9,621.5L525.1,624.4L528.7,624.1L530.9,623.0L533.9,623.4L542.0,628.0L549.1,633.2L558.2,631.0L559.8,638.8L560.9,639.1L569.8,636.8L571.7,636.8L574.1,642.3L577.0,641.1L580.6,648.4L580.1,651.3L570.8,670.7L569.3,679.5L560.9,699.4L560.6,706.3L559.0,711.8L558.0,713.9L553.7,718.3L546.6,714.4L546.2,722.1L544.5,726.9L544.5,728.6L542.0,730.6L540.9,733.3L544.8,740.5L552.3,739.5L544.0,773.6L543.0,775.8L524.4,789.2L523.0,791.9L524.4,792.6L530.9,793.7L535.5,795.0L540.7,795.1L549.7,792.9L553.6,792.4L555.7,792.4L562.0,793.3L567.2,791.6L582.8,778.0L590.3,777.3L595.8,782.1L597.7,783.0L603.5,789.1L606.3,790.0L611.3,793.7L621.2,794.8L626.3,792.2L628.6,793.7L632.3,794.3L645.5,781.7L646.9,777.8L646.7,767.1L648.9,763.7L650.6,758.5L652.5,748.2L654.6,744.3L653.5,738.9L652.4,738.0L650.9,733.8L651.2,731.2L650.6,728.0L651.5,722.1L646.6,715.7L645.1,710.4L642.4,708.4L636.1,702.5L635.3,701.3L634.8,696.9L631.1,696.1L628.6,695.0L624.3,688.7L625.5,683.5L625.7,677.6L624.2,672.4L618.5,670.3L615.0,672.0L615.1,667.7L616.1,661.7L617.8,658.6L618.9,653.5L617.8,649.3L619.3,647.8L629.1,642.7L630.6,642.4L650.4,641.5L652.2,634.2L655.3,631.8L656.1,628.4L655.2,623.7L656.7,620.8L657.9,620.0L668.8,619.6L674.4,622.1L678.1,623.3L681.3,623.4L685.1,622.3L687.3,620.7L686.1,618.3L686.5,612.1L688.1,607.4L688.4,601.8L691.2,590.0L690.5,582.6L692.2,574.8L693.0,562.8L693.3,561.5L697.3,559.1L697.9,557.9L696.3,555.4L692.4,554.4L691.4,552.9L692.5,551.8L711.0,535.8L707.8,533.9L702.6,531.2L700.8,528.6L693.7,521.1L694.3,514.5L696.0,513.3L695.5,510.2L692.0,504.5L689.6,499.5L689.5,496.6L691.2,493.5L687.5,491.8L681.4,491.4L676.6,490.1L674.1,487.4L669.8,485.9L664.4,483.3L659.3,478.6L657.2,477.5L650.5,475.6L646.2,470.9Z " data-id="ZW.MI" data-name="Midlands" id="ZW.MI"/>
utf-8utf-8<path d="M993.4,236.5L992.1,227.4L989.2,219.0L977.7,194.4L977.6,193.4L987.2,183.6L989.3,180.7L991.7,175.9L997.1,156.3L989.4,160.2L987.3,160.8L983.3,160.5L975.6,158.6L971.6,158.3L966.6,160.3L966.6,160.3L962.5,164.2L957.9,165.6L950.6,164.9L946.3,162.7L929.1,160.4L925.9,160.8L922.6,162.1L916.3,166.1L911.1,167.7L905.9,167.5L898.7,171.5L892.7,173.5L889.9,173.7L885.5,172.2L877.8,175.9L874.2,182.0L872.4,188.9L870.5,191.6L866.3,193.8L864.3,195.6L860.3,203.0L859.3,207.8L855.5,214.6L847.5,222.2L846.3,224.4L839.3,230.3L838.1,232.4L838.2,244.2L836.8,247.5L834.6,250.5L823.2,262.4L820.6,267.3L818.2,269.7L806.3,276.6L800.9,285.3L798.6,284.6L787.3,294.7L783.0,292.7L777.4,295.2L776.6,294.1L775.5,289.5L775.9,288.0L780.7,275.6L779.9,273.5L759.9,271.6L756.4,274.4L754.2,279.1L751.8,285.2L753.8,288.3L750.7,300.5L753.1,300.7L755.0,304.6L755.9,305.1L763.6,305.8L764.2,306.5L764.4,311.3L763.8,313.8L764.9,318.5L765.3,323.7L766.4,326.5L764.3,330.8L763.3,334.3L756.4,339.1L756.7,340.7L756.2,346.4L752.4,350.7L753.6,353.2L751.4,355.1L746.4,356.9L740.3,353.8L734.2,349.3L725.4,345.4L722.1,342.0L721.5,341.4L716.4,338.9L714.5,338.5L712.6,348.5L709.6,351.1L709.4,355.0L711.1,359.8L710.6,361.4L707.5,364.8L706.1,369.5L706.1,373.1L701.7,380.3L698.2,382.8L697.6,389.7L704.2,398.3L708.1,403.7L708.6,406.7L705.2,410.3L704.5,413.0L702.6,433.3L700.8,437.5L695.1,443.3L688.1,455.0L684.1,452.8L682.5,453.8L683.0,456.9L682.3,458.5L675.1,455.9L673.7,456.7L674.2,459.5L672.6,460.8L668.4,461.8L665.7,455.0L664.5,450.7L661.6,450.7L655.5,463.0L653.8,471.0L652.8,473.2L650.5,475.6L657.2,477.5L659.3,478.6L664.4,483.3L669.8,485.9L674.1,487.4L676.6,490.1L681.4,491.4L687.5,491.8L691.2,493.5L689.5,496.6L689.6,499.5L692.0,504.5L695.5,510.2L696.0,513.3L694.3,514.5L693.7,521.1L700.8,528.6L702.6,531.2L707.8,533.9L711.0,535.8L716.7,530.3L716.5,524.6L720.6,523.0L723.8,518.9L725.1,518.7L730.4,519.5L728.3,528.8L728.8,532.0L734.3,532.9L754.3,532.3L766.8,530.8L768.3,530.0L768.7,522.8L770.1,519.3L770.5,513.5L773.1,510.4L779.4,510.6L783.4,511.8L786.5,509.5L790.5,513.0L791.2,516.7L795.2,517.6L796.9,518.8L798.6,518.5L803.1,512.9L807.1,503.5L805.9,499.8L810.4,500.2L814.5,502.3L816.9,502.4L825.4,501.1L829.2,503.1L833.8,508.6L835.7,510.2L840.3,511.5L845.2,514.3L855.2,515.3L856.1,512.7L855.7,509.1L857.1,495.5L855.8,491.5L853.9,486.9L851.8,485.1L850.9,483.2L849.2,470.5L846.0,461.7L841.5,460.8L838.6,456.9L838.2,454.0L834.2,447.5L831.3,441.9L830.4,437.2L831.2,435.2L830.5,427.7L828.6,424.0L831.1,421.7L832.3,416.2L835.1,413.8L840.7,412.4L843.2,409.6L843.5,405.3L845.5,401.2L844.7,395.1L845.6,388.6L850.7,381.7L852.3,378.2L852.4,373.8L883.8,340.4L884.4,334.7L885.6,329.2L894.0,323.4L896.8,322.2L899.2,319.4L900.6,316.8L903.1,313.9L907.4,311.1L912.8,305.4L918.6,302.2L924.8,301.8L929.4,296.4L933.9,294.1L936.3,293.8L942.9,290.6L948.5,284.4L949.6,279.2L951.3,277.0L960.3,272.5L961.6,267.7L965.8,259.4L966.8,257.9L975.7,251.0L980.1,247.0L989.8,242.8L993.3,241.9L993.4,236.5Z " data-id="ZW.ME" data-name="Mashonaland East" id="ZW.ME"/>
utf-8utf-8<path d="M993.3,241.9L989.8,242.8L980.1,247.0L975.7,251.0L966.8,257.9L965.8,259.4L961.6,267.7L960.3,272.5L951.3,277.0L949.6,279.2L948.5,284.4L942.9,290.6L936.3,293.8L933.9,294.1L929.4,296.4L924.8,301.8L918.6,302.2L912.8,305.4L907.4,311.1L903.1,313.9L900.6,316.8L899.2,319.4L896.8,322.2L894.0,323.4L885.6,329.2L884.4,334.7L883.8,340.4L852.4,373.8L852.3,378.2L850.7,381.7L845.6,388.6L844.7,395.1L845.5,401.2L843.5,405.3L843.2,409.6L840.7,412.4L835.1,413.8L832.3,416.2L831.1,421.7L828.6,424.0L830.5,427.7L831.2,435.2L830.4,437.2L831.3,441.9L834.2,447.5L838.2,454.0L838.6,456.9L841.5,460.8L846.0,461.7L849.2,470.5L850.9,483.2L851.8,485.1L853.9,486.9L855.8,491.5L857.1,495.5L855.7,509.1L856.1,512.7L855.2,515.3L845.2,514.3L840.3,511.5L835.7,510.2L833.8,508.6L829.2,503.1L825.4,501.1L816.9,502.4L814.5,502.3L810.4,500.2L805.9,499.8L807.1,503.5L803.1,512.9L798.6,518.5L796.9,518.8L795.2,517.6L791.2,516.7L790.5,513.0L786.5,509.5L783.4,511.8L779.4,510.6L773.1,510.4L770.5,513.5L770.1,519.3L768.7,522.8L768.3,530.0L766.8,530.8L754.3,532.3L755.8,534.6L775.9,548.5L783.3,554.7L786.9,553.6L789.6,554.4L790.8,555.9L794.6,557.2L800.0,561.4L802.6,564.8L809.0,566.4L810.8,567.2L816.0,568.5L817.3,573.6L821.0,577.7L822.1,581.5L824.5,584.6L830.2,588.1L834.1,595.1L836.9,598.9L842.2,605.0L843.2,609.5L846.2,613.9L849.4,615.6L851.7,619.2L854.4,622.5L857.0,624.7L862.5,626.6L865.9,629.9L872.2,629.6L876.0,630.8L884.1,637.9L890.5,641.5L892.8,643.1L893.8,645.8L893.0,660.4L884.7,701.6L883.1,722.2L881.7,729.3L879.7,732.1L877.9,740.8L873.8,746.7L872.8,752.3L870.1,759.8L865.1,769.2L861.8,777.1L863.3,781.4L864.1,788.2L867.8,793.3L868.1,794.8L866.6,797.0L875.2,801.8L880.5,817.9L880.3,820.1L882.1,822.9L893.9,831.4L898.6,834.8L898.3,833.5L889.9,816.4L889.7,812.7L886.3,808.5L903.6,785.9L906.9,779.5L907.9,773.9L905.9,743.0L906.4,736.9L908.0,730.7L912.3,725.1L917.9,724.3L923.8,725.1L929.3,724.1L932.7,720.3L941.7,703.1L956.5,684.4L957.5,682.5L959.5,675.9L958.9,670.3L961.6,664.6L962.9,657.5L964.1,656.2L968.2,655.1L969.3,653.0L970.3,648.5L972.1,646.8L978.9,647.1L978.0,642.5L979.0,631.7L981.8,623.1L982.3,617.0L983.9,610.8L982.7,609.2L977.3,606.0L975.3,603.6L974.4,601.1L975.7,595.4L975.7,592.4L973.5,591.0L971.1,591.9L967.0,596.2L964.1,597.0L958.9,596.3L957.6,594.7L958.6,588.7L959.2,587.3L958.9,582.6L960.3,572.0L960.4,569.3L959.7,566.1L957.9,565.4L953.2,565.6L951.9,563.9L951.9,560.9L953.0,554.9L953.3,549.2L958.3,543.3L962.1,535.0L962.4,531.4L966.9,513.2L966.4,508.2L963.3,504.6L961.5,499.4L957.9,498.5L950.0,499.8L945.9,498.0L945.0,489.3L945.3,487.5L949.7,484.2L948.1,483.0L947.4,480.9L946.9,473.0L947.2,471.6L959.7,465.3L963.6,464.7L968.8,465.2L972.2,464.8L974.5,462.9L976.0,459.7L977.1,455.8L977.6,451.0L976.8,447.0L973.3,438.7L972.0,433.4L971.7,430.4L972.1,427.9L973.8,425.9L978.5,424.2L986.2,419.8L988.6,417.9L989.6,414.9L987.7,411.3L990.8,405.7L994.6,402.6L995.3,401.0L994.4,398.2L992.3,395.4L986.6,390.1L984.8,387.0L984.3,384.8L987.8,377.4L987.7,371.5L983.9,356.3L983.8,353.0L984.8,348.9L983.2,345.5L986.0,342.6L986.5,338.1L985.2,334.0L986.5,325.2L988.1,322.8L993.6,319.3L994.3,313.9L994.3,307.5L995.0,301.9L997.4,296.5L998.0,293.7L997.6,290.6L996.0,288.1L991.3,285.6L987.5,277.6L987.6,275.9L990.5,273.0L996.0,262.3L999.5,255.9L993.6,246.6L993.3,243.4L993.3,241.9Z " data-id="ZW.MA" data-name="Manicaland" id="ZW.MA"/>
utf-8utf-8<path d="M553.6,792.4L549.7,792.9L540.7,795.1L535.5,795.0L530.9,793.7L524.4,792.6L523.0,791.9L524.4,789.2L543.0,775.8L544.0,773.6L552.3,739.5L544.8,740.5L540.9,733.3L542.0,730.6L544.5,728.6L544.5,726.9L546.2,722.1L546.6,714.4L553.7,718.3L558.0,713.9L559.0,711.8L560.6,706.3L560.9,699.4L569.3,679.5L570.8,670.7L580.1,651.3L580.6,648.4L577.0,641.1L574.1,642.3L571.7,636.8L569.8,636.8L560.9,639.1L559.8,638.8L558.2,631.0L549.1,633.2L542.0,628.0L533.9,623.4L530.9,623.0L528.7,624.1L525.1,624.4L523.9,621.5L523.4,616.7L525.1,609.6L523.0,602.9L519.8,599.2L516.9,591.0L514.1,588.1L510.4,580.2L509.3,576.2L507.6,573.9L501.5,567.3L500.3,569.9L497.3,571.8L488.2,568.3L485.6,568.6L484.4,571.6L488.0,576.7L488.4,580.2L487.9,582.4L486.0,585.3L480.2,590.7L481.7,595.9L484.3,598.1L484.6,600.8L483.4,610.1L480.9,616.0L477.8,618.3L474.7,619.4L466.0,618.3L468.0,629.3L469.0,632.5L468.6,634.3L466.3,638.2L464.7,639.5L455.6,645.0L448.9,648.5L449.2,654.4L448.7,656.1L435.5,672.5L430.9,676.7L430.0,678.9L426.4,682.9L423.8,682.9L417.4,677.1L415.9,676.2L412.4,675.2L408.1,678.9L406.9,678.9L404.8,676.0L401.4,677.5L383.7,691.5L381.0,688.2L380.5,685.9L376.3,677.9L373.7,675.7L373.0,673.6L370.5,671.3L364.5,659.4L362.7,658.6L359.3,654.8L348.2,657.1L341.0,659.8L336.2,651.4L333.1,658.9L330.7,669.8L326.7,669.8L318.4,667.2L316.5,664.8L311.6,661.2L302.6,651.3L297.4,647.1L293.2,641.7L288.5,635.0L286.8,626.2L285.2,624.9L283.3,622.0L282.2,621.5L274.5,619.8L263.7,613.3L256.9,612.3L253.8,613.4L252.0,615.0L247.9,615.3L243.7,614.9L242.3,615.2L234.0,612.9L216.2,615.3L208.8,614.6L183.7,621.1L175.2,625.8L176.1,627.0L179.6,631.8L181.7,633.0L187.3,633.6L192.0,634.6L206.0,642.5L210.6,643.4L214.8,643.4L218.9,643.9L223.0,646.4L227.5,652.5L229.1,653.1L238.4,654.5L240.7,656.0L242.2,658.6L248.0,676.7L249.6,693.9L246.7,715.0L251.6,712.3L256.1,711.7L270.4,711.7L280.6,713.1L287.8,711.7L292.2,714.0L297.3,714.0L299.5,715.0L301.2,717.0L302.1,719.5L301.5,725.3L299.7,730.5L298.5,735.7L301.2,747.4L301.2,753.2L298.8,765.1L296.3,769.3L295.5,777.6L296.1,785.9L295.8,789.0L294.0,796.7L293.8,799.3L294.8,802.0L298.8,808.5L300.7,810.8L309.2,817.8L312.8,822.8L315.8,828.3L320.1,834.3L322.2,842.3L324.1,844.7L327.5,853.0L326.0,858.8L327.8,860.3L327.5,863.6L329.6,864.2L333.4,871.5L337.1,873.5L344.5,874.0L353.9,876.0L369.0,876.3L373.6,877.2L378.6,879.1L388.6,884.9L391.3,885.5L402.8,882.1L406.8,883.2L412.3,884.2L417.0,888.4L422.8,890.4L440.9,899.8L444.7,900.9L452.4,901.4L456.0,902.3L458.2,904.0L463.2,905.7L465.2,907.5L465.4,910.3L459.9,920.4L459.1,926.6L459.8,932.8L462.0,938.4L465.6,942.8L470.2,945.4L474.8,946.3L486.8,945.9L489.2,949.4L490.8,953.6L501.7,963.5L503.6,963.5L511.1,959.2L513.8,958.6L520.0,960.2L523.2,960.6L525.8,956.7L528.2,956.1L532.5,956.5L537.3,954.2L539.9,953.8L542.1,955.6L543.6,954.9L552.2,954.5L554.7,955.3L561.8,960.6L566.1,961.6L569.1,963.3L575.5,964.3L584.0,968.5L586.7,972.5L590.5,972.9L592.3,973.8L595.8,976.6L598.7,978.3L600.9,978.5L606.6,977.6L612.0,978.7L619.4,984.7L623.7,985.8L628.4,985.6L636.0,983.8L640.9,981.4L645.7,980.6L653.9,981.7L657.5,981.6L661.4,983.7L663.3,983.1L666.9,980.5L669.4,979.6L683.5,978.4L687.8,976.6L691.4,977.7L699.0,978.6L712.6,982.1L716.8,984.2L719.0,984.6L720.2,984.3L718.1,980.0L714.3,978.9L713.6,975.2L712.2,972.8L710.1,963.6L705.5,962.7L705.8,961.0L703.7,959.2L701.8,958.8L699.5,952.8L698.5,951.3L698.0,948.1L697.2,947.0L693.2,946.5L692.6,944.4L688.4,939.2L685.6,937.4L682.8,936.7L684.2,931.8L680.9,928.2L680.1,926.6L680.1,923.4L673.2,913.0L670.1,910.9L668.6,906.1L668.4,903.6L665.9,901.4L666.2,899.0L662.2,899.1L655.1,896.4L654.2,894.4L650.1,888.7L651.2,885.8L643.5,883.1L633.9,876.8L629.1,877.0L618.9,875.6L617.2,874.3L616.4,869.7L614.4,869.0L609.8,866.2L608.9,863.3L600.2,859.5L597.8,857.9L596.2,855.0L592.1,851.1L590.2,847.1L588.3,845.2L583.6,841.7L581.8,839.1L580.2,834.2L577.9,832.3L577.6,829.7L574.7,828.1L574.3,822.0L570.3,819.2L568.3,813.6L568.0,811.6L565.1,809.7L558.1,801.5L557.3,799.3L555.7,792.4L553.6,792.4Z " data-id="ZW.MS" data-name="Matabeleland South" id="ZW.MS"/>
utf-8utf-8<path d="M426.0,675.0L429.1,673.3L430.4,669.3L427.1,666.5L428.5,659.7L426.0,658.0L425.2,655.2L420.8,656.4L418.1,654.4L416.2,654.0L416.3,648.0L412.6,648.7L407.4,651.0L404.3,651.2L397.3,647.0L395.2,649.6L396.2,654.9L394.9,662.1L392.1,666.8L399.3,668.1L403.4,667.2L406.4,670.6L406.6,672.0L404.8,676.0L406.9,678.9L408.1,678.9L412.4,675.2L415.9,676.2L417.4,677.1L426.0,675.0Z " data-id="ZW.BU" data-name="Bulawayo" id="ZW.BU"/>
utf-8utf-8<path d="M893.9,831.4L882.1,822.9L880.3,820.1L880.5,817.9L875.2,801.8L866.6,797.0L868.1,794.8L867.8,793.3L864.1,788.2L863.3,781.4L861.8,777.1L865.1,769.2L870.1,759.8L872.8,752.3L873.8,746.7L877.9,740.8L879.7,732.1L881.7,729.3L883.1,722.2L884.7,701.6L893.0,660.4L893.8,645.8L892.8,643.1L890.5,641.5L884.1,637.9L876.0,630.8L872.2,629.6L865.9,629.9L862.5,626.6L857.0,624.7L854.4,622.5L851.7,619.2L849.4,615.6L846.2,613.9L843.2,609.5L842.2,605.0L836.9,598.9L834.1,595.1L830.2,588.1L824.5,584.6L822.1,581.5L821.0,577.7L817.3,573.6L816.0,568.5L810.8,567.2L809.0,566.4L802.6,564.8L800.0,561.4L794.6,557.2L790.8,555.9L789.6,554.4L786.9,553.6L783.3,554.7L775.9,548.5L755.8,534.6L754.3,532.3L734.3,532.9L728.8,532.0L728.3,528.8L730.4,519.5L725.1,518.7L723.8,518.9L720.6,523.0L716.5,524.6L716.7,530.3L711.0,535.8L692.5,551.8L691.4,552.9L692.4,554.4L696.3,555.4L697.9,557.9L697.3,559.1L693.3,561.5L693.0,562.8L692.2,574.8L690.5,582.6L691.2,590.0L688.4,601.8L688.1,607.4L686.5,612.1L686.1,618.3L687.3,620.7L685.1,622.3L681.3,623.4L678.1,623.3L674.4,622.1L668.8,619.6L657.9,620.0L656.7,620.8L655.2,623.7L656.1,628.4L655.3,631.8L652.2,634.2L650.4,641.5L630.6,642.4L629.1,642.7L619.3,647.8L617.8,649.3L618.9,653.5L617.8,658.6L616.1,661.7L615.1,667.7L615.0,672.0L618.5,670.3L624.2,672.4L625.7,677.6L625.5,683.5L624.3,688.7L628.6,695.0L631.1,696.1L634.8,696.9L635.3,701.3L636.1,702.5L642.4,708.4L645.1,710.4L646.6,715.7L651.5,722.1L650.6,728.0L651.2,731.2L650.9,733.8L652.4,738.0L653.5,738.9L654.6,744.3L652.5,748.2L650.6,758.5L648.9,763.7L646.7,767.1L646.9,777.8L645.5,781.7L632.3,794.3L628.6,793.7L626.3,792.2L621.2,794.8L611.3,793.7L606.3,790.0L603.5,789.1L597.7,783.0L595.8,782.1L590.3,777.3L582.8,778.0L567.2,791.6L562.0,793.3L555.7,792.4L557.3,799.3L558.1,801.5L565.1,809.7L568.0,811.6L568.3,813.6L570.3,819.2L574.3,822.0L574.7,828.1L577.6,829.7L577.9,832.3L580.2,834.2L581.8,839.1L583.6,841.7L588.3,845.2L590.2,847.1L592.1,851.1L596.2,855.0L597.8,857.9L600.2,859.5L608.9,863.3L609.8,866.2L614.4,869.0L616.4,869.7L617.2,874.3L618.9,875.6L629.1,877.0L633.9,876.8L643.5,883.1L651.2,885.8L650.1,888.7L654.2,894.4L655.1,896.4L662.2,899.1L666.2,899.0L665.9,901.4L668.4,903.6L668.6,906.1L670.1,910.9L673.2,913.0L680.1,923.4L680.1,926.6L680.9,928.2L684.2,931.8L682.8,936.7L685.6,937.4L688.4,939.2L692.6,944.4L693.2,946.5L697.2,947.0L698.0,948.1L698.5,951.3L699.5,952.8L701.8,958.8L703.7,959.2L705.8,961.0L705.5,962.7L710.1,963.6L712.2,972.8L713.6,975.2L714.3,978.9L718.1,980.0L720.2,984.3L721.1,984.1L725.5,981.9L727.4,981.6L728.7,982.5L732.8,986.9L734.7,988.3L741.3,988.8L744.0,993.5L763.1,979.5L784.1,955.7L889.1,836.9L893.9,831.4Z " data-id="ZW.MV" data-name="Masvingo" id="ZW.MV"/>
utf-8utf-8<path d="M365.5,214.3L371.3,223.1L376.4,223.8L377.1,225.8L376.6,227.5L377.9,234.0L377.2,235.7L378.7,239.4L378.7,243.1L380.1,249.1L388.4,256.5L389.6,262.9L393.8,263.8L397.1,262.4L410.1,259.1L414.1,259.0L422.9,260.8L428.2,256.0L433.5,249.1L436.3,243.5L441.6,236.9L444.7,235.2L447.4,235.7L449.7,234.6L450.9,232.7L466.0,225.5L469.5,226.1L478.6,223.8L482.5,233.7L484.3,235.8L493.0,239.0L496.4,242.3L500.0,243.3L502.7,245.5L510.6,248.7L518.8,249.2L519.9,250.2L523.1,259.9L531.2,270.7L535.4,272.7L536.6,274.0L529.2,283.9L525.4,288.2L525.5,290.7L526.9,292.4L527.6,297.2L526.8,304.4L526.0,306.9L522.4,311.1L524.5,315.3L522.6,318.5L519.8,321.8L516.6,329.3L513.8,335.0L510.0,344.1L508.4,354.3L508.3,357.6L509.2,361.2L513.0,369.5L516.2,373.0L521.9,381.4L524.6,382.9L528.1,387.7L532.4,389.4L549.4,401.8L554.8,404.9L554.8,408.4L553.3,412.2L552.3,417.0L550.6,420.0L550.8,426.8L550.5,432.5L552.6,436.2L556.2,437.6L562.3,441.5L564.9,440.8L570.9,442.2L572.4,443.3L580.6,446.9L587.0,451.2L591.1,453.4L599.5,452.9L601.6,452.2L607.7,454.7L616.2,457.5L621.9,457.6L626.3,458.8L630.5,461.6L633.1,464.8L639.7,468.1L642.6,468.8L646.2,470.9L650.5,475.6L652.8,473.2L653.8,471.0L655.5,463.0L661.6,450.7L664.5,450.7L665.7,455.0L668.4,461.8L672.6,460.8L674.2,459.5L673.7,456.7L675.1,455.9L682.3,458.5L683.0,456.9L682.5,453.8L684.1,452.8L688.1,455.0L695.1,443.3L700.8,437.5L702.6,433.3L704.5,413.0L705.2,410.3L708.6,406.7L708.1,403.7L704.2,398.3L697.6,389.7L698.2,382.8L701.7,380.3L706.1,373.1L706.1,369.5L707.5,364.8L710.6,361.4L711.1,359.8L709.4,355.0L709.6,351.1L712.6,348.5L714.5,338.5L716.4,338.9L721.5,341.4L722.1,342.0L725.6,341.2L730.6,338.2L729.1,334.8L726.5,333.2L725.8,330.5L727.1,320.0L731.3,317.8L735.0,313.2L736.7,308.7L733.5,302.2L731.2,301.3L728.0,304.2L718.8,298.8L711.9,295.7L710.3,293.9L712.3,286.1L711.4,285.4L693.5,285.4L692.3,284.5L692.4,281.0L694.5,268.9L694.5,264.5L693.1,256.2L700.9,241.2L701.1,239.7L699.5,237.2L704.7,231.2L707.3,226.7L709.2,214.6L707.8,211.7L704.9,211.0L701.4,212.7L699.7,209.2L693.7,212.1L692.0,211.2L688.1,211.5L685.4,203.4L687.4,201.4L686.6,199.4L684.6,197.5L683.7,195.2L683.5,182.3L687.3,174.8L687.1,171.6L685.1,168.1L683.3,167.0L683.6,163.2L681.9,158.3L669.9,151.3L666.8,146.0L666.6,143.7L667.8,137.5L671.8,126.1L672.9,120.6L674.7,117.3L675.0,113.5L673.6,108.5L671.0,105.8L663.7,106.2L662.1,105.4L660.0,102.6L658.1,96.6L657.5,95.9L654.3,95.4L648.3,96.6L647.1,98.3L647.3,104.6L647.0,105.3L640.9,108.6L638.4,110.6L635.6,109.8L632.8,110.5L630.5,114.3L628.6,114.7L625.7,112.7L625.9,111.2L629.9,103.5L631.5,102.3L632.3,92.9L633.0,89.6L638.8,83.7L639.4,80.8L634.2,77.3L634.0,74.0L633.2,73.1L632.1,68.4L632.3,62.6L629.1,61.0L627.5,58.8L628.2,55.7L662.8,23.7L664.5,19.8L661.5,13.2L661.1,11.1L661.6,3.6L659.6,2.6L656.4,2.1L650.2,5.6L645.5,2.5L640.4,1.3L635.3,2.1L630.1,3.7L625.0,4.6L619.5,3.9L608.7,0.6L603.0,0.0L600.0,0.7L594.7,3.4L589.1,4.4L581.7,7.1L578.6,7.6L570.8,6.0L567.7,6.9L562.8,11.4L560.4,13.0L549.3,14.1L547.4,14.6L518.6,29.0L513.9,34.3L510.1,35.8L507.5,37.5L504.1,41.1L501.2,46.8L499.5,48.6L496.3,49.2L490.5,49.3L485.3,51.1L480.8,55.8L475.6,63.7L476.8,69.2L475.9,74.2L474.0,80.3L473.1,86.1L475.1,90.3L471.8,98.1L471.2,101.3L471.6,103.8L473.4,110.0L473.3,113.3L468.4,125.4L466.6,127.7L461.4,131.9L460.3,134.4L462.8,134.1L471.2,134.8L476.7,138.5L469.7,139.5L473.1,141.4L479.4,140.7L484.6,137.5L485.5,138.5L482.6,143.5L489.3,144.9L490.4,146.5L484.7,147.8L481.2,151.0L484.0,151.6L480.3,157.7L480.2,160.8L476.2,154.3L474.8,153.5L472.7,154.4L470.7,156.5L469.9,158.6L471.9,159.6L473.0,162.0L472.1,166.8L469.3,170.3L464.2,168.7L464.6,171.3L461.2,175.7L458.9,175.1L455.7,175.3L452.9,174.8L451.5,170.5L449.3,168.1L449.8,166.7L453.0,162.6L450.1,162.4L450.7,157.3L448.9,155.6L445.8,156.4L443.4,161.3L440.9,160.8L439.6,161.9L436.3,161.8L437.1,164.6L432.7,164.0L432.0,162.6L430.2,163.6L431.0,165.7L428.3,167.6L425.8,167.3L423.4,169.7L420.0,175.7L417.9,175.7L417.5,176.7L420.5,180.7L421.4,187.6L419.4,186.0L418.7,180.8L412.7,179.0L410.4,177.9L408.8,172.1L411.4,169.1L411.6,167.6L410.3,166.1L408.4,166.8L406.8,168.9L406.1,171.7L404.2,171.0L402.0,173.9L401.6,176.2L394.7,177.7L394.6,174.7L390.4,175.3L382.4,178.7L378.1,179.5L376.1,180.4L372.7,188.3L374.9,189.7L370.3,192.9L367.1,201.5L369.7,201.7L376.3,199.7L374.9,201.4L371.9,203.2L373.2,205.5L373.4,207.8L370.8,208.2L368.5,209.5L366.8,211.6L366.0,214.8L365.5,214.3Z " data-id="ZW.MW" data-name="Mashonaland West" id="ZW.MW"/>
utf-8</g>
</svg>
