<?xml version="1.0" encoding="UTF-8" standalone="no"?>
<svg width="11px" height="17px" viewBox="0 0 11 17" version="1.1" xmlns="http://www.w3.org/2000/svg" xmlns:xlink="http://www.w3.org/1999/xlink">
    <!-- Generator: sketchtool 39.1 (31720) - http://www.bohemiancoding.com/sketch -->
    <title>3CA68CAF-790D-4481-8F38-6A9793565938</title>
    <desc>Created with sketchtool.</desc>
    <defs></defs>
    <g id="Page-1" stroke="none" stroke-width="1" fill="none" fill-rule="evenodd" opacity="0.838561101">
        <g id="Home" transform="translate(-409.000000, -26.000000)">
            <g id="::-Header" transform="translate(0.000000, -1.000000)">
                <g id="~-search" transform="translate(396.000000, 16.000000)">
                    <g id="*-Sub-place">
                        <g id="location_filled" transform="translate(10.000000, 11.000000)">
                            <g id="Слой_1">
                                <rect id="Rectangle-path" x="0" y="0" width="17" height="17"></rect>
                                <path d="M8.5,0.34 C5.50052,0.34 3.06,2.78052 3.06,5.78 C3.06,10.57876 8.0325,16.30266 8.24432,16.54406 C8.30892,16.61784 8.40208,16.66 8.5,16.66 C8.6054,16.65286 8.69278,16.61682 8.75738,16.54202 C8.9692,16.29654 13.94,10.47642 13.94,5.78 C13.94,2.78052 11.49948,0.34 8.5,0.34 L8.5,0.34 Z M8.5,8.16 C7.37358,8.16 6.46,7.24642 6.46,6.12 C6.46,4.99358 7.37358,4.08 8.5,4.08 C9.62642,4.08 10.54,4.99358 10.54,6.12 C10.54,7.24642 9.62642,8.16 8.5,8.16 L8.5,8.16 Z" id="Shape" fill="#22333B"></path>
                            </g>
                        </g>
                    </g>
                </g>
            </g>
        </g>
    </g>
</svg>