<?xml version="1.0" encoding="UTF-8" standalone="no"?>
<svg width="140px" height="48px" viewBox="0 0 140 48" version="1.1" xmlns="http://www.w3.org/2000/svg" xmlns:xlink="http://www.w3.org/1999/xlink">
    <!-- Generator: sketchtool 39.1 (31720) - http://www.bohemiancoding.com/sketch -->
    <title>31F5224B-311F-450E-AA4B-3B610F61A85F</title>
    <desc>Created with sketchtool.</desc>
    <defs></defs>
    <g id="Page-1" stroke="none" stroke-width="1" fill="none" fill-rule="evenodd">
        <g id="Home" transform="translate(-570.000000, -256.000000)">
            <g id="::-Promo-Banner-" transform="translate(-1.000000, 104.000000)">
                <g id="APP-download-btns" transform="translate(571.000000, 152.000000)">
                    <g id="o_o-apple">
                        <rect id="bg" fill="#FFFFFF" x="0" y="0" width="140" height="48" rx="5"></rect>
                        <path d="M54.2200617,35.0947705 L51.8369136,35.0947705 L50.5314815,30.9471158 L45.9939506,30.9471158 L44.7504321,35.0947705 L42.4302469,35.0947705 L46.9258025,20.9742821 L49.7024691,20.9742821 L54.2200617,35.0947705 L54.2200617,35.0947705 Z M50.137963,29.2069895 L48.9574074,25.5198316 C48.8325309,25.1431579 48.5985185,24.2561179 48.2532716,22.8597726 L48.2112963,22.8597726 C48.0738272,23.4603284 47.8524074,24.3473684 47.5480864,25.5198316 L46.3885185,29.2069895 L50.137963,29.2069895 Z M65.7811111,29.8786358 C65.7811111,31.6102737 65.3183333,32.9790316 64.3927778,33.9838484 C63.5637654,34.8783158 62.534321,35.3250189 61.3054938,35.3250189 C59.9790741,35.3250189 59.0262346,34.8433011 58.4459259,33.8798653 L58.4039506,33.8798653 L58.4039506,39.2434863 L56.1666667,39.2434863 L56.1666667,28.2647747 C56.1666667,27.1761347 56.1383333,26.0588463 56.0837654,24.9129095 L58.051358,24.9129095 L58.1762346,26.5267705 L58.2182099,26.5267705 C58.964321,25.3108042 60.0966049,24.7038821 61.6161111,24.7038821 C62.8040123,24.7038821 63.795679,25.1781726 64.5890123,26.1278147 C65.3844444,27.0785179 65.7811111,28.3284379 65.7811111,29.8786358 Z M63.5018519,29.9613979 C63.5018519,28.9703747 63.2814815,28.1533642 62.838642,27.5103663 C62.3548765,26.8397811 61.7053086,26.5044884 60.8909877,26.5044884 C60.3390123,26.5044884 59.8374074,26.6912337 59.389321,27.0594189 C58.9401852,27.4307874 58.646358,27.9156884 58.5088889,28.5162442 C58.4396296,28.7963621 58.405,29.0255495 58.405,29.2059284 L58.405,30.9036126 C58.405,31.6442274 58.6295679,32.2691874 59.0787037,32.7795537 C59.5278395,33.28992 60.1112963,33.5445726 60.8290741,33.5445726 C61.6717284,33.5445726 62.3275926,33.2156463 62.7966667,32.5599158 C63.2667901,31.9031242 63.5018519,31.0373053 63.5018519,29.9613979 Z M77.3631481,29.8786358 C77.3631481,31.6102737 76.9003704,32.9790316 75.9737654,33.9838484 C75.1458025,34.8783158 74.116358,35.3250189 72.8875309,35.3250189 C71.5611111,35.3250189 70.6082716,34.8433011 70.0290123,33.8798653 L69.987037,33.8798653 L69.987037,39.2434863 L67.7497531,39.2434863 L67.7497531,28.2647747 C67.7497531,27.1761347 67.7214198,26.0588463 67.6668519,24.9129095 L69.6344444,24.9129095 L69.759321,26.5267705 L69.8012963,26.5267705 C70.546358,25.3108042 71.678642,24.7038821 73.1991975,24.7038821 C74.3860494,24.7038821 75.377716,25.1781726 76.1731481,26.1278147 C76.9654321,27.0785179 77.3631481,28.3284379 77.3631481,29.8786358 Z M75.0838889,29.9613979 C75.0838889,28.9703747 74.8624691,28.1533642 74.4196296,27.5103663 C73.9358642,26.8397811 73.2883951,26.5044884 72.4730247,26.5044884 C71.92,26.5044884 71.4194444,26.6912337 70.9703086,27.0594189 C70.5211728,27.4307874 70.2283951,27.9156884 70.0909259,28.5162442 C70.022716,28.7963621 69.987037,29.0255495 69.987037,29.2059284 L69.987037,30.9036126 C69.987037,31.6442274 70.2116049,32.2691874 70.658642,32.7795537 C71.1077778,33.2888589 71.6912346,33.5445726 72.4111111,33.5445726 C73.2537654,33.5445726 73.9096296,33.2156463 74.3787037,32.5599158 C74.8488272,31.9031242 75.0838889,31.0373053 75.0838889,29.9613979 Z M90.3125309,31.1349221 C90.3125309,32.3360337 89.9001235,33.3132632 89.0721605,34.0676716 C88.1623457,34.8921095 86.8957407,35.3037979 85.2681481,35.3037979 C83.7654321,35.3037979 82.5607407,35.0109474 81.6488272,34.4241853 L82.1672222,32.5386947 C83.1494444,33.1392505 84.2271605,33.4405895 85.4014198,33.4405895 C86.2440741,33.4405895 86.8999383,33.2474779 87.3711111,32.8633768 C87.8401852,32.4792758 88.0741975,31.9636042 88.0741975,31.3206063 C88.0741975,30.7476379 87.8811111,30.2648589 87.4938889,29.8733305 C87.1087654,29.4818021 86.4654938,29.1178611 85.5672222,28.7815074 C83.1221605,27.8594526 81.900679,26.5087326 81.900679,24.7325305 C81.900679,23.5717389 82.3288272,22.6199747 83.1861728,21.87936 C84.0403704,21.1376842 85.18,20.7673768 86.6050617,20.7673768 C87.8758642,20.7673768 88.9315432,20.9912589 89.7741975,21.4379621 L89.2148765,23.2820716 C88.4278395,22.8491621 87.537963,22.6327074 86.5420988,22.6327074 C85.7550617,22.6327074 85.1401235,22.8290021 84.6993827,23.2194695 C84.3268519,23.5685558 84.1400617,23.9940379 84.1400617,24.4980379 C84.1400617,25.0561516 84.3530864,25.5177095 84.7812346,25.8805895 C85.1537654,26.2158821 85.8306173,26.5787621 86.8128395,26.9702905 C88.0143827,27.4594358 88.8969136,28.0313432 89.4646296,28.6870737 C90.0302469,29.3406821 90.3125309,30.1587537 90.3125309,31.1349221 Z M97.7096296,26.6105937 L95.2435802,26.6105937 L95.2435802,31.5540379 C95.2435802,32.8113853 95.6780247,33.4395284 96.5490123,33.4395284 C96.9488272,33.4395284 97.2804321,33.4045137 97.5427778,33.3344842 L97.6046914,35.0523284 C97.1639506,35.2189137 96.583642,35.3027368 95.8648148,35.3027368 C94.9812346,35.3027368 94.2907407,35.0300463 93.792284,34.4857263 C93.2959259,33.9403453 93.0461728,33.0257179 93.0461728,31.7407832 L93.0461728,26.6084716 L91.577037,26.6084716 L91.577037,24.9107874 L93.0461728,24.9107874 L93.0461728,23.0465179 L95.2435802,22.3759326 L95.2435802,24.9107874 L97.7096296,24.9107874 L97.7096296,26.6105937 Z M108.836235,29.9200168 C108.836235,31.4850695 108.393395,32.7700042 107.509815,33.7748211 C106.58321,34.8093474 105.353333,35.3250189 103.820185,35.3250189 C102.342654,35.3250189 101.166296,34.8295074 100.289012,33.8384842 C99.4117284,32.8474611 98.9730864,31.59648 98.9730864,30.0887242 C98.9730864,28.5109389 99.424321,27.2185768 100.329938,26.21376 C101.233457,25.2078821 102.45284,24.7049432 103.985988,24.7049432 C105.463519,24.7049432 106.652469,25.2004547 107.549691,26.1925389 C108.408086,27.1549137 108.836235,28.3974063 108.836235,29.9200168 Z M106.515,29.9932295 C106.515,29.0541979 106.316667,28.2488589 105.914753,27.5772126 C105.445679,26.7644463 104.775123,26.3591242 103.906235,26.3591242 C103.006914,26.3591242 102.323765,26.7655074 101.854691,27.5772126 C101.452778,28.24992 101.254444,29.0679916 101.254444,30.0356716 C101.254444,30.9747032 101.452778,31.7800421 101.854691,32.4506274 C102.338457,33.2633937 103.014259,33.6687158 103.886296,33.6687158 C104.740494,33.6687158 105.411049,33.2549053 105.894815,32.4294063 C106.307222,31.7450274 106.515,30.9312 106.515,29.9932295 Z M116.108457,26.9023832 C115.887037,26.8610021 115.650926,26.8397811 115.403272,26.8397811 C114.616235,26.8397811 114.007593,27.1400589 113.579444,27.7416758 C113.206914,28.2722021 113.020123,28.9427874 113.020123,29.7523705 L113.020123,35.0947705 L110.783889,35.0947705 L110.804877,28.1194105 C110.804877,26.9458863 110.776543,25.8774063 110.720926,24.9139705 L112.66963,24.9139705 L112.751481,26.8620632 L112.813395,26.8620632 C113.049506,26.1925389 113.422037,25.6535242 113.932037,25.2492632 C114.430494,24.8853221 114.968827,24.7038821 115.549136,24.7038821 C115.755864,24.7038821 115.942654,24.7187368 116.108457,24.7452632 L116.108457,26.9023832 Z M126.114321,29.5221221 C126.114321,29.9274442 126.088086,30.2691032 126.032469,30.54816 L119.320617,30.54816 C119.346852,31.5540379 119.671111,32.3233011 120.294444,32.8538274 C120.860062,33.3281179 121.591481,33.5657937 122.489753,33.5657937 C123.483519,33.5657937 124.390185,33.4055747 125.205556,33.0840758 L125.556049,34.6544337 C124.60321,35.0746105 123.478272,35.2836379 122.180185,35.2836379 C120.618704,35.2836379 119.393025,34.8188968 118.501049,33.8904758 C117.611173,32.9620547 117.165185,31.7153179 117.165185,30.1513263 C117.165185,28.6159832 117.579691,27.3374147 118.409753,26.3177432 C119.278642,25.2291032 120.452901,24.6847832 121.930432,24.6847832 C123.381728,24.6847832 124.480432,25.2291032 125.226543,26.3177432 C125.817346,27.1825011 126.114321,28.2520421 126.114321,29.5221221 Z M123.980926,28.93536 C123.995617,28.2647747 123.849753,27.68544 123.546481,27.1962947 C123.159259,26.5670905 122.564259,26.2530189 121.76358,26.2530189 C121.03216,26.2530189 120.43716,26.5596632 119.982778,27.1750737 C119.610247,27.6642189 119.388827,28.2509811 119.320617,28.9342989 L123.980926,28.9342989 L123.980926,28.93536 Z" id="app-store" fill="#22333B"></path>
                        <path d="M49.3981481,12.2874442 C49.3981481,13.5363032 49.027716,14.4763958 48.2879012,15.1077221 C47.6026543,15.69024 46.6288272,15.9820295 45.3674691,15.9820295 C44.742037,15.9820295 44.2068519,15.9544421 43.7587654,15.8992674 L43.7587654,9.07563789 C44.3432716,8.98014316 44.9729012,8.93133474 45.6529012,8.93133474 C46.8544444,8.93133474 47.7600617,9.19553684 48.3708025,9.72394105 C49.055,10.3213137 49.3981481,11.1754611 49.3981481,12.2874442 Z M48.2385802,12.3182147 C48.2385802,11.5086316 48.0266049,10.8879158 47.6026543,10.4550063 C47.1787037,10.0231579 46.5595679,9.80670316 45.7441975,9.80670316 C45.3979012,9.80670316 45.1030247,9.83004632 44.8585185,9.87885474 L44.8585185,15.0663411 C44.9938889,15.0875621 45.2415432,15.0971116 45.6014815,15.0971116 C46.4430864,15.0971116 47.0926543,14.8604968 47.5501852,14.3872674 C48.007716,13.9140379 48.2385802,13.2243537 48.2385802,12.3182147 Z M55.5464815,13.3782063 C55.5464815,14.1474695 55.3292593,14.7777347 54.8948148,15.2721853 C54.4393827,15.7804295 53.8359877,16.0340211 53.0825309,16.0340211 C52.356358,16.0340211 51.7781481,15.79104 51.3468519,15.3029558 C50.9166049,14.8159326 50.7014815,14.2015832 50.7014815,13.4609684 C50.7014815,12.6864 50.9229012,12.0508295 51.3678395,11.55744 C51.8127778,11.0640505 52.4109259,10.8168253 53.1643827,10.8168253 C53.8905556,10.8168253 54.4740123,11.0598063 54.9158025,11.5468295 C55.3355556,12.0200589 55.5464815,12.6312253 55.5464815,13.3782063 Z M54.4058025,13.4142821 C54.4058025,12.9527242 54.3071605,12.5569516 54.1109259,12.2269642 C53.8800617,11.8280084 53.5516049,11.6285305 53.1245062,11.6285305 C52.682716,11.6285305 52.3469136,11.8280084 52.1160494,12.2269642 C51.9187654,12.5569516 51.8211728,12.9590905 51.8211728,13.4344421 C51.8211728,13.896 51.9198148,14.2917726 52.1160494,14.62176 C52.3542593,15.0207158 52.6858642,15.2201937 53.1140123,15.2201937 C53.5337654,15.2201937 53.8632716,15.0175326 54.1004321,14.6111495 C54.3040123,14.2747958 54.4058025,13.87584 54.4058025,13.4142821 Z M63.7904321,10.9186863 L62.2425926,15.9204884 L61.2351852,15.9204884 L60.5940123,13.7485137 C60.431358,13.2063158 60.2991358,12.6673011 60.1962963,12.1325305 L60.176358,12.1325305 C60.0808642,12.6821558 59.948642,13.2201095 59.778642,13.7485137 L59.0975926,15.9204884 L58.078642,15.9204884 L56.6231481,10.9186863 L57.7533333,10.9186863 L58.3126543,13.2965053 C58.4480247,13.8588632 58.5592593,14.3946947 58.6484568,14.9018779 L58.6683951,14.9018779 C58.7502469,14.4838232 58.8856173,13.9511747 59.0766049,13.3071158 L59.778642,10.9197474 L60.6748148,10.9197474 L61.3474691,13.2561853 C61.5101235,13.8259705 61.6423457,14.3745347 61.7441358,14.9029389 L61.7745679,14.9029389 C61.8490741,14.3883284 61.961358,13.8397642 62.1103704,13.2561853 L62.7106173,10.9197474 L63.7904321,10.9197474 L63.7904321,10.9186863 Z M69.4917284,15.9204884 L68.3919753,15.9204884 L68.3919753,13.0556463 C68.3919753,12.1728505 68.0603704,11.7314526 67.3950617,11.7314526 C67.0687037,11.7314526 66.8053086,11.8524126 66.600679,12.0953937 C66.3981481,12.3383747 66.2953086,12.6248589 66.2953086,12.9527242 L66.2953086,15.9194274 L65.1955556,15.9194274 L65.1955556,12.3479242 C65.1955556,11.9086484 65.1819136,11.4322358 65.155679,10.9165642 L66.1221605,10.9165642 L66.1735802,11.69856 L66.2040123,11.69856 C66.332037,11.4555789 66.5230247,11.25504 66.7738272,11.0948211 C67.0718519,10.9080758 67.4055556,10.8136421 67.7707407,10.8136421 C68.2324691,10.8136421 68.6165432,10.9643116 68.9219136,11.2667116 C69.3017901,11.6370189 69.4917284,12.1898274 69.4917284,12.9240758 L69.4917284,15.9204884 Z M71.4257407,8.62362947 L72.5244444,8.62362947 L72.5244444,15.9204884 L71.4257407,15.9204884 L71.4257407,8.62362947 Z M78.9991358,13.3782063 C78.9991358,14.1474695 78.7819136,14.7777347 78.3474691,15.2721853 C77.892037,15.7804295 77.2875926,16.0340211 76.5351852,16.0340211 C75.807963,16.0340211 75.2297531,15.79104 74.7995062,15.3029558 C74.3692593,14.8159326 74.1541358,14.2015832 74.1541358,13.4609684 C74.1541358,12.6864 74.3755556,12.0508295 74.8204938,11.55744 C75.2654321,11.0640505 75.8635802,10.8168253 76.6159877,10.8168253 C77.3432099,10.8168253 77.9256173,11.0598063 78.3684568,11.5468295 C78.7882099,12.0200589 78.9991358,12.6312253 78.9991358,13.3782063 Z M77.8574074,13.4142821 C77.8574074,12.9527242 77.7587654,12.5569516 77.5625309,12.2269642 C77.332716,11.8280084 77.0032099,11.6285305 76.5771605,11.6285305 C76.134321,11.6285305 75.7985185,11.8280084 75.5687037,12.2269642 C75.3714198,12.5569516 75.2738272,12.9590905 75.2738272,13.4344421 C75.2738272,13.896 75.3724691,14.2917726 75.5687037,14.62176 C75.8069136,15.0207158 76.1385185,15.2201937 76.5666667,15.2201937 C76.9864198,15.2201937 77.3148765,15.0175326 77.552037,14.6111495 C77.7566667,14.2747958 77.8574074,13.87584 77.8574074,13.4142821 Z M84.3216049,15.9204884 L83.3341358,15.9204884 L83.252284,15.3443368 L83.2218519,15.3443368 C82.8839506,15.8037726 82.402284,16.0340211 81.7768519,16.0340211 C81.3098765,16.0340211 80.9320988,15.8822905 80.647716,15.5809516 C80.3895679,15.3072 80.2604938,14.9666021 80.2604938,14.5623411 C80.2604938,13.9511747 80.5123457,13.4853726 81.0191975,13.1628126 C81.525,12.8402526 82.2364815,12.6821558 83.1525926,12.6895832 L83.1525926,12.5962105 C83.1525926,11.9372968 82.8104938,11.6083705 82.1252469,11.6083705 C81.637284,11.6083705 81.207037,11.7325137 80.8355556,11.9786779 L80.612037,11.2486737 C81.0716667,10.9611284 81.6393827,10.8168253 82.3088889,10.8168253 C83.6017284,10.8168253 84.2502469,11.5065095 84.2502469,12.8858779 L84.2502469,14.7278653 C84.2502469,15.2276211 84.2743827,15.6255158 84.3216049,15.9204884 Z M83.1798765,14.2015832 L83.1798765,13.4301979 C81.9667901,13.4089768 81.3602469,13.7453305 81.3602469,14.4381979 C81.3602469,14.6992168 81.4295062,14.8944505 81.5711728,15.02496 C81.7128395,15.1554695 81.8933333,15.2201937 82.1084568,15.2201937 C82.3498148,15.2201937 82.5754321,15.1427368 82.7811111,14.9888842 C82.9878395,14.8339705 83.1148148,14.6376758 83.162037,14.3968168 C83.1735802,14.3427032 83.1798765,14.2769179 83.1798765,14.2015832 Z M90.570679,15.9204884 L89.5947531,15.9204884 L89.5433333,15.1172716 L89.5129012,15.1172716 C89.2012346,15.7284379 88.6702469,16.0340211 87.9241358,16.0340211 C87.3280864,16.0340211 86.8317284,15.7974063 86.4382099,15.3241768 C86.0446914,14.8509474 85.8484568,14.2365979 85.8484568,13.4821895 C85.8484568,12.6726063 86.0614815,12.0168758 86.4896296,11.5160589 C86.9041358,11.0491958 87.412037,10.8157642 88.0164815,10.8157642 C88.6807407,10.8157642 89.1456173,11.0417684 89.4100617,11.4948379 L89.4310494,11.4948379 L89.4310494,8.62362947 L90.5318519,8.62362947 L90.5318519,14.5729516 C90.5318519,15.0599747 90.5444444,15.5088 90.570679,15.9204884 Z M89.4310494,13.8111158 L89.4310494,12.9771284 C89.4310494,12.8328253 89.4205556,12.7161095 89.4006173,12.6269811 C89.3387037,12.3595958 89.2054321,12.1346526 89.0029012,11.9532126 C88.7982716,11.7717726 88.5516667,11.6805221 88.267284,11.6805221 C87.8569753,11.6805221 87.5358642,11.8449853 87.2997531,12.1749726 C87.0657407,12.50496 86.9471605,12.9261979 86.9471605,13.4408084 C86.9471605,13.9352589 87.0594444,14.3363368 87.2850617,14.6451032 C87.5232716,14.9740295 87.8443827,15.1384926 88.2462963,15.1384926 C88.607284,15.1384926 88.8958642,15.0016168 89.1151852,14.7268042 C89.3271605,14.4732126 89.4310494,14.1676295 89.4310494,13.8111158 Z M99.9762963,13.3782063 C99.9762963,14.1474695 99.7590741,14.7777347 99.3246296,15.2721853 C98.8691975,15.7804295 98.2668519,16.0340211 97.5123457,16.0340211 C96.7872222,16.0340211 96.2090123,15.79104 95.7766667,15.3029558 C95.3464198,14.8159326 95.1312963,14.2015832 95.1312963,13.4609684 C95.1312963,12.6864 95.352716,12.0508295 95.7976543,11.55744 C96.2425926,11.0640505 96.8407407,10.8168253 97.5952469,10.8168253 C98.3203704,10.8168253 98.9048765,11.0598063 99.3456173,11.5468295 C99.7653704,12.0200589 99.9762963,12.6312253 99.9762963,13.3782063 Z M98.8366667,13.4142821 C98.8366667,12.9527242 98.7380247,12.5569516 98.5417901,12.2269642 C98.3098765,11.8280084 97.9824691,11.6285305 97.554321,11.6285305 C97.1135802,11.6285305 96.7777778,11.8280084 96.5458642,12.2269642 C96.3485802,12.5569516 96.2509877,12.9590905 96.2509877,13.4344421 C96.2509877,13.896 96.3496296,14.2917726 96.5458642,14.62176 C96.7840741,15.0207158 97.115679,15.2201937 97.5438272,15.2201937 C97.9635802,15.2201937 98.2941358,15.0175326 98.5312963,14.6111495 C98.7338272,14.2747958 98.8366667,13.87584 98.8366667,13.4142821 Z M105.889568,15.9204884 L104.790864,15.9204884 L104.790864,13.0556463 C104.790864,12.1728505 104.459259,11.7314526 103.792901,11.7314526 C103.466543,11.7314526 103.203148,11.8524126 102.999568,12.0953937 C102.795988,12.3383747 102.694198,12.6248589 102.694198,12.9527242 L102.694198,15.9194274 L101.593395,15.9194274 L101.593395,12.3479242 C101.593395,11.9086484 101.580802,11.4322358 101.554568,10.9165642 L102.52,10.9165642 L102.57142,11.69856 L102.601852,11.69856 C102.730926,11.4555789 102.921914,11.25504 103.171667,11.0948211 C103.470741,10.9080758 103.803395,10.8136421 104.16963,10.8136421 C104.630309,10.8136421 105.014383,10.9643116 105.319753,11.2667116 C105.700679,11.6370189 105.889568,12.1898274 105.889568,12.9240758 L105.889568,15.9204884 Z M113.290864,11.7516126 L112.079877,11.7516126 L112.079877,14.1814232 C112.079877,14.7989558 112.295,15.1077221 112.721049,15.1077221 C112.918333,15.1077221 113.082037,15.0907453 113.211111,15.0557305 L113.239444,15.8992674 C113.022222,15.9820295 112.73679,16.0234105 112.385247,16.0234105 C111.950802,16.0234105 111.612901,15.8897179 111.368395,15.6223326 C111.12284,15.3549474 111.001111,14.9050611 111.001111,14.2737347 L111.001111,11.7516126 L110.278086,11.7516126 L110.278086,10.9186863 L111.001111,10.9186863 L111.001111,10.0019368 L112.078827,9.67301053 L112.078827,10.9176253 L113.289815,10.9176253 L113.289815,11.7516126 L113.290864,11.7516126 Z M119.11284,15.9204884 L118.012037,15.9204884 L118.012037,13.0768674 C118.012037,12.1802779 117.680432,11.7314526 117.016173,11.7314526 C116.506173,11.7314526 116.157778,11.9914105 115.96679,12.5113263 C115.934259,12.6206147 115.91537,12.7543074 115.91537,12.9113432 L115.91537,15.9194274 L114.816667,15.9194274 L114.816667,8.62362947 L115.91537,8.62362947 L115.91537,11.63808 L115.936358,11.63808 C116.282654,11.0895158 116.779012,10.8157642 117.422284,10.8157642 C117.877716,10.8157642 118.254444,10.9664337 118.553519,11.2688337 C118.926049,11.6455074 119.11284,12.2057432 119.11284,12.9463579 L119.11284,15.9204884 Z M125.118457,13.1829726 C125.118457,13.3824505 125.103765,13.5500968 125.077531,13.6869726 L121.779321,13.6869726 C121.794012,14.1814232 121.95142,14.5580968 122.25679,14.8191158 C122.535926,15.0525474 122.895864,15.1692632 123.336605,15.1692632 C123.824568,15.1692632 124.269506,15.0907453 124.67037,14.9326484 L124.842469,15.7050947 C124.373395,15.9109389 123.82142,16.0138611 123.182346,16.0138611 C122.416296,16.0138611 121.812901,15.7857347 121.376358,15.3294821 C120.937716,14.8732295 120.720494,14.2610021 120.720494,13.4928 C120.720494,12.7383916 120.923025,12.1102484 121.331235,11.6094316 C121.757284,11.0746611 122.333395,10.8072758 123.060617,10.8072758 C123.772099,10.8072758 124.312531,11.0746611 124.677716,11.6094316 C124.972593,12.0338526 125.118457,12.5590737 125.118457,13.1829726 Z M124.069074,12.8954274 C124.077469,12.56544 124.005062,12.2810779 123.856049,12.04128 C123.665062,11.7325137 123.374383,11.5776 122.980864,11.5776 C122.621975,11.5776 122.329198,11.7282695 122.105679,12.0306695 C121.923086,12.2715284 121.815,12.5590737 121.779321,12.8954274 L124.069074,12.8954274 Z" id="download-on-the" fill="#22333B"></path>
                        <path d="M29.2434973,23.0991633 C29.2128054,19.6522163 32.036466,17.9752654 32.1655839,17.8971931 C30.5664268,15.5411198 28.0877861,15.2192051 27.2167694,15.1935375 C25.1350076,14.9721543 23.1156881,16.4523202 22.0552279,16.4523202 C20.9736008,16.4523202 19.3405766,15.2149272 17.5805513,15.2512896 C15.3156961,15.2865826 13.1968923,16.6116733 12.0348311,18.6693605 C9.63662457,22.8649463 11.4252252,29.0305217 13.722889,32.4218555 C14.8722501,34.0827642 16.2152881,35.9372495 17.9731968,35.8720109 C19.6930051,35.8003555 20.3354196,34.7640255 22.4108313,34.7640255 C24.4671928,34.7640255 25.0704487,35.8720109 26.8632827,35.8303011 C28.7090338,35.8003555 29.871095,34.161906 30.9802391,32.4860245 C32.3084603,30.582343 32.8418654,28.7075375 32.8630323,28.6112839 C32.8196402,28.5963112 29.2784227,27.2305801 29.2434973,23.0991633 Z M25.8567979,12.9625938 C26.7817902,11.7936478 27.4146796,10.2033251 27.2389946,8.58947368 C25.90019,8.64936479 24.2258905,9.5252722 23.2617395,10.6685506 C22.4087146,11.6760046 21.6467073,13.3272879 21.8435592,14.8801787 C23.3474654,14.993544 24.8915886,14.1133586 25.8567979,12.9625938 Z" id="apple" fill="#22333B"></path>
                    </g>
                </g>
            </g>
        </g>
    </g>
</svg>