<?xml version="1.0" encoding="UTF-8" standalone="no"?>
<svg width="140px" height="48px" viewBox="0 0 140 48" version="1.1" xmlns="http://www.w3.org/2000/svg" xmlns:xlink="http://www.w3.org/1999/xlink">
    <!-- Generator: sketchtool 39.1 (31720) - http://www.bohemiancoding.com/sketch -->
    <title>A7E72DB7-D29D-4EA9-B1AA-6082FE8A597D</title>
    <desc>Created with sketchtool.</desc>
    <defs>
        <linearGradient x1="50%" y1="0%" x2="50%" y2="100%" id="linearGradient-1">
            <stop stop-color="#1E79AF" offset="0%"></stop>
            <stop stop-color="#63FFD3" offset="100%"></stop>
        </linearGradient>
        <linearGradient x1="84.7178118%" y1="14.4459862%" x2="5.24419544%" y2="96.5617838%" id="linearGradient-2">
            <stop stop-color="#DC4057" offset="0%"></stop>
            <stop stop-color="#9E36BB" offset="100%"></stop>
        </linearGradient>
        <linearGradient x1="50%" y1="0%" x2="50%" y2="97.8256537%" id="linearGradient-3">
            <stop stop-color="#FF9676" offset="0%"></stop>
            <stop stop-color="#FFD074" offset="100%"></stop>
        </linearGradient>
        <linearGradient x1="17.4435371%" y1="0%" x2="100%" y2="100%" id="linearGradient-4">
            <stop stop-color="#51C6AD" offset="0%"></stop>
            <stop stop-color="#D5FFA1" offset="100%"></stop>
        </linearGradient>
    </defs>
    <g id="Page-1" stroke="none" stroke-width="1" fill="none" fill-rule="evenodd">
        <g id="Home" transform="translate(-730.000000, -257.000000)">
            <g id="::-Promo-Banner-" transform="translate(-1.000000, 104.000000)">
                <g id="APP-download-btns" transform="translate(571.000000, 152.000000)">
                    <g id="o_o-google-play" transform="translate(160.000000, 1.000000)">
                        <rect id="bg" fill="#FFFFFF" x="0" y="0" width="140" height="48" rx="5"></rect>
                        <g id="google-play" transform="translate(10.461868, 18.727404)">
                            <path d="M0.875914979,0.855701349 C0.481497123,0.981420775 0.22624982,1.38830581 0.22624982,2.00389748 L0.228680747,21.3783138 C0.228680747,21.9870931 0.476027538,22.387785 0.859506224,22.5215554 L11.4978492,11.6799581 L0.875914979,0.855701349" id="left" fill="url(#linearGradient-1)"></path>
                            <path d="M0.859506224,22.5215554 C1.1354164,22.6169288 1.48121573,22.5723387 1.85800936,22.3617741 L14.8403734,15.0861494 L11.4978492,11.6799581 L0.859506224,22.5215554" id="bottom" fill="url(#linearGradient-2)"></path>
                            <path d="M14.8421966,15.0861494 L19.2689141,12.6058228 C20.1665338,12.1010872 20.1665338,11.2798854 19.2689141,10.7763884 L14.8257878,8.28677222 L11.4978492,11.6781002 L14.8421966,15.0861494" id="right" fill="url(#linearGradient-3)"></path>
                            <path d="M14.8251801,8.28677222 L1.85800936,1.02105646 C1.4903317,0.816065668 1.15121743,0.768378989 0.876522711,0.855701349 L11.4978492,11.6781002 L14.8251801,8.28677222" id="top" fill="url(#linearGradient-4)"></path>
                        </g>
                        <path d="M48.5224533,35.1469229 L45.7730752,35.7885254 C44.6591031,35.9675053 43.6587767,36.1248094 42.5995004,36.1248094 C37.2964338,36.1248094 35.275726,32.1469973 35.275726,29.0337384 C35.275726,25.2318095 38.1387499,21.7067112 43.0419291,21.7067112 C44.0793271,21.7067112 45.0772225,21.8621574 45.986389,22.1148348 C47.4273208,22.5272936 48.1012953,23.0357451 48.5224533,23.333632 L46.9253345,24.8794236 L46.2519678,25.0330118 L46.7320758,24.2533037 C46.0818029,23.6061273 44.8863947,22.4114831 42.6177324,22.4114831 C39.5845436,22.4114831 37.2964338,24.7611358 37.2964338,28.1914802 C37.2964338,31.8757406 39.9090723,35.3413854 44.0993822,35.3413854 C45.3306466,35.3413854 45.9645107,35.0893273 46.5400326,34.8539904 L46.5400326,31.6955221 L43.6368984,31.8546841 L45.175675,31.0124259 L49.2499081,31.0124259 L48.7515682,31.5010595 C48.6172595,31.6174893 48.5990275,31.657125 48.5613481,31.8131905 C48.541293,31.9915511 48.5224533,32.5588367 48.5224533,32.7582538 L48.5224533,35.1469229 Z M54.8276694,35.872132 C51.567189,35.872132 49.8260378,33.2852845 49.8260378,30.9430634 C49.8260378,28.2063435 52.0193414,25.8647418 55.1370049,25.8647418 C58.1501385,25.8647418 60.0365376,28.2701322 60.0365376,30.7956683 C60.0365376,33.2623701 58.1726246,35.872132 54.8276694,35.872132 Z M57.3929048,34.1814224 C57.8851675,33.5125703 58.0079293,32.6777438 58.0079293,31.8639737 C58.0079293,30.0233918 57.1449503,26.5131568 54.6040242,26.5131568 C53.9251879,26.5131568 53.2512135,26.7825556 52.7589508,27.2222639 C51.956745,27.9536661 51.8145358,28.8727184 51.8145358,29.7744302 C51.8145358,31.8392014 52.8203317,35.2447734 55.3017001,35.2447734 C56.1020828,35.2447734 56.9194819,34.8490359 57.3929048,34.1814224 Z M65.7419226,35.872132 C62.4820499,35.872132 60.73786,33.2852845 60.73786,30.9430634 C60.73786,28.2063435 62.9305558,25.8647418 66.0494348,25.8647418 C69.0643916,25.8647418 70.9526139,28.2701322 70.9526139,30.7956683 C70.9526139,33.2623701 69.08627,35.872132 65.7419226,35.872132 Z M68.3065502,34.1814224 C68.8024593,33.5125703 68.9227901,32.6777438 68.9227901,31.8639737 C68.9227901,30.0233918 68.0622421,26.5131568 65.518885,26.5131568 C64.8424797,26.5131568 64.1612125,26.7825556 63.6701653,27.2222639 C62.8691749,27.9536661 62.726358,28.8727184 62.726358,29.7744302 C62.726358,31.8392014 63.7278998,35.2447734 66.2135223,35.2447734 C67.0157281,35.2447734 67.8343427,34.8490359 68.3065502,34.1814224 Z M78.4568846,26.8903151 C78.9278767,27.284814 79.9105788,28.1221177 79.9105788,29.7100222 C79.9105788,31.2576717 79.0542849,31.9872159 78.1906982,32.6777438 C77.9257271,32.9496198 77.615784,33.2444102 77.615784,33.7002205 C77.615784,34.1628432 77.9257271,34.4136628 78.1487647,34.6006936 L78.8895896,35.183462 C79.7902479,35.9582157 80.6112934,36.6685614 80.6112934,38.1115479 C80.6112934,40.07723 78.7443417,42.0596333 75.2164593,42.0596333 C72.2446515,42.0596333 70.8079738,40.6172661 70.8079738,39.0708553 C70.8079738,38.3183966 71.1756514,37.2525684 72.3886839,36.5224048 C73.6600585,35.7303105 75.3823701,35.6244089 76.3049068,35.5624782 C76.016842,35.183462 75.6880591,34.7864859 75.6880591,34.1386902 C75.6880591,33.7844463 75.792589,33.5732625 75.8934724,33.3243008 C75.6692194,33.3459766 75.4431433,33.3682717 75.23773,33.3682717 C73.0626583,33.3682717 71.8332171,31.7147206 71.8332171,30.0853225 C71.8332171,29.1241573 72.2634911,28.0577097 73.147133,27.284814 C74.3164087,26.3038308 75.7105452,26.1347599 76.81844,26.1347599 L81.0446061,26.1347599 L79.7306902,26.8903151 L78.4568846,26.8903151 Z M77.0037982,36.1681609 C76.8354565,36.1458659 76.7345731,36.1458659 76.5315907,36.1458659 C76.3456248,36.1458659 75.23773,36.1867402 74.3796128,36.4802919 C73.9256373,36.6493629 72.6135446,37.149144 72.6135446,38.6336242 C72.6135446,40.1150077 74.0301671,41.1833132 76.2216475,41.1833132 C78.1906982,41.1833132 79.2359966,40.2215286 79.2359966,38.9265566 C79.2359966,37.8607284 78.5595913,37.2983972 77.0037982,36.1681609 Z M77.5932979,32.1971612 C78.0673286,31.7147206 78.1086544,31.0483457 78.1086544,30.6699488 C78.1086544,29.1668895 77.2292666,26.8259071 75.5245793,26.8259071 C74.9928141,26.8259071 74.4166845,27.0977831 74.0897248,27.5182929 C73.74271,27.9536661 73.6387879,28.5184745 73.6387879,29.0616072 C73.6387879,30.4612422 74.4397783,32.7824068 76.2015924,32.7824068 C76.7157334,32.7824068 77.2687692,32.5278714 77.5932979,32.1971612 Z M84.0619938,34.0371238 C84.0619938,34.8490359 84.2042031,34.9753747 84.8781775,35.0391633 C85.2294464,35.0812763 85.5794998,35.0998555 85.9259069,35.1419684 L85.1674578,35.6021139 L81.5532775,35.6021139 C82.0273082,34.9753747 82.1087443,34.9128246 82.1087443,34.4954113 L82.1087443,34.0290728 L82.1008437,21.6032868 L80.5049404,21.6032868 L82.041286,20.8489703 L84.9741991,20.8489703 C84.3385118,21.2242706 84.1482917,21.4527951 84.0668557,22.1841973 L84.0619938,34.0371238 Z M94.1424391,34.198763 L93.1615602,35.1419684 C92.9348763,35.2689264 92.7094078,35.4163216 92.4845471,35.5209846 C91.8032799,35.8362121 91.1104658,35.9154835 90.4948336,35.9154835 C89.8396989,35.9154835 88.8126323,35.872132 87.7649029,35.0998555 C86.3093856,34.0550837 85.6730905,32.2590919 85.6730905,30.6941018 C85.6730905,27.4538849 88.2614197,25.8647418 90.3726795,25.8647418 C91.1104658,25.8647418 91.8683072,26.0530113 92.4845471,26.4499874 C93.5091827,27.1405153 93.7741537,28.0378919 93.9212248,28.5184745 L89.1000894,30.5033551 L87.5212025,30.6284552 C88.0323049,33.2852845 89.7959422,34.8304567 91.7449377,34.8304567 C92.7185238,34.8304567 93.4411168,34.5065589 94.104152,34.1727521 C94.104152,34.1727521 94.2372453,34.1021511 94.1424391,34.198763 Z M91.2338353,28.914212 C91.6252145,28.7692941 91.8288046,28.6441939 91.8288046,28.3531194 C91.8288046,27.5182929 90.9020138,26.5540311 89.7959422,26.5540311 C88.9767199,26.5540311 87.438551,27.204304 87.438551,29.4622992 C87.438551,29.8146852 87.4798768,30.1899855 87.5005397,30.5652859 L91.2338353,28.914212 Z M100.053845,34.2879433 L100.053845,39.6108914 L99.0164471,39.6108914 L99.0164471,26.0660168 L100.053845,26.0660168 L100.053845,27.6087118 C100.729643,26.6116267 101.964553,25.8213903 103.3988,25.8213903 C105.971328,25.8213903 107.703971,27.8099867 107.703971,30.9579268 C107.703971,34.0848105 105.971328,36.1149005 103.3988,36.1149005 C102.044774,36.1149005 100.831742,35.4033162 100.053845,34.2879433 Z M106.589392,30.9579268 C106.589392,28.5853597 105.375751,26.7757432 103.223774,26.7757432 C101.887372,26.7757432 100.609312,27.8459066 100.053845,28.779203 L100.053845,33.1149749 C100.609312,34.0501292 101.887372,35.159309 103.223774,35.159309 C105.375751,35.159309 106.589392,33.3342098 106.589392,30.9579268 Z M109.120594,22.3260187 L110.157384,22.3260187 L110.157384,35.8708933 L109.120594,35.8708933 L109.120594,22.3260187 Z M118.767727,35.8417859 C118.698445,35.5017861 118.64618,35.2020412 118.607893,34.951841 C118.576291,34.7022601 118.558059,34.4471054 118.558059,34.1876155 C118.202536,34.7196007 117.698727,35.1624055 117.055139,35.5110757 C116.410943,35.862223 115.798957,36.0343905 114.95968,36.0343905 C113.949022,36.0343905 113.16444,35.7810937 112.60472,35.2670685 C112.046822,34.7536626 111.76605,34.0581802 111.76605,33.1781443 C111.76605,32.2993469 112.172622,31.5859046 112.983336,31.0402947 C113.794051,30.4922076 114.84178,30.2197123 116.138679,30.2197123 L118.558059,30.2197123 L118.558059,29.0015344 C118.558059,28.299859 118.323475,27.748056 117.854914,27.3479833 C117.384529,26.9472914 116.724533,26.7447778 115.868846,26.7447778 C115.086696,26.7447778 114.452224,26.9299507 113.969077,27.2903877 C113.490185,27.6582564 113.248915,28.1140667 113.248915,28.6633925 L112.187208,28.6633925 L112.16533,28.6107513 C112.127043,27.8700596 112.459472,27.220406 113.166264,26.6593134 C113.870017,26.0988401 114.791946,25.8170551 115.926581,25.8170551 C117.05757,25.8170551 117.972813,26.0945049 118.662589,26.6481658 C119.351757,27.196253 119.697556,27.9883473 119.697556,29.0238295 L119.697556,33.8606211 C119.697556,34.2080527 119.713965,34.5437173 119.756506,34.8707117 C119.800263,35.1983254 119.870152,35.5253197 119.963135,35.8417859 L118.767727,35.8417859 Z M115.086696,35.0713673 C115.967907,35.0713673 116.601163,34.8707117 117.248397,34.4737356 C117.891377,34.0792367 118.328944,33.5645922 118.558059,32.9415688 L118.558059,31.0588739 L116.127132,31.0588739 C115.198518,31.0588739 114.429738,31.2681999 113.825045,31.6905676 C113.219136,32.1116967 112.912232,32.6213868 112.912232,33.2140641 C112.912232,33.7732988 113.106706,34.2204388 113.493223,34.5592 C113.880956,34.9016771 114.410898,35.0713673 115.086696,35.0713673 Z M121.797877,38.7351906 C122.019699,38.8361377 122.398316,38.8980685 122.63837,38.8980685 C123.272841,38.8980685 123.714662,38.6336242 124.111511,37.6997084 L124.868137,35.9526419 L120.781749,26.0660168 L121.93887,26.0660168 L125.444267,34.6335169 L128.91563,26.0660168 L130.08916,26.0660168 L125.105152,38.0273221 C124.587973,39.2597441 123.77422,39.8524214 122.656602,39.8524214 C122.321134,39.8524214 121.878705,39.7917292 121.619811,39.7105999 L121.797877,38.7351906 Z" id="logotype" fill="#22333B"></path>
                        <path d="M35.1983878,11.1580137 C35.1983878,9.05461067 36.7447987,7.70157368 38.6683678,7.70157368 C39.9571468,7.70157368 40.799405,8.32301944 41.3251971,9.08402451 L40.3832304,9.6353777 C40.0265092,9.13409064 39.4016279,8.7442007 38.6683678,8.7442007 C37.3603904,8.7442007 36.3880776,9.74552317 36.3880776,11.1580137 C36.3880776,12.5498519 37.3603904,13.5718266 38.6683678,13.5718266 C39.3427937,13.5718266 39.9373289,13.2614167 40.2345965,12.9710332 L40.2345965,11.9390452 L38.2521932,11.9390452 L38.2521932,10.9070572 L41.3846506,10.9070572 L41.3846506,13.4016018 C40.7405708,14.133193 39.808513,14.6238411 38.6683678,14.6238411 C36.7447987,14.6238411 35.1983878,13.2520293 35.1983878,11.1580137 Z M42.8189668,14.4936691 L42.8189668,7.81171916 L47.3492013,7.81171916 L47.3492013,8.84433295 L43.9783105,8.84433295 L43.9783105,10.5666076 L47.2798388,10.5666076 L47.2798388,11.5985956 L43.9783105,11.5985956 L43.9783105,13.4616812 L47.3492013,13.4616812 L47.3492013,14.4936691 L42.8189668,14.4936691 Z M50.5584528,14.4936691 L50.5584528,8.84433295 L48.5562316,8.84433295 L48.5562316,7.81171916 L53.720637,7.81171916 L53.720637,8.84433295 L51.7184158,8.84433295 L51.7184158,14.4936691 L50.5584528,14.4936691 Z M57.7517096,7.81171916 L58.9110533,7.81171916 L58.9110533,14.4936691 L57.7517096,14.4936691 L57.7517096,7.81171916 Z M62.1413613,14.4936691 L62.1413613,8.84433295 L60.1391401,8.84433295 L60.1391401,7.81171916 L65.3035454,7.81171916 L65.3035454,8.84433295 L63.3013242,8.84433295 L63.3013242,14.4936691 L62.1413613,14.4936691 Z M69.0472594,11.1580137 C69.0472594,9.16413031 70.4444171,7.70157368 72.4280591,7.70157368 C74.3999342,7.70157368 75.8082395,9.16413031 75.8082395,11.1580137 C75.8082395,13.1512712 74.3999342,14.6138278 72.4280591,14.6138278 C70.4444171,14.6138278 69.0472594,13.1512712 69.0472594,11.1580137 Z M74.6185498,11.1580137 C74.6185498,9.77556284 73.7558544,8.7442007 72.4280591,8.7442007 C71.0891162,8.7442007 70.2369491,9.77556284 70.2369491,11.1580137 C70.2369491,12.5298255 71.0891162,13.5718266 72.4280591,13.5718266 C73.7558544,13.5718266 74.6185498,12.5298255 74.6185498,11.1580137 Z M81.7721709,14.4936691 L78.3220087,9.71548349 L78.3220087,14.4936691 L77.162665,14.4936691 L77.162665,7.81171916 L78.3523548,7.81171916 L81.7325352,12.4403323 L81.7325352,7.81171916 L82.8924982,7.81171916 L82.8924982,14.4936691 L81.7721709,14.4936691 Z" id="get-it-on" fill="#22333B"></path>
                    </g>
                </g>
            </g>
        </g>
    </g>
</svg>